<?xml version="1.0" encoding="UTF-8" standalone="no"?>
<svg xmlns:xlink="http://www.w3.org/1999/xlink" height="31.9px" width="32.25px" xmlns="http://www.w3.org/2000/svg">
  <g transform="matrix(1.0, 0.0, 0.0, 1.0, 19.75, 11.2)">
    <path d="M0.3 -0.8 L4.4 -4.55 3.2 -9.95 -0.95 -5.35 0.3 -0.8 M-0.1 0.6 L-1.9 -5.45 3.5 -11.2 5.45 -4.15 -0.1 0.6 M11.25 0.05 L11.1 1.5 8.05 -4.15 12.5 -10.1 12.0 -7.5 8.95 -4.1 11.25 0.05 M-4.9 -9.15 L-3.9 -10.55 -3.9 -5.85 -9.25 -2.55 -7.85 -4.6 -4.85 -6.5 -4.9 -9.15 M-14.35 3.7 L-11.9 1.05 -10.35 8.1 -1.7 5.4 Q2.05 9.8 4.7 11.85 7.75 11.0 11.1 8.5 L11.35 12.1 4.05 15.2 -2.35 8.0 -12.3 11.25 -14.35 3.7" fill="#f9decb" fill-rule="evenodd" stroke="none"/>
    <path d="M0.3 -0.8 L-0.95 -5.35 3.2 -9.95 4.4 -4.55 0.3 -0.8 M12.0 -7.5 Q11.5 -5.4 11.3 -1.3 L11.25 -0.35 11.2 -0.15 11.25 0.05 8.95 -4.1 12.0 -7.5 M-7.85 -4.6 L-4.9 -9.15 -4.85 -6.5 -7.85 -4.6 M11.35 12.1 L11.45 12.95 Q12.1 18.65 10.8 19.8 5.55 21.45 -7.1 20.0 -10.25 18.75 -12.75 17.15 -17.4 14.1 -19.7 9.65 -20.1 9.1 -15.15 4.65 L-14.35 3.7 -12.3 11.25 -2.35 8.0 4.05 15.2 11.35 12.1" fill="#9d5c51" fill-rule="evenodd" stroke="none"/>
  </g>
</svg>
