<?xml version="1.0" encoding="UTF-8" standalone="no"?>
<svg xmlns:xlink="http://www.w3.org/1999/xlink" height="29.65px" width="23.3px" xmlns="http://www.w3.org/2000/svg">
  <g transform="matrix(1.0, 0.0, 0.0, 1.0, 11.65, 14.8)">
    <path d="M11.65 -10.55 L8.75 0.0 Q8.15 2.65 6.75 5.45 L7.2 13.8 Q5.2 14.8 2.4 14.85 L1.1 12.1 Q0.9 13.3 0.05 14.65 -12.95 13.55 -11.5 7.15 -6.2 0.1 -3.05 -7.0 L-2.85 -9.55 -0.25 -14.8 Q5.8 -14.55 11.65 -10.55 M1.2 10.65 Q1.6 10.65 1.9 10.35 2.25 10.05 2.25 9.6 L1.9 8.9 Q1.6 8.55 1.2 8.55 0.75 8.55 0.45 8.9 0.15 9.2 0.15 9.6 0.15 10.05 0.45 10.35 0.75 10.65 1.2 10.65" fill="#d4d4d4" fill-rule="evenodd" stroke="none"/>
  </g>
</svg>
