<?xml version="1.0" encoding="UTF-8" standalone="no"?>
<svg xmlns:xlink="http://www.w3.org/1999/xlink" height="9.75px" width="17.1px" xmlns="http://www.w3.org/2000/svg">
  <g transform="matrix(1.0, 0.0, 0.0, 1.0, 8.55, 4.9)">
    <path d="M-6.6 -3.05 Q-6.6 -2.0 -5.55 -1.25 -5.55 -3.55 -3.05 -4.9 -4.4 -3.05 -3.85 -1.5 -3.35 0.0 -2.5 -1.45 -2.15 -0.25 -2.95 0.5 -1.2 0.65 -1.1 -1.3 -0.15 -0.6 -0.3 0.1 2.6 -0.7 0.55 -4.15 3.5 -3.5 2.45 0.15 2.0 1.25 0.95 1.5 3.55 2.4 3.85 0.55 5.0 2.05 5.7 0.75 5.5 -1.1 6.95 -3.1 7.05 0.25 8.55 1.1 L7.4 4.8 5.1 4.85 Q-2.85 4.8 -8.55 0.7 L-6.6 -3.05" fill="#fdbfa3" fill-rule="evenodd" stroke="none"/>
  </g>
</svg>
