<?xml version="1.0" encoding="UTF-8" standalone="no"?>
<svg xmlns:xlink="http://www.w3.org/1999/xlink" height="31.9px" width="27.35px" xmlns="http://www.w3.org/2000/svg">
  <g transform="matrix(1.0, 0.0, 0.0, 1.0, 13.65, 15.95)">
    <path d="M12.95 -10.7 Q10.65 -1.6 7.55 5.3 L8.6 6.1 Q9.0 11.3 4.95 15.2 -2.6 14.25 -8.1 11.0 -10.55 9.55 -12.6 7.65 -13.45 -1.95 -11.75 -11.8 L-8.1 -8.2 -7.75 -7.85 -7.4 -8.1 -1.9 -15.2 M7.55 5.3 Q-0.7 -1.1 -7.75 -7.85" fill="none" stroke="#000000" stroke-linecap="round" stroke-linejoin="round" stroke-width="1.5"/>
    <path d="M-11.55 -0.1 L-10.25 1.35 -10.45 3.75 -8.85 2.1 -6.55 3.4 -7.55 0.85 -6.4 -0.85 -8.25 -0.55 -8.85 -2.2 -9.95 -0.25 -11.55 -0.1" fill="none" stroke="#000000" stroke-linecap="round" stroke-linejoin="round" stroke-width="0.8"/>
  </g>
</svg>
