<?xml version="1.0" encoding="UTF-8" standalone="no"?>
<svg xmlns:xlink="http://www.w3.org/1999/xlink" height="27.35px" width="24.4px" xmlns="http://www.w3.org/2000/svg">
  <g transform="matrix(1.0, 0.0, 0.0, 1.0, 12.2, 13.7)">
    <path d="M7.15 5.05 L7.15 5.2 7.0 3.9 7.15 5.05" fill="#434343" fill-rule="evenodd" stroke="none"/>
    <path d="M-2.95 -4.85 L-1.6 -8.85 -1.85 -9.0 Q-1.95 -10.85 -0.85 -12.7 2.8 -11.35 11.2 -10.6 11.2 -8.9 9.85 -7.2 L9.7 -7.2 7.7 -2.55 7.45 -1.75 7.35 -1.25 7.0 1.4 6.35 7.2 Q5.2 13.35 0.85 10.85 L0.75 10.75 Q0.25 9.95 0.1 7.95 -0.65 8.95 -2.25 9.35 -3.3 8.85 -3.45 8.05 -6.4 12.5 -9.35 12.65 -12.3 12.75 -10.55 9.15 L-6.25 1.15 -3.35 -4.0 -3.0 -4.9 M0.1 7.95 L0.1 5.5 Q-1.15 5.85 -2.75 7.05 L-3.45 8.05 M0.1 5.5 L0.05 4.45 M9.7 -7.2 Q2.3 -6.75 -1.6 -8.85" fill="none" stroke="#000000" stroke-linecap="round" stroke-linejoin="round" stroke-width="2.0"/>
    <path d="M-3.0 -4.9 L-2.95 -4.85 Z" fill="none" stroke="#000000" stroke-linecap="round" stroke-linejoin="round" stroke-width="1.0"/>
  </g>
</svg>
