<?xml version="1.0" encoding="UTF-8" standalone="no"?>
<svg xmlns:xlink="http://www.w3.org/1999/xlink" height="79.1px" width="175.05px" xmlns="http://www.w3.org/2000/svg">
  <g transform="matrix(1.0, 0.0, 0.0, 1.0, 87.55, 39.55)">
    <path d="M-30.2 22.4 Q-63.3 20.5 -73.45 14.2 -88.0 5.15 -86.7 -11.45 -85.45 -28.05 -72.2 -33.4 -58.95 -38.8 2.15 -38.8 63.25 -38.8 75.75 -29.25 88.25 -19.65 86.55 -5.95 84.85 7.8 74.05 15.5 63.25 23.15 2.15 23.15 L-14.5 23.0 Q-13.7 23.9 -13.35 25.1 L-13.15 26.5 -13.15 26.6 Q-13.15 28.55 -14.35 30.05 -12.75 30.3 -11.55 31.25 -10.05 32.55 -10.05 34.4 -10.05 36.2 -11.55 37.5 -13.05 38.8 -15.2 38.8 -17.35 38.8 -18.9 37.5 -20.4 36.2 -20.4 34.4 L-20.3 33.55 -22.65 33.7 Q-26.55 33.7 -29.35 31.6 -32.15 29.55 -32.15 26.6 -32.15 25.4 -31.7 24.4 L-31.4 23.8 -30.2 22.4 -29.35 21.6 Q-26.55 19.6 -22.65 19.6 -18.7 19.6 -15.95 21.6 L-14.5 23.0 M-20.3 33.55 Q-20.0 32.2 -18.9 31.25 -17.35 30.0 -15.2 30.0 L-14.35 30.05" fill="none" stroke="#000000" stroke-linecap="round" stroke-linejoin="round" stroke-width="1.5"/>
  </g>
</svg>
