<?xml version="1.0" encoding="UTF-8" standalone="no"?>
<svg xmlns:xlink="http://www.w3.org/1999/xlink" height="53.95px" width="100.45px" xmlns="http://www.w3.org/2000/svg">
  <g transform="matrix(1.0, 0.0, 0.0, 1.0, 50.25, 27.0)">
    <path d="M-46.5 -19.9 L-29.8 -13.55 -32.1 -25.8 -16.95 -14.8 -18.5 -24.5 -9.45 -16.45 -5.3 -25.65 1.4 -17.1 7.25 -26.25 12.25 -16.15 20.85 -25.2 22.2 -13.35 32.85 -20.65 31.6 -11.3 49.45 -16.95 38.8 -5.95 48.15 1.7 38.65 7.85 46.0 19.4 34.0 16.05 35.7 24.15 21.7 17.2 20.4 22.95 12.35 18.05 7.05 25.0 2.65 19.7 -1.6 23.7 -8.15 17.05 -11.4 24.4 -14.85 16.75 -23.6 25.45 -27.15 17.15 -37.4 26.2 -36.05 16.0 -48.45 17.6 -41.0 8.75 -49.5 -1.3 -40.3 -5.95 -46.5 -19.9 Z" fill="none" stroke="#000000" stroke-linecap="round" stroke-linejoin="round" stroke-width="1.5"/>
  </g>
</svg>
