<?xml version="1.0" encoding="UTF-8" standalone="no"?>
<svg xmlns:xlink="http://www.w3.org/1999/xlink" height="52.75px" width="89.1px" xmlns="http://www.w3.org/2000/svg">
  <g transform="matrix(1.0, 0.0, 0.0, 1.0, 44.55, 26.35)">
    <path d="M-25.25 13.6 Q-30.8 12.1 -34.8 9.75 -45.7 3.25 -44.4 -5.6 -43.1 -14.45 -33.5 -20.4 -25.4 -25.4 -7.85 -26.2 L0.85 -26.35 1.7 -26.35 1.8 -26.35 Q24.1 -26.25 33.5 -20.4 43.05 -14.45 44.4 -5.6 45.75 3.25 34.85 9.75 24.15 16.1 1.8 16.2 L1.7 16.2 0.85 16.2 -7.85 16.05 -10.8 15.9 -10.8 16.0 Q-10.8 17.65 -11.75 18.95 -10.5 19.15 -9.55 20.0 -8.35 21.1 -8.35 22.65 -8.35 24.2 -9.55 25.3 -10.75 26.4 -12.45 26.4 -14.15 26.4 -15.35 25.3 -16.55 24.2 -16.55 22.65 L-16.45 21.9 -18.3 22.05 Q-21.4 22.05 -23.6 20.25 -25.8 18.5 -25.8 16.0 -25.8 14.7 -25.25 13.6" fill="#e1d9ff" fill-rule="evenodd" stroke="none"/>
  </g>
</svg>
