<?xml version="1.0" encoding="UTF-8" standalone="no"?>
<svg xmlns:xlink="http://www.w3.org/1999/xlink" height="52.25px" width="127.5px" xmlns="http://www.w3.org/2000/svg">
  <g transform="matrix(1.0, 0.0, 0.0, 1.0, 63.75, 26.1)">
    <path d="M-30.6 13.85 L-31.6 13.8 -31.75 13.8 -32.1 13.8 Q-48.55 12.35 -54.5 8.5 -63.75 2.45 -63.75 -5.95 -63.75 -14.35 -54.5 -20.2 -48.55 -24.0 -32.1 -25.3 L-31.75 -25.35 Q-20.0 -25.95 -4.95 -26.05 L0.2 -26.1 1.2 -26.1 1.95 -26.1 Q43.5 -26.05 53.6 -19.75 63.75 -13.4 63.75 -5.0 63.75 3.4 53.6 9.0 43.5 14.5 1.95 14.55 L1.2 14.55 0.2 14.55 -5.0 14.55 -12.25 14.45 -12.05 15.65 -12.05 15.75 Q-12.05 17.4 -13.25 18.7 -11.65 18.9 -10.45 19.75 -8.95 20.85 -8.95 22.4 -8.95 23.95 -10.45 25.05 -11.95 26.15 -14.1 26.15 -16.25 26.15 -17.8 25.05 -19.3 23.95 -19.3 22.4 L-19.2 21.65 -21.55 21.8 Q-25.45 21.8 -28.25 20.0 -31.05 18.25 -31.05 15.75 -31.05 14.75 -30.6 13.85" fill="#d7fdff" fill-rule="evenodd" stroke="none"/>
  </g>
</svg>
