<?xml version="1.0" encoding="UTF-8" standalone="no"?>
<svg xmlns:xlink="http://www.w3.org/1999/xlink" height="13.95px" width="71.45px" xmlns="http://www.w3.org/2000/svg">
  <g transform="matrix(1.0, 0.0, 0.0, 1.0, 35.75, 6.95)">
    <path d="M-30.0 -6.9 L-29.85 -6.9 Q-27.45 -6.6 -26.65 -4.75 -23.35 -5.15 -21.8 -3.2 -20.4 -4.55 -17.4 -4.35 -14.35 -4.1 -11.8 -2.3 -6.9 -4.0 -3.85 -1.85 -0.2 -3.7 3.4 -0.95 3.45 -2.95 7.0 -3.45 9.65 -3.4 12.15 -1.95 12.65 -3.8 16.3 -4.0 18.95 -4.0 19.9 -2.6 21.0 -4.65 23.5 -5.15 25.95 -6.05 27.9 -4.55 27.8 -5.75 29.1 -6.35 L30.4 -6.8 Q33.15 -6.35 33.3 -4.55 36.05 -4.0 35.65 -1.8 35.15 0.35 33.05 0.15 33.45 1.4 31.45 2.4 29.5 2.9 28.0 2.35 27.0 5.8 22.85 3.55 22.55 5.7 19.65 6.2 16.8 6.45 14.7 5.0 10.8 8.65 5.55 5.1 4.5 6.65 1.55 7.0 -2.65 7.15 -4.55 4.9 -5.45 6.45 -8.3 6.55 -11.95 6.55 -12.95 4.25 -15.5 6.05 -18.25 5.55 -21.45 4.75 -22.0 3.0 -24.85 4.5 -26.8 4.15 -28.7 3.7 -29.3 1.8 -32.45 2.9 -34.05 2.1 -35.6 1.2 -34.75 -0.5 -36.05 -1.2 -35.65 -3.0 -35.25 -4.9 -33.0 -4.7 -32.3 -7.2 -30.0 -6.9" fill="#f7fcff" fill-rule="evenodd" stroke="none"/>
  </g>
</svg>
