<?xml version="1.0" encoding="UTF-8" standalone="no"?>
<svg xmlns:xlink="http://www.w3.org/1999/xlink" height="37.5px" width="69.7px" xmlns="http://www.w3.org/2000/svg">
  <g transform="matrix(1.0, 0.0, 0.0, 1.0, 34.85, 18.75)">
    <path d="M-16.8 -16.35 L-17.6 -15.55 Q-18.15 -17.3 -14.95 -18.35 -13.15 -16.9 8.65 -16.85 19.05 -17.05 21.2 -18.75 23.55 -17.55 22.6 -16.65 28.75 -6.05 30.95 3.15 L31.25 3.65 Q32.95 6.45 33.9 8.85 L34.85 11.8 Q28.35 17.65 6.65 18.7 -27.4 19.4 -34.85 11.8 -34.35 10.5 -32.8 8.8 L-31.8 7.6 -31.45 6.85 Q-26.45 -4.25 -16.8 -16.35" fill="#574970" fill-rule="evenodd" stroke="none"/>
  </g>
</svg>
