<?xml version="1.0" encoding="UTF-8" standalone="no"?>
<svg xmlns:xlink="http://www.w3.org/1999/xlink" height="45.7px" width="62.7px" xmlns="http://www.w3.org/2000/svg">
  <g transform="matrix(1.0, 0.0, 0.0, 1.0, 37.25, 22.95)">
    <path d="M24.75 17.9 Q-1.85 26.75 -24.65 19.45 L-24.75 19.2 -22.85 9.2 Q-3.85 14.15 21.9 8.8 L24.75 17.9 M11.95 -22.75 L20.2 3.45 Q1.25 10.0 -21.9 4.05 L-21.2 0.2 -11.9 -22.4 Q-8.0 -19.9 3.35 -20.05 12.7 -20.0 11.95 -22.75" fill="#e08383" fill-rule="evenodd" stroke="none"/>
    <path d="M20.15 -17.1 L20.25 -17.3 Q20.5 -18.1 21.05 -17.65 22.05 -20.6 23.0 -20.95 24.15 -20.1 24.75 -18.3 25.7 -16.45 25.35 -15.15 24.4 -14.35 21.9 -15.95 21.75 -15.4 21.4 -15.2 L20.85 -15.15 Q20.65 -12.2 18.55 -11.15 L18.0 -10.95 Q16.65 -11.45 15.75 -14.65 13.85 -17.55 14.45 -18.8 L15.2 -18.9 Q17.6 -19.15 20.15 -17.1 M-28.75 -18.1 Q-26.05 -19.85 -23.5 -20.3 -21.6 -20.65 -19.8 -20.25 -18.75 -18.7 -21.75 -15.05 -23.25 -11.0 -25.4 -10.4 -26.8 -10.8 -27.8 -11.5 -29.65 -12.9 -29.9 -15.65 L-30.85 -15.75 Q-31.35 -16.0 -31.55 -16.65 -35.55 -14.65 -37.1 -15.7 -37.65 -17.35 -36.1 -19.65 -35.2 -21.9 -33.35 -22.95 -31.85 -22.5 -30.3 -18.8 L-29.15 -18.75 -28.75 -18.1" fill="#c26161" fill-rule="evenodd" stroke="none"/>
  </g>
</svg>
