<?xml version="1.0" encoding="UTF-8" standalone="no"?>
<svg xmlns:xlink="http://www.w3.org/1999/xlink" height="106.25px" width="186.05px" xmlns="http://www.w3.org/2000/svg">
  <g transform="matrix(1.0, 0.0, 0.0, 1.0, 93.05, 53.1)">
    <path d="M74.5 33.2 Q73.1 34.15 71.05 34.65 L71.75 37.0 68.35 40.55 Q64.1 44.35 59.05 45.85 L56.35 46.5 Q52.8 47.1 48.9 46.65 44.55 46.15 39.8 44.4 L39.75 44.35 Q34.95 42.75 31.0 45.65 32.55 51.05 16.8 53.1 9.0 53.3 4.65 52.25 -0.4 51.0 -0.85 48.1 L-2.5 47.4 -3.15 47.25 Q-4.75 46.95 -6.15 47.65 -5.9 49.05 -7.3 50.0 -10.55 52.15 -22.55 51.85 -36.0 51.25 -40.05 46.15 L-41.9 44.6 -42.45 44.3 -42.8 44.15 Q-44.15 43.7 -45.9 44.65 -54.5 49.45 -59.75 40.4 L-59.8 40.35 Q-75.75 43.5 -81.4 36.6 -83.55 33.95 -84.25 29.95 L-84.25 29.9 -85.25 29.8 Q-90.2 29.05 -92.0 25.4 L-92.25 24.8 Q-93.0 22.95 -93.05 20.45 L-85.25 10.15 Q-62.5 -19.0 -40.25 -36.65 -34.15 -41.5 -28.1 -45.45 -21.5 -49.8 -14.9 -53.1 3.1 -43.9 23.25 -51.1 L32.2 -45.45 Q38.55 -41.2 44.35 -36.6 51.3 -31.1 57.5 -25.1 70.95 -12.0 80.75 3.6 87.85 14.9 93.0 27.5 L89.3 31.1 Q85.2 34.3 80.75 34.45 77.7 34.55 74.5 33.2" fill="#fbfbfb" fill-rule="evenodd" stroke="none"/>
  </g>
</svg>
