<?xml version="1.0" encoding="UTF-8" standalone="no"?>
<svg xmlns:xlink="http://www.w3.org/1999/xlink" height="91.55px" width="88.5px" xmlns="http://www.w3.org/2000/svg">
  <g transform="matrix(1.0, 0.0, 0.0, 1.0, 44.25, 45.75)">
    <path d="M13.35 -35.0 Q10.35 -27.55 4.25 -37.15 L2.1 -36.9 Q2.15 -28.0 7.8 -25.5 L12.75 -23.1 Q19.7 -10.65 16.25 -7.9 L20.8 -6.8 Q24.5 2.5 33.2 13.15 37.85 18.75 43.85 24.8 46.8 27.65 28.4 37.8 L26.9 37.0 26.85 36.85 26.85 36.9 Q21.0 43.05 11.6 43.35 L5.7 39.5 Q-0.2 35.25 -5.2 40.45 L-3.8 43.2 Q-18.1 49.4 -31.55 40.75 L-29.55 37.2 Q-32.3 35.7 -36.3 36.6 L-36.3 42.45 Q-42.2 41.75 -44.25 33.85 -40.85 22.3 -38.05 10.85 -37.55 11.6 -36.3 12.35 -35.3 7.5 -31.55 0.85 L-28.75 -0.1 Q-16.45 -3.3 -14.6 -7.7 -13.0 -6.95 -10.5 -6.9 -13.85 -12.4 -14.4 -18.8 -11.6 -21.15 -5.95 -24.0 0.0 -28.2 -0.05 -37.35 -1.2 -37.7 -2.05 -38.15 -5.2 -31.3 -12.2 -31.1 -17.4 -31.8 -17.4 -36.8 -12.0 -32.85 -3.6 -39.8 -3.95 -40.6 -3.6 -41.65 -2.5 -44.55 0.75 -45.5 4.75 -46.5 4.3 -43.7 L3.95 -42.35 Q7.05 -41.55 5.85 -38.75 L5.8 -38.65 Q10.1 -35.1 12.95 -35.2 L13.35 -35.0 13.5 -35.25 Q15.2 -35.55 16.0 -39.3 18.05 -38.0 17.95 -35.95 16.65 -30.6 13.35 -35.0 M-17.4 -36.8 Q-22.35 -31.1 -25.7 -33.5 L-27.1 -35.45 Q-28.5 -38.1 -24.0 -41.1 -25.55 -35.1 -17.4 -36.8" fill="#cc99cc" fill-rule="evenodd" stroke="none"/>
  </g>
</svg>
