<?xml version="1.0" encoding="UTF-8" standalone="no"?>
<svg xmlns:xlink="http://www.w3.org/1999/xlink" height="32.0px" width="43.0px" xmlns="http://www.w3.org/2000/svg">
  <g transform="matrix(1.0, 0.0, 0.0, 1.0, 0.0, 0.0)">
    <path d="M24.95 7.65 L0.0 6.9 Q0.6 1.75 1.75 0.0 12.25 2.95 25.0 3.45 26.4 2.7 27.85 2.85 28.9 2.95 30.0 3.5 39.3 3.25 41.85 0.7 43.3 5.5 42.9 8.55 L30.85 7.95 Q36.25 20.0 33.2 32.0 L28.65 31.9 Q33.0 20.7 27.65 9.05 29.75 25.05 23.6 31.75 21.55 29.7 18.65 29.75 24.25 21.55 24.95 7.65" fill="#5338ac" fill-rule="evenodd" stroke="none"/>
  </g>
</svg>
