<?xml version="1.0" encoding="UTF-8" standalone="no"?>
<svg xmlns:xlink="http://www.w3.org/1999/xlink" height="66.35px" width="154.35px" xmlns="http://www.w3.org/2000/svg">
  <g transform="matrix(1.0, 0.0, 0.0, 1.0, 0.0, 0.0)">
    <path d="M118.75 23.45 L119.4 23.8 Q126.45 28.05 142.9 29.4 146.1 28.7 149.95 25.6 153.75 22.5 154.25 24.15 154.55 25.05 153.85 26.35 L152.05 28.75 Q150.4 30.6 144.8 33.2 153.35 45.9 148.2 53.0 144.9 56.65 139.75 54.15 134.05 51.25 139.4 44.15 136.75 50.75 142.45 52.2 145.95 52.95 147.0 49.4 148.2 41.2 140.15 33.25 124.3 30.8 117.3 27.3 118.25 24.0 118.75 23.45 M2.8 45.15 Q-3.3 35.25 3.8 19.7 5.9 28.2 15.9 33.25 28.0 39.55 34.2 50.15 35.2 35.75 43.5 27.1 53.95 16.2 50.6 0.0 62.85 12.65 61.9 28.75 58.9 40.25 54.0 45.55 45.95 54.6 44.25 61.95 44.15 63.6 43.55 64.65 L42.45 65.8 40.2 66.35 37.25 65.9 Q10.6 60.1 2.85 45.2 L2.8 45.1 2.8 45.15" fill="#179d7c" fill-rule="evenodd" stroke="none"/>
    <path d="M118.75 23.45 Q118.25 24.0 117.3 27.3 L116.95 27.1 Q113.0 24.95 111.7 23.35 110.9 22.25 111.15 21.4 112.25 19.7 118.45 23.25 L118.75 23.45" fill="#1b9c8f" fill-rule="evenodd" stroke="none"/>
  </g>
</svg>
