<?xml version="1.0" encoding="UTF-8" standalone="no"?>
<svg xmlns:xlink="http://www.w3.org/1999/xlink" height="41.2px" width="62.7px" xmlns="http://www.w3.org/2000/svg">
  <g transform="matrix(1.0, 0.0, 0.0, 1.0, 31.35, 20.6)">
    <path d="M-15.65 -12.0 L-15.6 -13.35 Q-15.35 -16.55 -14.05 -19.75 L-12.35 -19.35 Q-5.5 -17.8 1.25 -15.9 L3.55 -15.25 6.45 -14.4 6.8 -14.25 Q15.7 -11.55 24.4 -8.2 L25.8 -7.7 26.0 -5.85 Q26.25 -3.25 25.8 -0.7 L25.25 1.65 30.5 13.1 Q28.9 12.3 25.25 13.8 20.85 15.65 14.45 19.75 15.8 17.25 16.2 14.6 L16.4 12.65 Q10.2 13.0 4.25 14.3 L-1.8 15.8 -2.25 15.95 Q-1.45 16.25 -0.6 17.05 0.3 17.8 0.3 18.55 L-5.45 18.5 Q-10.15 18.3 -17.95 16.9 L-13.65 13.1 Q-13.3 14.2 -12.75 13.15 L-19.05 12.45 -24.3 11.55 Q-27.0 10.95 -28.6 10.05 L-30.5 8.4 -27.65 5.6 Q-24.5 2.5 -21.7 -2.95 -18.85 -8.45 -15.65 -12.0 L-5.45 -9.05 -1.4 -7.8 1.5 -6.85 1.55 -6.85 4.25 -5.95 4.55 -5.85 4.95 -5.7 5.6 -5.45 Q9.6 -4.4 11.35 -5.85 12.15 -6.6 12.4 -8.0 13.2 -12.05 6.8 -14.25 M1.5 -6.85 L1.3 -5.85 0.05 -0.7 Q-1.15 4.95 -1.8 10.55 L-2.0 12.9 -2.15 15.15 -2.25 15.95 M16.4 12.65 L16.25 9.85 Q15.85 4.45 14.75 -0.7 L14.4 -2.45 5.6 -5.45 M14.4 -2.45 L19.1 -0.7 25.25 1.65 M-12.75 13.15 L-11.0 8.55 -7.8 -0.7 Q-6.5 -4.8 -5.45 -9.05" fill="none" stroke="#000000" stroke-linecap="round" stroke-linejoin="round" stroke-width="1.7000000000000002"/>
    <path d="M-1.4 -7.8 Q-1.2 -11.05 -0.25 -13.35 0.35 -14.85 1.25 -15.9 M3.55 -15.25 L2.65 -13.35 1.85 -11.15 2.6 -11.05 3.95 -10.45 4.25 -10.05 4.3 -9.65 4.25 -9.5 Q4.05 -9.25 3.55 -9.15 L2.1 -9.35 1.55 -9.5 1.55 -6.85 M1.55 -9.5 L0.85 -9.9 Q0.3 -10.35 0.45 -10.7 0.5 -11.05 1.15 -11.15 L1.85 -11.15 M-2.15 15.15 L-1.75 15.15 M-8.35 -15.3 Q-8.0 -14.9 -8.0 -14.5 -8.0 -14.0 -8.35 -13.65 L-8.8 -13.35 -9.1 -13.3 -9.4 -13.35 -9.95 -13.65 -10.25 -14.5 -9.95 -15.3 -9.1 -15.6 -8.35 -15.3 M-4.55 -13.95 Q-4.05 -13.95 -3.75 -13.65 L-3.6 -13.35 -3.45 -12.85 Q-3.45 -12.4 -3.75 -12.05 -4.05 -11.7 -4.55 -11.7 -5.05 -11.7 -5.4 -12.05 L-5.7 -12.85 -5.6 -13.35 -5.4 -13.65 Q-5.05 -13.95 -4.55 -13.95 M-11.0 8.55 L-10.7 8.6" fill="none" stroke="#000000" stroke-linecap="round" stroke-linejoin="round" stroke-width="1.0"/>
  </g>
</svg>
