<?xml version="1.0" encoding="UTF-8" standalone="no"?>
<svg xmlns:xlink="http://www.w3.org/1999/xlink" height="22.35px" width="25.0px" xmlns="http://www.w3.org/2000/svg">
  <g transform="matrix(1.0, 0.0, 0.0, 1.0, 12.5, 11.2)">
    <path d="M-5.05 3.45 L-7.95 3.7 Q-12.75 3.25 -12.5 -0.45 L-3.7 -2.55 Q-2.55 -3.2 -1.55 -4.15 L-0.4 -5.9 -0.3 -6.1 0.15 -6.9 0.2 -6.95 1.6 -11.2 1.75 -11.1 Q6.9 -8.3 12.5 -8.6 L9.7 -2.3 9.55 -1.6 Q9.3 0.1 9.2 1.9 L9.0 6.4 Q8.9 9.1 8.35 10.05 7.85 10.9 6.0 11.15 4.45 11.3 3.45 9.15 2.7 7.2 2.35 4.65 L2.15 3.55 1.95 3.45 1.7 3.35 0.6 4.15 -1.05 5.75 Q-2.6 7.25 -4.45 7.4 -6.25 7.6 -6.2 6.4 -6.15 5.15 -5.05 3.45" fill="#434343" fill-rule="evenodd" stroke="none"/>
  </g>
</svg>
