<?xml version="1.0" encoding="UTF-8" standalone="no"?>
<svg xmlns:xlink="http://www.w3.org/1999/xlink" height="31.3px" width="20.8px" xmlns="http://www.w3.org/2000/svg">
  <g transform="matrix(1.0, 0.0, 0.0, 1.0, 10.4, 15.65)">
    <path d="M-7.4 0.15 L-2.0 -15.65 Q2.4 -12.6 10.4 -13.0 L4.75 2.85 4.75 3.0 5.05 4.9 5.65 6.25 5.8 6.45 6.25 7.0 8.0 8.5 Q9.1 9.45 8.5 10.9 7.85 12.3 6.65 12.45 L4.2 12.4 Q3.0 12.2 2.5 11.7 L2.45 11.65 Q2.1 11.25 1.6 12.45 L1.1 13.8 Q0.2 16.45 -4.05 15.3 -5.85 15.2 -8.0 14.15 -9.8 13.2 -10.25 11.6 L-10.35 11.0 Q-10.55 8.9 -9.95 6.35 L-9.7 5.5 Q-9.15 3.4 -8.15 1.6 L-7.45 0.15 -7.4 0.15" fill="#dbdbdb" fill-rule="evenodd" stroke="none"/>
  </g>
</svg>
