<?xml version="1.0" encoding="UTF-8" standalone="no"?>
<svg xmlns:xlink="http://www.w3.org/1999/xlink" height="21.85px" width="21.1px" xmlns="http://www.w3.org/2000/svg">
  <g transform="matrix(1.0, 0.0, 0.0, 1.0, 10.55, 10.95)">
    <path d="M6.75 -4.55 Q6.3 -3.55 5.9 -3.2 L5.6 -2.95 Q5.5 -2.35 5.9 -0.85 6.45 0.75 7.1 1.25 L8.85 2.75 Q9.95 3.7 9.35 5.15 8.7 6.55 7.5 6.7 L5.05 6.65 Q3.8 6.45 3.3 5.9 2.8 5.35 1.95 8.05 1.05 10.7 -3.2 9.55 -5.0 9.45 -7.15 8.4 -9.3 7.3 -9.5 5.25 -9.7 3.15 -9.1 0.6 -8.5 -2.0 -7.3 -4.15 L-6.6 -5.6 Q-6.2 -7.6 -6.3 -9.85 -3.7 -10.35 -0.2 -8.25 2.8 -6.6 7.4 -7.1 L6.75 -4.55" fill="none" stroke="#000000" stroke-linecap="round" stroke-linejoin="round" stroke-width="2.0"/>
    <path d="M1.5 -3.7 Q-0.35 -5.25 -3.95 -5.8 -2.9 -4.35 -2.05 -3.75" fill="none" stroke="#000000" stroke-linecap="round" stroke-linejoin="round" stroke-opacity="0.29803923" stroke-width="1.0"/>
  </g>
</svg>
