<?xml version="1.0" encoding="UTF-8" standalone="no"?>
<svg xmlns:xlink="http://www.w3.org/1999/xlink" height="200.4px" width="159.8px" xmlns="http://www.w3.org/2000/svg">
  <g transform="matrix(1.0, 0.0, 0.0, 1.0, 79.9, 100.2)">
    <path d="M73.85 -65.95 Q64.55 -55.7 49.1 -50.35 56.5 -50.35 61.35 -47.15 73.05 -40.75 79.9 -41.15 L78.6 -40.4 Q67.65 -34.1 60.25 -36.3 62.05 -35.25 63.05 -33.7 70.5 -26.15 75.3 -24.2 77.1 -23.55 78.55 -23.6 70.9 -19.65 52.1 -25.6 52.95 -23.95 56.8 -18.25 L65.6 -4.95 65.6 -4.9 Q50.55 -5.05 46.65 -11.5 47.8 -5.35 45.9 9.35 44.0 24.1 47.4 29.8 39.5 23.15 36.85 17.75 42.65 32.0 40.2 47.8 35.9 62.0 34.7 74.35 30.0 67.0 29.5 57.0 28.6 78.05 25.2 95.7 28.1 71.05 22.75 46.4 18.75 68.0 13.25 83.85 5.4 70.5 6.3 50.9 3.4 80.5 -9.9 98.05 -9.5 84.7 -12.85 74.9 -16.25 65.1 -17.5 50.9 -18.45 68.65 -27.1 82.65 L-29.95 56.0 Q-37.65 79.0 -40.15 100.2 -49.9 77.8 -47.5 48.65 -55.0 69.05 -55.45 89.45 -63.25 77.95 -62.55 57.95 -65.5 63.35 -74.75 66.35 L-71.1 60.2 -70.65 59.0 Q-65.5 45.15 -62.85 17.15 -69.65 29.35 -79.9 31.15 -71.7 23.5 -66.0 1.0 -62.05 -11.05 -56.65 -16.95 L-59.5 -15.05 Q-64.45 -12.0 -75.95 -13.9 L-72.85 -15.75 Q-66.05 -20.4 -59.25 -30.8 -52.15 -43.9 -39.85 -47.55 L-45.6 -47.75 Q-60.65 -49.35 -66.9 -61.5 -51.7 -55.7 -39.9 -60.7 -28.9 -64.5 -16.0 -62.3 L-15.4 -62.15 -13.6 -61.8 -14.2 -62.1 Q-33.35 -70.8 -36.8 -88.05 L-35.5 -86.7 -35.3 -86.45 Q-27.65 -79.45 -13.75 -74.6 -2.15 -70.8 6.8 -63.8 7.25 -71.15 10.6 -79.9 13.6 -87.6 15.6 -97.7 L16.0 -100.2 Q22.8 -77.6 18.85 -63.6 24.3 -68.6 34.45 -74.1 43.2 -78.75 49.4 -86.25 L49.6 -86.5 51.4 -89.0 Q48.5 -72.05 29.5 -60.25 L32.2 -61.6 Q38.9 -64.25 48.25 -63.65 62.3 -63.15 73.85 -65.95" fill="url(#gradient0)" fill-rule="evenodd" stroke="none"/>
  </g>
  <defs>
    <linearGradient gradientTransform="matrix(0.0, 0.1164, -0.0975, 0.0, 0.0, 84.95)" gradientUnits="userSpaceOnUse" id="gradient0" spreadMethod="pad" x1="-819.2" x2="819.2">
      <stop offset="0.0" stop-color="#fff23c" stop-opacity="0.0"/>
      <stop offset="0.3803921568627451" stop-color="#fff23c" stop-opacity="0.84705883"/>
      <stop offset="0.6039215686274509" stop-color="#fff23c" stop-opacity="0.8"/>
      <stop offset="1.0" stop-color="#fff23c" stop-opacity="0.0"/>
    </linearGradient>
  </defs>
</svg>
