<?xml version="1.0" encoding="UTF-8" standalone="no"?>
<svg xmlns:xlink="http://www.w3.org/1999/xlink" height="136.75px" width="93.2px" xmlns="http://www.w3.org/2000/svg">
  <g transform="matrix(1.0, 0.0, 0.0, 1.0, 41.35, 58.8)">
    <path d="M-18.65 57.05 L-18.6 57.0 -18.3 57.8 -18.35 57.75 Q-18.95 57.35 -18.65 57.05 L-18.45 57.55 -18.35 57.75 -18.45 57.55 -18.65 57.05" fill="#7ea7d4" fill-rule="evenodd" stroke="none"/>
    <path d="M-15.55 20.25 Q-22.15 12.5 -22.25 -4.25 -24.45 -14.5 -34.85 -20.75 -31.65 -17.95 -38.85 14.9 -46.1 47.7 -18.65 57.0 L-18.75 56.75 Q-11.15 38.8 8.7 27.4 28.45 16.0 38.5 17.95 L38.75 18.0 Q42.95 9.8 36.15 -1.05 21.9 -23.55 20.0 -32.05 12.25 -18.1 17.0 -9.25 24.4 0.9 26.8 10.6 M-22.25 -4.25 Q-22.1 -30.85 -8.0 -57.8 -2.15 -36.2 5.75 -24.95 L17.0 -9.25 M-18.65 57.05 L-18.6 57.0 -18.65 57.0 -18.65 57.05 -18.45 57.55 -18.35 57.75 -18.3 57.8 M-18.35 57.75 Q-18.95 57.35 -18.65 57.05 M38.75 18.0 L39.9 18.3 Q51.0 30.9 50.85 40.95 20.05 54.7 3.9 76.95 -13.0 71.1 -18.35 57.75" fill="none" stroke="#101010" stroke-linecap="round" stroke-linejoin="round" stroke-width="2.0"/>
  </g>
</svg>
