<?xml version="1.0" encoding="UTF-8" standalone="no"?>
<svg xmlns:xlink="http://www.w3.org/1999/xlink" height="199.6px" width="242.45px" xmlns="http://www.w3.org/2000/svg">
  <g transform="matrix(1.0, 0.0, 0.0, 1.0, 121.2, 99.8)">
    <path d="M88.5 -34.9 Q93.45 -29.8 94.55 -23.25 106.55 -23.05 112.6 -25.85 119.1 -28.95 120.25 -29.85 108.0 -29.05 91.55 -43.5 83.55 -52.7 72.25 -56.65 L70.0 -57.4 Q94.85 -52.95 105.45 -67.35 107.2 -69.8 108.5 -72.55 97.2 -64.45 83.05 -68.0 68.8 -71.6 60.35 -66.8 60.35 -78.8 70.85 -95.75 L63.4 -91.5 Q38.6 -75.6 44.2 -50.65 39.0 -44.3 40.4 -37.05 43.45 -31.25 48.8 0.95 54.1 33.15 59.3 34.8 L60.65 18.1 Q59.85 35.4 69.6 60.3 79.1 84.3 98.3 97.9 L99.8 98.8 Q87.9 79.75 90.55 51.0 94.5 29.55 94.85 12.7 L96.8 28.65 97.65 24.95 Q101.35 7.4 97.5 -8.2 94.8 -19.05 94.55 -23.25 M-104.2 -79.15 Q-93.8 -69.9 -79.1 -72.15 -64.5 -74.4 -56.65 -68.75 -55.3 -80.8 -64.2 -98.8 -36.45 -81.25 -40.15 -57.7 -40.6 -54.5 -41.8 -51.05 -39.2 -49.0 -39.25 -39.65 -45.3 -27.95 -54.1 1.35 -59.3 27.75 -65.3 33.45 L-65.05 16.65 Q-66.75 33.1 -79.55 56.6 -92.3 79.95 -92.85 98.75 -108.45 63.4 -98.8 7.75 L-102.45 23.7 Q-103.0 22.65 -103.5 8.95 -104.05 -4.8 -99.6 -16.65 -95.2 -28.5 -87.8 -36.5 -95.75 -29.8 -106.4 -31.25 -117.05 -32.7 -120.2 -37.3 -108.0 -35.5 -92.05 -48.2 -80.95 -57.05 -68.6 -59.8 L-67.0 -60.2 Q-95.2 -57.95 -103.45 -77.25 L-104.2 -79.15" fill="none" stroke="#000000" stroke-linecap="round" stroke-linejoin="round" stroke-width="2.0"/>
    <path d="M43.45 -35.55 Q52.9 -27.35 61.75 -33.25 70.55 -39.15 70.9 -43.95 M73.65 -22.1 Q76.0 24.95 87.65 38.55 64.65 24.45 65.7 -3.0 M-72.0 -46.85 Q-70.1 -34.4 -59.15 -31.6 -48.2 -28.8 -43.5 -35.2 M-68.7 -8.1 Q-86.05 31.5 -87.35 53.5 -92.55 24.6 -79.45 -1.1" fill="none" stroke="#000000" stroke-linecap="round" stroke-linejoin="round" stroke-width="1.5"/>
  </g>
</svg>
