<?xml version="1.0" encoding="UTF-8" standalone="no"?>
<svg xmlns:xlink="http://www.w3.org/1999/xlink" height="147.85px" width="90.45px" xmlns="http://www.w3.org/2000/svg">
  <g transform="matrix(1.0, 0.0, 0.0, 1.0, 45.25, 73.9)">
    <path d="M-0.1 26.65 Q-7.1 61.65 -2.7 73.95 -28.2 55.05 -22.35 24.7 -27.95 48.0 -27.0 60.45 -38.2 38.85 -29.4 17.25 -34.95 28.0 -45.25 29.85 -32.9 22.35 -28.2 -7.75 -24.25 -33.25 -13.3 -53.2 -2.35 -73.2 22.3 -73.85 35.85 -74.5 45.2 -59.95 44.2 -44.8 26.1 -27.05 18.75 -18.9 11.6 4.55 L11.0 6.15 Q4.8 40.95 10.85 60.9 -3.5 50.05 -0.1 26.65" fill="url(#gradient0)" fill-rule="evenodd" stroke="none"/>
  </g>
  <defs>
    <linearGradient gradientTransform="matrix(0.0, 0.1073, -0.0552, 0.0, 0.0, 59.9)" gradientUnits="userSpaceOnUse" id="gradient0" spreadMethod="pad" x1="-819.2" x2="819.2">
      <stop offset="0.0" stop-color="#fff23c" stop-opacity="0.0"/>
      <stop offset="0.3803921568627451" stop-color="#fff23c" stop-opacity="0.84705883"/>
      <stop offset="0.6039215686274509" stop-color="#fff23c" stop-opacity="0.8"/>
      <stop offset="1.0" stop-color="#fff23c" stop-opacity="0.0"/>
    </linearGradient>
  </defs>
</svg>
