<?xml version="1.0" encoding="UTF-8" standalone="no"?>
<svg xmlns:xlink="http://www.w3.org/1999/xlink" height="291.0px" width="188.05px" xmlns="http://www.w3.org/2000/svg">
  <g transform="matrix(1.0, 0.0, 0.0, 1.0, 94.0, 145.5)">
    <path d="M-22.0 70.6 Q-16.95 129.6 -1.4 145.5 -44.15 106.5 -51.0 49.9 -46.0 110.1 -29.65 133.9 -68.6 103.4 -70.75 33.0 -71.5 82.6 -62.0 112.65 -89.85 77.0 -93.85 7.65 -95.55 -57.2 -75.0 -94.95 -54.45 -132.7 -29.2 -138.9 L-24.0 -138.3 -23.75 -138.25 Q-9.4 -149.6 3.65 -143.2 24.15 -149.15 26.2 -133.4 21.4 -135.15 14.15 -134.9 L4.3 -133.9 Q-5.05 -131.45 -8.5 -129.0 -14.65 -124.55 -17.05 -121.45 -18.25 -115.95 -12.0 -110.65 11.55 -111.15 29.65 -120.95 44.45 35.15 94.05 102.65 65.2 84.85 47.55 57.15 63.25 101.1 80.8 115.55 54.85 103.3 41.9 81.45 58.95 112.0 61.25 142.5 51.45 120.25 35.8 99.15 30.0 91.35 25.3 83.95 36.55 121.5 54.6 143.55 26.85 133.25 15.65 105.3 24.4 132.65 38.0 144.05 -13.9 120.45 -22.0 70.6 -22.95 60.1 -23.5 48.25 -23.75 60.0 -22.0 70.6" fill="url(#gradient0)" fill-rule="evenodd" stroke="none"/>
  </g>
  <defs>
    <linearGradient gradientTransform="matrix(0.0, 0.1089, -0.1148, 0.0, 0.05, -0.85)" gradientUnits="userSpaceOnUse" id="gradient0" spreadMethod="pad" x1="-819.2" x2="819.2">
      <stop offset="0.0" stop-color="#fff23c" stop-opacity="0.0"/>
      <stop offset="0.3803921568627451" stop-color="#fff23c" stop-opacity="0.84705883"/>
      <stop offset="0.6039215686274509" stop-color="#fff23c" stop-opacity="0.8"/>
      <stop offset="1.0" stop-color="#fff23c" stop-opacity="0.0"/>
    </linearGradient>
  </defs>
</svg>
