<?xml version="1.0" encoding="UTF-8" standalone="no"?>
<svg xmlns:xlink="http://www.w3.org/1999/xlink" height="56.7px" width="46.9px" xmlns="http://www.w3.org/2000/svg">
  <g transform="matrix(1.0, 0.0, 0.0, 1.0, 23.45, 28.35)">
    <path d="M15.55 -21.25 L15.85 -20.95 -19.35 -16.05 -19.0 -16.65 -16.55 -20.1 -14.3 -22.5 Q-8.15 -28.35 -0.05 -28.35 L3.95 -27.95 5.25 -27.65 Q11.45 -26.05 15.55 -21.25 M23.15 -5.05 L12.3 -3.4 Q13.35 -0.9 13.35 2.15 L13.35 2.8 23.45 1.25 Q23.2 8.4 20.35 14.2 1.0 18.2 -16.25 20.35 L-16.55 20.0 Q-20.85 14.85 -22.45 8.35 L-6.75 5.95 Q-7.2 4.15 -7.2 2.15 L-6.95 -0.45 -23.4 2.0 -23.45 -0.05 Q-23.45 -2.75 -23.05 -5.3 -22.65 -8.15 -21.9 -10.3 0.15 -12.4 19.35 -16.05 L19.55 -15.75 Q22.3 -10.9 23.15 -5.05 M15.85 20.85 Q9.75 27.7 1.6 28.3 L-0.05 28.35 Q-4.95 28.35 -9.15 26.2 L-11.8 24.55 Q2.4 23.25 16.8 19.75 L16.55 20.0 15.85 20.85" fill="#c4a693" fill-rule="evenodd" stroke="none"/>
  </g>
</svg>
