<?xml version="1.0" encoding="UTF-8" standalone="no"?>
<svg xmlns:xlink="http://www.w3.org/1999/xlink" height="61.15px" width="45.75px" xmlns="http://www.w3.org/2000/svg">
  <g transform="matrix(1.0, 0.0, 0.0, 1.0, 22.85, 30.6)">
    <path d="M16.15 -21.65 L19.05 -17.1 Q6.5 3.35 -21.65 10.15 -22.85 5.4 -22.85 0.0 -22.85 -12.65 -16.15 -21.65 -9.45 -30.6 0.0 -30.6 9.5 -30.6 16.15 -21.65 M22.9 0.0 Q22.9 12.65 16.15 21.55 9.5 30.55 0.0 30.55 -9.45 30.55 -16.15 21.55 -17.85 19.35 -19.05 16.95 11.6 11.0 22.3 -7.45 22.9 -3.9 22.9 0.0 M10.6 -19.35 Q1.45 -25.85 -7.55 -19.7 -16.55 -13.55 -16.8 1.8 6.1 -7.1 10.6 -19.35" fill="#c9a575" fill-rule="evenodd" stroke="none"/>
  </g>
</svg>
