<?xml version="1.0" encoding="UTF-8" standalone="no"?>
<svg xmlns:xlink="http://www.w3.org/1999/xlink" height="76.0px" width="49.35px" xmlns="http://www.w3.org/2000/svg">
  <g transform="matrix(1.0, 0.0, 0.0, 1.0, 0.0, 0.0)">
    <path d="M34.95 46.2 L38.35 37.6 39.3 36.65 48.4 35.1 49.35 36.25 Q49.35 43.9 47.6 51.9 L46.15 52.9 40.0 54.3 39.1 53.7 35.0 47.45 34.95 46.2 M30.8 8.8 L30.1 9.5 17.6 10.2 16.8 9.6 12.9 4.7 13.1 2.5 Q18.05 0.3 23.1 0.0 28.0 0.05 32.85 1.85 L33.35 3.9 30.8 8.8 M32.65 9.65 L35.3 4.9 36.65 4.35 Q42.45 9.65 45.7 16.15 L45.15 17.65 38.35 18.3 37.5 17.65 32.75 10.8 32.65 9.65 M10.85 5.95 L14.9 10.75 15.05 11.95 10.9 20.1 10.1 20.95 1.3 21.75 0.25 20.15 Q2.95 12.15 9.2 5.55 L10.85 5.95 M16.2 40.65 L15.75 37.7 19.3 31.8 20.55 30.95 31.1 29.55 32.35 30.05 36.4 34.55 36.55 37.3 33.35 45.6 32.05 46.4 22.75 48.15 21.3 47.9 16.2 40.65 M0.0 44.5 L1.15 42.7 12.9 40.95 14.15 41.6 19.75 49.15 19.9 50.45 16.65 58.75 15.8 59.85 8.1 61.6 6.0 61.25 Q1.8 53.2 0.0 44.5 M24.95 68.65 L33.7 66.35 34.85 66.5 37.2 70.1 37.3 71.35 Q34.0 74.05 30.15 75.35 L22.2 75.75 22.05 74.4 23.8 69.45 24.95 68.65" fill="#bcd182" fill-rule="evenodd" stroke="none"/>
  </g>
</svg>
