<?xml version="1.0" encoding="UTF-8" standalone="no"?>
<svg xmlns:xlink="http://www.w3.org/1999/xlink" height="17.75px" width="23.1px" xmlns="http://www.w3.org/2000/svg">
  <g transform="matrix(1.0, 0.0, 0.0, 1.0, 11.55, 8.9)">
    <path d="M2.6 -5.95 Q8.4 -1.7 11.55 3.8 8.35 0.5 5.0 -1.05 6.8 2.0 6.5 4.85 5.25 3.7 3.9 2.9 2.1 1.7 0.1 1.2 1.55 5.4 1.55 8.85 0.35 6.8 -1.25 5.0 -2.6 3.5 -4.25 2.15 -6.45 0.35 -8.95 -1.1 -12.3 -3.55 -11.35 -5.95 -10.9 -7.05 -9.7 -8.05 -3.55 -10.45 2.25 -6.25 L2.6 -5.95" fill="#ffffff" fill-rule="evenodd" stroke="none"/>
  </g>
</svg>
