<?xml version="1.0" encoding="UTF-8" standalone="no"?>
<svg xmlns:xlink="http://www.w3.org/1999/xlink" height="100.1px" width="96.95px" xmlns="http://www.w3.org/2000/svg">
  <g transform="matrix(1.0, 0.0, 0.0, 1.0, 48.5, 50.05)">
    <path d="M48.45 35.25 Q30.65 44.7 21.9 32.5 13.0 19.45 11.1 -0.75 8.15 -20.25 -9.2 -39.25 -12.3 -42.95 -17.3 -40.05 -20.45 -39.0 -22.5 -39.95 -15.7 -42.2 -12.2 -47.8 L-14.75 -47.6 Q-13.3 -49.05 -10.3 -50.05 9.15 -43.7 17.25 -15.5 20.25 -1.9 20.35 11.25 22.3 28.45 33.65 33.75 37.7 36.2 48.45 35.25 32.35 55.2 13.9 48.3 L19.2 47.3 Q10.0 45.75 6.4 41.3 L10.45 42.25 Q-0.35 35.75 -4.1 28.2 L-4.25 27.95 -4.4 27.65 Q-8.25 19.5 -7.8 10.05 -7.5 6.0 -9.0 0.8 -19.5 -36.2 -48.5 -39.9 -44.25 -41.55 -38.45 -41.45 -31.55 -41.75 -25.1 -39.25 -14.3 -34.95 -4.85 -22.85 4.15 -11.05 6.75 13.15 8.85 27.55 20.3 38.3 31.45 48.25 48.45 35.25" fill="#bbffe2" fill-rule="evenodd" stroke="none"/>
  </g>
</svg>
