<?xml version="1.0" encoding="UTF-8" standalone="no"?>
<svg xmlns:xlink="http://www.w3.org/1999/xlink" height="92.25px" width="88.8px" xmlns="http://www.w3.org/2000/svg">
  <g transform="matrix(1.0, 0.0, 0.0, 1.0, 44.4, 46.1)">
    <path d="M18.75 -19.9 Q11.15 4.85 0.35 10.55 -14.35 15.35 -22.45 3.35 -24.05 13.65 -18.05 20.3 -33.7 17.65 -43.4 5.35 -39.1 35.8 -19.85 42.25 -0.65 48.65 15.2 41.0 27.85 33.25 31.2 11.2 29.3 25.5 26.9 30.65 34.35 21.5 39.7 3.4 45.1 -14.7 42.65 -40.95 39.65 -45.8 34.4 -44.95 26.3 -44.7 18.75 -19.9" fill="none" stroke="#000000" stroke-linecap="round" stroke-linejoin="round" stroke-width="2.0"/>
    <path d="M16.75 -9.35 Q9.2 16.2 -3.7 25.3" fill="none" stroke="#000000" stroke-linecap="round" stroke-linejoin="round" stroke-width="1.5"/>
  </g>
</svg>
