<?xml version="1.0" encoding="UTF-8" standalone="no"?>
<svg xmlns:xlink="http://www.w3.org/1999/xlink" height="30.05px" width="54.7px" xmlns="http://www.w3.org/2000/svg">
  <g transform="matrix(1.0, 0.0, 0.0, 1.0, 27.35, 15.05)">
    <path d="M10.3 -0.4 Q6.25 -0.9 2.3 -2.3 -1.15 -3.6 -4.65 -5.7 -7.0 -7.15 -9.15 -8.95 L-11.95 -11.25 Q-18.55 -16.45 -24.3 -12.0 -28.9 -8.45 -23.3 -1.25 L-21.6 0.75 -20.5 2.0 -19.9 2.55 Q-17.9 4.5 -15.75 6.15 -11.75 9.25 -7.05 11.05 -1.65 13.25 4.5 13.8 L17.35 13.3 Q25.65 11.95 26.15 8.35 27.8 0.3 15.55 -0.1 L10.3 -0.4 Z" fill="none" stroke="#000000" stroke-linecap="round" stroke-linejoin="round" stroke-width="2.0"/>
  </g>
</svg>
