<?xml version="1.0" encoding="UTF-8" standalone="no"?>
<svg xmlns:xlink="http://www.w3.org/1999/xlink" height="35.8px" width="66.4px" xmlns="http://www.w3.org/2000/svg">
  <g transform="matrix(1.0, 0.0, 0.0, 1.0, 26.9, 27.1)">
    <path d="M31.05 6.15 L23.4 4.95 Q20.45 4.2 17.65 3.0 13.0 1.05 8.75 -2.1 3.9 0.85 -0.45 2.95 -5.4 5.35 -9.75 6.75 -12.9 7.8 -15.7 8.3 -23.5 9.5 -25.75 7.25 -28.6 -0.15 -24.25 -9.8 -27.9 -17.0 -23.85 -23.8 L-23.65 -24.1 -22.6 -25.6 -21.9 -26.5 Q-19.1 -28.55 1.8 -22.65 L8.35 -20.7 Q10.75 -22.15 13.2 -23.3 25.45 -29.1 36.5 -26.1 L37.45 -23.35 Q37.95 -21.05 37.75 -18.65 37.25 -14.75 34.5 -10.8 L33.1 -9.75 34.55 -10.65 36.5 -7.8 Q38.35 -5.05 39.2 -0.65 40.1 3.7 38.15 5.8 L31.05 6.15" fill="#f7f7f7" fill-rule="evenodd" stroke="none"/>
  </g>
</svg>
