<?xml version="1.0" encoding="UTF-8" standalone="no"?>
<svg xmlns:xlink="http://www.w3.org/1999/xlink" height="80.15px" width="81.85px" xmlns="http://www.w3.org/2000/svg">
  <g transform="matrix(1.0, 0.0, 0.0, 1.0, 40.9, 40.05)">
    <path d="M40.1 -9.0 Q40.8 -5.4 40.9 -1.85 L40.95 -1.2 Q41.3 16.15 13.9 19.8 L-16.65 23.45 Q-26.1 26.15 -28.15 28.8 -28.05 32.8 -27.5 34.65 L-26.25 39.0 Q-25.85 40.45 -27.8 40.0 -36.75 38.65 -39.9 33.9 -41.3 31.8 -40.75 26.6 L-40.75 26.35 Q-40.05 19.65 -36.4 8.05 L-36.45 8.05 Q-32.1 -6.6 -16.75 -33.95 0.05 -39.6 26.35 -40.05 37.45 -23.25 40.1 -9.0" fill="#3c3c3c" fill-rule="evenodd" stroke="none"/>
  </g>
</svg>
