<?xml version="1.0" encoding="UTF-8" standalone="no"?>
<svg xmlns:xlink="http://www.w3.org/1999/xlink" height="68.05px" width="59.4px" xmlns="http://www.w3.org/2000/svg">
  <g transform="matrix(1.0, 0.0, 0.0, 1.0, 29.7, 34.0)">
    <path d="M20.3 -28.4 Q23.5 -34.6 26.7 -33.95 30.45 -32.65 29.5 -28.85 21.2 -3.2 9.75 16.1 7.15 22.0 3.7 25.3 2.95 22.7 4.3 19.9 -3.35 27.85 -10.7 31.35 L-12.45 32.1 Q-16.8 33.85 -21.05 34.05 -29.5 33.8 -29.7 29.05 -29.95 24.25 -22.35 21.5 L-18.4 20.2 -18.05 20.1 -17.85 20.0 Q-7.5 15.95 0.65 7.7 10.5 -2.3 20.3 -28.4" fill="#b293ff" fill-rule="evenodd" stroke="none"/>
  </g>
</svg>
