<?xml version="1.0" encoding="UTF-8" standalone="no"?>
<svg xmlns:xlink="http://www.w3.org/1999/xlink" height="114.5px" width="124.7px" xmlns="http://www.w3.org/2000/svg">
  <g transform="matrix(1.0, 0.0, 0.0, 1.0, 62.35, 57.25)">
    <path d="M40.4 -42.75 L41.3 -43.55 42.4 -43.5 43.1 -42.6 Q43.2 -42.0 42.9 -41.45 L42.0 -40.65 40.9 -40.7 Q40.35 -41.0 40.2 -41.6 40.1 -42.15 40.4 -42.75 M36.7 -43.55 L33.65 -45.5 Q30.65 -47.3 27.2 -48.7 32.6 -52.0 39.5 -49.75 42.05 -48.2 43.6 -45.95 46.6 -41.6 45.75 -34.6 L43.95 -36.9 Q40.8 -40.65 36.7 -43.55 38.65 -46.3 42.2 -44.7 46.45 -41.95 43.95 -36.9 M33.65 -45.5 Q35.8 -48.0 38.75 -47.95 41.6 -47.9 43.6 -45.95 M-56.1 35.3 Q-55.85 34.4 -55.05 33.9 -54.1 33.4 -53.15 33.65 -52.2 33.85 -51.75 34.7 -51.2 35.55 -51.45 36.45 -51.65 37.4 -52.5 37.9 -53.35 38.4 -54.3 38.2 -55.25 37.95 -55.8 37.1 -56.3 36.25 -56.1 35.3 M-54.0 34.8 Q-53.7 34.45 -53.45 34.5 -53.2 34.55 -53.15 35.0 L-53.15 35.95 -53.6 36.8 Q-53.85 37.15 -54.1 37.1 L-54.45 36.6 -54.35 35.65 -54.0 34.8 M-59.55 34.6 Q-59.1 37.5 -54.6 39.45 -50.0 39.8 -47.6 37.4 -49.0 34.2 -52.9 32.55 -57.2 32.15 -59.55 34.6" fill="none" stroke="#000000" stroke-linecap="round" stroke-linejoin="round" stroke-width="0.7000000000000001"/>
    <path d="M19.0 17.5 Q21.3 17.4 26.15 14.05 23.95 14.95 20.75 14.15 3.95 0.6 -4.05 -12.05 -8.8 -14.9 -12.15 -5.55 -11.15 7.55 14.4 21.55 20.65 27.8 43.6 24.15 L50.35 13.85 Q58.15 3.6 60.5 -7.3 62.2 -13.3 60.95 -22.35 L58.05 -41.1 Q45.15 -51.35 23.4 -56.4 14.2 -46.65 12.65 -34.4 16.25 -40.55 22.85 -46.75 19.35 -37.15 21.45 -27.05 23.4 -34.05 30.05 -41.1 27.75 -31.6 28.5 -22.1 32.15 -28.25 38.7 -35.1 36.05 -27.0 36.75 -18.95 40.6 -25.25 47.3 -31.6 41.05 -18.2 33.6 -9.6 L34.8 -17.9 29.55 -9.6 Q26.45 -17.25 25.3 -24.9 23.25 -20.85 23.75 -16.8 19.0 -25.25 18.3 -33.0 L15.3 -23.7 13.8 -33.3 Q13.05 -21.35 17.85 -13.15 24.6 -4.0 33.6 3.05 32.25 8.8 29.7 11.55 L27.95 12.9 26.15 14.05 29.7 11.55 M-35.75 -9.35 Q-66.9 23.75 -60.35 51.15 L-59.45 43.4 Q-58.55 48.75 -54.6 54.1 -55.7 50.85 -54.35 45.45 -52.9 50.95 -47.75 56.4 -46.8 22.25 -22.25 -10.6 -24.5 -16.05 -35.75 -9.35" fill="none" stroke="#000000" stroke-linecap="round" stroke-linejoin="round" stroke-width="1.7000000000000002"/>
  </g>
</svg>
