<?xml version="1.0" encoding="UTF-8" standalone="no"?>
<svg xmlns:xlink="http://www.w3.org/1999/xlink" height="130.25px" width="109.6px" xmlns="http://www.w3.org/2000/svg">
  <g transform="matrix(1.0, 0.0, 0.0, 1.0, 1.0, 1.0)">
    <path d="M16.55 5.65 Q-17.1 29.0 17.65 64.1 16.15 56.3 19.0 48.5 20.5 59.45 36.5 66.5 25.7 56.75 28.15 45.5 33.55 28.65 51.6 29.2 66.8 30.4 63.95 54.2 62.95 62.5 55.65 71.6 L49.65 78.4 49.5 78.55 Q35.7 92.5 42.65 110.1 56.55 135.7 89.95 125.15 102.65 120.4 106.75 111.1 108.45 107.95 106.75 103.65 84.45 128.45 61.3 119.75 38.15 111.05 56.25 83.3 90.95 41.95 73.2 21.75 45.9 -9.4 7.75 4.1 12.15 3.55 16.55 5.65 Z" fill="none" stroke="#000000" stroke-linecap="round" stroke-linejoin="round" stroke-width="2.0"/>
  </g>
</svg>
