<?xml version="1.0" encoding="UTF-8" standalone="no"?>
<svg xmlns:xlink="http://www.w3.org/1999/xlink" height="148.4px" width="238.95px" xmlns="http://www.w3.org/2000/svg">
  <g transform="matrix(1.0, 0.0, 0.0, 1.0, 107.75, 58.4)">
    <path d="M87.6 -58.2 Q97.5 -55.0 104.8 -50.9 L108.15 -48.85 109.0 -48.3 109.05 -48.25 109.45 -47.95 109.6 -47.85 118.0 -40.55 89.6 -49.95 57.75 -52.5 57.3 -52.45 Q70.65 -59.4 87.6 -58.2 M35.85 -25.6 Q30.8 -24.0 26.8 -20.6 21.7 -30.3 20.05 -41.0 35.85 -41.3 53.35 -33.65 L54.8 -32.95 51.8 -27.3 Q43.95 -28.0 36.85 -25.95 L35.85 -25.6 Q41.8 -22.95 47.4 -19.05 51.7 -16.0 55.85 -12.1 L62.3 -5.4 63.4 -4.15 84.35 1.2 Q77.35 3.55 70.35 6.85 L63.4 -4.15 60.05 -1.65 58.4 -2.7 54.8 5.1 65.8 26.25 64.25 26.9 Q46.1 34.65 29.7 34.2 L29.8 33.65 Q30.4 30.2 31.4 26.85 32.8 21.75 35.05 16.85 L37.45 12.1 39.9 10.6 Q41.85 9.3 43.8 8.4 47.0 6.8 50.0 5.95 L50.85 5.7 54.8 5.1 39.35 -6.8 Q36.15 -6.3 33.45 -5.4 33.25 -10.65 33.85 -15.7 34.45 -20.75 35.85 -25.6 M54.8 -32.95 L76.6 -37.1 Q71.15 -31.9 66.05 -25.8 L54.8 -32.95 M99.6 52.6 Q82.0 53.75 68.25 46.4 L68.7 46.45 101.7 44.05 131.2 34.6 122.3 42.2 121.8 42.55 120.95 43.1 117.4 45.2 Q109.9 49.35 99.6 52.6 M8.0 38.05 L-0.6 22.75 Q-0.15 20.15 0.0 17.4 L0.1 17.25 Q4.2 13.4 11.15 10.45 15.9 10.8 20.4 11.85 25.9 13.05 31.1 15.35 27.9 20.6 23.35 25.45 17.4 31.75 9.25 37.2 L8.0 38.05 0.45 56.7 Q-0.85 49.95 -3.05 43.05 L8.0 38.05 M11.2 75.4 Q3.95 81.4 -2.75 84.95 L-5.95 86.55 -6.8 86.9 -7.25 87.1 -17.15 90.0 3.95 72.9 21.45 49.8 21.6 49.45 Q20.45 63.05 11.2 75.4 M-77.5 -50.25 Q-60.4 -54.4 -45.65 -49.55 L-46.1 -49.55 -78.05 -41.5 -105.35 -27.1 -97.95 -36.1 -97.45 -36.5 -96.75 -37.2 -93.7 -39.85 Q-87.0 -45.3 -77.5 -50.25 M-48.8 -2.35 L-47.8 -3.55 Q-43.95 -7.95 -39.9 -11.55 -35.5 -15.55 -30.85 -18.6 -26.25 -21.65 -21.4 -23.8 L-22.3 -24.15 Q-28.95 -26.1 -36.2 -25.55 L-39.75 -30.2 -46.6 -23.95 -53.25 -23.7 Q-57.9 -27.45 -62.6 -30.65 L-39.75 -30.2 -38.4 -31.15 Q-21.9 -41.9 -5.75 -44.35 -5.65 -32.65 -9.5 -21.3 L-12.3 -18.75 Q-16.35 -22.2 -21.4 -23.8 -19.95 -18.9 -19.35 -13.8 L-18.9 -8.05 Q-18.8 -5.0 -18.95 -1.85 L-19.45 -1.05 -19.95 -0.25 Q-26.75 -0.65 -33.9 3.8 -35.65 4.9 -37.35 6.25 L-48.8 -2.35 -55.75 8.7 Q-62.75 5.4 -69.75 3.1 L-48.8 -2.35 M-88.25 -11.0 Q-73.75 -19.15 -59.1 -18.45 L-59.45 -18.35 -86.55 -2.9 -107.75 17.15 -103.25 7.1 -103.05 6.7 -102.95 6.55 -102.95 6.5 -102.5 5.75 -100.35 2.5 Q-95.65 -4.1 -88.25 -11.0 M-40.4 30.3 L-60.5 34.8 Q-55.6 29.85 -51.05 24.0 L-40.4 30.3 -31.1 11.1 -30.9 11.1 -30.8 11.1 -27.45 11.5 Q-25.6 11.9 -23.6 12.65 -19.8 14.1 -15.6 16.7 L-15.3 16.9 Q-9.85 26.25 -7.85 36.55 -22.55 37.35 -39.0 30.85 L-40.4 30.3 M-70.05 54.85 Q-79.3 52.15 -86.2 48.65 L-89.4 46.8 -90.2 46.3 -90.45 46.2 -90.65 46.05 -98.8 39.45 -72.15 47.2 -42.5 48.5 -42.15 48.45 Q-54.25 55.4 -70.05 54.85" fill="#e2f6ff" fill-opacity="0.70980394" fill-rule="evenodd" stroke="none"/>
    <path d="M20.6 -27.35 Q20.6 -26.9 20.25 -26.6 19.95 -26.25 19.5 -26.25 19.05 -26.25 18.7 -26.6 18.4 -26.9 18.4 -27.35 18.4 -27.8 18.7 -28.15 L19.5 -28.45 20.25 -28.15 20.6 -27.35 M1.05 -31.55 Q1.05 -30.55 0.35 -29.85 -0.35 -29.15 -1.35 -29.15 -2.35 -29.15 -3.05 -29.85 -3.75 -30.55 -3.75 -31.55 -3.75 -32.55 -3.05 -33.25 -2.35 -33.95 -1.35 -33.95 -0.35 -33.95 0.35 -33.25 1.05 -32.55 1.05 -31.55 M10.5 0.65 L10.15 1.5 9.3 1.85 Q8.8 1.85 8.45 1.5 8.1 1.15 8.1 0.65 8.1 0.15 8.45 -0.2 8.8 -0.55 9.3 -0.55 L10.15 -0.2 Q10.5 0.15 10.5 0.65 M31.75 -17.8 L31.45 -17.15 Q31.2 -16.85 30.8 -16.85 30.4 -16.85 30.1 -17.15 29.85 -17.4 29.85 -17.8 29.85 -18.2 30.1 -18.5 L30.8 -18.75 31.45 -18.5 31.75 -17.8 M26.5 -10.4 Q26.5 -9.9 26.15 -9.55 25.8 -9.2 25.3 -9.2 24.8 -9.2 24.45 -9.55 24.1 -9.9 24.1 -10.4 24.1 -10.9 24.45 -11.25 24.8 -11.6 25.3 -11.6 25.8 -11.6 26.15 -11.25 26.5 -10.9 26.5 -10.4 M41.7 -1.15 L41.45 -0.6 Q41.25 -0.35 40.9 -0.35 40.55 -0.35 40.3 -0.6 40.1 -0.8 40.1 -1.15 L40.3 -1.75 Q40.55 -1.95 40.9 -1.95 41.25 -1.95 41.45 -1.75 L41.7 -1.15 M65.8 -47.25 Q65.8 -46.7 65.4 -46.35 65.05 -45.95 64.5 -45.95 63.95 -45.95 63.55 -46.35 63.2 -46.7 63.2 -47.25 63.2 -47.8 63.55 -48.2 63.95 -48.55 64.5 -48.55 L65.4 -48.2 Q65.8 -47.8 65.8 -47.25 M42.4 -44.75 L42.15 -44.15 Q41.9 -43.9 41.55 -43.9 41.2 -43.9 40.95 -44.15 40.7 -44.4 40.7 -44.75 40.7 -45.1 40.95 -45.35 L41.55 -45.6 42.15 -45.35 42.4 -44.75 M79.65 -13.6 Q79.65 -13.1 79.3 -12.75 78.95 -12.4 78.45 -12.4 77.95 -12.4 77.6 -12.75 77.25 -13.1 77.25 -13.6 77.25 -14.1 77.6 -14.45 77.95 -14.8 78.45 -14.8 78.95 -14.8 79.3 -14.45 L79.65 -13.6 M65.4 -18.15 Q65.4 -17.55 65.0 -17.15 64.6 -16.75 64.0 -16.75 63.4 -16.75 63.0 -17.15 62.6 -17.55 62.6 -18.15 62.6 -18.75 63.0 -19.15 63.4 -19.55 64.0 -19.55 64.6 -19.55 65.0 -19.15 65.4 -18.75 65.4 -18.15 M63.4 -9.7 L63.2 -9.2 62.7 -9.0 Q62.4 -9.0 62.2 -9.2 L62.0 -9.7 62.2 -10.2 Q62.4 -10.4 62.7 -10.4 L63.2 -10.2 63.4 -9.7 M89.9 -45.55 Q89.9 -44.85 89.4 -44.35 88.9 -43.85 88.2 -43.85 87.5 -43.85 87.0 -44.35 86.5 -44.85 86.5 -45.55 86.5 -46.25 87.0 -46.75 87.5 -47.25 88.2 -47.25 88.9 -47.25 89.4 -46.75 89.9 -46.25 89.9 -45.55 M92.5 -3.15 L92.2 -2.45 Q91.9 -2.15 91.5 -2.15 91.1 -2.15 90.8 -2.45 90.5 -2.75 90.5 -3.15 90.5 -3.55 90.8 -3.85 L91.5 -4.15 Q91.9 -4.15 92.2 -3.85 L92.5 -3.15 M101.1 -11.05 L100.85 -10.45 Q100.6 -10.2 100.25 -10.2 L99.65 -10.45 Q99.4 -10.7 99.4 -11.05 L99.65 -11.65 100.25 -11.9 100.85 -11.65 101.1 -11.05 M84.6 40.9 L84.35 41.45 83.8 41.7 83.2 41.45 83.0 40.9 83.2 40.3 Q83.45 40.1 83.8 40.1 L84.35 40.3 84.6 40.9 M68.0 16.3 L67.55 17.35 Q67.1 17.8 66.5 17.8 65.9 17.8 65.45 17.35 65.0 16.9 65.0 16.3 65.0 15.7 65.45 15.25 65.9 14.8 66.5 14.8 67.1 14.8 67.55 15.25 68.0 15.7 68.0 16.3 M57.15 35.1 L56.8 35.95 Q56.45 36.3 55.95 36.3 55.45 36.3 55.1 35.95 54.75 35.6 54.75 35.1 54.75 34.6 55.1 34.25 55.45 33.9 55.95 33.9 56.45 33.9 56.8 34.25 57.15 34.6 57.15 35.1 M77.1 33.35 L76.9 33.75 76.5 33.95 76.05 33.75 75.9 33.35 Q75.9 33.1 76.05 32.9 76.25 32.75 76.5 32.75 L76.9 32.9 77.1 33.35 M38.4 6.2 Q38.4 7.05 37.8 7.6 37.25 8.2 36.4 8.2 35.55 8.2 34.95 7.6 34.4 7.05 34.4 6.2 34.4 5.35 34.95 4.75 35.55 4.2 36.4 4.2 37.25 4.2 37.8 4.75 38.4 5.35 38.4 6.2 M24.55 9.1 Q24.55 9.95 23.95 10.5 23.4 11.1 22.55 11.1 21.7 11.1 21.1 10.5 20.55 9.95 20.55 9.1 20.55 8.25 21.1 7.65 21.7 7.1 22.55 7.1 23.4 7.1 23.95 7.65 24.55 8.25 24.55 9.1 M6.75 4.1 Q6.75 4.9 6.2 5.45 5.65 6.0 4.85 6.0 4.05 6.0 3.5 5.45 2.95 4.9 2.95 4.1 2.95 3.3 3.5 2.75 4.05 2.2 4.85 2.2 5.65 2.2 6.2 2.75 6.75 3.3 6.75 4.1 M21.4 36.55 Q21.4 37.15 21.0 37.55 20.6 37.95 20.0 37.95 19.4 37.95 19.0 37.55 18.6 37.15 18.6 36.55 18.6 35.95 19.0 35.55 19.4 35.15 20.0 35.15 20.6 35.15 21.0 35.55 21.4 35.95 21.4 36.55 M0.55 34.7 L0.4 35.1 0.0 35.25 -0.4 35.1 -0.55 34.7 -0.4 34.3 0.0 34.15 0.4 34.3 0.55 34.7 M14.7 49.55 L14.4 50.25 13.7 50.55 13.0 50.25 Q12.7 49.95 12.7 49.55 12.7 49.15 13.0 48.85 13.3 48.55 13.7 48.55 14.1 48.55 14.4 48.85 L14.7 49.55 M6.4 61.3 L5.95 62.35 Q5.5 62.8 4.9 62.8 4.3 62.8 3.85 62.35 3.4 61.9 3.4 61.3 3.4 60.7 3.85 60.25 4.3 59.8 4.9 59.8 5.5 59.8 5.95 60.25 6.4 60.7 6.4 61.3 M-51.2 -44.1 Q-51.2 -43.8 -51.45 -43.6 -51.65 -43.35 -51.95 -43.35 -52.25 -43.35 -52.5 -43.6 L-52.7 -44.1 -52.5 -44.65 -51.95 -44.85 -51.45 -44.65 -51.2 -44.1 M-58.8 -34.3 Q-58.8 -33.7 -59.25 -33.25 -59.7 -32.8 -60.3 -32.8 -60.9 -32.8 -61.35 -33.25 -61.8 -33.7 -61.8 -34.3 -61.8 -34.9 -61.35 -35.35 L-60.3 -35.8 Q-59.7 -35.8 -59.25 -35.35 -58.8 -34.9 -58.8 -34.3 M-60.95 -10.4 Q-60.95 -9.85 -61.35 -9.5 -61.7 -9.1 -62.25 -9.1 -62.8 -9.1 -63.2 -9.5 -63.55 -9.85 -63.55 -10.4 L-63.2 -11.35 Q-62.8 -11.7 -62.25 -11.7 -61.7 -11.7 -61.35 -11.35 -60.95 -10.95 -60.95 -10.4 M-64.2 -2.65 Q-64.2 -2.15 -64.55 -1.85 -64.85 -1.5 -65.35 -1.5 -65.85 -1.5 -66.2 -1.85 L-66.5 -2.65 -66.2 -3.5 -65.35 -3.8 -64.55 -3.5 Q-64.2 -3.15 -64.2 -2.65 M-31.1 -38.65 Q-31.1 -37.95 -31.6 -37.45 -32.1 -36.95 -32.8 -36.95 -33.5 -36.95 -34.0 -37.45 -34.5 -37.95 -34.5 -38.65 -34.5 -39.35 -34.0 -39.85 -33.5 -40.35 -32.8 -40.35 -32.1 -40.35 -31.6 -39.85 -31.1 -39.35 -31.1 -38.65 M-38.75 -16.05 Q-38.75 -15.65 -39.05 -15.4 -39.3 -15.1 -39.7 -15.1 -40.1 -15.1 -40.4 -15.4 L-40.65 -16.05 -40.4 -16.75 -39.7 -17.0 -39.05 -16.75 Q-38.75 -16.45 -38.75 -16.05 M-14.6 -15.65 Q-14.6 -15.2 -14.95 -14.9 -15.25 -14.55 -15.7 -14.55 -16.15 -14.55 -16.5 -14.9 L-16.8 -15.65 -16.5 -16.45 -15.7 -16.75 Q-15.25 -16.75 -14.95 -16.45 -14.6 -16.1 -14.6 -15.65 M-8.65 -9.75 Q-8.65 -9.05 -9.15 -8.55 -9.65 -8.05 -10.35 -8.05 -11.05 -8.05 -11.55 -8.55 -12.05 -9.05 -12.05 -9.75 -12.05 -10.45 -11.55 -10.95 -11.05 -11.45 -10.35 -11.45 -9.65 -11.45 -9.15 -10.95 -8.65 -10.45 -8.65 -9.75 M-12.85 6.85 Q-12.85 7.8 -13.5 8.45 -14.15 9.1 -15.1 9.1 -16.05 9.1 -16.7 8.45 -17.35 7.8 -17.35 6.85 -17.35 5.9 -16.7 5.25 -16.05 4.6 -15.1 4.6 -14.15 4.6 -13.5 5.25 -12.85 5.9 -12.85 6.85 M-20.3 9.7 L-20.55 10.25 Q-20.75 10.5 -21.1 10.5 L-21.7 10.25 -21.9 9.7 -21.7 9.1 -21.1 8.9 -20.55 9.1 Q-20.3 9.35 -20.3 9.7 M-37.65 15.3 Q-37.65 15.65 -37.95 15.9 -38.2 16.2 -38.55 16.2 L-39.2 15.9 -39.45 15.3 -39.2 14.65 -38.55 14.4 Q-38.2 14.4 -37.95 14.65 -37.65 14.95 -37.65 15.3 M-28.35 40.35 Q-28.35 40.7 -28.65 40.95 -28.9 41.25 -29.25 41.25 L-29.9 40.95 -30.15 40.35 -29.9 39.7 -29.25 39.45 Q-28.9 39.45 -28.65 39.7 -28.35 40.0 -28.35 40.35 M-52.35 37.75 L-52.6 38.35 -53.2 38.6 -53.8 38.35 -54.05 37.75 -53.8 37.15 Q-53.55 36.9 -53.2 36.9 -52.85 36.9 -52.6 37.15 -52.35 37.4 -52.35 37.75 M-56.8 44.4 Q-56.8 44.8 -57.1 45.1 L-57.8 45.4 -58.5 45.1 -58.8 44.4 -58.5 43.7 Q-58.2 43.4 -57.8 43.4 -57.4 43.4 -57.1 43.7 -56.8 44.0 -56.8 44.4" fill="#f0fcff" fill-opacity="0.81960785" fill-rule="evenodd" stroke="none"/>
  </g>
</svg>
