<?xml version="1.0" encoding="UTF-8" standalone="no"?>
<svg xmlns:xlink="http://www.w3.org/1999/xlink" height="27.0px" width="63.4px" xmlns="http://www.w3.org/2000/svg">
  <g transform="matrix(1.0, 0.0, 0.0, 1.0, 31.7, 13.5)">
    <path d="M28.5 -13.1 L31.7 -12.95 Q31.8 -8.3 19.3 -2.05 L14.2 0.9 Q3.55 6.75 -6.35 9.75 L-13.35 11.5 -13.85 12.1 Q-14.45 12.8 -15.25 11.85 L-21.85 12.65 Q-22.35 13.35 -23.15 13.5 -24.2 13.6 -24.6 11.7 -31.1 7.25 -31.7 -4.6 L-28.8 2.15 Q-26.95 3.45 -24.7 4.25 L-21.4 5.05 -17.85 5.35 -14.95 5.3 -9.7 4.75 -9.2 4.65 -6.35 3.8 -6.35 3.75 -1.0 2.05 1.65 1.15 4.8 -0.1 7.7 -1.25 11.9 -3.25 14.2 -4.35 14.8 -4.7 17.55 -6.15 20.05 -7.6 Q24.35 -10.15 28.5 -13.1" fill="#aaaffd" fill-rule="evenodd" stroke="none"/>
  </g>
</svg>
