<?xml version="1.0" encoding="UTF-8" standalone="no"?>
<svg xmlns:xlink="http://www.w3.org/1999/xlink" height="193.95px" width="100.35px" xmlns="http://www.w3.org/2000/svg">
  <g transform="matrix(1.0, 0.0, 0.0, 1.0, 50.2, 96.95)">
    <path d="M40.8 -74.3 Q43.4 -75.1 45.9 -68.4 48.5 -61.75 50.15 -46.85 38.7 -36.7 19.25 -35.8 13.05 -38.2 9.35 -43.75 L5.6 -49.4 Q3.6 -53.45 2.95 -57.95 L3.6 -59.75 3.9 -59.6 Q9.7 -68.85 21.45 -72.05 33.45 -74.95 40.8 -74.3" fill="#ffadcc" fill-rule="evenodd" stroke="none"/>
    <path d="M5.6 -49.4 Q-12.5 -14.95 -14.8 31.75 -9.45 76.2 -50.2 97.0 -33.75 73.45 -38.05 38.05 -42.35 2.6 -36.75 -30.2 -33.35 -54.8 -22.4 -73.45 -11.6 -92.1 13.3 -96.95 29.55 -94.65 37.8 -83.15 40.65 -77.3 40.8 -74.3 33.45 -74.95 21.45 -72.05 9.7 -68.85 3.9 -59.6 L3.6 -59.75 2.95 -57.95 Q3.6 -53.45 5.6 -49.4" fill="#f05656" fill-rule="evenodd" stroke="none"/>
  </g>
</svg>
