<?xml version="1.0" encoding="UTF-8" standalone="no"?>
<svg xmlns:xlink="http://www.w3.org/1999/xlink" height="85.35px" width="236.45px" xmlns="http://www.w3.org/2000/svg">
  <g transform="matrix(1.0, 0.0, 0.0, 1.0, 118.2, 42.7)">
    <path d="M-55.75 34.4 Q-56.45 39.45 -59.2 41.0 L-99.05 42.65 -85.1 32.9 Q-88.85 30.15 -90.95 26.1 -106.95 22.2 -118.2 18.3 -107.35 13.0 -93.05 7.7 -92.1 0.45 -88.8 -4.1 L-101.55 -21.1 -80.65 -13.05 Q-78.15 -15.05 -74.55 -16.6 -76.6 -30.0 -76.7 -42.65 L-55.65 -19.8 -53.15 -19.6 -52.05 -38.95 Q-39.4 -21.55 -30.55 -4.15 -28.4 7.95 -34.9 9.5 -29.35 18.25 -31.7 25.4 -42.45 35.7 -55.75 34.4 M54.65 -18.85 L57.05 -19.15 75.7 -42.7 Q76.25 -30.05 75.1 -16.6 78.6 -15.15 81.05 -13.25 L100.35 -22.05 89.25 -4.6 Q92.65 -0.2 93.95 7.05 107.75 11.85 118.25 16.75 107.85 21.05 92.95 25.55 91.25 29.65 87.8 32.55 L101.55 41.8 63.85 41.6 Q61.15 40.15 60.15 35.05 47.7 36.85 36.95 26.95 34.35 19.9 39.1 10.95 32.85 9.65 34.2 -2.55 41.6 -20.25 52.55 -38.1 L54.65 -18.85" fill="#9bb4e9" fill-rule="evenodd" stroke="none"/>
  </g>
</svg>
