<?xml version="1.0" encoding="UTF-8" standalone="no"?>
<svg xmlns:xlink="http://www.w3.org/1999/xlink" height="188.25px" width="118.95px" xmlns="http://www.w3.org/2000/svg">
  <g transform="matrix(1.0, 0.0, 0.0, 1.0, 59.5, 94.1)">
    <path d="M-24.15 59.7 L-24.55 62.15 -24.6 63.0 -24.55 63.05 Q-26.6 83.0 -17.7 94.15 -58.05 73.35 -59.45 39.9 -60.85 6.45 -29.55 -29.5 -36.95 -43.5 -34.1 -56.65 -30.4 -74.65 -13.25 -85.8 3.9 -97.1 25.35 -93.0 46.7 -88.95 56.0 -70.75 63.2 -47.25 55.45 -21.45 47.7 4.35 17.55 20.9 -8.8 34.85 -15.6 44.7 -22.4 54.5 -24.15 59.7 M16.6 -73.2 Q5.5 -76.3 -4.05 -71.75 -22.7 -63.0 -23.15 -38.35 1.85 -76.65 16.6 -73.2" fill="#9c7178" fill-rule="evenodd" stroke="none"/>
  </g>
</svg>
