<?xml version="1.0" encoding="UTF-8" standalone="no"?>
<svg xmlns:xlink="http://www.w3.org/1999/xlink" height="228.1px" width="82.2px" xmlns="http://www.w3.org/2000/svg">
  <g transform="matrix(1.0, 0.0, 0.0, 1.0, 41.1, 114.05)">
    <path d="M18.35 -107.95 Q26.8 -108.5 36.2 -102.45 38.5 -107.95 24.15 -114.05 44.7 -108.5 40.35 -94.9 4.05 -57.35 26.6 13.9 29.5 30.4 25.35 39.1 19.9 50.4 8.0 59.7 -9.25 85.6 5.85 95.45 14.35 99.75 21.65 94.9 26.6 91.6 31.0 84.0 28.4 111.4 4.2 114.0 -9.5 114.75 -19.6 104.35 L-21.5 102.4 Q-32.8 96.35 -32.95 83.0 -39.0 97.6 -27.25 108.25 -52.95 94.35 -30.9 60.9 -23.65 51.5 -18.95 41.55 -13.8 27.55 -11.85 15.15 -15.15 24.3 -31.7 33.05 -39.4 38.65 -36.8 53.65 -41.75 38.0 -32.3 30.8 -13.8 18.2 -13.6 -5.35 -18.8 -62.25 -6.95 -88.1 3.9 -106.15 17.1 -107.85 14.25 -103.35 13.2 -98.9 8.0 -94.55 6.85 -89.55 10.05 -83.45 16.95 -81.5 L12.95 -77.2 Q7.15 -74.65 5.65 -72.65 6.6 -71.0 8.05 -69.4 9.75 -67.5 12.1 -65.7 16.15 -73.85 22.2 -80.65 25.4 -85.25 30.2 -88.9 L32.7 -90.7 Q29.45 -100.95 18.35 -107.95" fill="url(#gradient0)" fill-rule="evenodd" stroke="none"/>
  </g>
  <defs>
    <linearGradient gradientTransform="matrix(0.0, 0.0908, -0.0502, 0.0, 0.0, 21.6)" gradientUnits="userSpaceOnUse" id="gradient0" spreadMethod="pad" x1="-819.2" x2="819.2">
      <stop offset="0.0" stop-color="#fff23c" stop-opacity="0.0"/>
      <stop offset="0.3803921568627451" stop-color="#fff23c" stop-opacity="0.84705883"/>
      <stop offset="0.6039215686274509" stop-color="#fff23c" stop-opacity="0.8"/>
      <stop offset="1.0" stop-color="#fff23c" stop-opacity="0.0"/>
    </linearGradient>
  </defs>
</svg>
