<?xml version="1.0" encoding="UTF-8" standalone="no"?>
<svg xmlns:xlink="http://www.w3.org/1999/xlink" height="32.45px" width="51.6px" xmlns="http://www.w3.org/2000/svg">
  <g transform="matrix(1.0, 0.0, 0.0, 1.0, 25.8, 16.25)">
    <path d="M-11.35 -0.2 Q-9.85 4.35 -6.75 8.7 L-5.85 9.85 Q-16.5 6.35 -21.55 -7.2 L-18.05 -9.4 -25.8 -11.6 Q-11.45 -15.4 1.45 -15.95 7.35 -15.7 16.8 -13.25 22.35 -12.6 25.8 -16.25 23.9 -9.9 20.4 -10.65 21.9 -8.85 24.9 -1.35 L19.35 -7.15 19.0 -7.4 18.7 -7.6 18.4 -7.8 Q13.05 -11.35 2.9 -10.5 -7.45 -9.75 -12.65 -6.75 -12.4 -3.45 -11.35 -0.2 M-1.9 11.4 L-0.85 11.7 Q5.9 13.1 12.65 12.6 L13.6 12.5 15.3 12.35 16.15 12.2 16.15 14.25 14.25 13.55 Q6.15 14.8 1.85 13.25 -0.05 14.15 -0.1 15.6 -1.75 14.3 -0.1 12.9 -3.6 14.15 -4.65 16.2 -5.85 13.9 -2.25 11.65 L-1.9 11.4" fill="#000000" fill-rule="evenodd" stroke="none"/>
  </g>
</svg>
