<?xml version="1.0" encoding="UTF-8" standalone="no"?>
<svg xmlns:xlink="http://www.w3.org/1999/xlink" height="18.55px" width="32.35px" xmlns="http://www.w3.org/2000/svg">
  <g transform="matrix(1.0, 0.0, 0.0, 1.0, 13.1, 9.0)">
    <path d="M18.3 -3.25 L19.25 -2.75 Q19.4 2.75 15.45 9.1 L10.85 9.45 0.9 9.15 0.55 9.1 0.15 9.05 -2.0 8.6 -5.1 7.45 Q-9.25 5.75 -10.5 2.85 L-11.0 1.65 -12.5 -3.7 Q-13.1 -6.15 -13.1 -7.4 -12.7 -8.15 -11.5 -8.5 L-5.1 -8.95 -3.4 -8.95 -1.4 -8.95 Q7.3 -8.6 15.2 -4.9 L16.8 -4.1 18.3 -3.25" fill="#d0cbc6" fill-rule="evenodd" stroke="none"/>
    <path d="M-5.05 -8.75 L-3.4 -8.75 Q-5.0 -5.9 -5.0 -2.2 -5.0 2.8 -1.75 6.5 -0.55 8.05 0.9 8.95 L0.55 8.9 0.15 8.85 -2.0 8.4 -5.05 7.3 Q-9.2 5.65 -10.45 2.8 L-10.95 1.6 -12.45 -3.6 Q-13.05 -6.0 -13.05 -7.25 -12.65 -7.95 -11.45 -8.3 L-5.05 -8.75 M18.2 -3.2 L19.15 -2.7 Q19.3 2.7 15.35 8.9 L10.8 9.25 12.0 8.9 12.3 8.65 13.7 7.3 Q16.95 3.75 16.95 -1.4 L16.7 -4.0 18.2 -3.2" fill="#d0cbc6" fill-rule="evenodd" stroke="none"/>
  </g>
</svg>
