<?xml version="1.0" encoding="UTF-8" standalone="no"?>
<svg xmlns:xlink="http://www.w3.org/1999/xlink" height="17.75px" width="27.7px" xmlns="http://www.w3.org/2000/svg">
  <g transform="matrix(1.0, 0.0, 0.0, 1.0, 13.85, 8.85)">
    <path d="M-3.15 -5.8 Q-3.15 -4.5 -4.75 -3.65 -6.3 -2.75 -8.5 -2.75 -10.7 -2.75 -12.3 -3.65 -13.85 -4.5 -13.85 -5.8 -13.85 -7.1 -12.3 -8.0 -10.7 -8.85 -8.5 -8.85 -6.3 -8.85 -4.75 -8.0 -3.15 -7.1 -3.15 -5.8 M-7.2 -2.5 Q-4.8 -2.2 -6.55 -0.75 -7.25 -0.15 -8.1 -0.45 -9.6 -0.85 -8.3 -1.95 -7.8 -2.4 -7.2 -2.5 M10.15 5.55 Q14.75 5.05 13.65 8.25 13.45 8.9 12.75 8.9 7.4 9.1 9.6 5.8 9.8 5.55 10.15 5.55" fill="#ffffff" fill-rule="evenodd" stroke="none"/>
  </g>
</svg>
