<?xml version="1.0" encoding="UTF-8" standalone="no"?>
<svg xmlns:xlink="http://www.w3.org/1999/xlink" height="16.3px" width="93.7px" xmlns="http://www.w3.org/2000/svg">
  <g transform="matrix(1.0, 0.0, 0.0, 1.0, 18.85, 44.45)">
    <path d="M9.25 -42.1 Q15.05 -36.25 9.0 -29.95 7.05 -28.0 6.2 -30.7 3.95 -37.8 9.25 -42.1 M36.35 -38.75 Q42.4 -34.7 36.95 -30.45 36.2 -29.85 35.65 -31.0 33.15 -36.2 36.35 -38.75 M69.5 -38.1 Q76.7 -34.3 74.2 -28.55 73.9 -27.8 72.95 -28.45 65.65 -33.7 69.5 -38.1 M-13.35 -44.45 Q-9.45 -40.45 -16.15 -36.45 -19.6 -34.4 -18.65 -38.25 -17.6 -42.75 -13.35 -44.45" fill="#ffffff" fill-rule="evenodd" stroke="none"/>
  </g>
</svg>
