<?xml version="1.0" encoding="UTF-8" standalone="no"?>
<svg xmlns:xlink="http://www.w3.org/1999/xlink" height="117.6px" width="156.25px" xmlns="http://www.w3.org/2000/svg">
  <g transform="matrix(1.0, 0.0, 0.0, 1.0, 78.1, 58.8)">
    <path d="M48.45 -45.55 Q67.3 -34.15 78.15 -34.9 69.1 -23.5 56.5 -29.15 64.1 -17.75 66.85 -9.1 L67.05 -8.2 68.4 -2.95 Q69.4 3.0 68.1 8.45 70.0 14.8 69.1 24.85 67.65 38.6 60.25 44.3 52.65 50.15 44.0 56.1 45.2 44.05 55.75 35.05 52.7 36.45 48.3 36.65 52.4 31.8 54.4 26.65 55.4 19.6 54.15 9.2 55.05 24.05 46.75 35.15 46.95 26.95 42.15 18.45 38.65 12.3 37.35 7.55 40.15 21.2 42.25 26.2 13.05 16.75 5.25 -6.5 10.95 11.7 23.8 19.95 -15.55 20.65 -22.85 -9.2 -18.55 12.6 -7.1 20.65 -30.6 16.5 -37.65 5.15 -38.15 13.7 -34.55 22.2 -31.25 30.15 -24.75 36.4 -35.85 34.5 -40.75 29.25 -29.1 47.2 -34.7 58.8 -36.9 52.5 -45.75 44.75 L-49.6 41.4 -45.75 46.85 Q-59.9 43.25 -65.75 32.5 -70.75 23.35 -69.3 8.1 -70.05 13.05 -78.1 14.75 -73.35 9.8 -72.8 -4.45 -72.35 -18.7 -64.3 -28.4 -47.95 -54.6 -1.6 -58.55 23.6 -60.65 48.45 -45.55" fill="url(#gradient0)" fill-rule="evenodd" stroke="none"/>
  </g>
  <defs>
    <linearGradient gradientTransform="matrix(0.0, 0.0842, -0.0954, 0.0, 0.05, 32.05)" gradientUnits="userSpaceOnUse" id="gradient0" spreadMethod="pad" x1="-819.2" x2="819.2">
      <stop offset="0.0" stop-color="#fff23c" stop-opacity="0.0"/>
      <stop offset="0.3803921568627451" stop-color="#fff23c" stop-opacity="0.84705883"/>
      <stop offset="0.6039215686274509" stop-color="#fff23c" stop-opacity="0.8"/>
      <stop offset="1.0" stop-color="#fff23c" stop-opacity="0.0"/>
    </linearGradient>
  </defs>
</svg>
