<?xml version="1.0" encoding="UTF-8" standalone="no"?>
<svg xmlns:xlink="http://www.w3.org/1999/xlink" height="125.35px" width="129.55px" xmlns="http://www.w3.org/2000/svg">
  <g transform="matrix(1.0, 0.0, 0.0, 1.0, 64.75, 62.65)">
    <path d="M24.75 -61.65 Q29.8 -52.25 29.5 -34.75 L33.7 -11.2 Q37.1 -18.9 38.35 -29.65 39.2 -37.15 39.0 -46.05 M4.1 -55.35 Q3.15 -46.65 3.1 -41.05 L3.1 -40.9 4.85 -11.7 Q6.8 -13.7 7.05 -22.6 L7.75 -11.7 16.85 -12.25 25.0 -11.6 Q26.1 -17.65 26.2 -24.15 L26.2 -24.7 Q26.3 -29.1 25.9 -33.7 M29.5 -34.75 Q29.8 -22.6 28.3 -11.45 L26.2 -24.15 M3.1 -40.9 Q2.95 -23.65 0.25 -11.55 -4.65 -18.6 -4.45 -22.45 -5.65 -14.4 -8.25 -11.15 -9.5 -27.2 -14.15 -47.55 -12.65 -25.25 -15.75 -12.55 -20.55 -27.65 -22.75 -44.15 L-22.75 -11.6 Q-31.45 -11.05 -35.3 -8.55 L-38.65 -18.25 -38.65 -6.75 Q-42.95 -15.3 -42.9 -27.65 -44.1 -15.5 -42.7 -4.0 -41.2 14.8 -35.45 32.9 -39.0 28.6 -41.7 22.45 -37.2 38.2 -24.15 61.7 -46.5 50.95 -55.4 33.5 -64.45 16.1 -63.7 -11.75 -62.95 -39.55 -46.5 -60.1 M47.95 -61.25 Q63.95 -40.25 63.8 -5.6 63.45 43.9 40.85 59.1 46.05 50.85 51.7 25.9 50.5 28.85 48.9 31.5 52.35 10.6 53.05 -19.25 52.55 -14.6 51.5 -9.8 L50.25 -29.6 49.2 -10.05 Q47.25 -11.55 37.7 -10.95 L38.35 -29.65 M53.05 -19.25 L53.1 -19.95 53.2 -20.75 Q54.65 -38.7 47.75 -56.15 M51.7 25.9 L51.8 25.6 Q55.15 16.85 55.1 5.2 M-22.75 -44.15 L-22.8 -44.6 -23.5 -50.65 M-14.15 -47.55 L-14.3 -49.55 M-42.9 -27.65 Q-42.1 -36.2 -40.05 -45.1 M-47.15 3.55 Q-45.65 11.8 -43.3 18.3 L-43.15 18.75 -41.7 22.45" fill="none" stroke="#000000" stroke-linecap="round" stroke-linejoin="round" stroke-width="2.0"/>
  </g>
</svg>
