<?xml version="1.0" encoding="UTF-8" standalone="no"?>
<svg xmlns:xlink="http://www.w3.org/1999/xlink" height="139.05px" width="173.3px" xmlns="http://www.w3.org/2000/svg">
  <g transform="matrix(1.0, 0.0, 0.0, 1.0, 86.65, 69.35)">
    <path d="M59.65 -40.95 Q64.05 -28.05 64.95 -15.65 L66.5 -11.3 Q73.6 8.8 75.1 22.2 78.15 -7.05 70.6 -32.3 65.95 -46.45 56.85 -54.6 L49.8 -57.5 M-3.05 -35.3 Q0.0 -18.15 0.9 -1.8 1.5 10.65 0.9 22.65 L0.8 24.05 Q14.75 11.9 20.5 -5.95 L22.4 -13.0 22.55 -13.8 Q23.9 -20.45 24.3 -27.8 M33.3 -44.6 Q33.35 -35.5 32.1 -27.35 L32.1 -27.15 29.95 -4.85 Q39.8 -20.2 39.9 -36.55 39.95 -43.05 38.45 -49.75 M39.9 -36.55 Q48.95 -7.5 49.8 16.3 51.55 12.15 52.75 7.9 55.1 -0.4 55.4 -9.15 55.95 -24.4 50.35 -41.0 M44.4 -61.85 Q89.85 -56.7 85.2 -32.0 80.6 -46.65 56.85 -54.6 M52.75 7.9 Q56.65 42.7 49.3 66.4 76.35 37.4 66.5 -11.3 M55.4 -9.15 Q56.55 13.25 55.25 30.5 66.7 8.45 64.95 -15.65 M22.4 -13.0 L19.15 6.25 Q29.15 -7.75 32.1 -27.15 M-29.1 -59.05 Q-41.2 -56.75 -49.9 -40.35 -58.65 -23.95 -65.25 -8.85 -71.85 6.2 -85.65 19.15 -68.65 15.15 -62.25 4.05 -60.1 -7.95 -54.9 -16.2 M-26.8 -42.8 Q-29.95 -30.8 -29.95 -15.85 L-29.95 -15.45 Q-29.95 -0.8 -30.65 10.85 -19.75 -9.5 -14.1 -38.45 -15.15 -44.2 -15.45 -50.25 M-29.95 -15.45 Q-54.45 35.4 -46.8 68.7 -69.35 37.5 -62.25 4.05 M0.9 -1.8 Q-10.7 -18.7 -14.1 -38.45" fill="none" stroke="#000000" stroke-linecap="round" stroke-linejoin="round" stroke-width="2.0"/>
    <path d="M32.0 -64.7 Q21.95 -70.1 9.15 -68.1 -1.15 -70.1 -10.3 -65.5 L-12.35 -64.2" fill="none" stroke="#000000" stroke-linecap="round" stroke-linejoin="round" stroke-width="1.3"/>
  </g>
</svg>
