<?xml version="1.0" encoding="UTF-8" standalone="no"?>
<svg xmlns:xlink="http://www.w3.org/1999/xlink" height="52.9px" width="107.85px" xmlns="http://www.w3.org/2000/svg">
  <g transform="matrix(1.0, 0.0, 0.0, 1.0, 101.55, 26.0)">
    <path d="M-93.5 -6.25 Q-97.95 6.5 -101.55 26.9 -99.8 -3.75 -93.5 -13.25 -87.7 -22.1 -81.6 -26.0 -89.4 -18.2 -93.5 -6.25 M-7.75 -24.15 Q5.45 -9.0 5.75 1.35 L6.3 25.55 Q4.05 5.15 1.1 -3.75 -2.45 -14.3 -8.1 -23.55 -8.4 -24.1 -7.75 -24.15 M-35.2 -0.45 Q-34.6 2.25 -34.25 4.9 -34.1 6.9 -35.7 22.55 -39.05 -8.35 -44.3 -25.35 -37.45 -12.4 -35.2 -0.45 M-80.25 -16.15 Q-82.25 -3.6 -84.1 10.35 L-86.0 21.8 -86.3 18.45 -86.45 13.85 Q-86.55 4.0 -84.25 -4.15 -81.15 -15.5 -80.25 -16.15 M-17.05 24.25 Q-18.95 1.0 -21.75 -8.2 -17.1 1.8 -16.45 8.45 -15.85 15.2 -17.05 24.25" fill="#ffffff" fill-rule="evenodd" stroke="none"/>
  </g>
</svg>
