<?xml version="1.0" encoding="UTF-8" standalone="no"?>
<svg xmlns:xlink="http://www.w3.org/1999/xlink" height="51.65px" width="122.55px" xmlns="http://www.w3.org/2000/svg">
  <g transform="matrix(1.0, 0.0, 0.0, 1.0, 61.25, 25.85)">
    <path d="M22.85 -12.4 L22.85 -12.35 Q24.5 -3.4 25.1 9.35 7.0 2.4 -0.7 -4.8 L-12.85 -8.9 Q-11.9 -5.0 -14.4 -1.5 -19.65 -3.85 -22.0 -6.2 -23.75 -1.45 -26.7 2.95 -30.2 -0.8 -30.3 -3.55 -32.85 7.25 -38.15 16.65 -40.45 12.75 -41.55 8.85 -44.2 23.75 -61.25 25.8 -57.95 17.5 -56.25 7.7 -54.6 -2.15 -49.8 -8.9 -44.45 -15.5 -31.4 -20.1 -11.85 -24.3 11.3 -25.85 31.95 -25.75 45.4 -20.55 56.25 -9.55 58.3 2.75 L61.3 20.85 Q51.6 14.45 46.75 4.85 46.25 8.55 44.85 12.1 41.95 7.3 33.15 0.95 24.35 -5.4 22.85 -12.4" fill="#ff4f4f" fill-rule="evenodd" stroke="none"/>
  </g>
</svg>
