<?xml version="1.0" encoding="UTF-8" standalone="no"?>
<svg xmlns:xlink="http://www.w3.org/1999/xlink" height="136.35px" width="137.1px" xmlns="http://www.w3.org/2000/svg">
  <g transform="matrix(1.0, 0.0, 0.0, 1.0, 68.55, 68.15)">
    <path d="M39.4 -45.45 Q55.05 -15.7 52.45 19.6 L52.1 21.65 Q48.05 45.7 33.95 64.9 L35.7 63.55 Q51.8 50.7 60.2 31.9 73.2 2.75 63.15 -32.0 55.75 -49.9 40.45 -62.85 36.9 -65.25 33.4 -66.85 M-1.35 -53.7 Q1.25 -48.65 2.65 -42.35 3.8 -37.0 4.1 -33.1 6.6 -1.75 -5.8 21.85 L-3.85 19.5 Q11.0 1.0 14.75 -11.95 L15.6 -15.15 Q21.05 -38.0 13.05 -67.15 M34.0 -20.3 Q38.85 10.95 30.5 34.05 24.9 51.5 28.1 59.55 28.65 54.4 44.95 34.65 49.65 28.85 52.1 21.65 M14.75 -11.95 Q18.6 36.7 10.7 63.95 24.3 51.3 30.5 34.05 M-28.5 -49.75 Q-36.35 -43.1 -39.5 -29.4 L-39.75 -28.3 -40.2 -17.95 Q-21.5 -27.4 -9.9 -40.9 M-40.2 -17.95 L-40.35 -13.3 Q-32.2 -12.75 -15.75 -22.15 0.7 -31.55 2.65 -42.35 M-40.35 -13.3 Q-41.95 43.9 -29.65 67.2 -37.95 57.85 -43.6 47.15 L-36.75 61.35 Q-69.1 33.5 -67.45 -6.4 -65.65 -35.8 -48.75 -54.45 M-43.6 47.15 L-46.8 40.55 Q-59.9 10.9 -53.9 -22.05" fill="none" stroke="#000000" stroke-linecap="round" stroke-linejoin="round" stroke-width="2.0"/>
  </g>
</svg>
