<?xml version="1.0" encoding="UTF-8" standalone="no"?>
<svg xmlns:xlink="http://www.w3.org/1999/xlink" height="122.3px" width="196.45px" xmlns="http://www.w3.org/2000/svg">
  <g transform="matrix(1.0, 0.0, 0.0, 1.0, 98.25, 61.15)">
    <path d="M29.65 -58.3 Q36.7 -55.55 42.85 -52.1 54.0 -45.85 62.1 -37.2 L62.9 -36.7 74.15 -23.7 Q94.3 5.45 96.25 31.85 101.45 -1.4 78.65 -33.15 67.7 -48.4 45.8 -58.5 L42.15 -60.15 M-5.3 -48.0 L-3.25 -41.95 Q2.3 -30.7 26.55 -14.45 36.75 -7.65 43.55 -2.05 L44.4 -1.3 Q48.1 1.8 50.7 4.55 L52.0 6.0 Q54.3 8.7 55.45 10.95 69.1 37.9 60.95 60.15 71.0 41.7 69.95 20.45 L69.5 15.05 69.25 13.25 Q68.75 9.5 67.9 5.7 L66.15 -1.15 Q59.9 -21.6 41.7 -43.7 L37.75 -48.35 M62.1 -37.2 Q73.05 -24.6 76.7 -9.3 83.45 18.9 74.65 40.6 71.5 48.3 66.85 53.0 71.4 38.95 69.95 20.45 M-57.9 -13.8 L-58.85 -5.6 Q-60.95 27.85 -29.95 41.4 -39.25 34.55 -41.9 6.85 -43.85 2.7 -44.9 -1.75 L-44.95 -2.05 Q-46.95 -10.65 -45.75 -20.4 M-45.0 -52.05 Q-58.65 -44.15 -68.25 -22.85 -80.9 3.85 -97.25 11.95 -78.1 7.85 -68.4 -4.8 -64.65 -9.75 -62.3 -16.0 M-35.8 -33.65 Q-36.35 -27.55 -36.25 -21.7 -36.2 -17.75 -35.8 -13.85 L-35.3 -9.25 Q-17.35 -23.45 -9.9 -42.85 -9.8 -48.8 -7.9 -54.25 M-9.9 -42.85 Q-9.95 -36.25 -7.8 -28.95 17.95 26.85 56.15 42.85 17.4 17.25 -3.25 -41.95 M-35.3 -9.25 Q-32.05 14.25 -17.45 32.2 -29.05 25.15 -35.95 16.45 L-36.4 15.85 Q-39.75 11.55 -41.9 6.85 L-44.9 -1.75 M-68.4 -4.8 Q-79.9 23.35 -65.55 43.55 -73.3 23.4 -58.85 -5.6" fill="none" stroke="#000000" stroke-linecap="round" stroke-linejoin="round" stroke-width="2.0"/>
    <path d="M50.7 4.55 Q35.35 -16.2 12.4 -31.85" fill="none" stroke="#000000" stroke-linecap="round" stroke-linejoin="round" stroke-width="1.4000000000000001"/>
  </g>
</svg>
