<?xml version="1.0" encoding="UTF-8" standalone="no"?>
<svg xmlns:xlink="http://www.w3.org/1999/xlink" height="74.85px" width="134.7px" xmlns="http://www.w3.org/2000/svg">
  <g transform="matrix(1.0, 0.0, 0.0, 1.0, 67.35, 37.4)">
    <path d="M51.85 -2.35 Q58.4 16.05 67.35 22.1 35.3 18.85 6.25 -21.45 8.0 3.05 4.85 22.95 L-0.2 11.45 Q0.05 26.2 -2.85 32.7 -14.5 8.55 -17.1 -24.65 -29.25 -16.95 -41.05 -7.5 L-43.55 -4.35 -43.75 -4.05 Q-57.3 13.75 -62.8 37.45 -76.35 -1.45 -49.5 -26.9 -31.8 -34.7 -4.95 -37.25 17.4 -38.6 38.15 -27.8 45.3 -20.75 51.85 -2.35" fill="#8ef7aa" fill-rule="evenodd" stroke="none"/>
  </g>
</svg>
