<?xml version="1.0" encoding="UTF-8" standalone="no"?>
<svg xmlns:xlink="http://www.w3.org/1999/xlink" height="160.45px" width="231.1px" xmlns="http://www.w3.org/2000/svg">
  <g transform="matrix(1.0, 0.0, 0.0, 1.0, 115.55, 80.2)">
    <path d="M60.15 -19.95 Q81.75 -31.95 85.75 -47.25 79.15 -65.35 53.7 -77.4 L49.85 -79.2 Q70.95 -63.45 74.4 -45.8 72.4 -31.1 60.9 -24.7 58.9 -23.75 57.35 -22.25 55.8 -20.8 55.55 -19.65 L55.35 -19.0 55.25 -16.6 60.15 -19.95 Q70.25 -25.3 80.25 -24.65 81.75 -23.6 82.5 -18.6 84.25 -12.25 90.4 -3.95 85.0 10.2 90.5 27.25 92.55 36.35 102.0 39.2 110.35 40.45 114.55 34.8 L114.4 36.05 Q112.85 44.75 104.95 50.05 97.45 54.8 87.95 50.6 90.55 55.75 88.9 61.5 83.7 76.25 73.15 79.25 79.65 68.85 79.5 61.65 79.2 58.05 75.4 55.3 72.8 53.55 71.0 51.7 68.2 48.8 67.3 45.7 67.25 44.15 67.35 42.55 67.4 40.9 67.6 39.1 68.1 33.15 69.8 26.25 72.4 15.7 65.15 9.75 63.4 8.25 61.15 7.1 55.6 5.25 48.0 6.65 47.45 12.25 32.3 32.35 17.2 52.45 16.25 67.45 L16.05 63.1 Q15.65 35.35 31.15 6.65 19.9 17.4 -8.25 28.85 L-11.4 30.6 Q-19.9 35.6 -27.0 40.85 -44.8 53.75 -54.05 68.35 -49.6 50.1 -42.2 36.3 -52.35 46.7 -59.8 57.05 L-58.1 51.3 -56.75 47.25 Q-83.15 61.15 -110.0 46.95 -87.95 44.65 -73.2 37.15 -70.45 35.4 -68.55 33.45 L-71.4 24.35 Q-77.6 24.85 -83.35 24.45 L-84.75 24.35 Q-78.75 22.4 -73.0 19.65 L-73.45 18.4 Q-74.95 14.55 -75.3 8.15 -73.2 0.75 -69.4 -6.25 -74.45 -8.5 -80.0 -12.75 L-80.2 -12.9 M60.9 -24.7 Q68.15 -34.7 66.6 -47.8 56.95 -54.0 37.85 -54.45 L32.05 -54.4 Q10.2 -53.55 -9.9 -42.85 L-12.35 -41.45 M32.05 -54.4 Q28.95 -55.95 26.5 -57.35 17.2 -62.65 16.25 -65.95 2.9 -69.7 -19.5 -62.6 -29.55 -57.2 -46.85 -54.85 -65.2 -56.65 -75.95 -65.95 L-75.1 -64.25 Q-62.6 -45.3 -40.3 -40.55 -23.4 -51.25 8.3 -55.65 L12.55 -56.25 M-25.4 -41.8 Q-37.15 -38.05 -46.85 -31.7 -54.15 -26.9 -60.4 -20.65 L-65.8 -13.2 -51.45 -15.25 Q-28.85 -19.25 -8.25 -30.25 4.2 -35.1 13.55 -37.85 25.25 -41.45 32.0 -41.95 L32.15 -41.95 32.65 -41.95 48.8 -43.2 Q53.4 -43.55 54.4 -39.25 56.75 -28.7 55.55 -19.65 M55.25 -16.6 L55.2 -16.3 Q54.4 -11.0 52.95 -5.9 51.75 -1.75 50.05 2.3 55.35 -5.55 63.55 -5.5 74.35 -4.05 81.4 8.7 L82.45 13.4 82.75 15.25 Q84.05 23.9 82.75 32.35 81.3 44.55 87.0 49.05 L87.95 50.6 M48.0 6.65 L48.9 4.95 50.05 2.3 M38.6 -9.55 Q39.95 -1.75 31.15 6.65 M-65.8 -13.2 L-80.0 -12.75 M-69.4 -6.25 Q-64.15 -3.8 -61.65 -3.3 -52.05 -0.8 -44.25 -1.55 -28.05 -14.5 -15.55 -18.25 M-11.7 -4.65 Q-15.05 -4.15 -18.2 -2.65 -29.8 2.95 -39.45 15.75 L-41.0 17.95 Q-51.3 32.45 -56.75 47.25 M-3.85 -19.65 Q-9.1 -20.15 -15.05 -18.4 M-40.3 -40.55 Q-75.9 -25.9 -114.55 -34.15 -86.95 -12.75 -60.4 -20.65 M-25.55 14.3 Q-32.6 20.9 -38.25 29.6 L-42.2 36.3 M-63.85 26.35 Q-64.55 28.6 -66.15 30.85 L-68.55 33.45 M-44.25 -1.55 L-48.75 2.1 Q-60.05 13.25 -73.0 19.65 M-71.4 24.35 Q-57.45 23.3 -41.0 17.95" fill="none" stroke="#000000" stroke-linecap="round" stroke-linejoin="round" stroke-width="2.0"/>
  </g>
</svg>
