<?xml version="1.0" encoding="UTF-8" standalone="no"?>
<svg xmlns:xlink="http://www.w3.org/1999/xlink" height="83.4px" width="94.95px" xmlns="http://www.w3.org/2000/svg">
  <g transform="matrix(1.0, 0.0, 0.0, 1.0, 45.3, 39.75)">
    <path d="M30.8 25.5 L30.45 24.6 21.95 18.1 9.6 10.95 -30.3 -8.7 Q-47.0 -15.3 -45.1 -27.45 L-43.45 -36.8 -27.2 -39.75 Q12.15 -39.95 31.75 -22.4 53.2 -1.1 48.95 22.7 48.3 27.2 45.2 29.95 43.6 34.3 39.8 38.75 37.0 42.0 29.85 43.65 28.65 42.8 29.9 40.65 L29.85 40.6 Q31.05 35.35 30.8 25.55 L30.8 25.5" fill="#ffffff" fill-rule="evenodd" stroke="none"/>
    <path d="M30.8 25.55 L30.8 25.5" fill="none" stroke="#151515" stroke-linecap="round" stroke-linejoin="round" stroke-width="0.1"/>
  </g>
</svg>
