<?xml version="1.0" encoding="UTF-8" standalone="no"?>
<svg xmlns:xlink="http://www.w3.org/1999/xlink" height="38.25px" width="100.95px" xmlns="http://www.w3.org/2000/svg">
  <g transform="matrix(1.0, 0.0, 0.0, 1.0, 49.8, 34.3)">
    <path d="M24.95 3.95 Q27.15 -17.5 25.6 -29.85 28.05 -22.8 28.8 -16.4 L29.0 -13.95 29.1 -11.45 28.95 -7.7 Q28.75 -6.35 24.95 3.95 M42.05 -28.75 Q43.05 -28.25 47.1 -18.4 L48.85 -13.85 49.05 -13.15 49.25 -12.35 Q50.45 -7.95 50.85 -2.95 L51.1 -0.6 51.15 3.95 48.25 -5.95 42.05 -28.75 M-49.8 1.45 Q-46.55 -7.1 -43.3 -16.75 L-40.25 -24.5 Q-40.35 -21.3 -40.8 -18.45 -41.4 -13.45 -43.1 -9.4 L-44.75 -5.9 Q-48.85 1.3 -49.8 1.45 M-30.85 -0.5 Q-28.75 -9.1 -26.75 -18.75 L-24.8 -26.6 Q-24.55 -23.4 -24.75 -20.8 -24.9 -16.55 -25.75 -13.0 L-26.0 -11.85 Q-26.45 -9.95 -27.2 -8.3 -30.05 -0.8 -30.85 -0.5 M-5.6 3.7 Q-3.15 -20.4 -4.85 -34.3 -2.1 -26.4 -1.25 -19.2 L-1.05 -16.45 -0.95 -13.6 Q-0.95 -11.45 -1.1 -9.4 -1.35 -7.9 -5.6 3.7" fill="#ffffff" fill-rule="evenodd" stroke="none"/>
  </g>
</svg>
