<?xml version="1.0" encoding="UTF-8" standalone="no"?>
<svg xmlns:xlink="http://www.w3.org/1999/xlink" height="122.2px" width="144.95px" xmlns="http://www.w3.org/2000/svg">
  <g transform="matrix(1.0, 0.0, 0.0, 1.0, 72.45, 61.1)">
    <path d="M37.4 -11.9 L37.2 -9.1 Q35.8 11.5 32.45 25.05 L32.5 25.05 Q40.35 17.25 43.85 5.75 L45.1 0.95 Q46.1 -3.95 46.45 -9.45 M43.85 5.75 L38.5 27.0 47.35 29.9 54.6 32.4 Q58.8 20.8 59.55 5.1 59.25 20.85 56.4 33.0 61.8 34.9 63.05 35.5 76.5 18.7 68.55 -10.1 60.55 -38.9 25.2 -53.9 4.65 -61.9 -14.65 -59.55 -38.8 -53.95 -53.1 -40.05 -63.95 -30.2 -68.75 -16.25 -75.5 10.6 -65.5 37.45 L-58.3 41.85 Q-59.7 33.2 -60.05 19.9 -59.3 33.65 -54.8 47.4 -47.4 51.75 -38.25 60.1 -41.95 46.8 -43.4 28.1 -43.3 13.05 -40.85 3.9 L-44.35 3.0 -44.4 2.95 Q-46.25 -14.9 -38.6 -30.65 M-15.0 -38.25 Q-17.65 -31.85 -19.6 -25.5 -24.15 -6.05 -22.75 8.75 L-12.05 11.7 -0.7 -24.3 Q-6.65 -3.75 -7.3 13.05 L10.65 18.3 17.3 -6.05 12.65 18.9 29.9 24.2 Q35.3 11.55 37.2 -9.1 M-19.6 -25.5 Q-24.75 -8.65 -24.95 8.15 L-22.75 8.75 M-40.85 3.9 L-24.95 8.15" fill="none" stroke="#000000" stroke-linecap="round" stroke-linejoin="round" stroke-width="2.0"/>
  </g>
</svg>
