<?xml version="1.0" encoding="UTF-8" standalone="no"?>
<svg xmlns:xlink="http://www.w3.org/1999/xlink" height="18.05px" width="89.4px" xmlns="http://www.w3.org/2000/svg">
  <g transform="matrix(1.0, 0.0, 0.0, 1.0, 34.95, 21.55)">
    <path d="M26.1 -16.25 Q32.15 -12.2 26.7 -7.95 25.95 -7.35 25.4 -8.5 22.9 -13.7 26.1 -16.25 M49.1 -21.55 Q56.3 -17.75 53.8 -12.0 53.5 -11.25 52.55 -11.9 45.25 -17.15 49.1 -21.55 M-1.35 -16.45 Q4.45 -10.6 -1.6 -4.3 -3.55 -2.35 -4.4 -5.05 -6.65 -12.15 -1.35 -16.45 M-29.45 -18.8 Q-25.55 -14.8 -32.25 -10.8 -35.7 -8.75 -34.75 -12.6 -33.7 -17.1 -29.45 -18.8" fill="#ffffff" fill-rule="evenodd" stroke="none"/>
  </g>
</svg>
