<?xml version="1.0" encoding="UTF-8" standalone="no"?>
<svg xmlns:xlink="http://www.w3.org/1999/xlink" height="82.15px" width="97.6px" xmlns="http://www.w3.org/2000/svg">
  <g transform="matrix(1.0, 0.0, 0.0, 1.0, 48.8, 41.05)">
    <path d="M47.25 9.4 L46.95 7.65 Q42.95 -12.15 30.25 -25.0 M-21.5 -30.05 Q-14.75 -15.7 -6.3 -7.6 4.7 -0.85 20.75 0.9 L22.85 1.1 30.0 1.45 Q11.1 -10.85 -1.7 -30.1 M22.85 1.1 Q34.25 7.55 38.3 18.0 42.35 28.4 36.7 40.1 L38.2 38.75 Q49.85 27.15 47.35 10.05 M-47.8 -40.05 Q-48.05 -28.05 -41.7 -19.4 -28.2 -1.55 6.05 0.45 -0.55 -2.1 -6.3 -7.6" fill="none" stroke="#000000" stroke-linecap="round" stroke-linejoin="round" stroke-width="2.0"/>
  </g>
</svg>
