<?xml version="1.0" encoding="UTF-8" standalone="no"?>
<svg xmlns:xlink="http://www.w3.org/1999/xlink" height="16.8px" width="87.5px" xmlns="http://www.w3.org/2000/svg">
  <g transform="matrix(1.0, 0.0, 0.0, 1.0, 55.1, 27.15)">
    <path d="M10.6 -22.2 Q16.2 -18.45 11.15 -14.5 10.45 -13.95 9.95 -15.0 7.6 -19.85 10.6 -22.2 M27.4 -27.15 Q34.1 -23.6 31.8 -18.25 31.5 -17.55 30.6 -18.15 23.85 -23.05 27.4 -27.15 M-49.95 -24.55 Q-46.35 -20.85 -52.55 -17.15 -55.75 -15.25 -54.9 -18.8 -53.9 -23.0 -49.95 -24.55 M-13.5 -22.4 Q-8.1 -16.95 -13.75 -11.1 -15.55 -9.3 -16.35 -11.8 -18.4 -18.4 -13.5 -22.4" fill="#ffffff" fill-rule="evenodd" stroke="none"/>
  </g>
</svg>
