<?xml version="1.0" encoding="UTF-8" standalone="no"?>
<svg xmlns:xlink="http://www.w3.org/1999/xlink" height="120.85px" width="69.45px" xmlns="http://www.w3.org/2000/svg">
  <g transform="matrix(1.0, 0.0, 0.0, 1.0, 23.5, 64.15)">
    <path d="M12.7 22.3 Q7.8 34.75 -8.85 49.05 5.6 23.6 -9.65 -10.7 -16.3 -36.7 -23.5 -52.85 -16.4 -57.3 -1.65 -55.45 16.25 -53.15 31.15 -64.15 25.8 -40.9 6.25 -40.15 15.45 -37.8 25.3 -24.15 35.15 -10.55 45.95 -8.75 36.65 -2.3 26.2 -5.2 33.05 35.05 3.9 56.7 12.1 43.2 12.7 22.3 14.15 18.55 14.55 14.95 L12.7 22.3" fill="#ffffff" fill-rule="evenodd" stroke="none"/>
  </g>
</svg>
