<?xml version="1.0" encoding="UTF-8" standalone="no"?>
<svg xmlns:xlink="http://www.w3.org/1999/xlink" height="26.25px" width="94.15px" xmlns="http://www.w3.org/2000/svg">
  <g transform="matrix(1.0, 0.0, 0.0, 1.0, 73.75, 48.0)">
    <path d="M15.05 -48.0 Q22.25 -44.2 19.75 -38.45 19.45 -37.7 18.5 -38.35 11.2 -43.6 15.05 -48.0 M-68.25 -37.05 Q-64.35 -33.05 -71.05 -29.05 -74.5 -27.0 -73.55 -30.85 -72.5 -35.35 -68.25 -37.05 M-31.1 -34.7 Q-25.3 -28.85 -31.35 -22.55 -33.3 -20.6 -34.15 -23.3 -36.4 -30.4 -31.1 -34.7 M-4.35 -34.5 Q1.7 -30.45 -3.75 -26.2 -4.5 -25.6 -5.05 -26.75 -7.55 -31.95 -4.35 -34.5" fill="#ffffff" fill-rule="evenodd" stroke="none"/>
  </g>
</svg>
