<?xml version="1.0" encoding="UTF-8" standalone="no"?>
<svg xmlns:xlink="http://www.w3.org/1999/xlink" height="46.5px" width="101.6px" xmlns="http://www.w3.org/2000/svg">
  <g transform="matrix(1.0, 0.0, 0.0, 1.0, 41.9, 38.7)">
    <path d="M35.9 -33.5 Q41.6 -29.45 36.2 -25.15 35.45 -24.6 34.95 -25.75 32.7 -30.95 35.9 -33.5 M54.6 -38.7 Q59.65 -35.95 59.7 -32.1 59.65 -30.75 59.05 -29.25 58.8 -28.5 57.9 -29.15 50.85 -34.4 54.6 -38.7 M-27.15 -15.4 Q-20.6 -11.05 -25.05 -3.25 -25.7 -2.2 -26.3 -2.05 -27.1 -1.85 -27.85 -3.25 -31.3 -9.8 -27.15 -15.4 M-40.1 7.25 L-40.8 5.95 Q-42.85 1.7 -41.05 -2.5 -35.95 -2.0 -37.95 5.7 -38.95 8.9 -40.1 7.25" fill="#ffffff" fill-rule="evenodd" stroke="none"/>
  </g>
</svg>
