<?xml version="1.0" encoding="UTF-8" standalone="no"?>
<svg xmlns:xlink="http://www.w3.org/1999/xlink" height="107.65px" width="95.8px" xmlns="http://www.w3.org/2000/svg">
  <g transform="matrix(1.0, 0.0, 0.0, 1.0, 71.9, 47.1)">
    <path d="M-51.35 -47.0 Q-36.95 -46.1 -23.5 -27.65 -2.95 -1.45 23.9 6.65 10.05 11.35 -2.05 6.3 12.55 16.2 11.35 27.15 L-1.4 13.9 Q10.15 31.55 23.1 46.1 9.4 38.75 1.3 30.8 L16.35 47.9 Q-2.35 42.65 -6.75 31.9 L-5.9 38.9 Q-4.55 55.0 -2.9 60.55 -12.75 51.25 -24.4 15.2 L-24.65 14.35 -26.4 8.8 Q-21.8 25.15 -36.1 34.35 -33.85 28.3 -34.55 10.95 -36.0 23.0 -45.55 34.9 -46.4 25.0 -53.95 8.55 -53.9 24.75 -49.8 35.9 -74.35 7.55 -71.65 -36.9 -61.5 -47.95 -51.35 -47.0" fill="#ffffff" fill-rule="evenodd" stroke="none"/>
  </g>
</svg>
