<?xml version="1.0" encoding="UTF-8" standalone="no"?>
<svg xmlns:xlink="http://www.w3.org/1999/xlink" height="98.2px" width="152.55px" xmlns="http://www.w3.org/2000/svg">
  <g transform="matrix(1.0, 0.0, 0.0, 1.0, 76.3, 49.1)">
    <path d="M52.35 -16.55 L46.35 -23.7 Q39.25 10.1 5.45 41.95 L16.4 13.05 Q10.9 20.45 5.35 26.15 12.75 8.5 19.55 -15.3 18.1 -11.75 -4.8 5.1 -27.75 21.95 -35.2 31.95 -32.15 17.45 -22.25 2.6 -39.0 20.85 -46.65 49.1 -47.9 37.05 -46.85 26.35 -53.15 33.0 -62.55 33.2 -60.35 31.35 -58.45 27.5 -65.15 35.3 -76.3 34.45 -69.6 34.7 -54.75 0.7 -39.9 -33.35 -22.75 -42.3 3.05 -51.0 37.75 -48.55 59.4 -43.6 68.75 -26.4 82.75 -0.7 70.6 24.6 L70.6 6.75 Q70.0 29.7 54.05 43.65 L61.45 17.75 Q58.45 26.05 51.35 33.75 61.3 12.7 52.35 -16.55" fill="#8ef7aa" fill-rule="evenodd" stroke="none"/>
  </g>
</svg>
