<?xml version="1.0" encoding="UTF-8" standalone="no"?>
<svg xmlns:xlink="http://www.w3.org/1999/xlink" height="120.95px" width="141.35px" xmlns="http://www.w3.org/2000/svg">
  <g transform="matrix(1.0, 0.0, 0.0, 1.0, 70.65, 60.45)">
    <path d="M68.95 -11.1 L68.5 -5.0 67.45 1.7 67.05 4.0 67.05 4.1 67.05 4.2 Q64.7 37.05 70.7 47.9 58.3 39.75 62.05 23.25 53.7 51.55 52.55 60.3 47.7 47.8 51.7 35.5 46.05 46.05 35.75 53.75 45.4 34.55 46.3 12.9 L37.8 -9.35 Q38.65 -0.7 40.6 5.85 26.75 -5.35 23.95 -19.05 25.6 -4.4 28.95 3.6 15.5 -5.0 12.25 -23.95 14.9 -4.1 19.9 1.95 2.45 -5.55 0.75 -22.95 1.85 -8.0 4.7 0.45 -12.1 -17.1 -16.3 -43.0 -23.75 -16.4 -24.75 4.9 -29.45 -3.85 -30.75 -13.8 -31.75 6.9 -28.6 11.7 -35.5 6.15 -39.45 -0.75 -36.2 38.9 -23.8 59.2 -37.85 50.4 -44.4 37.7 -37.7 52.2 -44.8 60.5 -45.25 51.8 -55.3 37.15 -63.45 25.3 -64.1 9.55 -64.5 33.05 -61.25 48.85 -80.75 18.3 -59.9 -35.05 -52.25 -49.05 -28.95 -55.3 8.15 -65.35 47.45 -55.7 70.05 -36.2 68.95 -11.95 L68.95 -11.1" fill="url(#gradient0)" fill-rule="evenodd" stroke="none"/>
  </g>
  <defs>
    <linearGradient gradientTransform="matrix(0.0, 0.0776, -0.0863, 0.0, 0.05, 32.65)" gradientUnits="userSpaceOnUse" id="gradient0" spreadMethod="pad" x1="-819.2" x2="819.2">
      <stop offset="0.0" stop-color="#fff23c" stop-opacity="0.0"/>
      <stop offset="0.3803921568627451" stop-color="#fff23c" stop-opacity="0.84705883"/>
      <stop offset="0.6039215686274509" stop-color="#fff23c" stop-opacity="0.8"/>
      <stop offset="1.0" stop-color="#fff23c" stop-opacity="0.0"/>
    </linearGradient>
  </defs>
</svg>
