<?xml version="1.0" encoding="UTF-8" standalone="no"?>
<svg xmlns:xlink="http://www.w3.org/1999/xlink" height="93.95px" width="131.25px" xmlns="http://www.w3.org/2000/svg">
  <g transform="matrix(1.0, 0.0, 0.0, 1.0, 65.6, 46.95)">
    <path d="M-27.6 -40.95 Q-28.95 -37.1 -29.55 -33.1 -31.0 -23.6 -28.25 -13.3 -26.4 -6.25 -22.6 1.2 -22.8 -6.3 -21.15 -14.65 -19.45 -23.2 -15.85 -32.65 -13.4 -39.05 -10.1 -45.85 -1.8 -44.25 6.65 -34.35 L9.65 -37.8 Q11.6 -39.8 13.8 -41.4 17.3 -43.95 21.5 -45.55 25.55 -40.9 28.55 -31.05 31.15 -22.35 32.9 -9.6 L34.05 0.2 Q38.6 -7.55 39.55 -17.2 L39.8 -22.05 Q39.85 -29.5 37.95 -38.0 M6.65 -34.35 Q16.35 -35.6 28.55 -31.05 M39.8 -22.05 Q54.2 12.15 54.1 40.45 L54.05 42.7 Q74.95 -3.75 54.6 -33.75 46.3 -43.15 35.5 -45.95 M-29.55 -33.1 Q-51.8 7.0 -48.65 46.0 -52.25 40.85 -55.05 35.85 -73.4 -0.05 -56.45 -33.8 L-56.0 -34.6 Q-51.15 -40.95 -42.6 -43.5 M-15.85 -32.65 Q-9.1 -34.8 6.65 -34.35" fill="none" stroke="#000000" stroke-linecap="round" stroke-linejoin="round" stroke-width="2.0"/>
    <path d="M13.8 -41.4 Q19.55 -41.75 22.95 -40.55 M9.65 -37.8 Q17.75 -38.0 24.95 -35.9 M-1.8 -41.2 L-10.9 -40.55 M2.35 -37.55 Q-5.8 -38.45 -12.45 -36.85" fill="none" stroke="#000000" stroke-linecap="round" stroke-linejoin="round" stroke-width="1.5"/>
  </g>
</svg>
