<?xml version="1.0" encoding="UTF-8" standalone="no"?>
<svg xmlns:xlink="http://www.w3.org/1999/xlink" height="60.1px" width="138.0px" xmlns="http://www.w3.org/2000/svg">
  <g transform="matrix(1.0, 0.0, 0.0, 1.0, 69.0, 30.05)">
    <path d="M9.25 -4.45 L9.45 -0.7 10.2 14.85 18.0 14.85 33.85 15.65 33.8 -0.2 33.55 -4.45 M59.4 1.9 Q63.45 12.1 61.7 20.9 67.0 22.6 67.75 24.2 69.15 12.05 62.5 -0.8 54.9 -15.8 37.6 -22.65 28.0 -26.4 14.95 -28.4 -6.0 -30.7 -27.85 -24.65 -50.45 -16.75 -59.85 -1.05 -69.2 14.65 -67.8 29.05 L-63.0 26.5 Q-64.15 18.55 -61.8 10.5 M49.3 1.25 L50.05 6.35 Q52.5 12.9 52.75 18.5 58.35 19.75 61.7 20.9 M33.8 -0.2 L37.55 16.35 41.1 16.7 48.1 17.65 50.5 18.0 Q50.7 12.3 50.05 6.35 M-8.7 -3.5 Q-9.4 1.0 -9.55 5.55 L-9.6 6.9 Q-9.7 11.35 -8.5 15.85 L7.1 14.9 9.45 -0.7 M-27.75 -0.2 Q-28.45 3.35 -28.25 7.7 L-28.25 8.45 Q-28.05 12.9 -26.95 18.25 L-11.6 16.05 -9.6 6.9 M-45.6 3.85 Q-46.25 8.5 -45.6 16.0 L-43.5 21.9 -37.65 20.45 -29.65 18.75 -28.25 8.45 M-63.0 26.5 Q-58.6 25.3 -53.05 24.05 -54.0 18.1 -53.2 7.25 M-53.05 24.05 L-45.45 22.35 -45.6 16.0" fill="none" stroke="#000000" stroke-linecap="round" stroke-linejoin="round" stroke-width="2.0"/>
  </g>
</svg>
