<?xml version="1.0" encoding="UTF-8" standalone="no"?>
<svg xmlns:xlink="http://www.w3.org/1999/xlink" height="26.2px" width="116.15px" xmlns="http://www.w3.org/2000/svg">
  <g transform="matrix(1.0, 0.0, 0.0, 1.0, 81.65, 32.9)">
    <path d="M7.15 -18.65 Q14.45 -18.15 11.85 -11.8 11.5 -10.85 10.45 -11.6 5.7 -14.85 7.15 -18.65 M27.4 -24.25 Q35.35 -22.45 34.4 -16.25 34.3 -15.45 33.2 -15.85 24.8 -19.0 27.4 -24.25 M-54.7 -22.15 Q-50.8 -18.15 -57.5 -14.15 -60.95 -12.1 -60.0 -15.95 -58.95 -20.45 -54.7 -22.15 M-78.95 -24.9 Q-82.4 -22.85 -81.45 -26.7 -80.4 -31.2 -76.15 -32.9 -72.25 -28.9 -78.95 -24.9 M-16.6 -19.7 Q-9.5 -15.5 -13.75 -7.9 L-16.6 -7.85 Q-20.6 -14.15 -16.6 -19.7" fill="#ffffff" fill-rule="evenodd" stroke="none"/>
  </g>
</svg>
