<?xml version="1.0" encoding="UTF-8" standalone="no"?>
<svg xmlns:xlink="http://www.w3.org/1999/xlink" height="82.85px" width="169.3px" xmlns="http://www.w3.org/2000/svg">
  <g transform="matrix(1.0, 0.0, 0.0, 1.0, 84.65, 41.45)">
    <path d="M31.25 -4.1 L31.25 -20.0 Q23.75 -10.65 17.55 -1.85 L25.65 -6.65 Q28.45 -5.35 31.25 -4.1 L31.25 -2.3 31.95 -4.25 37.15 -19.6 Q39.2 -10.15 40.5 -1.55 43.75 19.55 42.35 35.35 53.45 18.55 52.9 3.5 L52.85 3.2 Q52.65 -1.35 51.35 -5.75 50.45 -8.8 49.05 -11.75 M31.95 -4.25 L35.35 -5.55 40.5 -1.55 M51.35 -5.75 Q57.35 -2.7 62.7 0.75 74.9 8.6 83.65 18.35 73.8 -20.25 47.2 -38.9 38.0 -37.95 31.6 -31.65 20.15 -49.7 -19.8 -30.75 -59.8 -11.85 -83.65 -12.75 -64.75 2.35 -45.85 -1.95 -43.55 -6.4 -41.35 -11.3 M52.9 3.5 Q63.35 23.5 63.6 38.55 70.7 16.15 62.7 0.75 M-12.65 -9.85 Q-21.0 8.05 -38.2 19.15 -26.05 15.4 -19.2 7.8 -18.1 3.95 -16.4 0.25 M-38.2 19.15 L-39.45 19.9 -48.45 24.75 Q-58.65 29.45 -71.25 32.4 L-71.35 32.4 Q-57.7 21.2 -45.85 -1.95 M17.55 -1.85 Q3.35 18.25 -4.05 35.3 -5.85 21.7 -2.6 8.05 -15.7 30.05 -19.35 40.4 -23.9 23.45 -19.2 7.8 M-2.6 8.05 Q-0.85 0.9 2.25 -6.3" fill="none" stroke="#000000" stroke-linecap="round" stroke-linejoin="round" stroke-width="2.0"/>
  </g>
</svg>
