<?xml version="1.0" encoding="UTF-8" standalone="no"?>
<svg xmlns:xlink="http://www.w3.org/1999/xlink" height="101.65px" width="126.25px" xmlns="http://www.w3.org/2000/svg">
  <g transform="matrix(1.0, 0.0, 0.0, 1.0, 63.1, 50.8)">
    <path d="M21.15 23.1 Q19.85 28.75 16.2 36.05 12.85 42.75 7.6 50.85 L7.55 50.85 Q7.35 41.4 0.3 23.2 L-1.3 18.75 Q1.3 27.35 -2.05 34.7 -6.9 25.25 -18.1 5.75 -29.3 -13.75 -24.05 -24.3 -49.05 0.75 -46.4 49.15 -55.0 11.15 -43.9 -15.25 -59.3 19.35 -58.1 49.45 -68.1 20.45 -58.1 -10.15 -47.4 -36.2 -35.35 -44.45 L-2.65 -50.55 Q15.7 -52.3 34.05 -42.35 38.2 -39.65 40.1 -36.85 53.65 -27.3 58.4 -16.25 70.3 17.5 52.5 47.25 61.35 21.1 52.2 -10.35 L44.0 -20.1 Q51.5 8.6 30.4 27.6 39.2 6.05 30.9 -16.45 34.0 9.0 20.5 30.85 L21.15 23.1 Q22.1 18.95 21.7 16.0 L21.15 23.1" fill="#83b2e7" fill-rule="evenodd" stroke="none"/>
  </g>
</svg>
