<?xml version="1.0" encoding="UTF-8" standalone="no"?>
<svg xmlns:xlink="http://www.w3.org/1999/xlink" height="18.05px" width="93.4px" xmlns="http://www.w3.org/2000/svg">
  <g transform="matrix(1.0, 0.0, 0.0, 1.0, 64.1, 24.9)">
    <path d="M8.7 -19.45 Q15.3 -16.4 10.6 -11.35 10.0 -10.65 9.25 -11.7 5.9 -16.45 8.7 -19.45 M23.95 -24.9 Q31.15 -21.1 28.65 -15.35 28.35 -14.6 27.4 -15.25 20.1 -20.5 23.95 -24.9 M-58.6 -22.15 Q-54.7 -18.15 -61.4 -14.15 -64.85 -12.1 -63.9 -15.95 -62.85 -20.45 -58.6 -22.15 M-21.45 -19.8 Q-15.65 -13.95 -21.7 -7.65 -23.65 -5.7 -24.5 -8.4 -26.75 -15.5 -21.45 -19.8" fill="#ffffff" fill-rule="evenodd" stroke="none"/>
  </g>
</svg>
