<?xml version="1.0" encoding="UTF-8" standalone="no"?>
<svg xmlns:xlink="http://www.w3.org/1999/xlink" height="123.7px" width="62.2px" xmlns="http://www.w3.org/2000/svg">
  <g transform="matrix(1.0, 0.0, 0.0, 1.0, -5.2, 89.7)">
    <path d="M5.2 -78.0 Q8.45 -84.4 16.6 -89.15 19.4 -90.85 22.55 -87.45 L24.55 -84.7 Q29.45 -88.2 35.7 -84.9 62.8 -67.45 66.75 -34.6 69.0 -15.8 63.65 8.05 64.2 -13.85 60.65 -31.0 52.9 -68.5 25.55 -83.25 43.45 -56.8 44.2 -22.9 44.7 3.3 34.95 34.0 39.0 5.0 36.95 -20.15 34.0 -56.15 18.6 -84.15 10.1 -81.9 5.2 -78.0" fill="#ffffff" fill-rule="evenodd" stroke="none"/>
  </g>
</svg>
