<?xml version="1.0" encoding="UTF-8" standalone="no"?>
<svg xmlns:xlink="http://www.w3.org/1999/xlink" height="18.05px" width="92.8px" xmlns="http://www.w3.org/2000/svg">
  <g transform="matrix(1.0, 0.0, 0.0, 1.0, 84.9, 24.9)">
    <path d="M2.55 -24.9 Q9.75 -21.1 7.25 -15.35 6.95 -14.6 6.0 -15.25 -1.3 -20.5 2.55 -24.9 M-79.4 -22.15 Q-75.5 -18.15 -82.2 -14.15 -85.65 -12.1 -84.7 -15.95 -83.65 -20.45 -79.4 -22.15 M-43.6 -19.8 Q-37.8 -13.95 -43.85 -7.65 -45.8 -5.7 -46.65 -8.4 -48.9 -15.5 -43.6 -19.8 M-16.85 -19.6 Q-10.8 -15.55 -16.25 -11.3 -17.0 -10.7 -17.55 -11.85 -20.05 -17.05 -16.85 -19.6" fill="#ff0000" fill-rule="evenodd" stroke="none"/>
  </g>
</svg>
