<?xml version="1.0" encoding="UTF-8" standalone="no"?>
<svg xmlns:xlink="http://www.w3.org/1999/xlink" height="100.7px" width="80.3px" xmlns="http://www.w3.org/2000/svg">
  <g transform="matrix(1.0, 0.0, 0.0, 1.0, 13.4, 63.25)">
    <path d="M18.3 -50.0 L15.6 -63.25 18.95 -62.8 Q31.9 -61.65 45.85 -53.45 61.75 -38.2 65.8 -15.1 69.2 2.5 61.85 17.9 57.15 27.75 49.6 33.0 46.15 35.35 42.2 36.8 L40.2 37.45 Q47.0 25.7 48.7 6.55 35.6 -3.95 29.45 -23.0 19.7 5.0 -0.85 16.1 -6.4 19.05 -12.7 20.8 L-13.4 21.0 -12.4 20.2 Q-4.6 6.0 0.65 -8.6 17.75 -29.6 18.05 -39.6 L18.3 -50.0" fill="#ffffff" fill-rule="evenodd" stroke="none"/>
  </g>
</svg>
