<?xml version="1.0" encoding="UTF-8" standalone="no"?>
<svg xmlns:xlink="http://www.w3.org/1999/xlink" height="128.5px" width="141.8px" xmlns="http://www.w3.org/2000/svg">
  <g transform="matrix(1.0, 0.0, 0.0, 1.0, 70.9, 64.25)">
    <path d="M-38.15 21.5 Q-38.35 38.35 -29.1 64.25 -51.65 44.7 -49.95 12.9 L-54.9 11.2 -64.0 19.0 -59.35 9.45 Q-62.2 8.1 -64.65 6.55 L-58.35 6.15 Q-56.2 2.85 -53.35 -8.95 L-52.25 -13.1 Q-61.6 -7.95 -70.9 -8.75 -57.95 -15.15 -47.9 -26.85 -42.85 -39.9 -35.3 -48.45 -14.5 -71.55 9.35 -60.85 15.55 -62.65 21.8 -59.75 33.9 -61.95 46.0 -53.1 58.9 -41.65 62.45 -9.25 L64.25 3.95 64.45 6.4 Q66.4 16.75 70.9 27.1 L62.3 18.7 Q59.95 25.0 55.05 31.85 52.8 46.55 45.4 58.65 49.3 46.3 50.1 33.1 52.85 -10.1 32.5 -31.45 29.3 -7.55 12.35 3.25 L14.3 -4.15 Q-3.45 17.25 -38.15 21.5 -13.1 13.5 -0.25 0.15 -17.3 10.9 -37.6 13.9 L-38.15 21.5" fill="#382f2a" fill-rule="evenodd" stroke="none"/>
  </g>
</svg>
