<?xml version="1.0" encoding="UTF-8" standalone="no"?>
<svg xmlns:xlink="http://www.w3.org/1999/xlink" height="132.15px" width="168.45px" xmlns="http://www.w3.org/2000/svg">
  <g transform="matrix(1.0, 0.0, 0.0, 1.0, 84.2, 66.1)">
    <path d="M4.5 -13.75 L-2.0 -12.0 Q5.45 -8.3 11.15 -3.05 23.9 3.95 33.6 17.5 35.4 20.0 37.6 22.2 45.8 30.5 58.95 34.45 63.85 35.95 69.5 36.9 L76.75 37.65 Q73.0 36.1 69.55 34.05 58.95 27.7 51.55 16.05 45.9 5.55 38.1 -2.25 L37.95 -2.4 Q28.4 -11.95 15.7 -17.4 10.5 -15.1 4.5 -13.75 M15.7 -17.4 Q23.3 -21.0 29.05 -26.65 L30.7 -28.3 Q32.35 -30.2 33.8 -32.2 29.85 -30.25 26.95 -29.3 13.85 -24.9 -0.05 -25.25 -11.3 -26.05 -25.0 -22.1 -26.7 -21.1 -28.65 -20.2 -33.05 -17.85 -36.1 -14.45 -22.1 -17.7 -11.6 -10.95 L-2.0 -12.0 M37.6 22.2 L51.8 44.85 Q37.25 36.6 27.9 26.05 29.7 33.1 30.2 41.25 23.8 31.2 17.4 22.35 -2.25 15.95 -21.9 2.5 -19.65 5.8 -18.05 10.05 -30.75 6.1 -37.05 -3.65 -45.5 13.0 -49.3 38.9 -50.6 30.2 -50.6 23.3 -54.4 29.35 -55.5 37.75 -57.2 49.3 -54.1 65.05 -59.05 61.55 -60.95 55.35 -64.55 62.0 -71.15 64.1 -67.3 58.5 -67.45 53.6 -74.5 59.2 -83.2 58.55 -79.35 55.65 -76.4 52.65 -80.05 48.05 -78.6 42.75 -82.3 35.3 -79.8 27.8 -82.95 18.25 -76.9 8.65 -77.2 5.05 -76.2 1.45 -75.35 -1.8 -73.4 -5.0 -76.3 -4.95 -78.35 -7.25 -74.4 -6.35 -72.3 -9.9 -70.5 -14.55 -65.9 -15.4 -66.5 -25.4 -57.7 -30.55 -41.8 -40.2 -34.85 -49.95 -34.9 -43.0 -41.65 -36.1 -28.05 -46.35 -24.55 -55.5 -24.55 -48.8 -28.05 -42.05 L-15.2 -54.8 Q-14.75 -48.15 -20.65 -41.4 L-19.05 -42.05 Q3.3 -53.85 12.45 -65.1 11.5 -56.75 0.55 -46.35 24.45 -54.2 40.55 -43.0 26.2 -45.2 19.55 -41.15 L23.95 -40.4 Q49.15 -33.4 62.35 -14.45 53.35 -22.65 43.0 -26.0 55.4 -16.45 62.6 -4.1 66.45 1.75 74.65 6.7 69.55 6.25 64.8 3.65 70.75 11.1 83.25 16.05 76.95 18.5 66.55 14.35 70.05 23.55 81.6 30.7 74.35 31.45 69.05 28.8 L69.55 34.05 M29.05 -26.65 Q35.9 -23.45 42.65 -17.35 47.25 -13.55 51.8 -13.75 L46.55 -13.45 Q53.4 -7.6 58.55 -0.75 61.4 1.8 64.5 3.5 L64.8 3.65 M24.2 -18.25 Q32.1 -13.1 46.55 -13.45 M30.7 -28.3 Q37.05 -28.0 43.0 -26.0 M58.55 -0.75 Q62.85 5.05 65.95 12.7 L66.55 14.35 M38.1 -2.25 Q51.1 5.3 61.65 22.1 64.65 26.55 69.05 28.8 M69.5 36.9 L67.9 51.6 Q64.35 40.65 58.95 34.45 M27.9 26.05 Q23.45 8.15 11.15 -3.05 M-65.9 -15.4 L-59.95 -12.55 Q-61.15 -23.95 -44.0 -34.4 L-41.65 -36.1 M-73.4 -5.0 Q-70.45 -5.1 -66.65 -7.65 -63.6 -11.65 -59.95 -12.55 -56.3 -13.5 -51.95 -11.3 -51.8 -25.05 -34.35 -33.2 -30.45 -37.65 -28.05 -42.05 M-76.2 1.45 Q-69.8 -0.4 -68.95 -4.1 -67.9 -6.1 -66.65 -7.65 M-25.0 -22.1 Q-19.1 -25.85 -16.2 -31.15 -14.9 -33.65 -14.2 -36.55 -20.9 -30.3 -34.1 -26.95 -39.05 -22.75 -43.65 -17.35 -44.2 -13.3 -43.55 -8.9 -48.3 -10.7 -51.9 -9.55 -55.15 -8.55 -57.4 -5.0 L-58.1 -3.9 Q-59.4 -1.45 -60.35 1.9 -52.8 -5.0 -47.25 -6.05 -42.15 -7.05 -38.75 -3.15 L-37.05 -3.65 Q-36.15 -5.7 -34.2 -6.6 -28.9 -9.2 -15.45 -3.65 -29.95 -14.85 -39.1 -10.35 -40.3 -8.4 -41.1 -6.3 M-51.9 -9.55 L-51.95 -11.3 M-20.65 -41.4 Q-28.95 -37.8 -34.35 -33.2 -42.3 -26.4 -43.65 -17.35 M-39.1 -10.35 Q-37.8 -12.55 -36.1 -14.45 M-11.6 -10.95 Q-8.7 -9.15 -6.05 -6.55 5.65 6.05 17.4 22.35 M-34.1 -26.95 Q-21.3 -37.8 -5.65 -40.95 L0.55 -46.35 M-50.6 23.3 Q-50.8 16.05 -49.55 10.75 -58.2 15.4 -63.55 28.1 -65.35 32.65 -66.85 38.15 -69.55 45.7 -76.4 52.65 M-47.25 -6.05 Q-50.8 -2.25 -50.9 2.1 L-50.75 4.3 Q-47.8 -2.4 -38.75 -3.15 -47.0 -0.4 -49.55 10.75 M-78.6 42.75 Q-71.0 39.0 -63.55 28.1 M-79.8 27.8 Q-75.5 18.2 -67.05 14.1 -59.6 10.75 -50.9 2.1 M-67.45 53.6 Q-64.6 51.35 -62.05 48.2 -58.65 43.85 -55.5 37.75 M-60.95 55.35 Q-61.95 52.1 -62.05 48.2 M-76.9 8.65 Q-67.05 4.55 -58.1 -3.9 M-34.2 -6.6 Q-26.6 -4.45 -21.9 2.5 M-57.4 -5.0 Q-72.6 4.4 -76.2 1.45 M-16.2 -31.15 Q10.75 -34.75 26.95 -29.3 M-5.65 -40.95 Q6.15 -43.25 19.55 -41.15" fill="none" stroke="#000000" stroke-linecap="round" stroke-linejoin="round" stroke-width="2.0"/>
  </g>
</svg>
