<?xml version="1.0" encoding="UTF-8" standalone="no"?>
<svg xmlns:xlink="http://www.w3.org/1999/xlink" height="131.8px" width="114.55px" xmlns="http://www.w3.org/2000/svg">
  <g transform="matrix(1.0, 0.0, 0.0, 1.0, 57.25, 65.9)">
    <path d="M20.9 -49.0 L28.1 -65.9 Q42.5 -61.05 49.45 -40.2 51.5 -35.4 53.05 -29.95 58.4 -10.7 57.0 16.65 56.0 40.1 50.0 65.9 51.25 -9.1 41.15 -39.3 33.8 -57.2 20.9 -49.0 -1.6 -50.55 0.8 13.35 -7.05 -1.9 -6.7 -19.9 -3.15 -56.25 14.95 -60.4 16.65 -54.7 20.9 -49.0 M-29.4 6.25 Q-23.05 1.9 -17.7 -4.05 L-20.15 3.6 Q-22.4 35.65 -17.8 56.9 -26.7 41.5 -25.65 26.65 -30.8 50.85 -43.45 47.75 -53.2 43.75 -52.45 34.8 -48.6 39.9 -41.7 40.1 -34.35 39.8 -33.15 27.35 -33.15 14.85 -29.4 6.25 M-39.5 3.8 Q-40.4 8.15 -35.8 10.2 -41.55 13.15 -47.95 15.05 L-53.9 16.5 -55.05 14.85 -57.25 12.1 Q-56.5 -3.25 -48.25 -18.25 -52.3 -0.65 -36.85 1.25 L-39.5 3.8" fill="#ffffff" fill-rule="evenodd" stroke="none"/>
  </g>
</svg>
