<?xml version="1.0" encoding="UTF-8" standalone="no"?>
<svg xmlns:xlink="http://www.w3.org/1999/xlink" height="122.85px" width="165.75px" xmlns="http://www.w3.org/2000/svg">
  <g transform="matrix(1.0, 0.0, 0.0, 1.0, 82.9, 61.45)">
    <path d="M72.4 5.8 Q82.5 21.45 82.1 31.4 80.7 42.3 68.45 45.85 62.25 47.1 61.1 43.3 59.65 38.4 60.2 32.05 57.15 34.35 52.35 35.7 L46.85 36.15 Q36.25 35.95 33.35 26.5 23.4 32.9 11.85 23.25 9.45 27.9 3.2 30.8 -7.4 34.75 -18.1 28.55 L-18.9 29.75 Q-21.4 38.05 -30.8 44.15 -37.05 45.85 -41.5 45.0 -38.05 55.85 -45.95 60.25 -56.05 64.55 -66.1 52.75 -68.4 53.6 -71.25 53.65 -83.1 52.45 -82.9 36.15 -82.25 22.35 -72.95 14.35 -87.2 -4.6 -64.1 -19.2 -58.2 -22.95 -52.5 -23.9 -51.55 -36.45 -33.6 -40.6 -26.65 -41.45 -20.35 -37.9 L-20.2 -37.8 -20.4 -37.95 -20.25 -38.05 -20.25 -38.3 -20.3 -38.95 Q-20.9 -41.8 -20.2 -45.1 -18.25 -56.8 -2.5 -60.55 15.65 -64.85 30.1 -48.1 42.55 -32.8 43.55 -20.6 62.1 -42.2 79.9 -19.8 88.35 -1.05 72.4 5.8" fill="url(#gradient0)" fill-rule="evenodd" stroke="none"/>
  </g>
  <defs>
    <linearGradient gradientTransform="matrix(0.0, 0.1153, -0.1012, 0.0, 0.0, 88.15)" gradientUnits="userSpaceOnUse" id="gradient0" spreadMethod="pad" x1="-819.2" x2="819.2">
      <stop offset="0.0" stop-color="#fff23c" stop-opacity="0.0"/>
      <stop offset="0.3803921568627451" stop-color="#fff23c" stop-opacity="0.84705883"/>
      <stop offset="0.6039215686274509" stop-color="#fff23c" stop-opacity="0.8"/>
      <stop offset="1.0" stop-color="#fff23c" stop-opacity="0.0"/>
    </linearGradient>
  </defs>
</svg>
