<?xml version="1.0" encoding="UTF-8" standalone="no"?>
<svg xmlns:xlink="http://www.w3.org/1999/xlink" height="82.25px" width="60.5px" xmlns="http://www.w3.org/2000/svg">
  <g transform="matrix(1.0, 0.0, 0.0, 1.0, 30.25, 41.1)">
    <path d="M-30.25 -41.05 L-15.2 -40.55 Q8.25 -38.65 18.75 -23.55 L17.9 -27.15 Q24.5 -16.3 26.4 -8.7 28.25 -1.15 28.85 -1.1 34.0 28.5 20.3 41.15 27.2 22.15 25.1 3.8 16.8 1.1 10.65 -2.6 2.85 -7.45 -1.45 -13.9 0.8 -8.4 1.6 -2.6 3.5 11.3 -3.6 26.2 L-3.75 26.6 Q-4.45 28.9 -5.65 30.8 -5.55 -12.05 -30.25 -41.05" fill="#79f3ff" fill-rule="evenodd" stroke="none"/>
  </g>
</svg>
