<?xml version="1.0" encoding="UTF-8" standalone="no"?>
<svg xmlns:xlink="http://www.w3.org/1999/xlink" height="141.15px" width="133.05px" xmlns="http://www.w3.org/2000/svg">
  <g transform="matrix(1.0, 0.0, 0.0, 1.0, 1.0, 70.55)">
    <path d="M59.5 -59.6 Q58.5 -57.15 57.85 -54.2 54.8 -41.1 59.5 -19.4 61.7 -3.55 61.65 9.85 L61.6 13.4 Q60.65 48.9 43.15 65.8 53.0 60.95 59.85 49.8 L61.3 47.35 M57.85 -54.2 L53.95 -48.5 Q50.15 -50.8 47.1 -50.55 L47.1 -47.2 Q42.55 -46.75 39.7 -47.2 L38.25 -43.1 34.1 -45.6 31.6 -39.35 Q27.6 -21.55 30.25 9.85 L30.55 13.4 Q32.75 37.65 38.9 69.6 34.0 63.35 31.9 55.15 L34.05 68.05 31.25 67.7 Q24.25 66.7 18.75 64.95 15.35 63.9 12.5 62.55 5.65 50.25 4.65 37.2 5.25 49.85 8.1 63.2 -1.2 48.7 0.2 13.4 L0.35 9.85 Q1.35 -8.9 5.2 -33.2 7.2 -53.25 14.7 -61.5 M97.3 -69.55 Q109.85 -66.2 114.4 -51.6 125.0 -29.85 130.5 7.25 L130.7 9.85 130.9 13.4 Q132.4 45.3 116.9 61.8 125.3 45.7 124.7 29.0 123.7 49.0 114.15 59.8 109.4 61.15 104.85 61.9 95.05 63.4 86.7 62.1 96.15 52.1 97.85 39.5 93.4 55.6 81.3 63.35 L72.8 65.6 Q63.0 67.65 54.5 67.25 L50.05 66.95 Q55.3 61.65 59.85 49.8 M93.3 -46.5 Q91.3 -41.05 93.3 -32.35 99.05 -9.7 99.85 9.85 L99.95 13.4 Q100.15 26.45 98.15 38.1 L97.85 39.5 M104.85 61.9 Q113.0 56.35 117.6 41.65 M4.55 31.55 L4.65 37.2 M31.9 55.15 Q31.5 53.8 31.25 52.3 L30.6 48.35 M43.15 65.8 L42.7 65.95 41.85 66.35 M54.5 67.25 Q59.2 63.2 62.05 52.6 M10.0 47.55 Q12.25 56.25 18.75 64.95 M27.7 47.55 Q27.3 57.65 31.25 67.7 M72.8 65.6 Q87.8 57.55 93.95 37.45" fill="none" stroke="#000000" stroke-linecap="round" stroke-linejoin="round" stroke-width="2.0"/>
  </g>
</svg>
