<?xml version="1.0" encoding="UTF-8" standalone="no"?>
<svg xmlns:xlink="http://www.w3.org/1999/xlink" height="12.15px" width="78.95px" xmlns="http://www.w3.org/2000/svg">
  <g transform="matrix(1.0, 0.0, 0.0, 1.0, 67.4, 16.8)">
    <path d="M11.1 -14.15 Q11.75 -12.65 11.5 -11.2 11.25 -9.85 10.15 -9.4 9.1 -8.9 7.9 -9.65 6.65 -10.4 5.95 -11.8 5.35 -13.35 5.6 -14.8 5.9 -16.2 6.9 -16.6 7.95 -17.1 9.2 -16.35 10.45 -15.65 11.1 -14.15 M-62.3 -10.1 Q-62.7 -8.65 -63.75 -7.85 -64.65 -7.05 -65.7 -7.3 -66.7 -7.55 -67.2 -8.8 -67.6 -10.0 -67.25 -11.45 -66.8 -12.85 -65.9 -13.65 -64.85 -14.5 -63.8 -14.25 -62.8 -13.95 -62.4 -12.75 -61.9 -11.5 -62.3 -10.1 M-39.25 -8.15 Q-39.5 -6.5 -40.5 -5.45 -41.5 -4.5 -42.6 -4.7 -43.75 -4.85 -44.4 -6.15 -45.0 -7.4 -44.75 -9.0 -44.45 -10.65 -43.45 -11.65 -42.45 -12.65 -41.3 -12.5 -40.2 -12.35 -39.55 -11.0 -38.95 -9.75 -39.25 -8.15 M-11.3 -9.8 Q-10.85 -8.25 -11.35 -6.85 -11.85 -5.6 -13.0 -5.3 -14.05 -5.0 -15.2 -5.85 -16.25 -6.75 -16.7 -8.35 -17.1 -9.95 -16.65 -11.25 -16.15 -12.6 -15.0 -12.9 -13.9 -13.2 -12.8 -12.25 -11.7 -11.4 -11.3 -9.8" fill="#ffffff" fill-rule="evenodd" stroke="none"/>
  </g>
</svg>
