<?xml version="1.0" encoding="UTF-8" standalone="no"?>
<svg xmlns:xlink="http://www.w3.org/1999/xlink" height="47.15px" width="23.9px" xmlns="http://www.w3.org/2000/svg">
  <g transform="matrix(1.0, 0.0, 0.0, 1.0, 11.95, 23.6)">
    <path d="M-11.9 17.9 L-11.95 14.3 -11.65 1.6 Q-11.35 -5.35 -9.95 -13.35 -8.6 -21.35 -6.65 -23.5 -3.2 -24.25 5.0 -20.25 11.0 -16.6 11.95 -13.65 L11.95 -5.7 Q12.1 4.05 10.85 15.4 L9.9 21.3 9.45 23.55 Q10.5 15.65 2.95 13.55 -4.65 11.45 -9.2 17.25 L-11.9 17.9 M-4.2 2.3 L3.1 5.5 8.9 4.35 2.75 1.2 -4.2 2.3" fill="#434343" fill-rule="evenodd" stroke="none"/>
  </g>
</svg>
