<?xml version="1.0" encoding="UTF-8" standalone="no"?>
<svg xmlns:xlink="http://www.w3.org/1999/xlink" height="50.65px" width="41.05px" xmlns="http://www.w3.org/2000/svg">
  <g transform="matrix(1.0, 0.0, 0.0, 1.0, 0.0, 25.3)">
    <path d="M24.85 -23.8 L24.8 -23.9 27.4 -22.2 29.3 -20.7 32.5 -17.25 34.45 -14.8 35.45 -13.4 Q38.5 -8.65 36.75 -4.45 L35.3 -2.0 35.65 1.8 Q38.05 12.25 41.05 20.1 37.35 23.85 23.55 25.35 5.15 25.2 0.0 20.3 L3.85 10.1 Q5.0 3.55 2.9 -4.25 -0.9 -17.8 7.5 -23.75 L7.65 -23.85 10.1 -25.3 10.15 -25.2 Q12.5 -17.75 23.25 -16.9 26.35 -18.65 24.85 -23.75 L24.85 -23.8" fill="#bd3a3a" fill-rule="evenodd" stroke="none"/>
  </g>
</svg>
