<?xml version="1.0" encoding="UTF-8" standalone="no"?>
<svg xmlns:xlink="http://www.w3.org/1999/xlink" height="53.95px" width="42.2px" xmlns="http://www.w3.org/2000/svg">
  <g transform="matrix(1.0, 0.0, 0.0, 1.0, 21.1, 26.95)">
    <path d="M2.25 -4.8 Q3.85 -6.1 4.45 -7.1" fill="none" stroke="#262733" stroke-linecap="round" stroke-linejoin="round" stroke-width="1.0"/>
    <path d="M14.95 -4.2 Q18.95 -9.35 16.6 -13.95 L16.4 -14.35 16.15 -14.75 Q15.0 -17.05 13.35 -18.7 L7.35 -24.35 Q8.4 -20.65 5.95 -19.3 2.25 -17.05 -5.35 -20.35 -10.2 -26.0 -12.25 -25.95 L-14.9 -23.75 Q-14.25 -23.9 -12.0 -19.4 -11.15 -17.45 -11.15 -13.65 -11.2 -9.85 -13.7 -6.1 L-15.7 -2.45 Q-15.5 2.4 -16.15 6.8 L-20.1 21.4 Q-18.8 22.8 -15.5 24.4 -12.2 26.0 2.8 26.0 14.1 25.95 20.1 19.45 L14.95 -4.2" fill="none" stroke="#000000" stroke-linecap="round" stroke-linejoin="round" stroke-width="2.0"/>
    <path d="M16.4 -14.35 Q12.2 -18.9 7.55 -10.45 -0.8 -18.9 -6.7 -14.45 -9.65 -11.05 -6.55 -5.95 -0.45 2.8 9.7 9.35 L14.95 -4.2" fill="none" stroke="#19182c" stroke-linecap="round" stroke-linejoin="round" stroke-width="1.0"/>
  </g>
</svg>
