<?xml version="1.0" encoding="UTF-8" standalone="no"?>
<svg xmlns:xlink="http://www.w3.org/1999/xlink" height="15.6px" width="37.95px" xmlns="http://www.w3.org/2000/svg">
  <g transform="matrix(1.0, 0.0, 0.0, 1.0, 19.0, 7.8)">
    <path d="M16.15 -6.8 L17.25 -2.85 Q12.4 -2.45 0.6 -2.4 0.55 -1.15 0.0 0.1 L-0.45 1.0 0.4 2.65 18.3 1.8 18.95 6.25 0.55 7.25 0.3 7.8 -4.05 7.15 -16.05 6.25 -16.3 6.25 -16.3 6.15 -18.35 6.2 Q-19.85 3.75 -17.8 -0.6 -19.65 -4.6 -17.9 -7.8 -16.45 -7.45 -15.35 -6.8 L-14.8 -6.45 -3.1 -6.5 -1.1 -7.5 -0.5 -6.55 16.15 -6.8" fill="#ff5177" fill-rule="evenodd" stroke="none"/>
  </g>
</svg>
