<?xml version="1.0" encoding="UTF-8" standalone="no"?>
<svg xmlns:xlink="http://www.w3.org/1999/xlink" height="49.65px" width="41.05px" xmlns="http://www.w3.org/2000/svg">
  <g transform="matrix(1.0, 0.0, 0.0, 1.0, 20.5, 24.8)">
    <path d="M0.55 -17.5 Q5.15 -19.65 4.3 -24.8 9.0 -22.7 11.8 -17.35 14.4 -8.75 15.15 1.3 15.7 3.7 16.25 4.95 11.3 -5.25 -0.1 -17.95 L0.55 -17.5 M20.55 19.6 Q16.85 23.35 3.05 24.85 -15.35 24.7 -20.5 19.8 L-16.65 8.4 Q-15.5 3.05 -17.6 -4.75 -21.3 -17.85 -14.8 -22.9 3.8 -5.75 17.65 20.3 19.4 20.15 19.95 18.3 L20.55 19.6" fill="#414141" fill-rule="evenodd" stroke="none"/>
  </g>
</svg>
