<?xml version="1.0" encoding="UTF-8" standalone="no"?>
<svg xmlns:xlink="http://www.w3.org/1999/xlink" height="51.7px" width="42.25px" xmlns="http://www.w3.org/2000/svg">
  <g transform="matrix(1.0, 0.0, 0.0, 1.0, 21.1, 25.85)">
    <path d="M2.3 -13.8 Q4.4 -18.4 4.8 -22.85 9.15 -21.1 11.9 -18.7 L13.2 -17.45 Q15.2 -13.85 15.65 -10.65 17.25 -4.2 17.7 2.55 L17.75 3.15 20.15 22.75 Q-2.15 27.0 -20.1 22.75 L-17.8 16.7 -16.7 7.8 Q-20.6 -12.25 -15.35 -21.95 L-10.2 -24.85 -7.9 -23.1 Q-2.2 -18.55 2.3 -13.8 L-0.5 -8.7 Q-5.15 -1.7 -13.65 5.5 L-16.7 7.8 M-0.5 -8.7 L-15.35 -21.95 M-17.8 16.7 Q-10.55 12.7 -4.1 6.8 8.6 -4.7 11.9 -18.7" fill="none" stroke="#000000" stroke-linecap="round" stroke-linejoin="round" stroke-width="2.0"/>
  </g>
</svg>
