<?xml version="1.0" encoding="UTF-8" standalone="no"?>
<svg xmlns:xlink="http://www.w3.org/1999/xlink" height="54.9px" width="62.6px" xmlns="http://www.w3.org/2000/svg">
  <g transform="matrix(1.0, 0.0, 0.0, 1.0, 31.3, 27.45)">
    <path d="M-3.65 -23.45 L-3.1 -23.9 Q11.9 -31.2 24.75 -23.55 33.95 -18.1 30.25 -4.95 28.75 0.25 25.25 6.7 27.95 -0.05 28.0 -4.95 28.1 -11.9 22.8 -15.0 13.75 -20.05 5.7 -18.8 13.85 -8.15 10.6 2.7 6.8 10.25 -1.05 8.85 L-5.9 7.65 Q-9.6 6.45 -10.9 4.8 L-10.95 4.75 Q-15.1 1.6 -14.2 -7.05 -13.95 -9.0 -13.3 -10.9 L-13.8 -10.5 Q-23.8 -3.8 -24.5 4.4 -25.6 17.35 -22.6 27.45 -29.0 17.9 -30.7 10.05 -31.4 6.75 -31.25 3.8 -31.2 1.35 -30.7 -0.95 -28.45 -11.4 -17.55 -19.8 -10.6 -24.35 -3.65 -23.45 M-1.8 -14.6 Q-5.2 -11.55 -6.4 -8.45 -7.1 -6.75 -7.15 -5.0 L-7.05 -3.5 -5.75 -1.55 -3.05 0.1 Q2.25 2.4 4.4 -4.4 3.8 -11.1 -0.55 -13.9 L-1.8 -14.6" fill="#ff0000" fill-rule="evenodd" stroke="none"/>
  </g>
</svg>
