<?xml version="1.0" encoding="UTF-8" standalone="no"?>
<svg xmlns:xlink="http://www.w3.org/1999/xlink" height="65.9px" width="87.05px" xmlns="http://www.w3.org/2000/svg">
  <g transform="matrix(1.0, 0.0, 0.0, 1.0, 43.5, 32.95)">
    <path d="M-42.5 -5.55 L-40.7 -4.65 -39.55 -4.1 Q-21.45 4.25 1.2 1.5 10.65 0.35 16.6 -3.65 12.65 -7.0 8.1 -9.3 -4.4 -15.55 -22.15 -13.85 L-22.3 -13.85 -22.2 -13.9 Q-23.4 -14.4 -24.35 -15.0 -29.95 -18.45 -29.65 -23.15 -28.1 -30.3 -15.7 -31.6 -0.1 -33.4 15.05 -26.5 22.8 -22.95 28.75 -18.3 33.7 -14.5 36.45 -9.45 39.15 -4.45 37.5 -0.65 41.4 3.6 41.95 7.7 42.7 13.25 42.5 15.45 41.05 36.5 8.15 30.7 -18.25 23.85 -35.2 11.6 -13.7 21.2 9.75 22.0 18.45 21.4 23.25 17.1 25.6 15.0 27.0 12.0 L27.2 11.45 27.3 10.85 Q27.5 9.15 26.5 7.1 2.1 16.4 -39.55 -4.1 M16.6 -3.65 L18.1 -4.8 Q21.75 -9.4 19.65 -13.4 L18.75 -13.85 Q10.15 -18.1 -6.7 -17.95 -14.6 -17.95 -22.15 -13.9 L-22.15 -13.85 -22.2 -13.9 M19.65 -13.4 L18.3 -15.25 Q12.6 -22.0 -5.25 -25.85 -17.1 -27.75 -21.4 -22.95 -23.85 -20.2 -22.7 -15.65 L-22.15 -13.9 M37.5 -0.65 Q35.9 2.85 30.5 5.3 L26.5 7.1" fill="none" stroke="#000000" stroke-linecap="round" stroke-linejoin="round" stroke-width="2.0"/>
  </g>
</svg>
