<?xml version="1.0" encoding="UTF-8" standalone="no"?>
<svg xmlns:xlink="http://www.w3.org/1999/xlink" height="18.05px" width="94.15px" xmlns="http://www.w3.org/2000/svg">
  <g transform="matrix(1.0, 0.0, 0.0, 1.0, 47.6, 5.65)">
    <path d="M44.65 4.0 Q37.35 -1.25 41.2 -5.65 48.4 -1.85 45.9 3.9 45.6 4.65 44.65 4.0 M21.1 7.4 Q18.6 2.2 21.8 -0.35 27.85 3.7 22.4 7.95 21.65 8.55 21.1 7.4 M-8.0 10.85 Q-10.25 3.75 -4.95 -0.55 0.85 5.3 -5.2 11.6 -7.15 13.55 -8.0 10.85 M-47.4 3.3 Q-46.35 -1.2 -42.1 -2.9 -38.2 1.1 -44.9 5.1 -48.35 7.15 -47.4 3.3" fill="#ffffff" fill-rule="evenodd" stroke="none"/>
  </g>
</svg>
