<?xml version="1.0" encoding="UTF-8" standalone="no"?>
<svg xmlns:xlink="http://www.w3.org/1999/xlink" height="131.3px" width="130.2px" xmlns="http://www.w3.org/2000/svg">
  <g transform="matrix(1.0, 0.0, 0.0, 1.0, 65.1, 65.65)">
    <path d="M-36.1 -59.6 Q-20.45 -66.95 4.15 -65.4 22.4 -65.95 40.65 -57.1 57.1 -41.6 62.1 -22.95 69.7 5.5 58.2 30.55 L57.4 5.3 Q57.35 40.8 27.8 56.15 58.05 15.55 31.8 -33.55 35.8 -12.45 19.95 6.75 24.95 -11.65 13.95 -39.6 L14.55 -33.05 Q13.35 -9.5 1.75 8.25 L-11.6 35.35 Q-19.0 50.5 -19.0 65.65 -32.15 51.4 -38.0 38.6 L-38.45 37.55 -39.65 34.75 Q-43.9 24.4 -45.95 13.4 -42.4 36.25 -34.15 54.25 -63.5 39.2 -65.1 -0.3 -64.5 -39.6 -36.1 -59.6" fill="#00ccff" fill-rule="evenodd" stroke="none"/>
  </g>
</svg>
