<?xml version="1.0" encoding="UTF-8" standalone="no"?>
<svg xmlns:xlink="http://www.w3.org/1999/xlink" height="14.95px" width="95.8px" xmlns="http://www.w3.org/2000/svg">
  <g transform="matrix(1.0, 0.0, 0.0, 1.0, 83.0, 31.2)">
    <path d="M7.45 -31.2 Q14.65 -27.4 12.15 -21.65 11.85 -20.9 10.9 -21.55 3.6 -26.8 7.45 -31.2 M-58.05 -25.75 Q-54.15 -21.75 -60.85 -17.75 -64.3 -15.7 -63.35 -19.55 -62.3 -24.05 -58.05 -25.75 M-80.9 -19.35 Q-83.5 -18.65 -82.9 -21.4 -81.3 -28.7 -74.55 -29.75 -72.5 -21.8 -80.9 -19.35 M-30.15 -24.8 Q-24.15 -20.75 -29.55 -16.45 -30.3 -15.9 -30.9 -17.05 -33.4 -22.2 -30.15 -24.8 M-11.8 -26.65 Q-5.75 -22.6 -11.2 -18.35 -11.95 -17.75 -12.5 -18.9 -15.0 -24.1 -11.8 -26.65" fill="#ffffff" fill-rule="evenodd" stroke="none"/>
  </g>
</svg>
