<?xml version="1.0" encoding="UTF-8" standalone="no"?>
<svg xmlns:xlink="http://www.w3.org/1999/xlink" height="18.05px" width="97.7px" xmlns="http://www.w3.org/2000/svg">
  <g transform="matrix(1.0, 0.0, 0.0, 1.0, 49.15, 43.45)">
    <path d="M16.55 -38.15 Q22.6 -34.1 17.15 -29.85 16.4 -29.25 15.85 -30.4 13.35 -35.6 16.55 -38.15 M43.2 -43.45 Q50.4 -39.65 47.9 -33.9 47.6 -33.15 46.65 -33.8 39.35 -39.05 43.2 -43.45 M-43.65 -40.7 Q-39.75 -36.7 -46.45 -32.7 -49.9 -30.65 -48.95 -34.5 -47.9 -39.0 -43.65 -40.7 M-15.0 -38.35 Q-9.2 -32.5 -15.25 -26.2 -17.2 -24.25 -18.05 -26.95 -20.3 -34.05 -15.0 -38.35" fill="#ffffff" fill-rule="evenodd" stroke="none"/>
  </g>
</svg>
