<?xml version="1.0" encoding="UTF-8" standalone="no"?>
<svg xmlns:xlink="http://www.w3.org/1999/xlink" height="83.8px" width="119.3px" xmlns="http://www.w3.org/2000/svg">
  <g transform="matrix(1.0, 0.0, 0.0, 1.0, 59.1, 46.25)">
    <path d="M38.8 -22.75 Q37.95 -17.6 35.4 -12.45 38.4 -28.2 38.25 -35.05 39.6 -27.9 38.8 -22.75 M13.55 -19.0 Q9.85 -13.5 4.45 -8.2 16.6 -26.35 20.85 -34.75 17.25 -24.5 13.55 -19.0 M51.05 -10.6 Q49.8 -2.5 46.15 5.55 50.45 -19.15 49.4 -29.9 52.15 -18.65 51.05 -10.6 M57.35 -15.65 Q61.85 2.1 59.2 14.55 56.5 27.0 54.1 34.5 57.25 15.25 57.7 5.05 58.15 -5.2 57.0 -15.1 56.95 -15.7 57.35 -15.65 M51.8 25.3 Q50.45 30.45 46.3 35.1 52.8 21.25 53.15 13.7 53.05 20.45 51.8 25.3 M-12.85 -11.3 Q4.25 -27.2 9.8 -35.1 4.8 -25.25 -0.1 -20.55 -4.95 -15.9 -12.85 -11.3 M-31.15 -10.35 Q-10.55 -33.45 -4.3 -46.25 -8.1 -33.25 -13.0 -26.05 -17.9 -18.9 -31.15 -10.35 M-36.9 -33.4 Q-39.3 -20.65 -39.2 -15.7 -39.15 -10.8 -39.75 -3.95 -41.7 -15.5 -39.65 -23.55 -37.65 -31.7 -36.9 -33.4 M-58.85 3.05 Q-57.25 -11.05 -55.9 -13.4 -57.35 -6.45 -56.95 6.5 -56.45 19.4 -51.45 37.55 -60.4 17.1 -58.85 3.05 M-49.35 12.35 Q-49.35 11.1 -48.4 6.65 -46.35 20.05 -43.65 29.9 -43.3 31.1 -43.1 32.8 -48.8 23.7 -49.35 12.35" fill="#ffffff" fill-rule="evenodd" stroke="none"/>
  </g>
</svg>
