<?xml version="1.0" encoding="UTF-8" standalone="no"?>
<svg xmlns:xlink="http://www.w3.org/1999/xlink" height="15.8px" width="94.15px" xmlns="http://www.w3.org/2000/svg">
  <g transform="matrix(1.0, 0.0, 0.0, 1.0, 76.75, 18.55)">
    <path d="M12.05 -18.55 Q19.25 -14.75 16.75 -9.0 16.45 -8.25 15.5 -8.9 8.2 -14.15 12.05 -18.55 M-71.25 -15.8 Q-67.35 -11.8 -74.05 -7.8 -77.5 -5.75 -76.55 -9.6 -75.5 -14.1 -71.25 -15.8 M-7.35 -13.25 Q-1.3 -9.2 -6.75 -4.95 -7.5 -4.35 -8.05 -5.5 -10.55 -10.7 -7.35 -13.25 M-38.9 -3.55 Q-40.85 -1.6 -41.7 -4.3 -43.95 -11.4 -38.65 -15.7 -32.85 -9.85 -38.9 -3.55" fill="#ffffff" fill-rule="evenodd" stroke="none"/>
  </g>
</svg>
