<?xml version="1.0" encoding="UTF-8" standalone="no"?>
<svg xmlns:xlink="http://www.w3.org/1999/xlink" height="94.5px" width="131.25px" xmlns="http://www.w3.org/2000/svg">
  <g transform="matrix(1.0, 0.0, 0.0, 1.0, 65.65, 47.25)">
    <path d="M2.6 -32.7 L1.15 -27.15 Q-5.8 -1.4 -14.25 10.9 -16.1 13.6 -18.05 15.65 -13.55 14.65 -9.25 13.15 8.4 6.95 23.4 -7.45 31.45 -16.85 34.1 -28.0 36.1 -36.6 34.8 -46.25 M41.6 -12.7 Q42.25 -8.6 43.15 -4.8 L43.25 -4.4 Q46.95 10.6 55.45 20.9 L57.1 23.4 58.55 4.9 58.8 2.5 Q60.0 -15.05 49.85 -35.0 M-52.15 -4.0 Q-53.05 7.3 -50.65 15.95 -48.15 24.4 -42.55 30.15 -35.3 40.05 -10.9 46.25 -26.0 33.9 -31.1 14.15 L-31.4 12.8 Q-38.1 -14.85 -24.8 -43.0 M-58.3 -33.0 Q-67.7 -8.8 -63.15 8.05 -58.6 24.7 -46.15 37.1 -48.4 34.6 -50.65 15.95 M50.05 -40.2 Q68.55 -13.85 63.5 19.5 61.0 37.6 47.4 40.45 54.0 34.3 55.45 20.9 M-31.1 14.15 Q-5.85 -5.0 1.15 -27.15 M43.25 -4.4 Q44.5 1.2 44.3 6.3 32.35 -7.95 34.1 -28.0" fill="none" stroke="#000000" stroke-linecap="round" stroke-linejoin="round" stroke-width="2.0"/>
  </g>
</svg>
