<?xml version="1.0" encoding="UTF-8" standalone="no"?>
<svg xmlns:xlink="http://www.w3.org/1999/xlink" height="148.65px" width="182.8px" xmlns="http://www.w3.org/2000/svg">
  <g transform="matrix(1.0, 0.0, 0.0, 1.0, 91.4, 74.3)">
    <path d="M26.6 -61.85 Q32.7 -66.75 39.4 -68.2 L40.45 -65.9 61.75 -64.4 Q80.35 -56.35 88.5 -40.1 98.15 11.15 75.45 54.0 77.35 41.0 77.2 18.75 73.85 28.7 67.8 37.75 75.2 13.45 70.6 -16.15 69.0 -26.6 61.3 -40.3 54.4 -41.4 48.0 -38.7 52.2 -2.8 26.95 34.85 29.95 27.05 31.7 7.75 29.9 14.8 26.3 19.85 27.75 6.3 26.6 -17.5 L25.9 -36.65 Q14.35 -19.25 7.8 -2.8 9.3 -21.2 15.3 -39.6 4.8 -19.1 -9.8 3.15 -36.55 50.15 -43.6 74.35 -47.7 50.45 -43.5 38.1 -52.15 47.0 -56.5 54.2 -54.1 36.55 -44.25 17.65 -51.75 28.9 -72.6 35.75 -62.25 29.45 -46.65 9.5 -64.15 21.2 -91.4 18.9 -55.05 -0.9 -27.4 -32.95 0.25 -65.0 19.25 -74.3 20.95 -70.65 26.6 -61.85" fill="#54c2be" fill-rule="evenodd" stroke="none"/>
  </g>
</svg>
