<?xml version="1.0" encoding="UTF-8" standalone="no"?>
<svg xmlns:xlink="http://www.w3.org/1999/xlink" height="19.75px" width="108.65px" xmlns="http://www.w3.org/2000/svg">
  <g transform="matrix(1.0, 0.0, 0.0, 1.0, 68.0, 31.6)">
    <path d="M35.3 -31.6 Q42.5 -27.8 40.0 -22.05 39.7 -21.3 38.75 -21.95 31.45 -27.2 35.3 -31.6 M16.45 -25.6 Q21.75 -22.05 17.0 -18.35 16.35 -17.85 15.85 -18.85 13.7 -23.35 16.45 -25.6 M-50.45 -24.8 Q-44.65 -18.95 -50.7 -12.65 -52.65 -10.7 -53.5 -13.4 -55.75 -20.5 -50.45 -24.8 M-62.5 -27.15 Q-58.6 -23.15 -65.3 -19.15 -68.75 -17.1 -67.8 -20.95 -66.75 -25.45 -62.5 -27.15 M-4.25 -26.05 Q0.1 -19.2 -4.95 -15.45 -5.55 -14.95 -6.1 -16.0 -9.75 -24.2 -4.25 -26.05" fill="#ffffff" fill-rule="evenodd" stroke="none"/>
  </g>
</svg>
