<?xml version="1.0" encoding="UTF-8" standalone="no"?>
<svg xmlns:xlink="http://www.w3.org/1999/xlink" height="145.35px" width="117.75px" xmlns="http://www.w3.org/2000/svg">
  <g transform="matrix(1.0, 0.0, 0.0, 1.0, 58.85, 72.65)">
    <path d="M2.05 -59.65 Q15.6 -60.95 38.75 -55.55 55.05 -41.3 57.85 -24.45 60.55 -6.6 56.15 12.6 L55.35 15.95 Q49.85 36.95 50.25 63.55 47.55 60.5 45.6 57.0 42.4 51.45 41.1 44.7 39.1 34.75 40.1 22.35 40.6 16.0 41.9 9.0 42.2 -12.1 36.55 -21.95 30.85 -31.85 12.2 -38.75 L12.75 -37.1 Q15.05 -27.7 13.0 -17.75 11.35 -9.45 6.85 -0.75 L4.45 3.65 Q-4.55 19.6 -14.15 29.4 -25.1 40.45 -29.15 50.05 -33.25 59.6 -35.5 72.7 L-36.75 71.45 Q-43.85 63.95 -53.05 40.35 L-56.35 29.8 Q-57.55 23.6 -58.15 17.7 -60.95 -8.8 -52.3 -28.75 -37.6 -59.2 -18.85 -72.65 L-13.5 -71.85 Q-4.1 -66.8 2.05 -59.65" fill="url(#gradient0)" fill-rule="evenodd" stroke="none"/>
  </g>
  <defs>
    <linearGradient gradientTransform="matrix(0.0, 0.0764, -0.0719, 0.0, 0.05, 27.9)" gradientUnits="userSpaceOnUse" id="gradient0" spreadMethod="pad" x1="-819.2" x2="819.2">
      <stop offset="0.0" stop-color="#fff23c" stop-opacity="0.0"/>
      <stop offset="0.3803921568627451" stop-color="#fff23c" stop-opacity="0.84705883"/>
      <stop offset="0.6039215686274509" stop-color="#fff23c" stop-opacity="0.8"/>
      <stop offset="1.0" stop-color="#fff23c" stop-opacity="0.0"/>
    </linearGradient>
  </defs>
</svg>
