<?xml version="1.0" encoding="UTF-8" standalone="no"?>
<svg xmlns:xlink="http://www.w3.org/1999/xlink" height="58.2px" width="122.2px" xmlns="http://www.w3.org/2000/svg">
  <g transform="matrix(1.0, 0.0, 0.0, 1.0, 71.65, 19.75)">
    <path d="M4.9 -3.8 L4.8 -0.35 4.6 2.85 Q4.35 5.85 1.2 12.15 -1.95 18.35 -6.85 23.15 -1.55 14.85 0.55 5.6 2.7 -4.25 4.15 -17.3 4.95 -7.5 4.9 -3.8 M16.2 -17.5 Q17.5 -12.85 18.15 -7.15 L18.35 -5.4 18.4 -3.3 Q18.4 0.25 17.6 2.8 15.05 10.6 11.05 15.6 15.6 7.2 16.4 -1.75 17.1 -9.95 16.2 -17.5 M47.9 12.25 Q48.75 22.55 41.1 36.65 44.5 27.2 45.45 17.35 46.65 4.7 40.4 -11.55 46.85 -0.8 47.9 12.25 M46.0 -13.15 Q44.0 -16.2 41.05 -18.6 43.3 -17.25 45.65 -14.75 47.9 -12.5 50.55 -5.0 L46.0 -13.15 M36.8 -1.55 Q34.9 -11.75 29.45 -19.75 34.0 -15.2 37.5 -7.1 39.35 -2.9 39.4 5.0 L39.15 11.15 Q38.75 16.4 37.8 22.85 38.7 8.5 36.8 -1.55 M23.15 -14.45 Q26.4 -10.25 28.9 -4.05 31.5 1.75 30.95 17.45 29.8 6.15 28.35 -0.8 26.9 -7.8 23.15 -14.45 M-56.4 -13.8 Q-63.0 -7.05 -66.45 1.85 -69.85 10.75 -70.6 31.3 -73.75 9.5 -67.65 -0.3 -61.6 -10.15 -56.4 -13.8 M-24.95 -0.35 L-24.9 1.4 Q-24.9 6.4 -26.15 9.6 -29.1 17.25 -33.35 22.0 -28.4 13.95 -27.0 5.05 -25.75 -3.2 -26.85 -13.55 -25.2 -6.05 -24.95 -0.35 M-12.55 -3.2 Q-11.55 1.2 -11.55 4.65 L-11.75 7.6 Q-13.25 16.3 -16.6 22.05 -13.25 12.65 -13.6 2.9 -14.0 -6.1 -17.15 -16.9 -13.95 -9.2 -12.55 -3.2 M-38.5 10.45 Q-40.6 17.4 -43.4 22.25 -40.2 14.45 -39.6 6.45 -39.0 -1.1 -40.45 -10.4 -38.05 -1.8 -37.9 4.35 L-37.9 5.1 Q-37.9 8.2 -38.5 10.45 M-60.15 8.05 Q-55.1 -1.65 -50.2 -5.75 -56.25 1.5 -58.9 10.7 -61.55 19.8 -61.15 38.45 -65.2 17.7 -60.15 8.05 M-48.1 4.15 Q-45.15 -2.45 -41.6 -7.05 -45.75 0.1 -47.75 7.7 -49.75 15.25 -51.95 27.5 -51.05 10.45 -48.1 4.15" fill="#ffffff" fill-rule="evenodd" stroke="none"/>
  </g>
</svg>
