<?xml version="1.0" encoding="UTF-8" standalone="no"?>
<svg xmlns:xlink="http://www.w3.org/1999/xlink" height="123.95px" width="139.6px" xmlns="http://www.w3.org/2000/svg">
  <g transform="matrix(1.0, 0.0, 0.0, 1.0, 69.8, 61.95)">
    <path d="M48.15 -28.7 L48.15 -28.75 Q45.9 -12.45 26.85 -2.3 L24.5 -1.15 Q30.55 -12.55 34.7 -26.95 24.2 -3.25 -9.8 1.35 -2.5 -5.6 2.6 -20.45 -4.2 -3.45 -36.35 10.0 -35.8 30.35 -29.35 45.05 -36.75 43.05 -39.1 38.6 -32.55 54.45 -22.85 62.0 -42.15 58.65 -50.4 47.9 -65.55 40.35 -68.75 19.4 -71.95 -1.6 -65.35 -22.15 -58.75 -42.7 -38.75 -51.2 -10.15 -63.95 18.4 -61.55 37.65 -59.25 45.75 -55.15 61.75 -50.55 67.5 -31.15 75.5 -3.95 55.8 11.8 60.25 -2.4 48.15 -28.7" fill="url(#gradient0)" fill-rule="evenodd" stroke="none"/>
  </g>
  <defs>
    <linearGradient gradientTransform="matrix(0.0, 0.1004, -0.0852, 0.0, 0.0, 50.4)" gradientUnits="userSpaceOnUse" id="gradient0" spreadMethod="pad" x1="-819.2" x2="819.2">
      <stop offset="0.0" stop-color="#fff23c" stop-opacity="0.0"/>
      <stop offset="0.3803921568627451" stop-color="#fff23c" stop-opacity="0.84705883"/>
      <stop offset="0.6039215686274509" stop-color="#fff23c" stop-opacity="0.8"/>
      <stop offset="1.0" stop-color="#fff23c" stop-opacity="0.0"/>
    </linearGradient>
  </defs>
</svg>
