<?xml version="1.0" encoding="UTF-8" standalone="no"?>
<svg xmlns:xlink="http://www.w3.org/1999/xlink" height="161.25px" width="97.3px" xmlns="http://www.w3.org/2000/svg">
  <g transform="matrix(1.0, 0.0, 0.0, 1.0, 48.65, 80.6)">
    <path d="M-11.9 -80.3 L2.35 -79.9 Q27.5 -74.7 38.1 -55.55 52.6 -32.3 47.15 2.85 44.6 21.35 29.75 51.95 27.85 54.75 27.15 56.4 L26.6 58.15 Q26.15 58.8 26.0 59.45 24.8 64.0 22.4 69.45 L20.55 73.4 16.65 80.65 Q23.25 59.45 18.15 41.2 13.05 22.9 -3.8 2.85 -20.65 -17.2 -30.9 -39.85 -19.1 -6.3 6.75 29.1 -40.8 -18.45 -47.2 -44.35 -50.05 -55.9 -47.3 -63.25 -45.3 -68.6 -40.4 -71.8 -28.15 -79.55 -11.9 -80.3" fill="url(#gradient0)" fill-rule="evenodd" stroke="none"/>
  </g>
  <defs>
    <linearGradient gradientTransform="matrix(0.0, 0.0973, -0.0594, 0.0, 0.0, 38.15)" gradientUnits="userSpaceOnUse" id="gradient0" spreadMethod="pad" x1="-819.2" x2="819.2">
      <stop offset="0.0" stop-color="#fff23c" stop-opacity="0.0"/>
      <stop offset="0.3803921568627451" stop-color="#fff23c" stop-opacity="0.84705883"/>
      <stop offset="0.6039215686274509" stop-color="#fff23c" stop-opacity="0.8"/>
      <stop offset="1.0" stop-color="#fff23c" stop-opacity="0.0"/>
    </linearGradient>
  </defs>
</svg>
