<?xml version="1.0" encoding="UTF-8" standalone="no"?>
<svg xmlns:xlink="http://www.w3.org/1999/xlink" height="18.05px" width="120.4px" xmlns="http://www.w3.org/2000/svg">
  <g transform="matrix(1.0, 0.0, 0.0, 1.0, 56.5, 53.5)">
    <path d="M39.15 -48.2 Q45.2 -44.15 39.75 -39.9 39.0 -39.3 38.45 -40.45 35.95 -45.65 39.15 -48.2 M62.0 -43.85 Q54.7 -49.1 58.55 -53.5 65.75 -49.7 63.25 -43.95 62.95 -43.2 62.0 -43.85 M-56.3 -44.55 Q-55.25 -49.05 -51.0 -50.75 -47.1 -46.75 -53.8 -42.75 -57.25 -40.7 -56.3 -44.55 M-27.85 -48.4 Q-22.05 -42.55 -28.1 -36.25 -30.05 -34.3 -30.9 -37.0 -33.15 -44.1 -27.85 -48.4" fill="#ffffff" fill-rule="evenodd" stroke="none"/>
  </g>
</svg>
