<?xml version="1.0" encoding="UTF-8" standalone="no"?>
<svg xmlns:xlink="http://www.w3.org/1999/xlink" height="138.55px" width="147.0px" xmlns="http://www.w3.org/2000/svg">
  <g transform="matrix(1.0, 0.0, 0.0, 1.0, 73.5, 69.25)">
    <path d="M29.45 -29.95 Q31.1 -16.45 26.4 -4.05 25.75 -13.8 18.8 -34.05 22.65 -15.25 14.0 2.1 L12.0 -17.55 Q12.15 -2.4 6.65 14.55 0.65 5.85 -4.0 -1.55 -7.15 -6.55 -8.0 -10.0 L-6.75 0.4 Q-23.4 -20.2 -26.25 -38.15 -30.45 -19.25 -28.85 -10.4 -36.9 -19.85 -33.35 -35.2 -47.2 -10.65 -44.6 12.35 -49.0 2.45 -50.05 -6.4 -54.9 24.25 -48.5 43.9 -54.35 41.05 -56.1 35.2 -49.5 59.05 -40.25 67.35 -74.8 43.6 -73.45 5.85 -72.35 -24.85 -60.6 -39.85 -23.4 -67.6 11.15 -65.85 37.4 -58.75 60.55 -69.25 56.2 -54.8 38.15 -57.1 48.9 -53.55 56.4 -43.95 68.25 -28.75 73.5 -27.2 65.2 -26.9 56.95 -31.6 62.5 -23.15 63.8 -4.05 65.05 15.05 68.15 19.7 59.1 15.35 57.95 4.7 58.4 16.25 55.85 27.35 52.75 37.9 47.05 48.15 L48.5 35.25 Q42.4 54.1 29.8 69.3 37.85 53.4 41.05 25.65 37.2 32.5 30.65 37.7 35.4 16.5 36.15 -1.05 35.65 -15.1 29.45 -29.95" fill="#8ef7aa" fill-rule="evenodd" stroke="none"/>
  </g>
</svg>
