<?xml version="1.0" encoding="UTF-8" standalone="no"?>
<svg xmlns:xlink="http://www.w3.org/1999/xlink" height="127.1px" width="188.5px" xmlns="http://www.w3.org/2000/svg">
  <g transform="matrix(1.0, 0.0, 0.0, 1.0, 94.25, 63.55)">
    <path d="M10.45 -50.15 Q4.0 -56.45 0.5 -57.1 -8.35 -53.3 -17.2 -45.25 -27.35 -31.65 -39.65 3.6 -41.6 9.2 -43.7 14.4 -55.75 45.3 -61.15 50.75 -24.1 31.7 -5.25 1.55 L-2.15 -4.7 2.2 -13.35 Q5.45 -20.5 8.05 -28.1 M23.75 -34.55 Q23.7 -28.75 22.35 -23.25 L20.4 -4.7 Q24.5 -17.1 28.5 -30.75 M16.1 -52.85 Q33.35 -60.2 42.25 -62.55 48.35 -55.05 50.8 -45.45 60.9 -43.15 64.6 -37.85 81.15 2.65 93.25 5.8 78.1 8.4 69.2 0.1 74.8 29.9 54.1 62.55 59.25 33.35 50.8 -16.5 L50.8 -16.6 49.85 -12.25 Q34.55 18.3 8.75 41.4 L-0.7 49.25 Q10.1 26.45 20.4 -4.7 M50.8 -16.6 Q54.0 -32.85 50.8 -45.45 M69.2 0.1 Q68.5 -7.2 66.95 -15.05 M-17.2 -45.25 Q-23.8 -49.3 -33.45 -47.6 -41.65 -41.15 -58.5 -22.6 -75.35 -4.05 -93.25 3.0 -66.75 7.8 -49.65 -1.6 -46.5 -3.35 -43.65 -5.35 M-5.25 1.55 L-12.8 16.75 Q16.55 -0.25 22.35 -23.25 M-49.65 -1.6 Q-52.6 1.0 -58.5 10.9 -64.4 20.8 -71.2 26.2 -50.5 23.85 -43.7 14.4" fill="none" stroke="#000000" stroke-linecap="round" stroke-linejoin="round" stroke-width="2.0"/>
  </g>
</svg>
