<?xml version="1.0" encoding="UTF-8" standalone="no"?>
<svg xmlns:xlink="http://www.w3.org/1999/xlink" height="94.5px" width="151.25px" xmlns="http://www.w3.org/2000/svg">
  <g transform="matrix(1.0, 0.0, 0.0, 1.0, 38.8, 57.45)">
    <path d="M53.8 -57.45 Q66.05 -46.25 67.3 -37.8 L70.0 -17.95 Q66.25 -34.45 62.95 -41.55 59.1 -49.85 53.55 -56.95 53.25 -57.35 53.8 -57.45 M42.75 -22.4 Q43.6 -11.05 44.9 1.45 L45.6 11.8 Q41.05 -0.4 41.5 -11.0 42.0 -21.6 42.75 -22.4 M96.55 -19.15 Q102.75 -13.95 109.65 -8.85 110.45 -8.25 110.55 -7.35 103.0 -10.3 96.8 -17.5 96.15 -18.35 96.55 -19.15 M74.8 -38.4 Q92.65 -12.75 94.35 0.05 96.1 12.8 96.25 21.1 94.65 7.8 89.65 -6.1 84.65 -20.05 74.8 -38.4 M106.05 4.0 Q108.85 11.6 112.25 19.5 112.65 20.4 112.3 21.25 107.25 14.95 105.5 5.6 105.3 4.5 106.05 4.0 M101.45 24.95 Q101.7 14.6 99.5 3.35 97.25 -7.9 96.4 -9.5 101.4 -1.15 101.6 8.75 101.8 18.65 101.45 24.95 M44.05 33.0 Q58.35 -7.1 62.3 -31.5 62.65 -6.3 56.05 12.35 55.1 14.9 44.05 33.0 M10.7 10.4 Q4.2 21.55 -2.85 27.35 6.15 16.7 10.8 2.65 15.45 -11.4 19.0 -31.9 17.25 -0.7 10.7 10.4 M-26.2 -4.4 Q-31.3 -2.15 -38.8 -1.0 -21.15 -8.85 -14.8 -13.95 -18.8 -9.45 -22.35 -6.85 L-26.2 -4.4 M-22.45 17.9 Q-25.25 24.9 -31.9 33.85 -22.1 9.65 -21.15 0.6 -20.55 7.2 -21.2 12.35 -21.65 15.4 -22.45 17.9 M-14.4 37.05 Q-12.65 5.85 -6.1 -5.25 0.4 -16.4 7.45 -22.2 -1.55 -11.55 -6.2 2.5 -10.85 16.55 -14.4 37.05" fill="#ffffff" fill-rule="evenodd" stroke="none"/>
  </g>
</svg>
