<?xml version="1.0" encoding="UTF-8" standalone="no"?>
<svg xmlns:xlink="http://www.w3.org/1999/xlink" height="104.75px" width="153.0px" xmlns="http://www.w3.org/2000/svg">
  <g transform="matrix(1.0, 0.0, 0.0, 1.0, 76.5, 52.35)">
    <path d="M76.5 -2.0 Q66.95 -13.75 51.15 -25.75 63.15 -3.25 58.3 30.6 L47.15 -5.75 Q48.95 22.2 37.25 41.8 38.9 29.35 32.05 4.8 30.25 13.0 28.2 28.65 L22.35 -9.75 Q21.5 8.15 24.15 28.9 15.0 7.1 13.35 -7.25 13.45 5.85 19.2 27.95 -13.0 8.95 -23.05 -21.4 -22.45 -6.05 -16.1 6.4 -32.55 -8.9 -36.75 -28.2 -38.25 -12.25 -35.0 2.15 -44.55 -8.1 -47.95 -20.3 -54.0 1.75 -55.5 23.85 L-55.5 25.05 Q-59.35 18.6 -59.9 11.45 -58.55 40.5 -52.85 52.4 -59.1 46.45 -62.95 41.8 -80.1 18.2 -75.55 -11.0 -74.7 -17.8 -72.55 -24.6 -66.25 -36.9 -49.8 -44.35 -11.7 -56.1 25.9 -50.6 38.65 -50.55 54.25 -37.4 69.85 -24.25 76.5 -2.0" fill="url(#gradient0)" fill-rule="evenodd" stroke="none"/>
  </g>
  <defs>
    <linearGradient gradientTransform="matrix(0.0, 0.077, -0.0934, 0.0, 0.0, 36.4)" gradientUnits="userSpaceOnUse" id="gradient0" spreadMethod="pad" x1="-819.2" x2="819.2">
      <stop offset="0.0" stop-color="#fff23c" stop-opacity="0.0"/>
      <stop offset="0.3803921568627451" stop-color="#fff23c" stop-opacity="0.84705883"/>
      <stop offset="0.6039215686274509" stop-color="#fff23c" stop-opacity="0.8"/>
      <stop offset="1.0" stop-color="#fff23c" stop-opacity="0.0"/>
    </linearGradient>
  </defs>
</svg>
