<?xml version="1.0" encoding="UTF-8" standalone="no"?>
<svg xmlns:xlink="http://www.w3.org/1999/xlink" height="90.3px" width="179.4px" xmlns="http://www.w3.org/2000/svg">
  <g transform="matrix(1.0, 0.0, 0.0, 1.0, 89.7, 45.15)">
    <path d="M26.3 -45.15 Q35.2 -28.45 35.45 -17.35 35.7 -6.2 35.45 -5.1 L35.15 -3.15 35.0 -0.85 Q35.2 17.2 26.45 34.0 L26.45 26.05 26.85 24.55 Q30.0 12.1 31.25 1.6 33.05 -24.3 26.3 -45.15 M40.8 -30.0 L42.5 -24.4 Q46.15 -14.2 53.5 -6.45 57.3 -2.45 62.1 0.9 L65.95 3.4 66.15 3.55 Q73.05 7.6 81.75 10.55 L83.8 14.5 Q86.5 19.55 89.55 22.75 L89.7 22.9 Q80.25 24.25 72.5 17.35 L73.95 20.6 Q77.35 28.4 82.85 35.4 55.55 22.4 50.85 -1.8 L50.0 -4.55 49.1 -7.85 51.0 10.55 49.5 8.45 Q42.8 -1.65 41.8 -10.9 L41.7 -11.85 42.0 -17.25 Q41.9 -16.4 41.4 -22.45 L41.4 -22.55 Q41.2 -26.95 40.5 -31.0 L40.8 -30.0 M-50.6 20.25 L-50.15 20.0 -50.6 20.2 -50.6 20.25 M-16.2 -2.05 L-12.8 -5.1 -10.65 -7.2 -6.55 -11.4 Q-3.6 -14.6 -0.85 -17.95 L-0.8 -17.5 -0.8 -16.2 -0.8 -12.4 Q-3.4 6.35 -14.65 19.75 -11.65 12.2 -8.75 -8.7 -11.0 2.0 -15.7 10.95 -18.95 17.35 -23.6 22.85 L-19.75 6.55 Q-26.7 24.7 -48.7 39.6 -44.4 31.3 -42.1 25.55 -39.85 19.75 -33.7 11.0 L-27.2 6.7 Q-22.5 3.3 -18.25 -0.35 L-16.2 -2.05 M-32.0 -29.05 L-25.95 -33.55 Q-31.7 -25.25 -36.5 -15.1 -46.45 6.55 -58.05 21.05 L-60.95 24.55 -58.25 23.5 -57.9 23.3 -49.85 19.85 -45.3 17.6 Q-39.45 14.55 -34.05 11.2 -38.8 18.95 -44.35 25.55 L-50.45 32.45 -54.7 36.55 -57.15 38.65 -63.7 43.85 -65.7 45.15 -57.8 33.0 -56.3 30.4 Q-61.55 35.75 -74.8 37.3 -70.45 33.35 -67.9 29.45 -65.4 25.55 -64.25 23.3 L-63.35 21.6 Q-72.7 27.9 -88.15 25.15 L-89.7 24.85 Q-77.05 18.4 -72.8 10.5 L-67.25 0.1 -61.75 -4.85 Q-47.3 -17.75 -32.0 -29.05 M68.65 -23.35 L76.15 -15.05 79.0 -3.7 77.4 -6.5 70.2 -19.4 70.2 -19.5 68.65 -23.35" fill="#76e7d1" fill-rule="evenodd" stroke="none"/>
  </g>
</svg>
