<?xml version="1.0" encoding="UTF-8" standalone="no"?>
<svg xmlns:xlink="http://www.w3.org/1999/xlink" height="33.9px" width="83.65px" xmlns="http://www.w3.org/2000/svg">
  <g transform="matrix(1.0, 0.0, 0.0, 1.0, 41.6, -3.25)">
    <path d="M34.95 3.25 Q42.9 5.05 41.95 11.25 41.85 12.1 40.75 11.7 32.35 8.5 34.95 3.25 M17.6 13.4 Q24.5 15.8 20.3 21.3 19.75 22.05 18.9 21.1 15.15 16.7 17.6 13.4 M-8.3 20.1 Q-1.2 24.3 -5.45 31.95 -6.8 34.35 -8.3 31.95 -12.3 25.7 -8.3 20.1 M-38.1 27.5 Q-33.25 30.3 -38.7 35.95 -41.5 38.8 -41.6 34.85 -41.75 30.25 -38.1 27.5" fill="#ffffff" fill-rule="evenodd" stroke="none"/>
  </g>
</svg>
