<?xml version="1.0" encoding="UTF-8" standalone="no"?>
<svg xmlns:xlink="http://www.w3.org/1999/xlink" height="68.5px" width="65.2px" xmlns="http://www.w3.org/2000/svg">
  <g transform="matrix(1.0, 0.0, 0.0, 1.0, 32.5, 35.65)">
    <path d="M-21.9 -35.2 Q-10.05 -33.45 -1.2 -30.3 13.55 -25.0 21.2 -14.25 36.1 6.2 31.7 32.85 L26.2 31.3 26.2 29.45 Q24.7 28.45 21.15 27.4 17.85 26.35 12.35 25.25 12.1 20.25 9.65 14.4 10.1 19.05 8.85 24.8 L6.5 24.5 -0.4 23.65 -3.6 23.25 Q-3.8 18.3 -6.35 8.55 -6.4 17.1 -7.9 22.85 -9.85 22.0 -14.2 21.85 L-28.85 22.65 -30.3 4.45 -32.5 -35.65 -21.9 -35.2" fill="#ffffff" fill-rule="evenodd" stroke="none"/>
  </g>
</svg>
