<?xml version="1.0" encoding="UTF-8" standalone="no"?>
<svg xmlns:xlink="http://www.w3.org/1999/xlink" height="130.3px" width="158.15px" xmlns="http://www.w3.org/2000/svg">
  <g transform="matrix(1.0, 0.0, 0.0, 1.0, 79.05, 65.15)">
    <path d="M-22.65 -7.05 Q-24.95 1.0 -35.75 7.95 -47.6 18.7 -39.45 27.6 -31.15 36.7 -29.35 43.45 -23.3 65.8 -51.5 64.0 -42.65 59.85 -43.9 53.2 -45.2 47.95 -60.75 44.4 -78.85 38.8 -72.1 24.8 L-69.65 19.75 Q-67.25 13.25 -73.85 9.2 -83.9 -0.85 -69.9 -10.3 -55.9 -19.8 -42.9 -35.6 -28.6 -53.85 -13.2 -60.55 L-11.75 -61.1 Q4.9 -67.4 13.45 -60.6 L15.05 -59.2 Q24.95 -60.65 37.85 -55.3 55.3 -45.4 54.45 -30.75 56.6 -22.25 62.1 -12.75 74.1 -0.15 67.6 13.9 60.85 28.45 71.2 33.95 76.25 35.1 78.1 32.1 77.1 39.55 70.35 41.4 63.55 43.25 58.3 35.75 L58.35 38.2 Q59.95 54.75 71.35 56.6 51.95 60.75 48.65 45.15 47.25 35.0 51.2 20.65 52.55 4.15 48.35 -6.05 44.75 1.25 34.95 7.95 38.1 1.15 37.05 -12.5 35.6 -2.3 27.1 3.35 18.05 10.85 25.55 21.85 18.45 20.3 17.6 13.9 18.9 33.35 2.7 40.0 6.6 30.9 -0.25 18.0 -5.15 5.15 0.15 -6.15 L-2.25 -4.1 Q-6.6 -0.5 -9.45 2.9 -16.75 11.5 -14.15 18.9 L-16.85 16.45 Q-26.2 6.95 -22.65 -7.05 L-22.55 -7.45 Q-19.8 -17.6 -10.35 -30.1 M0.15 -6.15 Q13.15 -17.85 18.0 -32.9 24.55 -50.05 15.05 -59.2 M37.05 -12.5 Q37.6 -16.3 37.15 -20.75 M48.35 -6.05 Q54.65 -19.1 41.25 -34.15 M36.15 -23.2 Q35.35 -37.95 22.75 -52.75 M-25.85 -30.95 Q-33.45 -15.45 -40.45 -9.0 M64.65 3.8 Q65.7 20.55 59.35 31.15 58.4 33.3 58.3 35.75 M17.6 13.9 L16.95 8.7 M-7.85 -32.55 Q6.8 -55.3 -4.05 -61.15 M-41.85 26.8 Q-56.8 15.15 -41.5 -5.8 M16.35 5.7 Q16.15 -3.0 12.55 -11.75" fill="none" stroke="#000000" stroke-linecap="round" stroke-linejoin="round" stroke-width="2.0"/>
  </g>
</svg>
