<?xml version="1.0" encoding="UTF-8" standalone="no"?>
<svg xmlns:xlink="http://www.w3.org/1999/xlink" height="134.2px" width="125.6px" xmlns="http://www.w3.org/2000/svg">
  <g transform="matrix(1.0, 0.0, 0.0, 1.0, 62.8, 67.1)">
    <path d="M-38.15 -11.7 Q-53.65 4.0 -61.8 21.75 -57.45 -11.7 -33.7 -38.2 -14.0 -57.45 -2.65 -60.6 4.1 -61.9 7.6 -56.75 15.55 -65.0 28.25 -66.1 38.6 -64.2 42.55 -55.6 44.95 -58.3 50.75 -60.95 56.5 -57.25 58.75 -49.2 69.5 -11.25 42.05 10.95 45.4 5.45 48.1 -8.1 41.7 14.45 26.45 27.35 33.5 15.05 38.3 -11.8 24.65 26.05 -18.6 35.1 -13.1 27.4 -5.7 12.4 -13.2 26.0 -24.5 33.65 L-14.65 14.35 Q-32.2 34.65 -39.45 54.9 -39.7 35.65 -33.3 16.95 -47.85 44.45 -53.6 65.95 L-53.6 66.1 Q-57.25 20.65 -38.15 -11.7 L-37.9 -12.1 Q-32.2 -21.6 -24.55 -29.95 M48.1 -8.1 Q49.25 -13.9 50.25 -21.1 M38.3 -11.8 Q39.75 -19.9 41.0 -29.35 M-33.3 16.95 L-33.05 16.15 Q-27.95 1.45 -18.75 -12.9 M-5.7 12.4 L-5.6 12.2 Q-0.7 2.35 4.95 -10.65 M-14.65 14.35 L-6.85 -0.95" fill="none" stroke="#000000" stroke-linecap="round" stroke-linejoin="round" stroke-width="2.0"/>
  </g>
</svg>
