<?xml version="1.0" encoding="UTF-8" standalone="no"?>
<svg xmlns:xlink="http://www.w3.org/1999/xlink" height="14.75px" width="94.15px" xmlns="http://www.w3.org/2000/svg">
  <g transform="matrix(1.0, 0.0, 0.0, 1.0, 98.15, 40.35)">
    <path d="M-89.65 -40.35 Q-83.95 -36.25 -93.9 -32.75 -98.25 -31.3 -98.15 -33.3 -98.25 -33.9 -97.8 -34.7 -96.15 -39.1 -89.65 -40.35 M-44.5 -35.8 Q-38.95 -31.05 -44.75 -26.2 -45.6 -25.6 -46.2 -25.6 -47.15 -25.6 -47.6 -26.85 -49.9 -32.6 -44.5 -35.8 M-7.4 -37.15 Q-4.05 -35.15 -4.0 -32.7 -4.05 -31.85 -4.4 -30.9 -4.6 -30.45 -5.2 -30.9 -10.0 -34.45 -7.4 -37.15 M-21.15 -34.45 Q-16.65 -31.5 -20.7 -28.65 -21.3 -28.25 -21.7 -29.05 -23.7 -32.8 -21.15 -34.45" fill="#ffffff" fill-rule="evenodd" stroke="none"/>
  </g>
</svg>
