<?xml version="1.0" encoding="UTF-8" standalone="no"?>
<svg xmlns:xlink="http://www.w3.org/1999/xlink" height="111.4px" width="74.45px" xmlns="http://www.w3.org/2000/svg">
  <g transform="matrix(1.0, 0.0, 0.0, 1.0, 65.35, 82.0)">
    <path d="M-12.15 -40.75 L2.7 -31.15 9.1 -26.75 Q6.55 -27.25 4.25 -28.15 -1.6 -30.2 -5.95 -34.2 -12.0 -39.7 -12.15 -40.75 M-40.35 -66.6 Q-43.15 -65.3 -46.65 -65.3 -37.3 -69.4 -33.15 -73.5 -35.5 -69.9 -37.95 -68.1 L-40.35 -66.6 M-26.6 -67.8 Q-29.8 -64.25 -34.75 -62.15 -23.85 -73.65 -20.4 -82.0 -21.6 -75.45 -24.05 -71.35 -25.35 -69.3 -26.6 -67.8 M-17.4 -58.05 Q-22.9 -56.15 -30.05 -56.35 -11.6 -61.9 -4.0 -67.05 -8.8 -62.45 -13.0 -60.05 -15.3 -58.85 -17.4 -58.05 M-8.7 -52.35 Q-3.0 -51.25 3.1 -47.5 -15.65 -51.9 -24.5 -51.7 -18.35 -52.85 -13.5 -52.8 L-8.7 -52.35 M-61.75 -65.3 L-64.75 -57.4 Q-64.95 -56.9 -65.35 -56.75 -65.05 -60.9 -62.5 -64.95 -62.25 -65.4 -61.75 -65.3 M-41.35 -15.8 Q-40.05 -13.0 -40.05 -9.5 -44.15 -18.85 -48.25 -23.0 -44.65 -20.65 -42.85 -18.2 L-41.35 -15.8 M-15.0 5.05 Q-14.0 15.4 -16.05 29.4 -19.2 -6.4 -23.85 -20.5 -19.0 -10.9 -16.7 -3.2 -15.45 1.25 -15.0 5.05 M-28.65 -4.4 Q-26.35 5.75 -26.75 19.9 -34.2 -15.3 -40.5 -28.65 -34.55 -19.8 -31.3 -12.4 -29.5 -8.15 -28.65 -4.4 M-5.3 -13.95 Q-3.6 -8.2 -3.05 0.05 -8.65 -19.8 -12.6 -27.1 -9.1 -22.45 -7.05 -18.35 -5.95 -16.0 -5.3 -13.95" fill="#ffffff" fill-rule="evenodd" stroke="none"/>
  </g>
</svg>
