<?xml version="1.0" encoding="UTF-8" standalone="no"?>
<svg xmlns:xlink="http://www.w3.org/1999/xlink" height="119.65px" width="147.25px" xmlns="http://www.w3.org/2000/svg">
  <g transform="matrix(1.0, 0.0, 0.0, 1.0, 73.6, 59.8)">
    <path d="M56.3 -32.15 Q59.8 -15.4 72.6 -20.3 72.4 -13.55 64.0 -12.55 76.1 -4.0 73.05 7.15 70.85 14.85 62.65 19.0 59.45 27.85 64.65 29.45 62.95 33.05 57.4 31.95 66.65 42.35 51.85 54.0 50.75 57.3 48.5 59.85 L47.25 58.15 Q40.4 58.4 39.65 50.1 45.4 46.1 49.2 41.4 54.2 33.0 52.3 24.95 52.0 13.3 53.05 3.5 51.3 1.65 48.75 0.35 39.8 -4.8 38.55 -13.7 37.3 -27.55 34.9 -32.35 31.8 -41.8 26.95 -40.1 21.2 -37.15 24.75 -19.45 L25.15 -17.55 Q26.45 -10.7 22.85 -4.7 13.9 8.45 -5.75 9.25 L-9.1 10.2 Q-12.65 11.95 -17.3 12.6 -27.1 13.7 -30.75 21.05 -32.85 28.65 -28.7 36.25 L-32.7 35.0 Q-34.55 36.6 -39.85 33.85 -35.55 37.55 -37.1 45.35 -41.0 56.2 -48.5 57.75 L-48.75 58.15 Q-50.25 59.7 -53.45 59.4 -57.85 58.45 -56.95 51.55 -60.4 55.55 -64.75 56.0 -58.35 47.75 -64.75 39.45 -72.9 28.75 -71.4 14.9 -78.1 -0.3 -64.35 -16.45 -60.65 -27.85 -50.95 -39.15 -35.0 -58.1 -6.85 -59.65 17.25 -60.9 28.35 -50.3 52.2 -49.4 56.3 -32.15" fill="#565263" fill-rule="evenodd" stroke="none"/>
    <path d="M-64.35 -16.45 Q-60.65 -27.85 -50.95 -39.15 -35.0 -58.1 -6.85 -59.65 17.25 -60.9 28.35 -50.3 52.2 -49.4 56.3 -32.15" fill="none" stroke="#000000" stroke-linecap="round" stroke-linejoin="round" stroke-width="0.05"/>
  </g>
</svg>
