<?xml version="1.0" encoding="UTF-8" standalone="no"?>
<svg xmlns:xlink="http://www.w3.org/1999/xlink" height="82.15px" width="74.85px" xmlns="http://www.w3.org/2000/svg">
  <g transform="matrix(1.0, 0.0, 0.0, 1.0, 37.45, 41.05)">
    <path d="M34.95 -30.7 Q35.7 -28.5 36.15 -25.75 L36.2 -25.55 Q36.9 -21.75 37.2 -17.05 L37.2 -16.65 37.4 -11.25 Q37.4 -2.0 35.35 5.85 L34.95 7.25 34.75 8.0 Q27.9 30.55 3.25 41.1 L9.8 34.05 Q2.2 37.15 -5.15 36.55 L-5.2 36.55 Q-12.5 36.0 -19.65 31.8 L-20.35 31.45 Q-27.05 27.35 -33.65 20.05 L-37.45 15.55 -30.25 16.1 Q-12.5 6.2 0.55 -18.15 8.6 -33.75 16.65 -38.7 20.2 -40.9 23.8 -41.05 29.45 -41.05 32.75 -35.7 34.05 -33.65 34.95 -30.7" fill="#42f0ce" fill-rule="evenodd" stroke="none"/>
  </g>
</svg>
