<?xml version="1.0" encoding="UTF-8" standalone="no"?>
<svg xmlns:xlink="http://www.w3.org/1999/xlink" height="38.15px" width="40.95px" xmlns="http://www.w3.org/2000/svg">
  <g transform="matrix(1.0, 0.0, 0.0, 1.0, 20.45, 19.1)">
    <path d="M-18.8 -8.5 Q-0.25 -30.1 17.55 -7.7 26.0 11.05 10.05 17.9 L7.1 19.0 Q2.65 19.3 -0.2 18.1 -2.15 13.6 -5.3 9.05 L-4.8 7.75 Q-1.85 -0.05 2.65 -0.8 7.4 -1.4 9.05 1.1 10.3 2.85 8.0 4.3 1.7 5.65 3.15 9.95 4.45 13.2 7.9 11.9 16.65 8.75 13.55 1.6 11.45 -3.8 6.75 -5.0 -2.8 -3.35 -8.1 3.1 -10.95 -3.75 -3.95 -9.95 -9.45 -10.35 -14.95 -2.45 -19.5 4.65 -16.95 11.95 -21.45 3.8 -20.15 -3.15 -19.75 -5.7 -18.8 -8.5" fill="#ff7d8b" fill-rule="evenodd" stroke="none"/>
  </g>
</svg>
