<?xml version="1.0" encoding="UTF-8" standalone="no"?>
<svg xmlns:xlink="http://www.w3.org/1999/xlink" height="144.05px" width="177.1px" xmlns="http://www.w3.org/2000/svg">
  <g transform="matrix(1.0, 0.0, 0.0, 1.0, 88.55, 72.0)">
    <path d="M74.95 9.9 Q88.45 46.65 59.95 72.05 68.55 58.3 71.25 46.8 75.45 29.25 67.55 13.15 64.0 7.85 61.1 2.25 57.35 -4.95 54.35 -12.75 50.2 -26.0 45.65 -33.15 41.0 -36.6 35.1 -34.95 35.5 -35.8 39.05 -37.05 33.15 -37.7 28.4 -35.4 L31.7 -39.6 23.35 -36.15 Q21.85 -37.8 21.7 -39.4 20.95 -37.1 19.05 -36.2 L17.3 -38.1 Q12.25 -38.3 8.7 -40.1 9.15 -38.25 11.15 -37.2 -1.55 -37.9 3.4 -35.4 -4.55 -34.7 -10.1 -26.5 L-23.35 -6.7 Q-31.0 4.9 -34.8 23.6 -38.9 43.55 -22.35 49.1 -35.4 52.6 -43.45 35.6 L-43.95 34.55 Q-49.9 59.65 -25.55 71.9 -31.35 71.6 -37.3 68.35 -42.55 65.4 -46.45 59.4 -48.4 56.45 -49.5 52.05 -48.0 59.95 -43.65 67.75 -54.9 54.1 -54.15 34.95 -53.05 17.25 -41.1 -1.4 -69.55 29.75 -55.85 44.4 -71.6 36.45 -62.6 19.75 -63.7 12.6 -62.55 2.95 L-62.15 1.05 Q-66.2 12.7 -73.95 20.0 L-72.3 15.65 Q-70.7 11.0 -69.9 6.4 -76.65 20.35 -88.55 24.8 -74.75 11.05 -70.5 -11.65 -68.65 -28.1 -57.95 -44.1 -31.45 -82.35 9.75 -68.15 46.65 -78.1 66.15 -41.85 72.5 -30.2 76.9 -7.05 78.05 -0.4 81.85 5.45 94.6 29.35 83.05 42.05 88.55 23.1 74.95 9.9 M19.25 -40.55 L20.2 -42.7 19.3 -44.7 18.65 -42.0 18.45 -41.25 19.15 -40.45 19.25 -40.55" fill="url(#gradient0)" fill-rule="evenodd" stroke="none"/>
  </g>
  <defs>
    <linearGradient gradientTransform="matrix(0.0, 0.1133, -0.1081, 0.0, 0.0, 50.55)" gradientUnits="userSpaceOnUse" id="gradient0" spreadMethod="pad" x1="-819.2" x2="819.2">
      <stop offset="0.0" stop-color="#fff23c" stop-opacity="0.0"/>
      <stop offset="0.3803921568627451" stop-color="#fff23c" stop-opacity="0.84705883"/>
      <stop offset="0.6039215686274509" stop-color="#fff23c" stop-opacity="0.8"/>
      <stop offset="1.0" stop-color="#fff23c" stop-opacity="0.0"/>
    </linearGradient>
  </defs>
</svg>
