<?xml version="1.0" encoding="UTF-8" standalone="no"?>
<svg xmlns:xlink="http://www.w3.org/1999/xlink" height="92.8px" width="133.1px" xmlns="http://www.w3.org/2000/svg">
  <g transform="matrix(1.0, 0.0, 0.0, 1.0, 66.55, 46.4)">
    <path d="M53.8 11.4 Q43.25 5.5 42.15 -2.45 43.0 6.2 45.1 12.9 29.8 -1.55 26.8 -16.0 26.1 5.85 5.3 20.25 L10.45 7.75 Q2.8 22.85 -15.05 33.05 -7.0 12.45 -4.4 -23.1 -17.45 -0.25 -44.75 11.7 -43.4 33.05 -35.75 46.4 -46.85 42.2 -49.8 34.5 -46.7 43.15 -43.85 46.25 -62.55 40.2 -65.95 20.65 -69.0 -5.5 -55.95 -22.15 -35.05 -39.25 -15.85 -43.7 4.8 -48.35 22.95 -44.95 32.4 -43.2 39.85 -41.0 47.75 -34.9 52.7 -27.5 68.8 -2.55 66.2 14.6 62.65 31.3 43.65 37.45 53.95 31.95 53.8 11.4" fill="url(#gradient0)" fill-rule="evenodd" stroke="none"/>
  </g>
  <defs>
    <linearGradient gradientTransform="matrix(0.0, 0.1106, -0.0812, 0.0, 0.0, 55.8)" gradientUnits="userSpaceOnUse" id="gradient0" spreadMethod="pad" x1="-819.2" x2="819.2">
      <stop offset="0.0" stop-color="#fff23c" stop-opacity="0.0"/>
      <stop offset="0.3803921568627451" stop-color="#fff23c" stop-opacity="0.84705883"/>
      <stop offset="0.6039215686274509" stop-color="#fff23c" stop-opacity="0.8"/>
      <stop offset="1.0" stop-color="#fff23c" stop-opacity="0.0"/>
    </linearGradient>
  </defs>
</svg>
