<?xml version="1.0" encoding="UTF-8" standalone="no"?>
<svg xmlns:xlink="http://www.w3.org/1999/xlink" height="15.6px" width="91.8px" xmlns="http://www.w3.org/2000/svg">
  <g transform="matrix(1.0, 0.0, 0.0, 1.0, 73.55, 28.75)">
    <path d="M13.95 -28.75 Q18.6 -24.5 18.2 -21.45 17.75 -18.45 13.95 -21.4 10.1 -24.35 13.95 -28.75 M-42.8 -26.75 Q-37.0 -20.9 -43.05 -14.6 -45.0 -12.65 -45.85 -15.35 -48.1 -22.45 -42.8 -26.75 M-68.05 -26.0 Q-64.15 -22.0 -70.85 -18.0 -74.3 -15.95 -73.35 -19.8 -72.3 -24.3 -68.05 -26.0 M-11.05 -26.85 Q-4.55 -20.35 -10.4 -13.45 -11.2 -12.55 -11.8 -14.4 -14.5 -22.8 -11.05 -26.85" fill="#ffffff" fill-rule="evenodd" stroke="none"/>
  </g>
</svg>
