<?xml version="1.0" encoding="UTF-8" standalone="no"?>
<svg xmlns:xlink="http://www.w3.org/1999/xlink" height="106.85px" width="137.8px" xmlns="http://www.w3.org/2000/svg">
  <g transform="matrix(1.0, 0.0, 0.0, 1.0, 68.9, 53.4)">
    <path d="M17.5 -53.4 L44.35 -48.05 Q57.2 -43.55 68.9 -47.1 65.6 -38.55 55.9 -36.3 69.55 -22.0 66.55 -5.25 62.8 -20.25 48.25 -30.25 55.0 -20.9 58.2 -12.8 60.45 -7.0 61.05 -1.8 62.3 12.3 50.25 21.8 46.5 24.8 41.4 27.3 44.05 16.45 44.3 5.5 33.0 -4.95 29.55 -18.0 30.8 6.25 15.4 15.85 18.55 7.05 17.85 -2.9 12.55 14.1 -3.6 17.75 3.2 -2.0 2.6 -23.85 L0.5 -25.15 Q-1.15 -5.4 -20.15 6.7 -11.0 -4.85 -11.9 -21.3 -15.75 5.15 -36.35 12.2 -32.05 0.2 -30.5 -12.1 -33.6 2.95 -43.5 12.15 -38.85 26.4 -26.55 34.6 L-38.7 34.2 Q-33.9 42.3 -25.25 47.45 -33.5 49.6 -40.35 43.6 -36.2 48.9 -30.8 53.45 -64.1 46.55 -68.7 10.45 -70.15 -14.0 -60.25 -28.4 -58.35 -29.85 -57.3 -31.05 L-57.1 -31.25 -56.9 -31.45 Q-27.0 -54.0 17.5 -53.4" fill="#232839" fill-rule="evenodd" stroke="none"/>
  </g>
</svg>
