<?xml version="1.0" encoding="UTF-8" standalone="no"?>
<svg xmlns:xlink="http://www.w3.org/1999/xlink" height="63.2px" width="131.6px" xmlns="http://www.w3.org/2000/svg">
  <g transform="matrix(1.0, 0.0, 0.0, 1.0, 89.65, 29.7)">
    <path d="M24.3 -26.3 Q36.65 -16.2 38.9 -8.8 41.05 -1.45 41.55 0.0 L41.95 1.35 Q31.55 -16.4 27.6 -21.25 23.65 -26.15 24.3 -26.3 M33.45 17.15 Q31.1 24.35 23.8 33.5 32.45 8.55 31.8 -1.85 35.75 9.9 33.45 17.15 M-49.3 -20.7 Q-48.35 -19.7 -47.65 -8.55 -47.05 2.55 -53.55 13.95 L-52.55 3.4 Q-50.6 -9.2 -49.3 -20.7 M-31.05 -28.2 Q-26.35 -21.55 -21.0 -14.85 -20.4 -14.05 -20.55 -13.15 -27.0 -17.95 -31.15 -26.5 -31.65 -27.45 -31.05 -28.2 M-85.65 -0.7 Q-88.1 12.05 -88.55 30.1 -91.5 3.3 -86.7 -7.3 -81.95 -17.85 -75.9 -24.0 -83.15 -13.4 -85.65 -0.7 M2.0 4.2 Q1.8 6.25 -2.8 21.95 -0.15 -10.75 -2.05 -29.7 3.2 -11.0 2.0 4.2" fill="#ffffff" fill-rule="evenodd" stroke="none"/>
  </g>
</svg>
