<?xml version="1.0" encoding="UTF-8" standalone="no"?>
<svg xmlns:xlink="http://www.w3.org/1999/xlink" height="85.8px" width="175.55px" xmlns="http://www.w3.org/2000/svg">
  <g transform="matrix(1.0, 0.0, 0.0, 1.0, 87.8, 42.9)">
    <path d="M11.65 -42.9 Q13.85 -29.25 19.55 -17.45 20.6 -23.9 19.55 -30.45 28.0 -20.5 32.55 -8.5 33.55 3.0 30.45 12.35 27.9 19.95 22.85 26.1 24.15 30.9 28.35 34.6 21.6 36.05 15.6 33.15 L15.3 33.0 11.65 30.65 Q7.35 33.0 1.4 34.15 4.05 27.95 5.6 21.8 3.2 17.2 1.35 12.35 -2.45 3.05 -4.5 -7.05 1.4 -25.0 11.65 -42.9 M68.3 21.1 Q68.3 20.15 68.8 19.5 69.25 18.8 69.95 18.8 70.65 18.8 71.1 19.5 71.6 20.15 71.6 21.15 71.6 22.15 71.1 22.8 70.65 23.5 69.95 23.5 69.25 23.5 68.8 22.8 68.3 22.15 68.3 21.1 M77.7 28.3 Q77.4 26.75 75.65 25.25 76.6 20.9 72.8 17.85 74.7 12.95 74.75 6.9 77.1 11.75 79.35 15.4 83.75 22.75 87.75 25.75 80.55 22.85 77.7 28.3 M70.0 33.8 Q73.0 32.35 76.25 32.8 75.7 35.9 75.85 40.1 72.2 41.95 67.45 42.9 69.55 38.4 70.0 33.8 M-87.8 15.25 L-72.25 -2.3 Q-70.95 2.95 -71.35 6.65 -73.6 8.4 -76.85 10.4 -76.05 11.8 -74.35 12.85 L-75.2 13.5 Q-79.35 16.25 -87.8 15.25 M-86.95 25.7 Q-86.05 24.95 -84.9 24.95 -83.7 24.95 -82.9 25.7 -82.05 26.5 -82.05 27.6 -82.05 28.7 -82.9 29.5 -83.7 30.3 -84.9 30.3 -86.05 30.3 -86.95 29.5 -87.8 28.7 -87.8 27.6 -87.8 26.5 -86.95 25.7" fill="#b6393e" fill-rule="evenodd" stroke="none"/>
  </g>
</svg>
