<?xml version="1.0" encoding="UTF-8" standalone="no"?>
<svg xmlns:xlink="http://www.w3.org/1999/xlink" height="141.35px" width="141.5px" xmlns="http://www.w3.org/2000/svg">
  <g transform="matrix(1.0, 0.0, 0.0, 1.0, 70.75, 70.65)">
    <path d="M-26.8 -56.3 Q-23.2 -59.6 -16.65 -57.95 -10.3 -71.6 9.6 -70.6 -5.0 -68.05 -11.2 -59.05 -7.0 -62.4 -0.8 -61.8 L9.5 -61.1 22.3 -61.5 22.8 -61.45 23.8 -61.35 24.05 -61.35 24.3 -61.25 25.0 -61.1 Q37.9 -58.95 49.85 -49.0 54.7 -42.05 55.15 -35.05 60.7 -27.8 65.0 -18.1 61.95 -22.15 58.05 -25.6 64.3 -17.65 66.3 -10.6 75.4 16.55 65.9 39.15 67.6 26.6 64.55 16.05 64.7 47.4 37.8 68.1 43.5 58.85 47.85 46.55 10.0 29.45 -2.4 -19.0 -1.85 4.0 -19.4 15.05 -13.1 7.15 -11.3 -4.9 -15.25 8.2 -25.75 17.45 -24.55 29.6 -18.8 40.9 -28.6 32.55 -33.2 22.45 -34.2 51.7 -21.2 70.7 -48.85 54.15 -48.85 14.35 L-50.75 8.65 Q-58.55 19.75 -70.75 20.75 -62.55 14.15 -60.2 -0.75 L-58.75 -7.55 Q-55.3 -25.75 -42.45 -40.7 -34.65 -50.8 -26.8 -56.3 M58.4 -7.85 L58.45 -7.35 59.3 -7.35 58.4 -7.85 M52.05 36.25 Q52.8 27.3 52.1 18.4 32.2 9.4 20.3 -4.95 26.25 25.6 48.45 45.2 50.5 40.85 52.05 36.25" fill="url(#gradient0)" fill-rule="evenodd" stroke="none"/>
  </g>
  <defs>
    <linearGradient gradientTransform="matrix(0.0, 0.1133, -0.0864, 0.0, 0.0, 53.35)" gradientUnits="userSpaceOnUse" id="gradient0" spreadMethod="pad" x1="-819.2" x2="819.2">
      <stop offset="0.0" stop-color="#fff23c" stop-opacity="0.0"/>
      <stop offset="0.3803921568627451" stop-color="#fff23c" stop-opacity="0.84705883"/>
      <stop offset="0.6039215686274509" stop-color="#fff23c" stop-opacity="0.8"/>
      <stop offset="1.0" stop-color="#fff23c" stop-opacity="0.0"/>
    </linearGradient>
  </defs>
</svg>
