<?xml version="1.0" encoding="UTF-8" standalone="no"?>
<svg xmlns:xlink="http://www.w3.org/1999/xlink" height="93.55px" width="163.8px" xmlns="http://www.w3.org/2000/svg">
  <g transform="matrix(1.0, 0.0, 0.0, 1.0, 55.75, 110.75)">
    <path d="M108.05 -17.2 Q77.35 -76.2 3.6 -84.85 L3.6 -110.0 Q37.95 -107.85 68.4 -83.15 103.65 -53.45 107.95 -18.1 L108.05 -17.2 M-27.1 -99.75 L-35.45 -99.5 Q-44.2 -98.55 -55.75 -94.65 -40.3 -111.95 -6.9 -110.65 L-6.9 -110.6 -5.65 -110.6 -5.65 -85.45 -12.7 -85.8 Q-12.0 -87.75 -11.95 -89.5 -11.85 -93.75 -16.1 -96.45 -18.15 -97.7 -21.1 -98.65 -23.8 -99.5 -27.1 -99.75" fill="url(#gradient0)" fill-rule="evenodd" stroke="none"/>
  </g>
  <defs>
    <linearGradient gradientTransform="matrix(0.0791, 0.0477, -0.0175, 0.0291, 42.9, -67.6)" gradientUnits="userSpaceOnUse" id="gradient0" spreadMethod="pad" x1="-819.2" x2="819.2">
      <stop offset="0.0" stop-color="#bdbdbd"/>
      <stop offset="1.0" stop-color="#f5f5f5"/>
    </linearGradient>
  </defs>
</svg>
