<?xml version="1.0" encoding="UTF-8" standalone="no"?>
<svg xmlns:xlink="http://www.w3.org/1999/xlink" height="84.9px" width="12.75px" xmlns="http://www.w3.org/2000/svg">
  <g transform="matrix(1.0, 0.0, 0.0, 1.0, 6.4, 42.45)">
    <path d="M-5.4 3.4 L-5.6 3.45 -5.5 2.7 -5.5 2.55 -5.5 2.4 -5.5 -34.95 -5.65 -39.05 -5.65 -41.7 -5.6 -41.7 1.25 -35.5 1.3 -5.35 5.5 -8.65 5.55 -7.45 5.55 -4.6 5.6 -1.8 5.6 1.1 4.7 1.75 4.7 8.7 4.6 14.9 4.65 19.45 4.65 25.35 4.65 32.55 -4.75 41.7 -4.35 33.9 -3.45 32.85 -3.45 26.5 -3.5 22.05 -3.45 15.55 -3.5 7.45 -4.25 8.0 -4.25 5.1 -5.4 3.4 5.55 -4.6 M-3.5 7.45 L4.7 1.75 M4.6 14.9 L-3.5 22.05 M4.65 19.45 L-3.45 26.5 M-3.45 15.55 L4.7 8.7 M4.65 25.35 L-3.45 32.85" fill="none" stroke="#000000" stroke-linecap="round" stroke-linejoin="round" stroke-width="1.5"/>
    <path d="M-5.5 -34.95 L-1.75 -31.2 -1.75 0.25 M5.6 -1.8 L-3.05 4.2" fill="none" stroke="#000000" stroke-linecap="round" stroke-linejoin="round" stroke-opacity="0.5294118" stroke-width="1.0"/>
  </g>
</svg>
