<?xml version="1.0" encoding="UTF-8" standalone="no"?>
<svg xmlns:xlink="http://www.w3.org/1999/xlink" height="75.8px" width="101.35px" xmlns="http://www.w3.org/2000/svg">
  <g transform="matrix(1.0, 0.0, 0.0, 1.0, 50.7, 37.9)">
    <path d="M-44.55 -37.2 Q-43.6 -36.4 -43.2 -35.3 L-43.1 -34.65 -43.05 -34.35 20.45 10.9 20.5 11.6 21.05 13.45 Q18.7 15.55 17.55 17.3 L-45.15 -30.65 -46.25 -30.3 Q-47.8 -30.05 -49.1 -30.95 -50.4 -31.9 -50.65 -33.5 -50.9 -35.1 -49.95 -36.35 -48.95 -37.6 -47.4 -37.85 -45.8 -38.1 -44.55 -37.2 M49.85 35.3 Q46.75 39.85 42.5 36.45 L40.8 35.1 45.95 27.85 47.15 28.6 Q52.35 31.6 49.85 35.3 M28.4 17.4 L29.25 17.15 37.65 22.45 33.2 29.3 23.65 22.05 Q25.15 20.4 26.35 17.4 L28.4 17.4" fill="#ed8800" fill-rule="evenodd" stroke="none"/>
  </g>
</svg>
