<?xml version="1.0" encoding="UTF-8" standalone="no"?>
<svg xmlns:xlink="http://www.w3.org/1999/xlink" height="46.0px" width="32.55px" xmlns="http://www.w3.org/2000/svg">
  <g transform="matrix(1.0, 0.0, 0.0, 1.0, 19.4, 45.7)">
    <path d="M5.3 -3.6 L-1.75 -42.9 0.25 -43.6 7.2 -4.7 5.3 -3.6 M-11.05 -14.85 L-10.85 -14.8 Q-10.8 -14.7 -10.9 -14.65 L-11.05 -14.5 -11.3 -14.45 Q-11.35 -14.4 -11.4 -14.5 L-11.45 -14.65 -11.25 -14.8 -11.05 -14.85 M-14.9 -13.55 L-14.9 -13.75 -14.8 -13.95 -14.55 -13.9 -14.45 -13.8 -14.4 -13.6 -14.55 -13.45 -14.75 -13.45 -14.9 -13.55 M-11.8 -17.45 L-12.05 -17.4 -12.2 -17.45 -12.25 -17.65 -12.0 -17.8 -11.8 -17.85 -11.65 -17.75 -11.6 -17.6 -11.8 -17.45 M-17.9 -13.9 L-18.05 -13.9 -18.2 -14.0 -18.25 -14.2 -18.15 -14.35 -17.95 -14.4 -17.75 -14.3 -17.75 -14.1 -17.9 -13.9 M-19.2 -16.35 L-19.4 -16.35 -19.35 -16.6 -19.15 -16.75 -18.85 -16.85 -18.75 -16.75 -18.7 -16.6 -18.9 -16.35 -19.2 -16.35 M-15.65 -16.5 L-15.65 -16.7 -15.5 -16.9 -15.2 -17.0 -15.0 -16.9 -15.0 -16.65 -15.2 -16.45 Q-15.3 -16.35 -15.45 -16.35 L-15.65 -16.5 M-17.0 -18.8 L-16.7 -18.9 -16.5 -18.8 -16.5 -18.6 -16.7 -18.35 -17.0 -18.35 -17.15 -18.4 -17.2 -18.65 -17.0 -18.8 M-11.4 -19.75 L-11.6 -19.9 -11.6 -20.1 -11.5 -20.25 -11.3 -20.3 -11.1 -20.2 -11.1 -19.95 -11.2 -19.8 -11.4 -19.75 M-14.45 -20.2 L-14.15 -20.3 -14.0 -20.2 Q-13.95 -20.15 -14.05 -20.05 L-14.25 -19.85 -14.55 -19.75 -14.7 -19.8 -14.65 -20.0 -14.45 -20.2 M-9.75 -16.0 Q-9.9 -16.0 -9.95 -16.1 L-9.9 -16.3 -9.75 -16.45 -9.5 -16.5 -9.4 -16.4 -9.35 -16.2 -9.5 -16.05 -9.75 -16.0 M-5.85 -41.5 L-4.7 -41.9 0.9 -1.1 -1.45 0.3 Q-4.3 -19.6 -5.85 -41.5 M4.45 -45.1 L6.15 -45.7 13.15 -8.15 11.35 -7.1 4.45 -45.1" fill="#fff2a4" fill-rule="evenodd" stroke="none"/>
  </g>
</svg>
