<?xml version="1.0" encoding="UTF-8" standalone="no"?>
<svg xmlns:xlink="http://www.w3.org/1999/xlink" height="35.9px" width="13.25px" xmlns="http://www.w3.org/2000/svg">
  <g transform="matrix(1.0, 0.0, 0.0, 1.0, 6.6, 35.9)">
    <path d="M6.65 -15.5 Q6.65 -13.05 4.95 -11.35 3.25 -9.65 0.8 -9.65 -1.65 -9.65 -3.4 -11.35 -5.1 -13.05 -5.1 -15.5 -5.1 -17.95 -3.4 -19.7 -1.65 -21.4 0.8 -21.4 3.25 -21.4 4.95 -19.7 6.65 -17.95 6.65 -15.5 M5.65 -15.5 Q5.65 -17.55 4.25 -18.95 2.8 -20.4 0.8 -20.4 -1.2 -20.4 -2.65 -18.95 -4.1 -17.55 -4.1 -15.5 -4.1 -13.5 -2.65 -12.05 -1.2 -10.65 0.8 -10.65 2.8 -10.65 4.25 -12.05 5.65 -13.5 5.65 -15.5 M4.7 0.0 L-3.4 0.0 -2.8 -2.2 4.1 -2.2 4.7 0.0 M-6.35 -29.7 Q-7.35 -35.9 -4.25 -35.9 -1.1 -35.9 -2.1 -29.7 L-5.75 -29.7 -6.35 -29.7" fill="#00ffff" fill-rule="evenodd" stroke="none"/>
  </g>
</svg>
