<?xml version="1.0" encoding="UTF-8" standalone="no"?>
<svg xmlns:xlink="http://www.w3.org/1999/xlink" height="75.75px" width="50.05px" xmlns="http://www.w3.org/2000/svg">
  <g transform="matrix(1.0, 0.0, 0.0, 1.0, 0.0, 0.0)">
    <path d="M8.3 44.05 L9.9 46.4 Q10.95 47.85 12.15 49.0 L12.45 49.4 15.0 51.55 17.2 53.15 18.55 54.05 19.45 54.45 21.15 55.15 Q24.15 56.2 27.4 56.3 L28.75 56.3 32.35 55.9 Q34.25 55.25 35.8 54.4 L36.9 53.85 Q39.65 52.05 41.7 49.6 L42.7 48.05 Q42.9 47.55 43.25 47.2 L44.1 45.75 45.0 43.25 46.0 40.35 46.15 39.65 46.85 36.25 47.15 33.5 Q47.0 33.0 47.15 32.4 L46.7 27.6 46.55 26.45 46.05 24.6 45.25 21.6 44.85 20.55 42.85 16.25 42.35 15.05 40.3 12.2 Q39.2 10.7 37.95 9.55 35.95 7.55 33.6 6.05 L33.5 6.05 31.9 5.15 30.75 4.45 29.05 3.8 Q26.05 2.7 22.85 2.75 L21.6 2.8 18.05 3.4 Q16.15 3.85 14.6 4.75 L13.45 5.3 Q10.75 7.05 8.7 9.4 L7.45 10.9 6.9 11.85 5.95 13.65 Q4.55 16.1 3.9 18.8 3.45 20.65 3.3 22.3 3.05 24.0 3.05 25.7 L3.15 27.15 Q3.15 29.45 3.6 31.95 L3.75 32.85 4.5 36.0 5.2 37.75 5.45 38.75 Q6.45 41.2 7.75 43.3 L8.3 44.05 M34.4 75.75 Q27.75 63.75 16.75 56.8 9.15 51.15 5.2 44.8 -0.7 33.95 0.1 22.0 0.85 17.1 3.1 12.45 8.6 3.15 17.25 0.7 25.9 -1.65 35.45 3.75 39.9 6.4 42.8 10.35 49.7 20.1 50.05 32.55 49.8 40.15 46.1 48.7 40.3 60.45 40.9 74.1 L34.4 75.75 M24.65 59.15 Q32.65 64.8 37.5 74.85 36.6 63.7 40.7 54.9 37.85 56.65 32.95 58.3 L24.65 59.15" fill="#128022" fill-rule="evenodd" stroke="none"/>
  </g>
</svg>
