<?xml version="1.0" encoding="UTF-8" standalone="no"?>
<svg xmlns:xlink="http://www.w3.org/1999/xlink" height="73.9px" width="49.5px" xmlns="http://www.w3.org/2000/svg">
  <g transform="matrix(1.0, 0.0, 0.0, 1.0, 0.6, 36.95)">
    <path d="M30.15 -27.9 Q29.8 -29.25 30.0 -30.75 30.2 -32.25 31.0 -33.9 31.55 -35.05 32.45 -36.25 33.6 -35.55 34.4 -33.9 32.7 -33.65 31.0 -33.9 32.05 -33.4 33.9 -31.5 32.25 -30.6 30.0 -30.75 31.95 -30.35 33.75 -28.75 32.25 -27.95 30.15 -27.9" fill="#ffffff" fill-rule="evenodd" stroke="none"/>
    <path d="M22.4 -26.95 L23.95 -28.25 M31.0 -33.9 Q32.7 -33.65 34.4 -33.9 33.6 -35.55 32.45 -36.25 M30.0 -30.75 Q32.25 -30.6 33.9 -31.5 32.05 -33.4 31.0 -33.9 M30.15 -27.9 Q32.25 -27.95 33.75 -28.75 31.95 -30.35 30.0 -30.75" fill="none" stroke="#000000" stroke-linecap="round" stroke-linejoin="round" stroke-width="1.0"/>
    <path d="M25.4 -26.75 Q24.15 -26.7 23.35 -26.1 22.65 -25.65 22.3 -25.05 20.7 -22.55 25.15 -18.5 29.2 -24.9 34.15 -21.6 35.4 -20.65 34.35 -19.0 30.9 -14.5 25.15 -18.5 M30.15 -27.9 Q29.8 -29.25 30.0 -30.75 30.2 -32.25 31.0 -33.9 31.55 -35.05 32.45 -36.25 21.65 -35.1 17.2 -23.95 L16.65 -21.4 Q16.1 -18.45 16.05 -16.65 L16.05 -15.5 16.25 -13.0 16.7 -9.3 17.15 -6.25 Q17.5 -4.1 18.1 -1.95 19.15 2.45 20.65 6.9 L20.8 7.3 20.95 7.65 22.7 12.25 Q25.6 19.1 29.6 26.3 25.05 31.3 22.9 36.15 L31.95 36.15 38.45 36.25 48.2 36.25 Q46.6 32.6 42.15 26.1 52.1 -8.25 45.25 -26.6 43.75 -30.35 39.1 -33.0 40.95 -28.3 40.65 -27.05 34.85 -25.65 30.15 -27.9 M16.65 -21.4 Q13.65 -21.3 9.25 -19.5 L9.9 -16.05 Q10.25 -14.15 10.75 -12.4 L12.0 -8.4 13.1 -5.55 Q14.05 -3.4 15.15 -1.35 17.5 3.0 20.65 6.9" fill="none" stroke="#000000" stroke-linecap="round" stroke-linejoin="round" stroke-width="1.4000000000000001"/>
    <path d="M10.75 -12.4 L16.25 -13.0 M9.9 -16.05 L16.05 -16.65 M13.1 -5.55 L17.15 -6.25 M12.0 -8.4 L16.7 -9.3 M15.15 -1.35 L18.1 -1.95" fill="none" stroke="#000000" stroke-linecap="round" stroke-linejoin="round" stroke-opacity="0.6" stroke-width="1.0"/>
    <path d="M31.95 36.15 L32.2 29.95 M17.5 -20.2 L22.3 -25.05 M22.7 12.25 L21.15 14.85 21.7 17.0 Q19.85 15.65 18.85 16.0 17.6 15.8 17.55 18.35 14.65 13.45 12.45 18.5 9.3 11.8 0.0 11.15 12.6 7.35 17.55 8.7 11.25 9.7 15.6 12.6 20.9 12.65 20.95 7.65 M38.45 36.25 L38.1 30.1 M35.5 7.4 Q49.8 -0.95 35.1 -6.95" fill="none" stroke="#000000" stroke-linecap="round" stroke-linejoin="round" stroke-width="1.2000000000000002"/>
  </g>
</svg>
