<?xml version="1.0" encoding="UTF-8" standalone="no"?>
<svg xmlns:xlink="http://www.w3.org/1999/xlink" height="30.25px" width="24.8px" xmlns="http://www.w3.org/2000/svg">
  <g transform="matrix(1.0, 0.0, 0.0, 1.0, 12.4, 15.15)">
    <path d="M3.6 13.2 Q0.8 12.95 -2.75 14.1 L-3.1 12.15 -3.3 11.05 -3.5 10.95 -3.75 10.85 Q-5.7 10.2 -7.05 10.45 L-8.3 10.65 Q-8.6 8.1 -11.4 5.5 L-9.15 4.95 -7.75 4.05 -7.0 3.35 -5.3 0.5 M-5.25 0.55 L-0.85 -14.15 Q3.7 -11.45 11.4 -11.85 L4.25 5.2 4.1 5.9 3.8 8.55 3.75 9.4 3.6 13.2" fill="none" stroke="#000000" stroke-linecap="round" stroke-linejoin="round" stroke-width="2.0"/>
    <path d="M-5.3 0.5 L-5.25 0.55 M3.6 13.2 L4.0 13.1" fill="none" stroke="#000000" stroke-linecap="round" stroke-linejoin="round" stroke-width="1.0"/>
  </g>
</svg>
