<?xml version="1.0" encoding="UTF-8" standalone="no"?>
<svg xmlns:xlink="http://www.w3.org/1999/xlink" height="18.15px" width="70.8px" xmlns="http://www.w3.org/2000/svg">
  <g transform="matrix(1.0, 0.0, 0.0, 1.0, 35.4, 9.05)">
    <path d="M32.8 -3.25 L32.8 -3.45 32.9 -6.3 Q33.05 -8.35 32.5 -8.5 31.85 -8.65 32.15 -8.95 L32.5 -9.0 Q33.8 -9.25 34.75 -8.2 35.6 -6.4 35.05 -4.75 L34.75 -4.2 34.7 -4.05 34.55 -3.9 34.3 -3.45 34.0 -3.25 33.7 -3.0 32.45 -2.2 32.45 -2.25 32.8 -3.25 M26.5 5.5 L26.5 5.4 Q26.35 4.95 26.5 3.7 L26.5 3.6 Q26.65 2.4 26.35 2.1 L26.2 2.1 Q25.8 2.05 25.95 1.9 L26.2 1.8 27.15 1.9 27.7 2.5 27.9 3.3 27.9 4.65 27.75 4.95 27.7 5.1 27.55 5.2 27.45 5.4 27.15 5.55 27.0 5.85 26.2 6.25 26.5 5.5 M-32.5 -8.85 L-32.15 -8.85 Q-30.65 -8.7 -29.5 -7.05 -28.55 -4.6 -29.15 -2.95 L-29.45 -2.4 -29.6 -2.25 -29.75 -2.1 -30.05 -1.75 -30.4 -1.5 -30.7 -1.35 Q-31.4 -0.9 -32.2 -0.9 L-32.2 -0.95 Q-31.9 -1.45 -31.85 -2.1 L-31.85 -2.35 -31.6 -5.5 Q-31.45 -7.9 -32.15 -8.25 -32.9 -8.7 -32.5 -8.85 M-23.75 4.45 L-23.35 5.5 Q-23.2 6.4 -23.5 7.15 L-23.65 7.45 -23.75 7.6 -23.9 7.65 -24.05 7.9 -24.35 8.05 -24.5 8.2 -25.45 8.4 -25.25 7.65 -25.25 7.5 -25.15 5.5 -25.15 5.4 Q-24.95 4.05 -25.3 3.7 L-25.45 3.6 -25.7 3.25 -25.45 3.25 Q-24.85 3.3 -24.35 3.7 L-23.75 4.45" fill="#beffaf" fill-opacity="0.7607843" fill-rule="evenodd" stroke="none"/>
    <path d="M32.15 -8.95 Q31.85 -8.65 32.5 -8.5 33.05 -8.35 32.9 -6.3 L32.8 -3.45 32.8 -3.25 Q30.55 -3.15 30.55 -6.6 L31.0 -7.65 Q31.15 -8.65 32.15 -8.95 M25.95 1.9 Q25.8 2.05 26.2 2.1 L26.35 2.1 Q26.65 2.4 26.5 3.6 L26.5 3.7 Q26.35 4.95 26.5 5.4 L26.5 5.5 Q25.0 5.55 25.0 3.4 L25.3 2.7 Q25.35 2.05 25.95 1.9 M-32.5 -8.85 Q-32.9 -8.7 -32.15 -8.25 -31.45 -7.9 -31.6 -5.5 L-31.85 -2.35 -31.85 -2.1 Q-34.4 -2.65 -34.4 -6.7 L-33.85 -7.9 Q-33.7 -8.95 -32.5 -8.85 M-25.7 3.25 L-25.45 3.6 -25.3 3.7 Q-24.95 4.05 -25.15 5.4 L-25.15 5.5 -25.25 7.5 -25.25 7.65 Q-26.9 7.2 -26.9 4.6 L-26.5 3.85 Q-26.45 3.1 -25.7 3.25" fill="#eeffef" fill-opacity="0.03137255" fill-rule="evenodd" stroke="none"/>
    <path d="M32.45 -2.2 L33.7 -3.0 34.0 -3.25 Q34.15 -2.95 34.45 -3.45 33.8 -1.65 32.45 -1.45 30.9 -1.2 30.55 -2.25 L31.3 -2.05 32.45 -2.2 M26.2 6.25 L27.0 5.85 27.15 5.55 Q27.3 5.8 27.55 5.35 27.1 6.75 26.2 6.85 25.2 7.0 25.0 6.25 L25.45 6.6 26.2 6.25 M-32.2 -0.9 Q-31.4 -0.9 -30.7 -1.35 L-30.4 -1.5 Q-30.25 -1.2 -29.8 -1.75 -30.55 0.25 -32.2 0.0 -33.95 -0.3 -34.4 -1.6 L-33.4 -0.95 -32.2 -0.9 M-25.45 8.4 L-24.5 8.2 -24.35 8.05 Q-24.2 8.25 -23.9 7.9 -24.4 9.25 -25.45 9.1 -26.6 8.85 -26.9 7.95 L-26.3 8.4 -25.45 8.4" fill="#000000" fill-opacity="0.16078432" fill-rule="evenodd" stroke="none"/>
    <path d="M32.8 -3.25 L32.45 -2.25 32.45 -2.2 31.3 -2.05 30.55 -2.25 Q29.2 -3.1 30.55 -6.6 30.55 -3.15 32.8 -3.25 M26.5 5.5 L26.2 6.25 25.45 6.6 25.0 6.25 Q24.1 5.7 25.0 3.4 25.0 5.55 26.5 5.5 M-31.85 -2.1 Q-31.9 -1.45 -32.2 -0.95 L-32.2 -0.9 -33.4 -0.95 -34.4 -1.6 Q-36.05 -3.15 -34.4 -6.7 -34.4 -2.65 -31.85 -2.1 M-25.25 7.65 L-25.45 8.4 -26.3 8.4 -26.9 7.95 Q-28.0 7.0 -26.9 4.6 -26.9 7.2 -25.25 7.65" fill="#c5ffc4" fill-opacity="0.4" fill-rule="evenodd" stroke="none"/>
    <path d="M32.45 -2.2 L33.7 -3.0 34.0 -3.25 34.3 -3.45 34.55 -3.9 34.7 -4.05 34.75 -4.2 35.05 -4.75 Q35.6 -6.4 34.75 -8.2 M31.0 -7.65 L30.55 -6.6 Q29.2 -3.1 30.55 -2.25 L31.3 -2.05 32.45 -2.2 M26.2 6.25 L27.0 5.85 27.15 5.55 27.45 5.4 27.55 5.2 27.7 5.1 27.75 4.95 27.9 4.65 27.9 3.3 27.7 2.5 M25.3 2.7 L25.0 3.4 Q24.1 5.7 25.0 6.25 L25.45 6.6 26.2 6.25 M-32.2 -0.9 Q-31.4 -0.9 -30.7 -1.35 L-30.4 -1.5 -30.05 -1.75 -29.75 -2.1 -29.6 -2.25 -29.45 -2.4 -29.15 -2.95 Q-28.55 -4.6 -29.5 -7.05 M-33.85 -7.9 L-34.4 -6.7 Q-36.05 -3.15 -34.4 -1.6 L-33.4 -0.95 -32.2 -0.9 M-24.35 8.05 L-24.05 7.9 -23.9 7.65 -23.75 7.6 -23.65 7.45 -23.5 7.15 Q-23.2 6.4 -23.35 5.5 L-23.75 4.45 M-25.45 8.4 L-24.5 8.2 -24.35 8.05 M-26.9 7.95 Q-28.0 7.0 -26.9 4.6 L-26.5 3.85 M-26.9 7.95 L-26.3 8.4 -25.45 8.4" fill="none" stroke="#174819" stroke-linecap="round" stroke-linejoin="round" stroke-opacity="0.12156863" stroke-width="0.30000000000000004"/>
  </g>
</svg>
