<?xml version="1.0" encoding="UTF-8" standalone="no"?>
<svg xmlns:xlink="http://www.w3.org/1999/xlink" height="19.15px" width="17.7px" xmlns="http://www.w3.org/2000/svg">
  <g transform="matrix(1.0, 0.0, 0.0, 1.0, 8.85, 9.6)">
    <path d="M3.15 3.05 Q3.15 2.8 2.95 2.7 L1.8 1.95 1.4 2.0 1.2 2.3 1.25 3.7 1.45 4.05 1.85 4.0 2.95 3.35 3.15 3.05 M-2.0 -0.25 L-2.9 -0.3 -3.8 0.0 -4.45 0.6 -4.85 1.4 -4.9 2.25 -4.65 3.15 -4.0 3.8 -3.25 4.2 -2.35 4.3 -1.5 4.0 -0.8 3.4 -0.4 2.55 -0.35 1.65 -0.65 0.85 -1.25 0.1 Q-1.6 -0.15 -2.0 -0.25 M4.8 -3.35 L4.05 -3.75 3.15 -3.8 2.3 -3.5 Q1.85 -3.3 1.6 -2.9 L1.2 -2.1 1.15 -1.25 1.45 -0.35 2.05 0.3 Q2.4 0.6 2.8 0.7 L3.7 0.8 4.6 0.5 5.25 -0.1 5.65 -0.95 5.7 -1.8 5.45 -2.65 4.8 -3.35 M1.75 -9.3 Q3.3 -8.9 4.6 -7.9 5.95 -6.9 6.8 -5.45 L8.75 -2.0 8.85 -1.7 8.8 -1.4 7.05 2.75 8.2 4.7 8.25 5.2 7.95 5.6 7.45 5.9 6.95 5.9 Q6.7 5.85 6.6 5.6 L6.1 4.8 Q6.05 4.65 5.85 4.65 L5.5 4.7 5.3 4.95 5.35 5.25 5.85 6.05 5.9 6.55 5.6 6.95 5.55 7.0 5.05 7.0 4.7 6.7 4.2 5.9 Q4.15 5.75 3.95 5.75 L3.6 5.75 3.6 5.8 3.35 6.05 3.4 6.35 3.9 7.15 3.95 7.65 3.65 8.1 3.6 8.1 3.1 8.15 2.75 7.85 2.25 7.05 Q2.2 6.9 2.0 6.85 L1.7 6.9 1.45 7.15 1.5 7.45 2.0 8.25 2.05 8.75 1.75 9.2 1.3 9.45 0.75 9.5 0.4 9.2 -0.75 7.25 -5.2 6.7 -5.55 6.6 -5.75 6.35 -7.7 2.9 Q-8.55 1.45 -8.8 -0.2 -9.0 -1.85 -8.5 -3.4 -8.1 -5.0 -7.1 -6.3 -6.1 -7.65 -4.65 -8.5 -3.15 -9.35 -1.5 -9.55 L1.75 -9.3" fill="#2eb45f" fill-rule="evenodd" stroke="none"/>
  </g>
</svg>
