<?xml version="1.0" encoding="UTF-8" standalone="no"?>
<svg xmlns:xlink="http://www.w3.org/1999/xlink" height="11.65px" width="14.55px" xmlns="http://www.w3.org/2000/svg">
  <g transform="matrix(1.0, 0.0, 0.0, 1.0, 7.25, 5.85)">
    <path d="M5.5 -3.8 Q5.3 -2.55 6.05 -2.0 6.9 -1.3 6.8 0.9 L6.75 1.8 Q6.8 3.5 5.45 4.15 3.85 4.55 3.7 2.5 L3.65 1.65 Q4.05 0.55 3.25 -0.7 L3.1 -1.05 Q2.6 -2.15 2.75 -3.25 L2.9 -4.05 Q3.1 -4.9 4.05 -5.1 5.7 -5.65 5.5 -3.8 M-2.3 -3.95 Q-1.95 -3.4 -2.4 -2.15 -2.8 -0.95 -2.45 0.0 -1.95 0.2 -1.85 0.85 -1.65 1.7 -2.1 3.5 -2.6 5.05 -3.55 5.25 -5.35 5.45 -6.25 4.15 L-6.6 3.45 Q-7.0 2.4 -6.45 1.6 -5.95 0.9 -6.05 -0.3 L-6.3 -1.3 Q-6.8 -1.95 -6.75 -3.05 L-6.4 -4.3 Q-5.85 -5.5 -4.4 -5.3 -2.3 -5.45 -2.3 -3.95" fill="none" stroke="#000000" stroke-linecap="round" stroke-linejoin="round" stroke-width="1.0"/>
  </g>
</svg>
