<?xml version="1.0" encoding="UTF-8" standalone="no"?>
<svg xmlns:xlink="http://www.w3.org/1999/xlink" height="27.3px" width="46.75px" xmlns="http://www.w3.org/2000/svg">
  <g transform="matrix(1.0, 0.0, 0.0, 1.0, 23.35, 13.65)">
    <path d="M4.5 -12.65 Q3.5 -10.05 4.85 -5.35 7.4 -3.65 12.55 -2.8 L22.4 -1.0 Q23.25 -4.85 21.45 -6.05 L8.7 -11.8 Q5.1 -13.45 4.5 -12.65 M-0.85 1.8 Q-1.95 6.0 -4.1 9.95 L-4.75 11.1 -4.15 11.7 Q-3.4 12.3 -1.55 12.9 -1.05 12.9 0.0 11.55 1.05 11.95 2.45 12.9 L4.0 11.5 Q5.1 11.6 5.45 12.6 6.9 11.85 7.2 10.95 7.35 8.95 6.4 6.55 5.4 4.1 5.1 1.8 1.45 2.4 -0.85 1.8 M-6.75 -11.7 L-20.0 -7.6 Q-24.3 -4.95 -21.45 -0.5 -17.15 -1.85 -10.85 -2.75 -4.55 -3.7 -0.4 -5.25 1.15 -9.2 0.15 -12.65 -2.4 -13.35 -6.75 -11.7" fill="none" stroke="#000000" stroke-linecap="round" stroke-linejoin="round" stroke-width="1.5"/>
  </g>
</svg>
