<?xml version="1.0" encoding="UTF-8" standalone="no"?>
<svg xmlns:xlink="http://www.w3.org/1999/xlink" height="519.55px" width="1033.55px" xmlns="http://www.w3.org/2000/svg">
  <g transform="matrix(1.0, 0.0, 0.0, 1.0, 513.95, 258.1)">
    <path d="M397.3 -172.25 Q397.3 -193.15 376.45 -193.15 L-366.9 -193.15 Q-387.75 -193.15 -387.75 -172.25 L-387.75 166.35 Q-387.75 187.3 -366.9 187.3 L376.45 187.3 Q397.3 187.3 397.3 166.35 L397.3 -172.25 M519.6 261.45 L-513.95 261.45 -513.95 -258.1 519.6 -258.1 519.6 261.45" fill="url(#gradient0)" fill-rule="evenodd" stroke="none"/>
    <path d="M409.1 -200.1 Q418.2 -191.1 418.2 -178.15 L418.2 178.15 Q418.2 191.05 409.1 200.15 400.05 209.25 387.15 209.25 L-377.7 209.25 Q-390.65 209.25 -399.7 200.15 -408.75 191.05 -408.75 178.15 L-408.75 -178.15 Q-408.75 -191.1 -399.7 -200.1 -390.65 -209.2 -377.7 -209.2 L387.15 -209.2 Q400.05 -209.2 409.1 -200.1 Z" fill="none" stroke="#000000" stroke-linecap="round" stroke-linejoin="round" stroke-opacity="0.2784314" stroke-width="12.0"/>
    <path d="M409.1 -202.5 Q418.2 -193.5 418.2 -180.55 L418.2 175.75 Q418.2 188.65 409.1 197.75 400.05 206.85 387.15 206.85 L-377.7 206.85 Q-390.65 206.85 -399.7 197.75 -408.75 188.65 -408.75 175.75 L-408.75 -180.55 Q-408.75 -193.5 -399.7 -202.5 -390.65 -211.6 -377.7 -211.6 L387.15 -211.6 Q400.05 -211.6 409.1 -202.5 M397.3 -172.25 Q397.3 -193.15 376.45 -193.15 L-366.9 -193.15 Q-387.75 -193.15 -387.75 -172.25 L-387.75 166.35 Q-387.75 187.3 -366.9 187.3 L376.45 187.3 Q397.3 187.3 397.3 166.35 L397.3 -172.25" fill="#333399" fill-rule="evenodd" stroke="none"/>
    <path d="M397.3 -172.25 L397.3 166.35 Q397.3 187.3 376.45 187.3 L-366.9 187.3 Q-387.75 187.3 -387.75 166.35 L-387.75 -172.25 Q-387.75 -193.15 -366.9 -193.15 L376.45 -193.15 Q397.3 -193.15 397.3 -172.25" fill="none" stroke="#ffffff" stroke-linecap="round" stroke-linejoin="round" stroke-opacity="0.32941177" stroke-width="7.0"/>
    <path d="M409.1 -202.5 Q418.2 -193.5 418.2 -180.55 L418.2 175.75 Q418.2 188.65 409.1 197.75 400.05 206.85 387.15 206.85 L-377.7 206.85 Q-390.65 206.85 -399.7 197.75 -408.75 188.65 -408.75 175.75 L-408.75 -180.55 Q-408.75 -193.5 -399.7 -202.5 -390.65 -211.6 -377.7 -211.6 L387.15 -211.6 Q400.05 -211.6 409.1 -202.5" fill="none" stroke="#000000" stroke-linecap="round" stroke-linejoin="round" stroke-width="5.0"/>
    <path d="M-351.9 -206.1 L-351.9 -219.65 -350.35 -219.75 -308.5 -219.75 Q-305.65 -219.75 -303.6 -217.75 -301.6 -215.75 -301.6 -212.85 -301.6 -210.0 -303.6 -208.0 -305.65 -206.0 -308.5 -206.0 L-350.35 -206.0 -351.9 -206.1 M-118.1 -219.75 L-117.5 -219.75 -75.6 -219.75 Q-72.7 -219.75 -70.7 -217.75 -68.7 -215.75 -68.7 -212.85 -68.7 -210.0 -70.7 -208.0 -72.7 -206.0 -75.6 -206.0 L-117.5 -206.0 -118.1 -206.05 -118.1 -219.75 M-290.5 -219.75 L-289.8 -219.75 -247.9 -219.75 Q-244.95 -219.75 -243.05 -217.75 -241.0 -215.75 -241.0 -212.85 -241.0 -210.0 -243.05 -208.0 -244.95 -206.0 -247.9 -206.0 L-289.8 -206.0 -290.5 -206.05 -290.5 -219.75" fill="#7a7698" fill-rule="evenodd" stroke="none"/>
    <path d="M-351.9 -219.65 L-351.9 -206.1 Q-353.75 -206.5 -355.3 -208.0 -357.25 -210.0 -357.25 -212.85 -357.25 -215.75 -355.3 -217.75 -353.75 -219.25 -351.9 -219.65 M-118.1 -206.05 Q-120.55 -206.25 -122.4 -208.0 -124.35 -210.0 -124.35 -212.85 -124.35 -215.75 -122.4 -217.75 -120.55 -219.55 -118.1 -219.75 L-118.1 -206.05 M-290.5 -206.05 Q-292.95 -206.3 -294.7 -208.0 -296.6 -210.0 -296.6 -212.85 -296.6 -215.75 -294.7 -217.75 -292.95 -219.5 -290.5 -219.75 L-290.5 -206.05" fill="#9d98c4" fill-rule="evenodd" stroke="none"/>
    <path d="M-351.9 -206.1 L-350.35 -206.0 -308.5 -206.0 Q-305.65 -206.0 -303.6 -208.0 -301.6 -210.0 -301.6 -212.85 -301.6 -215.75 -303.6 -217.75 -305.65 -219.75 -308.5 -219.75 L-350.35 -219.75 -351.9 -219.65 Q-353.75 -219.25 -355.3 -217.75 -357.25 -215.75 -357.25 -212.85 -357.25 -210.0 -355.3 -208.0 -353.75 -206.5 -351.9 -206.1 M-118.1 -206.05 Q-120.55 -206.25 -122.4 -208.0 -124.35 -210.0 -124.35 -212.85 -124.35 -215.75 -122.4 -217.75 -120.55 -219.55 -118.1 -219.75 L-117.5 -219.75 -75.6 -219.75 Q-72.7 -219.75 -70.7 -217.75 -68.7 -215.75 -68.7 -212.85 -68.7 -210.0 -70.7 -208.0 -72.7 -206.0 -75.6 -206.0 L-117.5 -206.0 -118.1 -206.05 M-290.5 -219.75 L-289.8 -219.75 -247.9 -219.75 Q-244.95 -219.75 -243.05 -217.75 -241.0 -215.75 -241.0 -212.85 -241.0 -210.0 -243.05 -208.0 -244.95 -206.0 -247.9 -206.0 L-289.8 -206.0 -290.5 -206.05 Q-292.95 -206.3 -294.7 -208.0 -296.6 -210.0 -296.6 -212.85 -296.6 -215.75 -294.7 -217.75 -292.95 -219.5 -290.5 -219.75" fill="none" stroke="#000000" stroke-linecap="round" stroke-linejoin="round" stroke-opacity="0.5764706" stroke-width="2.0"/>
    <path d="M409.1 -202.5 Q418.2 -193.5 418.2 -180.55 L418.2 175.75 Q418.2 188.65 409.1 197.75 400.05 206.85 387.15 206.85 L-377.7 206.85 Q-390.65 206.85 -399.7 197.75 -408.75 188.65 -408.75 175.75 L-408.75 -180.55 Q-408.75 -193.5 -399.7 -202.5 -390.65 -211.6 -377.7 -211.6 L387.15 -211.6 Q400.05 -211.6 409.1 -202.5 M397.3 -172.25 Q397.3 -193.15 376.45 -193.15 L-366.9 -193.15 Q-387.75 -193.15 -387.75 -172.25 L-387.75 166.35 Q-387.75 187.3 -366.9 187.3 L376.45 187.3 Q397.3 187.3 397.3 166.35 L397.3 -172.25" fill="url(#gradient1)" fill-rule="evenodd" stroke="none"/>
    <path d="M397.3 -172.25 L397.3 166.35 Q397.3 187.3 376.45 187.3 L-366.9 187.3 Q-387.75 187.3 -387.75 166.35 L-387.75 -172.25 Q-387.75 -193.15 -366.9 -193.15 L376.45 -193.15 Q397.3 -193.15 397.3 -172.25 Z" fill="none" stroke="#000000" stroke-linecap="round" stroke-linejoin="round" stroke-width="2.0"/>
  </g>
  <defs>
    <linearGradient gradientTransform="matrix(0.0, -0.3082, 0.6308, 0.0, 2.8, -5.6)" gradientUnits="userSpaceOnUse" id="gradient0" spreadMethod="pad" x1="-819.2" x2="819.2">
      <stop offset="0.0" stop-color="#36447e" stop-opacity="0.8980392"/>
      <stop offset="1.0" stop-color="#232b56" stop-opacity="0.8980392"/>
    </linearGradient>
    <linearGradient gradientTransform="matrix(-0.3047, 0.2325, -0.2997, -0.3928, 8.15, -5.0)" gradientUnits="userSpaceOnUse" id="gradient1" spreadMethod="pad" x1="-819.2" x2="819.2">
      <stop offset="0.0" stop-color="#131419"/>
      <stop offset="0.24313725490196078" stop-color="#131419"/>
      <stop offset="0.43529411764705883" stop-color="#23252e"/>
      <stop offset="0.6627450980392157" stop-color="#131318"/>
      <stop offset="1.0" stop-color="#141117"/>
    </linearGradient>
  </defs>
</svg>
