<?xml version="1.0" encoding="UTF-8" standalone="no"?>
<svg xmlns:xlink="http://www.w3.org/1999/xlink" height="17.6px" width="23.2px" xmlns="http://www.w3.org/2000/svg">
  <g transform="matrix(1.0, 0.0, 0.0, 1.0, 11.6, 8.8)">
    <path d="M6.9 -7.1 L8.2 -6.25 Q11.6 -3.65 11.6 0.0 11.6 3.65 8.2 6.2 4.8 8.8 0.0 8.8 -4.25 8.8 -7.35 6.8 -2.2 6.1 1.75 3.35 7.0 -0.3 7.0 -5.5 L6.9 -7.1" fill="#d9f7ff" fill-rule="evenodd" stroke="none"/>
    <path d="M-7.35 6.8 L-8.2 6.2 Q-11.6 3.65 -11.6 0.0 -11.6 -3.65 -8.2 -6.25 -4.8 -8.8 0.0 -8.8 3.9 -8.8 6.9 -7.1 L7.0 -5.5 Q7.0 -0.3 1.75 3.35 -2.2 6.1 -7.35 6.8" fill="#fdfdfd" fill-rule="evenodd" stroke="none"/>
  </g>
</svg>
