<?xml version="1.0" encoding="UTF-8" standalone="no"?>
<svg xmlns:xlink="http://www.w3.org/1999/xlink" height="517.45px" width="1036.45px" xmlns="http://www.w3.org/2000/svg">
  <g transform="matrix(1.0, 0.0, 0.0, 1.0, 517.0, 258.7)">
    <path d="M249.65 195.45 L262.65 195.45 262.65 -198.75 249.65 -198.75 -261.4 -198.75 -274.4 -198.75 -274.4 195.45 -261.4 195.45 249.65 195.45 M281.4 213.25 L-293.2 213.25 -293.2 -217.55 281.4 -217.55 281.4 213.25" fill="#73574b" fill-rule="evenodd" stroke="none"/>
    <path d="M249.65 -198.75 L249.65 195.45 109.1 157.9 109.1 -175.65 249.65 -198.75 M-261.4 -198.75 L-120.85 -175.65 -120.85 157.9 -261.4 195.45 -261.4 -198.75 M125.35 -162.9 L121.15 -162.2 121.15 146.35 175.1 160.95 175.1 157.05 175.05 6.45 125.35 0.0 125.35 -14.4 175.05 -8.15 175.05 -171.6 125.35 -162.9 M190.9 -174.35 L186.95 -173.7 186.95 -6.65 190.9 -6.2 236.65 -0.45 236.65 -182.4 190.9 -174.35 M190.9 8.55 L186.95 8.0 186.95 164.15 236.65 177.65 236.65 173.3 236.65 14.45 190.9 8.55 M-202.65 -6.2 L-198.7 -6.65 -198.7 -173.7 -202.65 -174.35 -248.4 -182.4 -248.4 -0.45 -202.65 -6.2 M-137.1 -162.9 L-186.8 -171.6 -186.8 -8.15 -137.1 -14.4 -137.1 0.0 -186.8 6.45 -186.85 157.05 -186.85 160.95 -132.9 146.35 -132.9 -162.2 -137.1 -162.9 M-248.4 173.3 L-248.4 177.65 -198.7 164.15 -198.7 8.0 -202.65 8.55 -248.4 14.45 -248.4 173.3" fill="#735749" fill-rule="evenodd" stroke="none"/>
    <path d="M125.35 -162.9 L175.05 -171.6 175.05 -8.15 125.35 -14.4 125.35 -162.9 M125.35 0.0 L175.05 6.45 175.1 157.05 125.35 143.95 125.35 0.0 M190.9 -174.35 L236.65 -182.4 236.65 -0.45 190.9 -6.2 190.9 -174.35 M236.65 173.3 L190.9 161.2 190.9 8.55 236.65 14.45 236.65 173.3 M-202.65 -174.35 L-202.65 -6.2 -248.4 -0.45 -248.4 -182.4 -202.65 -174.35 M-137.1 -14.4 L-186.8 -8.15 -186.8 -171.6 -137.1 -162.9 -137.1 -14.4 M-186.85 157.05 L-186.8 6.45 -137.1 0.0 -137.1 143.95 -186.85 157.05 M-248.4 173.3 L-248.4 14.45 -202.65 8.55 -202.65 161.2 -248.4 173.3" fill="#000000" fill-opacity="0.101960786" fill-rule="evenodd" stroke="none"/>
    <path d="M249.65 -198.75 L262.65 -198.75 262.65 195.45 249.65 195.45 249.65 -198.75 M175.1 157.05 L175.1 160.95 121.15 146.35 121.15 -162.2 125.35 -162.9 125.35 -14.4 125.35 0.0 125.35 143.95 175.1 157.05 M190.9 -6.2 L186.95 -6.65 186.95 -173.7 190.9 -174.35 190.9 -6.2 M236.65 173.3 L236.65 177.65 186.95 164.15 186.95 8.0 190.9 8.55 190.9 161.2 236.65 173.3 M-261.4 195.45 L-274.4 195.45 -274.4 -198.75 -261.4 -198.75 -261.4 195.45 M-202.65 -174.35 L-198.7 -173.7 -198.7 -6.65 -202.65 -6.2 -202.65 -174.35 M-137.1 -14.4 L-137.1 -162.9 -132.9 -162.2 -132.9 146.35 -186.85 160.95 -186.85 157.05 -137.1 143.95 -137.1 0.0 -137.1 -14.4 M-202.65 8.55 L-198.7 8.0 -198.7 164.15 -248.4 177.65 -248.4 173.3 -202.65 161.2 -202.65 8.55" fill="#4a392b" fill-rule="evenodd" stroke="none"/>
    <path d="M281.4 213.25 L281.4 -217.55 -293.2 -217.55 -293.2 213.25 281.4 213.25 M-516.5 -258.2 L518.95 -258.2 518.95 258.25 -516.5 258.25 -516.5 -258.2" fill="url(#gradient0)" fill-rule="evenodd" stroke="none"/>
    <path d="M-516.5 -258.2 L518.95 -258.2 518.95 258.25 -516.5 258.25 -516.5 -258.2" fill="none" stroke="#7792a8" stroke-linecap="round" stroke-linejoin="round" stroke-opacity="0.3764706" stroke-width="1.0"/>
    <path d="M281.4 213.25 L-293.2 213.25 -293.2 -217.55 281.4 -217.55 281.4 213.25" fill="none" stroke="#4f2a24" stroke-linecap="round" stroke-linejoin="round" stroke-opacity="0.3764706" stroke-width="1.0"/>
  </g>
  <defs>
    <linearGradient gradientTransform="matrix(0.0, -0.3047, 0.632, 0.0, 1.2, 0.05)" gradientUnits="userSpaceOnUse" id="gradient0" spreadMethod="pad" x1="-819.2" x2="819.2">
      <stop offset="0.0" stop-color="#8c7368"/>
      <stop offset="1.0" stop-color="#545264"/>
    </linearGradient>
  </defs>
</svg>
