<?xml version="1.0" encoding="UTF-8" standalone="no"?>
<svg xmlns:xlink="http://www.w3.org/1999/xlink" height="146.95px" width="177.9px" xmlns="http://www.w3.org/2000/svg">
  <g transform="matrix(1.0, 0.0, 0.0, 1.0, 88.95, 73.45)">
    <path d="M51.15 -56.45 Q57.85 -59.95 67.55 -60.5 79.6 -59.25 88.95 -61.95 82.2 -53.0 69.35 -45.25 79.15 -41.2 85.35 -32.6 L71.35 -33.4 71.85 -32.6 Q74.95 -29.65 76.65 -22.35 80.5 -5.85 87.2 6.55 80.4 1.0 76.05 -4.95 90.4 16.3 88.5 45.4 86.25 34.15 81.0 20.6 88.0 45.6 80.7 62.7 L78.6 37.25 Q77.35 53.85 68.6 66.3 70.5 59.6 69.9 45.4 L67.6 60.05 Q57.25 66.9 44.15 67.55 L47.7 62.0 Q57.2 54.6 60.5 48.3 63.5 39.5 62.1 31.7 67.9 3.55 51.25 -20.25 21.8 -28.3 -11.95 -21.95 -25.95 -5.5 -25.7 18.55 -17.9 55.65 -2.6 73.5 -15.9 65.6 -23.75 53.25 L-14.65 68.6 Q-31.85 65.95 -39.8 62.05 -43.2 54.45 -45.45 46.7 -46.65 63.6 -43.4 72.85 -55.4 60.15 -56.5 42.7 -58.3 54.15 -58.1 65.95 -61.3 51.25 -61.35 37.95 -66.15 50.95 -68.2 62.4 -75.25 43.1 -70.4 29.55 L-78.3 45.75 Q-83.0 18.45 -70.9 -5.35 L-81.25 9.45 -80.45 6.05 Q-75.45 -13.0 -62.15 -26.75 L-66.1 -26.8 -66.15 -26.8 -66.05 -26.85 -53.45 -39.45 -56.8 -38.95 Q-64.0 -38.6 -74.15 -43.35 -82.75 -47.35 -88.95 -48.75 -88.65 -48.9 -88.25 -49.15 -69.9 -57.85 -49.95 -56.7 -60.3 -62.05 -62.45 -66.7 -42.5 -65.65 -27.7 -58.05 -17.2 -60.8 -3.25 -61.0 12.2 -65.25 35.9 -59.15 L42.15 -57.25 Q45.15 -64.75 51.55 -71.0 L54.2 -73.45 Q56.9 -64.45 51.15 -56.45" fill="#00ccff" fill-rule="evenodd" stroke="none"/>
  </g>
</svg>
