<?xml version="1.0" encoding="UTF-8" standalone="no"?>
<svg xmlns:xlink="http://www.w3.org/1999/xlink" height="160.1px" width="175.9px" xmlns="http://www.w3.org/2000/svg">
  <g transform="matrix(1.0, 0.0, 0.0, 1.0, 87.95, 80.05)">
    <path d="M27.6 -75.85 Q24.2 -53.25 13.9 -46.6 L13.2 -46.15 Q26.25 -52.9 47.6 -42.8 70.5 -33.9 83.95 -46.6 69.75 -23.95 49.8 -28.55 59.65 -25.1 68.4 -10.05 78.45 7.35 87.95 6.25 75.0 11.3 65.05 4.05 75.95 30.85 85.45 32.85 75.8 34.3 70.8 28.9 77.15 36.7 73.95 49.8 70.7 62.9 79.8 67.85 72.9 72.5 68.25 69.25 63.55 65.95 65.4 59.15 61.15 73.1 44.5 79.65 51.95 71.5 57.95 54.95 53.8 60.95 47.25 63.4 48.0 62.75 49.15 60.55 54.0 51.2 55.0 37.85 55.45 31.95 55.05 26.3 54.3 15.2 50.5 4.85 L52.0 10.55 Q40.75 -2.15 16.4 -13.35 23.2 -8.45 22.15 -3.65 15.65 -13.05 -4.6 -17.8 3.95 -13.45 4.35 -7.7 -5.1 -13.75 -13.0 -10.7 -15.2 -1.9 -22.45 2.9 -21.4 -1.0 -20.95 -11.55 -25.9 6.1 -38.65 17.7 -40.45 24.2 -41.35 30.05 -44.95 55.1 -30.25 64.65 -43.9 63.95 -48.7 55.45 -43.5 72.25 -34.5 80.05 -52.85 76.0 -58.2 60.75 -59.85 68.5 -66.3 71.35 -75.05 75.05 -81.8 71.0 -70.4 68.4 -70.95 54.1 -71.25 49.75 -72.35 43.25 -74.9 28.75 -68.85 19.8 -74.3 22.45 -81.4 22.9 -88.5 23.35 -87.9 23.0 -82.5 21.3 -77.4 16.75 -74.2 13.95 -71.05 10.05 -68.1 6.25 -65.2 1.45 -71.35 5.7 -78.75 12.6 -73.35 -5.7 -59.55 -16.6 -74.1 -11.05 -84.25 -20.4 -71.0 -20.9 -60.2 -30.35 -54.1 -35.7 -48.9 -37.95 -57.95 -43.6 -55.25 -50.4 -52.6 -57.25 -46.35 -60.6 -53.55 -50.95 -47.5 -47.45 -41.5 -43.9 -32.9 -47.1 -24.35 -50.35 -17.6 -49.0 -29.3 -52.05 -22.3 -70.05 -21.0 -56.0 -9.0 -54.2 3.0 -52.45 3.4 -50.35 19.95 -58.55 28.15 -80.05 L27.6 -75.85" fill="#8ef7aa" fill-rule="evenodd" stroke="none"/>
  </g>
</svg>
