<?xml version="1.0" encoding="UTF-8" standalone="no"?>
<svg xmlns:xlink="http://www.w3.org/1999/xlink" height="109.05px" width="145.5px" xmlns="http://www.w3.org/2000/svg">
  <g transform="matrix(1.0, 0.0, 0.0, 1.0, 72.75, 54.55)">
    <path d="M63.9 -36.3 L64.55 -36.5 64.55 -36.4 63.9 -36.3" fill="#93f0ff" fill-rule="evenodd" stroke="none"/>
    <path d="M66.8 -37.0 L64.55 -36.4 Q64.85 -33.1 64.45 -29.6 L63.55 -24.35 Q62.65 -20.8 61.15 -17.05 L58.2 -10.65 58.1 -10.5 Q59.85 -7.85 61.15 -5.0 L63.95 -10.65 66.6 -17.05 Q68.0 -20.7 69.0 -24.35 L70.25 -29.6 Q71.9 -37.55 71.75 -45.35 65.75 -45.15 53.9 -41.7 42.05 -38.3 33.6 -31.95 L36.9 -30.1 Q41.15 -27.55 45.1 -24.4 L48.6 -27.75 50.9 -29.6 Q56.85 -34.1 63.9 -36.3 L64.55 -36.5 64.55 -36.4 63.9 -36.3 M61.15 -5.0 L61.85 -3.35 Q64.65 3.6 64.95 11.45 65.6 30.1 58.05 37.5 L57.2 17.1 55.85 13.6 Q53.7 -1.85 49.4 -5.2 23.3 -12.5 -1.8 -10.0 -26.9 -7.55 -31.2 1.45 -35.5 10.45 -36.1 17.7 L-41.7 23.95 Q-46.25 38.3 -45.0 53.5 L-52.3 53.5 -56.95 46.55 Q-61.65 42.9 -66.0 50.6 -75.35 31.85 -69.55 6.6 -67.3 -3.35 -62.0 -11.3 -66.85 -30.2 -55.9 -53.55 -48.0 -51.25 -37.6 -45.9 -30.2 -42.15 -24.85 -36.5 L-24.1 -36.7 -19.65 -37.75 -17.6 -38.25 -11.15 -39.35 -7.65 -39.7 Q-0.7 -40.2 7.5 -39.55 L14.1 -38.95 Q22.15 -37.25 29.45 -33.95 L31.3 -33.1 33.6 -31.95 M45.1 -24.4 L48.6 -21.45 49.15 -21.0 53.1 -17.05 55.7 -13.9 58.05 -10.65 58.1 -10.5 M-62.0 -11.3 Q-61.1 -7.75 -59.65 -4.35 M-53.55 -21.15 Q-53.25 -15.9 -51.8 -10.05 -38.7 -13.1 -29.3 -25.8 -32.0 -29.45 -36.2 -32.4 L-39.8 -34.7 Q-46.5 -38.55 -50.5 -39.4 -54.15 -31.35 -53.55 -21.15 M-20.8 -31.5 Q-22.65 -34.15 -24.85 -36.5" fill="none" stroke="#000000" stroke-linecap="round" stroke-linejoin="round" stroke-width="2.0"/>
  </g>
</svg>
