<?xml version="1.0" encoding="UTF-8" standalone="no"?>
<svg xmlns:xlink="http://www.w3.org/1999/xlink" height="158.3px" width="156.1px" xmlns="http://www.w3.org/2000/svg">
  <g transform="matrix(1.0, 0.0, 0.0, 1.0, 78.05, 79.15)">
    <path d="M70.95 -62.0 Q60.65 -58.9 53.1 -51.6 59.1 -47.4 64.15 -41.95 L66.05 -39.15 Q71.9 -51.6 70.95 -62.0 M60.3 -67.3 Q72.15 -70.75 78.0 -70.95 78.55 -52.65 68.95 -33.3 75.75 -18.25 76.9 -5.75 78.2 7.9 73.85 35.05 69.55 62.2 76.2 79.15 61.75 64.5 67.0 42.5 61.85 54.25 52.05 63.45 59.85 47.2 61.65 23.6 63.1 4.55 57.3 -14.5 59.25 -25.7 49.2 -32.6 16.45 -40.9 -17.85 -32.65 -29.3 -27.1 -29.2 -5.25 -36.1 33.3 -21.3 65.2 -33.5 56.85 -41.65 45.1 L-44.0 41.45 Q-50.1 33.0 -53.55 20.2 L-55.85 20.4 Q-63.6 24.05 -59.3 31.95 -59.35 59.15 -78.05 79.15 -70.5 56.8 -70.05 24.85 L-70.05 24.8 Q-70.95 0.3 -66.95 -17.25 -63.1 -28.55 -57.1 -37.2 -61.75 -55.95 -50.9 -79.15 -43.0 -76.85 -32.6 -71.5 -25.65 -68.0 -20.5 -62.75 L-19.55 -63.05 Q-4.05 -67.25 20.15 -64.55 31.55 -62.65 41.1 -58.35 49.2 -64.1 60.3 -67.3 M-31.95 -58.55 L-34.8 -60.3 Q-41.5 -64.15 -45.5 -65.0 -49.1 -57.15 -48.55 -47.2 -48.3 -41.75 -46.8 -35.65 -33.7 -38.7 -24.3 -51.4 -27.25 -55.4 -31.95 -58.55" fill="#8ef7aa" fill-rule="evenodd" stroke="none"/>
  </g>
</svg>
