<?xml version="1.0" encoding="UTF-8" standalone="no"?>
<svg xmlns:xlink="http://www.w3.org/1999/xlink" height="194.2px" width="147.45px" xmlns="http://www.w3.org/2000/svg">
  <g transform="matrix(1.0, 0.0, 0.0, 1.0, 73.7, 97.1)">
    <path d="M59.95 -2.45 L59.9 -2.4 59.5 -12.05 59.95 -2.45" fill="#8ef7aa" fill-rule="evenodd" stroke="none"/>
    <path d="M48.6 -62.6 L51.0 -60.9 Q57.55 -54.95 61.4 -48.05 L64.75 -58.0 67.95 -67.55 Q71.15 -76.55 72.05 -91.65 L55.2 -87.75 Q36.45 -83.15 27.45 -75.45 31.1 -74.05 35.2 -72.05 M67.95 -67.55 Q71.7 -67.4 72.75 -68.2 72.7 -62.75 67.95 -60.55 71.9 -57.45 71.85 -51.1 68.4 -52.5 65.85 -51.95 68.65 -45.95 68.1 -42.55 65.25 -45.3 62.05 -46.75 66.4 -38.3 66.8 -28.45 L66.75 -21.6 66.7 -21.2 Q69.15 11.1 65.85 39.5 63.55 59.0 52.55 78.25 L54.95 61.05 Q53.9 65.3 51.95 70.0 47.1 81.55 41.9 92.65 38.7 70.65 48.75 45.7 60.15 23.55 59.95 -2.45 L59.9 -2.4 59.5 -12.05 Q58.95 -21.7 56.25 -30.8 55.55 -41.75 51.25 -45.1 31.4 -52.05 3.95 -49.8 -23.55 -47.6 -28.75 -39.5 -29.8 -34.1 -28.85 -28.85 -37.5 15.55 -28.0 46.7 -17.4 81.45 -18.9 96.1 -21.85 89.95 -28.5 81.1 -31.0 77.7 -32.8 74.35 L-28.9 85.2 Q-45.3 66.25 -48.4 41.0 -50.05 27.45 -50.15 13.6 L-50.45 13.6 -55.1 6.65 Q-59.8 3.0 -64.15 10.7 -73.5 -8.05 -67.7 -33.3 -66.3 -39.65 -63.6 -45.15 -66.3 -48.65 -68.8 -57.5 -71.95 -68.5 -72.55 -79.35 -73.2 -90.3 -71.25 -96.1 -67.8 -94.95 -46.45 -90.25 -26.1 -85.75 -17.15 -77.8 L-15.75 -78.15 -9.3 -79.25 -5.8 -79.6 Q1.15 -80.1 9.35 -79.45 L15.95 -78.85 Q21.9 -77.6 27.45 -75.45 M59.5 -12.05 L59.95 -2.45 M54.95 61.05 L55.05 60.55 Q56.45 54.6 56.0 49.45 M-16.3 -77.0 L-17.15 -77.8 M-49.6 -57.45 L-50.5 -57.45 Q-54.7 -54.65 -56.95 -51.0 L-59.05 -46.9 -54.85 -47.5 Q-49.4 -47.95 -42.75 -53.0 -34.9 -59.15 -34.7 -61.3 L-43.2 -67.55 -47.25 -70.6 Q-54.1 -70.2 -60.9 -71.7 -58.1 -66.7 -51.15 -65.75 L-49.65 -65.6 M-51.15 -65.75 Q-54.85 -64.05 -60.15 -58.35 L-62.15 -56.1 -59.55 -56.6 -55.55 -57.2 -50.5 -57.45 M-59.55 -56.6 L-58.3 -53.85 -56.95 -51.0 M-47.25 -70.6 Q-60.4 -80.6 -66.65 -87.3 -65.55 -72.1 -60.15 -58.35 M-63.6 -45.15 L-62.4 -43.85 M-36.8 63.25 Q-35.8 68.8 -32.8 74.35 L-36.8 63.25 -37.35 58.85 M-49.25 -10.7 Q-50.3 1.55 -50.15 13.6" fill="none" stroke="#000000" stroke-linecap="round" stroke-linejoin="round" stroke-width="2.0"/>
  </g>
</svg>
