<?xml version="1.0" encoding="UTF-8" standalone="no"?>
<svg xmlns:xlink="http://www.w3.org/1999/xlink" height="151.05px" width="210.9px" xmlns="http://www.w3.org/2000/svg">
  <g transform="matrix(1.0, 0.0, 0.0, 1.0, 105.45, 80.35)">
    <path d="M13.15 -70.5 L13.55 -70.45 23.05 -69.4 23.1 -69.35 23.1 -69.4 Q29.75 -68.2 36.15 -65.8 L40.6 -63.95 42.8 -62.95 44.2 -62.25 49.7 -59.1 Q58.8 -53.3 64.1 -45.45 68.65 -39.2 71.2 -32.4 L71.2 -32.35 Q73.9 -25.1 74.25 -17.25 L74.25 -17.4 Q73.9 -25.25 71.2 -32.5 L71.2 -32.55 Q68.65 -39.35 64.1 -45.6 58.8 -53.45 49.7 -59.25 53.15 -73.0 79.0 -78.55 86.75 -76.25 78.6 -56.2 L78.4 -55.7 78.45 -55.65 78.6 -56.05 Q91.3 -47.9 93.75 -24.45 95.05 -3.65 105.45 10.45 97.2 9.35 94.15 1.75 L94.1 1.75 Q96.05 9.65 91.35 25.9 86.6 42.25 89.1 50.25 85.7 45.05 83.8 35.65 75.75 55.3 73.35 66.0 65.95 51.8 68.3 30.35 L68.7 23.0 68.7 9.05 67.9 -10.05 66.55 -13.55 Q65.2 -26.4 58.5 -32.1 40.0 -39.7 12.25 -37.45 -15.55 -35.2 -20.95 -27.65 -26.35 -20.15 -27.85 -9.45 -31.6 30.5 -23.2 61.9 -30.95 53.7 -32.5 51.2 -35.05 47.0 -36.8 42.4 -40.85 38.95 -43.5 32.8 L-44.8 28.2 -46.25 19.4 Q-52.2 17.45 -54.8 29.95 L-58.1 27.0 Q-58.5 30.85 -59.3 34.7 -61.2 43.7 -59.65 50.85 -66.5 43.05 -63.45 30.85 -66.65 42.2 -69.65 49.75 -73.85 60.05 -73.75 70.7 -84.15 58.45 -86.25 40.9 -85.9 47.05 -85.7 54.3 -97.75 27.25 -90.0 3.7 -95.15 16.85 -105.45 19.4 -98.8 12.3 -97.05 -14.45 -93.85 -34.95 -84.2 -44.15 -78.6 -49.5 -70.8 -50.95 L-70.75 -50.6 -70.8 -51.1 Q-78.6 -49.65 -84.2 -44.3 -86.9 -64.25 -79.7 -71.2 -73.75 -72.5 -69.25 -67.0 -66.85 -75.2 -61.3 -80.25 -53.0 -81.4 -43.2 -69.75 -37.3 -62.7 -35.65 -57.05 L-35.6 -56.9 Q-12.75 -72.05 13.15 -70.5 M44.2 -62.4 L42.8 -63.1 40.6 -64.1 36.15 -65.95 Q29.75 -68.35 23.1 -69.55 L23.1 -70.55 Q22.95 -80.0 27.1 -79.5 44.2 -69.55 44.2 -62.4 M79.95 -32.4 Q81.95 -32.95 83.95 -33.85 L84.8 -36.7 83.95 -34.0 Q81.95 -33.1 79.95 -32.55 L76.3 -31.6 76.4 -31.45 79.95 -32.4 M68.75 10.35 Q74.55 7.85 77.6 2.2 L86.65 5.0 86.65 4.85 77.6 2.05 Q74.55 7.65 68.85 10.2 L68.75 10.35 M-35.4 -50.2 L-35.1 -52.3 -35.4 -50.35 -35.4 -50.2 M-67.2 -18.65 L-60.85 -18.45 -56.8 -19.1 -56.75 -19.3 -60.85 -18.6 -67.2 -18.8 Q-75.2 -19.7 -77.15 -23.95 -75.35 -19.55 -67.2 -18.65 M-39.15 -38.05 L-39.05 -39.0 -39.15 -38.2 -39.2 -37.25 -39.15 -38.05 M-39.0 -42.2 Q-36.4 -44.8 -35.7 -48.0 -36.45 -44.9 -39.0 -42.35 L-39.0 -42.2 M-65.0 20.15 L-63.5 19.8 Q-60.85 18.95 -57.8 16.3 -55.3 14.15 -52.55 10.85 L-47.0 10.7 Q-43.2 11.4 -37.5 13.9 L-37.55 13.75 Q-43.2 11.25 -47.0 10.55 L-52.55 10.7 Q-55.3 14.0 -57.8 16.15 -60.85 18.8 -63.5 19.65 L-65.0 20.0 -65.0 19.6 -65.0 20.15" fill="#5686b1" fill-rule="evenodd" stroke="none"/>
  </g>
</svg>
