<?xml version="1.0" encoding="UTF-8" standalone="no"?>
<svg xmlns:xlink="http://www.w3.org/1999/xlink" height="191.8px" width="270.55px" xmlns="http://www.w3.org/2000/svg">
  <g transform="matrix(1.0, 0.0, 0.0, 1.0, 135.3, 95.9)">
    <path d="M-14.7 -90.1 L-15.05 -90.35 Q-0.05 -95.8 16.1 -94.7 29.05 -94.05 40.95 -89.15 L43.15 -88.2 Q47.6 -86.25 51.4 -83.9 L57.15 -79.85 57.15 -80.6 M56.4 -87.7 L56.85 -88.15 Q63.25 -92.75 69.9 -92.5 83.85 -90.05 89.35 -79.5 L94.3 -72.9 101.75 -62.05 Q110.35 -53.0 119.35 -52.8 109.7 -47.75 101.7 -50.5 122.7 -23.1 112.85 -6.05 119.25 11.5 133.3 13.7 124.5 18.85 116.1 16.7 130.4 35.35 119.15 54.55 119.7 66.55 134.25 63.7 125.45 74.05 115.45 68.05 125.0 83.15 111.6 94.9 112.15 89.25 106.7 79.15 106.0 85.45 98.75 89.65 83.6 92.55 80.65 77.8 91.0 87.75 92.9 75.25 91.4 68.45 83.3 62.6 68.55 51.9 73.15 32.05 67.7 49.9 75.1 62.0 59.85 47.65 64.45 29.3 66.95 19.45 67.05 12.0 65.3 14.2 63.05 15.6 64.85 9.9 66.1 3.4 L67.4 -4.7 Q68.7 -14.5 68.9 -25.85 L69.1 -27.5 69.1 -37.8 Q67.75 -50.65 61.05 -56.35 56.3 -58.3 50.95 -59.6 35.4 -63.35 14.8 -61.7 -13.0 -59.45 -18.4 -51.9 -23.8 -44.4 -22.85 -33.7 L-25.55 -28.95 Q-31.3 -3.0 -21.15 16.45 -30.1 15.85 -39.05 2.1 L-43.7 -4.85 Q-46.75 -5.85 -49.0 -4.75 -50.0 4.35 -48.15 13.15 -52.4 7.3 -55.0 0.95 -59.55 10.95 -55.15 29.3 -50.8 47.65 -68.4 62.0 -59.65 49.9 -64.95 32.05 -60.65 51.9 -77.5 62.6 -86.8 68.45 -88.75 75.25 -87.15 87.75 -75.25 77.8 -79.1 92.55 -95.9 89.65 -103.7 85.45 -104.3 79.15 -110.75 89.25 -110.4 94.9 -124.8 83.15 -113.5 68.05 -124.95 74.05 -134.3 63.7 -118.2 66.55 -117.1 54.55 -128.85 35.35 -112.15 16.7 -121.55 18.85 -131.1 13.7 -115.4 11.5 -107.5 -6.05 -117.75 -23.1 -93.25 -50.5 -102.25 -47.75 -112.8 -52.8 -102.8 -53.0 -92.8 -62.05 L-84.1 -72.9 Q-70.5 -88.65 -61.95 -87.95 M57.15 -79.85 Q62.85 -75.3 66.65 -69.7 69.5 -65.75 71.6 -61.6 74.0 -56.8 75.3 -51.7 79.85 -11.0 68.35 10.15 L67.05 12.0 M101.7 -50.5 Q99.9 -51.15 98.15 -52.15 L96.6 -53.2 M101.4 -42.1 Q108.3 -32.35 111.4 -10.5 L112.85 -6.05 M78.5 -75.0 L83.85 -68.3 Q94.0 -54.1 98.25 -35.05 M-93.25 -50.5 Q-91.2 -51.15 -89.25 -52.15 L-87.5 -53.2 M-93.25 -42.1 Q-101.35 -32.35 -105.75 -10.5 L-107.5 -6.05 M-59.7 -80.9 Q-66.9 -75.2 -72.6 -68.3 -84.55 -54.1 -90.05 -35.05 M-48.75 -78.25 Q-50.3 -69.85 -62.1 -63.2 M-43.7 -4.85 Q-46.2 -10.0 -46.7 -15.9 -48.4 -10.3 -49.0 -4.75 M-37.2 -67.2 Q-33.35 -45.8 -45.4 -20.0 L-46.7 -15.9 M-59.35 -51.8 Q-56.05 -17.75 -81.25 -5.75 -69.75 -18.7 -65.7 -40.55 M-64.95 32.05 L-66.45 27.55 M-112.15 16.7 Q-107.05 15.5 -102.0 12.15 M-72.35 10.75 Q-66.25 42.35 -87.05 49.6 -104.05 56.25 -107.5 38.8 -103.35 45.6 -93.95 40.15 -84.55 34.6 -81.6 22.0 M-117.1 54.55 L-113.5 59.65 Q-118.45 46.5 -108.65 30.6 M-113.5 68.05 Q-111.3 66.85 -108.95 65.05 M-104.3 79.15 L-104.3 79.1 Q-104.8 74.15 -100.85 67.85 M80.6 10.75 Q73.95 42.35 92.35 49.6 107.4 56.25 111.15 38.8 107.15 45.6 98.9 40.15 90.65 34.6 88.45 22.0 M116.1 16.7 Q111.6 15.5 107.2 12.15 M119.15 54.55 Q117.65 57.1 115.75 59.65 120.7 46.5 112.5 30.6 M115.45 68.05 Q113.5 66.85 111.45 65.05 M106.7 79.15 L106.7 79.1 Q107.35 74.15 104.05 67.85 M73.15 32.05 L74.65 27.55 M85.2 -26.2 Q104.9 7.1 91.95 20.95 119.15 7.8 93.55 -20.7 M-75.9 -26.2 Q-99.2 7.1 -85.4 20.95 -115.15 7.8 -85.4 -20.7 M-55.0 0.95 Q-61.8 -15.35 -58.35 -35.05" fill="none" stroke="#000000" stroke-linecap="round" stroke-linejoin="round" stroke-width="2.0"/>
  </g>
</svg>
