<?xml version="1.0" encoding="UTF-8" standalone="no"?>
<svg xmlns:xlink="http://www.w3.org/1999/xlink" height="268.1px" width="250.35px" xmlns="http://www.w3.org/2000/svg">
  <g transform="matrix(1.0, 0.0, 0.0, 1.0, 125.2, 134.05)">
    <path d="M78.3 -92.65 Q84.25 -64.6 91.2 -40.6 99.0 -13.65 112.8 21.2 126.5 56.05 125.0 80.45 123.5 104.85 101.75 118.85 108.9 110.2 108.6 84.75 107.3 119.85 80.65 131.15 80.5 125.0 76.4 115.25 69.9 103.0 66.4 86.95 66.8 103.75 65.15 113.75 53.85 86.65 58.95 44.75 62.1 19.05 62.4 -11.6 L61.5 -10.75 62.45 -13.4 Q68.05 -31.25 67.6 -75.2 L67.6 -80.75 Q66.45 -85.9 63.8 -89.9 61.75 -93.05 58.85 -95.55 53.1 -97.9 46.45 -99.3 L38.0 -100.7 Q26.45 -102.0 12.6 -100.9 -15.2 -98.65 -20.6 -91.1 -26.0 -83.6 -27.6 -68.1 -30.35 -25.85 -23.1 -8.45 -36.85 -21.25 -41.25 -37.1 L-45.9 -44.05 Q-48.9 -45.05 -51.15 -43.95 -56.3 -37.2 -50.75 -28.8 -58.25 -32.4 -61.65 -38.15 -63.5 -23.8 -64.15 -8.8 -65.65 25.4 -59.45 46.05 -53.3 66.65 -53.3 67.65 L-53.2 68.9 Q-48.05 102.35 -68.55 125.3 L-66.9 106.1 Q-69.2 126.5 -83.1 134.05 -83.5 126.8 -90.8 114.55 -88.75 124.45 -94.75 130.7 -96.55 120.25 -117.15 91.0 -137.75 61.7 -105.5 -18.55 -83.9 -72.55 -71.15 -94.65 L-73.75 -103.55 -50.4 -127.4 -50.5 -127.6 -40.2 -126.5 -37.8 -118.55 -36.65 -119.45 Q-13.0 -135.65 13.9 -133.9 28.05 -133.2 40.95 -127.4 46.55 -124.9 51.15 -121.85 L56.05 -127.85 55.9 -128.05 66.4 -126.95 80.9 -95.6 78.3 -92.65 M58.45 -116.0 Q61.85 -112.7 64.45 -108.9 L65.5 -107.45 60.4 -118.35 58.45 -116.0 M-45.45 -111.0 L-47.55 -117.9 -52.55 -112.9 Q-48.8 -113.25 -47.4 -108.5 L-45.45 -111.0" fill="#a29de5" fill-rule="evenodd" stroke="none"/>
  </g>
</svg>
