<?xml version="1.0" encoding="UTF-8" standalone="no"?>
<svg xmlns:xlink="http://www.w3.org/1999/xlink" height="200.05px" width="273.15px" xmlns="http://www.w3.org/2000/svg">
  <g transform="matrix(1.0, 0.0, 0.0, 1.0, 136.6, 100.0)">
    <path d="M96.9 -59.4 Q98.2 -56.25 97.4 -53.05 L97.35 -52.7 Q96.6 -41.6 90.25 -34.7 L95.75 -32.3 95.8 -32.35 95.8 -32.4 Q110.65 -49.1 94.8 -74.6 80.65 -97.3 61.95 -96.65 45.85 -97.25 38.7 -89.9 L42.7 -88.3 Q51.05 -84.8 57.3 -80.1 73.35 -80.2 82.2 -60.55 M95.8 -32.35 Q113.4 -24.7 110.15 -12.95 L115.9 -9.0 Q129.2 0.95 130.4 16.3 131.1 27.8 122.25 32.1 136.05 37.25 135.55 52.7 129.15 72.8 103.0 72.55 L97.85 71.75 Q113.4 80.75 109.85 91.5 103.75 99.5 85.85 90.65 95.05 90.6 96.7 88.05 97.05 87.35 96.05 85.6 83.5 83.75 76.05 78.75 L84.4 86.25 Q63.55 78.4 63.4 66.95 62.9 63.6 63.3 60.7 51.0 51.55 54.25 45.6 53.5 41.1 72.7 33.9 75.15 29.75 65.15 24.15 L61.7 22.85 Q71.45 13.45 69.4 2.15 L78.0 1.7 Q93.35 1.1 105.3 6.9 106.3 1.0 93.25 -3.55 81.65 -1.0 68.9 -3.55 L70.1 -14.75 70.15 -24.95 Q70.2 -45.55 62.2 -56.0 L61.65 -56.45 Q42.9 -63.75 14.95 -61.95 L12.75 -61.8 7.5 -61.3 Q-15.6 -58.8 -20.45 -52.0 -25.85 -44.5 -24.9 -33.8 L-32.25 -25.55 Q-37.65 -13.6 -37.4 -5.0 L-41.1 2.0 -45.75 -4.95 Q-47.8 -5.65 -49.5 -5.35 -33.6 18.15 -58.05 26.05 -69.9 31.65 -66.45 36.4 -43.7 44.85 -43.95 49.4 -39.4 55.85 -52.25 64.85 -51.35 67.85 -51.55 71.25 -50.15 83.25 -72.75 90.45 L-64.25 83.05 Q-71.95 87.85 -86.1 89.1 -87.0 90.9 -86.4 91.7 -84.3 94.4 -73.8 94.9 -92.95 103.3 -101.0 94.65 -106.4 83.25 -89.95 74.65 L-95.7 75.25 Q-125.35 74.15 -135.25 52.9 -137.8 36.75 -122.8 32.05 -133.45 27.1 -134.2 15.15 -135.35 -11.5 -96.55 -20.65 -85.95 -21.65 -82.95 -25.65 -88.3 -25.05 -99.15 -33.85 -113.4 -51.8 -95.3 -77.7 -75.75 -100.2 -62.8 -98.95 -37.7 -98.75 -31.2 -83.75 -12.8 -94.65 7.5 -94.95 L14.05 -94.8 14.95 -94.75 Q27.35 -94.05 38.7 -89.9 M57.3 -80.1 Q63.5 -75.5 67.55 -69.8 L70.8 -65.15 Q73.8 -60.35 75.6 -55.25 79.35 -44.7 77.95 -32.85 80.35 -35.8 85.15 -39.0 95.6 -46.1 97.35 -52.7 M79.85 -19.5 Q77.15 -21.5 76.1 -23.65 L74.75 -19.5 74.65 -19.25 Q73.8 -16.95 71.2 -14.55 L70.25 -14.75 70.1 -14.75 M77.95 -32.85 Q77.35 -28.35 76.1 -23.65 M85.15 -39.0 L84.05 -37.4 90.25 -34.7 M86.85 -31.65 L81.8 -33.5 Q80.4 -30.45 80.7 -28.05 84.1 -29.6 86.85 -31.65 L92.35 -29.6 92.4 -29.65 Q103.35 -22.8 102.15 -16.9 106.5 -15.1 110.15 -12.95 M92.35 -29.6 Q85.55 -24.55 81.85 -25.15 84.5 -21.25 93.85 -19.85 98.3 -18.5 102.15 -16.9 M84.05 -37.4 Q82.65 -35.35 81.8 -33.5 M93.25 -3.55 L96.2 -4.3 Q108.8 -5.9 117.7 2.5 M80.7 -28.05 Q80.9 -26.45 81.85 -25.15 M105.3 6.9 Q109.6 9.0 113.45 11.9 122.75 22.05 122.25 32.1 122.05 37.3 119.15 42.4 123.8 39.25 126.65 42.8 129.65 49.0 109.75 53.25 103.95 57.05 95.7 57.55 M96.05 85.6 Q93.65 81.05 82.5 72.65 69.7 64.8 76.85 54.0 M119.15 42.4 Q115.6 49.45 109.75 53.25 M61.7 22.85 L66.55 24.4 Q75.35 27.3 80.8 30.15 L80.85 30.2 Q92.8 36.5 88.15 42.95 77.6 49.5 79.35 54.55 80.95 67.95 97.85 71.75 M76.05 78.75 Q72.95 76.6 70.7 73.85 L70.5 73.6 Q66.95 68.95 66.05 62.65 M80.85 30.2 Q88.35 38.4 74.8 45.7 68.1 49.4 65.25 54.75 63.7 57.45 63.3 60.7 M65.25 54.75 Q56.2 45.8 64.75 43.3 86.35 37.55 80.85 30.2 M-101.15 -61.95 Q-102.45 -58.8 -101.5 -55.45 L-101.4 -55.1 Q-99.3 -48.05 -87.25 -40.25 -68.05 -28.0 -80.5 -19.65 M-122.8 32.05 Q-124.8 21.5 -115.55 11.4 -111.55 8.55 -106.9 6.6 -108.85 0.35 -94.65 -3.7 L-98.2 -4.7 Q-112.6 -7.0 -121.6 1.35 M-87.25 -40.25 Q-81.4 -33.2 -81.8 -28.65 -82.0 -27.0 -82.95 -25.65 M-81.8 -28.65 Q-99.65 -36.55 -101.4 -55.1 M-69.8 -46.35 Q-88.55 -63.75 -59.45 -71.7 L-51.2 -71.65 -45.55 -71.65 -36.95 -71.65 Q-27.65 -73.95 -29.9 -79.8 -30.4 -81.9 -31.2 -83.75 M-51.2 -71.65 Q-69.4 -62.75 -60.4 -46.8 L-58.3 -44.25 Q-56.15 -54.8 -50.9 -63.95 -48.5 -68.1 -45.55 -71.65 M-58.3 -44.25 Q-44.0 -26.1 -52.05 -12.15 L-53.5 -10.75 Q-51.25 -7.95 -49.5 -5.35 M-53.5 -10.75 Q-55.15 -9.15 -57.05 -7.9 L-57.95 -7.3 Q-49.05 5.95 -76.65 2.5 -94.2 1.1 -106.9 6.6 M-57.95 -7.3 Q-71.75 1.8 -94.65 -3.7 M-58.05 26.05 L-60.7 26.8 Q-70.35 29.35 -76.1 32.1 L-76.15 32.15 Q-81.4 39.45 -56.15 46.55 -46.15 49.6 -55.2 58.45 -53.1 61.4 -52.25 64.85 M-76.15 32.15 Q-83.55 40.3 -67.25 48.6 -59.15 52.75 -55.2 58.45 M-64.25 83.05 L-58.85 78.15 -58.6 77.9 Q-55.25 73.2 -55.05 66.75 M-86.1 89.1 Q-83.95 84.55 -72.4 76.3 -58.9 68.8 -68.45 57.1 M-64.25 83.05 Q-61.0 80.9 -58.85 78.15 M-122.8 32.05 Q-121.85 37.5 -117.95 42.95 -113.0 50.45 -105.95 54.7 -98.8 59.0 -89.4 59.9 M-105.95 54.7 Q-129.05 49.3 -126.3 43.05 -123.65 39.4 -117.95 42.95 M-89.95 74.65 Q-71.3 71.5 -71.25 57.6 -69.95 52.4 -82.7 45.05 -88.85 38.1 -76.15 32.15" fill="none" stroke="#000000" stroke-linecap="round" stroke-linejoin="round" stroke-width="2.0"/>
  </g>
</svg>
