<?xml version="1.0" encoding="UTF-8" standalone="no"?>
<svg xmlns:xlink="http://www.w3.org/1999/xlink" height="247.5px" width="205.95px" xmlns="http://www.w3.org/2000/svg">
  <g transform="matrix(1.0, 0.0, 0.0, 1.0, 102.95, 123.75)">
    <path d="M-101.25 30.45 L-100.7 31.05 Q-100.65 29.45 -99.2 27.85 L-99.1 24.85 Q-98.2 -0.3 -85.3 -21.4 -81.75 -26.35 -77.85 -30.4 -68.05 -40.65 -55.85 -45.45 -49.4 -55.75 -44.75 -67.7 L-43.6 -70.5 Q-37.2 -85.15 -26.55 -89.3 5.25 -103.7 22.6 -115.3 34.7 -126.0 39.35 -121.35 39.75 -121.0 39.25 -120.0 L39.25 -119.95 Q38.15 -105.65 25.7 -92.8 17.7 -85.1 5.85 -77.3 -6.05 -69.3 -18.6 -66.8 L-18.6 -66.7 Q-22.45 -57.2 -27.3 -50.8 -8.15 -52.95 3.85 -49.05 L14.95 -59.95 Q22.75 -69.1 41.2 -75.5 63.65 -86.5 95.85 -96.75 102.35 -99.75 102.0 -95.35 L101.85 -94.5 Q101.2 -84.15 91.85 -78.45 72.05 -64.95 34.65 -57.45 26.65 -48.65 23.85 -47.5 M39.25 -120.0 Q37.45 -116.75 25.1 -106.05 2.55 -84.15 -25.85 -76.85 -32.85 -61.35 -41.25 -49.0 -44.8 -43.85 -50.65 -37.65 L-52.15 -36.1 M101.85 -94.5 Q100.2 -87.75 82.1 -79.35 64.8 -71.35 26.45 -62.25 21.55 -55.65 15.9 -50.55 11.55 -46.6 6.9 -43.55 L5.9 -43.0 M2.9 -48.1 L3.85 -49.05 M35.65 85.1 Q38.95 81.4 41.05 76.7 44.0 70.0 44.45 61.25 45.55 49.0 46.35 32.3 L45.85 15.9 Q47.45 -2.45 42.15 -23.25 41.15 -27.05 39.05 -30.4 34.4 -37.7 22.95 -43.5 M37.0 -2.65 L36.9 -2.85 36.95 -2.7 37.0 -2.65 Q33.1 -13.6 23.85 -25.2 M36.95 -2.7 Q42.7 10.35 39.85 33.3 39.2 38.4 39.8 45.6 42.2 58.65 30.4 67.25 20.55 73.8 11.2 75.1 L10.35 76.7 Q9.0 79.8 9.9 83.6 11.05 88.4 14.1 90.05 M24.45 99.05 Q22.8 101.2 21.8 103.1 19.15 108.05 20.65 111.6 21.25 115.85 29.9 119.2 35.7 120.7 38.7 115.5 33.25 115.6 34.7 110.05 L38.7 105.4 Q39.9 104.35 40.25 103.1 40.85 100.9 38.95 98.1 38.05 96.6 33.9 95.6 M-18.6 -66.7 L-24.7 -65.15 M-61.7 -37.05 Q-58.6 -41.1 -55.85 -45.45 M-45.6 -24.95 Q-51.0 -9.7 -53.3 3.45 -55.3 14.7 -55.0 24.35 -22.3 4.2 -14.95 -18.9 -14.15 -21.35 -13.7 -23.8 M-35.05 -43.2 Q-34.75 -43.7 -34.7 -44.2 -30.0 -47.25 -27.3 -50.8 M-55.0 24.35 Q-54.6 36.5 -50.65 46.1 -46.9 57.0 -41.45 66.6 -36.45 74.25 -35.35 79.3 -34.85 81.7 -35.25 83.55 M-79.85 -3.75 L-81.65 3.45 Q-82.95 8.7 -83.65 13.45 -85.3 23.1 -85.0 30.35 L-84.5 35.65 -84.05 39.25 Q-83.35 44.95 -81.8 50.8 -78.3 64.3 -70.65 78.65 -65.7 87.8 -55.95 89.4 L-51.5 89.75 M-85.0 30.35 Q-91.85 32.45 -99.8 32.55 L-100.3 33.0 Q-102.2 34.7 -101.9 36.8 -101.9 37.95 -100.3 38.7 L-98.6 39.2 Q-90.4 40.85 -84.05 39.25 M-100.3 33.0 Q-100.7 32.1 -100.7 31.15 L-100.7 31.05 M-83.65 13.45 Q-92.3 25.5 -97.65 27.5 -99.2 28.15 -99.2 27.85 M-100.3 38.7 Q-101.0 39.9 -100.35 41.25 L-99.5 42.6 Q-92.55 51.75 -81.8 50.8 M-42.5 100.3 L-44.4 101.9 Q-48.2 105.95 -42.7 110.6 -40.35 113.45 -42.55 116.1 -44.45 118.15 -48.6 117.65 -43.35 125.2 -33.25 121.6 -27.75 119.0 -25.85 110.95 -25.8 105.95 -28.15 101.9 -29.8 99.2 -32.5 96.9 M-14.95 -18.9 Q23.55 -18.65 36.95 -2.7" fill="none" stroke="#000000" stroke-linecap="round" stroke-linejoin="round" stroke-width="2.0"/>
    <path d="M28.75 85.7 Q30.6 81.5 30.8 76.7 L30.7 72.75 M22.05 85.75 Q17.55 81.9 15.95 78.05 M-39.75 88.15 Q-38.2 83.95 -40.85 79.3 -41.85 77.55 -43.4 75.75 M-51.35 85.25 L-55.95 83.75 Q-66.7 79.5 -68.15 70.3" fill="none" stroke="#000000" stroke-linecap="round" stroke-linejoin="round" stroke-width="1.4000000000000001"/>
  </g>
</svg>
