<?xml version="1.0" encoding="UTF-8" standalone="no"?>
<svg xmlns:xlink="http://www.w3.org/1999/xlink" height="151.0px" width="162.35px" xmlns="http://www.w3.org/2000/svg">
  <g transform="matrix(1.0, 0.0, 0.0, 1.0, 81.2, 75.5)">
    <path d="M-0.85 -40.95 Q-2.3 -17.85 -23.15 6.9 L-22.65 15.45 Q-21.2 32.1 -15.95 38.2 -34.0 39.05 -36.5 14.9 -37.55 29.45 -36.2 40.05 -35.15 48.6 -30.7 57.15 -27.4 64.3 -32.4 69.95 -41.3 79.25 -51.7 72.9 -46.4 74.5 -41.95 72.7 -37.9 71.1 -41.1 65.75 -45.15 59.65 -52.9 53.95 -85.0 30.6 -80.7 -13.5 -78.4 -40.05 -61.3 -52.15 -49.2 -61.85 -39.4 -56.45 L-38.05 -55.65 Q-36.1 -54.25 -34.6 -52.15 -32.2 -48.7 -31.15 -43.4 -14.1 -55.95 -13.6 -71.8 3.65 -77.2 24.35 -74.75 45.05 -72.35 60.45 -63.55 75.85 -54.8 79.55 -41.0 83.25 -27.25 78.35 -9.35 76.3 -20.65 64.85 -31.95 55.0 -44.65 35.2 -46.45 14.55 -47.7 -0.85 -40.95" fill="url(#gradient0)" fill-rule="evenodd" stroke="none"/>
  </g>
  <defs>
    <linearGradient gradientTransform="matrix(0.0, 0.0959, -0.0991, 0.0, 0.0, 42.3)" gradientUnits="userSpaceOnUse" id="gradient0" spreadMethod="pad" x1="-819.2" x2="819.2">
      <stop offset="0.0" stop-color="#fff23c" stop-opacity="0.0"/>
      <stop offset="0.3803921568627451" stop-color="#fff23c" stop-opacity="0.84705883"/>
      <stop offset="0.6039215686274509" stop-color="#fff23c" stop-opacity="0.8"/>
      <stop offset="1.0" stop-color="#fff23c" stop-opacity="0.0"/>
    </linearGradient>
  </defs>
</svg>
