<?xml version="1.0" encoding="UTF-8" standalone="no"?>
<svg xmlns:xlink="http://www.w3.org/1999/xlink" height="188.6px" width="206.9px" xmlns="http://www.w3.org/2000/svg">
  <g transform="matrix(1.0, 0.0, 0.0, 1.0, 103.45, 94.3)">
    <path d="M56.85 -54.75 Q30.05 -53.1 3.3 -61.75 -3.75 -47.05 -28.95 -34.9 -32.75 -24.3 -33.9 -13.9 -33.25 -1.4 -26.15 11.95 -17.0 27.95 -14.65 40.95 -13.75 46.35 -14.7 54.25 -17.8 84.0 -13.7 94.3 -22.5 89.95 -23.7 63.85 -25.2 54.3 -28.95 47.35 -44.95 28.5 -49.85 14.05 -58.9 20.35 -76.5 16.2 -70.0 15.3 -61.65 7.95 -86.9 9.9 -103.45 -2.45 -88.0 -5.2 -74.75 -19.0 -88.45 -18.0 -102.95 -26.9 -85.8 -26.95 -76.25 -41.25 -65.8 -62.05 -52.4 -75.35 -25.8 -97.85 11.95 -93.6 39.4 -92.2 54.75 -78.65 63.1 -72.35 68.0 -57.45 78.65 -35.55 102.6 -34.1 96.75 -26.4 82.4 -26.0 87.3 -17.85 103.45 -12.6 92.95 -1.8 75.5 0.45 79.25 6.4 84.1 6.5 77.0 10.05 70.9 7.65 L70.2 10.85 Q67.15 26.25 71.8 45.7 78.7 84.85 58.15 88.9 71.5 80.8 61.7 54.9 49.65 33.1 57.3 14.1 64.9 -4.9 63.35 -17.35 61.85 -38.6 57.85 -52.15 L56.85 -54.75" fill="url(#gradient0)" fill-rule="evenodd" stroke="none"/>
  </g>
  <defs>
    <linearGradient gradientTransform="matrix(0.0, 0.0971, -0.1263, 0.0, 0.0, 24.6)" gradientUnits="userSpaceOnUse" id="gradient0" spreadMethod="pad" x1="-819.2" x2="819.2">
      <stop offset="0.0" stop-color="#fff23c" stop-opacity="0.0"/>
      <stop offset="0.3803921568627451" stop-color="#fff23c" stop-opacity="0.84705883"/>
      <stop offset="0.6039215686274509" stop-color="#fff23c" stop-opacity="0.8"/>
      <stop offset="1.0" stop-color="#fff23c" stop-opacity="0.0"/>
    </linearGradient>
  </defs>
</svg>
