<?xml version="1.0" encoding="UTF-8" standalone="no"?>
<svg xmlns:xlink="http://www.w3.org/1999/xlink" height="117.75px" width="130.2px" xmlns="http://www.w3.org/2000/svg">
  <g transform="matrix(1.0, 0.0, 0.0, 1.0, 65.1, 58.9)">
    <path d="M65.1 -58.9 Q64.75 -53.1 64.05 -48.35 L62.5 -40.85 61.4 -37.15 58.5 -28.5 58.35 -28.0 55.75 -20.3 55.65 -20.0 59.5 -16.25 62.05 -13.5 57.55 -15.3 Q62.1 -4.6 58.4 6.2 57.1 -2.75 51.05 -8.5 36.5 -14.4 15.15 -15.5 -6.3 -16.0 -26.4 -8.85 -27.8 -7.7 -28.7 -5.75 -31.35 0.65 -32.2 5.75 -33.4 3.7 -33.15 0.3 L-34.85 7.1 -35.6 4.15 Q-39.2 10.85 -41.15 21.1 -43.45 33.25 -40.3 45.25 L-46.85 54.85 -53.35 43.15 -60.85 39.7 Q-70.7 9.5 -57.75 -11.4 L-62.3 -7.2 Q-60.95 -11.9 -57.8 -16.55 -59.45 -19.65 -60.95 -25.05 -63.65 -34.45 -64.1 -43.7 -64.7 -53.05 -63.05 -58.0 -60.1 -57.0 -41.85 -53.0 -27.15 -49.75 -19.45 -44.35 L-18.85 -44.6 Q-6.45 -48.8 -0.15 -52.05 -1.3 -47.15 -8.1 -44.1 4.2 -44.75 16.8 -42.95 L22.35 -41.8 Q33.05 -51.3 49.85 -55.4 L65.1 -58.9 M-53.05 -24.3 L-52.5 -23.05 -50.85 -19.5 -52.65 -16.05 -49.05 -16.55 Q-44.4 -16.95 -38.75 -21.25 -32.0 -26.5 -31.85 -28.3 -35.9 -31.2 -39.4 -33.85 L-42.55 -36.25 Q-53.8 -44.75 -59.1 -50.45 -58.2 -37.5 -53.6 -25.8 L-55.3 -23.9 -53.05 -24.3 M-46.0 57.15 L-39.5 49.15 -38.95 51.65 -44.85 58.85 -46.0 57.15" fill="#8ef7aa" fill-rule="evenodd" stroke="none"/>
  </g>
</svg>
