<?xml version="1.0" encoding="UTF-8" standalone="no"?>
<svg xmlns:xlink="http://www.w3.org/1999/xlink" height="11.4px" width="16.1px" xmlns="http://www.w3.org/2000/svg">
  <g transform="matrix(1.0, 0.0, 0.0, 1.0, 83.55, 64.65)">
    <path d="M-70.55 -54.3 L-76.95 -54.55 Q-81.3 -55.55 -82.25 -57.05 -83.1 -57.6 -82.6 -60.55 -81.8 -63.5 -79.95 -63.85 -74.15 -64.3 -69.3 -61.9 -67.6 -59.45 -68.5 -57.15 -69.45 -54.9 -70.55 -54.3" fill="#eeec7e" fill-rule="evenodd" stroke="none"/>
    <path d="M-70.55 -54.3 Q-69.45 -54.9 -68.5 -57.15 -67.6 -59.45 -69.3 -61.9 -74.15 -64.3 -79.95 -63.85 -81.8 -63.5 -82.6 -60.55 -83.1 -57.6 -82.25 -57.05 -81.3 -55.55 -76.95 -54.55 L-70.55 -54.3 Z" fill="none" stroke="#000000" stroke-linecap="round" stroke-linejoin="round" stroke-width="1.5"/>
  </g>
</svg>
