<?xml version="1.0" encoding="UTF-8" standalone="no"?>
<svg xmlns:xlink="http://www.w3.org/1999/xlink" height="105.55px" width="131.85px" xmlns="http://www.w3.org/2000/svg">
  <g transform="matrix(1.0, 0.0, 0.0, 1.0, 65.9, 52.8)">
    <path d="M56.2 -3.6 Q58.5 2.45 58.15 9.85 52.6 2.55 45.1 0.5 L47.7 -3.0 36.35 -0.8 38.6 -4.05 28.15 -1.2 30.3 -5.15 21.85 -1.2 23.45 -4.95 17.9 -1.65 17.9 -6.25 14.6 -1.2 11.35 -7.55 11.35 -1.65 4.8 -6.45 4.8 -1.2 -0.65 -5.4 0.25 -1.65 -5.2 -6.05 -5.2 -1.4 -11.5 -5.15 -9.55 -0.8 Q-17.45 -3.8 -24.55 -1.4 -31.3 0.75 -37.35 7.75 -40.25 11.7 -39.35 15.75 -39.3 22.5 -44.55 30.55 -49.35 38.7 -51.5 52.45 L-51.55 52.75 -51.95 52.45 Q-59.65 46.3 -62.2 34.2 -65.7 16.2 -60.85 -1.15 L-64.65 4.4 Q-64.7 -3.1 -62.1 -10.5 L-65.9 -6.9 Q-64.85 -15.35 -59.3 -22.9 L-64.35 -20.6 Q-58.35 -35.55 -42.85 -40.45 -47.6 -42.05 -48.95 -46.45 -41.55 -41.05 -28.25 -45.8 -17.95 -49.45 -5.65 -47.8 L-11.9 -52.8 Q3.65 -49.15 17.9 -48.45 L25.05 -47.7 20.5 -52.6 Q33.05 -48.0 42.4 -40.3 L38.4 -47.55 Q50.95 -43.4 56.2 -34.95 61.65 -23.5 56.2 -12.1 61.8 -18.45 65.15 -27.15 68.75 -15.4 56.2 -3.6 69.05 -5.8 61.45 17.45 63.45 0.25 56.2 -3.6" fill="url(#gradient0)" fill-rule="evenodd" stroke="none"/>
  </g>
  <defs>
    <linearGradient gradientTransform="matrix(0.0, 0.0993, -0.0805, 0.0, 0.05, 79.7)" gradientUnits="userSpaceOnUse" id="gradient0" spreadMethod="pad" x1="-819.2" x2="819.2">
      <stop offset="0.0" stop-color="#fff23c" stop-opacity="0.0"/>
      <stop offset="0.3803921568627451" stop-color="#fff23c" stop-opacity="0.84705883"/>
      <stop offset="0.6039215686274509" stop-color="#fff23c" stop-opacity="0.8"/>
      <stop offset="1.0" stop-color="#fff23c" stop-opacity="0.0"/>
    </linearGradient>
  </defs>
</svg>
