<?xml version="1.0" encoding="UTF-8" standalone="no"?>
<svg xmlns:xlink="http://www.w3.org/1999/xlink" height="138.65px" width="149.9px" xmlns="http://www.w3.org/2000/svg">
  <g transform="matrix(1.0, 0.0, 0.0, 1.0, 74.95, 69.3)">
    <path d="M-15.5 -66.95 Q-3.95 -70.3 12.3 -68.9 L19.1 -68.25 Q38.65 -64.45 52.95 -51.5 55.55 -48.95 57.75 -45.9 L59.3 -43.55 Q68.7 -29.7 74.95 -15.55 72.25 -16.4 70.3 -18.25 78.85 27.35 64.6 46.7 L60.8 54.5 Q58.05 59.8 48.5 65.2 63.65 38.9 61.9 -10.8 L61.85 -10.9 Q60.45 -24.95 52.05 -32.0 37.95 -31.5 22.2 -24.4 8.2 -30.6 -8.1 -31.8 -24.4 -33.05 -28.2 -26.75 -32.0 -20.45 -32.6 11.25 -33.2 42.9 -21.15 69.35 -29.55 63.3 -33.55 58.5 L-34.7 57.45 Q-43.9 54.75 -50.05 49.2 -68.2 31.55 -67.8 6.6 -67.6 -3.85 -66.05 -13.05 -69.95 -7.25 -74.95 -6.9 -67.0 -15.65 -61.2 -30.95 L-61.0 -31.45 -58.9 -36.25 Q-51.6 -51.0 -34.95 -59.85 -26.1 -64.6 -15.5 -66.95" fill="#56c5c9" fill-rule="evenodd" stroke="none"/>
  </g>
</svg>
