<?xml version="1.0" encoding="UTF-8" standalone="no"?>
<svg xmlns:xlink="http://www.w3.org/1999/xlink" height="47.4px" width="115.2px" xmlns="http://www.w3.org/2000/svg">
  <g transform="matrix(1.0, 0.0, 0.0, 1.0, 0.0, 23.7)">
    <path d="M3.75 16.8 L4.95 13.5 0.55 15.6 Q2.1 9.0 7.4 2.4 1.35 -1.25 0.0 -5.2 L2.1 -5.2 0.55 -6.9 Q4.4 -8.2 8.65 -8.55 L13.5 -8.65 Q16.3 -18.65 25.2 -23.7 L26.2 -18.65 29.0 -20.15 29.9 -15.3 Q30.25 -11.75 29.95 -7.9 L32.35 -8.4 Q38.9 -9.5 43.95 -6.65 L39.65 -3.6 42.45 -3.6 41.6 -1.6 Q38.5 4.5 30.5 7.85 34.85 14.3 34.35 19.9 L30.5 17.8 31.65 21.75 Q19.8 20.4 14.8 14.7 10.3 17.25 3.75 16.8 M94.8 -4.0 Q99.85 -8.55 104.9 -10.45 104.45 -6.55 102.8 -5.05 L105.0 -5.9 105.1 -5.95 Q107.05 -6.85 107.7 -7.75 109.2 -0.2 104.55 5.45 108.1 6.55 110.05 8.45 113.35 11.4 115.2 11.8 L111.25 14.1 114.0 14.1 Q109.4 20.7 101.7 21.05 L104.8 23.7 100.15 22.65 90.5 15.4 Q94.85 7.15 94.75 -1.75 L94.8 -4.0" fill="#ffffff" fill-rule="evenodd" stroke="none"/>
  </g>
</svg>
