<?xml version="1.0" encoding="UTF-8" standalone="no"?>
<svg xmlns:xlink="http://www.w3.org/1999/xlink" height="153.5px" width="178.35px" xmlns="http://www.w3.org/2000/svg">
  <g transform="matrix(1.0, 0.0, 0.0, 1.0, 1.0, 76.75)">
    <path d="M54.0 -64.35 Q58.25 -70.05 63.1 -75.75 62.85 -70.6 68.15 -61.75 L69.8 -58.85 71.1 -59.5 72.0 -54.65 Q75.8 -50.95 74.45 -47.75 81.0 -48.85 86.05 -46.0 L81.75 -42.95 84.55 -42.95 83.7 -40.95 Q95.05 -42.1 104.55 -40.05 121.75 -50.7 139.45 -59.85 L145.65 -62.95 Q148.85 -49.65 147.2 -45.3 149.15 -46.2 149.8 -47.1 151.3 -39.55 146.65 -33.9 150.2 -32.8 152.15 -30.9 155.45 -27.95 157.3 -27.55 L153.35 -25.25 156.1 -25.25 Q151.5 -18.65 143.8 -18.3 L146.9 -15.65 Q157.0 -14.0 165.7 -17.15 162.65 -7.15 151.5 0.7 161.55 10.85 176.35 17.1 168.05 32.2 152.05 37.2 156.1 53.1 170.15 67.6 156.95 69.55 148.7 62.6 151.05 69.15 156.3 75.75 141.65 69.6 142.35 57.6 141.2 34.3 138.6 25.6 L135.9 16.3 Q131.6 -0.1 126.0 -3.85 L100.0 -8.15 Q81.05 -8.25 64.1 -2.8 46.05 11.85 53.25 35.55 45.25 33.7 44.05 25.8 38.5 40.35 44.05 55.0 18.35 48.95 19.5 25.6 10.0 26.5 0.0 22.1 8.15 18.75 14.6 11.45 18.6 -10.95 31.25 -25.25 39.05 -44.45 54.0 -64.35 51.3 -56.65 50.75 -47.9 L55.6 -48.0 Q58.4 -58.0 67.3 -63.05 L68.3 -58.0 69.8 -58.85 M27.95 -16.2 Q29.35 -20.7 31.25 -25.25 M72.0 -54.65 Q72.35 -51.1 72.05 -47.25 L74.45 -47.75 M43.8 -19.35 L45.85 -22.55 47.05 -25.85 42.65 -23.75 Q44.2 -30.35 49.5 -36.95 43.45 -40.6 42.1 -44.55 L44.2 -44.55 42.65 -46.25 Q46.5 -47.55 50.75 -47.9 M83.7 -40.95 Q80.6 -34.85 72.6 -31.5 76.95 -25.05 76.45 -19.45 L72.6 -21.55 73.75 -17.6 Q61.9 -18.95 56.9 -24.65 52.4 -22.1 45.85 -22.55 M139.45 -59.85 Q137.1 -53.7 136.9 -43.35 141.95 -47.9 147.0 -49.8 146.55 -45.9 144.9 -44.4 L147.1 -45.25 147.2 -45.3 M136.9 -43.35 L136.85 -41.1 Q136.95 -32.2 132.6 -23.95 137.35 -20.2 142.25 -16.7 L146.9 -15.65 M142.25 -16.7 Q138.4 -17.7 134.25 -19.45 M104.55 -40.05 Q115.35 -37.65 123.8 -31.05 L132.6 -23.95 M19.5 25.6 L22.95 25.1 M23.65 -2.65 Q19.7 5.6 14.6 11.45" fill="none" stroke="#000000" stroke-linecap="round" stroke-linejoin="round" stroke-width="2.0"/>
  </g>
</svg>
