<?xml version="1.0" encoding="UTF-8" standalone="no"?>
<svg xmlns:xlink="http://www.w3.org/1999/xlink" height="75.9px" width="315.6px" xmlns="http://www.w3.org/2000/svg">
  <g transform="matrix(1.0, 0.0, 0.0, 1.0, 157.8, 37.95)">
    <path d="M-135.15 2.2 Q-159.45 -6.15 -157.7 -17.1 -158.05 -34.35 -128.65 -37.95 L59.65 -37.95 Q55.15 -20.35 71.25 -21.05 75.55 -22.3 77.55 -24.6 79.9 -26.75 79.9 -29.95 79.95 -36.45 73.05 -37.95 L92.1 -37.95 Q87.9 -32.05 78.95 -23.45 L71.6 -17.1 Q61.05 -6.45 44.6 -4.3 L43.0 -4.15 Q53.95 -8.3 48.45 -18.4 L47.5 -19.85 Q37.7 -32.25 24.2 -27.45 20.9 -26.45 17.95 -24.0 11.45 -18.65 12.35 -10.05 L12.45 -8.6 Q14.65 5.7 29.9 6.3 15.75 6.55 0.25 6.3 6.75 3.7 8.4 -5.55 8.85 -7.95 8.75 -9.75 8.15 -15.6 2.0 -17.75 -6.1 -20.8 -12.25 -17.1 -26.0 -8.95 -18.05 6.1 L-58.7 5.05 -70.9 4.5 -99.4 4.5 -113.5 4.5 -124.25 4.5 Q-131.65 3.35 -135.15 2.2 M104.2 -7.95 Q112.4 -15.45 117.6 -23.45 121.85 -30.5 123.9 -37.95 L128.2 -37.95 Q150.5 -37.4 156.0 -29.95 160.55 -24.0 153.5 -13.5 152.0 -11.25 148.05 -9.1 136.95 -3.15 114.15 0.7 L89.15 3.6 Q97.55 -2.0 104.2 -7.95" fill="#46bbc6" fill-rule="evenodd" stroke="none"/>
    <path d="M-135.15 2.2 Q-131.65 3.35 -124.25 4.5 L-113.5 4.5 Q-121.5 20.65 -147.35 19.95 L-135.15 2.2 M-99.4 4.5 L-70.9 4.5 -58.7 5.05 Q-69.65 31.25 -113.2 37.95 -99.85 21.25 -99.4 4.5" fill="#4667c6" fill-rule="evenodd" stroke="none"/>
  </g>
</svg>
