<?xml version="1.0" encoding="UTF-8" standalone="no"?>
<svg xmlns:xlink="http://www.w3.org/1999/xlink" height="36.3px" width="77.7px" xmlns="http://www.w3.org/2000/svg">
  <g transform="matrix(1.0, 0.0, 0.0, 1.0, 38.85, 18.15)">
    <path d="M-14.8 -6.4 L-14.8 0.0 -23.85 0.0 -23.85 3.9 -14.8 3.6 -14.8 6.15 Q-9.9 8.0 -10.6 11.7 -9.65 13.15 -10.3 15.85 L-13.15 16.8 Q-25.3 19.95 -38.45 15.85 L-38.85 -15.75 Q-24.1 -20.55 -14.8 -15.75 L-14.8 -10.1 -24.35 -10.1 -24.35 -6.1 -14.8 -6.4 M11.95 -15.95 Q22.55 -19.75 33.1 -15.95 L33.5 -9.9 23.15 -9.05 23.15 -5.25 33.5 -6.4 33.65 -0.7 23.75 -0.1 23.75 4.0 34.0 3.45 34.0 4.65 Q38.8 8.5 38.85 12.25 38.85 13.6 38.45 15.1 24.9 20.45 11.95 15.1 L11.95 -15.95" fill="#cc0000" fill-rule="evenodd" stroke="none"/>
  </g>
</svg>
