<?xml version="1.0" encoding="UTF-8" standalone="no"?>
<svg xmlns:xlink="http://www.w3.org/1999/xlink" height="358.25px" width="486.2px" xmlns="http://www.w3.org/2000/svg">
  <g transform="matrix(1.0, 0.0, 0.0, 1.0, 243.1, 179.15)">
    <path d="M-14.75 -151.8 Q-24.5 -152.75 -32.25 -155.45 -43.9 -159.5 -43.9 -165.3 L-43.9 -165.35 -236.55 -165.35 -243.1 -170.65 -41.0 -170.65 Q-38.15 -173.05 -32.25 -175.05 -20.5 -179.15 -3.95 -179.15 L2.6 -179.0 Q14.95 -178.3 24.25 -175.05 30.05 -173.05 33.05 -170.65 L234.35 -170.65 240.8 -165.35 35.9 -165.35 35.9 -165.3 Q35.9 -159.5 24.25 -155.45 15.55 -152.4 4.25 -151.65 L4.25 -139.75 Q20.05 -138.95 32.05 -135.4 46.95 -131.0 46.95 -124.7 46.95 -118.4 32.4 -114.0 L32.4 -97.8 Q54.5 -87.45 32.65 -75.1 L28.85 -75.25 Q16.15 -75.85 2.6 -75.95 -14.3 -76.1 -32.45 -75.45 L-38.2 -75.45 Q-59.45 -87.45 -37.8 -97.55 L-37.8 -113.15 -40.45 -113.95 Q-45.05 -115.3 -48.3 -116.85 L-49.95 -117.7 Q-55.5 -120.85 -55.5 -124.7 -55.5 -131.0 -40.45 -135.4 -29.35 -138.8 -14.75 -139.65 L-14.75 -151.8 M168.4 145.0 L168.4 125.5 177.45 124.0 177.45 144.55 197.4 143.6 197.4 119.25 203.7 117.3 203.7 143.2 221.5 141.8 Q230.0 140.0 232.95 129.05 234.1 119.35 240.05 122.45 243.4 124.0 243.05 130.9 242.45 145.1 230.0 148.45 230.7 150.5 230.65 153.8 229.85 169.25 215.0 171.9 115.6 183.25 2.6 176.65 L-52.3 172.5 Q-68.75 168.55 -72.55 155.6 -76.45 142.5 -69.05 140.6 -62.65 140.35 -60.85 152.95 -58.4 168.65 2.6 168.75 L13.9 168.55 13.9 152.95 2.6 152.15 -30.0 149.4 Q-45.8 145.5 -49.6 132.65 -50.8 128.25 -50.8 125.05 -50.8 119.0 -46.05 117.8 -40.05 117.45 -38.15 130.05 -36.25 142.5 2.6 145.0 L13.9 145.4 13.9 123.95 Q18.65 125.3 21.15 125.65 L21.15 145.6 33.95 145.4 42.15 145.6 42.15 128.85 48.8 129.2 48.8 145.7 Q117.9 146.7 168.4 145.0 M178.25 52.65 Q158.55 44.95 163.55 30.1 167.45 23.2 164.95 16.55 159.15 16.65 158.05 13.3 156.85 6.45 162.35 3.6 167.7 2.0 171.85 5.45 176.45 9.6 176.25 20.9 176.15 25.1 175.55 29.85 L175.8 29.85 181.25 29.85 Q188.5 22.8 186.0 16.15 180.25 16.2 179.1 12.85 177.9 6.05 183.4 3.2 188.75 1.55 192.85 5.0 197.5 9.15 197.3 20.35 197.15 31.65 193.45 46.25 193.15 51.1 220.1 83.95 L199.45 86.15 178.25 52.65 M177.45 153.35 L177.45 167.0 208.2 164.85 Q217.1 163.05 220.1 151.9 220.25 150.7 220.55 149.65 L177.45 153.35 M21.15 153.55 L21.15 168.75 Q109.7 170.0 168.4 167.45 L168.4 153.9 Q135.7 155.2 99.7 154.5 63.7 153.8 21.15 153.55" fill="#597b91" fill-rule="evenodd" stroke="none"/>
    <path d="M4.95 46.8 L-17.25 46.8 -20.6 41.75 1.85 41.75 4.95 46.8" fill="#7c838d" fill-rule="evenodd" stroke="none"/>
  </g>
</svg>
