<?xml version="1.0" encoding="UTF-8" standalone="no"?>
<svg xmlns:xlink="http://www.w3.org/1999/xlink" height="23.2px" width="60.8px" xmlns="http://www.w3.org/2000/svg">
  <g transform="matrix(1.0, 0.0, 0.0, 1.0, 30.4, 11.6)">
    <path d="M17.15 10.1 L16.55 0.8 15.9 -8.55 Q25.0 -13.55 28.75 -6.25 32.3 2.1 16.55 0.8 M10.1 7.85 L10.1 9.6 M22.45 7.6 L22.45 9.35 M-9.3 -9.05 L-2.4 -9.05 4.55 -9.05 M-29.4 10.6 L-29.4 1.85 -29.4 -6.75 Q-27.5 -11.4 -20.85 -9.3 -17.45 -7.4 -18.1 -4.25 -19.2 0.4 -27.8 1.7 -21.85 3.15 -16.6 9.35 M-27.8 1.7 L-29.4 1.85 M-12.8 7.85 L-12.8 9.85 M-7.75 9.1 L-2.4 9.1 -2.4 -9.05 M-2.4 9.1 L4.8 9.1" fill="none" stroke="#000000" stroke-linecap="round" stroke-linejoin="round" stroke-width="2.0"/>
  </g>
</svg>
