<?xml version="1.0" encoding="UTF-8" standalone="no"?>
<svg xmlns:xlink="http://www.w3.org/1999/xlink" height="98.75px" width="42.1px" xmlns="http://www.w3.org/2000/svg">
  <g transform="matrix(1.0, 0.0, 0.0, 1.0, 21.05, 49.4)">
    <path d="M-12.05 -48.1 L-15.75 -46.75 -16.35 -46.45 Q-19.25 -44.8 -20.1 -41.85 -20.3 -37.15 -15.4 -35.0 -15.25 -34.85 -15.0 -34.85 -7.7 -32.7 -1.35 -35.8 L0.0 -36.55 Q3.5 -38.75 3.5 -41.45 3.5 -42.4 3.1 -43.4 1.15 -47.4 -4.85 -48.4 L-12.05 -48.1 M3.5 -41.45 L4.6 -19.35 Q5.05 -9.8 5.85 0.4 14.15 1.55 20.3 6.5 L15.7 7.05 19.2 12.75 Q11.1 7.95 6.5 7.65 L6.7 10.5 Q8.5 24.9 11.55 38.6 12.4 41.8 10.8 44.25 L9.7 45.55 Q6.85 48.2 1.35 48.6 -3.85 48.75 -6.85 46.55 -9.8 44.1 -9.85 38.85 L-10.6 18.9 -11.25 10.95 -12.15 3.25 Q-13.05 -3.8 -14.3 -9.55 L-20.05 -39.1 -20.25 -40.15 -20.25 -41.2 -20.1 -41.85 M-12.15 3.25 Q-5.35 8.55 2.95 5.9 L6.25 4.65 5.85 0.4 M6.25 4.65 L6.5 7.65 M-11.25 10.95 Q-3.25 15.35 3.9 12.15 5.3 11.5 6.7 10.5" fill="none" stroke="#000000" stroke-linecap="round" stroke-linejoin="round" stroke-width="1.5"/>
    <path d="M-16.35 -46.45 Q-19.75 -43.55 -18.45 -40.6 -17.0 -37.1 -12.6 -35.85 -5.6 -34.05 0.5 -38.4 2.6 -40.2 2.0 -41.95 1.5 -43.4 0.9 -43.95 -0.65 -45.85 -5.25 -45.2 -9.45 -44.55 -10.15 -42.1 -10.55 -40.15 -9.4 -39.15 -7.95 -38.15 -5.2 -39.1 -2.95 -40.1 -3.4 -41.6 -3.7 -42.8 -5.6 -42.6 -7.2 -42.3 -7.4 -41.5 -7.55 -40.3 -5.8 -41.0 L-5.4 -40.05 Q-6.6 -39.55 -7.55 -39.75 -8.9 -40.3 -8.7 -41.7 -8.2 -43.45 -5.45 -43.75 -2.5 -44.0 -1.85 -41.95 -1.15 -40.05 -3.75 -38.45 -6.6 -36.8 -9.75 -37.9 -12.35 -39.05 -11.25 -41.85 L-12.05 -48.1 Z" fill="none" stroke="#000000" stroke-linecap="round" stroke-linejoin="round" stroke-width="1.0"/>
  </g>
</svg>
