<?xml version="1.0" encoding="UTF-8" standalone="no"?>
<svg xmlns:xlink="http://www.w3.org/1999/xlink" height="16.7px" width="18.7px" xmlns="http://www.w3.org/2000/svg">
  <g transform="matrix(1.0, 0.0, 0.0, 1.0, 9.35, 8.35)">
    <path d="M2.05 -5.75 L3.4 -6.0 Q5.3 -6.5 6.65 -7.6 8.35 -5.9 9.0 -3.4 10.0 0.35 8.1 3.7 7.15 5.35 5.6 6.5 4.2 7.55 2.4 8.0 L1.2 8.3 -2.2 8.1 -4.65 7.1 -6.3 5.95 Q-8.25 4.15 -9.0 1.45 -10.0 -2.3 -8.05 -5.65 -7.1 -7.25 -5.75 -8.35 L-3.9 -6.95 Q-2.7 -6.25 -1.45 -5.95 L2.05 -5.75" fill="#51d379" fill-rule="evenodd" stroke="none"/>
  </g>
</svg>
