<?xml version="1.0" encoding="UTF-8" standalone="no"?>
<svg xmlns:xlink="http://www.w3.org/1999/xlink" height="49.05px" width="52.0px" xmlns="http://www.w3.org/2000/svg">
  <g transform="matrix(1.0, 0.0, 0.0, 1.0, 26.0, 24.55)">
    <path d="M13.2 -12.4 Q12.5 -13.4 12.75 -14.55 12.9 -15.7 13.95 -16.4 14.9 -17.05 16.1 -16.85 17.25 -16.6 17.9 -15.65 18.55 -14.65 18.35 -13.5 18.1 -12.35 17.15 -11.65 16.2 -10.95 15.0 -11.2 13.85 -11.4 13.2 -12.4 M13.05 -14.5 Q12.8 -13.5 13.4 -12.6 14.05 -11.75 15.0 -11.55 16.05 -11.4 16.9 -11.95 17.75 -12.55 17.95 -13.55 18.2 -14.6 17.6 -15.45 16.95 -16.3 15.95 -16.5 15.0 -16.65 14.05 -16.1 13.25 -15.5 13.05 -14.5 M0.6 11.85 Q-0.2 12.45 -0.45 13.5 -0.65 14.45 -0.05 15.3 0.55 16.2 1.55 16.4 2.6 16.55 3.45 16.0 4.3 15.4 4.5 14.45 4.7 13.4 4.1 12.55 3.5 11.65 2.45 11.5 1.5 11.3 0.6 11.85 M2.65 11.15 Q3.75 11.35 4.45 12.3 5.1 13.35 4.9 14.45 4.65 15.65 3.7 16.35 2.7 16.95 1.55 16.75 0.35 16.55 -0.3 15.6 -1.0 14.55 -0.75 13.4 -0.5 12.25 0.45 11.6 1.45 10.95 2.65 11.15 M-15.05 -14.2 Q-16.0 -14.35 -16.9 -13.8 -17.7 -13.2 -17.95 -12.25 -18.15 -11.25 -17.55 -10.35 -16.95 -9.5 -15.95 -9.25 -14.9 -9.15 -14.05 -9.7 -13.2 -10.25 -13.05 -11.3 -12.8 -12.3 -13.45 -13.15 -14.05 -14.0 -15.05 -14.2 M-14.9 -14.55 Q-13.8 -14.3 -13.1 -13.35 -12.45 -12.35 -12.6 -11.2 -12.85 -10.05 -13.8 -9.4 -14.85 -8.7 -15.95 -8.9 -17.15 -9.15 -17.8 -10.1 -18.5 -11.1 -18.25 -12.25 -18.05 -13.45 -17.05 -14.1 -16.1 -14.75 -14.9 -14.55" fill="#bbc2bf" fill-rule="evenodd" stroke="none"/>
    <path d="M13.05 -14.5 Q12.8 -13.5 13.4 -12.6 14.05 -11.75 15.0 -11.55 16.05 -11.4 16.9 -11.95 17.75 -12.55 17.95 -13.55 18.2 -14.6 17.6 -15.45 16.95 -16.3 15.95 -16.5 15.0 -16.65 14.05 -16.1 13.25 -15.5 13.05 -14.5 M11.95 -19.2 Q9.8 -17.75 9.35 -15.2 8.85 -12.65 10.3 -10.5 11.8 -8.4 14.3 -7.9 16.85 -7.4 19.05 -8.9 21.2 -10.35 21.65 -12.9 22.15 -15.45 20.65 -17.55 19.2 -19.7 16.65 -20.2 14.05 -20.65 11.95 -19.2 M2.2 -11.75 Q-1.0 -12.35 -3.7 -10.45 -6.45 -8.65 -7.05 -5.45 -7.65 -2.25 -5.85 0.5 -3.95 3.2 -0.75 3.85 2.5 4.4 5.2 2.6 7.9 0.75 8.5 -2.45 9.1 -5.7 7.25 -8.45 5.4 -11.15 2.2 -11.75 M3.15 7.8 Q0.65 7.35 -1.5 8.75 -3.65 10.2 -4.1 12.8 -4.6 15.3 -3.1 17.5 -1.65 19.6 0.9 20.1 3.4 20.6 5.55 19.1 7.65 17.65 8.2 15.1 8.65 12.55 7.2 10.4 5.7 8.25 3.15 7.8 M0.6 11.85 Q-0.2 12.45 -0.45 13.5 -0.65 14.45 -0.05 15.3 0.55 16.2 1.55 16.4 2.6 16.55 3.45 16.0 4.3 15.4 4.5 14.45 4.7 13.4 4.1 12.55 3.5 11.65 2.45 11.5 1.5 11.3 0.6 11.85 M-20.65 -8.2 Q-19.2 -6.1 -16.65 -5.6 -14.15 -5.1 -12.0 -6.55 -9.8 -8.05 -9.35 -10.6 -8.85 -13.15 -10.35 -15.25 -11.8 -17.45 -14.35 -17.85 -16.9 -18.4 -19.0 -16.9 -21.15 -15.45 -21.6 -12.9 -22.1 -10.35 -20.65 -8.2 M-15.05 -14.2 Q-16.0 -14.35 -16.9 -13.8 -17.7 -13.2 -17.95 -12.25 -18.15 -11.25 -17.55 -10.35 -16.95 -9.5 -15.95 -9.25 -14.9 -9.15 -14.05 -9.7 -13.2 -10.25 -13.05 -11.3 -12.8 -12.3 -13.45 -13.15 -14.05 -14.0 -15.05 -14.2" fill="none" stroke="#000000" stroke-linecap="round" stroke-linejoin="round" stroke-width="1.0"/>
    <path d="M6.35 -17.7 Q7.45 -20.4 10.0 -22.05 13.35 -24.35 17.25 -23.6 21.25 -22.85 23.55 -19.5 25.8 -16.2 25.05 -12.25 24.3 -8.25 20.95 -6.0 18.25 -4.15 15.2 -4.3 12.9 -3.45 11.0 -1.75 8.5 0.8 8.75 4.25 8.75 6.1 9.55 7.9 L10.05 8.5 Q12.35 11.85 11.6 15.85 10.85 19.8 7.5 22.05 4.15 24.35 0.2 23.55 -3.75 22.85 -6.05 19.5 -8.3 16.2 -7.55 12.2 L-6.7 9.6 Q-5.75 7.1 -6.2 4.6 -7.05 1.35 -9.65 -0.55 -11.9 -2.1 -14.6 -1.95 L-17.35 -2.15 Q-21.3 -2.85 -23.6 -6.2 -25.8 -9.55 -25.05 -13.55 -24.35 -17.45 -21.0 -19.75 -17.7 -22.0 -13.7 -21.3 -9.75 -20.55 -7.45 -17.2 L-7.3 -16.95 -7.25 -16.85 Q-6.1 -15.2 -3.1 -14.1 -0.15 -13.3 2.8 -14.5 5.25 -15.65 6.35 -17.7" fill="none" stroke="#000000" stroke-linecap="round" stroke-linejoin="round" stroke-width="1.5"/>
  </g>
</svg>
