<?xml version="1.0" encoding="UTF-8" standalone="no"?>
<svg xmlns:xlink="http://www.w3.org/1999/xlink" height="37.45px" width="47.8px" xmlns="http://www.w3.org/2000/svg">
  <g transform="matrix(1.0, 0.0, 0.0, 1.0, 23.9, 18.75)">
    <path d="M23.75 9.3 Q22.0 13.6 14.15 13.45 18.1 2.25 15.5 -7.8 25.1 3.45 23.75 9.3 M-7.35 -15.85 Q-7.8 -15.15 -8.45 -15.1 -9.2 -15.0 -9.9 -15.45 -10.5 -15.9 -10.65 -16.65 -10.8 -17.4 -10.35 -18.1 -9.9 -18.7 -9.05 -18.75 -8.3 -18.85 -7.7 -18.4 -7.05 -17.95 -6.9 -17.2 -6.9 -16.45 -7.35 -15.85 M-11.7 17.55 Q-20.4 20.15 -23.55 16.75 -25.3 2.45 -18.85 -3.55 -18.95 7.45 -11.7 17.55" fill="#6e84db" fill-rule="evenodd" stroke="none"/>
  </g>
</svg>
