<?xml version="1.0" encoding="UTF-8" standalone="no"?>
<svg xmlns:xlink="http://www.w3.org/1999/xlink" height="57.95px" width="46.35px" xmlns="http://www.w3.org/2000/svg">
  <g transform="matrix(1.0, 0.0, 0.0, 1.0, 23.15, 29.0)">
    <path d="M1.05 0.3 Q2.0 0.2 2.75 0.75 3.6 1.35 3.75 2.4 3.9 3.45 3.25 4.25 2.7 5.1 1.65 5.25 0.65 5.4 -0.25 4.8 -1.05 4.2 -1.2 3.15 L-1.2 3.1 Q-1.35 2.1 -0.75 1.3 -0.1 0.45 0.9 0.3 L1.05 0.3" fill="#000000" fill-rule="evenodd" stroke="none"/>
    <path d="M-9.65 20.6 L-11.35 19.5 Q-18.25 14.35 -19.55 5.85 -20.85 -2.65 -15.8 -9.6 -10.7 -16.6 -2.2 -17.9 6.35 -19.2 13.3 -14.1 20.3 -8.95 21.6 -0.45 22.9 8.05 17.75 15.0 L16.8 16.3 21.15 19.05 Q23.0 20.6 21.6 22.45 20.55 23.75 18.65 22.6 L13.6 19.4 Q9.55 22.45 4.15 23.3 -1.0 24.1 -5.65 22.5 L-9.1 26.9 Q-10.65 28.55 -11.95 27.6 -13.9 26.3 -12.65 24.25 L-9.65 20.6 Q-7.7 21.8 -5.65 22.5 M-5.0 -22.15 Q-12.05 -27.25 -18.15 -22.65 -24.4 -17.35 -20.9 -9.4 L-5.0 -22.15 M13.8 12.05 Q9.95 17.3 3.5 18.3 -2.9 19.25 -8.15 15.4 -13.4 11.55 -14.4 5.1 -15.4 -1.3 -11.55 -6.55 -7.7 -11.8 -1.3 -12.75 5.15 -13.75 10.4 -9.9 15.65 -6.05 16.65 0.35 17.65 6.8 13.8 12.05 M18.7 -15.5 L-0.3 -22.85 Q4.95 -29.85 12.15 -27.3 19.7 -24.15 18.7 -15.5 M-1.2 3.1 L-8.1 4.15 M1.05 0.3 L-0.45 -9.25 M16.8 16.3 L13.6 19.4" fill="none" stroke="#000000" stroke-linecap="round" stroke-linejoin="round" stroke-width="2.0"/>
    <path d="M1.05 0.3 Q2.0 0.2 2.75 0.75 3.6 1.35 3.75 2.4 3.9 3.45 3.25 4.25 2.7 5.1 1.65 5.25 0.65 5.4 -0.25 4.8 -1.05 4.2 -1.2 3.15 L-1.2 3.1 Q-1.35 2.1 -0.75 1.3 -0.1 0.45 0.9 0.3 L1.05 0.3" fill="none" stroke="#000000" stroke-linecap="round" stroke-linejoin="round" stroke-width="0.05"/>
  </g>
</svg>
