<?xml version="1.0" encoding="UTF-8" standalone="no"?>
<svg xmlns:xlink="http://www.w3.org/1999/xlink" height="63.1px" width="60.8px" xmlns="http://www.w3.org/2000/svg">
  <g transform="matrix(1.0, 0.0, 0.0, 1.0, 30.4, 31.55)">
    <path d="M4.45 29.65 L27.3 17.35 Q30.95 15.1 28.3 10.85 L7.05 -22.5 Q4.55 -26.0 0.5 -24.05 L-20.55 -11.05 -21.8 -10.2 Q-24.35 -8.65 -26.85 -10.15 -28.1 -10.9 -29.4 -12.45 -29.7 -16.25 -25.3 -18.45 L-4.95 -30.4 Q-2.1 -31.55 0.5 -24.05 M4.45 29.65 Q-2.3 32.75 -6.65 25.15 L-28.85 -10.0 -29.4 -12.45" fill="none" stroke="#000000" stroke-linecap="round" stroke-linejoin="round" stroke-width="2.0"/>
    <path d="M-20.55 -11.05 L4.45 29.65 M0.5 -24.05 L-3.6 -27.75 -29.4 -12.45 M-26.85 -10.15 L-12.65 -18.35" fill="none" stroke="#000000" stroke-linecap="round" stroke-linejoin="round" stroke-width="1.0"/>
  </g>
</svg>
