<?xml version="1.0" encoding="UTF-8" standalone="no"?>
<svg xmlns:xlink="http://www.w3.org/1999/xlink" height="81.8px" width="64.25px" xmlns="http://www.w3.org/2000/svg">
  <g transform="matrix(1.0, 0.0, 0.0, 1.0, 32.1, 40.9)">
    <path d="M-2.65 -28.9 Q-1.7 -29.55 0.8 -29.8 -2.3 -32.95 0.25 -35.55 2.75 -38.2 5.7 -35.6 5.85 -40.25 9.5 -39.85 12.95 -39.55 13.25 -35.2 16.85 -37.25 19.3 -33.3 19.8 -30.05 16.95 -28.65 22.35 -26.9 18.8 -21.05 L20.2 -21.15 Q23.65 -20.85 23.9 -16.45 27.55 -18.55 29.95 -14.65 30.5 -11.4 27.6 -10.0 31.9 -8.55 31.0 -4.85 29.5 -1.55 25.6 -2.8 26.85 1.55 24.05 2.95 21.1 4.3 19.15 0.25 17.1 3.1 14.5 2.2 L13.8 1.8 6.05 22.2 21.05 26.3 13.9 28.3 16.5 33.25 3.35 29.25 9.6 39.2 -6.95 39.9 -1.95 29.65 -4.95 23.25 -13.8 4.5 Q-14.3 5.15 -15.1 5.55 -18.0 6.95 -20.0 2.85 -22.1 5.75 -24.65 4.85 -27.75 3.55 -26.2 -0.95 -30.75 -0.4 -31.05 -3.9 -31.4 -7.3 -27.7 -8.45 -30.75 -11.6 -28.25 -14.25 -25.7 -16.9 -22.75 -14.3 -22.7 -17.95 -20.3 -18.45 L-19.8 -20.95 Q-24.3 -20.4 -24.6 -23.9 -25.0 -27.25 -21.3 -28.4 -24.35 -31.6 -21.8 -34.2 -19.3 -36.85 -16.35 -34.25 -16.25 -38.85 -12.55 -38.5 -9.1 -38.2 -8.85 -33.8 -5.2 -35.9 -2.8 -31.95 -2.5 -30.2 -2.65 -28.9 -3.2 -28.5 -3.2 -27.85 L-3.2 -27.1 -2.85 -25.45 -2.35 -24.1 -1.7 -24.3 -0.45 -24.3 Q3.0 -24.0 3.25 -19.65 6.9 -21.7 9.3 -17.75 L9.4 -16.9 10.25 -16.05 10.9 -16.9 Q12.9 -18.95 15.2 -17.85 L16.45 -16.9 Q16.5 -20.5 18.8 -21.05 M5.25 -30.65 Q6.45 -32.0 8.25 -32.15 10.1 -32.25 11.45 -31.05 12.8 -29.85 12.9 -28.05 13.05 -26.2 11.85 -24.85 10.65 -23.5 8.8 -23.4 7.0 -23.25 5.65 -24.45 4.3 -25.65 4.15 -27.5 4.05 -29.3 5.25 -30.65 M-2.35 -24.1 Q-4.2 -23.35 -4.25 -20.05 -7.2 -22.65 -9.7 -20.0 -12.3 -17.4 -9.25 -14.2 L-9.55 -14.15 -10.55 -13.7 Q-12.8 -12.4 -12.55 -9.7 -12.4 -8.1 -11.4 -7.4 L-11.15 -7.2 Q-10.85 -6.95 -10.3 -6.85 L-7.7 -6.75 -8.2 -4.6 -8.05 -2.9 Q-7.6 -1.6 -6.15 -0.95 -3.6 -0.05 -1.5 -2.9 0.45 1.15 3.35 -0.2 6.15 -1.6 4.9 -5.9 6.9 -5.3 8.25 -5.85 9.6 -6.35 10.35 -8.0 10.7 -9.5 10.3 -10.6 L10.15 -10.9 Q9.3 -12.4 7.0 -13.15 9.45 -14.35 9.4 -16.9 L8.45 -18.45 M2.95 -12.5 Q3.05 -10.65 1.85 -9.3 0.65 -7.95 -1.15 -7.85 -3.0 -7.7 -4.35 -8.9 -5.7 -10.1 -5.8 -11.95 -5.95 -13.8 -4.75 -15.15 -3.55 -16.5 -1.7 -16.6 0.1 -16.7 1.45 -15.5 2.8 -14.3 2.95 -12.5 M16.3 -5.75 Q14.95 -6.95 14.85 -8.8 14.75 -10.65 15.9 -12.0 17.1 -13.35 19.0 -13.4 20.8 -13.55 22.15 -12.35 23.5 -11.15 23.6 -9.3 23.7 -7.5 22.5 -6.15 21.35 -4.8 19.45 -4.7 17.65 -4.55 16.3 -5.75 M10.15 -10.9 Q8.75 -13.8 10.25 -16.05 M13.8 1.8 Q11.55 0.3 12.95 -3.6 8.95 -3.15 8.25 -5.85 M-1.95 29.65 L3.35 29.25 6.05 22.2 -4.95 23.25 M-16.85 -29.3 Q-15.65 -30.65 -13.75 -30.75 -11.95 -30.9 -10.6 -29.7 -9.25 -28.5 -9.1 -26.65 -9.05 -24.85 -10.25 -23.5 -11.4 -22.15 -13.25 -22.05 -15.1 -21.9 -16.45 -23.1 -17.8 -24.3 -17.9 -26.15 -18.0 -27.95 -16.85 -29.3 M-24.3 -6.15 Q-24.4 -8.0 -23.2 -9.35 -22.0 -10.7 -20.2 -10.8 -18.35 -10.95 -17.0 -9.75 -15.65 -8.55 -15.55 -6.7 -15.4 -4.85 -16.6 -3.5 -17.8 -2.15 -19.65 -2.05 -21.5 -1.95 -22.85 -3.15 -24.2 -4.35 -24.3 -6.15 M-20.3 -18.45 L-19.0 -18.55 Q-16.2 -18.3 -15.45 -15.35 L-15.25 -13.8 -10.55 -13.7 M-11.4 -7.4 L-11.5 -7.3 -11.15 -7.2 M-8.05 -2.9 L-8.2 -2.2 Q-9.6 1.1 -13.55 -0.1 -12.65 2.95 -13.8 4.5" fill="none" stroke="#000000" stroke-linecap="round" stroke-linejoin="round" stroke-width="2.0"/>
  </g>
</svg>
