<?xml version="1.0" encoding="UTF-8" standalone="no"?>
<svg xmlns:xlink="http://www.w3.org/1999/xlink" height="208.5px" width="54.6px" xmlns="http://www.w3.org/2000/svg">
  <g transform="matrix(1.0, 0.0, 0.0, 1.0, 27.3, 104.25)">
    <path d="M4.0 -45.1 L4.0 -49.35 Q8.95 -47.5 13.7 -49.95 16.75 -51.5 18.5 -55.55 19.5 -57.85 20.1 -60.85 21.7 -69.45 23.7 -77.05 L26.3 -75.65 26.3 -86.3 18.0 -80.85 20.85 -79.2 Q17.05 -71.15 15.25 -64.5 11.0 -53.95 2.85 -56.45 L2.85 -88.65 8.05 -88.65 0.0 -103.25 -8.05 -88.65 -2.85 -88.65 -2.85 -56.45 Q-11.0 -53.95 -15.25 -64.5 -17.05 -71.15 -20.85 -79.2 L-18.0 -80.85 -26.3 -86.3 -26.3 -75.65 -23.7 -77.05 Q-21.7 -69.45 -20.1 -60.85 -19.5 -57.85 -18.5 -55.55 -16.75 -51.5 -13.7 -49.95 -8.95 -47.5 -4.05 -49.35 L-4.05 -45.1 0.0 -45.45 4.0 -45.1 4.0 -33.5 4.0 102.0 Q2.0 103.1 0.0 103.25 -2.0 103.1 -4.05 102.0 L-4.05 -33.5 -4.05 -45.1 M-4.05 -33.5 Q-2.35 -34.2 0.0 -34.15 2.35 -34.2 4.0 -33.5" fill="none" stroke="#000000" stroke-linecap="round" stroke-linejoin="round" stroke-width="2.0"/>
  </g>
</svg>
