<?xml version="1.0" encoding="UTF-8" standalone="no"?>
<svg xmlns:xlink="http://www.w3.org/1999/xlink" height="234.05px" width="66.45px" xmlns="http://www.w3.org/2000/svg">
  <g transform="matrix(1.0, 0.0, 0.0, 1.0, 33.25, 117.05)">
    <path d="M17.4 -20.45 Q14.5 -23.0 8.55 -24.1 L10.55 -15.8 Q-1.0 -8.3 -12.15 -14.65 -11.25 -18.95 -10.5 -23.35 -16.6 -21.65 -19.05 -18.65 -20.85 -16.4 -19.95 -14.3 -19.45 -13.2 -18.25 -12.1 -14.75 -9.0 -7.05 -8.05 0.7 -7.05 8.05 -8.8 15.5 -10.5 18.25 -13.9 L18.6 -14.3 Q20.75 -17.5 17.4 -20.45 M18.6 -14.3 Q18.95 -4.15 20.55 5.15 L21.05 7.75 Q22.5 15.15 24.7 22.0 27.7 31.35 32.2 39.65 20.0 46.05 8.65 48.0 4.05 53.05 4.35 58.05 L4.75 70.65 6.4 71.05 Q9.55 71.95 10.25 73.65 L10.4 74.85 10.25 75.25 10.15 75.5 Q7.15 81.15 6.1 91.1 4.95 101.25 5.85 114.85 1.85 117.15 -1.3 114.85 -1.0 103.1 -2.85 91.85 -4.7 80.6 -7.2 75.75 L-7.45 75.35 Q-8.15 73.6 -6.05 72.2 -4.55 71.15 -2.25 70.7 L-2.15 57.85 Q-2.5 52.6 -7.0 48.6 -20.3 47.25 -32.25 39.15 -27.45 31.35 -24.55 22.05 -22.55 15.75 -21.4 8.7 L-20.9 5.15 Q-19.7 -4.0 -19.95 -14.3 M10.15 75.5 L8.9 76.75 Q6.85 78.15 3.15 78.55 L-3.6 78.0 Q-6.35 77.1 -7.2 75.75 M-2.25 70.7 L-2.25 74.2 Q0.05 77.05 4.75 74.7 L4.75 70.65 M-10.5 -23.35 Q-4.2 -56.85 -1.45 -93.3 L-5.25 -97.75 Q-2.95 -105.9 -2.4 -116.05 -1.45 -107.15 1.6 -98.7 L-1.45 -93.3 Q0.8 -57.8 8.55 -24.1 M-24.55 22.05 Q-1.75 36.0 24.7 22.0 M21.05 7.75 Q1.7 22.9 -21.4 8.7 M8.65 48.0 L-7.0 48.6" fill="none" stroke="#000000" stroke-linecap="round" stroke-linejoin="round" stroke-width="2.0"/>
  </g>
</svg>
