<?xml version="1.0" encoding="UTF-8" standalone="no"?>
<svg xmlns:xlink="http://www.w3.org/1999/xlink" height="25.8px" width="22.3px" xmlns="http://www.w3.org/2000/svg">
  <g transform="matrix(1.0, 0.0, 0.0, 1.0, 11.15, 12.9)">
    <path d="M7.8 -4.4 Q10.95 0.7 11.15 5.65 10.65 10.7 5.55 11.85 L2.7 12.7 Q-1.2 13.4 -4.45 11.5 -8.85 9.0 -8.85 1.45 -8.25 -5.1 -11.15 -8.35 L-8.8 -7.7 -6.3 -6.55 Q-3.35 -4.9 -1.2 -1.75 0.2 1.1 1.85 7.2 2.7 10.0 4.6 11.3 4.5 8.4 2.85 5.2 0.0 0.3 0.15 -4.2 0.2 -6.9 1.8 -9.3 L3.05 -10.9 4.55 -12.35 Q6.05 -13.7 5.85 -11.6 6.05 -8.05 7.8 -4.4" fill="#ffd7ef" fill-rule="evenodd" stroke="none"/>
  </g>
</svg>
