<?xml version="1.0" encoding="UTF-8" standalone="no"?>
<svg xmlns:xlink="http://www.w3.org/1999/xlink" height="54.45px" width="43.05px" xmlns="http://www.w3.org/2000/svg">
  <g transform="matrix(1.0, 0.0, 0.0, 1.0, 21.5, 27.25)">
    <path d="M10.9 -10.9 Q12.2 -9.4 13.45 -10.35 13.85 -5.6 9.95 -2.95 7.5 -1.4 7.1 1.55 L7.05 2.6 5.05 2.55 Q4.55 -0.2 2.2 1.4 0.55 0.85 0.0 2.8 L-1.75 2.6 -2.2 1.5 Q-3.35 -2.0 -0.35 -3.8 2.05 -5.2 2.4 -7.4 2.55 -10.3 -0.35 -11.15 -6.15 -13.25 -7.8 -16.8 -8.5 -18.4 -8.55 -20.05 -11.6 -22.35 -14.65 -23.5 -18.2 -25.3 -21.5 -23.25 -20.35 -24.7 -21.5 -27.25 -19.85 -26.0 -17.05 -26.85 -15.8 -24.75 -13.6 -25.05 -10.6 -23.45 -7.6 -24.4 L-6.85 -25.8 -6.0 -26.45 Q-3.65 -24.85 -1.05 -26.45 L0.15 -25.55 Q-2.35 -22.15 -1.0 -19.3 0.5 -15.5 6.55 -15.75 6.25 -13.5 7.75 -13.1 8.0 -10.35 10.9 -10.9 M5.25 -24.85 Q6.65 -24.7 9.75 -21.35 8.75 -21.5 8.2 -20.55 4.9 -23.35 5.25 -24.85 M21.3 11.1 L19.15 24.6 Q2.55 30.25 -11.05 23.6 L-13.1 11.1 Q-14.0 9.5 -13.4 8.15 4.4 13.5 21.1 8.6 21.85 9.35 21.3 11.1" fill="#724542" fill-rule="evenodd" stroke="none"/>
  </g>
</svg>
