<?xml version="1.0" encoding="UTF-8" standalone="no"?>
<svg xmlns:xlink="http://www.w3.org/1999/xlink" height="40.05px" width="39.0px" xmlns="http://www.w3.org/2000/svg">
  <g transform="matrix(1.0, 0.0, 0.0, 1.0, 19.5, 20.05)">
    <path d="M17.5 -10.55 Q19.8 -7.5 15.65 1.5 21.35 9.2 18.6 13.2 15.5 16.2 5.1 11.9 2.1 20.2 -3.65 20.0 -8.4 20.2 -10.85 10.2 -19.05 7.75 -19.5 4.05 -19.4 -0.85 -11.65 -6.15 -12.3 -17.45 -7.15 -19.9 -3.3 -21.05 4.4 -12.6 15.95 -13.4 17.5 -10.55 M14.65 -7.3 Q11.85 -10.9 6.6 -9.75 3.8 -9.3 0.8 -12.85 -2.35 -16.5 -5.45 -15.3 -9.25 -13.9 -8.5 -8.6 -7.7 -4.65 -10.25 -2.9 -15.1 0.0 -14.0 4.15 -13.3 6.05 -10.3 7.35 -7.5 8.9 -6.4 13.5 -5.4 16.95 -2.25 16.65 1.45 16.05 2.0 13.05 2.25 10.65 4.6 9.95 6.7 9.6 8.8 10.65 13.75 12.7 15.4 9.65 16.2 7.15 14.8 3.95 12.9 1.1 13.95 -1.7 15.5 -4.7 14.65 -7.3" fill="#feefc8" fill-rule="evenodd" stroke="none"/>
  </g>
</svg>
