<?xml version="1.0" encoding="UTF-8" standalone="no"?>
<svg xmlns:xlink="http://www.w3.org/1999/xlink" height="47.1px" width="56.0px" xmlns="http://www.w3.org/2000/svg">
  <g transform="matrix(1.0, 0.0, 0.0, 1.0, 28.0, 23.55)">
    <path d="M27.55 -1.2 L23.95 2.4 16.6 8.85 Q2.5 19.75 -13.8 23.55 L-16.6 20.05 -17.4 17.65 -28.0 1.35 -23.95 1.0 -22.85 0.5 Q-21.8 -0.25 -21.1 -1.15 -18.0 1.75 -10.05 1.5 -8.85 -4.8 -10.25 -13.0 -9.1 -13.25 -8.05 -14.0 -6.65 -14.9 -5.7 -16.15 1.95 -10.4 6.3 -8.45 10.3 -13.15 6.6 -19.75 8.8 -19.45 10.85 -20.3 L11.65 -20.7 Q13.2 -21.95 14.1 -23.55 L23.3 -9.25 24.75 -7.8 25.35 -6.7 25.95 -5.6 26.0 -5.55 27.55 -1.2" fill="#83ff9c" fill-rule="evenodd" stroke="none"/>
    <path d="M26.0 -5.55 L28.0 -1.75 27.55 -1.2 26.0 -5.55" fill="#ffed6d" fill-rule="evenodd" stroke="none"/>
  </g>
</svg>
