<?xml version="1.0" encoding="UTF-8" standalone="no"?>
<svg xmlns:xlink="http://www.w3.org/1999/xlink" height="37.9px" width="127.95px" xmlns="http://www.w3.org/2000/svg">
  <g transform="matrix(1.0, 0.0, 0.0, 1.0, 64.0, 18.95)">
    <path d="M27.05 -2.7 L22.95 -2.4 19.6 -2.3 19.55 -2.3 18.2 -2.25 17.5 -2.25 13.15 -2.35 12.25 -2.4 -42.2 18.25 -42.35 18.25 -42.6 18.2 -63.15 10.6 Q-63.65 8.55 -62.45 6.5 L-11.95 -12.8 -12.95 -13.3 Q-13.6 -14.9 -13.05 -16.55 -3.4 -19.25 7.85 -17.7 L9.25 -17.0 Q30.8 -10.15 46.55 -0.65 L63.25 13.65 63.05 17.7 27.05 -2.7" fill="#7d4346" fill-rule="evenodd" stroke="none"/>
    <path d="M27.05 -2.7 L63.05 17.7 63.25 13.65 46.55 -0.65 Q30.8 -10.15 9.25 -17.0 L7.85 -17.7 Q-3.4 -19.25 -13.05 -16.55 -13.6 -14.9 -12.95 -13.3 L-11.95 -12.8 -62.45 6.5 Q-63.65 8.55 -63.15 10.6 L-42.6 18.2 -42.35 18.25 -42.2 18.25 12.25 -2.4 13.15 -2.35 17.5 -2.25 18.2 -2.25 19.55 -2.3 19.6 -2.3 22.95 -2.4 27.05 -2.7 Z" fill="none" stroke="#000000" stroke-linecap="round" stroke-linejoin="round" stroke-opacity="0.54901963" stroke-width="1.4000000000000001"/>
  </g>
</svg>
