<?xml version="1.0" encoding="UTF-8" standalone="no"?>
<svg xmlns:xlink="http://www.w3.org/1999/xlink" height="129.9px" width="144.3px" xmlns="http://www.w3.org/2000/svg">
  <g transform="matrix(1.0, 0.0, 0.0, 1.0, 73.55, 130.65)">
    <path d="M-54.9 -10.15 L-55.15 -10.4 -58.05 -13.9 Q-74.95 -35.0 -73.4 -62.5 -71.75 -92.35 -49.45 -112.2 -27.15 -132.15 2.65 -130.5 15.5 -129.75 26.45 -125.25 21.5 -125.5 16.8 -125.1 8.2 -127.75 -5.75 -126.0 -34.7 -122.05 -50.05 -89.85 -65.2 -58.05 -45.6 -13.2 L-44.6 -10.95 -54.9 -10.15 M51.15 -9.05 L51.9 -7.75 Q53.4 -3.95 46.8 -2.9 19.6 0.4 -6.8 -1.4 -19.3 -5.1 -28.8 -11.7 L-25.05 -11.8 -22.05 -11.9 -10.85 -11.95 Q17.3 -12.0 48.3 -9.3 L51.15 -9.05" fill="#000000" fill-opacity="0.1764706" fill-rule="evenodd" stroke="none"/>
    <path d="M-54.9 -10.15 L-44.6 -10.95 -28.8 -11.7 Q-19.3 -5.1 -6.8 -1.4 -29.05 -1.25 -52.7 -4.45 -56.95 -4.7 -54.9 -10.15" fill="#000000" fill-opacity="0.34901962" fill-rule="evenodd" stroke="none"/>
    <path d="M16.8 -125.1 Q21.5 -125.5 26.45 -125.25 32.35 -122.8 37.6 -119.35 28.4 -120.5 20.05 -119.25 2.75 -116.75 -10.75 -104.1 -18.4 -96.95 -24.85 -86.65 -33.5 -69.45 -32.6 -53.7 -31.35 -31.35 -10.85 -11.95 L-22.05 -11.9 -25.05 -11.8 -25.3 -12.05 -25.45 -12.3 Q-39.0 -28.1 -41.35 -47.95 -42.1 -54.4 -41.7 -61.2 -40.15 -89.2 -20.1 -108.0 L-14.8 -112.45 Q-0.5 -123.45 16.8 -125.1" fill="#000000" fill-opacity="0.10980392" fill-rule="evenodd" stroke="none"/>
    <path d="M37.6 -119.35 Q45.6 -114.2 52.35 -106.55 72.25 -84.3 70.6 -54.45 69.1 -27.8 51.15 -9.05 L48.3 -9.3 Q82.8 -50.95 52.7 -98.25 39.4 -119.15 20.05 -119.25 28.4 -120.5 37.6 -119.35" fill="#ffffff" fill-opacity="0.078431375" fill-rule="evenodd" stroke="none"/>
  </g>
</svg>
