<?xml version="1.0" encoding="UTF-8" standalone="no"?>
<svg xmlns:xlink="http://www.w3.org/1999/xlink" height="158.4px" width="148.05px" xmlns="http://www.w3.org/2000/svg">
  <g transform="matrix(1.0, 0.0, 0.0, 1.0, 74.0, 79.2)">
    <path d="M18.45 37.75 Q14.65 42.8 14.65 49.95 14.65 57.15 18.45 62.2 22.25 67.25 27.65 67.25 33.1 67.25 36.9 62.2 40.7 57.15 40.7 50.0 40.7 42.8 36.9 37.75 33.1 32.7 27.65 32.7 22.25 32.7 18.45 37.75 M-11.5 49.05 Q-11.5 41.15 -17.1 35.55 -22.65 29.95 -30.55 29.95 -38.45 29.95 -44.05 35.55 -49.65 41.15 -49.65 49.05 -49.65 56.95 -44.05 62.5 -38.45 68.1 -30.55 68.1 -22.65 68.1 -17.1 62.5 -11.5 56.95 -11.5 49.05 M-74.0 -62.55 Q-73.75 -76.8 -65.7 -79.05 -54.2 -80.95 -42.7 -57.85 -29.8 -32.45 -32.45 -8.65 -3.8 -21.05 30.1 -1.9 32.5 -24.8 46.45 -43.35 60.1 -61.15 68.4 -56.3 76.15 -51.8 73.25 -38.25 65.75 -5.4 40.9 10.65 46.55 19.6 47.75 30.85 50.5 57.4 36.9 75.7 25.35 82.1 17.05 76.85 8.75 71.55 1.6 71.65 -4.6 70.95 -12.05 75.2 -22.05 82.1 -37.75 77.1 -66.95 67.7 -65.25 40.9 -65.15 14.95 -50.05 -2.3 -74.25 -31.7 -74.0 -62.55" fill="#ff6699" fill-rule="evenodd" stroke="none"/>
  </g>
</svg>
