<?xml version="1.0" encoding="UTF-8" standalone="no"?>
<svg xmlns:xlink="http://www.w3.org/1999/xlink" height="79.4px" width="144.55px" xmlns="http://www.w3.org/2000/svg">
  <g transform="matrix(1.0, 0.0, 0.0, 1.0, 72.25, 39.7)">
    <path d="M-0.35 -19.75 Q0.65 -12.65 -12.0 -13.2 L-12.0 -26.35 Q-1.35 -26.85 -0.35 -19.75 M-0.35 -6.5 Q0.55 -0.1 -9.7 0.1 -1.25 0.4 -0.35 6.7 0.6 13.6 -11.3 13.3 L-9.7 13.5 Q-1.25 13.8 -0.35 20.1 0.65 27.2 -12.0 26.65 L-12.0 0.1 -11.3 0.1 -12.0 0.05 -12.0 -13.1 Q-1.35 -13.6 -0.35 -6.5 M-12.0 -26.5 L-12.0 -39.65 Q-1.35 -40.15 -0.35 -33.05 0.65 -25.95 -12.0 -26.5 M-40.25 39.7 Q-46.15 40.0 -46.15 28.65 L-34.9 28.65 Q-34.35 39.35 -40.25 39.7 M-33.35 28.65 L-22.1 28.65 Q-21.55 39.35 -27.45 39.7 -33.35 40.0 -33.35 28.65 M-15.6 39.7 Q-21.5 40.0 -21.5 28.65 L-10.25 28.65 Q-9.7 39.35 -15.6 39.7 M-8.65 28.65 L2.6 28.65 Q3.15 39.35 -2.75 39.7 -8.65 40.0 -8.65 28.65 M-66.35 39.7 Q-72.25 40.0 -72.25 28.65 L-61.0 28.65 Q-60.45 39.35 -66.35 39.7 M-59.4 28.65 L-48.15 28.65 Q-47.6 39.35 -53.5 39.7 -59.4 40.0 -59.4 28.65 M54.3 28.65 Q54.85 39.35 48.95 39.7 43.35 40.0 43.1 29.7 L43.95 28.65 54.3 28.65 M71.05 37.85 Q69.1 35.15 69.1 28.65 L72.3 28.9 71.05 37.85 M62.2 39.7 Q56.3 40.0 56.3 28.65 L67.55 28.65 Q68.1 39.35 62.2 39.7 M4.6 28.65 L15.85 28.65 Q16.4 39.35 10.5 39.7 4.6 40.0 4.6 28.65 M30.2 28.65 L35.7 28.65 30.8 34.75 Q30.2 32.3 30.2 28.65 M34.95 39.65 L41.5 31.65 Q41.1 39.4 36.1 39.7 L34.95 39.65 M23.3 39.7 Q17.4 40.0 17.4 28.65 L28.65 28.65 Q29.2 39.35 23.3 39.7" fill="#fecfe1" fill-rule="evenodd" stroke="none"/>
  </g>
</svg>
