<?xml version="1.0" encoding="UTF-8" standalone="no"?>
<svg xmlns:xlink="http://www.w3.org/1999/xlink" height="213.7px" width="185.05px" xmlns="http://www.w3.org/2000/svg">
  <g transform="matrix(1.0, 0.0, 0.0, 1.0, 92.5, 106.85)">
    <path d="M59.55 -74.45 L60.65 -74.05 Q68.3 -84.7 77.05 -93.65 78.8 -95.55 80.45 -95.3 82.1 -95.05 79.55 -91.9 L69.15 -78.4 70.05 -77.6 74.4 -73.6 75.25 -72.85 91.55 -92.85 Q90.35 -100.05 82.35 -103.75 75.9 -106.75 72.1 -102.0 L53.8 -79.35 55.45 -77.95 59.55 -74.45 27.9 -35.55 28.8 -35.55 30.35 -35.55 35.85 -35.55 70.05 -77.6 M35.85 -35.55 L30.95 -29.45 -10.0 21.45 -15.5 28.3 -21.4 35.65 -25.15 40.35 -26.8 42.4 -30.65 47.15 -49.2 70.2 Q-46.5 70.75 -44.1 72.15 L-26.15 50.25 -22.25 45.45 -20.6 43.45 -16.75 38.7 -8.2 28.3 -2.6 21.45 35.1 -24.55 41.65 -32.55 43.25 -34.5 44.1 -35.55 74.4 -73.6 M30.95 -29.45 Q30.35 -31.9 30.35 -35.55 M-44.1 72.15 Q-42.05 73.3 -40.25 75.1 -34.95 80.4 -34.95 87.85 -34.95 95.3 -40.25 100.55 -45.5 105.85 -52.95 105.85 -57.85 105.85 -61.8 103.55 -64.65 105.45 -70.35 105.55 -76.05 105.6 -81.45 100.45 -86.85 95.3 -86.85 87.85 -86.85 80.4 -81.6 75.1 -76.3 69.85 -70.4 70.0 L-66.4 70.4 -41.35 39.75 -57.95 28.3 -59.85 28.3 -67.3 21.45 Q-83.8 17.85 -91.45 -35.55 -93.6 -113.6 -11.85 -105.0 L-11.85 -103.85 Q-1.2 -104.35 -0.2 -97.25 0.8 -90.15 -11.85 -90.7 L-11.85 -90.55 Q-1.2 -91.05 -0.2 -83.95 0.8 -76.85 -11.85 -77.4 L-11.85 -77.3 Q-1.2 -77.8 -0.2 -70.7 0.7 -64.3 -9.55 -64.1 -1.1 -63.8 -0.2 -57.5 0.75 -50.6 -11.15 -50.9 L-9.55 -50.7 Q-1.1 -50.4 -0.2 -44.1 0.8 -37.0 -11.85 -37.55 L-11.85 -35.55 -10.1 -35.55 -8.5 -35.55 2.75 -35.55 4.75 -35.55 16.0 -35.55 17.55 -35.55 19.2 -35.55 55.45 -77.95 M41.65 -32.55 Q41.25 -24.8 36.25 -24.5 L35.1 -24.55 M19.2 -35.55 L27.9 -35.55 M28.8 -35.55 Q29.35 -24.85 23.45 -24.5 17.55 -24.2 17.55 -35.55 M16.0 -35.55 Q16.55 -24.85 10.65 -24.5 4.75 -24.2 4.75 -35.55 M44.1 -35.55 L54.45 -35.55 56.45 -35.55 67.7 -35.55 69.25 -35.55 72.45 -35.3 71.2 -26.35 66.5 7.15 Q64.85 18.7 55.85 20.95 L52.2 28.3 -8.2 28.3 M71.2 -26.35 Q69.25 -29.05 69.25 -35.55 M67.7 -35.55 Q68.25 -24.85 62.35 -24.5 56.45 -24.2 56.45 -35.55 M54.45 -35.55 Q55.0 -24.85 49.1 -24.5 43.5 -24.2 43.25 -34.5 M-2.6 21.45 L50.8 21.45 55.85 20.95 M-20.6 43.45 L17.15 69.4 19.6 69.25 Q23.15 69.25 27.95 71.5 29.3 70.7 30.8 70.2 L-16.75 38.7 M30.8 70.2 Q33.55 69.25 36.7 69.25 44.15 69.25 49.4 74.5 54.7 79.8 54.7 87.25 54.7 94.7 49.4 99.95 44.15 105.25 36.7 105.25 32.15 105.25 28.4 103.25 26.1 104.75 19.15 105.0 12.15 105.25 6.85 99.95 1.6 94.7 1.6 87.25 1.6 79.8 6.85 74.5 L7.8 73.65 -26.15 50.25 M7.8 73.65 Q10.75 71.05 14.25 70.05 L-22.25 45.45 M14.25 70.05 L14.85 69.85 17.15 69.4 M28.4 103.25 Q26.0 102.0 23.95 99.95 L23.55 99.55 19.6 100.1 Q15.8 100.1 12.8 98.2 L10.5 96.35 8.85 94.35 Q6.8 91.3 6.75 87.4 L6.75 87.25 Q6.75 84.05 8.15 81.4 9.0 79.7 10.5 78.2 11.6 77.15 12.8 76.4 15.8 74.45 19.6 74.45 L19.8 74.45 Q21.7 74.5 23.45 75.05 L23.95 74.5 Q25.8 72.65 27.95 71.5 M19.25 82.8 Q18.0 82.85 17.05 83.5 L16.4 84.05 15.55 85.3 Q15.1 86.2 15.1 87.25 L15.1 87.4 Q15.15 88.6 15.75 89.6 L16.4 90.45 17.35 91.2 19.25 91.75 Q18.7 89.6 18.7 87.25 18.7 84.9 19.25 82.8 19.45 81.8 19.8 80.9 L19.8 74.45 M17.05 83.5 L12.8 76.4 M17.35 91.2 L12.8 98.2 M19.6 100.1 L19.6 93.05 19.25 91.75 M6.75 87.4 L15.1 87.4 M15.55 85.3 L8.15 81.4 M15.75 89.6 L8.85 94.35 M29.9 76.4 Q32.9 74.45 36.7 74.45 L36.9 74.45 Q40.45 74.5 43.35 76.3 L45.75 78.2 47.35 80.1 Q49.5 83.15 49.55 87.1 L49.55 87.25 Q49.55 90.55 48.1 93.25 47.2 94.9 45.75 96.35 44.55 97.55 43.2 98.35 40.3 100.1 36.7 100.1 32.9 100.1 29.9 98.2 L27.6 96.35 25.95 94.35 Q23.9 91.3 23.85 87.4 L23.85 87.25 Q23.85 84.05 25.25 81.4 26.1 79.7 27.6 78.2 28.7 77.15 29.9 76.4 L34.15 83.5 Q35.25 82.75 36.7 82.75 L36.9 82.75 36.9 74.45 M25.25 81.4 L32.65 85.3 33.5 84.05 34.15 83.5 M43.35 76.3 L38.7 83.2 39.85 84.05 40.45 84.8 47.35 80.1 M36.9 82.75 Q37.9 82.8 38.7 83.2 M43.2 98.35 L38.9 91.2 Q37.9 91.75 36.7 91.75 L36.7 100.1 M48.1 93.25 L40.7 89.3 39.85 90.45 38.9 91.2 M25.95 94.35 L32.85 89.6 Q32.25 88.6 32.2 87.4 L23.85 87.4 M29.9 98.2 L34.45 91.2 33.5 90.45 32.85 89.6 M32.2 87.4 L32.2 87.25 Q32.2 86.2 32.65 85.3 M36.7 91.75 Q35.45 91.75 34.45 91.2 M19.8 80.9 Q21.0 77.7 23.45 75.05 M49.55 87.1 L41.15 87.1 41.15 87.25 Q41.15 88.35 40.7 89.3 M40.45 84.8 Q41.1 85.85 41.15 87.1 M23.55 99.55 Q20.8 96.6 19.6 93.05 M-11.85 -77.4 L-11.85 -90.55 M-11.85 -64.15 L-11.85 -64.1 -11.15 -64.1 -11.85 -64.15 -11.85 -77.3 M-11.15 -50.9 L-11.85 -50.95 -11.85 -37.55 M-11.85 -50.95 L-11.85 -64.1 M-9.55 -64.1 L-11.15 -64.1 M-91.45 -35.55 L-72.1 -35.55 -60.85 -35.55 -59.25 -35.55 -48.0 -35.55 -46.0 -35.55 -34.75 -35.55 -33.2 -35.55 -21.95 -35.55 -21.35 -35.55 -11.85 -35.55 M-60.85 -35.55 Q-60.3 -24.85 -66.2 -24.5 -72.1 -24.2 -72.1 -35.55 M-48.0 -35.55 Q-47.45 -24.85 -53.35 -24.5 -59.25 -24.2 -59.25 -35.55 M2.75 -35.55 Q3.3 -24.85 -2.6 -24.5 -8.5 -24.2 -8.5 -35.55 M-10.1 -35.55 Q-9.55 -24.85 -15.45 -24.5 -21.35 -24.2 -21.35 -35.55 M-21.95 -35.55 Q-21.4 -24.85 -27.3 -24.5 -33.2 -24.2 -33.2 -35.55 M-34.75 -35.55 Q-34.2 -24.85 -40.1 -24.5 -46.0 -24.2 -46.0 -35.55 M-11.85 -90.7 L-11.85 -103.85 M-15.5 28.3 L-24.0 28.3 -27.2 31.8 -21.4 35.65 M-37.6 35.1 L-35.85 33.0 -42.7 28.3 -47.7 28.3 -37.6 35.1 -32.6 38.5 -30.9 36.4 -35.85 33.0 M-41.35 39.75 L-36.4 43.15 -30.65 47.15 M-24.0 28.3 L-32.45 28.3 -27.2 31.8 M-26.8 42.4 L-32.6 38.5 M-30.9 36.4 Q-28.0 38.4 -25.15 40.35 M-47.7 28.3 L-57.95 28.3 M-36.4 43.15 L-58.65 70.75 Q-56.0 69.85 -52.95 69.85 L-49.2 70.2 M-66.4 70.4 Q-63.6 70.95 -62.15 72.35 -60.5 71.35 -58.65 70.75 M-61.8 103.55 Q-63.9 102.35 -65.7 100.55 L-65.85 100.4 -68.85 100.7 Q-72.65 100.7 -75.65 98.8 L-77.95 96.95 -79.6 94.95 Q-81.65 91.9 -81.7 88.0 L-81.7 87.85 Q-81.7 84.65 -80.3 82.0 -79.45 80.3 -77.95 78.8 -76.85 77.75 -75.65 77.0 -72.65 75.05 -68.85 75.05 L-68.65 75.05 -65.95 75.4 -65.7 75.1 Q-64.05 73.45 -62.15 72.35 M-68.65 75.05 L-68.65 78.95 Q-67.55 77.05 -65.95 75.4 M-75.65 77.0 L-71.4 84.1 Q-70.95 83.8 -70.5 83.65 -69.9 81.15 -68.65 78.95 M-65.8 88.0 L-65.8 87.85 Q-65.8 86.3 -65.45 84.9 -65.15 83.35 -64.4 82.0 -63.55 80.3 -62.05 78.8 L-59.75 77.0 Q-56.75 75.05 -52.95 75.05 L-52.75 75.05 Q-49.2 75.1 -46.3 76.9 L-43.9 78.8 -42.3 80.7 Q-40.15 83.75 -40.1 87.7 L-40.1 87.85 Q-40.1 91.15 -41.55 93.85 -42.45 95.5 -43.9 96.95 -45.1 98.15 -46.45 98.95 -49.35 100.7 -52.95 100.7 -56.75 100.7 -59.75 98.8 L-62.05 96.95 -63.7 94.95 Q-65.0 93.05 -65.45 90.8 -65.8 89.45 -65.8 88.0 L-57.45 88.0 -57.45 87.85 Q-57.45 86.8 -57.0 85.9 L-64.4 82.0 M-80.3 82.0 L-72.9 85.9 -72.05 84.65 -71.4 84.1 M-81.7 88.0 L-73.35 88.0 -73.35 87.85 Q-73.35 86.8 -72.9 85.9 M-79.6 94.95 L-72.7 90.2 Q-73.3 89.2 -73.35 88.0 M-75.65 98.8 L-71.1 91.8 -72.05 91.05 -72.7 90.2 M-68.85 100.7 L-68.85 96.4 Q-69.95 94.35 -70.5 92.1 L-71.1 91.8 M-70.5 92.1 L-70.95 87.85 Q-70.95 85.65 -70.5 83.65 M-46.3 76.9 L-50.95 83.8 Q-50.35 84.1 -49.8 84.65 L-49.2 85.4 -42.3 80.7 M-57.0 85.9 L-56.15 84.65 -55.5 84.1 -59.75 77.0 M-52.75 75.05 L-52.75 83.35 Q-51.75 83.4 -50.95 83.8 M-55.5 84.1 Q-54.4 83.35 -52.95 83.35 L-52.75 83.35 M-52.95 100.7 L-52.95 92.35 Q-54.2 92.35 -55.2 91.8 L-59.75 98.8 M-46.45 98.95 L-50.75 91.8 Q-51.75 92.35 -52.95 92.35 M-63.7 94.95 L-56.8 90.2 Q-57.4 89.2 -57.45 88.0 M-55.2 91.8 L-56.15 91.05 -56.8 90.2 M-41.55 93.85 L-48.95 89.9 -49.8 91.05 -50.75 91.8 M-40.1 87.7 L-48.5 87.7 -48.5 87.85 Q-48.5 88.95 -48.95 89.9 M-49.2 85.4 Q-48.55 86.45 -48.5 87.7 M-32.45 28.3 L-42.7 28.3 M-67.3 21.45 L-10.0 21.45 M-65.85 100.4 Q-67.7 98.5 -68.85 96.4" fill="none" stroke="#000000" stroke-linecap="round" stroke-linejoin="round" stroke-width="2.0"/>
  </g>
</svg>
