<?xml version="1.0" encoding="UTF-8" standalone="no"?>
<svg xmlns:xlink="http://www.w3.org/1999/xlink" height="38.15px" width="115.05px" xmlns="http://www.w3.org/2000/svg">
  <g transform="matrix(1.0, 0.0, 0.0, 1.0, 17.1, 124.8)">
    <path d="M-17.1 -101.9 Q-11.2 -118.65 -3.15 -123.15 -0.2 -124.85 3.1 -124.8 L21.85 -123.2 25.7 -122.6 Q44.5 -119.9 43.15 -107.95 44.55 -110.1 46.15 -111.85 51.3 -117.7 58.05 -118.75 L75.95 -117.95 Q84.75 -116.45 92.7 -112.9 103.25 -107.95 92.7 -91.9 74.95 -83.1 54.7 -89.1 47.85 -91.2 40.7 -94.95 L37.7 -96.6 Q23.15 -91.65 7.7 -93.9 2.55 -94.6 -2.65 -96.2 -7.25 -97.55 -11.85 -99.5 L-17.1 -101.85 -17.1 -101.9" fill="#ffffff" fill-rule="evenodd" stroke="none"/>
  </g>
</svg>
