<?xml version="1.0" encoding="UTF-8" standalone="no"?>
<svg xmlns:xlink="http://www.w3.org/1999/xlink" height="256.6px" width="362.4px" xmlns="http://www.w3.org/2000/svg">
  <g transform="matrix(1.0, 0.0, 0.0, 1.0, 181.2, 128.3)">
    <path d="M-123.85 -28.15 L-123.85 -101.8 -98.2 -101.8 Q-98.2 -125.7 -75.9 -126.8 L75.95 -126.8 Q98.2 -125.7 98.2 -101.8 L123.85 -101.8 123.85 -28.15 171.35 3.3 172.65 4.2 Q178.75 8.65 179.7 17.3 L179.7 53.6 Q179.6 55.55 179.0 57.2 176.25 68.25 162.3 70.65 L162.3 126.8 146.95 126.8 146.95 96.8 -146.95 96.8 -146.95 126.8 -162.3 126.8 -162.3 70.65 Q-176.15 68.25 -179.0 57.2 -179.55 55.55 -179.7 53.6 L-179.7 17.3 Q-178.75 8.65 -172.55 4.2 L-171.35 3.3 -123.85 -28.15 -102.8 -42.05 -103.05 -42.75 -103.75 -44.7 Q-105.45 -48.1 -105.3 -51.45 -105.3 -54.35 -103.75 -57.2 L-103.75 -90.0 -77.25 -90.0 Q-77.0 -109.8 -57.75 -110.15 L57.85 -110.15 Q77.1 -109.8 77.35 -90.0 L103.8 -90.0 103.8 -57.2 Q105.3 -54.35 105.3 -51.45 105.45 -48.1 103.8 -44.7 L103.15 -42.75 102.8 -42.05 123.85 -28.15 M-103.75 -57.2 Q-98.9 -69.55 -75.9 -70.5 L-24.4 -70.5 Q-7.65 -68.85 -5.5 -54.45 L-5.5 -44.7 -6.3 -42.75 -7.05 -41.25 7.15 -41.25 6.3 -42.75 5.6 -44.7 5.6 -54.45 Q7.65 -68.85 24.4 -70.5 L75.95 -70.5 Q98.9 -69.55 103.8 -57.2 M102.8 -42.05 Q99.15 -34.0 85.0 -32.2 L24.4 -32.2 Q11.8 -32.75 7.15 -41.25 M-7.05 -41.25 Q-11.8 -32.75 -24.4 -32.2 L-84.95 -32.2 Q-99.15 -34.0 -102.8 -42.05 M146.95 96.8 L146.95 71.0 -146.95 71.0 -146.95 96.8 M171.35 3.3 Q168.4 1.5 164.35 0.55 L-164.35 0.55 Q-168.4 1.5 -171.35 3.3 M-162.3 70.65 Q-156.25 71.6 -146.95 71.0 M146.95 71.0 L148.4 71.0 Q156.35 71.6 162.3 70.65 M179.0 57.2 L-179.0 57.2" fill="none" stroke="#000000" stroke-linecap="round" stroke-linejoin="round" stroke-width="3.0"/>
  </g>
</svg>
