<?xml version="1.0" encoding="UTF-8" standalone="no"?>
<svg xmlns:xlink="http://www.w3.org/1999/xlink" height="46.0px" width="156.15px" xmlns="http://www.w3.org/2000/svg">
  <g transform="matrix(1.0, 0.0, 0.0, 1.0, 78.05, 23.0)">
    <path d="M77.1 -10.0 L77.0 -10.6 77.0 -9.35 77.1 -10.0 M77.0 -9.35 L77.0 10.0 Q63.15 22.1 0.85 22.0 -78.05 21.6 -77.0 10.0 L-77.0 -9.55 -77.05 -10.0 -77.0 -10.45 Q-76.05 -15.1 -54.5 -18.5 -31.9 -22.0 0.05 -22.0 31.95 -22.0 54.55 -18.5 75.7 -15.2 77.0 -10.6 M77.0 -9.35 Q75.7 -4.85 54.55 -1.55 31.95 2.0 0.05 2.0 -31.9 2.0 -54.5 -1.55 -76.05 -4.9 -77.0 -9.55 L-77.0 -10.45" fill="none" stroke="#000000" stroke-linecap="round" stroke-linejoin="round" stroke-width="2.0"/>
  </g>
</svg>
