<?xml version="1.0" encoding="UTF-8" standalone="no"?>
<svg xmlns:xlink="http://www.w3.org/1999/xlink" height="60.65px" width="143.7px" xmlns="http://www.w3.org/2000/svg">
  <g transform="matrix(1.0, 0.0, 0.0, 1.0, 72.35, 49.05)">
    <path d="M-1.3 -23.3 Q20.55 -23.3 36.05 -25.75 50.55 -28.0 51.4 -31.1 L51.4 -17.8 50.8 -17.3 Q40.55 -9.55 -0.75 -9.6 -52.0 -9.85 -54.05 -17.0 L-54.1 -17.8 -54.1 -31.2 Q-53.45 -28.05 -38.7 -25.75 -23.2 -23.3 -1.3 -23.3 M-0.45 -2.7 Q29.3 -2.7 50.45 -5.2 70.15 -7.6 71.35 -10.8 L71.35 3.05 Q58.45 11.7 0.3 11.6 -73.35 11.35 -72.35 3.05 L-72.35 -10.95 Q-71.5 -7.6 -51.35 -5.2 -30.25 -2.7 -0.45 -2.7 M-42.95 -49.05 Q-42.45 -46.2 -30.75 -44.15 -18.5 -41.95 -1.15 -41.95 16.2 -41.95 28.45 -44.15 39.95 -46.15 40.65 -48.95 L40.65 -37.05 40.2 -36.65 Q32.15 -29.55 -0.7 -29.65 L-4.0 -29.7 Q-8.05 -29.7 -11.6 -29.85 L-13.25 -29.9 -17.8 -30.1 Q-40.8 -31.35 -42.8 -35.95 L-42.95 -36.95 -42.95 -37.05 -42.95 -49.05" fill="#000000" fill-opacity="0.5019608" fill-rule="evenodd" stroke="none"/>
  </g>
</svg>
