<?xml version="1.0" encoding="UTF-8" standalone="no"?>
<svg xmlns:xlink="http://www.w3.org/1999/xlink" height="207.9px" width="227.0px" xmlns="http://www.w3.org/2000/svg">
  <g transform="matrix(1.0, 0.0, 0.0, 1.0, 113.5, 103.95)">
    <path d="M-31.2 78.1 Q-36.7 61.35 -31.05 39.4 -37.5 53.95 -36.65 65.35 -35.2 74.1 -31.2 78.1 M69.35 53.2 Q73.55 58.8 76.65 69.5 80.6 82.9 74.6 91.65 67.0 99.3 57.65 95.5 50.95 92.2 52.2 86.35 53.85 83.1 59.9 82.35 62.85 79.0 59.9 72.0 L45.95 47.5 Q48.05 61.8 47.4 72.25 44.7 81.6 38.35 88.3 38.95 100.15 30.8 103.95 23.5 103.3 27.3 86.7 25.15 83.0 28.05 76.2 29.85 48.0 19.9 27.35 12.15 47.2 14.2 76.15 14.2 83.3 20.45 91.25 23.65 94.85 20.45 99.25 17.1 104.4 10.3 101.85 -12.1 89.65 -9.6 36.25 -15.75 57.15 -12.75 74.45 L-7.85 87.8 Q-4.85 93.2 -9.35 96.85 -20.7 101.9 -26.2 90.35 -26.55 92.25 -28.05 93.1 -38.45 97.65 -46.15 89.15 -54.0 81.0 -56.05 63.85 -56.8 56.5 -54.15 45.15 -71.8 59.35 -73.85 71.35 -73.4 75.65 -68.45 78.65 -63.5 81.6 -66.5 85.8 -70.45 91.25 -78.7 88.6 -90.45 83.8 -89.0 68.35 -87.6 51.65 -69.25 36.1 -75.1 39.65 -82.1 40.65 -97.5 43.65 -105.55 34.65 -114.2 25.9 -113.45 12.75 -112.7 -0.1 -104.55 0.1 -97.85 1.05 -102.0 12.5 -103.3 24.5 -87.8 24.85 -73.15 23.6 -66.25 2.6 -58.8 -21.2 -69.45 -56.15 -73.15 -80.95 -55.75 -90.2 -6.5 -111.85 44.05 -99.4 71.9 -87.95 73.85 -55.4 75.85 -36.75 65.3 12.1 63.15 24.05 70.85 37.7 79.3 47.3 92.4 44.2 101.1 41.0 101.85 28.05 102.35 27.2 100.65 22.25 98.9 17.3 104.55 16.45 111.3 16.7 112.75 27.6 115.55 41.45 108.0 48.65 94.65 61.45 78.7 57.1 73.6 55.35 69.35 53.2" fill="#00ccff" fill-rule="evenodd" stroke="none"/>
  </g>
</svg>
