<?xml version="1.0" encoding="UTF-8" standalone="no"?>
<svg xmlns:xlink="http://www.w3.org/1999/xlink" height="192.35px" width="205.05px" xmlns="http://www.w3.org/2000/svg">
  <g transform="matrix(1.0, 0.0, 0.0, 1.0, 102.55, 96.15)">
    <path d="M70.15 -20.55 Q74.85 51.5 91.6 62.45 83.65 61.5 77.8 57.75 88.55 79.0 102.5 88.15 88.9 86.8 78.6 82.0 L89.85 93.4 Q62.95 86.55 53.45 71.85 56.7 85.55 59.95 88.85 38.55 71.2 30.0 41.4 31.3 52.0 33.55 56.5 14.3 44.55 12.1 31.05 6.7 47.35 -12.5 58.6 -8.85 54.3 -7.95 38.95 -22.85 76.1 -50.85 92.7 -44.3 85.85 -37.75 68.4 -49.65 86.7 -80.05 96.2 L-65.15 83.25 Q-80.05 94.45 -102.55 96.2 -88.65 89.4 -74.7 65.25 -83.4 71.0 -97.05 74.15 -55.0 40.5 -58.75 -45.8 -60.25 -79.25 -52.1 -84.75 -29.45 -95.0 15.6 -96.15 53.9 -96.45 69.8 -80.35 73.0 -62.15 70.15 -20.55" fill="url(#gradient0)" fill-rule="evenodd" stroke="none"/>
  </g>
  <defs>
    <linearGradient gradientTransform="matrix(0.0, 0.1265, -0.0109, 0.0, 91.3, -7.5)" gradientUnits="userSpaceOnUse" id="gradient0" spreadMethod="pad" x1="-819.2" x2="819.2">
      <stop offset="0.0" stop-color="#fff23c" stop-opacity="0.0"/>
      <stop offset="0.3803921568627451" stop-color="#fff23c" stop-opacity="0.84705883"/>
      <stop offset="0.6039215686274509" stop-color="#fff23c" stop-opacity="0.8"/>
      <stop offset="1.0" stop-color="#fff23c" stop-opacity="0.0"/>
    </linearGradient>
  </defs>
</svg>
