<?xml version="1.0" encoding="UTF-8" standalone="no"?>
<svg xmlns:xlink="http://www.w3.org/1999/xlink" height="156.65px" width="222.45px" xmlns="http://www.w3.org/2000/svg">
  <g transform="matrix(1.0, 0.0, 0.0, 1.0, 111.25, 78.3)">
    <path d="M52.35 -66.3 Q53.3 -66.7 53.9 -67.15 L54.65 -68.0 Q71.5 -53.55 95.15 -27.85 110.4 -11.3 111.2 5.75 110.7 17.05 103.45 21.1 108.1 22.25 101.95 28.0 98.9 30.85 103.95 30.9 106.2 32.0 102.5 35.3 104.75 36.0 105.6 37.3 106.25 38.9 102.55 41.0 97.55 44.8 95.85 48.3 98.65 48.75 99.05 49.6 97.15 51.2 93.7 53.1 100.2 57.35 99.4 65.2 98.95 72.65 92.75 73.85 87.25 74.75 86.4 68.0 90.65 72.95 93.7 66.9 96.05 60.1 88.4 55.85 83.95 58.05 82.55 55.25 82.65 52.9 84.8 50.55 L80.85 50.95 Q76.7 50.5 79.65 46.9 L73.95 47.85 Q71.5 49.15 71.8 41.9 73.45 38.55 71.2 35.5 65.45 34.55 69.4 32.35 L79.0 27.7 78.4 27.7 Q85.6 12.7 66.8 -13.7 44.5 -42.55 40.85 -58.75 41.45 -59.35 41.6 -60.1 L45.55 -60.25 Q46.65 -61.1 47.25 -63.05 L47.55 -63.0 Q50.7 -62.8 51.75 -64.05 L52.3 -64.9 Q52.5 -65.5 52.35 -66.3 M-18.75 -66.75 Q-19.2 -71.8 -24.4 -71.2 L-26.15 -73.15 Q-14.8 -79.25 10.8 -78.15 36.4 -77.05 41.9 -73.35 39.5 -73.45 38.1 -70.3 33.75 -70.9 33.95 -65.85 33.15 -64.15 33.95 -62.75 26.45 -60.55 14.8 -55.1 -6.4 -61.95 -18.75 -66.75 M-34.75 -63.95 Q-33.8 -62.0 -32.3 -61.15 L-27.35 -61.0 Q-26.85 -59.55 -24.3 -58.75 -23.75 -42.25 -53.85 -9.3 -75.75 17.1 -64.3 32.1 L-65.1 32.1 -51.6 36.75 Q-46.0 38.95 -53.6 39.9 -56.2 42.95 -53.6 46.3 -52.25 53.55 -55.75 52.25 L-63.5 51.3 Q-59.1 54.9 -64.65 55.35 L-69.95 54.95 Q-66.85 57.3 -66.4 59.65 -67.9 62.45 -74.1 60.25 -83.85 64.5 -79.85 71.3 -75.0 77.35 -69.95 72.4 -70.25 79.15 -77.75 78.25 -86.2 77.05 -87.8 69.6 -89.85 61.75 -81.6 57.5 -86.45 55.6 -89.25 54.0 -88.85 53.15 -85.1 52.7 -87.85 49.2 -95.1 45.4 -100.3 43.3 -99.55 41.7 -98.65 40.4 -95.75 39.7 -101.15 36.4 -98.25 35.3 -91.45 35.25 -95.85 32.4 -104.9 26.65 -98.7 25.5 -109.0 21.45 -111.1 10.15 -112.85 -1.9 -94.05 -21.05 -63.0 -51.15 -41.15 -65.8 L-40.45 -64.95 Q-38.9 -63.65 -34.75 -63.95" fill="#96e2fc" fill-rule="evenodd" stroke="none"/>
  </g>
</svg>
