<?xml version="1.0" encoding="UTF-8" standalone="no"?>
<svg xmlns:xlink="http://www.w3.org/1999/xlink" height="95.7px" width="139.15px" xmlns="http://www.w3.org/2000/svg">
  <g transform="matrix(1.0, 0.0, 0.0, 1.0, 72.3, 72.6)">
    <path d="M-69.25 13.35 Q-75.3 0.3 -69.25 -18.9 -64.65 -43.25 -55.85 -56.3 -33.55 -76.95 2.25 -71.4 39.05 -68.55 56.4 -51.35 69.3 -34.65 66.25 -7.4 68.4 11.15 61.0 17.6 53.1 23.1 40.45 21.0 L16.6 -16.1 5.1 -10.05 22.55 21.0 Q16.95 20.55 10.85 18.25 -0.3 23.25 -11.5 18.25 -22.0 23.75 -30.4 22.05 L-9.8 -10.3 -21.4 -17.3 -50.6 23.1 Q-60.6 23.35 -69.25 13.35" fill="#000000" fill-opacity="0.32941177" fill-rule="evenodd" stroke="none"/>
  </g>
</svg>
