<?xml version="1.0" encoding="UTF-8" standalone="no"?>
<svg xmlns:xlink="http://www.w3.org/1999/xlink" height="155.2px" width="110.25px" xmlns="http://www.w3.org/2000/svg">
  <g transform="matrix(1.0, 0.0, 0.0, 1.0, 55.15, 77.6)">
    <path d="M-27.45 -70.2 Q-25.15 -77.1 -17.55 -77.6 -11.65 -77.95 -10.0 -67.3 -7.8 -39.8 -11.1 -7.55 -15.2 23.25 -26.65 54.1 -35.95 79.15 -46.35 77.5 -56.75 75.8 -54.85 61.0 -53.0 46.15 -46.35 28.1 -30.3 -18.0 -27.45 -70.2 M10.65 -68.05 Q10.9 -75.3 18.35 -76.55 24.65 -76.55 26.55 -69.45 31.6 -48.3 33.85 -31.1 38.05 0.7 48.6 31.95 61.9 69.8 48.0 76.15 32.8 80.6 20.8 27.0 8.8 -26.65 10.65 -68.05" fill="#5ccbf0" fill-rule="evenodd" stroke="none"/>
  </g>
</svg>
