<?xml version="1.0" encoding="UTF-8" standalone="no"?>
<svg xmlns:xlink="http://www.w3.org/1999/xlink" height="142.55px" width="118.25px" xmlns="http://www.w3.org/2000/svg">
  <g transform="matrix(1.0, 0.0, 0.0, 1.0, 59.15, 71.25)">
    <path d="M-50.65 -39.95 Q-38.9 -65.85 -5.75 -70.4 34.9 -75.0 54.3 -55.25 L54.75 -54.8 Q56.65 -52.7 58.55 -47.35 61.1 -34.85 51.3 -27.2 43.75 -21.65 33.9 -25.8 45.05 -26.45 49.6 -31.0 56.15 -38.1 55.45 -48.2 49.05 -31.1 33.9 -30.1 26.65 -29.45 18.05 -34.75 2.85 -33.9 -1.4 -27.55 -1.5 -17.7 -7.3 -11.75 -2.3 4.4 -16.8 10.55 L-15.8 12.35 Q-11.35 21.4 -18.5 27.45 -13.7 35.15 -17.4 41.1 -19.0 43.75 -22.3 46.95 -25.1 49.7 -28.6 50.45 L-28.8 50.5 Q-41.35 53.15 -44.1 39.95 -56.95 34.1 -53.05 20.15 -58.6 15.7 -57.85 7.2 -57.6 4.35 -56.65 1.05 -61.7 -4.4 -56.5 -15.0 L-54.6 -18.6 Q-59.2 -32.2 -50.65 -39.95 M-14.1 45.9 Q-6.15 43.8 -1.2 49.25 3.35 55.65 9.2 50.35 L9.45 50.2 11.55 47.85 Q13.95 60.45 7.2 65.6 -1.85 72.65 -15.0 68.65 -13.35 70.1 -11.2 71.3 -24.95 71.55 -25.1 55.15 -22.8 55.95 -19.45 53.75 L-15.35 49.95 Q-13.9 47.8 -14.1 45.9" fill="#674611" fill-rule="evenodd" stroke="none"/>
  </g>
</svg>
