<?xml version="1.0" encoding="UTF-8" standalone="no"?>
<svg xmlns:xlink="http://www.w3.org/1999/xlink" height="60.25px" width="171.1px" xmlns="http://www.w3.org/2000/svg">
  <g transform="matrix(1.0, 0.0, 0.0, 1.0, 85.55, 30.1)">
    <path d="M53.2 -24.5 Q55.7 -25.6 61.3 -26.8 73.4 -27.3 85.55 -7.15 74.3 -15.15 60.05 -13.65 75.8 -8.85 74.15 15.05 73.65 21.8 71.8 30.15 70.95 23.4 67.75 17.4 53.65 27.5 42.3 4.05 42.35 11.9 48.65 19.75 40.95 15.1 38.85 8.0 34.5 -14.85 53.2 -24.4 L53.2 -24.5 M-60.05 23.65 L-62.35 26.75 Q-74.0 8.75 -58.45 -11.0 -72.35 -5.3 -80.8 6.9 -81.4 -14.85 -51.7 -20.4 -66.35 -26.1 -85.55 -19.0 -61.9 -41.45 -35.4 -18.45 -29.7 -13.85 -31.0 -0.8 -32.3 12.2 -48.4 16.15 -55.9 18.8 -60.05 23.65" fill="#efafbb" fill-rule="evenodd" stroke="none"/>
  </g>
</svg>
