<?xml version="1.0" encoding="UTF-8" standalone="no"?>
<svg xmlns:xlink="http://www.w3.org/1999/xlink" height="51.9px" width="43.05px" xmlns="http://www.w3.org/2000/svg">
  <g transform="matrix(1.0, 0.0, 0.0, 1.0, 21.5, 25.7)">
    <path d="M9.5 -13.4 Q11.35 -14.35 12.5 -15.95 L14.95 -13.55 Q18.0 -8.8 16.25 -4.6 L14.8 -2.15 15.15 1.65 Q17.55 12.1 20.55 19.95 16.85 23.7 3.05 25.2 -15.35 25.05 -20.5 20.15 L-16.65 9.95 Q-15.5 3.4 -17.6 -4.4 -18.45 -7.45 -18.7 -10.15 -17.0 -13.8 -9.5 -13.3 L-7.2 -13.2 -5.75 -12.9 Q3.0 -11.3 7.1 -12.6 L9.5 -13.4 M14.8 -2.15 L14.45 -1.7" fill="none" stroke="#000000" stroke-linecap="round" stroke-linejoin="round" stroke-width="2.0"/>
    <path d="M-9.5 -13.3 Q-9.9 -20.3 -12.4 -24.2 L-10.6 -25.2 Q-6.85 -20.1 -5.75 -12.9 M7.1 -12.6 Q6.9 -18.4 4.55 -24.3 L6.95 -22.6 Q9.5 -18.1 9.5 -13.4 M-5.35 -0.7 L0.55 -0.85 Q3.1 -1.65 4.1 -3.3 M-9.5 -13.3 L-8.45 -12.95" fill="none" stroke="#000000" stroke-linecap="round" stroke-linejoin="round" stroke-width="1.0"/>
  </g>
</svg>
