<?xml version="1.0" encoding="UTF-8" standalone="no"?>
<svg xmlns:xlink="http://www.w3.org/1999/xlink" height="54.9px" width="43.05px" xmlns="http://www.w3.org/2000/svg">
  <g transform="matrix(1.0, 0.0, 0.0, 1.0, 21.5, 27.45)">
    <path d="M1.4 -24.1 L1.85 -21.9 M-2.95 -24.1 L-2.95 -21.85 M-7.7 -24.4 L-7.9 -22.1" fill="none" stroke="#000000" stroke-linecap="round" stroke-linejoin="round" stroke-width="1.0"/>
    <path d="M4.3 -23.2 L7.2 -21.45 Q9.95 -19.35 11.8 -15.75 13.15 -11.3 14.0 -6.4 14.8 -1.95 15.15 2.9 17.55 13.35 20.55 21.2 16.85 24.95 3.05 26.45 -15.35 26.3 -20.5 21.4 L-16.65 10.0 Q-15.6 5.2 -17.2 -1.55 L-17.6 -3.15 Q-21.45 -16.85 -13.3 -22.45 L-10.75 -23.9 -10.75 -26.45 -0.15 -25.65 4.3 -26.1 4.3 -23.2 Q5.2 -20.0 5.35 -17.35 4.6 -14.85 2.2 -13.4 -5.1 -15.65 -7.05 -16.8 -10.85 -21.5 -10.75 -23.9 M7.2 -21.45 L8.5 -16.4 14.0 -6.4 M-13.3 -22.45 Q-10.9 -16.85 -10.4 -13.3 -11.3 -2.85 -17.2 -1.55" fill="none" stroke="#000000" stroke-linecap="round" stroke-linejoin="round" stroke-width="2.0"/>
  </g>
</svg>
