<?xml version="1.0" encoding="UTF-8" standalone="no"?>
<svg xmlns:xlink="http://www.w3.org/1999/xlink" height="37.4px" width="41.05px" xmlns="http://www.w3.org/2000/svg">
  <g transform="matrix(1.0, 0.0, 0.0, 1.0, 20.5, 18.7)">
    <path d="M13.1 -18.7 L14.0 -13.75 14.85 -7.25 Q2.6 -3.55 -16.4 -5.0 -16.75 -7.75 -17.6 -10.9 L-17.6 -11.0 Q-18.75 -15.1 -18.8 -18.5 3.45 -16.6 13.1 -18.7 M17.05 2.65 L17.3 3.55 17.6 4.6 17.8 5.3 Q19.1 9.7 20.55 13.45 16.85 17.2 3.05 18.7 -15.35 18.55 -20.5 13.65 L-17.5 4.8 Q-10.05 6.4 -1.75 6.45 12.45 5.95 17.05 2.65" fill="#514956" fill-rule="evenodd" stroke="none"/>
  </g>
</svg>
