<?xml version="1.0" encoding="UTF-8" standalone="no"?>
<svg xmlns:xlink="http://www.w3.org/1999/xlink" height="52.65px" width="43.05px" xmlns="http://www.w3.org/2000/svg">
  <g transform="matrix(1.0, 0.0, 0.0, 1.0, 21.5, 26.3)">
    <path d="M2.75 -13.45 L2.6 -12.9 2.2 -12.7 Q1.95 -12.7 1.7 -12.9 1.5 -13.15 1.45 -13.45 L1.55 -14.05 1.95 -14.25 2.45 -14.05 2.75 -13.45 M3.95 -7.8 Q3.95 -7.45 3.75 -7.25 L3.3 -7.1 2.9 -7.35 2.7 -7.9 Q2.7 -8.3 2.85 -8.5 L3.3 -8.65 3.7 -8.4 3.95 -7.8 M4.85 -2.85 Q4.8 -2.55 4.55 -2.4 L4.1 -2.3 3.7 -2.6 3.6 -3.2 3.85 -3.75 4.3 -3.85 4.7 -3.55 4.85 -2.85" fill="#000000" fill-rule="evenodd" stroke="none"/>
    <path d="M4.35 -23.8 L12.7 -15.0 Q15.85 -11.65 16.15 -8.45 16.45 -5.3 14.75 -2.1 L15.15 1.8 Q17.55 12.25 20.55 20.1 16.85 23.85 3.05 25.35 -15.35 25.2 -20.5 20.3 L-16.65 10.1 Q-15.5 3.55 -17.6 -4.25 -21.4 -17.8 -13.0 -23.75 L-12.85 -23.85 -10.4 -25.3 -10.35 -25.2 Q-8.45 -19.1 -1.75 -16.5 L-1.55 -16.45 -1.35 -16.35 -0.1 -15.95 1.45 -15.55 Q2.4 -16.2 3.05 -16.95 L3.2 -17.05 3.4 -17.35 Q5.45 -20.0 4.35 -23.75 L4.35 -23.8" fill="none" stroke="#000000" stroke-linecap="round" stroke-linejoin="round" stroke-width="2.0"/>
    <path d="M3.2 -17.05 L4.4 -16.25 6.35 -14.55 Q9.55 -11.3 9.85 -6.95 10.05 -3.3 8.05 -1.55 L6.4 -0.55 4.45 -0.1 3.0 -0.2 Q0.15 -0.55 -1.75 -1.95 -4.4 -4.0 -5.1 -8.15 -5.25 -12.2 -3.8 -14.45 -2.95 -15.75 -1.55 -16.45" fill="none" stroke="#000000" stroke-linecap="round" stroke-linejoin="round" stroke-width="1.5"/>
    <path d="M6.35 -14.55 Q8.5 -8.4 9.2 -3.7 M2.8 -15.9 Q5.1 -8.05 6.4 -0.55 M4.4 -16.25 Q6.8 -8.6 8.05 -1.55 M-3.8 -14.45 Q-1.85 -7.35 -1.75 -1.95 M-0.1 -15.95 Q1.9 -8.95 3.0 -0.2 M-2.15 -15.45 Q-0.05 -9.55 0.6 -1.05" fill="none" stroke="#000000" stroke-linecap="round" stroke-linejoin="round" stroke-width="0.7000000000000001"/>
  </g>
</svg>
