<?xml version="1.0" encoding="UTF-8" standalone="no"?>
<svg xmlns:xlink="http://www.w3.org/1999/xlink" height="16.1px" width="18.55px" xmlns="http://www.w3.org/2000/svg">
  <g transform="matrix(1.0, 0.0, 0.0, 1.0, 11.4, 27.05)">
    <path d="M6.35 -22.75 L7.15 -22.15 Q7.2 -16.25 5.25 -10.95 4.6 -13.0 3.15 -15.35 3.6 -16.5 3.2 -18.45 2.85 -19.3 2.35 -19.4 2.75 -19.35 2.85 -20.6 L1.4 -22.8 1.15 -23.1 Q2.85 -24.55 3.1 -26.05 5.75 -25.1 6.5 -22.9 L6.35 -22.75 M1.05 -15.25 Q0.5 -12.7 0.55 -10.95 L-2.4 -13.2 Q-5.95 -16.1 -6.5 -20.75 -7.3 -21.25 -8.55 -21.8 L-11.35 -22.9 -11.4 -22.9 Q-10.95 -25.2 -8.9 -27.05 -6.55 -26.6 -4.35 -25.1 -2.2 -23.65 -0.5 -23.0 L-1.0 -22.65 Q-1.6 -22.1 -2.05 -20.95 L0.15 -19.2 Q-0.35 -18.95 -0.35 -18.35 -0.25 -16.75 1.05 -15.25" fill="#e9f7f9" fill-rule="evenodd" stroke="none"/>
  </g>
</svg>
