<?xml version="1.0" encoding="UTF-8" standalone="no"?>
<svg xmlns:xlink="http://www.w3.org/1999/xlink" height="51.55px" width="42.55px" xmlns="http://www.w3.org/2000/svg">
  <g transform="matrix(1.0, 0.0, 0.0, 1.0, 21.25, 25.75)">
    <path d="M5.8 -8.25 Q5.85 -7.65 5.4 -7.15 5.0 -6.7 4.4 -6.7 3.75 -6.7 3.25 -7.15 2.8 -7.65 2.75 -8.25 2.75 -8.85 3.15 -9.35 3.6 -9.8 4.25 -9.8 4.85 -9.8 5.3 -9.35 5.8 -8.85 5.8 -8.25 M7.15 0.2 Q7.2 0.8 6.75 1.3 6.35 1.75 5.75 1.75 5.1 1.75 4.6 1.3 4.15 0.8 4.1 0.2 4.1 -0.4 4.5 -0.9 4.95 -1.35 5.6 -1.35 6.2 -1.35 6.65 -0.9 L7.15 0.2 M7.9 8.75 Q7.9 9.35 7.5 9.85 7.05 10.3 6.45 10.3 5.8 10.3 5.35 9.85 4.85 9.35 4.85 8.75 4.8 8.15 5.25 7.65 5.65 7.2 6.3 7.2 6.9 7.2 7.4 7.65 7.85 8.15 7.9 8.75" fill="#f6d1be" fill-rule="evenodd" stroke="none"/>
  </g>
</svg>
