<?xml version="1.0" encoding="UTF-8" standalone="no"?>
<svg xmlns:xlink="http://www.w3.org/1999/xlink" height="50.4px" width="41.9px" xmlns="http://www.w3.org/2000/svg">
  <g transform="matrix(1.0, 0.0, 0.0, 1.0, 20.95, 25.2)">
    <path d="M-5.95 -16.05 Q-3.3 -12.65 1.25 -11.6 5.4 -12.05 6.6 -17.85 L4.25 -24.3 Q6.6 -23.15 9.25 -20.4 15.35 -9.55 16.2 1.65 L17.25 5.05 Q20.2 15.0 20.95 23.75 13.6 25.45 2.0 25.15 -11.05 25.0 -15.35 23.8 -19.65 22.6 -20.95 21.5 L-17.55 13.2 Q-13.7 10.8 -12.3 5.05 -10.0 -4.6 -15.4 -22.4 L-11.5 -25.2 Q-7.3 -22.0 -5.95 -16.05" fill="#596176" fill-rule="evenodd" stroke="none"/>
  </g>
</svg>
