<?xml version="1.0" encoding="UTF-8" standalone="no"?>
<svg xmlns:xlink="http://www.w3.org/1999/xlink" height="52.05px" width="43.7px" xmlns="http://www.w3.org/2000/svg">
  <g transform="matrix(1.0, 0.0, 0.0, 1.0, 21.85, 26.0)">
    <path d="M-0.35 -16.5 L0.6 -16.35 1.0 -15.8 0.6 -15.4 Q0.25 -15.15 -0.35 -15.15 L-1.25 -15.4 Q-1.6 -15.55 -1.6 -15.85 L-1.25 -16.35 -0.35 -16.5 M-1.0 -12.95 L-0.1 -13.1 0.85 -12.95 1.2 -12.4 Q1.2 -12.15 0.85 -12.0 0.45 -11.75 -0.1 -11.75 L-1.0 -12.0 Q-1.4 -12.15 -1.4 -12.45 L-1.0 -12.95 M2.0 3.7 Q1.95 3.4 2.35 3.2 L2.5 3.15 3.25 3.05 4.2 3.2 4.6 3.7 4.25 4.15 3.35 4.4 2.5 4.2 2.4 4.15 2.0 3.7 M3.0 9.7 L2.85 9.65 2.55 9.2 2.8 8.85 2.9 8.75 3.8 8.55 4.75 8.75 5.15 9.25 Q5.2 9.55 4.85 9.7 L4.65 9.8 3.9 9.9 3.2 9.8 3.0 9.7" fill="#000000" fill-rule="evenodd" stroke="none"/>
    <path d="M9.55 -19.25 Q7.65 -18.1 5.4 -18.35 3.15 -18.65 1.4 -20.2 -6.2 -14.7 -11.2 -19.25 L-13.5 -22.55 M-3.65 13.5 Q-2.35 11.95 -0.25 11.25 5.4 16.1 5.75 23.15 -0.05 18.85 -3.65 13.5" fill="none" stroke="#000000" stroke-linecap="round" stroke-linejoin="round" stroke-width="1.0"/>
    <path d="M1.4 -20.2 Q6.9 -6.75 7.75 20.7 L7.85 24.8 Q20.15 23.95 20.85 21.75 L20.2 17.45 20.0 16.6 Q18.1 7.5 14.85 -1.4 15.2 4.8 14.5 12.85 M7.85 24.8 L5.15 24.95 Q-12.75 25.5 -20.85 22.25 -19.45 19.35 -18.6 16.7 L-16.65 11.35 Q-15.6 8.7 -16.8 -0.05 -21.65 -15.9 -13.5 -22.55 L-13.5 -23.0 Q-12.1 -24.1 -9.7 -25.0 -5.6 -22.25 1.4 -20.2 L4.35 -23.7 Q7.4 -21.65 9.55 -19.25 14.0 -14.25 14.85 -1.4 M-16.8 -0.05 Q-13.2 6.95 -11.65 11.5" fill="none" stroke="#000000" stroke-linecap="round" stroke-linejoin="round" stroke-width="2.0"/>
  </g>
</svg>
