<?xml version="1.0" encoding="UTF-8" standalone="no"?>
<svg xmlns:xlink="http://www.w3.org/1999/xlink" height="53.9px" width="43.7px" xmlns="http://www.w3.org/2000/svg">
  <g transform="matrix(1.0, 0.0, 0.0, 1.0, 21.85, 26.95)">
    <path d="M7.6 -22.75 L8.35 -23.5 Q11.25 -21.35 14.2 -17.85 L13.35 -16.25 Q15.65 -8.05 16.3 2.45 L17.5 5.85 Q17.85 7.05 17.75 8.3 20.75 16.7 21.1 23.7 15.75 26.4 2.15 26.2 -15.15 25.4 -21.1 24.1 L-18.05 14.4 Q-18.6 13.3 -17.95 12.0 -16.25 11.45 -16.35 10.7 -15.25 6.75 -15.85 2.7 -6.7 2.15 -9.75 -15.35 -18.5 -16.7 -18.55 -18.15 -19.9 -20.35 -16.7 -23.3 -15.55 -24.0 -13.4 -24.55 L-12.7 -24.4 Q-11.05 -25.95 -9.6 -26.2 -8.6 -26.05 -6.9 -25.2 -3.3 -23.25 3.0 -18.05 3.85 -22.55 4.8 -25.4 5.65 -25.2 7.6 -22.75 5.15 -20.4 3.25 -17.6 -5.4 -22.7 -12.7 -24.4 M-7.2 -14.95 L-9.75 -15.35" fill="none" stroke="#000000" stroke-linecap="round" stroke-linejoin="round" stroke-width="1.5"/>
    <path d="M8.8 -19.55 L8.15 -18.8 8.5 -14.9 Q11.15 -15.3 13.35 -16.25 M8.15 -18.8 L6.2 -17.1 6.35 -14.75 6.9 -3.2 7.0 -0.8 9.05 -0.8 9.1 -2.4 Q9.05 -8.1 8.5 -14.9 M6.2 -17.1 L5.65 -16.8 M6.35 -14.75 L4.35 -14.4 M-0.95 -14.4 L-1.15 -17.5 -3.3 -18.45 -3.15 -14.55 -2.5 -0.5 -0.2 -0.5 -0.95 -14.4 1.15 -14.25 M-3.15 -14.55 L-7.2 -14.95 Q-5.3 -2.8 -8.95 3.05 -10.4 4.95 -14.35 5.45 M-6.0 -19.5 L-3.3 -18.45 M-1.15 -17.5 L0.45 -16.7" fill="none" stroke="#000000" stroke-linecap="round" stroke-linejoin="round" stroke-width="1.0"/>
  </g>
</svg>
