<?xml version="1.0" encoding="UTF-8" standalone="no"?>
<svg xmlns:xlink="http://www.w3.org/1999/xlink" height="43.4px" width="40.55px" xmlns="http://www.w3.org/2000/svg">
  <g transform="matrix(1.0, 0.0, 0.0, 1.0, 20.25, 21.7)">
    <path d="M11.25 -9.25 Q13.3 -10.35 13.15 -11.5 12.65 -12.85 10.05 -12.7 11.15 -13.45 12.3 -15.15 15.8 -10.7 17.9 -6.5 18.75 -2.35 16.4 0.7 L18.4 9.05 Q18.65 11.05 16.55 12.3 L10.1 13.15 6.7 13.4 2.5 13.65 0.7 13.65 Q-3.65 15.7 -7.75 16.3 -11.05 15.35 -13.7 13.15 L-17.8 12.55 -18.7 -2.6 Q-21.8 -13.55 -14.8 -20.05 L-12.7 -21.7 Q-14.8 -18.25 -14.15 -15.05 -12.65 -11.8 -8.3 -11.55 -9.7 -10.5 -9.65 -9.0 -9.0 -7.35 -6.0 -7.5 L-5.9 -7.2 Q-8.45 -5.0 -7.4 -1.8 -5.35 1.9 -1.0 0.65 -2.25 2.95 -1.4 4.0 L-0.95 4.4 Q0.9 5.35 2.1 3.3 3.85 8.95 9.2 9.4 13.1 8.5 11.25 2.15 13.05 3.85 14.2 2.15 15.15 0.45 12.3 -0.35 16.0 -0.45 16.1 -4.55 15.55 -8.35 11.25 -9.25 M2.75 19.85 L2.85 19.9 2.85 21.6 Q-10.95 22.1 -20.25 19.85 L-19.75 18.75 -19.85 17.6 Q-15.8 19.8 2.75 19.85 M20.3 20.4 L16.95 20.9 7.7 21.4 7.55 20.2 8.55 19.65 18.3 18.9 19.7 18.6 20.3 20.4" fill="#7581d9" fill-rule="evenodd" stroke="none"/>
  </g>
</svg>
