<?xml version="1.0" encoding="UTF-8" standalone="no"?>
<svg xmlns:xlink="http://www.w3.org/1999/xlink" height="33.5px" width="27.05px" xmlns="http://www.w3.org/2000/svg">
  <g transform="matrix(1.0, 0.0, 0.0, 1.0, 13.5, 16.75)">
    <path d="M-0.5 -12.15 L0.7 -15.75 Q6.05 -13.45 12.55 -13.55 L11.3 -9.9 Q8.65 -3.65 6.7 2.5 L6.45 3.95 Q5.95 5.95 5.75 7.65 5.3 11.2 2.85 12.6 0.4 13.95 -1.8 13.95 -3.95 13.95 -5.6 12.65 -6.95 14.3 -8.3 15.15 -9.6 15.95 -11.35 15.7 -13.05 15.4 -12.25 13.3 L-10.35 8.9 -8.6 5.3 -6.85 2.5 -4.75 -0.85 -4.6 -1.2 M-4.55 -1.15 L-0.45 -12.1 M-0.4 4.7 L-1.65 5.95 Q-2.5 10.85 -5.45 9.95 -8.35 9.0 -7.2 4.55 M-4.1 10.7 L-5.6 12.65" fill="none" stroke="#000000" stroke-linecap="round" stroke-linejoin="round" stroke-width="2.0"/>
    <path d="M-4.6 -1.2 L-4.55 -1.15 M-0.45 -12.1 L-0.5 -12.15 M-0.45 -12.1 Q4.25 -9.25 11.3 -9.9" fill="none" stroke="#000000" stroke-linecap="round" stroke-linejoin="round" stroke-width="1.0"/>
  </g>
</svg>
