<?xml version="1.0" encoding="UTF-8" standalone="no"?>
<svg xmlns:xlink="http://www.w3.org/1999/xlink" height="69.0px" width="536.7px" xmlns="http://www.w3.org/2000/svg">
  <g transform="matrix(1.0, 0.0, 0.0, 1.0, 6.75, 4.85)">
    <path d="M7.45 -3.15 Q-4.35 -3.15 -4.35 8.65 L-4.35 49.3 Q-4.35 61.05 7.45 61.05 L515.8 61.05 Q527.55 61.05 527.55 49.3 L527.55 8.65 Q527.55 -3.15 515.8 -3.15 L7.45 -3.15 M515.8 -4.85 Q529.95 -4.85 529.95 9.35 L529.95 50.05 Q529.95 64.15 515.8 64.15 L7.45 64.15 Q-6.75 64.15 -6.75 50.05 L-6.75 9.35 Q-6.75 -4.85 7.45 -4.85 L515.8 -4.85" fill="url(#gradient0)" fill-rule="evenodd" stroke="none"/>
  </g>
  <defs>
    <linearGradient gradientTransform="matrix(0.0, -0.0368, 0.3276, 0.0, 261.6, 27.5)" gradientUnits="userSpaceOnUse" id="gradient0" spreadMethod="pad" x1="-819.2" x2="819.2">
      <stop offset="0.0" stop-color="#2b2b41" stop-opacity="0.9372549"/>
      <stop offset="1.0" stop-color="#191923" stop-opacity="0.9098039"/>
    </linearGradient>
  </defs>
</svg>
