<?xml version="1.0" encoding="UTF-8" standalone="no"?>
<svg xmlns:xlink="http://www.w3.org/1999/xlink" height="9.9px" width="64.55px" xmlns="http://www.w3.org/2000/svg">
  <g transform="matrix(1.0, 0.0, 0.0, 1.0, 32.3, 5.9)">
    <path d="M-26.85 -5.65 L26.8 -5.65 29.35 -5.1 30.5 -4.3 Q32.0 -2.9 32.0 -0.95 32.0 1.0 30.5 2.35 28.95 3.75 26.8 3.75 L-26.85 3.75 -27.35 3.75 Q-29.15 3.55 -30.55 2.35 -32.05 1.0 -32.05 -0.95 -32.05 -2.9 -30.55 -4.3 -29.0 -5.65 -26.85 -5.65" fill="#000000" fill-opacity="0.7176471" fill-rule="evenodd" stroke="none"/>
    <path d="M-26.85 -5.65 L26.8 -5.65 29.35 -5.1 30.5 -4.3 Q32.0 -2.9 32.0 -0.95 32.0 1.0 30.5 2.35 28.95 3.75 26.8 3.75 L-26.85 3.75 -27.35 3.75 Q-29.15 3.55 -30.55 2.35 -32.05 1.0 -32.05 -0.95 -32.05 -2.9 -30.55 -4.3 -29.0 -5.65 -26.85 -5.65 Z" fill="none" stroke="#000000" stroke-linecap="round" stroke-linejoin="round" stroke-opacity="0.5568628" stroke-width="0.5"/>
    <path d="M-16.15 -4.2 L26.15 -4.2 Q27.65 -4.2 28.7 -3.3 29.8 -2.3 29.8 -0.9 29.8 0.45 28.7 1.45 27.65 2.35 26.15 2.35 L-16.15 2.35 Q-17.75 2.35 -18.85 1.45 -19.8 0.45 -19.8 -0.9 -19.8 -2.3 -18.85 -3.3 -17.75 -4.2 -16.15 -4.2" fill="#000000" fill-opacity="0.60784316" fill-rule="evenodd" stroke="none"/>
  </g>
</svg>
