<?xml version="1.0" encoding="UTF-8" standalone="no"?>
<svg xmlns:xlink="http://www.w3.org/1999/xlink" height="23.65px" width="22.0px" xmlns="http://www.w3.org/2000/svg">
  <g transform="matrix(1.0, 0.0, 0.0, 1.0, 0.0, 11.85)">
    <path d="M10.25 -10.2 L10.05 -9.0 9.55 -8.5 9.1 -9.0 8.9 -10.2 9.1 -11.35 9.55 -11.85 10.05 -11.35 10.25 -10.2 M3.9 -5.7 Q4.4 -6.8 5.4 -7.35 6.6 -8.2 8.1 -8.1 9.75 -7.55 8.6 -6.2 7.65 -5.3 7.45 -3.95 6.65 -4.35 5.85 -3.95 3.45 -2.7 3.9 -5.7 M0.5 -2.5 Q0.0 -2.65 0.0 -2.95 0.0 -3.25 0.5 -3.45 L1.65 -3.65 2.85 -3.45 3.35 -2.95 Q3.35 -2.65 2.85 -2.5 L1.65 -2.3 0.5 -2.5 M14.6 -1.8 Q10.15 -2.45 8.25 -0.3 7.45 -4.25 10.2 -5.05 12.95 -5.6 14.6 -1.8 M18.3 -1.5 Q18.25 -2.7 19.2 -3.7 20.55 -3.5 21.85 -2.15 22.1 -0.55 21.3 0.7 18.9 0.25 18.3 -1.5 M16.35 -8.8 Q19.15 -7.35 16.9 -1.65 14.65 -5.8 10.25 -6.85 14.35 -10.25 16.35 -8.8 M13.8 1.25 Q13.4 2.5 12.75 3.1 11.25 2.95 10.2 1.5 9.7 0.8 10.0 0.1 10.55 -0.65 11.75 -0.25 12.3 -1.15 13.35 -0.8 14.3 -0.25 13.8 1.25 M21.2 -5.25 L20.25 -4.55 Q19.75 -4.35 19.55 -4.55 19.35 -4.75 19.55 -5.25 L20.25 -6.2 21.2 -6.9 21.9 -6.95 Q22.1 -6.75 21.9 -6.2 L21.2 -5.25 M17.85 2.2 Q18.45 4.0 15.9 4.7 13.85 5.25 13.1 4.3 15.7 2.5 15.35 -1.0 17.4 -0.1 17.85 2.2 M12.35 1.25 L12.5 0.85 12.35 0.5 12.05 0.35 Q11.85 0.35 11.7 0.5 L11.55 0.85 11.7 1.25 12.05 1.35 12.35 1.25 M12.65 10.95 Q12.8 9.85 14.3 8.9 14.9 7.9 15.55 8.0 16.3 8.4 16.15 9.95 16.05 11.35 14.6 11.4 13.15 11.4 12.65 10.95 M14.2 6.6 Q12.8 10.4 10.35 10.55 6.25 10.1 6.6 6.05 10.7 7.85 12.6 6.65 L14.2 6.6 M17.75 9.65 L18.35 9.6 Q18.85 9.75 19.25 10.2 L19.85 11.05 Q20.0 11.5 19.8 11.65 L19.1 11.75 18.2 11.2 17.7 10.35 Q17.55 9.9 17.75 9.65 M15.7 6.45 Q19.3 5.4 18.95 1.1 22.6 3.4 20.7 6.7 18.15 10.05 15.7 6.45 M8.05 5.15 Q5.8 3.75 8.05 0.5 9.2 3.1 12.1 4.05 10.9 6.05 8.05 5.15 M5.15 8.05 Q2.7 7.85 2.95 6.15 3.2 4.85 4.25 5.45 L5.5 6.0 Q4.85 7.15 5.15 8.05 M5.8 9.9 L5.3 10.75 4.45 11.25 3.85 11.2 Q3.7 11.05 3.8 10.6 L4.35 9.8 5.15 9.25 5.75 9.3 Q5.95 9.55 5.8 9.9 M6.05 4.95 Q1.55 3.7 1.45 1.45 1.4 -1.9 6.65 -2.6 4.7 1.5 6.05 4.95" fill="#e3d183" fill-rule="evenodd" stroke="none"/>
  </g>
</svg>
