<?xml version="1.0" encoding="UTF-8" standalone="no"?>
<svg xmlns:xlink="http://www.w3.org/1999/xlink" height="71.5px" width="84.2px" xmlns="http://www.w3.org/2000/svg">
  <g transform="matrix(1.0, 0.0, 0.0, 1.0, 42.6, 37.75)">
    <path d="M-42.1 -16.8 L-42.1 -37.25 41.1 -37.25 41.1 -16.8 -0.75 -16.8 -42.1 -16.8" fill="url(#gradient0)" fill-rule="evenodd" stroke="none"/>
    <path d="M41.1 -16.8 L41.1 33.25 -0.75 33.25 -0.75 -16.8 41.1 -16.8" fill="url(#gradient1)" fill-rule="evenodd" stroke="none"/>
    <path d="M-0.75 33.25 L-42.1 33.25 -42.1 -16.8 -0.75 -16.8 -0.75 33.25" fill="url(#gradient2)" fill-rule="evenodd" stroke="none"/>
    <path d="M-42.1 -16.8 L-42.1 -37.25 41.1 -37.25 41.1 -16.8 41.1 33.25 -0.75 33.25 -42.1 33.25 -42.1 -16.8" fill="none" stroke="#9dc0d0" stroke-linecap="round" stroke-linejoin="round" stroke-opacity="0.4" stroke-width="1.0"/>
    <path d="M-42.1 -16.8 L-0.75 -16.8 41.1 -16.8" fill="none" stroke="#8ebeff" stroke-linecap="round" stroke-linejoin="round" stroke-opacity="0.29803923" stroke-width="1.0"/>
    <path d="M-0.75 -16.8 L-0.75 33.25" fill="none" stroke="#9dc0d0" stroke-linecap="round" stroke-linejoin="round" stroke-opacity="0.24705882" stroke-width="1.0"/>
  </g>
  <defs>
    <linearGradient gradientTransform="matrix(0.0, 0.0099, -0.0508, 0.0, -0.45, -27.35)" gradientUnits="userSpaceOnUse" id="gradient0" spreadMethod="pad" x1="-819.2" x2="819.2">
      <stop offset="0.00392156862745098" stop-color="#1b1a33" stop-opacity="0.92941177"/>
      <stop offset="1.0" stop-color="#1b263f" stop-opacity="0.92941177"/>
    </linearGradient>
    <linearGradient gradientTransform="matrix(0.0, -0.032, 0.0255, 0.0, 20.1, 7.05)" gradientUnits="userSpaceOnUse" id="gradient1" spreadMethod="pad" x1="-819.2" x2="819.2">
      <stop offset="0.0" stop-color="#121a27" stop-opacity="0.92941177"/>
      <stop offset="1.0" stop-color="#121120" stop-opacity="0.92941177"/>
    </linearGradient>
    <linearGradient gradientTransform="matrix(0.0, -0.032, 0.0252, 0.0, -21.4, 7.05)" gradientUnits="userSpaceOnUse" id="gradient2" spreadMethod="pad" x1="-819.2" x2="819.2">
      <stop offset="0.0" stop-color="#1c4174" stop-opacity="0.92941177"/>
      <stop offset="1.0" stop-color="#171a5d" stop-opacity="0.92941177"/>
    </linearGradient>
  </defs>
</svg>
