<?xml version="1.0" encoding="UTF-8" standalone="no"?>
<svg xmlns:xlink="http://www.w3.org/1999/xlink" height="41.45px" width="508.25px" xmlns="http://www.w3.org/2000/svg">
  <g transform="matrix(1.0, 0.0, 0.0, 1.0, 125.7, 21.45)">
    <path d="M43.7 -21.45 L49.4 -21.45 123.4 -21.45 128.3 -21.45 128.3 20.0 123.4 20.0 49.4 20.0 43.7 20.0 43.7 -21.45 M123.4 20.0 L123.4 -21.45 123.4 20.0 M49.4 -21.45 L49.4 20.0 49.4 -21.45" fill="url(#gradient0)" fill-rule="evenodd" stroke="none"/>
    <path d="M213.1 -21.45 L297.85 -21.45 297.85 20.0 213.1 20.0 213.1 -21.45" fill="url(#gradient1)" fill-rule="evenodd" stroke="none"/>
    <path d="M43.7 20.0 L-41.05 20.0 -125.7 20.0 -125.7 -21.45 -41.05 -21.45 43.7 -21.45 43.7 20.0 M213.1 20.0 L128.4 20.0 128.4 -21.45 213.1 -21.45 213.1 20.0 M-41.05 20.0 L-41.05 -21.45 -41.05 20.0" fill="url(#gradient2)" fill-rule="evenodd" stroke="none"/>
    <path d="M297.85 -21.45 L382.55 -21.45 382.55 20.0 297.85 20.0 297.85 -21.45" fill="url(#gradient3)" fill-rule="evenodd" stroke="none"/>
    <path d="M43.7 -21.45 L49.4 -21.45 123.4 -21.45 128.3 -21.45 128.3 20.0 123.4 20.0 49.4 20.0 43.7 20.0 -41.05 20.0 -125.7 20.0 -125.7 -21.45 -41.05 -21.45 43.7 -21.45 43.7 20.0 M213.1 -21.45 L297.85 -21.45 382.55 -21.45 382.55 20.0 297.85 20.0 213.1 20.0 128.4 20.0 128.4 -21.45 213.1 -21.45 213.1 20.0 M297.85 -21.45 L297.85 20.0 M-41.05 -21.45 L-41.05 20.0" fill="none" stroke="#b5bdf0" stroke-linecap="round" stroke-linejoin="round" stroke-opacity="0.36862746" stroke-width="0.05"/>
    <path d="M79.15 -0.35 Q77.65 -1.75 76.05 -2.75 72.35 -4.95 67.8 -5.2 L65.5 -4.85 Q62.5 -4.2 59.95 -2.75 58.2 -1.75 56.6 -0.35 60.4 3.35 65.5 4.3 L68.15 4.55 Q73.6 4.55 79.15 -0.35 M53.35 -0.35 L56.1 -2.75 Q60.55 -6.2 65.5 -7.05 L67.55 -7.3 Q74.0 -7.4 79.75 -2.75 L82.35 -0.35 Q76.25 6.3 67.8 6.85 L65.5 6.55 Q58.3 5.2 53.35 -0.35 M64.75 -3.4 L65.5 -3.95 Q66.55 -4.55 67.8 -4.55 69.6 -4.55 70.95 -3.4 L71.45 -2.75 Q72.15 -1.7 72.15 -0.35 72.15 1.5 70.95 2.7 69.6 4.0 67.8 4.0 66.55 4.0 65.5 3.35 L64.75 2.7 Q63.5 1.5 63.5 -0.35 63.5 -1.7 64.25 -2.75 L64.75 -3.4 M66.25 -1.9 Q65.6 -1.15 65.6 -0.35 65.6 0.7 66.25 1.3 67.0 1.9 67.8 1.9 68.75 1.9 69.4 1.3 70.05 0.7 70.05 -0.35 70.05 -1.15 69.4 -1.9 68.75 -2.55 67.8 -2.55 67.0 -2.55 66.25 -1.9" fill="#8c92ba" fill-rule="evenodd" stroke="none"/>
  </g>
  <defs>
    <linearGradient gradientTransform="matrix(0.0, -0.0253, 0.0517, 0.0, 85.95, -0.7)" gradientUnits="userSpaceOnUse" id="gradient0" spreadMethod="pad" x1="-819.2" x2="819.2">
      <stop offset="0.0" stop-color="#25344f" stop-opacity="0.92941177"/>
      <stop offset="0.5450980392156862" stop-color="#1a2444" stop-opacity="0.92941177"/>
      <stop offset="1.0" stop-color="#1b193a" stop-opacity="0.92941177"/>
    </linearGradient>
    <linearGradient gradientTransform="matrix(0.0, -0.0253, -0.2068, 0.0, 382.5, -0.7)" gradientUnits="userSpaceOnUse" id="gradient1" spreadMethod="pad" x1="-819.2" x2="819.2">
      <stop offset="0.0" stop-color="#25344f" stop-opacity="0.92941177"/>
      <stop offset="0.5450980392156862" stop-color="#1a2444" stop-opacity="0.92941177"/>
      <stop offset="1.0" stop-color="#1b193a" stop-opacity="0.92941177"/>
    </linearGradient>
    <linearGradient gradientTransform="matrix(0.0, -0.0253, 0.2068, 0.0, 43.6, -0.7)" gradientUnits="userSpaceOnUse" id="gradient2" spreadMethod="pad" x1="-819.2" x2="819.2">
      <stop offset="0.0" stop-color="#25344f" stop-opacity="0.92941177"/>
      <stop offset="0.5450980392156862" stop-color="#1a2444" stop-opacity="0.92941177"/>
      <stop offset="1.0" stop-color="#1b193a" stop-opacity="0.92941177"/>
    </linearGradient>
    <linearGradient gradientTransform="matrix(0.0, -0.0253, 0.2068, 0.0, 213.1, -0.7)" gradientUnits="userSpaceOnUse" id="gradient3" spreadMethod="pad" x1="-819.2" x2="819.2">
      <stop offset="0.0" stop-color="#25344f" stop-opacity="0.92941177"/>
      <stop offset="0.5450980392156862" stop-color="#1a2444" stop-opacity="0.92941177"/>
      <stop offset="1.0" stop-color="#1b193a" stop-opacity="0.92941177"/>
    </linearGradient>
  </defs>
</svg>
