<?xml version="1.0" encoding="UTF-8" standalone="no"?>
<svg xmlns:xlink="http://www.w3.org/1999/xlink" height="198.5px" width="124.45px" xmlns="http://www.w3.org/2000/svg">
  <g transform="matrix(1.0, 0.0, 0.0, 1.0, 60.25, 119.45)">
    <path d="M63.7 -118.95 L63.7 -88.6 -59.75 -88.6 -59.75 -118.95 63.7 -118.95" fill="url(#gradient0)" fill-rule="evenodd" stroke="none"/>
    <path d="M2.05 8.75 L60.9 8.75 60.9 78.55 2.05 78.55 2.05 8.75" fill="url(#gradient1)" fill-rule="evenodd" stroke="none"/>
    <path d="M0.9 78.55 L-57.1 78.55 -57.1 8.75 0.9 8.75 0.9 78.55" fill="url(#gradient2)" fill-rule="evenodd" stroke="none"/>
    <path d="M63.7 -118.95 L63.7 -88.6 -59.75 -88.6 -59.75 -118.95 63.7 -118.95 M0.9 78.55 L-57.1 78.55 -57.1 8.75 0.9 8.75 0.9 78.55 M2.05 8.75 L60.9 8.75 60.9 78.55 2.05 78.55 2.05 8.75" fill="none" stroke="#8ebeff" stroke-linecap="round" stroke-linejoin="round" stroke-opacity="0.29803923" stroke-width="1.0"/>
    <path d="M43.35 42.1 L43.85 42.9 43.85 43.0 43.85 43.7 43.85 43.8 43.45 44.5 43.4 44.6 30.9 56.0 29.65 56.45 Q28.85 56.45 28.5 56.0 L28.45 55.95 Q28.05 55.4 28.05 54.75 28.05 54.0 28.65 53.5 L39.75 43.3 28.55 32.35 Q28.05 31.9 28.05 31.15 28.05 30.5 28.5 29.95 28.95 29.5 29.75 29.5 30.4 29.5 30.9 29.95 L43.35 42.1 M26.9 40.8 Q27.85 41.7 27.85 43.0 27.85 44.3 26.9 45.25 L26.9 45.2 Q26.05 46.05 24.75 46.05 23.55 46.05 22.6 45.25 L22.6 45.2 Q21.7 44.3 21.7 43.0 21.7 41.7 22.6 40.8 23.55 40.05 24.75 40.05 26.05 40.05 26.9 40.8" fill="url(#gradient3)" fill-rule="evenodd" stroke="none"/>
    <path d="M-23.7 40.8 Q-22.85 40.05 -21.55 40.05 -20.35 40.05 -19.4 40.8 -18.5 41.7 -18.5 43.0 -18.5 44.3 -19.4 45.2 L-19.4 45.25 Q-20.35 46.05 -21.55 46.05 -22.85 46.05 -23.7 45.2 L-23.7 45.25 Q-24.65 44.3 -24.65 43.0 -24.65 41.7 -23.7 40.8 M-40.15 42.1 L-27.7 29.95 Q-27.25 29.5 -26.6 29.5 -25.75 29.5 -25.3 29.95 -24.85 30.5 -24.85 31.15 -24.85 31.9 -25.4 32.35 L-36.6 43.3 -25.45 53.5 Q-24.85 54.0 -24.85 54.75 -24.85 55.4 -25.25 55.95 L-25.3 56.0 Q-25.7 56.45 -26.45 56.45 L-27.7 56.0 -40.25 44.6 -40.3 44.5 -40.65 43.8 -40.65 43.7 -40.65 43.0 -40.65 42.9 -40.15 42.1" fill="url(#gradient4)" fill-rule="evenodd" stroke="none"/>
  </g>
  <defs>
    <linearGradient gradientTransform="matrix(0.0, 0.0123, -0.0753, 0.0, 1.95, -98.7)" gradientUnits="userSpaceOnUse" id="gradient0" spreadMethod="pad" x1="-819.2" x2="819.2">
      <stop offset="0.00392156862745098" stop-color="#1b1a33" stop-opacity="0.92941177"/>
      <stop offset="1.0" stop-color="#1b263f" stop-opacity="0.92941177"/>
    </linearGradient>
    <linearGradient gradientTransform="matrix(0.0, -0.0403, 0.1211, 0.0, -38.35, 42.9)" gradientUnits="userSpaceOnUse" id="gradient1" spreadMethod="pad" x1="-819.2" x2="819.2">
      <stop offset="0.0" stop-color="#121a27" stop-opacity="0.92941177"/>
      <stop offset="1.0" stop-color="#121120" stop-opacity="0.92941177"/>
    </linearGradient>
    <linearGradient gradientTransform="matrix(0.0, -0.0403, 0.1211, 0.0, 42.05, 42.9)" gradientUnits="userSpaceOnUse" id="gradient2" spreadMethod="pad" x1="-819.2" x2="819.2">
      <stop offset="0.0" stop-color="#1c4174" stop-opacity="0.92941177"/>
      <stop offset="1.0" stop-color="#171a5d" stop-opacity="0.92941177"/>
    </linearGradient>
    <linearGradient gradientTransform="matrix(0.0, -0.0138, 0.1011, 0.0, -39.0, 43.1)" gradientUnits="userSpaceOnUse" id="gradient3" spreadMethod="pad" x1="-819.2" x2="819.2">
      <stop offset="0.0" stop-color="#799bc9" stop-opacity="0.827451"/>
      <stop offset="0.9921568627450981" stop-color="#646ea6" stop-opacity="0.81960785"/>
    </linearGradient>
    <linearGradient gradientTransform="matrix(0.0, -0.0138, 0.1011, 0.0, 42.15, 43.1)" gradientUnits="userSpaceOnUse" id="gradient4" spreadMethod="pad" x1="-819.2" x2="819.2">
      <stop offset="0.0" stop-color="#84c4ff" stop-opacity="0.827451"/>
      <stop offset="0.9921568627450981" stop-color="#8494f5" stop-opacity="0.81960785"/>
    </linearGradient>
  </defs>
</svg>
