<?xml version="1.0" encoding="UTF-8" standalone="no"?>
<svg xmlns:xlink="http://www.w3.org/1999/xlink" height="142.1px" width="124.2px" xmlns="http://www.w3.org/2000/svg">
  <g transform="matrix(1.0, 0.0, 0.0, 1.0, 62.45, 61.6)">
    <path d="M-61.95 -38.7 L-61.95 -61.1 61.25 -61.1 61.25 -38.7 -61.95 -38.7" fill="url(#gradient0)" fill-rule="evenodd" stroke="none"/>
    <path d="M61.25 -38.7 L61.25 -38.65 61.25 80.0 -61.95 80.0 -61.95 -38.65 -61.95 -38.7 61.25 -38.7 M61.25 -38.65 L-61.95 -38.65 61.25 -38.65" fill="url(#gradient1)" fill-rule="evenodd" stroke="none"/>
    <path d="M61.25 -38.7 L61.25 -38.65 61.25 80.0 -61.95 80.0 -61.95 -38.65 -61.95 -38.7 -61.95 -61.1 61.25 -61.1 61.25 -38.7" fill="none" stroke="#9dc0d0" stroke-linecap="round" stroke-linejoin="round" stroke-opacity="0.4" stroke-width="1.0"/>
    <path d="M-61.95 -38.65 L61.25 -38.65" fill="none" stroke="#8ebeff" stroke-linecap="round" stroke-linejoin="round" stroke-opacity="0.29803923" stroke-width="1.0"/>
    <path d="M-56.4 -34.3 L55.75 -34.3 55.75 74.9 -56.4 74.9 -56.4 -34.3" fill="#2a2b38" fill-opacity="0.9137255" fill-rule="evenodd" stroke="none"/>
  </g>
  <defs>
    <linearGradient gradientTransform="matrix(0.0, 0.0137, -0.0752, 0.0, -0.3, -49.9)" gradientUnits="userSpaceOnUse" id="gradient0" spreadMethod="pad" x1="-819.2" x2="819.2">
      <stop offset="0.00392156862745098" stop-color="#1b1a33" stop-opacity="0.92941177"/>
      <stop offset="1.0" stop-color="#1b263f" stop-opacity="0.92941177"/>
    </linearGradient>
    <linearGradient gradientTransform="matrix(0.0, -0.0724, 0.0752, 0.0, -0.3, 20.65)" gradientUnits="userSpaceOnUse" id="gradient1" spreadMethod="pad" x1="-819.2" x2="819.2">
      <stop offset="0.0" stop-color="#121a27" stop-opacity="0.92941177"/>
      <stop offset="1.0" stop-color="#121120" stop-opacity="0.92941177"/>
    </linearGradient>
  </defs>
</svg>
