<?xml version="1.0" encoding="UTF-8" standalone="no"?>
<svg xmlns:xlink="http://www.w3.org/1999/xlink" height="69.2px" width="71.2px" xmlns="http://www.w3.org/2000/svg">
  <g transform="matrix(1.0, 0.0, 0.0, 1.0, 35.15, 51.25)">
    <path d="M35.55 -28.35 L35.55 17.45 -34.65 17.45 -34.65 -28.35 -34.6 -28.35 35.55 -28.35" fill="url(#gradient0)" fill-rule="evenodd" stroke="none"/>
    <path d="M-34.65 -28.35 L-34.65 -50.75 35.55 -50.75 35.55 -28.35 -34.6 -28.35 -34.65 -28.35" fill="url(#gradient1)" fill-rule="evenodd" stroke="none"/>
    <path d="M-34.65 -28.35 L-34.65 -50.75 35.55 -50.75 35.55 -28.35 35.55 17.45 -34.65 17.45 -34.65 -28.35" fill="none" stroke="#9dc0d0" stroke-linecap="round" stroke-linejoin="round" stroke-opacity="0.4" stroke-width="1.0"/>
    <path d="M-34.6 -28.35 L35.55 -28.35" fill="none" stroke="#8ebeff" stroke-linecap="round" stroke-linejoin="round" stroke-opacity="0.29803923" stroke-width="1.0"/>
    <path d="M-25.0 6.15 L25.7 6.15 25.7 8.85 -25.0 8.85 -25.0 6.15" fill="url(#gradient2)" fill-rule="evenodd" stroke="none"/>
  </g>
  <defs>
    <linearGradient gradientTransform="matrix(0.0, -0.028, 0.0428, 0.0, 0.45, -5.45)" gradientUnits="userSpaceOnUse" id="gradient0" spreadMethod="pad" x1="-819.2" x2="819.2">
      <stop offset="0.0" stop-color="#121a27" stop-opacity="0.92941177"/>
      <stop offset="1.0" stop-color="#121120" stop-opacity="0.92941177"/>
    </linearGradient>
    <linearGradient gradientTransform="matrix(0.0, 0.0137, -0.0428, 0.0, 0.45, -39.55)" gradientUnits="userSpaceOnUse" id="gradient1" spreadMethod="pad" x1="-819.2" x2="819.2">
      <stop offset="0.00392156862745098" stop-color="#1b1a33" stop-opacity="0.92941177"/>
      <stop offset="1.0" stop-color="#1b263f" stop-opacity="0.92941177"/>
    </linearGradient>
    <linearGradient gradientTransform="matrix(0.0, -0.0016, 0.0309, 0.0, 0.35, 7.5)" gradientUnits="userSpaceOnUse" id="gradient2" spreadMethod="pad" x1="-819.2" x2="819.2">
      <stop offset="0.0" stop-color="#7d99c9" stop-opacity="0.827451"/>
      <stop offset="0.9921568627450981" stop-color="#5364a6" stop-opacity="0.81960785"/>
    </linearGradient>
  </defs>
</svg>
