<?xml version="1.0" encoding="UTF-8" standalone="no"?>
<svg xmlns:xlink="http://www.w3.org/1999/xlink" height="401.95px" width="132.95px" xmlns="http://www.w3.org/2000/svg">
  <g transform="matrix(1.0, 0.0, 0.0, 1.0, 66.5, 200.95)">
    <path d="M-52.35 -199.95 L52.3 -199.95 Q65.45 -199.95 65.45 -186.8 L65.45 186.85 Q65.45 200.0 52.3 200.0 L-52.35 200.0 Q-65.5 200.0 -65.5 186.85 L-65.5 -186.8 Q-65.5 -199.95 -52.35 -199.95" fill="url(#gradient0)" fill-rule="evenodd" stroke="none"/>
    <path d="M-52.35 -199.95 L52.3 -199.95 Q65.45 -199.95 65.45 -186.8 L65.45 186.85 Q65.45 200.0 52.3 200.0 L-52.35 200.0 Q-65.5 200.0 -65.5 186.85 L-65.5 -186.8 Q-65.5 -199.95 -52.35 -199.95 Z" fill="none" stroke="#889ab8" stroke-linecap="round" stroke-linejoin="round" stroke-opacity="0.54901963" stroke-width="2.0"/>
  </g>
  <defs>
    <linearGradient gradientTransform="matrix(0.068, 0.2289, -0.1367, 0.0406, -0.45, -1.5)" gradientUnits="userSpaceOnUse" id="gradient0" spreadMethod="pad" x1="-819.2" x2="819.2">
      <stop offset="0.0" stop-color="#202333"/>
      <stop offset="1.0" stop-color="#291c33"/>
    </linearGradient>
  </defs>
</svg>
