<?xml version="1.0" encoding="UTF-8" standalone="no"?>
<svg xmlns:xlink="http://www.w3.org/1999/xlink" height="63.7px" width="623.45px" xmlns="http://www.w3.org/2000/svg">
  <g transform="matrix(1.0, 0.0, 0.0, 1.0, 311.75, 31.85)">
    <path d="M83.5 -31.35 L136.5 -31.35 136.5 31.35 83.5 31.35 83.5 -31.35" fill="url(#gradient0)" fill-rule="evenodd" stroke="none"/>
    <path d="M28.05 -31.35 L81.1 -31.35 81.1 31.35 28.05 31.35 28.05 -31.35" fill="url(#gradient1)" fill-rule="evenodd" stroke="none"/>
    <path d="M258.2 -31.35 L311.2 -31.35 311.2 31.35 258.2 31.35 258.2 -31.35" fill="url(#gradient2)" fill-rule="evenodd" stroke="none"/>
    <path d="M202.75 -31.35 L255.8 -31.35 255.8 31.35 202.75 31.35 202.75 -31.35" fill="url(#gradient3)" fill-rule="evenodd" stroke="none"/>
    <path d="M-27.3 -31.35 L25.7 -31.35 25.7 31.35 -27.3 31.35 -27.3 -31.35" fill="url(#gradient4)" fill-rule="evenodd" stroke="none"/>
    <path d="M-311.25 -31.35 L-258.2 -31.35 -258.2 31.35 -311.25 31.35 -311.25 -31.35" fill="url(#gradient5)" fill-rule="evenodd" stroke="none"/>
    <path d="M-255.75 -31.35 L-202.75 -31.35 -202.75 31.35 -255.75 31.35 -255.75 -31.35" fill="url(#gradient6)" fill-rule="evenodd" stroke="none"/>
    <path d="M-82.8 -31.35 L-29.75 -31.35 -29.75 31.35 -82.8 31.35 -82.8 -31.35" fill="url(#gradient7)" fill-rule="evenodd" stroke="none"/>
    <path d="M-200.4 -31.35 L-147.35 -31.35 -147.35 31.35 -200.4 31.35 -200.4 -31.35" fill="url(#gradient8)" fill-rule="evenodd" stroke="none"/>
    <path d="M-144.95 -31.35 L-91.9 -31.35 -91.9 31.35 -144.95 31.35 -144.95 -31.35" fill="url(#gradient9)" fill-rule="evenodd" stroke="none"/>
    <path d="M83.5 -31.35 L136.5 -31.35 136.5 31.35 83.5 31.35 83.5 -31.35 M28.05 -31.35 L81.1 -31.35 81.1 31.35 28.05 31.35 28.05 -31.35 M258.2 -31.35 L311.2 -31.35 311.2 31.35 258.2 31.35 258.2 -31.35 M202.75 -31.35 L255.8 -31.35 255.8 31.35 202.75 31.35 202.75 -31.35 M-27.3 -31.35 L25.7 -31.35 25.7 31.35 -27.3 31.35 -27.3 -31.35 M-311.25 -31.35 L-258.2 -31.35 -258.2 31.35 -311.25 31.35 -311.25 -31.35 M-255.75 -31.35 L-202.75 -31.35 -202.75 31.35 -255.75 31.35 -255.75 -31.35 M-144.95 -31.35 L-91.9 -31.35 -91.9 31.35 -144.95 31.35 -144.95 -31.35 M-82.8 -31.35 L-29.75 -31.35 -29.75 31.35 -82.8 31.35 -82.8 -31.35 M-200.4 -31.35 L-147.35 -31.35 -147.35 31.35 -200.4 31.35 -200.4 -31.35" fill="none" stroke="#8ebeff" stroke-linecap="round" stroke-linejoin="round" stroke-opacity="0.29803923" stroke-width="1.0"/>
    <path d="M220.55 4.2 Q220.25 4.2 220.05 4.0 L219.8 3.45 219.8 -2.5 220.05 -3.05 220.55 -3.25 236.45 -3.25 237.0 -3.05 237.2 -2.5 237.2 3.45 237.0 4.0 236.45 4.2 220.55 4.2" fill="url(#gradient10)" fill-rule="evenodd" stroke="none"/>
    <path d="M296.15 -3.7 L296.7 -3.5 296.9 -3.0 296.9 2.05 296.7 2.55 296.15 2.8 288.45 2.8 Q288.15 2.8 288.15 3.1 L288.15 10.75 287.95 11.25 287.4 11.45 282.4 11.45 Q282.05 11.45 281.85 11.25 L281.65 10.75 281.65 3.1 281.35 2.8 273.65 2.8 Q273.35 2.8 273.15 2.55 L272.9 2.05 272.9 -3.0 273.15 -3.5 273.65 -3.7 281.35 -3.7 Q281.65 -3.7 281.65 -4.05 L281.65 -11.8 281.85 -12.3 Q282.05 -12.5 282.4 -12.5 L287.4 -12.5 287.95 -12.3 288.15 -11.8 288.15 -4.05 Q288.15 -3.7 288.45 -3.7 L296.15 -3.7" fill="url(#gradient11)" fill-rule="evenodd" stroke="none"/>
    <path d="M-280.25 -1.55 Q-279.45 -2.3 -278.15 -2.3 -277.0 -2.3 -276.05 -1.55 -275.2 -0.7 -275.2 0.55 -275.2 1.85 -276.05 2.75 L-276.05 2.8 Q-277.0 3.6 -278.15 3.6 -279.45 3.6 -280.25 2.75 L-280.25 2.8 Q-281.2 1.85 -281.2 0.55 -281.2 -0.7 -280.25 -1.55 M-296.4 -0.3 L-284.2 -12.2 Q-283.7 -12.65 -283.05 -12.65 -282.25 -12.65 -281.85 -12.2 -281.4 -11.65 -281.4 -11.05 -281.4 -10.3 -281.85 -9.85 L-292.85 0.9 -282.0 10.85 Q-281.4 11.35 -281.4 12.1 -281.4 12.7 -281.8 13.25 L-281.85 13.3 Q-282.2 13.75 -282.95 13.75 L-284.2 13.3 -296.45 2.15 -296.5 2.05 -296.85 1.35 -296.85 1.25 -296.85 0.55 -296.85 0.5 -296.4 -0.3" fill="url(#gradient12)" fill-rule="evenodd" stroke="none"/>
    <path d="M-235.05 -1.55 Q-234.1 -0.7 -234.1 0.55 -234.1 1.85 -235.05 2.8 L-235.05 2.75 Q-235.85 3.6 -237.15 3.6 -238.3 3.6 -239.25 2.8 L-239.25 2.75 Q-240.1 1.85 -240.1 0.55 -240.1 -0.7 -239.25 -1.55 -238.3 -2.3 -237.15 -2.3 -235.85 -2.3 -235.05 -1.55 M-218.9 -0.3 L-218.45 0.5 -218.45 0.55 -218.45 1.25 -218.45 1.35 -218.8 2.05 -218.85 2.15 -231.1 13.3 -232.35 13.75 Q-233.1 13.75 -233.45 13.3 L-233.5 13.25 Q-233.9 12.7 -233.9 12.1 -233.9 11.35 -233.3 10.85 L-222.45 0.9 -233.45 -9.85 Q-233.9 -10.3 -233.9 -11.05 L-233.45 -12.2 Q-233.05 -12.65 -232.25 -12.65 -231.6 -12.65 -231.1 -12.2 L-218.9 -0.3" fill="url(#gradient13)" fill-rule="evenodd" stroke="none"/>
    <path d="M-175.3 -12.85 L-174.5 -13.3 -174.45 -13.3 -173.75 -13.3 -173.65 -13.3 -172.95 -12.95 -172.85 -12.9 -161.7 -0.65 Q-161.25 -0.05 -161.25 0.6 -161.25 1.35 -161.7 1.7 L-161.75 1.75 Q-162.3 2.15 -162.9 2.15 -163.65 2.15 -164.15 1.55 L-174.1 -9.3 -184.85 1.7 Q-185.3 2.15 -186.05 2.15 -186.65 2.15 -187.2 1.7 -187.65 1.3 -187.65 0.5 -187.65 -0.15 -187.2 -0.65 L-175.3 -12.85 M-176.55 3.3 Q-175.7 2.35 -174.45 2.35 -173.15 2.35 -172.2 3.3 L-172.25 3.3 Q-171.4 4.1 -171.4 5.4 -171.4 6.55 -172.2 7.5 L-172.25 7.5 Q-173.15 8.35 -174.45 8.35 -175.7 8.35 -176.55 7.5 -177.3 6.55 -177.3 5.4 -177.3 4.1 -176.55 3.3" fill="url(#gradient14)" fill-rule="evenodd" stroke="none"/>
    <path d="M-117.2 -4.7 Q-118.05 -3.75 -119.3 -3.75 -120.6 -3.75 -121.55 -4.7 L-121.5 -4.7 Q-122.35 -5.5 -122.35 -6.8 -122.35 -7.95 -121.55 -8.9 L-121.5 -8.9 Q-120.6 -9.75 -119.3 -9.75 -118.05 -9.75 -117.2 -8.9 -116.45 -7.95 -116.45 -6.8 -116.45 -5.5 -117.2 -4.7 M-118.45 11.45 L-119.25 11.9 -119.3 11.9 -120.0 11.9 -120.1 11.9 -120.8 11.55 -120.9 11.5 -132.05 -0.75 -132.5 -2.0 Q-132.5 -2.75 -132.05 -3.1 L-132.0 -3.15 -130.85 -3.55 Q-130.1 -3.55 -129.6 -2.95 L-119.65 7.9 -108.9 -3.1 -107.7 -3.55 Q-107.1 -3.55 -106.55 -3.1 -106.1 -2.7 -106.1 -1.9 -106.1 -1.25 -106.55 -0.75 L-118.45 11.45" fill="url(#gradient15)" fill-rule="evenodd" stroke="none"/>
  </g>
  <defs>
    <linearGradient gradientTransform="matrix(0.0, -0.0383, 0.0323, 0.0, 110.05, -0.1)" gradientUnits="userSpaceOnUse" id="gradient0" spreadMethod="pad" x1="-819.2" x2="819.2">
      <stop offset="0.0" stop-color="#1e2b41" stop-opacity="0.92941177"/>
      <stop offset="1.0" stop-color="#23213f" stop-opacity="0.92941177"/>
    </linearGradient>
    <linearGradient gradientTransform="matrix(0.0, -0.0383, 0.0323, 0.0, 54.65, -0.1)" gradientUnits="userSpaceOnUse" id="gradient1" spreadMethod="pad" x1="-819.2" x2="819.2">
      <stop offset="0.0" stop-color="#1e2b41" stop-opacity="0.92941177"/>
      <stop offset="1.0" stop-color="#23213f" stop-opacity="0.92941177"/>
    </linearGradient>
    <linearGradient gradientTransform="matrix(0.0, -0.0383, 0.0323, 0.0, 284.75, -0.1)" gradientUnits="userSpaceOnUse" id="gradient2" spreadMethod="pad" x1="-819.2" x2="819.2">
      <stop offset="0.0" stop-color="#1e2b41" stop-opacity="0.92941177"/>
      <stop offset="1.0" stop-color="#23213f" stop-opacity="0.92941177"/>
    </linearGradient>
    <linearGradient gradientTransform="matrix(0.0, -0.0383, 0.0323, 0.0, 229.35, -0.1)" gradientUnits="userSpaceOnUse" id="gradient3" spreadMethod="pad" x1="-819.2" x2="819.2">
      <stop offset="0.0" stop-color="#1e2b41" stop-opacity="0.92941177"/>
      <stop offset="1.0" stop-color="#23213f" stop-opacity="0.92941177"/>
    </linearGradient>
    <linearGradient gradientTransform="matrix(0.0, -0.0383, 0.0323, 0.0, -0.75, -0.1)" gradientUnits="userSpaceOnUse" id="gradient4" spreadMethod="pad" x1="-819.2" x2="819.2">
      <stop offset="0.0" stop-color="#1e2b41" stop-opacity="0.92941177"/>
      <stop offset="1.0" stop-color="#23213f" stop-opacity="0.92941177"/>
    </linearGradient>
    <linearGradient gradientTransform="matrix(0.0, -0.0383, 0.0323, 0.0, -284.6, -0.1)" gradientUnits="userSpaceOnUse" id="gradient5" spreadMethod="pad" x1="-819.2" x2="819.2">
      <stop offset="0.0" stop-color="#1e2b41" stop-opacity="0.92941177"/>
      <stop offset="1.0" stop-color="#23213f" stop-opacity="0.92941177"/>
    </linearGradient>
    <linearGradient gradientTransform="matrix(0.0, -0.0383, 0.0323, 0.0, -229.2, -0.1)" gradientUnits="userSpaceOnUse" id="gradient6" spreadMethod="pad" x1="-819.2" x2="819.2">
      <stop offset="0.0" stop-color="#1e2b41" stop-opacity="0.92941177"/>
      <stop offset="1.0" stop-color="#23213f" stop-opacity="0.92941177"/>
    </linearGradient>
    <linearGradient gradientTransform="matrix(0.0, -0.0383, 0.0323, 0.0, -56.15, -0.1)" gradientUnits="userSpaceOnUse" id="gradient7" spreadMethod="pad" x1="-819.2" x2="819.2">
      <stop offset="0.0" stop-color="#1e2b41" stop-opacity="0.92941177"/>
      <stop offset="1.0" stop-color="#23213f" stop-opacity="0.92941177"/>
    </linearGradient>
    <linearGradient gradientTransform="matrix(0.0, -0.0383, 0.0323, 0.0, -173.8, -0.1)" gradientUnits="userSpaceOnUse" id="gradient8" spreadMethod="pad" x1="-819.2" x2="819.2">
      <stop offset="0.0" stop-color="#1e2b41" stop-opacity="0.92941177"/>
      <stop offset="1.0" stop-color="#23213f" stop-opacity="0.92941177"/>
    </linearGradient>
    <linearGradient gradientTransform="matrix(0.0, -0.0383, 0.0323, 0.0, -118.4, -0.1)" gradientUnits="userSpaceOnUse" id="gradient9" spreadMethod="pad" x1="-819.2" x2="819.2">
      <stop offset="0.0" stop-color="#1c4174" stop-opacity="0.92941177"/>
      <stop offset="1.0" stop-color="#171a5d" stop-opacity="0.92941177"/>
    </linearGradient>
    <linearGradient gradientTransform="matrix(0.0105, -0.0055, 0.004, 0.0077, 229.95, -0.3)" gradientUnits="userSpaceOnUse" id="gradient10" spreadMethod="pad" x1="-819.2" x2="819.2">
      <stop offset="0.0" stop-color="#80a4d4" stop-opacity="0.8666667"/>
      <stop offset="0.9921568627450981" stop-color="#737fbf" stop-opacity="0.8666667"/>
    </linearGradient>
    <linearGradient gradientTransform="matrix(0.0055, -0.0135, 0.0137, 0.0056, 286.15, -3.55)" gradientUnits="userSpaceOnUse" id="gradient11" spreadMethod="pad" x1="-819.2" x2="819.2">
      <stop offset="0.0" stop-color="#80a4d4" stop-opacity="0.8666667"/>
      <stop offset="0.9921568627450981" stop-color="#737fbf" stop-opacity="0.8666667"/>
    </linearGradient>
    <linearGradient gradientTransform="matrix(0.0, -0.0161, 0.1096, 0.0, -207.05, 0.55)" gradientUnits="userSpaceOnUse" id="gradient12" spreadMethod="pad" x1="-819.2" x2="819.2">
      <stop offset="0.0" stop-color="#80a4d4" stop-opacity="0.8666667"/>
      <stop offset="0.9921568627450981" stop-color="#737fbf" stop-opacity="0.8666667"/>
    </linearGradient>
    <linearGradient gradientTransform="matrix(0.0, -0.0161, -0.1096, 0.0, -308.25, 0.55)" gradientUnits="userSpaceOnUse" id="gradient13" spreadMethod="pad" x1="-819.2" x2="819.2">
      <stop offset="0.0" stop-color="#80a4d4" stop-opacity="0.8666667"/>
      <stop offset="0.9921568627450981" stop-color="#737fbf" stop-opacity="0.8666667"/>
    </linearGradient>
    <linearGradient gradientTransform="matrix(-0.0161, 0.0, 0.0, 0.1096, -174.4, 76.45)" gradientUnits="userSpaceOnUse" id="gradient14" spreadMethod="pad" x1="-819.2" x2="819.2">
      <stop offset="0.0" stop-color="#80a4d4" stop-opacity="0.8666667"/>
      <stop offset="0.9921568627450981" stop-color="#737fbf" stop-opacity="0.8666667"/>
    </linearGradient>
    <linearGradient gradientTransform="matrix(0.0161, 0.0, 0.0, -0.1096, -119.3, -77.9)" gradientUnits="userSpaceOnUse" id="gradient15" spreadMethod="pad" x1="-819.2" x2="819.2">
      <stop offset="0.0" stop-color="#84c4ff" stop-opacity="0.827451"/>
      <stop offset="0.9921568627450981" stop-color="#8494f5" stop-opacity="0.81960785"/>
    </linearGradient>
  </defs>
</svg>
