<?xml version="1.0" encoding="UTF-8" standalone="no"?>
<svg xmlns:xlink="http://www.w3.org/1999/xlink" height="266.2px" width="473.85px" xmlns="http://www.w3.org/2000/svg">
  <g transform="matrix(1.0, 0.0, 0.0, 1.0, 965.4, 231.6)">
    <path d="M-964.9 18.5 L-964.9 -221.35 Q-964.9 -229.9 -957.4 -231.0 L-955.15 -231.1 -501.8 -231.1 Q-496.1 -231.1 -493.75 -227.85 L-493.3 -227.2 -493.25 -227.15 Q-492.05 -224.85 -492.05 -221.35 L-492.05 18.5 -496.4 18.5 -496.4 -174.15 -496.4 -221.35 Q-496.4 -226.75 -501.8 -226.75 L-955.15 -226.75 Q-960.5 -226.75 -960.5 -221.35 L-960.5 -174.15 -960.5 18.5 -964.9 18.5" fill="#222541" fill-opacity="0.9490196" fill-rule="evenodd" stroke="none"/>
    <path d="M-960.5 18.5 L-960.5 -174.15 -496.4 -174.15 -496.4 18.5 -960.5 18.5" fill="#15172a" fill-opacity="0.9490196" fill-rule="evenodd" stroke="none"/>
    <path d="M-960.5 -174.15 L-960.5 -221.35 Q-960.5 -226.75 -955.15 -226.75 L-501.8 -226.75 Q-496.4 -226.75 -496.4 -221.35 L-496.4 -174.15 -960.5 -174.15" fill="#1c1e38" fill-opacity="0.9490196" fill-rule="evenodd" stroke="none"/>
    <path d="M-492.05 18.5 L-492.05 19.0 -492.05 23.25 -492.15 25.15 -964.9 25.15 -964.9 18.5 -960.5 18.5 -496.4 18.5 -492.05 18.5" fill="url(#gradient0)" fill-rule="evenodd" stroke="none"/>
    <path d="M-492.15 25.15 Q-492.35 26.85 -492.9 28.1 -494.95 34.1 -502.9 34.1 L-953.65 34.1 Q-961.65 34.1 -963.8 28.1 L-964.9 25.15 -492.15 25.15" fill="url(#gradient1)" fill-rule="evenodd" stroke="none"/>
    <path d="M-964.9 18.5 L-964.9 -221.35 Q-964.9 -229.9 -957.4 -231.0 L-955.15 -231.1 -501.8 -231.1 Q-496.1 -231.1 -493.75 -227.85 L-493.3 -227.2 -493.25 -227.15 Q-492.05 -224.85 -492.05 -221.35 L-492.05 18.5" fill="none" stroke="#889ab8" stroke-linecap="round" stroke-linejoin="round" stroke-opacity="0.54901963" stroke-width="1.0"/>
    <path d="M-960.5 -174.15 L-496.4 -174.15" fill="none" stroke="#889ab8" stroke-linecap="round" stroke-linejoin="round" stroke-opacity="0.7490196" stroke-width="1.0"/>
    <path d="M-492.05 19.0 L-492.05 23.25 -492.15 25.15 Q-492.35 26.85 -492.9 28.1 -494.95 34.1 -502.9 34.1 L-953.65 34.1 Q-961.65 34.1 -963.8 28.1 L-964.9 25.15 -964.9 18.5" fill="none" stroke="#9facbf" stroke-linecap="round" stroke-linejoin="round" stroke-opacity="0.54901963" stroke-width="1.0"/>
    <path d="M-964.9 18.5 L-960.5 18.5 -496.4 18.5 -492.05 18.5" fill="none" stroke="#9daabd" stroke-linecap="round" stroke-linejoin="round" stroke-opacity="0.42745098" stroke-width="1.0"/>
    <path d="M-607.5 -220.1 L-604.5 -211.6 -595.4 -211.3 -602.6 -205.85 -600.05 -197.15 -607.5 -202.25 -614.95 -197.15 -612.35 -205.85 -619.55 -211.3 -610.5 -211.6 -607.5 -220.1 M-561.35 -220.1 L-558.35 -211.6 -549.25 -211.3 -556.45 -205.85 -553.9 -197.15 -561.35 -202.25 -568.8 -197.15 -566.2 -205.85 -573.4 -211.3 -564.35 -211.6 -561.35 -220.1 M-515.2 -220.1 L-512.2 -211.6 -503.1 -211.3 -510.3 -205.85 -507.75 -197.15 -515.2 -202.25 -522.65 -197.15 -520.05 -205.85 -527.25 -211.3 -518.2 -211.6 -515.2 -220.1 M-538.15 -205.05 L-535.1 -196.55 -526.05 -196.25 -533.2 -190.8 -530.65 -182.1 -538.15 -187.25 -545.6 -182.1 -543.0 -190.8 -550.15 -196.25 -541.15 -196.55 -538.15 -205.05 M-584.3 -205.05 L-581.25 -196.55 -572.2 -196.25 -579.35 -190.8 -576.8 -182.1 -584.3 -187.25 -591.75 -182.1 -589.15 -190.8 -596.3 -196.25 -587.3 -196.55 -584.3 -205.05 M-942.95 -220.1 L-939.95 -211.6 -930.85 -211.3 -938.05 -205.85 -935.5 -197.15 -942.95 -202.25 -950.4 -197.15 -947.8 -205.85 -955.0 -211.3 -945.95 -211.6 -942.95 -220.1 M-896.8 -220.1 L-893.8 -211.6 -884.7 -211.3 -891.9 -205.85 -889.35 -197.15 -896.8 -202.25 -904.25 -197.15 -901.65 -205.85 -908.85 -211.3 -899.8 -211.6 -896.8 -220.1 M-850.65 -220.1 L-847.65 -211.6 -838.55 -211.3 -845.75 -205.85 -843.2 -197.15 -850.65 -202.25 -858.1 -197.15 -855.5 -205.85 -862.7 -211.3 -853.65 -211.6 -850.65 -220.1 M-873.6 -205.05 L-870.55 -196.55 -861.5 -196.25 -868.65 -190.8 -866.1 -182.1 -873.6 -187.25 -881.05 -182.1 -878.45 -190.8 -885.6 -196.25 -876.6 -196.55 -873.6 -205.05 M-919.75 -205.05 L-916.7 -196.55 -907.65 -196.25 -914.8 -190.8 -912.25 -182.1 -919.75 -187.25 -927.2 -182.1 -924.6 -190.8 -931.75 -196.25 -922.75 -196.55 -919.75 -205.05" fill="#8893d2" fill-opacity="0.7882353" fill-rule="evenodd" stroke="none"/>
  </g>
  <defs>
    <linearGradient gradientTransform="matrix(-0.2886, 0.0, 0.0, -0.0041, -728.45, 21.85)" gradientUnits="userSpaceOnUse" id="gradient0" spreadMethod="pad" x1="-819.2" x2="819.2">
      <stop offset="0.0" stop-color="#265c6d"/>
      <stop offset="1.0" stop-color="#422b66"/>
    </linearGradient>
    <linearGradient gradientTransform="matrix(-0.2885, 0.0, 0.0, -0.0055, -728.5, 29.65)" gradientUnits="userSpaceOnUse" id="gradient1" spreadMethod="pad" x1="-819.2" x2="819.2">
      <stop offset="0.0" stop-color="#4f8eb1"/>
      <stop offset="1.0" stop-color="#815ca3"/>
    </linearGradient>
  </defs>
</svg>
