<?xml version="1.0" encoding="UTF-8" standalone="no"?>
<svg xmlns:xlink="http://www.w3.org/1999/xlink" height="263.25px" width="567.35px" xmlns="http://www.w3.org/2000/svg">
  <g transform="matrix(1.0, 0.0, 0.0, 1.0, 365.45, 116.25)">
    <path d="M-67.7 -60.3 L201.4 -60.3 201.4 -19.15 -67.7 -19.15 -67.7 -60.3 M-67.7 -115.75 L201.4 -115.75 201.4 -74.6 -67.7 -74.6 -67.7 -115.75 M-67.7 50.0 L201.4 50.0 201.4 91.15 -67.7 91.15 -67.7 50.0 M-364.95 105.35 L-95.85 105.35 -95.85 146.5 -364.95 146.5 -364.95 105.35 M-67.7 105.2 L201.4 105.2 201.4 146.35 -67.7 146.35 -67.7 105.2 M-67.7 -5.15 L201.4 -5.15 201.4 36.0 -67.7 36.0 -67.7 -5.15" fill="#171535" fill-opacity="0.6862745" fill-rule="evenodd" stroke="none"/>
    <path d="M-67.7 -60.3 L201.4 -60.3 201.4 -19.15 -67.7 -19.15 -67.7 -60.3 M-67.7 -115.75 L201.4 -115.75 201.4 -74.6 -67.7 -74.6 -67.7 -115.75 M-67.7 50.0 L201.4 50.0 201.4 91.15 -67.7 91.15 -67.7 50.0 M-364.95 105.35 L-95.85 105.35 -95.85 146.5 -364.95 146.5 -364.95 105.35 M-67.7 105.2 L201.4 105.2 201.4 146.35 -67.7 146.35 -67.7 105.2 M-67.7 -5.15 L201.4 -5.15 201.4 36.0 -67.7 36.0 -67.7 -5.15" fill="none" stroke="#8cb6ff" stroke-linecap="round" stroke-linejoin="round" stroke-opacity="0.41960785" stroke-width="1.0"/>
  </g>
</svg>
