<?xml version="1.0" encoding="UTF-8" standalone="no"?>
<svg xmlns:xlink="http://www.w3.org/1999/xlink" height="39.6px" width="98.85px" xmlns="http://www.w3.org/2000/svg">
  <g transform="matrix(1.0, 0.0, 0.0, 1.0, 51.95, 18.5)">
    <path d="M12.45 21.1 L5.05 21.1 Q4.2 21.1 3.55 20.6 2.9 20.1 2.65 19.3 L1.25 14.5 -8.6 14.5 -10.05 19.35 Q-10.3 20.1 -10.95 20.6 -11.6 21.1 -12.45 21.1 L-19.7 21.1 Q-20.5 21.1 -21.15 20.65 -21.85 20.15 -22.05 19.4 -22.35 18.6 -22.05 17.85 L-10.65 -16.75 Q-10.4 -17.55 -9.75 -18.0 -9.1 -18.5 -8.3 -18.5 L0.9 -18.5 Q1.7 -18.5 2.35 -18.0 3.0 -17.55 3.3 -16.8 L14.85 17.8 Q15.1 18.6 14.85 19.35 14.6 20.15 13.95 20.65 L12.45 21.1 M19.55 -18.5 L33.1 -18.5 Q40.1 -18.5 43.4 -15.15 46.9 -12.05 46.9 -4.8 46.9 2.3 43.6 5.65 L43.55 5.65 Q40.45 9.15 32.45 9.15 L29.0 9.15 29.0 18.6 Q29.0 19.65 28.3 20.4 27.55 21.1 26.5 21.1 L19.55 21.1 Q18.5 21.1 17.8 20.4 17.05 19.65 17.05 18.6 L17.05 -16.0 Q17.05 -17.05 17.8 -17.75 18.5 -18.5 19.55 -18.5 M35.4 -4.6 Q35.4 -7.5 34.55 -8.35 L34.6 -8.35 33.8 -8.55 29.0 -8.55 29.0 -0.9 33.55 -0.9 34.9 -1.15 Q35.4 -2.25 35.4 -4.6 M-51.95 -10.7 L-51.95 -16.0 Q-51.95 -17.05 -51.2 -17.75 -50.5 -18.5 -49.45 -18.5 L-23.25 -18.5 Q-22.2 -18.5 -21.45 -17.75 -20.75 -17.05 -20.75 -16.0 L-20.75 -10.7 Q-20.75 -9.65 -21.45 -8.9 -22.2 -8.2 -23.25 -8.2 L-30.4 -8.2 -30.4 18.6 Q-30.4 19.65 -31.1 20.4 -31.85 21.1 -32.9 21.1 L-39.85 21.1 Q-40.9 21.1 -41.6 20.4 -42.35 19.65 -42.35 18.6 L-42.35 -8.2 -49.45 -8.2 Q-50.5 -8.2 -51.2 -8.9 -51.95 -9.65 -51.95 -10.7 M-3.55 -2.05 L-5.65 4.85 -1.55 4.85 -3.55 -2.05" fill="#252525" fill-rule="evenodd" stroke="none"/>
    <path d="M26.5 1.25 L33.55 1.25 Q36.1 1.25 37.0 -0.2 37.9 -1.65 37.9 -4.95 37.9 -9.7 35.8 -10.9 35.0 -11.35 33.8 -11.4 L26.5 -11.4 26.5 1.25 M19.55 18.25 L19.55 -16.35 33.1 -16.35 Q38.9 -16.35 41.65 -13.7 44.4 -11.1 44.4 -5.15 44.4 0.75 41.75 3.55 39.1 6.3 32.45 6.3 L26.5 6.3 26.5 18.25 19.55 18.25 M-19.7 18.25 L-8.3 -16.35 0.9 -16.35 12.45 18.25 5.05 18.25 3.1 11.65 -10.45 11.65 -12.45 18.25 -19.7 18.25 M-39.85 18.25 L-39.85 -11.05 -49.45 -11.05 -49.45 -16.35 -23.25 -16.35 -23.25 -11.05 -32.9 -11.05 -32.9 18.25 -39.85 18.25 M-9.05 7.0 L1.8 7.0 -3.55 -11.15 -9.05 7.0" fill="#cde8ff" fill-rule="evenodd" stroke="none"/>
  </g>
</svg>
