<?xml version="1.0" encoding="UTF-8" standalone="no"?>
<svg xmlns:xlink="http://www.w3.org/1999/xlink" height="79.95px" width="101.75px" xmlns="http://www.w3.org/2000/svg">
  <g transform="matrix(1.0, 0.0, 0.0, 1.0, 50.85, 34.5)">
    <path d="M49.05 38.25 L49.05 -32.7 -49.1 -32.7 -49.1 38.25 -50.85 38.25 -50.85 -34.5 50.9 -34.5 50.9 38.25 49.05 38.25" fill="url(#gradient0)" fill-rule="evenodd" stroke="none"/>
    <path d="M-49.1 38.25 L-49.1 -32.7 49.05 -32.7 49.05 38.25 49.05 45.45 -49.1 45.45 -49.1 38.25" fill="url(#gradient1)" fill-rule="evenodd" stroke="none"/>
    <path d="M-48.1 -31.35 L48.0 -31.35 48.0 -5.45 -48.1 -5.45 -48.1 -31.35" fill="#beffc7" fill-opacity="0.2" fill-rule="evenodd" stroke="none"/>
    <path d="M-47.95 -4.35 L-0.45 -4.35 -0.45 36.55 -47.95 36.55 -47.95 -4.35" fill="#ffbbbb" fill-opacity="0.2" fill-rule="evenodd" stroke="none"/>
    <path d="M0.45 -4.35 L47.95 -4.35 47.95 36.55 0.45 36.55 0.45 -4.35" fill="#c2c7ff" fill-opacity="0.2" fill-rule="evenodd" stroke="none"/>
  </g>
  <defs>
    <linearGradient gradientTransform="matrix(0.0, 0.0441, -0.0621, 0.0, 0.05, 3.25)" gradientUnits="userSpaceOnUse" id="gradient0" spreadMethod="pad" x1="-819.2" x2="819.2">
      <stop offset="0.0" stop-color="#d2e5ff" stop-opacity="0.8862745"/>
      <stop offset="1.0" stop-color="#ffffff" stop-opacity="0.007843138"/>
    </linearGradient>
    <linearGradient gradientTransform="matrix(0.0, 0.0455, -0.0599, 0.0, 0.0, 6.25)" gradientUnits="userSpaceOnUse" id="gradient1" spreadMethod="pad" x1="-819.2" x2="819.2">
      <stop offset="0.41568627450980394" stop-color="#181743" stop-opacity="0.7176471"/>
      <stop offset="0.6901960784313725" stop-color="#293779" stop-opacity="0.5764706"/>
      <stop offset="1.0" stop-color="#3c68b4" stop-opacity="0.02745098"/>
    </linearGradient>
  </defs>
</svg>
