<?xml version="1.0" encoding="UTF-8" standalone="no"?>
<svg xmlns:xlink="http://www.w3.org/1999/xlink" height="22.05px" width="56.9px" xmlns="http://www.w3.org/2000/svg">
  <g transform="matrix(1.0, 0.0, 0.0, 1.0, 28.5, 11.15)">
    <path d="M-27.75 0.15 Q-0.05 -20.9 27.65 0.15 -1.35 20.15 -27.75 0.15" fill="#2a1648" fill-rule="evenodd" stroke="none"/>
    <path d="M-27.75 0.15 Q-0.05 -20.9 27.65 0.15 -1.35 20.15 -27.75 0.15 Z" fill="none" stroke="#d22e2e" stroke-linecap="round" stroke-linejoin="round" stroke-width="1.5"/>
    <path d="M5.45 -0.1 Q5.45 2.1 3.75 3.7 2.2 5.35 0.0 5.35 -2.2 5.35 -3.9 3.7 -5.45 2.1 -5.45 -0.1 -5.45 -2.3 -3.9 -4.0 -2.2 -5.55 0.0 -5.55 2.2 -5.55 3.75 -4.0 5.45 -2.3 5.45 -0.1" fill="#e56f6f" fill-rule="evenodd" stroke="none"/>
    <path d="M1.75 -0.05 Q1.75 0.6 1.2 1.15 0.7 1.7 0.0 1.7 -0.75 1.7 -1.3 1.15 L-1.75 -0.05 Q-1.75 -0.85 -1.3 -1.35 -0.75 -1.8 0.0 -1.8 0.7 -1.8 1.2 -1.35 1.75 -0.85 1.75 -0.05" fill="#273b77" fill-rule="evenodd" stroke="none"/>
  </g>
</svg>
