<?xml version="1.0" encoding="UTF-8" standalone="no"?>
<svg xmlns:xlink="http://www.w3.org/1999/xlink" height="268.9px" width="259.3px" xmlns="http://www.w3.org/2000/svg">
  <g transform="matrix(1.0, 0.0, 0.0, 1.0, -244.0, 129.15)">
    <path d="M260.1 135.75 L260.1 -47.05 Q268.35 -73.15 297.4 -91.7 326.4 -110.3 373.65 -113.75 420.9 -110.3 449.9 -91.7 478.95 -73.15 487.2 -47.05 L487.2 135.75 260.1 135.75" fill="url(#gradient0)" fill-rule="evenodd" stroke="none"/>
    <path d="M487.2 135.75 L487.2 -47.05 Q478.95 -73.15 449.9 -91.7 420.9 -110.3 373.65 -113.75 326.4 -110.3 297.4 -91.7 268.35 -73.15 260.1 -47.05 L260.1 135.75 255.35 135.75 248.0 129.3 248.0 -50.45 Q256.1 -80.35 290.6 -102.05 325.05 -123.8 373.65 -125.15 422.25 -123.8 456.7 -102.05 491.2 -80.35 499.3 -50.45 L499.3 129.3 491.95 135.75 487.2 135.75" fill="url(#gradient1)" fill-rule="evenodd" stroke="none"/>
    <path d="M260.1 135.75 L487.2 135.75 491.95 135.75 499.3 129.3 499.3 -50.45 Q491.2 -80.35 456.7 -102.05 422.25 -123.8 373.65 -125.15 325.05 -123.8 290.6 -102.05 256.1 -80.35 248.0 -50.45 L248.0 129.3 255.35 135.75 260.1 135.75 Z" fill="none" stroke="#f4faff" stroke-linecap="round" stroke-linejoin="round" stroke-opacity="0.35686275" stroke-width="8.0"/>
  </g>
  <defs>
    <linearGradient gradientTransform="matrix(0.1386, 0.0, 0.0, 0.1523, 373.65, 11.0)" gradientUnits="userSpaceOnUse" id="gradient0" spreadMethod="pad" x1="-819.2" x2="819.2">
      <stop offset="0.0" stop-color="#e5f5ff" stop-opacity="0.22745098"/>
      <stop offset="1.0" stop-color="#ffffff" stop-opacity="0.0"/>
    </linearGradient>
    <linearGradient gradientTransform="matrix(0.1534, 0.0, 0.0, 0.1592, 373.65, 5.3)" gradientUnits="userSpaceOnUse" id="gradient1" spreadMethod="pad" x1="-819.2" x2="819.2">
      <stop offset="0.0" stop-color="#e5f5ff" stop-opacity="0.22745098"/>
      <stop offset="1.0" stop-color="#ffffff" stop-opacity="0.0"/>
    </linearGradient>
  </defs>
</svg>
