<?xml version="1.0" encoding="UTF-8" standalone="no"?>
<svg xmlns:xlink="http://www.w3.org/1999/xlink" height="51.35px" width="51.8px" xmlns="http://www.w3.org/2000/svg">
  <g transform="matrix(1.0, 0.0, 0.0, 1.0, 26.0, 25.55)">
    <path d="M-0.3 1.5 L-2.6 -6.4 -10.25 -3.45 -5.95 -10.45 -12.95 -15.0 -4.85 -15.65 -5.95 -24.05 -0.3 -18.15 5.8 -24.05 4.4 -15.65 12.75 -15.0 5.8 -10.45 10.05 -3.45 Q6.25 -4.9 2.4 -6.4 L-0.3 1.5 M-2.8 24.3 L-2.8 14.6 -15.0 4.7 -15.0 -13.85 -24.5 6.45 -2.8 24.3 M-3.5 8.3 L-0.1 3.95 3.3 8.3 -0.1 12.8 -3.5 8.3 M2.6 24.3 L2.6 14.6 15.05 4.7 15.05 -13.85 24.3 6.45 2.6 24.3" fill="none" stroke="#d680c3" stroke-linecap="round" stroke-linejoin="round" stroke-opacity="0.28627452" stroke-width="3.0"/>
    <path d="M-0.3 1.5 L-2.6 -6.4 -10.25 -3.45 -5.95 -10.45 -12.95 -15.0 -4.85 -15.65 -5.95 -24.05 -0.3 -18.15 5.8 -24.05 4.4 -15.65 12.75 -15.0 5.8 -10.45 10.05 -3.45 Q6.25 -4.9 2.4 -6.4 L-0.3 1.5 M-3.5 8.3 L-0.1 3.95 3.3 8.3 -0.1 12.8 -3.5 8.3 M-2.8 24.3 L-24.5 6.45 -15.0 -13.85 -15.0 4.7 -2.8 14.6 -2.8 24.3 M2.6 24.3 L2.6 14.6 15.05 4.7 15.05 -13.85 24.3 6.45 2.6 24.3" fill="url(#gradient0)" fill-rule="evenodd" stroke="none"/>
  </g>
  <defs>
    <linearGradient gradientTransform="matrix(0.0156, 0.0247, -0.0228, 0.0144, -0.3, 2.85)" gradientUnits="userSpaceOnUse" id="gradient0" spreadMethod="pad" x1="-819.2" x2="819.2">
      <stop offset="0.0" stop-color="#722558"/>
      <stop offset="1.0" stop-color="#251151"/>
    </linearGradient>
  </defs>
</svg>
