<?xml version="1.0" encoding="UTF-8" standalone="no"?>
<svg xmlns:xlink="http://www.w3.org/1999/xlink" height="45.85px" width="98.85px" xmlns="http://www.w3.org/2000/svg">
  <g transform="matrix(1.0, 0.0, 0.0, 1.0, 50.0, 22.65)">
    <path d="M48.1 22.45 L-49.25 22.45 -49.25 -21.9 48.1 -21.9 48.1 22.45" fill="url(#gradient0)" fill-rule="evenodd" stroke="none"/>
    <path d="M48.1 22.45 L-49.25 22.45 -49.25 -21.9 48.1 -21.9 48.1 22.45 Z" fill="none" stroke="#b1b9e7" stroke-linecap="round" stroke-linejoin="round" stroke-opacity="0.60784316" stroke-width="1.5"/>
    <path d="M-20.35 -1.8 Q-19.7 -2.35 -18.75 -2.35 -17.8 -2.35 -17.05 -1.8 -16.4 -1.1 -16.4 -0.15 -16.4 0.75 -17.05 1.55 -17.8 2.15 -18.75 2.15 -19.7 2.15 -20.35 1.55 -21.1 0.75 -21.1 -0.15 -21.1 -1.1 -20.35 -1.8 M-32.7 -0.8 L-23.35 -9.95 Q-23.0 -10.3 -22.55 -10.3 -21.9 -10.3 -21.5 -9.95 -21.25 -9.55 -21.25 -9.0 -21.25 -8.55 -21.6 -8.15 L-30.05 0.05 -21.65 7.7 Q-21.25 8.1 -21.25 8.65 L-21.45 9.55 -21.5 9.65 -22.45 9.95 -23.35 9.65 -32.75 1.05 -32.8 1.0 -33.1 0.5 -33.1 0.35 -33.1 -0.15 -33.1 -0.2 -32.7 -0.8" fill="#7d81a3" fill-rule="evenodd" stroke="none"/>
  </g>
  <defs>
    <linearGradient gradientTransform="matrix(0.0, 0.0247, -0.0594, 0.0, -0.55, 0.75)" gradientUnits="userSpaceOnUse" id="gradient0" spreadMethod="pad" x1="-819.2" x2="819.2">
      <stop offset="0.00784313725490196" stop-color="#31285d" stop-opacity="0.9490196"/>
      <stop offset="1.0" stop-color="#1f2651" stop-opacity="0.9490196"/>
    </linearGradient>
  </defs>
</svg>
