<?xml version="1.0" encoding="UTF-8" standalone="no"?>
<svg xmlns:xlink="http://www.w3.org/1999/xlink" height="60.9px" width="382.85px" xmlns="http://www.w3.org/2000/svg">
  <g transform="matrix(1.0, 0.0, 0.0, 1.0, 188.85, 29.9)">
    <path d="M193.25 -29.15 L193.25 28.9 90.25 28.9 90.25 -29.15 193.25 -29.15 M85.35 -29.15 L85.35 28.9 -17.6 28.9 -17.6 -29.15 85.35 -29.15 M-105.85 29.05 L-157.75 29.05 -188.1 29.05 -188.1 -29.0 -105.85 -29.0 -105.85 29.05" fill="#0d101b" fill-opacity="0.84705883" fill-rule="evenodd" stroke="none"/>
    <path d="M-105.85 -29.0 L-23.7 -29.0 -23.7 29.05 -105.85 29.05 -105.85 -29.0" fill="#273074" fill-opacity="0.84705883" fill-rule="evenodd" stroke="none"/>
    <path d="M193.25 -29.15 L193.25 28.9 90.25 28.9 90.25 -29.15 193.25 -29.15 M85.35 -29.15 L85.35 28.9 -17.6 28.9 -17.6 -29.15 85.35 -29.15 M-105.85 -29.0 L-23.7 -29.0 -23.7 29.05 -105.85 29.05 -157.75 29.05 -157.75 30.25 M-157.75 29.05 L-188.1 29.05 -188.1 -29.0 -105.85 -29.0 -105.85 29.05" fill="none" stroke="#9ba2d1" stroke-linecap="round" stroke-linejoin="round" stroke-opacity="0.4392157" stroke-width="1.5"/>
  </g>
</svg>
