<?xml version="1.0" encoding="UTF-8" standalone="no"?>
<svg xmlns:xlink="http://www.w3.org/1999/xlink" height="26.9px" width="88.45px" xmlns="http://www.w3.org/2000/svg">
  <g transform="matrix(1.0, 0.0, 0.0, 1.0, 44.2, 13.45)">
    <path d="M10.1 -7.7 L10.65 -12.9 11.7 -7.7 15.3 -7.7 11.9 -6.0 11.25 -1.85 10.35 -5.7 7.1 -5.15 5.95 0.25 5.3 -4.8 -4.45 -4.35 4.85 -6.35 4.85 -13.45 6.55 -6.95 10.1 -7.7 M35.0 -0.7 L37.9 -0.95 37.45 -6.5 39.5 -1.15 44.25 -1.7 39.95 -0.05 39.8 6.8 38.0 0.7 35.2 1.75 34.45 7.55 33.55 2.45 29.5 2.7 29.2 7.65 27.95 2.75 23.0 3.05 27.9 1.45 27.65 -3.65 29.25 0.95 33.45 -0.4 33.45 -5.6 35.0 -0.7 M-32.85 -6.15 L-34.05 0.5 -29.3 1.3 -26.6 -4.4 -26.8 1.75 -22.3 2.6 -21.15 3.05 -17.55 -2.0 -19.05 3.8 -15.05 5.25 -12.05 -0.2 -12.8 6.0 -5.35 8.7 -13.15 7.65 -15.35 13.45 -15.6 7.35 -19.85 6.75 -23.35 13.05 -22.75 6.3 -26.05 5.85 -27.35 5.45 -29.15 11.55 -29.9 4.35 -34.5 2.45 -34.5 2.55 -37.75 9.75 -37.5 1.15 -44.2 -1.45 -36.6 -0.05 -32.85 -6.15" fill="#14543d" fill-rule="evenodd" stroke="none"/>
  </g>
</svg>
