<?xml version="1.0" encoding="UTF-8" standalone="no"?>
<svg xmlns:xlink="http://www.w3.org/1999/xlink" height="12.9px" width="11.9px" xmlns="http://www.w3.org/2000/svg">
  <g transform="matrix(1.0, 0.0, 0.0, 1.0, 5.95, 6.45)">
    <path d="M5.95 -0.55 Q5.15 -2.15 4.1 -3.0 3.05 -3.9 1.3 -3.6 -0.45 -3.3 -1.45 -1.55 L-1.85 -0.75 Q-2.7 2.55 0.35 3.7 L2.35 3.75 Q4.65 3.6 5.55 2.6 5.2 3.95 4.55 4.5 2.65 6.45 -0.1 6.45 -2.85 6.45 -4.5 4.15 -6.15 1.95 -5.95 -0.25 -5.8 -2.5 -4.4 -4.25 -3.05 -6.1 -0.3 -6.35 2.4 -6.75 4.3 -5.35 6.15 -4.1 5.95 -0.55" fill="#f661ec" fill-rule="evenodd" stroke="none"/>
  </g>
</svg>
