<?xml version="1.0" encoding="UTF-8" standalone="no"?>
<svg xmlns:xlink="http://www.w3.org/1999/xlink" height="69.25px" width="140.65px" xmlns="http://www.w3.org/2000/svg">
  <g transform="matrix(1.0, 0.0, 0.0, 1.0, 70.3, 34.6)">
    <path d="M65.5 -13.5 L69.35 -20.3 Q66.65 -20.75 65.9 -21.2 55.3 -27.45 32.7 -33.6 L12.6 -28.35 6.4 -27.0 Q1.35 -25.9 -3.6 -25.25 L-4.25 -25.15 -16.9 -24.45 Q-36.8 -23.6 -39.2 -18.4 L-37.05 -15.9 -35.7 -14.25 Q-34.3 -12.4 -34.05 -11.5 -36.15 -9.15 -38.8 -7.75 -43.5 -5.3 -49.95 -5.75 -59.95 -10.25 -69.3 -14.85 -51.15 -18.95 -37.05 -15.9 M65.5 -13.5 L64.55 -11.65 Q63.4 -9.5 58.05 -7.0 L59.05 -1.15 Q49.3 24.1 26.7 33.65 18.35 24.3 3.6 14.6 -5.55 8.5 -16.95 2.45 L-21.75 2.45 -27.95 0.35 -33.4 -7.9 Q-33.5 -1.2 -38.45 3.4 -49.2 8.1 -57.15 6.5 -51.05 -0.6 -38.8 -7.75 M-34.05 -11.5 L-34.0 -11.15 -33.55 -8.1 -33.4 -7.9" fill="none" stroke="#000000" stroke-linecap="round" stroke-linejoin="round" stroke-width="2.0"/>
    <path d="M58.05 -7.0 Q44.75 -3.8 36.8 -3.6 14.6 -10.55 1.5 -8.3 -1.6 -7.8 -4.15 -6.8 M-35.7 -14.25 L-15.2 -17.05 Q13.8 -19.25 32.65 -26.55 51.75 -22.65 65.5 -13.5 M-34.05 -11.5 Q-29.85 -10.0 -11.65 -9.6 M13.4 14.25 Q24.25 16.95 29.3 20.85 39.5 17.6 44.75 13.9" fill="none" stroke="#000000" stroke-linecap="round" stroke-linejoin="round" stroke-width="1.4000000000000001"/>
  </g>
</svg>
