<?xml version="1.0" encoding="UTF-8" standalone="no"?>
<svg xmlns:xlink="http://www.w3.org/1999/xlink" height="50.15px" width="108.35px" xmlns="http://www.w3.org/2000/svg">
  <g transform="matrix(1.0, 0.0, 0.0, 1.0, 54.2, 25.05)">
    <path d="M50.75 -20.75 L53.65 -11.75 Q54.9 -7.1 52.95 -4.9 49.0 0.85 42.0 6.1 L41.1 6.7 41.7 4.2 Q35.5 10.8 26.75 15.25 L28.15 10.55 Q24.5 14.65 20.15 18.65 L13.65 25.1 Q-1.2 18.45 -9.05 12.0 L-5.3 16.45 Q-20.0 14.0 -29.85 6.45 L-27.35 10.6 Q-42.45 4.1 -47.6 -0.25 -52.65 -4.7 -53.65 -7.4 -52.25 -10.2 -53.15 -17.1 L-54.2 -23.15 -50.9 -25.05 Q-44.95 -8.9 -40.9 -6.2 -28.45 3.75 4.7 7.35 L11.5 3.8 17.3 7.1 Q44.4 3.2 48.0 -9.0 50.25 -13.85 50.75 -20.75" fill="#2c5d3e" fill-rule="evenodd" stroke="none"/>
  </g>
</svg>
