<?xml version="1.0" encoding="UTF-8" standalone="no"?>
<svg xmlns:xlink="http://www.w3.org/1999/xlink" height="28.45px" width="67.6px" xmlns="http://www.w3.org/2000/svg">
  <g transform="matrix(1.0, 0.0, 0.0, 1.0, 33.8, 14.2)">
    <path d="M-29.8 3.8 L-28.85 3.05 Q-27.55 2.05 -26.1 1.5 -24.75 0.9 -23.25 0.9 L-22.8 -0.15 Q-20.6 -10.6 -10.15 -13.9 -5.85 -14.5 -1.7 -13.9 3.0 -13.55 8.2 -11.4 11.2 -10.25 14.2 -8.6 21.3 -4.75 33.5 -5.75 33.5 -5.4 33.8 -5.1 34.4 2.7 13.85 10.85 L1.1 12.65 Q-35.9 17.1 -33.7 9.3 -31.95 5.95 -29.8 3.8" fill="#faae64" fill-rule="evenodd" stroke="none"/>
  </g>
</svg>
