<?xml version="1.0" encoding="UTF-8" standalone="no"?>
<svg xmlns:xlink="http://www.w3.org/1999/xlink" height="32.3px" width="76.3px" xmlns="http://www.w3.org/2000/svg">
  <g transform="matrix(1.0, 0.0, 0.0, 1.0, 38.15, 16.15)">
    <path d="M-14.55 -14.2 L-11.35 -15.1 -9.55 -15.9 Q-8.65 -12.4 -4.95 -9.95 -2.1 -12.75 1.95 -12.75 5.85 -12.75 8.7 -10.15 11.5 -13.4 13.35 -16.15 L15.65 -15.1 17.15 -14.65 Q15.75 -10.35 11.1 -6.9 11.9 -5.0 11.9 -2.8 11.9 1.35 9.0 4.25 6.1 7.2 1.95 7.2 -2.2 7.2 -5.1 4.25 -8.05 1.35 -8.05 -2.8 L-7.6 -5.65 Q-13.2 -9.85 -14.55 -14.2 M-14.0 6.95 Q-14.7 9.7 -16.6 11.9 L-17.25 12.55 Q-20.8 16.15 -25.95 16.15 -31.0 16.15 -34.55 12.55 -36.15 10.95 -37.0 9.05 -38.15 6.7 -38.15 3.9 -38.15 -1.15 -34.55 -4.8 -31.4 -7.95 -27.05 -8.3 -25.15 -9.15 -22.9 -9.15 -18.55 -9.15 -15.5 -6.05 -12.45 -3.0 -12.45 1.35 -12.45 4.5 -14.0 6.95 M32.55 -8.65 Q35.85 -7.15 37.35 -3.35 L37.35 -3.3 Q38.95 0.9 37.35 5.4 35.7 9.85 31.75 12.0 27.85 14.15 23.95 12.7 L22.25 11.95 20.5 11.4 Q18.6 10.65 17.4 9.15 16.2 7.75 15.55 5.65 14.3 1.35 16.15 -3.25 17.95 -7.85 21.7 -9.55 25.35 -11.3 28.3 -10.6 31.2 -10.0 32.55 -8.65 M1.3 -9.0 Q-0.15 -8.75 -1.35 -7.65 L-1.65 -7.35 Q-3.25 -5.55 -3.25 -3.15 -3.25 -0.7 -1.65 1.05 L-1.45 1.25 Q-0.25 2.35 1.2 2.75 L2.35 2.85 4.0 2.55 5.65 1.7 6.2 1.15 6.3 1.05 Q8.0 -0.7 8.0 -3.1 8.0 -5.5 6.4 -7.25 L6.3 -7.35 6.0 -7.65 4.2 -8.8 2.35 -9.1 1.3 -9.0 M8.65 10.9 L6.0 13.75 5.8 14.05 4.7 14.5 1.5 14.9 -1.75 14.5 -2.4 14.25 -2.8 14.0 -5.8 11.9 Q-1.35 7.55 8.65 10.9" fill="#c2c1d9" fill-rule="evenodd" stroke="none"/>
  </g>
</svg>
