<?xml version="1.0" encoding="UTF-8" standalone="no"?>
<svg xmlns:xlink="http://www.w3.org/1999/xlink" height="69.35px" width="139.9px" xmlns="http://www.w3.org/2000/svg">
  <g transform="matrix(1.0, 0.0, 0.0, 1.0, 0.0, 0.0)">
    <path d="M139.9 59.15 Q135.75 62.5 130.3 63.25 124.8 64.0 125.7 59.15 126.45 55.0 117.7 59.65 L118.9 61.0 Q115.7 60.6 114.05 61.6 L114.05 61.65 Q108.45 62.4 103.4 64.05 93.8 69.25 82.05 69.35 66.3 69.25 47.45 60.2 L47.85 64.95 Q39.75 66.9 32.7 64.95 L32.75 60.8 Q26.95 60.3 21.9 61.9 16.65 62.8 11.65 60.05 L13.25 49.8 Q6.0 47.7 0.0 45.35 6.95 23.65 11.3 0.0 40.4 14.65 121.8 4.35 125.5 30.95 139.9 59.15 M110.75 48.05 L110.95 49.0 111.85 51.05 110.75 48.05" fill="#ffffff" fill-opacity="0.84705883" fill-rule="evenodd" stroke="none"/>
  </g>
</svg>
