<?xml version="1.0" encoding="UTF-8" standalone="no"?>
<svg xmlns:xlink="http://www.w3.org/1999/xlink" height="22.35px" width="22.4px" xmlns="http://www.w3.org/2000/svg">
  <g transform="matrix(1.0, 0.0, 0.0, 1.0, 11.2, 11.15)">
    <path d="M-3.3 7.1 Q-4.65 8.75 -6.0 9.6 -7.3 10.4 -9.05 10.15 -10.75 9.85 -9.95 7.75 L-8.05 3.35 -6.3 -0.25 -4.55 -3.05 -2.45 -6.4 -2.3 -6.75 Q-2.75 -8.05 -1.15 -10.15 3.5 -7.65 10.1 -7.1 10.5 -4.6 9.05 -3.3 L8.75 -1.6 Q8.25 0.4 8.05 2.1 7.6 5.65 5.15 7.05 2.7 8.4 0.5 8.4 -1.65 8.4 -3.3 7.1 L-1.8 5.15 M1.9 -0.85 L0.65 0.4 Q-0.2 5.3 -3.15 4.4 -6.05 3.45 -4.9 -1.0" fill="none" stroke="#000000" stroke-linecap="round" stroke-linejoin="round" stroke-width="2.0"/>
    <path d="M-2.3 -6.75 Q0.05 -4.3 9.05 -3.3" fill="none" stroke="#000000" stroke-linecap="round" stroke-linejoin="round" stroke-width="1.0"/>
  </g>
</svg>
