<?xml version="1.0" encoding="UTF-8" standalone="no"?>
<svg xmlns:xlink="http://www.w3.org/1999/xlink" height="34.8px" width="27.3px" xmlns="http://www.w3.org/2000/svg">
  <g transform="matrix(1.0, 0.0, 0.0, 1.0, 13.65, 17.4)">
    <path d="M-4.55 -0.75 L-3.05 -4.6 0.85 -16.4 Q7.35 -12.75 12.65 -13.9 L11.05 -9.25 9.45 -4.9 8.15 -1.9 6.9 1.8 6.75 2.35 6.3 4.6 6.05 5.8 5.6 8.3 5.3 9.75 Q4.6 12.15 2.7 13.25 0.25 14.6 -1.95 14.6 -4.1 14.6 -5.75 13.3 -7.1 14.95 -8.45 15.8 -9.75 16.6 -11.5 16.35 -13.2 16.05 -12.4 13.95 L-10.5 9.55 -9.3 6.95 -8.75 5.95 -7.0 3.15 -6.3 2.1 -4.9 -0.2 -4.75 -0.55 M-7.65 7.95 L-7.6 6.5 -7.35 5.2 M-0.65 5.5 L-1.8 6.6 -2.35 8.7 Q-3.4 11.3 -5.6 10.6 -7.45 10.0 -7.65 7.95 M-4.25 11.35 L-5.75 13.3" fill="none" stroke="#000000" stroke-linecap="round" stroke-linejoin="round" stroke-width="2.0"/>
    <path d="M6.05 5.8 L6.3 5.85 M-4.75 -0.55 L-4.55 -0.75 M-9.3 6.95 L-7.65 7.95" fill="none" stroke="#000000" stroke-linecap="round" stroke-linejoin="round" stroke-width="1.0"/>
  </g>
</svg>
