<?xml version="1.0" encoding="UTF-8" standalone="no"?>
<svg xmlns:xlink="http://www.w3.org/1999/xlink" height="93.25px" width="161.85px" xmlns="http://www.w3.org/2000/svg">
  <g transform="matrix(1.0, 0.0, 0.0, 1.0, 80.95, 46.65)">
    <path d="M37.7 -3.35 L37.6 -4.65 Q37.25 -8.85 37.3 -12.75 L43.35 -12.9 Q42.75 -9.75 42.95 -7.7 L43.15 -5.45 43.15 -5.4 Q42.45 -0.1 45.3 4.35 38.45 0.0 37.7 -3.35 M45.15 8.7 L52.35 9.35 59.05 9.85 59.4 16.35 45.15 15.4 Q45.65 25.65 55.25 31.4 51.7 32.6 48.25 32.6 39.2 25.6 38.8 15.25 5.5 13.95 -13.2 21.95 L-13.7 15.7 Q-8.35 8.65 7.85 7.9 23.85 7.35 39.55 8.3 L45.15 8.7 M61.5 -46.55 Q67.1 -47.6 72.95 -38.45 78.75 -29.3 80.5 -8.0 82.2 13.3 76.85 25.95 72.3 36.8 64.45 38.5 64.5 36.0 63.85 32.8 L63.85 31.9 Q67.5 31.0 70.1 27.8 74.45 22.35 75.8 10.4 L76.1 7.4 Q76.75 -19.55 68.85 -28.0 L68.85 -33.85 Q69.1 -41.0 61.5 -46.55 M-61.6 -45.05 L-60.6 -45.1 Q-50.55 -45.1 -42.15 -31.65 -40.05 -28.3 -38.35 -24.6 -34.1 -15.25 -32.45 -3.75 L-31.95 0.75 -31.65 4.7 Q-30.8 21.15 -36.0 33.15 -41.9 46.6 -51.95 46.6 -62.0 46.6 -70.35 33.15 -78.75 19.75 -80.5 0.75 -82.3 -18.2 -76.5 -31.65 -70.95 -44.45 -61.6 -45.05 M-70.95 7.85 Q-69.75 13.7 -67.9 18.8 L-66.2 23.05 -63.9 27.65 Q-58.9 36.75 -53.6 38.2 L-51.6 38.45 Q-45.3 38.45 -42.35 27.65 L-42.25 27.25 -42.15 26.9 -41.15 22.05 Q-39.9 13.95 -40.5 3.0 L-40.75 -0.35 Q-42.05 -15.85 -47.25 -25.3 L-48.5 -27.4 Q-51.2 -31.6 -53.9 -33.8 L-54.1 -33.95 Q-57.75 -36.75 -61.45 -36.2 -64.75 -35.7 -67.15 -32.8 -69.6 -29.85 -71.1 -24.45 -72.3 -20.15 -72.65 -15.15 -73.25 -7.55 -72.0 1.65 L-70.95 7.85" fill="#009999" fill-rule="evenodd" stroke="none"/>
  </g>
</svg>
