<?xml version="1.0" encoding="UTF-8" standalone="no"?>
<svg xmlns:xlink="http://www.w3.org/1999/xlink" height="117.2px" width="131.05px" xmlns="http://www.w3.org/2000/svg">
  <g transform="matrix(1.0, 0.0, 0.0, 1.0, 65.5, 58.6)">
    <path d="M-41.6 35.2 Q-52.3 31.4 -59.1 19.15 -67.55 3.8 -64.8 -15.85 -62.0 -35.45 -49.7 -48.0 -37.35 -60.35 -22.7 -58.3 -7.95 -56.25 0.45 -40.95 L3.05 -35.6 Q-1.4 -30.4 -4.4 -23.3 L-4.75 -22.5 -6.35 -21.6 Q-19.4 -14.0 -26.05 1.75 -32.75 17.5 -29.15 32.15 L-27.75 36.6 -33.85 36.75 -32.3 45.3 Q-35.85 45.8 -39.25 44.3 -42.6 42.75 -45.65 39.2 L-41.6 35.2 M-2.95 53.75 Q1.85 53.5 6.8 51.3 L3.25 58.6 -2.95 53.75 M9.5 52.8 L11.05 49.15 Q24.05 41.6 30.75 25.8 33.1 20.2 34.25 14.75 41.6 8.4 46.0 -1.9 49.6 -10.4 49.8 -18.55 53.0 -17.3 55.8 -15.1 65.85 -7.2 65.55 7.85 65.25 23.0 54.7 36.45 44.2 49.9 29.65 53.9 18.2 57.05 9.5 52.8" fill="#45d176" fill-rule="evenodd" stroke="none"/>
  </g>
</svg>
