<?xml version="1.0" encoding="UTF-8" standalone="no"?>
<svg xmlns:xlink="http://www.w3.org/1999/xlink" height="450.65px" width="383.95px" xmlns="http://www.w3.org/2000/svg">
  <g transform="matrix(1.0, 0.0, 0.0, 1.0, 192.0, 225.35)">
    <path d="M-24.3 -206.5 L-3.3 -205.8 20.65 -206.4 29.55 -206.55 Q46.45 -153.8 46.5 -101.1 L46.15 -101.1 Q3.45 -99.7 -40.35 -101.6 L-41.25 -101.6 Q-43.45 -153.5 -24.3 -206.5 M76.9 -215.15 Q85.1 -219.35 85.35 -225.35 114.55 -216.0 139.1 -199.25 190.5 -163.9 191.95 -114.8 154.55 -109.05 118.2 -105.6 118.05 -161.55 76.9 -215.15 M115.3 -84.3 Q153.2 -87.75 190.25 -93.8 182.0 -49.45 132.8 -15.1 L103.55 4.55 67.05 4.55 Q108.7 -42.75 115.3 -84.3 M-86.55 -222.0 Q-86.35 -216.65 -76.4 -213.65 -118.5 -160.65 -117.55 -106.95 -154.25 -110.85 -191.7 -116.5 -185.75 -164.6 -132.65 -199.25 -112.75 -212.1 -86.55 -222.0 M-108.85 4.55 Q-129.45 -7.75 -138.7 -14.4 -187.7 -50.05 -192.0 -95.6 -153.35 -89.6 -115.5 -85.85 -105.8 -41.5 -64.0 4.55 L-108.85 4.55 M16.6 4.55 L-7.05 4.55 Q-35.3 -37.65 -40.0 -80.5 3.8 -78.75 46.45 -80.05 40.55 -37.95 16.6 4.55" fill="#d91a1f" fill-rule="evenodd" stroke="none"/>
    <path d="M64.3 144.95 Q73.8 145.6 73.8 156.85 73.8 164.45 69.45 167.3 66.5 169.15 61.35 168.85 L-60.05 168.85 -65.5 168.45 Q-72.4 166.6 -72.4 156.85 -72.4 144.05 -60.05 145.0 L61.35 144.95 64.3 144.95 M67.15 202.1 L65.45 219.4 Q47.4 222.65 29.65 224.1 L-1.6 225.3 -31.65 223.8 Q-45.35 222.55 -58.65 220.2 L-61.5 201.25 -35.0 204.2 -2.6 205.85 Q13.75 206.05 30.25 205.25 48.55 204.35 67.15 202.1" fill="#ca1413" fill-rule="evenodd" stroke="none"/>
  </g>
</svg>
