<?xml version="1.0" encoding="UTF-8" standalone="no"?>
<svg xmlns:xlink="http://www.w3.org/1999/xlink" height="333.4px" width="522.75px" xmlns="http://www.w3.org/2000/svg">
  <g transform="matrix(1.0, 0.0, 0.0, 1.0, 261.4, 166.7)">
    <path d="M-181.8 -117.7 L-181.8 -166.7 -106.65 -166.7 Q-106.15 -141.5 -98.4 -117.7 L-181.8 -117.7" fill="#7ec1eb" fill-rule="evenodd" stroke="none"/>
    <path d="M-152.8 -39.05 Q-169.9 -47.95 -203.55 -46.85 L-181.8 -57.0 -121.55 -57.0 Q-137.25 -47.0 -152.8 -39.05 M-229.4 -34.3 Q-186.1 -37.8 -176.25 -28.1 -198.6 -18.6 -214.3 -16.05 -244.45 -10.35 -261.4 -18.45 -243.8 -26.35 -229.4 -34.3 M137.55 109.05 L127.1 114.3 Q122.7 116.4 118.45 118.45 L110.45 122.2 97.55 128.4 96.8 128.7 84.75 134.25 78.1 137.35 74.45 139.0 59.8 145.4 46.55 151.05 44.8 151.85 Q-15.45 176.15 -61.15 160.75 -107.45 145.05 -84.1 123.5 -70.35 110.65 -38.75 91.15 22.3 92.65 73.95 98.9 L90.65 101.05 107.25 103.55 123.7 106.4 137.55 109.05 M57.0 37.05 L101.7 12.5 Q177.05 -0.5 257.45 20.75 271.4 30.25 235.25 55.75 181.65 44.65 155.8 41.2 L134.25 38.8 115.05 37.55 86.2 36.6 Q71.9 36.6 57.0 37.05" fill="#75bff0" fill-rule="evenodd" stroke="none"/>
  </g>
</svg>
