<?xml version="1.0" encoding="UTF-8" standalone="no"?>
<svg xmlns:xlink="http://www.w3.org/1999/xlink" height="263.0px" width="601.45px" xmlns="http://www.w3.org/2000/svg">
  <g transform="matrix(1.0, 0.0, 0.0, 1.0, 451.8, 335.25)">
    <path d="M-55.05 -237.8 L-58.85 -237.95 Q-71.55 -238.55 -85.1 -238.65 -102.0 -238.8 -120.15 -238.15 L-125.9 -238.15 Q-147.15 -250.15 -125.5 -260.25 L-125.5 -275.85 -128.15 -276.65 Q-132.75 -278.0 -136.0 -279.55 L-137.65 -280.4 Q-143.2 -283.55 -143.2 -287.4 -143.2 -293.7 -128.15 -298.1 -117.05 -301.5 -102.45 -302.35 L-102.45 -314.5 -91.65 -314.1 Q-88.3 -314.1 -85.1 -314.25 L-83.45 -314.35 -83.45 -302.45 Q-67.65 -301.65 -55.65 -298.1 -40.75 -293.7 -40.75 -287.4 -40.75 -281.1 -55.3 -276.7 L-55.3 -260.5 Q-33.2 -250.15 -55.05 -237.8 M-118.85 -328.5 L-118.85 -328.6 Q-118.25 -331.25 -111.05 -333.15 -103.5 -335.25 -92.75 -335.25 L-92.7 -335.25 -92.15 -335.25 -85.1 -335.05 Q-78.35 -334.6 -73.1 -333.15 -69.2 -332.1 -67.25 -330.85 -65.75 -329.9 -65.4 -328.6 L-65.35 -328.5 -65.35 -328.15 Q-65.4 -325.15 -73.1 -323.05 -77.65 -321.85 -83.45 -321.35 L-85.1 -321.25 -86.55 -321.15 -92.15 -321.0 -92.75 -321.0 -93.1 -321.0 -99.35 -321.25 -102.45 -321.5 Q-107.2 -322.1 -111.05 -323.05 -118.9 -325.15 -118.9 -328.15 L-118.85 -328.5" fill="#000000" fill-opacity="0.32941177" fill-rule="evenodd" stroke="none"/>
    <path d="M-55.05 -237.8 Q153.9 -226.75 149.55 -80.7 L132.4 -78.75 111.75 -76.55 91.25 -75.25 -0.35 -72.25 -42.8 -189.05 -58.85 -237.95 -55.05 -237.8" fill="#7ed8ff" fill-opacity="0.21960784" fill-rule="evenodd" stroke="none"/>
    <path d="M-42.8 -189.05 L-0.35 -72.25 Q-47.4 -72.1 -85.1 -75.25 L-103.4 -77.1 Q-126.45 -114.9 -124.9 -156.5 -124.0 -178.4 -85.1 -185.55 -67.75 -188.75 -42.8 -189.05 M-315.7 -188.4 L-354.45 -130.6 -422.55 -130.6 -381.2 -196.1 -451.8 -317.6 -391.5 -317.6 -315.7 -188.4 M-287.15 -238.15 L-231.65 -238.15 -203.4 -184.9 Q-218.6 -189.05 -237.15 -188.4 L-260.45 -188.4 -287.15 -238.15 M-82.75 -115.9 L-85.85 -120.95 -108.3 -120.95 -104.95 -115.9 -82.75 -115.9" fill="#000000" fill-opacity="0.25882354" fill-rule="evenodd" stroke="none"/>
  </g>
</svg>
