<?xml version="1.0" encoding="UTF-8" standalone="no"?>
<svg xmlns:xlink="http://www.w3.org/1999/xlink" height="144.45px" width="565.35px" xmlns="http://www.w3.org/2000/svg">
  <g transform="matrix(1.0, 0.0, 0.0, 1.0, 282.65, 72.25)">
    <path d="M97.25 -61.8 L97.7 -61.8 117.35 -65.1 Q190.8 -75.9 247.3 -70.35 265.65 -68.65 282.2 -65.1 283.65 -52.5 280.75 -38.4 223.55 -87.35 -235.85 25.4 -250.75 48.8 -261.75 71.65 L-277.1 72.0 -277.35 72.0 -277.6 72.0 -278.25 72.0 -278.75 72.0 -280.4 72.2 -281.0 72.2 -281.45 72.2 -281.7 72.2 -282.65 72.2 Q-264.25 39.7 -240.45 11.15 -217.25 2.15 -194.25 -3.25 L-179.1 -6.8 Q-136.9 -16.55 -94.4 -25.4 L-81.35 -28.35 -27.95 -39.0 4.45 -45.4 14.35 -47.1 Q55.5 -54.75 97.25 -61.8" fill="#6ba2ff" fill-rule="evenodd" stroke="none"/>
  </g>
</svg>
