<?xml version="1.0" encoding="UTF-8" standalone="no"?>
<svg xmlns:xlink="http://www.w3.org/1999/xlink" height="119.7px" width="194.55px" xmlns="http://www.w3.org/2000/svg">
  <g transform="matrix(1.0, 0.0, 0.0, 1.0, 97.3, 59.85)">
    <path d="M59.05 -53.8 L56.25 -53.75 56.0 -54.7 56.05 -55.65 54.95 -59.55 Q62.85 -59.95 67.75 -59.8 L69.1 -54.0 66.35 -53.95 82.05 31.85 Q94.55 30.9 97.25 39.65 90.35 38.7 85.1 39.75 81.8 40.4 79.0 41.8 71.35 45.95 68.95 56.3 -22.7 62.3 -60.5 58.1 -59.75 54.0 -60.4 50.55 -60.95 47.1 -65.9 43.65 -70.85 40.0 -76.4 40.65 -81.95 40.65 -86.1 43.5 -89.05 45.4 -90.8 48.85 L-90.75 48.95 -91.55 49.95 Q-92.55 50.7 -93.95 50.75 -95.35 50.75 -96.25 50.0 -96.9 49.6 -97.15 48.9 L-97.25 47.95 Q-97.55 44.1 -95.8 40.85 L-95.7 40.35 -95.45 40.15 Q-93.9 37.35 -90.85 34.95 -83.85 29.5 -74.7 29.2 -65.85 28.9 -59.4 33.4 -52.75 38.05 -51.9 45.45 L-51.9 46.95 -48.35 47.2 Q-2.45 48.85 64.8 44.45 65.05 36.3 75.35 32.45 L59.05 -53.8" fill="#39b4bc" fill-rule="evenodd" stroke="none"/>
  </g>
</svg>
