<?xml version="1.0" encoding="UTF-8" standalone="no"?>
<svg xmlns:xlink="http://www.w3.org/1999/xlink" height="145.0px" width="112.95px" xmlns="http://www.w3.org/2000/svg">
  <g transform="matrix(1.0, 0.0, 0.0, 1.0, 56.5, 145.0)">
    <path d="M-39.8 -49.35 L-45.05 -128.65 Q-33.5 -133.05 -26.45 -145.0 L26.4 -145.0 Q33.45 -133.05 45.05 -128.65 L39.75 -49.35 Q44.6 -46.35 45.05 -36.75 L55.1 -23.95 Q57.8 -15.85 55.1 -7.05 L54.4 -6.85 Q43.8 -3.95 32.65 -2.3 16.8 0.15 0.0 0.0 -16.8 0.15 -32.7 -2.3 -43.8 -3.95 -54.45 -6.85 L-55.15 -7.05 Q-57.85 -15.85 -55.15 -23.95 L-45.05 -36.75 Q-44.65 -46.35 -39.8 -49.35" fill="#dad4d6" fill-rule="evenodd" stroke="none"/>
  </g>
</svg>
