<?xml version="1.0" encoding="UTF-8" standalone="no"?>
<svg xmlns:xlink="http://www.w3.org/1999/xlink" height="56.45px" width="172.15px" xmlns="http://www.w3.org/2000/svg">
  <g transform="matrix(1.0, 0.0, 0.0, 1.0, 86.1, 28.25)">
    <path d="M45.05 -3.75 Q44.6 -13.35 39.75 -16.35 52.5 -29.1 62.15 -28.2 54.65 -22.5 51.85 -14.85 66.5 -25.5 81.3 -22.4 68.25 -13.55 61.4 1.5 71.5 -5.75 78.25 -6.3 71.85 -0.9 68.45 6.3 77.4 1.1 84.55 4.3 74.4 8.85 71.2 17.65 79.0 13.3 85.3 14.45 L86.05 14.6 85.3 15.2 Q77.0 21.7 73.5 28.2 L54.4 26.15 55.1 25.95 Q57.8 17.15 55.1 9.05 L45.05 -3.75 M-54.45 26.15 L-73.5 28.2 Q-77.05 21.7 -85.35 15.2 L-86.1 14.6 -85.35 14.45 Q-79.0 13.3 -71.25 17.65 -74.4 8.85 -84.6 4.3 -77.45 1.1 -68.5 6.3 -71.85 -0.9 -78.3 -6.3 -71.55 -5.75 -61.45 1.5 -68.25 -13.55 -81.3 -22.4 -66.55 -25.5 -51.85 -14.85 -54.7 -22.5 -62.2 -28.2 -52.5 -29.1 -39.8 -16.35 -44.65 -13.35 -45.05 -3.75 L-55.15 9.05 Q-57.85 17.15 -55.15 25.95 L-54.45 26.15" fill="#96df90" fill-rule="evenodd" stroke="none"/>
  </g>
</svg>
