<?xml version="1.0" encoding="UTF-8" standalone="no"?>
<svg xmlns:xlink="http://www.w3.org/1999/xlink" height="54.05px" width="60.35px" xmlns="http://www.w3.org/2000/svg">
  <g transform="matrix(1.0, 0.0, 0.0, 1.0, 30.15, 27.05)">
    <path d="M15.1 -22.4 L14.05 -19.15 14.7 -18.9 28.55 -26.6 28.9 -26.9 29.05 -27.05 30.2 -24.95 -29.95 8.5 -30.15 8.1 -26.7 0.1 -25.95 -0.35 -26.25 0.55 15.1 -22.4 M-17.95 9.2 Q-16.0 10.45 -14.25 9.7 L-12.9 10.4 -12.35 10.55 -12.35 11.5 -12.4 12.1 -12.25 14.55 -11.6 17.85 -10.75 20.5 -10.5 21.1 -10.3 21.3 Q-9.35 22.75 -9.45 23.45 L-9.65 23.65 -15.6 26.95 Q-16.9 27.3 -18.2 24.65 -20.85 19.1 -20.75 12.8 -20.95 12.3 -21.95 11.85 -23.1 11.35 -23.95 10.65 L-21.1 9.05 -17.95 9.2 M29.4 -18.95 L29.6 -18.55 Q29.9 -17.15 29.0 -16.4 L28.7 -16.2 4.35 -2.65 -0.15 -5.05 26.75 -20.0 Q28.4 -20.4 29.4 -18.95" fill="#c3cecc" fill-rule="evenodd" stroke="none"/>
    <path d="M15.1 -22.4 L-26.25 0.55 -25.95 -0.35 15.25 -23.25 15.1 -22.6 15.1 -22.4" fill="#f1fffc" fill-rule="evenodd" stroke="none"/>
  </g>
</svg>
