<?xml version="1.0" encoding="UTF-8" standalone="no"?>
<svg xmlns:xlink="http://www.w3.org/1999/xlink" height="58.7px" width="56.15px" xmlns="http://www.w3.org/2000/svg">
  <g transform="matrix(1.0, 0.0, 0.0, 1.0, 28.05, 29.35)">
    <path d="M-3.35 -28.9 Q8.1 -30.8 17.6 -24.4 7.15 -27.25 -1.75 -20.55 L-2.75 -21.15 Q-4.15 -21.8 -5.85 -21.65 -6.0 -27.45 -3.9 -28.85 L-3.35 -28.9 M-1.65 -14.4 Q-0.6 -15.7 -0.35 -16.95 21.55 -10.45 28.1 12.25 26.9 14.85 25.15 17.25 18.1 27.1 6.1 29.1 L4.15 29.35 Q-4.15 19.05 -6.65 9.85 -9.85 -0.3 -7.7 -11.55 L-5.85 -11.8 Q-3.25 -12.55 -1.65 -14.4 M-12.1 -13.1 Q-25.45 -1.6 -23.55 15.8 -26.6 10.95 -27.6 4.85 -29.2 -4.7 -24.95 -12.9 -18.1 -19.15 -12.1 -18.0 -13.15 -16.5 -12.85 -14.85 -12.7 -13.8 -12.1 -13.1" fill="#83e7ff" fill-rule="evenodd" stroke="none"/>
  </g>
</svg>
