<?xml version="1.0" encoding="UTF-8" standalone="no"?>
<svg xmlns:xlink="http://www.w3.org/1999/xlink" height="139.2px" width="87.85px" xmlns="http://www.w3.org/2000/svg">
  <g transform="matrix(1.0, 0.0, 0.0, 1.0, 43.95, 69.6)">
    <path d="M-15.6 -57.9 L-16.45 -57.55 Q-21.9 -62.6 -16.6 -69.6 -11.75 -65.3 -13.55 -58.8 23.65 -49.3 43.9 -20.3 33.2 -25.4 25.8 -24.8 35.8 -8.1 35.55 0.8 21.1 -4.9 12.2 2.85 L10.75 -17.4 12.95 -15.9 Q0.8 -46.2 -15.6 -57.9 -23.45 -37.4 -17.2 -9.6 -18.5 -10.3 -19.75 -10.85 L-15.85 8.0 Q-28.15 -0.65 -37.6 7.35 L-37.6 -9.95 Q-40.9 -7.9 -43.95 -4.3 -42.3 -23.6 -15.6 -57.9 M14.8 54.55 Q16.8 54.25 17.85 61.25 18.05 66.55 15.05 68.15 10.05 71.2 7.15 67.9 5.25 66.1 3.7 57.5 L2.6 50.6 7.8 50.6 8.95 60.35 Q9.45 64.0 11.2 63.8 13.2 63.05 12.2 58.75 11.55 54.55 14.8 54.55" fill="#8cc643" fill-rule="evenodd" stroke="none"/>
  </g>
</svg>
