<?xml version="1.0" encoding="UTF-8" standalone="no"?>
<svg xmlns:xlink="http://www.w3.org/1999/xlink" height="93.7px" width="24.45px" xmlns="http://www.w3.org/2000/svg">
  <g transform="matrix(1.0, 0.0, 0.0, 1.0, 12.25, 46.85)">
    <path d="M10.1 -31.0 L6.7 -44.8 Q6.4 -45.9 5.8 -46.0 L4.5 -46.1 Q4.05 -46.2 3.45 -45.35 L-2.5 -32.15 10.1 -31.0 Q11.25 -30.85 11.2 -30.0 L10.9 -26.95 Q11.55 -26.8 11.45 -25.95 L5.0 41.15 Q4.9 42.1 4.2 42.2 L3.95 44.9 Q3.75 46.3 2.25 46.05 L-9.7 44.9 Q-11.2 44.75 -11.15 43.55 L-10.9 40.7 Q-11.6 40.5 -11.5 39.9 L-5.05 -27.2 Q-4.85 -28.3 -4.25 -28.4 L-4.0 -31.25 Q-3.75 -32.35 -2.5 -32.15 M4.2 42.2 L3.8 42.2 -10.2 40.85 -10.9 40.7 M-4.25 -28.4 L10.9 -26.95" fill="none" stroke="#000000" stroke-linecap="round" stroke-linejoin="round" stroke-width="1.5"/>
  </g>
</svg>
