<?xml version="1.0" encoding="UTF-8" standalone="no"?>
<svg xmlns:xlink="http://www.w3.org/1999/xlink" height="140.6px" width="60.25px" xmlns="http://www.w3.org/2000/svg">
  <g transform="matrix(1.0, 0.0, 0.0, 1.0, 30.1, 70.3)">
    <path d="M26.65 -47.3 Q25.3 -55.5 19.1 -61.7 11.25 -69.55 0.1 -69.55 -11.05 -69.55 -18.95 -61.7 -25.1 -55.5 -26.45 -47.3 L-26.35 -47.3 Q0.3 -43.6 26.5 -47.3 L26.65 -47.3 Q28.0 -47.4 28.8 -46.7 30.65 -39.15 26.7 -33.0 L25.2 -32.7 Q23.25 -27.7 19.1 -23.6 12.15 -16.6 2.65 -15.8 L2.65 67.8 Q2.4 69.35 -0.05 69.55 L-0.75 69.55 Q-3.4 69.55 -3.8 67.8 L-3.8 -15.95 Q-12.5 -17.15 -18.95 -23.6 -23.1 -27.75 -25.0 -32.7 L-26.8 -33.05 Q-30.95 -39.45 -28.4 -46.7 -27.95 -47.1 -26.45 -47.3 M-3.8 -15.95 L-0.05 -15.7 0.1 -15.7 2.65 -15.8 M25.2 -32.7 Q0.5 -28.1 -25.0 -32.7" fill="none" stroke="#000000" stroke-linecap="round" stroke-linejoin="round" stroke-width="1.5"/>
  </g>
</svg>
