<?xml version="1.0" encoding="UTF-8" standalone="no"?>
<svg xmlns:xlink="http://www.w3.org/1999/xlink" height="45.1px" width="53.4px" xmlns="http://www.w3.org/2000/svg">
  <g transform="matrix(1.0, 0.0, 0.0, 1.0, 27.65, 65.3)">
    <path d="M-0.95 -42.15 L10.55 -30.55 1.55 -21.45 Q0.2 -20.05 -0.9 -20.25 -2.05 -20.05 -3.4 -21.35 L-12.35 -30.5 -0.95 -42.15" fill="#ffffff" fill-rule="evenodd" stroke="none"/>
    <path d="M25.1 -51.85 Q25.85 -48.95 25.75 -42.25 L19.35 -42.25 Q20.7 -58.55 9.05 -58.7 L9.05 -63.45 8.55 -65.3 Q22.4 -65.05 25.1 -51.85 M-21.35 -42.15 L-27.55 -42.1 Q-27.9 -48.75 -27.25 -51.6 -24.7 -64.95 -10.75 -65.25 L-11.2 -63.3 -11.2 -58.65 Q-22.75 -58.4 -21.35 -42.15" fill="#596675" fill-rule="evenodd" stroke="none"/>
  </g>
</svg>
