<?xml version="1.0" encoding="UTF-8" standalone="no"?>
<svg xmlns:xlink="http://www.w3.org/1999/xlink" height="53.75px" width="53.75px" xmlns="http://www.w3.org/2000/svg">
  <g transform="matrix(1.0, 0.0, 0.0, 1.0, 26.85, 26.9)">
    <path d="M24.9 8.1 Q26.9 2.2 25.75 -4.45 25.1 -8.05 23.7 -11.15 12.75 -13.55 -0.15 -6.55 3.35 -2.05 5.65 2.9 18.45 -0.3 24.9 8.1 23.7 11.7 21.35 15.05 16.9 21.3 10.35 24.05 7.6 25.15 4.45 25.7 -1.6 26.75 -7.1 25.15 -11.2 24.0 -15.0 21.3 -18.85 18.6 -21.4 15.1 -24.65 10.45 -25.7 4.4 -26.65 -1.1 -25.45 -6.15 -24.3 -10.8 -21.3 -15.05 -19.1 -18.25 -16.3 -20.5 -11.25 -24.6 -4.4 -25.75 L3.1 -26.0 Q9.45 -25.3 15.1 -21.35 20.9 -17.25 23.7 -11.15 M10.35 24.05 Q10.15 12.45 5.65 2.9 -6.8 7.8 -7.1 25.15 M3.1 -26.0 Q0.05 -18.65 -6.8 -13.55 -3.1 -10.2 -0.15 -6.55 -19.0 3.85 -21.4 15.1 M-16.3 -20.5 Q-11.05 -17.25 -6.8 -13.55 -14.6 -6.85 -25.45 -6.15" fill="none" stroke="#000000" stroke-linecap="round" stroke-linejoin="round" stroke-width="1.5"/>
  </g>
</svg>
