<?xml version="1.0" encoding="UTF-8" standalone="no"?>
<svg xmlns:xlink="http://www.w3.org/1999/xlink" height="73.25px" width="39.95px" xmlns="http://www.w3.org/2000/svg">
  <g transform="matrix(1.0, 0.0, 0.0, 1.0, 19.95, 36.65)">
    <path d="M3.45 -29.85 L8.6 -22.45 Q-1.95 -12.2 -4.45 -4.05 -5.85 5.35 -0.95 18.9 L-9.35 23.25 Q-20.7 6.25 -19.9 -6.1 -15.15 -18.7 3.45 -29.85 M15.75 -36.4 Q18.35 -37.25 19.45 -35.2 20.55 -33.65 19.35 -31.8 L13.25 -26.75 9.05 -33.0 Q12.2 -34.7 15.75 -36.4 M3.8 36.0 Q1.95 37.4 -0.05 35.5 L-5.35 28.8 1.65 25.45 Q3.2 29.0 5.1 32.8 5.4 35.05 3.8 36.0" fill="#efba99" fill-rule="evenodd" stroke="none"/>
  </g>
</svg>
