<?xml version="1.0" encoding="UTF-8" standalone="no"?>
<svg xmlns:xlink="http://www.w3.org/1999/xlink" height="88.8px" width="94.95px" xmlns="http://www.w3.org/2000/svg">
  <g transform="matrix(1.0, 0.0, 0.0, 1.0, 47.45, 44.4)">
    <path d="M13.75 14.35 L25.65 8.75 M-5.7 -13.95 L16.4 -17.6" fill="none" stroke="#000000" stroke-linecap="round" stroke-linejoin="round" stroke-width="1.5"/>
    <path d="M35.6 11.5 Q30.9 18.4 25.3 24.1 35.3 21.45 46.5 22.6 36.65 -27.55 -4.45 -43.4 -5.05 -26.25 -30.3 -7.8 L-26.35 13.75 -25.3 13.45 Q-22.65 -10.35 -14.25 -8.4 -6.1 -5.0 -24.45 13.65 -20.65 15.15 -19.85 19.65 0.15 12.9 6.3 18.65 5.8 24.6 -14.7 22.4 -4.25 27.25 8.75 30.2 M-19.85 19.65 L-19.7 20.35 -20.35 21.8 -14.7 22.4 M-26.35 13.75 Q-33.8 15.35 -44.1 1.9 -51.3 16.3 -36.5 21.25 L-42.8 25.95 -33.25 30.75 -30.0 43.4 -21.0 23.1 -20.35 21.8 M-25.3 13.45 L-24.45 13.65 M25.3 24.1 Q15.3 34.35 2.6 40.5 -4.2 32.45 -10.85 28.3 -16.2 27.65 -21.0 23.1" fill="none" stroke="#000000" stroke-linecap="round" stroke-linejoin="round" stroke-width="2.0"/>
  </g>
</svg>
