<?xml version="1.0" encoding="UTF-8" standalone="no"?>
<svg xmlns:xlink="http://www.w3.org/1999/xlink" height="23.7px" width="35.7px" xmlns="http://www.w3.org/2000/svg">
  <g transform="matrix(1.0, 0.0, 0.0, 1.0, 17.85, 11.85)">
    <path d="M7.55 -5.95 Q13.2 -6.4 15.75 -7.45 14.4 -9.95 12.35 -8.25 11.4 -10.1 9.35 -9.05 L10.3 -11.85 Q17.3 -11.25 17.85 -9.15 17.85 -4.45 16.8 -3.35 L16.3 -3.2 13.85 8.1 Q13.45 9.8 10.25 10.8 0.05 12.9 -9.9 10.8 -13.45 9.5 -14.1 7.1 L-15.8 -3.15 Q-17.25 -3.85 -17.35 -4.75 L-17.85 -8.75 Q-17.5 -11.0 -12.9 -11.35 L-11.65 -9.2 Q-13.8 -8.95 -14.35 -7.0 L-9.25 -6.15 Q-6.7 -3.35 -2.85 -0.85 L-0.5 0.6 Q1.05 -0.2 2.4 -1.1 5.55 -3.25 7.55 -5.95" fill="#a97661" fill-rule="evenodd" stroke="none"/>
  </g>
</svg>
