<?xml version="1.0" encoding="UTF-8" standalone="no"?>
<svg xmlns:xlink="http://www.w3.org/1999/xlink" height="26.35px" width="30.65px" xmlns="http://www.w3.org/2000/svg">
  <g transform="matrix(1.0, 0.0, 0.0, 1.0, 19.1, 24.15)">
    <path d="M3.85 -13.5 L4.05 -13.3 4.05 -12.95 3.45 -12.7 Q3.15 -12.5 2.9 -12.7 L2.55 -12.9 2.7 -13.25 3.25 -13.45 3.85 -13.5 M3.3 -6.0 L2.9 -5.45 2.45 -5.2 2.1 -5.25 2.1 -5.6 2.3 -6.05 2.85 -6.4 3.2 -6.35 3.3 -6.0 M10.55 -5.05 L11.15 -5.35 11.45 -5.4 11.55 -4.95 11.15 -4.45 10.75 -4.15 10.35 -4.15 Q10.25 -4.3 10.3 -4.5 L10.55 -5.05 M2.85 1.25 L2.15 1.3 1.95 1.05 Q1.85 0.9 2.05 0.7 L2.6 0.45 3.25 0.5 3.5 0.7 3.35 0.95 2.85 1.25 M-2.7 -23.25 L-3.4 -23.25 -3.7 -23.5 -3.45 -23.85 -3.0 -24.1 -2.4 -24.1 -2.15 -23.9 Q-2.0 -23.75 -2.2 -23.6 L-2.7 -23.25 M-10.1 -20.35 L-10.35 -19.8 -10.8 -19.5 -11.25 -19.6 -11.25 -19.85 -10.95 -20.45 -10.45 -20.7 -10.05 -20.75 -10.1 -20.35 M-4.45 -16.2 L-4.4 -16.6 -3.9 -17.0 -3.25 -17.25 -3.05 -17.05 Q-2.9 -16.95 -3.05 -16.8 L-3.5 -16.4 -4.1 -16.1 -4.45 -16.2 M-11.0 -11.5 Q-11.25 -11.45 -11.35 -11.65 L-11.25 -11.9 -10.9 -12.3 -10.3 -12.5 -9.95 -12.5 Q-9.85 -12.3 -10.05 -12.05 L-10.4 -11.6 -11.0 -11.5 M-17.9 -10.9 L-18.45 -10.55 -18.8 -10.6 -18.8 -11.0 -18.5 -11.45 -18.0 -11.85 -17.65 -11.8 -17.7 -11.4 Q-17.65 -11.15 -17.9 -10.9 M-18.55 -4.4 L-18.0 -4.6 -17.65 -4.45 Q-17.55 -4.25 -17.75 -4.1 L-18.15 -3.7 -18.7 -3.55 Q-18.95 -3.45 -19.05 -3.65 L-19.0 -4.0 -18.55 -4.4 M-5.85 -5.3 L-5.15 -5.4 -4.95 -5.15 Q-4.85 -4.95 -5.1 -4.8 -5.2 -4.65 -5.6 -4.55 L-6.15 -4.45 Q-6.4 -4.5 -6.5 -4.7 L-6.35 -5.05 -5.85 -5.3 M-5.65 2.15 L-6.05 1.95 -5.8 1.6 -5.35 1.35 -4.7 1.2 -4.45 1.45 -4.55 1.8 -5.05 2.1 -5.65 2.15 M-10.45 0.35 Q-10.35 0.55 -10.6 0.7 -10.75 0.95 -11.15 1.0 L-11.75 1.05 -12.0 0.8 -11.9 0.45 -11.35 0.15 -10.7 0.2 Q-10.45 0.2 -10.45 0.35" fill="#ffeb89" fill-rule="evenodd" stroke="none"/>
  </g>
</svg>
