<?xml version="1.0" encoding="UTF-8" standalone="no"?>
<svg xmlns:xlink="http://www.w3.org/1999/xlink" height="39.65px" width="46.2px" xmlns="http://www.w3.org/2000/svg">
  <g transform="matrix(1.0, 0.0, 0.0, 1.0, 23.1, 19.85)">
    <path d="M-22.05 -6.4 Q-21.15 -7.45 -22.15 -9.15 -23.2 -11.35 -20.6 -12.35 -18.55 -13.3 -18.95 -15.65 -19.3 -17.7 -16.7 -18.05 -15.2 -18.4 -14.55 -19.25 -12.8 -21.0 -11.05 -17.7 -8.95 -13.3 -7.0 -10.8 -8.15 -9.7 -9.0 -8.25 L-9.4 -7.5 -9.9 -6.35 Q-10.4 -4.9 -10.5 -3.35 L-19.5 -3.0 Q-22.0 -2.8 -22.9 -3.75 -23.5 -4.5 -22.05 -6.4 M22.35 9.8 Q23.1 11.9 20.5 12.55 18.3 12.95 17.95 15.1 17.45 17.65 15.15 17.6 13.2 17.25 12.5 18.35 11.9 19.4 10.7 19.8 9.4 19.95 8.8 17.15 8.2 12.6 6.8 8.5 L9.15 7.05 10.6 5.7 11.9 3.8 12.45 2.8 Q13.8 3.75 16.25 3.8 18.5 3.65 20.65 4.4 23.8 5.6 22.9 7.05 21.95 8.3 22.35 9.8" fill="#ffffff" fill-rule="evenodd" stroke="none"/>
  </g>
</svg>
