<?xml version="1.0" encoding="UTF-8" standalone="no"?>
<svg xmlns:xlink="http://www.w3.org/1999/xlink" height="157.8px" width="368.95px" xmlns="http://www.w3.org/2000/svg">
  <g transform="matrix(1.0, 0.0, 0.0, 1.0, 184.45, 78.9)">
    <path d="M98.45 -3.55 Q128.65 1.75 107.75 8.15 112.7 10.55 116.9 18.1 179.2 15.25 184.5 78.9 L-14.65 78.9 Q-21.4 24.95 -69.55 30.5 -70.2 25.2 -77.55 21.7 -61.2 16.4 -84.5 11.05 -83.55 -11.35 -104.75 3.55 -131.2 -48.8 -184.45 -23.95 -182.25 -33.05 -182.05 -39.1 -170.2 -40.55 -158.75 -37.6 -163.2 -56.65 -150.05 -49.9 -147.35 -72.4 -137.0 -73.95 -130.1 -74.6 -128.25 -57.3 -83.15 -97.55 -39.85 -52.05 -38.95 -66.3 -34.1 -73.2 -33.2 -74.55 -32.1 -75.6 -29.8 -77.9 -26.75 -78.9 -14.45 -79.8 -20.2 -47.2 -9.7 -52.05 -0.05 -54.35 48.85 -66.15 74.55 -12.7 101.1 -30.15 98.45 -3.55" fill="#17854c" fill-rule="evenodd" stroke="none"/>
  </g>
</svg>
