<?xml version="1.0" encoding="UTF-8" standalone="no"?>
<svg xmlns:xlink="http://www.w3.org/1999/xlink" height="373.1px" width="549.8px" xmlns="http://www.w3.org/2000/svg">
  <g transform="matrix(1.0, 0.0, 0.0, 1.0, 274.9, 186.55)">
    <path d="M134.4 -132.55 Q161.85 -152.1 177.4 -136.05 195.2 -117.8 159.9 -87.55 187.1 -103.5 205.9 -77.55 212.45 -68.8 210.7 -59.55 221.55 -64.9 232.4 -59.55 247.0 -48.7 232.4 -30.05 250.55 -42.55 264.9 -30.05 286.7 -10.35 253.9 18.45 285.1 21.05 269.9 51.45 262.85 65.6 245.9 57.95 255.55 76.15 241.4 86.45 231.35 92.35 221.35 88.4 216.55 100.55 194.9 102.45 234.5 100.0 219.4 138.95 208.65 160.4 183.4 147.45 206.2 171.8 174.4 182.95 153.95 186.2 139.4 167.95 127.75 193.55 101.4 183.95 L98.7 182.05 Q94.85 179.2 92.35 176.15 85.4 167.7 88.8 157.85 91.55 155.2 94.4 152.95 L131.4 132.35 Q119.25 133.4 111.7 130.7 101.05 126.85 99.4 115.4 93.35 116.5 86.9 112.95 L83.45 110.85 Q63.95 98.0 78.9 83.95 68.1 85.95 65.4 82.6 63.85 80.65 64.9 76.95 35.2 96.95 26.85 71.2 25.85 68.05 25.15 64.2 L22.95 64.45 Q1.5 65.35 -15.35 57.0 -15.65 61.1 -17.3 64.1 -21.8 72.1 -36.0 72.3 -33.8 78.55 -38.55 88.45 -43.3 96.6 -50.75 99.45 -58.65 102.45 -69.55 99.45 -70.3 108.05 -73.15 114.4 -74.9 118.15 -77.4 121.1 -84.95 130.0 -99.45 131.65 -88.6 137.65 -88.85 146.4 L-89.05 148.45 Q-90.3 152.85 -92.75 156.3 -98.85 164.95 -112.55 167.95 -130.4 171.85 -143.6 165.85 -157.35 184.7 -182.05 186.45 -203.05 185.55 -213.05 168.95 -216.85 158.15 -215.0 147.35 -224.35 156.25 -243.55 148.95 -269.3 138.15 -263.05 117.95 -259.0 107.15 -251.0 100.6 -280.55 79.7 -273.55 43.45 -265.95 -1.65 -218.1 -8.5 -223.9 -39.6 -206.05 -60.05 -191.15 -75.65 -170.5 -75.75 -182.3 -107.45 -141.05 -122.55 -135.25 -124.1 -130.05 -124.7 -126.85 -147.45 -103.55 -140.05 -115.25 -177.65 -80.55 -185.05 -46.3 -192.85 -43.55 -159.55 -34.65 -174.0 -19.55 -173.05 -9.05 -173.85 -3.3 -160.35 1.6 -164.5 9.5 -167.35 27.75 -173.9 46.4 -157.4 73.7 -189.15 102.9 -185.55 150.4 -178.3 134.4 -132.55" fill="#5ba945" fill-rule="evenodd" stroke="none"/>
  </g>
</svg>
