<?xml version="1.0" encoding="UTF-8" standalone="no"?>
<svg xmlns:xlink="http://www.w3.org/1999/xlink" height="53.6px" width="357.8px" xmlns="http://www.w3.org/2000/svg">
  <g transform="matrix(1.0, 0.0, 0.0, 1.0, 178.9, 26.8)">
    <path d="M22.8 -25.5 L22.45 -22.8 Q56.35 -20.55 91.75 -22.8 L91.2 -26.55 Q158.55 -28.8 174.9 -11.65 L175.7 -10.3 Q179.1 -4.2 178.9 3.1 L178.55 7.15 Q178.3 9.55 177.55 12.05 174.8 25.85 143.6 26.8 L-143.6 26.8 Q-174.8 25.85 -177.55 12.05 -178.3 9.55 -178.55 7.15 L-178.9 3.1 Q-179.1 -4.2 -175.7 -10.3 L-174.9 -11.65 Q-158.5 -28.8 -91.2 -26.55 L-91.75 -22.8 Q-56.3 -20.55 -22.45 -22.8 L-22.8 -25.5 22.8 -25.5" fill="#fa8de0" fill-rule="evenodd" stroke="none"/>
  </g>
</svg>
