<?xml version="1.0" encoding="UTF-8" standalone="no"?>
<svg xmlns:xlink="http://www.w3.org/1999/xlink" height="22.1px" width="121.35px" xmlns="http://www.w3.org/2000/svg">
  <g transform="matrix(1.0, 0.0, 0.0, 1.0, 59.55, 107.75)">
    <path d="M15.2 -107.75 L44.9 -107.75 Q58.1 -107.2 60.95 -100.05 61.8 -98.45 61.8 -96.75 61.9 -94.85 60.95 -92.85 L60.55 -91.75 60.35 -91.35 Q58.25 -86.7 50.1 -85.65 L15.2 -85.65 Q7.95 -86.0 5.25 -90.9 L4.75 -91.75 4.35 -92.85 4.35 -98.5 Q5.55 -106.8 15.2 -107.75 M-2.05 -98.5 L-2.05 -92.85 -2.5 -91.75 -2.95 -90.9 Q-5.65 -86.0 -12.95 -85.65 L-47.8 -85.65 Q-56.0 -86.7 -58.1 -91.35 L-58.25 -91.75 -58.65 -92.85 Q-59.65 -94.85 -59.55 -96.75 -59.55 -98.45 -58.65 -100.05 -55.85 -107.2 -42.6 -107.75 L-12.95 -107.75 Q-3.25 -106.8 -2.05 -98.5" fill="#ffffff" fill-rule="evenodd" stroke="none"/>
  </g>
</svg>
