<?xml version="1.0" encoding="UTF-8" standalone="no"?>
<svg xmlns:xlink="http://www.w3.org/1999/xlink" height="135.9px" width="82.7px" xmlns="http://www.w3.org/2000/svg">
  <g transform="matrix(1.0, 0.0, 0.0, 1.0, 41.35, 67.95)">
    <path d="M18.65 -32.35 Q19.65 -36.95 17.85 -42.95 36.65 -13.75 24.65 12.65 34.1 0.9 33.05 -10.95 51.5 18.95 28.85 43.25 34.5 41.7 39.45 35.05 37.0 56.8 12.85 66.25 5.15 69.35 -3.15 66.85 -38.1 52.9 -41.35 23.85 -38.85 32.45 -33.55 34.05 -42.9 20.4 -33.55 3.85 -37.0 12.9 -30.55 19.85 -33.9 11.15 -21.15 1.05 -9.95 -7.45 -19.55 -22.35 -11.0 -18.5 -9.95 -10.35 -10.9 -19.7 -6.35 -27.15 4.6 -45.55 -7.75 -67.95 10.75 -56.95 18.65 -32.35 M-15.75 44.45 Q-11.7 60.95 4.05 66.45 11.55 63.3 18.45 55.65 26.45 45.4 20.85 35.65 11.4 21.2 14.45 13.85 9.75 15.8 9.85 24.65 3.85 17.95 9.25 2.25 15.1 -16.3 2.85 -25.15 10.65 -13.45 -7.15 11.05 -19.7 28.1 -15.75 44.45" fill="url(#gradient0)" fill-rule="evenodd" stroke="none"/>
    <path d="M-15.75 44.45 Q-19.7 28.1 -7.15 11.05 10.65 -13.45 2.85 -25.15 15.1 -16.3 9.25 2.25 3.85 17.95 9.85 24.65 9.75 15.8 14.45 13.85 11.4 21.2 20.85 35.65 26.45 45.4 18.45 55.65 11.55 63.3 4.05 66.45 -11.7 60.95 -15.75 44.45" fill="url(#gradient1)" fill-rule="evenodd" stroke="none"/>
  </g>
  <defs>
    <linearGradient gradientTransform="matrix(-0.0051, -0.0586, 0.0506, -0.0044, 0.45, 23.45)" gradientUnits="userSpaceOnUse" id="gradient0" spreadMethod="pad" x1="-819.2" x2="819.2">
      <stop offset="0.0196078431372549" stop-color="#cb161d"/>
      <stop offset="0.8823529411764706" stop-color="#f58b1c"/>
    </linearGradient>
    <linearGradient gradientTransform="matrix(0.0, -0.0213, 0.0243, 0.0, 3.2, 44.9)" gradientUnits="userSpaceOnUse" id="gradient1" spreadMethod="pad" x1="-819.2" x2="819.2">
      <stop offset="0.0196078431372549" stop-color="#ff6801"/>
      <stop offset="0.8823529411764706" stop-color="#fec600"/>
    </linearGradient>
  </defs>
</svg>
