<?xml version="1.0" encoding="UTF-8" standalone="no"?>
<svg xmlns:xlink="http://www.w3.org/1999/xlink" height="43.1px" width="31.35px" xmlns="http://www.w3.org/2000/svg">
  <g transform="matrix(1.0, 0.0, 0.0, 1.0, 15.7, 21.55)">
    <path d="M13.65 -12.5 Q14.75 -4.8 14.45 1.6 16.2 6.75 15.4 12.7 L15.1 13.85 Q13.75 17.45 9.2 19.6 L9.05 19.7 Q8.55 19.95 8.85 19.95 L7.0 20.55 5.95 20.75 3.95 21.0 2.95 21.45 Q-0.9 21.95 -4.4 19.2 -8.7 15.95 -9.55 8.8 -14.4 -0.9 -15.65 -10.55 -16.05 -14.15 -12.85 -15.85 L-12.75 -16.0 -12.15 -16.3 Q-8.65 -15.85 -5.8 -6.9 L-3.7 0.15 Q1.05 -3.4 5.75 -1.75 4.3 -12.65 5.7 -16.95 7.0 -21.15 8.9 -21.25 L9.55 -21.55 Q12.45 -21.2 13.65 -12.5" fill="#3eded0" fill-rule="evenodd" stroke="none"/>
  </g>
</svg>
