<?xml version="1.0" encoding="UTF-8" standalone="no"?>
<svg xmlns:xlink="http://www.w3.org/1999/xlink" height="72.4px" width="34.45px" xmlns="http://www.w3.org/2000/svg">
  <g transform="matrix(1.0, 0.0, 0.0, 1.0, 17.25, 36.2)">
    <path d="M-4.05 16.05 L-12.35 15.75 Q-16.55 14.25 -16.5 8.95 L-15.9 -20.75 -15.85 -21.45 -15.9 -21.65 Q-14.25 -31.45 -5.3 -34.75 4.35 -37.1 10.65 -31.3 15.6 -26.8 16.45 -17.95 L15.2 13.85 Q14.85 15.9 10.7 15.75 L4.0 15.95 4.0 33.55 Q3.4 35.75 0.2 35.4 -3.6 35.45 -4.05 33.55 L-4.05 16.05 4.0 15.95" fill="none" stroke="#000000" stroke-linecap="round" stroke-linejoin="round" stroke-width="1.5"/>
    <path d="M-11.35 -19.1 Q-10.45 -30.4 0.65 -30.95" fill="none" stroke="#000000" stroke-linecap="round" stroke-linejoin="round" stroke-opacity="0.61960787" stroke-width="1.0"/>
  </g>
</svg>
