<?xml version="1.0" encoding="UTF-8" standalone="no"?>
<svg xmlns:xlink="http://www.w3.org/1999/xlink" height="51.65px" width="17.2px" xmlns="http://www.w3.org/2000/svg">
  <g transform="matrix(1.0, 0.0, 0.0, 1.0, 8.6, 25.85)">
    <path d="M-2.95 -12.8 Q-3.95 -13.05 -4.95 -13.75 -7.0 -15.2 -7.5 -17.65 -7.95 -20.15 -6.5 -22.25 -5.05 -24.3 -2.5 -24.8 0.0 -25.15 2.05 -23.75 4.1 -22.3 4.5 -19.85 4.95 -17.35 3.55 -15.2 2.8 -14.2 1.85 -13.6 5.95 -13.95 5.8 -9.65 L7.6 17.25 Q7.7 23.8 2.95 24.7 -1.95 25.5 -2.85 20.0 -3.05 3.75 -5.45 -9.25 -6.1 -12.35 -2.95 -12.8 L-0.45 -12.75 Q0.9 -13.0 1.85 -13.6" fill="none" stroke="#000000" stroke-linecap="round" stroke-linejoin="round" stroke-width="2.0"/>
  </g>
</svg>
