<?xml version="1.0" encoding="UTF-8" standalone="no"?>
<svg xmlns:xlink="http://www.w3.org/1999/xlink" height="27.0px" width="17.3px" xmlns="http://www.w3.org/2000/svg">
  <g transform="matrix(1.0, 0.0, 0.0, 1.0, 1.55, 13.9)">
    <path d="M14.0 12.6 L0.2 12.6 Q-1.05 12.6 -1.05 11.35 L-1.05 -12.15 Q-1.05 -13.4 0.2 -13.4 L14.0 -13.4 Q15.25 -13.4 15.25 -12.15 L15.25 11.35 Q15.25 12.6 14.0 12.6" fill="url(#gradient0)" fill-rule="evenodd" stroke="none"/>
    <path d="M14.0 12.6 L0.2 12.6 Q-1.05 12.6 -1.05 11.35 L-1.05 -12.15 Q-1.05 -13.4 0.2 -13.4 L14.0 -13.4 Q15.25 -13.4 15.25 -12.15 L15.25 11.35 Q15.25 12.6 14.0 12.6 Z" fill="none" stroke="#000000" stroke-linecap="round" stroke-linejoin="round" stroke-width="1.0"/>
  </g>
  <defs>
    <linearGradient gradientTransform="matrix(0.0029, 0.0037, -0.0135, 0.0105, 6.65, -0.95)" gradientUnits="userSpaceOnUse" id="gradient0" spreadMethod="pad" x1="-819.2" x2="819.2">
      <stop offset="0.0" stop-color="#202025"/>
      <stop offset="0.5176470588235295" stop-color="#2d2b3c"/>
      <stop offset="1.0" stop-color="#1f2025"/>
    </linearGradient>
  </defs>
</svg>
