<?xml version="1.0" encoding="UTF-8" standalone="no"?>
<svg xmlns:xlink="http://www.w3.org/1999/xlink" height="72.5px" width="48.2px" xmlns="http://www.w3.org/2000/svg">
  <g transform="matrix(1.0, 0.0, 0.0, 1.0, 0.0, 36.25)">
    <path d="M16.05 -16.65 Q16.1 -18.45 16.65 -21.4 L17.2 -23.95 Q21.65 -35.1 32.45 -36.25 31.55 -35.05 31.0 -33.9 30.2 -32.25 30.0 -30.75 29.8 -29.25 30.15 -27.9 34.85 -25.65 40.65 -27.05 40.95 -28.3 39.1 -33.0 43.75 -30.35 45.25 -26.6 52.1 -8.25 42.15 26.1 46.6 32.6 48.2 36.25 L22.9 36.15 Q25.05 31.3 29.6 26.3 25.6 19.1 22.7 12.25 L21.15 14.85 21.7 17.0 Q19.85 15.65 18.85 16.0 17.6 15.8 17.55 18.35 14.65 13.45 12.45 18.5 9.3 11.8 0.0 11.15 12.6 7.35 17.55 8.7 11.25 9.7 15.6 12.6 20.9 12.65 20.95 7.65 L20.8 7.3 20.65 6.9 Q19.15 2.45 18.1 -1.95 17.5 -4.1 17.15 -6.25 L16.7 -9.3 16.25 -13.0 16.05 -15.5 16.05 -16.65 M3.65 -12.5 Q4.25 -15.05 4.45 -18.8 L4.5 -19.85 4.4 -25.1 4.1 -27.05 Q3.95 -27.65 3.65 -27.7 3.2 -27.7 2.6 -25.2 2.05 -22.75 1.8 -19.15 L1.8 -18.95 Q1.5 -15.25 1.8 -12.65 L2.15 -10.65 2.6 -10.05 Q3.05 -10.0 3.65 -12.5 M5.25 -16.3 L5.15 -15.25 7.25 -15.25 7.3 -15.2 7.35 -15.2 7.45 -14.75 7.05 -14.45 5.05 -14.6 4.3 -11.35 4.2 -10.95 8.05 -10.95 8.1 -10.9 8.3 -10.5 8.0 -10.25 6.45 -10.15 4.0 -10.3 Q3.25 -8.55 2.55 -8.75 1.65 -8.95 1.2 -12.2 0.85 -15.15 1.05 -19.0 L1.05 -19.35 Q1.4 -23.5 2.2 -26.25 3.05 -29.1 4.05 -28.9 4.4 -28.8 4.65 -28.1 L6.35 -28.25 Q7.05 -28.25 7.0 -28.05 7.0 -27.8 6.35 -27.65 L4.85 -27.7 5.4 -25.35 8.75 -25.55 8.85 -25.55 9.25 -25.35 9.25 -25.25 9.75 -25.05 Q9.95 -24.8 9.25 -24.4 L5.5 -24.25 5.55 -20.1 5.5 -19.35 6.9 -19.4 8.15 -19.45 8.2 -19.45 8.6 -19.2 8.6 -19.15 8.65 -18.7 Q8.5 -18.55 8.2 -18.5 L5.45 -18.55 5.45 -18.2 5.25 -16.3 M8.95 -10.2 Q8.8 -10.25 8.75 -10.45 L8.75 -10.85 9.1 -11.1 9.35 -11.1 9.35 -11.05 9.45 -11.0 9.65 -10.7 9.65 -10.35 9.55 -10.25 Q9.45 -10.15 9.35 -10.15 L8.95 -10.2 M25.15 -18.5 Q30.9 -14.5 34.35 -19.0 35.4 -20.65 34.15 -21.6 29.2 -24.9 25.15 -18.5" fill="#a65bff" fill-rule="evenodd" stroke="none"/>
  </g>
</svg>
