<?xml version="1.0" encoding="UTF-8" standalone="no"?>
<svg xmlns:xlink="http://www.w3.org/1999/xlink" height="46.75px" width="38.1px" xmlns="http://www.w3.org/2000/svg">
  <g transform="matrix(1.0, 0.0, 0.0, 1.0, 19.05, 23.4)">
    <path d="M15.6 1.35 L15.95 0.9 16.85 -0.4 17.4 -1.55 Q19.15 -5.7 16.1 -10.5 L13.95 -12.6 6.1 -21.6 5.5 -21.85 Q4.8 -21.05 5.75 -18.95 8.85 -12.15 11.3 3.5 L11.45 4.35 Q12.65 11.95 15.9 19.8 18.15 12.45 17.15 3.15 L17.15 2.75 16.85 -0.4 M-17.95 -6.2 Q-18.95 -20.0 -8.55 -22.4 -6.05 -20.95 -2.95 -15.7 -1.5 -13.2 -0.7 -9.1 0.05 -5.05 0.45 2.6 L0.25 5.0 Q-1.65 14.7 -5.5 22.35 -13.85 12.2 -16.5 2.45 -17.65 -1.6 -17.95 -6.2" fill="none" stroke="#000000" stroke-linecap="round" stroke-linejoin="round" stroke-width="2.0"/>
    <path d="M11.3 3.5 Q13.4 7.4 15.45 9.25 L17.15 2.75 M0.45 2.6 Q-2.6 9.95 -6.65 13.7 -12.05 9.0 -16.5 2.45 M-7.7 1.05 Q-3.9 3.25 0.45 2.6" fill="none" stroke="#000000" stroke-linecap="round" stroke-linejoin="round" stroke-width="1.0"/>
  </g>
</svg>
