<?xml version="1.0" encoding="UTF-8" standalone="no"?>
<svg xmlns:xlink="http://www.w3.org/1999/xlink" height="57.9px" width="53.7px" xmlns="http://www.w3.org/2000/svg">
  <g transform="matrix(1.0, 0.0, 0.0, 1.0, 26.85, 28.95)">
    <path d="M-13.9 -10.0 L-13.9 -10.05 -13.85 -10.05 -13.9 -10.0" fill="#ff5177" fill-rule="evenodd" stroke="none"/>
    <path d="M16.4 -14.55 L17.75 -13.6 20.2 -11.2 Q23.25 -6.45 21.5 -2.25 L20.05 0.2 Q20.2 5.7 22.7 12.45 25.15 19.15 25.85 24.15 23.75 27.75 14.25 27.9 -10.6 28.35 -16.3 24.95 -13.1 18.7 -11.35 13.15 -9.65 7.6 -12.3 0.2 -19.3 1.55 -24.85 -6.55 -25.35 -10.2 -23.05 -13.9 -25.45 -15.95 -25.8 -17.6 -26.35 -20.25 -21.1 -24.85 -13.0 -28.1 -4.2 -27.45 L-4.2 -22.4 Q0.25 -19.0 3.5 -15.6 8.3 -10.6 10.5 -5.65 L10.95 -5.75 Q12.35 -10.35 11.95 -16.95 L11.7 -19.5 8.85 -22.35 7.3 -27.95 Q11.2 -26.45 13.7 -24.2 15.35 -22.1 15.95 -19.65 16.65 -17.05 16.4 -14.55 16.15 -12.5 15.25 -10.55 L15.05 -10.05 Q13.95 -7.75 11.35 -6.0 L11.0 -5.75 10.95 -5.75 M-13.85 -10.05 Q-13.7 -15.1 -11.2 -18.4 -8.1 -22.3 -5.2 -18.55 L-0.4 -12.35 Q1.5 -9.85 4.85 -7.6 8.2 -5.4 10.5 -5.65 M20.05 0.2 L19.7 0.65 M-13.9 -10.0 Q-13.95 -5.5 -13.05 -2.9 L-12.3 0.2 M-4.2 -22.4 Q-8.65 -24.3 -13.35 -23.5 M-23.05 -13.9 Q-21.6 -12.65 -19.45 -11.3" fill="none" stroke="#000000" stroke-linecap="round" stroke-linejoin="round" stroke-width="2.0"/>
    <path d="M11.7 -19.5 L11.2 -23.15 M-0.1 1.65 L5.8 1.5 Q8.35 0.7 9.35 -0.95 M-13.9 -10.0 L-13.85 -10.05 -13.9 -10.05 -13.9 -10.0" fill="none" stroke="#000000" stroke-linecap="round" stroke-linejoin="round" stroke-width="1.2000000000000002"/>
    <path d="M11.35 -6.0 Q13.4 -2.15 13.2 9.05 12.95 20.2 14.25 27.9" fill="none" stroke="#000000" stroke-linecap="round" stroke-linejoin="round" stroke-width="1.0"/>
  </g>
</svg>
