<?xml version="1.0" encoding="UTF-8" standalone="no"?>
<svg xmlns:xlink="http://www.w3.org/1999/xlink" height="146.95px" width="155.25px" xmlns="http://www.w3.org/2000/svg">
  <g transform="matrix(1.0, 0.0, 0.0, 1.0, 77.65, 73.45)">
    <path d="M31.85 -69.5 Q59.95 -58.7 68.0 -41.9 76.0 -25.1 77.3 -11.4 78.6 2.25 74.25 29.4 69.95 56.55 76.6 73.5 62.15 58.85 67.4 36.85 62.25 48.6 52.45 57.8 60.25 41.55 62.05 17.95 63.5 -1.1 57.7 -20.15 59.65 -31.35 49.6 -38.25 16.85 -46.55 -17.45 -38.3 -28.9 -32.75 -28.8 -10.9 -35.7 27.65 -20.9 59.55 -33.1 51.2 -41.25 39.45 L-43.6 35.8 Q-49.7 27.35 -53.15 14.55 L-55.45 14.75 Q-63.2 18.4 -58.9 26.3 -58.95 53.5 -77.65 73.5 -70.1 51.15 -69.65 19.2 L-69.65 19.15 Q-71.25 -24.55 -57.4 -46.1 -54.45 -50.75 -50.8 -55.1 -33.25 -74.5 12.6 -73.4 23.2 -72.0 31.85 -69.5" fill="#8ef7aa" fill-rule="evenodd" stroke="none"/>
  </g>
</svg>
