<?xml version="1.0" encoding="UTF-8" standalone="no"?>
<svg xmlns:xlink="http://www.w3.org/1999/xlink" height="158.75px" width="147.55px" xmlns="http://www.w3.org/2000/svg">
  <g transform="matrix(1.0, 0.0, 0.0, 1.0, 73.75, 79.35)">
    <path d="M-60.65 41.1 L-60.7 41.2 -60.8 40.55 -60.65 41.1" fill="#8ef7aa" fill-rule="evenodd" stroke="none"/>
    <path d="M67.4 -61.8 L65.15 -61.2 Q66.2 -49.5 58.7 -35.3 60.4 -32.65 61.7 -29.8 72.7 -50.4 72.8 -70.5 66.35 -69.95 54.5 -66.5 42.65 -63.1 34.2 -56.75 40.25 -53.55 45.7 -49.2 53.85 -57.8 65.15 -61.2 M-71.4 26.85 Q-75.95 -2.1 -64.9 -30.1 L-61.4 -36.1 Q-66.25 -54.95 -55.3 -78.35 -47.4 -76.05 -37.0 -70.7 -29.6 -66.95 -24.25 -61.3 L-23.5 -61.5 -19.05 -62.55 -17.0 -63.05 -10.55 -64.15 -7.05 -64.5 Q-0.1 -65.0 8.1 -64.35 L14.7 -63.75 Q25.1 -61.55 34.2 -56.75 M45.7 -49.2 L49.75 -45.8 Q55.15 -40.9 58.7 -35.3 M61.7 -29.8 L63.3 -25.85 Q70.3 -7.65 70.55 4.75 71.8 22.05 67.65 42.0 63.5 61.9 65.95 73.2 55.15 60.75 58.3 38.7 55.4 43.05 50.15 43.95 57.1 38.7 58.6 11.3 L57.8 -7.7 56.9 -12.6 Q54.3 -26.65 50.0 -30.0 23.9 -37.3 -1.2 -34.8 -26.3 -32.35 -30.6 -23.35 -34.9 -14.35 -35.5 -7.1 -44.4 25.4 -34.65 45.4 -44.7 42.15 -47.4 33.05 -43.3 65.65 -54.3 78.4 -53.2 66.8 -60.0 43.3 L-60.65 41.1 -60.7 41.2 -60.8 40.55 -63.95 25.25 Q-65.8 7.65 -61.4 -5.1 M58.3 38.7 Q64.1 30.05 63.8 16.85 M-35.6 -57.2 L-39.2 -59.5 Q-45.9 -63.35 -49.9 -64.2 -53.55 -56.15 -52.95 -45.95 -52.65 -40.7 -51.2 -34.85 -38.1 -37.9 -28.7 -50.6 -31.4 -54.25 -35.6 -57.2 M-20.2 -56.3 Q-22.05 -58.95 -24.25 -61.3 M-61.4 -36.1 Q-60.5 -32.55 -59.05 -29.15 M-49.5 11.55 Q-50.65 20.65 -47.4 33.05 M-60.8 40.55 L-60.65 41.1" fill="none" stroke="#000000" stroke-linecap="round" stroke-linejoin="round" stroke-width="2.0"/>
  </g>
</svg>
