<?xml version="1.0" encoding="UTF-8" standalone="no"?>
<svg xmlns:xlink="http://www.w3.org/1999/xlink" height="192.2px" width="144.75px" xmlns="http://www.w3.org/2000/svg">
  <g transform="matrix(1.0, 0.0, 0.0, 1.0, 72.35, 96.1)">
    <path d="M-32.45 74.35 L-28.55 85.2 Q-44.95 66.25 -48.05 41.0 -49.7 27.45 -49.8 13.6 L-50.1 13.6 -54.75 6.65 Q-59.45 3.0 -63.8 10.7 -73.15 -8.05 -67.35 -33.3 -65.95 -39.65 -63.25 -45.15 -65.95 -48.65 -68.45 -57.5 -71.6 -68.5 -72.2 -79.35 -72.85 -90.3 -70.9 -96.1 -67.45 -94.95 -46.1 -90.25 -25.75 -85.75 -16.8 -77.8 L-15.4 -78.15 -8.95 -79.25 -5.45 -79.6 Q1.5 -80.1 9.7 -79.45 L16.3 -78.85 Q22.25 -77.6 27.8 -75.45 36.8 -83.15 55.55 -87.75 L72.4 -91.65 Q71.5 -76.55 68.3 -67.55 L65.1 -58.0 61.75 -48.05 61.85 -47.85 61.9 -47.75 61.95 -47.6 62.1 -47.35 62.4 -46.8 62.4 -46.75 Q66.75 -38.3 67.15 -28.45 L67.1 -21.6 67.05 -21.2 Q69.5 11.1 66.2 39.5 63.9 59.0 52.9 78.25 L55.3 61.05 Q54.25 65.3 52.3 70.0 47.45 81.55 42.25 92.65 39.05 70.65 49.1 45.7 60.5 23.55 60.3 -2.45 L59.85 -12.05 Q59.3 -21.7 56.6 -30.8 55.9 -41.75 51.6 -45.1 31.75 -52.05 4.3 -49.8 -23.2 -47.6 -28.4 -39.5 -29.45 -34.1 -28.5 -28.85 -37.15 15.55 -27.65 46.7 -17.05 81.45 -18.55 96.1 -21.5 89.95 -28.15 81.1 -30.65 77.7 -32.45 74.35 L-36.45 63.25 Q-35.45 68.8 -32.45 74.35 M-57.95 -53.85 L-56.6 -51.0 -58.7 -46.9 -54.5 -47.5 Q-49.05 -47.95 -42.4 -53.0 -34.55 -59.15 -34.35 -61.3 L-42.85 -67.55 -46.9 -70.6 Q-60.05 -80.6 -66.3 -87.3 -65.2 -72.1 -59.8 -58.35 L-61.8 -56.1 -59.2 -56.6 -57.95 -53.85" fill="#8ef7aa" fill-rule="evenodd" stroke="none"/>
  </g>
</svg>
