<?xml version="1.0" encoding="UTF-8" standalone="no"?>
<svg xmlns:xlink="http://www.w3.org/1999/xlink" height="82.8px" width="142.7px" xmlns="http://www.w3.org/2000/svg">
  <g transform="matrix(1.0, 0.0, 0.0, 1.0, 71.35, 41.4)">
    <path d="M48.5 31.05 Q47.65 28.3 48.2 26.1 50.7 24.1 54.4 25.75 L56.45 26.75 Q58.55 28.0 59.55 29.5 L59.9 29.3 Q58.5 30.65 59.5 33.45 60.1 34.0 60.8 34.1 61.2 37.35 60.6 40.35 L58.85 40.05 53.25 39.85 53.45 37.4 Q51.6 38.1 50.9 36.05 49.2 33.4 48.5 31.05 M-4.85 30.35 Q-5.7 30.4 -6.25 31.15 -6.8 31.95 -6.7 32.85 L-6.35 34.0 -5.95 34.5 Q-5.3 35.15 -4.5 35.1 -4.3 38.6 -5.3 41.4 L-12.25 41.15 -10.5 37.25 -10.85 37.5 Q-14.05 40.0 -14.75 37.6 L-17.1 30.75 Q-18.35 28.6 -18.25 27.5 -17.75 26.65 -16.95 26.25 -14.35 24.9 -8.95 28.25 -7.25 29.6 -4.85 30.35 L-2.1 27.1 Q-1.35 25.9 -0.85 24.55 0.2 21.75 2.2 21.6 5.9 27.95 3.5 35.7 L2.95 35.65 1.9 37.9 Q1.2 39.05 0.3 39.4 -3.25 38.15 -4.5 35.1 -3.65 35.0 -3.1 34.25 L-2.9 33.9 Q-2.65 33.3 -2.65 32.55 -2.75 31.6 -3.4 30.9 -4.05 30.3 -4.8 30.35 L-4.85 30.35 M-64.7 -34.15 L-64.8 -31.15 Q-66.25 -29.55 -66.3 -27.95 L-66.3 -27.85 Q-66.3 -26.9 -65.9 -26.0 -67.8 -24.3 -67.5 -22.2 -67.5 -21.05 -65.9 -20.3 -66.6 -19.1 -65.95 -17.75 -71.35 -17.95 -71.35 -23.65 -70.95 -27.4 -66.85 -28.55 -72.2 -34.6 -67.3 -41.4 -65.05 -40.45 -64.7 -34.15 M70.05 26.1 L70.3 28.3 Q70.65 30.85 69.9 32.7 L71.35 34.25 Q69.5 35.3 68.3 36.6 67.4 37.45 66.85 38.45 63.35 36.15 62.35 33.8 63.25 33.45 63.65 32.75 L63.6 32.75 Q63.7 30.25 62.05 29.15 L63.0 27.05 63.15 26.7 Q65.9 20.9 68.1 20.25 69.5 23.2 70.05 26.1" fill="#545454" fill-rule="evenodd" stroke="none"/>
  </g>
</svg>
