<?xml version="1.0" encoding="UTF-8" standalone="no"?>
<svg xmlns:xlink="http://www.w3.org/1999/xlink" height="165.6px" width="201.9px" xmlns="http://www.w3.org/2000/svg">
  <g transform="matrix(1.0, 0.0, 0.0, 1.0, 100.95, 82.8)">
    <path d="M21.05 -45.15 Q26.45 -47.65 42.8 -50.25 64.2 -53.5 65.3 -75.6 70.2 -47.55 59.35 -38.65 71.0 -46.1 96.4 -43.85 81.75 -44.0 66.05 -33.7 70.05 -33.6 76.45 -28.35 86.9 -19.8 90.9 0.5 83.5 -10.55 71.2 -17.4 77.5 -12.4 83.25 -0.15 89.0 12.1 96.35 19.25 86.6 16.55 76.55 4.65 81.05 10.35 82.85 16.65 89.6 30.95 99.95 38.3 90.1 37.45 83.9 28.3 L83.05 33.4 Q86.35 42.05 85.35 55.75 84.6 51.55 78.9 44.8 L76.65 48.9 77.5 43.25 72.35 34.55 72.35 35.55 Q71.95 56.9 83.15 65.8 68.95 63.2 65.8 48.55 61.1 64.85 62.7 74.9 55.0 59.75 59.5 44.6 57.35 48.55 54.35 51.95 59.2 32.7 57.85 6.3 57.8 13.25 53.65 17.7 54.3 3.85 48.9 -10.0 L47.8 -1.25 Q45.95 -11.05 35.75 -16.55 42.9 -11.55 41.95 -3.8 37.2 -10.35 23.75 -19.85 25.45 -11.2 17.9 -7.8 18.85 -11.55 14.25 -19.5 17.05 -11.65 14.25 -3.8 11.2 -10.5 0.8 -14.4 -0.3 -8.55 7.35 -5.65 -5.3 -8.0 -11.6 -12.9 L-14.9 0.2 -17.65 -7.25 Q-21.8 7.35 -20.0 16.95 -26.5 6.65 -25.45 0.2 -35.1 35.05 -34.55 53.75 -38.95 46.05 -40.2 39.15 -39.15 65.8 -25.75 77.15 -38.95 70.95 -46.25 61.65 -38.8 73.2 -39.05 81.8 -42.7 72.6 -55.15 62.65 L-50.55 76.35 Q-60.95 68.95 -64.45 55.55 -66.1 58.55 -67.3 61.8 -68.95 54.55 -67.5 47.25 -66.9 44.15 -65.7 41.05 -70.85 53.6 -81.7 57.4 -76.25 51.5 -67.5 26.45 L-67.5 25.25 Q-79.15 41.45 -83.5 51.45 -83.45 34.15 -70.5 19.25 -80.95 27.85 -99.95 23.35 -86.9 20.45 -81.35 11.35 -75.85 2.25 -69.65 -3.6 -81.55 -2.85 -93.35 6.65 -84.55 -13.8 -63.65 -18.55 -84.35 -17.4 -91.65 -37.65 -77.85 -24.8 -60.5 -30.65 -55.0 -32.5 -50.3 -33.4 -77.25 -33.0 -75.2 -61.05 -68.85 -40.7 -50.3 -39.8 -62.75 -47.05 -64.1 -57.0 -58.15 -46.65 -34.8 -46.4 -26.1 -48.0 -21.25 -43.8 -19.7 -62.0 -24.35 -80.7 -10.45 -62.65 -15.85 -46.1 5.05 -58.95 10.25 -81.8 13.15 -60.5 4.05 -47.5 11.8 -55.75 53.25 -75.25 24.8 -56.6 21.05 -45.15 20.5 -43.55 20.45 -42.1 M59.35 -38.65 Q55.6 -35.55 49.95 -34.8 M71.2 -17.4 L67.95 -19.1 M66.05 -33.7 L59.45 -28.95 M82.85 16.65 Q84.4 22.25 83.9 28.3 M57.65 2.75 L57.85 6.3 M65.8 48.55 Q66.95 44.4 68.55 39.9 M77.5 43.25 Q79.4 26.95 74.1 14.4 M64.4 -12.7 Q72.95 4.9 74.1 26.1 71.05 16.9 62.95 5.2 M59.5 44.6 Q66.8 31.1 64.2 11.15 M83.05 33.4 Q81.8 38.9 78.9 44.8 M76.55 4.65 Q73.3 0.8 70.05 -4.0 M-63.65 -18.55 L-54.25 -19.1 M-69.65 -3.6 L-61.4 -3.75 M-15.85 -46.1 Q-16.5 -44.1 -17.45 -42.1 M-21.8 -41.35 L-21.25 -43.8 M-17.65 -7.25 L-14.9 -15.85 M-50.3 -39.8 Q-44.35 -36.35 -35.8 -33.45 L-33.65 -32.75 -33.3 -32.65 -31.55 -32.15 M-35.8 -33.45 Q-41.75 -35.05 -50.3 -33.4 M-40.2 39.15 L-40.4 37.75 Q-40.95 33.6 -40.35 29.7 M-48.6 -13.85 Q-55.25 -9.95 -58.25 3.95 -61.3 17.85 -70.95 25.7 -57.15 19.55 -51.3 8.9 L-50.35 7.05 Q-47.8 1.65 -47.15 -4.85 M-70.5 19.25 Q-68.6 17.6 -66.85 15.6 M-65.7 41.05 L-65.55 40.65 Q-64.0 36.65 -61.5 32.65 M-55.3 35.2 Q-55.2 39.15 -54.55 42.8 -52.85 52.35 -47.5 59.95 L-46.25 61.65 M-51.3 8.9 Q-54.75 16.4 -55.35 29.8 M-47.5 59.95 Q-55.05 61.9 -61.3 50.5 -63.05 52.9 -64.45 55.55 M-55.15 62.65 L-58.1 60.35 M-54.55 42.8 Q-58.4 46.4 -61.3 50.5 M4.05 -47.5 Q1.85 -44.35 -1.05 -41.7" fill="none" stroke="#000000" stroke-linecap="round" stroke-linejoin="round" stroke-width="2.0"/>
  </g>
</svg>
