<?xml version="1.0" encoding="UTF-8" standalone="no"?>
<svg xmlns:xlink="http://www.w3.org/1999/xlink" height="181.95px" width="149.5px" xmlns="http://www.w3.org/2000/svg">
  <g transform="matrix(1.0, 0.0, 0.0, 1.0, 74.75, 91.0)">
    <path d="M66.9 -75.75 Q66.4 -71.85 69.55 -78.15 70.2 -72.85 69.8 -66.55 71.45 -43.8 68.1 -28.05 66.0 -11.75 59.5 1.3 61.05 2.0 62.45 2.95 62.1 4.95 58.75 7.1 55.4 9.2 52.3 8.4 56.05 10.3 57.95 13.25 L57.6 13.65 Q62.6 18.65 66.45 26.1 71.35 35.1 74.75 39.3 67.15 40.1 63.65 32.7 71.1 49.7 70.25 66.7 L65.5 59.05 Q65.6 76.8 61.25 83.5 L60.15 67.6 Q62.9 56.05 59.2 42.35 59.2 46.65 57.0 48.0 54.8 42.7 47.1 31.7 49.0 36.65 49.3 41.9 46.0 36.25 36.35 30.1 38.45 34.5 36.05 38.45 35.55 33.9 25.6 26.3 26.35 33.4 22.8 38.45 L14.05 26.5 Q13.75 33.35 11.95 39.2 6.0 31.45 5.05 26.75 -1.0 33.55 -2.9 40.3 -5.9 33.25 -3.7 27.0 -14.35 35.85 -17.5 41.85 -19.25 36.9 -16.45 32.8 -27.5 43.35 -26.8 48.5 -31.05 45.5 -32.55 41.55 -30.6 53.4 -35.45 68.7 L-38.25 57.55 Q-38.65 72.65 -41.6 85.25 L-44.75 78.0 Q-46.25 83.1 -46.9 88.5 L-47.15 90.95 Q-51.15 86.2 -53.05 84.95 -56.2 83.4 -58.55 85.0 -64.95 71.65 -64.55 59.0 L-70.05 72.65 Q-71.95 47.85 -64.35 36.35 -67.05 39.6 -74.75 41.05 -67.75 29.6 -60.5 20.0 -55.05 12.65 -46.35 8.45 -48.45 2.95 -50.05 -2.3 L-50.65 -2.7 -50.15 -2.65 Q-53.5 -13.5 -55.05 -23.55 -54.75 -54.55 -49.0 -85.8 -47.75 -87.4 -45.8 -82.8 -45.95 -88.6 -45.7 -91.0 -29.7 -75.95 -20.95 -53.2 -13.3 -33.3 -16.45 -7.75 L-14.55 -8.45 -14.3 -5.25 Q-8.35 -7.5 0.1 -8.7 14.2 -9.4 25.6 -12.0 29.0 -19.1 34.3 -26.65 43.75 -40.3 51.1 -51.8 58.45 -63.35 65.9 -82.95 67.4 -79.7 66.9 -75.75 M20.35 -2.7 L21.9 -2.9 22.35 -4.1 20.35 -2.7" fill="#8ef7aa" fill-rule="evenodd" stroke="none"/>
  </g>
</svg>
