<?xml version="1.0" encoding="UTF-8" standalone="no"?>
<svg xmlns:xlink="http://www.w3.org/1999/xlink" height="133.8px" width="188.2px" xmlns="http://www.w3.org/2000/svg">
  <g transform="matrix(1.0, 0.0, 0.0, 1.0, 94.1, 66.9)">
    <path d="M-10.9 -33.15 Q-16.45 -43.4 -14.75 -54.1 -13.5 -45.5 -2.65 -41.4 8.15 -37.35 9.7 -26.9 21.35 -44.7 2.2 -66.9 26.45 -45.05 23.35 -24.45 29.45 -39.8 50.0 -45.9 28.75 -29.65 34.3 -18.35 44.7 -22.5 52.15 -29.85 50.75 -24.15 48.35 -19.55 58.1 -25.1 70.7 -24.9 59.5 -19.25 56.75 -6.7 64.2 -8.3 69.4 -12.25 66.6 -3.8 62.3 1.3 77.75 14.25 94.1 10.0 89.65 15.75 84.6 18.45 86.85 19.7 93.25 18.65 88.3 26.85 75.55 28.85 80.15 33.8 83.45 33.3 L78.2 36.35 Q83.0 36.25 88.25 34.45 82.5 42.45 75.3 44.3 84.0 47.35 84.0 55.25 78.25 50.05 70.45 51.8 60.45 51.65 60.9 46.1 58.25 51.75 53.0 55.8 56.2 36.3 53.05 22.0 51.9 16.75 49.95 12.2 45.05 1.15 35.2 -5.85 29.9 -8.1 27.3 -7.9 19.25 -8.95 13.9 -14.5 L7.0 -8.3 4.6 -15.0 1.45 -9.3 -7.05 -15.25 Q-17.05 -7.05 -33.05 -12.0 L-30.9 -7.8 -37.3 -6.8 Q-41.7 -3.55 -46.3 -3.1 L-46.3 3.8 -48.45 1.8 Q-45.65 8.0 -48.45 14.2 -51.85 13.7 -54.3 19.9 L-48.7 21.35 Q-54.95 27.9 -57.2 32.5 -58.95 58.15 -54.0 66.9 -76.05 49.5 -76.7 37.75 -83.95 39.3 -90.95 44.85 -86.95 28.9 -73.1 27.65 -87.5 26.15 -92.5 13.2 -82.05 17.7 -71.45 11.35 -81.8 15.55 -94.1 0.1 -78.9 2.75 -70.55 -2.4 -84.85 -1.5 -90.7 -8.8 -86.55 -8.1 -72.0 -12.55 L-73.45 -15.5 Q-66.55 -12.25 -61.8 -15.9 -75.7 -23.25 -90.45 -15.25 -80.5 -37.05 -50.05 -32.95 -51.8 -38.3 -50.6 -44.65 -46.0 -33.3 -35.3 -26.9 -49.15 -48.15 -42.7 -62.95 -39.0 -46.95 -10.9 -33.15" fill="url(#gradient0)" fill-rule="evenodd" stroke="none"/>
  </g>
  <defs>
    <linearGradient gradientTransform="matrix(0.0, 0.0991, -0.1149, 0.0, 0.0, 100.6)" gradientUnits="userSpaceOnUse" id="gradient0" spreadMethod="pad" x1="-819.2" x2="819.2">
      <stop offset="0.0" stop-color="#fff23c" stop-opacity="0.0"/>
      <stop offset="0.3803921568627451" stop-color="#fff23c" stop-opacity="0.84705883"/>
      <stop offset="0.6039215686274509" stop-color="#fff23c" stop-opacity="0.8"/>
      <stop offset="1.0" stop-color="#fff23c" stop-opacity="0.0"/>
    </linearGradient>
  </defs>
</svg>
