<?xml version="1.0" encoding="UTF-8" standalone="no"?>
<svg xmlns:xlink="http://www.w3.org/1999/xlink" height="175.75px" width="149.15px" xmlns="http://www.w3.org/2000/svg">
  <g transform="matrix(1.0, 0.0, 0.0, 1.0, 74.6, 87.85)">
    <path d="M59.7 -47.6 Q55.15 -50.05 50.65 -44.95 L49.9 -42.95 Q56.1 -38.35 60.95 -31.7 64.05 -35.85 59.7 -39.25 63.05 -44.05 59.7 -47.6 M24.95 -52.9 Q34.6 -74.45 58.65 -85.55 84.05 -59.45 68.9 -23.8 75.15 -4.1 68.05 17.15 66.45 3.4 62.3 0.45 59.45 -9.9 52.35 -15.55 14.95 -25.5 -9.25 -11.4 L-15.2 2.9 Q-26.25 12.6 -30.15 25.8 -34.25 63.4 -24.35 87.9 -51.25 80.25 -53.35 53.25 -61.3 53.35 -66.2 51.25 -70.9 49.2 -74.6 45.2 -70.1 44.6 -67.2 42.7 -62.9 39.85 -62.25 34.1 -60.6 21.0 -57.45 11.25 L-60.3 5.95 Q-80.65 -35.25 -41.7 -87.85 -19.7 -79.05 -6.55 -51.8 11.05 -54.95 24.95 -52.9 M-21.6 -38.0 Q-28.05 -41.3 -33.3 -29.95 -33.6 -19.95 -35.35 -11.5 -34.8 -7.3 -31.85 -6.35 -27.95 -5.65 -28.75 -10.55 -25.6 -7.65 -22.45 -9.1 -17.95 -10.95 -23.7 -18.5 -19.55 -16.85 -18.9 -20.2 -19.4 -24.4 -24.35 -23.55 -14.6 -31.15 -21.6 -38.0" fill="url(#gradient0)" fill-rule="evenodd" stroke="none"/>
  </g>
  <defs>
    <linearGradient gradientTransform="matrix(0.0, 0.1009, -0.091, 0.0, 0.0, 72.65)" gradientUnits="userSpaceOnUse" id="gradient0" spreadMethod="pad" x1="-819.2" x2="819.2">
      <stop offset="0.0" stop-color="#fff23c" stop-opacity="0.0"/>
      <stop offset="0.3803921568627451" stop-color="#fff23c" stop-opacity="0.84705883"/>
      <stop offset="0.6039215686274509" stop-color="#fff23c" stop-opacity="0.8"/>
      <stop offset="1.0" stop-color="#fff23c" stop-opacity="0.0"/>
    </linearGradient>
  </defs>
</svg>
