<?xml version="1.0" encoding="UTF-8" standalone="no"?>
<svg xmlns:xlink="http://www.w3.org/1999/xlink" height="126.0px" width="124.7px" xmlns="http://www.w3.org/2000/svg">
  <g transform="matrix(1.0, 0.0, 0.0, 1.0, 62.35, 63.0)">
    <path d="M-44.95 39.4 Q-46.2 41.05 -50.15 40.45 -54.6 39.65 -59.35 33.15 -64.95 25.45 -60.15 19.6 -58.5 18.35 -55.75 18.15 L-55.2 18.75 Q-59.3 7.05 -60.1 -2.05 -60.75 -29.8 -45.55 -45.1 -21.7 -67.4 11.6 -61.95 21.7 -59.5 29.65 -56.15 L29.7 -56.1 Q48.55 -46.75 54.7 -33.6 64.8 -14.4 61.6 11.9 59.5 16.65 60.95 26.85 62.35 37.0 58.4 42.85 40.6 60.85 21.8 63.0 -5.95 61.0 -21.4 55.3 -36.9 49.55 -40.6 45.7 -44.3 41.8 -44.95 39.4" fill="#fff1e0" fill-rule="evenodd" stroke="none"/>
  </g>
</svg>
