<?xml version="1.0" encoding="UTF-8" standalone="no"?>
<svg xmlns:xlink="http://www.w3.org/1999/xlink" height="128.2px" width="126.9px" xmlns="http://www.w3.org/2000/svg">
  <g transform="matrix(1.0, 0.0, 0.0, 1.0, 63.45, 64.1)">
    <path d="M-44.65 38.9 L-44.95 39.4 Q-44.3 41.8 -40.6 45.7 -36.9 49.55 -21.4 55.3 -5.95 61.0 21.8 63.0 40.6 60.85 58.4 42.85 62.35 37.0 60.95 26.85 59.5 16.65 61.6 11.9 64.8 -14.4 54.7 -33.6 48.55 -46.75 29.7 -56.1 L29.65 -56.15 Q21.7 -59.5 11.6 -61.95 -21.7 -67.4 -45.55 -45.1 -60.75 -29.8 -60.1 -2.05 -59.3 7.05 -55.2 18.75 L-54.35 19.25 -53.8 19.6 -51.65 21.7 M-55.2 18.75 L-55.75 18.15 Q-58.5 18.35 -60.15 19.6 -64.95 25.45 -59.35 33.15 -54.6 39.65 -50.15 40.45 -46.2 41.05 -44.95 39.4" fill="none" stroke="#54453c" stroke-linecap="round" stroke-linejoin="round" stroke-width="2.2"/>
    <path d="M-56.85 28.95 Q-59.05 27.3 -57.75 25.0 -56.45 22.7 -54.75 24.6 -52.5 27.2 -50.3 31.25 L-50.1 31.55 -49.85 32.1 -49.75 32.3 -49.6 32.55 Q-50.6 33.95 -51.0 35.2 L-51.15 35.85 M-51.0 35.2 Q-53.3 34.8 -54.5 31.9" fill="none" stroke="#54453c" stroke-linecap="round" stroke-linejoin="round" stroke-width="1.0"/>
  </g>
</svg>
