<?xml version="1.0" encoding="UTF-8" standalone="no"?>
<svg xmlns:xlink="http://www.w3.org/1999/xlink" height="150.05px" width="139.25px" xmlns="http://www.w3.org/2000/svg">
  <g transform="matrix(1.0, 0.0, 0.0, 1.0, 69.65, 75.05)">
    <path d="M-33.9 -75.05 Q-23.25 -75.55 -16.95 -61.7 -9.55 -30.95 27.05 -8.65 43.05 0.1 69.6 1.3 L69.3 6.9 68.9 7.15 67.55 8.1 64.25 10.15 60.0 12.35 57.5 13.55 55.95 14.2 Q52.05 15.55 50.0 15.5 47.5 15.3 48.0 12.95 42.85 15.45 39.4 15.7 L37.9 15.6 Q35.4 15.3 34.0 13.3 30.95 15.25 28.45 15.75 L28.35 15.75 Q25.6 16.2 23.7 14.95 21.0 13.15 19.9 7.9 L17.65 8.95 Q11.0 11.45 8.75 7.15 7.55 4.85 7.65 0.65 L4.7 2.05 Q-0.8 4.1 -3.2 0.2 L-3.8 -0.9 Q-4.55 -2.55 -4.85 -4.85 L-4.85 -5.05 -5.15 -7.6 -5.15 -7.8 -5.2 -8.05 -7.2 -6.85 Q-14.3 -3.05 -16.4 -7.5 L-16.5 -7.8 -17.2 -15.2 -17.1 -15.9 -17.05 -16.25 -20.05 -14.9 Q-23.9 -13.6 -25.9 -15.45 -28.7 -18.1 -27.7 -27.2 L-30.65 -24.8 Q-34.8 -22.3 -36.85 -26.6 -38.55 -30.1 -38.95 -38.15 L-42.3 -35.85 Q-50.2 -31.65 -49.25 -45.3 L-49.7 -44.35 -52.55 -37.5 Q-57.0 -25.3 -58.55 -9.75 -60.65 10.05 -57.95 30.25 -57.75 37.95 -54.9 46.55 -50.1 61.4 -65.75 75.0 L-65.5 74.7 Q-63.65 72.8 -62.9 68.75 L-62.7 67.5 Q-61.0 55.15 -67.3 25.5 -75.0 -17.5 -57.6 -52.2 -52.6 -63.1 -45.5 -69.55 -40.0 -74.7 -33.9 -75.05" fill="#4b916c" fill-rule="evenodd" stroke="none"/>
  </g>
</svg>
