<?xml version="1.0" encoding="UTF-8" standalone="no"?>
<svg xmlns:xlink="http://www.w3.org/1999/xlink" height="45.8px" width="111.15px" xmlns="http://www.w3.org/2000/svg">
  <g transform="matrix(1.0, 0.0, 0.0, 1.0, 55.6, 22.9)">
    <path d="M52.15 -17.4 L55.55 -14.2 52.3 -8.85 Q49.85 -10.1 47.15 -9.9 L52.15 -17.4 M45.7 -7.65 L52.05 -6.6 52.35 -6.5 53.8 -4.9 52.15 -2.3 46.25 -4.1 Q47.4 -2.8 48.2 -0.85 L49.05 2.05 47.3 5.05 46.0 2.3 Q44.3 -1.35 42.55 -3.0 L45.7 -7.65 M29.8 13.05 Q32.55 15.65 34.95 17.4 L37.35 18.9 34.35 22.9 31.85 21.3 Q29.0 19.35 27.3 17.2 L29.8 13.05 M41.3 5.2 L47.0 5.45 44.65 8.95 39.05 8.75 41.3 5.2 M-51.85 -22.9 L-46.55 -15.3 Q-49.45 -15.55 -52.15 -14.4 L-55.6 -19.75 -51.85 -22.9 M-53.85 -10.45 L-52.2 -12.05 -45.0 -13.05 -41.65 -8.35 Q-43.55 -6.7 -45.55 -3.1 L-47.0 -0.4 -48.85 -3.35 -47.8 -6.25 Q-46.95 -8.2 -45.7 -9.55 L-52.1 -7.8 -53.85 -10.45 M-30.6 16.2 L-33.3 17.7 -36.45 13.65 -33.85 12.25 Q-31.2 10.5 -28.15 8.0 L-25.55 12.15 Q-27.4 14.3 -30.6 16.2 M-44.2 3.6 L-46.65 0.0 -40.45 -0.1 -38.05 3.55 -44.2 3.6" fill="#fcfaf9" fill-rule="evenodd" stroke="none"/>
  </g>
</svg>
