<?xml version="1.0" encoding="UTF-8" standalone="no"?>
<svg xmlns:xlink="http://www.w3.org/1999/xlink" height="163.35px" width="197.6px" xmlns="http://www.w3.org/2000/svg">
  <g transform="matrix(1.0, 0.0, 0.0, 1.0, 98.8, 81.7)">
    <path d="M-96.1 -0.1 L-96.95 0.7 -98.8 -1.85 -57.95 -38.3 -94.5 -79.65 -92.55 -81.7 -91.4 -80.4 -55.75 -40.3 -16.0 -75.9 -14.75 -77.05 -12.55 -74.6 -53.65 -37.95 4.6 26.6 1.3 29.35 -55.85 -35.95 -96.1 -0.1" fill="#ffffff" fill-rule="evenodd" stroke="none"/>
    <path d="M-96.1 -0.1 L-55.85 -35.95 1.3 29.35 4.6 26.6 Q4.9 22.95 5.95 21.25 6.8 19.85 7.95 19.95 8.85 19.85 9.6 20.3 10.5 20.85 11.3 21.95 L11.55 23.1 Q13.5 24.0 14.45 26.4 13.75 29.5 7.95 30.25 L4.6 33.1 Q4.7 38.05 1.55 39.5 -0.75 40.35 -3.7 35.7 -7.35 31.3 1.3 29.35 L-96.1 -0.1 M-16.0 -75.9 L-55.75 -40.3 -91.4 -80.4 -16.0 -75.9 M91.65 63.55 L93.75 63.85 94.55 64.15 Q96.35 63.6 98.35 64.6 99.8 66.95 96.55 70.9 L96.1 74.65 Q99.05 77.75 97.85 80.5 96.85 82.4 92.3 81.2 87.4 80.6 91.75 74.25 L91.7 74.0 92.25 70.45 Q90.25 68.0 89.95 66.25 89.65 64.9 90.45 64.3 90.95 63.65 91.65 63.55 M53.05 54.3 Q55.25 54.55 56.9 56.45 57.3 59.6 52.15 62.2 L49.95 66.15 Q51.7 70.8 49.25 73.15 47.4 74.75 43.1 71.35 38.1 68.5 45.55 63.7 L45.7 63.5 47.75 59.95 Q46.75 56.4 47.15 54.45 47.55 52.9 48.6 52.55 L50.2 52.3 Q51.25 52.55 52.35 53.55 L53.05 54.3" fill="#03987a" fill-rule="evenodd" stroke="none"/>
  </g>
</svg>
