<?xml version="1.0" encoding="UTF-8" standalone="no"?>
<svg xmlns:xlink="http://www.w3.org/1999/xlink" height="157.65px" width="176.1px" xmlns="http://www.w3.org/2000/svg">
  <g transform="matrix(1.0, 0.0, 0.0, 1.0, 88.05, 78.85)">
    <path d="M-88.05 -3.95 L-83.65 -78.85 -48.6 -39.25 -88.05 -3.95 M-4.5 -74.45 L13.95 25.65 -44.3 -38.9 -4.5 -74.45 M84.25 71.8 Q86.7 75.3 85.15 77.95 L79.55 77.8 Q74.8 76.5 79.9 70.85 L80.05 70.65 80.95 67.25 Q79.3 64.5 79.15 62.75 79.15 61.3 80.0 60.85 80.55 60.25 81.3 60.2 82.2 60.2 83.3 60.75 L84.15 61.25 Q86.0 60.9 87.8 62.2 88.9 64.75 85.1 68.15 L84.25 71.8 M44.8 44.65 Q44.35 47.8 38.65 49.05 L35.6 52.2 Q36.1 57.15 33.05 58.8 30.85 59.85 27.55 55.45 23.5 51.45 31.9 48.75 L35.05 45.7 Q35.0 42.0 35.9 40.25 36.6 38.75 37.7 38.75 L39.4 38.95 Q40.3 39.45 41.1 40.65 L41.6 41.55 Q43.65 42.35 44.8 44.65" fill="#02fe88" fill-rule="evenodd" stroke="none"/>
  </g>
</svg>
