<?xml version="1.0" encoding="UTF-8" standalone="no"?>
<svg xmlns:xlink="http://www.w3.org/1999/xlink" height="102.55px" width="39.75px" xmlns="http://www.w3.org/2000/svg">
  <g transform="matrix(1.0, 0.0, 0.0, 1.0, 53.1, 8.75)">
    <path d="M-28.65 52.65 L-29.6 52.8 -33.6 52.65 Q-42.7 50.2 -42.7 41.85 L-42.7 16.9 Q-42.7 8.25 -41.85 6.25 -38.75 1.6 -35.25 -1.6 L-30.95 -4.85 Q-24.35 -9.0 -16.6 -8.75 -24.75 -6.55 -29.4 -2.1 -29.85 -2.4 -30.35 -2.5 L-32.15 -2.8 -37.65 2.05 Q-37.85 3.6 -35.85 3.45 L-33.2 2.95 -32.75 2.5 Q-35.0 9.4 -34.25 32.7 -35.4 31.55 -36.6 31.75 -38.0 30.3 -39.45 30.9 L-39.45 42.5 -34.05 44.1 Q-34.3 49.4 -28.65 52.65" fill="#aaaaaa" fill-rule="evenodd" stroke="none"/>
    <path d="M-28.65 52.65 Q-34.3 49.4 -34.05 44.1 L-39.45 42.5 -39.45 30.9 Q-38.0 30.3 -36.6 31.75 -35.4 31.55 -34.25 32.7 -35.0 9.4 -32.75 2.5 L-33.2 2.95 -35.85 3.45 Q-37.85 3.6 -37.65 2.05 L-32.15 -2.8 -30.35 -2.5 Q-29.85 -2.4 -29.4 -2.1 -24.75 -6.55 -16.6 -8.75 L-15.3 -8.65 Q-13.15 10.25 -13.35 27.6 -13.45 43.9 -18.75 48.4 -24.2 51.8 -28.65 52.65" fill="#666666" fill-rule="evenodd" stroke="none"/>
    <path d="M-50.9 21.8 Q-48.3 22.85 -46.0 22.5 L-46.0 34.3 -50.9 33.85 -52.3 33.35 -52.3 21.1 -50.9 21.8" fill="#333333" fill-rule="evenodd" stroke="none"/>
    <path d="M-46.75 60.0 L-48.2 59.6 -50.9 56.2 -50.9 56.1 Q-49.6 57.0 -47.75 57.55 L-40.4 58.25 Q-34.05 58.0 -30.85 55.95 L-32.35 59.6 Q-40.45 61.85 -46.75 60.0 M-20.15 54.4 Q-24.7 56.0 -28.2 55.4 L-29.6 55.0 -29.6 53.2 -28.2 53.5 Q-24.45 54.0 -19.7 52.55 L-20.15 54.4" fill="#d7d7d7" fill-rule="evenodd" stroke="none"/>
    <path d="M-29.85 73.5 Q-27.7 79.35 -30.65 84.7 -31.45 82.1 -33.35 80.65 -32.7 84.25 -35.1 87.1 -37.65 89.6 -39.0 93.8 -48.8 87.85 -48.85 79.6 -50.2 81.3 -50.8 83.3 -55.0 76.9 -51.45 70.45 L-50.75 69.45 Q-49.85 70.05 -48.25 70.5 -49.35 73.05 -49.15 76.4 -47.1 75.9 -45.55 74.45 -45.9 81.05 -41.0 85.7 -36.9 79.3 -36.55 76.4 L-35.25 78.3 Q-32.95 74.7 -33.95 71.1 L-31.35 70.45 -31.15 70.8 -30.3 72.5 -29.85 73.5" fill="url(#gradient0)" fill-rule="evenodd" stroke="none"/>
    <path d="M-48.25 70.5 L-40.2 71.65 -33.95 71.1 Q-32.95 74.7 -35.25 78.3 L-36.55 76.4 Q-36.9 79.3 -41.0 85.7 -45.9 81.05 -45.55 74.45 -47.1 75.9 -49.15 76.4 -49.35 73.05 -48.25 70.5" fill="url(#gradient1)" fill-rule="evenodd" stroke="none"/>
    <path d="M-30.3 72.5 L-30.8 70.2 Q-28.75 69.25 -28.9 67.65 L-29.05 66.85 -29.35 66.1 -28.35 65.35 Q-28.6 70.35 -24.9 73.9 -21.8 69.0 -21.5 66.85 L-20.5 68.25 Q-18.2 64.55 -20.35 60.8 L-19.15 60.4 -17.45 62.5 Q-14.3 68.1 -17.05 73.1 -17.65 71.15 -19.15 70.0 -18.55 72.75 -20.4 74.9 -22.35 76.85 -23.45 80.05 -28.2 77.1 -29.85 73.5 L-30.3 72.5" fill="url(#gradient2)" fill-rule="evenodd" stroke="none"/>
    <path d="M-29.35 66.1 L-30.75 63.2 Q-30.35 61.95 -29.6 60.95 L-23.7 61.35 -20.35 60.8 Q-18.2 64.55 -20.5 68.25 L-21.5 66.85 Q-21.8 69.0 -24.9 73.9 -28.6 70.35 -28.35 65.35 L-29.35 66.1" fill="url(#gradient3)" fill-rule="evenodd" stroke="none"/>
  </g>
  <defs>
    <linearGradient gradientTransform="matrix(-0.0048, -0.0169, 0.0139, -0.0036, -40.4, 79.3)" gradientUnits="userSpaceOnUse" id="gradient0" spreadMethod="pad" x1="-819.2" x2="819.2">
      <stop offset="0.0" stop-color="#fbd21e"/>
      <stop offset="1.0" stop-color="#f8a430"/>
    </linearGradient>
    <linearGradient gradientTransform="matrix(0.0, -0.0125, 0.0095, 0.0, -41.4, 75.4)" gradientUnits="userSpaceOnUse" id="gradient1" spreadMethod="pad" x1="-819.2" x2="819.2">
      <stop offset="0.0" stop-color="#fff153"/>
      <stop offset="1.0" stop-color="#fdd92b"/>
    </linearGradient>
    <linearGradient gradientTransform="matrix(-0.0036, -0.0128, 0.0106, -0.0027, -24.4, 69.0)" gradientUnits="userSpaceOnUse" id="gradient2" spreadMethod="pad" x1="-819.2" x2="819.2">
      <stop offset="0.0" stop-color="#fbd21e"/>
      <stop offset="1.0" stop-color="#f8a430"/>
    </linearGradient>
    <linearGradient gradientTransform="matrix(0.0, -0.0095, 0.0072, 0.0, -25.2, 66.05)" gradientUnits="userSpaceOnUse" id="gradient3" spreadMethod="pad" x1="-819.2" x2="819.2">
      <stop offset="0.0" stop-color="#fff153"/>
      <stop offset="1.0" stop-color="#fdd92b"/>
    </linearGradient>
  </defs>
</svg>
