<?xml version="1.0" encoding="UTF-8" standalone="no"?>
<svg xmlns:xlink="http://www.w3.org/1999/xlink" height="30.9px" width="57.8px" xmlns="http://www.w3.org/2000/svg">
  <g transform="matrix(1.0, 0.0, 0.0, 1.0, 28.9, 15.45)">
    <path d="M6.0 -1.6 L17.95 -10.45 Q23.3 -14.45 25.1 -14.45 26.15 -12.3 26.25 -7.4 26.3 -2.5 25.35 -0.2 24.85 1.0 25.25 1.5 29.35 9.4 27.1 12.5 19.7 15.45 6.3 8.65 4.05 9.65 1.8 8.35 -15.85 14.1 -21.9 14.4 -27.95 14.65 -27.75 12.8 -28.35 7.75 -26.55 2.5 -26.35 1.4 -27.4 -3.6 -28.65 -9.05 -26.45 -12.65 L-26.45 -12.75 Q-25.05 -13.1 -21.5 -11.7 -16.75 -9.8 -11.9 -6.9 -1.5 -3.85 1.6 -1.35 L6.0 -1.6 6.25 -1.35 6.4 -1.15 Q7.6 0.55 7.4 3.7 L7.4 3.85 Q7.2 7.05 6.6 8.5 L6.3 8.65 M1.8 8.35 Q1.2 6.3 1.2 3.5 1.2 1.3 1.6 -1.35" fill="none" stroke="#000000" stroke-linecap="round" stroke-linejoin="round" stroke-width="2.0"/>
    <path d="M6.4 -1.15 Q20.5 -6.45 25.1 -14.45 M7.4 3.85 Q12.4 4.7 15.55 2.0 M1.2 3.5 Q-4.35 4.25 -9.95 2.55 M1.6 -1.35 Q-5.9 -1.7 -17.1 -7.2 -26.35 -10.75 -26.45 -12.65" fill="none" stroke="#000000" stroke-linecap="round" stroke-linejoin="round" stroke-width="1.3"/>
  </g>
</svg>
