<?xml version="1.0" encoding="UTF-8" standalone="no"?>
<svg xmlns:xlink="http://www.w3.org/1999/xlink" height="132.6px" width="179.6px" xmlns="http://www.w3.org/2000/svg">
  <g transform="matrix(1.0, 0.0, 0.0, 1.0, 89.8, 66.3)">
    <path d="M83.05 -47.15 Q83.7 -50.35 82.75 -52.95 79.85 -52.35 77.5 -49.5 75.5 -51.1 72.3 -50.75 72.2 -47.5 73.2 -46.05 71.6 -43.6 71.8 -41.35 L77.1 -40.8 Q78.15 -38.7 79.55 -37.3 81.6 -38.6 82.65 -41.45 86.65 -42.85 86.8 -43.7 85.5 -45.7 83.05 -47.15 M48.0 -1.85 L50.95 -7.25 54.5 -1.05 59.5 1.4 55.85 5.65 54.8 10.8 49.95 7.6 45.05 9.2 45.25 3.85 42.8 -0.95 48.0 -1.85 M75.15 -20.9 Q73.5 -20.7 71.7 -17.65 67.95 -17.55 67.25 -16.75 67.65 -14.6 69.75 -12.8 67.75 -9.35 68.5 -8.6 70.8 -8.05 72.95 -9.9 75.7 -6.9 77.65 -7.0 78.45 -8.65 77.5 -11.7 80.45 -12.5 80.4 -13.7 79.6 -14.9 76.7 -15.9 76.2 -19.8 75.15 -20.9 M79.2 11.95 Q78.15 10.8 79.2 8.75 81.1 8.45 83.35 9.65 84.45 8.7 87.2 8.35 87.95 10.8 87.0 13.2 88.8 14.6 88.8 15.95 86.65 17.5 84.9 16.9 84.6 18.7 83.35 19.3 81.45 18.0 81.2 15.35 L77.45 15.15 Q78.1 13.2 79.2 11.95 M49.5 31.8 Q48.85 29.65 50.3 27.7 52.4 27.5 54.15 29.4 57.3 27.65 59.15 28.75 59.2 31.1 58.15 32.3 59.3 34.45 59.25 36.45 L55.1 36.25 Q53.7 38.75 51.35 39.35 50.0 37.9 50.2 36.15 47.25 36.05 46.35 34.45 47.55 32.95 49.5 31.8 M74.65 42.05 Q76.4 42.3 78.2 45.5 81.45 45.2 82.6 46.0 82.1 48.7 80.95 50.05 81.85 53.15 81.4 54.55 78.5 54.9 76.7 53.25 73.65 55.85 72.65 55.8 71.75 54.55 72.2 51.1 70.0 50.55 69.2 49.1 70.4 47.9 73.3 46.95 74.05 42.2 74.65 42.05 M-76.6 -60.05 Q-74.95 -65.15 -73.4 -65.3 -71.35 -64.0 -69.85 -59.8 -66.1 -58.65 -64.85 -57.2 -65.05 -54.75 -68.5 -52.65 -67.7 -49.25 -69.4 -46.9 -72.15 -46.6 -73.9 -50.2 -77.6 -48.0 -79.5 -48.45 -80.75 -49.9 -79.0 -53.75 -81.35 -56.3 -81.1 -58.5 -79.6 -59.85 -76.6 -60.05 M-75.2 -4.55 Q-75.55 -7.05 -75.2 -9.0 -73.25 -9.4 -70.45 -7.4 -67.7 -8.45 -66.15 -7.85 -65.2 -6.55 -66.55 -3.3 -64.8 -1.65 -65.0 0.4 -67.75 1.15 -69.85 0.35 -72.25 4.4 -74.15 3.25 -75.25 2.3 -75.15 -0.2 -77.8 -0.05 -78.8 -1.65 -78.0 -3.9 -75.2 -4.55 M-41.75 -15.35 Q-42.35 -18.55 -41.45 -21.15 -38.6 -20.55 -36.3 -17.7 -34.3 -19.3 -31.2 -18.95 -31.1 -15.7 -32.05 -14.25 -30.5 -11.8 -30.7 -9.55 L-35.9 -9.0 Q-36.9 -6.9 -38.3 -5.5 -40.3 -6.8 -41.35 -9.65 -45.25 -11.05 -45.4 -11.9 -44.15 -13.9 -41.75 -15.35 M-58.2 22.05 Q-59.15 20.6 -59.0 19.15 -57.1 18.55 -54.85 19.15 -53.65 18.4 -51.15 17.75 -50.7 19.35 -51.15 21.0 L-48.4 22.85 Q-49.3 24.65 -52.55 25.4 -54.35 28.25 -55.3 28.9 -56.65 27.75 -57.1 25.85 L-60.15 25.65 Q-59.7 23.85 -58.2 22.05 M-83.65 29.65 Q-82.05 29.85 -80.3 32.9 -76.6 33.0 -75.9 33.8 -76.3 35.95 -78.35 37.75 -76.4 41.2 -77.15 41.95 -79.4 42.5 -81.5 40.65 -84.2 43.65 -86.1 43.55 -86.9 41.9 -86.0 38.85 -88.85 38.05 -88.8 36.85 -88.05 35.65 -85.2 34.65 -84.7 30.75 -83.65 29.65 M-56.7 56.5 L-59.0 52.75 -61.75 57.05 -65.6 58.75 -62.8 61.7 -61.95 65.3 -58.2 63.05 -54.4 64.2 -54.55 60.45 -52.65 57.1 -56.7 56.5" fill="none" stroke="#000000" stroke-linecap="round" stroke-linejoin="round" stroke-width="2.0"/>
  </g>
</svg>
