<?xml version="1.0" encoding="UTF-8" standalone="no"?>
<svg xmlns:xlink="http://www.w3.org/1999/xlink" height="15.25px" width="49.1px" xmlns="http://www.w3.org/2000/svg">
  <g transform="matrix(1.0, 0.0, 0.0, 1.0, 24.55, 7.65)">
    <path d="M21.65 0.3 Q25.25 2.35 24.4 4.1 20.45 6.35 17.3 4.65 14.15 8.45 8.4 5.95 3.75 9.15 -0.8 6.05 -6.25 9.0 -9.6 5.65 -16.2 8.2 -17.6 4.7 -23.05 7.3 -24.55 4.05 -24.5 2.45 -21.6 0.75 -14.25 3.2 0.7 3.2 15.75 3.25 21.65 0.3 M18.45 -7.6 L20.6 -2.9 Q19.3 -0.95 16.65 -1.55 14.2 -1.65 13.95 -3.25 13.7 -4.85 15.55 -6.0 15.7 -7.95 18.45 -7.6 M-20.25 -2.35 L-17.3 -6.9 Q-14.4 -8.35 -13.4 -5.75 -10.6 -5.05 -11.25 -2.7 -12.0 -0.35 -14.9 -1.4 -18.5 -0.05 -20.25 -2.35" fill="#f5f5f5" fill-rule="evenodd" stroke="none"/>
  </g>
</svg>
