<?xml version="1.0" encoding="UTF-8" standalone="no"?>
<svg xmlns:xlink="http://www.w3.org/1999/xlink" height="27.15px" width="50.05px" xmlns="http://www.w3.org/2000/svg">
  <g transform="matrix(1.0, 0.0, 0.0, 1.0, 25.0, 13.6)">
    <path d="M15.35 -12.7 L15.5 -13.6 17.35 -13.6 17.35 -13.2 Q17.3 -9.35 19.05 -4.8 20.85 -1.3 23.45 -2.15 24.25 -0.05 23.45 0.6 19.25 1.6 16.45 -3.7 14.7 -8.15 15.35 -12.7 M6.95 5.05 L7.95 5.0 8.55 5.0 Q17.95 4.75 24.3 1.15 25.25 3.5 25.0 6.6 L24.6 9.15 Q22.9 10.2 18.25 11.3 13.65 12.55 8.65 13.1 L6.0 13.35 Q-0.1 13.8 -6.75 13.2 -19.3 12.0 -24.8 8.5 L-25.0 6.2 Q-25.05 3.25 -23.9 0.75 -12.9 5.25 6.05 5.05 L6.95 5.05 Q2.6 2.7 0.1 0.15 1.3 -1.9 3.8 -2.9 L5.25 0.15 Q6.3 2.6 6.95 5.05 M-4.2 -11.85 L-4.25 -13.6 -1.55 -13.15 -1.6 -11.8 Q-1.95 -6.25 -4.15 -3.6 -7.0 0.8 -14.1 0.5 L-14.1 -1.9 Q-9.6 -1.7 -6.7 -4.9 -4.3 -8.6 -4.2 -11.85" fill="#7a5d54" fill-rule="evenodd" stroke="none"/>
  </g>
</svg>
