<?xml version="1.0" encoding="UTF-8" standalone="no"?>
<svg xmlns:xlink="http://www.w3.org/1999/xlink" height="27.9px" width="22.55px" xmlns="http://www.w3.org/2000/svg">
  <g transform="matrix(1.0, 0.0, 0.0, 1.0, 11.25, 13.95)">
    <path d="M11.3 -10.35 L11.1 -9.7 9.5 -5.15 Q-0.9 -6.65 -2.8 -9.35 L-0.9 -13.95 Q3.1 -10.6 11.3 -10.35 M6.1 8.3 L6.15 8.7 6.4 10.05 1.45 12.6 1.25 13.95 Q-8.65 13.25 -11.25 9.5 -10.8 7.65 -9.6 5.4 L-9.25 4.75 Q-7.75 6.45 -2.95 7.85 1.8 9.2 6.1 8.3 M8.15 -0.85 L6.85 3.65 Q-3.35 3.7 -6.6 -0.15 L-4.5 -5.1 Q-2.65 -1.65 8.15 -0.85" fill="#434343" fill-rule="evenodd" stroke="none"/>
  </g>
</svg>
