<?xml version="1.0" encoding="UTF-8" standalone="no"?>
<svg xmlns:xlink="http://www.w3.org/1999/xlink" height="10.0px" width="26.35px" xmlns="http://www.w3.org/2000/svg">
  <g transform="matrix(1.0, 0.0, 0.0, 1.0, 13.15, 5.0)">
    <path d="M1.55 -2.9 L1.2 -2.55 Q0.5 -1.45 0.5 -0.05 L0.55 0.5 Q0.75 2.3 1.9 3.55 L2.35 4.0 2.25 4.15 Q1.4 5.1 0.6 5.0 -0.2 4.85 -1.0 3.65 L-1.15 3.8 Q-2.45 4.6 -3.4 4.5 -4.35 4.45 -5.05 3.6 L-5.25 3.65 -6.5 3.85 Q-7.75 3.8 -8.4 2.75 L-8.55 2.8 -10.15 3.1 Q-11.9 3.0 -11.75 0.75 L-11.75 0.45 -12.5 -0.1 Q-13.55 -1.15 -12.9 -2.75 -12.0 -3.5 -11.25 -3.4 L-10.7 -3.2 -10.7 -3.3 Q-10.7 -4.3 -9.45 -4.85 L-8.45 -5.0 Q-7.45 -4.9 -6.9 -3.45 L-6.7 -3.7 Q-6.15 -4.55 -5.1 -4.5 -4.2 -4.45 -2.95 -3.65 L-2.75 -3.7 -0.65 -4.1 Q0.85 -4.05 1.55 -2.9 M6.35 -2.55 Q6.85 -4.0 7.7 -3.85 L8.65 -3.25 8.8 -3.35 Q9.7 -4.4 10.5 -4.3 L11.6 -3.6 Q12.9 -2.0 12.25 -1.1 13.3 -0.65 13.2 0.3 L12.55 1.65 Q13.5 4.2 11.3 4.15 L10.4 4.05 10.35 4.1 Q9.65 4.8 8.7 4.75 7.75 4.7 6.65 3.85 L6.85 3.55 Q7.75 2.3 7.55 0.5 L7.45 -0.05 Q7.15 -1.35 6.3 -2.4 L6.35 -2.55" fill="#d4c6ca" fill-rule="evenodd" stroke="none"/>
  </g>
</svg>
