<?xml version="1.0" encoding="UTF-8" standalone="no"?>
<svg xmlns:xlink="http://www.w3.org/1999/xlink" height="30.25px" width="25.5px" xmlns="http://www.w3.org/2000/svg">
  <g transform="matrix(1.0, 0.0, 0.0, 1.0, 12.75, 15.1)">
    <path d="M0.1 -10.2 Q2.95 -11.55 3.95 -13.45 L6.7 -11.0 Q6.5 -9.4 4.0 -8.35 L5.3 -5.95 11.85 7.3 Q12.8 15.05 9.6 13.1 L9.15 12.8 Q5.55 10.65 2.65 13.0 -2.8 16.25 -4.15 12.1 L-4.8 11.05 Q-6.45 8.95 -9.7 9.65 L-6.9 5.25 -5.4 1.8 Q-4.35 -1.2 -3.95 -4.35 L-3.9 -4.45 -3.8 -5.65 -3.6 -7.05 -3.35 -7.7 Q-9.9 -8.9 -12.05 -11.7 L-10.15 -14.4 Q-6.35 -11.65 0.05 -10.2 L0.1 -10.2 Q1.3 -10.2 2.25 -9.7 3.25 -9.25 4.0 -8.35 M-3.35 -7.7 L-2.9 -8.45 -1.5 -9.75 -0.8 -10.2 0.05 -10.2" fill="none" stroke="#000000" stroke-linecap="round" stroke-linejoin="round" stroke-width="1.4000000000000001"/>
    <path d="M1.45 -0.4 L1.15 -6.65 Q4.55 -0.7 3.55 11.05 M-4.8 11.05 Q-1.9 5.95 -1.8 0.2" fill="none" stroke="#000000" stroke-linecap="round" stroke-linejoin="round" stroke-width="1.1"/>
  </g>
</svg>
