<?xml version="1.0" encoding="UTF-8" standalone="no"?>
<svg xmlns:xlink="http://www.w3.org/1999/xlink" height="25.4px" width="27.6px" xmlns="http://www.w3.org/2000/svg">
  <g transform="matrix(1.0, 0.0, 0.0, 1.0, 13.9, 12.8)">
    <path d="M5.0 -1.65 L4.8 -3.0 Q4.0 -4.85 1.9 -5.5 0.05 -4.3 0.75 -2.4 1.05 -1.6 1.85 -0.85 L2.6 -0.2 2.95 -0.05 3.5 0.3 4.1 0.65 4.3 0.5 4.65 0.3 4.8 -0.3 5.0 -1.65 Q13.5 5.3 13.15 10.95 10.5 10.9 8.15 9.3 6.6 8.2 5.4 4.55 L4.9 3.0 4.3 0.5 M1.85 -0.85 Q-2.15 4.25 -1.6 6.45 -1.2 9.95 2.25 12.05 5.1 11.05 3.5 0.3 M4.65 0.3 Q8.45 8.55 9.9 7.5 11.05 5.3 4.8 -0.3 M2.6 -0.2 Q-0.7 5.35 1.15 8.4 3.5 7.4 2.95 -0.05" fill="none" stroke="#000000" stroke-linecap="round" stroke-linejoin="round" stroke-width="1.1"/>
    <path d="M3.8 -12.05 Q7.45 -11.15 9.85 -8.1 8.55 -4.1 6.25 -2.1 6.1 -5.15 2.15 -5.95 4.35 -7.9 3.8 -12.05 M-8.05 -12.05 Q-5.0 -8.45 1.6 -5.95 -1.45 -4.7 -0.25 -1.4 -9.3 -4.25 -13.15 -9.15 -12.05 -11.55 -8.05 -12.05" fill="none" stroke="#000000" stroke-linecap="round" stroke-linejoin="round" stroke-width="1.5"/>
  </g>
</svg>
