<?xml version="1.0" encoding="UTF-8" standalone="no"?>
<svg xmlns:xlink="http://www.w3.org/1999/xlink" height="55.7px" width="38.3px" xmlns="http://www.w3.org/2000/svg">
  <g transform="matrix(1.0, 0.0, 0.0, 1.0, 0.75, 0.75)">
    <path d="M30.15 13.9 Q26.75 12.8 23.5 12.4 L22.65 12.2 14.8 11.0 Q7.6 9.95 0.0 2.8 1.9 0.9 5.6 0.0 14.25 6.75 28.7 10.5 29.35 5.25 27.5 0.1 31.25 0.9 32.4 5.4 32.75 6.85 32.2 12.0 34.9 12.55 34.7 15.6 34.65 16.8 34.0 17.35 L35.1 18.75 36.25 21.3 Q37.3 25.05 36.4 30.9 34.85 40.45 34.8 54.2 33.05 50.65 31.85 47.2 27.4 34.15 30.55 21.3 L31.55 17.7 31.3 17.65 Q29.1 17.05 30.15 13.9 L32.05 14.55 Q32.05 13.2 32.2 12.0 M31.55 17.7 Q33.2 18.05 34.0 17.35" fill="none" stroke="#000000" stroke-linecap="round" stroke-linejoin="round" stroke-width="1.5"/>
  </g>
</svg>
