<?xml version="1.0" encoding="UTF-8" standalone="no"?>
<svg xmlns:xlink="http://www.w3.org/1999/xlink" height="119.5px" width="135.85px" xmlns="http://www.w3.org/2000/svg">
  <g transform="matrix(1.0, 0.0, 0.0, 1.0, 1.0, 1.0)">
    <path d="M84.3 5.5 Q84.35 6.3 83.7 7.3 91.45 1.75 96.25 8.35 135.05 66.0 133.8 103.95 L129.65 117.5 Q129.1 108.55 127.85 100.05 119.8 46.65 83.7 7.3 81.7 10.35 73.3 14.8 62.1 20.7 47.2 36.7 L32.3 52.65 Q14.85 71.45 9.85 89.8 6.05 103.8 9.55 117.5 0.0 99.9 0.0 82.75 0.0 41.25 55.7 2.3 60.5 -0.7 68.15 0.2 L79.95 1.65 Q84.15 2.05 84.3 5.5" fill="none" stroke="#000000" stroke-linecap="round" stroke-linejoin="round" stroke-width="2.0"/>
    <path d="M78.4 4.0 Q78.95 4.0 79.25 4.3 L79.6 5.1 79.25 5.9 78.4 6.25 Q77.9 6.25 77.55 5.9 77.2 5.6 77.2 5.1 77.2 4.6 77.55 4.3 77.9 4.0 78.4 4.0 M78.4 7.5 Q78.95 7.5 79.25 7.8 79.6 8.15 79.6 8.65 L79.25 9.45 78.4 9.85 Q77.9 9.8 77.55 9.45 77.2 9.15 77.2 8.65 77.2 8.15 77.55 7.8 77.9 7.5 78.4 7.5" fill="none" stroke="#000000" stroke-linecap="round" stroke-linejoin="round" stroke-width="1.0"/>
  </g>
</svg>
