<?xml version="1.0" encoding="UTF-8" standalone="no"?>
<svg xmlns:xlink="http://www.w3.org/1999/xlink" height="34.35px" width="115.6px" xmlns="http://www.w3.org/2000/svg">
  <g transform="matrix(1.0, 0.0, 0.0, 1.0, 57.8, 17.15)">
    <path d="M46.7 -14.65 Q54.15 -12.2 57.8 -9.25 45.2 -9.7 41.05 -4.75 L42.45 -3.55 Q54.0 0.7 31.0 7.6 L30.55 8.0 30.15 8.1 Q27.05 10.6 23.4 8.5 L20.95 3.5 Q12.6 3.0 5.95 6.65 L7.45 12.4 Q-10.5 22.1 -23.1 12.15 L-27.6 7.65 -25.55 4.7 -29.35 1.05 Q-33.15 -1.25 -36.25 -2.4 L-43.75 0.55 Q-55.2 -1.7 -57.8 -12.4 -52.45 -15.15 -46.7 -17.15 -43.5 -10.55 -38.55 -10.7 L-35.9 -12.2 Q-23.35 -11.0 -15.9 -1.15 L-17.2 3.15 Q-11.3 8.7 -3.6 4.85 L-3.45 1.0 Q9.3 -8.4 23.85 -4.25 L25.5 -1.95 Q33.7 -0.15 38.4 -6.9 L34.5 -9.65 Q35.0 -14.25 46.7 -14.65" fill="#c94fa6" fill-rule="evenodd" stroke="none"/>
  </g>
</svg>
