<?xml version="1.0" encoding="UTF-8" standalone="no"?>
<svg xmlns:xlink="http://www.w3.org/1999/xlink" height="33.25px" width="64.45px" xmlns="http://www.w3.org/2000/svg">
  <g transform="matrix(1.0, 0.0, 0.0, 1.0, 32.25, 16.6)">
    <path d="M23.2 12.35 L23.7 13.65 21.15 12.15 23.2 12.35 M7.8 14.25 L7.9 14.8 7.9 14.85 8.05 15.85 8.0 15.85 5.3 13.8 7.8 14.25 M-6.5 14.6 L-7.4 15.8 -7.6 15.8 -9.85 13.05 Q-8.45 14.15 -6.5 14.6 M-21.2 11.35 L-21.15 13.65 Q-23.0 11.6 -22.75 10.45 L-21.2 11.35 M7.9 14.8 L7.85 14.8 7.9 14.85 7.85 14.8 7.9 14.8" fill="#3f3f3f" fill-rule="evenodd" stroke="none"/>
    <path d="M-21.15 13.65 Q-28.9 11.3 -31.5 8.65 -29.4 3.3 -26.6 -1.5 -23.3 -7.25 -19.15 -11.85 L-19.2 -11.9 Q-19.0 -13.65 -17.75 -14.9 -14.25 -11.5 4.55 -11.75 18.55 -12.65 19.5 -15.85 20.75 -14.6 21.05 -12.8 L21.05 -12.75 Q24.85 -7.95 28.25 -0.45 30.3 4.05 31.45 8.7 L27.4 11.1 Q25.15 12.35 23.2 12.35 L23.7 13.65 14.15 15.05 13.8 15.1 13.25 15.15 Q10.2 14.95 7.8 14.2 L7.8 14.25 7.9 14.8 7.9 14.85 8.05 15.85 8.0 15.85 1.85 15.9 -0.4 15.85 -6.5 14.6 -7.4 15.8 -7.6 15.8 Q-15.05 14.75 -21.2 11.35 L-21.15 13.65 Q-23.0 11.6 -22.75 10.45 L-15.95 -5.3 M-19.15 -11.85 Q-15.95 -8.6 4.5 -8.55 19.55 -9.4 21.05 -12.75 M-6.5 14.6 Q-8.45 14.15 -9.85 13.05 L-7.6 15.8 M-5.2 -5.3 L-9.9 12.95 -9.85 13.05 M-21.2 11.35 L-22.75 10.45 M23.2 12.35 L21.15 12.15 23.7 13.65 M16.9 -7.3 L21.05 12.1 21.15 12.15 M7.9 14.85 L7.85 14.8 7.9 14.8 M7.8 14.25 L5.3 13.8 8.0 15.85 M7.1 -6.05 L5.3 13.8" fill="none" stroke="#000000" stroke-linecap="round" stroke-linejoin="round" stroke-width="1.5"/>
  </g>
</svg>
