<?xml version="1.0" encoding="UTF-8" standalone="no"?>
<svg xmlns:xlink="http://www.w3.org/1999/xlink" height="67.3px" width="63.05px" xmlns="http://www.w3.org/2000/svg">
  <g transform="matrix(1.0, 0.0, 0.0, 1.0, 31.55, 33.65)">
    <path d="M5.45 -33.35 Q4.75 -34.3 8.05 -31.7 17.05 -19.45 20.1 2.9 L19.1 3.05 Q18.3 3.3 17.95 4.0 L16.05 3.95 Q15.7 4.1 15.45 4.35 12.8 -15.85 5.45 -33.35 M-31.5 27.55 Q-27.2 17.35 -19.05 6.0 L-10.45 7.65 -10.5 8.0 Q-10.5 9.15 -9.65 9.85 -8.75 10.65 -7.65 10.65 -6.6 10.65 -5.7 10.0 -5.0 10.6 -4.05 10.6 -3.0 10.6 -2.2 9.85 -1.6 9.25 -1.45 8.4 6.9 8.65 14.4 7.0 L14.5 7.3 Q14.8 8.3 15.9 8.8 L17.8 8.9 Q18.7 8.65 19.25 7.6 L20.85 7.75 21.9 7.05 31.5 21.6 Q26.5 32.0 7.15 33.4 -22.25 34.9 -31.55 27.6 L-31.5 27.55 M-13.35 -31.35 Q-12.85 -33.65 -10.05 -33.65 -1.05 -20.15 -2.3 6.15 -3.1 5.5 -4.05 5.5 -5.0 5.5 -5.65 6.1 -6.55 5.35 -7.65 5.35 L-8.2 5.4 Q-6.4 -15.25 -13.35 -31.35" fill="#647dd1" fill-rule="evenodd" stroke="none"/>
  </g>
</svg>
