<?xml version="1.0" encoding="UTF-8" standalone="no"?>
<svg xmlns:xlink="http://www.w3.org/1999/xlink" height="36.15px" width="75.1px" xmlns="http://www.w3.org/2000/svg">
  <g transform="matrix(1.0, 0.0, 0.0, 1.0, 37.55, 18.1)">
    <path d="M18.2 -18.1 Q29.1 -7.6 37.55 5.6 28.85 15.8 15.1 17.25 -1.7 19.15 -15.9 16.6 -15.75 13.1 -16.0 9.5 -16.45 3.35 -16.35 -2.45 -18.3 1.95 -19.95 8.5 L-21.3 13.9 -21.6 14.85 Q-31.2 11.2 -37.55 5.7 -32.1 -5.55 -18.9 -18.05 -12.95 -14.15 -1.8 -13.8 -0.85 -0.1 -1.15 5.95 3.2 12.1 11.4 16.25 17.15 12.05 19.4 4.75 L14.25 -15.45 Q17.8 -16.55 18.2 -18.1" fill="#282a2e" fill-rule="evenodd" stroke="none"/>
  </g>
</svg>
