<?xml version="1.0" encoding="UTF-8" standalone="no"?>
<svg xmlns:xlink="http://www.w3.org/1999/xlink" height="60.35px" width="70.15px" xmlns="http://www.w3.org/2000/svg">
  <g transform="matrix(1.0, 0.0, 0.0, 1.0, 35.1, 30.15)">
    <path d="M8.55 -21.2 L9.05 -14.85 9.3 -10.9 9.45 -8.6 9.5 -7.35 8.5 -10.5 7.9 -7.8 7.85 -11.7 7.85 -13.1 7.85 -14.1 7.85 -14.4 7.85 -16.85 7.95 -21.15 8.55 -21.2 M-19.7 -19.85 L-18.0 -22.95 -17.85 -22.95 -19.7 -19.85 M7.85 -13.1 L8.5 -10.5 9.05 -14.85 7.85 -16.85 9.05 -14.85 8.5 -10.5 7.85 -13.1" fill="#484848" fill-rule="evenodd" stroke="none"/>
    <path d="M8.55 -21.2 L7.95 -21.15 8.0 -22.05 Q8.05 -21.2 8.5 -21.25 L8.55 -21.2" fill="#ffffff" fill-rule="evenodd" stroke="none"/>
    <path d="M-0.7 -26.9 L-2.1 -25.4 -0.6 -25.35 6.25 -25.25 6.8 -25.25 Q7.5 -25.8 8.45 -25.8 L9.95 -25.35 11.5 -25.4 12.95 -25.5 11.4 -26.75 M5.65 -23.0 L5.7 -23.45 Q5.9 -24.35 6.6 -25.1 L6.8 -25.25 M9.95 -25.35 L10.2 -25.1 Q10.95 -24.35 10.95 -23.35 L10.95 -23.3 10.85 -22.5 10.2 -21.6 9.65 -21.2 8.65 -21.2 8.55 -21.2 9.05 -14.85 9.3 -10.9 9.45 -8.6 9.5 -7.35 8.5 -10.5 7.9 -7.8 7.95 -6.2 Q7.7 -5.55 7.25 -5.25 5.55 0.8 2.3 7.65 -2.35 17.5 -3.85 29.45 -22.35 29.45 -34.35 20.2 -29.15 8.25 -25.95 -3.55 -23.55 -12.35 -19.9 -19.55 L-19.7 -19.85 -18.0 -22.95 M15.75 -23.8 L15.35 -24.0 15.25 -24.05 12.95 -25.5 M15.75 -23.8 Q16.15 -23.55 16.65 -23.35 L19.55 -22.25 Q20.9 -21.8 22.35 -21.5 M9.5 -7.35 L9.5 -6.05 9.55 -6.0 9.9 -5.95 10.8 -6.0 11.0 -6.1 11.65 -6.8 11.85 -8.9 11.9 -13.4 11.8 -15.05 11.8 -15.1 11.7 -16.25 11.35 -19.9 11.2 -21.25 11.05 -22.55 10.95 -23.3 M-17.85 -22.95 L-17.2 -24.1 Q-17.15 -25.95 -14.9 -27.95 M19.55 -22.25 Q16.75 -21.5 11.2 -21.25 M8.0 -22.05 L8.0 -22.1 M-2.1 -25.4 L-2.25 -25.25 -6.4 -22.35 -8.0 -21.65 -7.95 -21.65 -6.0 -21.45 4.4 -21.15 5.25 -21.15 5.5 -22.25 5.65 -23.0 M8.55 -21.2 L7.95 -21.15 7.85 -16.85 9.05 -14.85 8.5 -10.5 7.85 -13.1 7.85 -11.7 7.9 -7.8 M8.55 -21.2 L8.5 -21.25 Q8.05 -21.2 8.0 -22.05 L7.95 -21.15 M-2.8 0.8 Q2.45 -5.65 4.8 -12.3 L4.75 -13.65 4.85 -17.55 5.25 -21.15 M7.85 -16.85 L7.85 -14.4 7.85 -14.1 7.85 -13.1 M7.25 -5.25 L5.4 -5.4 4.9 -10.65 4.8 -12.3 M20.35 -29.4 Q22.8 -26.15 22.6 -24.3 23.55 -23.2 24.45 -19.05 L24.45 -18.95 Q27.2 -10.05 30.1 7.7 L34.3 20.95 Q29.3 28.4 17.05 28.65 17.7 19.3 9.9 -5.95 M11.8 -15.05 Q14.75 -9.15 21.1 -3.25 M-19.7 -19.85 L-17.85 -22.95 M-8.0 -21.65 Q-9.85 -20.95 -11.85 -20.55 -15.85 -19.55 -17.45 -19.95" fill="none" stroke="#000000" stroke-linecap="round" stroke-linejoin="round" stroke-width="1.5"/>
    <path d="M10.95 -23.3 L15.75 -23.8 M8.0 -22.1 L8.0 -22.45 7.75 -23.1 Q7.3 -23.65 5.7 -23.45 M5.65 -23.0 Q1.55 -22.95 -2.85 -23.2" fill="none" stroke="#000000" stroke-linecap="round" stroke-linejoin="round" stroke-opacity="0.64705884" stroke-width="1.0"/>
    <path d="M32.0 19.0 Q29.15 22.7 21.1 24.5 M-31.15 18.1 Q-24.75 24.75 -6.25 25.85" fill="none" stroke="#000000" stroke-linecap="round" stroke-linejoin="round" stroke-width="1.2000000000000002"/>
    <path d="M-18.0 -22.95 L-17.85 -22.95" fill="none" stroke="#000000" stroke-linecap="round" stroke-linejoin="round" stroke-width="1.0"/>
  </g>
</svg>
