<?xml version="1.0" encoding="UTF-8" standalone="no"?>
<svg xmlns:xlink="http://www.w3.org/1999/xlink" height="46.15px" width="54.15px" xmlns="http://www.w3.org/2000/svg">
  <g transform="matrix(1.0, 0.0, 0.0, 1.0, 27.05, 23.05)">
    <path d="M17.2 -18.15 Q21.7 -17.85 23.1 -13.2 24.45 -8.75 19.7 -7.05 25.3 -7.75 26.3 -4.25 27.25 -0.8 27.1 0.25 26.45 2.8 22.55 3.15 27.1 6.55 25.85 10.5 24.6 14.45 22.25 13.65 19.75 12.85 16.7 7.25 L16.3 7.85 Q23.75 15.55 18.75 18.55 13.7 21.45 11.2 14.7 11.8 16.7 11.8 18.55 11.8 19.7 11.1 20.65 10.2 21.8 7.65 22.65 2.85 24.25 1.9 16.1 L1.85 16.05 1.8 16.1 Q1.5 21.6 -1.9 23.1 -10.05 23.2 -5.8 15.2 -8.8 20.1 -11.4 19.5 L-13.15 18.45 Q-16.45 15.1 -14.6 12.0 -18.45 14.95 -21.55 10.75 -24.0 6.05 -18.0 3.95 -23.3 5.3 -24.55 2.85 L-25.55 0.6 Q-26.75 -4.4 -19.15 -4.45 -27.0 -4.85 -27.05 -8.4 -27.3 -14.5 -23.05 -16.0 -25.5 -16.65 -26.25 -17.55 L-25.6 -19.4 Q-25.1 -21.05 -23.45 -22.8 -22.55 -21.55 -12.9 -20.45 -3.3 -19.4 5.5 -20.6 14.25 -21.8 15.05 -23.05 L17.05 -20.35 Q17.85 -18.85 17.2 -18.15" fill="#ffffff" fill-rule="evenodd" stroke="none"/>
  </g>
</svg>
