<?xml version="1.0" encoding="UTF-8" standalone="no"?>
<svg xmlns:xlink="http://www.w3.org/1999/xlink" height="18.3px" width="72.2px" xmlns="http://www.w3.org/2000/svg">
  <g transform="matrix(1.0, 0.0, 0.0, 1.0, 0.0, 0.0)">
    <path d="M3.4 4.05 L3.45 4.05 Q9.85 6.85 10.8 11.05 L10.9 11.05 Q19.6 7.4 24.1 13.55 35.6 7.35 43.75 14.4 L43.5 11.65 Q50.75 7.95 58.85 9.9 59.35 4.75 65.95 5.5 65.55 2.8 67.3 0.0 69.4 0.65 69.65 2.65 73.5 2.65 71.55 6.15 72.35 9.0 69.05 8.1 69.15 10.0 63.85 10.15 62.6 14.15 56.95 13.55 53.35 17.8 47.1 15.4 41.6 20.95 34.0 15.85 30.75 20.0 26.6 16.3 20.5 19.7 16.85 15.45 12.55 19.25 10.55 14.45 2.9 16.35 5.5 11.45 0.3 11.5 2.45 8.35 -2.9 4.7 3.4 4.05" fill="#fefff8" fill-rule="evenodd" stroke="none"/>
  </g>
</svg>
