<?xml version="1.0" encoding="UTF-8" standalone="no"?>
<svg xmlns:xlink="http://www.w3.org/1999/xlink" height="43.8px" width="74.25px" xmlns="http://www.w3.org/2000/svg">
  <g transform="matrix(1.0, 0.0, 0.0, 1.0, 37.15, 21.9)">
    <path d="M-16.1 -17.8 L-15.55 -20.85 Q-11.9 -19.35 5.1 -19.35 13.5 -19.35 16.15 -21.9 L16.55 -18.65 Q25.2 -4.6 29.95 6.9 22.6 14.15 1.25 13.4 -20.1 12.65 -23.55 9.7 -21.85 -0.65 -12.6 -16.85 -14.95 -17.25 -16.1 -17.8 M-35.35 8.3 Q-28.05 16.25 8.55 16.9 27.55 16.6 35.5 8.05 L36.95 10.1 Q37.9 13.7 32.9 13.3 31.65 18.4 25.55 16.55 22.8 21.9 16.15 18.4 12.65 23.85 6.1 19.55 0.6 24.45 -4.8 19.15 -10.8 23.9 -15.75 18.5 -22.45 21.8 -25.95 15.75 -33.3 17.85 -34.25 12.35 -37.95 11.95 -36.95 10.5 L-35.35 8.3" fill="#e9ebff" fill-rule="evenodd" stroke="none"/>
  </g>
</svg>
