<?xml version="1.0" encoding="UTF-8" standalone="no"?>
<svg xmlns:xlink="http://www.w3.org/1999/xlink" height="54.5px" width="81.75px" xmlns="http://www.w3.org/2000/svg">
  <g transform="matrix(1.0, 0.0, 0.0, 1.0, 0.0, 27.25)">
    <path d="M38.55 -16.9 L38.55 -25.3 Q50.45 -24.6 61.3 -26.6 L64.0 -20.0 81.75 8.95 Q81.4 11.65 79.2 14.3 L79.85 15.75 Q77.8 19.05 73.0 21.65 69.2 21.4 66.9 19.35 L67.75 23.0 Q63.2 26.85 55.05 24.9 L55.15 26.35 Q45.9 28.25 39.0 26.05 L39.1 24.3 Q37.65 26.15 35.2 25.95 26.1 26.1 19.8 22.5 12.9 22.35 7.65 18.65 L8.2 17.6 Q4.1 16.4 2.15 13.05 L3.05 11.7 Q0.25 10.2 0.0 7.8 L21.25 -20.5 23.25 -27.25 Q28.2 -26.0 35.05 -25.45 L35.05 -16.9 Q35.9 -16.25 36.8 -16.25 L37.0 -16.25 Q37.75 -16.35 38.55 -16.9" fill="#2b2c3b" fill-rule="evenodd" stroke="none"/>
  </g>
</svg>
