<?xml version="1.0" encoding="UTF-8" standalone="no"?>
<svg xmlns:xlink="http://www.w3.org/1999/xlink" height="25.1px" width="22.4px" xmlns="http://www.w3.org/2000/svg">
  <g transform="matrix(1.0, 0.0, 0.0, 1.0, 11.2, 12.55)">
    <path d="M-2.65 -7.7 L-1.7 -12.55 Q3.3 -9.6 11.2 -8.55 L8.85 -4.2 8.25 0.45 Q8.1 2.45 6.4 4.45 4.65 6.45 1.9 5.55 0.2 11.5 -1.75 12.2 -3.7 12.9 -4.55 12.2 -4.8 10.85 -2.6 4.9 L-3.8 5.0 Q-6.15 8.2 -7.55 9.15 -9.0 10.1 -10.35 9.5 -11.75 8.85 -10.85 7.05 L-8.65 2.8 -6.75 -0.8 -4.35 -4.35 -2.65 -7.65 -2.65 -7.7" fill="#ffffff" fill-rule="evenodd" stroke="none"/>
  </g>
</svg>
