<?xml version="1.0" encoding="UTF-8" standalone="no"?>
<svg xmlns:xlink="http://www.w3.org/1999/xlink" height="216.45px" width="59.9px" xmlns="http://www.w3.org/2000/svg">
  <g transform="matrix(1.0, 0.0, 0.0, 1.0, 41.95, 125.65)">
    <path d="M0.85 -42.05 Q3.5 -27.0 3.35 -14.0 M-25.95 -71.35 Q-14.3 -66.65 -7.75 -57.3 M-33.0 -69.4 Q-35.55 -95.1 -21.9 -103.9" fill="none" stroke="#000000" stroke-linecap="round" stroke-linejoin="round" stroke-width="1.4000000000000001"/>
    <path d="M13.05 -37.5 L13.05 -17.6 Q18.95 -43.05 15.9 -60.3 12.85 -77.6 -1.5 -88.6 -10.05 -91.6 -13.95 -87.0 L-14.0 -86.95 Q-16.15 -79.95 -20.6 -76.2 L-18.55 -77.05 Q-4.5 -76.55 8.1 -56.7 13.85 -47.6 15.0 -39.1 7.25 -40.4 0.85 -42.05 L0.6 -42.15 Q-9.95 -44.9 -16.9 -48.5 -12.0 -29.1 -10.65 20.1 L-10.6 23.45 Q-8.3 63.45 1.65 89.8 -1.3 74.2 1.4 46.45 3.75 21.95 3.55 4.05 L3.45 -0.55 Q3.2 -4.75 3.1 -9.15 M-16.9 -48.5 L-17.2 -48.65 -20.55 -50.65 Q-31.9 -58.1 -32.05 -62.95 -32.4 -65.9 -30.2 -68.15 -31.8 -68.7 -33.0 -69.4 -36.35 -71.3 -37.2 -74.6 -42.95 -87.85 -39.9 -98.5 -34.05 -111.85 -12.15 -124.65 -14.1 -118.4 -12.15 -108.35 -11.4 -95.4 -13.95 -87.0 M-25.95 -71.35 L-28.0 -69.85 -30.2 -68.15 M-20.6 -76.2 Q-25.1 -74.0 -25.95 -71.35 M13.05 -17.6 Q13.0 7.95 11.1 40.05 4.7 22.5 3.45 -0.55" fill="none" stroke="#000000" stroke-linecap="round" stroke-linejoin="round" stroke-width="2.0"/>
  </g>
</svg>
