<?xml version="1.0" encoding="UTF-8" standalone="no"?>
<svg xmlns:xlink="http://www.w3.org/1999/xlink" height="198.6px" width="315.2px" xmlns="http://www.w3.org/2000/svg">
  <g transform="matrix(1.0, 0.0, 0.0, 1.0, 157.6, 99.3)">
    <path d="M60.65 -56.55 Q57.4 -56.85 52.35 -49.25 L39.85 -65.1 Q40.8 -81.55 56.4 -93.35 62.55 -97.7 68.65 -98.8 77.0 -100.5 85.35 -96.05 99.7 -88.3 103.35 -34.35 104.45 -1.55 122.9 12.8 127.6 16.45 133.4 18.95 L133.45 19.1 135.55 20.15 Q143.55 25.85 144.6 34.8 143.55 33.05 141.7 31.7 150.3 41.85 151.45 51.7 149.5 49.05 146.65 46.85 152.0 52.3 154.25 57.45 155.0 59.3 155.35 61.15 L152.95 59.45 Q158.8 67.9 157.3 72.95 156.85 81.75 144.8 89.9 138.55 94.05 129.4 98.05 116.4 102.0 113.7 91.8 111.8 84.55 119.55 78.0 L119.7 77.9 Q123.45 75.4 126.3 74.55 129.4 73.5 131.4 74.5 135.4 76.2 134.7 81.55 132.4 88.9 123.95 87.7 119.55 85.9 120.4 79.85 116.35 85.5 119.7 90.95 123.4 96.95 133.75 94.1 141.15 86.1 141.95 74.5 144.15 63.6 124.25 48.05 111.2 46.5 105.65 37.2 98.55 34.3 101.15 23.4 92.05 16.85 92.85 5.25 80.8 -3.05 76.7 -21.75 72.4 -40.95 63.9 -53.35 62.6 -56.35 60.65 -56.55 M-87.3 -22.95 Q-85.9 -28.35 -85.1 -34.35 -82.3 -50.1 -78.85 -61.9 -70.55 -90.55 -58.4 -96.05 -45.1 -102.0 -32.7 -97.1 -29.15 -95.7 -25.65 -93.35 -9.0 -81.6 -9.5 -65.1 L-25.4 -49.25 Q-30.5 -57.0 -34.3 -56.5 -36.45 -56.25 -38.2 -53.35 -49.1 -40.9 -55.9 -21.7 -62.4 -3.0 -77.05 5.3 -77.25 17.0 -88.3 23.45 -86.45 34.35 -94.85 37.3 -102.1 46.65 -117.15 48.2 -141.5 63.7 -140.0 74.6 -140.3 86.25 -132.55 94.2 -121.05 97.05 -116.25 91.05 -111.85 85.65 -115.9 79.95 -115.85 81.75 -116.2 83.2 -117.15 86.6 -120.8 87.9 -130.55 89.1 -132.4 81.65 -132.7 76.35 -128.0 74.6 L-123.15 74.4 Q-119.65 75.15 -114.9 78.05 L-114.8 78.15 -114.75 78.2 Q-106.5 84.65 -109.45 91.95 -113.55 102.2 -128.0 98.15 -158.05 86.45 -157.4 73.05 -158.65 68.05 -151.05 59.55 L-154.05 61.3 Q-151.7 54.35 -142.65 47.05 -146.15 49.15 -148.6 51.8 -146.35 41.95 -135.45 31.75 -137.75 33.15 -139.15 34.9 -137.0 25.9 -127.4 20.2 L-124.8 19.15 -124.7 19.0 Q-118.6 16.75 -113.3 13.65 L-112.8 13.3 Q-93.85 1.5 -87.3 -22.95" fill="#469eff" fill-rule="evenodd" stroke="none"/>
  </g>
</svg>
