<?xml version="1.0" encoding="UTF-8" standalone="no"?>
<svg xmlns:xlink="http://www.w3.org/1999/xlink" height="279.9px" width="276.2px" xmlns="http://www.w3.org/2000/svg">
  <g transform="matrix(1.0, 0.0, 0.0, 1.0, 138.1, 139.95)">
    <path d="M53.6 -107.2 Q53.15 -108.55 52.3 -109.65 53.0 -115.3 54.5 -120.3 L54.75 -121.15 Q60.45 -133.35 71.3 -139.95 58.0 -116.45 54.55 -102.3 L55.0 -103.6 Q60.9 -119.55 70.0 -119.45 85.7 -116.7 96.0 -92.05 L96.9 -90.15 Q99.25 -84.25 100.7 -71.55 L100.8 -71.0 101.05 -68.9 Q109.55 -27.1 122.75 -3.0 105.0 -18.45 102.5 -50.45 L102.7 -46.15 Q103.7 -25.85 110.25 -4.75 L111.25 -1.6 112.8 2.8 Q124.75 28.7 138.1 26.05 131.75 34.35 124.6 29.1 122.6 26.55 120.9 23.55 127.45 40.15 127.8 71.7 L128.1 78.8 Q124.2 71.95 123.8 64.4 L124.2 81.8 Q124.55 95.8 129.55 105.95 117.65 97.8 118.45 88.55 113.2 116.1 91.1 139.55 99.7 99.9 96.75 76.9 L95.35 65.85 Q96.15 91.6 87.6 116.05 91.2 86.35 87.45 55.9 84.95 36.0 84.05 21.5 85.5 57.65 87.35 72.5 75.35 41.25 77.75 -9.2 79.45 -31.25 79.2 -45.65 L78.7 -63.85 Q78.05 -71.85 76.5 -78.8 75.3 -84.85 74.1 -87.4 72.0 -91.75 70.35 -92.2 L69.4 -94.2 Q68.95 -98.95 67.95 -103.0 L66.7 -107.2 Q64.7 -109.5 58.85 -104.55 L54.35 -100.95 54.25 -100.9 53.3 -100.3 Q54.6 -104.05 53.6 -107.2 M-25.25 -120.3 Q-23.75 -115.3 -23.2 -109.65 -24.2 -108.55 -24.75 -107.2 -26.0 -104.05 -24.7 -100.3 L-25.75 -100.9 -25.85 -100.95 -30.75 -104.55 Q-37.1 -109.5 -39.5 -107.2 L-41.05 -103.0 Q-42.35 -98.95 -43.0 -94.2 L-44.2 -92.2 -46.7 -87.5 -47.3 -85.75 Q-47.9 -84.45 -48.0 -83.35 L-48.05 -82.25 -48.0 -82.15 -48.0 -82.05 -47.9 -81.5 -47.8 -80.75 -47.25 -79.85 Q-50.4 -53.8 -46.95 -21.55 -56.65 -43.4 -54.7 -63.85 -55.2 -60.1 -56.0 -45.65 -56.85 -31.25 -55.85 -9.2 -55.15 41.25 -69.95 72.5 -66.75 54.95 -63.05 7.65 -64.75 23.9 -67.7 36.35 -78.2 80.6 -66.45 116.5 -84.65 84.4 -76.2 50.8 L-77.8 56.25 Q-89.65 96.25 -68.55 139.95 -100.75 116.1 -105.5 88.55 -103.8 118.4 -96.3 129.45 -103.8 123.3 -108.35 111.25 -112.9 99.15 -111.7 81.8 L-110.55 64.4 Q-111.5 74.0 -118.8 82.45 -126.65 91.4 -133.4 91.7 -119.6 81.65 -116.2 58.05 -113.65 40.15 -105.65 23.55 -109.1 28.7 -113.5 32.4 -124.65 39.4 -138.1 38.2 -110.15 28.7 -95.75 2.8 L-93.8 -1.6 Q-96.75 -29.4 -88.35 -54.85 -79.95 -80.35 -74.1 -90.15 L-73.05 -92.05 Q-60.45 -116.7 -42.7 -119.45 -32.45 -119.55 -26.5 -103.6 L-26.05 -102.3 Q-27.9 -120.3 -51.25 -139.2 -31.4 -133.35 -25.5 -121.15 L-25.25 -120.3 M-92.55 -4.75 Q-84.35 -25.85 -82.4 -46.15 -81.05 -60.75 -79.25 -71.0 -82.25 -56.3 -83.9 -49.2 -85.55 -42.15 -87.45 -31.85 L-92.55 -4.75" fill="url(#gradient0)" fill-rule="evenodd" stroke="none"/>
  </g>
  <defs>
    <linearGradient gradientTransform="matrix(0.0, 0.1191, -0.1686, 0.0, 0.0, 15.05)" gradientUnits="userSpaceOnUse" id="gradient0" spreadMethod="pad" x1="-819.2" x2="819.2">
      <stop offset="0.0" stop-color="#fff23c" stop-opacity="0.0"/>
      <stop offset="0.3803921568627451" stop-color="#fff23c" stop-opacity="0.84705883"/>
      <stop offset="0.6039215686274509" stop-color="#fff23c" stop-opacity="0.8"/>
      <stop offset="1.0" stop-color="#fff23c" stop-opacity="0.0"/>
    </linearGradient>
  </defs>
</svg>
