<?xml version="1.0" encoding="UTF-8" standalone="no"?>
<svg xmlns:xlink="http://www.w3.org/1999/xlink" height="62.6px" width="105.1px" xmlns="http://www.w3.org/2000/svg">
  <g transform="matrix(1.0, 0.0, 0.0, 1.0, 52.55, 31.3)">
    <path d="M-1.45 0.55 Q1.25 12.4 4.95 30.4 2.7 32.1 -0.15 30.65 L-2.25 19.95 -4.1 9.95 -6.5 20.35 Q-8.7 20.8 -9.7 19.7 L-9.65 19.2 -5.5 3.0 Q-8.15 -9.7 -10.15 -17.25 -11.1 -20.2 -24.6 -21.75 L-8.25 -20.45 -6.55 -19.95 -5.35 -15.65 0.75 -17.7 5.65 -15.9 3.3 -14.8 -1.45 0.55 M-43.1 -25.2 Q-41.15 -24.2 -38.5 -23.35 -34.6 -22.3 -28.6 -22.15 -35.95 -22.0 -40.35 -18.15 L-48.1 24.55 Q-51.2 25.85 -52.55 24.2 L-43.1 -25.2 M-2.9 -5.7 L-0.45 -13.15 Q-2.25 -12.2 -4.1 -11.3 L-2.9 -5.7" fill="#a4b1ba" fill-rule="evenodd" stroke="none"/>
    <path d="M44.0 -31.3 L52.55 20.25 Q51.0 21.25 48.65 20.25 L40.25 -28.65 44.0 -31.3" fill="#a5b1b8" fill-rule="evenodd" stroke="none"/>
  </g>
</svg>
