<?xml version="1.0" encoding="UTF-8" standalone="no"?>
<svg xmlns:xlink="http://www.w3.org/1999/xlink" height="162.55px" width="251.7px" xmlns="http://www.w3.org/2000/svg">
  <g transform="matrix(1.0, 0.0, 0.0, 1.0, 125.85, 81.3)">
    <path d="M27.45 -55.3 Q30.65 -55.55 35.3 -50.35 40.7 -44.45 45.25 -34.85 49.85 -25.1 51.05 -16.45 51.8 -11.4 51.05 -8.8 L92.75 -29.15 Q91.75 -57.1 73.0 -77.15 L27.45 -55.3 2.85 -43.55 Q6.0 -43.9 10.65 -38.7 16.05 -32.8 20.6 -23.2 25.2 -13.45 26.4 -4.8 27.2 0.65 26.3 3.25 L51.05 -8.8 M73.0 -77.15 Q101.85 -83.4 116.45 -77.3 128.45 -71.55 123.3 -59.45 114.15 -38.6 92.75 -29.15 M2.85 -43.55 L-21.95 -31.65 Q-18.8 -32.05 -14.15 -26.85 -8.75 -20.95 -4.2 -11.35 0.4 -1.6 1.6 7.05 2.45 12.85 1.35 15.4 L26.3 3.25 M1.35 15.4 L1.1 15.9 M1.35 15.4 L-23.55 27.55 -52.4 41.6 Q-55.2 51.25 -51.95 61.8 L-86.25 80.25 -86.25 58.15 -88.35 59.0 -88.7 59.25 -89.3 59.45 -90.05 59.55 Q-92.95 59.4 -97.45 54.1 -103.1 47.5 -107.7 37.85 -112.2 28.05 -113.25 20.2 -114.0 13.2 -111.7 11.35 -111.4 11.1 -111.1 10.95 L-110.35 10.65 -107.45 9.4 Q-115.0 -0.2 -124.85 -7.8 L-88.55 -19.0 Q-81.65 -10.75 -74.35 -6.6 L-46.55 -19.9 -21.95 -31.65 M-46.55 -19.9 Q-43.45 -20.4 -38.8 -15.2 -33.4 -9.3 -28.85 0.3 -24.25 10.05 -23.05 18.7 -22.1 25.1 -23.55 27.55 M-110.35 10.65 Q-107.3 10.05 -102.65 15.25 -97.25 21.15 -92.7 30.75 -88.1 40.5 -86.9 49.15 -85.7 57.2 -88.35 59.0 M-111.7 11.35 L-110.35 10.65 M-86.25 58.15 L-52.4 41.6 M-107.45 9.4 L-74.35 -6.6" fill="none" stroke="#000000" stroke-linecap="round" stroke-linejoin="round" stroke-width="2.0"/>
  </g>
</svg>
