<?xml version="1.0" encoding="UTF-8" standalone="no"?>
<svg xmlns:xlink="http://www.w3.org/1999/xlink" height="30.6px" width="21.05px" xmlns="http://www.w3.org/2000/svg">
  <g transform="matrix(1.0, 0.0, 0.0, 1.0, 10.5, 15.3)">
    <path d="M-3.0 14.6 Q-5.7 13.4 -7.4 10.8 -9.35 7.95 -10.05 4.35 -10.5 2.35 -10.5 -0.05 -10.5 -2.2 -10.1 -4.15 -9.45 -7.9 -7.4 -10.8 -5.15 -14.1 -2.1 -15.0 L-0.75 -15.3 0.05 -15.3 0.8 -15.3 Q2.3 -15.15 3.8 -14.3 5.8 -13.25 7.45 -10.8 9.5 -7.9 10.15 -4.15 10.55 -2.2 10.55 -0.05 10.55 2.35 10.15 4.35 9.4 7.95 7.45 10.8 L5.9 12.65 3.8 14.3 Q2.1 15.3 0.05 15.3 L-2.1 14.9 -2.8 14.7 -3.0 14.6" fill="#ffe744" fill-rule="evenodd" stroke="none"/>
  </g>
</svg>
