<?xml version="1.0" encoding="UTF-8" standalone="no"?>
<svg xmlns:xlink="http://www.w3.org/1999/xlink" height="20.8px" width="204.45px" xmlns="http://www.w3.org/2000/svg">
  <g transform="matrix(1.0, 0.0, 0.0, 1.0, 102.2, 10.4)">
    <path d="M-6.1 2.65 Q-5.45 0.05 -2.7 -1.3 -0.3 -2.8 2.75 -2.65 5.7 -2.8 8.0 -1.5 10.55 -0.15 11.2 2.35 11.9 5.15 9.75 7.5 7.3 10.15 2.8 10.4 -1.8 10.45 -4.45 7.85 -6.35 6.05 -6.35 4.1 L-6.1 2.65 M43.25 0.0 Q43.9 -2.6 46.7 -3.95 49.05 -5.45 52.1 -5.35 55.05 -5.45 57.4 -4.15 59.9 -2.8 60.65 -0.35 61.3 2.4 59.15 4.8 56.65 7.5 52.2 7.75 47.55 7.8 44.9 5.2 43.0 3.4 43.0 1.45 43.0 0.65 43.25 0.0 M102.25 -4.8 Q102.45 -2.8 100.1 -1.5 97.95 -0.2 94.7 -0.2 91.5 -0.2 88.85 -1.5 86.0 -2.8 85.15 -4.8 84.15 -7.05 86.25 -8.65 88.4 -10.4 92.3 -10.4 96.4 -10.4 99.35 -8.65 102.1 -7.05 102.25 -4.8 M-102.2 -4.8 Q-102.1 -7.05 -99.2 -8.65 -96.35 -10.4 -92.25 -10.4 -88.35 -10.4 -86.2 -8.65 -84.15 -7.05 -85.1 -4.8 -85.9 -2.8 -88.75 -1.5 -91.5 -0.2 -94.65 -0.2 -97.9 -0.2 -100.05 -1.5 -102.4 -2.8 -102.2 -4.8 M-40.3 -4.15 Q-37.85 -2.8 -37.05 -0.35 -36.35 2.4 -38.5 4.8 -41.0 7.5 -45.45 7.75 -50.1 7.8 -52.8 5.2 -54.6 3.4 -54.6 1.45 L-54.4 0.0 Q-53.75 -2.6 -50.95 -3.95 -48.55 -5.45 -45.5 -5.35 -42.65 -5.45 -40.3 -4.15" fill="#fceb07" fill-rule="evenodd" stroke="none"/>
  </g>
</svg>
