<?xml version="1.0" encoding="UTF-8" standalone="no"?>
<svg xmlns:xlink="http://www.w3.org/1999/xlink" height="112.75px" width="241.7px" xmlns="http://www.w3.org/2000/svg">
  <g transform="matrix(1.0, 0.0, 0.0, 1.0, 119.7, 251.9)">
    <path d="M-40.45 -230.35 L-41.9 -231.05 Q-42.4 -231.65 -42.55 -232.45 -43.0 -235.95 -37.0 -241.55 -30.35 -247.7 -22.5 -250.6 -15.75 -253.05 -13.45 -250.85 -11.75 -249.2 -14.25 -245.4 -15.65 -243.05 -18.25 -240.5 L-20.35 -238.8 Q-24.25 -235.6 -28.75 -233.3 L-29.2 -233.0 Q-33.9 -230.7 -37.45 -230.25 L-40.45 -230.35 M-43.25 -225.8 Q-43.45 -224.25 -44.3 -222.25 L-45.05 -221.0 -46.8 -218.6 -47.75 -217.6 -47.85 -217.55 Q-49.25 -216.5 -50.25 -216.25 L-50.55 -216.1 -51.1 -216.1 -51.65 -216.2 Q-51.9 -216.25 -52.0 -216.45 L-52.1 -216.5 -52.6 -217.3 -52.6 -217.5 -52.75 -218.3 -52.65 -219.25 -52.6 -219.8 Q-52.15 -222.15 -50.25 -224.7 -49.05 -226.5 -47.75 -227.5 L-47.4 -227.7 -47.35 -227.9 Q-46.25 -228.6 -45.15 -228.75 L-44.95 -228.75 -44.75 -228.75 Q-44.15 -228.75 -43.7 -228.4 L-43.45 -227.95 -43.25 -227.05 -43.25 -226.3 -43.25 -225.8" fill="#ffffff" fill-opacity="0.8784314" fill-rule="evenodd" stroke="none"/>
    <path d="M-65.05 -158.15 L-68.95 -158.8 -80.55 -161.05 Q-97.4 -164.65 -107.05 -169.15 -119.2 -174.8 -119.7 -181.8 L-119.7 -188.8 Q-119.2 -181.5 -107.05 -175.8 -97.4 -171.35 -80.55 -167.75 L-68.35 -165.4 Q-53.05 -162.9 -35.75 -161.6 -15.4 -160.25 6.95 -160.55 L43.3 -162.5 Q59.9 -164.15 74.2 -166.9 82.0 -168.4 89.1 -170.35 100.55 -173.3 108.05 -176.65 121.8 -182.9 122.0 -190.25 L122.0 -183.65 121.95 -182.3 Q120.65 -175.75 108.05 -169.95 100.55 -166.7 89.1 -163.55 82.35 -161.85 74.85 -160.3 L71.0 -159.65 Q58.1 -157.25 43.3 -155.9 L6.95 -153.9 Q-15.4 -153.55 -35.75 -155.0 -51.2 -156.0 -65.05 -158.15" fill="#ffffff" fill-opacity="0.21960784" fill-rule="evenodd" stroke="none"/>
    <path d="M71.0 -159.65 Q68.25 -156.35 63.1 -153.7 5.25 -139.05 -58.0 -153.5 -62.3 -155.65 -65.05 -158.15 -51.2 -156.0 -35.75 -155.0 -15.4 -153.55 6.95 -153.9 L43.3 -155.9 Q58.1 -157.25 71.0 -159.65 M17.1 -144.0 L15.5 -141.95 Q3.2 -136.6 -10.45 -141.4 L-13.15 -144.0 1.65 -143.55 17.1 -144.0 M53.85 -150.1 Q53.35 -148.55 52.4 -147.3 42.45 -141.0 30.0 -143.15 29.0 -143.85 28.35 -145.15 43.7 -147.0 53.85 -150.1 M-23.35 -144.85 Q-24.2 -143.85 -25.15 -143.15 -37.65 -141.0 -47.6 -147.3 L-49.05 -149.9 Q-38.7 -146.65 -23.35 -144.85" fill="#000000" fill-opacity="0.32941177" fill-rule="evenodd" stroke="none"/>
  </g>
</svg>
