<?xml version="1.0" encoding="UTF-8" standalone="no"?>
<svg xmlns:xlink="http://www.w3.org/1999/xlink" height="139.0px" width="331.05px" xmlns="http://www.w3.org/2000/svg">
  <g transform="matrix(1.0, 0.0, 0.0, 1.0, 165.55, 69.5)">
    <path d="M51.95 -10.5 L52.55 -9.2 19.55 7.95 10.45 11.15 -83.75 11.15 Q-91.65 10.9 -93.15 4.2 L-109.5 -54.55 -104.55 -56.25 -104.65 -63.55 -60.5 -63.55 Q-54.1 -52.45 -41.05 -45.55 -26.5 -40.15 -8.3 -42.75 12.15 -46.5 29.05 -38.75 40.7 -30.6 40.25 -10.5 L51.95 -10.5 M14.45 54.9 Q18.0 58.45 24.9 58.45 54.75 59.8 76.4 55.8 98.0 51.75 107.6 32.15 L108.4 28.8 Q122.45 -25.95 154.95 -20.25 161.65 -19.5 164.05 -15.25 L164.8 -13.6 Q165.4 -12.1 165.5 -3.25 163.6 -6.8 161.8 -8.9 156.2 -13.45 149.3 -10.45 142.55 -6.45 143.25 0.7 143.25 4.2 146.65 7.7 132.2 19.15 132.2 41.05 131.35 49.35 128.4 53.7 L127.95 54.3 Q124.65 58.9 118.8 59.15 L118.95 57.95 119.4 53.95 119.4 51.9 Q118.55 54.95 116.55 57.5 107.0 69.75 70.05 69.5 L-122.4 65.6 Q-122.25 57.35 -121.65 49.3 -97.95 61.4 -77.75 46.6 -51.5 65.4 -23.25 48.35 -7.7 60.8 14.45 54.9 M99.7 26.6 L97.2 31.7 Q87.7 47.95 54.75 48.85 47.4 49.05 38.9 48.5 L30.3 48.0 Q20.15 45.8 19.55 35.55 L19.55 32.55 19.55 15.45 54.85 -4.95 54.85 26.55 99.7 26.6 M-140.5 -37.75 Q-144.15 -35.6 -148.65 -35.6 -155.7 -35.6 -160.6 -40.6 -165.55 -45.55 -165.55 -52.5 -165.55 -59.45 -160.6 -64.4 -155.7 -69.3 -148.65 -69.3 L-143.3 -69.5 Q-129.45 -66.85 -120.2 -60.05 L-120.05 -59.95 -117.35 -57.95 -103.3 -3.25 -99.25 11.15 Q-97.15 19.95 -90.7 19.9 L10.6 19.9 10.6 39.85 10.55 43.85 Q-6.7 51.6 -22.65 38.6 -51.25 53.55 -77.45 37.2 -95.75 50.65 -120.55 39.0 -118.85 24.9 -115.45 11.15 L-140.5 -37.75" fill="#990000" fill-rule="evenodd" stroke="none"/>
  </g>
</svg>
