<?xml version="1.0" encoding="UTF-8" standalone="no"?>
<svg xmlns:xlink="http://www.w3.org/1999/xlink" height="204.05px" width="349.55px" xmlns="http://www.w3.org/2000/svg">
  <g transform="matrix(1.0, 0.0, 0.0, 1.0, 174.8, 102.05)">
    <path d="M86.0 54.1 L85.9 70.25 92.95 70.25 92.8 54.3 86.0 54.1 M167.4 64.45 L166.75 63.3 168.5 66.95 Q154.95 77.45 130.55 77.55 L99.85 77.55 99.85 95.05 Q155.85 98.5 166.75 81.9 171.3 74.85 168.5 66.95 L167.4 64.45 M169.3 -24.65 Q169.2 -33.5 168.6 -35.0 L167.85 -36.65 Q165.45 -40.9 158.75 -41.65 126.25 -47.35 112.2 7.4 L111.4 10.75 Q101.8 30.35 80.2 34.4 58.55 38.4 28.7 37.05 21.8 37.05 18.25 33.5 -3.9 39.4 -19.45 26.95 -47.7 44.0 -73.95 25.2 -94.15 40.0 -117.85 27.9 -118.45 35.95 -118.6 44.2 L73.85 48.1 Q110.8 48.35 120.35 36.1 122.35 33.55 123.2 30.5 L123.2 32.55 122.75 36.55 122.6 37.75 Q119.2 50.05 99.85 53.35 L99.85 69.8 129.8 69.8 143.55 69.25 Q159.15 67.45 164.2 60.3 158.85 54.9 152.7 53.6 146.7 52.25 139.9 54.9 135.65 58.95 140.05 62.8 144.25 65.05 146.25 58.95 149.75 60.8 148.8 65.0 145.95 66.95 143.4 67.55 140.5 68.05 138.1 66.75 137.95 66.5 137.6 66.45 L136.0 65.0 Q130.3 58.0 136.0 53.8 136.95 52.95 137.95 52.35 138.1 52.15 138.35 52.1 141.75 50.05 146.1 49.7 L153.15 50.3 153.3 50.3 153.5 50.3 153.75 50.3 Q160.95 51.85 166.65 57.5 170.05 49.6 167.5 43.85 164.7 37.55 155.1 33.75 147.05 32.9 143.9 35.0 L143.8 35.0 143.65 35.1 Q141.0 37.05 142.45 41.55 145.85 45.05 148.8 40.1 153.5 42.85 148.8 45.55 147.2 46.15 145.85 46.15 142.55 46.4 140.25 44.2 L140.15 44.1 140.0 44.0 139.9 43.85 138.9 42.65 Q136.65 39.1 138.2 36.05 139.15 34.25 141.45 32.55 L142.45 32.15 142.55 32.15 Q148.8 29.35 155.5 30.75 L155.6 30.75 155.8 30.85 155.95 30.95 156.05 30.95 159.7 32.2 Q165.3 33.4 170.9 42.65 L170.9 42.75 171.75 45.1 Q174.55 53.7 171.75 60.9 L170.9 62.8 171.75 64.3 Q176.5 73.4 173.7 83.05 173.25 85.95 171.75 88.35 164.85 99.05 135.9 100.3 8.9 105.4 -127.5 95.05 L-127.5 87.75 -119.35 87.75 -119.35 50.3 -132.95 50.05 -122.85 -10.65 -137.65 -45.2 Q-159.55 -39.0 -172.95 -58.9 -180.35 -83.25 -157.85 -99.2 -139.5 -105.25 -125.05 -98.55 L-56.05 -98.55 Q-36.75 -76.95 -9.5 -75.35 31.75 -78.85 42.95 -67.3 54.15 -55.8 54.6 -44.05 55.0 -32.35 55.75 -31.9 L44.05 -31.9 Q44.5 -52.0 32.85 -60.15 15.95 -67.9 -4.5 -64.15 -22.7 -61.55 -37.25 -66.95 -50.3 -73.85 -56.7 -84.95 L-100.85 -84.95 -100.75 -77.65 -105.7 -75.95 -89.35 -17.2 Q-87.85 -10.5 -79.95 -10.25 L14.25 -10.25 23.35 -13.45 58.65 -31.9 58.65 -26.35 23.35 -5.95 23.35 11.15 23.35 14.15 Q23.95 24.4 34.1 26.6 L42.7 27.1 Q51.2 27.65 58.55 27.45 91.5 26.55 101.0 10.3 L103.5 5.2 Q109.6 -40.65 145.6 -51.25 164.0 -53.35 171.75 -44.8 L172.75 -43.6 173.25 -38.25 Q173.7 -32.2 171.75 -28.15 170.8 -26.2 169.3 -24.65 M-21.85 77.2 L-21.85 94.35 93.2 94.35 93.1 77.55 -21.85 77.2 M-136.7 -59.15 L-111.65 -10.25 Q-115.05 3.5 -116.75 17.6 -91.95 29.25 -73.65 15.8 -47.45 32.15 -18.85 17.2 -2.9 30.2 14.35 22.45 L14.4 18.45 14.4 -1.5 -86.9 -1.5 Q-93.35 -1.45 -95.45 -10.25 L-99.5 -24.65 -113.55 -79.35 -116.25 -81.35 -116.4 -81.45 Q-125.65 -88.25 -139.5 -90.9 L-144.85 -90.7 Q-151.9 -90.7 -156.8 -85.8 -161.75 -80.85 -161.75 -73.9 -161.75 -66.95 -156.8 -62.0 -151.9 -57.0 -144.85 -57.0 -140.35 -57.0 -136.7 -59.15 M-1.2 52.4 L-1.2 70.5 78.85 70.35 79.3 54.05 -1.2 52.4 M-27.95 76.45 L-80.5 74.9 -80.5 69.5 -70.2 69.5 -70.2 51.15 -112.0 50.4 -112.0 89.2 -27.6 93.5 -27.95 76.45 M-28.05 70.6 L-28.35 52.0 -63.45 51.3 -63.45 69.05 -28.05 70.6 M-21.85 52.15 L-21.85 70.6 -7.8 70.5 -7.8 52.35 -21.85 52.15" fill="#cc9900" fill-rule="evenodd" stroke="none"/>
  </g>
</svg>
