<?xml version="1.0" encoding="UTF-8" standalone="no"?>
<svg xmlns:xlink="http://www.w3.org/1999/xlink" height="102.95px" width="98.7px" xmlns="http://www.w3.org/2000/svg">
  <g transform="matrix(1.0, 0.0, 0.0, 1.0, 49.35, 51.5)">
    <path d="M27.4 -44.75 L28.55 -43.0 28.05 -42.25 27.55 -41.55 Q22.15 -34.55 13.55 -34.15 13.65 -36.9 14.9 -39.6 14.55 -43.5 14.75 -47.25 L15.15 -51.5 27.4 -44.75 M34.0 -38.3 L31.8 -35.3 31.4 -13.2 31.25 -12.0 Q28.4 6.9 3.7 20.4 3.45 22.4 3.6 24.6 3.65 26.5 4.0 28.5 5.9 36.55 -9.1 42.85 -15.65 45.55 -20.3 51.45 -20.9 45.75 -17.7 42.3 -23.85 43.7 -27.1 48.85 -27.1 44.25 -20.55 40.45 L-17.8 40.3 Q-7.45 39.5 -3.95 34.3 0.15 29.8 -0.35 24.85 -0.5 23.35 -0.95 21.85 L-1.15 21.45 Q1.05 12.9 7.15 10.95 L7.2 10.9 Q22.95 1.95 27.15 -12.0 L27.65 -14.0 Q28.55 -17.75 28.6 -21.95 28.65 -24.95 28.3 -28.1 25.0 -23.7 19.15 -22.25 L15.55 -21.4 Q6.25 -19.0 2.7 -16.75 L2.7 0.45 Q-1.35 8.35 -17.2 8.15 L-19.35 8.05 Q-27.2 7.85 -35.3 13.0 -39.8 16.25 -40.25 27.15 -40.4 32.5 -39.65 39.7 L-44.05 27.2 -49.35 38.2 -49.15 27.5 Q-47.6 10.35 -34.45 4.65 L-24.75 4.0 -19.35 4.1 -17.35 4.05 Q-7.7 3.8 -6.45 0.9 L-6.45 -13.8 Q-6.15 -21.5 1.6 -23.9 L14.95 -23.9 17.25 -24.7 Q22.35 -26.4 25.25 -30.55 27.65 -34.1 28.4 -39.45 L28.55 -40.8 28.65 -41.5 29.3 -41.95 30.45 -40.1 30.5 -40.2 30.75 -40.5 30.9 -40.75 32.5 -43.1 32.65 -43.25 34.8 -46.6 Q40.45 -49.8 45.8 -50.95 L45.95 -51.0 46.05 -51.0 49.35 -51.5 Q48.5 -46.55 46.35 -42.5 44.7 -37.95 45.75 -33.45 39.6 -34.2 34.0 -38.3" fill="#990000" fill-rule="evenodd" stroke="none"/>
  </g>
</svg>
