<?xml version="1.0" encoding="UTF-8" standalone="no"?>
<svg xmlns:xlink="http://www.w3.org/1999/xlink" height="235.1px" width="121.4px" xmlns="http://www.w3.org/2000/svg">
  <g transform="matrix(1.0, 0.0, 0.0, 1.0, 60.7, 117.55)">
    <path d="M17.7 -69.4 Q22.3 -45.35 22.8 -20.95 23.2 -0.25 20.65 20.75 L20.15 24.55 20.1 25.0 20.15 24.9 20.4 24.6 20.55 24.35 22.15 22.0 22.3 21.85 24.45 18.5 Q35.95 0.35 43.9 -20.95 56.0 -53.65 59.7 -93.9 43.2 -77.5 17.7 -69.4 14.9 -93.6 4.7 -116.55 -8.9 -85.85 -36.95 -61.55 -5.85 -61.95 17.7 -69.4 M4.7 -116.55 Q31.0 -102.15 59.7 -93.9 M36.0 16.35 Q31.1 20.75 25.2 21.7 L24.95 21.8 24.8 21.8 24.7 21.8 22.3 22.0 22.15 22.0 M21.05 24.65 L21.95 25.45 22.3 25.7 23.65 26.8 Q29.25 30.9 35.4 31.65 34.35 27.15 36.0 22.6 38.15 18.55 39.0 13.6 L35.7 14.1 35.6 14.1 35.45 14.15 Q30.1 15.3 24.45 18.5 M18.3 23.6 L18.2 24.3 18.05 25.65 Q17.3 31.0 14.9 34.55 12.0 38.7 6.9 40.4 L4.6 41.2 Q-1.9 42.4 -5.15 45.15 -6.85 46.55 -7.65 48.35 -4.1 46.1 5.2 43.7 L8.8 42.85 Q14.65 41.4 17.95 37.0 20.5 34.4 21.45 29.8 L21.9 26.1 M11.25 23.65 L17.7 22.85 18.2 22.1 17.05 20.35 Q10.6 23.0 5.0 17.9 M17.05 20.35 L4.8 13.6 4.4 17.85 Q4.2 21.6 4.55 25.5 3.3 28.2 3.2 30.95 11.8 30.55 17.2 23.55 L17.7 22.85 M21.45 29.8 L21.05 51.9 20.9 53.1 Q18.05 72.0 -6.65 85.5 -6.9 87.5 -6.75 89.7 L-6.35 93.6 Q-4.45 101.65 -19.45 107.95 -26.0 110.65 -30.65 116.55 -31.25 110.85 -28.05 107.4 -34.2 108.8 -37.45 113.95 -37.45 109.35 -30.9 105.55 L-28.15 105.4 Q-17.8 104.6 -14.3 99.4 -10.2 94.9 -10.7 89.95 -10.85 88.45 -11.3 86.95 L-11.5 86.55 Q-9.3 78.0 -3.2 76.05 L-3.15 76.0 Q12.6 67.05 16.8 53.1 L17.3 51.1 Q18.2 47.35 18.25 43.15 18.3 40.15 17.95 37.0 M20.1 25.0 L18.2 22.1 M-7.65 48.35 L-7.65 65.55 Q-11.7 73.45 -27.55 73.25 L-29.7 73.15 Q-37.55 72.95 -45.65 78.1 -50.15 81.35 -50.6 92.25 -50.75 97.6 -50.0 104.8 L-54.4 92.3 -59.7 103.3 -59.5 92.6 Q-57.95 75.45 -44.8 69.75 L-35.1 69.1 -29.7 69.2 -27.7 69.15 Q-18.05 68.9 -16.8 66.0 L-16.8 51.3 Q-16.5 43.6 -8.75 41.2 L4.6 41.2 M-3.2 76.05 L-3.25 76.1 Q-6.1 80.2 -6.65 85.5 M-35.1 69.1 Q-42.3 72.65 -45.65 78.1 M17.05 20.35 L-36.95 -61.55" fill="none" stroke="#000000" stroke-linecap="round" stroke-linejoin="round" stroke-width="2.0"/>
  </g>
</svg>
