<?xml version="1.0" encoding="UTF-8" standalone="no"?>
<svg xmlns:xlink="http://www.w3.org/1999/xlink" height="85.45px" width="85.45px" xmlns="http://www.w3.org/2000/svg">
  <g transform="matrix(1.0, 0.0, 0.0, 1.0, 42.75, 42.75)">
    <path d="M27.15 -31.65 L27.45 -29.3 Q27.85 -23.55 25.4 -19.35 L26.4 -18.5 Q28.75 -16.15 28.75 -12.85 L28.65 -11.5 Q37.4 -10.5 41.6 -3.15 40.55 -18.45 29.5 -29.5 L27.15 -31.65 Q15.65 -41.75 0.0 -41.75 -17.3 -41.75 -29.5 -29.5 -35.2 -23.85 -38.25 -17.1 -11.4 -52.45 17.75 -20.25 19.1 -20.9 20.75 -20.9 23.35 -20.9 25.4 -19.35 M-38.25 -17.1 Q-41.75 -9.25 -41.75 0.0 -41.75 6.2 -40.15 11.8 -16.3 -19.8 12.9 -14.75 13.4 -16.85 15.05 -18.5 16.2 -19.75 17.75 -20.25 M-40.15 11.8 Q-37.3 21.65 -29.5 29.45 -22.8 36.15 -14.7 39.15 9.85 19.05 16.2 -6.2 L15.05 -7.2 Q12.7 -9.55 12.7 -12.85 L12.9 -14.75 M-14.7 39.15 Q-7.85 41.7 0.0 41.7 17.2 41.7 29.5 29.45 33.5 25.4 36.25 20.85 35.2 4.35 25.55 -6.45 23.5 -4.8 20.75 -4.8 18.2 -4.8 16.2 -6.2 M28.65 -11.5 Q28.25 -9.0 26.4 -7.2 L25.55 -6.45 M36.25 20.85 Q41.7 11.55 41.7 0.0 L41.6 -3.15" fill="none" stroke="#000000" stroke-linecap="round" stroke-linejoin="round" stroke-width="2.0"/>
  </g>
</svg>
