<?xml version="1.0" encoding="UTF-8" standalone="no"?>
<svg xmlns:xlink="http://www.w3.org/1999/xlink" height="203.0px" width="121.05px" xmlns="http://www.w3.org/2000/svg">
  <g transform="matrix(1.0, 0.0, 0.0, 1.0, 60.55, 101.5)">
    <path d="M8.9 -90.9 L8.9 -101.5 13.6 -101.5 13.6 -90.5 8.9 -90.9 M14.15 -19.7 L14.15 57.9 9.1 57.9 9.1 -19.7 14.15 -19.7" fill="#464760" fill-rule="evenodd" stroke="none"/>
    <path d="M13.6 -90.5 Q17.85 -87.7 21.8 -84.25 48.1 -61.5 57.2 -14.55 L57.2 -14.25 54.85 -13.8 57.25 -13.8 60.2 -15.2 Q61.25 -9.8 58.8 -8.7 55.35 -9.55 54.85 -13.8 36.8 -18.55 14.15 -19.7 L10.45 -19.9 9.1 -20.0 Q-20.05 -20.9 -56.55 -16.15 -56.9 -13.1 -57.55 -11.85 -58.2 -10.65 -59.1 -11.1 -60.5 -11.7 -60.55 -15.2 -59.75 -16.25 -58.25 -16.3 L-57.55 -16.25 -56.55 -16.15 -58.0 -16.85 -57.55 -17.9 Q-39.35 -58.9 -1.7 -84.25 3.4 -87.75 8.9 -90.9 L13.6 -90.5" fill="#ffff33" fill-rule="evenodd" stroke="none"/>
    <path d="M14.15 57.9 L15.85 57.9 15.85 89.05 Q16.9 96.0 22.1 95.5 27.9 94.8 27.3 79.6 L33.05 79.6 Q35.7 97.1 26.0 101.0 L22.65 101.45 Q10.3 102.3 9.1 91.4 L9.1 57.9 14.15 57.9" fill="#2c2e35" fill-rule="evenodd" stroke="none"/>
  </g>
</svg>
