<?xml version="1.0" encoding="UTF-8" standalone="no"?>
<svg xmlns:xlink="http://www.w3.org/1999/xlink" height="121.5px" width="175.65px" xmlns="http://www.w3.org/2000/svg">
  <g transform="matrix(1.0, 0.0, 0.0, 1.0, 87.85, 60.75)">
    <path d="M-8.75 -36.25 Q-5.6 -41.2 -1.3 -45.5 14.0 -60.75 35.65 -60.75 L36.9 -60.5 33.4 -43.5 Q18.9 -43.05 8.7 -32.95 5.55 -29.65 3.3 -26.2 L8.2 -19.9 8.75 -18.95 11.55 -14.05 Q16.5 -3.8 16.5 8.5 16.5 15.55 14.9 21.85 L10.75 30.8 16.95 24.65 Q24.75 28.95 34.25 28.95 49.3 28.95 59.8 18.3 70.55 7.8 70.55 -7.3 70.55 -22.3 59.8 -32.95 51.65 -41.1 40.9 -42.9 L44.45 -60.05 Q60.45 -57.6 72.5 -45.5 79.15 -38.9 82.3 -32.1 92.05 -11.1 84.45 10.3 80.6 20.2 72.5 28.3 57.3 43.55 35.65 43.55 20.6 43.55 8.75 36.2 5.6 41.05 1.2 45.45 -14.1 60.75 -35.6 60.75 -57.25 60.75 -72.55 45.45 -87.85 30.1 -87.85 8.5 -87.85 -13.05 -72.55 -28.35 -57.25 -43.65 -35.6 -43.65 -20.65 -43.65 -8.75 -36.25 M-11.45 -15.75 L-15.55 -19.35 Q-24.8 -26.3 -37.0 -26.3 -51.95 -26.3 -62.6 -15.75 -73.2 -5.15 -73.2 9.9 -73.2 24.85 -62.6 35.5 -51.95 46.05 -37.0 46.05 -22.05 46.05 -11.45 35.5 -6.7 30.7 -4.05 25.25 -0.75 18.25 -0.75 9.9 -0.75 -5.15 -11.45 -15.75" fill="#333333" fill-rule="evenodd" stroke="none"/>
  </g>
</svg>
