<?xml version="1.0" encoding="UTF-8" standalone="no"?>
<svg xmlns:xlink="http://www.w3.org/1999/xlink" height="77.65px" width="188.05px" xmlns="http://www.w3.org/2000/svg">
  <g transform="matrix(1.0, 0.0, 0.0, 1.0, 94.05, 38.85)">
    <path d="M-23.9 -17.7 L-21.5 -13.85 Q-19.05 -9.1 -18.05 -3.85 -17.55 -1.1 -17.4 1.8 L-17.35 1.85 Q-1.05 3.6 13.9 -4.15 19.55 -6.85 23.15 -4.15 67.45 1.7 72.95 -9.65 L37.65 -22.05 11.95 -18.7 Q13.1 -16.0 8.8 -14.8 4.25 -13.65 1.5 -17.7 L-23.9 -17.7 Q-25.9 -20.7 -28.5 -23.35 -39.7 -34.4 -55.35 -34.4 -71.0 -34.4 -82.1 -23.35 -92.0 -13.5 -93.05 -0.05 -87.4 5.95 -81.55 4.0 L-78.05 2.15 -77.25 1.45 Q-76.0 -8.7 -65.8 -14.7 -63.95 -15.8 -62.0 -16.5 -53.75 -19.35 -45.55 -13.5 -40.9 -10.2 -38.15 -4.95 L-38.1 -4.9 Q-35.25 0.85 -34.5 8.9 L-34.45 10.35 Q-30.05 14.05 -25.5 13.8 -21.75 13.55 -18.05 10.35 -17.4 7.1 -17.4 3.45 L-17.4 1.8 M-25.5 13.8 Q-26.3 18.9 -28.85 23.3 L-8.1 21.7 Q10.45 20.25 13.9 10.3 20.55 8.0 24.35 13.95 37.1 19.95 51.3 18.9 61.3 18.2 72.15 13.95 79.25 10.6 80.0 2.9 80.55 -5.25 76.55 -8.2 L72.95 -9.65 M37.65 -22.05 Q48.2 -44.0 72.65 -35.45 98.2 -26.45 91.65 0.2 90.85 2.8 89.1 3.85 89.8 13.95 80.5 21.25 71.85 28.0 60.0 24.75 54.85 23.45 51.3 18.9 M-28.85 23.3 Q-30.65 26.45 -33.55 29.45 -41.75 37.8 -53.6 37.8 -65.4 37.8 -73.7 29.45 -82.0 21.1 -82.0 9.25 -82.0 6.55 -81.55 4.0 M-78.05 2.15 L-78.15 4.7 Q-78.15 15.15 -71.65 22.7 L-68.65 25.7 Q-68.55 25.7 -68.4 25.85 -63.1 30.15 -56.25 30.15 -47.15 30.15 -40.7 22.7 -35.6 16.75 -34.5 8.9 M89.1 3.85 Q85.95 5.65 80.0 2.9" fill="none" stroke="#000000" stroke-linecap="round" stroke-linejoin="round" stroke-width="2.0"/>
  </g>
</svg>
