<?xml version="1.0" encoding="UTF-8" standalone="no"?>
<svg xmlns:xlink="http://www.w3.org/1999/xlink" height="156.45px" width="122.0px" xmlns="http://www.w3.org/2000/svg">
  <g transform="matrix(1.0, 0.0, 0.0, 1.0, 80.5, 155.75)">
    <path d="M-17.05 -82.8 Q-17.05 -83.25 -15.4 -83.55 L-15.15 -83.6 -7.1 -84.25 Q2.3 -84.65 14.55 -84.65 L34.0 -84.0 Q41.6 -83.45 41.5 -82.65 41.35 -81.8 33.5 -81.25 L13.4 -80.4 Q0.95 -80.3 -7.95 -80.95 -16.75 -81.5 -17.05 -82.65 L-17.05 -82.8" fill="#000000" fill-opacity="0.76862746" fill-rule="evenodd" stroke="none"/>
    <path d="M-44.95 -155.75 L-44.95 -151.55 Q-45.4 -118.1 -44.2 -85.85 -43.25 -82.25 -40.2 -82.15 L-40.9 -82.1 Q-42.25 -81.8 -42.8 -81.1 -43.45 -80.5 -43.45 -79.25 -43.5 -78.15 -42.8 -77.45 -42.25 -76.8 -41.15 -76.7 L-40.95 -76.7 -40.25 -69.6 Q-37.55 -44.0 -9.95 -38.0 -6.8 -13.55 -14.6 0.7 L-50.15 0.7 Q-51.8 -4.0 -44.95 -3.35 -46.75 -35.9 -46.3 -44.4 -76.7 -48.15 -80.5 -81.55 L-49.1 -81.55 -49.1 -151.55 -48.85 -151.65 -48.35 -151.85 Q-46.0 -153.0 -44.95 -155.75" fill="#000000" fill-opacity="0.21960784" fill-rule="evenodd" stroke="none"/>
  </g>
</svg>
