<?xml version="1.0" encoding="UTF-8" standalone="no"?>
<svg xmlns:xlink="http://www.w3.org/1999/xlink" height="104.85px" width="156.2px" xmlns="http://www.w3.org/2000/svg">
  <g transform="matrix(1.0, 0.0, 0.0, 1.0, 78.1, 52.45)">
    <path d="M67.0 15.95 L78.1 50.35 77.6 50.35 75.6 50.75 74.55 51.5 73.85 52.4 59.7 19.25 49.7 -8.95 Q29.0 19.25 3.3 44.65 1.25 41.1 -4.15 39.2 L43.05 -15.55 -27.65 -15.55 -11.9 37.9 Q-15.45 37.65 -19.8 37.75 L-34.6 -6.75 -40.5 2.3 -50.0 16.4 -75.1 51.65 Q-76.35 50.5 -78.1 50.5 L-61.05 18.1 -37.9 -19.45 -41.4 -31.85 -33.2 -31.85 -29.65 -23.2 46.0 -23.2 37.35 -50.9 44.6 -52.45 64.4 8.9 67.0 15.95" fill="#ff0000" fill-rule="evenodd" stroke="none"/>
  </g>
</svg>
