<?xml version="1.0" encoding="UTF-8" standalone="no"?>
<svg xmlns:xlink="http://www.w3.org/1999/xlink" height="115.6px" width="134.95px" xmlns="http://www.w3.org/2000/svg">
  <g transform="matrix(1.0, 0.0, 0.0, 1.0, 67.5, 57.8)">
    <path d="M-62.05 -56.25 L59.35 -56.25 Q64.5 -55.95 67.45 -57.8 66.75 -40.25 65.15 -23.0 46.55 -20.75 28.25 -19.85 11.75 -19.05 -4.6 -19.25 L-37.0 -20.9 Q-50.35 -22.0 -63.5 -23.85 -65.7 -40.15 -67.5 -56.65 L-62.05 -56.25 M27.65 -1.0 Q45.4 -2.45 63.45 -5.7 60.05 25.0 54.4 55.25 L25.8 57.25 Q12.65 57.8 -0.7 57.8 L-23.5 57.1 -49.1 55.25 Q-55.75 25.4 -60.65 -4.9 -47.35 -2.55 -33.65 -1.3 L-3.6 0.2 27.65 -1.0" fill="#d47a3e" fill-rule="evenodd" stroke="none"/>
  </g>
</svg>
