<?xml version="1.0" encoding="UTF-8" standalone="no"?>
<svg xmlns:xlink="http://www.w3.org/1999/xlink" height="290.25px" width="718.65px" xmlns="http://www.w3.org/2000/svg">
  <g transform="matrix(1.0, 0.0, 0.0, 1.0, 359.35, 145.15)">
    <path d="M-359.35 -98.5 L-359.35 -140.35 Q-313.7 -150.85 -284.5 -138.3 L-284.2 -98.5 -359.35 -98.5 M-165.4 130.0 L-173.35 134.45 Q-239.0 138.9 -276.1 103.2 -313.2 67.35 -353.8 40.1 -342.05 35.15 -330.35 29.15 -314.8 21.2 -299.1 11.2 L-359.35 11.2 -359.35 -49.5 -275.95 -49.5 -275.65 -48.4 Q-256.6 -9.7 -209.8 -1.15 -172.7 5.35 -127.05 -19.2 -78.35 -45.25 -12.1 -43.5 L205.65 -43.5 Q250.9 -40.7 289.45 -21.8 L145.75 -21.8 Q144.5 17.25 173.55 56.3 262.6 62.7 359.3 56.3 358.5 70.2 349.65 84.8 338.55 101.6 315.05 113.65 282.25 130.3 225.45 137.15 127.8 149.2 26.95 143.0 45.15 132.55 57.7 123.95 93.85 98.45 79.9 88.95 -0.5 67.7 -75.85 80.7 L-165.4 130.0" fill="#ffffff" fill-rule="evenodd" stroke="none"/>
  </g>
</svg>
