<?xml version="1.0" encoding="UTF-8" standalone="no"?>
<svg xmlns:xlink="http://www.w3.org/1999/xlink" height="201.1px" width="272.3px" xmlns="http://www.w3.org/2000/svg">
  <g transform="matrix(1.0, 0.0, 0.0, 1.0, 254.0, 117.3)">
    <path d="M-24.2 31.45 Q-24.65 35.55 -26.15 40.45 -28.4 47.6 -32.15 53.15 -35.65 58.4 -39.05 60.15 -40.7 60.75 -41.8 60.6 -43.75 60.3 -44.7 58.05 L-44.9 57.9 Q-46.95 53.65 -45.35 44.9 -43.6 34.6 -38.15 26.5 -32.9 17.95 -28.3 18.6 -24.45 18.9 -24.0 26.2 -23.95 28.55 -24.2 31.45" fill="#2f2b28" fill-rule="evenodd" stroke="none"/>
    <path d="M-33.0 -0.75 Q-28.55 -2.5 -23.8 -2.0 -12.05 -1.35 -8.4 13.7 -7.3 18.6 -7.15 24.15 -7.0 32.55 -9.85 42.4 -14.15 57.3 -22.85 68.55 -31.75 79.35 -41.25 82.7 -45.85 83.95 -49.2 83.8 -54.9 83.0 -58.85 78.7 -59.0 78.55 -59.3 78.4 L-81.2 79.2 -95.0 79.2 -99.2 79.15 -107.85 78.7 -117.4 78.4 -120.2 78.25 -133.85 77.15 -135.75 77.0 -143.85 76.2 -154.2 74.8 -154.3 74.75 -164.45 73.5 -172.6 72.25 -188.4 69.5 -186.65 68.7 -173.4 63.05 -158.75 56.65 -155.1 55.0 -148.45 51.9 -136.4 46.35 -135.65 46.05 -122.75 39.85 -114.75 36.1 -106.1 31.95 -95.65 26.7 -93.4 25.75 -92.0 25.05 -78.85 18.45 -66.45 12.1 -42.85 -0.1 -33.0 -0.75 M-24.2 31.45 Q-23.95 28.55 -24.0 26.2 -24.45 18.9 -28.3 18.6 -32.9 17.95 -38.15 26.5 -43.6 34.6 -45.35 44.9 -46.95 53.65 -44.9 57.9 L-44.7 58.05 Q-43.75 60.3 -41.8 60.6 -40.7 60.75 -39.05 60.15 -35.65 58.4 -32.15 53.15 -28.4 47.6 -26.15 40.45 -24.65 35.55 -24.2 31.45" fill="#000000" fill-opacity="0.2784314" fill-rule="evenodd" stroke="none"/>
    <path d="M6.85 -94.6 L3.2 -94.15 0.85 -93.95 Q-6.45 -93.95 -11.7 -97.45 -13.9 -98.85 -15.1 -100.5 L-16.05 -102.1 Q-16.75 -103.65 -16.75 -105.4 -16.75 -107.1 -16.05 -108.6 -15.55 -109.8 -14.65 -110.85 -13.5 -112.25 -11.7 -113.5 -8.5 -115.4 -4.7 -116.15 L0.85 -116.65 3.2 -116.65 Q8.95 -116.15 13.2 -113.5 18.3 -110.0 18.3 -105.4 18.3 -100.65 13.2 -97.45 10.2 -95.4 6.85 -94.6 M-241.6 -95.1 Q-245.75 -95.9 -248.9 -97.95 -254.0 -101.25 -254.0 -105.85 -254.0 -110.8 -248.9 -113.95 -245.75 -116.15 -241.6 -116.8 L-236.55 -117.3 Q-229.1 -117.3 -224.0 -113.95 -218.95 -110.8 -218.95 -105.85 -218.95 -101.25 -224.0 -97.95 -229.1 -94.6 -236.55 -94.6 L-241.6 -95.1 M-192.6 -116.8 L-187.7 -117.3 -186.05 -117.25 -181.0 -116.45 Q-177.9 -115.65 -175.35 -113.95 -170.1 -110.8 -170.1 -105.85 -170.1 -101.25 -175.35 -97.95 -177.85 -96.3 -180.9 -95.45 L-186.05 -94.65 -187.7 -94.6 -192.6 -95.1 Q-196.75 -95.9 -200.05 -97.95 -205.3 -101.25 -205.3 -105.85 -205.3 -110.8 -200.05 -113.95 -196.75 -116.15 -192.6 -116.8 M-53.55 -116.15 L-48.0 -116.65 -45.6 -116.65 Q-39.9 -116.15 -35.45 -113.5 -30.4 -110.0 -30.4 -105.4 -30.4 -100.65 -35.45 -97.45 -38.5 -95.4 -41.95 -94.6 L-45.6 -94.15 -48.0 -93.95 Q-55.3 -93.95 -60.35 -97.45 -65.45 -100.65 -65.45 -105.4 -65.45 -110.0 -60.35 -113.5 -57.35 -115.4 -53.55 -116.15 M-159.15 -105.85 Q-159.15 -110.8 -154.1 -113.95 -149.0 -117.3 -141.7 -117.3 L-138.65 -117.15 Q-135.9 -116.85 -133.5 -116.0 -131.2 -115.25 -129.2 -113.95 -124.1 -110.8 -124.1 -105.85 -124.1 -101.25 -129.2 -97.95 -131.15 -96.7 -133.4 -95.9 -135.85 -95.05 -138.65 -94.75 L-141.7 -94.6 Q-149.0 -94.6 -154.1 -97.95 -159.15 -101.25 -159.15 -105.85 M-100.65 -116.15 L-95.1 -116.65 Q-87.95 -116.65 -82.7 -113.5 -77.65 -110.0 -77.65 -105.4 -77.65 -100.65 -82.7 -97.45 -84.8 -96.05 -87.5 -95.25 -90.95 -93.95 -95.1 -93.95 -102.55 -93.95 -107.6 -97.45 -112.7 -100.65 -112.7 -105.4 -112.7 -110.0 -107.6 -113.5 -104.45 -115.4 -100.65 -116.15" fill="#000000" fill-opacity="0.1764706" fill-rule="evenodd" stroke="none"/>
  </g>
</svg>
