<?xml version="1.0" encoding="UTF-8" standalone="no"?>
<svg xmlns:xlink="http://www.w3.org/1999/xlink" height="381.55px" width="490.75px" xmlns="http://www.w3.org/2000/svg">
  <g transform="matrix(1.0, 0.0, 0.0, 1.0, 245.4, 190.8)">
    <path d="M98.1 -102.85 Q83.45 -111.55 64.5 -108.9 59.6 -108.35 54.4 -106.9 48.45 -105.25 43.4 -103.0 14.45 -91.05 3.65 -67.15 L-19.95 -74.9 Q-19.95 -75.85 -19.25 -76.3 -17.45 -81.05 -19.4 -86.7 -21.5 -92.6 -26.45 -95.8 -31.65 -99.2 -37.55 -97.5 -43.6 -96.25 -44.4 -91.6 -45.7 -87.4 -44.15 -82.6 -42.3 -77.95 -38.8 -75.85 L-34.0 -72.5 Q-35.3 -71.95 -36.0 -72.2 -41.6 -73.75 -46.8 -72.35 -53.3 -71.35 -55.1 -67.3 -55.95 -66.15 -55.65 -64.6 -55.65 -62.1 -52.3 -59.15 -48.1 -54.8 -41.9 -54.5 -36.95 -54.65 -32.5 -56.05 -28.8 -57.75 -27.7 -59.85 -27.4 -62.1 -26.55 -62.65 L1.55 -53.5 Q1.8 -40.45 11.65 -29.35 14.2 -25.85 16.55 -23.55 L-2.5 -0.7 -12.15 -0.7 -12.65 -0.7 Q-18.85 -0.7 -22.9 1.7 -25.05 2.95 -26.1 4.65 -27.15 6.4 -27.0 8.6 -26.7 13.05 -22.35 15.05 -18.0 16.85 -12.65 17.0 -7.3 17.0 -4.35 15.3 -1.55 13.2 -0.15 12.65 0.15 13.35 -0.15 14.05 -2.55 17.55 -2.0 22.2 -1.4 27.4 2.5 30.2 6.9 33.3 12.8 30.5 L14.35 29.75 Q18.25 27.5 18.95 23.45 19.45 20.35 18.75 17.25 L18.05 14.4 Q17.45 12.25 15.7 10.4 L12.65 7.25 31.45 -17.7 41.15 -15.55 Q26.85 -1.5 35.4 5.6 43.95 12.65 52.25 7.65 60.55 2.65 65.3 -4.0 63.6 -0.55 70.95 6.35 78.25 13.2 93.15 6.75 105.55 1.3 99.65 -14.6 108.7 3.75 127.45 -12.9 128.85 -19.65 107.8 -27.65 L112.3 -32.45 140.65 -20.35 Q140.1 -19.95 140.1 -19.1 139.0 -14.6 141.25 -9.25 143.35 -3.9 147.25 -0.7 151.05 2.15 155.85 1.15 160.35 0.45 161.35 -3.65 162.15 -7.7 160.9 -12.35 159.5 -17.25 156.55 -19.65 L152.35 -23.15 Q153.05 -23.7 153.9 -23.6 158.65 -21.9 163.85 -23.15 169.6 -24.7 171.85 -29.05 172.85 -31.6 172.3 -34.4 171.6 -37.05 169.5 -39.75 165.25 -44.95 159.1 -44.95 154.0 -45.1 150.1 -42.85 146.55 -40.85 146.0 -37.8 L145.15 -34.0 120.15 -43.55 121.4 -45.95 Q130.15 -65.9 115.65 -87.65 L109.6 -94.15 121.7 -108.2 Q122.1 -107.65 122.8 -107.35 126.9 -104.25 132.8 -103.55 139.25 -102.85 143.75 -104.8 148.55 -106.9 148.7 -111.85 149.1 -116.5 144.75 -119.15 140.1 -121.7 134.35 -122.5 129.15 -123.1 125.9 -121.4 122.8 -119.55 121.55 -119.15 121.15 -120.0 121.55 -120.55 124.35 -124.35 123.95 -129.0 123.95 -134.6 120.45 -138.0 116.35 -141.35 110.45 -138.95 105.4 -137.0 104.15 -132.35 103.3 -128.3 104.25 -124.2 105.4 -121.0 107.5 -119.45 L110.3 -117.6 98.1 -102.85 M182.7 -177.9 L194.2 -182.95 Q194.75 -183.4 195.35 -183.5 L203.35 -187.6 Q206.45 -189.3 209.8 -190.8 L210.8 -187.75 212.5 -183.1 212.6 -182.25 Q227.5 -136.15 225.0 -85.55 222.2 -32.6 200.55 24.75 150.8 37.25 72.65 50.2 L60.0 52.45 52.4 53.55 32.45 56.65 -52.55 68.9 -88.4 73.55 -87.85 68.9 Q-78.15 -43.25 -121.6 -133.65 -123.55 -137.85 -125.8 -141.9 -112.45 -138.95 -99.1 -136.85 -30.1 -126.05 41.3 -136.7 L62.95 -140.5 Q122.0 -151.9 182.7 -177.9 M245.35 150.4 L242.3 155.6 Q234.55 167.7 223.0 177.4 10.4 202.8 -205.9 179.8 L-192.45 159.3 Q-170.5 171.35 -166.55 168.4 -162.45 165.0 -169.8 161.25 L-182.3 155.9 Q29.2 173.05 245.35 150.4 M-217.7 179.05 L-218.55 178.35 Q-234.55 166.0 -245.4 148.0 L-210.4 151.95 -202.65 156.05 -217.7 179.05 M-117.8 173.45 Q-117.8 169.8 -121.3 167.15 -124.8 164.3 -129.6 164.3 -134.65 164.3 -138.15 167.15 -141.55 169.8 -141.55 173.45 -141.55 177.4 -138.15 180.2 -134.65 182.6 -129.6 182.75 -124.8 182.6 -121.3 180.2 -117.8 177.4 -117.8 173.45 M136.45 173.45 Q136.45 169.8 132.65 167.15 128.85 164.3 123.5 164.3 118.2 164.3 114.25 167.15 110.6 169.8 110.6 173.45 110.6 177.4 114.25 180.2 118.2 182.6 123.5 182.75 128.85 182.6 132.65 180.2 136.45 177.4 136.45 173.45 M-7.9 171.05 Q-11.7 173.75 -11.7 177.65 -11.7 181.3 -7.9 184.15 -4.1 186.65 1.4 186.8 6.6 186.65 10.4 184.15 14.2 181.3 14.2 177.65 14.2 173.75 10.4 171.05 6.6 168.4 1.4 168.4 -4.1 168.4 -7.9 171.05" fill="#333333" fill-rule="evenodd" stroke="none"/>
  </g>
</svg>
