<?xml version="1.0" encoding="UTF-8" standalone="no"?>
<svg xmlns:xlink="http://www.w3.org/1999/xlink" height="422.05px" width="811.95px" xmlns="http://www.w3.org/2000/svg">
  <g transform="matrix(1.0, 0.0, 0.0, 1.0, 405.95, 211.05)">
    <path d="M-263.65 185.4 L-289.95 185.25 -289.95 197.9 -263.65 197.9 -263.65 185.4 M-297.7 185.25 L-322.85 185.0 -322.85 197.9 -297.7 197.9 -297.7 185.25 M-245.1 185.4 L-257.05 185.4 -257.05 197.9 -245.1 197.9 -245.1 185.4 M-393.1 185.4 Q-406.45 185.4 -405.9 176.55 -406.6 164.45 -388.35 165.6 L-240.35 165.6 -238.1 165.6 Q-222.2 165.3 -222.75 176.7 -222.2 186.1 -237.25 185.4 L-237.25 197.9 Q-222.2 198.05 -222.75 203.7 -222.2 208.3 -237.25 207.9 L-387.75 207.75 Q-406.6 208.75 -405.9 203.55 -406.45 198.2 -393.1 197.9 L-393.1 185.4 M13.6 204.4 Q12.5 191.3 31.75 186.65 113.1 180.5 165.1 186.4 170.2 186.8 173.15 188.1 L175.4 189.5 176.35 190.45 176.8 191.75 176.8 193.0 Q177.35 196.95 168.75 195.95 101.15 193.0 37.5 194.25 23.05 194.25 13.6 204.4 M-330.4 185.0 L-357.25 185.0 -357.25 197.9 -330.4 197.9 -330.4 185.0 M-366.1 185.0 L-384.8 184.85 -384.8 197.9 -366.1 197.9 -366.1 185.0" fill="#ffcc49" fill-rule="evenodd" stroke="none"/>
    <path d="M-81.65 -99.35 L-84.35 -210.35 -81.65 -209.95 Q-79.4 -209.95 -77.45 -211.05 L-72.55 -100.05 Q-65.8 -94.0 -65.35 -91.15 -76.05 -88.2 -87.55 -89.35 L-81.65 -99.35 M406.0 139.75 L194.5 211.0 Q197.15 199.05 187.75 188.1 L406.0 139.75" fill="#ffcb4f" fill-rule="evenodd" stroke="none"/>
  </g>
</svg>
