<?xml version="1.0" encoding="UTF-8" standalone="no"?>
<svg xmlns:xlink="http://www.w3.org/1999/xlink" height="153.55px" width="339.7px" xmlns="http://www.w3.org/2000/svg">
  <g transform="matrix(1.0, 0.0, 0.0, 1.0, 169.85, 76.8)">
    <path d="M27.65 -63.4 L1.05 -63.4 Q-6.7 -56.45 -12.65 -65.8 -13.95 -69.4 -13.4 -72.15 -12.35 -77.15 -7.4 -76.8 L32.65 -76.8 Q52.55 -67.55 72.3 -55.55 67.3 -56.3 63.1 -55.6 51.7 -54.05 40.05 -47.45 37.95 -55.95 27.65 -63.4 M-3.6 12.3 Q35.8 8.8 56.4 -4.0 125.6 -1.65 169.85 -3.9 169.95 1.8 167.8 8.6 L162.2 9.55 Q160.15 21.45 154.1 28.9 146.45 38.35 131.25 45.85 L129.85 46.5 Q124.15 60.25 83.55 70.1 -21.05 83.45 -129.4 70.1 -147.65 67.95 -141.7 59.85 -153.05 53.5 -154.4 36.65 -171.75 38.75 -169.6 26.75 -168.4 22.65 -165.1 21.15 -167.0 6.3 -155.4 8.85 -152.15 4.55 -146.8 3.3 -145.3 -20.75 -128.7 -18.35 -127.3 -60.95 -88.4 -36.75 -69.75 -40.25 -58.45 -30.7 -34.85 -35.75 -20.65 -25.4 -5.35 -31.25 10.9 -23.65 7.05 -19.65 4.75 -14.55 -2.0 -1.05 -3.6 12.3" fill="#e6e7e9" fill-rule="evenodd" stroke="none"/>
  </g>
</svg>
