<?xml version="1.0" encoding="UTF-8" standalone="no"?>
<svg xmlns:xlink="http://www.w3.org/1999/xlink" height="358.9px" width="411.25px" xmlns="http://www.w3.org/2000/svg">
  <g transform="matrix(1.0, 0.0, 0.0, 1.0, 205.65, 179.45)">
    <path d="M9.75 -119.3 L31.85 -119.3 31.85 -83.05 Q47.15 -75.95 47.8 -59.6 L47.8 -6.15 123.75 -6.15 Q135.25 -33.7 145.1 -30.6 152.3 -28.75 144.6 -6.15 L167.95 -6.15 Q196.1 -7.15 195.45 13.8 L195.45 30.25 195.45 81.85 195.45 94.25 Q207.9 98.8 203.4 140.1 L164.1 141.05 Q161.45 154.3 151.15 164.35 137.3 178.45 117.65 178.45 98.05 178.45 84.15 164.35 74.4 154.8 71.5 142.45 6.85 142.9 -57.05 142.15 -59.95 154.7 -69.7 164.35 -83.55 178.45 -103.2 178.45 -122.95 178.45 -136.8 164.35 -147.2 154.2 -149.85 140.5 L-165.1 140.1 Q-188.3 142.35 -186.75 115.65 -209.35 120.05 -203.4 54.7 -195.3 51.5 -192.85 45.25 L-194.8 -59.4 Q-193.05 -122.4 -87.7 -119.3 L-81.3 -119.3 Q-83.05 -137.4 -67.35 -138.2 L-67.35 -165.15 Q-67.75 -180.35 -41.6 -178.2 L-30.05 -178.2 -15.5 -178.2 Q-2.9 -178.1 -3.6 -165.8 L-3.6 -138.2 1.1 -138.2 Q11.6 -138.1 9.75 -119.3 L-81.3 -119.3 M47.8 -6.15 L31.85 -6.15 31.85 -83.05 M123.75 -6.15 L128.75 -6.15 Q136.8 -24.55 141.4 -24.55 L142.35 -24.25 Q143.9 -23.6 143.35 -19.4 142.65 -14.9 139.35 -6.15 L144.6 -6.15 M139.35 -6.15 L128.75 -6.15 M195.45 81.85 Q186.95 82.45 181.1 80.4 173.15 77.6 170.0 70.2 168.45 66.7 168.05 62.4 167.5 57.7 168.25 51.9 169.35 36.5 181.5 31.35 187.05 28.8 195.45 30.25 M195.45 94.25 L188.9 94.05 148.5 94.9 151.15 97.35 Q165.05 111.35 165.05 130.85 165.05 136.2 164.1 141.05 M71.5 142.45 Q70.2 136.9 70.2 130.85 70.2 111.35 84.15 97.35 L85.8 95.7 Q7.7 96.55 -70.7 96.45 L-69.7 97.35 Q-55.7 111.35 -55.7 130.85 -55.7 136.8 -57.05 142.15 M85.8 95.7 Q99.25 83.5 117.65 83.5 135.45 83.5 148.5 94.9 M117.65 113.8 Q124.75 113.8 129.7 118.85 134.75 123.85 134.75 130.95 134.75 137.15 131.15 141.65 L129.7 143.1 Q124.75 148.1 117.65 148.1 110.6 148.1 105.55 143.1 L104.6 142.05 Q100.5 137.45 100.5 130.95 100.5 123.85 105.55 118.85 110.6 113.8 117.65 113.8 M134.4 114.2 Q141.3 121.2 141.3 130.85 141.3 136.7 138.85 141.55 137.2 144.85 134.4 147.6 127.55 154.6 117.65 154.6 107.9 154.6 101.0 147.6 98.45 145.05 96.8 142.15 94.05 137.15 94.05 130.85 94.05 121.2 101.0 114.2 107.9 107.2 117.65 107.2 127.55 107.2 134.4 114.2 M-41.6 -178.2 L-41.6 -173.8 -41.6 -164.55 -41.6 -138.2 -30.05 -138.2 -30.05 -164.55 -30.05 -173.8 -30.05 -178.2 M-52.95 -138.2 L-41.6 -138.2 M-59.6 -138.2 L-52.95 -138.2 M-67.35 -138.2 Q-65.4 -138.4 -63.0 -138.2 L-59.6 -138.2 M-11.85 -138.2 L-3.6 -138.2 M-18.5 -138.2 L-11.85 -138.2 M-30.05 -138.2 L-18.5 -138.2 M-149.85 140.5 Q-150.7 135.9 -150.7 130.85 -150.7 111.35 -136.8 97.35 L-135.45 96.1 -166.2 95.7 Q-187.5 94.7 -186.75 115.65 M-135.45 96.1 Q-122.0 83.5 -103.2 83.5 -84.3 83.5 -70.7 96.45 M-103.2 107.2 Q-93.45 107.2 -86.55 114.2 -79.55 121.2 -79.55 130.85 -79.55 136.9 -82.25 141.85 -83.9 144.95 -86.55 147.6 -93.45 154.6 -103.2 154.6 -112.95 154.6 -119.95 147.6 -122.95 144.65 -124.6 141.15 -126.95 136.5 -126.95 130.85 -126.95 121.2 -119.95 114.2 -112.95 107.2 -103.2 107.2 M-103.2 113.8 Q-96.1 113.8 -91.05 118.85 -86.05 123.85 -86.05 130.95 -86.05 137.15 -89.95 141.75 L-91.05 143.1 Q-96.1 148.1 -103.2 148.1 -110.3 148.1 -115.35 143.1 L-116.95 141.35 Q-120.35 136.8 -120.35 130.95 -120.35 123.85 -115.35 118.85 -110.3 113.8 -103.2 113.8" fill="none" stroke="#000000" stroke-linecap="round" stroke-linejoin="round" stroke-width="2.0"/>
    <path d="M181.1 80.4 Q177.3 56.85 181.5 31.35 M-52.95 -138.2 Q-52.8 -163.95 -41.6 -164.55 M-59.6 -138.2 Q-59.9 -170.25 -41.6 -173.8 M-11.85 -138.2 Q-11.55 -170.25 -30.05 -173.8 M-18.5 -138.2 Q-18.65 -163.95 -30.05 -164.55" fill="none" stroke="#000000" stroke-linecap="round" stroke-linejoin="round" stroke-opacity="0.46666667" stroke-width="2.0"/>
  </g>
</svg>
