<?xml version="1.0" encoding="UTF-8" standalone="no"?>
<svg xmlns:xlink="http://www.w3.org/1999/xlink" height="137.6px" width="525.65px" xmlns="http://www.w3.org/2000/svg">
  <g transform="matrix(1.0, 0.0, 0.0, 1.0, 262.85, 68.8)">
    <path d="M92.95 -67.65 L92.95 -67.25 Q92.95 -66.15 91.8 -64.65 L91.55 -64.2 Q90.45 -63.0 89.25 -62.3 87.65 -61.3 86.7 -61.85 L86.5 -61.85 86.4 -61.95 Q85.75 -62.4 86.15 -63.65 L86.3 -64.2 Q86.6 -65.35 87.65 -66.4 88.65 -67.65 90.1 -68.25 91.25 -68.9 92.1 -68.8 92.8 -68.4 92.95 -67.65 M179.85 10.6 L254.45 10.6 Q267.2 11.75 260.5 45.95 L188.6 45.95 188.85 40.4 Q188.85 23.55 179.85 10.6 M82.8 -41.2 L83.95 -41.75 Q93.55 -39.5 100.0 -42.35 100.3 -36.2 93.45 -35.3 83.65 -35.35 81.85 -39.55 82.55 -40.15 82.8 -41.2 M160.1 41.4 L159.8 45.95 Q159.1 50.35 157.15 54.1 155.35 57.7 152.3 60.85 144.6 68.75 133.65 68.8 122.7 68.75 114.95 60.85 111.5 57.35 109.65 53.25 108.05 49.85 107.45 45.95 L107.2 41.4 Q107.2 30.15 114.95 22.0 122.7 14.1 133.65 14.1 144.6 14.1 152.3 22.0 160.1 30.15 160.1 41.4 M-0.65 12.85 L90.1 12.85 Q82.55 25.1 82.55 40.4 L82.8 45.95 -98.6 45.95 -98.4 40.4 Q-98.5 25.1 -105.95 12.85 L-101.75 12.85 -90.3 32.7 -0.65 32.7 -0.65 12.85 M-113.2 -27.8 L-83.5 -27.8 -83.5 -21.15 -113.2 -21.15 -113.2 -27.8 M-127.25 41.4 L-127.4 45.95 Q-128.1 50.35 -130.1 54.1 -131.95 57.7 -134.9 60.85 -142.7 68.75 -153.7 68.8 -164.6 68.75 -172.35 60.85 -175.7 57.35 -177.65 53.25 -179.3 49.85 -179.8 45.95 L-180.05 41.4 Q-180.05 30.15 -172.35 22.0 -164.6 14.1 -153.7 14.1 -142.7 14.1 -134.9 22.0 -127.25 30.15 -127.25 41.4 M-204.5 45.95 L-248.9 45.95 Q-264.1 48.0 -262.75 23.4 -263.4 4.0 -243.75 7.45 L-193.35 7.45 Q-204.75 21.6 -204.7 40.4 L-204.5 45.95" fill="#a9a8ab" fill-rule="evenodd" stroke="none"/>
  </g>
</svg>
