<?xml version="1.0" encoding="UTF-8" standalone="no"?>
<svg xmlns:xlink="http://www.w3.org/1999/xlink" height="136.75px" width="206.4px" xmlns="http://www.w3.org/2000/svg">
  <g transform="matrix(1.0, 0.0, 0.0, 1.0, 103.2, 68.4)">
    <path d="M55.05 -59.25 L57.85 -59.3 65.15 -59.45 67.9 -59.5 66.55 -65.3 Q61.65 -65.45 53.75 -65.05 L54.85 -61.15 54.8 -60.2 Q54.6 -58.75 54.05 -57.55 L53.7 -57.0 53.05 -56.35 52.6 -56.15 Q52.3 -55.95 52.05 -55.9 51.45 -55.9 50.95 -56.35 L50.25 -57.3 Q49.45 -55.9 48.35 -55.85 47.35 -55.85 46.7 -57.0 46.0 -55.8 45.0 -55.8 43.85 -55.8 42.95 -57.35 L42.95 -57.45 42.85 -57.35 Q42.1 -55.75 40.85 -55.75 39.9 -55.7 39.1 -57.1 38.25 -55.7 37.2 -55.65 36.3 -55.65 35.65 -56.7 34.9 -55.65 34.05 -55.6 32.85 -55.6 32.05 -57.2 31.25 -58.8 31.2 -61.1 31.2 -63.3 31.9 -64.95 32.7 -66.6 33.9 -66.6 34.75 -66.65 35.5 -65.6 36.15 -66.65 37.05 -66.65 38.1 -66.7 38.95 -65.25 39.75 -66.7 40.7 -66.75 41.95 -66.75 42.7 -65.1 L42.8 -64.95 42.8 -65.1 Q43.7 -66.8 44.85 -66.8 45.85 -66.8 46.55 -65.6 47.2 -66.85 48.2 -66.85 49.3 -66.9 50.1 -65.45 L50.95 -66.55 51.9 -66.9 53.05 -66.95 53.2 -66.95 53.75 -65.05 M50.1 -65.45 L50.1 -65.25 Q50.75 -64.15 50.95 -62.8 L51.05 -61.45 50.95 -59.75 50.25 -57.5 50.25 -57.3 M46.55 -65.6 L46.75 -65.2 Q47.65 -63.6 47.65 -61.4 47.7 -59.1 46.9 -57.45 L46.7 -57.0 M42.8 -64.95 Q43.65 -63.45 43.65 -61.35 43.7 -59.1 42.95 -57.45 M74.6 -65.75 L74.5 -65.9 Q73.5 -67.3 72.45 -67.2 71.65 -67.15 71.0 -66.3 L71.4 -65.7 Q72.4 -64.25 72.8 -62.15 73.0 -60.0 72.45 -58.6 L72.1 -58.0 Q72.95 -57.15 73.8 -57.15 74.9 -57.15 75.55 -58.45 L75.55 -58.65 Q76.15 -60.05 75.9 -62.2 75.7 -64.3 74.6 -65.75 M78.45 -65.85 L78.45 -65.75 Q79.35 -64.25 79.7 -62.25 79.85 -60.2 79.35 -58.8 L79.4 -58.7 Q80.4 -57.25 81.55 -57.3 82.6 -57.3 83.1 -58.25 L83.25 -58.75 Q83.95 -60.2 83.8 -62.35 83.4 -64.4 82.35 -65.9 L82.05 -66.3 Q81.15 -67.45 80.25 -67.3 79.1 -67.3 78.45 -65.85 M74.5 -65.9 Q75.1 -67.35 76.25 -67.25 77.3 -67.25 78.35 -65.85 L78.45 -65.75 M66.55 -65.3 L67.4 -65.3 67.45 -65.65 Q68.1 -67.1 69.25 -67.1 70.15 -67.15 71.0 -66.3 M72.1 -58.0 Q71.55 -57.1 70.65 -57.1 69.5 -57.1 68.5 -58.5 L67.9 -59.5 M79.35 -58.8 L79.25 -58.7 Q78.7 -57.25 77.55 -57.2 76.5 -57.2 75.55 -58.45 M35.5 -65.6 L35.9 -65.0 Q36.7 -63.4 36.7 -61.2 36.75 -58.9 36.05 -57.25 L35.65 -56.7 M38.95 -65.25 L39.0 -65.05 Q40.0 -63.45 40.0 -61.25 40.05 -58.95 39.15 -57.3 L39.1 -57.1 M82.05 -66.3 Q82.65 -67.45 83.6 -67.4 84.6 -67.5 85.65 -66.1 L85.75 -65.95 Q86.75 -64.5 87.15 -62.4 87.35 -60.25 86.7 -58.85 L86.65 -58.65 Q85.95 -57.35 84.9 -57.35 83.95 -57.35 83.1 -58.25 M65.15 -59.45 L80.85 26.35 Q93.35 25.4 96.05 34.15 89.15 33.2 83.9 34.25 L86.6 40.35 88.3 40.1 Q94.0 40.05 98.15 43.95 102.1 47.9 102.2 53.45 102.3 59.2 98.5 63.3 94.5 67.3 88.8 67.35 83.15 67.45 79.05 63.65 75.5 60.15 75.05 55.3 L74.95 53.9 Q74.85 48.35 78.7 44.3 79.7 43.35 80.6 42.65 L79.2 39.55 Q71.45 45.85 71.3 54.9 24.25 59.5 -65.3 59.55 -66.15 61.3 -67.7 62.85 -69.05 64.35 -70.8 65.25 -73.6 66.95 -77.25 67.0 -82.85 67.1 -87.0 63.2 -90.55 59.7 -91.0 54.95 L-91.15 53.55 Q-91.2 49.6 -89.25 46.5 -93.7 51.35 -98.8 49.25 -102.5 44.4 -102.15 39.65 L-102.05 39.15 -101.95 38.65 Q-101.25 34.25 -97.5 30.15 -88.7 20.35 -74.05 20.3 -62.55 20.1 -55.2 26.95 -49.45 32.1 -49.35 39.55 L-49.55 41.7 Q-3.65 43.35 63.6 38.95 63.85 30.8 74.15 26.95 L57.85 -59.3 M88.55 49.9 Q90.1 49.9 91.25 51.05 92.35 52.1 92.35 53.6 92.4 55.35 91.35 56.45 90.25 57.6 88.7 57.6 87.1 57.65 85.95 56.5 84.8 55.5 84.75 53.75 84.75 52.25 85.85 51.1 86.95 49.95 88.55 49.9 M74.15 26.95 L80.85 26.35 M83.9 34.25 Q80.6 34.9 77.8 36.3 L79.2 39.55 M-49.55 41.7 L-53.1 41.45 -61.7 52.6 Q-23.9 56.8 67.75 50.8 L63.6 38.95 M77.8 36.3 Q70.15 40.45 67.75 50.8 M80.6 42.65 Q83.25 40.75 86.6 40.35 M-65.3 59.55 Q-73.15 59.05 -75.35 57.25 -76.45 58.2 -78.15 58.25 -80.15 58.25 -81.55 56.9 -82.9 55.6 -82.95 53.55 -83.0 51.6 -81.65 50.2 -80.85 49.4 -79.8 49.1 L-79.1 48.9 -78.35 48.8 -77.95 48.8 -76.85 49.05 -67.75 43.7 -68.0 43.55 Q-72.0 39.55 -77.75 39.65 -83.35 39.75 -87.3 43.9 L-88.0 44.65 -89.25 46.5 M-67.75 43.7 Q-66.7 44.75 -65.55 46.55 -63.95 49.0 -63.8 52.65 L-61.7 52.6 M-65.55 46.55 L-73.65 52.1 -73.6 52.8 -63.8 52.65 M-75.35 55.65 L-75.35 57.25 -74.95 56.85 -74.95 56.8 -74.9 56.8 -74.1 55.85 Q-73.55 54.8 -73.6 53.4 L-73.6 52.8 -74.8 52.85 -73.65 52.1 Q-74.1 51.0 -75.05 50.1 -75.8 49.3 -76.85 49.05 M-74.9 56.8 L-74.95 56.85 M-77.95 48.8 L-79.05 49.95 M-79.1 48.9 L-79.8 49.65" fill="none" stroke="#000000" stroke-linecap="round" stroke-linejoin="round" stroke-width="2.0"/>
  </g>
</svg>
