<?xml version="1.0" encoding="UTF-8" standalone="no"?>
<svg xmlns:xlink="http://www.w3.org/1999/xlink" height="186.7px" width="529.5px" xmlns="http://www.w3.org/2000/svg">
  <g transform="matrix(1.0, 0.0, 0.0, 1.0, 264.75, 93.35)">
    <path d="M-51.35 31.3 L-51.35 26.1 -75.05 26.1 -75.05 31.3 -51.35 31.3 M256.45 12.05 Q244.5 7.3 237.9 6.25 227.35 4.55 229.75 11.7 L233.75 30.0 Q234.65 37.0 244.2 38.95 251.65 40.55 264.3 39.2 265.05 43.95 264.5 52.45 252.1 50.75 232.8 51.9 228.95 37.0 215.1 37.05 L155.45 37.05 Q141.05 36.35 136.15 52.45 134.45 67.8 130.6 78.05 126.55 88.45 120.25 93.35 L-104.5 93.35 -104.5 68.0 Q-103.55 37.0 -123.45 37.15 L-183.2 37.15 -185.45 37.15 Q-195.65 37.6 -200.55 47.6 L-264.75 47.6 -264.75 40.0 Q-264.75 10.35 -262.1 -13.4 L-202.6 -10.45 Q-158.0 -9.75 -113.35 -13.4 -101.2 -43.4 -93.15 -74.7 -90.2 -85.85 -99.05 -93.35 L-71.75 -91.55 Q-74.95 -54.6 -71.75 -19.4 -70.3 -11.0 -54.95 -8.5 L-53.85 -8.3 -53.5 -8.3 -38.3 -7.5 46.55 -7.5 Q46.65 -7.35 46.9 -7.25 51.65 -3.4 60.3 -2.6 L67.0 -2.95 Q70.3 -3.75 72.55 -5.7 79.05 -3.75 85.4 -3.95 L76.3 -11.8 Q76.9 -13.95 76.75 -16.25 76.35 -21.9 71.2 -25.75 66.0 -29.5 58.75 -29.55 L57.1 -29.55 Q57.45 -65.75 36.9 -88.0 L49.75 -87.2 Q68.5 -52.1 91.0 -17.6 173.0 -18.2 246.1 -4.45 252.15 2.95 256.45 12.05" fill="#4669ab" fill-rule="evenodd" stroke="none"/>
  </g>
</svg>
