<?xml version="1.0" encoding="UTF-8" standalone="no"?>
<svg xmlns:xlink="http://www.w3.org/1999/xlink" height="113.8px" width="487.45px" xmlns="http://www.w3.org/2000/svg">
  <g transform="matrix(1.0, 0.0, 0.0, 1.0, 243.75, 56.9)">
    <path d="M148.5 -11.5 L148.5 -6.4 142.25 -6.85 137.45 -6.65 137.45 -11.65 141.8 -11.75 148.5 -11.5 M234.2 -2.75 Q244.2 -1.3 243.65 11.0 L243.65 26.7 Q245.35 43.05 192.8 39.4 L192.8 39.15 Q192.8 18.8 178.75 4.15 L234.2 4.05 234.2 -2.75 M-170.3 -8.8 Q-180.5 -5.15 -188.7 3.05 -193.25 7.6 -196.4 12.8 -202.7 22.95 -203.45 35.45 L-228.7 35.45 Q-244.4 35.75 -243.7 13.8 L-243.7 -0.6 Q-243.7 -4.05 -242.1 -6.05 -239.95 -8.9 -234.6 -8.8 L-170.3 -8.8 M-160.3 -6.4 L-160.3 -11.3 -152.75 -11.75 -146.95 -11.55 -146.95 -6.5 -152.3 -6.85 -160.3 -6.4 M-50.8 -56.9 L-8.75 -56.9 -8.75 -47.35 -50.8 -47.35 -50.8 -56.9" fill="#a7a8ad" fill-rule="evenodd" stroke="none"/>
    <path d="M142.25 23.05 Q149.2 23.15 154.2 28.05 156.0 29.95 157.15 32.0 159.2 35.65 159.2 40.1 159.2 46.0 155.55 50.55 L154.2 52.0 Q149.2 56.7 142.25 56.9 135.2 56.7 130.2 51.8 L129.3 50.75 Q125.1 46.1 125.1 39.85 125.05 35.55 127.1 32.0 128.25 29.75 130.2 27.8 135.2 22.8 142.25 23.05 M-140.35 52.0 Q-145.35 56.7 -152.3 56.9 -159.35 56.7 -164.35 51.8 L-165.25 50.75 Q-169.45 46.1 -169.45 39.85 -169.5 35.55 -167.45 32.0 -166.3 29.75 -164.35 27.8 -159.35 22.8 -152.3 23.05 -145.35 23.15 -140.35 28.05 -138.55 29.95 -137.4 32.0 -135.35 35.65 -135.35 40.1 -135.35 46.0 -139.0 50.55 L-140.35 52.0" fill="#c7c7c7" fill-rule="evenodd" stroke="none"/>
  </g>
</svg>
