<?xml version="1.0" encoding="UTF-8" standalone="no"?>
<svg xmlns:xlink="http://www.w3.org/1999/xlink" height="240.95px" width="533.4px" xmlns="http://www.w3.org/2000/svg">
  <g transform="matrix(1.0, 0.0, 0.0, 1.0, 266.7, 120.5)">
    <path d="M88.25 -109.25 Q89.3 -112.15 88.05 -115.75 79.95 -119.65 72.0 -118.7 74.4 -114.6 72.0 -109.25 L88.25 -109.25 93.5 -102.6 Q115.2 -72.7 152.9 -38.2 170.4 -31.05 192.65 -27.45 229.1 -21.9 246.8 -5.85 257.55 4.0 261.1 16.9 263.1 24.5 262.9 32.45 L262.9 37.6 Q266.0 38.65 265.6 43.8 L265.6 66.25 Q266.65 75.15 258.25 75.15 L217.75 75.15 Q213.75 74.95 213.35 72.35 L213.35 71.6 179.15 71.6 Q179.1 76.45 178.2 81.05 176.9 86.9 174.3 92.05 L172.6 95.4 169.8 99.3 164.85 104.85 Q150.25 119.45 129.8 119.45 109.15 119.45 94.55 104.85 91.4 101.7 89.0 98.65 87.7 96.9 86.75 95.0 82.8 88.8 81.2 81.75 79.95 76.95 79.85 71.8 L55.1 71.8 -98.15 71.8 -111.05 71.8 Q-111.15 76.45 -112.1 81.05 -113.35 86.9 -115.9 92.05 L-117.65 95.4 -120.4 99.3 Q-122.7 102.25 -125.45 104.85 -140.0 119.45 -160.4 119.45 -181.05 119.45 -195.75 104.85 L-201.2 98.65 -203.6 95.0 Q-207.5 88.8 -209.1 81.75 -210.45 76.45 -210.45 70.65 L-228.8 70.65 Q-228.1 73.5 -232.6 73.3 L-261.35 73.3 Q-266.05 73.5 -265.65 67.2 L-265.65 45.65 Q-265.85 38.1 -260.7 38.35 L-245.0 38.35 -245.0 31.3 -245.0 7.8 Q-244.95 -2.4 -242.45 -10.05 -234.35 -34.0 -201.65 -32.0 L-169.6 -32.0 Q-168.8 -46.7 -159.0 -45.75 -156.8 -46.05 -155.15 -45.3 -140.35 -47.85 -140.0 -33.35 L-140.0 -72.8 Q-139.8 -84.05 -127.45 -84.45 L-117.45 -84.45 Q-105.2 -84.05 -105.05 -72.8 L-105.05 -32.0 -98.9 -32.0 25.7 -32.0 Q25.3 -37.25 28.05 -44.95 41.0 -71.1 53.1 -67.25 60.0 -65.45 57.6 -50.8 61.35 -51.1 65.55 -50.9 L44.35 -100.3 Q42.15 -105.15 46.05 -107.35 44.05 -112.5 47.0 -117.85 55.5 -120.65 67.15 -118.7 L72.0 -118.7 M46.05 -107.35 L46.7 -107.85 Q48.9 -108.7 52.65 -109.05 L56.25 -109.25 67.15 -109.25 Q68.7 -114.25 67.15 -118.7 M67.15 -109.25 L72.0 -109.25 M25.7 -32.0 L33.2 -32.0 Q33.1 -37.0 35.9 -44.15 42.6 -58.45 47.75 -58.45 L49.2 -58.15 Q51.6 -57.1 50.75 -51.1 L50.55 -49.95 57.6 -50.8 M65.55 -50.9 L70.1 -50.55 Q71.85 -45.0 71.65 -39.1 80.5 -40.05 80.25 -31.7 75.75 -35.9 70.6 -32.75 92.35 -19.0 55.1 71.8 M71.65 -39.1 L70.6 -32.75 Q61.5 -31.35 52.45 -31.8 L50.15 -32.0 33.2 -32.0 M50.15 -32.0 L42.5 -32.75 Q39.85 -39.75 42.5 -47.5 46.25 -49.1 50.55 -49.95 M93.5 -102.6 Q74.6 -103.75 57.8 -100.65 71.35 -73.65 87.7 -45.3 92.85 -39.1 106.1 -38.2 L152.9 -38.2 M261.1 16.9 Q237.9 17.75 225.95 14.9 211.55 11.35 213.0 2.45 215.1 -4.8 225.95 -6.5 L246.8 -5.85 M213.35 71.6 L213.35 43.55 Q213.45 36.95 218.9 37.25 L261.1 37.25 262.9 37.6 M79.85 71.8 L79.85 69.7 Q79.85 65.6 80.45 61.75 82.05 50.2 89.0 40.95 91.4 37.7 94.55 34.75 95.35 33.8 96.4 33.0 L100.85 29.5 Q111.55 21.95 124.75 20.9 L129.8 20.7 136.5 21.2 Q150.45 23.1 161.2 32.35 L161.9 32.95 164.85 35.6 Q170.85 41.6 174.3 48.8 177.25 54.9 178.5 61.75 179.15 65.95 179.15 70.45 L179.15 71.6 M113.75 61.75 Q115.0 59.4 117.2 57.4 122.45 52.1 129.8 52.4 137.25 52.4 142.4 57.65 144.4 59.55 145.55 61.75 147.75 65.6 147.75 70.25 147.75 76.45 143.85 81.35 L142.4 82.8 Q137.25 87.85 129.8 87.95 122.45 87.75 117.2 82.7 L116.15 81.55 Q111.75 76.55 111.75 70.0 111.75 65.5 113.75 61.75 M106.3 61.75 Q108.05 56.5 112.3 52.4 119.6 45.35 129.8 45.45 140.0 45.45 147.3 52.9 151.3 56.9 153.1 61.75 154.55 65.8 154.55 70.25 154.55 76.4 151.85 81.15 150.15 84.5 147.3 87.35 140.0 94.7 129.8 94.7 119.6 94.6 112.3 87.25 109.55 84.7 107.85 81.55 104.95 76.4 105.05 69.9 104.95 65.5 106.3 61.75 M225.95 14.9 L225.95 -6.5 M-155.15 -45.3 Q-150.0 -43.1 -150.0 -32.0 L-140.0 -32.0 -140.0 -33.35 M-105.05 -32.0 L-140.0 -32.0 M-169.6 -32.0 L-150.0 -32.0 M-43.8 3.65 L-67.25 9.25 -46.95 27.9 -50.85 62.75 -27.75 45.65 0.35 59.8 -3.85 27.3 14.25 9.0 -11.2 2.8 -27.45 -21.75 -43.8 3.65 M-210.45 70.65 L-210.45 69.7 -210.25 65.5 -209.9 61.75 Q-208.15 50.2 -201.2 40.95 -198.7 37.7 -195.75 34.75 L-193.85 33.0 Q-191.75 31.1 -189.35 29.5 -178.75 21.95 -165.45 20.9 L-160.4 20.7 -153.75 21.2 Q-139.8 23.1 -129.0 32.35 L-128.35 32.95 -125.45 35.6 Q-119.35 41.6 -115.9 48.8 -112.95 54.9 -111.7 61.75 -111.05 65.95 -111.05 70.45 L-111.05 71.6 -111.05 71.8 M-137.1 61.75 Q-135.7 65.8 -135.7 70.25 -135.7 76.4 -138.35 81.15 -140.05 84.5 -142.95 87.35 -150.2 94.7 -160.4 94.7 -170.75 94.6 -177.9 87.25 -180.65 84.7 -182.3 81.55 -185.35 76.4 -185.15 69.9 -185.25 65.5 -183.9 61.75 -182.2 56.5 -177.9 52.4 -170.75 45.35 -160.4 45.45 -150.2 45.45 -142.95 52.9 -138.95 56.9 -137.1 61.75 M-142.45 70.25 Q-142.45 76.45 -146.4 81.35 L-147.8 82.8 Q-152.95 87.85 -160.4 87.95 -167.85 87.75 -173.0 82.7 L-174.15 81.55 Q-178.35 76.55 -178.35 70.0 -178.45 65.5 -176.45 61.75 -175.2 59.4 -173.0 57.4 -167.85 52.1 -160.4 52.4 -152.95 52.4 -147.8 57.65 -145.9 59.55 -144.65 61.75 -142.45 65.6 -142.45 70.25 M-245.0 38.35 L-236.25 38.35 Q-228.6 37.9 -228.8 42.95 L-228.8 70.65 M-245.0 31.3 Q-232.4 32.65 -225.35 30.75 L-225.15 8.65 Q-232.4 6.55 -245.0 7.8 M-225.35 30.75 Q-215.7 28.15 -215.7 19.75 -215.7 11.25 -225.15 8.65 M-98.15 71.8 Q-138.35 -24.2 -98.9 -32.0" fill="none" stroke="#000000" stroke-linecap="round" stroke-linejoin="round" stroke-width="2.0"/>
  </g>
</svg>
