<?xml version="1.0" encoding="UTF-8" standalone="no"?>
<svg xmlns:xlink="http://www.w3.org/1999/xlink" height="110.65px" width="127.25px" xmlns="http://www.w3.org/2000/svg">
  <g transform="matrix(1.0, 0.0, 0.0, 1.0, 63.65, 55.35)">
    <path d="M12.75 -34.1 L12.75 -24.8 28.55 -24.8 28.55 -34.1 12.75 -34.1 M43.9 -34.1 L31.45 -34.1 30.0 -34.1 30.0 -24.8 43.9 -24.8 43.9 -34.1 M11.5 -34.1 L-3.7 -34.1 -3.7 -24.85 11.5 -24.8 11.5 -34.1 M12.75 -13.05 L28.55 -13.05 28.55 -23.15 12.75 -23.15 12.75 -13.05 M-3.7 -23.15 L-3.7 -13.05 11.5 -13.05 11.5 -23.15 -3.7 -23.15 M30.0 -13.05 L43.9 -13.05 43.9 -23.15 30.0 -23.15 30.0 -13.05 M12.75 1.85 L28.55 1.85 28.55 -11.65 12.75 -11.65 12.75 1.85 M-34.65 3.7 L-32.8 10.5 -32.4 11.7 -31.3 15.3 -31.15 16.0 Q-30.5 19.25 -29.0 21.65 -24.6 28.6 -12.75 29.0 L-12.2 29.0 -10.55 29.0 -5.15 29.0 Q-3.8 18.55 -2.55 16.0 L-1.85 15.25 -0.3 14.75 37.1 14.85 36.95 16.0 Q36.35 16.95 34.2 16.85 L7.15 16.85 Q0.45 17.45 0.2 29.0 L51.45 29.0 Q53.9 29.95 54.25 32.2 54.8 34.6 51.4 36.45 L50.7 36.75 Q47.5 38.2 43.9 37.65 L40.8 40.3 40.8 40.5 Q40.8 43.3 40.05 44.95 41.45 46.6 41.45 48.7 L41.45 49.05 Q41.25 51.55 39.2 53.3 36.95 55.3 33.75 55.3 30.65 55.3 28.35 53.3 26.2 51.55 26.15 49.0 L26.15 48.7 Q26.15 45.95 28.1 44.1 L26.45 37.65 -22.55 37.7 -24.05 41.3 -24.25 41.6 -26.0 44.95 Q-24.7 46.6 -24.7 48.7 L-24.7 49.05 Q-24.8 51.55 -26.9 53.3 -29.15 55.3 -32.35 55.3 -35.55 55.3 -37.8 53.3 -39.85 51.55 -39.95 49.0 L-40.05 48.7 Q-40.05 45.95 -37.95 44.1 L-39.2 40.2 -39.2 40.1 Q-38.85 40.45 -38.85 37.65 L-38.9 36.75 -38.9 36.7 Q-38.95 32.75 -39.55 24.5 L-39.6 23.7 Q-39.75 20.45 -40.55 16.0 -43.15 -0.15 -52.75 -32.15 L-56.55 -44.6 -59.9 -44.2 Q-60.8 -44.0 -63.65 -44.2 L-63.0 -45.1 Q-62.35 -46.2 -62.35 -47.8 L-62.35 -47.9 Q-62.35 -49.45 -63.0 -50.55 L-63.3 -51.05 -58.75 -51.45 -51.0 -50.55 Q-49.2 -50.1 -47.7 -44.15 L-46.95 -41.4 -36.85 -41.4 -36.85 -53.65 Q-36.0 -55.95 -33.05 -55.1 -31.75 -54.6 -31.7 -53.7 -31.3 -46.95 -31.3 -41.4 L63.5 -41.4 Q63.95 -35.2 62.1 -33.3 60.3 -31.3 58.3 -34.1 L45.4 -34.1 45.4 -24.8 55.4 -24.8 55.3 -24.45 54.85 -23.15 45.4 -23.15 45.4 -13.05 51.4 -13.05 50.95 -11.9 50.8 -11.65 45.4 -11.65 45.4 1.6 45.3 1.8 45.3 1.85 43.9 5.05 43.9 3.7 30.0 3.7 30.0 14.25 28.55 14.25 28.55 3.7 12.75 3.7 12.75 14.25 11.5 14.25 11.5 3.7 -3.7 3.7 -3.7 14.25 -5.1 14.25 -5.1 3.7 -21.5 3.7 -21.5 14.25 -22.9 14.25 -22.9 3.7 -34.65 3.7 -34.25 1.85 -22.9 1.85 -22.9 -11.65 -32.4 -11.65 Q-33.15 -4.1 -34.25 1.85 L-34.75 -11.65 -38.85 -11.65 -35.9 -1.05 -35.75 -0.55 -34.65 3.7 M30.0 -11.65 L30.0 1.85 43.9 1.85 43.9 -11.65 30.0 -11.65 M-3.7 1.85 L11.5 1.85 11.5 -11.65 -3.7 -11.65 -3.7 1.85 M-43.45 -28.55 L-39.0 -28.55 Q-36.75 -28.5 -36.85 -31.55 L-36.85 -34.1 -45.0 -34.1 -43.45 -28.55 M-32.3 -13.05 L-22.9 -13.05 -22.9 -23.15 -31.65 -23.15 Q-31.9 -17.8 -32.3 -13.05 M-33.6 -24.85 L-22.9 -24.85 -22.9 -34.1 -31.35 -34.1 -31.35 -32.15 -31.45 -27.35 -31.6 -24.9 -33.6 -24.85 M-5.1 -34.1 L-21.5 -34.1 -21.5 -24.85 -5.1 -24.85 -5.1 -34.1 M-5.1 -23.15 L-21.5 -23.15 -21.5 -13.05 -5.1 -13.05 -5.1 -23.15 M-35.15 -23.15 L-41.95 -23.15 -39.2 -13.05 -34.75 -13.05 -35.15 -23.15 M-21.5 1.85 L-5.1 1.85 -5.1 -11.65 -21.5 -11.65 -21.5 1.85" fill="#9d9d9d" fill-rule="evenodd" stroke="none"/>
    <path d="M43.9 -34.1 L43.75 -32.4 31.3 -32.4 31.45 -34.1 43.9 -34.1" fill="#ffffff" fill-rule="evenodd" stroke="none"/>
  </g>
</svg>
