<?xml version="1.0" encoding="UTF-8" standalone="no"?>
<svg xmlns:xlink="http://www.w3.org/1999/xlink" height="195.25px" width="43.5px" xmlns="http://www.w3.org/2000/svg">
  <g transform="matrix(1.0, 0.0, 0.0, 1.0, 21.75, 97.65)">
    <path d="M0.0 -68.0 L0.0 -91.55 M1.95 -63.2 L4.6 -39.75 Q9.6 -44.95 21.0 -44.35 19.85 -54.4 19.75 -67.7 19.3 -77.05 14.1 -84.2 9.3 -92.05 0.0 -96.9 -4.55 -94.55 -8.05 -91.5 -11.7 -88.2 -14.15 -84.2 -19.3 -77.05 -19.8 -67.7 L-19.85 -62.2 Q-20.1 -52.25 -21.0 -44.35 -9.6 -44.95 -4.65 -39.75 L-4.65 -39.85 -2.0 -63.2 M-4.65 -39.75 L-4.65 -24.7 -3.65 -24.7 -3.3 -24.7 Q-3.55 -25.65 0.0 -25.75 L0.9 -25.75 1.15 -25.75 2.0 -25.65 Q3.3 -25.5 3.45 -25.0 L3.45 -24.7 4.65 -24.7 4.6 -39.75 M3.45 60.3 L2.0 60.05 1.45 59.95 1.15 59.95 0.9 59.95 0.0 59.9 -3.65 60.35 -4.0 60.45 Q-4.45 60.65 -4.7 60.9 L-4.7 67.8 -7.05 69.6 Q-16.4 77.45 -15.9 93.55 L-15.65 94.6 Q-14.95 96.55 -11.9 96.85 L-8.65 96.85 -8.65 90.8 Q-9.5 79.1 0.0 72.2 9.5 79.1 8.65 90.8 L8.65 96.85 11.9 96.85 Q15.7 96.5 15.9 93.55 16.45 75.5 4.65 67.8 L4.65 60.9 3.95 60.45 3.45 60.3 3.45 -24.7 M-3.65 60.35 L-3.65 -24.7 M8.65 96.85 L-8.65 96.85 M-8.65 90.8 L8.65 90.8" fill="none" stroke="#000000" stroke-linecap="round" stroke-linejoin="round" stroke-width="1.5"/>
  </g>
</svg>
