<?xml version="1.0" encoding="UTF-8" standalone="no"?>
<svg xmlns:xlink="http://www.w3.org/1999/xlink" height="58.35px" width="55.75px" xmlns="http://www.w3.org/2000/svg">
  <g transform="matrix(1.0, 0.0, 0.0, 1.0, 27.85, 29.2)">
    <path d="M27.45 -4.95 Q28.95 4.05 25.2 11.9 18.65 -10.8 -3.25 -17.3 -3.5 -16.05 -4.55 -14.75 -6.15 -12.9 -8.75 -12.15 L-10.6 -11.9 Q-12.75 -0.65 -9.55 9.5 -7.05 18.7 1.25 29.0 -9.55 30.1 -18.7 23.6 -23.5 20.1 -26.45 15.45 -28.35 -1.95 -15.0 -13.45 -15.6 -14.15 -15.75 -15.2 -16.05 -16.85 -15.0 -18.35 -21.0 -19.5 -27.85 -13.25 -26.8 -15.4 -25.4 -17.35 -18.35 -27.05 -6.8 -29.2 -8.9 -27.8 -8.75 -22.0 -7.05 -22.15 -5.65 -21.5 L-4.65 -20.9 Q4.25 -27.6 14.7 -24.75 L15.6 -24.05 Q25.5 -17.0 27.45 -4.95" fill="#eeeeee" fill-rule="evenodd" stroke="none"/>
  </g>
</svg>
