<?xml version="1.0" encoding="UTF-8" standalone="no"?>
<svg xmlns:xlink="http://www.w3.org/1999/xlink" height="47.7px" width="20.65px" xmlns="http://www.w3.org/2000/svg">
  <g transform="matrix(1.0, 0.0, 0.0, 1.0, 10.3, 23.85)">
    <path d="M10.0 -16.75 Q11.0 -12.85 9.0 -9.45 8.0 -7.65 6.4 -6.55 5.05 -5.45 3.15 -4.95 L1.8 -4.7 -1.7 -4.9 Q-2.95 -5.2 -4.15 -5.9 L-6.0 -7.3 Q-7.95 -9.0 -8.65 -11.75 -9.7 -15.6 -7.7 -19.1 -5.7 -22.55 -1.85 -23.55 L-0.7 -23.85 -0.8 -21.1 Q0.35 -18.65 2.8 -20.75 L3.0 -23.65 Q4.25 -23.35 5.45 -22.65 8.95 -20.6 10.0 -16.75 M2.15 9.05 Q3.95 8.6 5.35 7.55 7.35 9.3 8.1 12.1 9.1 15.85 7.25 19.2 5.25 22.5 1.5 23.5 L-0.05 23.8 -4.35 23.45 -4.6 23.2 -5.55 22.6 -7.05 21.55 Q-8.9 20.0 -9.7 17.65 L-9.95 16.9 Q-10.95 13.15 -9.0 9.85 -8.0 8.1 -6.55 7.0 L-4.9 8.15 Q-3.75 8.8 -2.45 9.15 L0.95 9.35 2.15 9.05" fill="#a3d387" fill-rule="evenodd" stroke="none"/>
  </g>
</svg>
