<?xml version="1.0" encoding="UTF-8" standalone="no"?>
<svg xmlns:xlink="http://www.w3.org/1999/xlink" height="30.8px" width="34.75px" xmlns="http://www.w3.org/2000/svg">
  <g transform="matrix(1.0, 0.0, 0.0, 1.0, 17.35, 15.4)">
    <path d="M-6.5 -12.65 L-5.9 -12.75 Q-5.5 -12.65 -5.2 -12.3 L-4.85 -11.45 Q-4.8 -11.0 -5.0 -10.85 -5.25 -10.55 -5.65 -10.7 L-6.3 -11.2 -6.7 -12.0 -6.5 -12.65 M-8.5 -14.5 Q-8.55 -15.0 -8.25 -15.25 L-7.7 -15.3 Q-7.3 -15.2 -6.95 -14.8 L-6.65 -13.95 Q-6.55 -13.6 -6.75 -13.4 -7.0 -13.15 -7.4 -13.25 L-8.1 -13.85 -8.5 -14.5 M-11.7 -15.4 L-11.15 -15.2 Q-10.95 -14.85 -11.1 -14.45 -11.3 -14.1 -11.7 -13.9 -12.1 -13.55 -12.5 -13.5 -12.9 -13.5 -13.1 -13.8 L-13.05 -14.4 -12.55 -15.1 -11.7 -15.4 M-11.65 -6.6 Q-10.8 -6.5 -10.35 -5.8 -9.8 -5.05 -9.9 -4.2 -10.0 -3.35 -10.75 -2.9 -11.35 -2.35 -12.2 -2.45 -13.05 -2.55 -13.65 -3.3 -14.15 -3.95 -14.05 -4.8 -13.95 -5.65 -13.25 -6.2 -12.5 -6.7 -11.65 -6.6 M-16.7 -12.15 L-15.9 -12.4 Q-15.5 -12.4 -15.35 -12.2 -15.2 -11.9 -15.4 -11.45 -15.5 -11.1 -15.9 -10.85 -16.25 -10.5 -16.7 -10.5 -17.1 -10.5 -17.3 -10.8 L-17.25 -11.45 -16.7 -12.15 M14.45 5.35 L14.75 6.15 14.65 6.75 13.95 6.9 13.3 6.35 Q12.95 6.0 12.9 5.6 12.85 5.15 13.1 4.95 L13.75 4.9 14.45 5.35 M12.35 2.75 Q12.1 3.05 11.7 2.95 L11.0 2.35 10.65 1.6 Q10.6 1.15 10.9 0.9 11.05 0.65 11.4 0.8 11.8 0.9 12.15 1.3 L12.45 2.15 12.35 2.75 M14.8 2.1 L15.1 3.0 Q15.2 3.4 14.95 3.55 14.75 3.85 14.35 3.75 L13.65 3.15 13.25 2.4 Q13.2 1.95 13.5 1.7 L14.05 1.6 Q14.45 1.7 14.8 2.1 M15.8 5.7 L16.35 5.65 17.1 6.1 17.4 6.9 17.3 7.5 16.6 7.65 15.95 7.1 15.6 6.35 Q15.55 5.95 15.8 5.7 M-4.1 -10.1 Q-3.7 -10.0 -3.4 -9.65 L-3.05 -8.8 Q-3.0 -8.4 -3.2 -8.2 -3.5 -7.95 -3.85 -8.05 -4.25 -8.15 -4.5 -8.6 L-4.85 -9.35 -4.7 -10.05 -4.1 -10.1 M11.15 7.3 Q11.1 7.75 10.7 8.0 L9.9 8.25 9.2 7.8 Q8.95 7.45 9.0 7.0 9.05 6.55 9.4 6.25 L10.2 6.05 Q10.65 6.1 10.9 6.45 11.2 6.85 11.15 7.3 M12.6 11.95 L12.45 12.5 11.75 13.15 10.85 13.45 Q10.45 13.5 10.4 13.25 10.3 12.95 10.6 12.55 10.85 12.2 11.3 12.05 11.75 11.7 12.15 11.65 12.5 11.65 12.6 11.95 M12.35 9.9 Q12.75 9.6 13.15 9.6 13.55 9.6 13.6 9.9 L13.45 10.45 12.75 11.1 11.95 11.3 Q11.6 11.3 11.4 11.1 L11.6 10.5 Q11.85 10.1 12.35 9.9 M14.4 11.95 Q14.35 11.7 14.6 11.35 L15.2 10.8 Q15.65 10.45 16.05 10.45 16.45 10.45 16.55 10.75 L16.35 11.3 15.65 11.9 14.9 12.15 Q14.5 12.15 14.4 11.95 M8.5 2.8 Q8.45 3.25 8.05 3.5 L7.25 3.75 6.5 3.3 Q6.25 2.95 6.3 2.5 6.35 2.05 6.7 1.75 L7.55 1.55 Q8.0 1.6 8.25 1.95 L8.5 2.8 M5.35 4.65 Q5.3 5.1 4.9 5.35 L4.15 5.6 Q3.7 5.55 3.4 5.15 3.15 4.8 3.2 4.35 3.25 3.95 3.6 3.65 L4.45 3.45 5.1 3.85 Q5.4 4.25 5.35 4.65 M2.2 5.75 L2.45 6.6 2.0 7.3 1.8 7.45 1.2 7.55 Q0.75 7.5 0.45 7.1 0.2 6.75 0.25 6.3 0.3 5.9 0.6 5.65 L0.65 5.55 1.5 5.35 Q1.95 5.4 2.2 5.75 M2.95 10.8 Q3.0 10.4 3.3 10.15 L3.35 10.05 4.15 9.9 Q4.6 9.95 4.85 10.25 L5.1 11.1 4.65 11.8 4.45 11.95 3.85 12.05 Q3.45 12.0 3.15 11.6 2.9 11.25 2.95 10.8 M8.05 9.2 Q8.0 9.65 7.6 9.9 7.25 10.2 6.8 10.15 L6.05 9.7 Q5.8 9.35 5.85 8.9 5.9 8.45 6.25 8.15 L7.1 7.95 Q7.55 8.0 7.8 8.35 8.1 8.75 8.05 9.2 M9.95 14.5 Q10.2 14.15 10.6 14.0 11.05 13.65 11.5 13.6 11.85 13.6 11.95 13.9 L11.75 14.45 11.05 15.1 10.15 15.4 Q9.8 15.45 9.75 15.2 9.6 14.9 9.95 14.5 M9.05 13.25 L8.85 13.8 8.15 14.45 7.3 14.75 Q6.9 14.75 6.85 14.55 6.7 14.2 6.95 13.85 L7.7 13.3 8.55 12.95 Q8.9 12.95 9.05 13.25" fill="#206470" fill-rule="evenodd" stroke="none"/>
  </g>
</svg>
