<?xml version="1.0" encoding="UTF-8" standalone="no"?>
<svg xmlns:xlink="http://www.w3.org/1999/xlink" height="61.4px" width="33.4px" xmlns="http://www.w3.org/2000/svg">
  <g transform="matrix(1.0, 0.0, 0.0, 1.0, 16.7, 30.7)">
    <path d="M-6.55 -22.5 Q-4.05 -18.55 6.85 -17.6 L7.45 -17.4 M12.65 -7.25 Q10.8 -8.9 7.25 -8.45 1.8 -7.4 -3.3 -8.35 M14.35 0.45 L14.05 0.35 -14.15 0.35 -14.45 0.45 M-9.9 -12.8 Q-8.95 -11.05 -6.55 -9.55 M8.85 14.4 L-9.05 14.4 -9.5 14.55 M8.95 18.65 L-8.5 18.65 M13.8 4.7 L-14.2 4.7" fill="none" stroke="#000000" stroke-linecap="round" stroke-linejoin="round" stroke-width="1.0"/>
    <path d="M5.9 -24.25 Q10.0 -22.6 7.45 -17.4 14.95 -15.2 12.65 -7.25 14.9 -5.15 14.35 0.45 15.7 0.8 15.95 2.25 16.1 4.5 13.8 4.7 14.2 11.0 8.85 14.4 11.2 14.55 11.0 16.85 10.9 18.75 8.95 18.65 8.85 28.9 5.65 29.95 L-5.5 29.95 Q-8.8 28.35 -8.5 18.65 -10.85 18.15 -10.5 15.85 -10.35 14.9 -9.5 14.55 -13.8 11.25 -14.2 4.7 -15.95 4.15 -15.95 2.45 -15.9 0.8 -14.45 0.45 -16.95 -9.1 -9.9 -12.8 -12.55 -17.1 -6.55 -22.5 -5.45 -28.0 0.85 -29.95 1.9 -25.9 5.9 -24.25" fill="none" stroke="#000000" stroke-linecap="round" stroke-linejoin="round" stroke-width="1.5"/>
  </g>
</svg>
