<?xml version="1.0" encoding="UTF-8" standalone="no"?>
<svg xmlns:xlink="http://www.w3.org/1999/xlink" height="53.25px" width="31.05px" xmlns="http://www.w3.org/2000/svg">
  <g transform="matrix(1.0, 0.0, 0.0, 1.0, 15.5, 26.65)">
    <path d="M-5.7 -22.65 L-4.85 -24.0 Q-1.45 -27.55 1.55 -24.45 14.85 -11.75 14.8 11.5 14.65 21.7 9.75 22.65 L6.0 22.25 Q5.3 25.9 2.65 25.85 -0.45 25.35 -0.95 23.35 -6.35 22.55 -5.65 15.55 -5.25 -0.45 -13.05 -11.95 -16.7 -16.85 -12.55 -20.3 -12.95 -22.25 -11.15 -23.45 -8.75 -25.0 -5.7 -22.65 -8.25 -18.05 -3.5 -12.6 4.1 -3.1 3.35 14.1 2.45 20.75 6.0 22.25 M-0.95 23.35 L-1.0 22.25 Q-0.6 20.05 -0.75 17.3 -1.8 -2.4 -11.6 -18.35 -12.35 -19.45 -12.55 -20.3" fill="none" stroke="#000000" stroke-linecap="round" stroke-linejoin="round" stroke-width="1.5"/>
  </g>
</svg>
