<?xml version="1.0" encoding="UTF-8" standalone="no"?>
<svg xmlns:xlink="http://www.w3.org/1999/xlink" height="52.9px" width="29.6px" xmlns="http://www.w3.org/2000/svg">
  <g transform="matrix(1.0, 0.0, 0.0, 1.0, 14.8, 26.45)">
    <path d="M6.5 -22.1 L7.7 -13.05 1.05 -12.3 0.0 -22.1 Q6.55 -23.45 6.5 -22.1 M2.3 -0.85 L1.4 -9.2 7.95 -9.8 8.8 -1.55 9.6 -1.7 11.6 -1.4 9.55 -22.1 Q9.0 -25.9 5.2 -25.7 L-6.95 -24.6 Q-13.05 -24.35 -14.05 -20.0 L-11.5 1.3 -10.55 0.5 -8.1 0.35 -8.95 -8.1 -2.1 -8.8 -1.05 -0.5 2.3 -0.85 8.8 -1.55 M11.6 -1.4 Q12.3 -0.95 12.5 0.15 L13.1 4.35 Q13.5 7.1 12.7 7.55 L13.85 17.35 Q14.9 23.1 11.0 24.3 L-2.3 25.6 Q-7.75 26.25 -8.85 21.85 L-10.0 9.7 Q-10.95 9.65 -11.3 8.35 L-11.85 4.3 Q-12.1 2.15 -11.5 1.3 M-10.0 9.7 Q-9.1 9.9 -7.8 9.0 -6.15 8.35 -3.9 9.85 -2.4 10.65 -0.2 8.7 1.65 7.4 4.5 9.45 6.75 10.2 8.75 7.65 10.1 6.45 11.45 7.35 L12.7 7.55 M-9.15 -11.05 L-9.95 -20.05 Q-10.25 -22.05 -3.55 -22.15 L-2.4 -11.85 -9.15 -11.05 M-1.05 -0.5 L-8.1 0.35" fill="none" stroke="#000000" stroke-linecap="round" stroke-linejoin="round" stroke-width="1.5"/>
  </g>
</svg>
