<?xml version="1.0" encoding="UTF-8" standalone="no"?>
<svg xmlns:xlink="http://www.w3.org/1999/xlink" height="48.95px" width="55.8px" xmlns="http://www.w3.org/2000/svg">
  <g transform="matrix(1.0, 0.0, 0.0, 1.0, 27.9, 24.5)">
    <path d="M15.15 -14.1 L-0.85 5.95 Q0.3 7.3 1.05 9.15 L22.15 -5.65 Q23.95 -2.8 25.65 1.85 L26.7 4.85 1.85 12.2 Q2.1 13.35 1.8 15.7 L27.45 14.9 Q28.45 14.9 27.2 24.45 L0.7 19.2 -0.4 21.1 -1.85 22.5 -13.45 17.35 -20.15 6.9 Q-18.85 5.05 -17.65 4.25 L-27.9 -21.0 -25.25 -22.1 -19.9 -23.65 -14.3 2.4 -14.2 2.35 Q-12.5 1.75 -10.8 1.6 L-11.8 -24.5 Q-7.2 -24.55 -2.75 -23.45 L-7.25 2.0 -5.0 2.8 -4.2 3.25 6.25 -20.05 Q11.25 -17.6 15.15 -14.1" fill="#dbd94e" fill-rule="evenodd" stroke="none"/>
  </g>
</svg>
