<?xml version="1.0" encoding="UTF-8" standalone="no"?>
<svg xmlns:xlink="http://www.w3.org/1999/xlink" height="59.4px" width="56.5px" xmlns="http://www.w3.org/2000/svg">
  <g transform="matrix(1.0, 0.0, 0.0, 1.0, 28.25, 29.7)">
    <path d="M3.7 -29.7 L5.75 -29.5 Q20.1 -23.05 25.65 -11.85 28.25 -6.75 28.25 5.9 L28.25 11.35 Q20.45 8.25 8.75 7.7 11.45 4.75 11.45 0.7 11.45 -2.65 9.6 -5.25 L17.2 -5.0 Q16.05 -18.75 3.7 -29.7 M1.45 10.95 L-4.05 18.1 Q8.95 25.2 25.1 18.2 10.4 30.95 -2.05 29.55 -9.65 28.45 -15.85 24.25 L-23.05 19.3 Q-15.75 14.05 -8.55 3.6 -7.85 6.05 -5.95 7.95 -3.0 10.95 1.25 10.95 L1.45 10.95 M-7.6 -28.0 Q-5.4 -19.6 1.25 -9.5 -3.0 -9.5 -5.95 -6.5 -7.45 -5.0 -8.15 -3.3 L-8.8 -1.25 -14.35 -9.4 Q-24.85 -0.45 -26.5 16.0 -30.7 -1.25 -24.85 -12.25 -21.0 -18.95 -12.0 -24.85 L-7.6 -28.0" fill="#4a94bd" fill-rule="evenodd" stroke="none"/>
  </g>
</svg>
