<?xml version="1.0" encoding="UTF-8" standalone="no"?>
<svg xmlns:xlink="http://www.w3.org/1999/xlink" height="51.9px" width="40.8px" xmlns="http://www.w3.org/2000/svg">
  <g transform="matrix(1.0, 0.0, 0.0, 1.0, 20.4, 25.95)">
    <path d="M10.55 -0.3 L14.05 2.7 Q19.65 6.8 19.65 10.9 19.6 14.5 16.15 16.05 L-6.8 24.9 Q-10.35 26.0 -12.8 23.35 -15.55 20.3 -14.15 13.55 L-13.45 8.4 Q-8.65 0.6 -1.8 3.9 5.4 7.3 10.55 -0.3" fill="#55f48f" fill-rule="evenodd" stroke="none"/>
    <path d="M-13.45 8.4 L-11.8 -4.35 -15.4 -13.7 Q-18.55 -13.65 -19.45 -16.55 -20.35 -19.45 -17.5 -20.65 L-6.3 -24.95 Q-3.4 -25.95 -2.1 -23.2 -0.8 -20.45 -3.25 -18.35 L-1.7 -14.3 0.35 -9.0 10.55 -0.3 14.05 2.7 Q19.65 6.8 19.65 10.9 19.6 14.5 16.15 16.05 L-6.8 24.9 Q-10.35 26.0 -12.8 23.35 -15.55 20.3 -14.15 13.55 L-13.45 8.4 Q-8.65 0.6 -1.8 3.9 5.4 7.3 10.55 -0.3 M-15.4 -13.7 L-3.25 -18.35 M-1.7 -14.3 L-6.55 -12.45 M0.35 -9.0 L-4.5 -7.15" fill="none" stroke="#000000" stroke-linecap="round" stroke-linejoin="round" stroke-width="1.5"/>
  </g>
</svg>
