<?xml version="1.0" encoding="UTF-8" standalone="no"?>
<svg xmlns:xlink="http://www.w3.org/1999/xlink" height="48.05px" width="48.4px" xmlns="http://www.w3.org/2000/svg">
  <g transform="matrix(1.0, 0.0, 0.0, 1.0, 24.2, 24.05)">
    <path d="M-3.05 -16.7 Q-5.25 -10.05 -12.95 -12.6 -19.9 -15.25 -23.45 -19.2 -17.4 -24.25 -8.9 -23.1 -3.65 -21.75 -3.05 -16.7 L0.2 -15.05 Q-0.2 -18.95 0.65 -22.8 M0.2 -15.05 Q0.5 -11.4 2.05 -7.7 8.65 -12.4 15.65 -11.35 25.65 -9.25 22.8 11.05 20.9 22.45 8.95 20.1 4.55 26.1 -4.6 20.65 -13.85 15.2 -14.1 0.0 -13.1 -5.15 -8.15 -6.55 -3.6 -7.8 2.05 -7.7" fill="none" stroke="#000000" stroke-linecap="round" stroke-linejoin="round" stroke-width="1.5"/>
    <path d="M-3.05 -16.7 Q-12.1 -20.6 -23.45 -19.2 M-7.0 -3.35 Q-11.55 -0.5 -10.0 5.95" fill="none" stroke="#000000" stroke-linecap="round" stroke-linejoin="round" stroke-width="1.0"/>
  </g>
</svg>
