<?xml version="1.0" encoding="UTF-8" standalone="no"?>
<svg xmlns:xlink="http://www.w3.org/1999/xlink" height="67.75px" width="60.8px" xmlns="http://www.w3.org/2000/svg">
  <g transform="matrix(1.0, 0.0, 0.0, 1.0, 30.4, 33.9)">
    <path d="M-26.45 -8.0 L-27.45 -9.15 Q-31.2 -14.45 -30.15 -20.9 -29.05 -27.2 -23.8 -30.9 -18.45 -34.75 -11.9 -33.65 -5.4 -32.55 -1.6 -27.25 2.2 -22.0 1.15 -15.65 0.1 -9.25 -5.25 -5.5 -9.3 -2.7 -14.0 -2.6 L-16.45 2.6 Q-18.1 5.5 -24.0 2.3 -29.0 0.45 -28.75 -2.35 L-26.45 -8.0 M-20.45 -26.45 Q-23.75 -24.15 -24.45 -20.15 -25.15 -16.1 -22.75 -12.8 -20.35 -9.5 -16.25 -8.85 -12.2 -8.15 -8.85 -10.45 -5.45 -12.85 -4.75 -16.85 -4.15 -20.85 -6.55 -24.1 -8.95 -27.45 -13.05 -28.1 -17.15 -28.8 -20.45 -26.45 M-6.3 26.4 L-6.55 25.75 Q-8.8 20.95 -6.65 19.2 L-1.0 16.8 -0.85 15.35 Q0.2 8.85 5.5 5.1 10.75 1.35 17.15 2.5 23.55 3.6 27.4 8.95 31.2 14.35 30.15 20.75 29.2 27.2 23.95 30.95 18.65 34.7 12.15 33.6 7.4 32.7 4.05 29.45 L-1.4 31.4 Q-4.55 32.25 -6.3 26.4 M8.95 9.7 Q5.65 12.05 4.95 16.1 4.4 20.05 6.8 23.45 9.2 26.8 13.15 27.55 17.25 28.25 20.55 25.9 23.85 23.55 24.5 19.45 25.15 15.45 22.75 12.1 20.35 8.7 16.3 8.0 12.25 7.35 8.95 9.7" fill="#8e8e8e" fill-rule="evenodd" stroke="none"/>
  </g>
</svg>
