<?xml version="1.0" encoding="UTF-8" standalone="no"?>
<svg xmlns:xlink="http://www.w3.org/1999/xlink" height="50.1px" width="42.05px" xmlns="http://www.w3.org/2000/svg">
  <g transform="matrix(1.0, 0.0, 0.0, 1.0, 21.0, 25.05)">
    <path d="M10.4 22.0 Q9.65 20.55 9.85 18.85 L10.2 17.35 Q1.75 16.95 3.15 7.6 -1.7 9.45 -5.6 4.5 -9.65 -0.6 -6.75 -4.95 -16.15 -5.7 -14.55 -14.05 L-16.1 -14.05 Q-17.8 -14.2 -19.05 -15.25 L-19.75 -16.1 Q-21.2 -17.9 -20.95 -20.15 -20.7 -22.4 -18.9 -23.8 -17.1 -25.25 -14.85 -25.0 -12.55 -24.7 -11.1 -22.9 4.3 -23.9 14.3 -11.4 24.15 1.3 19.65 16.15 21.1 17.95 20.8 20.15 20.5 22.4 18.7 23.85 16.9 25.25 14.7 25.0 12.45 24.75 11.0 22.95 L10.4 22.0" fill="#ffd782" fill-rule="evenodd" stroke="none"/>
  </g>
</svg>
