<?xml version="1.0" encoding="UTF-8" standalone="no"?>
<svg xmlns:xlink="http://www.w3.org/1999/xlink" height="52.65px" width="47.9px" xmlns="http://www.w3.org/2000/svg">
  <g transform="matrix(1.0, 0.0, 0.0, 1.0, 23.95, 26.35)">
    <path d="M7.85 -13.0 L1.9 -11.5 M10.95 -7.55 L7.0 -4.4 M-17.15 -15.55 L-17.85 -16.4 Q-19.3 -18.2 -19.05 -20.45 -18.8 -22.7 -17.0 -24.1 -15.2 -25.55 -12.95 -25.3 -10.65 -25.0 -9.2 -23.2 6.2 -24.2 16.2 -11.7 26.05 1.0 21.55 15.85 23.0 17.65 22.7 19.85 22.4 22.1 20.6 23.55 18.8 24.95 16.6 24.7 14.35 24.45 12.9 22.65 L12.3 21.7 2.1 25.3 -22.95 -6.5 -17.15 -15.55 Q-15.9 -14.5 -14.2 -14.35 L-12.65 -14.35 Q-14.25 -6.0 -4.85 -5.25 -7.75 -0.9 -3.7 4.2 0.2 9.15 5.05 7.3 3.65 16.65 12.1 17.05 L11.75 18.55 Q11.55 20.25 12.3 21.7 M15.05 -3.35 L12.3 2.1" fill="none" stroke="#000000" stroke-linecap="round" stroke-linejoin="round" stroke-width="2.0"/>
  </g>
</svg>
