<?xml version="1.0" encoding="UTF-8" standalone="no"?>
<svg xmlns:xlink="http://www.w3.org/1999/xlink" height="63.6px" width="70.95px" xmlns="http://www.w3.org/2000/svg">
  <g transform="matrix(1.0, 0.0, 0.0, 1.0, 35.45, 31.8)">
    <path d="M-4.05 -24.6 L-5.95 -26.1 Q-6.8 -27.35 -6.45 -28.85 -6.1 -30.3 -4.8 -31.15 -3.5 -32.0 -2.1 -31.7 -0.65 -31.4 0.2 -30.15 1.0 -28.9 0.7 -27.45 L0.3 -26.4 -0.3 -25.55 Q-1.25 -24.0 2.05 -23.45 L1.6 -22.95 Q-1.3 -19.95 -4.7 -21.3 L-4.9 -21.35 Q-2.95 -23.4 -4.05 -24.6 M10.05 -24.0 L10.9 -23.95 Q16.0 -23.85 16.65 -21.15 17.1 -19.4 15.6 -17.65 14.7 -16.5 13.1 -15.4 8.9 -12.35 2.25 -10.75 -4.45 -9.1 -9.6 -9.95 L-12.8 -10.8 Q-15.0 -11.7 -15.4 -13.45 -16.05 -16.15 -11.8 -18.45 L-11.15 -18.75 -11.95 -17.05 Q-12.45 -15.75 -11.8 -14.75 2.55 -12.85 12.0 -20.7 11.95 -22.05 10.8 -23.2 L10.05 -24.0 M31.0 -22.35 Q32.0 -23.05 33.25 -23.55 33.4 -20.9 35.5 -20.15 34.6 -19.0 34.15 -17.75 31.25 -19.2 31.0 -22.35 M-16.45 -0.95 Q-27.8 -4.15 -30.85 -0.6 -34.85 5.05 -30.1 11.35 -25.45 17.65 -17.9 20.8 -10.35 23.95 -7.05 22.9 L-5.1 24.5 Q-12.1 29.95 -27.35 18.8 -37.65 9.95 -34.85 -0.15 -31.05 -9.25 -15.9 -3.1 L-16.45 -0.95 M24.35 20.25 Q24.25 21.95 26.85 24.25 12.15 33.25 -0.7 31.5 L-1.2 27.3 Q8.75 28.95 22.25 21.95 L24.35 20.25" fill="#66ccff" fill-rule="evenodd" stroke="none"/>
  </g>
</svg>
