<?xml version="1.0" encoding="UTF-8" standalone="no"?>
<svg xmlns:xlink="http://www.w3.org/1999/xlink" height="53.4px" width="23.75px" xmlns="http://www.w3.org/2000/svg">
  <g transform="matrix(1.0, 0.0, 0.0, 1.0, 11.85, 26.7)">
    <path d="M1.6 -25.5 L4.5 -26.7 6.4 -22.45 3.5 -20.9 1.6 -25.5 M1.75 -19.3 Q3.4 -15.9 6.8 -12.75 3.1 -11.9 -1.05 -15.5 L1.75 -19.3 M8.15 12.1 Q10.35 16.4 11.9 20.85 4.05 25.8 -5.9 26.7 -7.2 21.75 -7.6 17.3 L-7.75 12.8 Q-0.2 11.35 6.1 8.35 L8.15 12.1" fill="#3965b8" fill-rule="evenodd" stroke="none"/>
    <path d="M3.5 5.2 Q-1.15 8.0 -7.3 8.45 -8.1 7.05 -7.9 5.2 -2.6 4.45 2.05 2.4 3.0 3.55 3.5 5.2 M-3.1 -12.85 L-1.45 -8.7 -2.85 -8.05 -3.8 -7.75 -6.45 -7.0 -9.1 -6.6 -10.75 -6.6 -11.55 -6.55 -11.85 -10.7 -9.7 -10.95 -7.5 -11.35 -4.8 -12.1 Q-4.2 -12.3 -3.1 -12.85" fill="#3c63b4" fill-rule="evenodd" stroke="none"/>
  </g>
</svg>
