<?xml version="1.0" encoding="UTF-8" standalone="no"?>
<svg xmlns:xlink="http://www.w3.org/1999/xlink" height="65.05px" width="41.85px" xmlns="http://www.w3.org/2000/svg">
  <g transform="matrix(1.0, 0.0, 0.0, 1.0, 20.9, 32.55)">
    <path d="M6.05 3.5 Q7.45 -0.25 5.2 -6.05 10.7 -4.4 14.0 -5.65 18.1 -7.25 20.35 -11.4 13.1 -17.0 3.45 -14.35 6.7 -17.05 7.2 -20.55 7.05 -26.55 3.95 -31.95 -5.9 -24.6 -4.6 -15.95 -10.2 -25.05 -20.3 -25.1 -20.0 -17.5 -17.3 -13.85 -14.4 -10.7 -8.6 -10.7 -17.05 -6.75 -16.5 4.1 -6.75 4.0 -4.5 -2.9 L-4.15 -4.15 Q-4.05 -1.15 -2.95 1.15 -2.15 2.95 -0.65 4.3 0.5 5.45 2.05 6.4 L4.4 7.55 Q4.3 6.25 5.4 4.8 L6.05 3.5 8.75 3.45 Q11.0 3.8 12.3 2.55 11.25 7.8 6.35 10.55 3.15 12.05 -2.15 9.5 -1.15 13.8 9.2 30.3 L7.95 31.1 6.65 31.9 Q-3.1 13.8 -3.85 10.7 -7.3 14.0 -11.4 13.25 -17.4 11.2 -18.35 5.8 L-12.2 5.95 Q-8.6 4.3 -4.75 5.7 -5.15 1.4 -4.5 -2.9 M-2.95 1.15 L-2.75 5.75 Q-2.0 4.4 -0.65 4.3 M-2.15 9.5 L-2.45 7.75 -2.75 5.75 M-4.75 5.7 L-4.4 8.25 -3.85 10.7" fill="none" stroke="#000000" stroke-linecap="round" stroke-linejoin="round" stroke-width="1.2000000000000002"/>
    <path d="M0.0 -8.8 Q0.6 -9.55 0.55 -10.5 L0.55 -10.7 Q0.45 -11.8 -0.4 -12.5 L-1.15 -12.9 -2.3 -13.05 Q-3.35 -12.95 -4.1 -12.1 L-4.15 -12.05 Q-4.75 -11.25 -4.65 -10.2 L-4.35 -9.2 -3.7 -8.4 Q-2.85 -7.75 -1.8 -7.85 -1.05 -7.95 -0.55 -8.35 L0.0 -8.8 M8.15 -10.85 L0.55 -10.5 M-9.35 -3.9 Q-7.45 -7.6 -4.35 -9.2 M-9.75 -15.55 Q-6.7 -14.6 -4.15 -12.05 M-4.4 8.25 L-11.4 7.95 M-1.15 -12.9 Q-0.9 -16.75 1.15 -20.3 M2.05 6.4 Q-0.3 6.55 -2.45 7.75 M-0.55 -8.35 Q1.4 -4.55 1.7 -0.5" fill="none" stroke="#000000" stroke-linecap="round" stroke-linejoin="round" stroke-opacity="0.6666667" stroke-width="1.0"/>
  </g>
</svg>
