<?xml version="1.0" encoding="UTF-8" standalone="no"?>
<svg xmlns:xlink="http://www.w3.org/1999/xlink" height="77.5px" width="68.75px" xmlns="http://www.w3.org/2000/svg">
  <g transform="matrix(1.0, 0.0, 0.0, 1.0, 34.35, 38.75)">
    <path d="M34.4 12.25 L32.85 13.9 Q19.8 27.15 8.0 20.25 22.6 25.05 33.2 11.6 L34.4 12.25 M1.9 -38.5 Q3.75 -28.25 3.85 -10.4 4.1 6.85 3.5 24.15 L2.7 38.7 1.65 38.75 Q2.9 18.7 2.7 0.1 3.05 -23.35 1.25 -38.75 L1.9 -38.5 M29.55 -2.2 L28.85 -1.4 Q30.7 7.7 25.95 12.65 17.75 20.4 6.95 15.05 15.6 18.05 22.5 14.25 30.3 9.0 27.85 -2.4 L29.55 -2.2 M-5.7 -27.45 Q-7.1 -14.25 -7.35 2.0 -7.45 19.9 -5.9 38.7 L-6.65 38.65 Q-7.8 25.8 -8.3 13.05 L-8.3 12.75 Q-8.35 -0.15 -7.85 -13.25 -7.35 -26.4 -5.3 -37.25 L-4.55 -37.0 -5.7 -27.45 M-23.6 -14.35 Q-27.05 -3.15 -22.7 5.4 -19.6 10.7 -11.95 13.85 -23.3 12.05 -25.85 -0.1 -26.9 -7.55 -24.8 -13.9 L-23.6 -14.35 M-30.7 -13.4 Q-33.4 -6.15 -31.7 3.45 L-31.7 3.6 -31.65 3.8 Q-29.7 14.45 -14.25 19.0 -26.75 19.0 -32.3 6.35 L-33.1 3.75 -33.65 -2.4 -34.35 -2.35 -33.85 -5.5 -33.4 -4.8 Q-33.6 -6.7 -33.2 -8.75 L-32.1 -11.6 -32.15 -11.85 -31.45 -13.7 -30.7 -13.4" fill="#000000" fill-rule="evenodd" stroke="none"/>
  </g>
</svg>
