<?xml version="1.0" encoding="UTF-8" standalone="no"?>
<svg xmlns:xlink="http://www.w3.org/1999/xlink" height="36.7px" width="49.4px" xmlns="http://www.w3.org/2000/svg">
  <g transform="matrix(1.0, 0.0, 0.0, 1.0, 24.7, 18.35)">
    <path d="M9.05 -10.15 L8.05 -11.3 7.2 -12.15 Q3.95 -14.95 -0.55 -15.7 -3.35 -16.0 -5.55 -17.3 L-2.65 -13.85 Q-0.7 -13.3 0.95 -12.3 L3.05 -10.55 M7.65 14.0 Q3.65 12.5 0.45 12.4 L-0.5 12.4 -2.4 12.6 Q0.8 13.4 3.7 16.1 5.55 17.8 8.5 17.75 10.5 17.7 13.0 16.8 19.2 14.7 22.0 9.75 26.85 1.45 20.4 -7.2 L19.7 -8.2 Q15.8 -12.6 9.95 -13.75 L14.55 -8.65 16.75 -5.5 M7.2 -12.15 Q11.15 -11.4 14.55 -8.65 M18.45 0.85 Q14.4 -4.7 7.75 -4.25 10.1 -2.9 11.45 0.2 13.2 3.15 15.9 4.35 M10.4 8.95 Q8.3 5.3 3.85 4.3 -0.75 3.25 -3.6 0.4 -2.7 4.3 -0.5 7.15 2.0 10.4 6.15 12.1 M-0.5 12.4 Q-9.0 9.3 -11.4 3.0 -9.05 4.5 -5.65 5.2 -9.8 1.65 -10.9 -2.7 L-12.4 -4.0 Q-14.9 -6.65 -18.05 -8.15 L-15.5 -8.35 Q-18.7 -10.1 -20.2 -12.8 -21.85 -15.95 -24.1 -17.5 -22.2 -17.8 -18.15 -16.2 L-18.5 -17.75 Q-15.8 -15.85 -12.05 -14.25 -10.8 -14.55 -7.35 -13.2 -9.1 -14.65 -10.25 -16.45 -7.1 -14.65 -2.65 -13.85 M-6.45 -4.4 L-6.85 -4.9 Q-9.15 -7.25 -12.35 -8.05 L-13.5 -8.25 -15.5 -8.35 M-7.35 -13.2 L-5.55 -11.9 Q-3.8 -10.75 -1.55 -9.8 M-6.5 -1.05 L-7.0 -1.1 Q-9.25 -1.55 -10.9 -2.7 M5.95 -3.35 Q0.0 -8.1 -6.3 -7.1 -3.35 -5.75 -1.3 -2.95 0.85 -0.1 4.4 0.35 M-7.8 -8.05 L-8.45 -10.05 Q-9.7 -13.1 -12.05 -14.25 M-13.5 -8.25 Q-17.2 -12.65 -18.15 -16.2 M-0.5 7.15 Q-2.85 5.55 -5.35 5.3 L-5.65 5.2" fill="none" stroke="#000000" stroke-linecap="round" stroke-linejoin="round" stroke-width="1.2000000000000002"/>
  </g>
</svg>
