<?xml version="1.0" encoding="UTF-8" standalone="no"?>
<svg xmlns:xlink="http://www.w3.org/1999/xlink" height="30.0px" width="29.1px" xmlns="http://www.w3.org/2000/svg">
  <g transform="matrix(1.0, 0.0, 0.0, 1.0, 14.55, 15.0)">
    <path d="M7.35 -15.0 Q13.2 -14.4 14.3 -8.1 14.85 -4.1 14.3 -0.95 13.75 2.2 13.05 3.85 12.35 5.45 12.5 7.0 L13.3 6.9 13.2 7.1 13.05 7.2 12.75 7.4 12.2 7.8 Q11.85 8.55 11.05 8.45 10.7 8.4 10.45 8.8 L10.0 9.4 9.7 9.45 9.3 9.45 8.9 9.55 8.6 9.65 8.2 9.6 7.9 9.55 7.45 9.65 6.9 9.8 6.55 9.75 6.15 9.7 5.75 9.8 5.35 9.85 4.95 9.75 Q4.85 9.6 4.6 9.6 L3.65 9.6 3.0 9.25 2.15 9.1 1.25 8.95 0.45 8.7 0.0 8.7 -0.45 8.6 -0.85 8.35 -1.2 8.2 -2.05 8.0 Q-2.6 7.65 -2.8 7.65 L-3.2 7.6 -3.6 7.45 -3.9 7.15 -4.25 7.0 -5.05 6.75 -5.8 6.55 -6.7 6.25 -7.55 6.0 -7.7 5.7 -8.0 5.45 -8.3 5.4 -8.6 5.3 -9.0 4.8 -9.5 4.4 -9.75 4.1 -9.95 3.8 -10.3 3.65 -10.65 3.6 -11.1 3.1 -11.75 2.75 -12.3 2.25 Q-12.5 1.85 -12.65 1.8 L-13.0 1.35 -13.25 0.8 -13.75 0.3 -14.0 -0.05 -14.05 -0.25 Q-14.1 -0.75 -14.3 -0.9 -14.5 -1.0 -14.5 -1.45 L-14.45 -1.95 -14.55 -2.7 -14.1 -6.25 Q-13.7 -9.1 -9.45 -10.85 -4.45 -12.35 -0.35 -9.7 2.1 -15.15 7.35 -15.0 M12.5 11.05 Q12.75 12.65 10.95 14.05 8.9 15.45 2.9 14.75 -5.35 13.85 -11.5 8.9 -14.3 6.5 -13.85 3.9 L-13.75 4.25 -13.6 4.8 -13.2 5.05 Q-12.95 5.2 -12.85 5.6 L-12.4 5.9 -11.9 6.2 -11.3 7.0 -11.0 7.05 -10.75 7.1 -10.35 7.65 -9.9 7.9 -9.35 8.1 -9.0 8.75 Q-8.85 9.05 -8.45 9.0 -8.15 9.0 -8.0 9.15 L-7.65 9.65 Q-7.35 9.55 -7.05 9.85 L-6.65 10.35 -6.15 10.5 Q-5.7 10.5 -5.55 10.65 -5.1 11.1 -4.5 11.05 L-3.9 11.25 -3.4 11.5 -2.75 11.5 Q-2.35 11.55 -2.1 11.7 -1.45 12.1 -1.0 12.1 L-0.35 12.3 Q-0.15 12.5 0.1 12.5 L0.45 12.4 0.75 12.3 1.05 12.45 1.4 12.55 2.25 12.35 3.5 12.45 4.0 12.65 4.5 12.85 4.9 12.7 5.4 12.55 6.0 12.65 6.65 12.7 7.15 12.55 7.65 12.35 8.0 12.45 8.3 12.55 8.9 12.3 9.4 12.05 9.65 12.15 9.85 12.2 10.15 11.95 Q10.35 11.7 10.5 11.7 L11.35 11.75 11.7 11.4 Q12.0 11.05 12.5 11.05" fill="#fec0e7" fill-rule="evenodd" stroke="none"/>
  </g>
</svg>
