<?xml version="1.0" encoding="UTF-8" standalone="no"?>
<svg xmlns:xlink="http://www.w3.org/1999/xlink" height="38.25px" width="106.6px" xmlns="http://www.w3.org/2000/svg">
  <g transform="matrix(1.0, 0.0, 0.0, 1.0, 70.75, 33.9)">
    <path d="M24.6 -12.85 Q30.4 -13.8 35.15 -15.85 L34.05 -14.7 Q37.7 -9.05 33.95 -5.1 21.9 1.35 3.1 3.1 -47.3 7.6 -70.75 -4.1 -63.4 -4.9 -53.15 -7.9 -45.9 -10.05 -37.2 -13.3 -18.55 -9.85 1.2 -8.6 L1.85 -6.45 13.3 0.05 23.85 -8.2 24.6 -12.85" fill="#000000" fill-opacity="0.32941177" fill-rule="evenodd" stroke="none"/>
    <path d="M24.6 -12.85 L23.85 -8.2 13.3 0.05 1.85 -6.45 1.2 -8.6 -3.5 -24.0 Q4.85 -28.05 10.8 -33.9 18.65 -28.35 26.55 -26.05 L24.6 -12.85" fill="#181818" fill-rule="evenodd" stroke="none"/>
  </g>
</svg>
