<?xml version="1.0" encoding="UTF-8" standalone="no"?>
<svg xmlns:xlink="http://www.w3.org/1999/xlink" height="87.65px" width="141.15px" xmlns="http://www.w3.org/2000/svg">
  <g transform="matrix(1.0, 0.0, 0.0, 1.0, 70.6, 43.85)">
    <path d="M-12.75 15.85 Q-21.05 22.75 -28.2 27.95 -1.65 26.35 34.2 8.35 L32.9 8.15 20.2 -9.1 Q27.8 -16.8 32.1 -25.55 42.9 -22.55 52.5 -23.1 L56.25 -3.4 Q62.65 -8.35 65.2 -13.5 L65.95 -15.2 Q68.6 -22.55 63.5 -30.3 53.3 -44.1 20.2 -42.7 L19.7 -42.7 Q-21.0 -42.0 -51.5 -7.85 -78.3 29.45 -65.45 41.4 -59.0 45.1 -46.1 39.0 -38.35 35.25 -28.2 27.95 M65.2 -13.5 Q71.35 -8.65 68.8 -2.9 58.05 8.95 38.05 18.2 -15.7 42.75 -46.1 39.0 M34.2 8.35 L48.1 10.8 56.45 -2.35 56.25 -3.4" fill="none" stroke="#000000" stroke-linecap="round" stroke-linejoin="round" stroke-width="2.0"/>
  </g>
</svg>
