<?xml version="1.0" encoding="UTF-8" standalone="no"?>
<svg xmlns:xlink="http://www.w3.org/1999/xlink" height="57.25px" width="54.35px" xmlns="http://www.w3.org/2000/svg">
  <g transform="matrix(1.0, 0.0, 0.0, 1.0, 27.15, 28.65)">
    <path d="M12.2 -12.9 Q15.9 -6.25 13.1 -1.45 10.3 3.3 2.65 3.4 -5.05 3.5 -13.15 -1.1 -21.25 -5.7 -25.0 -12.35 -28.75 -18.95 -25.95 -23.8 -23.15 -28.55 -15.45 -28.65 -7.75 -28.75 0.3 -24.1 8.4 -19.5 12.2 -12.9 M25.4 17.45 Q26.9 19.4 27.15 22.1 27.35 24.75 26.2 26.65 25.0 28.6 23.05 28.6 21.1 28.6 19.6 26.65 18.05 24.75 17.8 22.1 17.6 19.4 18.8 17.45 19.95 15.55 21.9 15.55 23.85 15.55 25.4 17.45" fill="#ffffff" fill-opacity="0.7019608" fill-rule="evenodd" stroke="none"/>
  </g>
</svg>
