<?xml version="1.0" encoding="UTF-8" standalone="no"?>
<svg xmlns:xlink="http://www.w3.org/1999/xlink" height="29.85px" width="83.2px" xmlns="http://www.w3.org/2000/svg">
  <g transform="matrix(1.0, 0.0, 0.0, 1.0, 35.9, 52.1)">
    <path d="M3.35 -51.15 L4.7 -51.65 9.75 -52.1 14.5 -51.6 15.65 -51.2 16.35 -50.5 15.0 -49.25 14.5 -49.1 9.75 -48.6 4.7 -49.15 Q2.65 -49.65 2.65 -50.35 2.65 -50.8 3.35 -51.15 M34.3 -24.8 L35.45 -25.2 40.2 -25.75 45.25 -25.25 46.6 -24.75 Q47.3 -24.45 47.3 -24.0 47.3 -23.25 45.25 -22.75 L40.2 -22.25 35.45 -22.7 34.95 -22.85 33.6 -24.1 Q33.65 -24.5 34.3 -24.8 M-35.9 -30.2 L-35.6 -30.95 Q-34.95 -32.2 -33.5 -33.65 L-31.0 -35.85 Q-29.8 -36.65 -29.5 -36.35 -29.25 -36.1 -30.0 -34.75 -30.8 -33.5 -32.25 -32.25 L-34.6 -30.2 -34.75 -30.05 -35.75 -29.5 -35.9 -30.2" fill="#000000" fill-rule="evenodd" stroke="none"/>
  </g>
</svg>
