<?xml version="1.0" encoding="UTF-8" standalone="no"?>
<svg xmlns:xlink="http://www.w3.org/1999/xlink" height="191.8px" width="176.25px" xmlns="http://www.w3.org/2000/svg">
  <g transform="matrix(1.0, 0.0, 0.0, 1.0, 88.1, 95.9)">
    <path d="M21.95 -51.85 L26.85 -50.2 Q38.45 -46.75 43.5 -41.15 L43.8 -40.6 44.45 -38.75 44.6 -38.35 45.45 -35.95 45.75 -34.8 Q48.1 -26.8 46.45 -21.4 40.45 -27.85 36.35 -33.55 33.65 -37.3 31.65 -40.8 30.0 -43.4 26.85 -45.9 L23.95 -48.1 Q23.45 -50.0 21.95 -51.85 M-15.85 -23.4 Q-19.95 -22.5 -21.95 -20.45 L-22.05 -20.35 -22.2 -20.2 -22.25 -20.15 -22.2 -20.15 -23.0 -19.05 -23.05 -18.95 Q-25.05 -12.7 -20.0 -7.25 -14.2 -1.7 -5.65 -4.25 -0.4 -6.7 -0.1 -10.7 L-0.1 -11.6 -0.1 -11.8 -0.1 -11.95 Q-0.4 -15.95 -4.25 -19.05 -8.95 -23.55 -14.65 -23.4 L-15.3 -23.4 -15.85 -23.4 M-28.4 -72.8 L-28.1 -74.35 -28.1 -88.35 Q-30.1 -99.85 -23.0 -93.85 -13.45 -85.4 -8.75 -75.65 L-8.15 -74.5 -8.6 -73.95 -9.9 -73.05 -10.05 -73.0 -10.15 -72.95 Q-11.45 -72.25 -12.9 -72.05 -12.15 -74.85 -12.9 -78.65 -13.4 -75.6 -14.2 -73.2 L-15.45 -70.4 -15.7 -71.3 Q-17.25 -76.75 -20.7 -82.55 -20.4 -79.6 -20.6 -77.25 L-21.65 -71.95 -21.75 -71.7 -22.4 -70.4 Q-25.8 -73.55 -24.7 -77.85 -26.5 -75.1 -26.9 -72.45 L-27.0 -70.8 -27.0 -70.0 -27.0 -69.85 -27.35 -70.45 -28.4 -72.8 M-6.6 -46.05 Q-3.4 -44.8 0.0 -41.9 L15.0 -29.0 Q24.7 -17.25 47.75 -1.3 69.5 13.8 86.3 22.8 L88.15 23.8 85.35 23.4 84.95 23.4 Q77.65 24.0 74.65 29.55 L74.55 29.75 74.35 30.0 74.2 30.35 73.9 31.25 Q73.35 32.55 73.0 34.2 71.95 40.4 76.45 47.95 L76.45 48.05 76.05 48.45 75.8 48.5 Q66.6 44.95 57.35 50.7 52.25 58.0 55.45 68.15 55.5 69.6 56.35 71.2 L56.9 72.25 64.3 80.35 64.55 80.5 64.75 80.7 65.15 81.05 Q61.1 78.3 56.0 76.4 L54.0 75.5 Q46.6 72.65 33.2 69.8 L33.35 79.5 Q28.65 90.95 7.85 95.3 L7.45 95.35 Q7.3 95.35 7.2 95.45 L0.6 95.9 -3.15 95.8 -8.4 95.3 Q-27.5 91.05 -44.35 81.95 -48.9 80.0 -53.05 78.7 L-63.7 77.6 -74.6 76.4 -76.1 75.95 Q-84.8 73.2 -87.15 68.3 -88.25 66.15 -88.1 63.7 L-87.65 56.95 Q-86.05 37.2 -82.6 18.4 -78.85 -1.5 -70.1 -23.9 L-69.45 -26.05 -63.4 -43.7 -63.45 -43.75 -66.7 -46.75 -68.5 -48.5 Q-77.25 -57.25 -81.95 -66.65 -85.2 -74.7 -86.1 -86.05 L-86.25 -87.95 Q-85.95 -91.75 -80.05 -84.1 -69.8 -72.4 -54.3 -60.65 -55.95 -60.8 -57.5 -59.9 -52.55 -56.95 -50.65 -53.55 L-55.75 -57.1 Q-51.45 -53.2 -50.65 -49.05 -48.5 -44.9 -44.0 -42.15 -45.85 -44.3 -46.2 -47.0 -45.15 -44.2 -41.0 -41.15 -37.95 -38.6 -34.8 -35.05 L-36.25 -39.7 Q-31.6 -37.3 -30.45 -32.8 L-30.45 -38.35 -29.25 -33.35 -27.9 -36.45 Q-25.0 -38.7 -17.8 -40.6 -19.3 -38.6 -18.9 -36.15 -16.6 -40.05 -11.75 -43.6 -13.45 -40.85 -12.9 -38.05 L-8.35 -44.7 -6.6 -46.05" fill="#c47a2c" fill-rule="evenodd" stroke="none"/>
  </g>
</svg>
