<?xml version="1.0" encoding="UTF-8" standalone="no"?>
<svg xmlns:xlink="http://www.w3.org/1999/xlink" height="368.5px" width="195.45px" xmlns="http://www.w3.org/2000/svg">
  <g transform="matrix(1.0, 0.0, 0.0, 1.0, 97.7, 184.25)">
    <path d="M37.35 -12.0 Q21.1 -22.55 0.45 -22.55 -20.1 -22.55 -36.35 -12.1 L-51.2 -21.25 -66.2 -5.75 -57.5 8.8 Q-68.45 25.3 -68.45 46.35 -68.45 67.05 -57.85 83.35 L-66.35 97.15 -50.35 111.9 -37.45 104.05 Q-20.8 115.25 0.45 115.25 21.5 115.25 38.0 104.3 L51.05 112.25 67.05 97.5 58.55 83.65 Q69.35 67.25 69.35 46.35 69.35 25.1 58.15 8.45 L67.55 -5.75 51.8 -20.5 37.35 -12.0 M21.2 -115.4 Q12.1 -121.3 0.55 -121.3 -11.0 -121.3 -20.1 -115.45 L-28.4 -120.6 -36.8 -111.9 -31.95 -103.75 Q-38.05 -94.5 -38.05 -82.7 -38.05 -71.1 -32.15 -62.0 L-36.9 -54.25 -27.95 -46.0 -20.7 -50.4 Q-11.4 -44.15 0.55 -44.15 12.3 -44.15 21.55 -50.25 L28.85 -45.8 37.85 -54.05 33.05 -61.85 Q39.1 -71.0 39.1 -82.7 39.1 -94.6 32.85 -103.95 L38.1 -111.9 29.3 -120.15 21.2 -115.4 M97.75 -155.25 L97.75 184.25 -97.7 184.25 -97.7 -155.75 -51.2 -184.25 51.25 -184.25 97.75 -155.25 M63.75 132.3 Q58.7 127.25 51.55 127.25 44.4 127.25 39.35 132.3 34.3 137.35 34.3 144.5 34.3 151.65 39.35 156.7 44.4 161.75 51.55 161.75 58.7 161.75 63.75 156.7 68.8 151.65 68.8 144.5 68.8 137.35 63.75 132.3 M81.25 167.75 L-80.2 167.75 -80.2 -139.25 81.25 -139.25 81.25 167.75 M-29.95 144.5 Q-29.95 137.35 -35.0 132.3 -40.05 127.25 -47.2 127.25 -54.35 127.25 -59.4 132.3 -64.45 137.35 -64.45 144.5 -64.45 151.65 -59.4 156.7 -54.35 161.75 -47.2 161.75 -40.05 161.75 -35.0 156.7 -29.95 151.65 -29.95 144.5 M86.75 173.75 L86.75 -144.75 -87.2 -144.75 -87.2 173.75 86.75 173.75" fill="#4b4d64" fill-rule="evenodd" stroke="none"/>
  </g>
</svg>
