<?xml version="1.0" encoding="UTF-8" standalone="no"?>
<svg xmlns:xlink="http://www.w3.org/1999/xlink" height="557.8px" width="552.8px" xmlns="http://www.w3.org/2000/svg">
  <g transform="matrix(1.0, 0.0, 0.0, 1.0, 276.4, 278.9)">
    <path d="M-24.6 42.1 L-20.1 77.1 Q-35.65 83.55 -37.05 203.1 -40.35 214.95 -51.55 223.6 L-59.05 239.1 M30.9 16.1 Q21.5 44.15 6.4 39.6 -7.7 35.4 -12.6 1.1 M34.9 80.6 Q43.85 130.6 39.4 166.1 34.0 189.05 39.9 193.1 45.25 195.85 43.4 207.6 41.05 221.9 49.4 224.1 57.2 223.35 63.4 238.6 M18.4 159.1 Q24.7 167.15 23.9 176.6 24.1 189.75 29.9 193.1 M-18.1 244.6 Q0.9 236.45 21.4 249.1" fill="none" stroke="#000000" stroke-linecap="round" stroke-linejoin="round" stroke-opacity="0.49803922" stroke-width="2.0"/>
    <path d="M42.9 -173.4 Q43.5 -194.9 65.9 -187.9 79.65 -206.5 93.4 -201.9 109.8 -197.55 103.4 -170.4 113.45 -166.85 115.0 -160.95 116.8 -153.7 105.9 -142.9 M-11.6 -75.9 Q7.2 -51.95 35.9 -68.4 48.4 -79.4 50.4 -96.9 50.95 -102.2 50.5 -106.75 48.85 -123.1 34.4 -130.9 15.65 -141.3 -3.1 -127.4 M35.9 -68.4 Q43.6 -62.85 45.85 -55.95 47.25 -51.55 46.45 -46.65 42.6 -29.15 25.15 -26.65 L25.5 -24.95 M-24.3 -39.15 Q-20.0 -36.15 -15.35 -33.85 1.5 -25.5 22.95 -26.4 L25.15 -26.65 M104.4 -40.9 Q118.85 -36.0 130.0 -37.65 142.8 -39.55 151.35 -49.95 155.15 -54.65 158.15 -61.1 153.25 -62.5 148.4 -64.9 M71.9 -49.4 Q85.9 -34.05 99.9 -49.4 102.5 -52.65 102.7 -55.95 102.95 -61.4 96.4 -66.9 100.15 -68.35 103.0 -70.1 119.1 -79.9 106.4 -98.4 L103.0 -102.35 Q89.7 -115.8 76.4 -98.4 67.6 -117.55 50.5 -106.75 M158.15 -61.1 Q172.15 -57.0 186.2 -61.15 L186.9 -61.4 Q204.95 -67.0 205.9 -91.4 205.6 -113.25 179.9 -116.9 187.15 -121.5 192.75 -125.95 208.5 -138.6 210.7 -150.4 M186.2 -61.15 Q189.55 -55.9 188.25 -49.95 186.55 -42.25 176.9 -33.4 205.0 -47.85 217.9 -28.9 225.15 -12.3 221.35 -2.45 M-130.05 -215.55 Q-117.25 -217.15 -108.0 -213.4 -94.15 -207.8 -88.4 -190.1 -71.65 -198.65 -53.6 -189.25 -49.3 -198.2 -44.0 -204.15 L-43.3 -204.95 Q-27.75 -221.7 -4.05 -212.9 -9.1 -221.65 -10.55 -228.95 -13.3 -242.75 -3.3 -251.2 M-196.55 -73.4 Q-212.9 -69.7 -211.05 -51.4 -206.1 -38.25 -190.55 -43.4 -211.7 -23.8 -192.55 -5.9 -178.0 7.4 -157.55 -9.4 -161.4 5.65 -149.55 13.6 -135.9 20.65 -131.05 8.25 -133.5 6.55 -135.55 4.1 M-53.6 -189.25 Q-50.1 -187.4 -46.55 -184.9 M-96.55 -184.9 Q-92.5 -188.05 -88.4 -190.1 M-47.8 -27.4 Q-45.75 -26.85 -44.0 -26.1 L-41.65 -24.95 Q-37.45 -22.5 -36.0 -18.55 M-18.5 -24.95 L-17.3 -26.75 Q-15.65 -29.75 -15.35 -33.85 M-17.3 -26.75 L-16.5 -24.95 M-131.05 8.25 Q-123.55 13.45 -112.55 10.6 -99.8 6.6 -96.05 -1.9 M135.45 41.05 Q128.65 64.15 154.9 64.1 176.1 62.5 173.4 40.6" fill="none" stroke="#000000" stroke-linecap="round" stroke-linejoin="round" stroke-opacity="0.54901963" stroke-width="2.0"/>
    <path d="M210.7 -150.4 Q212.45 -159.65 205.9 -168.4 187.1 -194.35 159.9 -178.4 195.2 -208.65 177.4 -226.9 161.85 -242.95 134.4 -223.4 150.4 -269.15 102.9 -276.4 73.7 -280.0 46.4 -248.25 52.1 -243.2 57.9 -235.9 M210.7 -150.4 Q221.55 -155.75 232.4 -150.4 247.0 -139.55 232.4 -120.9 250.55 -133.4 264.9 -120.9 286.7 -101.2 253.9 -72.4 285.1 -69.8 269.9 -39.4 262.85 -25.25 245.9 -32.9 255.55 -14.7 241.4 -4.4 231.35 1.5 221.35 -2.45 216.55 9.7 194.9 11.6 234.5 9.15 219.4 48.1 208.65 69.55 183.4 56.6 206.2 80.95 174.4 92.1 153.95 95.35 139.4 77.1 127.75 102.7 101.4 93.1 L98.7 91.2 66.6 97.4 Q57.1 115.0 49.15 139.1 52.25 217.85 73.9 234.1 99.6 250.25 139.9 261.6 88.9 267.9 35.4 258.1 34.95 262.9 43.9 277.1 25.25 278.8 10.9 270.6 -19.6 252.75 -43.05 251.6 -85.3 249.0 -127.55 253.6 -115.95 240.9 -97.55 233.6 -58.1 223.8 -55.55 206.6 -43.7 154.85 -50.05 103.1 -59.2 69.5 -92.75 65.45 -98.85 74.1 -112.55 77.1 -130.4 81.0 -143.6 75.0 -157.35 93.85 -182.05 95.6 -203.05 94.7 -213.05 78.1 -216.85 67.3 -215.0 56.5 -224.35 65.4 -243.55 58.1 -269.3 47.3 -263.05 27.1 -259.0 16.3 -251.0 9.75 -280.55 -11.15 -273.55 -47.4 -265.95 -92.5 -218.1 -99.35 -223.9 -130.45 -206.05 -150.9 -191.15 -166.5 -170.5 -166.6 -182.3 -198.3 -141.05 -213.4 -135.25 -214.95 -130.05 -215.55 -126.85 -238.3 -103.55 -230.9 -115.25 -268.5 -80.55 -275.9 -46.3 -283.7 -43.55 -250.4 -34.65 -264.85 -19.55 -263.9 -9.05 -264.7 -3.3 -251.2 1.6 -255.35 9.5 -258.2 27.75 -264.75 46.4 -248.25 M25.5 -24.95 Q26.1 -22.1 26.85 -19.65 35.2 6.1 64.9 -13.9 63.85 -10.2 65.4 -8.25 68.1 -4.9 78.9 -6.9 63.95 7.15 83.45 20.0 L86.9 22.1 Q93.35 25.65 99.4 24.55 106.45 23.25 112.9 15.6 M-207.55 -100.4 L-218.1 -99.35 M-36.0 -18.55 Q-23.5 -18.75 -18.5 -24.95 M-16.5 -24.95 Q10.9 37.65 26.85 -19.65 M-109.55 41.1 L-99.45 40.8 Q-84.95 39.15 -77.4 30.25 -74.9 27.3 -73.15 23.55 -70.3 17.2 -69.55 8.6 -58.65 11.6 -50.75 8.6 -43.3 5.75 -38.55 -2.4 -33.8 -12.3 -36.0 -18.55 M-152.05 -163.9 Q-161.8 -166.65 -170.5 -166.6 M-73.15 23.55 Q-45.95 60.25 -37.55 54.1 -28.65 41.35 -50.75 8.6 M-154.55 67.6 Q-149.55 72.3 -143.6 75.0 M-92.75 65.45 Q-90.3 62.0 -89.05 57.6 L-88.85 55.55 Q-88.6 46.8 -99.45 40.8 M-88.85 55.55 Q-45.5 70.9 -77.4 30.25 M-208.05 38.6 Q-213.5 47.55 -215.0 56.5 M99.4 24.55 Q101.05 36.0 111.7 39.85 119.25 42.55 131.4 41.5 L135.45 41.05 143.9 39.6 M99.4 24.55 L91.9 47.1 Q94.25 52.9 111.7 39.85 M131.4 41.5 L94.4 62.1 Q91.55 64.35 88.8 67.0 85.4 76.85 92.35 85.3 94.85 88.35 98.7 91.2 M83.45 20.0 Q82.6 44.5 68.4 66.6 L48.75 97.2 Q48.4 120.0 49.15 139.1 M65.4 -8.25 Q52.85 35.75 48.9 89.6 L48.75 97.2 M92.35 85.3 L71.4 89.1 66.6 97.4 M88.8 67.0 Q79.55 75.85 71.4 89.1 M-223.55 -0.4 Q-240.65 1.1 -251.0 9.75" fill="none" stroke="#000000" stroke-linecap="round" stroke-linejoin="round" stroke-width="3.0"/>
  </g>
</svg>
