<?xml version="1.0" encoding="UTF-8" standalone="no"?>
<svg xmlns:xlink="http://www.w3.org/1999/xlink" height="281.9px" width="364.5px" xmlns="http://www.w3.org/2000/svg">
  <g transform="matrix(1.0, 0.0, 0.0, 1.0, 193.1, 292.55)">
    <path d="M57.25 -255.95 L57.3 -255.5 62.45 -253.35 Q61.6 -251.6 61.6 -249.5 61.65 -247.55 62.3 -245.9 L38.3 -235.3 57.25 -255.95 M67.25 -257.95 L66.85 -258.9 66.9 -258.95 66.9 -259.0 66.9 -259.1 66.8 -259.1 66.8 -259.05 66.75 -259.1 56.55 -282.45 75.7 -263.3 104.7 -263.5 79.05 -253.35 Q78.35 -254.75 77.15 -255.95 74.5 -258.6 70.75 -258.65 68.85 -258.65 67.25 -257.95 M66.85 -259.95 L66.9 -259.95 66.9 -260.05 66.85 -260.05 66.85 -260.1 66.8 -260.1 66.75 -260.15 66.7 -260.1 66.75 -260.05 66.7 -260.05 66.65 -260.1 66.65 -260.05 66.7 -260.0 66.7 -259.95 66.75 -259.95 66.75 -259.9 66.8 -259.9 66.85 -259.9 66.85 -259.95 M0.1 -256.0 Q0.75 -257.65 0.8 -259.6 0.8 -261.7 -0.05 -263.45 L5.1 -265.6 5.15 -266.05 24.1 -245.4 0.1 -256.0 M-4.85 -268.05 Q-6.45 -268.75 -8.35 -268.75 -12.1 -268.7 -14.75 -266.05 -15.95 -264.85 -16.65 -263.45 L-42.3 -273.6 -13.3 -273.4 5.85 -292.55 -4.85 -268.05 M-17.05 -256.75 Q-16.35 -254.75 -14.75 -253.15 -13.65 -252.05 -12.35 -251.35 L-23.1 -227.6 -22.65 -253.95 -22.8 -254.7 -17.05 -256.75 M74.75 -241.25 Q76.05 -241.95 77.15 -243.05 78.75 -244.65 79.45 -246.65 L85.2 -244.6 85.05 -243.85 85.5 -217.5 74.75 -241.25 M140.85 -208.0 L140.85 -208.05 140.8 -208.0 140.8 -207.9 140.85 -207.9 140.9 -207.95 140.9 -208.0 140.85 -208.0 M140.75 -206.95 L140.8 -206.95 140.8 -206.9 140.85 -206.9 140.9 -206.95 140.9 -207.1 140.85 -207.1 140.8 -207.05 140.8 -207.0 140.75 -207.05 140.75 -206.95 M133.1 -204.05 L133.05 -203.7 137.25 -202.0 Q136.6 -200.55 136.6 -198.85 136.6 -197.25 137.2 -195.95 L117.75 -187.4 133.1 -204.05 M141.15 -205.7 L132.5 -225.45 147.95 -210.0 171.4 -210.15 150.7 -201.95 149.15 -204.1 Q147.0 -206.25 143.95 -206.2 L141.15 -205.7 M151.0 -196.55 L155.6 -194.95 155.55 -194.3 155.9 -173.05 147.2 -192.25 Q148.3 -192.75 149.2 -193.65 150.5 -194.95 151.0 -196.55 M112.25 -167.2 L125.85 -153.6 146.55 -153.7 128.25 -146.5 126.9 -148.35 Q125.0 -150.25 122.4 -150.25 L119.85 -149.8 119.8 -149.9 119.85 -149.9 119.9 -149.95 119.9 -150.0 119.85 -150.05 119.8 -150.0 119.8 -150.05 119.8 -150.0 119.75 -150.05 119.75 -150.0 112.25 -167.2 M132.55 -139.7 L132.85 -121.0 125.2 -137.95 Q126.15 -138.4 126.95 -139.2 128.1 -140.35 128.5 -141.75 L132.65 -140.3 132.55 -139.7 M99.3 -133.65 L112.75 -148.3 112.8 -148.05 116.45 -146.5 Q115.9 -145.25 115.9 -143.75 115.85 -142.4 116.35 -141.2 L99.3 -133.65 M119.8 -151.05 L119.8 -151.0 119.75 -151.05 119.75 -150.95 119.8 -150.95 119.8 -150.9 119.85 -150.95 119.85 -150.9 119.9 -150.95 119.9 -151.0 119.85 -151.05 119.8 -151.0 119.8 -151.05 M119.8 -149.95 L119.8 -149.9 119.8 -149.95 M81.8 -102.9 L81.85 -102.95 81.85 -102.9 81.9 -102.95 81.9 -103.0 81.85 -103.05 81.8 -103.0 81.8 -103.05 81.8 -103.0 81.75 -103.05 81.75 -102.95 81.8 -102.95 81.8 -102.9 M81.9 -101.9 L81.9 -101.95 81.9 -102.0 81.85 -102.05 74.3 -119.25 87.9 -105.65 108.6 -105.75 90.3 -98.55 88.95 -100.4 Q87.05 -102.3 84.45 -102.3 L81.9 -101.85 81.9 -101.9 M74.8 -100.35 L74.85 -100.1 78.5 -98.55 Q77.95 -97.3 77.95 -95.8 77.9 -94.45 78.4 -93.25 L61.35 -85.7 74.8 -100.35 M94.6 -91.75 L94.9 -73.05 87.25 -90.0 Q88.2 -90.45 89.0 -91.25 90.15 -92.4 90.55 -93.8 L94.7 -92.35 94.6 -91.75 M61.85 -186.9 L61.9 -186.9 61.9 -186.95 61.9 -187.0 61.85 -187.0 61.85 -187.05 61.8 -187.0 55.05 -202.45 68.65 -188.85 89.35 -188.95 71.05 -181.75 69.7 -183.6 Q67.8 -185.5 65.2 -185.5 L62.65 -185.05 61.85 -186.9 M62.75 -186.05 L62.75 -185.95 62.8 -185.95 62.8 -185.9 62.85 -185.9 62.9 -185.95 62.9 -186.0 62.85 -186.05 62.8 -186.0 62.8 -186.05 62.8 -186.0 62.75 -186.05 M71.3 -177.0 L75.45 -175.55 75.35 -174.95 75.65 -156.25 68.0 -173.2 Q68.95 -173.65 69.75 -174.45 70.9 -175.6 71.3 -177.0 M55.55 -183.55 L55.6 -183.3 59.25 -181.75 Q58.7 -180.5 58.7 -179.0 58.65 -177.65 59.15 -176.45 L42.1 -168.9 55.55 -183.55 M0.1 -180.75 Q0.75 -182.4 0.8 -184.35 0.8 -186.45 -0.05 -188.2 L5.1 -190.35 5.15 -190.8 24.1 -170.15 0.1 -180.75 M-4.85 -192.8 Q-6.45 -193.5 -8.35 -193.5 -12.1 -193.45 -14.75 -190.8 -15.95 -189.6 -16.65 -188.2 L-42.3 -198.35 -13.3 -198.15 5.85 -217.3 -3.85 -195.1 -3.85 -195.05 -3.9 -195.05 -3.9 -194.95 -4.7 -193.1 -4.75 -193.1 -4.8 -193.05 -4.85 -193.05 -4.85 -193.1 -4.9 -193.1 -4.85 -193.05 -4.85 -193.0 -4.8 -192.95 -4.85 -192.95 -4.8 -192.9 -4.85 -192.8 M-17.05 -181.5 Q-16.35 -179.5 -14.75 -177.9 -13.65 -176.8 -12.35 -176.1 L-23.1 -152.35 -22.65 -178.7 -22.8 -179.45 -17.05 -181.5 M24.9 -128.95 L24.9 -129.1 24.85 -129.1 24.85 -129.05 24.8 -129.0 24.75 -129.05 24.8 -129.0 24.8 -128.95 24.8 -128.9 24.85 -128.9 24.9 -128.95 M25.8 -127.95 L25.8 -127.9 25.85 -127.9 25.95 -127.95 25.95 -128.0 25.85 -127.95 25.8 -127.95 25.8 -128.0 25.85 -128.0 25.8 -128.05 25.8 -128.0 25.75 -128.05 25.75 -127.95 25.8 -127.95 M25.85 -128.05 L25.9 -128.05 25.85 -128.1 25.85 -128.05 M35.0 -123.3 L33.45 -125.45 Q31.3 -127.6 28.25 -127.55 L25.45 -127.05 16.8 -146.8 32.25 -131.35 55.7 -131.5 35.0 -123.3 M21.55 -123.35 Q20.9 -121.9 20.9 -120.2 20.9 -118.6 21.5 -117.3 L2.05 -108.75 17.4 -125.4 17.35 -125.05 21.55 -123.35 M31.5 -113.6 L33.5 -115.0 Q34.8 -116.3 35.3 -117.9 L39.9 -116.3 39.85 -115.65 40.2 -94.4 31.5 -113.6 M14.75 -53.35 L14.8 -52.9 19.95 -50.75 Q19.1 -49.0 19.1 -46.9 19.15 -44.95 19.8 -43.3 L-4.2 -32.7 14.75 -53.35 M24.75 -55.35 L14.05 -79.85 33.2 -60.7 62.2 -60.9 36.55 -50.75 Q35.85 -52.15 34.65 -53.35 32.0 -56.0 28.25 -56.05 26.35 -56.05 24.75 -55.35 M23.8 -58.05 L23.85 -58.0 23.9 -58.0 23.9 -58.05 23.8 -58.05 23.75 -58.05 23.75 -58.0 23.8 -58.05 M23.8 -57.95 L23.75 -57.95 23.8 -57.9 23.8 -57.95 M24.8 -56.9 L24.85 -56.95 24.9 -56.95 24.85 -57.0 24.9 -57.0 24.9 -57.05 24.85 -57.05 24.85 -57.1 24.8 -57.1 24.8 -57.05 24.75 -57.1 24.7 -57.05 24.7 -57.0 24.75 -57.0 24.75 -56.95 24.75 -56.9 24.8 -56.95 24.8 -56.9 M24.75 -56.1 L24.7 -56.1 24.7 -56.05 24.65 -56.1 24.65 -56.05 24.7 -56.05 24.7 -55.95 24.75 -55.95 24.75 -55.9 24.8 -55.9 24.9 -56.0 24.85 -55.95 24.85 -56.0 24.85 -56.05 24.9 -56.05 24.9 -56.1 24.8 -56.1 24.8 -56.05 24.75 -56.1 M42.55 -41.25 L43.0 -14.9 32.25 -38.65 34.65 -40.45 Q36.25 -42.05 36.95 -44.05 L42.7 -42.0 42.55 -41.25 M149.0 -79.4 L147.65 -81.25 Q145.75 -83.15 143.15 -83.15 L140.6 -82.7 133.0 -100.1 146.6 -86.5 167.3 -86.6 149.0 -79.4 M137.2 -79.4 Q136.65 -78.15 136.65 -76.65 136.6 -75.3 137.1 -74.1 L120.05 -66.55 133.5 -81.2 133.55 -80.95 137.2 -79.4 M145.95 -70.85 Q146.9 -71.3 147.7 -72.1 148.85 -73.25 149.25 -74.65 L153.4 -73.2 153.3 -72.6 153.6 -53.9 145.95 -70.85 M140.8 -83.05 L140.8 -83.0 140.75 -83.05 140.75 -82.95 140.8 -82.95 140.8 -82.9 140.85 -82.9 140.9 -82.95 140.9 -83.0 140.85 -83.05 140.8 -83.0 140.8 -83.05 M106.05 -31.4 L110.2 -29.95 110.1 -29.35 110.4 -10.65 102.75 -27.6 104.5 -28.85 Q105.65 -30.0 106.05 -31.4 M124.1 -43.35 L105.8 -36.15 104.45 -38.0 Q102.55 -39.9 99.95 -39.9 L97.4 -39.45 89.8 -56.85 103.4 -43.25 124.1 -43.35 M94.0 -36.15 Q93.45 -34.9 93.45 -33.4 93.4 -32.05 93.9 -30.85 L76.85 -23.3 90.3 -37.95 90.35 -37.7 94.0 -36.15 M96.8 -40.9 L96.9 -40.9 96.9 -40.95 96.9 -41.0 96.85 -41.05 96.8 -41.0 96.75 -41.05 96.75 -41.0 96.8 -40.95 96.8 -40.9 M97.8 -40.05 L97.75 -40.0 97.75 -39.95 97.85 -40.0 97.85 -40.05 97.8 -40.0 97.8 -40.05 M-88.8 -260.0 L-88.75 -259.95 -88.75 -259.9 -88.75 -259.95 -88.7 -259.95 -88.7 -260.0 -88.75 -260.0 -88.7 -260.0 -88.65 -260.05 -88.65 -260.1 -88.7 -260.05 -88.8 -260.05 -88.75 -260.1 -88.8 -260.1 -88.8 -260.05 -88.85 -260.1 -88.85 -260.05 -88.9 -260.05 -88.9 -260.0 -88.85 -260.0 -88.9 -259.95 -88.85 -259.95 -88.85 -259.9 -88.8 -259.9 -88.8 -260.0 M-88.9 -257.95 Q-90.5 -258.65 -92.4 -258.65 -96.15 -258.6 -98.8 -255.95 -100.0 -254.75 -100.7 -253.35 L-126.35 -263.5 -97.35 -263.3 -78.2 -282.45 -88.9 -257.95 M-101.1 -246.65 Q-100.4 -244.65 -98.8 -243.05 L-96.4 -241.25 -107.15 -217.5 -106.7 -243.85 -106.85 -244.6 -101.1 -246.65 M-83.95 -245.9 Q-83.3 -247.55 -83.25 -249.5 -83.25 -251.6 -84.1 -253.35 L-78.95 -255.5 -78.9 -255.95 -59.95 -235.3 -83.95 -245.9 M-88.9 -259.0 L-88.85 -258.95 -88.9 -258.95 -88.85 -258.95 -88.8 -258.9 -88.75 -258.9 -88.75 -258.95 -88.7 -258.95 -88.7 -259.05 -88.65 -259.05 -88.65 -259.1 -88.7 -259.05 -88.7 -259.1 -88.75 -259.1 -88.75 -259.05 -88.8 -259.1 -88.9 -259.1 -88.9 -259.0 -88.85 -259.0 -88.85 -258.95 -88.9 -259.0 M-161.8 -208.0 L-161.85 -208.05 -161.85 -208.0 -161.9 -208.0 -161.9 -207.95 -161.85 -207.9 -162.85 -205.7 -165.65 -206.2 Q-168.7 -206.25 -170.85 -204.1 L-172.4 -201.95 -193.1 -210.15 -169.65 -210.0 -154.2 -225.45 -161.8 -208.0 M-158.95 -202.0 L-154.75 -203.7 -154.8 -204.05 -139.45 -187.4 -158.9 -195.95 Q-158.3 -197.25 -158.3 -198.85 -158.3 -200.55 -158.95 -202.0 M-4.9 -269.0 L-4.85 -269.0 -4.85 -268.95 -4.9 -269.0 -4.85 -268.95 -4.9 -268.95 -4.85 -268.95 -4.8 -268.9 -4.75 -268.9 -4.75 -268.95 -4.7 -268.95 -4.7 -269.05 -4.65 -269.05 -4.65 -269.1 -4.7 -269.05 -4.7 -269.1 -4.75 -269.1 -4.75 -269.05 -4.8 -269.1 -4.9 -269.1 -4.9 -269.0 M-4.8 -270.0 L-4.75 -269.95 -4.75 -269.9 -4.75 -269.95 -4.7 -269.95 -4.7 -270.0 -4.75 -270.0 -4.7 -270.0 -4.65 -270.05 -4.65 -270.1 -4.7 -270.05 -4.8 -270.05 -4.75 -270.1 -4.8 -270.1 -4.8 -270.05 -4.85 -270.1 -4.85 -270.05 -4.9 -270.05 -4.9 -270.0 -4.85 -270.0 -4.9 -269.95 -4.85 -269.95 -4.85 -269.9 -4.8 -269.9 -4.8 -270.0 M-162.8 -205.95 L-162.8 -206.0 -162.8 -205.95 -162.75 -205.95 -162.75 -206.05 -162.75 -206.0 -162.85 -206.1 -162.9 -206.05 -162.85 -206.05 -162.85 -205.95 -162.95 -206.0 -162.95 -205.95 -162.85 -205.9 -162.8 -205.9 -162.8 -205.95 M-162.85 -206.9 L-162.8 -206.9 -162.75 -206.95 -162.75 -207.05 -162.75 -207.0 -162.8 -207.0 -162.8 -207.05 -162.85 -207.1 -162.85 -207.05 -162.9 -207.05 -162.9 -206.95 -162.85 -206.9 M-177.25 -194.3 L-177.3 -194.95 -172.7 -196.55 Q-172.2 -194.95 -170.9 -193.65 -170.0 -192.75 -168.9 -192.25 L-177.6 -173.05 -177.25 -194.3 M-162.8 -83.05 L-162.8 -83.0 -162.85 -83.05 -162.85 -83.0 -162.75 -82.95 -162.75 -83.0 -162.8 -83.05 M-162.3 -82.7 L-164.85 -83.15 Q-167.45 -83.15 -169.35 -81.25 L-170.7 -79.4 -189.0 -86.6 -168.3 -86.5 -154.7 -100.1 -162.3 -82.7 M-170.95 -74.65 Q-170.55 -73.25 -169.4 -72.1 -168.6 -71.3 -167.65 -70.85 L-175.3 -53.9 -175.0 -72.6 -175.1 -73.2 -170.95 -74.65 M-158.8 -74.1 Q-158.3 -75.3 -158.35 -76.65 -158.35 -78.15 -158.9 -79.4 -157.05 -80.15 -155.25 -80.95 L-155.2 -81.2 -141.75 -66.55 -158.8 -74.1 M-4.65 -195.1 L-4.75 -195.0 -4.65 -195.05 -4.65 -195.1 M-4.75 -195.0 L-4.75 -194.95 -4.8 -194.95 -4.7 -194.95 -4.7 -195.0 -4.75 -195.0 M-4.8 -194.9 L-4.8 -195.0 -4.8 -195.05 -4.75 -195.1 -4.8 -195.1 -4.85 -195.05 -4.9 -195.05 -4.9 -195.0 -4.85 -195.0 -4.9 -194.95 -4.85 -194.95 -4.85 -194.9 -4.8 -194.9 M-4.9 -194.0 L-4.85 -193.95 -4.9 -193.95 -4.85 -193.95 -4.8 -193.9 -4.75 -193.9 -4.75 -193.95 -4.7 -193.95 -4.7 -194.05 -4.65 -194.05 -4.65 -194.1 -4.7 -194.05 -4.7 -194.1 -4.75 -194.1 -4.75 -194.05 -4.8 -194.1 -4.9 -194.1 -4.9 -194.0 -4.85 -194.0 -4.85 -193.95 -4.9 -194.0 M-80.9 -181.75 L-77.25 -183.3 -77.2 -183.55 -63.75 -168.9 -80.8 -176.45 Q-80.3 -177.65 -80.35 -179.0 -80.35 -180.5 -80.9 -181.75 M-76.7 -202.45 L-83.85 -186.0 -83.9 -186.0 -83.9 -185.95 -84.3 -185.05 -86.85 -185.5 Q-89.45 -185.5 -91.35 -183.6 L-92.7 -181.75 -111.0 -188.95 -90.3 -188.85 -76.7 -202.45 M-46.8 -128.9 L-46.75 -128.95 -46.8 -129.0 -46.75 -129.05 -46.8 -129.0 -46.85 -129.05 -46.85 -129.1 -46.9 -129.1 -46.9 -128.95 -46.85 -128.9 -46.8 -128.9 M-46.75 -127.95 L-46.75 -128.05 -46.8 -128.0 -46.85 -128.05 -46.9 -128.05 -46.9 -128.0 -46.95 -128.0 -46.95 -127.95 -46.85 -127.9 -46.8 -127.9 -46.8 -127.95 -46.75 -127.95 -47.15 -127.05 -49.95 -127.55 Q-53.0 -127.6 -55.15 -125.45 L-56.7 -123.3 -77.4 -131.5 -53.95 -131.35 -38.5 -146.8 -46.75 -127.95 M-43.25 -123.35 L-39.05 -125.05 -39.1 -125.4 -23.75 -108.75 -43.2 -117.3 Q-42.6 -118.6 -42.6 -120.2 -42.6 -121.9 -43.25 -123.35 M-61.55 -115.65 L-61.6 -116.3 -57.0 -117.9 Q-56.5 -116.3 -55.2 -115.0 L-53.2 -113.6 -61.9 -94.4 -61.55 -115.65 M-83.9 -186.95 L-83.85 -186.9 -83.9 -186.9 -83.8 -186.9 -83.8 -187.0 -83.85 -187.05 -83.85 -187.0 -83.9 -187.0 -83.9 -186.95 M-97.0 -174.95 L-97.1 -175.55 -92.95 -177.0 Q-92.55 -175.6 -91.4 -174.45 L-89.65 -173.2 -97.3 -156.25 -97.0 -174.95 M-141.8 -151.05 L-141.8 -151.0 -141.85 -151.05 -141.85 -151.0 -141.75 -150.95 -141.75 -151.0 -141.8 -151.05 M-141.85 -149.9 L-144.05 -150.25 Q-146.65 -150.25 -148.55 -148.35 L-149.9 -146.5 -168.2 -153.7 -147.5 -153.6 -133.9 -167.2 -141.5 -149.8 -141.8 -149.9 -141.8 -149.95 -141.75 -149.95 -141.75 -150.05 -141.75 -150.0 -141.8 -150.05 -141.8 -150.0 -141.85 -150.05 -141.9 -150.0 -141.9 -149.95 -141.85 -149.9 M-150.15 -141.75 Q-149.75 -140.35 -148.6 -139.2 L-146.85 -137.95 -154.5 -121.0 -154.2 -139.7 -154.3 -140.3 -150.15 -141.75 M-138.0 -141.2 Q-137.5 -142.4 -137.55 -143.75 -137.55 -145.25 -138.1 -146.5 L-134.45 -148.05 -134.4 -148.3 -120.95 -133.65 -138.0 -141.2 M-103.8 -101.95 L-103.75 -101.95 -103.75 -102.05 -103.75 -102.0 -103.8 -102.05 -103.8 -102.0 -103.85 -102.05 -103.9 -102.0 -103.9 -101.95 -106.1 -102.3 Q-108.7 -102.3 -110.6 -100.4 L-111.95 -98.55 -130.25 -105.75 -109.55 -105.65 -95.95 -119.25 -103.55 -101.85 -103.8 -101.95 M-103.8 -103.05 L-103.8 -103.0 -103.85 -103.05 -103.85 -103.0 -103.75 -102.95 -103.75 -103.0 -103.8 -103.05 M-100.15 -98.55 Q-98.3 -99.3 -96.5 -100.1 L-96.45 -100.35 -83.0 -85.7 -100.05 -93.25 Q-99.55 -94.45 -99.6 -95.8 -99.6 -97.3 -100.15 -98.55 M-112.2 -93.8 Q-111.8 -92.4 -110.65 -91.25 L-108.9 -90.0 -116.55 -73.05 -116.25 -91.75 -116.35 -92.35 -112.2 -93.8 M-161.8 -83.9 L-161.8 -83.95 -161.75 -84.0 -161.75 -84.05 -161.8 -84.0 -161.85 -84.05 -161.9 -84.0 -161.9 -83.95 -161.85 -83.9 -161.9 -83.9 -161.8 -83.9 M-119.05 -39.45 L-121.6 -39.9 Q-124.2 -39.9 -126.1 -38.0 L-127.45 -36.15 -145.75 -43.35 -125.05 -43.25 -111.45 -56.85 -118.8 -40.05 -118.8 -40.0 -118.85 -40.05 -118.9 -40.0 -118.9 -39.95 -118.85 -39.9 -119.05 -39.45 M-127.7 -31.4 Q-127.3 -30.0 -126.15 -28.85 -125.35 -28.05 -124.4 -27.6 L-132.05 -10.65 -131.75 -29.35 -131.85 -29.95 -127.7 -31.4 M-115.55 -30.85 Q-115.05 -32.05 -115.1 -33.4 -115.1 -34.9 -115.65 -36.15 L-112.0 -37.7 -111.95 -37.95 -98.5 -23.3 -115.55 -30.85 M-118.75 -41.05 L-118.8 -41.0 -118.85 -41.05 -118.9 -41.0 -118.9 -40.95 -118.85 -40.9 -118.9 -40.9 -118.8 -40.9 -118.8 -40.95 -118.75 -41.0 -118.75 -41.05 M-41.65 -50.75 L-36.5 -52.9 -36.45 -53.35 -17.5 -32.7 -41.5 -43.3 Q-40.85 -44.95 -40.8 -46.9 -40.8 -49.0 -41.65 -50.75 M-35.75 -79.85 L-45.7 -57.05 -45.7 -57.1 -45.75 -57.15 -45.8 -57.1 -45.85 -57.1 -45.85 -57.05 -45.9 -57.05 -45.9 -56.95 -45.85 -56.95 -45.85 -56.9 -45.8 -56.9 -45.75 -56.95 -45.75 -56.9 -46.45 -55.35 Q-48.05 -56.05 -49.95 -56.05 -53.7 -56.0 -56.35 -53.35 -57.55 -52.15 -58.25 -50.75 L-83.9 -60.9 -54.9 -60.7 -35.75 -79.85 M-46.75 -56.1 L-46.75 -56.05 -46.8 -56.1 -46.9 -56.1 -46.9 -56.05 -46.85 -56.05 -46.85 -56.0 -46.8 -55.95 -46.9 -56.0 -46.8 -55.9 -46.75 -55.9 -46.75 -55.95 -46.7 -55.95 -46.7 -56.05 -46.65 -56.05 -46.65 -56.1 -46.7 -56.05 -46.7 -56.1 -46.75 -56.1 M-45.8 -57.95 L-45.8 -57.9 -45.75 -57.95 -45.8 -57.95 M-45.8 -58.05 L-45.75 -58.0 -45.75 -58.05 -45.8 -58.05 -45.9 -58.05 -45.9 -58.0 -45.85 -58.0 -45.8 -58.05 M-53.95 -38.65 L-64.7 -14.9 -64.25 -41.25 -64.4 -42.0 -58.65 -44.05 Q-57.95 -42.05 -56.35 -40.45 L-53.95 -38.65" fill="#939698" fill-rule="evenodd" stroke="none"/>
    <path d="M62.45 -253.35 Q63.15 -254.75 64.3 -255.9 65.65 -257.25 67.25 -257.95 68.85 -258.65 70.75 -258.65 74.5 -258.6 77.15 -255.95 78.35 -254.75 79.05 -253.35 79.85 -251.55 79.9 -249.5 79.9 -248.0 79.45 -246.65 78.75 -244.65 77.15 -243.05 76.05 -241.95 74.75 -241.25 72.95 -240.35 70.75 -240.35 66.95 -240.35 64.25 -243.05 63.0 -244.3 62.3 -245.9 61.65 -247.55 61.6 -249.5 61.6 -251.6 62.45 -253.35 M67.8 -257.9 L67.85 -257.95 67.85 -258.0 67.8 -258.0 67.75 -258.1 67.7 -258.1 67.7 -258.0 67.75 -258.0 67.75 -257.95 67.75 -257.9 67.8 -257.9 M65.35 -254.85 Q63.15 -252.65 63.1 -249.5 63.15 -246.35 65.35 -244.15 67.6 -241.9 70.75 -241.85 73.9 -241.9 76.1 -244.1 78.35 -246.35 78.4 -249.5 78.35 -252.65 76.1 -254.9 73.9 -257.1 70.75 -257.15 67.6 -257.1 65.35 -254.85 M-0.05 -263.45 Q0.8 -261.7 0.8 -259.6 0.75 -257.65 0.1 -256.0 -0.6 -254.4 -1.85 -253.15 -4.55 -250.45 -8.35 -250.45 -10.55 -250.45 -12.35 -251.35 -13.65 -252.05 -14.75 -253.15 -16.35 -254.75 -17.05 -256.75 -17.5 -258.1 -17.5 -259.6 -17.45 -261.65 -16.65 -263.45 -15.95 -264.85 -14.75 -266.05 -12.1 -268.7 -8.35 -268.75 -6.45 -268.75 -4.85 -268.05 L-4.75 -268.0 Q-3.2 -267.3 -1.9 -266.0 -0.75 -264.85 -0.05 -263.45 M137.25 -202.0 Q137.8 -203.15 138.75 -204.1 139.8 -205.15 141.15 -205.7 L143.95 -206.2 Q147.0 -206.25 149.15 -204.1 L150.7 -201.95 Q151.3 -200.55 151.3 -198.85 L151.0 -196.55 Q150.5 -194.95 149.2 -193.65 148.3 -192.75 147.2 -192.25 145.75 -191.5 143.95 -191.5 140.95 -191.5 138.75 -193.7 137.75 -194.7 137.2 -195.95 136.6 -197.25 136.6 -198.85 136.6 -200.55 137.25 -202.0 M139.65 -203.2 Q137.85 -201.4 137.8 -198.85 137.8 -196.35 139.6 -194.55 141.45 -192.7 143.95 -192.7 146.5 -192.75 148.3 -194.55 150.1 -196.35 150.1 -198.85 150.15 -201.4 148.3 -203.25 146.5 -205.05 143.95 -205.0 141.45 -205.0 139.65 -203.2 M119.85 -149.8 L122.4 -150.25 Q125.0 -150.25 126.9 -148.35 L128.25 -146.5 Q128.85 -145.2 128.85 -143.8 128.85 -142.7 128.5 -141.75 128.1 -140.35 126.95 -139.2 126.15 -138.4 125.2 -137.95 123.95 -137.3 122.35 -137.3 119.65 -137.3 117.75 -139.2 116.85 -140.1 116.35 -141.2 115.85 -142.4 115.9 -143.75 115.9 -145.25 116.45 -146.5 116.95 -147.5 117.8 -148.35 L119.85 -149.8 M118.55 -147.6 Q116.95 -146.0 116.95 -143.8 116.95 -141.5 118.5 -139.95 120.1 -138.35 122.4 -138.35 124.6 -138.35 126.2 -139.95 127.8 -141.55 127.8 -143.75 127.75 -146.0 126.15 -147.6 124.6 -149.15 122.35 -149.2 120.15 -149.2 118.55 -147.6 M78.5 -98.55 Q79.0 -99.55 79.85 -100.4 80.8 -101.35 81.9 -101.85 L84.45 -102.3 Q87.05 -102.3 88.95 -100.4 L90.3 -98.55 Q90.9 -97.25 90.9 -95.85 90.9 -94.75 90.55 -93.8 90.15 -92.4 89.0 -91.25 88.2 -90.45 87.25 -90.0 86.0 -89.35 84.4 -89.35 81.7 -89.35 79.8 -91.25 78.9 -92.15 78.4 -93.25 77.9 -94.45 77.95 -95.8 77.95 -97.3 78.5 -98.55 M80.6 -99.65 Q79.0 -98.05 79.0 -95.85 79.0 -93.55 80.55 -92.0 82.15 -90.4 84.45 -90.4 86.65 -90.4 88.25 -92.0 89.85 -93.6 89.85 -95.8 89.8 -98.05 88.2 -99.65 86.65 -101.2 84.4 -101.25 82.2 -101.25 80.6 -99.65 M62.65 -185.05 L65.2 -185.5 Q67.8 -185.5 69.7 -183.6 L71.05 -181.75 Q71.65 -180.45 71.65 -179.05 71.65 -177.95 71.3 -177.0 70.9 -175.6 69.75 -174.45 68.95 -173.65 68.0 -173.2 66.75 -172.55 65.15 -172.55 62.45 -172.55 60.55 -174.45 59.65 -175.35 59.15 -176.45 58.65 -177.65 58.7 -179.0 58.7 -180.5 59.25 -181.75 59.75 -182.75 60.6 -183.6 61.55 -184.55 62.65 -185.05 M62.8 -185.05 L62.75 -185.0 62.75 -184.95 62.85 -185.0 62.85 -185.05 62.8 -185.0 62.8 -185.05 M61.35 -182.85 Q59.75 -181.25 59.75 -179.05 59.75 -176.75 61.3 -175.2 62.9 -173.6 65.2 -173.6 67.4 -173.6 69.0 -175.2 70.6 -176.8 70.6 -179.0 70.55 -181.25 68.95 -182.85 67.4 -184.4 65.15 -184.45 62.95 -184.45 61.35 -182.85 M-0.05 -188.2 Q0.8 -186.45 0.8 -184.35 0.75 -182.4 0.1 -180.75 -0.6 -179.15 -1.85 -177.9 -4.55 -175.2 -8.35 -175.2 -10.55 -175.2 -12.35 -176.1 -13.65 -176.8 -14.75 -177.9 -16.35 -179.5 -17.05 -181.5 -17.5 -182.85 -17.5 -184.35 -17.45 -186.4 -16.65 -188.2 -15.95 -189.6 -14.75 -190.8 -12.1 -193.45 -8.35 -193.5 -6.45 -193.5 -4.85 -192.8 L-1.9 -190.75 Q-0.75 -189.6 -0.05 -188.2 M25.75 -127.0 L25.85 -127.0 25.85 -126.9 25.9 -126.95 25.9 -127.05 25.85 -127.1 25.8 -127.05 25.8 -127.0 25.75 -127.0 M25.45 -127.05 L28.25 -127.55 Q31.3 -127.6 33.45 -125.45 L35.0 -123.3 Q35.6 -121.9 35.6 -120.2 L35.3 -117.9 Q34.8 -116.3 33.5 -115.0 L31.5 -113.6 Q30.05 -112.85 28.25 -112.85 25.25 -112.85 23.05 -115.05 22.05 -116.05 21.5 -117.3 20.9 -118.6 20.9 -120.2 20.9 -121.9 21.55 -123.35 22.1 -124.5 23.05 -125.45 24.1 -126.5 25.45 -127.05 M23.95 -124.55 Q22.15 -122.75 22.1 -120.2 22.1 -117.7 23.9 -115.9 25.75 -114.05 28.25 -114.05 30.8 -114.1 32.6 -115.9 34.4 -117.7 34.4 -120.2 34.45 -122.75 32.6 -124.6 30.8 -126.4 28.25 -126.35 25.75 -126.35 23.95 -124.55 M19.95 -50.75 Q20.65 -52.15 21.8 -53.3 23.15 -54.65 24.75 -55.35 26.35 -56.05 28.25 -56.05 32.0 -56.0 34.65 -53.35 35.85 -52.15 36.55 -50.75 37.35 -48.95 37.4 -46.9 37.4 -45.4 36.95 -44.05 36.25 -42.05 34.65 -40.45 L32.25 -38.65 Q30.45 -37.75 28.25 -37.75 24.45 -37.75 21.75 -40.45 20.5 -41.7 19.8 -43.3 19.15 -44.95 19.1 -46.9 19.1 -49.0 19.95 -50.75 M22.85 -52.25 Q20.65 -50.05 20.6 -46.9 20.65 -43.75 22.85 -41.55 25.1 -39.3 28.25 -39.25 31.4 -39.3 33.6 -41.5 35.85 -43.75 35.9 -46.9 35.85 -50.05 33.6 -52.3 31.4 -54.5 28.25 -54.55 25.1 -54.5 22.85 -52.25 M140.6 -82.7 L143.15 -83.15 Q145.75 -83.15 147.65 -81.25 L149.0 -79.4 Q149.6 -78.1 149.6 -76.7 149.6 -75.6 149.25 -74.65 148.85 -73.25 147.7 -72.1 146.9 -71.3 145.95 -70.85 144.7 -70.2 143.1 -70.2 140.4 -70.2 138.5 -72.1 137.6 -73.0 137.1 -74.1 136.6 -75.3 136.65 -76.65 136.65 -78.15 137.2 -79.4 137.7 -80.4 138.55 -81.25 139.5 -82.2 140.6 -82.7 M139.3 -80.5 Q137.7 -78.9 137.7 -76.7 137.7 -74.4 139.25 -72.85 140.85 -71.25 143.15 -71.25 145.35 -71.25 146.95 -72.85 148.55 -74.45 148.55 -76.65 148.5 -78.9 146.9 -80.5 145.35 -82.05 143.1 -82.1 140.9 -82.1 139.3 -80.5 M106.05 -31.4 Q105.65 -30.0 104.5 -28.85 L102.75 -27.6 Q101.5 -26.95 99.9 -26.95 97.2 -26.95 95.3 -28.85 94.4 -29.75 93.9 -30.85 93.4 -32.05 93.45 -33.4 93.45 -34.9 94.0 -36.15 94.5 -37.15 95.35 -38.0 L97.4 -39.45 99.95 -39.9 Q102.55 -39.9 104.45 -38.0 L105.8 -36.15 Q106.4 -34.85 106.4 -33.45 106.4 -32.35 106.05 -31.4 M96.1 -37.25 Q94.5 -35.65 94.5 -33.45 94.5 -31.15 96.05 -29.6 97.65 -28.0 99.95 -28.0 102.15 -28.0 103.75 -29.6 105.35 -31.2 105.35 -33.4 105.3 -35.65 103.7 -37.25 102.15 -38.8 99.9 -38.85 97.7 -38.85 96.1 -37.25 M-87.0 -254.85 Q-89.25 -257.1 -92.4 -257.15 -95.55 -257.1 -97.75 -254.9 -100.0 -252.65 -100.05 -249.5 -100.0 -246.35 -97.75 -244.1 -95.55 -241.9 -92.4 -241.85 -89.25 -241.9 -87.0 -244.15 -84.8 -246.35 -84.75 -249.5 -84.8 -252.65 -87.0 -254.85 M-100.7 -253.35 Q-100.0 -254.75 -98.8 -255.95 -96.15 -258.6 -92.4 -258.65 -90.5 -258.65 -88.9 -257.95 L-88.8 -257.9 Q-87.25 -257.2 -85.95 -255.9 -84.8 -254.75 -84.1 -253.35 -83.25 -251.6 -83.25 -249.5 -83.3 -247.55 -83.95 -245.9 -84.65 -244.3 -85.9 -243.05 -88.6 -240.35 -92.4 -240.35 -94.6 -240.35 -96.4 -241.25 L-98.8 -243.05 Q-100.4 -244.65 -101.1 -246.65 -101.55 -248.0 -101.55 -249.5 -101.5 -251.55 -100.7 -253.35 M-172.4 -201.95 L-170.85 -204.1 Q-168.7 -206.25 -165.65 -206.2 L-162.85 -205.7 Q-161.5 -205.15 -160.45 -204.1 -159.5 -203.15 -158.95 -202.0 -158.3 -200.55 -158.3 -198.85 -158.3 -197.25 -158.9 -195.95 -159.45 -194.7 -160.45 -193.7 -162.65 -191.5 -165.65 -191.5 -167.45 -191.5 -168.9 -192.25 -170.0 -192.75 -170.9 -193.65 -172.2 -194.95 -172.7 -196.55 L-173.0 -198.85 Q-173.0 -200.55 -172.4 -201.95 M-161.35 -203.2 Q-163.15 -205.0 -165.65 -205.0 -168.2 -205.05 -170.0 -203.25 -171.85 -201.4 -171.8 -198.85 -171.8 -196.35 -170.0 -194.55 -168.2 -192.75 -165.65 -192.7 -163.15 -192.7 -161.3 -194.55 -159.5 -196.35 -159.5 -198.85 -159.55 -201.4 -161.35 -203.2 M-4.75 -267.9 L-4.75 -267.95 -4.8 -268.0 -4.85 -268.0 -4.75 -267.9 M-2.95 -264.95 Q-5.2 -267.2 -8.35 -267.25 -11.5 -267.2 -13.7 -265.0 -15.95 -262.75 -16.0 -259.6 -15.95 -256.45 -13.7 -254.2 -11.5 -252.0 -8.35 -251.95 -5.2 -252.0 -2.95 -254.25 -0.75 -256.45 -0.7 -259.6 -0.75 -262.75 -2.95 -264.95 M-170.7 -79.4 L-169.35 -81.25 Q-167.45 -83.15 -164.85 -83.15 L-162.3 -82.7 -160.25 -81.25 Q-159.4 -80.4 -158.9 -79.4 -158.35 -78.15 -158.35 -76.65 -158.3 -75.3 -158.8 -74.1 -159.3 -73.0 -160.2 -72.1 -162.1 -70.2 -164.8 -70.2 -166.4 -70.2 -167.65 -70.85 -168.6 -71.3 -169.4 -72.1 -170.55 -73.25 -170.95 -74.65 -171.3 -75.6 -171.3 -76.7 -171.3 -78.1 -170.7 -79.4 M-161.0 -80.5 Q-162.6 -82.1 -164.8 -82.1 -167.05 -82.05 -168.6 -80.5 -170.2 -78.9 -170.25 -76.65 -170.25 -74.45 -168.65 -72.85 -167.05 -71.25 -164.85 -71.25 -162.55 -71.25 -160.95 -72.85 -159.4 -74.4 -159.4 -76.7 -159.4 -78.9 -161.0 -80.5 M-2.95 -189.7 Q-5.2 -191.95 -8.35 -192.0 -11.5 -191.95 -13.7 -189.75 -15.95 -187.5 -16.0 -184.35 -15.95 -181.2 -13.7 -178.95 -11.5 -176.75 -8.35 -176.7 -5.2 -176.75 -2.95 -179.0 -0.75 -181.2 -0.7 -184.35 -0.75 -187.5 -2.95 -189.7 M-80.9 -181.75 Q-80.35 -180.5 -80.35 -179.0 -80.3 -177.65 -80.8 -176.45 -81.3 -175.35 -82.2 -174.45 -84.1 -172.55 -86.8 -172.55 -88.4 -172.55 -89.65 -173.2 L-91.4 -174.45 Q-92.55 -175.6 -92.95 -177.0 -93.3 -177.95 -93.3 -179.05 -93.3 -180.45 -92.7 -181.75 L-91.35 -183.6 Q-89.45 -185.5 -86.85 -185.5 L-84.3 -185.05 Q-83.2 -184.55 -82.25 -183.6 -81.4 -182.75 -80.9 -181.75 M-56.7 -123.3 L-55.15 -125.45 Q-53.0 -127.6 -49.95 -127.55 L-47.15 -127.05 -46.85 -126.9 Q-45.7 -126.4 -44.75 -125.45 -43.8 -124.5 -43.25 -123.35 -42.6 -121.9 -42.6 -120.2 -42.6 -118.6 -43.2 -117.3 -43.75 -116.05 -44.75 -115.05 -46.95 -112.85 -49.95 -112.85 -51.75 -112.85 -53.2 -113.6 L-55.2 -115.0 Q-56.5 -116.3 -57.0 -117.9 L-57.3 -120.2 Q-57.3 -121.9 -56.7 -123.3 M-45.65 -124.55 Q-47.45 -126.35 -49.95 -126.35 -52.5 -126.4 -54.3 -124.6 -56.15 -122.75 -56.1 -120.2 -56.1 -117.7 -54.3 -115.9 -52.5 -114.1 -49.95 -114.05 -47.45 -114.05 -45.6 -115.9 -43.8 -117.7 -43.8 -120.2 -43.85 -122.75 -45.65 -124.55 M-84.8 -185.05 L-84.8 -185.0 -84.85 -185.05 -84.85 -185.0 -84.75 -184.95 -84.75 -185.0 -84.8 -185.05 M-83.0 -182.85 Q-84.6 -184.45 -86.8 -184.45 -89.05 -184.4 -90.6 -182.85 -92.2 -181.25 -92.25 -179.0 -92.25 -176.8 -90.65 -175.2 -89.05 -173.6 -86.85 -173.6 -84.55 -173.6 -82.95 -175.2 -81.4 -176.75 -81.4 -179.05 -81.4 -181.25 -83.0 -182.85 M-141.85 -149.9 L-141.8 -149.9 -141.5 -149.8 -139.45 -148.35 Q-138.6 -147.5 -138.1 -146.5 -137.55 -145.25 -137.55 -143.75 -137.5 -142.4 -138.0 -141.2 -138.5 -140.1 -139.4 -139.2 -141.3 -137.3 -144.0 -137.3 -145.6 -137.3 -146.85 -137.95 L-148.6 -139.2 Q-149.75 -140.35 -150.15 -141.75 -150.5 -142.7 -150.5 -143.8 -150.5 -145.2 -149.9 -146.5 L-148.55 -148.35 Q-146.65 -150.25 -144.05 -150.25 L-141.85 -149.9 M-140.2 -147.6 Q-141.8 -149.2 -144.0 -149.2 -146.25 -149.15 -147.8 -147.6 -149.4 -146.0 -149.45 -143.75 -149.45 -141.55 -147.85 -139.95 -146.25 -138.35 -144.05 -138.35 -141.75 -138.35 -140.15 -139.95 -138.6 -141.5 -138.6 -143.8 -138.6 -146.0 -140.2 -147.6 M-103.8 -101.95 L-103.55 -101.85 -101.5 -100.4 Q-100.65 -99.55 -100.15 -98.55 -99.6 -97.3 -99.6 -95.8 -99.55 -94.45 -100.05 -93.25 -100.55 -92.15 -101.45 -91.25 -103.35 -89.35 -106.05 -89.35 -107.65 -89.35 -108.9 -90.0 L-110.65 -91.25 Q-111.8 -92.4 -112.2 -93.8 -112.55 -94.75 -112.55 -95.85 -112.55 -97.25 -111.95 -98.55 L-110.6 -100.4 Q-108.7 -102.3 -106.1 -102.3 L-103.9 -101.95 -103.85 -101.9 -103.8 -101.9 -103.8 -101.95 M-102.25 -99.65 Q-103.85 -101.25 -106.05 -101.25 -108.3 -101.2 -109.85 -99.65 -111.45 -98.05 -111.5 -95.8 -111.5 -93.6 -109.9 -92.0 -108.3 -90.4 -106.1 -90.4 -103.8 -90.4 -102.2 -92.0 -100.65 -93.55 -100.65 -95.85 -100.65 -98.05 -102.25 -99.65 M-117.75 -37.25 Q-119.35 -38.85 -121.55 -38.85 -123.8 -38.8 -125.35 -37.25 -126.95 -35.65 -127.0 -33.4 -127.0 -31.2 -125.4 -29.6 -123.8 -28.0 -121.6 -28.0 -119.3 -28.0 -117.7 -29.6 -116.15 -31.15 -116.15 -33.45 -116.15 -35.65 -117.75 -37.25 M-127.45 -36.15 L-126.1 -38.0 Q-124.2 -39.9 -121.6 -39.9 L-119.05 -39.45 Q-117.95 -38.95 -117.0 -38.0 -116.15 -37.15 -115.65 -36.15 -115.1 -34.9 -115.1 -33.4 -115.05 -32.05 -115.55 -30.85 -116.05 -29.75 -116.95 -28.85 -118.85 -26.95 -121.55 -26.95 -123.15 -26.95 -124.4 -27.6 -125.35 -28.05 -126.15 -28.85 -127.3 -30.0 -127.7 -31.4 -128.05 -32.35 -128.05 -33.45 -128.05 -34.85 -127.45 -36.15 M-41.65 -50.75 Q-40.8 -49.0 -40.8 -46.9 -40.85 -44.95 -41.5 -43.3 -42.2 -41.7 -43.45 -40.45 -46.15 -37.75 -49.95 -37.75 -52.15 -37.75 -53.95 -38.65 L-56.35 -40.45 Q-57.95 -42.05 -58.65 -44.05 -59.1 -45.4 -59.1 -46.9 -59.05 -48.95 -58.25 -50.75 -57.55 -52.15 -56.35 -53.35 -53.7 -56.0 -49.95 -56.05 -48.05 -56.05 -46.45 -55.35 -44.85 -54.65 -43.5 -53.3 -42.35 -52.15 -41.65 -50.75 M-44.55 -52.25 Q-46.8 -54.5 -49.95 -54.55 -53.1 -54.5 -55.3 -52.3 -57.55 -50.05 -57.6 -46.9 -57.55 -43.75 -55.3 -41.5 -53.1 -39.3 -49.95 -39.25 -46.8 -39.3 -44.55 -41.55 -42.35 -43.75 -42.3 -46.9 -42.35 -50.05 -44.55 -52.25" fill="#565959" fill-rule="evenodd" stroke="none"/>
    <path d="M65.35 -254.85 Q67.6 -257.1 70.75 -257.15 73.9 -257.1 76.1 -254.9 78.35 -252.65 78.4 -249.5 78.35 -246.35 76.1 -244.1 73.9 -241.9 70.75 -241.85 67.6 -241.9 65.35 -244.15 63.15 -246.35 63.1 -249.5 63.15 -252.65 65.35 -254.85 M139.65 -203.2 Q141.45 -205.0 143.95 -205.0 146.5 -205.05 148.3 -203.25 150.15 -201.4 150.1 -198.85 150.1 -196.35 148.3 -194.55 146.5 -192.75 143.95 -192.7 141.45 -192.7 139.6 -194.55 137.8 -196.35 137.8 -198.85 137.85 -201.4 139.65 -203.2 M118.55 -147.6 Q120.15 -149.2 122.35 -149.2 124.6 -149.15 126.15 -147.6 127.75 -146.0 127.8 -143.75 127.8 -141.55 126.2 -139.95 124.6 -138.35 122.4 -138.35 120.1 -138.35 118.5 -139.95 116.95 -141.5 116.95 -143.8 116.95 -146.0 118.55 -147.6 M80.6 -99.65 Q82.2 -101.25 84.4 -101.25 86.65 -101.2 88.2 -99.65 89.8 -98.05 89.85 -95.8 89.85 -93.6 88.25 -92.0 86.65 -90.4 84.45 -90.4 82.15 -90.4 80.55 -92.0 79.0 -93.55 79.0 -95.85 79.0 -98.05 80.6 -99.65 M61.35 -182.85 Q62.95 -184.45 65.15 -184.45 67.4 -184.4 68.95 -182.85 70.55 -181.25 70.6 -179.0 70.6 -176.8 69.0 -175.2 67.4 -173.6 65.2 -173.6 62.9 -173.6 61.3 -175.2 59.75 -176.75 59.75 -179.05 59.75 -181.25 61.35 -182.85 M23.95 -124.55 Q25.75 -126.35 28.25 -126.35 30.8 -126.4 32.6 -124.6 34.45 -122.75 34.4 -120.2 34.4 -117.7 32.6 -115.9 30.8 -114.1 28.25 -114.05 25.75 -114.05 23.9 -115.9 22.1 -117.7 22.1 -120.2 22.15 -122.75 23.95 -124.55 M22.85 -52.25 Q25.1 -54.5 28.25 -54.55 31.4 -54.5 33.6 -52.3 35.85 -50.05 35.9 -46.9 35.85 -43.75 33.6 -41.5 31.4 -39.3 28.25 -39.25 25.1 -39.3 22.85 -41.55 20.65 -43.75 20.6 -46.9 20.65 -50.05 22.85 -52.25 M139.3 -80.5 Q140.9 -82.1 143.1 -82.1 145.35 -82.05 146.9 -80.5 148.5 -78.9 148.55 -76.65 148.55 -74.45 146.95 -72.85 145.35 -71.25 143.15 -71.25 140.85 -71.25 139.25 -72.85 137.7 -74.4 137.7 -76.7 137.7 -78.9 139.3 -80.5 M96.1 -37.25 Q97.7 -38.85 99.9 -38.85 102.15 -38.8 103.7 -37.25 105.3 -35.65 105.35 -33.4 105.35 -31.2 103.75 -29.6 102.15 -28.0 99.95 -28.0 97.65 -28.0 96.05 -29.6 94.5 -31.15 94.5 -33.45 94.5 -35.65 96.1 -37.25 M-87.0 -254.85 Q-84.8 -252.65 -84.75 -249.5 -84.8 -246.35 -87.0 -244.15 -89.25 -241.9 -92.4 -241.85 -95.55 -241.9 -97.75 -244.1 -100.0 -246.35 -100.05 -249.5 -100.0 -252.65 -97.75 -254.9 -95.55 -257.1 -92.4 -257.15 -89.25 -257.1 -87.0 -254.85 M-161.35 -203.2 Q-159.55 -201.4 -159.5 -198.85 -159.5 -196.35 -161.3 -194.55 -163.15 -192.7 -165.65 -192.7 -168.2 -192.75 -170.0 -194.55 -171.8 -196.35 -171.8 -198.85 -171.85 -201.4 -170.0 -203.25 -168.2 -205.05 -165.65 -205.0 -163.15 -205.0 -161.35 -203.2 M-2.95 -264.95 Q-0.75 -262.75 -0.7 -259.6 -0.75 -256.45 -2.95 -254.25 -5.2 -252.0 -8.35 -251.95 -11.5 -252.0 -13.7 -254.2 -15.95 -256.45 -16.0 -259.6 -15.95 -262.75 -13.7 -265.0 -11.5 -267.2 -8.35 -267.25 -5.2 -267.2 -2.95 -264.95 M-161.0 -80.5 Q-159.4 -78.9 -159.4 -76.7 -159.4 -74.4 -160.95 -72.85 -162.55 -71.25 -164.85 -71.25 -167.05 -71.25 -168.65 -72.85 -170.25 -74.45 -170.25 -76.65 -170.2 -78.9 -168.6 -80.5 -167.05 -82.05 -164.8 -82.1 -162.6 -82.1 -161.0 -80.5 M-2.95 -189.7 Q-0.75 -187.5 -0.7 -184.35 -0.75 -181.2 -2.95 -179.0 -5.2 -176.75 -8.35 -176.7 -11.5 -176.75 -13.7 -178.95 -15.95 -181.2 -16.0 -184.35 -15.95 -187.5 -13.7 -189.75 -11.5 -191.95 -8.35 -192.0 -5.2 -191.95 -2.95 -189.7 M-45.65 -124.55 Q-43.85 -122.75 -43.8 -120.2 -43.8 -117.7 -45.6 -115.9 -47.45 -114.05 -49.95 -114.05 -52.5 -114.1 -54.3 -115.9 -56.1 -117.7 -56.1 -120.2 -56.15 -122.75 -54.3 -124.6 -52.5 -126.4 -49.95 -126.35 -47.45 -126.35 -45.65 -124.55 M-83.0 -182.85 Q-81.4 -181.25 -81.4 -179.05 -81.4 -176.75 -82.95 -175.2 -84.55 -173.6 -86.85 -173.6 -89.05 -173.6 -90.65 -175.2 -92.25 -176.8 -92.25 -179.0 -92.2 -181.25 -90.6 -182.85 -89.05 -184.4 -86.8 -184.45 -84.6 -184.45 -83.0 -182.85 M-140.2 -147.6 Q-138.6 -146.0 -138.6 -143.8 -138.6 -141.5 -140.15 -139.95 -141.75 -138.35 -144.05 -138.35 -146.25 -138.35 -147.85 -139.95 -149.45 -141.55 -149.45 -143.75 -149.4 -146.0 -147.8 -147.6 -146.25 -149.15 -144.0 -149.2 -141.8 -149.2 -140.2 -147.6 M-102.25 -99.65 Q-100.65 -98.05 -100.65 -95.85 -100.65 -93.55 -102.2 -92.0 -103.8 -90.4 -106.1 -90.4 -108.3 -90.4 -109.9 -92.0 -111.5 -93.6 -111.5 -95.8 -111.45 -98.05 -109.85 -99.65 -108.3 -101.2 -106.05 -101.25 -103.85 -101.25 -102.25 -99.65 M-117.75 -37.25 Q-116.15 -35.65 -116.15 -33.45 -116.15 -31.15 -117.7 -29.6 -119.3 -28.0 -121.6 -28.0 -123.8 -28.0 -125.4 -29.6 -127.0 -31.2 -127.0 -33.4 -126.95 -35.65 -125.35 -37.25 -123.8 -38.8 -121.55 -38.85 -119.35 -38.85 -117.75 -37.25 M-44.55 -52.25 Q-42.35 -50.05 -42.3 -46.9 -42.35 -43.75 -44.55 -41.55 -46.8 -39.3 -49.95 -39.25 -53.1 -39.3 -55.3 -41.5 -57.55 -43.75 -57.6 -46.9 -57.55 -50.05 -55.3 -52.3 -53.1 -54.5 -49.95 -54.55 -46.8 -54.5 -44.55 -52.25" fill="#e9eceb" fill-rule="evenodd" stroke="none"/>
    <path d="M62.45 -253.35 L57.3 -255.5 57.25 -255.95 56.55 -282.45 66.75 -259.1 66.7 -259.1 66.7 -259.05 66.65 -259.1 66.65 -259.05 66.7 -259.05 66.7 -258.95 66.75 -258.95 66.75 -258.9 66.8 -258.9 66.85 -258.9 67.25 -257.95 Q65.65 -257.25 64.3 -255.9 63.15 -254.75 62.45 -253.35 M38.3 -235.3 L62.3 -245.9 Q63.0 -244.3 64.25 -243.05 66.95 -240.35 70.75 -240.35 72.95 -240.35 74.75 -241.25 L85.5 -217.5 65.35 -236.15 38.3 -235.3 M0.1 -256.0 L24.1 -245.4 -2.95 -246.25 -23.1 -227.6 -12.35 -251.35 Q-10.55 -250.45 -8.35 -250.45 -4.55 -250.45 -1.85 -253.15 -0.6 -254.4 0.1 -256.0 M5.15 -266.05 L5.1 -265.6 -0.05 -263.45 Q-0.75 -264.85 -1.9 -266.0 -3.2 -267.3 -4.75 -268.0 L-4.7 -268.0 -4.7 -268.1 -4.75 -268.1 -4.75 -268.0 -4.85 -268.05 5.85 -292.55 5.15 -266.05 M140.8 -205.95 L140.8 -206.0 140.85 -206.0 140.85 -205.95 140.8 -205.95 140.8 -205.9 140.85 -205.9 140.95 -205.95 140.95 -206.0 140.9 -205.95 140.9 -206.0 140.9 -206.05 140.85 -206.1 140.8 -206.0 140.75 -206.05 140.75 -205.95 140.8 -205.95 M137.25 -202.0 L133.05 -203.7 133.1 -204.05 132.5 -225.45 141.15 -205.7 Q139.8 -205.15 138.75 -204.1 137.8 -203.15 137.25 -202.0 M117.75 -187.4 L137.2 -195.95 Q137.75 -194.7 138.75 -193.7 140.95 -191.5 143.95 -191.5 145.75 -191.5 147.2 -192.25 L155.9 -173.05 139.65 -188.1 117.75 -187.4 M132.85 -121.0 L118.55 -134.3 99.3 -133.65 116.35 -141.2 Q116.85 -140.1 117.75 -139.2 119.65 -137.3 122.35 -137.3 123.95 -137.3 125.2 -137.95 L132.85 -121.0 M112.75 -148.3 L112.25 -167.2 119.75 -150.0 119.75 -149.95 119.8 -149.95 119.8 -149.9 119.85 -149.8 117.8 -148.35 Q116.95 -147.5 116.45 -146.5 L112.8 -148.05 112.75 -148.3 M118.85 -151.0 L118.8 -150.95 118.8 -150.9 118.9 -150.9 118.85 -151.0 M81.85 -102.05 L81.8 -102.0 81.8 -102.05 81.8 -102.0 81.75 -102.05 81.75 -101.95 81.8 -101.95 81.8 -101.9 81.85 -101.9 81.9 -101.9 81.9 -101.85 Q80.8 -101.35 79.85 -100.4 79.0 -99.55 78.5 -98.55 L74.85 -100.1 74.8 -100.35 74.3 -119.25 81.85 -102.05 M94.9 -73.05 L80.6 -86.35 61.35 -85.7 78.4 -93.25 Q78.9 -92.15 79.8 -91.25 81.7 -89.35 84.4 -89.35 86.0 -89.35 87.25 -90.0 L94.9 -73.05 M61.8 -187.0 L61.8 -186.9 61.85 -186.9 62.65 -185.05 Q61.55 -184.55 60.6 -183.6 59.75 -182.75 59.25 -181.75 L55.6 -183.3 55.55 -183.55 55.05 -202.45 61.8 -187.0 M61.8 -185.95 L61.8 -185.9 61.85 -185.95 61.85 -185.9 61.9 -185.95 61.9 -186.0 61.85 -186.05 61.85 -186.0 61.75 -186.05 61.75 -186.0 61.8 -185.95 M68.0 -173.2 L75.65 -156.25 61.35 -169.55 42.1 -168.9 59.15 -176.45 Q59.65 -175.35 60.55 -174.45 62.45 -172.55 65.15 -172.55 66.75 -172.55 68.0 -173.2 M0.1 -180.75 L24.1 -170.15 -2.95 -171.0 -23.1 -152.35 -12.35 -176.1 Q-10.55 -175.2 -8.35 -175.2 -4.55 -175.2 -1.85 -177.9 -0.6 -179.15 0.1 -180.75 M5.15 -190.8 L5.1 -190.35 -0.05 -188.2 Q-0.75 -189.6 -1.9 -190.75 L-4.85 -192.8 -4.8 -192.9 -4.75 -192.9 -4.75 -192.95 -4.7 -193.0 -4.7 -193.1 -3.9 -194.95 -3.85 -194.95 -3.85 -195.0 -3.8 -194.95 -3.8 -194.9 -3.75 -194.95 -3.7 -195.0 -3.7 -195.05 -3.75 -195.05 -3.7 -195.1 -3.75 -195.15 -3.8 -195.1 -3.85 -195.1 5.85 -217.3 5.15 -190.8 M24.8 -127.9 L24.85 -127.9 24.9 -127.95 24.9 -128.05 24.85 -128.1 24.8 -128.05 24.8 -128.0 24.75 -128.05 24.75 -127.95 24.8 -127.95 24.8 -127.9 M25.45 -127.05 Q24.1 -126.5 23.05 -125.45 22.1 -124.5 21.55 -123.35 L17.35 -125.05 17.4 -125.4 16.8 -146.8 25.45 -127.05 M21.5 -117.3 Q22.05 -116.05 23.05 -115.05 25.25 -112.85 28.25 -112.85 30.05 -112.85 31.5 -113.6 L40.2 -94.4 23.95 -109.45 2.05 -108.75 21.5 -117.3 M80.85 -103.0 L80.8 -102.95 80.8 -102.9 80.9 -102.9 80.85 -103.0 M19.95 -50.75 L14.8 -52.9 14.75 -53.35 14.05 -79.85 24.75 -55.35 Q23.15 -54.65 21.8 -53.3 20.65 -52.15 19.95 -50.75 M-4.2 -32.7 L19.8 -43.3 Q20.5 -41.7 21.75 -40.45 24.45 -37.75 28.25 -37.75 30.45 -37.75 32.25 -38.65 L43.0 -14.9 22.85 -33.55 -4.2 -32.7 M23.7 -56.95 L23.8 -56.95 23.8 -56.9 23.85 -56.9 23.85 -56.95 23.9 -56.95 23.9 -57.05 23.85 -57.05 23.85 -57.1 23.8 -57.1 23.75 -57.15 23.7 -57.1 23.75 -57.05 23.7 -57.05 23.65 -57.1 23.65 -57.05 23.7 -57.0 23.7 -56.95 M140.6 -82.7 Q139.5 -82.2 138.55 -81.25 137.7 -80.4 137.2 -79.4 L133.55 -80.95 133.5 -81.2 133.0 -100.1 140.6 -82.7 M137.1 -74.1 Q137.6 -73.0 138.5 -72.1 140.4 -70.2 143.1 -70.2 144.7 -70.2 145.95 -70.85 L153.6 -53.9 139.3 -67.2 120.05 -66.55 137.1 -74.1 M139.9 -83.95 L139.9 -84.0 139.85 -84.05 139.8 -84.0 139.75 -84.05 139.75 -84.0 139.8 -83.95 139.8 -83.9 139.9 -83.9 139.9 -83.95 M102.75 -27.6 L110.4 -10.65 96.1 -23.95 76.85 -23.3 93.9 -30.85 Q94.4 -29.75 95.3 -28.85 97.2 -26.95 99.9 -26.95 101.5 -26.95 102.75 -27.6 M97.4 -39.45 L95.35 -38.0 Q94.5 -37.15 94.0 -36.15 L90.35 -37.7 90.3 -37.95 89.8 -56.85 97.4 -39.45 M96.8 -40.05 L96.8 -40.0 96.75 -40.05 96.75 -39.95 96.8 -39.95 96.8 -39.9 96.85 -39.9 96.9 -39.95 96.9 -40.0 96.85 -40.05 96.8 -40.0 96.8 -40.05 M-87.75 -259.95 L-87.7 -260.0 -87.7 -260.05 -87.75 -260.05 -87.7 -260.1 -87.75 -260.15 -87.8 -260.1 -87.85 -260.1 -87.85 -260.05 -87.9 -260.05 -87.9 -259.95 -87.85 -259.95 -87.85 -260.0 -87.8 -259.95 -87.8 -259.9 -87.75 -259.95 M-88.9 -257.95 L-78.2 -282.45 -78.9 -255.95 -78.95 -255.5 -84.1 -253.35 Q-84.8 -254.75 -85.95 -255.9 -87.25 -257.2 -88.8 -257.9 L-88.9 -257.95 M-96.4 -241.25 Q-94.6 -240.35 -92.4 -240.35 -88.6 -240.35 -85.9 -243.05 -84.65 -244.3 -83.95 -245.9 L-59.95 -235.3 -87.0 -236.15 -107.15 -217.5 -96.4 -241.25 M-88.8 -257.9 L-88.75 -257.9 -88.75 -257.95 -88.7 -258.0 -88.7 -258.1 -88.75 -258.1 -88.8 -258.0 -88.85 -258.0 -88.8 -257.95 -88.85 -257.95 -88.8 -257.9 M-161.8 -208.0 L-154.2 -225.45 -154.8 -204.05 -154.75 -203.7 -158.95 -202.0 Q-159.5 -203.15 -160.45 -204.1 -161.5 -205.15 -162.85 -205.7 L-161.85 -207.9 -161.8 -207.9 -161.8 -208.0 M-161.8 -207.0 L-161.85 -207.05 -161.85 -207.1 -161.9 -207.1 -161.9 -207.0 -161.85 -206.9 -161.85 -206.95 -161.8 -206.9 -161.8 -207.0 M-158.9 -195.95 L-139.45 -187.4 -161.35 -188.1 -177.6 -173.05 -168.9 -192.25 Q-167.45 -191.5 -165.65 -191.5 -162.65 -191.5 -160.45 -193.7 -159.45 -194.7 -158.9 -195.95 M-3.8 -269.9 L-3.75 -269.95 -3.7 -270.0 -3.7 -270.05 -3.75 -270.05 -3.7 -270.1 -3.75 -270.15 -3.8 -270.1 -3.85 -270.1 -3.85 -270.05 -3.9 -270.05 -3.9 -269.95 -3.85 -269.95 -3.85 -270.0 -3.8 -269.95 -3.8 -269.9 M-162.3 -82.7 L-154.7 -100.1 -155.2 -81.2 -155.25 -80.95 Q-157.05 -80.15 -158.9 -79.4 -159.4 -80.4 -160.25 -81.25 L-162.3 -82.7 M-167.65 -70.85 Q-166.4 -70.2 -164.8 -70.2 -162.1 -70.2 -160.2 -72.1 -159.3 -73.0 -158.8 -74.1 L-141.75 -66.55 -161.0 -67.2 -175.3 -53.9 -167.65 -70.85 M-3.85 -195.1 L-3.85 -195.05 -3.85 -195.1 M-77.2 -183.55 L-77.25 -183.3 -80.9 -181.75 Q-81.4 -182.75 -82.25 -183.6 -83.2 -184.55 -84.3 -185.05 L-83.9 -185.95 -83.85 -185.9 -83.8 -185.9 -83.8 -185.95 -83.75 -185.95 -83.75 -186.05 -83.75 -186.0 -83.8 -186.05 -83.8 -186.0 -83.85 -186.05 -83.85 -186.0 -76.7 -202.45 -77.2 -183.55 M-80.8 -176.45 L-63.75 -168.9 -83.0 -169.55 -97.3 -156.25 -89.65 -173.2 Q-88.4 -172.55 -86.8 -172.55 -84.1 -172.55 -82.2 -174.45 -81.3 -175.35 -80.8 -176.45 M-46.75 -127.95 L-38.5 -146.8 -39.1 -125.4 -39.05 -125.05 -43.25 -123.35 Q-43.8 -124.5 -44.75 -125.45 -45.7 -126.4 -46.85 -126.9 L-47.15 -127.05 -46.75 -127.95 M-46.85 -126.9 L-46.8 -127.0 -46.75 -127.0 -46.8 -127.0 -46.8 -127.05 -46.85 -127.1 -46.85 -127.05 -46.9 -126.95 -46.85 -126.9 M-43.2 -117.3 L-23.75 -108.75 -45.65 -109.45 -61.9 -94.4 -53.2 -113.6 Q-51.75 -112.85 -49.95 -112.85 -46.95 -112.85 -44.75 -115.05 -43.75 -116.05 -43.2 -117.3 M-146.85 -137.95 Q-145.6 -137.3 -144.0 -137.3 -141.3 -137.3 -139.4 -139.2 -138.5 -140.1 -138.0 -141.2 L-120.95 -133.65 -140.2 -134.3 -154.5 -121.0 -146.85 -137.95 M-138.1 -146.5 Q-138.6 -147.5 -139.45 -148.35 L-141.5 -149.8 -133.9 -167.2 -134.4 -148.3 -134.45 -148.05 -138.1 -146.5 M-140.75 -151.05 L-140.8 -151.0 -140.85 -151.05 -140.9 -151.0 -140.9 -150.95 -140.85 -150.9 -140.9 -150.9 -140.8 -150.9 -140.8 -150.95 -140.75 -151.0 -140.75 -151.05 M-102.8 -102.9 L-102.8 -102.95 -102.75 -103.0 -102.75 -103.05 -102.8 -103.0 -102.85 -103.05 -102.9 -103.0 -102.9 -102.95 -102.85 -102.9 -102.9 -102.9 -102.8 -102.9 M-103.55 -101.85 L-95.95 -119.25 -96.45 -100.35 -96.5 -100.1 Q-98.3 -99.3 -100.15 -98.55 -100.65 -99.55 -101.5 -100.4 L-103.55 -101.85 M-100.05 -93.25 L-83.0 -85.7 -102.25 -86.35 -116.55 -73.05 -108.9 -90.0 Q-107.65 -89.35 -106.05 -89.35 -103.35 -89.35 -101.45 -91.25 -100.55 -92.15 -100.05 -93.25 M-161.8 -83.05 L-161.8 -83.0 -161.85 -83.05 -161.9 -83.0 -161.9 -82.95 -161.85 -82.9 -161.8 -82.9 -161.8 -82.95 -161.75 -82.95 -161.75 -83.05 -161.75 -83.0 -161.8 -83.05 M-119.05 -39.45 L-118.85 -39.9 -118.8 -39.9 -118.8 -39.95 -118.75 -39.95 -118.75 -40.05 -118.75 -40.0 -118.8 -40.05 -111.45 -56.85 -111.95 -37.95 -112.0 -37.7 -115.65 -36.15 Q-116.15 -37.15 -117.0 -38.0 -117.95 -38.95 -119.05 -39.45 M-124.4 -27.6 Q-123.15 -26.95 -121.55 -26.95 -118.85 -26.95 -116.95 -28.85 -116.05 -29.75 -115.55 -30.85 L-98.5 -23.3 -117.75 -23.95 -132.05 -10.65 -124.4 -27.6 M-36.45 -53.35 L-36.5 -52.9 -41.65 -50.75 Q-42.35 -52.15 -43.5 -53.3 -44.85 -54.65 -46.45 -55.35 L-45.75 -56.9 -45.75 -56.95 -45.7 -56.95 -45.7 -57.0 -45.65 -57.05 -45.65 -57.1 -45.7 -57.05 -35.75 -79.85 -36.45 -53.35 M-41.5 -43.3 L-17.5 -32.7 -44.55 -33.55 -64.7 -14.9 -53.95 -38.65 Q-52.15 -37.75 -49.95 -37.75 -46.15 -37.75 -43.45 -40.45 -42.2 -41.7 -41.5 -43.3" fill="#232021" fill-rule="evenodd" stroke="none"/>
    <path d="M79.45 -246.65 Q79.9 -248.0 79.9 -249.5 79.85 -251.55 79.05 -253.35 L104.7 -263.5 85.05 -243.85 85.2 -244.6 79.45 -246.65 M-16.65 -263.45 Q-17.45 -261.65 -17.5 -259.6 -17.5 -258.1 -17.05 -256.75 L-22.8 -254.7 -22.65 -253.95 -42.3 -273.6 -16.65 -263.45 M151.0 -196.55 L151.3 -198.85 Q151.3 -200.55 150.7 -201.95 L171.4 -210.15 155.55 -194.3 155.6 -194.95 151.0 -196.55 M146.55 -153.7 L132.55 -139.7 132.65 -140.3 128.5 -141.75 Q128.85 -142.7 128.85 -143.8 128.85 -145.2 128.25 -146.5 L146.55 -153.7 M108.6 -105.75 L94.6 -91.75 94.7 -92.35 90.55 -93.8 Q90.9 -94.75 90.9 -95.85 90.9 -97.25 90.3 -98.55 L108.6 -105.75 M71.05 -181.75 L89.35 -188.95 75.35 -174.95 75.45 -175.55 71.3 -177.0 Q71.65 -177.95 71.65 -179.05 71.65 -180.45 71.05 -181.75 M-16.65 -188.2 Q-17.45 -186.4 -17.5 -184.35 -17.5 -182.85 -17.05 -181.5 L-22.8 -179.45 -22.65 -178.7 -42.3 -198.35 -16.65 -188.2 M35.3 -117.9 L35.6 -120.2 Q35.6 -121.9 35.0 -123.3 L55.7 -131.5 39.85 -115.65 39.9 -116.3 35.3 -117.9 M62.2 -60.9 L42.55 -41.25 42.7 -42.0 36.95 -44.05 Q37.4 -45.4 37.4 -46.9 37.35 -48.95 36.55 -50.75 L62.2 -60.9 M149.25 -74.65 Q149.6 -75.6 149.6 -76.7 149.6 -78.1 149.0 -79.4 L167.3 -86.6 153.3 -72.6 153.4 -73.2 149.25 -74.65 M110.1 -29.35 L110.2 -29.95 106.05 -31.4 Q106.4 -32.35 106.4 -33.45 106.4 -34.85 105.8 -36.15 L124.1 -43.35 110.1 -29.35 M-126.35 -263.5 L-100.7 -253.35 Q-101.5 -251.55 -101.55 -249.5 -101.55 -248.0 -101.1 -246.65 L-106.85 -244.6 -106.7 -243.85 -126.35 -263.5 M-193.1 -210.15 L-172.4 -201.95 Q-173.0 -200.55 -173.0 -198.85 L-172.7 -196.55 -177.3 -194.95 -177.25 -194.3 -193.1 -210.15 M-189.0 -86.6 L-170.7 -79.4 Q-171.3 -78.1 -171.3 -76.7 -171.3 -75.6 -170.95 -74.65 L-175.1 -73.2 -175.0 -72.6 -189.0 -86.6 M-77.4 -131.5 L-56.7 -123.3 Q-57.3 -121.9 -57.3 -120.2 L-57.0 -117.9 -61.6 -116.3 -61.55 -115.65 -77.4 -131.5 M-92.7 -181.75 Q-93.3 -180.45 -93.3 -179.05 -93.3 -177.95 -92.95 -177.0 L-97.1 -175.55 -97.0 -174.95 -111.0 -188.95 -92.7 -181.75 M-149.9 -146.5 Q-150.5 -145.2 -150.5 -143.8 -150.5 -142.7 -150.15 -141.75 L-154.3 -140.3 -154.2 -139.7 -168.2 -153.7 -149.9 -146.5 M-130.25 -105.75 L-111.95 -98.55 Q-112.55 -97.25 -112.55 -95.85 -112.55 -94.75 -112.2 -93.8 L-116.35 -92.35 -116.25 -91.75 -130.25 -105.75 M-145.75 -43.35 L-127.45 -36.15 Q-128.05 -34.85 -128.05 -33.45 -128.05 -32.35 -127.7 -31.4 L-131.85 -29.95 -131.75 -29.35 -145.75 -43.35 M-58.25 -50.75 Q-59.05 -48.95 -59.1 -46.9 -59.1 -45.4 -58.65 -44.05 L-64.4 -42.0 -64.25 -41.25 -83.9 -60.9 -58.25 -50.75" fill="#bcbfbf" fill-rule="evenodd" stroke="none"/>
    <path d="M66.85 -258.9 L66.8 -258.9 66.75 -258.9 66.75 -258.95 66.7 -258.95 66.7 -259.05 66.65 -259.05 66.65 -259.1 66.7 -259.05 66.7 -259.1 66.75 -259.1 66.8 -259.05 66.8 -259.1 66.9 -259.1 66.9 -259.0 66.9 -258.95 66.85 -258.9 M66.85 -259.95 L66.85 -259.9 66.8 -259.9 66.75 -259.9 66.75 -259.95 66.7 -259.95 66.7 -260.0 66.65 -260.05 66.65 -260.1 66.7 -260.05 66.75 -260.05 66.7 -260.1 66.75 -260.15 66.8 -260.1 66.85 -260.1 66.85 -260.05 66.9 -260.05 66.9 -259.95 66.85 -259.95 M67.8 -257.9 L67.75 -257.9 67.75 -257.95 67.75 -258.0 67.7 -258.0 67.7 -258.1 67.75 -258.1 67.8 -258.0 67.85 -258.0 67.85 -257.95 67.8 -257.9 M-4.75 -268.0 L-4.85 -268.05 -4.75 -268.0 -4.75 -268.1 -4.7 -268.1 -4.7 -268.0 -4.75 -268.0 M140.75 -206.95 L140.75 -207.05 140.8 -207.0 140.8 -207.05 140.85 -207.1 140.9 -207.1 140.9 -206.95 140.85 -206.9 140.8 -206.9 140.8 -206.95 140.75 -206.95 M140.85 -208.0 L140.9 -208.0 140.9 -207.95 140.85 -207.9 140.8 -207.9 140.8 -208.0 140.85 -208.05 140.85 -208.0 M140.8 -205.95 L140.75 -205.95 140.75 -206.05 140.8 -206.0 140.85 -206.1 140.9 -206.05 140.9 -206.0 140.9 -205.95 140.95 -206.0 140.95 -205.95 140.85 -205.9 140.8 -205.9 140.8 -205.95 140.85 -205.95 140.85 -206.0 140.8 -206.0 140.8 -205.95 M119.75 -150.0 L119.75 -150.05 119.8 -150.0 119.8 -150.05 119.8 -150.0 119.85 -150.05 119.9 -150.0 119.9 -149.95 119.85 -149.9 119.8 -149.9 119.8 -149.95 119.75 -149.95 119.75 -150.0 M118.85 -151.0 L118.9 -150.9 118.8 -150.9 118.8 -150.95 118.85 -151.0 M119.8 -151.05 L119.8 -151.0 119.85 -151.05 119.9 -151.0 119.9 -150.95 119.85 -150.9 119.85 -150.95 119.8 -150.9 119.8 -150.95 119.75 -150.95 119.75 -151.05 119.8 -151.0 119.8 -151.05 M81.8 -102.9 L81.8 -102.95 81.75 -102.95 81.75 -103.05 81.8 -103.0 81.8 -103.05 81.8 -103.0 81.85 -103.05 81.9 -103.0 81.9 -102.95 81.85 -102.9 81.85 -102.95 81.8 -102.9 M81.9 -101.9 L81.85 -101.9 81.8 -101.9 81.8 -101.95 81.75 -101.95 81.75 -102.05 81.8 -102.0 81.8 -102.05 81.8 -102.0 81.85 -102.05 81.9 -102.0 81.9 -101.95 81.9 -101.9 M61.8 -187.0 L61.85 -187.05 61.85 -187.0 61.9 -187.0 61.9 -186.95 61.9 -186.9 61.85 -186.9 61.8 -186.9 61.8 -187.0 M61.8 -185.95 L61.75 -186.0 61.75 -186.05 61.85 -186.0 61.85 -186.05 61.9 -186.0 61.9 -185.95 61.85 -185.9 61.85 -185.95 61.8 -185.9 61.8 -185.95 M62.75 -186.05 L62.8 -186.0 62.8 -186.05 62.8 -186.0 62.85 -186.05 62.9 -186.0 62.9 -185.95 62.85 -185.9 62.8 -185.9 62.8 -185.95 62.75 -185.95 62.75 -186.05 M62.8 -185.05 L62.8 -185.0 62.85 -185.05 62.85 -185.0 62.75 -184.95 62.75 -185.0 62.8 -185.05 M24.9 -128.95 L24.85 -128.9 24.8 -128.9 24.8 -128.95 24.8 -129.0 24.75 -129.05 24.8 -129.0 24.85 -129.05 24.85 -129.1 24.9 -129.1 24.9 -128.95 M24.8 -127.9 L24.8 -127.95 24.75 -127.95 24.75 -128.05 24.8 -128.0 24.8 -128.05 24.85 -128.1 24.9 -128.05 24.9 -127.95 24.85 -127.9 24.8 -127.9 M25.85 -128.05 L25.85 -128.1 25.9 -128.05 25.85 -128.05 M25.8 -127.95 L25.75 -127.95 25.75 -128.05 25.8 -128.0 25.8 -128.05 25.85 -128.0 25.8 -128.0 25.8 -127.95 25.85 -127.95 25.95 -128.0 25.95 -127.95 25.85 -127.9 25.8 -127.9 25.8 -127.95 M25.75 -127.0 L25.8 -127.0 25.8 -127.05 25.85 -127.1 25.9 -127.05 25.9 -126.95 25.85 -126.9 25.85 -127.0 25.75 -127.0 M80.85 -103.0 L80.9 -102.9 80.8 -102.9 80.8 -102.95 80.85 -103.0 M23.8 -58.05 L23.9 -58.05 23.9 -58.0 23.85 -58.0 23.8 -58.05 23.75 -58.0 23.75 -58.05 23.8 -58.05 M23.8 -57.95 L23.8 -57.9 23.75 -57.95 23.8 -57.95 M23.7 -56.95 L23.7 -57.0 23.65 -57.05 23.65 -57.1 23.7 -57.05 23.75 -57.05 23.7 -57.1 23.75 -57.15 23.8 -57.1 23.85 -57.1 23.85 -57.05 23.9 -57.05 23.9 -56.95 23.85 -56.95 23.85 -56.9 23.8 -56.9 23.8 -56.95 23.7 -56.95 M24.75 -56.1 L24.8 -56.05 24.8 -56.1 24.9 -56.1 24.9 -56.05 24.85 -56.05 24.85 -56.0 24.85 -55.95 24.9 -56.0 24.8 -55.9 24.75 -55.9 24.75 -55.95 24.7 -55.95 24.7 -56.05 24.65 -56.05 24.65 -56.1 24.7 -56.05 24.7 -56.1 24.75 -56.1 M24.8 -56.9 L24.8 -56.95 24.75 -56.9 24.75 -56.95 24.75 -57.0 24.7 -57.0 24.7 -57.05 24.75 -57.1 24.8 -57.05 24.8 -57.1 24.85 -57.1 24.85 -57.05 24.9 -57.05 24.9 -57.0 24.85 -57.0 24.9 -56.95 24.85 -56.95 24.8 -56.9 M139.9 -83.95 L139.9 -83.9 139.8 -83.9 139.8 -83.95 139.75 -84.0 139.75 -84.05 139.8 -84.0 139.85 -84.05 139.9 -84.0 139.9 -83.95 M140.8 -83.05 L140.8 -83.0 140.85 -83.05 140.9 -83.0 140.9 -82.95 140.85 -82.9 140.8 -82.9 140.8 -82.95 140.75 -82.95 140.75 -83.05 140.8 -83.0 140.8 -83.05 M97.8 -40.05 L97.8 -40.0 97.85 -40.05 97.85 -40.0 97.75 -39.95 97.75 -40.0 97.8 -40.05 M96.8 -40.9 L96.8 -40.95 96.75 -41.0 96.75 -41.05 96.8 -41.0 96.85 -41.05 96.9 -41.0 96.9 -40.95 96.9 -40.9 96.8 -40.9 M96.8 -40.05 L96.8 -40.0 96.85 -40.05 96.9 -40.0 96.9 -39.95 96.85 -39.9 96.8 -39.9 96.8 -39.95 96.75 -39.95 96.75 -40.05 96.8 -40.0 96.8 -40.05 M-3.85 -195.1 L-3.8 -195.1 -3.75 -195.15 -3.7 -195.1 -3.75 -195.05 -3.7 -195.05 -3.7 -195.0 -3.75 -194.95 -3.8 -194.9 -3.8 -194.95 -3.85 -195.0 -3.85 -194.95 -3.9 -194.95 -3.9 -195.05 -3.85 -195.05 -3.85 -195.1 M-4.7 -193.1 L-4.7 -193.0 -4.75 -192.95 -4.75 -192.9 -4.8 -192.9 -4.85 -192.95 -4.8 -192.95 -4.85 -193.0 -4.85 -193.05 -4.9 -193.1 -4.85 -193.1 -4.85 -193.05 -4.8 -193.05 -4.75 -193.1 -4.7 -193.1 M-88.8 -260.0 L-88.8 -259.9 -88.85 -259.9 -88.85 -259.95 -88.9 -259.95 -88.85 -260.0 -88.9 -260.0 -88.9 -260.05 -88.85 -260.05 -88.85 -260.1 -88.8 -260.05 -88.8 -260.1 -88.75 -260.1 -88.8 -260.05 -88.7 -260.05 -88.65 -260.1 -88.65 -260.05 -88.7 -260.0 -88.75 -260.0 -88.7 -260.0 -88.7 -259.95 -88.75 -259.95 -88.75 -259.9 -88.75 -259.95 -88.8 -260.0 M-87.75 -259.95 L-87.8 -259.9 -87.8 -259.95 -87.85 -260.0 -87.85 -259.95 -87.9 -259.95 -87.9 -260.05 -87.85 -260.05 -87.85 -260.1 -87.8 -260.1 -87.75 -260.15 -87.7 -260.1 -87.75 -260.05 -87.7 -260.05 -87.7 -260.0 -87.75 -259.95 M-88.9 -259.0 L-88.9 -259.1 -88.8 -259.1 -88.75 -259.05 -88.75 -259.1 -88.7 -259.1 -88.7 -259.05 -88.65 -259.1 -88.65 -259.05 -88.7 -259.05 -88.7 -258.95 -88.75 -258.95 -88.75 -258.9 -88.8 -258.9 -88.85 -258.95 -88.9 -258.95 -88.85 -258.95 -88.9 -259.0 -88.85 -258.95 -88.85 -259.0 -88.9 -259.0 M-88.8 -257.9 L-88.85 -257.95 -88.8 -257.95 -88.85 -258.0 -88.8 -258.0 -88.75 -258.1 -88.7 -258.1 -88.7 -258.0 -88.75 -257.95 -88.75 -257.9 -88.8 -257.9 M-161.85 -207.9 L-161.9 -207.95 -161.9 -208.0 -161.85 -208.0 -161.85 -208.05 -161.8 -208.0 -161.8 -207.9 -161.85 -207.9 M-161.8 -207.0 L-161.8 -206.9 -161.85 -206.95 -161.85 -206.9 -161.9 -207.0 -161.9 -207.1 -161.85 -207.1 -161.85 -207.05 -161.8 -207.0 M-3.8 -269.9 L-3.8 -269.95 -3.85 -270.0 -3.85 -269.95 -3.9 -269.95 -3.9 -270.05 -3.85 -270.05 -3.85 -270.1 -3.8 -270.1 -3.75 -270.15 -3.7 -270.1 -3.75 -270.05 -3.7 -270.05 -3.7 -270.0 -3.75 -269.95 -3.8 -269.9 M-4.8 -270.0 L-4.8 -269.9 -4.85 -269.9 -4.85 -269.95 -4.9 -269.95 -4.85 -270.0 -4.9 -270.0 -4.9 -270.05 -4.85 -270.05 -4.85 -270.1 -4.8 -270.05 -4.8 -270.1 -4.75 -270.1 -4.8 -270.05 -4.7 -270.05 -4.65 -270.1 -4.65 -270.05 -4.7 -270.0 -4.75 -270.0 -4.7 -270.0 -4.7 -269.95 -4.75 -269.95 -4.75 -269.9 -4.75 -269.95 -4.8 -270.0 M-4.7 -269.05 L-4.65 -269.1 -4.65 -269.05 -4.7 -269.05 -4.7 -268.95 -4.75 -268.95 -4.75 -268.9 -4.8 -268.9 -4.85 -268.95 -4.9 -268.95 -4.85 -268.95 -4.9 -269.0 -4.9 -269.1 -4.8 -269.1 -4.75 -269.05 -4.75 -269.1 -4.7 -269.1 -4.7 -269.05 M-4.9 -269.0 L-4.85 -268.95 -4.85 -269.0 -4.9 -269.0 M-4.75 -267.9 L-4.85 -268.0 -4.8 -268.0 -4.75 -267.95 -4.75 -267.9 M-162.85 -206.9 L-162.9 -206.95 -162.9 -207.05 -162.85 -207.05 -162.85 -207.1 -162.8 -207.05 -162.8 -207.0 -162.75 -207.0 -162.75 -207.05 -162.75 -206.95 -162.8 -206.9 -162.85 -206.9 M-162.8 -205.95 L-162.8 -205.9 -162.85 -205.9 -162.95 -205.95 -162.95 -206.0 -162.85 -205.95 -162.85 -206.05 -162.9 -206.05 -162.85 -206.1 -162.75 -206.0 -162.75 -206.05 -162.75 -205.95 -162.8 -205.95 -162.8 -206.0 -162.8 -205.95 M-162.8 -83.05 L-162.75 -83.0 -162.75 -82.95 -162.85 -83.0 -162.85 -83.05 -162.8 -83.0 -162.8 -83.05 M-4.8 -194.9 L-4.85 -194.9 -4.85 -194.95 -4.9 -194.95 -4.85 -195.0 -4.9 -195.0 -4.9 -195.05 -4.85 -195.05 -4.8 -195.1 -4.75 -195.1 -4.8 -195.05 -4.8 -195.0 -4.8 -194.9 M-4.75 -195.0 L-4.7 -195.0 -4.7 -194.95 -4.8 -194.95 -4.75 -194.95 -4.75 -195.0 -4.65 -195.1 -4.65 -195.05 -4.75 -195.0 M-4.9 -194.0 L-4.9 -194.1 -4.8 -194.1 -4.75 -194.05 -4.75 -194.1 -4.7 -194.1 -4.7 -194.05 -4.65 -194.1 -4.65 -194.05 -4.7 -194.05 -4.7 -193.95 -4.75 -193.95 -4.75 -193.9 -4.8 -193.9 -4.85 -193.95 -4.9 -193.95 -4.85 -193.95 -4.9 -194.0 -4.85 -193.95 -4.85 -194.0 -4.9 -194.0 M-83.85 -186.0 L-83.85 -186.05 -83.8 -186.0 -83.8 -186.05 -83.75 -186.0 -83.75 -186.05 -83.75 -185.95 -83.8 -185.95 -83.8 -185.9 -83.85 -185.9 -83.9 -185.95 -83.9 -186.0 -83.85 -186.0 M-46.8 -128.9 L-46.85 -128.9 -46.9 -128.95 -46.9 -129.1 -46.85 -129.1 -46.85 -129.05 -46.8 -129.0 -46.75 -129.05 -46.8 -129.0 -46.75 -128.95 -46.8 -128.9 M-46.75 -127.95 L-46.8 -127.95 -46.8 -127.9 -46.85 -127.9 -46.95 -127.95 -46.95 -128.0 -46.9 -128.0 -46.9 -128.05 -46.85 -128.05 -46.8 -128.0 -46.75 -128.05 -46.75 -127.95 M-46.85 -126.9 L-46.9 -126.95 -46.85 -127.05 -46.85 -127.1 -46.8 -127.05 -46.8 -127.0 -46.75 -127.0 -46.8 -127.0 -46.85 -126.9 M-83.9 -186.95 L-83.9 -187.0 -83.85 -187.0 -83.85 -187.05 -83.8 -187.0 -83.8 -186.9 -83.9 -186.9 -83.85 -186.9 -83.9 -186.95 M-84.8 -185.05 L-84.75 -185.0 -84.75 -184.95 -84.85 -185.0 -84.85 -185.05 -84.8 -185.0 -84.8 -185.05 M-141.8 -151.05 L-141.75 -151.0 -141.75 -150.95 -141.85 -151.0 -141.85 -151.05 -141.8 -151.0 -141.8 -151.05 M-141.8 -149.9 L-141.85 -149.9 -141.9 -149.95 -141.9 -150.0 -141.85 -150.05 -141.8 -150.0 -141.8 -150.05 -141.75 -150.0 -141.75 -150.05 -141.75 -149.95 -141.8 -149.95 -141.8 -149.9 M-140.75 -151.05 L-140.75 -151.0 -140.8 -150.95 -140.8 -150.9 -140.9 -150.9 -140.85 -150.9 -140.9 -150.95 -140.9 -151.0 -140.85 -151.05 -140.8 -151.0 -140.75 -151.05 M-102.8 -102.9 L-102.9 -102.9 -102.85 -102.9 -102.9 -102.95 -102.9 -103.0 -102.85 -103.05 -102.8 -103.0 -102.75 -103.05 -102.75 -103.0 -102.8 -102.95 -102.8 -102.9 M-103.8 -103.05 L-103.75 -103.0 -103.75 -102.95 -103.85 -103.0 -103.85 -103.05 -103.8 -103.0 -103.8 -103.05 M-103.9 -101.95 L-103.9 -102.0 -103.85 -102.05 -103.8 -102.0 -103.8 -102.05 -103.75 -102.0 -103.75 -102.05 -103.75 -101.95 -103.8 -101.95 -103.8 -101.9 -103.85 -101.9 -103.9 -101.95 M-161.8 -83.9 L-161.9 -83.9 -161.85 -83.9 -161.9 -83.95 -161.9 -84.0 -161.85 -84.05 -161.8 -84.0 -161.75 -84.05 -161.75 -84.0 -161.8 -83.95 -161.8 -83.9 M-161.8 -83.05 L-161.75 -83.0 -161.75 -83.05 -161.75 -82.95 -161.8 -82.95 -161.8 -82.9 -161.85 -82.9 -161.9 -82.95 -161.9 -83.0 -161.85 -83.05 -161.8 -83.0 -161.8 -83.05 M-118.85 -39.9 L-118.9 -39.95 -118.9 -40.0 -118.85 -40.05 -118.8 -40.0 -118.8 -40.05 -118.75 -40.0 -118.75 -40.05 -118.75 -39.95 -118.8 -39.95 -118.8 -39.9 -118.85 -39.9 M-118.75 -41.05 L-118.75 -41.0 -118.8 -40.95 -118.8 -40.9 -118.9 -40.9 -118.85 -40.9 -118.9 -40.95 -118.9 -41.0 -118.85 -41.05 -118.8 -41.0 -118.75 -41.05 M-45.7 -57.05 L-45.65 -57.1 -45.65 -57.05 -45.7 -57.0 -45.7 -56.95 -45.75 -56.95 -45.75 -56.9 -45.75 -56.95 -45.8 -56.9 -45.85 -56.9 -45.85 -56.95 -45.9 -56.95 -45.9 -57.05 -45.85 -57.05 -45.85 -57.1 -45.8 -57.1 -45.75 -57.15 -45.7 -57.1 -45.7 -57.05 M-45.8 -58.05 L-45.85 -58.0 -45.9 -58.0 -45.9 -58.05 -45.8 -58.05 -45.75 -58.05 -45.75 -58.0 -45.8 -58.05 M-45.8 -57.95 L-45.75 -57.95 -45.8 -57.9 -45.8 -57.95 M-46.75 -56.1 L-46.7 -56.1 -46.7 -56.05 -46.65 -56.1 -46.65 -56.05 -46.7 -56.05 -46.7 -55.95 -46.75 -55.95 -46.75 -55.9 -46.8 -55.9 -46.9 -56.0 -46.8 -55.95 -46.85 -56.0 -46.85 -56.05 -46.9 -56.05 -46.9 -56.1 -46.8 -56.1 -46.75 -56.05 -46.75 -56.1" fill="#000000" fill-rule="evenodd" stroke="none"/>
  </g>
</svg>
