<?xml version="1.0" encoding="UTF-8" standalone="no"?>
<svg xmlns:xlink="http://www.w3.org/1999/xlink" height="54.45px" width="41.0px" xmlns="http://www.w3.org/2000/svg">
  <g transform="matrix(1.0, 0.0, 0.0, 1.0, 20.5, 27.2)">
    <path d="M3.4 -21.3 Q4.45 -22.2 5.1 -24.0 L4.05 -26.6 5.1 -25.85 Q10.4 -21.85 11.9 -19.3 14.25 -9.1 15.65 -0.9 19.25 10.95 20.5 18.85 18.5 22.7 14.7 26.4 L14.1 24.75 10.4 26.15 9.8 26.3 Q7.95 17.5 6.7 0.8 5.45 -15.9 3.4 -21.3 M-1.85 -20.8 Q0.55 -11.2 0.65 4.5 0.7 20.15 1.3 26.75 L-1.45 26.5 -5.35 25.9 -5.55 27.25 Q-14.5 23.2 -20.5 19.65 L-16.65 5.1 Q-15.85 0.0 -18.3 -8.65 -21.15 -22.0 -11.05 -27.2 L-9.4 -24.25 Q-5.9 -21.55 -1.85 -20.8" fill="#6593c6" fill-rule="evenodd" stroke="none"/>
  </g>
</svg>
