<?xml version="1.0" encoding="UTF-8" standalone="no"?>
<svg xmlns:xlink="http://www.w3.org/1999/xlink" height="11.9px" width="21.15px" xmlns="http://www.w3.org/2000/svg">
  <g transform="matrix(1.0, 0.0, 0.0, 1.0, 19.4, 19.5)">
    <path d="M-2.55 -16.8 L-2.85 -18.05 0.6 -19.0 Q1.95 -15.7 0.6 -13.1 L-3.25 -11.45 Q-2.05 -14.05 -2.55 -16.8 -2.05 -14.05 -3.25 -11.45 L-6.3 -10.85 -9.5 -11.0 -9.55 -11.0 -9.5 -11.45 -9.9 -11.1 -11.6 -9.75 -12.45 -10.8 -16.55 -8.1 Q-15.7 -9.7 -18.9 -13.3 -16.4 -14.15 -13.45 -13.9 L-13.6 -15.75 Q-12.25 -14.7 -10.1 -15.75 L-10.05 -16.75 Q-7.25 -16.4 -5.95 -17.3 L-6.1 -15.65 Q-4.05 -17.95 -2.55 -16.8 M-10.1 -15.75 Q-11.0 -11.15 -9.5 -11.45 L-9.5 -11.0 -9.5 -11.45 Q-11.0 -11.15 -10.1 -15.75 M-12.45 -10.8 Q-13.15 -12.05 -13.45 -13.9 -13.15 -12.05 -12.45 -10.8 M-6.3 -10.85 Q-6.55 -11.5 -6.1 -15.65 -6.55 -11.5 -6.3 -10.85" fill="#c6f4ff" fill-opacity="0.60784316" fill-rule="evenodd" stroke="none"/>
    <path d="M-3.25 -11.45 L0.6 -13.1 Q1.95 -15.7 0.6 -19.0 L-2.85 -18.05 -2.55 -16.8 Q-2.05 -14.05 -3.25 -11.45 L-6.3 -10.85 -9.5 -11.0 -9.55 -10.65 -9.45 -9.45 M-9.9 -11.1 L-11.6 -9.75 -12.45 -10.8 -16.55 -8.1 Q-15.7 -9.7 -18.9 -13.3 -16.4 -14.15 -13.45 -13.9 L-13.6 -15.75 Q-12.25 -14.7 -10.1 -15.75 L-10.05 -16.75 Q-7.25 -16.4 -5.95 -17.3 L-6.1 -15.65 Q-4.05 -17.95 -2.55 -16.8 M-9.55 -11.0 L-9.5 -11.45 -9.9 -11.1 -9.55 -11.0 -9.5 -11.0 -9.5 -11.45 Q-11.0 -11.15 -10.1 -15.75 M-9.55 -10.65 L-9.55 -11.0 M-6.1 -15.65 Q-6.55 -11.5 -6.3 -10.85 M-13.45 -13.9 Q-13.15 -12.05 -12.45 -10.8" fill="none" stroke="#2b466d" stroke-linecap="round" stroke-linejoin="round" stroke-opacity="0.8980392" stroke-width="1.0"/>
  </g>
</svg>
