<?xml version="1.0" encoding="UTF-8" standalone="no"?>
<svg xmlns:xlink="http://www.w3.org/1999/xlink" height="22.0px" width="29.85px" xmlns="http://www.w3.org/2000/svg">
  <g transform="matrix(1.0, 0.0, 0.0, 1.0, 14.9, 11.0)">
    <path d="M-0.7 -9.2 Q1.05 -9.95 1.5 -10.6 L2.95 -8.45 3.9 -7.7 Q6.9 -6.35 7.45 -4.75 9.25 -3.6 9.35 -2.3 11.45 -0.8 11.35 0.6 13.05 1.5 13.05 3.35 14.4 4.25 14.25 5.6 14.85 6.4 14.95 7.15 14.9 7.7 14.45 7.95 L13.25 8.2 Q12.7 10.25 10.3 9.3 8.75 11.6 6.15 9.85 4.3 11.9 1.4 10.05 -1.2 12.05 -3.4 9.85 -6.95 11.7 -7.8 8.75 -11.8 8.4 -10.6 5.5 L-10.45 5.15 -10.5 5.1 Q-12.15 4.25 -11.05 1.75 L-10.95 1.45 Q-13.25 0.45 -12.1 -2.05 -14.05 -3.1 -12.95 -5.05 -14.95 -5.7 -13.55 -7.4 -15.0 -7.6 -14.9 -8.2 L-14.8 -8.5 -12.7 -9.9 -12.65 -9.85 -12.25 -10.05 -11.75 -10.1 -11.75 -11.0 Q-9.7 -9.9 -5.85 -9.4 -7.6 -7.7 -4.85 -6.7 -6.7 -5.0 -3.75 -4.1 -4.75 -2.1 -2.15 -1.4 -3.55 1.05 -0.75 1.7 -2.3 3.9 0.45 4.7 -1.0 7.0 1.4 7.65 L2.6 7.6 Q2.7 4.1 0.25 -0.55 -2.25 -4.25 -4.15 -9.25 L-1.1 -9.1 -0.9 -9.1 Q0.8 -4.25 3.15 -0.9 6.1 4.7 5.7 7.3 L6.85 7.1 Q9.6 5.6 6.8 4.05 8.6 2.3 5.6 0.75 7.0 -1.15 4.25 -2.45 5.0 -4.1 2.5 -5.25 3.7 -6.45 1.85 -7.7 1.15 -8.85 -0.7 -9.2" fill="#ffffff" fill-rule="evenodd" stroke="none"/>
  </g>
</svg>
