<?xml version="1.0" encoding="UTF-8" standalone="no"?>
<svg xmlns:xlink="http://www.w3.org/1999/xlink" height="44.2px" width="40.7px" xmlns="http://www.w3.org/2000/svg">
  <g transform="matrix(1.0, 0.0, 0.0, 1.0, 20.35, 22.1)">
    <path d="M-19.7 -11.2 L-17.7 -9.5 Q-13.4 -6.7 -10.65 -13.1 -8.9 -16.95 -8.25 -22.1 L1.75 -17.95 2.1 -17.8 3.0 -17.45 Q4.95 -18.75 8.9 -22.1 L12.4 -19.05 12.35 -19.2 12.5 -19.05 Q14.3 -14.65 14.3 -10.35 14.0 -7.95 20.35 18.25 14.45 21.95 1.9 22.1 -11.3 22.25 -20.35 18.25 -18.3 4.4 -18.45 2.5 -18.15 0.1 -19.1 -4.45 -20.2 -10.2 -20.35 -13.25 -20.2 -12.1 -19.7 -11.2" fill="#c5f83b" fill-rule="evenodd" stroke="none"/>
  </g>
</svg>
