<?xml version="1.0" encoding="UTF-8" standalone="no"?>
<svg xmlns:xlink="http://www.w3.org/1999/xlink" height="59.0px" width="45.5px" xmlns="http://www.w3.org/2000/svg">
  <g transform="matrix(1.0, 0.0, 0.0, 1.0, 22.75, 29.5)">
    <path d="M-22.4 9.0 L-20.5 5.95 Q-20.9 0.6 -19.25 -5.5 -19.3 -10.2 -18.8 -14.9 -17.45 -28.2 -10.1 -29.5 -7.55 -24.15 2.5 -23.9 7.75 -24.75 5.1 -28.9 12.4 -26.3 14.8 -19.6 16.85 -9.2 19.7 2.15 21.55 4.25 21.05 6.25 L22.45 9.65 Q23.5 20.9 20.95 28.6 L2.55 29.5 -19.75 28.6 Q-23.0 23.25 -22.7 9.65 L-22.4 9.0 M1.9 -8.0 Q-1.3 -8.4 -3.65 -6.95 -2.95 -4.75 0.0 -1.9 0.05 0.7 0.85 3.55 3.55 3.1 6.05 1.4 8.9 2.95 12.35 2.95 12.3 0.35 11.05 -2.05 13.0 -3.9 13.85 -6.25 12.2 -7.1 9.3 -7.5 8.05 -11.1 6.3 -12.8 3.95 -11.15 1.9 -8.0" fill="#b34657" fill-rule="evenodd" stroke="none"/>
  </g>
</svg>
