<?xml version="1.0" encoding="UTF-8" standalone="no"?>
<svg xmlns:xlink="http://www.w3.org/1999/xlink" height="29.2px" width="35.2px" xmlns="http://www.w3.org/2000/svg">
  <g transform="matrix(1.0, 0.0, 0.0, 1.0, 17.6, 14.6)">
    <path d="M-10.95 -13.65 L-9.2 -14.6 Q-5.05 -11.8 2.0 -11.8 6.15 -12.6 6.4 -13.9 L8.35 -12.6 Q12.1 -9.8 13.6 -7.05 15.05 -4.3 15.65 -1.9 L14.45 -1.6 Q13.6 -5.35 10.6 -5.65 8.2 -5.75 6.25 -2.8 L5.2 -1.65 3.85 -2.25 Q1.3 -5.75 -2.8 -5.4 -7.8 -4.45 -7.4 0.45 -13.55 2.5 -17.6 -1.3 L-17.45 -4.5 -16.85 -7.3 Q-15.35 -11.05 -10.95 -13.65 M-6.75 7.35 Q-6.85 8.45 -7.7 9.25 -8.5 10.05 -9.5 10.05 -10.55 10.05 -11.2 9.25 -11.8 8.45 -11.65 7.35 -11.55 6.25 -10.8 5.4 -9.95 4.6 -8.9 4.6 -7.9 4.6 -7.25 5.4 -6.6 6.25 -6.75 7.35 M16.2 12.65 Q16.3 13.5 15.9 14.05 15.55 14.6 14.95 14.6 14.35 14.6 13.85 14.05 13.4 13.5 13.25 12.65 13.2 11.85 13.55 11.3 13.85 10.7 14.5 10.7 15.1 10.7 15.55 11.3 16.1 11.85 16.2 12.65 M16.55 4.0 L17.6 8.65 16.7 8.85 Q15.8 8.85 15.15 8.15 14.55 7.4 14.55 6.4 14.55 5.4 15.15 4.7 15.75 4.1 16.55 4.0" fill="#7a5d54" fill-rule="evenodd" stroke="none"/>
  </g>
</svg>
