<?xml version="1.0" encoding="UTF-8" standalone="no"?>
<svg xmlns:xlink="http://www.w3.org/1999/xlink" height="52.45px" width="43.05px" xmlns="http://www.w3.org/2000/svg">
  <g transform="matrix(1.0, 0.0, 0.0, 1.0, 21.5, 26.2)">
    <path d="M-18.75 -12.1 Q-15.85 -17.0 -10.5 -20.05 -5.4 -16.2 1.8 -16.2 4.95 -16.65 6.7 -19.45 7.55 -18.75 11.95 -16.55" fill="none" stroke="#000000" stroke-linecap="round" stroke-linejoin="round" stroke-width="1.5"/>
    <path d="M11.95 -16.55 L11.8 -16.95 Q9.85 -20.7 6.95 -22.85 5.7 -23.8 4.3 -24.4 3.75 -20.85 -1.7 -21.25 -7.1 -21.65 -10.1 -25.2 -12.25 -24.4 -13.0 -23.85 -18.75 -19.75 -18.75 -12.1 -18.8 -8.6 -17.6 -4.35 -15.5 3.45 -16.65 8.8 L-20.5 20.2 Q-15.35 25.1 3.05 25.25 16.85 23.75 20.55 20.0 17.55 12.15 15.15 1.7 14.4 -8.1 11.95 -16.55" fill="none" stroke="#000000" stroke-linecap="round" stroke-linejoin="round" stroke-width="2.0"/>
  </g>
</svg>
