<?xml version="1.0" encoding="UTF-8" standalone="no"?>
<svg xmlns:xlink="http://www.w3.org/1999/xlink" height="44.3px" width="30.2px" xmlns="http://www.w3.org/2000/svg">
  <g transform="matrix(1.0, 0.0, 0.0, 1.0, 15.1, 22.35)">
    <path d="M-14.2 13.0 Q-9.05 10.4 2.5 10.5 8.25 10.95 11.05 12.85 13.9 18.05 10.45 21.95 L9.65 19.75 9.0 18.45 8.95 18.15 Q7.05 16.6 3.05 16.5 -1.4 16.3 -3.25 17.35 -5.1 18.4 -6.4 19.75 L-8.1 21.85 Q-14.25 20.35 -15.1 17.2 -15.05 14.95 -14.2 13.0 M13.35 3.7 Q11.0 4.7 2.1 4.65 -6.85 4.55 -14.05 2.8 L-13.9 0.5 -13.45 -6.0 Q-7.4 -3.15 1.75 -2.95 10.8 -2.8 14.3 -4.65 L13.65 -0.4 13.35 3.7 M15.05 -12.6 Q13.1 -10.25 2.75 -10.45 -7.7 -10.7 -13.3 -14.25 -13.2 -20.95 -9.85 -22.35 -5.95 -19.45 2.9 -18.95 11.8 -18.5 13.65 -20.1 L14.05 -20.2 Q15.3 -18.6 15.05 -12.6" fill="#fad5f9" fill-rule="evenodd" stroke="none"/>
  </g>
</svg>
