<?xml version="1.0" encoding="UTF-8" standalone="no"?>
<svg xmlns:xlink="http://www.w3.org/1999/xlink" height="44.5px" width="30.25px" xmlns="http://www.w3.org/2000/svg">
  <g transform="matrix(1.0, 0.0, 0.0, 1.0, 15.15, 22.25)">
    <path d="M-1.25 -19.15 Q6.2 -21.3 10.9 -17.1 L11.75 -16.2 Q13.35 -14.35 14.05 -11.6 14.2 -9.2 13.5 -5.8 14.45 -3.6 13.05 -1.95 L12.4 2.85 Q13.45 5.65 11.8 7.0 L11.65 6.85 10.35 11.9 Q11.4 14.2 11.65 16.15 L11.5 19.15 Q2.0 24.2 -8.35 17.15 L-9.55 13.7 -11.2 7.8 -11.65 5.15 -11.7 5.0 -12.15 2.4 -13.5 -5.65 Q-14.1 -9.7 -14.15 -12.6 -14.25 -15.25 -13.9 -16.9 -13.1 -20.35 -7.95 -21.1 L-7.75 -21.1 -7.4 -21.15 Q-3.0 -21.75 -1.25 -19.15 0.45 -16.6 0.1 -8.45 5.8 -9.45 10.95 -7.15 11.9 -11.6 11.75 -16.2 M0.1 -8.45 L-0.6 -8.35 -2.95 -7.5 -2.95 -4.45 -0.75 -4.9 0.2 -5.0 Q5.6 -5.65 10.55 -3.35 L13.05 -1.95 M10.95 -7.15 L13.5 -5.8 M0.2 5.5 Q-0.55 5.65 -0.55 5.25 L-0.5 4.95 -0.6 4.95 -2.85 5.9 -2.7 1.8 Q-1.25 1.05 0.2 0.65 4.45 -0.05 9.85 1.5 10.65 -0.95 10.55 -3.35 M0.2 5.5 Q0.2 9.6 0.8 13.65 2.85 13.25 3.85 11.05 L6.15 6.7 M6.2 6.8 L10.0 10.95 Q9.1 8.35 9.35 5.25 5.75 3.35 -0.5 4.95 M10.0 10.95 L10.35 11.9 M0.2 -5.0 L0.2 0.65 M11.65 6.85 Q10.95 6.1 9.35 5.25 M9.85 1.5 Q11.3 1.85 12.4 2.85 M0.8 13.65 Q-3.8 14.85 -11.65 5.15" fill="none" stroke="#000000" stroke-linecap="round" stroke-linejoin="round" stroke-width="2.0"/>
    <path d="M-7.9 -16.05 L-6.6 -14.75 Q-3.95 -17.25 -3.95 -18.65 L-4.2 -19.45 -5.2 -20.05 -6.6 -19.3 Q-7.4 -20.1 -7.95 -20.05 -8.55 -20.1 -9.0 -19.45 L-9.25 -18.65 -9.25 -18.5 -9.05 -18.5 Q-8.55 -18.55 -8.05 -17.75 L-7.8 -16.8 -7.9 -16.05 Q-8.35 -14.5 -10.45 -12.1 -13.15 -15.1 -13.1 -16.8 L-12.85 -17.75 Q-12.4 -18.55 -11.8 -18.5 -11.25 -18.55 -10.45 -17.55 -9.8 -18.4 -9.25 -18.5 M-0.6 -8.35 Q-4.55 -10.85 -5.4 -8.7 -6.3 -6.55 -5.7 -3.85 -5.1 -1.15 -3.05 -1.5 -0.65 -1.45 -0.75 -4.9 M0.2 0.65 Q-0.2 -0.8 -2.85 -1.0 -5.5 -1.25 -5.55 3.45 -5.6 8.15 -3.15 8.25 -0.8 8.3 0.2 5.5 M6.15 6.7 L6.2 6.8 6.75 10.95 9.35 10.95 10.0 10.95 M3.85 11.05 L6.75 10.95 7.4 15.35 9.35 10.95 M7.4 15.35 L3.85 11.05 M11.65 16.15 Q2.9 22.05 -9.55 13.7" fill="none" stroke="#000000" stroke-linecap="round" stroke-linejoin="round" stroke-width="1.0"/>
  </g>
</svg>
