<?xml version="1.0" encoding="UTF-8" standalone="no"?>
<svg xmlns:xlink="http://www.w3.org/1999/xlink" height="39.5px" width="22.5px" xmlns="http://www.w3.org/2000/svg">
  <g transform="matrix(1.0, 0.0, 0.0, 1.0, 11.25, 19.75)">
    <path d="M11.25 -8.1 Q9.95 5.05 10.1 12.75 L7.15 12.15 7.05 9.4 7.05 6.45 7.05 5.7 7.0 5.7 7.0 2.4 7.1 2.4 7.1 1.7 7.0 1.65 7.1 -1.45 7.15 -1.45 7.15 -2.45 7.25 -6.0 7.35 -8.2 8.65 -8.2 Q8.9 -13.25 8.2 -18.3 L9.3 -18.75 Q10.95 -13.35 10.6 -8.1 L11.25 -8.1 M-5.3 19.75 L-6.15 19.3 -9.45 18.35 Q-12.95 5.5 -9.7 -10.5 L-9.65 -9.3 -6.3 -8.65 Q-6.35 -14.25 -3.7 -19.75 L-2.6 -19.45 Q-4.5 -13.9 -4.45 -8.4 L-2.9 -8.45 -2.9 -6.4 -2.8 -2.3 -2.7 -1.0 -2.35 2.4 -2.15 3.65 -1.95 6.2 -1.8 7.45 -1.0 11.35 -0.55 13.35 Q-5.4 15.1 -5.3 19.75" fill="#554c3a" fill-rule="evenodd" stroke="none"/>
  </g>
</svg>
