<?xml version="1.0" encoding="UTF-8" standalone="no"?>
<svg xmlns:xlink="http://www.w3.org/1999/xlink" height="23.6px" width="24.7px" xmlns="http://www.w3.org/2000/svg">
  <g transform="matrix(1.0, 0.0, 0.0, 1.0, 12.35, 11.8)">
    <path d="M7.7 -11.8 L7.55 -9.6 8.8 -10.55 Q9.4 -9.25 8.9 -7.95 L7.55 -7.25 6.5 -6.75 7.6 -6.3 8.25 -6.0 Q9.35 -4.8 8.9 -3.65 L7.9 -4.05 Q8.1 -2.75 8.45 -1.4 L8.95 -1.4 Q10.4 -1.5 9.45 0.45 L8.95 0.5 Q9.6 2.45 11.4 5.65 9.6 3.95 4.75 4.0 0.95 4.15 -1.4 5.4 L-2.9 0.65 -6.35 0.15 -4.1 -1.4 -3.6 -1.4 -4.15 -3.35 Q-6.1 -3.6 -7.05 -4.8 L-4.65 -5.35 -5.15 -9.75 -5.1 -11.45 -3.95 -11.35 7.7 -11.8 M12.35 8.9 L11.2 11.65 Q2.95 12.0 -5.1 11.55 L-5.15 11.55 Q-8.7 10.3 -11.9 7.25 L-12.35 3.6 Q-8.45 6.7 -4.75 8.85 L-4.75 8.9 Q3.65 9.6 12.35 8.9 M-11.85 -6.7 L-10.6 -9.65 -8.75 -7.05 -10.05 -4.3 -11.85 -6.7" fill="#fbfbfb" fill-rule="evenodd" stroke="none"/>
  </g>
</svg>
