<?xml version="1.0" encoding="UTF-8" standalone="no"?>
<svg xmlns:xlink="http://www.w3.org/1999/xlink" height="24.7px" width="21.35px" xmlns="http://www.w3.org/2000/svg">
  <g transform="matrix(1.0, 0.0, 0.0, 1.0, 0.0, 0.0)">
    <path d="M11.8 0.0 L17.05 0.35 Q17.3 1.65 16.85 2.9 10.75 3.25 11.8 0.0 M15.15 7.7 Q17.4 6.95 19.45 9.3 21.5 11.6 20.3 13.45 18.35 15.5 15.05 9.25 9.2 15.65 7.05 13.25 4.95 10.8 8.8 8.25 12.7 5.7 15.05 7.55 L15.1 7.65 15.15 7.7 M13.9 12.85 L16.2 13.15 Q17.15 13.45 17.2 13.9 17.1 14.3 16.15 14.65 L13.7 14.85 11.35 14.5 Q10.45 14.1 10.55 13.75 10.6 13.35 11.5 13.05 L13.9 12.85 M11.85 17.35 L14.2 17.15 16.5 17.45 Q17.45 17.75 17.55 18.2 17.45 18.55 16.4 18.9 L14.05 19.15 11.65 18.8 Q10.7 18.4 10.85 18.0 10.9 17.6 11.85 17.35 M0.0 15.75 Q7.2 22.45 13.35 21.5 17.75 21.0 21.35 22.1 18.95 25.55 11.45 24.45 2.2 23.45 0.0 15.75" fill="#f6fefb" fill-rule="evenodd" stroke="none"/>
  </g>
</svg>
