<?xml version="1.0" encoding="UTF-8" standalone="no"?>
<svg xmlns:xlink="http://www.w3.org/1999/xlink" height="23.35px" width="25.45px" xmlns="http://www.w3.org/2000/svg">
  <g transform="matrix(1.0, 0.0, 0.0, 1.0, 1.0, 1.0)">
    <path d="M6.55 19.25 Q13.55 21.3 17.65 21.35 23.35 21.3 23.45 17.25 23.4 15.7 22.65 13.65 L21.05 1.25 13.8 0.4 11.15 0.15 Q7.6 -0.05 4.1 0.05 L1.95 0.1 0.15 0.25 Q-0.25 5.45 0.4 9.35 0.6 10.85 0.95 12.15 1.8 14.75 3.25 16.55 4.65 18.25 6.55 19.25" fill="none" stroke="#000000" stroke-linecap="round" stroke-linejoin="round" stroke-width="2.0"/>
    <path d="M22.65 13.65 Q19.6 12.55 17.1 12.3 15.35 12.0 13.8 12.25 10.35 12.6 8.4 15.05 7.15 16.65 6.55 19.25 Z" fill="none" stroke="#000000" stroke-linecap="round" stroke-linejoin="round" stroke-width="1.0"/>
  </g>
</svg>
