<?xml version="1.0" encoding="UTF-8" standalone="no"?>
<svg xmlns:xlink="http://www.w3.org/1999/xlink" height="16.85px" width="26.85px" xmlns="http://www.w3.org/2000/svg">
  <g transform="matrix(1.0, 0.0, 0.0, 1.0, 0.0, 0.0)">
    <path d="M6.3 6.6 Q7.4 7.45 7.35 10.1 10.85 11.9 18.0 12.05 25.0 12.1 26.55 9.95 L26.85 12.0 Q26.6 16.35 19.85 16.8 7.65 17.5 3.05 9.95 2.5 5.9 0.0 2.2 0.8 3.3 3.5 3.65 L6.3 6.6 Q7.0 5.1 8.15 4.2 L7.2 3.65 6.5 1.9 Q9.3 -0.4 15.3 0.05 21.3 0.3 22.9 2.45 L23.25 3.1 23.75 4.0 24.8 5.7 25.4 6.9 26.0 8.25 Q23.9 7.1 6.3 6.6" fill="#fefffa" fill-rule="evenodd" stroke="none"/>
  </g>
</svg>
