<?xml version="1.0" encoding="UTF-8" standalone="no"?>
<svg xmlns:xlink="http://www.w3.org/1999/xlink" height="32.25px" width="25.3px" xmlns="http://www.w3.org/2000/svg">
  <g transform="matrix(1.0, 0.0, 0.0, 1.0, 12.65, 16.15)">
    <path d="M-11.3 -7.85 L-6.1 -5.0 0.75 -7.0 1.55 -9.95 -11.8 -10.9 Q-12.1 -13.25 -11.55 -15.25 -5.8 -13.45 2.3 -12.95 6.55 -13.9 9.25 -15.4 9.9 -12.7 9.6 -11.6 7.55 -10.7 4.15 -10.1 L5.95 -7.2 11.9 -7.2 8.65 -2.65 11.1 4.6 4.75 2.35 -0.25 6.25 -0.25 -0.95 -6.1 -5.0 -11.4 -4.35 M1.55 -9.95 L2.3 -12.95 4.15 -10.1 M-4.95 14.55 Q4.8 16.45 11.1 13.75 11.45 9.65 11.0 5.3 7.75 7.3 -0.45 6.7 -8.35 5.85 -10.95 -3.45 -11.6 2.85 -11.45 7.85 L-11.1 12.9 -4.95 14.55" fill="none" stroke="#000000" stroke-linecap="round" stroke-linejoin="round" stroke-width="1.5"/>
    <path d="M3.05 -7.85 L4.7 -4.9 7.75 -5.05 6.2 -3.0 7.95 1.3 4.55 -0.35 1.8 1.9 1.8 -2.0 -0.65 -4.1 2.6 -4.55 3.05 -7.85 M-11.45 7.85 L-9.6 3.2 -7.55 8.0 -3.2 7.7 -6.25 11.7 -4.95 14.55" fill="none" stroke="#000000" stroke-linecap="round" stroke-linejoin="round" stroke-opacity="0.627451" stroke-width="1.0"/>
  </g>
</svg>
