<?xml version="1.0" encoding="UTF-8" standalone="no"?>
<svg xmlns:xlink="http://www.w3.org/1999/xlink" height="37.55px" width="28.05px" xmlns="http://www.w3.org/2000/svg">
  <g transform="matrix(1.0, 0.0, 0.0, 1.0, 14.0, 18.8)">
    <path d="M6.25 -14.45 L3.9 -18.25 6.65 -16.7 9.2 -12.3 6.25 -14.45 M-3.95 -12.6 L5.45 -13.1 5.0 -11.05 -2.5 -10.5 -3.95 -12.6 M14.05 -1.35 L14.05 11.4 12.65 9.35 12.65 -0.45 14.05 -1.35 M11.45 -4.8 L11.7 14.05 0.4 14.95 0.1 14.95 -5.95 14.9 -8.2 -3.35 -4.3 -9.2 6.65 -10.0 11.45 -4.8 M-6.85 18.05 L-6.3 15.7 -1.3 16.05 Q5.55 16.3 11.9 14.95 L12.7 17.3 12.55 17.35 Q7.4 18.8 -0.25 18.75 L-6.7 18.1 -6.85 18.05 M-7.85 -13.85 L-9.75 -11.65 -14.0 -17.1 -12.1 -18.8 -7.85 -13.85 M-9.55 13.0 L-11.7 -0.2 -9.55 0.55 -8.0 10.65 -9.55 13.0" fill="#04fb06" fill-rule="evenodd" stroke="none"/>
  </g>
</svg>
