<?xml version="1.0" encoding="UTF-8" standalone="no"?>
<svg xmlns:xlink="http://www.w3.org/1999/xlink" height="46.9px" width="41.1px" xmlns="http://www.w3.org/2000/svg">
  <g transform="matrix(1.0, 0.0, 0.0, 1.0, 0.0, 23.45)">
    <path d="M33.65 -18.6 L35.65 -16.0 Q39.55 -10.95 37.8 -6.75 L36.85 -4.55 37.1 -1.85 38.8 5.45 Q40.35 11.4 41.1 20.9 38.25 23.3 30.55 23.4 5.7 23.85 0.0 20.45 2.55 15.4 4.15 9.3 5.7 3.2 3.95 -5.0 L3.25 -7.4 Q2.35 -10.0 2.4 -14.5 L2.4 -14.55 2.45 -14.55 Q2.6 -19.6 4.55 -21.8 6.5 -24.0 7.05 -23.3 L10.55 -19.3 Q13.5 -16.0 18.65 -14.35 L20.55 -13.8 26.85 -13.35 27.0 -13.4 28.35 -13.85 30.2 -14.9 30.8 -15.3 31.6 -15.85 32.6 -16.75 Q33.15 -17.45 33.3 -18.15 L33.65 -18.6" fill="#ff5177" fill-rule="evenodd" stroke="none"/>
  </g>
</svg>
