<?xml version="1.0" encoding="UTF-8" standalone="no"?>
<svg xmlns:xlink="http://www.w3.org/1999/xlink" height="25.2px" width="23.25px" xmlns="http://www.w3.org/2000/svg">
  <g transform="matrix(1.0, 0.0, 0.0, 1.0, 11.6, 12.6)">
    <path d="M0.0 -12.6 L0.1 -12.55 Q3.7 -9.6 11.65 -9.35 L9.9 -3.75 9.9 -3.6 10.0 -1.8 9.95 -0.05 9.3 2.8 8.5 4.65 8.6 5.1 8.7 6.0 Q8.75 7.45 7.2 8.85 5.7 10.25 2.8 9.1 L2.55 9.2 Q1.35 9.9 -0.2 9.75 -1.75 9.55 -2.55 8.2 L-2.6 8.15 -2.3 7.65 Q-4.3 10.5 -5.55 11.55 -7.0 12.75 -8.8 12.6 -10.65 12.4 -9.65 10.0 L-7.3 4.5 -5.8 0.8 Q-5.45 -0.1 -7.25 -0.4 -9.05 -0.75 -10.7 -2.25 -12.35 -3.8 -10.9 -6.15 L-7.5 -5.95 -4.05 -5.2 Q-3.2 -5.15 -1.9 -6.55 L-1.9 -6.5 0.0 -12.6 M-1.2 5.55 L-0.65 3.75 -0.4 2.5 -0.55 2.5 -0.9 4.4 -1.2 5.55" fill="#434343" fill-rule="evenodd" stroke="none"/>
  </g>
</svg>
