<?xml version="1.0" encoding="UTF-8" standalone="no"?>
<svg xmlns:xlink="http://www.w3.org/1999/xlink" height="23.55px" width="21.4px" xmlns="http://www.w3.org/2000/svg">
  <g transform="matrix(1.0, 0.0, 0.0, 1.0, 10.7, 11.8)">
    <path d="M-5.3 -0.85 Q-3.15 -5.25 -1.4 -11.8 4.15 -8.5 10.7 -9.0 L6.5 1.9 6.5 2.05 6.6 3.85 6.55 5.6 5.9 8.45 5.1 10.3 5.05 10.2 Q4.65 9.3 3.75 8.9 2.25 8.25 0.6 8.4 -1.25 6.9 -3.6 7.5 L-3.7 7.5 -3.8 8.15 -3.95 8.15 -4.3 10.05 -4.6 11.2 -4.85 11.75 Q-7.8 9.9 -10.7 10.2 L-10.7 10.15 -9.2 6.45 Q-8.9 5.65 -10.35 5.3 -8.25 2.95 -8.75 0.25 L-7.45 0.45 Q-6.6 0.5 -5.3 -0.9 L-5.3 -0.85" fill="#434343" fill-rule="evenodd" stroke="none"/>
  </g>
</svg>
