<?xml version="1.0" encoding="UTF-8" standalone="no"?>
<svg xmlns:xlink="http://www.w3.org/1999/xlink" height="43.65px" width="66.4px" xmlns="http://www.w3.org/2000/svg">
  <g transform="matrix(1.0, 0.0, 0.0, 1.0, 33.2, 21.85)">
    <path d="M0.0 -21.4 Q9.35 -20.95 15.35 -16.8 17.3 -22.8 24.55 -21.65 31.8 -20.55 31.85 -9.5 31.95 1.5 33.2 6.8 29.1 5.4 26.55 1.2 L25.85 -0.1 25.85 -0.05 Q28.6 12.2 21.1 19.35 L19.15 20.45 Q14.35 22.55 10.9 19.45 18.05 14.0 16.0 1.45 4.2 -1.45 0.0 -9.45 -4.2 -1.45 -16.0 1.45 -18.05 14.0 -10.9 19.45 -13.9 23.9 -20.1 19.9 -26.3 15.85 -26.9 4.85 L-26.55 1.2 Q-29.1 5.4 -33.2 6.8 -31.95 1.5 -31.85 -9.5 -31.8 -20.55 -24.55 -21.65 -17.3 -22.8 -15.35 -16.8 -9.35 -20.95 0.0 -21.4" fill="url(#gradient0)" fill-rule="evenodd" stroke="none"/>
  </g>
  <defs>
    <linearGradient gradientTransform="matrix(0.0, -0.0121, 0.0405, 0.0, 0.0, 4.3)" gradientUnits="userSpaceOnUse" id="gradient0" spreadMethod="pad" x1="-819.2" x2="819.2">
      <stop offset="0.18823529411764706" stop-color="#000000" stop-opacity="0.8"/>
      <stop offset="1.0" stop-color="#000000" stop-opacity="0.0"/>
    </linearGradient>
  </defs>
</svg>
