<?xml version="1.0" encoding="UTF-8" standalone="no"?>
<svg xmlns:xlink="http://www.w3.org/1999/xlink" height="38.5px" width="54.65px" xmlns="http://www.w3.org/2000/svg">
  <g transform="matrix(1.0, 0.0, 0.0, 1.0, 27.3, 19.25)">
    <path d="M-16.4 0.6 Q-17.55 1.9 -17.9 8.55 L-19.95 9.95 Q-21.55 12.2 -21.1 18.5 -25.05 16.55 -26.15 14.3 -27.85 4.95 -22.3 -3.85 L-21.35 -5.2 -21.35 -5.25 Q-18.15 -11.35 -10.85 -17.85 L-9.8 -13.6 Q-7.1 -16.55 -0.85 -16.85 5.35 -17.15 10.2 -18.5 8.75 -15.65 6.2 -14.2 10.75 -14.3 15.65 -11.8 20.25 -9.85 24.75 -9.6 22.05 -7.05 19.25 -6.7 23.75 -2.65 25.05 3.15 26.35 8.95 26.6 12.15 L21.8 7.75 Q22.25 11.5 21.75 14.3 20.7 16.55 16.7 18.5 17.15 12.2 15.55 9.95 L13.55 8.55 Q13.15 2.15 12.1 0.7 L12.0 0.55 Q5.6 -2.1 -2.2 -2.1 -10.0 -2.1 -16.4 0.55 L-16.4 0.6 Q-18.55 -0.7 -19.25 -1.75 M19.25 -6.7 L16.85 -6.9 M6.2 -14.2 L4.8 -13.55 M12.1 0.7 Q17.1 3.25 21.8 7.75" fill="none" stroke="#000000" stroke-linecap="round" stroke-linejoin="round" stroke-width="1.5"/>
  </g>
</svg>
