<?xml version="1.0" encoding="UTF-8" standalone="no"?>
<svg xmlns:xlink="http://www.w3.org/1999/xlink" height="61.75px" width="61.5px" xmlns="http://www.w3.org/2000/svg">
  <g transform="matrix(1.0, 0.0, 0.0, 1.0, 40.7, 30.85)">
    <path d="M-24.8 -28.1 L11.75 -28.1 Q18.0 -28.1 18.0 -21.85 L18.0 21.9 Q18.0 28.1 11.75 28.1 L-24.8 28.1 -24.8 -28.1" fill="url(#gradient0)" fill-rule="evenodd" stroke="none"/>
    <path d="M-24.8 28.1 L-31.7 28.1 Q-38.0 28.1 -38.0 21.9 L-38.0 -21.85 Q-38.0 -28.1 -31.7 -28.1 L-24.8 -28.1 -24.8 28.1" fill="url(#gradient1)" fill-rule="evenodd" stroke="none"/>
    <path d="M20.8 -21.85 L20.8 21.9 Q20.8 30.9 11.75 30.9 L-31.7 30.9 Q-40.7 30.9 -40.7 21.9 L-40.7 -21.85 Q-40.7 -30.85 -31.7 -30.85 L11.75 -30.85 Q20.8 -30.85 20.8 -21.85 M-24.8 28.1 L11.75 28.1 Q18.0 28.1 18.0 21.9 L18.0 -21.85 Q18.0 -28.1 11.75 -28.1 L-24.8 -28.1 -31.7 -28.1 Q-38.0 -28.1 -38.0 -21.85 L-38.0 21.9 Q-38.0 28.1 -31.7 28.1 L-24.8 28.1" fill="#8285ad" fill-opacity="0.61960787" fill-rule="evenodd" stroke="none"/>
    <path d="M20.8 -21.85 L20.8 21.9 Q20.8 30.9 11.75 30.9 L-31.7 30.9 Q-40.7 30.9 -40.7 21.9 L-40.7 -21.85 Q-40.7 -30.85 -31.7 -30.85 L11.75 -30.85 Q20.8 -30.85 20.8 -21.85 Z" fill="none" stroke="#12133f" stroke-linecap="round" stroke-linejoin="round" stroke-opacity="0.50980395" stroke-width="0.05"/>
  </g>
  <defs>
    <linearGradient gradientTransform="matrix(0.0, -0.0299, 0.0465, 0.0, -20.1, 0.9)" gradientUnits="userSpaceOnUse" id="gradient0" spreadMethod="pad" x1="-819.2" x2="819.2">
      <stop offset="0.0" stop-color="#29272c" stop-opacity="0.627451"/>
      <stop offset="1.0" stop-color="#1c1d20" stop-opacity="0.627451"/>
    </linearGradient>
    <linearGradient gradientTransform="matrix(0.0, -0.0299, 0.0465, 0.0, 0.05, 0.9)" gradientUnits="userSpaceOnUse" id="gradient1" spreadMethod="pad" x1="-819.2" x2="819.2">
      <stop offset="0.0" stop-color="#29272c" stop-opacity="0.627451"/>
      <stop offset="1.0" stop-color="#1c1d20" stop-opacity="0.627451"/>
    </linearGradient>
  </defs>
</svg>
