<?xml version="1.0" encoding="UTF-8" standalone="no"?>
<svg xmlns:xlink="http://www.w3.org/1999/xlink" height="22.3px" width="20.6px" xmlns="http://www.w3.org/2000/svg">
  <g transform="matrix(1.0, 0.0, 0.0, 1.0, 10.3, 11.15)">
    <path d="M-2.65 -6.55 L-1.25 -11.15 Q3.65 -8.55 10.3 -8.35 L8.6 -4.55 8.6 -4.6 Q1.85 -4.5 -2.65 -6.55 M-4.7 -0.85 L-4.05 -2.75 Q-1.0 -1.0 6.85 -0.4 L5.7 2.25 5.65 3.05 Q0.65 3.75 -6.2 0.85 L-5.35 -0.15 -4.75 -0.9 -4.7 -0.85 M5.25 7.3 Q5.25 8.9 4.35 10.9 L4.25 11.15 Q-0.35 9.6 -3.45 10.6 L-3.2 9.7 Q-7.65 9.8 -10.3 8.2 -10.3 6.1 -9.5 4.95 L-8.45 3.55 Q-3.9 7.15 5.25 7.3" fill="#434343" fill-rule="evenodd" stroke="none"/>
  </g>
</svg>
