<?xml version="1.0" encoding="UTF-8" standalone="no"?>
<svg xmlns:xlink="http://www.w3.org/1999/xlink" height="39.15px" width="23.9px" xmlns="http://www.w3.org/2000/svg">
  <g transform="matrix(1.0, 0.0, 0.0, 1.0, 11.95, 19.55)">
    <path d="M11.0 -12.95 Q5.25 -14.4 4.2 -17.55 M-2.75 -10.35 Q2.05 -7.8 8.75 -6.6 M3.8 9.0 L3.4 8.85 Q-4.65 7.45 -8.55 4.2 M6.5 0.45 Q-1.4 0.05 -5.75 -3.45" fill="none" stroke="#000000" stroke-linecap="round" stroke-linejoin="round" stroke-width="1.0"/>
    <path d="M4.2 -17.55 Q2.55 -16.9 1.25 -16.05 -1.2 -13.9 -2.35 -11.3 L-2.75 -10.35 -5.75 -3.45 -8.55 4.2 Q-10.05 8.55 -10.95 12.1 -10.05 16.1 -6.65 17.9 -1.75 20.5 1.65 13.7 L3.4 8.85 5.85 2.25 6.5 0.45 8.75 -6.6 9.2 -8.4 M10.95 -17.15 Q9.6 -18.55 7.35 -18.55 L4.2 -17.55" fill="none" stroke="#000000" stroke-linecap="round" stroke-linejoin="round" stroke-width="2.0"/>
  </g>
</svg>
