<?xml version="1.0" encoding="UTF-8" standalone="no"?>
<svg xmlns:xlink="http://www.w3.org/1999/xlink" height="63.2px" width="82.1px" xmlns="http://www.w3.org/2000/svg">
  <g transform="matrix(1.0, 0.0, 0.0, 1.0, 41.05, 31.6)">
    <path d="M9.2 -6.5 L8.7 -7.3 1.0 -2.3 2.4 -0.45 Q4.25 2.05 5.2 4.1 L18.5 -4.55 Q18.55 -5.45 17.1 -7.95 L16.05 -9.35 15.05 -10.45 14.6 -11.15 4.35 -26.9 3.95 -26.8 2.25 -26.0 1.95 -25.85 1.3 -25.5 -1.7 -23.25 8.7 -7.3 M-1.7 -23.25 Q-4.35 -24.3 -4.1 -26.85 -2.7 -29.1 -0.85 -30.0 L0.25 -30.45 1.85 -30.85 Q4.25 -29.7 4.35 -26.9 M14.6 -11.15 L20.5 -15.0 19.6 -15.25 30.65 -22.5 31.5 -22.15 35.65 -24.9 Q37.05 -25.55 39.05 -22.7 41.0 -19.45 39.85 -18.5 L35.65 -15.75 35.55 -15.0 35.35 -14.7 24.6 -7.7 24.65 -7.95 24.65 -8.55 18.5 -4.55 M31.5 -22.15 L33.1 -20.45 33.9 -19.35 35.05 -17.35 35.65 -15.8 35.65 -15.75 M24.65 -8.55 L24.25 -9.75 22.9 -12.15 22.1 -13.3 20.5 -15.0 M-9.1 13.4 L-13.3 7.0 -26.9 15.85 -25.8 17.9 Q-24.2 20.65 -22.7 22.25 L-9.1 13.4 5.2 4.1 M-22.7 22.25 L-35.6 30.65 Q-37.25 31.5 -39.15 28.6 -41.1 25.55 -39.8 24.25 L-26.9 15.85 M-13.3 7.0 L1.0 -2.3" fill="none" stroke="#000000" stroke-linecap="round" stroke-linejoin="round" stroke-width="1.5"/>
  </g>
</svg>
