<?xml version="1.0" encoding="UTF-8" standalone="no"?>
<svg xmlns:xlink="http://www.w3.org/1999/xlink" height="89.15px" width="76.9px" xmlns="http://www.w3.org/2000/svg">
  <g transform="matrix(1.0, 0.0, 0.0, 1.0, 38.45, 44.6)">
    <path d="M19.0 20.35 Q24.25 16.6 27.85 10.6 34.8 -0.9 31.55 -13.95 30.25 -19.35 27.5 -23.75 L25.35 -26.8 25.15 -27.05 Q22.45 -30.25 18.85 -32.8 L18.6 -32.95 16.85 -34.05 Q10.9 -37.6 4.5 -38.45 9.65 -37.3 14.5 -34.35 26.5 -27.15 29.85 -13.55 33.2 0.0 26.0 12.0 23.05 16.9 19.0 20.35 14.1 23.85 7.8 25.4 -5.25 28.6 -16.8 21.65 -23.5 17.65 -27.4 11.45 L-27.7 10.9 -28.05 10.05 -27.5 12.4 -27.4 12.4 -26.9 12.25 -26.4 14.2 -24.95 20.1 -24.85 20.55 -24.35 22.55 Q-22.05 24.4 -19.4 26.0 -6.1 34.05 9.05 30.35 24.2 26.6 32.25 13.25 40.25 -0.05 36.5 -15.2 32.75 -30.35 19.5 -38.4 6.15 -46.4 -9.0 -42.65 -24.15 -38.95 -32.15 -25.65 -40.25 -12.3 -36.5 2.85 -35.45 7.05 -33.65 10.7 L-28.35 9.4 -31.1 3.15 -31.55 1.6 Q-34.8 -11.5 -27.8 -23.0 -20.85 -34.5 -7.8 -37.7 -1.45 -39.25 4.5 -38.45 M24.55 -12.25 Q27.35 -0.9 21.3 9.1 15.25 19.1 3.85 21.9 -7.5 24.7 -17.5 18.7 -27.55 12.7 -30.35 1.35 -33.15 -10.05 -27.1 -20.05 -21.05 -30.15 -9.7 -32.95 1.7 -35.75 11.7 -29.65 21.75 -23.65 24.55 -12.25 M-28.35 9.4 L-28.25 9.35 -28.05 10.05 M-33.65 10.7 L-35.3 11.1 -34.55 14.15 -32.15 13.55 -32.05 13.55 -27.5 12.4 M-24.35 22.55 L-23.3 26.65 -23.25 27.0 -21.7 33.1 -21.6 33.5 -20.1 39.55 -19.6 41.7 -20.15 42.05 -20.75 42.35 -21.25 42.6 -24.6 43.65 -27.9 43.75 -28.45 41.55 -29.9 35.55 -30.05 35.1 -31.55 29.05 -31.65 28.65 -33.15 22.6 -33.25 22.15 -34.75 16.15 -35.2 14.3 -34.55 14.15 M-34.75 16.15 L-29.85 18.15 -26.4 14.2 M-24.85 20.55 L-28.2 24.55 -28.25 24.6 -28.2 24.65 -23.3 26.65 M-24.95 20.1 L-29.85 18.15 -33.25 22.15 M-31.65 28.65 L-28.25 24.6 -33.15 22.6 M-31.55 29.05 L-26.65 31.1 -23.25 27.0 M-21.7 33.1 L-26.65 31.1 -30.05 35.1 M-20.1 39.55 L-25.05 37.6 -28.45 41.55 M-29.9 35.55 L-25.05 37.6 -21.6 33.5" fill="none" stroke="#000000" stroke-linecap="round" stroke-linejoin="round" stroke-width="1.5"/>
  </g>
</svg>
