<?xml version="1.0" encoding="UTF-8" standalone="no"?>
<svg xmlns:xlink="http://www.w3.org/1999/xlink" height="104.45px" width="28.15px" xmlns="http://www.w3.org/2000/svg">
  <g transform="matrix(1.0, 0.0, 0.0, 1.0, 14.1, 52.25)">
    <path d="M14.05 26.25 Q14.05 27.8 12.1 28.55 L4.2 28.55 3.8 50.2 Q3.3 52.6 -0.15 52.15 -3.65 51.75 -4.0 48.4 L-4.2 28.55 -11.5 28.55 Q-14.0 28.15 -14.0 25.9 L-14.1 24.8 Q-14.1 22.4 -11.95 22.0 L12.45 22.0 Q13.8 22.5 13.95 23.6 L14.05 26.25" fill="#485358" fill-rule="evenodd" stroke="none"/>
    <path d="M7.2 -28.7 L6.6 17.9 -6.2 17.9 -6.85 -52.25 Q6.95 -44.85 7.2 -28.7" fill="#e1eaea" fill-rule="evenodd" stroke="none"/>
  </g>
</svg>
