<?xml version="1.0" encoding="UTF-8" standalone="no"?>
<svg xmlns:xlink="http://www.w3.org/1999/xlink" height="120.4px" width="70.25px" xmlns="http://www.w3.org/2000/svg">
  <g transform="matrix(1.0, 0.0, 0.0, 1.0, 34.8, 61.5)">
    <path d="M-16.45 -50.65 Q-18.3 -52.0 -34.8 -49.4 -24.65 -53.85 -15.6 -53.95 -10.7 -53.95 -5.25 -57.6 3.1 -61.75 8.2 -61.5 9.8 -61.4 11.05 -60.8 L12.15 -59.4 Q17.8 -50.05 16.5 -4.3 27.15 12.75 35.4 45.75 36.6 53.1 17.2 51.2 8.3 50.45 -1.3 56.25 -11.95 62.25 -14.2 54.7 L-15.45 50.05 Q-8.05 52.55 3.25 46.55 26.0 34.5 19.25 19.15 9.05 -2.7 9.85 -10.5 11.9 -40.1 2.95 -53.45 -0.35 -51.6 -4.25 -50.1 -21.75 -43.95 -29.25 -46.2 -34.3 -48.3 -27.2 -48.7 -21.85 -49.35 -16.45 -50.65" fill="#000000" fill-opacity="0.24705882" fill-rule="evenodd" stroke="none"/>
  </g>
</svg>
