<?xml version="1.0" encoding="UTF-8" standalone="no"?>
<svg xmlns:xlink="http://www.w3.org/1999/xlink" height="76.35px" width="136.8px" xmlns="http://www.w3.org/2000/svg">
  <g transform="matrix(1.0, 0.0, 0.0, 1.0, 68.4, 38.2)">
    <path d="M36.3 2.6 Q30.2 0.35 25.95 -3.9 20.25 -9.5 17.75 -18.65 L17.75 -18.85 Q33.5 -24.6 44.05 -21.7 L44.15 -20.05 44.2 -19.65 44.2 -19.25 44.2 -18.6 Q44.2 -11.3 41.25 -4.9 39.55 -1.25 36.8 2.05 L36.5 2.4 36.3 2.6 M35.6 -14.4 Q33.15 -17.25 31.85 -19.55 31.6 -18.15 29.8 -13.6 28.8 -11.55 28.65 -8.9 28.55 -6.7 29.85 -6.7 L30.4 -6.7 Q31.65 -7.0 32.45 -7.75 L31.85 -5.95 Q31.3 -5.1 31.45 -4.7 L32.1 -4.65 34.4 -4.85 Q36.5 -5.35 37.05 -6.1 L36.35 -6.85 35.15 -7.95 Q37.05 -7.75 37.85 -8.35 38.25 -8.75 38.3 -9.5 L38.2 -10.4 Q37.7 -12.1 35.6 -14.4" fill="#cccccc" fill-rule="evenodd" stroke="none"/>
    <path d="M17.75 -18.85 Q9.7 -20.3 6.25 -19.05 9.05 -14.3 16.7 -11.45 11.3 -12.65 9.55 -11.45 12.6 -6.5 22.4 -4.85 L17.8 -4.5 Q15.5 -4.25 14.75 -3.7 L14.5 -3.45 17.15 -1.5 17.7 -1.15 18.55 -0.65 19.0 -0.5 19.15 -0.4 Q24.2 2.1 31.3 2.6 L36.3 2.6 Q38.5 1.75 40.3 0.7 L40.35 0.7 42.95 -0.9 43.35 -1.2 Q47.5 -4.15 49.4 -7.85 L44.95 -7.65 44.35 -7.4 45.0 -7.9 Q49.2 -11.4 51.1 -16.6 49.65 -17.35 47.0 -15.55 50.45 -20.25 50.5 -25.5 47.55 -25.45 44.05 -21.7 33.5 -24.6 17.75 -18.85 M-55.2 21.55 Q-54.75 21.15 -63.1 16.85 -71.45 12.45 -66.65 -2.45 -58.15 -13.85 -41.95 -17.15 -30.55 -19.55 -18.65 -25.2 L-16.3 -26.4 Q11.85 -39.85 42.4 -37.95 54.65 -35.0 57.55 -26.5 63.05 -16.45 55.6 0.45 54.6 2.5 55.35 4.2 56.6 7.55 55.65 9.35 42.05 16.1 1.35 19.25 L-22.55 20.75 Q-37.75 21.2 -45.6 21.05 L-46.5 20.35 Q-47.7 19.0 -49.5 19.0 L-50.65 19.2 -50.65 19.15 -50.75 19.2 -51.45 19.4 -52.15 19.9 -52.4 20.05 -52.45 20.1 -52.5 20.15 -52.6 20.25 -53.7 21.6 -53.7 21.65 -55.2 21.55 M-45.5 25.45 Q-32.2 26.7 -11.7 25.75 L23.65 22.85 Q45.3 20.55 52.75 16.55 L53.85 15.9 Q55.95 14.6 56.35 14.6 L56.4 14.6 Q73.3 22.4 66.35 29.45 L62.9 31.65 Q57.0 35.15 43.0 36.45 L21.7 37.25 5.9 35.85 Q-2.75 34.9 -16.85 31.95 L-45.75 25.95 -45.5 25.45" fill="#4ec460" fill-rule="evenodd" stroke="none"/>
    <path d="M17.15 -1.5 L17.75 -1.4 17.7 -1.15 17.15 -1.5" fill="#b8191d" fill-rule="evenodd" stroke="none"/>
    <path d="M53.85 15.9 Q55.9 14.45 56.4 12.95 57.3 14.2 58.85 15.4 L56.4 14.6 56.35 14.6 Q55.95 14.6 53.85 15.9" fill="#332f2f" fill-rule="evenodd" stroke="none"/>
    <path d="M-45.6 21.05 Q-45.25 22.8 -45.25 23.5 -45.25 24.6 -45.5 25.45 L-45.75 25.95 -46.05 26.45 -46.2 26.6 Q-46.65 27.0 -47.25 27.0 L-47.4 27.0 -47.65 27.0 -47.4 28.2 -47.4 28.3 -47.4 28.35 -47.3 28.75 Q-46.95 36.9 -47.9 38.15 L-47.95 38.15 Q-48.2 37.95 -48.4 37.9 -51.9 36.55 -53.7 34.4 -54.4 33.05 -53.75 26.35 L-53.85 26.35 -53.75 25.75 -53.5 24.0 Q-54.15 23.6 -54.15 23.0 L-54.15 22.5 -53.7 21.65 -53.7 21.6 -52.6 20.25 -52.5 20.15 -52.45 20.1 -52.4 20.05 -52.15 19.9 -51.45 19.4 -50.75 19.2 -50.65 19.2 -49.5 19.0 Q-47.7 19.0 -46.5 20.35 L-45.6 21.05" fill="#bdbdbd" fill-rule="evenodd" stroke="none"/>
    <path d="M-47.95 38.15 L-48.4 37.95 -48.4 37.9 Q-48.2 37.95 -47.95 38.15 M-50.75 19.2 L-50.65 19.15 -50.65 19.2 -50.75 19.2" fill="#8c8c8c" fill-rule="evenodd" stroke="none"/>
    <path d="M-54.15 23.0 Q-55.25 22.15 -55.2 21.55 L-53.7 21.65 -54.15 22.5 -54.15 23.0" fill="#122a10" fill-rule="evenodd" stroke="none"/>
  </g>
</svg>
