<?xml version="1.0" encoding="UTF-8" standalone="no"?>
<svg xmlns:xlink="http://www.w3.org/1999/xlink" height="107.35px" width="150.1px" xmlns="http://www.w3.org/2000/svg">
  <g transform="matrix(1.0, 0.0, 0.0, 1.0, 75.05, 53.7)">
    <path d="M37.85 -26.1 L37.7 -29.0 Q24.85 -35.3 3.45 -35.35 L3.85 -33.5 3.9 -32.3 Q4.25 -25.15 1.8 -11.1 15.15 -5.05 20.2 5.85 26.55 -1.65 35.75 -5.3 L36.05 -5.45 Q38.25 -13.6 37.85 -26.05 L37.85 -26.1 M-16.75 -40.35 Q13.8 -53.25 22.65 -52.65 31.45 -50.95 50.95 -27.75 53.3 -25.05 56.1 -22.65 59.7 -19.8 63.65 -17.2 65.65 -15.6 66.15 -13.5 66.6 -11.3 65.4 -8.45 61.05 1.15 53.1 11.5 L53.05 15.25 Q52.75 19.8 51.55 23.5 L49.75 27.35 73.5 44.35 Q76.2 50.05 65.9 51.8 L64.85 51.85 55.9 52.6 40.45 52.1 Q16.55 49.95 6.05 46.1 -4.55 42.15 -17.6 33.0 L-42.1 16.0 -42.15 16.0 -55.0 13.35 Q-64.6 11.45 -72.5 9.4 L-72.65 5.85 Q-72.65 2.55 -71.5 -1.4 L-70.5 -4.25 Q-75.95 -22.55 -73.0 -30.15 L-72.05 -31.95 -70.35 -33.35 Q-59.7 -40.55 -16.75 -40.35 L-30.95 -34.0 Q-33.05 -32.95 -35.3 -32.05 -40.55 -30.2 -47.3 -29.55 -69.4 -31.4 -70.35 -33.35 M-42.1 16.0 L-33.75 17.5 Q-13.95 21.2 14.75 25.1 35.15 27.8 45.2 27.55 L49.1 27.45 M-70.5 -4.25 L-48.5 0.3 Q-9.85 8.1 17.95 11.05 39.6 14.15 48.05 13.4 L48.1 13.4 Q50.95 13.25 52.25 12.65 L53.1 11.5" fill="none" stroke="#000000" stroke-linecap="round" stroke-linejoin="round" stroke-width="2.0"/>
  </g>
</svg>
