<?xml version="1.0" encoding="UTF-8" standalone="no"?>
<svg xmlns:xlink="http://www.w3.org/1999/xlink" height="125.25px" width="124.7px" xmlns="http://www.w3.org/2000/svg">
  <g transform="matrix(1.0, 0.0, 0.0, 1.0, 62.35, 62.65)">
    <path d="M-4.95 24.2 L-23.75 -27.95 Q-31.55 -23.2 -32.75 -10.5 L-38.95 -13.85 Q-35.5 -23.05 -23.75 -27.95 -30.15 -30.15 -35.4 -27.8 -39.55 -25.35 -43.45 -20.85 -50.35 -14.3 -60.6 -14.2 L-62.35 -26.0 Q-55.1 -21.15 -43.75 -29.9 -37.65 -34.3 -29.35 -31.45 L-29.3 -31.3 Q-26.85 -30.5 -23.85 -28.0 -25.2 -33.75 -30.0 -37.8 -33.55 -40.3 -38.35 -38.45 -45.25 -35.5 -51.95 -41.95 -56.0 -46.6 -55.7 -52.45 L-46.65 -57.95 Q-47.15 -48.15 -38.55 -46.1 L-31.95 -44.15 Q-25.1 -42.4 -24.05 -33.5 L-23.85 -28.0 Q-19.8 -33.4 -19.95 -40.0 L-19.95 -40.25 Q-20.35 -43.6 -21.6 -46.3 -24.4 -54.1 -14.95 -62.65 L-6.15 -59.45 Q-14.7 -55.7 -13.3 -45.0 -12.75 -37.8 -23.55 -27.85 -14.25 -30.45 -7.95 -35.95 L-6.2 -29.6 Q-15.3 -26.2 -23.55 -27.85 L62.35 14.0 62.1 14.8 Q60.35 22.65 56.45 29.55 54.3 33.4 51.55 36.8 48.35 40.95 44.25 44.8 L35.85 51.4 27.6 56.7 Q16.7 62.95 8.9 62.6 L-1.55 33.65 -1.3 33.45 -0.2 31.8 -2.75 24.65 -4.65 24.2 -4.95 24.2 M-23.55 -27.85 L-23.85 -28.0 -23.75 -27.95 -23.55 -27.85" fill="#ffffff" fill-rule="evenodd" stroke="none"/>
    <path d="M-1.55 33.65 L-4.95 24.2 -4.65 24.2 -2.75 24.65 -0.2 31.8 -1.3 33.45 -1.55 33.65" fill="#3dfa8d" fill-rule="evenodd" stroke="none"/>
  </g>
</svg>
