<?xml version="1.0" encoding="UTF-8" standalone="no"?>
<svg xmlns:xlink="http://www.w3.org/1999/xlink" height="164.3px" width="156.65px" xmlns="http://www.w3.org/2000/svg">
  <g transform="matrix(1.0, 0.0, 0.0, 1.0, 78.35, 82.15)">
    <path d="M64.0 -53.5 L67.55 -49.25 64.2 -49.15 Q49.35 -48.6 28.55 -42.25 44.7 -52.65 62.65 -53.45 L64.0 -53.5 M25.8 -79.9 Q31.15 -83.3 33.6 -81.55 36.1 -79.85 38.85 -75.8 L39.8 -74.55 43.45 -68.15 Q35.35 -72.3 27.6 -75.15 L21.85 -77.05 25.8 -79.9 M15.9 -62.7 Q17.75 -64.5 20.25 -64.5 22.65 -64.5 24.45 -62.7 26.3 -60.9 26.3 -58.35 26.3 -55.9 24.45 -54.15 22.65 -52.35 20.25 -52.35 17.75 -52.35 15.9 -54.15 14.2 -55.9 14.2 -58.35 14.2 -60.9 15.9 -62.7 M34.15 -3.75 Q21.7 -6.8 7.45 -5.8 L-2.6 -4.6 -28.75 1.55 -27.95 -2.3 Q-25.8 -11.45 -21.15 -17.3 -13.05 -27.45 2.6 -27.3 28.1 -27.5 34.15 -3.75 M74.85 -36.5 Q77.05 -30.75 77.95 -24.7 73.55 -26.45 68.35 -27.6 54.0 -30.6 33.2 -28.0 50.25 -35.55 66.85 -36.4 70.85 -36.7 74.85 -36.5 M70.15 -8.25 Q60.5 -14.6 46.15 -16.35 58.3 -18.7 69.95 -14.85 74.15 -13.4 78.3 -11.25 77.95 -7.0 76.95 -2.7 73.95 -5.8 70.15 -8.25 M45.5 66.1 Q45.55 63.8 46.9 63.4 49.5 63.4 49.25 66.25 51.6 67.1 51.95 69.1 52.2 71.5 49.25 70.55 52.35 71.85 51.55 74.65 48.3 75.25 47.8 73.2 46.05 80.1 43.7 74.4 39.85 76.65 40.7 71.45 36.45 71.0 40.3 68.35 39.2 66.1 41.8 66.6 40.25 63.7 44.45 64.8 L45.5 66.1 M-26.8 -55.55 Q-26.8 -58.0 -25.1 -59.75 -23.4 -61.5 -20.85 -61.5 -18.35 -61.5 -16.6 -59.75 -14.9 -58.0 -14.9 -55.55 -14.9 -53.0 -16.6 -51.3 -18.35 -49.6 -20.85 -49.6 -23.4 -49.6 -25.1 -51.3 -26.8 -53.0 -26.8 -55.55 M-51.3 -63.75 L-53.4 -61.5 -57.65 -56.1 -63.05 -48.55 Q-62.1 -54.6 -60.95 -59.2 L-59.1 -64.75 Q-57.05 -70.35 -54.4 -72.35 L-49.2 -71.9 -43.65 -70.55 Q-47.7 -67.55 -51.3 -63.75 M-73.45 -31.1 Q-68.45 -31.35 -63.75 -31.0 L-55.3 -30.05 Q-44.35 -28.2 -34.65 -23.2 -45.2 -24.9 -54.3 -24.45 L-58.55 -24.0 Q-69.5 -22.75 -78.35 -17.9 -76.9 -23.95 -73.45 -31.1 M-55.35 -42.95 L-56.95 -43.2 -66.3 -43.7 -63.85 -47.55 -60.05 -47.7 -54.75 -47.3 Q-42.6 -45.85 -30.55 -37.6 -44.15 -41.6 -55.35 -42.95 M-78.35 -4.45 Q-74.15 -7.2 -70.0 -8.95 -58.7 -13.9 -47.45 -12.1 -56.95 -10.15 -64.65 -6.05 -69.7 -3.35 -74.0 0.25 L-77.6 -0.25 -78.35 -4.45 M-17.1 72.0 Q-12.9 72.35 -13.65 75.3 -13.6 77.6 -15.4 78.0 -13.6 81.3 -16.25 81.9 -20.4 82.6 -19.7 79.85 L-21.3 81.8 Q-23.1 83.15 -23.9 79.1 -26.4 83.55 -27.65 77.1 -30.6 77.25 -30.35 74.4 -30.05 72.35 -28.35 72.7 -28.75 71.35 -27.65 70.65 -25.45 67.65 -23.25 70.65 -24.05 68.6 -21.45 67.9 -17.95 68.15 -17.85 72.0 L-17.1 72.0" fill="#3aff77" fill-rule="evenodd" stroke="none"/>
  </g>
</svg>
