<?xml version="1.0" encoding="UTF-8" standalone="no"?>
<svg xmlns:xlink="http://www.w3.org/1999/xlink" height="127.85px" width="233.8px" xmlns="http://www.w3.org/2000/svg">
  <g transform="matrix(1.0, 0.0, 0.0, 1.0, 116.9, 63.95)">
    <path d="M-26.55 -20.25 Q-25.6 -24.65 -20.75 -25.3 -15.8 -26.1 -12.25 -23.2 -10.7 -27.25 -6.75 -27.7 -1.85 -28.55 1.4 -25.55 3.25 -29.9 7.5 -30.65 11.75 -31.0 15.45 -28.25 16.9 -31.85 20.7 -33.05 25.05 -33.55 28.5 -30.2 30.4 -34.9 34.2 -36.05 39.05 -36.65 42.05 -34.1 43.5 -38.25 46.7 -39.45 L62.9 -33.1 Q33.1 -23.05 -18.65 -15.35 -21.0 -16.25 -23.85 -16.85 L-25.05 -18.45 -18.95 -19.05 -12.85 -20.05 Q-14.7 -22.75 -19.45 -22.55 -23.2 -21.5 -25.15 -18.65 L-26.55 -20.25 M-57.7 -6.1 L-58.1 -9.7 -50.2 -12.9 Q-52.8 -16.15 -58.0 -14.65 L-57.75 -17.3 Q-51.75 -18.3 -48.95 -15.85 -47.95 -19.95 -43.35 -22.15 -37.35 -22.95 -34.45 -19.4 L-35.7 -17.85 Q-38.45 -20.05 -42.45 -19.05 -45.75 -17.65 -46.65 -14.05 -41.85 -15.55 -36.6 -16.65 L-37.9 -14.65 Q-43.0 -13.4 -46.05 -11.2 L-57.3 -6.75 -57.7 -6.1 M18.25 -25.45 L26.95 -27.4 Q25.3 -30.1 21.65 -29.95 19.4 -29.35 18.25 -25.45 M45.65 -32.2 L52.3 -34.15 Q50.7 -36.45 47.65 -36.45 45.15 -35.3 45.65 -32.2 M3.7 -22.8 L13.0 -24.35 14.25 -24.6 Q12.4 -27.55 8.2 -27.45 4.8 -26.45 3.7 -22.8 M32.2 -28.65 L40.35 -30.75 Q38.95 -33.95 34.95 -33.1 32.75 -32.2 32.2 -28.65 M-9.95 -20.55 L0.7 -22.3 Q-1.95 -25.25 -5.65 -24.6 -9.6 -23.95 -9.95 -20.55" fill="#fff39c" fill-rule="evenodd" stroke="none"/>
    <path d="M46.7 -39.45 Q43.5 -38.25 42.05 -34.1 39.05 -36.65 34.2 -36.05 30.4 -34.9 28.5 -30.2 25.05 -33.55 20.7 -33.05 16.9 -31.85 15.45 -28.25 11.75 -31.0 7.5 -30.65 3.25 -29.9 1.4 -25.55 -1.85 -28.55 -6.75 -27.7 -10.7 -27.25 -12.25 -23.2 -15.8 -26.1 -20.75 -25.3 -25.6 -24.65 -26.55 -20.25 -28.45 -22.4 -30.4 -23.65 L-34.45 -19.4 Q-37.35 -22.95 -43.35 -22.15 -47.95 -19.95 -48.95 -15.85 -51.75 -18.3 -57.75 -17.3 L-58.0 -14.65 Q-52.8 -16.15 -50.2 -12.9 L-58.1 -9.7 -57.7 -6.1 -58.55 -4.45 Q-60.5 -0.15 -59.45 4.1 L-41.95 -2.2 Q-42.5 1.8 -40.25 5.8 -35.5 4.75 -30.8 0.9 -28.2 2.9 -21.55 3.25 -19.35 0.25 -19.85 -4.7 L-17.6 -6.15 73.3 -21.7 104.7 -19.75 Q117.7 -20.85 116.85 -13.65 114.75 -2.05 106.4 8.95 102.55 11.2 100.15 13.45 99.75 15.15 100.65 16.85 100.15 19.2 90.1 21.15 84.05 21.0 75.6 9.4 L69.15 11.65 34.85 21.85 Q-20.65 37.75 -53.55 35.85 L-54.55 35.8 Q-64.6 45.4 -76.45 44.3 -85.4 43.15 -89.2 37.95 -104.35 49.9 -113.95 63.9 L-114.0 63.65 Q-114.55 62.8 -116.75 61.85 L-116.9 61.9 Q-113.9 41.85 -82.15 -7.1 -68.05 -36.1 -44.6 -53.55 -27.0 -66.5 -3.25 -63.3 3.75 -62.0 16.5 -55.7 L32.8 -47.75 Q40.3 -45.9 43.0 -46.75 L45.05 -40.1 46.7 -39.45 M-25.15 -18.65 Q-23.2 -21.5 -19.45 -22.55 -14.7 -22.75 -12.85 -20.05 L-18.95 -19.05 -25.05 -18.45 -25.15 -18.65 M18.25 -25.45 Q19.4 -29.35 21.65 -29.95 25.3 -30.1 26.95 -27.4 L18.25 -25.45 M32.2 -28.65 Q32.75 -32.2 34.95 -33.1 38.95 -33.95 40.35 -30.75 L32.2 -28.65 M3.7 -22.8 Q4.8 -26.45 8.2 -27.45 12.4 -27.55 14.25 -24.6 L13.0 -24.35 3.7 -22.8 M45.65 -32.2 Q45.15 -35.3 47.65 -36.45 50.7 -36.45 52.3 -34.15 L45.65 -32.2 M-36.6 -16.65 Q-41.85 -15.55 -46.65 -14.05 -45.75 -17.65 -42.45 -19.05 -38.45 -20.05 -35.7 -17.85 L-36.6 -16.65 M-9.95 -20.55 Q-9.6 -23.95 -5.65 -24.6 -1.95 -25.25 0.7 -22.3 L-9.95 -20.55" fill="#9a8dd4" fill-rule="evenodd" stroke="none"/>
  </g>
</svg>
