<?xml version="1.0" encoding="UTF-8" standalone="no"?>
<svg xmlns:xlink="http://www.w3.org/1999/xlink" height="107.55px" width="174.4px" xmlns="http://www.w3.org/2000/svg">
  <g transform="matrix(1.0, 0.0, 0.0, 1.0, 87.2, 53.8)">
    <path d="M34.35 14.5 Q37.35 17.4 39.9 21.3 L48.35 21.3 49.55 21.3 Q51.6 21.3 52.5 22.2 53.1 22.75 53.1 23.75 L52.95 30.45 Q52.8 32.7 51.0 34.0 52.8 32.7 52.95 30.45 L53.1 23.75 Q53.1 22.75 52.5 22.2 61.0 16.05 74.15 17.8 L76.05 18.15 Q86.15 19.95 77.8 32.65 80.6 40.8 73.1 42.9 L69.65 43.15 Q60.7 41.1 51.0 34.0 L49.7 34.7 40.6 34.7 37.2 35.4 31.65 36.45 17.75 31.95 Q17.85 25.75 24.1 22.7 L21.5 13.8 Q28.3 11.75 34.35 14.5 M60.8 27.5 Q56.55 30.8 52.95 30.45 56.55 30.8 60.8 27.5 M10.45 29.8 L10.7 32.45 Q15.2 38.2 24.15 37.75 20.25 40.15 7.9 38.7 2.9 36.15 -1.6 33.05 L4.3 32.75 Q7.6 31.95 10.45 29.8 M33.2 21.85 Q34.75 26.55 39.05 26.35 L39.9 21.3 39.05 26.35 38.2 31.4 Q38.05 33.85 40.6 34.7 38.05 33.85 38.2 31.4 L39.05 26.35 Q34.75 26.55 33.2 21.85 M-6.65 34.75 Q-25.35 28.4 -44.5 15.3 L-50.1 11.35 -40.75 12.55 Q-35.55 14.65 -30.1 15.35 L-6.65 34.75" fill="#fbfaf3" fill-rule="evenodd" stroke="none"/>
    <path d="M43.7 48.0 Q41.4 51.3 37.65 52.75 L37.65 48.4 38.05 42.75 Q31.7 45.55 25.65 44.15 32.85 40.7 37.2 35.4 L40.6 34.7 49.7 34.7 Q48.2 42.7 43.7 48.0" fill="#eff1e8" fill-rule="evenodd" stroke="none"/>
    <path d="M34.35 14.5 Q28.3 11.75 21.5 13.8 L24.1 22.7 Q17.85 25.75 17.75 31.95 L31.65 36.45 Q27.55 37.55 24.15 37.75 15.2 38.2 10.7 32.45 L10.45 29.8 Q10.2 24.5 12.4 20.5 10.45 17.15 11.45 14.15 12.0 11.95 12.85 10.35 14.8 6.55 18.4 6.15 27.55 7.9 34.35 14.5 M-30.1 15.35 L-27.95 2.55 Q-26.5 6.05 -25.4 7.25 L-25.3 7.4 Q-16.05 23.1 -1.6 33.05 2.9 36.15 7.9 38.7 0.7 37.25 -6.65 34.75 L-30.1 15.35" fill="#eaeae7" fill-rule="evenodd" stroke="none"/>
    <path d="M33.75 -9.9 Q34.6 -14.05 36.15 -18.2 L15.9 -24.4 Q-29.4 -38.3 -37.35 -34.05 -16.7 -21.55 6.6 -15.15 L7.3 -14.95 7.9 -14.8 Q20.45 -11.45 33.75 -9.9 31.2 2.3 34.35 14.5 37.35 17.4 39.9 21.3 L48.35 21.3 Q61.7 9.2 64.0 -11.6 L64.05 -12.35 Q64.65 -37.1 51.65 -52.8 52.7 -45.45 48.9 -40.05 40.25 -29.1 36.15 -18.2 M64.0 -11.6 Q74.9 -21.8 86.2 -26.25 84.0 -21.45 84.25 -15.6 85.05 2.6 74.15 17.8 L76.05 18.15 Q86.15 19.95 77.8 32.65 80.6 40.8 73.1 42.9 L69.65 43.15 Q55.4 49.5 43.7 48.0 41.4 51.3 37.65 52.75 L37.65 48.4 31.6 47.6 Q-17.35 42.25 -57.15 22.7 -65.85 18.45 -74.15 13.45 -89.7 5.6 -85.2 -3.75 -81.3 -11.85 -56.15 -6.8 L-50.55 -16.15 -50.5 -16.15 Q-50.45 -17.65 -49.7 -18.8 -49.05 -19.65 -48.25 -19.9 L-37.35 -34.05 M52.5 22.2 Q51.6 21.3 49.55 21.3 L48.35 21.3 M51.0 34.0 Q52.8 32.7 52.95 30.45 L53.1 23.75 Q53.1 22.75 52.5 22.2 61.0 16.05 74.15 17.8 M49.7 34.7 L51.0 34.0 Q60.7 41.1 69.65 43.15 M43.7 48.0 Q48.2 42.7 49.7 34.7 L40.6 34.7 37.2 35.4 Q32.85 40.7 25.65 44.15 31.7 45.55 38.05 42.75 L37.65 48.4 M52.95 30.45 Q56.55 30.8 60.8 27.5 M34.35 14.5 Q27.55 7.9 18.4 6.15 14.8 6.55 12.85 10.35 12.0 11.95 11.45 14.15 10.45 17.15 12.4 20.5 10.2 24.5 10.45 29.8 L10.7 32.45 Q15.2 38.2 24.15 37.75 27.55 37.55 31.65 36.45 L37.2 35.4 M12.85 10.35 Q10.4 8.15 7.6 10.4 7.4 8.6 5.85 7.3 4.1 5.7 1.6 5.7 -0.5 5.7 -2.1 6.8 -2.35 4.5 -4.4 2.85 -6.65 0.95 -9.85 0.95 -13.1 0.95 -15.4 2.85 L-15.5 2.95 -15.5 2.65 Q-15.5 0.0 -17.2 -1.9 -18.85 -3.8 -21.3 -3.8 -23.7 -3.8 -25.4 -1.9 L-25.65 -1.65 Q-25.3 -2.55 -25.3 -3.6 L-25.4 -4.75 Q-25.75 -6.7 -27.25 -8.15 -29.15 -9.9 -31.85 -9.9 -33.95 -9.9 -35.6 -8.85 L-35.6 -9.1 Q-35.6 -11.95 -37.2 -13.95 -38.8 -15.95 -41.05 -15.95 -43.15 -15.95 -44.6 -14.25 L-44.45 -15.65 Q-44.45 -17.5 -45.4 -18.8 -46.25 -20.0 -47.55 -20.0 L-48.25 -19.9 M-50.5 -16.15 Q-48.25 -14.15 -45.85 -12.35 L-45.7 -12.15 -37.7 -6.55 -36.35 -5.6 Q-31.65 -2.7 -26.6 -0.05 L-26.5 0.0 -16.95 4.55 -15.85 5.05 -4.2 9.45 -2.65 9.95 7.3 12.9 11.45 14.15 M-1.6 33.05 L4.3 32.75 Q7.6 31.95 10.45 29.8 M39.9 21.3 L39.05 26.35 38.2 31.4 Q38.05 33.85 40.6 34.7 M39.05 26.35 Q34.75 26.55 33.2 21.85 M7.9 38.7 Q20.25 40.15 24.15 37.75 M-40.75 12.55 Q-50.65 8.55 -59.45 -0.4 L-56.15 -6.8 M-30.1 15.35 L-27.95 2.55 Q-26.5 6.05 -25.4 7.25 L-25.3 7.4 Q-16.05 23.1 -1.6 33.05 2.9 36.15 7.9 38.7 0.7 37.25 -6.65 34.75 -25.35 28.4 -44.5 15.3 L-50.1 11.35 -40.75 12.55 Q-35.55 14.65 -30.1 15.35" fill="none" stroke="#000000" stroke-linecap="round" stroke-linejoin="round" stroke-width="2.0"/>
    <path d="M63.0 15.3 Q74.2 8.05 76.4 -3.05 M44.8 14.7 Q60.25 -9.5 54.6 -36.7" fill="none" stroke="#000000" stroke-linecap="round" stroke-linejoin="round" stroke-opacity="0.4392157" stroke-width="2.0"/>
  </g>
</svg>
