<?xml version="1.0" encoding="UTF-8" standalone="no"?>
<svg xmlns:xlink="http://www.w3.org/1999/xlink" height="110.8px" width="177.1px" xmlns="http://www.w3.org/2000/svg">
  <g transform="matrix(1.0, 0.0, 0.0, 1.0, 88.55, 55.4)">
    <path d="M-12.4 -8.75 Q-13.8 -7.15 -15.2 -2.75 -8.6 -7.55 -2.9 -2.75 2.6 -14.55 13.6 1.2 11.75 -3.05 16.25 -13.6 17.25 -16.6 15.3 -19.7 14.4 -20.95 12.7 -21.05 10.9 -21.2 8.25 -20.1 L6.95 -19.55 Q4.95 -18.65 2.55 -17.15 -0.6 -15.2 -4.5 -12.3 -7.55 -13.7 -10.1 -14.25 L-13.75 -14.5 -17.95 -13.75 -19.15 -13.4 Q-22.2 -12.55 -25.4 -10.7 -24.15 1.05 -16.75 7.45 -17.9 -0.1 -15.2 -2.75 M-19.15 -13.4 Q-39.75 -19.35 -37.35 -34.65 -34.95 -40.6 -24.2 -39.85 -1.15 -38.15 11.0 -23.3 L12.7 -21.05 M15.3 -19.7 Q18.1 -22.45 19.95 -20.55 28.45 -35.35 45.0 -40.1 L49.0 -41.0 Q26.2 -61.3 -19.0 -50.85 -49.75 -44.9 -69.15 -17.95 -78.05 -5.55 -75.6 12.3 -74.05 16.55 -68.4 20.85 L-65.35 20.5 -68.55 16.05 -69.5 14.6 Q-63.7 2.3 -51.75 -4.85 -44.55 -5.4 -38.9 -2.25 M28.3 -9.6 L31.15 -11.65 Q23.3 -14.85 21.15 -18.6 L20.3 -14.6 Q23.85 -11.25 28.3 -9.6 L26.4 -8.1 25.25 -7.3 M19.8 -8.85 L26.4 -8.1 M20.3 -14.6 Q19.35 -12.75 16.25 -13.6 M19.95 -20.55 Q20.65 -19.85 21.15 -18.6 42.55 -36.35 54.1 -36.5 61.5 -36.2 62.3 -30.0 61.6 -22.2 53.9 -16.45 L55.85 -14.6 57.0 -13.65 Q64.6 -17.45 67.55 -25.3 68.4 -27.5 68.25 -32.0 64.9 -43.85 49.0 -41.0 M31.15 -11.65 Q38.55 -16.7 45.8 -19.55 48.4 -21.25 53.9 -16.45 M45.8 -19.55 Q42.15 -17.1 44.1 -1.9 46.1 -0.95 48.8 -0.6 53.5 -0.05 59.75 -2.8 M48.8 -0.6 Q57.4 5.8 63.5 12.0 67.6 19.05 68.55 28.55 L68.55 28.9 Q70.9 29.75 73.35 30.25 L77.95 30.85 Q82.95 23.05 84.15 15.35 89.7 3.5 86.25 3.35 80.85 2.3 74.65 18.05 58.6 13.3 70.5 -1.8 74.7 -8.55 67.8 -11.0 65.4 -11.85 61.75 -12.15 59.05 -12.3 57.0 -13.65 M67.55 -25.3 Q72.1 -16.85 67.8 -11.0 M28.9 -6.05 Q34.8 -2.35 41.55 -1.2 M84.15 15.35 L86.8 16.2 Q86.9 25.85 79.3 30.85 L77.95 30.85 M44.1 -1.9 Q45.15 5.75 35.25 2.95 29.2 1.1 23.35 2.2 16.55 3.65 13.6 1.2 M70.5 -1.8 Q77.65 1.4 86.25 3.35 M-13.75 -14.5 Q-25.75 -20.35 -29.45 -25.0 -30.65 -26.95 -31.0 -28.65 -32.5 -35.55 -21.1 -34.75 -16.35 -34.05 -8.55 -31.5 -0.2 -28.75 6.95 -19.55 M-24.3 -2.9 Q-27.7 -2.55 -28.9 -0.45 M-16.75 7.45 Q-28.8 13.5 -41.7 13.75 L-42.4 12.2 Q-48.9 23.0 -53.45 32.85 -56.75 42.45 -67.35 45.7 -69.15 49.55 -71.45 51.8 L-74.3 54.4 Q-77.5 53.4 -84.6 47.7 -86.9 44.25 -82.45 43.75 L-83.5 42.55 Q-92.3 27.15 -81.9 25.95 -74.75 22.3 -68.4 20.85 M-67.35 45.7 L-70.75 46.55 Q-73.45 33.0 -81.9 25.95 M-65.35 20.5 Q-59.95 27.45 -53.45 32.85 M-67.0 16.7 Q-58.85 16.4 -52.25 13.75 M-68.55 16.05 L-59.3 12.05 M-82.45 43.75 Q-76.45 50.15 -71.45 51.8 M-42.4 12.2 Q-47.1 2.0 -51.75 -4.85 M-10.1 -14.25 Q-2.65 -14.5 2.55 -17.15" fill="none" stroke="#000000" stroke-linecap="round" stroke-linejoin="round" stroke-width="2.0"/>
  </g>
</svg>
