<?xml version="1.0" encoding="UTF-8" standalone="no"?>
<svg xmlns:xlink="http://www.w3.org/1999/xlink" height="150.1px" width="153.4px" xmlns="http://www.w3.org/2000/svg">
  <g transform="matrix(1.0, 0.0, 0.0, 1.0, 76.7, 75.05)">
    <path d="M22.5 -44.5 Q22.1 -44.9 22.1 -45.55 22.1 -46.2 22.5 -46.7 23.0 -47.1 23.65 -47.1 24.3 -47.1 24.75 -46.7 L25.2 -45.55 Q25.2 -44.9 24.75 -44.5 24.3 -44.0 23.65 -44.0 23.0 -44.0 22.5 -44.5 M28.35 -6.65 Q28.05 -6.25 27.55 -6.25 27.15 -6.25 26.7 -6.65 26.4 -7.0 26.4 -7.45 L26.45 -7.85 26.7 -8.3 Q27.15 -8.65 27.55 -8.65 28.05 -8.65 28.35 -8.3 L28.7 -7.85 28.8 -7.45 Q28.8 -7.0 28.35 -6.65" fill="#000000" fill-rule="evenodd" stroke="none"/>
    <path d="M11.9 -12.15 Q8.65 -15.15 4.45 -18.3 L3.8 -34.95 Q12.45 -42.6 17.8 -50.65 L29.6 -50.65 Q32.35 -45.25 36.25 -40.9 L37.3 -39.75 38.65 -38.4 Q41.1 -36.0 44.0 -34.0 L44.75 -17.65 Q42.45 -15.05 40.4 -11.9 L40.05 -11.35 Q38.1 -8.35 36.4 -4.85 57.05 -5.85 75.0 -9.95 72.05 -12.1 70.95 -18.85 61.6 -70.45 17.5 -73.4 -31.8 -77.5 -50.8 -55.9 -61.8 -41.4 -64.8 -24.55 L-65.25 -22.95 Q-41.4 -23.5 -32.3 -9.2 -5.4 -5.0 18.4 -4.6 16.3 -7.7 13.1 -10.95 L11.95 -12.15 11.9 -12.15 10.2 -39.8 10.15 -40.35 36.25 -40.9 M10.2 -39.8 L15.7 -35.8 33.8 -35.8 37.3 -39.75 M40.05 -11.35 L34.7 -15.35 17.5 -15.35 11.95 -12.15 M17.5 -15.35 L17.05 -15.35 15.7 -35.8 M36.4 -4.85 Q27.6 -4.45 18.4 -4.6 M13.1 -10.95 L39.25 -11.15 M33.8 -35.8 L34.7 -15.35 M40.4 -11.9 L38.65 -38.4 M-65.25 -22.95 Q-66.55 -19.3 -70.2 -13.95 -80.8 5.0 -70.9 30.7 -66.25 38.95 -56.65 39.55 -53.9 39.6 -51.55 38.7 -48.8 37.65 -46.6 35.4 -41.3 29.8 -39.35 16.8 -37.1 6.95 -31.7 -1.0 22.6 7.65 72.25 -2.15 77.2 -3.8 75.0 -9.95 M-46.6 35.4 Q-41.1 68.75 9.0 67.25 L28.8 67.25 Q51.5 65.7 64.9 49.15 57.1 71.6 27.15 71.65 25.1 73.75 20.6 74.05 15.75 74.3 12.55 71.8 -10.3 72.9 -25.8 67.45 -46.1 58.6 -51.55 38.7 M12.55 71.8 Q10.4 70.1 9.0 67.25 M28.8 67.25 Q28.7 70.0 27.15 71.65" fill="none" stroke="#000000" stroke-linecap="round" stroke-linejoin="round" stroke-width="2.0"/>
  </g>
</svg>
