<?xml version="1.0" encoding="UTF-8" standalone="no"?>
<svg xmlns:xlink="http://www.w3.org/1999/xlink" height="159.15px" width="147.25px" xmlns="http://www.w3.org/2000/svg">
  <g transform="matrix(1.0, 0.0, 0.0, 1.0, 82.35, 68.8)">
    <path d="M7.4 -57.7 Q-0.35 -54.95 -9.75 -56.25 -17.0 -53.55 -27.1 -52.75 -32.15 -47.85 -41.25 -45.4 L-41.7 -45.3 -56.1 -35.65 -56.55 -34.8 Q-61.9 -25.65 -68.95 -22.6 -64.15 -31.15 -57.65 -37.55 L-52.1 -42.35 -42.6 -49.2 Q-35.65 -53.8 -28.7 -57.3 -20.2 -61.65 -11.65 -64.3 -3.45 -66.95 4.8 -68.05 L22.25 -68.6 27.7 -64.65 23.0 -57.7 21.8 -57.45 Q15.0 -56.35 7.6 -57.65 L7.6 -58.7 7.4 -57.7 M7.65 -47.95 Q15.55 -47.8 21.25 -46.6 L25.25 -45.55 Q41.5 -38.35 51.55 -24.25 60.85 -11.2 64.9 7.75 58.75 -1.05 49.45 -6.8 37.95 -13.85 21.75 -16.3 -4.2 -20.25 -31.1 3.25 -31.9 1.35 -33.35 -0.3 -36.5 -3.9 -40.95 -3.9 -44.05 -3.9 -46.45 -2.25 L-47.15 -1.75 -48.7 -0.3 Q-51.85 3.35 -51.85 8.5 -51.85 12.25 -50.15 15.2 L-48.7 17.2 Q-45.5 20.8 -40.95 20.8 -37.55 20.8 -34.85 18.7 -38.2 23.8 -37.95 29.95 -37.7 36.15 -30.25 42.65 -22.85 49.15 -23.6 62.25 -23.8 78.95 -16.9 85.8 -38.75 79.95 -45.9 58.3 -47.5 53.85 -49.1 50.15 -53.75 39.5 -58.8 35.75 -65.95 31.6 -68.75 37.0 -71.6 44.25 -65.75 58.05 -58.8 69.65 -57.55 79.4 -57.25 86.7 -64.35 89.15 -71.5 91.55 -82.35 89.05 -76.55 76.2 -77.9 64.0 -81.3 40.25 -80.9 19.65 -79.95 10.3 -78.1 2.2 -72.1 -9.6 -65.25 -18.55 -60.2 -25.15 -54.65 -30.15 -47.5 -36.65 -39.6 -40.55 -32.85 -43.9 -25.55 -45.3 L-24.35 -45.55 -9.2 -47.3 7.65 -47.95 M52.95 16.4 Q56.1 14.95 58.55 13.5 55.4 25.6 59.7 35.5 63.4 45.25 58.95 54.1 52.95 73.25 60.2 84.85 47.25 82.4 40.35 72.7 52.05 63.1 52.25 52.85 50.6 44.6 51.25 37.75 53.1 26.45 52.95 16.4 M-47.8 12.2 Q-41.9 8.5 -34.2 10.1 -34.6 12.6 -36.25 14.5 -38.35 17.0 -41.3 17.0 -44.3 17.0 -46.4 14.5 -47.3 13.45 -47.8 12.2 M-46.4 2.45 Q-44.3 -0.05 -41.3 -0.05 -38.35 -0.05 -36.25 2.45 -34.9 4.0 -34.4 6.0 -41.4 4.7 -48.4 7.25 -48.1 4.5 -46.4 2.45" fill="#ffffff" fill-opacity="0.23921569" fill-rule="evenodd" stroke="none"/>
  </g>
</svg>
