<?xml version="1.0" encoding="UTF-8" standalone="no"?>
<svg xmlns:xlink="http://www.w3.org/1999/xlink" height="213.3px" width="183.5px" xmlns="http://www.w3.org/2000/svg">
  <g transform="matrix(1.0, 0.0, 0.0, 1.0, 91.75, 106.65)">
    <path d="M54.75 -84.7 L67.7 -95.75 68.2 -96.15 Q77.95 -104.15 80.4 -93.6 L80.4 -72.1 Q74.8 -72.45 68.0 -75.45 60.6 -78.7 56.05 -83.3 L54.75 -84.7 M52.0 -82.45 L52.1 -82.35 Q57.9 -76.15 67.3 -72.05 74.35 -68.95 80.4 -68.35 L80.4 -37.9 85.5 -40.4 Q91.85 -43.45 89.95 -36.65 86.3 -24.75 84.65 -14.15 89.6 5.15 91.6 24.45 92.9 40.25 83.7 53.25 74.45 66.2 63.15 72.25 51.85 78.25 38.95 76.1 26.2 70.65 15.65 69.7 L16.3 68.55 Q17.25 66.8 17.25 64.55 L17.2 63.35 17.2 63.15 17.0 61.75 Q29.2 49.65 39.9 48.65 45.7 48.55 48.85 46.55 54.7 43.25 60.3 38.25 L66.1 32.6 Q76.15 24.5 66.1 1.35 57.7 -18.8 45.6 -32.45 32.75 -48.6 19.9 -48.55 6.95 -48.4 -13.65 -28.5 -25.2 -16.45 -34.95 -1.1 -49.5 21.8 -49.55 28.3 -39.05 28.75 -31.95 31.7 -23.4 35.2 -14.85 41.8 -2.2 51.6 4.8 61.4 4.5 62.65 4.5 64.1 4.5 67.5 6.35 70.0 -1.3 66.75 -8.5 69.15 L-23.7 74.6 Q-31.05 76.95 -43.1 76.4 -56.35 75.6 -67.75 70.55 -79.15 65.5 -86.9 56.65 -94.65 47.75 -90.0 23.05 -83.65 -3.55 -71.85 -33.5 L-76.45 -48.35 Q-79.35 -57.3 -71.8 -53.9 L-65.05 -51.8 -60.3 -74.6 Q-57.2 -75.05 -53.55 -76.2 -43.45 -79.3 -35.3 -85.4 L-31.35 -88.75 Q-28.05 -83.75 -25.4 -78.4 7.5 -105.7 45.25 -76.75 L52.0 -82.45 M14.9 70.7 Q20.1 86.5 22.0 102.9 23.25 107.15 18.65 106.6 L15.85 106.6 Q12.95 107.1 12.75 102.95 L12.75 72.25 14.9 70.7 M10.3 72.55 Q8.5 87.5 8.65 102.75 8.8 106.7 4.55 106.25 0.15 105.95 1.05 100.3 2.0 88.9 6.9 70.7 8.4 72.3 10.3 72.55 M-59.5 -78.65 L-55.25 -99.2 -55.0 -99.9 Q-51.85 -110.95 -43.75 -103.85 L-42.85 -102.95 -41.0 -101.05 -40.75 -100.75 -39.65 -99.55 Q-36.2 -95.65 -33.2 -91.5 -35.1 -89.4 -38.2 -87.2 -44.7 -82.6 -52.75 -80.2 -56.45 -79.05 -59.5 -78.65" fill="#ccccff" fill-rule="evenodd" stroke="none"/>
  </g>
</svg>
