<?xml version="1.0" encoding="UTF-8" standalone="no"?>
<svg xmlns:xlink="http://www.w3.org/1999/xlink" height="161.85px" width="152.75px" xmlns="http://www.w3.org/2000/svg">
  <g transform="matrix(1.0, 0.0, 0.0, 1.0, 76.4, 80.9)">
    <path d="M-2.45 -80.9 L5.3 -74.7 7.05 -73.25 Q15.6 -66.1 24.45 -57.7 L12.95 -58.6 0.45 -68.4 -2.45 -80.9 M5.55 -8.05 L6.95 -8.3 Q13.0 -7.15 19.1 -4.2 23.95 -1.8 28.85 1.7 L33.2 5.4 39.55 9.85 48.2 9.65 Q51.25 4.45 56.4 -0.15 L59.25 -2.5 Q62.25 -4.55 65.7 -6.05 67.0 -5.75 68.45 -4.8 L70.8 -2.65 71.2 -2.25 72.25 -0.9 71.25 5.9 Q71.45 10.4 70.8 14.4 L70.2 16.8 Q67.7 22.3 64.55 27.15 65.15 16.1 69.1 2.6 66.75 -0.5 64.6 -0.6 57.15 2.75 49.95 11.15 L37.45 11.95 37.25 11.85 28.85 6.25 Q16.65 -0.75 10.85 -1.8 -1.25 -1.45 -11.8 2.3 L-12.15 2.4 -11.8 3.05 -1.6 19.1 -5.45 20.6 4.95 32.0 -3.95 32.1 -16.1 19.2 -13.35 17.7 -22.45 2.1 -21.0 1.2 Q-16.7 -1.6 -11.8 -3.55 -3.75 -6.6 5.55 -8.05 M-74.8 -52.75 L-76.4 -70.15 Q-62.3 -56.2 -47.95 -38.8 -41.75 -31.35 -35.5 -23.25 L-35.15 -22.8 -33.9 -21.15 -32.2 -18.9 Q-30.05 -15.35 -30.6 -12.9 -31.4 -15.45 -33.35 -17.6 -34.55 -18.85 -36.0 -19.65 L-36.9 -20.1 Q-38.75 -20.9 -40.8 -20.9 -44.7 -20.9 -47.65 -18.25 L-48.35 -17.6 Q-51.45 -14.2 -51.45 -9.45 -51.45 -8.0 -51.1 -6.65 -57.9 -11.45 -56.05 -19.95 L-55.8 -21.05 -54.7 -32.4 -74.8 -52.75 M-39.2 9.9 Q-37.2 10.15 -35.45 12.05 L-34.15 13.7 -33.8 14.35 Q-32.7 16.45 -31.8 19.5 L-28.25 32.5 -31.35 34.55 Q-34.1 36.6 -35.7 38.95 L-38.85 43.65 -51.1 45.5 -57.35 14.7 Q-54.8 13.25 -52.7 12.95 L-40.4 9.95 -39.2 9.9 M-21.65 13.6 L-23.15 18.3 -25.75 17.35 Q-27.05 13.65 -29.3 10.5 L-21.65 13.6 M7.75 69.8 L6.8 67.05 Q-2.9 64.55 -11.8 60.75 -24.1 54.9 -34.5 45.75 L-34.15 45.45 Q-31.2 41.1 -27.4 37.6 L-5.05 54.7 Q0.35 58.15 6.9 60.75 14.75 63.85 24.3 65.75 29.15 68.0 16.7 70.15 L7.75 69.8 M-17.7 34.0 Q-19.1 33.15 -19.85 32.0 -20.6 30.8 -20.2 30.0 L-20.2 29.9 Q-19.8 29.15 -18.5 29.15 -17.25 29.15 -15.8 30.0 -14.5 30.8 -13.75 32.0 -13.0 33.15 -13.35 34.0 -13.75 34.8 -15.0 34.8 -16.3 34.8 -17.7 34.0 M-1.1 46.0 Q0.45 46.15 2.25 47.05 3.85 47.95 4.8 49.15 5.75 50.35 5.35 51.2 4.8 51.95 3.2 51.85 1.65 51.8 -0.1 50.9 -1.85 49.95 -2.8 48.8 -3.75 47.5 -3.2 46.75 L-3.2 46.6 Q-2.7 45.95 -1.1 46.0 M-51.55 18.2 L-46.65 39.65 -41.15 38.45 -43.4 29.9 -36.8 28.3 -38.2 23.85 -44.75 25.35 -46.95 16.95 -51.55 18.2 M46.85 49.75 Q44.7 50.9 42.25 51.7 39.65 51.1 37.25 50.0 L36.05 49.4 32.55 47.2 28.85 44.25 Q25.95 41.8 23.35 38.65 L28.85 41.35 Q32.55 43.15 37.25 44.95 L39.25 45.65 Q46.8 47.5 56.55 37.2 55.45 40.75 53.6 43.55 51.05 47.4 46.85 49.75 L54.7 50.1 55.2 50.2 56.95 50.25 59.35 46.85 Q61.1 51.55 65.35 53.15 L65.35 53.2 65.75 53.3 65.8 53.3 Q67.2 43.95 66.7 36.6 L65.7 35.1 69.05 28.25 70.65 26.1 Q76.0 30.35 76.35 34.9 74.6 41.8 65.8 53.3 64.8 58.7 60.1 61.9 L56.75 61.25 45.85 54.1 46.85 49.75 M36.05 49.4 L39.55 54.35 33.5 63.7 28.85 62.55 Q17.05 59.55 10.65 55.6 13.55 52.05 13.75 45.6 L13.75 44.4 13.75 43.4 13.65 42.8 13.65 42.5 17.25 43.55 Q19.25 47.15 24.3 50.4 L28.85 50.7 Q32.7 50.7 36.05 49.4 M36.1 75.9 L38.15 66.65 49.0 65.8 49.35 65.75 50.7 65.65 55.05 65.3 58.95 67.8 57.45 72.2 56.95 73.35 56.6 73.9 Q55.4 80.1 53.1 80.9 45.3 81.4 38.45 77.1 L37.25 76.5 36.1 75.9" fill="#000000" fill-rule="evenodd" stroke="none"/>
  </g>
</svg>
