<?xml version="1.0" encoding="UTF-8" standalone="no"?>
<svg xmlns:xlink="http://www.w3.org/1999/xlink" height="160.0px" width="213.55px" xmlns="http://www.w3.org/2000/svg">
  <g transform="matrix(1.0, 0.0, 0.0, 1.0, 106.8, 80.0)">
    <path d="M101.6 -24.5 Q101.85 -27.25 101.6 -30.25 100.7 -40.05 94.65 -51.75 L94.1 -52.8 94.0 -52.8 91.7 -56.3 89.15 -59.85 88.95 -60.1 Q67.3 -78.4 41.85 -79.0 L41.8 -79.0 35.65 -78.85 24.4 -77.6 Q16.7 -76.65 7.15 -73.25 -17.15 -61.5 -26.45 -31.2 L-27.55 -29.65 Q-27.95 -25.7 -23.4 -26.15 L-24.45 -25.6 Q-25.9 -22.9 -25.9 -20.9 -29.25 -18.95 -30.55 -17.0 -31.25 -15.8 -31.35 -14.75 -41.95 -12.35 -54.55 -17.6 -64.65 -18.15 -72.4 -8.5 -94.9 18.85 -105.8 13.3 -100.0 20.95 -69.1 13.3 -47.45 5.15 -34.6 -3.15 -40.9 4.85 -48.35 13.6 -55.75 22.35 -59.3 32.65 -66.6 62.9 -79.35 79.0 -42.45 55.55 -36.15 34.2 L-23.1 -3.4 -22.65 -4.6 -22.5 -5.0 -21.45 -8.1 -20.05 -7.95 Q-15.1 -26.4 48.6 -28.65 93.1 -26.65 103.5 -14.2 104.9 -15.6 105.45 -16.95 106.75 -20.35 102.65 -23.85 L101.6 -24.5" fill="none" stroke="#000000" stroke-linecap="round" stroke-linejoin="round" stroke-width="2.0"/>
    <path d="M-23.4 -26.15 Q-14.9 -31.45 -9.35 -43.15 M94.1 -52.8 L91.7 -56.3 M101.6 -24.5 L78.2 -39.25 M-34.6 -3.15 L-28.7 -7.3 -29.55 -8.5 Q-30.45 -10.05 -30.85 -11.95 L-31.15 -13.3 -31.35 -14.75 M-21.45 -8.1 Q-24.95 -8.75 -26.4 -10.4 L-27.1 -11.55 Q-27.75 -13.2 -26.7 -15.65 L-24.45 -17.6 Q-25.9 -18.95 -25.9 -20.9 M-28.7 -7.3 L-27.75 -6.15 Q-26.4 -4.85 -24.25 -4.35 L-22.9 -4.0 -22.65 -4.6 M-23.1 -3.4 L-22.9 -4.0 M-5.7 -34.0 L-24.45 -17.6" fill="none" stroke="#000000" stroke-linecap="round" stroke-linejoin="round" stroke-width="1.0"/>
  </g>
</svg>
