<?xml version="1.0" encoding="UTF-8" standalone="no"?>
<svg xmlns:xlink="http://www.w3.org/1999/xlink" height="85.4px" width="133.75px" xmlns="http://www.w3.org/2000/svg">
  <g transform="matrix(1.0, 0.0, 0.0, 1.0, 1.0, 1.0)">
    <path d="M122.9 26.8 L122.9 31.55 M86.7 27.7 L88.25 34.4 M105.3 25.25 L105.95 31.0 M112.8 25.35 L113.15 30.55 M22.8 55.5 L23.7 53.8 21.85 53.35 M30.1 51.55 L31.0 49.85 28.7 49.2 M33.3 46.9 Q31.9 48.3 31.0 49.85 L34.7 50.95 M26.0 50.85 Q24.65 52.25 23.7 53.8 L26.65 54.45 M0.1 82.35 Q5.3 75.15 12.1 68.45 L12.15 68.45 14.85 65.65" fill="none" stroke="#000000" stroke-linecap="round" stroke-linejoin="round" stroke-width="1.0"/>
    <path d="M122.9 31.55 Q128.4 32.95 131.65 36.95 132.25 32.45 129.35 28.6 L122.9 26.8 Q118.05 25.7 112.8 25.35 109.15 25.15 105.3 25.25 96.5 25.55 86.7 27.7 65.3 32.35 39.3 46.05 L39.35 47.1 Q43.45 46.25 41.95 50.6 32.3 57.25 20.5 61.5 16.65 63.9 14.85 65.65 13.55 74.2 14.1 82.35 1.35 84.5 0.1 82.35 L0.0 82.05 Q-0.35 79.3 11.35 64.6 L11.35 64.5 Q8.7 47.55 18.0 32.15 L18.0 32.1 Q19.0 23.7 20.8 15.2 22.35 7.6 24.6 0.0 L25.4 0.05 Q36.1 0.95 51.15 5.6 79.85 -2.65 104.5 6.0 L104.55 6.0 Q111.2 2.4 118.1 2.05 122.7 7.25 123.0 18.6 127.2 23.3 129.35 28.6 M122.9 31.55 Q118.7 30.45 113.15 30.55 L105.95 31.0 Q98.15 31.9 88.25 34.4 69.05 39.35 41.95 50.6 M123.0 18.6 Q116.35 11.1 104.55 6.0 M51.15 5.6 L57.4 7.55 M40.15 23.7 Q34.2 11.9 25.4 1.05 L24.6 0.0 M39.3 46.05 Q38.8 40.15 31.95 43.35 20.95 39.4 20.95 50.5 16.75 51.85 18.75 57.5 L18.75 57.55 Q17.25 60.5 20.5 61.5 M11.35 64.5 Q14.25 60.8 18.75 57.55" fill="none" stroke="#000000" stroke-linecap="round" stroke-linejoin="round" stroke-width="2.0"/>
  </g>
</svg>
