<?xml version="1.0" encoding="UTF-8" standalone="no"?>
<svg xmlns:xlink="http://www.w3.org/1999/xlink" height="125.85px" width="129.55px" xmlns="http://www.w3.org/2000/svg">
  <g transform="matrix(1.0, 0.0, 0.0, 1.0, 64.75, 62.9)">
    <path d="M8.2 -43.4 Q12.9 -48.35 17.85 -51.85 25.75 -57.45 34.3 -59.05 47.05 -60.55 56.05 -49.35 68.05 -25.2 63.55 5.45 60.15 39.45 38.8 60.7 49.45 46.65 55.25 25.95 59.65 7.7 60.1 -11.2 59.75 -38.35 52.9 -47.1 33.5 -60.1 8.2 -43.4 -16.2 -58.4 -32.1 -56.45 -55.2 -56.65 -58.1 -18.75 -59.15 34.05 -37.05 62.95 -72.4 25.65 -62.6 -31.65 -61.85 -36.8 -60.45 -41.9 -52.25 -64.8 -26.85 -62.75 -12.9 -59.95 -1.9 -52.2 3.5 -48.35 8.2 -43.4" fill="#ffff66" fill-rule="evenodd" stroke="none"/>
  </g>
</svg>
