<?xml version="1.0" encoding="UTF-8" standalone="no"?>
<svg xmlns:xlink="http://www.w3.org/1999/xlink" height="62.4px" width="131.5px" xmlns="http://www.w3.org/2000/svg">
  <g transform="matrix(1.0, 0.0, 0.0, 1.0, 119.8, 39.85)">
    <path d="M2.45 -28.8 Q12.95 -11.7 11.55 -1.4 L8.1 22.55 Q9.2 2.05 7.8 -7.25 6.05 -18.2 2.0 -28.3 1.8 -28.85 2.45 -28.8 M-96.3 -23.6 L-105.6 5.0 -109.85 17.3 Q-109.1 0.95 -103.3 -11.0 -97.55 -23.0 -96.3 -23.6 M-111.6 -18.55 Q-116.25 -6.45 -119.8 11.25 -118.05 -15.65 -111.5 -25.25 -105.0 -34.85 -97.95 -39.85 -106.95 -30.65 -111.6 -18.55 M-72.85 -20.85 L-72.45 -17.05 Q-72.35 -16.2 -72.65 -15.25 -74.35 -18.1 -74.55 -22.45 L-74.7 -28.05 Q-74.6 -29.35 -74.1 -30.75 L-72.85 -20.85 M-31.4 -7.8 Q-32.35 -26.2 -34.8 -36.65 -30.9 -26.65 -30.7 -21.8 -30.4 -16.9 -31.4 -7.8 M-6.95 -16.75 Q-5.5 -10.2 -5.5 -1.1 -10.55 -23.85 -14.5 -32.6 -8.55 -23.35 -6.95 -16.75 M-40.3 -14.6 Q-38.75 -6.05 -38.4 10.25 -44.3 -22.0 -51.05 -39.85 -41.9 -23.15 -40.3 -14.6" fill="#ffffff" fill-rule="evenodd" stroke="none"/>
  </g>
</svg>
