<?xml version="1.0" encoding="UTF-8" standalone="no"?>
<svg xmlns:xlink="http://www.w3.org/1999/xlink" height="86.8px" width="136.55px" xmlns="http://www.w3.org/2000/svg">
  <g transform="matrix(1.0, 0.0, 0.0, 1.0, 69.7, 48.3)">
    <path d="M56.2 -11.05 Q56.9 -11.6 57.6 4.3 58.35 20.2 51.45 38.5 L52.55 23.0 56.2 -11.05 M63.8 -23.15 Q62.65 -39.85 61.75 -48.3 L65.55 -32.1 Q68.75 -17.6 64.0 16.95 65.05 -6.45 63.8 -23.15 M-65.25 -23.15 Q-67.05 -6.45 -65.55 16.95 -72.55 -17.6 -67.8 -32.1 -63.05 -46.6 -62.2 -48.3 -63.55 -39.85 -65.25 -23.15 M-54.75 -11.05 L-51.1 23.0 -50.0 38.5 Q-56.9 20.2 -56.15 4.3 -55.45 -11.6 -54.75 -11.05" fill="#ffffff" fill-rule="evenodd" stroke="none"/>
  </g>
</svg>
