<?xml version="1.0" encoding="UTF-8" standalone="no"?>
<svg xmlns:xlink="http://www.w3.org/1999/xlink" height="118.0px" width="123.6px" xmlns="http://www.w3.org/2000/svg">
  <g transform="matrix(1.0, 0.0, 0.0, 1.0, 61.8, 59.0)">
    <path d="M56.1 -30.6 Q65.35 0.75 59.6 26.85 54.35 50.85 39.15 59.0 L39.5 58.6 Q44.7 52.0 49.2 35.85 45.65 40.4 42.55 40.55 50.5 27.4 50.3 3.05 48.05 7.8 44.3 11.5 45.55 -4.0 41.9 -21.45 38.45 -8.4 32.85 -3.65 34.25 -10.65 22.7 -35.1 22.2 -16.7 -1.0 0.9 3.7 -7.7 8.4 -25.3 -0.1 -11.25 -20.9 -4.0 -13.6 -9.15 -7.75 -23.95 -19.15 -9.2 -37.15 -3.75 L-37.2 -3.75 Q-38.2 -0.05 -38.5 3.1 L-38.65 4.75 Q-40.7 1.65 -41.95 -4.0 -45.35 29.65 -37.65 42.1 -46.15 36.7 -48.4 29.7 -46.3 48.55 -43.0 57.3 -71.6 26.85 -56.65 -23.95 L-55.9 -26.45 Q-53.5 -31.45 -50.45 -35.7 -40.0 -50.25 -21.65 -55.45 3.6 -62.55 23.7 -55.45 46.45 -47.0 56.1 -30.6" fill="url(#gradient0)" fill-rule="evenodd" stroke="none"/>
  </g>
  <defs>
    <linearGradient gradientTransform="matrix(0.0, 0.0883, -0.0754, 0.0, 0.0, 32.1)" gradientUnits="userSpaceOnUse" id="gradient0" spreadMethod="pad" x1="-819.2" x2="819.2">
      <stop offset="0.0" stop-color="#fff23c" stop-opacity="0.0"/>
      <stop offset="0.3803921568627451" stop-color="#fff23c" stop-opacity="0.84705883"/>
      <stop offset="0.6039215686274509" stop-color="#fff23c" stop-opacity="0.8"/>
      <stop offset="1.0" stop-color="#fff23c" stop-opacity="0.0"/>
    </linearGradient>
  </defs>
</svg>
