<?xml version="1.0" encoding="UTF-8" standalone="no"?>
<svg xmlns:xlink="http://www.w3.org/1999/xlink" height="19.35px" width="94.15px" xmlns="http://www.w3.org/2000/svg">
  <g transform="matrix(1.0, 0.0, 0.0, 1.0, 46.9, 68.95)">
    <path d="M41.9 -68.95 Q49.1 -65.15 46.6 -59.4 46.3 -58.65 45.35 -59.3 38.05 -64.55 41.9 -68.95 M31.9 -57.75 Q36.45 -54.75 32.35 -51.55 31.8 -51.05 31.35 -51.95 29.5 -55.85 31.9 -57.75 M-30.9 -57.45 Q-27.35 -53.9 -31.05 -50.1 -32.2 -48.9 -32.7 -50.55 -34.1 -54.85 -30.9 -57.45 M-41.4 -66.2 Q-37.5 -62.2 -44.2 -58.2 -47.65 -56.15 -46.7 -60.0 -45.65 -64.5 -41.4 -66.2" fill="#ffffff" fill-rule="evenodd" stroke="none"/>
  </g>
</svg>
