<?xml version="1.0" encoding="UTF-8" standalone="no"?>
<svg xmlns:xlink="http://www.w3.org/1999/xlink" height="154.75px" width="119.95px" xmlns="http://www.w3.org/2000/svg">
  <g transform="matrix(1.0, 0.0, 0.0, 1.0, 59.95, 77.35)">
    <path d="M41.3 22.25 Q37.8 32.9 30.25 41.95 44.35 14.15 38.85 -29.5 38.3 -19.65 35.4 -9.1 35.2 -24.45 33.3 -36.2 24.1 -40.55 5.4 -41.3 -16.95 -41.25 -31.6 -36.45 -33.35 -28.65 -34.7 -18.55 -39.15 15.0 -29.2 41.65 -34.0 36.25 -37.75 24.8 L-37.4 26.0 Q-31.15 57.95 -15.1 77.1 -39.35 62.1 -50.2 39.85 -62.6 18.1 -59.25 -29.55 -56.7 -52.55 -50.5 -62.6 -43.15 -75.65 -31.6 -75.5 -18.35 -76.45 -7.3 -61.7 L13.15 -62.0 Q21.15 -74.6 31.15 -77.35 45.9 -77.55 51.35 -62.6 59.7 -40.75 60.0 -9.1 55.4 48.05 19.45 77.4 32.9 55.85 41.3 22.25" fill="#00ccff" fill-rule="evenodd" stroke="none"/>
  </g>
</svg>
