<?xml version="1.0" encoding="UTF-8" standalone="no"?>
<svg xmlns:xlink="http://www.w3.org/1999/xlink" height="54.75px" width="118.2px" xmlns="http://www.w3.org/2000/svg">
  <g transform="matrix(1.0, 0.0, 0.0, 1.0, 93.9, 28.95)">
    <path d="M7.45 -28.95 Q19.95 -17.95 21.2 -9.45 L24.3 12.6 Q20.3 -6.55 17.0 -13.6 13.05 -21.7 7.1 -28.5 L7.0 -28.7 Q6.95 -28.95 7.45 -28.95 M16.8 9.7 Q16.4 16.25 13.85 24.7 15.4 2.9 14.05 -5.2 16.0 -0.1 16.6 4.6 L16.8 8.45 16.8 9.7 M7.25 9.7 Q6.85 16.2 4.3 24.7 5.9 2.35 4.5 -6.7 6.45 -0.45 7.05 4.5 7.35 7.3 7.25 9.7 M-90.15 -9.8 Q-92.9 1.75 -92.35 18.0 -93.95 7.0 -93.9 -0.75 -93.95 -11.65 -90.95 -16.3 -86.65 -23.4 -81.8 -25.6 -87.7 -20.2 -90.15 -9.8 M-44.35 -10.05 L-46.75 7.9 Q-46.85 8.85 -47.4 9.95 -48.75 1.45 -45.65 -7.6 L-44.35 -10.05 M-80.35 -9.8 Q-83.45 -5.95 -83.25 2.6 -83.1 12.35 -77.35 24.05 -82.95 16.9 -84.4 10.25 -85.25 6.7 -85.55 3.9 -86.1 -0.45 -85.15 -2.75 -83.3 -8.4 -80.35 -9.8 M-9.0 14.95 Q-8.65 2.25 -10.95 -10.85 -6.2 1.1 -9.0 14.95 M-72.2 0.7 L-63.35 25.8 Q-72.05 14.15 -72.2 0.7" fill="#ffffff" fill-rule="evenodd" stroke="none"/>
  </g>
</svg>
