<?xml version="1.0" encoding="UTF-8" standalone="no"?>
<svg xmlns:xlink="http://www.w3.org/1999/xlink" height="103.95px" width="125.0px" xmlns="http://www.w3.org/2000/svg">
  <g transform="matrix(1.0, 0.0, 0.0, 1.0, 62.5, 51.95)">
    <path d="M27.7 -35.2 Q29.9 -25.1 26.65 -14.45 21.75 1.75 10.6 13.6 L12.8 2.0 Q7.4 14.35 0.65 20.45 -4.55 6.85 -6.2 -6.8 -7.6 -17.75 -5.75 -27.15 -8.3 -15.65 -17.85 -0.9 -21.1 -20.6 -15.4 -32.1 -26.05 -17.2 -38.85 -10.9 -39.75 -6.85 -40.25 -2.8 -41.7 26.8 -37.3 52.0 -45.4 46.7 -49.9 38.4 L-50.2 37.9 -50.1 38.2 Q-56.9 32.15 -59.5 23.2 -66.3 -0.3 -57.65 -25.2 -53.9 -32.05 -49.4 -36.65 -32.5 -52.0 7.65 -51.95 37.35 -51.95 51.2 -34.1 53.95 -30.6 55.9 -27.0 58.5 -20.0 59.45 -13.3 68.8 28.15 49.65 49.35 52.75 39.05 53.7 18.15 50.7 23.2 46.45 28.05 51.35 8.4 47.4 -15.8 34.95 -23.6 27.7 -35.2" fill="url(#gradient0)" fill-rule="evenodd" stroke="none"/>
  </g>
  <defs>
    <linearGradient gradientTransform="matrix(0.0, 0.0748, -0.0763, 0.0, 0.0, 28.45)" gradientUnits="userSpaceOnUse" id="gradient0" spreadMethod="pad" x1="-819.2" x2="819.2">
      <stop offset="0.0" stop-color="#fff23c" stop-opacity="0.0"/>
      <stop offset="0.3803921568627451" stop-color="#fff23c" stop-opacity="0.84705883"/>
      <stop offset="0.6039215686274509" stop-color="#fff23c" stop-opacity="0.8"/>
      <stop offset="1.0" stop-color="#fff23c" stop-opacity="0.0"/>
    </linearGradient>
  </defs>
</svg>
