<?xml version="1.0" encoding="UTF-8" standalone="no"?>
<svg xmlns:xlink="http://www.w3.org/1999/xlink" height="18.05px" width="94.15px" xmlns="http://www.w3.org/2000/svg">
  <g transform="matrix(1.0, 0.0, 0.0, 1.0, -16.05, 30.0)">
    <path d="M21.55 -27.25 Q25.45 -23.25 18.75 -19.25 15.3 -17.2 16.25 -21.05 17.3 -25.55 21.55 -27.25 M58.7 -24.9 Q64.5 -19.05 58.45 -12.75 56.5 -10.8 55.65 -13.5 53.4 -20.6 58.7 -24.9 M87.1 -24.7 Q93.15 -20.65 87.7 -16.4 86.95 -15.8 86.4 -16.95 83.9 -22.15 87.1 -24.7 M104.85 -30.0 Q112.05 -26.2 109.55 -20.45 109.25 -19.7 108.3 -20.35 101.0 -25.6 104.85 -30.0" fill="#ffffff" fill-rule="evenodd" stroke="none"/>
  </g>
</svg>
