<?xml version="1.0" encoding="UTF-8" standalone="no"?>
<svg xmlns:xlink="http://www.w3.org/1999/xlink" height="71.5px" width="128.9px" xmlns="http://www.w3.org/2000/svg">
  <g transform="matrix(1.0, 0.0, 0.0, 1.0, 82.0, 29.95)">
    <path d="M28.85 -24.15 Q43.1 1.2 44.3 13.35 L46.9 41.55 Q42.95 16.6 39.25 4.65 34.85 -9.65 28.55 -23.75 L28.45 -24.15 Q28.35 -24.45 28.85 -24.15 M12.65 16.75 Q9.8 24.6 5.3 31.75 13.65 6.75 15.85 -8.35 16.15 1.0 14.7 9.1 13.9 13.25 12.65 16.75 M0.0 17.5 Q-1.2 19.0 -13.95 29.6 5.4 5.15 12.5 -9.15 8.2 6.75 0.0 17.5 M-70.15 -7.55 Q-76.65 5.3 -82.0 23.45 -78.35 -4.25 -69.55 -14.7 -61.0 -25.0 -52.55 -29.95 -63.7 -20.5 -70.15 -7.55 M-22.75 -16.05 Q-14.6 -5.05 -7.2 4.3 -6.35 5.4 -5.9 6.95 -15.55 -0.05 -21.3 -11.95 L-22.75 -16.05 M-64.85 8.9 Q-60.3 -5.15 -58.85 -6.45 -62.45 8.95 -65.1 21.9 L-67.2 30.4 Q-67.55 27.6 -67.55 24.8 -67.55 16.9 -64.85 8.9" fill="#ffffff" fill-rule="evenodd" stroke="none"/>
  </g>
</svg>
