<?xml version="1.0" encoding="UTF-8" standalone="no"?>
<svg xmlns:xlink="http://www.w3.org/1999/xlink" height="142.45px" width="203.75px" xmlns="http://www.w3.org/2000/svg">
  <g transform="matrix(1.0, 0.0, 0.0, 1.0, 101.85, 71.2)">
    <path d="M50.3 -61.15 Q75.2 -36.65 101.9 -24.85 71.8 -28.3 52.35 -53.0 89.55 -2.95 77.05 60.65 82.3 14.8 57.45 -28.45 62.9 4.4 46.9 36.15 48.5 28.4 48.85 17.35 45.65 53.95 29.4 71.25 34.35 53.0 39.05 19.1 39.1 -0.9 35.2 -29.5 37.05 -6.95 27.7 8.25 29.3 -3.45 21.6 -51.5 18.6 -12.15 -2.45 6.3 L6.2 -25.05 Q-3.05 1.25 -18.05 23.2 -12.5 -3.6 -11.0 -43.3 -27.05 -12.15 -55.1 7.05 -57.85 44.35 -50.5 70.9 -75.55 35.25 -73.45 -3.4 -85.85 2.15 -101.85 5.0 -79.15 -7.3 -56.45 -43.4 -48.65 -53.05 -36.3 -60.65 -6.6 -73.7 27.85 -70.6 39.65 -68.6 50.3 -61.15" fill="#ff4f4f" fill-rule="evenodd" stroke="none"/>
  </g>
</svg>
