<?xml version="1.0" encoding="UTF-8" standalone="no"?>
<svg xmlns:xlink="http://www.w3.org/1999/xlink" height="16.4px" width="83.9px" xmlns="http://www.w3.org/2000/svg">
  <g transform="matrix(1.0, 0.0, 0.0, 1.0, 74.1, 18.55)">
    <path d="M0.9 -18.55 Q9.05 -18.85 9.8 -12.6 9.9 -11.8 8.75 -11.95 -0.2 -12.85 0.9 -18.55 M-68.6 -17.45 Q-64.7 -13.45 -71.4 -9.45 -74.85 -7.4 -73.9 -11.25 -72.85 -15.75 -68.6 -17.45 M-40.05 -3.7 Q-42.3 -10.8 -37.0 -15.1 -31.2 -9.25 -37.25 -2.95 -39.2 -1.0 -40.05 -3.7 M-10.25 -14.9 Q-4.2 -10.85 -9.65 -6.6 -10.4 -6.0 -10.95 -7.15 -13.45 -12.35 -10.25 -14.9" fill="#ffffff" fill-rule="evenodd" stroke="none"/>
  </g>
</svg>
