<?xml version="1.0" encoding="UTF-8" standalone="no"?>
<svg xmlns:xlink="http://www.w3.org/1999/xlink" height="48.7px" width="129.9px" xmlns="http://www.w3.org/2000/svg">
  <g transform="matrix(1.0, 0.0, 0.0, 1.0, 64.95, 24.35)">
    <path d="M54.05 -13.1 L57.75 -8.9 Q67.1 4.1 64.3 9.35 61.5 18.65 43.1 20.05 L46.7 10.25 Q42.45 17.9 28.85 20.6 32.7 14.1 35.7 4.75 32.3 13.95 13.8 22.85 17.0 17.65 20.2 8.45 16.0 19.55 -3.75 21.6 2.0 17.7 7.0 7.45 -1.0 17.35 -11.8 21.6 -8.3 16.45 -6.15 9.25 -14.9 18.7 -30.35 20.6 -24.65 17.55 -20.0 8.55 -29.75 20.4 -45.65 24.35 -40.95 18.85 -36.65 10.3 -43.65 22.55 -64.95 21.6 -57.7 17.4 -53.1 6.6 -51.55 2.85 -44.7 -3.15 -42.65 -8.05 -31.4 -15.15 -14.25 -26.05 20.0 -24.05 45.45 -22.1 54.05 -13.1" fill="#ff4f4f" fill-rule="evenodd" stroke="none"/>
  </g>
</svg>
