<?xml version="1.0" encoding="UTF-8" standalone="no"?>
<svg xmlns:xlink="http://www.w3.org/1999/xlink" height="90.6px" width="156.45px" xmlns="http://www.w3.org/2000/svg">
  <g transform="matrix(1.0, 0.0, 0.0, 1.0, 78.2, 45.3)">
    <path d="M29.6 -44.3 Q37.7 -39.5 40.9 -34.75 L43.9 -28.7 Q54.35 -19.9 60.65 -4.4 66.95 11.05 77.25 21.65 64.5 22.95 53.55 11.95 L51.1 9.2 Q51.85 32.3 52.65 33.2 46.9 27.55 42.55 21.4 L41.45 19.8 Q39.4 16.7 37.7 13.5 33.75 6.15 31.65 -1.85 34.1 11.4 34.85 20.15 L34.15 19.75 Q10.9 6.2 5.0 -20.95 5.9 -15.6 6.6 -9.15 8.75 11.5 11.55 21.15 1.95 16.75 -1.95 10.65 0.45 20.95 3.0 23.15 -28.05 9.05 -36.2 -20.0 -38.15 -9.35 -42.5 4.05 -46.9 17.4 -49.35 25.65 -53.6 19.1 -55.95 12.3 -57.35 18.25 -60.9 27.55 -64.45 36.8 -66.65 44.3 -81.15 22.65 -75.7 -3.15 -69.8 -23.2 -52.4 -39.25 M-38.1 -28.75 Q-37.4 -24.2 -36.2 -20.0 M23.35 -30.75 Q28.6 -18.0 31.35 -3.55 L31.65 -1.85 M5.0 -20.95 Q2.95 -32.7 -0.25 -39.0 M51.1 9.2 L51.0 7.05 Q50.35 -13.75 43.9 -28.7 M-3.75 7.85 L-1.95 10.65 M-55.95 12.3 Q-57.2 8.7 -57.9 5.0 L-57.95 4.75 Q-60.7 -9.65 -55.15 -25.0" fill="none" stroke="#000000" stroke-linecap="round" stroke-linejoin="round" stroke-width="2.0"/>
  </g>
</svg>
