<?xml version="1.0" encoding="UTF-8" standalone="no"?>
<svg xmlns:xlink="http://www.w3.org/1999/xlink" height="48.8px" width="124.55px" xmlns="http://www.w3.org/2000/svg">
  <g transform="matrix(1.0, 0.0, 0.0, 1.0, 62.25, 24.4)">
    <path d="M20.5 -23.4 Q22.1 -19.15 22.85 -14.8 24.35 -7.8 33.15 -1.45 41.95 4.9 44.85 9.7 46.25 6.15 46.75 2.45 47.8 -5.25 45.0 -13.6 M-6.35 -18.15 Q-6.4 -12.6 -0.7 -7.2 7.0 0.0 25.1 6.95 L24.35 -4.05 Q23.75 -9.95 22.85 -14.75 L22.85 -14.8 M-0.7 -7.2 L-12.85 -11.3 Q-11.9 -7.4 -14.4 -3.9 -19.65 -6.25 -22.0 -8.6 -23.75 -3.85 -26.7 0.55 -30.2 -3.2 -30.3 -5.95 -32.85 4.85 -38.15 14.25 -40.45 10.35 -41.55 6.45 -44.2 21.35 -61.25 23.4 -57.95 15.1 -56.25 5.3 -54.6 -4.55 -49.8 -11.3 M46.75 2.45 Q51.6 12.05 61.3 18.45 L58.3 0.35 Q56.25 -11.95 45.4 -22.95 M-41.55 6.45 Q-44.9 -5.2 -37.7 -16.45" fill="none" stroke="#000000" stroke-linecap="round" stroke-linejoin="round" stroke-width="2.0"/>
  </g>
</svg>
