<?xml version="1.0" encoding="UTF-8" standalone="no"?>
<svg xmlns:xlink="http://www.w3.org/1999/xlink" height="55.3px" width="122.85px" xmlns="http://www.w3.org/2000/svg">
  <g transform="matrix(1.0, 0.0, 0.0, 1.0, 82.4, 26.1)">
    <path d="M39.85 5.55 L40.45 10.05 40.0 17.05 39.1 22.6 Q39.55 15.7 39.1 8.5 38.8 2.3 36.7 -3.2 38.6 0.25 39.85 5.55 M16.45 -24.9 Q17.8 -24.25 23.05 -13.75 26.3 -7.45 26.55 -0.75 L26.55 -0.55 26.6 -0.25 26.6 0.2 26.45 3.9 23.9 -3.05 Q20.65 -13.35 16.45 -24.9 M-56.25 -23.7 Q-59.8 -11.1 -62.45 0.15 L-64.65 7.75 -65.0 3.2 -65.0 2.65 Q-65.1 -4.65 -62.2 -11.55 -57.55 -23.0 -56.25 -23.7 M-77.8 -6.35 Q-81.0 5.75 -82.0 16.2 -83.6 -3.5 -78.45 -12.75 -73.6 -21.65 -67.85 -26.1 -74.9 -17.8 -77.8 -6.35 M-48.15 -19.55 Q-49.05 -9.45 -49.35 -0.95 -49.35 0.05 -50.0 0.6 L-50.75 -3.9 -50.85 -5.5 Q-51.05 -10.8 -49.45 -16.4 L-48.15 -19.55 M-25.7 -10.25 Q-23.75 12.95 -20.95 22.2 -25.65 12.2 -26.25 5.5 L-26.5 1.6 -26.5 0.75 -26.5 -1.65 Q-26.35 -5.7 -25.7 -10.25 M-14.9 -20.9 Q-11.55 11.4 -6.25 29.2 -14.8 12.5 -16.4 -2.5 L-16.2 -7.5 -14.9 -20.9 M-38.5 -19.5 Q-38.5 -9.55 -38.05 -1.05 -38.0 -0.05 -38.55 0.5 -39.3 -1.75 -39.65 -4.0 -40.05 -5.85 -40.1 -7.7 -40.4 -12.0 -39.55 -16.5 L-38.5 -19.5 M-1.0 6.8 Q-1.2 1.8 -0.55 -4.2 2.2 19.0 5.3 28.25 0.3 18.25 -0.6 11.55 L-1.0 6.8" fill="#ffffff" fill-rule="evenodd" stroke="none"/>
  </g>
</svg>
