<?xml version="1.0" encoding="UTF-8" standalone="no"?>
<svg xmlns:xlink="http://www.w3.org/1999/xlink" height="90.7px" width="131.9px" xmlns="http://www.w3.org/2000/svg">
  <g transform="matrix(1.0, 0.0, 0.0, 1.0, 65.95, 45.35)">
    <path d="M65.4 -5.45 Q68.55 24.35 54.3 44.9 55.9 34.75 54.3 19.15 L50.85 3.6 Q51.25 14.55 48.45 24.05 46.2 7.5 36.7 -14.65 37.5 -0.8 33.4 14.55 L31.05 -1.95 30.85 24.9 Q19.85 13.8 18.4 -2.75 18.0 13.65 21.15 26.8 6.25 13.85 2.8 -2.6 3.15 12.9 8.1 24.55 -7.85 3.75 -10.7 -20.2 L-9.3 16.55 Q-19.95 -2.65 -20.8 -21.8 -24.1 6.05 -21.65 19.85 -29.45 6.35 -30.9 -8.2 -35.05 15.2 -31.3 31.7 -40.95 20.1 -41.0 1.6 -44.65 29.85 -42.1 32.75 -49.1 25.2 -51.65 12.9 -51.25 39.65 -45.8 45.35 -64.75 33.3 -65.9 7.45 -67.1 -18.45 -47.1 -38.1 -9.75 -50.5 45.0 -41.7 62.0 -24.4 65.4 -5.45" fill="#8ef7aa" fill-rule="evenodd" stroke="none"/>
  </g>
</svg>
