<?xml version="1.0" encoding="UTF-8" standalone="no"?>
<svg xmlns:xlink="http://www.w3.org/1999/xlink" height="57.3px" width="127.2px" xmlns="http://www.w3.org/2000/svg">
  <g transform="matrix(1.0, 0.0, 0.0, 1.0, 48.65, 28.8)">
    <path d="M66.65 -16.55 Q77.75 -5.4 78.45 4.65 L78.55 8.8 Q78.6 17.4 76.05 28.35 77.1 8.45 74.25 0.45 70.95 -8.75 66.4 -15.9 L66.3 -16.15 Q66.3 -16.45 66.65 -16.55 M56.9 -19.15 Q67.9 -8.0 68.5 2.05 L68.6 6.2 Q68.6 14.8 65.95 25.75 67.15 5.85 64.35 -2.15 61.15 -11.35 56.65 -18.5 L56.55 -18.75 Q56.55 -19.05 56.9 -19.15 M44.35 -24.15 Q57.55 -9.0 57.85 1.35 58.15 11.7 55.1 25.9 56.15 5.15 53.2 -3.75 49.65 -14.3 44.0 -23.55 43.7 -24.1 44.35 -24.15 M21.9 5.35 Q20.05 11.5 15.6 19.25 22.2 -1.95 22.9 -10.85 23.4 -4.5 22.85 0.3 22.55 3.05 21.9 5.35 M0.15 28.5 Q11.6 -1.95 14.65 -20.75 14.95 -1.35 9.8 13.05 9.1 14.95 0.15 28.5 M-13.85 -21.05 Q-17.1 -9.85 -20.35 2.55 L-23.4 12.75 Q-23.4 9.05 -23.0 5.65 -22.15 -3.1 -19.05 -10.35 -14.8 -20.45 -13.85 -21.05 M-40.45 -7.5 Q-45.1 4.6 -48.65 22.3 -46.9 -4.6 -40.35 -14.2 -33.85 -23.8 -26.8 -28.8 -35.8 -19.6 -40.45 -7.5 M-3.0 13.65 Q-2.6 12.95 -1.8 12.6 -2.15 19.25 -5.25 23.9 L-6.45 25.45 Q-6.7 25.7 -7.0 25.65 L-7.35 25.6 Q-7.45 25.5 -7.5 25.5 -5.55 20.95 -3.15 14.05 L-3.0 13.65 M-14.2 23.9 L-15.4 25.45 -15.95 25.65 -16.3 25.6 -16.45 25.5 Q-14.5 20.95 -12.1 14.05 L-11.95 13.65 Q-11.55 12.95 -10.75 12.6 -11.1 19.25 -14.2 23.9" fill="#ffffff" fill-rule="evenodd" stroke="none"/>
  </g>
</svg>
