<?xml version="1.0" encoding="UTF-8" standalone="no"?>
<svg xmlns:xlink="http://www.w3.org/1999/xlink" height="50.8px" width="134.55px" xmlns="http://www.w3.org/2000/svg">
  <g transform="matrix(1.0, 0.0, 0.0, 1.0, 67.25, 25.4)">
    <path d="M36.45 -18.75 Q44.05 -12.3 49.15 -4.5 54.25 3.3 67.3 12.4 62.3 14.3 57.6 14.8 52.9 15.25 45.3 13.2 49.5 17.85 53.3 20.0 L46.0 19.4 44.8 19.25 Q29.0 16.45 18.55 3.7 L24.7 19.2 Q17.15 14.55 16.55 5.1 17.0 18.75 20.35 25.4 2.05 15.95 3.1 0.75 -5.6 14.0 -22.4 18.2 L-9.0 2.5 Q-18.0 11.45 -31.1 15.65 -44.25 19.85 -64.85 20.0 L-64.15 19.6 Q-57.6 15.45 -50.7 9.15 -45.7 4.6 -40.5 -1.1 -50.5 9.35 -67.25 12.15 -54.7 1.2 -42.8 -15.75 -3.15 -33.4 36.45 -18.75" fill="#83ffd2" fill-rule="evenodd" stroke="none"/>
  </g>
</svg>
