<?xml version="1.0" encoding="UTF-8" standalone="no"?>
<svg xmlns:xlink="http://www.w3.org/1999/xlink" height="16.95px" width="95.6px" xmlns="http://www.w3.org/2000/svg">
  <g transform="matrix(1.0, 0.0, 0.0, 1.0, 66.9, 16.1)">
    <path d="M24.55 -16.1 Q30.15 -13.15 28.2 -8.7 27.95 -8.1 27.2 -8.6 21.55 -12.7 24.55 -16.1 M2.5 -11.9 Q8.55 -7.85 3.1 -3.6 2.35 -3.0 1.8 -4.15 -0.7 -9.35 2.5 -11.9 M-61.4 -14.45 Q-57.5 -10.45 -64.2 -6.45 -67.65 -4.4 -66.7 -8.25 -65.65 -12.75 -61.4 -14.45 M-24.25 -12.1 Q-18.45 -6.25 -24.5 0.05 -26.45 2.0 -27.3 -0.7 -29.55 -7.8 -24.25 -12.1" fill="#ffffff" fill-rule="evenodd" stroke="none"/>
  </g>
</svg>
