<?xml version="1.0" encoding="UTF-8" standalone="no"?>
<svg xmlns:xlink="http://www.w3.org/1999/xlink" height="161.75px" width="141.2px" xmlns="http://www.w3.org/2000/svg">
  <g transform="matrix(1.0, 0.0, 0.0, 1.0, 63.1, 134.15)">
    <path d="M31.65 -132.1 Q62.25 -105.05 65.6 -88.1 L71.3 -57.2 Q63.7 -81.85 56.15 -95.7 46.1 -113.6 31.15 -130.85 L28.65 -133.35 Q26.45 -135.45 31.65 -132.1 M62.95 -51.1 Q66.75 -36.1 67.3 -8.55 56.7 -65.35 51.75 -86.3 59.2 -66.15 62.95 -51.1 M46.65 -54.15 L45.95 -18.95 Q41.4 -82.65 31.25 -116.5 43.65 -90.3 45.95 -65.4 L46.65 -54.15 M78.1 -71.65 Q72.9 -94.45 68.8 -103.15 74.85 -93.9 76.45 -87.35 78.05 -80.8 78.1 -71.65 M31.0 -81.8 L31.3 -79.4 31.7 -75.7 32.25 -71.25 32.85 -64.95 33.25 -59.3 Q33.95 -47.45 33.3 -36.95 32.3 -13.65 31.7 -8.2 29.3 -38.75 27.25 -76.05 27.25 -80.05 21.5 -115.75 29.0 -95.15 30.5 -85.0 L31.0 -81.8 M19.4 -79.5 L19.55 -77.2 19.7 -73.6 20.0 -69.3 20.2 -63.2 Q20.6 -48.6 19.0 -36.05 16.6 -13.5 15.65 -8.2 15.15 -37.8 15.25 -73.95 15.5 -77.8 11.9 -112.4 18.2 -92.45 19.1 -82.6 L19.4 -79.5 M7.75 -62.9 Q8.25 -46.55 5.8 -33.05 2.8 -12.75 1.7 -8.0 L1.2 -6.45 3.15 -67.1 Q3.55 -70.55 3.05 -102.2 6.65 -83.7 7.25 -74.85 L7.45 -72.1 7.55 -70.0 7.6 -66.8 7.75 -62.9 M-8.65 -100.5 L-14.25 -45.25 Q-14.8 -42.15 -16.2 -13.4 -18.7 -30.15 -18.75 -38.2 L-18.8 -40.75 -18.6 -45.6 Q-18.45 -62.55 -14.85 -76.3 -10.6 -94.7 -9.25 -99.1 L-8.65 -100.5 M-19.95 -131.15 Q-37.75 -112.95 -46.9 -89.1 -56.1 -65.2 -63.1 -30.25 -59.65 -83.35 -46.75 -102.3 -33.9 -121.25 -19.95 -131.15 M-27.2 -66.35 Q-25.55 -57.9 -25.4 -48.95 -25.3 -43.75 -25.7 -38.3 L-25.95 -36.15 -26.45 -31.7 Q-26.65 -29.6 -27.85 -29.45 -27.6 -45.7 -28.0 -63.2 L-27.9 -63.95 Q-27.85 -65.25 -27.2 -66.35 M-43.55 -77.9 L-32.5 -27.1 Q-32.05 -24.15 -24.85 1.85 -32.2 -12.3 -34.65 -19.4 L-36.7 -26.0 Q-41.55 -41.05 -42.25 -54.45 -43.7 -72.2 -43.7 -76.5 L-43.55 -77.9 M-52.15 -51.6 Q-50.3 6.15 -48.6 27.6 -52.9 6.55 -54.3 -8.9 -55.8 -24.25 -52.15 -51.6" fill="#ffffff" fill-rule="evenodd" stroke="none"/>
  </g>
</svg>
