<?xml version="1.0" encoding="UTF-8" standalone="no"?>
<svg xmlns:xlink="http://www.w3.org/1999/xlink" height="98.7px" width="104.85px" xmlns="http://www.w3.org/2000/svg">
  <g transform="matrix(1.0, 0.0, 0.0, 1.0, 52.4, 49.35)">
    <path d="M-41.25 -13.15 Q-35.25 9.5 -14.1 22.95 -33.45 16.35 -44.05 1.45 -54.6 -13.45 -51.8 -28.55 -49.0 -43.7 -36.45 -46.25 -23.9 -48.85 -14.55 -47.45 -3.8 -51.2 10.7 -47.45 16.75 -45.9 23.55 -42.95 46.35 -33.15 51.4 -5.5 57.05 25.7 32.95 49.35 44.55 32.15 40.85 11.5 39.6 4.4 36.55 -3.1 42.4 23.2 27.3 42.95 30.2 34.5 29.95 25.65 L29.9 25.2 Q29.2 6.85 15.0 -13.35 21.7 5.65 21.55 25.95 L8.75 -10.0 Q15.05 9.75 10.1 26.7 5.1 9.8 -14.4 -15.25 -2.7 5.15 1.3 24.65 -29.75 16.9 -41.25 -13.15" fill="#5686b1" fill-rule="evenodd" stroke="none"/>
  </g>
</svg>
