<?xml version="1.0" encoding="UTF-8" standalone="no"?>
<svg xmlns:xlink="http://www.w3.org/1999/xlink" height="74.6px" width="118.8px" xmlns="http://www.w3.org/2000/svg">
  <g transform="matrix(1.0, 0.0, 0.0, 1.0, 24.6, 1.75)">
    <path d="M94.1 49.25 L93.9 51.5 93.65 53.7 Q91.8 64.55 90.9 65.4 91.2 53.8 91.15 40.95 L91.55 30.35 Q94.65 40.35 94.1 49.25 M74.4 15.8 Q84.3 35.5 82.65 46.7 L78.6 72.85 Q80.25 50.3 79.1 40.0 77.7 27.8 74.0 16.4 L73.95 16.05 Q74.0 15.7 74.4 15.8 M54.35 21.35 Q47.9 29.0 36.75 36.9 59.3 10.85 65.85 -1.75 62.55 8.0 58.85 14.7 56.7 18.5 54.35 21.35 M18.8 46.05 Q18.45 58.6 21.2 72.0 12.55 52.35 15.9 39.45 19.6 24.9 26.65 14.6 19.1 31.0 18.8 46.05 M-21.15 44.15 Q-20.25 56.75 -16.0 71.9 -26.35 50.0 -24.25 38.0 -22.15 25.35 -17.1 16.75 -22.15 30.45 -21.15 44.15 M-2.85 45.25 Q-2.7 57.8 0.55 72.0 -8.8 51.25 -5.85 38.95 -2.75 25.7 3.35 16.75 -3.05 31.2 -2.85 45.25" fill="#ffffff" fill-rule="evenodd" stroke="none"/>
  </g>
</svg>
