<?xml version="1.0" encoding="UTF-8" standalone="no"?>
<svg xmlns:xlink="http://www.w3.org/1999/xlink" height="55.05px" width="123.65px" xmlns="http://www.w3.org/2000/svg">
  <g transform="matrix(1.0, 0.0, 0.0, 1.0, 61.8, 27.5)">
    <path d="M-25.1 -15.8 Q-15.15 -6.65 -14.55 5.8 L-14.35 9.0 -12.9 16.2 Q-11.5 23.2 9.3 22.9 22.4 21.5 28.95 16.55 L28.95 16.5 Q31.85 7.95 29.45 -4.6 28.4 -10.85 23.3 -19.65 M28.95 16.55 Q31.85 22.15 46.0 22.3 52.25 22.4 56.4 21.15 61.45 19.85 60.8 13.65 61.4 3.2 56.1 -6.45 54.55 -9.05 52.25 -11.8 M-46.85 -26.5 L-47.65 -25.5 M-58.3 -6.65 Q-59.7 -2.6 -60.55 1.7 -62.1 14.7 -53.85 21.7 -46.85 25.85 -33.5 26.55 -21.75 25.6 -17.2 21.05 -14.25 15.75 -14.35 9.0" fill="none" stroke="#000000" stroke-linecap="round" stroke-linejoin="round" stroke-width="2.0"/>
  </g>
</svg>
