<?xml version="1.0" encoding="UTF-8" standalone="no"?>
<svg xmlns:xlink="http://www.w3.org/1999/xlink" height="88.85px" width="123.6px" xmlns="http://www.w3.org/2000/svg">
  <g transform="matrix(1.0, 0.0, 0.0, 1.0, 61.8, 44.4)">
    <path d="M-53.85 -16.05 Q-42.2 -33.7 -20.4 -41.1 8.9 -47.95 26.95 -40.65 42.15 -36.75 53.8 -21.1 69.7 5.4 54.05 41.7 55.5 18.55 38.8 -12.95 L38.9 -10.75 Q39.0 2.3 27.75 14.1 26.45 24.05 13.95 36.85 13.5 21.5 6.1 7.2 -1.3 -7.1 -3.2 -15.05 -8.5 -0.35 -8.1 5.2 -15.6 -2.7 -15.85 -13.9 -32.35 17.95 -30.7 44.45 -46.4 22.85 -43.3 -1.0 -55.4 21.3 -55.6 39.45 -68.8 9.4 -53.85 -16.05" fill="url(#gradient0)" fill-rule="evenodd" stroke="none"/>
  </g>
  <defs>
    <linearGradient gradientTransform="matrix(0.0, 0.0837, -0.0754, 0.0, 0.0, 46.9)" gradientUnits="userSpaceOnUse" id="gradient0" spreadMethod="pad" x1="-819.2" x2="819.2">
      <stop offset="0.0" stop-color="#fff23c" stop-opacity="0.0"/>
      <stop offset="0.3803921568627451" stop-color="#fff23c" stop-opacity="0.84705883"/>
      <stop offset="0.6039215686274509" stop-color="#fff23c" stop-opacity="0.8"/>
      <stop offset="1.0" stop-color="#fff23c" stop-opacity="0.0"/>
    </linearGradient>
  </defs>
</svg>
