<?xml version="1.0" encoding="UTF-8" standalone="no"?>
<svg xmlns:xlink="http://www.w3.org/1999/xlink" height="25.8px" width="104.0px" xmlns="http://www.w3.org/2000/svg">
  <g transform="matrix(1.0, 0.0, 0.0, 1.0, 48.3, 39.95)">
    <path d="M-9.75 -14.15 L-11.35 -21.4 -6.05 -22.5 -6.85 -14.15 -9.75 -14.15 M-38.2 -17.15 L-38.55 -15.2 -48.3 -15.95 -38.2 -17.15 M-28.85 -14.7 L-31.05 -14.8 -31.5 -18.05 -27.8 -18.6 -28.85 -14.7 M30.05 -32.1 L27.65 -16.45 Q11.95 -14.45 -4.75 -14.2 L-4.85 -22.75 Q13.95 -26.75 30.05 -32.1 M39.65 -18.35 L34.3 -33.6 Q42.65 -36.6 50.25 -39.95 54.5 -30.6 55.7 -22.55 48.6 -20.15 39.65 -18.35" fill="#ffffff" fill-rule="evenodd" stroke="none"/>
  </g>
</svg>
