<?xml version="1.0" encoding="UTF-8" standalone="no"?>
<svg xmlns:xlink="http://www.w3.org/1999/xlink" height="118.4px" width="170.4px" xmlns="http://www.w3.org/2000/svg">
  <g transform="matrix(1.0, 0.0, 0.0, 1.0, 85.2, 59.2)">
    <path d="M31.2 -26.1 Q33.2 -21.9 32.4 -16.25 L32.35 -15.9 Q29.75 3.15 27.5 8.15 L28.0 7.35 28.15 7.1 30.15 3.6 Q37.95 -9.15 39.7 -19.2 L39.8 -19.8 Q40.55 -24.8 39.8 -29.05 38.35 -37.15 31.5 -42.8 M18.95 0.8 Q18.4 4.45 13.95 10.9 L6.7 25.9 Q20.45 10.8 27.85 -3.45 31.4 -10.35 32.35 -15.9 M13.85 -39.25 Q7.2 -26.35 3.7 -13.3 0.65 -2.05 -0.05 9.3 -0.75 21.0 1.0 32.8 1.5 28.55 5.4 22.55 7.25 19.55 10.0 16.2 L13.95 10.9 M44.75 -26.9 L43.75 -30.25 Q42.75 -31.85 39.8 -29.05 M46.1 -21.15 L44.75 -26.9 M65.5 -5.55 L66.9 -2.3 Q72.3 3.25 84.2 0.9 73.15 -0.75 65.3 -22.75 57.5 -44.8 43.85 -56.4 35.3 -60.4 24.0 -55.55 M46.1 -21.15 L47.0 -16.2 47.65 -11.5 49.15 0.0 49.25 0.55 Q50.15 6.0 51.95 11.2 55.6 21.8 62.85 31.3 62.1 27.35 61.6 23.2 60.3 13.15 60.2 1.6 L60.2 -5.15 M39.8 -19.8 Q44.55 -18.45 47.0 -16.2 M51.95 11.2 Q52.75 37.55 43.85 47.9 49.35 45.65 52.85 42.05 57.25 37.45 58.5 30.7 M52.85 42.05 Q50.25 52.8 46.8 57.85 57.55 52.75 61.1 39.2 L62.0 34.75 M66.9 -2.3 Q73.45 13.1 81.0 23.05 70.1 20.15 64.65 12.25 70.15 27.1 74.85 25.15 68.05 30.6 63.6 26.05 67.75 38.4 60.5 51.7 L61.1 39.2 M63.6 26.05 Q62.5 24.9 61.6 23.2 M64.65 12.25 Q61.55 7.75 60.2 1.6 M28.0 7.35 L27.45 8.25 27.25 8.55 27.5 8.15 27.45 8.25 M-16.1 -51.8 Q-28.55 -53.75 -44.35 -41.15 -58.9 -30.3 -70.45 -28.5 -62.35 -24.2 -54.6 -26.15 -50.35 -27.25 -46.2 -30.25 M-54.6 -26.15 Q-62.7 -22.7 -69.95 -13.65 -77.25 -4.65 -84.2 -3.4 -70.85 0.6 -66.05 -8.7 L-65.95 -8.85 Q-64.1 -12.65 -61.75 -15.95 M-36.05 -22.2 Q-53.45 10.55 -42.65 43.25 L-40.65 35.05 Q-36.85 20.95 -28.85 2.2 L-28.7 1.65 Q-24.25 -15.35 -12.45 -30.25 M3.7 -13.3 Q-1.6 -4.05 -10.8 4.35 -25.95 18.5 -31.3 30.1 -32.3 15.5 -28.85 2.2 M-53.1 -21.0 Q-62.95 -4.65 -64.3 10.75 L-64.35 11.1 Q-65.15 20.85 -62.55 30.25 -60.3 38.25 -56.6 44.25 -47.15 57.3 -33.1 58.2 -37.85 54.45 -43.65 45.55 -49.0 41.75 -51.6 36.95 M-64.35 11.1 Q-70.95 26.65 -72.2 36.95 -74.5 8.75 -66.05 -8.7 M-40.65 35.05 Q-37.7 46.6 -32.45 51.3 -39.05 48.8 -43.65 45.55" fill="none" stroke="#000000" stroke-linecap="round" stroke-linejoin="round" stroke-width="2.0"/>
    <path d="M41.75 -27.95 L44.75 -26.9 M41.75 -22.95 L46.1 -21.15 M44.75 -24.35 L41.95 -25.45" fill="none" stroke="#000000" stroke-linecap="round" stroke-linejoin="round" stroke-width="1.5"/>
  </g>
</svg>
