<?xml version="1.0" encoding="UTF-8" standalone="no"?>
<svg xmlns:xlink="http://www.w3.org/1999/xlink" height="103.45px" width="134.75px" xmlns="http://www.w3.org/2000/svg">
  <g transform="matrix(1.0, 0.0, 0.0, 1.0, 115.9, 54.8)">
    <path d="M1.5 -54.8 Q14.7 -39.65 15.0 -29.3 L15.55 -5.1 Q13.3 -25.5 10.35 -34.4 6.8 -44.95 1.15 -54.2 0.85 -54.75 1.5 -54.8 M3.5 24.45 Q2.95 26.25 -4.5 39.25 4.25 10.4 6.0 -7.2 7.2 7.6 4.8 19.3 L3.5 24.45 M6.6 31.0 Q7.1 28.7 8.25 26.0 10.1 21.2 13.7 15.4 9.9 24.0 5.65 45.7 L5.55 42.2 Q5.55 38.4 5.95 35.15 6.2 32.95 6.6 31.0 M16.95 30.45 L16.5 28.1 16.4 25.2 Q16.45 22.3 17.2 18.55 16.9 23.75 18.85 36.0 L18.15 34.2 16.95 30.45 M-112.85 -8.65 Q-113.35 1.5 -113.4 12.8 L-114.0 22.15 -115.25 15.8 -115.8 10.25 -115.9 8.6 Q-115.95 4.8 -115.2 1.3 -114.25 -5.1 -113.45 -7.4 -113.15 -8.55 -112.85 -8.65 M-88.4 -31.2 L-82.65 -10.35 -80.4 -1.25 Q-82.2 -4.05 -83.5 -6.8 -87.0 -13.8 -87.75 -20.7 -88.6 -27.2 -88.6 -29.7 -88.6 -30.95 -88.4 -31.2 M-55.2 -47.2 L-49.45 -24.75 -47.2 -14.9 Q-49.0 -17.9 -50.3 -20.9 -53.8 -28.45 -54.55 -35.9 -55.8 -46.25 -55.2 -47.2 M-42.55 -43.1 L-36.8 -20.65 -34.55 -10.8 Q-36.35 -13.8 -37.65 -16.8 -41.15 -24.35 -41.9 -31.8 -43.15 -42.15 -42.55 -43.1 M-70.9 -40.4 Q-71.9 -30.25 -72.5 -18.95 L-73.5 -9.6 -74.45 -15.95 Q-75.4 -23.75 -73.75 -30.45 -72.45 -36.85 -71.6 -39.15 L-70.9 -40.4 M-18.45 -36.35 L-12.5 -15.05 -10.15 -5.6 -10.35 -5.85 -10.7 -6.45 Q-12.25 -8.85 -13.25 -11.3 -16.95 -18.5 -17.75 -25.55 -19.05 -35.5 -18.45 -36.35 M-29.7 -43.15 Q-27.9 -32.35 -25.4 -20.7 L-23.8 -10.85 -24.25 -11.7 -26.5 -16.75 Q-29.4 -24.4 -29.75 -31.8 -30.35 -42.15 -29.7 -43.15 M-92.4 3.35 Q-92.05 -0.6 -91.1 -4.05 -92.2 9.05 -88.15 21.2 -84.05 33.3 -75.5 48.65 -91.3 27.9 -92.3 16.35 -93.0 9.3 -92.4 3.35 M-90.95 47.5 Q-93.75 39.95 -97.15 32.05 -97.55 31.1 -97.2 30.3 -92.15 36.6 -90.35 45.95 -90.2 47.0 -90.95 47.5" fill="#ffffff" fill-rule="evenodd" stroke="none"/>
  </g>
</svg>
