<?xml version="1.0" encoding="UTF-8" standalone="no"?>
<svg xmlns:xlink="http://www.w3.org/1999/xlink" height="154.9px" width="180.95px" xmlns="http://www.w3.org/2000/svg">
  <g transform="matrix(1.0, 0.0, 0.0, 1.0, 90.5, 77.45)">
    <path d="M4.1 -20.5 Q10.45 -22.55 13.95 -22.2 L10.75 -28.65 Q4.0 -43.25 -27.25 -66.65 20.1 -38.25 25.65 -24.25 37.9 -45.45 12.55 -77.45 56.25 -40.1 37.05 -22.65 65.4 -24.0 72.1 -41.15 68.25 -22.15 54.3 -18.7 75.45 -4.75 79.85 10.3 84.3 25.25 90.45 32.05 83.6 28.8 78.65 24.45 90.2 47.7 76.5 65.95 78.1 58.95 76.5 45.6 74.65 63.15 58.05 76.8 70.6 59.45 54.4 18.6 52.75 36.6 29.5 52.95 37.95 41.5 41.4 24.3 37.9 32.75 25.45 42.7 12.95 52.6 8.25 62.35 6.1 46.75 9.35 32.95 4.4 36.6 -1.35 39.95 6.2 30.6 11.9 18.45 8.85 23.75 -7.2 33.6 -23.3 43.45 -37.6 59.1 -33.6 44.45 -27.8 33.65 -41.95 55.35 -49.95 77.45 -52.4 52.45 -44.55 32.65 -55.65 47.25 -90.5 41.45 -70.3 37.3 -57.1 26.2 -43.95 15.05 -36.8 9.4 -61.5 17.05 -81.25 25.7 -45.25 -4.25 -15.4 -12.1 -43.4 -13.0 -61.45 -31.55 -43.75 -19.8 -18.8 -21.35 -4.95 -22.25 4.1 -20.5" fill="url(#gradient0)" fill-rule="evenodd" stroke="none"/>
  </g>
  <defs>
    <linearGradient gradientTransform="matrix(0.0, 0.0792, -0.1104, 0.0, 0.0, 72.4)" gradientUnits="userSpaceOnUse" id="gradient0" spreadMethod="pad" x1="-819.2" x2="819.2">
      <stop offset="0.0" stop-color="#fff23c" stop-opacity="0.0"/>
      <stop offset="0.3803921568627451" stop-color="#fff23c" stop-opacity="0.84705883"/>
      <stop offset="0.6039215686274509" stop-color="#fff23c" stop-opacity="0.8"/>
      <stop offset="1.0" stop-color="#fff23c" stop-opacity="0.0"/>
    </linearGradient>
  </defs>
</svg>
