<?xml version="1.0" encoding="UTF-8" standalone="no"?>
<svg xmlns:xlink="http://www.w3.org/1999/xlink" height="96.25px" width="141.75px" xmlns="http://www.w3.org/2000/svg">
  <g transform="matrix(1.0, 0.0, 0.0, 1.0, 70.85, 48.15)">
    <path d="M26.05 -34.6 L25.5 -33.2 Q23.15 -26.65 24.45 -15.45 25.85 -3.0 32.05 8.5 M5.75 -9.6 Q5.5 -19.75 8.9 -26.45 L9.6 -27.75 M19.1 26.3 Q12.45 22.35 9.75 15.9 7.1 9.5 6.9 1.6 M34.8 16.55 Q40.25 28.15 44.85 27.0 M-50.6 4.1 Q-50.25 0.0 -49.45 -2.95 -48.75 -5.55 -47.7 -7.3 M-22.55 -8.9 Q-22.2 -11.3 -21.5 -13.35 -20.25 -17.1 -17.85 -19.55 M-22.55 1.25 Q-23.25 12.0 -18.85 21.1 -14.55 30.05 -10.15 31.95 M-51.5 10.5 Q-51.15 24.3 -45.8 33.4 -40.55 42.55 -35.35 42.9" fill="none" stroke="#000000" stroke-linecap="round" stroke-linejoin="round" stroke-width="1.4000000000000001"/>
    <path d="M58.35 18.25 Q45.5 13.9 39.2 -14.8 37.35 -28.85 38.1 -36.55 38.7 -42.95 41.1 -45.0 L41.65 -45.3 M17.05 34.6 Q13.85 36.2 6.8 38.8 20.05 38.25 37.5 31.85 54.95 25.5 60.25 19.55 67.35 18.25 69.2 1.8 72.4 -18.9 61.3 -36.65 56.45 -44.2 49.65 -46.35 L39.4 -46.7 Q29.0 -42.85 16.6 -35.5 L21.0 -36.2 M-14.7 -19.4 Q-13.2 -22.65 -9.6 -25.4 -22.95 -19.5 -32.65 -13.25 L-26.2 -13.85 M-9.6 -25.4 Q-5.25 -27.55 -0.6 -27.95 7.85 -33.8 16.6 -35.5 M-65.3 4.15 Q-63.2 -0.3 -56.45 -5.5 -44.3 -11.8 -32.65 -13.25 M6.8 38.8 Q-2.2 42.3 -14.85 43.2 -26.15 48.85 -38.25 46.3 -51.65 48.7 -58.0 41.2 -63.55 39.25 -67.05 35.1 -70.1 29.65 -69.85 20.45 M-10.1 39.9 L-14.85 43.2 M-58.0 41.2 Q-60.05 38.8 -61.1 37.0 M-38.25 46.3 L-41.8 45.25 M-0.6 -27.95 Q1.35 -28.2 3.4 -28.0" fill="none" stroke="#000000" stroke-linecap="round" stroke-linejoin="round" stroke-width="2.0"/>
  </g>
</svg>
