<?xml version="1.0" encoding="UTF-8" standalone="no"?>
<svg xmlns:xlink="http://www.w3.org/1999/xlink" height="107.85px" width="132.5px" xmlns="http://www.w3.org/2000/svg">
  <g transform="matrix(1.0, 0.0, 0.0, 1.0, 66.25, 53.9)">
    <path d="M-57.4 -32.05 Q-52.6 -43.0 -40.45 -49.9 -31.95 -51.95 -23.2 -53.15 L-23.2 -53.1 Q2.9 -54.9 34.8 -52.55 L34.8 -52.6 46.65 -50.55 Q59.65 -40.5 63.8 -20.7 70.65 19.4 58.2 43.1 L59.35 20.1 Q57.85 41.05 44.4 51.9 48.35 39.35 49.75 9.25 46.2 16.25 39.05 21.3 44.7 10.15 44.55 -3.0 33.15 -11.5 31.25 -19.55 27.35 -8.6 17.4 6.75 19.95 -3.6 22.55 -22.9 20.55 -13.15 14.9 -2.2 14.6 13.5 17.65 21.2 10.1 15.55 5.3 7.3 -0.1 10.6 -8.0 11.7 -2.15 5.95 1.55 -0.95 L0.65 -2.95 Q-14.25 -13.05 -19.0 -27.55 L-19.45 -29.0 -23.2 -19.05 -23.2 -19.1 Q-28.35 -6.9 -39.15 -0.2 -34.1 -7.75 -32.35 -18.2 -35.7 -4.7 -44.65 2.45 -44.55 21.25 -40.35 33.35 L-40.2 33.8 -39.85 34.8 Q-48.1 27.9 -52.35 18.9 -51.7 42.1 -48.1 53.95 -69.6 21.55 -65.6 -13.35 -63.95 -23.85 -57.4 -32.05" fill="url(#gradient0)" fill-rule="evenodd" stroke="none"/>
  </g>
  <defs>
    <linearGradient gradientTransform="matrix(0.0, 0.1034, -0.0809, 0.0, 0.0, 49.1)" gradientUnits="userSpaceOnUse" id="gradient0" spreadMethod="pad" x1="-819.2" x2="819.2">
      <stop offset="0.0" stop-color="#fff23c" stop-opacity="0.0"/>
      <stop offset="0.3803921568627451" stop-color="#fff23c" stop-opacity="0.84705883"/>
      <stop offset="0.6039215686274509" stop-color="#fff23c" stop-opacity="0.8"/>
      <stop offset="1.0" stop-color="#fff23c" stop-opacity="0.0"/>
    </linearGradient>
  </defs>
</svg>
