<?xml version="1.0" encoding="UTF-8" standalone="no"?>
<svg xmlns:xlink="http://www.w3.org/1999/xlink" height="18.05px" width="95.9px" xmlns="http://www.w3.org/2000/svg">
  <g transform="matrix(1.0, 0.0, 0.0, 1.0, 50.35, 39.6)">
    <path d="M20.4 -34.3 Q26.45 -30.25 21.0 -26.0 20.25 -25.4 19.7 -26.55 17.2 -31.75 20.4 -34.3 M43.65 -29.95 Q36.35 -35.2 40.2 -39.6 47.4 -35.8 44.9 -30.05 44.6 -29.3 43.65 -29.95 M-44.85 -36.85 Q-40.95 -32.85 -47.65 -28.85 -51.1 -26.8 -50.15 -30.65 -49.1 -35.15 -44.85 -36.85 M-10.25 -34.5 Q-4.45 -28.65 -10.5 -22.35 -12.45 -20.4 -13.3 -23.1 -15.55 -30.2 -10.25 -34.5" fill="#ffffff" fill-rule="evenodd" stroke="none"/>
  </g>
</svg>
