<?xml version="1.0" encoding="UTF-8" standalone="no"?>
<svg xmlns:xlink="http://www.w3.org/1999/xlink" height="79.5px" width="76.9px" xmlns="http://www.w3.org/2000/svg">
  <g transform="matrix(1.0, 0.0, 0.0, 1.0, 38.45, 39.75)">
    <path d="M-26.2 -16.85 L-29.35 -25.6 Q-32.35 -26.1 -38.1 -15.25 L-38.45 -21.85 Q-34.4 -35.1 -27.0 -39.65 -11.25 -41.2 -0.75 -17.2 1.7 1.0 9.25 15.2 -1.95 2.7 1.7 10.25 5.35 17.75 15.7 26.45 19.95 33.6 27.0 31.05 33.85 26.55 28.55 18.85 24.45 15.1 18.0 16.2 20.9 12.9 27.95 12.65 35.85 14.2 38.1 21.2 40.0 32.05 31.75 37.45 30.25 38.45 28.4 39.25 10.85 42.0 -1.3 29.1 L-3.85 26.1 -7.95 20.2 Q-19.0 1.8 -26.2 -16.85" fill="#72ffbd" fill-rule="evenodd" stroke="none"/>
  </g>
</svg>
