<?xml version="1.0" encoding="UTF-8" standalone="no"?>
<svg xmlns:xlink="http://www.w3.org/1999/xlink" height="48.2px" width="81.8px" xmlns="http://www.w3.org/2000/svg">
  <g transform="matrix(1.0, 0.0, 0.0, 1.0, 20.45, 12.85)">
    <path d="M17.8 -0.6 L17.8 -4.5 15.8 -8.15 12.2 -9.45 7.45 -8.75 Q8.05 -13.45 22.4 -12.75 30.4 -8.65 34.4 -5.1 L38.65 -4.2 Q54.35 3.4 61.35 22.5 L46.35 18.95 Q47.85 29.5 41.85 35.35 L39.95 26.6 33.4 33.45 34.85 28.55 27.75 33.05 24.95 29.0 24.95 33.6 15.3 29.55 15.5 33.2 8.1 30.15 8.75 33.9 2.65 32.1 3.35 34.5 Q-22.95 30.65 -20.2 14.7 L-17.55 6.7 -16.05 7.8 -12.6 9.75 -8.2 8.5 -6.05 6.55 -4.05 8.15 0.7 8.95 5.6 7.15 8.4 3.55 14.5 3.2 17.8 -0.6" fill="#ffffff" fill-rule="evenodd" stroke="none"/>
  </g>
</svg>
