<?xml version="1.0" encoding="UTF-8" standalone="no"?>
<svg xmlns:xlink="http://www.w3.org/1999/xlink" height="84.3px" width="154.35px" xmlns="http://www.w3.org/2000/svg">
  <g transform="matrix(1.0, 0.0, 0.0, 1.0, 77.15, 42.15)">
    <path d="M4.8 -28.25 Q11.5 -14.3 29.9 -8.5 22.3 -16.0 19.75 -25.1 M50.8 -23.55 Q57.65 -14.4 59.8 -2.3 L59.85 -2.1 59.9 -1.7 Q61.8 7.95 76.2 8.5 71.0 2.65 67.45 -9.3 63.85 -21.25 55.45 -30.4 47.05 -39.55 35.85 -41.15 M29.5 -40.4 Q51.5 -34.45 49.45 -17.8 43.7 -27.4 31.1 -31.25 M-14.3 -14.9 L-13.3 -11.75 Q-8.05 -5.85 16.0 -1.55 34.0 1.6 42.1 10.75 42.0 6.8 41.0 3.6 38.75 -3.65 31.85 -7.6 M41.0 3.6 Q48.9 24.55 36.55 41.15 L36.75 41.1 Q57.7 34.75 60.7 12.05 L60.7 12.0 60.7 11.75 Q60.95 4.6 59.9 -1.7 M-13.3 -11.75 Q-11.05 -6.2 -5.15 -0.65 -22.2 -4.25 -30.5 -15.15 -20.35 -0.85 -15.25 1.35 -30.1 -1.75 -34.35 -9.55 L-27.7 3.95 Q-34.5 -1.8 -37.4 -7.5 -33.65 10.7 -54.15 20.55 -50.05 15.1 -48.2 5.55 -52.2 20.35 -76.15 22.7 -69.0 13.4 -62.05 -10.1 -58.95 -20.8 -51.85 -27.35 M-34.35 -9.55 L-35.2 -11.3 Q-36.5 -14.2 -36.95 -17.45 M-37.4 -7.5 Q-39.2 -10.95 -39.55 -14.4 M-35.35 -23.9 Q-33.75 -19.8 -31.35 -16.35 L-31.2 -16.1 -30.5 -15.15 M-48.2 5.55 Q-47.25 0.8 -46.9 -4.95" fill="none" stroke="#000000" stroke-linecap="round" stroke-linejoin="round" stroke-width="2.0"/>
  </g>
</svg>
