<?xml version="1.0" encoding="UTF-8" standalone="no"?>
<svg xmlns:xlink="http://www.w3.org/1999/xlink" height="98.3px" width="41.75px" xmlns="http://www.w3.org/2000/svg">
  <g transform="matrix(1.0, 0.0, 0.0, 1.0, 20.85, 49.15)">
    <path d="M0.55 -11.1 Q5.05 -9.75 4.5 -33.7 10.45 -11.75 11.75 -13.35 19.45 -22.8 16.65 -49.15 20.05 -36.4 20.75 -23.35 22.1 4.0 11.3 32.6 L11.8 4.3 Q10.6 27.8 2.95 49.15 4.05 30.15 1.0 -0.3 1.05 12.65 -1.5 25.35 -3.1 13.45 -11.2 -3.5 -16.5 -14.55 -20.85 -25.25 -14.5 -19.35 -13.85 -44.4 -3.9 -12.4 0.55 -11.1" fill="#72ffbd" fill-rule="evenodd" stroke="none"/>
  </g>
</svg>
