<?xml version="1.0" encoding="UTF-8" standalone="no"?>
<svg xmlns:xlink="http://www.w3.org/1999/xlink" height="84.9px" width="122.8px" xmlns="http://www.w3.org/2000/svg">
  <g transform="matrix(1.0, 0.0, 0.0, 1.0, 61.4, 42.45)">
    <path d="M24.1 -37.75 Q26.3 -39.85 27.2 -42.45 30.55 -33.45 24.9 -24.7 18.6 -21.85 13.7 -23.2 21.8 -28.1 24.1 -37.75 M-5.45 29.05 Q16.9 29.15 26.65 34.0 30.5 37.5 33.15 42.45 12.25 31.3 -14.55 31.25 L-24.55 32.05 Q-36.6 41.95 -52.4 34.95 -59.25 28.3 -61.4 21.7 -53.3 30.75 -41.05 34.1 L-53.45 22.35 Q-46.65 27.15 -39.3 29.65 -19.1 29.85 -6.2 26.85 L1.3 26.65 -5.45 29.05 M33.4 15.1 Q7.25 24.3 -37.45 10.35 -11.45 12.05 0.65 11.4 L-18.1 -0.5 -15.45 -0.3 -0.4 -5.35 Q5.4 -5.5 10.7 -6.5 5.25 -1.35 -7.95 0.75 0.25 2.4 7.7 6.1 20.55 12.35 33.4 15.1 L20.55 6.1 Q37.75 10.25 50.25 6.1 43.05 4.6 38.0 -1.25 39.35 1.35 40.2 4.35 35.45 -0.2 30.4 -3.8 L14.7 -19.75 19.2 -17.95 23.35 -15.85 Q31.6 -11.3 36.15 -4.45 48.2 3.95 61.4 3.5 59.0 9.1 54.4 13.1 54.5 25.1 18.9 28.85 L15.0 27.25 4.25 21.5 Q25.85 21.35 33.4 15.1" fill="#ffadb0" fill-rule="evenodd" stroke="none"/>
  </g>
</svg>
