<?xml version="1.0" encoding="UTF-8" standalone="no"?>
<svg xmlns:xlink="http://www.w3.org/1999/xlink" height="105.35px" width="70.65px" xmlns="http://www.w3.org/2000/svg">
  <g transform="matrix(1.0, 0.0, 0.0, 1.0, 35.35, 52.65)">
    <path d="M28.7 -42.7 Q26.15 -38.35 23.5 -32.15 17.4 -17.5 8.6 -3.4 L7.75 -2.05 5.15 2.0 Q-6.1 18.95 -20.1 28.4 -25.8 32.25 -28.3 37.05 L-29.6 40.0 Q-30.15 41.9 -30.35 43.95 -30.65 48.1 -29.15 52.7 -35.2 47.75 -35.35 40.6 -35.5 36.95 -34.05 32.75 -32.95 29.5 -31.05 26.05 -23.6 12.45 -12.05 -0.75 -6.2 -7.6 -3.3 -17.85 3.15 -40.6 27.1 -52.65 16.3 -42.5 12.95 -31.2 21.8 -44.6 35.3 -51.0 33.85 -49.95 32.45 -48.25 L28.7 -42.7" fill="#f060de" fill-rule="evenodd" stroke="none"/>
  </g>
</svg>
