<?xml version="1.0" encoding="UTF-8" standalone="no"?>
<svg xmlns:xlink="http://www.w3.org/1999/xlink" height="69.7px" width="124.25px" xmlns="http://www.w3.org/2000/svg">
  <g transform="matrix(1.0, 0.0, 0.0, 1.0, 62.85, 38.55)">
    <path d="M22.75 -8.9 Q21.6 -2.25 18.05 6.15 22.25 -16.8 21.95 -26.4 23.85 -15.55 22.75 -8.9 M37.8 -38.55 L39.15 -34.9 Q37.25 -38.5 37.8 -38.55 M47.3 -9.8 L43.65 -23.75 Q51.3 -5.65 61.4 12.1 50.4 1.9 47.3 -9.8 M-59.4 -1.15 Q-62.0 11.55 -60.4 31.15 -65.3 2.75 -60.4 -7.75 -55.55 -18.35 -49.4 -24.4 -56.8 -13.85 -59.4 -1.15 M-26.3 -22.5 Q-25.9 -21.45 -29.3 -11.35 -32.65 -1.35 -41.45 8.35 L-37.0 -1.05 Q-31.2 -12.15 -26.3 -22.5 M-1.2 9.0 Q-1.8 11.0 -9.15 25.6 -0.6 -6.1 0.95 -25.05 2.75 -5.7 -1.2 9.0" fill="#ffffff" fill-rule="evenodd" stroke="none"/>
  </g>
</svg>
