<?xml version="1.0" encoding="UTF-8" standalone="no"?>
<svg xmlns:xlink="http://www.w3.org/1999/xlink" height="98.5px" width="112.15px" xmlns="http://www.w3.org/2000/svg">
  <g transform="matrix(1.0, 0.0, 0.0, 1.0, 48.45, 37.45)">
    <path d="M35.9 -14.1 Q38.7 -21.65 35.9 -31.55 43.15 -21.1 41.55 -13.45 L35.9 -14.1 M6.8 -15.9 Q14.75 -23.35 18.6 -36.6 18.15 -25.45 15.15 -16.3 L6.8 -15.9 M50.55 -10.6 Q54.85 -10.2 54.9 -21.6 L58.35 -14.55 Q60.55 -23.55 55.55 -37.45 64.3 -25.35 63.65 -12.65 L62.55 -7.4 60.6 -12.85 59.7 -5.4 50.55 -10.6 M38.95 58.9 Q49.1 45.75 54.25 26.8 54.25 40.6 49.45 53.8 L38.95 58.9 M-34.05 -11.6 L-39.7 -10.5 Q-41.0 -18.05 -37.6 -25.65 -37.35 -18.6 -34.05 -11.6 M-48.45 27.75 Q-43.95 44.4 -30.1 61.05 L-38.4 56.95 Q-46.5 41.9 -48.45 27.75" fill="#88d7a0" fill-rule="evenodd" stroke="none"/>
  </g>
</svg>
