<?xml version="1.0" encoding="UTF-8" standalone="no"?>
<svg xmlns:xlink="http://www.w3.org/1999/xlink" height="57.65px" width="111.6px" xmlns="http://www.w3.org/2000/svg">
  <g transform="matrix(1.0, 0.0, 0.0, 1.0, 55.55, 30.0)">
    <path d="M43.55 -24.35 Q52.3 -12.2 55.6 0.95 57.75 16.75 49.1 26.75 58.35 1.2 43.55 -24.35 M11.45 -30.0 Q22.9 -15.85 16.95 -3.1 16.55 -15.75 11.45 -30.0 M-0.5 21.55 Q4.15 -0.3 2.7 -28.45 8.6 -8.05 6.05 4.95 3.9 15.9 -0.5 21.55 M-43.7 -25.65 Q-54.85 0.6 -48.35 27.65 -57.75 13.45 -54.9 -1.65 -49.85 -17.1 -43.7 -25.65" fill="#ffffff" fill-rule="evenodd" stroke="none"/>
  </g>
</svg>
