<?xml version="1.0" encoding="UTF-8" standalone="no"?>
<svg xmlns:xlink="http://www.w3.org/1999/xlink" height="66.7px" width="124.8px" xmlns="http://www.w3.org/2000/svg">
  <g transform="matrix(1.0, 0.0, 0.0, 1.0, 62.4, 33.35)">
    <path d="M11.4 24.05 L11.0 24.65 7.65 31.6 Q19.3 28.5 23.45 16.6 L23.5 16.3 23.9 15.0 Q24.8 11.65 25.15 8.6 26.0 1.2 23.55 -4.75 21.85 -9.15 19.95 -12.8 12.65 -26.8 2.6 -31.0 M40.75 20.85 Q39.65 22.95 38.2 24.65 L37.8 25.2 Q34.7 30.3 31.65 32.35 L37.8 31.75 Q48.1 29.6 51.0 21.05 54.05 9.9 49.15 1.15 46.1 -4.3 39.9 -8.85 37.7 -12.65 34.95 -16.35 30.2 -22.45 23.85 -28.5 19.5 -31.85 15.25 -31.95 13.1 -32.0 11.0 -31.25 M14.85 -32.35 L15.25 -31.95 M34.95 -16.35 Q44.35 -6.9 61.4 -2.8 56.05 1.35 49.15 1.15 M1.7 24.45 Q-1.15 28.7 -6.65 30.8 L2.2 30.8 Q8.05 29.3 11.0 24.65 M23.45 16.6 Q21.55 25.85 19.15 31.0 31.45 31.95 37.8 25.2 M-43.9 -18.4 Q-42.15 7.25 -61.4 27.95 L-54.0 27.95 Q-49.35 24.6 -47.15 19.25 -47.5 23.8 -51.7 28.4 -44.75 30.75 -38.85 30.05 -36.6 28.45 -34.55 26.45 -28.55 20.4 -24.6 10.55 -23.2 7.15 -22.1 3.25 L-20.7 -2.35 -20.55 -3.1 Q-18.15 -16.75 -21.1 -24.75 -22.5 -28.55 -25.1 -31.0 M-10.0 19.45 Q-10.6 21.5 -12.05 23.8 L-16.1 31.6 Q-4.5 25.5 -1.5 8.9 L-1.2 7.3 Q-0.65 3.65 -0.45 -0.5 M-24.6 10.55 Q-27.5 21.6 -34.1 30.55 -24.6 31.8 -15.8 27.95 -13.5 25.8 -12.05 23.8 M-1.5 8.9 Q-1.0 23.25 -6.65 30.8" fill="none" stroke="#000000" stroke-linecap="round" stroke-linejoin="round" stroke-width="2.0"/>
  </g>
</svg>
