<?xml version="1.0" encoding="UTF-8" standalone="no"?>
<svg xmlns:xlink="http://www.w3.org/1999/xlink" height="196.6px" width="194.25px" xmlns="http://www.w3.org/2000/svg">
  <g transform="matrix(1.0, 0.0, 0.0, 1.0, 97.15, 98.3)">
    <path d="M80.6 -75.9 L81.25 -74.95 Q83.95 -70.65 85.75 -66.4 89.6 -57.45 89.3 -48.8 88.9 -35.6 74.95 -23.7 72.25 -23.25 69.8 -22.45 66.25 -21.25 63.25 -19.45 61.25 -18.25 59.55 -16.7 54.1 -15.55 48.05 -15.6 18.1 -20.6 20.0 -48.25 21.8 -73.85 32.6 -81.25 55.25 -99.2 65.7 -93.2 71.55 -89.8 80.6 -75.9 M-72.95 -66.4 Q-70.8 -70.65 -67.65 -74.95 L-66.9 -75.9 Q-56.3 -89.8 -49.6 -93.9 -29.15 -106.55 -7.7 -82.8 0.85 -74.05 0.9 -48.25 2.4 -20.6 -31.55 -15.6 L-44.5 -16.7 Q-46.4 -18.25 -48.65 -19.45 -51.95 -21.25 -55.95 -22.45 L-61.75 -23.7 Q-77.2 -35.6 -77.35 -48.8 -77.5 -57.45 -72.95 -66.4 M60.55 -10.45 L60.5 -10.45 60.65 -11.1 62.15 -12.1 65.15 -14.55 Q67.0 -15.75 69.2 -16.65 73.25 -18.4 78.5 -19.1 81.7 -14.9 84.15 -10.45 L84.2 -10.45 Q85.8 -7.2 87.0 -3.8 92.1 10.95 87.45 43.7 84.95 60.5 87.3 74.2 89.0 84.25 93.25 92.7 L93.55 93.4 Q94.95 96.5 97.1 98.3 78.15 94.3 78.15 68.05 77.25 88.15 61.45 95.05 73.7 82.7 69.15 54.65 68.2 48.6 66.35 41.85 L63.25 28.75 Q57.45 1.3 60.55 -10.45 M-65.85 -19.1 Q-56.8 -18.0 -50.9 -14.55 L-47.55 -12.1 -45.85 -11.1 Q-43.1 0.5 -52.5 28.75 -60.95 67.45 -49.75 86.0 -63.75 76.05 -61.55 54.65 -69.3 82.7 -56.6 95.05 -73.85 88.15 -73.0 68.05 -75.4 94.3 -97.15 98.3 -94.6 96.5 -92.7 93.4 L-92.3 92.7 Q-86.7 84.25 -83.85 74.2 -79.95 60.5 -81.2 43.7 -83.45 10.95 -76.2 -3.8 -72.25 -11.85 -65.85 -19.1" fill="url(#gradient0)" fill-rule="evenodd" stroke="none"/>
  </g>
  <defs>
    <linearGradient gradientTransform="matrix(0.0, 0.1231, -0.0109, 0.0, 97.95, -18.1)" gradientUnits="userSpaceOnUse" id="gradient0" spreadMethod="pad" x1="-819.2" x2="819.2">
      <stop offset="0.0" stop-color="#fff23c" stop-opacity="0.0"/>
      <stop offset="0.3803921568627451" stop-color="#fff23c" stop-opacity="0.84705883"/>
      <stop offset="0.6039215686274509" stop-color="#fff23c" stop-opacity="0.8"/>
      <stop offset="1.0" stop-color="#fff23c" stop-opacity="0.0"/>
    </linearGradient>
  </defs>
</svg>
