<?xml version="1.0" encoding="UTF-8" standalone="no"?>
<svg xmlns:xlink="http://www.w3.org/1999/xlink" height="198.6px" width="196.25px" xmlns="http://www.w3.org/2000/svg">
  <g transform="matrix(1.0, 0.0, 0.0, 1.0, 98.15, 99.3)">
    <path d="M59.55 -16.7 Q54.1 -15.55 48.05 -15.6 18.1 -20.6 20.0 -48.25 21.8 -73.85 32.6 -81.25 55.25 -99.2 65.7 -93.2 71.55 -89.8 80.6 -75.9 L81.25 -74.95 Q83.95 -70.65 85.75 -66.4 89.6 -57.45 89.3 -48.8 88.9 -35.6 74.95 -23.7 79.0 -22.55 78.5 -19.1 81.7 -14.9 84.2 -10.45 85.8 -7.2 87.0 -3.8 92.1 10.95 87.45 43.7 84.95 60.5 87.3 74.2 89.0 84.25 93.25 92.7 L93.55 93.4 Q94.95 96.5 97.1 98.3 78.15 94.3 78.15 68.05 77.25 88.15 61.45 95.05 73.7 82.7 69.15 54.65 68.2 48.6 66.35 41.85 L63.25 28.75 Q57.45 1.3 60.5 -10.45 L60.65 -11.1 Q58.0 -14.05 59.55 -16.7 61.25 -18.25 63.25 -19.45 66.25 -21.25 69.8 -22.45 72.25 -23.25 74.95 -23.7 M78.5 -19.1 Q73.25 -18.4 69.2 -16.65 67.0 -15.75 65.15 -14.55 L62.15 -12.1 60.65 -11.1 M78.15 68.05 Q79.1 61.0 78.3 53.1 M-44.5 -16.7 L-31.55 -15.6 Q2.4 -20.6 0.9 -48.25 0.85 -74.05 -7.7 -82.8 -29.15 -106.55 -49.6 -93.9 -56.3 -89.8 -66.9 -75.9 L-67.65 -74.95 Q-70.8 -70.65 -72.95 -66.4 -77.5 -57.45 -77.35 -48.8 -77.2 -35.6 -61.75 -23.7 -66.35 -22.55 -65.85 -19.1 -72.25 -11.85 -76.2 -3.8 -83.45 10.95 -81.2 43.7 -79.95 60.5 -83.85 74.2 -86.7 84.25 -92.3 92.7 L-92.7 93.4 Q-94.6 96.5 -97.15 98.3 -75.4 94.3 -73.0 68.05 -73.4 61.0 -71.7 53.1 M-50.9 -14.55 Q-56.8 -18.0 -65.85 -19.1 M-50.9 -14.55 L-47.55 -12.1 -45.85 -11.1 Q-42.85 -14.05 -44.5 -16.7 -46.4 -18.25 -48.65 -19.45 -51.95 -21.25 -55.95 -22.45 L-61.75 -23.7 M-52.5 28.75 Q-54.6 34.9 -57.25 41.85 -59.9 48.6 -61.55 54.65 -63.75 76.05 -49.75 86.0 -60.95 67.45 -52.5 28.75 -43.1 0.5 -45.85 -11.1 M-61.55 54.65 Q-69.3 82.7 -56.6 95.05 -73.85 88.15 -73.0 68.05" fill="none" stroke="#000000" stroke-linecap="round" stroke-linejoin="round" stroke-width="2.0"/>
    <path d="M59.55 -16.7 Q36.15 -18.55 30.1 -33.2 M69.2 -16.65 Q78.85 -6.2 78.9 16.75 M69.8 -22.45 Q72.95 -33.4 67.15 -49.2 M63.25 -19.45 Q52.2 -26.25 48.5 -38.5 M74.95 -23.7 Q87.4 -38.25 78.05 -59.95 M-61.75 -23.7 Q-75.5 -38.25 -64.4 -59.95 M-55.95 -22.45 Q-59.25 -33.4 -52.3 -49.2 M-48.65 -19.45 Q-36.0 -26.25 -31.55 -38.5 M-10.85 -33.2 Q-18.05 -18.55 -44.5 -16.7 M-70.0 5.85 Q-76.15 22.65 -72.2 42.85 M-59.65 31.3 Q-51.0 10.4 -50.9 -14.55" fill="none" stroke="#000000" stroke-linecap="round" stroke-linejoin="round" stroke-width="1.6"/>
  </g>
</svg>
