<?xml version="1.0" encoding="UTF-8" standalone="no"?>
<svg xmlns:xlink="http://www.w3.org/1999/xlink" height="226.2px" width="176.7px" xmlns="http://www.w3.org/2000/svg">
  <g transform="matrix(1.0, 0.0, 0.0, 1.0, 88.35, 113.1)">
    <path d="M63.7 0.6 Q66.85 7.95 69.1 14.95 80.45 50.4 70.45 77.5 95.65 43.45 83.3 11.7 71.0 -20.05 71.0 -33.4 68.7 -55.45 71.0 -75.15 64.1 -102.35 31.9 -110.3 0.15 -114.7 -27.45 -108.2 -48.1 -103.4 -52.95 -89.7 -55.15 -70.35 -64.3 -46.1 -73.55 -21.8 -80.45 -2.25 -97.7 47.0 -71.8 79.75 -77.25 47.85 -64.95 15.25 L-61.45 6.75 M31.35 25.1 Q32.3 36.85 31.9 47.5 L31.9 47.75 Q34.3 87.15 30.25 96.8 47.55 81.05 51.5 41.05 L51.5 40.8 Q50.85 30.6 49.05 19.0 M69.1 14.95 Q74.6 55.45 46.65 85.3 53.25 68.6 51.5 41.05 M-14.45 23.5 Q-12.05 32.9 -10.2 41.5 L8.8 112.1 Q30.3 88.1 31.9 47.75 M-46.75 18.45 L-47.9 24.1 -48.15 25.65 Q-49.1 47.4 -30.8 66.35 -12.5 85.3 -5.35 104.25 -1.85 81.4 -10.2 41.5 M-64.95 15.25 Q-74.9 62.75 -44.95 97.6 -56.85 72.75 -48.15 25.65" fill="none" stroke="#000000" stroke-linecap="round" stroke-linejoin="round" stroke-width="2.0"/>
  </g>
</svg>
