<?xml version="1.0" encoding="UTF-8" standalone="no"?>
<svg xmlns:xlink="http://www.w3.org/1999/xlink" height="35.95px" width="18.85px" xmlns="http://www.w3.org/2000/svg">
  <g transform="matrix(1.0, 0.0, 0.0, 1.0, 75.35, 16.0)">
    <path d="M-62.9 -12.75 Q-60.3 -8.5 -58.35 -3.45 L-57.5 -1.05 Q-56.25 2.8 -56.6 5.75 -57.1 9.25 -59.85 11.5 L-60.2 11.75 -62.1 12.7 -65.0 13.2 -65.35 13.15 Q-66.7 16.5 -68.05 18.35 L-69.6 19.95 -70.4 18.9 Q-72.35 15.7 -70.1 11.6 L-71.15 10.95 -72.1 10.15 Q-73.4 8.7 -74.2 7.15 L-74.85 5.55 Q-75.35 4.05 -75.35 2.55 -75.3 -1.25 -72.25 -5.3 L-70.75 -7.1 -67.5 -10.8 Q-66.1 -12.85 -65.5 -14.6 L-65.15 -16.0 -62.9 -12.75" fill="#7ce25d" fill-rule="evenodd" stroke="none"/>
  </g>
</svg>
