<?xml version="1.0" encoding="UTF-8" standalone="no"?>
<svg xmlns:xlink="http://www.w3.org/1999/xlink" height="179.1px" width="127.5px" xmlns="http://www.w3.org/2000/svg">
  <g transform="matrix(1.0, 0.0, 0.0, 1.0, 63.75, 89.55)">
    <path d="M-32.3 -76.85 Q-28.35 -90.55 -14.05 -88.85 0.55 -86.5 0.1 -71.8 2.15 -39.55 -2.85 1.45 -7.2 44.15 -26.9 76.55 -37.8 95.85 -55.1 86.55 -70.15 76.0 -59.0 42.35 -45.25 4.75 -40.9 -12.5 -36.55 -29.8 -32.3 -76.85 M4.35 -46.1 Q3.7 -87.0 17.6 -89.2 26.3 -91.25 33.9 -81.05 L40.2 -35.2 Q45.45 -1.15 52.9 19.5 60.3 40.15 63.25 60.35 66.2 80.5 51.6 85.5 30.65 88.9 19.25 52.35 4.95 -5.25 4.35 -46.1" fill="url(#gradient0)" fill-rule="evenodd" stroke="none"/>
  </g>
  <defs>
    <linearGradient gradientTransform="matrix(0.0, 0.1173, -0.0286, 0.0, 46.9, -34.15)" gradientUnits="userSpaceOnUse" id="gradient0" spreadMethod="pad" x1="-819.2" x2="819.2">
      <stop offset="0.0" stop-color="#fff23c" stop-opacity="0.0"/>
      <stop offset="0.3803921568627451" stop-color="#fff23c" stop-opacity="0.84705883"/>
      <stop offset="0.6039215686274509" stop-color="#fff23c" stop-opacity="0.8"/>
      <stop offset="1.0" stop-color="#fff23c" stop-opacity="0.0"/>
    </linearGradient>
  </defs>
</svg>
