<?xml version="1.0" encoding="UTF-8" standalone="no"?>
<svg xmlns:xlink="http://www.w3.org/1999/xlink" height="125.1px" width="170.35px" xmlns="http://www.w3.org/2000/svg">
  <g transform="matrix(1.0, 0.0, 0.0, 1.0, 85.2, 62.55)">
    <path d="M-73.2 5.05 Q-76.45 14.85 -84.2 17.4 -75.6 11.75 -77.95 -4.2 -79.25 -20.3 -69.9 -45.1 -38.35 -60.7 -1.25 -61.5 35.85 -62.3 58.55 -47.05 L61.85 -44.8 Q71.85 -21.65 71.95 -8.1 72.0 3.4 80.8 17.95 89.6 32.5 75.4 43.9 86.85 30.7 69.35 8.6 77.4 21.35 72.45 29.85 72.6 19.45 65.8 8.75 60.15 18.1 69.05 31.55 77.85 44.95 63.5 51.35 73.75 43.0 67.75 33.0 L59.35 19.1 Q55.8 12.7 56.75 -0.6 49.45 11.65 57.6 29.65 64.5 44.8 50.65 53.65 60.7 42.65 54.5 31.45 52.7 28.2 51.3 24.3 56.5 50.65 35.3 61.55 39.4 57.35 43.25 47.1 47.05 36.8 42.95 28.15 39.15 20.2 39.3 11.3 38.1 40.4 25.1 59.6 30.9 42.55 14.65 13.0 1.45 38.95 5.2 58.55 -2.6 47.75 -9.8 19.7 -4.3 50.7 -12.25 60.9 -11.35 53.35 -15.85 46.65 -20.5 40.4 -22.75 30.85 -26.8 43.7 -22.85 55.4 -27.9 52.8 -29.65 46.9 -31.95 52.9 -40.45 55.85 -27.85 45.7 -42.5 32.4 -41.4 34.05 -40.6 35.65 -38.35 40.45 -39.55 45.2 L-36.1 48.75 -40.4 47.4 Q-42.0 50.55 -45.6 52.9 -43.45 49.45 -42.8 46.2 -47.25 43.7 -50.55 39.3 L-50.6 39.25 Q-51.3 47.15 -60.15 50.25 -50.0 44.2 -59.35 28.8 L-59.4 28.8 Q-59.65 41.85 -68.1 44.95 -61.0 39.3 -65.75 27.9 -70.9 17.6 -73.2 5.05 -75.45 -11.4 -70.8 -27.25 M51.3 24.3 Q47.95 14.95 47.05 1.95 M39.3 11.3 L39.35 9.95 M-29.65 46.9 Q-28.25 43.2 -29.15 38.45 -30.7 32.85 -33.4 29.05 L-35.3 26.75 Q-48.75 12.6 -48.7 0.3 M-33.4 29.05 Q-33.35 19.0 -39.2 11.7 M-22.75 30.85 L-22.75 30.75 Q-17.65 14.95 -31.15 -5.0 M-58.8 6.85 Q-54.05 20.6 -48.45 25.7 -44.75 29.1 -42.5 32.4 M-42.75 41.3 Q-43.35 37.95 -46.15 34.55 L-46.2 34.5 Q-45.2 37.95 -42.75 41.3 L-39.55 45.2 M-65.35 -19.55 Q-77.2 2.8 -59.4 28.8 L-59.4 28.75 -59.35 28.8 M-46.2 34.5 Q-49.9 30.8 -52.8 27.05 -50.5 32.5 -50.55 39.3 M-52.8 27.05 Q-58.6 19.7 -61.45 12.2 -66.7 -1.25 -62.7 -15.3 M-42.8 46.2 L-40.4 47.4 M-60.6 -11.85 Q-55.9 -3.05 -61.45 12.2 M-9.8 19.7 Q-11.75 8.85 -15.35 -4.55 -12.65 8.85 -9.8 19.7" fill="none" stroke="#000000" stroke-linecap="round" stroke-linejoin="round" stroke-width="2.0"/>
  </g>
</svg>
