<?xml version="1.0" encoding="UTF-8" standalone="no"?>
<svg xmlns:xlink="http://www.w3.org/1999/xlink" height="88.3px" width="147.85px" xmlns="http://www.w3.org/2000/svg">
  <g transform="matrix(1.0, 0.0, 0.0, 1.0, 73.95, 44.15)">
    <path d="M-63.5 13.9 Q-69.9 -1.95 -57.8 -19.3 -64.45 -10.8 -73.95 -8.45 -64.45 -16.3 -59.2 -33.0 -46.6 -41.65 -27.4 -43.4 -8.2 -45.15 15.2 -42.75 54.4 -34.65 73.25 -8.8 77.45 30.5 54.4 38.5 56.65 35.75 58.1 32.85 L58.15 32.75 58.15 32.7 Q58.85 29.1 60.25 24.55 58.85 28.65 55.7 32.95 51.6 38.3 49.25 43.45 49.0 40.4 51.45 35.6 47.2 41.05 41.8 42.35 48.55 33.75 47.4 25.1 45.9 35.0 37.65 42.2 36.6 34.4 31.0 27.4 28.55 35.9 31.75 43.6 21.6 38.1 16.5 28.65 14.85 37.1 19.45 44.1 0.65 40.65 -1.75 31.35 -1.4 40.25 0.45 44.15 -3.75 39.7 -9.95 37.75 -16.2 35.6 -25.9 26.95 -22.45 31.05 -22.1 35.5 -29.1 28.45 -38.1 24.8 -33.05 29.45 -30.05 36.65 -36.6 29.1 -43.35 26.2 -56.3 20.3 -52.3 -5.1 -60.15 10.9 -51.35 25.05 -60.35 21.95 -63.5 13.9" fill="url(#gradient0)" fill-rule="evenodd" stroke="none"/>
  </g>
  <defs>
    <linearGradient gradientTransform="matrix(0.0062, 0.1006, -0.0294, 0.0018, 58.0, 9.4)" gradientUnits="userSpaceOnUse" id="gradient0" spreadMethod="pad" x1="-819.2" x2="819.2">
      <stop offset="0.0" stop-color="#fff23c" stop-opacity="0.0"/>
      <stop offset="0.3803921568627451" stop-color="#fff23c" stop-opacity="0.84705883"/>
      <stop offset="0.6039215686274509" stop-color="#fff23c" stop-opacity="0.8"/>
      <stop offset="1.0" stop-color="#fff23c" stop-opacity="0.0"/>
    </linearGradient>
  </defs>
</svg>
