<?xml version="1.0" encoding="UTF-8" standalone="no"?>
<svg xmlns:xlink="http://www.w3.org/1999/xlink" height="44.95px" width="23.8px" xmlns="http://www.w3.org/2000/svg">
  <g transform="matrix(1.0, 0.0, 0.0, 1.0, 11.9, 22.45)">
    <path d="M-11.65 7.75 L-11.9 2.05 Q-1.4 5.2 7.9 2.55 L7.55 7.85 Q-2.7 11.55 -11.65 7.75 M-9.85 17.7 L-10.85 14.35 Q0.55 17.1 7.65 13.8 L7.65 13.85 7.75 14.95 7.8 15.2 8.05 16.6 8.55 18.9 Q3.7 16.25 -4.8 22.5 L-5.75 22.1 Q-7.3 21.35 -8.25 20.35 L-8.7 19.8 -9.85 17.7 M-11.55 -9.55 L-11.45 -10.55 Q-1.4 -7.7 9.75 -9.4 L9.5 -8.25 8.7 -3.5 Q-0.2 -1.1 -11.85 -4.0 L-11.55 -9.55 M-10.3 -22.15 L-10.25 -22.45 Q3.2 -20.05 11.9 -21.0 L11.5 -18.3 11.45 -18.05 11.35 -17.6 11.0 -15.65 Q-0.3 -13.85 -10.75 -17.05 L-10.55 -19.1 -10.3 -22.15" fill="#8ee772" fill-rule="evenodd" stroke="none"/>
  </g>
</svg>
