<?xml version="1.0" encoding="UTF-8" standalone="no"?>
<svg xmlns:xlink="http://www.w3.org/1999/xlink" height="14.2px" width="16.2px" xmlns="http://www.w3.org/2000/svg">
  <g transform="matrix(1.0, 0.0, 0.0, 1.0, 8.1, 7.1)">
    <path d="M5.75 -5.35 Q4.45 -5.95 3.65 -6.95 L7.6 -7.1 Q6.85 -6.05 5.75 -5.35 M6.25 7.1 Q3.7 6.6 2.25 4.9 1.6 3.75 3.0 3.25 4.1 2.95 5.05 4.0 5.0 2.8 6.25 2.7 7.9 2.7 8.1 3.95 8.15 5.85 6.25 7.1 M-5.25 2.0 Q-7.25 0.55 -8.05 -2.2 L-8.1 -2.65 Q-8.25 -4.2 -7.1 -4.55 -6.05 -4.65 -5.45 -2.75 -5.15 -4.65 -3.95 -4.55 -2.55 -4.15 -2.5 -2.4 L-2.55 -1.9 Q-3.25 1.0 -5.25 2.0" fill="#62ee95" fill-rule="evenodd" stroke="none"/>
  </g>
</svg>
