<?xml version="1.0" encoding="UTF-8" standalone="no"?>
<svg xmlns:xlink="http://www.w3.org/1999/xlink" height="52.05px" width="25.65px" xmlns="http://www.w3.org/2000/svg">
  <g transform="matrix(1.0, 0.0, 0.0, 1.0, 12.8, 25.85)">
    <path d="M6.85 -16.65 Q10.1 -16.85 11.75 -17.45 12.1 -14.5 11.1 -12.85 L10.8 -12.7 10.75 -12.5 10.35 -10.5 10.25 -9.85 9.6 -6.65 8.6 -0.4 8.15 3.05 8.0 4.15 Q7.55 9.7 7.55 12.0 L7.55 12.25 7.75 15.45 7.85 16.55 7.9 16.8 8.15 18.2 8.65 20.6 9.05 22.45 Q9.75 25.45 2.1 25.2 L0.15 25.05 Q-3.4 24.7 -5.65 23.7 L-8.15 21.95 -8.6 21.4 -9.75 19.3 Q-11.0 16.4 -11.35 11.75 L-11.4 11.3 Q-11.8 6.45 -11.8 2.15 L-11.8 1.95 Q-11.9 -3.35 -11.45 -7.95 L-11.3 -9.65 -11.0 -12.35 -10.95 -12.55 -10.8 -13.95 -11.05 -14.1 Q-11.45 -16.9 -10.5 -18.95 -7.15 -17.35 2.15 -16.6 L2.65 -16.6 Q5.0 -16.55 6.85 -16.65 M10.8 -12.7 Q8.3 -11.6 2.85 -11.7 -6.65 -12.2 -10.8 -13.95" fill="none" stroke="#000000" stroke-linecap="round" stroke-linejoin="round" stroke-width="2.0"/>
    <path d="M2.15 -16.6 Q2.8 -20.9 2.95 -25.15 M6.85 -16.65 Q7.5 -19.7 7.5 -24.85" fill="none" stroke="#000000" stroke-linecap="round" stroke-linejoin="round" stroke-width="1.4000000000000001"/>
  </g>
</svg>
