<?xml version="1.0" encoding="UTF-8" standalone="no"?>
<svg xmlns:xlink="http://www.w3.org/1999/xlink" height="17.0px" width="19.65px" xmlns="http://www.w3.org/2000/svg">
  <g transform="matrix(1.0, 0.0, 0.0, 1.0, 9.8, 8.5)">
    <path d="M2.0 -3.5 L0.25 -4.0 -1.65 -4.65 Q-3.15 -5.2 -4.15 -5.8 L-4.45 -6.0 Q-5.55 -6.9 -4.5 -7.95 -3.85 -8.1 -3.3 -7.7 L-2.5 -6.65 Q-0.25 -7.7 0.5 -5.35 2.8 -6.85 3.9 -4.65 6.2 -5.05 7.0 -4.15 L8.4 -4.25 9.1 -3.7 Q9.9 -2.7 8.15 -2.35 L7.85 -2.4 2.0 -3.5 M-1.2 -1.1 L-0.5 -0.9 0.25 -0.7 2.75 -0.15 3.8 0.05 5.35 0.3 6.45 0.5 6.85 0.55 7.3 0.6 6.45 3.25 5.4 5.75 Q6.3 6.6 6.1 7.35 L4.35 7.5 3.85 7.2 Q2.45 8.85 0.45 7.0 -1.25 7.95 -2.5 7.3 -3.8 6.55 -3.75 6.0 -7.05 6.4 -7.05 4.35 L-8.25 4.4 Q-9.1 4.2 -9.25 3.45 -9.55 2.3 -7.8 1.85 L-7.85 1.85 -6.9 -0.85 -5.85 -3.45 -4.65 -6.1 -4.45 -6.0 M8.1 -1.95 L8.2 -2.35 8.15 -2.35 M-1.2 -1.1 L-2.95 -1.7 -3.4 -1.9 -5.25 -2.9 -5.35 -3.0 -5.85 -3.45 M8.1 -1.95 L7.3 0.6 M5.65 3.15 L5.95 3.2 6.45 3.25 M1.8 2.5 L3.0 2.75 5.65 3.15 M4.95 5.75 L5.0 5.75 5.4 5.75 M0.0 5.3 L4.95 5.75 M-1.0 1.9 L-0.25 2.1 1.8 2.5 M-6.9 -0.85 L-6.45 -0.35 -4.95 0.6 -4.35 0.85 -2.15 1.6 -1.45 1.8 -1.0 1.9 M-1.85 4.9 L-1.2 5.05 0.0 5.3 M-3.65 4.35 L-1.85 4.9 M-3.65 4.35 L-5.25 3.7 -6.5 2.95 -7.45 2.2 -7.8 1.85" fill="none" stroke="#000000" stroke-linecap="round" stroke-linejoin="round" stroke-width="1.0"/>
    <path d="M0.25 -4.0 L-3.0 -2.0 M1.2 -0.85 L4.0 -2.8 M5.35 0.3 L8.1 -1.95 M2.0 -3.5 L-1.2 -1.1 M3.55 -0.35 L6.3 -2.3 M4.55 3.4 L4.95 5.75 M3.1 3.2 L3.45 5.35 M1.45 2.8 L1.85 5.25 M-4.55 -2.8 L-1.65 -4.65 M-5.15 -3.9 L-3.3 -5.0 M0.0 5.3 L-0.25 2.1 M-1.85 4.9 L-2.15 1.6 M-4.0 1.3 L-3.65 4.35 M-5.65 0.7 L-5.25 3.7 M-6.75 -0.1 L-6.5 2.95" fill="none" stroke="#000000" stroke-linecap="round" stroke-linejoin="round" stroke-opacity="0.4" stroke-width="0.30000000000000004"/>
    <path d="M-2.95 -1.7 L-2.3 -0.05 -0.5 -0.9 M3.0 2.75 L4.7 1.65 3.8 0.05 M2.75 -0.15 L0.95 0.9 1.8 2.5 M5.65 3.15 L4.7 1.65 6.45 0.5 M0.25 -0.7 L0.95 0.9 -1.0 1.9 M-4.95 0.6 L-5.05 -1.3 -6.5 -0.8 M-5.25 -2.9 L-5.05 -1.3 -3.4 -1.9 M-1.45 1.8 L-2.3 -0.05 -4.35 0.85" fill="none" stroke="#000000" stroke-linecap="round" stroke-linejoin="round" stroke-width="0.8"/>
  </g>
</svg>
