<?xml version="1.0" encoding="UTF-8" standalone="no"?>
<svg xmlns:xlink="http://www.w3.org/1999/xlink" height="9.75px" width="15.5px" xmlns="http://www.w3.org/2000/svg">
  <g transform="matrix(1.0, 0.0, 0.0, 1.0, 0.0, 0.0)">
    <path d="M11.05 3.6 L10.8 4.0 13.1 4.5 13.2 4.55 13.45 4.65 15.5 4.6 Q15.05 5.45 13.95 5.95 L10.1 5.0 7.5 4.15 4.7 3.15 2.4 2.1 2.25 0.0 Q3.1 0.85 4.6 1.3 L4.6 1.85 Q6.2 1.85 8.0 2.65 L7.95 2.9 Q9.35 3.5 11.05 3.6 M1.75 4.4 L3.65 5.2 5.8 6.0 8.75 6.95 11.2 7.6 13.1 8.05 13.15 9.65 10.85 9.75 Q9.1 9.55 7.8 8.85 6.5 8.1 5.05 8.05 3.25 7.6 2.25 6.65 1.3 5.85 0.0 5.45 0.55 4.8 1.75 4.4" fill="#f8fdfd" fill-rule="evenodd" stroke="none"/>
  </g>
</svg>
