<?xml version="1.0" encoding="UTF-8" standalone="no"?>
<svg xmlns:xlink="http://www.w3.org/1999/xlink" height="10.05px" width="15.7px" xmlns="http://www.w3.org/2000/svg">
  <g transform="matrix(1.0, 0.0, 0.0, 1.0, 0.4, 0.4)">
    <path d="M10.15 4.5 L10.95 4.3 11.3 4.8 14.9 4.4 14.2 6.2 12.35 6.45 13.5 7.45 12.75 9.25 10.15 7.2 9.95 7.3 9.55 6.75 0.0 6.2 1.0 4.1 Q3.85 4.95 7.6 5.0 4.85 2.8 2.0 2.1 L3.15 0.0 Q6.9 1.6 10.15 4.5 L8.3 5.0 9.55 6.75 M11.75 6.55 L12.35 6.45 12.2 6.35 11.75 6.55 10.15 7.2 M11.3 4.8 L12.4 6.3 12.2 6.35 M7.6 5.0 L8.3 5.0" fill="none" stroke="#000000" stroke-linecap="round" stroke-linejoin="round" stroke-width="0.8"/>
    <path d="M10.3 6.4 L9.75 5.55 10.75 5.25 11.2 6.05 10.3 6.4" fill="none" stroke="#000000" stroke-linecap="round" stroke-linejoin="round" stroke-width="0.30000000000000004"/>
  </g>
</svg>
