<?xml version="1.0" encoding="UTF-8" standalone="no"?>
<svg xmlns:xlink="http://www.w3.org/1999/xlink" height="43.3px" width="109.5px" xmlns="http://www.w3.org/2000/svg">
  <g transform="matrix(1.0, 0.0, 0.0, 1.0, 54.75, 21.65)">
    <path d="M47.55 -19.45 Q54.15 -18.25 54.75 -10.7 L53.25 14.7 Q51.85 22.2 41.35 21.5 L23.3 21.5 Q18.4 20.9 14.95 16.7 10.7 14.65 7.45 16.7 3.4 20.7 -0.55 21.35 L-2.0 21.4 -9.1 21.6 -15.8 21.65 -24.6 21.55 -32.6 21.25 -42.2 20.55 -44.55 20.3 Q-51.95 16.75 -53.7 10.95 L-54.0 9.85 -54.75 -9.25 Q-54.85 -12.1 -54.1 -14.3 -53.25 -17.05 -51.25 -18.75 -48.75 -21.05 -44.25 -21.65 L47.55 -19.45" fill="#74875f" fill-rule="evenodd" stroke="none"/>
  </g>
</svg>
