<?xml version="1.0" encoding="UTF-8" standalone="no"?>
<svg xmlns:xlink="http://www.w3.org/1999/xlink" height="45.8px" width="46.3px" xmlns="http://www.w3.org/2000/svg">
  <g transform="matrix(1.0, 0.0, 0.0, 1.0, 23.15, 22.9)">
    <path d="M-21.25 -17.8 Q-20.5 -19.35 -19.3 -20.35 -18.05 -21.45 -16.25 -21.85 -3.05 -23.9 15.75 -21.85 17.7 -21.3 19.1 -20.25 L20.85 -18.25 Q22.05 -16.35 22.2 -13.55 23.85 2.5 22.6 11.75 L21.6 16.3 Q20.75 18.85 19.45 20.2 18.3 21.4 16.75 21.65 0.3 24.1 -15.15 21.8 -16.8 21.25 -18.1 20.25 -19.4 19.25 -20.3 17.9 -22.45 14.75 -22.85 9.55 -23.65 -0.4 -22.3 -14.55 -21.95 -16.4 -21.25 -17.8" fill="#83fcb6" fill-rule="evenodd" stroke="none"/>
  </g>
</svg>
