<?xml version="1.0" encoding="UTF-8" standalone="no"?>
<svg xmlns:xlink="http://www.w3.org/1999/xlink" height="100.45px" width="104.15px" xmlns="http://www.w3.org/2000/svg">
  <g transform="matrix(1.0, 0.0, 0.0, 1.0, 52.1, 50.25)">
    <path d="M-52.1 -46.85 Q-52.45 -48.5 -46.6 -50.25 -20.2 -37.1 -1.55 -22.25 14.3 -9.7 24.5 4.1 36.2 3.3 49.9 7.85 52.1 8.65 52.05 11.75 52.05 13.35 51.4 15.5 49.65 21.9 51.05 31.25 52.15 36.5 47.55 36.05 41.35 36.35 38.25 35.95 43.45 41.45 45.8 46.95 44.45 49.65 41.45 50.2 35.6 40.9 29.75 36.3 L22.65 36.75 Q16.1 36.75 14.5 29.3 12.95 20.45 13.9 11.75 L14.1 10.3 Q14.75 7.2 18.55 6.0 7.3 -7.8 -9.7 -20.65 -27.65 -34.3 -52.1 -46.85" fill="url(#gradient0)" fill-rule="evenodd" stroke="none"/>
  </g>
  <defs>
    <linearGradient gradientTransform="matrix(-0.013, -0.0158, 0.021, -0.0172, 38.0, 27.85)" gradientUnits="userSpaceOnUse" id="gradient0" spreadMethod="pad" x1="-819.2" x2="819.2">
      <stop offset="0.0" stop-color="#00ffff"/>
      <stop offset="1.0" stop-color="#00ffff" stop-opacity="0.0"/>
    </linearGradient>
  </defs>
</svg>
