<?xml version="1.0" encoding="UTF-8" standalone="no"?>
<svg xmlns:xlink="http://www.w3.org/1999/xlink" height="40.8px" width="73.65px" xmlns="http://www.w3.org/2000/svg">
  <g transform="matrix(1.0, 0.0, 0.0, 1.0, 36.8, 20.4)">
    <path d="M32.2 0.1 L32.7 0.15 29.85 -5.3 Q25.45 -12.95 19.65 -19.4 14.6 -14.8 0.15 -15.5 -13.45 -16.1 -19.3 -19.15 -24.5 -13.75 -28.05 -7.5 L-30.55 -2.95 Q-30.1 -1.25 -29.25 0.1 L-32.75 4.8 -35.8 8.95 Q-33.8 15.25 -26.55 16.65 M35.25 12.0 L35.85 12.05 32.65 6.6 29.7 2.4 32.2 0.1 M35.25 12.0 L31.75 14.8 M11.0 17.95 Q18.0 19.25 25.6 17.35 M-17.15 17.05 L-17.4 17.25 -17.2 17.35 Q-7.5 21.0 2.4 18.1" fill="none" stroke="#000000" stroke-linecap="round" stroke-linejoin="round" stroke-width="2.0"/>
    <path d="M0.55 -12.4 L-1.1 -3.55 -1.25 -2.5 -1.8 0.8 -2.25 3.3 -1.3 3.1 2.6 2.2 Q6.0 1.45 9.55 2.15 L9.85 2.25 Q11.85 2.65 15.05 3.75 16.3 4.5 14.8 0.85 L13.5 -2.2 12.55 -4.15 8.6 -11.85 M15.05 3.75 L10.8 6.0 12.2 6.3 Q15.95 6.85 19.95 6.25 L23.65 5.45 23.55 4.75 21.1 2.6 20.35 -0.3 19.75 -2.25 18.5 -5.95 15.75 -13.55 M-29.25 0.1 Q-27.75 2.55 -25.15 3.85 L-22.4 4.7 Q-23.15 3.25 -24.05 2.2 L-25.55 0.9 -25.45 0.9 -24.05 -2.35 -23.1 -4.35 -21.9 -6.7 -17.35 -14.3 M29.7 2.4 L29.15 2.85 27.2 0.05 Q25.4 0.25 23.1 1.45 L23.55 4.75 M21.1 2.6 L23.1 1.45 M25.6 17.35 L25.5 16.7 22.75 14.5 21.85 11.65 21.2 9.65 19.95 6.25 M22.75 14.5 L24.95 13.35 Q27.6 12.2 29.6 11.95 33.35 11.4 35.25 12.0 M31.75 14.8 L29.6 11.95 M25.5 16.7 L25.4 15.7 24.95 13.35 M32.2 0.1 L27.8 -0.05 27.2 0.05 M2.6 2.2 L3.2 6.2 -2.2 7.35 -2.8 10.4 -3.25 12.7 -3.7 15.2 1.75 14.15 Q5.6 13.35 9.55 14.1 11.9 14.45 15.85 15.65 17.25 16.4 15.6 12.75 L14.1 9.75 12.2 6.3 M-3.7 15.2 Q-0.6 16.85 2.4 18.1 L1.75 14.15 M15.85 15.65 L11.0 17.95 9.55 14.1 M10.8 6.0 L9.55 2.15 M-25.45 0.9 L-22.6 0.0 -19.5 -0.2 Q-16.8 0.0 -13.6 1.7 L-12.1 2.35 -8.15 3.5 -8.55 0.8 -8.95 -2.4 -9.15 -4.15 -9.85 -12.6 M3.2 6.2 Q0.85 5.15 -1.45 3.75 L-2.25 3.3 M-14.1 5.15 L-14.3 5.35 -14.15 5.4 -14.1 5.15 -13.6 1.7 M-8.15 3.5 L-11.95 4.15 Q-13.7 4.65 -14.1 5.15 M-14.15 5.4 L-11.7 6.35 Q-6.95 7.85 -2.2 7.35 M-25.15 3.85 L-27.35 7.55 -28.45 9.55 -30.05 12.8 Q-26.7 11.5 -23.25 11.7 -20.2 11.9 -16.6 13.6 L-10.45 15.45 -10.85 12.7 -11.3 9.5 -11.7 6.35 M-17.2 17.35 L-17.15 17.05 -16.6 13.6 M-10.45 15.45 Q-16.3 16.1 -17.15 17.05 M-32.75 4.8 L-32.95 4.4 M-26.55 16.65 Q-28.05 14.1 -30.15 12.8 L-30.05 12.8 M-23.25 11.7 L-26.55 16.65 M-22.4 4.7 L-19.5 -0.2" fill="none" stroke="#000000" stroke-linecap="round" stroke-linejoin="round" stroke-width="1.3"/>
  </g>
</svg>
