<?xml version="1.0" encoding="UTF-8" standalone="no"?>
<svg xmlns:xlink="http://www.w3.org/1999/xlink" height="55.6px" width="95.6px" xmlns="http://www.w3.org/2000/svg">
  <g transform="matrix(1.0, 0.0, 0.0, 1.0, 47.8, 27.8)">
    <path d="M25.75 22.45 L28.9 23.75 Q24.55 27.5 18.9 25.45 L20.4 23.45 20.45 23.35 20.4 23.35 Q11.05 22.0 2.1 25.2 L3.25 26.2 Q-2.35 29.4 -8.8 26.1 L-7.5 24.85 Q-15.9 21.4 -25.75 22.3 L-25.35 25.05 Q-31.45 25.6 -35.55 21.55 L-34.35 19.9 -34.45 19.85 -34.55 19.75 -34.7 19.65 Q-41.55 15.2 -47.8 13.3 L-42.65 6.6 Q-34.25 -4.0 -23.95 -15.0 L-18.35 -27.8 Q1.9 -19.55 15.65 -27.6 L20.85 -14.85 Q34.25 0.1 41.2 8.75 L44.6 13.15 47.8 16.4 Q45.0 19.1 41.2 18.75 L41.2 16.75 Q33.35 18.25 25.75 22.45 L25.65 22.4 25.7 22.45 25.75 22.45" fill="#c94fa6" fill-rule="evenodd" stroke="none"/>
  </g>
</svg>
