<?xml version="1.0" encoding="UTF-8" standalone="no"?>
<svg xmlns:xlink="http://www.w3.org/1999/xlink" height="13.75px" width="47.9px" xmlns="http://www.w3.org/2000/svg">
  <g transform="matrix(1.0, 0.0, 0.0, 1.0, 23.95, 6.9)">
    <path d="M4.95 -1.0 L2.9 -0.9 2.95 1.45 5.05 1.4 4.95 -1.0 7.0 -1.1 7.2 1.25 7.25 2.35 7.25 2.45 7.3 2.9 5.2 3.05 3.0 3.15 2.95 1.45 M14.65 -4.0 L15.0 0.45 19.35 -0.35 18.8 -4.9 M10.15 -3.5 L10.45 1.0 15.0 0.45 15.3 4.8 M19.85 3.9 L19.35 -0.35 23.05 -1.55 M-0.5 -3.25 L-0.3 1.4 -0.15 5.65 M10.7 5.4 L10.45 1.0 M5.05 1.4 L7.2 1.25 M5.05 1.4 L5.2 3.05 M-23.15 0.05 L-19.05 0.75 -18.95 -4.0 M-0.3 1.4 L-5.25 1.35 -5.15 3.15 -5.1 3.7 -5.1 4.05 -5.0 5.2 -5.0 5.5 M-10.1 -3.35 L-10.0 1.2 -5.25 1.35 -5.4 -3.3 M-10.0 5.2 L-10.0 1.2 -14.65 0.95 -14.7 4.9 M-19.05 0.75 L-14.65 0.95 -14.65 -3.6 M-19.05 0.75 L-19.2 4.55" fill="none" stroke="#000000" stroke-linecap="round" stroke-linejoin="round" stroke-width="0.7000000000000001"/>
    <path d="M18.8 -4.9 L14.65 -4.0 10.15 -3.5 10.1 -3.95 -0.5 -3.5 -0.5 -3.25 -5.4 -3.3 -10.1 -3.35 -14.65 -3.6 -16.45 -3.7 -18.95 -4.0 -21.75 -4.45 Q-23.0 -2.1 -23.15 0.05 -23.4 2.2 -22.6 4.2 L-19.2 4.55 -14.7 4.9 -10.0 5.2 -8.6 5.3 -5.0 5.5 -2.65 5.6 -0.15 5.65 -0.15 6.1 10.7 5.45 10.7 5.4 12.05 5.25 12.1 5.25 15.3 4.8 19.85 3.9 21.1 3.5 23.05 2.6 23.2 0.8 23.05 -1.55 Q22.8 -3.85 21.7 -6.15 20.7 -5.45 18.8 -4.9" fill="none" stroke="#000000" stroke-linecap="round" stroke-linejoin="round" stroke-width="1.5"/>
  </g>
</svg>
