<?xml version="1.0" encoding="UTF-8" standalone="no"?>
<svg xmlns:xlink="http://www.w3.org/1999/xlink" height="36.15px" width="73.85px" xmlns="http://www.w3.org/2000/svg">
  <g transform="matrix(1.0, 0.0, 0.0, 1.0, 36.9, 18.05)">
    <path d="M16.4 -18.05 L18.3 -14.3 Q28.1 -6.05 36.95 -0.4 34.25 6.15 27.95 9.55 28.3 8.0 27.35 6.15 24.75 4.0 18.05 5.7 11.65 7.25 11.0 12.1 L10.95 12.5 Q10.6 17.65 5.9 18.05 -1.5 18.3 -4.15 16.75 -5.7 15.8 -7.0 14.1 L-8.8 11.05 Q-10.7 6.8 -15.95 6.3 -21.45 5.3 -23.1 9.35 -23.55 12.55 -26.9 13.05 -34.9 11.3 -36.9 3.2 -31.0 -3.65 -20.4 -13.05 L-17.95 -16.75 Q-14.6 -15.65 -8.65 -14.95 -8.25 -13.7 -7.0 -13.5 -6.0 -13.4 -5.15 -14.6 8.4 -13.6 12.3 -15.6 12.65 -14.3 13.85 -14.4 14.55 -14.7 14.6 -15.75 16.2 -16.35 16.4 -17.95 L16.4 -18.05" fill="#2e2f3f" fill-rule="evenodd" stroke="none"/>
  </g>
</svg>
