<?xml version="1.0" encoding="UTF-8" standalone="no"?>
<svg xmlns:xlink="http://www.w3.org/1999/xlink" height="29.75px" width="59.5px" xmlns="http://www.w3.org/2000/svg">
  <g transform="matrix(1.0, 0.0, 0.0, 1.0, 33.7, 5.9)">
    <path d="M18.4 -2.6 Q23.9 11.05 25.8 20.75 L21.15 21.95 Q19.55 11.5 15.45 -2.0 16.7 -3.45 18.4 -2.6 M4.7 -1.15 Q4.1 13.35 4.4 23.65 L-0.9 23.85 Q-1.1 13.2 0.65 -1.25 L4.7 -1.15 M-9.75 -2.0 Q-14.6 10.25 -16.15 23.2 L-21.15 22.3 Q-18.6 10.25 -13.15 -2.7 -10.85 -4.15 -9.75 -2.0 M-16.75 -5.4 L-18.9 -3.0 Q-26.25 5.75 -30.6 16.65 -33.25 14.1 -33.7 12.05 -27.85 2.95 -19.25 -5.9 L-17.35 -5.45 -17.35 -5.5 -16.75 -5.4" fill="#000000" fill-opacity="0.32941177" fill-rule="evenodd" stroke="none"/>
  </g>
</svg>
