<?xml version="1.0" encoding="UTF-8" standalone="no"?>
<svg xmlns:xlink="http://www.w3.org/1999/xlink" height="22.4px" width="45.75px" xmlns="http://www.w3.org/2000/svg">
  <g transform="matrix(1.0, 0.0, 0.0, 1.0, 23.65, 4.35)">
    <path d="M16.75 10.7 Q17.35 10.85 17.6 12.5 L20.1 9.8 Q20.5 9.4 21.0 9.4 23.2 10.55 20.9 12.35 20.2 12.9 19.35 13.05 18.35 13.25 17.55 13.8 16.1 14.75 15.05 16.1 13.9 17.6 13.4 16.2 12.9 14.8 15.0 11.95 L15.45 11.45 16.7 10.7 16.75 10.7 M15.1 9.05 L14.75 9.0 Q13.1 9.8 13.05 8.75 13.75 8.5 13.75 7.7 L13.65 6.9 14.25 6.2 Q15.45 5.15 16.9 4.75 18.1 4.2 18.2 4.6 L17.95 5.3 16.55 7.1 Q16.7 8.25 16.5 8.7 L16.0 8.75 Q15.5 8.85 15.1 9.05 M-14.65 5.8 L-13.1 5.6 Q-10.65 5.25 -10.65 5.95 -8.5 3.05 -7.1 3.85 -6.8 6.7 -8.05 7.85 L-9.75 9.2 Q-11.45 10.3 -12.1 9.05 -12.75 7.75 -14.6 7.85 -16.45 7.95 -16.35 8.7 -20.4 9.55 -19.45 7.95 -18.75 6.75 -17.7 6.35 -16.8 6.55 -15.55 6.35 -14.85 6.25 -14.65 5.8 M-8.15 12.95 Q-5.65 13.3 -1.95 11.95 -1.15 12.85 -3.2 14.05 -5.3 15.25 -3.65 15.7 -2.05 16.1 -3.3 17.2 -4.6 18.3 -6.3 18.0 -8.3 17.6 -9.4 16.15 -9.85 15.55 -9.2 15.05 -10.0 14.7 -10.3 13.9 -10.5 13.45 -10.2 13.1 L-8.25 12.95 -8.15 12.95 M-21.9 5.6 L-21.7 5.5 Q-19.65 4.9 -21.5 8.3 -20.85 9.55 -19.45 10.45 -18.05 11.35 -18.8 12.0 -19.55 12.65 -21.25 11.65 -23.3 10.45 -23.6 8.45 L-23.45 7.3 Q-23.0 6.05 -21.9 5.6" fill="#000000" fill-opacity="0.32941177" fill-rule="evenodd" stroke="none"/>
    <path d="M15.45 11.45 L14.15 12.4 Q13.7 12.8 13.1 12.9 11.35 13.15 12.2 11.65 13.2 9.75 15.1 9.05 15.5 8.85 16.0 8.75 L16.5 8.7 16.7 8.65 Q18.95 9.55 16.75 10.7 L16.7 10.7 15.45 11.45 M13.05 8.75 L12.6 8.85 Q11.15 9.1 11.05 7.8 L10.15 7.2 Q9.45 6.25 10.55 5.7 L10.85 5.6 Q13.15 5.4 13.65 6.9 L13.75 7.7 Q13.75 8.5 13.05 8.75 M18.2 4.6 Q18.55 3.95 19.25 3.75 21.95 7.85 20.65 8.05 19.35 8.2 18.95 6.85 18.55 5.5 17.95 5.3 L18.2 4.6 M-0.85 5.8 Q-3.45 7.05 -2.2 7.75 -0.95 8.45 -1.4 8.55 L-4.55 9.1 Q-7.25 9.45 -5.9 7.35 -5.6 6.85 -2.85 5.85 L-0.85 5.8 M-17.7 6.35 Q-18.95 6.0 -19.55 4.8 -19.75 4.35 -19.2 4.2 L-17.4 3.75 Q-14.2 3.0 -14.55 5.45 L-14.65 5.8 Q-14.85 6.25 -15.55 6.35 -16.8 6.55 -17.7 6.35 M-10.2 13.1 L-13.05 12.45 -13.5 11.9 -16.9 10.95 Q-17.4 10.8 -17.15 10.2 -16.7 9.35 -15.75 9.4 -11.2 9.75 -7.45 11.7 -7.2 11.8 -7.35 12.2 -7.55 12.8 -8.15 12.95 L-8.25 12.95 -10.2 13.1" fill="#ffffff" fill-opacity="0.24705882" fill-rule="evenodd" stroke="none"/>
    <path d="M2.05 -1.4 L7.45 -1.4 7.45 0.45 2.05 0.45 2.05 -1.4 M15.3 -3.3 Q16.0 0.2 15.9 2.2 L10.45 2.35 10.45 -3.15 15.3 -3.3 M19.0 2.05 Q18.65 -0.6 17.5 -3.4 L19.1 -3.45 19.4 -3.5 Q21.25 -0.65 21.05 1.9 L20.55 1.95 19.0 2.05 M-12.5 2.25 L-21.45 1.9 -21.5 1.7 Q-22.25 -1.0 -19.5 -3.5 L-18.85 -3.45 -11.8 -3.2 Q-12.65 -0.4 -12.5 2.25 M-8.25 -3.1 L-1.0 -3.0 -1.0 2.45 -8.9 2.35 Q-8.95 -0.35 -8.25 -3.1" fill="#000000" fill-opacity="0.4392157" fill-rule="evenodd" stroke="none"/>
    <path d="M15.3 -3.3 L15.05 -4.35 17.05 -4.35 17.5 -3.4 Q18.65 -0.6 19.0 2.05 L19.1 2.8 15.8 3.05 15.9 2.2 Q16.0 0.2 15.3 -3.3 M-11.8 -3.2 L-11.5 -4.2 -8.0 -4.2 -8.25 -3.1 Q-8.95 -0.35 -8.9 2.35 L-8.85 3.25 -12.45 3.0 -12.5 2.25 Q-12.65 -0.4 -11.8 -3.2" fill="#000000" fill-opacity="0.21960784" fill-rule="evenodd" stroke="none"/>
  </g>
</svg>
