<?xml version="1.0" encoding="UTF-8" standalone="no"?>
<svg xmlns:xlink="http://www.w3.org/1999/xlink" height="58.85px" width="68.65px" xmlns="http://www.w3.org/2000/svg">
  <g transform="matrix(1.0, 0.0, 0.0, 1.0, 34.35, 29.4)">
    <path d="M30.1 7.7 L34.3 20.95 Q29.3 28.4 17.05 28.65 17.7 19.3 9.9 -5.95 11.2 -5.8 11.65 -6.8 12.1 -10.0 11.8 -15.1 L11.2 -21.25 Q16.75 -21.5 19.55 -22.25 17.5 -22.9 15.75 -23.8 14.2 -24.55 12.95 -25.5 L11.4 -26.75 20.35 -29.4 Q22.8 -26.15 22.6 -24.3 23.55 -23.2 24.45 -19.05 L24.45 -18.95 Q27.2 -10.05 30.1 7.7 M2.3 7.65 Q-2.35 17.5 -3.85 29.45 -22.35 29.45 -34.35 20.2 -29.15 8.25 -25.95 -3.55 -23.55 -12.35 -19.85 -19.55 L-19.9 -19.55 -17.2 -24.1 Q-17.15 -25.95 -14.9 -27.95 L-0.7 -26.9 -2.1 -25.4 Q-4.75 -23.0 -8.0 -21.65 L4.4 -21.15 5.25 -21.15 Q4.6 -17.0 4.8 -12.3 4.9 -9.0 5.4 -5.4 L7.25 -5.25 Q5.55 0.8 2.3 7.65" fill="#484848" fill-rule="evenodd" stroke="none"/>
  </g>
</svg>
