<?xml version="1.0" encoding="UTF-8" standalone="no"?>
<svg xmlns:xlink="http://www.w3.org/1999/xlink" height="90.35px" width="62.1px" xmlns="http://www.w3.org/2000/svg">
  <g transform="matrix(1.0, 0.0, 0.0, 1.0, 31.05, 45.15)">
    <path d="M-19.25 1.5 Q-20.5 0.75 -20.05 -1.15 L-19.45 -3.3 Q-18.65 -6.05 -16.3 -7.85 L-16.2 -7.9 -15.85 -8.2 -15.85 -8.3 -15.7 -9.5 Q-15.0 -14.4 -13.1 -19.45 -14.6 -19.1 -15.35 -19.7 -16.15 -20.3 -16.2 -22.65 -16.3 -25.05 -13.65 -28.4 -14.85 -30.1 -14.9 -32.6 -15.0 -35.1 -14.15 -36.2 -13.3 -37.3 -12.0 -37.4 -9.8 -37.5 -8.75 -36.45 -7.9 -35.55 -7.65 -34.45 L-7.5 -35.2 -7.35 -35.35 Q-4.95 -37.4 -3.45 -36.75 -1.75 -36.05 -1.1 -34.2 -0.45 -32.4 -1.6 -30.05 L-2.5 -28.4 -3.0 -28.35 -2.5 -28.4 -2.55 -28.35 -4.15 -26.3 Q-2.1 -22.55 -3.65 -20.2 -5.2 -17.9 -7.05 -18.75 L-7.15 -19.15 -6.2 -13.2 -5.4 -9.35 Q-4.5 -8.35 -4.0 -6.3 -3.5 -4.35 -3.7 -2.35 -3.9 -0.4 -6.5 0.25 -9.15 0.85 -10.7 -0.05 L-12.45 -1.3 -12.4 -0.05 Q-12.35 1.5 -13.55 2.3 L-14.55 2.35 Q-15.6 1.8 -16.65 1.95 L-18.45 1.8 -19.25 1.5 M-7.65 -34.45 Q-5.75 -36.7 -3.9 -36.3 0.75 -34.55 -3.0 -28.35 0.75 -34.55 -3.9 -36.3 -5.75 -36.7 -7.65 -34.45 M-11.4 -12.4 Q-12.7 -8.55 -12.6 -5.95 L-12.5 -4.05 Q-12.15 -7.55 -9.35 -10.1 -9.55 -13.3 -10.15 -16.45 L-11.4 -12.4" fill="#020202" fill-opacity="0.9764706" fill-rule="evenodd" stroke="none"/>
    <path d="M-7.5 -35.2 Q-6.7 -39.5 -7.2 -40.8 -2.15 -44.35 9.75 -44.4 21.65 -44.5 24.3 -42.9 26.25 -37.85 26.8 -28.5 27.7 -28.1 28.7 -24.35 L28.8 -24.0 Q29.75 -19.95 30.25 -10.95 30.75 -1.95 27.2 17.15 23.6 36.2 16.35 42.7 10.0 46.05 -2.8 43.05 L-6.85 42.15 Q-12.75 40.95 -17.45 40.5 L-23.55 40.25 Q-31.55 40.45 -30.05 36.95 -27.55 28.85 -27.2 27.3 L-26.6 25.25 -25.85 22.75 -25.6 21.85 -24.85 19.35 -22.1 10.5 -19.25 1.5 M-16.2 -7.9 L-15.7 -9.5 M-7.65 -34.45 L-7.5 -35.2 M-2.5 -28.4 L2.15 -28.85 17.1 -29.65 Q24.7 -29.8 26.8 -28.5 M-2.5 -28.4 L-3.0 -28.35" fill="none" stroke="#000000" stroke-linecap="round" stroke-linejoin="round" stroke-width="1.5"/>
    <path d="M-3.0 -28.35 Q0.75 -34.55 -3.9 -36.3 -5.75 -36.7 -7.65 -34.45" fill="none" stroke="#000000" stroke-linecap="round" stroke-linejoin="round" stroke-opacity="0.84705883" stroke-width="1.0"/>
    <path d="M25.35 -27.05 Q23.2 -17.85 12.55 -2.8 M7.65 -25.8 L2.3 -15.75 M2.3 32.05 Q9.9 23.45 16.65 7.3 M-11.95 19.0 Q-6.95 16.9 0.75 4.45 0.0 9.3 -6.55 19.05 0.6 13.3 7.75 3.8" fill="none" stroke="#000000" stroke-linecap="round" stroke-linejoin="round" stroke-opacity="0.49803922" stroke-width="1.0"/>
    <path d="M-18.85 13.9 L-18.5 11.0 -20.0 10.85 M-18.15 8.3 L-18.5 11.0 -17.15 11.15 M-24.45 33.95 L-25.1 36.45 -24.05 36.45 M-26.6 36.45 L-25.1 36.45 -25.5 37.95 M-6.15 29.15 L-8.1 28.65 -9.0 31.5 M-7.1 25.3 L-8.1 28.65 -9.3 28.3" fill="none" stroke="#000000" stroke-linecap="round" stroke-linejoin="round" stroke-width="1.0"/>
  </g>
</svg>
