<?xml version="1.0" encoding="UTF-8" standalone="no"?>
<svg xmlns:xlink="http://www.w3.org/1999/xlink" height="106.2px" width="203.3px" xmlns="http://www.w3.org/2000/svg">
  <g transform="matrix(1.0, 0.0, 0.0, 1.0, 101.65, 53.1)">
    <path d="M-85.1 -8.05 Q-87.1 -6.5 -86.45 -3.6 L-85.95 -1.9 Q-89.7 0.55 -94.85 2.35 -95.8 -0.8 -97.15 1.6 -99.7 0.15 -100.55 4.85 -100.9 6.75 -99.85 6.95 -101.35 8.95 -99.85 11.0 -98.9 12.3 -97.75 12.55 -99.0 15.05 -96.9 17.4 -95.8 18.4 -94.65 18.35 -96.1 20.6 -93.05 22.85 -91.25 24.35 -89.45 22.5 L-88.6 23.2 -87.65 23.1 Q-86.85 25.5 -84.9 25.75 -85.55 26.85 -86.35 27.2 L-82.8 29.8 -81.55 29.9 Q-80.85 32.95 -76.35 32.75 -76.5 34.8 -74.3 35.85 L-70.25 36.0 Q-70.7 38.75 -67.35 40.1 -64.15 41.1 -62.8 39.25 -63.85 41.6 -59.7 42.9 -57.3 43.7 -56.35 40.7 -56.95 44.1 -53.25 44.8 -49.6 45.55 -49.65 42.85 L-49.9 42.8 -49.65 42.7 -49.65 42.85 Q-49.15 46.05 -45.6 46.0 -43.05 45.95 -42.45 44.05 -40.8 44.8 -38.9 45.15 L-35.35 45.3 Q-34.35 46.9 -31.5 46.9 -29.2 46.45 -28.15 44.05 L-28.1 44.2 Q-29.75 48.25 -25.55 49.0 -22.6 48.9 -22.3 45.9 -22.35 49.4 -18.6 50.2 -15.15 50.9 -14.6 46.8 -14.9 50.55 -10.3 51.25 -7.2 51.2 -6.65 48.0 -6.25 51.9 -2.2 52.1 1.25 52.1 1.55 49.15 1.35 51.9 4.4 52.05 7.55 52.0 7.2 49.5 7.95 51.9 10.55 51.65 13.75 51.65 13.75 47.15 L13.9 47.3 Q14.1 52.0 17.95 51.5 21.3 50.75 20.85 47.1 21.7 51.75 25.3 50.65 28.4 49.75 27.75 46.55 28.75 50.1 31.95 49.45 35.0 48.6 34.5 45.2 35.7 48.95 39.2 48.1 41.8 46.75 40.95 43.6 42.65 47.1 46.65 45.3 L47.65 44.85 Q47.4 47.65 50.0 47.25 51.45 50.25 54.55 49.15 57.3 48.15 56.55 45.55 58.25 49.0 61.4 47.15 63.9 45.6 62.5 42.65 64.7 46.55 67.95 44.45 69.95 43.1 68.85 40.45 70.6 43.75 74.05 40.9 76.05 39.75 74.65 36.9 77.7 39.25 80.4 36.9 82.85 34.65 80.5 32.2 83.5 35.15 85.85 32.65 87.95 30.65 85.85 28.6 88.1 30.55 90.05 28.6 L90.6 27.95 Q96.5 27.65 94.9 23.6 L95.7 22.75 Q97.9 23.15 99.85 20.05 100.85 18.2 99.8 17.05 101.3 14.9 100.1 13.45 98.0 12.0 96.25 14.35 L85.1 6.35 Q86.35 2.65 84.2 0.15 L83.3 -0.45 Q80.35 -2.1 77.4 -1.1 78.15 -5.2 73.7 -7.9 69.45 -10.15 67.65 -8.45 L60.0 -18.45 Q61.75 -19.7 60.9 -20.95 L60.6 -21.15 Q62.45 -24.9 56.45 -25.0 57.45 -28.5 55.0 -31.35 L53.95 -32.5 Q43.9 -40.2 36.5 -44.9 28.85 -49.65 24.0 -51.2 L13.65 -49.95 11.6 -49.85 10.45 -49.8 7.15 -49.75 5.5 -49.75 -6.1 -50.75 -7.0 -50.9 -9.65 -51.35 -12.45 -51.9 -12.9 -52.0 -13.3 -52.05 -14.55 -51.7 -14.3 -52.1 Q-21.0 -52.3 -27.35 -50.5 -36.25 -48.0 -44.4 -41.55 -47.25 -39.35 -48.5 -37.25 L-49.4 -35.35 Q-52.6 -35.35 -53.45 -33.6 L-53.7 -32.7 Q-55.35 -30.1 -53.5 -28.65 -54.1 -27.65 -53.3 -26.5 -57.45 -19.45 -67.25 -12.9 -73.45 -15.65 -75.95 -9.85 L-78.3 -9.85 -82.5 -9.3 -84.0 -8.7 -85.1 -8.05" fill="none" stroke="#000000" stroke-linecap="round" stroke-linejoin="round" stroke-width="2.0"/>
    <path d="M-85.1 -8.05 L-85.25 -8.45 M-84.0 -8.7 Q-83.6 -6.45 -84.5 -5.15 L-85.1 -8.05 M-85.95 -1.9 Q-84.2 3.2 -80.9 7.85 -78.4 11.5 -74.95 14.85 -70.1 19.55 -63.4 23.7 L-63.15 23.85 Q-54.3 27.7 -45.4 29.05 L-38.9 29.6 -25.35 28.6 -24.4 28.4 -17.8 26.7 -14.65 25.6 Q-4.65 21.55 2.05 16.1 8.85 10.55 12.25 3.55 11.45 3.2 10.55 1.9 5.35 1.25 6.2 6.1 2.2 6.0 1.45 10.9 -3.2 9.8 -4.0 15.0 -8.95 14.35 -10.4 18.8 -14.95 17.9 -16.9 22.2 -20.75 20.4 -25.2 24.5 L-18.35 7.6 -19.6 7.95 -23.75 9.05 -33.85 26.05 Q-37.0 22.65 -41.3 26.05 -44.4 21.9 -48.95 25.1 -51.35 20.65 -56.95 22.55 -58.7 17.65 -64.25 18.8 -64.8 15.65 -68.35 15.0 L-55.1 0.0 -56.5 -1.15 -70.25 13.45 Q-70.85 9.95 -75.3 9.45 -74.1 4.0 -79.9 2.9 -78.15 -0.95 -82.5 -3.95 -80.2 -6.05 -82.5 -9.3 M-18.0 -50.6 L-20.15 -49.65 Q-29.05 -45.65 -39.9 -36.2 L-40.3 -35.85 -41.2 -30.0 Q-35.4 -28.5 -25.8 -29.15 -19.35 -38.55 -11.9 -46.1 -17.5 -43.4 -18.95 -44.75 -21.0 -47.25 -18.0 -50.6 L-14.55 -51.7 Q-18.35 -49.05 -17.85 -46.9 -15.65 -45.05 -9.65 -51.35 M-27.35 -50.5 L-20.15 -49.65 M-12.9 -52.0 L-13.25 -52.1 -13.3 -52.05 -14.3 -52.1 M-86.35 27.2 Q-87.2 27.55 -88.25 26.95 -91.0 25.3 -89.7 23.1 M-51.8 -31.2 L-51.55 -30.05 -51.3 -29.75 Q-50.4 -28.65 -49.4 -28.8 -48.65 -28.95 -47.8 -29.8 -49.45 -31.65 -49.55 -33.6 -51.65 -32.35 -51.8 -31.2 -53.6 -31.65 -53.7 -32.7 M-51.55 -30.05 Q-53.0 -29.4 -53.5 -28.65 M-53.3 -26.5 Q-52.6 -25.55 -51.85 -25.3 -50.9 -25.05 -49.8 -25.9 -50.7 -27.05 -49.4 -28.8 M-49.4 -35.35 L-49.55 -33.6 M-40.3 -35.85 L-44.05 -32.5 Q-46.05 -30.85 -46.65 -28.65 L-46.7 -28.4 Q-47.0 -27.05 -46.8 -25.55 -46.65 -24.3 -46.1 -23.0 L-45.65 -21.95 Q-44.55 -19.9 -42.7 -18.1 L-42.45 -17.9 Q-40.2 -15.75 -36.9 -14.0 L-33.4 -12.35 -32.0 -12.15 Q-31.0 -12.2 -30.3 -12.65 -29.55 -13.15 -29.05 -14.25 -31.75 -18.0 -30.15 -22.5 L-25.8 -29.15 Q-26.0 -23.5 -23.05 -17.85 -10.3 -19.2 3.5 -24.6 L3.9 -26.6 4.6 -29.95 6.25 -40.75 6.95 -47.25 Q1.2 -36.3 -6.45 -37.45 -13.0 -38.6 -9.95 -48.1 L-11.9 -46.1 M-49.8 -25.9 L-49.65 -25.65 Q-49.05 -25.05 -48.35 -25.05 -47.65 -25.05 -46.8 -25.55 M-47.8 -29.8 L-46.65 -28.65 M-67.25 -12.9 L-62.1 -6.7 Q-55.5 -10.65 -50.1 -16.95 -50.35 -17.9 -49.7 -18.85 L-48.35 -20.0 -48.25 -20.15 -48.95 -20.6 Q-53.6 -20.75 -51.85 -25.3 M-46.1 -23.0 L-47.9 -20.75 -48.25 -20.15 M-50.1 -16.95 Q-49.85 -15.65 -48.0 -14.4 -45.55 -13.0 -43.6 -15.85 L-43.55 -15.85 Q-43.35 -16.8 -42.45 -17.9 M-38.1 -13.0 Q-39.85 -11.9 -41.55 -12.8 -43.15 -13.55 -43.5 -14.6 -45.1 -13.3 -44.9 -12.3 -44.7 -11.4 -42.95 -10.65 L-40.7 -9.65 -39.65 -9.75 -39.65 -9.8 Q-38.85 -10.1 -38.45 -11.15 -38.2 -11.9 -38.1 -13.0 L-36.9 -14.0 M-43.5 -14.6 Q-43.75 -15.15 -43.6 -15.8 L-43.6 -15.85 M-48.35 -20.0 Q-48.85 -18.45 -46.5 -16.85 -44.55 -15.75 -42.7 -18.1 M-48.95 -20.6 Q-51.25 -22.45 -48.35 -25.05 M-62.1 -6.7 Q-59.3 -3.65 -56.5 -1.15 M-9.95 -48.1 L-9.9 -48.2 -7.0 -50.9 M-28.4 -4.15 L-34.6 9.7 Q-31.0 10.1 -27.4 9.75 L-24.2 -3.1 Q-25.25 -3.0 -26.7 -3.75 -28.65 -4.8 -28.85 -6.25 -31.9 -6.25 -32.85 -8.55 -33.25 -7.3 -34.2 -7.05 -37.45 -7.05 -39.65 -9.8 M-32.0 -12.15 L-32.6 -11.05 Q-32.55 -9.5 -32.85 -8.55 M-38.45 -11.15 Q-37.05 -10.0 -35.35 -9.55 -34.0 -8.9 -32.6 -11.05 M-30.3 -12.65 Q-31.6 -9.5 -28.55 -7.9 L-28.05 -7.65 Q-26.0 -6.45 -24.45 -8.3 L-23.6 -9.75 -26.8 -11.8 -29.05 -14.25 M-28.85 -6.25 Q-29.0 -7.0 -28.55 -7.9 M-24.45 -8.3 Q-25.55 -5.95 -23.9 -5.15 L-22.45 -4.5 -22.1 -4.35 -20.75 -3.85 Q-19.25 -3.45 -17.95 -7.25 -21.05 -8.35 -23.6 -9.75 M-22.45 -4.5 Q-23.05 -3.25 -24.2 -3.1 M-17.95 -7.25 L-17.65 -7.15 -13.6 -5.95 -11.95 -5.6 Q-7.75 -4.95 -4.85 -6.05 -1.4 -7.4 0.1 -11.25 L2.7 -21.05 3.5 -24.6 M-19.6 7.95 L-18.2 -0.2 -18.35 -0.25 Q-22.95 -1.6 -22.1 -4.35 M-17.65 -7.15 Q-18.75 -3.55 -15.75 -2.6 L-14.25 -2.3 Q-12.4 -2.45 -11.95 -5.6 -12.05 -1.3 -7.8 -1.5 L-7.45 -1.5 Q-5.45 -1.7 -4.9 -3.3 -4.55 -4.35 -4.85 -6.05 M-4.9 -3.3 Q-4.0 0.5 -5.8 0.75 -7.7 1.0 -7.6 -0.7 -8.2 1.65 -11.4 1.25 -14.0 1.2 -14.25 -2.3 -15.65 0.45 -18.2 -0.2 M-7.45 -1.5 L-7.6 -0.7 M-48.5 -37.25 L-39.9 -36.2 M-6.1 -50.75 Q-12.05 -41.8 -6.1 -39.8 -0.65 -38.35 5.5 -49.75 M36.5 -44.9 L29.4 -46.7 32.5 -44.1 46.15 -32.8 55.0 -31.35 M11.6 -49.85 L12.8 -47.6 Q20.6 -41.4 27.0 -40.45 31.9 -39.55 32.5 -44.1 M29.4 -46.7 Q29.9 -43.05 28.1 -42.8 20.2 -43.7 13.65 -49.95 M12.8 -47.6 Q16.7 -40.2 20.1 -31.5 L21.35 -28.15 21.85 -26.55 Q37.1 -23.4 47.85 -25.35 L46.15 -32.75 46.15 -32.8 M10.45 -49.8 L14.75 -27.6 20.1 -31.5 M4.6 -29.95 L10.45 -27.2 Q11.05 -27.9 12.25 -28.2 13.85 -28.35 14.75 -27.6 16.05 -26.6 16.0 -24.0 L21.35 -28.15 M2.7 -21.05 L2.75 -1.85 Q4.8 -3.1 6.7 -4.5 L4.95 -7.4 Q4.65 -7.65 4.6 -8.6 6.7 -17.45 10.55 -22.55 L10.15 -23.4 3.9 -26.6 M10.55 -22.55 L12.75 -25.15 15.85 -22.05 16.0 -24.0 M12.25 3.55 Q14.25 4.35 15.45 -0.65 L15.45 -0.7 12.0 -5.5 Q11.55 -3.05 10.9 -7.05 8.55 -8.3 7.7 -11.5 5.6 -6.75 4.95 -7.4 M20.15 -8.95 L19.55 -10.55 15.7 -5.35 15.55 -3.55 Q18.45 -5.3 20.15 -8.95 L23.15 -12.45 22.05 -14.0 19.55 -10.55 Q16.45 -18.45 12.75 -25.15 16.3 -15.1 15.7 -5.35 M10.3 -11.8 L10.55 -9.65 12.25 -7.55 Q12.65 -12.45 12.75 -25.15 10.0 -17.0 8.15 -12.6 L10.55 -9.65 10.9 -7.05 12.0 -5.5 12.25 -7.55 15.55 -3.55 15.25 -1.45 15.45 -0.7 M8.15 -12.6 L7.7 -11.5 M15.45 -0.65 Q16.5 3.75 19.75 0.75 L20.2 0.25 21.05 -0.55 22.7 -2.6 Q24.0 -4.3 24.55 -5.8 L24.8 -6.5 Q25.35 -8.45 24.55 -10.2 L23.15 -12.45 M21.85 -26.55 Q24.15 -20.05 26.15 -12.9 28.15 -7.8 32.6 -7.65 34.95 -7.6 37.95 -8.95 L38.75 -9.3 39.3 -9.55 Q42.1 -10.9 44.75 -12.65 47.0 -14.05 49.15 -15.75 L51.25 -17.5 52.45 -18.7 Q54.95 -24.9 48.25 -31.05 L46.15 -32.75 M24.8 -6.5 Q31.55 -0.8 39.65 1.65 L38.45 -2.3 Q35.1 -0.5 34.7 -3.7 33.75 -3.95 33.1 -5.25 32.45 -6.45 32.6 -7.65 M38.45 -2.3 Q39.05 -2.6 39.7 -3.05 38.5 -3.2 37.95 -4.6 L37.8 -4.55 Q35.8 -3.45 34.7 -3.7 M37.95 -4.6 Q40.25 -5.85 38.75 -9.3 M10.15 -23.4 Q9.3 -25.95 10.45 -27.2 M21.35 -5.75 L20.15 -8.95 M15.85 -22.05 Q18.9 -18.7 22.05 -14.0 M56.45 -25.0 L55.95 -23.5 Q58.35 -22.75 60.6 -21.15 M52.45 -18.7 L53.45 -19.8 54.2 -20.75 55.55 -22.8 55.95 -23.5 M54.75 -12.4 Q54.95 -13.35 54.45 -14.65 L54.0 -15.05 53.95 -15.0 Q52.15 -13.75 50.35 -14.8 51.65 -13.1 49.35 -11.4 L49.3 -11.05 Q51.65 -9.4 53.55 -10.7 54.5 -11.4 54.75 -12.4 L61.6 0.55 62.4 0.0 64.2 -1.45 64.35 -1.6 57.3 -14.95 Q55.85 -13.6 54.45 -14.65 M55.55 -22.8 Q57.45 -21.55 58.45 -20.3 58.25 -18.9 56.8 -18.35 L57.9 -17.35 58.65 -17.7 60.0 -18.45 M57.3 -14.95 Q59.0 -15.75 58.65 -17.7 M53.45 -19.8 Q56.35 -16.85 54.0 -15.05 M54.2 -20.75 L56.8 -18.35 M50.35 -14.8 L49.15 -15.75 M44.75 -12.65 Q46.95 -9.7 49.1 -11.2 L49.35 -11.4 M44.75 -12.65 Q46.25 -9.2 44.05 -7.8 L43.8 -7.65 Q44.65 -6.55 45.75 -6.35 47.0 -6.15 48.5 -7.2 50.3 -8.4 49.3 -11.05 L49.1 -11.2 M39.7 -3.05 Q40.95 -2.9 42.9 -4.0 45.15 -4.8 43.8 -7.65 41.1 -6.3 39.3 -9.55 M64.35 -1.6 Q66.35 -3.85 66.75 -7.0 67.1 -7.9 67.65 -8.45 M7.15 -49.75 L6.95 -47.25 M29.4 -46.7 L24.0 -51.2 M19.75 0.75 Q31.9 14.7 43.15 20.35 L44.45 21.0 Q48.3 22.8 52.0 23.6 L54.45 24.0 Q57.7 24.45 60.95 24.1 L63.75 23.65 Q70.95 21.65 75.9 18.05 L80.0 14.35 Q81.6 12.65 82.8 10.65 L83.25 10.05 Q84.55 8.05 85.1 6.35 M83.7 1.7 L82.85 4.85 Q81.6 2.15 83.7 1.7 M89.35 24.7 Q90.95 21.5 87.85 20.7 L87.6 20.75 83.45 24.95 83.95 25.35 84.35 25.75 Q86.6 27.55 89.2 24.9 L89.35 24.7 90.65 24.1 Q93.2 22.7 92.15 20.25 L91.9 20.5 87.85 20.7 M96.25 14.35 Q98.0 14.3 98.75 16.3 L99.8 17.05 M95.7 22.75 Q96.85 21.25 96.0 19.7 94.25 20.0 94.4 17.5 L94.0 18.1 92.15 20.25 M90.65 24.1 Q92.75 24.95 94.85 23.6 L94.9 23.6 M96.0 19.7 Q96.9 17.55 98.75 16.3 M96.25 14.35 L94.4 17.5 83.25 10.05 M84.35 25.75 Q86.45 27.8 84.95 29.05 82.35 31.35 80.45 29.3 81.35 30.9 80.4 32.15 L80.5 32.2 M90.6 27.95 Q92.0 26.05 90.65 24.1 M62.3 3.0 Q69.6 4.15 63.55 6.0 54.65 7.7 46.35 5.9 47.85 11.8 51.7 18.25 54.75 18.0 57.3 19.7 59.8 16.8 64.25 18.4 65.25 15.3 70.35 16.3 70.55 12.1 75.4 11.45 L72.7 9.05 Q71.45 10.45 70.15 10.8 68.4 10.45 70.15 6.8 L62.4 0.0 M77.4 -1.1 L77.1 0.15 Q75.6 4.65 74.0 7.3 L76.75 9.7 Q77.0 6.2 80.4 5.75 79.3 0.4 83.3 -0.45 M73.7 0.85 L71.2 4.8 74.0 7.3 72.7 9.05 70.15 6.8 71.2 4.8 64.2 -1.45 M65.4 19.5 Q66.75 17.5 69.7 18.1 L65.4 19.5 M72.35 16.65 Q72.5 12.85 76.3 13.55 L72.35 16.65 M42.9 -4.0 L45.0 2.8 49.2 3.25 45.75 -6.35 M45.0 2.8 L46.35 5.9 M53.4 21.25 L53.7 21.25 Q54.35 19.75 56.45 21.25 L53.7 21.25 53.6 21.65 M49.2 3.25 L52.5 3.35 Q58.15 3.05 61.6 0.55 M22.7 -2.6 Q26.15 -0.4 25.55 2.5 29.7 2.85 30.0 6.8 33.6 7.2 34.25 10.6 38.55 10.65 39.25 14.3 42.75 13.3 44.75 17.65 L40.75 4.25 Q32.35 1.15 24.55 -5.8 M60.2 34.8 L59.4 35.3 Q57.2 36.5 54.95 33.8 56.6 36.45 53.95 38.05 54.7 38.7 54.75 39.45 59.4 37.75 61.1 36.6 L60.2 34.8 Q60.9 33.9 59.95 31.55 L59.8 31.55 59.5 31.75 54.95 33.8 50.1 35.85 49.7 36.0 Q51.8 39.45 53.95 38.05 M52.0 23.6 Q49.75 25.2 46.5 25.1 L46.1 25.25 50.1 35.85 M43.15 20.35 Q34.45 26.95 23.95 27.4 L24.15 28.8 24.75 32.75 Q37.25 32.6 46.1 25.25 L46.0 25.05 44.45 21.0 M46.0 25.05 L46.5 25.1 M48.2 41.1 L48.75 40.85 Q51.45 39.3 49.7 36.0 L43.65 38.25 43.65 38.35 Q45.4 41.95 48.2 41.1 L48.25 41.15 Q50.05 44.3 52.7 42.45 54.2 41.8 54.55 40.7 L54.75 39.45 M43.65 38.25 L37.2 40.3 Q39.05 43.3 40.95 43.6 41.9 43.7 42.9 43.15 45.25 41.85 43.65 38.35 M48.25 41.15 Q49.6 43.65 47.65 44.85 M59.1 39.7 L59.8 41.3 Q60.9 43.15 62.5 42.65 L63.2 42.3 Q65.9 41.1 64.6 37.75 L64.55 37.65 64.75 37.1 59.1 39.7 52.7 42.45 Q54.45 45.6 56.55 45.55 57.45 45.55 58.3 45.0 60.6 43.9 59.8 41.3 M50.0 47.25 L51.1 46.95 Q54.55 46.3 52.7 42.45 M80.45 29.3 L79.6 28.1 74.65 31.55 75.05 32.05 Q77.25 34.9 79.7 32.8 L80.4 32.15 M74.65 31.55 L68.95 34.9 69.05 35.0 69.6 35.8 Q71.85 38.6 74.65 36.9 L74.9 36.75 Q77.15 35.1 75.05 32.05 M68.95 34.9 L68.65 35.05 64.75 37.1 M59.95 31.55 Q62.3 31.25 63.4 32.8 63.8 34.75 61.1 36.6 M64.6 37.75 Q66.0 41.0 68.6 39.9 L68.9 39.75 Q71.3 38.45 69.6 35.8 M68.85 40.45 L68.6 39.9 M58.65 20.95 Q60.55 18.95 63.1 20.25 L58.65 20.95 M59.5 31.75 L54.45 24.0 M68.65 35.05 L60.95 24.1 M39.65 1.65 L40.05 1.75 45.0 2.8 M25.8 4.5 Q27.55 4.6 27.55 6.15 L25.8 4.5 M32.0 10.8 L29.6 8.6 Q32.3 8.35 32.0 10.8 M37.25 14.65 L34.05 12.2 Q37.05 11.75 37.25 14.65 M7.7 5.8 Q7.45 3.25 9.4 3.75 L7.7 5.8 M3.45 10.2 Q3.5 7.6 5.8 8.1 L3.45 10.2 M10.55 1.9 L9.55 0.3 6.7 -4.5 M24.15 28.8 Q12.3 33.45 1.3 27.95 L1.25 28.3 0.85 32.75 Q12.1 38.8 24.9 33.95 L24.75 32.75 M0.85 32.75 L0.8 33.85 -0.25 44.05 5.1 44.1 12.5 43.95 19.2 43.45 25.8 42.75 26.3 42.7 24.9 33.95 M-0.25 44.05 L-2.05 43.95 -2.0 44.7 Q-1.55 49.45 1.55 49.1 5.5 49.5 5.15 44.6 L5.1 44.45 5.1 44.3 5.1 44.1 M1.55 49.1 L1.55 49.15 M5.15 44.6 Q5.45 47.6 7.1 48.5 L9.3 48.75 Q12.95 48.75 12.6 44.3 L12.5 43.95 M12.6 44.3 Q13.0 46.15 13.75 47.15 M19.2 43.45 L19.25 44.2 Q19.6 46.4 20.85 47.1 L23.2 47.3 Q25.7 47.2 25.8 42.75 26.15 45.35 27.65 46.1 L27.7 46.15 29.7 46.35 Q32.2 45.3 30.9 41.85 L26.8 42.6 26.3 42.7 M13.9 47.3 Q15.05 48.6 17.0 48.4 19.6 47.95 19.25 44.2 M27.75 46.55 L27.75 46.5 27.65 46.15 27.65 46.1 M27.7 46.15 L27.75 46.5 M27.65 46.15 L27.7 46.15 M30.9 41.85 L37.2 40.3 Q38.35 44.45 35.05 45.1 L34.5 45.2 Q32.5 45.1 30.9 41.85 M19.75 0.75 L23.95 27.4 M2.05 16.1 L1.3 27.95 M40.75 4.25 L40.05 1.75 M39.85 16.25 Q42.55 15.7 42.7 18.2 L39.85 16.25 M7.2 49.5 L7.1 48.5 M83.45 24.95 L79.6 28.1 M75.9 18.05 L83.45 24.95 M78.95 11.25 Q78.5 7.8 81.45 7.5 L78.95 11.25 M87.6 20.75 L80.0 14.35 M-8.3 19.15 Q-7.2 16.5 -4.7 17.0 L-8.3 19.15 M-11.1 20.95 L-15.2 22.9 Q-13.3 19.8 -11.1 20.95 M-27.4 9.75 L-26.85 9.7 -26.05 9.6 -23.75 9.05 M-35.85 26.8 Q-37.6 25.1 -39.35 26.8 L-35.85 26.8 M-35.0 40.15 L-34.6 38.95 -40.15 37.25 -40.3 38.1 -40.7 39.2 Q-41.05 41.0 -38.8 41.85 L-38.1 42.1 Q-36.0 42.45 -35.0 40.15 -35.85 43.7 -31.9 44.05 -29.55 44.1 -28.4 42.15 L-27.8 40.6 -29.3 40.3 -34.6 38.95 M-35.5 41.55 Q-36.2 43.65 -35.35 45.3 M-38.8 41.85 Q-40.1 43.35 -38.9 45.15 M-20.75 42.0 L-20.8 42.3 -20.95 43.05 Q-21.5 46.6 -17.5 47.15 -14.75 47.4 -14.3 44.4 L-14.25 42.95 -20.75 42.0 -27.8 40.6 M-22.3 45.9 L-22.25 45.3 Q-23.35 46.1 -25.05 45.8 -27.4 45.6 -28.1 44.2 M-22.25 45.3 Q-21.35 44.55 -20.95 43.05 M-28.4 42.15 Q-28.55 43.3 -28.15 44.05 M-29.3 40.3 L-25.35 28.6 M-14.6 46.8 L-14.55 46.3 M-14.3 44.4 Q-14.25 47.65 -11.15 47.95 -8.45 48.35 -7.9 45.95 -7.7 45.15 -7.8 43.95 L-7.85 43.65 -14.25 42.95 M-7.9 45.95 Q-7.7 47.3 -6.65 48.0 -5.7 48.55 -4.05 48.55 -1.85 48.25 -2.0 44.7 M-7.85 43.65 L-2.05 43.95 M-22.95 25.35 Q-21.1 22.95 -18.5 24.1 L-22.95 25.35 M-26.85 9.7 Q-38.75 12.55 -52.45 13.5 -67.1 14.4 -44.05 9.2 M-44.9 -12.3 Q-48.25 -6.15 -55.1 0.0 -51.45 3.1 -47.7 5.2 L-39.65 -9.75 M-77.4 8.05 L-79.7 4.85 Q-76.9 5.4 -77.4 8.05 M-69.5 16.95 Q-66.75 16.3 -66.35 19.0 L-69.5 16.95 M-75.05 11.45 Q-72.15 11.55 -72.5 14.1 L-75.05 11.45 M-70.25 36.0 L-69.95 35.85 Q-70.95 34.9 -70.35 33.25 L-73.35 33.15 Q-75.55 31.9 -74.95 30.25 L-75.85 30.8 Q-76.3 31.9 -76.35 32.75 M-63.4 23.7 L-70.85 31.4 -69.65 32.0 -69.3 32.15 -64.7 34.15 -59.05 36.4 -53.95 38.25 -51.6 39.05 -45.4 29.05 M-69.65 32.0 L-70.35 33.25 M-69.95 35.85 L-68.6 36.6 Q-65.6 38.0 -64.75 34.5 L-64.7 34.15 M-74.95 30.25 L-74.3 29.6 -79.15 26.5 -80.3 27.25 Q-80.25 29.55 -78.3 30.5 -77.05 31.3 -75.85 30.8 M-56.35 40.7 Q-57.05 40.9 -57.8 40.7 -60.1 40.0 -59.25 36.85 -60.55 39.6 -62.6 38.95 L-62.8 39.25 M-74.3 29.6 L-70.85 31.4 M-64.75 34.5 Q-65.5 38.25 -62.6 38.95 M-42.8 36.35 L-43.75 36.05 Q-46.3 35.95 -47.8 38.5 L-47.0 40.45 Q-45.65 42.05 -44.1 43.1 -44.05 41.0 -43.3 40.0 -46.95 38.6 -42.8 36.35 L-40.15 37.25 M-43.1 26.75 L-46.9 26.1 Q-44.55 24.4 -43.1 26.75 M-43.75 36.05 L-43.65 36.05 -43.3 36.1 -38.9 29.6 M-59.05 36.4 L-59.25 36.85 M-53.95 38.25 L-53.95 38.4 Q-55.55 41.7 -52.1 42.75 L-49.9 42.8 M-49.65 42.7 Q-48.55 42.1 -48.5 40.05 L-51.6 39.05 M-56.35 40.7 Q-54.95 40.3 -53.95 38.4 M-49.65 42.85 Q-46.6 44.6 -43.8 43.3 L-44.1 43.1 M-43.3 40.0 Q-41.55 40.95 -40.7 39.2 M-48.5 40.05 L-47.0 40.45 M-43.8 43.3 L-42.45 44.05 M-55.65 23.95 Q-52.75 22.65 -51.3 25.35 L-55.65 23.95 M-63.05 20.75 Q-60.2 19.95 -59.15 22.85 L-63.05 20.75 M-47.7 5.2 Q-41.25 8.85 -34.6 9.7 M-97.15 1.6 Q-97.7 3.3 -96.6 3.7 -95.9 3.95 -94.55 3.7 L-94.85 2.35 M-99.85 6.95 Q-99.05 7.1 -97.45 6.35 -97.5 5.0 -96.6 3.7 M-97.45 6.35 Q-97.4 7.45 -96.65 8.6 -95.9 9.45 -95.0 9.3 -94.15 9.15 -93.15 8.25 L-94.55 3.7 M-95.0 9.3 Q-96.6 10.7 -95.75 12.35 L-95.0 13.45 Q-94.15 14.6 -92.9 14.35 -92.05 14.15 -90.95 13.15 -92.25 10.8 -93.15 8.25 M-92.9 14.35 Q-93.7 16.15 -92.85 17.7 L-91.7 19.05 Q-90.7 20.0 -89.7 20.0 -88.45 20.05 -87.25 18.8 -89.4 16.15 -90.95 13.15 L-80.9 7.85 M-92.85 17.7 Q-93.8 18.3 -94.65 18.35 M-89.7 20.0 Q-90.25 21.5 -89.45 22.5 M-84.9 25.75 L-84.35 25.8 Q-85.6 24.45 -83.65 22.7 L-84.1 22.3 -85.35 21.0 Q-86.2 22.75 -87.65 23.1 M-87.25 18.8 L-85.35 21.0 M-97.75 12.55 L-95.75 12.35 M-84.35 25.8 L-83.95 26.2 -83.7 26.45 Q-82.05 28.0 -80.3 27.25 M-80.4 28.9 Q-80.9 29.7 -81.55 29.9 M-83.65 22.7 L-79.15 26.5 M-84.1 22.3 L-74.95 14.85 M0.75 12.55 L-2.2 15.05 Q-1.65 12.75 0.75 12.55 M-17.8 26.7 Q-11.25 29.8 1.25 28.3 M0.8 33.85 Q-22.7 35.15 -24.4 28.4 M-18.35 7.6 Q-6.35 3.95 2.75 -1.85 M-83.1 -2.05 Q-80.65 -1.15 -81.65 1.0 L-83.1 -2.05 M-75.95 -9.85 Q-66.8 -0.95 -68.65 1.4 -72.0 1.5 -78.3 -9.85 M21.05 -0.55 Q23.35 -0.65 23.65 1.9 L21.05 -0.55" fill="none" stroke="#000000" stroke-linecap="round" stroke-linejoin="round" stroke-opacity="0.54901963" stroke-width="1.4000000000000001"/>
  </g>
</svg>
