<?xml version="1.0" encoding="UTF-8" standalone="no"?>
<svg xmlns:xlink="http://www.w3.org/1999/xlink" height="33.45px" width="55.15px" xmlns="http://www.w3.org/2000/svg">
  <g transform="matrix(1.0, 0.0, 0.0, 1.0, 27.6, 16.7)">
    <path d="M-1.15 -16.1 L-0.9 -16.55 Q3.05 -16.9 10.5 -16.5 L10.85 -16.15 10.95 -16.1 11.25 -10.15 11.25 -10.05 Q11.25 -9.15 11.0 -9.2 L7.75 -9.0 8.5 3.1 Q11.8 7.2 13.9 11.85 20.55 10.9 26.75 7.3 L27.55 11.2 Q19.85 15.8 11.3 16.35 10.35 11.85 6.65 7.15 3.35 11.35 2.0 16.75 -17.65 15.35 -27.6 10.9 L-26.95 6.45 Q-19.3 10.4 -1.55 12.3 0.4 8.6 3.9 3.5 L3.75 -8.95 -0.95 -9.1 -1.15 -9.6 -1.15 -16.1 M1.95 -14.45 L1.95 -11.2 8.4 -11.2 8.4 -14.45 1.95 -14.45" fill="#d4a68a" fill-rule="evenodd" stroke="none"/>
  </g>
</svg>
