<?xml version="1.0" encoding="UTF-8" standalone="no"?>
<svg xmlns:xlink="http://www.w3.org/1999/xlink" height="50.8px" width="73.45px" xmlns="http://www.w3.org/2000/svg">
  <g transform="matrix(1.0, 0.0, 0.0, 1.0, 36.75, 25.4)">
    <path d="M-19.0 -19.4 L-20.25 -15.85 -20.9 -14.15 -21.55 -12.25 -22.55 -9.25 Q-26.15 1.75 -29.2 13.9 L-29.35 14.6 -29.85 16.65 -30.05 17.35 Q-23.5 22.75 -10.95 23.2 L-10.65 19.75 Q-9.65 6.95 -7.65 -5.65 L-7.05 -8.9 -6.75 -10.55 -6.35 -12.5 -5.6 -16.65 -5.95 -12.7 -6.1 -10.9 -6.3 -9.3 -6.6 -5.65 Q-7.75 7.6 -8.35 19.55 L-8.55 23.2 Q6.25 26.4 17.3 22.35 L17.1 18.75 Q16.4 9.7 13.45 -6.35 L13.35 -6.85 13.0 -9.1 12.9 -9.4 12.7 -10.65 12.55 -11.4 12.25 -12.95 12.15 -13.3 11.5 -16.65 M17.3 22.35 Q25.0 21.45 29.7 16.75 L29.55 16.25 28.9 13.35 28.75 12.9 Q26.3 3.25 22.9 -6.7 L22.3 -8.3 22.2 -8.65 22.0 -9.15 21.2 -11.45 21.05 -11.8 20.6 -13.05 19.9 -15.0 18.75 -17.85 M29.55 16.25 Q32.7 14.95 35.9 11.1 L20.25 -24.2 Q1.4 -20.8 -21.25 -24.6 L-24.2 -18.2 -24.9 -16.6 -25.8 -14.5 -26.75 -12.4 -27.45 -10.65 -28.2 -8.9 Q-31.9 0.05 -35.05 9.25 L-35.95 11.9 Q-33.95 14.45 -29.85 16.65" fill="none" stroke="#000000" stroke-linecap="round" stroke-linejoin="round" stroke-width="1.6"/>
  </g>
</svg>
