<?xml version="1.0" encoding="UTF-8" standalone="no"?>
<svg xmlns:xlink="http://www.w3.org/1999/xlink" height="50.3px" width="41.05px" xmlns="http://www.w3.org/2000/svg">
  <g transform="matrix(1.0, 0.0, 0.0, 1.0, 20.5, 25.15)">
    <path d="M0.0 25.15 Q-15.8 24.65 -20.5 20.15 L-16.65 8.75 Q-15.5 3.4 -17.6 -4.4 -22.0 -20.05 -10.75 -25.15 L-10.7 -25.1 Q-10.65 -22.1 -8.5 -21.65 -8.75 -18.6 -5.3 -17.9 -5.45 -14.45 -3.25 -13.55 -3.5 -12.5 -2.9 -10.0 L-2.95 -9.95 -2.65 -9.4 -1.7 -8.4 -2.35 -7.25 Q-2.65 -5.7 -2.1 -4.3 L-1.3 -3.0 -1.95 -2.1 Q-2.55 -0.45 -1.75 1.1 L-0.85 2.45 -1.55 3.3 Q-2.1 4.75 -1.5 6.3 -1.25 7.15 -0.6 7.8 L-1.15 8.7 Q-1.8 10.1 -1.45 11.7 -1.25 12.65 -0.55 13.2 L-0.85 14.45 Q-0.9 15.1 -0.4 16.2 0.1 17.25 -0.1 17.95 L-0.4 18.85 -0.75 19.7 Q-1.05 20.35 -0.6 21.75 L0.25 22.85 0.55 23.0 0.5 23.1 0.5 23.2 0.45 23.25 0.4 23.3 0.4 23.4 0.35 23.45 0.35 23.5 0.3 23.6 0.3 23.65 0.0 25.15 M6.8 -23.0 Q9.8 -20.85 11.8 -17.0 14.4 -8.4 15.15 1.65 17.55 12.1 20.55 19.95 19.1 21.4 16.2 22.55 16.25 21.6 15.8 20.7 L14.7 19.05 Q14.9 18.1 14.7 17.2 L14.2 15.5 Q14.0 14.8 13.35 14.4 L13.9 13.85 Q14.85 12.85 14.15 11.6 L12.75 9.3 13.65 8.05 Q14.05 7.2 13.7 5.9 13.35 4.6 12.8 3.85 13.2 3.5 13.25 2.8 L12.85 0.85 Q12.35 -0.4 11.7 -1.0 L12.35 -3.25 12.4 -4.7 Q12.35 -5.55 11.4 -7.1 11.8 -8.9 11.5 -10.2 10.6 -12.5 9.05 -13.65 9.5 -16.65 6.8 -18.95 8.15 -20.6 6.8 -23.0" fill="#429376" fill-rule="evenodd" stroke="none"/>
  </g>
</svg>
