<?xml version="1.0" encoding="UTF-8" standalone="no"?>
<svg xmlns:xlink="http://www.w3.org/1999/xlink" height="39.5px" width="51.95px" xmlns="http://www.w3.org/2000/svg">
  <g transform="matrix(1.0, 0.0, 0.0, 1.0, 26.25, 20.65)">
    <path d="M17.85 -18.3 L22.2 -9.5 15.05 -9.5 13.2 -18.3 17.85 -18.3 M22.0 -7.85 L3.25 11.2 15.15 -7.85 22.0 -7.85 M-5.0 -18.3 L-6.35 -9.5 -21.95 -9.5 -18.05 -18.3 -5.0 -18.3 M-22.05 -7.85 L-6.35 -7.85 -1.5 13.0 -22.05 -7.85" fill="#b9b8e2" fill-opacity="0.4862745" fill-rule="evenodd" stroke="none"/>
    <path d="M-3.2 -18.3 L11.15 -18.3 13.15 -9.5 -4.45 -9.5 -3.2 -18.3 M-4.4 -7.85 L13.2 -7.85 -0.15 14.95 -4.4 -7.85" fill="#b9b8e2" fill-opacity="0.21960784" fill-rule="evenodd" stroke="none"/>
    <path d="M17.85 -18.3 L13.2 -18.3 15.05 -9.5 22.2 -9.5 17.85 -18.3 M-3.2 -18.3 L-4.45 -9.5 13.15 -9.5 11.15 -18.3 -3.2 -18.3 M22.0 -7.85 L15.15 -7.85 3.25 11.2 22.0 -7.85 M-26.25 -8.5 L-20.35 -20.65 19.6 -20.65 25.7 -8.6 -0.3 18.85 -26.25 -8.5 M-5.0 -18.3 L-18.05 -18.3 -21.95 -9.5 -6.35 -9.5 -5.0 -18.3 M-22.05 -7.85 L-1.5 13.0 -6.35 -7.85 -22.05 -7.85 M-4.4 -7.85 L-0.15 14.95 13.2 -7.85 -4.4 -7.85" fill="#ced9fd" fill-rule="evenodd" stroke="none"/>
  </g>
</svg>
