<?xml version="1.0" encoding="UTF-8" standalone="no"?>
<svg xmlns:xlink="http://www.w3.org/1999/xlink" height="52.95px" width="428.75px" xmlns="http://www.w3.org/2000/svg">
  <g transform="matrix(1.0, 0.0, 0.0, 1.0, 214.4, 26.45)">
    <path d="M-208.0 -26.45 L207.95 -26.45 Q214.35 -26.45 214.35 -20.05 L214.35 20.1 Q214.35 26.5 207.95 26.5 L-208.0 26.5 Q-214.4 26.5 -214.4 20.1 L-214.4 -20.05 Q-214.4 -26.45 -208.0 -26.45" fill="url(#gradient0)" fill-rule="evenodd" stroke="none"/>
    <path d="M-208.0 -26.45 L207.95 -26.45 Q214.35 -26.45 214.35 -20.05 L214.35 20.1 Q214.35 26.5 207.95 26.5 L-208.0 26.5 Q-214.4 26.5 -214.4 20.1 L-214.4 -20.05 Q-214.4 -26.45 -208.0 -26.45" fill="url(#gradient1)" fill-rule="evenodd" stroke="none"/>
  </g>
  <defs>
    <linearGradient gradientTransform="matrix(0.2523, 0.0, 0.0, 0.0323, 0.1, 0.0)" gradientUnits="userSpaceOnUse" id="gradient0" spreadMethod="pad" x1="-819.2" x2="819.2">
      <stop offset="0.0" stop-color="#35414d"/>
      <stop offset="0.20392156862745098" stop-color="#33462f"/>
      <stop offset="0.4666666666666667" stop-color="#4a4936"/>
      <stop offset="0.7333333333333333" stop-color="#463142"/>
      <stop offset="1.0" stop-color="#4a3049"/>
    </linearGradient>
    <linearGradient gradientTransform="matrix(0.0, 0.029, -0.2617, 0.0, 0.0, -1.2)" gradientUnits="userSpaceOnUse" id="gradient1" spreadMethod="pad" x1="-819.2" x2="819.2">
      <stop offset="0.00784313725490196" stop-color="#000000" stop-opacity="0.60784316"/>
      <stop offset="1.0" stop-color="#000000" stop-opacity="0.007843138"/>
    </linearGradient>
  </defs>
</svg>
