<?xml version="1.0" encoding="UTF-8" standalone="no"?>
<svg xmlns:xlink="http://www.w3.org/1999/xlink" height="23.7px" width="18.1px" xmlns="http://www.w3.org/2000/svg">
  <g transform="matrix(1.0, 0.0, 0.0, 1.0, 8.5, 14.1)">
    <path d="M-5.45 -6.95 L5.5 -12.6 1.15 -4.3 5.7 -3.9 -1.05 8.1 -1.7 0.5 -4.7 -0.2 -2.65 -4.8 -5.45 -6.95 M-2.45 6.95 L-7.0 2.35 -5.15 6.95 -2.45 6.95 M1.9 6.85 L3.85 3.65 8.1 3.1 1.9 6.85" fill="none" stroke="#4a2f0f" stroke-linecap="round" stroke-linejoin="round" stroke-opacity="0.7372549" stroke-width="3.0"/>
    <path d="M-5.45 -6.95 L5.5 -12.6 1.15 -4.3 5.7 -3.9 -1.05 8.1 -1.7 0.5 -4.7 -0.2 -2.65 -4.8 -5.45 -6.95 M-2.45 6.95 L-5.15 6.95 -7.0 2.35 -2.45 6.95 M1.9 6.85 L3.85 3.65 8.1 3.1 1.9 6.85" fill="#fffd64" fill-rule="evenodd" stroke="none"/>
  </g>
</svg>
