<?xml version="1.0" encoding="UTF-8" standalone="no"?>
<svg xmlns:xlink="http://www.w3.org/1999/xlink" height="25.6px" width="34.1px" xmlns="http://www.w3.org/2000/svg">
  <g transform="matrix(1.0, 0.0, 0.0, 1.0, 17.05, 12.8)">
    <path d="M0.85 9.25 L0.0 9.8 -0.05 9.8 -0.75 9.8 -0.9 9.8 -1.6 9.45 -1.65 9.4 -13.55 -3.65 Q-14.05 -4.3 -14.05 -4.9 -14.05 -5.75 -13.55 -6.2 L-13.5 -6.2 Q-12.9 -6.6 -12.2 -6.6 -11.45 -6.6 -10.9 -5.95 L-0.3 5.65 11.05 -6.0 Q11.5 -6.6 12.25 -6.6 13.0 -6.6 13.45 -6.2 14.05 -5.7 14.05 -4.8 14.05 -4.05 13.45 -3.65 L0.85 9.25 M2.25 -4.3 Q1.3 -3.3 -0.05 -3.3 -1.35 -3.3 -2.4 -4.3 -3.25 -5.25 -3.25 -6.55 -3.25 -7.85 -2.4 -8.85 -1.35 -9.8 -0.05 -9.8 1.3 -9.8 2.25 -8.85 2.95 -7.85 2.95 -6.55 2.95 -5.25 2.25 -4.3" fill="#000000" fill-rule="evenodd" stroke="none"/>
    <path d="M0.85 9.25 L0.0 9.8 -0.05 9.8 -0.75 9.8 -0.9 9.8 -1.6 9.45 -1.65 9.4 -13.55 -3.65 Q-14.05 -4.3 -14.05 -4.9 -14.05 -5.75 -13.55 -6.2 L-13.5 -6.2 Q-12.9 -6.6 -12.2 -6.6 -11.45 -6.6 -10.9 -5.95 L-0.3 5.65 11.05 -6.0 Q11.5 -6.6 12.25 -6.6 13.0 -6.6 13.45 -6.2 14.05 -5.7 14.05 -4.8 14.05 -4.05 13.45 -3.65 L0.85 9.25 M2.25 -4.3 Q1.3 -3.3 -0.05 -3.3 -1.35 -3.3 -2.4 -4.3 -3.25 -5.25 -3.25 -6.55 -3.25 -7.85 -2.4 -8.85 -1.35 -9.8 -0.05 -9.8 1.3 -9.8 2.25 -8.85 2.95 -7.85 2.95 -6.55 2.95 -5.25 2.25 -4.3" fill="none" stroke="#cbdeff" stroke-linecap="round" stroke-linejoin="round" stroke-opacity="0.92941177" stroke-width="6.0"/>
    <path d="M0.85 9.25 L0.0 9.8 -0.05 9.8 -0.75 9.8 -0.9 9.8 -1.6 9.45 -1.65 9.4 -13.55 -3.65 Q-14.05 -4.3 -14.05 -4.9 -14.05 -5.75 -13.55 -6.2 L-13.5 -6.2 Q-12.9 -6.6 -12.2 -6.6 -11.45 -6.6 -10.9 -5.95 L-0.3 5.65 11.05 -6.0 Q11.5 -6.6 12.25 -6.6 13.0 -6.6 13.45 -6.2 14.05 -5.7 14.05 -4.8 14.05 -4.05 13.45 -3.65 L0.85 9.25 M2.25 -4.3 Q1.3 -3.3 -0.05 -3.3 -1.35 -3.3 -2.4 -4.3 -3.25 -5.25 -3.25 -6.55 -3.25 -7.85 -2.4 -8.85 -1.35 -9.8 -0.05 -9.8 1.3 -9.8 2.25 -8.85 2.95 -7.85 2.95 -6.55 2.95 -5.25 2.25 -4.3" fill="#000000" fill-rule="evenodd" stroke="none"/>
    <path d="M0.85 9.25 L0.0 9.8 -0.05 9.8 -0.75 9.8 -0.9 9.8 -1.6 9.45 -1.65 9.4 -13.55 -3.65 Q-14.05 -4.3 -14.05 -4.9 -14.05 -5.75 -13.55 -6.2 L-13.5 -6.2 Q-12.9 -6.6 -12.2 -6.6 -11.45 -6.6 -10.9 -5.95 L-0.3 5.65 11.05 -6.0 Q11.5 -6.6 12.25 -6.6 13.0 -6.6 13.45 -6.2 14.05 -5.7 14.05 -4.8 14.05 -4.05 13.45 -3.65 L0.85 9.25 M2.25 -4.3 Q1.3 -3.3 -0.05 -3.3 -1.35 -3.3 -2.4 -4.3 -3.25 -5.25 -3.25 -6.55 -3.25 -7.85 -2.4 -8.85 -1.35 -9.8 -0.05 -9.8 1.3 -9.8 2.25 -8.85 2.95 -7.85 2.95 -6.55 2.95 -5.25 2.25 -4.3" fill="none" stroke="#313470" stroke-linecap="round" stroke-linejoin="round" stroke-opacity="0.6784314" stroke-width="3.0"/>
    <path d="M0.85 9.25 L0.0 9.8 -0.05 9.8 -0.75 9.8 -0.9 9.8 -1.6 9.45 -1.65 9.4 -13.55 -3.65 Q-14.05 -4.3 -14.05 -4.9 -14.05 -5.75 -13.55 -6.2 L-13.5 -6.2 Q-12.9 -6.6 -12.2 -6.6 -11.45 -6.6 -10.9 -5.95 L-0.3 5.65 11.05 -6.0 Q11.5 -6.6 12.25 -6.6 13.0 -6.6 13.45 -6.2 14.05 -5.7 14.05 -4.8 14.05 -4.05 13.45 -3.65 L0.85 9.25 M2.25 -4.3 Q1.3 -3.3 -0.05 -3.3 -1.35 -3.3 -2.4 -4.3 -3.25 -5.25 -3.25 -6.55 -3.25 -7.85 -2.4 -8.85 -1.35 -9.8 -0.05 -9.8 1.3 -9.8 2.25 -8.85 2.95 -7.85 2.95 -6.55 2.95 -5.25 2.25 -4.3" fill="url(#gradient0)" fill-rule="evenodd" stroke="none"/>
  </g>
  <defs>
    <linearGradient gradientTransform="matrix(0.0, -0.012, 0.0172, 0.0, 0.0, -0.7)" gradientUnits="userSpaceOnUse" id="gradient0" spreadMethod="pad" x1="-819.2" x2="819.2">
      <stop offset="0.0" stop-color="#98ceff"/>
      <stop offset="1.0" stop-color="#da9fff"/>
    </linearGradient>
  </defs>
</svg>
