<?xml version="1.0" encoding="UTF-8" standalone="no"?>
<svg xmlns:xlink="http://www.w3.org/1999/xlink" height="21.85px" width="19.45px" xmlns="http://www.w3.org/2000/svg">
  <g transform="matrix(1.0, 0.0, 0.0, 1.0, 9.7, 10.95)">
    <path d="M-4.95 -3.55 L-5.05 -3.6 Q-5.25 -5.3 -3.65 -6.7 -3.8 -8.45 -2.45 -9.95 2.55 -6.65 8.75 -6.0 8.25 -3.4 7.6 -3.05 L6.95 -0.65 6.5 -0.25 6.15 -0.1 6.15 1.0 5.8 3.35 5.65 4.95 Q5.3 7.8 3.55 9.9 0.1 8.15 -3.95 8.35 -6.15 6.5 -8.7 6.95 L-8.0 5.2 -7.6 4.5 Q-6.5 0.5 -7.55 -1.4 L-6.65 -1.85 Q-6.0 -2.1 -4.95 -3.55 L-2.95 -2.45 Q1.85 0.0 5.5 -0.05 L6.15 -0.1" fill="none" stroke="#000000" stroke-linecap="round" stroke-linejoin="round" stroke-width="2.0"/>
  </g>
</svg>
