<?xml version="1.0" encoding="UTF-8" standalone="no"?>
<svg xmlns:xlink="http://www.w3.org/1999/xlink" height="157.0px" width="77.65px" xmlns="http://www.w3.org/2000/svg">
  <g transform="matrix(1.0, 0.0, 0.0, 1.0, 38.85, 78.5)">
    <path d="M-20.5 -2.9 L-20.55 -2.9 -20.85 -6.8 -20.8 -8.1 Q-18.45 -7.4 -18.35 -5.65 -18.15 -3.2 -20.25 -2.9 L-20.5 -2.9" fill="#090508" fill-rule="evenodd" stroke="none"/>
    <path d="M9.45 -33.75 Q11.3 -44.4 8.5 -52.3 L3.45 -65.15 1.95 -68.8 1.2 -70.4 Q-2.6 -78.0 -5.1 -77.45 L-6.2 -76.65 -6.55 -76.2 Q-7.15 -75.3 -8.35 -71.25 L-8.65 -70.0 Q-9.75 -65.5 -10.35 -54.6 -10.6 -48.75 -9.0 -43.3 -6.0 -38.35 -4.4 -31.9 L-3.85 -30.65 Q-3.65 -30.75 -3.55 -30.8 L-3.35 -30.95 0.85 -32.6 3.4 -33.25 4.15 -33.35 8.75 -33.75 9.1 -33.75 9.45 -33.75 14.45 -33.3 17.2 -32.65 Q23.5 -30.8 28.55 -25.9 36.6 -17.95 36.6 -6.8 36.6 4.3 28.55 12.15 26.7 14.0 24.65 15.4 L25.55 16.55 Q33.45 26.5 34.1 40.4 34.25 44.35 33.7 47.9 L34.65 48.75 Q38.45 52.6 37.65 57.55 36.8 62.55 33.25 66.5 30.5 69.4 27.15 70.25 L24.85 70.7 Q22.1 70.85 19.7 69.7 L18.6 70.4 Q14.75 72.7 9.3 74.2 L4.55 74.8 0.9 74.1 Q-2.35 75.75 -6.55 76.85 L-10.15 77.45 -11.3 77.5 Q-13.85 77.45 -15.95 76.4 -19.7 74.4 -18.85 70.45 -18.1 66.6 -14.05 64.55 L-14.0 64.5 -10.65 62.95 -8.1 61.9 Q-10.0 58.6 -10.65 54.8 L-14.0 54.9 Q-15.7 54.45 -16.85 53.15 -18.5 51.4 -19.25 48.2 -19.75 46.2 -19.7 44.05 -19.7 40.1 -18.0 35.65 -15.3 28.8 -10.1 23.8 -4.8 18.8 -3.0 18.85 L-2.85 18.85 -2.6 17.6 -3.35 17.25 -5.65 15.95 -10.35 12.85 -11.15 12.15 -14.75 8.85 -16.0 7.35 Q-18.35 4.25 -18.85 2.0 -22.5 2.0 -20.5 -2.9 L-20.55 -2.9 -20.85 -6.8 -20.8 -8.1 -20.8 -8.15 Q-20.6 -12.1 -19.15 -15.6 L-19.15 -15.65 -17.55 -19.7 -15.6 -22.6 -23.15 -30.35 -23.85 -31.05 Q-30.05 -37.2 -32.9 -45.1 -35.8 -53.25 -36.95 -57.85 L-37.65 -61.7 Q-38.0 -65.95 -37.75 -67.05 L-37.55 -67.6 Q-37.15 -68.6 -36.3 -68.8 -33.45 -69.35 -25.9 -62.2 L-22.9 -59.15 -12.55 -48.05 Q-10.6 -45.9 -9.0 -43.3 M-2.6 17.6 Q2.65 20.1 9.1 20.1 16.95 20.1 23.25 16.3 L24.65 15.4 M-2.85 18.85 Q-1.45 18.9 1.2 21.9 L2.7 23.75 Q6.55 28.75 2.1 38.0 -1.55 45.55 -4.75 49.85 L-6.2 51.6 Q-8.45 54.05 -10.65 54.8 M-8.1 61.9 L-7.35 63.1 Q-5.3 66.1 -3.0 68.2 0.25 71.15 4.0 72.25 L8.5 72.85 11.85 72.55 Q15.65 71.85 19.35 69.5 17.75 68.65 16.25 67.2 15.05 66.0 14.2 64.6 12.45 61.65 12.45 58.0 12.45 52.6 16.25 48.75 20.1 44.95 25.5 44.95 L25.85 44.95 28.3 45.3 Q31.25 45.95 33.7 47.9 M0.9 74.1 L2.8 73.05 4.0 72.25 M19.35 69.5 L19.7 69.7 M-3.15 -25.25 L-4.05 -30.55 -4.4 -31.9 M-4.05 -30.55 L-3.85 -30.65 M-15.6 -22.6 L-14.95 -21.9 M-20.8 -8.1 Q-18.45 -7.4 -18.35 -5.65 -18.15 -3.2 -20.25 -2.9 L-20.5 -2.9 M-13.45 5.5 Q-13.15 8.5 -16.0 7.35" fill="none" stroke="#000000" stroke-linecap="round" stroke-linejoin="round" stroke-width="2.0"/>
  </g>
</svg>
