<?xml version="1.0" encoding="UTF-8" standalone="no"?>
<svg xmlns:xlink="http://www.w3.org/1999/xlink" height="112.0px" width="116.8px" xmlns="http://www.w3.org/2000/svg">
  <g transform="matrix(1.0, 0.0, 0.0, 1.0, 63.2, 1.65)">
    <path d="M-43.1 91.9 Q-37.9 83.4 -40.75 80.35 -47.5 78.1 -49.5 83.85 L-47.65 90.1 Q-54.6 88.5 -53.95 98.1 -56.25 97.7 -56.9 89.1 -62.6 90.6 -63.05 96.65 -64.15 90.65 -57.8 81.7 -40.1 62.8 -35.75 48.25 -22.4 9.7 -2.65 -1.65 L3.95 -1.15 Q14.1 2.2 19.65 8.9 38.35 42.6 43.0 81.2 47.45 93.5 53.6 99.95 L44.15 99.3 Q43.05 89.4 39.0 96.65 38.35 93.35 37.1 92.25 34.2 95.95 36.05 102.2 35.7 101.2 31.45 99.05 27.85 99.9 32.1 106.15 21.95 105.75 17.05 110.35 17.8 104.0 22.25 98.65 26.4 91.7 20.9 86.9 L15.4 102.9 -0.15 105.8 -2.2 82.05 Q-8.35 90.3 -12.8 105.4 -14.1 96.2 -17.7 100.4 -18.4 90.2 -19.75 91.75 -23.45 100.9 -20.5 108.7 -28.0 111.7 -34.8 105.8 -25.15 100.0 -26.3 94.0 -28.65 93.55 -30.7 98.3 -32.75 85.7 -18.15 69.25 -36.1 87.4 -36.85 97.05 L-39.05 108.35 Q-39.7 99.3 -48.95 97.75 -46.15 96.75 -43.1 91.9" fill="url(#gradient0)" fill-rule="evenodd" stroke="none"/>
  </g>
  <defs>
    <linearGradient gradientTransform="matrix(-0.0018, 0.0439, -0.0713, -0.0029, -3.3, 60.95)" gradientUnits="userSpaceOnUse" id="gradient0" spreadMethod="pad" x1="-819.2" x2="819.2">
      <stop offset="0.0" stop-color="#000000"/>
      <stop offset="1.0" stop-color="#000000" stop-opacity="0.0"/>
    </linearGradient>
  </defs>
</svg>
