<?xml version="1.0" encoding="UTF-8" standalone="no"?>
<svg xmlns:xlink="http://www.w3.org/1999/xlink" height="141.05px" width="147.2px" xmlns="http://www.w3.org/2000/svg">
  <g transform="matrix(1.0, 0.0, 0.0, 1.0, 73.6, 70.5)">
    <path d="M-39.7 -27.2 Q-42.1 -22.9 -43.6 -17.7 L-39.7 -27.2 M24.7 -40.25 L24.7 -40.7 Q19.6 -48.4 4.75 -52.0 -9.9 -53.9 -23.5 -42.2 -35.0 -29.75 -41.15 1.15 L-43.4 13.9 -43.65 15.45 -43.75 16.0 -43.8 16.4 -43.85 16.55 -44.25 19.7 Q-46.3 33.9 -47.4 49.45 -48.4 60.45 -44.6 70.55 -50.0 69.55 -53.7 67.55 L-54.1 67.3 -54.55 67.05 -60.95 60.0 -61.35 58.95 Q-70.35 59.7 -73.6 54.85 -70.9 18.5 -60.6 -4.85 -46.35 -37.0 -27.2 -57.6 L-21.9 -62.35 Q0.55 -79.95 28.4 -59.65 L34.65 -49.25 Q65.45 3.75 73.55 55.1 74.15 62.05 67.25 60.3 65.25 67.65 57.6 68.25 55.7 40.5 50.0 15.0 L49.75 13.75 49.5 12.9 48.4 8.05 45.55 -2.45 Q38.7 -26.4 28.95 -36.5 L24.9 -40.7 24.7 -40.25" fill="#100d0e" fill-rule="evenodd" stroke="none"/>
  </g>
</svg>
