<?xml version="1.0" encoding="UTF-8" standalone="no"?>
<svg xmlns:xlink="http://www.w3.org/1999/xlink" height="88.05px" width="65.95px" xmlns="http://www.w3.org/2000/svg">
  <g transform="matrix(1.0, 0.0, 0.0, 1.0, 33.15, 44.0)">
    <path d="M-32.1 -10.05 L-31.2 -13.1 Q-28.4 -21.6 -23.9 -27.9 L-23.85 -28.05 -22.6 -29.6 -22.45 -29.8 Q-16.45 -37.4 -7.7 -40.95 L-6.8 -41.25 -3.05 -42.4 Q3.05 -44.1 10.55 -44.0 L13.55 -43.9 14.35 -43.5 14.5 -43.45 Q30.25 -41.05 32.8 -6.45 31.25 39.9 7.25 43.9 L5.6 44.05 3.9 43.4 2.55 42.9 1.95 42.65 Q-2.2 40.85 -5.85 38.9 L-6.2 38.85 Q-11.6 35.8 -15.85 32.25 L-16.0 32.2 -16.8 31.45 -17.3 31.0 Q-25.8 23.35 -29.6 13.15 L-29.8 12.75 -30.45 10.6 -30.65 10.4 -30.75 9.85 Q-33.15 1.75 -32.8 -3.35 -32.5 -8.9 -32.15 -9.9 L-31.8 -10.0 -32.1 -10.05" fill="#5e9365" fill-rule="evenodd" stroke="none"/>
    <path d="M-32.15 -9.9 L-32.1 -10.05 -31.8 -10.0 -32.15 -9.9" fill="#7fc689" fill-rule="evenodd" stroke="none"/>
    <path d="M-31.8 -10.0 L-32.15 -9.9" fill="none" stroke="#000000" stroke-linecap="round" stroke-linejoin="round" stroke-width="2.0"/>
  </g>
</svg>
