<?xml version="1.0" encoding="UTF-8" standalone="no"?>
<svg xmlns:xlink="http://www.w3.org/1999/xlink" height="46.4px" width="45.35px" xmlns="http://www.w3.org/2000/svg">
  <g transform="matrix(1.0, 0.0, 0.0, 1.0, 22.7, 23.2)">
    <path d="M-2.8 -10.25 Q-6.65 -4.65 -5.05 0.5 -10.85 -3.0 -14.4 -10.25 -16.05 -15.55 -13.05 -14.1 -6.65 -10.85 -2.8 -10.25 M3.2 -20.5 Q7.5 -22.55 12.65 -23.1 17.3 -23.6 22.5 -21.9 24.3 -21.05 6.4 -17.05 -0.1 -14.0 -0.8 -17.0 -0.3 -18.7 3.2 -20.5 M-9.05 8.7 Q-10.2 11.05 -9.8 14.2 -8.7 21.1 -4.95 20.95 -9.35 23.35 -13.4 23.2 -18.65 23.1 -21.65 18.2 -24.05 13.25 -20.85 13.6 -17.6 14.0 -14.3 12.65 -11.55 10.75 -9.05 8.7" fill="#664d5c" fill-rule="evenodd" stroke="none"/>
  </g>
</svg>
