<?xml version="1.0" encoding="UTF-8" standalone="no"?>
<svg xmlns:xlink="http://www.w3.org/1999/xlink" height="36.85px" width="38.95px" xmlns="http://www.w3.org/2000/svg">
  <g transform="matrix(1.0, 0.0, 0.0, 1.0, 65.45, -41.9)">
    <path d="M-45.65 42.55 Q-45.15 43.1 -45.1 43.65 -45.05 44.25 -45.35 44.55 -45.75 44.9 -46.3 44.8 -46.85 44.7 -47.4 44.15 L-47.85 43.05 Q-48.0 42.45 -47.6 42.15 -47.25 41.85 -46.65 41.95 L-45.65 42.55 M-43.65 52.3 L-43.75 51.75 -43.45 51.2 -42.9 51.0 -42.45 51.2 Q-42.15 51.35 -42.25 51.7 L-42.6 52.2 -43.15 52.45 -43.65 52.3 M-56.25 53.5 L-55.95 52.95 Q-55.75 52.7 -55.35 52.7 -55.15 52.65 -54.95 52.9 L-54.75 53.35 -55.1 53.95 -55.65 54.2 -56.1 53.95 -56.25 53.5 M-47.6 66.55 Q-47.15 66.55 -46.85 66.95 -46.55 67.3 -46.55 67.7 -46.65 68.2 -47.05 68.55 -47.45 68.9 -47.9 68.95 L-48.75 68.65 Q-49.05 68.3 -48.95 67.8 L-48.4 67.0 -47.6 66.55 M-65.45 62.65 L-65.0 61.9 -64.15 61.45 Q-63.65 61.45 -63.35 61.75 -63.15 62.05 -63.2 62.55 -63.25 63.05 -63.6 63.4 L-64.5 63.7 -65.2 63.45 Q-65.5 63.15 -65.45 62.65 M-41.9 77.15 L-42.25 77.8 Q-42.55 78.1 -43.0 78.15 -43.35 78.2 -43.6 77.9 L-43.75 77.2 -43.35 76.55 -42.7 76.25 Q-42.25 76.3 -42.1 76.5 -41.85 76.8 -41.9 77.15 M-47.75 78.45 L-48.4 78.75 -48.95 78.5 -49.1 78.0 -48.8 77.4 Q-48.45 77.1 -48.15 77.15 -47.8 77.05 -47.6 77.3 L-47.4 77.85 -47.75 78.45 M-37.4 65.6 Q-36.95 65.15 -36.3 65.1 -35.75 65.1 -35.35 65.5 -35.0 65.85 -35.05 66.4 -35.15 67.0 -35.65 67.55 -36.15 67.95 -36.7 67.95 -37.4 68.05 -37.65 67.6 -38.05 67.2 -37.95 66.55 -37.85 65.95 -37.4 65.6 M-26.7 64.65 Q-26.45 64.85 -26.5 65.15 L-26.8 65.7 Q-27.05 65.9 -27.4 65.9 L-27.9 65.75 -28.0 65.2 -27.7 64.8 Q-27.5 64.5 -27.1 64.45 -26.85 64.45 -26.7 64.65" fill="#ffffff" fill-rule="evenodd" stroke="none"/>
  </g>
</svg>
