<?xml version="1.0" encoding="UTF-8" standalone="no"?>
<svg xmlns:xlink="http://www.w3.org/1999/xlink" height="141.5px" width="141.1px" xmlns="http://www.w3.org/2000/svg">
  <g transform="matrix(1.0, 0.0, 0.0, 1.0, 0.75, 0.75)">
    <path d="M15.4 5.65 L16.15 8.95 17.75 10.8 Q24.95 18.9 38.25 31.95 L40.2 33.75 40.9 33.35 Q44.55 30.6 48.05 28.4 53.5 25.0 60.75 22.4 62.0 19.9 64.4 21.25 68.0 24.0 67.7 27.1 67.7 28.0 67.2 28.9 L67.2 29.3 Q65.8 30.15 63.05 29.0 59.9 29.3 56.5 31.3 L61.25 37.5 60.0 39.8 133.35 113.15 139.6 140.0 113.05 133.45 39.55 59.95 37.0 61.1 31.2 56.45 Q29.1 59.85 28.8 63.2 30.0 65.75 29.2 67.25 L28.9 67.3 27.05 67.75 Q23.6 68.15 21.15 64.5 19.75 62.2 22.4 60.75 24.75 53.75 28.25 48.05 L33.35 40.8 33.7 40.25 31.85 38.4 Q18.8 25.1 10.7 17.9 L8.9 16.2 5.65 15.4 M60.0 39.8 L58.9 42.1 61.4 45.5 Q62.45 48.4 62.45 52.6 61.9 56.15 59.1 59.55 55.85 62.25 52.3 62.4 48.45 62.65 45.35 61.7 L42.15 58.9 39.55 59.95 M8.9 16.2 Q7.55 13.75 10.35 10.7 L10.65 10.45 Q13.6 7.55 16.15 8.95 M33.7 40.25 L33.95 39.85 36.05 37.6 36.6 36.9 36.75 36.8 36.85 36.65 37.5 36.15 39.65 33.95 40.2 33.75" fill="none" stroke="#000000" stroke-linecap="round" stroke-linejoin="round" stroke-width="1.5"/>
    <path d="M31.2 56.45 Q33.0 54.8 34.3 54.05 L34.55 54.0 39.15 49.65 38.8 48.05 Q38.5 47.5 38.6 46.65 37.75 42.9 40.1 40.55 L40.25 40.35 Q42.65 38.0 46.75 38.5 47.5 38.5 48.05 38.85 48.9 38.9 49.65 39.3 L53.85 34.7 54.05 34.35 Q54.75 33.05 56.35 31.45 L56.5 31.3 M47.55 42.15 L48.95 42.55 Q50.75 43.15 52.3 44.55 L52.55 44.8 Q54.4 46.9 54.9 49.45 55.35 52.1 53.6 53.75 L53.5 53.95 Q51.9 55.5 49.35 55.0 46.95 54.5 44.7 52.65 L44.45 52.4 43.95 51.8 Q42.15 50.0 42.1 47.6 L41.95 47.25 42.0 45.75 Q42.1 44.45 43.1 43.4 L43.15 43.3 Q44.25 42.2 45.6 42.0 L47.2 42.15 47.55 42.15 M49.65 39.3 L51.15 40.15 Q52.55 40.95 53.8 42.2 L55.35 44.05 Q57.3 46.65 57.8 49.6 58.25 53.5 55.7 55.85 53.3 58.3 49.5 57.7 46.05 57.15 43.05 54.8 L42.15 53.95 Q40.1 51.95 39.15 49.65" fill="none" stroke="#000000" stroke-linecap="round" stroke-linejoin="round" stroke-width="1.0"/>
    <path d="M5.65 15.4 L2.5 14.5 Q-1.85 7.2 1.4 1.2 7.2 -1.8 14.5 2.55 L15.4 5.65 Z" fill="none" stroke="#191919" stroke-linecap="round" stroke-linejoin="round" stroke-width="1.5"/>
  </g>
</svg>
