<?xml version="1.0" encoding="UTF-8" standalone="no"?>
<svg xmlns:xlink="http://www.w3.org/1999/xlink" height="210.6px" width="23.95px" xmlns="http://www.w3.org/2000/svg">
  <g transform="matrix(1.0, 0.0, 0.0, 1.0, 12.0, 105.3)">
    <path d="M0.0 -61.2 Q1.2 -55.1 3.5 -52.65 6.7 -49.25 11.95 -52.65 6.35 -47.2 0.05 -49.8 L-0.05 -49.8 Q-6.25 -47.2 -12.0 -52.75 -3.05 -46.7 0.0 -61.2 M0.05 -64.85 L-5.35 -69.85 Q-6.35 -93.0 0.0 -105.3 6.4 -92.95 5.4 -69.8 L0.05 -64.85 M2.85 101.35 Q2.75 104.5 0.85 105.15 L-0.5 105.3 Q-2.7 104.6 -3.55 101.0 -4.95 100.45 -4.45 98.35 L4.0 98.35 Q4.6 100.9 2.85 101.35 M3.25 -31.05 Q4.9 -27.9 2.45 -27.7 L1.6 -27.75 -1.7 -27.7 -2.5 -27.7 Q-5.0 -27.85 -3.35 -31.0 L-3.4 -44.85 Q-3.9 -45.35 -4.0 -45.8 -4.35 -47.0 -0.05 -46.8 L1.0 -46.85 Q4.2 -46.85 3.95 -45.8 L3.35 -44.85 3.25 -31.05" fill="#cbc48e" fill-rule="evenodd" stroke="none"/>
  </g>
</svg>
