<?xml version="1.0" encoding="UTF-8" standalone="no"?>
<svg xmlns:xlink="http://www.w3.org/1999/xlink" height="59.6px" width="121.8px" xmlns="http://www.w3.org/2000/svg">
  <g transform="matrix(1.0, 0.0, 0.0, 1.0, 60.55, 23.7)">
    <path d="M51.6 35.9 Q53.8 25.45 54.3 23.75 L60.95 -4.05 Q61.7 -2.9 60.6 9.8 59.5 22.55 51.6 35.9 M41.8 -23.7 Q42.75 -23.0 44.9 -12.45 47.05 -1.95 43.8 10.7 43.05 1.75 43.05 0.3 L41.8 -23.7 M-39.2 -18.75 Q-38.6 -7.4 -37.6 5.15 L-37.25 15.5 Q-41.45 3.15 -40.75 -7.4 -39.95 -17.9 -39.2 -18.75 M-52.05 30.15 Q-59.35 17.75 -59.9 7.45 -60.45 -2.85 -60.55 -13.7 -56.95 7.85 -54.1 20.05 L-52.05 30.15" fill="#ffffff" fill-rule="evenodd" stroke="none"/>
  </g>
</svg>
