<?xml version="1.0" encoding="UTF-8" standalone="no"?>
<svg xmlns:xlink="http://www.w3.org/1999/xlink" height="33.25px" width="119.9px" xmlns="http://www.w3.org/2000/svg">
  <g transform="matrix(1.0, 0.0, 0.0, 1.0, 106.4, 39.75)">
    <path d="M-74.1 -13.6 L-70.0 -14.35 -69.95 -7.15 -74.1 -13.6 M-106.4 -8.75 L-86.75 -11.55 -90.25 -6.7 Q-101.95 -7.0 -106.4 -8.75 M5.95 -39.75 Q10.95 -25.75 13.5 -16.5 0.85 -12.2 -14.7 -9.65 L-16.45 -9.4 Q-20.35 -20.0 -27.2 -25.6 L-29.3 -7.85 -33.7 -7.4 -35.85 -11.0 -36.4 -7.2 -46.6 -6.5 -52.6 -18.2 Q-39.35 -21.5 -27.2 -25.6 -9.35 -31.75 5.95 -39.75" fill="#ffffff" fill-rule="evenodd" stroke="none"/>
  </g>
</svg>
