<?xml version="1.0" encoding="UTF-8" standalone="no"?>
<svg xmlns:xlink="http://www.w3.org/1999/xlink" height="51.4px" width="103.5px" xmlns="http://www.w3.org/2000/svg">
  <g transform="matrix(1.0, 0.0, 0.0, 1.0, 75.5, 11.65)">
    <path d="M14.45 -11.65 Q27.65 3.5 27.95 13.85 28.25 24.2 26.55 35.9 26.25 17.65 23.3 8.75 19.75 -1.8 14.1 -11.05 13.8 -11.6 14.45 -11.65 M14.25 25.55 Q7.7 7.45 2.15 -2.8 9.55 6.5 12.5 15.4 L14.25 25.55 M-51.1 -11.3 L-38.7 6.75 -33.5 14.75 Q-42.55 7.1 -46.9 -1.6 -51.2 -10.35 -51.1 -11.3 M-31.4 2.85 L-14.35 13.55 Q-8.7 17.0 -5.85 18.95 -16.4 14.75 -29.0 6.2 -30.35 5.2 -31.4 2.85 M-73.15 2.3 Q-68.75 -8.4 -67.4 -9.5 -69.75 -3.85 -71.85 8.95 -73.85 21.7 -73.7 39.75 -77.6 13.1 -73.15 2.3 M-55.3 0.8 Q-56.0 -2.95 -55.8 -5.15 L-53.15 4.6 Q-52.3 7.65 -52.25 8.7 -54.6 4.55 -55.3 0.8" fill="#ffffff" fill-rule="evenodd" stroke="none"/>
  </g>
</svg>
