<?xml version="1.0" encoding="UTF-8" standalone="no"?>
<svg xmlns:xlink="http://www.w3.org/1999/xlink" height="125.1px" width="127.75px" xmlns="http://www.w3.org/2000/svg">
  <g transform="matrix(1.0, 0.0, 0.0, 1.0, 63.85, 62.55)">
    <path d="M38.6 -51.65 Q42.65 -48.75 44.45 -47.75 52.0 -39.1 55.5 -31.35 67.15 -1.15 62.65 26.7 59.3 47.7 50.55 58.4 L56.15 41.0 Q53.0 49.65 46.75 58.0 L51.45 43.8 Q47.95 52.9 42.2 59.55 49.6 41.55 52.1 14.75 L50.95 18.85 47.6 -6.1 Q49.05 7.2 47.15 19.2 45.5 -4.3 30.9 -35.65 L31.55 -32.5 Q36.15 -0.75 19.75 19.2 22.4 10.3 21.5 -8.55 19.35 8.9 8.7 19.2 12.05 10.7 11.0 -9.45 9.25 7.2 2.25 20.0 L2.25 -5.35 Q1.2 5.0 -3.45 13.5 -2.35 -5.3 -6.65 -37.45 -14.25 -11.6 -31.9 7.15 -32.25 13.65 -32.1 19.75 -30.9 48.1 -20.2 61.45 -25.4 60.25 -33.35 46.2 -29.25 54.85 -22.1 62.55 -37.15 54.8 -43.75 39.75 -37.9 54.05 -32.0 61.75 -45.95 53.85 -50.15 39.65 -47.1 50.85 -42.95 58.75 -52.8 48.2 -61.35 20.35 L-62.4 14.85 Q-67.7 -15.25 -53.65 -41.65 -36.6 -59.75 0.0 -62.55 27.05 -60.0 38.6 -51.65" fill="#ff66ff" fill-rule="evenodd" stroke="none"/>
  </g>
</svg>
