<?xml version="1.0" encoding="UTF-8" standalone="no"?>
<svg xmlns:xlink="http://www.w3.org/1999/xlink" height="110.1px" width="113.55px" xmlns="http://www.w3.org/2000/svg">
  <g transform="matrix(1.0, 0.0, 0.0, 1.0, 56.65, 32.55)">
    <path d="M-56.45 -27.25 L-56.65 -30.55 Q-48.8 -26.15 -40.7 -30.8 L-41.0 -30.55 Q-41.0 -15.95 -36.0 18.6 L-34.7 28.3 Q-30.85 61.9 -37.15 77.55 -43.2 72.2 -55.15 72.8 -48.9 52.15 -51.35 30.35 -53.75 8.5 -56.45 -27.25 M44.2 28.95 Q49.6 -2.35 46.0 -32.4 50.6 -29.25 54.85 -32.55 56.0 -5.05 52.45 20.1 49.55 55.55 56.9 74.1 46.9 78.7 39.15 75.1 38.8 60.35 44.2 28.95" fill="#ffffff" fill-rule="evenodd" stroke="none"/>
  </g>
</svg>
