<?xml version="1.0" encoding="UTF-8" standalone="no"?>
<svg xmlns:xlink="http://www.w3.org/1999/xlink" height="77.7px" width="162.1px" xmlns="http://www.w3.org/2000/svg">
  <g transform="matrix(1.0, 0.0, 0.0, 1.0, 136.3, 41.4)">
    <path d="M18.8 -0.8 Q12.05 -4.5 11.05 -13.6 13.45 -6.9 18.8 -0.8 M10.3 8.35 Q14.55 17.4 25.8 19.05 12.2 19.7 10.3 8.35 M-85.15 -29.75 L-82.35 -3.6 -80.25 7.85 Q-85.75 -3.65 -85.75 -16.05 -85.75 -28.4 -85.15 -29.75 M-107.8 -20.1 Q-112.45 -8.0 -116.0 9.7 -114.25 -17.2 -107.7 -26.8 -101.2 -36.4 -94.15 -41.4 -103.15 -32.2 -107.8 -20.1 M-19.35 -5.7 Q-19.65 -3.6 -24.75 13.3 -19.4 -21.15 -23.45 -36.1 -19.15 -24.2 -19.15 -11.65 L-19.35 -5.7 M-5.95 -3.65 Q-6.4 3.3 -9.7 12.35 -7.25 -11.75 -8.45 -21.6 -6.6 -14.75 -6.05 -9.35 -5.8 -6.3 -5.95 -3.65 M-0.6 -29.3 Q8.25 -11.2 5.85 -1.15 3.5 8.95 -0.25 21.55 3.25 2.05 2.7 -7.3 2.0 -18.4 -1.05 -28.8 -1.2 -29.4 -0.6 -29.3 M-102.9 -14.85 Q-102.35 15.05 -88.5 36.3 -107.65 18.8 -102.9 -14.85 M-74.9 -24.25 Q-71.95 -4.95 -66.0 15.05 -74.5 -0.95 -74.9 -24.25 M-63.45 -16.75 Q-60.9 -0.25 -54.6 16.2 -65.75 -2.7 -63.45 -16.75 M-52.45 -19.85 Q-46.3 -2.85 -35.5 14.1 -47.35 6.7 -52.45 -19.85 M-136.3 13.2 Q-126.5 6.85 -122.0 -1.4 -124.35 11.3 -136.3 13.2 M-45.4 11.3 L-44.4 9.65 -43.75 10.3 -45.4 11.3 M-37.6 5.0 L-38.6 2.3 Q-31.9 -9.25 -30.9 -28.35 -28.55 -6.4 -37.6 5.0" fill="#ffffff" fill-rule="evenodd" stroke="none"/>
  </g>
</svg>
