<?xml version="1.0" encoding="UTF-8" standalone="no"?>
<svg xmlns:xlink="http://www.w3.org/1999/xlink" height="61.9px" width="117.1px" xmlns="http://www.w3.org/2000/svg">
  <g transform="matrix(1.0, 0.0, 0.0, 1.0, 71.45, 36.4)">
    <path d="M15.85 -33.2 Q28.45 -3.65 37.15 10.95 23.75 -6.25 21.35 -14.0 18.9 -21.75 15.85 -33.2 M31.65 -35.25 Q44.85 -16.75 45.15 -6.3 L45.65 17.95 Q43.55 -2.65 40.7 -12.05 37.15 -23.6 31.25 -34.7 L31.15 -35.05 Q31.15 -35.4 31.65 -35.25 M10.5 -14.15 L12.05 10.2 Q9.5 4.2 9.35 -1.2 9.15 -8.3 10.5 -14.15 M-50.75 -17.0 L-54.8 6.6 -56.15 17.05 Q-58.05 3.8 -54.85 -6.3 -51.65 -16.4 -50.75 -17.0 M-63.25 -15.1 Q-67.9 -3.0 -71.45 14.7 -69.7 -12.2 -63.15 -21.8 -56.65 -31.4 -49.6 -36.4 -58.6 -27.2 -63.25 -15.1 M-15.1 -21.7 Q-6.95 10.1 2.5 25.5 -10.1 11.4 -13.85 -3.35 -14.35 -5.4 -15.1 -21.7 M-37.45 -17.4 L-39.75 2.45 -40.45 6.25 Q-41.85 -4.0 -38.7 -13.0 L-37.45 -17.4 M-20.75 -0.55 L-20.45 3.3 Q-24.45 -6.2 -23.75 -15.75 L-23.65 -20.3 -20.75 -0.55" fill="#ffffff" fill-rule="evenodd" stroke="none"/>
  </g>
</svg>
