<?xml version="1.0" encoding="UTF-8" standalone="no"?>
<svg xmlns:xlink="http://www.w3.org/1999/xlink" height="90.55px" width="77.05px" xmlns="http://www.w3.org/2000/svg">
  <g transform="matrix(1.0, 0.0, 0.0, 1.0, 19.4, 49.05)">
    <path d="M15.05 -22.8 Q16.25 -16.2 15.75 -9.0 L13.5 20.55 Q8.95 11.7 7.95 0.9 L8.0 10.7 Q7.55 26.55 9.35 35.3 -13.75 18.8 -18.05 -6.0 L-18.25 -7.4 -18.4 -8.3 -18.6 -9.85 -18.55 -9.2 Q-21.2 -27.65 -15.5 -48.3 -16.1 -48.75 -11.5 -49.05 5.55 -48.55 22.0 -42.5 26.7 -41.3 28.7 -39.9 45.75 -27.9 48.15 1.05 50.5 29.95 57.65 41.5 40.85 35.45 39.05 11.7 L38.9 15.4 38.7 16.6 Q22.45 -3.45 15.05 -22.8" fill="#ffffff" fill-rule="evenodd" stroke="none"/>
  </g>
</svg>
