<?xml version="1.0" encoding="UTF-8" standalone="no"?>
<svg xmlns:xlink="http://www.w3.org/1999/xlink" height="77.45px" width="137.2px" xmlns="http://www.w3.org/2000/svg">
  <g transform="matrix(1.0, 0.0, 0.0, 1.0, 68.6, 38.7)">
    <path d="M2.9 -3.1 L3.0 -2.45 3.75 3.7 27.35 4.85 Q30.55 -0.35 30.1 -7.4 L33.8 3.85 Q37.05 -6.9 36.35 -19.3 L36.35 -19.55 Q35.85 -28.45 33.0 -35.4 M36.35 -19.3 L40.1 4.05 Q42.5 -2.35 43.55 -8.95 45.25 -20.1 42.1 -32.2 M64.45 -4.45 L64.65 -3.8 67.4 5.7 Q67.75 -0.1 67.45 -5.1 65.05 -24.85 50.25 -37.7 M43.55 -8.95 Q44.8 -1.55 44.4 3.95 L54.05 5.05 Q57.55 5.7 60.2 6.65 62.7 7.6 64.45 8.8 65.15 7.3 65.45 5.5 66.0 1.6 64.65 -3.8 M65.45 5.5 Q68.8 22.25 63.65 35.4 L61.5 27.1 60.8 35.4 54.2 35.4 Q55.7 20.45 54.05 5.05 M-0.65 -36.8 Q-2.35 -29.15 -3.0 -16.15 L0.1 4.0 Q3.2 0.85 3.0 -2.45 M-36.05 -30.5 Q-42.45 -15.95 -43.35 7.25 L-29.55 5.85 -29.55 0.25 Q-29.5 2.05 -27.6 6.0 L-24.95 -8.8 Q-25.75 -21.0 -23.3 -33.2 M-24.95 -8.8 Q-24.5 -1.75 -22.5 2.95 -17.85 5.45 -8.65 5.4 L-7.8 0.2 Q-7.25 3.0 -3.0 5.5 -3.75 -3.1 -3.0 -16.15 M-65.85 -14.05 Q-69.85 10.5 -64.6 32.45 -56.0 37.4 -46.7 37.75 L-49.35 27.05 Q-47.45 34.05 -41.15 37.55 -43.4 25.3 -43.35 7.25" fill="none" stroke="#000000" stroke-linecap="round" stroke-linejoin="round" stroke-width="2.0"/>
  </g>
</svg>
