<?xml version="1.0" encoding="UTF-8" standalone="no"?>
<svg xmlns:xlink="http://www.w3.org/1999/xlink" height="118.65px" width="133.45px" xmlns="http://www.w3.org/2000/svg">
  <g transform="matrix(1.0, 0.0, 0.0, 1.0, 66.7, 59.3)">
    <path d="M13.1 -2.85 Q6.3 -8.45 -3.9 -15.25 -28.15 -31.5 -33.7 -42.75 -13.05 16.45 25.7 42.05 -12.5 26.05 -38.25 -29.75 -40.4 -37.05 -40.35 -43.65 -40.25 -49.6 -38.35 -55.05 -31.2 -44.15 -19.1 -36.55 L-27.15 -50.95 Q23.55 -21.2 36.1 18.4 32.2 -16.4 7.3 -49.15 L11.25 -44.5 Q41.05 -14.9 44.05 6.85 45.15 -22.55 20.05 -43.5 L-0.8 -59.1 Q6.25 -56.35 12.4 -52.9 37.1 -42.15 45.55 -32.4 36.3 -47.55 15.35 -59.3 37.25 -49.2 48.2 -33.95 71.0 -2.2 65.8 31.05 63.85 4.65 43.7 -24.5 L32.45 -37.5 31.65 -38.0 Q42.6 -25.4 46.25 -10.1 53.0 18.1 44.2 39.8 41.05 47.5 36.4 52.2 40.95 38.15 39.5 19.65 40.55 40.9 30.5 59.35 38.65 37.1 25.0 10.15 23.85 7.9 21.55 5.2 L20.25 3.75 13.95 -2.1 13.1 -2.85 M-66.25 -14.65 Q-66.65 -18.55 -66.7 -22.5 -50.2 -36.35 -46.4 -52.7 -47.45 -28.9 -66.25 -14.65" fill="#f78cde" fill-rule="evenodd" stroke="none"/>
  </g>
</svg>
