<?xml version="1.0" encoding="UTF-8" standalone="no"?>
<svg xmlns:xlink="http://www.w3.org/1999/xlink" height="145.7px" width="131.95px" xmlns="http://www.w3.org/2000/svg">
  <g transform="matrix(1.0, 0.0, 0.0, 1.0, 65.95, 72.85)">
    <path d="M11.35 -68.15 L12.55 -68.85 14.55 -69.65 22.9 -70.5 Q39.4 -70.7 49.45 -61.25 55.9 -55.2 59.7 -45.15 68.25 -13.15 63.0 25.65 58.5 53.6 31.95 71.3 41.45 53.45 44.55 31.9 48.6 3.3 40.85 -31.45 25.9 -48.75 9.5 -53.3 -12.2 -48.15 -32.7 -28.1 -37.3 -6.25 -39.1 17.8 -38.25 51.55 -27.35 71.85 L-29.0 70.85 Q-37.25 65.85 -43.5 59.75 -59.55 44.1 -63.0 21.1 -69.1 -11.2 -56.25 -42.55 -49.2 -59.7 -30.3 -67.7 -13.95 -74.7 2.2 -69.85 4.65 -69.1 5.8 -68.2 M29.8 -50.7 Q37.35 -41.75 40.85 -31.45 M-18.75 -50.15 Q-27.95 -43.15 -32.7 -28.1" fill="none" stroke="#000000" stroke-linecap="round" stroke-linejoin="round" stroke-width="2.0"/>
  </g>
</svg>
