<?xml version="1.0" encoding="UTF-8" standalone="no"?>
<svg xmlns:xlink="http://www.w3.org/1999/xlink" height="158.55px" width="229.45px" xmlns="http://www.w3.org/2000/svg">
  <g transform="matrix(1.0, 0.0, 0.0, 1.0, 100.15, 66.7)">
    <path d="M64.25 -66.7 L68.1 -64.9 Q93.55 -52.85 100.15 -34.75 96.15 -19.45 74.55 -7.45 L69.65 -4.1 69.75 -6.5 69.95 -7.15 Q71.15 -16.2 68.8 -26.75 67.8 -31.05 63.2 -30.7 L47.05 -29.45 46.55 -29.45 46.4 -29.45 Q39.65 -28.95 27.95 -25.35 18.6 -22.6 6.15 -17.75 -14.45 -6.75 -37.05 -2.75 -43.65 -1.55 -51.4 -0.7 L-46.0 -8.15 Q-72.55 -0.25 -100.15 -21.65 -61.5 -13.4 -25.9 -28.05 -48.2 -32.8 -60.7 -51.75 L-61.55 -53.45 Q-50.8 -44.15 -32.45 -42.35 -15.15 -44.7 -5.1 -50.1 17.3 -57.2 30.65 -53.45 31.6 -50.15 40.9 -44.85 43.35 -43.45 46.45 -41.9 L52.25 -41.95 Q71.35 -41.5 81.0 -35.3 82.55 -22.2 75.3 -12.2 86.8 -18.6 88.8 -33.3 85.35 -50.95 64.25 -66.7 M-34.35 14.6 Q-45.65 25.75 -58.6 32.15 L-59.05 30.9 Q-60.55 27.05 -60.9 20.65 -58.8 13.25 -55.0 6.25 -49.75 8.7 -47.25 9.2 -37.65 11.7 -29.85 10.95 L-34.35 14.6 M-57.0 36.85 Q-43.05 35.8 -26.6 30.45 -36.9 44.95 -42.35 59.75 -68.75 73.65 -95.6 59.45 -73.55 57.15 -58.8 49.65 -56.05 47.9 -54.15 45.95 L-57.0 36.85" fill="url(#gradient0)" fill-rule="evenodd" stroke="none"/>
    <path d="M69.15 -26.65 Q71.5 -16.1 70.3 -7.05 L70.1 -6.4 70.0 -4.0 74.9 -7.35 Q85.0 -12.7 95.0 -12.05 96.5 -11.0 97.25 -6.0 99.0 0.35 105.15 8.65 99.75 22.8 105.25 39.85 107.3 48.95 116.75 51.8 125.1 53.05 129.3 47.4 L129.15 48.65 Q127.6 57.35 119.7 62.65 112.2 67.4 102.7 63.2 105.3 68.35 103.65 74.1 98.45 88.85 87.9 91.85 94.4 81.45 94.25 74.25 93.95 70.65 90.15 67.9 87.55 66.15 85.75 64.3 82.95 61.4 82.05 58.3 82.0 56.75 82.1 55.15 L82.35 51.7 Q82.85 45.75 84.55 38.85 87.15 28.3 79.9 22.35 78.15 20.85 75.9 19.7 70.35 17.85 62.75 19.25 62.2 24.85 47.05 44.95 31.95 65.05 31.0 80.05 L30.8 75.7 Q30.4 47.95 45.9 19.25 34.65 30.0 6.5 41.45 L3.35 43.2 Q-5.15 48.2 -12.25 53.45 -30.05 66.35 -39.3 80.95 -34.85 62.7 -27.45 48.9 -37.6 59.3 -45.05 69.65 L-43.35 63.9 -42.0 59.85 Q-36.55 45.05 -26.25 30.55 -42.7 35.9 -56.65 36.95 -62.85 37.45 -68.6 37.05 L-70.0 36.95 Q-64.0 35.0 -58.25 32.25 -45.3 25.85 -34.0 14.7 L-29.5 11.05 Q-37.3 11.8 -46.9 9.3 -49.4 8.8 -54.65 6.35 -59.8 4.05 -65.45 -0.3 L-65.15 -0.3 Q-57.5 -0.15 -51.05 -0.6 -43.3 -1.45 -36.7 -2.65 -14.1 -6.65 6.5 -17.65 18.95 -22.5 28.3 -25.25 40.0 -28.85 46.75 -29.35 L46.9 -29.35 47.4 -29.35 63.55 -30.6 Q68.15 -30.95 69.15 -26.65" fill="url(#gradient1)" fill-rule="evenodd" stroke="none"/>
  </g>
  <defs>
    <linearGradient gradientTransform="matrix(0.0, 0.073, -0.1223, 0.0, 0.0, 68.8)" gradientUnits="userSpaceOnUse" id="gradient0" spreadMethod="pad" x1="-819.2" x2="819.2">
      <stop offset="0.0" stop-color="#fff23c" stop-opacity="0.0"/>
      <stop offset="0.3803921568627451" stop-color="#fff23c" stop-opacity="0.84705883"/>
      <stop offset="0.6039215686274509" stop-color="#fff23c" stop-opacity="0.8"/>
      <stop offset="1.0" stop-color="#fff23c" stop-opacity="0.0"/>
    </linearGradient>
    <linearGradient gradientTransform="matrix(0.0, 0.1217, -0.1216, 0.0, 29.65, 85.0)" gradientUnits="userSpaceOnUse" id="gradient1" spreadMethod="pad" x1="-819.2" x2="819.2">
      <stop offset="0.0" stop-color="#fff23c" stop-opacity="0.0"/>
      <stop offset="0.3803921568627451" stop-color="#fff23c" stop-opacity="0.84705883"/>
      <stop offset="0.6039215686274509" stop-color="#fff23c" stop-opacity="0.8"/>
      <stop offset="1.0" stop-color="#fff23c" stop-opacity="0.0"/>
    </linearGradient>
  </defs>
</svg>
