<?xml version="1.0" encoding="UTF-8" standalone="no"?>
<svg xmlns:xlink="http://www.w3.org/1999/xlink" height="141.7px" width="55.5px" xmlns="http://www.w3.org/2000/svg">
  <g transform="matrix(1.0, 0.0, 0.0, 1.0, 27.75, 70.85)">
    <path d="M13.45 -51.05 L13.35 -50.85 Q12.4 -49.4 5.35 -26.2 -1.75 -3.0 -18.45 6.6 -19.45 35.65 -16.05 70.85 -24.35 53.2 -26.6 35.85 L-26.65 35.2 -27.1 31.1 -27.25 28.9 Q-28.0 16.55 -27.6 3.95 L-27.4 2.75 Q-27.6 -15.1 -22.35 -35.95 -12.25 -64.55 4.5 -70.45 18.25 -72.55 24.65 -63.65 28.85 -53.85 27.4 -47.25 L19.7 -51.0 20.4 -48.1 13.45 -51.05 M2.25 -46.65 Q-7.25 -31.35 -13.55 -16.1 -15.95 -7.3 -17.85 3.2 -8.8 -8.25 -5.5 -19.15 L-2.45 -28.9 2.25 -46.65" fill="#72ffbd" fill-rule="evenodd" stroke="none"/>
  </g>
</svg>
