<?xml version="1.0" encoding="UTF-8" standalone="no"?>
<svg xmlns:xlink="http://www.w3.org/1999/xlink" height="18.05px" width="94.15px" xmlns="http://www.w3.org/2000/svg">
  <g transform="matrix(1.0, 0.0, 0.0, 1.0, 57.4, 40.45)">
    <path d="M9.9 -35.15 Q15.95 -31.1 10.5 -26.85 9.75 -26.25 9.2 -27.4 6.7 -32.6 9.9 -35.15 M31.4 -40.45 Q38.6 -36.65 36.1 -30.9 35.8 -30.15 34.85 -30.8 27.55 -36.05 31.4 -40.45 M-51.9 -37.7 Q-48.0 -33.7 -54.7 -29.7 -58.15 -27.65 -57.2 -31.5 -56.15 -36.0 -51.9 -37.7 M-20.5 -35.35 Q-14.7 -29.5 -20.75 -23.2 -22.7 -21.25 -23.55 -23.95 -25.8 -31.05 -20.5 -35.35" fill="#ffffff" fill-rule="evenodd" stroke="none"/>
  </g>
</svg>
