<?xml version="1.0" encoding="UTF-8" standalone="no"?>
<svg xmlns:xlink="http://www.w3.org/1999/xlink" height="140.45px" width="93.25px" xmlns="http://www.w3.org/2000/svg">
  <g transform="matrix(1.0, 0.0, 0.0, 1.0, 43.6, 93.7)">
    <path d="M44.45 -19.95 Q48.6 -31.65 49.4 -38.4 49.75 -35.35 49.6 -32.5 L49.45 -30.95 49.0 -28.35 48.35 -26.3 Q48.1 -25.6 44.45 -19.95 M17.9 -72.65 Q7.6 -84.0 -4.35 -92.9 L-4.65 -93.2 -4.75 -93.3 -4.7 -93.3 -4.7 -93.35 -4.4 -93.7 -4.3 -93.7 Q19.9 -80.3 26.35 -68.25 32.75 -56.15 35.55 -32.6 26.6 -63.25 17.9 -72.65 M6.4 -53.9 Q27.05 -7.3 39.8 9.65 22.55 -7.35 16.25 -20.85 10.15 -34.4 6.4 -53.9 M25.75 26.2 Q18.25 38.1 18.1 41.75 17.75 44.35 20.35 46.75 17.75 45.65 16.75 44.8 15.45 43.6 15.2 42.05 L15.15 41.5 Q15.15 39.35 17.95 35.2 22.7 27.8 25.75 26.2 M-16.85 -16.7 L-20.0 -19.25 -20.25 -19.8 -20.25 -19.9 -20.25 -20.0 -20.15 -20.1 Q-13.9 -16.25 -10.85 -12.95 L-10.15 -12.05 Q-8.25 -9.1 -8.2 -8.1 L-8.45 -7.75 Q-13.5 -14.15 -16.85 -16.7 M-34.3 -30.95 Q-41.75 -40.7 -42.8 -47.5 -44.55 -58.0 -42.45 -65.4 -43.1 -53.8 -38.35 -42.85 -34.25 -33.1 -26.7 -22.0 -31.15 -26.75 -34.3 -30.95" fill="#ffffff" fill-rule="evenodd" stroke="none"/>
  </g>
</svg>
