<?xml version="1.0" encoding="UTF-8" standalone="no"?>
<svg xmlns:xlink="http://www.w3.org/1999/xlink" height="122.55px" width="125.2px" xmlns="http://www.w3.org/2000/svg">
  <g transform="matrix(1.0, 0.0, 0.0, 1.0, 62.6, 61.25)">
    <path d="M-6.7 -55.1 Q6.2 -63.75 23.8 -57.85 30.75 -55.5 36.95 -48.95 57.35 -26.95 60.85 7.05 62.95 22.3 59.0 33.7 59.25 22.85 55.55 9.0 60.3 30.1 49.95 43.75 50.6 33.55 49.2 24.55 48.25 45.5 31.8 60.3 33.95 54.7 33.5 42.7 31.05 48.0 27.2 53.2 L26.15 54.6 Q26.85 47.3 24.65 35.4 23.15 48.05 22.6 53.6 L22.55 53.8 Q-5.7 42.2 -11.95 18.25 -11.7 27.95 -10.3 32.15 -26.1 19.35 -25.55 -19.25 -30.65 0.45 -45.2 14.3 L-40.35 -17.9 -40.05 -19.65 Q-54.15 18.95 -54.75 33.05 -69.4 -0.35 -52.7 -27.05 M-25.55 -19.25 Q-24.75 -22.45 -24.2 -25.75 M-40.05 -19.65 Q-39.6 -22.3 -39.3 -25.0 M-11.95 18.25 L-12.0 10.15 M36.45 14.35 Q37.35 18.25 37.55 22.1 L37.6 22.9 39.4 42.45 Q45.3 30.7 44.45 10.7 L44.3 8.15 Q42.8 -10.35 31.5 -25.7 M46.95 11.05 Q48.65 16.6 49.2 24.55 M33.5 42.7 Q37.9 33.0 37.6 22.9 M24.65 35.4 Q24.9 33.25 24.3 30.95 M48.85 -10.7 Q53.05 -0.2 55.55 9.0" fill="none" stroke="#000000" stroke-linecap="round" stroke-linejoin="round" stroke-width="2.0"/>
  </g>
</svg>
