<?xml version="1.0" encoding="UTF-8" standalone="no"?>
<svg xmlns:xlink="http://www.w3.org/1999/xlink" height="62.15px" width="98.35px" xmlns="http://www.w3.org/2000/svg">
  <g transform="matrix(1.0, 0.0, 0.0, 1.0, 49.15, 31.1)">
    <path d="M-48.9 -1.1 Q-46.25 -19.85 -40.7 -23.3 -21.2 -27.25 -5.65 -26.85 L14.75 -31.1 Q24.75 -27.1 37.4 -13.05 50.0 0.95 49.15 13.45 44.75 4.8 37.7 1.65 L25.1 -3.9 28.35 5.3 Q32.55 18.55 45.3 26.5 24.3 25.45 14.3 10.9 20.2 22.3 32.35 28.2 -3.8 26.85 -15.15 0.3 -9.1 23.9 4.8 30.95 -39.3 32.85 -42.1 1.55 -43.2 9.65 -46.0 12.35 -50.05 8.75 -48.9 -1.1" fill="url(#gradient0)" fill-rule="evenodd" stroke="none"/>
  </g>
  <defs>
    <linearGradient gradientTransform="matrix(0.0, 0.0984, -0.06, 0.0, 0.05, 76.6)" gradientUnits="userSpaceOnUse" id="gradient0" spreadMethod="pad" x1="-819.2" x2="819.2">
      <stop offset="0.0" stop-color="#fff23c" stop-opacity="0.0"/>
      <stop offset="0.3803921568627451" stop-color="#fff23c" stop-opacity="0.84705883"/>
      <stop offset="0.6039215686274509" stop-color="#fff23c" stop-opacity="0.8"/>
      <stop offset="1.0" stop-color="#fff23c" stop-opacity="0.0"/>
    </linearGradient>
  </defs>
</svg>
