<?xml version="1.0" encoding="UTF-8" standalone="no"?>
<svg xmlns:xlink="http://www.w3.org/1999/xlink" height="79.35px" width="88.5px" xmlns="http://www.w3.org/2000/svg">
  <g transform="matrix(1.0, 0.0, 0.0, 1.0, 44.25, 39.7)">
    <path d="M-29.8 22.6 L-29.05 24.7 -29.15 24.6 -29.8 22.6" fill="#ffffcc" fill-rule="evenodd" stroke="none"/>
    <path d="M5.1 -4.3 Q12.45 20.1 9.55 37.25 L12.65 37.05 Q16.35 17.0 13.45 -3.25 20.7 15.25 20.35 36.9 41.85 34.7 40.75 38.65 48.4 14.8 32.5 -8.05 M-31.95 -10.95 Q-32.15 -6.3 -31.15 -2.25 -30.0 2.85 -27.0 7.05 -24.8 10.1 -21.65 12.7 L-20.55 13.55 Q-13.7 18.65 -3.0 21.4 3.25 22.95 8.7 23.15 3.8 21.25 -1.95 17.5 -20.95 4.95 -26.65 -22.15 L-27.2 -24.9 M1.95 -13.25 Q-1.6 -25.15 -11.75 -36.5 -14.7 -39.75 -19.25 -38.2 -25.9 -36.05 -30.1 -24.35 -31.6 -19.3 -32.55 -12.85 -35.25 6.0 -30.05 21.9 L-29.8 22.6 -29.05 24.7 -29.15 24.6 Q-25.05 34.7 -21.6 36.9 -23.7 31.2 -25.8 19.9 -26.6 14.15 -27.0 7.05 M-29.8 22.6 L-29.15 24.6 Q-44.7 6.2 -43.1 -14.85 M-25.8 19.9 Q-22.65 31.05 -18.35 37.3 -9.35 38.2 9.55 37.25" fill="none" stroke="#000000" stroke-linecap="round" stroke-linejoin="round" stroke-width="2.0"/>
  </g>
</svg>
