<?xml version="1.0" encoding="UTF-8" standalone="no"?>
<svg xmlns:xlink="http://www.w3.org/1999/xlink" height="17.9px" width="96.45px" xmlns="http://www.w3.org/2000/svg">
  <g transform="matrix(1.0, 0.0, 0.0, 1.0, 39.95, 2.25)">
    <path d="M25.35 2.65 L40.55 0.25 53.1 -2.25 Q55.7 4.0 56.5 12.8 50.55 14.2 43.8 14.95 41.65 9.2 40.85 3.1 41.3 9.2 40.05 15.3 L34.95 15.6 34.8 15.15 34.95 15.6 30.7 15.65 25.35 2.65 24.6 15.6 15.4 15.25 7.4 4.75 25.35 2.65 M-39.95 6.7 Q-30.2 6.85 -20.4 6.55 L-20.2 10.7 -39.95 6.7 M3.9 5.05 L6.75 14.6 -3.9 13.4 -8.8 12.65 -12.3 12.1 -16.2 6.4 -10.7 6.15 3.9 5.05" fill="#ffffff" fill-rule="evenodd" stroke="none"/>
  </g>
</svg>
