<?xml version="1.0" encoding="UTF-8" standalone="no"?>
<svg xmlns:xlink="http://www.w3.org/1999/xlink" height="108.1px" width="69.25px" xmlns="http://www.w3.org/2000/svg">
  <g transform="matrix(1.0, 0.0, 0.0, 1.0, 25.3, 59.15)">
    <path d="M24.9 -44.7 L26.0 -43.8 25.85 -43.8 Q35.95 -34.25 41.1 -17.4 46.2 -0.55 42.2 22.8 40.7 31.5 37.8 34.6 39.15 24.4 37.9 9.15 L37.8 8.35 37.8 8.55 Q36.9 33.05 16.75 48.95 26.1 24.4 26.25 11.25 23.65 31.2 10.9 45.85 14.3 36.35 11.7 16.6 11.75 32.2 7.5 38.9 L7.5 38.35 Q4.65 17.0 -2.55 -6.9 -10.0 -45.1 -25.3 -58.95 L-23.8 -59.05 Q5.15 -60.45 24.9 -44.7" fill="#ffffff" fill-rule="evenodd" stroke="none"/>
  </g>
</svg>
