<?xml version="1.0" encoding="UTF-8" standalone="no"?>
<svg xmlns:xlink="http://www.w3.org/1999/xlink" height="104.5px" width="125.4px" xmlns="http://www.w3.org/2000/svg">
  <g transform="matrix(1.0, 0.0, 0.0, 1.0, 62.7, 49.1)">
    <path d="M20.85 -47.25 Q22.75 -36.95 19.95 -22.25 L16.95 -6.95 Q15.4 18.4 13.0 28.2 28.25 2.05 27.95 -36.5 L27.65 -46.1 M27.95 -36.5 L28.75 -6.4 Q34.7 -22.7 34.7 -41.55 L34.65 -44.7 M0.6 -37.1 L0.3 -33.1 Q-1.95 -0.8 0.6 33.5 1.4 43.85 2.6 54.4 3.85 44.9 7.8 29.1 L8.05 28.2 16.95 -6.95 M34.7 -41.55 Q44.45 -21.5 46.2 -7.55 47.6 -12.45 48.0 -17.75 L47.85 -28.4 Q47.0 -37.05 43.95 -46.7 M48.0 -17.75 Q48.35 -22.9 47.85 -28.4 M48.0 -17.75 Q54.2 13.55 41.95 44.6 60.4 25.65 61.7 -1.05 61.8 -24.65 54.9 -39.5 M-50.0 -42.35 Q-59.3 -29.55 -61.6 -10.65 -63.05 20.75 -43.05 48.5 -48.1 29.75 -45.8 -1.85 L-45.9 -3.55 Q-46.85 -23.55 -34.3 -42.75 M-45.8 -1.85 Q-45.3 4.8 -43.3 11.55 -40.6 -4.15 -24.8 -34.9 L-23.95 -37.45 Q-22.25 -41.9 -19.65 -46.1 M-24.8 -34.9 Q-28.35 -23.6 -26.15 -10.65 -20.7 -25.65 -8.85 -45.35 L-8.95 -48.1 M0.3 -33.1 L-4.2 -7.0 Q-8.25 -27.25 -8.85 -45.35" fill="none" stroke="#000000" stroke-linecap="round" stroke-linejoin="round" stroke-width="2.0"/>
  </g>
</svg>
