<?xml version="1.0" encoding="UTF-8" standalone="no"?>
<svg xmlns:xlink="http://www.w3.org/1999/xlink" height="99.15px" width="153.8px" xmlns="http://www.w3.org/2000/svg">
  <g transform="matrix(1.0, 0.0, 0.0, 1.0, 76.9, 49.55)">
    <path d="M11.3 -15.35 Q10.8 -9.8 9.75 -4.55 L7.5 16.1 Q22.2 -5.4 23.5 -33.05 L23.6 -40.65 M23.5 -33.05 Q35.45 -6.4 39.65 14.75 43.3 -2.3 39.0 -22.05 37.65 -28.15 35.55 -34.5 M39.0 -22.05 L58.45 41.75 Q61.45 19.2 56.85 -3.8 54.9 -13.45 51.6 -23.2 M-11.95 -41.0 L-12.7 -37.25 Q-11.5 -20.3 -8.75 -5.2 -6.6 6.75 -5.6 21.7 L-5.15 29.8 Q-1.5 24.75 1.35 19.3 7.2 8.2 9.75 -4.55 M39.7 -48.55 Q70.7 -19.8 75.9 20.2 70.2 10.4 56.85 -3.8 M-12.7 -37.25 Q-42.35 7.05 -57.45 48.6 L-57.55 47.7 Q-60.0 23.75 -56.5 0.7 -65.7 12.6 -75.9 26.7 -67.9 -14.7 -38.95 -46.8 M-56.5 0.7 Q-53.0 -11.3 -48.1 -18.0" fill="none" stroke="#000000" stroke-linecap="round" stroke-linejoin="round" stroke-width="2.0"/>
  </g>
</svg>
