<?xml version="1.0" encoding="UTF-8" standalone="no"?>
<svg xmlns:xlink="http://www.w3.org/1999/xlink" height="65.4px" width="122.45px" xmlns="http://www.w3.org/2000/svg">
  <g transform="matrix(1.0, 0.0, 0.0, 1.0, 70.0, 16.35)">
    <path d="M42.75 25.45 Q40.1 17.15 40.4 16.3 L48.95 34.2 52.45 42.05 Q45.4 33.85 42.75 25.45 M18.7 12.95 Q12.35 7.55 9.35 2.75 6.45 -2.05 5.65 -11.4 7.9 -3.65 18.7 12.95 M33.4 10.1 Q26.85 6.1 23.85 1.95 20.9 -2.35 20.1 -11.7 22.35 -4.35 33.4 10.1 M-37.05 18.45 Q-25.3 -5.65 -22.25 -16.35 -24.2 -3.75 -27.45 3.2 -30.8 10.25 -37.05 18.45 M-51.85 5.7 Q-46.45 -4.4 -39.9 -9.6 -47.9 0.05 -51.05 12.8 -54.3 25.55 -54.6 43.45 -55.25 37.25 -55.4 32.05 -56.1 13.5 -51.85 5.7 M-69.2 12.55 Q-66.2 1.6 -61.0 -5.0 -66.6 6.2 -66.95 19.1 -67.3 32.0 -63.7 49.05 -72.25 23.5 -69.2 12.55 M-6.3 2.2 Q-10.1 -1.95 -12.7 -10.95 -9.0 -3.8 4.9 10.35 -2.4 6.35 -6.3 2.2" fill="#ffffff" fill-rule="evenodd" stroke="none"/>
  </g>
</svg>
