<?xml version="1.0" encoding="UTF-8" standalone="no"?>
<svg xmlns:xlink="http://www.w3.org/1999/xlink" height="88.75px" width="90.6px" xmlns="http://www.w3.org/2000/svg">
  <g transform="matrix(1.0, 0.0, 0.0, 1.0, 45.3, 44.35)">
    <path d="M-35.55 -22.25 Q-36.7 -14.1 -36.7 -6.0 -36.7 0.25 -36.05 6.45 L-35.35 11.8 -45.3 12.65 -45.0 10.6 -44.7 7.85 -44.3 5.55 -43.65 2.2 -42.05 -4.3 Q-39.6 -12.9 -35.55 -22.25 M8.5 -44.0 L9.9 -43.8 Q13.45 -43.0 17.15 -41.35 23.0 -43.9 28.1 -42.75 38.65 -37.1 43.5 -15.5 L44.55 -7.35 Q45.95 6.45 44.8 18.3 L44.6 20.2 Q43.15 32.1 39.05 41.95 L37.85 44.4 Q38.45 40.85 38.55 36.3 38.85 27.15 37.0 13.85 L36.3 15.9 34.2 20.45 32.65 23.2 Q35.9 16.8 31.25 0.25 L31.15 -0.45 31.15 0.25 29.7 -4.4 27.4 -10.7 26.85 -4.0 Q23.65 18.55 5.05 26.15 L1.4 27.45 Q15.8 18.3 19.35 -3.3 20.05 -7.85 20.25 -12.75 L20.4 -19.35 Q19.85 -15.55 17.75 -12.0 14.9 -7.15 9.1 -2.8 3.75 1.05 -4.0 4.5 -14.7 9.0 -30.35 11.2 L-29.7 5.0 Q-28.3 -5.8 -25.1 -16.45 L-22.95 -23.1 -20.85 -28.65 Q-7.95 -46.75 8.5 -44.0" fill="#d260be" fill-rule="evenodd" stroke="none"/>
  </g>
</svg>
