<?xml version="1.0" encoding="UTF-8" standalone="no"?>
<svg xmlns:xlink="http://www.w3.org/1999/xlink" height="115.9px" width="151.65px" xmlns="http://www.w3.org/2000/svg">
  <g transform="matrix(1.0, 0.0, 0.0, 1.0, 75.8, 57.95)">
    <path d="M57.95 -54.6 Q51.45 -33.2 39.2 -26.0 49.3 -27.2 57.9 -33.7 L54.05 -24.35 Q50.85 -16.55 45.9 -15.95 L43.8 -15.8 Q59.3 -6.0 71.7 -16.2 66.25 6.55 47.85 3.5 L47.85 3.65 Q58.45 15.35 75.85 15.65 65.1 29.45 50.9 24.9 L52.35 26.7 54.35 29.55 Q62.6 42.3 70.55 43.45 55.95 51.65 41.35 46.4 37.8 45.15 36.5 44.0 43.55 52.6 54.45 57.95 42.65 58.1 33.65 56.6 24.65 55.05 17.15 51.1 9.65 47.1 0.25 36.0 7.45 46.0 3.35 56.85 2.35 47.4 -18.8 36.7 -37.15 27.6 -45.6 15.55 -56.8 31.35 -75.8 33.75 -69.55 14.65 -56.95 -5.2 -38.5 -20.15 -8.0 -28.4 L-5.8 -29.4 Q1.4 -32.1 21.85 -34.9 46.05 -38.25 58.9 -57.95 L57.95 -54.6" fill="#fff9a6" fill-rule="evenodd" stroke="none"/>
  </g>
</svg>
