<?xml version="1.0" encoding="UTF-8" standalone="no"?>
<svg xmlns:xlink="http://www.w3.org/1999/xlink" height="101.9px" width="174.95px" xmlns="http://www.w3.org/2000/svg">
  <g transform="matrix(1.0, 0.0, 0.0, 1.0, 87.45, 50.95)">
    <path d="M-4.7 -49.95 Q4.65 -48.5 14.85 -39.65 25.0 -30.8 39.2 -27.3 -3.65 -20.75 -12.2 -44.05 M24.05 -7.95 Q27.8 -5.5 29.95 -1.55 49.85 22.4 52.45 40.55 54.5 32.45 53.3 21.45 52.25 11.7 48.75 1.05 45.25 -9.65 37.2 -21.5 M46.85 -47.15 Q62.6 -37.15 70.05 -14.2 77.5 8.7 86.5 16.45 66.2 16.15 60.25 2.6 60.4 31.45 70.95 48.7 L71.7 49.95 Q57.3 39.8 53.3 21.45 M-7.45 -20.45 Q4.45 -15.75 11.25 -8.15 26.25 5.6 27.7 15.5 35.45 8.55 29.95 -1.55 M-38.65 -46.35 L-38.85 -43.15 Q-39.05 -28.45 -33.05 -16.15 -27.6 -4.9 -16.6 4.4 -21.15 -7.4 -20.85 -15.4 -20.85 -6.65 -2.55 0.2 16.4 7.35 24.65 14.9 22.5 6.0 11.25 -8.15 M60.25 2.6 Q56.35 -31.15 30.1 -48.45 M-33.05 -16.15 Q-45.75 11.3 -45.6 39.55 -56.45 19.75 -56.15 -4.8 -66.35 12.15 -78.0 22.6 -81.35 25.55 -85.15 28.15 L-86.45 29.05 Q-77.25 15.3 -72.45 -9.45 L-71.65 -14.0 Q-68.85 -30.65 -62.65 -38.4 M-49.45 -35.5 Q-53.45 -28.35 -55.1 -15.9 -56.05 -10.25 -56.15 -4.8" fill="none" stroke="#000000" stroke-linecap="round" stroke-linejoin="round" stroke-opacity="0.9098039" stroke-width="2.0"/>
  </g>
</svg>
