<?xml version="1.0" encoding="UTF-8" standalone="no"?>
<svg xmlns:xlink="http://www.w3.org/1999/xlink" height="58.1px" width="136.0px" xmlns="http://www.w3.org/2000/svg">
  <g transform="matrix(1.0, 0.0, 0.0, 1.0, 68.0, 29.05)">
    <path d="M14.95 -28.4 Q28.0 -26.4 37.6 -22.65 54.9 -15.8 62.5 -0.8 69.15 12.05 67.75 24.2 67.0 22.6 61.7 20.9 58.35 19.75 52.75 18.5 52.5 12.9 50.05 6.35 50.7 12.3 50.5 18.0 L37.55 16.35 33.8 -0.2 33.85 15.65 18.0 14.85 10.2 14.85 9.45 -0.7 7.1 14.9 -8.5 15.85 Q-9.7 11.35 -9.6 6.9 L-11.6 16.05 -26.95 18.25 Q-28.05 12.9 -28.25 8.45 L-29.65 18.75 -37.65 20.45 -43.5 21.9 -45.6 16.0 -45.45 22.35 -53.05 24.05 Q-58.6 25.3 -63.0 26.5 L-67.8 29.05 Q-69.2 14.65 -59.85 -1.05 -50.45 -16.75 -27.85 -24.65 -6.0 -30.7 14.95 -28.4" fill="url(#gradient0)" fill-rule="evenodd" stroke="none"/>
  </g>
  <defs>
    <linearGradient gradientTransform="matrix(0.0, 0.0392, -0.083, 0.0, 0.0, 43.85)" gradientUnits="userSpaceOnUse" id="gradient0" spreadMethod="pad" x1="-819.2" x2="819.2">
      <stop offset="0.0" stop-color="#fff23c" stop-opacity="0.0"/>
      <stop offset="0.3803921568627451" stop-color="#fff23c" stop-opacity="0.84705883"/>
      <stop offset="0.6039215686274509" stop-color="#fff23c" stop-opacity="0.8"/>
      <stop offset="1.0" stop-color="#fff23c" stop-opacity="0.0"/>
    </linearGradient>
  </defs>
</svg>
