<?xml version="1.0" encoding="UTF-8" standalone="no"?>
<svg xmlns:xlink="http://www.w3.org/1999/xlink" height="105.2px" width="74.2px" xmlns="http://www.w3.org/2000/svg">
  <g transform="matrix(1.0, 0.0, 0.0, 1.0, 7.95, 46.55)">
    <path d="M34.8 -45.8 L34.8 -45.85 46.65 -43.8 Q59.65 -33.75 63.8 -13.95 70.65 26.15 58.2 49.85 L59.35 26.85 Q57.85 47.8 44.4 58.65 48.35 46.1 49.75 16.0 46.2 23.0 39.05 28.05 44.7 16.9 44.55 3.75 33.15 -4.75 31.25 -12.8 27.35 -1.85 17.4 13.5 19.95 3.15 22.55 -16.15 20.55 -6.4 14.9 4.55 14.6 20.25 17.65 27.95 10.1 22.3 5.3 14.05 -0.1 17.35 -7.95 18.45 22.3 3.25 22.55 -46.55 L34.8 -45.8" fill="#ffffff" fill-rule="evenodd" stroke="none"/>
  </g>
</svg>
