<?xml version="1.0" encoding="UTF-8" standalone="no"?>
<svg xmlns:xlink="http://www.w3.org/1999/xlink" height="128.9px" width="134.05px" xmlns="http://www.w3.org/2000/svg">
  <g transform="matrix(1.0, 0.0, 0.0, 1.0, 67.0, 64.45)">
    <path d="M60.9 51.25 L60.9 50.95 Q61.8 32.75 56.85 11.25 60.05 35.5 57.45 49.75 55.65 52.7 45.85 53.1 47.95 41.8 47.55 20.15 46.2 35.85 41.7 54.9 44.2 6.75 30.6 -26.25 L23.7 -25.5 23.7 -28.85 13.85 -26.15 Q10.1 -28.15 1.3 -30.2 3.8 -28.9 5.45 -24.65 1.1 -28.2 -5.7 -28.7 -2.5 -26.05 -1.65 -23.4 -7.45 -25.35 -12.75 -25.1 -27.8 3.1 -29.8 41.85 -37.6 21.2 -31.2 -6.35 -40.3 28.2 -37.15 63.45 -43.4 45.4 -43.4 25.2 L-45.4 57.75 Q-57.65 52.1 -60.0 46.3 -62.15 24.7 -55.1 1.55 -61.9 19.3 -65.5 38.1 -68.2 7.65 -56.7 -22.95 -45.2 -53.55 -26.6 -62.05 -20.85 -63.9 -12.3 -59.8 -8.4 -60.5 -4.65 -59.0 L-4.3 -58.85 -4.2 -58.8 Q-2.0 -61.6 3.3 -62.8 9.8 -65.05 19.0 -59.3 L21.5 -58.85 Q41.1 -57.0 51.85 -41.65 55.75 -35.4 59.3 -26.6 71.9 15.65 60.9 50.95 M8.0 -61.4 Q4.1 -60.95 1.6 -55.55 L2.65 -54.85 7.45 -51.15 Q12.65 -57.75 19.0 -59.3 M-12.75 -25.1 Q-8.35 -30.9 -2.95 -35.6 2.2 -35.7 13.85 -26.15 22.35 -32.65 29.0 -29.95 L30.6 -26.25 M15.15 -39.65 L12.8 -43.35 Q9.8 -48.05 7.45 -51.15 M14.85 -31.45 Q22.1 -38.7 31.75 -39.95 49.85 -22.75 47.85 15.45 L47.55 20.15 M34.75 -45.0 Q45.65 -37.8 51.65 -12.7 M12.8 -43.35 Q19.95 -54.65 28.95 -55.25 M56.85 11.25 Q55.15 3.85 52.75 -3.95 M-31.2 -6.35 L-30.25 -10.05 -28.1 -17.35 M-23.45 -43.75 Q-36.15 -31.9 -44.55 -2.0 M-12.3 -59.8 Q-23.85 -57.9 -37.3 -37.4 M-43.4 25.2 L-43.4 24.7 Q-43.4 11.8 -40.9 -2.0 M-55.1 1.55 L-52.55 -4.9 M2.65 -54.85 Q-8.85 -60.15 -23.1 -27.8 M1.6 -55.55 Q-1.35 -57.55 -4.2 -58.8" fill="none" stroke="#000000" stroke-linecap="round" stroke-linejoin="round" stroke-width="2.0"/>
  </g>
</svg>
