<?xml version="1.0" encoding="UTF-8" standalone="no"?>
<svg xmlns:xlink="http://www.w3.org/1999/xlink" height="132.2px" width="123.6px" xmlns="http://www.w3.org/2000/svg">
  <g transform="matrix(1.0, 0.0, 0.0, 1.0, 61.8, 66.1)">
    <path d="M-38.15 -11.7 Q-53.65 4.0 -61.8 21.75 -57.45 -11.7 -33.7 -38.2 -14.0 -57.45 -2.65 -60.6 4.1 -61.9 7.6 -56.75 15.55 -65.0 28.25 -66.1 38.6 -64.2 42.55 -55.6 44.95 -58.3 50.75 -60.95 56.5 -57.25 58.75 -49.2 69.5 -11.25 42.05 10.95 45.4 5.45 48.1 -8.1 41.7 14.45 26.45 27.35 33.5 15.05 38.3 -11.8 24.65 26.05 -18.6 35.1 -13.1 27.4 -5.7 12.4 -13.2 26.0 -24.5 33.65 L-14.65 14.35 Q-32.2 34.65 -39.45 54.9 -39.7 35.65 -33.3 16.95 -47.85 44.45 -53.6 65.95 L-53.6 66.1 Q-57.25 20.65 -38.15 -11.7" fill="url(#gradient0)" fill-rule="evenodd" stroke="none"/>
  </g>
  <defs>
    <linearGradient gradientTransform="matrix(0.0, 0.0971, -0.0754, 0.0, 0.0, 59.35)" gradientUnits="userSpaceOnUse" id="gradient0" spreadMethod="pad" x1="-819.2" x2="819.2">
      <stop offset="0.0" stop-color="#fff23c" stop-opacity="0.0"/>
      <stop offset="0.3803921568627451" stop-color="#fff23c" stop-opacity="0.84705883"/>
      <stop offset="0.6039215686274509" stop-color="#fff23c" stop-opacity="0.8"/>
      <stop offset="1.0" stop-color="#fff23c" stop-opacity="0.0"/>
    </linearGradient>
  </defs>
</svg>
