<?xml version="1.0" encoding="UTF-8" standalone="no"?>
<svg xmlns:xlink="http://www.w3.org/1999/xlink" height="89.25px" width="62.65px" xmlns="http://www.w3.org/2000/svg">
  <g transform="matrix(1.0, 0.0, 0.0, 1.0, 7.35, 42.5)">
    <path d="M3.9 -5.7 Q5.6 -24.1 -7.35 -33.25 2.45 -40.65 10.95 -42.45 23.55 -43.1 36.85 -31.7 56.5 -11.7 55.25 13.6 53.95 32.4 43.85 44.45 L48.15 25.0 Q45.3 36.1 37.55 46.75 40.95 28.55 40.45 10.7 40.05 21.25 35.45 31.2 36.45 23.65 33.45 8.45 31.25 -2.1 27.75 -8.6 L22.8 -7.1 23.8 -10.25 13.45 -7.1 14.45 -11.25 3.9 -5.7" fill="#ffffff" fill-rule="evenodd" stroke="none"/>
  </g>
</svg>
