<?xml version="1.0" encoding="UTF-8" standalone="no"?>
<svg xmlns:xlink="http://www.w3.org/1999/xlink" height="91.8px" width="133.2px" xmlns="http://www.w3.org/2000/svg">
  <g transform="matrix(1.0, 0.0, 0.0, 1.0, 66.6, 45.9)">
    <path d="M-60.7 -12.7 Q-48.15 -36.75 -30.45 -43.1 L-19.8 -44.85 Q16.6 -49.55 43.3 -33.25 52.2 -25.65 58.0 -15.65 73.25 10.85 61.4 30.75 63.25 21.3 55.8 10.1 57.15 15.25 56.95 20.3 L60.25 22.65 57.3 22.0 Q57.25 31.0 53.7 39.5 52.75 28.1 45.25 19.2 6.35 8.45 -15.95 -17.2 -20.65 -22.6 -24.6 -28.65 L-22.15 -21.15 Q-62.15 12.5 -57.3 45.9 -74.05 18.0 -60.7 -12.7" fill="#70554b" fill-rule="evenodd" stroke="none"/>
  </g>
</svg>
