<?xml version="1.0" encoding="UTF-8" standalone="no"?>
<svg xmlns:xlink="http://www.w3.org/1999/xlink" height="54.85px" width="77.55px" xmlns="http://www.w3.org/2000/svg">
  <g transform="matrix(1.0, 0.0, 0.0, 1.0, 38.75, 27.45)">
    <path d="M-37.75 -10.65 Q-35.1 -18.15 -24.35 -24.3 -21.8 -25.6 -22.4 -20.65 -38.05 6.1 -16.3 25.55 L-14.1 27.4 -15.85 26.35 Q-26.2 19.95 -31.85 13.2 -34.2 10.45 -35.7 7.65 -40.55 -1.2 -37.75 -10.65 M-7.5 -26.85 Q20.05 -31.05 33.35 -7.0 36.45 -1.35 38.8 5.85 17.0 -16.0 -6.55 -23.7 -10.0 -26.1 -7.5 -26.85 M-11.7 -18.0 Q-6.6 -6.25 1.95 2.4 7.65 8.1 14.9 12.45 21.7 16.5 29.9 19.3 L16.2 17.3 Q9.9 16.1 4.75 14.45 L3.75 14.1 Q-4.75 11.25 -9.95 7.15 -21.7 -2.1 -16.4 -17.7 -14.85 -22.1 -11.7 -18.0" fill="#72ffbd" fill-rule="evenodd" stroke="none"/>
  </g>
</svg>
