<?xml version="1.0" encoding="UTF-8" standalone="no"?>
<svg xmlns:xlink="http://www.w3.org/1999/xlink" height="70.05px" width="135.45px" xmlns="http://www.w3.org/2000/svg">
  <g transform="matrix(1.0, 0.0, 0.0, 1.0, 79.9, 37.55)">
    <path d="M49.6 10.2 Q50.75 5.95 50.2 1.6 51.1 4.4 50.9 8.35 50.75 12.3 45.75 20.05 48.4 14.5 49.6 10.2 M50.65 -23.55 Q48.25 -27.5 44.65 -30.25 47.3 -28.9 50.15 -25.85 53.0 -22.9 55.55 -13.55 53.05 -19.55 50.65 -23.55 M31.75 1.85 Q33.25 -7.3 31.05 -16.3 33.6 -10.65 34.1 -2.35 34.65 5.95 25.95 23.2 30.2 11.05 31.75 1.85 M21.65 2.95 Q23.15 -6.2 20.95 -15.2 23.5 -9.55 24.0 -1.25 24.55 7.05 15.85 24.3 20.1 12.15 21.65 2.95 M-0.3 32.5 Q1.85 -11.85 -1.35 -37.55 4.85 -16.95 5.4 0.6 L5.3 8.45 Q5.1 11.2 -0.3 32.5 M15.15 4.4 Q14.0 11.05 10.45 19.45 14.65 -3.5 14.35 -13.1 16.25 -2.25 15.15 4.4 M43.55 4.45 Q46.05 -4.5 44.85 -13.65 46.75 -7.75 46.35 0.55 46.0 8.85 35.5 25.05 41.05 13.4 43.55 4.45 M-56.25 2.95 Q-54.7 12.15 -50.45 24.3 -59.15 7.05 -58.6 -1.25 -58.1 -9.55 -55.55 -15.2 -57.75 -6.2 -56.25 2.95 M-42.7 2.95 Q-40.45 12.3 -35.25 24.75 -45.25 7.05 -45.3 -1.4 L-45.3 -4.3 -45.1 -7.95 Q-44.65 -12.3 -43.4 -15.7 -44.9 -6.5 -42.7 2.95 M-30.5 1.6 Q-28.3 11.5 -23.2 24.65 -33.1 6.0 -33.15 -2.9 L-33.1 -6.0 Q-32.9 -13.0 -31.15 -18.1 -32.65 -8.3 -30.5 1.6 M-13.1 -28.55 Q-9.45 -10.0 -4.8 10.25 L-1.55 27.15 Q-4.3 21.75 -6.3 16.6 -11.65 3.2 -12.6 -9.45 -14.05 -27.0 -13.1 -28.55 M-77.05 9.95 Q-74.55 18.9 -69.0 30.55 -79.5 14.35 -79.85 6.05 -80.25 -2.25 -78.35 -8.15 -79.55 1.0 -77.05 9.95 M-67.9 5.65 Q-66.35 14.85 -62.1 27.0 -70.8 9.75 -70.25 1.45 -69.75 -6.85 -67.2 -12.5 -69.4 -3.5 -67.9 5.65" fill="#ffffff" fill-rule="evenodd" stroke="none"/>
  </g>
</svg>
