<?xml version="1.0" encoding="UTF-8" standalone="no"?>
<svg xmlns:xlink="http://www.w3.org/1999/xlink" height="72.45px" width="122.75px" xmlns="http://www.w3.org/2000/svg">
  <g transform="matrix(1.0, 0.0, 0.0, 1.0, 61.35, 36.2)">
    <path d="M-54.85 2.3 Q-56.8 8.45 -56.6 17.05 -61.7 11.35 -61.3 -1.65 -61.15 -7.15 -58.2 -12.15 -58.7 -21.3 -53.4 -26.65 -38.95 -33.3 -14.6 -35.75 4.5 -37.9 23.6 -29.35 29.8 -24.7 31.85 -20.05 47.65 -12.1 49.15 6.6 50.9 29.0 61.4 36.2 54.45 36.55 46.55 34.25 L36.0 33.75 Q31.05 32.5 27.4 30.15 23.2 30.6 12.2 24.9 1.2 19.15 -2.2 5.85 1.65 22.15 8.15 32.0 -9.1 22.05 -13.5 -0.3 L-17.65 -2.95 -22.0 -0.9 -25.95 -2.95 -31.1 -1.85 -39.05 -1.85 -44.3 -2.95 -47.15 0.5 -50.7 -2.1 -54.85 2.3" fill="#8f85a6" fill-rule="evenodd" stroke="none"/>
  </g>
</svg>
