<?xml version="1.0" encoding="UTF-8" standalone="no"?>
<svg xmlns:xlink="http://www.w3.org/1999/xlink" height="34.0px" width="74.15px" xmlns="http://www.w3.org/2000/svg">
  <g transform="matrix(1.0, 0.0, 0.0, 1.0, 37.05, 17.0)">
    <path d="M-37.05 -16.3 Q-27.2 -6.65 -25.6 -9.8 -21.9 4.05 -16.15 12.75 -32.1 3.55 -37.05 -16.3 M9.3 -1.15 Q7.2 -6.4 5.1 -13.25 27.35 12.8 27.15 1.15 30.25 12.25 37.1 16.95 30.15 17.3 22.25 15.0 L11.7 14.5 Q6.75 13.25 3.1 10.9 -1.1 11.35 -12.1 5.65 -23.1 -0.1 -26.5 -13.4 L-26.65 -14.2 -26.95 -15.6 -27.1 -16.45 -27.2 -17.0 Q-12.85 -1.3 -9.05 -3.45 -11.55 -7.6 -13.7 -12.35 8.15 4.95 9.3 -1.15" fill="#7ef7df" fill-rule="evenodd" stroke="none"/>
  </g>
</svg>
