<?xml version="1.0" encoding="UTF-8" standalone="no"?>
<svg xmlns:xlink="http://www.w3.org/1999/xlink" height="58.1px" width="116.75px" xmlns="http://www.w3.org/2000/svg">
  <g transform="matrix(1.0, 0.0, 0.0, 1.0, 1.0, 1.0)">
    <path d="M114.75 16.45 Q113.55 42.4 99.05 49.25 98.5 34.85 95.25 22.6 92.35 47.55 67.7 49.6 L69.85 47.05 Q62.7 50.35 54.35 51.1 62.0 39.45 66.1 18.1 60.9 32.55 50.9 45.8 37.5 50.85 26.5 49.8 35.8 36.8 42.95 22.05 31.95 40.1 16.15 50.8 6.95 56.65 0.0 56.05 18.3 33.35 30.25 7.15 M66.1 18.1 Q67.65 13.7 68.8 9.25 M42.95 22.05 L43.1 21.7 Q46.1 15.45 48.75 8.85 M69.85 47.05 Q89.85 22.05 78.55 0.0" fill="none" stroke="#000000" stroke-linecap="round" stroke-linejoin="round" stroke-width="2.0"/>
  </g>
</svg>
