<?xml version="1.0" encoding="UTF-8" standalone="no"?>
<svg xmlns:xlink="http://www.w3.org/1999/xlink" height="16.2px" width="103.75px" xmlns="http://www.w3.org/2000/svg">
  <g transform="matrix(1.0, 0.0, 0.0, 1.0, 77.4, 25.7)">
    <path d="M21.0 -25.7 Q28.2 -21.9 25.7 -16.15 25.4 -15.4 24.45 -16.05 17.15 -21.3 21.0 -25.7 M-71.9 -22.15 Q-68.0 -18.15 -74.7 -14.15 -78.15 -12.1 -77.2 -15.95 -76.15 -20.45 -71.9 -22.15 M-7.75 -22.9 Q0.55 -17.3 -6.95 -11.45 -7.95 -10.65 -8.75 -12.2 -12.15 -19.35 -7.75 -22.9 M-40.15 -22.45 Q-34.35 -16.6 -40.4 -10.3 -42.35 -8.35 -43.2 -11.05 -45.45 -18.15 -40.15 -22.45" fill="#ffffff" fill-rule="evenodd" stroke="none"/>
  </g>
</svg>
