<?xml version="1.0" encoding="UTF-8" standalone="no"?>
<svg xmlns:xlink="http://www.w3.org/1999/xlink" height="8.35px" width="77.05px" xmlns="http://www.w3.org/2000/svg">
  <g transform="matrix(1.0, 0.0, 0.0, 1.0, 47.75, 13.4)">
    <path d="M7.65 -9.5 Q8.05 -8.15 7.65 -6.95 7.2 -5.85 6.2 -5.6 5.3 -5.35 4.3 -6.1 3.4 -6.85 3.0 -8.25 2.65 -9.65 3.05 -10.75 3.45 -11.95 4.45 -12.2 5.4 -12.45 6.35 -11.65 7.35 -10.9 7.65 -9.5 M28.9 -11.05 Q29.45 -9.75 29.25 -8.5 29.0 -7.35 28.05 -6.95 27.15 -6.5 26.1 -7.15 25.0 -7.8 24.4 -9.05 23.9 -10.4 24.1 -11.65 24.35 -12.85 25.25 -13.2 L27.25 -13.0 Q28.3 -12.35 28.9 -11.05 M-43.3 -9.75 Q-43.65 -8.5 -44.55 -7.8 -45.35 -7.1 -46.25 -7.35 -47.1 -7.55 -47.55 -8.65 -47.9 -9.7 -47.6 -10.95 -47.2 -12.15 -46.4 -12.85 -45.5 -13.6 -44.6 -13.35 -43.75 -13.1 -43.4 -12.05 -42.95 -11.0 -43.3 -9.75 M-17.9 -8.1 Q-18.15 -6.65 -19.0 -5.75 -19.85 -4.9 -20.8 -5.1 -21.8 -5.2 -22.4 -6.35 -22.9 -7.45 -22.7 -8.8 -22.45 -10.25 -21.55 -11.1 -20.7 -12.0 -19.7 -11.85 -18.75 -11.7 -18.2 -10.55 -17.65 -9.45 -17.9 -8.1" fill="#ffffff" fill-rule="evenodd" stroke="none"/>
  </g>
</svg>
