<?xml version="1.0" encoding="UTF-8" standalone="no"?>
<svg xmlns:xlink="http://www.w3.org/1999/xlink" height="54.25px" width="111.85px" xmlns="http://www.w3.org/2000/svg">
  <g transform="matrix(1.0, 0.0, 0.0, 1.0, 55.95, 27.1)">
    <path d="M-30.7 13.6 Q-37.75 12.1 -42.8 9.75 -56.65 3.25 -55.0 -5.6 -53.35 -14.45 -41.2 -20.4 -29.05 -26.35 0.0 -26.35 29.05 -26.35 41.15 -20.4 53.25 -14.45 54.95 -5.6 56.65 3.25 42.85 9.75 29.05 16.2 0.0 16.2 L-12.45 15.9 -12.45 16.0 Q-12.45 17.65 -13.65 18.95 -12.05 19.15 -10.85 20.0 -9.35 21.1 -9.35 22.65 -9.35 24.2 -10.85 25.3 -12.35 26.4 -14.5 26.4 -16.65 26.4 -18.2 25.3 -19.7 24.2 -19.7 22.65 L-19.6 21.9 -21.95 22.05 Q-25.85 22.05 -28.65 20.25 -31.45 18.5 -31.45 16.0 -31.45 14.7 -30.7 13.6 -30.0 12.6 -28.65 11.75 -25.85 10.0 -21.95 10.0 -18.0 10.0 -15.25 11.75 -12.55 13.45 -12.45 15.9 M-19.6 21.9 Q-19.3 20.8 -18.2 20.0 -16.65 18.9 -14.5 18.9 L-13.65 18.95" fill="none" stroke="#000000" stroke-linecap="round" stroke-linejoin="round" stroke-width="1.5"/>
  </g>
</svg>
