<?xml version="1.0" encoding="UTF-8" standalone="no"?>
<svg xmlns:xlink="http://www.w3.org/1999/xlink" height="67.75px" width="175.05px" xmlns="http://www.w3.org/2000/svg">
  <g transform="matrix(1.0, 0.0, 0.0, 1.0, 87.55, 33.9)">
    <path d="M-30.2 19.1 Q-63.3 17.45 -73.45 12.1 -88.0 4.4 -86.7 -9.8 -85.45 -24.0 -72.2 -28.55 -58.95 -33.15 2.15 -33.15 63.25 -33.15 75.75 -25.0 88.25 -16.85 86.55 -5.1 84.85 6.6 74.05 13.2 63.25 19.75 2.15 19.75 L-14.5 19.6 Q-13.7 20.4 -13.35 21.4 L-13.15 22.6 -13.15 22.7 Q-13.15 24.35 -14.35 25.65 -12.75 25.85 -11.55 26.7 -10.05 27.8 -10.05 29.35 -10.05 30.9 -11.55 32.0 -13.05 33.1 -15.2 33.1 -17.35 33.1 -18.9 32.0 -20.4 30.9 -20.4 29.35 L-20.3 28.6 -22.65 28.75 Q-26.55 28.75 -29.35 26.95 -32.15 25.2 -32.15 22.7 -32.15 21.7 -31.7 20.8 L-31.4 20.3 -30.2 19.1 -29.35 18.45 Q-26.55 16.7 -22.65 16.7 -18.7 16.7 -15.95 18.45 L-14.5 19.6 M-20.3 28.6 Q-20.0 27.5 -18.9 26.7 -17.35 25.6 -15.2 25.6 L-14.35 25.65" fill="none" stroke="#000000" stroke-linecap="round" stroke-linejoin="round" stroke-width="1.5"/>
  </g>
</svg>
