<?xml version="1.0" encoding="UTF-8" standalone="no"?>
<svg xmlns:xlink="http://www.w3.org/1999/xlink" height="105.4px" width="202.85px" xmlns="http://www.w3.org/2000/svg">
  <g transform="matrix(1.0, 0.0, 0.0, 1.0, 101.4, 52.7)">
    <path d="M-95.2 -36.2 L-68.9 -31.3 -68.9 -47.15 -43.3 -31.9 -37.45 -45.3 -24.0 -31.65 -9.5 -51.95 8.55 -30.3 23.6 -48.0 25.2 -29.4 48.45 -46.1 53.2 -28.3 70.35 -37.6 71.75 -25.35 100.7 -30.7 85.75 -10.75 98.3 4.0 80.95 15.4 94.35 36.9 75.25 32.9 78.5 46.35 57.5 41.6 53.65 47.5 29.5 41.65 24.45 47.9 7.8 42.25 1.35 51.95 -6.6 40.8 -17.8 49.0 -24.15 42.15 -33.6 50.75 -41.3 43.6 -58.1 49.75 -63.15 40.2 -78.55 49.55 -76.6 31.7 -98.7 33.55 -85.1 17.05 -100.65 -1.6 -83.85 -10.25 -95.2 -36.2 Z" fill="none" stroke="#000000" stroke-linecap="round" stroke-linejoin="round" stroke-width="1.5"/>
  </g>
</svg>
