<?xml version="1.0" encoding="UTF-8" standalone="no"?>
<svg xmlns:xlink="http://www.w3.org/1999/xlink" height="59.2px" width="136.55px" xmlns="http://www.w3.org/2000/svg">
  <g transform="matrix(1.0, 0.0, 0.0, 1.0, 68.25, 29.6)">
    <path d="M-68.25 10.8 Q-50.25 1.4 -58.3 -18.65 -45.2 -31.65 5.1 -29.25 37.1 -27.85 53.8 -23.7 54.85 4.5 68.3 10.45 56.25 12.15 48.65 6.95 52.85 18.5 57.2 21.65 40.15 19.35 35.7 7.95 32.95 19.5 35.7 26.6 22.5 21.35 20.8 10.4 17.95 22.1 19.35 29.6 9.4 23.4 6.65 12.15 -0.4 24.5 -0.6 29.15 -12.9 22.45 -13.8 12.55 -17.95 24.45 -30.2 29.2 -26.65 24.5 -26.3 7.0 -31.6 20.75 -50.45 22.35 -45.75 16.85 -42.1 3.35 -49.55 14.0 -68.25 10.8" fill="#00ccff" fill-rule="evenodd" stroke="none"/>
  </g>
</svg>
