<?xml version="1.0" encoding="UTF-8" standalone="no"?>
<svg xmlns:xlink="http://www.w3.org/1999/xlink" height="178.3px" width="84.45px" xmlns="http://www.w3.org/2000/svg">
  <g transform="matrix(1.0, 0.0, 0.0, 1.0, 42.25, 89.15)">
    <path d="M-10.6 66.45 Q-7.6 77.6 -1.95 83.0 4.1 88.8 13.2 88.05 26.8 88.2 32.15 81.25 14.25 87.05 4.7 74.95 -3.2 67.3 -1.55 50.25 3.65 32.45 24.95 6.6 44.15 -17.7 40.65 -45.1 39.6 -96.65 26.75 -86.45 23.1 -85.0 22.85 -73.2 L19.55 -39.25 Q10.55 -1.5 -4.75 12.45 -9.2 17.55 -20.35 16.0 -30.15 13.95 -28.1 10.2 -20.75 1.8 -6.1 6.15 -16.3 -2.9 -32.6 2.55 -39.3 6.15 -40.9 10.45 -42.95 18.15 -32.35 23.3 -26.5 26.05 -20.05 26.85 -9.4 28.1 1.55 21.6 7.5 13.2 14.15 5.25 29.7 -13.0 28.0 -59.6 M-1.95 83.0 Q-15.25 80.35 -17.35 71.35 -20.2 57.35 -12.75 44.0 L-12.35 43.25 Q-5.9 32.1 1.55 21.6" fill="none" stroke="#000000" stroke-linecap="round" stroke-linejoin="round" stroke-width="2.0"/>
  </g>
</svg>
