<?xml version="1.0" encoding="UTF-8" standalone="no"?>
<svg xmlns:xlink="http://www.w3.org/1999/xlink" height="204.15px" width="176.2px" xmlns="http://www.w3.org/2000/svg">
  <g transform="matrix(1.0, 0.0, 0.0, 1.0, 88.1, 102.05)">
    <path d="M-22.0 92.45 Q-19.6 97.95 -13.9 102.1 -29.4 99.65 -35.55 92.65 -35.65 98.75 -39.8 101.75 -37.45 89.55 -50.25 84.25 -62.9 78.25 -66.9 73.65 -77.1 62.5 -72.9 48.4 -83.6 61.65 -83.2 73.15 -95.5 56.6 -76.8 32.3 -58.15 8.0 -52.3 -11.7 -46.45 -31.4 -50.65 -61.0 -54.85 -90.6 -17.35 -98.5 20.25 -106.4 58.2 -96.6 82.7 -87.3 76.35 -53.1 71.85 -29.05 72.15 -2.8 72.6 13.35 84.1 33.45 93.55 53.35 80.55 66.3 87.2 54.05 73.35 33.45 76.6 63.15 38.7 68.55 25.9 71.85 17.3 80.15 L15.85 81.55 Q8.4 90.25 10.55 100.55 -13.8 101.5 -22.0 92.45" fill="#9a8dd4" fill-rule="evenodd" stroke="none"/>
  </g>
</svg>
