<?xml version="1.0" encoding="UTF-8" standalone="no"?>
<svg xmlns:xlink="http://www.w3.org/1999/xlink" height="76.5px" width="143.95px" xmlns="http://www.w3.org/2000/svg">
  <g transform="matrix(1.0, 0.0, 0.0, 1.0, 72.0, 38.25)">
    <path d="M53.4 -22.55 L55.8 -20.65 Q66.7 -19.95 69.0 -24.8 55.95 -26.65 37.15 -32.7 4.0 -39.55 -28.45 -36.05 -44.55 -35.7 -54.0 -29.45 -63.05 -19.3 -64.95 -9.15 L-57.65 -16.6 -55.6 -18.7 M-55.35 7.05 L-59.1 6.3 -67.7 6.3 Q-47.7 27.4 -26.5 30.1 -32.0 33.4 -34.75 37.25 6.1 29.2 40.5 37.25 39.45 33.3 34.7 30.4 54.2 30.4 64.35 15.3 59.4 16.2 55.25 15.3 L51.15 17.5 M-57.65 -16.6 Q-62.2 -7.4 -71.0 1.85 -67.8 4.4 -59.1 6.3 M55.8 -20.65 Q67.9 -10.45 68.75 1.0 L56.35 -2.85 Q67.45 1.3 70.95 9.25 61.45 12.25 55.25 15.3" fill="none" stroke="#333333" stroke-linecap="round" stroke-linejoin="round" stroke-width="2.0"/>
  </g>
</svg>
