<?xml version="1.0" encoding="UTF-8" standalone="no"?>
<svg xmlns:xlink="http://www.w3.org/1999/xlink" height="15.75px" width="14.05px" xmlns="http://www.w3.org/2000/svg">
  <g transform="matrix(1.0, 0.0, 0.0, 1.0, 7.05, 7.9)">
    <path d="M-1.05 3.0 Q-4.85 1.2 -6.45 -2.8 -8.0 -6.8 -5.7 -7.8 -2.8 -8.35 -1.1 -5.2 0.2 -7.85 2.65 -7.5 5.2 -6.45 3.9 -2.65 2.5 1.4 -1.05 3.0 M4.0 7.85 Q1.85 6.9 1.0 4.65 0.1 2.4 1.4 1.85 3.05 1.55 3.95 3.3 4.7 1.85 6.05 2.05 7.45 2.6 6.75 4.75 6.0 7.0 4.0 7.85" fill="#72adff" fill-rule="evenodd" stroke="none"/>
  </g>
</svg>
