<?xml version="1.0" encoding="UTF-8" standalone="no"?>
<svg xmlns:xlink="http://www.w3.org/1999/xlink" height="67.05px" width="121.75px" xmlns="http://www.w3.org/2000/svg">
  <g transform="matrix(1.0, 0.0, 0.0, 1.0, 60.85, 33.5)">
    <path d="M-55.85 33.55 Q-49.6 13.1 -60.65 -17.15 -61.7 -23.3 -56.65 -27.3 -35.05 -32.75 4.4 -33.45 37.2 -34.05 54.6 -29.7 60.15 -24.85 58.9 -14.4 55.2 12.8 60.9 31.95 48.45 19.15 47.2 1.15 43.25 15.35 23.25 21.05 28.15 16.45 30.25 9.85 23.95 19.55 12.15 23.55 15.0 21.25 17.45 13.85 14.15 21.5 1.6 26.25 -10.95 20.05 -14.3 13.9 L-9.85 23.15 Q-25.85 18.2 -31.0 8.1 L-26.8 17.4 Q-44.25 8.3 -45.6 0.3 -44.15 21.05 -55.85 33.55" fill="#00ccff" fill-rule="evenodd" stroke="none"/>
  </g>
</svg>
