<?xml version="1.0" encoding="UTF-8" standalone="no"?>
<svg xmlns:xlink="http://www.w3.org/1999/xlink" height="230.15px" width="137.5px" xmlns="http://www.w3.org/2000/svg">
  <g transform="matrix(1.0, 0.0, 0.0, 1.0, 68.75, 115.05)">
    <path d="M45.9 -35.85 Q40.8 -13.85 40.5 1.95 L40.5 2.15 40.6 7.75 40.6 7.95 Q40.7 10.5 41.1 13.45 41.55 16.9 42.45 20.15 L42.5 20.3 Q43.2 22.8 44.25 25.2 48.9 35.9 59.65 43.55 47.65 28.4 54.95 -2.5 64.0 -31.25 66.5 -51.2 72.8 -86.7 46.75 -109.25 17.8 -126.15 5.65 -83.65 1.55 -69.4 0.55 -50.45 L-0.55 -44.6 -0.7 -43.75 Q-10.15 4.35 -30.35 17.85 -11.25 7.7 -1.85 -8.25 L-1.8 -8.3 -1.1 -9.6 -1.0 -9.75 Q6.75 -23.7 7.35 -42.0 M13.65 -42.8 Q9.15 -22.0 7.75 -4.8 L7.7 -4.6 7.35 1.05 7.35 1.25 Q7.05 8.4 7.45 14.9 L7.45 15.1 Q7.65 18.95 8.2 22.6 L8.2 22.8 Q11.35 44.85 25.45 52.3 L25.75 51.2 Q17.45 42.4 16.25 25.25 L16.25 25.05 Q16.0 22.1 16.0 18.9 L16.0 18.7 Q15.95 11.25 16.8 3.95 L16.85 3.75 17.45 -1.6 17.5 -1.8 Q19.9 -18.9 25.95 -40.35 M16.25 25.05 Q32.75 29.75 38.3 28.6 41.25 28.0 42.9 27.1 44.05 26.25 44.25 25.2 M30.8 30.75 Q28.6 41.7 25.75 51.2 L28.4 53.6 25.45 52.3 Q23.35 58.7 20.15 64.4 L18.8 66.75 17.45 68.8 Q0.95 97.3 19.1 114.1 14.7 97.75 33.6 70.6 51.55 41.35 42.75 27.2 L42.9 27.1 M17.45 68.8 Q10.7 78.9 0.0 86.55 L-2.6 88.3 Q-23.5 102.15 -47.6 100.0 -31.6 91.15 -25.6 82.45 -21.75 76.9 -13.8 68.2 L-3.4 57.3 -8.85 61.3 Q-29.8 75.5 -59.4 80.2 -62.55 87.55 -53.35 91.55 -74.0 84.95 -65.05 69.65 -56.55 60.05 -46.1 52.5 -34.8 44.35 -21.2 38.5 -39.65 42.05 -57.35 32.75 -19.8 44.5 -0.85 17.0 L-0.95 16.9 Q-2.85 14.6 -2.85 11.8 L-2.8 8.5 Q-2.75 1.15 -2.25 -4.25 L-1.8 -8.3 M20.15 64.4 L25.45 52.3 M16.85 3.75 Q31.2 8.1 40.6 7.75 M16.0 18.7 Q34.6 24.1 42.45 20.15 M17.5 -1.8 Q34.15 3.5 40.5 1.95 M-21.2 38.5 L-15.9 37.15 Q-2.8 34.0 0.2 27.9 M-24.05 55.65 Q-31.35 57.5 -37.6 60.7 -49.4 66.6 -57.6 77.05 L-59.1 79.5 Q-38.1 72.15 -24.05 55.65 L-21.8 52.9 -18.3 48.05 M-59.1 79.5 L-62.65 80.65 -59.4 80.2 M7.75 -4.8 Q-1.3 -7.85 -1.1 -9.6 M-2.8 8.5 Q-2.15 10.75 7.45 14.9 M7.35 1.05 Q-1.1 -2.15 -2.25 -4.25 M-0.85 17.0 Q1.8 20.25 8.2 22.6" fill="none" stroke="#000000" stroke-linecap="round" stroke-linejoin="round" stroke-width="2.0"/>
  </g>
</svg>
