<?xml version="1.0" encoding="UTF-8" standalone="no"?>
<svg xmlns:xlink="http://www.w3.org/1999/xlink" height="56.95px" width="186.75px" xmlns="http://www.w3.org/2000/svg">
  <g transform="matrix(1.0, 0.0, 0.0, 1.0, 93.4, 28.45)">
    <path d="M50.6 -28.45 Q50.75 -27.4 51.5 -26.15 50.55 -24.85 50.5 -23.9 50.4 -22.45 52.15 -21.7 49.5 -18.2 53.35 -16.2 50.55 -12.55 54.85 -11.8 L54.95 -10.9 Q51.1 -9.3 53.7 -6.15 52.3 -5.3 51.7 -3.75 51.1 -2.2 53.0 -1.7 52.0 -0.5 51.9 1.2 52.9 3.25 56.05 2.25 L56.35 2.8 Q69.45 2.95 76.75 -4.15 L76.75 -4.95 Q79.8 -6.45 80.1 -9.55 79.5 -12.3 76.75 -12.05 78.6 -13.85 77.9 -16.25 75.1 -18.25 73.45 -17.55 L73.95 -19.85 Q77.5 -20.05 78.75 -23.05 L82.2 -23.55 Q89.6 -21.1 93.35 -22.55 89.3 -12.8 80.85 -16.35 92.55 -4.1 83.85 15.95 83.55 12.5 78.15 6.1 82.0 13.65 77.85 20.4 75.75 15.2 60.65 7.7 45.5 0.1 44.0 -14.95 44.4 -22.85 47.2 -25.55 48.8 -27.25 50.6 -28.45 M-80.25 -18.5 L-79.75 -16.7 Q-81.65 -17.55 -79.8 -14.0 -78.0 -10.45 -74.65 -12.55 -73.85 -12.05 -73.05 -11.75 -69.8 -10.7 -66.2 -13.25 -63.35 -12.3 -61.55 -12.85 L-60.5 -12.2 Q-62.75 -8.1 -60.8 -4.9 L-60.0 -3.85 Q-59.25 -4.4 -58.45 -5.45 -57.1 -7.3 -55.75 -10.65 L-55.4 -10.6 Q-55.45 -9.3 -54.5 -7.7 -55.4 -6.4 -55.45 -5.45 -55.5 -4.55 -54.9 -3.9 L-53.85 -3.25 Q-56.45 0.25 -52.65 2.25 -55.65 6.2 -50.45 6.75 L-50.4 8.05 -50.35 8.15 -46.4 8.4 -47.55 9.55 Q-49.2 10.55 -49.05 10.7 L-50.35 11.8 -50.35 11.85 Q-54.75 15.05 -60.8 17.2 -64.4 18.45 -68.55 19.3 -66.3 18.35 -60.8 9.9 L-59.8 8.35 -60.8 9.4 Q-62.9 11.45 -65.8 13.35 -76.8 20.2 -79.55 28.5 -91.15 14.4 -85.6 -1.75 -91.35 -0.3 -93.4 -9.85 -89.6 -7.8 -81.05 -17.65 L-80.25 -18.5" fill="#a3987d" fill-rule="evenodd" stroke="none"/>
  </g>
</svg>
