<?xml version="1.0" encoding="UTF-8" standalone="no"?>
<svg xmlns:xlink="http://www.w3.org/1999/xlink" height="137.6px" width="211.05px" xmlns="http://www.w3.org/2000/svg">
  <g transform="matrix(1.0, 0.0, 0.0, 1.0, 105.55, 68.8)">
    <path d="M34.2 -67.35 Q42.15 -52.85 56.0 -48.85 82.65 -39.85 98.05 -21.6 L97.8 -21.8 Q116.9 -0.65 88.6 45.95 85.95 56.7 78.9 64.7 73.6 70.25 66.15 68.3 L33.8 61.25 Q49.6 41.8 48.25 26.8 44.75 37.15 37.1 44.9 44.8 26.3 43.45 7.3 43.4 -21.45 31.3 -56.1 25.0 -53.45 21.25 -56.95 32.1 -59.55 30.2 -65.5 L34.2 -67.35 M-47.45 -44.35 Q-57.35 -36.95 -72.9 -34.0 -99.25 -14.3 -86.85 20.95 -78.15 -21.35 -52.1 -40.4 -49.75 -42.2 -47.45 -44.35 M-26.55 -66.65 Q-28.55 -50.75 -37.6 -23.0 -43.5 3.05 -38.9 19.55 L-37.95 22.4 Q-33.85 33.95 -24.0 40.25 L-19.7 51.4 Q-26.0 48.75 -30.9 44.65 -51.75 27.4 -48.5 -14.45 L-49.65 -11.95 Q-65.4 25.4 -46.4 63.8 L-59.65 63.8 Q-67.5 64.05 -70.15 60.05 L-76.7 47.1 -79.3 61.75 Q-116.45 10.7 -101.0 -16.6 L-98.15 -21.3 Q-87.55 -37.4 -70.85 -44.0 -34.5 -58.5 -31.85 -68.8 L-26.55 -66.65 M55.35 -38.15 L58.1 -35.45 Q83.35 -8.1 89.1 18.0 89.85 22.55 90.1 26.85 102.9 -12.2 77.0 -30.45 66.15 -32.8 55.35 -38.15" fill="#af94d0" fill-rule="evenodd" stroke="none"/>
  </g>
</svg>
