<?xml version="1.0" encoding="UTF-8" standalone="no"?>
<svg xmlns:xlink="http://www.w3.org/1999/xlink" height="77.8px" width="327.0px" xmlns="http://www.w3.org/2000/svg">
  <g transform="matrix(1.0, 0.0, 0.0, 1.0, 169.4, -95.2)">
    <path d="M53.75 146.15 Q53.5 144.55 54.3 143.45 55.0 142.35 56.35 142.35 57.75 142.35 58.9 143.45 60.05 144.55 60.25 146.15 60.5 147.65 59.8 148.75 59.05 149.85 57.7 149.85 56.35 149.85 55.2 148.75 54.05 147.65 53.75 146.15 M142.3 96.25 Q142.3 95.8 142.7 95.45 L143.7 95.2 Q144.25 95.2 144.65 95.45 L145.0 96.25 144.65 97.0 143.7 97.35 Q143.1 97.35 142.7 97.0 L142.3 96.25 M55.7 146.15 Q55.75 146.8 56.3 147.25 56.75 147.7 57.3 147.7 57.9 147.7 58.2 147.25 58.5 146.8 58.4 146.15 58.3 145.5 57.8 145.05 57.4 144.6 56.85 144.6 56.25 144.6 55.9 145.05 55.6 145.5 55.7 146.15 M45.4 156.45 L45.85 151.9 Q48.8 148.0 53.25 149.65 57.75 151.25 62.8 159.55 65.15 150.6 71.9 141.55 77.6 135.15 83.2 133.45 92.65 130.85 95.2 139.25 96.75 145.85 93.15 154.25 L92.2 156.45 92.0 156.75 91.55 157.55 Q94.75 155.15 98.6 156.2 102.3 158.4 100.05 163.55 93.55 167.7 83.2 169.5 L89.75 160.05 Q82.1 169.45 64.8 173.0 49.45 168.4 45.4 156.45 M129.95 114.05 Q130.2 112.65 131.1 111.65 132.0 110.7 133.05 110.7 134.1 110.7 134.75 111.65 135.3 112.65 135.05 114.05 134.85 115.35 133.9 116.35 132.95 117.35 131.9 117.35 130.85 117.35 130.3 116.35 129.7 115.35 129.95 114.05 M131.55 114.05 L131.7 114.85 Q131.95 115.2 132.3 115.2 L132.95 114.85 133.35 114.05 133.25 113.2 Q133.05 112.9 132.65 112.9 132.35 112.9 132.0 113.2 131.65 113.55 131.55 114.05 M126.95 137.65 Q135.0 121.55 137.5 106.35 141.3 98.45 148.7 102.7 156.6 109.0 153.85 125.5 157.2 124.95 157.6 129.95 155.2 137.25 149.7 144.6 153.1 137.1 151.55 124.5 151.7 149.2 124.1 148.4 126.15 142.9 126.95 137.65 M112.6 121.3 Q112.5 122.2 112.75 122.85 113.05 123.4 113.55 123.4 114.0 123.4 114.45 122.85 L114.9 121.3 114.75 119.8 Q114.4 119.25 113.95 119.25 113.45 119.25 113.05 119.8 112.6 120.45 112.6 121.3 M122.85 135.05 Q120.7 150.95 105.7 167.75 108.85 160.05 109.85 151.25 110.7 143.55 109.95 135.05 111.45 127.2 115.55 125.65 121.7 125.65 122.85 135.05 M90.25 126.25 Q90.25 125.25 90.7 124.55 91.2 123.9 91.85 123.9 92.5 123.9 93.0 124.55 93.5 125.25 93.5 126.25 93.45 127.2 92.95 127.85 92.5 128.55 91.8 128.55 91.15 128.55 90.65 127.85 90.2 127.2 90.25 126.25 M110.65 121.3 Q110.85 119.6 111.85 118.35 112.9 117.1 114.15 117.1 115.4 117.1 116.1 118.35 116.95 119.6 116.75 121.3 116.6 123.05 115.55 124.3 114.55 125.55 113.3 125.55 112.05 125.55 111.3 124.3 110.5 123.05 110.65 121.3 M-153.95 96.25 L-154.35 97.0 Q-154.75 97.35 -155.3 97.35 -155.9 97.35 -156.3 97.0 L-156.65 96.25 Q-156.65 95.8 -156.3 95.45 L-155.3 95.2 -154.35 95.45 Q-153.95 95.8 -153.95 96.25 M-102.0 126.25 Q-102.0 127.2 -102.5 127.85 -102.9 128.55 -103.65 128.55 -104.3 128.55 -104.8 127.85 -105.2 127.2 -105.2 126.25 -105.2 125.25 -104.8 124.55 -104.3 123.9 -103.65 123.9 -102.9 123.9 -102.5 124.55 -102.0 125.25 -102.0 126.25 M-57.75 151.9 Q-57.35 154.25 -57.25 156.45 -61.35 168.4 -76.8 173.0 -94.0 169.45 -101.6 160.05 L-95.15 169.5 Q-105.45 167.7 -111.95 163.55 -114.2 158.4 -110.45 156.2 -106.6 155.15 -103.45 157.55 L-103.85 156.75 -104.05 156.45 -105.05 154.25 Q-108.6 145.85 -107.05 139.25 -104.45 130.85 -95.0 133.45 -89.35 135.15 -83.7 141.55 -76.95 150.6 -74.7 159.55 -69.55 151.25 -65.1 149.65 -60.65 148.0 -57.75 151.9 M-122.45 121.3 Q-122.25 123.05 -123.05 124.3 -123.8 125.55 -125.05 125.55 -126.3 125.55 -127.3 124.3 -128.3 123.05 -128.5 121.3 -128.65 119.6 -127.9 118.35 -127.1 117.1 -125.9 117.1 -124.65 117.1 -123.65 118.35 -122.6 119.6 -122.45 121.3 M-143.3 114.05 Q-143.4 113.55 -143.75 113.2 -144.05 112.9 -144.4 112.9 -144.75 112.9 -144.95 113.2 L-145.05 114.05 -144.7 114.85 Q-144.4 115.2 -144.0 115.2 -143.7 115.2 -143.45 114.85 L-143.3 114.05 M-124.3 121.3 Q-124.4 120.45 -124.8 119.8 -125.2 119.25 -125.7 119.25 -126.15 119.25 -126.45 119.8 -126.75 120.45 -126.7 121.3 L-126.2 122.85 Q-125.8 123.4 -125.3 123.4 -124.8 123.4 -124.55 122.85 -124.2 122.2 -124.3 121.3 M-141.65 114.05 Q-141.45 115.35 -142.0 116.35 -142.6 117.35 -143.65 117.35 -144.7 117.35 -145.65 116.35 -146.55 115.35 -146.8 114.05 -147.05 112.65 -146.45 111.65 -145.85 110.7 -144.8 110.7 -143.75 110.7 -142.8 111.65 -141.9 112.65 -141.65 114.05 M-138.75 137.65 Q-138.0 142.9 -136.0 148.4 -163.6 149.2 -163.25 124.5 -164.95 137.1 -161.55 144.6 -167.05 137.25 -169.4 129.95 -168.95 124.95 -165.6 125.5 -168.35 109.0 -160.4 102.7 -152.9 98.45 -149.2 106.35 -146.8 121.55 -138.75 137.65 M-134.65 135.05 Q-133.45 125.65 -127.3 125.65 -123.25 127.2 -121.7 135.05 -122.55 143.55 -121.65 151.25 -120.75 160.05 -117.6 167.75 -132.6 150.95 -134.65 135.05 M-65.65 146.15 Q-65.9 147.65 -67.05 148.75 -68.2 149.85 -69.55 149.85 -70.9 149.85 -71.6 148.75 -72.4 147.65 -72.1 146.15 -71.85 144.55 -70.7 143.45 -69.55 142.35 -68.2 142.35 -66.85 142.35 -66.1 143.45 -65.35 144.55 -65.65 146.15 M-67.55 146.15 Q-67.45 145.5 -67.75 145.05 -68.05 144.6 -68.65 144.6 -69.2 144.6 -69.65 145.05 -70.15 145.5 -70.25 146.15 -70.35 146.8 -70.05 147.25 -69.75 147.7 -69.15 147.7 -68.6 147.7 -68.15 147.25 -67.65 146.8 -67.55 146.15" fill="#ffffff" fill-opacity="0.827451" fill-rule="evenodd" stroke="none"/>
  </g>
</svg>
