<?xml version="1.0" encoding="UTF-8" standalone="no"?>
<svg xmlns:xlink="http://www.w3.org/1999/xlink" height="30.5px" width="56.7px" xmlns="http://www.w3.org/2000/svg">
  <g transform="matrix(1.0, 0.0, 0.0, 1.0, 29.35, 12.9)">
    <path d="M-22.45 -1.9 L-24.75 -2.2 -28.6 -4.7 -28.3 -5.5 -28.5 -8.2 Q-27.6 -8.15 -27.65 -9.85 L-28.25 -10.45 -28.95 -11.6 -29.35 -12.6 -26.4 -12.45 -25.1 -10.1 -13.05 -9.45 -13.15 -9.4 -9.3 -6.95 -5.6 -8.65 -2.35 -6.6 1.5 -8.35 -2.15 -10.75 -6.05 -9.1 -6.2 -9.15 -9.15 -11.1 -10.9 -10.4 -11.95 -12.9 8.4 -11.85 7.4 -8.85 5.0 -10.45 1.0 -8.8 4.8 -6.35 8.65 -8.0 8.1 -8.35 27.0 -7.4 26.8 -1.25 27.35 -1.2 27.15 -0.65 16.25 -1.2 14.7 -0.15 4.0 -0.7 -2.4 -1.15 -9.75 -1.6 -22.45 -1.9" fill="#000000" fill-opacity="0.25882354" fill-rule="evenodd" stroke="none"/>
    <path d="M4.0 -0.7 Q1.8 0.85 1.35 2.75 0.2 5.75 -3.35 5.9 L-7.45 5.65 -12.0 5.75 -12.45 5.85 -12.6 5.9 -12.65 5.75 -12.9 5.9 -16.0 17.6 -28.65 16.6 -25.2 5.15 Q-24.25 -0.55 -24.35 -1.35 -24.0 -1.55 -24.4 -2.0 L-24.5 -2.1 -22.45 -1.9 -9.75 -1.6 Q-11.25 -1.0 -10.65 1.4 -10.35 2.8 -8.35 3.55 L-6.85 3.9 -5.65 4.05 -4.15 3.95 -2.65 3.9 Q-1.2 3.25 -0.7 1.45 -0.15 -0.45 -2.4 -1.15 L4.0 -0.7" fill="#000000" fill-opacity="0.5882353" fill-rule="evenodd" stroke="none"/>
  </g>
</svg>
