<?xml version="1.0" encoding="UTF-8" standalone="no"?>
<svg xmlns:xlink="http://www.w3.org/1999/xlink" height="58.2px" width="57.1px" xmlns="http://www.w3.org/2000/svg">
  <g transform="matrix(1.0, 0.0, 0.0, 1.0, 28.55, 29.1)">
    <path d="M6.0 -19.15 L19.85 -26.2 20.05 -27.85 22.0 -28.5 22.45 -27.85 24.0 -28.3 25.25 -27.9 27.25 -24.3 27.7 -22.1 27.95 -21.6 27.75 -19.4 27.85 -18.8 18.1 -13.85 17.3 -12.2 7.75 -7.3 Q6.65 -4.85 7.2 -3.0 7.7 0.2 4.7 2.1 L1.05 3.95 Q-1.6 5.2 -2.85 6.3 L-3.2 6.6 -3.3 6.7 Q-3.4 6.6 -3.45 6.65 L-3.6 6.85 -0.45 18.6 0.25 21.2 0.0 23.55 -9.75 28.5 -11.0 27.95 -11.9 24.0 -14.6 12.35 Q-16.65 6.95 -17.1 6.3 -16.95 5.95 -17.5 5.75 L-17.6 5.7 -15.75 4.85 Q-17.95 5.55 -17.9 5.75 L-22.5 5.55 -22.6 4.7 -23.85 2.9 -26.15 4.1 -27.6 3.85 -27.65 3.7 Q-28.2 2.45 -27.7 1.2 L-26.2 -0.3 -27.1 -0.95 -24.45 -2.3 -24.65 -4.95 -23.6 -5.15 -20.5 -5.85 -19.85 -6.0 -17.15 -7.35 -12.15 -9.9 6.0 -19.15 6.65 -16.05 7.5 -16.0 24.35 -24.6 22.45 -27.85 M-12.15 -9.9 L-10.0 -8.25 -8.85 -9.75 -5.25 -9.5 -5.15 -9.55 -2.6 -12.95 1.0 -12.7 1.15 -12.8 3.75 -16.25 6.65 -16.05 M1.0 -12.7 L1.75 -12.65 -0.7 -9.25 -4.5 -9.4 -6.9 -6.05 -11.45 -6.3 -11.4 -6.35 -13.7 -5.2 -17.0 -3.5 -19.55 -2.2 -22.15 -0.9 -24.45 -2.3 M7.5 -16.0 L8.1 -15.95 5.65 -12.6 1.15 -12.8 M7.75 -7.3 L2.0 -4.5 Q4.3 -5.0 4.8 -3.1 5.25 -1.25 4.3 0.0 L3.05 0.8 1.75 1.65 0.65 2.15 -0.8 2.55 Q-2.9 2.9 -3.9 1.85 -5.6 0.05 -4.55 -1.2 L-7.6 0.35 -3.6 6.85 M3.05 0.8 Q1.8 0.35 0.85 -0.5 -0.2 -2.15 0.1 -3.55 L-2.4 -2.25 -2.4 -1.65 -1.75 0.25 Q-0.85 1.7 0.65 2.15 M2.0 -4.5 L0.1 -3.55 M27.75 -19.4 L27.25 -19.15 24.35 -24.6 M-17.15 -7.35 L-13.7 -5.2 M-5.15 -9.55 L-5.2 -9.5 -4.85 -9.45 -4.8 -9.45 -4.5 -9.45 -4.5 -9.4 -4.8 -9.45 M-5.2 -9.5 L-5.25 -9.5 M-2.4 -2.25 L-4.55 -1.2 M-11.4 -6.35 L-10.0 -8.25 M-17.0 -3.5 L-20.5 -5.85 M-19.55 -2.2 L-23.6 -5.15 M-7.6 0.35 L-15.75 4.85 M-11.9 24.0 L-0.45 18.6 M-23.85 2.9 L-24.15 2.45 Q-23.35 2.05 -24.2 0.6 L-25.05 0.35 -26.2 -0.3" fill="none" stroke="#000000" stroke-linecap="round" stroke-linejoin="round" stroke-width="1.2000000000000002"/>
  </g>
</svg>
