<?xml version="1.0" encoding="UTF-8" standalone="no"?>
<svg xmlns:xlink="http://www.w3.org/1999/xlink" height="9.35px" width="29.0px" xmlns="http://www.w3.org/2000/svg">
  <g transform="matrix(1.0, 0.0, 0.0, 1.0, 44.15, 8.85)">
    <path d="M-19.25 -7.8 Q-18.6 -7.8 -18.1 -7.25 -17.6 -6.65 -17.6 -5.9 -17.6 -5.15 -18.1 -4.55 -18.6 -4.05 -19.25 -4.05 -20.0 -4.05 -20.5 -4.55 -21.0 -5.15 -21.0 -5.9 -21.0 -6.65 -20.5 -7.25 -20.0 -7.8 -19.25 -7.8 M-25.5 -4.15 Q-26.0 -3.65 -26.7 -3.65 -27.35 -3.65 -27.85 -4.15 -28.35 -4.6 -28.35 -5.35 -28.35 -6.1 -27.85 -6.65 -27.35 -7.2 -26.7 -7.2 -26.0 -7.2 -25.5 -6.65 -25.1 -6.1 -25.1 -5.35 -25.1 -4.6 -25.5 -4.15" fill="#646464" fill-rule="evenodd" stroke="none"/>
    <path d="M-25.5 -4.15 Q-25.1 -4.6 -25.1 -5.35 -25.1 -6.1 -25.5 -6.65 -26.0 -7.2 -26.7 -7.2 -27.35 -7.2 -27.85 -6.65 -28.35 -6.1 -28.35 -5.35 -28.35 -4.6 -27.85 -4.15 -27.35 -3.65 -26.7 -3.65 -26.0 -3.65 -25.5 -4.15 M-19.25 -7.8 Q-20.0 -7.8 -20.5 -7.25 -21.0 -6.65 -21.0 -5.9 -21.0 -5.15 -20.5 -4.55 -20.0 -4.05 -19.25 -4.05 -18.6 -4.05 -18.1 -4.55 -17.6 -5.15 -17.6 -5.9 -17.6 -6.65 -18.1 -7.25 -18.6 -7.8 -19.25 -7.8 M-22.05 -0.95 L-32.6 -1.4 Q-38.6 -2.35 -42.55 0.5 -45.9 -5.85 -42.25 -6.55 -31.65 -8.45 -15.15 -8.85 L-15.15 0.0 Q-17.8 -0.85 -22.05 -0.95" fill="#101010" fill-rule="evenodd" stroke="none"/>
  </g>
</svg>
