<?xml version="1.0" encoding="UTF-8" standalone="no"?>
<svg xmlns:xlink="http://www.w3.org/1999/xlink" height="195.2px" width="51.7px" xmlns="http://www.w3.org/2000/svg">
  <g transform="matrix(1.0, 0.0, 0.0, 1.0, 25.85, 97.6)">
    <path d="M9.8 9.6 L10.5 9.35 Q10.55 8.55 9.95 8.0 L9.2 7.5 9.0 3.85 Q13.25 -10.4 15.35 -33.05 14.45 -91.6 0.65 -96.5 -6.4 -97.55 -14.6 -95.5 -19.35 -94.7 -21.85 -91.15 -26.45 -84.95 -24.5 -70.4 L-23.4 -64.0 Q-16.8 -17.95 1.65 4.45 L2.15 8.75 Q1.25 8.85 1.35 9.6 L1.65 10.6 2.2 10.6 9.8 9.6 18.1 61.55 Q19.25 61.5 19.3 62.2 L22.55 81.55 23.75 84.1 25.1 95.0 Q23.55 95.85 21.8 96.3 L19.05 96.7 13.05 96.5 11.15 86.1 12.0 84.65 8.85 64.2 Q8.5 63.15 9.8 62.6 L2.2 10.6 M18.1 61.55 L9.8 62.6" fill="none" stroke="#000000" stroke-linecap="round" stroke-linejoin="round" stroke-width="1.5"/>
    <path d="M4.35 1.0 L-6.55 -77.5" fill="none" stroke="#000000" stroke-linecap="round" stroke-linejoin="round" stroke-opacity="0.5019608" stroke-width="1.5"/>
  </g>
</svg>
