<?xml version="1.0" encoding="UTF-8" standalone="no"?>
<svg xmlns:xlink="http://www.w3.org/1999/xlink" height="140.7px" width="130.95px" xmlns="http://www.w3.org/2000/svg">
  <g transform="matrix(1.0, 0.0, 0.0, 1.0, 65.5, 70.35)">
    <path d="M24.2 -24.8 Q15.55 -24.15 11.35 -15.9 L9.15 -17.4 10.6 2.85 Q19.5 -4.9 33.95 0.8 34.2 -8.1 24.2 -24.8 31.6 -25.4 42.3 -20.3 22.05 -49.3 -15.15 -58.8 L-17.2 -57.9 Q-0.8 -46.2 11.35 -15.9 M33.95 0.8 Q47.4 -12.9 64.7 -16.0 50.0 -26.1 42.95 -19.95 42.55 -20.15 42.3 -20.3 M1.0 50.6 L2.1 57.5 Q3.65 66.1 5.55 67.9 8.45 71.2 13.45 68.15 16.45 66.55 16.25 61.25 15.2 54.25 13.2 54.55 9.95 54.55 10.6 58.75 11.6 63.05 9.6 63.8 7.85 64.0 7.35 60.35 L6.2 50.6 1.0 50.6 -7.9 0.4 Q-13.55 2.0 -17.45 8.0 -29.75 -0.65 -39.2 7.35 -52.65 -0.9 -64.75 3.65 -54.55 -40.4 -18.05 -57.55 -23.5 -62.6 -18.2 -69.6 -13.35 -65.3 -15.15 -58.8 28.3 -57.75 64.7 -16.0 M-18.05 -57.55 L-17.2 -57.9 Q-25.05 -37.4 -18.8 -9.6 -16.3 -14.9 -11.3 -18.45 L-5.8 -20.55 Q0.35 -22.95 9.15 -17.4 M-5.8 -20.55 L-2.45 -1.25 Q2.2 -3.5 10.6 2.85 M-18.8 -9.6 L-21.35 -10.85 -17.45 8.0 M-17.2 -57.9 Q-43.9 -23.6 -45.55 -4.3 -42.5 -7.9 -39.2 -9.95 -31.05 -15.1 -21.35 -10.85 M-7.9 0.4 L-11.3 -18.45 M-39.2 7.35 L-39.2 -9.95 M-64.75 3.65 Q-58.4 -8.45 -45.55 -4.3 M-2.45 -1.25 L6.2 50.6" fill="none" stroke="#000000" stroke-linecap="round" stroke-linejoin="round" stroke-width="1.5"/>
  </g>
</svg>
