<?xml version="1.0" encoding="UTF-8" standalone="no"?>
<svg xmlns:xlink="http://www.w3.org/1999/xlink" height="31.1px" width="30.5px" xmlns="http://www.w3.org/2000/svg">
  <g transform="matrix(1.0, 0.0, 0.0, 1.0, 15.25, 15.55)">
    <path d="M-3.95 -15.2 Q7.6 -17.35 13.25 -6.35 15.05 -1.1 13.35 4.35 16.75 7.0 14.1 8.55 L14.05 8.6 Q13.35 9.3 12.0 9.5 9.35 10.15 6.2 12.35 3.6 14.15 -1.0 14.3 -3.05 14.5 -3.45 13.85 -5.05 12.85 -7.25 14.9 -7.9 15.5 -8.85 15.55 -9.95 15.6 -11.6 14.7 -13.05 14.05 -10.7 12.25 L-9.05 11.2 Q-16.15 5.65 -15.15 -3.2 -12.95 -12.95 -3.95 -15.2" fill="#49bf54" fill-rule="evenodd" stroke="none"/>
  </g>
</svg>
