<?xml version="1.0" encoding="UTF-8" standalone="no"?>
<svg xmlns:xlink="http://www.w3.org/1999/xlink" height="76.65px" width="22.15px" xmlns="http://www.w3.org/2000/svg">
  <g transform="matrix(1.0, 0.0, 0.0, 1.0, 11.05, 38.35)">
    <path d="M3.0 -25.4 L3.65 -35.7 Q1.95 -39.4 -0.1 -35.9 L-0.7 -25.6 -0.8 -22.85 Q0.35 -20.4 2.8 -22.5 L3.0 -25.4 Q4.25 -25.1 5.45 -24.4 8.95 -22.35 10.0 -18.5 11.0 -14.6 9.0 -11.2 8.0 -9.4 6.4 -8.3 8.1 -6.6 8.75 -4.1 9.75 -0.35 7.85 3.0 6.9 4.65 5.35 5.8 7.35 7.55 8.1 10.35 9.1 14.1 7.25 17.45 5.25 20.75 1.5 21.75 L-0.05 22.05 -1.35 36.45 Q-3.85 38.8 -5.25 36.05 L-4.35 21.7 -4.6 21.45 Q-5.95 20.8 -7.05 19.8 -8.9 18.25 -9.7 15.9 L-9.95 15.15 Q-10.95 11.4 -9.0 8.1 -8.0 6.35 -6.55 5.25 -8.5 3.45 -9.25 0.75 -10.25 -3.0 -8.3 -6.35 -7.35 -7.95 -6.0 -9.05 -7.95 -10.75 -8.65 -13.5 -9.7 -17.35 -7.7 -20.85 -5.7 -24.3 -1.85 -25.3 L-0.7 -25.6 M6.4 -8.3 Q5.05 -7.2 3.15 -6.7 L1.8 -6.45 -1.7 -6.65 Q-2.95 -6.95 -4.15 -7.65 L-6.0 -9.05 M-6.55 5.25 L-4.9 6.4 Q-3.75 7.05 -2.45 7.4 L0.95 7.6 2.15 7.3 Q3.95 6.85 5.35 5.8 M-0.05 22.05 L-4.35 21.7" fill="none" stroke="#000000" stroke-linecap="round" stroke-linejoin="round" stroke-width="1.5"/>
  </g>
</svg>
