<?xml version="1.0" encoding="UTF-8" standalone="no"?>
<svg xmlns:xlink="http://www.w3.org/1999/xlink" height="58.05px" width="75.05px" xmlns="http://www.w3.org/2000/svg">
  <g transform="matrix(1.0, 0.0, 0.0, 1.0, 33.25, 28.6)">
    <path d="M29.4 6.85 L30.6 3.8 Q35.3 -9.25 40.05 -15.7 L41.75 -17.85 Q42.25 -5.95 35.35 10.75 30.75 26.45 23.3 29.25 23.3 28.45 22.8 29.45 9.95 20.4 1.05 18.85 -7.85 17.25 -16.05 17.65 -24.35 17.9 -26.65 15.1 L-26.8 14.5 -27.7 10.4 -27.35 13.5 Q-30.85 5.05 -31.75 -6.55 -34.15 -21.05 -32.75 -28.55 L-32.3 -28.6 -32.0 -27.55 Q-30.75 -24.15 -29.6 -19.65 -28.15 -13.75 -26.9 -6.0 -23.25 2.3 -14.95 4.15 -0.1 5.15 9.4 10.1 20.45 14.1 29.4 6.85" fill="#000000" fill-opacity="0.24705882" fill-rule="evenodd" stroke="none"/>
  </g>
</svg>
