<?xml version="1.0" encoding="UTF-8" standalone="no"?>
<svg xmlns:xlink="http://www.w3.org/1999/xlink" height="28.7px" width="20.25px" xmlns="http://www.w3.org/2000/svg">
  <g transform="matrix(1.0, 0.0, 0.0, 1.0, 10.1, 14.35)">
    <path d="M7.6 -11.15 Q6.25 -8.05 6.5 -4.45 L7.0 -3.0 7.9 -1.95 Q9.05 -0.85 9.6 0.75 10.2 2.5 10.15 4.7 10.0 9.0 6.35 12.0 1.55 15.7 -4.15 13.55 -6.95 12.25 -8.55 9.6 L-9.35 8.05 Q-10.85 4.15 -9.3 0.7 -7.75 -2.6 -5.7 -4.05 -4.15 -5.1 -2.5 -5.35 -1.4 -5.65 -0.25 -7.2 1.6 -9.5 2.15 -12.65 2.35 -13.5 2.85 -13.95 L3.3 -14.2 5.6 -14.1 Q6.85 -13.7 7.35 -13.05 7.95 -12.25 7.6 -11.15 M4.1 7.95 Q5.6 6.2 5.45 3.9 5.25 2.0 4.0 0.65 L3.5 0.2 Q1.75 -1.3 -0.6 -1.1 -2.9 -0.95 -4.4 0.8 -5.25 1.8 -5.6 2.95 L-5.7 4.8 Q-5.5 7.1 -3.8 8.55 -2.0 10.0 0.3 9.85 2.6 9.7 4.1 7.95" fill="#50f7fc" fill-rule="evenodd" stroke="none"/>
  </g>
</svg>
