<?xml version="1.0" encoding="UTF-8" standalone="no"?>
<svg xmlns:xlink="http://www.w3.org/1999/xlink" height="18.1px" width="47.0px" xmlns="http://www.w3.org/2000/svg">
  <g transform="matrix(1.0, 0.0, 0.0, 1.0, 10.7, 15.65)">
    <path d="M36.3 -3.55 L36.15 -2.75 Q35.3 0.3 32.8 0.4 L25.05 0.25 25.0 0.3 19.85 0.15 6.1 -0.55 2.95 -1.05 18.85 -6.45 36.3 -3.55 M1.95 -3.15 Q2.65 -4.0 2.55 -5.15 2.5 -6.2 1.65 -6.9 0.8 -7.65 -0.25 -7.55 L-0.45 -7.55 Q-1.45 -7.35 -2.1 -6.6 -2.8 -5.8 -2.7 -4.7 -2.6 -3.55 -1.8 -2.9 -0.95 -2.2 0.15 -2.3 L0.9 -2.4 Q1.5 -2.7 1.95 -3.15 M35.1 -13.0 L35.4 -12.3 -8.7 2.45 Q-8.5 1.55 -9.2 0.2 -9.8 -0.85 -10.5 -1.3 -8.1 -3.05 -7.3 -4.7 -8.35 -6.0 -10.7 -7.2 -10.05 -7.7 -9.65 -8.95 -9.2 -10.35 -9.55 -11.25 L1.6 -9.35 5.05 -10.45 Q9.9 -11.7 18.5 -13.35 L23.6 -14.3 23.7 -14.3 31.25 -15.6 Q33.8 -15.9 35.1 -13.0" fill="#cbd0e4" fill-rule="evenodd" stroke="none"/>
  </g>
</svg>
