<?xml version="1.0" encoding="UTF-8" standalone="no"?>
<svg xmlns:xlink="http://www.w3.org/1999/xlink" height="32.6px" width="31.9px" xmlns="http://www.w3.org/2000/svg">
  <g transform="matrix(1.0, 0.0, 0.0, 1.0, 15.95, 16.3)">
    <path d="M4.8 -16.3 L4.95 -16.3 6.4 -15.45 7.5 -14.05 8.7 -12.4 Q9.45 -11.55 10.5 -11.05 L12.7 -9.7 14.5 -8.1 15.7 -6.45 Q16.1 -5.35 15.85 -4.4 15.4 -3.4 15.5 -1.3 L15.7 2.55 15.95 4.75 15.95 6.55 Q15.85 8.0 14.75 8.65 L12.2 9.45 11.15 9.6 Q10.3 9.85 9.8 10.8 L8.95 12.85 8.2 14.85 Q7.6 15.8 6.9 15.9 L6.4 15.95 5.65 15.8 4.95 15.4 4.1 14.85 3.0 14.7 Q2.15 14.7 0.95 15.3 -0.9 16.3 -2.15 16.3 -3.35 16.3 -4.4 15.65 L-5.8 14.2 Q-6.4 13.7 -7.45 13.35 L-9.55 13.0 -11.75 12.55 Q-12.9 12.25 -13.15 11.45 L-13.3 10.2 -13.2 9.1 -13.15 7.75 Q-13.4 6.9 -14.15 6.1 -15.7 4.9 -15.95 3.3 -16.1 1.8 -15.1 0.35 -14.4 -0.7 -14.25 -1.95 L-14.15 -4.7 -14.25 -6.7 Q-14.25 -8.35 -13.05 -9.45 -12.3 -10.1 -10.15 -11.3 L-9.05 -11.8 -7.6 -12.9 -6.75 -14.1 -6.0 -15.2 -4.55 -15.9 -3.7 -16.0 -2.85 -15.9 -2.15 -15.65 -1.25 -15.3 -0.05 -15.05 0.1 -15.05 1.55 -15.3 2.95 -15.8 3.95 -16.15 4.8 -16.3 M-3.85 -6.7 L-3.8 -6.95 -3.85 -7.15 -4.3 -7.4 -5.55 -7.65 -6.15 -7.65 -6.25 -7.55 -6.4 -7.5 -6.4 -7.3 -6.25 -7.15 -6.1 -7.05 -5.55 -7.15 -4.55 -6.95 -4.2 -6.7 -4.1 -6.65 -3.85 -6.7 M-13.8 -0.1 L-13.65 -0.25 -12.6 -0.95 -12.05 -1.0 -11.95 -1.0 -11.75 -1.0 Q-11.6 -1.1 -11.6 -1.3 L-11.7 -1.45 -11.95 -1.6 -12.55 -1.45 -14.05 -0.6 -14.05 -0.35 -14.05 -0.25 -13.8 -0.1 M-11.75 -7.5 L-11.6 -8.1 -11.6 -8.25 -11.75 -8.4 -11.85 -8.4 -12.1 -8.35 -12.3 -7.65 Q-12.45 -6.9 -12.2 -6.05 L-12.1 -5.95 Q-12.05 -5.8 -11.85 -5.8 L-11.75 -5.85 -11.6 -5.95 -11.6 -6.1 -11.75 -7.5 M-2.85 -14.55 L-2.85 -14.6 -3.1 -14.7 -3.2 -14.7 -3.35 -14.55 -3.45 -14.35 Q-3.2 -13.6 -3.25 -13.0 L-3.45 -12.5 -3.45 -12.35 Q-3.45 -12.15 -3.25 -12.05 L-3.2 -12.05 Q-3.0 -12.05 -2.85 -12.25 L-2.7 -12.85 Q-2.5 -13.6 -2.85 -14.55 M7.45 10.0 L7.25 10.0 7.1 10.2 6.5 11.4 6.15 11.7 6.0 11.9 6.0 12.15 6.25 12.3 6.35 12.3 6.85 11.9 Q7.45 11.2 7.6 10.3 L7.6 10.1 7.45 10.0 M2.1 11.4 L2.1 11.55 2.85 12.75 2.85 13.25 2.95 13.5 3.1 13.6 3.2 13.6 3.35 13.5 3.45 13.35 3.35 12.65 Q3.2 11.9 2.5 11.2 L2.5 11.15 2.35 11.05 2.15 11.15 2.1 11.4 M0.4 8.05 L0.2 8.0 0.05 8.15 -1.0 9.0 -1.5 9.15 -1.65 9.25 -1.75 9.45 -1.65 9.7 -1.5 9.75 -0.8 9.6 0.45 8.4 0.45 8.15 0.4 8.05 M3.45 7.05 L3.2 7.2 3.2 7.45 3.45 8.05 4.65 9.15 4.8 9.15 4.8 9.25 5.05 9.1 5.05 8.9 4.95 8.65 Q4.3 8.3 3.95 7.8 L3.7 7.3 3.6 7.15 3.45 7.05 M7.1 5.35 L7.1 5.45 7.2 5.6 7.35 5.7 7.45 5.7 7.6 5.7 7.7 5.5 Q7.85 4.75 8.3 4.25 L8.7 3.9 8.9 3.8 8.9 3.55 Q8.7 3.4 8.55 3.4 L8.45 3.4 7.95 3.8 Q7.35 4.4 7.1 5.35 M10.6 8.05 L10.15 6.45 10.05 6.35 9.9 6.3 9.8 6.35 9.65 6.55 9.65 6.7 Q10.05 7.4 10.05 8.0 L10.05 8.5 10.05 8.75 10.15 8.9 10.3 8.9 10.6 8.75 10.6 8.05 M12.2 5.45 L12.35 5.5 12.45 5.5 13.05 5.25 14.25 4.05 14.3 4.0 14.3 3.8 14.25 3.65 14.05 3.65 Q13.9 3.65 13.8 3.8 L12.85 4.75 12.35 4.9 Q12.2 4.9 12.2 5.0 L12.1 5.25 12.2 5.45 M13.55 -1.2 L13.45 -1.2 13.3 -1.3 13.15 -1.2 13.05 -1.0 13.15 -0.85 13.7 0.4 13.7 0.95 13.8 1.1 14.0 1.25 14.25 1.2 14.25 1.0 14.25 0.35 Q14.15 -0.45 13.55 -1.2 M13.7 -4.85 L14.15 -4.7 14.25 -4.7 14.5 -4.95 14.5 -5.1 14.4 -5.2 14.15 -5.25 13.7 -5.35 Q12.85 -5.35 12.1 -4.85 L11.95 -4.85 11.95 -4.7 11.95 -4.5 Q12.0 -4.35 12.2 -4.35 L12.35 -4.4 13.7 -4.85 M8.3 -0.1 L8.1 -0.1 Q7.85 -0.1 7.85 0.1 L7.85 0.35 8.05 0.4 8.2 0.5 8.6 0.5 10.3 0.0 Q10.5 -0.1 10.5 -0.15 L10.4 -0.35 10.15 -0.5 10.05 -0.5 Q9.3 0.0 8.6 0.0 L8.3 -0.1 M8.35 -4.7 L8.3 -4.7 7.75 -4.25 Q7.2 -3.55 6.9 -2.65 L7.0 -2.45 7.1 -2.4 7.35 -2.4 7.5 -2.55 8.1 -3.75 8.45 -4.15 8.6 -4.25 8.6 -4.5 8.35 -4.7 M3.7 -5.35 L1.75 -5.85 0.65 -6.05 Q0.1 -6.1 -0.3 -6.4 L-1.15 -6.55 Q-1.75 -6.55 -2.4 -6.1 L-3.6 -5.35 -4.4 -4.75 -5.15 -4.25 -6.15 -3.25 -6.4 -1.8 -6.6 -0.75 -6.95 0.15 Q-7.35 0.95 -6.95 1.8 L-5.9 3.4 -5.25 4.35 -4.65 5.35 Q-4.4 6.1 -3.8 6.35 L-2.75 6.6 -2.25 6.55 -1.75 6.55 -0.4 6.8 0.4 7.05 1.5 6.6 2.65 5.85 3.6 5.1 Q4.2 4.65 4.7 4.5 L5.75 3.55 5.9 2.3 5.9 1.35 Q5.9 0.75 6.25 0.35 6.75 -0.35 6.6 -0.95 L5.9 -1.95 5.2 -2.8 4.8 -3.9 Q4.65 -4.85 3.7 -5.35 M4.45 -8.6 L4.3 -8.75 4.1 -8.65 4.05 -8.5 4.05 -8.35 4.35 -6.95 4.35 -6.45 4.35 -6.2 4.45 -6.1 4.55 -6.05 4.8 -6.2 4.95 -6.9 Q4.95 -7.65 4.55 -8.6 L4.45 -8.6 M0.45 -8.6 L0.55 -8.6 0.65 -8.65 0.7 -8.85 0.65 -9.0 0.45 -9.1 0.4 -9.1 -0.3 -9.0 -1.15 -9.1 -1.5 -9.25 -1.65 -9.45 -1.85 -9.25 -1.9 -9.1 -1.85 -8.85 -1.4 -8.65 -0.3 -8.4 0.45 -8.6 M10.05 -8.5 L10.05 -8.35 10.5 -6.95 10.4 -6.45 10.4 -6.2 10.6 -6.1 10.65 -6.05 Q10.85 -6.05 10.9 -6.2 L11.0 -6.9 Q11.0 -7.65 10.6 -8.6 L10.4 -8.75 10.25 -8.65 10.05 -8.5 M7.75 -11.65 L7.95 -11.65 8.05 -11.9 8.05 -12.05 7.75 -12.25 7.1 -12.05 6.9 -12.0 5.65 -11.3 5.65 -11.2 5.55 -11.05 5.65 -10.9 5.9 -10.7 6.0 -10.9 7.1 -11.55 7.6 -11.65 7.75 -11.65 M1.4 -13.35 L1.5 -13.35 2.6 -13.6 3.35 -13.45 3.5 -13.35 Q3.7 -13.35 3.7 -13.45 L3.8 -13.7 3.7 -13.85 3.35 -13.95 2.6 -14.1 1.3 -13.85 1.15 -13.7 1.15 -13.5 1.3 -13.45 1.4 -13.35 M-7.35 -11.8 L-7.5 -11.65 -7.85 -11.05 Q-8.1 -10.35 -7.85 -9.35 L-7.85 -9.25 -7.6 -9.1 -7.35 -9.25 -7.35 -9.5 -7.35 -10.9 -7.1 -11.3 -7.0 -11.55 -7.2 -11.65 -7.35 -11.8 M-1.3 13.25 L-1.25 13.1 -1.25 12.85 -1.4 12.75 -2.1 12.85 Q-2.85 13.1 -3.55 13.7 L-3.6 13.75 -3.7 13.95 -3.55 14.1 -3.45 14.2 Q-3.25 14.2 -3.2 14.1 L-2.15 13.4 -1.55 13.35 -1.5 13.35 -1.3 13.25 M-11.95 2.35 L-12.05 2.45 -12.1 2.7 -12.2 4.05 -12.45 4.5 -12.55 4.75 -12.45 4.9 -12.3 5.0 -12.05 4.9 -11.75 4.35 Q-11.45 3.55 -11.6 2.65 L-11.6 2.55 -11.7 2.45 Q-11.75 2.35 -11.95 2.35 M-8.7 11.2 L-8.95 11.05 Q-9.65 10.85 -10.15 10.45 L-10.4 10.0 -10.65 9.85 -10.85 9.85 -10.9 10.0 -10.9 10.3 -10.6 10.8 Q-10.0 11.4 -9.05 11.65 L-8.95 11.65 -8.8 11.55 -8.7 11.4 -8.7 11.2 M-9.5 6.8 Q-9.55 6.6 -9.65 6.7 L-10.35 6.9 Q-11.0 7.3 -11.5 8.15 L-11.6 8.15 -11.6 8.3 -11.45 8.5 -11.35 8.5 -11.1 8.4 Q-10.65 7.75 -10.05 7.45 L-9.65 7.2 -9.4 7.15 -9.3 6.9 Q-9.3 6.8 -9.5 6.8 M-5.15 8.85 L-5.4 8.9 -5.5 9.15 -5.3 9.35 Q-4.7 9.75 -4.4 10.3 L-4.2 10.8 -4.1 10.95 -3.95 11.05 -3.85 11.05 -3.7 10.95 -3.6 10.7 -3.85 10.1 Q-4.2 9.35 -5.05 8.85 L-5.15 8.85 M-5.5 6.1 L-5.4 6.05 -5.4 5.85 -5.55 5.7 -5.75 5.6 -5.9 5.7 -7.0 6.55 -7.5 6.6 Q-7.7 6.6 -7.7 6.7 L-7.85 6.9 -7.8 7.15 -7.6 7.15 -7.5 7.2 -6.75 7.05 -5.5 6.1 M-9.5 0.4 L-9.5 0.35 -9.65 0.35 -9.8 0.35 -9.9 0.5 -9.9 0.65 Q-9.3 1.35 -9.2 1.95 L-9.2 2.45 -9.15 2.7 -8.95 2.8 -8.7 2.7 -8.65 2.65 -8.65 1.95 Q-8.8 1.1 -9.5 0.4 M-9.75 -4.85 L-9.8 -4.85 -10.0 -4.7 -10.0 -4.5 -9.9 -4.35 -9.75 -4.25 -8.35 -3.9 -8.05 -3.55 -7.8 -3.5 -7.6 -3.55 -7.45 -3.75 -7.6 -4.0 -8.1 -4.4 -9.75 -4.85" fill="#2bb876" fill-rule="evenodd" stroke="none"/>
  </g>
</svg>
