<?xml version="1.0" encoding="UTF-8" standalone="no"?>
<svg xmlns:xlink="http://www.w3.org/1999/xlink" height="81.5px" width="80.4px" xmlns="http://www.w3.org/2000/svg">
  <g transform="matrix(1.0, 0.0, 0.0, 1.0, 40.2, 40.75)">
    <path d="M2.3 -9.1 Q2.45 -5.7 0.05 -3.15 -1.5 -1.45 -3.65 -0.85 L-5.65 -0.5 -6.85 -0.65 -8.5 -0.95 Q-10.15 -1.45 -11.5 -2.8 L-12.6 -3.9 Q-13.4 -5.05 -13.85 -6.35 L-14.15 -8.45 -14.15 -9.6 -14.05 -10.35 Q-13.6 -12.6 -11.95 -14.4 -10.3 -16.15 -8.2 -16.7 L-6.2 -17.05 -3.6 -16.7 Q-2.25 -16.35 -1.15 -15.55 L-0.3 -14.8 Q1.75 -12.9 2.15 -10.25 L2.3 -9.1 M18.0 -7.7 Q18.55 -10.05 19.7 -11.95 20.65 -13.25 21.95 -14.25 L22.1 -14.4 Q30.2 -12.65 40.2 -7.9 32.65 -1.7 24.75 2.35 L24.15 2.7 Q22.65 2.5 21.3 1.55 19.85 0.4 18.85 -1.5 L18.7 -1.85 Q18.1 -3.0 17.65 -4.55 L17.7 -5.4 18.0 -7.7 M22.9 9.05 Q26.4 16.1 27.7 22.9 L27.65 22.85 27.2 22.8 Q19.75 22.4 12.75 21.1 L15.65 18.9 17.0 17.6 17.7 16.85 19.8 14.35 Q21.7 11.85 22.9 9.05 M1.1 16.9 L-4.85 3.9 Q-2.05 3.9 2.1 7.9 3.55 13.15 1.1 16.9 M4.35 24.65 L4.3 24.75 Q-0.1 33.4 -5.6 40.75 L-5.8 40.4 -5.85 40.2 Q-10.7 30.75 -13.35 23.15 L-13.35 23.05 Q-12.85 21.3 -11.35 20.15 L-10.95 19.8 Q-9.85 19.1 -8.25 18.6 L-5.2 17.9 -2.5 18.6 Q-0.45 19.35 1.15 20.75 3.05 22.3 4.35 24.65 M-0.45 -40.75 Q3.6 -33.65 5.75 -27.55 L-0.45 -28.55 -2.95 -28.55 -4.7 -28.4 -6.3 -28.25 -7.9 -28.0 Q-5.05 -34.1 -0.85 -40.1 L-0.45 -40.7 -0.45 -40.75 M-25.3 -26.55 L-25.3 -26.6 Q-20.9 -26.05 -16.3 -24.65 -18.1 -23.5 -19.8 -22.0 L-21.1 -20.7 -21.8 -20.0 -22.4 -19.3 -23.8 -17.6 -25.2 -26.1 -25.3 -26.55 M-29.05 -2.0 L-29.05 -0.65 -29.0 0.0 -28.55 4.0 -27.4 7.9 Q-33.2 6.05 -40.15 3.05 L-40.2 3.05 Q-34.95 -1.45 -28.85 -5.4 L-29.05 -2.0 M-26.0 -8.9 L-25.4 -9.45 Q-22.95 -12.0 -18.85 -11.8 -15.65 -8.95 -15.9 -6.45 L-26.0 -8.9" fill="#37e247" fill-rule="evenodd" stroke="none"/>
  </g>
</svg>
