<?xml version="1.0" encoding="UTF-8" standalone="no"?>
<svg xmlns:xlink="http://www.w3.org/1999/xlink" height="46.5px" width="38.7px" xmlns="http://www.w3.org/2000/svg">
  <g transform="matrix(1.0, 0.0, 0.0, 1.0, 19.35, 23.25)">
    <path d="M13.2 -13.85 Q13.8 -14.9 14.4 -14.9 L14.65 -14.75 17.6 -14.2 Q18.75 -13.55 18.55 -12.35 L16.55 0.05 Q18.0 0.95 17.05 3.75 L13.2 18.1 12.65 20.25 Q11.85 22.15 8.1 22.5 L-8.05 22.5 Q-11.85 22.15 -12.65 20.25 L-13.2 18.1 -17.05 3.75 Q-18.0 0.95 -16.5 0.05 L-18.55 -12.35 Q-18.75 -13.55 -17.6 -14.2 L-14.7 -14.75 -14.4 -14.9 Q-13.85 -14.9 -13.2 -13.85 L-13.2 -15.3 Q-13.2 -17.15 -11.25 -17.1 L-9.25 -17.1 Q-8.4 -16.9 -8.0 -16.3 L-8.0 -16.95 Q-8.05 -19.15 -6.75 -19.4 L-3.9 -19.4 Q-3.1 -19.6 -2.55 -18.6 L-2.55 -19.05 Q-2.85 -22.5 -1.75 -22.5 L2.0 -22.5 Q2.9 -22.3 2.55 -19.05 L2.55 -18.6 Q3.1 -19.6 3.85 -19.4 L6.65 -19.4 Q8.1 -19.15 8.0 -16.95 L8.0 -16.3 Q8.45 -16.9 9.25 -17.1 L11.25 -17.1 Q13.25 -17.15 13.2 -15.3 L13.2 -13.85 13.15 -1.85 16.55 0.05 M13.15 -1.85 L9.45 -4.0 Q8.65 -4.6 8.0 -4.5 7.1 -4.35 6.65 -2.8 5.55 0.15 2.55 0.95 L0.0 1.15 -2.55 0.95 Q-5.55 0.15 -6.75 -2.8 -7.1 -4.35 -8.0 -4.5 -8.6 -4.6 -9.5 -4.0 L-13.15 -1.85 -16.5 0.05 M8.0 -4.5 L8.0 -16.3 M2.55 0.95 L2.55 -18.6 M-13.2 -13.85 L-13.15 -1.85 M-8.0 -16.3 L-8.0 -4.5 M-2.55 0.95 L-2.55 -18.6 M13.2 18.1 L-13.2 18.1" fill="none" stroke="#000000" stroke-linecap="round" stroke-linejoin="round" stroke-width="1.5"/>
  </g>
</svg>
