<?xml version="1.0" encoding="UTF-8" standalone="no"?>
<svg xmlns:xlink="http://www.w3.org/1999/xlink" height="58.25px" width="42.45px" xmlns="http://www.w3.org/2000/svg">
  <g transform="matrix(1.0, 0.0, 0.0, 1.0, 21.2, 29.15)">
    <path d="M2.5 -12.55 Q1.65 -15.2 0.65 -16.55 -3.15 -22.1 -9.4 -21.25 L-9.45 -21.25 -9.45 -21.3 Q-10.75 -23.95 -11.85 -24.35 -11.95 -23.55 -12.35 -22.7 -13.8 -20.9 -16.05 -20.55 L-17.9 -20.85 -15.95 -17.0 -16.4 -16.05 Q-18.75 -10.0 -13.55 -2.9 -4.35 -6.5 2.5 -12.55 L2.65 -9.1 Q2.7 -5.85 5.45 -2.25 9.3 0.4 11.5 2.9 L13.2 5.05 Q18.05 11.3 20.5 18.2 13.65 27.9 2.95 28.35 -1.3 22.35 -4.1 15.45 L-5.6 11.2 -5.55 11.45 -5.65 11.1 -5.6 11.15 -7.0 4.5 Q-9.0 -0.35 -13.55 -2.9 M-9.45 -21.3 L-9.4 -21.25 M-17.9 -20.85 L-18.7 -21.5 -20.45 -24.5 Q-18.35 -28.25 -13.7 -28.4 -11.85 -26.6 -11.85 -24.7 L-11.85 -24.35 M-5.6 11.15 L-5.6 11.2 M-4.1 15.45 Q5.65 12.4 13.2 5.05" fill="none" stroke="#000000" stroke-linecap="round" stroke-linejoin="round" stroke-width="1.5"/>
  </g>
</svg>
