<?xml version="1.0" encoding="UTF-8" standalone="no"?>
<svg xmlns:xlink="http://www.w3.org/1999/xlink" height="100.1px" width="36.15px" xmlns="http://www.w3.org/2000/svg">
  <g transform="matrix(1.0, 0.0, 0.0, 1.0, 18.1, 50.05)">
    <path d="M2.95 37.35 Q1.8 36.25 0.35 36.25 -1.15 36.35 -2.25 37.45 -3.3 38.55 -3.25 40.0 -3.2 41.5 -2.1 42.6 -1.05 43.7 0.5 43.6 1.95 43.6 3.05 42.5 4.1 41.45 4.1 39.9 4.05 38.45 2.95 37.35 M0.3 -32.2 Q7.1 -32.4 6.5 -35.25 L6.8 -50.05 Q18.75 -43.55 18.0 -31.65 17.05 -21.7 6.95 -15.7 L11.2 39.95 Q9.85 50.15 0.3 50.05 -8.3 48.65 -9.2 40.9 L-7.35 -15.35 Q-28.55 -32.5 -8.0 -49.7 L-7.5 -35.45 Q-6.55 -32.0 0.3 -32.2" fill="#b8b8b8" fill-rule="evenodd" stroke="none"/>
  </g>
</svg>
