<?xml version="1.0" encoding="UTF-8" standalone="no"?>
<svg xmlns:xlink="http://www.w3.org/1999/xlink" height="65.45px" width="70.25px" xmlns="http://www.w3.org/2000/svg">
  <g transform="matrix(1.0, 0.0, 0.0, 1.0, 35.1, 32.75)">
    <path d="M-19.15 -4.25 L-26.65 -14.45 Q-12.65 -25.5 3.4 -32.35 6.4 -33.6 8.75 -30.9 L34.25 3.8 Q36.15 6.8 34.0 9.3 22.65 22.6 8.0 32.7 L0.45 22.4 -9.1 29.4 Q-20.85 37.55 -31.35 25.15 -40.0 11.5 -28.75 2.7 L-19.15 -4.25 -17.0 -1.3 -26.95 5.9 Q-34.25 13.45 -28.35 23.05 -21.0 31.5 -11.7 26.7 L-7.05 23.35 -7.05 23.4 -1.8 19.55 0.45 22.4 9.2 16.0 7.05 13.05 -1.8 19.55 -17.0 -1.3 -8.25 -7.7 -10.4 -10.7 -19.15 -4.25 M6.1 4.3 L-0.2 -4.25 -6.15 0.15 0.15 8.65 6.1 4.3" fill="#b29f72" fill-rule="evenodd" stroke="none"/>
  </g>
</svg>
