<?xml version="1.0" encoding="UTF-8" standalone="no"?>
<svg xmlns:xlink="http://www.w3.org/1999/xlink" height="43.7px" width="35.35px" xmlns="http://www.w3.org/2000/svg">
  <g transform="matrix(1.0, 0.0, 0.0, 1.0, 17.65, 21.85)">
    <path d="M9.2 4.5 Q11.35 3.2 14.35 5.0 15.8 5.9 16.3 6.85 18.95 -3.5 11.0 -9.05 2.4 -14.75 6.0 -21.1 L5.1 -20.85 Q1.85 -19.95 -0.8 -16.6 L-1.05 -16.3 Q-4.6 -13.95 -7.2 -10.3 L-7.15 -10.3 -7.15 -10.25 -7.2 -10.2 -7.3 -10.15 -7.2 -10.3 Q-12.45 -9.85 -16.15 -1.05 -17.5 3.2 -15.5 5.1 -17.6 6.15 -16.55 9.1 L-10.6 21.1 -5.95 21.1 -0.25 21.1 6.1 21.1 10.1 21.1 16.25 8.8 Q16.8 7.8 16.3 6.85 M9.2 4.5 Q8.5 4.9 7.85 5.65 L7.9 5.4 Q6.85 3.4 4.85 3.0 L4.8 3.0 4.25 2.9 Q1.7 2.45 -0.45 5.2 -1.5 2.9 -4.9 2.7 -8.0 3.05 -8.5 5.65 -11.85 3.1 -15.2 4.95 L-15.5 5.1" fill="none" stroke="#000000" stroke-linecap="round" stroke-linejoin="round" stroke-width="1.5"/>
    <path d="M5.1 -20.85 Q-0.35 -14.3 -0.25 -9.8 0.25 -5.6 5.6 -2.3 8.8 0.0 9.2 4.5 M7.85 5.65 L6.1 21.1 M4.85 3.0 Q0.05 -0.85 -1.5 -4.2 -5.05 -10.65 -1.05 -16.3 M-7.2 -10.2 L-8.9 -7.65 Q-12.2 -0.9 -8.5 5.65 L-5.95 21.1 M-0.25 21.1 L-0.45 5.2" fill="none" stroke="#000000" stroke-linecap="round" stroke-linejoin="round" stroke-width="1.0"/>
  </g>
</svg>
