<?xml version="1.0" encoding="UTF-8" standalone="no"?>
<svg xmlns:xlink="http://www.w3.org/1999/xlink" height="45.15px" width="45.15px" xmlns="http://www.w3.org/2000/svg">
  <g transform="matrix(1.0, 0.0, 0.0, 1.0, 22.55, 22.6)">
    <path d="M8.95 -6.3 L21.85 3.85 6.25 7.9 -4.05 21.8 -8.4 5.9 -21.8 -4.35 -6.35 -9.9 3.45 -21.85 8.95 -6.3 M2.7 -2.7 Q3.5 -1.45 3.25 0.0 3.0 1.45 1.85 2.25 0.65 3.15 -0.8 2.9 -2.3 2.65 -3.15 1.45 -4.05 0.25 -3.8 -1.2 -3.55 -2.65 -2.3 -3.5 -1.15 -4.35 0.35 -4.1 1.8 -3.85 2.7 -2.7" fill="none" stroke="#000000" stroke-linecap="round" stroke-linejoin="round" stroke-width="1.5"/>
  </g>
</svg>
