<?xml version="1.0" encoding="UTF-8" standalone="no"?>
<svg xmlns:xlink="http://www.w3.org/1999/xlink" height="45.45px" width="46.9px" xmlns="http://www.w3.org/2000/svg">
  <g transform="matrix(1.0, 0.0, 0.0, 1.0, 23.45, 22.75)">
    <path d="M19.25 -2.55 L23.45 0.45 Q23.1 6.4 20.1 11.25 L14.35 11.25 7.3 16.7 5.5 22.05 0.0 22.7 -5.55 22.05 -7.3 16.7 -14.35 11.25 -20.1 11.25 Q-23.1 6.4 -23.45 0.45 L-19.2 -2.55 -16.5 -10.35 -18.4 -15.65 -16.5 -17.75 Q-13.3 -21.0 -9.35 -22.75 L-4.65 -19.3 4.65 -19.3 9.4 -22.75 Q13.3 -21.0 16.55 -17.75 L18.4 -15.65 16.55 -10.35 19.25 -2.55 M4.45 -6.65 L-4.45 -6.65 -4.6 -6.85 -7.35 1.8 0.0 6.7 7.4 1.8 4.6 -6.85 4.45 -6.65" fill="#ffffff" fill-rule="evenodd" stroke="none"/>
  </g>
</svg>
