<?xml version="1.0" encoding="UTF-8" standalone="no"?>
<svg xmlns:xlink="http://www.w3.org/1999/xlink" height="68.9px" width="53.35px" xmlns="http://www.w3.org/2000/svg">
  <g transform="matrix(1.0, 0.0, 0.0, 1.0, 26.7, 34.45)">
    <path d="M16.3 -28.25 Q16.6 -29.55 17.6 -30.45 19.0 -31.65 20.75 -31.6 22.6 -31.5 23.75 -30.1 24.95 -28.75 24.8 -27.0 24.65 -25.2 23.3 -24.0 22.25 -23.05 20.9 -22.9 L23.65 -19.75 25.9 -12.75 19.55 -16.5 22.6 -8.05 19.15 -9.65 Q16.35 -3.75 10.85 1.65 14.05 7.9 5.45 13.45 10.5 28.25 -2.05 33.7 L-6.4 19.65 -8.25 13.7 -9.9 14.15 Q-17.2 15.9 -21.35 13.2 -23.4 15.55 -25.05 13.75 -27.1 11.45 -24.5 9.7 -26.7 5.25 -24.05 -1.95 -22.45 -6.25 -19.5 -10.3 -16.4 -14.55 -11.85 -18.5 -4.25 -25.15 3.5 -27.65 L2.55 -30.85 9.85 -27.65 8.35 -33.7 13.95 -30.9 16.3 -28.25 20.9 -22.9 M-10.7 -7.25 Q-9.25 -6.2 -8.1 -4.7 L8.25 -19.05 4.85 -23.05 3.5 -27.65 M8.25 -19.05 L11.5 -15.4 14.4 -12.1 14.75 -11.75 19.15 -9.65 M19.55 -16.5 L9.85 -27.65 M10.85 1.65 L8.1 4.25 3.15 8.15 Q4.65 10.95 5.45 13.45 M-19.5 -10.3 Q-14.1 -9.75 -10.7 -7.25 M-6.4 19.65 Q-3.7 15.9 -2.85 11.7 -2.2 4.4 -4.8 -1.1 L-21.15 13.2 -21.35 13.2 M-24.5 9.7 L-8.1 -4.7 M3.15 8.15 Q0.2 10.25 -2.85 11.7 M11.5 -15.4 L-4.8 -1.1" fill="none" stroke="#000000" stroke-linecap="round" stroke-linejoin="round" stroke-width="1.5"/>
    <path d="M2.25 -19.45 L3.0 -19.2 3.25 -18.45 2.9 -17.8 Q2.6 -17.55 2.15 -17.55 L1.45 -17.85 Q1.15 -18.2 1.2 -18.55 L1.55 -19.25 Q1.9 -19.55 2.25 -19.45 M0.9 -0.75 Q1.25 -0.4 1.2 -0.05 L0.85 0.6 0.1 0.85 -0.55 0.5 -0.8 -0.25 -0.5 -0.85 0.3 -1.15 0.9 -0.75 M14.4 -12.1 L3.7 -2.7 M-10.7 -7.25 L-1.35 -15.5" fill="none" stroke="#000000" stroke-linecap="round" stroke-linejoin="round" stroke-width="1.0"/>
  </g>
</svg>
