<?xml version="1.0" encoding="UTF-8" standalone="no"?>
<svg xmlns:xlink="http://www.w3.org/1999/xlink" height="51.9px" width="40.8px" xmlns="http://www.w3.org/2000/svg">
  <g transform="matrix(1.0, 0.0, 0.0, 1.0, 20.4, 25.95)">
    <path d="M10.5 9.6 Q10.25 10.25 9.6 10.5 L8.4 10.4 Q7.8 10.1 7.55 9.45 7.3 8.8 7.5 8.15 7.8 7.5 8.4 7.3 L9.6 7.35 Q10.2 7.7 10.45 8.35 10.7 9.0 10.5 9.6 M4.35 15.75 Q4.1 16.45 3.45 16.7 L2.15 16.65 Q1.45 16.25 1.2 15.55 0.9 14.85 1.25 14.25 1.5 13.55 2.15 13.3 L3.45 13.35 Q4.1 13.65 4.4 14.35 4.65 15.05 4.35 15.75 M-7.3 10.7 Q-6.75 10.45 -6.25 10.7 -5.65 11.05 -5.45 11.6 -5.25 12.2 -5.45 12.7 -5.65 13.25 -6.2 13.5 L-7.3 13.45 Q-7.9 13.2 -8.1 12.6 -8.3 12.05 -8.1 11.45 -7.85 10.9 -7.3 10.7" fill="#000000" fill-opacity="0.4862745" fill-rule="evenodd" stroke="none"/>
    <path d="M-6.55 -12.45 L-1.7 -14.3 -3.25 -18.35 -15.4 -13.7 -11.8 -4.35 -13.45 8.4 Q-8.65 0.6 -1.8 3.9 5.4 7.3 10.55 -0.3 L0.35 -9.0 -4.5 -7.15 M10.55 -0.3 L14.05 2.7 Q19.65 6.8 19.65 10.9 19.6 14.5 16.15 16.05 L-6.8 24.9 Q-10.35 26.0 -12.8 23.35 -15.55 20.3 -14.15 13.55 L-13.45 8.4 M-15.4 -13.7 Q-18.55 -13.65 -19.45 -16.55 -20.35 -19.45 -17.5 -20.65 L-6.3 -24.95 Q-3.4 -25.95 -2.1 -23.2 -0.8 -20.45 -3.25 -18.35 M-1.7 -14.3 L0.35 -9.0" fill="none" stroke="#000000" stroke-linecap="round" stroke-linejoin="round" stroke-width="1.5"/>
  </g>
</svg>
