<?xml version="1.0" encoding="UTF-8" standalone="no"?>
<svg xmlns:xlink="http://www.w3.org/1999/xlink" height="57.7px" width="55.15px" xmlns="http://www.w3.org/2000/svg">
  <g transform="matrix(1.0, 0.0, 0.0, 1.0, 27.6, 28.85)">
    <path d="M3.9 -22.6 L15.75 -20.1 Q14.65 -15.45 21.45 -14.45 L22.85 15.05 Q24.5 15.45 25.7 16.7 27.5 18.35 27.55 20.9 27.55 23.35 25.85 25.15 24.1 26.9 21.65 26.9 19.2 26.9 17.35 25.2 15.65 23.4 15.65 20.95 L15.6 20.8 3.75 23.05 3.85 28.85 -3.7 28.85 -3.75 23.1 -15.65 21.1 -15.6 21.3 Q-15.6 23.75 -17.4 25.55 -19.1 27.3 -21.6 27.35 -24.05 27.35 -25.8 25.65 -27.6 23.9 -27.6 21.4 -27.65 18.9 -25.9 17.15 -24.7 15.95 -23.0 15.5 L-22.2 -14.0 Q-15.4 -15.1 -16.65 -19.85 L-4.8 -22.6 -4.9 -28.75 3.85 -28.85 3.9 -22.6 M2.55 -13.95 L4.1 15.6 16.25 15.45 12.75 -14.15 2.55 -13.95 M20.1 22.5 Q20.7 23.15 21.65 23.15 22.55 23.15 23.25 22.45 23.85 21.85 23.85 20.85 23.85 20.0 23.25 19.35 22.5 18.75 21.6 18.75 20.7 18.75 20.1 19.4 19.5 20.0 19.5 20.9 19.5 21.9 20.1 22.5 M-23.9 21.35 Q-23.9 22.3 -23.25 22.9 -22.6 23.6 -21.7 23.6 -20.75 23.6 -20.1 22.9 -19.5 22.25 -19.45 21.3 -19.5 20.4 -20.1 19.85 -20.8 19.15 -21.75 19.15 -22.6 19.15 -23.25 19.85 -23.9 20.45 -23.9 21.35 M-4.25 15.7 L-3.25 -13.85 -13.5 -13.9 -16.45 15.8 -4.25 15.7" fill="#f9d401" fill-rule="evenodd" stroke="none"/>
  </g>
</svg>
