<?xml version="1.0" encoding="UTF-8" standalone="no"?>
<svg xmlns:xlink="http://www.w3.org/1999/xlink" height="70.75px" width="74.05px" xmlns="http://www.w3.org/2000/svg">
  <g transform="matrix(1.0, 0.0, 0.0, 1.0, 37.0, 35.4)">
    <path d="M-0.65 25.9 L-0.9 25.25 Q-3.15 20.45 -1.0 18.7 L4.65 16.3 4.8 14.85 Q5.85 8.35 11.15 4.6 16.4 0.85 22.8 2.0 29.2 3.1 33.05 8.45 36.85 13.85 35.8 20.25 34.85 26.7 29.6 30.45 24.3 34.2 17.8 33.1 13.05 32.2 9.7 28.95 L4.25 30.9 Q1.1 31.75 -0.65 25.9 L-3.9 27.1 Q-3.65 28.05 -4.25 29.05 -4.9 30.15 -6.15 30.65 L-8.65 30.75 Q-9.85 30.3 -10.3 29.15 L-13.8 30.3 Q-13.45 31.4 -14.1 32.45 -14.75 33.55 -16.0 34.05 L-18.5 34.15 Q-19.75 33.7 -20.15 32.55 L-20.3 31.9 -23.5 31.2 Q-23.95 32.1 -25.1 32.35 L-27.6 32.15 Q-28.85 31.6 -29.35 30.45 -29.9 29.3 -29.45 28.2 L-29.0 27.5 -31.05 24.8 Q-32.0 25.5 -33.25 25.15 -34.45 24.8 -35.25 23.7 -36.1 22.6 -36.0 21.25 -35.85 20.0 -34.9 19.35 -34.35 18.95 -33.6 18.85 L-33.2 15.35 -33.5 15.25 Q-34.55 14.8 -34.95 13.55 -35.25 12.35 -34.65 11.1 -34.15 9.8 -33.0 9.25 L-30.75 9.2 -30.25 9.45 -27.7 6.55 -27.75 6.45 Q-28.15 5.45 -27.5 4.35 -26.95 3.2 -25.6 2.65 -24.3 2.2 -23.1 2.65 -22.15 3.05 -21.6 3.75 L-18.35 1.8 Q-23.35 -0.05 -23.1 -2.85 L-20.8 -8.5 -21.8 -9.65 Q-25.55 -14.95 -24.5 -21.4 -23.4 -27.7 -18.15 -31.4 -12.8 -35.25 -6.25 -34.15 0.25 -33.05 4.05 -27.75 7.85 -22.5 6.8 -16.15 5.75 -9.75 0.4 -6.0 -3.65 -3.2 -8.35 -3.1 L-10.8 2.1 Q-12.45 5.0 -18.35 1.8 M-7.4 -28.6 Q-3.3 -27.95 -0.9 -24.6 1.5 -21.35 0.9 -17.35 0.2 -13.35 -3.2 -10.95 -6.55 -8.65 -10.6 -9.35 -14.7 -10.0 -17.1 -13.3 -19.5 -16.6 -18.8 -20.65 -18.1 -24.65 -14.8 -26.95 -11.5 -29.3 -7.4 -28.6 M-16.75 -1.15 L-15.35 -4.55 Q-18.4 -5.8 -20.65 -8.3 L-20.8 -8.5 M-8.35 -3.1 L-11.45 -3.35 Q-13.55 -3.7 -15.35 -4.55 M-21.6 3.75 L-21.5 4.15 Q-21.05 5.3 -21.7 6.4 -22.35 7.5 -23.6 7.95 L-26.1 8.05 Q-27.25 7.6 -27.7 6.55 M-30.25 9.45 Q-29.55 10.0 -29.35 10.95 -29.0 12.15 -29.55 13.4 -30.1 14.7 -31.25 15.25 L-33.2 15.35 M-33.6 18.85 L-32.7 19.0 Q-31.45 19.3 -30.65 20.45 -29.9 21.55 -30.0 22.85 -30.1 24.15 -31.05 24.8 M-29.0 27.5 Q-28.5 27.0 -27.7 26.8 L-25.2 27.05 Q-24.1 27.6 -23.45 28.75 -22.9 29.95 -23.4 31.0 L-23.5 31.2 M-10.3 29.15 Q-10.65 28.1 -10.05 26.95 -9.45 25.85 -8.15 25.35 L-5.65 25.3 Q-4.4 25.8 -4.0 26.85 L-3.9 27.1 M-20.3 31.9 Q-20.35 31.2 -19.9 30.4 -19.3 29.25 -17.95 28.75 -16.7 28.3 -15.5 28.75 -14.25 29.2 -13.9 30.2 L-13.8 30.3 M28.4 11.6 Q30.8 14.95 30.15 18.95 29.5 23.05 26.2 25.4 22.9 27.75 18.8 27.05 14.85 26.3 12.45 22.95 10.05 19.55 10.6 15.6 11.3 11.55 14.6 9.2 17.9 6.85 21.95 7.5 26.0 8.2 28.4 11.6 M2.35 24.4 L5.7 22.95 Q4.5 19.95 4.65 16.55 L4.65 16.3 M9.7 28.95 L7.65 26.55 Q6.4 24.85 5.7 22.95" fill="none" stroke="#000000" stroke-linecap="round" stroke-linejoin="round" stroke-width="2.0"/>
  </g>
</svg>
