<?xml version="1.0" encoding="UTF-8" standalone="no"?>
<svg xmlns:xlink="http://www.w3.org/1999/xlink" height="106.3px" width="82.8px" xmlns="http://www.w3.org/2000/svg">
  <g transform="matrix(1.0, 0.0, 0.0, 1.0, 41.4, 53.15)">
    <path d="M37.3 -26.55 Q35.3 -25.1 33.2 -23.9 36.1 15.65 11.35 50.5 L15.1 52.15 Q40.45 16.3 37.3 -26.55 L40.4 -28.95 Q33.0 -43.6 11.1 -50.7 -12.25 -55.95 -40.4 -42.05 L-29.4 -35.05 Q-15.1 -25.4 -4.25 -21.05 15.3 -13.25 33.2 -23.9" fill="none" stroke="#000000" stroke-linecap="round" stroke-linejoin="round" stroke-width="2.0"/>
    <path d="M-4.35 -49.1 Q17.25 -44.75 22.6 -36.35 26.6 -34.95 30.3 -33.15 M-18.6 -46.05 Q-9.9 -47.35 -4.95 -42.15 8.8 -40.9 20.15 -37.2 L22.6 -36.35 M-29.15 -42.5 Q-16.95 -43.15 -6.15 -42.25 L-4.95 -42.15 M-18.15 -36.2 L-6.15 -42.25 M-3.15 -34.35 Q5.5 -36.6 20.15 -37.2" fill="none" stroke="#000000" stroke-linecap="round" stroke-linejoin="round" stroke-opacity="0.4392157" stroke-width="1.5"/>
  </g>
</svg>
