<?xml version="1.0" encoding="UTF-8" standalone="no"?>
<svg xmlns:xlink="http://www.w3.org/1999/xlink" height="46.5px" width="49.0px" xmlns="http://www.w3.org/2000/svg">
  <g transform="matrix(1.0, 0.0, 0.0, 1.0, 24.5, 23.25)">
    <path d="M-3.2 -17.6 L-4.8 -16.8 -6.3 -16.0 -6.65 -15.8 -7.6 -15.2 Q-10.95 -13.1 -13.1 -11.0 -15.2 -8.85 -15.05 -7.7 L-14.9 -7.35 Q-14.2 -6.15 -10.8 -7.05 -7.35 -8.0 -3.1 -10.45 1.15 -12.9 3.65 -15.4 6.2 -17.95 5.5 -19.15 L4.8 -19.65 4.7 -19.8 Q4.25 -20.6 0.9 -19.4 L-3.2 -17.6 M7.5 -22.4 L24.25 6.65 Q26.0 12.0 14.5 18.6 0.45 26.1 -2.6 21.5 L-3.45 20.05 Q-10.5 19.7 -15.65 18.6 -17.85 18.15 -21.2 11.9 L-24.05 6.95 Q-25.45 4.05 -22.35 2.55 L-15.75 -1.25 -19.0 -6.9 Q-19.7 -8.8 -16.8 -12.05 -13.7 -15.65 -8.15 -18.85 -2.65 -22.05 2.05 -22.95 6.1 -23.75 7.5 -22.4 M-12.85 3.75 L-17.6 6.45 -13.95 12.8 -7.1 13.7 -12.85 3.75" fill="#ffffff" fill-rule="evenodd" stroke="none"/>
    <path d="M4.8 -19.65 L1.35 -19.35 Q-0.8 -18.8 -3.2 -17.6 L0.9 -19.4 Q4.25 -20.6 4.7 -19.8 L4.8 -19.65" fill="#c4fffa" fill-rule="evenodd" stroke="none"/>
  </g>
</svg>
