<?xml version="1.0" encoding="UTF-8" standalone="no"?>
<svg xmlns:xlink="http://www.w3.org/1999/xlink" height="38.1px" width="41.4px" xmlns="http://www.w3.org/2000/svg">
  <g transform="matrix(1.0, 0.0, 0.0, 1.0, 20.7, 19.05)">
    <path d="M-6.95 -5.85 Q-6.15 -13.05 0.05 -13.15 6.25 -13.25 7.25 -18.05 12.6 -16.15 12.5 -10.15 12.05 -5.5 7.75 -4.5 L10.45 -4.25 Q18.6 -3.45 16.6 4.35 20.05 6.2 19.65 11.25 18.6 18.4 11.35 18.05 L-11.2 16.0 Q-19.15 15.05 -19.7 8.85 -19.6 2.5 -15.05 1.25 -14.25 -6.7 -6.95 -5.85 L-6.45 -5.8 -2.6 -5.45 M7.75 -4.5 L1.7 -5.05 M16.6 4.35 Q15.2 3.55 13.15 3.35 L6.75 2.75 M-15.05 1.25 L-12.7 1.0 -3.0 1.85" fill="none" stroke="#000000" stroke-linecap="round" stroke-linejoin="round" stroke-width="2.0"/>
  </g>
</svg>
