<?xml version="1.0" encoding="UTF-8" standalone="no"?>
<svg xmlns:xlink="http://www.w3.org/1999/xlink" height="60.95px" width="40.3px" xmlns="http://www.w3.org/2000/svg">
  <g transform="matrix(1.0, 0.0, 0.0, 1.0, 20.15, 30.5)">
    <path d="M-0.6 -21.9 L1.1 -30.5 Q1.55 -29.9 4.0 -29.65 L6.95 -29.8 5.35 -21.05 3.4 -10.85 Q8.7 -10.1 13.55 -8.7 18.35 -7.3 18.6 -6.2 L18.95 -6.35 Q19.65 -6.2 20.0 -4.8 20.45 -3.2 19.6 -2.7 L17.95 -2.05 9.55 26.5 Q6.3 30.6 -1.5 30.45 -10.75 29.9 -12.9 26.35 L-18.55 -3.7 -19.7 -4.5 Q-20.3 -5.0 -20.1 -6.25 -19.85 -7.65 -19.2 -8.05 L-18.65 -7.95 Q-17.55 -9.2 -12.0 -10.25 L-2.65 -11.2 -0.6 -21.9" fill="#ff99ff" fill-rule="evenodd" stroke="none"/>
    <path d="M5.35 -21.05 L7.0 -20.45 7.8 -20.05 Q11.2 -18.6 13.9 -16.1 17.95 -11.6 18.6 -6.2 18.35 -7.3 13.55 -8.7 8.7 -10.1 3.4 -10.85 L5.35 -21.05 M-18.65 -7.95 Q-17.25 -14.35 -11.55 -18.4 -8.05 -20.6 -4.0 -21.4 L-3.4 -21.5 -0.6 -21.9 -2.65 -11.2 -12.0 -10.25 Q-17.55 -9.2 -18.65 -7.95" fill="#ff99ff" fill-opacity="0.2784314" fill-rule="evenodd" stroke="none"/>
  </g>
</svg>
