<?xml version="1.0" encoding="UTF-8" standalone="no"?>
<svg xmlns:xlink="http://www.w3.org/1999/xlink" height="21.9px" width="20.5px" xmlns="http://www.w3.org/2000/svg">
  <g transform="matrix(1.0, 0.0, 0.0, 1.0, -9.25, 40.85)">
    <path d="M17.6 -21.9 Q18.4 -23.55 20.7 -25.35 L25.3 -28.1 Q27.65 -29.2 28.85 -28.55 30.2 -27.9 29.5 -26.35 28.75 -24.75 26.45 -23.1 24.2 -21.25 21.75 -19.85 19.15 -18.35 18.0 -19.3 16.8 -20.2 17.6 -21.9 M12.15 -36.7 Q14.2 -38.35 15.8 -39.3 L19.0 -40.75 Q20.7 -41.25 20.35 -39.2 19.9 -37.15 17.7 -35.45 15.45 -33.7 13.15 -32.65 10.9 -31.6 9.85 -31.85 8.85 -32.05 9.5 -33.6 10.25 -34.9 12.15 -36.7 M10.85 -25.6 Q10.75 -27.4 12.05 -27.7 13.75 -26.75 13.2 -24.8 11.4 -24.5 10.85 -25.6" fill="#000000" fill-rule="evenodd" stroke="none"/>
  </g>
</svg>
