<?xml version="1.0" encoding="UTF-8" standalone="no"?>
<svg xmlns:xlink="http://www.w3.org/1999/xlink" height="66.15px" width="29.65px" xmlns="http://www.w3.org/2000/svg">
  <g transform="matrix(1.0, 0.0, 0.0, 1.0, 14.85, 33.1)">
    <path d="M12.65 -22.4 L14.1 -22.9 14.35 -20.4 13.05 -19.8 13.2 -17.4 14.35 -17.8 14.8 -14.55 12.95 -13.9 13.1 -11.35 14.5 -11.75 14.45 -9.25 13.35 -8.9 13.5 -6.15 14.5 -6.45 14.6 -4.0 13.4 -3.55 13.4 -0.7 14.45 -1.1 14.5 1.75 13.5 2.15 13.45 4.8 14.75 4.4 Q13.7 9.45 9.95 10.65 6.8 11.75 3.65 12.1 L3.8 16.7 5.4 16.75 5.65 18.6 Q6.0 21.95 4.0 22.75 0.65 23.6 -0.45 22.75 -2.25 22.7 -3.15 19.15 L-3.5 17.2 -0.75 16.85 -1.0 12.2 Q-4.2 12.0 -7.45 11.05 -12.1 9.85 -13.0 4.4 L-11.7 4.8 -11.95 1.9 -13.3 1.45 -13.85 -1.55 -12.1 -1.1 -12.1 -3.7 -14.2 -4.5 -14.2 -7.4 -12.9 -6.9 -12.9 -9.55 -14.4 -10.1 -14.25 -12.45 -13.2 -12.15 -13.35 -14.9 -14.85 -15.4 -14.65 -18.0 -13.6 -17.7 -13.7 -20.6 -14.85 -21.0 -14.8 -23.8 -13.15 -23.1 -13.3 -26.2 Q-14.1 -26.5 -14.75 -26.9 -13.2 -30.75 -7.25 -32.35 -1.35 -33.95 6.35 -32.15 14.05 -30.35 14.4 -25.75 L12.55 -25.1 12.65 -22.4 M3.7 32.8 L0.1 33.0 Q-2.45 32.65 -5.6 30.75 -6.8 27.1 -6.4 23.4 L-6.35 23.4 Q-5.35 25.2 -4.4 25.85 -2.2 27.1 1.0 27.1 4.25 27.1 6.65 25.8 8.7 24.6 9.25 23.1 L9.35 22.5 9.4 22.3 Q9.9 26.05 9.25 29.3 6.65 32.15 3.7 32.8" fill="#f65e6d" fill-rule="evenodd" stroke="none"/>
  </g>
</svg>
