<?xml version="1.0" encoding="UTF-8" standalone="no"?>
<svg xmlns:xlink="http://www.w3.org/1999/xlink" height="171.95px" width="46.8px" xmlns="http://www.w3.org/2000/svg">
  <g transform="matrix(1.0, 0.0, 0.0, 1.0, 23.4, 85.95)">
    <path d="M3.3 -81.45 Q2.75 -79.95 0.7 -78.75 -1.7 -77.45 -4.95 -77.45 -8.15 -77.45 -10.35 -78.7 -11.3 -79.35 -12.3 -81.15 L-12.25 -81.95 Q-12.0 -83.8 -9.6 -85.1 L-9.1 -85.4 Q-8.2 -81.85 -6.4 -81.8 -5.3 -80.95 -1.95 -81.8 0.05 -82.6 -0.3 -85.95 0.7 -85.7 1.5 -85.15 3.4 -84.05 3.45 -82.5 L3.3 -81.45 M-5.85 -71.55 L-2.25 -71.75 2.1 61.4 Q7.35 61.55 12.3 62.85 20.4 65.0 22.55 69.15 23.4 70.6 23.25 72.05 L23.4 76.9 Q18.05 84.65 0.25 86.0 -15.8 86.15 -22.8 79.2 -24.0 74.95 -22.75 71.85 -22.8 68.95 -19.3 66.4 -14.25 62.75 -5.1 61.7 L-1.9 61.45 -5.85 -71.55" fill="#33ccff" fill-rule="evenodd" stroke="none"/>
  </g>
</svg>
