<?xml version="1.0" encoding="UTF-8" standalone="no"?>
<svg xmlns:xlink="http://www.w3.org/1999/xlink" height="225.15px" width="48.3px" xmlns="http://www.w3.org/2000/svg">
  <g transform="matrix(1.0, 0.0, 0.0, 1.0, 24.15, 112.6)">
    <path d="M6.7 -101.15 L8.15 -101.65 8.4 -99.15 7.1 -98.55 7.25 -96.15 8.4 -96.55 8.85 -93.3 7.0 -92.65 7.15 -90.1 8.55 -90.5 8.5 -88.0 7.4 -87.65 7.55 -84.9 8.55 -85.2 8.65 -82.75 7.45 -82.3 7.45 -79.45 8.5 -79.85 8.55 -77.0 Q8.1 -76.75 7.55 -76.6 L7.5 -73.95 8.8 -74.35 Q7.75 -69.3 4.0 -68.1 0.85 -67.0 -2.3 -66.65 L-2.15 -62.05 -0.55 -62.0 -0.3 -60.15 Q0.7 -59.9 1.5 -59.35 3.4 -58.25 3.45 -56.7 L3.45 -56.45 Q3.95 -52.7 3.3 -49.45 0.7 -46.6 -2.25 -45.95 L2.1 87.2 Q7.35 87.35 12.3 88.65 20.4 90.8 22.55 94.95 23.4 96.4 23.25 97.85 L23.4 102.7 Q18.05 110.45 0.25 111.8 -15.8 111.95 -22.8 105.0 -24.0 100.75 -22.75 97.65 -22.8 94.75 -19.3 92.2 -14.25 88.55 -5.1 87.5 L-1.9 87.25 -5.85 -45.75 Q-8.4 -46.1 -11.55 -48.0 -12.75 -51.65 -12.35 -55.35 L-12.3 -55.35 -12.25 -56.15 Q-12.0 -58.0 -9.6 -59.3 L-9.1 -59.6 -9.45 -61.55 -6.7 -61.9 -6.95 -66.55 Q-10.15 -66.75 -13.4 -67.7 -18.05 -68.9 -18.95 -74.35 L-17.65 -73.95 -17.9 -76.85 -19.25 -77.3 -19.8 -80.3 -18.05 -79.85 -18.05 -82.45 -20.15 -83.25 -20.15 -86.15 -18.85 -85.65 -18.85 -88.3 -20.35 -88.85 -20.2 -91.2 -19.15 -90.9 -19.3 -93.65 -20.8 -94.15 -20.6 -96.75 -19.55 -96.45 -19.65 -99.35 -20.8 -99.75 -20.75 -102.55 -19.1 -101.85 -19.25 -104.95 -20.7 -105.65 Q-19.15 -109.5 -13.2 -111.1 -7.3 -112.7 0.4 -110.9 8.1 -109.1 8.45 -104.5 L6.6 -103.85 6.7 -101.15 Q1.3 -99.4 -4.1 -99.8 L-4.0 -102.3 Q1.7 -102.3 6.6 -103.85 M3.45 -56.7 L3.3 -55.65 3.4 -56.25 3.45 -56.45 M3.3 -55.65 Q2.75 -54.15 0.7 -52.95 -1.7 -51.65 -4.95 -51.65 -8.15 -51.65 -10.35 -52.9 -11.3 -53.55 -12.3 -55.35 M-1.9 87.25 L-1.7 92.75 Q0.45 94.5 2.2 93.2 L2.1 87.2 M23.25 97.85 Q22.95 100.35 19.75 102.65 14.8 106.3 5.55 107.3 -3.65 108.3 -11.75 106.15 -19.85 103.95 -22.1 99.9 -22.7 98.7 -22.75 97.65 M-19.1 -101.85 Q-13.85 -99.75 -7.25 -99.4 L-7.4 -102.55 Q-13.7 -102.35 -19.25 -104.95 M-19.55 -96.45 Q-13.45 -94.45 -7.45 -94.35 L-7.45 -96.8 Q-14.25 -97.35 -19.65 -99.35 M7.0 -92.65 Q2.5 -91.25 -3.65 -90.95 L-3.55 -88.6 Q2.3 -88.8 7.15 -90.1 M7.1 -98.55 Q2.25 -96.55 -3.9 -96.6 L-4.15 -94.05 Q1.75 -94.25 7.25 -96.15 M-19.15 -90.9 Q-13.0 -89.0 -7.75 -88.5 L-8.0 -91.25 Q-14.0 -91.95 -19.3 -93.65 M-18.85 -85.65 Q-13.4 -83.5 -7.15 -83.4 L-7.1 -86.05 Q-13.65 -86.4 -18.85 -88.3 M7.4 -87.65 Q1.9 -86.05 -3.55 -86.15 L-3.75 -83.35 Q2.75 -83.45 7.55 -84.9 M7.45 -82.3 Q2.65 -80.7 -3.15 -80.6 L-3.1 -77.7 Q3.05 -77.8 7.45 -79.45 M-18.05 -79.85 Q-11.35 -78.1 -6.9 -78.1 L-7.15 -80.75 Q-13.25 -80.9 -18.05 -82.45 M-17.65 -73.95 Q-12.05 -72.25 -6.6 -72.4 L-6.8 -74.85 Q-12.6 -75.25 -17.9 -76.85 M-2.3 -66.65 L-6.95 -66.55 M-0.3 -60.15 Q0.05 -56.8 -1.95 -56.0 -5.3 -55.15 -6.4 -56.0 -8.2 -56.05 -9.1 -59.6 M-1.95 -56.0 L-2.15 -62.05 M-6.4 -56.0 L-6.7 -61.9 M7.55 -76.6 Q3.1 -75.0 -2.85 -74.8 L-2.65 -72.25 Q2.7 -72.35 7.5 -73.95 M-5.85 -45.75 L-2.25 -45.95" fill="none" stroke="#000000" stroke-linecap="round" stroke-linejoin="round" stroke-width="1.5"/>
  </g>
</svg>
