<?xml version="1.0" encoding="UTF-8" standalone="no"?>
<svg xmlns:xlink="http://www.w3.org/1999/xlink" height="140.1px" width="64.45px" xmlns="http://www.w3.org/2000/svg">
  <g transform="matrix(1.0, 0.0, 0.0, 1.0, 32.25, 70.05)">
    <path d="M18.6 -60.25 Q18.95 -50.1 20.55 -40.8 L21.05 -38.2 Q1.7 -23.05 -21.4 -37.25 L-20.9 -40.8 Q-19.7 -49.95 -19.95 -60.25 -20.85 -62.35 -19.05 -64.6 -16.6 -67.6 -10.5 -69.3 -11.25 -64.9 -12.15 -60.6 -1.0 -54.25 10.55 -61.75 L8.55 -70.05 Q14.5 -68.95 17.4 -66.4 20.75 -63.45 18.6 -60.25 M24.7 -23.95 Q27.7 -14.6 32.2 -6.3 20.0 0.1 8.65 2.05 L-7.0 2.65 Q-20.3 1.3 -32.25 -6.8 -27.45 -14.6 -24.55 -23.9 -1.75 -9.95 24.7 -23.95 M10.15 29.55 Q7.15 35.2 6.1 45.15 4.95 55.3 5.85 68.9 1.85 71.2 -1.3 68.9 -1.0 57.15 -2.85 45.9 -4.7 34.65 -7.2 29.8 L-7.45 29.4 Q-8.15 27.65 -6.05 26.25 -4.55 25.2 -2.25 24.75 L-2.25 28.25 Q0.05 31.1 4.75 28.75 L4.75 24.7 6.4 25.1 Q9.55 26.0 10.25 27.7 L10.4 28.9 10.25 29.3 10.15 29.55" fill="#33ccff" fill-rule="evenodd" stroke="none"/>
  </g>
</svg>
