<?xml version="1.0" encoding="UTF-8" standalone="no"?>
<svg xmlns:xlink="http://www.w3.org/1999/xlink" height="34.2px" width="27.55px" xmlns="http://www.w3.org/2000/svg">
  <g transform="matrix(1.0, 0.0, 0.0, 1.0, 13.8, 17.1)">
    <path d="M3.55 -16.9 L4.75 -17.05 5.8 -16.3 Q6.05 -15.7 5.9 -15.0 5.75 -14.35 5.2 -14.1 4.6 -13.7 3.95 -13.85 3.25 -14.05 2.95 -14.7 2.6 -15.25 2.75 -15.9 2.95 -16.55 3.55 -16.9 M0.95 -12.8 Q0.8 -12.2 0.25 -11.9 L-0.85 -11.8 -1.8 -12.45 Q-2.05 -13.0 -1.9 -13.6 -1.75 -14.2 -1.25 -14.45 L-0.1 -14.65 Q0.45 -14.45 0.8 -13.9 1.1 -13.45 0.95 -12.8 M6.0 -9.2 L4.95 -9.9 Q4.7 -10.5 4.85 -11.2 5.0 -11.85 5.55 -12.1 L6.85 -12.3 Q7.5 -12.1 7.8 -11.55 L7.95 -10.3 Q7.75 -9.65 7.2 -9.35 L6.0 -9.2 M2.35 -9.85 Q3.0 -9.7 3.4 -9.15 L3.55 -7.95 Q3.4 -7.3 2.75 -6.9 L1.5 -6.75 Q0.85 -6.9 0.5 -7.5 0.25 -8.1 0.4 -8.75 0.6 -9.35 1.1 -9.75 L2.35 -9.85 M7.1 -5.9 Q8.7 -6.85 10.45 -6.35 12.2 -5.85 13.15 -4.25 14.1 -2.7 13.6 -0.95 13.15 0.85 11.55 1.8 9.95 2.65 8.2 2.15 6.45 1.65 5.5 0.15 4.6 -1.45 5.0 -3.25 5.5 -5.05 7.1 -5.9 M0.95 10.85 L1.75 8.65 4.0 9.45 4.8 7.3 7.1 8.1 6.3 10.3 8.6 11.15 7.75 13.5 5.2 12.55 4.4 14.6 2.15 13.75 3.0 11.55 0.95 10.85 M-4.15 -11.75 L-3.15 -10.85 Q-2.85 -10.3 -3.05 -9.9 -3.25 -9.6 -3.95 -9.55 -4.55 -9.6 -5.2 -10.0 L-6.2 -10.95 Q-6.5 -11.5 -6.3 -11.85 -6.05 -12.2 -5.5 -12.15 -4.85 -12.15 -4.15 -11.75 M-2.4 10.5 Q-1.45 12.1 -1.95 13.8 -2.4 15.55 -4.0 16.5 -5.5 17.4 -7.3 16.95 -9.0 16.45 -9.9 14.9 -10.8 13.3 -10.35 11.55 -9.85 9.85 -8.3 8.9 -6.75 8.05 -5.05 8.55 -3.25 9.0 -2.4 10.5 M-13.7 5.15 Q-13.5 4.7 -12.9 4.75 -12.2 4.75 -11.55 5.2 L-10.55 6.1 Q-10.25 6.6 -10.45 7.0 -10.7 7.35 -11.3 7.4 -11.9 7.35 -12.55 6.95 L-13.6 6.0 Q-13.9 5.45 -13.7 5.15" fill="#67646f" fill-rule="evenodd" stroke="none"/>
  </g>
</svg>
