<?xml version="1.0" encoding="UTF-8" standalone="no"?>
<svg xmlns:xlink="http://www.w3.org/1999/xlink" height="77.45px" width="60.25px" xmlns="http://www.w3.org/2000/svg">
  <g transform="matrix(1.0, 0.0, 0.0, 1.0, 29.15, 48.3)">
    <path d="M17.55 -44.95 Q19.6 -47.2 22.6 -47.65 23.05 -44.3 22.3 -41.05 20.1 -43.6 17.55 -44.95 M-3.2 -34.15 Q-3.75 -35.6 -2.45 -36.0 -1.5 -36.05 -0.65 -34.95 0.0 -36.1 1.1 -35.9 2.25 -35.7 1.8 -34.3 1.0 -32.55 -0.25 -31.25 -2.1 -32.5 -3.2 -34.15 M18.4 2.2 Q15.3 0.35 13.8 -4.9 21.2 -8.9 28.1 -5.9 27.5 0.6 24.65 2.5 23.4 3.35 21.7 3.3 19.85 3.1 18.4 2.2 M24.7 25.9 L26.45 23.75 Q28.8 20.8 30.45 22.2 31.95 23.85 29.9 27.3 L28.45 29.15 Q25.45 28.35 24.7 25.9 M-20.85 -48.3 Q-18.75 -47.9 -16.15 -45.8 L-20.3 -43.2 Q-21.95 -45.8 -20.85 -48.3 M-15.1 -5.6 Q-17.1 -0.3 -19.55 1.55 -21.2 2.85 -23.05 2.65 -24.8 2.4 -26.05 1.3 -28.75 -0.8 -29.15 -6.45 -21.4 -9.25 -15.1 -5.6" fill="#ffffff" fill-rule="evenodd" stroke="none"/>
  </g>
</svg>
