<?xml version="1.0" encoding="UTF-8" standalone="no"?>
<svg xmlns:xlink="http://www.w3.org/1999/xlink" height="35.1px" width="26.6px" xmlns="http://www.w3.org/2000/svg">
  <g transform="matrix(1.0, 0.0, 0.0, 1.0, 13.3, 17.55)">
    <path d="M0.65 -13.35 Q0.45 -12.75 -0.1 -12.4 L-1.25 -12.35 -2.2 -13.1 Q-2.45 -13.75 -2.25 -14.35 -2.05 -14.95 -1.5 -15.2 L-0.25 -15.35 Q0.35 -15.1 0.55 -14.5 0.85 -13.95 0.65 -13.35 M2.9 -15.1 Q2.55 -15.75 2.8 -16.45 3.0 -17.1 3.65 -17.4 L4.95 -17.45 Q5.65 -17.2 5.95 -16.6 6.25 -15.9 6.0 -15.3 5.8 -14.6 5.2 -14.3 L3.85 -14.15 Q3.2 -14.4 2.9 -15.1 M7.75 -11.45 Q8.05 -10.85 7.8 -10.15 7.6 -9.5 7.0 -9.2 L5.7 -9.15 Q5.0 -9.4 4.7 -10.0 4.4 -10.6 4.65 -11.2 4.85 -11.9 5.5 -12.25 L6.8 -12.35 7.75 -11.45 M1.9 -10.1 L2.95 -9.25 Q3.25 -8.65 3.0 -7.95 2.8 -7.3 2.15 -6.95 L0.8 -6.9 Q0.15 -7.1 -0.1 -7.7 -0.5 -8.4 -0.25 -9.05 -0.05 -9.75 0.65 -10.0 L1.9 -10.1 M6.6 -5.6 L10.2 -5.85 Q12.05 -5.2 12.85 -3.5 13.65 -1.7 13.05 0.05 12.4 1.9 10.65 2.75 L7.15 2.95 Q5.3 2.35 4.45 0.65 3.65 -1.15 4.3 -2.95 4.9 -4.75 6.6 -5.6 M-8.55 -2.3 L-7.75 -4.6 -4.25 1.65 -7.3 -0.7 -7.75 0.7 Q-10.1 -1.7 -10.9 -4.45 L-8.55 -2.3 M-4.55 10.95 Q-3.7 12.65 -4.3 14.45 -4.95 16.25 -6.65 17.1 L-10.1 17.3 Q-11.9 16.65 -12.8 15.0 -13.65 13.25 -13.0 11.45 -12.4 9.65 -10.65 8.9 -8.95 8.0 -7.15 8.65 -5.35 9.25 -4.55 10.95 M3.3 8.05 L5.6 9.1 4.6 11.3 6.95 12.45 5.9 14.8 3.3 13.65 2.35 15.7 -0.05 14.7 1.05 12.45 -1.05 11.5 -0.05 9.25 2.3 10.25 3.3 8.05" fill="#75c1ff" fill-rule="evenodd" stroke="none"/>
  </g>
</svg>
