<?xml version="1.0" encoding="UTF-8" standalone="no"?>
<svg xmlns:xlink="http://www.w3.org/1999/xlink" height="57.55px" width="56.5px" xmlns="http://www.w3.org/2000/svg">
  <g transform="matrix(1.0, 0.0, 0.0, 1.0, 28.25, 28.8)">
    <path d="M5.05 -0.6 L3.5 2.4 Q2.35 4.8 1.6 7.25 -0.05 10.65 4.65 14.4 L6.65 16.35 Q10.05 19.9 10.6 22.45 11.05 24.25 10.15 25.55 9.35 26.85 8.1 27.5 5.35 28.75 0.75 27.0 L0.25 26.8 Q-12.05 22.05 -22.2 11.8 L-23.85 9.4 Q-26.85 9.6 -27.45 5.15 -27.8 2.55 -25.35 0.85 L-25.2 -0.6 Q-22.6 -12.6 -14.1 -21.4 L-13.4 -22.0 Q-14.05 -25.55 -10.15 -27.5 -7.6 -28.8 -4.45 -27.05 L-2.55 -27.0 Q6.35 -24.5 17.6 -19.8 L22.15 -17.6 Q27.0 -14.7 27.45 -11.75 27.65 -10.5 27.1 -9.2 26.25 -7.8 25.0 -7.05 22.3 -5.25 17.7 -5.95 L14.95 -6.5 Q10.25 -8.05 8.65 -6.45 6.55 -3.6 5.05 -0.6" fill="none" stroke="#000000" stroke-linecap="round" stroke-linejoin="round" stroke-width="1.5"/>
    <path d="M0.7 -16.1 Q0.5 -15.45 -0.1 -15.15 L-1.4 -15.1 Q-2.1 -15.35 -2.4 -15.95 -2.7 -16.55 -2.45 -17.15 L-1.6 -18.2 -0.3 -18.3 Q0.35 -18.0 0.65 -17.4 0.95 -16.8 0.7 -16.1 M2.5 -9.85 Q3.5 -9.5 4.05 -8.5 4.45 -7.55 4.1 -6.5 3.75 -5.5 2.85 -5.0 L0.8 -4.85 Q-0.25 -5.25 -0.65 -6.2 -1.2 -7.2 -0.8 -8.25 -0.5 -9.25 0.55 -9.7 L2.5 -9.85 M0.05 -3.0 Q-1.8 -3.6 -2.65 -5.3 -3.45 -7.1 -2.8 -8.9 -2.2 -10.7 -0.5 -11.55 L3.1 -11.8 Q4.95 -11.15 5.75 -9.45 6.55 -7.65 5.95 -5.9 5.3 -4.05 3.55 -3.2 L0.05 -3.0 M-3.25 -20.1 Q-3.9 -20.35 -4.2 -21.05 -4.55 -21.7 -4.3 -22.4 L-3.45 -23.35 -2.15 -23.4 Q-1.45 -23.15 -1.15 -22.55 -0.85 -21.85 -1.1 -21.25 -1.3 -20.55 -1.9 -20.25 L-3.25 -20.1 M-7.35 -21.3 Q-6.75 -21.05 -6.55 -20.45 -6.25 -19.9 -6.45 -19.3 -6.65 -18.7 -7.2 -18.35 L-8.35 -18.3 -9.3 -19.05 -9.35 -20.3 -8.6 -21.15 -7.35 -21.3 M-7.2 -13.65 Q-7.6 -14.35 -7.35 -15.0 -7.15 -15.7 -6.45 -15.95 L-5.2 -16.05 Q-4.5 -15.85 -4.15 -15.2 -3.85 -14.6 -4.1 -13.9 -4.3 -13.25 -4.95 -12.9 L-6.3 -12.85 Q-6.95 -13.05 -7.2 -13.65 M-13.4 -22.0 Q-8.3 -26.6 -4.45 -27.05 M-1.5 3.15 L-3.8 2.1 -4.8 4.3 -7.15 3.3 -8.15 5.55 -6.05 6.5 -7.15 8.75 -4.75 9.75 -3.8 7.7 -1.2 8.85 -0.15 6.5 -2.5 5.35 -1.5 3.15 M-11.65 5.0 Q-10.8 6.7 -11.4 8.5 -12.05 10.3 -13.75 11.15 L-17.2 11.35 Q-19.0 10.7 -19.9 9.05 -20.75 7.3 -20.1 5.5 -19.5 3.7 -17.75 2.95 -16.05 2.05 -14.25 2.7 -12.45 3.3 -11.65 5.0 M-13.4 5.8 Q-12.9 6.8 -13.25 7.85 -13.65 8.9 -14.65 9.45 L-16.7 9.55 Q-17.75 9.2 -18.3 8.15 -18.75 7.15 -18.35 6.1 -18.0 5.05 -17.05 4.5 L-14.95 4.4 Q-13.85 4.75 -13.4 5.8 M-23.85 9.4 Q-25.65 5.95 -25.35 0.85" fill="none" stroke="#000000" stroke-linecap="round" stroke-linejoin="round" stroke-opacity="0.6666667" stroke-width="1.0"/>
  </g>
</svg>
