<?xml version="1.0" encoding="UTF-8" standalone="no"?>
<svg xmlns:xlink="http://www.w3.org/1999/xlink" height="22.15px" width="25.55px" xmlns="http://www.w3.org/2000/svg">
  <g transform="matrix(1.0, 0.0, 0.0, 1.0, 12.75, 11.1)">
    <path d="M5.35 -5.65 L4.95 -5.35 Q4.2 -5.3 3.6 -4.9 3.05 -4.55 2.85 -3.35 L2.8 -1.0 Q2.95 0.35 3.6 1.55 L4.1 2.3 5.1 3.0 6.9 3.2 Q12.65 2.65 12.15 -2.6 10.6 -8.1 5.35 -5.65 M5.1 3.0 Q0.0 5.65 -3.45 9.2 -5.45 10.95 -7.5 10.25 -8.55 9.45 -8.1 7.6 L-8.15 6.8 Q-8.35 5.75 -9.65 5.6 -11.95 4.95 -10.95 2.35 -10.6 1.65 -10.6 1.05 -10.5 -0.1 -11.7 -1.25 -12.7 -2.95 -11.35 -4.5 -10.85 -5.55 -10.95 -6.65 L-11.15 -7.55 Q-11.65 -8.85 -10.5 -9.75 -8.45 -11.5 -5.5 -9.05 -1.4 -6.2 3.6 -4.9" fill="none" stroke="#000000" stroke-linecap="round" stroke-linejoin="round" stroke-width="1.2000000000000002"/>
    <path d="M6.9 3.2 Q4.6 -0.05 5.35 -5.65 M-8.15 6.8 Q-3.0 3.25 3.6 1.55 M2.85 -3.35 Q-4.55 -3.7 -10.95 -6.65 M-10.6 1.05 L2.8 -1.0" fill="none" stroke="#000000" stroke-linecap="round" stroke-linejoin="round" stroke-opacity="0.6666667" stroke-width="1.0"/>
  </g>
</svg>
