<?xml version="1.0" encoding="UTF-8" standalone="no"?>
<svg xmlns:xlink="http://www.w3.org/1999/xlink" height="39.5px" width="40.65px" xmlns="http://www.w3.org/2000/svg">
  <g transform="matrix(1.0, 0.0, 0.0, 1.0, 20.3, 19.75)">
    <path d="M0.55 1.7 L0.55 1.5 Q0.45 0.4 -0.4 -0.3 L-1.15 -0.7 -2.3 -0.85 Q-3.35 -0.75 -4.1 0.1 L-4.15 0.15 Q-4.75 0.95 -4.65 2.0 L-4.35 3.0 -3.7 3.8 Q-2.85 4.45 -1.8 4.35 L-0.55 3.85 0.0 3.4 Q0.6 2.65 0.55 1.7 M3.95 -19.75 Q7.05 -14.35 7.2 -8.35 6.7 -4.85 3.45 -2.15 13.1 -4.8 20.35 0.8 18.1 4.95 14.0 6.55 10.7 7.8 5.2 6.15 7.45 11.95 6.05 15.7 L5.4 17.0 Q4.3 18.45 4.4 19.75 L2.05 18.6 Q0.5 17.65 -0.65 16.5 -2.15 15.15 -2.95 13.35 -4.05 11.05 -4.15 8.05 L-4.5 9.3 Q-6.75 16.2 -16.5 16.3 -17.05 5.45 -8.6 1.5 -14.4 1.5 -17.3 -1.65 -20.0 -5.3 -20.3 -12.9 -10.2 -12.85 -4.6 -3.75 -5.9 -12.4 3.95 -19.75" fill="#fffa85" fill-rule="evenodd" stroke="none"/>
  </g>
</svg>
