<?xml version="1.0" encoding="UTF-8" standalone="no"?>
<svg xmlns:xlink="http://www.w3.org/1999/xlink" height="50.9px" width="40.65px" xmlns="http://www.w3.org/2000/svg">
  <g transform="matrix(1.0, 0.0, 0.0, 1.0, 21.55, 50.35)">
    <path d="M4.25 -34.0 L6.65 -31.4 Q7.2 -33.1 9.3 -34.4 L10.75 -35.75 Q12.35 -35.65 14.15 -34.45 16.85 -32.95 19.1 -33.9 15.25 -27.75 7.7 -26.65 2.9 -26.3 -2.6 -32.1 -3.4 -26.2 1.7 -0.25 L-0.3 0.2 -2.35 0.55 Q-5.9 -27.15 -5.3 -31.4 -11.3 -28.95 -16.1 -31.85 -22.7 -37.4 -21.3 -44.65 -17.85 -41.6 -13.55 -41.5 -8.2 -41.8 -4.05 -38.2 -2.45 -43.85 0.5 -48.95 L1.55 -50.35 Q0.2 -46.5 0.45 -43.05 L-1.5 -37.15 Q0.1 -38.5 1.85 -37.95 2.75 -35.95 4.25 -34.0" fill="#5fca56" fill-rule="evenodd" stroke="none"/>
  </g>
</svg>
