<?xml version="1.0" encoding="UTF-8" standalone="no"?>
<svg xmlns:xlink="http://www.w3.org/1999/xlink" height="63.5px" width="38.45px" xmlns="http://www.w3.org/2000/svg">
  <g transform="matrix(1.0, 0.0, 0.0, 1.0, 19.25, 31.75)">
    <path d="M6.0 -28.35 L4.9 -28.8 Q2.3 -29.25 1.45 -30.15 -1.2 -32.1 -2.95 -30.5 -3.7 -29.5 -4.9 -29.95 -6.7 -30.85 -8.2 -30.65 -10.65 -30.25 -11.7 -27.8 -12.45 -25.05 -14.25 -24.35 -15.65 -23.8 -15.95 -22.6 L-15.8 -21.8 Q-18.55 -21.25 -18.7 -18.65 -18.4 -17.4 -17.15 -16.8 -16.1 -15.75 -16.5 -14.4 -16.85 -10.95 -12.75 -10.55 -11.2 -10.55 -10.05 -8.8 L-9.25 -8.0 Q-8.5 -5.95 -4.65 -4.35 -7.7 -1.1 -7.0 2.8 -6.8 4.35 -8.2 6.55 -9.4 8.45 -5.75 5.9 -1.5 3.05 -1.35 -3.25 L-3.0 -3.75 -4.65 -4.35 M6.0 -28.35 Q9.4 -29.4 11.2 -27.8 12.35 -26.2 9.45 -24.0 9.45 -23.15 8.4 -21.25 L8.6 -21.25 Q10.25 -20.85 10.8 -19.9 10.85 -18.65 9.05 -18.3 L8.4 -18.15 Q9.15 -14.25 8.35 -11.0 11.45 -12.8 14.95 -13.05 17.15 -13.1 18.55 -15.25 19.2 -10.75 14.55 -8.75 11.45 -7.5 7.5 -8.6 6.7 -6.85 5.3 -5.25 L4.0 -4.0 12.55 29.9 9.85 31.2 1.3 -3.0 -0.6 -3.05 -1.35 -3.25 M1.3 -3.0 Q2.8 -3.2 4.0 -4.0 M7.5 -8.6 L8.15 -10.1 8.35 -11.0" fill="none" stroke="#000000" stroke-linecap="round" stroke-linejoin="round" stroke-width="1.1"/>
    <path d="M6.8 -23.65 Q6.8 -24.9 5.65 -25.65 4.85 -26.1 4.85 -26.75 4.4 -28.15 2.4 -27.95 1.25 -27.85 -0.1 -29.0 -1.95 -30.35 -4.0 -28.5 -5.3 -27.4 -7.0 -27.7 -8.9 -27.8 -9.6 -26.55 -9.55 -26.0 -10.4 -25.8 -12.8 -25.2 -11.45 -22.2 -11.2 -22.55 -10.75 -22.55 -10.8 -23.45 -10.3 -24.2 -9.25 -25.85 -6.9 -25.65 L-6.45 -25.9 -3.75 -25.85 Q-2.75 -25.35 -1.3 -26.5 0.0 -27.15 1.75 -26.05 2.55 -25.25 2.3 -24.05 3.45 -23.8 3.85 -23.15 4.95 -23.95 5.8 -23.75 L6.8 -23.65 7.4 -24.15 8.0 -24.7 Q7.75 -27.35 6.0 -28.35 M-15.8 -21.8 Q-15.35 -19.7 -12.8 -17.85 -12.5 -21.3 -11.45 -22.2 M3.85 -23.15 L2.65 -22.15 Q1.5 -20.45 0.15 -20.1 L-0.95 -20.05 -2.7 -18.95 Q-4.0 -17.6 -5.6 -17.6 -6.9 -17.5 -7.55 -16.65 -8.15 -16.1 -8.45 -15.05 -5.8 -13.3 -3.75 -11.45 -2.35 -14.55 0.9 -15.95 3.3 -17.0 5.3 -20.0 6.5 -21.35 8.4 -21.25 M9.45 -24.0 Q9.45 -24.7 8.8 -24.75 L8.0 -24.7 M8.4 -18.15 Q6.75 -17.7 6.65 -15.75 6.65 -13.0 4.2 -12.3 1.3 -11.75 1.4 -10.8 1.35 -9.25 -1.25 -9.1 L1.3 -5.85 Q2.45 -3.55 0.6 -4.55 -0.2 -5.4 -2.9 -5.7 -7.35 -6.5 -9.25 -8.0 M14.75 -11.5 Q12.95 -10.15 8.15 -10.1 M-6.05 -21.3 Q-7.8 -22.8 -5.5 -22.8 -2.3 -22.85 -3.25 -20.6 -1.45 -21.25 -0.4 -22.35 -0.45 -23.35 -1.4 -23.85 L-4.6 -24.35 Q-6.35 -25.2 -8.15 -24.3 -9.1 -22.6 -8.0 -19.65 -5.25 -19.9 -3.25 -20.6 M-0.95 -20.05 Q-0.35 -21.4 -0.4 -22.35 M-8.0 -19.65 L-9.8 -19.55 -7.55 -16.65 M-3.0 -3.75 Q-4.65 -2.0 -5.25 2.15 M-1.25 -9.1 L-3.75 -11.45 M-10.75 -22.55 Q-10.7 -21.2 -9.8 -19.55 M-8.45 -15.05 Q-10.45 -16.45 -12.8 -17.85 M-8.15 -24.3 L-6.9 -25.65" fill="none" stroke="#000000" stroke-linecap="round" stroke-linejoin="round" stroke-opacity="0.6666667" stroke-width="1.0"/>
  </g>
</svg>
