<?xml version="1.0" encoding="UTF-8" standalone="no"?>
<svg xmlns:xlink="http://www.w3.org/1999/xlink" height="67.25px" width="76.3px" xmlns="http://www.w3.org/2000/svg">
  <g transform="matrix(1.0, 0.0, 0.0, 1.0, 38.15, 33.65)">
    <path d="M24.75 -2.95 L24.75 0.8 27.7 -1.65 Q35.25 3.0 38.15 9.8 29.5 16.6 14.55 12.55 L13.7 9.15 11.35 11.55 Q9.25 10.1 8.05 8.45 L4.75 11.1 8.3 11.1 Q9.3 16.65 8.2 21.15 L7.25 23.95 5.45 27.05 Q3.45 29.75 0.3 31.9 L-2.6 33.6 -4.95 32.15 Q-8.8 29.65 -11.35 26.85 L-13.75 23.8 -15.0 21.65 -15.9 19.35 -14.9 18.4 -19.3 20.7 -21.75 18.7 -22.45 21.7 Q-30.1 25.3 -38.15 23.7 -37.35 8.1 -25.35 2.2 -16.25 -2.05 -7.8 1.2 L-5.2 0.3 Q-6.15 -2.6 -8.0 -5.3 -13.65 -4.85 -17.6 -7.9 L-16.95 -11.6 -19.45 -9.2 Q-31.25 -18.0 -25.05 -33.65 -18.55 -32.9 -12.2 -30.1 L-13.65 -25.3 -10.05 -27.65 Q-5.5 -24.65 -2.8 -17.3 -1.55 -19.5 0.7 -21.8 L4.05 -20.55 3.6 -24.0 Q14.95 -31.15 26.35 -30.35 24.95 -11.6 13.65 -6.65 L12.05 -9.05 12.05 -5.65 Q6.9 -3.05 0.9 -3.7 -0.15 -1.95 -0.7 0.5 L-0.3 0.65 Q2.1 -1.3 4.7 -1.2 14.35 -5.95 24.75 -2.95 M6.05 5.5 Q4.6 2.7 4.65 0.6 3.1 0.2 1.35 1.35 3.85 2.7 6.05 5.5 M-4.05 -9.4 Q-4.55 -6.8 -6.15 -5.85 -4.45 -2.95 -4.0 0.1 L-3.2 0.05 -2.0 0.2 Q-2.05 -2.3 -0.85 -4.5 -3.25 -6.95 -4.05 -9.4" fill="#43a977" fill-rule="evenodd" stroke="none"/>
  </g>
</svg>
