<?xml version="1.0" encoding="UTF-8" standalone="no"?>
<svg xmlns:xlink="http://www.w3.org/1999/xlink" height="82.9px" width="69.4px" xmlns="http://www.w3.org/2000/svg">
  <g transform="matrix(1.0, 0.0, 0.0, 1.0, 34.7, 41.45)">
    <path d="M-20.0 -28.85 L-20.1 -29.55 Q-22.9 -30.9 -20.5 -32.7 -22.25 -35.3 -19.1 -36.15 -17.8 -39.5 -14.15 -38.55 -11.75 -41.35 -8.4 -39.35 -6.35 -41.1 -4.05 -39.35 -3.1 -41.5 -1.1 -39.35 0.15 -40.7 1.45 -39.8 3.9 -41.9 6.35 -39.8 9.55 -41.7 11.85 -39.5 15.15 -40.95 17.5 -37.85 19.05 -38.95 20.55 -36.55 23.3 -37.2 24.25 -33.95 26.2 -31.35 24.25 -30.2 25.35 -28.4 23.4 -28.0 24.4 -26.45 22.2 -26.15 21.65 -23.1 18.65 -24.35 17.1 -22.85 15.6 -24.6 14.1 -23.7 13.0 -24.25 14.6 -21.85 12.65 -19.85 12.55 -17.2 9.9 -16.45 9.1 -14.0 6.35 -13.95 4.8 -11.8 2.0 -13.15 -0.55 -10.05 -3.65 -11.9 -6.15 -8.5 -4.8 -5.65 -3.3 -1.85 2.75 -2.1 L2.85 -2.55 Q1.9 -4.25 4.0 -5.8 L4.4 -6.9 Q1.1 -9.7 1.45 -11.2 2.85 -11.05 5.95 -7.7 L6.25 -7.6 Q7.6 -9.6 9.4 -8.65 10.45 -11.05 12.55 -9.25 13.8 -11.65 15.75 -10.5 17.85 -14.25 20.0 -10.5 21.55 -11.8 23.5 -8.7 25.35 -9.2 26.15 -6.95 28.1 -7.2 28.95 -3.85 31.55 -5.8 32.3 -3.05 34.45 -2.6 33.8 -0.85 35.0 2.4 31.65 1.45 31.3 3.75 29.35 2.65 28.25 4.15 27.15 2.95 24.9 4.55 23.7 2.95 20.5 4.6 19.0 2.65 17.4 3.85 16.45 2.25 14.8 4.25 13.1 2.75 11.55 4.0 10.2 2.75 L9.65 3.3 Q10.05 8.05 6.15 10.7 3.7 12.25 3.3 15.2 5.05 14.85 6.35 16.05 7.85 15.55 8.95 16.85 10.4 16.5 11.25 18.15 12.45 17.75 13.35 18.75 L13.4 18.8 13.6 18.95 Q15.35 18.95 15.8 20.45 17.3 20.8 17.3 22.25 18.05 23.0 17.5 24.75 L15.35 38.25 Q-1.25 43.9 -14.85 37.25 L-16.9 24.75 Q-17.8 23.15 -17.2 21.8 -17.2 20.45 -15.75 20.3 -15.45 19.35 -14.2 19.35 -13.05 17.4 -10.9 17.75 -10.2 16.0 -7.95 16.2 -7.85 14.75 -6.0 15.15 -7.15 11.65 -4.15 9.85 -1.75 8.45 -1.4 6.25 -1.25 3.35 -4.15 2.5 -9.95 0.4 -11.6 -3.15 -12.3 -4.75 -12.35 -6.4 -15.4 -8.7 -18.45 -9.85 -22.0 -11.65 -25.3 -9.6 -24.15 -11.05 -25.3 -13.6 L-26.25 -14.65 Q-29.75 -13.5 -30.35 -15.8 -33.25 -15.25 -33.3 -17.9 -35.55 -21.15 -31.55 -22.05 -31.3 -24.75 -28.45 -24.85 -28.35 -27.85 -25.15 -27.7 -22.95 -30.35 -20.0 -28.85 -19.65 -27.15 -17.6 -27.45 -16.45 -26.15 -14.85 -27.0 -14.45 -25.5 -11.95 -25.8 -10.85 -23.45 -7.65 -25.0 -6.15 -23.15 -3.55 -24.25 -1.8 -22.55 1.2 -25.0 3.2 -23.4 5.0 -25.75 6.5 -25.1 7.95 -26.5 9.8 -24.65 11.65 -25.8 12.25 -24.65 13.0 -24.25 M-1.25 -30.55 Q-1.05 -32.9 0.35 -31.7 1.5 -33.7 2.7 -31.7 4.2 -32.8 4.5 -30.4 5.6 -31.5 6.65 -30.4 M13.2 -31.45 Q13.35 -33.4 14.75 -32.25 15.9 -34.25 16.85 -32.25 18.2 -33.85 18.95 -31.5 19.4 -33.1 20.6 -32.1 M0.65 -17.9 Q0.85 -20.4 2.6 -19.65 3.65 -21.25 4.7 -20.25 5.45 -22.4 6.5 -21.1 7.6 -22.0 8.7 -21.1 M4.4 -6.9 Q4.95 -7.85 5.95 -7.7 M10.55 -0.95 Q10.05 -3.55 11.95 -1.55 12.2 -3.3 13.35 -1.85 14.3 -3.6 15.25 -1.5 M20.85 -3.55 Q21.5 -6.3 22.65 -4.0 24.1 -5.8 24.65 -3.2 26.05 -3.9 26.0 -2.05 M-14.65 -31.55 Q-15.1 -33.7 -13.35 -32.9 -12.65 -35.95 -11.5 -33.75 -10.45 -36.5 -9.6 -34.1 -8.75 -35.2 -7.95 -34.55 M-27.4 -19.2 Q-28.15 -21.4 -25.85 -21.05 -25.25 -23.6 -23.65 -21.4 -23.4 -24.05 -21.65 -22.1 -20.7 -22.95 -19.7 -22.1 M-25.3 -13.6 Q-23.65 -12.35 -20.85 -13.2 -19.6 -11.1 -17.4 -11.4 -16.45 -11.6 -15.25 -12.25 L-10.65 -12.15 -9.8 -12.8 Q-7.45 -11.2 -4.85 -12.8 L-3.65 -11.9 M-16.4 -17.05 Q-16.45 -18.75 -15.05 -17.95 -13.65 -21.25 -12.75 -19.55 -11.1 -22.05 -10.2 -18.7 -8.85 -19.95 -8.0 -17.75 -6.8 -18.25 -5.8 -17.25 M-17.4 -11.4 Q-14.4 -9.8 -11.4 -10.75 L-10.65 -12.15 M-12.35 -6.4 Q-12.4 -8.5 -11.4 -10.75 M6.2 17.6 Q5.3 16.55 4.2 17.05 L3.25 16.25 1.25 16.2 Q0.75 13.45 -1.6 15.05 -3.25 14.5 -3.8 16.45 L-5.55 16.25 Q-6.25 16.4 -7.0 17.0 M-5.55 16.25 L-6.0 15.15 M2.75 -2.1 Q2.45 0.15 3.95 0.55 4.2 3.3 7.1 2.75 8.4 4.25 9.65 3.3 M3.3 15.2 L3.25 16.25 M17.3 22.25 Q0.6 27.15 -17.2 21.8 M-16.9 24.75 Q0.6 30.05 17.5 24.75" fill="none" stroke="#000000" stroke-linecap="round" stroke-linejoin="round" stroke-width="1.2000000000000002"/>
  </g>
</svg>
