<?xml version="1.0" encoding="UTF-8" standalone="no"?>
<svg xmlns:xlink="http://www.w3.org/1999/xlink" height="30.7px" width="32.75px" xmlns="http://www.w3.org/2000/svg">
  <g transform="matrix(1.0, 0.0, 0.0, 1.0, 16.35, 15.35)">
    <path d="M-15.75 -6.65 L-15.7 -6.55 Q-15.55 -5.95 -13.2 -5.95 -1.8 -11.4 10.55 -12.35 12.6 -13.4 12.55 -14.1 L12.35 -14.3 7.95 -14.6 Q3.7 -14.15 -2.15 -12.55 -8.05 -11.0 -12.0 -9.25 -15.85 -7.6 -15.75 -6.65 M12.55 -14.1 L13.15 -12.75 14.7 -8.6 14.9 -7.85 Q15.8 -4.55 15.8 -1.25 L15.8 -1.0 15.55 1.05 Q14.85 5.85 11.55 8.7 L10.4 9.6 10.85 9.55 11.65 11.1 11.2 11.4 Q5.3 15.35 -2.2 14.65 L-2.3 13.2 -1.25 12.8 Q-7.55 12.55 -10.95 7.4 -13.05 3.7 -14.25 0.35 L-14.95 -1.9 -15.6 -4.9 -15.7 -6.55 M13.15 -12.75 Q8.95 -9.25 -0.5 -6.65 -10.0 -4.1 -15.6 -4.9 M-1.25 12.8 L2.3 12.65 2.7 12.6 3.35 12.45 3.7 12.4 4.6 12.2 Q7.05 11.6 8.85 10.6 L10.4 9.6" fill="none" stroke="#000000" stroke-linecap="round" stroke-linejoin="round" stroke-width="1.2000000000000002"/>
  </g>
</svg>
