<?xml version="1.0" encoding="UTF-8" standalone="no"?>
<svg xmlns:xlink="http://www.w3.org/1999/xlink" height="61.6px" width="60.4px" xmlns="http://www.w3.org/2000/svg">
  <g transform="matrix(1.0, 0.0, 0.0, 1.0, 30.2, 30.8)">
    <path d="M4.05 -14.25 Q5.2 -15.85 7.2 -16.35 L8.2 -16.5 Q14.85 -16.5 20.2 -10.9 L20.65 -10.4 Q26.3 -4.0 28.95 -5.7 31.0 -8.55 24.7 -16.55 19.05 -23.45 10.4 -25.4 7.65 -25.5 5.45 -24.4 3.2 -23.25 1.5 -20.75 0.4 -18.85 0.15 -16.85 -0.2 -13.05 2.55 -9.0 2.7 -12.35 4.05 -14.25 17.35 -4.45 20.8 12.35 22.15 19.4 18.75 26.65 L17.45 28.5 Q16.05 30.25 14.4 30.05 13.65 29.8 12.95 28.85 L12.2 27.5 5.0 11.95 Q1.0 9.85 -2.3 6.5 -4.45 3.9 -5.25 1.45 -6.6 2.15 -7.6 2.95 -6.5 10.85 4.25 19.15 9.15 22.8 3.0 21.6 -6.7 18.35 -10.15 10.65 -14.7 -1.15 -6.7 -4.95 -12.75 -11.55 -24.95 -19.25 -31.1 -23.75 -28.8 -27.9 -26.4 -31.1 -20.65 -29.5 -11.6 -26.85 -2.15 -18.85 -1.15 -24.0 5.45 -24.4 M7.2 -16.35 Q14.15 -13.2 18.8 -6.6 22.3 -1.75 20.65 -10.4 M5.0 11.95 Q9.6 14.35 15.25 15.2 L15.5 15.2 Q19.55 15.5 20.55 13.85 21.1 12.7 16.85 10.55 L14.2 9.0 Q-4.8 -2.7 2.55 -9.0 -3.4 -9.6 -5.25 -3.85 L-5.35 -3.45 Q-6.05 -1.1 -5.25 1.45 M-6.7 -4.95 L-5.35 -3.45 M-7.6 2.95 Q-11.6 6.15 -10.15 10.65 M0.15 -16.85 L-2.15 -18.85" fill="none" stroke="#000000" stroke-linecap="round" stroke-linejoin="round" stroke-width="1.5"/>
    <path d="M17.45 28.5 Q16.9 27.4 15.85 27.15 L15.75 27.1 Q13.95 27.55 12.95 28.85 M15.85 27.15 Q16.25 21.35 15.5 15.2 M2.55 -9.0 Q11.45 -0.8 14.2 9.0" fill="none" stroke="#000000" stroke-linecap="round" stroke-linejoin="round" stroke-opacity="0.6666667" stroke-width="1.0"/>
  </g>
</svg>
