<?xml version="1.0" encoding="UTF-8" standalone="no"?>
<svg xmlns:xlink="http://www.w3.org/1999/xlink" height="43.2px" width="35.45px" xmlns="http://www.w3.org/2000/svg">
  <g transform="matrix(1.0, 0.0, 0.0, 1.0, 17.7, 21.6)">
    <path d="M-9.8 -10.15 Q-10.9 -14.55 -9.35 -17.7 L-9.25 -17.9 Q-8.45 -19.5 -8.2 -20.85 -4.3 -18.15 -4.6 -11.25 -3.55 -12.3 -2.2 -12.95 4.05 -15.9 9.7 -11.85 15.9 -7.15 16.75 1.4 17.75 7.9 15.0 12.75 13.2 15.45 9.85 16.0 8.1 20.15 2.95 20.7 -4.05 21.5 -8.7 18.55 -14.2 14.65 -16.4 7.65 -18.0 1.05 -14.85 -3.1 -12.45 -6.1 -8.6 -6.65 -10.2 -8.25 -12.7 -8.95 -13.05 -9.9 -11.35 -10.9 L-9.8 -10.15 -7.35 -8.1 Q-8.55 -11.8 -7.85 -15.7 M-8.6 -6.65 L-7.45 -6.8 -7.0 -7.75 -7.35 -8.1 M-7.0 -7.75 Q-6.1 -9.85 -4.6 -11.25" fill="none" stroke="#000000" stroke-linecap="round" stroke-linejoin="round" stroke-width="1.5"/>
  </g>
</svg>
