<?xml version="1.0" encoding="UTF-8" standalone="no"?>
<svg xmlns:xlink="http://www.w3.org/1999/xlink" height="23.9px" width="21.75px" xmlns="http://www.w3.org/2000/svg">
  <g transform="matrix(1.0, 0.0, 0.0, 1.0, 10.85, 11.95)">
    <path d="M0.0 10.75 Q-7.2 7.9 -9.8 3.4 -11.45 0.6 -10.45 -3.6 -10.25 -1.2 -9.15 0.35 -7.0 -2.05 -7.35 -5.6 -5.45 -3.7 -2.55 -4.05 -2.9 -6.65 -5.65 -8.15 -2.5 -7.7 -0.35 -9.45 -2.0 -11.35 -4.85 -10.85 L-3.2 -11.55 Q2.05 -12.85 5.25 -9.9 8.45 -7.1 10.1 0.2 12.2 8.3 8.9 11.2 6.4 12.85 0.0 10.75" fill="#e34f69" fill-rule="evenodd" stroke="none"/>
  </g>
</svg>
