<?xml version="1.0" encoding="UTF-8" standalone="no"?>
<svg xmlns:xlink="http://www.w3.org/1999/xlink" height="33.1px" width="36.05px" xmlns="http://www.w3.org/2000/svg">
  <g transform="matrix(1.0, 0.0, 0.0, 1.0, 17.65, 39.45)">
    <path d="M10.55 -34.45 L10.45 -34.1 10.1 -34.0 9.65 -34.1 9.5 -34.45 Q9.5 -34.8 9.65 -34.8 9.75 -35.05 10.1 -35.05 L10.45 -34.8 10.55 -34.45 M4.9 -26.75 L5.1 -27.2 5.55 -27.3 5.85 -27.2 6.15 -26.75 5.85 -26.35 5.55 -26.25 5.1 -26.35 4.9 -26.75 M18.3 -18.0 L17.85 -17.7 Q17.6 -17.7 17.5 -18.0 17.25 -18.05 17.25 -18.4 L17.5 -18.75 17.85 -18.85 18.3 -18.75 18.4 -18.4 18.3 -18.0 M8.7 -14.7 L8.55 -14.25 8.1 -14.1 7.7 -14.25 7.6 -14.7 7.7 -15.15 8.1 -15.2 8.55 -15.15 8.7 -14.7 M-3.25 -33.6 L-3.45 -33.15 Q-3.6 -33.0 -3.8 -33.0 -4.05 -33.0 -4.2 -33.15 L-4.5 -33.6 -4.2 -34.0 -3.8 -34.1 -3.45 -34.0 -3.25 -33.6 M-8.25 -23.65 L-8.0 -24.1 -7.65 -24.2 -7.3 -24.1 -7.15 -23.65 Q-7.15 -23.4 -7.3 -23.3 -7.4 -23.05 -7.65 -23.05 -7.95 -23.05 -8.0 -23.3 L-8.25 -23.65" fill="#88fd78" fill-rule="evenodd" stroke="none"/>
    <path d="M4.15 -38.6 Q4.0 -38.75 4.0 -39.0 L4.15 -39.35 4.6 -39.45 4.9 -39.35 5.1 -39.0 4.9 -38.6 4.6 -38.4 Q4.3 -38.4 4.15 -38.6 M12.25 -29.45 L12.6 -29.7 12.95 -29.45 13.1 -29.0 12.95 -28.6 12.6 -28.4 Q12.35 -28.4 12.25 -28.6 12.1 -28.75 12.1 -29.0 12.1 -29.35 12.25 -29.45 M13.2 -14.2 Q12.95 -14.2 12.75 -14.45 12.6 -14.55 12.6 -14.85 L12.75 -15.2 13.2 -15.4 13.55 -15.2 13.7 -14.85 13.55 -14.45 13.2 -14.2 M5.55 -22.3 Q5.8 -22.3 5.85 -22.1 L6.05 -21.75 5.85 -21.45 5.55 -21.25 5.1 -21.45 4.9 -21.75 5.1 -22.1 5.55 -22.3 M0.85 -6.6 L0.6 -7.0 0.85 -7.35 1.3 -7.65 1.75 -7.35 1.9 -7.0 1.75 -6.6 Q1.55 -6.35 1.3 -6.35 1.05 -6.35 0.85 -6.6 M-9.55 -34.2 Q-9.55 -34.0 -9.8 -33.75 L-10.25 -33.6 -10.7 -33.75 -10.85 -34.2 -10.7 -34.7 -10.25 -34.8 -9.8 -34.7 -9.55 -34.2 M-3.85 -28.35 L-3.45 -28.15 -3.35 -27.7 -3.45 -27.3 Q-3.7 -27.1 -3.85 -27.1 -4.15 -27.1 -4.3 -27.3 L-4.5 -27.7 -4.3 -28.15 -3.85 -28.35 M-7.0 -13.75 Q-7.0 -13.5 -7.15 -13.4 -7.3 -13.25 -7.6 -13.25 L-7.95 -13.4 -8.0 -13.75 -7.95 -14.2 -7.6 -14.25 -7.15 -14.2 -7.0 -13.75 M-16.75 -22.3 L-16.65 -21.95 -16.75 -21.5 Q-17.0 -21.35 -17.15 -21.35 -17.35 -21.35 -17.5 -21.5 L-17.65 -21.95 -17.5 -22.3 -17.15 -22.35 -16.75 -22.3" fill="#fffefa" fill-rule="evenodd" stroke="none"/>
    <path d="M16.55 -24.2 L16.9 -24.0 17.1 -23.6 16.9 -23.15 16.55 -23.05 16.2 -23.15 15.95 -23.6 16.2 -24.0 Q16.3 -24.2 16.55 -24.2 M10.0 -9.85 L10.1 -9.5 10.0 -9.2 9.65 -9.0 Q9.4 -9.0 9.25 -9.2 L9.05 -9.5 9.25 -9.85 9.65 -10.15 10.0 -9.85 M-0.7 -39.1 L-0.5 -38.75 Q-0.5 -38.4 -0.7 -38.35 -0.85 -38.0 -1.1 -38.0 -1.3 -38.0 -1.65 -38.35 L-1.65 -38.75 -1.65 -39.1 -1.1 -39.3 Q-0.85 -39.3 -0.7 -39.1 M-14.15 -27.65 L-14.2 -28.05 -14.15 -28.5 -13.8 -28.75 -13.45 -28.5 -13.35 -28.05 -13.45 -27.65 -13.8 -27.4 -14.15 -27.65 M-2.0 -19.55 L-2.05 -19.1 Q-2.3 -18.9 -2.6 -18.9 L-3.0 -19.1 -3.1 -19.55 -3.0 -19.95 -2.6 -20.15 -2.05 -19.95 -2.0 -19.55 M-14.4 -12.7 L-14.75 -12.9 -14.9 -13.3 -14.75 -13.65 -14.4 -13.75 -13.95 -13.65 -13.8 -13.3 Q-13.8 -13.05 -13.95 -12.9 -14.15 -12.7 -14.4 -12.7" fill="#feb9fa" fill-rule="evenodd" stroke="none"/>
    <path d="M2.25 -31.95 L2.7 -31.8 2.75 -31.35 2.7 -30.9 2.25 -30.85 1.75 -30.9 1.55 -31.35 1.75 -31.8 2.25 -31.95 M11.3 -23.25 L11.55 -22.7 11.3 -22.35 10.9 -22.2 Q10.6 -22.2 10.45 -22.35 L10.25 -22.7 10.45 -23.25 10.9 -23.4 11.3 -23.25 M2.15 -12.45 L1.8 -12.35 1.4 -12.45 1.2 -12.9 1.4 -13.3 1.8 -13.4 2.15 -13.3 2.25 -12.9 2.15 -12.45 M-4.5 -38.85 L-4.65 -38.5 Q-4.8 -38.35 -5.0 -38.35 -5.15 -38.35 -5.35 -38.5 L-5.5 -38.85 -5.35 -39.2 -5.0 -39.45 -4.65 -39.2 Q-4.5 -39.1 -4.5 -38.85 M-15.15 -33.35 L-15.1 -32.8 -15.15 -32.45 -15.5 -32.2 -15.85 -32.45 -15.95 -32.8 -15.85 -33.35 -15.5 -33.4 -15.15 -33.35 M-11.1 -20.65 L-10.95 -20.3 Q-10.95 -20.05 -11.1 -19.85 L-11.45 -19.8 -11.9 -19.85 -12.0 -20.3 -11.9 -20.65 -11.45 -20.75 -11.1 -20.65 M-5.75 -7.7 L-5.45 -7.55 -5.15 -7.2 -5.45 -6.85 Q-5.5 -6.7 -5.75 -6.7 -5.95 -6.7 -6.1 -6.85 L-6.3 -7.2 -6.1 -7.55 -5.75 -7.7" fill="#fff798" fill-rule="evenodd" stroke="none"/>
  </g>
</svg>
