<?xml version="1.0" encoding="UTF-8" standalone="no"?>
<svg xmlns:xlink="http://www.w3.org/1999/xlink" height="30.85px" width="30.9px" xmlns="http://www.w3.org/2000/svg">
  <g transform="matrix(1.0, 0.0, 0.0, 1.0, 15.45, 15.45)">
    <path d="M14.3 -3.85 L14.65 -1.85 14.3 -1.9 13.7 -2.35 Q13.5 -2.7 13.6 -3.1 L14.05 -3.7 14.3 -3.85" fill="#ffb3f9" fill-rule="evenodd" stroke="none"/>
    <path d="M13.3 6.0 L12.25 7.85 11.9 7.45 Q11.65 7.1 11.8 6.65 11.9 6.25 12.25 6.0 L13.05 5.9 13.3 6.0" fill="#7ccefd" fill-rule="evenodd" stroke="none"/>
    <path d="M12.25 7.85 Q10.45 10.75 7.3 12.6 2.0 15.7 -3.85 14.15 -9.75 12.55 -12.75 7.25 -15.1 3.05 -14.6 -1.55 L-14.15 -4.05 -13.3 -6.45 Q-12.55 -8.2 -11.4 -9.6 L-10.25 -10.85 -8.3 -12.45 Q-6.95 -12.95 -6.95 -12.1 -6.95 -11.65 -6.35 -11.4 L-6.1 -10.35 Q-5.85 -9.55 -5.0 -10.1 -4.65 -9.4 -4.0 -9.8 -3.2 -8.9 -2.3 -10.0 -0.05 -9.15 0.05 -10.35 1.6 -9.75 2.05 -10.8 3.35 -10.85 2.75 -12.1 4.25 -12.25 3.75 -14.7 L3.85 -14.65 Q9.7 -13.1 12.75 -7.75 13.8 -5.85 14.3 -3.85 L14.65 -1.85 Q14.9 0.8 14.15 3.55 L13.3 6.0 12.25 7.85" fill="none" stroke="#000000" stroke-linecap="round" stroke-linejoin="round" stroke-width="1.5"/>
    <path d="M12.25 7.85 L11.9 7.45 Q11.65 7.1 11.8 6.65 11.9 6.25 12.25 6.0 L13.05 5.9 13.3 6.0 M-11.4 -9.6 L-11.35 -9.4 -10.75 -9.0 -10.05 -9.05 Q-9.65 -9.3 -9.6 -9.65 -9.45 -10.05 -9.7 -10.35 L-10.25 -10.85 M-12.8 -1.5 L-12.35 -2.05 -11.55 -2.15 -11.0 -1.7 Q-10.8 -1.4 -10.9 -1.0 -11.0 -0.55 -11.35 -0.35 L-12.05 -0.3 Q-12.5 -0.4 -12.7 -0.7 L-12.8 -1.5 M-2.8 -4.75 L-3.3 -4.15 -4.05 -4.1 -4.75 -4.55 -4.85 -5.3 -4.35 -6.0 -3.5 -6.1 -2.9 -5.6 Q-2.65 -5.2 -2.8 -4.75 M6.9 -12.55 Q7.3 -12.45 7.55 -12.05 L7.6 -11.35 7.15 -10.7 6.4 -10.65 Q6.0 -10.75 5.8 -11.1 5.6 -11.45 5.7 -11.85 5.8 -12.25 6.2 -12.45 L6.9 -12.55 M8.7 -3.25 L7.95 -3.15 7.45 -3.6 Q7.25 -3.95 7.35 -4.3 L7.8 -4.9 8.45 -4.95 Q8.85 -4.85 9.05 -4.55 L9.1 -3.8 Q9.0 -3.45 8.7 -3.25 M14.3 -3.85 L14.05 -3.7 13.6 -3.1 Q13.5 -2.7 13.7 -2.35 L14.3 -1.9 14.65 -1.85 M3.1 2.35 Q3.25 1.95 3.55 1.75 L4.35 1.65 Q4.7 1.75 4.95 2.15 5.15 2.45 5.0 2.85 L4.6 3.45 3.8 3.6 3.2 3.05 3.1 2.35 M6.45 10.85 L5.85 10.35 Q5.65 10.05 5.8 9.65 5.85 9.3 6.2 9.1 L6.95 9.0 Q7.35 9.1 7.55 9.45 L7.65 10.15 7.2 10.7 6.45 10.85 M0.35 14.1 L-0.3 14.15 -0.9 13.75 Q-1.1 13.45 -0.95 13.05 L-0.55 12.45 0.2 12.3 0.7 12.8 0.8 13.5 0.35 14.1 M-1.05 6.05 L-1.45 6.7 -2.2 6.75 -2.8 6.3 -2.9 5.55 -2.45 4.9 -1.7 4.85 -1.1 5.3 Q-0.95 5.7 -1.05 6.05 M-9.9 8.2 L-9.5 7.65 -8.75 7.55 Q-8.4 7.65 -8.2 8.0 -8.0 8.3 -8.1 8.7 L-8.55 9.3 -9.25 9.35 -9.85 8.95 -9.9 8.2" fill="none" stroke="#000000" stroke-linecap="round" stroke-linejoin="round" stroke-opacity="0.6666667" stroke-width="1.0"/>
  </g>
</svg>
