<?xml version="1.0" encoding="UTF-8" standalone="no"?>
<svg xmlns:xlink="http://www.w3.org/1999/xlink" height="14.05px" width="70.2px" xmlns="http://www.w3.org/2000/svg">
  <g transform="matrix(1.0, 0.0, 0.0, 1.0, 35.25, 29.1)">
    <path d="M14.0 -18.95 Q16.05 -19.55 16.9 -17.2 L10.3 -16.15 Q12.0 -18.8 14.0 -18.95 M34.95 -25.9 L34.8 -25.7 Q35.05 -23.75 33.65 -20.55 29.6 -20.6 22.45 -18.45 L19.6 -17.7 Q22.5 -19.3 23.45 -21.35 25.05 -24.45 28.1 -24.55 32.75 -25.35 32.3 -29.1 34.4 -28.2 34.95 -25.9 M-22.5 -19.2 Q-22.3 -17.0 -21.15 -15.75 L-26.0 -16.3 Q-31.1 -17.1 -34.35 -16.45 -36.5 -20.65 -33.65 -25.2 L-31.8 -26.5 Q-32.4 -24.85 -30.5 -23.85 -28.4 -23.6 -28.75 -21.2 -28.0 -18.3 -25.15 -20.05 -23.35 -21.15 -22.6 -19.5 L-22.5 -19.2 M4.8 -15.45 Q-4.25 -14.75 -14.4 -15.35 -12.5 -17.75 -9.95 -17.25 -6.75 -15.85 -4.5 -17.5 -1.3 -20.35 -0.15 -18.35 1.4 -16.15 4.8 -15.45" fill="#f4736d" fill-rule="evenodd" stroke="none"/>
  </g>
</svg>
