<?xml version="1.0" encoding="UTF-8" standalone="no"?>
<svg xmlns:xlink="http://www.w3.org/1999/xlink" height="46.0px" width="31.5px" xmlns="http://www.w3.org/2000/svg">
  <g transform="matrix(1.0, 0.0, 0.0, 1.0, 14.9, 23.3)">
    <path d="M1.1 -12.5 Q2.6 -13.35 2.4 -16.05 1.95 -18.3 0.1 -18.8 L1.1 -12.5 M2.05 22.7 L-2.35 -19.1 4.6 -21.5 6.15 -13.1 Q8.65 -14.25 8.1 -18.2 7.85 -20.35 6.3 -22.1 L9.35 -23.3 16.6 14.45 12.6 16.6 Q13.6 15.5 13.35 13.5 12.95 11.3 10.65 10.2 L11.9 17.0 2.05 22.7 Q-2.9 19.15 -9.5 9.45 -6.65 8.6 -5.65 6.65 -4.85 4.65 -6.6 2.6 -8.25 0.7 -10.75 1.3 L-9.2 -2.85 Q-11.1 -3.2 -11.8 -5.1 -14.0 -5.05 -14.9 -7.55 -11.85 -5.85 -10.9 -8.3 -10.2 -10.85 -7.6 -11.25 -6.6 -11.25 -5.9 -10.85 L-2.35 -19.1 Q-0.8 2.8 2.05 22.7 M8.2 -2.8 Q10.1 -4.0 9.65 -6.9 9.2 -9.3 6.85 -10.05 L8.2 -2.8 M3.5 -7.05 Q3.2 -8.5 1.6 -9.15 1.85 -6.4 2.45 -4.05 3.8 -5.1 3.5 -7.05 M4.3 8.05 Q5.95 5.95 5.55 3.4 5.15 1.05 2.9 -0.25 L4.3 8.05 M9.9 5.85 Q11.05 4.9 11.1 2.8 10.85 0.75 8.85 0.05 L9.9 5.85 M7.15 14.65 Q6.85 12.35 4.55 10.95 L6.0 19.1 Q7.45 17.35 7.15 14.65" fill="#ffffff" fill-rule="evenodd" stroke="none"/>
  </g>
</svg>
