<?xml version="1.0" encoding="UTF-8" standalone="no"?>
<svg xmlns:xlink="http://www.w3.org/1999/xlink" height="47.55px" width="65.35px" xmlns="http://www.w3.org/2000/svg">
  <g transform="matrix(1.0, 0.0, 0.0, 1.0, 37.2, 44.9)">
    <path d="M-33.7 -12.7 L26.65 -9.95 27.0 -6.8 -32.7 -9.5 -33.7 -12.7 M27.8 -0.1 L28.15 2.65 -29.6 0.4 -30.55 -2.6 27.8 -0.1 M-7.55 -33.25 L-7.55 -33.7 -7.45 -33.85 -7.1 -33.9 -7.0 -33.45 -6.95 -33.15 -7.15 -32.95 -7.4 -32.9 -7.55 -33.25 M-4.3 -31.95 L-4.05 -32.15 -3.75 -32.1 -3.5 -31.9 -3.55 -31.6 Q-3.6 -31.35 -3.75 -31.35 L-4.1 -31.45 -4.3 -31.65 -4.3 -31.95 M-2.6 -36.3 L-2.55 -35.8 -2.75 -35.6 -2.95 -35.75 -3.2 -36.1 -3.25 -36.6 -3.15 -36.8 Q-2.95 -36.8 -2.85 -36.6 L-2.6 -36.3 M-10.4 -30.75 L-10.2 -31.0 -9.9 -30.85 -9.7 -30.6 -9.75 -30.2 -9.9 -30.05 -10.25 -30.1 -10.4 -30.35 -10.4 -30.75 M-11.65 -33.05 L-11.8 -32.75 -12.0 -32.9 -12.15 -33.15 -12.15 -33.55 -12.05 -33.7 -11.85 -33.7 -11.65 -33.35 -11.65 -33.05 M-12.25 -39.15 L-11.95 -39.1 -11.7 -38.9 -11.9 -38.55 -12.05 -38.45 -12.4 -38.4 -12.55 -38.7 -12.45 -38.95 -12.25 -39.15 M-3.8 -40.5 L-3.75 -40.05 -4.0 -39.75 -4.3 -39.85 -4.55 -40.2 -4.45 -40.65 -4.35 -40.85 -3.95 -40.85 -3.8 -40.5 M-7.65 -39.3 L-7.35 -39.2 -7.1 -38.95 -7.05 -38.45 Q-7.1 -38.2 -7.3 -38.2 L-7.65 -38.3 -7.85 -38.65 -7.95 -39.05 -7.65 -39.3 M-6.7 -44.6 L-6.6 -44.9 -6.3 -44.7 Q-6.15 -44.6 -6.15 -44.35 L-6.1 -43.85 Q-6.15 -43.7 -6.3 -43.75 L-6.5 -43.75 -6.8 -44.15 -6.7 -44.6 M-10.75 -43.45 L-10.7 -43.7 -10.5 -43.85 -10.2 -43.9 -10.0 -43.7 -10.0 -43.4 -10.2 -43.1 -10.5 -43.2 -10.75 -43.45 M25.95 -16.5 L26.15 -14.65 -35.95 -20.0 -37.2 -23.95 Q-6.85 -21.5 25.95 -16.5" fill="#fff2a4" fill-rule="evenodd" stroke="none"/>
  </g>
</svg>
