<?xml version="1.0" encoding="UTF-8" standalone="no"?>
<svg xmlns:xlink="http://www.w3.org/1999/xlink" height="15.2px" width="19.95px" xmlns="http://www.w3.org/2000/svg">
  <g transform="matrix(1.0, 0.0, 0.0, 1.0, 10.0, 7.6)">
    <path d="M8.55 -6.7 L9.05 -5.85 Q9.75 -4.4 9.95 -1.65 L9.9 -0.35 Q9.55 2.25 7.85 3.3 L6.4 3.65 Q6.35 6.05 4.75 6.4 L3.85 6.25 Q2.45 5.6 0.8 2.9 0.95 5.35 0.0 7.2 -1.15 8.45 -4.0 5.85 L-4.65 6.0 Q-7.05 6.2 -8.45 3.7 -10.3 0.05 -9.95 -2.35 L-9.65 -3.3 -9.55 -3.5 Q-7.4 -6.25 -1.15 -2.5 L-0.4 -3.1 0.65 -2.9 Q3.15 -7.4 6.45 -7.6 L7.4 -7.55 8.2 -7.1 8.55 -6.7" fill="#ffb4ef" fill-rule="evenodd" stroke="none"/>
  </g>
</svg>
