<?xml version="1.0" encoding="UTF-8" standalone="no"?>
<svg xmlns:xlink="http://www.w3.org/1999/xlink" height="38.0px" width="40.7px" xmlns="http://www.w3.org/2000/svg">
  <g transform="matrix(1.0, 0.0, 0.0, 1.0, 20.35, 18.7)">
    <path d="M14.4 -13.05 Q20.35 -7.4 20.35 0.6 L20.3 2.2 Q19.75 9.15 14.4 14.15 L13.95 14.6 Q13.5 13.35 12.55 13.25 L12.15 13.25 Q7.9 14.4 5.65 18.9 4.15 17.8 2.2 19.3 L1.2 18.7 Q-3.65 15.35 -6.5 16.6 -7.2 17.35 -7.25 18.65 -11.2 17.2 -14.4 14.15 -19.7 9.15 -20.25 2.2 L-20.35 0.6 Q-20.35 -7.4 -14.4 -13.05 -8.4 -18.7 0.0 -18.7 8.45 -18.7 14.4 -13.05" fill="#ff9549" fill-rule="evenodd" stroke="none"/>
  </g>
</svg>
