<?xml version="1.0" encoding="UTF-8" standalone="no"?>
<svg xmlns:xlink="http://www.w3.org/1999/xlink" height="14.75px" width="21.75px" xmlns="http://www.w3.org/2000/svg">
  <g transform="matrix(1.0, 0.0, 0.0, 1.0, 10.9, 7.4)">
    <path d="M8.45 -7.4 L8.9 -7.4 Q9.85 -7.3 10.3 -6.05 L10.5 -5.45 Q10.95 -3.8 10.8 -0.7 10.7 3.15 8.6 4.2 L6.4 4.3 Q4.3 7.15 3.25 6.35 L2.95 6.0 1.05 2.2 0.1 6.4 Q-0.25 7.2 -0.85 7.35 -1.8 7.55 -3.45 6.05 -4.35 6.85 -5.15 6.8 L-6.7 6.45 Q-8.15 5.8 -9.2 3.95 -10.9 0.4 -10.9 -1.75 L-10.9 -2.0 Q-10.85 -3.3 -10.15 -4.05 -7.3 -5.3 -2.45 -1.95 L-1.15 -0.95 -1.0 -0.8 -0.95 -0.95 Q-0.65 -1.45 0.05 -1.65 0.95 -1.9 1.5 -1.4 L1.65 -1.25 1.75 -1.45 Q5.0 -7.1 8.45 -7.4" fill="#b37ffd" fill-rule="evenodd" stroke="none"/>
  </g>
</svg>
