<?xml version="1.0" encoding="UTF-8" standalone="no"?>
<svg xmlns:xlink="http://www.w3.org/1999/xlink" height="55.05px" width="50.6px" xmlns="http://www.w3.org/2000/svg">
  <g transform="matrix(1.0, 0.0, 0.0, 1.0, 25.3, 27.55)">
    <path d="M16.5 -13.95 Q20.05 -9.05 22.3 -3.55 L22.55 -2.85 Q24.3 1.7 25.1 6.65 L25.25 7.3 25.3 7.5 Q25.65 15.75 17.55 22.4 10.3 28.45 -1.4 27.35 L-4.4 27.0 -4.65 24.3 -4.85 22.6 -4.95 22.15 -4.95 21.9 Q-5.65 18.2 -6.95 14.5 L-7.35 13.5 -7.6 12.75 -9.1 9.4 -11.55 5.0 -12.1 4.1 -13.2 2.45 -13.55 1.9 Q-15.25 -0.6 -17.0 -2.55 L-20.3 -5.75 -21.2 -6.55 Q-23.25 -8.1 -25.3 -8.95 L-24.35 -11.5 Q-20.7 -19.15 -12.35 -24.75 -2.95 -30.4 6.25 -24.55 L7.25 -23.85 7.35 -23.8 Q12.3 -19.55 15.9 -14.75 L16.5 -13.95 M-4.3 -8.5 Q-5.65 -12.55 -8.25 -15.35 -11.8 -11.35 -12.95 -8.25 L-4.3 -8.5 M1.85 16.75 L10.55 16.45 Q9.2 12.45 6.6 9.65 3.05 13.65 1.85 16.75 M1.2 -8.95 L3.45 -9.55 Q4.4 -8.8 4.55 -7.65 L2.6 -6.2 Q5.05 -2.7 7.45 2.2 L9.5 1.45 Q10.55 2.25 10.7 3.5 9.7 4.3 8.55 4.75 L9.65 8.55 Q12.2 6.9 13.55 4.9 L14.6 3.0 Q16.15 -1.25 13.3 -6.8 11.4 -10.1 9.15 -11.9 L8.05 -12.65 Q3.6 -15.3 -2.2 -12.4 L1.2 -8.95" fill="#ff9466" fill-rule="evenodd" stroke="none"/>
  </g>
</svg>
