<?xml version="1.0" encoding="UTF-8" standalone="no"?>
<svg xmlns:xlink="http://www.w3.org/1999/xlink" height="53.4px" width="48.9px" xmlns="http://www.w3.org/2000/svg">
  <g transform="matrix(1.0, 0.0, 0.0, 1.0, 24.45, 26.7)">
    <path d="M23.15 -16.95 Q23.5 -14.8 24.0 -13.0 25.35 -9.1 22.8 -8.05 21.2 -7.35 19.9 -10.15 18.2 -8.35 16.1 -7.6 11.35 -6.05 10.0 -2.95 11.3 -0.55 10.15 0.45 8.6 1.35 6.9 -0.75 8.6 3.15 7.3 6.0 4.75 10.1 0.9 10.4 -0.9 17.4 -3.3 21.8 -7.05 28.1 -10.35 26.3 -13.05 24.95 -10.7 18.7 -8.5 13.15 -4.2 9.25 -7.75 8.45 -9.9 5.05 L-16.15 14.5 Q-20.0 20.1 -23.25 17.55 -26.8 14.45 -20.0 6.5 -16.95 3.4 -12.3 0.65 -12.35 -4.1 -8.8 -7.4 -7.35 -8.65 -5.1 -8.9 -2.85 -9.2 -0.1 -13.2 L-0.05 -13.3 Q2.7 -17.6 5.35 -22.7 9.45 -29.5 17.0 -24.8 22.45 -21.1 23.15 -16.95" fill="#8c3e3a" fill-rule="evenodd" stroke="none"/>
  </g>
</svg>
