<?xml version="1.0" encoding="UTF-8" standalone="no"?>
<svg xmlns:xlink="http://www.w3.org/1999/xlink" height="52.95px" width="37.2px" xmlns="http://www.w3.org/2000/svg">
  <g transform="matrix(1.0, 0.0, 0.0, 1.0, 18.6, 26.45)">
    <path d="M-17.7 25.35 L-17.75 25.35 -17.35 24.05 -17.7 25.35" fill="#00561f" fill-rule="evenodd" stroke="none"/>
    <path d="M-9.75 18.6 L-17.85 25.75 -17.7 25.35 -9.75 18.6" fill="#3cff8e" fill-rule="evenodd" stroke="none"/>
    <path d="M-3.75 -23.5 L-1.8 -21.25 4.6 -22.55 14.15 -11.35 12.1 -4.95 14.35 -2.35 6.9 -1.5 5.9 -2.65 -8.5 -19.45 M-17.75 25.35 L-17.35 24.05 -15.15 15.9 5.9 -2.65 M12.1 -4.95 L-1.8 -21.25" fill="none" stroke="#000000" stroke-linecap="round" stroke-linejoin="round" stroke-width="1.5"/>
    <path d="M14.35 -2.35 L17.85 -12.25 6.35 -25.7 -3.75 -23.5 -8.5 -19.45 M14.35 -2.35 L-9.75 18.6 -17.85 25.75 -17.7 25.35 -17.35 24.05" fill="none" stroke="#000000" stroke-linecap="round" stroke-linejoin="round" stroke-opacity="0.56078434" stroke-width="1.5"/>
  </g>
</svg>
