<?xml version="1.0" encoding="UTF-8" standalone="no"?>
<svg xmlns:xlink="http://www.w3.org/1999/xlink" height="103.85px" width="46.2px" xmlns="http://www.w3.org/2000/svg">
  <g transform="matrix(1.0, 0.0, 0.0, 1.0, 23.1, 51.95)">
    <path d="M-8.95 -39.3 L-3.4 -39.05 -3.05 -46.25 -3.05 -46.65 -2.95 -47.2 Q-2.8 -48.8 -1.6 -49.9 -0.2 -51.25 1.75 -51.2 3.7 -51.1 5.0 -49.65 6.25 -48.35 6.25 -46.6 L5.85 -21.8 Q10.1 -19.85 11.7 -15.45 L11.15 9.1 Q15.6 7.75 18.1 11.15 L17.9 23.55 Q17.05 25.65 13.8 24.15 L22.35 51.15 10.05 50.05 2.4 49.3 Q3.55 36.7 4.3 24.3 2.8 29.95 -2.2 30.3 -6.9 29.55 -6.4 23.9 L-5.5 5.35 -12.25 5.4 -11.95 7.15 -10.6 15.9 -22.35 15.55 -19.4 7.7 -18.3 -18.85 -20.9 -25.0 -8.4 -24.4 -11.0 -18.3 -11.25 -15.0 -4.5 -14.95 -3.4 -39.05 M-3.05 -46.25 L-2.95 -47.2 M-11.0 -18.3 L-18.3 -18.85 M-11.95 7.15 L-19.4 7.7 M13.8 24.15 L10.95 15.35 11.15 9.1 M9.95 37.8 Q9.4 38.3 8.65 38.25 7.9 38.2 7.35 37.65 6.9 37.15 6.9 36.3 6.9 35.65 7.45 35.15 8.0 34.65 8.8 34.6 9.5 34.65 10.0 35.25 10.5 35.8 10.55 36.5 10.5 37.25 9.95 37.8 M10.05 50.05 L9.55 41.0 M4.3 24.3 Q5.7 0.85 5.85 -21.8 M-12.25 5.4 L-11.25 -15.0 M-5.5 5.35 L-4.5 -14.95" fill="none" stroke="#000000" stroke-linecap="round" stroke-linejoin="round" stroke-width="1.5"/>
  </g>
</svg>
