<?xml version="1.0" encoding="UTF-8" standalone="no"?>
<svg xmlns:xlink="http://www.w3.org/1999/xlink" height="52.4px" width="73.85px" xmlns="http://www.w3.org/2000/svg">
  <g transform="matrix(1.0, 0.0, 0.0, 1.0, 19.15, 49.5)">
    <path d="M31.1 -31.6 Q28.75 -29.8 24.3 -30.2 23.4 -37.05 27.75 -41.45 32.55 -39.05 33.15 -36.3 33.4 -35.1 32.9 -33.85 32.2 -32.5 31.1 -31.6 M15.25 -8.3 Q18.75 -5.15 19.45 -2.75 19.95 -1.1 19.2 0.25 18.5 1.5 17.3 2.15 14.9 3.6 10.45 2.2 10.6 -4.55 15.25 -8.3 M51.1 -29.5 L49.95 -31.45 Q48.4 -34.15 49.95 -35.0 51.65 -35.65 53.65 -33.05 L54.7 -31.4 Q53.2 -29.35 51.1 -29.5 M-5.3 -44.85 Q-6.4 -47.05 -5.85 -49.5 -3.2 -48.85 -0.9 -47.35 -3.5 -46.4 -5.3 -44.85 M-3.1 -25.75 Q-4.4 -25.75 -4.3 -26.9 -4.05 -27.65 -2.95 -28.0 -3.7 -28.8 -3.2 -29.6 L-1.75 -29.65 Q-0.65 -28.5 -0.05 -27.15 -1.5 -26.15 -3.1 -25.75 M-19.15 -16.45 Q-18.2 -17.9 -15.85 -19.25 L-15.05 -15.35 Q-17.55 -14.85 -19.15 -16.45" fill="#ffffff" fill-rule="evenodd" stroke="none"/>
  </g>
</svg>
