<?xml version="1.0" encoding="UTF-8" standalone="no"?>
<svg xmlns:xlink="http://www.w3.org/1999/xlink" height="21.9px" width="22.1px" xmlns="http://www.w3.org/2000/svg">
  <g transform="matrix(1.0, 0.0, 0.0, 1.0, 7.0, 23.9)">
    <path d="M12.55 -22.55 Q12.5 -22.15 11.9 -21.9 L10.55 -21.8 9.2 -22.3 Q8.7 -22.65 8.75 -23.05 8.75 -23.45 9.4 -23.7 L10.75 -23.85 12.1 -23.35 Q12.65 -23.0 12.55 -22.55 M13.05 -15.1 L14.45 -15.05 15.1 -14.4 Q15.15 -13.95 14.65 -13.65 14.15 -13.2 13.35 -13.15 L11.95 -13.2 Q11.4 -13.45 11.3 -13.85 11.25 -14.3 11.75 -14.6 12.25 -15.05 13.05 -15.1 M2.3 -10.2 Q1.8 -9.9 1.0 -9.75 L-0.35 -9.8 Q-1.0 -10.1 -1.05 -10.5 -1.1 -10.9 -0.6 -11.25 -0.05 -11.7 0.7 -11.75 L2.05 -11.6 Q2.75 -11.4 2.8 -11.05 2.8 -10.6 2.3 -10.2 M7.25 -3.65 Q6.95 -4.25 7.25 -4.65 L8.1 -4.8 9.4 -4.25 10.25 -3.2 10.3 -2.3 Q10.0 -1.9 9.4 -2.05 8.8 -2.1 8.15 -2.6 L7.25 -3.65 M-3.2 -18.2 Q-3.15 -17.8 -3.65 -17.45 -4.15 -17.05 -4.9 -16.9 L-6.35 -17.0 -7.0 -17.7 Q-7.05 -18.1 -6.55 -18.45 L-5.2 -18.95 -3.85 -18.85 Q-3.25 -18.65 -3.2 -18.2" fill="#000000" fill-rule="evenodd" stroke="none"/>
  </g>
</svg>
