<?xml version="1.0" encoding="UTF-8" standalone="no"?>
<svg xmlns:xlink="http://www.w3.org/1999/xlink" height="60.5px" width="65.0px" xmlns="http://www.w3.org/2000/svg">
  <g transform="matrix(1.0, 0.0, 0.0, 1.0, 0.75, 0.75)">
    <path d="M18.75 16.8 L19.7 14.85 Q19.05 19.55 20.55 22.6 19.25 20.55 18.75 16.8" fill="#d03c3c" fill-rule="evenodd" stroke="none"/>
    <path d="M22.6 31.75 L23.3 31.55 22.9 32.25 22.6 31.75" fill="#4f0b0b" fill-rule="evenodd" stroke="none"/>
    <path d="M19.7 14.85 L20.0 13.0 Q21.45 7.95 19.75 4.95 22.05 5.0 24.2 5.6 L27.1 0.25 Q30.2 -0.45 33.25 0.9 L34.15 3.65 55.3 5.9 57.75 13.65 60.45 22.05 63.5 31.85 57.05 43.55 52.95 50.9 48.95 58.3 27.3 55.95 27.25 56.05 25.7 58.3 19.25 57.9 Q18.25 58.8 17.45 59.0 15.5 59.15 14.0 58.1 L12.85 57.2 Q6.1 51.45 4.0 43.85 L3.75 42.8 Q3.05 39.65 5.55 36.8 8.2 34.6 12.45 32.75 L14.15 32.5 13.75 28.55 14.1 27.85 13.55 27.95 Q9.55 28.8 6.35 28.05 1.05 26.8 0.0 21.1 -0.1 18.95 1.3 14.75 3.2 10.35 5.75 7.4 L6.3 6.7 Q9.55 3.55 14.4 6.6 18.3 9.85 18.6 15.25 L18.75 16.8 19.7 14.85 Q19.05 19.55 20.55 22.6 L21.4 22.4 Q22.1 22.0 22.6 22.0 L23.05 22.0 23.8 22.25 Q24.95 18.1 28.25 17.4 32.55 14.3 32.85 11.45 31.85 11.25 30.5 9.95 L28.25 7.7 Q26.4 6.35 24.2 5.6 M60.45 22.05 L38.4 19.7 40.75 29.7 40.85 30.15 36.0 40.8 35.85 41.05 57.05 43.55 M34.15 3.65 L36.0 10.4 36.3 11.2 36.25 11.35 57.75 13.65 M36.0 10.4 L30.5 9.95 M36.25 11.35 L38.15 18.75 38.4 19.7 M23.8 22.25 Q24.9 22.8 25.45 25.1 L25.5 26.1 26.2 26.2 30.55 18.05 38.15 18.75 M17.15 20.35 Q12.05 18.75 8.95 15.25 5.5 10.8 7.25 8.1 9.7 5.2 13.15 8.25 16.3 10.6 16.75 15.65 16.85 18.15 17.45 19.7 L17.9 20.55 17.15 20.35 M20.55 22.6 L19.2 23.4 19.05 23.55 Q17.7 24.7 17.4 26.85 16.9 28.35 17.2 29.6 17.5 30.25 17.95 30.7 L18.5 31.0 20.0 31.5 21.55 31.6 22.6 31.75 23.3 31.55 24.35 31.05 24.85 30.55 25.05 30.25 Q25.55 29.5 25.6 28.3 L25.55 27.3 25.5 26.1 M20.0 31.5 Q19.1 32.65 17.2 33.65 L15.15 34.75 14.45 34.9 Q9.45 36.1 7.45 38.25 5.2 39.9 7.25 42.5 10.3 44.2 14.45 42.35 L15.15 41.85 Q21.55 37.45 21.55 31.6 M14.15 32.5 Q16.45 32.1 17.95 30.7 M17.4 26.85 L14.1 27.85 M23.3 31.55 L22.9 32.25 Q24.5 35.45 25.15 42.0 L24.05 48.9 31.25 49.7 31.75 48.7 31.8 48.65 35.6 41.8 27.35 40.55 25.55 33.6 Q24.8 32.4 24.35 31.05 M22.6 31.75 L22.9 32.25 M35.85 41.05 L35.6 41.8 M25.55 33.6 Q28.8 38.55 36.1 38.4 37.05 35.35 35.8 30.2 34.9 27.9 36.65 24.0 31.05 26.75 26.2 26.2 M18.75 16.8 Q19.25 20.55 20.55 22.6 M31.25 49.7 L27.3 55.95 M24.05 48.9 L22.8 53.05 Q20.95 56.45 19.25 57.9 M31.8 48.65 L52.95 50.9" fill="none" stroke="#000000" stroke-linecap="round" stroke-linejoin="round" stroke-width="1.5"/>
  </g>
</svg>
