<?xml version="1.0" encoding="UTF-8" standalone="no"?>
<svg xmlns:xlink="http://www.w3.org/1999/xlink" height="51.7px" width="49.9px" xmlns="http://www.w3.org/2000/svg">
  <g transform="matrix(1.0, 0.0, 0.0, 1.0, 0.0, 0.0)">
    <path d="M15.25 51.7 L14.25 49.5 14.3 49.45 18.9 37.9 20.85 36.15 Q24.05 36.6 27.95 35.5 L28.75 32.8 Q29.1 29.85 27.95 26.45 33.0 26.1 34.55 30.15 38.25 28.1 39.0 22.25 36.55 21.15 31.45 21.85 L25.6 21.5 29.35 12.05 Q39.2 8.15 34.45 6.35 L32.05 5.45 33.15 2.75 Q40.75 5.3 47.8 10.55 L49.9 14.25 Q42.05 33.7 32.4 43.45 L32.25 43.55 Q24.45 49.75 21.4 51.05 L15.25 51.7 M5.05 47.35 L3.6 46.1 Q1.35 43.7 0.5 39.5 -0.75 31.55 7.8 22.2 -0.35 21.0 0.0 13.75 1.35 2.85 13.35 0.2 16.4 -0.1 19.4 0.1 L26.75 0.95 25.65 3.55 24.5 2.05 24.2 1.7 23.35 1.6 Q20.8 1.4 17.65 4.65 15.0 4.45 12.1 6.6 11.7 12.6 17.7 17.35 L17.35 18.5 Q17.0 20.25 17.95 21.6 L18.25 21.95 7.45 48.65 7.25 48.55 5.05 47.35" fill="#d73030" fill-rule="evenodd" stroke="none"/>
  </g>
</svg>
