<?xml version="1.0" encoding="UTF-8" standalone="no"?>
<svg xmlns:xlink="http://www.w3.org/1999/xlink" height="49.95px" width="22.8px" xmlns="http://www.w3.org/2000/svg">
  <g transform="matrix(1.0, 0.0, 0.0, 1.0, 11.4, 24.95)">
    <path d="M-2.4 -1.6 L3.85 0.05 6.85 2.7 1.55 5.9 -1.9 4.8 -0.35 7.15 -6.75 4.0 -5.15 0.95 -6.4 0.4 -2.4 -1.6 M0.8 -14.1 L10.3 -14.95 2.95 -8.15 5.85 -4.7 4.1 -5.35 4.45 -2.95 -9.6 -10.6 -7.35 -12.0 -9.95 -12.6 Q-6.6 -13.85 0.8 -14.1 M-6.35 -12.35 Q-3.15 -8.45 2.5 -5.4 L0.55 -9.75 Q5.55 -11.75 8.4 -14.1 -1.25 -11.85 -6.35 -12.35 M-10.7 -24.25 L-10.65 -24.7 -7.55 -24.9 Q-6.6 -22.5 3.15 -18.2 L3.95 -19.5 5.85 -18.15 Q10.15 -21.5 8.85 -24.65 L11.4 -23.85 Q10.3 -18.95 4.45 -15.4 L3.65 -17.25 2.65 -15.6 -4.9 -20.65 -4.35 -18.95 -10.7 -24.25 M7.1 16.5 Q9.65 20.95 8.4 22.95 5.6 25.35 0.25 24.95 -5.1 24.55 -8.4 22.6 -11.7 20.65 -11.35 16.55 -1.65 19.45 5.85 16.9 L7.1 16.5 M-2.05 -0.05 L-4.85 2.4 0.15 3.9 5.4 2.25 -2.05 -0.05" fill="#cccccc" fill-rule="evenodd" stroke="none"/>
  </g>
</svg>
