<?xml version="1.0" encoding="UTF-8" standalone="no"?>
<svg xmlns:xlink="http://www.w3.org/1999/xlink" height="25.3px" width="48.2px" xmlns="http://www.w3.org/2000/svg">
  <g transform="matrix(1.0, 0.0, 0.0, 1.0, 24.1, 12.65)">
    <path d="M17.6 -6.25 L16.65 -6.25 -13.75 -7.25 Q-13.85 -4.5 -13.45 -1.85 L-13.0 0.6 -11.9 4.3 -11.85 4.4 -11.15 6.1 Q-18.7 2.55 -21.4 -7.0 -23.15 -8.9 -24.1 -12.65 L20.1 -10.3 Q23.5 -6.5 24.1 -3.4 22.1 -4.65 18.35 -6.1 L18.65 -6.0 17.6 -6.25 M-1.35 10.6 Q0.05 10.4 4.45 10.6 L10.75 11.0 11.85 11.2 Q3.25 14.25 -2.05 10.85 L-1.35 10.6" fill="#1e1e1e" fill-rule="evenodd" stroke="none"/>
  </g>
</svg>
