<?xml version="1.0" encoding="UTF-8" standalone="no"?>
<svg xmlns:xlink="http://www.w3.org/1999/xlink" height="32.7px" width="47.6px" xmlns="http://www.w3.org/2000/svg">
  <g transform="matrix(1.0, 0.0, 0.0, 1.0, 23.8, 16.35)">
    <path d="M18.3 11.75 L20.0 11.1 Q9.5 18.55 -5.4 15.45 -16.2 10.8 -20.25 0.15 L-21.05 -2.2 Q-21.85 -4.8 -23.8 -8.1 -16.65 -15.15 -1.95 -16.35 12.3 -16.05 20.8 -8.95 23.65 -5.5 23.8 -2.9 L22.05 -4.25 20.6 -5.25 Q10.15 -12.25 0.0 -11.85 -10.1 -11.55 -14.85 -5.65 L-14.8 -5.25 -13.9 -1.35 Q-13.05 2.05 -9.9 6.15 -6.7 10.35 -4.15 11.85 L-1.15 13.6 Q6.85 15.7 17.2 12.2 L18.3 11.75" fill="#000000" fill-rule="evenodd" stroke="none"/>
    <path d="M18.3 11.75 L20.0 11.1 Q9.5 18.55 -5.4 15.45 -16.2 10.8 -20.25 0.15 L-21.05 -2.2 Q-21.85 -4.8 -23.8 -8.1 -16.65 -15.15 -1.95 -16.35 12.3 -16.05 20.8 -8.95 23.65 -5.5 23.8 -2.9 L22.05 -4.25 20.6 -5.25 Q10.15 -12.25 0.0 -11.85 -10.1 -11.55 -14.85 -5.65 L-14.8 -5.25 -13.9 -1.35 Q-13.05 2.05 -9.9 6.15 -6.7 10.35 -4.15 11.85 L-1.15 13.6 Q6.85 15.7 17.2 12.2 L18.3 11.75 Z" fill="none" stroke="#000000" stroke-linecap="round" stroke-linejoin="round" stroke-width="0.05"/>
  </g>
</svg>
