<?xml version="1.0" encoding="UTF-8" standalone="no"?>
<svg xmlns:xlink="http://www.w3.org/1999/xlink" height="17.8px" width="23.25px" xmlns="http://www.w3.org/2000/svg">
  <g transform="matrix(1.0, 0.0, 0.0, 1.0, 11.6, 8.9)">
    <path d="M7.8 6.25 Q4.55 8.9 0.0 8.9 -4.75 8.95 -7.9 6.05 L-7.85 6.05 Q-11.15 3.15 -11.55 -2.35 -11.8 -6.35 -9.95 -8.9 L-7.75 -8.8 Q-9.0 -7.55 -9.5 -5.8 -9.95 -4.35 -9.85 -2.45 -9.65 1.65 -7.5 4.1 L-6.8 4.8 Q-4.05 7.25 0.0 7.2 3.95 7.2 6.8 4.95 L8.3 3.3 Q9.7 1.2 9.9 -2.05 10.1 -4.5 9.35 -6.35 L8.05 -8.35 10.2 -8.3 Q11.85 -5.65 11.6 -1.95 11.15 3.55 7.8 6.25" fill="#000000" fill-rule="evenodd" stroke="none"/>
  </g>
</svg>
