<?xml version="1.0" encoding="UTF-8" standalone="no"?>
<svg xmlns:xlink="http://www.w3.org/1999/xlink" height="24.1px" width="43.6px" xmlns="http://www.w3.org/2000/svg">
  <g transform="matrix(1.0, 0.0, 0.0, 1.0, 22.05, 12.25)">
    <path d="M18.65 -8.6 L-19.05 -7.15 -22.05 -6.8 -19.85 -8.45 -20.95 -10.2 -16.85 -10.65 Q-4.55 -12.55 11.5 -12.2 17.55 -12.05 21.55 -10.85 20.55 -9.65 18.2 -10.05 20.6 -9.45 20.85 -8.55 L18.65 -8.6 M17.5 5.55 L19.65 4.4 Q19.75 5.55 17.9 6.7 12.95 9.95 2.3 10.3 L-8.35 9.6 -10.4 11.5 Q-11.1 10.8 -9.9 9.4 L-12.75 8.95 -15.45 11.85 Q-15.7 9.6 -14.5 8.65 -16.4 7.9 -17.7 7.0 -19.05 6.0 -18.6 5.35 L-17.1 5.8 Q-10.55 8.35 1.9 8.65 11.4 8.0 17.15 5.6 L17.5 5.55" fill="#000000" fill-rule="evenodd" stroke="none"/>
  </g>
</svg>
