<?xml version="1.0" encoding="UTF-8" standalone="no"?>
<svg xmlns:xlink="http://www.w3.org/1999/xlink" height="33.1px" width="65.3px" xmlns="http://www.w3.org/2000/svg">
  <g transform="matrix(1.0, 0.0, 0.0, 1.0, 32.65, 16.55)">
    <path d="M29.45 0.2 L28.6 -0.65 Q24.5 -4.15 18.15 -4.9 12.85 -5.1 9.5 -4.15 6.5 -3.1 4.2 -0.7 4.65 1.75 5.45 4.25 6.2 6.9 7.35 9.55 8.5 12.5 15.85 13.65 L24.8 13.5 25.3 13.5 25.5 13.5 25.65 13.5 25.8 13.5 25.85 13.5 Q23.9 15.45 15.1 14.75 14.8 15.5 13.45 16.55 L12.7 14.0 11.05 16.4 10.2 13.65 8.15 15.9 7.85 12.95 Q5.9 11.55 4.7 9.2 1.2 11.05 -2.25 11.25 1.4 9.45 2.3 6.55 -6.0 9.55 -14.75 9.2 -7.95 7.1 -5.1 4.0 -19.45 3.55 -32.65 -3.0 -13.6 -2.35 -0.95 -9.65 -6.0 -11.25 -9.2 -16.55 -5.0 -12.65 2.75 -12.05 23.0 -16.55 31.85 -5.1 32.5 -4.25 32.65 -2.95 L30.25 -3.1 Q30.6 -0.95 29.45 0.2" fill="#290143" fill-rule="evenodd" stroke="none"/>
  </g>
</svg>
