<?xml version="1.0" encoding="UTF-8" standalone="no"?>
<svg xmlns:xlink="http://www.w3.org/1999/xlink" height="54.25px" width="90.6px" xmlns="http://www.w3.org/2000/svg">
  <g transform="matrix(1.0, 0.0, 0.0, 1.0, 45.3, 27.1)">
    <path d="M-25.25 13.6 Q-30.8 12.1 -34.8 9.75 -45.7 3.25 -44.4 -5.6 -43.1 -14.45 -33.5 -20.4 -25.4 -25.4 -7.85 -26.2 L0.85 -26.35 1.7 -26.35 1.8 -26.35 Q24.1 -26.25 33.5 -20.4 43.05 -14.45 44.4 -5.6 45.75 3.25 34.85 9.75 24.15 16.1 1.8 16.2 L1.7 16.2 0.85 16.2 -7.85 16.05 -10.8 15.9 -10.8 16.0 Q-10.8 17.65 -11.75 18.95 -10.5 19.15 -9.55 20.0 -8.35 21.1 -8.35 22.65 -8.35 24.2 -9.55 25.3 -10.75 26.4 -12.45 26.4 -14.15 26.4 -15.35 25.3 -16.55 24.2 -16.55 22.65 L-16.45 21.9 -18.3 22.05 Q-21.4 22.05 -23.6 20.25 -25.8 18.5 -25.8 16.0 -25.8 14.7 -25.25 13.6 -24.65 12.6 -23.6 11.75 -21.4 10.0 -18.3 10.0 -15.2 10.0 -13.05 11.75 -10.9 13.45 -10.8 15.9 -10.9 13.45 -13.05 11.75 -15.2 10.0 -18.3 10.0 -21.4 10.0 -23.6 11.75 -24.65 12.6 -25.25 13.6 M-11.75 18.95 L-12.45 18.9 Q-14.15 18.9 -15.35 20.0 -16.25 20.8 -16.45 21.9 -16.25 20.8 -15.35 20.0 -14.15 18.9 -12.45 18.9 L-11.75 18.95" fill="#d7fdff" fill-rule="evenodd" stroke="none"/>
    <path d="M-25.25 13.6 Q-30.8 12.1 -34.8 9.75 -45.7 3.25 -44.4 -5.6 -43.1 -14.45 -33.5 -20.4 -25.4 -25.4 -7.85 -26.2 L0.85 -26.35 1.7 -26.35 1.8 -26.35 Q24.1 -26.25 33.5 -20.4 43.05 -14.45 44.4 -5.6 45.75 3.25 34.85 9.75 24.15 16.1 1.8 16.2 L1.7 16.2 0.85 16.2 -7.85 16.05 -10.8 15.9 -10.8 16.0 Q-10.8 17.65 -11.75 18.95 -10.5 19.15 -9.55 20.0 -8.35 21.1 -8.35 22.65 -8.35 24.2 -9.55 25.3 -10.75 26.4 -12.45 26.4 -14.15 26.4 -15.35 25.3 -16.55 24.2 -16.55 22.65 L-16.45 21.9 -18.3 22.05 Q-21.4 22.05 -23.6 20.25 -25.8 18.5 -25.8 16.0 -25.8 14.7 -25.25 13.6 -24.65 12.6 -23.6 11.75 -21.4 10.0 -18.3 10.0 -15.2 10.0 -13.05 11.75 -10.9 13.45 -10.8 15.9 M-16.45 21.9 Q-16.25 20.8 -15.35 20.0 -14.15 18.9 -12.45 18.9 L-11.75 18.95" fill="none" stroke="#000000" stroke-linecap="round" stroke-linejoin="round" stroke-width="1.5"/>
  </g>
</svg>
