<?xml version="1.0" encoding="UTF-8" standalone="no"?>
<svg xmlns:xlink="http://www.w3.org/1999/xlink" height="43.35px" width="105.1px" xmlns="http://www.w3.org/2000/svg">
  <g transform="matrix(1.0, 0.0, 0.0, 1.0, 52.55, 21.65)">
    <path d="M10.45 -11.2 L9.65 -11.4 Q8.8 -11.6 8.8 -12.15 8.8 -12.55 9.65 -12.8 10.45 -13.2 11.65 -13.2 L13.7 -12.8 14.55 -12.15 Q14.55 -11.6 13.7 -11.4 L12.5 -11.2 12.5 -7.85 14.15 -7.45 14.15 -5.9 15.65 -5.9 19.05 -5.95 19.75 -5.95 21.45 -6.0 21.5 -6.0 21.65 -6.0 34.65 -7.1 Q43.15 -7.85 47.4 -16.15 48.05 -20.75 49.5 -20.9 50.9 -20.65 51.5 -16.6 52.15 -0.95 51.5 15.7 50.85 20.55 49.4 19.6 48.05 19.05 46.15 15.1 37.0 5.15 26.9 4.9 28.2 10.85 25.7 14.2 24.75 17.5 15.0 17.5 L14.15 17.55 14.15 18.3 14.15 20.3 Q13.9 20.9 11.65 20.95 9.45 21.0 9.1 20.3 L9.1 18.3 9.1 17.6 7.0 17.6 7.0 18.3 7.0 20.3 Q6.85 20.9 4.55 20.95 2.3 21.0 2.05 20.3 L2.05 18.3 2.05 17.65 1.8 17.65 -0.1 17.65 -0.1 18.3 -0.1 20.3 Q-0.3 20.9 -2.55 20.95 -4.85 21.0 -5.05 20.3 L-5.05 18.3 -5.05 17.65 -6.45 17.65 -19.35 17.4 Q-25.85 17.2 -28.7 13.15 -31.55 9.05 -30.4 3.9 L-42.05 3.9 -42.15 3.45 -43.7 3.45 -47.95 6.75 Q-48.55 8.0 -49.4 8.0 -50.4 8.0 -51.1 6.3 -51.8 4.55 -51.8 2.15 L-51.8 1.55 -51.8 1.05 Q-51.8 -1.4 -51.1 -3.05 -50.4 -4.8 -49.4 -4.8 -48.55 -4.8 -47.95 -3.5 L-43.7 -0.25 -42.15 -0.25 -42.1 -0.4 -42.05 -0.7 -29.55 -0.7 -28.35 -2.3 Q-25.6 -5.4 -20.4 -5.75 L-19.35 -5.75 -5.05 -5.85 -5.05 -7.45 -3.7 -7.85 -3.7 -11.2 -4.6 -11.4 Q-5.45 -11.6 -5.45 -12.15 -5.45 -12.55 -4.6 -12.8 L-2.55 -13.2 Q-1.4 -13.2 -0.5 -12.8 0.3 -12.55 0.3 -12.15 0.3 -11.6 -0.5 -11.4 L-1.65 -11.2 -1.65 -7.85 Q-0.25 -7.7 -0.1 -7.45 L-0.1 -5.85 2.05 -5.85 2.05 -7.45 3.45 -7.85 3.45 -11.2 2.5 -11.4 Q1.65 -11.6 1.65 -12.15 1.65 -12.55 2.5 -12.8 3.4 -13.2 4.55 -13.2 L6.5 -12.8 Q7.45 -12.55 7.45 -12.15 7.45 -11.6 6.5 -11.4 L5.4 -11.2 5.4 -7.85 7.0 -7.45 7.0 -5.85 9.1 -5.85 9.1 -7.45 10.45 -7.85 10.45 -11.2 11.65 -11.15 12.5 -11.2 M3.45 -7.85 L4.5 -7.9 5.4 -7.85 M5.4 -11.2 L4.55 -11.15 3.45 -11.2 M-0.1 -5.85 L-0.1 -0.7 2.05 -0.7 2.05 -5.85 M7.0 -5.85 L7.0 -0.7 9.1 -0.7 9.1 -5.85 M2.05 -0.7 L7.0 -0.7 M10.45 -7.85 L11.65 -7.9 12.5 -7.85 M14.15 -5.9 L14.15 -0.7 18.4 -0.7 Q23.5 -0.2 25.7 2.5 L26.9 4.9 M9.1 -0.7 L14.15 -0.7 M-30.4 3.9 L-23.8 3.9 -5.05 3.9 -0.1 3.9 2.05 3.9 7.0 3.9 9.1 3.9 14.15 3.9 17.0 3.9 Q20.5 4.25 21.15 7.45 21.5 10.05 20.45 11.3 19.6 12.2 18.05 12.35 L17.65 12.4 14.15 12.55 14.15 17.55 M14.15 3.9 L14.15 7.4 16.2 7.4 Q20.25 7.7 20.45 11.3 M14.15 7.4 L14.15 10.5 Q17.65 10.65 17.65 12.4 M9.1 17.6 L9.1 12.9 7.0 12.9 7.0 17.6 M2.05 17.65 L2.05 12.95 1.8 12.95 -0.1 12.95 -0.1 17.65 M7.0 18.3 Q6.85 18.9 4.55 19.05 2.3 19.05 2.05 18.3 M14.15 18.3 Q13.9 18.9 11.65 19.05 9.45 19.05 9.1 18.3 M7.0 3.9 L7.0 12.9 M9.1 12.9 L9.1 3.9 M14.15 10.5 L14.15 12.55 M2.05 12.95 L2.05 3.9 M-1.65 -11.2 L-2.55 -11.15 -3.7 -11.2 M-3.7 -7.85 L-2.6 -7.9 -1.65 -7.85 M-29.55 -0.7 L-5.05 -0.7 -5.05 -5.85 M-5.05 -0.7 L-0.1 -0.7 M-23.8 3.9 Q-24.65 5.9 -24.05 8.45 -23.35 11.25 -19.45 12.2 -19.35 8.0 -15.2 7.25 L-5.05 7.25 -5.05 3.9 M-19.45 12.2 L-18.75 12.3 -15.05 12.5 Q-14.9 11.2 -12.8 10.65 L-5.05 10.65 -5.05 7.25 M-5.05 17.65 L-5.05 12.9 -6.45 12.9 -15.05 12.5 M-0.1 18.3 Q-0.3 18.9 -2.55 19.05 -4.85 19.05 -5.05 18.3 M-0.1 3.9 L-0.1 12.95 M-5.05 12.9 L-5.05 10.65 M-42.15 -0.25 L-42.45 1.75 -42.15 3.45 M-47.95 -3.5 Q-49.75 -2.75 -49.7 1.55 -49.75 5.9 -47.95 6.75" fill="none" stroke="#574124" stroke-linecap="round" stroke-linejoin="round" stroke-width="1.5"/>
    <path d="M47.65 -13.4 Q46.2 -0.05 47.65 14.1" fill="none" stroke="#574124" stroke-linecap="round" stroke-linejoin="round" stroke-opacity="0.45882353" stroke-width="1.5"/>
  </g>
</svg>
