<?xml version="1.0" encoding="UTF-8" standalone="no"?>
<svg xmlns:xlink="http://www.w3.org/1999/xlink" height="29.95px" width="23.0px" xmlns="http://www.w3.org/2000/svg">
  <g transform="matrix(1.0, 0.0, 0.0, 1.0, 11.5, 14.95)">
    <path d="M-5.5 -8.5 L-1.5 -7.85 Q-1.4 -9.55 -0.1 -11.75 M-1.5 -7.85 Q1.15 -7.6 4.25 -7.8 4.8 -9.4 5.0 -12.2 M8.95 -8.35 L5.25 -7.9 4.25 -7.8 M9.5 -8.35 L8.95 -8.35" fill="none" stroke="#000000" stroke-linecap="round" stroke-linejoin="round" stroke-width="1.2000000000000002"/>
    <path d="M8.95 -8.35 Q10.3 -10.95 10.5 -13.9 8.95 -14.15 4.65 -12.95 0.35 -11.75 -3.15 -13.0 -5.2 -11.05 -5.5 -8.5 -8.05 -3.05 -10.4 4.25 -11.15 11.95 -4.45 13.95 0.95 14.45 4.45 7.7 L8.95 -8.35" fill="none" stroke="#000000" stroke-linecap="round" stroke-linejoin="round" stroke-width="2.0"/>
  </g>
</svg>
