<?xml version="1.0" encoding="UTF-8" standalone="no"?>
<svg xmlns:xlink="http://www.w3.org/1999/xlink" height="35.65px" width="21.85px" xmlns="http://www.w3.org/2000/svg">
  <g transform="matrix(1.0, 0.0, 0.0, 1.0, 11.05, 17.7)">
    <path d="M9.9 -14.75 Q7.7 -14.9 5.4 -15.6 L5.1 -13.25 M5.4 -15.6 L5.25 -15.65 0.8 -16.85 Q-1.25 -17.3 -3.05 -15.05 -4.2 -13.45 -3.15 -12.2 L-2.4 -11.6 Q0.05 -9.95 4.9 -9.05 L5.05 -10.95 M9.75 -10.15 Q10.1 -12.05 10.05 -13.25 M4.9 -9.05 L8.7 -8.55 9.35 -8.5 M-0.6 -11.25 Q-0.4 -13.5 0.6 -15.8" fill="none" stroke="#000000" stroke-linecap="round" stroke-linejoin="round" stroke-width="1.5"/>
    <path d="M-2.4 -11.6 L-4.55 -6.55 Q-6.8 -1.1 -8.35 4.0 L-10.0 10.0 Q-10.5 15.35 -5.8 16.8 -0.85 17.75 1.95 11.55 L8.7 -8.55" fill="none" stroke="#000000" stroke-linecap="round" stroke-linejoin="round" stroke-width="2.0"/>
  </g>
</svg>
