<?xml version="1.0" encoding="UTF-8" standalone="no"?>
<svg xmlns:xlink="http://www.w3.org/1999/xlink" height="26.55px" width="23.15px" xmlns="http://www.w3.org/2000/svg">
  <g transform="matrix(1.0, 0.0, 0.0, 1.0, 11.6, 13.3)">
    <path d="M4.6 -10.1 Q4.3 -9.95 5.35 -8.85 L5.8 -8.15 Q6.5 -6.85 7.3 -3.8 8.9 0.6 8.95 3.35 L8.95 3.6 9.05 3.9 Q9.2 4.15 9.45 3.7 L10.6 -0.55 Q11.25 -6.3 9.55 -11.35 6.05 -11.3 4.6 -10.1 3.85 -11.1 2.2 -11.35 0.15 -11.75 -1.25 -12.55 -2.75 -10.95 -0.45 -8.95 L0.35 -8.35 Q-1.65 -7.2 -0.85 -6.1 L1.3 -3.85 Q0.35 -2.75 1.9 -1.85 3.45 -1.0 5.0 -0.55 5.75 3.5 8.95 3.35 M5.8 -8.15 Q3.8 -8.2 2.45 -9.3 M7.3 -3.8 L4.95 -3.4 M-0.45 -8.95 Q-5.35 -6.3 -6.45 -2.2 -7.55 1.85 -6.7 3.75 -5.75 6.05 -0.2 6.5 3.35 8.8 6.95 8.8 L8.0 8.25 Q10.0 6.85 9.05 3.9 M-6.7 3.75 Q-8.8 3.8 -9.65 4.5 L-10.8 5.55 Q-11.3 7.65 -6.9 7.85 L-5.45 10.05 0.1 9.9 Q0.2 11.3 2.05 12.2 3.95 13.1 5.6 11.45 6.85 12.3 9.55 12.2 9.9 10.15 8.0 8.25 M-0.6 6.05 Q0.45 5.55 1.45 5.0" fill="none" stroke="#000000" stroke-linecap="round" stroke-linejoin="round" stroke-width="1.5"/>
  </g>
</svg>
