<?xml version="1.0" encoding="UTF-8" standalone="no"?>
<svg xmlns:xlink="http://www.w3.org/1999/xlink" height="36.35px" width="21.05px" xmlns="http://www.w3.org/2000/svg">
  <g transform="matrix(1.0, 0.0, 0.0, 1.0, 10.5, 18.15)">
    <path d="M10.55 -17.8 Q10.45 -13.25 9.3 -8.65 L9.25 -8.3 9.05 -7.55 Q6.15 2.65 3.9 6.85 L4.35 7.5 4.8 8.85 Q4.5 10.0 3.05 10.45 L2.0 13.0 Q-1.3 19.45 -6.35 17.9 -11.75 16.05 -10.15 7.65 -11.0 4.55 -8.3 4.1 L-8.35 4.05 Q-9.5 2.4 -7.35 1.6 L-7.35 1.3 -7.6 0.3 Q-7.9 -0.85 -7.15 -1.7 L-5.75 -2.55 -3.4 -7.55 -0.2 -14.75 2.5 -16.25 Q4.0 -17.2 6.5 -17.85 9.0 -18.5 10.55 -17.8" fill="#f9dfc3" fill-rule="evenodd" stroke="none"/>
  </g>
</svg>
