<?xml version="1.0" encoding="UTF-8" standalone="no"?>
<svg xmlns:xlink="http://www.w3.org/1999/xlink" height="28.2px" width="21.8px" xmlns="http://www.w3.org/2000/svg">
  <g transform="matrix(1.0, 0.0, 0.0, 1.0, 10.9, 14.1)">
    <path d="M-1.8 -12.55 Q-2.6 -12.1 -2.8 -10.8 -1.85 -10.45 -1.45 -9.55 -0.7 -11.05 2.9 -9.55 L3.85 -9.05 3.95 -9.7 M-5.45 -10.95 L-4.15 -11.0 -2.8 -10.8 M3.85 -9.05 Q5.3 -8.1 4.5 -6.8 6.55 -8.55 8.6 -6.5 L9.05 -5.9 M4.5 -6.8 Q4.15 -6.25 3.4 -5.65 M-1.6 -7.85 Q-1.8 -8.95 -1.45 -9.55" fill="none" stroke="#000000" stroke-linecap="round" stroke-linejoin="round" stroke-width="1.3"/>
    <path d="M3.95 -9.7 Q4.2 -11.75 2.35 -12.2 -0.55 -13.3 -1.8 -12.55 -5.55 -14.15 -5.45 -10.95 -6.95 -10.55 -5.1 -8.1 L-3.5 -7.95 Q-3.75 -5.35 -3.3 -4.35 -2.45 -2.35 -1.6 -1.5 L2.4 -1.8 Q4.5 -2.3 6.7 -3.45 L4.3 3.3 3.95 4.65 Q3.15 7.8 1.1 10.9 -2.05 13.9 -4.95 12.85 L-8.6 10.2 Q-10.95 8.2 -9.1 3.15 L-5.1 -8.1 M9.05 -5.9 Q10.85 -7.55 8.75 -9.15 5.95 -11.35 3.95 -9.7 M3.4 -5.65 Q5.1 -4.75 6.7 -3.45 10.05 -4.2 9.05 -5.9 M3.4 -5.65 Q0.2 -7.35 -3.5 -7.95" fill="none" stroke="#000000" stroke-linecap="round" stroke-linejoin="round" stroke-width="2.0"/>
    <path d="M-3.3 -4.35 L-6.05 2.7 -8.1 8.75 M2.4 -1.8 Q0.9 1.6 0.35 3.35 L-2.0 11.95" fill="none" stroke="#000000" stroke-linecap="round" stroke-linejoin="round" stroke-opacity="0.60784316" stroke-width="1.0"/>
  </g>
</svg>
