<?xml version="1.0" encoding="UTF-8" standalone="no"?>
<svg xmlns:xlink="http://www.w3.org/1999/xlink" height="26.15px" width="19.1px" xmlns="http://www.w3.org/2000/svg">
  <g transform="matrix(1.0, 0.0, 0.0, 1.0, 9.55, 13.1)">
    <path d="M-2.6 -4.05 L-2.85 -5.05 -2.6 -4.1 -2.4 -3.55 -2.6 -4.05 M-6.9 -3.55 Q-9.35 -5.6 -9.55 -6.3 -9.7 -7.1 -6.05 -5.8 L-6.65 -6.8 -8.65 -11.65 -8.65 -11.9 -8.55 -12.05 Q-8.45 -12.8 -7.85 -13.05 -5.4 -13.55 -2.9 -5.2 -1.8 0.45 -4.85 -1.45 L-7.5 -2.7 -8.25 -3.25 -8.25 -3.3 -6.95 -3.55 -6.9 -3.55 M-1.4 7.15 L-1.45 7.75 -0.9 7.4 2.0 8.85 Q3.85 9.6 5.85 10.15 L8.15 10.8 9.55 11.1 Q7.35 13.9 6.45 12.65 6.15 12.15 6.0 11.25 L5.85 10.25 5.85 10.2 5.8 10.2 Q2.4 14.4 2.0 8.9 L1.75 9.15 Q0.45 10.65 -0.3 10.85 -1.65 11.15 -1.45 7.8 L-1.45 7.75 -1.85 8.2 -1.85 8.25 Q-3.15 9.6 -3.6 9.3 L-3.8 9.0 Q-4.2 7.75 -3.25 6.0 L-1.4 7.15 M-1.85 7.8 L-1.85 7.75 -2.6 8.65 -1.85 7.8" fill="#241e42" fill-rule="evenodd" stroke="none"/>
  </g>
</svg>
