<?xml version="1.0" encoding="UTF-8" standalone="no"?>
<svg xmlns:xlink="http://www.w3.org/1999/xlink" height="9.05px" width="19.35px" xmlns="http://www.w3.org/2000/svg">
  <g transform="matrix(1.0, 0.0, 0.0, 1.0, 11.5, -3.95)">
    <path d="M4.35 10.3 L1.85 10.0 1.75 11.4 4.35 11.7 4.35 10.3 M-0.9 10.95 L0.6 11.2 0.75 9.8 -2.3 9.05 -2.75 10.45 -0.9 10.95 M-9.6 3.95 Q-6.5 6.4 -0.75 8.15 4.0 9.3 7.7 9.15 L7.75 10.3 5.65 10.35 5.65 11.7 7.8 11.65 7.85 12.75 Q5.4 13.5 -2.1 11.8 -8.45 9.8 -11.5 7.5 L-11.0 6.65 -8.8 8.15 -7.8 6.5 -10.1 4.95 -9.6 3.95 M-3.4 8.65 L-6.75 7.1 -7.55 8.75 -4.1 10.05 -3.4 8.65" fill="#ffffff" fill-rule="evenodd" stroke="none"/>
  </g>
</svg>
