<?xml version="1.0" encoding="UTF-8" standalone="no"?>
<svg xmlns:xlink="http://www.w3.org/1999/xlink" height="25.45px" width="23.8px" xmlns="http://www.w3.org/2000/svg">
  <g transform="matrix(1.0, 0.0, 0.0, 1.0, 12.15, -0.45)">
    <path d="M-3.1 2.6 L-4.05 3.4 -2.5 8.5 2.65 3.9 4.1 9.1 8.45 5.15 8.15 3.95 M8.45 5.15 L9.65 4.05 M4.1 9.1 L5.5 13.2 5.6 13.4 5.7 13.75 5.75 13.7 9.5 9.5 8.45 5.15 M10.1 15.55 L7.65 18.65 8.65 21.15 M5.7 13.75 L1.6 18.25 3.85 23.45 7.65 18.65 5.7 13.75 M10.4 13.35 L9.5 9.5 11.15 7.6 M4.4 24.8 L3.85 23.45 2.25 25.4 M-8.45 1.35 L-9.8 2.7 -8.95 7.45 -4.05 3.4 -4.35 2.35 M-11.65 4.45 L-9.8 2.7 -10.05 0.95 M-7.55 12.2 L-8.95 7.45 -11.65 9.75 M-8.9 22.55 L-4.9 17.8 -6.8 13.2 M-4.2 24.6 L-2.7 23.0 -4.9 17.8 -0.55 13.25 -2.5 8.5 -7.85 13.25 Q-10.1 15.55 -10.8 17.85 M-2.35 23.9 L-2.7 23.0 1.6 18.25 -0.55 13.25 4.1 9.1" fill="none" stroke="#000000" stroke-linecap="round" stroke-linejoin="round" stroke-opacity="0.6" stroke-width="1.0"/>
  </g>
</svg>
