<?xml version="1.0" encoding="UTF-8" standalone="no"?>
<svg xmlns:xlink="http://www.w3.org/1999/xlink" height="132.8px" width="120.6px" xmlns="http://www.w3.org/2000/svg">
  <g transform="matrix(1.0, 0.0, 0.0, 1.0, 60.3, 66.4)">
    <path d="M-1.9 -64.4 L2.0 -64.7 Q7.9 -66.8 12.2 -62.8 20.7 -16.4 43.6 34.35 53.75 50.9 59.3 50.65 50.3 58.75 29.7 49.5 8.65 40.05 -8.1 40.2 L-34.55 45.55 -34.45 47.9 Q-33.95 59.7 -32.9 65.4 -57.4 56.95 -59.3 42.1 L-53.95 29.4 Q-43.95 -4.0 -29.55 -30.85 -15.15 -57.7 -11.1 -61.0 -5.85 -63.65 -1.9 -64.4 -5.35 -60.65 -11.65 -51.1 -26.1 -29.35 -33.05 27.5 -3.15 19.5 18.95 28.3 37.95 35.7 43.6 34.35 M-33.05 27.5 Q-34.3 34.5 -34.55 45.55 M-53.95 29.4 Q-51.55 42.05 -34.45 47.9" fill="none" stroke="#000000" stroke-linecap="round" stroke-linejoin="round" stroke-width="2.0"/>
  </g>
</svg>
