<?xml version="1.0" encoding="UTF-8" standalone="no"?>
<svg xmlns:xlink="http://www.w3.org/1999/xlink" height="110.7px" width="108.65px" xmlns="http://www.w3.org/2000/svg">
  <g transform="matrix(1.0, 0.0, 0.0, 1.0, 54.3, 55.35)">
    <path d="M21.7 -27.9 Q23.7 -19.25 27.2 -11.9 30.3 -5.35 34.6 0.1 51.1 25.5 54.3 48.0 L54.35 48.45 54.1 49.05 53.1 49.95 51.4 50.9 50.0 51.6 49.65 51.7 49.5 51.8 47.85 52.4 47.2 52.65 47.0 52.7 46.5 52.85 45.45 53.25 44.9 53.4 43.65 53.8 43.35 53.9 42.3 54.2 42.25 54.25 41.9 54.25 41.7 54.3 41.5 54.35 39.7 54.65 38.8 54.8 37.4 55.0 37.1 55.05 36.25 55.2 34.4 55.3 33.8 55.3 33.7 55.35 31.8 55.3 Q30.85 54.65 31.0 55.0 28.1 53.7 28.4 50.35 L28.65 29.35 28.4 26.7 28.05 24.35 27.75 22.5 Q26.35 13.85 23.4 4.65 13.4 -18.5 10.45 -48.9 11.35 -52.3 18.95 -47.55 19.55 -37.1 21.6 -28.2 L21.7 -27.9 M-15.75 -53.6 Q-11.6 -56.25 -7.75 -54.85 -11.25 -25.35 -21.95 -0.05 -25.2 9.7 -26.95 18.9 L-27.25 20.8 -27.7 23.3 -28.05 26.05 -28.6 47.25 -28.55 47.7 -28.25 50.45 -28.5 50.95 -28.8 51.25 -30.65 52.35 -31.0 52.5 -31.65 52.7 -33.9 53.25 -34.1 53.3 -34.7 53.4 -35.8 53.55 -36.6 53.65 -37.25 53.7 -37.65 53.75 -39.05 53.85 -39.9 53.9 -41.7 53.95 -41.95 53.9 -42.15 53.95 -42.45 53.95 -42.55 53.9 -43.8 53.75 -45.05 53.6 -45.55 53.55 -46.7 53.35 -47.1 53.35 -47.35 53.3 -48.0 53.2 -48.75 53.05 -49.6 52.85 -49.75 52.85 -51.45 52.45 -53.1 51.75 -53.95 51.15 -54.05 51.05 -54.3 50.45 -53.8 47.7 Q-49.35 25.15 -33.05 -2.4 -28.65 -8.75 -25.2 -16.05 -21.5 -24.1 -19.1 -33.3 L-19.05 -33.6 Q-16.6 -43.1 -15.75 -53.6" fill="#4ec298" fill-rule="evenodd" stroke="none"/>
  </g>
</svg>
