<?xml version="1.0" encoding="UTF-8" standalone="no"?>
<svg xmlns:xlink="http://www.w3.org/1999/xlink" height="14.55px" width="111.15px" xmlns="http://www.w3.org/2000/svg">
  <g transform="matrix(1.0, 0.0, 0.0, 1.0, 55.55, 7.25)">
    <path d="M42.45 -1.35 Q42.85 3.95 40.0 6.6 37.65 6.1 35.35 -0.05 L36.2 -0.2 36.5 -0.25 37.9 -0.45 38.8 -0.6 40.6 -0.9 40.8 -0.95 41.0 -1.0 41.35 -1.0 41.4 -1.05 42.45 -1.35 42.75 -1.45 44.0 -1.85 44.55 -2.0 45.6 -2.4 46.1 -2.55 46.3 -2.6 46.95 -2.85 48.6 -3.45 48.75 -3.55 49.1 -3.65 50.5 -4.35 52.2 -5.3 53.2 -6.2 53.45 -6.8 53.4 -7.25 Q56.6 -0.9 55.1 3.05 51.75 1.25 49.1 -3.65 50.1 2.15 48.9 5.75 44.25 4.35 42.45 -1.35 M35.35 -0.05 Q35.5 4.05 30.9 7.3 29.1 5.4 30.1 -0.25 29.95 -0.6 30.9 0.05 L32.8 0.1 32.9 0.05 33.5 0.05 35.35 -0.05 M-49.65 -2.2 Q-51.25 3.85 -54.3 4.2 -56.45 2.8 -54.85 -4.1 L-54.0 -3.5 -52.35 -2.8 -50.65 -2.4 -50.5 -2.4 -49.65 -2.2 -48.9 -2.05 -48.25 -1.95 -48.0 -1.9 -47.6 -1.9 -46.45 -1.7 -45.95 -1.65 -44.7 -1.5 -43.45 -1.35 -43.35 -1.3 -43.05 -1.3 -42.85 -1.35 -42.6 -1.3 -40.8 -1.35 -39.95 -1.4 -38.55 -1.5 -38.15 -1.55 -37.5 -1.6 -36.7 -1.7 -35.6 -1.85 -35.0 -1.95 -34.8 -2.0 -32.55 -2.55 -31.9 -2.75 -31.55 -2.9 Q-30.4 -3.35 -29.7 -4.0 -28.55 4.55 -31.2 4.6 -33.4 4.15 -36.7 -1.7 -36.4 4.25 -39.4 6.2 -42.35 5.1 -42.6 -1.3 -45.45 7.65 -47.0 5.55 -48.75 4.55 -49.65 -2.2" fill="#ffffff" fill-rule="evenodd" stroke="none"/>
  </g>
</svg>
