<?xml version="1.0" encoding="UTF-8" standalone="no"?>
<svg xmlns:xlink="http://www.w3.org/1999/xlink" height="60.35px" width="168.35px" xmlns="http://www.w3.org/2000/svg">
  <g transform="matrix(1.0, 0.0, 0.0, 1.0, 84.2, 30.15)">
    <path d="M67.1 -6.3 Q71.8 -2.65 68.5 5.2 L68.4 5.45 Q69.35 3.45 70.7 1.8 L72.65 -0.2 Q76.4 -2.5 79.0 -0.75 81.4 1.35 80.85 4.1 L80.4 5.5 Q83.7 6.55 84.15 10.1 L84.15 16.1 Q83.65 18.5 81.7 18.9 L81.65 18.9 Q78.8 19.3 76.65 18.1 78.3 19.8 78.55 21.15 L78.6 21.8 Q79.05 25.35 78.75 26.35 L78.65 26.45 78.6 26.55 78.5 26.65 78.45 26.7 Q76.45 29.25 73.25 28.35 L72.65 28.15 Q72.0 29.8 67.85 30.2 62.15 29.8 61.8 25.4 L62.0 22.85 56.9 27.45 Q55.05 28.2 54.45 26.65 54.15 24.6 55.7 21.15 L55.75 21.0 55.85 20.75 55.9 20.7 55.8 20.75 54.7 21.0 53.45 20.85 Q52.3 20.55 50.95 19.7 49.15 18.5 48.75 17.15 49.05 15.45 50.0 13.45 48.6 12.45 48.55 11.1 L48.55 11.0 48.6 10.25 48.65 9.9 Q49.05 7.55 50.2 4.85 L50.25 4.55 Q52.2 2.95 54.6 3.25 L54.8 3.3 Q56.05 3.5 57.35 4.1 53.85 0.3 54.45 -2.65 L54.55 -2.95 Q54.9 -4.15 55.95 -5.2 L62.2 -5.05 Q64.45 -7.75 67.1 -6.3 M67.5 10.4 L67.2 10.1 67.45 10.4 67.5 10.4 M-84.2 -7.25 L-84.2 -13.25 Q-83.75 -16.8 -80.45 -17.85 L-80.9 -19.25 Q-81.45 -22.0 -79.05 -24.1 -76.45 -25.85 -72.7 -23.55 L-70.75 -21.55 Q-69.4 -19.9 -68.45 -17.9 L-68.55 -18.15 Q-71.85 -26.0 -67.15 -29.65 -64.5 -31.1 -62.25 -28.4 L-56.0 -28.55 Q-54.95 -27.5 -54.6 -26.3 L-54.5 -26.0 Q-53.9 -23.05 -57.4 -19.25 -56.1 -19.85 -54.85 -20.05 L-54.65 -20.1 Q-52.25 -20.4 -50.3 -18.8 L-50.25 -18.5 Q-49.1 -15.8 -48.7 -13.45 L-48.65 -13.1 -48.6 -12.35 -48.6 -12.25 Q-48.65 -10.9 -50.05 -9.9 -49.1 -7.9 -48.8 -6.2 -49.2 -4.85 -51.0 -3.65 -52.35 -2.8 -53.5 -2.5 L-54.75 -2.35 -55.85 -2.6 -55.95 -2.65 -55.9 -2.6 -55.8 -2.35 -55.75 -2.2 Q-54.2 1.25 -54.5 3.3 -55.1 4.85 -56.95 4.1 L-62.05 -0.5 -61.85 2.05 Q-62.2 6.45 -67.9 6.85 -72.05 6.45 -72.7 4.8 L-73.3 5.0 Q-76.5 5.9 -78.5 3.35 L-78.55 3.3 -78.65 3.2 -78.7 3.1 -78.8 3.0 Q-79.1 2.0 -78.65 -1.55 L-78.6 -2.2 Q-78.35 -3.55 -76.7 -5.25 -78.85 -4.05 -81.7 -4.45 L-81.75 -4.45 Q-83.7 -4.85 -84.2 -7.25 M-67.5 -12.95 L-67.25 -13.25 -67.55 -12.95 -67.5 -12.95" fill="#2c9f44" fill-rule="evenodd" stroke="none"/>
    <path d="M67.5 10.4 L67.45 10.4 67.2 10.1 67.5 10.4 M-67.5 -12.95 L-67.55 -12.95 -67.25 -13.25 -67.5 -12.95" fill="#512f24" fill-rule="evenodd" stroke="none"/>
  </g>
</svg>
