<?xml version="1.0" encoding="UTF-8" standalone="no"?>
<svg xmlns:xlink="http://www.w3.org/1999/xlink" height="64.9px" width="45.55px" xmlns="http://www.w3.org/2000/svg">
  <g transform="matrix(1.0, 0.0, 0.0, 1.0, 22.8, 32.45)">
    <path d="M20.05 -20.0 L14.1 -26.25 13.9 -26.45 11.35 -29.1 Q10.4 -30.0 6.75 -28.15 L2.9 -25.75 Q1.5 -24.75 1.15 -21.8 L0.95 -19.15 1.8 -19.4 Q2.1 -22.3 2.65 -23.7 3.25 -24.9 4.0 -24.95 6.8 -23.55 10.15 -21.0 L12.8 -18.95 Q19.65 -12.75 17.25 -2.25 L21.15 -11.15 20.55 -16.2 20.05 -20.0 Q18.65 -27.55 16.7 -30.0 14.8 -30.9 13.15 -31.2 11.0 -31.65 9.1 -31.2 0.3 -29.5 -3.95 -29.35 -7.05 -29.45 -9.45 -28.2 L-10.35 -27.55 Q-11.75 -26.4 -13.15 -24.65 -15.05 -22.55 -17.0 -19.45 L-17.15 -19.2 Q-19.2 -15.3 -18.15 -11.3 L-15.95 -11.25 Q-12.25 -17.6 -7.6 -19.7 -3.0 -19.95 1.05 -16.75 L0.95 -19.15 M1.8 -19.4 L10.15 -21.0 M21.15 -11.15 L21.5 -6.25 21.65 -2.2 Q22.0 6.7 20.85 12.8 18.95 23.15 17.0 26.0 14.95 28.3 9.75 29.5 L6.6 30.1 4.4 30.95 -0.05 31.45 0.1 31.25 -0.75 31.25 -3.9 31.15 Q-5.7 30.95 -6.85 30.35 L-13.7 26.55 Q-14.45 26.0 -15.05 25.6 L-16.0 24.9 Q-18.4 23.2 -19.2 21.95 -20.2 19.3 -20.8 16.55 -21.7 12.6 -21.8 8.45 L-21.8 8.35 -21.75 5.55 Q-21.1 0.0 -16.55 -3.2 -15.85 -3.7 -15.6 -4.9 -15.15 -7.05 -15.95 -11.25 M0.1 31.25 Q6.05 14.5 17.25 -2.25 M21.65 -2.2 Q11.45 17.35 6.6 30.1 M-1.25 14.95 L-1.05 9.3 -0.8 5.85 -0.8 5.35 -0.7 4.95 Q1.25 -5.95 1.05 -16.75 M-1.1 23.65 Q-1.35 19.3 -1.25 14.95 M-0.75 31.25 Q-0.5 29.55 -0.8 27.85 L-1.1 23.65" fill="none" stroke="#000000" stroke-linecap="round" stroke-linejoin="round" stroke-width="2.0"/>
    <path d="M-1.25 14.95 Q-14.25 13.3 -21.8 8.35 M-1.1 23.65 Q-14.25 21.7 -20.8 16.55" fill="none" stroke="#000000" stroke-linecap="round" stroke-linejoin="round" stroke-width="1.4000000000000001"/>
  </g>
</svg>
