<?xml version="1.0" encoding="UTF-8" standalone="no"?>
<svg xmlns:xlink="http://www.w3.org/1999/xlink" height="27.35px" width="104.55px" xmlns="http://www.w3.org/2000/svg">
  <g transform="matrix(1.0, 0.0, 0.0, 1.0, 56.25, 31.3)">
    <path d="M38.15 -18.25 L38.55 -18.9 Q40.25 -17.25 41.95 -13.65 L43.2 -11.05 42.85 -10.5 37.25 -10.75 39.75 -15.2 38.15 -18.25 M38.45 -3.95 L36.15 -5.5 34.85 -6.75 35.0 -7.2 40.5 -7.0 38.45 -3.95 M48.25 -24.8 L47.45 -23.45 48.15 -22.7 48.3 -22.45 48.0 -22.55 41.65 -23.6 43.15 -25.85 Q45.8 -26.05 48.25 -24.8 M44.15 -16.8 Q43.35 -18.75 42.2 -20.05 L48.05 -18.25 45.0 -13.9 44.15 -16.8 M-55.35 -28.95 L-56.2 -30.35 Q-53.5 -31.5 -50.6 -31.25 L-49.05 -29.0 -56.25 -28.0 -56.1 -28.2 -55.35 -28.95 M-47.15 -20.5 L-44.5 -16.05 -50.7 -15.95 -51.05 -16.35 -49.6 -19.05 Q-47.6 -22.65 -45.7 -24.3 L-45.3 -23.6 -47.15 -20.5 M-56.1 -23.75 L-49.75 -25.5 Q-51.0 -24.15 -51.85 -22.2 L-52.9 -19.3 -56.1 -23.75 M-41.95 -11.95 L-43.45 -10.75 -46.0 -9.25 -48.15 -12.35 -42.1 -12.4 -41.95 -11.95" fill="#444536" fill-rule="evenodd" stroke="none"/>
  </g>
</svg>
