<?xml version="1.0" encoding="UTF-8" standalone="no"?>
<svg xmlns:xlink="http://www.w3.org/1999/xlink" height="102.0px" width="136.45px" xmlns="http://www.w3.org/2000/svg">
  <g transform="matrix(1.0, 0.0, 0.0, 1.0, 68.25, 51.0)">
    <path d="M31.95 -1.75 Q39.6 5.4 35.7 10.5 33.95 13.6 27.45 12.0 30.25 15.95 37.95 18.5 38.85 13.25 42.95 11.25 48.45 10.05 49.7 15.0 50.15 18.3 44.7 20.75 48.9 22.3 55.95 22.0 54.35 15.9 67.2 13.25 L61.05 11.2 Q42.7 3.8 43.45 -12.75 L-4.8 -50.0 Q-3.1 -19.8 14.95 4.0 14.05 -3.35 19.7 -5.75 25.85 -7.25 31.95 -1.75 M43.5 45.8 Q45.85 38.5 42.0 34.3 37.0 30.5 33.0 37.55 30.9 44.4 35.0 48.55 27.95 50.6 15.25 49.8 26.5 44.65 23.25 37.05 20.55 31.9 9.5 31.3 -2.4 30.35 -5.75 38.55 -6.9 43.8 -2.5 49.05 -39.75 39.15 -67.25 8.8 L-38.9 10.5 Q-9.8 11.6 15.5 9.8 28.45 29.8 61.0 21.05 54.9 25.75 53.8 31.05 53.05 34.3 54.25 37.8 L43.5 45.8" fill="none" stroke="#000000" stroke-linecap="round" stroke-linejoin="round" stroke-width="2.0"/>
  </g>
</svg>
