<?xml version="1.0" encoding="UTF-8" standalone="no"?>
<svg xmlns:xlink="http://www.w3.org/1999/xlink" height="156.5px" width="153.75px" xmlns="http://www.w3.org/2000/svg">
  <g transform="matrix(1.0, 0.0, 0.0, 1.0, 76.9, 78.25)">
    <path d="M9.15 -50.5 L8.35 -64.75 -4.45 -59.45 -2.05 -51.1 -15.2 -33.05 -27.95 -32.8 -51.5 -53.05 -52.65 -58.7 -64.3 -58.95 -59.8 -46.45 -53.7 -47.85 -31.75 -29.1 -28.3 -18.25 -44.45 4.9 -50.0 7.7 -47.9 20.25 -38.5 13.5 -39.05 8.1 -25.35 -12.55 -12.0 -11.65 46.1 46.3 49.8 59.3 67.7 60.25 65.6 40.65 54.55 39.45 Q25.5 18.45 -8.1 -16.65 L-11.5 -28.65 2.75 -49.05 9.15 -50.5 M24.6 -62.5 L-3.2 -22.85 Q36.95 6.9 76.75 40.85 78.1 65.4 57.3 78.25 L-23.25 0.4 -40.55 32.0 -61.6 12.6 -61.25 12.2 -41.45 -22.35 -41.45 -22.4 -76.9 -55.5 Q-71.1 -64.5 -62.7 -73.3 L-27.35 -40.85 -0.85 -78.25 Q2.15 -77.75 5.45 -75.65 15.15 -70.3 24.6 -62.5" fill="#333333" fill-rule="evenodd" stroke="none"/>
  </g>
</svg>
