<?xml version="1.0" encoding="UTF-8" standalone="no"?>
<svg xmlns:xlink="http://www.w3.org/1999/xlink" height="156.6px" width="153.0px" xmlns="http://www.w3.org/2000/svg">
  <g transform="matrix(1.0, 0.0, 0.0, 1.0, 76.5, 78.3)">
    <path d="M7.95 -78.2 L-18.55 -40.8 -24.0 -45.8 Q-11.0 -63.15 -5.5 -75.15 L4.4 -78.15 Q6.1 -78.4 7.95 -78.2 M4.35 -59.4 L17.15 -64.7 17.95 -50.45 11.55 -49.0 -2.7 -28.6 0.7 -16.6 Q34.3 18.5 63.35 39.5 L74.4 40.7 76.5 60.3 58.6 59.35 54.9 46.35 -3.2 -11.6 -16.55 -12.5 -30.25 8.15 -29.7 13.55 -39.1 20.3 -41.2 7.75 -35.65 4.95 -19.5 -18.2 -22.95 -29.05 -44.9 -47.8 -51.0 -46.4 -55.5 -58.9 -43.85 -58.65 -42.7 -53.0 -19.15 -32.75 -6.4 -33.0 6.75 -51.05 4.35 -59.4 M56.2 77.0 L51.85 75.6 -18.55 8.0 -14.45 0.45 66.1 78.3 60.35 77.9 56.2 77.0 M-68.1 -55.45 L-32.65 -22.35 -32.65 -22.3 -52.45 12.25 -52.8 12.65 -31.75 32.05 -33.6 35.25 -37.55 35.65 -65.6 11.2 Q-52.45 -5.25 -42.65 -23.15 -61.65 -39.0 -76.5 -53.7 -72.65 -64.35 -60.85 -72.55 L-53.9 -73.25 Q-62.3 -64.45 -68.1 -55.45" fill="#0df192" fill-rule="evenodd" stroke="none"/>
  </g>
</svg>
