<?xml version="1.0" encoding="UTF-8" standalone="no"?>
<svg xmlns:xlink="http://www.w3.org/1999/xlink" height="74.7px" width="60.35px" xmlns="http://www.w3.org/2000/svg">
  <g transform="matrix(1.0, 0.0, 0.0, 1.0, 30.2, 37.35)">
    <path d="M-10.55 -3.7 Q-12.75 -4.2 -14.2 -5.8 -17.1 7.5 -12.5 13.5 L-7.95 13.7 -3.9 13.0 Q0.85 11.7 6.15 8.4 16.6 1.8 24.45 -5.6 25.9 -9.85 22.75 -14.15 L5.95 -23.05 5.6 -23.25 3.95 -24.1 Q-15.1 -34.1 -21.2 -29.0 -24.65 -22.5 -21.1 -15.1 -17.55 -7.7 -14.2 -5.8 M5.95 -23.05 L6.55 -22.75 5.6 -23.25 M24.45 -5.6 Q28.85 -4.85 29.15 -9.45 28.85 -13.05 26.1 -14.65 L22.75 -14.15 M3.95 -24.1 Q0.65 -32.2 2.6 -35.5 13.15 -39.4 23.45 -25.5 28.65 -16.35 26.1 -14.65 M-3.9 13.0 Q-12.1 19.95 -17.0 28.5 -19.2 32.25 -20.75 36.35 -13.5 31.1 -7.6 33.65 -1.7 36.2 2.75 34.2 7.2 12.75 24.45 -5.6 M-7.95 13.7 Q-17.3 18.05 -29.2 19.85 -24.0 29.2 -17.0 28.5" fill="none" stroke="#000000" stroke-linecap="round" stroke-linejoin="round" stroke-width="2.0"/>
  </g>
</svg>
