<?xml version="1.0" encoding="UTF-8" standalone="no"?>
<svg xmlns:xlink="http://www.w3.org/1999/xlink" height="77.3px" width="75.0px" xmlns="http://www.w3.org/2000/svg">
  <g transform="matrix(1.0, 0.0, 0.0, 1.0, 37.5, 38.65)">
    <path d="M-14.75 -36.7 Q-14.55 -36.0 -15.1 -34.95 -15.75 -33.65 -17.2 -32.3 L-17.8 -31.7 -19.6 -30.15 -19.9 -30.0 -22.05 -28.45 -26.25 -26.05 Q-27.05 -25.6 -27.85 -25.25 L-29.05 -24.7 Q-32.55 -23.25 -34.7 -23.15 L-35.85 -23.4 14.85 37.65 Q25.15 34.4 33.4 26.0 39.6 19.75 33.3 11.35 18.25 -7.8 0.2 -24.1 -7.0 -30.6 -14.75 -36.7 L-15.55 -37.45 -16.0 -37.55 Q-18.0 -37.95 -22.0 -36.25 L-23.5 -35.6 -19.6 -30.15 M-36.5 -29.5 L-33.95 -27.85 -30.9 -30.9 -32.55 -32.7 -33.0 -32.85 M-35.85 -23.4 L-35.95 -23.45 Q-36.55 -24.2 -35.3 -26.05 L-33.95 -27.85 -29.05 -24.7 M-22.05 -28.45 L-27.4 -33.45 -29.7 -31.85 -30.9 -30.9 -26.25 -26.05 M-23.5 -35.6 L-27.4 -33.45 -31.25 -37.1 M-23.5 -35.6 L-24.5 -36.9" fill="none" stroke="#000000" stroke-linecap="round" stroke-linejoin="round" stroke-width="2.0"/>
  </g>
</svg>
