<?xml version="1.0" encoding="UTF-8" standalone="no"?>
<svg xmlns:xlink="http://www.w3.org/1999/xlink" height="247.5px" width="187.4px" xmlns="http://www.w3.org/2000/svg">
  <g transform="matrix(1.0, 0.0, 0.0, 1.0, 93.7, 123.75)">
    <path d="M66.8 2.45 Q66.6 2.85 66.65 3.3 66.75 4.25 67.35 4.9 L67.45 5.0 59.4 4.6 59.6 2.05 66.8 2.45 M-54.55 -107.4 Q-53.8 -106.8 -53.4 -104.45 -51.55 -101.1 -54.95 -101.5 L-55.75 -99.0 -57.3 -99.4 -58.5 -100.05 -57.7 -102.2 Q-58.9 -102.7 -59.3 -103.25 -60.1 -104.2 -58.2 -105.15 -55.85 -108.5 -54.55 -107.4 M-62.7 -72.7 L-63.0 -73.0 -63.45 -73.9 -63.5 -74.45 Q-63.5 -75.4 -63.05 -76.05 -62.5 -76.75 -61.75 -76.8 -61.15 -76.85 -60.6 -76.4 L-60.45 -76.2 Q-60.05 -75.7 -59.95 -75.05 L-59.95 -74.6 Q-60.0 -73.7 -60.55 -73.05 L-61.15 -72.55 -61.8 -72.4 Q-62.3 -72.4 -62.7 -72.7 M-50.6 -46.45 L-49.2 -47.65 -49.2 -43.9 Q-44.85 -45.75 -45.8 -37.85 -54.25 -40.1 -49.2 -43.9 L-52.2 -44.7 -50.6 -46.45 M-63.8 -68.0 L-63.75 -68.0 Q-59.85 -69.4 -61.3 -65.55 -62.8 -61.8 -64.35 -60.7 L-64.4 -60.7 Q-66.2 -63.35 -66.7 -66.7 -67.2 -70.1 -63.8 -68.0 M-64.55 -54.0 L-63.1 -54.0 -65.0 -48.9 -66.0 -53.9 -64.55 -54.0" fill="#000000" fill-rule="evenodd" stroke="none"/>
    <path d="M40.65 -8.85 L42.3 -8.85 Q43.55 -8.6 44.85 -7.6 M54.9 -15.7 Q52.4 -19.15 49.95 -20.7 46.95 -19.25 44.35 -16.65 L43.35 -15.65 41.25 -13.0 40.15 -11.35 Q35.55 -3.65 36.1 7.1 36.8 20.65 45.45 30.65 53.65 40.1 64.3 40.65 71.5 41.0 77.1 37.05 L77.0 30.05 M65.3 -16.1 Q64.95 -19.2 62.25 -22.3 L59.95 -22.6 Q56.15 -22.9 52.75 -21.85 L49.95 -20.7 M73.95 -10.3 L77.2 -14.3 Q70.9 -20.85 62.6 -22.25 L62.25 -22.3 M80.55 -2.75 Q82.0 -4.15 84.2 -4.2 82.85 -7.05 80.95 -9.7 L77.2 -14.3 M58.65 -26.75 Q47.25 -27.2 39.2 -18.3 29.8 -8.3 30.6 7.4 31.45 22.7 41.5 33.8 51.25 44.5 63.85 45.1 76.15 45.65 84.45 36.4 92.7 27.1 92.7 13.05 92.55 -1.4 83.9 -12.75 74.8 -24.75 61.85 -26.45 L58.65 -26.75 M84.3 19.1 L87.15 21.7 87.8 18.3 Q88.15 15.65 88.15 12.85 88.15 9.65 87.65 6.65 L84.45 5.85 M77.1 37.05 L79.25 35.3 80.9 33.65 81.4 33.05 84.35 28.9 Q86.0 26.15 87.15 21.7 M66.8 2.45 L67.15 1.8 Q67.65 1.3 68.35 1.35 L68.5 1.35 69.1 1.55 71.55 -4.7 M67.45 5.0 Q67.95 5.5 68.6 5.55 69.35 5.6 69.85 5.05 L70.3 3.7 Q70.3 2.8 69.8 2.15 L69.1 1.55 M66.8 2.45 Q66.6 2.85 66.65 3.3 66.75 4.25 67.35 4.9 L67.45 5.0 59.4 4.6 59.6 2.05 66.8 2.45 M41.15 19.35 Q43.1 16.45 47.0 14.9 M47.3 2.35 L59.0 3.15 M50.45 30.3 Q52.0 28.95 53.05 27.05 M63.65 36.5 Q64.95 34.55 65.2 32.6 M38.9 4.0 Q40.95 2.35 43.75 2.7 M70.25 5.55 L82.7 17.9 M87.65 6.65 Q86.75 0.95 84.2 -4.2 M-63.3 -29.15 Q-62.9 -25.1 -61.15 -21.0 -55.85 -19.1 -49.95 -19.1 -33.85 -19.1 -21.8 -33.1 -9.35 -47.45 -8.6 -68.05 -7.8 -89.25 -19.65 -103.85 L-22.95 -107.5 -24.15 -108.7 Q-27.05 -111.3 -30.15 -113.15 -36.25 -116.75 -43.35 -117.4 -45.95 -117.6 -48.7 -117.45 -59.65 -116.8 -68.35 -109.95 L-67.75 -105.6 M-61.15 -21.0 Q-69.95 -24.15 -76.85 -32.55 L-79.1 -35.5 Q-84.35 -43.3 -86.4 -51.95 L-86.7 -53.3 Q-87.8 -58.45 -88.0 -63.5 L-88.1 -65.65 Q-88.15 -72.5 -86.95 -78.8 -85.2 -87.6 -80.8 -95.2 -79.15 -98.1 -77.1 -100.85 -73.05 -106.3 -68.35 -109.95 M-54.55 -107.4 Q-53.8 -106.8 -53.4 -104.45 -51.55 -101.1 -54.95 -101.5 L-55.75 -99.0 -57.3 -99.4 -58.5 -100.05 -57.7 -102.2 Q-58.9 -102.7 -59.3 -103.25 -60.1 -104.2 -58.2 -105.15 -55.85 -108.5 -54.55 -107.4 M-53.1 -109.25 Q-52.95 -112.4 -51.4 -115.4 M-92.7 -65.35 Q-93.0 -87.55 -80.45 -104.25 -67.5 -121.55 -48.8 -122.65 -29.65 -123.85 -16.4 -107.6 -3.15 -91.45 -4.0 -68.0 -4.9 -45.25 -18.75 -29.35 -32.2 -13.9 -50.2 -13.9 -67.9 -13.9 -80.2 -28.8 -92.45 -43.6 -92.7 -65.35 M-37.1 -103.9 Q-35.7 -106.55 -33.55 -108.55 M-86.0 -72.5 Q-84.1 -74.45 -82.35 -74.75 M-86.7 -53.3 Q-85.8 -56.15 -84.05 -57.25 M-19.75 -70.85 Q-15.55 -70.35 -12.55 -67.8 M-25.8 -91.5 Q-23.35 -93.5 -19.75 -94.55 M-61.7 -77.4 L-60.5 -85.45 -60.45 -85.45 -61.5 -88.4 -59.4 -91.3 -57.35 -98.95 M-58.4 -88.05 L-59.4 -91.3 M-62.7 -72.7 L-63.0 -73.0 -63.45 -73.9 -63.5 -74.45 Q-63.5 -75.4 -63.05 -76.05 -62.5 -76.75 -61.75 -76.8 -61.15 -76.85 -60.6 -76.4 L-60.45 -76.2 Q-60.05 -75.7 -59.95 -75.05 L-59.95 -74.6 Q-60.0 -73.7 -60.55 -73.05 L-61.15 -72.55 -50.65 -46.45 -50.6 -46.45 -49.2 -47.65 -49.2 -43.9 Q-44.85 -45.75 -45.8 -37.85 -54.25 -40.1 -49.2 -43.9 L-52.2 -44.7 -50.6 -46.45 M-60.45 -85.45 L-58.7 -87.75 M-80.8 -95.2 L-79.1 -91.4 M-62.95 -72.45 Q-64.05 -70.2 -63.8 -68.0 L-63.75 -68.0 Q-59.85 -69.4 -61.3 -65.55 -62.8 -61.8 -64.35 -60.7 L-64.55 -54.0 -63.1 -54.0 -65.0 -48.9 -66.0 -53.9 -64.55 -54.0 M-61.15 -72.55 L-61.8 -72.4 Q-62.3 -72.4 -62.7 -72.7 M-63.8 -68.0 Q-67.2 -70.1 -66.7 -66.7 -66.2 -63.35 -64.4 -60.7 L-64.35 -60.7 M-44.4 -31.85 L-42.65 -28.05 M-79.1 -35.5 Q-78.65 -39.5 -76.6 -41.55 M-28.2 -47.0 L-25.05 -45.05 M-67.15 93.15 Q-66.7 84.6 -60.95 78.5 L-60.85 78.35 Q-57.0 74.2 -52.15 72.6 L-50.1 72.05 -47.7 71.7 -45.6 71.6 Q-36.55 71.6 -30.15 78.4 -23.75 85.25 -23.75 94.9 -23.75 104.5 -30.15 111.35 -36.3 117.75 -44.8 118.0 L-45.0 118.0 -46.15 118.0 -51.1 117.25 -53.45 116.4 -55.4 115.45 Q-58.35 113.8 -60.85 111.15 L-63.3 108.0 Q-66.85 102.6 -67.15 95.9 L-67.2 94.7 -67.15 93.15 -67.15 95.9 M-71.8 92.8 Q-71.15 82.35 -64.1 74.95 -56.5 66.75 -45.6 66.8 -34.7 66.75 -26.95 75.0 -19.2 83.25 -19.2 94.9 -19.2 106.55 -26.95 114.75 -34.45 122.45 -44.65 122.75 L-44.9 122.75 -46.3 122.75 Q-56.75 122.35 -64.1 114.45 -71.3 106.7 -71.8 96.1 L-71.8 94.7 -71.8 92.8 M-63.9 95.95 L-61.45 96.05 M-46.85 76.95 L-46.85 74.45 M-56.0 76.25 L-53.95 80.05 M-52.85 82.3 L-47.9 94.15 Q-47.35 93.65 -46.6 93.65 L-45.65 93.85 -35.45 89.6 -44.5 95.2 -44.45 95.9 Q-44.45 96.8 -45.05 97.45 L-45.25 97.65 -41.65 106.65 -47.0 98.05 -48.1 97.45 Q-48.7 96.8 -48.7 95.9 -48.7 94.95 -48.1 94.3 L-47.9 94.15 M-45.25 97.65 Q-45.8 98.1 -46.6 98.1 L-47.0 98.05 M-45.65 93.85 Q-45.35 94.0 -45.05 94.3 L-44.5 95.2 M-59.15 87.3 L-61.55 86.05 M-28.95 97.25 L-26.05 97.95 M-27.5 85.1 L-30.1 87.7 M-37.15 79.35 L-35.45 77.7 M-36.6 113.6 L-38.3 111.5 M-30.35 107.45 L-32.5 105.35 M-47.2 115.15 L-46.75 112.45 M-54.8 112.2 L-53.4 110.05 M-61.8 106.65 L-59.3 105.9" fill="none" stroke="#000000" stroke-linecap="round" stroke-linejoin="round" stroke-width="2.0"/>
    <path d="M-62.7 -72.7 L-62.95 -72.45" fill="none" stroke="#000000" stroke-linecap="round" stroke-linejoin="round" stroke-width="0.5"/>
  </g>
</svg>
