<?xml version="1.0" encoding="UTF-8" standalone="no"?>
<svg xmlns:xlink="http://www.w3.org/1999/xlink" height="135.75px" width="126.75px" xmlns="http://www.w3.org/2000/svg">
  <g transform="matrix(1.0, 0.0, 0.0, 1.0, 63.4, 67.85)">
    <path d="M31.3 -48.3 Q37.4 -34.35 41.45 -22.95 57.95 15.55 61.45 32.8 65.25 51.8 52.65 60.7 50.25 62.4 47.2 63.75 52.6 55.55 52.6 40.35 33.4 53.65 4.05 42.1 -25.35 30.5 -34.1 45.1 -30.5 56.8 -23.55 66.9 L-31.35 63.85 Q-55.6 53.55 -61.4 39.95 -68.05 24.45 -31.1 -31.3 L-24.85 -40.55 Q-10.95 -63.2 6.2 -66.85 20.65 -66.9 31.3 -48.3 47.05 -0.05 52.05 34.5 52.6 38.15 52.6 40.35 M-36.05 37.55 L-34.1 45.1 M-24.85 -40.55 Q-43.05 4.3 -36.05 37.55" fill="none" stroke="#000000" stroke-linecap="round" stroke-linejoin="round" stroke-width="2.0"/>
    <path d="M-36.05 37.55 Q-33.3 35.35 -30.0 33.95 -15.8 27.65 1.0 35.05 6.0 37.2 17.9 41.0 34.05 46.05 52.05 34.5 M41.45 -22.95 Q51.2 7.75 56.9 36.1 58.05 51.15 52.65 60.7 M-56.25 41.15 Q-56.4 37.25 -56.0 33.55 L-59.2 31.55 -58.65 27.35 -55.3 29.3 -54.1 23.75 -50.4 25.9 -51.3 31.4 -47.8 33.3 -48.4 37.95 -51.8 35.9 Q-52.25 40.4 -52.05 44.9 -55.5 42.8 -56.25 41.15 M-31.1 -31.3 Q-39.55 -10.3 -42.4 12.05 -45.25 34.4 -31.35 63.85" fill="none" stroke="#000000" stroke-linecap="round" stroke-linejoin="round" stroke-width="1.0"/>
  </g>
</svg>
