<?xml version="1.0" encoding="UTF-8" standalone="no"?>
<svg xmlns:xlink="http://www.w3.org/1999/xlink" height="40.85px" width="113.3px" xmlns="http://www.w3.org/2000/svg">
  <g transform="matrix(1.0, 0.0, 0.0, 1.0, 0.0, 0.0)">
    <path d="M29.4 10.9 L29.4 10.95 Q26.35 16.2 26.85 20.4 26.95 26.6 33.2 32.7 23.1 27.15 21.95 20.1 19.75 32.15 23.95 38.9 15.25 32.0 16.1 22.0 13.8 30.15 13.65 38.0 L13.6 38.6 Q9.85 31.95 9.45 25.25 5.85 32.4 6.35 37.5 3.35 32.3 5.5 23.9 1.95 34.0 0.45 40.85 -0.8 33.15 1.5 24.9 2.15 22.45 3.15 19.95 6.75 10.75 13.75 2.1 12.85 4.15 12.75 5.35 12.7 5.95 12.9 6.35 14.55 5.55 19.55 0.1 16.25 6.85 16.35 11.6 19.5 10.75 24.0 4.35 L23.8 9.25 Q28.55 7.25 32.8 0.65 31.45 2.9 30.65 4.8 29.05 8.55 29.4 10.9 M90.95 12.05 Q91.4 9.7 90.45 6.0 L88.9 1.5 Q91.9 8.4 100.1 13.6 99.4 9.55 96.0 5.5 99.6 8.05 101.5 9.7 100.7 5.65 97.4 0.0 102.7 3.95 104.95 7.5 L105.1 6.5 Q105.1 5.3 104.55 3.25 109.6 11.9 111.85 21.1 L112.8 26.05 113.25 31.45 Q113.35 34.1 113.1 36.75 L112.15 34.4 109.3 28.3 Q110.05 31.15 109.55 34.0 108.5 31.05 106.2 26.45 105.35 33.1 101.65 39.75 102.3 31.65 101.0 23.15 100.9 33.15 93.15 40.05 97.15 33.3 96.35 21.25 94.8 28.3 88.8 33.4 91.7 27.75 92.25 21.6 93.05 17.35 91.0 12.1 L90.95 12.05" fill="#1dd5ff" fill-rule="evenodd" stroke="none"/>
  </g>
</svg>
