<?xml version="1.0" encoding="UTF-8" standalone="no"?>
<svg xmlns:xlink="http://www.w3.org/1999/xlink" height="37.95px" width="29.1px" xmlns="http://www.w3.org/2000/svg">
  <g transform="matrix(1.0, 0.0, 0.0, 1.0, 0.0, 0.0)">
    <path d="M8.95 7.3 L9.35 7.85 9.5 8.05 12.45 11.85 12.95 12.45 13.05 12.6 13.15 12.7 13.4 13.05 13.75 13.75 13.75 13.85 13.7 13.8 12.05 17.15 16.7 23.85 17.3 24.95 16.0 26.25 Q14.8 27.5 13.55 28.1 L1.9 12.75 4.15 9.9 4.15 9.85 0.0 3.7 3.4 0.05 3.4 0.0 4.55 1.55 5.7 3.05 7.15 4.9 7.75 5.7 8.2 6.3 8.95 7.3 M24.0 30.1 L26.35 27.65 26.5 27.45 27.85 29.4 27.8 29.4 29.1 31.3 29.0 31.55 26.7 34.15 26.3 34.55 24.9 35.8 24.55 36.1 22.1 37.95 21.75 37.55 18.95 34.4 21.35 32.55 22.6 31.45 23.8 30.3 24.0 30.1" fill="#fcfaf9" fill-rule="evenodd" stroke="none"/>
  </g>
</svg>
