<?xml version="1.0" encoding="UTF-8" standalone="no"?>
<svg xmlns:xlink="http://www.w3.org/1999/xlink" height="141.6px" width="141.6px" xmlns="http://www.w3.org/2000/svg">
  <g transform="matrix(1.0, 0.0, 0.0, 1.0, 72.2, 43.45)">
    <path d="M-62.7 -43.45 L-62.45 -43.3 -61.35 -38.5 Q-63.5 -38.9 -66.25 -37.5 L-66.2 -37.45 -66.3 -37.4 Q-67.7 -34.7 -67.25 -32.5 L-72.15 -33.6 -72.2 -33.85 Q-71.4 -36.55 -68.55 -39.65 L-68.45 -39.7 Q-65.45 -42.6 -62.7 -43.45" fill="#9aacb1" fill-rule="evenodd" stroke="none"/>
    <path d="M24.0 47.1 L25.35 47.5 -16.1 3.25 -16.15 3.1 -17.7 -7.4 -17.65 -7.4 -16.6 -12.4 -16.55 -12.3 54.35 68.3 69.15 97.9 69.4 98.15 39.55 83.2 -41.2 12.25 -36.2 11.25 -36.15 11.2 -25.7 12.65 -25.6 12.7 18.7 54.15 18.35 52.9 28.9 63.45 37.65 66.4 37.5 66.25 34.55 57.65 24.0 47.1" fill="url(#gradient0)" fill-rule="evenodd" stroke="none"/>
  </g>
  <defs>
    <linearGradient gradientTransform="matrix(0.0537, 0.0537, -0.015, 0.015, 21.8, 50.65)" gradientUnits="userSpaceOnUse" id="gradient0" spreadMethod="pad" x1="-819.2" x2="819.2">
      <stop offset="0.0" stop-color="#bdbdbd"/>
      <stop offset="1.0" stop-color="#f5f5f5"/>
    </linearGradient>
  </defs>
</svg>
