<?xml version="1.0" encoding="UTF-8" standalone="no"?>
<svg xmlns:xlink="http://www.w3.org/1999/xlink" height="193.1px" width="272.8px" xmlns="http://www.w3.org/2000/svg">
  <g transform="matrix(1.0, 0.0, 0.0, 1.0, 136.4, 96.55)">
    <path d="M-35.2 -45.1 Q-35.2 -40.85 -37.6 -29.05 L-37.65 -28.85 Q-40.1 -16.9 -36.8 -13.75 -31.2 -8.45 -14.15 -18.95 -6.1 -22.15 0.75 -22.35 11.6 -22.75 19.35 -15.55 13.2 -32.2 0.75 -38.35 -2.1 -39.75 -5.25 -40.65 L-15.4 -41.9 Q-21.75 -42.4 -31.35 -51.8 -36.45 -56.35 -34.4 -60.95 -25.55 -76.6 0.75 -79.15 L1.9 -79.25 7.95 -79.6 12.35 -79.5 16.8 -79.25 Q33.8 -77.75 48.3 -69.9 53.5 -65.9 55.25 -59.9 57.15 -53.2 54.65 -44.15 49.3 -33.2 44.55 -30.65 37.25 -29.4 32.05 -26.1 27.15 -21.5 27.1 -17.65 34.3 -24.8 42.0 -26.9 49.6 -28.95 57.65 -26.1 L59.2 -25.5 Q61.35 -26.15 68.15 -36.0 72.3 -39.95 71.1 -43.9 L66.15 -60.0 Q62.55 -66.3 57.65 -71.7 54.05 -75.7 49.7 -79.25 L42.35 -84.6 Q30.75 -90.9 17.45 -93.6 10.4 -95.05 2.9 -95.5 -20.5 -96.5 -37.8 -79.45 -54.65 -63.25 -50.3 -56.0 -48.95 -52.5 -44.85 -49.35 -37.05 -42.3 -37.6 -29.05 M19.35 -15.55 Q8.35 -14.0 0.75 -8.1 L-1.5 -6.25 Q-5.7 -1.45 -9.55 1.75 -32.05 33.65 -36.0 48.15 -37.45 62.95 -36.0 82.05 L-21.5 74.3 Q-13.95 75.5 -3.45 79.65 L0.75 80.95 Q9.1 82.95 16.15 79.45 20.15 78.0 26.5 80.05 35.75 81.65 43.95 78.7 50.7 78.7 57.65 75.25 61.05 73.55 64.45 71.05 75.2 64.15 86.6 60.4 106.7 51.65 135.4 62.4 119.5 37.2 99.1 29.1 82.4 24.2 75.65 17.4 65.45 11.2 57.65 4.45 50.15 -2.05 44.95 -9.0 38.0 -17.3 31.05 -16.55 25.9 -14.8 27.1 -17.65 M59.2 -25.5 Q57.85 -24.2 57.8 -22.6 L57.65 -21.5 Q56.75 -17.2 51.15 -19.35 53.5 -16.1 55.65 -11.6 L57.65 -8.0 Q66.25 6.85 75.65 17.4 M42.0 -26.9 Q46.85 -25.25 51.15 -19.35 M-14.15 -18.95 Q-16.6 -13.75 -19.25 -9.3 -24.15 -0.95 -29.85 5.1 M-9.55 1.75 Q-16.1 7.1 -21.7 8.05 -42.85 11.25 -58.6 15.4 L-63.6 16.75 -74.9 19.75 Q-109.9 40.3 -135.4 65.6 L-121.1 80.65 Q-118.25 84.1 -114.15 81.85 -89.3 72.35 -69.5 74.9 -54.15 83.5 -36.6 95.35 -35.5 95.75 -34.2 95.35 L-36.0 82.05 M-19.25 -9.3 Q-41.75 8.8 -63.6 16.75" fill="none" stroke="#000000" stroke-linecap="round" stroke-linejoin="round" stroke-width="2.0"/>
  </g>
</svg>
