<?xml version="1.0" encoding="UTF-8" standalone="no"?>
<svg xmlns:xlink="http://www.w3.org/1999/xlink" height="153.15px" width="327.45px" xmlns="http://www.w3.org/2000/svg">
  <g transform="matrix(1.0, 0.0, 0.0, 1.0, 163.7, 76.55)">
    <path d="M24.15 -40.3 L25.05 -39.75 Q26.7 -41.95 29.4 -43.85 32.85 -46.3 37.95 -48.3 33.85 -51.95 23.75 -55.0 23.0 -58.05 23.7 -60.25 24.55 -63.5 23.75 -64.35 21.65 -65.2 15.75 -68.65 9.85 -72.15 3.4 -74.8 -12.35 -76.95 -30.7 -72.9 L-41.7 -66.2 Q-46.0 -64.0 -42.45 -55.75 L-49.15 -51.3 -45.65 -49.95 -42.95 -48.75 Q-38.2 -46.55 -35.8 -44.3 -30.75 -47.05 -24.75 -49.75 L-27.95 -56.45 -30.65 -61.85 M-27.95 -56.45 Q-22.7 -65.55 -5.5 -65.1 11.1 -62.3 14.2 -52.05 L25.25 -45.7 22.05 -39.35 Q17.15 -42.0 12.2 -44.7 L12.0 -43.45 20.4 -36.75 16.3 -29.3 12.85 -31.75 Q14.0 -27.05 16.45 -22.2 18.35 -28.55 27.05 -31.95 L31.4 -33.35 32.25 -33.6 Q31.95 -35.45 25.05 -39.75 M32.25 -33.6 L33.05 -33.8 M12.0 -43.45 Q11.35 -37.8 12.85 -31.75 M103.7 35.25 L110.8 34.75 Q112.45 25.45 110.15 22.55 L102.3 11.25 Q92.8 0.2 89.0 -11.05 73.55 -21.1 60.3 -18.3 45.1 -15.1 36.8 -21.45 30.4 -26.4 27.05 -31.95 M29.4 -43.85 L41.9 -36.8 43.5 -32.8 60.55 -31.2 Q67.2 -29.6 75.65 -32.75 91.5 -36.6 105.05 -36.5 L114.45 -30.2 Q115.85 -32.65 126.2 -32.35 128.4 -31.3 132.25 -32.9 137.5 -33.65 145.55 -30.55 L152.1 -23.4 Q152.25 -20.95 152.65 -18.65 L151.95 -11.7 151.35 -7.3 Q150.55 -1.9 149.05 2.6 L156.75 3.7 Q160.85 4.65 162.75 6.15 162.6 14.45 157.5 35.6 156.95 37.6 153.3 37.75 135.95 42.7 118.1 53.8 112.75 57.05 107.35 67.35 107.1 62.9 107.55 56.6 108.0 50.25 109.15 42.05 103.65 40.35 92.3 43.55 L85.4 44.75 Q86.2 47.3 88.2 51.3 89.45 56.05 85.2 57.05 76.3 57.85 66.35 61.2 59.9 62.4 49.15 70.95 45.4 74.15 36.45 68.95 28.45 66.55 23.65 71.05 15.6 75.15 12.0 75.25 4.5 77.25 -4.4 68.3 -5.7 66.2 -20.6 70.8 -24.45 71.45 -29.3 67.35 -33.95 62.9 -39.45 60.55 -46.05 58.65 -55.45 62.55 -63.85 64.3 -67.55 61.35 -71.4 53.65 -79.8 45.5 -83.4 41.35 -92.2 42.9 -95.5 52.85 -96.65 55.1 L-97.4 56.25 Q-99.05 58.3 -100.7 56.9 -105.45 53.1 -117.8 48.85 -126.25 46.7 -127.5 37.3 -128.2 29.2 -134.0 20.7 -137.45 14.7 -128.45 7.85 L-137.15 0.5 Q-142.85 -0.25 -142.6 -1.3 -142.25 -6.45 -143.3 -8.2 -146.85 -11.7 -147.45 -13.75 L-152.55 -16.25 Q-152.9 -18.0 -151.35 -20.15 -161.0 -29.5 -162.7 -35.65 L-157.9 -41.0 -154.85 -44.15 Q-140.25 -58.8 -129.35 -60.05 -124.2 -58.8 -121.7 -49.6 -115.15 -49.65 -112.8 -46.7 L-109.4 -46.25 Q-104.9 -43.4 -101.25 -40.0 -93.9 -34.6 -85.95 -37.7 -81.3 -38.7 -74.45 -38.75 -68.2 -38.75 -63.55 -40.3 -57.35 -44.8 -55.3 -48.3 L-45.65 -49.95 M43.5 -32.8 L44.55 -30.2 M89.0 -11.05 Q85.5 -15.25 81.0 -18.05 72.95 -22.95 61.75 -23.1 39.2 -21.95 31.4 -33.35 M14.2 -52.05 Q12.7 -48.45 12.2 -44.7 M81.0 -18.05 Q103.5 -18.8 112.75 -14.6 L114.45 -16.65 Q112.6 -22.5 114.45 -30.2 M112.75 -14.6 L113.3 -14.3 117.95 -10.6 Q122.6 -7.35 124.4 -8.05 129.95 -11.5 132.15 -11.55 143.85 -10.95 151.35 -7.3 M117.95 -10.6 Q121.8 -7.1 126.4 -1.75 129.8 3.1 136.8 2.5 144.05 2.35 149.05 2.6 M109.15 42.05 L110.8 34.75 M103.7 35.25 Q93.0 36.75 82.05 42.45 78.15 43.55 75.5 44.85 75.3 46.3 75.9 47.85 77.85 54.4 74.4 54.9 67.2 54.8 61.2 57.7 57.45 59.45 54.15 62.4 L53.55 62.9 Q47.15 67.9 38.7 64.45 32.8 62.05 27.05 63.0 24.4 63.45 21.75 64.6 10.85 70.05 0.9 64.6 -2.0 62.3 -4.85 61.45 -10.2 59.8 -15.25 63.1 -23.05 66.75 -32.0 59.0 -38.5 53.9 -45.25 54.85 -47.75 55.2 -50.25 56.4 -63.2 61.7 -68.45 49.55 -73.2 42.2 -78.75 38.9 -83.8 35.85 -89.55 36.15 -90.9 39.0 -91.85 41.9 L-92.2 42.9 M-112.8 -46.7 Q-115.4 -46.5 -117.8 -44.4 -129.85 -34.65 -141.25 -22.35 L-144.45 -18.8 -147.05 -15.85 Q-147.8 -15.05 -147.45 -13.75 M-117.95 -8.4 L-120.1 -8.6 -122.25 -8.8 Q-122.65 -1.6 -126.0 6.15 L-128.45 7.85 M-123.6 6.1 L-122.1 5.95 M-114.25 -24.65 Q-119.8 -24.05 -120.8 -19.95 -122.8 -11.45 -122.25 -8.8 M-42.95 -48.75 L-46.55 -46.8 -50.5 -36.0 -54.75 -32.3 M-35.8 -44.3 Q-43.6 -40.05 -49.0 -35.8 L-45.15 -34.85 Q-38.45 -32.95 -34.6 -30.0 -31.1 -25.6 -30.4 -21.15 -22.85 -26.0 -20.1 -30.8 -24.35 -27.5 -26.7 -26.75 -28.85 -29.55 -28.8 -31.7 -25.5 -35.3 -20.0 -38.1 L-21.0 -41.0 Q-27.8 -38.05 -33.65 -32.9 -37.25 -36.0 -37.5 -39.65 -32.1 -44.15 -23.85 -47.85 L-24.75 -49.75 M-63.55 -40.3 Q-66.85 -37.95 -71.35 -35.25 M-73.95 -16.1 L-75.1 -16.8 Q-99.85 -31.85 -114.25 -24.65 M-30.4 -21.15 Q-35.7 -17.8 -43.25 -14.45 -47.65 -11.55 -49.95 -7.3 -53.3 -0.9 -63.9 6.9 -82.3 20.9 -89.55 36.15 M-45.15 -34.85 Q-62.1 -26.15 -73.95 -16.1 M-20.0 -38.1 Q-18.35 -32.9 -19.3 -31.4 -19.55 -30.95 -20.1 -30.8 M-23.85 -47.85 L-21.0 -41.0 M-123.6 6.1 L-126.0 6.15" fill="none" stroke="#000000" stroke-linecap="round" stroke-linejoin="round" stroke-width="2.0"/>
    <path d="M22.3 -44.3 Q22.3 -43.6 21.8 -43.1 21.3 -42.55 20.55 -42.55 19.85 -42.55 19.3 -43.1 18.8 -43.6 18.8 -44.3 18.8 -45.05 19.3 -45.55 19.85 -46.05 20.55 -46.05 21.3 -46.05 21.8 -45.55 22.3 -45.05 22.3 -44.3 M17.3 -34.8 Q17.3 -34.2 16.85 -33.8 16.45 -33.35 15.85 -33.35 15.25 -33.35 14.85 -33.8 14.45 -34.2 14.45 -34.8 14.45 -35.4 14.85 -35.8 15.25 -36.2 15.85 -36.2 16.45 -36.2 16.85 -35.8 17.3 -35.4 17.3 -34.8 M27.55 -0.5 L10.25 -20.2 M25.7 -26.55 Q43.1 -2.45 55.45 -1.45 75.9 4.35 88.0 10.65 M114.45 -16.65 Q117.55 -14.3 123.9 -14.3 134.5 -17.5 137.95 -16.0 147.0 -14.1 151.95 -11.7 M107.55 56.6 Q117.0 43.45 121.55 42.7 138.7 38.4 150.85 29.65 155.45 27.1 156.75 3.7 M103.7 35.25 Q104.3 37.65 104.55 40.65 M90.25 12.7 Q96.75 19.7 99.35 27.2 M100.65 29.25 Q102.65 31.4 103.7 35.25 M61.2 57.7 L61.95 61.65 M27.05 63.0 Q27.5 64.95 28.45 67.25 M19.55 17.9 Q30.55 42.6 27.35 55.5 25.9 58.35 27.05 63.0 M61.2 57.7 Q58.3 49.35 57.85 40.95 55.65 30.75 34.8 5.6 M-4.85 61.45 Q-6.25 63.5 -5.8 66.85 M17.7 11.8 L5.2 -16.5 M-157.9 -41.0 Q-156.75 -31.5 -144.45 -18.8 M-154.85 -44.15 Q-153.3 -34.85 -141.25 -22.35 M-88.9 -29.45 Q-92.6 -31.15 -98.4 -37.2 L-101.25 -40.0 M-120.1 -8.6 Q-117.7 0.7 -123.6 6.1 M-122.1 5.95 Q-117.35 5.4 -110.9 3.45 -98.2 -1.8 -83.1 -6.0 M-114.25 -24.65 Q-117.75 -19.85 -117.95 -8.4 L-98.75 -6.75 M-55.85 -18.3 Q-63.6 -14.1 -70.65 -14.05 L-73.95 -16.1 M-43.75 -23.5 L-51.95 -19.6 M-78.75 38.9 Q-70.5 24.25 -55.25 7.85 M-31.25 -38.25 Q-31.25 -37.45 -31.8 -36.9 -32.35 -36.35 -33.1 -36.35 -33.9 -36.35 -34.45 -36.9 -35.0 -37.45 -35.0 -38.25 -35.0 -39.0 -34.45 -39.55 -33.9 -40.1 -33.1 -40.1 -32.35 -40.1 -31.8 -39.55 -31.25 -39.0 -31.25 -38.25 M-23.3 -30.75 Q-23.3 -30.1 -23.75 -29.65 -24.2 -29.2 -24.85 -29.2 -25.5 -29.2 -25.95 -29.65 L-26.4 -30.75 -25.95 -31.85 Q-25.5 -32.3 -24.85 -32.3 -24.2 -32.3 -23.75 -31.85 -23.3 -31.4 -23.3 -30.75 M-45.25 54.85 L-45.25 58.65 M-78.75 38.9 L-81.35 42.25 M-6.15 22.2 Q-7.35 36.6 -3.9 55.65 -2.8 58.25 -4.85 61.45 M-45.25 54.85 Q-45.05 46.5 -44.25 38.3 -40.35 27.5 -34.6 16.8 M-137.15 0.5 L-132.9 0.9 M-122.1 5.95 Q-130.2 16.3 -128.8 19.35 -124.8 26.5 -124.65 34.1 -124.1 41.35 -117.4 41.35 -102.25 45.25 -97.4 56.25 M-51.9 3.95 L-45.0 -3.85 M-30.7 9.95 L-19.15 -17.6 M-5.4 16.25 L-4.65 -19.85" fill="none" stroke="#000000" stroke-linecap="round" stroke-linejoin="round" stroke-width="1.0"/>
  </g>
</svg>
