<?xml version="1.0" encoding="UTF-8" standalone="no"?>
<svg xmlns:xlink="http://www.w3.org/1999/xlink" height="46.8px" width="198.85px" xmlns="http://www.w3.org/2000/svg">
  <g transform="matrix(1.0, 0.0, 0.0, 1.0, 110.45, -56.0)">
    <path d="M78.15 72.8 L81.4 71.2 83.25 75.6 86.6 73.95 88.4 77.1 84.65 78.9 87.5 85.65 84.3 87.45 81.4 80.5 77.7 82.2 76.1 79.05 80.0 77.15 78.15 72.8 M76.75 59.25 Q76.75 60.65 75.8 61.6 74.85 62.55 73.5 62.55 72.1 62.55 71.15 61.6 70.2 60.65 70.2 59.25 70.2 57.9 71.15 56.95 72.1 56.0 73.5 56.0 74.85 56.0 75.8 56.95 76.75 57.9 76.75 59.25 M80.35 67.5 Q80.35 68.45 79.7 69.1 79.05 69.75 78.15 69.75 77.2 69.75 76.55 69.1 75.9 68.45 75.9 67.5 75.9 66.6 76.55 65.95 77.2 65.3 78.15 65.3 79.05 65.3 79.7 65.95 80.35 66.6 80.35 67.5 M-89.3 67.5 Q-89.3 65.8 -88.2 64.7 -87.05 63.55 -85.35 63.55 -83.75 63.55 -82.6 64.7 -81.45 65.8 -81.45 67.5 -81.45 69.1 -82.6 70.25 -83.75 71.4 -85.35 71.4 -87.05 71.4 -88.2 70.25 -89.3 69.1 -89.3 67.5 M-94.95 85.1 L-98.5 90.4 -93.25 94.05 -96.25 97.85 -100.85 94.75 -106.8 102.8 -110.45 100.0 -104.95 91.85 -109.3 88.95 -106.2 85.2 -102.3 87.8 -98.75 82.5 -94.95 85.1 M-95.85 77.05 Q-95.85 75.95 -95.05 75.15 -94.3 74.4 -93.2 74.4 -92.1 74.4 -91.3 75.15 -90.5 75.95 -90.5 77.05 -90.5 78.15 -91.3 78.9 -92.1 79.7 -93.2 79.7 -94.3 79.7 -95.05 78.9 -95.85 78.15 -95.85 77.05" fill="#fcd3a6" fill-rule="evenodd" stroke="none"/>
  </g>
</svg>
