<?xml version="1.0" encoding="UTF-8" standalone="no"?>
<svg xmlns:xlink="http://www.w3.org/1999/xlink" height="15.15px" width="32.0px" xmlns="http://www.w3.org/2000/svg">
  <g transform="matrix(1.0, 0.0, 0.0, 1.0, 16.0, 7.6)">
    <path d="M3.6 1.05 Q5.15 -1.2 7.25 -1.25 9.35 -1.3 10.25 -0.6 L7.95 -6.3 Q10.4 -6.4 12.45 -5.35 L14.2 -4.1 16.0 -2.15 Q15.75 0.7 14.5 2.85 12.95 5.5 9.8 7.15 L8.95 7.55 8.15 7.4 Q2.5 6.35 -2.1 4.8 -10.95 1.8 -16.0 -3.05 -15.2 -4.15 -12.8 -5.15 L-11.85 -5.55 -10.95 -6.35 Q-9.0 -7.75 -5.85 -7.55 -3.8 -4.35 3.6 1.05" fill="#5c96d7" fill-rule="evenodd" stroke="none"/>
  </g>
</svg>
