<?xml version="1.0" encoding="UTF-8" standalone="no"?>
<svg xmlns:xlink="http://www.w3.org/1999/xlink" height="22.95px" width="32.25px" xmlns="http://www.w3.org/2000/svg">
  <g transform="matrix(1.0, 0.0, 0.0, 1.0, 16.1, 11.45)">
    <path d="M6.7 1.2 L5.8 -1.7 5.6 -2.3 5.05 -3.95 7.1 -6.85 4.4 -7.0 3.3 -7.05 0.7 -10.9 -1.35 -6.9 -1.45 -6.85 -5.95 -6.0 -2.05 -3.05 -2.25 -1.85 -2.25 -1.8 -3.05 2.15 1.75 -1.45 1.75 -1.55 6.7 1.2 M1.75 -1.45 Q5.05 4.5 5.4 8.85 7.55 9.6 8.4 8.4 10.75 10.0 11.7 9.5 10.4 4.5 6.75 -0.8 L5.8 -1.7 M5.6 -2.3 Q9.1 -2.55 14.65 -1.05 17.0 -3.1 13.45 -5.2 15.1 -8.7 12.1 -9.6 7.4 -9.55 4.4 -7.0 M14.65 -1.05 Q10.8 2.75 6.75 -0.8 M-2.25 -1.8 L-3.15 -0.05 Q-5.7 5.4 -5.75 10.9 -4.2 11.25 -2.2 9.4 -1.0 10.15 0.35 9.4 0.15 4.65 1.75 -1.45 M-1.45 -6.85 Q-6.8 -10.15 -11.45 -9.35 -17.55 -8.7 -14.55 -4.0 -13.2 -1.85 -14.75 0.2 -11.0 1.05 -5.9 -1.15 L-2.25 -1.85 M-14.75 0.2 Q-14.4 3.9 -8.85 4.05 -5.0 2.95 -3.15 -0.05" fill="none" stroke="#000000" stroke-linecap="round" stroke-linejoin="round" stroke-width="1.1"/>
  </g>
</svg>
