<?xml version="1.0" encoding="UTF-8" standalone="no"?>
<svg xmlns:xlink="http://www.w3.org/1999/xlink" height="10.25px" width="20.35px" xmlns="http://www.w3.org/2000/svg">
  <g transform="matrix(1.0, 0.0, 0.0, 1.0, 10.15, 5.15)">
    <path d="M6.8 -4.3 Q8.9 -4.0 10.2 -2.2 10.15 0.75 7.75 0.6 L7.15 0.45 6.05 0.3 5.5 0.3 Q7.0 -0.75 6.8 -4.3 M3.15 4.9 Q2.5 0.6 0.7 0.35 3.25 -1.2 5.2 0.4 4.55 1.55 5.25 4.75 L3.15 4.9 M-10.15 -2.3 Q-9.5 -4.2 -7.05 -5.15 -4.75 -1.7 0.3 0.5 -0.95 0.9 -1.95 1.9 -7.3 0.6 -10.15 -2.3" fill="#59bf7f" fill-rule="evenodd" stroke="none"/>
  </g>
</svg>
