<?xml version="1.0" encoding="UTF-8" standalone="no"?>
<svg xmlns:xlink="http://www.w3.org/1999/xlink" height="21.4px" width="38.25px" xmlns="http://www.w3.org/2000/svg">
  <g transform="matrix(1.0, 0.0, 0.0, 1.0, 19.1, 10.7)">
    <path d="M2.25 -4.05 Q3.1 -4.3 3.0 -6.2 5.25 -3.85 7.85 -4.85 8.3 -5.55 6.85 -7.45 8.45 -5.55 10.1 -5.6 10.4 -6.5 9.2 -8.5 L11.95 -7.0 Q14.5 -2.05 19.15 2.85 12.05 1.35 9.2 -2.95 8.2 -4.0 7.95 -4.55 L11.85 8.6 9.05 5.95 8.6 5.55 7.0 3.65 Q4.0 -0.15 3.3 -2.65 L2.25 -4.05 Q0.15 1.35 1.95 10.2 -3.25 5.35 -5.9 -3.9 -9.25 0.4 -10.05 10.7 -15.3 3.85 -12.5 -5.45 L-12.45 -5.75 -13.85 -4.75 -18.2 2.55 Q-19.65 -2.1 -18.8 -5.45 -17.95 -8.8 -16.45 -9.7 L-15.5 -9.3 Q-14.5 -9.15 -13.05 -10.7 -14.15 -6.0 -10.1 -8.05 -9.95 -2.8 -5.75 -7.0 -3.55 -2.5 -1.4 -5.8 1.15 -3.7 2.25 -4.05" fill="#52e6b9" fill-rule="evenodd" stroke="none"/>
  </g>
</svg>
