<?xml version="1.0" encoding="UTF-8" standalone="no"?>
<svg xmlns:xlink="http://www.w3.org/1999/xlink" height="37.35px" width="52.55px" xmlns="http://www.w3.org/2000/svg">
  <g transform="matrix(1.0, 0.0, 0.0, 1.0, 26.25, 18.65)">
    <path d="M10.6 -6.4 Q7.55 -7.45 5.55 -6.75 L5.6 -6.3 Q5.9 -3.8 5.35 -2.6 L5.2 -2.5 Q9.6 2.4 15.0 4.25 L16.9 4.85 22.65 5.4 Q25.0 3.65 22.45 -4.05 L22.05 -5.2 22.55 -7.35 22.6 -7.45 22.6 -7.55 22.6 -7.8 22.7 -10.05 22.7 -10.55 Q22.55 -13.4 22.05 -14.5 L20.85 -16.55 Q20.15 -17.45 18.95 -17.65 12.55 -17.15 4.9 -10.4 L5.35 -8.1 5.45 -7.25 5.55 -6.75 M15.0 4.25 L15.85 4.95 20.2 7.6 Q23.75 9.65 25.3 12.2 20.2 12.0 15.75 14.85 11.25 17.65 7.6 17.2 4.8 10.75 3.45 1.25 L3.15 -0.9 3.0 -2.05 2.9 -2.05 2.95 3.25 Q3.0 5.45 2.35 9.75 L1.1 17.7 Q-2.5 15.2 -10.35 16.4 -16.4 17.2 -19.7 14.3 L-14.85 9.4 -12.0 6.85 -11.3 6.45 -11.45 6.45 Q-18.25 8.7 -21.1 7.6 -24.3 3.9 -22.8 -2.9 L-22.7 -4.25 Q-25.1 -9.5 -25.25 -12.9 -25.35 -14.5 -24.75 -15.65 -24.2 -16.75 -23.05 -17.5 L-14.55 -16.4 Q-7.35 -15.05 -0.95 -10.25 0.45 -11.8 3.9 -10.75 L4.85 -10.45 4.9 -10.4 M5.2 -2.5 L3.15 -2.05 3.0 -2.05 M2.9 -2.05 Q1.1 -2.1 0.65 -2.5 L-0.35 -0.85 Q-4.9 4.2 -11.3 6.45 M0.65 -2.5 L0.4 -2.8 Q-0.85 -4.0 -0.95 -6.1 -4.0 -5.2 -6.75 -6.15 M-0.95 -6.1 L-1.0 -6.3 -1.0 -10.15 -1.0 -10.2 -0.95 -10.25" fill="none" stroke="#000000" stroke-linecap="round" stroke-linejoin="round" stroke-width="2.0"/>
  </g>
</svg>
