<?xml version="1.0" encoding="UTF-8" standalone="no"?>
<svg xmlns:xlink="http://www.w3.org/1999/xlink" height="51.75px" width="13.95px" xmlns="http://www.w3.org/2000/svg">
  <g transform="matrix(1.0, 0.0, 0.0, 1.0, 6.95, 25.85)">
    <path d="M-3.8 -19.65 L-6.95 -23.7 -5.8 -25.7 -1.3 -20.55 -0.85 -20.55 -0.3 -20.5 0.8 -25.85 2.4 -23.8 1.6 -19.95 1.95 -19.75 2.05 -19.7 Q2.95 -15.9 2.3 -13.15 5.5 3.5 7.0 16.8 5.6 23.05 2.4 25.9 -1.85 22.75 -3.85 16.5 -3.6 10.2 -2.7 2.9 -1.75 -4.4 -1.9 -12.8 L-2.1 -12.85 Q-4.25 -16.55 -4.15 -19.45 L-3.8 -19.65" fill="#21cd28" fill-rule="evenodd" stroke="none"/>
  </g>
</svg>
