<?xml version="1.0" encoding="UTF-8" standalone="no"?>
<svg xmlns:xlink="http://www.w3.org/1999/xlink" height="30.1px" width="22.8px" xmlns="http://www.w3.org/2000/svg">
  <g transform="matrix(1.0, 0.0, 0.0, 1.0, 11.4, 15.05)">
    <path d="M-4.6 -5.3 Q-5.35 -4.9 -6.25 -4.95 -9.5 -5.85 -9.95 -10.7 L-9.85 -12.9 Q-9.55 -14.65 -8.15 -14.25 -5.15 -11.4 -1.7 -11.3 1.8 -11.2 2.8 -14.15 4.25 -14.65 4.8 -12.95 L5.6 -10.45 Q6.1 -6.35 4.6 -5.3 L3.5 -5.4 M3.15 -4.85 Q8.05 -3.45 10.25 -1.45 9.75 0.85 7.75 1.75 8.35 4.35 8.2 5.8 L10.65 11.15 Q8.4 13.2 4.5 13.7 4.1 6.4 0.4 -1.25 M-0.3 -1.15 Q-2.65 7.55 -2.85 14.3 -6.85 14.4 -9.75 12.5 L-7.55 8.25 Q-9.0 6.8 -8.6 3.2 -10.4 2.05 -10.65 0.2 -9.2 -2.8 -3.8 -4.55" fill="none" stroke="#000000" stroke-linecap="round" stroke-linejoin="round" stroke-width="1.5"/>
    <path d="M3.5 -5.4 L3.15 -4.85 1.35 -5.3 1.6 -4.0 Q1.65 -2.75 1.2 -1.95 L0.75 -1.4 Q3.0 -0.35 5.0 1.95 M0.4 -1.25 L-0.1 -1.15 -0.3 -1.15 -0.5 -1.2 -0.8 -1.35 -1.3 -2.0 -1.7 -4.1 -1.65 -5.2 -3.8 -4.55 -4.6 -5.3 Q-3.3 -5.95 -2.2 -7.7 L-1.05 -10.15 0.9 -7.45 Q2.3 -5.85 3.5 -5.4 M-2.2 -7.7 L-1.15 -6.35 -0.4 -6.6 0.55 -6.45 0.9 -7.45 M0.55 -6.45 L1.05 -6.0 1.35 -5.3 M8.2 5.8 Q8.05 7.05 7.3 7.4 4.15 7.1 0.75 -1.4 L0.4 -1.25 M-4.2 3.8 Q-3.65 1.55 -0.8 -1.35 M-1.65 -5.2 L-1.5 -5.9 -1.15 -6.35 M-7.55 8.25 L-7.1 8.65 Q-4.85 9.45 -2.05 3.7 L-0.55 -1.2 -0.5 -1.2" fill="none" stroke="#000000" stroke-linecap="round" stroke-linejoin="round" stroke-width="1.0"/>
  </g>
</svg>
