<?xml version="1.0" encoding="UTF-8" standalone="no"?>
<svg xmlns:xlink="http://www.w3.org/1999/xlink" height="16.15px" width="24.0px" xmlns="http://www.w3.org/2000/svg">
  <g transform="matrix(1.0, 0.0, 0.0, 1.0, 0.5, 8.1)">
    <path d="M5.45 -7.35 Q2.8 -7.8 0.3 -7.4 -0.5 -5.35 0.8 -1.2 2.65 2.55 5.0 3.75 L5.25 3.9 Q7.55 5.0 9.5 5.3 L10.05 5.4 11.1 5.6 11.0 7.2 Q12.85 7.9 16.75 7.2 L16.55 5.3 15.2 -3.6 15.2 -6.4 17.7 -6.35 19.3 -6.4 22.75 -6.05 Q23.25 -1.15 22.75 1.7 21.4 4.1 19.3 4.7 L17.9 5.05 16.55 5.3 M5.45 -7.35 L10.05 -6.75 11.8 -6.6 15.05 -6.4 15.2 -6.4 M11.8 -6.6 Q11.65 -4.75 12.1 -3.6 L15.05 -3.55 15.2 -3.6 M12.1 -3.6 Q11.5 0.1 11.25 3.75 L11.1 5.6" fill="none" stroke="#000000" stroke-linecap="round" stroke-linejoin="round" stroke-width="1.0"/>
    <path d="M13.15 -1.85 Q13.75 -2.15 14.45 -1.85 L14.9 5.6 Q13.8 5.85 12.65 5.6 L13.15 -1.85" fill="none" stroke="#000000" stroke-linecap="round" stroke-linejoin="round" stroke-width="0.5"/>
    <path d="M5.25 3.9 L5.25 3.75 Q4.6 -1.8 5.45 -7.35 M10.05 -6.75 Q9.45 -0.4 9.85 3.75 L10.05 5.4 M17.7 -6.35 Q18.55 -0.05 17.9 5.05" fill="none" stroke="#000000" stroke-linecap="round" stroke-linejoin="round" stroke-opacity="0.54901963" stroke-width="0.7000000000000001"/>
  </g>
</svg>
