<?xml version="1.0" encoding="UTF-8" standalone="no"?>
<svg xmlns:xlink="http://www.w3.org/1999/xlink" height="144.15px" width="149.25px" xmlns="http://www.w3.org/2000/svg">
  <g transform="matrix(1.0, 0.0, 0.0, 1.0, 74.6, 72.1)">
    <path d="M28.8 -29.85 L36.45 -32.1 39.05 -32.7 50.9 -36.0 Q58.5 -38.35 63.35 -40.7 72.25 -45.0 74.65 -45.6 74.7 -42.7 73.75 -36.0 L72.75 -29.3 72.5 -27.9 71.25 -21.7 Q69.55 -14.4 66.95 -9.35 L65.8 -7.3 62.95 -3.1 61.2 -0.9 58.2 1.95 57.05 2.75 55.75 3.65 56.2 4.05 54.4 6.8 54.45 6.9 54.6 7.1 54.85 7.4 55.4 8.3 56.2 9.6 Q61.65 18.9 62.1 30.0 62.75 48.65 55.2 56.05 L54.35 35.65 53.0 32.15 Q50.85 16.7 46.55 13.35 20.45 6.05 -4.65 8.55 -29.75 11.0 -34.05 20.0 -38.35 29.0 -38.95 36.25 L-44.55 42.5 Q-49.1 56.85 -47.85 72.05 L-55.15 72.05 -59.8 65.1 Q-64.5 61.45 -68.85 69.15 -78.2 50.4 -72.4 25.15 L-70.7 19.05 -70.4 17.55 Q-72.0 11.95 -69.7 0.15 -67.5 -11.75 -58.6 -24.05 -49.8 -36.4 -36.7 -48.3 -23.65 -60.25 -17.7 -72.1 -13.1 -49.85 -13.65 -34.2 -13.9 -26.95 -15.75 -22.45 -10.75 -22.7 -9.1 -25.25 -8.75 -23.05 -9.2 -21.25 -2.8 -21.6 4.65 -21.0 L7.85 -20.75 10.9 -20.45 11.25 -20.4 13.85 -19.8 Q16.15 -23.5 21.0 -26.35 24.3 -28.3 28.8 -29.85 M47.9 -0.9 L50.65 2.0 50.75 1.95 52.2 0.95 49.2 -0.9 46.45 -2.3 47.9 -0.9" fill="url(#gradient0)" fill-rule="evenodd" stroke="none"/>
  </g>
  <defs>
    <linearGradient gradientTransform="matrix(0.0, 0.0828, -0.0911, 0.0, 0.05, 76.7)" gradientUnits="userSpaceOnUse" id="gradient0" spreadMethod="pad" x1="-819.2" x2="819.2">
      <stop offset="0.0" stop-color="#fff23c" stop-opacity="0.0"/>
      <stop offset="0.3803921568627451" stop-color="#fff23c" stop-opacity="0.84705883"/>
      <stop offset="0.6039215686274509" stop-color="#fff23c" stop-opacity="0.8"/>
      <stop offset="1.0" stop-color="#fff23c" stop-opacity="0.0"/>
    </linearGradient>
  </defs>
</svg>
