<?xml version="1.0" encoding="UTF-8" standalone="no"?>
<svg xmlns:xlink="http://www.w3.org/1999/xlink" height="184.0px" width="154.4px" xmlns="http://www.w3.org/2000/svg">
  <g transform="matrix(1.0, 0.0, 0.0, 1.0, 77.2, 92.0)">
    <path d="M65.9 -62.4 Q74.8 -66.7 77.2 -67.3 77.25 -62.85 75.05 -49.6 L73.9 -43.7 73.8 -43.4 Q71.7 -34.55 68.35 -29.0 66.6 -26.15 64.9 -24.0 62.8 -21.35 60.75 -19.75 L59.6 -18.95 58.3 -18.05 58.75 -17.65 57.0 -14.9 Q69.35 1.7 71.55 22.75 74.6 47.2 67.2 71.2 68.2 56.8 66.1 42.3 69.35 70.15 49.1 86.35 53.6 79.55 58.45 60.7 54.45 74.5 40.85 91.7 53.9 68.35 52.5 28.4 51.7 12.45 45.8 -7.65 38.1 -9.1 34.85 -9.15 L34.75 -9.15 Q22.95 -9.25 13.15 -2.85 -3.8 -11.75 -26.15 -9.25 -36.5 0.15 -38.0 29.2 -39.55 58.2 -18.2 92.0 -30.8 84.0 -38.95 73.65 L-42.4 68.85 -35.9 84.55 -43.4 76.65 Q-49.2 70.4 -51.8 66.95 L-52.75 65.6 Q-59.0 56.3 -62.2 44.8 -63.1 54.85 -62.55 63.25 -62.1 69.3 -60.9 74.55 -60.0 78.45 -58.7 81.85 -68.0 70.05 -69.55 56.85 L-69.1 71.4 Q-68.95 75.9 -69.6 83.75 -81.6 46.9 -74.7 8.85 -73.55 2.85 -71.55 -2.35 -73.15 -7.95 -70.85 -19.75 -68.65 -31.65 -59.75 -43.95 -50.95 -56.3 -37.85 -68.2 -24.8 -80.15 -18.85 -92.0 -14.25 -69.75 -14.8 -54.1 -15.05 -46.85 -16.9 -42.35 -11.9 -42.6 -10.25 -45.15 -9.8 -42.45 -10.6 -40.4 L-7.3 -40.55 8.45 -41.1 10.6 -40.9 15.5 -40.4 Q19.1 -45.45 23.55 -48.05 29.45 -51.5 39.0 -53.8 57.05 -58.1 65.9 -62.4 M54.75 -20.75 Q52.05 -22.55 49.0 -24.0 L53.2 -19.7 53.3 -19.75 54.75 -20.75" fill="#bfffd0" fill-rule="evenodd" stroke="none"/>
  </g>
</svg>
