<?xml version="1.0" encoding="UTF-8" standalone="no"?>
<svg xmlns:xlink="http://www.w3.org/1999/xlink" height="236.15px" width="157.25px" xmlns="http://www.w3.org/2000/svg">
  <g transform="matrix(1.0, 0.0, 0.0, 1.0, 78.65, 118.1)">
    <path d="M22.6 -26.9 Q26.05 -38.85 35.55 -52.45 45.0 -66.1 52.35 -77.6 59.7 -89.15 67.15 -108.75 68.65 -105.5 68.15 -101.55 67.65 -97.65 70.8 -103.95 71.45 -98.65 71.05 -92.35 72.7 -69.6 69.35 -53.85 67.25 -37.55 60.75 -24.5 L63.7 -22.85 Q63.35 -20.85 60.0 -18.7 56.65 -16.6 53.55 -17.4 57.3 -15.5 59.2 -12.55 L57.25 -10.85 Q61.1 -7.75 64.55 -4.05 66.6 -1.3 68.0 1.65 76.0 18.45 77.3 32.15 78.6 45.8 74.25 72.95 69.95 100.1 76.6 117.05 62.15 102.4 67.4 80.4 62.25 92.15 52.45 101.35 60.25 85.1 62.05 61.5 63.5 42.45 57.7 23.4 59.65 12.2 49.6 5.3 16.85 -3.0 -17.45 5.25 -28.9 10.8 -28.8 32.65 -35.7 71.2 -20.9 103.1 -33.1 94.75 -41.25 83.0 L-43.6 79.35 Q-49.7 70.9 -53.15 58.1 L-55.45 58.3 Q-63.2 61.95 -58.9 69.85 -58.95 97.05 -77.65 117.05 -70.1 94.7 -69.65 62.75 L-69.65 62.7 Q-70.55 38.2 -66.55 20.65 -58.9 -1.6 -43.05 -13.7 -50.7 -32.7 -53.3 -49.65 -53.0 -80.65 -47.25 -111.9 -46.0 -113.5 -44.05 -108.9 -44.2 -114.7 -43.95 -117.1 -27.95 -102.05 -19.2 -79.3 -11.55 -59.4 -14.7 -33.85 L-12.8 -34.55 Q-12.15 -30.05 -13.15 -27.75 L-13.9 -26.3 Q0.25 -28.9 20.55 -26.65 L29.3 -24.75 Q33.3 -23.7 37.05 -22.3 41.05 -26.55 43.5 -32.2 47.35 -42.7 52.9 -61.65 58.45 -80.6 65.75 -87.65 M43.5 -32.2 Q47.8 -34.9 58.3 -33.95 56.6 -28.7 52.5 -25.75 L57.45 -25.45 60.75 -24.5 M37.05 -22.3 Q48.3 -18.1 57.25 -10.85 M67.4 80.4 Q71.8 70.3 72.85 58.35 73.3 53.0 73.1 47.25 72.05 22.0 67.6 11.15 M-13.9 -26.3 Q-14.65 -25.1 -15.55 -24.35 -13.1 -25.1 -9.6 -22.5 -10.35 -19.5 -13.5 -17.95 -19.85 -13.75 -29.9 -11.3 L-34.15 -19.4 -36.85 -26.05 Q-41.75 -39.9 -42.05 -55.95 -42.4 -80.9 -39.45 -100.7 L-39.2 -102.0 M-41.05 -8.95 L-43.05 -13.7 M-36.85 -26.05 Q-36.5 -30.6 -32.35 -33.2 L-25.05 -37.55 Q-23.85 -32.4 -24.4 -28.45 -22.8 -30.2 -19.3 -32.05 L-14.7 -33.85 M-53.15 58.1 Q-55.2 50.55 -56.35 41.45" fill="none" stroke="#000000" stroke-linecap="round" stroke-linejoin="round" stroke-width="2.0"/>
  </g>
</svg>
