<?xml version="1.0" encoding="UTF-8" standalone="no"?>
<svg xmlns:xlink="http://www.w3.org/1999/xlink" height="25.15px" width="112.95px" xmlns="http://www.w3.org/2000/svg">
  <g transform="matrix(1.0, 0.0, 0.0, 1.0, 51.65, 49.9)">
    <path d="M38.25 -43.8 Q42.75 -49.25 48.7 -49.6 58.1 -49.65 60.75 -41.2 62.45 -35.55 59.1 -30.35 55.55 -33.7 51.6 -36.45 46.0 -40.35 39.6 -43.2 L38.25 -43.8 M-45.65 -24.75 Q-48.55 -27.2 -50.1 -30.0 L-50.7 -31.5 Q-53.35 -39.0 -48.5 -44.85 -44.75 -48.95 -39.55 -49.75 L-35.5 -49.5 Q-31.35 -48.3 -29.2 -45.25 -27.45 -42.75 -27.0 -39.0 -38.25 -34.05 -45.65 -24.75" fill="#000000" fill-opacity="0.32941177" fill-rule="evenodd" stroke="none"/>
  </g>
</svg>
