<?xml version="1.0" encoding="UTF-8" standalone="no"?>
<svg xmlns:xlink="http://www.w3.org/1999/xlink" height="135.25px" width="146.1px" xmlns="http://www.w3.org/2000/svg">
  <g transform="matrix(1.0, 0.0, 0.0, 1.0, 73.05, 67.6)">
    <path d="M-69.4 -15.45 Q-64.95 -41.75 -46.05 -56.7 -30.45 -66.75 -5.85 -67.55 L15.75 -66.45 Q44.85 -62.85 58.95 -34.95 70.05 -17.25 69.75 13.4 70.5 29.6 73.05 40.75 66.9 35.15 60.45 23.35 59.85 42.35 63.65 67.65 53.8 61.35 49.95 64.1 L46.75 48.8 Q54.0 39.55 54.1 31.9 53.4 18.25 55.05 12.6 L52.55 6.95 37.65 -22.95 37.65 -23.05 37.6 -23.05 Q14.65 -34.1 -5.95 -26.85 L-6.0 -26.85 -6.2 -26.2 Q-8.2 -19.95 -11.6 -13.25 -21.15 6.25 -36.8 22.1 -35.15 38.55 -30.75 51.25 -36.8 49.9 -38.45 45.85 -36.8 63.15 -34.2 67.65 -44.25 58.75 -50.1 61.1 -56.7 42.4 -59.9 23.8 -62.6 17.6 -67.75 20.55 -68.85 13.25 -69.55 6.25 L-70.0 4.3 Q-74.7 -4.8 -72.15 -11.3 L-69.4 -15.45" fill="url(#gradient0)" fill-rule="evenodd" stroke="none"/>
  </g>
  <defs>
    <linearGradient gradientTransform="matrix(0.0, 0.0981, -0.0892, 0.0, 0.0, 55.25)" gradientUnits="userSpaceOnUse" id="gradient0" spreadMethod="pad" x1="-819.2" x2="819.2">
      <stop offset="0.0" stop-color="#fff23c" stop-opacity="0.0"/>
      <stop offset="0.3803921568627451" stop-color="#fff23c" stop-opacity="0.84705883"/>
      <stop offset="0.6039215686274509" stop-color="#fff23c" stop-opacity="0.8"/>
      <stop offset="1.0" stop-color="#fff23c" stop-opacity="0.0"/>
    </linearGradient>
  </defs>
</svg>
