<?xml version="1.0" encoding="UTF-8" standalone="no"?>
<svg xmlns:xlink="http://www.w3.org/1999/xlink" height="266.95px" width="204.55px" xmlns="http://www.w3.org/2000/svg">
  <g transform="matrix(1.0, 0.0, 0.0, 1.0, 102.3, 133.45)">
    <path d="M44.8 -128.2 Q50.2 -135.75 58.8 -132.45 79.3 -128.7 92.3 -101.65 107.35 -69.55 93.35 -26.15 L92.05 -22.2 Q90.95 -19.0 90.0 -15.8 100.4 19.65 87.85 47.7 L90.0 53.9 91.2 56.75 91.7 57.9 Q98.1 68.25 100.6 77.1 L100.7 77.55 Q107.9 103.45 82.1 116.45 83.85 125.0 86.8 133.5 81.75 126.15 78.25 118.25 72.45 120.7 65.25 122.65 71.9 119.3 76.95 115.1 65.15 85.6 74.15 48.8 61.2 28.65 69.7 -8.95 63.45 -4.05 57.25 -2.6 59.6 -5.85 65.2 -24.6 69.65 -52.4 64.15 -80.65 L64.1 -80.65 Q62.05 -88.4 57.25 -92.5 52.9 -97.3 39.35 -100.2 25.85 -103.1 4.0 -99.35 -17.85 -95.6 -22.7 -88.05 L-22.85 -87.8 Q-32.6 -46.5 -10.9 2.25 -27.05 -2.8 -33.8 -10.85 L-40.2 -4.15 Q-44.15 -23.55 -45.2 -39.55 -49.95 -45.2 -55.7 -34.9 -58.05 -38.6 -59.75 -42.4 -62.35 -30.9 -66.2 -18.7 -65.4 -12.45 -64.15 -6.25 -52.15 41.95 -75.75 61.6 -52.5 85.35 -72.25 105.85 -68.0 88.3 -78.95 64.0 L-83.05 66.55 Q-92.4 107.95 -56.9 125.8 -101.8 113.75 -93.3 80.7 L-93.2 80.25 Q-90.85 71.4 -84.7 61.05 L-84.2 59.9 Q-118.4 46.5 -88.05 -23.0 -102.95 -66.4 -88.55 -98.5 -76.1 -125.55 -55.65 -129.3 -45.6 -133.2 -39.65 -122.1 -37.35 -122.4 -35.2 -121.15 L-34.75 -120.85 Q-26.25 -125.6 -15.45 -128.3 -1.6 -131.75 12.3 -130.85 25.5 -130.2 37.65 -125.1 38.3 -126.05 39.25 -126.8 41.7 -128.65 44.8 -128.2 M90.2 63.4 L86.05 60.85 83.3 58.85 Q76.85 85.3 81.1 111.15 97.6 93.5 90.2 63.4 M-79.7 5.7 Q-98.4 41.0 -83.05 57.05 -74.4 33.95 -79.7 5.7" fill="#f3bde3" fill-rule="evenodd" stroke="none"/>
  </g>
</svg>
