<?xml version="1.0" encoding="UTF-8" standalone="no"?>
<svg xmlns:xlink="http://www.w3.org/1999/xlink" height="133.35px" width="164.15px" xmlns="http://www.w3.org/2000/svg">
  <g transform="matrix(1.0, 0.0, 0.0, 1.0, 82.1, 66.7)">
    <path d="M81.0 4.2 Q81.8 28.4 64.15 47.5 L62.95 59.9 Q61.7 62.95 57.65 63.3 L57.65 57.9 60.95 53.9 62.0 42.1 Q63.15 31.7 59.25 19.95 59.95 12.3 56.65 3.7 54.95 -0.75 48.5 -6.4 35.05 -10.9 21.7 -10.1 -3.1 -13.65 -21.55 -7.15 -31.25 0.45 -32.3 19.15 L-40.3 30.8 Q-43.85 38.9 -43.4 43.6 -43.0 48.25 -42.05 50.2 -38.25 54.75 -35.45 55.95 L-38.2 65.65 Q-45.15 61.35 -49.35 53.15 -54.85 46.8 -60.25 51.15 -81.1 37.0 -81.1 4.0 -81.1 -29.0 -56.5 -48.1 -31.95 -67.2 3.5 -65.6 38.95 -64.05 59.55 -42.85 80.15 -21.7 81.0 4.2 Z" fill="none" stroke="#000000" stroke-linecap="round" stroke-linejoin="round" stroke-width="2.0"/>
  </g>
</svg>
