<?xml version="1.0" encoding="UTF-8" standalone="no"?>
<svg xmlns:xlink="http://www.w3.org/1999/xlink" height="199.35px" width="156.0px" xmlns="http://www.w3.org/2000/svg">
  <g transform="matrix(1.0, 0.0, 0.0, 1.0, 78.0, 99.65)">
    <path d="M-50.2 -65.0 Q-50.5 -66.95 -50.25 -68.95 -47.95 -77.25 -40.3 -77.05 -40.15 -80.65 -36.6 -80.4 -40.15 -92.05 -27.8 -99.65 -33.0 -90.7 -35.8 -81.4 -25.9 -92.5 -1.4 -96.45 1.0 -96.65 3.25 -95.45 9.3 -97.65 19.2 -96.3 40.55 -93.1 54.0 -79.0 64.85 -66.85 66.0 -54.75 69.05 -29.7 66.0 -9.05 68.55 8.55 68.5 22.95 69.05 35.5 68.3 47.85 L68.3 47.9 Q68.6 84.2 78.0 88.3 68.4 84.35 65.7 73.6 61.85 93.25 52.05 99.5 56.85 91.75 59.8 83.0 57.05 90.35 49.3 97.7 L42.7 91.3 Q47.3 83.65 48.65 76.05 46.8 82.85 40.55 89.75 L33.9 84.85 Q43.9 57.25 46.85 21.7 57.8 15.55 61.5 4.65 63.25 -1.3 61.05 -10.6 L62.95 -32.35 Q60.75 -21.25 54.85 -16.4 64.85 -35.2 58.3 -60.0 57.5 -65.25 55.75 -66.55 L52.65 -66.3 Q51.2 -69.7 49.8 -70.05 48.4 -67.75 45.65 -72.0 L42.8 -71.95 40.65 -70.95 Q39.15 -71.7 38.55 -73.05 37.1 -71.65 36.0 -71.25 34.7 -71.9 33.65 -73.35 31.0 -73.95 27.75 -70.85 26.45 -70.3 24.1 -72.75 23.3 -71.55 21.75 -71.05 19.3 -71.1 14.85 -73.85 13.0 -71.5 11.15 -71.0 9.15 -71.2 7.1 -73.45 5.2 -71.0 3.6 -70.7 2.25 -71.25 1.1 -73.0 L-2.65 -71.35 -4.6 -70.0 -4.75 -71.15 Q-4.7 -72.65 -10.55 -67.45 -11.95 -66.45 -13.3 -67.8 -15.25 -62.25 -18.35 -63.45 -19.1 -60.2 -22.4 -61.25 -21.45 -59.55 -23.6 -56.7 -27.85 -13.1 -24.85 23.1 -22.1 57.4 -12.3 85.05 L-18.85 89.95 Q-24.95 83.05 -26.75 76.2 -25.45 83.85 -21.0 91.55 L-27.45 97.9 Q-34.9 90.55 -37.65 83.2 -34.75 91.95 -30.05 99.7 -39.6 93.55 -43.4 73.8 -46.05 84.4 -55.25 88.5 -46.25 84.15 -45.9 48.8 L-45.9 48.1 Q-46.7 35.65 -46.15 23.1 -45.85 16.15 -45.05 9.0 L-43.7 -4.15 -47.4 -9.8 Q-51.85 -13.75 -57.5 -11.8 -61.8 -14.75 -62.7 -21.3 -63.4 -26.05 -60.45 -37.0 -64.55 -34.15 -68.4 -33.65 -74.05 -32.55 -78.0 -38.95 -74.45 -37.2 -69.85 -38.1 -65.25 -39.1 -58.3 -46.95 -59.25 -49.15 -59.4 -50.4 -59.5 -52.0 -57.45 -52.1 -58.75 -54.85 -58.75 -56.8 -57.3 -62.85 -52.75 -62.9 L-53.35 -65.3 Q-52.45 -67.55 -50.2 -65.0" fill="#46505a" fill-rule="evenodd" stroke="none"/>
  </g>
</svg>
