<?xml version="1.0" encoding="UTF-8" standalone="no"?>
<svg xmlns:xlink="http://www.w3.org/1999/xlink" height="28.15px" width="20.75px" xmlns="http://www.w3.org/2000/svg">
  <g transform="matrix(1.0, 0.0, 0.0, 1.0, 10.35, 14.1)">
    <path d="M-4.2 -7.05 Q-0.55 -6.05 2.95 -3.45 L1.75 -0.05 -6.05 -4.2 -4.2 -7.05 M-1.65 -10.95 Q2.8 -11.05 5.1 -7.8 L4.05 -4.75 Q0.75 -7.65 -3.95 -9.0 L-3.95 -9.6 Q-2.9 -10.35 -1.65 -10.95" fill="#ffffff" fill-opacity="0.24705882" fill-rule="evenodd" stroke="none"/>
    <path d="M-6.05 -4.2 Q-7.95 -1.15 -9.0 1.5 -8.65 2.4 -7.5 3.1 L-6.4 3.6 Q-3.15 0.25 -2.0 0.05 -0.75 2.15 -1.05 6.0 1.4 7.45 4.65 8.1 L6.0 8.3 Q8.3 3.4 9.4 -3.65 M-1.65 -10.95 Q-2.9 -10.35 -3.95 -9.6 L-3.95 -9.0 -3.95 -7.45 -4.2 -7.05 -6.05 -4.2 M8.95 -11.6 Q8.6 -12.05 6.9 -13.1 2.0 -12.75 -1.65 -10.95 M-7.5 3.1 L-9.25 7.25 Q-9.9 9.05 -4.95 11.25 0.0 13.4 3.35 12.95 4.15 11.7 4.65 8.1" fill="none" stroke="#000000" stroke-linecap="round" stroke-linejoin="round" stroke-width="2.0"/>
    <path d="M-4.2 -7.05 Q-0.55 -6.05 2.95 -3.45 L1.75 -0.05 -6.05 -4.2 -6.3 -4.35 M-3.95 -9.0 Q0.75 -7.65 4.05 -4.75 L5.1 -7.8 Q2.8 -11.05 -1.65 -10.95" fill="none" stroke="#000000" stroke-linecap="round" stroke-linejoin="round" stroke-width="1.0"/>
  </g>
</svg>
