<?xml version="1.0" encoding="UTF-8" standalone="no"?>
<svg xmlns:xlink="http://www.w3.org/1999/xlink" height="36.1px" width="21.2px" xmlns="http://www.w3.org/2000/svg">
  <g transform="matrix(1.0, 0.0, 0.0, 1.0, 10.6, 18.05)">
    <path d="M-7.9 3.85 L-10.1 2.5 -10.05 2.45 -8.75 -1.7 -8.7 -1.75 -8.6 -1.95 Q-6.6 -7.4 -2.2 -11.45 2.0 -15.3 8.3 -17.95 L8.5 -18.05 Q10.85 -15.35 10.6 -9.4 L10.6 -9.35 Q9.1 -1.9 6.4 4.4 L4.75 7.75 3.55 7.65 3.5 7.65 3.5 7.6 Q-2.8 6.65 -7.85 3.8 L-7.9 3.85" fill="#383d4c" fill-rule="evenodd" stroke="none"/>
    <path d="M3.55 7.65 L3.55 7.75 3.5 7.65 3.55 7.65" fill="#211f2b" fill-rule="evenodd" stroke="none"/>
    <path d="M3.55 7.75 L0.5 15.1 Q-2.45 18.6 -6.05 17.95 -10.45 16.8 -10.6 11.45 -9.6 7.1 -7.9 3.85 L-7.85 3.8 Q-2.8 6.65 3.5 7.6 L3.5 7.65 3.55 7.75" fill="#656e8a" fill-rule="evenodd" stroke="none"/>
  </g>
</svg>
