<?xml version="1.0" encoding="UTF-8" standalone="no"?>
<svg xmlns:xlink="http://www.w3.org/1999/xlink" height="38.25px" width="30.75px" xmlns="http://www.w3.org/2000/svg">
  <g transform="matrix(1.0, 0.0, 0.0, 1.0, 15.4, 19.1)">
    <path d="M4.85 -12.5 L4.85 -12.55 Q0.25 -10.85 -2.0 -14.4 -2.75 -13.4 -2.7 -11.55 L-2.7 -10.65 -2.15 -8.45 -2.15 -8.4 -1.7 -7.75 2.2 -7.85 3.85 -8.8 3.9 -8.85 5.0 -11.85 4.85 -12.5 Q9.3 -19.25 5.8 -18.2 3.25 -16.95 2.5 -15.45 4.55 -14.55 4.85 -12.55 M5.0 -11.85 L5.35 -12.95 5.35 -13.0 8.15 -14.9 Q10.1 -11.25 14.6 -8.65 L13.55 -5.3 Q11.05 5.65 6.55 17.2 2.75 19.3 -1.55 17.8 -6.85 13.85 -2.25 3.2 1.4 -2.45 3.85 -8.8 M13.55 -5.3 Q7.85 -8.3 5.35 -12.95 M-2.7 -11.55 Q-8.3 -10.2 -14.65 -6.95 -12.35 -4.15 -13.3 -1.7 L-13.1 -1.85 -10.85 -3.55 Q-6.05 -6.95 -2.15 -8.4 M-1.7 -7.75 Q-7.6 -3.4 -11.25 0.75 -7.1 1.7 -7.15 4.9 L2.2 -7.85 M2.5 -15.45 Q-0.8 -16.15 -2.0 -14.4" fill="none" stroke="#000000" stroke-linecap="round" stroke-linejoin="round" stroke-width="1.5"/>
  </g>
</svg>
