<?xml version="1.0" encoding="UTF-8" standalone="no"?>
<svg xmlns:xlink="http://www.w3.org/1999/xlink" height="35.9px" width="69.15px" xmlns="http://www.w3.org/2000/svg">
  <g transform="matrix(1.0, 0.0, 0.0, 1.0, 34.6, 17.95)">
    <path d="M-14.35 -12.2 L-14.95 -14.05 Q13.45 -8.8 33.55 -11.35 L30.2 -5.05 28.2 -4.1 31.1 -0.7 Q27.25 11.05 17.05 16.95 11.35 10.15 -4.3 -0.75 -11.95 -6.15 -9.2 -7.1 -13.35 -8.65 -13.1 -9.2 -18.65 -3.8 -30.45 -4.25 -26.95 -8.05 -20.15 -11.9 -29.2 -12.1 -33.6 -16.1 L-23.2 -16.95 Q-16.0 -15.25 -14.35 -12.2 L-13.0 -9.35 -13.1 -9.2 M-20.15 -11.9 L-14.35 -12.2 M-9.2 -7.1 Q-0.25 -5.45 7.5 -5.25 M28.2 -4.1 Q22.8 -0.7 13.45 0.0" fill="none" stroke="#000000" stroke-linecap="round" stroke-linejoin="round" stroke-width="2.0"/>
  </g>
</svg>
