<?xml version="1.0" encoding="UTF-8" standalone="no"?>
<svg xmlns:xlink="http://www.w3.org/1999/xlink" height="20.9px" width="41.05px" xmlns="http://www.w3.org/2000/svg">
  <g transform="matrix(1.0, 0.0, 0.0, 1.0, 20.5, 10.45)">
    <path d="M5.0 -3.05 Q4.3 -3.75 3.45 -4.0 10.6 -9.95 15.5 -10.45 17.55 -10.6 18.6 -9.25 L18.85 -8.95 Q19.55 -7.75 19.75 -5.35 L19.75 -4.95 19.7 -3.05 19.6 -2.85 19.6 -2.75 19.55 -2.7 19.2 -0.9 20.0 1.75 20.05 1.95 Q20.5 3.6 20.55 4.8 L20.5 6.0 20.4 6.65 19.75 8.0 19.0 8.05 14.9 7.65 13.3 7.2 Q10.35 6.25 7.75 4.3 L5.3 2.4 5.4 2.3 Q6.35 1.2 6.25 -0.4 6.15 -1.95 5.0 -3.05 M1.4 -4.0 Q0.6 -3.75 0.0 -3.05 -0.9 -1.95 -0.8 -0.4 -0.7 1.2 0.4 2.3 L0.75 2.6 Q-0.55 4.45 -1.65 5.4 L-1.75 5.5 -3.1 6.65 -4.9 8.0 -6.25 8.75 -6.7 8.95 -6.85 9.05 -7.15 9.15 -7.65 9.35 -7.9 9.45 -8.35 9.55 -8.65 9.65 -8.75 9.7 -11.25 10.25 Q-14.25 10.85 -16.9 9.8 -20.5 7.8 -18.4 0.9 L-19.7 -2.25 -19.95 -3.05 -20.5 -6.25 Q-20.6 -7.6 -20.05 -8.6 -19.7 -9.5 -18.7 -10.15 L-16.2 -10.3 Q-8.15 -10.7 1.4 -4.0 M3.35 3.5 L3.15 3.4 3.35 3.4 3.35 3.5" fill="#ffffff" fill-rule="evenodd" stroke="none"/>
  </g>
</svg>
