<?xml version="1.0" encoding="UTF-8" standalone="no"?>
<svg xmlns:xlink="http://www.w3.org/1999/xlink" height="22.75px" width="30.6px" xmlns="http://www.w3.org/2000/svg">
  <g transform="matrix(1.0, 0.0, 0.0, 1.0, 15.3, 11.35)">
    <path d="M2.1 -4.9 L2.0 -4.8 4.45 -2.9 Q7.05 -0.95 10.0 0.0 L10.05 0.2 10.65 1.6 Q12.35 4.85 15.3 8.4 L10.9 8.0 8.55 8.25 7.0 8.75 Q5.55 9.35 4.4 10.4 L3.8 11.05 Q1.45 5.75 0.2 -2.25 L0.05 -3.7 0.05 -3.8 -0.15 -3.8 -0.25 -3.8 -0.35 -3.8 -0.5 -2.5 -0.95 3.05 -1.05 4.35 Q-1.4 9.0 -3.35 11.4 L-3.5 11.35 -4.65 10.85 Q-6.75 10.15 -9.3 10.2 -12.1 9.9 -15.3 10.75 -12.8 7.7 -12.15 3.65 L-12.05 2.5 -11.95 2.45 -11.65 2.35 -11.2 2.25 -10.95 2.15 -10.45 1.95 -10.15 1.85 -10.0 1.75 -9.55 1.55 -8.2 0.8 -6.4 -0.55 -5.05 -1.7 -4.95 -1.8 Q-3.85 -2.75 -2.55 -4.6 L-2.9 -4.9 Q-4.0 -6.0 -4.1 -7.6 -4.2 -9.15 -3.3 -10.25 L-1.9 -11.2 -0.85 -11.35 0.15 -11.2 Q1.0 -10.95 1.7 -10.25 2.85 -9.15 2.95 -7.6 3.05 -6.0 2.1 -4.9" fill="#6dffbb" fill-rule="evenodd" stroke="none"/>
  </g>
</svg>
