<?xml version="1.0" encoding="UTF-8" standalone="no"?>
<svg xmlns:xlink="http://www.w3.org/1999/xlink" height="38.9px" width="29.85px" xmlns="http://www.w3.org/2000/svg">
  <g transform="matrix(1.0, 0.0, 0.0, 1.0, 14.9, 19.45)">
    <path d="M5.75 -7.35 Q6.85 -10.6 7.6 -18.5 L10.2 -17.25 10.5 -17.05 11.8 -16.05 12.65 -14.75 Q10.35 -9.05 7.25 -6.35 L7.55 -5.8 Q11.75 -2.0 14.25 2.25 12.85 4.7 10.4 4.7 11.95 10.6 13.65 13.5 L10.8 14.45 7.2 1.6 7.15 3.95 Q8.95 11.45 8.7 18.25 L5.65 18.75 Q5.9 12.1 5.25 4.8 2.55 4.5 0.9 3.6 3.05 -2.3 6.15 -5.8 -8.75 -10.05 -14.2 -15.5 L-13.15 -16.55 -11.7 -17.45 Q-10.1 -18.35 -7.7 -18.75 -2.55 -13.55 1.35 -10.85 5.2 -8.1 5.75 -7.35 L6.3 -6.75 6.3 -6.7 6.35 -6.7 6.5 -6.05 6.5 -5.9 6.45 -5.75 7.25 -6.35 M7.2 1.6 L6.75 -2.15 6.35 -2.25 Q5.65 -4.4 6.35 -5.75 L6.15 -5.8 M6.45 -5.75 L6.35 -5.75 M6.75 -2.15 L7.75 -2.3 8.2 -2.55 Q8.3 -4.35 7.55 -5.8 M7.15 3.95 L6.9 4.9 5.25 4.8 M7.75 -2.3 L10.4 4.7" fill="none" stroke="#000000" stroke-linecap="round" stroke-linejoin="round" stroke-width="1.4000000000000001"/>
  </g>
</svg>
