<?xml version="1.0" encoding="UTF-8" standalone="no"?>
<svg xmlns:xlink="http://www.w3.org/1999/xlink" height="38.1px" width="70.25px" xmlns="http://www.w3.org/2000/svg">
  <g transform="matrix(1.0, 0.0, 0.0, 1.0, 27.05, 8.7)">
    <path d="M15.75 20.65 L14.5 20.2 14.75 10.75 Q-1.85 4.3 -10.3 -6.7 L-5.5 -8.7 Q-0.1 1.35 14.75 6.05 21.1 0.9 22.35 -5.1 L25.8 -3.45 Q24.15 4.15 17.0 10.4 L17.1 19.7 Q16.4 20.2 15.75 20.65 L23.05 21.5 24.0 13.95 30.6 13.95 30.35 6.15 31.2 3.75 31.7 4.35 36.75 16.65 29.55 16.65 29.55 20.05 25.55 20.05 25.55 24.15 21.05 24.15 17.75 29.4 15.75 20.65 15.15 29.25 10.9 24.85 5.5 25.7 3.15 21.85 -0.8 22.55 -2.4 19.0 -7.95 20.2 -10.6 14.8 -15.7 14.25 -17.25 10.3 -26.05 11.1 -23.15 8.15 -11.45 6.95 -7.1 17.25 2.9 14.85 2.9 14.95 6.25 23.0 15.75 20.65 M-8.95 23.65 L-9.95 23.3 -10.3 22.3 Q-10.3 21.75 -9.95 21.35 L-8.95 20.95 Q-8.4 20.95 -8.0 21.35 -7.6 21.75 -7.6 22.3 -7.6 22.85 -8.0 23.3 -8.4 23.65 -8.95 23.65 M-24.3 15.25 Q-24.3 15.8 -24.7 16.25 -25.1 16.6 -25.65 16.6 L-26.6 16.25 -27.05 15.25 Q-27.05 14.7 -26.6 14.3 -26.2 13.9 -25.65 13.9 -25.1 13.9 -24.7 14.3 -24.3 14.7 -24.3 15.25 M42.75 18.45 Q43.2 18.9 43.2 19.45 L42.75 20.3 Q42.45 20.75 41.9 20.75 41.35 20.75 40.9 20.3 40.6 20.0 40.6 19.45 40.6 18.9 40.9 18.45 41.35 18.15 41.9 18.15 42.45 18.15 42.75 18.45 M25.3 15.8 L25.3 18.45 28.3 18.45 27.55 15.8 25.3 15.8 M34.95 20.8 Q35.4 20.45 35.9 20.45 36.4 20.45 36.75 20.8 37.15 21.2 37.15 21.7 37.15 22.2 36.75 22.55 L35.9 22.9 Q35.4 22.9 34.95 22.55 34.65 22.2 34.65 21.7 34.65 21.2 34.95 20.8 M2.55 19.6 L1.85 17.55 -0.75 18.35 0.3 20.45 2.55 19.6 M6.3 27.95 Q6.3 28.45 5.9 28.75 5.6 29.15 5.1 29.15 4.55 29.15 4.15 28.75 3.85 28.45 3.85 27.95 3.85 27.45 4.15 27.0 4.55 26.7 5.1 26.7 5.6 26.7 5.9 27.0 6.3 27.45 6.3 27.95 M25.0 27.2 Q25.0 26.65 25.45 26.15 25.85 25.75 26.45 25.75 27.0 25.75 27.4 26.15 L27.85 27.2 Q27.85 27.75 27.4 28.1 27.0 28.6 26.45 28.6 25.85 28.6 25.45 28.1 25.0 27.75 25.0 27.2" fill="#ffffff" fill-rule="evenodd" stroke="none"/>
  </g>
</svg>
