<?xml version="1.0" encoding="UTF-8" standalone="no"?>
<svg xmlns:xlink="http://www.w3.org/1999/xlink" height="65.65px" width="57.6px" xmlns="http://www.w3.org/2000/svg">
  <g transform="matrix(1.0, 0.0, 0.0, 1.0, 28.8, 32.8)">
    <path d="M17.2 -31.8 L22.55 -32.8 Q24.9 -29.65 25.6 -26.5 24.95 -26.3 24.0 -24.7 22.55 -27.6 21.35 -25.95 20.65 -24.15 24.0 -22.45 25.25 -23.05 25.85 -23.95 25.85 -20.25 23.6 -16.6 L19.45 -16.6 17.7 -16.7 Q19.05 -24.25 17.2 -31.8" fill="#92dbdb" fill-rule="evenodd" stroke="none"/>
    <path d="M17.2 -31.8 Q19.05 -24.25 17.7 -16.7 L19.45 -16.6 23.6 -16.6 25.85 -16.6 Q25.15 -14.0 23.65 -13.05 25.3 -10.8 26.2 -8.75 L27.2 -6.15 28.7 -1.45 24.2 -0.2 26.4 8.65 26.75 10.4 27.4 14.1 27.7 16.1 Q28.7 24.05 28.8 32.0 25.65 28.35 22.25 26.6 L14.6 32.85 Q15.0 25.75 14.55 19.0 L14.4 17.2 13.8 12.2 13.5 10.35 11.65 1.8 Q-12.25 3.55 -28.8 -12.4 L-21.1 -21.75 -21.95 -22.45 -19.9 -21.9 Q-21.4 -24.7 -19.75 -27.5 -3.4 -28.4 13.65 -31.2 L17.2 -31.8" fill="#8edcd7" fill-rule="evenodd" stroke="none"/>
  </g>
</svg>
