<?xml version="1.0" encoding="UTF-8" standalone="no"?>
<svg xmlns:xlink="http://www.w3.org/1999/xlink" height="10.95px" width="6.75px" xmlns="http://www.w3.org/2000/svg">
  <g transform="matrix(1.0, 0.0, 0.0, 1.0, 3.35, 5.45)">
    <path d="M0.85 -2.2 L1.0 -2.6 0.95 -2.65 0.95 -2.75 0.15 -2.75 0.95 -3.0 0.7 -3.4 0.2 -3.6 -0.25 -3.4 -0.4 -3.25 -0.45 -2.75 -0.25 -2.15 0.15 -1.95 0.2 -1.95 0.7 -2.1 0.7 -2.15 0.85 -2.2 M2.9 -2.9 L3.0 -2.65 Q4.75 1.35 -1.55 5.5 -0.8 1.95 -2.45 0.2 -4.05 -1.3 -2.85 -3.05 L-1.6 -4.4 Q0.65 -6.8 2.45 -3.8 L2.9 -2.9" fill="#57d1fa" fill-rule="evenodd" stroke="none"/>
  </g>
</svg>
