<?xml version="1.0" encoding="UTF-8" standalone="no"?>
<svg xmlns:xlink="http://www.w3.org/1999/xlink" height="28.0px" width="28.85px" xmlns="http://www.w3.org/2000/svg">
  <g transform="matrix(1.0, 0.0, 0.0, 1.0, 14.4, 14.0)">
    <path d="M2.2 5.9 L1.7 6.05 1.65 6.05 2.2 5.9" fill="#fa5959" fill-rule="evenodd" stroke="none"/>
    <path d="M-6.35 4.55 L-6.35 4.3 -6.55 3.7 -7.05 3.5 -7.55 3.7 -7.75 4.3 -7.55 4.95 -7.05 5.15 -6.55 4.95 -6.35 4.55 M9.85 3.3 L10.2 3.4 10.65 3.95 10.55 4.5 10.15 4.75 9.5 4.7 9.05 4.2 9.05 3.65 Q9.25 3.4 9.6 3.35 L9.85 3.3 M1.65 6.05 L1.25 5.85 1.05 5.25 1.1 4.75 1.25 4.6 1.7 4.4 2.2 4.6 2.45 5.0 1.65 5.25 M2.1 5.25 L2.45 5.25 2.45 5.35 2.45 5.4 2.35 5.8 2.2 5.85 2.2 5.9 1.7 6.05 1.65 6.05" fill="none" stroke="#000000" stroke-linecap="round" stroke-linejoin="round" stroke-width="0.5"/>
    <path d="M-13.85 -13.5 Q-14.05 -9.45 -12.85 -6.15 -11.25 -1.75 -8.6 2.1 M1.65 5.25 L2.1 5.25 4.4 5.1 3.95 4.2 Q2.15 1.2 -0.1 3.6 L-1.35 4.95 Q-2.55 6.7 -0.95 8.2 0.7 9.95 -0.05 13.5 6.25 9.35 4.5 5.35 L4.4 5.1 7.05 4.75 M-6.35 4.55 L-4.85 4.75 Q-4.95 3.1 -5.8 2.55 L-7.7 2.4 Q-8.85 2.6 -9.55 3.05 -10.8 3.85 -10.4 5.35 -9.95 7.55 -12.9 9.8 -5.2 10.2 -4.85 5.95 L-4.85 4.75 -1.35 4.95 M-7.0 4.2 L-6.35 4.55 M9.85 3.3 L9.7 1.95 Q8.4 1.95 7.85 3.65 6.75 6.8 9.05 7.45 11.15 8.2 11.65 11.85 15.85 5.35 12.35 2.95 10.8 1.9 9.7 1.95 8.8 -6.65 3.7 -13.1 M9.9 4.5 L9.85 3.3" fill="none" stroke="#000000" stroke-linecap="round" stroke-linejoin="round" stroke-width="1.0"/>
  </g>
</svg>
