<?xml version="1.0" encoding="UTF-8" standalone="no"?>
<svg xmlns:xlink="http://www.w3.org/1999/xlink" height="35.25px" width="31.75px" xmlns="http://www.w3.org/2000/svg">
  <g transform="matrix(1.0, 0.0, 0.0, 1.0, 15.85, 17.6)">
    <path d="M-2.3 -13.0 Q-4.75 -14.55 -1.45 -16.65 1.85 -19.2 4.1 -14.75 4.4 -13.65 3.9 -13.0 8.45 -12.5 11.1 -11.45 12.35 -11.0 13.2 -10.4 14.85 -9.25 15.0 -7.65 L15.0 -6.75 14.95 -5.5 Q16.75 7.15 15.2 12.45 L14.95 13.25 14.4 14.4 13.7 15.3 12.85 16.25 Q10.0 14.7 8.35 9.7 L7.0 5.7 Q6.6 13.2 2.0 12.65 -2.65 12.1 -3.3 5.8 L-4.05 5.55 Q-5.45 13.2 -7.5 16.05 L-8.95 17.3 Q-9.75 17.8 -10.75 17.6 L-11.75 15.9 Q-14.6 10.1 -14.35 -2.3 -15.45 -3.45 -15.75 -4.9 -16.05 -6.4 -15.55 -8.3 -15.0 -9.65 -13.65 -10.7 L-12.35 -11.35 -10.15 -12.2 -8.4 -12.55 -6.8 -12.75 -2.3 -13.0" fill="#b52c5a" fill-rule="evenodd" stroke="none"/>
  </g>
</svg>
