<?xml version="1.0" encoding="UTF-8" standalone="no"?>
<svg xmlns:xlink="http://www.w3.org/1999/xlink" height="11.55px" width="14.85px" xmlns="http://www.w3.org/2000/svg">
  <g transform="matrix(1.0, 0.0, 0.0, 1.0, 0.5, 0.5)">
    <path d="M5.65 4.25 L0.0 3.45 0.4 0.0 13.85 0.5 13.85 3.95 13.15 4.05 Q13.5 4.3 13.65 5.3 L13.8 6.9 Q13.75 8.0 11.85 7.55 L12.75 8.6 13.1 9.0 13.15 9.4 12.4 10.2 12.15 10.3 11.45 10.55 10.55 10.5 10.15 10.4 Q9.9 9.55 9.75 6.9 L9.55 6.85 9.4 9.8 8.9 10.5 7.55 10.35 6.5 9.95 Q6.55 8.8 7.25 7.8 5.6 7.95 5.65 6.65 5.45 5.1 5.65 4.5 L5.65 4.25 Q5.75 3.75 6.4 3.9 7.15 3.85 7.8 4.3 L8.0 4.4 11.2 4.3 Q11.95 3.65 12.55 3.75 12.9 3.65 13.15 4.05 M11.85 7.55 Q11.1 7.15 10.25 6.9 L10.1 6.7 9.75 6.9 M7.25 7.8 Q7.6 7.55 8.75 7.15 9.0 6.9 9.35 6.75 9.1 5.9 9.2 5.55 L9.3 5.05 Q8.75 4.65 8.0 4.4 M9.3 5.05 L10.1 5.05 Q10.65 4.55 11.2 4.3 M9.35 6.75 Q9.45 6.65 9.55 6.85 M10.1 5.05 Q10.35 5.85 10.1 6.7" fill="none" stroke="#000000" stroke-linecap="round" stroke-linejoin="round" stroke-width="1.0"/>
  </g>
</svg>
