<?xml version="1.0" encoding="UTF-8" standalone="no"?>
<svg xmlns:xlink="http://www.w3.org/1999/xlink" height="70.55px" width="42.75px" xmlns="http://www.w3.org/2000/svg">
  <g transform="matrix(1.0, 0.0, 0.0, 1.0, 0.0, 0.0)">
    <path d="M30.3 5.65 Q32.15 5.65 33.45 6.95 34.8 8.3 34.8 10.15 34.8 12.05 33.45 13.35 32.15 14.7 30.3 14.7 28.45 14.7 27.1 13.35 25.75 12.05 25.75 10.15 25.75 8.3 27.1 6.95 28.45 5.65 30.3 5.65 M26.2 70.55 Q15.85 69.65 8.25 60.3 0.0 50.0 0.0 35.35 0.0 20.7 8.25 10.3 16.65 0.0 28.4 0.0 L29.4 0.05 Q12.85 13.25 20.2 26.3 24.45 33.7 32.85 34.45 45.5 34.4 41.95 51.95 39.4 62.6 26.2 70.55 M30.3 52.9 Q28.45 52.9 27.1 54.2 25.75 55.55 25.75 57.4 25.75 59.3 27.1 60.6 28.45 61.95 30.3 61.95 32.15 61.95 33.45 60.6 34.8 59.3 34.8 57.4 34.8 55.55 33.45 54.2 32.15 52.9 30.3 52.9" fill="#2a2a2a" fill-rule="evenodd" stroke="none"/>
  </g>
</svg>
