<?xml version="1.0" encoding="UTF-8" standalone="no"?>
<svg xmlns:xlink="http://www.w3.org/1999/xlink" height="33.0px" width="27.0px" xmlns="http://www.w3.org/2000/svg">
  <g transform="matrix(1.0, 0.0, 0.0, 1.0, 13.5, 16.5)">
    <path d="M-8.25 8.55 Q-11.2 9.5 -12.2 7.6 -13.15 5.65 -11.2 4.1 -9.2 2.5 -6.9 1.5 -6.15 1.2 -5.45 0.25 L-3.95 -2.1 -0.55 -11.9 0.65 -15.5 Q6.0 -13.2 12.5 -13.3 L11.25 -9.65 9.45 -5.4 Q7.45 -1.2 6.15 3.2 L6.0 3.85 Q5.5 6.3 5.55 6.7 L5.4 8.3 Q4.95 11.75 2.45 14.1 -0.05 16.45 -5.1 14.9 -8.75 15.35 -9.25 13.55 -9.75 11.7 -8.25 8.55 L-7.85 7.85" fill="none" stroke="#000000" stroke-linecap="round" stroke-linejoin="round" stroke-width="2.0"/>
    <path d="M-0.55 -11.9 Q4.15 -9.0 11.25 -9.65" fill="none" stroke="#000000" stroke-linecap="round" stroke-linejoin="round" stroke-width="1.0"/>
  </g>
</svg>
