<?xml version="1.0" encoding="UTF-8" standalone="no"?>
<svg xmlns:xlink="http://www.w3.org/1999/xlink" height="25.7px" width="24.8px" xmlns="http://www.w3.org/2000/svg">
  <g transform="matrix(1.0, 0.0, 0.0, 1.0, 15.6, 12.45)">
    <path d="M-0.2 -8.65 Q-0.2 -6.45 -2.45 -4.4 -4.7 -2.3 -7.9 -1.5 L-13.35 -1.75 Q-15.6 -2.75 -15.6 -4.95 -15.6 -7.15 -13.35 -9.25 -11.1 -11.35 -7.9 -12.1 L-2.45 -11.9 Q-0.2 -10.85 -0.2 -8.65 M9.2 10.5 Q9.2 11.65 7.65 12.4 6.05 13.25 3.9 13.25 1.7 13.25 0.15 12.4 -1.4 11.65 -1.4 10.5 -1.4 9.35 0.15 8.5 1.7 7.75 3.9 7.75 6.05 7.75 7.65 8.5 9.2 9.35 9.2 10.5" fill="#ffffff" fill-rule="evenodd" stroke="none"/>
  </g>
</svg>
