<?xml version="1.0" encoding="UTF-8" standalone="no"?>
<svg xmlns:xlink="http://www.w3.org/1999/xlink" height="20.65px" width="36.3px" xmlns="http://www.w3.org/2000/svg">
  <g transform="matrix(1.0, 0.0, 0.0, 1.0, 18.45, 10.15)">
    <path d="M-4.7 -10.0 L-4.7 -10.05 Q4.65 -9.3 12.65 -6.8 L12.7 -6.75 14.75 -6.0 14.75 -6.05 Q15.25 -5.85 15.85 -5.6 L17.35 -4.75 Q18.55 1.35 16.9 5.25 15.3 8.9 11.45 10.5 L11.05 10.45 5.9 10.25 -0.9 9.35 -1.0 9.35 -2.0 9.05 -6.35 7.7 -6.55 7.6 -6.75 7.5 -8.7 6.5 -12.35 3.7 Q-15.6 0.1 -17.15 -3.65 -18.4 -6.6 -18.45 -9.8 L-17.4 -9.85 -7.1 -10.15 -7.1 -10.1 -4.7 -10.0" fill="#ffffff" fill-rule="evenodd" stroke="none"/>
  </g>
</svg>
