<?xml version="1.0" encoding="UTF-8" standalone="no"?>
<svg xmlns:xlink="http://www.w3.org/1999/xlink" height="22.7px" width="22.7px" xmlns="http://www.w3.org/2000/svg">
  <g transform="matrix(1.0, 0.0, 0.0, 1.0, 11.35, 11.35)">
    <path d="M11.35 0.0 Q11.35 4.65 8.05 7.95 L7.95 8.05 Q4.65 11.35 0.0 11.35 -4.65 11.35 -8.05 7.95 -11.35 4.65 -11.35 0.0 -11.35 -4.65 -8.05 -8.05 -4.65 -11.35 0.0 -11.35 4.65 -11.35 7.95 -8.05 11.35 -4.65 11.35 0.0 M6.35 -6.4 Q3.75 -9.0 0.0 -9.0 -3.75 -9.0 -6.35 -6.4 L-6.4 -6.35 Q-9.0 -3.75 -9.0 0.0 -9.0 3.75 -6.4 6.35 -3.75 9.0 0.0 9.0 3.75 9.0 6.35 6.35 9.0 3.75 9.0 0.0 9.0 -3.75 6.35 -6.4" fill="#000000" fill-rule="evenodd" stroke="none"/>
    <path d="M6.35 -6.4 Q9.0 -3.75 9.0 0.0 9.0 3.75 6.35 6.35 3.75 9.0 0.0 9.0 -3.75 9.0 -6.4 6.35 -9.0 3.75 -9.0 0.0 -9.0 -3.75 -6.4 -6.35 L-6.35 -6.4 Q-3.75 -9.0 0.0 -9.0 3.75 -9.0 6.35 -6.4" fill="#ffffff" fill-rule="evenodd" stroke="none"/>
  </g>
</svg>
