<?xml version="1.0" encoding="UTF-8" standalone="no"?>
<svg xmlns:xlink="http://www.w3.org/1999/xlink" height="32.1px" width="55.25px" xmlns="http://www.w3.org/2000/svg">
  <g transform="matrix(1.0, 0.0, 0.0, 1.0, 27.65, 16.05)">
    <path d="M-11.9 2.6 Q-11.0 6.3 -9.15 10.5 L-8.85 11.15 Q-21.1 3.85 -22.15 -3.9 -27.15 -5.2 -27.65 -10.75 -23.7 -9.5 -18.7 -11.15 -12.35 -13.95 -7.7 -15.25 L-1.65 -16.05 Q9.15 -15.7 16.7 -11.85 L17.05 -11.7 22.65 -8.5 Q24.3 -7.45 27.6 -7.05 24.9 -4.85 24.15 -4.55 25.95 -1.55 25.1 1.35 23.5 -0.8 20.8 -3.05 17.95 -5.45 13.15 -7.3 -0.55 -10.0 -12.8 -4.4 -12.8 -1.15 -11.9 2.6 M2.55 13.7 L11.55 13.95 17.05 13.55 18.05 13.4 17.45 14.75 Q10.45 15.9 0.05 15.1 -2.85 16.05 -5.4 16.05 L-3.8 14.8 -4.2 13.5 2.55 13.7" fill="#000000" fill-rule="evenodd" stroke="none"/>
  </g>
</svg>
