<?xml version="1.0" encoding="UTF-8" standalone="no"?>
<svg xmlns:xlink="http://www.w3.org/1999/xlink" height="35.65px" width="53.8px" xmlns="http://www.w3.org/2000/svg">
  <g transform="matrix(1.0, 0.0, 0.0, 1.0, 26.9, 17.85)">
    <path d="M20.45 -3.1 L20.25 -3.2 Q13.5 -7.0 4.9 -8.0 -4.35 -9.0 -12.75 -6.25 -12.7 -3.35 -11.95 -0.7 L-11.75 0.05 -11.4 1.15 Q-21.7 -4.35 -26.9 -12.2 -21.8 -10.55 -14.5 -12.1 L-8.3 -13.25 Q-11.75 -15.05 -12.4 -17.1 -9.65 -15.3 -5.25 -13.6 -0.2 -14.05 4.95 -13.65 L6.0 -13.55 Q4.05 -14.75 3.75 -17.85 5.6 -15.5 9.1 -13.1 16.3 -11.9 22.05 -8.35 25.3 -6.1 26.9 -3.25 L22.7 -4.75 Q24.95 -2.4 24.9 -0.05 L20.45 -3.1 M13.3 14.75 L14.45 15.15 Q11.95 15.5 6.4 15.35 3.7 16.2 2.35 17.2 2.3 16.05 3.8 15.25 L1.7 15.25 Q-1.4 16.45 -2.9 17.8 -2.15 16.3 -0.3 14.95 L-2.25 14.65 -0.1 14.2 Q7.8 12.95 13.3 14.75" fill="#000000" fill-rule="evenodd" stroke="none"/>
  </g>
</svg>
