<?xml version="1.0" encoding="UTF-8" standalone="no"?>
<svg xmlns:xlink="http://www.w3.org/1999/xlink" height="32.8px" width="26.3px" xmlns="http://www.w3.org/2000/svg">
  <g transform="matrix(1.0, 0.0, 0.0, 1.0, 7.15, 15.7)">
    <path d="M19.15 0.15 Q19.2 7.8 15.05 12.65 10.95 17.5 6.0 17.05 1.05 16.55 -3.05 11.85 -7.1 7.15 -7.15 -0.5 -7.3 -8.2 -3.7 -11.7 -0.1 -15.15 5.4 -15.65 10.95 -16.1 15.0 -11.75 19.05 -7.45 19.15 0.15 M14.55 0.35 Q14.5 -4.5 11.9 -7.2 9.4 -9.95 5.9 -9.7 2.5 -9.35 0.2 -7.2 -2.05 -4.95 -1.95 -0.05 -1.9 4.85 0.65 7.55 3.25 10.25 6.4 10.15 9.6 10.05 12.1 7.65 14.55 5.25 14.55 0.35" fill="url(#gradient0)" fill-rule="evenodd" stroke="none"/>
  </g>
  <defs>
    <linearGradient gradientTransform="matrix(0.0, 0.0196, -0.0161, -7.0E-4, 6.0, 5.0)" gradientUnits="userSpaceOnUse" id="gradient0" spreadMethod="pad" x1="-819.2" x2="819.2">
      <stop offset="0.0" stop-color="#ffffff" stop-opacity="0.21960784"/>
      <stop offset="0.9176470588235294" stop-color="#ffffff"/>
    </linearGradient>
  </defs>
</svg>
