<?xml version="1.0" encoding="UTF-8" standalone="no"?>
<svg xmlns:xlink="http://www.w3.org/1999/xlink" height="22.7px" width="18.9px" xmlns="http://www.w3.org/2000/svg">
  <g transform="matrix(1.0, 0.0, 0.0, 1.0, 9.45, 11.35)">
    <path d="M-3.85 -5.65 L-1.9 -11.35 Q2.65 -9.3 9.45 -9.4 L6.55 -2.55 6.05 2.1 6.1 2.5 Q6.1 4.1 5.2 6.1 L5.1 6.35 Q4.15 8.4 2.85 9.5 1.5 10.6 -0.8 11.35 -4.75 11.4 -4.2 8.6 -8.3 10.15 -9.15 6.1 L-9.45 3.4 Q-9.45 1.3 -8.65 0.15 L-7.6 -1.25 -5.6 -3.7 -5.35 -3.95 -4.5 -4.95 -3.9 -5.7 -3.85 -5.65" fill="#dbdbdb" fill-rule="evenodd" stroke="none"/>
  </g>
</svg>
