<?xml version="1.0" encoding="UTF-8" standalone="no"?>
<svg xmlns:xlink="http://www.w3.org/1999/xlink" height="9.4px" width="42.95px" xmlns="http://www.w3.org/2000/svg">
  <g transform="matrix(1.0, 0.0, 0.0, 1.0, 22.75, 100.5)">
    <path d="M20.2 -92.95 Q20.2 -92.25 19.55 -91.75 18.9 -91.25 18.1 -91.25 17.2 -91.25 16.55 -91.75 15.9 -92.25 15.9 -92.95 15.9 -93.65 16.55 -94.1 17.2 -94.6 18.1 -94.6 18.9 -94.6 19.55 -94.1 20.2 -93.65 20.2 -92.95 M-18.25 -92.7 Q-18.25 -92.05 -18.95 -91.6 -19.6 -91.1 -20.5 -91.1 -21.45 -91.1 -22.1 -91.6 -22.75 -92.05 -22.75 -92.7 -22.75 -93.4 -22.1 -93.9 -21.45 -94.35 -20.5 -94.35 -19.6 -94.35 -18.95 -93.9 -18.25 -93.4 -18.25 -92.7" fill="#f8e3f9" fill-rule="evenodd" stroke="none"/>
    <path d="M15.2 -97.3 Q15.2 -96.1 14.65 -95.2 14.1 -94.3 13.4 -94.3 12.65 -94.3 12.15 -95.2 11.65 -96.1 11.65 -97.3 11.65 -98.6 12.15 -99.5 12.65 -100.3 13.4 -100.3 14.1 -100.3 14.65 -99.5 15.2 -98.6 15.2 -97.3 M-13.7 -97.3 Q-13.7 -96.05 -14.3 -95.05 -14.85 -94.2 -15.7 -94.2 -16.55 -94.2 -17.1 -95.05 -17.7 -96.05 -17.7 -97.3 -17.7 -98.65 -17.1 -99.55 -16.55 -100.5 -15.7 -100.5 -14.85 -100.5 -14.3 -99.55 -13.7 -98.65 -13.7 -97.3" fill="#000000" fill-opacity="0.65882355" fill-rule="evenodd" stroke="none"/>
  </g>
</svg>
