<?xml version="1.0" encoding="UTF-8" standalone="no"?>
<svg xmlns:xlink="http://www.w3.org/1999/xlink" height="141.35px" width="72.2px" xmlns="http://www.w3.org/2000/svg">
  <g transform="matrix(1.0, 0.0, 0.0, 1.0, 36.1, 70.7)">
    <path d="M25.55 -60.15 Q22.05 -67.35 24.45 -69.2 27.35 -71.05 28.55 -66.3 33.0 -68.9 34.85 -66.3 36.65 -61.45 25.75 -59.4 27.55 -51.8 21.3 -41.1 L19.3 -37.9 Q26.1 -26.6 19.85 -14.95 L21.9 -10.95 Q27.65 -14.3 29.8 -11.0 30.95 -8.05 23.5 -5.65 24.95 3.05 18.35 10.4 20.75 15.3 21.85 19.65 28.6 18.5 29.5 21.7 30.15 23.95 22.65 25.3 22.9 32.1 19.1 37.05 L18.35 37.4 Q24.6 45.1 22.8 54.3 21.2 59.35 18.05 62.65 22.9 66.5 20.6 69.1 17.7 71.0 13.3 66.35 7.9 69.3 0.0 69.4 -7.9 69.3 -13.3 66.35 -17.7 71.0 -20.65 69.1 -22.95 66.5 -18.1 62.65 -21.2 59.35 -22.75 54.3 -24.6 45.1 -18.35 37.4 L-19.1 37.05 Q-22.95 32.1 -22.7 25.3 -30.15 23.95 -29.5 21.7 -28.6 18.5 -21.85 19.65 -20.75 15.3 -18.35 10.4 -25.0 3.05 -23.5 -5.65 -31.0 -8.05 -29.75 -11.0 -27.65 -14.3 -21.9 -10.95 L-19.85 -14.95 Q-26.15 -26.6 -19.25 -37.9 L-21.25 -41.1 Q-27.55 -51.8 -25.75 -59.4 -29.65 -60.1 -31.9 -61.2 -36.05 -63.2 -34.8 -66.3 -33.8 -67.85 -31.9 -67.6 -30.45 -67.4 -28.55 -66.3 -27.35 -71.05 -24.45 -69.2 -22.0 -67.35 -25.5 -60.15 L-14.05 -47.45 Q-9.25 -42.3 0.0 -42.75 9.25 -42.3 14.05 -47.45 L25.55 -60.15 25.75 -59.4 M19.85 -14.95 Q14.45 -11.55 0.0 -11.75 -14.45 -11.55 -19.85 -14.95 M21.9 -10.95 Q23.05 -8.25 23.5 -5.65 M4.15 -25.05 Q2.1 -23.2 0.0 -25.05 -2.05 -23.2 -4.15 -25.05 M21.85 19.65 Q22.55 22.6 22.65 25.3 M18.35 37.4 Q12.75 40.35 0.0 40.25 -12.7 40.35 -18.35 37.4 M18.35 10.4 Q12.15 14.45 0.0 14.1 -12.15 14.45 -18.35 10.4 M18.05 62.65 Q16.05 64.9 13.3 66.35 M-25.5 -60.15 L-25.75 -59.4 M-21.9 -10.95 Q-23.05 -8.25 -23.5 -5.65 M-21.85 19.65 Q-22.55 22.6 -22.7 25.3 M-18.1 62.65 Q-16.05 64.9 -13.3 66.35" fill="none" stroke="#455462" stroke-linecap="round" stroke-linejoin="round" stroke-width="2.0"/>
  </g>
</svg>
