<?xml version="1.0" encoding="UTF-8" standalone="no"?>
<svg xmlns:xlink="http://www.w3.org/1999/xlink" height="124.4px" width="88.5px" xmlns="http://www.w3.org/2000/svg">
  <g transform="matrix(1.0, 0.0, 0.0, 1.0, 44.25, 62.2)">
    <path d="M-33.05 15.6 L-26.55 16.55 -24.85 16.6 -20.5 16.35 -14.7 15.4 Q-11.25 14.5 -7.85 13.05 L-1.9 10.0 1.65 7.7 4.05 5.95 8.2 2.4 Q10.75 -0.05 12.85 -2.8 14.7 -5.15 16.15 -7.8 17.9 -10.85 19.1 -14.15 L19.3 -14.75 Q20.6 -18.5 20.95 -21.95 21.75 -29.85 17.4 -36.05 14.25 -40.5 9.45 -42.8 L5.65 -44.2 Q7.7 -61.35 12.2 -62.2 14.65 -61.75 18.45 -52.5 L18.2 -52.05 18.05 -51.85 Q16.6 -48.65 20.85 -46.3 21.8 -45.7 23.05 -45.25 L26.15 -44.25 31.7 -43.05 38.45 -43.3 39.15 -42.8 Q45.1 -38.25 44.1 -33.5 L43.95 -33.15 Q42.25 -27.15 28.9 -23.25 24.75 -22.1 23.95 -17.55 L21.1 -8.1 Q19.8 -5.05 22.9 -1.5 28.75 5.7 21.1 2.0 L17.25 0.15 Q14.9 -0.8 13.0 2.1 7.55 9.3 -5.1 15.6 -8.5 17.45 -15.65 18.85 -11.05 27.5 -22.9 20.05 -26.55 17.85 -33.05 15.6 -36.15 17.2 -36.45 19.75 -36.75 22.2 -34.65 25.45 L-32.45 28.3 -29.25 32.1 Q-25.1 37.5 -24.3 42.4 -23.55 46.95 -25.6 51.05 -28.65 57.2 -38.05 62.2 -33.6 55.25 -32.0 49.75 -30.9 45.85 -31.2 42.75 -31.75 38.6 -34.8 35.7 L-35.5 35.15 Q-44.9 27.3 -44.2 19.25 -43.85 15.35 -41.2 11.4 -38.7 13.5 -35.55 14.75 L-34.35 15.15 -33.05 15.6 M25.3 -54.25 Q29.15 -60.9 32.5 -61.3 34.7 -60.1 33.65 -49.05 L31.3 -50.9 28.2 -53.0 27.3 -53.45 25.3 -54.25" fill="#faebfc" fill-rule="evenodd" stroke="none"/>
  </g>
</svg>
