<?xml version="1.0" encoding="UTF-8" standalone="no"?>
<svg xmlns:xlink="http://www.w3.org/1999/xlink" height="77.35px" width="102.6px" xmlns="http://www.w3.org/2000/svg">
  <g transform="matrix(1.0, 0.0, 0.0, 1.0, 51.3, 38.7)">
    <path d="M-10.95 -25.9 Q-20.35 -38.7 -11.8 -38.7 L0.3 -37.45 Q17.2 -35.9 32.15 -22.55 42.9 -18.9 47.35 -9.55 49.4 -5.35 49.55 -1.05 52.6 2.95 50.3 7.05 45.9 14.9 28.15 18.45 16.9 36.95 5.65 38.65 3.15 35.65 4.0 25.7 4.55 20.15 -2.7 20.35 -9.65 20.15 -18.25 13.6 -29.45 28.45 -40.0 28.0 -40.5 20.15 -36.05 10.7 -48.5 8.45 -51.3 -9.05 -38.9 -12.25 -20.7 -2.85 -19.3 -6.2 -17.2 -9.35 -14.65 -13.1 -11.1 -16.6 L-6.55 -20.5 -7.1 -21.1 -10.95 -25.9" fill="#d6d7ff" fill-rule="evenodd" stroke="none"/>
  </g>
</svg>
