<?xml version="1.0" encoding="UTF-8" standalone="no"?>
<svg xmlns:xlink="http://www.w3.org/1999/xlink" height="66.85px" width="75.1px" xmlns="http://www.w3.org/2000/svg">
  <g transform="matrix(1.0, 0.0, 0.0, 1.0, 37.55, 33.45)">
    <path d="M35.25 -33.45 Q39.05 -29.8 36.55 -19.9 L34.85 -23.1 34.0 -26.55 31.25 -25.2 Q31.25 -30.65 35.25 -33.45 M16.15 -24.15 Q17.85 -24.85 19.2 -23.4 19.5 -24.75 21.45 -24.55 22.75 -24.2 22.9 -23.35 23.65 -20.05 19.35 -16.7 17.6 -17.75 16.05 -19.7 13.7 -23.1 16.15 -24.15 M-5.95 -28.9 Q-2.5 -27.9 0.9 -23.65 L-2.35 -23.65 -1.15 -20.85 -2.7 -17.5 Q-7.9 -23.2 -5.95 -28.9 M-26.25 11.5 L-25.25 9.85 -25.35 12.95 Q-26.1 17.1 -28.45 21.05 L-19.55 14.5 Q-22.2 23.4 -28.7 29.75 L-33.0 33.4 Q-38.45 29.2 -37.4 22.9 -30.95 18.3 -26.25 11.5" fill="#fddaef" fill-rule="evenodd" stroke="none"/>
  </g>
</svg>
