<?xml version="1.0" encoding="UTF-8" standalone="no"?>
<svg xmlns:xlink="http://www.w3.org/1999/xlink" height="3.95px" width="37.95px" xmlns="http://www.w3.org/2000/svg">
  <g transform="matrix(1.0, 0.0, 0.0, 1.0, 19.0, 2.0)">
    <path d="M-19.0 0.2 Q-19.0 -0.5 -18.4 -1.0 -17.95 -1.55 -17.2 -1.55 -16.55 -1.55 -16.0 -1.0 -15.45 -0.5 -15.45 0.2 -15.45 0.95 -16.0 1.4 -16.55 1.95 -17.2 1.95 -17.95 1.95 -18.4 1.4 -19.0 0.95 -19.0 0.2 M15.35 -0.25 Q15.35 -0.95 15.85 -1.5 16.4 -2.0 17.15 -2.0 17.9 -2.0 18.35 -1.5 18.95 -0.95 18.95 -0.25 18.95 0.5 18.35 1.05 17.9 1.5 17.15 1.5 16.4 1.5 15.85 1.05 15.35 0.5 15.35 -0.25" fill="#f8fdfd" fill-rule="evenodd" stroke="none"/>
  </g>
</svg>
