<?xml version="1.0" encoding="UTF-8" standalone="no"?>
<svg xmlns:xlink="http://www.w3.org/1999/xlink" height="72.7px" width="121.1px" xmlns="http://www.w3.org/2000/svg">
  <g transform="matrix(1.0, 0.0, 0.0, 1.0, 60.55, 36.35)">
    <path d="M60.2 -5.85 Q59.75 -4.35 58.55 -2.85 59.3 0.75 55.5 3.75 L54.95 7.1 Q53.55 11.7 49.05 11.1 46.8 21.55 37.8 21.3 36.4 28.0 28.9 26.45 24.6 32.85 15.45 30.4 10.4 36.8 3.3 32.9 -3.15 37.2 -11.0 34.0 -16.35 37.4 -21.7 34.0 -28.35 39.3 -34.25 32.7 -39.95 36.7 -45.7 31.45 -52.7 32.85 -54.45 26.25 -60.45 26.45 -59.45 20.6 L-58.9 18.6 Q-62.9 12.85 -57.1 10.55 L-56.8 8.75 Q-55.6 5.2 -50.55 4.3 -45.6 -2.75 -40.65 1.6 -36.3 -4.4 -30.5 -0.7 -25.4 -5.75 -20.3 -3.4 -19.1 -8.7 -14.15 -8.55 -12.35 -8.5 -10.1 -7.7 -9.85 -9.6 -8.55 -10.5 -7.0 -11.55 -4.05 -11.25 -2.65 -17.0 3.65 -17.0 L4.25 -18.55 Q6.4 -23.3 11.15 -23.25 12.9 -29.7 19.6 -28.4 21.8 -35.9 29.6 -32.7 34.35 -38.95 40.5 -34.5 46.7 -36.6 49.25 -30.95 53.6 -31.25 53.9 -25.55 58.5 -24.85 58.35 -18.75 61.55 -15.0 60.0 -10.55 60.95 -8.2 60.2 -5.85" fill="#fed885" fill-rule="evenodd" stroke="none"/>
  </g>
</svg>
