<?xml version="1.0" encoding="UTF-8" standalone="no"?>
<svg xmlns:xlink="http://www.w3.org/1999/xlink" height="121.3px" width="193.55px" xmlns="http://www.w3.org/2000/svg">
  <g transform="matrix(1.0, 0.0, 0.0, 1.0, 96.75, 60.65)">
    <path d="M79.15 -49.65 L77.1 -55.35 86.15 -60.65 79.15 -49.65 87.1 -50.7 80.95 -43.7 96.8 -44.75 82.5 -36.25 93.85 -33.35 83.35 -28.85 96.15 -23.85 82.9 -19.7 95.0 -11.5 80.55 -10.7 88.7 -1.5 78.55 -3.45 87.45 10.25 70.4 3.5 75.05 12.0 66.65 8.25 76.35 23.05 58.15 11.45 60.75 22.4 54.45 18.45 Q53.65 15.95 52.7 14.0 L58.15 11.45 Q61.9 9.65 65.1 7.5 L70.4 3.5 Q74.2 0.15 76.85 -3.8 79.1 -7.05 80.55 -10.7 82.25 -14.9 82.9 -19.7 83.55 -24.05 83.35 -28.85 L82.5 -36.25 80.95 -43.7 79.15 -49.65 M0.0 -14.25 L10.7 -4.05 10.25 -8.75 8.7 -27.4 24.05 -2.3 Q17.45 -2.1 11.1 0.7 8.2 1.95 5.3 3.8 L0.0 -14.25 M32.8 -1.4 L36.3 -14.9 39.55 0.8 Q36.15 -0.65 32.8 -1.4 L24.05 -2.3 25.35 -21.9 32.8 -1.4 M77.2 -8.1 L75.55 -4.75 Q74.75 -3.3 73.85 -3.3 L73.5 -3.4 73.15 -3.45 73.15 -4.25 74.65 -7.45 Q75.75 -9.4 77.0 -10.05 L77.35 -9.35 77.2 -8.1 M51.6 11.9 L51.5 11.75 50.55 10.3 Q55.2 9.6 61.25 6.15 65.7 3.65 70.4 -0.1 L70.4 1.05 Q67.7 4.7 63.55 7.25 59.0 9.95 51.6 11.9 M40.2 3.85 L40.6 3.75 Q41.35 3.75 42.85 5.05 L44.3 6.45 44.45 6.65 44.75 6.85 46.9 8.55 Q48.25 9.75 48.25 10.5 L48.1 11.05 47.45 11.15 Q47.05 11.15 44.0 8.4 40.7 5.45 40.05 3.95 L40.2 3.85 M28.05 24.35 Q31.55 26.35 34.55 30.3 L29.9 33.6 Q28.3 34.55 25.2 34.55 L24.35 34.65 Q23.25 34.65 22.4 33.8 18.35 32.1 16.5 29.0 15.1 26.55 15.4 22.6 L20.9 22.15 Q23.45 22.3 25.8 23.25 26.95 23.7 28.05 24.35 M35.45 3.45 L29.4 2.45 Q24.55 1.35 23.8 0.85 24.05 0.65 25.95 0.35 L28.15 0.05 32.4 0.7 Q36.65 1.55 36.65 2.45 L36.35 3.1 35.45 3.45 M3.9 9.85 L3.75 10.5 Q-0.35 13.5 -6.25 21.4 -11.7 28.75 -14.75 30.45 -12.7 25.6 -6.7 17.45 0.25 8.1 3.3 8.1 4.05 8.1 4.05 9.2 L3.9 9.85 M5.3 3.8 Q1.8 6.1 -1.65 9.25 L-14.15 24.35 -15.35 25.75 -30.9 11.2 -18.45 13.35 -10.6 14.7 -15.75 8.25 -18.45 13.35 -20.65 3.55 -25.4 10.4 -29.45 1.7 -33.45 13.6 -39.1 -0.35 -40.35 11.35 -49.5 -1.85 -49.5 4.75 -56.2 -1.1 -54.65 9.4 -63.7 -0.7 -63.45 10.4 -73.85 -0.25 Q-68.85 -2.25 -63.75 -3.3 L-56.65 -4.3 -49.5 -4.45 Q-44.15 -4.2 -38.85 -2.95 -35.05 -2.1 -31.2 -0.7 L-18.9 4.2 -21.25 1.2 -5.15 7.65 -15.45 -9.4 5.3 3.8 M-77.1 -1.95 L-80.15 -0.3 Q-81.0 0.2 -81.7 0.2 L-82.25 0.05 -82.25 -0.4 Q-82.25 -1.25 -80.65 -2.35 -79.2 -3.3 -78.4 -3.3 L-77.3 -2.95 -76.65 -2.55 -77.1 -1.95 M-25.85 -1.25 L-35.8 -3.8 Q-40.55 -5.05 -44.35 -5.25 L-44.35 -5.35 -44.55 -5.4 -44.55 -5.75 -42.2 -6.05 Q-38.5 -6.05 -32.25 -4.9 -24.75 -3.55 -24.75 -1.9 -24.75 -1.4 -25.05 -1.25 L-25.85 -1.25 M-21.45 34.8 Q-19.1 32.2 -17.95 32.2 L-17.5 32.4 -17.3 32.7 -17.65 33.3 -17.95 33.85 Q-19.65 36.45 -20.7 37.3 L-22.8 38.65 -23.9 38.65 Q-23.75 37.35 -21.45 34.8 M-15.35 25.75 L-21.1 32.2 Q-25.4 36.7 -29.65 40.3 -33.6 43.65 -37.55 46.2 -43.95 50.35 -50.35 52.55 -55.55 54.35 -60.75 54.85 L-72.55 54.3 Q-77.75 53.35 -82.95 51.05 -87.8 47.2 -90.9 43.2 -93.65 39.55 -95.0 35.8 -97.95 27.2 -93.45 17.9 -91.6 14.15 -88.6 10.3 -86.15 7.25 -82.95 4.1 L-80.5 2.8 Q-77.2 1.05 -73.85 -0.25 L-71.7 6.85 -76.9 5.75 -70.75 10.9 -88.6 10.3 -81.65 12.8 -93.45 17.9 -74.6 18.6 -95.0 35.8 -85.85 32.1 -90.9 43.2 -73.6 28.2 -79.55 46.35 -76.2 41.7 -72.55 54.3 -69.45 32.75 -60.75 54.85 -60.15 41.4 -50.35 52.55 -55.65 29.5 -39.4 42.45 -44.7 31.45 -29.65 40.3 -43.75 19.55 -22.45 29.35 -27.05 19.85 -15.35 25.75 M-66.1 58.25 Q-59.75 58.25 -49.8 55.05 -40.7 52.15 -37.9 49.9 L-37.85 50.0 -37.75 50.3 Q-37.75 50.8 -38.1 51.0 L-38.4 51.0 Q-42.85 56.05 -52.55 58.7 -59.8 60.65 -66.45 60.65 L-72.2 60.25 Q-75.15 59.6 -76.65 57.95 L-71.35 57.95 -68.25 58.15 -66.1 58.25 M-88.2 52.1 L-87.2 52.65 Q-86.15 53.2 -86.15 53.25 -85.15 53.45 -83.0 54.6 -80.65 55.75 -80.65 56.35 -80.65 56.8 -81.0 57.0 L-81.55 57.15 Q-83.5 57.15 -86.05 55.2 -88.6 53.25 -88.2 52.1 M-86.65 4.25 Q-89.45 7.5 -92.15 13.05 -94.95 18.8 -96.4 20.65 -96.75 20.3 -96.75 19.25 -96.75 15.9 -93.85 9.75 -90.55 2.65 -87.2 2.65 -86.8 2.65 -86.65 2.95 L-86.45 3.55 -86.65 4.05 -86.65 4.25" fill="#ffffff" fill-rule="evenodd" stroke="none"/>
    <path d="M10.25 -8.75 L10.7 -4.05 0.0 -14.25 Q5.3 -11.65 10.25 -8.75" fill="#c9f5ff" fill-rule="evenodd" stroke="none"/>
  </g>
</svg>
