<?xml version="1.0" encoding="UTF-8" standalone="no"?>
<svg xmlns:xlink="http://www.w3.org/1999/xlink" height="229.15px" width="192.95px" xmlns="http://www.w3.org/2000/svg">
  <g transform="matrix(1.0, 0.0, 0.0, 1.0, 96.5, 114.6)">
    <path d="M58.2 -111.5 Q61.8 -113.45 65.95 -114.15 L71.05 -114.6 Q76.1 -114.6 86.05 -108.2 96.45 -101.4 96.45 -96.75 96.45 -93.9 90.65 -89.05 84.45 -85.3 78.55 -83.15 L70.55 -80.4 Q67.0 -78.9 65.55 -76.4 63.8 -73.45 63.8 -67.55 63.8 -62.75 65.35 -57.85 66.25 -54.95 68.75 -49.15 73.75 -37.8 73.75 -29.85 73.75 -22.85 71.55 -17.2 70.05 -13.35 66.7 -8.65 62.8 -3.1 61.9 -1.3 59.7 2.95 59.7 7.65 59.7 10.4 60.2 13.4 59.25 14.4 58.8 15.4 L58.3 17.05 56.5 14.4 Q55.2 12.3 54.75 12.3 54.2 12.3 53.8 15.05 L53.55 18.3 54.0 22.2 53.85 22.25 53.8 22.25 52.85 20.9 Q51.85 19.55 51.35 19.55 51.0 19.55 50.85 20.0 L50.85 20.75 50.85 24.5 49.35 21.05 Q47.25 17.15 45.65 15.05 44.5 13.35 44.1 13.35 43.5 13.35 43.25 14.55 L42.35 17.7 36.85 4.4 Q18.55 0.8 1.15 3.25 -3.65 3.9 -8.45 5.05 L-11.65 11.9 Q-12.7 14.4 -12.7 16.55 -12.7 18.9 -11.1 21.75 -14.65 18.7 -15.55 15.85 -16.35 13.3 -16.65 13.3 -18.0 13.3 -18.9 16.8 L-19.6 20.9 -21.05 19.75 Q-22.05 18.8 -22.85 18.8 L-23.4 18.95 -23.75 19.2 -23.85 20.55 Q-25.1 18.5 -26.65 16.85 L-28.6 19.0 Q-31.45 23.0 -31.45 28.75 L-31.25 31.15 -34.1 27.45 Q-35.55 25.8 -35.95 25.8 -36.75 25.8 -37.0 27.45 L-37.15 29.5 -37.25 29.5 Q-39.2 27.15 -40.8 23.9 L-42.15 21.15 Q-43.0 21.15 -43.4 23.95 L-43.65 27.65 -43.4 33.6 -44.4 30.65 Q-45.0 28.95 -45.6 25.6 -46.15 22.05 -46.55 20.7 -48.15 15.6 -53.25 15.6 -60.4 15.6 -66.7 29.4 -69.05 34.6 -70.55 40.3 -71.9 45.6 -71.9 48.4 -71.9 67.05 -60.8 78.1 -49.95 88.8 -32.45 88.8 -19.2 88.8 -9.95 82.0 -6.4 79.4 -2.5 75.1 L4.25 67.1 Q10.3 60.0 15.95 55.65 18.55 53.65 21.1 52.2 33.15 45.4 51.35 45.4 L56.35 46.0 Q59.55 46.55 60.5 48.0 54.45 48.45 49.0 50.4 L45.15 52.0 44.6 52.3 Q40.9 54.8 36.75 59.4 L34.45 62.0 Q32.45 64.45 30.2 67.45 L28.7 69.6 28.25 70.25 23.65 77.15 Q21.95 79.8 20.4 82.5 L16.8 89.0 16.1 90.4 15.95 90.55 14.05 92.9 10.2 97.2 6.3 100.9 Q1.75 104.9 -3.2 107.6 L-5.5 108.7 -7.25 109.55 Q-11.85 111.55 -17.2 112.8 L-19.05 113.15 -26.15 114.15 -29.7 114.5 -34.95 114.55 -37.65 114.55 -42.55 114.25 -47.75 113.55 -51.55 112.8 -59.7 110.4 -60.85 109.85 Q-64.7 108.3 -68.25 106.15 -70.75 104.65 -73.05 102.85 L-77.75 98.85 -79.5 97.15 -79.9 96.75 -83.35 92.8 -86.3 88.75 Q-90.05 82.95 -92.45 76.4 L-93.95 71.75 -95.55 64.2 -96.15 59.2 Q-96.5 55.3 -96.5 51.2 L-96.45 48.5 Q-96.3 45.0 -95.7 41.4 -94.8 35.2 -92.5 28.95 L-89.95 22.4 -89.0 20.4 -85.8 14.45 Q-84.15 11.65 -82.35 9.2 L-79.05 5.2 -77.15 3.25 Q-74.9 1.0 -72.5 -0.65 L-70.5 -2.0 -67.75 -3.8 Q-64.55 -6.05 -61.6 -8.85 -59.55 -10.8 -57.65 -13.05 L-53.1 -18.75 -49.9 -22.75 -48.4 -24.45 -46.5 -26.5 -42.25 -30.45 -40.05 -32.0 -37.8 -33.35 -36.8 -33.8 Q-33.45 -35.45 -29.3 -36.25 L-21.05 -36.95 Q-16.15 -36.95 -8.4 -35.1 L-2.95 -33.6 0.5 -32.6 Q5.9 -30.95 10.05 -29.95 15.2 -28.7 18.25 -28.4 L19.65 -28.35 Q27.35 -28.35 32.25 -31.8 L34.45 -33.7 Q37.4 -36.7 38.6 -41.05 39.55 -44.15 39.55 -48.0 L39.3 -53.2 39.0 -57.65 38.7 -61.5 38.5 -67.6 38.5 -67.95 38.6 -71.85 Q38.75 -74.9 39.15 -77.8 39.6 -81.4 40.45 -84.75 L42.1 -90.3 43.2 -93.15 44.35 -95.8 46.0 -98.8 Q47.85 -102.15 50.05 -104.75 53.7 -109.05 58.2 -111.5 M70.1 -89.5 Q71.3 -89.8 72.05 -90.7 73.1 -91.9 73.1 -93.75 73.1 -95.85 71.7 -97.85 70.9 -99.15 69.95 -99.6 69.6 -93.15 65.25 -94.15 65.45 -92.9 65.95 -91.85 67.1 -89.45 69.25 -89.45 L70.1 -89.5" fill="#686463" fill-rule="evenodd" stroke="none"/>
  </g>
</svg>
