<?xml version="1.0" encoding="UTF-8" standalone="no"?>
<svg xmlns:xlink="http://www.w3.org/1999/xlink" height="29.9px" width="38.6px" xmlns="http://www.w3.org/2000/svg">
  <g transform="matrix(1.0, 0.0, 0.0, 1.0, 17.95, 138.75)">
    <path d="M10.4 -135.1 Q15.4 -133.15 16.4 -138.75 17.4 -136.75 17.4 -133.95 17.4 -131.05 16.35 -129.0 15.3 -126.95 13.85 -126.95 12.4 -126.95 11.35 -129.0 10.3 -131.05 10.3 -133.95 L10.4 -135.1 M-8.55 -134.75 L-8.35 -132.6 Q-8.35 -129.65 -9.4 -127.6 -10.45 -125.6 -11.9 -125.6 -13.35 -125.6 -14.4 -127.6 -15.45 -129.65 -15.45 -132.6 -15.45 -135.2 -14.55 -137.1 -11.9 -132.25 -8.55 -134.75" fill="#000000" fill-opacity="0.3372549" fill-rule="evenodd" stroke="none"/>
    <path d="M-14.85 -116.35 L-14.6 -116.45 Q-13.9 -116.65 -13.15 -118.3 -12.4 -119.8 -11.8 -119.8 -10.8 -119.8 -10.6 -118.95 L-9.8 -116.85 Q-9.6 -116.55 -8.4 -116.3 L-7.1 -119.3 Q-6.7 -120.0 -6.35 -120.0 -5.7 -120.0 -5.3 -119.35 L-4.65 -117.65 Q-4.35 -116.9 -3.3 -116.95 L-2.25 -117.15 -0.3 -116.85 1.3 -119.55 Q1.6 -119.9 2.0 -119.9 2.65 -119.9 3.2 -118.6 L4.0 -116.85 Q4.35 -116.35 5.95 -116.3 L6.85 -116.1 7.6 -118.95 Q8.0 -119.5 8.5 -119.5 L9.75 -118.3 Q10.95 -117.15 12.8 -117.15 L14.3 -119.9 15.1 -120.55 Q15.5 -120.55 16.3 -118.95 L16.55 -118.6 Q17.35 -117.4 18.95 -117.4 L19.9 -117.2 Q20.65 -116.9 20.65 -116.7 20.65 -115.9 19.55 -114.95 18.4 -114.0 18.4 -113.1 L18.7 -110.9 18.6 -109.85 17.65 -109.85 Q17.1 -109.85 16.25 -110.9 L15.25 -111.85 14.5 -111.25 13.15 -109.6 Q12.3 -109.85 11.0 -110.7 L9.8 -111.45 Q9.4 -111.45 8.35 -110.2 L7.1 -109.0 6.4 -109.8 4.95 -111.5 4.9 -110.35 Q4.6 -108.85 4.2 -108.85 3.5 -108.85 2.65 -109.8 L1.45 -111.2 0.35 -110.2 Q-0.35 -109.45 -1.6 -109.35 L-1.85 -109.2 Q-2.5 -109.2 -3.9 -110.1 L-5.55 -111.0 Q-6.0 -111.0 -6.7 -110.3 -7.15 -109.95 -8.75 -109.4 -9.2 -109.5 -10.2 -110.55 L-11.4 -111.55 Q-11.9 -111.55 -13.35 -110.7 -14.9 -109.75 -15.1 -109.7 L-15.2 -110.1 -15.0 -111.2 -14.9 -112.45 Q-14.9 -112.8 -16.35 -114.0 L-17.95 -115.3 Q-17.5 -115.9 -16.5 -116.05 L-14.85 -116.35 M3.45 -113.85 L3.05 -114.7 2.25 -115.0 1.4 -114.7 Q1.05 -114.3 1.05 -113.85 1.05 -113.35 1.4 -113.0 1.75 -112.7 2.25 -112.7 2.75 -112.7 3.05 -113.0 3.45 -113.35 3.45 -113.85 M10.8 -114.65 Q10.8 -115.2 10.4 -115.6 L9.5 -115.95 Q8.9 -115.95 8.55 -115.6 8.15 -115.2 8.15 -114.65 8.15 -114.1 8.55 -113.7 8.9 -113.3 9.5 -113.3 10.0 -113.3 10.4 -113.7 10.8 -114.1 10.8 -114.65 M17.1 -115.1 L16.75 -115.95 Q16.4 -116.3 15.9 -116.3 15.4 -116.3 15.05 -115.95 14.75 -115.6 14.75 -115.1 14.75 -114.6 15.05 -114.3 15.4 -113.9 15.9 -113.9 16.4 -113.9 16.75 -114.3 L17.1 -115.1 M-10.55 -113.65 Q-10.1 -114.1 -10.1 -114.75 -10.1 -115.35 -10.55 -115.85 -11.0 -116.35 -11.65 -116.35 -12.3 -116.35 -12.8 -115.85 L-13.25 -114.75 Q-13.25 -114.1 -12.8 -113.65 -12.3 -113.2 -11.65 -113.2 -11.0 -113.2 -10.55 -113.65 M-3.85 -114.15 Q-3.85 -114.7 -4.25 -115.05 -4.65 -115.45 -5.2 -115.45 -5.7 -115.45 -6.15 -115.05 -6.55 -114.7 -6.55 -114.15 -6.55 -113.6 -6.15 -113.25 -5.7 -112.8 -5.2 -112.8 -4.65 -112.8 -4.25 -113.25 -3.85 -113.6 -3.85 -114.15" fill="#000000" fill-opacity="0.13725491" fill-rule="evenodd" stroke="none"/>
  </g>
</svg>
