<?xml version="1.0" encoding="UTF-8" standalone="no"?>
<svg xmlns:xlink="http://www.w3.org/1999/xlink" height="89.55px" width="71.6px" xmlns="http://www.w3.org/2000/svg">
  <g transform="matrix(1.0, 0.0, 0.0, 1.0, 35.8, 44.8)">
    <path d="M22.85 -26.15 Q21.1 -26.6 19.9 -27.8 18.15 -29.55 18.15 -32.25 L18.15 -33.7 Q18.45 -32.75 19.25 -32.1 20.15 -31.45 21.35 -31.45 23.9 -31.45 24.95 -32.4 26.1 -33.35 26.1 -35.5 26.1 -37.65 25.45 -38.8 24.75 -40.2 22.6 -41.2 26.85 -40.35 29.05 -38.4 31.5 -36.25 31.5 -32.75 31.5 -29.2 29.75 -27.45 28.85 -26.55 27.45 -26.15 L25.2 -25.9 22.85 -26.15 M16.1 -17.1 L14.45 -16.45 Q14.15 -16.2 14.15 -15.8 L14.4 -14.85 Q15.3 -13.35 18.75 -11.85 L20.85 -11.0 24.5 -9.85 Q27.1 -9.05 28.85 -9.0 L29.5 -8.95 30.9 -9.1 Q31.7 -9.4 31.5 -10.1 31.4 -10.9 30.8 -11.3 L28.95 -12.3 28.85 -16.0 Q32.15 -14.75 34.0 -12.6 35.8 -10.55 35.8 -8.15 35.8 -6.7 34.55 -5.8 33.4 -5.0 32.0 -5.0 L28.4 -5.4 26.25 -5.85 24.0 -6.4 Q21.35 -7.15 18.9 -8.2 L17.15 -9.0 Q14.15 -10.5 12.35 -12.1 10.0 -14.3 10.0 -16.8 10.0 -18.85 11.4 -19.6 12.55 -20.3 15.1 -20.3 L16.3 -20.15 Q17.25 -20.0 17.8 -19.4 L16.1 -17.1 M-34.75 30.15 Q-35.8 28.6 -35.8 27.0 -35.8 24.8 -32.85 24.2 L-27.45 23.95 Q-26.0 25.7 -23.95 27.3 L-24.95 28.45 -25.25 29.0 Q-25.25 30.0 -23.85 31.1 -20.85 33.3 -11.7 35.7 L-1.6 37.9 4.65 38.7 6.55 38.65 7.6 38.55 Q9.5 38.25 9.5 37.25 L7.0 35.7 8.05 33.8 9.95 33.3 Q14.4 34.75 17.1 36.9 20.35 39.45 20.35 41.75 20.35 43.8 16.25 44.45 L10.45 44.75 6.0 44.5 -2.15 43.35 Q-10.2 41.9 -17.45 39.5 -31.4 35.0 -34.75 30.15 M-19.45 -30.6 L-21.5 -32.1 Q-23.75 -34.3 -23.95 -36.75 L-23.95 -36.9 -22.2 -35.75 Q-20.85 -35.15 -20.0 -35.15 -17.95 -35.15 -16.95 -35.75 -15.85 -36.55 -15.85 -38.3 -15.85 -40.35 -17.2 -42.6 -18.4 -44.6 -19.6 -44.8 L-16.5 -44.35 Q-15.05 -44.15 -12.5 -41.4 -10.0 -38.7 -10.0 -36.35 -10.0 -33.35 -11.7 -31.6 L-13.05 -30.6 Q-14.5 -29.9 -16.55 -29.9 -18.05 -29.9 -19.45 -30.6 M-25.7 -18.9 Q-26.55 -18.7 -27.2 -18.1 L-27.8 -17.2 Q-27.8 -16.15 -26.9 -15.5 -26.3 -15.1 -25.3 -14.9 L-21.6 -14.55 -21.05 -14.55 -14.45 -15.05 -14.2 -15.1 -9.8 -16.0 Q-8.5 -16.5 -8.5 -17.2 -8.5 -17.45 -10.2 -18.7 L-10.85 -22.2 -9.05 -21.95 Q-7.1 -21.55 -6.05 -20.75 -4.7 -19.6 -4.7 -18.25 -4.7 -14.85 -9.5 -13.05 L-11.55 -12.45 -14.15 -11.9 -21.5 -11.35 -22.05 -11.35 -27.75 -11.9 -28.6 -12.15 Q-32.9 -13.35 -32.9 -16.05 -32.9 -18.4 -30.1 -20.45 -27.4 -22.35 -24.35 -21.95 L-25.7 -18.9" fill="#fff56b" fill-rule="evenodd" stroke="none"/>
  </g>
</svg>
