<?xml version="1.0" encoding="UTF-8" standalone="no"?>
<svg xmlns:xlink="http://www.w3.org/1999/xlink" height="121.15px" width="35.55px" xmlns="http://www.w3.org/2000/svg">
  <g transform="matrix(1.0, 0.0, 0.0, 1.0, -1.75, 103.85)">
    <path d="M13.6 -98.0 Q13.15 -97.0 12.55 -97.0 11.95 -97.0 11.5 -98.0 11.05 -99.05 11.05 -100.45 11.05 -101.85 11.5 -102.9 11.95 -103.85 12.55 -103.85 13.15 -103.85 13.6 -102.9 14.05 -101.85 14.05 -100.45 14.05 -99.05 13.6 -98.0" fill="#000002" fill-rule="evenodd" stroke="none"/>
    <path d="M4.8 -42.3 L2.05 -39.45 Q2.15 -41.55 1.75 -43.35 3.4 -44.9 4.8 -42.3 6.45 -45.15 7.25 -41.55 8.2 -44.6 10.1 -44.25 10.1 -42.05 9.35 -39.95 L7.25 -41.55 5.9 -39.55 4.8 -42.3 M29.3 -44.85 L29.3 -41.95 26.85 -43.6 26.75 -45.65 Q27.8 -46.6 29.3 -44.85 29.75 -47.2 31.8 -46.3 L31.5 -42.75 29.3 -44.85 M9.55 13.45 L9.05 17.3 5.1 13.65 Q7.35 11.8 9.55 13.45 10.5 10.7 13.4 12.0 13.2 9.4 15.35 9.25 16.35 11.0 16.8 13.05 L13.4 12.0 13.4 15.45 9.55 13.45 M33.15 2.8 L34.55 6.75 30.8 5.35 31.1 8.65 27.0 7.25 Q27.95 5.0 29.9 5.2 30.9 2.25 33.15 2.8 32.5 0.6 34.35 -0.2 36.35 1.55 37.3 3.8 L33.15 2.8" fill="#fcfcfc" fill-rule="evenodd" stroke="none"/>
  </g>
</svg>
