<?xml version="1.0" encoding="UTF-8" standalone="no"?>
<svg xmlns:xlink="http://www.w3.org/1999/xlink" height="143.35px" width="121.55px" xmlns="http://www.w3.org/2000/svg">
  <g transform="matrix(1.0, 0.0, 0.0, 1.0, 60.8, 71.7)">
    <path d="M-37.55 35.9 Q-40.75 35.2 -40.35 38.85 -43.05 38.0 -45.65 40.1 L-46.3 41.15 Q-57.1 41.45 -59.6 37.95 -62.85 32.65 -57.4 30.15 -48.55 26.65 -37.95 31.55 -38.0 33.35 -37.55 35.9 M22.8 -70.15 L25.7 -69.25 Q18.55 -54.2 26.9 -42.85 36.3 -31.8 54.25 -36.15 L54.4 -33.65 Q54.4 -21.45 40.7 -14.75 37.3 -10.4 39.9 -6.6 42.5 -2.8 44.15 0.7 47.15 7.6 49.25 15.4 51.65 19.65 53.6 24.2 57.65 33.55 60.0 44.0 L60.75 48.85 Q60.45 55.75 58.0 60.7 53.85 68.85 43.8 71.65 L44.05 68.55 44.1 67.2 Q44.3 60.7 45.7 54.35 46.35 51.3 47.25 48.35 49.1 41.85 42.1 40.95 34.2 41.65 34.2 50.65 33.3 40.8 25.0 36.6 18.95 34.55 14.7 37.45 13.25 22.6 14.7 8.75 L17.95 11.45 19.95 13.0 Q24.8 16.4 24.75 9.25 22.4 -3.5 9.0 -4.75 L-1.05 -8.2 Q-3.75 -8.1 -6.35 -8.9 -21.45 -13.5 -25.1 -26.5 2.1 -26.95 6.35 -42.5 9.65 -55.35 -2.5 -67.85 L-2.2 -68.05 Q8.75 -74.05 22.8 -70.15" fill="#ffffff" fill-rule="evenodd" stroke="none"/>
  </g>
</svg>
