<?xml version="1.0" encoding="UTF-8" standalone="no"?>
<svg xmlns:xlink="http://www.w3.org/1999/xlink" height="15.25px" width="86.1px" xmlns="http://www.w3.org/2000/svg">
  <g transform="matrix(1.0, 0.0, 0.0, 1.0, 43.05, 7.65)">
    <path d="M35.4 -2.3 Q40.15 -0.25 43.05 -3.05 42.9 0.9 41.35 4.1 32.95 6.45 26.6 4.1 L26.6 -1.1 Q31.15 1.3 35.4 -2.3 M6.45 2.45 Q19.05 5.05 22.9 -0.3 L22.9 5.65 Q15.8 8.75 8.05 6.9 6.9 4.9 6.45 2.45 M-42.95 -6.45 L-43.05 -7.65 Q-40.3 1.85 -28.75 1.85 -22.6 1.85 -21.9 -5.4 L-21.85 -2.7 Q-17.3 0.7 -13.5 -2.7 -10.1 -1.6 -7.5 -2.2 L-7.55 2.45 Q-15.55 4.85 -21.8 2.95 L-21.8 4.8 Q-31.55 8.35 -39.35 4.8 -42.3 0.75 -42.95 -6.45" fill="#593b21" fill-rule="evenodd" stroke="none"/>
  </g>
</svg>
