<?xml version="1.0" encoding="UTF-8" standalone="no"?>
<svg xmlns:xlink="http://www.w3.org/1999/xlink" height="121.75px" width="135.95px" xmlns="http://www.w3.org/2000/svg">
  <g transform="matrix(1.0, 0.0, 0.0, 1.0, 68.0, 60.9)">
    <path d="M51.15 -46.55 Q56.65 -47.15 58.95 -51.7 61.5 -55.1 63.1 -51.7 M46.45 -40.35 Q42.55 -36.95 39.2 -41.95 36.2 -29.85 24.8 -39.25 17.15 -33.3 13.8 -45.85 12.05 -33.6 0.6 -31.55 5.95 -23.0 -2.55 -15.35 3.3 -10.85 2.35 -5.4 4.5 -5.25 5.75 -2.25 14.9 -8.35 21.45 0.75 26.8 -2.45 32.1 2.0 34.5 -1.3 36.95 2.0 38.95 -1.2 43.8 -1.05 43.45 -6.2 50.15 -7.5 45.2 -12.3 52.5 -22.55 46.0 -27.5 46.45 -40.35 L48.6 -42.9 M2.35 -5.4 L1.7 -3.25 M36.95 2.0 Q37.65 2.95 38.35 4.45 M21.45 0.75 L23.95 4.95 M18.8 34.6 Q21.9 33.9 23.1 30.9 25.45 36.85 28.55 25.05 30.15 32.9 31.75 25.45 32.45 21.75 31.75 14.8 M-0.25 -44.45 Q-8.6 -45.5 -12.2 -48.6 -15.8 -51.75 -16.6 -47.3" fill="none" stroke="#000000" stroke-linecap="round" stroke-linejoin="round" stroke-width="1.4000000000000001"/>
    <path d="M46.05 -51.95 Q63.65 -63.6 65.65 -58.15 71.0 -43.95 54.2 -40.55 57.15 -38.9 57.85 -35.1 67.35 -25.6 59.45 -18.85 68.35 -2.85 52.95 3.6 54.35 9.65 45.25 8.45 49.5 12.35 49.8 17.5 49.35 22.0 44.2 17.5 46.55 27.95 41.1 31.25 42.55 44.8 30.3 43.35 L29.7 44.2 30.05 50.1 29.95 53.4 28.1 54.0 26.7 52.45 25.85 54.35 18.25 54.35 Q17.25 52.7 16.8 50.45 16.45 48.7 16.4 46.6 L15.9 46.3 13.35 48.6 Q13.3 51.35 13.8 53.25 14.2 55.05 14.9 56.6 14.5 58.0 13.05 58.9 L11.5 57.45 11.0 59.65 Q7.05 60.2 3.25 59.05 1.2 56.8 0.05 53.8 -1.0 51.1 -1.4 47.15 -5.8 50.45 -9.65 46.3 L-9.95 46.6 -10.3 51.05 -9.85 54.5 -10.6 54.5 -12.45 53.25 -12.9 54.85 Q-17.9 55.95 -21.95 54.85 -22.85 53.2 -23.25 51.25 -23.65 49.35 -23.55 47.15 -25.7 45.75 -27.9 43.5 -27.95 47.5 -27.5 51.65 L-26.7 57.5 -28.95 57.5 Q-30.05 57.2 -30.5 56.1 L-31.0 57.9 -37.35 57.9 Q-39.7 55.3 -40.8 51.95 -41.75 49.0 -41.7 45.35 -47.55 42.0 -46.95 31.75 -53.1 29.7 -51.8 23.95 -58.8 20.1 -58.15 10.3 L-58.05 9.1 Q-60.85 9.2 -61.0 6.5 -65.85 5.05 -62.35 1.65 -65.55 1.65 -67.0 -0.95 -67.05 -4.55 -62.95 -4.4 -65.2 -7.7 -64.15 -12.9 -63.95 -17.85 -60.6 -17.0 -60.1 -24.75 -55.65 -27.65 -50.55 -30.1 -50.5 -22.9 -50.45 -14.9 -46.8 -7.5 -45.3 -7.6 -44.0 -6.05 -34.85 -16.8 -28.55 -10.2 -24.6 -15.6 -16.5 -15.0 -16.55 -19.45 -11.2 -22.3 -11.65 -26.8 -7.3 -29.35 -8.95 -35.2 -7.05 -39.05 -18.5 -36.95 -20.7 -46.35 -22.7 -55.05 -17.05 -57.7 -11.0 -57.55 -0.9 -50.7 L-0.1 -51.55 Q2.75 -51.8 7.7 -44.6 6.5 -51.2 9.65 -54.25 15.15 -59.5 23.1 -50.95 25.6 -63.65 28.1 -50.95 30.85 -58.8 37.95 -58.4 43.8 -57.4 46.05 -51.95 L47.0 -48.75 Q49.45 -48.35 51.15 -46.55 53.2 -44.5 54.2 -40.55 L52.25 -41.3 M32.95 -21.9 L31.4 -20.1 31.4 -17.9 Q35.75 -14.9 38.1 -17.75 M31.4 -17.9 Q27.25 -14.4 24.65 -18.85 M29.05 -22.05 L31.4 -20.1 M45.25 8.45 L42.95 6.65 M16.4 46.6 Q24.8 51.1 29.7 44.2 M0.05 53.8 Q7.9 55.15 13.8 53.25 M16.8 50.45 Q23.75 51.5 30.05 50.1 M38.7 32.25 L41.1 31.25 M-0.25 -44.45 L1.5 -45.0 Q-1.7 -48.6 -0.95 -50.5 L-0.9 -50.7 M-62.95 -4.4 L-61.0 -2.4 M-46.8 -7.5 Q-48.25 -7.45 -49.85 -6.05 -56.85 -0.5 -58.05 9.1 M-60.6 -17.0 L-60.65 -14.85 M-7.05 -39.05 Q-5.25 -42.65 -0.25 -44.45 M-16.5 -15.0 Q-16.45 -12.85 -15.2 -10.35 -13.2 -6.45 -7.2 -5.8 -8.5 3.35 6.85 4.55 M-41.7 45.35 Q-40.15 46.25 -38.15 46.65 -31.25 47.3 -27.9 43.5 M-23.55 47.15 Q-16.25 51.95 -9.95 46.6 M-1.4 47.15 L-0.35 46.3 Q7.05 53.0 13.35 48.6 M-23.25 51.25 Q-17.45 52.7 -10.3 51.05 M-40.8 51.95 Q-34.15 54.2 -27.5 51.65" fill="none" stroke="#000000" stroke-linecap="round" stroke-linejoin="round" stroke-width="2.0"/>
  </g>
</svg>
