<?xml version="1.0" encoding="UTF-8" standalone="no"?>
<svg xmlns:xlink="http://www.w3.org/1999/xlink" height="123.0px" width="170.85px" xmlns="http://www.w3.org/2000/svg">
  <g transform="matrix(1.0, 0.0, 0.0, 1.0, 85.4, 61.5)">
    <path d="M-5.5 4.25 Q-7.25 3.05 -9.8 4.2 -12.35 5.4 -14.1 8.25 -15.85 11.0 -15.75 13.75 -15.7 16.3 -13.9 17.35 L-9.8 17.25 Q-7.45 16.15 -5.75 13.55 -4.0 10.9 -3.9 8.2 -3.8 5.45 -5.5 4.25 M15.3 12.85 L17.3 11.65 Q17.65 11.05 17.4 10.75 L16.65 10.2 15.45 10.0 14.2 10.2 13.3 11.05 Q12.85 11.7 13.3 12.65 13.7 13.5 15.3 12.85 M26.3 7.35 Q26.35 8.1 26.55 8.75 19.1 12.5 20.5 25.65 19.6 27.5 20.15 29.15 L20.8 30.35 25.0 31.2 Q25.75 34.75 28.7 34.95 29.1 38.55 28.5 41.6 24.45 48.55 19.25 54.3 L16.05 51.7 16.8 56.9 Q9.2 57.65 2.65 55.8 -1.2 46.1 -0.45 39.3 L0.0 36.1 -18.55 37.05 -37.05 35.45 Q-38.9 38.35 -41.5 40.5 L-38.8 41.45 Q-39.75 48.3 -37.0 47.9 -34.85 47.7 -35.6 42.25 L-32.7 42.7 Q-33.4 48.9 -30.8 48.55 -28.65 48.35 -29.2 42.65 L-28.15 42.55 -27.6 54.05 Q-31.6 56.05 -35.8 56.7 -40.15 50.95 -43.6 42.1 -45.15 43.1 -46.9 43.9 -46.0 50.7 -44.3 58.0 -49.8 60.8 -55.3 61.5 -62.25 53.3 -64.75 41.7 -62.6 38.7 -60.45 38.05 -69.4 17.95 -66.55 5.15 L-70.6 21.25 Q-72.25 27.65 -76.25 29.55 L-82.9 32.5 -85.4 33.3 Q-84.1 32.65 -82.9 31.8 -76.5 27.25 -73.55 16.3 -70.15 3.35 -63.3 -6.95 -57.1 -14.85 -46.05 -16.75 -58.05 -9.4 -52.55 4.05 -55.75 18.5 -50.75 19.35 -46.85 19.45 -39.25 15.1 L-38.95 15.0 Q-8.65 4.05 -19.5 -13.55 -16.7 -15.8 -17.65 -18.05 L-4.95 -18.85 Q-7.7 -14.35 -3.95 -9.85 -0.25 -5.45 3.2 -0.7 8.25 6.1 13.4 -1.05 17.95 3.95 26.3 7.35 M52.35 -61.5 Q55.3 -56.75 49.0 -52.8 55.35 -51.55 58.05 -48.15 60.05 -45.6 60.05 -41.8 61.65 -41.75 62.75 -42.25 63.95 -42.75 64.6 -44.0 79.25 -44.3 85.45 -38.95 83.4 -29.7 66.85 -34.95 68.7 -28.75 68.25 -18.45 71.0 -10.2 66.25 -5.95 65.25 -8.8 61.35 -10.95 56.2 -13.8 48.9 -13.8 41.6 -13.8 36.3 -10.95 30.85 -8.1 30.55 -3.95 30.4 -2.3 31.15 -0.85 15.8 -4.95 15.25 -22.0 20.95 -18.4 25.4 -25.1 28.8 -25.0 30.75 -26.15 L32.0 -27.1 32.25 -27.35 Q34.15 -29.5 34.2 -33.55 34.45 -41.05 29.15 -42.9 30.75 -44.0 33.0 -46.1 L31.15 -50.1 Q37.25 -54.25 43.9 -55.85 50.4 -57.35 52.35 -61.5" fill="#edeef2" fill-rule="evenodd" stroke="none"/>
  </g>
</svg>
