<?xml version="1.0" encoding="UTF-8" standalone="no"?>
<svg xmlns:xlink="http://www.w3.org/1999/xlink" height="34.55px" width="60.3px" xmlns="http://www.w3.org/2000/svg">
  <g transform="matrix(1.0, 0.0, 0.0, 1.0, -14.65, 126.05)">
    <path d="M16.7 -125.5 Q20.8 -128.35 31.05 -116.2 L28.95 -112.2 Q19.5 -114.25 15.65 -119.05 13.25 -123.0 16.7 -125.5" fill="#ff9999" fill-rule="evenodd" stroke="none"/>
    <path d="M74.35 -99.25 L73.05 -99.95 Q72.8 -100.0 72.75 -100.1 L71.5 -103.8 Q75.0 -103.0 74.95 -99.95 L74.9 -99.25 74.35 -99.25 M57.65 -99.6 L58.4 -98.7 Q59.05 -97.5 59.05 -95.7 59.05 -93.95 58.4 -92.75 57.75 -91.5 56.75 -91.5 55.8 -91.5 55.05 -92.75 54.4 -93.95 54.4 -95.7 54.4 -97.5 55.05 -98.7 55.8 -99.95 56.75 -99.95 57.2 -99.95 57.65 -99.6" fill="#000000" fill-rule="evenodd" stroke="none"/>
  </g>
</svg>
