<?xml version="1.0" encoding="UTF-8" standalone="no"?>
<svg xmlns:xlink="http://www.w3.org/1999/xlink" height="99.5px" width="92.35px" xmlns="http://www.w3.org/2000/svg">
  <g transform="matrix(1.0, 0.0, 0.0, 1.0, 46.15, 49.75)">
    <path d="M26.6 -49.6 Q31.75 -48.95 36.5 -45.65 42.3 -41.6 42.3 -35.9 L42.3 -35.75 42.35 -34.5 42.35 -29.55 Q42.1 -22.05 40.2 -15.7 L38.75 -12.25 36.8 -7.85 Q32.85 0.8 26.9 10.75 21.8 20.3 15.25 29.25 23.7 27.8 25.6 21.0 28.0 10.45 33.15 6.75 34.15 6.05 35.25 5.55 L36.95 5.05 Q42.65 4.7 44.85 8.95 L45.95 12.3 46.2 15.9 Q45.35 29.45 30.85 38.1 L26.55 40.4 Q16.0 45.75 6.45 40.95 2.3 46.3 -3.55 49.35 -24.65 50.3 -45.75 49.1 -29.15 38.15 -20.3 21.05 -36.05 23.9 -44.95 5.5 -46.4 0.7 -46.1 -4.3 L-45.55 -8.3 Q-40.0 -26.35 -32.1 -27.7 L-27.95 -27.35 Q-27.15 -27.1 -26.3 -26.65 -22.85 -24.9 -23.6 -16.95 L-24.05 -9.85 -24.1 -6.25 Q-24.35 8.4 -16.3 9.8 -9.0 -2.65 -7.25 -16.7 -6.0 -25.3 -2.95 -31.5 L-0.6 -35.5 Q1.8 -40.8 8.35 -45.3 14.85 -49.85 22.75 -49.75 L23.75 -49.7 26.6 -49.6 M26.3 -29.5 Q25.65 -27.05 28.35 -25.0 L33.35 -29.5 26.3 -29.5 M13.6 -29.05 Q16.6 -32.0 12.7 -33.3 12.35 -38.45 8.7 -34.75 3.85 -36.2 5.6 -31.6 3.55 -30.35 3.6 -27.3 L8.85 -27.45 Q13.85 -22.85 13.6 -29.05 M0.8 3.7 L2.4 7.45 Q4.6 6.75 4.6 4.65 L0.8 3.7 M-22.5 40.05 L-27.95 40.8 -23.85 42.75 Q-22.2 42.35 -22.5 40.05 M-32.15 11.35 L-35.5 14.6 -30.05 13.95 Q-31.3 11.85 -32.15 11.35 M-1.65 32.85 Q0.45 32.05 0.1 29.3 -0.2 27.1 -3.5 28.75 -5.25 23.0 -7.65 28.85 -13.95 26.7 -9.9 33.0 -11.1 35.05 -10.8 36.9 -8.55 38.6 -5.35 36.25 2.3 39.25 -1.65 32.85" fill="#65a000" fill-rule="evenodd" stroke="none"/>
  </g>
</svg>
