<?xml version="1.0" encoding="UTF-8" standalone="no"?>
<svg xmlns:xlink="http://www.w3.org/1999/xlink" height="115.6px" width="113.4px" xmlns="http://www.w3.org/2000/svg">
  <g transform="matrix(1.0, 0.0, 0.0, 1.0, 56.7, 57.8)">
    <path d="M-18.75 1.05 Q-16.6 -1.45 -15.05 -0.3 -15.05 -5.85 -8.8 -9.25 -11.25 -11.65 -12.2 -13.95 -14.05 -18.45 -9.75 -22.55 -16.45 -30.15 -6.65 -37.75 -9.25 -48.25 4.3 -50.45 12.65 -62.45 23.25 -51.65 25.3 -57.4 31.65 -56.7 39.4 -56.75 40.85 -45.55 53.5 -46.6 48.4 -34.7 L48.55 -34.45 Q53.5 -23.65 49.0 -9.85 51.05 -7.5 55.45 -6.9 56.85 1.9 50.9 5.45 47.75 7.35 42.55 7.7 L38.65 7.4 Q31.45 6.95 25.0 8.3 25.85 13.05 26.0 17.1 26.3 25.65 23.55 31.35 19.4 39.8 8.55 42.1 1.65 43.5 -8.0 42.45 L-10.0 42.0 Q-17.9 40.25 -23.55 40.2 -30.5 40.05 -34.15 42.45 -35.05 51.7 -26.65 43.75 -22.25 49.95 -28.8 55.05 -45.55 61.9 -55.15 42.0 -59.05 22.8 -35.25 11.55 -33.75 8.85 -31.25 9.1 -40.4 5.15 -36.8 1.85 -33.95 0.1 -28.9 3.15 -31.1 -7.4 -27.15 -7.0 -25.7 -7.1 -18.75 1.05 L-17.0 3.1 Q-11.8 0.5 -9.3 -2.7 -7.45 -5.15 -7.1 -8.0 -7.4 -12.85 -7.05 -17.1 -6.65 -23.5 -4.85 -28.85 -3.5 -32.75 -1.35 -35.95 L0.6 -38.5 Q2.3 -40.75 5.0 -41.95 4.2 -46.2 6.45 -49.7 9.55 -51.65 13.55 -45.6 L16.45 -46.45 Q24.05 -48.4 30.9 -47.3 34.6 -46.7 38.1 -45.2 L40.85 -45.55 M13.55 -45.6 Q15.65 -42.35 17.95 -37.2 L16.9 -34.9 16.55 -33.8 16.3 -33.0 16.15 -32.4 Q15.65 -29.85 15.9 -27.15 1.1 -23.35 5.55 -31.4 -5.6 -35.95 6.55 -38.3 5.95 -38.9 5.0 -41.95 M48.4 -34.7 Q45.55 -40.7 38.1 -45.2 M-17.0 3.1 L-16.65 3.5 Q-14.85 5.6 -12.8 8.2 -28.6 18.9 -35.25 11.55 M-12.8 8.2 L-14.0 8.6 M-34.15 42.45 Q-33.15 34.8 -23.1 32.65 -18.2 31.6 -11.1 31.9 L-10.35 31.95 Q-2.45 31.65 2.45 28.1 5.45 25.95 7.35 22.6 8.8 19.85 9.6 16.3 10.65 11.55 10.35 5.35 5.45 2.1 2.75 -4.4 M44.5 0.1 Q43.75 0.85 42.65 1.0 44.3 6.45 50.9 5.45 M10.35 5.35 Q16.15 9.15 25.0 8.3 M40.15 0.7 L42.65 1.0" fill="none" stroke="#000000" stroke-linecap="round" stroke-linejoin="round" stroke-width="2.0"/>
  </g>
</svg>
