<?xml version="1.0" encoding="UTF-8" standalone="no"?>
<svg xmlns:xlink="http://www.w3.org/1999/xlink" height="90.45px" width="44.6px" xmlns="http://www.w3.org/2000/svg">
  <g transform="matrix(1.0, 0.0, 0.0, 1.0, 22.3, 45.25)">
    <path d="M6.0 -45.25 Q10.8 -45.25 17.15 -44.1 22.65 -37.85 22.3 -28.6 18.95 -19.95 11.15 -16.9 L16.9 -7.45 Q12.2 -1.9 3.75 -2.7 L7.75 -1.6 Q13.7 4.7 14.0 12.85 L10.3 8.75 Q12.6 14.55 10.3 22.25 4.55 35.0 -8.55 39.35 L-8.6 39.35 Q-9.55 41.65 -11.2 43.05 -13.55 45.0 -17.2 45.2 L-21.95 44.95 Q-21.75 43.65 -22.3 42.2 L-22.2 42.0 -22.15 41.75 -22.15 41.65 -22.1 41.6 Q-21.4 39.1 -21.7 35.6 -12.35 38.25 -5.1 -2.05 L-0.2 1.35 -0.2 -3.25 -9.15 -5.35 -9.8 -5.75 Q-13.8 -8.25 -11.15 -12.35 -17.1 -15.95 -19.35 -21.4 -16.5 -23.65 -12.5 -21.4 -22.95 -29.5 -21.95 -37.45 -18.5 -32.35 -9.95 -31.15 -11.3 -45.3 6.0 -45.25" fill="#f03605" fill-rule="evenodd" stroke="none"/>
  </g>
</svg>
