<?xml version="1.0" encoding="UTF-8" standalone="no"?>
<svg xmlns:xlink="http://www.w3.org/1999/xlink" height="165.45px" width="249.25px" xmlns="http://www.w3.org/2000/svg">
  <g transform="matrix(1.0, 0.0, 0.0, 1.0, 124.65, 82.75)">
    <path d="M63.5 -57.2 Q66.6 -64.3 70.3 -69.45 74.85 -75.85 80.15 -79.15 84.05 -81.6 88.35 -82.4 L93.95 -82.75 97.25 -82.25 Q108.45 -80.15 113.65 -68.8 121.4 -68.75 124.35 -60.55 124.9 -56.9 124.3 -54.05 121.6 -44.05 102.85 -45.05 L92.7 -45.05 69.55 16.4 68.85 17.6 68.8 17.75 Q66.85 29.3 58.65 38.05 56.6 50.0 53.4 61.25 54.85 69.5 57.5 77.6 52.4 73.8 51.75 79.9 48.15 74.1 44.45 79.9 38.7 73.8 35.95 80.65 29.6 68.7 25.2 54.1 14.95 55.3 5.1 52.85 -3.25 60.6 6.7 77.6 1.85 71.95 0.8 77.6 -4.05 74.8 -5.2 79.3 -7.2 76.7 -8.25 77.0 -10.55 77.6 -9.9 82.7 -16.3 74.25 -18.2 82.7 -22.4 74.7 -27.7 82.7 L-35.4 61.25 Q-38.55 65.65 -43.15 70.05 -59.3 85.0 -124.65 72.1 L-124.6 71.2 -113.55 70.5 -99.55 68.6 Q-92.65 67.3 -86.8 65.3 -80.5 63.25 -75.3 60.55 L-75.2 60.55 Q-67.3 56.25 -61.9 50.35 -55.35 43.15 -52.45 33.45 -50.35 25.0 -46.55 18.45 -40.1 6.7 -28.9 1.1 -23.05 -2.0 -15.65 -3.2 -9.75 -4.3 -3.0 -4.2 L1.25 -4.2 14.55 -5.0 Q24.4 -6.25 31.7 -9.0 37.25 -11.25 41.25 -14.45 43.85 -16.6 45.85 -19.15 L47.9 -22.5 Q51.65 -29.5 55.3 -37.65 L61.65 -52.9 63.5 -57.2" fill="#66cc00" fill-rule="evenodd" stroke="none"/>
  </g>
</svg>
