<?xml version="1.0" encoding="UTF-8" standalone="no"?>
<svg xmlns:xlink="http://www.w3.org/1999/xlink" height="126.3px" width="37.75px" xmlns="http://www.w3.org/2000/svg">
  <g transform="matrix(1.0, 0.0, 0.0, 1.0, 18.85, 63.15)">
    <path d="M9.0 -60.8 Q15.45 -63.7 18.75 -56.1 19.9 -37.7 12.55 -20.55 6.55 -6.2 -4.5 0.45 L-4.7 0.15 -5.0 0.75 Q-5.45 1.4 -5.95 1.55 L-9.0 1.05 -12.2 0.55 -14.8 5.95 -14.9 6.55 Q-16.25 9.25 -16.8 11.65 -18.2 16.6 -18.2 22.45 -18.2 30.55 -16.3 43.55 -14.6 55.55 -12.65 62.95 L-12.85 63.15 -13.15 62.75 Q-15.35 60.05 -17.25 44.9 -18.85 31.0 -18.85 22.45 -18.85 16.15 -17.6 10.65 -16.6 7.0 -14.9 4.1 -13.9 2.1 -12.65 0.45 L-12.45 0.25 -12.45 0.15 -12.45 -0.05 -12.45 -0.35 -12.25 -0.35 -10.85 -2.45 Q-21.75 -38.85 4.6 -63.15 L9.0 -60.8" fill="#000000" fill-rule="evenodd" stroke="none"/>
  </g>
</svg>
