<?xml version="1.0" encoding="UTF-8" standalone="no"?>
<svg xmlns:xlink="http://www.w3.org/1999/xlink" height="71.35px" width="66.6px" xmlns="http://www.w3.org/2000/svg">
  <g transform="matrix(1.0, 0.0, 0.0, 1.0, 30.15, 147.9)">
    <path d="M19.6 -140.55 Q22.05 -138.45 25.05 -137.65 L27.6 -137.15 27.6 -133.25 Q21.0 -133.1 16.8 -137.65 L16.5 -137.9 19.6 -140.55 M27.6 -129.45 L27.6 -125.6 24.2 -123.9 24.2 -127.2 22.25 -124.5 20.3 -129.95 Q24.0 -128.15 27.6 -129.45 M13.75 -135.3 Q15.9 -131.9 20.3 -129.95 L20.3 -124.95 Q14.3 -126.0 10.9 -132.85 L13.75 -135.3" fill="#ffffff" fill-rule="evenodd" stroke="none"/>
    <path d="M27.6 -137.15 L25.05 -137.65 Q22.05 -138.45 19.6 -140.55 L27.6 -147.9 27.6 -137.15 M16.5 -137.9 L16.8 -137.65 Q21.0 -133.1 27.6 -133.25 L27.6 -129.45 Q24.0 -128.15 20.3 -129.95 15.9 -131.9 13.75 -135.3 L16.5 -137.9" fill="#ff6633" fill-rule="evenodd" stroke="none"/>
    <path d="M26.25 -94.9 Q28.4 -94.9 29.95 -93.45 31.45 -91.9 31.45 -89.75 31.45 -87.6 29.95 -86.1 28.4 -84.5 26.25 -84.5 24.9 -84.5 23.85 -85.1 L22.6 -86.1 Q21.1 -87.6 21.1 -89.75 21.1 -91.9 22.6 -93.45 24.1 -94.9 26.25 -94.9 M13.3 -90.05 L14.15 -89.75 14.45 -88.85 14.15 -88.0 Q13.75 -87.6 13.3 -87.6 12.8 -87.6 12.45 -88.0 12.1 -88.3 12.1 -88.85 12.1 -89.35 12.45 -89.75 L12.8 -90.0 13.3 -90.05 M3.3 -92.4 Q3.65 -92.7 4.1 -92.7 L4.95 -92.4 5.15 -92.05 5.3 -91.5 Q5.3 -91.05 4.95 -90.7 4.55 -90.3 4.1 -90.3 3.65 -90.3 3.3 -90.7 2.9 -91.05 2.9 -91.5 2.9 -92.0 3.3 -92.4 M-8.8 -106.0 Q-6.7 -106.0 -5.2 -104.6 -3.8 -103.05 -3.8 -101.05 -3.8 -99.0 -5.2 -97.45 -6.7 -96.05 -8.8 -96.05 -10.85 -96.05 -12.3 -97.45 -13.7 -99.0 -13.7 -101.05 -13.7 -103.05 -12.3 -104.6 -10.85 -106.0 -8.8 -106.0" fill="#000000" fill-rule="evenodd" stroke="none"/>
    <path d="M29.95 -80.5 L32.85 -80.2 Q34.2 -79.9 35.15 -79.25 L35.6 -79.05 Q36.6 -78.25 36.45 -77.5 36.2 -76.75 34.85 -76.65 34.05 -76.45 33.05 -76.65 L32.0 -76.85 Q30.35 -77.3 29.25 -78.1 28.25 -78.9 28.4 -79.65 28.6 -80.35 29.95 -80.5 M-19.3 -94.6 Q-17.7 -93.6 -17.95 -92.85 -18.1 -92.1 -20.0 -92.05 -21.95 -92.0 -24.45 -92.7 L-25.4 -92.9 Q-27.35 -93.6 -28.7 -94.4 -30.3 -95.4 -30.15 -96.1 -29.9 -96.85 -28.0 -96.9 L-25.65 -96.8 -23.55 -96.4 Q-21.0 -95.65 -19.3 -94.6" fill="#cc6666" fill-rule="evenodd" stroke="none"/>
  </g>
</svg>
