<?xml version="1.0" encoding="UTF-8" standalone="no"?>
<svg xmlns:xlink="http://www.w3.org/1999/xlink" height="53.9px" width="162.15px" xmlns="http://www.w3.org/2000/svg">
  <g transform="matrix(1.0, 0.0, 0.0, 1.0, 81.05, 26.95)">
    <path d="M0.35 -15.0 L-0.15 -14.85 -19.95 -12.85 -24.85 -7.35 -28.7 -7.3 Q-41.95 -7.3 -51.4 -11.65 -55.5 -13.6 -57.85 -15.9 -57.15 -20.3 -49.4 -23.5 -40.9 -26.95 -28.8 -26.95 -16.75 -26.95 -8.2 -23.5 -0.35 -20.25 0.2 -15.75 L0.35 -15.0 M-46.1 11.85 L-48.95 11.55 -51.8 11.85 Q-53.0 12.2 -53.0 12.75 -53.0 13.25 -51.8 13.5 L-48.95 13.85 -46.1 13.5 Q-44.9 13.25 -44.9 12.75 -44.9 12.2 -46.1 11.85 M-19.6 8.5 Q-15.5 11.05 -14.65 14.2 L-14.65 15.25 Q-17.25 17.7 -21.7 19.7 -32.45 24.75 -47.7 24.75 -62.85 24.75 -73.55 19.7 -78.4 17.5 -81.05 14.9 -80.2 9.8 -71.35 6.2 -61.6 2.1 -47.8 2.1 -35.3 2.1 -26.2 5.45 -25.15 5.75 -24.15 6.2 -21.5 7.2 -19.6 8.5 M-27.3 -17.1 Q-26.25 -17.35 -26.25 -17.8 -26.25 -18.2 -27.3 -18.55 L-29.85 -18.85 -32.3 -18.55 Q-33.4 -18.2 -33.4 -17.8 -33.4 -17.35 -32.3 -17.1 L-29.85 -16.8 -27.3 -17.1 M35.6 13.8 L32.7 14.15 Q31.55 14.5 31.55 15.0 31.55 15.45 32.7 15.75 L35.6 16.1 38.4 15.75 Q39.7 15.45 39.7 15.0 39.7 14.5 38.4 14.15 L35.6 13.8 M70.15 17.25 Q67.45 19.75 62.8 22.05 52.05 26.95 36.9 26.95 21.7 26.95 10.95 22.05 7.2 20.25 4.7 18.2 L3.45 17.15 Q4.35 12.05 13.15 8.4 L13.75 8.2 Q15.6 7.45 17.65 6.8 L21.45 5.9 Q28.4 4.4 36.8 4.4 50.6 4.4 60.35 8.4 69.45 12.1 70.15 17.25 M48.5 -18.55 Q47.45 -18.2 47.45 -17.8 47.45 -17.35 48.5 -17.1 L51.0 -16.8 53.5 -17.1 Q54.55 -17.35 54.55 -17.8 L53.5 -18.55 51.0 -18.85 48.5 -18.55 M23.05 -15.9 Q23.7 -20.15 31.0 -23.25 L31.45 -23.5 Q40.0 -26.95 52.05 -26.95 64.1 -26.95 72.65 -23.5 80.5 -20.25 81.1 -15.75 78.75 -13.5 74.75 -11.65 65.35 -7.3 52.1 -7.3 39.85 -7.3 31.0 -11.0 L29.55 -11.65 Q25.35 -13.6 23.05 -15.9" fill="#c4c4c4" fill-rule="evenodd" stroke="none"/>
  </g>
</svg>
