<?xml version="1.0" encoding="UTF-8" standalone="no"?>
<svg xmlns:xlink="http://www.w3.org/1999/xlink" height="56.45px" width="60.75px" xmlns="http://www.w3.org/2000/svg">
  <g transform="matrix(1.0, 0.0, 0.0, 1.0, 30.4, 28.25)">
    <path d="M3.65 -5.0 Q4.05 0.0 -0.45 4.55 L-1.8 3.45 Q2.55 -1.3 0.95 -7.0 L3.65 -5.0 M10.85 -24.2 L15.0 -20.95 Q18.9 -11.65 17.5 -2.9 16.0 4.9 11.65 8.95 11.5 7.0 10.8 4.9 13.95 0.4 14.7 -7.45 15.6 -15.65 10.85 -24.2 M-1.45 -28.25 L1.8 -28.0 Q7.75 -20.5 9.0 -12.9 9.85 -7.25 6.85 -2.1 L5.2 -3.7 Q6.95 -9.15 5.45 -15.65 3.9 -21.7 -1.45 -28.25 M8.95 17.95 Q10.5 15.8 11.1 13.45 23.95 6.9 23.05 -11.35 25.15 -7.95 26.7 -4.6 24.85 6.6 17.4 14.05 13.15 17.85 8.95 17.95 2.1 21.15 -0.5 14.7 L1.15 13.45 Q4.35 19.2 10.05 15.75 L8.95 17.95 M28.45 -0.25 L29.7 4.3 30.35 7.2 Q30.4 15.05 24.0 19.9 L22.15 21.1 Q12.6 27.6 3.45 23.55 L4.95 22.4 Q13.7 21.55 22.45 16.35 28.95 12.35 28.45 -0.25 M9.25 1.45 Q9.8 8.4 2.65 10.1 2.8 8.9 2.35 7.8 7.8 6.75 7.95 -0.75 L9.25 1.45 M-9.3 -26.8 L-7.7 -27.4 Q-2.6 -22.1 -1.35 -16.85 0.05 -11.65 -0.95 -8.05 L-2.75 -8.75 Q-1.5 -17.8 -9.3 -26.8 M-30.0 -3.45 L-29.1 -6.55 Q-21.5 -4.9 -19.45 -0.75 L-20.35 1.3 Q-22.8 -3.0 -30.0 -3.45 M-25.35 -14.35 L-24.45 -15.75 -23.45 -16.8 Q-16.1 -12.05 -15.45 -6.0 L-15.75 -5.65 Q-10.1 -2.6 -8.25 1.75 L-10.25 2.4 Q-12.4 -2.9 -17.75 -3.55 L-17.0 -4.65 Q-17.6 -10.45 -25.35 -14.35 M-8.1 -9.3 L-10.25 -8.8 Q-10.45 -16.15 -17.55 -22.1 L-15.7 -23.4 Q-8.55 -16.85 -8.1 -9.3 L-6.5 -9.35 Q-2.6 -3.85 -4.4 2.05 L-5.6 1.8 Q-5.6 -3.55 -8.1 -9.3 M-7.7 14.35 Q-11.8 11.15 -12.05 7.45 -11.05 4.05 -8.6 5.6 -7.25 6.45 -7.35 7.45 -6.4 4.35 -4.0 5.85 -2.3 7.5 -3.2 9.1 -4.35 12.15 -7.7 14.35 M-11.75 28.2 L-14.0 27.8 Q-17.15 22.2 -12.05 16.2 L-10.35 16.7 Q-14.3 23.15 -11.75 28.2 M-23.1 22.05 L-24.45 20.45 Q-24.65 14.95 -17.0 13.45 L-15.25 14.6 Q-23.1 17.6 -23.1 22.05 M-0.8 25.95 L-3.3 26.95 Q-6.75 23.55 -5.4 16.75 L-3.8 16.3 Q-5.3 23.1 -0.8 25.95 M-29.75 10.0 L-30.4 7.05 Q-25.65 4.35 -21.0 6.65 L-20.45 8.9 Q-24.85 6.55 -29.75 10.0" fill="#ffffff" fill-rule="evenodd" stroke="none"/>
  </g>
</svg>
