<?xml version="1.0" encoding="UTF-8" standalone="no"?>
<svg xmlns:xlink="http://www.w3.org/1999/xlink" height="128.15px" width="90.05px" xmlns="http://www.w3.org/2000/svg">
  <g transform="matrix(1.0, 0.0, 0.0, 1.0, 45.05, 64.1)">
    <path d="M13.5 -41.9 L11.2 -55.3 Q9.95 -62.6 6.7 -63.1 0.15 -50.85 4.65 -39.65 L7.15 -44.7 10.2 -40.0 13.5 -41.9 Q19.15 -45.15 25.25 -43.0 26.85 -54.85 36.3 -62.0 39.5 -64.1 40.25 -59.0 41.35 -45.45 38.2 -36.2 41.8 -30.45 42.1 -24.8 44.5 -19.75 43.9 -15.65 43.35 -12.05 40.65 -9.25 36.45 -3.0 26.3 -1.85 L26.5 5.25 Q26.85 12.15 28.05 17.55 L28.25 21.45 Q37.95 31.05 38.0 40.6 L37.9 43.0 Q37.1 49.95 33.2 51.3 32.0 51.55 31.15 50.9 29.45 49.45 29.05 44.0 27.9 38.9 22.6 36.2 L21.9 37.45 20.7 38.95 Q20.85 43.1 21.65 46.75 23.45 51.8 24.15 55.25 25.55 62.55 22.05 63.0 L19.5 62.7 Q18.1 62.3 16.3 61.25 14.65 59.7 13.25 57.25 9.05 58.3 5.0 57.1 6.8 60.85 2.35 61.55 L-1.8 61.7 -5.7 61.25 -7.6 60.75 Q-14.15 59.1 -21.05 59.55 -26.9 56.45 -22.55 52.4 -25.85 47.0 -26.05 40.35 -31.95 40.1 -37.3 35.45 -44.0 29.05 -44.05 19.4 -44.5 7.65 -33.85 6.4 -21.05 6.2 -19.15 19.6 -16.1 16.1 -11.7 13.4 -6.5 11.35 -1.85 6.0 -0.75 4.3 -0.4 2.35 0.3 -1.0 -1.15 -5.0 L-1.85 -6.65 Q-11.55 -19.65 -5.15 -35.95 -5.15 -45.6 -0.8 -55.3 4.15 -63.55 6.7 -63.1 M30.4 -40.1 Q27.8 -42.1 25.25 -43.0 M36.3 -62.0 Q37.2 -49.35 32.85 -39.55 L36.3 -41.5 34.95 -36.6 38.2 -36.2 M28.95 -16.6 Q26.75 -14.45 25.05 -17.1 23.05 -14.0 20.55 -17.25 M-1.15 -5.0 Q0.1 -4.05 2.25 -3.45 14.35 0.95 26.3 -1.85 M26.5 5.25 L21.55 6.7 22.4 7.4 Q23.5 8.5 23.5 10.15 23.5 11.75 22.4 12.9 L21.15 13.75 19.7 14.05 Q18.0 14.05 16.95 12.9 15.8 11.75 15.8 10.15 15.8 8.5 16.95 7.35 8.0 7.8 -0.4 2.35 M21.55 6.7 L17.0 7.35 16.95 7.35 M6.9 35.3 Q7.65 40.25 8.65 44.35 L9.35 47.15 Q11.05 53.35 13.25 57.25 M20.7 24.0 L20.7 34.6 Q20.55 36.85 20.7 38.95 M28.25 21.45 Q28.15 26.65 26.0 30.45 L22.6 36.2 M21.4 58.75 Q22.95 60.85 22.05 63.0 M1.75 56.1 Q3.35 58.85 2.35 61.55 M9.35 47.15 Q4.75 52.3 0.3 51.05 3.85 54.7 5.0 57.1 M17.8 59.0 Q19.95 60.85 19.5 62.7 M33.75 46.9 L33.2 51.3 M32.15 46.95 L31.15 50.9 M-26.05 40.35 Q-26.25 34.8 -24.15 28.3 L-23.25 26.05 Q-32.2 31.25 -36.8 24.35 -37.8 21.2 -35.3 18.35 -32.9 16.15 -30.4 16.75 M-19.15 19.6 Q-21.65 22.55 -23.25 26.05 M-3.05 56.35 Q-0.9 59.0 -1.8 61.7 M-4.55 23.0 Q11.55 32.0 -1.45 49.3 L-1.95 49.95 Q-0.8 50.7 0.3 51.05" fill="none" stroke="#56424a" stroke-linecap="round" stroke-linejoin="round" stroke-width="2.0"/>
  </g>
</svg>
