<?xml version="1.0" encoding="UTF-8" standalone="no"?>
<svg xmlns:xlink="http://www.w3.org/1999/xlink" height="44.85px" width="79.55px" xmlns="http://www.w3.org/2000/svg">
  <g transform="matrix(1.0, 0.0, 0.0, 1.0, 39.8, 22.45)">
    <path d="M3.85 -5.0 Q7.9 -11.3 7.3 -20.75 8.1 -24.15 11.25 -20.75 13.65 -17.2 11.45 -14.05 16.15 -11.75 12.2 -8.75 L12.7 -8.05 12.85 -7.15 Q12.85 -5.8 11.95 -5.05 L9.2 -3.2 3.9 -4.9 3.85 -5.0 M17.9 1.35 L26.85 -9.35 Q32.5 -14.95 29.55 -6.0 L30.45 -4.8 Q31.0 -3.95 31.0 -3.2 31.0 -1.6 30.0 -0.75 29.0 0.2 27.0 -0.05 L27.15 0.4 27.2 0.85 Q27.2 2.45 24.9 3.15 L21.1 3.95 17.9 1.35 M27.4 13.8 Q42.35 3.25 39.2 13.8 37.55 16.05 35.85 14.75 35.95 21.1 32.7 18.35 30.45 22.05 27.4 19.95 28.35 17.05 27.4 13.8 M-22.1 12.6 Q-21.25 16.5 -21.9 20.9 -24.7 23.65 -27.15 21.4 -28.15 20.45 -29.2 18.45 -36.85 21.0 -35.05 16.3 -37.8 15.5 -38.85 14.35 -39.8 13.35 -39.8 11.55 -39.8 9.95 -39.4 9.2 -38.9 8.25 -37.55 8.25 L-36.45 8.45 Q-36.15 8.55 -35.9 8.8 -31.05 11.7 -24.9 12.4 L-22.1 12.6 M-6.05 -4.9 Q-9.05 -4.15 -12.05 -2.5 -16.35 -3.0 -16.35 -5.0 L-15.95 -6.6 -16.15 -6.75 Q-17.35 -6.3 -18.45 -7.45 -19.35 -8.5 -19.35 -9.35 L-18.85 -10.55 -17.95 -11.3 Q-19.35 -12.25 -19.8 -13.05 -20.25 -13.8 -20.25 -15.0 -20.25 -16.05 -19.75 -17.05 -19.05 -18.2 -18.05 -18.2 -16.6 -18.2 -12.05 -12.45 L-6.05 -4.9 M-17.6 1.4 Q-20.1 4.1 -21.65 6.6 -30.25 8.7 -28.8 2.85 L-29.3 3.3 -30.15 3.5 Q-30.95 3.5 -31.95 2.95 -33.1 2.15 -33.1 1.0 L-32.8 0.0 -31.95 -1.3 Q-33.7 -1.75 -34.4 -2.25 -35.65 -3.05 -35.65 -4.6 -35.65 -5.95 -34.7 -6.75 -33.7 -7.55 -32.1 -7.55 -30.55 -7.55 -28.8 -6.15 L-25.65 -3.0 Q-21.45 1.45 -17.6 1.4" fill="#fae1f9" fill-rule="evenodd" stroke="none"/>
  </g>
</svg>
