<?xml version="1.0" encoding="UTF-8" standalone="no"?>
<svg xmlns:xlink="http://www.w3.org/1999/xlink" height="13.65px" width="41.05px" xmlns="http://www.w3.org/2000/svg">
  <g transform="matrix(1.0, 0.0, 0.0, 1.0, 20.5, 6.85)">
    <path d="M-15.6 6.8 L-15.9 6.8 Q-17.2 6.6 -18.4 5.05 -19.85 3.05 -20.4 0.0 L-20.5 -1.25 Q-16.55 2.15 -13.8 -5.05 -12.9 -3.4 -12.6 -1.25 -12.1 1.75 -12.85 4.15 -13.65 6.5 -15.25 6.75 L-15.6 6.8 M12.9 -3.3 Q17.0 -1.7 20.3 -6.85 L20.55 -4.05 Q20.55 -1.15 19.45 0.9 L18.25 2.4 16.75 2.9 Q15.15 2.9 14.05 0.9 13.0 -0.9 12.9 -3.3" fill="#fbceee" fill-rule="evenodd" stroke="none"/>
  </g>
</svg>
