<?xml version="1.0" encoding="UTF-8" standalone="no"?>
<svg xmlns:xlink="http://www.w3.org/1999/xlink" height="38.35px" width="63.75px" xmlns="http://www.w3.org/2000/svg">
  <g transform="matrix(1.0, 0.0, 0.0, 1.0, 31.9, 19.2)">
    <path d="M12.05 18.45 L1.05 19.05 Q-5.25 19.35 -10.5 18.8 L-15.0 18.15 Q-19.75 17.25 -23.45 15.55 L-26.2 14.15 Q-36.0 7.8 -28.95 -3.15 L-27.1 -5.85 Q-22.6 -11.85 -16.75 -15.2 -9.5 -19.35 0.0 -19.2 5.05 -19.35 10.05 -18.05 15.9 -16.55 21.6 -13.15 L25.2 -10.35 Q35.15 -1.55 30.25 8.65 28.85 11.3 26.25 13.4 23.6 15.45 19.6 16.75 16.3 17.85 12.05 18.45" fill="#fdadb6" fill-rule="evenodd" stroke="none"/>
  </g>
</svg>
