<?xml version="1.0" encoding="UTF-8" standalone="no"?>
<svg xmlns:xlink="http://www.w3.org/1999/xlink" height="103.75px" width="72.9px" xmlns="http://www.w3.org/2000/svg">
  <g transform="matrix(1.0, 0.0, 0.0, 1.0, 36.45, 51.9)">
    <path d="M-18.65 -18.85 L-12.9 -17.8 Q-13.1 -20.35 -12.55 -22.9 -20.7 -24.35 -22.25 -30.7 -23.7 -40.8 -18.3 -46.0 -14.75 -48.7 -10.5 -44.65 L-4.45 -37.85 Q5.55 -43.95 15.1 -39.6 L24.05 -48.9 Q26.8 -51.45 29.25 -50.75 L31.05 -49.8 Q35.8 -45.0 35.45 -35.2 34.45 -27.5 26.95 -26.0 L27.65 -25.1 Q29.1 -23.35 29.45 -20.95 L33.35 -21.7 M29.25 -50.75 Q32.1 -39.7 24.15 -32.1 24.8 -29.05 26.95 -26.0 M15.1 -39.6 L18.35 -37.75 M3.7 -20.3 Q5.9 -18.45 8.15 -20.3 9.9 -18.85 11.65 -20.3 M29.45 -20.95 Q29.7 -19.2 29.45 -17.05 L34.1 -16.0 M26.45 -17.75 L29.45 -17.05 28.75 -13.6 Q26.9 -9.0 20.75 -6.55 30.1 -8.95 31.4 -5.5 32.9 -2.3 22.65 2.0 21.8 11.0 25.7 20.05 29.1 29.3 25.7 38.95 L26.6 40.05 Q32.15 46.9 30.95 49.7 L29.95 50.7 28.55 50.8 Q24.55 50.25 19.9 42.6 L19.1 41.25 Q9.1 45.55 -1.3 41.25 L-1.85 42.15 Q-5.3 48.25 -8.35 49.45 L-10.2 49.7 -10.8 49.3 Q-12.75 47.55 -9.0 39.6 L-8.2 38.05 -8.85 35.0 Q-18.2 28.15 -19.2 22.15 -21.1 9.6 -35.45 -0.3 -21.2 2.35 -17.1 17.55 -15.1 25.15 -9.35 28.6 -9.3 22.05 -6.7 15.7 -2.55 6.95 -3.8 2.3 -11.15 2.45 -11.4 -0.3 -11.6 -3.1 -2.1 -5.35 -10.05 -6.95 -12.2 -13.6 L-12.35 -14.45 -16.8 -13.6 M26.35 -20.3 L29.45 -20.95 M26.15 47.4 L28.55 50.8 M28.45 46.95 L30.95 49.7 M-7.15 -36.1 L-4.45 -37.85 M-18.3 -46.0 Q-19.65 -38.0 -10.4 -29.65 -12.0 -26.25 -12.55 -22.9 M-9.9 -17.3 L-12.9 -17.8 -12.35 -14.45 -10.2 -14.8 M-7.35 46.3 L-8.35 49.45 M-9.65 46.65 L-10.8 49.3 M-9.35 28.6 Q-9.45 31.75 -8.85 35.0" fill="none" stroke="#484a70" stroke-linecap="round" stroke-linejoin="round" stroke-width="2.0"/>
    <path d="M7.75 -5.15 L8.0 -5.6 Q8.45 -6.25 9.15 -6.25 9.8 -6.25 10.25 -5.7 15.15 -9.95 17.25 -8.3 19.75 -4.25 17.7 -0.65 17.15 0.4 15.75 0.35 13.3 4.8 11.2 2.9 9.85 1.05 9.55 -0.5 9.45 1.4 7.8 3.0 5.45 4.5 4.1 0.85 2.3 1.35 1.4 -0.3 -0.95 -5.75 2.3 -8.15 4.0 -9.1 7.75 -5.15 7.5 -4.65 7.5 -4.0 L7.5 -3.9 Q7.55 -3.05 8.0 -2.5 L8.3 -2.1 Q8.7 -1.85 9.15 -1.85 L9.45 -1.85 Q9.8 -1.95 10.05 -2.15 L10.25 -2.5 Q10.75 -3.1 10.75 -4.0 10.75 -4.95 10.25 -5.6 L10.25 -5.7 M9.45 -1.85 L9.55 -0.5 M4.6 -3.8 L7.5 -3.9 M10.75 -4.0 L13.45 -4.0 M15.75 0.35 Q13.7 0.25 10.05 -2.15 M4.1 0.85 Q5.85 0.35 8.3 -2.1" fill="none" stroke="#484a70" stroke-linecap="round" stroke-linejoin="round" stroke-width="1.6"/>
  </g>
</svg>
