<?xml version="1.0" encoding="UTF-8" standalone="no"?>
<svg xmlns:xlink="http://www.w3.org/1999/xlink" height="117.35px" width="109.35px" xmlns="http://www.w3.org/2000/svg">
  <g transform="matrix(1.0, 0.0, 0.0, 1.0, 54.65, 58.7)">
    <path d="M15.3 -52.85 Q19.35 -54.65 22.8 -53.85 32.1 -51.6 37.4 -30.1 41.4 -17.6 48.6 -10.8 58.3 -1.9 52.6 1.35 45.95 4.05 39.35 2.3 23.75 -3.2 18.4 -20.55 15.45 -18.35 11.5 -17.35 22.95 -7.5 20.85 4.7 L17.3 -0.45 Q17.2 11.55 10.75 16.8 9.5 22.1 10.75 28.75 12.85 33.1 11.8 35.25 10.8 36.4 9.45 36.35 8.05 36.35 6.4 35.2 L5.6 35.95 3.15 36.6 Q1.5 36.45 0.45 34.9 L-1.05 31.8 -6.7 32.15 Q-5.5 35.7 -8.2 36.25 L-10.35 36.45 Q-36.55 39.25 -38.5 31.15 -44.6 45.8 -23.7 57.7 -39.4 61.25 -44.6 51.7 -45.15 54.05 -43.25 58.45 -53.7 56.15 -54.65 45.5 -55.2 27.7 -39.85 23.05 -40.2 15.15 -34.5 9.05 -47.5 15.25 -50.15 9.85 -51.8 6.7 -47.8 -0.55 -40.45 -11.35 -39.15 -28.85 -36.05 -48.3 -21.85 -50.75 L-17.45 -51.2 Q-12.4 -55.4 -6.9 -57.3 L-1.3 -58.5 1.8 -58.7 2.95 -58.5 6.7 -57.65 Q12.0 -56.15 15.3 -52.85" fill="#dcc5bc" fill-rule="evenodd" stroke="none"/>
  </g>
</svg>
