<?xml version="1.0" encoding="UTF-8" standalone="no"?>
<svg xmlns:xlink="http://www.w3.org/1999/xlink" height="77.05px" width="45.75px" xmlns="http://www.w3.org/2000/svg">
  <g transform="matrix(1.0, 0.0, 0.0, 1.0, 22.9, 38.55)">
    <path d="M9.65 -36.8 Q12.85 -35.35 15.5 -32.65 20.65 -27.25 22.8 -16.6 23.35 -8.4 19.3 -5.75 10.5 0.3 1.15 1.1 -8.35 1.9 -18.4 -2.6 -27.05 -18.25 -19.05 -28.95 -17.1 -31.45 -14.35 -33.7 L-9.55 -36.95 Q-3.7 -38.6 1.15 -38.55 5.9 -38.4 9.65 -36.8 M-13.35 26.45 Q-15.25 24.95 -17.4 20.3 L-11.0 19.25 -3.0 27.55 Q-1.55 31.6 -4.8 33.6 -11.65 38.6 -12.8 34.95 L-11.25 30.45 Q-10.8 28.4 -13.35 26.45 M-1.9 26.5 L3.85 21.4 13.9 26.25 17.1 16.85 21.65 15.7 Q22.75 22.45 19.5 28.6 L22.05 31.75 Q24.1 34.25 20.05 34.6 16.65 35.4 11.3 31.3 11.6 34.95 8.7 38.0 6.7 39.6 3.85 36.15 L3.85 35.7 Q3.75 38.75 1.7 38.45 -2.35 37.7 -2.6 32.45 L-1.9 26.5" fill="#c7ffcb" fill-rule="evenodd" stroke="none"/>
  </g>
</svg>
