<?xml version="1.0" encoding="UTF-8" standalone="no"?>
<svg xmlns:xlink="http://www.w3.org/1999/xlink" height="43.1px" width="90.95px" xmlns="http://www.w3.org/2000/svg">
  <g transform="matrix(1.0, 0.0, 0.0, 1.0, 45.5, 21.55)">
    <path d="M38.05 -18.05 Q48.15 -6.45 44.5 5.8 39.45 2.55 36.4 -2.45 35.85 4.85 31.35 11.45 21.05 0.65 21.15 -10.3 19.2 5.25 10.7 9.7 3.95 1.75 6.8 -10.0 L5.5 -8.5 5.35 -8.35 -6.65 -0.4 Q-6.85 -11.45 4.85 -18.2 6.55 -17.0 8.85 -16.1 13.85 -14.3 21.5 -14.45 L21.95 -14.5 Q29.15 -14.3 34.2 -16.2 36.4 -17.0 38.05 -18.05 M-10.1 5.7 Q-12.05 8.65 -12.55 12.9 -12.95 16.3 -12.45 20.5 -26.0 23.85 -33.8 16.7 -48.5 1.0 -44.7 -21.55 -39.55 -12.25 -29.35 -8.8 -19.15 -6.25 -10.1 5.7" fill="#b9fac3" fill-rule="evenodd" stroke="none"/>
  </g>
</svg>
