<?xml version="1.0" encoding="UTF-8" standalone="no"?>
<svg xmlns:xlink="http://www.w3.org/1999/xlink" height="48.7px" width="39.45px" xmlns="http://www.w3.org/2000/svg">
  <g transform="matrix(1.0, 0.0, 0.0, 1.0, 19.7, 24.35)">
    <path d="M-5.15 -22.3 Q-7.4 -17.7 -7.85 -11.55 L-7.8 -10.55 -7.7 -9.8 Q-6.3 -1.9 3.85 2.85 9.4 5.45 16.5 5.8 L18.7 5.85 Q20.35 8.15 19.4 12.55 L12.05 24.35 Q5.7 16.9 -3.05 12.4 -13.85 6.7 -13.25 -2.6 L-12.85 -5.1 -12.45 -5.75 Q-21.65 -11.15 -19.2 -23.05 -13.7 -20.6 -10.35 -15.5 -10.1 -22.15 -8.1 -24.35 L-5.15 -22.3" fill="#adedbc" fill-rule="evenodd" stroke="none"/>
  </g>
</svg>
