<?xml version="1.0" encoding="UTF-8" standalone="no"?>
<svg xmlns:xlink="http://www.w3.org/1999/xlink" height="97.55px" width="82.7px" xmlns="http://www.w3.org/2000/svg">
  <g transform="matrix(1.0, 0.0, 0.0, 1.0, 41.35, 48.8)">
    <path d="M25.6 -11.15 Q34.1 -8.65 38.5 -13.65 42.25 -18.85 38.5 -24.85 33.7 -31.35 26.6 -29.55 16.7 -26.95 14.2 -14.75 17.85 0.1 11.1 10.8 13.05 12.3 13.95 14.15 16.4 19.5 13.25 30.1 10.75 39.95 14.8 40.65 23.15 40.65 27.8 27.65 32.35 11.05 21.25 7.6 26.65 -2.35 25.6 -11.15 L24.1 -11.65 M14.2 -14.75 Q3.15 -19.2 -8.05 -17.0 L-12.05 -15.95 -18.3 -13.55 Q-16.25 -4.95 -9.55 0.7 -2.45 4.15 9.35 2.4 11.45 -4.35 10.85 -13.1 M13.95 14.15 Q2.15 30.3 -19.95 30.8 -21.1 41.25 -32.45 46.75 -39.25 49.5 -40.35 44.65 -40.2 41.35 -37.5 38.2 -33.35 32.95 -33.1 25.9 L-36.75 25.05 Q-37.95 15.55 -36.05 7.85 -33.15 -3.75 -23.0 -11.05 L-22.1 -11.55 Q-30.75 -9.3 -34.0 -14.6 -36.2 -18.15 -31.15 -18.25 -38.45 -22.7 -37.2 -28.35 -36.2 -32.2 -30.8 -28.8 -34.75 -42.4 -29.85 -44.3 -27.55 -45.1 -25.3 -41.05 L-20.25 -30.7 Q-18.55 -47.1 -14.1 -47.8 -9.8 -47.65 -10.0 -40.95 -11.2 -26.05 -8.05 -17.0 M-26.1 -18.15 Q-19.2 -22.8 -22.1 -11.55 L-18.3 -13.55 M-20.25 -30.7 Q-16.5 -23.5 -12.05 -15.95 M-36.05 7.85 Q-26.4 15.3 -19.05 16.6 L-9.55 0.7 M-19.05 16.6 L-17.55 22.05 Q-8.85 21.15 -1.0 16.3 6.6 11.15 9.35 2.4 M11.1 10.8 Q7.15 17.0 -0.35 21.8 -8.15 27.15 -19.9 27.2 -19.75 29.05 -19.95 30.8 M-33.1 25.9 Q-25.95 27.2 -19.9 27.2 M-33.35 20.6 Q-25.15 22.8 -17.55 22.05" fill="none" stroke="#4d745b" stroke-linecap="round" stroke-linejoin="round" stroke-width="2.0"/>
  </g>
</svg>
