<?xml version="1.0" encoding="UTF-8" standalone="no"?>
<svg xmlns:xlink="http://www.w3.org/1999/xlink" height="9.2px" width="35.55px" xmlns="http://www.w3.org/2000/svg">
  <g transform="matrix(1.0, 0.0, 0.0, 1.0, 17.55, 85.0)">
    <path d="M-17.55 -80.35 Q-17.55 -82.15 -16.85 -83.45 -16.1 -84.75 -15.2 -84.75 -14.2 -84.75 -13.5 -83.45 -12.85 -82.15 -12.85 -80.35 -12.85 -78.55 -13.5 -77.25 -14.2 -75.95 -15.2 -75.95 -16.1 -75.95 -16.85 -77.25 -17.55 -78.55 -17.55 -80.35 M12.9 -80.35 Q12.9 -82.3 13.65 -83.65 14.4 -85.0 15.45 -85.0 16.5 -85.0 17.3 -83.65 18.0 -82.3 18.0 -80.35 18.0 -78.5 17.3 -77.15 16.5 -75.8 15.45 -75.8 14.4 -75.8 13.65 -77.15 12.9 -78.5 12.9 -80.35" fill="#000000" fill-opacity="0.6784314" fill-rule="evenodd" stroke="none"/>
  </g>
</svg>
