<?xml version="1.0" encoding="UTF-8" standalone="no"?>
<svg xmlns:xlink="http://www.w3.org/1999/xlink" height="84.45px" width="82.6px" xmlns="http://www.w3.org/2000/svg">
  <g transform="matrix(1.0, 0.0, 0.0, 1.0, 41.3, 42.25)">
    <path d="M28.8 -38.9 Q35.05 -44.95 38.1 -40.05 40.55 -34.0 32.65 -26.65 32.65 -29.5 31.3 -32.6 30.75 -33.5 30.35 -34.7 L28.8 -38.9 M19.0 -24.55 Q19.0 -21.85 16.15 -20.0 13.2 -18.0 9.1 -18.0 4.95 -18.0 2.1 -20.0 -0.85 -21.85 -0.85 -24.55 -0.85 -27.2 2.1 -29.2 4.95 -31.05 9.1 -31.05 13.2 -31.05 16.15 -29.2 19.0 -27.2 19.0 -24.55 M-17.3 -35.7 L-17.7 -32.2 Q-18.1 -25.5 -15.4 -19.85 -20.25 -19.05 -23.75 -22.35 -31.1 -29.75 -26.4 -37.25 -23.5 -41.8 -17.3 -35.7" fill="#ffe6df" fill-rule="evenodd" stroke="none"/>
    <path d="M0.05 38.5 Q4.1 29.5 7.15 30.9 10.15 33.05 5.4 42.2 L0.05 38.5 M32.65 37.95 Q30.75 34.75 31.4 29.2 38.2 23.6 40.75 27.85 42.35 30.2 39.15 32.25 35.45 34.75 32.65 37.95 M-30.4 24.0 Q-31.8 24.6 -32.0 27.5 -32.05 33.6 -35.65 35.0 -38.95 35.7 -40.9 30.7 -42.95 21.65 -35.0 17.3 -30.9 19.35 -30.4 24.0" fill="#ffe8e1" fill-rule="evenodd" stroke="none"/>
  </g>
</svg>
