<?xml version="1.0" encoding="UTF-8" standalone="no"?>
<svg xmlns:xlink="http://www.w3.org/1999/xlink" height="150.35px" width="154.35px" xmlns="http://www.w3.org/2000/svg">
  <g transform="matrix(1.0, 0.0, 0.0, 1.0, 77.15, 75.15)">
    <path d="M-65.1 30.6 L-65.1 38.1 Q-73.0 32.15 -75.2 27.0 -78.15 5.45 -72.0 -16.2 -69.55 -25.65 -65.6 -35.1 L-65.25 -35.95 Q-57.8 -54.65 -40.4 -64.15 L-37.85 -65.5 -37.05 -65.9 Q-30.65 -69.0 -23.3 -70.95 L-18.85 -72.0 -16.8 -72.5 -10.35 -73.6 -6.85 -73.95 Q0.1 -74.45 8.3 -73.8 L14.9 -73.2 23.4 -71.75 Q59.7 -62.45 68.65 -34.4 71.45 -27.5 73.1 -19.3 L73.6 -16.2 Q77.8 11.95 75.25 37.75 71.15 43.9 66.45 46.9 L67.45 27.85 Q66.3 41.95 64.15 52.6 63.3 60.95 43.45 70.05 53.3 49.95 57.8 10.5 59.0 -4.25 57.25 -16.1 55.3 -29.5 50.2 -39.45 31.95 -45.05 19.2 -41.45 3.4 -44.7 -7.0 -43.6 -17.45 -42.5 -25.3 -38.0 -31.65 -29.05 -34.4 -16.1 -36.3 -7.8 -36.45 2.3 -36.45 37.65 -20.3 74.2 -43.9 63.6 -47.6 49.3 -51.25 36.7 -52.2 24.1 -52.4 36.15 -50.5 48.1 -59.65 42.25 -62.15 39.15 -64.65 36.0 -65.1 30.6 -66.55 14.3 -65.4 6.4 M-52.2 24.1 L-52.25 23.45 Q-53.55 0.6 -50.15 -16.1 L-50.15 -16.2 Q-47.45 -30.45 -41.8 -40.5 M67.45 27.85 L67.85 20.55 67.85 19.8 67.95 18.1 68.0 16.75 68.0 16.4 68.05 16.3 68.05 16.05 68.05 15.6 68.1 15.0 Q69.1 -2.6 66.6 -16.2 64.4 -29.15 59.4 -38.55 M68.05 16.05 L68.05 16.2 68.05 16.25 68.05 16.3 68.0 16.75" fill="none" stroke="#000000" stroke-linecap="round" stroke-linejoin="round" stroke-width="2.0"/>
  </g>
</svg>
