<?xml version="1.0" encoding="UTF-8" standalone="no"?>
<svg xmlns:xlink="http://www.w3.org/1999/xlink" height="16.35px" width="107.4px" xmlns="http://www.w3.org/2000/svg">
  <g transform="matrix(1.0, 0.0, 0.0, 1.0, 53.7, 8.2)">
    <path d="M39.45 -3.1 Q39.6 -3.7 40.1 -4.3 L40.7 -5.0 41.65 -5.8 Q42.95 -6.75 44.5 -7.05 L44.55 -7.05 47.15 -6.85 Q49.0 -6.45 51.25 -4.2 53.5 -1.95 53.7 0.85 53.85 3.65 51.6 5.9 L51.15 6.35 51.05 6.4 49.95 6.75 Q48.85 7.0 47.0 5.5 L43.4 2.25 40.1 -0.95 Q39.1 -1.95 39.45 -3.1 M-37.5 -3.35 Q-36.7 -1.65 -37.25 0.25 -37.8 2.15 -40.3 4.6 -42.75 7.1 -45.75 7.95 -48.75 8.8 -51.2 6.3 L-52.15 5.2 -52.45 4.75 -52.65 4.4 Q-53.7 2.55 -53.7 0.3 -53.7 -3.2 -51.2 -5.7 -48.75 -8.2 -45.2 -8.2 -41.65 -8.2 -39.2 -5.7 L-38.15 -4.5 -37.9 -4.1 -37.5 -3.35" fill="#f7f7f7" fill-rule="evenodd" stroke="none"/>
  </g>
</svg>
