<?xml version="1.0" encoding="UTF-8" standalone="no"?>
<svg xmlns:xlink="http://www.w3.org/1999/xlink" height="142.35px" width="169.5px" xmlns="http://www.w3.org/2000/svg">
  <g transform="matrix(1.0, 0.0, 0.0, 1.0, 84.75, 71.15)">
    <path d="M68.7 -54.25 Q70.3 -42.1 61.6 -34.2 L62.45 -33.0 62.85 -32.4 63.35 -31.65 65.7 -27.85 65.95 -27.3 66.5 -26.3 Q72.9 -13.9 73.8 2.6 L73.85 2.7 Q78.55 19.15 83.3 27.75 78.55 26.4 75.65 23.15 79.9 45.4 84.75 47.05 77.65 45.15 75.0 40.2 77.15 51.7 70.35 58.05 L72.1 45.15 Q68.35 61.75 53.75 68.05 60.0 59.75 63.4 39.9 60.55 45.15 55.95 48.5 64.65 23.6 60.85 4.85 L59.25 -6.5 59.25 -7.05 58.75 -10.4 Q56.6 -22.85 52.8 -25.85 26.7 -33.15 1.6 -30.65 -15.5 -29.0 -22.95 -24.25 -30.9 -7.35 -27.0 24.15 -22.95 45.6 -15.55 51.85 -27.45 48.45 -29.95 37.75 -26.45 61.65 -17.2 71.2 -37.8 63.15 -43.7 47.25 L-41.3 59.4 Q-53.75 54.15 -59.2 44.25 -56.35 50.7 -64.9 59.45 -64.15 50.8 -67.35 40.95 -72.05 49.1 -83.85 50.95 -79.05 46.55 -76.0 36.95 -72.9 27.3 -70.9 24.05 -76.3 28.6 -84.75 29.15 -75.7 23.7 -69.8 6.85 -68.8 -2.5 -66.15 -14.05 -64.05 -23.4 -59.25 -31.0 -65.85 -36.9 -65.05 -47.65 -64.55 -53.85 -61.6 -58.95 -54.9 -69.55 -41.45 -71.1 L-37.25 -70.95 Q-26.95 -69.95 -21.3 -62.65 -19.7 -60.3 -18.9 -57.8 L-16.25 -58.4 -14.2 -58.9 -7.75 -60.0 -4.25 -60.35 Q2.7 -60.85 10.9 -60.2 L17.5 -59.6 Q22.65 -59.0 27.5 -57.6 28.05 -59.45 29.75 -61.5 37.25 -70.45 49.85 -70.75 53.85 -70.6 57.95 -69.15 67.35 -64.55 68.7 -54.25" fill="url(#gradient0)" fill-rule="evenodd" stroke="none"/>
  </g>
  <defs>
    <linearGradient gradientTransform="matrix(0.0, 0.084, -0.1035, 0.0, 0.0, 41.0)" gradientUnits="userSpaceOnUse" id="gradient0" spreadMethod="pad" x1="-819.2" x2="819.2">
      <stop offset="0.0" stop-color="#fff23c" stop-opacity="0.0"/>
      <stop offset="0.3803921568627451" stop-color="#fff23c" stop-opacity="0.84705883"/>
      <stop offset="0.6039215686274509" stop-color="#fff23c" stop-opacity="0.8"/>
      <stop offset="1.0" stop-color="#fff23c" stop-opacity="0.0"/>
    </linearGradient>
  </defs>
</svg>
