<?xml version="1.0" encoding="UTF-8" standalone="no"?>
<svg xmlns:xlink="http://www.w3.org/1999/xlink" height="196.25px" width="213.95px" xmlns="http://www.w3.org/2000/svg">
  <g transform="matrix(1.0, 0.0, 0.0, 1.0, 107.0, 98.1)">
    <path d="M58.1 14.3 Q55.05 17.0 51.1 16.3 62.6 6.2 62.2 -31.3 L61.9 -41.5 61.85 -41.6 Q60.55 -53.95 54.3 -59.7 L53.8 -60.15 Q35.3 -67.75 7.55 -65.5 -20.25 -63.25 -25.65 -55.7 -31.05 -48.2 -30.1 -37.5 -32.2 5.55 -21.25 18.7 -30.8 17.3 -32.2 9.45 -30.7 19.8 -18.25 28.4 -47.8 23.5 -50.95 -8.65 -56.9 -10.6 -58.7 1.8 -63.75 -7.3 -65.85 -16.05 -65.1 -4.15 -61.8 11.45 -53.55 51.35 -78.15 87.2 -74.4 78.65 -74.2 43.25 -75.55 51.6 -78.25 61.35 -84.8 84.25 -84.1 97.45 -98.2 72.45 -94.0 35.55 -96.8 55.15 -105.95 66.5 -97.55 45.0 -98.7 8.0 -101.6 -15.9 -98.95 -29.75 L-107.0 -7.9 Q-105.1 -44.85 -93.5 -59.55 -77.4 -77.05 -57.6 -73.6 -59.95 -74.8 -48.7 -83.45 -43.6 -87.45 -35.5 -90.4 -2.05 -104.05 33.8 -93.45 50.95 -88.2 60.55 -74.7 L61.55 -72.95 Q68.35 -75.5 77.4 -73.7 109.55 -61.4 106.7 -11.2 L99.5 -38.25 Q104.35 -18.25 100.6 21.85 96.3 67.2 101.95 90.65 88.65 69.4 90.0 47.25 L89.0 56.35 Q85.75 82.15 88.95 98.15 72.45 73.3 74.9 36.75 69.9 53.5 58.6 63.75 68.85 43.45 68.2 11.85 63.15 23.9 49.1 26.1 54.55 22.9 58.1 14.3" fill="#e5aed5" fill-rule="evenodd" stroke="none"/>
  </g>
</svg>
