<?xml version="1.0" encoding="UTF-8" standalone="no"?>
<svg xmlns:xlink="http://www.w3.org/1999/xlink" height="270.95px" width="252.45px" xmlns="http://www.w3.org/2000/svg">
  <g transform="matrix(1.0, 0.0, 0.0, 1.0, 126.25, 135.45)">
    <path d="M-38.75 -119.95 L-37.6 -120.85 Q-13.95 -137.05 12.95 -135.3 27.1 -134.6 40.0 -128.8 45.6 -126.3 50.2 -123.25 54.2 -120.55 57.5 -117.4 60.9 -114.1 63.5 -110.3 L64.55 -108.85 Q70.55 -100.15 73.55 -89.8 L79.95 -97.0 72.15 -113.9 Q81.3 -110.4 111.05 -33.6 140.75 43.05 112.25 105.7 L113.85 71.25 Q109.7 111.0 77.55 130.35 85.9 108.65 88.7 70.4 84.9 87.15 67.6 98.9 100.8 51.6 76.45 -51.3 75.4 -37.8 71.35 -27.9 67.65 -18.95 61.45 -13.0 L60.55 -12.15 61.5 -14.8 Q67.1 -32.65 66.65 -76.6 L66.65 -82.15 Q65.5 -87.3 62.85 -91.3 60.8 -94.45 57.9 -96.95 52.15 -99.3 45.5 -100.7 L37.05 -102.1 Q25.5 -103.4 11.65 -102.3 -16.15 -100.05 -21.55 -92.5 -26.95 -85.0 -28.55 -69.5 -31.3 -27.25 -24.05 -9.85 -37.8 -22.65 -42.2 -38.5 L-46.85 -45.45 Q-49.85 -46.45 -52.1 -45.35 -56.3 -39.85 -53.35 -33.25 -65.55 -42.0 -66.25 -56.0 L-68.05 -49.85 Q-88.7 22.45 -71.1 72.7 -65.2 89.9 -55.55 97.75 -79.75 90.15 -83.6 64.4 -87.4 112.95 -74.95 135.5 -117.4 102.85 -116.4 63.85 L-116.4 63.8 Q-122.05 92.35 -120.3 111.45 -133.45 68.35 -117.6 10.2 -101.75 -48.05 -72.1 -96.1 -65.95 -106.85 -61.85 -110.05 -56.8 -114.05 -53.5 -114.3 -49.75 -114.65 -48.35 -109.9 L-46.4 -112.4 -42.65 -99.5 -57.1 -82.7 -57.15 -82.65 -61.3 -71.15 -59.6 -69.2 -31.65 -96.55 -38.75 -119.95" fill="url(#gradient0)" fill-rule="evenodd" stroke="none"/>
    <path d="M50.2 -123.25 L55.1 -129.25 54.95 -129.45 65.45 -128.35 72.15 -113.9 79.95 -97.0 73.55 -89.8 Q70.55 -100.15 64.55 -108.85 L59.45 -119.75 57.5 -117.4 Q54.2 -120.55 50.2 -123.25 M-72.1 -96.1 L-74.7 -104.95 -51.35 -128.8 -51.45 -129.0 -41.15 -127.9 -38.75 -119.95 -31.65 -96.55 -59.6 -69.2 -61.3 -71.15 -57.15 -82.65 -57.1 -82.7 -42.65 -99.5 -46.4 -112.4 -48.5 -119.3 -53.5 -114.3 Q-56.8 -114.05 -61.85 -110.05 -65.95 -106.85 -72.1 -96.1" fill="#ff6666" fill-rule="evenodd" stroke="none"/>
  </g>
  <defs>
    <linearGradient gradientTransform="matrix(0.0, 0.1029, -0.1541, 0.0, 0.0, -12.1)" gradientUnits="userSpaceOnUse" id="gradient0" spreadMethod="pad" x1="-819.2" x2="819.2">
      <stop offset="0.0" stop-color="#fff23c" stop-opacity="0.0"/>
      <stop offset="0.3803921568627451" stop-color="#fff23c" stop-opacity="0.84705883"/>
      <stop offset="0.6039215686274509" stop-color="#fff23c" stop-opacity="0.8"/>
      <stop offset="1.0" stop-color="#fff23c" stop-opacity="0.0"/>
    </linearGradient>
  </defs>
</svg>
