<?xml version="1.0" encoding="UTF-8" standalone="no"?>
<svg xmlns:xlink="http://www.w3.org/1999/xlink" height="191.2px" width="179.65px" xmlns="http://www.w3.org/2000/svg">
  <g transform="matrix(1.0, 0.0, 0.0, 1.0, 89.85, 95.6)">
    <path d="M-28.8 36.2 Q-31.15 43.05 -37.0 52.35 -50.0 72.8 -38.7 95.6 -67.9 76.4 -58.6 44.65 -49.35 12.85 -51.7 -13.85 L-51.8 -15.2 -51.75 -15.3 -52.9 -25.65 Q-55.0 -23.0 -65.4 -24.0 -73.15 -23.8 -78.25 -28.9 -80.0 -31.4 -80.9 -33.95 -82.2 -37.4 -82.05 -40.95 -81.85 -45.25 -79.5 -49.7 L-79.65 -50.05 Q-89.95 -52.5 -89.85 -63.4 -87.95 -74.7 -78.05 -75.45 -80.75 -86.95 -71.05 -92.6 -60.1 -97.15 -54.5 -89.95 -47.15 -96.65 -36.45 -95.4 -27.1 -94.8 -21.55 -88.7 -17.25 -82.7 -17.7 -77.05 -13.75 -81.05 -3.45 -83.55 L-3.4 -83.6 3.45 -84.95 14.05 -85.85 Q41.2 -85.75 60.7 -76.75 65.65 -74.55 69.2 -72.0 87.15 -57.2 86.85 -27.05 86.75 -12.7 82.65 -3.75 85.85 1.1 88.55 6.95 91.25 12.75 88.15 20.75 85.0 28.7 75.6 32.4 66.15 36.1 61.85 34.5 74.7 26.5 75.95 17.8 77.15 9.1 75.55 0.65 79.85 -15.95 75.05 -29.5 70.15 -43.1 62.05 -52.1 28.5 -63.35 3.65 -56.55 -15.55 -27.8 -13.75 -4.15 -12.0 19.5 -13.95 29.05 -15.95 38.65 -25.3 47.6 -23.65 41.5 -24.2 37.05 -24.15 46.4 -35.15 51.7 -30.25 46.3 -28.8 36.2" fill="#7bd0ff" fill-rule="evenodd" stroke="none"/>
  </g>
</svg>
