<?xml version="1.0" encoding="UTF-8" standalone="no"?>
<svg xmlns:xlink="http://www.w3.org/1999/xlink" height="50.65px" width="71.95px" xmlns="http://www.w3.org/2000/svg">
  <g transform="matrix(1.0, 0.0, 0.0, 1.0, 67.9, 64.65)">
    <path d="M-7.25 -58.35 Q0.3 -58.95 3.05 -51.4 L3.05 -50.1 -1.35 -50.05 -5.05 -49.8 Q-3.75 -54.2 -7.25 -58.35 M-28.4 -45.9 L-29.9 -45.45 Q-36.65 -43.1 -42.35 -39.5 -46.4 -41.75 -45.25 -49.65 L-44.9 -51.35 Q-43.1 -57.85 -36.35 -58.85 -28.85 -59.0 -27.6 -57.45 -29.6 -54.4 -30.25 -50.15 -30.7 -47.9 -28.4 -45.9 M-53.3 -30.5 L-54.35 -29.35 Q-57.35 -26.05 -59.75 -22.55 L-61.2 -22.95 Q-62.4 -23.7 -63.05 -24.6 -65.55 -27.5 -64.15 -31.85 -63.35 -35.1 -57.6 -36.85 -57.2 -33.7 -54.6 -31.1 L-53.3 -30.5" fill="#ffffff" fill-rule="evenodd" stroke="none"/>
    <path d="M-5.05 -49.8 Q-18.2 -48.9 -28.4 -45.9 -30.7 -47.9 -30.25 -50.15 -29.6 -54.4 -27.6 -57.45 -25.9 -60.1 -23.3 -61.7 -17.6 -65.35 -11.7 -62.2 -8.95 -60.35 -7.25 -58.35 -3.75 -54.2 -5.05 -49.8 M-42.35 -39.5 Q-48.4 -35.7 -53.3 -30.5 L-54.6 -31.1 Q-57.2 -33.7 -57.6 -36.85 -58.15 -39.8 -56.5 -43.2 -51.4 -51.25 -45.25 -49.65 -46.4 -41.75 -42.35 -39.5 M-59.75 -22.55 Q-62.3 -18.9 -64.15 -15.0 -66.0 -16.05 -66.8 -17.75 -67.5 -21.65 -63.05 -24.6 -62.4 -23.7 -61.2 -22.95 L-59.75 -22.55" fill="#ffa8d8" fill-rule="evenodd" stroke="none"/>
  </g>
</svg>
