<?xml version="1.0" encoding="UTF-8" standalone="no"?>
<svg xmlns:xlink="http://www.w3.org/1999/xlink" height="29.35px" width="119.05px" xmlns="http://www.w3.org/2000/svg">
  <g transform="matrix(1.0, 0.0, 0.0, 1.0, 50.1, 49.85)">
    <path d="M65.4 -27.9 L63.0 -22.55 Q60.45 -25.6 57.5 -27.7 L57.35 -27.9 55.5 -29.85 Q63.0 -30.95 67.6 -34.4 L65.4 -27.9 M68.7 -40.45 L68.4 -38.2 Q61.95 -38.3 55.05 -40.35 L55.15 -40.45 Q61.1 -44.95 68.15 -47.15 L68.8 -47.25 Q69.1 -43.95 68.7 -40.45 M-48.3 -20.5 Q-50.95 -31.25 -49.75 -40.05 L-49.25 -43.0 Q-48.65 -45.8 -47.6 -48.4 L-47.0 -49.85 -42.65 -48.4 Q-39.85 -47.2 -36.3 -45.15 -29.55 -41.35 -25.8 -36.25 -35.2 -23.55 -48.3 -20.5" fill="#f5ccdc" fill-rule="evenodd" stroke="none"/>
  </g>
</svg>
