<?xml version="1.0" encoding="UTF-8" standalone="no"?>
<svg xmlns:xlink="http://www.w3.org/1999/xlink" height="204.6px" width="173.05px" xmlns="http://www.w3.org/2000/svg">
  <g transform="matrix(1.0, 0.0, 0.0, 1.0, 86.55, 102.3)">
    <path d="M27.6 -24.4 Q30.65 -30.3 35.05 -36.6 44.5 -50.25 51.85 -61.75 59.2 -73.3 66.65 -92.9 68.15 -89.65 67.65 -85.7 67.15 -81.8 70.3 -88.1 70.95 -82.8 70.55 -76.5 72.2 -53.75 68.85 -38.0 66.75 -21.7 60.25 -8.65 L63.2 -7.0 Q62.85 -5.0 59.5 -2.85 57.8 -1.8 56.2 -1.45 M-46.8 -2.7 L-47.2 -3.75 -49.35 -10.0 Q-53.45 -22.4 -55.2 -33.85 -54.9 -64.85 -49.15 -96.1 -47.9 -97.7 -45.95 -93.1 -46.1 -98.9 -45.85 -101.3 -29.85 -86.25 -21.1 -63.5 -13.45 -43.6 -16.6 -18.05 L-14.7 -18.75 Q-14.25 -15.7 -14.55 -13.65 L-15.05 -11.95 Q-16.1 -9.7 -17.45 -8.55 -15.0 -9.3 -11.5 -6.7 -12.25 -3.7 -15.4 -2.15 -21.75 2.05 -31.8 4.5 -36.0 -2.55 -38.75 -10.25 -43.65 -24.1 -43.95 -40.15 -44.3 -65.1 -41.35 -84.9 L-41.1 -86.2 M22.5 -12.35 L22.35 -11.8 M38.55 -8.75 Q41.15 -12.15 43.0 -16.35 46.85 -26.85 52.4 -45.8 57.95 -64.75 65.25 -71.8 M43.0 -16.35 Q47.3 -19.05 57.8 -18.1 56.1 -12.85 52.0 -9.9 L56.95 -9.6 60.25 -8.65 M-38.75 -10.25 Q-38.4 -14.8 -34.25 -17.4 -30.1 -20.05 -26.95 -21.75 -25.85 -16.95 -26.2 -13.2 L-26.3 -12.65 -25.6 -13.3 Q-24.05 -14.75 -21.2 -16.25 L-16.6 -18.05 M-42.95 6.85 L-46.8 -2.7" fill="none" stroke="#000000" stroke-linecap="round" stroke-linejoin="round" stroke-width="2.0"/>
    <path d="M56.2 -1.45 Q64.1 0.75 71.35 0.25 66.35 7.45 54.25 8.85 63.85 13.75 69.5 26.9 75.4 43.3 85.5 50.05 77.7 50.8 72.1 47.2 78.05 60.6 70.15 71.9 73.2 79.2 80.15 86.3 70.35 85.0 68.2 79.65 68.8 90.45 60.7 98.75 60.5 98.1 61.1 92.4 58.9 95.45 53.85 99.65 59.85 87.85 58.75 62.85 58.25 53.0 56.65 47.75 56.15 26.35 46.75 23.9 L45.6 23.6 Q23.1 20.0 20.05 30.1 11.75 18.85 -22.7 20.65 L-25.0 21.2 Q-32.5 29.4 -29.55 46.15 -31.3 47.2 -33.75 55.75 -36.25 64.25 -31.0 80.05 -25.75 95.8 -21.45 101.3 -31.95 96.85 -39.1 86.05 -36.9 95.55 -34.15 99.7 -45.7 93.75 -52.6 76.6 -56.15 70.95 -60.35 75.6 -63.45 80.25 -61.45 85.4 -65.25 77.9 -66.45 68.2 -69.85 75.6 -81.35 79.35 -76.35 73.35 -74.3 59.5 -73.45 49.95 -71.1 44.4 -75.05 50.5 -85.55 53.55 -76.25 48.15 -71.45 33.45 -66.7 21.45 -60.6 16.5 -68.65 22.2 -78.1 19.8 -70.3 18.4 -61.85 8.5 -54.5 -0.25 -46.8 -2.7 M-47.2 -3.75 Q-54.7 -5.75 -58.55 -12.55 -54.2 -10.6 -49.35 -10.0 M-14.55 -13.65 Q-9.4 -13.05 -4.75 -10.9 -2.8 -17.7 10.15 -20.45 L27.6 -24.4 33.15 -25.8 Q29.05 -16.3 22.5 -12.35 L21.35 -11.7 22.35 -11.8 Q29.3 -12.4 38.55 -8.75 L41.5 -7.5 Q49.1 -3.4 56.2 -1.45 M21.35 -11.7 Q19.45 -10.75 17.35 -10.2 M54.25 8.85 L50.4 9.1 M69.7 45.35 Q70.85 46.4 72.1 47.2 M67.8 62.65 Q68.2 67.3 70.15 71.9 M61.1 92.4 L62.5 90.0 Q65.7 84.5 65.25 75.55 M-60.6 16.5 L-58.1 14.45 M-71.1 44.4 Q-70.25 43.1 -69.7 41.65 M-52.6 76.6 Q-56.55 67.75 -56.45 59.65 M-66.45 68.2 Q-64.45 63.75 -63.9 61.9 M-39.1 86.05 Q-46.1 75.2 -47.35 63.85" fill="none" stroke="#123751" stroke-linecap="round" stroke-linejoin="round" stroke-width="2.0"/>
  </g>
</svg>
