<?xml version="1.0" encoding="UTF-8" standalone="no"?>
<svg xmlns:xlink="http://www.w3.org/1999/xlink" height="147.15px" width="183.4px" xmlns="http://www.w3.org/2000/svg">
  <g transform="matrix(1.0, 0.0, 0.0, 1.0, 91.7, 73.55)">
    <path d="M-27.45 -56.75 Q-21.75 -63.75 -9.05 -66.6 7.3 -67.7 15.85 -73.55 12.3 -67.1 4.35 -62.75 35.25 -64.3 50.4 -49.6 60.8 -37.1 76.4 -32.75 74.5 -29.65 67.35 -30.65 L74.4 -20.65 Q78.15 -19.8 82.65 -20.5 79.95 -12.85 70.25 -13.0 82.4 -7.95 91.7 -14.95 86.55 1.3 69.3 3.8 72.6 6.2 75.25 11.55 80.95 23.05 87.05 24.45 80.4 26.85 75.85 25.4 L82.05 27.75 Q79.0 30.05 74.3 31.0 L68.55 31.6 Q69.3 38.7 72.75 44.7 75.35 49.0 79.4 52.65 71.05 52.25 67.7 48.5 69.6 53.9 71.75 56.55 65.25 55.25 62.55 50.3 64.6 47.45 63.95 35.9 62.75 30.7 63.65 27.35 65.2 11.4 56.05 -6.1 L56.15 -2.65 Q53.05 -6.15 43.55 -10.95 34.0 -15.8 29.15 -19.05 35.4 -13.35 35.1 -8.8 25.6 -15.25 8.2 -21.75 15.7 -17.1 16.75 -12.45 10.8 -15.9 0.75 -18.25 -6.7 -19.95 -6.3 -22.7 -10.9 -8.55 -25.45 -0.15 L-18.4 -15.6 Q-22.45 -7.45 -29.75 1.6 -31.7 23.35 -27.0 35.95 -22.3 48.6 -8.9 54.25 -19.45 55.9 -24.85 51.0 -19.55 57.85 -15.95 59.65 L-22.15 59.3 Q-15.35 62.05 -8.55 63.05 -10.95 66.3 -17.7 66.2 -15.55 70.05 -17.95 73.6 -19.6 69.5 -23.0 65.0 -23.45 69.55 -27.45 72.15 -29.85 65.5 -37.0 61.8 -40.1 65.3 -47.4 66.4 -44.75 64.15 -44.45 59.35 L-50.8 62.35 -49.15 59.8 -45.4 55.95 -40.35 58.65 -40.2 54.15 Q-44.7 50.55 -47.25 46.1 -55.55 33.6 -56.3 19.7 L-58.4 21.55 Q-63.55 26.1 -68.15 27.7 -77.4 30.95 -84.5 22.25 -76.05 23.75 -72.0 8.9 L-71.85 5.95 Q-86.25 6.05 -91.7 -3.35 -76.45 -2.5 -66.5 -15.65 -76.6 -12.45 -80.7 -22.1 -73.3 -20.6 -66.4 -30.8 -60.7 -38.5 -50.8 -37.6 -57.1 -44.5 -43.95 -55.35 -33.35 -62.4 -28.15 -69.7 -25.15 -63.85 -27.45 -56.75 M-56.95 53.0 L-51.15 53.0 -50.45 55.45 Q-53.0 58.2 -62.4 58.5 L-56.95 53.0" fill="url(#gradient0)" fill-rule="evenodd" stroke="none"/>
  </g>
  <defs>
    <linearGradient gradientTransform="matrix(0.0, 0.0987, -0.1119, 0.0, 0.0, 64.5)" gradientUnits="userSpaceOnUse" id="gradient0" spreadMethod="pad" x1="-819.2" x2="819.2">
      <stop offset="0.0" stop-color="#fff23c" stop-opacity="0.0"/>
      <stop offset="0.3803921568627451" stop-color="#fff23c" stop-opacity="0.84705883"/>
      <stop offset="0.6039215686274509" stop-color="#fff23c" stop-opacity="0.8"/>
      <stop offset="1.0" stop-color="#fff23c" stop-opacity="0.0"/>
    </linearGradient>
  </defs>
</svg>
