<?xml version="1.0" encoding="UTF-8" standalone="no"?>
<svg xmlns:xlink="http://www.w3.org/1999/xlink" height="132.7px" width="133.3px" xmlns="http://www.w3.org/2000/svg">
  <g transform="matrix(1.0, 0.0, 0.0, 1.0, 66.65, 66.35)">
    <path d="M52.8 59.85 L50.0 65.35 Q54.0 62.95 56.5 59.55 65.4 45.3 65.25 17.75 L65.3 17.45 65.65 7.6 Q65.4 -24.15 53.2 -41.45 35.85 -63.9 3.6 -65.25 -38.15 -67.1 -56.1 -36.9 L-59.1 -30.5 Q-69.35 -7.2 -63.5 19.8 L-62.8 21.05 Q-50.2 13.05 -46.55 50.3 L-44.5 41.8 Q-44.4 52.65 -38.4 56.3 -38.65 52.2 -37.75 47.8 L-34.3 58.7 -23.9 63.85 Q-33.65 20.65 -26.05 -3.55 -26.9 -9.75 -25.2 -14.05 -14.0 -32.6 12.9 -33.3 43.7 -32.35 55.45 -15.3 56.4 -10.15 55.75 -5.25 59.5 3.8 59.0 15.85 L58.0 39.8 Q56.9 51.65 52.8 59.85 L50.6 61.7 Q52.1 58.0 50.35 55.2 49.35 59.85 47.6 61.8 44.75 63.3 41.5 62.95 L45.4 54.15 Q53.7 48.7 58.0 39.8" fill="none" stroke="#000000" stroke-linecap="round" stroke-linejoin="round" stroke-width="2.0"/>
  </g>
</svg>
