<?xml version="1.0" encoding="UTF-8" standalone="no"?>
<svg xmlns:xlink="http://www.w3.org/1999/xlink" height="147.0px" width="182.3px" xmlns="http://www.w3.org/2000/svg">
  <g transform="matrix(1.0, 0.0, 0.0, 1.0, 91.15, 73.5)">
    <path d="M59.65 -70.05 Q62.6 -73.5 66.45 -72.7 68.55 -72.35 70.95 -70.6 75.25 -67.3 75.85 -58.55 85.35 -59.35 83.05 -50.35 84.45 -49.9 85.3 -49.15 88.65 -46.6 85.35 -40.85 L85.45 -40.8 Q86.65 -37.4 83.85 -33.6 L83.85 -33.55 Q91.35 -29.1 77.65 -22.9 88.1 -11.35 90.45 12.4 92.1 29.0 89.85 40.15 L89.85 40.2 Q88.35 58.05 76.15 61.85 81.55 51.7 80.9 29.45 76.25 18.3 74.9 7.15 50.3 -1.75 38.85 -11.55 23.05 -0.6 -9.2 5.85 -12.7 19.05 -17.35 27.45 -21.0 45.8 -14.0 60.2 -20.2 59.4 -22.4 53.55 -19.85 63.0 -12.55 71.95 -19.4 70.15 -24.4 67.05 -36.95 73.95 -40.5 73.45 -38.45 71.4 -38.3 68.95 -43.6 70.25 -49.6 69.7 -48.15 69.25 -47.0 68.25 -50.8 62.95 -47.55 58.1 L-51.45 58.4 Q-61.35 64.35 -74.4 64.35 -96.9 63.75 -89.15 36.4 -86.6 61.35 -58.4 57.8 -60.9 57.3 -63.2 56.45 -56.8 54.95 -52.8 49.4 -62.05 45.05 -65.6 39.8 -54.8 41.2 -48.65 35.3 L-48.65 35.2 Q-55.0 4.6 -40.25 -13.95 L-41.9 -13.65 -50.45 -11.8 Q-57.1 -10.35 -61.45 -10.2 L-63.85 -10.35 Q-65.1 -4.85 -58.3 -4.7 -51.5 -4.55 -42.2 -12.75 -47.6 2.8 -64.05 -0.85 -71.1 -3.8 -68.3 -12.1 -69.75 -13.5 -69.85 -15.8 -71.1 -17.8 -71.75 -20.35 L-72.35 -23.3 Q-63.8 -31.3 -67.15 -42.95 L-63.1 -44.0 Q-64.8 -48.7 -62.35 -52.65 -61.05 -55.0 -58.45 -57.1 -53.35 -60.9 -45.0 -58.15 L-45.0 -58.1 Q-42.45 -65.45 -38.55 -65.8 -36.25 -66.05 -33.45 -63.6 L-31.1 -65.85 Q-29.85 -66.75 -28.65 -66.85 -25.75 -67.2 -23.0 -62.6 L-22.9 -62.65 -22.85 -62.65 Q-20.6 -62.8 -17.35 -59.25 L-17.35 -59.3 -17.25 -59.1 -17.15 -59.0 -17.2 -59.0 -16.65 -57.85 -16.6 -57.85 -16.25 -55.6 Q-16.0 -51.9 -16.9 -47.9 -16.75 -40.7 -17.2 -35.5 5.5 -47.1 34.25 -43.2 11.8 -55.85 30.2 -69.35 25.0 -54.6 35.85 -43.0 L40.45 -42.25 Q27.4 -60.9 34.7 -65.25 36.45 -68.3 39.9 -70.8 49.45 -65.55 57.4 -73.5 L59.65 -70.05 M77.6 -23.0 Q77.35 -24.1 76.05 -24.55 L77.6 -23.0 M71.25 -28.3 L71.3 -28.3 75.45 -25.1 Q83.15 -28.3 82.4 -32.4 77.8 -29.15 70.85 -28.6 L70.8 -28.6 71.25 -28.3" fill="url(#gradient0)" fill-rule="evenodd" stroke="none"/>
  </g>
  <defs>
    <linearGradient gradientTransform="matrix(0.0, 0.1059, -0.1113, 0.0, 0.0, 87.1)" gradientUnits="userSpaceOnUse" id="gradient0" spreadMethod="pad" x1="-819.2" x2="819.2">
      <stop offset="0.0" stop-color="#fff23c" stop-opacity="0.0"/>
      <stop offset="0.3803921568627451" stop-color="#fff23c" stop-opacity="0.84705883"/>
      <stop offset="0.6039215686274509" stop-color="#fff23c" stop-opacity="0.8"/>
      <stop offset="1.0" stop-color="#fff23c" stop-opacity="0.0"/>
    </linearGradient>
  </defs>
</svg>
