<?xml version="1.0" encoding="UTF-8" standalone="no"?>
<svg xmlns:xlink="http://www.w3.org/1999/xlink" height="142.6px" width="180.7px" xmlns="http://www.w3.org/2000/svg">
  <g transform="matrix(1.0, 0.0, 0.0, 1.0, 90.35, 71.3)">
    <path d="M26.15 -58.55 L24.15 -56.4 26.15 -58.55 Q37.75 -62.7 45.25 -56.9 65.05 -39.95 75.8 -48.9 71.55 -39.65 64.5 -38.15 76.35 -28.9 76.4 -18.15 75.8 -10.5 69.15 -4.25 78.45 13.8 89.35 13.35 83.4 16.25 76.7 16.2 79.3 19.6 80.0 25.55 81.15 37.0 71.8 40.55 73.55 46.4 81.6 48.75 74.25 52.25 65.55 48.9 66.55 53.4 72.65 55.65 67.45 56.2 61.85 52.2 56.95 57.85 57.9 63.45 51.0 60.85 53.8 55.15 61.2 44.05 59.6 33.1 58.75 22.75 61.1 10.95 61.05 -3.45 53.3 -15.35 27.9 -23.15 16.85 -30.95 L16.8 -31.0 Q-0.45 -20.35 -31.75 -12.4 -46.8 15.7 -41.2 39.1 -40.0 43.15 -34.05 46.65 -38.0 50.75 -42.15 50.2 -39.35 55.85 -27.05 62.65 -28.1 69.65 -32.4 70.3 -31.9 68.6 -32.85 63.95 -47.7 68.4 -53.65 55.0 -59.35 61.55 -73.35 57.15 -67.7 55.8 -65.75 52.9 -79.95 50.05 -81.15 38.8 -82.8 30.15 -75.65 23.85 -85.85 24.75 -86.35 13.4 -78.3 20.5 -74.9 8.7 -76.0 3.1 -75.0 -2.8 -80.45 2.6 -89.35 1.45 -73.25 -1.45 -69.4 -23.7 -63.85 -42.8 -46.25 -44.1 -38.5 -59.6 -19.65 -62.05 -0.8 -64.5 23.85 -65.0 27.8 -64.85 32.4 -70.3 33.85 -63.55 26.15 -58.55 M-74.0 12.25 L-74.9 8.7 -74.0 12.25 M-65.4 46.55 Q-64.1 50.3 -65.75 52.9 -64.1 50.3 -65.4 46.55 M-52.35 53.1 L-53.65 55.0 -52.35 53.1 M-47.25 46.95 Q-62.85 38.0 -60.85 18.05 -62.85 38.0 -47.25 46.95 M71.65 33.35 Q70.95 37.5 71.8 40.55 70.95 37.5 71.65 33.35 M73.85 13.65 Q75.45 14.55 76.7 16.2 75.45 14.55 73.85 13.65 M56.4 -43.6 L64.5 -38.15 56.4 -43.6" fill="url(#gradient0)" fill-rule="evenodd" stroke="none"/>
  </g>
  <defs>
    <linearGradient gradientTransform="matrix(0.0, 0.1013, -0.1091, 0.0, 0.0, 71.5)" gradientUnits="userSpaceOnUse" id="gradient0" spreadMethod="pad" x1="-819.2" x2="819.2">
      <stop offset="0.0" stop-color="#fff23c" stop-opacity="0.0"/>
      <stop offset="0.3803921568627451" stop-color="#fff23c" stop-opacity="0.84705883"/>
      <stop offset="0.6039215686274509" stop-color="#fff23c" stop-opacity="0.8"/>
      <stop offset="1.0" stop-color="#fff23c" stop-opacity="0.0"/>
    </linearGradient>
  </defs>
</svg>
