<?xml version="1.0" encoding="UTF-8" standalone="no"?>
<svg xmlns:xlink="http://www.w3.org/1999/xlink" height="151.5px" width="176.35px" xmlns="http://www.w3.org/2000/svg">
  <g transform="matrix(1.0, 0.0, 0.0, 1.0, 0.0, 75.75)">
    <path d="M72.0 -54.65 Q75.8 -50.95 74.45 -47.75 L72.05 -47.25 Q72.35 -51.1 72.0 -54.65 M45.85 -22.55 Q52.4 -22.1 56.9 -24.65 61.9 -18.95 73.75 -17.6 L72.6 -21.55 76.45 -19.45 Q76.95 -25.05 72.6 -31.5 80.6 -34.85 83.7 -40.95 95.05 -42.1 104.55 -40.05 121.75 -50.7 139.45 -59.85 L145.65 -62.95 Q148.85 -49.65 147.2 -45.3 L147.1 -45.25 144.9 -44.4 Q146.55 -45.9 147.0 -49.8 141.95 -47.9 136.9 -43.35 L136.85 -41.1 Q136.95 -32.2 132.6 -23.95 137.35 -20.2 142.25 -16.7 L146.9 -15.65 Q157.0 -14.0 165.7 -17.15 162.65 -7.15 151.5 0.7 161.55 10.85 176.35 17.1 168.05 32.2 152.05 37.2 156.1 53.1 170.15 67.6 156.95 69.55 148.7 62.6 151.05 69.15 156.3 75.75 141.65 69.6 142.35 57.6 141.2 34.3 138.6 25.6 L135.9 16.3 Q131.6 -0.1 126.0 -3.85 L100.0 -8.15 Q81.05 -8.25 64.1 -2.8 46.05 11.85 53.25 35.55 45.25 33.7 44.05 25.8 38.5 40.35 44.05 55.0 18.35 48.95 19.5 25.6 10.0 26.5 0.0 22.1 8.15 18.75 14.6 11.45 18.6 -10.95 31.25 -25.25 39.05 -44.45 54.0 -64.35 58.25 -70.05 63.1 -75.75 62.85 -70.6 68.15 -61.75 L69.8 -58.85 68.3 -58.0 67.3 -63.05 Q58.4 -58.0 55.6 -48.0 L50.75 -47.9 Q46.5 -47.55 42.65 -46.25 L44.2 -44.55 42.1 -44.55 Q43.45 -40.6 49.5 -36.95 44.2 -30.35 42.65 -23.75 L47.05 -25.85 45.85 -22.55" fill="#356485" fill-rule="evenodd" stroke="none"/>
  </g>
</svg>
