<?xml version="1.0" encoding="UTF-8" standalone="no"?>
<svg xmlns:xlink="http://www.w3.org/1999/xlink" height="164.75px" width="183.6px" xmlns="http://www.w3.org/2000/svg">
  <g transform="matrix(1.0, 0.0, 0.0, 1.0, 91.8, 82.4)">
    <path d="M68.1 20.0 L70.45 22.3 74.9 25.35 Q79.15 27.9 84.7 30.4 L78.45 17.9 Q73.25 6.9 69.2 -4.1 L75.05 -4.1 Q83.65 -4.55 90.8 -7.35 L75.85 -23.05 Q69.45 -31.1 59.95 -34.45 75.05 -44.15 78.2 -59.75 68.15 -54.45 49.2 -60.9 27.8 -66.65 8.7 -56.65 L8.1 -53.2 M74.9 25.35 L69.9 33.3 Q72.15 61.9 64.65 81.35 57.35 74.6 56.45 68.75 65.8 60.7 66.2 54.35 66.6 47.95 65.4 39.35 69.5 19.95 63.65 7.85 58.5 -3.9 47.95 -15.75 52.15 -10.5 52.9 -6.45 L52.9 -6.2 Q53.15 -4.75 52.9 -3.4 38.9 -10.75 18.35 -17.45 24.8 -14.35 24.95 -9.5 10.05 -15.55 -11.85 -19.1 -6.2 -15.85 -6.95 -11.1 -14.15 -15.15 -24.8 -17.7 -33.45 -9.7 -36.05 2.9 -22.75 40.25 -31.9 80.55 L-37.85 70.6 Q-46.05 72.6 -54.2 70.95 -50.15 67.1 -46.65 57.55 -51.2 54.15 -52.8 51.6 -54.55 51.8 -56.25 50.85 -55.15 49.35 -54.45 45.65 -56.3 48.05 -62.6 46.85 L-59.15 43.45 Q-83.95 37.05 -90.8 6.95 L-78.8 -7.25 Q-68.4 -20.1 -60.05 -26.05 -58.65 -34.1 -52.3 -43.8 -49.6 -50.2 -50.7 -56.35 -43.6 -52.35 -41.05 -42.65 -34.75 -49.9 -23.75 -55.15 0.65 -67.6 3.55 -81.4 10.3 -69.7 8.7 -56.65 M69.9 33.3 L70.45 22.3 M78.45 17.9 L81.9 9.5 Q77.5 2.25 75.05 -4.1 M63.65 7.85 Q67.3 -11.65 56.85 -27.85 M-54.95 -29.2 L-60.05 -26.05 M-40.2 -38.15 Q-40.5 -40.5 -41.05 -42.65 M-52.8 51.6 L-50.7 50.85 M-57.95 10.0 Q-55.05 40.3 -37.85 70.6" fill="none" stroke="#000000" stroke-linecap="round" stroke-linejoin="round" stroke-width="2.0"/>
  </g>
</svg>
