<?xml version="1.0" encoding="UTF-8" standalone="no"?>
<svg xmlns:xlink="http://www.w3.org/1999/xlink" height="183.55px" width="146.05px" xmlns="http://www.w3.org/2000/svg">
  <g transform="matrix(1.0, 0.0, 0.0, 1.0, 73.0, 91.75)">
    <path d="M-66.3 -44.2 Q-67.85 -47.4 -68.2 -49.3 -69.2 -52.05 -63.1 -56.05 -64.0 -57.3 -64.0 -58.1 -64.3 -59.5 -60.45 -60.85 -60.15 -68.85 -51.15 -69.65 -49.75 -76.65 -41.25 -76.6 -39.85 -79.3 -37.65 -79.2 -34.7 -84.6 -30.2 -82.9 -8.35 -88.7 16.7 -84.05 22.35 -86.2 28.1 -91.75 28.35 -86.0 24.55 -81.5 39.7 -77.0 47.85 -64.2 59.05 -45.95 61.05 -24.45 62.4 -10.75 61.0 4.35 59.55 19.65 60.35 36.5 60.3 54.7 67.05 62.45 73.0 68.5 73.05 74.65 72.35 85.1 61.05 89.6 L63.3 81.55 Q60.75 88.25 52.9 89.8 47.9 92.4 45.5 91.6 56.35 81.1 45.15 69.6 38.75 62.95 37.35 52.8 L32.05 60.0 Q32.45 45.9 37.9 36.45 40.6 35.15 42.85 33.6 59.6 22.45 52.6 0.4 54.0 -28.65 46.15 -51.75 9.15 -60.3 -36.5 -46.95 -38.8 -28.6 -30.7 1.3 -19.05 34.95 -23.3 59.65 -25.9 66.1 -32.65 72.55 -40.5 82.3 -30.15 91.6 -43.65 90.95 -47.7 81.5 L-45.95 89.35 Q-61.6 82.75 -56.95 69.3 -56.2 67.85 -54.15 65.65 -50.45 61.9 -48.75 58.05 -45.95 49.6 -45.1 40.5 -51.1 47.8 -58.9 49.85 L-58.95 49.85 -58.9 49.8 Q-41.4 23.95 -56.2 4.25 -61.1 -0.9 -65.85 3.2 -71.65 -4.05 -72.95 -13.9 -73.35 -21.9 -69.85 -33.05 -69.7 -34.9 -69.15 -36.7 -67.55 -42.95 -66.3 -44.2" fill="#a96da8" fill-rule="evenodd" stroke="none"/>
  </g>
</svg>
