<?xml version="1.0" encoding="UTF-8" standalone="no"?>
<svg xmlns:xlink="http://www.w3.org/1999/xlink" height="43.1px" width="39.75px" xmlns="http://www.w3.org/2000/svg">
  <g transform="matrix(1.0, 0.0, 0.0, 1.0, 19.85, 21.55)">
    <path d="M-15.7 12.15 L-16.8 11.35 Q-20.6 8.2 -18.1 -0.05 -15.6 -8.3 -9.25 -14.0 -7.45 -17.8 -4.35 -20.8 -1.4 -18.45 9.75 -18.3 10.4 -15.2 11.8 -11.95 24.95 4.35 14.6 6.75 15.05 14.05 10.5 16.55 10.6 20.0 6.9 20.8 5.55 18.8 5.6 16.8 3.05 16.35 2.05 13.55 1.4 15.1 -0.75 15.6 -0.75 20.05 -1.85 20.2 -5.0 18.2 -6.35 15.6 -9.5 14.85 -10.9 12.0 L-11.25 12.4 Q-10.55 15.95 -11.7 17.4 -15.25 14.8 -15.7 12.15 -13.0 13.9 -11.25 12.4 M2.05 13.55 Q3.1 11.15 3.1 8.15 M10.5 16.55 L9.85 16.85 Q7.75 17.15 5.6 16.8 M-11.15 7.05 Q-11.4 9.0 -10.9 12.0 M-0.75 15.6 Q-2.85 16.1 -6.35 15.6 M12.45 -0.9 Q14.0 3.25 14.6 6.75" fill="none" stroke="#000000" stroke-linecap="round" stroke-linejoin="round" stroke-width="1.5"/>
  </g>
</svg>
