<?xml version="1.0" encoding="UTF-8" standalone="no"?>
<svg xmlns:xlink="http://www.w3.org/1999/xlink" height="17.8px" width="23.0px" xmlns="http://www.w3.org/2000/svg">
  <g transform="matrix(1.0, 0.0, 0.0, 1.0, 11.5, 8.9)">
    <path d="M-4.4 -3.55 L-5.55 -7.45 -5.7 -8.2 Q-3.1 -9.75 -1.2 -7.8 L-3.2 -0.75 -4.4 -3.55 M-7.0 3.1 L-6.45 8.75 Q-10.3 5.95 -11.5 3.1 -9.65 4.1 -7.0 3.1 M1.55 3.25 Q1.5 6.1 2.0 8.9 -1.85 7.4 -3.45 4.4 -1.25 5.35 1.55 3.25 M10.9 3.55 L11.5 8.9 Q8.45 6.9 6.65 3.5 8.65 4.6 10.9 3.55" fill="#c956b5" fill-rule="evenodd" stroke="none"/>
  </g>
</svg>
