<?xml version="1.0" encoding="UTF-8" standalone="no"?>
<svg xmlns:xlink="http://www.w3.org/1999/xlink" height="49.6px" width="50.2px" xmlns="http://www.w3.org/2000/svg">
  <g transform="matrix(1.0, 0.0, 0.0, 1.0, 0.75, 24.8)">
    <path d="M6.25 7.65 Q2.25 9.3 0.0 11.8 0.8 2.5 5.15 -5.65 L12.65 -7.75 11.55 -3.1 Q8.35 -0.9 6.3 1.8 6.05 4.75 6.25 7.65 6.05 4.75 6.3 1.8 8.35 -0.9 11.55 -3.1 L12.65 -7.75 Q14.9 -13.0 25.25 -19.35 L24.55 -20.2 Q25.0 -22.4 26.7 -23.5 35.35 -25.3 43.35 -21.1 43.75 -19.45 42.95 -17.75 42.0 -16.9 40.65 -16.85 L40.7 -15.65 42.35 -17.3 Q45.95 -12.9 48.7 -7.85 47.3 1.75 41.2 7.15 41.4 2.8 39.05 -3.35 38.45 2.35 34.6 5.6 33.7 14.75 34.65 23.95 26.75 18.05 24.5 12.1 L24.5 11.85 Q21.15 15.4 20.85 24.05 16.85 18.95 15.45 12.2 12.25 17.7 9.95 23.8 6.65 15.8 6.25 7.65 M7.35 -4.65 L11.65 -6.75 7.35 -4.65 M40.65 -16.85 L40.65 -18.15 Q32.6 -21.35 25.55 -19.5 L25.25 -19.35 25.55 -19.5 Q32.6 -21.35 40.65 -18.15 L40.65 -16.85 M39.05 -3.35 L37.95 -6.0 Q37.55 -11.8 40.7 -15.65 37.55 -11.8 37.95 -6.0 L39.05 -3.35 M11.55 -3.1 L14.2 -4.7 Q13.7 -0.95 14.95 3.85 L14.75 4.2 Q14.7 8.5 15.45 12.2 14.7 8.5 14.75 4.2 L14.95 3.85 Q13.7 -0.95 14.2 -4.7 L11.55 -3.1 M41.5 -7.85 Q41.4 -12.85 42.35 -17.3 41.4 -12.85 41.5 -7.85 M14.95 3.85 Q17.3 0.4 21.25 -3.3 21.95 0.85 24.0 5.85 L24.5 11.85 24.0 5.85 Q21.95 0.85 21.25 -3.3 17.3 0.4 14.95 3.85 M33.4 22.25 Q29.15 14.3 28.25 7.65 29.15 14.3 33.4 22.25 M34.6 5.6 L34.65 4.85 30.15 -4.55 Q26.55 0.85 24.0 5.85 26.55 0.85 30.15 -4.55 L34.65 4.85 34.6 5.6 M27.95 5.6 Q28.25 1.6 29.9 -2.85 28.25 1.6 27.95 5.6 M18.05 5.2 Q19.05 0.8 20.7 -2.1 19.05 0.8 18.05 5.2 M0.65 9.85 Q2.7 1.85 6.45 -3.45 2.7 1.85 0.65 9.85 M9.05 2.55 L13.1 -3.35 9.05 2.55 M41.85 5.7 Q43.35 2.1 41.95 -5.8 43.35 2.1 41.85 5.7 M20.2 22.35 Q17.35 13.9 17.85 6.1 17.35 13.9 20.2 22.35 M9.85 21.85 Q7.95 12.3 8.9 3.55 7.95 12.3 9.85 21.85" fill="#512a46" fill-rule="evenodd" stroke="none"/>
    <path d="M12.65 -7.75 L5.15 -5.65 Q0.8 2.5 0.0 11.8 2.25 9.3 6.25 7.65 6.05 4.75 6.3 1.8 8.35 -0.9 11.55 -3.1 L12.65 -7.75 Q14.9 -13.0 25.25 -19.35 L24.55 -20.2 Q25.0 -22.4 26.7 -23.5 35.35 -25.3 43.35 -21.1 43.75 -19.45 42.95 -17.75 42.0 -16.9 40.65 -16.85 L40.7 -15.65 42.35 -17.3 Q45.95 -12.9 48.7 -7.85 47.3 1.75 41.2 7.15 41.4 2.8 39.05 -3.35 38.45 2.35 34.6 5.6 33.7 14.75 34.65 23.95 26.75 18.05 24.5 12.1 L24.5 11.85 Q21.15 15.4 20.85 24.05 16.85 18.95 15.45 12.2 12.25 17.7 9.95 23.8 6.65 15.8 6.25 7.65 M15.45 12.2 Q14.7 8.5 14.75 4.2 L14.95 3.85 Q13.7 -0.95 14.2 -4.7 L11.55 -3.1 M40.7 -15.65 Q37.55 -11.8 37.95 -6.0 L39.05 -3.35 M25.25 -19.35 L25.55 -19.5 Q32.6 -21.35 40.65 -18.15 L40.65 -16.85 M24.5 11.85 L24.0 5.85 Q21.95 0.85 21.25 -3.3 17.3 0.4 14.95 3.85 M24.0 5.85 Q26.55 0.85 30.15 -4.55 L34.65 4.85 34.6 5.6" fill="none" stroke="#000000" stroke-linecap="round" stroke-linejoin="round" stroke-width="1.5"/>
    <path d="M11.65 -6.75 L7.35 -4.65 M42.35 -17.3 Q41.4 -12.85 41.5 -7.85 M28.25 7.65 Q29.15 14.3 33.4 22.25 M8.9 3.55 Q7.95 12.3 9.85 21.85 M17.85 6.1 Q17.35 13.9 20.2 22.35 M41.95 -5.8 Q43.35 2.1 41.85 5.7 M13.1 -3.35 L9.05 2.55 M6.45 -3.45 Q2.7 1.85 0.65 9.85 M20.7 -2.1 Q19.05 0.8 18.05 5.2 M29.9 -2.85 Q28.25 1.6 27.95 5.6" fill="none" stroke="#000000" stroke-linecap="round" stroke-linejoin="round" stroke-opacity="0.65882355" stroke-width="1.0"/>
  </g>
</svg>
