<?xml version="1.0" encoding="UTF-8" standalone="no"?>
<svg xmlns:xlink="http://www.w3.org/1999/xlink" height="14.2px" width="18.0px" xmlns="http://www.w3.org/2000/svg">
  <g transform="matrix(1.0, 0.0, 0.0, 1.0, 9.0, 7.35)">
    <path d="M0.45 -0.75 L0.75 -0.45 0.75 0.7 0.7 0.9 0.45 1.0 -0.65 1.0 -0.9 0.9 -0.95 0.7 -0.95 -0.45 -0.9 -0.65 -0.65 -0.75 0.45 -0.75 M3.9 -0.75 L4.25 -0.45 4.25 0.7 4.15 0.9 3.9 1.0 2.8 1.0 2.55 0.9 2.5 0.7 2.5 -0.45 2.55 -0.65 2.8 -0.75 3.9 -0.75 M-3.0 -0.75 Q-2.7 -0.75 -2.7 -0.45 L-2.7 0.7 -2.75 0.9 -3.0 1.0 -4.1 1.0 -4.35 0.9 -4.4 0.7 -4.4 -0.45 -4.35 -0.65 -4.1 -0.75 -3.0 -0.75" fill="#d3dfff" fill-rule="evenodd" stroke="none"/>
    <path d="M-3.5 -6.6 L3.55 -6.6 Q5.5 -6.6 6.85 -5.25 8.25 -3.85 8.25 -1.9 L8.25 -1.2 Q8.25 0.7 6.85 2.1 5.5 3.5 3.55 3.5 L1.4 3.5 -0.05 6.1 -1.6 3.5 -3.5 3.5 Q-5.5 3.5 -6.85 2.1 -8.25 0.7 -8.25 -1.2 L-8.25 -1.9 Q-8.25 -3.85 -6.85 -5.25 -5.5 -6.6 -3.5 -6.6 Z" fill="none" stroke="#d3dfff" stroke-linecap="round" stroke-linejoin="round" stroke-width="1.5"/>
  </g>
</svg>
