<?xml version="1.0" encoding="UTF-8" standalone="no"?>
<svg xmlns:xlink="http://www.w3.org/1999/xlink" height="31.3px" width="35.1px" xmlns="http://www.w3.org/2000/svg">
  <g transform="matrix(1.0, 0.0, 0.0, 1.0, 17.55, 15.65)">
    <path d="M-7.95 1.7 L-7.7 1.0 10.65 -14.9 11.5 -15.4 12.4 -15.55 16.65 -15.65 17.4 -15.35 17.55 -14.65 16.9 -10.55 16.5 -9.55 15.9 -8.9 -2.35 7.0 Q-2.7 7.35 -3.15 7.3 -3.6 7.3 -3.8 6.95 L-4.8 5.85 -5.05 5.15 -4.75 4.4 10.65 -8.85 10.85 -9.25 10.7 -9.6 10.35 -9.75 10.0 -9.65 -5.35 3.6 -6.15 3.85 Q-6.6 3.8 -6.85 3.5 L-7.75 2.4 Q-8.1 2.15 -7.95 1.7 M-11.85 0.8 L-2.8 11.15 -2.6 11.85 -2.75 14.8 -3.1 15.4 -3.75 15.65 -4.4 15.3 -4.6 14.65 -4.4 12.1 -6.85 9.25 -9.35 10.5 -9.65 10.65 -10.1 10.35 Q-10.4 9.6 -10.85 9.1 -11.4 8.5 -12.0 8.25 L-12.15 7.6 -12.0 7.3 -10.45 5.15 -12.9 2.25 -15.55 2.1 -16.1 1.7 -16.35 1.1 -16.05 0.5 -15.35 0.3 -12.4 0.5 Q-12.0 0.5 -11.85 0.8 M-15.45 9.4 L-14.3 9.25 -13.15 9.55 Q-12.55 9.85 -12.25 10.3 -11.85 10.7 -11.6 11.3 -11.4 11.85 -11.45 12.5 -11.5 13.7 -12.5 14.55 -13.0 14.95 -13.55 15.15 L-14.8 15.25 -15.85 15.0 -16.75 14.25 Q-17.6 13.25 -17.55 12.1 L-17.2 10.9 -16.5 10.0 -15.45 9.4" fill="#5c6176" fill-rule="evenodd" stroke="none"/>
  </g>
</svg>
