<?xml version="1.0" encoding="UTF-8" standalone="no"?>
<svg xmlns:xlink="http://www.w3.org/1999/xlink" height="15.75px" width="15.5px" xmlns="http://www.w3.org/2000/svg">
  <g transform="matrix(1.0, 0.0, 0.0, 1.0, 7.75, 7.9)">
    <path d="M-7.75 0.75 L-7.75 -0.85 -7.75 -1.0 -7.6 -1.65 -7.6 -1.75 -6.45 -1.75 -6.4 -1.75 -5.7 -3.3 -5.7 -3.35 -6.45 -4.2 -6.45 -4.25 Q-5.65 -5.7 -4.2 -6.55 L-4.15 -6.55 -3.35 -5.85 -3.3 -5.85 -1.7 -6.45 -1.65 -6.5 -1.6 -7.65 -0.4 -7.85 -0.4 -7.9 0.7 -7.9 0.75 -7.9 1.75 -7.65 1.8 -7.65 1.85 -6.55 3.35 -5.85 3.4 -5.85 4.25 -6.55 4.3 -6.55 Q5.75 -5.7 6.65 -4.3 L6.65 -4.25 5.95 -3.4 5.9 -3.4 6.55 -1.8 6.55 -1.75 7.7 -1.65 7.75 -1.65 7.75 1.6 7.7 1.65 6.55 1.7 6.55 1.8 5.9 3.35 5.95 3.4 6.65 4.2 Q5.75 5.7 4.3 6.55 L4.25 6.5 3.4 5.8 3.35 5.8 1.85 6.5 1.85 6.55 1.8 7.6 1.75 7.6 0.75 7.75 0.75 7.85 0.7 7.85 -0.4 7.85 -0.4 7.8 -1.6 7.6 -1.6 7.55 -1.65 6.4 -1.7 6.4 -3.3 5.8 -3.35 5.85 -4.15 6.55 -4.2 6.5 Q-5.65 5.65 -6.45 4.2 L-5.7 3.3 -5.7 3.25 -6.4 1.7 -6.45 1.7 -7.6 1.65 -7.6 1.6 -7.75 0.75 M3.1 0.05 Q3.1 -1.3 2.2 -2.15 1.3 -3.05 0.05 -3.05 -1.2 -3.05 -2.1 -2.15 -3.0 -1.3 -3.0 0.0 -3.0 1.25 -2.1 2.1 -1.2 3.05 0.05 3.05 1.3 3.05 2.2 2.1 3.1 1.25 3.1 0.05" fill="#d3dfff" fill-rule="evenodd" stroke="none"/>
  </g>
</svg>
