<?xml version="1.0" encoding="UTF-8" standalone="no"?>
<svg xmlns:xlink="http://www.w3.org/1999/xlink" height="18.65px" width="19.95px" xmlns="http://www.w3.org/2000/svg">
  <g transform="matrix(1.0, 0.0, 0.0, 1.0, 9.95, 9.35)">
    <path d="M5.7 6.95 L5.7 7.1 5.55 5.8 5.7 6.95" fill="#434343" fill-rule="evenodd" stroke="none"/>
    <path d="M-8.95 -0.1 L-7.35 -0.3 -5.2 -1.9 Q-4.85 -2.25 -4.2 -3.85 -4.8 -4.75 -3.0 -8.35 2.0 -6.4 9.0 -6.25 L8.1 -3.0 Q7.65 -1.7 6.65 -1.5 L6.05 -0.05 5.9 0.65 Q5.65 2.35 5.55 4.15 L5.45 6.85 Q2.0 6.4 -1.05 8.3 L-1.3 6.9 -1.5 5.8 -1.7 5.7 -1.95 5.6 Q-3.9 4.95 -5.25 5.2 L-7.35 5.55 Q-7.3 2.45 -8.95 -0.1" fill="none" stroke="#000000" stroke-linecap="round" stroke-linejoin="round" stroke-width="2.0"/>
    <path d="M-4.2 -3.85 Q0.55 -1.05 6.65 -1.5" fill="none" stroke="#000000" stroke-linecap="round" stroke-linejoin="round" stroke-width="1.0"/>
  </g>
</svg>
