<?xml version="1.0" encoding="UTF-8" standalone="no"?>
<svg xmlns:xlink="http://www.w3.org/1999/xlink" height="23.8px" width="27.45px" xmlns="http://www.w3.org/2000/svg">
  <g transform="matrix(1.0, 0.0, 0.0, 1.0, 13.7, 11.9)">
    <path d="M-0.7 -6.3 L-0.15 -10.9 Q6.4 -8.35 12.75 -8.3 L10.1 -4.0 9.5 -2.55 9.35 -1.85 9.0 1.65 8.8 6.15 Q8.7 8.85 8.15 9.8 7.65 10.65 5.8 10.9 4.25 11.05 3.25 8.9 2.5 6.95 2.15 4.4 L1.95 3.3 1.75 3.2 1.5 3.1 0.4 3.9 -1.25 5.5 Q-2.8 7.0 -4.65 7.15 -6.45 7.35 -6.4 6.15 -6.35 4.9 -5.25 3.2 L-8.15 3.45 Q-12.95 3.0 -12.7 -0.7 L-3.9 -2.8 Q-2.75 -3.45 -1.75 -4.4 -1.4 -4.75 -0.75 -6.35 M-5.25 3.2 L-1.8 2.7 1.5 3.1" fill="none" stroke="#000000" stroke-linecap="round" stroke-linejoin="round" stroke-width="2.0"/>
    <path d="M-0.75 -6.35 L-0.7 -6.3 Z" fill="none" stroke="#000000" stroke-linecap="round" stroke-linejoin="round" stroke-width="1.0"/>
  </g>
</svg>
