<?xml version="1.0" encoding="UTF-8" standalone="no"?>
<svg xmlns:xlink="http://www.w3.org/1999/xlink" height="15.6px" width="15.85px" xmlns="http://www.w3.org/2000/svg">
  <g transform="matrix(1.0, 0.0, 0.0, 1.0, 7.9, 7.8)">
    <path d="M2.35 -0.35 Q10.1 -0.4 7.1 4.7 4.25 8.8 1.6 3.85 1.35 9.65 -4.1 6.9 -9.9 3.85 -3.05 0.85 -8.45 1.95 -7.85 -2.7 -7.15 -5.35 -3.95 -5.0 -4.1 -6.7 -1.25 -7.65 2.2 -8.2 2.7 -6.7 7.3 -7.15 6.45 -3.3 5.85 -0.95 2.35 -0.35 L1.8 -1.4 0.85 -1.85 0.6 -1.9 0.45 -1.9 -0.35 -1.6 -0.7 -1.4 -1.0 -0.9 -1.1 -0.4 -1.2 -0.1 -1.2 0.1 -0.85 0.95 -0.7 1.1 -0.35 1.35 0.6 1.65 Q1.2 1.65 1.65 1.2 L1.8 1.1 2.3 0.3 2.35 -0.1 2.35 -0.35" fill="#f8f6f7" fill-rule="evenodd" stroke="none"/>
  </g>
</svg>
