<?xml version="1.0" encoding="UTF-8" standalone="no"?>
<svg xmlns:xlink="http://www.w3.org/1999/xlink" height="8.65px" width="19.1px" xmlns="http://www.w3.org/2000/svg">
  <g transform="matrix(1.0, 0.0, 0.0, 1.0, 9.55, 5.4)">
    <path d="M7.45 -2.75 L7.3 -2.8 Q4.0 -4.55 2.15 -4.55 -1.1 -4.0 -5.3 -2.1 L-4.65 -1.7 -7.55 -1.65 -1.3 1.1 Q2.95 3.05 6.6 0.3 L7.85 -0.65 9.5 -1.6 9.15 -1.4 Q8.25 -0.75 7.45 0.3 L7.4 0.3 7.35 0.35 7.35 0.4 7.15 0.6 5.2 2.45 Q4.05 3.2 2.8 3.25 -1.0 3.25 -2.95 2.0 L-3.85 1.4 Q-5.35 0.35 -6.85 -0.5 L-7.0 -0.65 -7.3 -0.8 Q-8.6 -1.35 -9.35 -1.95 L-9.4 -2.0 -9.4 -2.05 -9.55 -2.1 -8.4 -2.0 -7.55 -1.65 -7.65 -1.95 -7.5 -2.1 Q-7.05 -2.8 -6.1 -2.7 L-5.05 -2.85 1.75 -5.4 Q4.85 -5.3 7.4 -3.6 8.25 -3.0 9.2 -2.6 L9.45 -2.55 9.5 -2.2 8.55 -2.2 7.15 -2.45 7.45 -2.75" fill="#000000" fill-opacity="0.14901961" fill-rule="evenodd" stroke="none"/>
    <path d="M6.85 -0.05 Q7.35 -0.75 6.65 -0.95 6.5 -0.95 6.5 -0.85 6.2 -0.35 6.65 -0.05 L6.75 0.0 6.55 0.15 5.45 0.85 Q3.4 1.95 1.15 1.55 L-0.9 0.95 -1.3 0.7 Q-1.45 0.4 0.05 0.7 L3.55 0.25 Q5.55 -0.4 6.5 -1.05 L7.05 -1.55 Q7.7 -0.9 6.85 -0.05 M5.45 0.55 Q5.95 0.3 5.9 -0.25 5.2 0.3 4.0 0.55 2.9 0.85 3.75 0.8 L4.7 0.8 5.45 0.55" fill="#ffffff" fill-opacity="0.10980392" fill-rule="evenodd" stroke="none"/>
    <path d="M6.75 0.0 L6.65 -0.05 Q6.2 -0.35 6.5 -0.85 6.5 -0.95 6.65 -0.95 7.35 -0.75 6.85 -0.05 L6.75 0.0 M5.45 0.55 L4.7 0.8 3.75 0.8 Q2.9 0.85 4.0 0.55 5.2 0.3 5.9 -0.25 5.95 0.3 5.45 0.55" fill="#ffdede" fill-opacity="0.32941177" fill-rule="evenodd" stroke="none"/>
  </g>
</svg>
