<?xml version="1.0" encoding="UTF-8" standalone="no"?>
<svg xmlns:xlink="http://www.w3.org/1999/xlink" height="11.7px" width="16.15px" xmlns="http://www.w3.org/2000/svg">
  <g transform="matrix(1.0, 0.0, 0.0, 1.0, 7.45, 7.5)">
    <path d="M-7.45 -2.05 Q-1.35 1.15 -1.95 -0.9 -2.5 -3.25 -1.0 -5.4 L-1.2 -4.2 Q-1.2 -3.05 -0.65 -2.15 3.35 -3.65 4.2 -0.2 L4.95 -0.4 Q5.6 1.5 8.6 -1.0 L8.7 -0.35 Q8.85 1.05 7.65 2.95 6.35 4.8 3.95 3.95 L-0.95 3.8 -5.3 3.65 Q-7.75 2.85 -7.2 0.45 -7.15 -0.9 -7.45 -2.05" fill="#000000" fill-opacity="0.14901961" fill-rule="evenodd" stroke="none"/>
    <path d="M3.5 -7.5 Q4.05 -7.5 4.5 -7.05 4.9 -6.6 4.9 -5.95 4.9 -5.25 4.5 -4.75 4.05 -4.35 3.5 -4.35 2.95 -4.35 2.55 -4.75 2.15 -5.25 2.15 -5.95 2.15 -6.6 2.55 -7.05 2.95 -7.5 3.5 -7.5" fill="#ffffff" fill-opacity="0.76862746" fill-rule="evenodd" stroke="none"/>
  </g>
</svg>
