<?xml version="1.0" encoding="UTF-8" standalone="no"?>
<svg xmlns:xlink="http://www.w3.org/1999/xlink" height="9.4px" width="35.1px" xmlns="http://www.w3.org/2000/svg">
  <g transform="matrix(1.0, 0.0, 0.0, 1.0, 0.5, 4.7)">
    <path d="M29.1 -0.15 L20.0 -1.1 Q10.6 -2.05 0.6 -4.05 L0.0 -4.2 Q0.25 -2.85 2.6 -0.75 L2.9 -0.45 Q8.6 3.6 17.25 4.2 L21.4 4.1 Q29.15 3.45 32.3 -0.25 L34.1 -0.55 M29.1 -0.15 L32.3 -0.25" fill="none" stroke="#000000" stroke-linecap="round" stroke-linejoin="round" stroke-width="1.0"/>
    <path d="M0.6 -4.05 Q2.8 -2.45 7.1 -1.25 10.65 -0.25 15.6 0.45 L20.6 1.05 Q27.95 1.65 29.1 -0.15 M2.6 -0.75 L7.1 -1.25 M21.4 4.1 Q19.25 1.5 15.6 0.45" fill="none" stroke="#000000" stroke-linecap="round" stroke-linejoin="round" stroke-width="0.5"/>
  </g>
</svg>
