<?xml version="1.0" encoding="UTF-8" standalone="no"?>
<svg xmlns:xlink="http://www.w3.org/1999/xlink" height="6.45px" width="8.25px" xmlns="http://www.w3.org/2000/svg">
  <g transform="matrix(1.0, 0.0, 0.0, 1.0, 3.65, 4.25)">
    <path d="M3.35 0.45 Q2.5 1.3 0.6 1.5 -3.85 2.05 -2.9 -1.35 -2.7 -2.1 -2.2 -2.55 L-1.45 -3.05 Q2.5 -2.3 3.35 0.45" fill="#ec839a" fill-rule="evenodd" stroke="none"/>
    <path d="M-1.45 -3.05 L-0.05 -3.6 1.45 -3.65 Q3.75 -3.5 4.0 -1.7 L3.9 -0.7 3.35 0.45 Q2.5 -2.3 -1.45 -3.05" fill="#4f2628" fill-rule="evenodd" stroke="none"/>
    <path d="M-1.45 -3.05 L-0.05 -3.6 1.45 -3.65 Q3.75 -3.5 4.0 -1.7 L3.9 -0.7 3.35 0.45 Q2.5 1.3 0.6 1.5 -3.85 2.05 -2.9 -1.35 -2.7 -2.1 -2.2 -2.55 L-1.45 -3.05 Z" fill="none" stroke="#000000" stroke-linecap="round" stroke-linejoin="round" stroke-width="1.2000000000000002"/>
  </g>
</svg>
