<?xml version="1.0" encoding="UTF-8" standalone="no"?>
<svg xmlns:xlink="http://www.w3.org/1999/xlink" height="7.6px" width="12.85px" xmlns="http://www.w3.org/2000/svg">
  <g transform="matrix(1.0, 0.0, 0.0, 1.0, 6.4, 4.0)">
    <path d="M-3.0 -2.65 L-0.75 -3.4 1.65 -3.4 Q5.45 -3.2 5.85 -1.05 L5.65 0.25 4.8 1.75 Q3.4 -1.7 -3.0 -2.65" fill="#4f2628" fill-rule="evenodd" stroke="none"/>
    <path d="M4.8 1.75 Q3.45 2.75 0.2 2.9 -7.0 3.5 -5.55 -0.5 -5.15 -1.45 -4.25 -2.0 -3.7 -2.45 -3.0 -2.65 3.4 -1.7 4.8 1.75" fill="#ec839a" fill-rule="evenodd" stroke="none"/>
    <path d="M-3.0 -2.65 L-0.75 -3.4 1.65 -3.4 Q5.45 -3.2 5.85 -1.05 L5.65 0.25 4.8 1.75 Q3.45 2.75 0.2 2.9 -7.0 3.5 -5.55 -0.5 -5.15 -1.45 -4.25 -2.0 -3.7 -2.45 -3.0 -2.65 Z" fill="none" stroke="#000000" stroke-linecap="round" stroke-linejoin="round" stroke-width="1.2000000000000002"/>
  </g>
</svg>
