<?xml version="1.0" encoding="UTF-8" standalone="no"?>
<svg xmlns:xlink="http://www.w3.org/1999/xlink" height="11.3px" width="14.2px" xmlns="http://www.w3.org/2000/svg">
  <g transform="matrix(1.0, 0.0, 0.0, 1.0, 7.15, 5.65)">
    <path d="M-0.05 -5.0 L-0.9 -2.65 -1.6 -0.45 -3.9 -2.8 Q-2.45 -4.75 -0.05 -5.0" fill="#ffffff" fill-rule="evenodd" stroke="none"/>
    <path d="M-0.9 -2.65 L-0.05 -5.0 1.0 -5.05 Q5.8 -4.05 6.45 3.2 L5.6 3.85 Q4.25 -1.05 -0.9 -2.65" fill="#7b2a3c" fill-rule="evenodd" stroke="none"/>
    <path d="M-3.9 -2.8 L-1.6 -0.45 -0.9 -2.65 Q4.25 -1.05 5.6 3.85 4.2 4.55 0.55 5.0 -6.0 5.3 -6.55 3.6 -5.75 -0.65 -3.9 -2.8" fill="#ec839a" fill-rule="evenodd" stroke="none"/>
    <path d="M-0.9 -2.65 L-0.05 -5.0 M-3.9 -2.8 L-1.6 -0.45 -0.9 -2.65" fill="none" stroke="#000000" stroke-linecap="round" stroke-linejoin="round" stroke-width="0.5"/>
    <path d="M-0.05 -5.0 Q-2.45 -4.75 -3.9 -2.8 -5.75 -0.65 -6.55 3.6 -6.0 5.3 0.55 5.0 4.2 4.55 5.6 3.85 L6.45 3.2 Q5.8 -4.05 1.0 -5.05 L-0.05 -5.0" fill="none" stroke="#000000" stroke-linecap="round" stroke-linejoin="round" stroke-width="1.2000000000000002"/>
  </g>
</svg>
