<?xml version="1.0" encoding="UTF-8" standalone="no"?>
<svg xmlns:xlink="http://www.w3.org/1999/xlink" height="14.9px" width="26.15px" xmlns="http://www.w3.org/2000/svg">
  <g transform="matrix(1.0, 0.0, 0.0, 1.0, 13.1, 7.45)">
    <path d="M11.55 2.35 L11.3 0.9 10.15 0.7 9.35 0.7 8.4 0.35 8.2 0.25 Q2.65 -3.2 -4.05 -5.05 -7.5 -5.4 -9.85 -3.5 L-11.7 -1.45 -12.2 -0.65 Q-12.8 0.6 -12.6 1.9 L-12.5 2.35 Q-12.5 3.1 -10.95 4.3 -9.35 5.5 -6.55 5.95 L2.4 6.95 7.75 6.8 10.25 6.5 11.15 5.65 Q11.65 4.05 11.55 2.35 M-7.25 -7.0 Q-9.05 -6.9 -9.85 -5.65 M12.6 4.55 Q12.6 2.95 11.95 1.65 L11.3 0.9" fill="none" stroke="#000000" stroke-linecap="round" stroke-linejoin="round" stroke-width="0.9"/>
    <path d="M-12.2 -0.65 L-9.65 -1.35 -6.85 1.25 -3.35 0.05 -1.35 2.15 2.2 1.25 4.1 3.1 6.9 2.05 8.75 3.9 11.55 2.35 Z" fill="none" stroke="#000000" stroke-linecap="round" stroke-linejoin="round" stroke-opacity="0.54901963" stroke-width="0.5"/>
  </g>
</svg>
