<?xml version="1.0" encoding="UTF-8" standalone="no"?>
<svg xmlns:xlink="http://www.w3.org/1999/xlink" height="172.35px" width="135.95px" xmlns="http://www.w3.org/2000/svg">
  <g transform="matrix(1.0, 0.0, 0.0, 1.0, 68.0, 86.2)">
    <path d="M65.35 3.05 Q63.85 5.8 52.8 1.35 46.25 -1.3 36.25 -6.45 L27.75 -11.0 Q21.3 -14.5 13.75 -18.85 -2.5 -29.4 -20.55 -35.0 -34.15 -37.35 -32.45 -26.9 -28.8 -17.85 -15.15 -17.5 L-12.0 -16.9 -3.65 -14.8 -2.35 -14.45 -2.05 -14.35 -1.05 -14.05 4.5 -12.15 7.9 -10.85 11.4 -9.35 15.8 -7.3 Q24.55 -2.95 33.65 0.3 L36.35 1.25 40.8 2.65 Q49.35 5.2 58.1 6.85 L66.9 7.6 Q66.5 5.45 65.35 3.05 L64.2 1.15 Q31.2 -23.25 -4.95 -42.65 -18.65 -49.95 -32.45 -52.9 -40.95 -53.1 -40.3 -46.25 -40.1 -38.25 -25.7 -36.55 L-20.55 -35.0 M-6.25 -1.8 Q-16.05 -2.45 -16.95 3.3 -15.25 8.25 -5.75 9.45 L-2.8 9.8 47.45 15.95 63.65 16.9 Q65.7 14.9 66.5 12.6 L62.7 12.5 62.3 12.45 Q50.3 11.8 36.7 8.7 L32.85 7.75 31.6 7.45 30.2 7.1 20.4 4.2 Q10.4 1.3 0.6 -0.6 L-6.25 -1.8 -12.25 -2.65 Q-23.75 -4.1 -23.7 -11.8 -23.0 -16.85 -12.0 -16.9 M-2.8 9.8 Q-10.0 10.15 -9.5 14.3 -9.05 15.95 -7.5 17.2 L-7.4 17.3 Q-5.55 18.8 -1.95 19.75 L1.75 20.45 2.95 20.6 34.85 21.9 36.95 21.9 49.45 21.75 53.45 21.6 54.35 21.5 Q57.3 21.0 59.6 19.85 61.45 18.95 62.9 17.55 L63.65 16.9 M66.5 12.6 Q67.3 10.2 66.9 7.6 M54.35 21.5 L50.8 24.75 50.4 25.0 42.55 31.5 41.9 32.0 Q29.05 41.85 14.3 49.6 2.9 57.3 5.0 59.55 6.55 62.1 10.65 60.8 L11.9 60.35 Q43.45 43.1 60.0 20.3 L59.6 19.85 M19.3 73.35 L20.3 72.85 Q26.95 68.9 33.45 64.05 50.65 50.9 57.4 38.8 63.1 28.35 61.2 22.6 50.4 47.6 14.0 68.95 8.55 72.6 9.3 75.3 12.5 77.2 19.3 73.35 8.8 79.55 -2.2 83.3 -15.75 88.15 -19.65 81.05 -16.6 79.7 -12.6 72.55 L-8.6 59.5 Q-6.9 52.15 8.95 46.0 L9.25 45.85 9.45 45.7 Q31.8 33.75 49.45 21.75 M61.2 22.6 Q60.75 21.25 60.0 20.3 M-1.5 20.15 L0.6 20.4 2.95 20.6 -1.5 20.15 Q-17.6 18.05 -31.15 11.0 L-31.6 10.75 -31.85 10.6 -32.1 10.45 Q-32.3 10.3 -32.55 10.2 L-32.75 10.05 Q-48.75 1.25 -59.85 -21.55 -70.95 -44.25 -65.0 -69.15 -62.95 -77.95 -55.8 -85.3 -57.0 -69.1 -52.35 -62.35 -47.6 -55.55 -37.8 -53.95 L-32.45 -52.9 M9.25 45.85 Q5.95 48.3 7.15 50.75 9.1 52.3 12.9 50.3 L14.3 49.6 M10.65 60.8 Q4.85 66.4 4.35 70.55 5.55 73.65 11.0 70.8 L14.0 68.95" fill="none" stroke="#000000" stroke-linecap="round" stroke-linejoin="round" stroke-width="1.8"/>
  </g>
</svg>
