<?xml version="1.0" encoding="UTF-8" standalone="no"?>
<svg xmlns:xlink="http://www.w3.org/1999/xlink" height="158.05px" width="125.0px" xmlns="http://www.w3.org/2000/svg">
  <g transform="matrix(1.0, 0.0, 0.0, 1.0, 62.5, 79.05)">
    <path d="M61.75 13.05 Q60.65 9.35 59.25 6.0 51.3 -12.5 32.5 -21.85 14.7 -30.05 -1.4 -34.6 -17.55 -39.15 -33.35 -49.05 -49.25 -58.95 -60.55 -78.3 -66.4 -40.2 -43.55 -12.8 -20.7 14.5 14.45 14.5 29.35 10.7 45.45 11.35 L47.3 11.4 47.4 11.4 47.7 11.45 48.25 11.5 48.6 11.5 61.75 13.05 61.3 17.25 Q62.55 43.7 23.7 63.1 -18.25 84.0 -55.45 76.1 -47.4 73.3 -28.0 48.6 -12.8 27.0 2.15 19.0 7.3 16.25 14.45 14.5" fill="none" stroke="#000000" stroke-linecap="round" stroke-linejoin="round" stroke-opacity="0.5568628" stroke-width="1.5"/>
  </g>
</svg>
