<?xml version="1.0" encoding="UTF-8" standalone="no"?>
<svg xmlns:xlink="http://www.w3.org/1999/xlink" height="164.6px" width="112.7px" xmlns="http://www.w3.org/2000/svg">
  <g transform="matrix(1.0, 0.0, 0.0, 1.0, 56.35, 82.3)">
    <path d="M0.45 -20.75 L1.65 -44.6 Q10.65 -39.6 13.95 -17.3 15.4 -7.15 3.75 -19.65 2.45 -23.3 0.45 -20.75 M6.6 -9.25 Q9.65 -10.1 11.2 -6.1 12.4 -2.85 9.7 -0.2 7.8 -4.95 6.6 -9.25 M5.5 -34.95 L4.65 -35.65 Q4.15 -35.65 3.8 -34.95 3.45 -34.25 3.45 -33.2 3.45 -32.15 3.8 -31.45 4.15 -30.7 4.65 -30.7 5.15 -30.7 5.5 -31.45 5.85 -32.15 5.85 -33.2 5.85 -34.25 5.5 -34.95 M-2.55 -53.2 Q4.45 -63.85 6.7 -75.6 8.4 -70.2 5.95 -57.95 3.45 -45.8 -2.7 -50.65 L-2.55 -53.2 M24.6 -15.05 L25.15 -13.5 24.9 -12.55 Q24.55 -12.25 23.95 -12.55 23.15 -12.95 22.65 -13.85 21.8 -15.0 21.65 -16.3 21.45 -17.6 21.95 -17.75 22.5 -17.95 23.35 -17.1 L24.6 -15.05 M-19.0 -69.0 L-19.95 -68.7 -20.3 -67.95 Q-20.3 -67.45 -19.95 -67.15 L-19.0 -66.85 Q-18.4 -66.85 -18.05 -67.15 -17.6 -67.45 -17.6 -67.9 -17.6 -68.4 -18.05 -68.7 -18.4 -69.0 -19.0 -69.0 M-24.45 -73.2 Q-22.45 -65.8 -25.4 -62.8 -28.05 -60.15 -34.4 -60.75 L-31.75 -64.65 Q-25.9 -64.1 -27.4 -70.1 L-25.4 -72.2 -24.45 -73.2 M-6.9 -28.5 Q-3.0 3.5 -8.0 8.75 -14.9 16.25 -25.4 1.85 L-28.65 -2.9 Q-33.75 -11.35 -41.8 -13.65 -33.4 -49.95 -28.4 -57.75 -27.0 -59.9 -25.4 -60.55 -21.4 -62.3 -16.4 -53.95 -8.45 -41.1 -6.9 -28.5 M-11.55 -77.0 Q-13.0 -76.55 -14.5 -75.3 -16.05 -74.1 -16.75 -72.8 -17.55 -71.6 -17.2 -71.05 -16.75 -70.55 -15.3 -71.05 -13.95 -71.5 -12.45 -72.7 -10.85 -73.9 -10.1 -75.2 -9.35 -76.4 -9.75 -76.95 L-11.55 -77.0 M35.2 12.75 Q22.55 19.05 18.95 12.15 11.2 -0.7 15.95 -2.1 20.7 -3.55 25.7 -1.6 30.7 0.25 36.05 -5.75 41.9 -9.45 49.25 -20.3 51.4 -16.95 52.9 -13.3 56.55 -4.5 56.35 5.55 54.6 1.1 52.9 -1.55 45.9 -12.25 38.95 4.75 37.1 9.4 35.2 12.75 M-13.6 -55.4 Q-18.25 -60.1 -21.8 -68.6 -20.85 -76.9 -7.4 -80.85 0.4 -82.75 6.6 -82.2 5.4 -73.0 -0.75 -60.3 -6.55 -48.55 -13.6 -55.4 M-41.35 -65.4 L-36.65 -70.25 Q-27.85 -78.3 -25.9 -78.05 -37.35 -66.55 -41.35 -65.4 M-41.1 -59.8 L-41.6 -58.7 Q-43.5 -54.15 -45.05 -52.55 -45.55 -59.25 -41.1 -59.8 M-46.7 -47.45 Q-47.0 -46.4 -47.7 -45.3 L-48.85 -44.1 -49.7 -43.85 Q-50.05 -44.05 -50.05 -44.65 -50.2 -45.55 -49.7 -46.4 -49.2 -47.75 -48.25 -48.5 -47.15 -49.4 -46.85 -48.95 -46.4 -48.65 -46.7 -47.45 M-30.9 -20.75 Q-31.2 -19.95 -31.0 -19.35 -30.95 -18.6 -30.45 -18.4 -30.0 -18.25 -29.45 -18.65 -28.9 -19.0 -28.6 -19.75 -28.25 -20.5 -28.4 -21.2 -28.6 -21.9 -29.0 -22.05 L-30.0 -21.9 -30.9 -20.75 M-28.2 -39.85 Q-30.3 -40.55 -32.15 -38.6 -34.8 -36.8 -35.8 -33.35 -37.05 -30.55 -36.1 -28.1 -35.8 -25.9 -34.1 -25.15 -32.55 -24.85 -30.45 -26.25 -28.4 -27.8 -26.8 -30.55 -25.6 -33.45 -26.0 -36.25 -26.35 -39.35 -28.2 -39.85 M-3.2 -40.2 Q-1.3 -43.95 -0.15 -44.35 L-2.55 -19.25 Q-3.5 -29.9 -3.2 -40.2 M-53.3 -4.0 Q-52.55 -6.1 -50.55 -6.45 -48.55 -6.8 -46.9 -5.75 -45.25 -4.7 -44.5 -3.55 L-44.3 -4.4 Q-44.1 -5.1 -42.5 -5.4 -41.0 -5.75 -40.1 -4.8 -39.15 -3.8 -39.0 -1.45 -38.85 0.95 -40.5 1.5 -42.15 2.05 -42.9 1.2 -42.8 2.4 -43.0 3.25 -43.45 5.3 -45.05 6.25 L-45.55 6.45 -49.7 6.95 Q-46.95 16.95 -43.1 16.6 -40.65 16.45 -39.0 13.35 -33.85 4.95 -25.4 10.65 L-23.75 11.9 Q-10.45 22.5 5.05 41.2 15.25 53.4 25.35 61.75 37.45 81.55 22.7 73.6 5.85 64.4 -21.5 27.35 -23.6 24.55 -25.4 23.05 -30.4 18.7 -33.55 23.25 -38.55 23.35 -36.1 29.4 -37.95 35.0 -38.45 40.8 -38.85 45.35 -42.65 40.05 -51.15 28.0 -50.75 7.95 -50.6 -3.55 -53.3 -4.0 M-52.25 -21.4 L-52.2 -21.65 Q-38.9 -46.15 -31.45 -56.15 -41.85 -33.0 -43.8 -13.75 -44.85 -13.35 -45.85 -13.75 -48.65 -11.0 -51.3 -10.55 -54.1 -10.75 -53.7 -16.95 L-52.25 -21.4 M-4.85 6.05 L-3.15 -9.55 -2.55 -0.35 -4.85 6.05 M-32.85 40.65 Q-29.55 44.4 -29.15 47.55 -28.6 53.2 -33.85 51.0 L-37.15 50.9 -39.05 47.75 Q-34.55 46.8 -32.85 40.65 M6.7 25.65 Q4.2 27.2 1.35 26.9 -1.5 26.6 -3.3 24.3 -4.1 23.25 -4.7 21.8 -5.7 22.35 -6.9 22.1 -8.7 21.8 -9.55 20.7 -10.4 19.7 -10.25 18.1 -10.1 16.6 -8.8 15.7 -7.45 14.8 -5.7 15.1 L-5.15 15.2 Q-4.7 13.4 -3.65 11.95 -1.6 9.35 1.5 9.35 L2.05 9.35 2.8 12.75 2.5 12.75 Q0.15 12.75 -1.4 14.3 -2.9 15.95 -2.7 18.3 -2.55 20.55 -1.2 21.85 0.15 23.25 2.5 23.25 4.3 23.25 5.6 22.5 L6.7 25.65 M-18.4 35.0 L-17.0 37.2 Q-16.85 38.2 -17.1 38.55 L-18.6 38.5 Q-19.75 37.95 -20.85 36.65 -22.55 35.1 -23.2 33.3 -24.0 31.5 -23.2 31.25 -22.55 31.0 -20.95 32.2 -19.5 33.45 -18.4 35.0 M-54.95 13.85 Q-55.65 12.8 -55.95 11.1 -56.5 8.9 -56.25 6.95 -56.0 4.95 -55.3 5.15 -54.6 5.25 -53.95 7.1 -53.3 8.85 -53.1 10.75 L-53.05 13.4 Q-53.4 14.45 -53.75 14.55 -54.3 14.7 -54.95 13.85 M26.75 78.75 Q32.6 83.35 24.2 81.95 L17.05 78.4 Q11.3 75.75 9.35 71.1 7.4 66.4 13.35 72.6 18.35 77.9 26.75 78.75 M14.0 17.65 Q13.1 18.85 12.6 20.7 L10.55 18.05 Q8.2 10.9 14.0 17.65 M13.85 22.25 Q15.05 20.85 15.35 19.5 L15.65 19.8 Q18.35 23.15 21.95 23.65 20.15 29.3 13.85 22.25 M21.55 20.55 Q28.3 20.3 33.2 15.95 27.35 24.25 21.55 20.55 M-24.0 66.0 L-25.4 64.65 Q-35.25 54.95 -25.4 58.7 L-23.4 59.5 -20.95 62.9 Q-14.45 71.05 -23.55 66.25 L-24.0 66.0 M-48.65 25.15 Q-48.65 27.65 -47.4 29.4 -46.45 31.6 -45.0 31.85 -43.85 31.8 -42.95 30.0 -42.35 28.2 -42.45 25.35 -42.9 22.55 -43.95 20.6 -45.3 18.7 -46.3 18.65 -47.85 18.9 -48.25 20.6 -49.15 22.65 -48.65 25.15" fill="#6abdc6" fill-opacity="0.8784314" fill-rule="evenodd" stroke="none"/>
  </g>
</svg>
