<?xml version="1.0" encoding="UTF-8" standalone="no"?>
<svg xmlns:xlink="http://www.w3.org/1999/xlink" height="166.3px" width="87.1px" xmlns="http://www.w3.org/2000/svg">
  <g transform="matrix(1.0, 0.0, 0.0, 1.0, 43.55, 83.15)">
    <path d="M37.95 -74.9 L38.85 -75.55 41.15 -77.1 Q35.35 -82.85 28.6 -82.15 20.95 -82.0 17.05 -75.7 11.95 -69.4 0.8 -61.7 L-13.7 -53.0 Q-28.2 -44.55 -36.2 -21.65 -43.15 -1.1 -42.6 19.45 -42.65 8.1 -35.0 3.8 L-35.05 3.25 Q-32.7 5.5 -28.2 -6.0 -25.2 -11.8 -24.4 -11.05 -21.2 -13.95 -22.75 -20.1 -16.15 -31.5 -6.75 -34.55 -5.75 -31.1 -10.0 -23.65 -2.85 -25.95 -0.85 -31.65 1.1 -30.6 6.2 -32.8 2.75 -32.65 2.45 -35.15 2.25 -37.95 4.4 -40.5 7.4 -42.0 10.3 -40.85 12.75 -37.85 12.3 -36.6 14.85 -36.0 16.8 -39.1 12.75 -31.4 15.0 -30.0 18.85 -29.75 26.2 -32.4 25.35 -27.95 32.35 -29.7 L35.9 -30.85 M-4.6 43.2 L-4.7 43.85 -4.8 43.75 Q-4.65 46.6 -6.9 49.5 -9.25 55.4 -4.7 63.65 -1.4 71.25 -3.6 82.25 3.2 69.15 2.2 61.0 -0.75 35.45 7.5 21.05 11.0 17.5 16.95 15.45 22.2 14.75 29.0 9.85 26.2 17.0 29.0 18.7 33.9 18.15 38.35 5.75 38.75 7.95 42.25 10.1 39.9 2.4 39.95 -3.1 40.1 -19.05 42.1 -42.4 44.15 -65.75 38.85 -75.55 M-4.6 43.2 L-4.8 43.75 Q-8.0 39.25 -15.15 43.05 -19.8 42.4 -15.15 35.4 -11.7 33.95 -8.75 29.8 L-8.5 29.25 Q-7.8 18.9 -12.65 17.0 -15.45 20.2 -16.55 27.3 L-17.85 14.6 Q2.55 -19.55 32.35 -29.7" fill="none" stroke="#000000" stroke-linecap="round" stroke-linejoin="round" stroke-width="1.8"/>
    <path d="M-35.05 3.25 Q-35.8 -5.75 -30.85 -19.2 M4.4 -40.5 L2.8 -39.55 Q-0.95 -36.3 -1.7 -33.15 L-1.85 -32.8 Q-1.55 -32.05 -0.85 -31.65 M10.3 -40.85 Q7.75 -43.15 10.6 -51.9 M-13.8 -41.35 Q-11.95 -38.15 -6.75 -34.55 M-20.9 -39.65 Q-28.5 -17.15 -26.55 -10.9 L-22.75 -20.1 M9.65 -7.0 L-14.05 16.55 Q-16.4 20.85 -16.55 27.3 M0.25 -45.25 L-1.7 -33.15 M6.85 4.05 Q-2.4 15.1 -8.5 29.25 M-4.6 43.2 Q-2.7 32.8 3.1 22.45" fill="none" stroke="#000000" stroke-linecap="round" stroke-linejoin="round" stroke-opacity="0.50980395" stroke-width="1.1"/>
  </g>
</svg>
