<?xml version="1.0" encoding="UTF-8" standalone="no"?>
<svg xmlns:xlink="http://www.w3.org/1999/xlink" height="154.85px" width="133.65px" xmlns="http://www.w3.org/2000/svg">
  <g transform="matrix(1.0, 0.0, 0.0, 1.0, 66.85, 77.4)">
    <path d="M23.6 -27.0 Q35.5 -14.6 41.15 -2.25 L-21.55 -25.2 -66.85 -77.4 Q-20.5 -58.3 23.45 -27.05 L23.6 -27.0" fill="#4fe998" fill-rule="evenodd" stroke="none"/>
    <path d="M66.8 -5.45 L64.9 -8.5 63.5 -10.35 Q60.55 -13.95 56.3 -17.3 L58.3 -15.95 Q64.4 -11.65 66.8 -5.45" fill="url(#gradient0)" fill-rule="evenodd" stroke="none"/>
    <path d="M40.65 32.3 Q37.7 38.25 33.8 42.55 16.0 60.3 -14.15 77.45 L5.2 46.4 Q12.15 35.2 21.1 28.3 32.05 19.7 45.9 17.6 43.9 25.9 40.65 32.3" fill="url(#gradient1)" fill-rule="evenodd" stroke="none"/>
  </g>
  <defs>
    <radialGradient cx="0" cy="0" gradientTransform="matrix(0.0392, 0.0, 0.0, 0.0392, 36.95, 0.85)" gradientUnits="userSpaceOnUse" id="gradient0" r="819.2" spreadMethod="pad">
      <stop offset="0.0196078431372549" stop-color="#fff3bb" stop-opacity="0.8392157"/>
      <stop offset="1.0" stop-color="#ffaa8a" stop-opacity="0.0"/>
    </radialGradient>
    <linearGradient gradientTransform="matrix(0.0015, 0.0155, -0.0085, 8.0E-4, 57.4, 1.65)" gradientUnits="userSpaceOnUse" id="gradient1" spreadMethod="pad" x1="-819.2" x2="819.2">
      <stop offset="0.0196078431372549" stop-color="#4fe998"/>
      <stop offset="0.48627450980392156" stop-color="#5bffb2"/>
      <stop offset="1.0" stop-color="#45d79a"/>
    </linearGradient>
  </defs>
</svg>
