<?xml version="1.0" encoding="UTF-8" standalone="no"?>
<svg xmlns:xlink="http://www.w3.org/1999/xlink" height="126.6px" width="127.85px" xmlns="http://www.w3.org/2000/svg">
  <g transform="matrix(1.0, 0.0, 0.0, 1.0, 63.95, 63.3)">
    <path d="M-63.65 -62.25 L-63.95 -63.3 Q-55.7 -51.85 -38.3 -45.95 -29.45 -43.0 -18.25 -41.45 L-1.35 -40.05 10.5 -39.2 Q45.4 -35.4 56.9 -15.8 65.85 0.7 62.5 16.2 60.2 24.1 54.9 28.55 58.5 30.85 61.5 35.85 L62.35 37.3 Q68.75 50.35 48.3 58.6 40.2 61.2 32.15 62.4 L20.5 63.3 6.3 62.3 Q-1.4 61.15 -9.0 58.6 -2.2 55.8 4.75 51.85 12.25 47.55 19.85 41.85 L29.6 34.1 Q14.7 32.9 1.05 24.45 -6.75 19.6 -14.05 12.45 L-15.55 10.95 Q-28.8 -4.2 -38.55 -17.25 -46.85 -28.35 -52.55 -37.85 -60.8 -51.65 -63.65 -62.25" fill="#66a365" fill-rule="evenodd" stroke="none"/>
  </g>
</svg>
