<?xml version="1.0" encoding="UTF-8" standalone="no"?>
<svg xmlns:xlink="http://www.w3.org/1999/xlink" height="83.25px" width="105.6px" xmlns="http://www.w3.org/2000/svg">
  <g transform="matrix(1.0, 0.0, 0.0, 1.0, 0.0, 0.0)">
    <path d="M84.05 36.0 Q79.1 31.0 72.45 31.0 68.55 31.0 65.85 32.65 63.05 33.75 60.85 36.0 58.6 39.55 57.85 43.8 L57.55 45.95 57.55 46.5 57.55 48.15 57.55 49.85 Q57.55 52.05 58.65 54.25 59.75 58.65 63.05 62.55 L63.65 63.05 Q69.15 68.6 75.75 68.6 82.4 68.6 86.3 63.05 90.7 57.55 90.15 49.85 90.15 47.55 89.6 45.35 87.9 40.35 84.05 36.0 M56.95 26.55 Q64.15 18.85 74.15 18.85 78.55 18.85 82.95 20.5 90.65 23.2 97.75 31.5 100.4 35.15 102.3 39.3 105.1 44.85 105.55 55.05 106.0 65.2 101.6 71.55 94.5 81.8 84.3 83.0 74.15 84.1 68.05 80.8 64.15 78.55 59.75 74.15 29.3 79.7 8.8 52.05 L19.35 52.55 34.85 52.55 Q7.2 41.0 0.0 17.7 L1.1 18.3 30.4 29.9 Q17.7 12.75 17.1 0.0 L56.95 26.55" fill="#fff020" fill-rule="evenodd" stroke="none"/>
  </g>
</svg>
