<?xml version="1.0" encoding="UTF-8" standalone="no"?>
<svg xmlns:xlink="http://www.w3.org/1999/xlink" height="120.05px" width="126.9px" xmlns="http://www.w3.org/2000/svg">
  <g transform="matrix(1.0, 0.0, 0.0, 1.0, 63.45, 60.05)">
    <path d="M-44.65 42.95 L-44.95 43.45 -42.7 46.15 Q-38.15 54.8 -20.05 57.15 12.65 60.9 44.75 56.65 55.05 53.75 58.6 45.8 62.15 37.85 60.85 29.3 59.5 20.7 61.6 15.95 64.8 -10.35 54.7 -29.55 48.55 -42.7 29.7 -52.05 L29.65 -52.1 Q21.7 -55.45 11.6 -57.9 -21.7 -63.35 -45.55 -41.05 -60.75 -25.75 -60.1 2.0 -59.3 11.1 -55.2 22.8 L-54.35 23.3 -53.8 23.65 -51.65 25.75 M-55.2 22.8 L-55.75 22.2 Q-58.5 22.4 -60.15 23.65 -64.95 29.5 -59.35 37.2 -54.6 43.7 -50.15 44.5 -46.2 45.1 -44.95 43.45" fill="none" stroke="#54453c" stroke-linecap="round" stroke-linejoin="round" stroke-width="2.2"/>
    <path d="M-56.85 33.0 Q-59.05 31.35 -57.75 29.05 -56.45 26.75 -54.75 28.65 -52.5 31.25 -50.3 35.3 L-50.1 35.6 -49.85 36.15 -49.75 36.35 -49.6 36.6 Q-50.6 38.0 -51.0 39.25 L-51.15 39.9 M-51.0 39.25 Q-53.3 38.85 -54.5 35.95" fill="none" stroke="#54453c" stroke-linecap="round" stroke-linejoin="round" stroke-width="1.0"/>
  </g>
</svg>
