<?xml version="1.0" encoding="UTF-8" standalone="no"?>
<svg xmlns:xlink="http://www.w3.org/1999/xlink" height="134.35px" width="124.7px" xmlns="http://www.w3.org/2000/svg">
  <g transform="matrix(1.0, 0.0, 0.0, 1.0, 62.35, 67.15)">
    <path d="M-41.9 42.9 Q-44.0 36.0 -44.65 34.75 L-44.95 35.25 Q-46.2 36.9 -50.15 36.3 -54.6 35.5 -59.35 29.0 -64.95 21.3 -60.15 15.45 -58.5 14.2 -55.75 14.0 L-55.2 14.6 Q-59.3 2.9 -60.1 -6.2 -60.75 -33.95 -45.55 -49.25 -21.7 -71.55 11.6 -66.1 21.7 -63.65 29.65 -60.3 L29.7 -60.25 Q48.55 -50.9 54.7 -37.75 64.8 -18.55 61.6 7.75 59.5 12.5 61.05 24.3 L61.2 27.95 Q60.55 32.95 56.75 38.0 52.9 43.0 52.3 44.75 53.4 48.15 54.05 49.25 54.65 50.35 52.7 54.95 50.7 59.5 41.6 65.45 L4.7 67.2 Q-13.55 54.65 -25.65 49.85 -37.8 45.05 -41.9 42.9" fill="#fff1e0" fill-rule="evenodd" stroke="none"/>
  </g>
</svg>
