<?xml version="1.0" encoding="UTF-8" standalone="no"?>
<svg xmlns:xlink="http://www.w3.org/1999/xlink" height="43.55px" width="27.75px" xmlns="http://www.w3.org/2000/svg">
  <g transform="matrix(1.0, 0.0, 0.0, 1.0, 13.9, 21.75)">
    <path d="M13.75 -18.25 L13.1 -15.35 11.3 -9.75 9.1 -3.65 8.15 -1.35 6.85 2.2 Q6.3 3.95 6.1 5.25 5.65 7.65 5.55 9.7 5.4 11.7 3.7 13.7 1.95 15.7 -0.8 14.8 -2.5 20.75 -4.45 21.45 -6.4 22.15 -7.25 21.45 -7.5 20.1 -5.3 14.15 L-6.5 14.25 Q-8.85 17.45 -10.25 18.4 -11.7 19.35 -13.05 18.75 -14.45 18.1 -13.55 16.3 L-11.35 12.05 -9.45 8.45 -7.05 4.9 -5.45 2.2 Q-4.25 -0.2 -2.8 -4.0 -0.35 -10.6 3.05 -20.8 L3.5 -21.6 5.5 -21.75 9.25 -21.05 Q11.9 -20.2 13.65 -18.5 14.0 -18.25 13.75 -18.25" fill="#fff1e0" fill-rule="evenodd" stroke="none"/>
  </g>
</svg>
