<?xml version="1.0" encoding="UTF-8" standalone="no"?>
<svg xmlns:xlink="http://www.w3.org/1999/xlink" height="35.6px" width="109.9px" xmlns="http://www.w3.org/2000/svg">
  <g transform="matrix(1.0, 0.0, 0.0, 1.0, 54.95, 17.8)">
    <path d="M-40.65 -12.85 Q-44.1 -12.45 -44.5 -10.35 L-45.05 -6.6 -45.25 -2.9 -45.2 -0.15 -44.9 3.55 Q-44.45 6.6 -43.6 9.65 -43.1 12.4 -38.4 12.85 26.05 15.3 48.1 11.7 51.85 10.8 52.65 6.95 L53.15 1.95 53.15 -3.35 53.15 -3.55 52.85 -7.8 52.45 -10.45 Q51.25 -13.3 48.55 -13.25 30.0 -11.85 -40.65 -12.85 M-54.05 7.1 Q-52.55 -1.9 -54.95 -11.6 -54.45 -16.1 -45.4 -17.35 11.3 -15.9 51.45 -17.8 53.5 -18.1 54.5 -13.3 55.5 -2.05 54.3 9.25 53.7 13.45 51.1 14.5 37.55 20.1 -43.75 16.2 -54.3 14.8 -54.05 7.1" fill="#24162e" fill-rule="evenodd" stroke="none"/>
  </g>
</svg>
