<?xml version="1.0" encoding="UTF-8" standalone="no"?>
<svg xmlns:xlink="http://www.w3.org/1999/xlink" height="82.4px" width="120.0px" xmlns="http://www.w3.org/2000/svg">
  <g transform="matrix(1.0, 0.0, 0.0, 1.0, 60.0, 41.2)">
    <path d="M28.75 -2.5 L29.05 -2.2 Q49.1 -7.1 58.3 0.8 L58.4 1.55 Q60.4 19.1 57.65 28.75 56.25 33.6 53.65 36.45 50.25 40.1 44.9 40.45 40.65 39.9 37.3 37.95 34.2 36.1 31.8 33.15 24.75 24.4 23.65 5.4 L23.65 5.35 Q1.6 -9.45 -59.25 -30.95 -59.05 -37.75 -53.75 -40.45 5.85 -17.85 28.65 -2.1 L29.05 -2.2 M23.65 5.35 L28.65 -2.1" fill="none" stroke="#000000" stroke-linecap="round" stroke-linejoin="round" stroke-width="1.5"/>
  </g>
</svg>
