<?xml version="1.0" encoding="UTF-8" standalone="no"?>
<svg xmlns:xlink="http://www.w3.org/1999/xlink" height="47.6px" width="120.05px" xmlns="http://www.w3.org/2000/svg">
  <g transform="matrix(1.0, 0.0, 0.0, 1.0, 60.05, 23.8)">
    <path d="M55.5 3.4 Q52.9 20.85 39.1 22.2 20.05 23.9 14.55 5.6 L12.85 -2.2 Q11.95 -6.8 8.6 -6.35 4.7 -5.45 4.35 2.25 3.3 25.45 -25.65 23.7 -42.95 23.8 -49.95 9.2 -51.9 5.85 -53.6 -1.25 -54.75 -6.5 -57.45 -10.75 -59.9 -13.9 -60.05 -16.25 -60.25 -18.85 -57.7 -20.65 -45.45 -24.1 -32.5 -23.75 -24.55 -23.65 -16.25 -22.0 -7.75 -20.55 2.5 -16.7 9.0 -14.25 17.4 -17.0 29.95 -21.95 44.75 -20.8 51.65 -20.6 59.25 -17.95 59.9 -16.95 60.0 -15.55 60.05 -13.3 58.5 -10.05 56.55 -5.55 55.5 3.4 M-35.7 -16.8 Q-40.7 -16.1 -44.05 -14.35 -48.95 -11.4 -47.75 -2.8 -46.7 5.7 -40.75 12.0 -34.9 18.15 -23.35 18.05 -13.3 18.25 -8.45 15.7 -3.6 13.15 -1.55 5.25 0.45 -2.65 -0.7 -7.45 -2.7 -12.6 -10.5 -14.95 L-13.95 -15.8 -22.1 -16.95 -27.45 -17.15 -35.7 -16.8 M44.05 -15.25 L43.45 -15.35 Q36.55 -16.0 31.3 -15.2 L24.65 -13.7 Q17.0 -9.4 18.8 0.25 20.55 9.85 24.85 13.75 29.05 17.6 37.15 17.05 45.2 16.4 48.7 11.7 52.2 6.95 52.3 -3.7 52.3 -13.15 46.15 -14.9 L44.05 -15.25" fill="#3cf594" fill-rule="evenodd" stroke="none"/>
  </g>
</svg>
