<?xml version="1.0" encoding="UTF-8" standalone="no"?>
<svg xmlns:xlink="http://www.w3.org/1999/xlink" height="49.65px" width="132.65px" xmlns="http://www.w3.org/2000/svg">
  <g transform="matrix(1.0, 0.0, 0.0, 1.0, 66.35, 24.85)">
    <path d="M8.65 -3.55 L11.85 -3.85 Q10.7 -11.35 5.15 -17.05 -1.65 -24.1 -11.35 -24.1 -21.05 -24.1 -28.0 -17.05 -34.15 -10.6 -34.8 -1.85 L-55.9 -1.85 -55.9 2.0 -34.75 2.0 Q-34.15 10.65 -28.0 16.95 -21.05 24.05 -11.35 24.05 -1.65 24.05 5.15 16.95 9.1 13.0 10.75 8.1 L7.6 7.5 Q6.6 10.1 4.85 12.45 L2.95 14.65 Q-1.1 18.9 -6.3 20.2 L-11.35 20.85 Q-19.8 20.85 -25.75 14.65 -31.65 8.6 -31.65 0.05 -31.65 -8.6 -25.75 -14.75 L-22.25 -17.55 Q-17.45 -20.75 -11.35 -20.75 L-10.0 -20.7 Q-2.5 -20.3 2.95 -14.75 7.6 -9.95 8.65 -3.55 L8.85 0.05 Q8.85 4.05 7.6 7.5 M11.85 -3.85 L12.1 -0.3 Q20.85 -5.1 27.2 -0.3 L27.4 -3.75 Q28.3 -11.35 32.75 -17.05 38.45 -24.1 46.35 -24.1 54.25 -24.1 59.8 -17.05 65.55 -10.0 65.55 0.0 65.55 9.9 59.8 16.95 54.25 24.05 46.35 24.05 38.45 24.05 32.75 16.95 29.6 12.95 28.25 8.05 27.65 5.9 27.4 3.55 21.2 -2.4 11.85 3.55 11.55 5.9 10.75 8.1 M28.25 8.05 L31.7 6.95 Q30.8 3.75 30.8 0.05 L31.0 -3.15 27.4 -3.75 M31.0 -3.15 Q31.7 -9.75 35.45 -14.75 L36.7 -16.15 Q40.45 -20.2 45.35 -20.65 L46.8 -20.75 Q53.4 -20.75 58.05 -14.75 62.75 -8.6 62.75 0.05 62.75 7.55 59.1 13.2 L58.05 14.65 Q55.2 18.4 51.7 19.85 49.35 20.85 46.8 20.85 40.15 20.85 35.45 14.65 32.8 11.2 31.7 6.95 M-55.9 -1.85 Q-59.05 -2.9 -60.7 -1.85 -63.15 -0.25 -65.6 3.3 -65.6 7.1 -63.15 6.95 -62.05 4.6 -59.45 2.0 -58.55 1.55 -55.9 2.0" fill="none" stroke="#333333" stroke-linecap="round" stroke-linejoin="round" stroke-width="1.5"/>
  </g>
</svg>
