<?xml version="1.0" encoding="UTF-8" standalone="no"?>
<svg xmlns:xlink="http://www.w3.org/1999/xlink" height="155.25px" width="126.9px" xmlns="http://www.w3.org/2000/svg">
  <g transform="matrix(1.0, 0.0, 0.0, 1.0, 63.45, 77.6)">
    <path d="M-51.65 8.2 L-53.8 6.1 -54.35 5.75 -55.2 5.25 -55.75 4.65 Q-58.5 4.85 -60.15 6.1 -64.95 11.95 -59.35 19.65 -54.6 26.15 -50.15 26.95 -46.2 27.55 -44.95 25.9 L-44.65 25.4 -43.35 27.85 Q-38.8 50.2 -21.6 64.15 -4.4 78.1 24.45 76.35 47.35 73.3 55.65 59.5 63.95 45.65 61.2 18.6 L61.2 17.95 61.05 14.95 Q59.5 3.15 61.6 -1.6 64.8 -27.9 54.7 -47.1 48.55 -60.25 29.7 -69.6 L29.65 -69.65 Q21.7 -73.0 11.6 -75.45 -21.7 -80.9 -45.55 -58.6 -60.75 -43.3 -60.1 -15.55 -59.3 -6.45 -55.2 5.25 M-44.95 25.9 L-43.35 27.85" fill="none" stroke="#54453c" stroke-linecap="round" stroke-linejoin="round" stroke-width="2.2"/>
    <path d="M-56.85 15.45 Q-59.05 13.8 -57.75 11.5 -56.45 9.2 -54.75 11.1 -52.5 13.7 -50.3 17.75 L-50.1 18.05 -49.85 18.6 -49.75 18.8 -49.6 19.05 Q-50.6 20.45 -51.0 21.7 L-51.15 22.35 M-51.0 21.7 Q-53.3 21.3 -54.5 18.4" fill="none" stroke="#54453c" stroke-linecap="round" stroke-linejoin="round" stroke-width="1.0"/>
  </g>
</svg>
