<?xml version="1.0" encoding="UTF-8" standalone="no"?>
<svg xmlns:xlink="http://www.w3.org/1999/xlink" height="14.4px" width="44.95px" xmlns="http://www.w3.org/2000/svg">
  <g transform="matrix(1.0, 0.0, 0.0, 1.0, 22.45, 7.2)">
    <path d="M9.2 -0.75 L8.5 0.25 7.3 0.65 Q6.65 0.65 6.35 0.25 5.95 -0.2 6.15 -0.75 6.25 -1.25 6.85 -1.7 7.35 -2.1 8.0 -2.1 8.6 -2.1 9.0 -1.7 9.3 -1.25 9.2 -0.75 M9.65 1.8 Q11.45 -1.05 9.45 -4.95 M8.75 1.85 Q9.4 4.75 9.0 6.1 M3.95 2.05 L3.95 2.1 Q4.6 4.9 4.25 6.3 M3.85 -4.65 Q5.65 -0.6 3.95 2.05" fill="none" stroke="#000000" stroke-linecap="round" stroke-linejoin="round" stroke-width="1.0"/>
    <path d="M17.35 -6.45 Q19.8 -4.95 20.3 -3.5 20.55 -1.85 19.45 -0.6 L20.05 -1.1 Q22.35 1.35 21.5 4.2 18.1 5.55 9.0 6.1 L4.25 6.3 -1.45 6.45 Q-19.35 6.65 -21.6 3.7 -22.1 1.6 -19.8 -0.6 -20.45 -1.0 -19.7 -2.75 L-16.9 -6.15 M3.95 2.05 L4.3 2.05 8.75 1.85 9.65 1.8 Q18.75 1.15 19.45 -0.6 M3.95 2.05 Q-10.0 2.45 -14.15 1.55 -18.35 0.6 -19.8 -0.6" fill="none" stroke="#000000" stroke-linecap="round" stroke-linejoin="round" stroke-width="1.5"/>
  </g>
</svg>
