<?xml version="1.0" encoding="UTF-8" standalone="no"?>
<svg xmlns:xlink="http://www.w3.org/1999/xlink" height="31.0px" width="50.05px" xmlns="http://www.w3.org/2000/svg">
  <g transform="matrix(1.0, 0.0, 0.0, 1.0, 25.0, 15.4)">
    <path d="M9.7 -9.25 L13.0 -9.2 M4.3 -9.25 L7.45 -9.3 M19.35 -14.75 Q19.15 -11.55 19.25 -11.3 M-19.25 -14.85 Q-18.95 -10.4 -18.25 -9.35 M-7.4 -8.85 L-4.1 -9.05 M-1.75 -9.1 L1.8 -9.25" fill="none" stroke="#000000" stroke-linecap="round" stroke-linejoin="round" stroke-opacity="0.6" stroke-width="1.1"/>
    <path d="M10.75 -5.55 L12.8 -2.65 14.25 -5.3 M12.8 -2.65 Q13.8 -1.05 14.4 0.7 M12.8 -2.65 L10.6 0.45 M-1.1 0.5 L-2.45 -2.5 Q-3.75 -1.45 -5.6 -0.15 M-4.35 -5.65 L-2.45 -2.5 Q-0.45 -4.2 0.3 -5.25" fill="none" stroke="#000000" stroke-linecap="round" stroke-linejoin="round" stroke-width="1.1"/>
    <path d="M-21.55 -11.8 Q-23.2 -6.8 -24.25 -1.95 L-21.45 3.15 -16.85 4.1 -15.6 -2.5 Q-10.05 -4.5 -8.55 -11.1 L6.65 -11.8 14.3 -10.95 Q15.25 -5.75 19.4 -2.7 19.25 0.35 19.7 3.4 L21.2 3.05 Q23.4 0.25 24.3 -2.35 23.45 -6.4 21.5 -11.8 M-16.85 4.1 Q-8.75 5.55 2.05 5.9 11.4 5.65 19.7 3.4 M21.2 3.05 Q22.75 7.65 23.0 10.95 12.5 14.95 0.25 14.85 -13.6 15.0 -23.6 10.95 -23.15 7.45 -21.45 3.15" fill="none" stroke="#000000" stroke-linecap="round" stroke-linejoin="round" stroke-width="1.5"/>
  </g>
</svg>
