<?xml version="1.0" encoding="UTF-8" standalone="no"?>
<svg xmlns:xlink="http://www.w3.org/1999/xlink" height="10.65px" width="21.8px" xmlns="http://www.w3.org/2000/svg">
  <g transform="matrix(1.0, 0.0, 0.0, 1.0, 12.5, 6.55)">
    <path d="M1.05 -3.65 Q4.9 -3.3 8.7 -2.05 7.65 0.6 5.45 2.15 5.65 -1.75 1.05 -3.65" fill="#4f2628" fill-rule="evenodd" stroke="none"/>
    <path d="M1.05 -3.65 Q5.65 -1.75 5.45 2.15 3.2 3.5 -0.4 3.5 -12.0 2.0 -11.9 -5.95 -3.45 -3.95 1.05 -3.65" fill="#ec839a" fill-rule="evenodd" stroke="none"/>
    <path d="M5.45 2.15 Q7.65 0.6 8.7 -2.05 4.9 -3.3 1.05 -3.65 -3.45 -3.95 -11.9 -5.95 -12.0 2.0 -0.4 3.5 3.2 3.5 5.45 2.15 Z" fill="none" stroke="#000000" stroke-linecap="round" stroke-linejoin="round" stroke-width="1.2000000000000002"/>
  </g>
</svg>
