<?xml version="1.0" encoding="UTF-8" standalone="no"?>
<svg xmlns:xlink="http://www.w3.org/1999/xlink" height="6.7px" width="11.65px" xmlns="http://www.w3.org/2000/svg">
  <g transform="matrix(1.0, 0.0, 0.0, 1.0, 5.5, 3.35)">
    <path d="M-1.55 -1.05 L2.45 -0.95 Q4.35 -0.65 5.45 -0.15 5.35 1.2 4.75 1.25 L0.75 1.8 Q-2.75 2.15 -4.05 1.8 -3.25 0.85 -2.95 -0.35 L-1.55 -1.05" fill="#ec839a" fill-rule="evenodd" stroke="none"/>
    <path d="M-1.55 -1.05 L0.05 -1.8 4.0 -2.75 Q5.65 -2.65 5.55 -0.4 L5.45 -0.15 Q4.35 -0.65 2.45 -0.95 L-1.55 -1.05" fill="#3c0a12" fill-rule="evenodd" stroke="none"/>
    <path d="M-1.55 -1.05 L2.45 -0.95 Q4.35 -0.65 5.45 -0.15" fill="none" stroke="#000000" stroke-linecap="round" stroke-linejoin="round" stroke-width="0.5"/>
    <path d="M5.45 -0.15 L5.55 -0.4 Q5.65 -2.65 4.0 -2.75 L0.05 -1.8 -1.55 -1.05 -2.95 -0.35 Q-3.25 0.85 -4.05 1.8 L-4.9 2.75 M5.45 -0.15 Q5.35 1.2 4.75 1.25 L0.75 1.8 Q-2.75 2.15 -4.05 1.8 M-3.2 -2.4 Q-2.75 -1.35 -2.95 -0.35" fill="none" stroke="#000000" stroke-linecap="round" stroke-linejoin="round" stroke-width="1.2000000000000002"/>
  </g>
</svg>
