<?xml version="1.0" encoding="UTF-8" standalone="no"?>
<svg xmlns:xlink="http://www.w3.org/1999/xlink" height="181.9px" width="141.25px" xmlns="http://www.w3.org/2000/svg">
  <g transform="matrix(1.0, 0.0, 0.0, 1.0, 70.65, 90.95)">
    <path d="M50.55 53.35 Q47.5 75.7 34.45 90.95 32.55 80.65 30.1 72.05 27.65 63.45 26.5 58.5 23.85 75.7 4.1 87.8 10.85 73.5 12.85 53.05 1.95 72.55 0.5 89.4 -8.2 68.65 -2.7 51.45 -12.5 67.7 -6.7 87.35 -32.85 69.4 -26.75 44.95 L-26.7 44.65 Q-41.0 67.35 -34.25 89.4 -54.85 73.7 -54.45 52.25 -58.25 78.0 -47.65 89.8 -60.95 79.15 -67.4 64.2 -75.35 47.55 -63.85 25.5 -60.9 21.05 -65.15 9.3 -69.4 -2.5 -65.85 -29.75 -63.45 -48.05 -58.6 -57.6 -45.85 -92.55 8.45 -90.75 55.1 -93.05 62.4 -70.35 68.35 -50.95 65.75 -32.15 62.0 -1.85 67.2 10.5 71.55 23.0 70.35 33.45 69.5 62.55 50.8 77.8 51.55 74.1 50.95 67.25 50.3 60.35 50.55 53.35" fill="url(#gradient0)" fill-rule="evenodd" stroke="none"/>
  </g>
  <defs>
    <linearGradient gradientTransform="matrix(0.0, 0.0991, -0.0862, 0.0, 0.0, -6.65)" gradientUnits="userSpaceOnUse" id="gradient0" spreadMethod="pad" x1="-819.2" x2="819.2">
      <stop offset="0.0" stop-color="#fff23c" stop-opacity="0.0"/>
      <stop offset="0.3803921568627451" stop-color="#fff23c" stop-opacity="0.84705883"/>
      <stop offset="0.6039215686274509" stop-color="#fff23c" stop-opacity="0.8"/>
      <stop offset="1.0" stop-color="#fff23c" stop-opacity="0.0"/>
    </linearGradient>
  </defs>
</svg>
