<?xml version="1.0" encoding="UTF-8" standalone="no"?>
<svg xmlns:xlink="http://www.w3.org/1999/xlink" height="233.6px" width="195.75px" xmlns="http://www.w3.org/2000/svg">
  <g transform="matrix(1.0, 0.0, 0.0, 1.0, 97.9, 116.8)">
    <path d="M-61.45 -16.05 Q-59.15 -20.1 -58.4 -25.1 -59.25 -20.95 -61.45 -16.05 -65.6 -8.9 -74.75 -4.8 -64.5 -20.45 -64.55 -46.6 -59.75 -92.05 -33.85 -107.75 -17.4 -116.8 12.05 -116.8 44.1 -116.8 54.9 -111.6 69.25 -105.65 75.3 -83.25 85.15 -58.4 83.9 -22.75 80.3 2.25 83.9 17.55 89.6 39.25 97.85 47.8 88.25 42.85 83.0 35.25 94.0 74.3 62.4 108.0 67.6 93.8 64.3 67.3 62.1 89.6 38.45 103.25 42.4 91.95 39.25 73.65 34.95 95.5 12.15 110.4 13.75 107.5 12.7 99.35 11.3 109.4 4.6 116.8 -6.8 110.65 -11.4 95.9 L-7.75 108.8 Q-28.95 96.7 -26.8 67.5 -29.2 89.1 -47.6 100.05 -40.55 91.2 -41.5 62.2 -51.15 95.7 -50.0 106.4 -67.6 86.25 -66.2 51.05 -79.6 82.5 -64.35 105.25 -91.25 83.4 -80.95 51.05 -71.65 21.55 -69.15 11.7 -100.35 41.55 -93.05 68.55 -103.45 55.05 -91.45 28.3 L-74.75 5.1 Q-65.7 -6.75 -61.45 -16.05" fill="#00ccff" fill-rule="evenodd" stroke="none"/>
  </g>
</svg>
