<?xml version="1.0" encoding="UTF-8" standalone="no"?>
<svg xmlns:xlink="http://www.w3.org/1999/xlink" height="117.1px" width="174.9px" xmlns="http://www.w3.org/2000/svg">
  <g transform="matrix(1.0, 0.0, 0.0, 1.0, 87.45, 58.55)">
    <path d="M45.95 -15.8 L44.45 -16.7 44.85 -15.2 Q45.35 -12.6 46.1 -10.75 47.45 -7.3 49.6 -6.45 52.85 -5.15 57.0 -9.35 61.15 -13.55 59.05 -21.2 L58.35 -21.3 58.15 -21.45 Q57.5 -21.5 57.0 -21.95 L56.3 -22.5 55.75 -23.1 55.05 -24.2 53.95 -27.15 54.0 -27.2 Q53.35 -29.4 54.2 -30.75 L53.4 -31.05 Q44.9 -34.2 39.55 -28.45 38.4 -27.1 38.05 -26.2 L37.95 -25.65 Q37.6 -21.15 44.45 -16.7 M70.25 -37.3 L69.95 -38.8 Q66.0 -47.15 61.25 -48.15 L61.15 -48.0 Q59.0 -42.3 58.45 -35.6 L58.25 -32.6 Q59.25 -32.4 60.0 -31.85 L60.4 -31.4 61.45 -29.7 62.3 -26.75 62.25 -26.65 62.55 -25.65 65.9 -24.6 Q68.75 -23.25 72.25 -24.25 73.55 -24.65 74.45 -25.5 75.9 -26.85 76.4 -29.25 76.45 -34.15 69.95 -38.8 M58.25 -32.6 L56.0 -32.25 Q54.75 -31.7 54.2 -30.75 M53.4 -31.05 L58.45 -35.6 M59.05 -21.2 Q62.8 -20.7 62.55 -25.65 M72.3 2.0 Q71.2 10.15 72.2 16.1 73.2 21.95 74.55 27.5 L76.3 35.35 Q77.9 42.5 86.45 43.65 78.85 32.1 77.5 -1.2 76.9 -15.9 74.45 -25.5 M46.1 -10.75 Q46.55 0.95 52.0 16.35 55.45 35.45 52.1 49.25 61.1 42.3 60.2 34.95 L58.5 31.05 M60.35 17.5 Q60.05 24.55 63.0 32.7 L63.15 33.15 Q64.3 36.25 65.95 39.2 72.1 50.0 70.95 57.55 78.35 46.3 76.3 35.35 M63.15 33.15 Q67.5 45.55 64.05 52.0 64.6 45.5 60.2 34.95 M-63.75 -50.4 Q-59.15 -57.95 -53.3 -57.55 L-53.2 -57.35 Q-49.7 -49.25 -49.1 -40.35 -47.95 -40.2 -46.45 -39.4 -44.9 -38.5 -44.15 -37.3 -33.65 -38.65 -27.0 -31.0 L-25.25 -28.4 -25.15 -27.75 Q-24.7 -23.2 -32.2 -20.5 L-32.7 -19.1 Q-33.45 -15.5 -35.5 -13.0 -35.55 -0.2 -43.1 17.0 -47.85 30.55 -44.15 49.95 -54.2 42.45 -52.95 35.15 -58.2 45.4 -57.75 51.95 -61.45 45.45 -56.45 33.75 -57.75 36.5 -59.6 39.1 -66.8 49.6 -65.7 57.1 -73.9 45.5 -71.2 34.65 -73.2 41.75 -86.45 41.85 -73.95 31.2 -71.45 -2.0 -69.7 -25.25 -63.05 -35.4 L-65.35 -36.2 Q-70.05 -37.95 -71.5 -42.15 -71.85 -47.3 -63.75 -50.4 L-64.0 -48.85 M-63.05 -35.4 Q-60.0 -34.4 -58.2 -34.15 L-54.1 -34.4 -53.8 -35.35 -53.8 -35.45 Q-53.5 -37.15 -52.85 -38.25 L-52.65 -38.55 -51.7 -39.75 -51.15 -40.1 -49.1 -40.35 M-44.15 -37.3 Q-43.1 -35.7 -43.75 -33.65 L-43.75 -33.55 -44.55 -31.6 -44.95 -30.8 -45.75 -29.9 -46.4 -29.45 Q-46.75 -29.1 -47.2 -29.05 -47.8 -28.7 -48.55 -28.75 L-48.8 -28.75 -49.65 -28.8 Q-47.65 -18.55 -42.7 -10.0 -42.05 -8.75 -40.8 -9.2 -37.5 -10.55 -35.5 -13.0 M-49.65 -28.8 Q-54.1 -29.2 -54.1 -34.4 M-32.2 -20.5 L-33.95 -19.95 M-52.95 35.15 L-50.9 31.35 M-52.7 15.4 Q-52.5 24.8 -56.05 32.75 L-56.45 33.75 M-65.75 1.45 Q-64.65 9.75 -65.95 15.6 -67.25 21.45 -68.95 26.85 L-71.2 34.65" fill="none" stroke="#000000" stroke-linecap="round" stroke-linejoin="round" stroke-width="2.0"/>
  </g>
</svg>
