<?xml version="1.0" encoding="UTF-8" standalone="no"?>
<svg xmlns:xlink="http://www.w3.org/1999/xlink" height="224.2px" width="174.7px" xmlns="http://www.w3.org/2000/svg">
  <g transform="matrix(1.0, 0.0, 0.0, 1.0, 87.35, 112.1)">
    <path d="M69.1 14.95 Q74.6 55.45 46.65 85.3 53.25 68.6 51.5 41.05 47.55 81.05 30.25 96.8 34.3 87.15 31.9 47.75 30.3 88.1 8.8 112.1 L-10.2 41.5 Q-1.85 81.4 -5.35 104.25 -12.5 85.3 -30.8 66.35 -49.1 47.4 -48.15 25.65 -56.85 72.75 -44.95 97.6 -74.9 62.75 -64.95 15.25 -77.25 47.85 -71.8 79.75 -97.7 47.0 -80.45 -2.25 -73.55 -21.8 -64.3 -46.1 -55.15 -70.35 -52.95 -89.7 -48.1 -103.4 -27.45 -108.2 0.15 -114.7 31.9 -110.3 64.1 -102.35 71.0 -75.15 68.7 -55.45 71.0 -33.4 71.0 -20.05 83.3 11.7 95.65 43.45 70.45 77.5 80.45 50.4 69.1 14.95" fill="#6fade5" fill-rule="evenodd" stroke="none"/>
  </g>
</svg>
