<?xml version="1.0" encoding="UTF-8" standalone="no"?>
<svg xmlns:xlink="http://www.w3.org/1999/xlink" height="227.5px" width="201.4px" xmlns="http://www.w3.org/2000/svg">
  <g transform="matrix(1.0, 0.0, 0.0, 1.0, 100.7, 113.75)">
    <path d="M75.05 -43.55 Q76.15 -31.15 78.9 -18.5 86.35 4.15 89.85 20.15 91.4 -5.8 75.05 -43.55 M90.6 23.95 L92.15 33.45 Q95.65 49.45 88.2 62.6 80.75 75.75 86.75 82.75 92.75 89.7 100.7 82.65 93.8 93.85 81.0 90.45 68.2 87.0 69.3 70.75 L65.7 76.3 Q53.85 93.5 59.1 107.15 47.3 88.7 57.85 66.85 L57.75 67.0 Q38.0 98.55 43.5 113.75 25.8 92.6 33.7 66.45 24.1 94.95 -12.65 110.0 L3.65 85.9 Q-6.9 100.45 -25.95 112.35 -18.1 101.75 -16.3 89.05 -57.0 72.4 -51.85 31.2 -57.3 67.15 -48.35 91.2 -57.65 74.15 -62.15 58.4 L-61.35 62.15 Q-60.2 76.95 -70.2 87.85 L-80.25 98.7 Q-72.35 86.4 -75.65 74.7 -79.0 62.95 -83.25 53.3 -87.5 43.65 -85.2 32.75 -90.1 52.7 -86.85 67.05 -118.7 33.65 -77.3 -26.45 -61.35 -49.6 -55.5 -69.2 -49.65 -88.85 -50.1 -96.4 -30.25 -118.55 29.75 -112.45 69.4 -97.95 75.6 -80.85 70.95 -74.7 74.45 -64.75 101.0 -10.4 90.6 23.95" fill="url(#gradient0)" fill-rule="evenodd" stroke="none"/>
  </g>
  <defs>
    <linearGradient gradientTransform="matrix(0.0, 0.102, -0.1229, 0.0, 0.0, -49.7)" gradientUnits="userSpaceOnUse" id="gradient0" spreadMethod="pad" x1="-819.2" x2="819.2">
      <stop offset="0.0" stop-color="#fff23c" stop-opacity="0.0"/>
      <stop offset="0.3803921568627451" stop-color="#fff23c" stop-opacity="0.84705883"/>
      <stop offset="0.6039215686274509" stop-color="#fff23c" stop-opacity="0.8"/>
      <stop offset="1.0" stop-color="#fff23c" stop-opacity="0.0"/>
    </linearGradient>
  </defs>
</svg>
