<?xml version="1.0" encoding="UTF-8" standalone="no"?>
<svg xmlns:xlink="http://www.w3.org/1999/xlink" height="38.1px" width="53.25px" xmlns="http://www.w3.org/2000/svg">
  <g transform="matrix(1.0, 0.0, 0.0, 1.0, 74.5, -101.2)">
    <path d="M-43.1 116.2 L-44.55 117.25 -45.75 117.6 -46.6 117.6 -48.55 116.95 -48.6 116.9 -49.35 116.35 -49.45 116.2 Q-50.7 114.95 -50.7 113.4 -50.7 111.9 -49.3 110.75 -48.2 109.8 -46.95 109.65 L-46.1 109.55 Q-44.55 109.55 -43.4 110.5 L-43.0 110.85 Q-41.75 112.1 -41.7 113.45 -41.65 114.75 -43.1 116.2" fill="#e6f3ff" fill-rule="evenodd" stroke="none"/>
    <path d="M-44.55 117.25 L-44.4 117.15 Q-41.05 124.45 -35.65 132.1 L-32.3 136.7 Q-29.8 132.6 -23.0 128.5 -26.7 125.25 -33.85 122.0 -38.85 120.1 -43.1 116.2 L-44.55 117.25 -45.75 117.6 -46.6 117.6 -48.55 116.95 -48.6 116.9 Q-49.25 122.25 -55.05 127.95 L-65.2 138.3 M-43.4 110.5 L-42.55 109.95 Q-34.2 104.65 -28.05 105.0 L-26.45 105.25 Q-21.75 106.5 -22.3 114.1 -23.05 122.85 -26.1 123.7 -30.2 123.4 -33.85 122.0 M-43.4 110.5 L-43.0 110.85 Q-41.75 112.1 -41.7 113.45 -41.65 114.75 -43.1 116.2 M-46.95 109.65 L-46.1 109.55 Q-44.55 109.55 -43.4 110.5 M-49.35 116.35 L-49.45 116.2 Q-50.7 114.95 -50.7 113.4 -50.7 111.9 -49.3 110.75 -48.2 109.8 -46.95 109.65 -50.15 107.15 -55.0 105.0 -57.85 103.75 -61.3 102.55 -65.25 101.75 -67.5 102.9 -68.9 103.55 -69.7 105.0 -72.8 111.6 -71.95 120.15 -71.45 125.05 -66.4 123.95 L-64.25 122.7 Q-58.25 119.4 -49.35 116.35 L-48.6 116.9 M-64.25 122.7 L-73.5 129.15 Q-70.35 131.35 -69.35 134.6 -68.55 137.15 -66.45 138.0" fill="none" stroke="#000000" stroke-linecap="round" stroke-linejoin="round" stroke-width="2.0"/>
  </g>
</svg>
