<?xml version="1.0" encoding="UTF-8" standalone="no"?>
<svg xmlns:xlink="http://www.w3.org/1999/xlink" height="104.85px" width="196.2px" xmlns="http://www.w3.org/2000/svg">
  <g transform="matrix(1.0, 0.0, 0.0, 1.0, 98.1, 52.4)">
    <path d="M-7.1 -16.25 Q-13.65 7.05 -21.6 23.6 -30.3 41.55 -40.6 51.45 5.7 31.95 17.2 -8.35 L16.55 -20.95 M26.35 -48.35 Q27.95 -46.65 29.2 -44.6 34.65 -35.95 34.5 -21.65 L34.5 -15.05 34.45 -12.2 34.0 7.8 Q46.6 -5.9 44.35 -19.9 50.7 -6.75 50.75 6.75 60.25 -5.5 54.9 -17.7 50.25 -24.6 44.2 -29.95 M54.9 -17.7 Q58.55 -12.3 61.35 -5.95 L64.35 1.5 64.95 3.65 65.35 5.35 Q70.8 27.65 63.0 48.75 84.6 27.1 76.65 1.55 74.6 -5.05 70.7 -11.85 M76.65 1.55 Q80.9 11.65 95.45 14.45 88.5 10.1 85.55 1.3 82.6 -7.5 79.6 -12.4 70.35 -26.9 60.2 -30.9 M33.25 -48.4 Q36.3 -49.95 40.6 -50.05 63.65 -46.55 76.25 -28.35 88.8 -10.2 97.1 -5.4 85.95 -6.9 79.6 -12.4 M34.45 -12.2 Q32.5 24.5 7.45 50.4 18.05 27.85 17.2 -8.35 M-24.35 -21.25 Q-32.65 -13.7 -40.65 -2.55 -47.05 6.25 -53.0 16.15 L-53.05 16.3 Q-68.9 42.6 -79.25 45.3 L-79.5 45.35 -71.95 45.65 Q-40.9 45.65 -21.6 23.6 M3.05 -51.4 Q-35.65 -50.15 -62.0 -16.0 -80.4 7.75 -97.1 6.45 -73.4 14.9 -53.1 5.3 -46.7 2.25 -40.65 -2.55 M-53.1 5.3 Q-68.85 16.85 -84.25 18.6 -64.85 27.25 -53.05 16.3" fill="none" stroke="#123751" stroke-linecap="round" stroke-linejoin="round" stroke-width="2.0"/>
  </g>
</svg>
