<?xml version="1.0" encoding="UTF-8" standalone="no"?>
<svg xmlns:xlink="http://www.w3.org/1999/xlink" height="74.6px" width="106.05px" xmlns="http://www.w3.org/2000/svg">
  <g transform="matrix(1.0, 0.0, 0.0, 1.0, 53.0, 37.3)">
    <path d="M-1.9 -21.9 Q-1.2 -17.95 -1.85 -14.8 L-4.1 -6.2 Q-8.45 -10.7 -8.45 -17.2 -12.55 13.8 -7.4 29.85 -19.65 19.05 -22.75 4.35 L-19.35 22.7 Q-37.35 10.8 -37.3 -4.5 -44.8 19.0 -43.25 32.75 -61.9 6.9 -44.9 -24.2 -30.0 -36.3 -6.05 -37.3 22.35 -37.7 40.9 -28.45 62.45 1.75 45.85 26.6 46.0 14.5 36.85 -3.8 40.0 10.05 34.6 22.35 35.6 17.7 28.1 -0.1 30.4 18.05 17.5 37.3 15.7 5.4 -1.9 -21.9" fill="url(#gradient0)" fill-rule="evenodd" stroke="none"/>
  </g>
  <defs>
    <linearGradient gradientTransform="matrix(0.0, 0.0734, -0.0647, 0.0, 0.05, 40.9)" gradientUnits="userSpaceOnUse" id="gradient0" spreadMethod="pad" x1="-819.2" x2="819.2">
      <stop offset="0.0" stop-color="#fff23c" stop-opacity="0.0"/>
      <stop offset="0.3803921568627451" stop-color="#fff23c" stop-opacity="0.84705883"/>
      <stop offset="0.6039215686274509" stop-color="#fff23c" stop-opacity="0.8"/>
      <stop offset="1.0" stop-color="#fff23c" stop-opacity="0.0"/>
    </linearGradient>
  </defs>
</svg>
