<?xml version="1.0" encoding="UTF-8" standalone="no"?>
<svg xmlns:xlink="http://www.w3.org/1999/xlink" height="68.35px" width="127.55px" xmlns="http://www.w3.org/2000/svg">
  <g transform="matrix(1.0, 0.0, 0.0, 1.0, 63.75, 34.15)">
    <path d="M40.4 -30.25 Q54.7 -19.0 59.8 -1.4 64.85 16.15 63.55 34.2 L56.8 28.55 55.5 11.6 Q55.9 19.35 55.15 28.75 46.8 25.0 36.6 24.5 36.2 12.8 30.55 -2.8 33.55 12.75 33.25 24.45 L19.05 24.0 Q15.6 12.2 13.9 0.75 L15.15 23.8 Q3.7 22.85 -2.9 24.2 L-6.2 -4.45 Q-7.6 12.0 -6.2 23.65 -13.15 5.75 -13.95 -18.75 L-21.45 -17.15 Q-31.0 -18.5 -33.4 -1.9 -36.05 11.85 -36.45 26.7 L-49.8 28.5 Q-51.15 21.85 -51.1 12.75 -53.35 22.1 -53.65 29.55 L-62.9 30.65 Q-65.4 9.2 -60.75 -4.6 -56.1 -18.45 -48.8 -25.35 -32.35 -33.25 -0.65 -34.0 25.7 -34.9 40.4 -30.25" fill="url(#gradient0)" fill-rule="evenodd" stroke="none"/>
  </g>
  <defs>
    <linearGradient gradientTransform="matrix(0.0, 0.0862, -0.0779, 0.0, 0.05, 44.55)" gradientUnits="userSpaceOnUse" id="gradient0" spreadMethod="pad" x1="-819.2" x2="819.2">
      <stop offset="0.0" stop-color="#fff23c" stop-opacity="0.0"/>
      <stop offset="0.3803921568627451" stop-color="#fff23c" stop-opacity="0.84705883"/>
      <stop offset="0.6039215686274509" stop-color="#fff23c" stop-opacity="0.8"/>
      <stop offset="1.0" stop-color="#fff23c" stop-opacity="0.0"/>
    </linearGradient>
  </defs>
</svg>
