<?xml version="1.0" encoding="UTF-8" standalone="no"?>
<svg xmlns:xlink="http://www.w3.org/1999/xlink" height="121.95px" width="70.45px" xmlns="http://www.w3.org/2000/svg">
  <g transform="matrix(1.0, 0.0, 0.0, 1.0, 5.55, 46.5)">
    <path d="M46.75 -14.5 Q44.6 -19.5 41.85 -23.1 L46.75 -14.5 Q51.45 -3.45 53.35 14.55 56.4 43.75 44.9 70.5 L45.35 51.75 44.2 58.65 43.75 60.6 43.75 60.7 43.65 61.0 Q41.15 70.05 30.3 74.55 L35.25 63.15 Q31.95 69.7 26.3 75.45 35.0 57.25 33.7 33.35 32.05 5.9 19.2 -22.15 16.25 12.9 -5.55 40.5 -0.75 24.6 0.25 2.95 L0.25 2.9 Q7.55 -21.8 4.4 -46.45 L15.1 -46.4 Q36.25 -46.5 51.1 -23.5 65.9 -0.5 64.8 28.85 59.85 9.45 46.75 -14.5" fill="#ffffff" fill-rule="evenodd" stroke="none"/>
  </g>
</svg>
