<?xml version="1.0" encoding="UTF-8" standalone="no"?>
<svg xmlns:xlink="http://www.w3.org/1999/xlink" height="96.25px" width="166.15px" xmlns="http://www.w3.org/2000/svg">
  <g transform="matrix(1.0, 0.0, 0.0, 1.0, 83.1, 48.1)">
    <path d="M67.1 -23.0 Q74.75 -7.45 83.05 -5.65 75.8 1.25 68.65 -1.3 73.3 10.7 71.4 21.1 69.3 32.6 75.95 37.7 65.6 41.8 64.0 33.85 63.55 37.5 61.5 41.25 55.3 48.7 44.95 42.5 53.5 39.45 54.5 24.9 L52.25 26.15 Q56.85 18.9 47.4 -2.6 48.05 4.55 42.55 9.1 40.85 -1.7 29.5 -18.1 33.4 1.1 21.0 15.5 20.65 8.1 16.95 -1.5 17.65 8.75 10.65 14.9 2.8 21.55 -9.85 23.45 1.6 7.4 -3.3 -9.85 -6.15 -19.8 -6.6 -27.6 -9.35 -3.65 -33.55 3.3 L-34.05 3.45 Q-36.5 6.95 -37.95 10.6 -41.35 24.8 -32.55 35.5 -27.95 41.05 -22.1 41.55 -29.35 48.15 -35.7 48.15 -42.45 48.1 -48.85 42.65 -52.1 39.85 -54.0 37.1 -59.0 48.15 -77.15 43.85 -67.25 41.35 -69.3 27.3 -71.4 13.0 -65.0 3.8 -73.1 2.1 -83.1 -3.2 -72.5 -2.8 -56.65 -19.2 -43.05 -35.45 -30.7 -41.0 -29.15 -43.1 -26.15 -43.85 -9.2 -48.4 16.65 -48.1 32.0 -48.15 45.4 -44.1 59.45 -38.6 67.1 -23.0" fill="#8ef7aa" fill-rule="evenodd" stroke="none"/>
  </g>
</svg>
