<?xml version="1.0" encoding="UTF-8" standalone="no"?>
<svg xmlns:xlink="http://www.w3.org/1999/xlink" height="83.15px" width="167.75px" xmlns="http://www.w3.org/2000/svg">
  <g transform="matrix(1.0, 0.0, 0.0, 1.0, 83.85, 41.55)">
    <path d="M16.05 17.75 Q17.85 16.15 19.25 14.3 17.9 16.75 16.05 17.75" fill="#f78cde" fill-rule="evenodd" stroke="none"/>
    <path d="M24.95 -8.55 L25.0 -7.3 25.05 -6.35 Q25.2 -1.4 24.35 2.85 L23.65 5.5 22.55 8.7 18.2 20.65 Q33.4 6.35 33.95 -9.0 L33.95 -9.05 Q34.3 -18.0 29.7 -27.35 M3.1 -22.15 Q0.6 -14.85 0.3 -5.8 0.15 -0.8 0.65 4.8 2.05 20.3 -0.15 25.4 9.95 23.15 16.05 17.75 17.85 16.15 19.25 14.3 L20.55 12.45 22.55 8.7 M51.65 -15.45 Q57.6 -0.85 55.15 11.2 L55.05 11.75 Q54.5 29.85 51.45 40.6 60.85 32.75 64.35 22.3 L64.4 22.05 Q66.85 14.65 66.85 6.1 66.8 -1.85 64.65 -10.85 L64.6 -11.05 64.55 -11.15 64.25 -12.05 63.1 -15.15 62.8 -15.75 Q55.45 -32.15 34.05 -40.55 M41.65 -19.35 Q43.35 -13.15 43.4 -7.15 48.4 11.85 47.85 26.5 53.3 19.7 55.05 11.75 M64.65 -10.85 Q73.0 12.5 82.9 15.55 70.1 18.25 66.85 6.1 M33.95 -9.0 Q38.5 5.35 37.15 15.7 43.45 4.65 43.4 -7.15 M-50.6 -22.15 Q-58.65 -15.2 -64.0 -1.2 -69.4 12.8 -82.85 19.5 -64.9 19.55 -60.8 8.05 L-60.35 6.05 Q-58.2 -3.3 -53.6 -9.2 M-24.15 1.65 L-25.25 6.4 Q-27.6 15.55 -30.15 20.15 -13.65 13.0 -10.95 -10.35 -10.55 -15.15 -9.5 -20.2 M-25.25 6.4 Q-29.75 17.9 -43.2 23.15 -40.1 17.7 -37.45 11.9 L-44.3 18.9 Q-47.8 28.5 -49.25 38.1 -52.8 32.55 -53.25 22.6 -56.05 29.45 -66.95 33.15 -63.45 23.75 -62.45 17.35 L-60.8 8.05 M-36.7 -1.1 L-44.3 18.9 M0.3 -5.8 Q-5.3 12.5 -5.95 19.3 -12.25 5.6 -10.95 -10.35 M-37.45 11.9 Q-32.35 0.5 -29.1 -12.2 M-53.25 22.6 Q-53.95 8.65 -49.75 -4.75" fill="none" stroke="#000000" stroke-linecap="round" stroke-linejoin="round" stroke-width="2.0"/>
  </g>
</svg>
