<?xml version="1.0" encoding="UTF-8" standalone="no"?>
<svg xmlns:xlink="http://www.w3.org/1999/xlink" height="111.75px" width="120.95px" xmlns="http://www.w3.org/2000/svg">
  <g transform="matrix(1.0, 0.0, 0.0, 1.0, 60.5, 55.85)">
    <path d="M-30.0 -35.55 Q-16.1 -49.35 14.25 -51.25 10.55 -55.15 3.0 -54.8 -30.25 -50.8 -46.8 -26.35 -62.25 -1.6 -58.9 22.7 -55.6 47.0 -36.25 53.5 -24.3 57.55 -14.0 49.9 -23.6 49.25 -30.15 44.5 L-30.25 44.4 -30.3 44.35 Q-43.8 35.35 -42.2 18.45 M27.9 -38.2 L25.35 -42.2 Q22.8 -45.6 19.45 -48.1 L18.1 -49.05 14.25 -51.25 M-30.15 44.5 Q-24.8 45.9 -21.45 42.9 -32.35 41.25 -34.75 27.0 -35.3 17.45 -32.15 7.9 -23.0 -12.4 -1.3 -21.05 20.35 -29.75 28.6 -34.7 35.8 -20.7 59.45 -9.15" fill="none" stroke="#000000" stroke-linecap="round" stroke-linejoin="round" stroke-width="2.0"/>
  </g>
</svg>
