<?xml version="1.0" encoding="UTF-8" standalone="no"?>
<svg xmlns:xlink="http://www.w3.org/1999/xlink" height="68.65px" width="129.4px" xmlns="http://www.w3.org/2000/svg">
  <g transform="matrix(1.0, 0.0, 0.0, 1.0, 64.7, 34.3)">
    <path d="M55.85 26.2 Q54.85 25.65 53.3 25.25 51.0 24.55 47.45 24.15 L41.5 23.6 Q41.65 4.7 34.0 -13.25 36.95 -2.1 35.8 6.5 34.0 19.4 31.15 21.85 23.25 23.35 15.35 21.85 16.65 9.0 15.35 -8.55 13.65 8.45 14.65 21.85 9.45 21.15 6.2 21.85 5.35 7.4 4.75 -10.8 2.8 12.35 4.2 22.25 -5.55 23.65 -9.15 22.25 -16.85 14.85 -17.3 1.0 -17.55 -6.4 -16.65 -12.8 -22.6 10.85 -39.85 21.85 -32.7 15.35 -27.95 -1.1 -35.95 15.85 -46.65 21.1 -57.35 26.3 -64.7 26.5 -47.65 15.4 -38.75 -16.8 -14.9 -38.25 32.75 -33.4 39.3 -33.4 49.05 -25.45 58.8 -17.55 62.75 -1.3 66.65 14.9 62.7 33.05 61.15 35.25 54.65 33.75 L55.85 26.2" fill="#5686b1" fill-rule="evenodd" stroke="none"/>
  </g>
</svg>
