<?xml version="1.0" encoding="UTF-8" standalone="no"?>
<svg xmlns:xlink="http://www.w3.org/1999/xlink" height="149.7px" width="185.8px" xmlns="http://www.w3.org/2000/svg">
  <g transform="matrix(1.0, 0.0, 0.0, 1.0, 92.9, 74.85)">
    <path d="M21.05 -41.5 Q17.2 -45.75 22.6 -50.05 28.6 -53.15 35.7 -52.95 44.05 -53.3 43.15 -61.3 42.2 -69.3 34.95 -70.1 28.7 -69.75 28.0 -63.3 23.6 -69.45 35.25 -73.85 43.7 -73.55 48.25 -65.15 52.3 -55.95 47.5 -48.05 45.5 -44.8 37.9 -41.7 53.65 -37.25 61.95 -18.8 69.7 -14.5 76.75 -17.2 83.8 -19.95 80.3 -35.95 85.85 -29.5 87.2 -23.1 86.95 -13.15 81.2 -9.15 75.55 -5.25 70.35 -6.0 80.35 -3.85 88.8 7.2 97.2 18.2 82.9 34.75 90.85 17.05 80.2 9.7 73.7 5.15 70.05 2.95 87.65 24.6 70.05 35.7 L70.0 35.7 Q70.05 58.75 55.0 73.85 69.1 51.8 50.4 2.7 L49.8 1.1 Q44.55 16.6 20.15 35.75 12.8 43.25 2.95 51.0 18.0 33.9 24.1 1.4 18.4 27.4 -15.45 41.6 -2.65 32.35 5.45 17.5 -9.15 39.85 -37.3 50.7 -14.65 37.2 -2.8 14.7 -17.75 41.6 -59.2 42.45 -89.75 40.9 -89.45 61.9 -93.4 55.05 -91.0 48.7 -86.0 37.5 -69.15 32.75 L-62.6 32.4 -65.0 31.65 Q-77.2 26.8 -82.75 19.15 -88.3 11.4 -84.5 1.25 -77.7 -10.0 -69.25 -5.2 -78.15 -4.75 -78.15 1.65 -78.15 8.0 -73.85 11.9 -56.2 22.3 -38.9 1.9 -21.6 -18.5 -8.6 -29.35 4.4 -40.25 12.0 -42.6 16.35 -43.95 21.05 -41.5 24.4 -39.7 27.95 -35.85 31.8 -40.85 36.55 -42.05 L37.9 -41.7 M31.5 -31.6 L27.95 -35.85 M26.4 -9.7 Q25.75 -5.9 24.75 -2.3 L24.1 1.4 M61.95 -18.8 L62.9 -16.5 M70.35 -6.0 Q67.3 -6.4 64.4 -8.45 M20.15 35.75 L23.95 31.6 26.2 29.0 27.05 28.0 Q39.0 13.1 40.6 -0.9 41.2 -6.1 40.35 -11.2 M60.1 -6.55 Q68.9 14.6 69.9 31.65 73.6 20.85 71.75 12.85 77.9 25.7 70.05 35.7 M70.0 35.7 L69.9 31.65 M70.05 2.95 Q67.8 1.55 66.65 1.1 M-2.8 14.7 Q-1.1 11.65 0.25 8.2 L0.45 7.8 2.6 1.15 M5.45 17.5 L7.65 13.9 Q13.0 4.7 16.25 -6.3 M49.8 1.1 Q52.2 -6.1 50.5 -12.55 M-62.6 32.4 Q-48.5 33.9 -31.05 23.6 -15.35 14.3 -11.9 1.15" fill="none" stroke="#000000" stroke-linecap="round" stroke-linejoin="round" stroke-width="2.0"/>
  </g>
</svg>
