<?xml version="1.0" encoding="UTF-8" standalone="no"?>
<svg xmlns:xlink="http://www.w3.org/1999/xlink" height="32.05px" width="116.3px" xmlns="http://www.w3.org/2000/svg">
  <g transform="matrix(1.0, 0.0, 0.0, 1.0, 58.15, 16.0)">
    <path d="M39.55 -9.95 Q45.95 -7.45 50.55 -4.1 55.3 -0.65 58.15 3.75 57.65 9.55 56.6 16.05 54.8 12.5 46.95 11.05 L47.25 9.1 Q44.1 8.0 40.45 7.45 40.85 -0.7 39.55 -9.95 M24.7 -13.35 Q25.1 -6.7 24.55 -0.05 L17.5 -1.55 Q17.7 -9.0 17.05 -15.4 L24.65 -14.15 Q32.85 -12.55 39.3 -10.05 39.45 -2.8 38.65 4.3 32.9 2.05 26.05 0.35 L24.7 -13.35 M-8.15 -15.45 L0.65 -16.0 Q-0.35 -9.6 -0.65 -2.15 L-7.05 -1.4 Q-8.1 -8.4 -8.15 -15.45 M-29.65 -12.55 Q-20.5 -14.4 -9.7 -15.3 -10.55 -9.15 -10.95 -1.25 L-29.0 0.5 Q-30.7 -6.2 -29.65 -12.55 -32.1 -6.05 -32.45 1.2 -48.2 5.85 -54.95 12.75 -57.25 4.7 -58.15 -2.55 -46.8 -9.15 -29.65 -12.55" fill="#72ffbd" fill-rule="evenodd" stroke="none"/>
  </g>
</svg>
