<?xml version="1.0" encoding="UTF-8" standalone="no"?>
<svg xmlns:xlink="http://www.w3.org/1999/xlink" height="109.8px" width="192.35px" xmlns="http://www.w3.org/2000/svg">
  <g transform="matrix(1.0, 0.0, 0.0, 1.0, 86.15, 11.05)">
    <path d="M106.2 40.4 Q98.3 21.2 91.85 11.3 98.6 18.4 102.3 25.7 L103.85 29.0 Q104.3 30.25 106.2 40.4 M65.0 -0.1 Q90.5 30.15 91.1 50.85 91.65 71.55 91.55 95.1 87.8 58.5 82.1 40.7 75.25 19.55 64.3 1.05 L64.1 0.5 Q64.1 -0.2 65.0 -0.1 M16.75 18.4 Q12.85 6.6 11.6 -9.95 24.7 31.4 33.85 47.15 25.55 36.6 20.85 27.8 18.3 22.9 16.75 18.4 M59.45 95.15 Q69.2 81.65 75.75 68.1 71.5 80.9 67.15 87.8 L65.5 90.25 59.45 95.15 M-72.55 42.95 Q-78.4 55.0 -83.9 68.05 L-84.25 68.65 Q-84.9 69.6 -86.15 70.1 -84.8 59.1 -78.2 48.6 L-75.1 44.0 Q-74.05 42.55 -72.55 42.95 M-37.85 44.75 Q-36.5 62.75 -34.4 82.4 L-33.25 98.75 Q-40.5 79.45 -39.75 62.75 -38.95 46.1 -37.85 44.75 M-47.45 28.9 Q-56.7 52.35 -63.9 87.05 -60.35 34.1 -47.25 15.85 -34.4 -2.2 -20.8 -11.05 -38.25 5.7 -47.45 28.9" fill="#ffffff" fill-rule="evenodd" stroke="none"/>
  </g>
</svg>
