<?xml version="1.0" encoding="UTF-8" standalone="no"?>
<svg xmlns:xlink="http://www.w3.org/1999/xlink" height="159.35px" width="66.45px" xmlns="http://www.w3.org/2000/svg">
  <g transform="matrix(1.0, 0.0, 0.0, 1.0, -10.95, 63.95)">
    <path d="M59.45 -40.95 Q73.65 -23.1 77.1 -2.05 79.2 18.25 65.7 47.25 65.75 50.4 67.5 56.35 72.75 74.25 67.25 95.0 66.3 83.9 60.3 67.85 58.75 64.3 58.1 60.2 52.65 84.75 59.1 95.4 41.35 79.5 57.8 29.35 53.75 35.05 48.25 40.65 57.5 26.7 59.05 8.05 36.85 -1.0 28.45 -22.75 15.05 -48.45 10.95 -63.95 35.7 -62.6 59.45 -40.95" fill="#ffffff" fill-rule="evenodd" stroke="none"/>
  </g>
</svg>
