<?xml version="1.0" encoding="UTF-8" standalone="no"?>
<svg xmlns:xlink="http://www.w3.org/1999/xlink" height="18.05px" width="91.55px" xmlns="http://www.w3.org/2000/svg">
  <g transform="matrix(1.0, 0.0, 0.0, 1.0, 95.05, 48.4)">
    <path d="M-89.55 -45.65 Q-85.65 -41.65 -92.35 -37.65 -95.8 -35.6 -94.85 -39.45 -93.8 -43.95 -89.55 -45.65 M-52.4 -43.3 Q-46.6 -37.45 -52.65 -31.15 -54.6 -29.2 -55.45 -31.9 -57.7 -39.0 -52.4 -43.3 M-23.75 -43.1 Q-17.7 -39.05 -23.15 -34.8 -23.9 -34.2 -24.45 -35.35 -26.95 -40.55 -23.75 -43.1 M-8.85 -48.4 Q-1.65 -44.6 -4.15 -38.85 -4.45 -38.1 -5.4 -38.75 -12.7 -44.0 -8.85 -48.4" fill="#ffffff" fill-rule="evenodd" stroke="none"/>
  </g>
</svg>
