<?xml version="1.0" encoding="UTF-8" standalone="no"?>
<svg xmlns:xlink="http://www.w3.org/1999/xlink" height="18.65px" width="94.15px" xmlns="http://www.w3.org/2000/svg">
  <g transform="matrix(1.0, 0.0, 0.0, 1.0, 73.8, 33.85)">
    <path d="M15.0 -33.25 Q22.2 -29.45 19.7 -23.7 19.4 -22.95 18.45 -23.6 11.15 -28.85 15.0 -33.25 M-68.3 -33.85 Q-64.4 -29.85 -71.1 -25.85 -74.55 -23.8 -73.6 -27.65 -72.55 -32.15 -68.3 -33.85 M-59.55 -18.85 Q-59.7 -23.45 -56.0 -26.2 -51.2 -23.4 -56.65 -17.8 -59.45 -14.9 -59.55 -18.85 M-31.15 -28.15 Q-25.35 -22.3 -31.4 -16.0 -33.35 -14.05 -34.2 -16.75 -36.45 -23.85 -31.15 -28.15 M-4.4 -27.95 Q1.65 -23.9 -3.8 -19.65 -4.55 -19.05 -5.1 -20.2 -7.6 -25.4 -4.4 -27.95" fill="#ffffff" fill-rule="evenodd" stroke="none"/>
  </g>
</svg>
