<?xml version="1.0" encoding="UTF-8" standalone="no"?>
<svg xmlns:xlink="http://www.w3.org/1999/xlink" height="44.5px" width="87.45px" xmlns="http://www.w3.org/2000/svg">
  <g transform="matrix(1.0, 0.0, 0.0, 1.0, 43.7, 22.25)">
    <path d="M31.95 -4.25 Q44.55 9.75 43.7 22.25 L43.65 22.15 Q40.0 11.75 29.95 0.9 26.4 3.6 21.65 5.75 L19.65 4.9 20.25 6.35 Q13.8 9.0 5.4 10.7 -5.05 12.75 -18.55 13.25 L-20.6 9.1 -19.4 13.3 Q-30.55 13.7 -43.7 13.05 -31.65 10.9 -20.9 7.85 2.35 1.2 19.15 -9.85 16.9 -16.05 9.35 -22.25 19.35 -18.25 31.95 -4.25" fill="#ffffff" fill-rule="evenodd" stroke="none"/>
  </g>
</svg>
