<?xml version="1.0" encoding="UTF-8" standalone="no"?>
<svg xmlns:xlink="http://www.w3.org/1999/xlink" height="85.8px" width="116.4px" xmlns="http://www.w3.org/2000/svg">
  <g transform="matrix(1.0, 0.0, 0.0, 1.0, 58.2, 42.9)">
    <path d="M-30.1 -7.55 L-30.05 -6.95 Q-39.5 14.3 -37.85 30.95 -46.8 24.05 -47.15 10.35 L-47.15 16.55 -47.05 19.45 Q-46.45 30.55 -44.2 38.55 -66.7 21.5 -53.05 -11.75 -39.6 -31.75 -24.8 -37.2 -7.2 -44.35 10.65 -42.55 16.6 -39.7 22.75 -37.55 45.5 -29.95 53.35 -11.45 66.6 19.0 43.55 42.9 48.95 31.3 46.5 8.65 44.95 20.05 38.4 29.3 40.3 17.45 39.15 -2.25 35.2 12.2 19.4 27.75 L25.35 16.3 Q19.85 25.8 10.75 34.25 L16.35 14.45 Q12.75 25.75 7.25 35.15 1.45 24.95 -2.1 14.1 L0.6 29.3 Q-13.35 14.7 -16.85 0.3 -13.95 14.15 -7.05 25.85 -27.45 9.35 -30.1 -7.55" fill="#404046" fill-rule="evenodd" stroke="none"/>
  </g>
</svg>
