<?xml version="1.0" encoding="UTF-8" standalone="no"?>
<svg xmlns:xlink="http://www.w3.org/1999/xlink" height="91.3px" width="179.9px" xmlns="http://www.w3.org/2000/svg">
  <g transform="matrix(1.0, 0.0, 0.0, 1.0, 89.95, 45.65)">
    <path d="M12.6 -15.95 L13.9 -14.35 Q17.7 -10.1 22.7 -7.7 27.7 -5.25 34.0 -4.85 42.35 -7.05 48.3 -10.9 L50.05 -12.15 Q56.9 -17.4 60.0 -25.05 L60.55 -26.35 Q52.6 -20.8 46.1 -18.75 38.75 -16.45 33.3 -18.65 22.95 -22.85 19.6 -23.75 M53.6 -0.9 L61.25 5.4 Q68.4 9.5 74.3 6.95 81.95 3.6 87.6 -10.7 80.25 -4.9 73.45 -3.3 64.45 -1.25 56.4 -6.5 54.75 -7.05 53.1 -7.9 M50.05 -12.15 Q61.1 -7.4 69.0 -10.15 78.4 -13.5 83.3 -27.6 78.3 -10.3 69.05 -6.35 67.2 -5.6 65.2 -5.35 61.15 -4.85 56.4 -6.5 M23.05 -3.5 Q23.4 2.65 24.05 8.2 28.2 19.75 43.5 26.4 L49.55 26.05 Q51.5 25.6 53.25 24.65 56.05 23.2 58.7 20.75 62.65 16.95 66.2 10.7 L67.45 8.2 65.1 9.85 Q60.9 12.55 56.85 13.7 L56.35 13.85 53.5 14.3 Q42.2 15.5 32.2 3.65 M61.25 5.4 L61.7 6.0 Q63.25 8.35 65.1 9.85 M66.2 10.7 Q69.6 13.0 73.8 12.95 L76.5 12.5 Q81.45 11.15 88.95 6.25 84.75 16.75 79.2 20.55 72.0 25.45 62.4 19.0 68.1 26.7 74.15 31.1 79.35 34.9 84.8 36.15 77.65 37.75 71.95 37.4 58.65 36.45 53.25 24.65 M8.1 -1.05 Q8.15 1.85 8.35 4.65 10.6 13.35 15.15 20.75 23.2 33.75 38.5 42.6 29.6 33.85 25.7 17.1 24.7 12.9 24.05 8.2 M-4.75 -2.7 Q-5.3 0.2 -6.15 3.1 -6.9 13.45 -0.85 23.5 5.55 34.25 19.65 44.65 13.1 34.95 10.25 20.35 8.85 13.1 8.35 4.65 M4.15 -16.0 Q1.3 -11.0 -3.7 -10.45 -12.55 -13.6 -17.95 -24.25 -20.6 -27.85 -25.25 -26.5 -29.95 -25.15 -37.45 -17.0 -42.0 -12.15 -46.95 -9.3 -50.35 -7.4 -53.95 -6.4 -62.95 -4.0 -76.05 -8.8 -71.3 -4.5 -61.4 -0.25 -58.05 1.15 -53.95 1.75 L-53.7 1.75 -44.25 2.1 -38.5 1.5 Q-21.8 -1.1 -14.55 -15.7 M3.45 -21.75 Q-2.85 -20.0 -11.75 -26.95 L-16.75 -31.35 Q-20.0 -34.55 -25.95 -43.6 L-26.6 -44.65 Q-24.0 -36.8 -21.15 -30.8 L-18.85 -26.1 -17.95 -24.25 M-18.2 -1.05 L-18.75 0.35 Q-22.9 10.85 -28.7 17.4 -37.65 27.45 -50.5 28.15 L-47.3 29.05 -43.1 29.95 -37.65 30.6 Q-25.4 31.4 -17.95 24.95 -14.85 22.25 -12.6 18.25 -8.4 10.9 -6.15 3.1 M-37.65 30.6 Q-43.85 42.5 -59.15 42.8 -64.9 42.9 -71.95 41.4 -65.55 39.2 -60.55 35.25 -56.9 32.35 -54.0 28.55 L-53.6 27.95 -53.5 27.85 -53.5 27.8 Q-60.35 32.4 -68.9 30.0 -75.65 28.1 -83.45 21.8 -76.0 24.45 -69.95 23.95 -60.9 23.15 -55.0 15.25 L-54.15 14.15 Q-67.7 19.9 -78.75 7.4 -84.15 1.3 -88.95 -9.2 -81.0 1.0 -72.85 4.1 -63.55 7.65 -53.95 1.75 M-54.15 14.15 L-51.85 10.55 M-53.5 27.85 L-51.45 25.6 -53.5 27.8 M-51.45 25.6 Q-48.15 21.35 -45.85 15.75" fill="none" stroke="#000000" stroke-linecap="round" stroke-linejoin="round" stroke-width="2.0"/>
  </g>
</svg>
