<?xml version="1.0" encoding="UTF-8" standalone="no"?>
<svg xmlns:xlink="http://www.w3.org/1999/xlink" height="89.05px" width="121.4px" xmlns="http://www.w3.org/2000/svg">
  <g transform="matrix(1.0, 0.0, 0.0, 1.0, 60.7, 44.5)">
    <path d="M60.3 0.3 Q63.05 21.05 46.5 35.35 L47.1 27.2 Q43.3 38.75 33.3 42.35 L32.75 29.6 Q31.3 40.4 20.15 42.7 20.7 38.2 18.85 28.1 L18.6 28.8 Q13.9 41.45 9.7 44.55 0.25 37.95 -3.95 28.5 L-2.1 43.1 Q-18.2 40.45 -23.25 28.65 -22.25 39.0 -19.15 43.45 -42.2 40.3 -44.8 22.0 L-43.1 36.7 Q-56.25 27.45 -58.95 17.1 -61.65 6.75 -60.15 1.0 -58.0 -15.05 -48.2 -27.45 -38.45 -39.8 -2.4 -44.5 26.2 -44.0 36.6 -38.2 46.95 -32.45 52.25 -26.45 57.5 -20.45 60.3 0.3" fill="url(#gradient0)" fill-rule="evenodd" stroke="none"/>
  </g>
  <defs>
    <linearGradient gradientTransform="matrix(0.0, 0.0786, -0.0741, 0.0, 0.0, 40.65)" gradientUnits="userSpaceOnUse" id="gradient0" spreadMethod="pad" x1="-819.2" x2="819.2">
      <stop offset="0.0" stop-color="#fff23c" stop-opacity="0.0"/>
      <stop offset="0.3803921568627451" stop-color="#fff23c" stop-opacity="0.84705883"/>
      <stop offset="0.6039215686274509" stop-color="#fff23c" stop-opacity="0.8"/>
      <stop offset="1.0" stop-color="#fff23c" stop-opacity="0.0"/>
    </linearGradient>
  </defs>
</svg>
