<?xml version="1.0" encoding="UTF-8" standalone="no"?>
<svg xmlns:xlink="http://www.w3.org/1999/xlink" height="17.25px" width="98.9px" xmlns="http://www.w3.org/2000/svg">
  <g transform="matrix(1.0, 0.0, 0.0, 1.0, 63.7, 40.15)">
    <path d="M5.7 -35.65 Q11.75 -31.6 6.3 -27.35 5.55 -26.75 5.0 -27.9 2.5 -33.1 5.7 -35.65 M29.85 -40.15 Q37.05 -36.35 34.55 -30.6 34.25 -29.85 33.3 -30.5 26.0 -35.75 29.85 -40.15 M-58.2 -38.2 Q-54.3 -34.2 -61.0 -30.2 -64.45 -28.15 -63.5 -32.0 -62.45 -36.5 -58.2 -38.2 M-21.05 -35.85 Q-15.25 -30.0 -21.3 -23.7 -23.25 -21.75 -24.1 -24.45 -26.35 -31.55 -21.05 -35.85" fill="#ffffff" fill-rule="evenodd" stroke="none"/>
  </g>
</svg>
