<?xml version="1.0" encoding="UTF-8" standalone="no"?>
<svg xmlns:xlink="http://www.w3.org/1999/xlink" height="105.85px" width="160.15px" xmlns="http://www.w3.org/2000/svg">
  <g transform="matrix(1.0, 0.0, 0.0, 1.0, 80.1, 52.9)">
    <path d="M42.4 -45.8 Q60.85 -31.85 67.75 -11.9 74.6 8.0 80.05 8.8 66.4 8.5 59.55 -5.9 70.75 23.25 68.25 48.5 66.6 40.25 60.35 26.3 20.75 9.45 12.0 -17.0 13.3 5.0 19.95 19.05 -2.85 4.45 -4.15 -17.05 -3.55 3.9 3.05 19.35 -25.75 3.05 -23.95 -23.0 L-24.45 -20.9 Q-32.0 10.05 -30.2 38.85 -38.45 21.3 -40.0 2.8 -44.8 35.5 -44.0 52.95 -64.3 28.1 -58.0 -2.15 -66.25 14.7 -80.1 19.35 -73.45 11.0 -66.8 -8.05 -60.15 -27.1 -51.95 -36.9 -32.9 -50.45 0.75 -52.9 25.15 -52.45 42.4 -45.8" fill="url(#gradient0)" fill-rule="evenodd" stroke="none"/>
  </g>
  <defs>
    <linearGradient gradientTransform="matrix(0.0, 0.0727, -0.0977, 0.0, 0.0, 37.25)" gradientUnits="userSpaceOnUse" id="gradient0" spreadMethod="pad" x1="-819.2" x2="819.2">
      <stop offset="0.0" stop-color="#fff23c" stop-opacity="0.0"/>
      <stop offset="0.3803921568627451" stop-color="#fff23c" stop-opacity="0.84705883"/>
      <stop offset="0.6039215686274509" stop-color="#fff23c" stop-opacity="0.8"/>
      <stop offset="1.0" stop-color="#fff23c" stop-opacity="0.0"/>
    </linearGradient>
  </defs>
</svg>
