<?xml version="1.0" encoding="UTF-8" standalone="no"?>
<svg xmlns:xlink="http://www.w3.org/1999/xlink" height="100.35px" width="151.8px" xmlns="http://www.w3.org/2000/svg">
  <g transform="matrix(1.0, 0.0, 0.0, 1.0, 75.9, 50.15)">
    <path d="M5.6 -50.15 Q25.0 -49.9 39.7 -46.95 70.7 -18.2 75.9 21.8 70.2 12.0 56.85 -2.2 61.45 20.8 58.45 43.35 L39.0 -20.45 Q43.3 -0.7 39.65 16.35 35.45 -4.8 23.5 -31.45 22.2 -3.8 7.5 17.7 L9.75 -2.95 Q5.9 16.05 -5.15 31.4 -6.05 11.5 -8.75 -3.6 -11.5 -18.7 -12.7 -35.65 -42.35 8.65 -57.45 50.2 -60.05 25.8 -56.5 2.3 -65.7 14.2 -75.9 28.3 -67.9 -13.1 -38.95 -45.2 -20.1 -50.5 5.6 -50.15" fill="url(#gradient0)" fill-rule="evenodd" stroke="none"/>
  </g>
  <defs>
    <linearGradient gradientTransform="matrix(0.0, 0.0742, -0.0927, 0.0, 0.0, 38.0)" gradientUnits="userSpaceOnUse" id="gradient0" spreadMethod="pad" x1="-819.2" x2="819.2">
      <stop offset="0.0" stop-color="#fff23c" stop-opacity="0.0"/>
      <stop offset="0.3803921568627451" stop-color="#fff23c" stop-opacity="0.84705883"/>
      <stop offset="0.6039215686274509" stop-color="#fff23c" stop-opacity="0.8"/>
      <stop offset="1.0" stop-color="#fff23c" stop-opacity="0.0"/>
    </linearGradient>
  </defs>
</svg>
