<?xml version="1.0" encoding="UTF-8" standalone="no"?>
<svg xmlns:xlink="http://www.w3.org/1999/xlink" height="80.25px" width="135.05px" xmlns="http://www.w3.org/2000/svg">
  <g transform="matrix(1.0, 0.0, 0.0, 1.0, 67.5, 40.1)">
    <path d="M-52.8 4.25 L-52.75 4.85 -52.8 4.35 -52.8 4.25" fill="#83ffd2" fill-rule="evenodd" stroke="none"/>
    <path d="M21.05 -38.85 Q21.15 -36.25 21.55 -33.8 L22.4 -28.7 Q22.85 -26.45 23.45 -24.3 29.7 -11.25 44.5 -7.95 L49.5 -7.2 Q40.95 -14.25 36.7 -31.0 L35.6 -35.8 M7.05 -38.4 L7.05 -37.05 7.65 -32.05 8.3 -27.8 8.9 -24.35 9.2 -23.65 9.35 -23.25 Q10.1 -21.4 11.2 -19.55 17.3 -9.7 33.85 -3.9 26.8 -12.45 23.45 -24.3 M-6.05 -39.1 Q-6.25 -34.9 -7.05 -31.05 L-7.8 -28.1 -8.2 -26.9 Q-3.95 -8.75 20.9 -7.95 16.55 -9.5 11.2 -19.55 M49.85 -24.75 Q58.6 6.1 66.55 26.3 57.0 22.0 51.0 11.4 44.95 0.75 44.5 -7.95 M-48.6 -25.25 Q-51.5 -18.95 -52.25 -15.65 -54.4 -6.8 -52.8 4.25 L-52.75 4.85 Q-51.1 15.75 -44.7 29.95 -39.8 7.5 -31.0 -7.85 L-30.75 -8.45 -25.0 -22.65 -21.5 -29.05 -20.5 -30.65 -18.65 -33.85 -17.95 -35.0 M-25.0 -22.65 Q-27.8 -15.8 -28.95 -9.0 L-31.05 1.65 Q-12.15 -11.5 -8.2 -26.9 M-52.8 4.25 L-52.8 4.35 -52.75 4.85 Q-52.7 25.85 -48.4 39.15 -78.6 15.0 -58.4 -25.1" fill="none" stroke="#000000" stroke-linecap="round" stroke-linejoin="round" stroke-width="2.0"/>
  </g>
</svg>
