<?xml version="1.0" encoding="UTF-8" standalone="no"?>
<svg xmlns:xlink="http://www.w3.org/1999/xlink" height="53.25px" width="108.7px" xmlns="http://www.w3.org/2000/svg">
  <g transform="matrix(1.0, 0.0, 0.0, 1.0, 54.35, 26.65)">
    <path d="M-53.35 16.05 Q-49.3 10.05 -45.65 5.75 -42.3 1.8 -39.3 -0.75 L-20.8 -16.05 -22.8 -3.85 Q-12.65 -12.6 -2.0 -24.15 -0.25 -13.95 -6.85 -6.75 3.65 -16.2 20.7 -25.65 21.7 -12.85 16.65 -6.15 20.7 -10.45 23.95 -14.9 28.35 -20.9 31.25 -25.65 35.75 -8.25 34.9 0.7 36.0 -4.75 44.1 -17.4 49.4 -2.7 45.75 7.6 L51.35 -4.25 Q55.9 13.75 50.1 25.6 M16.65 -6.15 Q15.4 -4.55 13.8 -3.25 M-29.0 1.35 L-23.15 -3.55 -22.8 -3.85 M-9.55 -4.25 L-6.85 -6.75" fill="none" stroke="#000000" stroke-linecap="round" stroke-linejoin="round" stroke-width="2.0"/>
  </g>
</svg>
