<?xml version="1.0" encoding="UTF-8" standalone="no"?>
<svg xmlns:xlink="http://www.w3.org/1999/xlink" height="74.65px" width="121.05px" xmlns="http://www.w3.org/2000/svg">
  <g transform="matrix(1.0, 0.0, 0.0, 1.0, 60.5, 37.35)">
    <path d="M1.35 -11.65 Q-1.4 -10.15 -4.5 -9.5 0.55 -12.95 0.65 -17.9 -7.75 -14.25 -21.4 -14.05 7.05 -22.65 17.85 -36.6 12.1 -17.55 1.35 -11.65 M9.5 34.55 L5.95 33.35 Q33.5 38.05 50.9 15.65 L38.1 15.95 38.15 15.9 Q47.1 9.2 46.1 -5.5 35.25 0.9 18.6 1.1 25.25 -7.75 37.35 -16.65 17.85 -9.25 3.0 -11.8 37.1 -15.1 54.2 -37.35 48.0 -14.6 29.85 -4.9 48.45 -8.9 57.6 -15.45 52.3 9.2 38.8 15.65 54.65 12.35 60.55 5.8 54.8 24.5 46.8 29.75 L46.45 29.95 46.25 30.1 Q41.25 33.75 35.75 35.6 30.65 37.25 25.1 37.3 17.7 37.35 9.5 34.55 M-25.55 -12.85 Q-32.8 -8.6 -42.05 -5.95 -32.45 -11.45 -27.75 -18.5 L-60.5 -10.35 Q-52.25 -16.85 -39.85 -18.8 -17.65 -23.8 -6.95 -31.65 -13.4 -20.0 -25.55 -12.85" fill="#72ffbd" fill-rule="evenodd" stroke="none"/>
  </g>
</svg>
