<?xml version="1.0" encoding="UTF-8" standalone="no"?>
<svg xmlns:xlink="http://www.w3.org/1999/xlink" height="80.55px" width="124.45px" xmlns="http://www.w3.org/2000/svg">
  <g transform="matrix(1.0, 0.0, 0.0, 1.0, 68.3, 27.8)">
    <path d="M22.0 -9.65 Q32.85 -14.95 47.95 -26.35 28.6 -7.5 18.2 -5.35 10.7 -3.95 4.65 -4.25 L1.2 -4.6 Q12.05 -4.8 22.0 -9.65 M56.15 12.8 Q41.2 27.0 31.45 31.25 21.6 35.5 0.4 27.1 22.7 34.0 56.15 12.8 M31.25 7.55 Q42.05 0.4 55.25 -12.0 38.2 8.9 27.3 12.95 16.45 16.95 7.8 16.95 20.45 14.7 31.25 7.55 M-38.85 -13.2 Q-28.8 -17.1 -13.95 -25.25 -34.05 -11.9 -42.9 -10.2 L-54.15 -9.2 -56.8 -9.35 Q-48.0 -9.7 -38.85 -13.2 M-65.95 -16.55 L-67.0 -6.5 -67.6 -2.15 -67.95 -3.6 -68.15 -4.95 Q-68.6 -8.5 -67.7 -11.75 -66.45 -16.25 -65.95 -16.55 M-7.9 -13.85 Q0.7 -18.35 12.5 -27.8 -2.55 -12.3 -10.8 -10.35 -16.8 -9.1 -21.65 -9.2 L-24.4 -9.4 Q-15.7 -9.8 -7.9 -13.85 M-13.0 32.6 Q-18.95 28.3 -25.25 18.55 -18.35 26.15 3.1 40.25 -6.85 36.75 -13.0 32.6 M-30.15 34.3 Q-34.05 29.6 -37.05 20.2 -33.1 27.9 -19.2 43.95 -26.15 39.05 -30.15 34.3 M-54.6 38.15 Q-57.45 44.35 -63.05 51.5 -53.0 30.45 -50.85 21.05 -51.8 32.05 -54.6 38.15 M-41.95 37.7 Q-43.5 44.35 -47.55 52.75 -42.0 29.8 -41.75 20.2 -40.95 27.05 -41.25 32.25 -41.45 35.25 -41.95 37.7" fill="#ffffff" fill-rule="evenodd" stroke="none"/>
  </g>
</svg>
