<?xml version="1.0" encoding="UTF-8" standalone="no"?>
<svg xmlns:xlink="http://www.w3.org/1999/xlink" height="111.35px" width="145.6px" xmlns="http://www.w3.org/2000/svg">
  <g transform="matrix(1.0, 0.0, 0.0, 1.0, 88.75, 46.15)">
    <path d="M14.1 25.35 Q15.9 -19.85 11.85 -46.15 19.2 -25.0 20.05 -7.2 L20.1 0.9 Q19.9 3.65 14.1 25.35 M37.4 31.25 Q45.85 27.5 56.85 16.6 49.05 28.25 44.55 30.6 L42.95 31.25 41.55 31.25 37.4 31.25 M32.65 17.55 Q36.95 0.0 34.55 -26.25 41.3 -3.45 39.55 6.35 L38.6 9.7 38.35 10.2 37.2 11.75 32.65 17.55 M-16.75 -30.8 Q-0.75 -11.0 3.05 2.6 L4.15 7.9 3.35 13.7 -1.5 9.15 Q-6.95 -11.55 -16.75 -30.8 M-67.45 0.25 Q-44.1 8.8 -29.8 9.65 L-28.05 12.9 -30.5 14.75 -33.4 15.15 Q-42.65 15.2 -67.45 0.25 M-1.55 19.4 Q-14.65 16.75 -16.2 15.95 -18.4 14.6 -20.65 12.9 L-24.25 9.65 Q-33.6 0.4 -43.65 -18.4 -25.25 3.55 -1.55 19.4 M26.0 35.65 Q28.05 33.6 29.5 33.15 L30.7 32.7 31.05 32.65 32.7 32.85 Q38.3 34.4 48.35 56.8 33.15 36.6 26.0 35.65 M-25.45 36.0 Q-49.35 47.75 -68.5 65.2 -55.4 46.75 -44.2 39.95 -41.95 38.7 -39.7 37.7 L-25.45 36.0 M3.0 34.0 Q-19.4 41.85 -43.5 60.2 -25.4 39.7 -13.95 34.7 -11.75 33.8 -9.7 33.2 L-6.55 33.3 3.0 34.0 M-43.3 32.7 L-50.05 37.5 -52.3 38.95 -56.1 39.85 Q-66.7 41.55 -88.75 35.4 -63.15 37.35 -43.3 32.7 M-21.95 22.3 Q-36.05 27.55 -38.0 27.85 L-44.0 27.75 Q-59.2 26.4 -81.6 14.95 -53.95 22.35 -21.95 22.3" fill="#ffffff" fill-rule="evenodd" stroke="none"/>
  </g>
</svg>
