<?xml version="1.0" encoding="UTF-8" standalone="no"?>
<svg xmlns:xlink="http://www.w3.org/1999/xlink" height="63.9px" width="84.9px" xmlns="http://www.w3.org/2000/svg">
  <g transform="matrix(1.0, 0.0, 0.0, 1.0, 42.45, 31.95)">
    <path d="M-38.55 -13.5 Q-38.4 -14.9 -37.6 -16.4 -26.6 -33.75 7.5 -31.75 L8.15 -31.7 Q16.8 -30.95 22.35 -28.7 27.9 -26.45 37.4 -15.4 46.6 3.05 39.05 22.0 37.6 2.3 28.6 -15.5 32.8 -2.9 30.65 6.2 28.6 15.2 17.55 23.75 22.7 13.5 23.7 0.2 21.65 15.4 7.65 31.95 7.5 29.65 4.1 22.35 2.8 24.75 3.85 28.65 -0.05 26.0 -2.05 22.2 -7.7 16.55 -9.35 6.2 -8.1 15.8 -8.5 18.25 -17.3 5.5 -15.05 -11.3 -21.8 8.2 -36.5 17.25 -38.1 23.4 -39.5 31.3 -45.85 12.8 -38.55 -13.5" fill="url(#gradient0)" fill-rule="evenodd" stroke="none"/>
  </g>
  <defs>
    <linearGradient gradientTransform="matrix(0.0, 0.1147, -0.0518, 0.0, 0.0, 77.3)" gradientUnits="userSpaceOnUse" id="gradient0" spreadMethod="pad" x1="-819.2" x2="819.2">
      <stop offset="0.0" stop-color="#fff23c" stop-opacity="0.0"/>
      <stop offset="0.3803921568627451" stop-color="#fff23c" stop-opacity="0.84705883"/>
      <stop offset="0.6039215686274509" stop-color="#fff23c" stop-opacity="0.8"/>
      <stop offset="1.0" stop-color="#fff23c" stop-opacity="0.0"/>
    </linearGradient>
  </defs>
</svg>
