<?xml version="1.0" encoding="UTF-8" standalone="no"?>
<svg xmlns:xlink="http://www.w3.org/1999/xlink" height="78.65px" width="140.4px" xmlns="http://www.w3.org/2000/svg">
  <g transform="matrix(1.0, 0.0, 0.0, 1.0, 70.2, 39.3)">
    <path d="M-31.25 -32.5 Q-15.9 -42.65 13.1 -37.65 23.1 -36.05 30.1 -33.0 34.55 -31.0 37.65 -29.1 40.5 -27.45 42.95 -25.4 48.4 -20.9 52.25 -14.95 57.9 -5.25 60.05 3.4 61.8 10.0 70.2 15.95 62.85 21.0 50.4 14.0 55.15 18.95 61.3 22.65 25.0 29.1 -3.55 -11.95 -0.2 14.7 13.75 35.6 -9.4 25.6 -14.3 -9.3 -16.15 5.95 -10.9 18.15 -23.65 4.6 -25.05 -9.75 -33.4 27.5 -60.15 36.9 -64.9 38.55 -70.2 39.35 -53.25 28.25 -49.0 8.85 -45.3 -18.25 -31.25 -32.5" fill="url(#gradient0)" fill-rule="evenodd" stroke="none"/>
  </g>
  <defs>
    <linearGradient gradientTransform="matrix(0.0, 0.1153, -0.0857, 0.0, 0.0, 66.0)" gradientUnits="userSpaceOnUse" id="gradient0" spreadMethod="pad" x1="-819.2" x2="819.2">
      <stop offset="0.0" stop-color="#fff23c" stop-opacity="0.0"/>
      <stop offset="0.3803921568627451" stop-color="#fff23c" stop-opacity="0.84705883"/>
      <stop offset="0.6039215686274509" stop-color="#fff23c" stop-opacity="0.8"/>
      <stop offset="1.0" stop-color="#fff23c" stop-opacity="0.0"/>
    </linearGradient>
  </defs>
</svg>
