<?xml version="1.0" encoding="UTF-8" standalone="no"?>
<svg xmlns:xlink="http://www.w3.org/1999/xlink" height="154.5px" width="178.45px" xmlns="http://www.w3.org/2000/svg">
  <g transform="matrix(1.0, 0.0, 0.0, 1.0, 89.25, 77.25)">
    <path d="M16.2 -71.3 Q23.85 -77.25 31.85 -77.25 36.0 -77.25 40.3 -75.65 49.35 -75.85 61.75 -64.55 72.25 -54.95 74.15 -39.45 76.7 -21.35 89.2 -13.25 82.1 -17.3 76.6 -22.45 78.85 -15.6 78.0 -10.15 81.55 -3.75 85.95 2.8 80.05 1.25 77.15 -3.05 88.3 14.55 78.95 22.9 L76.55 24.6 Q73.45 26.5 69.0 27.8 L66.4 29.55 Q61.7 32.15 55.0 31.45 65.6 28.85 66.4 23.15 58.55 29.35 48.0 29.65 53.5 27.65 56.5 22.95 61.4 16.7 59.75 11.1 L59.65 10.8 59.6 10.75 Q57.6 4.95 56.2 2.05 53.2 -3.7 53.85 -11.4 L53.65 -11.95 Q53.0 -14.7 52.8 -17.65 L52.65 -17.9 Q48.4 -26.85 45.6 -36.8 43.55 -44.2 42.3 -52.2 36.65 -54.7 26.9 -52.15 17.6 -55.1 5.35 -49.2 2.8 -44.85 0.15 -38.65 -5.95 -24.0 -14.75 -9.9 L-15.6 -8.55 Q-28.8 13.5 -27.85 28.25 -27.6 31.65 -26.65 34.55 -24.7 41.25 -24.4 48.0 -24.0 60.05 -46.7 75.05 -44.3 70.7 -43.35 66.25 -48.4 73.25 -57.05 77.25 -38.4 53.3 -51.65 30.55 -52.45 31.95 -52.95 33.5 -49.85 38.15 -49.45 42.15 -51.25 39.5 -53.7 37.45 -54.0 41.6 -52.5 46.2 -58.55 41.25 -58.7 34.1 -77.65 22.5 -70.55 3.7 -75.9 4.6 -81.95 3.4 -72.85 -0.2 -65.7 -5.95 -78.35 -2.15 -88.9 -6.5 L-89.25 -6.65 -88.9 -6.75 Q-60.9 -15.45 -46.95 -42.6 -28.4 -71.95 -5.7 -74.35 6.55 -75.15 16.2 -71.3 M68.25 28.65 Q70.6 35.3 73.55 39.8 67.55 35.8 65.85 30.35 L68.25 28.65" fill="#c3bbab" fill-rule="evenodd" stroke="none"/>
  </g>
</svg>
