<?xml version="1.0" encoding="UTF-8" standalone="no"?>
<svg xmlns:xlink="http://www.w3.org/1999/xlink" height="148.2px" width="125.4px" xmlns="http://www.w3.org/2000/svg">
  <g transform="matrix(1.0, 0.0, 0.0, 1.0, 0.0, -2.95)">
    <path d="M116.4 55.5 Q116.65 61.65 119.4 64.9 125.4 72.05 125.4 78.45 L125.2 80.8 Q122.9 92.4 114.8 99.6 L117.85 101.05 Q120.2 109.65 117.2 121.85 116.25 122.75 115.15 123.45 115.75 130.85 113.05 134.9 115.75 137.15 115.9 141.05 113.75 138.2 111.25 136.95 109.1 138.75 105.8 139.35 L105.8 139.3 Q102.5 136.8 110.5 133.85 112.6 129.8 112.25 124.8 108.6 125.95 103.6 125.5 100.7 118.25 100.65 110.9 L102.25 106.9 101.25 107.2 Q109.75 96.6 110.35 81.3 112.2 70.7 112.0 60.85 111.75 53.1 110.15 44.55 109.75 54.65 104.45 60.35 96.1 68.65 87.8 69.25 83.5 72.65 77.45 74.35 70.55 75.5 63.05 73.35 73.4 68.95 77.8 58.65 85.35 42.0 74.75 24.95 86.45 53.8 59.5 68.95 68.05 59.5 62.8 48.0 60.1 65.55 40.6 69.25 36.3 73.5 29.35 74.9 36.8 63.35 32.5 52.25 35.1 65.0 25.4 74.0 27.15 82.55 30.85 90.05 34.7 96.6 33.05 103.6 32.45 106.0 31.25 108.05 32.25 116.95 31.8 125.5 L25.65 132.4 Q25.85 141.4 19.65 144.55 21.25 146.4 20.4 151.15 19.7 146.15 16.3 145.65 14.75 145.4 12.85 146.1 L12.7 146.15 12.6 146.15 Q12.05 144.3 12.7 142.5 15.5 142.0 17.65 143.0 19.85 140.7 20.15 137.1 13.6 141.45 10.25 137.75 8.05 132.8 7.75 127.75 L7.65 125.6 Q9.65 123.4 12.9 121.7 9.8 121.8 7.8 121.0 5.3 120.0 5.05 117.8 L4.7 117.6 3.7 116.65 Q0.65 110.0 0.0 101.95 0.8 101.5 2.0 101.35 2.6 99.25 13.0 95.3 12.35 92.1 10.85 89.95 3.6 78.45 2.8 62.75 0.75 23.45 27.25 8.4 45.25 2.5 64.85 3.0 84.45 3.45 103.95 15.35 114.55 24.1 117.65 39.35 119.75 49.1 116.4 55.5" fill="url(#gradient0)" fill-rule="evenodd" stroke="none"/>
  </g>
  <defs>
    <linearGradient gradientTransform="matrix(0.0, 0.1161, -0.0819, 0.0, 0.05, 112.9)" gradientUnits="userSpaceOnUse" id="gradient0" spreadMethod="pad" x1="-819.2" x2="819.2">
      <stop offset="0.0" stop-color="#fff23c" stop-opacity="0.0"/>
      <stop offset="0.3803921568627451" stop-color="#fff23c" stop-opacity="0.84705883"/>
      <stop offset="0.6039215686274509" stop-color="#fff23c" stop-opacity="0.8"/>
      <stop offset="1.0" stop-color="#fff23c" stop-opacity="0.0"/>
    </linearGradient>
  </defs>
</svg>
