<?xml version="1.0" encoding="UTF-8" standalone="no"?>
<svg xmlns:xlink="http://www.w3.org/1999/xlink" height="76.3px" width="133.8px" xmlns="http://www.w3.org/2000/svg">
  <g transform="matrix(1.0, 0.0, 0.0, 1.0, 0.0, 0.0)">
    <path d="M26.3 66.4 Q27.25 71.45 29.2 76.3 0.9 71.2 0.05 46.4 -0.8 21.5 19.2 9.45 55.9 -7.9 97.25 6.65 L97.3 6.65 Q111.0 9.4 119.7 21.75 121.7 25.85 123.2 30.45 L124.45 35.05 Q126.0 48.9 133.8 58.5 128.95 55.75 125.75 52.35 122.55 68.6 106.75 75.7 L107.8 68.15 Q98.0 60.45 92.7 51.05 L91.25 48.3 Q90.05 45.95 89.15 43.45 87.85 39.9 87.0 36.15 86.1 58.8 62.65 72.0 66.85 65.1 66.9 57.75 61.45 69.0 47.3 74.0 L49.1 67.4 Q42.65 52.45 42.05 35.75 40.15 61.85 26.3 66.4" fill="#fbd5dd" fill-rule="evenodd" stroke="none"/>
  </g>
</svg>
