<?xml version="1.0" encoding="UTF-8" standalone="no"?>
<svg xmlns:xlink="http://www.w3.org/1999/xlink" height="25.5px" width="106.75px" xmlns="http://www.w3.org/2000/svg">
  <g transform="matrix(1.0, 0.0, 0.0, 1.0, 41.75, -12.25)">
    <path d="M-21.35 13.6 L1.35 12.4 Q0.4 20.6 -1.3 27.7 L-3.4 18.3 -4.7 25.85 Q-14.65 25.15 -21.35 27.7 L-21.35 13.6 M-41.65 15.35 L-24.1 13.85 -25.0 26.75 Q-34.35 28.1 -39.45 30.75 -42.3 24.25 -41.65 15.35 M24.55 12.65 Q23.25 24.7 17.65 30.7 19.2 26.25 18.95 17.5 18.1 25.15 16.7 28.9 L2.45 27.45 Q3.2 20.4 3.25 12.35 14.6 12.1 24.55 12.55 38.5 13.2 49.65 15.25 50.7 22.9 48.85 30.7 42.85 28.65 35.15 28.5 L35.2 19.95 33.4 28.5 25.2 29.0 24.55 12.65 M52.55 15.8 Q59.1 17.2 64.6 19.05 65.3 26.35 64.8 33.9 L63.25 37.75 54.75 37.0 Q55.25 25.1 52.55 15.8" fill="#000000" fill-opacity="0.16862746" fill-rule="evenodd" stroke="none"/>
  </g>
</svg>
