<?xml version="1.0" encoding="UTF-8" standalone="no"?>
<svg xmlns:xlink="http://www.w3.org/1999/xlink" height="52.55px" width="112.25px" xmlns="http://www.w3.org/2000/svg">
  <g transform="matrix(1.0, 0.0, 0.0, 1.0, 100.55, 26.25)">
    <path d="M-95.35 -11.9 Q-95.75 -10.3 -96.75 -9.4 -97.8 -8.45 -98.85 -8.7 -99.85 -8.95 -100.35 -10.25 -100.75 -11.6 -100.35 -13.2 -99.95 -14.75 -99.0 -15.65 -97.9 -16.65 -96.9 -16.4 -95.85 -16.15 -95.4 -14.8 -94.95 -13.45 -95.35 -11.9 M-65.0 -11.4 Q-65.15 -9.6 -66.1 -8.4 -67.05 -7.2 -68.25 -7.35 -69.35 -7.45 -70.05 -8.8 -70.75 -10.15 -70.55 -11.95 -70.35 -13.65 -69.45 -14.85 -68.5 -16.05 -67.35 -15.95 -66.2 -15.8 -65.5 -14.4 -64.8 -13.1 -65.0 -11.4 M-27.2 -10.8 Q-26.95 -9.1 -27.6 -7.85 -28.2 -6.55 -29.35 -6.4 -30.45 -6.25 -31.4 -7.3 -32.2 -8.4 -32.45 -10.1 -32.65 -11.7 -32.15 -13.0 -31.5 -14.35 -30.4 -14.5 -29.25 -14.6 -28.35 -13.5 -27.4 -12.4 -27.2 -10.8 M-3.1 -12.25 Q-2.55 -10.8 -2.9 -9.5 -3.15 -8.2 -4.15 -7.85 -5.1 -7.5 -6.2 -8.3 -7.2 -9.1 -7.75 -10.55 -8.25 -12.0 -8.0 -13.3 -7.7 -14.65 -6.75 -15.0 -5.75 -15.35 -4.7 -14.5 -3.6 -13.7 -3.1 -12.25 M-11.65 -26.25 Q0.8 -16.8 7.85 -2.9 10.85 4.1 11.55 11.05 12.25 18.65 10.15 26.3 L8.7 16.45 Q8.85 13.2 8.2 9.65 5.4 -5.35 -11.65 -26.25" fill="#ffedfb" fill-rule="evenodd" stroke="none"/>
  </g>
</svg>
