<?xml version="1.0" encoding="UTF-8" standalone="no"?>
<svg xmlns:xlink="http://www.w3.org/1999/xlink" height="143.35px" width="143.5px" xmlns="http://www.w3.org/2000/svg">
  <g transform="matrix(1.0, 0.0, 0.0, 1.0, 71.75, 71.65)">
    <path d="M9.5 -61.1 L22.3 -61.5 M24.0 -41.1 Q30.35 -40.1 34.3 -33.85 M-42.45 -40.7 Q-55.3 -25.75 -58.75 -7.55 M-28.45 -42.65 Q-45.4 -20.0 -47.45 6.5" fill="none" stroke="#000000" stroke-linecap="round" stroke-linejoin="round" stroke-opacity="0.65882355" stroke-width="1.5"/>
    <path d="M58.4 -7.85 Q55.25 -9.4 52.25 -11.25 29.4 -24.8 11.25 -49.65 7.1 -55.9 -1.5 -57.2 -8.15 -56.45 -9.35 -50.8 -9.15 -44.0 -3.65 -33.65 13.2 -0.8 46.55 5.15 29.85 -6.1 17.65 -17.9 30.0 -8.55 54.45 -7.45 L58.45 -7.35 58.4 -7.85 Q55.65 -20.4 45.05 -31.2 M58.45 -7.35 L59.3 -7.35 58.4 -7.85 M52.25 -11.25 L48.1 -17.45 M35.6 -38.7 Q49.1 -33.6 58.05 -25.6 61.95 -22.15 65.0 -18.1 60.7 -27.8 55.15 -35.05 40.15 -54.8 15.65 -56.0 M25.0 -61.1 Q37.9 -58.95 49.85 -49.0 M62.1 9.55 Q63.6 12.7 64.55 16.05 67.6 26.6 65.9 39.15 75.4 16.55 66.3 -10.6 M49.4 2.05 Q51.4 10.25 52.1 18.4 52.8 27.3 52.05 36.25 56.05 24.05 56.45 10.2 M-5.8 -36.5 Q-4.45 -27.35 -2.4 -19.0 10.0 29.45 47.85 46.55 L52.3 48.4 48.45 45.2 Q26.25 25.6 20.3 -4.95 32.2 9.4 52.1 18.4 M52.05 36.25 Q50.5 40.85 48.45 45.2 M47.85 46.55 Q43.5 58.85 37.8 68.1 64.7 47.4 64.55 16.05 M58.45 -7.35 Q59.55 -2.25 59.3 3.25 L54.45 -7.45 M-26.8 -56.3 Q-23.2 -59.6 -16.65 -57.95 -10.3 -71.6 9.6 -70.6 -5.0 -68.05 -11.2 -59.05 -7.0 -62.4 -0.8 -61.8 M-10.65 -18.3 Q-10.4 -11.05 -11.3 -4.9 -13.1 7.15 -19.4 15.05 -1.85 4.0 -2.4 -19.0 M-13.75 -48.55 Q-30.2 -36.75 -32.15 -19.2 -27.3 -29.05 -17.25 -38.25 -27.4 -24.25 -17.25 -11.7 -19.25 -25.4 -7.8 -38.25 M-37.2 5.6 Q-36.8 14.55 -33.2 22.45 -28.6 32.55 -18.8 40.9 -24.55 29.6 -25.75 17.45 -26.95 4.15 -22.55 -10.2 M-60.2 -0.75 Q-62.55 14.15 -70.75 20.75 -58.55 19.75 -50.75 8.65 M-48.85 14.35 Q-48.85 54.15 -21.2 70.7 -34.2 51.7 -33.2 22.45 M-11.3 -4.9 Q-15.25 8.2 -25.75 17.45" fill="none" stroke="#000000" stroke-linecap="round" stroke-linejoin="round" stroke-width="2.0"/>
  </g>
</svg>
