<?xml version="1.0" encoding="UTF-8" standalone="no"?>
<svg xmlns:xlink="http://www.w3.org/1999/xlink" height="158.15px" width="82.85px" xmlns="http://www.w3.org/2000/svg">
  <g transform="matrix(1.0, 0.0, 0.0, 1.0, 41.4, 79.05)">
    <path d="M-6.35 -66.1 Q9.05 -57.15 14.95 -39.25 L17.3 -31.0 Q25.8 -26.45 36.1 -26.95 34.65 -20.2 25.35 -20.4 31.85 -14.8 41.45 -14.65 29.2 -5.7 16.3 -9.05 L24.85 -0.8 Q18.85 -0.85 15.25 -3.35 27.8 17.05 22.75 41.55 19.45 51.1 12.35 58.75 14.75 45.05 14.05 29.85 11.75 61.05 -9.35 79.1 -2.15 68.25 -0.8 50.85 -4.0 59.45 -12.7 68.0 -5.9 56.2 -7.55 34.05 9.45 25.1 12.35 12.1 L11.3 1.3 Q7.6 7.35 2.45 12.3 4.75 1.85 4.3 -9.1 -5.7 -16.55 -10.95 -23.65 -8.25 -18.2 -4.95 -12.55 L-10.9 -14.7 Q-14.25 -19.15 -15.65 -23.85 -14.8 -19.5 -12.95 -14.9 L-17.9 -18.0 -17.5 -16.85 -22.75 -20.9 -23.75 -23.4 Q-34.2 -35.1 -39.65 -46.95 -43.15 -67.8 -39.65 -79.05 -20.3 -76.45 -6.35 -66.1" fill="#9ff1ff" fill-rule="evenodd" stroke="none"/>
  </g>
</svg>
