<?xml version="1.0" encoding="UTF-8" standalone="no"?>
<svg xmlns:xlink="http://www.w3.org/1999/xlink" height="39.25px" width="51.75px" xmlns="http://www.w3.org/2000/svg">
  <g transform="matrix(1.0, 0.0, 0.0, 1.0, 25.85, 19.6)">
    <path d="M21.2 -4.8 L21.4 -5.8 21.35 -5.7 21.2 -4.8 M-16.55 -18.05 L-15.9 -18.65 -14.8 -19.35 -13.9 -19.6 -12.75 -19.45 -12.65 -19.45 -12.45 -19.4 Q0.85 -15.65 22.35 -16.3 23.4 -16.4 24.05 -13.8 24.25 -11.5 22.4 -9.9 L25.9 -7.45 Q26.0 -3.95 23.5 -0.75 20.3 1.3 17.4 1.35 L17.65 2.4 17.65 2.45 Q16.25 7.1 13.95 7.65 10.3 7.3 7.6 6.45 4.85 5.55 3.15 4.2 L6.75 7.2 Q8.0 8.45 7.25 9.2 L3.95 13.75 0.25 17.75 -0.7 18.55 -1.9 19.45 Q-3.35 20.05 -3.95 18.6 -7.55 11.3 -8.45 1.6 L-9.4 1.25 Q-9.9 5.25 -11.15 11.25 L-12.75 18.4 Q-14.35 19.5 -18.1 16.45 L-18.65 16.0 Q-20.45 14.05 -21.6 11.2 L-21.7 11.0 Q-22.6 8.95 -23.2 6.3 -20.5 1.5 -14.45 -2.6 -18.35 -0.55 -22.15 -0.9 -26.15 -1.9 -25.85 -6.15 L-25.5 -7.7 -25.5 -7.75 -24.55 -9.85 -24.3 -10.4 -25.25 -13.15 -25.4 -13.55 -25.6 -14.85 Q-25.6 -16.35 -24.3 -17.4 -21.4 -18.75 -16.55 -18.05" fill="#f77e7e" fill-rule="evenodd" stroke="none"/>
  </g>
</svg>
