<?xml version="1.0" encoding="UTF-8" standalone="no"?>
<svg xmlns:xlink="http://www.w3.org/1999/xlink" height="76.0px" width="71.1px" xmlns="http://www.w3.org/2000/svg">
  <g transform="matrix(1.0, 0.0, 0.0, 1.0, 35.55, 38.0)">
    <path d="M32.45 -37.7 L-1.45 1.25 -8.4 9.75 Q-13.0 14.75 -19.5 19.5 -26.05 24.9 -31.4 34.55 L-32.0 35.55 Q-32.9 36.3 -32.7 31.65 -32.8 29.45 -34.8 26.55 -36.9 22.45 -33.2 19.2 -21.6 6.9 -7.35 -4.05 9.95 -17.35 23.65 -35.5 L25.15 -35.95 29.15 -37.0 31.9 -37.65 32.45 -37.7 35.55 -38.0 Q23.1 -15.35 6.6 12.3 -3.3 23.65 -7.65 31.35 -10.2 35.8 -11.5 37.3 -12.5 38.35 -12.8 37.8 -13.05 34.55 -15.0 34.25 -16.65 34.15 -23.95 32.25 -21.15 28.6 -18.1 26.2 L-9.6 19.65 Q-4.1 15.45 -0.55 9.4 8.55 -6.2 19.05 -20.9 L32.45 -37.7" fill="#8eb7ff" fill-rule="evenodd" stroke="none"/>
  </g>
</svg>
