<?xml version="1.0" encoding="UTF-8" standalone="no"?>
<svg xmlns:xlink="http://www.w3.org/1999/xlink" height="26.85px" width="32.7px" xmlns="http://www.w3.org/2000/svg">
  <g transform="matrix(1.0, 0.0, 0.0, 1.0, 16.35, 13.4)">
    <path d="M7.7 -2.2 L9.8 -1.8 Q10.85 -1.75 11.3 -2.1 M13.65 5.95 L13.75 5.7 Q14.45 4.15 13.65 1.3 15.3 -1.2 15.55 -2.65 15.8 -4.15 15.45 -5.2 L13.9 -7.45 Q12.75 -8.65 11.25 -8.75 10.2 -10.75 7.05 -11.7 L7.65 -8.3 Q8.7 -5.45 8.15 -3.9 L7.25 -2.45 7.15 -2.35 Q-0.3 -3.55 -7.8 -12.65 -10.25 -12.9 -11.85 -11.15 L-14.4 -11.1 Q-17.5 -9.15 -13.0 -6.05 -8.5 -2.95 -4.55 1.85 1.9 9.7 12.4 12.75 12.55 9.05 13.55 6.2 M-9.85 -9.35 Q-5.35 -2.85 2.3 1.5" fill="none" stroke="#000000" stroke-linecap="round" stroke-linejoin="round" stroke-width="1.4000000000000001"/>
  </g>
</svg>
