<?xml version="1.0" encoding="UTF-8" standalone="no"?>
<svg xmlns:xlink="http://www.w3.org/1999/xlink" height="29.15px" width="28.6px" xmlns="http://www.w3.org/2000/svg">
  <g transform="matrix(1.0, 0.0, 0.0, 1.0, 14.3, 14.55)">
    <path d="M6.4 -12.05 L5.95 -13.9 Q7.5 -13.45 9.3 -12.25 L12.05 -10.5 13.25 -9.15 14.3 -7.85 Q14.3 -4.0 11.15 -0.55 L13.1 1.05 9.9 4.2 Q12.3 7.55 12.85 10.75 11.6 12.85 9.35 14.15 7.95 6.95 4.45 0.0 3.4 7.75 4.45 14.6 1.6 14.05 -0.05 11.9 -0.2 8.4 0.7 4.8 0.35 5.45 0.1 6.45 -3.4 4.35 -4.2 2.1 L-2.8 0.45 Q-12.45 -4.95 -14.3 -10.15 L-12.95 -11.35 -11.65 -12.2 Q-9.55 -13.55 -6.5 -14.55 L-6.5 -12.8 Q-3.75 -8.5 2.45 -6.4 1.55 -4.65 1.65 -2.5 2.55 -1.0 4.35 -0.35 L4.75 -0.5 Q5.85 -1.05 6.25 -2.65 L6.25 -2.8 6.25 -2.85 Q5.45 -5.0 4.1 -6.25 7.55 -8.0 6.4 -12.05" fill="#fff89a" fill-rule="evenodd" stroke="none"/>
  </g>
</svg>
