<?xml version="1.0" encoding="UTF-8" standalone="no"?>
<svg xmlns:xlink="http://www.w3.org/1999/xlink" height="5.75px" width="16.85px" xmlns="http://www.w3.org/2000/svg">
  <g transform="matrix(1.0, 0.0, 0.0, 1.0, 8.4, 2.9)">
    <path d="M-1.45 0.2 L-1.05 -0.35 Q-0.4 -0.9 0.35 -0.85 1.05 -0.8 1.55 -0.25 L2.1 0.8 Q2.15 0.1 2.7 -0.45 3.35 -0.95 4.05 -0.9 4.8 -0.9 5.3 -0.3 L5.35 -0.3 5.25 -0.9 Q5.3 -1.5 5.8 -2.0 6.35 -2.45 6.95 -2.45 7.6 -2.4 8.0 -1.9 8.5 -1.35 8.45 -0.75 8.4 -0.1 7.9 0.35 7.4 0.8 6.75 0.75 6.15 0.75 5.75 0.3 L5.8 0.95 Q5.75 1.75 5.2 2.25 4.6 2.8 3.85 2.8 3.15 2.75 2.6 2.1 2.15 1.7 2.1 1.05 2.05 1.85 1.45 2.35 0.85 2.9 0.15 2.85 -0.6 2.8 -1.15 2.25 L-1.6 1.25 -2.1 1.85 Q-2.7 2.35 -3.4 2.35 -4.15 2.3 -4.7 1.7 -5.2 1.15 -5.2 0.35 L-5.1 0.15 -5.35 0.25 Q-5.9 0.8 -6.6 0.8 -7.35 0.75 -7.95 0.1 -8.45 -0.4 -8.4 -1.2 -8.4 -1.9 -7.8 -2.45 -7.2 -2.95 -6.45 -2.9 -5.75 -2.9 -5.2 -2.3 -4.65 -1.75 -4.65 -1.05 L-4.7 -0.75 -4.55 -0.9 Q-3.95 -1.4 -3.2 -1.35 -2.5 -1.35 -1.95 -0.75 L-1.45 0.2" fill="#ffa8ef" fill-rule="evenodd" stroke="none"/>
  </g>
</svg>
