<?xml version="1.0" encoding="UTF-8" standalone="no"?>
<svg xmlns:xlink="http://www.w3.org/1999/xlink" height="10.2px" width="19.95px" xmlns="http://www.w3.org/2000/svg">
  <g transform="matrix(1.0, 0.0, 0.0, 1.0, 9.95, 5.1)">
    <path d="M-1.15 0.2 L-1.45 2.05 -1.45 2.6 Q-1.65 4.75 -2.1 5.1 -7.7 3.05 -9.95 -1.2 L-8.1 -3.5 -6.6 -5.1 Q-4.5 -3.45 0.5 -2.45 L4.5 3.3 4.35 -2.35 Q6.5 -3.7 6.8 -5.0 7.95 -4.7 8.6 -2.3 L10.0 0.55 Q9.45 2.3 7.6 2.9 L7.4 2.45 6.4 0.35 Q5.8 1.35 5.45 4.1 L3.95 4.6 Q0.6 2.15 -1.15 0.2" fill="#ffffff" fill-rule="evenodd" stroke="none"/>
  </g>
</svg>
