<?xml version="1.0" encoding="UTF-8" standalone="no"?>
<svg xmlns:xlink="http://www.w3.org/1999/xlink" height="23.15px" width="47.2px" xmlns="http://www.w3.org/2000/svg">
  <g transform="matrix(1.0, 0.0, 0.0, 1.0, 23.6, 11.6)">
    <path d="M-12.6 -2.65 L-12.45 -2.7 -12.2 -2.55 -11.7 -0.75 -11.35 0.55 Q-11.25 0.95 -11.5 1.15 L-12.25 1.6 -13.0 1.6 -13.45 1.15 -13.3 0.35 Q-13.1 0.05 -12.7 -0.05 L-12.15 -0.15 -12.6 -1.85 -14.85 -0.6 -14.2 1.9 -14.2 1.95 Q-14.05 2.25 -14.3 2.6 L-14.95 3.0 Q-15.35 3.2 -15.75 3.0 L-16.25 2.5 -16.05 1.9 -16.05 1.85 -15.4 1.4 -14.85 1.4 -15.45 -0.9 -15.35 -1.1 -12.6 -2.65" fill="#000000" fill-rule="evenodd" stroke="none"/>
    <path d="M12.65 8.1 L11.25 8.65 10.95 8.65 Q8.2 8.65 6.25 5.85 4.3 3.1 4.3 -0.8 4.3 -3.5 5.3 -5.7 L6.25 -7.45 7.55 -8.9 Q8.35 -9.6 9.3 -9.9 L10.35 -10.2 10.95 -10.25 11.15 -10.25 Q17.75 -10.85 20.05 -8.65 22.25 -6.45 22.55 -2.2 22.8 2.0 20.6 5.35 18.35 8.7 15.15 8.7 13.8 8.7 12.65 8.1 M-19.85 3.0 L-22.45 0.3 Q-22.95 -3.4 -21.9 -5.15 L-21.6 -5.8 -16.8 -8.15 Q-15.5 -9.35 -13.95 -9.8 L-11.95 -10.1 -7.95 -10.5 -7.3 -10.6 -7.05 -10.55 -6.4 -10.6 Q-3.55 -10.6 -1.6 -7.55 0.4 -4.45 0.4 -0.15 0.4 4.2 -1.6 7.25 -3.45 10.2 -6.25 10.4 L-11.5 9.95 -11.95 9.95 -13.0 9.9 -13.6 9.8 -13.85 9.75 Q-16.05 9.1 -17.8 7.0 -19.3 5.25 -19.85 3.0 -20.2 1.6 -20.2 -0.05 -20.2 -4.25 -17.8 -7.2 L-16.8 -8.15 M-11.95 -10.1 L-9.4 -9.6 -7.95 -10.5" fill="none" stroke="#000000" stroke-linecap="round" stroke-linejoin="round" stroke-width="2.0"/>
    <path d="M11.75 -3.4 Q12.45 -2.3 12.45 -0.8 12.45 0.75 11.75 1.85 11.05 2.9 10.1 2.9 9.2 2.9 8.5 1.85 7.8 0.75 7.8 -0.8 7.8 -2.3 8.5 -3.4 9.2 -4.5 10.1 -4.5 11.05 -4.5 11.75 -3.4 M12.65 8.1 Q14.8 7.05 15.6 5.85 17.55 3.1 17.55 -0.8 17.55 -4.7 15.6 -7.45 13.75 -10.1 11.15 -10.25 M-13.65 -4.9 L-12.45 -4.7 Q-11.4 -4.4 -10.6 -3.4 -9.35 -1.85 -9.35 0.35 -9.35 2.55 -10.6 4.1 L-11.7 5.1 Q-12.6 5.6 -13.65 5.6 -15.45 5.6 -16.7 4.1 -17.9 2.55 -17.9 0.35 -17.9 -1.85 -16.7 -3.4 -15.45 -4.9 -13.65 -4.9 M-9.4 -9.6 Q-7.55 -8.95 -6.05 -7.2 -3.65 -4.25 -3.65 -0.05 -3.65 4.1 -6.05 7.0 -7.35 8.55 -8.85 9.3 L-11.5 9.95" fill="none" stroke="#000000" stroke-linecap="round" stroke-linejoin="round" stroke-width="1.0"/>
  </g>
</svg>
