<?xml version="1.0" encoding="UTF-8" standalone="no"?>
<svg xmlns:xlink="http://www.w3.org/1999/xlink" height="32.95px" width="54.2px" xmlns="http://www.w3.org/2000/svg">
  <g transform="matrix(1.0, 0.0, 0.0, 1.0, 27.1, 16.45)">
    <path d="M-19.65 -16.45 L-13.35 -12.35 Q-14.0 -11.7 -11.4 -11.35 L9.15 -1.45 Q12.85 -8.3 17.45 -16.05 L18.2 -15.05 14.35 -8.1 17.4 -4.5 21.5 -10.8 23.2 -8.1 15.75 4.6 14.85 5.75 Q13.7 7.7 12.05 8.7 L8.9 8.95 8.4 8.95 Q-8.9 3.4 -25.7 -9.25 L-23.7 -11.6 -21.25 -9.8 -18.8 -12.95 -21.25 -14.45 -19.65 -16.45 M13.5 -5.6 L10.3 -0.85 11.9 5.0 16.45 -2.6 13.5 -5.6 M-0.7 -3.15 L-7.55 -6.6 -9.35 -2.9 -2.5 0.7 -0.7 -3.15 M-11.9 -4.15 L-10.2 -7.75 -17.15 -11.6 -19.55 -8.5 -11.9 -4.15 M7.95 0.0 L2.5 -2.1 1.1 2.35 9.45 5.7 7.95 0.0" fill="#fefefe" fill-rule="evenodd" stroke="none"/>
    <path d="M23.05 -0.1 L24.95 -4.25 Q27.35 -2.2 27.1 0.1 26.8 2.35 23.05 -0.1 26.05 5.4 22.25 11.05 19.65 14.9 14.5 12.55 19.5 6.9 23.05 -0.1 M-27.05 -5.15 L-14.45 2.55 Q-18.25 6.15 -24.75 3.7 -27.4 -0.9 -27.05 -5.15 M-13.9 2.85 L-7.2 6.4 Q1.55 10.7 10.1 13.5 2.45 18.05 -2.35 15.7 -7.05 13.2 -7.2 6.4 -9.6 8.6 -12.75 8.0 -14.45 6.9 -13.9 2.85" fill="#fcfcfc" fill-rule="evenodd" stroke="none"/>
  </g>
</svg>
