<?xml version="1.0" encoding="UTF-8" standalone="no"?>
<svg xmlns:xlink="http://www.w3.org/1999/xlink" height="13.3px" width="23.0px" xmlns="http://www.w3.org/2000/svg">
  <g transform="matrix(1.0, 0.0, 0.0, 1.0, 0.0, 6.65)">
    <path d="M11.8 -5.65 Q11.65 -3.8 12.1 -2.65 11.5 1.05 11.25 4.7 L11.1 6.55 9.5 6.25 Q7.55 5.95 5.25 4.85 L5.0 4.7 Q2.65 3.5 0.8 -0.25 -0.5 -4.4 0.3 -6.45 2.8 -6.85 5.45 -6.4 L10.05 -5.8 11.8 -5.65 M13.15 -0.9 Q13.75 -1.2 14.45 -0.9 L14.9 6.55 Q13.8 6.8 12.65 6.55 L13.15 -0.9 M17.9 6.0 L16.55 6.25 15.2 -2.65 15.2 -5.45 17.7 -5.4 19.3 -5.45 22.75 -5.1 Q23.25 -0.2 22.75 2.65 21.4 5.05 19.3 5.65 L17.9 6.0" fill="#5ca2e0" fill-rule="evenodd" stroke="none"/>
  </g>
</svg>
