<?xml version="1.0" encoding="UTF-8" standalone="no"?>
<svg xmlns:xlink="http://www.w3.org/1999/xlink" height="24.0px" width="22.7px" xmlns="http://www.w3.org/2000/svg">
  <g transform="matrix(1.0, 0.0, 0.0, 1.0, 11.35, 12.0)">
    <path d="M9.2 -4.45 L9.55 -4.9 9.95 -5.4 Q10.5 -6.15 10.3 -7.95 3.3 -8.3 -2.1 -11.0 -3.3 -9.05 -3.35 -7.95 M8.6 -4.45 L6.85 1.15 6.85 1.3 6.95 3.1 6.9 4.85 6.25 7.7 5.45 9.55 5.4 9.45 Q5.0 8.55 4.1 8.15 2.6 7.5 0.95 7.65 -0.9 6.15 -3.25 6.75 L-3.35 6.75 -3.45 7.4 -3.7 8.65 -4.25 10.45 -4.5 11.0 Q-7.45 9.15 -10.35 9.45 L-10.35 9.4 -8.85 5.7 -8.8 5.65 -8.8 5.55 -8.8 5.45 -8.8 5.2 -8.85 5.2 -9.25 4.85 -10.0 4.55 Q-7.9 2.2 -8.4 -0.5 L-7.1 -0.3 Q-6.25 -0.25 -4.95 -1.65 L-3.05 -7.7" fill="none" stroke="#000000" stroke-linecap="round" stroke-linejoin="round" stroke-width="2.0"/>
    <path d="M-3.35 -7.95 L-3.05 -7.7 -2.95 -7.65 Q0.65 -4.7 8.6 -4.45 L9.2 -4.45 Z" fill="none" stroke="#000000" stroke-linecap="round" stroke-linejoin="round" stroke-width="1.0"/>
  </g>
</svg>
