<?xml version="1.0" encoding="UTF-8" standalone="no"?>
<svg xmlns:xlink="http://www.w3.org/1999/xlink" height="17.8px" width="13.85px" xmlns="http://www.w3.org/2000/svg">
  <g transform="matrix(1.0, 0.0, 0.0, 1.0, 6.95, 8.9)">
    <path d="M-5.5 -4.7 L-6.2 -5.95 -6.5 -7.15 Q-6.5 -7.8 -5.85 -8.35 -5.25 -8.9 -4.5 -8.9 -3.55 -8.9 -3.0 -8.3 L-2.95 -8.25 -1.9 -6.7 0.05 -3.6 2.15 -6.75 2.7 -7.6 3.2 -8.25 3.85 -8.7 4.7 -8.9 Q5.5 -8.9 6.05 -8.35 6.65 -7.8 6.65 -7.05 6.7 -6.25 5.7 -4.75 L2.7 -0.35 5.95 4.65 6.7 5.9 6.7 5.85 6.9 6.95 6.7 7.95 6.65 7.95 5.95 8.65 4.9 8.9 3.8 8.6 3.1 8.0 2.4 6.85 2.35 6.85 0.0 3.15 -2.55 6.95 -3.0 7.8 -3.5 8.25 -4.1 8.7 -4.15 8.75 -5.0 8.9 Q-5.85 8.9 -6.4 8.4 -6.95 7.9 -6.95 6.9 -7.0 5.95 -6.05 4.65 L-2.65 -0.35 -5.5 -4.7" fill="#95a5ff" fill-rule="evenodd" stroke="none"/>
  </g>
</svg>
