<?xml version="1.0" encoding="UTF-8" standalone="no"?>
<svg xmlns:xlink="http://www.w3.org/1999/xlink" height="20.5px" width="16.8px" xmlns="http://www.w3.org/2000/svg">
  <g transform="matrix(1.0, 0.0, 0.0, 1.0, 8.4, 10.25)">
    <path d="M-1.1 4.05 Q-1.7 5.8 -1.75 7.9 -1.8 4.15 -3.75 1.5 -5.7 -1.15 -8.4 -1.2 -5.7 -1.25 -3.75 -3.9 -1.8 -6.55 -1.75 -10.25 -1.7 -6.55 0.25 -3.9 1.7 -1.9 3.6 -1.4 L3.65 -2.0 3.7 -1.35 4.9 -1.2 3.75 -1.0 Q3.95 0.8 5.05 2.2 6.4 4.0 8.4 4.05 6.4 4.05 5.05 5.85 3.65 7.65 3.65 10.25 3.6 7.65 2.25 5.85 0.85 4.05 -1.1 4.05 0.85 4.0 2.25 2.2 3.3 0.85 3.55 -0.95 1.7 -0.45 0.25 1.5 -0.6 2.65 -1.1 4.05" fill="#1d1e3a" fill-rule="evenodd" stroke="none"/>
  </g>
</svg>
