<?xml version="1.0" encoding="UTF-8" standalone="no"?>
<svg xmlns:xlink="http://www.w3.org/1999/xlink" height="42.65px" width="52.6px" xmlns="http://www.w3.org/2000/svg">
  <g transform="matrix(1.0, 0.0, 0.0, 1.0, 26.3, 21.3)">
    <path d="M19.95 -19.65 L22.85 -11.1 Q23.9 -7.25 24.6 -2.4 L26.25 11.5 Q27.2 20.6 15.5 19.7 L15.55 12.1 Q15.5 9.05 14.65 2.0 L13.5 -6.7 11.35 -19.65 19.95 -19.65 M-20.8 -19.6 L-19.8 -19.55 -19.8 -19.6 Q-16.4 -22.0 -13.65 -21.05 L-13.55 -19.5 -3.15 -19.35 Q-4.1 -7.3 -4.85 18.25 L-5.05 21.35 Q-29.25 19.85 -25.9 5.75 L-22.2 -10.25 -20.8 -19.6" fill="#3c5d5b" fill-rule="evenodd" stroke="none"/>
  </g>
</svg>
