<?xml version="1.0" encoding="UTF-8" standalone="no"?>
<svg xmlns:xlink="http://www.w3.org/1999/xlink" height="25.05px" width="55.85px" xmlns="http://www.w3.org/2000/svg">
  <g transform="matrix(1.0, 0.0, 0.0, 1.0, 27.9, 12.5)">
    <path d="M20.95 -2.15 L16.7 -4.4 15.3 -5.1 Q10.25 -7.25 5.7 -7.75 -0.1 -8.7 -5.45 -6.95 L-6.65 -6.5 Q-11.2 -4.65 -14.3 -2.15 L-18.55 1.3 -17.65 3.85 Q-17.25 5.25 -16.2 6.7 L-14.5 8.7 Q-15.65 8.6 -16.8 7.95 L-18.65 6.85 -19.75 7.2 Q-22.3 7.65 -25.55 5.8 L-22.15 4.9 Q-27.2 2.95 -27.9 1.8 -24.6 0.9 -21.95 -1.15 -24.8 -2.4 -25.9 -3.9 -19.75 -3.55 -16.5 -6.3 -9.75 -11.95 -3.1 -12.4 3.9 -12.9 12.95 -10.4 22.0 -7.95 25.65 -11.35 24.2 -7.65 20.7 -6.3 L27.95 -5.8 Q25.95 -3.7 21.4 -3.75 24.35 -1.8 25.75 1.25 L25.05 0.75 20.95 -2.15 M13.9 9.8 Q15.95 10.35 17.3 11.2 L19.0 12.55 14.45 10.85 15.8 12.55 Q13.0 10.0 -11.05 11.45 -10.6 10.65 -7.1 9.65 L-4.65 9.2 -2.35 8.85 -0.8 8.75 11.95 9.4 13.0 9.6 13.9 9.8" fill="#000000" fill-rule="evenodd" stroke="none"/>
  </g>
</svg>
