<?xml version="1.0" encoding="UTF-8" standalone="no"?>
<svg xmlns:xlink="http://www.w3.org/1999/xlink" height="27.45px" width="45.0px" xmlns="http://www.w3.org/2000/svg">
  <g transform="matrix(1.0, 0.0, 0.0, 1.0, 22.5, 13.75)">
    <path d="M-1.2 11.5 L-1.05 11.5 0.9 11.8 14.45 12.4 16.45 12.35 16.9 12.3 18.0 12.25 Q14.9 13.55 7.7 13.35 L-2.25 12.6 -4.3 13.7 -2.85 11.3 -2.8 11.2 -1.2 11.5 M-12.7 -1.6 Q-12.55 3.4 -10.0 7.6 L-9.85 7.85 -9.5 8.3 -9.4 8.5 Q-21.25 4.45 -22.5 -10.4 -18.55 -12.75 -11.25 -13.5 4.3 -14.8 13.5 -9.2 22.4 -4.25 22.5 2.85 L20.2 0.55 19.95 0.35 19.6 0.05 17.55 -1.45 17.6 -1.4 16.9 -1.85 Q5.25 -6.9 -7.6 -7.5 L-7.7 -7.5 -8.25 -7.5 -9.85 -7.3 -10.0 -7.25 -12.3 -6.6 Q-12.8 -4.0 -12.7 -1.6" fill="#000000" fill-rule="evenodd" stroke="none"/>
  </g>
</svg>
