<?xml version="1.0" encoding="UTF-8" standalone="no"?>
<svg xmlns:xlink="http://www.w3.org/1999/xlink" height="18.2px" width="22.05px" xmlns="http://www.w3.org/2000/svg">
  <g transform="matrix(1.0, 0.0, 0.0, 1.0, 11.0, 9.1)">
    <path d="M9.3 -1.05 Q9.7 -5.2 7.65 -7.7 L-7.65 -7.7 Q-9.65 -5.55 -9.3 -1.15 -9.0 3.5 -5.95 5.75 -2.95 7.85 0.45 7.65 3.8 7.35 6.35 5.55 8.8 3.6 9.3 -1.05 M9.0 -9.05 Q11.4 -6.15 11.0 -1.2 10.4 4.35 7.45 6.65 4.55 8.85 0.5 9.1 -3.5 9.35 -7.05 6.85 -10.6 4.15 -10.95 -1.3 -11.4 -6.6 -8.95 -9.05 L-8.9 -9.1 8.95 -9.1 9.0 -9.05" fill="#000000" fill-rule="evenodd" stroke="none"/>
  </g>
</svg>
