<?xml version="1.0" encoding="UTF-8" standalone="no"?>
<svg xmlns:xlink="http://www.w3.org/1999/xlink" height="15.85px" width="18.85px" xmlns="http://www.w3.org/2000/svg">
  <g transform="matrix(1.0, 0.0, 0.0, 1.0, 9.4, 8.15)">
    <path d="M4.15 7.4 L2.35 7.45 -1.2 7.6 -3.35 7.7 Q-5.2 7.05 -6.65 5.65 -8.1 4.25 -8.85 2.55 -9.4 1.1 -9.4 -0.6 L-9.2 -2.55 -8.85 -3.65 -8.85 -3.7 -8.8 -3.7 -7.7 -5.9 Q-0.85 -9.1 5.9 -7.75 L6.7 -6.9 Q9.45 -4.3 9.45 -0.6 9.45 0.95 9.0 2.25 8.3 4.15 6.7 5.65 5.5 6.75 4.15 7.4" fill="#628aff" fill-rule="evenodd" stroke="none"/>
  </g>
</svg>
