<?xml version="1.0" encoding="UTF-8" standalone="no"?>
<svg xmlns:xlink="http://www.w3.org/1999/xlink" height="25.5px" width="19.05px" xmlns="http://www.w3.org/2000/svg">
  <g transform="matrix(1.0, 0.0, 0.0, 1.0, 9.5, 12.75)">
    <path d="M8.7 1.35 L8.7 0.25 Q8.5 -3.05 7.75 -5.5 7.3 -7.0 6.45 -8.15 3.9 -11.75 0.25 -11.8 L-0.35 -11.8 -1.7 -11.6 Q-4.1 -10.9 -6.0 -8.25 L-6.55 -7.35 Q-8.45 -4.2 -8.55 0.25 L-8.6 0.85 -8.6 1.45 -8.5 3.0 Q-8.3 5.15 -7.65 6.85 -6.1 9.9 -3.15 11.3 L-2.95 11.4 -0.25 11.9 3.5 11.45 Q6.25 10.5 8.0 6.55 8.5 5.1 8.65 3.25 L8.7 1.35 M9.55 1.4 Q9.6 4.6 8.8 7.0 6.85 11.2 3.8 12.25 1.85 12.95 -0.3 12.7 L-3.3 12.2 -3.5 12.1 Q-6.75 10.6 -8.45 7.3 -9.45 4.85 -9.5 1.5 L-9.5 0.85 -9.45 0.2 Q-9.35 -4.55 -7.25 -7.95 L-6.65 -8.9 Q-4.55 -11.75 -1.9 -12.5 L-0.4 -12.75 0.25 -12.75 Q4.25 -12.7 7.05 -8.8 8.0 -7.55 8.5 -5.95 9.35 -3.35 9.55 0.2 L9.55 1.4" fill="#000000" fill-rule="evenodd" stroke="none"/>
  </g>
</svg>
