<?xml version="1.0" encoding="UTF-8" standalone="no"?>
<svg xmlns:xlink="http://www.w3.org/1999/xlink" height="33.35px" width="48.9px" xmlns="http://www.w3.org/2000/svg">
  <g transform="matrix(1.0, 0.0, 0.0, 1.0, 24.45, 16.7)">
    <path d="M21.4 -10.45 Q14.95 -11.15 3.4 -9.0 -5.45 -7.4 -12.15 -4.45 -16.15 -2.7 -19.45 -0.5 -18.95 -3.2 -15.55 -5.85 L-24.45 -7.8 -10.25 -9.1 Q-15.6 -10.1 -17.75 -12.15 -11.35 -11.25 -2.5 -12.15 -5.55 -13.45 -6.05 -15.2 -1.85 -13.5 9.7 -13.9 21.55 -13.3 24.45 -9.9 L21.4 -10.45 M5.9 -15.9 Q11.15 -17.5 18.25 -15.85 21.85 -14.95 22.7 -12.7 16.6 -14.9 5.9 -15.9 M8.15 12.3 L2.35 11.55 1.8 12.75 8.15 12.3 M-5.65 8.75 Q-8.55 6.9 -9.5 4.3 -4.75 8.1 5.15 10.0 13.75 10.75 21.55 8.8 17.9 12.95 11.45 13.85 L10.55 14.0 Q10.05 15.7 10.1 16.65 8.85 15.55 8.8 14.25 L1.2 14.45 0.85 16.65 Q0.2 15.5 0.05 14.4 L-6.45 13.25 Q-6.95 14.5 -7.05 15.75 -7.85 14.25 -7.8 12.8 L-8.65 12.55 -7.8 12.6 Q-7.65 10.55 -5.65 8.75 M-4.25 9.5 Q-5.55 11.15 -6.25 12.7 L0.05 12.8 Q0.15 12.0 0.6 11.2 -2.2 10.5 -4.25 9.5" fill="#000000" fill-rule="evenodd" stroke="none"/>
    <path d="M-12.15 -4.45 Q-5.45 -7.4 3.4 -9.0 14.95 -11.15 21.4 -10.45 24.45 -2.65 22.3 3.6 20.5 -4.45 15.9 -5.15 -3.25 -6.6 -10.75 0.1 -12.1 -1.5 -12.15 -4.45" fill="#000000" fill-opacity="0.32941177" fill-rule="evenodd" stroke="none"/>
  </g>
</svg>
