<?xml version="1.0" encoding="UTF-8" standalone="no"?>
<svg xmlns:xlink="http://www.w3.org/1999/xlink" height="37.8px" width="23.1px" xmlns="http://www.w3.org/2000/svg">
  <g transform="matrix(1.0, 0.0, 0.0, 1.0, 11.55, 18.8)">
    <path d="M4.05 -14.9 Q6.55 -16.85 8.75 -17.3 L9.35 -17.45 Q10.5 -16.8 10.05 -13.1 L10.05 -12.9 Q9.6 -9.7 8.15 -9.15 L7.6 -9.4 Q5.75 -10.2 4.25 -11.5 L4.05 -11.7 M-6.05 -13.85 L-5.7 -16.05 Q-5.25 -18.65 -2.55 -17.7 0.45 -16.6 1.95 -15.0 M1.9 -15.35 L3.95 -15.15 M2.95 -11.45 Q3.4 -7.95 5.1 -4.8 7.15 -5.25 8.3 -6.95 6.65 -9.25 4.25 -11.5 M1.65 -11.95 L1.3 -11.65 Q-1.15 -8.5 -1.6 -5.2 0.15 -4.35 2.25 -4.6 3.1 -7.55 2.95 -11.45 M-6.05 -13.85 L-6.0 -11.1 Q-5.4 -9.4 -4.0 -9.2 -1.4 -9.9 1.3 -11.65" fill="none" stroke="#000000" stroke-linecap="round" stroke-linejoin="round" stroke-width="1.7000000000000002"/>
    <path d="M10.05 -12.9 Q10.4 -13.05 10.55 -13.15 9.2 -7.1 8.7 0.35 L8.5 4.8 8.5 5.05 8.7 8.25 8.8 9.35 8.85 9.6 9.1 11.0 9.6 13.4 10.0 15.25 Q10.7 18.25 3.05 18.0 L1.1 17.85 Q-2.45 17.5 -4.7 16.5 L-7.2 14.75 -7.65 14.2 -8.8 12.1 Q-10.05 9.2 -10.4 4.55 L-10.45 3.25 -10.55 -3.05 -10.1 -15.3 -6.05 -13.85" fill="none" stroke="#000000" stroke-linecap="round" stroke-linejoin="round" stroke-width="2.0"/>
    <path d="M3.95 -15.15 L4.05 -14.9 4.35 -13.3 6.6 -13.15 M1.95 -15.0 L1.9 -15.35 M4.35 -13.3 L4.3 -12.5 4.05 -11.7 Q3.5 -11.4 2.95 -11.45 2.35 -11.5 1.65 -11.95 L1.9 -12.5 2.0 -13.4 -0.65 -13.55 M2.0 -13.4 L1.95 -15.0" fill="none" stroke="#000000" stroke-linecap="round" stroke-linejoin="round" stroke-width="1.0"/>
  </g>
</svg>
