<?xml version="1.0" encoding="UTF-8" standalone="no"?>
<svg xmlns:xlink="http://www.w3.org/1999/xlink" height="27.35px" width="18.05px" xmlns="http://www.w3.org/2000/svg">
  <g transform="matrix(1.0, 0.0, 0.0, 1.0, 9.05, 13.65)">
    <path d="M-3.5 -5.9 L-3.6 -5.55 -7.7 -5.95 Q-7.8 0.3 -6.95 6.2 L-3.0 7.5 Q-2.75 7.55 -2.6 7.8 L0.1 12.1 5.6 11.9 5.35 7.8 5.7 7.6 8.05 7.0 8.65 7.05 9.0 7.5 8.9 8.1 Q8.75 8.35 8.45 8.45 L6.65 8.9 Q6.7 10.25 7.25 12.25 L7.15 12.8 6.75 13.2 -0.4 13.55 -0.75 13.45 -0.95 13.2 -3.7 8.85 -7.85 7.5 -8.3 7.25 Q-8.55 7.05 -8.85 1.1 -9.2 -4.9 -8.9 -7.6 L-8.85 -7.5 -4.95 -6.85 -4.85 -13.65 -3.35 -13.2 -3.5 -5.9" fill="#96e8f5" fill-rule="evenodd" stroke="none"/>
  </g>
</svg>
