<?xml version="1.0" encoding="UTF-8" standalone="no"?>
<svg xmlns:xlink="http://www.w3.org/1999/xlink" height="29.2px" width="25.75px" xmlns="http://www.w3.org/2000/svg">
  <g transform="matrix(1.0, 0.0, 0.0, 1.0, 12.9, 14.6)">
    <path d="M10.1 -3.4 L10.35 -2.35 Q11.1 -3.8 11.6 -6.3 L11.75 -7.25 Q12.0 -7.75 11.6 -8.3 L11.25 -8.65 10.05 -9.15 M10.35 -2.35 L11.1 0.45 Q11.5 1.95 11.35 3.5 L11.2 4.45 Q10.8 6.35 9.4 9.35 9.9 11.55 8.7 12.7 L8.7 12.1 Q6.9 10.9 1.7 11.1 -2.45 11.2 -5.5 11.95 -7.3 12.35 -8.1 12.85 L-9.0 13.3 -9.6 13.6 -10.2 13.15 -11.0 11.45 Q-11.4 10.25 -11.3 9.3 L-11.15 8.45 -10.8 7.35 Q-11.45 5.45 -11.1 3.35 -11.8 2.2 -11.6 0.9 -11.5 -1.0 -10.4 -2.45 L-10.4 -2.5 Q-10.55 -4.1 -11.6 -6.9 -12.1 -8.35 -11.75 -9.85 L-11.7 -10.0 -11.5 -10.6 Q-10.45 -13.9 -7.6 -13.55 L0.0 -12.45 Q4.3 -11.75 9.25 -12.4 12.4 -12.1 11.25 -8.65 M-7.75 -5.25 L-8.25 -4.9 Q-9.65 -3.8 -10.4 -2.5 M-5.15 4.2 L-6.6 4.5 Q-8.7 5.3 -10.8 7.35 M4.25 5.65 Q8.05 5.45 9.15 8.4 L9.4 9.35" fill="none" stroke="#000000" stroke-linecap="round" stroke-linejoin="round" stroke-width="2.0"/>
    <path d="M-6.25 -5.85 Q1.8 -5.1 8.75 -7.0" fill="none" stroke="#000000" stroke-linecap="round" stroke-linejoin="round" stroke-opacity="0.6" stroke-width="1.4000000000000001"/>
  </g>
</svg>
