<?xml version="1.0" encoding="UTF-8" standalone="no"?>
<svg xmlns:xlink="http://www.w3.org/1999/xlink" height="25.3px" width="48.4px" xmlns="http://www.w3.org/2000/svg">
  <g transform="matrix(1.0, 0.0, 0.0, 1.0, 24.2, 12.65)">
    <path d="M-15.15 -11.9 Q-22.4 -2.05 -23.45 2.1 -13.85 11.2 -0.9 11.9 -1.25 7.75 2.9 -2.0 L4.95 -6.65 4.85 -6.6 M3.85 -11.85 Q3.1 -9.0 4.95 -6.65 L14.15 -7.4 Q19.05 -6.45 20.85 -7.45 22.65 -8.5 22.7 -8.4 L21.55 -11.5 M22.7 -8.4 Q23.85 -5.8 23.25 -4.6 15.3 -2.3 2.9 -2.0" fill="none" stroke="#000000" stroke-linecap="round" stroke-linejoin="round" stroke-width="1.5"/>
    <path d="M4.85 -6.6 Q1.95 -5.65 -2.7 -5.95 M14.15 -7.4 L17.05 -8.6 M4.85 -6.6 Q1.1 -7.6 0.15 -8.65" fill="none" stroke="#000000" stroke-linecap="round" stroke-linejoin="round" stroke-width="1.0"/>
  </g>
</svg>
