<?xml version="1.0" encoding="UTF-8" standalone="no"?>
<svg xmlns:xlink="http://www.w3.org/1999/xlink" height="123.65px" width="81.9px" xmlns="http://www.w3.org/2000/svg">
  <g transform="matrix(1.0, 0.0, 0.0, 1.0, 40.95, 61.85)">
    <path d="M3.8 -46.9 Q8.25 -55.95 11.6 -59.5 16.0 -55.1 18.7 -45.9 22.85 -50.4 27.15 -53.95 31.9 -50.4 31.8 -41.1 L40.85 -49.15 Q42.3 -41.25 25.75 -5.65 17.65 9.0 13.1 19.05 L12.0 21.85 10.75 23.45 7.25 45.55 6.5 45.8 5.55 51.2 Q4.3 54.85 2.8 57.25 1.35 59.4 -0.25 60.5 L-1.6 61.25 -4.1 61.8 -1.65 55.0 -0.65 51.7 0.4 48.25 0.3 48.25 -0.1 48.35 Q3.65 31.05 4.55 22.85 L5.05 22.9 5.1 22.9 5.05 22.75 Q-10.85 -18.85 -40.95 -43.0 -39.95 -57.25 -38.05 -58.3 -31.25 -54.8 -31.45 -52.65 -28.2 -59.1 -26.75 -60.4 -22.0 -56.95 -20.7 -51.85 L-16.45 -60.85 Q-11.6 -57.1 -9.3 -49.8 L-2.55 -61.85 Q3.15 -54.4 3.8 -46.9" fill="#5fad81" fill-rule="evenodd" stroke="none"/>
  </g>
</svg>
