<?xml version="1.0" encoding="UTF-8" standalone="no"?>
<svg xmlns:xlink="http://www.w3.org/1999/xlink" height="22.65px" width="28.3px" xmlns="http://www.w3.org/2000/svg">
  <g transform="matrix(1.0, 0.0, 0.0, 1.0, 14.15, 11.35)">
    <path d="M11.95 -6.0 Q13.5 -5.15 14.0 -3.4 14.45 -1.65 13.55 -0.05 12.6 1.5 10.85 2.0 9.1 2.45 7.55 1.55 5.95 0.65 5.5 -1.1 5.0 -2.85 5.9 -4.4 6.85 -6.0 8.6 -6.5 10.4 -6.95 11.95 -6.0 M6.55 9.75 Q5.9 10.85 4.7 11.15 3.6 11.5 2.5 10.9 1.4 10.3 1.05 9.05 0.8 7.85 1.4 6.8 2.0 5.7 3.2 5.4 4.4 5.1 5.5 5.7 6.55 6.3 6.85 7.5 7.15 8.65 6.55 9.75 M-14.05 -8.05 Q-14.4 -9.35 -13.7 -10.6 L-13.1 -11.35 -12.45 -10.9 Q-10.7 -9.9 -8.75 -10.4 L-8.0 -10.95 -7.5 -9.8 Q-7.1 -8.4 -7.8 -7.2 -8.5 -5.95 -9.9 -5.6 -11.2 -5.2 -12.45 -5.95 -13.65 -6.6 -14.05 -8.05 M-6.0 -0.2 Q-4.9 0.45 -4.5 1.7 -4.2 2.95 -4.85 4.1 -5.5 5.2 -6.75 5.55 -8.05 5.9 -9.2 5.25 -10.3 4.6 -10.6 3.35 -10.95 2.05 -10.3 0.9 -9.65 -0.2 -8.35 -0.5 -7.15 -0.9 -6.0 -0.2" fill="#584514" fill-rule="evenodd" stroke="none"/>
  </g>
</svg>
