<?xml version="1.0" encoding="UTF-8" standalone="no"?>
<svg xmlns:xlink="http://www.w3.org/1999/xlink" height="151.55px" width="18.85px" xmlns="http://www.w3.org/2000/svg">
  <g transform="matrix(1.0, 0.0, 0.0, 1.0, 9.45, 75.8)">
    <path d="M-5.2 31.4 Q-3.15 -18.05 -5.05 -74.95 0.9 -65.0 3.05 -47.55 5.2 -30.05 4.05 31.7 L4.9 31.75 Q8.35 31.85 8.55 33.95 8.35 36.1 4.2 35.85 L3.05 69.75 Q2.6 74.8 -0.4 74.9 L-3.95 74.8 Q-6.45 74.25 -6.55 69.95 L-5.35 35.5 Q-9.05 35.7 -8.55 32.95 -7.7 31.05 -5.2 31.4 L4.05 31.7 M4.2 35.85 L-5.35 35.5" fill="none" stroke="#000000" stroke-linecap="round" stroke-linejoin="round" stroke-width="1.7000000000000002"/>
    <path d="M-0.8 42.65 L2.3 44.45 -0.8 46.1 -3.7 44.25 -0.8 42.65 M-3.55 39.05 L-0.6 37.4 2.45 39.2 -0.65 40.85 -3.55 39.05 M-4.05 54.8 L-1.15 53.2 1.95 55.0 -1.2 56.6 -4.05 54.8 M-4.25 60.0 L-1.35 58.4 1.75 60.2 -1.35 61.8 -4.25 60.0 M-3.9 49.55 L-1.0 47.95 2.1 49.75 -1.0 51.4 -3.9 49.55 M-1.5 63.65 L1.6 65.45 -1.55 67.05 -4.45 65.25 -1.5 63.65 M-4.6 70.6 L-1.7 69.0 1.4 70.8 -1.7 72.4 -4.6 70.6" fill="none" stroke="#000000" stroke-linecap="round" stroke-linejoin="round" stroke-width="1.0"/>
  </g>
</svg>
