<?xml version="1.0" encoding="UTF-8" standalone="no"?>
<svg xmlns:xlink="http://www.w3.org/1999/xlink" height="46.65px" width="40.3px" xmlns="http://www.w3.org/2000/svg">
  <g transform="matrix(1.0, 0.0, 0.0, 1.0, 7.95, 41.55)">
    <path d="M17.05 -29.55 Q14.1 -29.15 11.1 -30.1 L13.3 -41.55 Q13.75 -40.95 16.2 -40.7 L19.15 -40.85 17.05 -29.55" fill="#ffffff" fill-opacity="0.21960784" fill-rule="evenodd" stroke="none"/>
    <path d="M11.1 -30.1 Q14.1 -29.15 17.05 -29.55 L15.6 -21.9 14.2 -14.2 8.05 -14.4 9.55 -22.25 11.1 -30.1" fill="#ffffff" fill-opacity="0.32941177" fill-rule="evenodd" stroke="none"/>
    <path d="M8.05 -14.4 L14.2 -14.2 20.85 -14.9 20.95 -14.9 Q26.0 -15.7 30.8 -17.25 L31.15 -17.4 Q31.85 -17.25 32.2 -15.85 32.65 -14.25 31.8 -13.75 L30.15 -13.1 Q20.7 -9.85 10.7 -10.3 -0.6 -11.3 -6.35 -14.75 L-7.5 -15.55 Q-8.1 -16.05 -7.9 -17.3 -7.65 -18.7 -7.0 -19.1 L-6.45 -19.0 -4.15 -17.7 Q-2.0 -16.6 1.9 -15.65 L8.05 -14.4" fill="#ffffff" fill-opacity="0.45882353" fill-rule="evenodd" stroke="none"/>
    <path d="M9.55 -22.25 L8.05 -14.4 1.9 -15.65 Q-2.0 -16.6 -4.15 -17.7 L-6.45 -19.0 Q-5.35 -20.25 0.2 -21.3 L9.55 -22.25 M14.2 -14.2 L15.6 -21.9 Q20.9 -21.15 25.75 -19.75 30.55 -18.35 30.8 -17.25 26.0 -15.7 20.95 -14.9 L20.85 -14.9 14.2 -14.2" fill="#ffffff" fill-opacity="0.26666668" fill-rule="evenodd" stroke="none"/>
    <path d="M25.15 -25.1 Q25.55 -24.05 25.05 -23.55 L23.45 -23.45 Q22.35 -23.8 21.3 -24.85 20.3 -25.85 19.9 -26.9 19.6 -27.95 20.05 -28.45 L21.6 -28.55 Q22.65 -28.2 23.75 -27.15 24.75 -26.15 25.15 -25.1 M27.3 -20.65 Q27.55 -19.15 26.4 -19.65 25.2 -20.15 25.4 -21.15 25.55 -22.2 26.3 -22.2 27.05 -22.2 27.3 -20.65 M26.45 -5.25 Q25.75 -2.0 24.8 -0.6 23.85 0.75 23.9 -1.05 23.9 -2.85 24.5 -4.35 25.05 -5.9 26.1 -7.2 27.15 -8.5 26.45 -5.25 M23.55 0.9 Q24.85 2.55 23.55 4.8 23.2 5.4 23.0 4.75 22.15 2.4 23.55 0.9 M-2.4 -5.95 Q-0.65 -3.9 -1.2 -1.55 -1.8 0.75 -2.35 -0.9 L-3.2 -3.75 Q-3.55 -5.3 -2.4 -5.95" fill="#ffffff" fill-opacity="0.8784314" fill-rule="evenodd" stroke="none"/>
  </g>
</svg>
