<?xml version="1.0" encoding="UTF-8" standalone="no"?>
<svg xmlns:xlink="http://www.w3.org/1999/xlink" height="45.5px" width="24.65px" xmlns="http://www.w3.org/2000/svg">
  <g transform="matrix(1.0, 0.0, 0.0, 1.0, 11.9, 26.9)">
    <path d="M3.8 -9.2 Q6.45 -3.45 8.6 3.35 6.55 2.7 6.25 0.9 6.35 -1.55 4.75 -2.6 2.1 -4.0 3.1 -5.25 4.2 -6.8 3.8 -9.2 M8.05 9.6 Q9.45 8.95 10.0 7.9 L10.8 11.2 Q11.55 14.75 12.75 16.7 10.55 19.15 6.85 18.4 6.05 18.1 5.55 17.5 6.75 17.5 6.95 16.0 6.6 14.6 8.25 14.2 10.0 13.0 8.15 11.55 7.0 10.65 7.9 9.75 L8.05 9.6 M-0.75 -14.35 Q-1.65 -15.55 -0.3 -16.7 L2.0 -12.65 Q-0.15 -13.1 -0.75 -14.35 M-10.45 -26.4 L-10.3 -26.35 Q-9.05 -27.0 -6.6 -26.9 -5.65 -24.2 -2.5 -20.05 L-1.3 -18.35 Q-3.05 -19.85 -4.65 -19.95 -7.05 -20.25 -7.9 -22.25 -9.55 -25.1 -11.9 -23.9 -11.8 -25.5 -10.45 -26.4" fill="#f4736d" fill-rule="evenodd" stroke="none"/>
  </g>
</svg>
