<?xml version="1.0" encoding="UTF-8" standalone="no"?>
<svg xmlns:xlink="http://www.w3.org/1999/xlink" height="37.1px" width="20.7px" xmlns="http://www.w3.org/2000/svg">
  <g transform="matrix(1.0, 0.0, 0.0, 1.0, 10.35, 36.5)">
    <path d="M5.1 -35.9 Q8.2 -35.9 7.2 -29.65 9.75 -29.3 9.75 -26.35 L9.75 -3.35 Q9.75 0.0 6.4 0.0 L4.05 0.0 -4.05 0.0 -6.4 0.0 Q-9.75 0.0 -9.75 -3.35 L-9.75 -26.35 Q-9.75 -29.4 -7.0 -29.7 -8.0 -35.9 -4.9 -35.9 -1.75 -35.9 -2.75 -29.7 L2.95 -29.7 Q2.0 -35.9 5.1 -35.9 M2.95 -29.7 L6.4 -29.7 7.2 -29.65 M-7.0 -29.7 L-6.4 -29.7 -2.75 -29.7" fill="none" stroke="#431111" stroke-linecap="round" stroke-linejoin="round" stroke-width="1.2000000000000002"/>
    <path d="M3.45 -2.2 L4.05 0.0 M-3.45 -2.2 L-4.05 0.0" fill="none" stroke="#431111" stroke-linecap="round" stroke-linejoin="round" stroke-width="0.5"/>
  </g>
</svg>
