<?xml version="1.0" encoding="UTF-8" standalone="no"?>
<svg xmlns:xlink="http://www.w3.org/1999/xlink" height="19.8px" width="19.8px" xmlns="http://www.w3.org/2000/svg">
  <g transform="matrix(1.0, 0.0, 0.0, 1.0, -8.0, 19.8)">
    <path d="M16.3 -17.4 Q13.2 -16.75 11.45 -14.1 9.7 -11.4 10.35 -8.25 11.0 -5.1 13.7 -3.4 16.35 -1.65 19.5 -2.3 22.65 -2.95 24.4 -5.65 26.15 -8.35 25.5 -11.45 24.85 -14.6 22.15 -16.35 19.45 -18.1 16.3 -17.4 M15.85 -19.55 Q19.85 -20.4 23.25 -18.2 26.7 -15.95 27.55 -11.95 28.4 -7.9 26.15 -4.5 23.95 -1.05 19.9 -0.25 15.9 0.65 12.5 -1.6 9.1 -3.8 8.2 -7.85 7.4 -11.85 9.6 -15.3 11.85 -18.7 15.85 -19.55" fill="#000000" fill-opacity="0.54901963" fill-rule="evenodd" stroke="none"/>
    <path d="M15.6 -11.7 L15.75 -16.8 18.85 -12.75 23.75 -14.2 20.9 -10.05 20.85 -10.05 23.75 -5.85 18.9 -7.25 18.85 -7.3 18.85 -7.25 15.75 -3.25 15.6 -8.35 10.85 -10.05 15.6 -11.65 15.6 -11.7 18.85 -12.75 20.9 -10.05 M15.6 -11.65 L15.6 -8.35 18.85 -7.25 M18.9 -7.25 L20.85 -10.05" fill="none" stroke="#ffffff" stroke-linecap="round" stroke-linejoin="round" stroke-opacity="0.30980393" stroke-width="1.0"/>
  </g>
</svg>
