<?xml version="1.0" encoding="UTF-8" standalone="no"?>
<svg xmlns:xlink="http://www.w3.org/1999/xlink" height="74.35px" width="27.65px" xmlns="http://www.w3.org/2000/svg">
  <g transform="matrix(1.0, 0.0, 0.0, 1.0, 13.85, 37.2)">
    <path d="M-3.2 -4.55 Q-2.05 -1.5 -0.1 1.35 L-3.5 15.6 Q-5.65 23.0 -5.6 28.7 -5.35 35.25 -2.3 36.25 L-1.15 36.4 Q3.05 36.4 4.75 30.7 L5.5 27.2 Q6.0 12.5 4.6 0.7 13.6 -6.4 13.0 -19.7 12.9 -27.9 8.55 -32.75 6.5 -35.95 3.55 -34.05 L3.15 -33.75 Q-3.8 -27.7 -4.9 -16.25 -5.35 -10.15 -3.2 -4.55 -7.05 -7.2 -12.45 -9.05 L-11.3 -10.7 -13.1 -13.0 -11.3 -13.65 Q-11.85 -19.15 -11.05 -21.55 L-9.45 -20.2 Q-8.75 -23.0 -10.55 -27.4 -6.45 -26.75 -7.45 -33.75 L-5.6 -33.0 Q-4.75 -35.5 -3.05 -36.45 0.95 -35.8 3.55 -34.05" fill="none" stroke="#000000" stroke-linecap="round" stroke-linejoin="round" stroke-width="1.5"/>
    <path d="M1.4 25.15 Q1.55 26.05 1.15 26.8 0.8 27.5 0.05 27.6 -0.7 27.7 -1.35 27.05 -1.95 26.5 -2.1 25.55 -2.25 24.6 -1.85 23.85 -1.5 23.2 -0.7 23.1 -0.05 23.0 0.55 23.6 1.25 24.15 1.4 25.15" fill="none" stroke="#000000" stroke-linecap="round" stroke-linejoin="round" stroke-width="1.0"/>
    <path d="M-4.85 -31.0 L-2.65 -29.5 M-9.3 -12.6 Q-8.0 -13.1 -6.75 -13.65 M-9.2 -18.6 L-6.9 -18.25 M-7.75 -25.3 L-5.5 -24.55 M-2.85 21.55 L-0.4 11.25 1.9 1.35 M-3.9 27.9 Q-4.1 30.8 -3.1 32.7 M0.6 -2.7 Q-2.6 -8.85 -2.05 -15.55 -1.6 -22.15 1.45 -27.75" fill="none" stroke="#000000" stroke-linecap="round" stroke-linejoin="round" stroke-opacity="0.42745098" stroke-width="1.5"/>
  </g>
</svg>
