<?xml version="1.0" encoding="UTF-8" standalone="no"?>
<svg xmlns:xlink="http://www.w3.org/1999/xlink" height="86.0px" width="189.5px" xmlns="http://www.w3.org/2000/svg">
  <g transform="matrix(1.0, 0.0, 0.0, 1.0, 61.25, 95.8)">
    <path d="M0.35 -73.2 L0.0 -73.6 0.0 -74.3 1.7 -76.35 0.0 -78.4 0.0 -79.85 2.55 -82.8 0.95 -84.25 0.0 -83.25 0.0 -90.0 3.7 -92.05 5.75 -89.95 4.85 -89.25 7.95 -86.6 8.6 -87.25 Q18.35 -82.1 31.95 -79.35 39.2 -77.7 46.05 -78.3 54.0 -78.8 53.1 -82.3 51.75 -84.3 44.75 -87.85 37.7 -91.35 25.5 -95.8 41.35 -94.65 58.65 -87.05 86.35 -74.35 102.5 -53.3 110.5 -43.2 116.6 -33.15 105.6 -45.1 89.75 -53.7 52.8 -75.65 11.8 -71.6 L4.4 -78.25 0.35 -73.2 M-58.7 -46.85 Q-51.2 -63.45 -35.3 -78.35 -25.75 -86.85 -16.15 -91.75 -21.85 -88.4 -26.4 -83.15 -31.95 -76.35 -30.2 -74.35 -28.45 -73.25 -21.05 -77.75 L-8.6 -86.4 -6.65 -84.05 -7.3 -83.25 -8.25 -84.35 -9.85 -82.95 -6.85 -79.1 -9.1 -76.05 -7.2 -73.8 -10.05 -70.2 -8.35 -68.85 -6.65 -70.9 -6.65 -66.1 -8.9 -64.05 -16.3 -70.85 Q-39.3 -64.7 -58.7 -46.85" fill="url(#gradient0)" fill-rule="evenodd" stroke="none"/>
    <path d="M116.6 -33.15 Q123.7 -21.45 128.25 -9.8 107.4 -35.8 75.35 -51.2 46.35 -64.2 13.5 -62.65 L9.0 -62.15 6.15 -61.8 0.0 -60.85 0.0 -68.45 0.6 -69.4 1.2 -68.75 2.85 -70.35 0.35 -73.2 4.4 -78.25 11.8 -71.6 Q52.8 -75.65 89.75 -53.7 105.6 -45.1 116.6 -33.15" fill="url(#gradient1)" fill-rule="evenodd" stroke="none"/>
    <path d="M-58.7 -46.85 Q-39.3 -64.7 -16.3 -70.85 L-8.9 -64.05 -6.65 -66.1 -6.65 -59.55 Q-8.45 -58.8 -10.05 -57.35 -11.2 -59.25 -13.8 -61.65 -14.6 -62.4 -16.2 -62.5 -36.5 -60.2 -61.25 -40.4 L-58.7 -46.85" fill="url(#gradient2)" fill-rule="evenodd" stroke="none"/>
  </g>
  <defs>
    <linearGradient gradientTransform="matrix(0.0954, 0.0, 0.0, 0.0382, 23.85, -64.45)" gradientUnits="userSpaceOnUse" id="gradient0" spreadMethod="pad" x1="-819.2" x2="819.2">
      <stop offset="0.0" stop-color="#d5d5d5"/>
      <stop offset="0.34901960784313724" stop-color="#bebebe"/>
      <stop offset="1.0" stop-color="#e9e9e9"/>
    </linearGradient>
    <linearGradient gradientTransform="matrix(0.0548, 0.0211, -0.0064, 0.0166, 63.3, -50.45)" gradientUnits="userSpaceOnUse" id="gradient1" spreadMethod="pad" x1="-819.2" x2="819.2">
      <stop offset="0.0" stop-color="#d8d8d8"/>
      <stop offset="1.0" stop-color="#f4f4f4"/>
    </linearGradient>
    <linearGradient gradientTransform="matrix(-0.0327, 0.0163, -0.0046, -0.0091, -41.3, -51.1)" gradientUnits="userSpaceOnUse" id="gradient2" spreadMethod="pad" x1="-819.2" x2="819.2">
      <stop offset="0.0" stop-color="#d8d8d8"/>
      <stop offset="1.0" stop-color="#f4f4f4"/>
    </linearGradient>
  </defs>
</svg>
