<?xml version="1.0" encoding="UTF-8" standalone="no"?>
<svg xmlns:xlink="http://www.w3.org/1999/xlink" height="172.95px" width="191.0px" xmlns="http://www.w3.org/2000/svg">
  <g transform="matrix(1.0, 0.0, 0.0, 1.0, 0.75, 86.5)">
    <path d="M67.6 -77.35 L67.9 -77.75 67.6 -77.35 66.1 -78.65 67.0 -79.35 69.85 -76.65 69.2 -76.0 67.6 -77.35 M52.65 -75.8 L54.6 -77.15 54.6 -73.45 54.6 -71.95 53.95 -72.65 54.6 -73.45 52.65 -75.8" fill="url(#gradient0)" fill-rule="evenodd" stroke="none"/>
    <path d="M61.25 -69.25 L61.25 -67.8 60.65 -68.5 61.25 -69.25 M61.25 -63.7 L61.25 -63.0 61.0 -63.35 61.25 -63.7 M61.1 65.35 L61.1 68.95 59.2 68.95 58.7 68.95 61.1 65.35 58.65 61.95 60.1 61.95 61.1 61.95 61.1 65.35 M55.7 61.95 L57.05 61.95 54.75 65.35 54.75 61.95 55.7 61.95 M57.0 68.95 L54.75 68.95 54.75 65.35 57.0 68.95" fill="#333333" fill-rule="evenodd" stroke="none"/>
    <path d="M61.85 -58.8 L61.25 -57.85 61.25 -59.5 61.85 -58.8" fill="url(#gradient1)" fill-rule="evenodd" stroke="none"/>
    <path d="M67.9 -77.75 L67.6 -77.35 69.2 -76.0 69.85 -76.65 67.0 -79.35 66.1 -78.65 67.6 -77.35 66.1 -75.7 67.7 -74.3 64.7 -70.9 63.45 -71.75 61.25 -69.25 61.25 -67.8 62.95 -65.75 61.25 -63.7 61.25 -63.0 61.6 -62.6 63.6 -60.35 64.1 -59.75 62.45 -58.15 61.85 -58.8 61.25 -57.85 63.95 -54.8 65.5 -56.1 67.05 -54.35 68.85 -55.95 71.55 -52.6 70.25 -51.55 74.75 -52.05 Q107.6 -53.6 136.6 -40.6 168.65 -25.2 189.5 0.8 184.95 -10.85 177.85 -22.55 171.75 -32.6 163.75 -42.7 147.6 -63.75 119.9 -76.45 102.6 -84.05 86.75 -85.2 98.95 -80.75 106.0 -77.25 113.0 -73.7 114.35 -71.7 115.25 -68.2 107.3 -67.7 100.45 -67.1 93.2 -68.75 79.6 -71.5 69.85 -76.65 L70.45 -77.35 67.85 -80.0 67.0 -79.35 64.95 -81.45 61.25 -79.4 61.25 -72.65 61.9 -73.35 61.9 -73.95 64.95 -76.75 66.1 -75.7 65.1 -74.6 M54.6 -77.15 L54.6 -80.85 57.95 -85.75 61.25 -80.85 61.25 -79.4 M55.7 61.95 L55.7 59.35 55.35 59.35 55.35 -47.5 54.6 -47.5 54.6 -48.95 Q52.8 -48.2 51.2 -46.75 50.05 -48.65 47.45 -51.05 L46.75 -50.35 45.05 -51.9 Q24.75 -49.6 0.0 -29.8 1.1 -33.1 2.55 -36.25 10.05 -52.85 25.95 -67.75 35.5 -76.25 45.1 -81.15 39.4 -77.8 34.85 -72.55 29.3 -65.75 31.05 -63.75 32.8 -62.65 40.2 -67.15 L49.45 -73.55 49.05 -74.05 50.6 -75.2 52.15 -76.4 52.65 -75.8 54.6 -77.15 54.6 -73.45 54.6 -71.95 55.9 -70.5 57.35 -72.55 59.2 -70.35 61.25 -72.65 M52.65 -75.8 L51.05 -74.7 51.55 -74.15 M54.6 -80.85 L58.0 -80.85 61.25 -80.85 M50.6 -75.2 L51.05 -74.7 49.45 -73.55 51.9 -70.2 52.55 -70.9 51.4 -72.35 53.0 -73.75 53.95 -72.65 54.6 -73.45 52.65 -75.8 M59.2 -70.35 L60.65 -68.5 61.25 -69.25 M53.95 -72.65 L54.6 -71.95 M49.6 -56.0 L49.95 -56.4 48.5 -57.6 51.35 -60.95 51.95 -60.55 54.05 -63.2 52.15 -65.45 54.4 -68.5 52.55 -70.9 M57.5 -59.0 L59.5 -61.5 61.0 -63.35 61.25 -63.7 M54.4 -68.5 L55.9 -70.5 M45.05 -51.9 L44.05 -52.85 46.9 -56.2 48.4 -54.8 49.6 -56.0 M48.4 -54.8 L49.85 -53.5 47.45 -51.05 Q46.65 -51.8 45.05 -51.9 M48.4 -54.8 L47.35 -53.65 M51.95 -60.55 L51.2 -59.6 52.9 -58.25 53.6 -59.05 54.6 -60.3 55.5 -61.45 54.05 -63.2 M51.0 -57.55 L49.95 -56.4 51.25 -55.25 54.3 -58.45 53.6 -59.05 M54.6 -55.5 L54.6 -60.3 M57.5 -59.0 L55.5 -61.45 M61.9 -73.35 L62.2 -73.65 63.8 -72.2 63.45 -71.75 M61.25 -63.0 L61.0 -63.35 M64.55 -57.2 L65.5 -56.1 67.05 -57.45 64.15 -60.95 63.6 -60.35 M61.25 -59.5 L61.85 -58.8 M61.25 -59.5 L61.25 -57.85 61.25 -50.25 67.4 -51.2 65.7 -53.2 67.05 -54.35 67.95 -53.4 M67.4 -51.2 L70.25 -51.55 68.4 -50.1 67.4 -51.2 M59.5 -61.5 L61.25 -59.5 M60.65 -68.5 L61.25 -67.8 M55.7 59.35 L60.1 59.35 60.5 59.35 60.5 -47.5 55.35 -47.5 M61.25 -50.25 L61.25 -47.5 60.5 -47.5 M54.6 -48.95 L54.6 -55.5 M61.1 68.95 L61.1 69.9 62.95 67.65 64.8 65.35 61.1 60.75 61.1 61.95 60.1 61.95 58.65 61.95 57.85 60.8 57.05 61.95 55.7 61.95 54.75 61.95 54.75 65.35 57.05 61.95 M61.1 65.35 L61.1 68.95 59.2 68.95 60.75 72.75 62.2 72.2 61.65 71.15 M61.1 61.95 L61.1 65.35 58.65 61.95 M61.1 65.35 L58.7 68.95 59.2 68.95 M62.2 72.2 L64.25 71.4 62.95 67.65 M57.85 70.25 L58.7 68.95 M54.75 68.95 L54.75 69.9 51.0 65.35 54.75 60.75 54.75 61.95 M57.85 70.25 L57.0 68.95 54.75 68.95 54.75 65.35 57.0 68.95 M60.1 61.95 L60.1 59.35 M62.2 72.2 L63.3 74.5 Q64.3 74.05 65.25 73.55 L67.05 77.5 65.8 78.15 67.1 78.75 68.15 76.9 72.15 79.2 71.15 81.0 72.6 81.7 73.85 79.8 77.95 82.15 75.85 85.7 71.55 83.25 72.6 81.7 73.95 82.35 M67.1 78.75 L68.15 79.25 M64.25 77.45 L65.8 78.15 63.4 79.3 61.55 75.35 63.3 74.5 63.85 75.6 M67.1 78.75 L66.0 80.55 70.2 82.8 71.15 81.0 69.55 80.2" fill="none" stroke="#000000" stroke-linecap="round" stroke-linejoin="round" stroke-width="1.5"/>
    <path d="M61.6 -62.6 L65.65 -67.65 73.05 -61.0 Q114.05 -65.05 151.0 -43.1 166.85 -34.5 177.85 -22.55 M58.0 -80.85 L57.95 -85.75 M57.35 -72.55 L56.7 -66.3 62.95 -65.75 M52.15 -65.45 L56.7 -66.3 57.5 -59.0 M49.6 -56.0 L44.95 -60.25 Q21.95 -54.1 2.55 -36.25 M49.6 -56.0 L52.35 -53.45 54.6 -55.5 M64.8 65.35 L61.1 65.35 57.85 65.35 57.85 70.25 M57.85 60.8 L57.85 65.35 54.75 65.35 51.0 65.35" fill="none" stroke="#000000" stroke-linecap="round" stroke-linejoin="round" stroke-opacity="0.5176471" stroke-width="1.0"/>
  </g>
  <defs>
    <linearGradient gradientTransform="matrix(0.0954, 0.0, 0.0, 0.0382, 85.1, -53.85)" gradientUnits="userSpaceOnUse" id="gradient0" spreadMethod="pad" x1="-819.2" x2="819.2">
      <stop offset="0.0" stop-color="#d5d5d5"/>
      <stop offset="0.34901960784313724" stop-color="#bebebe"/>
      <stop offset="1.0" stop-color="#e9e9e9"/>
    </linearGradient>
    <linearGradient gradientTransform="matrix(0.0548, 0.0211, -0.0064, 0.0166, 124.55, -39.85)" gradientUnits="userSpaceOnUse" id="gradient1" spreadMethod="pad" x1="-819.2" x2="819.2">
      <stop offset="0.0" stop-color="#d8d8d8"/>
      <stop offset="1.0" stop-color="#f4f4f4"/>
    </linearGradient>
  </defs>
</svg>
