<?xml version="1.0" encoding="UTF-8" standalone="no"?>
<svg xmlns:xlink="http://www.w3.org/1999/xlink" height="123.3px" width="126.9px" xmlns="http://www.w3.org/2000/svg">
  <g transform="matrix(1.0, 0.0, 0.0, 1.0, 63.45, 61.65)">
    <path d="M-56.85 31.4 Q-59.05 29.75 -57.75 27.45 -56.45 25.15 -54.75 27.05 -52.5 29.65 -50.3 33.7 L-50.1 34.0 -49.85 34.55 -49.75 34.75 -49.6 35.0 Q-50.6 36.4 -51.0 37.65 L-51.15 38.3 M-51.0 37.65 Q-53.3 37.25 -54.5 34.35" fill="none" stroke="#54453c" stroke-linecap="round" stroke-linejoin="round" stroke-width="1.0"/>
    <path d="M-44.65 41.35 L-44.95 41.85 -40.05 47.4 Q-30.9 56.85 -2.9 60.15 36.85 62.3 49.75 52.5 62.6 42.7 61.05 30.9 59.5 19.1 61.6 14.35 64.8 -11.95 54.7 -31.15 48.55 -44.3 29.7 -53.65 L29.65 -53.7 Q21.7 -57.05 11.6 -59.5 -21.7 -64.95 -45.55 -42.65 -60.75 -27.35 -60.1 0.4 -59.3 9.5 -55.2 21.2 L-54.35 21.7 -53.8 22.05 -51.65 24.15 M-55.2 21.2 L-55.75 20.6 Q-58.5 20.8 -60.15 22.05 -64.95 27.9 -59.35 35.6 -54.6 42.1 -50.15 42.9 -46.2 43.5 -44.95 41.85" fill="none" stroke="#54453c" stroke-linecap="round" stroke-linejoin="round" stroke-width="2.2"/>
  </g>
</svg>
