<?xml version="1.0" encoding="UTF-8" standalone="no"?>
<svg xmlns:xlink="http://www.w3.org/1999/xlink" height="136.55px" width="126.9px" xmlns="http://www.w3.org/2000/svg">
  <g transform="matrix(1.0, 0.0, 0.0, 1.0, 63.45, 68.25)">
    <path d="M32.75 65.9 L41.6 65.45 Q50.7 59.5 52.7 54.95 54.65 50.35 54.05 49.25 53.4 48.15 52.3 44.75 52.9 43.0 56.75 38.0 60.55 32.95 61.2 27.95 L61.05 24.3 Q59.5 12.5 61.6 7.75 64.8 -18.55 54.7 -37.75 48.55 -50.9 29.7 -60.25 L29.65 -60.3 Q21.7 -63.65 11.6 -66.1 -21.7 -71.55 -45.55 -49.25 -60.75 -33.95 -60.1 -6.2 -59.3 2.9 -55.2 14.6 L-54.35 15.1 -53.8 15.45 -51.65 17.55 M32.75 66.25 L32.75 65.9 4.7 67.2 Q-13.55 54.65 -25.65 49.85 -37.8 45.05 -41.9 42.9 -44.2 36.2 -44.95 35.25 -46.2 36.9 -50.15 36.3 -54.6 35.5 -59.35 29.0 -64.95 21.3 -60.15 15.45 -58.5 14.2 -55.75 14.0 L-55.2 14.6 M-44.95 35.25 L-44.65 34.75 Q-44.0 36.0 -41.9 42.9" fill="none" stroke="#54453c" stroke-linecap="round" stroke-linejoin="round" stroke-width="2.2"/>
    <path d="M32.75 65.9 L32.75 58.6" fill="none" stroke="#54453c" stroke-linecap="round" stroke-linejoin="round" stroke-opacity="0.65882355" stroke-width="2.2"/>
    <path d="M-56.85 24.8 Q-59.05 23.15 -57.75 20.85 -56.45 18.55 -54.75 20.45 -52.5 23.05 -50.3 27.1 L-50.1 27.4 -49.85 27.95 -49.75 28.15 -49.6 28.4 Q-50.6 29.8 -51.0 31.05 L-51.15 31.7 M-51.0 31.05 Q-53.3 30.65 -54.5 27.75" fill="none" stroke="#54453c" stroke-linecap="round" stroke-linejoin="round" stroke-width="1.0"/>
  </g>
</svg>
