<?xml version="1.0" encoding="UTF-8" standalone="no"?>
<svg xmlns:xlink="http://www.w3.org/1999/xlink" height="58.5px" width="40.0px" xmlns="http://www.w3.org/2000/svg">
  <g transform="matrix(1.0, 0.0, 0.0, 1.0, 20.0, 29.25)">
    <path d="M-20.0 -2.7 L-20.0 -18.6 0.0 -29.25 20.0 -23.45 20.0 -4.95 Q10.5 -9.0 0.95 -16.4 -8.4 -8.65 -20.0 -2.7 -7.95 3.65 1.25 12.6 4.4 8.9 7.5 5.75 L8.3 5.0 9.05 4.2 Q14.65 -1.3 20.0 -4.95 L20.0 2.4 Q19.35 7.5 17.15 11.65 14.45 16.6 9.45 20.15 3.2 24.5 0.0 29.25 -3.2 25.3 -9.45 22.45 -15.35 19.7 -18.0 14.2 -19.5 11.15 -20.0 7.25 L-20.0 -2.7" fill="#4683c6" fill-rule="evenodd" stroke="none"/>
  </g>
</svg>
