<?xml version="1.0" encoding="UTF-8" standalone="no"?>
<svg xmlns:xlink="http://www.w3.org/1999/xlink" height="16.6px" width="22.85px" xmlns="http://www.w3.org/2000/svg">
  <g transform="matrix(1.0, 0.0, 0.0, 1.0, 11.4, 8.3)">
    <path d="M-11.0 3.85 Q-9.7 7.05 -4.45 6.25 -7.25 5.7 -7.95 1.6 -7.7 -3.45 -4.75 -5.65 -2.25 -7.65 0.35 -7.85 2.3 -8.15 4.45 -6.95 L5.1 -6.3 5.9 -5.5 Q8.85 -2.3 8.85 1.7 8.7 4.8 7.1 5.75 10.5 5.45 11.05 3.05 M7.1 5.75 L6.7 5.9 6.35 6.0 5.25 6.1 Q1.25 9.65 -3.0 6.25 L-4.45 6.25 M5.25 6.1 L4.05 5.75 3.55 5.6 2.7 5.35 1.3 5.35 1.0 5.35 -1.0 5.75 -1.95 6.1 -3.0 6.25" fill="none" stroke="#000000" stroke-linecap="round" stroke-linejoin="round" stroke-width="0.8"/>
  </g>
</svg>
