<?xml version="1.0" encoding="UTF-8" standalone="no"?>
<svg xmlns:xlink="http://www.w3.org/1999/xlink" height="25.8px" width="33.0px" xmlns="http://www.w3.org/2000/svg">
  <g transform="matrix(1.0, 0.0, 0.0, 1.0, 12.0, 1.55)">
    <path d="M5.5 -0.15 L7.1 -1.55 Q12.7 1.0 16.9 3.85 19.7 5.8 19.5 9.1 16.9 15.7 14.1 19.65 11.4 23.5 1.8 19.1 -7.8 14.6 -9.45 12.2 -11.1 9.7 -6.05 3.0 L-2.4 -0.6 Q-1.45 -0.05 -0.45 0.25 -4.25 4.3 -6.65 7.4 -9.0 10.55 -4.95 13.15 -1.0 15.8 7.45 18.8 10.6 20.35 13.1 17.4 15.75 14.45 17.35 11.1 19.1 7.75 15.85 5.3 12.55 2.8 5.5 -0.15" fill="#bb8046" fill-rule="evenodd" stroke="none"/>
    <path d="M-6.05 3.0 Q-11.1 9.7 -9.45 12.2 -7.8 14.6 1.8 19.1 11.4 23.5 14.1 19.65 16.9 15.7 19.5 9.1 19.7 5.8 16.9 3.85 L17.5 4.2 Q21.8 7.3 20.85 10.15 18.6 17.2 13.0 23.4 11.75 24.75 8.3 23.95 -2.55 20.0 -10.4 14.4 -12.9 12.1 -11.5 9.7 L-6.05 3.0" fill="#7e4420" fill-rule="evenodd" stroke="none"/>
    <path d="M12.55 5.0 Q12.7 4.65 12.95 4.65 13.85 5.3 12.75 5.3 12.5 5.3 12.55 5.0 M11.15 3.2 Q11.95 3.8 10.85 3.8 10.65 3.8 10.7 3.45 L11.15 3.2 M12.45 6.8 Q13.35 7.4 12.25 7.4 11.95 7.4 12.0 7.1 12.2 6.8 12.45 6.8 M11.75 9.7 Q11.55 9.7 11.6 9.4 11.7 9.1 11.95 9.1 12.85 9.7 11.75 9.7 M6.4 1.3 Q6.55 1.1 6.85 1.1 7.7 1.7 6.6 1.7 6.35 1.7 6.4 1.3 M2.95 1.7 Q3.05 1.35 3.35 1.35 4.15 2.05 3.15 2.05 2.85 2.05 2.95 1.7 M0.7 1.9 Q0.8 1.7 1.1 1.7 1.9 2.25 0.85 2.25 0.65 2.25 0.7 1.9 M0.15 11.15 L-0.1 10.8 Q0.05 10.6 0.3 10.6 1.2 11.15 0.15 11.15 M1.3 11.7 L1.7 11.4 Q2.6 12.0 1.5 12.0 1.25 12.0 1.3 11.7 M9.55 11.3 Q9.65 11.1 9.9 11.1 10.75 11.7 9.7 11.7 9.45 11.7 9.55 11.3 M3.15 12.25 Q4.0 12.9 2.95 12.9 2.7 12.9 2.75 12.5 L3.15 12.25 M5.7 13.05 Q5.85 12.85 6.1 12.85 6.95 13.4 5.95 13.4 5.65 13.4 5.7 13.05 M8.45 13.0 L8.9 12.75 Q9.7 13.35 8.65 13.35 8.4 13.35 8.45 13.0 M-2.0 3.2 L-1.6 2.9 Q-0.7 3.5 -1.8 3.5 L-2.0 3.2 M-1.05 5.5 Q-0.2 6.1 -1.3 6.1 -1.55 6.1 -1.5 5.7 L-1.05 5.5 M-1.85 7.5 L-1.5 7.3 Q-0.6 7.85 -1.65 7.85 -1.95 7.85 -1.85 7.5 M-0.55 9.45 L-0.7 9.1 -0.4 8.85 Q0.5 9.45 -0.55 9.45" fill="#cea169" fill-opacity="0.6313726" fill-rule="evenodd" stroke="none"/>
    <path d="M5.6 5.2 Q6.5 5.9 5.4 5.85 5.05 5.85 5.15 5.55 5.3 5.2 5.6 5.2 M5.5 3.0 Q6.6 3.55 5.4 3.65 5.05 3.8 5.1 3.35 5.15 3.0 5.5 3.0 M9.75 5.3 Q11.2 5.8 9.7 6.1 9.35 6.15 9.4 5.65 9.45 5.4 9.75 5.3 M8.3 5.15 Q9.2 5.85 8.1 5.8 7.8 5.8 7.9 5.5 L8.3 5.15 M8.9 3.1 Q9.75 3.85 8.65 3.8 8.35 3.8 8.45 3.45 8.5 3.1 8.9 3.1 M0.5 5.15 Q0.55 4.75 0.85 4.7 1.9 5.4 0.75 5.5 0.45 5.55 0.5 5.15 M2.85 5.45 Q3.8 6.15 2.7 6.1 2.35 6.1 2.5 5.7 L2.85 5.45 M2.5 3.6 L2.85 3.3 Q3.8 4.05 2.7 4.0 2.35 4.0 2.5 3.6 M3.45 7.8 Q3.5 7.45 3.8 7.45 4.7 8.25 3.6 8.1 3.25 8.1 3.45 7.8 M3.75 8.8 Q3.8 8.45 4.1 8.45 5.05 9.15 3.95 9.1 3.6 9.1 3.75 8.8 M1.3 7.1 Q0.95 7.1 1.1 6.75 L1.5 6.4 Q2.4 7.2 1.3 7.1 M0.45 8.3 Q0.55 7.9 0.8 7.9 1.75 8.65 0.65 8.6 0.3 8.6 0.45 8.3 M1.75 9.35 Q1.8 9.0 2.15 8.95 3.05 9.7 1.9 9.65 1.65 9.65 1.75 9.35 M3.05 10.65 Q3.15 10.25 3.5 10.2 4.55 10.8 3.35 11.0 3.0 11.05 3.05 10.65 M9.35 8.35 Q9.45 7.95 9.7 7.95 10.65 8.75 9.55 8.65 9.2 8.65 9.35 8.35 M8.4 7.4 Q8.1 7.4 8.25 7.1 8.3 6.75 8.6 6.65 9.6 7.4 8.4 7.4 M5.3 7.5 Q5.45 7.25 5.7 7.25 6.6 7.9 5.5 7.85 5.15 7.85 5.3 7.5 M6.25 8.65 L6.6 8.35 Q7.5 9.0 6.4 8.95 6.1 8.95 6.25 8.65 M5.4 10.85 Q5.45 10.6 5.8 10.6 6.75 11.25 5.6 11.2 5.2 11.2 5.4 10.85 M7.4 10.6 Q7.45 10.2 7.85 10.2 8.75 11.0 7.55 10.85 7.3 10.85 7.4 10.6 M5.4 9.55 Q5.45 9.2 5.8 9.15 6.75 9.9 5.6 9.8 5.2 9.8 5.4 9.55 M8.45 9.35 Q8.5 9.0 8.9 8.95 9.75 9.7 8.65 9.65 8.35 9.65 8.45 9.35" fill="#cea169" fill-rule="evenodd" stroke="none"/>
    <path d="M5.5 -0.15 Q12.55 2.8 15.85 5.3 19.1 7.75 17.35 11.1 15.75 14.45 13.1 17.4 10.6 20.35 7.45 18.8 -1.0 15.8 -4.95 13.15 -9.0 10.55 -6.65 7.4 -4.25 4.3 -0.45 0.25 1.1 0.8 2.6 0.75 4.15 0.7 5.5 -0.15 M6.4 1.3 Q6.35 1.7 6.6 1.7 7.7 1.7 6.85 1.1 6.55 1.1 6.4 1.3 M11.75 9.7 Q12.85 9.7 11.95 9.1 11.7 9.1 11.6 9.4 11.55 9.7 11.75 9.7 M12.45 6.8 Q12.2 6.8 12.0 7.1 11.95 7.4 12.25 7.4 13.35 7.4 12.45 6.8 M11.15 3.2 L10.7 3.45 Q10.65 3.8 10.85 3.8 11.95 3.8 11.15 3.2 M12.55 5.0 Q12.5 5.3 12.75 5.3 13.85 5.3 12.95 4.65 12.7 4.65 12.55 5.0 M8.9 3.1 Q8.5 3.1 8.45 3.45 8.35 3.8 8.65 3.8 9.75 3.85 8.9 3.1 M8.3 5.15 L7.9 5.5 Q7.8 5.8 8.1 5.8 9.2 5.85 8.3 5.15 M9.75 5.3 Q9.45 5.4 9.4 5.65 9.35 6.15 9.7 6.1 11.2 5.8 9.75 5.3 M5.5 3.0 Q5.15 3.0 5.1 3.35 5.05 3.8 5.4 3.65 6.6 3.55 5.5 3.0 M5.6 5.2 Q5.3 5.2 5.15 5.55 5.05 5.85 5.4 5.85 6.5 5.9 5.6 5.2 M0.7 1.9 Q0.65 2.25 0.85 2.25 1.9 2.25 1.1 1.7 0.8 1.7 0.7 1.9 M2.95 1.7 Q2.85 2.05 3.15 2.05 4.15 2.05 3.35 1.35 3.05 1.35 2.95 1.7 M0.45 8.3 Q0.3 8.6 0.65 8.6 1.75 8.65 0.8 7.9 0.55 7.9 0.45 8.3 M1.3 7.1 Q2.4 7.2 1.5 6.4 L1.1 6.75 Q0.95 7.1 1.3 7.1 M3.75 8.8 Q3.6 9.1 3.95 9.1 5.05 9.15 4.1 8.45 3.8 8.45 3.75 8.8 M3.45 7.8 Q3.25 8.1 3.6 8.1 4.7 8.25 3.8 7.45 3.5 7.45 3.45 7.8 M2.5 3.6 Q2.35 4.0 2.7 4.0 3.8 4.05 2.85 3.3 L2.5 3.6 M2.85 5.45 L2.5 5.7 Q2.35 6.1 2.7 6.1 3.8 6.15 2.85 5.45 M0.5 5.15 Q0.45 5.55 0.75 5.5 1.9 5.4 0.85 4.7 0.55 4.75 0.5 5.15 M1.3 11.7 Q1.25 12.0 1.5 12.0 2.6 12.0 1.7 11.4 L1.3 11.7 M0.15 11.15 Q1.2 11.15 0.3 10.6 0.05 10.6 -0.1 10.8 L0.15 11.15 M5.4 9.55 Q5.2 9.8 5.6 9.8 6.75 9.9 5.8 9.15 5.45 9.2 5.4 9.55 M7.4 10.6 Q7.3 10.85 7.55 10.85 8.75 11.0 7.85 10.2 7.45 10.2 7.4 10.6 M5.4 10.85 Q5.2 11.2 5.6 11.2 6.75 11.25 5.8 10.6 5.45 10.6 5.4 10.85 M6.25 8.65 Q6.1 8.95 6.4 8.95 7.5 9.0 6.6 8.35 L6.25 8.65 M5.3 7.5 Q5.15 7.85 5.5 7.85 6.6 7.9 5.7 7.25 5.45 7.25 5.3 7.5 M8.4 7.4 Q9.6 7.4 8.6 6.65 8.3 6.75 8.25 7.1 8.1 7.4 8.4 7.4 M9.35 8.35 Q9.2 8.65 9.55 8.65 10.65 8.75 9.7 7.95 9.45 7.95 9.35 8.35 M3.05 10.65 Q3.0 11.05 3.35 11.0 4.55 10.8 3.5 10.2 3.15 10.25 3.05 10.65 M1.75 9.35 Q1.65 9.65 1.9 9.65 3.05 9.7 2.15 8.95 1.8 9.0 1.75 9.35 M9.55 11.3 Q9.45 11.7 9.7 11.7 10.75 11.7 9.9 11.1 9.65 11.1 9.55 11.3 M8.45 9.35 Q8.35 9.65 8.65 9.65 9.75 9.7 8.9 8.95 8.5 9.0 8.45 9.35 M8.45 13.0 Q8.4 13.35 8.65 13.35 9.7 13.35 8.9 12.75 L8.45 13.0 M5.7 13.05 Q5.65 13.4 5.95 13.4 6.95 13.4 6.1 12.85 5.85 12.85 5.7 13.05 M3.15 12.25 L2.75 12.5 Q2.7 12.9 2.95 12.9 4.0 12.9 3.15 12.25 M-0.55 9.45 Q0.5 9.45 -0.4 8.85 L-0.7 9.1 -0.55 9.45 M-1.85 7.5 Q-1.95 7.85 -1.65 7.85 -0.6 7.85 -1.5 7.3 L-1.85 7.5 M-1.05 5.5 L-1.5 5.7 Q-1.55 6.1 -1.3 6.1 -0.2 6.1 -1.05 5.5 M-2.0 3.2 L-1.8 3.5 Q-0.7 3.5 -1.6 2.9 L-2.0 3.2" fill="url(#gradient0)" fill-rule="evenodd" stroke="none"/>
  </g>
  <defs>
    <radialGradient cx="0" cy="0" gradientTransform="matrix(0.0167, 0.0, 0.0, 0.0167, 5.65, 6.7)" gradientUnits="userSpaceOnUse" id="gradient0" r="819.2" spreadMethod="pad">
      <stop offset="0.00784313725490196" stop-color="#cd9f67"/>
      <stop offset="0.6039215686274509" stop-color="#f3df9c"/>
      <stop offset="0.984313725490196" stop-color="#f3df9c"/>
    </radialGradient>
  </defs>
</svg>
