<?xml version="1.0" encoding="UTF-8" standalone="no"?>
<svg xmlns:xlink="http://www.w3.org/1999/xlink" height="11.8px" width="26.25px" xmlns="http://www.w3.org/2000/svg">
  <g transform="matrix(1.0, 0.0, 0.0, 1.0, 13.1, 5.9)">
    <path d="M-10.9 -1.7 L-9.7 -2.8 -8.7 -3.4 Q-5.7 -5.5 2.65 -5.3 L5.0 -5.0 7.9 -4.5 11.3 -3.75 Q12.65 -3.2 12.55 -2.55 12.45 -2.0 11.65 -1.4 9.9 -0.4 6.3 -0.45 L3.6 -0.45 Q-0.15 0.15 -3.0 2.95 -5.45 5.6 -8.7 5.25 -12.45 4.9 -12.5 2.35 -12.55 0.0 -10.9 -1.7" fill="none" stroke="#000000" stroke-linecap="round" stroke-linejoin="round" stroke-width="1.2000000000000002"/>
    <path d="M-10.9 -1.7 L-7.95 -1.85 -7.25 -2.85 -6.25 -0.15 -4.95 -1.75 12.55 -2.55" fill="none" stroke="#000000" stroke-linecap="round" stroke-linejoin="round" stroke-width="0.8"/>
  </g>
</svg>
