<?xml version="1.0" encoding="UTF-8" standalone="no"?>
<svg xmlns:xlink="http://www.w3.org/1999/xlink" height="7.35px" width="30.55px" xmlns="http://www.w3.org/2000/svg">
  <g transform="matrix(1.0, 0.0, 0.0, 1.0, 15.25, 3.7)">
    <path d="M-9.95 -0.35 L10.05 -1.7 10.8 -1.65 10.95 -1.7 15.3 -0.6 11.05 1.45 11.05 1.5 9.85 1.75 -13.25 3.65 -13.3 3.5 -14.75 3.25 Q-15.65 2.15 -15.0 0.5 -14.5 0.05 -13.55 -0.1 L-13.4 -0.2 -11.35 -0.3 -11.5 -2.15 Q-11.4 -3.05 -10.65 -3.1 L-4.1 -3.7 Q-3.75 -3.65 -3.75 -3.15 -3.8 -2.45 -4.05 -2.5 L-10.1 -1.85 -9.95 -0.35" fill="#e88499" fill-rule="evenodd" stroke="none"/>
  </g>
</svg>
