<?xml version="1.0" encoding="UTF-8" standalone="no"?>
<svg xmlns:xlink="http://www.w3.org/1999/xlink" height="5.55px" width="14.7px" xmlns="http://www.w3.org/2000/svg">
  <g transform="matrix(1.0, 0.0, 0.0, 1.0, 7.35, 2.85)">
    <path d="M2.2 -2.25 L3.75 -2.0 6.75 -1.75 Q6.25 0.05 4.8 1.0 4.9 -1.35 2.2 -2.25" fill="#3a1616" fill-rule="evenodd" stroke="none"/>
    <path d="M4.8 1.0 Q3.35 1.9 0.8 2.05 -4.7 2.4 -6.75 -1.95 L-4.75 -1.95 -3.45 -1.15 -2.15 -2.1 0.4 -2.25 2.2 -2.25 Q4.9 -1.35 4.8 1.0" fill="#ec839a" fill-rule="evenodd" stroke="none"/>
    <path d="M2.2 -2.25 L3.75 -2.0 6.75 -1.75 Q6.25 0.05 4.8 1.0 3.35 1.9 0.8 2.05 -4.7 2.4 -6.75 -1.95 L-4.75 -1.95 -3.45 -1.15 -2.15 -2.1 0.4 -2.25 2.2 -2.25 Z" fill="none" stroke="#000000" stroke-linecap="round" stroke-linejoin="round" stroke-width="1.2000000000000002"/>
  </g>
</svg>
