<?xml version="1.0" encoding="UTF-8" standalone="no"?>
<svg xmlns:xlink="http://www.w3.org/1999/xlink" height="7.9px" width="13.7px" xmlns="http://www.w3.org/2000/svg">
  <g transform="matrix(1.0, 0.0, 0.0, 1.0, 6.95, 3.95)">
    <path d="M-3.8 -1.85 Q-2.4 -3.15 -0.1 -3.3 L-0.9 -1.75 -1.6 -0.3 -3.8 -1.85" fill="#ffffff" fill-rule="evenodd" stroke="none"/>
    <path d="M-3.8 -1.85 L-1.6 -0.3 -0.9 -1.75 Q4.05 -0.7 5.35 2.55 L0.5 3.3 Q-5.85 3.5 -6.35 2.4 -5.6 -0.45 -3.8 -1.85" fill="#ec839a" fill-rule="evenodd" stroke="none"/>
    <path d="M-0.9 -1.75 L-0.1 -3.3 0.9 -3.35 Q5.55 -2.7 6.15 2.1 L5.35 2.55 Q4.05 -0.7 -0.9 -1.75" fill="#7b2a3c" fill-rule="evenodd" stroke="none"/>
    <path d="M-0.1 -3.3 Q-2.4 -3.15 -3.8 -1.85 -5.6 -0.45 -6.35 2.4 -5.85 3.5 0.5 3.3 L5.35 2.55 6.15 2.1 Q5.55 -2.7 0.9 -3.35 L-0.1 -3.3" fill="none" stroke="#000000" stroke-linecap="round" stroke-linejoin="round" stroke-width="1.2000000000000002"/>
    <path d="M-3.8 -1.85 L-1.6 -0.3 -0.9 -1.75 -0.1 -3.3 Z" fill="none" stroke="#000000" stroke-linecap="round" stroke-linejoin="round" stroke-width="0.5"/>
  </g>
</svg>
