<?xml version="1.0" encoding="UTF-8" standalone="no"?>
<svg xmlns:xlink="http://www.w3.org/1999/xlink" height="7.0px" width="22.15px" xmlns="http://www.w3.org/2000/svg">
  <g transform="matrix(1.0, 0.0, 0.0, 1.0, 11.6, 4.45)">
    <path d="M7.2 -1.85 Q8.4 -1.65 9.6 -0.9 10.4 1.2 9.75 2.0 L7.9 1.95 Q8.2 0.25 7.2 -1.85" fill="#4d1414" fill-rule="evenodd" stroke="none"/>
    <path d="M7.9 1.95 Q-4.0 1.6 -11.1 2.05 -10.95 -1.55 -9.15 -3.95 -1.85 -4.0 7.2 -1.85 8.2 0.25 7.9 1.95 M-7.6 -1.1 L-7.8 -1.1 -3.5 -0.55 7.05 0.15 Q-2.25 -1.55 -5.35 -1.45 -8.6 -1.35 -7.6 -1.1" fill="#ffffff" fill-rule="evenodd" stroke="none"/>
    <path d="M-7.6 -1.1 Q-8.6 -1.35 -5.35 -1.45 -2.25 -1.55 7.05 0.15 L-3.5 -0.55 -7.8 -1.1 -7.6 -1.1" fill="#cccccc" fill-rule="evenodd" stroke="none"/>
    <path d="M7.2 -1.85 Q8.4 -1.65 9.6 -0.9 10.4 1.2 9.75 2.0 L7.9 1.95 Q-4.0 1.6 -11.1 2.05 -10.95 -1.55 -9.15 -3.95 -1.85 -4.0 7.2 -1.85 Z" fill="none" stroke="#000000" stroke-linecap="round" stroke-linejoin="round" stroke-width="1.0"/>
  </g>
</svg>
