<?xml version="1.0" encoding="UTF-8" standalone="no"?>
<svg xmlns:xlink="http://www.w3.org/1999/xlink" height="12.05px" width="26.35px" xmlns="http://www.w3.org/2000/svg">
  <g transform="matrix(1.0, 0.0, 0.0, 1.0, 14.65, 7.15)">
    <path d="M-0.55 -5.35 Q3.5 -4.4 7.85 -2.75 9.2 -2.3 10.75 -1.0 11.6 2.75 10.9 4.35 L8.65 4.25 6.95 4.15 Q4.7 -2.3 -0.55 -5.35" fill="#4d1414" fill-rule="evenodd" stroke="none"/>
    <path d="M6.95 4.15 Q-6.05 3.7 -14.15 4.4 -14.0 -2.25 -11.8 -6.65 -6.5 -6.7 -0.55 -5.35 4.7 -2.3 6.95 4.15" fill="#ec839a" fill-rule="evenodd" stroke="none"/>
    <path d="M-0.55 -5.35 Q3.5 -4.4 7.85 -2.75 9.2 -2.3 10.75 -1.0 11.6 2.75 10.9 4.35 L8.65 4.25 6.95 4.15 Q-6.05 3.7 -14.15 4.4 -14.0 -2.25 -11.8 -6.65 -6.5 -6.7 -0.55 -5.35 Z" fill="none" stroke="#000000" stroke-linecap="round" stroke-linejoin="round" stroke-width="1.0"/>
  </g>
</svg>
