<?xml version="1.0" encoding="UTF-8" standalone="no"?>
<svg xmlns:xlink="http://www.w3.org/1999/xlink" height="30.2px" width="42.5px" xmlns="http://www.w3.org/2000/svg">
  <g transform="matrix(1.0, 0.0, 0.0, 1.0, 30.75, 16.3)">
    <path d="M6.5 -12.4 Q7.1 -11.75 7.4 -10.45 8.35 -6.45 4.9 -4.35 L4.5 -4.4 Q3.8 -4.4 3.7 -3.8 3.65 -3.45 3.95 -3.4 8.35 -2.35 11.45 0.95 L10.7 2.8 Q9.9 4.15 7.15 4.7 L2.15 4.3 Q0.05 4.5 -1.15 6.2 L-3.05 8.65 -5.25 11.1 -5.65 11.8 -8.15 13.4 -9.25 13.65 Q-9.1 10.55 -10.5 10.25 L-13.75 9.65 -17.25 8.85 Q-18.85 8.3 -20.45 7.2 -22.0 6.05 -23.85 6.8 L-26.55 7.55 -27.55 7.6 -28.55 7.05 -28.95 4.1 Q-29.0 3.05 -28.1 2.65 L-25.65 1.2 Q-23.6 -0.3 -25.3 -1.6 L-25.4 -1.45 -25.5 -1.75 Q-29.5 -3.8 -29.85 -8.05 L-29.75 -9.4 -29.2 -9.3 -26.85 -9.85 Q-24.55 -10.3 -22.45 -9.2 -20.0 -8.0 -17.25 -8.3 -17.05 -8.35 -16.95 -8.45 -16.4 -9.35 -16.7 -9.7 -16.25 -9.95 -16.3 -10.4 -16.4 -11.75 -16.15 -13.1 -15.9 -14.3 -15.1 -15.1 -10.5 -14.5 -7.85 -10.85 -5.25 -7.25 -0.65 -9.4 4.0 -11.55 6.5 -12.4 M-7.9 -1.65 Q-9.1 -2.45 -12.25 -1.2 -9.1 -2.45 -7.9 -1.65" fill="#ec839a" fill-opacity="0.8" fill-rule="evenodd" stroke="none"/>
    <path d="M-15.1 -15.1 L-14.4 -15.65 -12.5 -16.05 Q-7.95 -15.6 -6.15 -13.35 -4.35 -11.05 -2.3 -10.95 -0.4 -10.9 1.75 -12.0 3.85 -13.15 5.15 -13.05 5.9 -13.0 6.5 -12.4 4.0 -11.55 -0.65 -9.4 -5.25 -7.25 -7.85 -10.85 -10.5 -14.5 -15.1 -15.1 M4.9 -4.35 L4.6 -4.2 Q9.7 -3.65 10.75 -1.7 11.75 0.2 11.45 0.95 8.35 -2.35 3.95 -3.4 3.65 -3.45 3.7 -3.8 3.8 -4.4 4.5 -4.4 L4.9 -4.35 M-28.55 7.05 L-30.3 5.2 Q-30.7 4.25 -30.25 2.95 -29.8 1.55 -27.85 0.6 L-27.45 0.45 -27.35 0.4 -27.3 0.4 Q-25.25 -0.45 -25.4 -1.45 L-25.3 -1.6 Q-23.6 -0.3 -25.65 1.2 L-28.1 2.65 Q-29.0 3.05 -28.95 4.1 L-28.55 7.05 M-29.75 -9.4 Q-29.35 -10.6 -27.95 -11.05 L-27.9 -11.15 -27.85 -11.15 -27.7 -11.2 -27.65 -11.2 -27.3 -11.3 -27.0 -11.35 Q-24.0 -11.95 -21.25 -10.3 -19.05 -9.05 -17.05 -9.55 L-16.7 -9.7 Q-16.4 -9.35 -16.95 -8.45 -17.05 -8.35 -17.25 -8.3 -20.0 -8.0 -22.45 -9.2 -24.55 -10.3 -26.85 -9.85 L-29.2 -9.3 -29.75 -9.4 M-27.3 0.4 L-27.45 0.45 -27.3 0.4" fill="#ff9cb2" fill-opacity="0.84705883" fill-rule="evenodd" stroke="none"/>
    <path d="M7.15 4.7 L3.4 5.45 1.55 5.95 Q-2.2 7.85 -4.8 10.85 L-5.65 11.8 -5.25 11.1 -3.05 8.65 -1.15 6.2 Q0.05 4.5 2.15 4.3 L7.15 4.7 M-9.25 13.65 Q-9.95 13.55 -10.4 12.75 -11.5 10.85 -13.7 10.7 -16.55 10.45 -19.1 9.4 -21.75 8.3 -25.0 8.1 L-27.55 7.6 -26.55 7.55 -23.85 6.8 Q-22.0 6.05 -20.45 7.2 -18.85 8.3 -17.25 8.85 L-13.75 9.65 -10.5 10.25 Q-9.1 10.55 -9.25 13.65" fill="#bf5b73" fill-opacity="0.84705883" fill-rule="evenodd" stroke="none"/>
    <path d="M-15.1 -15.1 L-14.4 -15.65 -12.5 -16.05 Q-7.95 -15.6 -6.15 -13.35 -4.35 -11.05 -2.3 -10.95 -0.4 -10.9 1.75 -12.0 3.85 -13.15 5.15 -13.05 5.9 -13.0 6.5 -12.4 7.1 -11.75 7.4 -10.45 8.35 -6.45 4.9 -4.35 L4.6 -4.2 Q9.7 -3.65 10.75 -1.7 11.75 0.2 11.45 0.95 L10.7 2.8 Q9.9 4.15 7.15 4.7 L3.4 5.45 1.55 5.95 Q-2.2 7.85 -4.8 10.85 L-5.65 11.8 -8.15 13.4 -9.25 13.65 Q-9.95 13.55 -10.4 12.75 -11.5 10.85 -13.7 10.7 -16.55 10.45 -19.1 9.4 -21.75 8.3 -25.0 8.1 L-27.55 7.6 -28.55 7.05 -30.3 5.2 Q-30.7 4.25 -30.25 2.95 -29.8 1.55 -27.85 0.6 L-27.45 0.45 -27.3 0.4 Q-25.25 -0.45 -25.4 -1.45 L-25.5 -1.75 Q-29.5 -3.8 -29.85 -8.05 L-29.75 -9.4 Q-29.35 -10.6 -27.95 -11.05 L-27.9 -11.15 -27.85 -11.15 -27.7 -11.2 -27.65 -11.2 -27.3 -11.3 -27.0 -11.35 Q-24.0 -11.95 -21.25 -10.3 -19.05 -9.05 -17.05 -9.55 L-16.7 -9.7 Q-16.25 -9.95 -16.3 -10.4 -16.4 -11.75 -16.15 -13.1 -15.9 -14.3 -15.1 -15.1" fill="none" stroke="#f24f6e" stroke-linecap="round" stroke-linejoin="round" stroke-opacity="0.7490196" stroke-width="0.5"/>
    <path d="M-12.25 -1.2 Q-9.1 -2.45 -7.9 -1.65" fill="none" stroke="#000000" stroke-linecap="round" stroke-linejoin="round" stroke-opacity="0.31764707" stroke-width="1.0"/>
  </g>
</svg>
