<?xml version="1.0" encoding="UTF-8" standalone="no"?>
<svg xmlns:xlink="http://www.w3.org/1999/xlink" height="28.75px" width="25.05px" xmlns="http://www.w3.org/2000/svg">
  <g transform="matrix(1.0, 0.0, 0.0, 1.0, 12.55, 14.4)">
    <path d="M6.05 -3.6 Q5.8 -1.85 4.45 -0.75 M-5.35 -1.85 L-4.45 -1.4 Q1.3 1.2 7.3 1.75 L7.75 1.75 M5.65 8.95 Q-4.05 8.45 -8.25 5.35 M1.5 12.1 L1.7 9.2 M-0.95 -4.6 Q-1.55 -4.2 -1.2 -2.05 M-5.4 8.7 L-6.1 11.6" fill="none" stroke="#000000" stroke-linecap="round" stroke-linejoin="round" stroke-width="1.2000000000000002"/>
    <path d="M-0.2 -13.65 Q-2.1 -9.45 -3.4 -5.25 -1.95 -5.15 -0.95 -4.6 0.55 -5.4 2.15 -4.15 3.7 -2.9 6.05 -3.6 7.8 -2.85 9.35 -3.2 L11.75 -9.95 M9.35 -3.2 Q10.1 -3.4 10.8 -3.85 10.2 0.3 7.75 1.75 6.1 5.65 5.7 8.65 6.5 10.45 6.15 13.15 L3.65 13.5 0.8 13.35 0.8 12.15 -2.7 12.3 Q-5.0 13.2 -6.3 12.25 L-6.1 11.6 Q-7.6 10.05 -9.05 9.85 L-11.8 9.75 Q-11.85 8.0 -8.25 5.35 -6.35 2.05 -5.35 -1.85 -6.45 -3.65 -5.25 -6.5 -4.85 -5.4 -3.4 -5.25 M5.7 8.65 L5.65 8.95 M0.8 12.15 L1.1 12.2" fill="none" stroke="#000000" stroke-linecap="round" stroke-linejoin="round" stroke-width="1.5"/>
  </g>
</svg>
