<?xml version="1.0" encoding="UTF-8" standalone="no"?>
<svg xmlns:xlink="http://www.w3.org/1999/xlink" height="28.5px" width="25.8px" xmlns="http://www.w3.org/2000/svg">
  <g transform="matrix(1.0, 0.0, 0.0, 1.0, 12.9, 14.15)">
    <path d="M5.55 -7.05 L5.75 -6.85 Q7.25 -5.55 9.1 -4.75 L9.65 -4.5 Q11.1 -5.05 11.55 -8.3 L11.55 -8.45 11.65 -9.5 Q11.85 -12.25 10.85 -12.8 L10.25 -12.65 Q8.05 -12.2 5.55 -10.25 M4.45 -6.8 Q4.9 -3.3 6.6 -0.15 8.65 -0.6 9.8 -2.3 8.15 -4.6 5.75 -6.85 M3.45 -10.35 Q1.95 -11.95 -1.05 -13.05 -3.75 -14.0 -4.2 -11.4 L-4.45 -9.85 -4.5 -9.65 Q-4.7 -8.05 -4.5 -6.45 -3.9 -4.75 -2.5 -4.55 0.1 -5.25 2.8 -7.0 L3.15 -7.3 M4.45 -6.8 Q4.6 -2.9 3.75 0.05 1.65 0.3 -0.1 -0.55 0.35 -3.85 2.8 -7.0 M3.4 -10.7 L5.45 -10.5" fill="none" stroke="#000000" stroke-linecap="round" stroke-linejoin="round" stroke-width="1.7000000000000002"/>
    <path d="M5.55 -10.25 L5.85 -8.85 5.85 -8.75 8.25 -8.75 M5.85 -8.75 L5.85 -8.65 5.85 -8.35 5.55 -7.05 Q5.0 -6.75 4.45 -6.8 3.85 -6.85 3.15 -7.3 L3.5 -8.55 3.5 -8.75 3.5 -8.85 1.05 -8.85 M5.45 -10.5 L5.55 -10.25 M3.45 -10.35 L3.4 -10.7 M3.5 -8.85 L3.45 -10.35" fill="none" stroke="#000000" stroke-linecap="round" stroke-linejoin="round" stroke-width="1.0"/>
    <path d="M-4.45 -9.85 Q-7.9 -10.7 -11.25 -11.9 L-11.25 -11.1 -11.65 -7.6 Q-12.2 -1.4 -11.6 2.5 L-10.65 7.15 Q-9.35 12.2 0.05 13.35 8.6 13.6 10.05 6.0 L10.3 4.65 11.5 -4.25 11.9 -8.35 11.55 -8.3" fill="none" stroke="#000000" stroke-linecap="round" stroke-linejoin="round" stroke-width="2.0"/>
  </g>
</svg>
