<?xml version="1.0" encoding="UTF-8" standalone="no"?>
<svg xmlns:xlink="http://www.w3.org/1999/xlink" height="36.55px" width="16.9px" xmlns="http://www.w3.org/2000/svg">
  <g transform="matrix(1.0, 0.0, 0.0, 1.0, 8.45, 18.25)">
    <path d="M4.0 8.95 Q5.1 3.05 5.6 -11.1 4.2 -11.7 3.3 -13.0 L-0.35 -12.9 Q-1.95 -11.9 -3.1 -11.45 L-5.05 6.3 Q-5.95 13.0 -5.95 18.05 L-8.45 17.2 Q-8.25 12.15 -7.15 5.25 L-5.3 -11.1 -5.85 -11.5 Q-6.5 -12.5 -6.5 -14.1 L-6.45 -14.6 -6.35 -15.75 Q-6.0 -18.5 -3.75 -18.25 -1.95 -17.5 -0.95 -16.8 L-0.1 -16.05 Q1.45 -17.2 3.2 -15.85 L3.6 -16.1 4.15 -16.45 Q6.6 -17.95 7.9 -17.15 L8.4 -15.05 8.45 -14.55 8.45 -13.65 7.8 -11.1 7.5 -10.6 7.4 -10.6 Q7.25 2.55 6.2 8.15 5.05 14.35 3.9 17.2 L1.65 18.3 Q3.05 14.35 4.0 8.95" fill="#f6e0ff" fill-rule="evenodd" stroke="none"/>
  </g>
</svg>
