<?xml version="1.0" encoding="UTF-8" standalone="no"?>
<svg xmlns:xlink="http://www.w3.org/1999/xlink" height="31.2px" width="28.5px" xmlns="http://www.w3.org/2000/svg">
  <g transform="matrix(1.0, 0.0, 0.0, 1.0, 14.25, 15.6)">
    <path d="M2.1 -4.45 L13.4 -0.75 12.35 -2.85 Q9.25 -8.25 3.7 -11.9 L2.1 -11.05 4.6 -8.8 Q2.9 -7.4 1.2 -7.75 L0.45 -10.2 -4.25 -7.75 Q-1.55 -5.75 2.1 -4.45 1.6 -1.7 -0.35 -0.6 L-2.1 0.0 -2.45 -0.25 -5.4 -2.85 -10.55 1.8 -7.7 3.0 Q1.05 -0.1 12.65 0.45 L13.4 -0.75 M12.65 0.45 L9.95 5.7 Q-2.4 7.8 -13.4 14.75 -12.85 12.85 -12.1 11.1 -10.7 7.7 -8.55 4.75 L-11.9 1.2 -10.55 1.8 M-5.4 -2.85 Q-9.45 -7.4 -9.85 -14.75 -8.0 -10.55 -4.25 -7.75 M-8.55 4.75 L-5.95 7.5 Q-3.3 6.9 -3.85 4.65 L-7.7 3.0 M0.45 -10.2 L-0.45 -13.4 2.1 -11.05" fill="none" stroke="#000000" stroke-linecap="round" stroke-linejoin="round" stroke-width="1.7000000000000002"/>
  </g>
</svg>
