<?xml version="1.0" encoding="UTF-8" standalone="no"?>
<svg xmlns:xlink="http://www.w3.org/1999/xlink" height="21.65px" width="20.8px" xmlns="http://www.w3.org/2000/svg">
  <g transform="matrix(1.0, 0.0, 0.0, 1.0, 10.4, 10.8)">
    <path d="M8.55 -2.8 Q9.35 -4.0 9.4 -4.9 L9.3 -6.25 Q0.35 -6.15 -3.85 -9.8 -5.05 -9.0 -5.45 -6.85 M-5.5 -6.65 L-7.35 -3.0 Q-9.75 1.6 -9.35 4.35 -8.95 7.05 -6.75 8.65 -4.6 10.25 -1.65 9.75 1.25 9.2 2.4 7.85 3.5 6.5 3.7 4.2 4.05 7.4 6.6 6.9 9.1 6.4 8.9 4.15 L8.4 0.3 Q8.2 -0.7 8.55 -2.8" fill="none" stroke="#000000" stroke-linecap="round" stroke-linejoin="round" stroke-width="2.0"/>
    <path d="M-5.5 -6.65 Q-3.95 -5.0 0.6 -3.65 4.8 -2.2 8.55 -2.8" fill="none" stroke="#000000" stroke-linecap="round" stroke-linejoin="round" stroke-width="1.0"/>
    <path d="M-5.45 -6.85 L-5.5 -6.65" fill="none" stroke="#202020" stroke-linecap="round" stroke-linejoin="round" stroke-width="1.0"/>
  </g>
</svg>
