<?xml version="1.0" encoding="UTF-8" standalone="no"?>
<svg xmlns:xlink="http://www.w3.org/1999/xlink" height="24.7px" width="23.25px" xmlns="http://www.w3.org/2000/svg">
  <g transform="matrix(1.0, 0.0, 0.0, 1.0, 11.6, 12.35)">
    <path d="M8.25 -1.8 L8.45 -3.45 Q10.1 -6.0 10.8 -7.7 9.0 -7.9 4.3 -9.8 -0.45 -11.7 -5.8 -11.5 -6.25 -8.7 -6.1 -6.5 L-7.35 -5.15 -7.2 -4.0 -8.7 -1.3 -9.45 0.05 Q-11.65 4.05 -10.1 7.8 -8.55 11.55 -3.2 11.5 2.15 11.45 2.85 5.95 3.25 9.85 6.05 8.6 8.55 7.75 7.9 3.3 7.55 0.9 7.55 -1.1 L8.25 -1.8" fill="none" stroke="#000000" stroke-linecap="round" stroke-linejoin="round" stroke-width="1.7000000000000002"/>
    <path d="M-3.9 -6.25 L4.8 -4.2 Q1.15 -3.2 -4.35 -3.4" fill="none" stroke="#000000" stroke-linecap="round" stroke-linejoin="round" stroke-opacity="0.29803923" stroke-width="1.0"/>
  </g>
</svg>
