<?xml version="1.0" encoding="UTF-8" standalone="no"?>
<svg xmlns:xlink="http://www.w3.org/1999/xlink" height="24.2px" width="22.3px" xmlns="http://www.w3.org/2000/svg">
  <g transform="matrix(1.0, 0.0, 0.0, 1.0, 11.15, 12.1)">
    <path d="M-4.85 -7.25 Q-6.2 -5.35 -5.9 -4.3 -4.7 -2.6 0.2 -0.85 4.7 0.35 8.0 -0.15 8.85 -0.2 9.1 -2.85 10.5 -5.05 10.0 -6.8 2.1 -7.3 -3.0 -11.1 -4.4 -9.75 -4.85 -7.25 M8.0 -0.15 Q7.45 2.5 7.65 3.5 L7.95 5.2 Q4.35 5.25 2.95 7.4 2.85 9.3 1.55 11.1 -6.4 7.7 -10.15 6.75 -9.9 4.1 -8.45 1.1 L-5.9 -4.3" fill="none" stroke="#000000" stroke-linecap="round" stroke-linejoin="round" stroke-width="2.0"/>
  </g>
</svg>
