<?xml version="1.0" encoding="UTF-8" standalone="no"?>
<svg xmlns:xlink="http://www.w3.org/1999/xlink" height="28.45px" width="22.8px" xmlns="http://www.w3.org/2000/svg">
  <g transform="matrix(1.0, 0.0, 0.0, 1.0, 11.4, 14.25)">
    <path d="M9.5 3.0 L7.65 0.15 6.9 -0.8 5.05 -3.35 0.65 -13.25 Q-2.15 -9.85 -10.25 -9.2 L-8.85 -5.75 -7.25 -1.15 -7.25 -1.1 -6.8 0.5 -6.0 3.75 -5.75 4.75 -5.6 5.8 Q-5.5 7.75 -4.2 9.35 -3.0 10.9 -0.7 12.2 3.9 14.75 8.35 10.75 11.75 7.6 9.5 3.0 M8.7 3.4 Q9.15 5.95 7.05 7.15 L4.55 7.0 Q3.5 6.15 2.75 4.0 L2.5 3.2 M-10.4 -9.45 L-10.25 -9.2 M8.7 3.4 L8.5 2.7 8.0 1.45" fill="none" stroke="#000000" stroke-linecap="round" stroke-linejoin="round" stroke-width="2.0"/>
    <path d="M9.5 3.0 L8.7 3.4 8.2 3.65 M-6.4 3.65 L-6.0 3.75" fill="none" stroke="#000000" stroke-linecap="round" stroke-linejoin="round" stroke-width="1.0"/>
  </g>
</svg>
