<?xml version="1.0" encoding="UTF-8" standalone="no"?>
<svg xmlns:xlink="http://www.w3.org/1999/xlink" height="32.0px" width="22.65px" xmlns="http://www.w3.org/2000/svg">
  <g transform="matrix(1.0, 0.0, 0.0, 1.0, 11.3, 16.0)">
    <path d="M-5.7 -1.0 L-3.75 -6.7 -3.65 -6.7 -0.85 -16.0 Q3.15 -13.55 11.35 -13.05 L4.7 2.1 4.2 6.75 4.25 7.15 Q4.25 8.75 3.35 10.75 L3.25 11.0 Q2.3 13.05 1.0 14.15 -0.35 15.25 -2.65 16.0 -6.6 16.05 -6.05 13.25 -10.15 14.8 -11.0 10.75 L-11.3 8.05 Q-11.3 5.95 -10.5 4.8 L-9.45 3.4 -7.45 0.95 -7.2 0.7 -6.35 -0.3 -5.75 -1.05 -5.7 -1.0" fill="#dbdbdb" fill-rule="evenodd" stroke="none"/>
  </g>
</svg>
