<?xml version="1.0" encoding="UTF-8" standalone="no"?>
<svg xmlns:xlink="http://www.w3.org/1999/xlink" height="49.25px" width="39.7px" xmlns="http://www.w3.org/2000/svg">
  <g transform="matrix(1.0, 0.0, 0.0, 1.0, 19.85, 24.6)">
    <path d="M-9.05 -13.85 Q-11.2 -13.35 -12.25 -11.7 -14.7 -11.9 -15.9 -10.45 -17.4 -11.1 -18.45 -9.8 -20.25 -20.35 -10.85 -24.6 L-7.25 -18.3 Q-8.5 -16.55 -9.05 -13.85 M9.7 -18.9 L9.15 -18.4 Q4.95 -21.5 3.55 -24.25 11.15 -22.5 11.75 -15.55 11.1 -17.7 9.7 -18.9 M9.55 -2.85 Q12.9 -1.6 14.45 -2.3 L19.85 22.05 Q16.95 24.6 4.9 24.55 -20.7 25.2 -19.8 20.8 -15.8 10.85 -16.55 0.2 L-12.95 0.0 Q-11.35 -0.8 -9.3 -0.85 -5.75 0.0 -2.85 -1.7 0.65 -0.15 4.15 -2.35 7.7 -1.3 9.55 -2.85" fill="#bd9240" fill-rule="evenodd" stroke="none"/>
  </g>
</svg>
