<?xml version="1.0" encoding="UTF-8" standalone="no"?>
<svg xmlns:xlink="http://www.w3.org/1999/xlink" height="51.5px" width="32.9px" xmlns="http://www.w3.org/2000/svg">
  <g transform="matrix(1.0, 0.0, 0.0, 1.0, 17.55, 27.0)">
    <path d="M9.45 -9.05 Q13.45 -0.45 15.35 23.75 5.05 24.9 -7.25 24.25 -4.45 9.65 -5.95 -6.9 L-5.95 -8.45 -11.55 -12.05 Q-14.3 -13.75 -17.55 -14.3 -16.15 -20.05 -10.5 -23.95 L-10.25 -27.0 -7.2 -26.5 1.5 -26.1 4.15 -26.45 Q4.15 -24.65 5.7 -22.75 12.35 -18.15 14.45 -11.15 13.1 -9.9 9.45 -9.05" fill="#ffffff" fill-rule="evenodd" stroke="none"/>
    <path d="M8.4 -5.3 Q8.45 -4.3 7.9 -3.65 7.3 -3.05 6.45 -3.05 5.65 -3.05 4.9 -3.65 4.25 -4.3 4.2 -5.3 4.15 -6.15 4.8 -6.75 5.4 -7.45 6.2 -7.45 7.05 -7.45 7.75 -6.75 8.35 -6.15 8.4 -5.3 M1.4 -4.85 Q1.45 -3.95 0.8 -3.3 0.2 -2.65 -0.7 -2.65 -1.65 -2.65 -2.3 -3.3 -2.95 -3.95 -3.0 -4.85 -3.05 -5.75 -2.45 -6.45 -1.9 -7.1 -0.95 -7.1 -0.05 -7.1 0.65 -6.45 1.35 -5.75 1.4 -4.85 M9.6 1.55 Q9.65 2.5 9.1 3.15 8.4 3.75 7.55 3.75 6.75 3.75 6.1 3.15 5.45 2.5 5.4 1.55 5.35 0.65 5.95 0.1 6.55 -0.65 7.4 -0.65 8.25 -0.65 8.95 0.1 9.55 0.65 9.6 1.55 M2.05 1.95 Q2.1 2.85 1.5 3.55 0.9 4.2 0.0 4.2 -0.95 4.2 -1.6 3.55 -2.25 2.85 -2.3 1.95 -2.35 1.1 -1.75 0.4 -1.2 -0.25 -0.25 -0.25 0.65 -0.25 1.35 0.4 2.0 1.1 2.05 1.95" fill="#ffea56" fill-rule="evenodd" stroke="none"/>
  </g>
</svg>
