<?xml version="1.0" encoding="UTF-8" standalone="no"?>
<svg xmlns:xlink="http://www.w3.org/1999/xlink" height="49.85px" width="43.9px" xmlns="http://www.w3.org/2000/svg">
  <g transform="matrix(1.0, 0.0, 0.0, 1.0, 21.95, 24.9)">
    <path d="M1.7 -22.4 L5.4 -23.2 8.65 -20.4 Q10.15 -18.65 11.25 -16.7 12.4 -14.45 12.95 -11.75 14.45 -1.85 17.6 7.05 20.75 15.9 20.95 21.5 14.8 23.15 4.85 23.85 -11.1 24.35 -20.95 22.0 -19.9 16.75 -18.3 12.4 -16.75 8.05 -16.6 2.8 -19.95 -7.8 -18.1 -16.7 -17.3 -18.95 -15.85 -21.05 -14.75 -22.45 -12.3 -23.9 L-10.45 -23.25 Q-8.0 -22.5 -5.95 -22.3 L-2.15 -22.15 -1.35 -22.15 1.7 -22.4" fill="none" stroke="#000000" stroke-linecap="round" stroke-linejoin="round" stroke-width="2.0"/>
    <path d="M1.7 -22.4 L4.8 -18.55 5.05 -18.65 Q7.1 -19.35 8.65 -20.4 M-1.35 -22.15 L-0.8 -17.75 0.5 -17.8 4.8 -18.55 M0.5 -17.8 L1.7 -13.05 Q4.65 -13.35 7.1 -14.35 L5.05 -18.65 M7.1 -14.35 Q9.35 -15.25 11.25 -16.7 M-10.45 -23.25 L-13.25 -20.25 -10.1 -19.3 -7.55 -18.6 -5.95 -22.3 M-7.55 -18.6 L-5.05 -18.1 -2.1 -17.8 -0.8 -17.75 M-5.05 -18.1 L-5.7 -13.35 1.7 -13.05 M-18.1 -16.7 L-12.3 -14.95 -10.1 -19.3 M-15.85 -21.05 L-13.25 -20.25 M-12.3 -14.95 Q-8.8 -13.85 -5.7 -13.35" fill="none" stroke="#000000" stroke-linecap="round" stroke-linejoin="round" stroke-width="1.3"/>
    <path d="M-0.35 -7.85 Q0.35 -4.5 -0.25 -1.0 -2.5 2.3 -5.45 3.45 -9.2 1.6 -10.5 -1.05 -11.15 -5.2 -10.5 -7.75 -11.25 -8.05 -11.35 -8.5 -11.8 -11.1 -8.45 -10.75 L-2.0 -10.75 Q0.2 -10.55 -0.1 -9.15 -0.05 -8.6 -0.35 -7.85 L-5.5 -7.25 Q-9.2 -7.15 -10.5 -7.75" fill="none" stroke="#000000" stroke-linecap="round" stroke-linejoin="round" stroke-width="1.5"/>
  </g>
</svg>
