<?xml version="1.0" encoding="UTF-8" standalone="no"?>
<svg xmlns:xlink="http://www.w3.org/1999/xlink" height="49.25px" width="39.9px" xmlns="http://www.w3.org/2000/svg">
  <g transform="matrix(1.0, 0.0, 0.0, 1.0, 19.95, 24.6)">
    <path d="M-12.15 -23.25 Q-11.35 -24.6 -10.0 -24.6 L-8.25 -22.7 Q-6.95 -21.55 -5.4 -20.9 L-4.6 -20.6 -1.05 -20.0 0.15 -20.05 Q2.45 -20.3 3.3 -21.55 L3.65 -22.35 3.6 -24.35 Q5.05 -24.55 6.15 -22.55 6.05 -20.9 5.35 -19.75 3.8 -17.35 -0.4 -17.1 -4.4 -17.2 -7.1 -18.25 -9.25 -19.1 -10.55 -20.55 -11.6 -21.75 -12.15 -23.25 M19.95 17.65 L19.95 21.55 Q18.4 22.45 15.9 23.1 L8.35 24.35 1.9 24.65 -3.1 24.6 Q-9.4 24.4 -14.75 23.25 L-18.7 22.3 -19.85 21.95 Q-20.25 19.55 -19.15 17.1 L-19.1 17.1 -18.7 17.2 -14.75 17.9 -3.1 18.85 8.35 18.7 15.9 18.15 19.95 17.65" fill="#de50ee" fill-rule="evenodd" stroke="none"/>
  </g>
</svg>
