<?xml version="1.0" encoding="UTF-8" standalone="no"?>
<svg xmlns:xlink="http://www.w3.org/1999/xlink" height="49.25px" width="40.8px" xmlns="http://www.w3.org/2000/svg">
  <g transform="matrix(1.0, 0.0, 0.0, 1.0, 20.4, 24.6)">
    <path d="M-19.55 17.1 Q-19.95 17.05 -19.95 15.6 -20.0 14.1 -18.85 12.7 L-17.75 12.0 Q-18.0 10.95 -18.4 10.2 -18.35 9.05 -16.55 7.0 -15.45 5.15 -17.0 -1.65 -18.75 -7.0 -18.8 -11.35 L-18.8 -11.55 -18.8 -13.1 Q-18.2 -19.3 -12.7 -23.2 L-12.6 -23.25 Q-11.8 -24.6 -10.45 -24.6 L-8.7 -22.7 Q-7.4 -21.55 -5.85 -20.9 L-5.05 -20.6 -1.5 -20.0 -0.3 -20.05 Q2.0 -20.3 2.85 -21.55 L3.2 -22.35 3.15 -24.35 Q4.6 -24.55 5.7 -22.55 11.9 -17.7 13.4 -11.25 14.95 2.1 17.65 6.55 20.15 9.8 18.85 13.05 21.6 15.85 19.5 17.65 L19.5 21.55 Q17.95 22.45 15.45 23.1 L7.9 24.35 1.45 24.65 -3.55 24.6 Q-9.85 24.4 -15.2 23.25 L-19.15 22.3 -20.3 21.95 Q-20.7 19.55 -19.6 17.1 L-19.55 17.1" fill="#dbf7fb" fill-rule="evenodd" stroke="none"/>
  </g>
</svg>
