<?xml version="1.0" encoding="UTF-8" standalone="no"?>
<svg xmlns:xlink="http://www.w3.org/1999/xlink" height="58.05px" width="44.65px" xmlns="http://www.w3.org/2000/svg">
  <g transform="matrix(1.0, 0.0, 0.0, 1.0, 22.3, 29.0)">
    <path d="M16.2 -2.35 Q17.25 3.55 19.15 8.75 M-12.7 -25.4 Q-9.4 -23.15 -3.65 -21.75 M-18.4 0.75 Q-19.75 5.6 -19.15 8.75 M-0.85 -21.65 Q4.9 -20.05 7.7 -26.2" fill="none" stroke="#000000" stroke-linecap="round" stroke-linejoin="round" stroke-opacity="0.6" stroke-width="1.1"/>
    <path d="M21.55 8.75 L21.0 7.35 15.55 -6.4 15.9 -4.2 16.2 -2.35 M21.4 9.25 Q22.15 17.3 19.8 25.3 1.65 30.2 -18.05 27.05 -22.35 18.65 -21.35 8.75 L-18.4 0.75 -18.3 0.6 -18.3 0.5 -18.3 0.35 -18.4 -0.3 -18.45 -2.9 -18.5 -4.6 -18.85 -6.55 Q-19.35 -7.85 -19.65 -11.95 -20.0 -16.1 -19.0 -21.7 -17.25 -26.3 -12.7 -28.25 -7.1 -24.15 0.65 -23.7 4.3 -24.15 5.6 -27.25 7.05 -27.05 7.7 -26.2 L11.5 -20.8 Q14.55 -13.65 15.55 -6.45 L15.55 -6.4 M-18.4 0.75 L-18.35 0.7 -18.3 0.6" fill="none" stroke="#000000" stroke-linecap="round" stroke-linejoin="round" stroke-width="1.5"/>
  </g>
</svg>
