<?xml version="1.0" encoding="UTF-8" standalone="no"?>
<svg xmlns:xlink="http://www.w3.org/1999/xlink" height="50.9px" width="114.55px" xmlns="http://www.w3.org/2000/svg">
  <g transform="matrix(1.0, 0.0, 0.0, 1.0, 57.25, 25.45)">
    <path d="M-41.3 15.55 Q-48.65 9.4 -50.9 2.3 -50.55 6.25 -52.35 7.55 -60.55 -2.7 -55.05 -15.55 -53.3 -19.3 -48.75 -21.5 -25.8 -26.05 5.45 -25.35 33.75 -25.2 51.5 -22.6 56.9 -17.45 57.05 -12.35 58.45 -0.55 51.5 8.0 52.8 5.3 51.7 -1.0 50.7 12.4 37.3 19.2 L40.95 11.3 Q34.75 20.15 18.9 22.7 L25.25 16.5 Q18.2 21.2 7.15 24.65 L9.8 19.05 Q4.0 22.25 2.05 25.45 -9.7 23.05 -15.05 18.4 L-13.05 22.7 Q-25.35 19.95 -29.3 14.95 L-29.5 19.0 Q-39.2 14.4 -42.3 9.15 L-41.3 15.55" fill="url(#gradient0)" fill-rule="evenodd" stroke="none"/>
  </g>
  <defs>
    <linearGradient gradientTransform="matrix(0.0, 0.0347, -0.0699, 0.0, 0.05, 5.2)" gradientUnits="userSpaceOnUse" id="gradient0" spreadMethod="pad" x1="-819.2" x2="819.2">
      <stop offset="0.0" stop-color="#fff23c" stop-opacity="0.0"/>
      <stop offset="0.3803921568627451" stop-color="#fff23c" stop-opacity="0.84705883"/>
      <stop offset="0.6039215686274509" stop-color="#fff23c" stop-opacity="0.8"/>
      <stop offset="1.0" stop-color="#fff23c" stop-opacity="0.0"/>
    </linearGradient>
  </defs>
</svg>
