<?xml version="1.0" encoding="UTF-8" standalone="no"?>
<svg xmlns:xlink="http://www.w3.org/1999/xlink" height="62.9px" width="118.2px" xmlns="http://www.w3.org/2000/svg">
  <g transform="matrix(1.0, 0.0, 0.0, 1.0, 59.1, 31.45)">
    <path d="M23.25 10.55 L23.0 11.85 Q20.95 20.4 15.3 26.7 L18.5 25.55 Q29.3 22.25 38.8 6.45 L35.25 18.4 Q52.05 -0.9 57.1 -12.15 60.2 -22.25 53.45 -26.6 4.35 -34.25 -47.05 -26.6 -56.25 -23.8 -58.1 -16.9 -52.3 4.6 -34.35 18.5 L-41.2 4.65 -41.45 4.2 M-8.15 9.35 L-7.55 15.45 Q-3.6 25.05 2.7 29.85 7.8 26.7 10.0 16.35 L9.65 10.0 M23.0 11.85 Q18.9 22.85 8.5 30.15 10.15 24.65 10.0 16.35 M-41.2 4.65 Q-35.4 15.8 -18.45 24.85 L-16.7 25.4 Q-21.9 19.8 -25.1 11.4 L-27.2 4.8 M-25.1 11.4 Q-18.45 23.45 -2.8 30.45 -6.2 25.75 -7.55 15.45" fill="none" stroke="#000000" stroke-linecap="round" stroke-linejoin="round" stroke-width="2.0"/>
  </g>
</svg>
