<?xml version="1.0" encoding="UTF-8" standalone="no"?>
<svg xmlns:xlink="http://www.w3.org/1999/xlink" height="69.05px" width="123.75px" xmlns="http://www.w3.org/2000/svg">
  <g transform="matrix(1.0, 0.0, 0.0, 1.0, 61.85, 34.5)">
    <path d="M49.85 -23.2 Q46.85 -3.65 47.2 1.15 48.45 19.15 60.9 31.95 55.2 12.8 58.9 -14.4 60.15 -24.85 54.6 -29.7 37.2 -34.05 4.4 -33.45 -35.05 -32.75 -56.65 -27.3 -61.7 -23.3 -60.65 -17.15 -49.6 13.1 -55.85 33.55 -44.15 21.05 -45.6 0.3 L-45.7 -1.05 Q-46.25 -7.0 -50.05 -18.45 M-45.6 0.3 Q-44.25 8.3 -26.8 17.4 L-31.0 8.1 Q-25.85 18.2 -9.85 23.15 L-14.3 13.9 Q-10.95 20.05 1.6 26.25 14.15 21.5 17.45 13.85 15.0 21.25 12.15 23.55 23.95 19.55 30.25 9.85 28.15 16.45 23.25 21.05 43.25 15.35 47.2 1.15" fill="none" stroke="#000000" stroke-linecap="round" stroke-linejoin="round" stroke-width="2.0"/>
  </g>
</svg>
