<?xml version="1.0" encoding="UTF-8" standalone="no"?>
<svg xmlns:xlink="http://www.w3.org/1999/xlink" height="41.75px" width="119.85px" xmlns="http://www.w3.org/2000/svg">
  <g transform="matrix(1.0, 0.0, 0.0, 1.0, 59.9, 20.85)">
    <path d="M-55.5 -18.45 L55.8 -20.85 Q60.9 -4.85 59.75 8.55 51.0 8.6 46.25 5.1 45.15 11.9 40.65 17.3 31.1 12.8 26.35 8.95 25.65 14.95 20.15 20.9 11.95 15.0 8.0 9.75 5.2 15.55 -2.45 20.1 -10.3 13.85 -11.8 8.95 -15.2 13.7 -23.75 17.7 -28.6 11.65 -29.3 6.25 -33.75 10.9 -42.4 13.4 -45.4 9.15 -46.4 1.4 -50.9 5.1 -59.9 8.15 -60.05 -7.5 -55.5 -18.45" fill="#00ccff" fill-rule="evenodd" stroke="none"/>
  </g>
</svg>
