<?xml version="1.0" encoding="UTF-8" standalone="no"?>
<svg xmlns:xlink="http://www.w3.org/1999/xlink" height="192.95px" width="210.65px" xmlns="http://www.w3.org/2000/svg">
  <g transform="matrix(1.0, 0.0, 0.0, 1.0, 105.35, 96.45)">
    <path d="M-64.7 -35.0 Q-76.3 -23.1 -91.8 -28.2 -66.75 -25.45 -51.55 -68.0 -30.7 -98.45 -3.35 -96.3 37.9 -96.15 61.95 -70.8 L80.15 -46.15 Q87.35 -32.95 97.75 -32.95 90.8 -28.3 84.35 -32.55 92.85 -15.75 87.7 8.65 89.9 24.05 105.3 31.55 95.15 32.1 90.95 27.25 95.6 48.25 84.9 63.15 89.2 50.45 83.05 33.15 80.4 64.3 91.4 76.5 81.1 72.45 77.05 63.45 79.5 80.0 66.3 91.15 65.5 85.65 63.95 82.55 43.35 83.1 44.0 69.7 L42.1 73.65 Q38.05 81.5 42.1 89.7 24.85 83.35 21.6 71.5 16.05 86.65 -9.9 90.4 1.5 82.2 4.95 66.75 -4.8 88.7 -30.25 96.5 -23.4 89.75 -24.5 73.7 -33.6 86.75 -28.85 93.55 -46.7 83.45 -33.85 66.15 -45.9 81.7 -68.2 91.45 -59.65 83.15 -56.05 61.8 -59.25 69.9 -64.45 79.35 -69.65 88.85 -71.0 94.25 -78.7 71.55 -73.75 48.8 -90.35 73.05 -82.15 83.7 -99.25 73.85 -96.45 57.55 -94.4 45.3 -86.15 32.45 -91.95 39.6 -105.35 40.3 -88.8 30.8 -80.25 17.55 -94.5 3.45 -64.7 -35.0 M-80.0 17.15 Q-72.65 5.5 -71.5 -9.1 -82.4 4.6 -80.0 17.15" fill="url(#gradient0)" fill-rule="evenodd" stroke="none"/>
  </g>
  <defs>
    <linearGradient gradientTransform="matrix(0.0, 0.0853, -0.0271, 0.0, 59.35, -9.45)" gradientUnits="userSpaceOnUse" id="gradient0" spreadMethod="pad" x1="-819.2" x2="819.2">
      <stop offset="0.0" stop-color="#fff23c" stop-opacity="0.0"/>
      <stop offset="0.3803921568627451" stop-color="#fff23c" stop-opacity="0.84705883"/>
      <stop offset="0.6039215686274509" stop-color="#fff23c" stop-opacity="0.8"/>
      <stop offset="1.0" stop-color="#fff23c" stop-opacity="0.0"/>
    </linearGradient>
  </defs>
</svg>
