<?xml version="1.0" encoding="UTF-8" standalone="no"?>
<svg xmlns:xlink="http://www.w3.org/1999/xlink" height="91.15px" width="181.45px" xmlns="http://www.w3.org/2000/svg">
  <g transform="matrix(1.0, 0.0, 0.0, 1.0, 90.75, 45.55)">
    <path d="M65.25 -7.05 L68.0 -5.1 Q79.95 3.85 81.4 13.75 78.6 26.35 69.95 33.1 86.9 30.45 89.65 14.5 90.35 -0.15 75.35 -13.85 64.25 -24.95 45.25 -35.15 26.6 -46.65 22.65 -40.75 21.05 -32.3 34.55 -22.75 L52.0 -10.6 Q63.25 -1.25 63.5 14.5 62.5 32.55 50.25 39.25 66.15 34.55 72.55 21.0 78.9 7.45 68.0 -5.1 M-63.5 -12.85 Q-82.25 2.0 -82.75 25.6 -80.7 41.15 -66.65 44.6 -79.35 37.75 -72.0 19.85 -59.35 -2.25 -22.2 -21.35 -2.05 -29.25 -8.25 -43.25 -11.3 -46.55 -25.4 -41.4 -51.65 -32.9 -67.7 -20.3 -85.45 -7.05 -88.75 2.75 -92.0 12.5 -84.9 15.2 -90.2 4.85 -63.5 -12.85 L-62.0 -13.85" fill="none" stroke="#000000" stroke-linecap="round" stroke-linejoin="round" stroke-width="2.0"/>
  </g>
</svg>
