<?xml version="1.0" encoding="UTF-8" standalone="no"?>
<svg xmlns:xlink="http://www.w3.org/1999/xlink" height="240.45px" width="204.1px" xmlns="http://www.w3.org/2000/svg">
  <g transform="matrix(1.0, 0.0, 0.0, 1.0, 102.05, 120.2)">
    <path d="M84.05 61.35 Q84.95 72.75 81.45 81.9 73.5 106.7 44.25 115.0 58.95 104.55 62.85 83.6 51.5 99.8 33.4 105.85 38.4 95.55 38.9 74.15 33.4 99.15 15.95 115.0 12.15 101.25 13.55 71.35 5.85 98.3 6.25 114.35 -10.45 91.15 -11.9 67.9 -16.9 95.55 -14.3 113.6 -27.2 95.95 -29.5 78.3 -30.4 101.0 -25.55 114.35 -32.4 107.0 -36.9 95.4 -38.35 110.5 -29.4 118.35 -57.35 106.05 -61.55 82.4 -64.4 108.2 -52.65 120.25 -73.4 112.4 -80.95 101.45 -90.8 82.9 -84.5 56.7 -87.75 64.9 -90.55 73.85 -95.95 99.75 -78.25 108.05 -96.5 104.55 -100.7 86.5 -103.4 70.8 -100.7 57.6 -95.65 37.25 -75.8 9.9 -78.75 12.35 -82.4 14.35 -71.2 -0.2 -69.25 -23.9 -68.35 -56.05 -63.35 -69.55 -49.6 -115.0 -3.35 -119.6 35.65 -123.0 55.1 -106.6 80.05 -82.2 81.85 -35.9 81.05 -16.3 91.15 6.8 99.8 25.8 101.6 48.05 104.9 84.55 82.6 101.8 90.25 89.85 84.05 61.35" fill="#f05656" fill-rule="evenodd" stroke="none"/>
  </g>
</svg>
