<?xml version="1.0" encoding="UTF-8" standalone="no"?>
<svg xmlns:xlink="http://www.w3.org/1999/xlink" height="228.15px" width="135.5px" xmlns="http://www.w3.org/2000/svg">
  <g transform="matrix(1.0, 0.0, 0.0, 1.0, 67.75, 114.05)">
    <path d="M40.5 2.15 Q34.15 3.7 17.45 -1.6 L16.8 3.95 Q15.95 11.35 16.0 18.9 16.0 22.2 16.25 25.25 32.7 29.95 38.25 28.8 41.2 28.2 42.75 27.2 51.55 41.35 33.6 70.6 14.7 97.75 19.1 114.1 0.95 97.3 17.45 68.8 9.9 80.1 -2.6 88.3 -23.5 102.15 -47.6 100.0 -31.6 91.15 -25.6 82.45 -19.55 73.7 -3.4 57.3 -25.85 74.85 -59.4 80.2 -62.55 87.55 -53.35 91.55 -74.0 84.95 -65.05 69.65 -47.45 49.75 -21.2 38.5 -39.65 42.05 -57.35 32.75 -19.8 44.5 -1.0 17.1 1.65 20.45 8.2 22.8 7.65 19.05 7.45 15.1 7.05 8.55 7.35 1.25 L7.7 -4.6 Q-1.85 -7.8 -1.1 -9.6 L-1.85 -8.25 Q-11.25 7.7 -30.35 17.85 -10.15 4.35 -0.7 -43.75 L-0.55 -44.6 0.55 -50.45 Q1.55 -69.4 5.65 -83.65 17.8 -126.15 46.75 -109.25 72.8 -86.7 66.5 -51.2 64.0 -31.25 54.95 -2.5 47.65 28.4 59.65 43.55 48.9 35.9 44.25 25.2 43.2 22.8 42.5 20.3 41.55 17.0 41.1 13.45 40.7 10.5 40.6 7.95 L40.5 2.15 M25.45 52.3 L28.4 53.6 25.75 51.2 25.45 52.3 M-24.05 55.65 Q-45.0 61.0 -57.6 77.05 L-59.1 79.5 Q-38.1 72.15 -24.05 55.65" fill="#f05656" fill-rule="evenodd" stroke="none"/>
  </g>
</svg>
