<?xml version="1.0" encoding="UTF-8" standalone="no"?>
<svg xmlns:xlink="http://www.w3.org/1999/xlink" height="166.85px" width="197.95px" xmlns="http://www.w3.org/2000/svg">
  <g transform="matrix(1.0, 0.0, 0.0, 1.0, 99.0, 83.4)">
    <path d="M53.3 -77.25 Q70.15 -73.25 69.9 -59.45 69.4 -32.05 87.1 -41.25 78.75 -33.45 73.35 -35.4 83.9 -25.05 90.7 -12.2 93.9 -6.1 96.25 0.6 L97.6 4.55 Q100.85 20.9 96.25 32.25 93.4 39.35 87.05 44.9 L85.3 46.2 Q94.15 37.65 94.6 16.25 93.9 1.75 82.05 -12.2 L80.55 -13.9 81.15 -12.2 Q89.2 9.0 84.4 33.0 78.15 63.2 52.7 74.35 69.1 58.75 66.3 26.85 61.95 44.1 48.45 56.5 36.25 67.75 40.55 83.45 23.7 65.35 35.2 36.45 20.65 53.65 22.8 77.95 15.45 62.8 16.55 50.7 8.1 65.95 -4.8 75.45 -10.8 79.8 -17.7 82.9 -10.35 74.85 -15.35 50.75 -13.85 67.85 -28.1 82.9 -19.95 68.15 -37.95 53.35 -50.15 45.85 -57.1 34.4 -50.0 53.7 -38.4 60.85 L-40.7 60.25 Q-67.5 52.35 -78.1 31.8 -87.25 7.9 -72.2 -14.95 -98.75 8.35 -83.75 29.8 L-85.1 28.25 Q-99.45 10.85 -95.15 -1.25 -90.7 -13.95 -77.25 -25.5 -88.75 -20.0 -99.0 -33.75 -87.8 -26.75 -75.8 -32.35 -62.75 -38.4 -61.95 -55.35 -59.8 -70.2 -48.65 -77.4 -21.3 -89.5 53.3 -77.25" fill="#6debff" fill-rule="evenodd" stroke="none"/>
  </g>
</svg>
