<?xml version="1.0" encoding="UTF-8" standalone="no"?>
<svg xmlns:xlink="http://www.w3.org/1999/xlink" height="151.05px" width="62.0px" xmlns="http://www.w3.org/2000/svg">
  <g transform="matrix(1.0, 0.0, 0.0, 1.0, 31.0, 75.5)">
    <path d="M-15.45 36.65 Q-15.35 29.6 -3.8 25.5 L-3.65 25.3 -3.65 25.05 -3.6 24.85 -3.6 24.8 Q-2.75 15.1 4.85 6.65 3.8 -5.9 13.25 -15.15 L12.95 -16.15 Q8.5 -27.7 12.85 -36.4 L12.85 -36.85 Q6.55 -47.25 11.05 -56.4 6.65 -72.1 19.85 -75.5 29.65 -71.65 30.0 -63.35 30.3 -55.1 26.6 -52.2 26.95 -52.2 27.65 -50.8 32.4 -42.5 28.4 -33.4 29.55 -31.95 30.4 -28.3 31.25 -24.65 30.85 -24.0 31.0 -14.75 23.9 -10.0 L23.9 -9.9 24.55 -8.25 Q25.5 -6.25 24.4 2.45 23.25 11.1 18.65 14.7 18.25 28.65 7.8 33.0 6.6 43.1 -5.35 43.8 -6.55 45.4 -7.85 45.25 -6.95 50.05 -9.35 55.2 -11.8 60.3 -9.8 66.3 -16.55 64.0 -12.65 56.25 -15.4 61.3 -17.55 66.1 -19.9 71.45 -19.4 75.55 -34.8 62.0 -26.15 51.6 -29.85 55.7 -31.0 60.05 -30.8 44.9 -17.05 38.55 -16.6 37.35 -15.45 36.65" fill="url(#gradient0)" fill-rule="evenodd" stroke="none"/>
  </g>
  <defs>
    <linearGradient gradientTransform="matrix(0.0, 0.1296, -0.0109, 0.0, 144.3, -22.85)" gradientUnits="userSpaceOnUse" id="gradient0" spreadMethod="pad" x1="-819.2" x2="819.2">
      <stop offset="0.0" stop-color="#fff23c" stop-opacity="0.0"/>
      <stop offset="0.3803921568627451" stop-color="#fff23c" stop-opacity="0.84705883"/>
      <stop offset="0.6039215686274509" stop-color="#fff23c" stop-opacity="0.8"/>
      <stop offset="1.0" stop-color="#fff23c" stop-opacity="0.0"/>
    </linearGradient>
  </defs>
</svg>
