<?xml version="1.0" encoding="UTF-8" standalone="no"?>
<svg xmlns:xlink="http://www.w3.org/1999/xlink" height="94.8px" width="130.9px" xmlns="http://www.w3.org/2000/svg">
  <g transform="matrix(1.0, 0.0, 0.0, 1.0, 65.45, 47.4)">
    <path d="M65.45 -17.4 Q65.4 -6.1 59.4 4.1 L58.5 -1.15 Q54.25 13.4 40.9 25.25 L43.85 12.55 Q38.5 21.7 30.3 28.7 21.65 36.05 17.8 42.75 15.9 37.15 17.8 33.0 1.3 41.25 -2.75 47.4 -10.1 41.65 -8.25 34.7 -10.95 40.05 -9.45 45.4 -33.35 35.55 -41.85 18.7 L-36.65 32.45 Q-53.4 21.85 -52.9 8.0 L-53.7 18.5 Q-62.5 7.15 -62.15 -2.1 L-63.3 6.0 Q-68.4 -20.5 -61.45 -33.7 L-58.9 -35.15 Q-17.3 -57.65 44.15 -38.75 55.25 -34.8 60.35 -31.75 65.45 -28.8 65.45 -17.4" fill="#696969" fill-rule="evenodd" stroke="none"/>
  </g>
</svg>
