<?xml version="1.0" encoding="UTF-8" standalone="no"?>
<svg xmlns:xlink="http://www.w3.org/1999/xlink" height="123.85px" width="132.0px" xmlns="http://www.w3.org/2000/svg">
  <g transform="matrix(1.0, 0.0, 0.0, 1.0, 66.0, 61.9)">
    <path d="M53.1 -56.35 Q59.35 -55.25 61.15 -52.0 69.85 -36.55 62.95 -1.0 61.65 4.0 60.75 9.0 55.75 39.35 62.35 59.55 54.95 56.9 52.85 50.8 L52.95 51.45 52.65 53.7 Q51.7 58.45 48.75 61.0 L47.3 61.95 Q47.4 54.3 44.8 50.25 L44.75 50.35 Q40.8 55.05 39.5 60.35 36.8 58.4 35.85 56.3 34.7 54.15 35.35 51.8 L35.4 51.5 Q32.15 53.7 30.45 56.15 29.85 57.05 29.45 58.1 28.9 59.15 28.8 60.2 22.3 53.85 21.8 47.9 L21.4 49.65 Q19.9 55.85 15.0 58.75 L14.7 58.9 14.5 59.1 Q14.45 55.25 9.25 48.35 L8.95 48.65 Q4.1 53.05 1.15 57.35 L-0.45 59.85 Q-2.7 55.7 -4.95 49.5 L-4.5 49.25 Q-4.35 48.85 -4.45 47.85 L-4.5 47.75 Q-6.35 54.4 -10.5 58.35 L-13.05 60.5 Q-15.0 54.3 -20.8 47.3 -23.65 53.35 -23.1 59.55 L-25.0 57.8 Q-29.65 53.0 -30.3 48.7 -30.45 49.95 -30.9 51.2 L-31.25 52.0 Q-31.8 53.15 -32.75 54.2 -34.15 55.65 -36.1 56.95 -36.1 53.65 -39.75 48.95 L-42.15 45.95 Q-46.6 52.15 -45.15 57.8 -49.75 54.95 -52.05 48.4 -56.05 57.55 -65.95 58.15 -54.85 41.1 -62.05 -1.7 -64.15 -13.8 -65.25 -25.0 L-65.35 -25.3 -65.95 -32.35 Q-66.7 -51.7 -49.7 -59.0 -35.1 -61.1 -20.15 -61.6 -1.5 -62.4 17.5 -60.9 35.1 -59.6 53.1 -56.35" fill="#357da6" fill-rule="evenodd" stroke="none"/>
  </g>
</svg>
