<?xml version="1.0" encoding="UTF-8" standalone="no"?>
<svg xmlns:xlink="http://www.w3.org/1999/xlink" height="173.15px" width="119.35px" xmlns="http://www.w3.org/2000/svg">
  <g transform="matrix(1.0, 0.0, 0.0, 1.0, 58.2, 44.7)">
    <path d="M-26.0 -41.15 Q-7.55 -44.9 18.0 -44.7 L21.4 -44.35 Q36.1 -34.3 43.5 -7.1 55.45 33.7 61.15 78.35 60.95 84.6 60.1 90.5 52.65 122.6 27.3 126.95 L32.95 107.5 Q27.45 123.15 10.15 128.45 1.85 119.75 1.0 110.65 -4.05 125.25 -1.15 127.9 -27.7 125.1 -32.8 112.75 L-28.2 126.1 Q-60.5 123.5 -58.05 84.95 L-56.8 74.15 -55.35 63.75 -55.1 62.75 -55.05 62.3 -54.95 61.3 -54.95 61.2 -54.95 61.1 -54.8 60.4 -54.7 59.85 -44.8 -6.65 Q-40.15 -30.35 -26.0 -41.15" fill="#000000" fill-opacity="0.24705882" fill-rule="evenodd" stroke="none"/>
  </g>
</svg>
