<?xml version="1.0" encoding="UTF-8" standalone="no"?>
<svg xmlns:xlink="http://www.w3.org/1999/xlink" height="205.6px" width="152.3px" xmlns="http://www.w3.org/2000/svg">
  <g transform="matrix(1.0, 0.0, 0.0, 1.0, 76.15, 102.8)">
    <path d="M67.05 -1.25 Q66.8 2.45 68.1 5.55 69.95 10.25 75.15 13.7 70.1 4.0 69.25 -61.65 67.55 -91.1 15.1 -101.8 -38.3 -102.3 -60.75 -68.3 -68.5 -48.7 -66.95 -7.2 -66.75 10.85 -75.15 30.4 -67.75 27.6 -64.35 20.0 -63.25 17.55 -62.55 14.55 M68.1 5.55 Q67.0 37.25 40.3 63.35 13.55 89.45 6.65 101.8 -57.35 78.55 -64.35 20.0" fill="none" stroke="#000000" stroke-linecap="round" stroke-linejoin="round" stroke-width="2.0"/>
  </g>
</svg>
