<?xml version="1.0" encoding="UTF-8" standalone="no"?>
<svg xmlns:xlink="http://www.w3.org/1999/xlink" height="232.15px" width="199.8px" xmlns="http://www.w3.org/2000/svg">
  <g transform="matrix(1.0, 0.0, 0.0, 1.0, 99.9, 116.05)">
    <path d="M-28.5 63.35 Q-32.05 67.25 -35.7 72.1 -50.4 91.35 -27.6 116.1 -42.25 111.7 -51.35 105.05 -63.5 96.25 -65.7 83.55 L-66.05 81.0 Q-68.9 107.75 -52.1 105.85 -61.55 115.25 -73.6 108.35 -85.05 97.8 -85.05 73.3 -97.2 57.15 -79.95 22.2 -102.0 64.85 -85.2 93.95 -105.05 70.5 -96.25 35.85 -108.35 3.65 -80.6 -35.0 -52.9 -73.7 -49.8 -94.45 -42.45 -108.25 -18.0 -109.75 25.55 -125.6 62.2 -101.55 71.65 -99.85 75.85 -90.3 73.75 -80.3 74.15 -69.4 102.55 -26.8 97.45 15.5 L98.3 19.6 Q106.45 60.55 73.3 78.75 58.0 87.1 46.45 81.7 69.15 83.05 79.2 66.3 89.2 49.5 81.95 27.3 77.0 12.2 69.0 -2.1 81.05 24.2 75.5 38.2 69.95 52.1 39.0 69.4 11.85 85.65 9.3 104.8 6.8 81.25 26.4 65.15 L17.25 68.8 15.85 69.3 Q-25.85 82.0 -21.95 105.75 -29.85 87.7 -13.35 70.9 -32.45 86.6 -27.1 110.0 -44.65 83.3 -28.5 63.35 -23.75 58.15 -19.3 54.55 -24.8 58.75 -28.5 63.35 M-54.55 -69.4 Q-65.8 -40.85 -86.15 -12.35 -97.55 4.9 -94.75 30.55 -91.1 18.7 -84.25 5.6 -61.55 -31.45 -54.55 -69.4 M74.8 -60.95 Q76.3 -48.1 81.1 -34.1 91.6 -9.05 96.65 12.05 91.8 -30.3 74.8 -60.95" fill="url(#gradient0)" fill-rule="evenodd" stroke="none"/>
  </g>
  <defs>
    <linearGradient gradientTransform="matrix(0.0, 0.1032, -0.1219, 0.0, 0.0, -38.2)" gradientUnits="userSpaceOnUse" id="gradient0" spreadMethod="pad" x1="-819.2" x2="819.2">
      <stop offset="0.0" stop-color="#fff23c" stop-opacity="0.0"/>
      <stop offset="0.3803921568627451" stop-color="#fff23c" stop-opacity="0.84705883"/>
      <stop offset="0.6039215686274509" stop-color="#fff23c" stop-opacity="0.8"/>
      <stop offset="1.0" stop-color="#fff23c" stop-opacity="0.0"/>
    </linearGradient>
  </defs>
</svg>
