<?xml version="1.0" encoding="UTF-8" standalone="no"?>
<svg xmlns:xlink="http://www.w3.org/1999/xlink" height="234.15px" width="201.8px" xmlns="http://www.w3.org/2000/svg">
  <g transform="matrix(1.0, 0.0, 0.0, 1.0, 100.9, 117.05)">
    <path d="M74.15 -69.4 Q74.25 -65.25 74.8 -60.95 91.8 -30.3 96.65 12.05 L97.45 15.5 Q102.55 -26.8 74.15 -69.4 73.75 -80.3 75.85 -90.3 71.65 -99.85 62.2 -101.55 57.6 -87.7 55.25 -79.25 41.8 -43.0 66.4 -6.7 L66.65 -6.25 69.0 -2.1 Q77.0 12.2 81.95 27.3 89.2 49.5 79.2 66.3 69.15 83.05 46.45 81.7 58.0 87.1 73.3 78.75 106.45 60.55 98.3 19.6 L97.45 15.5 M74.8 -60.95 Q76.3 -48.1 81.1 -34.1 91.6 -9.05 96.65 12.05 M69.0 -2.1 Q81.05 24.2 75.5 38.2 69.95 52.1 39.0 69.4 11.85 85.65 9.3 104.8 6.8 81.25 26.4 65.15 L17.25 68.8 15.85 69.3 Q-25.85 82.0 -21.95 105.75 -29.85 87.7 -13.35 70.9 -32.45 86.6 -27.1 110.0 -44.65 83.3 -28.5 63.35 -32.05 67.25 -35.7 72.1 -50.4 91.35 -27.6 116.1 -42.25 111.7 -51.35 105.05 L-52.1 105.85 Q-61.55 115.25 -73.6 108.35 -85.05 97.8 -85.05 73.3 -97.2 57.15 -79.95 22.2 -102.0 64.85 -85.2 93.95 -105.05 70.5 -96.25 35.85 -108.35 3.65 -80.6 -35.0 -52.9 -73.7 -49.8 -94.45 -42.45 -108.25 -18.0 -109.75 25.55 -125.6 62.2 -101.55 M46.45 81.7 L45.5 81.2 M26.4 65.15 Q41.6 58.45 51.05 49.8 71.8 30.7 64.5 1.85 M-53.05 -79.0 L-54.55 -69.4 Q-61.55 -31.45 -84.25 5.6 -91.1 18.7 -94.75 30.55 L-95.05 31.5 -96.25 35.85 M-94.75 30.55 Q-97.55 4.9 -86.15 -12.35 -65.8 -40.85 -54.55 -69.4 M-59.25 8.9 Q-62.9 16.4 -65.6 23.35 -79.75 60.1 -66.05 80.85 L-66.05 80.9 Q-60.35 89.5 -49.8 95.35 -63.05 79.75 -63.1 62.15 -63.2 40.55 -43.5 16.05 -7.7 -28.5 -18.0 -109.75 M-79.95 22.2 Q-74.9 12.35 -67.75 1.8 M-66.05 80.9 L-66.05 81.0 -65.7 83.55 Q-63.5 96.25 -51.35 105.05 M16.8 -12.8 Q26.25 34.95 -8.65 48.2 -11.4 49.2 -14.25 51.0 -16.75 52.5 -19.3 54.55 -23.75 58.15 -28.5 63.35 -24.8 58.75 -19.3 54.55 M-13.35 70.9 Q-8.7 67.05 -2.55 63.7 M-85.05 73.3 Q-80.0 80.1 -69.65 83.55 -89.45 73.65 -65.6 23.35 M-28.05 10.3 Q-60.9 41.95 -63.1 62.15 M-66.05 81.0 Q-68.9 107.75 -52.1 105.85" fill="none" stroke="#000000" stroke-linecap="round" stroke-linejoin="round" stroke-width="2.0"/>
  </g>
</svg>
