<?xml version="1.0" encoding="UTF-8" standalone="no"?>
<svg xmlns:xlink="http://www.w3.org/1999/xlink" height="259.25px" width="231.1px" xmlns="http://www.w3.org/2000/svg">
  <g transform="matrix(1.0, 0.0, 0.0, 1.0, 115.55, 129.6)">
    <path d="M-47.25 -92.45 L-47.6 -90.45 Q-37.35 -110.4 -18.3 -120.1 -7.35 -125.7 6.55 -127.9 36.75 -131.65 66.9 -115.5 L75.7 -111.05 Q84.25 -106.7 87.8 -102.4 83.8 -60.2 105.15 2.3 126.45 64.8 99.45 98.6 107.3 82.5 102.0 45.95 105.65 108.3 68.85 128.65 79.35 114.65 84.6 73.9 79.8 87.75 67.45 95.4 58.95 110.85 41.15 116.45 50.0 108.5 52.2 83.1 44.1 105.5 26.1 115.3 30.5 108.95 29.0 86.9 L25.05 95.85 Q16.25 114.0 18.05 125.15 -4.1 100.15 -8.65 75.1 -5.35 106.9 7.65 120.55 -23.65 100.45 -30.3 69.15 -30.6 74.3 -30.35 79.0 -27.0 86.1 -22.4 92.1 -26.3 89.35 -29.6 86.4 -26.35 106.35 -11.35 116.5 -48.6 103.15 -51.95 72.6 -52.65 106.65 -35.65 125.8 -88.95 94.95 -76.05 39.15 -89.0 85.4 -72.05 117.1 -107.65 71.2 -81.9 13.25 -107.6 67.35 -101.45 101.5 -127.85 64.5 -101.0 23.85 -74.15 -16.8 -67.9 -29.7 -53.25 -60.1 -47.6 -90.45 M66.9 -115.5 Q56.8 -78.45 66.55 -31.25 83.0 42.05 59.6 51.3 73.1 47.6 78.5 39.15 82.05 33.55 82.1 25.9 M102.0 45.95 Q100.25 34.1 97.15 20.15 M84.6 73.9 Q89.2 60.55 86.75 41.5 M29.0 86.9 Q34.35 73.4 35.95 60.5 M52.2 83.1 Q56.2 71.9 57.8 57.6 M78.5 39.15 Q77.45 54.9 74.9 66.85 69.7 91.1 58.45 99.8 63.35 97.95 67.45 95.4 M-18.3 -120.1 Q-11.55 -66.75 -21.25 -31.25 -41.2 28.8 -16.0 52.45 -38.85 41.85 -39.65 21.85 -41.25 56.1 -30.35 79.0 M-38.55 8.0 Q-39.35 15.15 -39.65 21.85 M-76.05 39.15 Q-72.7 27.2 -67.4 14.35 M-51.95 72.6 Q-51.65 57.4 -47.8 39.2 L-44.3 24.7 M-30.3 69.15 Q-30.05 64.4 -29.3 59.3 M-8.65 75.1 Q-9.4 68.45 -9.65 61.05 M-29.6 86.4 Q-51.4 66.9 -47.8 39.2 M-81.9 13.25 L-74.35 -1.85" fill="none" stroke="#000000" stroke-linecap="round" stroke-linejoin="round" stroke-width="2.0"/>
  </g>
</svg>
