<?xml version="1.0" encoding="UTF-8" standalone="no"?>
<svg xmlns:xlink="http://www.w3.org/1999/xlink" height="147.65px" width="152.0px" xmlns="http://www.w3.org/2000/svg">
  <g transform="matrix(1.0, 0.0, 0.0, 1.0, 76.0, 73.8)">
    <path d="M64.65 7.05 L65.4 11.85 65.45 12.15 Q69.55 34.05 64.65 46.3 78.0 31.35 74.15 13.15 66.65 -16.1 66.05 -34.85 65.65 -38.55 65.4 -42.4 64.0 -60.7 37.5 -68.1 2.95 -77.85 -30.25 -67.4 -47.95 -61.75 -57.3 -34.3 -75.2 -1.85 -75.0 11.9 -74.85 25.7 -61.65 38.4 -71.25 25.8 -60.5 5.2 L-58.55 0.2 M28.4 52.45 Q28.0 56.3 24.75 59.95 L18.05 69.9 Q39.85 66.0 45.8 54.1 L46.9 51.4 Q48.25 47.25 48.0 42.3 M-21.45 46.35 L-20.7 51.95 -20.3 54.3 Q-12.45 67.95 10.95 72.85 14.75 68.2 21.3 63.15 L24.75 59.95 M45.8 54.1 Q44.7 57.5 38.9 65.2 49.05 60.85 54.9 54.1 68.65 37.3 65.45 12.15 M-60.5 5.2 Q-63.95 23.2 -61.65 38.4 -60.1 52.0 -63.15 61.05 -53.8 53.65 -52.6 40.05 L-52.55 39.3 Q-52.2 33.7 -53.15 27.05 M-36.25 44.7 Q-36.9 48.15 -36.85 51.25 -34.85 68.7 -10.8 71.45 -17.45 69.6 -20.3 54.3 M-52.6 40.05 Q-53.6 56.6 -32.05 68.0 -36.75 61.75 -36.85 51.25" fill="none" stroke="#000000" stroke-linecap="round" stroke-linejoin="round" stroke-width="2.0"/>
  </g>
</svg>
