<?xml version="1.0" encoding="UTF-8" standalone="no"?>
<svg xmlns:xlink="http://www.w3.org/1999/xlink" height="90.55px" width="116.8px" xmlns="http://www.w3.org/2000/svg">
  <g transform="matrix(1.0, 0.0, 0.0, 1.0, 58.4, 45.25)">
    <path d="M50.05 3.6 Q52.4 24.1 44.1 36.35 45.9 31.5 42.65 15.55 42.65 31.45 30.55 40.55 34.1 35.6 30.9 19.4 28.7 34.8 18.8 41.95 L23.15 23.45 Q19.7 36.4 8.6 43.35 11.65 35.15 12.0 20.65 L10.5 23.95 Q5.25 35.15 5.55 43.4 1.6 34.6 3.15 24.0 L2.55 26.4 Q-0.65 37.75 0.75 45.3 -11.05 38.65 -13.35 21.15 -12.05 35.95 -8.5 41.4 -22.1 32.9 -21.95 21.5 -22.9 31.65 -20.35 38.0 -29.1 31.15 -30.0 17.3 -29.5 28.0 -27.6 34.95 -38.75 15.4 -41.45 -4.15 -39.1 16.7 -32.15 27.35 -56.85 7.7 -58.3 -14.0 -59.35 -26.7 -47.8 -37.85 -19.3 -48.0 17.45 -44.25 44.25 -41.5 54.45 -28.35 63.25 0.25 52.5 28.75 53.2 20.15 50.05 3.6" fill="url(#gradient0)" fill-rule="evenodd" stroke="none"/>
  </g>
  <defs>
    <linearGradient gradientTransform="matrix(0.0, 0.1003, -0.0713, 0.0, 0.0, 2.8)" gradientUnits="userSpaceOnUse" id="gradient0" spreadMethod="pad" x1="-819.2" x2="819.2">
      <stop offset="0.0" stop-color="#fff23c" stop-opacity="0.0"/>
      <stop offset="0.3803921568627451" stop-color="#fff23c" stop-opacity="0.84705883"/>
      <stop offset="0.6039215686274509" stop-color="#fff23c" stop-opacity="0.8"/>
      <stop offset="1.0" stop-color="#fff23c" stop-opacity="0.0"/>
    </linearGradient>
  </defs>
</svg>
