<?xml version="1.0" encoding="UTF-8" standalone="no"?>
<svg xmlns:xlink="http://www.w3.org/1999/xlink" height="194.7px" width="127.05px" xmlns="http://www.w3.org/2000/svg">
  <g transform="matrix(1.0, 0.0, 0.0, 1.0, 63.55, 97.35)">
    <path d="M17.95 34.0 L17.5 38.4 Q14.75 45.45 14.45 51.5 13.9 60.5 18.75 67.4 19.35 56.35 25.8 44.85 L35.55 27.6 Q38.85 21.8 40.4 12.0 41.3 20.5 42.5 28.5 44.4 18.9 44.45 6.25 49.4 40.25 62.5 52.25 53.85 12.75 54.1 -61.4 53.9 -83.15 48.95 -92.05 L39.95 -93.7 Q8.0 -98.85 -31.4 -93.95 L-32.35 -93.85 Q-53.3 -91.05 -58.4 -61.0 -56.2 -30.4 -61.25 13.1 -66.05 78.7 -53.3 95.7 -52.8 88.55 -46.45 76.45 L-42.5 69.35 M-46.45 76.45 Q-44.55 90.85 -27.35 96.35 -25.55 91.1 -29.5 77.35 L-29.0 78.65 Q-2.75 70.5 9.25 32.15 12.75 20.9 15.2 7.65 M9.25 32.15 L-2.0 74.75 Q9.45 65.4 14.45 51.5" fill="none" stroke="#000000" stroke-linecap="round" stroke-linejoin="round" stroke-width="2.0"/>
  </g>
</svg>
