<?xml version="1.0" encoding="UTF-8" standalone="no"?>
<svg xmlns:xlink="http://www.w3.org/1999/xlink" height="81.8px" width="88.9px" xmlns="http://www.w3.org/2000/svg">
  <g transform="matrix(1.0, 0.0, 0.0, 1.0, 44.45, 40.9)">
    <path d="M34.65 -17.25 Q37.5 -5.05 44.45 1.65 32.55 0.35 26.9 -10.15 29.25 3.3 39.4 9.05 23.1 7.7 18.0 -3.95 28.85 22.85 16.25 37.75 19.05 25.35 12.3 9.25 10.2 3.85 9.15 -1.35 9.65 4.8 8.9 15.7 8.15 26.6 11.25 40.9 -7.65 23.45 -5.45 -1.6 -10.8 26.2 -1.45 40.4 -22.25 21.3 -20.4 -3.65 -24.7 4.45 -40.15 6.2 -31.85 1.15 -28.0 -13.8 -31.65 -3.3 -44.45 -0.95 -36.0 -6.7 -33.75 -25.0 -34.6 -20.6 -40.0 -20.45 -37.8 -24.0 -36.3 -32.1 -32.5 -40.75 -1.4 -40.9 4.75 -40.85 10.4 -39.8 27.0 -37.25 34.4 -29.65 36.45 -19.9 41.15 -13.8 36.05 -13.0 34.65 -17.25" fill="url(#gradient0)" fill-rule="evenodd" stroke="none"/>
  </g>
  <defs>
    <linearGradient gradientTransform="matrix(0.0, 0.0956, -0.0543, 0.0, 0.0, -23.85)" gradientUnits="userSpaceOnUse" id="gradient0" spreadMethod="pad" x1="-819.2" x2="819.2">
      <stop offset="0.0" stop-color="#fff23c" stop-opacity="0.0"/>
      <stop offset="0.3803921568627451" stop-color="#fff23c" stop-opacity="0.84705883"/>
      <stop offset="0.6039215686274509" stop-color="#fff23c" stop-opacity="0.8"/>
      <stop offset="1.0" stop-color="#fff23c" stop-opacity="0.0"/>
    </linearGradient>
  </defs>
</svg>
