<?xml version="1.0" encoding="UTF-8" standalone="no"?>
<svg xmlns:xlink="http://www.w3.org/1999/xlink" height="154.3px" width="171.1px" xmlns="http://www.w3.org/2000/svg">
  <g transform="matrix(1.0, 0.0, 0.0, 1.0, 85.55, 77.15)">
    <path d="M-62.85 8.8 Q-68.9 -4.25 -62.85 -23.45 -58.25 -47.8 -49.45 -60.85 -27.15 -81.5 8.65 -75.95 45.45 -73.1 62.8 -55.9 75.7 -39.2 72.65 -11.95 74.8 6.6 67.4 13.05 59.5 18.55 46.85 16.45 L23.0 -20.65 11.5 -14.6 28.95 16.45 Q23.35 16.0 17.25 13.7 6.1 18.7 -5.1 13.7 -15.6 19.2 -24.0 17.5 L-3.4 -14.85 -15.0 -21.85 -44.2 18.55 Q-54.2 18.8 -62.85 8.8 M51.6 23.9 Q58.1 21.65 66.5 25.55 73.85 28.75 77.85 37.0 82.1 48.35 79.5 59.6 86.55 69.8 85.4 74.55 81.15 81.1 65.9 71.15 L56.15 70.85 Q42.15 68.1 35.15 56.3 28.1 44.45 38.25 33.0 L39.3 34.9 Q42.1 37.0 47.95 34.6 54.6 31.65 51.6 23.9 M-47.35 22.85 Q-50.95 30.75 -44.15 34.2 -38.25 37.05 -35.15 35.0 L-34.0 33.15 Q-24.05 45.6 -32.1 57.5 -40.1 69.4 -54.8 71.45 -61.25 72.2 -64.95 71.2 -81.4 80.65 -85.45 73.6 -86.35 68.6 -78.45 58.4 -80.5 46.55 -75.4 35.0 -70.75 26.6 -62.9 23.75 -54.0 20.15 -47.35 22.85" fill="#f5aab7" fill-rule="evenodd" stroke="none"/>
  </g>
</svg>
