<?xml version="1.0" encoding="UTF-8" standalone="no"?>
<svg xmlns:xlink="http://www.w3.org/1999/xlink" height="119.05px" width="175.4px" xmlns="http://www.w3.org/2000/svg">
  <g transform="matrix(1.0, 0.0, 0.0, 1.0, 87.7, 59.55)">
    <path d="M79.05 42.2 Q76.7 57.75 51.7 58.3 56.8 55.25 57.4 48.0 53.05 56.15 37.35 54.2 41.45 51.8 45.15 45.95 39.35 50.95 26.2 49.1 28.85 46.85 31.45 40.6 L30.2 42.35 24.55 49.1 16.6 42.1 Q19.4 46.05 23.5 48.7 7.95 48.2 -1.45 39.95 3.35 46.3 11.55 48.2 -9.55 52.65 -21.1 43.85 -16.25 52.15 -6.2 56.0 -21.1 61.9 -36.05 57.9 -56.65 49.8 -60.95 34.4 -57.45 48.4 -51.3 55.05 -75.15 42.85 -78.5 17.45 -79.75 28.4 -78.75 36.15 -90.75 16.2 -86.65 -3.65 -80.15 -29.35 -63.35 -42.3 -44.4 -55.85 18.05 -59.55 53.3 -59.45 75.35 -39.7 94.7 -19.85 83.75 29.35 90.4 47.15 78.0 53.85 80.15 49.55 79.05 42.2" fill="#f5b1da" fill-rule="evenodd" stroke="none"/>
  </g>
</svg>
