<?xml version="1.0" encoding="UTF-8" standalone="no"?>
<svg xmlns:xlink="http://www.w3.org/1999/xlink" height="146.3px" width="213.05px" xmlns="http://www.w3.org/2000/svg">
  <g transform="matrix(1.0, 0.0, 0.0, 1.0, 106.55, 73.15)">
    <path d="M34.2 -64.0 L32.85 -63.4 Q39.2 -50.95 55.35 -34.8 66.15 -29.45 77.0 -27.1 L80.65 -26.35 Q90.3 -24.2 97.8 -18.45 L98.05 -18.25 Q82.65 -36.5 56.0 -45.5 42.15 -49.5 34.2 -64.0 L35.55 -64.6 35.55 -69.6 24.7 -64.45 29.15 -61.7 30.2 -62.15 32.85 -63.4 M30.2 -62.15 Q32.1 -56.2 21.25 -53.6 25.0 -50.1 31.3 -52.75 L30.55 -54.8 M55.35 -34.8 L58.1 -32.1 Q83.35 -4.75 89.1 21.35 89.85 25.9 90.1 30.2 102.9 -8.85 77.0 -27.1 M50.35 21.85 Q49.6 26.2 48.25 30.15 49.6 45.15 33.8 64.6 L66.15 71.65 Q73.6 73.6 78.9 68.05 85.95 60.05 88.6 49.3 90.75 40.65 90.1 30.2 M48.25 30.15 Q44.75 40.5 37.1 48.25 44.8 29.65 43.45 10.65 43.4 -18.1 31.3 -52.75 M97.8 -18.45 Q116.9 2.7 88.6 49.3 M-79.3 65.1 Q-116.45 14.05 -101.0 -13.25 L-98.15 -17.95 Q-87.55 -34.05 -70.85 -40.65 -34.5 -55.15 -31.85 -65.45 L-33.85 -66.3 -34.7 -72.15 -21.8 -66.85 -25.55 -62.9 -26.55 -63.3 Q-28.55 -47.4 -37.6 -19.65 -43.5 6.4 -38.9 22.9 L-37.95 25.75 Q-33.85 37.3 -24.0 43.6 L-19.7 54.75 Q-26.0 52.1 -30.9 48.0 -51.75 30.75 -48.5 -11.1 L-49.65 -8.6 Q-65.4 28.75 -46.4 67.15 L-59.65 67.15 Q-67.5 67.4 -70.15 63.4 L-76.7 50.45 -79.3 65.1 Q-87.5 44.7 -86.85 24.3 -99.25 -10.95 -72.9 -30.65 -85.05 -28.05 -98.15 -17.95 M-72.9 -30.65 Q-57.35 -33.6 -47.45 -41.0 -38.15 -50.0 -30.45 -64.9 L-31.85 -65.45 M-26.55 -63.3 L-27.85 -63.8 Q-33.65 -42.8 -48.5 -11.1 M-27.85 -63.8 L-30.45 -64.9 M-47.45 -41.0 Q-49.75 -38.85 -52.1 -37.05 -78.15 -18.0 -86.85 24.3 M-37.95 25.75 Q-35.95 36.35 -30.9 48.0" fill="none" stroke="#000000" stroke-linecap="round" stroke-linejoin="round" stroke-width="2.0"/>
  </g>
</svg>
