<?xml version="1.0" encoding="UTF-8" standalone="no"?>
<svg xmlns:xlink="http://www.w3.org/1999/xlink" height="115.75px" width="89.7px" xmlns="http://www.w3.org/2000/svg">
  <g transform="matrix(1.0, 0.0, 0.0, 1.0, 44.85, 57.85)">
    <path d="M17.55 23.25 L14.9 21.3 Q12.85 19.5 12.25 14.85 4.5 14.65 2.25 4.7 L-6.1 2.9 Q-12.7 2.4 -9.95 -4.0 -15.2 -3.0 -18.6 -4.6 L-20.6 -5.95 Q-24.65 -9.45 -22.5 -14.25 -26.25 -15.4 -29.9 -17.55 -36.6 -21.55 -33.55 -27.15 -44.25 -30.3 -43.85 -36.35 L-43.7 -38.45 Q-42.85 -45.05 -36.3 -50.05 -26.85 -58.15 -20.05 -56.6 -13.25 -55.0 -10.85 -49.2 -8.5 -43.45 -8.55 -38.45 -8.55 -31.75 -11.75 -25.7 L-11.75 -25.65 Q-4.9 -22.85 -2.25 -16.25 2.8 -19.0 7.0 -16.25 8.15 -13.9 10.95 -5.05 18.65 -3.3 22.0 3.6 22.9 6.6 22.95 9.45 L27.45 15.15 Q27.65 19.8 26.95 22.95 M29.35 33.0 Q45.6 41.35 43.65 55.1 43.4 50.45 38.55 45.8 L40.95 53.1 Q32.6 59.15 30.15 55.55 L26.65 50.25 24.65 49.95 Q19.0 49.3 21.55 55.15 18.0 54.15 16.9 50.0 18.9 41.3 22.55 35.0 M24.2 28.15 Q24.2 21.55 22.2 17.75 19.3 13.95 12.25 14.85 M-11.75 -25.7 Q-13.6 -32.05 -18.1 -38.45 L-18.6 -39.15 M-33.55 -27.15 Q-29.05 -25.8 -22.6 -24.95 -34.0 -31.4 -36.95 -38.45 -39.3 -44.05 -36.3 -50.05 M2.25 4.7 L14.7 7.35 Q9.95 -3.2 -0.5 -7.25 -5.8 -4.8 -9.95 -4.0 M-11.75 -25.65 Q-9.95 -19.45 -10.7 -13.15 -7.35 -6.7 -0.5 -7.25 -0.7 -12.4 -2.25 -16.25 M-10.7 -13.15 L-18.6 -13.35 -22.5 -14.25 M-22.6 -24.95 L-21.2 -24.2 Q-20.05 -23.95 -18.6 -22.75 -15.45 -20.1 -10.7 -13.15 M22.2 17.75 Q22.45 16.4 22.15 15.15 21.2 11.2 14.7 7.35 L10.95 -5.05 M22.15 15.15 Q23.0 12.4 22.95 9.45 M25.55 34.1 Q21.9 38.0 24.65 49.95 M27.55 33.8 Q25.2 42.0 26.65 50.25" fill="none" stroke="#9b725b" stroke-linecap="round" stroke-linejoin="round" stroke-width="2.0"/>
    <path d="M26.95 22.95 Q33.3 29.55 30.85 31.9 L29.35 33.0 27.55 33.8 25.55 34.1 Q22.65 31.1 24.2 28.15 26.1 26.45 26.95 22.95 M22.55 35.0 Q20.1 35.2 17.6 33.45 14.35 29.8 17.55 23.25 L24.2 28.15 M22.55 35.0 Q24.05 34.9 25.55 34.1" fill="none" stroke="#986561" stroke-linecap="round" stroke-linejoin="round" stroke-width="2.0"/>
  </g>
</svg>
