<?xml version="1.0" encoding="UTF-8" standalone="no"?>
<svg xmlns:xlink="http://www.w3.org/1999/xlink" height="144.55px" width="120.25px" xmlns="http://www.w3.org/2000/svg">
  <g transform="matrix(1.0, 0.0, 0.0, 1.0, 60.15, 72.25)">
    <path d="M-50.65 -39.95 Q-38.9 -65.85 -5.75 -70.4 34.9 -75.0 54.3 -55.25 L54.75 -54.8 Q56.65 -52.7 58.55 -47.35 61.1 -34.85 51.3 -27.2 43.75 -21.65 33.9 -25.8 45.05 -26.45 49.6 -31.0 56.15 -38.1 55.45 -48.2 49.05 -31.1 33.9 -30.1 26.65 -29.45 18.05 -34.75 2.85 -33.9 -1.4 -27.55 -1.5 -17.7 -7.3 -11.75 -2.3 4.4 -16.8 10.55 L-15.8 12.35 Q-11.35 21.4 -18.5 27.45 -13.7 35.15 -17.4 41.1 -14.35 43.35 -14.1 45.9 -6.15 43.8 -1.2 49.25 3.35 55.65 9.2 50.35 L9.45 50.2 11.55 47.85 Q13.95 60.45 7.2 65.6 -1.85 72.65 -15.0 68.65 -13.35 70.1 -11.2 71.3 -24.95 71.55 -25.1 55.15 -27.5 54.4 -28.8 50.5 -41.35 53.15 -44.1 39.95 -56.95 34.1 -53.05 20.15 -58.6 15.7 -57.85 7.2 -57.6 4.35 -56.65 1.05 -61.7 -4.4 -56.5 -15.0 L-54.6 -18.6 Q-59.2 -32.2 -50.65 -39.95 -51.7 -35.2 -46.3 -30.45 -42.6 -27.0 -41.35 -24.25 M-56.5 -15.0 Q-55.4 -7.4 -48.4 -4.45 -43.95 -3.25 -42.2 1.2 M-56.65 1.05 Q-52.3 5.15 -43.4 8.8 -36.5 12.25 -36.15 26.0 L-36.05 25.2 -35.15 16.9 Q-35.25 9.05 -37.45 2.9 L-39.25 -1.25 Q-41.8 -6.0 -45.8 -9.45 -53.1 -14.5 -54.6 -18.6 M-43.4 -16.35 Q-40.65 -14.4 -38.45 -4.25 -33.95 -19.3 -17.55 -27.55 M-39.25 -1.25 L-38.45 -4.25 M-7.3 -11.75 Q-12.65 -6.4 -22.75 -4.3 -33.15 -1.95 -36.8 2.1 L-37.45 2.9 M-46.15 -35.45 Q-33.55 -30.1 -34.95 -13.75 M-35.15 16.9 Q-31.55 9.25 -23.95 6.7 M-23.6 37.05 Q-21.7 42.9 -24.5 48.7 L-26.2 45.45 Q-30.75 47.1 -35.8 45.45 M-18.5 27.45 L-21.0 29.3 Q-27.75 33.4 -29.05 40.0 L-26.2 45.45 M-36.15 26.0 Q-30.65 30.15 -29.05 40.0 -37.55 35.6 -38.4 31.15 M-15.8 12.35 Q-17.5 20.15 -22.55 26.0 M-28.8 50.5 L-28.6 50.45 Q-25.1 49.7 -22.3 46.95 -19.0 43.75 -17.4 41.1 M-16.8 10.55 Q-19.65 11.75 -23.25 12.6 -34.6 14.65 -36.05 25.2 M-57.85 7.2 Q-54.75 14.2 -45.65 17.75 M-14.1 45.9 Q-13.9 47.8 -15.35 49.95 L-19.45 53.75 Q-22.8 55.95 -25.1 55.15 M-19.8 60.25 Q-19.1 65.1 -15.0 68.65 M-44.1 39.95 Q-34.8 42.0 -29.05 40.0 M-53.05 20.15 Q-45.3 24.95 -36.15 26.0 M-23.1 -16.0 Q-34.5 -9.5 -36.8 2.1 M9.2 50.35 Q8.5 61.5 -8.95 59.4" fill="none" stroke="#000000" stroke-linecap="round" stroke-linejoin="round" stroke-width="2.0"/>
  </g>
</svg>
