<?xml version="1.0" encoding="UTF-8" standalone="no"?>
<svg xmlns:xlink="http://www.w3.org/1999/xlink" height="111.5px" width="139.65px" xmlns="http://www.w3.org/2000/svg">
  <g transform="matrix(1.0, 0.0, 0.0, 1.0, 69.85, 55.75)">
    <path d="M-56.8 -5.3 L-56.6 -6.7 Q-66.1 -9.75 -67.15 -18.7 -59.25 -9.4 -51.25 -25.0 L-48.3 -31.35 -48.3 -31.4 Q-29.55 -69.0 45.95 -46.1 63.5 -40.7 65.95 -23.85 58.05 -4.1 60.15 10.9 60.95 14.6 62.85 18.15 64.1 20.5 65.85 22.75 L67.15 24.45 Q68.4 25.9 68.7 27.75 68.95 29.55 68.4 31.75 67.65 34.3 65.6 37.35 63.45 41.35 58.5 44.55 L58.5 44.6 Q52.55 48.1 49.85 53.5 L49.3 54.75 48.15 53.5 Q43.0 47.3 43.15 38.35 43.25 28.95 39.15 19.95 38.6 47.2 31.95 53.35 27.2 44.5 28.1 32.8 25.4 42.6 26.85 53.5 L26.85 53.75 26.55 53.5 Q16.9 43.45 17.85 33.9 16.1 46.15 1.7 53.5 L1.25 53.7 0.8 53.5 Q-16.25 43.85 -18.25 30.45 -23.3 37.65 -30.8 36.8 -30.4 39.35 -29.3 41.85 L-31.25 40.55 Q-35.9 37.15 -38.35 32.6 -44.95 41.65 -53.7 40.35 -47.95 33.75 -48.1 26.7 -55.75 24.7 -59.55 21.75 -75.25 14.65 -64.4 3.95 -62.4 -1.05 -56.8 -5.3 -57.25 1.3 -56.55 5.55 -55.9 9.55 -54.25 13.15 -52.4 17.3 -49.2 20.8 L-48.7 22.6 -48.7 22.65 Q-48.15 24.7 -48.1 26.7 M-42.5 8.6 L-42.6 11.75 Q-43.05 16.6 -45.25 20.9 -42.85 20.85 -41.4 18.2 -40.8 16.9 -40.3 15.1 M-64.4 3.95 Q-65.95 7.85 -65.35 12.25 -64.5 17.85 -59.55 21.75 M-38.35 32.6 Q-41.85 26.45 -41.4 18.2 M64.05 25.45 Q66.75 31.15 65.6 37.35 M-56.8 -5.3 Q-68.4 18.75 -48.7 22.65" fill="none" stroke="#000000" stroke-linecap="round" stroke-linejoin="round" stroke-width="2.0"/>
    <path d="M-49.2 20.8 L-50.4 17.95 Q-51.85 14.85 -52.75 11.75 -53.7 8.65 -54.15 5.55 -55.15 -1.55 -53.7 -8.9 M-54.45 -14.65 Q-56.1 -10.65 -56.6 -6.7 M-23.85 14.0 Q-25.25 18.95 -25.6 22.85 -26.05 28.05 -24.75 31.4 -23.45 22.95 -19.35 16.15 M-30.8 36.8 Q-32.0 29.8 -28.15 22.4 -30.15 30.4 -27.4 33.3 -26.8 28.1 -25.6 22.85 M-35.65 20.25 Q-35.9 32.25 -31.25 40.55" fill="none" stroke="#000000" stroke-linecap="round" stroke-linejoin="round" stroke-opacity="0.49803922" stroke-width="1.5"/>
  </g>
</svg>
