<?xml version="1.0" encoding="UTF-8" standalone="no"?>
<svg xmlns:xlink="http://www.w3.org/1999/xlink" height="201.1px" width="109.8px" xmlns="http://www.w3.org/2000/svg">
  <g transform="matrix(1.0, 0.0, 0.0, 1.0, 54.9, 100.55)">
    <path d="M9.95 -99.2 Q26.8 -98.45 39.15 -90.9 44.1 -40.9 46.4 4.3 50.7 14.45 51.8 23.5 54.35 44.3 54.9 60.75 L54.9 61.3 Q53.25 80.9 44.7 88.4 L47.15 75.5 Q43.3 86.05 35.0 87.1 26.5 84.9 21.15 78.35 15.95 89.4 3.5 87.5 -8.95 85.55 -8.0 73.75 -10.4 84.5 -25.6 88.0 -38.4 85.85 -36.45 68.15 -39.9 88.6 -34.9 100.55 -57.25 84.15 -54.65 37.7 L-54.25 32.55 Q-53.85 14.9 -48.9 -3.3 -47.85 -47.25 -35.6 -94.25 -15.2 -103.45 9.95 -99.2" fill="#7250e0" fill-opacity="0.7490196" fill-rule="evenodd" stroke="none"/>
  </g>
</svg>
