<?xml version="1.0" encoding="UTF-8" standalone="no"?>
<svg xmlns:xlink="http://www.w3.org/1999/xlink" height="212.35px" width="174.9px" xmlns="http://www.w3.org/2000/svg">
  <g transform="matrix(1.0, 0.0, 0.0, 1.0, 87.45, 106.15)">
    <path d="M67.5 45.6 L68.45 51.4 68.55 51.95 Q71.1 68.6 86.45 77.9 71.15 52.85 69.8 8.05 71.65 -37.05 62.45 -77.95 55.25 -89.15 44.85 -95.5 32.5 -103.05 15.65 -103.8 -9.5 -108.05 -29.9 -98.85 -42.95 -93.0 -54.1 -81.6 -63.3 -61.25 -61.55 -39.0 -59.8 -16.8 -62.45 2.3 -65.15 21.35 -72.7 35.25 -91.45 57.1 -84.65 80.25 -87.85 66.35 -67.55 45.5 -55.65 29.6 -55.1 8.05 M-29.2 55.7 L-30.75 63.55 Q-32.7 81.25 -19.9 83.4 -4.7 79.9 -2.3 69.15 -3.25 80.95 9.2 82.9 21.65 84.8 26.85 73.75 32.2 80.3 40.7 82.5 49.0 81.45 52.85 70.9 L54.05 66.8 M52.85 70.9 L50.4 83.8 Q58.95 76.3 60.6 56.7 L60.6 56.15 Q60.05 39.7 57.5 18.9 56.4 9.85 52.1 -0.3 M68.55 51.95 Q72.0 79.2 56.95 97.75 61.4 82.85 60.6 56.7 M-67.55 45.5 Q-75.0 82.3 -39.3 105.2 -52.95 86.55 -48.95 33.1 L-48.55 27.95 Q-48.15 10.3 -43.2 -7.9 M-48.95 33.1 Q-51.55 79.55 -29.2 95.95 -34.2 84.0 -30.75 63.55" fill="none" stroke="#000000" stroke-linecap="round" stroke-linejoin="round" stroke-width="2.0"/>
  </g>
</svg>
