<?xml version="1.0" encoding="UTF-8" standalone="no"?>
<svg xmlns:xlink="http://www.w3.org/1999/xlink" height="61.75px" width="84.0px" xmlns="http://www.w3.org/2000/svg">
  <g transform="matrix(1.0, 0.0, 0.0, 1.0, 42.0, 30.9)">
    <path d="M-40.65 17.45 Q-46.2 -2.2 -28.55 -19.35 -16.5 -29.5 -0.25 -30.8 7.65 -31.5 17.8 -26.0 27.9 -18.4 39.4 -18.5 35.3 -5.95 20.55 -6.2 27.55 -0.95 42.0 -1.5 22.45 13.1 9.05 10.2 12.1 14.25 20.25 18.25 7.7 22.45 -4.85 21.1 -3.15 24.1 0.5 27.1 -11.35 29.3 -19.7 25.65 L-15.95 30.85 Q-33.5 28.05 -40.65 17.45" fill="url(#gradient0)" fill-rule="evenodd" stroke="none"/>
  </g>
  <defs>
    <linearGradient gradientTransform="matrix(0.0, 0.11, -0.0513, 0.0, 0.0, 33.75)" gradientUnits="userSpaceOnUse" id="gradient0" spreadMethod="pad" x1="-819.2" x2="819.2">
      <stop offset="0.0" stop-color="#fff23c" stop-opacity="0.0"/>
      <stop offset="0.3803921568627451" stop-color="#fff23c" stop-opacity="0.84705883"/>
      <stop offset="0.6039215686274509" stop-color="#fff23c" stop-opacity="0.8"/>
      <stop offset="1.0" stop-color="#fff23c" stop-opacity="0.0"/>
    </linearGradient>
  </defs>
</svg>
