<?xml version="1.0" encoding="UTF-8" standalone="no"?>
<svg xmlns:xlink="http://www.w3.org/1999/xlink" height="64.8px" width="138.2px" xmlns="http://www.w3.org/2000/svg">
  <g transform="matrix(1.0, 0.0, 0.0, 1.0, 69.1, 32.4)">
    <path d="M-60.4 -19.55 Q-65.3 -19.15 -68.1 -21.5 -64.15 -23.05 -58.75 -25.7 -53.4 -28.45 -45.85 -29.4 -19.45 -33.4 12.0 -29.4 23.5 -28.65 36.85 -26.2 41.5 -26.4 43.4 -29.85 46.1 -24.25 44.65 -23.4 51.8 -26.25 55.8 -30.15 57.5 -24.4 55.05 -18.7 59.95 -16.75 68.1 -15.7 65.65 -11.55 59.65 -8.35 63.85 1.25 59.65 7.6 L54.25 1.75 Q56.0 9.1 61.45 16.5 51.9 16.85 48.2 12.85 46.5 19.25 38.15 23.2 36.15 19.4 31.8 16.5 29.1 24.85 18.35 28.95 19.7 25.45 20.15 17.8 15.95 22.7 14.9 28.8 7.3 26.15 6.15 22.65 4.75 28.4 -3.95 31.4 -15.3 29.95 -18.8 24.3 L-17.45 29.55 Q-26.45 25.95 -27.8 21.9 L-27.25 27.4 Q-33.95 25.25 -36.5 20.25 -38.8 24.15 -43.4 28.65 -49.25 22.95 -46.15 15.95 -55.3 14.9 -59.7 11.5 -57.3 10.9 -53.35 6.65 -57.85 9.55 -64.05 8.7 -61.4 4.45 -62.95 -5.25 -65.8 -3.15 -67.4 -0.95 -69.25 -13.5 -60.4 -19.55 L-58.8 -19.75 M48.85 -13.45 Q53.9 -11.8 57.85 -13.45 56.7 -8.0 49.15 -4.45 M-62.95 -5.25 L-60.85 -6.7 M-27.8 21.9 L-27.95 21.1 M-37.0 19.2 L-36.5 20.25 M-53.35 6.65 L-51.7 5.35 Q-49.55 3.45 -47.8 0.55 M-45.6 14.7 L-46.15 15.95 M32.0 16.0 L31.8 16.5" fill="none" stroke="#333333" stroke-linecap="round" stroke-linejoin="round" stroke-width="2.0"/>
  </g>
</svg>
