<?xml version="1.0" encoding="UTF-8" standalone="no"?>
<svg xmlns:xlink="http://www.w3.org/1999/xlink" height="111.2px" width="154.15px" xmlns="http://www.w3.org/2000/svg">
  <g transform="matrix(1.0, 0.0, 0.0, 1.0, 77.1, 55.6)">
    <path d="M-65.85 43.5 L-63.4 51.3 Q-73.1 45.0 -75.7 35.3 -77.65 26.15 -69.6 14.65 -63.1 6.4 -59.35 -6.45 L-59.15 -6.85 Q-56.0 -20.75 -51.4 -34.15 -46.4 -45.55 -27.25 -50.6 3.7 -59.25 32.4 -49.15 48.25 -44.65 53.7 -29.55 56.3 -16.5 60.5 -3.15 L60.65 -2.95 Q62.4 3.55 66.6 9.5 79.6 28.8 74.7 38.5 71.35 45.1 63.45 50.8 65.55 48.25 67.1 40.4 61.1 53.95 45.9 54.1 L41.4 53.85 44.15 48.3 Q37.35 54.3 24.4 54.6 27.7 52.15 29.8 47.35 22.75 54.85 11.25 53.0 L10.6 52.85 13.65 49.15 Q9.65 52.05 3.35 53.3 -4.35 52.9 -7.25 48.9 -7.4 51.45 -4.85 53.55 -13.95 53.15 -19.15 48.3 -18.15 51.3 -15.05 54.3 -28.85 55.6 -30.9 46.45 -31.0 50.0 -28.95 52.85 L-31.1 53.1 Q-37.95 53.75 -42.7 52.85 -48.25 50.1 -50.1 44.05 -49.4 48.85 -46.0 52.55 L-49.8 52.8 Q-58.0 52.8 -62.3 48.15 -64.6 46.35 -65.85 43.5 L-66.95 40.05 Q-68.75 31.3 -63.9 15.8 M45.9 54.1 Q57.75 52.7 63.15 40.9 M11.25 53.0 Q21.05 52.05 25.65 46.15 M-31.1 53.1 Q-34.3 51.3 -34.8 45.95 M-49.8 52.8 Q-55.85 45.65 -54.8 35.7" fill="none" stroke="#000000" stroke-linecap="round" stroke-linejoin="round" stroke-width="2.0"/>
  </g>
</svg>
