<?xml version="1.0" encoding="UTF-8" standalone="no"?>
<svg xmlns:xlink="http://www.w3.org/1999/xlink" height="91.35px" width="81.65px" xmlns="http://www.w3.org/2000/svg">
  <g transform="matrix(1.0, 0.0, 0.0, 1.0, 38.75, 89.5)">
    <path d="M-33.6 -16.8 L-10.55 -45.7 -29.95 -71.35 Q-32.7 -75.1 -34.0 -77.75 -35.45 -80.45 -35.45 -82.9 -35.45 -85.45 -32.75 -87.45 -30.15 -89.5 -26.35 -89.5 -22.0 -89.5 -19.55 -87.25 -17.15 -85.1 -12.85 -79.1 L2.6 -57.65 19.15 -79.1 22.65 -83.75 25.4 -86.95 Q26.75 -88.2 28.45 -88.85 L32.25 -89.5 Q36.15 -89.5 38.7 -87.45 41.15 -85.45 41.15 -82.7 41.15 -78.65 35.75 -71.7 L15.45 -45.7 37.25 -16.8 Q40.25 -13.05 41.55 -10.5 42.9 -8.05 42.9 -5.8 42.9 -3.7 41.7 -1.95 40.5 -0.2 38.35 0.85 36.15 1.85 33.4 1.85 30.5 1.85 28.45 0.85 26.4 -0.25 25.1 -1.8 L20.4 -7.9 2.25 -32.35 -17.0 -7.2 -20.15 -2.95 Q-21.15 -1.75 -22.5 -0.6 -23.85 0.55 -25.65 1.2 -27.45 1.85 -29.95 1.85 -33.75 1.85 -36.2 -0.15 -38.75 -2.1 -38.75 -5.9 -38.75 -10.4 -33.6 -16.8" fill="#d70707" fill-rule="evenodd" stroke="none"/>
  </g>
</svg>
