<?xml version="1.0" encoding="UTF-8" standalone="no"?>
<svg xmlns:xlink="http://www.w3.org/1999/xlink" height="466.95px" width="386.15px" xmlns="http://www.w3.org/2000/svg">
  <g transform="matrix(1.0, 0.0, 0.0, 1.0, 192.1, 233.9)">
    <path d="M4.4 -227.8 Q4.4 -225.65 2.9 -224.2 1.35 -222.65 -0.8 -222.65 -2.9 -222.65 -4.45 -224.2 -5.9 -225.65 -5.9 -227.8 -5.9 -229.95 -4.45 -231.5 -2.9 -233.0 -0.8 -233.0 1.35 -233.0 2.9 -231.5 4.4 -229.95 4.4 -227.8 M1.25 -227.9 Q1.25 -228.7 0.65 -229.35 0.05 -229.9 -0.8 -229.9 -1.6 -229.9 -2.25 -229.35 -2.8 -228.7 -2.8 -227.9 -2.8 -227.0 -2.25 -226.5 -1.6 -225.85 -0.8 -225.85 0.05 -225.85 0.65 -226.5 1.25 -227.0 1.25 -227.9" fill="#000000" fill-rule="evenodd" stroke="none"/>
    <path d="M1.25 -227.9 Q1.25 -227.0 0.65 -226.5 0.05 -225.85 -0.8 -225.85 -1.6 -225.85 -2.25 -226.5 -2.8 -227.0 -2.8 -227.9 -2.8 -228.7 -2.25 -229.35 -1.6 -229.9 -0.8 -229.9 0.05 -229.9 0.65 -229.35 1.25 -228.7 1.25 -227.9" fill="#393c46" fill-rule="evenodd" stroke="none"/>
    <path d="M4.4 -227.8 Q4.4 -225.65 2.9 -224.2 1.35 -222.65 -0.8 -222.65 -2.9 -222.65 -4.45 -224.2 -5.9 -225.65 -5.9 -227.8 -5.9 -229.95 -4.45 -231.5 -2.9 -233.0 -0.8 -233.0 1.35 -233.0 2.9 -231.5 4.4 -229.95 4.4 -227.8" fill="none" stroke="#343b46" stroke-linecap="round" stroke-linejoin="round" stroke-opacity="0.5764706" stroke-width="1.5"/>
    <path d="M-178.75 -196.35 L-178.75 -202.7 Q-178.75 -221.4 -158.95 -221.4 L161.9 -221.4 Q181.7 -221.4 181.7 -202.7 L181.7 -196.35" fill="none" stroke="#b3bcff" stroke-linecap="round" stroke-linejoin="round" stroke-opacity="0.21960784" stroke-width="2.0"/>
    <path d="M-162.6 -232.9 L164.55 -232.9 Q176.4 -232.9 184.7 -224.6 193.05 -216.25 193.05 -204.4 L193.05 203.55 Q193.05 215.35 184.7 223.7 176.4 232.05 164.55 232.05 L-162.6 232.05 Q-174.45 232.05 -182.8 223.7 -191.1 215.35 -191.1 203.55 L-191.1 -204.4 Q-191.1 -216.25 -182.8 -224.6 -174.45 -232.9 -162.6 -232.9 M-160.05 -222.7 L162.9 -222.7 Q182.85 -222.7 182.85 -202.75 L182.85 201.9 Q182.85 221.85 162.9 221.85 L-160.05 221.85 Q-180.0 221.85 -180.0 201.9 L-180.0 -202.75 Q-180.0 -222.7 -160.05 -222.7" fill="none" stroke="#000000" stroke-linecap="round" stroke-linejoin="round" stroke-opacity="0.5764706" stroke-width="2.0"/>
  </g>
</svg>
