<?xml version="1.0" encoding="UTF-8" standalone="no"?>
<svg xmlns:xlink="http://www.w3.org/1999/xlink" height="336.85px" width="192.55px" xmlns="http://www.w3.org/2000/svg">
  <g transform="matrix(1.0, 0.0, 0.0, 1.0, 97.6, 316.9)">
    <path d="M94.5 -305.85 L94.95 -305.15 94.95 -305.05 94.95 -304.45 94.95 -304.35 94.6 -303.75 94.55 -303.65 83.6 -293.7 Q83.05 -293.3 82.5 -293.3 81.8 -293.3 81.5 -293.7 L81.45 -293.75 Q81.1 -294.2 81.1 -294.8 81.1 -295.45 81.6 -295.9 L91.35 -304.8 81.55 -314.4 Q81.1 -314.8 81.1 -315.45 81.1 -316.0 81.5 -316.5 81.9 -316.9 82.6 -316.9 83.15 -316.9 83.6 -316.5 L94.5 -305.85 M80.1 -307.0 Q80.9 -306.2 80.9 -305.05 80.9 -303.95 80.1 -303.1 L80.1 -303.15 Q79.35 -302.4 78.2 -302.4 77.15 -302.4 76.35 -303.1 L76.35 -303.15 Q75.55 -303.95 75.55 -305.05 75.55 -306.2 76.35 -307.0 77.15 -307.65 78.2 -307.65 79.35 -307.65 80.1 -307.0" fill="url(#gradient0)" fill-rule="evenodd" stroke="none"/>
    <path d="M-78.6 4.3 Q-77.75 3.55 -76.45 3.55 -75.25 3.55 -74.3 4.3 -73.4 5.2 -73.4 6.5 -73.4 7.8 -74.3 8.7 L-74.3 8.75 Q-75.25 9.55 -76.45 9.55 -77.75 9.55 -78.6 8.7 L-78.6 8.75 Q-79.55 7.8 -79.55 6.5 -79.55 5.2 -78.6 4.3 M-95.05 5.6 L-82.6 -6.55 Q-82.1 -7.0 -81.45 -7.0 -80.65 -7.0 -80.2 -6.55 -79.75 -6.0 -79.75 -5.35 -79.75 -4.6 -80.25 -4.15 L-91.45 6.8 -80.35 17.0 Q-79.75 17.5 -79.75 18.25 -79.75 18.9 -80.15 19.45 L-80.2 19.5 Q-80.55 19.95 -81.35 19.95 L-82.6 19.5 -95.1 8.1 -95.15 8.0 -95.55 7.3 -95.55 7.2 -95.55 6.5 -95.55 6.4 -95.05 5.6" fill="url(#gradient1)" fill-rule="evenodd" stroke="none"/>
    <path d="M89.0 5.6 L89.5 6.4 89.5 6.5 89.5 7.2 89.5 7.3 89.1 8.0 89.05 8.1 76.55 19.5 75.3 19.95 Q74.5 19.95 74.15 19.5 L74.1 19.45 Q73.7 18.9 73.7 18.25 73.7 17.5 74.3 17.0 L85.4 6.8 74.2 -4.15 Q73.7 -4.6 73.7 -5.35 73.7 -6.0 74.15 -6.55 74.6 -7.0 75.4 -7.0 76.05 -7.0 76.55 -6.55 L89.0 5.6 M72.55 4.3 Q73.5 5.2 73.5 6.5 73.5 7.8 72.55 8.75 L72.55 8.7 Q71.7 9.55 70.4 9.55 69.2 9.55 68.25 8.75 L68.25 8.7 Q67.35 7.8 67.35 6.5 67.35 5.2 68.25 4.3 69.2 3.55 70.4 3.55 71.7 3.55 72.55 4.3" fill="url(#gradient2)" fill-rule="evenodd" stroke="none"/>
    <path d="M-97.1 -305.85 L-86.2 -316.5 Q-85.75 -316.9 -85.2 -316.9 -84.5 -316.9 -84.1 -316.5 L-83.7 -315.45 Q-83.7 -314.8 -84.15 -314.4 L-93.95 -304.8 -84.2 -295.9 Q-83.7 -295.45 -83.7 -294.8 -83.7 -294.2 -84.05 -293.75 L-84.1 -293.7 Q-84.4 -293.3 -85.1 -293.3 -85.65 -293.3 -86.2 -293.7 L-97.15 -303.65 -97.2 -303.75 -97.55 -304.35 -97.55 -304.45 -97.55 -305.05 -97.55 -305.15 -97.1 -305.85 M-82.7 -307.0 Q-81.95 -307.65 -80.8 -307.65 -79.75 -307.65 -78.95 -307.0 -78.15 -306.2 -78.15 -305.05 -78.15 -303.95 -78.95 -303.15 L-78.95 -303.1 Q-79.75 -302.4 -80.8 -302.4 -81.95 -302.4 -82.7 -303.15 L-82.7 -303.1 Q-83.5 -303.95 -83.5 -305.05 -83.5 -306.2 -82.7 -307.0" fill="url(#gradient3)" fill-rule="evenodd" stroke="none"/>
  </g>
  <defs>
    <linearGradient gradientTransform="matrix(0.0, -0.0125, 0.1182, 0.0, -1.9, -304.15)" gradientUnits="userSpaceOnUse" id="gradient0" spreadMethod="pad" x1="-819.2" x2="819.2">
      <stop offset="0.0" stop-color="#799bc9" stop-opacity="0.827451"/>
      <stop offset="0.9921568627450981" stop-color="#646ea6" stop-opacity="0.81960785"/>
    </linearGradient>
    <linearGradient gradientTransform="matrix(0.0, -0.0135, 0.112, 0.0, -3.85, 6.3)" gradientUnits="userSpaceOnUse" id="gradient1" spreadMethod="pad" x1="-819.2" x2="819.2">
      <stop offset="0.0" stop-color="#799bc9" stop-opacity="0.827451"/>
      <stop offset="0.9921568627450981" stop-color="#646ea6" stop-opacity="0.81960785"/>
    </linearGradient>
    <linearGradient gradientTransform="matrix(0.0, -0.0135, 0.112, 0.0, -2.25, 6.3)" gradientUnits="userSpaceOnUse" id="gradient2" spreadMethod="pad" x1="-819.2" x2="819.2">
      <stop offset="0.0" stop-color="#799bc9" stop-opacity="0.827451"/>
      <stop offset="0.9921568627450981" stop-color="#646ea6" stop-opacity="0.81960785"/>
    </linearGradient>
    <linearGradient gradientTransform="matrix(0.0, -0.0125, 0.1182, 0.0, -0.8, -304.15)" gradientUnits="userSpaceOnUse" id="gradient3" spreadMethod="pad" x1="-819.2" x2="819.2">
      <stop offset="0.0" stop-color="#799bc9" stop-opacity="0.827451"/>
      <stop offset="0.9921568627450981" stop-color="#646ea6" stop-opacity="0.81960785"/>
    </linearGradient>
  </defs>
</svg>
