<?xml version="1.0" encoding="UTF-8" standalone="no"?>
<svg xmlns:xlink="http://www.w3.org/1999/xlink" height="29.15px" width="22.1px" xmlns="http://www.w3.org/2000/svg">
  <g transform="matrix(1.0, 0.0, 0.0, 1.0, 11.05, 14.6)">
    <path d="M5.95 -10.65 L7.45 -8.25 M2.9 8.1 L9.15 8.1 9.95 8.1 8.9 -13.6 -8.95 -13.6 -10.05 8.1 -9.2 8.1 -2.95 8.1 -1.85 8.1 -0.75 -6.75 -0.05 -8.45 0.65 -6.75 1.8 8.1 2.9 8.1 2.3 11.3 2.3 13.55 10.05 13.55 10.05 11.3 9.15 8.1 M-6.05 -10.65 L-7.4 -8.15 M-9.2 8.1 L-10.05 11.3 -10.05 13.55 -2.35 13.55 -2.35 11.3 -2.95 8.1" fill="none" stroke="#b5bdf0" stroke-linecap="round" stroke-linejoin="round" stroke-width="2.0"/>
  </g>
</svg>
