<?xml version="1.0" encoding="UTF-8" standalone="no"?>
<svg xmlns:xlink="http://www.w3.org/1999/xlink" height="32.85px" width="32.9px" xmlns="http://www.w3.org/2000/svg">
  <g transform="matrix(1.0, 0.0, 0.0, 1.0, 16.5, 16.55)">
    <path d="M-9.55 -16.05 L9.45 -16.05 Q15.9 -16.05 15.9 -9.6 L15.9 10.65 15.85 10.65 Q15.25 15.8 9.45 15.8 L-9.55 15.8 Q-15.35 15.8 -15.9 10.65 L-16.0 10.65 -16.0 -9.6 Q-16.0 -16.05 -9.55 -16.05" fill="#06070e" fill-opacity="0.5176471" fill-rule="evenodd" stroke="none"/>
    <path d="M-9.55 -16.05 L9.45 -16.05 Q15.9 -16.05 15.9 -9.6 L15.9 10.65 15.85 10.65 Q15.25 15.8 9.45 15.8 L-9.55 15.8 Q-15.35 15.8 -15.9 10.65 L-16.0 10.65 -16.0 -9.6 Q-16.0 -16.05 -9.55 -16.05 Z" fill="none" stroke="#7577a8" stroke-linecap="round" stroke-linejoin="round" stroke-opacity="0.6" stroke-width="1.0"/>
    <path d="M0.0 -8.7 L2.25 -2.25 9.1 -2.05 3.65 2.05 5.6 8.55 0.0 4.75 -5.55 8.55 -3.65 2.05 -9.0 -2.05 -2.25 -2.25 0.0 -8.7" fill="#0c132a" fill-opacity="0.5176471" fill-rule="evenodd" stroke="none"/>
    <path d="M0.0 -8.7 L2.25 -2.25 9.1 -2.05 3.65 2.05 5.6 8.55 0.0 4.75 -5.55 8.55 -3.65 2.05 -9.0 -2.05 -2.25 -2.25 0.0 -8.7 Z" fill="none" stroke="#7c7db1" stroke-linecap="round" stroke-linejoin="round" stroke-opacity="0.6" stroke-width="1.0"/>
  </g>
</svg>
