<?xml version="1.0" encoding="UTF-8" standalone="no"?>
<svg xmlns:xlink="http://www.w3.org/1999/xlink" height="57.55px" width="242.65px" xmlns="http://www.w3.org/2000/svg">
  <g transform="matrix(1.0, 0.0, 0.0, 1.0, 824.25, 115.55)">
    <path d="M-815.45 -115.05 L-590.4 -115.05 Q-582.1 -115.05 -582.1 -106.75 L-582.1 -66.8 Q-582.1 -58.5 -590.4 -58.5 L-815.45 -58.5 Q-823.75 -58.5 -823.75 -66.8 L-823.75 -106.75 Q-823.75 -115.05 -815.45 -115.05" fill="#c0c2ec" fill-rule="evenodd" stroke="none"/>
    <path d="M-815.45 -115.05 L-590.4 -115.05 Q-582.1 -115.05 -582.1 -106.75 L-582.1 -66.8 Q-582.1 -58.5 -590.4 -58.5 L-815.45 -58.5 Q-823.75 -58.5 -823.75 -66.8 L-823.75 -106.75 Q-823.75 -115.05 -815.45 -115.05 Z" fill="none" stroke="#000000" stroke-linecap="round" stroke-linejoin="round" stroke-width="1.0"/>
  </g>
</svg>
