<?xml version="1.0" encoding="UTF-8" standalone="no"?>
<svg xmlns:xlink="http://www.w3.org/1999/xlink" height="589.5px" width="1093.55px" xmlns="http://www.w3.org/2000/svg">
  <g transform="matrix(1.0, 0.0, 0.0, 1.0, 1005.4, 263.4)">
    <path d="M-1005.4 -263.4 L88.15 -263.4 88.15 326.1 -1005.4 326.1 -1005.4 -263.4" fill="url(#gradient0)" fill-rule="evenodd" stroke="none"/>
    <path d="M1.1 -223.1 L1.15 -222.9 1.65 -222.25 Q3.35 -219.05 3.35 -214.2 L3.35 280.6 3.25 283.1 3.25 283.15 Q2.95 285.45 2.25 287.1 -0.5 296.3 -12.3 296.3 L-904.2 296.3 Q-916.0 296.3 -918.85 287.15 L-919.95 284.2 -920.3 282.65 -920.3 -214.2 Q-920.3 -227.05 -908.75 -228.55 L-908.55 -228.55 -905.8 -228.7 -11.15 -228.7 Q-2.7 -228.7 0.8 -223.5 L1.1 -223.1" fill="#13152d" fill-opacity="0.65882355" fill-rule="evenodd" stroke="none"/>
    <path d="M-5.45 -166.5 L-5.45 -216.45 Q-5.45 -222.2 -11.15 -222.2 L-905.8 -222.2 Q-911.45 -222.2 -911.45 -216.45 L-911.45 -166.5 -911.45 273.3 -916.1 273.3 -916.1 -216.45 Q-916.1 -225.5 -908.15 -226.7 L-905.8 -226.8 -11.15 -226.8 Q-5.1 -226.8 -2.65 -223.35 L-2.15 -222.65 -2.1 -222.6 Q-0.85 -220.15 -0.85 -216.45 L-0.85 273.3 -5.45 273.3 -5.45 -166.5" fill="#222541" fill-opacity="0.9490196" fill-rule="evenodd" stroke="none"/>
    <path d="M-5.45 -166.5 L-5.45 273.3 -911.45 273.3 -911.45 -166.5 -5.45 -166.5" fill="#15172a" fill-opacity="0.9490196" fill-rule="evenodd" stroke="none"/>
    <path d="M-911.45 -166.5 L-911.45 -216.45 Q-911.45 -222.2 -905.8 -222.2 L-11.15 -222.2 Q-5.45 -222.2 -5.45 -216.45 L-5.45 -166.5 -911.45 -166.5" fill="#1c1e38" fill-opacity="0.9490196" fill-rule="evenodd" stroke="none"/>
    <path d="M-5.45 273.3 L-0.85 273.3 -0.85 273.8 -0.85 278.3 -0.95 280.3 -916.1 280.3 -916.1 273.3 -911.45 273.3 -5.45 273.3" fill="url(#gradient1)" fill-rule="evenodd" stroke="none"/>
    <path d="M-0.95 280.3 Q-1.15 282.1 -1.75 283.45 -3.9 289.8 -12.3 289.8 L-904.2 289.8 Q-912.65 289.8 -914.95 283.45 L-916.1 280.3 -0.95 280.3" fill="url(#gradient2)" fill-rule="evenodd" stroke="none"/>
    <path d="M-0.85 273.3 L-0.85 -216.45 Q-0.85 -220.15 -2.1 -222.6 L-2.15 -222.65 -2.65 -223.35 Q-5.1 -226.8 -11.15 -226.8 L-905.8 -226.8 -908.15 -226.7 Q-916.1 -225.5 -916.1 -216.45 L-916.1 273.3" fill="none" stroke="#889ab8" stroke-linecap="round" stroke-linejoin="round" stroke-opacity="0.54901963" stroke-width="1.0"/>
    <path d="M-911.45 -166.5 L-5.45 -166.5" fill="none" stroke="#889ab8" stroke-linecap="round" stroke-linejoin="round" stroke-opacity="0.7490196" stroke-width="1.0"/>
    <path d="M-0.85 273.8 L-0.85 278.3 -0.95 280.3 Q-1.15 282.1 -1.75 283.45 -3.9 289.8 -12.3 289.8 L-904.2 289.8 Q-912.65 289.8 -914.95 283.45 L-916.1 280.3 -916.1 273.3" fill="none" stroke="#9facbf" stroke-linecap="round" stroke-linejoin="round" stroke-opacity="0.54901963" stroke-width="1.0"/>
    <path d="M-5.45 273.3 L-0.85 273.3 M-916.1 273.3 L-911.45 273.3 -5.45 273.3" fill="none" stroke="#9daabd" stroke-linecap="round" stroke-linejoin="round" stroke-opacity="0.42745098" stroke-width="1.0"/>
  </g>
  <defs>
    <linearGradient gradientTransform="matrix(0.0, 0.2862, -0.6674, 0.0, -458.55, 23.2)" gradientUnits="userSpaceOnUse" id="gradient0" spreadMethod="pad" x1="-819.2" x2="819.2">
      <stop offset="0.023529411764705882" stop-color="#2a3354" stop-opacity="0.8"/>
      <stop offset="1.0" stop-color="#201638" stop-opacity="0.8"/>
    </linearGradient>
    <linearGradient gradientTransform="matrix(-0.5475, 0.0, 0.0, -0.0043, -459.8, 276.75)" gradientUnits="userSpaceOnUse" id="gradient1" spreadMethod="pad" x1="-819.2" x2="819.2">
      <stop offset="0.0" stop-color="#265c6d"/>
      <stop offset="1.0" stop-color="#422b66"/>
    </linearGradient>
    <linearGradient gradientTransform="matrix(-0.55, 0.0, 0.0, -0.0058, -460.5, 285.0)" gradientUnits="userSpaceOnUse" id="gradient2" spreadMethod="pad" x1="-819.2" x2="819.2">
      <stop offset="0.0" stop-color="#4f8eb1"/>
      <stop offset="1.0" stop-color="#815ca3"/>
    </linearGradient>
  </defs>
</svg>
