<?xml version="1.0" encoding="UTF-8" standalone="no"?>
<svg xmlns:xlink="http://www.w3.org/1999/xlink" height="20.0px" width="20.0px" xmlns="http://www.w3.org/2000/svg">
  <g transform="matrix(1.0, 0.0, 0.0, 1.0, 42.95, 9.25)">
    <path d="M-27.65 0.15 L-27.55 0.2 -27.8 0.25 -29.8 0.25 -30.15 0.2 -32.8 -2.55 -32.95 -2.55 -35.6 0.2 -35.9 0.25 -37.9 0.25 -38.15 0.25 -38.15 0.15 -34.1 -3.8 -33.8 -3.85 -31.9 -3.85 -31.6 -3.8 -27.65 0.15 M-22.95 0.75 Q-22.95 4.85 -25.9 7.8 -28.85 10.75 -32.95 10.75 -37.1 10.75 -40.05 7.8 -42.95 4.85 -42.95 0.75 -42.95 -3.4 -40.05 -6.35 -37.1 -9.25 -32.95 -9.25 -28.85 -9.25 -25.9 -6.35 -22.95 -3.4 -22.95 0.75 M-25.05 0.75 Q-25.05 -2.55 -27.4 -4.8 -29.7 -7.15 -32.95 -7.15 -36.25 -7.15 -38.55 -4.8 -40.9 -2.55 -40.9 0.75 -40.9 4.05 -38.55 6.35 -36.25 8.65 -32.95 8.65 -29.7 8.65 -27.4 6.35 -25.05 4.05 -25.05 0.75 M-27.65 4.35 L-27.55 4.4 Q-27.55 4.55 -27.8 4.55 L-29.8 4.55 -30.15 4.4 -32.8 1.65 -32.95 1.65 -35.6 4.4 -35.9 4.55 -37.9 4.55 -38.15 4.5 -38.15 4.35 -34.1 0.45 -33.8 0.35 -31.9 0.35 Q-31.7 0.35 -31.6 0.45 L-27.65 4.35" fill="#ccd4ff" fill-rule="evenodd" stroke="none"/>
  </g>
</svg>
