<?xml version="1.0" encoding="UTF-8" standalone="no"?>
<svg xmlns:xlink="http://www.w3.org/1999/xlink" height="60.1px" width="78.2px" xmlns="http://www.w3.org/2000/svg">
  <g transform="matrix(1.0, 0.0, 0.0, 1.0, 39.1, 30.05)">
    <path d="M-21.1 -21.5 Q-30.1 -13.8 -31.2 -2.75 -43.15 -12.85 -37.05 -30.05 -31.05 -21.95 -21.1 -21.5 M21.1 -21.5 Q31.05 -21.95 37.05 -30.05 43.15 -12.85 31.2 -2.75 30.1 -13.8 21.1 -21.5 M-19.7 21.85 Q-27.85 13.7 -27.85 2.1 -27.85 -9.5 -19.7 -17.7 -11.55 -25.8 0.0 -25.85 11.55 -25.8 19.7 -17.7 27.85 -9.5 27.85 2.1 27.85 13.7 19.7 21.85 11.55 30.0 0.0 30.05 -11.55 30.0 -19.7 21.85 M22.3 -2.35 L4.6 9.75 Q10.4 12.95 16.95 10.6 21.4 7.95 22.3 -2.35 M-22.3 -2.35 Q-21.4 7.95 -16.95 10.6 -10.4 12.95 -4.6 9.75 L-22.3 -2.35" fill="#a7bbd7" fill-rule="evenodd" stroke="none"/>
  </g>
</svg>
