<?xml version="1.0" encoding="UTF-8" standalone="no"?>
<svg xmlns:xlink="http://www.w3.org/1999/xlink" height="6.4px" width="56.9px" xmlns="http://www.w3.org/2000/svg">
  <g transform="matrix(1.0, 0.0, 0.0, 1.0, 28.35, 3.25)">
    <path d="M-27.6 -0.1 Q-0.25 -4.9 27.8 -0.1 -2.1 4.9 -27.6 -0.1" fill="#2a1648" fill-rule="evenodd" stroke="none"/>
    <path d="M-27.6 -0.1 Q-0.25 -4.9 27.8 -0.1 -2.1 4.9 -27.6 -0.1 Z" fill="none" stroke="#d22e2e" stroke-linecap="round" stroke-linejoin="round" stroke-width="1.5"/>
    <path d="M1.95 -0.1 Q1.95 0.75 1.3 1.35 0.7 2.0 -0.15 2.0 -1.0 2.0 -1.65 1.35 -2.25 0.75 -2.25 -0.1 -2.25 -0.95 -1.65 -1.6 -1.0 -2.2 -0.15 -2.2 0.7 -2.2 1.3 -1.6 1.95 -0.95 1.95 -0.1" fill="#e56f6f" fill-rule="evenodd" stroke="none"/>
  </g>
</svg>
