<?xml version="1.0" encoding="UTF-8" standalone="no"?>
<svg xmlns:xlink="http://www.w3.org/1999/xlink" height="46.15px" width="48.2px" xmlns="http://www.w3.org/2000/svg">
  <g transform="matrix(1.0, 0.0, 0.0, 1.0, 23.9, 25.25)">
    <path d="M1.65 -23.25 L6.7 -8.85 21.85 -8.5 22.7 -8.2 23.25 -7.45 23.25 -6.55 22.7 -5.8 10.7 3.35 15.0 18.0 15.0 18.9 14.45 19.65 13.6 19.9 12.7 19.65 0.15 11.0 -12.3 19.65 -13.15 19.9 -14.0 19.65 -14.55 18.9 Q-14.75 18.45 -14.6 18.0 L-10.3 3.35 -22.3 -5.8 Q-22.7 -6.1 -22.8 -6.55 L-22.8 -7.45 -22.3 -8.2 -21.4 -8.5 -6.25 -8.85 -1.2 -23.25 -0.65 -23.95 0.2 -24.25 1.1 -23.95 1.65 -23.25" fill="#4d494d" fill-rule="evenodd" stroke="none"/>
    <path d="M1.65 -23.25 L6.7 -8.85 21.85 -8.5 22.7 -8.2 23.25 -7.45 23.25 -6.55 22.7 -5.8 10.7 3.35 15.0 18.0 15.0 18.9 14.45 19.65 13.6 19.9 12.7 19.65 0.15 11.0 -12.3 19.65 -13.15 19.9 -14.0 19.65 -14.55 18.9 Q-14.75 18.45 -14.6 18.0 L-10.3 3.35 -22.3 -5.8 Q-22.7 -6.1 -22.8 -6.55 L-22.8 -7.45 -22.3 -8.2 -21.4 -8.5 -6.25 -8.85 -1.2 -23.25 -0.65 -23.95 0.2 -24.25 1.1 -23.95 1.65 -23.25 Z" fill="none" stroke="#000000" stroke-linecap="round" stroke-linejoin="round" stroke-width="2.0"/>
  </g>
</svg>
