<?xml version="1.0" encoding="UTF-8" standalone="no"?>
<svg xmlns:xlink="http://www.w3.org/1999/xlink" height="19.35px" width="19.35px" xmlns="http://www.w3.org/2000/svg">
  <g transform="matrix(1.0, 0.0, 0.0, 1.0, 9.65, 9.65)">
    <path d="M3.2 -2.05 Q3.2 -3.4 2.25 -4.35 1.3 -5.3 -0.1 -5.3 -1.45 -5.3 -2.4 -4.35 -3.35 -3.4 -3.35 -2.05 -3.35 -0.65 -2.4 0.3 L-1.25 1.05 -1.25 4.75 -0.1 5.55 1.1 4.75 1.1 1.05 2.25 0.3 Q3.2 -0.65 3.2 -2.05 M9.2 0.0 Q9.2 3.8 6.5 6.45 3.8 9.2 0.0 9.2 -3.8 9.2 -6.45 6.45 -9.15 3.8 -9.15 0.0 -9.15 -3.8 -6.45 -6.5 -3.8 -9.15 0.0 -9.15 3.8 -9.15 6.5 -6.5 9.2 -3.8 9.2 0.0" fill="url(#gradient0)" fill-rule="evenodd" stroke="none"/>
    <path d="M3.2 -2.05 Q3.2 -0.65 2.25 0.3 L1.1 1.05 1.1 4.75 -0.1 5.55 -1.25 4.75 -1.25 1.05 -2.4 0.3 Q-3.35 -0.65 -3.35 -2.05 -3.35 -3.4 -2.4 -4.35 -1.45 -5.3 -0.1 -5.3 1.3 -5.3 2.25 -4.35 3.2 -3.4 3.2 -2.05" fill="#000000" fill-rule="evenodd" stroke="none"/>
    <path d="M9.2 0.0 Q9.2 3.8 6.5 6.45 3.8 9.2 0.0 9.2 -3.8 9.2 -6.45 6.45 -9.15 3.8 -9.15 0.0 -9.15 -3.8 -6.45 -6.5 -3.8 -9.15 0.0 -9.15 3.8 -9.15 6.5 -6.5 9.2 -3.8 9.2 0.0" fill="none" stroke="#1d1938" stroke-linecap="round" stroke-linejoin="round" stroke-width="1.0"/>
    <path d="M3.2 -2.05 Q3.2 -0.65 2.25 0.3 L1.1 1.05 1.1 4.75 -0.1 5.55 -1.25 4.75 -1.25 1.05 -2.4 0.3 Q-3.35 -0.65 -3.35 -2.05 -3.35 -3.4 -2.4 -4.35 -1.45 -5.3 -0.1 -5.3 1.3 -5.3 2.25 -4.35 3.2 -3.4 3.2 -2.05" fill="none" stroke="#7b88ff" stroke-linecap="round" stroke-linejoin="round" stroke-opacity="0.49803922" stroke-width="1.0"/>
  </g>
  <defs>
    <linearGradient gradientTransform="matrix(0.0, -0.0089, 0.0112, 0.0, 0.0, 0.1)" gradientUnits="userSpaceOnUse" id="gradient0" spreadMethod="pad" x1="-819.2" x2="819.2">
      <stop offset="0.0" stop-color="#343785"/>
      <stop offset="1.0" stop-color="#251a56"/>
    </linearGradient>
  </defs>
</svg>
