<?xml version="1.0" encoding="UTF-8" standalone="no"?>
<svg xmlns:xlink="http://www.w3.org/1999/xlink" height="27.3px" width="32.7px" xmlns="http://www.w3.org/2000/svg">
  <g transform="matrix(1.0, 0.0, 0.0, 1.0, 19.25, -133.15)">
    <path d="M12.95 155.05 Q12.95 157.1 11.1 158.55 9.25 159.95 6.6 159.95 3.95 159.95 2.1 158.55 0.25 157.1 0.25 155.05 0.25 153.0 2.1 151.55 3.95 150.15 6.6 150.15 9.25 150.15 11.1 151.55 12.95 153.0 12.95 155.05 M-6.05 138.55 Q-6.05 140.6 -7.9 142.05 -9.75 143.45 -12.4 143.45 -15.05 143.45 -16.9 142.05 -18.75 140.6 -18.75 138.55 -18.75 136.5 -16.9 135.05 -15.05 133.65 -12.4 133.65 -9.75 133.65 -7.9 135.05 -6.05 136.5 -6.05 138.55" fill="#81d7a5" fill-rule="evenodd" stroke="none"/>
    <path d="M12.95 138.55 Q12.95 140.6 11.1 142.05 9.25 143.45 6.6 143.45 3.95 143.45 2.1 142.05 0.25 140.6 0.25 138.55 0.25 136.5 2.1 135.05 3.95 133.65 6.6 133.65 9.25 133.65 11.1 135.05 12.95 136.5 12.95 138.55 M-6.05 155.05 Q-6.05 157.1 -7.9 158.55 -9.75 159.95 -12.4 159.95 -15.05 159.95 -16.9 158.55 -18.75 157.1 -18.75 155.05 -18.75 153.0 -16.9 151.55 -15.05 150.15 -12.4 150.15 -9.75 150.15 -7.9 151.55 -6.05 153.0 -6.05 155.05" fill="#262843" fill-rule="evenodd" stroke="none"/>
    <path d="M12.95 138.55 Q12.95 140.6 11.1 142.05 9.25 143.45 6.6 143.45 3.95 143.45 2.1 142.05 0.25 140.6 0.25 138.55 0.25 136.5 2.1 135.05 3.95 133.65 6.6 133.65 9.25 133.65 11.1 135.05 12.95 136.5 12.95 138.55 M-6.05 155.05 Q-6.05 157.1 -7.9 158.55 -9.75 159.95 -12.4 159.95 -15.05 159.95 -16.9 158.55 -18.75 157.1 -18.75 155.05 -18.75 153.0 -16.9 151.55 -15.05 150.15 -12.4 150.15 -9.75 150.15 -7.9 151.55 -6.05 153.0 -6.05 155.05" fill="none" stroke="#000000" stroke-linecap="round" stroke-linejoin="round" stroke-opacity="0.3882353" stroke-width="1.0"/>
    <path d="M12.95 155.05 Q12.95 157.1 11.1 158.55 9.25 159.95 6.6 159.95 3.95 159.95 2.1 158.55 0.25 157.1 0.25 155.05 0.25 153.0 2.1 151.55 3.95 150.15 6.6 150.15 9.25 150.15 11.1 151.55 12.95 153.0 12.95 155.05 M-6.05 138.55 Q-6.05 140.6 -7.9 142.05 -9.75 143.45 -12.4 143.45 -15.05 143.45 -16.9 142.05 -18.75 140.6 -18.75 138.55 -18.75 136.5 -16.9 135.05 -15.05 133.65 -12.4 133.65 -9.75 133.65 -7.9 135.05 -6.05 136.5 -6.05 138.55" fill="none" stroke="#57b85b" stroke-linecap="round" stroke-linejoin="round" stroke-opacity="0.3882353" stroke-width="1.0"/>
  </g>
</svg>
