<?xml version="1.0" encoding="UTF-8" standalone="no"?>
<svg xmlns:xlink="http://www.w3.org/1999/xlink" height="45.95px" width="60.9px" xmlns="http://www.w3.org/2000/svg">
  <g transform="matrix(1.0, 0.0, 0.0, 1.0, 31.85, 104.7)">
    <path d="M7.7 -88.85 L14.4 -101.45 26.35 -103.7 20.15 -92.65 7.7 -88.85 M7.75 -73.0 L28.05 -59.75 13.05 -61.75 7.75 -73.0 M4.45 -82.05 Q4.45 -80.4 3.25 -79.25 2.1 -78.05 0.45 -78.05 -1.2 -78.05 -2.4 -79.25 -3.55 -80.4 -3.55 -82.05 -3.55 -83.7 -2.4 -84.9 -1.2 -86.05 0.45 -86.05 2.1 -86.05 3.25 -84.9 4.45 -83.7 4.45 -82.05 M-7.25 -74.95 L-7.25 -69.45 -17.8 -65.25 -15.15 -73.2 -7.25 -74.95 M-4.8 -91.75 L-16.5 -92.4 -30.85 -102.75 -13.85 -100.35 -4.8 -91.75" fill="#c2f3ff" fill-opacity="0.7490196" fill-rule="evenodd" stroke="none"/>
    <path d="M7.7 -88.85 L14.4 -101.45 26.35 -103.7 20.15 -92.65 7.7 -88.85 M7.75 -73.0 L13.05 -61.75 28.05 -59.75 7.75 -73.0 M4.45 -82.05 Q4.45 -80.4 3.25 -79.25 2.1 -78.05 0.45 -78.05 -1.2 -78.05 -2.4 -79.25 -3.55 -80.4 -3.55 -82.05 -3.55 -83.7 -2.4 -84.9 -1.2 -86.05 0.45 -86.05 2.1 -86.05 3.25 -84.9 4.45 -83.7 4.45 -82.05 M-4.8 -91.75 L-13.85 -100.35 -30.85 -102.75 -16.5 -92.4 -4.8 -91.75 M-7.25 -74.95 L-15.15 -73.2 -17.8 -65.25 -7.25 -69.45 -7.25 -74.95" fill="none" stroke="#ffffff" stroke-linecap="round" stroke-linejoin="round" stroke-opacity="0.6666667" stroke-width="2.0"/>
  </g>
</svg>
