<?xml version="1.0" encoding="UTF-8" standalone="no"?>
<svg xmlns:xlink="http://www.w3.org/1999/xlink" height="420.05px" width="885.3px" xmlns="http://www.w3.org/2000/svg">
  <g transform="matrix(1.0, 0.0, 0.0, 1.0, 443.75, 259.7)">
    <path d="M-438.5 -259.7 L436.3 -259.7 Q441.55 -259.7 441.55 -254.45 L441.55 155.1 Q441.55 160.35 436.3 160.35 L-438.5 160.35 Q-443.75 160.35 -443.75 155.1 L-443.75 -254.45 Q-443.75 -259.7 -438.5 -259.7" fill="url(#gradient0)" fill-rule="evenodd" stroke="none"/>
    <path d="M-0.2 -80.4 L1.05 -80.4 2.85 -80.15 3.65 -79.55 9.0 -5.6 Q9.15 -3.3 7.25 -1.65 5.35 0.0 2.45 -0.05 L-0.85 -0.05 Q-3.75 -0.1 -5.6 -1.85 -7.45 -3.5 -7.3 -5.8 L-2.85 -79.55 Q-2.85 -79.9 -2.05 -80.15 L-0.2 -80.4" fill="#c2f3ff" fill-rule="evenodd" stroke="none"/>
    <path d="M-0.2 -80.4 L1.05 -80.4 2.85 -80.15 3.65 -79.55 9.0 -5.6 Q9.15 -3.3 7.25 -1.65 5.35 0.0 2.45 -0.05 L-0.85 -0.05 Q-3.75 -0.1 -5.6 -1.85 -7.45 -3.5 -7.3 -5.8 L-2.85 -79.55 Q-2.85 -79.9 -2.05 -80.15 L-0.2 -80.4 Z" fill="none" stroke="#ffffff" stroke-linecap="round" stroke-linejoin="round" stroke-opacity="0.7882353" stroke-width="4.0"/>
  </g>
  <defs>
    <radialGradient cx="0" cy="0" gradientTransform="matrix(0.8441, 0.0, 0.0, 0.8441, -5.6, 269.85)" gradientUnits="userSpaceOnUse" id="gradient0" r="819.2" spreadMethod="pad">
      <stop offset="0.0" stop-color="#cdf5ff" stop-opacity="0.10980392"/>
      <stop offset="1.0" stop-color="#bfe1ff" stop-opacity="0.0"/>
    </radialGradient>
  </defs>
</svg>
