<?xml version="1.0" encoding="UTF-8" standalone="no"?>
<svg xmlns:xlink="http://www.w3.org/1999/xlink" height="73.6px" width="227.7px" xmlns="http://www.w3.org/2000/svg">
  <g transform="matrix(1.0, 0.0, 0.0, 1.0, 33.05, 28.85)">
    <path d="M-24.95 -28.35 L20.05 -28.35 Q27.55 -28.35 27.55 -20.45 L27.55 4.55 Q27.55 9.55 24.6 11.4 22.85 12.55 20.05 12.55 L-24.95 12.55 Q-32.55 12.55 -32.55 4.55 L-32.55 -20.45 Q-32.55 -28.35 -24.95 -28.35" fill="#232843" fill-opacity="0.64705884" fill-rule="evenodd" stroke="none"/>
    <path d="M82.8 14.85 L184.5 14.85 Q194.65 14.85 194.65 24.65 L194.65 35.0 Q194.65 44.75 184.5 44.75 L82.8 44.75 Q72.65 44.75 72.65 35.0 L72.65 24.65 Q72.65 14.85 82.8 14.85" fill="url(#gradient0)" fill-rule="evenodd" stroke="none"/>
    <path d="M-24.95 -28.35 L20.05 -28.35 Q27.55 -28.35 27.55 -20.45 L27.55 4.55 Q27.55 9.55 24.6 11.4 22.85 12.55 20.05 12.55 L-24.95 12.55 Q-32.55 12.55 -32.55 4.55 L-32.55 -20.45 Q-32.55 -28.35 -24.95 -28.35 Z" fill="none" stroke="#bfbfdb" stroke-linecap="round" stroke-linejoin="round" stroke-opacity="0.49803922" stroke-width="1.0"/>
  </g>
  <defs>
    <linearGradient gradientTransform="matrix(0.0, -0.015, 0.0745, 0.0, 133.65, 30.95)" gradientUnits="userSpaceOnUse" id="gradient0" spreadMethod="pad" x1="-819.2" x2="819.2">
      <stop offset="0.0" stop-color="#253651" stop-opacity="0.8"/>
      <stop offset="1.0" stop-color="#22203c" stop-opacity="0.8"/>
    </linearGradient>
  </defs>
</svg>
