<?xml version="1.0" encoding="UTF-8" standalone="no"?>
<svg xmlns:xlink="http://www.w3.org/1999/xlink" height="16.35px" width="14.1px" xmlns="http://www.w3.org/2000/svg">
  <g transform="matrix(1.0, 0.0, 0.0, 1.0, 7.05, 8.2)">
    <path d="M1.75 -5.25 Q3.35 -4.85 4.65 -3.55 6.55 -1.65 6.55 1.1 6.55 3.8 4.65 5.7 2.7 7.65 0.0 7.65 -2.7 7.65 -4.6 5.7 -6.55 3.8 -6.55 1.1 -6.55 -1.65 -4.6 -3.55 -3.3 -4.9 -1.6 -5.3 L-1.6 -7.7 1.75 -7.7 1.75 -5.25 0.0 -5.5 -1.6 -5.3 M5.1 1.6 L2.45 1.6 M-0.05 -3.65 L-0.05 -0.7 M-5.35 1.5 L-2.4 1.5 M-0.15 6.4 L-0.15 3.8" fill="none" stroke="#cbdeff" stroke-linecap="round" stroke-linejoin="round" stroke-opacity="0.65882355" stroke-width="1.0"/>
  </g>
</svg>
