<?xml version="1.0" encoding="UTF-8" standalone="no"?>
<svg xmlns:xlink="http://www.w3.org/1999/xlink" height="23.15px" width="21.6px" xmlns="http://www.w3.org/2000/svg">
  <g transform="matrix(1.0, 0.0, 0.0, 1.0, 10.8, 11.6)">
    <path d="M-2.85 -5.35 L-0.55 -11.6 Q1.8 -9.15 10.8 -8.15 L8.45 -1.9 8.15 -0.25 Q7.65 1.75 7.45 3.45 7.0 7.0 4.55 8.4 2.1 9.75 -0.1 9.75 -2.25 9.75 -3.9 8.45 -5.25 10.1 -6.6 10.95 -7.9 11.75 -9.65 11.5 -11.35 11.2 -10.55 9.1 L-8.65 4.7 -6.9 1.1 -5.15 -1.7 -3.05 -5.05 -2.9 -5.4 -2.85 -5.35" fill="#434343" fill-rule="evenodd" stroke="none"/>
  </g>
</svg>
