<?xml version="1.0" encoding="UTF-8" standalone="no"?>
<svg xmlns:xlink="http://www.w3.org/1999/xlink" height="15.1px" width="17.25px" xmlns="http://www.w3.org/2000/svg">
  <g transform="matrix(1.0, 0.0, 0.0, 1.0, 8.6, 7.55)">
    <path d="M-4.05 -3.7 L-2.55 -7.55 Q2.25 -4.85 8.65 -4.85 L7.4 -1.15 7.25 -0.6 Q-1.1 -1.2 -4.05 -3.7 M6.55 2.85 L6.1 5.35 5.8 6.8 Q-0.95 8.75 -1.85 5.75 -1.5 4.85 -1.3 3.65 L-0.75 3.1 Q-4.1 1.45 -7.1 3.55 L-7.1 3.65 -8.6 3.65 -8.25 3.0 -6.5 0.2 -5.8 -0.85 Q-3.6 1.65 -0.15 2.55 L6.55 2.85" fill="#434343" fill-rule="evenodd" stroke="none"/>
  </g>
</svg>
