<?xml version="1.0" encoding="UTF-8" standalone="no"?>
<svg xmlns:xlink="http://www.w3.org/1999/xlink" height="23.3px" width="23.95px" xmlns="http://www.w3.org/2000/svg">
  <g transform="matrix(1.0, 0.0, 0.0, 1.0, 11.95, 11.65)">
    <path d="M-3.0 -6.25 L-2.15 -10.65 Q0.9 -10.8 4.3 -9.15 8.05 -7.3 11.0 -7.6 L8.3 -2.8 8.0 -1.15 Q7.5 0.85 7.3 2.55 6.85 6.1 4.4 7.5 1.95 8.85 -0.25 8.85 -2.4 8.85 -4.05 7.55 -5.4 9.2 -6.75 10.05 -8.05 10.85 -9.8 10.6 -11.5 10.3 -10.7 8.2 L-8.8 3.8 -7.05 0.2 -5.3 -2.6 -3.2 -5.95 -3.05 -6.3 M-2.55 5.6 L-4.05 7.55 M1.15 -0.4 L-0.1 0.85 Q-0.95 5.75 -3.9 4.85 -6.8 3.9 -5.65 -0.55" fill="none" stroke="#000000" stroke-linecap="round" stroke-linejoin="round" stroke-width="2.0"/>
    <path d="M-3.05 -6.3 L-3.0 -6.25" fill="none" stroke="#000000" stroke-linecap="round" stroke-linejoin="round" stroke-width="1.0"/>
    <path d="M1.25 -3.8 Q-0.4 -5.3 -0.45 -7.0 2.1 -4.8 6.15 -3.8" fill="none" stroke="#000000" stroke-linecap="round" stroke-linejoin="round" stroke-opacity="0.29803923" stroke-width="1.0"/>
  </g>
</svg>
