<?xml version="1.0" encoding="UTF-8" standalone="no"?>
<svg xmlns:xlink="http://www.w3.org/1999/xlink" height="89.7px" width="32.95px" xmlns="http://www.w3.org/2000/svg">
  <g transform="matrix(1.0, 0.0, 0.0, 1.0, 16.5, 44.85)">
    <path d="M9.3 -29.0 Q7.45 -30.95 3.95 -32.8 -4.05 -33.1 -5.95 -29.35 0.2 -21.2 11.8 -24.35 L13.0 -24.95 12.05 -25.4 12.0 -25.45 10.9 -26.45 10.75 -26.7 Q9.95 -27.65 9.3 -29.0 L8.0 -32.05 Q7.4 -39.7 10.3 -44.1 19.15 -31.2 13.45 -25.15 17.15 -13.8 10.5 0.35 L10.85 0.55 11.15 0.75 Q11.75 1.4 11.75 2.25 11.75 3.25 11.15 3.85 10.5 4.5 9.55 4.5 8.65 4.5 8.05 3.85 7.4 3.25 7.4 2.25 7.4 1.4 8.05 0.75 8.65 0.1 9.55 0.1 L10.5 0.35 M13.0 -24.95 L13.25 -25.05 13.45 -25.15 M11.8 -24.35 Q0.9 -20.5 -1.05 -12.9 6.45 -11.9 12.45 -17.8 14.7 -21.05 13.3 -24.35 L13.25 -24.5 13.0 -24.95 M-3.3 23.05 L-3.35 23.2 -3.3 23.35 -3.1 24.25 Q2.7 26.95 0.95 34.85 -2.05 31.5 -2.6 27.65 -2.25 31.3 -2.65 35.15 -5.45 39.1 -8.1 41.5 -7.05 38.8 -6.3 36.05 L-9.8 41.45 -9.65 36.1 Q-11.1 40.05 -12.0 44.1 -12.45 37.5 -11.0 31.2 -9.7 28.4 -7.35 26.2 -9.7 27.75 -15.75 27.85 -13.1 23.2 -4.25 23.75 L-3.35 23.15 -3.3 23.05 -1.55 20.6 -2.4 19.85 Q-4.0 18.35 -4.0 16.1 -4.0 13.9 -2.4 12.3 -0.9 10.8 1.35 10.8 L3.2 11.1 Q2.15 9.9 2.15 8.1 2.15 6.35 3.45 5.0 4.65 3.85 6.55 3.85 8.4 3.85 9.65 5.0 10.9 6.35 10.9 8.1 10.9 10.1 9.65 11.3 8.4 12.55 6.55 12.55 L5.25 12.4 Q6.65 13.9 6.65 16.1 6.65 18.35 5.15 19.85 3.55 21.45 1.35 21.45 -0.3 21.45 -1.55 20.6 L-1.35 20.15 M3.2 11.1 Q4.3 11.45 5.15 12.3 L5.25 12.4 M-3.35 23.15 L-3.35 23.2 M-2.6 27.65 L-2.65 27.0 -3.1 24.25 M-6.3 36.05 Q-5.05 31.1 -4.8 25.85 -7.75 30.95 -9.65 36.1 M-4.25 23.75 Q-6.0 24.9 -7.35 26.2 M-3.3 23.35 L-4.8 25.85" fill="none" stroke="#000000" stroke-linecap="round" stroke-linejoin="round" stroke-width="1.5"/>
  </g>
</svg>
