<?xml version="1.0" encoding="UTF-8" standalone="no"?>
<svg xmlns:xlink="http://www.w3.org/1999/xlink" height="71.8px" width="46.8px" xmlns="http://www.w3.org/2000/svg">
  <g transform="matrix(1.0, 0.0, 0.0, 1.0, 23.45, 35.9)">
    <path d="M1.0 -12.05 Q-1.55 -14.75 -5.9 -17.55 -14.4 -23.05 -19.35 -35.15 L-22.7 -33.65 Q-21.1 -11.0 -11.4 0.2 L-10.85 0.85 Q-12.8 2.1 -14.55 1.7 -17.45 1.0 -20.4 -4.7 -16.35 8.7 -13.2 16.15 -10.9 21.45 -9.2 23.65 -4.7 29.3 -0.35 32.15 5.45 36.15 11.1 34.85 12.7 34.3 13.95 33.5 M-0.35 -16.4 L1.0 -12.05 M-11.4 0.2 Q-14.25 -0.8 -17.0 -6.1 L-20.4 -4.7" fill="none" stroke="#000000" stroke-linecap="round" stroke-linejoin="round" stroke-width="1.5"/>
    <path d="M-22.7 -33.65 Q-20.75 -28.7 -18.0 -24.75 -14.25 -19.3 -9.3 -16.15 -0.75 -10.5 0.4 -6.05 1.8 -8.0 1.0 -12.05 M13.95 33.5 Q17.3 31.35 18.7 26.45 19.4 23.4 19.25 20.45 L19.25 19.8 Q18.85 11.75 15.9 4.35 12.05 -4.5 4.65 -12.0 L-0.35 -16.4 3.0 -17.8 3.0 -17.9 Q14.25 -8.7 19.25 2.95 22.25 10.2 22.65 18.4 L22.65 19.0 Q22.75 22.0 22.15 25.0 20.2 31.6 14.45 33.45 L13.95 33.5 M-3.9 1.75 L-2.35 1.3 Q1.05 0.6 4.85 2.8 9.55 5.8 12.1 11.65 14.55 17.45 13.25 22.65 12.25 26.15 9.9 27.85 8.95 28.55 7.7 28.95 L2.5 28.8 Q0.85 28.25 -0.8 27.15 -5.15 24.1 -7.4 18.7 -8.5 16.2 -8.85 14.0 -9.25 11.1 -8.75 8.5 -7.85 3.35 -3.9 1.75" fill="none" stroke="#000000" stroke-linecap="round" stroke-linejoin="round" stroke-width="1.4000000000000001"/>
  </g>
</svg>
