<?xml version="1.0" encoding="UTF-8" standalone="no"?>
<svg xmlns:xlink="http://www.w3.org/1999/xlink" height="68.65px" width="45.35px" xmlns="http://www.w3.org/2000/svg">
  <g transform="matrix(1.0, 0.0, 0.0, 1.0, 22.7, 34.3)">
    <path d="M-20.4 -3.85 L-17.0 -5.25 Q-14.25 0.05 -11.4 1.05 L-10.85 1.7 Q-12.8 2.95 -14.55 2.55 -17.45 1.85 -20.4 -3.85 M1.0 -11.2 Q1.8 -7.15 0.4 -5.2 -0.75 -9.65 -9.3 -15.3 -14.25 -18.45 -18.0 -23.9 -20.75 -27.85 -22.7 -32.8 L-19.35 -34.3 Q-14.4 -22.2 -5.9 -16.7 -1.55 -13.9 1.0 -11.2 M3.0 -16.95 L3.0 -17.05 Q14.25 -7.85 19.25 3.8 22.25 11.05 22.65 19.25 L22.65 19.85 Q22.75 22.85 22.15 25.85 20.2 32.45 14.45 34.3 L13.95 34.35 Q17.3 32.2 18.7 27.3 19.4 24.25 19.25 21.3 L19.25 20.65 Q18.85 12.6 15.9 5.2 12.05 -3.65 4.65 -11.15 L-0.35 -15.55 3.0 -16.95 M12.1 12.5 Q14.55 18.3 13.25 23.5 12.25 27.0 9.9 28.7 8.95 29.4 7.7 29.8 L2.5 29.65 Q0.85 29.1 -0.8 28.0 -5.15 24.95 -7.4 19.55 -8.5 17.05 -8.85 14.85 -9.25 11.95 -8.75 9.35 -7.85 4.2 -3.9 2.6 L-2.35 2.15 Q1.05 1.45 4.85 3.65 9.55 6.65 12.1 12.5" fill="#27eebc" fill-rule="evenodd" stroke="none"/>
  </g>
</svg>
