<?xml version="1.0" encoding="UTF-8" standalone="no"?>
<svg xmlns:xlink="http://www.w3.org/1999/xlink" height="89.65px" width="190.5px" xmlns="http://www.w3.org/2000/svg">
  <g transform="matrix(1.0, 0.0, 0.0, 1.0, 95.25, 44.8)">
    <path d="M56.4 15.45 L56.65 15.95 56.35 15.5 56.4 15.45 M-39.4 24.7 L-39.4 24.75 -39.5 25.5 -39.4 24.7" fill="#4f2a6b" fill-rule="evenodd" stroke="none"/>
    <path d="M64.7 -38.35 Q70.9 -36.6 77.15 -32.35 79.9 -30.35 82.3 -28.05 86.2 -24.45 89.5 -20.05 93.4 -14.2 94.1 -8.2 94.6 -3.55 93.15 1.25 L92.9 2.2 92.85 2.5 92.1 4.55 91.3 6.1 88.95 9.25 88.7 9.5 86.7 11.7 Q82.55 15.7 81.0 20.1 79.7 23.7 80.15 27.65 81.35 30.75 83.85 34.6 77.25 33.15 71.3 25.9 62.05 15.15 65.2 7.75 67.1 3.65 68.0 0.6 L68.1 0.35 68.45 -0.7 68.6 -1.15 68.75 -1.7 68.95 -2.35 Q69.5 -4.05 69.65 -5.3 70.25 -9.3 67.75 -13.35 65.05 -17.3 60.55 -17.65 L57.15 -17.85 Q54.7 -18.6 56.6 -24.0 57.6 -33.7 51.0 -39.55 57.95 -40.35 64.7 -38.35 71.1 -32.3 66.75 -23.1 M94.1 -8.2 Q92.75 -5.65 84.0 -6.7 M82.3 -28.05 Q85.9 -22.75 78.5 -16.8 M88.95 9.25 Q86.75 6.1 78.9 8.1 M81.0 20.1 Q76.55 21.55 76.25 24.65 M-39.5 25.5 L-40.25 28.95 Q-41.5 33.85 -44.5 37.5 -47.65 41.0 -52.5 43.35 L-53.75 43.85 -52.7 41.8 Q-50.9 37.25 -50.8 33.35 -50.75 31.85 -50.95 30.45 -51.5 27.0 -53.1 24.75 -55.1 21.9 -58.8 20.85 L-65.85 19.0 -69.15 18.1 Q-81.75 14.6 -87.95 7.45 -92.75 2.0 -93.75 -5.6 -94.35 -8.85 -94.25 -11.9 -93.9 -23.65 -83.65 -32.1 L-80.0 -34.8 -79.1 -35.45 -78.65 -35.65 -78.6 -35.7 Q-73.6 -38.95 -69.1 -40.75 -57.8 -44.75 -50.55 -43.5 -42.65 -40.9 -44.3 -31.0 -45.35 -25.35 -48.2 -22.25 -51.1 -19.35 -55.75 -19.05 -65.65 -14.7 -63.45 -8.0 -62.55 -5.2 -61.25 -3.2 -60.25 -1.7 -59.0 -0.5 L-56.65 1.1 Q-52.8 3.15 -47.0 8.0 L-44.55 10.1 Q-40.85 13.35 -39.75 18.0 -39.05 21.1 -39.4 24.7 L-39.5 25.5 M-69.1 -40.75 Q-62.95 -40.6 -59.8 -35.65 -56.65 -30.65 -58.75 -23.0 M-83.65 -32.1 Q-73.6 -30.95 -68.1 -17.65 M-94.25 -11.9 Q-86.2 -14.0 -70.55 -8.8 M-50.8 33.35 Q-48.2 31.65 -45.95 33.7 M-65.85 19.0 Q-59.0 16.75 -58.1 11.15 M-53.1 24.75 Q-51.3 24.6 -47.65 20.7 M-87.95 7.45 Q-77.6 8.85 -68.85 2.9" fill="none" stroke="#000000" stroke-linecap="round" stroke-linejoin="round" stroke-width="2.0"/>
  </g>
</svg>
