<?xml version="1.0" encoding="UTF-8" standalone="no"?>
<svg xmlns:xlink="http://www.w3.org/1999/xlink" height="59.35px" width="125.7px" xmlns="http://www.w3.org/2000/svg">
  <g transform="matrix(1.0, 0.0, 0.0, 1.0, 62.85, 29.7)">
    <path d="M57.3 -17.1 L57.35 -17.35 58.35 -20.85 58.4 -21.4 58.7 -22.55 58.75 -23.0 Q58.75 -22.85 58.9 -22.85 60.15 -18.85 60.8 -14.8 65.05 7.4 52.4 26.85 51.45 28.85 48.3 28.65 L47.0 28.5 41.45 26.85 Q38.15 24.75 37.25 21.75 L36.95 19.8 Q36.85 18.1 37.45 16.1 51.4 3.7 57.2 -16.65 L57.3 -17.1 M-60.4 -19.9 Q-66.2 4.3 -48.8 25.45 -46.5 29.4 -33.75 25.45 -29.3 23.15 -28.0 19.95 -27.65 18.95 -27.6 17.8 -27.5 15.9 -28.25 13.75 -50.35 -1.8 -57.55 -28.7 L-57.7 -28.6 Q-59.35 -24.25 -60.4 -19.9" fill="none" stroke="#000000" stroke-linecap="round" stroke-linejoin="round" stroke-width="2.0"/>
  </g>
</svg>
