<?xml version="1.0" encoding="UTF-8" standalone="no"?>
<svg xmlns:xlink="http://www.w3.org/1999/xlink" height="48.85px" width="146.8px" xmlns="http://www.w3.org/2000/svg">
  <g transform="matrix(1.0, 0.0, 0.0, 1.0, 73.4, 24.45)">
    <path d="M13.8 -12.45 L8.45 -12.9 Q2.2 -14.85 -3.65 -12.6 L-4.9 -9.9 Q-6.05 -7.8 -7.5 -6.1 -9.1 -4.15 -11.05 -2.85 L-7.5 -0.5 -5.6 1.25 -2.2 3.6 Q0.6 4.05 3.25 3.55 L6.1 2.95 Q8.1 2.25 10.0 1.15 L10.9 0.5 12.7 -0.9 16.1 -4.05 17.3 -5.55 19.3 -8.3 20.55 -10.2 21.0 -10.95 21.1 -11.05 21.5 -11.95 14.45 -12.45 13.8 -12.45 M12.7 -0.9 L12.45 -0.2 12.25 0.2 12.7 0.2 12.75 0.25 13.25 0.45 Q15.4 1.35 20.15 6.05 21.9 7.35 23.65 8.2 25.85 9.3 28.15 9.7 31.75 10.5 35.75 9.65 L39.1 8.6 42.8 6.95 45.0 5.65 45.9 5.05 46.75 4.45 48.4 3.3 50.25 1.65 50.3 1.6 50.85 1.15 51.05 0.9 38.95 -4.05 38.9 -4.05 37.8 -4.9 37.45 -5.1 37.2 -5.2 Q34.5 -6.7 32.1 -7.25 26.15 -8.6 19.3 -5.7 L18.4 -5.2 Q17.1 -4.75 16.1 -4.05 M32.1 -7.25 Q34.85 -10.6 37.35 -15.35 L37.4 -15.4 37.8 -16.35 24.7 -16.55 Q15.9 -18.7 8.45 -12.9 M48.4 3.3 L49.7 4.3 50.1 4.3 Q52.95 4.3 56.0 3.0 L58.0 2.05 59.7 1.05 Q62.45 -0.85 65.45 -3.65 L65.5 -3.75 66.1 -4.25 57.0 -8.05 Q50.6 -13.0 42.05 -8.45 38.95 -7.05 37.9 -5.0 L37.45 -5.1 M35.75 9.65 Q41.25 22.85 61.1 23.4 L61.25 23.4 62.25 23.35 55.55 12.75 55.15 11.65 Q53.35 7.25 49.7 4.3 M55.15 11.65 Q60.95 14.95 71.65 11.05 L71.65 11.0 72.4 10.7 66.4 5.45 Q64.0 1.95 59.7 1.05 M28.15 9.7 L32.9 16.0 31.95 16.25 31.9 16.3 Q10.35 20.3 3.65 5.05 L3.25 3.55 M-11.05 -2.85 L-14.15 -4.0 -15.5 -1.7 -15.6 -1.5 -15.8 -1.25 -18.55 2.6 -19.85 4.05 -19.85 4.1 -22.05 6.1 -25.3 8.35 Q-14.25 19.6 4.35 9.3 L4.4 9.25 5.3 8.7 -2.2 3.6 M-37.6 -5.6 Q-36.25 -9.95 -35.85 -15.5 L-35.85 -15.6 -35.85 -16.55 -48.0 -11.55 Q-54.95 -10.4 -59.2 -5.15 L-57.85 -6.3 -57.7 -5.35 -57.7 -5.3 -57.55 -3.75 -57.5 -1.5 Q-57.5 2.05 -57.85 4.95 L-57.55 4.9 Q-54.2 3.9 -51.1 3.85 L-47.9 4.05 Q-47.3 2.6 -46.1 1.25 L-45.7 0.85 -44.4 -0.55 Q-41.15 -4.0 -37.6 -5.6 -33.8 -7.45 -29.55 -7.3 L-29.35 -7.9 Q-24.15 -18.5 -13.5 -19.45 L-1.0 -23.45 -1.0 -22.45 -1.0 -22.35 Q-1.95 -16.85 -3.65 -12.6 M-59.2 -5.15 L-64.45 -0.95 Q-70.55 1.25 -72.0 11.8 -72.9 17.05 -71.7 19.95 L-71.55 20.3 -71.4 20.1 -71.05 19.75 Q-69.8 18.8 -65.85 18.4 -62.45 17.2 -60.4 13.9 L-59.65 12.4 Q-58.9 10.7 -58.45 8.6 -58.1 7.4 -57.9 5.9 L-57.85 4.95 M-14.15 -4.0 L-13.15 -6.05 -13.1 -6.15 -12.95 -6.45 -12.7 -6.95 -12.7 -7.05 -25.85 -6.9 -28.55 -7.25 -29.55 -7.3 M-60.4 13.9 L-58.2 16.65 Q-45.95 28.05 -27.75 15.85 L-27.65 15.8 -26.85 15.1 -35.1 10.5 -39.0 9.9 Q-43.75 8.1 -46.25 7.6 L-47.6 7.45 -48.25 7.45 -48.6 7.6 -48.6 7.15 -48.6 6.95 -48.6 6.75 -48.6 6.55 Q-48.45 5.3 -47.9 4.05 M-35.1 10.5 Q-29.8 10.8 -25.3 8.35" fill="none" stroke="#000000" stroke-linecap="round" stroke-linejoin="round" stroke-width="2.0"/>
  </g>
</svg>
