<?xml version="1.0" encoding="UTF-8" standalone="no"?>
<svg xmlns:xlink="http://www.w3.org/1999/xlink" height="34.95px" width="95.7px" xmlns="http://www.w3.org/2000/svg">
  <g transform="matrix(1.0, 0.0, 0.0, 1.0, 47.85, 17.5)">
    <path d="M23.0 -14.45 Q32.95 -12.0 47.55 -4.2 L47.85 2.3 45.8 1.45 Q38.2 -1.75 24.6 -3.45 L23.0 -14.45 M47.55 14.1 L27.0 16.35 26.1 5.1 47.55 7.65 47.55 14.1 M1.15 4.05 Q1.5 12.6 0.75 17.45 L-1.8 17.1 Q-19.95 14.85 -46.0 15.2 L-47.55 8.35 1.15 4.05 M-0.9 -17.5 L1.1 -4.2 -0.6 -4.15 Q-20.15 -3.15 -47.85 2.3 L-47.85 -4.5 Q-23.25 -13.55 -0.9 -17.5" fill="#199c7b" fill-rule="evenodd" stroke="none"/>
  </g>
</svg>
