<?xml version="1.0" encoding="UTF-8" standalone="no"?>
<svg xmlns:xlink="http://www.w3.org/1999/xlink" height="51.25px" width="130.75px" xmlns="http://www.w3.org/2000/svg">
  <g transform="matrix(1.0, 0.0, 0.0, 1.0, 65.4, 25.6)">
    <path d="M14.95 -17.0 L13.25 -13.1 Q10.4 -7.0 5.1 -3.85 -6.1 1.5 -14.0 -0.45 L-15.2 -0.75 -17.3 -1.5 Q-19.35 -2.2 -22.4 -4.05 -25.55 -6.0 -26.85 -7.5 L-30.05 -11.05 -30.15 -13.35 -28.25 -14.15 Q-15.85 -19.5 -2.5 -20.6 6.95 -21.65 15.05 -20.2 15.6 -19.45 14.95 -17.0 M27.45 -20.4 L44.8 -15.45 Q53.8 -12.95 58.45 -8.9 L59.6 -7.5 59.75 -7.1 Q60.4 -5.5 59.85 -3.45 L57.9 -0.9 55.55 1.45 Q53.05 3.55 50.3 4.6 41.75 5.85 36.7 0.6 L34.55 -2.65 Q29.1 -11.2 25.8 -19.05 L27.45 -20.4 M-31.25 -1.8 Q-29.3 0.1 -26.85 1.8 -21.6 5.95 -10.9 6.9 1.45 4.95 14.6 -1.8 21.7 -3.5 27.85 -0.25 38.6 10.3 48.8 9.75 58.15 8.65 61.0 5.45 L62.5 3.65 Q66.25 -2.7 62.5 -9.45 L60.7 -10.8 Q50.45 -18.05 38.7 -21.1 21.35 -24.9 1.9 -24.6 -21.95 -21.75 -35.7 -13.9 L-36.75 -12.7 -36.7 -12.7 Q-35.55 -9.35 -30.55 -4.45 L-30.55 -4.35 -30.05 -3.9 -30.45 -2.35 -31.25 -1.8 -35.5 2.05 -36.55 2.15 -36.9 1.85 -37.15 1.7 Q-56.55 16.85 -63.8 24.65 -65.3 23.4 -62.9 13.85 -59.05 6.85 -52.05 0.8 -47.9 -2.8 -42.6 -6.15 L-42.85 -7.25 -40.8 -8.85 -40.3 -9.15 -40.15 -9.2 -40.1 -9.3 -40.35 -9.95 -39.05 -11.65 Q-38.8 -12.1 -38.15 -12.25 L-38.05 -12.25 -37.85 -12.35 -36.9 -12.65 -36.75 -12.7 M-42.6 -6.15 Q-41.65 -2.3 -38.2 0.75 L-38.2 0.8 -37.15 1.7" fill="none" stroke="#000000" stroke-linecap="round" stroke-linejoin="round" stroke-width="2.0"/>
    <path d="M17.7 -9.75 L21.6 -20.75 25.15 -9.75 Q20.75 -10.7 17.7 -9.75" fill="none" stroke="#000000" stroke-linecap="round" stroke-linejoin="round" stroke-width="1.4000000000000001"/>
  </g>
</svg>
