<?xml version="1.0" encoding="UTF-8" standalone="no"?>
<svg xmlns:xlink="http://www.w3.org/1999/xlink" height="58.7px" width="106.7px" xmlns="http://www.w3.org/2000/svg">
  <g transform="matrix(1.0, 0.0, 0.0, 1.0, 53.35, 29.35)">
    <path d="M46.45 12.25 Q45.6 14.7 46.0 17.65 53.1 23.45 53.35 26.8 53.55 30.1 48.0 28.85 42.4 27.6 42.0 18.3 L41.8 15.2 Q41.65 13.2 42.2 10.75 42.55 -9.45 32.65 -17.2 28.75 -20.2 21.3 -19.45 12.8 -17.55 3.75 3.35 -1.65 4.4 -4.4 1.25 4.25 -19.05 12.85 -24.75 20.85 -29.95 29.05 -27.3 37.2 -24.65 43.55 -14.2 49.9 -3.75 46.45 11.75 L46.45 12.25 M-53.35 1.5 Q-51.3 -19.75 -45.4 -25.25 -40.45 -31.65 -32.15 -28.1 -26.65 -25.85 -22.65 -15.9 -19.65 -8.5 -18.65 4.25 L-17.95 15.95 Q-13.85 21.25 -12.95 23.85 -12.05 26.45 -13.15 28.15 -16.9 31.0 -20.35 27.15 -23.85 23.2 -21.7 15.35 -26.4 -11.4 -29.8 -16.4 -33.25 -21.4 -37.7 -20.45 -42.2 -19.5 -45.3 2.85 -50.0 4.7 -53.35 1.5" fill="#f3de7e" fill-rule="evenodd" stroke="none"/>
  </g>
</svg>
