<?xml version="1.0" encoding="UTF-8" standalone="no"?>
<svg xmlns:xlink="http://www.w3.org/1999/xlink" height="75.85px" width="109.45px" xmlns="http://www.w3.org/2000/svg">
  <g transform="matrix(1.0, 0.0, 0.0, 1.0, 54.7, 37.95)">
    <path d="M6.3 29.1 Q6.25 21.7 17.1 -4.35 26.3 -20.7 39.65 -26.55 52.95 -32.45 53.65 -23.9 54.35 -15.4 49.5 -5.7 44.7 4.0 36.4 11.4 28.05 18.75 19.7 31.9 L18.35 33.5 Q14.3 39.0 9.9 35.6 6.35 34.25 6.3 29.1 M-36.8 33.55 Q-27.45 27.4 -24.65 0.75 -21.85 -25.9 -34.8 -36.85 -44.55 -38.25 -51.7 -13.7 -55.7 5.55 -51.65 20.95 -47.6 36.35 -44.2 36.05 -41.35 37.5 -39.25 36.05 -37.15 34.6 -36.8 33.55" fill="none" stroke="#000000" stroke-linecap="round" stroke-linejoin="round" stroke-width="2.0"/>
    <path d="M9.9 35.6 Q12.45 23.6 16.2 14.1 26.35 -8.8 38.25 -15.7 46.1 -19.5 43.85 -10.75 41.35 0.25 33.6 9.45 21.2 24.25 18.35 33.5 M-44.2 36.05 Q-48.25 -5.7 -38.9 -19.75 -35.25 -23.15 -32.65 -15.15 -28.65 8.7 -36.8 33.55" fill="none" stroke="#000000" stroke-linecap="round" stroke-linejoin="round" stroke-opacity="0.7490196" stroke-width="2.0"/>
  </g>
</svg>
