<?xml version="1.0" encoding="UTF-8" standalone="no"?>
<svg xmlns:xlink="http://www.w3.org/1999/xlink" height="73.0px" width="107.45px" xmlns="http://www.w3.org/2000/svg">
  <g transform="matrix(1.0, 0.0, 0.0, 1.0, 53.7, 36.5)">
    <path d="M-44.2 36.5 Q-47.6 36.8 -51.65 21.4 -55.7 6.0 -51.7 -13.25 -44.55 -37.8 -34.8 -36.4 -21.85 -25.45 -24.65 1.2 -27.45 27.85 -36.8 34.0 -28.65 9.15 -32.65 -14.7 -35.25 -22.7 -38.9 -19.3 -48.25 -5.25 -44.2 36.5 M9.9 36.05 Q6.35 34.7 6.3 29.55 6.25 22.15 17.1 -3.9 26.3 -20.25 39.65 -26.1 52.95 -32.0 53.65 -23.45 54.35 -14.95 49.5 -5.25 44.7 4.45 36.4 11.85 28.05 19.2 19.7 32.35 L18.35 33.95 Q21.2 24.7 33.6 9.9 41.35 0.7 43.85 -10.3 46.1 -19.05 38.25 -15.25 26.35 -8.35 16.2 14.55 12.45 24.05 9.9 36.05" fill="#384a72" fill-rule="evenodd" stroke="none"/>
  </g>
</svg>
