<?xml version="1.0" encoding="UTF-8" standalone="no"?>
<svg xmlns:xlink="http://www.w3.org/1999/xlink" height="45.0px" width="50.35px" xmlns="http://www.w3.org/2000/svg">
  <g transform="matrix(1.0, 0.0, 0.0, 1.0, 25.2, 22.5)">
    <path d="M4.3 -21.8 L4.25 -22.3 Q8.05 -22.65 11.4 -22.45 6.3 -3.75 10.05 10.8 10.25 8.35 12.7 8.45 15.45 8.55 14.95 13.95 L13.95 16.95 Q12.75 19.4 10.6 21.45 9.35 22.75 7.45 21.3 6.3 19.6 8.1 17.1 L2.65 16.65 Q-0.65 23.25 -3.9 21.8 -6.4 19.9 -1.8 15.8 L-2.4 15.65 Q-7.25 -3.45 -3.55 -17.65 L1.35 -17.65 Q4.4 -17.5 4.3 -21.8 M19.6 15.15 Q22.7 14.05 25.15 12.65 23.4 21.9 18.6 22.5 15.2 21.55 17.2 18.85 19.35 17.0 19.6 15.15 M-17.3 -7.75 Q-18.1 -4.95 -18.05 -1.95 -18.2 0.4 -17.65 2.5 -22.95 0.1 -25.2 -2.8 -20.65 -6.75 -17.3 -7.75 M-11.75 13.1 L-11.8 11.15 Q-11.5 8.35 -8.95 8.55 -5.05 8.75 -6.7 14.5 -10.3 23.4 -14.55 22.0 -16.25 20.0 -14.55 17.95 -11.85 15.85 -11.75 13.1" fill="#596676" fill-rule="evenodd" stroke="none"/>
  </g>
</svg>
