<?xml version="1.0" encoding="UTF-8" standalone="no"?>
<svg xmlns:xlink="http://www.w3.org/1999/xlink" height="39.25px" width="40.7px" xmlns="http://www.w3.org/2000/svg">
  <g transform="matrix(1.0, 0.0, 0.0, 1.0, 20.35, 19.65)">
    <path d="M8.75 -19.65 Q7.95 -18.6 7.55 -17.35 7.15 -16.1 7.15 -14.7 7.15 -11.25 9.6 -8.8 12.1 -6.3 15.55 -6.3 18.25 -6.3 20.35 -7.8 18.7 -4.6 17.1 -2.7 15.45 -0.9 14.2 -0.15 L13.4 0.2 Q11.5 0.85 9.3 0.85 L8.1 0.8 Q4.25 0.45 1.45 -2.15 -1.15 -4.6 -1.65 -7.95 L-1.75 -9.45 -1.45 -11.85 Q-1.0 -13.7 0.2 -15.3 L2.3 -16.95 Q4.1 -18.35 8.75 -19.65 M-18.15 -1.95 L-15.05 -5.0 Q-12.85 -6.75 -9.5 -7.0 L-9.45 -7.0 Q-9.95 -5.35 -9.95 -3.45 -9.95 1.8 -6.3 5.45 -2.6 9.15 2.6 9.15 6.25 9.15 9.1 7.4 7.65 12.0 5.95 14.0 L3.05 16.95 Q-0.15 19.6 -5.55 19.6 -11.7 19.6 -16.0 15.45 -20.35 11.35 -20.35 5.45 -20.35 1.5 -18.35 -1.6 L-18.15 -1.95" fill="#e054a1" fill-rule="evenodd" stroke="none"/>
  </g>
</svg>
