<?xml version="1.0" encoding="UTF-8" standalone="no"?>
<svg xmlns:xlink="http://www.w3.org/1999/xlink" height="30.65px" width="31.05px" xmlns="http://www.w3.org/2000/svg">
  <g transform="matrix(1.0, 0.0, 0.0, 1.0, 15.55, 15.3)">
    <path d="M-9.55 3.5 Q-15.0 4.8 -14.9 -4.05 L-15.35 -6.65 Q-17.05 -18.95 -5.75 -11.85 L-1.65 -9.0 1.45 -8.95 Q14.85 -22.2 15.0 -7.85 L14.9 -5.85 14.85 -5.25 Q17.7 6.55 7.8 2.3 L11.3 7.15 12.3 9.0 Q12.55 9.85 12.45 10.6 12.1 13.0 7.6 14.0 L5.95 14.25 1.3 14.75 Q0.5 11.5 0.25 -0.95 L-0.6 -0.9 Q-0.45 6.1 -1.5 12.15 -1.8 14.3 -3.3 15.0 -4.7 15.7 -6.95 15.05 L-9.1 14.3 -12.2 12.75 Q-11.7 8.1 -9.55 3.5" fill="#489fbf" fill-rule="evenodd" stroke="none"/>
  </g>
</svg>
