<?xml version="1.0" encoding="UTF-8" standalone="no"?>
<svg xmlns:xlink="http://www.w3.org/1999/xlink" height="83.15px" width="53.2px" xmlns="http://www.w3.org/2000/svg">
  <g transform="matrix(1.0, 0.0, 0.0, 1.0, -2.7, 98.15)">
    <path d="M55.9 -98.15 L36.95 -48.05 38.45 -62.45 42.95 -79.05 55.9 -98.15 M38.5 -68.2 Q38.5 -67.8 38.2 -67.55 37.95 -67.25 37.5 -67.25 37.05 -67.25 36.75 -67.55 36.5 -67.8 36.5 -68.25 L36.75 -68.95 37.5 -69.2 38.2 -68.95 38.5 -68.2 M33.6 -49.0 Q33.6 -48.4 33.2 -48.05 32.85 -47.7 32.25 -47.7 31.7 -47.7 31.3 -48.05 30.95 -48.4 30.95 -49.0 30.95 -49.55 31.3 -49.95 31.7 -50.3 32.25 -50.3 L33.2 -49.95 Q33.6 -49.55 33.6 -49.0 M31.4 -43.95 Q31.4 -43.55 31.05 -43.25 30.75 -42.9 30.3 -42.9 29.85 -42.9 29.55 -43.25 29.25 -43.55 29.25 -44.0 29.25 -44.4 29.55 -44.7 L30.3 -45.0 Q30.75 -45.0 31.05 -44.7 L31.4 -43.95 M23.3 -40.15 Q23.3 -39.55 22.9 -39.15 22.5 -38.75 21.9 -38.75 21.35 -38.75 20.9 -39.15 20.5 -39.55 20.5 -40.15 20.5 -40.7 20.9 -41.1 21.35 -41.5 21.9 -41.5 22.5 -41.5 22.9 -41.1 23.3 -40.7 23.3 -40.15 M17.4 -31.25 L34.8 -42.35 29.55 -28.45 17.4 -31.25 3.15 -17.55 Q2.75 -18.75 2.7 -20.0 L18.3 -42.9 17.4 -31.25 M20.2 -20.9 L20.0 -20.4 Q19.8 -20.2 19.45 -20.2 19.15 -20.2 18.95 -20.4 18.8 -20.6 18.8 -20.9 L18.95 -21.4 19.45 -21.55 20.0 -21.4 20.2 -20.9 M15.1 -17.25 Q15.1 -16.3 14.4 -15.65 13.75 -15.0 12.8 -15.0 11.85 -15.0 11.15 -15.65 10.5 -16.3 10.5 -17.25 10.5 -18.15 11.15 -18.8 11.85 -19.45 12.8 -19.45 13.75 -19.45 14.4 -18.8 15.1 -18.15 15.1 -17.25" fill="#ffffff" fill-opacity="0.6784314" fill-rule="evenodd" stroke="none"/>
  </g>
</svg>
