<?xml version="1.0" encoding="UTF-8" standalone="no"?>
<svg xmlns:xlink="http://www.w3.org/1999/xlink" height="69.05px" width="57.3px" xmlns="http://www.w3.org/2000/svg">
  <g transform="matrix(1.0, 0.0, 0.0, 1.0, 1.0, 34.55)">
    <path d="M22.35 -29.65 Q28.4 -35.5 36.2 -32.6 33.15 -28.25 34.15 -27.3 35.4 -26.35 39.9 -31.0 44.9 -29.2 47.1 -24.65 36.7 -17.1 49.05 -21.1 53.5 -16.35 53.0 -7.0 38.05 -12.1 51.7 -4.2 52.35 0.7 48.9 5.25 52.5 8.35 53.15 15.25 52.8 18.25 50.9 19.7 53.6 23.6 52.4 27.5 55.75 29.15 55.2 30.8 L51.6 30.8 52.1 32.05 Q48.05 34.0 44.75 30.1 42.2 31.65 38.3 31.75 32.65 31.9 29.0 30.6 L30.05 32.8 Q27.8 34.25 23.25 32.8 L22.15 30.95 14.4 30.95 Q11.5 31.35 14.4 27.65 6.25 19.1 10.15 14.1 10.8 13.55 11.6 13.4 8.3 3.05 9.8 -5.85 7.4 -7.35 10.0 -8.9 16.15 -11.1 16.05 -12.45 14.05 -13.45 12.05 -12.45 6.55 -8.85 3.8 -10.95 -1.05 -14.8 0.3 -20.8 1.05 -22.95 8.25 -21.85 13.95 -20.8 13.7 -23.05 13.6 -24.7 6.15 -25.7 -1.55 -27.3 6.6 -29.5 12.75 -30.55 17.3 -29.55 L22.35 -29.65 Q29.25 -25.8 33.65 -21.7 L37.25 -24.05 M9.8 -5.85 Q10.4 -5.45 11.3 -5.05 L13.45 -3.95 16.95 -2.45 Q17.75 -6.4 21.2 -9.5 M16.95 -2.45 Q20.3 -1.2 24.0 -0.35 28.5 -10.85 32.95 -10.8 34.4 -10.8 28.4 0.1 34.05 0.2 42.95 3.1 L47.5 4.7 Q45.45 -0.55 41.65 -5.8 M17.3 -29.55 Q21.3 -28.65 24.15 -26.25 L27.8 -22.7 Q33.8 -16.6 38.15 -10.5 42.15 -4.85 40.65 -11.7 38.9 -16.9 33.65 -21.7 M16.75 -24.65 L27.8 -22.7 M50.9 19.7 L49.2 20.55 48.8 23.7 51.6 30.8 M48.9 5.25 L47.5 4.7 M44.0 9.95 L43.45 7.0 M48.8 23.7 Q47.9 28.05 44.75 30.1 M27.25 7.45 Q27.75 6.35 28.4 5.5 22.6 5.45 17.8 15.25 L16.15 14.35 Q13.45 13.0 11.6 13.4 M35.9 10.7 L35.35 7.6 M28.4 5.5 Q31.3 1.45 36.8 3.5 L42.95 3.1 M27.95 20.85 L27.95 28.35 29.0 30.6 M22.15 30.95 Q19.55 26.35 18.85 20.7 M37.7 12.6 Q40.95 13.95 42.55 12.6 M16.15 14.35 Q12.95 5.75 13.45 -3.95" fill="none" stroke="#000000" stroke-linecap="round" stroke-linejoin="round" stroke-width="2.0"/>
  </g>
</svg>
