<?xml version="1.0" encoding="UTF-8" standalone="no"?>
<svg xmlns:xlink="http://www.w3.org/1999/xlink" height="84.25px" width="48.35px" xmlns="http://www.w3.org/2000/svg">
  <g transform="matrix(1.0, 0.0, 0.0, 1.0, 24.2, 42.15)">
    <path d="M9.3 -25.25 Q9.3 -27.85 7.8 -29.7 6.25 -31.6 4.15 -31.6 2.0 -31.6 0.45 -29.7 -1.05 -27.85 -1.05 -25.25 -1.05 -22.6 0.45 -20.75 2.0 -18.9 4.15 -18.9 6.25 -18.9 7.8 -20.75 9.3 -22.6 9.3 -25.25 M3.7 -39.55 Q14.05 -29.3 20.6 -11.95 L22.0 -8.1 Q23.7 -2.85 24.15 1.15 22.15 14.95 12.45 27.35 2.8 39.75 -8.35 42.1 L-10.95 41.95 Q-18.75 41.3 -23.0 37.1 -26.65 26.0 -19.35 -4.6 -17.45 -10.85 -15.35 -16.2 L-14.7 -17.8 Q-8.0 -34.15 0.9 -42.15 L3.7 -39.55 M-10.3 25.05 Q-6.1 32.4 3.45 29.4 11.45 26.7 16.05 19.7 18.7 15.4 20.5 9.55 21.9 0.95 18.15 -6.4 15.4 -10.2 12.15 -11.95 7.7 -14.35 2.2 -12.85 L0.45 -11.95 Q-7.2 -7.55 -10.3 4.6 -12.6 15.15 -10.3 25.05" fill="#4a4949" fill-rule="evenodd" stroke="none"/>
  </g>
</svg>
