<?xml version="1.0" encoding="UTF-8" standalone="no"?>
<svg xmlns:xlink="http://www.w3.org/1999/xlink" height="124.25px" width="153.0px" xmlns="http://www.w3.org/2000/svg">
  <g transform="matrix(1.0, 0.0, 0.0, 1.0, 76.5, 62.15)">
    <path d="M25.05 -32.6 Q27.85 -44.7 31.65 -54.05 35.45 -63.5 39.35 -60.35 43.15 -57.25 44.75 -46.85 46.65 -34.4 49.75 -28.6 58.0 -25.8 60.25 -16.7 63.15 -4.8 60.0 7.7 59.5 14.45 68.45 11.3 L69.9 11.15 Q73.65 10.8 75.25 15.05 L75.5 16.0 75.35 18.7 74.1 24.1 Q68.15 40.9 58.3 54.3 53.0 63.4 45.0 60.35 28.1 51.05 20.7 38.4 7.1 27.85 2.7 17.85 L2.3 16.7 -11.0 24.45 Q-23.05 30.8 -34.35 27.0 -44.05 22.5 -55.4 27.25 -71.1 35.05 -75.5 46.3 -74.4 28.4 -53.9 14.5 L-50.45 12.25 Q-66.2 11.1 -74.4 1.25 -74.35 1.25 -74.25 1.35 -51.55 4.55 -29.8 -5.7 -17.25 -11.5 -13.8 -8.85 -5.45 -3.8 -1.5 -2.65 L-0.1 -2.3 -0.5 -14.85 Q-0.55 -32.0 2.7 -46.0 L2.7 -46.1 Q2.75 -57.55 9.0 -53.9 17.45 -47.9 24.1 -36.95 L25.05 -32.6 25.55 -29.15 25.85 -24.35 25.65 -19.8 M-29.25 10.65 Q-31.55 9.9 -33.8 9.5 -42.7 7.9 -50.45 12.25 M-0.1 -2.3 Q0.65 10.3 2.3 16.7" fill="none" stroke="#000000" stroke-linecap="round" stroke-linejoin="round" stroke-width="2.0"/>
    <path d="M44.65 -4.4 Q51.4 -2.0 52.75 2.8 49.7 3.8 41.35 1.5 36.95 -2.65 31.8 -3.45 39.8 -5.2 44.65 -4.4 M69.9 11.15 Q67.05 13.95 69.6 17.05 73.35 19.6 75.5 16.0 M54.4 10.3 Q49.6 17.5 38.25 16.2 30.25 12.95 24.55 13.95 32.1 9.45 40.15 10.8 50.0 12.55 54.4 10.3" fill="none" stroke="#000000" stroke-linecap="round" stroke-linejoin="round" stroke-width="1.4000000000000001"/>
  </g>
</svg>
