<?xml version="1.0" encoding="UTF-8" standalone="no"?>
<svg xmlns:xlink="http://www.w3.org/1999/xlink" height="86.6px" width="194.25px" xmlns="http://www.w3.org/2000/svg">
  <g transform="matrix(1.0, 0.0, 0.0, 1.0, 97.15, 43.3)">
    <path d="M22.2 -26.95 L20.45 -26.45 19.6 -26.7 Q19.35 -27.1 19.65 -27.65 20.0 -28.5 20.9 -29.0 22.0 -29.95 23.3 -30.15 24.75 -30.4 24.85 -29.85 25.05 -29.35 24.15 -28.35 23.35 -27.6 22.2 -26.95 M88.0 -34.55 Q82.35 -38.15 66.5 -36.9 L52.5 -35.25 44.4 -33.9 28.4 -30.6 Q42.15 -38.15 45.9 -38.4 47.65 -38.55 47.25 -37.05 L54.2 -38.7 64.1 -40.7 66.5 -41.1 75.95 -42.15 Q89.25 -43.05 94.2 -38.8 95.4 -37.75 96.1 -36.4 95.65 -33.35 89.95 -32.75 L88.0 -34.55 M23.85 -24.95 Q41.5 -30.0 56.45 -31.9 L66.5 -32.85 71.8 -32.9 Q80.15 -33.15 84.85 -32.0 93.55 -29.8 89.9 -22.7 87.25 -17.4 80.45 -9.75 L78.55 -7.65 Q74.45 -3.2 68.75 1.8 L66.65 3.25 66.5 3.35 Q60.9 6.85 63.8 1.9 L64.15 1.4 66.5 -1.5 70.6 -6.0 74.35 -9.8 67.5 -5.2 67.2 -5.05 66.5 -4.65 57.6 0.4 Q51.35 3.7 43.9 7.1 L36.95 10.1 Q26.6 14.4 14.75 18.6 -17.95 29.85 -43.05 32.95 L-56.25 33.8 Q-62.85 33.75 -72.1 31.2 L-73.35 30.85 Q-82.3 26.2 -71.4 16.15 L-66.1 12.15 -60.45 7.95 -57.65 5.9 -42.95 -4.35 Q-35.55 -9.3 -30.65 -11.9 -25.9 -14.5 -22.85 -15.4 L-20.1 -16.0 Q-17.5 -14.75 -26.85 -9.35 -28.25 -8.55 -29.9 -7.7 L-31.5 -6.85 -20.75 -11.3 -25.35 -6.9 Q-37.6 -1.3 -47.85 4.95 L-51.3 7.1 -51.6 7.3 Q-61.85 13.85 -66.15 18.85 L-67.05 20.0 -67.5 20.65 Q-70.0 24.3 -69.0 27.05 -68.0 29.35 -65.15 30.45 -58.75 32.95 -42.7 30.95 -18.85 27.95 12.65 16.7 24.75 12.35 35.3 7.75 L42.05 4.7 Q49.65 1.15 56.3 -2.55 L64.95 -7.65 65.05 -7.75 66.5 -8.7 Q69.55 -10.65 72.0 -12.45 L75.05 -14.8 76.65 -16.15 Q80.3 -19.3 82.1 -21.95 84.35 -25.45 83.45 -28.05 L82.6 -29.5 Q80.05 -32.55 71.8 -32.9 M57.25 8.8 L54.85 11.0 52.9 12.2 51.7 12.15 Q51.35 11.85 51.8 11.0 52.25 10.0 53.4 9.05 54.75 7.7 56.35 7.0 L58.15 6.95 Q58.3 7.5 57.25 8.8 M4.05 30.2 L-1.7 32.05 -2.6 32.3 Q-7.35 33.45 -12.05 33.3 -14.7 33.15 -14.1 32.5 -13.25 31.5 -9.45 29.9 -5.65 28.3 -0.8 26.9 L-0.7 26.9 6.35 24.95 9.45 24.2 Q13.95 23.2 14.1 23.6 14.5 25.15 9.3 27.8 6.8 29.1 4.05 30.2 M-37.55 -3.8 L-31.7 -6.7 -31.5 -6.85 M-15.3 -19.35 Q-12.05 -24.25 -24.2 -18.6 3.9 -33.4 -15.3 -19.35 L-15.45 -19.2 -15.85 -18.9 M-22.4 32.85 Q-21.1 32.2 -19.8 32.35 -18.3 32.55 -18.4 33.0 -18.35 33.6 -19.45 34.35 L-21.7 35.15 -23.5 35.2 -24.3 34.8 Q-24.4 34.3 -24.0 33.8 -23.4 33.1 -22.4 32.85 M-78.0 19.5 L-80.4 21.7 -82.35 22.9 -83.5 22.85 Q-83.9 22.55 -83.45 21.7 -83.0 20.7 -81.85 19.75 -80.45 18.35 -78.9 17.7 L-77.05 17.65 Q-76.9 18.2 -78.0 19.5 M-53.8 39.3 Q-56.1 42.15 -49.2 40.6 L-47.8 40.25 -46.3 39.85 Q-39.1 37.6 -36.95 33.8 -42.4 35.7 -48.05 36.7 L-53.0 37.5 Q-61.0 38.4 -69.4 37.75 L-78.1 36.55 -84.15 35.25 Q-90.75 33.8 -87.15 29.7 -90.55 30.0 -92.3 30.85 -94.8 31.95 -95.6 33.6 -96.4 35.15 -96.05 37.3 -95.8 38.85 -94.3 39.95 -89.4 43.5 -71.15 41.7 L-69.75 41.55 -53.8 39.3" fill="none" stroke="#3a6771" stroke-linecap="round" stroke-linejoin="round" stroke-width="2.0"/>
    <path d="M4.05 30.2 L3.7 30.85 M-53.8 39.3 L-53.05 39.15" fill="none" stroke="#3a6771" stroke-linecap="round" stroke-linejoin="round" stroke-width="0.5"/>
  </g>
</svg>
