<?xml version="1.0" encoding="UTF-8" standalone="no"?>
<svg xmlns:xlink="http://www.w3.org/1999/xlink" height="151.05px" width="136.7px" xmlns="http://www.w3.org/2000/svg">
  <g transform="matrix(1.0, 0.0, 0.0, 1.0, 68.35, 75.5)">
    <path d="M-43.1 44.6 Q-49.4 35.7 -59.65 26.85 L-67.35 20.55 Q-64.2 43.65 -49.45 51.45 -24.75 71.2 10.6 74.15 30.0 76.4 43.2 65.8 L43.7 65.45 46.8 62.55 50.25 58.9 Q59.6 48.0 63.15 32.35 68.2 9.95 61.35 -22.25 55.45 -51.5 37.8 -71.55 29.25 -51.9 25.0 -32.45 30.9 -31.45 37.0 -29.5 M63.15 32.35 L67.35 26.35 Q65.7 41.75 57.7 53.4 52.25 61.3 43.7 65.45 M-59.65 26.85 Q-62.15 1.75 -51.9 -21.45 -51.75 -51.15 -39.3 -74.5 -18.0 -57.95 -7.45 -31.35 8.05 -35.5 25.0 -32.45" fill="none" stroke="#83846f" stroke-linecap="round" stroke-linejoin="round" stroke-width="2.0"/>
  </g>
</svg>
