<?xml version="1.0" encoding="UTF-8" standalone="no"?>
<svg xmlns:xlink="http://www.w3.org/1999/xlink" height="41.15px" width="28.95px" xmlns="http://www.w3.org/2000/svg">
  <g transform="matrix(1.0, 0.0, 0.0, 1.0, 14.5, 20.55)">
    <path d="M12.65 -12.1 L12.25 -11.95 11.9 -11.85 11.65 -11.75 Q9.45 -11.25 6.45 -12.25 M-12.25 -14.5 L-11.05 -14.7 -10.7 -14.7 -8.2 -14.7 -4.05 -14.15" fill="none" stroke="#000000" stroke-linecap="round" stroke-linejoin="round" stroke-width="1.0"/>
    <path d="M-11.2 -9.25 L-11.85 -9.4 Q-12.75 -9.8 -13.0 -10.35 L-13.05 -10.4 Q-14.0 -12.55 -12.95 -14.45 -14.5 -17.0 -10.0 -19.55 -8.55 -18.55 1.2 -16.95 L12.75 -16.2 Q14.05 -13.1 12.9 -12.0 13.4 -7.5 11.65 -7.0 L11.65 -6.75 11.55 -6.75 11.1 0.55 Q10.5 7.1 9.9 10.9 L9.65 12.25 Q8.2 19.85 -0.35 19.6 -9.75 18.45 -11.05 13.4 L-12.0 8.75 Q-12.6 4.85 -12.05 -1.35 L-11.65 -4.85 -11.2 -9.25 Q-9.15 -8.85 -4.7 -9.35 1.7 -10.2 11.55 -6.75" fill="none" stroke="#000000" stroke-linecap="round" stroke-linejoin="round" stroke-width="2.0"/>
  </g>
</svg>
