<?xml version="1.0" encoding="UTF-8" standalone="no"?>
<svg xmlns:xlink="http://www.w3.org/1999/xlink" height="72.65px" width="58.9px" xmlns="http://www.w3.org/2000/svg">
  <g transform="matrix(1.0, 0.0, 0.0, 1.0, 29.45, 36.3)">
    <path d="M16.55 -18.65 Q23.0 -10.85 23.0 0.05 23.0 11.05 16.55 18.8 10.15 26.55 1.1 26.55 -7.95 26.55 -14.4 18.8 -20.75 11.05 -20.75 0.05 -20.75 -10.85 -14.4 -18.65 -7.95 -26.35 1.1 -26.35 10.15 -26.35 16.55 -18.65 M10.0 -6.9 L3.65 -24.95 -3.95 -7.05 -19.05 -4.6 -5.45 4.0 -9.1 21.6 3.6 9.7 15.1 20.4 12.9 3.2 21.85 -4.85 10.0 -6.9 M20.05 25.0 Q11.8 35.35 -0.05 35.35 -11.8 35.35 -20.2 25.0 -28.45 14.7 -28.45 0.05 -28.45 -14.6 -20.2 -25.0 -11.8 -35.3 -0.05 -35.3 11.8 -35.3 20.05 -25.0 28.45 -14.6 28.45 0.05 28.45 14.7 20.05 25.0" fill="none" stroke="#000000" stroke-linecap="round" stroke-linejoin="round" stroke-width="2.0"/>
  </g>
</svg>
