<?xml version="1.0" encoding="UTF-8" standalone="no"?>
<svg xmlns:xlink="http://www.w3.org/1999/xlink" height="70.6px" width="38.95px" xmlns="http://www.w3.org/2000/svg">
  <g transform="matrix(1.0, 0.0, 0.0, 1.0, 0.0, 0.0)">
    <path d="M12.35 5.6 Q10.5 5.6 9.15 6.9 7.8 8.25 7.8 10.1 7.8 12.0 9.15 13.3 10.5 14.65 12.35 14.65 14.2 14.65 15.5 13.3 16.85 12.0 16.85 10.1 16.85 8.25 15.5 6.9 14.2 5.6 12.35 5.6 M11.45 0.0 Q22.65 0.4 30.55 10.25 38.95 20.65 38.95 35.3 38.95 49.95 30.55 60.25 22.3 70.6 10.45 70.6 L8.25 70.5 Q21.45 62.55 24.0 51.9 27.55 34.35 14.9 34.4 6.5 33.65 2.25 26.25 -5.1 13.2 11.45 0.0 M12.35 52.85 Q14.2 52.85 15.5 54.15 16.85 55.5 16.85 57.35 16.85 59.25 15.5 60.55 14.2 61.9 12.35 61.9 10.5 61.9 9.15 60.55 7.8 59.25 7.8 57.35 7.8 55.5 9.15 54.15 10.5 52.85 12.35 52.85" fill="#ffffff" fill-rule="evenodd" stroke="none"/>
  </g>
</svg>
