<?xml version="1.0" encoding="UTF-8" standalone="no"?>
<svg xmlns:xlink="http://www.w3.org/1999/xlink" height="88.35px" width="62.85px" xmlns="http://www.w3.org/2000/svg">
  <g transform="matrix(1.0, 0.0, 0.0, 1.0, 1.0, 1.0)">
    <path d="M30.55 3.85 Q37.05 3.6 41.65 6.5 L42.4 9.0 44.3 8.45 Q50.8 13.3 54.95 21.95 L54.35 23.65 55.9 24.1 Q58.15 31.2 58.55 38.7 L57.6 39.75 58.4 41.0 Q58.3 50.25 56.2 58.65 L54.8 59.6 55.35 61.3 Q53.0 69.0 47.5 76.3 L45.9 76.2 46.0 77.8 Q42.5 80.95 37.95 82.7 33.1 83.8 28.9 82.8 L28.65 81.15 26.95 82.2 Q18.95 78.1 14.4 71.1 L14.65 68.9 12.65 68.7 Q7.8 60.3 5.45 49.65 L6.35 47.85 6.25 47.85 4.7 47.0 Q3.4 38.05 4.85 29.05 L6.95 28.15 5.75 26.35 Q9.25 15.6 16.45 9.45 L18.85 9.85 19.1 7.15 Q23.65 3.85 30.55 3.85 M40.3 15.5 L40.4 16.65 45.15 23.5 46.0 24.15 52.8 23.5 53.35 22.0 Q50.1 15.5 44.3 10.2 L42.95 10.75 40.3 15.5 M38.45 14.65 L41.0 9.75 40.5 7.7 Q35.65 5.9 30.75 5.85 25.7 6.15 20.75 8.35 L20.55 10.55 24.45 15.45 25.25 16.05 37.75 15.35 38.45 14.65 M41.45 33.55 L41.5 35.05 45.8 40.5 47.05 40.85 56.4 39.4 57.25 37.8 Q56.8 31.25 54.8 25.6 L52.85 24.95 46.15 25.65 45.3 26.35 41.45 33.55 M23.85 46.5 L28.95 53.75 30.4 54.0 39.7 52.25 41.0 51.45 44.2 43.15 44.05 40.4 40.0 35.9 38.75 35.4 28.2 36.8 26.95 37.65 23.4 43.55 23.85 46.5 M42.6 52.05 L42.65 53.3 46.75 59.55 47.65 60.15 53.8 58.75 55.25 57.75 Q57.0 49.75 57.0 42.1 L56.05 40.95 46.95 42.5 46.0 43.45 42.6 52.05 M37.7 17.05 L25.75 17.85 24.95 18.7 20.7 26.5 20.85 27.6 26.3 34.2 27.7 34.95 38.9 33.55 39.95 32.5 43.6 25.4 43.55 24.4 38.5 17.75 37.7 17.05 M18.5 11.8 L16.85 11.4 Q10.6 18.0 7.9 26.0 L8.95 27.6 17.75 26.8 18.55 25.95 22.7 17.8 22.55 16.6 18.5 11.8 M6.75 30.55 Q5.35 37.7 6.35 45.45 L7.9 46.95 20.1 45.05 21.45 44.25 25.15 37.2 24.9 35.65 19.0 29.05 17.9 28.45 9.25 29.3 6.75 30.55 M7.65 50.35 Q9.45 59.05 13.65 67.1 L15.75 67.45 23.45 65.7 24.3 64.6 27.55 56.3 27.4 55.0 21.8 47.45 20.55 46.8 8.8 48.55 7.65 50.35 M40.15 54.0 L30.3 56.0 29.3 56.8 25.9 65.65 26.0 66.7 31.3 72.6 32.45 73.1 41.3 70.8 42.15 69.8 45.7 62.1 45.65 61.1 41.2 54.4 40.15 54.0 M32.6 74.5 L31.45 75.3 29.7 80.25 29.85 81.6 37.8 81.2 Q41.65 79.9 44.95 77.2 L44.85 75.95 42.5 72.35 41.35 72.2 32.6 74.5 M29.85 74.85 L29.65 73.7 24.7 67.85 23.25 67.8 16.8 69.35 16.3 71.0 Q21.3 78.0 26.85 80.4 L28.25 79.5 29.85 74.85 M43.85 71.15 L45.95 74.55 47.2 74.65 Q51.25 69.95 53.95 61.95 L53.35 60.75 48.15 61.95 46.95 62.6 43.8 70.05 43.85 71.15" fill="#000000" fill-rule="evenodd" stroke="none"/>
    <path d="M3.4 48.5 L2.15 51.4 Q4.9 61.25 10.25 70.75 L12.7 70.95 12.1 73.6 Q17.4 80.8 25.35 84.6 L27.65 83.55 28.5 86.1 Q33.15 86.75 38.15 85.55 42.95 83.7 46.85 80.55 L47.15 77.85 49.15 77.6 Q54.55 70.6 57.25 62.55 L56.5 60.55 58.15 59.5 Q60.4 50.15 60.85 41.6 L59.6 39.6 60.85 37.75 Q61.0 30.0 58.1 23.1 L56.5 22.35 57.2 20.25 Q53.3 10.7 46.15 5.5 L43.45 6.25 42.9 3.4 Q37.8 -0.05 32.25 0.0 L30.15 0.1 28.05 0.0 Q22.0 0.0 17.0 3.85 L16.95 6.95 13.45 6.3 Q5.35 12.9 2.1 24.8 L3.5 27.15 1.35 28.45 Q-1.15 37.6 1.05 46.85 L3.2 48.35" fill="none" stroke="#000000" stroke-linecap="round" stroke-linejoin="round" stroke-width="2.0"/>
  </g>
</svg>
