<?xml version="1.0" encoding="UTF-8" standalone="no"?>
<svg xmlns:xlink="http://www.w3.org/1999/xlink" height="157.95px" width="168.8px" xmlns="http://www.w3.org/2000/svg">
  <g transform="matrix(1.0, 0.0, 0.0, 1.0, 84.4, 78.95)">
    <path d="M35.25 -69.35 Q42.55 -75.5 57.15 -76.75 L83.8 -78.95 83.8 -78.9 Q73.3 -55.35 62.75 -49.6 66.45 -44.6 70.4 -37.9 75.1 -29.25 77.6 -23.3 80.1 -17.35 82.75 0.15 L83.15 3.2 Q84.7 15.4 84.3 29.05 81.0 42.4 59.55 55.3 44.4 65.75 30.1 69.45 L23.15 79.0 Q18.35 69.6 22.8 64.6 47.35 56.95 60.9 46.5 74.35 36.05 75.0 21.2 L75.0 21.15 Q73.9 11.65 71.15 3.2 L69.2 -2.15 Q64.9 -9.6 55.45 -16.0 44.1 -21.05 35.7 -23.95 27.3 -26.9 20.5 -31.85 10.85 -25.0 -11.45 -21.85 -34.85 -13.75 -43.45 0.05 L-44.8 3.2 Q-51.1 19.45 -48.15 37.8 L-48.1 37.85 Q-37.95 46.35 -15.95 54.7 6.0 63.05 4.45 78.3 -0.5 77.3 -11.8 65.65 -41.0 62.5 -59.1 49.55 -77.25 36.6 -79.1 23.1 L-79.3 18.1 Q-79.3 -9.2 -71.5 -23.9 L-67.85 -30.75 -67.85 -30.7 Q-51.9 -36.75 -45.95 -48.35 -47.6 -50.85 -50.4 -53.45 -56.05 -58.75 -66.45 -64.5 -82.05 -73.2 -84.35 -76.0 L-84.4 -76.05 Q-50.6 -75.5 -24.7 -69.6 -11.0 -74.8 5.4 -75.05 21.1 -75.3 35.25 -69.35" fill="#faf286" fill-rule="evenodd" stroke="none"/>
  </g>
</svg>
