<?xml version="1.0" encoding="UTF-8" standalone="no"?>
<svg xmlns:xlink="http://www.w3.org/1999/xlink" height="135.8px" width="201.75px" xmlns="http://www.w3.org/2000/svg">
  <g transform="matrix(1.0, 0.0, 0.0, 1.0, 100.85, 67.9)">
    <path d="M50.7 5.8 Q42.35 -3.55 30.6 -12.2 24.45 -16.9 17.35 -21.2 L15.5 -22.4 8.95 -22.1 Q40.85 1.15 50.95 17.35 L51.95 19.25 55.6 26.1 59.35 26.65 Q60.9 21.75 58.25 15.7 L57.6 14.25 54.5 10.15 50.7 5.8 Q55.25 3.3 62.55 -2.7 L62.65 -2.8 62.85 -2.95 69.65 -9.0 Q87.05 -22.8 97.55 -24.25 100.0 -25.35 99.9 -26.55 L64.15 -24.95 Q59.9 -24.55 53.45 -24.75 34.55 -25.0 17.35 -21.2 M62.85 -2.95 Q67.45 -6.6 72.05 -5.3 65.6 -3.05 63.85 -1.0 65.8 -0.4 67.55 0.9 69.6 2.55 71.05 4.1 L65.5 3.55 64.65 3.4 60.2 3.95 62.75 5.75 64.05 7.05 66.2 10.05 Q72.95 4.75 78.7 -4.4 82.3 -10.05 86.2 -14.55 95.55 -20.9 97.55 -24.25 M66.2 10.05 L67.55 13.15 64.7 10.65 Q62.5 12.4 60.3 13.55 L58.7 14.45 58.0 14.75 58.65 15.65 59.1 15.65 59.65 15.7 Q62.95 15.8 65.85 18.8 67.95 21.2 68.8 24.1 L69.25 26.05 Q69.9 26.05 70.55 26.85 L71.05 28.45 Q71.05 29.3 70.55 30.0 L70.3 30.2 69.25 30.6 Q68.6 34.1 66.3 36.8 L64.9 38.05 M64.7 10.65 Q62.4 9.65 60.35 9.3 L58.75 9.15 56.2 9.45 Q55.4 10.05 54.5 10.15 M57.6 14.25 L58.0 14.75 M58.25 15.7 L58.45 15.75 58.65 15.65 M69.25 26.05 L69.2 26.05 59.35 26.65 55.45 26.4 54.95 26.35 54.45 26.3 52.35 26.0 49.75 25.5 49.7 25.5 Q49.05 25.5 48.7 26.05 48.35 26.55 48.3 27.25 48.25 27.95 48.75 28.65 49.1 29.25 49.85 29.3 L49.9 29.3 53.15 30.2 56.1 30.65 56.1 30.6 59.2 30.95 59.65 30.95 59.65 31.0 69.25 30.6 M59.2 30.95 L59.65 31.0 Q59.85 34.35 60.3 37.4 L60.55 39.5 Q62.7 39.35 64.65 38.25 M49.9 29.3 Q50.4 32.45 52.3 35.05 54.2 37.55 56.6 38.65 L56.5 35.2 56.1 30.65 M49.7 25.5 Q50.0 21.85 51.95 19.25 M60.55 39.5 Q62.15 49.35 65.65 55.3 L53.35 58.2 Q56.75 51.25 56.6 38.65 M-42.45 -9.45 L-42.7 -3.95 -39.35 -6.5 -39.25 -6.85 Q-38.0 -10.55 -37.15 -14.5 L-36.15 -13.3 Q-37.0 -19.35 -45.95 -34.3 -55.75 -50.6 -59.45 -66.9 L-60.05 -60.5 Q-62.1 -36.15 -58.5 -10.15 -59.0 -20.7 -53.65 -28.35 -58.55 -19.85 -56.2 -9.45 -55.55 -18.25 -50.1 -23.05 -47.65 -25.1 -44.4 -26.45 -46.3 -23.1 -47.35 -19.4 L-47.85 -17.8 Q-48.95 -12.6 -48.35 -6.6 -47.7 -10.6 -45.0 -13.75 L-44.4 -14.45 M-44.15 -14.65 Q-42.55 -16.2 -40.45 -17.6 -41.55 -14.65 -42.15 -11.45 L-42.3 -9.9 M-39.35 -6.5 Q-46.5 13.85 -66.15 27.0 L-64.95 28.55 Q-62.85 31.85 -62.9 35.6 -33.8 6.2 -34.5 -6.95 -33.45 -9.4 -36.15 -13.3 M-59.45 -66.9 L-71.45 -32.05 Q-77.45 -16.5 -77.35 3.0 -77.25 12.7 -75.65 23.35 L-73.95 23.4 -72.65 23.6 -71.6 23.8 -71.35 23.9 Q-68.35 24.6 -66.15 27.0 M-77.35 3.0 Q-78.4 7.3 -76.9 13.7 -80.15 21.55 -79.75 24.55 L-77.7 23.8 Q-76.75 23.4 -75.65 23.35 M-62.95 36.5 L-63.1 36.5 Q-72.6 35.45 -80.45 32.9 L-82.8 32.15 -85.7 31.0 -85.75 31.0 Q-86.5 30.8 -87.15 31.3 -87.75 31.7 -87.9 32.4 -88.15 33.05 -87.8 33.8 -87.55 34.5 -86.7 34.7 L-86.65 34.7 -83.05 36.4 Q-75.65 39.35 -64.3 40.9 L-62.9 40.8 -62.6 40.7 Q-61.75 40.1 -61.5 39.25 -61.3 38.35 -61.7 37.55 -62.2 36.6 -62.95 36.5 L-62.9 35.6 M-86.65 34.7 Q-86.9 37.0 -86.15 39.3 L-85.45 41.1 -84.15 43.1 Q-82.25 45.6 -79.0 46.95 L-71.85 47.2 M-71.6 47.15 L-69.5 46.2 -69.3 46.05 Q-67.3 44.9 -65.85 43.25 L-64.3 40.9 M-69.3 46.05 L-69.15 48.5 Q-65.6 58.1 -66.8 66.45 -62.85 69.3 -51.55 53.5 -60.75 49.1 -65.85 43.25 M-69.5 46.2 L-69.15 48.5 M-77.35 3.0 Q-82.3 9.8 -85.6 20.4 -86.75 25.15 -84.9 29.25 -83.6 26.9 -81.2 25.3 L-80.4 24.85 -79.75 24.55 M-84.9 29.25 L-85.75 31.0 M-86.15 39.3 Q-91.35 43.25 -97.15 45.95 -103.8 56.0 -94.0 62.0 -92.9 50.7 -84.15 43.1 M-42.7 -3.95 Q-52.95 5.65 -56.85 14.6 -56.95 1.85 -58.5 -10.15" fill="none" stroke="#000000" stroke-linecap="round" stroke-linejoin="round" stroke-width="2.0"/>
  </g>
</svg>
