<?xml version="1.0" encoding="UTF-8" standalone="no"?>
<svg xmlns:xlink="http://www.w3.org/1999/xlink" height="24.35px" width="73.6px" xmlns="http://www.w3.org/2000/svg">
  <g transform="matrix(1.0, 0.0, 0.0, 1.0, 32.6, 46.6)">
    <path d="M31.4 -39.7 Q31.4 -41.15 30.8 -42.15 30.2 -43.15 29.35 -43.15 28.5 -43.15 27.9 -42.15 27.3 -41.15 27.3 -39.75 27.3 -38.3 27.9 -37.3 28.5 -36.25 29.35 -36.25 30.2 -36.25 30.8 -37.3 31.4 -38.3 31.4 -39.7 M41.0 -35.05 Q41.0 -30.3 38.6 -26.95 36.25 -23.5 32.9 -23.5 29.6 -23.5 27.2 -26.95 24.85 -30.3 24.85 -35.05 24.85 -39.85 27.2 -43.25 29.6 -46.6 32.9 -46.6 36.25 -46.6 38.6 -43.25 41.0 -39.85 41.0 -35.05 M-14.05 -34.25 Q-14.05 -29.3 -16.8 -25.8 -19.5 -22.25 -23.35 -22.25 -27.15 -22.25 -29.9 -25.8 -32.6 -29.3 -32.6 -34.25 -32.6 -39.2 -29.9 -42.75 -27.15 -46.25 -23.35 -46.25 -19.5 -46.25 -16.8 -42.75 -14.05 -39.2 -14.05 -34.25 M-25.0 -39.3 Q-25.0 -40.75 -25.7 -41.75 -26.35 -42.75 -27.3 -42.75 -28.25 -42.75 -28.95 -41.75 -29.6 -40.75 -29.6 -39.35 -29.6 -37.9 -28.95 -36.9 -28.25 -35.85 -27.3 -35.85 -26.35 -35.85 -25.7 -36.9 -25.0 -37.9 -25.0 -39.3" fill="#000000" fill-rule="evenodd" stroke="none"/>
    <path d="M31.4 -39.7 Q31.4 -38.3 30.8 -37.3 30.2 -36.25 29.35 -36.25 28.5 -36.25 27.9 -37.3 27.3 -38.3 27.3 -39.75 27.3 -41.15 27.9 -42.15 28.5 -43.15 29.35 -43.15 30.2 -43.15 30.8 -42.15 31.4 -41.15 31.4 -39.7 M-25.0 -39.3 Q-25.0 -37.9 -25.7 -36.9 -26.35 -35.85 -27.3 -35.85 -28.25 -35.85 -28.95 -36.9 -29.6 -37.9 -29.6 -39.35 -29.6 -40.75 -28.95 -41.75 -28.25 -42.75 -27.3 -42.75 -26.35 -42.75 -25.7 -41.75 -25.0 -40.75 -25.0 -39.3" fill="#ffffff" fill-rule="evenodd" stroke="none"/>
  </g>
</svg>
