<?xml version="1.0" encoding="UTF-8" standalone="no"?>
<svg xmlns:xlink="http://www.w3.org/1999/xlink" height="65.05px" width="115.65px" xmlns="http://www.w3.org/2000/svg">
  <g transform="matrix(1.0, 0.0, 0.0, 1.0, 68.35, 50.6)">
    <path d="M9.1 -19.0 L10.65 -16.9 25.85 -14.25 34.2 -27.4 33.2 -32.85 Q39.3 -36.1 43.7 -40.25 L42.95 -38.55 Q49.1 -33.7 46.55 -27.95 35.8 -16.1 15.8 -6.85 -37.95 17.7 -68.35 13.95 -60.6 10.2 -50.45 2.9 -43.3 -2.3 -35.0 -9.2 -13.15 -12.7 9.1 -19.0" fill="#000000" fill-opacity="0.32941177" fill-rule="evenodd" stroke="none"/>
    <path d="M33.2 -32.85 L34.2 -27.4 25.85 -14.25 10.65 -16.9 9.1 -19.0 -2.05 -34.15 Q5.55 -41.85 9.85 -50.6 20.65 -47.6 30.25 -48.15 L33.2 -32.85" fill="#181818" fill-rule="evenodd" stroke="none"/>
  </g>
</svg>
