<?xml version="1.0" encoding="UTF-8" standalone="no"?>
<svg xmlns:xlink="http://www.w3.org/1999/xlink" height="105.3px" width="70.2px" xmlns="http://www.w3.org/2000/svg">
  <g transform="matrix(1.0, 0.0, 0.0, 1.0, 6.8, -26.35)">
    <path d="M-0.8 95.7 L-1.3 95.1 -1.35 95.0 Q-3.2 92.5 -3.2 89.1 L-2.9 86.4 Q-2.45 84.6 -1.3 83.15 0.55 80.65 3.15 80.65 5.8 80.65 7.65 83.15 8.8 84.7 9.3 86.75 L9.5 88.15 Q9.2 86.15 8.05 84.7 6.55 82.65 4.45 82.65 2.35 82.65 0.8 84.7 -0.75 86.7 -0.75 89.55 -0.75 92.35 0.8 94.35 2.35 96.35 4.45 96.35 6.55 96.35 8.05 94.35 L8.6 93.55 7.95 94.7 7.65 95.1 7.2 95.7 Q12.4 111.5 14.3 127.9 15.55 132.15 10.95 131.6 L8.15 131.6 Q5.25 132.1 5.05 127.95 L5.05 97.25 3.15 97.55 2.6 97.55 Q0.8 112.5 0.95 127.75 1.1 131.7 -3.15 131.25 -7.55 130.95 -6.65 125.3 -5.7 113.9 -0.8 95.7" fill="#000000" fill-opacity="0.24705882" fill-rule="evenodd" stroke="none"/>
    <path d="M58.4 26.35 Q68.45 49.5 58.4 57.6 L52.6 63.25 Q61.8 49.25 58.4 26.35" fill="#000000" fill-rule="evenodd" stroke="none"/>
  </g>
</svg>
