<?xml version="1.0" encoding="UTF-8" standalone="no"?>
<svg xmlns:xlink="http://www.w3.org/1999/xlink" height="182.15px" width="187.9px" xmlns="http://www.w3.org/2000/svg">
  <g transform="matrix(1.0, 0.0, 0.0, 1.0, 93.95, 91.05)">
    <path d="M55.5 -89.6 L52.8 -89.7 Q42.4 -89.85 38.3 -83.45 36.55 -87.35 33.65 -88.45 L32.3 -88.8 Q30.05 -84.2 30.05 -78.0 L30.5 -71.5 30.7 -70.65 31.0 -69.15 30.9 -69.15 Q20.05 -71.45 9.75 -72.15 L9.5 -72.15 9.35 -72.15 9.25 -72.15 9.1 -72.2 8.85 -72.25 8.85 -72.15 7.35 -72.25 Q-12.8 -73.05 -30.8 -69.35 -31.2 -77.4 -36.0 -82.8 -37.85 -84.85 -40.25 -86.55 -37.75 -77.1 -40.45 -79.55 -47.7 -87.0 -55.4 -87.8 L-56.3 -87.85 -55.95 -87.2 -55.75 -86.85 -55.6 -86.6 -55.45 -86.35 -54.8 -85.2 Q-69.4 -83.2 -78.45 -77.35 -90.85 -69.25 -92.95 -53.8 L-89.45 -56.8 Q-94.15 -34.6 -81.1 -23.1 -76.1 -19.95 -70.05 -18.75 -66.95 -15.9 -67.4 -13.95 -65.15 -14.35 -64.25 -15.95 -69.5 1.8 -65.6 16.95 -61.35 28.85 -62.0 37.65 -62.0 50.35 -54.95 58.15 L-54.9 58.25 -55.5 58.4 Q-63.05 62.3 -62.65 62.45 -60.55 63.9 -58.7 63.5 -65.2 73.7 -56.35 84.55 -50.05 91.3 -37.45 89.85 -29.8 88.05 -26.6 80.8 -25.8 79.15 -25.1 77.15 -24.55 74.65 -25.0 72.1 -26.2 66.4 -32.65 60.7 -30.95 60.25 -26.5 62.65 L-26.9 61.7 Q-29.55 56.35 -39.6 53.95 L-40.5 53.65 Q-38.95 50.3 -39.6 42.3 L-39.85 39.65 -39.9 39.35 Q-40.4 35.4 -41.45 30.35 -40.85 16.3 -29.3 4.5 -17.05 -10.6 4.75 -13.35 L6.05 -13.7 6.95 -13.9 6.95 -13.95 Q12.8 -15.45 17.75 -15.5 36.85 -16.75 53.5 -3.45 54.9 -1.95 56.1 0.2 59.1 14.25 59.05 26.8 57.8 48.35 61.7 55.45 61.45 55.65 61.95 55.45 61.35 55.75 61.5 55.45 60.0 55.65 51.8 59.85 53.7 62.0 57.9 60.15 49.85 68.95 52.45 77.1 56.3 89.45 69.35 89.6 75.45 89.5 79.15 86.0 81.85 83.4 83.25 78.95 84.85 73.7 84.9 69.95 84.9 66.2 78.0 61.05 81.35 59.95 82.65 57.85 L83.1 56.8 Q79.15 58.2 78.2 57.6 77.2 57.0 76.65 56.95 L76.7 56.9 Q80.15 45.1 77.6 32.6 75.05 19.8 75.45 14.35 L76.55 0.25 Q77.25 -11.9 76.4 -22.4 75.6 -31.85 73.5 -36.6 L73.5 -36.65 Q73.8 -38.0 74.4 -38.9 L75.2 -39.95 75.55 -40.3 Q83.3 -39.3 87.1 -44.15 L87.85 -43.85 87.9 -43.85 89.7 -43.15 Q91.5 -51.55 87.7 -60.25 L92.95 -54.15 Q92.35 -61.1 90.55 -66.2 87.3 -74.95 80.0 -77.7 L83.85 -81.55 Q70.9 -87.0 61.45 -88.75 L55.5 -89.6" fill="none" stroke="#000000" stroke-linecap="round" stroke-linejoin="round" stroke-opacity="0.50980395" stroke-width="2.0"/>
    <path d="M52.8 -89.7 L55.5 -89.6 M-55.5 58.4 L-54.95 58.15 Q-45.0 61.1 -40.5 53.65 M-55.3 -86.0 L-55.6 -86.6 M72.5 -53.65 L72.35 -53.3 Q61.45 -65.5 47.85 -68.45 55.9 -76.8 67.75 -71.1 75.75 -65.4 72.5 -53.65 M31.0 -69.15 L31.65 -69.05 Q39.15 -67.55 46.95 -65.1 L49.15 -64.5 Q61.45 -60.9 68.8 -47.35 71.1 -43.3 72.75 -38.45 L73.15 -37.3 73.5 -36.65 M9.1 -72.2 L8.95 -72.15 8.85 -72.15 M36.9 -47.2 Q38.55 -48.9 40.75 -48.9 43.1 -48.9 44.7 -47.2 46.25 -45.7 46.25 -43.35 46.25 -41.1 44.7 -39.45 43.1 -37.9 40.75 -37.9 38.55 -37.9 36.9 -39.45 35.3 -41.1 35.3 -43.35 35.3 -45.7 36.9 -47.2 M56.1 0.2 Q56.85 -2.4 56.8 -4.9 56.65 -7.85 55.45 -10.75 46.55 -30.85 24.75 -33.45 L24.85 -32.5 Q24.25 -30.75 22.35 -29.45 L21.05 -28.95 Q21.0 -28.85 20.85 -28.85 22.0 -24.55 20.35 -20.3 19.45 -17.9 17.75 -15.5 M-29.3 4.5 Q-29.55 3.05 -29.4 1.35 -29.15 -5.8 -23.15 -16.1 -15.8 -28.85 7.55 -32.0 L8.45 -32.1 8.5 -32.1 Q10.95 -32.85 14.0 -33.25 L14.0 -33.3 14.15 -34.8 Q14.35 -36.65 16.3 -37.9 L16.8 -38.2 17.15 -38.3 20.35 -38.4 Q22.65 -38.05 23.8 -36.3 L24.45 -35.2 24.75 -33.6 24.75 -33.45 M20.85 -28.85 Q19.65 -28.45 18.35 -28.85 L17.15 -29.25 17.0 -29.25 Q15.6 -29.8 14.8 -31.05 13.95 -32.1 14.0 -33.25 M6.95 -13.95 L6.05 -13.7 M87.1 -44.15 L84.45 -45.35 M61.7 55.45 Q64.3 55.2 66.75 56.95 L68.1 57.8 69.5 58.4 72.2 58.35 75.2 57.05 76.2 56.85 76.7 56.9 M-54.8 -85.2 L-57.4 -82.4 M-64.25 -15.95 L-63.8 -17.45 -62.35 -21.55 M-2.8 -44.95 Q-2.8 -42.5 -4.55 -40.75 -6.35 -39.1 -8.85 -39.1 -11.3 -39.1 -13.1 -40.75 -14.85 -42.5 -14.85 -44.95 -14.85 -47.35 -13.1 -49.1 -11.3 -50.75 -8.85 -50.75 -6.35 -50.75 -4.55 -49.1 -2.8 -47.35 -2.8 -44.95 M-69.8 -36.6 Q-52.55 -45.7 -44.65 -62.8" fill="none" stroke="#000000" stroke-linecap="round" stroke-linejoin="round" stroke-opacity="0.50980395" stroke-width="0.05"/>
    <path d="M74.4 -38.9 Q73.8 -37.9 73.5 -36.6 M-54.8 -85.2 L-55.3 -86.0 -55.45 -86.35 -55.55 -86.55 -55.6 -86.6 M30.9 -69.15 L30.7 -70.65" fill="none" stroke="#000000" stroke-linecap="round" stroke-linejoin="round" stroke-width="1.0"/>
  </g>
</svg>
