<?xml version="1.0" encoding="UTF-8" standalone="no"?>
<svg xmlns:xlink="http://www.w3.org/1999/xlink" height="169.65px" width="164.7px" xmlns="http://www.w3.org/2000/svg">
  <g transform="matrix(1.0, 0.0, 0.0, 1.0, 82.35, 84.8)">
    <path d="M8.35 -56.1 L-7.4 -55.3 -17.45 -53.65 -19.7 -53.0 Q-31.1 -49.3 -40.0 -40.0 -45.35 -46.9 -50.95 -52.75 -60.6 -63.85 -70.3 -70.3 -75.8 -74.05 -81.3 -76.3 -81.55 -70.0 -80.85 -63.85 -80.0 -56.5 -77.95 -49.25 -70.1 -41.45 -53.15 -20.3 L-54.0 -18.45 -55.65 -14.75 Q-60.55 -3.25 -58.5 12.0 M-4.15 -74.85 Q-2.8 -69.55 -0.6 -64.45 L6.65 -58.35 7.85 -57.25 M-5.8 -83.8 Q-5.3 -79.25 -4.15 -74.85 M-5.8 -83.8 Q5.9 -80.6 18.75 -69.25 26.05 -63.25 33.25 -55.35 L34.3 -54.05 34.35 -54.0 35.4 -52.6 M35.55 -52.55 L37.2 -52.05 39.05 -51.55 41.65 -50.7 42.2 -50.5 42.65 -50.4 Q45.5 -49.6 48.05 -49.3 L48.8 -48.95 Q48.9 -48.85 49.05 -48.8 L49.25 -48.7 50.2 -48.15 Q56.65 -44.5 63.0 -37.45 69.8 -29.95 73.9 -18.3 L73.85 -18.25 73.95 -18.2 Q76.85 -16.8 79.75 -14.85 L81.35 -13.7 81.15 -8.05 Q81.5 -7.75 79.6 -3.8 L77.0 1.4 77.0 1.45 76.75 1.85 76.65 2.0 Q77.85 7.65 77.0 17.3 76.4 22.45 75.05 29.0 80.4 33.25 80.75 37.8 79.0 44.7 70.2 56.2 69.2 61.6 64.5 64.8 64.15 67.75 63.35 70.7 L61.85 75.1 61.35 76.25 61.0 76.8 Q59.8 83.0 57.5 83.8 49.7 84.3 42.85 80.0 L41.65 79.4 40.5 78.8 Q36.6 76.95 33.25 75.65 L31.6 75.1 Q25.7 73.25 21.1 73.05 L12.15 72.7 Q3.3 71.7 -7.4 68.2 L-19.55 63.05 Q-28.35 58.7 -29.95 54.7 L-30.5 54.3 -31.75 51.85 Q-34.5 52.8 -37.3 53.15 L-43.75 53.7 Q-47.4 53.85 -51.9 50.9 -53.8 46.25 -55.55 37.55 -58.35 23.65 -59.3 13.15 -59.25 12.7 -58.85 12.35 L-58.25 12.25 Q-53.1 8.55 -34.45 8.15 L-32.5 8.5 Q-30.0 9.05 -28.0 10.15 L-26.9 11.15 -24.9 13.4 Q-22.65 16.55 -21.35 20.25 L-21.2 20.65 Q-19.95 24.15 -19.0 28.65 L-18.6 30.7 Q-18.1 33.3 -17.75 36.2 M9.15 -56.1 L8.35 -56.1 M-23.0 40.5 Q-26.8 44.0 -29.75 48.35 L-30.1 48.65 -31.0 49.4 Q-32.05 50.25 -31.75 51.85 M-18.25 36.55 Q-20.8 38.35 -23.0 40.5" fill="none" stroke="#000000" stroke-linecap="round" stroke-linejoin="round" stroke-width="2.0"/>
    <path d="M-17.45 -53.65 L-18.15 -52.9 Q-30.95 -39.75 -31.6 -34.45 L-26.05 -32.55 Q-28.1 -29.1 -29.45 -24.85 L-27.6 -22.0 -26.2 -19.6 -25.6 -19.9 Q-16.6 -22.5 -7.4 -22.0 1.4 -21.55 10.4 -18.9 L10.0 -19.5 9.0 -21.2 Q7.5 -23.65 6.45 -26.2 L6.05 -26.85 Q2.8 -34.85 6.1 -40.85 8.85 -45.85 16.35 -49.4 18.35 -50.45 20.85 -51.35 L21.65 -51.6 24.2 -52.5 29.15 -54.5 29.65 -54.75 29.75 -53.95 35.4 -52.6 35.55 -52.55 M17.35 -55.7 L9.15 -56.05 8.35 -56.1 M-19.7 -53.0 L-18.15 -52.9 M7.85 -57.25 L9.15 -56.1 9.15 -56.05 M-4.15 -74.85 L4.1 -68.95 M1.95 -78.0 L-5.8 -83.8 M73.9 -18.3 L73.95 -18.2 74.1 -17.6 73.85 -18.25 M-58.85 12.35 L-58.5 12.0 M-72.0 -67.25 L-70.8 -54.65 -70.4 -49.85 -50.3 -29.5 -51.4 -18.15 -51.65 -17.05 Q-53.5 -8.55 -46.7 -3.75 -47.05 -5.1 -47.05 -6.55 -47.05 -11.3 -43.95 -14.7 L-43.25 -15.35 Q-40.3 -18.0 -36.4 -18.0 -34.35 -18.0 -32.5 -17.2 L-31.6 -16.75 -28.95 -14.7 Q-27.0 -12.55 -26.2 -10.0 -25.65 -12.45 -27.8 -16.0 L-29.5 -18.25 -30.75 -19.9 -31.1 -20.35 -43.55 -35.9 Q-57.9 -53.3 -72.0 -67.25 L-81.3 -76.3 M-80.85 -63.85 L-70.8 -54.65 M-39.25 5.5 L-37.6 4.9 Q-41.25 4.45 -43.95 1.55 -45.6 -0.3 -46.45 -2.55 L-46.7 -3.75 M-42.15 -7.55 L-41.9 -8.55 -41.05 -10.35 -40.7 -10.8 -40.25 -11.25 Q-38.9 -12.4 -37.2 -12.5 -35.55 -12.35 -34.25 -11.1 L-33.95 -10.8 -33.0 -9.55 -33.0 -9.5 Q-32.25 -8.15 -32.25 -6.55 L-32.25 -6.4 -32.25 -5.8 -32.45 -4.8 Q-32.8 -3.8 -33.3 -2.95 L-33.95 -2.3 -34.35 -1.9 Q-35.05 -1.15 -35.95 -0.8 L-37.2 -0.5 Q-39.25 -0.75 -40.7 -2.3 -42.2 -4.05 -42.2 -6.55 L-42.15 -7.55 -33.95 -2.3 M-40.0 -40.0 Q-34.6 -33.0 -29.45 -24.85 M-32.25 -6.4 L-40.25 -11.25 M-26.2 -10.0 L-26.15 -9.6 -26.15 -9.45 -26.05 -9.35 -25.8 -6.55 Q-25.8 -2.25 -28.35 0.9 L-28.95 1.55 Q-29.9 2.6 -30.95 3.35 L-30.9 3.35 Q-28.15 2.4 -26.15 1.15 L-25.25 0.55 Q-20.4 -2.95 -21.1 -8.9 L-21.35 -10.4 -21.85 -11.95 -26.2 -19.6 M-21.1 -8.9 L-19.55 -8.9 Q-12.9 -9.05 -7.4 -8.6 1.3 -7.9 7.4 -6.05 L9.95 -5.15 11.35 -5.4 Q17.4 -4.25 23.5 -1.3 L22.7 -3.65 Q20.85 -8.05 16.6 -11.65 13.05 -15.05 10.4 -18.9 M20.85 -51.35 L21.65 -51.15 Q30.5 -49.1 36.9 -45.55 L42.65 -42.65 54.2 -44.35 Q52.35 -46.8 50.2 -48.15 M6.1 -40.85 Q16.1 -40.4 22.55 -38.35 L26.25 -36.95 Q28.95 -35.7 30.7 -34.0 L48.6 -17.75 Q53.2 -23.1 61.8 -25.55 L63.75 -25.6 65.5 -25.45 Q69.2 -25.2 74.15 -17.4 L74.1 -17.6 M23.5 -1.3 Q28.35 1.1 33.25 4.6 L37.6 8.3 40.7 10.5 Q41.0 6.05 41.65 1.9 L42.4 -1.95 42.95 -4.4 43.2 -5.65 41.65 -6.25 Q37.1 -8.15 33.25 -10.15 20.1 -16.3 14.6 -23.55 L10.0 -19.5 M42.95 -4.4 L49.4 -1.05 Q49.9 1.5 53.9 2.4 57.8 3.3 59.25 0.4 L63.65 0.4 Q72.35 -10.05 74.15 -17.4 L75.8 -13.2 Q76.2 -8.35 72.85 -1.9 L75.2 0.25 75.6 0.65 76.65 2.0 75.65 8.8 Q75.85 13.3 75.2 17.3 L74.6 19.7 Q72.1 25.2 68.95 30.05 L67.2 32.55 Q72.0 30.15 73.45 31.15 L75.05 29.0 M48.6 -17.75 Q46.95 -15.85 45.8 -13.55 L45.7 -13.1 Q44.3 -9.65 43.2 -5.65 M63.65 0.4 Q66.65 -1.65 70.1 -3.15 71.4 -2.85 72.85 -1.9 M65.5 -25.45 L60.35 -11.6 M9.95 -5.15 Q0.65 -3.7 -7.4 -0.65 -12.3 1.3 -16.6 4.1 L-18.05 5.0 -10.7 17.95 -8.95 20.6 -11.7 22.1 -3.15 31.15 0.45 35.0 9.35 34.9 -1.05 23.5 2.8 22.0 -7.4 5.95 -7.75 5.3 -7.4 5.2 Q3.15 1.45 15.25 1.1 21.05 2.15 33.25 9.15 37.1 11.6 41.65 14.75 L41.85 14.85 54.35 14.05 Q61.55 5.65 69.0 2.3 71.15 2.4 73.5 5.5 74.6 6.8 75.65 8.8 M76.75 1.85 L77.0 1.4 M40.7 10.5 L43.95 12.75 52.6 12.55 Q55.65 7.35 60.8 2.75 62.15 1.55 63.65 0.4 M9.35 34.9 Q18.15 34.3 22.8 38.35 L27.1 41.2 27.75 41.55 33.25 44.25 Q36.95 46.05 41.65 47.85 L43.65 48.55 Q51.2 50.4 60.95 40.1 L65.25 35.1 67.2 32.55 M70.1 38.0 L68.0 38.6 Q67.25 41.65 65.7 43.55 L63.75 49.75 Q65.5 54.45 69.75 56.05 L70.15 56.2 70.2 56.2 Q71.6 46.85 71.1 39.5 L70.1 38.0 73.45 31.15 M65.7 43.55 L65.65 43.65 65.55 43.7 65.5 43.8 65.1 44.25 65.05 44.3 Q63.7 45.55 61.95 46.05 L61.25 46.25 58.0 46.45 Q55.45 50.3 51.25 52.65 L59.1 53.0 M68.95 30.05 Q69.55 19.0 73.5 5.5 M58.0 46.45 Q59.85 43.65 60.95 40.1 M18.15 47.3 L18.15 46.3 18.05 45.7 18.05 45.4 Q9.9 42.75 5.3 39.65 L1.95 36.9 0.65 35.4 0.45 35.0 M18.05 45.4 L21.65 46.45 33.25 49.35 36.95 50.1 33.25 47.15 Q30.35 44.7 27.75 41.55 M18.15 48.5 Q17.95 54.95 15.05 58.5 21.45 62.45 33.25 65.45 L37.9 66.6 43.95 57.25 40.45 52.3 Q37.1 53.6 33.25 53.6 L28.7 53.3 Q23.65 50.05 21.65 46.45 M36.95 50.1 L40.45 52.3 41.65 52.9 Q44.05 54.0 46.65 54.6 L51.25 52.65 50.25 57.0 59.45 63.05 M21.1 73.05 Q33.55 70.9 28.7 68.65 19.15 66.75 11.3 63.65 4.75 61.05 -0.65 57.6 L-23.0 40.5 M-30.1 48.65 Q-19.7 57.8 -7.4 63.65 1.5 67.45 11.2 69.95 L12.15 72.7 M3.3 48.9 Q4.85 49.05 6.65 49.95 8.25 50.85 9.2 52.05 10.15 53.25 9.75 54.1 9.2 54.85 7.6 54.75 6.05 54.7 4.3 53.8 2.55 52.85 1.6 51.7 0.65 50.4 1.2 49.65 L1.2 49.5 Q1.7 48.85 3.3 48.9 M11.3 63.65 L15.05 58.5 Q5.85 58.65 0.6 54.7 L-7.4 47.45 -18.25 36.55 -17.75 36.2 M64.5 64.8 L61.15 64.15 59.8 68.1 59.45 68.2 63.35 70.7 M59.6 53.1 L61.35 53.15 63.75 49.75 M37.9 66.6 L41.65 69.1 42.0 69.25 42.55 69.55 53.4 68.7 53.75 68.65 55.1 68.55 59.45 68.2 M40.5 78.8 L42.55 69.55 Q47.95 72.35 57.3 75.1 L61.35 76.25 M61.15 64.15 L60.15 63.55 M-18.05 5.0 L-19.55 4.45 Q-25.0 2.6 -30.9 3.35 M-24.9 13.4 L-17.25 16.5 Q-15.05 16.3 -12.85 17.1 L-12.15 17.3 Q-11.4 17.55 -10.7 17.95 M-17.25 16.5 L-18.75 21.2 -21.35 20.25 M-18.6 30.7 L-5.85 31.05 -3.15 31.15 M-30.95 3.35 L-31.05 3.35 Q-32.2 4.1 -33.45 4.5 L-36.4 4.95 -37.6 4.9 M-52.95 17.6 Q-50.4 16.15 -48.3 15.85 L-36.0 12.85 -34.8 12.8 Q-32.8 13.05 -31.05 14.95 L-29.75 16.6 -29.4 17.25 Q-28.3 19.35 -27.4 22.4 L-23.85 35.4 Q-25.55 36.4 -26.95 37.45 -29.7 39.5 -31.3 41.85 L-34.45 46.55 -46.7 48.4 M-24.9 13.4 L-25.0 13.3 -24.5 14.0 -24.9 13.4 M-31.0 49.4 L-30.5 54.3 M-13.3 36.9 Q-14.7 36.05 -15.45 34.9 -16.2 33.7 -15.8 32.9 L-15.8 32.8 Q-15.4 32.05 -14.1 32.05 -12.85 32.05 -11.4 32.9 -10.1 33.7 -9.35 34.9 -8.6 36.05 -8.95 36.9 -9.35 37.7 -10.6 37.7 -11.9 37.7 -13.3 36.9" fill="none" stroke="#000000" stroke-linecap="round" stroke-linejoin="round" stroke-opacity="0.56078434" stroke-width="0.05"/>
    <path d="M29.15 -54.5 L28.85 -54.8 17.35 -55.7 4.85 -65.5 4.1 -68.95 1.95 -78.0 9.7 -71.8 11.45 -70.35 Q20.0 -63.2 28.85 -54.8" fill="none" stroke="#000000" stroke-linecap="round" stroke-linejoin="round" stroke-width="1.0"/>
    <path d="M-16.6 4.1 L-19.1 3.0" fill="none" stroke="#000000" stroke-linecap="round" stroke-linejoin="round" stroke-width="0.05"/>
  </g>
</svg>
