<?xml version="1.0" encoding="UTF-8" standalone="no"?>
<svg xmlns:xlink="http://www.w3.org/1999/xlink" height="120.35px" width="147.9px" xmlns="http://www.w3.org/2000/svg">
  <g transform="matrix(1.0, 0.0, 0.0, 1.0, 73.95, 60.15)">
    <path d="M12.9 54.55 Q58.55 49.55 67.8 32.1 72.1 5.9 61.35 -18.25 L52.85 -31.25 Q41.65 -46.6 25.45 -54.9 -1.6 -49.2 -11.05 -39.3 -20.0 -28.45 -29.8 -13.75 -41.45 3.45 -43.9 29.65 -44.3 45.3 9.4 54.5 L8.8 54.9 Q7.9 55.75 7.85 56.85 -10.8 54.9 -23.85 51.15 -36.9 47.35 -42.75 42.3 -48.65 37.25 -49.6 34.5 -50.15 28.05 -48.6 19.3 -46.8 8.8 -38.4 -10.85 L-54.25 -14.95 Q-58.0 -3.75 -60.55 13.9 -60.8 36.45 -50.95 46.05 -62.65 40.5 -69.3 34.45 -78.6 17.8 -69.3 -18.1 -71.85 -19.0 -72.9 -18.8 L-71.45 -22.5 Q-70.6 -27.05 -69.05 -32.65 L-65.8 -31.85 Q-62.3 -42.5 -52.5 -55.9 -47.0 -56.3 -38.95 -51.9 -47.15 -39.25 -50.4 -29.4 -39.6 -27.1 -30.8 -24.6 -25.45 -33.3 -13.65 -44.65 -0.55 -56.9 26.35 -60.15 46.85 -49.9 63.85 -25.2 72.4 -6.3 73.7 11.15 74.75 25.45 71.0 36.1 57.95 54.45 14.25 56.7 14.1 55.6 13.25 54.9 L12.9 54.55" fill="#9f846a" fill-rule="evenodd" stroke="none"/>
    <path d="M9.4 54.5 Q10.1 54.0 11.05 54.0 12.15 54.0 12.9 54.55 L13.25 54.9 Q14.1 55.6 14.25 56.7 L14.25 57.1 14.25 57.3 Q14.2 58.45 13.25 59.25 12.4 60.2 11.05 60.2 9.75 60.2 8.8 59.25 8.0 58.5 7.9 57.4 L7.85 57.05 7.85 56.85 Q7.9 55.75 8.8 54.9 L9.4 54.5" fill="#bb8c5e" fill-rule="evenodd" stroke="none"/>
  </g>
</svg>
