<?xml version="1.0" encoding="UTF-8" standalone="no"?>
<svg xmlns:xlink="http://www.w3.org/1999/xlink" height="77.95px" width="159.5px" xmlns="http://www.w3.org/2000/svg">
  <g transform="matrix(1.0, 0.0, 0.0, 1.0, 0.0, 0.0)">
    <path d="M63.15 7.7 Q61.85 2.15 69.85 0.35 77.2 -1.0 80.2 2.6 91.25 0.05 101.15 0.05 122.1 0.05 137.75 11.6 158.05 28.85 159.5 57.2 159.6 60.1 158.05 60.75 157.95 59.2 156.95 58.35 151.4 56.2 145.1 55.0 126.05 51.2 100.6 55.35 91.35 56.7 81.35 59.35 64.25 63.55 44.95 70.8 39.6 72.65 34.25 74.85 32.1 75.6 30.0 76.5 L29.45 76.6 8.45 77.95 Q0.5 77.85 0.05 75.5 -0.7 69.2 16.7 62.35 L29.05 59.4 29.05 59.3 29.05 59.25 Q31.1 20.6 62.45 7.9 L63.15 7.7 M80.85 47.95 Q89.6 45.6 98.65 44.25 120.5 40.85 143.15 43.1 136.25 17.25 110.65 20.0 82.45 23.0 80.85 47.95" fill="#bd3e30" fill-rule="evenodd" stroke="none"/>
  </g>
</svg>
