<?xml version="1.0" encoding="UTF-8" standalone="no"?>
<svg xmlns:xlink="http://www.w3.org/1999/xlink" height="149.3px" width="169.4px" xmlns="http://www.w3.org/2000/svg">
  <g transform="matrix(1.0, 0.0, 0.0, 1.0, 84.7, 74.65)">
    <path d="M-47.9 -4.55 Q-52.85 12.35 -52.95 27.4 -52.2 48.45 -42.3 54.45 -20.4 69.05 4.35 70.15 L9.35 69.45 9.35 71.15 7.45 71.15 7.45 72.8 5.4 72.8 5.4 74.15 Q-9.2 75.75 -23.95 72.0 -55.3 67.9 -74.1 52.6 -87.05 39.5 -84.2 25.55 L-79.9 7.8 -80.05 6.6 Q-82.05 -12.55 -73.4 -34.2 -66.8 -48.4 -50.45 -60.15 L-50.45 -60.1 Q-34.55 -68.9 -15.75 -72.75 3.05 -76.65 16.9 -72.55 52.85 -61.75 75.55 -28.35 84.95 -2.85 84.7 17.5 84.6 28.4 81.7 37.85 78.4 48.6 71.3 60.15 63.9 68.45 35.7 72.8 26.4 74.25 16.05 73.15 L16.05 71.15 14.1 71.15 14.1 69.25 Q23.25 70.5 37.2 66.3 60.55 57.6 68.55 37.35 73.15 23.5 73.2 8.7 73.25 -5.35 69.2 -20.3 46.45 -52.1 12.5 -59.05 -19.85 -52.3 -38.65 -27.05 -44.5 -16.55 -47.9 -4.55" fill="#2ca4b8" fill-rule="evenodd" stroke="none"/>
  </g>
</svg>
