<?xml version="1.0" encoding="UTF-8" standalone="no"?>
<svg xmlns:xlink="http://www.w3.org/1999/xlink" height="262.85px" width="179.85px" xmlns="http://www.w3.org/2000/svg">
  <g transform="matrix(1.0, 0.0, 0.0, 1.0, 0.0, 131.4)">
    <path d="M118.85 -84.7 Q119.65 -94.2 120.0 -104.25 L120.15 -106.65 120.45 -108.85 120.55 -109.95 120.55 -110.15 Q121.2 -114.75 122.45 -118.15 125.55 -127.05 132.2 -128.4 135.65 -128.65 139.65 -125.7 L141.5 -124.2 144.3 -121.35 145.35 -120.05 146.1 -119.25 147.45 -117.4 151.35 -111.6 Q158.8 -97.0 159.7 -82.45 153.75 -70.15 149.3 -84.05 L149.5 -86.3 Q150.0 -96.05 146.15 -105.0 144.9 -103.9 143.7 -96.3 L143.65 -92.55 Q139.55 -78.55 133.95 -79.65 129.55 -81.45 131.75 -93.7 128.75 -91.35 126.15 -94.15 126.1 -80.9 118.85 -84.7 M14.25 -109.1 L14.0 -111.1 Q13.65 -113.25 13.6 -115.1 L13.6 -117.35 Q14.0 -125.7 18.85 -128.5 L19.2 -128.75 Q22.5 -131.25 27.25 -131.4 L29.75 -131.25 32.7 -130.75 33.0 -130.7 34.7 -130.4 36.6 -129.75 38.45 -129.15 40.05 -128.5 43.1 -126.5 Q48.4 -122.75 52.7 -116.85 L52.7 -116.8 Q60.25 -107.4 63.45 -96.5 63.55 -92.6 61.3 -92.2 57.65 -93.15 54.9 -103.2 52.4 -93.3 46.2 -99.5 43.15 -106.75 37.9 -112.75 37.65 -109.7 40.05 -99.15 37.05 -93.6 32.95 -95.55 34.8 -78.75 29.0 -78.75 22.7 -78.55 20.45 -85.0 L16.0 -100.8 15.4 -103.4 14.75 -106.0 14.4 -108.0 14.25 -109.1 M58.3 -85.35 Q58.55 -83.95 58.05 -82.9 57.25 -81.9 56.2 -81.9 55.05 -81.9 54.1 -82.9 53.1 -83.95 52.8 -85.35 52.5 -86.85 53.2 -87.85 53.8 -88.95 54.9 -88.95 56.1 -88.95 57.0 -87.85 58.1 -86.85 58.3 -85.35 M41.9 -83.8 Q42.6 -81.35 41.9 -80.05 41.25 -78.8 39.75 -78.4 38.2 -77.95 37.3 -79.65 36.25 -81.35 36.25 -83.95 36.25 -86.55 36.9 -88.4 37.6 -90.1 38.65 -90.2 39.55 -90.25 40.4 -88.25 41.25 -86.3 41.9 -83.8 M65.85 -73.25 Q87.95 -74.5 106.05 -66.45 L108.2 -65.45 Q110.9 -64.15 113.6 -62.55 L115.65 -64.8 116.65 -64.15 Q127.35 -56.6 136.2 -45.4 140.5 -40.05 144.4 -33.8 L169.7 -25.65 Q175.2 -22.75 173.35 -20.8 172.1 -15.6 167.35 -8.35 169.3 -0.6 167.35 1.6 162.1 -1.35 157.65 -5.4 166.0 5.7 172.55 16.0 L173.75 17.85 174.45 19.0 174.65 19.35 175.85 21.2 179.85 28.35 171.1 32.45 167.9 26.3 166.85 24.45 166.05 23.0 164.95 21.4 162.9 18.1 161.8 16.5 162.65 18.2 163.25 19.8 163.95 21.95 Q164.9 25.8 164.45 29.7 L159.5 27.45 158.4 21.9 158.0 20.3 157.7 18.85 157.15 16.55 Q155.35 9.1 153.2 1.8 149.75 -9.85 145.3 -21.25 L144.95 -22.1 Q144.05 -15.6 138.7 -20.45 127.85 -29.8 122.7 -39.65 125.8 -26.65 117.7 -27.75 124.7 -11.9 121.3 -10.6 118.85 -9.15 116.0 -12.3 107.1 -30.4 95.45 -46.9 87.0 -38.9 78.55 -29.85 66.15 -23.15 66.25 -29.05 51.8 -19.5 48.4 -26.6 46.05 -25.9 45.2 -26.6 L48.05 -22.1 Q51.65 -15.6 49.2 -14.4 L48.4 -14.25 Q39.0 -12.0 33.7 -13.05 L30.55 -10.4 Q27.55 3.2 20.2 16.35 L19.2 18.1 18.1 19.85 16.9 21.85 13.55 26.7 Q6.6 26.45 3.9 24.0 L8.85 16.95 6.5 15.95 8.85 8.5 9.45 6.6 10.0 5.0 10.75 2.9 Q13.3 -4.5 16.25 -11.55 11.55 -14.25 9.8 -22.75 4.65 -22.1 2.35 -23.8 L4.35 -27.4 4.2 -27.75 Q2.05 -30.6 0.0 -35.55 -0.35 -37.25 10.7 -39.65 17.2 -49.5 26.35 -58.35 L27.9 -48.2 Q25.85 -52.0 24.35 -51.75 23.9 -46.4 28.25 -42.7 29.1 -43.6 30.0 -43.5 31.8 -44.3 33.35 -42.85 51.55 -40.75 65.9 -53.25 L67.35 -54.65 68.45 -56.1 Q69.75 -58.15 70.15 -60.5 L70.2 -62.7 Q70.15 -65.15 69.25 -67.75 67.15 -67.6 64.55 -63.6 65.5 -68.6 65.85 -73.25 M65.6 -23.25 Q66.35 -22.5 66.25 -20.9 66.1 -19.3 64.6 -17.95 63.1 -16.45 61.35 -16.05 59.6 -15.65 58.85 -16.4 58.1 -17.15 58.3 -18.75 58.55 -20.35 60.1 -21.7 61.6 -23.15 63.25 -23.5 64.85 -23.95 65.6 -23.25 M130.45 -78.55 Q130.45 -77.0 129.7 -76.0 128.95 -74.95 127.9 -74.95 126.9 -74.95 126.1 -76.0 125.3 -77.0 125.3 -78.55 125.3 -79.9 126.1 -80.95 126.9 -81.95 127.9 -81.95 128.95 -81.95 129.7 -80.95 130.45 -79.9 130.45 -78.55 M154.75 -70.5 Q154.35 -69.1 153.35 -68.25 152.4 -67.5 151.35 -67.65 150.3 -67.95 149.8 -69.15 149.3 -70.4 149.75 -71.8 150.1 -73.15 151.15 -73.95 152.15 -74.8 153.15 -74.5 154.2 -74.2 154.65 -73.0 155.05 -71.85 154.75 -70.5 M132.35 -19.45 Q132.95 -17.45 132.35 -16.05 131.75 -14.55 130.2 -14.55 128.75 -14.55 127.2 -16.05 125.6 -17.45 125.0 -19.45 124.3 -21.45 125.0 -22.9 125.55 -24.25 127.1 -24.25 128.6 -24.25 130.1 -22.9 131.65 -21.45 132.35 -19.45 M147.85 -11.05 Q148.25 -9.4 147.55 -8.3 146.95 -7.1 145.6 -7.1 144.35 -7.1 143.15 -8.3 142.0 -9.4 141.7 -11.05 141.35 -12.7 142.0 -13.85 142.7 -15.05 143.9 -15.05 145.15 -15.05 146.45 -13.85 147.55 -12.7 147.85 -11.05 M85.1 92.8 Q89.8 93.25 93.1 92.0 L94.8 91.15 95.25 92.0 95.5 92.6 93.2 93.9 94.55 97.15 96.9 95.95 97.7 97.65 Q92.7 101.15 85.35 100.0 L85.3 97.9 87.5 98.15 87.55 94.75 85.1 94.55 85.1 92.8 M102.35 111.5 L102.5 112.2 102.65 112.8 102.65 112.95 Q103.1 115.55 102.2 117.4 101.2 119.3 99.4 119.3 97.6 119.3 95.9 117.4 94.35 115.55 93.95 112.95 L93.85 112.2 Q93.6 110.05 94.45 108.4 95.3 106.5 97.2 106.5 99.0 106.5 100.55 108.4 101.65 109.7 102.35 111.5 M89.7 98.15 L92.5 97.8 91.45 94.35 89.6 94.65 89.7 98.15 M69.4 98.9 L72.3 99.7 72.7 96.4 70.15 95.8 70.55 94.0 Q76.5 95.55 80.35 93.75 L80.65 94.9 80.85 95.75 79.05 96.3 79.7 99.45 81.5 98.75 81.85 100.55 Q79.8 101.85 76.3 102.0 71.1 101.95 68.85 100.95 L69.4 98.9 M74.7 96.6 L74.6 100.0 77.25 99.95 77.1 96.55 74.7 96.6 M80.35 116.45 Q80.35 118.8 78.85 120.55 L77.9 121.4 Q76.65 122.3 75.2 122.3 73.7 122.3 72.45 121.4 L71.5 120.55 Q70.05 118.8 70.05 116.45 70.05 114.05 71.5 112.35 L71.65 112.2 Q73.2 110.65 75.2 110.65 77.15 110.65 78.7 112.2 L78.85 112.35 Q80.35 114.05 80.35 116.45" fill="#7c5c53" fill-rule="evenodd" stroke="none"/>
    <path d="M81.85 65.6 Q84.35 61.1 88.8 58.45 93.75 56.3 96.25 61.4 97.9 64.8 97.2 68.1 99.65 69.8 99.8 72.2 L98.75 75.45 Q97.05 78.9 93.45 78.95 L91.3 78.65 Q85.9 77.55 83.2 72.55 L82.9 72.0 Q80.45 73.15 78.8 71.95 L78.3 73.1 Q76.3 76.9 72.0 79.6 L70.05 80.4 64.8 80.2 Q61.35 78.8 60.4 74.9 L62.95 71.55 61.7 69.7 Q57.2 65.25 60.6 60.75 64.75 57.15 71.95 59.2 76.55 61.55 79.1 65.35 L81.85 65.6 M85.1 92.8 L85.1 92.0 85.05 87.95 Q88.35 88.85 92.9 86.9 L94.8 91.15 93.1 92.0 Q89.8 93.25 85.1 92.8 M95.5 92.6 L96.5 94.9 96.9 95.95 94.55 97.15 93.2 93.9 95.5 92.6 M97.7 97.65 Q100.45 104.75 102.35 111.5 101.65 109.7 100.55 108.4 99.0 106.5 97.2 106.5 95.3 106.5 94.45 108.4 93.6 110.05 93.85 112.2 L93.95 112.95 Q94.35 115.55 95.9 117.4 97.6 119.3 99.4 119.3 101.2 119.3 102.2 117.4 103.1 115.55 102.65 112.95 L102.65 112.8 Q102.7 113.25 102.9 113.7 103.4 118.2 102.75 121.4 101.45 127.55 95.8 128.95 87.9 130.6 86.7 121.4 86.5 119.95 86.45 118.2 L85.95 112.2 85.35 100.0 Q92.7 101.15 97.7 97.65 M85.3 97.9 L85.1 94.9 85.1 94.55 87.55 94.75 87.5 98.15 85.3 97.9 M89.7 98.15 L89.6 94.65 91.45 94.35 92.5 97.8 89.7 98.15 M69.4 98.9 L70.15 95.8 72.7 96.4 72.3 99.7 69.4 98.9 M70.55 94.0 L71.65 89.55 Q75.25 90.35 78.95 88.6 L79.9 92.0 80.35 93.75 Q76.5 95.55 70.55 94.0 M80.85 95.75 L81.5 98.75 79.7 99.45 79.05 96.3 80.85 95.75 M81.85 100.55 Q83.05 106.5 83.6 112.2 L83.8 115.2 Q84.2 118.65 84.05 121.4 83.45 131.15 75.4 131.45 65.5 131.5 65.0 121.4 64.8 118.25 65.55 114.05 L68.85 100.95 Q71.1 101.95 76.3 102.0 79.8 101.85 81.85 100.55 M80.35 116.45 Q80.35 114.05 78.85 112.35 L78.7 112.2 Q77.15 110.65 75.2 110.65 73.2 110.65 71.65 112.2 L71.5 112.35 Q70.05 114.05 70.05 116.45 70.05 118.8 71.5 120.55 L72.45 121.4 Q73.7 122.3 75.2 122.3 76.65 122.3 77.9 121.4 L78.85 120.55 Q80.35 118.8 80.35 116.45 M74.7 96.6 L77.1 96.55 77.25 99.95 74.6 100.0 74.7 96.6" fill="#835848" fill-rule="evenodd" stroke="none"/>
  </g>
</svg>
