<?xml version="1.0" encoding="UTF-8" standalone="no"?>
<svg xmlns:xlink="http://www.w3.org/1999/xlink" height="102.85px" width="165.35px" xmlns="http://www.w3.org/2000/svg">
  <g transform="matrix(1.0, 0.0, 0.0, 1.0, 82.65, 51.45)">
    <path d="M23.75 15.2 L23.35 13.1 Q19.4 -7.1 9.0 -30.35 0.2 -41.3 -11.9 -45.5 L-12.35 -45.7 -15.15 -46.5 -19.75 -46.15 -23.7 -46.3 -25.1 -46.5 -27.5 -45.3 -27.85 -45.15 Q-40.15 -37.85 -43.85 -23.1 -47.75 -5.05 -45.15 14.75 L-44.05 21.75 -22.05 21.0 0.0 18.2 Q23.8 15.6 43.35 15.0 50.1 14.5 54.35 11.85 L54.5 11.6 54.35 7.9 54.3 6.8 54.2 6.05 Q53.4 -0.4 50.75 -9.75 47.0 -25.8 33.6 -35.75 13.9 -47.8 -11.5 -47.95 L-12.65 -47.95 -12.95 -47.95 -12.95 -47.65 -13.35 -47.2 Q-13.9 -46.75 -15.15 -46.5 M-44.05 21.75 L-46.0 21.7 -49.75 21.55 Q-37.6 36.75 -20.55 46.2 -5.15 55.0 25.25 45.35 49.4 34.6 67.45 37.1 72.45 37.8 75.95 39.7 80.6 42.35 81.45 41.65 82.7 40.6 77.6 36.2 L69.85 27.95 54.35 11.85 M-12.95 -47.95 L-12.95 -48.4 Q-13.25 -50.0 -16.7 -50.25 L-24.0 -50.0 Q-25.75 -49.6 -26.35 -48.95 L-26.75 -48.25 -26.75 -48.05 -26.75 -47.3 -25.1 -46.5 M-26.75 -48.05 Q-38.25 -48.75 -49.25 -43.45 -68.2 -33.85 -75.35 -18.4 -82.6 -2.95 -81.5 14.45 -71.15 20.55 -49.75 21.55" fill="none" stroke="#000000" stroke-linecap="round" stroke-linejoin="round" stroke-width="2.0"/>
  </g>
</svg>
