<?xml version="1.0" encoding="UTF-8" standalone="no"?>
<svg xmlns:xlink="http://www.w3.org/1999/xlink" height="59.35px" width="143.1px" xmlns="http://www.w3.org/2000/svg">
  <g transform="matrix(1.0, 0.0, 0.0, 1.0, 71.55, 29.65)">
    <path d="M-55.95 -12.2 L-55.8 -12.7 Q-54.75 -16.35 -52.9 -17.35 -33.8 -27.95 7.35 -28.65 32.15 -27.55 47.3 -19.75 51.05 -16.5 52.2 -12.05 54.05 -5.0 53.0 -1.8 62.2 9.0 69.9 21.8 71.3 24.15 69.75 25.65 64.1 28.4 51.0 21.2 37.9 14.0 22.7 12.75 3.05 12.25 -23.5 26.3 -33.75 30.4 -39.05 27.45 -49.8 19.0 -54.95 3.35 -55.8 3.15 -56.3 1.6 L-56.45 1.1 Q-65.05 4.65 -70.55 8.8 -69.55 3.0 -66.5 -4.9 -62.35 -8.85 -55.95 -12.2 L-56.85 -7.75 Q-57.1 -1.7 -56.45 1.1 M53.0 -1.8 Q38.55 -6.95 9.5 -8.25 -28.95 -6.4 -54.95 3.35" fill="none" stroke="#000000" stroke-linecap="round" stroke-linejoin="round" stroke-width="2.0"/>
  </g>
</svg>
