<?xml version="1.0" encoding="UTF-8" standalone="no"?>
<svg xmlns:xlink="http://www.w3.org/1999/xlink" height="93.7px" width="189.0px" xmlns="http://www.w3.org/2000/svg">
  <g transform="matrix(1.0, 0.0, 0.0, 1.0, 94.5, 46.85)">
    <path d="M4.4 -45.4 Q18.3 -50.45 32.25 -37.7 35.45 -34.95 38.35 -31.6 77.8 -33.7 87.9 -26.45 97.85 -19.25 92.85 -4.9 86.45 8.1 76.15 18.4 63.65 30.9 45.3 39.3 8.8 53.65 -43.8 40.75 L-41.9 38.2 -23.9 18.1 Q-17.7 21.3 -14.75 20.6 -12.5 19.85 -11.65 19.15 L-11.45 18.95 Q-9.15 19.55 -8.55 15.9 L-7.65 12.6 Q22.1 14.3 40.9 3.1 52.7 -4.2 50.15 -11.9 L46.95 -18.8 Q24.45 0.6 -2.85 0.0 -2.35 -5.45 -8.7 -6.4 -15.9 -7.3 -24.65 -4.15 L-27.65 -2.75 Q-33.75 -4.6 -38.3 -7.4 -40.5 -17.15 -47.1 -22.8 -44.9 -31.05 -38.85 -36.6 -29.85 -44.15 -18.05 -44.45 L-11.05 -44.0 Q-3.1 -43.0 4.4 -45.4 M-57.45 -20.35 Q-59.8 -15.5 -59.8 -10.25 -66.55 -3.85 -63.8 1.7 -62.15 6.25 -53.0 6.55 -58.7 14.45 -68.2 21.85 -71.1 24.65 -72.8 28.1 -99.75 13.55 -93.25 -4.5 -87.4 -19.45 -56.3 -22.0 L-57.45 -20.35 M-44.8 18.2 L-57.6 34.1 -58.35 35.6 -62.7 33.4 Q-59.05 25.75 -44.8 18.2" fill="#dbb06c" fill-rule="evenodd" stroke="none"/>
    <path d="M-36.65 1.8 L-36.3 2.2 Q-35.95 2.75 -35.95 3.45 -35.95 4.35 -36.6 4.95 L-36.65 5.0 -37.55 5.65 -38.25 5.7 Q-39.2 5.7 -39.9 5.0 -40.5 4.4 -40.5 3.45 -40.5 2.6 -40.05 2.0 L-39.9 1.8 Q-39.2 1.15 -38.25 1.15 L-37.6 1.25 Q-37.05 1.35 -36.65 1.8" fill="#faee0e" fill-rule="evenodd" stroke="none"/>
  </g>
</svg>
