<?xml version="1.0" encoding="UTF-8" standalone="no"?>
<svg xmlns:xlink="http://www.w3.org/1999/xlink" height="13.6px" width="13.8px" xmlns="http://www.w3.org/2000/svg">
  <g transform="matrix(1.0, 0.0, 0.0, 1.0, 42.45, 21.6)">
    <path d="M-35.25 -16.8 L-35.75 -16.85 Q-36.55 -16.85 -37.15 -16.35 L-37.25 -16.15 Q-37.65 -15.65 -37.65 -14.95 -37.65 -14.2 -37.15 -13.7 -36.55 -13.1 -35.75 -13.1 L-35.2 -13.15 -34.45 -13.7 -34.4 -13.75 Q-33.85 -14.2 -33.85 -14.95 -33.85 -15.55 -34.15 -16.0 L-34.45 -16.35 Q-34.8 -16.7 -35.25 -16.8 M-40.5 -16.75 Q-41.65 -18.25 -40.75 -19.35 -40.0 -19.75 -38.9 -19.05 -39.3 -20.45 -38.35 -20.95 -37.15 -20.85 -36.4 -19.7 -36.0 -20.85 -35.35 -21.3 L-34.7 -21.6 Q-33.7 -21.4 -33.55 -19.8 -32.45 -21.1 -31.5 -20.25 -31.1 -19.25 -32.05 -18.0 L-29.65 -18.25 -29.2 -18.0 Q-28.4 -16.9 -29.8 -15.4 -28.7 -15.05 -28.65 -14.35 -28.85 -13.6 -29.9 -13.4 -28.85 -11.35 -29.5 -10.65 L-32.05 -10.75 Q-31.75 -10.1 -31.85 -9.55 -31.9 -9.1 -32.3 -8.75 L-33.15 -8.65 -33.4 -8.8 -34.05 -9.5 Q-34.8 -7.8 -36.25 -8.0 -36.6 -8.1 -36.85 -8.3 -37.4 -8.8 -37.4 -10.15 -38.9 -8.65 -39.75 -9.65 -40.45 -10.45 -39.8 -11.4 -40.95 -11.0 -41.7 -12.1 L-41.8 -12.8 Q-41.7 -13.4 -40.65 -13.95 -42.7 -14.45 -42.4 -15.6 -42.1 -16.75 -40.5 -16.75" fill="#ffffff" fill-rule="evenodd" stroke="none"/>
  </g>
</svg>
