<?xml version="1.0" encoding="UTF-8" standalone="no"?>
<svg xmlns:xlink="http://www.w3.org/1999/xlink" height="122.9px" width="191.0px" xmlns="http://www.w3.org/2000/svg">
  <g transform="matrix(1.0, 0.0, 0.0, 1.0, 95.5, 61.45)">
    <path d="M38.35 -45.2 Q35.45 -48.55 32.25 -51.3 18.3 -64.05 4.4 -59.0 -3.1 -56.6 -11.05 -57.6 L-18.05 -58.05 Q-29.85 -57.75 -38.85 -50.2 -44.9 -44.65 -47.1 -36.4 -40.5 -30.75 -38.3 -21.0 -33.75 -18.2 -27.65 -16.35 L-24.65 -17.75 Q-15.9 -20.9 -8.7 -20.0 -2.35 -19.05 -2.85 -13.6 24.45 -13.0 46.95 -32.4 43.2 -39.65 38.35 -45.2 77.8 -47.3 87.9 -40.05 97.85 -32.85 92.85 -18.5 86.45 -5.5 76.15 4.8 63.65 17.3 45.3 25.7 8.8 40.05 -43.8 27.15 -46.45 31.5 -47.95 39.75 -49.95 52.3 -54.85 60.45 L-58.0 50.5 -63.95 57.7 Q-60.5 44.25 -60.35 33.3 -60.2 26.05 -58.35 22.0 L-62.7 19.8 -62.95 20.35 Q-65.15 34.05 -71.1 44.75 L-72.6 37.0 -78.1 41.45 -74.65 19.65 Q-74.05 16.9 -72.8 14.5 -99.75 -0.05 -93.25 -18.1 -87.4 -33.05 -56.3 -35.6 L-56.3 -35.65 Q-55.25 -36.95 -54.0 -37.6 -51.05 -39.15 -47.1 -36.4 M-2.85 -13.6 Q-3.1 -11.05 -4.85 -7.5 -6.2 -5.05 -7.15 -2.5 L-7.65 -1.0 Q22.1 0.7 40.9 -10.5 52.7 -17.8 50.15 -25.5 L46.95 -32.4 M-56.3 -35.6 L-57.45 -33.95 Q-59.8 -29.1 -59.8 -23.85 -66.55 -17.45 -63.8 -11.9 -62.15 -7.35 -53.0 -7.05 -58.7 0.85 -68.2 8.25 -71.1 11.05 -72.8 14.5 M-37.75 -17.8 L-38.3 -21.0 M-30.85 -14.1 Q-29.2 -15.65 -27.65 -16.35 M-7.65 -1.0 L-8.55 2.3 Q-9.15 5.95 -11.45 5.35 L-11.65 5.55 Q-12.5 6.25 -14.75 7.0 -17.7 7.7 -23.9 4.5 L-41.9 24.6 -43.8 27.15 M-44.8 4.6 L-57.6 20.5 -58.35 22.0 M-62.7 19.8 Q-59.05 12.15 -44.8 4.6" fill="none" stroke="#000000" stroke-linecap="round" stroke-linejoin="round" stroke-width="2.0"/>
    <path d="M-59.8 -23.85 L-56.65 -26.5 M-53.0 -7.05 L-45.55 -7.5 Q-45.4 -8.25 -44.15 -8.9 -46.65 -9.5 -46.25 -10.9 -45.9 -12.3 -43.95 -12.3 -45.35 -14.15 -44.25 -15.45 -43.4 -15.95 -42.05 -15.1 -42.5 -16.8 -41.35 -17.4 -39.95 -17.25 -39.0 -15.9 -44.25 -28.75 -54.0 -37.6 M-44.8 4.6 L-39.55 -2.05 Q-40.25 -2.7 -40.25 -4.3 -42.05 -2.5 -43.05 -3.7 -43.9 -4.65 -43.15 -5.8 -44.55 -5.35 -45.4 -6.65 -45.7 -7.05 -45.55 -7.5 M-39.0 -15.9 Q-38.5 -17.25 -37.75 -17.8 L-36.95 -18.15 Q-35.75 -17.95 -35.55 -16.0 -34.25 -17.55 -33.05 -16.55 -32.6 -15.35 -33.75 -13.8 L-30.85 -14.1 -30.3 -13.8 Q-29.35 -12.5 -31.0 -10.7 -29.7 -10.25 -29.65 -9.4 -29.85 -8.5 -31.15 -8.25 -29.85 -5.75 -30.65 -4.95 L-33.75 -5.05 Q-33.4 -4.25 -33.5 -3.6 -33.55 -3.05 -34.05 -2.65 L-35.05 -2.5 -35.4 -2.7 -36.15 -3.5 Q-37.05 -4.85 -37.55 -7.95 -39.05 -5.5 -40.25 -4.3 M-35.55 -16.0 Q-36.5 -14.9 -37.6 -12.35 -37.05 -12.25 -36.65 -11.8 L-36.3 -11.4 -36.05 -11.6 Q-34.5 -12.8 -33.75 -13.8 M-37.6 -12.35 L-38.25 -12.45 Q-39.2 -12.45 -39.9 -11.8 L-40.05 -11.6 Q-40.5 -11.0 -40.5 -10.15 -40.5 -9.2 -39.9 -8.6 -39.2 -7.9 -38.25 -7.9 L-37.55 -7.95 -36.65 -8.6 -36.6 -8.65 Q-35.95 -9.25 -35.95 -10.15 -35.95 -10.85 -36.3 -11.4 M-39.55 -2.05 L-38.85 -1.7 Q-37.05 -1.5 -36.15 -3.5 M-23.9 4.5 Q-28.6 2.05 -35.05 -2.5 M-11.45 5.35 Q-10.55 4.25 -12.7 3.15 -23.1 1.4 -33.5 -3.6 M-31.0 -10.7 Q-32.6 -11.4 -36.05 -11.6 M-31.15 -8.25 L-36.6 -8.65 Q-34.5 -6.5 -33.75 -5.05 M-37.6 -12.35 Q-38.1 -14.65 -39.0 -15.9 M-7.15 -2.5 Q-9.15 -6.45 -13.25 -8.3 M-42.05 -15.1 Q-41.6 -13.75 -40.05 -11.6 -42.45 -12.35 -43.95 -12.3 M-44.15 -8.9 L-39.9 -8.6 Q-42.35 -7.05 -43.15 -5.8" fill="none" stroke="#000000" stroke-linecap="round" stroke-linejoin="round" stroke-width="1.5"/>
  </g>
</svg>
