<?xml version="1.0" encoding="UTF-8" standalone="no"?>
<svg xmlns:xlink="http://www.w3.org/1999/xlink" height="85.65px" width="139.15px" xmlns="http://www.w3.org/2000/svg">
  <g transform="matrix(1.0, 0.0, 0.0, 1.0, 69.6, 42.85)">
    <path d="M65.2 -13.5 Q71.35 -8.65 68.8 -2.9 58.05 8.95 38.05 18.2 -15.7 42.75 -46.1 39.0 -59.0 45.1 -65.45 41.4 -78.3 29.45 -51.5 -7.85 -21.0 -42.0 19.7 -42.7 L20.2 -42.7 Q53.3 -44.1 63.5 -30.3 68.6 -22.55 65.95 -15.2 L65.2 -13.5 M48.1 10.8 L56.45 -2.35 52.5 -23.1 Q42.9 -22.55 32.1 -25.55 27.8 -16.8 20.2 -9.1 L32.9 8.15 48.1 10.8" fill="#5f7218" fill-rule="evenodd" stroke="none"/>
  </g>
</svg>
