<?xml version="1.0" encoding="UTF-8" standalone="no"?>
<svg xmlns:xlink="http://www.w3.org/1999/xlink" height="154.1px" width="176.3px" xmlns="http://www.w3.org/2000/svg">
  <g transform="matrix(1.0, 0.0, 0.0, 1.0, 88.15, 77.05)">
    <path d="M41.85 -50.2 Q54.1 -44.7 65.65 -41.7 72.1 -39.85 77.95 -41.15 92.0 -19.35 86.7 4.65 81.4 3.3 76.5 2.5 71.0 1.5 66.15 1.25 L61.2 1.15 Q53.7 1.3 48.1 3.3 L25.45 5.7 -18.65 -13.5 Q-26.6 -17.05 -36.6 -18.6 -59.7 -20.05 -65.2 2.0 -68.3 14.65 -61.05 25.65 L-58.4 29.3 -54.2 33.75 Q-49.7 37.85 -42.55 41.2 -37.95 43.35 -32.2 45.2 -24.7 47.55 -15.2 49.3 L-1.15 51.4 6.7 52.25 14.2 53.9 27.3 55.05 26.4 50.45 Q39.55 46.45 42.25 39.85 L45.2 41.15 44.65 42.55 Q44.8 48.05 51.1 46.45 L51.55 43.0 Q60.35 47.6 55.55 51.1 50.7 54.6 53.75 62.95 54.75 65.6 52.35 70.25 49.35 77.95 18.65 76.95 3.5 76.0 -9.55 67.1 -20.45 59.65 -36.1 60.45 L-63.35 60.45 Q-81.25 47.1 -86.2 25.65 -87.55 19.7 -88.0 13.15 -88.85 -1.65 -84.4 -18.9 -82.85 -24.95 -80.65 -31.35 -78.35 -38.0 -75.3 -45.0 -73.45 -41.25 -70.25 -38.0 -62.7 -30.5 -52.15 -30.5 -41.5 -30.5 -34.0 -38.0 -26.45 -45.5 -26.45 -56.1 -26.45 -66.7 -33.95 -74.15 -29.65 -76.75 -23.85 -77.05 -11.5 -77.55 7.7 -67.4 30.15 -55.45 41.85 -50.2" fill="#6c9d09" fill-rule="evenodd" stroke="none"/>
  </g>
</svg>
