<?xml version="1.0" encoding="UTF-8" standalone="no"?>
<svg xmlns:xlink="http://www.w3.org/1999/xlink" height="83.4px" width="78.5px" xmlns="http://www.w3.org/2000/svg">
  <g transform="matrix(1.0, 0.0, 0.0, 1.0, 39.25, 41.7)">
    <path d="M15.0 -20.85 L10.65 -28.45 Q15.6 -36.5 21.4 -41.7 31.6 -39.35 39.25 -33.85 L34.65 -17.6 Q28.85 -17.3 24.55 -14.7 L24.5 -14.75 Q20.25 -19.0 15.0 -20.85 M-11.85 -14.65 L-12.2 -22.2 -0.15 -24.2 0.05 -21.5 -3.15 -20.5 Q-7.85 -18.65 -11.75 -14.75 L-11.85 -14.65 M-17.05 13.9 L-23.65 13.2 -24.85 0.4 -18.6 -2.65 Q-19.25 0.2 -19.25 3.35 -19.25 9.05 -17.05 13.9" fill="#f68400" fill-rule="evenodd" stroke="none"/>
    <path d="M-25.9 40.55 L-31.6 41.7 -39.25 31.0 -28.05 20.5 -22.15 28.1 Q-24.35 34.5 -25.9 40.55" fill="#fa850a" fill-rule="evenodd" stroke="none"/>
  </g>
</svg>
