<?xml version="1.0" encoding="UTF-8" standalone="no"?>
<svg xmlns:xlink="http://www.w3.org/1999/xlink" height="270.75px" width="156.5px" xmlns="http://www.w3.org/2000/svg">
  <g transform="matrix(1.0, 0.0, 0.0, 1.0, 78.25, 135.35)">
    <path d="M-11.1 -93.5 Q-33.85 -87.05 -51.2 -74.75 -27.45 -100.85 9.4 -110.65 L15.15 -111.5 -6.2 -111.5 Q29.45 -125.4 49.25 -109.1 46.15 -120.45 29.9 -135.35 51.3 -126.3 62.05 -115.35 56.7 -109.05 54.15 -101.6 51.15 -92.9 52.05 -82.75 48.05 -82.9 46.55 -80.75 26.25 -98.2 -7.55 -94.45 L-10.45 -94.1 -11.1 -93.5 -10.25 -93.7 Q9.05 -55.8 55.95 -62.35 71.3 -69.55 77.55 -80.1 82.6 -59.1 52.05 -49.95 37.95 -26.55 35.3 36.5 35.4 53.55 28.4 71.5 21.4 89.45 16.0 105.65 12.0 84.6 15.2 60.6 L14.55 64.2 Q8.2 97.8 12.15 111.8 0.4 96.15 0.05 72.9 -0.3 108.05 8.7 135.4 -17.25 97.0 -19.05 62.05 -18.9 85.85 -9.5 105.3 -44.7 68.05 -37.9 23.95 -43.1 37.4 -52.75 43.45 -47.85 28.65 -45.9 0.15 -47.25 -18.0 -39.4 -33.85 -54.1 -14.8 -63.25 2.9 -56.9 -38.55 -35.8 -58.25 -54.0 -46.25 -78.25 -52.35 -51.9 -57.0 -40.2 -71.45 -31.0 -84.4 -11.1 -93.5" fill="url(#gradient0)" fill-rule="evenodd" stroke="none"/>
  </g>
  <defs>
    <linearGradient gradientTransform="matrix(0.0, 0.117, -0.0955, 0.0, 0.0, 42.0)" gradientUnits="userSpaceOnUse" id="gradient0" spreadMethod="pad" x1="-819.2" x2="819.2">
      <stop offset="0.0" stop-color="#fff23c" stop-opacity="0.0"/>
      <stop offset="0.3803921568627451" stop-color="#fff23c" stop-opacity="0.84705883"/>
      <stop offset="0.6039215686274509" stop-color="#fff23c" stop-opacity="0.8"/>
      <stop offset="1.0" stop-color="#fff23c" stop-opacity="0.0"/>
    </linearGradient>
  </defs>
</svg>
