<?xml version="1.0" encoding="UTF-8" standalone="no"?>
<svg xmlns:xlink="http://www.w3.org/1999/xlink" height="13.85px" width="23.25px" xmlns="http://www.w3.org/2000/svg">
  <g transform="matrix(1.0, 0.0, 0.0, 1.0, 11.65, 6.9)">
    <path d="M3.7 -6.9 L3.7 6.95 3.15 6.95 3.15 -6.9 3.7 -6.9 M9.95 -6.9 L9.95 6.95 8.9 6.95 8.9 -6.9 9.95 -6.9 M4.75 -6.9 L4.75 6.95 4.2 6.95 4.2 -6.9 4.75 -6.9 M8.4 -6.9 L8.4 6.95 7.8 6.95 7.8 -6.9 8.4 -6.9 M7.35 -6.9 L7.35 6.95 6.2 6.95 6.2 -6.9 7.35 -6.9 M11.6 -6.9 L11.6 6.95 11.0 6.95 11.0 -6.9 11.6 -6.9 M0.85 -6.9 L0.85 6.95 0.35 6.95 0.35 -6.9 0.85 -6.9 M2.65 -6.9 L2.65 6.95 2.15 6.95 2.15 -6.9 2.65 -6.9 M-11.15 -6.9 L-11.15 6.95 -11.65 6.95 -11.65 -6.9 -11.15 -6.9 M-8.0 -6.9 L-8.0 6.95 -9.15 6.95 -9.15 -6.9 -8.0 -6.9 M-1.3 -6.9 L-1.3 6.95 -2.2 6.95 -2.2 -6.9 -1.3 -6.9 M-0.15 -6.9 L-0.15 6.95 -0.8 6.95 -0.8 -6.9 -0.15 -6.9 M-6.0 -6.9 L-6.0 6.95 -6.9 6.95 -6.9 -6.9 -6.0 -6.9 M-4.85 -6.9 L-4.85 6.95 -5.4 6.95 -5.4 -6.9 -4.85 -6.9 M-3.3 -6.9 L-3.3 6.95 -3.85 6.95 -3.85 -6.9 -3.3 -6.9 M-9.55 -6.9 L-9.55 6.95 -10.6 6.95 -10.6 -6.9 -9.55 -6.9" fill="#2b9334" fill-rule="evenodd" stroke="none"/>
  </g>
</svg>
