<?xml version="1.0" encoding="UTF-8" standalone="no"?>
<svg xmlns:xlink="http://www.w3.org/1999/xlink" height="39.4px" width="115.3px" xmlns="http://www.w3.org/2000/svg">
  <g transform="matrix(1.0, 0.0, 0.0, 1.0, 57.65, 19.7)">
    <path d="M56.55 -12.85 L56.6 -12.85 56.65 -12.75 56.55 -12.85" fill="#9bf2c9" fill-rule="evenodd" stroke="none"/>
    <path d="M-56.9 -18.95 Q-52.2 -15.7 -34.0 -7.05 -27.8 -4.4 -5.95 -3.4 15.9 -2.4 37.75 -6.3 54.8 -9.35 56.75 -11.45 L56.75 -11.25 Q57.3 -3.7 55.9 2.8 54.7 5.6 51.9 7.95 42.65 15.6 16.45 18.3 -12.95 20.9 -33.9 13.05 -37.1 11.8 -37.85 10.1 -42.25 9.1 -48.35 1.45 M-37.85 10.1 Q-31.2 1.05 -34.0 -7.05" fill="none" stroke="#000000" stroke-linecap="round" stroke-linejoin="round" stroke-width="1.5"/>
    <path d="M47.3 -4.85 L53.85 -6.2 Q54.55 -5.3 52.9 4.05 M11.8 0.05 Q32.0 -1.2 42.0 -4.0 M-23.65 -1.6 Q-18.8 -0.1 -10.15 -0.45 M-33.9 13.05 Q-28.05 5.4 -28.65 -2.65" fill="none" stroke="#000000" stroke-linecap="round" stroke-linejoin="round" stroke-width="1.0"/>
  </g>
</svg>
