<?xml version="1.0" encoding="UTF-8" standalone="no"?>
<svg xmlns:xlink="http://www.w3.org/1999/xlink" height="52.65px" width="43.05px" xmlns="http://www.w3.org/2000/svg">
  <g transform="matrix(1.0, 0.0, 0.0, 1.0, 21.5, 26.3)">
    <path d="M14.8 -2.0 L15.15 1.8 Q17.55 12.25 20.55 20.1 16.85 23.85 3.05 25.35 -15.35 25.2 -20.5 20.3 L-16.65 10.1 Q-15.5 3.55 -17.6 -4.25 -21.4 -17.8 -13.0 -23.75 L-12.85 -23.85 -10.4 -25.3 -10.35 -25.2 Q-8.0 -17.75 2.75 -16.9 5.85 -18.65 4.35 -23.75 L4.35 -23.8 14.95 -13.4 Q18.0 -8.65 16.25 -4.45 L14.8 -2.0 14.45 -1.55" fill="none" stroke="#000000" stroke-linecap="round" stroke-linejoin="round" stroke-width="2.0"/>
    <path d="M-5.35 -0.55 L0.55 -0.7 Q3.1 -1.5 4.1 -3.15" fill="none" stroke="#000000" stroke-linecap="round" stroke-linejoin="round" stroke-width="1.0"/>
  </g>
</svg>
