<?xml version="1.0" encoding="UTF-8" standalone="no"?>
<svg xmlns:xlink="http://www.w3.org/1999/xlink" height="44.5px" width="41.05px" xmlns="http://www.w3.org/2000/svg">
  <g transform="matrix(1.0, 0.0, 0.0, 1.0, 20.5, 22.25)">
    <path d="M-3.7 -21.8 L0.1 -21.5 Q4.05 -21.45 6.55 -21.65 L8.95 -21.9 9.0 -22.0 9.6 -22.15 Q13.45 -22.2 13.1 -18.75 L12.9 -18.5 12.6 -18.15 Q10.05 -16.15 0.05 -15.9 -15.45 -15.0 -18.5 -18.25 L-18.6 -18.35 -18.7 -18.45 Q-19.5 -21.15 -16.35 -22.1 L-16.15 -22.15 Q-13.15 -22.4 -8.05 -22.1 L-3.7 -21.8 M15.75 1.25 Q17.9 10.15 20.55 17.0 16.85 20.75 3.05 22.25 -15.35 22.1 -20.5 17.2 L-16.65 7.0 Q-16.2 4.55 -16.25 1.9 L7.7 2.7 Q14.4 2.25 15.75 1.25" fill="#b68d82" fill-rule="evenodd" stroke="none"/>
  </g>
</svg>
