<?xml version="1.0" encoding="UTF-8" standalone="no"?>
<svg xmlns:xlink="http://www.w3.org/1999/xlink" height="24.1px" width="3.45px" xmlns="http://www.w3.org/2000/svg">
  <g transform="matrix(1.0, 0.0, 0.0, 1.0, 1.7, 12.05)">
    <path d="M0.95 -10.45 Q1.0 -9.75 0.7 -9.3 0.3 -8.85 -0.25 -8.85 -0.75 -8.85 -1.2 -9.3 -1.65 -9.75 -1.7 -10.45 -1.75 -11.1 -1.4 -11.6 -1.0 -12.05 -0.5 -12.05 L0.5 -11.6 0.95 -10.45 M1.75 -0.5 Q1.75 0.2 1.4 0.65 1.0 1.1 0.45 1.1 L-0.5 0.65 Q-0.9 0.2 -0.9 -0.5 -0.9 -1.15 -0.5 -1.65 L0.45 -2.1 Q1.0 -2.1 1.4 -1.65 1.75 -1.15 1.75 -0.5 M1.55 10.45 L1.2 11.6 Q0.8 12.05 0.25 12.05 -0.25 12.05 -0.7 11.6 -1.1 11.15 -1.1 10.45 -1.1 9.8 -0.7 9.3 -0.25 8.85 0.25 8.85 0.8 8.85 1.2 9.3 1.55 9.8 1.55 10.45" fill="#fffd83" fill-rule="evenodd" stroke="none"/>
  </g>
</svg>
