<?xml version="1.0" encoding="UTF-8" standalone="no"?>
<svg xmlns:xlink="http://www.w3.org/1999/xlink" height="54.3px" width="42.45px" xmlns="http://www.w3.org/2000/svg">
  <g transform="matrix(1.0, 0.0, 0.0, 1.0, 21.25, 27.15)">
    <path d="M9.35 -18.05 L8.55 -16.9 Q8.75 -16.35 9.35 -18.05 15.4 1.85 14.05 16.3 11.65 21.6 7.6 26.75 L2.25 27.15 -3.35 16.4 Q-3.7 -2.4 -8.25 -18.45 L-13.15 -19.5 Q-8.8 -5.05 -9.9 17.25 L-18.5 25.2 Q-22.25 24.3 -20.85 20.7 -19.45 17.1 -18.1 11.8 -16.75 6.45 -18.8 -4.45 -20.85 -15.35 -18.05 -20.5 -15.2 -25.7 -9.7 -27.15 -6.8 -26.0 0.15 -23.95 L2.95 -20.85 4.25 -22.45 Q4.5 -24.35 5.1 -25.8 10.35 -25.1 12.75 -23.05 L9.35 -18.05 M17.6 17.25 L21.2 26.05 11.1 26.75 Q15.8 22.0 15.85 17.3 L17.6 17.25 M4.75 18.15 Q4.1 17.55 3.2 17.55 2.25 17.55 1.55 18.15 0.9 18.8 0.9 19.7 0.9 20.55 1.55 21.2 2.25 21.85 3.2 21.85 4.1 21.85 4.75 21.2 5.45 20.55 5.45 19.7 5.45 18.8 4.75 18.15 M3.35 11.0 Q4.05 10.4 4.05 9.5 4.05 8.65 3.35 7.95 2.7 7.35 1.8 7.35 0.85 7.35 0.15 7.95 -0.5 8.65 -0.5 9.5 -0.5 10.4 0.15 11.0 0.85 11.65 1.8 11.65 2.7 11.65 3.35 11.0 M1.45 -11.7 Q1.45 -12.6 0.75 -13.25 0.1 -13.85 -0.85 -13.85 -1.75 -13.85 -2.45 -13.25 -3.1 -12.6 -3.1 -11.7 -3.1 -10.85 -2.45 -10.2 -1.75 -9.55 -0.85 -9.55 0.1 -9.55 0.75 -10.2 1.45 -10.85 1.45 -11.7 M-1.0 0.45 Q-0.3 1.1 0.6 1.1 1.55 1.1 2.2 0.45 2.9 -0.15 2.9 -1.05 2.9 -1.95 2.2 -2.6 1.55 -3.2 0.6 -3.2 -0.3 -3.2 -1.0 -2.6 -1.65 -1.95 -1.65 -1.05 -1.65 -0.15 -1.0 0.45 M-7.15 18.35 L-5.65 18.4 -0.8 27.15 -15.0 26.3 -7.15 18.35" fill="#fcffea" fill-rule="evenodd" stroke="none"/>
  </g>
</svg>
