<?xml version="1.0" encoding="UTF-8" standalone="no"?>
<svg xmlns:xlink="http://www.w3.org/1999/xlink" height="27.6px" width="38.5px" xmlns="http://www.w3.org/2000/svg">
  <g transform="matrix(1.0, 0.0, 0.0, 1.0, 19.25, 13.8)">
    <path d="M-13.6 -7.7 L-13.7 -7.35 Q-18.5 -6.65 -15.75 -1.4 L-15.2 -0.5 Q-13.2 2.3 -10.85 4.1 L-10.6 4.35 Q-12.55 9.5 -7.9 7.0 -5.95 9.85 -4.3 7.0 -0.15 8.7 -2.5 3.45 0.9 0.85 2.25 -1.35 3.6 -3.55 2.9 -5.3 2.55 -6.3 1.55 -7.15 L1.35 -7.35 Q0.1 -11.5 -3.25 -10.55 -6.55 -14.35 -9.9 -10.45 L-10.15 -10.2 Q-12.7 -10.85 -13.6 -7.7 M6.55 -11.15 L6.35 -10.9 Q4.15 -11.35 3.35 -8.85 2.2 -9.05 1.55 -7.15 M12.9 -11.45 Q9.4 -14.55 6.55 -11.15 M17.15 -8.3 Q16.8 -11.65 13.2 -11.2 L12.9 -11.45 M17.15 -8.3 L17.15 -8.1 Q20.35 -5.2 15.25 0.65 14.65 5.2 16.05 10.65 6.85 14.3 -16.45 12.2 -15.45 5.35 -18.4 -0.25 L-15.75 -1.4 M15.25 0.65 L13.55 3.0 Q15.0 7.6 11.7 5.5 11.25 6.85 10.3 6.95 9.3 7.0 8.5 5.5 4.95 8.9 6.1 3.45 2.7 0.8 2.25 -1.35" fill="none" stroke="#000000" stroke-linecap="round" stroke-linejoin="round" stroke-width="1.7000000000000002"/>
    <path d="M1.35 -7.35 Q1.15 -4.45 -2.05 -0.15 M9.6 -0.2 Q6.25 -7.2 6.55 -11.15 M11.8 -0.75 Q15.0 -8.15 12.9 -11.45 M14.55 -1.8 Q17.0 -4.75 17.15 -8.3 M7.1 0.15 Q5.1 -1.8 2.9 -5.3 M-10.4 1.1 Q-13.6 -2.45 -13.6 -7.7 M-9.9 -10.45 Q-9.85 -5.85 -7.7 0.55 M-3.25 -10.55 Q-2.6 -5.75 -5.3 0.55" fill="none" stroke="#000000" stroke-linecap="round" stroke-linejoin="round" stroke-opacity="0.69803923" stroke-width="1.2000000000000002"/>
  </g>
</svg>
