<?xml version="1.0" encoding="UTF-8" standalone="no"?>
<svg xmlns:xlink="http://www.w3.org/1999/xlink" height="51.95px" width="42.65px" xmlns="http://www.w3.org/2000/svg">
  <g transform="matrix(1.0, 0.0, 0.0, 1.0, 21.3, 25.95)">
    <path d="M-8.2 -22.35 Q-6.25 -12.85 -2.85 -9.05 -0.75 -8.2 1.8 -8.35 4.35 -8.55 5.8 -9.9 7.0 -13.55 4.05 -22.3 M-12.65 -24.15 Q-8.4 -12.35 -10.9 -7.2 -13.45 -2.1 -17.2 -3.7 M14.35 -5.75 Q10.5 -11.9 7.8 -22.2" fill="none" stroke="#000000" stroke-linecap="round" stroke-linejoin="round" stroke-width="1.0"/>
    <path d="M4.05 -22.3 Q3.25 -20.4 0.4 -19.75 -5.0 -19.9 -8.2 -22.35 -9.75 -23.5 -10.75 -25.15 L-12.65 -24.15 Q-21.6 -18.65 -17.6 -4.4 -17.3 -3.3 -17.2 -3.7 -15.65 4.15 -16.65 8.75 L-20.5 20.15 Q-15.35 25.05 3.05 25.2 16.85 23.7 20.55 19.95 17.55 12.1 15.15 1.65 L14.35 -5.75 Q13.4 -11.65 11.8 -17.0 10.15 -20.2 7.8 -22.2 6.2 -23.6 4.3 -24.45 4.4 -23.25 4.05 -22.3" fill="none" stroke="#000000" stroke-linecap="round" stroke-linejoin="round" stroke-width="1.6"/>
  </g>
</svg>
