<?xml version="1.0" encoding="UTF-8" standalone="no"?>
<svg xmlns:xlink="http://www.w3.org/1999/xlink" height="11.85px" width="22.7px" xmlns="http://www.w3.org/2000/svg">
  <g transform="matrix(1.0, 0.0, 0.0, 1.0, 11.35, 5.9)">
    <path d="M1.6 0.2 L2.1 -5.6 Q4.7 -6.15 6.1 -5.6 L6.1 0.2 Q4.2 -0.15 1.6 0.2 M8.1 0.3 L8.45 -2.9 10.2 -2.5 10.2 0.7 8.1 0.3 M-11.35 2.5 Q-8.05 3.45 -1.95 2.35 L11.35 2.75 11.05 5.35 Q5.55 4.45 -0.65 5.5 -6.85 6.5 -11.1 5.35 -11.4 4.15 -11.35 2.5 M-3.3 0.6 L-2.8 -2.4 -0.45 -2.4 -0.65 0.45 -3.3 0.6 M-9.1 0.4 Q-9.2 -2.55 -7.9 -5.4 L-4.75 -5.45 Q-5.35 -1.75 -5.35 0.7 -8.5 1.2 -9.1 0.4" fill="#a5a8f7" fill-rule="evenodd" stroke="none"/>
  </g>
</svg>
