<?xml version="1.0" encoding="UTF-8" standalone="no"?>
<svg xmlns:xlink="http://www.w3.org/1999/xlink" height="98.4px" width="98.35px" xmlns="http://www.w3.org/2000/svg">
  <g transform="matrix(1.0, 0.0, 0.0, 1.0, 49.2, 49.2)">
    <path d="M23.3 -43.6 L23.45 -43.55 Q38.25 -35.95 43.15 -25.25 L43.15 -25.2 Q51.1 -9.7 48.55 11.6 L48.5 11.75 Q46.95 15.45 48.15 24.6 49.5 34.4 39.05 42.6 28.9 50.65 -2.3 48.85 -24.4 46.2 -31.65 38.5 L-35.0 34.65 Q-36.25 35.55 -39.05 35.1 -42.7 34.4 -46.7 28.9 -51.4 22.2 -47.25 17.15 L-47.15 17.0 Q-45.9 16.0 -44.05 15.75 -46.85 7.15 -47.4 0.35 -47.95 -22.25 -35.9 -34.6 L-35.85 -34.6 Q-17.15 -52.75 9.1 -48.3 L9.2 -48.3 Q17.05 -46.3 23.3 -43.6" fill="#000000" fill-rule="evenodd" stroke="none"/>
  </g>
</svg>
