<?xml version="1.0" encoding="UTF-8" standalone="no"?>
<svg xmlns:xlink="http://www.w3.org/1999/xlink" height="469.95px" width="393.1px" xmlns="http://www.w3.org/2000/svg">
  <g transform="matrix(1.0, 0.0, 0.0, 1.0, 193.6, 235.4)">
    <path d="M-162.6 -232.9 L164.55 -232.9 Q176.4 -232.9 184.7 -224.6 193.05 -216.25 193.05 -204.4 L193.05 203.55 Q193.05 215.35 184.7 223.7 176.4 232.05 164.55 232.05 L-162.6 232.05 Q-174.45 232.05 -182.8 223.7 -191.1 215.35 -191.1 203.55 L-191.1 -204.4 Q-191.1 -216.25 -182.8 -224.6 -174.45 -232.9 -162.6 -232.9" fill="url(#gradient0)" fill-rule="evenodd" stroke="none"/>
    <path d="M-162.6 -232.9 L164.55 -232.9 Q176.4 -232.9 184.7 -224.6 193.05 -216.25 193.05 -204.4 L193.05 203.55 Q193.05 215.35 184.7 223.7 176.4 232.05 164.55 232.05 L-162.6 232.05 Q-174.45 232.05 -182.8 223.7 -191.1 215.35 -191.1 203.55 L-191.1 -204.4 Q-191.1 -216.25 -182.8 -224.6 -174.45 -232.9 -162.6 -232.9 Z" fill="none" stroke="#393c51" stroke-linecap="round" stroke-linejoin="round" stroke-opacity="0.5764706" stroke-width="5.0"/>
    <path d="M198.4 -183.0 L198.5 -182.0 198.5 -153.7 Q198.5 -151.75 197.15 -150.4 195.8 -149.05 193.85 -149.05 191.9 -149.05 190.55 -150.4 189.2 -151.75 189.2 -153.7 L189.2 -182.0 189.3 -183.0 198.4 -183.0 M198.5 -141.55 L198.5 -141.05 198.5 -112.75 Q198.5 -110.8 197.15 -109.45 195.8 -108.1 193.85 -108.1 191.9 -108.1 190.55 -109.45 189.2 -110.8 189.2 -112.75 L189.2 -141.05 189.25 -141.55 198.5 -141.55 M189.25 -25.05 L198.5 -25.05 198.5 -24.65 198.5 3.65 Q198.5 5.6 197.15 6.95 195.8 8.3 193.85 8.3 191.9 8.3 190.55 6.95 189.2 5.6 189.2 3.65 L189.2 -24.65 189.25 -25.05" fill="#7a7698" fill-rule="evenodd" stroke="none"/>
    <path d="M189.3 -183.0 Q189.55 -184.3 190.55 -185.3 191.9 -186.65 193.85 -186.65 195.8 -186.65 197.15 -185.3 198.15 -184.3 198.4 -183.0 L189.3 -183.0 M189.25 -141.55 Q189.4 -143.2 190.55 -144.35 191.9 -145.7 193.85 -145.7 195.8 -145.7 197.15 -144.35 198.3 -143.2 198.5 -141.55 L189.25 -141.55 M198.5 -25.05 L189.25 -25.05 Q189.35 -26.75 190.55 -27.95 191.9 -29.3 193.85 -29.3 195.8 -29.3 197.15 -27.95 198.35 -26.75 198.5 -25.05" fill="#9d98c4" fill-rule="evenodd" stroke="none"/>
    <path d="M189.3 -183.0 Q189.55 -184.3 190.55 -185.3 191.9 -186.65 193.85 -186.65 195.8 -186.65 197.15 -185.3 198.15 -184.3 198.4 -183.0 L198.5 -182.0 198.5 -153.7 Q198.5 -151.75 197.15 -150.4 195.8 -149.05 193.85 -149.05 191.9 -149.05 190.55 -150.4 189.2 -151.75 189.2 -153.7 L189.2 -182.0 189.3 -183.0 M189.25 -141.55 Q189.4 -143.2 190.55 -144.35 191.9 -145.7 193.85 -145.7 195.8 -145.7 197.15 -144.35 198.3 -143.2 198.5 -141.55 L198.5 -141.05 198.5 -112.75 Q198.5 -110.8 197.15 -109.45 195.8 -108.1 193.85 -108.1 191.9 -108.1 190.55 -109.45 189.2 -110.8 189.2 -112.75 L189.2 -141.05 189.25 -141.55 M189.25 -25.05 L189.2 -24.65 189.2 3.65 Q189.2 5.6 190.55 6.95 191.9 8.3 193.85 8.3 195.8 8.3 197.15 6.95 198.5 5.6 198.5 3.65 L198.5 -24.65 198.5 -25.05 Q198.35 -26.75 197.15 -27.95 195.8 -29.3 193.85 -29.3 191.9 -29.3 190.55 -27.95 189.35 -26.75 189.25 -25.05" fill="none" stroke="#000000" stroke-linecap="round" stroke-linejoin="round" stroke-opacity="0.5764706" stroke-width="2.0"/>
    <path d="M-162.6 -232.9 L164.55 -232.9 Q176.4 -232.9 184.7 -224.6 193.05 -216.25 193.05 -204.4 L193.05 203.55 Q193.05 215.35 184.7 223.7 176.4 232.05 164.55 232.05 L-162.6 232.05 Q-174.45 232.05 -182.8 223.7 -191.1 215.35 -191.1 203.55 L-191.1 -204.4 Q-191.1 -216.25 -182.8 -224.6 -174.45 -232.9 -162.6 -232.9" fill="url(#gradient1)" fill-rule="evenodd" stroke="none"/>
    <path d="M-160.05 -222.7 L162.9 -222.7 Q182.85 -222.7 182.85 -202.75 L182.85 201.9 Q182.85 221.85 162.9 221.85 L-160.05 221.85 Q-180.0 221.85 -180.0 201.9 L-180.0 -202.75 Q-180.0 -222.7 -160.05 -222.7" fill="url(#gradient2)" fill-rule="evenodd" stroke="none"/>
  </g>
  <defs>
    <linearGradient gradientTransform="matrix(0.2056, 0.2791, -0.2764, 0.2036, 2.6, 1.75)" gradientUnits="userSpaceOnUse" id="gradient0" spreadMethod="pad" x1="-819.2" x2="819.2">
      <stop offset="0.0" stop-color="#131419"/>
      <stop offset="0.24313725490196078" stop-color="#131419"/>
      <stop offset="0.43529411764705883" stop-color="#23252e"/>
      <stop offset="0.6627450980392157" stop-color="#131318"/>
      <stop offset="1.0" stop-color="#141117"/>
    </linearGradient>
    <linearGradient gradientTransform="matrix(0.2056, 0.2791, -0.2764, 0.2036, 2.6, 1.75)" gradientUnits="userSpaceOnUse" id="gradient1" spreadMethod="pad" x1="-819.2" x2="819.2">
      <stop offset="0.0" stop-color="#131419"/>
      <stop offset="0.24313725490196078" stop-color="#131419"/>
      <stop offset="0.43529411764705883" stop-color="#23252e"/>
      <stop offset="0.6627450980392157" stop-color="#131318"/>
      <stop offset="1.0" stop-color="#141117"/>
    </linearGradient>
    <linearGradient gradientTransform="matrix(-0.1429, -0.2546, 0.2776, -0.1558, 5.2, 6.3)" gradientUnits="userSpaceOnUse" id="gradient2" spreadMethod="pad" x1="-819.2" x2="819.2">
      <stop offset="0.0" stop-color="#1a1f4d"/>
      <stop offset="1.0" stop-color="#3a1a41"/>
    </linearGradient>
  </defs>
</svg>
