<?xml version="1.0" encoding="UTF-8" standalone="no"?>
<svg xmlns:xlink="http://www.w3.org/1999/xlink" height="312.3px" width="31.85px" xmlns="http://www.w3.org/2000/svg">
  <g transform="matrix(1.0, 0.0, 0.0, 1.0, 15.75, 156.65)">
    <path d="M7.0 -138.35 Q6.35 -138.35 5.95 -138.8 5.6 -139.25 5.6 -139.9 L5.6 -143.75 1.6 -143.75 Q1.0 -143.75 0.5 -144.3 0.1 -144.65 0.1 -145.35 0.1 -146.0 0.5 -146.4 1.0 -146.85 1.6 -146.85 L5.6 -146.85 5.6 -150.75 Q5.6 -151.4 5.95 -151.8 6.4 -152.3 7.0 -152.3 7.65 -152.3 8.1 -151.85 8.5 -151.45 8.5 -150.75 L8.5 -146.85 12.5 -146.85 Q13.05 -146.85 13.5 -146.4 13.95 -145.95 13.95 -145.35 13.95 -144.65 13.5 -144.3 13.05 -143.75 12.5 -143.75 L8.5 -143.75 8.5 -139.9 Q8.5 -139.25 8.1 -138.8 7.65 -138.35 7.0 -138.35 M5.05 -77.85 Q5.9 -78.7 7.2 -78.7 8.45 -78.7 9.45 -77.85 10.3 -76.85 10.3 -75.6 10.3 -74.3 9.45 -73.4 8.45 -72.4 7.2 -72.4 5.9 -72.4 5.05 -73.4 4.15 -74.3 4.15 -75.6 4.15 -76.85 5.05 -77.85 M-11.9 -69.85 Q-4.9 -72.8 1.35 -70.35 7.05 -68.0 12.05 -69.85 L12.05 -63.4 -11.9 -63.4 -11.9 -69.85 M-14.8 -82.6 L15.15 -82.6 15.15 -60.45 -14.8 -60.45 -14.8 -82.6 M12.55 -1.25 Q7.3 -6.2 0.15 -6.65 -7.0 -5.9 -12.15 -1.25 -7.0 3.75 0.5 4.05 6.45 4.05 12.55 -1.25 M-1.6 -3.0 Q-2.3 -2.2 -2.3 -1.25 -2.3 -0.15 -1.6 0.5 -0.8 1.15 0.15 1.15 1.15 1.15 1.85 0.5 2.55 -0.15 2.55 -1.25 2.55 -2.2 1.85 -3.0 1.15 -3.7 0.15 -3.7 -0.8 -3.7 -1.6 -3.0 M-13.05 -80.4 L-13.05 -62.45 13.35 -62.45 13.35 -80.4 -13.05 -80.4 M-3.25 -4.65 Q-1.8 -5.9 0.15 -5.9 2.1 -5.9 3.55 -4.65 4.85 -3.25 4.85 -1.25 4.85 0.75 3.55 2.1 2.1 3.5 0.15 3.5 -1.8 3.5 -3.25 2.1 -4.6 0.75 -4.6 -1.25 -4.6 -3.25 -3.25 -4.65 M-0.1 81.4 Q-4.35 81.4 -7.3 78.4 -10.2 75.45 -10.2 71.35 -10.2 67.15 -7.3 64.2 -4.35 61.25 -0.1 61.25 4.0 61.25 7.0 64.2 9.95 67.15 9.95 71.35 9.95 75.45 7.0 78.4 L6.95 78.45 9.5 81.15 Q9.85 81.45 9.85 81.95 L9.5 82.7 8.65 83.0 Q8.25 83.0 7.9 82.7 L5.25 79.95 Q2.75 81.4 -0.1 81.4 M4.75 77.6 L4.7 77.7 5.45 76.85 Q7.7 74.6 7.7 71.35 7.7 68.05 5.45 65.8 3.15 63.4 -0.1 63.4 -3.45 63.4 -5.8 65.8 -7.95 68.05 -7.95 71.35 -7.95 74.6 -5.8 76.85 -3.45 79.2 -0.1 79.2 2.6 79.2 4.75 77.6 M4.85 72.65 L1.0 72.65 1.0 76.55 -1.6 76.55 -1.6 72.65 -5.35 72.65 -5.35 69.85 -1.6 69.85 -1.6 65.9 1.0 65.9 1.0 69.85 4.85 69.85 4.85 72.65 M-0.8 154.05 Q-5.05 154.05 -8.0 151.0 -10.9 148.1 -10.9 143.95 L-10.8 142.45 Q-10.35 139.25 -8.0 136.85 -5.05 133.9 -0.8 133.9 3.3 133.9 6.3 136.85 8.65 139.25 9.1 142.45 L9.2 143.95 Q9.2 148.1 6.3 151.0 L6.25 151.05 8.75 153.8 Q9.1 154.1 9.1 154.6 L8.75 155.35 7.95 155.65 Q7.55 155.65 7.2 155.35 L4.55 152.6 Q2.05 154.05 -0.8 154.05 M4.05 150.2 L4.0 150.3 4.75 149.5 Q7.0 147.25 7.0 143.95 L6.9 142.45 Q6.45 140.15 4.75 138.4 2.4 136.05 -0.8 136.05 -4.15 136.05 -6.5 138.4 -8.15 140.15 -8.5 142.45 L-8.65 143.95 Q-8.65 147.25 -6.5 149.5 -4.15 151.85 -0.8 151.85 1.9 151.85 4.05 150.2 M-6.05 145.25 L-6.05 142.65 4.15 142.65 4.15 145.25 -6.05 145.25 M-2.55 -150.65 Q-2.55 -152.35 -3.8 -153.55 -4.95 -154.75 -6.6 -154.75 -8.3 -154.75 -9.5 -153.55 -10.75 -152.35 -10.75 -150.65 -10.75 -149.0 -9.5 -147.75 -8.3 -146.6 -6.6 -146.6 -4.95 -146.6 -3.8 -147.75 -2.55 -149.0 -2.55 -150.65 M-15.75 -1.25 Q-8.6 -8.4 -0.2 -8.9 8.55 -9.0 16.1 -1.25 9.4 5.95 0.15 6.55 -9.5 5.7 -15.75 -1.25 M-0.6 -150.65 Q-0.6 -148.2 -2.35 -146.4 -4.2 -144.65 -6.6 -144.65 -9.1 -144.65 -10.85 -146.4 -12.65 -148.2 -12.65 -150.65 -12.65 -153.15 -10.85 -154.9 -9.1 -156.65 -6.6 -156.65 -4.2 -156.65 -2.35 -154.9 -0.6 -153.15 -0.6 -150.65 M-9.1 -143.4 L-4.55 -143.4 Q-0.15 -143.4 -0.15 -140.45 L-0.15 -133.6 -13.55 -133.6 -13.55 -140.45 Q-13.55 -143.4 -9.1 -143.4" fill="#333a56" fill-opacity="0.80784315" fill-rule="evenodd" stroke="none"/>
  </g>
</svg>
