<?xml version="1.0" encoding="UTF-8" standalone="no"?>
<svg xmlns:xlink="http://www.w3.org/1999/xlink" height="71.5px" width="84.2px" xmlns="http://www.w3.org/2000/svg">
  <g transform="matrix(1.0, 0.0, 0.0, 1.0, 42.1, 35.75)">
    <path d="M-41.6 -14.8 L-41.6 -35.25 41.6 -35.25 41.6 -14.8 -0.25 -14.8 -41.6 -14.8" fill="url(#gradient0)" fill-rule="evenodd" stroke="none"/>
    <path d="M41.6 -14.8 L41.6 35.25 -0.25 35.25 -0.25 -14.8 41.6 -14.8" fill="url(#gradient1)" fill-rule="evenodd" stroke="none"/>
    <path d="M-0.25 35.25 L-41.6 35.25 -41.6 -14.8 -0.25 -14.8 -0.25 35.25" fill="url(#gradient2)" fill-rule="evenodd" stroke="none"/>
    <path d="M-41.6 -14.8 L-41.6 -35.25 41.6 -35.25 41.6 -14.8 41.6 35.25 -0.25 35.25 -41.6 35.25 -41.6 -14.8" fill="none" stroke="#9dc0d0" stroke-linecap="round" stroke-linejoin="round" stroke-opacity="0.4" stroke-width="1.0"/>
    <path d="M-41.6 -14.8 L-0.25 -14.8 41.6 -14.8" fill="none" stroke="#8ebeff" stroke-linecap="round" stroke-linejoin="round" stroke-opacity="0.29803923" stroke-width="1.0"/>
    <path d="M19.7 9.3 Q20.05 9.55 20.2 10.1 L20.2 10.2 20.2 10.95 20.2 11.05 19.8 11.8 19.75 11.85 6.6 23.9 5.3 24.3 Q4.45 24.3 4.1 23.9 L4.05 23.8 Q3.6 23.25 3.6 22.55 3.6 21.75 4.2 21.25 L15.95 10.55 4.15 -0.95 Q3.6 -1.45 3.6 -2.25 3.6 -2.95 4.1 -3.5 4.5 -4.0 5.4 -4.0 6.1 -4.0 6.6 -3.5 L19.7 9.3" fill="url(#gradient3)" fill-rule="evenodd" stroke="none"/>
    <path d="M-20.05 9.3 L-6.95 -3.5 Q-6.45 -4.0 -5.75 -4.0 -4.85 -4.0 -4.4 -3.5 -3.9 -2.95 -3.9 -2.25 -3.9 -1.45 -4.45 -0.95 L-16.25 10.55 -4.5 21.25 Q-3.9 21.75 -3.9 22.55 -3.9 23.25 -4.35 23.8 L-4.4 23.9 Q-4.8 24.3 -5.6 24.3 -6.3 24.3 -6.95 23.9 L-20.1 11.85 -20.15 11.8 -20.55 11.05 -20.55 10.95 -20.55 10.2 -20.55 10.1 -20.05 9.3 M-2.7 7.9 Q-1.85 7.1 -0.45 7.1 0.8 7.1 1.85 7.9 2.75 8.85 2.75 10.2 2.75 11.55 1.85 12.55 L1.85 12.6 Q0.8 13.45 -0.45 13.45 -1.85 13.45 -2.7 12.55 L-2.7 12.6 Q-3.7 11.55 -3.7 10.2 -3.7 8.85 -2.7 7.9" fill="url(#gradient4)" fill-rule="evenodd" stroke="none"/>
  </g>
  <defs>
    <linearGradient gradientTransform="matrix(0.0, 0.0099, -0.0508, 0.0, 0.05, -25.35)" gradientUnits="userSpaceOnUse" id="gradient0" spreadMethod="pad" x1="-819.2" x2="819.2">
      <stop offset="0.00392156862745098" stop-color="#1b1a33" stop-opacity="0.92941177"/>
      <stop offset="1.0" stop-color="#1b263f" stop-opacity="0.92941177"/>
    </linearGradient>
    <linearGradient gradientTransform="matrix(0.0, -0.032, 0.0255, 0.0, 20.6, 9.05)" gradientUnits="userSpaceOnUse" id="gradient1" spreadMethod="pad" x1="-819.2" x2="819.2">
      <stop offset="0.0" stop-color="#121a27" stop-opacity="0.92941177"/>
      <stop offset="1.0" stop-color="#121120" stop-opacity="0.92941177"/>
    </linearGradient>
    <linearGradient gradientTransform="matrix(0.0, -0.032, 0.0252, 0.0, -20.9, 9.05)" gradientUnits="userSpaceOnUse" id="gradient2" spreadMethod="pad" x1="-819.2" x2="819.2">
      <stop offset="0.0" stop-color="#121a27" stop-opacity="0.92941177"/>
      <stop offset="1.0" stop-color="#121120" stop-opacity="0.92941177"/>
    </linearGradient>
    <linearGradient gradientTransform="matrix(0.0, -0.0153, 0.0556, 0.0, -25.35, 9.45)" gradientUnits="userSpaceOnUse" id="gradient3" spreadMethod="pad" x1="-819.2" x2="819.2">
      <stop offset="0.0" stop-color="#799bc9" stop-opacity="0.827451"/>
      <stop offset="0.9921568627450981" stop-color="#646ea6" stop-opacity="0.81960785"/>
    </linearGradient>
    <linearGradient gradientTransform="matrix(0.0, -0.0153, 0.0556, 0.0, 24.9, 9.45)" gradientUnits="userSpaceOnUse" id="gradient4" spreadMethod="pad" x1="-819.2" x2="819.2">
      <stop offset="0.0" stop-color="#799bc9" stop-opacity="0.827451"/>
      <stop offset="0.9921568627450981" stop-color="#646ea6" stop-opacity="0.81960785"/>
    </linearGradient>
  </defs>
</svg>
