<?xml version="1.0" encoding="UTF-8" standalone="no"?>
<svg xmlns:xlink="http://www.w3.org/1999/xlink" height="99.15px" width="236.3px" xmlns="http://www.w3.org/2000/svg">
  <g transform="matrix(1.0, 0.0, 0.0, 1.0, 120.2, 38.85)">
    <path d="M-70.9 45.35 Q-69.95 46.2 -69.95 47.45 -69.95 48.65 -70.9 49.6 L-70.9 49.55 Q-71.7 50.4 -72.95 50.4 -74.1 50.4 -75.0 49.6 L-75.0 49.55 Q-75.9 48.65 -75.9 47.45 -75.9 46.2 -75.0 45.35 -74.1 44.6 -72.95 44.6 -71.7 44.6 -70.9 45.35 M-55.1 46.6 Q-54.8 46.85 -54.65 47.35 L-54.65 47.45 -54.65 48.1 -54.65 48.2 -55.0 48.9 -55.05 48.95 -67.05 59.9 Q-67.6 60.3 -68.25 60.3 -69.0 60.3 -69.35 59.9 L-69.4 59.85 Q-69.8 59.35 -69.8 58.7 -69.8 57.95 -69.25 57.5 L-58.55 47.75 -69.3 37.25 Q-69.8 36.8 -69.8 36.1 -69.8 35.45 -69.35 34.95 -68.95 34.5 -68.15 34.5 -67.5 34.5 -67.05 34.95 L-55.1 46.6" fill="url(#gradient0)" fill-rule="evenodd" stroke="none"/>
    <path d="M-101.1 45.35 Q-100.3 44.6 -99.05 44.6 -97.9 44.6 -96.95 45.35 -96.1 46.2 -96.1 47.45 -96.1 48.65 -96.95 49.55 L-96.95 49.6 Q-97.9 50.4 -99.05 50.4 -100.3 50.4 -101.1 49.55 L-101.1 49.6 Q-102.0 48.65 -102.0 47.45 -102.0 46.2 -101.1 45.35 M-116.9 46.6 L-104.95 34.95 Q-104.5 34.5 -103.85 34.5 -103.05 34.5 -102.65 34.95 -102.2 35.45 -102.2 36.1 -102.2 36.8 -102.7 37.25 L-113.45 47.75 -102.75 57.5 Q-102.2 57.95 -102.2 58.7 -102.2 59.35 -102.6 59.85 L-102.65 59.9 Q-103.0 60.3 -103.75 60.3 L-104.95 59.9 -116.95 48.95 -117.0 48.9 -117.35 48.2 -117.35 48.1 -117.35 47.45 -117.35 47.35 -116.9 46.6" fill="url(#gradient1)" fill-rule="evenodd" stroke="none"/>
    <path d="M-15.6 45.35 Q-14.8 44.6 -13.55 44.6 -12.4 44.6 -11.45 45.35 -10.6 46.2 -10.6 47.45 -10.6 48.65 -11.45 49.55 L-11.45 49.6 Q-12.4 50.4 -13.55 50.4 -14.8 50.4 -15.6 49.55 L-15.6 49.6 Q-16.5 48.65 -16.5 47.45 -16.5 46.2 -15.6 45.35 M-31.4 46.6 L-19.45 34.95 Q-19.0 34.5 -18.35 34.5 -17.55 34.5 -17.15 34.95 -16.7 35.45 -16.7 36.1 -16.7 36.8 -17.2 37.25 L-27.95 47.75 -17.25 57.5 Q-16.7 57.95 -16.7 58.7 -16.7 59.35 -17.1 59.85 L-17.15 59.9 Q-17.5 60.3 -18.25 60.3 L-19.45 59.9 -31.45 48.95 -31.5 48.9 -31.85 48.2 -31.85 48.1 -31.85 47.45 -31.85 47.35 -31.4 46.6" fill="url(#gradient2)" fill-rule="evenodd" stroke="none"/>
    <path d="M14.6 45.35 Q15.55 46.2 15.55 47.45 15.55 48.65 14.6 49.6 L14.6 49.55 Q13.8 50.4 12.55 50.4 11.4 50.4 10.5 49.6 L10.5 49.55 Q9.6 48.65 9.6 47.45 9.6 46.2 10.5 45.35 11.4 44.6 12.55 44.6 13.8 44.6 14.6 45.35 M30.4 46.6 L30.85 47.35 30.85 47.45 30.85 48.1 30.85 48.2 30.5 48.9 30.45 48.95 18.45 59.9 Q17.9 60.3 17.25 60.3 16.5 60.3 16.15 59.9 L16.1 59.85 Q15.7 59.35 15.7 58.7 15.7 57.95 16.25 57.5 L26.95 47.75 16.2 37.25 Q15.7 36.8 15.7 36.1 15.7 35.45 16.15 34.95 16.55 34.5 17.35 34.5 18.0 34.5 18.45 34.95 L30.4 46.6" fill="url(#gradient3)" fill-rule="evenodd" stroke="none"/>
    <path d="M99.85 45.35 Q100.8 46.2 100.8 47.45 100.8 48.65 99.85 49.6 L99.85 49.55 Q99.05 50.4 97.8 50.4 96.65 50.4 95.75 49.6 L95.75 49.55 Q94.85 48.65 94.85 47.45 94.85 46.2 95.75 45.35 96.65 44.6 97.8 44.6 99.05 44.6 99.85 45.35 M115.65 46.6 L116.1 47.35 116.1 47.45 116.1 48.1 116.1 48.2 115.75 48.9 115.7 48.95 103.7 59.9 Q103.15 60.3 102.5 60.3 101.75 60.3 101.4 59.9 L101.35 59.85 Q100.95 59.35 100.95 58.7 100.95 57.95 101.5 57.5 L112.2 47.75 101.45 37.25 Q100.95 36.8 100.95 36.1 100.95 35.45 101.4 34.95 101.8 34.5 102.6 34.5 103.25 34.5 103.7 34.95 L115.65 46.6" fill="url(#gradient4)" fill-rule="evenodd" stroke="none"/>
    <path d="M69.65 45.35 Q70.45 44.6 71.7 44.6 72.85 44.6 73.8 45.35 74.65 46.2 74.65 47.45 74.65 48.65 73.8 49.55 L73.8 49.6 Q72.85 50.4 71.7 50.4 70.45 50.4 69.65 49.55 L69.65 49.6 Q68.75 48.65 68.75 47.45 68.75 46.2 69.65 45.35 M53.85 46.6 L65.8 34.95 Q66.25 34.5 66.9 34.5 67.7 34.5 68.1 34.95 68.55 35.45 68.55 36.1 68.55 36.8 68.05 37.25 L57.3 47.75 68.0 57.5 Q68.55 57.95 68.55 58.7 68.55 59.35 68.15 59.85 L68.1 59.9 Q67.75 60.3 67.0 60.3 66.4 60.3 65.8 59.9 L53.8 48.95 53.75 48.9 53.4 48.2 53.4 48.1 53.4 47.45 53.4 47.35 53.85 46.6" fill="url(#gradient5)" fill-rule="evenodd" stroke="none"/>
    <path d="M14.05 -31.75 Q11.6 -29.3 11.6 -25.8 L11.6 -25.5 11.45 -25.2 11.2 -25.1 7.4 -25.1 7.05 -25.2 6.95 -25.5 6.95 -25.8 Q6.95 -31.25 10.8 -35.05 14.6 -38.85 20.0 -38.85 25.4 -38.85 29.25 -35.05 33.05 -31.25 33.05 -25.8 33.05 -20.4 29.25 -16.6 25.5 -12.85 20.15 -12.75 L20.15 -10.7 20.05 -10.4 19.75 -10.3 19.45 -10.4 13.0 -14.85 12.85 -15.05 12.85 -15.3 13.0 -15.5 19.45 -20.15 19.75 -20.2 20.05 -20.05 20.15 -19.75 20.15 -17.5 Q23.5 -17.55 25.95 -19.95 28.3 -22.4 28.3 -25.8 28.3 -29.3 25.95 -31.75 23.45 -34.2 20.0 -34.2 16.5 -34.2 14.05 -31.75" fill="url(#gradient6)" fill-rule="evenodd" stroke="none"/>
    <path d="M-15.75 -31.75 Q-18.25 -34.2 -21.75 -34.2 -25.25 -34.2 -27.65 -31.75 -30.05 -29.3 -30.05 -25.8 -30.05 -22.4 -27.65 -19.95 -25.3 -17.55 -21.9 -17.5 L-21.9 -19.75 -21.85 -20.05 -21.5 -20.2 -21.15 -20.15 -14.7 -15.5 -14.55 -15.3 -14.55 -15.05 -14.7 -14.85 -21.15 -10.4 -21.5 -10.3 -21.85 -10.4 -21.9 -10.7 -21.9 -12.75 Q-27.2 -12.85 -30.95 -16.6 -34.8 -20.4 -34.8 -25.8 -34.8 -31.25 -30.95 -35.05 -27.1 -38.85 -21.75 -38.85 -16.3 -38.85 -12.5 -35.05 -8.75 -31.25 -8.75 -25.8 L-8.75 -25.5 -8.8 -25.2 -9.1 -25.1 -12.9 -25.1 -13.2 -25.2 -13.35 -25.5 -13.35 -25.8 Q-13.35 -29.3 -15.75 -31.75" fill="url(#gradient7)" fill-rule="evenodd" stroke="none"/>
    <path d="M-101.15 -31.75 Q-103.65 -34.2 -107.15 -34.2 -110.65 -34.2 -113.05 -31.75 -115.45 -29.3 -115.45 -25.8 -115.45 -22.4 -113.05 -19.95 -110.7 -17.55 -107.3 -17.5 L-107.3 -19.75 -107.25 -20.05 -106.9 -20.2 -106.55 -20.15 -100.1 -15.5 -99.95 -15.3 -99.95 -15.05 -100.1 -14.85 -106.55 -10.4 -106.9 -10.3 -107.25 -10.4 -107.3 -10.7 -107.3 -12.75 Q-112.6 -12.85 -116.35 -16.6 -120.2 -20.4 -120.2 -25.8 -120.2 -31.25 -116.35 -35.05 -112.5 -38.85 -107.15 -38.85 -101.7 -38.85 -97.9 -35.05 -94.15 -31.25 -94.15 -25.8 L-94.15 -25.5 -94.2 -25.2 -94.5 -25.1 -98.3 -25.1 -98.6 -25.2 -98.75 -25.5 -98.75 -25.8 Q-98.75 -29.3 -101.15 -31.75" fill="url(#gradient8)" fill-rule="evenodd" stroke="none"/>
    <path d="M-71.35 -31.75 Q-73.8 -29.3 -73.8 -25.8 L-73.8 -25.5 -73.95 -25.2 Q-74.05 -25.1 -74.2 -25.1 L-78.0 -25.1 -78.35 -25.2 -78.45 -25.5 -78.45 -25.8 Q-78.45 -31.25 -74.6 -35.05 -70.8 -38.85 -65.4 -38.85 -60.0 -38.85 -56.15 -35.05 -52.35 -31.25 -52.35 -25.8 -52.35 -20.4 -56.15 -16.6 -59.9 -12.85 -65.25 -12.75 L-65.25 -10.7 -65.35 -10.4 -65.65 -10.3 -65.95 -10.4 -72.4 -14.85 -72.55 -15.05 -72.55 -15.3 -72.4 -15.5 -65.95 -20.15 -65.65 -20.2 -65.35 -20.05 -65.25 -19.75 -65.25 -17.5 Q-61.9 -17.55 -59.45 -19.95 -57.1 -22.4 -57.1 -25.8 -57.1 -29.3 -59.45 -31.75 -61.95 -34.2 -65.4 -34.2 -68.9 -34.2 -71.35 -31.75" fill="url(#gradient9)" fill-rule="evenodd" stroke="none"/>
  </g>
  <defs>
    <linearGradient gradientTransform="matrix(0.0, -0.0139, 0.0507, 0.0, -96.2, 46.75)" gradientUnits="userSpaceOnUse" id="gradient0" spreadMethod="pad" x1="-819.2" x2="819.2">
      <stop offset="0.0" stop-color="#799bc9" stop-opacity="0.827451"/>
      <stop offset="0.9921568627450981" stop-color="#646ea6" stop-opacity="0.81960785"/>
    </linearGradient>
    <linearGradient gradientTransform="matrix(0.0, -0.0139, 0.0507, 0.0, -75.9, 46.75)" gradientUnits="userSpaceOnUse" id="gradient1" spreadMethod="pad" x1="-819.2" x2="819.2">
      <stop offset="0.0" stop-color="#799bc9" stop-opacity="0.827451"/>
      <stop offset="0.9921568627450981" stop-color="#646ea6" stop-opacity="0.81960785"/>
    </linearGradient>
    <linearGradient gradientTransform="matrix(0.0, -0.0139, 0.0507, 0.0, 9.6, 46.75)" gradientUnits="userSpaceOnUse" id="gradient2" spreadMethod="pad" x1="-819.2" x2="819.2">
      <stop offset="0.0" stop-color="#799bc9" stop-opacity="0.827451"/>
      <stop offset="0.9921568627450981" stop-color="#646ea6" stop-opacity="0.81960785"/>
    </linearGradient>
    <linearGradient gradientTransform="matrix(0.0, -0.0139, 0.0507, 0.0, -10.7, 46.75)" gradientUnits="userSpaceOnUse" id="gradient3" spreadMethod="pad" x1="-819.2" x2="819.2">
      <stop offset="0.0" stop-color="#799bc9" stop-opacity="0.827451"/>
      <stop offset="0.9921568627450981" stop-color="#646ea6" stop-opacity="0.81960785"/>
    </linearGradient>
    <linearGradient gradientTransform="matrix(0.0, -0.0139, 0.0507, 0.0, 74.55, 46.75)" gradientUnits="userSpaceOnUse" id="gradient4" spreadMethod="pad" x1="-819.2" x2="819.2">
      <stop offset="0.0" stop-color="#799bc9" stop-opacity="0.827451"/>
      <stop offset="0.9921568627450981" stop-color="#646ea6" stop-opacity="0.81960785"/>
    </linearGradient>
    <linearGradient gradientTransform="matrix(0.0, -0.0139, 0.0507, 0.0, 94.85, 46.75)" gradientUnits="userSpaceOnUse" id="gradient5" spreadMethod="pad" x1="-819.2" x2="819.2">
      <stop offset="0.0" stop-color="#799bc9" stop-opacity="0.827451"/>
      <stop offset="0.9921568627450981" stop-color="#646ea6" stop-opacity="0.81960785"/>
    </linearGradient>
    <linearGradient gradientTransform="matrix(0.0, -0.0156, -0.0159, 0.0, 19.95, -24.1)" gradientUnits="userSpaceOnUse" id="gradient6" spreadMethod="pad" x1="-819.2" x2="819.2">
      <stop offset="0.0" stop-color="#799bc9" stop-opacity="0.827451"/>
      <stop offset="0.9921568627450981" stop-color="#646ea6" stop-opacity="0.81960785"/>
    </linearGradient>
    <linearGradient gradientTransform="matrix(0.0, -0.0156, 0.0159, 0.0, -21.75, -24.1)" gradientUnits="userSpaceOnUse" id="gradient7" spreadMethod="pad" x1="-819.2" x2="819.2">
      <stop offset="0.0" stop-color="#799bc9" stop-opacity="0.827451"/>
      <stop offset="0.9921568627450981" stop-color="#646ea6" stop-opacity="0.81960785"/>
    </linearGradient>
    <linearGradient gradientTransform="matrix(0.0, -0.0156, 0.0159, 0.0, -107.15, -24.1)" gradientUnits="userSpaceOnUse" id="gradient8" spreadMethod="pad" x1="-819.2" x2="819.2">
      <stop offset="0.0" stop-color="#799bc9" stop-opacity="0.827451"/>
      <stop offset="0.9921568627450981" stop-color="#646ea6" stop-opacity="0.81960785"/>
    </linearGradient>
    <linearGradient gradientTransform="matrix(0.0, -0.0156, -0.0159, 0.0, -65.45, -24.1)" gradientUnits="userSpaceOnUse" id="gradient9" spreadMethod="pad" x1="-819.2" x2="819.2">
      <stop offset="0.0" stop-color="#799bc9" stop-opacity="0.827451"/>
      <stop offset="0.9921568627450981" stop-color="#646ea6" stop-opacity="0.81960785"/>
    </linearGradient>
  </defs>
</svg>
