<?xml version="1.0" encoding="UTF-8" standalone="no"?>
<svg xmlns:xlink="http://www.w3.org/1999/xlink" height="268.0px" width="499.7px" xmlns="http://www.w3.org/2000/svg">
  <g transform="matrix(1.0, 0.0, 0.0, 1.0, 400.9, 23.4)">
    <path d="M-391.35 -23.4 L89.25 -23.4 Q98.8 -23.4 98.8 -13.85 L98.8 235.05 Q98.8 244.6 89.25 244.6 L-391.35 244.6 Q-400.9 244.6 -400.9 235.05 L-400.9 -13.85 Q-400.9 -23.4 -391.35 -23.4 M-184.2 240.65 L-184.2 -17.75 -184.2 240.65 M95.6 117.35 L-178.95 117.35 95.6 117.35 M-42.1 -16.25 L-42.1 109.3 -42.1 -16.25" fill="#18243f" fill-opacity="0.8784314" fill-rule="evenodd" stroke="none"/>
    <path d="M-42.1 109.3 L-42.1 -16.25 M-178.95 117.35 L95.6 117.35 M-184.2 -17.75 L-184.2 240.65" fill="none" stroke="#80ace7" stroke-linecap="round" stroke-linejoin="round" stroke-opacity="0.31764707" stroke-width="3.0"/>
  </g>
</svg>
