<?xml version="1.0" encoding="UTF-8" standalone="no"?>
<svg xmlns:xlink="http://www.w3.org/1999/xlink" height="499.55px" width="1181.75px" xmlns="http://www.w3.org/2000/svg">
  <g transform="matrix(1.0, 0.0, 0.0, 1.0, 1263.0, 80.8)">
    <path d="M-81.25 50.5 L-81.25 418.75 -1008.85 418.75 -1008.85 50.5 -81.25 50.5" fill="#111120" fill-opacity="0.50980395" fill-rule="evenodd" stroke="none"/>
    <path d="M-81.25 50.5 L-1008.85 50.5 -1008.85 -80.8 -81.25 -80.8 -81.25 50.5" fill="#04070e" fill-opacity="0.7372549" fill-rule="evenodd" stroke="none"/>
    <path d="M-1263.0 394.45 L-1263.0 60.1 -1118.5 60.1 -1118.5 394.45 -1263.0 394.45" fill="url(#gradient0)" fill-rule="evenodd" stroke="none"/>
    <path d="M-948.2 35.0 L-948.25 -43.6 -641.15 -43.6 -641.15 35.0 -948.2 35.0" fill="url(#gradient1)" fill-rule="evenodd" stroke="none"/>
    <path d="M-141.5 -43.6 L-141.5 -42.15 -141.45 -42.15 -141.45 35.0 -309.5 35.0 -309.5 -43.6 -141.5 -43.6" fill="url(#gradient2)" fill-rule="evenodd" stroke="none"/>
    <path d="M-309.5 -43.6 L-309.5 35.0 -641.15 35.0 -641.15 -43.6 -309.5 -43.6" fill="url(#gradient3)" fill-rule="evenodd" stroke="none"/>
    <path d="M-948.15 -47.0 L-947.45 -49.95 Q-945.35 -56.0 -937.2 -56.0 L-152.55 -56.0 Q-144.4 -56.0 -142.25 -49.95 -141.8 -48.65 -141.6 -47.0 L-948.15 -47.0 M-141.55 38.15 Q-141.75 39.8 -142.25 41.1 -144.35 47.15 -152.5 47.15 L-937.15 47.15 Q-945.3 47.15 -947.45 41.1 L-948.1 38.15 -141.55 38.15" fill="url(#gradient4)" fill-rule="evenodd" stroke="none"/>
    <path d="M-141.6 -47.0 L-141.5 -45.05 -141.5 -43.6 -309.5 -43.6 -641.15 -43.6 -948.25 -43.6 -948.25 -45.05 -948.15 -47.0 -141.6 -47.0 M-141.45 35.0 L-141.45 36.2 -141.55 38.15 -948.1 38.15 -948.2 36.2 -948.2 35.0 -641.15 35.0 -309.5 35.0 -141.45 35.0" fill="url(#gradient5)" fill-rule="evenodd" stroke="none"/>
    <path d="M-948.15 -47.0 L-947.45 -49.95 Q-945.35 -56.0 -937.2 -56.0 L-152.55 -56.0 Q-144.4 -56.0 -142.25 -49.95 -141.8 -48.65 -141.6 -47.0 L-141.5 -45.05 -141.5 -43.6 -141.5 -42.15 M-141.45 -42.15 L-141.45 35.0 -141.45 36.2 -141.55 38.15 Q-141.75 39.8 -142.25 41.1 -144.35 47.15 -152.5 47.15 L-937.15 47.15 Q-945.3 47.15 -947.45 41.1 L-948.1 38.15 -948.2 36.2 -948.2 35.0 -948.25 -43.6 -948.25 -45.05 -948.15 -47.0" fill="none" stroke="#9facbf" stroke-linecap="round" stroke-linejoin="round" stroke-opacity="0.54901963" stroke-width="1.0"/>
    <path d="M-141.5 -42.15 L-141.45 -42.15" fill="none" stroke="#9facbf" stroke-linecap="round" stroke-linejoin="round" stroke-opacity="0.32941177" stroke-width="1.0"/>
    <path d="M-141.5 -43.6 L-309.5 -43.6 -641.15 -43.6 -948.25 -43.6 M-309.5 35.0 L-141.45 35.0 M-641.15 35.0 L-309.5 35.0 M-948.2 35.0 L-641.15 35.0" fill="none" stroke="#9daabd" stroke-linecap="round" stroke-linejoin="round" stroke-opacity="0.42745098" stroke-width="1.0"/>
    <path d="M-159.45 -35.55 L-240.85 -35.55 -240.85 27.05 -159.45 27.05 Q-150.2 27.05 -150.2 17.8 L-150.2 -26.35 Q-150.2 -35.55 -159.45 -35.55 M-159.45 -40.05 Q-145.8 -40.05 -145.8 -26.35 L-145.8 17.8 Q-145.8 31.5 -159.45 31.5 L-245.3 31.5 -245.3 -40.05 -159.45 -40.05" fill="url(#gradient6)" fill-rule="evenodd" stroke="none"/>
    <path d="M-159.45 -35.55 Q-150.2 -35.55 -150.2 -26.35 L-150.2 17.8 Q-150.2 27.05 -159.45 27.05 L-240.85 27.05 -240.85 -35.55 -159.45 -35.55" fill="url(#gradient7)" fill-rule="evenodd" stroke="none"/>
    <path d="M-902.2 12.4 L-896.85 12.4 Q-896.4 12.4 -896.25 11.95 L-893.2 3.3 Q-893.15 3.2 -893.05 3.2 L-892.9 3.3 -889.85 11.95 -889.3 12.4 -883.9 12.4 -883.45 12.05 -883.5 11.75 -889.65 -3.3 -889.65 -3.55 -883.5 -18.6 -883.5 -19.05 Q-883.6 -19.25 -883.9 -19.25 L-889.3 -19.25 -889.85 -18.8 -892.9 -10.1 -893.05 -10.0 -893.2 -10.1 -896.2 -18.8 -896.8 -19.25 -902.2 -19.25 Q-902.65 -19.25 -902.65 -18.85 L-902.65 -18.6 -896.45 -3.55 -896.45 -3.3 -902.65 11.75 -902.65 12.2 -902.2 12.4 M-930.45 -35.55 L-849.05 -35.55 -849.05 27.05 -930.45 27.05 Q-939.7 27.05 -939.7 17.8 L-939.7 -26.35 Q-939.7 -35.55 -930.45 -35.55" fill="url(#gradient8)" fill-rule="evenodd" stroke="none"/>
    <path d="M-930.45 -35.55 Q-939.7 -35.55 -939.7 -26.35 L-939.7 17.8 Q-939.7 27.05 -930.45 27.05 L-849.05 27.05 -849.05 -35.55 -930.45 -35.55 M-930.45 -40.05 L-844.6 -40.05 -844.6 31.5 -930.45 31.5 Q-944.1 31.5 -944.1 17.8 L-944.1 -26.35 Q-944.1 -40.05 -930.45 -40.05" fill="url(#gradient9)" fill-rule="evenodd" stroke="none"/>
    <path d="M-902.2 12.4 L-902.65 12.2 -902.65 11.75 -896.45 -3.3 -896.45 -3.55 -902.65 -18.6 -902.65 -18.85 Q-902.65 -19.25 -902.2 -19.25 L-896.8 -19.25 -896.2 -18.8 -893.2 -10.1 -893.05 -10.0 -892.9 -10.1 -889.85 -18.8 -889.3 -19.25 -883.9 -19.25 Q-883.6 -19.25 -883.5 -19.05 L-883.5 -18.6 -889.65 -3.55 -889.65 -3.3 -883.5 11.75 -883.45 12.05 -883.9 12.4 -889.3 12.4 -889.85 11.95 -892.9 3.3 -893.05 3.2 Q-893.15 3.2 -893.2 3.3 L-896.25 11.95 Q-896.4 12.4 -896.85 12.4 L-902.2 12.4" fill="url(#gradient10)" fill-rule="evenodd" stroke="none"/>
    <path d="M-159.45 -40.05 Q-145.8 -40.05 -145.8 -26.35 L-145.8 17.8 Q-145.8 31.5 -159.45 31.5 L-245.3 31.5 -245.3 -40.05 -159.45 -40.05 M-930.45 -40.05 Q-944.1 -40.05 -944.1 -26.35 L-944.1 17.8 Q-944.1 31.5 -930.45 31.5 L-844.6 31.5 -844.6 -40.05 -930.45 -40.05" fill="none" stroke="#9facbf" stroke-linecap="round" stroke-linejoin="round" stroke-opacity="0.54901963" stroke-width="1.0"/>
    <path d="M-905.05 13.35 Q-905.4 13.35 -905.5 13.15 L-905.5 12.65 -898.7 -3.95 -898.7 -4.2 -905.5 -20.8 -905.5 -21.05 -905.05 -21.5 -899.1 -21.5 -898.4 -21.0 -895.1 -11.4 -894.95 -11.3 -894.8 -11.4 -891.45 -21.0 -890.85 -21.5 -884.9 -21.5 -884.45 -21.25 -884.45 -20.8 -891.2 -4.2 -891.2 -3.95 -884.45 12.65 -884.4 12.95 Q-884.4 13.35 -884.9 13.35 L-890.85 13.35 -891.45 12.85 -894.8 3.35 -894.95 3.2 -895.1 3.35 -898.5 12.85 Q-898.65 13.35 -899.15 13.35 L-905.05 13.35" fill="url(#gradient11)" fill-rule="evenodd" stroke="none"/>
    <path d="M-215.2 1.05 L-209.95 -4.25 Q-205.25 1.4 -200.8 5.25 -190.1 -11.25 -179.2 -23.55 L-175.05 -11.85 Q-189.85 1.0 -199.95 16.2 -211.25 7.85 -215.2 1.05" fill="url(#gradient12)" fill-rule="evenodd" stroke="none"/>
  </g>
  <defs>
    <linearGradient gradientTransform="matrix(0.0, -0.1927, 0.0882, 0.0, -1190.75, 231.75)" gradientUnits="userSpaceOnUse" id="gradient0" spreadMethod="pad" x1="-819.2" x2="819.2">
      <stop offset="0.0" stop-color="#162e51" stop-opacity="0.8980392"/>
      <stop offset="0.9921568627450981" stop-color="#25204a" stop-opacity="0.8980392"/>
    </linearGradient>
    <linearGradient gradientTransform="matrix(-0.4228, 0.0, 0.0, -0.249, -601.8, -172.5)" gradientUnits="userSpaceOnUse" id="gradient1" spreadMethod="pad" x1="-819.2" x2="819.2">
      <stop offset="0.0" stop-color="#0a1525" stop-opacity="0.8980392"/>
      <stop offset="0.9921568627450981" stop-color="#0e0c1c" stop-opacity="0.8980392"/>
    </linearGradient>
    <linearGradient gradientTransform="matrix(-0.4228, 0.0, 0.0, -0.249, -487.8, -172.5)" gradientUnits="userSpaceOnUse" id="gradient2" spreadMethod="pad" x1="-819.2" x2="819.2">
      <stop offset="0.0" stop-color="#0a1525" stop-opacity="0.8980392"/>
      <stop offset="0.9921568627450981" stop-color="#0e0c1c" stop-opacity="0.8980392"/>
    </linearGradient>
    <linearGradient gradientTransform="matrix(-2.0045, 0.0, 0.0, -0.249, -1074.65, -172.5)" gradientUnits="userSpaceOnUse" id="gradient3" spreadMethod="pad" x1="-819.2" x2="819.2">
      <stop offset="0.0" stop-color="#0a1525" stop-opacity="0.8980392"/>
      <stop offset="0.9921568627450981" stop-color="#0e0c1c" stop-opacity="0.8980392"/>
    </linearGradient>
    <linearGradient gradientTransform="matrix(-0.4844, 0.0, 0.0, -0.063, -545.9, -4.4)" gradientUnits="userSpaceOnUse" id="gradient4" spreadMethod="pad" x1="-819.2" x2="819.2">
      <stop offset="0.0" stop-color="#4f8eb1"/>
      <stop offset="1.0" stop-color="#815ca3"/>
    </linearGradient>
    <linearGradient gradientTransform="matrix(-0.4864, 0.0, 0.0, -0.052, -544.3, -4.4)" gradientUnits="userSpaceOnUse" id="gradient5" spreadMethod="pad" x1="-819.2" x2="819.2">
      <stop offset="0.0" stop-color="#265c6d"/>
      <stop offset="1.0" stop-color="#422b66"/>
    </linearGradient>
    <linearGradient gradientTransform="matrix(0.0, -0.0405, 0.0607, 0.0, -195.55, -3.5)" gradientUnits="userSpaceOnUse" id="gradient6" spreadMethod="pad" x1="-819.2" x2="819.2">
      <stop offset="0.0" stop-color="#374e76"/>
      <stop offset="1.0" stop-color="#463c85"/>
    </linearGradient>
    <linearGradient gradientTransform="matrix(0.0, -0.0352, 0.0553, 0.0, -195.5, -3.9)" gradientUnits="userSpaceOnUse" id="gradient7" spreadMethod="pad" x1="-819.2" x2="819.2">
      <stop offset="0.0" stop-color="#1a2e4a"/>
      <stop offset="1.0" stop-color="#28224d"/>
    </linearGradient>
    <linearGradient gradientTransform="matrix(0.0, -0.0352, -0.0553, 0.0, -894.4, -3.9)" gradientUnits="userSpaceOnUse" id="gradient8" spreadMethod="pad" x1="-819.2" x2="819.2">
      <stop offset="0.0" stop-color="#4a1f1f"/>
      <stop offset="1.0" stop-color="#4d233e"/>
    </linearGradient>
    <linearGradient gradientTransform="matrix(0.0, -0.0405, -0.0607, 0.0, -894.35, -3.5)" gradientUnits="userSpaceOnUse" id="gradient9" spreadMethod="pad" x1="-819.2" x2="819.2">
      <stop offset="0.0" stop-color="#76292d"/>
      <stop offset="1.0" stop-color="#852d5d"/>
    </linearGradient>
    <linearGradient gradientTransform="matrix(0.0, -0.0193, 0.0117, 0.0, -893.1, -3.4)" gradientUnits="userSpaceOnUse" id="gradient10" spreadMethod="pad" x1="-819.2" x2="819.2">
      <stop offset="0.0" stop-color="#4a1f1f"/>
      <stop offset="1.0" stop-color="#4d233e"/>
    </linearGradient>
    <linearGradient gradientTransform="matrix(0.0, -0.0182, 0.0129, 0.0, -895.0, -5.0)" gradientUnits="userSpaceOnUse" id="gradient11" spreadMethod="pad" x1="-819.2" x2="819.2">
      <stop offset="0.0" stop-color="#c25668" stop-opacity="0.8"/>
      <stop offset="1.0" stop-color="#b63d7f" stop-opacity="0.8"/>
    </linearGradient>
    <linearGradient gradientTransform="matrix(0.0, -0.0221, 0.0245, 0.0, -195.15, -3.75)" gradientUnits="userSpaceOnUse" id="gradient12" spreadMethod="pad" x1="-819.2" x2="819.2">
      <stop offset="0.0" stop-color="#6089d0" stop-opacity="0.8980392"/>
      <stop offset="1.0" stop-color="#6c5ccd" stop-opacity="0.8980392"/>
    </linearGradient>
  </defs>
</svg>
