<?xml version="1.0" encoding="UTF-8" standalone="no"?>
<svg xmlns:xlink="http://www.w3.org/1999/xlink" height="80.05px" width="251.85px" xmlns="http://www.w3.org/2000/svg">
  <g transform="matrix(1.0, 0.0, 0.0, 1.0, 125.95, 40.0)">
    <path d="M85.9 -36.5 Q101.05 -36.5 111.75 -25.8 122.4 -15.1 122.4 0.05 122.4 15.2 111.75 25.8 101.05 36.55 85.9 36.55 L-85.9 36.55 Q-101.1 36.55 -111.75 25.8 -122.45 15.2 -122.45 0.05 -122.45 -15.1 -111.75 -25.8 -101.1 -36.5 -85.9 -36.5 L85.9 -36.5" fill="#111320" fill-opacity="0.9098039" fill-rule="evenodd" stroke="none"/>
    <path d="M85.9 -36.5 L-85.9 -36.5 Q-101.1 -36.5 -111.75 -25.8 -122.45 -15.1 -122.45 0.05 -122.45 15.2 -111.75 25.8 -101.1 36.55 -85.9 36.55 L85.9 36.55 Q101.05 36.55 111.75 25.8 122.4 15.2 122.4 0.05 122.4 -15.1 111.75 -25.8 101.05 -36.5 85.9 -36.5 Z" fill="none" stroke="#000000" stroke-linecap="round" stroke-linejoin="round" stroke-opacity="0.76862746" stroke-width="7.0"/>
  </g>
</svg>
