<?xml version="1.0" encoding="UTF-8" standalone="no"?>
<svg xmlns:xlink="http://www.w3.org/1999/xlink" height="402.25px" width="490.05px" xmlns="http://www.w3.org/2000/svg">
  <g transform="matrix(1.0, 0.0, 0.0, 1.0, 851.7, -31.2)">
    <path d="M-774.95 384.8 L-400.5 384.8 Q-391.75 384.8 -385.6 390.95 -379.45 397.1 -379.45 405.85 L-379.45 411.4 Q-379.45 420.15 -385.6 426.3 -391.75 432.45 -400.5 432.45 L-774.95 432.45 Q-783.7 432.45 -789.85 426.3 L-790.6 425.5 Q-794.2 421.6 -795.35 416.7 L-807.9 411.7 -796.0 405.85 Q-796.0 397.1 -789.85 390.95 -783.7 384.8 -774.95 384.8" fill="#e4e0ff" fill-rule="evenodd" stroke="none"/>
    <path d="M-774.95 384.8 L-400.5 384.8 Q-391.75 384.8 -385.6 390.95 -379.45 397.1 -379.45 405.85 L-379.45 411.4 Q-379.45 420.15 -385.6 426.3 -391.75 432.45 -400.5 432.45 L-774.95 432.45 Q-783.7 432.45 -789.85 426.3 L-790.6 425.5 Q-794.2 421.6 -795.35 416.7 L-807.9 411.7 -796.0 405.85 Q-796.0 397.1 -789.85 390.95 -783.7 384.8 -774.95 384.8 Z" fill="none" stroke="#000000" stroke-linecap="round" stroke-linejoin="round" stroke-width="2.0"/>
    <path d="M-829.7 32.2 L-383.65 32.2 Q-374.95 32.2 -368.8 38.35 -362.65 44.5 -362.65 53.2 L-362.65 85.65 Q-362.65 94.35 -368.8 100.5 -374.95 106.65 -383.65 106.65 L-823.6 106.65 -850.6 127.15 -842.05 102.7 -844.55 100.5 Q-850.7 94.35 -850.7 85.65 L-850.7 53.2 Q-850.7 44.5 -844.55 38.35 -838.4 32.2 -829.7 32.2" fill="#dbe6ff" fill-rule="evenodd" stroke="none"/>
    <path d="M-829.7 32.2 L-383.65 32.2 Q-374.95 32.2 -368.8 38.35 -362.65 44.5 -362.65 53.2 L-362.65 85.65 Q-362.65 94.35 -368.8 100.5 -374.95 106.65 -383.65 106.65 L-823.6 106.65 -850.6 127.15 -842.05 102.7 -844.55 100.5 Q-850.7 94.35 -850.7 85.65 L-850.7 53.2 Q-850.7 44.5 -844.55 38.35 -838.4 32.2 -829.7 32.2 Z" fill="none" stroke="#000000" stroke-linecap="round" stroke-linejoin="round" stroke-width="2.0"/>
  </g>
</svg>
