<?xml version="1.0" encoding="UTF-8" standalone="no"?>
<svg xmlns:xlink="http://www.w3.org/1999/xlink" height="58.1px" width="385.9px" xmlns="http://www.w3.org/2000/svg">
  <g transform="matrix(1.0, 0.0, 0.0, 1.0, 660.2, 106.95)">
    <path d="M-631.2 -105.95 L-303.35 -105.95 Q-291.7 -105.95 -283.5 -97.7 -275.3 -89.5 -275.3 -77.9 -275.3 -66.25 -283.5 -58.05 -291.7 -49.85 -303.35 -49.85 L-631.2 -49.85 Q-642.8 -49.85 -651.05 -58.05 -659.2 -66.25 -659.2 -77.9 -659.2 -89.5 -651.05 -97.7 -642.8 -105.95 -631.2 -105.95" fill="#1a1d3f" fill-opacity="0.627451" fill-rule="evenodd" stroke="none"/>
    <path d="M-631.2 -105.95 L-303.35 -105.95 Q-291.7 -105.95 -283.5 -97.7 -275.3 -89.5 -275.3 -77.9 -275.3 -66.25 -283.5 -58.05 -291.7 -49.85 -303.35 -49.85 L-631.2 -49.85 Q-642.8 -49.85 -651.05 -58.05 -659.2 -66.25 -659.2 -77.9 -659.2 -89.5 -651.05 -97.7 -642.8 -105.95 -631.2 -105.95 Z" fill="none" stroke="#a1b1d7" stroke-linecap="round" stroke-linejoin="round" stroke-opacity="0.83137256" stroke-width="2.0"/>
  </g>
</svg>
