<?xml version="1.0" encoding="UTF-8" standalone="no"?>
<svg xmlns:xlink="http://www.w3.org/1999/xlink" height="426.8px" width="340.55px" xmlns="http://www.w3.org/2000/svg">
  <g transform="matrix(1.0, 0.0, 0.0, 1.0, 798.1, 249.3)">
    <path d="M-457.55 -247.0 L-457.55 176.5 -460.65 176.5 -460.65 -247.0 -457.55 -247.0 M-791.9 -33.7 L-791.9 -36.8 -464.15 -36.8 -464.15 -33.7 -791.9 -33.7" fill="#80879a" fill-rule="evenodd" stroke="none"/>
    <path d="M-794.15 -248.45 L-793.7 -248.45 -793.7 -247.0 -793.75 -247.0 -793.75 176.5 -793.7 176.5 -793.7 176.65 -794.15 176.65 -794.15 -248.45" fill="#1e212c" fill-opacity="0.4" fill-rule="evenodd" stroke="none"/>
    <path d="M-798.1 -247.0 L-796.1 -247.0 -796.1 176.5 -798.1 176.5 -798.1 -247.0" fill="#6f839a" fill-rule="evenodd" stroke="none"/>
    <path d="M-794.15 -248.45 L-793.7 -248.45 -793.7 -247.0 M-793.7 176.5 L-793.7 176.65 -794.15 176.65" fill="none" stroke="#000000" stroke-linecap="round" stroke-linejoin="round" stroke-width="1.7000000000000002"/>
  </g>
</svg>
