<?xml version="1.0" encoding="UTF-8" standalone="no"?>
<svg xmlns:xlink="http://www.w3.org/1999/xlink" height="209.5px" width="330.2px" xmlns="http://www.w3.org/2000/svg">
  <g transform="matrix(1.0, 0.0, 0.0, 1.0, 504.8, 104.75)">
    <path d="M-504.8 26.25 L-504.8 -104.75 -174.6 -104.75 -174.6 26.25 -504.8 26.25" fill="#111828" fill-opacity="0.54901963" fill-rule="evenodd" stroke="none"/>
    <path d="M-504.8 26.25 L-174.6 26.25 -174.6 104.75 -504.8 104.75 -504.8 26.25" fill="#111828" fill-opacity="0.9490196" fill-rule="evenodd" stroke="none"/>
    <path d="M-183.05 68.1 Q-183.05 70.0 -229.2 71.4 -275.2 72.8 -340.4 72.8 -405.6 72.8 -451.7 71.4 -497.75 70.0 -497.75 68.1 -497.75 66.15 -451.7 64.75 -405.6 63.4 -340.4 63.4 -275.2 63.4 -229.2 64.75 -183.05 66.15 -183.05 68.1" fill="url(#gradient0)" fill-rule="evenodd" stroke="none"/>
  </g>
  <defs>
    <radialGradient cx="0" cy="0" gradientTransform="matrix(0.1944, 0.0, 0.0, 0.0058, -340.4, 68.1)" gradientUnits="userSpaceOnUse" id="gradient0" r="819.2" spreadMethod="pad">
      <stop offset="0.4470588235294118" stop-color="#8ccefd" stop-opacity="0.49803922"/>
      <stop offset="1.0" stop-color="#3e5487" stop-opacity="0.0"/>
    </radialGradient>
  </defs>
</svg>
