<?xml version="1.0" encoding="UTF-8" standalone="no"?>
<svg xmlns:xlink="http://www.w3.org/1999/xlink" height="49.15px" width="602.6px" xmlns="http://www.w3.org/2000/svg">
  <g transform="matrix(1.0, 0.0, 0.0, 1.0, 116.9, 24.7)">
    <path d="M45.25 -24.05 L108.1 -24.05 108.1 23.8 108.1 -24.05 170.9 -24.05 233.75 -24.05 296.5 -24.05 359.4 -24.05 422.3 -24.05 485.2 -24.05 485.2 23.8 422.3 23.8 359.4 23.8 296.5 23.8 233.75 23.8 170.9 23.8 108.1 23.8 45.25 23.8 45.25 -24.05 45.25 23.8 -17.45 23.8 -17.45 -24.05 45.25 -24.05 M170.9 23.8 L170.9 -24.05 170.9 23.8 M233.75 -24.05 L233.75 23.8 233.75 -24.05 M296.5 23.8 L296.5 -24.05 296.5 23.8 M359.4 -24.05 L359.4 23.8 359.4 -24.05 M422.3 23.8 L422.3 -24.05 422.3 23.8 M-21.05 23.95 L-116.4 23.95 -116.4 -24.2 -21.05 -24.2 -21.05 23.95" fill="#1c1d2a" fill-opacity="0.8" fill-rule="evenodd" stroke="none"/>
    <path d="M108.1 -24.05 L45.25 -24.05 45.25 23.8 108.1 23.8 108.1 -24.05 170.9 -24.05 233.75 -24.05 296.5 -24.05 359.4 -24.05 422.3 -24.05 485.2 -24.05 485.2 23.8 422.3 23.8 359.4 23.8 296.5 23.8 233.75 23.8 170.9 23.8 108.1 23.8 M422.3 -24.05 L422.3 23.8 M359.4 23.8 L359.4 -24.05 M296.5 -24.05 L296.5 23.8 M233.75 23.8 L233.75 -24.05 M170.9 -24.05 L170.9 23.8 M-21.05 23.95 L-116.4 23.95 -116.4 -24.2 -21.05 -24.2 -21.05 23.95 M45.25 23.8 L-17.45 23.8 -17.45 -24.05 45.25 -24.05" fill="none" stroke="#a1a8d2" stroke-linecap="round" stroke-linejoin="round" stroke-opacity="0.6" stroke-width="1.0"/>
    <path d="M-85.85 -1.5 Q-85.2 -2.0 -84.3 -2.0 -83.4 -2.0 -82.7 -1.5 -82.05 -0.85 -82.05 0.1 -82.05 1.0 -82.7 1.7 -83.4 2.3 -84.3 2.3 -85.2 2.3 -85.85 1.7 -86.55 1.0 -86.55 0.1 -86.55 -0.85 -85.85 -1.5 M-97.7 -0.5 L-88.7 -9.3 Q-88.4 -9.7 -87.95 -9.7 -87.3 -9.7 -86.95 -9.3 -86.65 -8.95 -86.65 -8.4 -86.65 -7.95 -87.05 -7.6 L-95.15 0.3 -87.1 7.65 Q-86.65 8.0 -86.65 8.55 -86.65 9.05 -86.9 9.45 L-86.95 9.5 Q-87.25 9.8 -87.85 9.8 L-88.7 9.5 -97.75 1.25 -97.8 1.2 -98.05 0.7 -98.05 0.6 -98.05 0.1 -98.05 0.05 -97.7 -0.5" fill="#7d81a3" fill-rule="evenodd" stroke="none"/>
  </g>
</svg>
