<?xml version="1.0" encoding="UTF-8" standalone="no"?>
<svg xmlns:xlink="http://www.w3.org/1999/xlink" height="30.45px" width="23.4px" xmlns="http://www.w3.org/2000/svg">
  <g transform="matrix(1.0, 0.0, 0.0, 1.0, 11.7, 15.25)">
    <path d="M-8.1 -5.1 L-8.05 -5.1 -8.05 -11.6 Q-8.05 -15.25 -4.4 -15.25 L4.3 -15.25 Q7.95 -15.25 7.95 -11.6 L7.95 -5.1 8.1 -5.1 Q11.7 -5.1 11.7 -1.5 L11.7 11.6 Q11.7 15.2 8.1 15.2 L-8.1 15.2 Q-11.7 15.2 -11.7 11.6 L-11.7 -1.5 Q-11.7 -5.1 -8.1 -5.1 M2.9 2.65 Q2.9 1.5 2.05 0.6 1.25 -0.2 0.0 -0.2 -1.2 -0.2 -2.1 0.6 -2.9 1.5 -2.9 2.65 -2.9 3.85 -2.1 4.7 L-1.0 5.4 -1.0 8.5 -0.75 9.1 -0.1 9.35 -0.05 9.35 0.6 9.1 0.85 8.5 0.85 5.45 Q1.55 5.3 2.05 4.7 2.9 3.85 2.9 2.65 M-2.9 -12.45 Q-5.3 -12.45 -5.35 -10.35 L-5.35 -5.1 5.2 -5.1 5.2 -10.35 Q5.15 -12.45 2.75 -12.45 L-2.9 -12.45" fill="#8297af" fill-opacity="0.61960787" fill-rule="evenodd" stroke="none"/>
  </g>
</svg>
