<?xml version="1.0" encoding="UTF-8" standalone="no"?>
<svg xmlns:xlink="http://www.w3.org/1999/xlink" height="45.25px" width="175.5px" xmlns="http://www.w3.org/2000/svg">
  <g transform="matrix(1.0, 0.0, 0.0, 1.0, 44.75, 73.15)">
    <path d="M50.2 -53.65 L55.4 -71.9 55.75 -72.4 56.35 -72.65 61.95 -72.65 62.45 -72.4 62.5 -71.9 57.55 -54.6 50.2 -53.65 M66.9 -55.75 L71.5 -71.9 71.85 -72.4 72.4 -72.65 78.05 -72.65 78.5 -72.4 78.55 -71.9 74.2 -56.65 66.9 -55.75 M20.3 -49.95 L23.65 -61.7 Q25.15 -66.9 29.15 -70.05 33.2 -73.15 38.45 -73.15 43.2 -73.15 45.55 -70.5 47.95 -67.85 47.2 -63.4 L46.8 -61.65 46.1 -59.2 45.75 -58.65 45.15 -58.45 39.5 -58.45 39.0 -58.65 Q38.8 -58.85 38.95 -59.2 L39.7 -61.75 39.9 -62.65 Q40.2 -64.55 39.35 -65.7 38.4 -66.85 36.55 -66.85 34.6 -66.85 33.05 -65.45 31.4 -64.05 30.75 -61.75 L27.6 -50.85 20.3 -49.95 M-6.55 -46.6 L0.65 -71.9 1.05 -72.4 1.6 -72.65 21.55 -72.65 22.05 -72.4 22.1 -71.9 20.7 -67.1 20.3 -66.55 Q20.1 -66.35 19.8 -66.35 L6.5 -66.35 6.15 -66.05 2.65 -54.05 Q2.6 -53.75 2.95 -53.75 L10.8 -53.75 Q11.1 -53.75 11.25 -53.55 L11.25 -53.0 10.0 -48.65 -6.55 -46.6 M80.8 -57.45 L84.9 -71.9 85.3 -72.4 85.85 -72.65 92.15 -72.65 Q92.8 -72.65 92.8 -72.0 L93.6 -59.05 80.8 -57.45 M98.9 -59.7 L102.35 -71.9 102.75 -72.4 103.25 -72.65 108.85 -72.65 109.35 -72.4 109.35 -71.9 106.15 -60.6 98.9 -59.7 M117.75 -62.0 L122.65 -71.95 Q122.95 -72.65 123.6 -72.65 L130.1 -72.65 Q130.85 -72.65 130.75 -71.95 L130.15 -63.55 117.75 -62.0 M-20.6 -44.85 L-16.55 -59.0 Q-16.45 -59.25 -16.6 -59.25 L-16.95 -59.05 -25.15 -49.1 Q-25.5 -48.55 -25.8 -48.55 L-26.1 -48.7 -26.25 -49.1 -28.7 -59.05 -28.85 -59.25 -29.05 -59.0 -33.55 -43.25 -40.85 -42.35 -32.45 -71.9 -32.1 -72.4 -31.55 -72.65 -25.95 -72.65 Q-25.3 -72.65 -25.15 -72.15 L-22.25 -61.35 Q-22.2 -61.05 -21.95 -61.35 L-12.95 -72.15 Q-12.6 -72.65 -11.95 -72.65 L-6.35 -72.65 Q-6.0 -72.65 -5.8 -72.4 L-5.8 -71.9 -13.25 -45.8 -20.6 -44.85" fill="#8892a6" fill-rule="evenodd" stroke="none"/>
    <path d="M32.1 -51.4 L32.25 -51.6 32.8 -51.8 35.1 -51.8 32.1 -51.4" fill="#a8a8a8" fill-rule="evenodd" stroke="none"/>
    <path d="M57.55 -54.6 L53.35 -39.9 53.1 -38.75 Q52.75 -36.65 53.6 -35.45 54.45 -34.2 56.2 -34.2 58.15 -34.2 59.85 -35.8 61.55 -37.4 62.35 -39.9 L66.9 -55.75 74.2 -56.65 69.65 -40.65 Q68.0 -34.9 63.85 -31.4 59.6 -27.9 54.35 -27.9 49.65 -27.9 47.45 -30.75 45.15 -33.6 45.95 -38.45 L46.45 -40.65 50.2 -53.65 57.55 -54.6 M27.6 -50.85 L24.2 -39.25 24.05 -38.4 Q23.7 -36.5 24.6 -35.35 25.45 -34.2 27.3 -34.2 29.3 -34.2 30.95 -35.6 32.65 -37.0 33.25 -39.25 L35.0 -45.35 Q35.15 -45.65 34.8 -45.65 L31.05 -45.65 Q30.75 -45.65 30.55 -45.85 L30.55 -46.45 31.9 -51.05 32.1 -51.4 35.1 -51.8 43.2 -51.8 43.75 -51.6 43.75 -51.05 40.4 -39.35 Q38.9 -34.15 34.8 -31.0 30.7 -27.9 25.5 -27.9 20.75 -27.9 18.45 -30.5 16.1 -33.1 16.85 -37.5 L17.25 -39.35 20.3 -49.95 27.6 -50.85 M10.0 -48.65 L9.85 -48.15 9.5 -47.6 8.9 -47.35 1.05 -47.35 0.7 -47.05 -2.75 -35.05 Q-2.8 -34.75 -2.5 -34.75 L10.7 -34.75 11.15 -34.5 11.2 -33.95 9.9 -29.15 9.5 -28.6 8.9 -28.4 -11.0 -28.4 Q-11.7 -28.4 -11.55 -29.15 L-6.55 -46.6 10.0 -48.65 M106.15 -60.6 L97.15 -29.15 96.8 -28.6 96.2 -28.4 89.8 -28.4 Q89.15 -28.4 89.15 -29.0 L87.7 -55.85 87.55 -56.0 87.3 -55.8 79.8 -29.15 79.4 -28.6 78.8 -28.4 73.25 -28.4 Q72.55 -28.4 72.7 -29.15 L80.8 -57.45 93.6 -59.05 94.4 -45.4 Q94.4 -45.2 94.55 -45.25 L94.8 -45.45 98.9 -59.7 106.15 -60.6 M114.35 -42.1 Q114.25 -41.8 114.65 -41.8 L121.4 -41.8 121.85 -42.1 123.95 -62.1 123.85 -62.3 Q123.75 -62.3 123.6 -62.1 L114.35 -42.1 M130.15 -63.55 L127.65 -29.25 127.6 -29.1 Q127.5 -28.4 126.7 -28.4 L121.0 -28.4 Q120.25 -28.4 120.35 -29.1 L121.15 -35.75 120.85 -36.05 111.9 -36.05 Q111.6 -36.05 111.45 -35.75 L108.35 -29.1 Q108.1 -28.4 107.35 -28.4 L101.8 -28.4 Q101.0 -28.4 101.4 -29.25 L117.75 -62.0 130.15 -63.55 M-33.55 -43.25 L-37.6 -29.15 -37.95 -28.6 -38.6 -28.4 -44.2 -28.4 Q-44.5 -28.4 -44.65 -28.6 -44.85 -28.85 -44.65 -29.15 L-40.85 -42.35 -33.55 -43.25 M-13.25 -45.8 L-18.0 -29.15 -18.35 -28.6 -18.95 -28.4 -24.6 -28.4 -25.05 -28.6 Q-25.25 -28.85 -25.1 -29.15 L-20.6 -44.85 -13.25 -45.8" fill="#1d9b70" fill-rule="evenodd" stroke="none"/>
  </g>
</svg>
