<?xml version="1.0" encoding="UTF-8" standalone="no"?>
<svg xmlns:xlink="http://www.w3.org/1999/xlink" height="45.25px" width="175.5px" xmlns="http://www.w3.org/2000/svg">
  <g transform="matrix(1.0, 0.0, 0.0, 1.0, 42.25, 70.65)">
    <path d="M56.85 -25.4 Q52.15 -25.4 49.95 -28.25 47.65 -31.1 48.45 -35.95 L48.95 -38.15 57.9 -69.4 58.25 -69.9 58.85 -70.15 64.45 -70.15 64.95 -69.9 65.0 -69.4 55.85 -37.4 55.6 -36.25 Q55.25 -34.15 56.1 -32.95 56.95 -31.7 58.7 -31.7 60.65 -31.7 62.35 -33.3 64.05 -34.9 64.85 -37.4 L74.0 -69.4 74.35 -69.9 74.9 -70.15 80.55 -70.15 81.0 -69.9 81.05 -69.4 72.15 -38.15 Q70.5 -32.4 66.35 -28.9 62.1 -25.4 56.85 -25.4 M28.0 -25.4 Q23.25 -25.4 20.95 -28.0 18.6 -30.6 19.35 -35.0 L19.75 -36.85 26.15 -59.2 Q27.65 -64.4 31.65 -67.55 35.7 -70.65 40.95 -70.65 45.7 -70.65 48.05 -68.0 50.45 -65.35 49.7 -60.9 L49.3 -59.15 48.6 -56.7 48.25 -56.15 47.65 -55.95 42.0 -55.95 41.5 -56.15 Q41.3 -56.35 41.45 -56.7 L42.2 -59.25 42.4 -60.15 Q42.7 -62.05 41.85 -63.2 40.9 -64.35 39.05 -64.35 37.1 -64.35 35.55 -62.95 33.9 -61.55 33.25 -59.25 L26.7 -36.75 26.55 -35.9 Q26.2 -34.0 27.1 -32.85 27.95 -31.7 29.8 -31.7 31.8 -31.7 33.45 -33.1 35.15 -34.5 35.75 -36.75 L37.5 -42.85 Q37.65 -43.15 37.3 -43.15 L33.55 -43.15 Q33.25 -43.15 33.05 -43.35 L33.05 -43.95 34.4 -48.55 34.75 -49.1 35.3 -49.3 45.7 -49.3 46.25 -49.1 46.25 -48.55 42.9 -36.85 Q41.4 -31.65 37.3 -28.5 33.2 -25.4 28.0 -25.4 M23.2 -64.6 L22.8 -64.05 Q22.6 -63.85 22.3 -63.85 L9.0 -63.85 8.65 -63.55 5.15 -51.55 Q5.1 -51.25 5.45 -51.25 L13.3 -51.25 13.75 -51.05 13.75 -50.5 12.35 -45.65 12.0 -45.1 11.4 -44.85 3.55 -44.85 3.2 -44.55 -0.25 -32.55 Q-0.3 -32.25 0.0 -32.25 L13.2 -32.25 13.65 -32.0 13.7 -31.45 12.4 -26.65 12.0 -26.1 11.4 -25.9 -8.5 -25.9 Q-9.2 -25.9 -9.05 -26.65 L3.15 -69.4 3.55 -69.9 4.1 -70.15 24.05 -70.15 24.55 -69.9 24.6 -69.4 23.2 -64.6 M104.85 -69.4 L105.25 -69.9 105.75 -70.15 111.35 -70.15 111.85 -69.9 111.85 -69.4 99.65 -26.65 99.3 -26.1 98.7 -25.9 92.3 -25.9 Q91.65 -25.9 91.65 -26.5 L90.2 -53.35 90.05 -53.5 Q89.85 -53.45 89.8 -53.3 L82.3 -26.65 81.9 -26.1 81.3 -25.9 75.75 -25.9 Q75.05 -25.9 75.2 -26.65 L87.4 -69.4 87.8 -69.9 88.35 -70.15 94.65 -70.15 Q95.3 -70.15 95.3 -69.5 L96.9 -42.9 Q96.9 -42.7 97.05 -42.75 L97.3 -42.95 104.85 -69.4 M123.5 -25.9 Q122.75 -25.9 122.85 -26.6 L123.65 -33.25 123.35 -33.55 114.4 -33.55 Q114.1 -33.55 113.95 -33.25 L110.85 -26.6 Q110.6 -25.9 109.85 -25.9 L104.3 -25.9 Q103.5 -25.9 103.9 -26.75 L125.15 -69.45 Q125.45 -70.15 126.1 -70.15 L132.6 -70.15 Q133.35 -70.15 133.25 -69.45 L130.15 -26.75 130.1 -26.6 Q130.0 -25.9 129.2 -25.9 L123.5 -25.9 M116.85 -39.6 Q116.75 -39.3 117.15 -39.3 L123.9 -39.3 124.35 -39.6 126.45 -59.6 126.35 -59.8 126.1 -59.6 116.85 -39.6 M-10.45 -69.65 Q-10.1 -70.15 -9.45 -70.15 L-3.85 -70.15 -3.3 -69.9 -3.3 -69.4 -15.5 -26.65 -15.85 -26.1 -16.45 -25.9 -22.1 -25.9 Q-22.4 -25.9 -22.55 -26.1 -22.75 -26.35 -22.6 -26.65 L-14.05 -56.5 Q-13.95 -56.75 -14.1 -56.75 L-14.45 -56.55 -22.65 -46.6 Q-23.0 -46.05 -23.3 -46.05 L-23.6 -46.2 -23.75 -46.6 -26.2 -56.55 Q-26.2 -56.75 -26.35 -56.75 L-26.55 -56.5 -35.1 -26.65 -35.45 -26.1 -36.1 -25.9 -41.7 -25.9 -42.15 -26.1 Q-42.35 -26.35 -42.15 -26.65 L-29.95 -69.4 -29.6 -69.9 -29.05 -70.15 -23.45 -70.15 Q-22.8 -70.15 -22.65 -69.65 L-19.75 -58.85 Q-19.7 -58.55 -19.45 -58.85 L-10.45 -69.65" fill="#000000" fill-rule="evenodd" stroke="none"/>
  </g>
</svg>
