<?xml version="1.0" encoding="UTF-8" standalone="no"?>
<svg xmlns:xlink="http://www.w3.org/1999/xlink" height="55.5px" width="251.35px" xmlns="http://www.w3.org/2000/svg">
  <g transform="matrix(1.0, 0.0, 0.0, 1.0, 125.8, 27.75)">
    <path d="M-1.05 -26.75 L98.05 -26.75 Q109.15 -26.75 116.95 -18.95 124.8 -11.1 124.8 0.0 124.8 11.1 116.95 18.9 109.15 26.75 98.05 26.75 L-1.05 26.75 -1.05 -26.75" fill="url(#gradient0)" fill-rule="evenodd" stroke="none"/>
    <path d="M-1.05 26.75 L-98.05 26.75 Q-109.15 26.75 -117.0 18.9 -124.8 11.1 -124.8 0.0 -124.8 -11.1 -117.0 -18.95 -109.15 -26.75 -98.05 -26.75 L-1.05 -26.75 -1.05 26.75" fill="url(#gradient1)" fill-rule="evenodd" stroke="none"/>
    <path d="M-1.05 -26.75 L98.05 -26.75 Q109.15 -26.75 116.95 -18.95 124.8 -11.1 124.8 0.0 124.8 11.1 116.95 18.9 109.15 26.75 98.05 26.75 L-1.05 26.75" fill="none" stroke="#6b62a8" stroke-linecap="round" stroke-linejoin="round" stroke-opacity="0.54901963" stroke-width="1.5"/>
    <path d="M-1.05 26.75 L-98.05 26.75 Q-109.15 26.75 -117.0 18.9 -124.8 11.1 -124.8 0.0 -124.8 -11.1 -117.0 -18.95 -109.15 -26.75 -98.05 -26.75 L-1.05 -26.75 -1.05 26.75" fill="none" stroke="#98b6e0" stroke-linecap="round" stroke-linejoin="round" stroke-opacity="0.6666667" stroke-width="2.0"/>
  </g>
  <defs>
    <linearGradient gradientTransform="matrix(0.0, -0.0298, 0.0768, 0.0, 61.85, -0.7)" gradientUnits="userSpaceOnUse" id="gradient0" spreadMethod="pad" x1="-819.2" x2="819.2">
      <stop offset="0.0" stop-color="#372837" stop-opacity="0.9490196"/>
      <stop offset="1.0" stop-color="#27223c" stop-opacity="0.8980392"/>
    </linearGradient>
    <linearGradient gradientTransform="matrix(0.0, 0.0294, -0.0755, 0.0, -62.9, -0.35)" gradientUnits="userSpaceOnUse" id="gradient1" spreadMethod="pad" x1="-819.2" x2="819.2">
      <stop offset="0.00784313725490196" stop-color="#292e5d" stop-opacity="0.9490196"/>
      <stop offset="1.0" stop-color="#374564" stop-opacity="0.8980392"/>
    </linearGradient>
  </defs>
</svg>
