<?xml version="1.0" encoding="UTF-8" standalone="no"?>
<svg xmlns:xlink="http://www.w3.org/1999/xlink" height="90.05px" width="321.25px" xmlns="http://www.w3.org/2000/svg">
  <g transform="matrix(1.0, 0.0, 0.0, 1.0, 161.1, 43.8)">
    <path d="M160.15 1.2 Q160.15 19.85 113.15 33.0 66.1 46.25 -0.45 46.25 -67.05 46.25 -114.1 33.0 -161.1 19.85 -161.1 1.2 -161.1 -17.45 -114.1 -30.7 -67.05 -43.8 -0.45 -43.8 66.1 -43.8 113.15 -30.7 160.15 -17.45 160.15 1.2" fill="url(#gradient0)" fill-rule="evenodd" stroke="none"/>
    <path d="M21.05 21.2 Q20.35 21.2 20.35 20.55 L19.45 15.45 19.15 15.15 12.2 15.15 Q11.95 15.15 11.95 15.45 L11.05 20.55 Q10.95 21.2 10.35 21.2 L4.05 21.2 Q3.35 21.2 3.5 20.5 L11.45 -16.05 Q11.55 -16.7 12.15 -16.7 L19.45 -16.7 Q20.0 -16.7 20.15 -16.05 L28.1 20.7 Q28.1 21.2 27.5 21.2 L21.05 21.2 M13.0 9.0 L13.2 9.2 18.1 9.2 18.3 9.0 15.75 -5.8 15.55 -6.0 15.4 -5.8 13.0 9.0 M47.45 21.2 Q46.9 21.2 46.75 20.65 L42.6 5.7 42.3 5.5 40.45 5.5 Q40.15 5.5 40.15 5.8 L40.15 20.5 40.05 21.0 39.55 21.2 33.25 21.2 Q32.95 21.2 32.75 21.0 L32.55 20.5 32.55 -16.05 32.75 -16.45 33.25 -16.7 44.15 -16.7 Q47.1 -16.7 49.45 -15.2 51.75 -13.85 53.0 -11.2 54.3 -8.65 54.3 -5.25 54.3 -2.1 53.1 0.4 51.9 2.8 49.7 4.15 L49.55 4.25 49.55 4.45 54.6 20.65 Q54.6 21.2 54.0 21.2 L47.45 21.2 M40.45 -10.15 L40.15 -9.9 40.15 -0.6 Q40.15 -0.3 40.45 -0.3 L42.9 -0.3 Q44.6 -0.3 45.65 -1.65 46.7 -2.95 46.7 -5.15 46.7 -7.45 45.65 -8.85 44.6 -10.15 42.9 -10.15 L40.45 -10.15 M62.15 8.2 L61.7 8.0 61.55 7.55 60.7 -16.05 60.9 -16.45 61.35 -16.7 67.65 -16.7 68.15 -16.45 68.35 -16.05 67.55 7.55 67.35 8.0 Q67.25 8.2 66.95 8.2 L62.15 8.2 M64.6 21.1 Q62.8 21.1 61.55 19.95 60.35 18.7 60.35 16.9 60.35 14.95 61.55 13.75 62.7 12.6 64.6 12.6 66.45 12.6 67.65 13.75 68.8 14.95 68.8 16.9 68.8 18.7 67.65 19.95 66.45 21.1 64.6 21.1 M-60.7 21.6 Q-65.55 21.6 -68.5 18.75 -71.45 15.85 -71.45 11.0 L-71.45 -6.55 Q-71.45 -11.4 -68.5 -14.25 -65.55 -17.1 -60.7 -17.1 -55.75 -17.1 -52.85 -14.25 -49.85 -11.4 -49.85 -6.55 L-49.85 -6.0 -50.05 -5.5 -50.55 -5.3 -56.85 -5.05 Q-57.5 -5.05 -57.5 -5.65 L-57.5 -7.05 Q-57.5 -8.65 -58.4 -9.6 -59.25 -10.6 -60.7 -10.6 -62.15 -10.6 -62.95 -9.6 -63.85 -8.65 -63.85 -7.05 L-63.85 11.6 Q-63.85 13.2 -62.95 14.1 -62.15 15.1 -60.7 15.1 -59.25 15.1 -58.4 14.1 -57.5 13.2 -57.5 11.6 L-57.5 10.15 -57.35 9.7 -56.85 9.55 -50.55 9.75 -50.05 9.95 -49.85 10.45 -49.85 11.0 Q-49.85 15.85 -52.85 18.75 -55.85 21.6 -60.7 21.6 M-43.75 21.2 L-44.25 21.0 -44.45 20.5 -44.45 -16.05 -44.25 -16.45 -43.75 -16.7 -37.45 -16.7 -36.95 -16.45 -36.8 -16.05 -36.8 14.4 -36.55 14.65 -25.15 14.65 Q-24.9 14.65 -24.7 14.8 -24.55 15.0 -24.55 15.3 L-24.55 20.5 Q-24.55 20.85 -24.7 21.0 -24.9 21.2 -25.15 21.2 L-43.75 21.2 M-0.15 -10.8 Q-0.15 -10.5 -0.35 -10.3 L-0.8 -10.15 -12.15 -10.15 -12.4 -9.9 -12.4 -1.3 -12.15 -1.05 -5.6 -1.05 Q-5.35 -1.05 -5.2 -0.85 L-5.0 -0.4 -5.0 4.9 -5.2 5.3 Q-5.35 5.5 -5.6 5.5 L-12.15 5.5 -12.4 5.8 -12.4 14.4 -12.15 14.65 -0.8 14.65 -0.35 14.8 -0.15 15.3 -0.15 20.5 Q-0.15 20.85 -0.35 21.0 -0.55 21.2 -0.8 21.2 L-19.35 21.2 -19.85 21.0 -20.05 20.5 -20.05 -16.05 -19.85 -16.45 -19.35 -16.7 -0.8 -16.7 -0.35 -16.45 -0.15 -16.05 -0.15 -10.8" fill="url(#gradient1)" fill-rule="evenodd" stroke="none"/>
  </g>
  <defs>
    <radialGradient cx="0" cy="0" gradientTransform="matrix(0.1977, 0.0, 0.0, 0.0554, -0.45, 1.2)" gradientUnits="userSpaceOnUse" id="gradient0" r="819.2" spreadMethod="pad">
      <stop offset="0.0" stop-color="#000000"/>
      <stop offset="0.615686274509804" stop-color="#000000" stop-opacity="0.76862746"/>
      <stop offset="1.0" stop-color="#000000" stop-opacity="0.0"/>
    </radialGradient>
    <linearGradient gradientTransform="matrix(0.0, 0.0218, -0.0856, 0.0, -1.3, 1.4)" gradientUnits="userSpaceOnUse" id="gradient1" spreadMethod="pad" x1="-819.2" x2="819.2">
      <stop offset="0.0" stop-color="#3c99b8"/>
      <stop offset="1.0" stop-color="#86e6e9" stop-opacity="0.9882353"/>
    </linearGradient>
  </defs>
</svg>
