<?xml version="1.0" encoding="UTF-8" standalone="no"?>
<svg xmlns:xlink="http://www.w3.org/1999/xlink" height="29.05px" width="73.8px" xmlns="http://www.w3.org/2000/svg">
  <g transform="matrix(1.0, 0.0, 0.0, 1.0, 36.9, 14.5)">
    <path d="M-30.9 -14.5 L30.9 -14.5 Q36.9 -14.5 36.9 -8.15 L36.9 8.2 Q36.9 14.55 30.9 14.55 L-30.9 14.55 Q-36.9 14.55 -36.9 8.2 L-36.9 -8.15 Q-36.9 -14.5 -30.9 -14.5" fill="#d3e8ff" fill-opacity="0.8666667" fill-rule="evenodd" stroke="none"/>
    <path d="M8.45 -2.5 L8.85 -2.35 9.05 -1.95 9.05 1.85 8.85 2.25 Q8.75 2.45 8.45 2.45 L2.6 2.45 2.35 2.65 2.35 8.5 2.2 8.9 1.75 9.05 -2.05 9.05 -2.45 8.9 -2.6 8.5 -2.6 2.65 -2.8 2.45 -8.65 2.45 -9.1 2.25 -9.2 1.85 -9.2 -1.95 -9.1 -2.35 -8.65 -2.5 -2.8 -2.5 -2.6 -2.75 -2.6 -8.65 -2.45 -9.05 -2.05 -9.2 1.75 -9.2 2.2 -9.05 2.35 -8.65 2.35 -2.75 Q2.35 -2.5 2.6 -2.5 L8.45 -2.5" fill="#414872" fill-rule="evenodd" stroke="none"/>
  </g>
</svg>
