<?xml version="1.0" encoding="UTF-8" standalone="no"?>
<svg xmlns:xlink="http://www.w3.org/1999/xlink" height="111.1px" width="1519.4px" xmlns="http://www.w3.org/2000/svg">
  <g transform="matrix(1.0, 0.0, 0.0, 1.0, 771.25, 55.55)">
    <path d="M747.15 -54.55 L747.15 54.55 -770.25 54.55 -770.25 -54.55 747.15 -54.55" fill="url(#gradient0)" fill-rule="evenodd" stroke="none"/>
    <path d="M747.15 54.55 L-770.25 54.55 M-770.25 -54.55 L747.15 -54.55" fill="none" stroke="url(#gradient1)" stroke-linecap="round" stroke-linejoin="round" stroke-width="2.0"/>
    <path d="M-153.1 30.65 Q-154.1 30.65 -154.3 29.6 L-167.1 -31.2 Q-167.1 -32.0 -166.15 -32.0 L-154.6 -32.0 Q-153.6 -32.0 -153.5 -31.0 L-147.25 8.35 -147.05 8.65 -146.75 8.35 -140.8 -31.0 Q-140.65 -32.0 -139.6 -32.0 L-128.35 -32.0 Q-127.3 -32.0 -127.55 -30.85 L-140.4 29.6 Q-140.55 30.65 -141.6 30.65 L-153.1 30.65 M-118.2 30.65 Q-118.7 30.65 -119.0 30.3 -119.35 30.05 -119.35 29.5 L-119.35 -30.9 Q-119.35 -31.45 -119.0 -31.7 L-118.2 -32.0 -107.8 -32.0 Q-107.4 -32.0 -107.1 -31.7 -106.7 -31.45 -106.7 -30.9 L-106.7 29.5 Q-106.7 30.05 -107.1 30.3 -107.4 30.65 -107.8 30.65 L-118.2 30.65 M-79.6 31.35 Q-87.7 31.35 -92.55 26.55 -97.45 21.75 -97.45 13.7 L-97.45 -15.3 Q-97.45 -23.25 -92.55 -27.95 -87.7 -32.7 -79.6 -32.7 -71.5 -32.7 -66.6 -27.95 -61.75 -23.25 -61.75 -15.3 L-61.75 -14.3 Q-61.75 -13.8 -62.05 -13.55 -62.45 -13.2 -62.85 -13.2 L-73.3 -12.75 Q-74.35 -12.75 -74.35 -13.8 L-74.35 -16.1 Q-74.35 -18.7 -75.85 -20.25 -77.25 -21.85 -79.6 -21.85 -82.05 -21.85 -83.45 -20.25 -84.9 -18.7 -84.9 -16.1 L-84.9 14.85 Q-84.9 17.4 -83.45 19.0 -82.05 20.5 -79.6 20.5 -77.25 20.5 -75.85 19.0 -74.35 17.4 -74.35 14.85 L-74.35 12.3 -74.1 11.6 -73.3 11.35 -62.85 11.75 Q-62.45 11.75 -62.05 12.05 -61.75 12.3 -61.75 12.85 L-61.75 13.7 Q-61.75 21.75 -66.7 26.55 -71.6 31.35 -79.6 31.35 M-18.2 -32.0 Q-17.8 -32.0 -17.5 -31.7 -17.1 -31.45 -17.1 -30.9 L-17.1 -22.25 Q-17.1 -21.75 -17.5 -21.5 -17.8 -21.15 -18.2 -21.15 L-29.45 -21.15 Q-29.85 -21.15 -29.85 -20.8 L-29.85 29.5 Q-29.85 30.05 -30.15 30.3 -30.55 30.65 -30.95 30.65 L-41.35 30.65 Q-41.85 30.65 -42.15 30.3 -42.5 30.05 -42.5 29.5 L-42.5 -20.8 Q-42.5 -21.15 -42.95 -21.15 L-53.6 -21.15 Q-54.1 -21.15 -54.4 -21.5 L-54.7 -22.25 -54.7 -30.9 -54.4 -31.7 -53.6 -32.0 -18.2 -32.0 M8.35 31.35 Q0.2 31.35 -4.75 26.55 -9.65 21.65 -9.65 13.6 L-9.65 -15.0 Q-9.65 -23.05 -4.75 -27.95 0.2 -32.7 8.35 -32.7 16.6 -32.7 21.55 -27.95 26.5 -23.05 26.5 -15.0 L26.5 13.6 Q26.5 21.65 21.55 26.55 16.6 31.35 8.35 31.35 M60.45 30.65 Q59.45 30.65 59.25 29.75 L52.25 4.95 51.9 4.7 48.8 4.7 Q48.4 4.7 48.4 5.05 L48.4 29.5 Q48.4 30.05 48.0 30.3 47.7 30.65 47.3 30.65 L36.9 30.65 Q36.35 30.65 36.1 30.3 35.75 30.05 35.75 29.5 L35.75 -30.9 Q35.75 -31.45 36.1 -31.7 36.35 -32.0 36.9 -32.0 L54.85 -32.0 Q59.85 -32.0 63.6 -29.6 67.45 -27.25 69.55 -22.95 71.65 -18.7 71.65 -13.1 71.65 -7.85 69.65 -3.75 67.7 0.2 64.15 2.5 63.9 2.5 63.8 2.7 L63.8 2.95 72.15 29.75 Q72.15 30.65 71.2 30.65 L60.45 30.65 M8.35 20.5 Q10.95 20.5 12.45 18.8 13.9 17.0 13.9 14.15 L13.9 -15.6 Q13.9 -18.35 12.45 -20.2 10.95 -21.85 8.35 -21.85 5.85 -21.85 4.4 -20.2 2.85 -18.35 2.85 -15.6 L2.85 14.15 Q2.85 17.0 4.4 18.8 5.85 20.5 8.35 20.5 M91.95 30.55 Q91.55 30.55 91.3 30.2 90.85 29.95 90.85 29.4 L90.85 5.65 78.2 -30.85 78.2 -31.2 Q78.2 -32.0 79.25 -32.0 L90.15 -32.0 Q91.15 -32.0 91.45 -31.1 L97.05 -9.7 97.25 -9.45 97.5 -9.7 103.1 -31.1 Q103.35 -32.0 104.3 -32.0 L115.3 -32.0 116.1 -31.7 Q116.45 -31.45 116.2 -30.85 L103.6 5.65 103.5 6.2 103.5 29.4 103.2 30.2 Q102.9 30.55 102.4 30.55 L91.95 30.55 M48.8 -21.15 Q48.4 -21.15 48.4 -20.8 L48.4 -5.45 Q48.4 -5.0 48.8 -5.0 L52.8 -5.0 Q55.65 -5.0 57.35 -7.15 59.15 -9.35 59.15 -13.0 59.15 -16.8 57.35 -18.95 55.65 -21.15 52.8 -21.15 L48.8 -21.15 M129.2 9.15 Q128.75 9.15 128.4 8.85 128.15 8.55 128.15 8.05 L126.75 -30.9 Q126.75 -31.45 127.05 -31.7 L127.8 -32.0 138.3 -32.0 Q138.8 -32.0 139.05 -31.7 L139.4 -30.9 138.1 8.05 Q138.1 8.55 137.75 8.85 137.5 9.15 137.05 9.15 L129.2 9.15 M133.2 30.55 Q130.15 30.55 128.15 28.55 126.15 26.55 126.15 23.45 126.15 20.25 128.15 18.3 130.0 16.4 133.2 16.4 136.3 16.4 138.3 18.3 140.2 20.25 140.2 23.45 140.2 26.55 138.2 28.55 136.2 30.55 133.2 30.55" fill="url(#gradient2)" fill-rule="evenodd" stroke="none"/>
  </g>
  <defs>
    <linearGradient gradientTransform="matrix(0.9068, 0.0, 0.0, 0.0666, -10.85, 0.0)" gradientUnits="userSpaceOnUse" id="gradient0" spreadMethod="pad" x1="-819.2" x2="819.2">
      <stop offset="0.0" stop-color="#52416b" stop-opacity="0.0"/>
      <stop offset="0.17647058823529413" stop-color="#1c4a6b" stop-opacity="0.8980392"/>
      <stop offset="0.8509803921568627" stop-color="#491c4f" stop-opacity="0.79607844"/>
      <stop offset="1.0" stop-color="#1c1631" stop-opacity="0.0"/>
    </linearGradient>
    <linearGradient gradientTransform="matrix(0.9274, 0.0, 0.0, 0.069, -11.55, 0.0)" gradientUnits="userSpaceOnUse" id="gradient1" spreadMethod="pad" x1="-819.2" x2="819.2">
      <stop offset="0.0" stop-color="#c39aff" stop-opacity="0.0"/>
      <stop offset="0.17647058823529413" stop-color="#c39aff" stop-opacity="0.69803923"/>
      <stop offset="0.5098039215686274" stop-color="#d7d4ff" stop-opacity="0.69803923"/>
      <stop offset="0.8313725490196079" stop-color="#9f98ff" stop-opacity="0.69803923"/>
      <stop offset="1.0" stop-color="#9172ff" stop-opacity="0.0"/>
    </linearGradient>
    <linearGradient gradientTransform="matrix(0.0, -0.0393, 0.1875, 0.0, -13.5, -4.1)" gradientUnits="userSpaceOnUse" id="gradient2" spreadMethod="pad" x1="-819.2" x2="819.2">
      <stop offset="0.0" stop-color="#84cbe9"/>
      <stop offset="1.0" stop-color="#b8a6f5"/>
    </linearGradient>
  </defs>
</svg>
