<?xml version="1.0" encoding="UTF-8" standalone="no"?>
<svg xmlns:xlink="http://www.w3.org/1999/xlink" height="60.75px" width="384.15px" xmlns="http://www.w3.org/2000/svg">
  <g transform="matrix(1.0, 0.0, 0.0, 1.0, 191.95, 29.75)">
    <path d="M103.75 -29.0 L103.75 29.05 20.1 29.05 20.1 -29.0 103.75 -29.0 M191.45 -29.0 L191.45 29.05 107.75 29.05 107.75 -29.0 191.45 -29.0 M-50.7 29.05 L-86.1 29.05 -86.1 -29.0 -34.85 -29.0 16.35 -29.0 16.35 29.05 -34.85 29.05 -50.7 29.05 M-139.95 29.05 L-155.8 29.05 -191.2 29.05 -191.2 -29.0 -139.95 -29.0 -139.95 29.05 M-34.85 29.05 L-34.85 -29.0 -34.85 29.05" fill="#0d101b" fill-opacity="0.84705883" fill-rule="evenodd" stroke="none"/>
    <path d="M-139.95 -29.0 L-88.75 -29.0 -88.75 29.05 -139.95 29.05 -139.95 -29.0" fill="#273074" fill-opacity="0.84705883" fill-rule="evenodd" stroke="none"/>
    <path d="M103.75 -29.0 L103.75 29.05 20.1 29.05 20.1 -29.0 103.75 -29.0 M191.45 -29.0 L191.45 29.05 107.75 29.05 107.75 -29.0 191.45 -29.0 M-50.7 29.05 L-86.1 29.05 -86.1 -29.0 -34.85 -29.0 16.35 -29.0 16.35 29.05 -34.85 29.05 -50.7 29.05 -50.7 30.25 M-139.95 -29.0 L-88.75 -29.0 -88.75 29.05 -139.95 29.05 -155.8 29.05 -155.8 30.25 M-155.8 29.05 L-191.2 29.05 -191.2 -29.0 -139.95 -29.0 -139.95 29.05 M-34.85 -29.0 L-34.85 29.05" fill="none" stroke="#9ba2d1" stroke-linecap="round" stroke-linejoin="round" stroke-opacity="0.4392157" stroke-width="1.5"/>
  </g>
</svg>
