<?xml version="1.0" encoding="UTF-8" standalone="no"?>
<svg xmlns:xlink="http://www.w3.org/1999/xlink" height="21.85px" width="15.7px" xmlns="http://www.w3.org/2000/svg">
  <g transform="matrix(1.0, 0.0, 0.0, 1.0, 21.0, -13.15)">
    <path d="M-6.15 31.4 Q-5.25 28.25 -6.75 25.75 -8.05 24.15 -10.75 24.35 -13.05 23.95 -14.45 21.85 -14.15 25.3 -11.85 27.7 -14.0 29.45 -16.95 27.75 -15.15 30.1 -11.7 30.95 -11.25 32.9 -12.5 34.25 -10.5 34.25 -9.05 33.15 L-7.6 33.35 Q-8.5 34.4 -10.9 34.8 L-12.65 35.0 Q-16.55 35.2 -18.3 32.35 L-14.05 32.15 Q-13.15 30.95 -15.7 30.65 -22.15 29.9 -20.75 22.4 -17.9 26.9 -13.2 26.9 -17.55 25.7 -16.95 20.4 -16.5 16.3 -19.3 13.15 -15.05 14.3 -14.4 15.85 L-13.15 19.45 Q-12.55 21.6 -11.6 22.25 -10.65 22.9 -10.25 22.05 -8.95 21.3 -7.2 22.95 -5.4 24.65 -5.3 27.95 -5.25 30.1 -6.15 31.75 L-6.15 31.4" fill="#f9514a" fill-rule="evenodd" stroke="none"/>
    <path d="M-6.15 31.4 L-6.15 31.75 -7.4 33.3 -7.6 33.35 -9.05 33.15 Q-9.95 32.6 -10.45 31.05 -11.3 30.65 -11.45 29.9 -11.7 27.85 -11.3 26.25 -10.6 25.05 -9.65 25.2 -8.2 25.45 -7.4 26.5 -6.05 28.95 -6.15 31.4" fill="#fffa9a" fill-rule="evenodd" stroke="none"/>
    <path d="M-9.05 33.15 Q-10.5 34.25 -12.5 34.25 -11.25 32.9 -11.7 30.95 -15.15 30.1 -16.95 27.75 -14.0 29.45 -11.85 27.7 -14.15 25.3 -14.45 21.85 -13.05 23.95 -10.75 24.35 -8.05 24.15 -6.75 25.75 -5.25 28.25 -6.15 31.4 -6.05 28.95 -7.4 26.5 -8.2 25.45 -9.65 25.2 -10.6 25.05 -11.3 26.25 -11.7 27.85 -11.45 29.9 -11.3 30.65 -10.45 31.05 -9.95 32.6 -9.05 33.15" fill="#ff9c4b" fill-rule="evenodd" stroke="none"/>
  </g>
</svg>
