<?xml version="1.0" encoding="UTF-8" standalone="no"?>
<svg xmlns:xlink="http://www.w3.org/1999/xlink" height="199.15px" width="63.5px" xmlns="http://www.w3.org/2000/svg">
  <g transform="matrix(1.0, 0.0, 0.0, 1.0, 0.0, 99.6)">
    <path d="M26.85 -57.85 Q25.2 -60.6 22.2 -61.5 19.75 -62.2 20.85 -65.65 24.0 -81.5 27.7 -95.9 29.35 -99.3 32.8 -99.6 37.15 -99.35 38.85 -95.4 40.25 -92.25 37.7 -89.2 36.6 -87.75 34.9 -86.4 34.6 -85.15 34.9 -83.8 L37.4 -74.35 Q38.7 -70.2 38.15 -67.6 35.45 -65.75 34.45 -63.8 33.45 -61.8 33.35 -57.85 L26.85 -57.85 M40.0 67.4 Q46.1 72.8 52.3 80.55 56.2 85.9 58.9 84.45 L59.4 84.1 Q61.1 82.65 59.25 78.3 L51.75 64.7 Q50.35 62.15 49.85 59.75 49.5 58.3 49.45 56.95 50.25 52.6 52.05 48.15 54.1 42.2 54.9 36.65 55.7 27.55 52.6 23.2 51.3 21.45 50.15 27.7 48.25 32.7 44.8 34.05 39.65 35.45 33.35 31.6 27.85 28.95 22.45 23.65 20.2 23.0 20.35 25.6 L21.45 31.8 Q22.2 38.75 18.6 45.25 15.7 51.2 15.8 55.75 16.55 62.25 22.75 62.9 32.35 63.75 40.0 67.4 M26.5 18.2 Q28.2 17.45 30.95 18.85 33.65 20.25 35.4 24.95 37.15 31.6 41.55 32.25 45.1 32.1 46.95 28.55 48.1 26.7 48.55 23.05 48.7 20.0 51.75 19.85 54.75 19.9 55.95 23.15 60.4 32.85 55.85 46.55 53.8 52.0 53.2 56.6 52.6 61.35 59.25 71.4 62.3 75.75 63.2 79.3 64.2 87.15 61.8 92.25 57.75 98.9 47.05 99.55 31.35 99.35 18.8 95.7 5.8 91.1 2.7 83.15 -1.35 75.55 0.65 66.65 3.75 57.0 9.1 46.3 11.15 41.7 9.55 35.7 L6.6 25.2 Q4.6 15.95 6.95 8.65 8.9 3.15 12.7 2.6 16.45 2.65 16.9 6.55 17.35 13.65 18.45 17.2 19.5 20.3 22.0 20.75 24.45 21.0 26.5 18.2" fill="#7094ff" fill-rule="evenodd" stroke="none"/>
  </g>
</svg>
