<?xml version="1.0" encoding="UTF-8" standalone="no"?>
<svg xmlns:xlink="http://www.w3.org/1999/xlink" height="34.8px" width="32.25px" xmlns="http://www.w3.org/2000/svg">
  <g transform="matrix(1.0, 0.0, 0.0, 1.0, 16.15, 17.4)">
    <path d="M16.1 -13.4 L15.6 -10.8 Q15.1 -8.7 14.9 -4.6 L14.85 -3.65 14.8 -3.45 14.85 -3.25 14.7 -1.8 Q14.55 2.4 14.7 5.2 L14.95 8.8 15.05 9.65 Q15.7 15.35 14.4 16.5 9.15 18.15 -3.5 16.7 -6.65 15.45 -9.15 13.85 -13.8 10.8 -16.1 6.35 -16.5 5.8 -11.55 1.35 L-10.75 0.4 -8.3 -2.25 -5.65 -5.85 -4.25 -7.9 -1.3 -12.45 -0.3 -13.85 1.45 -17.2 Q9.25 -18.15 15.5 -14.05 L16.1 -13.4" fill="#e7b19b" fill-rule="evenodd" stroke="none"/>
  </g>
</svg>
