<?xml version="1.0" encoding="UTF-8" standalone="no"?>
<svg xmlns:xlink="http://www.w3.org/1999/xlink" height="35.95px" width="28.35px" xmlns="http://www.w3.org/2000/svg">
  <g transform="matrix(1.0, 0.0, 0.0, 1.0, 14.15, 18.0)">
    <path d="M-2.8 -17.0 Q-4.5 -14.2 -6.25 -9.7 -7.45 -6.7 -9.2 -4.25 -10.95 -1.85 -11.25 -0.75 -11.05 0.55 -11.6 1.6 -13.6 3.35 -10.9 6.3 -6.65 5.2 -1.05 7.55 4.55 9.9 5.65 12.05 7.0 11.5 7.75 10.15 8.5 8.75 8.35 6.95 12.6 -2.6 13.2 -9.9 M5.65 12.05 Q5.55 17.1 2.7 16.95 2.25 15.8 0.25 15.0 L-4.05 13.4 Q-7.2 12.35 -9.65 12.35 -11.35 12.35 -12.75 12.85 -14.05 9.45 -10.9 6.3" fill="none" stroke="#000000" stroke-linecap="round" stroke-linejoin="round" stroke-width="2.0"/>
    <path d="M-9.65 12.35 Q-10.2 9.4 -8.4 6.95 M0.25 15.0 Q2.25 13.15 1.65 9.65" fill="none" stroke="#000000" stroke-linecap="round" stroke-linejoin="round" stroke-width="1.5"/>
  </g>
</svg>
