<?xml version="1.0" encoding="UTF-8" standalone="no"?>
<svg xmlns:xlink="http://www.w3.org/1999/xlink" height="28.3px" width="22.95px" xmlns="http://www.w3.org/2000/svg">
  <g transform="matrix(1.0, 0.0, 0.0, 1.0, 11.45, 14.15)">
    <path d="M-1.75 -13.4 L-5.7 -2.75 Q-7.35 -0.35 -6.65 1.25 -8.45 2.05 -7.75 3.85 -0.6 3.6 5.9 6.4 6.45 5.45 6.05 4.0 7.6 2.95 8.0 0.4 L10.75 -9.8 M5.9 6.4 L7.6 7.15 Q7.2 8.4 6.0 9.45 5.0 10.05 4.95 11.05 4.2 13.45 3.0 13.4 -1.65 11.05 -10.3 10.55 -10.75 9.0 -10.7 7.6 -10.25 6.85 -10.6 5.9 -10.85 3.45 -10.0 1.25 L-8.35 3.85 -7.75 3.85" fill="none" stroke="#000000" stroke-linecap="round" stroke-linejoin="round" stroke-width="1.5"/>
  </g>
</svg>
