<?xml version="1.0" encoding="UTF-8" standalone="no"?>
<svg xmlns:xlink="http://www.w3.org/1999/xlink" height="30.35px" width="25.0px" xmlns="http://www.w3.org/2000/svg">
  <g transform="matrix(1.0, 0.0, 0.0, 1.0, 12.5, 15.15)">
    <path d="M4.25 -3.25 L4.15 -3.1 4.1 -3.05 Q3.0 -1.55 1.25 -1.25 L0.1 -1.2 Q-2.5 -1.35 -3.85 -2.95 L-4.45 -3.8 Q-5.2 -5.25 -5.05 -7.0 -4.95 -9.4 -3.3 -11.15 -1.75 -12.95 0.45 -13.05 2.65 -13.3 4.2 -11.7 L5.05 -10.4 Q5.65 -9.2 5.6 -7.55 5.55 -5.1 4.25 -3.25" fill="none" stroke="#000000" stroke-linecap="round" stroke-linejoin="round" stroke-width="1.0"/>
    <path d="M-3.0 -14.4 Q-6.0 -7.85 -8.45 -1.0 L-9.8 2.85 -9.8 3.25 -9.6 4.65 Q-8.7 7.55 -3.35 9.65 3.95 11.35 6.6 7.45 L6.75 7.25 7.05 6.75 7.3 6.2 7.7 4.85 9.45 -1.0 Q11.05 -6.55 11.75 -10.7 M7.05 6.75 L6.5 8.0 6.05 9.75 Q6.35 14.4 0.5 14.45 -3.7 14.4 -6.1 13.5 L-8.5 12.6 Q-11.7 11.05 -11.75 8.65 M-11.6 7.85 L-11.35 6.9 -9.8 2.85" fill="none" stroke="#000000" stroke-linecap="round" stroke-linejoin="round" stroke-width="1.5"/>
  </g>
</svg>
