<?xml version="1.0" encoding="UTF-8" standalone="no"?>
<svg xmlns:xlink="http://www.w3.org/1999/xlink" height="48.15px" width="27.85px" xmlns="http://www.w3.org/2000/svg">
  <g transform="matrix(1.0, 0.0, 0.0, 1.0, 13.95, 24.05)">
    <path d="M7.7 2.55 L8.5 -1.6 Q9.1 -4.8 12.3 -15.35 13.2 -18.45 12.7 -20.4 M7.7 2.55 Q7.1 6.35 7.2 10.25 L7.2 15.45 7.2 15.5 7.2 20.75 Q-1.4 25.5 -12.65 20.7 L-12.65 14.45 Q-13.0 11.1 -12.95 9.0 -12.95 4.65 -11.2 0.9 L-9.35 -2.45 Q-6.8 -6.2 -4.6 -10.2 -1.55 -15.7 1.9 -23.05 M-12.65 14.45 L-12.65 13.8 Q-5.45 19.35 7.2 15.5" fill="none" stroke="#000000" stroke-linecap="round" stroke-linejoin="round" stroke-width="2.0"/>
    <path d="M-11.2 0.9 L-8.1 0.2 -7.25 3.8 -4.25 0.7 -2.0 4.35 1.25 1.25 4.55 4.35 6.3 1.55 7.7 2.55 M7.2 10.25 Q4.45 9.85 3.85 14.8 1.4 6.2 -2.1 14.5 -4.9 7.65 -8.55 13.7 -9.35 8.75 -12.95 9.0" fill="none" stroke="#000000" stroke-linecap="round" stroke-linejoin="round" stroke-width="1.0"/>
    <path d="M0.5 4.75 L1.0 3.95 1.65 4.85 M5.8 4.75 L6.3 3.95 6.95 4.85 M-5.1 4.1 L-4.6 3.35 -3.95 4.2 M-9.75 3.1 L-9.3 2.3 -8.65 3.2" fill="none" stroke="#000000" stroke-linecap="round" stroke-linejoin="round" stroke-width="0.5"/>
  </g>
</svg>
