<?xml version="1.0" encoding="UTF-8" standalone="no"?>
<svg xmlns:xlink="http://www.w3.org/1999/xlink" height="59.35px" width="63.85px" xmlns="http://www.w3.org/2000/svg">
  <g transform="matrix(1.0, 0.0, 0.0, 1.0, 31.95, 29.65)">
    <path d="M0.55 -4.95 Q3.8 -7.3 5.9 -9.7 11.3 -15.6 9.65 -21.75 L8.15 -22.75 Q12.25 -28.4 16.4 -29.05 L24.5 -23.3 Q19.8 -17.65 17.0 -12.5 L20.85 -8.35 Q13.15 -0.6 0.55 -4.95 L0.85 -4.5 2.95 20.35 -3.95 21.3 -4.9 29.7 -13.4 29.65 -13.3 24.95 -11.65 25.35 -6.15 8.25 -6.1 8.15 Q-9.8 9.8 -14.8 8.6 L-16.5 13.5 Q-24.65 14.3 -30.1 9.15 L-25.7 1.85 Q-23.45 4.65 -18.65 4.0 L-18.3 0.85 Q-6.85 2.1 -3.2 -3.0 L-11.0 -3.2 -11.15 -3.3 -12.25 -3.75 Q-18.9 -1.85 -24.5 -9.5 L-26.65 -8.45 Q-30.15 -10.5 -31.95 -16.4 L-23.7 -18.65 Q-22.3 -14.95 -17.55 -13.9 L-16.4 -11.85 -7.5 -13.9 Q-10.35 -18.5 -12.1 -24.0 L-12.95 -27.1 -3.65 -29.65 0.15 -15.75 Q-1.35 -11.7 -3.6 -8.8 L-1.6 -6.8 0.55 -4.95 M20.9 -2.5 L31.9 5.9 27.7 11.05 12.85 1.05 Q14.1 0.8 15.35 0.2 L20.9 -2.5 M17.65 16.25 L22.0 23.25 15.5 27.75 10.3 20.05 6.2 4.8 16.95 16.85 17.65 16.25" fill="#ffffff" fill-rule="evenodd" stroke="none"/>
  </g>
</svg>
