<?xml version="1.0" encoding="UTF-8" standalone="no"?>
<svg xmlns:xlink="http://www.w3.org/1999/xlink" height="47.75px" width="54.75px" xmlns="http://www.w3.org/2000/svg">
  <g transform="matrix(1.0, 0.0, 0.0, 1.0, 27.4, 23.9)">
    <path d="M16.6 -6.4 Q21.25 -5.45 24.65 -2.15 30.8 4.55 14.65 12.1 24.5 -1.3 16.6 -6.4 10.05 -5.6 4.9 2.35 -1.65 13.95 10.65 22.85 L2.2 21.2 Q-19.6 15.9 -24.35 4.4 -29.15 -7.1 -22.6 -16.9 L-21.45 -18.1 Q-17.65 -21.8 -11.85 -22.9 -19.25 -15.2 -22.05 -8.75 -22.55 -6.9 -22.15 -5.4 -19.5 4.9 -6.05 10.45 -9.7 1.25 1.9 -4.65 10.35 -7.65 16.6 -6.4 M-22.05 -8.75 L-21.45 -18.1 M2.2 21.2 Q-4.1 15.35 -6.05 10.45" fill="none" stroke="#000000" stroke-linecap="round" stroke-linejoin="round" stroke-width="2.0"/>
  </g>
</svg>
