<?xml version="1.0" encoding="UTF-8" standalone="no"?>
<svg xmlns:xlink="http://www.w3.org/1999/xlink" height="53.65px" width="45.55px" xmlns="http://www.w3.org/2000/svg">
  <g transform="matrix(1.0, 0.0, 0.0, 1.0, 22.75, 26.8)">
    <path d="M14.95 -2.05 L15.3 -2.5 16.2 -3.8 16.75 -4.95 Q18.5 -9.1 15.45 -13.9 L13.3 -16.0 5.45 -25.0 4.85 -25.25 Q4.15 -24.45 4.25 -22.25 9.8 -12.75 11.35 13.45 L11.35 25.05 Q18.8 24.95 21.8 21.15 17.6 10.6 16.6 1.25 L16.2 -3.8 M-1.1 25.85 Q-14.7 25.55 -21.75 22.6 -19.35 17.1 -17.4 6.4 -17.0 1.5 -19.25 -9.6 -19.6 -23.4 -9.2 -25.8 -6.7 -24.35 -3.6 -19.1 -2.15 -16.6 -1.5 -14.5 0.6 -7.4 -0.95 -0.8 -0.55 10.8 -1.1 25.85" fill="none" stroke="#000000" stroke-linecap="round" stroke-linejoin="round" stroke-width="2.0"/>
    <path d="M-8.35 -2.35 Q-4.55 -0.15 -0.95 -0.8" fill="none" stroke="#000000" stroke-linecap="round" stroke-linejoin="round" stroke-width="1.0"/>
  </g>
</svg>
