<?xml version="1.0" encoding="UTF-8" standalone="no"?>
<svg xmlns:xlink="http://www.w3.org/1999/xlink" height="32.65px" width="40.25px" xmlns="http://www.w3.org/2000/svg">
  <g transform="matrix(1.0, 0.0, 0.0, 1.0, 20.1, 16.3)">
    <path d="M4.9 -2.25 Q5.3 -2.75 5.3 -3.35 5.3 -3.95 4.9 -4.35 4.6 -4.8 3.9 -4.8 3.3 -4.8 2.95 -4.35 2.55 -3.95 2.55 -3.35 2.55 -2.75 2.95 -2.25 3.3 -1.9 3.9 -1.9 4.6 -1.9 4.9 -2.25 M5.2 -7.15 Q5.2 -7.7 4.7 -8.2 L3.75 -8.55 Q3.15 -8.55 2.7 -8.2 2.35 -7.7 2.35 -7.15 2.35 -6.55 2.7 -6.1 3.15 -5.65 3.75 -5.65 4.35 -5.65 4.7 -6.1 5.2 -6.55 5.2 -7.15 M2.55 -11.85 Q2.2 -11.35 2.2 -10.75 2.2 -10.15 2.55 -9.8 3.0 -9.35 3.6 -9.35 4.2 -9.35 4.6 -9.8 4.95 -10.15 4.95 -10.75 L4.6 -11.85 Q4.2 -12.25 3.6 -12.25 3.0 -12.25 2.55 -11.85 M17.2 -1.2 L20.15 16.35 -20.1 16.35 -16.05 -1.4 -12.95 -15.1 Q-6.85 -16.25 -2.25 -15.05 -3.1 -12.4 -1.85 -10.85 -3.4 -8.8 -1.85 -6.85 -2.55 -5.15 -1.05 -2.7 L0.3 -1.95 0.65 -1.8 Q0.9 -8.25 -0.3 -14.45 L3.15 -12.95 5.9 -14.55 Q7.55 -10.25 7.05 -2.4 L8.9 -3.25 Q10.2 -5.2 9.25 -6.8 9.95 -8.35 8.9 -10.1 9.15 -12.85 7.25 -15.15 10.5 -16.45 14.85 -16.25 16.9 -9.75 17.2 -1.2" fill="#ffd0ed" fill-rule="evenodd" stroke="none"/>
  </g>
</svg>
