<?xml version="1.0" encoding="UTF-8" standalone="no"?>
<svg xmlns:xlink="http://www.w3.org/1999/xlink" height="57.6px" width="52.9px" xmlns="http://www.w3.org/2000/svg">
  <g transform="matrix(1.0, 0.0, 0.0, 1.0, 26.45, 28.8)">
    <path d="M3.6 -27.8 Q-3.15 -21.15 -7.85 -11.05 -15.2 -11.3 -20.05 -12.7 -22.75 -13.55 -24.65 -14.65 -24.0 -11.3 -22.45 -8.45 -19.85 -3.7 -14.9 -0.15 -16.85 7.95 -22.3 13.75 L-24.4 15.7 -25.45 16.65 Q-16.6 15.35 -10.45 12.15 L-7.6 10.35 -6.15 11.55 Q2.65 19.45 5.3 27.8 L5.55 26.7 Q7.95 16.65 5.1 5.5 11.25 0.7 23.3 -2.2 L25.45 -2.55 Q15.7 -7.25 7.7 -7.95 L4.65 -8.15 Q2.25 -18.9 3.6 -27.8 Z" fill="none" stroke="#000000" stroke-linecap="round" stroke-linejoin="round" stroke-width="2.0"/>
  </g>
</svg>
