<?xml version="1.0" encoding="UTF-8" standalone="no"?>
<svg xmlns:xlink="http://www.w3.org/1999/xlink" height="44.8px" width="239.55px" xmlns="http://www.w3.org/2000/svg">
  <g transform="matrix(1.0, 0.0, 0.0, 1.0, 119.8, 22.4)">
    <path d="M104.85 -13.85 L104.75 -13.7 104.65 -11.85 104.85 -13.85 M112.5 4.15 L112.55 4.45 112.65 4.45 112.5 4.15 M113.1 6.65 Q109.95 4.95 107.15 7.75 L107.0 6.75 107.0 7.9 106.7 8.25 106.45 8.55 Q105.7 9.45 104.9 10.85 L103.9 12.6 Q102.3 15.6 101.55 17.9 L102.25 10.4 102.7 3.1 Q103.1 -9.0 102.3 -22.4 113.8 -7.15 119.75 11.8 118.85 10.5 117.2 9.15 L117.0 9.1 116.75 8.85 116.1 8.45 113.85 7.0 113.1 6.65 M87.3 10.5 Q86.5 10.05 85.55 9.75 84.7 9.3 83.75 9.05 79.45 7.65 75.25 6.75 89.45 5.25 97.95 -15.15 99.75 0.2 97.8 19.15 L94.0 15.0 Q90.85 12.3 87.3 10.5 M-80.0 18.2 L-81.95 19.55 -85.65 22.4 Q-88.15 3.7 -84.9 -11.9 -72.3 7.6 -49.95 7.55 L-58.1 9.35 -59.2 9.6 -62.75 10.55 -63.4 10.7 Q-72.5 13.25 -80.0 18.2 M-97.55 13.65 L-98.1 13.2 -100.05 11.9 Q-104.35 9.6 -109.2 11.5 L-110.8 12.2 Q-111.55 12.45 -112.05 12.85 L-113.95 13.6 -114.35 13.85 -114.4 13.9 -114.85 14.1 Q-118.2 15.85 -119.8 17.45 -109.95 -2.15 -91.5 -18.7 -94.25 3.4 -91.45 21.55 -92.7 19.3 -94.95 16.55 -96.25 14.8 -97.55 13.65" fill="#1c804b" fill-rule="evenodd" stroke="none"/>
  </g>
</svg>
