<?xml version="1.0" encoding="UTF-8" standalone="no"?>
<svg xmlns:xlink="http://www.w3.org/1999/xlink" height="44.1px" width="80.3px" xmlns="http://www.w3.org/2000/svg">
  <g transform="matrix(1.0, 0.0, 0.0, 1.0, 40.15, 22.05)">
    <path d="M9.6 -8.05 L7.85 -8.7 9.6 -8.0 9.6 -8.05 M36.35 -1.6 L40.15 -0.55 35.3 0.75 34.75 0.85 33.1 9.8 27.35 9.4 27.25 9.5 23.8 9.4 22.5 9.25 22.1 9.25 19.55 9.1 19.35 9.05 15.65 8.7 -11.8 6.6 -7.8 -18.85 36.35 -1.6 M-29.55 -15.75 L-26.55 -10.2 -40.15 -7.25 -39.7 -13.4 -29.55 -15.75 M-31.5 -22.05 L-30.15 -18.25 -39.7 -16.4 -39.15 -20.15 -31.5 -22.05 M-26.2 2.9 L-28.65 11.15 -22.45 16.9 -21.4 20.85 -23.8 21.1 -29.95 14.35 -32.0 21.95 -33.8 22.05 -34.55 18.85 -32.6 11.7 -37.5 6.2 -38.2 3.2 -36.0 2.65 -31.45 7.7 -29.2 0.85 -26.85 0.25 -26.2 2.9" fill="#28e783" fill-rule="evenodd" stroke="none"/>
  </g>
</svg>
