<?xml version="1.0" encoding="UTF-8" standalone="no"?>
<svg xmlns:xlink="http://www.w3.org/1999/xlink" height="30.8px" width="108.15px" xmlns="http://www.w3.org/2000/svg">
  <g transform="matrix(1.0, 0.0, 0.0, 1.0, 54.05, 15.4)">
    <path d="M32.55 -14.25 Q35.85 -14.55 40.15 -14.2 43.6 -13.65 45.7 -11.7 50.25 -7.35 52.9 -1.3 L53.5 0.25 Q54.2 2.65 54.05 4.95 L53.85 7.35 Q53.55 9.0 52.7 10.65 51.35 12.6 48.6 12.25 L44.7 11.6 Q37.55 9.4 33.4 5.25 27.9 0.35 26.4 -3.15 25.25 -5.7 25.35 -8.0 L25.55 -9.8 25.55 -9.9 25.75 -10.4 Q26.5 -12.4 29.6 -13.45 30.9 -14.0 32.55 -14.25 M7.45 -9.8 Q8.1 -8.85 8.4 -7.7 9.5 -3.2 6.2 2.7 L5.25 4.0 Q2.55 7.45 -0.95 9.4 -3.55 11.05 -6.75 11.8 L-22.1 12.25 Q-35.15 9.8 -37.95 4.65 -40.4 0.8 -38.15 -3.6 L-35.6 -7.05 -34.6 -8.0 -32.7 -9.65 -32.65 -9.7 Q-27.75 -13.6 -20.75 -14.65 -11.35 -16.1 -3.95 -14.75 3.6 -13.45 7.45 -9.8 M-44.45 11.9 L-44.25 12.1 -44.2 12.2 -42.6 13.9 -42.35 14.0 -43.05 14.85 -43.1 14.85 -43.3 15.15 -43.7 15.15 Q-45.5 15.7 -47.2 15.15 L-48.35 14.8 Q-50.4 13.7 -52.3 11.2 -55.0 6.55 -53.55 3.35 L-53.55 3.1 Q-52.75 1.45 -50.7 -0.1 L-50.5 0.0 -50.1 2.15 Q-48.55 7.05 -44.45 11.9" fill="#b4ffb8" fill-rule="evenodd" stroke="none"/>
  </g>
</svg>
