<?xml version="1.0" encoding="UTF-8" standalone="no"?>
<svg xmlns:xlink="http://www.w3.org/1999/xlink" height="37.55px" width="28.2px" xmlns="http://www.w3.org/2000/svg">
  <g transform="matrix(1.0, 0.0, 0.0, 1.0, 14.1, 18.75)">
    <path d="M-7.65 0.35 L-6.15 7.25 Q-5.8 3.85 -4.35 0.9 -3.3 -1.15 -1.65 -3.0 L-0.95 -5.95 M-6.25 10.3 L-6.15 7.25 M-4.35 0.9 L2.65 -2.95 M-5.75 9.65 L6.05 6.6 M-1.65 -3.0 Q0.5 -5.55 3.75 -7.55" fill="none" stroke="#000000" stroke-linecap="round" stroke-linejoin="round" stroke-opacity="0.50980395" stroke-width="1.5"/>
    <path d="M-10.4 12.5 Q-14.05 7.95 -13.15 1.15 -12.4 -5.4 -4.5 -9.7 L11.55 -18.0 Q10.45 -10.75 12.5 -2.35 14.25 4.9 12.35 9.8 9.7 17.65 -5.95 15.4 -9.15 15.85 -11.85 18.05 -15.2 17.05 -10.4 12.5" fill="none" stroke="#000000" stroke-linecap="round" stroke-linejoin="round" stroke-width="1.5"/>
  </g>
</svg>
