<?xml version="1.0" encoding="UTF-8" standalone="no"?>
<svg xmlns:xlink="http://www.w3.org/1999/xlink" height="56.4px" width="66.0px" xmlns="http://www.w3.org/2000/svg">
  <g transform="matrix(1.0, 0.0, 0.0, 1.0, 33.0, 28.2)">
    <path d="M5.15 0.1 Q13.65 -0.7 27.3 3.45 34.35 8.25 30.85 14.05 27.35 21.0 15.8 27.05 6.05 28.1 2.7 21.5 -0.95 13.7 0.6 7.95 L-2.0 8.35 Q-5.75 7.5 -6.15 5.4 -6.4 4.25 -5.5 2.7 -15.7 6.2 -29.05 2.75 -35.95 -3.0 -26.8 -17.7 -20.95 -27.7 -14.05 -27.2 -6.3 -21.3 -2.95 -11.95 -0.9 -6.3 -0.65 -2.8 L2.2 -3.15 Q4.6 -2.85 5.15 0.1 L5.25 1.25 Q5.5 6.55 0.6 7.95 M-5.5 2.7 Q-3.25 1.9 -1.15 0.8 -0.55 -0.55 -0.65 -2.8" fill="none" stroke="#000000" stroke-linecap="round" stroke-linejoin="round" stroke-width="2.0"/>
    <path d="M4.65 6.25 Q8.55 11.85 10.2 17.8 M5.85 3.85 Q14.15 3.65 23.05 9.05 M-3.8 4.3 L-3.25 4.65 Q-1.1 5.75 0.55 3.15 2.2 0.55 1.3 -1.35 M-2.0 -0.15 Q-3.5 -8.35 -13.75 -17.35 M-3.15 0.15 Q-7.45 -1.15 -16.65 -1.6" fill="none" stroke="#000000" stroke-linecap="round" stroke-linejoin="round" stroke-width="1.0"/>
  </g>
</svg>
