<?xml version="1.0" encoding="UTF-8" standalone="no"?>
<svg xmlns:xlink="http://www.w3.org/1999/xlink" height="23.25px" width="59.15px" xmlns="http://www.w3.org/2000/svg">
  <g transform="matrix(1.0, 0.0, 0.0, 1.0, 29.6, 11.65)">
    <path d="M18.65 2.0 Q10.9 3.45 0.75 3.45 L-0.2 3.45 Q-0.45 6.2 -1.3 6.1 -2.1 6.05 -2.0 4.85 -1.9 3.55 -2.25 3.45 L-4.05 3.4 Q-5.15 4.3 -5.0 6.95 -4.65 11.4 -5.85 11.6 -7.0 11.75 -7.0 3.25 L-17.2 2.0 Q-17.4 3.95 -18.9 3.05 -20.95 4.35 -21.2 1.1 -20.9 9.7 -22.0 10.05 -23.15 10.35 -23.0 5.65 -22.85 0.95 -23.9 0.3 L-25.95 -0.45 Q-25.9 1.5 -27.05 1.35 -26.85 2.85 -27.2 2.95 -28.2 4.2 -28.2 -1.75 -29.6 -2.85 -29.6 -4.1 -29.6 -7.2 -20.7 -9.45 -11.85 -11.65 0.75 -11.65 13.25 -11.65 26.95 -9.0 27.9 -8.35 25.4 -8.5 L23.4 -8.75 Q24.9 -5.6 23.25 -4.7 21.55 -3.8 22.0 -5.8 22.5 -7.85 22.05 -8.9 L10.55 -10.0 Q10.5 -8.55 11.0 -6.45 11.5 -4.35 9.75 -4.45 8.0 -4.55 8.85 -8.3 9.15 -9.25 8.65 -10.1 L5.9 -10.2 Q5.0 -9.55 5.1 -8.5 5.4 -5.05 3.75 -5.4 2.7 -5.85 2.55 -8.8 2.25 -9.85 0.95 -10.3 L0.7 -10.3 -6.6 -10.1 Q-7.2 -9.0 -6.75 -5.75 -6.4 -2.5 -8.0 -3.0 -8.85 -3.0 -8.35 -5.7 -7.95 -8.4 -8.8 -9.9 L-15.75 -9.1 Q-15.25 -6.4 -16.6 -6.45 -17.65 -6.3 -17.45 -8.85 L-19.25 -8.5 Q-27.5 -6.65 -27.5 -4.15 -27.5 -1.6 -19.25 0.2 -11.05 2.05 0.7 2.05 12.3 2.05 20.45 0.2 25.65 -0.95 27.7 -2.55 29.85 -3.6 29.5 -2.85 27.65 -0.2 22.05 1.2 L20.95 1.45 Q21.45 9.4 19.65 9.0 18.55 8.2 19.3 4.1 19.2 2.75 18.65 2.0" fill="#a33da2" fill-rule="evenodd" stroke="none"/>
  </g>
</svg>
