<?xml version="1.0" encoding="UTF-8" standalone="no"?>
<svg xmlns:xlink="http://www.w3.org/1999/xlink" height="83.2px" width="191.35px" xmlns="http://www.w3.org/2000/svg">
  <g transform="matrix(1.0, 0.0, 0.0, 1.0, 95.7, 41.6)">
    <path d="M29.8 14.35 Q8.75 -17.1 -31.15 -31.9 -71.1 -46.75 -94.7 -36.3 -75.75 -36.1 -56.9 -27.75 -20.75 -11.7 4.55 18.3 21.55 39.4 26.45 40.6 30.7 41.0 37.65 30.6 42.3 23.2 47.35 10.9 59.6 -14.7 94.65 -33.6 L92.95 -33.4 Q42.75 -26.05 29.8 14.35 30.9 14.75 31.85 16.0 L32.2 16.5 32.85 17.95 Q34.35 21.7 34.05 26.75 33.75 29.85 32.95 32.45 L32.7 32.9 32.2 34.3 32.1 34.4 31.6 35.25 Q29.55 38.75 27.0 38.55 24.55 38.4 23.0 35.0 L22.85 34.6 Q21.35 30.95 21.7 25.85 22.05 20.8 24.1 17.35 26.25 13.95 28.75 14.1 L29.8 14.35 Z" fill="none" stroke="#000000" stroke-linecap="round" stroke-linejoin="round" stroke-width="2.0"/>
  </g>
</svg>
