<?xml version="1.0" encoding="UTF-8" standalone="no"?>
<svg xmlns:xlink="http://www.w3.org/1999/xlink" height="145.05px" width="149.2px" xmlns="http://www.w3.org/2000/svg">
  <g transform="matrix(1.0, 0.0, 0.0, 1.0, 96.5, 72.5)">
    <path d="M45.3 -53.15 L45.35 -53.15 Q57.4 -30.45 49.7 -28.0 -22.55 -21.15 -59.0 -19.85 L-59.05 -19.85 -59.1 -19.45 -62.2 -11.7 -59.15 8.0 Q-58.05 17.8 -55.6 29.2 L-45.2 69.45 Q-54.6 73.8 -67.3 72.05 L-67.95 71.95 Q-73.5 71.15 -77.05 69.15 -81.95 66.4 -83.05 61.4 -81.45 46.05 -88.45 24.3 -91.65 14.45 -91.25 10.8 L-93.6 5.55 Q-95.65 -8.1 -94.05 -21.35 -95.95 -22.05 -96.2 -22.95 L-96.5 -27.0 Q-96.55 -30.55 -95.8 -34.0 -95.05 -37.5 -93.55 -40.9 L-93.55 -40.95 Q-94.05 -52.15 -87.5 -62.9 -85.7 -64.15 -82.6 -64.9 -73.7 -67.25 -54.1 -65.35 L-50.05 -64.9 Q-30.95 -63.2 -7.25 -68.65 13.45 -73.45 30.15 -72.25 L34.65 -71.8 Q42.95 -67.1 45.3 -53.15" fill="#3073af" fill-rule="evenodd" stroke="none"/>
  </g>
</svg>
