<?xml version="1.0" encoding="UTF-8" standalone="no"?>
<svg xmlns:xlink="http://www.w3.org/1999/xlink" height="39.8px" width="71.5px" xmlns="http://www.w3.org/2000/svg">
  <g transform="matrix(1.0, 0.0, 0.0, 1.0, 35.75, 19.9)">
    <path d="M13.45 -18.2 Q11.0 -15.55 11.0 -11.95 11.0 -8.1 13.7 -5.4 16.45 -2.7 20.25 -2.7 24.05 -2.7 26.75 -5.4 28.2 -6.85 28.9 -8.6 L30.7 -6.6 Q39.9 7.0 32.35 10.6 23.55 13.35 14.65 14.05 18.3 18.9 12.45 18.7 7.65 20.9 5.8 19.1 2.9 18.6 0.0 19.9 -2.9 18.6 -5.8 19.1 -6.35 19.65 -7.1 19.8 -9.05 20.25 -12.45 18.7 -18.3 18.9 -14.65 14.05 -10.0 14.35 -5.4 14.15 L-5.4 13.7 Q-5.4 8.95 -8.75 5.6 -12.05 2.3 -16.8 2.3 -21.5 2.3 -24.85 5.6 -27.5 8.25 -28.0 11.85 L-32.35 10.6 Q-39.9 7.0 -30.7 -6.6 -27.2 -10.8 -22.9 -13.65 -22.4 -12.6 -21.45 -11.7 -19.1 -9.3 -15.75 -9.3 -12.4 -9.3 -10.0 -11.7 -7.65 -14.05 -7.65 -17.4 L-7.85 -19.4 0.0 -19.9 Q7.25 -20.05 13.45 -18.2 M10.9 -0.25 Q9.45 -1.7 7.45 -1.7 5.4 -1.7 3.95 -0.25 2.5 1.2 2.5 3.25 2.5 5.3 3.95 6.75 5.4 8.2 7.45 8.2 9.45 8.2 10.9 6.75 12.35 5.3 12.35 3.25 12.35 1.2 10.9 -0.25" fill="#f98282" fill-rule="evenodd" stroke="none"/>
  </g>
</svg>
