<?xml version="1.0" encoding="UTF-8" standalone="no"?>
<svg xmlns:xlink="http://www.w3.org/1999/xlink" height="122.3px" width="127.3px" xmlns="http://www.w3.org/2000/svg">
  <g transform="matrix(1.0, 0.0, 0.0, 1.0, 63.65, 61.15)">
    <path d="M-4.4 -29.65 Q-47.25 -10.3 -56.7 18.55 -64.8 -1.85 -57.65 -24.5 -49.25 -48.95 -18.1 -59.1 4.55 -64.3 24.5 -56.35 42.95 -50.1 51.45 -38.25 35.35 -44.8 -4.4 -29.65 M55.8 -31.25 Q59.7 -24.9 59.95 -19.5 42.85 -14.45 29.95 -3.3 16.2 6.15 5.05 15.1 -11.4 28.1 -22.05 39.7 L-22.4 40.1 Q-25.7 43.7 -28.45 47.2 -30.55 49.85 -33.15 54.0 -40.9 49.45 -45.3 43.35 L-45.95 42.4 Q-48.2 38.3 -47.75 37.6 -42.5 29.25 -37.5 23.1 L-32.0 16.7 Q-25.75 9.7 -18.65 3.55 L-14.35 -0.1 -12.35 -1.7 -11.1 -2.6 -9.85 -3.55 -4.9 -7.1 -1.35 -9.6 Q-0.5 -10.25 0.45 -10.7 2.3 -12.05 4.45 -13.1 L11.05 -17.0 13.7 -18.35 19.55 -21.3 19.95 -21.55 39.85 -28.4 Q53.85 -33.1 55.8 -31.25 M23.4 21.45 Q41.75 18.4 63.0 22.25 64.6 30.1 61.85 36.85 L33.05 35.15 28.0 35.25 -1.55 37.05 Q1.75 31.55 5.55 26.1 14.1 22.9 23.4 21.45 M-56.3 19.5 Q-54.15 23.3 -52.1 27.65 -57.2 34.3 -57.55 38.9 -62.7 33.3 -63.65 28.1 -64.1 19.8 -56.3 19.5 M49.95 53.2 Q30.65 64.4 -11.8 59.8 L-11.8 58.9 -11.8 58.75 -10.1 52.7 -8.95 50.2 -8.75 49.65 -2.65 48.95 -0.7 48.7 Q36.5 39.1 49.95 53.2 M63.65 7.45 Q48.55 5.9 36.2 10.05 47.75 0.8 62.15 -8.0 63.5 -0.75 63.65 7.45" fill="#12744b" fill-rule="evenodd" stroke="none"/>
  </g>
</svg>
