<?xml version="1.0" encoding="UTF-8" standalone="no"?>
<svg xmlns:xlink="http://www.w3.org/1999/xlink" height="113.45px" width="97.9px" xmlns="http://www.w3.org/2000/svg">
  <g transform="matrix(1.0, 0.0, 0.0, 1.0, 67.75, 37.75)">
    <path d="M26.75 -36.7 Q30.8 -35.0 30.0 -32.05 -2.45 -37.35 -19.2 -27.6 -42.25 -11.05 -48.85 6.4 L-50.35 -0.3 Q-38.9 -20.4 -20.5 -31.55 -5.5 -40.3 26.75 -36.7 M-61.45 8.7 L-63.2 21.55 Q-65.7 22.6 -67.75 25.4 -67.65 14.3 -65.55 7.4 L-61.45 8.7 M-52.1 22.4 L-52.35 22.9 -52.4 23.25 -52.45 23.35 -52.4 23.3 -52.35 23.1 -52.1 22.4 Q-44.75 25.8 -39.15 36.5 -33.55 47.15 -41.7 69.15 L-45.0 68.5 Q-39.6 62.0 -43.1 57.4 -46.05 52.3 -42.85 47.1 -39.65 41.85 -45.55 36.2 -51.3 28.45 -52.25 24.7 -54.6 24.0 -57.75 24.05 L-57.75 21.65 -56.25 9.95 -50.8 11.0 -52.1 22.05 -52.1 22.4" fill="#000000" fill-opacity="0.21960784" fill-rule="evenodd" stroke="none"/>
    <path d="M-8.7 70.25 L-8.2 69.95 Q-6.25 69.0 -3.5 69.0 -0.75 69.0 1.2 69.95 3.15 70.95 3.15 72.35 3.15 73.0 2.75 73.55 2.25 74.2 1.2 74.7 -0.75 75.7 -3.5 75.7 -5.95 75.7 -7.75 74.9 L-8.2 74.7 -8.55 74.5 Q-10.15 73.6 -10.15 72.35 -10.15 71.15 -8.7 70.25" fill="#232323" fill-rule="evenodd" stroke="none"/>
  </g>
</svg>
