<?xml version="1.0" encoding="UTF-8" standalone="no"?>
<svg xmlns:xlink="http://www.w3.org/1999/xlink" height="113.9px" width="216.15px" xmlns="http://www.w3.org/2000/svg">
  <g transform="matrix(1.0, 0.0, 0.0, 1.0, 108.05, 56.95)">
    <path d="M60.3 36.1 L49.7 -6.7 Q60.55 -22.1 64.55 -45.8 69.2 -37.15 69.55 -32.6 78.8 -42.4 83.8 -54.3 89.6 -35.7 85.1 -22.6 L95.65 -33.0 Q98.45 -12.1 87.35 -1.2 L82.75 2.5 Q95.7 0.05 107.1 -7.8 104.4 11.55 86.9 20.0 96.9 19.65 108.1 14.5 100.1 31.5 89.7 31.7 97.5 37.45 105.25 34.65 98.55 46.6 86.75 45.4 92.2 51.35 99.85 52.75 93.7 56.85 87.7 56.95 81.65 56.85 75.7 52.7 67.4 46.55 60.3 36.1 M11.2 0.8 L19.55 13.05 12.55 28.85 3.5 13.0 11.2 0.8 M44.0 19.7 L22.45 19.3 25.55 12.25 21.7 6.55 36.45 8.85 43.9 8.85 44.0 19.7 M-75.65 0.65 Q-79.05 -1.1 -81.7 -3.15 -96.4 -14.35 -93.4 -35.5 L-79.45 -24.85 Q-85.7 -38.2 -78.75 -56.95 -72.0 -44.75 -59.8 -34.7 -59.55 -39.3 -53.8 -47.95 -48.05 -24.0 -33.7 -8.3 L-45.9 34.75 Q-54.65 45.25 -65.1 51.45 -72.7 55.65 -80.4 55.7 -88.2 55.65 -96.15 51.45 -86.35 50.05 -79.5 44.05 -94.7 45.25 -103.75 33.1 -93.6 35.95 -83.7 30.15 -97.2 29.9 -108.05 12.55 -93.45 17.85 -80.5 18.3 -103.35 9.65 -107.4 -10.1 -92.45 -2.0 -75.65 0.65 M-0.05 18.5 L-25.65 18.45 -25.85 7.4 -16.45 7.45 -0.25 6.75 -3.7 12.15 -0.05 18.5" fill="#a3f0fa" fill-rule="evenodd" stroke="none"/>
  </g>
</svg>
