<?xml version="1.0" encoding="UTF-8" standalone="no"?>
<svg xmlns:xlink="http://www.w3.org/1999/xlink" height="33.9px" width="55.1px" xmlns="http://www.w3.org/2000/svg">
  <g transform="matrix(1.0, 0.0, 0.0, 1.0, 27.55, 16.95)">
    <path d="M-2.3 -11.9 L-2.4 -13.1 Q-2.35 -14.7 -1.4 -15.85 -0.45 -16.95 0.85 -16.95 2.25 -16.9 3.05 -15.75 3.8 -14.8 3.95 -13.55 L3.95 -12.95 Q3.9 -11.3 3.0 -10.2 2.05 -9.05 0.7 -9.1 -0.6 -9.1 -1.5 -10.3 -2.1 -11.0 -2.3 -11.9 M24.55 -8.0 L25.45 -8.25 26.45 -8.0 Q27.1 -7.6 27.35 -6.6 27.8 -5.25 27.3 -3.65 26.85 -2.05 25.8 -1.15 24.85 -0.2 23.85 -0.45 22.8 -0.8 22.35 -2.15 22.0 -3.4 22.45 -5.1 22.9 -6.65 23.95 -7.55 L24.55 -8.0 M-23.65 -0.45 L-22.45 0.1 Q-21.0 0.95 -20.55 2.2 -19.95 3.45 -20.55 4.45 -21.05 5.5 -22.5 5.55 -23.85 5.65 -25.35 4.8 -26.75 3.95 -27.25 2.65 -27.85 1.4 -27.2 0.4 -26.65 -0.6 -25.3 -0.7 L-25.0 -0.7 -23.65 -0.45 M1.15 9.9 L1.7 9.75 Q2.8 9.75 3.55 10.8 4.35 11.9 4.3 13.35 4.3 14.85 3.7 15.9 3.1 17.0 1.8 16.95 0.5 16.9 -0.3 15.8 -1.05 14.75 -1.05 13.25 -1.0 11.8 -0.25 10.7 L0.3 10.25 0.95 10.0 1.15 9.9" fill="#ffffcc" fill-rule="evenodd" stroke="none"/>
  </g>
</svg>
