<?xml version="1.0" encoding="UTF-8" standalone="no"?>
<svg xmlns:xlink="http://www.w3.org/1999/xlink" height="60.25px" width="115.05px" xmlns="http://www.w3.org/2000/svg">
  <g transform="matrix(1.0, 0.0, 0.0, 1.0, 57.55, 30.1)">
    <path d="M16.1 -2.2 Q7.65 -1.5 -0.05 -1.75 0.05 4.25 4.95 10.35 12.1 7.7 16.7 0.3 L16.6 -0.9 Q16.65 -2.5 17.6 -3.65 18.55 -4.75 19.85 -4.75 21.25 -4.7 22.05 -3.55 28.0 -4.35 32.8 -5.55 51.45 -10.2 55.7 -21.25 L56.15 -22.75 Q57.75 -29.75 51.95 -25.8 M22.05 -3.55 Q22.8 -2.6 22.95 -1.35 27.2 2.2 31.4 3.7 32.9 1.5 32.8 -5.55 M22.95 -1.35 L22.95 -0.75 Q22.9 0.9 22.0 2.0 21.05 3.15 19.7 3.1 18.4 3.1 17.5 1.9 16.9 1.2 16.7 0.3 M44.45 3.95 L43.55 4.2 42.95 4.65 Q41.9 5.55 41.45 7.1 41.0 8.8 41.35 10.05 41.8 11.4 42.85 11.75 43.85 12.0 44.8 11.05 45.85 10.15 46.3 8.55 46.8 6.95 46.35 5.6 46.1 4.6 45.45 4.2 L44.45 3.95 45.0 4.0 45.45 4.2 Q55.9 -3.95 55.7 -21.25 M43.55 4.2 Q37.45 5.9 31.4 3.7 30.15 17.45 20.15 22.1 L20.7 21.95 Q21.8 21.95 22.55 23.0 23.35 24.1 23.3 25.55 23.3 27.05 22.7 28.1 22.1 29.2 20.8 29.15 19.5 29.1 18.7 28.0 17.95 26.95 17.95 25.45 18.0 24.0 18.75 22.9 L19.3 22.45 Q14.9 23.7 4.95 10.35 0.6 11.9 -4.65 11.75 -4.1 11.95 -3.45 12.3 -2.0 13.15 -1.55 14.4 -0.95 15.65 -1.55 16.65 -2.05 17.7 -3.5 17.75 -4.85 17.85 -6.35 17.0 -7.75 16.15 -8.25 14.85 -8.85 13.6 -8.2 12.6 -7.65 11.6 -6.3 11.5 L-6.0 11.5 Q-16.1 9.8 -22.8 3.05 -26.95 -1.2 -29.8 -7.45 -33.2 -8.75 -36.25 -10.3 -46.35 -15.4 -54.35 -23.35 -59.45 -31.15 -52.8 -28.4 M19.3 22.45 Q19.7 22.1 20.15 22.1 L19.95 22.2 19.3 22.45 M-0.05 -1.75 Q-12.2 -2.25 -22.65 -5.05 L-29.8 -7.45 M-6.0 11.5 L-4.65 11.75" fill="none" stroke="#000000" stroke-linecap="round" stroke-linejoin="round" stroke-width="2.0"/>
  </g>
</svg>
