<?xml version="1.0" encoding="UTF-8" standalone="no"?>
<svg xmlns:xlink="http://www.w3.org/1999/xlink" height="106.3px" width="145.55px" xmlns="http://www.w3.org/2000/svg">
  <g transform="matrix(1.0, 0.0, 0.0, 1.0, 72.75, 53.15)">
    <path d="M-52.4 -48.1 L-52.35 -48.05 -52.3 -47.85 -52.3 -48.0 Q-51.85 -46.75 -49.65 -46.3 L-49.5 -46.3 -48.7 -46.15 -47.9 -46.05 Q-46.45 -45.95 -44.4 -46.75 -43.35 -47.15 -42.5 -48.05 -41.65 -48.95 -41.55 -50.6 -41.2 -48.95 -39.95 -47.7 -38.2 -45.95 -35.7 -45.95 -33.2 -45.95 -31.45 -47.7 -30.55 -48.6 -29.8 -50.7 -29.25 -49.05 -27.55 -47.8 -25.7 -46.4 -23.2 -46.05 L-22.6 -45.95 -21.45 -45.9 -20.25 -45.95 Q-17.45 -46.2 -15.4 -47.8 -13.7 -49.0 -13.1 -50.6 -12.35 -48.95 -11.0 -47.6 -7.95 -44.55 -3.6 -44.55 0.75 -44.55 3.8 -47.6 6.05 -49.85 6.9 -52.8 L6.9 -52.75 6.8 -52.05 Q6.8 -49.85 9.05 -48.3 10.95 -46.95 13.5 -46.75 L14.1 -46.7 14.45 -46.7 15.2 -46.7 Q17.95 -46.85 19.85 -48.3 L20.2 -48.5 20.8 -49.1 Q21.05 -47.8 22.0 -46.85 23.3 -45.55 25.15 -45.55 27.0 -45.55 28.3 -46.85 L29.25 -48.25 29.45 -48.35 Q29.5 -46.95 31.05 -45.95 32.3 -45.15 33.85 -44.9 L34.0 -44.9 34.45 -44.9 34.8 -44.9 35.25 -44.9 Q36.7 -44.95 37.9 -45.5 L38.45 -45.85 Q39.5 -45.25 40.85 -45.25 42.35 -45.25 43.05 -45.7 L72.8 34.4 Q62.1 44.4 63.8 35.3 L60.05 35.65 Q54.2 36.85 52.4 38.8 51.55 39.65 51.6 40.7 51.55 41.35 51.95 42.1 L52.4 42.9 Q39.5 51.2 33.05 47.15 31.3 43.3 31.8 39.4 L22.05 40.5 Q19.85 40.6 18.6 41.4 17.2 42.3 17.1 44.15 L17.1 44.25 Q17.0 46.0 18.1 48.5 15.35 54.5 -2.3 51.5 L-2.45 44.0 -20.85 46.0 -21.6 46.15 Q-20.3 52.0 -22.9 52.55 L-50.45 53.15 Q-52.25 51.3 -53.0 48.3 -53.8 45.2 -53.6 40.85 L-64.35 40.85 -65.2 48.15 Q-70.0 45.5 -72.75 40.85 -70.95 -4.2 -61.2 -47.25 L-60.75 -47.6 Q-60.05 -48.15 -59.25 -49.7 L-59.25 -49.5 -59.15 -49.3 -59.0 -48.15 Q-59.0 -46.8 -58.05 -45.85 -57.1 -44.9 -55.75 -44.9 -54.4 -44.9 -53.45 -45.85 -52.85 -46.45 -52.4 -48.1 M-29.8 -50.6 L-29.9 -50.25 -30.0 -49.85 -30.0 -49.8 -29.8 -50.6" fill="#6cbcd0" fill-rule="evenodd" stroke="none"/>
    <path d="M20.8 -49.1 L20.7 -50.0 20.7 -50.1 20.85 -50.35 21.05 -51.0 21.05 -51.05 21.15 -51.75 Q21.35 -52.5 22.0 -53.15 L22.15 -52.35 21.95 -51.0 Q21.7 -49.95 20.8 -49.1 M-52.05 -48.95 L-52.0 -49.05 -51.95 -48.95 -52.05 -48.95 M-51.9 -48.85 L-51.85 -48.8 -51.95 -48.7 -52.1 -48.75 -51.95 -48.65 -52.05 -48.55 -52.05 -48.6 -52.1 -48.75 -52.1 -48.8 -52.3 -48.4 -52.3 -48.3 -52.35 -48.25 -52.4 -48.35 -52.4 -48.4 -52.35 -48.45 -52.35 -48.5 -52.3 -48.6 -52.15 -48.8 -52.1 -48.8 -51.9 -48.85" fill="#ececec" fill-rule="evenodd" stroke="none"/>
    <path d="M-29.8 -50.6 L-30.0 -49.8 -30.0 -49.85 -29.9 -50.25 -29.8 -50.6" fill="#ffffff" fill-rule="evenodd" stroke="none"/>
    <path d="M-52.4 -48.1 Q-52.85 -46.45 -53.45 -45.85 -54.4 -44.9 -55.75 -44.9 -57.1 -44.9 -58.05 -45.85 -59.0 -46.8 -59.0 -48.15 L-59.15 -49.3 -59.1 -49.15 Q-58.65 -47.45 -58.05 -46.85 -57.1 -45.9 -55.75 -45.9 -54.4 -45.9 -53.45 -46.85 -53.2 -47.1 -52.7 -48.15 L-52.45 -48.2 -52.4 -48.1 M-52.15 -48.8 L-52.15 -48.85 -52.3 -48.85 -52.3 -48.9 -51.9 -48.9 -52.05 -48.95 -51.95 -48.95 -51.9 -48.95 Q-51.65 -48.95 -51.85 -48.85 L-51.9 -48.85 -52.1 -48.8 -52.15 -48.8 M-52.35 -48.45 L-52.4 -48.45 -52.35 -48.5 -52.35 -48.45 M-52.5 -48.9 L-52.5 -48.85 -53.75 -48.85 -52.5 -48.9" fill="#cccccc" fill-rule="evenodd" stroke="none"/>
  </g>
</svg>
