<?xml version="1.0" encoding="UTF-8" standalone="no"?>
<svg xmlns:xlink="http://www.w3.org/1999/xlink" height="105.75px" width="126.5px" xmlns="http://www.w3.org/2000/svg">
  <g transform="matrix(1.0, 0.0, 0.0, 1.0, 64.65, 33.45)">
    <path d="M55.55 40.6 L57.7 43.0 Q59.8 38.85 58.0 33.55 55.15 25.05 51.3 20.8 47.45 16.55 41.85 11.45 36.25 6.3 20.4 -3.5 -23.6 -30.85 -40.65 -32.25 -49.95 -33.2 -54.15 -29.1 -58.4 -25.05 -60.5 -21.7 -62.65 -18.35 -63.65 -14.4 L-54.7 -17.95 Q-52.75 -17.8 -52.7 -19.85 -48.2 -20.25 -43.95 -16.3 L-30.0 -6.45 -6.7 9.7 Q14.5 22.05 32.95 51.6 L36.75 56.6 Q40.5 61.55 42.5 67.6 44.5 73.65 47.85 69.75 54.6 65.1 53.0 62.05 L52.6 60.5 M53.0 62.05 Q54.05 63.45 55.15 61.95 L57.7 57.35 Q58.1 54.2 57.25 51.95 58.7 53.15 60.75 47.55 61.35 45.85 58.9 44.3 L57.7 43.0" fill="none" stroke="#000000" stroke-linecap="round" stroke-linejoin="round" stroke-width="2.0"/>
    <path d="M43.65 48.35 L44.0 48.95" fill="none" stroke="#000000" stroke-linecap="round" stroke-linejoin="round" stroke-width="0.1"/>
  </g>
</svg>
