<?xml version="1.0" encoding="UTF-8" standalone="no"?>
<svg xmlns:xlink="http://www.w3.org/1999/xlink" height="47.9px" width="101.05px" xmlns="http://www.w3.org/2000/svg">
  <g transform="matrix(1.0, 0.0, 0.0, 1.0, 47.65, 57.0)">
    <path d="M17.3 -46.2 L17.3 -46.8 Q17.15 -50.05 15.35 -52.25 13.5 -54.7 10.7 -54.7 7.75 -54.7 5.9 -52.25 4.15 -50.15 3.9 -47.2 L3.85 -46.2 3.9 -44.95 Q4.15 -43.05 5.05 -41.45 L5.9 -40.25 Q7.75 -37.7 10.7 -37.7 13.5 -37.7 15.35 -40.25 L15.95 -41.2 Q16.65 -42.35 17.0 -43.65 L17.3 -46.2 M1.75 -45.2 L1.7 -46.0 Q1.7 -50.65 4.25 -53.8 6.85 -57.0 10.35 -57.0 14.05 -57.0 16.55 -53.8 19.25 -50.65 19.25 -46.0 L19.2 -44.5 19.2 -44.15 18.55 -41.45 18.5 -41.4 17.25 -38.95 17.15 -38.8 16.55 -38.1 Q14.05 -34.85 10.35 -34.85 6.85 -34.85 4.25 -38.1 L3.35 -39.5 3.05 -40.05 2.35 -41.8 2.2 -42.4 2.05 -42.85 Q1.75 -43.95 1.75 -45.1 L1.75 -45.2" fill="#000000" fill-opacity="0.35686275" fill-rule="evenodd" stroke="none"/>
    <path d="M13.85 -51.05 Q16.1 -49.95 15.55 -47.15 15.3 -46.05 14.3 -46.85 L13.65 -47.65 13.3 -48.3 Q12.95 -49.05 12.95 -49.6 12.9 -50.55 13.85 -51.05 M12.05 -53.5 Q13.7 -52.85 13.1 -52.1 12.3 -51.45 11.95 -51.7 10.5 -52.9 12.05 -53.5" fill="#ffffff" fill-opacity="0.4392157" fill-rule="evenodd" stroke="none"/>
    <path d="M24.3 -29.9 Q15.5 -32.6 4.5 -33.3 L-4.75 -32.55 Q-0.7 -36.05 3.05 -40.05 L3.35 -39.5 4.25 -38.1 Q6.85 -34.85 10.35 -34.85 14.05 -34.85 16.55 -38.1 L17.15 -38.8 17.25 -38.95 Q20.1 -34.05 24.3 -29.9" fill="#000000" fill-opacity="0.15686275" fill-rule="evenodd" stroke="none"/>
    <path d="M19.2 -44.15 Q29.7 -29.9 38.3 -25.7 44.0 -22.95 50.8 -23.6 51.15 -13.4 53.4 -9.15 L51.65 -11.6 51.55 -11.75 Q50.85 -12.65 50.45 -13.95 49.25 -16.85 48.8 -21.45 L48.8 -22.1 Q48.6 -21.95 48.3 -21.9 L48.2 -21.85 48.05 -21.85 41.3 -22.8 39.95 -23.3 39.0 -23.75 36.2 -25.05 35.85 -25.15 33.9 -26.2 31.05 -28.25 Q24.15 -33.65 18.55 -41.45 L19.2 -44.15 M-47.35 -12.65 Q-47.45 -21.55 -44.75 -30.75 -40.05 -25.15 -24.55 -28.95 -12.7 -31.9 1.75 -45.2 L1.75 -45.1 Q1.75 -43.95 2.05 -42.85 L2.2 -42.4 0.8 -41.2 Q-7.1 -35.15 -12.75 -31.9 L-12.95 -31.8 -13.1 -31.75 -16.2 -30.25 -21.4 -28.6 -21.9 -28.35 Q-34.25 -24.2 -40.25 -25.4 -42.5 -25.9 -43.85 -27.1 L-43.9 -26.6 -44.05 -26.45 -44.15 -26.25 -44.15 -26.05 -44.25 -25.55 -44.4 -25.4 -44.4 -25.15 -44.55 -24.7 -44.55 -24.65 -44.6 -24.45 -44.75 -24.0 -44.9 -23.75 -44.9 -23.5 -46.8 -15.75 -47.35 -12.65" fill="#000000" fill-opacity="0.5176471" fill-rule="evenodd" stroke="none"/>
    <path d="M51.55 -11.75 L49.5 -14.3 49.45 -14.3 49.3 -14.45 Q40.15 -23.75 24.35 -29.9 L24.3 -29.9 Q20.1 -34.05 17.25 -38.95 L18.5 -41.4 18.55 -41.45 Q24.15 -33.65 31.05 -28.25 L33.9 -26.2 35.85 -25.15 36.2 -25.05 39.0 -23.75 39.95 -23.3 41.3 -22.8 48.05 -21.85 48.2 -21.85 48.3 -21.9 Q48.6 -21.95 48.8 -22.1 L48.8 -21.45 Q49.25 -16.85 50.45 -13.95 50.85 -12.65 51.55 -11.75 M-4.75 -32.55 L-6.9 -32.25 Q-18.05 -29.95 -28.5 -25.5 L-30.9 -24.2 Q-40.95 -18.5 -47.65 -9.1 L-47.35 -11.9 -47.35 -12.45 -47.45 -12.3 -47.35 -12.65 -46.8 -15.75 -44.9 -23.5 -44.9 -23.75 -44.75 -24.0 -44.6 -24.45 -44.55 -24.65 -44.55 -24.7 -44.4 -25.15 -44.4 -25.4 -44.25 -25.55 -44.15 -26.05 -44.15 -26.25 -44.05 -26.45 -43.9 -26.6 -43.85 -27.1 Q-42.5 -25.9 -40.25 -25.4 -34.25 -24.2 -21.9 -28.35 L-21.4 -28.6 -16.2 -30.25 -13.1 -31.75 -12.95 -31.8 -12.75 -31.9 Q-7.1 -35.15 0.8 -41.2 L2.2 -42.4 2.35 -41.8 3.05 -40.05 Q-0.7 -36.05 -4.75 -32.55" fill="#000000" fill-opacity="0.34901962" fill-rule="evenodd" stroke="none"/>
  </g>
</svg>
