<?xml version="1.0" encoding="UTF-8" standalone="no"?>
<svg xmlns:xlink="http://www.w3.org/1999/xlink" height="118.6px" width="70.35px" xmlns="http://www.w3.org/2000/svg">
  <g transform="matrix(1.0, 0.0, 0.0, 1.0, 35.4, 59.5)">
    <path d="M-2.35 49.5 Q-3.6 50.65 -5.3 51.25 L-6.05 51.6 Q-9.85 53.1 -14.4 52.9 -22.8 52.65 -28.75 46.6 -34.55 40.6 -34.4 32.35 -34.25 24.15 -28.1 18.5 -26.75 17.25 -25.25 16.3 L-25.25 4.4 -24.55 3.35 Q-25.2 -2.4 -25.25 -7.5 -25.45 -20.15 -22.25 -28.6 -14.85 -48.1 5.85 -55.15 13.35 -57.95 19.8 -58.4 25.45 -58.8 28.5 -57.65 18.65 -55.2 8.1 -51.15 -11.7 -42.2 -15.85 -27.2 -18.1 -19.1 -17.95 -10.95 -17.9 -4.9 -16.5 1.2 L-10.75 14.15 Q-3.55 18.5 -0.55 32.0 1.65 41.75 -0.5 46.75 -1.2 48.35 -2.35 49.5 M-25.25 16.3 Q-20.8 13.45 -15.35 13.2 L-13.5 13.15 -12.4 13.3 -10.75 14.15 M-24.55 3.35 Q-22.15 1.85 -20.4 1.55 L-16.5 1.2" fill="none" stroke="#000000" stroke-linecap="round" stroke-linejoin="round" stroke-width="2.0"/>
    <path d="M-0.5 46.75 L11.8 53.2 26.85 54.55 27.35 54.0 33.55 54.45 Q35.2 56.4 33.55 57.85 32.6 58.8 29.4 58.35 L26.3 58.1 26.5 57.4 11.0 56.1 -2.35 49.5 M26.5 57.4 Q26.95 55.95 26.85 54.55 M26.5 57.4 L26.9 57.8" fill="none" stroke="#000000" stroke-linecap="round" stroke-linejoin="round" stroke-width="1.2000000000000002"/>
    <path d="M26.85 54.55 L26.8 53.95 27.35 54.0" fill="none" stroke="#000000" stroke-linecap="round" stroke-linejoin="round" stroke-opacity="0.65882355" stroke-width="0.8"/>
    <path d="M-20.75 42.45 Q-22.3 45.2 -25.15 45.2 -28.0 45.2 -30.45 42.5 -32.75 39.75 -33.3 35.95 -33.85 32.1 -32.35 29.35 -30.7 26.65 -27.85 26.65 -25.0 26.65 -22.65 29.3 -21.55 30.55 -20.8 32.05 -20.95 31.9 -21.05 31.85 -22.45 30.3 -24.15 30.35 -25.8 30.3 -26.8 31.85 -27.75 33.4 -27.4 35.5 -27.1 37.65 -25.75 39.1 -24.3 40.65 -22.65 40.65 -20.95 40.65 -20.0 39.1 L-19.55 38.2 Q-19.65 40.55 -20.75 42.45 M-15.35 13.2 Q-10.25 17.25 -6.9 30.8 -2.6 48.3 -6.05 51.6 M-20.4 1.55 L-16.5 11.8" fill="none" stroke="#000000" stroke-linecap="round" stroke-linejoin="round" stroke-opacity="0.4392157" stroke-width="1.0"/>
  </g>
</svg>
