<?xml version="1.0" encoding="UTF-8" standalone="no"?>
<svg xmlns:xlink="http://www.w3.org/1999/xlink" height="103.7px" width="61.95px" xmlns="http://www.w3.org/2000/svg">
  <g transform="matrix(1.0, 0.0, 0.0, 1.0, 31.0, 51.85)">
    <path d="M-22.8 -0.85 Q-23.0 -13.5 -19.8 -21.95 -12.4 -41.45 8.3 -48.5 15.8 -51.3 22.25 -51.75 27.9 -52.15 30.95 -51.0 21.1 -48.55 10.55 -44.5 -9.25 -35.55 -13.4 -20.55 -15.65 -12.45 -15.5 -4.3 L-22.8 -0.85" fill="url(#gradient0)" fill-rule="evenodd" stroke="none"/>
    <path d="M-18.3 49.1 Q-19.85 51.85 -22.7 51.85 -25.55 51.85 -28.0 49.15 -30.3 46.4 -30.85 42.6 -31.4 38.75 -29.9 36.0 -28.25 33.3 -25.4 33.3 -22.55 33.3 -20.2 35.95 -19.1 37.2 -18.35 38.7 -18.5 38.55 -18.6 38.5 -20.0 36.95 -21.7 37.0 -23.35 36.95 -24.35 38.5 -25.3 40.05 -24.95 42.15 -24.65 44.3 -23.3 45.75 -21.85 47.3 -20.2 47.3 -18.5 47.3 -17.55 45.75 L-17.1 44.85 Q-17.2 47.2 -18.3 49.1" fill="#70f3ff" fill-rule="evenodd" stroke="none"/>
  </g>
  <defs>
    <linearGradient gradientTransform="matrix(0.0269, -0.0273, 0.0085, 0.0084, -2.35, -31.2)" gradientUnits="userSpaceOnUse" id="gradient0" spreadMethod="pad" x1="-819.2" x2="819.2">
      <stop offset="0.0" stop-color="#72e3ff" stop-opacity="0.7490196"/>
      <stop offset="1.0" stop-color="#72e3ff" stop-opacity="0.0"/>
    </linearGradient>
  </defs>
</svg>
