<?xml version="1.0" encoding="UTF-8" standalone="no"?>
<svg xmlns:xlink="http://www.w3.org/1999/xlink" height="69.7px" width="59.25px" xmlns="http://www.w3.org/2000/svg">
  <g transform="matrix(1.0, 0.0, 0.0, 1.0, 0.0, 0.0)">
    <path d="M46.8 29.75 Q50.3 34.3 51.15 38.85 L45.5 35.2 Q51.0 41.45 49.15 49.85 L46.0 43.85 Q46.4 52.75 44.25 57.7 L42.65 53.95 Q41.45 60.5 36.9 64.7 L36.4 58.2 Q35.55 64.6 32.25 68.1 L30.75 62.45 29.4 69.7 Q26.1 65.1 24.4 58.6 L24.25 66.85 Q20.3 62.2 19.0 55.2 L18.5 60.35 Q13.75 55.4 16.0 46.6 L12.6 51.95 Q11.15 45.6 14.75 37.35 11.4 39.45 8.65 44.1 7.35 38.3 9.3 32.1 7.75 33.75 5.8 35.1 2.1 31.2 3.9 24.2 L0.0 27.85 Q-0.4 18.15 7.15 11.6 L2.5 10.95 Q19.7 -3.95 31.25 1.95 44.65 -3.7 55.0 6.95 L48.9 5.85 Q58.25 12.3 59.25 22.2 L54.15 17.6 Q56.0 26.4 53.65 33.7 48.75 30.5 45.4 23.35 L46.8 29.75" fill="#fefefe" fill-rule="evenodd" stroke="none"/>
  </g>
</svg>
