<?xml version="1.0" encoding="UTF-8" standalone="no"?>
<svg xmlns:xlink="http://www.w3.org/1999/xlink" height="54.05px" width="134.7px" xmlns="http://www.w3.org/2000/svg">
  <g transform="matrix(1.0, 0.0, 0.0, 1.0, 67.35, 27.05)">
    <path d="M-5.45 5.95 L-8.6 3.95 -10.1 2.6 -11.15 1.1 -10.1 -1.15 -9.0 -3.45 -8.6 -4.1 Q-3.5 -12.55 2.65 -18.25 4.1 -19.3 6.15 -19.5 10.85 -19.95 18.65 -15.85 32.35 -7.55 45.55 3.1 L45.65 3.15 Q54.2 10.0 62.5 17.85 69.15 22.8 66.65 23.9 57.0 31.35 33.9 20.85 23.95 15.8 15.9 6.5 L13.15 3.15 12.35 2.1 10.05 -0.5 6.15 -3.95 2.3 -6.3 1.4 -5.1 Q-0.05 -3.25 -1.05 -1.35 L-5.45 5.95 M-60.9 8.45 L-64.1 8.2 Q-65.3 4.55 -66.05 0.75 -67.85 -8.25 -67.2 -18.15 -66.7 -26.05 -57.85 -26.95 -49.9 -28.1 -41.05 -18.65 L-33.8 -9.7 -30.5 -5.35 Q-21.9 6.35 -15.5 18.15 -10.5 26.0 -20.1 26.2 -31.2 24.9 -40.8 19.75 -46.8 16.0 -50.85 11.8 -53.1 9.45 -54.75 7.0 L-57.15 2.7 -58.85 -2.05 -60.0 -6.3 -60.25 -7.3 -60.45 -8.3 -61.2 -12.75 Q-62.7 -2.45 -60.9 8.45" fill="#270e0c" fill-rule="evenodd" stroke="none"/>
  </g>
</svg>
