<?xml version="1.0" encoding="UTF-8" standalone="no"?>
<svg xmlns:xlink="http://www.w3.org/1999/xlink" height="151.15px" width="155.75px" xmlns="http://www.w3.org/2000/svg">
  <g transform="matrix(1.0, 0.0, 0.0, 1.0, 77.9, 75.55)">
    <path d="M50.9 -43.1 Q56.2 -33.25 60.65 -22.5 60.2 -18.75 59.05 -16.05 57.2 -20.35 53.55 -22.75 L53.55 -23.25 Q50.9 -31.5 43.2 -38.15 41.5 -38.7 41.0 -34.9 40.5 -36.75 39.4 -37.05 36.75 -37.4 36.15 -35.25 L36.1 -34.85 Q34.25 -40.55 29.05 -40.65 26.8 -40.3 27.5 -37.3 20.6 -39.35 12.95 -39.65 L11.0 -39.55 Q14.95 -54.0 22.95 -66.5 25.9 -71.15 29.5 -75.55 L36.45 -66.5 Q44.35 -55.4 50.9 -43.1 M68.65 11.2 L75.65 2.95 Q79.15 14.9 77.1 27.85 L75.8 32.7 72.15 31.4 72.5 28.7 68.65 11.2 M-31.55 72.25 Q-30.75 73.35 -28.8 73.0 -26.35 72.45 -26.95 70.8 -27.85 68.9 -29.9 68.7 -31.2 69.25 -31.55 72.25 M-47.1 53.65 Q-47.1 53.05 -47.6 52.7 -48.1 52.3 -49.3 52.3 L-51.3 52.7 Q-52.05 53.1 -52.05 53.65 -52.05 54.25 -51.3 54.65 L-49.3 55.1 Q-48.1 55.1 -47.6 54.6 -47.05 54.2 -47.1 53.65 M-51.45 37.5 Q-51.45 36.65 -52.2 36.05 -52.85 35.55 -53.95 35.3 L-56.05 35.1 Q-57.05 35.2 -56.85 36.05 -56.6 36.9 -55.8 37.35 L-54.0 38.1 -52.25 38.4 Q-51.4 38.35 -51.45 37.5 M-42.6 31.45 Q-46.3 32.1 -46.95 33.7 -47.35 36.55 -43.4 39.35 -47.1 39.6 -47.85 41.85 -48.35 43.25 -47.1 44.55 L-42.95 46.3 -42.95 45.25 Q-42.65 46.3 -39.95 47.35 -44.9 49.3 -45.4 50.95 -45.8 52.7 -41.85 54.4 L-35.8 52.55 -38.75 57.85 -34.4 59.05 -35.05 60.15 -39.25 58.95 -39.35 60.55 Q-38.25 62.65 -35.45 64.0 L-33.55 64.8 Q-29.85 64.9 -27.35 62.3 L-24.5 72.8 Q-29.5 74.8 -38.05 75.6 -39.7 71.45 -39.4 62.3 L-47.6 63.4 -46.3 58.1 -50.55 60.2 Q-76.1 39.85 -77.9 21.25 L-42.6 31.45 M-51.55 18.3 Q-51.8 17.8 -52.35 17.4 -53.0 17.0 -53.5 17.0 -54.05 17.0 -54.2 17.4 -54.45 17.8 -54.2 18.3 L-53.35 19.25 Q-52.8 19.65 -52.3 19.65 -51.7 19.65 -51.45 19.25 -51.3 18.9 -51.55 18.3 M-34.95 -8.5 Q-35.1 -9.9 -36.15 -10.85 -37.2 -11.8 -38.4 -11.8 -39.65 -11.8 -40.45 -10.85 -41.15 -9.9 -41.0 -8.5 -40.8 -7.15 -39.8 -6.25 -38.75 -5.25 -37.5 -5.25 -36.3 -5.25 -35.45 -6.25 -34.7 -7.15 -34.95 -8.5 M-24.6 -30.2 Q-24.6 -31.25 -25.1 -32.0 -25.65 -32.7 -26.35 -32.7 -27.05 -32.7 -27.6 -32.0 -28.05 -31.25 -28.05 -30.2 -28.05 -29.15 -27.6 -28.4 -27.05 -27.7 -26.35 -27.7 -25.65 -27.7 -25.1 -28.4 -24.6 -29.15 -24.6 -30.2 M-25.5 -37.15 Q-25.5 -37.7 -25.9 -38.15 -26.15 -38.55 -26.65 -38.55 -27.05 -38.55 -27.45 -38.15 L-27.75 -37.15 -27.45 -36.1 Q-27.05 -35.65 -26.65 -35.65 -26.15 -35.65 -25.9 -36.1 -25.5 -36.5 -25.5 -37.15 M-69.2 -68.15 L-69.1 -68.75 -24.1 -38.8 Q-24.45 -34.75 -23.1 -30.25 -21.75 -24.7 -23.95 -20.75 -33.05 -22.95 -33.95 -19.95 L-26.85 -13.8 -29.45 -14.35 Q-29.95 -13.0 -28.2 -9.6 -29.4 -9.55 -31.65 -8.0 -32.65 -5.8 -32.85 -1.15 -36.3 -3.5 -39.45 -3.6 -41.8 -3.2 -42.35 -0.35 -43.2 6.3 -42.4 12.95 L-41.55 14.0 -42.7 18.7 Q-45.7 16.55 -46.35 17.4 -47.65 18.1 -47.8 23.4 -56.05 18.9 -60.7 17.6 -71.15 -3.05 -71.6 -20.65 L-52.9 -0.6 Q-64.05 -15.4 -72.0 -28.0 -73.9 -50.5 -69.7 -66.5 L-69.2 -68.15 M69.75 55.25 L71.25 64.25 66.0 65.7 66.95 60.55 69.75 55.25" fill="#465462" fill-rule="evenodd" stroke="none"/>
  </g>
</svg>
