<?xml version="1.0" encoding="UTF-8" standalone="no"?>
<svg xmlns:xlink="http://www.w3.org/1999/xlink" height="44.4px" width="31.2px" xmlns="http://www.w3.org/2000/svg">
  <g transform="matrix(1.0, 0.0, 0.0, 1.0, 15.6, 22.2)">
    <path d="M-6.45 -21.2 L-6.45 -17.7 Q-6.05 -16.5 -4.85 -16.0 L-4.55 -15.85 -2.75 -15.6 -2.7 -15.6 -1.2 -15.75 Q2.5 -17.55 6.9 -17.75 L7.7 -17.75 12.25 -17.25 Q16.15 0.9 13.6 14.4 L11.9 20.8 7.7 21.2 7.25 21.2 Q-0.55 21.0 -6.1 15.45 -8.75 12.8 -10.15 9.7 -11.05 7.65 -11.45 5.45 -15.7 -3.2 -14.2 -12.05 -11.6 -17.95 -7.0 -21.0 M6.9 -17.75 Q9.95 -0.6 8.4 13.9 L8.35 14.4 7.25 21.2 M-1.2 -15.75 L-1.9 -15.35 -5.5 -12.65 -6.1 -12.1 Q-10.45 -7.7 -11.45 -1.85 L-11.75 1.7 -11.45 5.45" fill="none" stroke="#070707" stroke-linecap="round" stroke-linejoin="round" stroke-width="2.0"/>
  </g>
</svg>
