<?xml version="1.0" encoding="UTF-8" standalone="no"?>
<svg xmlns:xlink="http://www.w3.org/1999/xlink" height="57.6px" width="163.55px" xmlns="http://www.w3.org/2000/svg">
  <g transform="matrix(1.0, 0.0, 0.0, 1.0, 81.8, 28.8)">
    <path d="M72.65 -4.25 L79.95 -3.35 72.45 6.1 75.7 28.8 65.85 13.05 63.0 23.9 60.45 15.2 61.3 0.85 64.2 -10.85 64.1 -10.7 66.35 -20.9 66.7 -13.3 81.75 -27.9 72.65 -4.25 M67.55 0.85 L67.55 1.35 67.6 1.15 67.6 1.0 67.8 0.9 67.7 0.9 67.65 0.85 67.55 0.85 M-69.35 -28.8 L-48.15 -5.9 -42.15 -20.8 -37.4 -1.65 -25.75 3.55 -36.55 10.35 -33.8 26.2 -46.25 14.2 -76.8 23.75 -77.05 23.75 -61.35 8.3 -81.8 -4.3 -60.25 -3.2 -69.35 -28.8" fill="#69ff7f" fill-rule="evenodd" stroke="none"/>
    <path d="M67.55 0.85 L67.65 0.85 67.7 0.9 67.8 0.9 67.6 1.0 67.6 1.15 67.55 1.35 67.55 0.85" fill="#fef9a2" fill-rule="evenodd" stroke="none"/>
  </g>
</svg>
