<?xml version="1.0" encoding="UTF-8" standalone="no"?>
<svg xmlns:xlink="http://www.w3.org/1999/xlink" height="54.4px" width="64.0px" xmlns="http://www.w3.org/2000/svg">
  <g transform="matrix(1.0, 0.0, 0.0, 1.0, 32.0, 27.2)">
    <path d="M-0.65 -2.8 L2.2 -3.15 Q4.6 -2.85 5.15 0.1 13.65 -0.7 27.3 3.45 34.35 8.25 30.85 14.05 27.35 21.0 15.8 27.05 6.05 28.1 2.7 21.5 -0.95 13.7 0.6 7.95 L-2.0 8.35 Q-5.75 7.5 -6.15 5.4 -6.4 4.25 -5.5 2.7 -15.7 6.2 -29.05 2.75 -35.95 -3.0 -26.8 -17.7 -20.95 -27.7 -14.05 -27.2 -6.3 -21.3 -2.95 -11.95 -0.9 -6.3 -0.65 -2.8" fill="#c67979" fill-rule="evenodd" stroke="none"/>
  </g>
</svg>
