<?xml version="1.0" encoding="UTF-8" standalone="no"?>
<svg xmlns:xlink="http://www.w3.org/1999/xlink" height="40.35px" width="36.25px" xmlns="http://www.w3.org/2000/svg">
  <g transform="matrix(1.0, 0.0, 0.0, 1.0, 18.15, 20.15)">
    <path d="M8.85 -10.75 L12.3 -6.8 17.1 -7.8 14.75 -2.6 16.65 2.35 11.8 1.25 8.05 5.7 7.45 -0.05 3.2 -2.4 7.5 -5.0 8.85 -10.75 M12.35 12.55 Q7.3 18.55 0.15 19.15 -7.05 19.75 -12.1 14.55 -17.15 9.4 -17.15 1.45 -17.15 -6.45 -12.1 -12.5 -7.05 -18.5 0.15 -19.1 7.3 -19.7 12.35 -14.5 14.35 -12.45 15.55 -10.0 L14.65 -11.1 Q11.2 -14.6 6.35 -14.2 1.5 -13.8 -1.95 -9.7 -5.35 -5.65 -5.35 -0.3 -5.35 5.1 -1.95 8.6 1.5 12.1 6.35 11.7 11.2 11.3 14.65 7.2 16.05 5.55 16.95 3.6 15.8 8.5 12.35 12.55" fill="none" stroke="#000000" stroke-linecap="round" stroke-linejoin="round" stroke-width="2.0"/>
  </g>
</svg>
