<?xml version="1.0" encoding="UTF-8" standalone="no"?>
<svg xmlns:xlink="http://www.w3.org/1999/xlink" height="17.25px" width="32.5px" xmlns="http://www.w3.org/2000/svg">
  <g transform="matrix(1.0, 0.0, 0.0, 1.0, 16.25, 8.6)">
    <path d="M5.75 -7.75 Q7.25 -8.5 9.1 -8.6 12.2 -8.75 14.2 -6.6 16.15 -4.5 16.25 -1.45 16.35 1.55 14.5 3.55 12.6 5.55 9.3 5.7 6.0 5.85 3.8 3.7 1.6 1.55 1.6 -1.45 1.6 -4.5 3.8 -6.45 4.7 -7.25 5.75 -7.75 M-8.35 -5.5 Q-5.6 -5.35 -3.55 -3.35 -1.35 -1.2 -1.35 1.75 -1.35 4.75 -3.25 6.7 -5.15 8.6 -8.25 8.65 -11.35 8.7 -13.8 6.75 -16.25 4.75 -16.25 1.75 -16.25 -1.2 -14.05 -3.35 -11.85 -5.5 -8.8 -5.5 L-8.35 -5.5" fill="#e2657a" fill-rule="evenodd" stroke="none"/>
  </g>
</svg>
