<?xml version="1.0" encoding="UTF-8" standalone="no"?>
<svg xmlns:xlink="http://www.w3.org/1999/xlink" height="124.6px" width="123.1px" xmlns="http://www.w3.org/2000/svg">
  <g transform="matrix(1.0, 0.0, 0.0, 1.0, 61.55, 62.3)">
    <path d="M59.1 -50.65 Q59.45 -52.4 58.5 -54.0 57.55 -55.5 55.7 -55.95 54.05 -56.35 52.5 -55.4 L51.4 -54.35 Q50.75 -53.7 50.45 -52.65 50.1 -50.9 51.05 -49.35 52.05 -47.75 53.75 -47.4 55.5 -46.9 57.15 -47.95 58.25 -48.6 58.85 -49.75 L59.1 -50.65 M32.75 -42.3 L34.8 -45.05 Q43.85 -56.2 59.9 -59.45 63.3 -43.5 59.75 -29.0 L59.05 -25.95 58.4 -24.05 55.95 -25.95 Q47.35 -32.8 34.8 -37.9 L30.95 -39.35 32.75 -42.3 M-61.55 33.55 L-58.8 36.15 -57.35 31.0 -53.45 38.3 -56.05 49.6 -61.55 40.85 -61.55 33.55 M-43.05 -44.1 Q-43.05 -41.05 -41.05 -39.1 -38.9 -36.9 -35.95 -36.9 -32.95 -36.9 -30.85 -39.1 -28.75 -41.05 -28.75 -44.1 -28.75 -47.0 -30.85 -49.15 -32.95 -51.15 -35.95 -51.15 -38.9 -51.15 -41.05 -49.15 -43.05 -47.0 -43.05 -44.1 M-41.6 -31.05 L-47.0 -27.2 -48.3 -27.25 Q-48.95 -28.3 -49.2 -30.6 L-49.8 -35.05 Q-50.85 -48.25 -47.65 -62.3 -29.25 -59.45 -20.2 -47.3 L-18.3 -44.25 -17.45 -42.75 -18.3 -42.35 -18.95 -42.1 -23.8 -40.2 -24.25 -40.05 Q-34.05 -35.8 -41.6 -31.05 M-39.15 -57.75 L-39.75 -58.4 Q-41.05 -59.65 -42.95 -59.65 -44.7 -59.65 -46.0 -58.4 -47.25 -57.2 -47.25 -55.35 -47.25 -53.7 -46.25 -52.5 L-46.0 -52.2 Q-44.7 -50.9 -42.95 -50.9 -41.05 -50.9 -39.75 -52.2 -38.5 -53.5 -38.5 -55.35 -38.5 -56.8 -39.15 -57.75 M55.75 -38.25 Q56.55 -41.1 55.0 -43.65 53.4 -46.15 50.45 -46.8 47.6 -47.5 45.1 -45.95 42.55 -44.35 41.9 -41.5 41.2 -38.6 42.8 -36.15 44.45 -33.6 47.25 -32.85 50.1 -32.2 52.7 -33.8 55.2 -35.4 55.75 -38.25 M-54.45 19.8 L-47.65 19.2 Q-46.25 21.6 -45.0 27.2 -43.85 32.8 -42.75 41.95 -41.55 51.1 -41.5 53.95 -41.25 56.15 -41.5 58.35 -41.75 60.6 -43.5 61.3 L-48.6 62.3 Q-47.35 61.25 -47.45 55.5 -47.55 50.0 -48.95 40.05 -51.25 24.05 -54.45 19.8" fill="#52cd00" fill-rule="evenodd" stroke="none"/>
  </g>
</svg>
