<?xml version="1.0" encoding="UTF-8" standalone="no"?>
<svg xmlns:xlink="http://www.w3.org/1999/xlink" height="147.05px" width="150.5px" xmlns="http://www.w3.org/2000/svg">
  <g transform="matrix(1.0, 0.0, 0.0, 1.0, 97.5, 73.5)">
    <path d="M-50.05 -64.9 Q-30.95 -63.2 -7.25 -68.65 13.45 -73.45 30.15 -72.25 L34.65 -71.8 Q42.95 -67.1 45.3 -53.15 L45.35 -50.6 Q47.85 -46.85 49.45 -43.1 L51.2 -37.8 51.55 -36.15 52.0 -32.3 Q52.15 -30.2 49.7 -28.0 -22.55 -21.15 -59.0 -19.85 L-59.1 -19.45 -62.2 -11.7 -59.15 8.0 Q-58.05 17.8 -55.6 29.2 L-45.2 69.45 Q-54.6 73.8 -67.3 72.05 L-67.95 71.95 Q-73.5 71.15 -77.05 69.15 -81.95 66.4 -83.05 61.4 -81.45 46.05 -88.45 24.3 -91.65 14.45 -91.25 10.8 L-93.6 5.55 Q-95.65 -8.1 -94.05 -21.35 -95.95 -22.05 -96.2 -22.95 L-96.5 -27.0 Q-96.55 -30.55 -95.8 -34.0 -95.05 -37.5 -93.55 -40.9 L-93.55 -40.95 Q-94.05 -52.15 -87.5 -62.9 -85.7 -64.15 -82.6 -64.9 -73.7 -67.25 -54.1 -65.35 L-50.05 -64.9 Q-17.05 -59.55 8.05 -51.9 30.45 -48.6 43.6 -51.5 M8.05 -51.9 Q23.8 -47.05 36.45 -41.35 L46.95 -36.2 M-59.1 -19.45 L-59.05 -19.85 Q-73.2 -19.4 -81.95 -19.75 L-88.85 -20.25 Q-92.25 -20.7 -94.05 -21.35 M-59.0 -19.85 L-59.05 -19.85 M-93.55 -40.9 Q-83.6 -34.65 -58.25 -33.4 -50.85 -33.05 -42.05 -33.1 M-91.25 10.8 L-78.45 31.15 M-62.2 -11.7 Q-67.35 1.95 -66.75 8.7" fill="none" stroke="#000000" stroke-linecap="round" stroke-linejoin="round" stroke-width="2.0"/>
  </g>
</svg>
