<?xml version="1.0" encoding="UTF-8" standalone="no"?>
<svg xmlns:xlink="http://www.w3.org/1999/xlink" height="10.4px" width="32.4px" xmlns="http://www.w3.org/2000/svg">
  <g transform="matrix(1.0, 0.0, 0.0, 1.0, 80.6, 65.3)">
    <path d="M-76.45 -54.9 Q-78.15 -54.9 -79.35 -55.8 -80.6 -56.7 -80.6 -57.95 -80.6 -59.2 -79.35 -60.1 -78.15 -61.0 -76.45 -61.0 -74.75 -61.0 -73.55 -60.1 -72.35 -59.2 -72.35 -57.95 -72.35 -56.7 -73.55 -55.8 -74.75 -54.9 -76.45 -54.9 M-56.45 -57.95 Q-56.45 -59.2 -55.25 -60.1 -54.05 -61.0 -52.35 -61.0 -50.65 -61.0 -49.45 -60.1 -48.2 -59.2 -48.2 -57.95 -48.2 -56.7 -49.45 -55.8 -50.65 -54.9 -52.35 -54.9 -54.05 -54.9 -55.25 -55.8 -56.45 -56.7 -56.45 -57.95" fill="#fe6e6e" fill-rule="evenodd" stroke="none"/>
    <path d="M-64.4 -57.25 Q-68.9 -57.75 -68.6 -63.8 L-60.15 -63.8 Q-59.9 -57.75 -64.4 -57.25" fill="#ffb1ba" fill-rule="evenodd" stroke="none"/>
    <path d="M-75.65 -61.45 L-75.65 -64.3 M-53.15 -61.45 L-53.15 -64.3" fill="none" stroke="#000000" stroke-linecap="round" stroke-linejoin="round" stroke-width="2.0"/>
  </g>
</svg>
