<?xml version="1.0" encoding="UTF-8" standalone="no"?>
<svg xmlns:xlink="http://www.w3.org/1999/xlink" height="42.35px" width="40.15px" xmlns="http://www.w3.org/2000/svg">
  <g transform="matrix(1.0, 0.0, 0.0, 1.0, 20.1, 21.2)">
    <path d="M-19.65 0.5 Q-18.05 -1.15 -15.95 -2.0 L-19.95 -5.55 -14.35 -5.55 -17.35 -11.85 -10.1 -11.65 Q-10.85 -14.2 -9.45 -18.2 -6.6 -17.0 -4.1 -14.0 -2.8 -17.25 -0.45 -21.2 L2.15 -17.75 4.2 -14.2 Q6.75 -17.15 9.65 -18.75 10.2 -17.45 10.25 -16.05 10.3 -14.65 9.8 -13.15 L17.15 -13.35 Q17.3 -9.7 14.3 -5.2 L18.8 -3.6 15.05 -1.3 18.15 1.25 20.05 3.15 Q15.75 6.35 12.5 7.4 14.3 11.25 13.4 16.0 10.55 16.0 7.95 14.1 L5.55 18.75 3.75 13.95 2.5 14.9 Q0.2 16.55 -2.45 21.15 L-2.8 20.65 -3.85 18.45 -4.3 16.45 -4.3 16.4 -7.35 17.65 -9.2 17.65 -7.25 13.35 -15.95 15.05 -14.25 9.0 -13.35 6.85 Q-19.1 3.9 -20.1 0.9 L-19.65 0.5 M-3.75 1.65 L-5.6 1.65 -4.75 4.0 -4.3 4.8 -3.5 5.4 Q-2.6 5.95 -1.7 5.8 L-1.3 5.7 Q-0.65 5.45 -0.35 4.9 0.1 4.15 -0.25 3.3 -0.55 2.4 -1.45 1.85 L-3.3 1.5 -3.75 1.65 M-0.7 -3.75 L-0.8 -3.8 -1.5 -3.9 Q-2.5 -3.9 -3.25 -3.2 L-3.8 -2.35 -3.95 -1.45 -3.7 -0.35 -3.25 0.25 Q-2.5 1.0 -1.5 1.0 -0.5 1.0 0.2 0.25 0.95 -0.45 0.95 -1.45 0.95 -2.45 0.2 -3.2 L-0.7 -3.75 M2.35 -0.05 Q1.6 0.0 1.0 0.6 0.3 1.3 0.3 2.25 0.3 3.2 1.0 3.9 1.65 4.55 2.45 4.6 L2.65 4.6 Q3.4 4.6 4.05 4.15 L4.3 3.9 Q5.0 3.2 5.0 2.25 5.0 1.3 4.3 0.6 L3.35 0.0 3.05 -0.05 2.65 -0.1 2.35 -0.05" fill="#ffcc99" fill-rule="evenodd" stroke="none"/>
  </g>
</svg>
