<?xml version="1.0" encoding="UTF-8" standalone="no"?>
<svg xmlns:xlink="http://www.w3.org/1999/xlink" height="133.4px" width="124.3px" xmlns="http://www.w3.org/2000/svg">
  <g transform="matrix(1.0, 0.0, 0.0, 1.0, 62.15, 66.7)">
    <path d="M53.65 -21.75 Q52.75 -33.4 50.25 -43.0 49.8 -45.05 48.55 -43.65 43.8 -39.45 37.55 -31.95 46.55 -27.4 53.65 -21.75 M52.1 -63.75 Q50.15 -64.4 44.9 -56.85 L30.05 -35.35 34.05 -33.6 Q41.9 -44.0 49.7 -52.65 51.45 -54.6 52.45 -51.35 56.35 -39.55 57.55 -18.4 L61.25 -14.75 61.95 -14.0 Q62.45 -13.35 61.6 -11.0 L60.95 -11.5 Q41.75 -27.3 20.55 -32.5 -0.75 -35.5 -17.2 -29.1 -31.2 -23.7 -39.75 -13.65 -45.75 -6.7 -49.3 0.75 L-49.5 1.2 -50.8 7.25 -51.2 19.4 -43.05 18.5 Q-41.05 26.25 -40.55 33.9 -35.8 56.2 -38.45 64.5 L-38.65 65.05 Q-47.1 67.55 -53.7 66.25 -52.4 65.7 -51.35 64.05 L-50.95 63.0 Q-49.55 57.65 -49.8 50.15 -50.95 41.8 -53.6 34.6 L-54.05 33.4 -56.9 20.85 -56.9 20.0 -57.05 19.95 -57.1 19.95 -59.15 33.95 -61.2 34.1 -61.9 29.65 Q-62.5 18.75 -61.6 7.8 -61.0 0.0 -59.45 -6.3 -60.0 -36.25 -48.45 -65.7 -46.85 -67.7 -44.6 -65.7 L-42.85 -64.5 Q-44.85 -65.8 -45.45 -63.45 -53.05 -41.85 -52.1 -10.4 -49.0 -14.4 -45.6 -17.35 -45.55 -35.55 -42.2 -53.75 -42.0 -56.2 -40.25 -55.1 -29.25 -47.15 -17.95 -34.7 L-12.4 -37.5 -11.0 -38.0 Q6.75 -41.95 24.0 -37.7 L24.6 -37.5 24.75 -37.7 Q32.95 -48.75 43.45 -60.25 46.35 -63.25 48.95 -64.05 50.7 -64.6 52.1 -63.75 M-38.25 -22.65 Q-31.45 -27.35 -23.15 -31.95 -29.55 -39.9 -35.7 -44.4 -37.35 -45.4 -37.5 -43.65 -38.75 -31.85 -38.25 -22.65" fill="#363a4a" fill-rule="evenodd" stroke="none"/>
  </g>
</svg>
