<?xml version="1.0" encoding="UTF-8" standalone="no"?>
<svg xmlns:xlink="http://www.w3.org/1999/xlink" height="131.45px" width="125.45px" xmlns="http://www.w3.org/2000/svg">
  <g transform="matrix(1.0, 0.0, 0.0, 1.0, 62.75, 65.7)">
    <path d="M62.7 -15.5 L59.0 -19.15 Q57.8 -40.3 53.9 -52.1 52.9 -55.35 51.15 -53.4 43.35 -44.75 35.5 -34.35 L31.5 -36.1 46.35 -57.6 Q51.6 -65.15 53.55 -64.5 L54.4 -63.75 Q55.35 -62.7 56.1 -60.8 61.85 -39.7 62.7 -15.5 M55.1 -22.5 Q48.0 -28.15 39.0 -32.7 45.25 -40.2 50.0 -44.4 51.25 -45.8 51.7 -43.75 54.2 -34.15 55.1 -22.5 M-16.5 -35.45 Q-27.8 -47.9 -38.8 -55.85 -40.55 -56.95 -40.75 -54.5 -44.1 -36.3 -44.15 -18.1 -47.55 -15.15 -50.65 -11.15 -51.6 -42.6 -44.0 -64.2 -43.4 -66.55 -41.4 -65.25 L-41.35 -65.25 Q-29.05 -56.95 -10.95 -38.25 L-16.5 -35.45 M-55.6 19.4 L-52.6 32.65 -52.15 33.85 Q-49.5 41.05 -48.35 49.4 -48.1 56.9 -49.5 62.25 L-49.9 63.3 Q-50.95 64.95 -52.25 65.5 -53.9 66.15 -55.75 65.0 -57.5 64.05 -58.85 61.2 -59.8 59.15 -60.5 56.1 -62.3 49.65 -62.45 36.6 -63.1 28.75 -62.3 20.15 L-61.8 20.2 -59.75 33.35 -57.7 33.2 -55.8 20.3 -55.6 19.4 M-21.7 -32.7 Q-30.0 -28.1 -36.8 -23.4 -37.3 -32.6 -36.05 -44.4 -35.9 -46.15 -34.25 -45.15 -28.1 -40.65 -21.7 -32.7" fill="#4facff" fill-rule="evenodd" stroke="none"/>
  </g>
</svg>
