<?xml version="1.0" encoding="UTF-8" standalone="no"?>
<svg xmlns:xlink="http://www.w3.org/1999/xlink" height="72.8px" width="175.85px" xmlns="http://www.w3.org/2000/svg">
  <g transform="matrix(1.0, 0.0, 0.0, 1.0, 87.95, 36.4)">
    <path d="M84.9 -25.75 Q84.9 -17.0 60.0 -3.2 35.15 10.6 -0.05 21.3 -35.25 31.95 -60.1 33.25 -84.95 34.55 -84.95 25.75 -84.95 17.0 -60.1 3.2 -35.25 -10.5 -0.05 -21.15 35.15 -31.85 60.0 -33.25 84.9 -34.55 84.9 -25.75 Z" fill="none" stroke="#f5ff35" stroke-linecap="round" stroke-linejoin="round" stroke-opacity="0.4392157" stroke-width="6.0"/>
    <path d="M84.9 -25.75 Q84.9 -17.0 60.0 -3.2 35.15 10.6 -0.05 21.3 -35.25 31.95 -60.1 33.25 -84.95 34.55 -84.95 25.75 -84.95 17.0 -60.1 3.2 -35.25 -10.5 -0.05 -21.15 35.15 -31.85 60.0 -33.25 84.9 -34.55 84.9 -25.75 Z" fill="none" stroke="#f5ff35" stroke-linecap="round" stroke-linejoin="round" stroke-width="2.0"/>
  </g>
</svg>
