<?xml version="1.0" encoding="UTF-8" standalone="no"?>
<svg xmlns:xlink="http://www.w3.org/1999/xlink" height="77.5px" width="124.8px" xmlns="http://www.w3.org/2000/svg">
  <g transform="matrix(1.0, 0.0, 0.0, 1.0, 0.9, 0.9)">
    <path d="M90.45 53.05 L91.15 52.65 Q92.2 51.95 93.9 51.2 L95.35 50.6 98.25 49.6 Q96.95 48.55 95.35 48.35 L93.9 48.3 92.85 48.45 93.9 47.95 95.35 47.15 102.4 42.85 102.85 42.55 103.2 42.3 110.05 36.6 Q116.75 29.95 119.25 28.45 M102.4 42.85 L103.15 42.55 104.2 42.3 Q105.4 42.1 106.75 42.3 L107.35 42.4 108.05 42.55 110.5 42.55 111.85 42.3 112.9 41.95 112.7 42.3 112.6 42.55 Q109.65 48.55 106.55 48.95 109.4 50.05 111.15 52.9 112.2 54.6 111.95 56.4 L109.55 55.7 103.65 54.95 Q105.8 56.75 106.95 58.95 L106.95 59.05 Q107.8 60.65 108.05 62.5 L108.15 63.2 107.05 63.95 105.3 62.5 104.05 61.65 102.85 62.5 102.75 62.55 102.55 62.7 M97.75 58.3 L99.2 58.95 Q101.8 60.15 104.05 61.65 M106.55 48.95 L105.2 49.05 M102.85 55.0 L103.65 54.95 M107.45 64.3 L107.05 63.95 M102.75 62.55 L99.2 58.95 M45.05 0.0 Q44.25 4.5 43.05 8.65 38.6 24.35 29.05 34.65 32.1 31.75 34.3 30.25 37.15 27.95 38.7 25.2 41.3 33.5 34.55 38.2 L39.2 37.0 Q42.0 36.35 44.65 34.1 43.6 43.55 38.7 43.95 40.55 43.9 41.85 44.45 43.0 44.85 43.75 45.7 L43.95 45.45 M44.95 47.9 L44.85 47.1 43.95 45.95 43.9 45.9 43.85 45.85 43.75 45.7 M43.95 45.95 L45.9 43.6 46.7 41.9 M38.7 43.95 L38.0 43.95 36.5 44.05 M32.75 39.55 L34.0 38.55 34.15 38.45 34.55 38.2 M26.45 53.55 Q22.9 52.9 18.05 54.25 L18.1 54.15 Q21.2 43.95 29.05 34.65" fill="none" stroke="#000000" stroke-linecap="round" stroke-linejoin="round" stroke-opacity="0.49803922" stroke-width="1.2000000000000002"/>
    <path d="M108.15 63.2 L109.15 62.5 112.65 58.95 115.55 54.7 Q118.35 50.0 120.15 42.55 L120.25 42.3 121.2 37.3 Q123.05 26.15 123.0 22.35 121.0 22.9 113.45 26.5 106.0 30.15 90.75 33.75 82.7 35.7 77.7 38.65 73.6 41.05 70.95 45.15 76.4 46.35 81.9 48.9 L90.45 53.05 93.9 55.35 95.35 56.4 97.75 58.3 98.55 58.95 100.2 60.35 102.35 62.5 102.55 62.7 104.15 64.95 105.8 67.25 107.45 64.3 108.2 64.95 108.15 63.2 M45.05 0.0 L46.65 8.65 Q48.85 21.95 48.45 32.0 48.25 38.1 46.7 41.9 50.9 41.7 52.3 39.55 52.6 40.9 51.65 43.6 50.75 46.25 44.95 47.9 L45.35 48.95 Q43.55 48.1 41.95 48.1 L40.0 48.35 Q32.6 49.75 26.45 53.55 28.85 54.05 29.45 54.7 22.5 57.05 18.5 61.95 9.55 72.2 0.55 75.7 -0.8 70.95 1.15 61.0 3.0 50.95 10.5 40.55 17.95 30.15 29.0 20.1 35.25 14.35 39.6 8.65 42.85 4.3 45.05 0.0" fill="none" stroke="#000000" stroke-linecap="round" stroke-linejoin="round" stroke-width="1.8"/>
  </g>
</svg>
