<?xml version="1.0" encoding="UTF-8" standalone="no"?>
<svg xmlns:xlink="http://www.w3.org/1999/xlink" height="19.85px" width="26.4px" xmlns="http://www.w3.org/2000/svg">
  <g transform="matrix(1.0, 0.0, 0.0, 1.0, 13.2, 9.95)">
    <path d="M-5.7 -9.75 L-5.3 -9.8 Q-1.8 -10.3 1.65 -8.95 6.9 -7.3 9.45 -1.7 10.65 0.95 10.8 4.1 13.4 6.15 13.2 7.6 12.35 8.4 9.3 8.45 6.75 9.7 4.95 9.75 -0.3 10.45 -4.9 7.9 -9.6 5.6 -11.45 0.95 L-12.1 -2.55 -12.1 -3.25 Q-12.15 -5.25 -12.65 -6.6 -14.1 -9.7 -11.7 -9.3 L-11.05 -9.15 -7.7 -9.25 -6.15 -9.7 -5.7 -9.75" fill="#faef5b" fill-rule="evenodd" stroke="none"/>
  </g>
</svg>
