<?xml version="1.0" encoding="UTF-8" standalone="no"?>
<svg xmlns:xlink="http://www.w3.org/1999/xlink" height="39.5px" width="40.0px" xmlns="http://www.w3.org/2000/svg">
  <g transform="matrix(1.0, 0.0, 0.0, 1.0, 20.0, 19.75)">
    <path d="M-9.0 -11.9 L-8.9 -12.15 Q-7.25 -16.25 -6.85 -18.95 -2.6 -14.85 1.0 -8.45 2.05 -4.55 0.45 -1.05 L0.3 -0.7 0.7 -0.75 Q4.2 -1.25 7.65 0.1 12.9 1.75 15.45 7.35 16.65 10.0 16.8 13.15 19.4 15.2 19.2 16.65 18.35 17.45 15.3 17.5 12.75 18.75 10.95 18.8 5.7 19.5 1.1 16.95 -3.6 14.65 -5.45 10.0 L-6.1 6.5 Q-14.35 4.95 -16.9 -6.9 -17.7 -12.2 -19.2 -15.35 -14.15 -14.3 -9.0 -11.9 L-4.5 -9.5 Q-0.8 -6.1 -0.25 -1.45 L-0.15 -0.65 0.3 -0.7 M-6.1 6.5 L-6.1 5.8 Q-6.15 3.8 -6.65 2.45 -8.1 -0.65 -5.7 -0.25 L-5.05 -0.1 -1.7 -0.2 -0.15 -0.65" fill="none" stroke="#000000" stroke-linecap="round" stroke-linejoin="round" stroke-width="1.6"/>
  </g>
</svg>
