<?xml version="1.0" encoding="UTF-8" standalone="no"?>
<svg xmlns:xlink="http://www.w3.org/1999/xlink" height="84.05px" width="53.35px" xmlns="http://www.w3.org/2000/svg">
  <g transform="matrix(1.0, 0.0, 0.0, 1.0, 0.5, 42.05)">
    <path d="M36.35 -34.6 L35.4 -34.2 Q34.95 -37.55 32.25 -36.55 27.15 -42.2 22.05 -41.45 16.7 -40.4 17.3 -34.95 13.45 -36.85 11.35 -33.3 7.85 -35.5 4.95 -33.6 0.5 -29.55 3.8 -25.5 3.0 -23.8 2.75 -21.6 -3.3 -11.85 4.0 -10.15 2.8 -9.0 2.4 -6.7 1.6 -2.2 8.1 -1.55 9.55 -1.75 10.9 -1.55 6.55 1.85 8.85 5.2 L3.2 8.85 Q-1.15 12.9 1.6 16.9 L4.55 20.25 Q2.35 23.4 4.7 25.95 L6.15 27.3 3.95 33.05 7.7 37.95 9.75 29.5 Q12.45 30.65 15.75 30.65 19.15 30.45 20.95 28.15 L22.25 40.9 27.9 41.5 27.55 40.35 27.3 39.45 27.15 38.95 Q24.7 27.35 24.85 16.75 25.9 16.95 27.15 15.75 30.55 21.7 36.95 21.2 44.85 19.2 42.7 10.8 46.25 9.55 46.0 6.9 51.35 7.0 52.1 3.15 53.45 -3.05 48.15 -3.55 50.4 -6.6 47.35 -7.3 50.15 -10.35 48.55 -13.35 47.1 -15.0 45.25 -15.5 47.25 -19.15 43.45 -20.25 49.05 -27.25 44.45 -32.6 40.65 -36.3 36.35 -34.6 M19.75 2.2 L19.95 3.25 Q15.8 5.35 15.65 8.9 L7.2 17.4 5.35 14.35 Q3.95 12.5 8.1 9.85 L19.75 2.2 M18.9 13.55 Q19.65 14.0 20.55 14.3 L18.9 24.0 Q18.1 29.05 12.6 26.95 6.1 24.7 6.9 22.4 13.75 25.65 15.15 22.6 L18.9 13.55" fill="none" stroke="#000000" stroke-linecap="round" stroke-linejoin="round" stroke-width="1.0"/>
    <path d="M43.05 -24.35 Q42.75 -29.75 39.55 -30.65 39.6 -33.65 36.35 -34.6 M11.35 -33.3 L13.6 -31.5 Q15.1 -32.65 17.9 -32.6 21.25 -32.5 23.25 -34.15 26.85 -36.95 30.5 -32.45 31.45 -30.25 36.8 -29.3 40.8 -29.15 39.15 -23.25 L41.5 -21.6 Q43.55 -19.2 40.45 -15.1 43.1 -16.1 45.25 -15.5 M26.55 -29.85 Q25.05 -28.85 24.25 -27.35 23.45 -25.8 23.3 -23.75 L24.05 -23.45 Q27.35 -28.25 30.7 -26.7 32.95 -26.05 33.15 -22.75 36.65 -24.2 39.15 -23.25 M5.9 -22.6 L8.8 -21.15 Q9.3 -23.7 11.8 -25.75 L13.4 -28.25 12.1 -28.85 Q8.2 -30.35 6.2 -28.65 4.65 -27.35 3.8 -25.5 M13.6 -31.5 Q12.4 -30.55 12.1 -28.85 M13.4 -28.25 Q16.05 -31.55 18.7 -28.1 22.15 -29.8 24.25 -27.35 M8.8 -21.15 L8.7 -20.25 Q4.65 -14.35 10.25 -13.95 14.4 -14.15 15.8 -11.3 L21.8 -11.7 21.55 -11.85 16.75 -13.95 Q14.95 -15.0 14.05 -16.25 13.55 -16.95 13.45 -17.8 11.4 -19.55 9.45 -17.5 M21.55 -11.85 Q21.45 -13.05 21.8 -14.15 16.45 -16.15 15.5 -19.4 14.6 -17.9 14.05 -16.25 M19.9 -19.85 Q21.95 -21.3 24.05 -20.45 23.7 -23.25 21.05 -24.35 L19.65 -24.5 Q17.05 -22.1 15.5 -19.4 M13.45 -17.8 Q13.2 -18.85 13.55 -20.05 15.0 -24.75 19.65 -24.5 M10.25 -5.7 L13.4 -8.25 Q8.5 -8.0 7.7 -9.8 7.25 -10.7 7.4 -11.45 5.25 -11.4 4.0 -10.15 M14.35 -11.0 L15.8 -11.3 M10.25 -13.95 Q7.65 -13.05 7.4 -11.45 M29.9 -21.05 L27.75 -20.55 Q28.35 -19.55 28.5 -18.25 29.8 -11.5 24.2 -11.0 L27.35 -8.25 Q31.8 -10.05 33.05 -13.75 34.45 -15.45 33.6 -18.55 L33.05 -20.05 33.15 -22.75 M36.8 -19.65 L33.6 -18.55 M13.4 -8.25 Q15.2 -8.75 22.2 -4.8 22.7 -5.9 23.6 -6.7 L27.3 -6.8 Q27.7 -9.2 30.9 -9.15 33.0 -9.05 34.25 -10.15 36.5 -11.85 38.75 -9.15 37.75 -11.45 39.55 -13.95 L40.45 -15.1 M24.05 -23.45 Q25.4 -22.9 26.35 -22.15 L27.75 -20.55 M21.05 -24.35 L23.3 -23.75 M21.8 -14.15 Q22.3 -15.9 23.85 -17.25 24.25 -19.1 24.05 -20.45 M23.85 -17.25 L24.95 -18.1 Q27.2 -19.75 26.35 -22.15 M27.3 -6.8 L28.15 -6.45 Q29.8 -8.5 31.45 -6.35 33.6 -7.4 34.9 -5.85 35.4 -6.85 36.35 -7.45 M21.8 -11.7 L24.2 -11.0 M10.9 -1.55 Q13.4 -1.3 15.35 0.2 L16.05 0.6 Q18.05 1.65 20.1 0.55 20.5 -0.7 21.45 -2.3 21.6 -3.7 22.2 -4.8 M23.45 -2.9 L25.25 -2.0 Q25.55 -3.6 27.1 -4.85 L28.15 -6.45 M19.95 3.25 Q20.45 4.45 22.25 4.85 23.05 4.05 24.4 4.05 24.55 3.05 26.15 2.5 22.65 2.25 25.2 -1.45 L25.25 -2.0 M34.9 -5.85 Q34.4 -4.9 34.3 -3.6 L34.8 -3.45 Q36.85 -6.45 38.9 -5.45 40.3 -5.05 40.45 -3.0 42.6 -3.9 44.2 -3.3 45.25 -7.0 42.7 -7.05 39.8 -7.6 39.0 -8.7 L38.75 -9.1 38.75 -9.15 M39.0 -8.7 L38.8 -9.05 38.75 -9.1 M34.3 -3.6 L32.9 -4.0 Q34.55 -3.3 34.8 -1.6 L34.65 0.45 35.35 -0.1 Q36.75 -1.15 36.2 -2.6 L34.8 -3.45 M25.65 0.25 Q26.9 -1.0 28.15 0.1 28.0 -0.55 28.2 -1.3 29.1 -4.25 32.05 -4.1 L32.9 -4.0 M32.15 -1.2 Q33.45 -2.1 34.8 -1.6 M36.2 -2.6 Q37.4 -1.65 37.55 -0.2 38.35 4.05 34.85 4.35 L36.8 6.05 Q39.6 4.9 40.4 2.65 41.45 1.3 40.4 -1.3 L40.45 -3.0 M32.05 -4.1 Q30.4 -2.6 29.45 -0.9 30.05 1.1 33.35 2.35 33.7 1.25 34.65 0.45 M27.3 39.45 L27.45 39.95 27.55 40.35 M44.2 -3.3 Q45.0 -3.0 45.65 -2.3 47.1 -0.6 44.4 2.5 43.2 4.2 43.45 6.2 43.0 10.1 35.85 8.4 32.95 13.5 29.35 11.3 27.5 9.9 24.8 10.25 20.75 9.8 21.25 7.0 21.5 5.6 22.25 4.85 M43.05 -10.0 Q45.75 -10.85 46.4 -7.45 L47.35 -7.3 M26.15 2.5 Q28.75 2.35 29.65 4.15 L33.2 3.85 33.2 3.8 30.2 2.5 Q29.05 1.85 28.55 1.05 28.2 0.6 28.15 0.1 M34.85 4.35 L33.35 3.9 33.2 3.85 32.65 5.7 M33.2 3.8 Q33.15 3.05 33.35 2.35 M33.2 3.8 L33.35 3.9 M24.4 4.05 Q24.3 4.5 24.55 5.05 25.05 6.2 28.15 6.05 29.25 5.75 31.55 7.3 33.35 8.35 34.7 8.1 36.0 7.75 36.8 6.05 M35.85 8.4 L34.7 8.1 M28.7 4.35 L29.65 4.15 M28.15 6.05 L26.15 7.65 M20.55 14.3 L22.6 14.75 Q23.6 16.6 24.85 16.75 M27.15 15.75 Q31.4 17.25 32.05 13.75 33.85 16.05 35.0 13.75 M20.1 0.55 Q19.75 1.45 19.75 2.2 M15.65 8.9 L15.75 10.25 16.5 11.45 Q17.45 12.75 18.9 13.55 M6.9 22.4 L8.75 19.7 Q12.35 14.5 16.5 11.45 14.5 18.35 12.0 20.55 10.25 22.05 8.75 19.7 M7.2 17.4 L5.1 19.5 4.55 20.25 M16.05 0.6 L8.85 5.2 M6.15 27.3 Q7.8 28.65 9.75 29.5 M20.95 28.15 L21.85 26.55 Q23.4 20.65 22.6 14.75 M29.45 -0.9 Q28.85 0.05 28.55 1.05 M48.15 -3.55 Q50.15 -0.4 46.2 2.75" fill="none" stroke="#000000" stroke-linecap="round" stroke-linejoin="round" stroke-opacity="0.49803922" stroke-width="0.1"/>
  </g>
</svg>
