<?xml version="1.0" encoding="UTF-8" standalone="no"?>
<svg xmlns:xlink="http://www.w3.org/1999/xlink" height="26.9px" width="100.0px" xmlns="http://www.w3.org/2000/svg">
  <g transform="matrix(1.0, 0.0, 0.0, 1.0, 42.2, -54.6)">
    <path d="M47.85 57.9 L47.9 57.9 Q52.45 58.8 55.3 63.0 57.3 66.2 57.7 69.1 L57.75 71.25 Q57.4 74.6 53.2 76.5 53.05 80.4 51.7 80.8 50.3 81.15 49.55 78.35 48.75 81.0 46.65 80.9 45.0 80.5 44.75 78.25 42.85 80.95 41.25 79.95 39.7 78.95 39.2 76.15 34.9 75.3 34.35 70.9 34.3 69.95 34.4 69.1 34.85 64.2 38.8 60.85 39.7 60.05 40.55 59.45 43.85 57.3 47.85 57.9 M50.85 73.15 Q52.8 72.7 54.85 69.5 L55.05 69.1 Q56.0 66.8 54.8 65.2 53.2 64.6 51.8 66.45 50.8 63.95 49.45 64.05 48.0 63.95 47.9 66.45 47.9 67.85 48.4 69.1 49.05 71.2 50.85 73.15 M42.35 72.9 Q43.75 71.75 44.9 69.1 L45.45 67.45 Q46.35 63.5 44.6 63.35 42.9 63.3 41.8 66.3 40.15 63.75 38.85 64.75 37.65 65.75 38.05 68.1 L38.35 69.1 Q39.45 71.15 42.35 72.9 M-22.35 60.8 Q-20.6 61.65 -19.2 62.95 -15.35 66.75 -15.2 70.35 -15.2 73.6 -19.65 76.1 -19.3 79.75 -20.8 80.4 -22.35 81.05 -23.55 78.4 -23.75 79.35 -24.1 79.85 -24.95 81.15 -26.6 81.4 -28.6 81.3 -29.1 79.15 -30.8 82.0 -32.85 81.4 -34.8 80.65 -35.75 78.1 -40.8 78.0 -42.0 74.0 -42.3 72.2 -42.1 70.45 -41.55 66.9 -38.35 63.75 -34.35 59.55 -28.4 59.45 -25.1 59.5 -22.35 60.8 M-32.6 74.45 Q-30.75 72.8 -29.75 68.85 -29.3 64.95 -31.25 65.1 -33.25 65.3 -34.1 68.35 -36.4 66.25 -37.65 67.4 -38.95 68.55 -38.15 70.75 -36.9 73.1 -32.6 74.45 M-22.8 73.3 Q-20.6 72.6 -18.75 69.2 -17.65 66.45 -19.45 65.15 -21.4 64.8 -22.65 66.9 -24.15 64.6 -25.7 65.0 -27.35 65.1 -27.15 67.5 -26.6 70.85 -22.8 73.3" fill="#ffffff" fill-rule="evenodd" stroke="none"/>
    <path d="M19.1 55.7 L24.5 57.15 24.8 61.25 19.45 59.85 19.1 55.7 M27.8 64.8 Q30.4 65.95 32.75 67.45 L32.15 70.85 27.6 68.8 27.8 64.8 M19.55 62.2 L24.95 63.7 24.9 67.95 19.6 66.55 19.55 62.2 M31.65 73.2 L26.65 74.8 27.4 70.85 31.95 72.1 31.65 73.2 M33.45 61.6 L33.05 65.25 Q30.75 63.6 27.8 62.35 L27.55 58.4 Q30.55 59.7 33.45 61.6 M12.3 54.6 L15.5 55.0 15.7 59.25 12.45 58.9 7.55 59.95 7.4 55.8 12.3 54.6 M12.15 61.15 L15.85 61.55 16.05 66.05 12.1 65.8 7.65 66.6 7.55 62.05 12.15 61.15 M-3.1 64.85 Q0.05 63.9 3.3 63.05 L3.65 67.45 -2.75 69.0 -3.1 64.85 M-3.35 59.05 L3.15 57.0 3.2 60.9 -3.2 62.85 -3.35 59.05 M13.2 76.7 L8.0 76.85 7.75 69.4 12.3 68.8 16.1 69.05 16.05 76.55 13.2 76.7 M4.7 76.85 L-1.6 76.55 -2.55 71.15 3.9 69.95 4.7 76.85 M24.1 75.3 L18.9 76.2 19.5 69.35 24.75 70.25 24.1 75.3 M-12.65 67.95 L-6.9 65.95 -6.4 69.9 -11.9 71.45 -12.65 67.95 M-12.95 62.75 Q-10.2 61.5 -7.15 60.45 L-7.05 64.05 -12.8 66.3 -12.95 62.75 M-10.6 75.3 L-11.35 73.2 -6.1 71.95 -5.3 76.3 -10.6 75.3" fill="url(#gradient0)" fill-rule="evenodd" stroke="none"/>
  </g>
  <defs>
    <linearGradient gradientTransform="matrix(0.0, -0.0123, 0.0283, 0.0, 10.25, 65.2)" gradientUnits="userSpaceOnUse" id="gradient0" spreadMethod="pad" x1="-819.2" x2="819.2">
      <stop offset="0.0" stop-color="#7cd2ff"/>
      <stop offset="1.0" stop-color="#7cd2ff" stop-opacity="0.0"/>
    </linearGradient>
  </defs>
</svg>
