<?xml version="1.0" encoding="UTF-8" standalone="no"?>
<svg xmlns:xlink="http://www.w3.org/1999/xlink" height="38.15px" width="29.45px" xmlns="http://www.w3.org/2000/svg">
  <g transform="matrix(1.0, 0.0, 0.0, 1.0, 14.75, 19.1)">
    <path d="M13.8 2.05 L14.7 2.45 9.9 7.65 9.6 8.05 Q6.3 11.75 0.35 11.7 4.9 14.0 6.0 18.1 -3.75 20.35 -9.2 17.15 L-11.3 15.65 -13.6 17.1 -13.3 14.5 Q-11.95 3.0 -14.75 -5.95 -12.2 -16.0 -3.6 -19.1 -3.05 -14.5 -5.45 -10.3 -2.4 -14.25 4.2 -14.5 8.3 -14.2 11.3 -15.35 10.55 -13.0 10.55 -9.8 10.55 -3.05 6.25 1.2 10.75 0.95 13.8 2.05" fill="#ffffff" fill-rule="evenodd" stroke="none"/>
  </g>
</svg>
