<?xml version="1.0" encoding="UTF-8" standalone="no"?>
<svg xmlns:xlink="http://www.w3.org/1999/xlink" height="41.05px" width="60.05px" xmlns="http://www.w3.org/2000/svg">
  <g transform="matrix(1.0, 0.0, 0.0, 1.0, 30.0, 20.5)">
    <path d="M3.45 -13.6 L4.3 -12.3 4.9 -10.95 5.55 -8.3 5.55 -7.5 5.4 -6.0 Q10.6 -8.25 16.25 -6.15 21.9 -4.1 23.75 3.1 L23.8 1.05 24.3 -1.2 Q25.25 -4.35 27.65 -7.2 L28.6 -9.0 Q29.95 -12.25 28.75 -15.75 25.95 -21.15 14.7 -19.3 7.05 -16.85 3.45 -13.6 L-1.0 -13.4 -5.65 -13.6 Q-3.2 -10.95 -2.8 -7.5 L-2.75 -5.75 -2.9 -4.45 -1.5 -5.05 -0.8 -5.2 0.5 -5.4 2.0 -5.45 3.5 -5.35 5.15 -5.05 5.4 -6.0 M0.5 -5.4 L0.9 3.0 1.5 15.3 Q1.7 20.55 5.6 18.55 7.65 16.7 9.5 15.85 11.35 15.05 12.95 15.2 L14.7 15.7 17.6 16.2 Q20.9 16.3 19.95 13.0 L18.25 7.3 15.9 6.7 Q12.9 5.75 10.45 4.0 L9.3 3.1 Q7.45 1.55 6.0 -0.55 4.55 -2.7 3.5 -5.35 M23.75 3.1 Q23.25 7.05 19.25 7.45 L18.25 7.3 M-5.65 -13.6 Q-13.4 -17.9 -19.45 -19.0 -26.25 -19.45 -28.45 -15.75 -29.0 -14.55 -29.15 -13.15 -29.45 -11.0 -28.75 -8.35 L-27.6 -4.8 -27.25 -4.05 Q-27.0 -4.45 -27.3 1.5 L-27.35 2.5 -27.05 4.7 Q-25.35 -0.3 -14.75 -5.75 -8.5 -7.95 -2.75 -5.75 M-2.9 -4.45 L-2.95 -3.95 M-1.5 -5.05 L-5.95 -0.5 -11.5 4.4 -15.85 7.35 Q-19.95 10.8 -21.0 14.3 -21.2 16.15 -18.6 16.05 L-14.75 15.3 -12.75 15.45 Q-11.55 15.6 -10.55 16.05 -9.05 16.65 -8.05 17.8 L-6.55 19.2 -2.55 19.1 Q0.4 13.65 0.9 3.0 M-15.85 7.35 Q-19.0 9.05 -23.3 8.25 -26.25 7.65 -27.05 4.7" fill="none" stroke="#000000" stroke-linecap="round" stroke-linejoin="round" stroke-width="1.5"/>
  </g>
</svg>
