<?xml version="1.0" encoding="UTF-8" standalone="no"?>
<svg xmlns:xlink="http://www.w3.org/1999/xlink" height="63.15px" width="245.9px" xmlns="http://www.w3.org/2000/svg">
  <g transform="matrix(1.0, 0.0, 0.0, 1.0, 122.95, 31.55)">
    <path d="M95.8 -25.25 L99.2 -26.75 100.0 -27.1 101.75 -23.85 Q104.0 -22.6 106.05 -20.6 109.85 -17.3 113.05 -11.95 L113.1 -11.8 113.25 -11.7 116.3 -6.1 Q121.45 4.7 122.95 20.45 L122.55 19.8 120.7 15.95 120.55 15.9 Q114.6 -3.05 103.1 -18.3 103.9 -4.9 103.5 7.2 L103.05 14.5 102.35 22.0 102.0 24.45 99.95 28.15 98.6 23.25 Q100.55 4.3 98.75 -11.05 90.25 9.35 76.05 10.85 L74.55 10.6 72.65 10.55 71.9 5.7 72.85 6.0 Q78.85 4.35 84.55 0.05 L89.05 -3.75 90.0 -4.7 90.55 -5.25 Q95.6 -10.75 98.8 -17.7 L98.85 -18.0 99.05 -18.35 99.25 -19.0 Q99.4 -21.85 94.95 -24.85 L95.8 -25.25 M-84.95 -23.8 L-81.25 -21.25 -80.55 -20.9 Q-84.3 -18.9 -84.7 -16.45 L-84.75 -16.15 -84.75 -15.75 Q-77.55 -4.7 -62.2 1.7 -55.75 4.5 -49.0 5.7 L-44.15 6.4 -39.75 7.05 Q-38.2 7.85 -36.4 8.45 L-36.75 9.75 Q-36.9 9.75 -36.95 9.9 -37.8 10.45 -40.9 10.75 L-46.85 11.2 -49.15 11.65 Q-71.5 11.7 -84.1 -7.8 -87.35 7.8 -84.85 26.5 L-85.9 28.85 -86.2 29.6 -86.25 29.9 -87.05 31.6 -90.1 28.1 -90.65 25.65 Q-93.45 7.5 -90.7 -14.6 -109.15 1.95 -119.0 21.55 L-119.2 21.7 -122.95 26.5 Q-121.3 17.1 -117.7 9.4 -115.2 3.8 -111.7 -0.95 -101.5 -14.65 -88.45 -20.35 L-88.4 -20.35 -88.4 -20.4 -85.65 -23.8 -84.95 -23.8" fill="#073129" fill-rule="evenodd" stroke="none"/>
    <path d="M99.2 -26.75 L95.8 -25.25 94.05 -31.55 96.35 -29.8 Q98.55 -28.05 99.2 -26.75 M-81.25 -21.25 L-84.95 -23.8 Q-83.1 -25.6 -78.65 -27.75 L-77.7 -28.3 -77.55 -28.35 -77.6 -28.05 Q-78.9 -23.45 -81.25 -21.25" fill="#ffffff" fill-rule="evenodd" stroke="none"/>
    <path d="M90.0 -4.7 L89.05 -3.75 89.0 -3.75 90.0 -4.7 M-86.2 29.6 L-85.9 28.85 -85.9 28.9 -86.2 29.6" fill="#3b105b" fill-rule="evenodd" stroke="none"/>
    <path d="M105.55 -9.6 L105.65 -9.75 105.45 -7.75 105.55 -9.6" fill="#641c9a" fill-rule="evenodd" stroke="none"/>
    <path d="M113.3 8.25 L113.45 8.55 113.35 8.55 113.3 8.25 M107.8 12.0 L107.8 10.85 107.95 11.85 107.8 12.0" fill="#47146d" fill-rule="evenodd" stroke="none"/>
    <path d="M107.8 12.0 L107.8 12.05 107.5 12.35 107.8 12.0 M117.8 13.2 L118.0 13.25 118.0 13.3 117.8 13.2" fill="url(#gradient0)" fill-rule="evenodd" stroke="none"/>
    <path d="M-57.2 13.45 L-58.4 13.7 -57.3 13.45 -57.2 13.45" fill="url(#gradient1)" fill-rule="evenodd" stroke="none"/>
  </g>
  <defs>
    <linearGradient gradientTransform="matrix(-2.0E-4, 0.0193, -0.0193, 8.0E-4, 102.2, 10.5)" gradientUnits="userSpaceOnUse" id="gradient0" spreadMethod="pad" x1="-819.2" x2="819.2">
      <stop offset="0.0" stop-color="#641c9a"/>
      <stop offset="1.0" stop-color="#b274e2"/>
    </linearGradient>
    <linearGradient gradientTransform="matrix(-2.0E-4, 0.015, -0.0346, 0.0015, -85.55, 10.05)" gradientUnits="userSpaceOnUse" id="gradient1" spreadMethod="pad" x1="-819.2" x2="819.2">
      <stop offset="0.0" stop-color="#641c9a"/>
      <stop offset="1.0" stop-color="#b274e2"/>
    </linearGradient>
  </defs>
</svg>
