<?xml version="1.0" encoding="UTF-8" standalone="no"?>
<svg xmlns:xlink="http://www.w3.org/1999/xlink" height="110.0px" width="171.55px" xmlns="http://www.w3.org/2000/svg">
  <g transform="matrix(1.0, 0.0, 0.0, 1.0, 85.8, 55.0)">
    <path d="M-62.25 54.2 Q-63.75 54.05 -64.05 53.45 -64.25 52.9 -67.45 52.55 -70.05 53.4 -71.4 51.8 -68.05 45.1 -69.0 38.75 -69.95 32.35 -66.75 21.7 L-67.45 23.5 -68.1 25.0 Q-69.75 29.0 -71.05 33.1 L-72.85 39.1 Q-74.8 44.95 -77.3 51.65 -79.3 50.15 -79.9 48.75 -80.9 46.65 -85.05 48.25 -80.4 40.6 -79.75 38.9 L-77.3 30.35 Q-75.55 23.55 -68.45 15.3 L-71.65 18.75 Q-73.55 21.0 -76.1 21.4 L-76.15 21.4 Q-76.8 21.75 -77.35 21.15 -81.6 15.7 -79.15 8.35 -78.5 6.65 -77.1 5.2 -67.7 -4.05 -59.3 -8.15 L-60.8 -10.45 -61.15 -12.3 -61.1 -15.75 -60.85 -15.75 -61.3 -16.0 Q-64.4 -17.25 -68.2 -17.45 -62.1 -27.55 -52.25 -31.85 -53.35 -32.65 -54.4 -32.5 -53.75 -40.25 -42.95 -44.55 L-40.5 -41.5 Q-34.25 -40.25 -30.9 -44.0 -30.45 -44.15 -30.55 -47.0 L-28.45 -48.6 -28.05 -48.85 Q-24.45 -50.95 -17.7 -52.15 L-16.65 -47.65 Q-9.4 -45.05 -5.35 -49.1 L-5.85 -53.15 Q-1.3 -55.2 6.45 -52.3 L7.2 -49.45 16.7 -49.5 Q16.85 -51.8 17.5 -54.25 23.7 -51.3 31.2 -52.1 34.3 -51.3 31.05 -46.7 L42.3 -45.35 42.95 -47.7 Q52.05 -44.85 54.35 -35.0 56.45 -31.3 60.55 -32.6 63.35 -24.85 59.65 -20.6 L63.55 -18.1 63.35 -17.9 64.05 -17.4 63.85 -18.05 Q63.75 -18.4 64.05 -18.3 L66.2 -16.9 Q79.25 -7.9 82.0 8.5 L82.1 9.45 Q82.85 13.9 79.25 11.75 78.1 11.0 77.65 9.5 L77.4 8.3 77.75 11.5 Q78.1 15.15 77.4 15.9 L76.25 15.75 77.55 19.6 78.1 21.05 78.25 21.5 Q81.4 30.65 84.9 39.1 85.2 39.85 84.35 39.9 L82.4 39.7 Q80.2 39.0 78.95 36.75 L78.9 36.7 78.8 36.55 78.75 36.4 79.6 40.75 Q79.95 42.6 75.25 42.3 L70.8 45.3 Q70.35 42.6 70.5 35.95 70.75 25.85 69.9 19.2 L68.85 11.8 Q68.2 8.15 68.05 4.65 M59.65 -20.6 L57.45 -22.25 56.9 -22.7 51.85 -25.85 Q48.0 -28.3 43.75 -30.1 L42.3 -30.7 37.85 -32.45 Q33.0 -34.3 27.75 -35.45 L23.9 -36.3 M31.05 -46.7 L27.75 -35.45 M7.2 -49.45 L6.95 -38.1 12.65 -37.75 13.4 -37.7 14.8 -37.55 17.95 -37.25 Q16.05 -43.35 16.7 -49.5 M6.95 -38.1 L2.0 -38.1 1.9 -38.1 0.5 -38.05 -0.8 -37.95 -5.6 -37.7 -10.4 -37.1 M22.9 -36.45 L17.95 -37.25 M51.85 -25.85 L54.35 -35.0 M-11.2 -37.05 L-13.2 -36.6 -15.7 -36.15 -18.35 -35.45 -22.95 -34.15 -24.5 -33.65 -24.75 -33.6 -27.3 -32.6 -27.75 -32.35 -30.95 -30.95 -31.85 -30.5 -36.3 -28.0 Q-39.15 -26.15 -41.85 -23.9 L-44.75 -21.4 -46.8 -19.4 -49.75 -16.0 -50.85 -14.65 -52.65 -12.15 -54.15 -9.65 -54.2 -9.4 -55.2 -7.75 -55.15 -7.7 -55.05 -6.4 -54.85 -5.25 -53.55 -3.9 Q-46.9 -13.85 -37.5 -20.3 L-29.75 -24.85 -29.2 -25.2 Q-15.6 -31.8 2.45 -32.6 39.0 -34.3 61.4 -16.25 L61.6 -15.95 62.25 -16.75 62.4 -16.9 63.2 -17.95 63.35 -17.9 M64.05 -17.4 L69.0 -9.7 72.0 -4.85 72.5 -3.7 75.45 3.35 77.1 6.55 77.3 7.85 77.4 8.3 M68.05 4.0 L68.0 3.05 Q65.25 -1.9 63.5 -6.0 60.25 -13.1 61.4 -16.25 M42.3 -45.35 Q40.75 -34.95 37.85 -32.45 M68.0 3.05 L69.05 4.9 69.3 5.35 69.7 6.05 72.65 11.1 73.75 12.75 73.95 13.1 74.3 13.6 76.25 15.75 M78.75 36.4 L78.4 34.95 75.75 21.05 75.75 20.75 75.65 20.5 75.65 20.4 75.6 20.2 75.6 20.1 75.5 19.9 75.5 19.85 75.45 19.6 75.4 19.25 75.1 17.75 74.65 15.3 74.3 13.6 M-54.2 -9.4 L-55.55 -7.9 -55.2 -7.75 M-55.15 -7.7 L-55.2 -7.7 -55.7 -7.75 -56.7 -7.7 -57.35 -7.2 Q-59.6 -5.2 -60.6 -1.75 L-61.15 -0.25 -62.4 4.25 -63.1 7.45 -63.45 9.45 -63.4 10.3 -63.45 10.75 -63.65 12.4 -63.6 15.1 -63.3 18.25 Q-63.0 21.2 -61.9 24.35 L-61.75 24.55 -61.75 24.65 Q-59.3 30.9 -53.85 27.45 -53.35 27.15 -53.65 26.65 L-53.85 26.45 Q-56.65 23.8 -57.6 21.05 L-58.75 17.0 -59.2 11.25 Q-59.45 6.85 -56.65 -0.45 M-59.3 -8.15 L-58.65 -8.5 -55.55 -7.9 M-54.85 -5.25 L-55.15 -4.2 M-52.25 -31.85 Q-48.95 -29.65 -46.8 -19.4 M-15.7 -36.15 L-16.65 -47.65 M-5.35 -49.1 Q-4.35 -39.85 -5.6 -37.7 M-40.5 -41.5 Q-35.15 -33.25 -36.3 -28.0 M-27.75 -32.35 Q-28.6 -33.45 -30.9 -44.0 M-53.55 -3.9 Q-51.25 -0.7 -51.7 5.05 L-52.5 16.2 -53.05 23.3 Q-53.35 25.5 -53.85 26.45 M-61.15 -0.25 L-70.05 7.55 -70.1 7.55 Q-71.9 9.0 -72.9 10.45 -73.3 11.25 -73.05 12.1 M-63.6 15.1 L-66.75 21.7 M-63.45 9.45 Q-65.8 12.45 -68.45 15.3 M-60.85 54.25 Q-61.3 45.8 -61.95 39.5 -62.8 32.45 -61.9 25.5 L-61.9 24.95 -61.75 24.65" fill="none" stroke="#000000" stroke-linecap="round" stroke-linejoin="round" stroke-width="1.5"/>
  </g>
</svg>
