<?xml version="1.0" encoding="UTF-8" standalone="no"?>
<svg xmlns:xlink="http://www.w3.org/1999/xlink" height="60.05px" width="144.35px" xmlns="http://www.w3.org/2000/svg">
  <g transform="matrix(1.0, 0.0, 0.0, 1.0, 72.2, 30.05)">
    <path d="M71.0 -20.2 Q71.85 -0.25 67.35 22.5 65.7 28.8 64.2 29.0 62.35 28.8 59.55 25.35 49.7 12.4 32.75 2.15 L28.35 -1.0 Q30.15 -3.8 32.15 -5.75 46.25 -19.15 62.55 -25.75 L65.35 -26.85 69.5 -27.2 Q70.8 -25.65 71.0 -20.2 M59.65 -15.3 Q49.25 -10.7 41.15 -0.7 L46.3 3.15 Q54.9 9.3 61.45 17.45 L62.2 18.45 Q66.45 -4.9 64.75 -17.35 L61.2 -16.0 59.65 -15.3 M-63.3 -18.7 Q-47.5 -14.5 -31.7 -2.6 -40.4 2.05 -47.2 8.1 -51.9 12.3 -55.75 17.25 -62.85 -5.3 -63.2 -17.8 L-63.3 -18.7 M-70.05 -28.85 L-65.3 -28.5 Q-44.3 -21.9 -25.35 -7.4 -22.7 -5.45 -20.45 -2.65 L-23.9 -0.2 -24.35 0.1 -25.1 0.5 Q-43.3 10.75 -53.25 23.7 -55.95 27.15 -58.05 27.35 -59.8 27.15 -62.4 20.85 -69.95 -1.9 -71.15 -21.85 -71.45 -27.3 -70.2 -28.85 L-70.05 -28.85" fill="none" stroke="#000000" stroke-linecap="round" stroke-linejoin="round" stroke-width="2.0"/>
  </g>
</svg>
