<?xml version="1.0" encoding="UTF-8" standalone="no"?>
<svg xmlns:xlink="http://www.w3.org/1999/xlink" height="45.7px" width="85.35px" xmlns="http://www.w3.org/2000/svg">
  <g transform="matrix(1.0, 0.0, 0.0, 1.0, 42.65, 22.85)">
    <path d="M18.6 -13.3 L17.55 -19.35 17.3 -20.15 25.65 -14.6 25.95 -13.3 26.6 -8.4 Q27.95 4.45 27.4 18.75 L25.05 20.3 Q23.05 21.35 21.0 22.35 21.5 5.4 18.6 -13.3 M1.95 -13.3 Q4.1 5.35 3.4 22.85 L-10.9 14.8 Q-9.95 3.65 -11.25 -13.3 L-11.75 -18.7 -0.7 -22.3 0.6 -22.85 1.95 -13.3 M35.25 -6.65 Q36.65 6.6 36.15 16.25 L31.8 17.0 Q31.85 5.6 30.35 -10.8 L30.3 -11.75 35.25 -6.65 M39.15 -3.45 L42.55 0.4 Q43.05 8.35 42.1 15.3 L39.6 15.95 Q40.5 7.4 39.15 -2.85 L39.15 -3.45 M-17.6 -16.7 L-17.35 -13.3 Q-16.25 2.05 -17.35 13.0 L-28.3 9.75 -28.6 -12.45 -17.6 -16.7 M-34.05 -9.95 L-33.95 9.1 -42.3 8.0 -42.65 -4.7 -34.05 -9.95" fill="#188e57" fill-rule="evenodd" stroke="none"/>
  </g>
</svg>
