<?xml version="1.0" encoding="UTF-8" standalone="no"?>
<svg xmlns:xlink="http://www.w3.org/1999/xlink" height="17.75px" width="18.3px" xmlns="http://www.w3.org/2000/svg">
  <g transform="matrix(1.0, 0.0, 0.0, 1.0, 9.15, 8.9)">
    <path d="M5.7 -7.0 L6.45 -6.35 Q7.55 -5.3 8.25 -4.0 9.0 -2.55 9.15 -0.8 L9.15 -0.05 Q9.15 2.45 7.9 4.5 L6.45 6.25 5.6 7.05 Q3.2 8.85 0.0 8.85 -3.15 8.85 -5.5 7.1 L-6.5 6.25 -6.75 6.0 Q-8.9 3.75 -9.1 0.7 L-9.15 -0.05 Q-9.15 -2.5 -7.95 -4.5 L-7.2 -5.6 -6.5 -6.35 Q-5.0 -7.75 -3.15 -8.4 L0.0 -8.9 3.15 -8.4 Q4.5 -7.9 5.7 -7.0" fill="#8ce8ff" fill-rule="evenodd" stroke="none"/>
  </g>
</svg>
