<?xml version="1.0" encoding="UTF-8" standalone="no"?>
<svg xmlns:xlink="http://www.w3.org/1999/xlink" height="69.95px" width="77.15px" xmlns="http://www.w3.org/2000/svg">
  <g transform="matrix(1.0, 0.0, 0.0, 1.0, 38.6, 35.0)">
    <path d="M14.55 -28.55 Q24.05 -29.65 31.7 -33.5 35.65 -35.35 35.0 -30.2 33.85 -24.2 27.25 -20.45 30.3 -14.5 29.25 -9.2 L29.15 -8.9 Q31.0 -2.7 30.65 3.05 39.85 11.5 36.8 19.45 33.0 24.65 23.9 19.25 19.6 23.55 12.9 26.2 L13.05 27.7 Q12.8 33.4 9.05 33.9 4.05 34.5 4.2 27.7 L-4.25 27.7 Q-4.1 34.5 -9.1 33.9 -12.85 33.4 -13.1 27.7 L-12.9 26.2 Q-19.6 23.55 -23.95 19.25 -33.05 24.65 -36.8 19.45 -39.9 11.5 -30.7 3.05 -31.05 -2.7 -29.2 -8.9 L-29.3 -9.2 Q-30.35 -14.5 -27.3 -20.45 -33.9 -24.2 -35.05 -30.2 -35.7 -35.35 -31.7 -33.5 -24.1 -29.65 -14.6 -28.55 -8.4 -33.45 0.0 -33.3 8.35 -33.45 14.55 -28.55 L0.0 -27.95 -14.6 -28.55 M-29.2 -8.9 Q-28.05 -3.7 -22.85 0.85 -19.95 2.8 -17.15 3.6 -9.45 5.75 -2.2 -0.25 L-5.6 -5.75 -6.0 -5.35 Q-9.2 -2.15 -13.7 -2.15 -18.25 -2.15 -21.45 -5.35 -24.65 -8.55 -24.65 -13.05 -24.65 -17.6 -21.45 -20.8 -18.25 -24.0 -13.7 -24.0 -9.2 -24.0 -6.0 -20.8 -2.8 -17.6 -2.8 -13.05 -2.8 -10.3 -4.0 -7.95 L0.0 -10.9 3.95 -7.95 Q2.75 -10.3 2.75 -13.05 2.75 -17.6 5.95 -20.8 9.15 -24.0 13.7 -24.0 18.2 -24.0 21.4 -20.8 24.6 -17.6 24.6 -13.05 24.6 -8.55 21.4 -5.35 18.2 -2.15 13.7 -2.15 9.15 -2.15 5.95 -5.35 L5.55 -5.75 2.15 -0.25 Q8.85 5.3 15.85 3.9 19.3 3.2 22.8 0.85 28.0 -3.7 29.15 -8.9 M3.95 -7.95 L5.55 -5.75 M30.65 3.05 Q30.2 9.95 26.6 16.15 L23.9 19.25 M15.85 3.9 Q18.6 16.3 12.9 26.2 12.15 21.45 8.6 21.25 4.55 21.2 4.2 27.7 M-2.2 -0.25 L0.0 3.3 2.15 -0.25 M-4.0 -7.95 L-5.6 -5.75 M-30.7 3.05 Q-30.25 9.95 -26.65 16.15 L-23.95 19.25 M-12.9 26.2 L-12.9 26.15 Q-20.55 14.85 -17.15 3.6 M-12.9 26.15 Q-12.15 21.45 -8.65 21.7 -4.6 21.2 -4.25 27.7" fill="none" stroke="#000000" stroke-linecap="round" stroke-linejoin="round" stroke-width="2.0"/>
  </g>
</svg>
