<?xml version="1.0" encoding="UTF-8" standalone="no"?>
<svg xmlns:xlink="http://www.w3.org/1999/xlink" height="159.85px" width="140.45px" xmlns="http://www.w3.org/2000/svg">
  <g transform="matrix(1.0, 0.0, 0.0, 1.0, 70.25, 79.95)">
    <path d="M61.65 -12.8 Q68.7 -2.25 70.2 11.9 47.25 -32.3 5.95 -22.15 -35.4 -12.05 -41.05 32.7 -37.6 35.6 -35.65 37.95 -29.95 45.0 -29.65 55.05 -29.4 65.15 -34.85 72.5 -40.35 79.85 -48.4 79.9 L-49.9 79.8 -49.75 79.55 -50.15 79.75 -51.45 79.55 Q-60.9 77.65 -66.15 67.75 -67.65 64.95 -68.35 62.8 L-70.0 57.5 -70.0 57.45 -69.85 55.7 Q-70.5 49.2 -68.75 42.65 -69.7 37.6 -70.05 32.5 -70.65 23.6 -69.35 14.65 L-59.7 29.6 -59.5 26.9 -59.3 24.7 -59.05 22.55 -58.65 20.1 -57.35 14.1 Q-64.0 2.65 -67.2 -9.85 -63.3 -4.3 -58.35 0.0 -60.35 -13.55 -58.95 -27.3 L-53.35 -26.2 Q-55.25 -29.15 -58.7 -31.2 L-57.75 -37.2 Q-55.05 -36.75 -52.4 -35.9 L-48.5 -34.4 -51.1 -37.55 Q-54.25 -41.1 -58.1 -44.4 L-57.3 -47.7 -56.65 -50.05 Q-55.4 -54.55 -53.75 -59.1 -50.75 -67.6 -46.5 -76.5 L-28.95 -27.5 Q-1.5 -44.95 31.3 -35.2 L30.9 -48.7 44.6 -39.65 Q38.2 -47.4 31.5 -53.05 31.45 -57.7 30.85 -62.85 29.8 -71.35 26.75 -79.95 35.05 -71.15 43.15 -56.15 52.55 -38.7 61.65 -12.8" fill="#242927" fill-rule="evenodd" stroke="none"/>
  </g>
</svg>
