<?xml version="1.0" encoding="UTF-8" standalone="no"?>
<svg xmlns:xlink="http://www.w3.org/1999/xlink" height="43.8px" width="122.05px" xmlns="http://www.w3.org/2000/svg">
  <g transform="matrix(1.0, 0.0, 0.0, 1.0, 61.05, 21.9)">
    <path d="M47.0 -7.4 L47.45 -7.55 48.0 -7.4 48.2 -6.9 48.0 -6.4 47.45 -6.2 Q47.2 -6.2 47.0 -6.4 L46.8 -6.9 47.0 -7.4 M46.85 11.9 L46.65 12.35 46.1 12.55 Q45.8 12.55 45.6 12.35 L45.4 11.9 45.6 11.4 Q45.8 11.2 46.1 11.2 L46.65 11.4 46.85 11.9 M-29.9 -5.9 L-29.4 -6.1 Q-29.05 -6.1 -28.85 -5.9 L-28.65 -5.4 -28.85 -4.95 Q-29.05 -4.75 -29.4 -4.75 -29.7 -4.75 -29.9 -4.95 -30.1 -5.1 -30.1 -5.4 L-29.9 -5.9 M-26.8 13.2 L-26.6 13.7 -26.8 14.2 Q-27.0 14.4 -27.35 14.4 L-27.85 14.2 -28.05 13.7 -27.85 13.2 -27.35 13.0 Q-27.0 13.0 -26.8 13.2" fill="none" stroke="#000000" stroke-linecap="round" stroke-linejoin="round" stroke-width="1.5"/>
    <path d="M45.55 15.2 Q49.8 15.6 50.05 11.7 L50.9 -6.65 Q51.0 -8.7 48.85 -9.4 22.35 -19.05 -1.05 -17.15 -13.9 -16.1 -25.85 -11.55 -33.6 -8.65 -34.2 -5.55 -36.1 4.95 -33.4 11.2 -31.15 16.55 -26.3 16.8 L-24.65 16.7 -13.45 15.15 -2.25 14.25 Q9.15 13.45 20.55 13.7 L45.25 15.15 45.55 15.2 M52.35 -11.85 Q23.5 -23.2 -7.3 -20.35 -40.0 -15.9 -58.0 2.8 -60.0 8.9 -60.05 17.35 -53.7 17.2 -48.15 18.4 L-48.0 18.45 -41.6 19.7 Q-35.75 21.05 -32.5 20.9 17.35 14.35 59.9 20.2 60.25 15.0 59.2 3.9 58.15 -7.2 52.35 -11.85" fill="none" stroke="#000000" stroke-linecap="round" stroke-linejoin="round" stroke-width="2.0"/>
  </g>
</svg>
