<?xml version="1.0" encoding="UTF-8" standalone="no"?>
<svg xmlns:xlink="http://www.w3.org/1999/xlink" height="50.5px" width="114.9px" xmlns="http://www.w3.org/2000/svg">
  <g transform="matrix(1.0, 0.0, 0.0, 1.0, 0.0, 0.0)">
    <path d="M93.4 5.15 Q100.15 -3.3 101.1 2.15 107.2 6.4 104.05 13.15 L107.05 12.55 108.7 17.8 Q112.1 18.3 112.6 30.05 L112.6 30.1 114.9 44.4 Q103.05 38.25 104.2 31.15 L88.3 26.9 Q84.75 26.0 83.0 22.7 79.95 16.4 81.1 15.35 83.7 13.7 85.05 10.3 L86.65 14.5 Q86.65 7.65 93.6 2.9 L93.4 5.15 M28.0 8.45 Q35.1 12.8 40.45 18.75 44.4 20.6 46.9 24.0 39.0 26.1 32.5 29.15 24.8 32.7 19.0 37.55 L13.4 42.15 10.6 44.3 10.5 44.4 6.0 47.55 0.8 50.5 Q-0.55 48.65 0.35 46.65 L1.5 46.65 Q-0.15 39.45 1.85 34.6 L1.85 34.55 Q0.55 30.65 3.3 27.5 2.3 25.4 3.35 22.85 3.95 24.45 5.1 26.1 5.3 17.75 7.55 11.6 8.05 8.5 11.15 7.8 11.45 4.95 14.2 1.85 19.05 3.6 23.4 5.85 L28.0 8.45" fill="#ebceff" fill-rule="evenodd" stroke="none"/>
  </g>
</svg>
