<?xml version="1.0" encoding="UTF-8" standalone="no"?>
<svg xmlns:xlink="http://www.w3.org/1999/xlink" height="30.95px" width="44.7px" xmlns="http://www.w3.org/2000/svg">
  <g transform="matrix(1.0, 0.0, 0.0, 1.0, 22.35, 15.45)">
    <path d="M5.6 1.1 Q-1.75 -2.45 -6.55 -7.05 0.95 -7.15 7.5 -3.0 14.0 1.1 15.5 5.25 L15.7 5.55 15.95 6.1 16.05 6.3 16.2 6.55 Q15.2 7.95 14.8 9.2 L14.65 9.85 M14.8 9.2 Q12.5 8.8 11.3 5.9 M10.05 -7.85 Q2.85 -11.85 -21.45 -14.55 -13.95 -2.85 -6.35 1.35 1.2 5.55 3.35 6.9 5.5 8.25 8.65 11.0 11.75 13.75 15.65 14.45 L19.45 14.35 Q21.3 13.8 21.45 11.9" fill="none" stroke="#54453c" stroke-linecap="round" stroke-linejoin="round" stroke-width="1.8"/>
  </g>
</svg>
