<?xml version="1.0" encoding="UTF-8" standalone="no"?>
<svg xmlns:xlink="http://www.w3.org/1999/xlink" height="92.9px" width="202.0px" xmlns="http://www.w3.org/2000/svg">
  <g transform="matrix(1.0, 0.0, 0.0, 1.0, 1.0, 46.45)">
    <path d="M55.65 -28.95 Q61.15 -32.25 64.85 -27.6 67.05 -24.15 62.9 -20.7 70.55 -18.0 60.55 -17.4 L41.9 -16.2 Q46.1 -11.1 37.55 -11.3 28.45 -11.8 31.85 -14.85 L14.0 -14.85 Q10.1 -14.45 11.6 -17.55 13.15 -19.15 16.35 -18.35 20.0 -23.9 25.15 -21.5 27.1 -31.9 36.35 -35.05 43.45 -37.25 49.9 -32.35 54.6 -33.65 55.65 -28.95 48.95 -20.9 42.25 -20.95 39.15 -22.1 38.35 -25.45 37.05 -31.45 42.45 -29.95 47.7 -29.25 44.25 -25.65 M10.55 -24.25 Q12.4 -23.65 12.4 -22.8 12.4 -21.95 10.55 -21.35 8.75 -20.7 6.2 -20.7 L1.8 -21.35 Q0.0 -21.95 0.0 -22.8 0.0 -23.65 1.8 -24.25 L6.2 -24.85 10.55 -24.25 M68.6 1.4 Q65.65 -0.65 65.25 -4.4 65.15 -6.9 65.9 -9.35 67.45 -14.35 72.55 -19.35 71.05 -23.1 75.65 -24.65 82.05 -44.65 96.9 -40.0 108.8 -50.25 118.1 -41.15 130.4 -49.5 140.55 -38.8 148.7 -39.9 148.0 -34.5 168.15 -32.35 166.65 -12.85 169.65 -11.2 171.85 -9.35 180.6 -1.9 175.1 7.95 179.35 11.6 175.9 14.45 185.15 23.6 177.45 34.5 179.75 33.2 185.9 34.35 192.1 36.2 186.5 37.45 169.85 38.85 162.9 40.95 161.65 45.6 147.0 45.45 132.3 45.05 132.3 41.95 L90.4 40.75 Q83.6 40.9 83.15 37.45 L56.4 38.6 55.45 38.65 Q46.3 39.1 46.2 37.6 46.45 33.9 54.45 33.9 50.35 26.6 52.2 20.15 53.05 16.95 55.45 13.95 58.0 10.65 62.3 7.6 61.95 0.95 68.6 1.4 71.05 3.1 75.3 3.65 82.0 4.6 85.5 -0.85 86.45 -3.95 82.15 -4.6 74.95 -5.8 73.9 -3.65 72.9 -0.3 77.05 0.1 M152.3 -22.3 Q158.55 -23.65 157.6 -19.55 156.95 -17.8 160.75 -16.0 163.65 -13.4 163.55 -9.35 163.55 -7.95 163.15 -6.4 162.35 -4.45 161.1 -3.3 L161.7 -1.65 Q166.5 0.1 167.5 5.95 168.5 11.75 163.95 10.45 163.95 26.3 144.05 28.95 115.05 31.05 108.85 11.85 104.7 13.55 103.2 9.3 101.55 2.6 107.35 -4.1 104.3 -4.6 103.4 -8.15 M107.35 -4.1 Q109.5 -3.75 112.8 -5.0 119.1 -0.55 123.4 -5.0 127.15 -1.25 130.9 -5.0 135.6 3.1 142.85 -2.25 147.5 1.2 152.7 -2.25 158.2 -0.65 161.1 -3.3 M148.0 -34.5 Q146.35 -29.75 139.35 -27.2 132.8 -25.55 130.9 -30.55 129.4 -35.8 135.0 -35.45 141.55 -35.4 140.1 -32.1 138.15 -27.85 136.2 -32.1 M188.7 -19.5 Q190.8 -21.15 192.6 -20.5 196.35 -20.1 193.95 -15.65 196.15 -18.0 198.3 -15.65 201.95 -12.45 197.7 -12.45 L180.4 -12.45 Q173.4 -12.05 175.3 -16.4 177.3 -22.3 182.95 -22.5 187.15 -22.65 188.7 -19.5 L186.7 -17.55 Q183.05 -12.95 182.55 -18.55 M132.05 4.8 L133.05 9.55 M143.4 4.7 L144.35 9.4 M133.45 12.5 Q137.3 15.7 140.55 13.25 144.25 15.65 145.2 12.7 M163.95 10.45 Q163.9 5.15 161.7 -1.65 M107.35 -4.1 Q106.7 5.15 108.85 11.85" fill="none" stroke="#000000" stroke-linecap="round" stroke-linejoin="round" stroke-width="2.0"/>
  </g>
</svg>
