<?xml version="1.0" encoding="UTF-8" standalone="no"?>
<svg xmlns:xlink="http://www.w3.org/1999/xlink" height="163.35px" width="157.75px" xmlns="http://www.w3.org/2000/svg">
  <g transform="matrix(1.0, 0.0, 0.0, 1.0, 78.9, 81.65)">
    <path d="M36.1 -39.95 L36.1 -38.95 Q45.5 -34.2 53.3 -25.6 L53.55 -27.85 53.55 -28.35 Q54.1 -37.45 50.9 -48.2 44.35 -60.5 36.45 -71.6 L29.5 -80.65 32.2 -71.6 Q36.65 -54.85 36.15 -40.35 L36.1 -39.95 M29.5 -80.65 Q25.9 -76.25 22.95 -71.6 14.95 -59.1 11.0 -44.65 L12.95 -44.75 Q20.6 -44.45 27.5 -42.4 31.95 -41.05 36.1 -38.95 M53.3 -25.6 L54.55 -24.15 Q65.5 -9.65 68.25 7.4 L68.35 6.4 68.45 5.25 Q68.95 -2.55 66.45 -12.05 63.75 -20.0 60.65 -27.6 56.2 -38.35 50.9 -48.2 M68.45 5.25 L68.65 6.1 75.65 -2.15 Q79.15 9.8 77.1 22.75 L75.8 27.6 Q73.0 37.05 68.75 43.95 L71.25 59.15 59.6 62.35 Q52.9 71.3 41.6 76.25 25.5 82.55 5.9 79.95 -14.05 76.15 -24.5 67.7 -29.5 69.7 -38.05 70.5 -39.7 66.35 -39.4 57.2 L-47.6 58.3 -46.3 53.0 -50.55 55.1 Q-76.1 34.75 -77.9 16.15 L-54.95 22.85 -60.7 12.5 Q-71.15 -8.15 -71.6 -25.75 L-52.9 -5.7 Q-64.05 -20.5 -72.0 -33.1 -73.9 -55.6 -69.7 -71.6 L-69.2 -73.25 -69.1 -73.85 -18.0 -39.8 Q-4.95 -43.65 11.0 -44.65 M68.35 6.4 L68.65 6.1 M59.6 62.35 Q62.35 58.6 64.3 54.2 L64.65 53.45 Q66.1 49.95 67.2 46.3 69.4 38.9 69.85 30.8 70.5 20.85 68.6 9.8 L68.25 7.4 M68.75 43.95 L67.2 46.3 M75.65 -2.15 L72.15 26.3 69.85 30.8 M59.0 55.1 Q58.5 50.15 60.1 46.75 62.5 46.05 64.0 46.75 62.15 56.35 59.0 55.1 M64.65 53.45 L71.25 59.15 M-69.2 -73.25 L-68.2 -71.6 Q-55.1 -51.6 -35.0 -30.05 L-36.2 -27.0 -22.25 -14.95 -18.0 -39.8 M-31.9 34.3 Q-32.4 37.05 -29.25 38.9 -27.45 39.0 -27.6 36.45 -28.95 34.4 -31.9 34.3 M-22.25 -14.95 L-28.75 11.0 -36.4 17.55 -47.6 25.0 -40.6 26.9 -28.8 45.25 -35.05 55.05 -27.35 57.2 -24.5 67.7 M-36.8 24.5 L-27.9 17.25 -29.7 25.55 -36.8 24.5 M-52.9 -5.7 L-42.4 7.85 -41.55 8.9 -42.7 13.6 -36.4 17.55 M-46.3 53.0 L-45.7 50.45 -28.8 45.25 Q-35.9 40.1 -42.95 37.3 L-42.95 41.2 -47.1 39.45 Q-62.0 32.6 -77.9 16.15 M-47.6 25.0 L-54.95 22.85 M-35.05 55.05 L-39.25 53.85 -39.35 55.45 -39.4 57.2 M-27.35 57.2 L-38.05 70.5" fill="none" stroke="#000000" stroke-linecap="round" stroke-linejoin="round" stroke-width="2.0"/>
  </g>
</svg>
