<?xml version="1.0" encoding="UTF-8" standalone="no"?>
<svg xmlns:xlink="http://www.w3.org/1999/xlink" height="117.7px" width="169.85px" xmlns="http://www.w3.org/2000/svg">
  <g transform="matrix(1.0, 0.0, 0.0, 1.0, 84.9, 58.85)">
    <path d="M79.2 39.7 Q75.4 53.95 50.1 57.1 24.85 60.2 -7.15 50.35 -39.1 40.5 -59.0 23.45 -78.9 6.45 -75.05 -7.8 -74.35 -10.4 -72.95 -12.65 L-83.9 -25.85 -80.55 -28.85 -70.15 -16.05 Q-67.8 -18.3 -64.55 -20.0 L-82.35 -50.7 -77.75 -52.7 -60.1 -21.95 Q-54.2 -24.15 -45.95 -25.15 -35.25 -26.5 -23.25 -25.45 L-26.1 -57.85 -21.35 -57.85 -18.45 -25.0 -10.0 -23.7 -10.4 -36.0 -5.85 -36.0 -5.4 -22.8 Q2.7 -21.1 11.3 -18.45 29.6 -12.8 43.95 -4.8 L49.0 -13.55 52.95 -11.55 47.8 -2.55 Q54.55 1.55 60.35 6.2 L77.8 -23.05 82.15 -20.1 64.5 9.65 69.1 14.1 79.8 1.15 83.95 4.35 72.2 17.55 Q81.95 29.35 79.2 39.7 M62.0 22.65 L64.7 26.0 68.05 22.2 Q73.85 30.15 72.0 37.1 68.85 48.7 46.2 50.55 23.55 52.45 -5.45 43.55 -34.4 34.6 -52.7 20.1 -70.95 5.6 -67.85 -5.95 L-67.7 -6.35 -65.25 -3.4 -62.25 -6.4 -65.6 -10.5 Q-63.95 -12.65 -61.25 -14.35 L-54.1 -2.0 -50.35 -5.0 -56.95 -16.45 Q-51.05 -18.7 -42.1 -19.45 -32.9 -20.2 -22.7 -19.2 L-21.95 -10.15 -17.15 -10.15 -17.9 -18.65 -9.75 -17.3 -9.6 -12.35 -5.05 -12.35 -5.2 -16.3 Q1.95 -14.75 9.55 -12.4 27.2 -6.95 40.9 0.5 L40.05 1.95 43.85 4.35 44.75 2.75 Q51.25 6.6 56.8 11.0 L57.25 11.4 52.6 19.6 56.55 23.05 61.4 14.9 65.25 18.8 62.0 22.65 61.7 23.05" fill="none" stroke="#000000" stroke-linecap="round" stroke-linejoin="round" stroke-width="2.0"/>
  </g>
</svg>
