<?xml version="1.0" encoding="UTF-8" standalone="no"?>
<svg xmlns:xlink="http://www.w3.org/1999/xlink" height="21.85px" width="21.3px" xmlns="http://www.w3.org/2000/svg">
  <g transform="matrix(1.0, 0.0, 0.0, 1.0, 10.65, 10.95)">
    <path d="M-2.4 -6.6 Q-3.45 -9.0 -2.4 -10.9 -0.55 -10.0 0.2 -8.25 0.8 -10.2 2.6 -10.95 4.3 -9.45 4.3 -7.9 5.55 -9.95 7.3 -10.75 8.5 -9.45 7.3 -7.6 9.0 -8.7 10.65 -8.25 10.4 -6.55 8.45 -4.5 L8.25 -4.3 8.0 -3.5 7.9 -3.0 7.55 -0.35 6.9 5.45 Q5.75 11.6 1.4 9.1 L1.3 9.0 Q0.8 8.2 0.65 6.2 -0.1 7.2 -1.7 7.6 -2.75 7.1 -2.9 6.3 -5.85 10.75 -8.8 10.9 -11.75 11.0 -10.0 7.4 L-5.7 -0.6 -2.8 -5.75 -2.45 -6.65 -2.4 -6.6" fill="#6b718e" fill-rule="evenodd" stroke="none"/>
  </g>
</svg>
