<?xml version="1.0" encoding="UTF-8" standalone="no"?>
<svg xmlns:xlink="http://www.w3.org/1999/xlink" height="50.65px" width="24.45px" xmlns="http://www.w3.org/2000/svg">
  <g transform="matrix(1.0, 0.0, 0.0, 1.0, 12.4, 24.75)">
    <path d="M-12.0 12.3 Q-9.35 13.55 -2.1 13.65 L6.95 13.25 7.0 14.8 7.15 16.45 7.15 16.6 Q0.55 15.65 -4.65 17.6 -9.8 19.55 -10.7 19.4 -11.65 16.7 -11.95 12.75 L-12.0 12.3 M8.15 22.2 Q1.1 21.05 -1.8 25.9 L-5.3 25.1 -6.25 24.7 Q-6.5 20.0 1.25 18.9 L7.55 19.2 8.05 21.6 8.15 22.2 M-12.4 3.15 Q-8.25 5.4 -0.9 5.75 6.4 6.05 7.55 4.15 L7.4 5.15 7.4 5.4 7.1 9.15 Q0.65 11.05 -12.25 8.35 L-12.3 7.05 -12.4 3.35 -12.4 3.15 M-11.05 -16.5 Q-4.05 -14.0 3.1 -13.95 10.3 -13.9 10.85 -15.0 L10.15 -11.5 9.85 -9.85 Q0.3 -7.45 -11.55 -11.65 L-11.2 -14.9 -11.05 -16.5 M-12.05 -6.95 Q-7.35 -4.5 0.6 -4.15 8.55 -3.85 9.0 -5.65 L8.1 -0.25 Q-0.3 2.9 -12.35 -1.75 L-12.35 -2.25 -12.15 -5.8 -12.05 -6.95 M11.95 -22.8 Q12.15 -22.7 11.85 -20.65 L11.8 -20.3 11.6 -19.35 Q2.35 -17.85 -10.7 -21.05 -10.65 -23.3 -9.95 -24.3 -7.0 -25.0 1.1 -24.55 9.15 -24.15 11.95 -22.8" fill="#8ee772" fill-rule="evenodd" stroke="none"/>
  </g>
</svg>
