<?xml version="1.0" encoding="UTF-8" standalone="no"?>
<svg xmlns:xlink="http://www.w3.org/1999/xlink" height="13.4px" width="16.3px" xmlns="http://www.w3.org/2000/svg">
  <g transform="matrix(1.0, 0.0, 0.0, 1.0, 8.15, 6.7)">
    <path d="M-0.1 -3.75 L-0.15 -4.1 1.9 -3.9 2.0 -3.65 Q4.5 -5.6 6.7 -6.05 L7.3 -6.2 Q8.3 -5.65 8.1 -2.9 L8.0 -1.85 Q7.6 1.55 6.1 2.1 L5.55 1.85 Q3.7 1.05 2.2 -0.25 4.6 2.0 6.25 4.3 5.1 6.0 3.05 6.45 1.35 3.3 0.9 -0.2 1.05 3.7 0.2 6.65 -1.9 6.9 -3.65 6.05 -3.2 2.75 -0.75 -0.4 -3.45 1.35 -6.05 2.05 -7.45 1.85 -8.05 0.15 -8.25 -1.45 -8.05 -3.05 L-7.75 -4.8 Q-7.3 -7.4 -4.6 -6.45 -1.6 -5.35 -0.1 -3.75" fill="#62ee95" fill-rule="evenodd" stroke="none"/>
  </g>
</svg>
