<?xml version="1.0" encoding="UTF-8" standalone="no"?>
<svg xmlns:xlink="http://www.w3.org/1999/xlink" height="26.8px" width="23.75px" xmlns="http://www.w3.org/2000/svg">
  <g transform="matrix(1.0, 0.0, 0.0, 1.0, 11.9, 18.6)">
    <path d="M11.25 -13.65 L11.6 -13.3 Q12.0 -12.75 11.75 -12.25 L11.6 -11.3 Q11.1 -8.8 10.35 -7.35 L11.1 -4.55 Q11.5 -3.05 11.35 -1.5 L11.2 -0.55 Q10.8 1.35 9.4 4.35 9.9 6.55 8.4 6.3 -0.75 4.75 -9.15 8.2 L-10.65 6.25 Q-11.4 5.25 -11.3 4.3 L-11.15 3.45 -10.8 2.35 Q-11.45 0.45 -11.1 -1.65 -11.8 -2.8 -11.6 -4.1 -11.5 -6.0 -10.4 -7.45 L-10.4 -7.5 Q-10.55 -9.1 -11.6 -11.9 -12.1 -13.35 -11.75 -14.85 L-11.7 -15.0 -11.5 -15.6 Q-10.45 -18.9 -7.6 -18.55 L0.0 -17.45 Q4.3 -16.75 9.25 -17.4 12.4 -17.1 11.25 -13.65" fill="#ffffff" fill-rule="evenodd" stroke="none"/>
  </g>
</svg>
