<?xml version="1.0" encoding="UTF-8" standalone="no"?>
<svg xmlns:xlink="http://www.w3.org/1999/xlink" height="57.5px" width="24.8px" xmlns="http://www.w3.org/2000/svg">
  <g transform="matrix(1.0, 0.0, 0.0, 1.0, 0.0, 0.0)">
    <path d="M4.1 11.25 Q2.25 6.7 4.4 3.3 4.45 5.4 6.4 7.0 7.8 3.9 6.55 0.0 10.0 1.9 9.4 7.0 9.05 10.0 12.35 12.35 13.6 7.2 18.0 3.85 16.65 10.15 19.3 12.05 22.65 10.35 20.2 5.15 24.15 7.1 24.8 10.7 25.0 22.2 21.9 32.7 18.8 43.2 21.3 51.45 25.25 58.55 10.9 57.35 3.45 56.65 1.6 50.05 -2.1 29.35 2.85 14.15 2.15 10.8 4.1 11.25" fill="#463f6b" fill-rule="evenodd" stroke="none"/>
  </g>
</svg>
