<?xml version="1.0" encoding="UTF-8" standalone="no"?>
<svg xmlns:xlink="http://www.w3.org/1999/xlink" height="79.45px" width="723.8px" xmlns="http://www.w3.org/2000/svg">
  <g transform="matrix(1.0, 0.0, 0.0, 1.0, 362.8, 227.45)">
    <path d="M190.3 -201.35 L340.0 -194.55 348.65 -176.8 196.2 -179.5 190.3 -201.35 M-339.5 -200.65 L-249.65 -203.35 -260.6 -178.8 -351.55 -176.8 -339.5 -200.65" fill="#ff3e03" fill-rule="evenodd" stroke="none"/>
    <path d="M190.3 -201.35 L186.25 -216.3 331.3 -212.3 340.0 -194.55 190.3 -201.35 M-339.5 -200.65 L-334.25 -211.0 -244.1 -214.35 -249.65 -203.35 -339.5 -200.65" fill="#f88648" fill-rule="evenodd" stroke="none"/>
    <path d="M53.9 -207.5 L190.3 -201.35 196.2 -179.5 58.5 -182.0 53.9 -207.5 M-56.7 -209.1 L-62.3 -183.3 -260.6 -178.8 -249.65 -203.35 -56.7 -209.1" fill="#ffec00" fill-rule="evenodd" stroke="none"/>
    <path d="M186.25 -216.3 L190.3 -201.35 53.9 -207.5 51.6 -220.1 186.25 -216.3 M-249.65 -203.35 L-244.1 -214.35 -54.05 -221.4 -56.7 -209.1 -249.65 -203.35" fill="#fcf15c" fill-rule="evenodd" stroke="none"/>
    <path d="M186.25 -216.3 L51.6 -220.1 53.9 -207.5 58.5 -182.0 196.2 -179.5 348.65 -176.8 340.0 -194.55 331.3 -212.3 186.25 -216.3 M336.5 -216.65 L359.9 -171.2 49.4 -177.25 40.35 -226.6 336.5 -216.65 M-244.1 -214.35 L-334.25 -211.0 -339.5 -200.65 -351.55 -176.8 -260.6 -178.8 -62.3 -183.3 -56.7 -209.1 -54.05 -221.4 -244.1 -214.35 M-43.25 -227.45 L-54.5 -175.95 -362.8 -170.3 -339.85 -217.1 -43.25 -227.45" fill="#bfcde7" fill-rule="evenodd" stroke="none"/>
    <path d="M297.65 -162.65 L297.65 -164.25 312.25 -164.25 312.25 -161.0 302.55 -161.0 302.55 -157.75 307.4 -157.75 307.4 -154.5 302.55 -154.5 302.55 -151.25 312.25 -151.25 312.25 -148.0 297.65 -148.0 297.65 -149.65 296.05 -149.65 296.05 -162.65 297.65 -162.65 M283.05 -164.25 L283.05 -157.75 286.3 -157.75 286.3 -164.25 292.8 -164.25 292.8 -156.15 291.15 -156.15 291.15 -154.5 287.9 -154.5 287.9 -148.0 281.4 -148.0 281.4 -154.5 278.15 -154.5 278.15 -156.15 276.55 -156.15 276.55 -164.25 283.05 -164.25 M325.25 -161.0 L322.0 -161.0 322.0 -157.75 325.25 -157.75 325.25 -161.0 M271.7 -162.65 L273.3 -162.65 273.3 -148.0 266.8 -148.0 266.8 -154.5 263.55 -154.5 263.55 -148.0 257.05 -148.0 257.05 -162.65 258.7 -162.65 258.7 -164.25 271.7 -164.25 271.7 -162.65 M244.05 -164.25 L244.05 -151.25 253.8 -151.25 253.8 -148.0 237.55 -148.0 237.55 -164.25 244.05 -164.25 M266.8 -161.0 L263.55 -161.0 263.55 -157.75 266.8 -157.75 266.8 -161.0 M330.15 -164.25 L330.15 -162.65 331.75 -162.65 331.75 -157.75 330.15 -157.75 330.15 -154.5 331.75 -154.5 331.75 -148.0 325.25 -148.0 325.25 -154.5 322.0 -154.5 322.0 -148.0 315.5 -148.0 315.5 -164.25 330.15 -164.25 M232.7 -162.65 L234.35 -162.65 234.35 -156.15 232.7 -156.15 232.7 -154.5 224.6 -154.5 224.6 -148.0 218.1 -148.0 218.1 -164.25 232.7 -164.25 232.7 -162.65 M227.85 -161.0 L224.6 -161.0 224.6 -157.75 227.85 -157.75 227.85 -161.0 M351.25 -151.25 L361.0 -151.25 361.0 -148.0 344.75 -148.0 344.75 -156.15 346.35 -156.15 346.35 -157.75 354.5 -157.75 354.5 -161.0 344.75 -161.0 344.75 -164.25 359.35 -164.25 359.35 -162.65 361.0 -162.65 361.0 -156.15 359.35 -156.15 359.35 -154.5 351.25 -154.5 351.25 -151.25 M-356.0 -148.35 L-362.5 -148.35 -362.5 -164.6 -347.9 -164.6 -347.9 -162.95 -346.25 -162.95 -346.25 -156.45 -347.9 -156.45 -347.9 -154.85 -356.0 -154.85 -356.0 -148.35 M-356.0 -158.1 L-352.75 -158.1 -352.75 -161.35 -356.0 -161.35 -356.0 -158.1 M-336.5 -164.6 L-336.5 -151.6 -326.75 -151.6 -326.75 -148.35 -343.0 -148.35 -343.0 -164.6 -336.5 -164.6 M-230.95 -164.6 L-230.95 -162.95 -229.35 -162.95 -229.35 -148.35 -235.85 -148.35 -235.85 -161.35 -237.45 -161.35 -237.45 -164.6 -230.95 -164.6 M-282.9 -164.6 L-268.3 -164.6 -268.3 -161.35 -278.05 -161.35 -278.05 -158.1 -273.2 -158.1 -273.2 -154.85 -278.05 -154.85 -278.05 -151.6 -268.3 -151.6 -268.3 -148.35 -282.9 -148.35 -282.9 -149.95 -284.55 -149.95 -284.55 -162.95 -282.9 -162.95 -282.9 -164.6 M-248.8 -162.95 L-248.8 -158.1 -250.45 -158.1 -250.45 -154.85 -248.8 -154.85 -248.8 -148.35 -255.3 -148.35 -255.3 -154.85 -258.55 -154.85 -258.55 -148.35 -265.05 -148.35 -265.05 -164.6 -250.45 -164.6 -250.45 -162.95 -248.8 -162.95 M-255.3 -161.35 L-258.55 -161.35 -258.55 -158.1 -255.3 -158.1 -255.3 -161.35 M-321.9 -164.6 L-308.9 -164.6 -308.9 -162.95 -307.3 -162.95 -307.3 -148.35 -313.8 -148.35 -313.8 -154.85 -317.0 -154.85 -317.0 -148.35 -323.5 -148.35 -323.5 -162.95 -321.9 -162.95 -321.9 -164.6 M-287.8 -164.6 L-287.8 -156.45 -289.4 -156.45 -289.4 -154.85 -292.65 -154.85 -292.65 -148.35 -299.15 -148.35 -299.15 -154.85 -302.4 -154.85 -302.4 -156.45 -304.05 -156.45 -304.05 -164.6 -297.55 -164.6 -297.55 -158.1 -294.3 -158.1 -294.3 -164.6 -287.8 -164.6 M-313.8 -161.35 L-317.0 -161.35 -317.0 -158.1 -313.8 -158.1 -313.8 -161.35" fill="#000000" fill-rule="evenodd" stroke="none"/>
  </g>
</svg>
