<?xml version="1.0" encoding="UTF-8" standalone="no"?>
<svg xmlns:xlink="http://www.w3.org/1999/xlink" height="61.75px" width="229.1px" xmlns="http://www.w3.org/2000/svg">
  <g transform="matrix(1.0, 0.0, 0.0, 1.0, 421.1, 224.55)">
    <path d="M-410.9 -214.1 L-410.9 -219.2 -405.95 -219.2 -405.95 -224.55 -395.85 -224.55 -395.85 -219.2 -390.35 -219.2 -390.35 -214.1 -385.0 -214.1 -385.0 -219.2 -379.75 -219.2 -379.75 -224.55 -369.85 -224.55 -369.85 -219.2 -364.85 -219.2 -364.85 -214.1 -359.75 -214.1 -359.75 -208.5 -354.55 -208.5 -354.55 -193.8 -359.75 -193.8 -359.75 -188.6 -364.85 -188.6 -364.85 -183.1 -369.85 -183.1 -369.85 -178.1 -374.95 -178.1 -374.95 -172.95 -379.75 -172.95 -379.75 -167.9 -385.0 -167.9 -385.0 -162.8 -390.35 -162.8 -390.35 -167.9 -395.85 -167.9 -395.85 -172.95 -400.7 -172.95 -400.7 -178.1 -405.95 -178.1 -405.95 -183.1 -410.9 -183.1 -410.9 -188.6 -416.25 -188.6 -416.25 -193.8 -421.1 -193.8 -421.1 -208.5 -416.25 -208.5 -416.25 -214.1 -410.9 -214.1 -410.9 -208.5 -416.25 -208.5 -416.25 -193.8 -410.9 -193.8 -410.9 -188.6 -405.95 -188.6 -405.95 -183.1 -400.7 -183.1 -400.7 -178.1 -395.85 -178.1 -395.85 -172.95 -390.35 -172.95 -390.35 -167.9 -385.0 -167.9 -385.0 -172.95 -379.75 -172.95 -379.75 -178.1 -374.95 -178.1 -374.95 -183.1 -369.85 -183.1 -369.85 -188.6 -364.85 -188.6 -364.85 -193.8 -359.75 -193.8 -359.75 -208.5 -364.85 -208.5 -364.85 -214.1 -369.85 -214.1 -369.85 -219.2 -379.75 -219.2 -379.75 -214.1 -385.0 -214.1 -385.0 -208.5 -390.35 -208.5 -390.35 -214.1 -395.85 -214.1 -395.85 -219.2 -405.95 -219.2 -405.95 -214.1 -410.9 -214.1 M-328.9 -214.1 L-328.9 -219.2 -323.95 -219.2 -323.95 -224.55 -313.9 -224.55 -313.9 -219.2 -308.4 -219.2 -308.4 -214.1 -303.1 -214.1 -303.1 -219.2 -297.75 -219.2 -297.75 -224.55 -287.85 -224.55 -287.85 -219.2 -282.9 -219.2 -282.9 -214.1 -277.8 -214.1 -277.8 -208.5 -272.6 -208.5 -272.6 -193.8 -277.8 -193.8 -277.8 -188.6 -282.9 -188.6 -282.9 -183.1 -287.85 -183.1 -287.85 -178.1 -292.95 -178.1 -292.95 -172.95 -297.75 -172.95 -297.75 -167.9 -303.1 -167.9 -303.1 -162.8 -308.4 -162.8 -308.4 -167.9 -313.9 -167.9 -313.9 -172.95 -318.7 -172.95 -318.7 -178.1 -323.95 -178.1 -323.95 -183.1 -328.9 -183.1 -328.9 -188.6 -334.3 -188.6 -334.3 -193.8 -339.25 -193.8 -339.25 -208.5 -334.3 -208.5 -334.3 -214.1 -328.9 -214.1 -328.9 -208.5 -334.3 -208.5 -334.3 -193.8 -328.9 -193.8 -328.9 -188.6 -323.95 -188.6 -323.95 -183.1 -318.7 -183.1 -318.7 -178.1 -313.9 -178.1 -313.9 -172.95 -308.4 -172.95 -308.4 -167.9 -303.1 -167.9 -303.1 -172.95 -297.75 -172.95 -297.75 -178.1 -292.95 -178.1 -292.95 -183.1 -287.85 -183.1 -287.85 -188.6 -282.9 -188.6 -282.9 -193.8 -277.8 -193.8 -277.8 -208.5 -282.9 -208.5 -282.9 -214.1 -287.85 -214.1 -287.85 -219.2 -297.75 -219.2 -297.75 -214.1 -303.1 -214.1 -303.1 -208.5 -308.4 -208.5 -308.4 -214.1 -313.9 -214.1 -313.9 -219.2 -323.95 -219.2 -323.95 -214.1 -328.9 -214.1 M-207.3 -214.1 L-207.3 -219.2 -217.15 -219.2 -217.15 -214.1 -222.5 -214.1 -222.5 -208.5 -227.8 -208.5 -227.8 -214.1 -233.35 -214.1 -233.35 -219.2 -243.4 -219.2 -243.4 -214.1 -248.4 -214.1 -248.4 -208.5 -253.65 -208.5 -253.65 -193.8 -248.4 -193.8 -248.4 -188.6 -243.4 -188.6 -243.4 -183.1 -238.1 -183.1 -238.1 -178.1 -233.35 -178.1 -233.35 -172.95 -227.8 -172.95 -227.8 -167.9 -222.5 -167.9 -222.5 -172.95 -217.15 -172.95 -217.15 -178.1 -212.4 -178.1 -212.4 -172.95 -217.15 -172.95 -217.15 -167.9 -222.5 -167.9 -222.5 -162.8 -227.8 -162.8 -227.8 -167.9 -233.35 -167.9 -233.35 -172.95 -238.1 -172.95 -238.1 -178.1 -243.4 -178.1 -243.4 -183.1 -248.4 -183.1 -248.4 -188.6 -253.65 -188.6 -253.65 -193.8 -258.6 -193.8 -258.6 -208.5 -253.65 -208.5 -253.65 -214.1 -248.4 -214.1 -248.4 -219.2 -243.4 -219.2 -243.4 -224.55 -233.35 -224.55 -233.35 -219.2 -227.8 -219.2 -227.8 -214.1 -222.5 -214.1 -222.5 -219.2 -217.15 -219.2 -217.15 -224.55 -207.3 -224.55 -207.3 -219.2 -202.35 -219.2 -202.35 -214.1 -207.3 -214.1 M-202.35 -208.5 L-202.35 -214.1 -197.15 -214.1 -197.15 -208.5 -192.0 -208.5 -192.0 -193.8 -197.15 -193.8 -197.15 -188.6 -202.35 -188.6 -202.35 -183.1 -207.3 -183.1 -207.3 -178.1 -212.4 -178.1 -212.4 -183.1 -207.3 -183.1 -207.3 -188.6 -202.35 -188.6 -202.35 -193.8 -197.15 -193.8 -197.15 -208.5 -202.35 -208.5" fill="#000000" fill-rule="evenodd" stroke="none"/>
    <path d="M-410.9 -214.1 L-405.95 -214.1 -405.95 -219.2 -395.85 -219.2 -395.85 -214.1 -390.35 -214.1 -390.35 -208.5 -385.0 -208.5 -385.0 -214.1 -379.75 -214.1 -379.75 -219.2 -369.85 -219.2 -369.85 -214.1 -364.85 -214.1 -364.85 -208.5 -359.75 -208.5 -359.75 -193.8 -364.85 -193.8 -364.85 -188.6 -369.85 -188.6 -369.85 -183.1 -374.95 -183.1 -374.95 -178.1 -379.75 -178.1 -379.75 -172.95 -385.0 -172.95 -385.0 -167.9 -390.35 -167.9 -390.35 -172.95 -395.85 -172.95 -395.85 -178.1 -400.7 -178.1 -400.7 -183.1 -405.95 -183.1 -405.95 -188.6 -410.9 -188.6 -410.9 -193.8 -416.25 -193.8 -416.25 -208.5 -410.9 -208.5 -410.9 -214.1 M-405.95 -203.8 L-410.9 -203.8 -410.9 -198.8 -405.95 -198.8 -405.95 -203.8 -400.7 -203.8 -400.7 -208.5 -405.95 -208.5 -405.95 -203.8 M-364.85 -208.5 L-369.85 -208.5 -369.85 -193.8 -364.85 -193.8 -364.85 -208.5 M-369.85 -208.5 L-369.85 -214.1 -374.95 -214.1 -374.95 -208.5 -369.85 -208.5 M-328.9 -214.1 L-323.95 -214.1 -323.95 -219.2 -313.9 -219.2 -313.9 -214.1 -308.4 -214.1 -308.4 -208.5 -303.1 -208.5 -303.1 -214.1 -297.75 -214.1 -297.75 -219.2 -287.85 -219.2 -287.85 -214.1 -282.9 -214.1 -282.9 -208.5 -277.8 -208.5 -277.8 -193.8 -282.9 -193.8 -282.9 -188.6 -287.85 -188.6 -287.85 -183.1 -292.95 -183.1 -292.95 -178.1 -297.75 -178.1 -297.75 -172.95 -303.1 -172.95 -303.1 -167.9 -308.4 -167.9 -308.4 -172.95 -313.9 -172.95 -313.9 -178.1 -318.7 -178.1 -318.7 -183.1 -323.95 -183.1 -323.95 -188.6 -328.9 -188.6 -328.9 -193.8 -334.3 -193.8 -334.3 -208.5 -328.9 -208.5 -328.9 -214.1 M-323.95 -203.8 L-328.9 -203.8 -328.9 -198.8 -323.95 -198.8 -323.95 -203.8 -318.7 -203.8 -318.7 -208.5 -323.95 -208.5 -323.95 -203.8 M-405.95 -198.8 L-405.95 -193.8 -400.7 -193.8 -400.7 -198.8 -405.95 -198.8 M-369.85 -193.8 L-374.95 -193.8 -374.95 -188.6 -379.75 -188.6 -379.75 -183.1 -385.0 -183.1 -385.0 -178.1 -379.75 -178.1 -379.75 -183.1 -374.95 -183.1 -374.95 -188.6 -369.85 -188.6 -369.85 -193.8 M-323.95 -198.8 L-323.95 -193.8 -318.7 -193.8 -318.7 -198.8 -323.95 -198.8 M-287.85 -214.1 L-292.95 -214.1 -292.95 -208.5 -287.85 -208.5 -287.85 -214.1 M-217.15 -178.1 L-217.15 -172.95 -222.5 -172.95 -222.5 -167.9 -227.8 -167.9 -227.8 -172.95 -233.35 -172.95 -233.35 -178.1 -238.1 -178.1 -238.1 -183.1 -243.4 -183.1 -243.4 -188.6 -248.4 -188.6 -248.4 -193.8 -253.65 -193.8 -253.65 -208.5 -248.4 -208.5 -248.4 -214.1 -243.4 -214.1 -243.4 -219.2 -233.35 -219.2 -233.35 -214.1 -227.8 -214.1 -227.8 -208.5 -222.5 -208.5 -222.5 -214.1 -217.15 -214.1 -217.15 -219.2 -207.3 -219.2 -207.3 -214.1 -212.4 -214.1 -212.4 -208.5 -207.3 -208.5 -207.3 -193.8 -212.4 -193.8 -212.4 -188.6 -217.15 -188.6 -217.15 -183.1 -222.5 -183.1 -222.5 -178.1 -217.15 -178.1 -217.15 -183.1 -212.4 -183.1 -212.4 -188.6 -207.3 -188.6 -207.3 -193.8 -202.35 -193.8 -202.35 -208.5 -207.3 -208.5 -207.3 -214.1 -202.35 -214.1 -202.35 -208.5 -197.15 -208.5 -197.15 -193.8 -202.35 -193.8 -202.35 -188.6 -207.3 -188.6 -207.3 -183.1 -212.4 -183.1 -212.4 -178.1 -217.15 -178.1 M-243.4 -198.8 L-243.4 -203.8 -248.4 -203.8 -248.4 -198.8 -243.4 -198.8 -243.4 -193.8 -238.1 -193.8 -238.1 -198.8 -243.4 -198.8 M-243.4 -203.8 L-238.1 -203.8 -238.1 -208.5 -243.4 -208.5 -243.4 -203.8 M-287.85 -208.5 L-287.85 -193.8 -292.95 -193.8 -292.95 -188.6 -297.75 -188.6 -297.75 -183.1 -303.1 -183.1 -303.1 -178.1 -297.75 -178.1 -297.75 -183.1 -292.95 -183.1 -292.95 -188.6 -287.85 -188.6 -287.85 -193.8 -282.9 -193.8 -282.9 -208.5 -287.85 -208.5" fill="#fe0005" fill-rule="evenodd" stroke="none"/>
    <path d="M-369.85 -208.5 L-374.95 -208.5 -374.95 -214.1 -369.85 -214.1 -369.85 -208.5 -364.85 -208.5 -364.85 -193.8 -369.85 -193.8 -369.85 -208.5 M-369.85 -193.8 L-369.85 -188.6 -374.95 -188.6 -374.95 -183.1 -379.75 -183.1 -379.75 -178.1 -385.0 -178.1 -385.0 -183.1 -379.75 -183.1 -379.75 -188.6 -374.95 -188.6 -374.95 -193.8 -369.85 -193.8 M-287.85 -214.1 L-287.85 -208.5 -292.95 -208.5 -292.95 -214.1 -287.85 -214.1 M-217.15 -178.1 L-222.5 -178.1 -222.5 -183.1 -217.15 -183.1 -217.15 -188.6 -212.4 -188.6 -212.4 -193.8 -207.3 -193.8 -207.3 -208.5 -212.4 -208.5 -212.4 -214.1 -207.3 -214.1 -207.3 -208.5 -202.35 -208.5 -202.35 -193.8 -207.3 -193.8 -207.3 -188.6 -212.4 -188.6 -212.4 -183.1 -217.15 -183.1 -217.15 -178.1 M-287.85 -208.5 L-282.9 -208.5 -282.9 -193.8 -287.85 -193.8 -287.85 -188.6 -292.95 -188.6 -292.95 -183.1 -297.75 -183.1 -297.75 -178.1 -303.1 -178.1 -303.1 -183.1 -297.75 -183.1 -297.75 -188.6 -292.95 -188.6 -292.95 -193.8 -287.85 -193.8 -287.85 -208.5" fill="#a70103" fill-rule="evenodd" stroke="none"/>
    <path d="M-405.95 -203.8 L-405.95 -198.8 -410.9 -198.8 -410.9 -203.8 -405.95 -203.8 -405.95 -208.5 -400.7 -208.5 -400.7 -203.8 -405.95 -203.8 M-323.95 -203.8 L-323.95 -198.8 -328.9 -198.8 -328.9 -203.8 -323.95 -203.8 -323.95 -208.5 -318.7 -208.5 -318.7 -203.8 -323.95 -203.8 M-405.95 -198.8 L-400.7 -198.8 -400.7 -193.8 -405.95 -193.8 -405.95 -198.8 M-323.95 -198.8 L-318.7 -198.8 -318.7 -193.8 -323.95 -193.8 -323.95 -198.8 M-243.4 -198.8 L-248.4 -198.8 -248.4 -203.8 -243.4 -203.8 -243.4 -198.8 -238.1 -198.8 -238.1 -193.8 -243.4 -193.8 -243.4 -198.8 M-243.4 -203.8 L-243.4 -208.5 -238.1 -208.5 -238.1 -203.8 -243.4 -203.8" fill="#ff9794" fill-rule="evenodd" stroke="none"/>
  </g>
</svg>
