<?xml version="1.0" encoding="UTF-8" standalone="no"?>
<svg xmlns:xlink="http://www.w3.org/1999/xlink" height="520.0px" width="202.75px" xmlns="http://www.w3.org/2000/svg">
  <g transform="matrix(1.0, 0.0, 0.0, 1.0, 100.55, 259.55)">
    <path d="M48.7 -257.55 L39.45 -205.05 51.95 -258.05 55.2 -257.8 44.7 -189.8 58.45 -259.55 44.6 -171.55 60.2 -258.55 38.7 -103.8 15.95 15.7 -4.3 127.95 Q-15.2 176.7 -25.8 218.7 L-27.55 210.2 -42.55 252.45 -59.15 260.45 -54.3 228.7 -61.05 253.45 -68.8 256.2 -42.05 148.45 -23.0 56.5 5.45 -69.05 39.2 -257.3 29.3 -187.3 41.2 -255.8 36.2 -209.55 46.2 -257.55 48.7 -257.55 M-41.55 162.7 Q-49.4 186.1 -54.8 210.7 -45.1 181.65 -41.55 162.7 M-41.55 179.45 Q-48.05 195.0 -50.55 213.2 -44.0 196.75 -41.55 179.45" fill="#000000" fill-rule="evenodd" stroke="none"/>
    <path d="M51.45 -102.3 L60.7 -115.05 Q20.5 -80.7 -20.65 -27.9 -15.95 -73.95 -25.05 -85.8 L-26.3 -74.8 -29.05 -85.3 Q-32.55 -80.45 -40.55 -74.8 L-59.05 12.45 Q-62.75 25.8 -49.3 32.7 -39.05 36.9 -30.05 25.2 L-27.05 20.95 -28.8 26.7 -19.7 14.8 Q25.95 -45.15 75.2 -98.8 L69.95 -96.8 91.45 -117.3 Q79.1 -110.85 66.7 -99.05 L67.95 -102.3 55.95 -91.8 66.95 -106.3 60.7 -102.3 72.7 -117.3 51.45 -102.3 M48.95 -112.8 L57.2 -122.3 59.45 -122.55 59.7 -126.8 64.7 -121.3 73.7 -122.8 77.2 -127.55 77.95 -122.55 102.2 -122.8 78.7 -92.8 25.95 -34.8 22.2 -24.8 Q57.0 -36.05 99.45 -30.55 L91.45 -18.3 82.95 -15.8 94.2 -12.8 Q85.15 -3.95 52.7 5.7 80.45 23.85 80.95 41.95 82.0 56.4 66.95 70.2 L72.7 70.2 Q63.35 76.7 49.95 79.95 L48.7 84.7 44.95 82.45 Q25.4 93.2 1.7 100.45 -38.55 111.45 -78.8 113.45 -92.05 114.1 -93.8 105.2 L-100.55 105.2 -95.05 101.2 Q-96.65 94.05 -82.55 88.95 0.75 63.95 29.2 41.45 4.7 30.35 -13.8 16.2 -30.85 44.75 -49.55 39.7 -70.05 33.25 -66.05 12.2 L-47.8 -78.05 -45.55 -81.8 -41.8 -81.8 -29.8 -95.05 -27.05 -93.3 -18.55 -93.3 -16.55 -84.05 -14.05 -81.3 -14.8 -79.3 -11.8 -48.8 -6.3 -55.8 -5.05 -60.05 -2.55 -59.8 42.95 -107.8 43.2 -116.05 48.95 -112.8 M44.45 -94.8 L48.2 -98.8 45.7 -94.05 44.45 -94.8 M11.45 -31.3 L16.45 -37.8 17.2 -36.05 11.45 -31.3 M79.2 -9.55 L74.95 -10.8 77.2 -11.55 Q66.85 -15.6 69.95 -16.8 L73.95 -17.8 Q67.35 -20.55 87.45 -25.3 42.9 -27.95 11.7 -12.8 -6.1 -1.65 -6.05 11.45 -4.15 23.45 26.45 34.2 L34.2 36.95 Q41.75 38.85 33.95 45.2 9.6 68.55 -88.55 95.95 -76.85 96.6 -63.8 92.45 L-77.8 98.2 Q-59.5 97.4 -39.05 91.45 -61.55 100.65 -84.95 105.75 -71.95 106.4 -51.3 101.95 -56.75 105.25 -68.3 107.7 -25.3 108.75 28.7 83.2 54.1 72.3 53.7 63.95 64.0 64.9 66.95 62.2 L64.45 60.45 Q73.45 57.35 72.2 46.2 L74.7 49.7 73.7 39.95 Q71.2 21.5 30.7 4.7 41.95 -0.35 60.1 -4.6 L79.2 -9.55 M2.2 15.95 L-1.05 10.7 2.95 13.95 2.2 15.95 M5.45 17.7 L9.95 19.95 9.45 21.95 5.45 17.7 M15.7 24.95 L23.45 28.45 21.2 28.95 15.45 26.7 15.7 24.95 M34.95 34.7 L32.45 31.95 37.7 34.7 34.95 34.7 M40.45 72.45 L40.7 74.7 30.7 78.2 40.45 72.45 M67.2 52.7 L59.7 58.9 64.2 51.7 66.95 50.7 67.2 52.7 M47.45 70.95 L45.45 69.95 51.2 65.2 47.45 70.95 M-23.55 -48.55 L-22.55 -54.8 -21.8 -48.3 -23.55 -48.55 M-22.55 -38.05 L-24.3 -38.55 -24.05 -42.55 -22.05 -42.55 -22.55 -38.05 M-23.8 -25.05 L-26.05 -24.55 -23.8 -33.55 -23.8 -25.05 M-3.55 -15.3 L6.7 -27.3 -0.8 -15.05 -3.55 -15.3 M-11.3 -5.8 L-8.05 -10.05 -9.55 -5.3 -11.3 -5.8 M-18.8 3.7 L-18.8 0.2 -17.55 -1.05 -16.8 1.45 -18.8 3.7 M-20.3 3.7 L-19.8 5.95 -23.8 9.2 -24.55 7.7 -20.3 3.7" fill="#000000" fill-rule="evenodd" stroke="none"/>
    <path d="M51.45 -102.3 L72.7 -117.3 60.7 -102.3 66.95 -106.3 55.95 -91.8 67.95 -102.3 66.7 -99.05 Q79.1 -110.85 91.45 -117.3 L69.95 -96.8 75.2 -98.8 Q25.95 -45.15 -19.7 14.8 L-28.8 26.7 -27.05 20.95 -30.05 25.2 Q-39.05 36.9 -49.3 32.7 -62.75 25.8 -59.05 12.45 L-40.55 -74.8 Q-32.55 -80.45 -29.05 -85.3 L-26.3 -74.8 -25.05 -85.8 Q-15.95 -73.95 -20.65 -27.9 20.5 -80.7 60.7 -115.05 L51.45 -102.3 M11.45 -31.3 L17.2 -36.05 16.45 -37.8 11.45 -31.3 M44.45 -94.8 L45.7 -94.05 48.2 -98.8 44.45 -94.8 M-20.3 3.7 L-24.55 7.7 -23.8 9.2 -19.8 5.95 -20.3 3.7 M-18.8 3.7 L-16.8 1.45 -17.55 -1.05 -18.8 0.2 -18.8 3.7 M-11.3 -5.8 L-9.55 -5.3 -8.05 -10.05 -11.3 -5.8 M-3.55 -15.3 L-0.8 -15.05 6.7 -27.3 -3.55 -15.3 M-23.8 -25.05 L-23.8 -33.55 -26.05 -24.55 -23.8 -25.05 M-22.55 -38.05 L-22.05 -42.55 -24.05 -42.55 -24.3 -38.55 -22.55 -38.05 M-23.55 -48.55 L-21.8 -48.3 -22.55 -54.8 -23.55 -48.55" fill="url(#gradient0)" fill-rule="evenodd" stroke="none"/>
    <path d="M79.2 -9.55 L60.1 -4.6 Q41.95 -0.35 30.7 4.7 71.2 21.5 73.7 39.95 L74.7 49.7 72.2 46.2 Q73.45 57.35 64.45 60.45 L66.95 62.2 Q64.0 64.9 53.7 63.95 54.1 72.3 28.7 83.2 -25.3 108.75 -68.3 107.7 -56.75 105.25 -51.3 101.95 -71.95 106.4 -84.95 105.75 -61.55 100.65 -39.05 91.45 -59.5 97.4 -77.8 98.2 L-63.8 92.45 Q-76.85 96.6 -88.55 95.95 9.6 68.55 33.95 45.2 41.75 38.85 34.2 36.95 L26.45 34.2 Q-4.15 23.45 -6.05 11.45 -6.1 -1.65 11.7 -12.8 42.9 -27.95 87.45 -25.3 67.35 -20.55 73.95 -17.8 L69.95 -16.8 Q66.85 -15.6 77.2 -11.55 L74.95 -10.8 79.2 -9.55 M47.45 70.95 L51.2 65.2 45.45 69.95 47.45 70.95 M67.2 52.7 L66.95 50.7 64.2 51.7 59.7 58.9 67.2 52.7 M40.45 72.45 L30.7 78.2 40.7 74.7 40.45 72.45 M34.95 34.7 L37.7 34.7 32.45 31.95 34.95 34.7 M15.7 24.95 L15.45 26.7 21.2 28.95 23.45 28.45 15.7 24.95 M5.45 17.7 L9.45 21.95 9.95 19.95 5.45 17.7 M2.2 15.95 L2.95 13.95 -1.05 10.7 2.2 15.95" fill="url(#gradient1)" fill-rule="evenodd" stroke="none"/>
  </g>
  <defs>
    <linearGradient gradientTransform="matrix(0.0147, -0.0085, 0.0296, 0.0517, 10.45, -51.75)" gradientUnits="userSpaceOnUse" id="gradient0" spreadMethod="pad" x1="-819.2" x2="819.2">
      <stop offset="0.0" stop-color="#f3a703"/>
      <stop offset="1.0" stop-color="#f36614"/>
    </linearGradient>
    <linearGradient gradientTransform="matrix(0.0503, -0.024, 0.0248, 0.0518, -2.95, 46.3)" gradientUnits="userSpaceOnUse" id="gradient1" spreadMethod="pad" x1="-819.2" x2="819.2">
      <stop offset="0.0" stop-color="#f3a703"/>
      <stop offset="1.0" stop-color="#f36614"/>
    </linearGradient>
  </defs>
</svg>
