<?xml version="1.0" encoding="UTF-8" standalone="no"?>
<svg xmlns:xlink="http://www.w3.org/1999/xlink" height="37.85px" width="21.15px" xmlns="http://www.w3.org/2000/svg">
  <g transform="matrix(1.0, 0.0, 0.0, 1.0, 10.6, 18.9)">
    <path d="M8.6 -9.75 Q4.45 -11.25 2.05 -14.5 L1.7 -15.0 3.15 -16.0 3.55 -16.3 3.7 -16.35 8.8 -18.9 Q11.55 -16.1 9.95 -10.65 L9.05 -9.95 8.8 -9.75 8.6 -9.75 M-2.7 -8.8 Q0.45 -8.65 2.9 -7.3 L3.15 -7.2 Q2.55 -4.65 2.0 -3.45 -0.75 -5.0 -4.2 -5.55 L-3.95 -5.95 -2.95 -7.75 -2.7 -8.8 M-7.5 0.4 Q-4.4 0.55 -1.85 1.9 L-1.5 2.1 Q-2.15 4.7 -2.7 5.95 -5.6 4.15 -9.25 3.9 L-9.05 3.55 -7.5 0.4" fill="#dbdbe2" fill-rule="evenodd" stroke="none"/>
    <path d="M1.7 -15.0 L2.05 -14.5 Q4.45 -11.25 8.6 -9.75 L8.6 -9.7 8.8 -9.75 9.05 -9.95 9.95 -10.65 Q8.45 -5.35 8.15 -3.15 5.85 7.5 2.4 18.95 L2.05 18.95 5.05 8.05 Q1.9 17.25 -5.85 16.4 -11.65 14.05 -10.4 5.55 L-9.45 3.5 -9.05 3.55 -9.25 3.9 Q-5.6 4.15 -2.7 5.95 -2.15 4.7 -1.5 2.1 L-1.85 1.9 Q-4.4 0.55 -7.5 0.4 L-7.25 0.0 -4.2 -5.55 Q-0.75 -5.0 2.0 -3.45 2.55 -4.65 3.15 -7.2 L2.9 -7.3 Q0.45 -8.65 -2.7 -8.8 L-2.5 -9.25 Q-1.3 -12.65 1.7 -14.95 L1.7 -15.0" fill="#4b50b6" fill-rule="evenodd" stroke="none"/>
  </g>
</svg>
