<?xml version="1.0" encoding="UTF-8" standalone="no"?>
<svg xmlns:xlink="http://www.w3.org/1999/xlink" height="76.5px" width="92.45px" xmlns="http://www.w3.org/2000/svg">
  <g transform="matrix(1.0, 0.0, 0.0, 1.0, 46.25, 38.25)">
    <path d="M-35.25 -36.55 L-38.0 -38.25 -36.05 -38.0 -30.4 -37.1 Q1.0 -30.3 0.4 2.15 21.7 3.6 40.25 -2.55 49.35 -4.3 44.55 19.65 L43.95 22.15 Q43.05 25.9 41.85 28.8 L40.8 31.25 Q38.8 34.9 36.2 36.7 29.75 41.05 19.45 33.35 L-2.1 18.9 Q-7.5 25.25 -13.25 28.9 -26.35 37.4 -41.25 32.2 -43.3 31.55 -45.25 30.6 -45.7 30.3 -46.25 30.15 -33.35 25.15 -29.35 14.0 -28.0 7.9 -19.45 7.25 -27.3 2.05 -24.7 -9.5 -22.45 -27.2 -35.25 -36.55" fill="#0adea9" fill-rule="evenodd" stroke="none"/>
  </g>
</svg>
