<?xml version="1.0" encoding="UTF-8" standalone="no"?>
<svg xmlns:xlink="http://www.w3.org/1999/xlink" height="71.95px" width="52.65px" xmlns="http://www.w3.org/2000/svg">
  <g transform="matrix(1.0, 0.0, 0.0, 1.0, 26.35, 36.0)">
    <path d="M-5.0 1.1 Q-7.15 10.45 -11.95 5.05 -15.25 1.25 -19.8 -9.35 -21.4 0.2 -26.2 3.6 -27.7 -14.05 -13.8 -36.0 -15.95 -28.2 -15.2 -20.95 -14.1 -10.1 -6.4 -0.5 L-5.0 1.1 M-13.6 -25.05 Q-10.85 -31.25 -7.0 -34.6 -11.15 -23.3 -9.5 -12.6 -13.75 -14.35 -13.6 -25.05 M-10.1 9.4 L-9.5 9.2 -8.9 9.4 Q-8.65 9.65 -8.65 9.95 L-8.9 10.45 -9.5 10.65 -10.1 10.45 -10.3 9.95 -10.1 9.4 M-8.05 17.4 L-7.75 17.0 Q-4.85 2.75 -2.45 10.65 9.25 11.25 -8.05 17.4 M-8.6 27.4 L-12.15 21.55 Q-14.5 17.2 -16.5 11.9 -13.1 15.5 -9.3 18.7 -4.3 22.85 1.45 26.25 1.9 29.9 -6.75 25.8 -6.25 29.65 -8.6 27.4 M-21.85 2.5 Q-21.0 2.5 -20.4 3.55 -19.85 4.7 -19.85 6.2 -19.85 7.7 -20.4 8.8 -21.0 9.9 -21.85 9.9 -22.65 9.9 -23.25 8.8 -23.85 7.7 -23.85 6.2 -23.85 4.7 -23.25 3.55 -22.65 2.5 -21.85 2.5 M-2.4 30.3 Q-1.7 30.5 -1.35 30.8 -0.95 31.1 -0.95 31.5 -0.95 31.95 -1.35 32.25 -1.7 32.55 -2.2 32.55 L-3.0 32.25 -3.55 31.3 Q-3.8 30.7 -3.45 30.4 L-2.4 30.3 M23.8 34.8 L22.15 31.5 22.2 32.05 Q22.7 38.45 19.2 34.3 15.95 30.3 19.05 22.65 27.0 27.9 26.25 32.3 25.55 36.75 23.8 34.8" fill="#00646f" fill-rule="evenodd" stroke="none"/>
  </g>
</svg>
