<?xml version="1.0" encoding="UTF-8" standalone="no"?>
<svg xmlns:xlink="http://www.w3.org/1999/xlink" height="79.65px" width="57.85px" xmlns="http://www.w3.org/2000/svg">
  <g transform="matrix(1.0, 0.0, 0.0, 1.0, 28.95, 39.8)">
    <path d="M-17.85 32.4 Q-16.0 28.8 -14.15 22.95 -9.0 9.15 -0.95 -3.1 L2.4 -7.7 Q8.95 -16.2 20.05 -27.25 L27.45 -33.55 Q29.25 -39.15 24.0 -38.75 13.5 -31.25 2.55 -20.2 -13.4 -4.1 -21.1 12.8 -25.15 21.0 -27.0 28.85 L-27.2 29.85 -27.35 30.65 -27.75 32.75 Q-28.7 38.7 -25.05 38.85 -21.6 39.0 -19.05 34.45 L-17.85 32.4" fill="none" stroke="#381e2d" stroke-linecap="round" stroke-linejoin="round" stroke-opacity="0.76862746" stroke-width="2.0"/>
    <path d="M-27.2 29.85 Q-26.7 28.4 -25.05 27.4 -24.85 29.95 -24.2 31.35 -23.6 30.0 -21.75 28.6 -21.55 30.55 -20.8 31.75 -18.45 30.35 -18.25 29.25 -17.6 30.55 -17.85 32.4 Z" fill="none" stroke="#5b4979" stroke-linecap="round" stroke-linejoin="round" stroke-opacity="0.76862746" stroke-width="2.0"/>
  </g>
</svg>
