<?xml version="1.0" encoding="UTF-8" standalone="no"?>
<svg xmlns:xlink="http://www.w3.org/1999/xlink" height="46.7px" width="89.9px" xmlns="http://www.w3.org/2000/svg">
  <g transform="matrix(1.0, 0.0, 0.0, 1.0, 86.4, 0.75)">
    <path d="M-0.65 -0.35 L2.55 -0.2 Q3.05 0.25 3.4 1.0 4.55 5.9 -7.3 11.75 -9.75 15.25 -14.95 18.85 -13.55 17.2 -13.75 13.95 L-14.95 14.75 Q-25.85 21.7 -35.5 25.35 -44.7 28.75 -52.75 29.2 L-56.8 38.7 -59.45 33.15 -74.55 45.95 -73.6 32.0 -86.4 28.45 -75.4 20.35 -79.4 6.2 -63.6 14.95 -60.85 8.15 -57.95 14.9 Q-56.1 16.2 -53.85 17.0 L-50.55 17.8 -47.0 18.1 -44.1 18.05 -38.85 17.5 -38.35 17.4 -35.5 16.55 -35.5 16.5 -30.15 14.8 -27.5 13.9 -24.35 12.65 -21.45 11.5 -17.25 9.5 -14.95 8.4 -14.35 8.05 -11.6 6.6 -9.1 5.15 Q-4.8 2.6 -0.65 -0.35" fill="#ffffff" fill-rule="evenodd" stroke="none"/>
  </g>
</svg>
