<?xml version="1.0" encoding="UTF-8" standalone="no"?>
<svg xmlns:xlink="http://www.w3.org/1999/xlink" height="55.55px" width="182.85px" xmlns="http://www.w3.org/2000/svg">
  <g transform="matrix(1.0, 0.0, 0.0, 1.0, 91.55, 27.75)">
    <path d="M80.2 9.45 Q78.9 10.85 77.75 10.05 L72.0 4.5 Q69.4 1.8 69.9 0.1 68.15 -1.2 67.75 -2.3 L68.05 -2.75 Q66.85 -3.8 67.25 -4.5 L67.3 -4.55 Q66.55 -5.2 66.4 -5.85 66.2 -6.2 66.65 -6.85 50.5 -12.9 33.65 -10.85 13.85 -6.3 -9.95 6.3 -37.35 21.8 -54.55 25.2 -71.75 28.65 -78.5 25.6 L-80.4 25.05 Q-87.8 22.45 -90.3 16.2 -92.65 5.45 -84.1 -4.8 L-80.4 -8.95 Q-72.6 -17.1 -61.9 -23.55 L-58.35 -25.6 Q-49.85 -28.4 -48.15 -25.6 -47.0 -24.65 -47.25 -23.55 -47.65 -21.9 -51.3 -20.0 -62.2 -15.35 -69.75 -9.2 L-69.8 -9.15 Q-75.8 -4.1 -79.2 1.6 L-80.4 3.7 Q-86.3 15.0 -80.4 23.35 L-79.45 24.55 Q-61.05 28.45 -40.8 18.25 -10.25 1.25 13.35 -10.3 33.8 -18.7 49.9 -16.85 62.6 -15.15 70.85 -10.85 L71.7 -11.05 73.2 -10.2 73.4 -10.35 Q74.2 -10.45 75.2 -9.35 L75.5 -9.55 Q77.1 -8.85 77.55 -7.65 78.8 -7.85 81.75 -5.7 86.0 -2.7 87.55 0.65 88.25 1.65 86.55 3.2 M84.2 5.15 L82.1 7.15 M77.75 10.05 Q76.85 7.7 80.75 3.65 85.35 -0.9 87.55 0.65 M-78.5 25.6 L-79.45 24.55" fill="none" stroke="#000000" stroke-linecap="round" stroke-linejoin="round" stroke-width="1.5"/>
    <path d="M86.55 3.2 L90.8 7.85 88.45 9.8 84.2 5.15 83.3 4.15 Q83.85 2.55 85.45 1.95 L86.55 3.2 M82.1 7.15 L86.65 11.75 84.8 14.6 80.2 9.45 79.15 8.3 Q79.35 6.95 81.05 6.1 L82.1 7.15 M66.65 -6.85 Q68.0 -9.25 70.85 -10.85 M69.9 0.1 L70.0 -0.15 Q72.4 -3.85 77.3 -7.55 L77.55 -7.65 M78.0 -3.9 L80.9 -0.95 M67.3 -4.55 Q69.4 -7.65 73.2 -10.2 M68.05 -2.75 Q70.55 -6.4 75.2 -9.35 M77.3 -6.2 Q81.55 -3.65 83.7 -0.1 M86.85 4.25 L87.2 5.05 87.05 5.6 86.5 5.6 85.85 5.0 85.5 4.25 Q85.45 3.85 85.65 3.7 85.85 3.55 86.2 3.7 L86.85 4.25" fill="none" stroke="#000000" stroke-linecap="round" stroke-linejoin="round" stroke-width="1.0"/>
  </g>
</svg>
