<?xml version="1.0" encoding="UTF-8" standalone="no"?>
<svg xmlns:xlink="http://www.w3.org/1999/xlink" height="179.6px" width="37.3px" xmlns="http://www.w3.org/2000/svg">
  <g transform="matrix(1.0, 0.0, 0.0, 1.0, 18.65, 89.8)">
    <path d="M-18.65 -76.2 Q-14.2 -79.95 -12.05 -86.95 -8.35 -91.6 0.2 -88.6 14.55 -77.6 17.6 -60.3 20.65 -43.05 14.75 -17.6 14.7 7.95 12.8 40.05 6.4 22.5 5.15 -0.55 5.75 18.7 3.1 46.45 0.4 74.2 3.35 89.8 -6.6 63.45 -8.9 23.45 -10.15 -28.65 -15.25 -48.65 -8.2 -44.95 2.55 -42.15 9.05 -40.45 16.95 -39.1 15.8 -47.6 10.05 -56.7 -2.55 -76.55 -16.6 -77.05 L-18.65 -76.2" fill="url(#gradient0)" fill-rule="evenodd" stroke="none"/>
  </g>
  <defs>
    <linearGradient gradientTransform="matrix(0.0, 0.0919, -0.0228, 0.0, 0.0, 1.15)" gradientUnits="userSpaceOnUse" id="gradient0" spreadMethod="pad" x1="-819.2" x2="819.2">
      <stop offset="0.0" stop-color="#fff23c" stop-opacity="0.0"/>
      <stop offset="0.3803921568627451" stop-color="#fff23c" stop-opacity="0.84705883"/>
      <stop offset="0.6039215686274509" stop-color="#fff23c" stop-opacity="0.8"/>
      <stop offset="1.0" stop-color="#fff23c" stop-opacity="0.0"/>
    </linearGradient>
  </defs>
</svg>
