<?xml version="1.0" encoding="UTF-8" standalone="no"?>
<svg xmlns:xlink="http://www.w3.org/1999/xlink" height="292.5px" width="129.25px" xmlns="http://www.w3.org/2000/svg">
  <g transform="matrix(1.0, 0.0, 0.0, 1.0, 55.75, 160.95)">
    <path d="M20.55 -129.2 L20.55 -129.3 Q22.85 -135.05 26.25 -140.3 35.8 -155.0 55.2 -159.95 67.45 -152.55 70.6 -130.55 73.75 -108.6 71.7 -101.9 51.25 -99.05 36.45 -100.9 34.85 -46.8 25.5 -7.45 32.15 51.8 8.25 100.1 18.9 68.75 19.65 13.4 L16.85 21.4 Q-1.9 71.8 5.4 130.55 -6.65 119.75 -13.05 102.75 L-13.65 101.1 Q-13.4 106.2 -22.35 117.0 -19.75 104.5 -23.8 85.1 -27.9 65.7 -27.3 54.55 L-25.6 26.8 Q-24.7 13.8 -26.4 -4.9 L-26.75 -5.2 -29.75 -8.05 Q-31.75 16.9 -28.15 40.0 -45.25 -16.75 -26.9 -78.7 L-27.25 -78.65 Q-33.45 -77.85 -39.0 -78.9 -48.25 -87.25 -52.45 -102.65 -57.55 -130.1 -51.45 -140.25 -33.3 -142.8 -16.2 -136.6 -8.15 -133.65 -0.45 -126.85 L-0.15 -126.6 Q3.8 -129.2 8.2 -130.55 15.2 -130.65 20.55 -129.2 L20.9 -129.1 M36.45 -100.9 L36.05 -100.95 Q24.35 -102.5 16.15 -107.05 14.65 -103.65 12.15 -100.4 L10.75 -98.75 Q4.4 -91.55 -7.1 -85.55 -12.95 -82.5 -18.35 -80.75 -22.8 -79.3 -26.9 -78.7 M36.2 -106.45 L36.3 -112.85 Q34.1 -122.85 25.75 -127.25 21.85 -119.3 19.1 -108.85 27.65 -107.05 36.2 -106.45 51.2 -105.4 66.2 -108.1 66.35 -136.75 52.7 -151.6 35.5 -147.2 25.75 -127.25 M-0.15 -126.6 Q8.25 -119.15 16.15 -107.05 16.5 -118.95 20.55 -129.2 M11.1 -98.55 L9.15 -96.2 M-26.4 -4.9 L-23.2 -2.55 Q-18.8 -35.2 -5.25 -67.4 L0.6 -80.4 Q4.4 -88.4 8.8 -96.4 -15.2 -67.45 -26.25 -38.5 L-26.5 -36.7 M25.5 -7.45 Q22.9 3.55 19.65 13.4 M-6.0 -122.45 Q-13.75 -114.95 -19.25 -101.75 L-20.4 -98.8 -21.4 -96.1 -24.85 -86.3 Q-3.65 -91.05 12.85 -107.05 3.65 -116.3 -6.0 -122.45 -25.05 -134.55 -45.95 -134.4 -50.4 -103.35 -34.6 -84.75 -29.6 -85.25 -24.85 -86.3 M-26.25 -38.5 L-26.85 -36.9 Q-30.95 -25.8 -33.15 -14.65 -32.7 -11.55 -30.1 -8.45 L-29.75 -8.05 M-0.35 -24.9 Q-2.25 -13.15 -4.3 -2.8 M-26.25 -38.5 Q-23.15 -60.6 -18.0 -80.55 M-8.75 16.8 Q-13.8 36.25 -19.75 49.0 5.15 17.1 11.8 -31.0 M-5.25 -67.4 Q-19.4 -23.95 -13.75 17.55 L-9.1 16.6 Q-3.95 14.9 -2.05 10.6 -3.65 3.95 -4.65 -3.0 -9.65 -37.65 0.6 -80.4 M-13.05 102.75 Q-21.45 76.15 -18.75 55.85" fill="none" stroke="#101010" stroke-linecap="round" stroke-linejoin="round" stroke-width="2.0"/>
  </g>
</svg>
