<?xml version="1.0" encoding="UTF-8" standalone="no"?>
<svg xmlns:xlink="http://www.w3.org/1999/xlink" height="170.05px" width="206.5px" xmlns="http://www.w3.org/2000/svg">
  <g transform="matrix(1.0, 0.0, 0.0, 1.0, 103.25, 85.0)">
    <path d="M58.35 -78.1 L67.75 -83.25 Q60.3 -76.7 58.15 -70.95 69.4 -73.65 83.9 -58.55 93.75 -49.25 101.25 -52.0 98.65 -47.9 93.65 -46.9 L84.5 -47.2 Q88.5 -43.85 92.75 -38.65 96.95 -33.35 103.25 -31.6 L100.9 -31.0 Q83.65 -27.75 64.05 -38.7 56.7 -41.95 51.6 -45.2 40.65 -52.3 40.5 -59.45 44.45 -69.55 58.35 -78.1 M67.05 31.25 Q74.1 41.85 78.8 44.4 L80.05 44.9 Q72.15 46.5 66.95 43.4 69.5 45.3 71.65 48.65 76.25 55.6 80.8 55.4 72.3 58.55 66.7 53.1 71.5 58.5 71.95 63.85 72.35 69.25 70.15 72.35 67.65 67.05 63.45 64.3 59.55 61.75 57.5 58.4 63.0 68.1 57.3 79.65 55.95 68.05 48.7 59.95 45.4 56.3 43.2 53.0 47.45 61.4 43.4 68.3 43.35 61.55 38.8 50.65 36.45 47.0 35.75 41.15 L35.7 40.25 Q36.05 23.15 49.45 19.05 60.45 20.1 67.05 31.25 M-45.25 50.85 L-45.05 50.5 -45.1 50.55 -45.4 50.8 -45.25 50.85 M-26.85 15.3 Q-11.8 18.8 -14.65 34.45 -15.95 46.4 -20.55 58.5 -25.2 70.5 -25.1 78.25 -30.4 68.55 -24.5 56.55 -38.25 72.85 -41.75 85.05 L-42.35 74.25 Q-42.85 64.8 -36.7 57.55 -43.0 62.55 -44.7 77.85 -51.55 69.6 -51.45 62.35 -51.45 59.85 -50.9 58.1 -52.7 59.1 -55.8 59.6 -62.9 60.7 -69.4 56.6 -64.55 55.15 -59.6 49.9 -56.3 46.3 -54.05 44.85 -66.1 50.4 -73.9 46.55 L-69.0 45.1 Q-59.35 41.45 -51.2 31.95 -42.3 21.6 -30.45 16.7 L-26.85 15.3 M-103.25 -42.75 L-100.7 -42.6 Q-90.85 -42.45 -82.3 -52.25 -75.25 -64.0 -59.7 -69.75 -74.6 -72.0 -76.15 -83.7 L-76.3 -85.0 Q-69.75 -78.05 -55.85 -78.45 -42.75 -78.8 -25.35 -72.95 -13.45 -65.7 -13.6 -55.55 -13.95 -53.95 -14.65 -52.35 -19.8 -41.35 -41.7 -34.3 -52.8 -27.95 -66.45 -29.9 -80.1 -31.9 -83.9 -34.55 -76.65 -34.45 -66.65 -39.15 -86.2 -34.05 -103.25 -42.75" fill="#ffe87b" fill-rule="evenodd" stroke="none"/>
  </g>
</svg>
