<?xml version="1.0" encoding="UTF-8" standalone="no"?>
<svg xmlns:xlink="http://www.w3.org/1999/xlink" height="94.3px" width="160.25px" xmlns="http://www.w3.org/2000/svg">
  <g transform="matrix(1.0, 0.0, 0.0, 1.0, 80.1, 47.15)">
    <path d="M34.5 -16.2 Q40.35 -12.45 46.65 -16.0 44.05 -30.9 39.65 -37.7 34.0 -29.95 34.5 -16.2 M69.85 -0.95 Q77.45 -15.4 73.75 -27.15 65.1 -25.7 54.55 -13.55 61.6 -2.4 69.85 -0.95 M30.35 -12.35 Q28.25 -36.8 39.25 -45.25 45.75 -39.5 49.85 -16.35 L50.6 -16.5 Q51.4 -16.5 52.1 -16.0 66.35 -37.35 78.85 -35.1 83.35 -6.7 72.25 7.15 61.9 6.55 52.25 -10.0 L51.85 -9.75 Q58.3 20.1 73.95 40.85 71.55 45.55 65.6 47.15 52.0 18.85 50.5 -9.4 L50.05 -9.45 Q48.45 15.25 61.75 47.15 55.65 44.55 54.2 40.9 43.35 15.15 49.35 -9.7 L48.55 -10.45 Q48.0 -11.0 47.8 -11.75 37.8 -5.85 30.35 -12.35 M-42.0 -12.35 L-43.05 -11.6 Q-35.75 13.25 -48.8 39.0 -50.55 42.65 -57.95 45.2 -41.9 13.35 -43.8 -11.35 L-44.4 -11.3 Q-46.2 16.95 -62.6 45.2 -69.75 43.6 -72.65 38.95 -53.75 18.2 -46.0 -11.65 L-46.5 -11.9 Q-58.1 4.65 -70.6 5.25 -83.95 -8.6 -78.55 -37.05 -63.45 -39.25 -46.3 -17.95 L-44.5 -18.4 -43.6 -18.25 Q-38.6 -41.4 -30.8 -47.15 -17.45 -38.7 -20.1 -14.25 -29.1 -7.75 -41.1 -13.65 -41.4 -12.9 -42.0 -12.35 M-49.3 -15.45 Q-62.0 -27.6 -72.4 -29.05 -76.9 -17.3 -67.7 -2.85 -57.8 -4.3 -49.3 -15.45 M-31.25 -39.65 Q-36.6 -32.8 -39.75 -17.95 -32.15 -14.35 -25.05 -18.1 -24.45 -31.85 -31.25 -39.65" fill="#e56666" fill-rule="evenodd" stroke="none"/>
  </g>
</svg>
