<?xml version="1.0" encoding="UTF-8" standalone="no"?>
<svg xmlns:xlink="http://www.w3.org/1999/xlink" height="35.5px" width="60.45px" xmlns="http://www.w3.org/2000/svg">
  <g transform="matrix(1.0, 0.0, 0.0, 1.0, 30.2, 17.75)">
    <path d="M22.95 -17.2 Q27.0 -16.45 28.85 -13.0 30.85 -9.3 30.0 -7.2 27.0 -0.3 23.25 3.1 19.5 6.4 15.4 9.0 11.25 11.55 6.55 12.9 L5.7 13.15 -3.75 15.5 -14.85 17.6 Q-20.35 18.4 -26.1 15.4 -31.9 12.35 -29.45 6.0 -28.0 1.9 -25.3 -0.35 L-24.95 -0.65 Q-23.6 -1.75 -21.9 -2.4 -16.7 -4.4 -12.5 -2.9 -13.05 -6.2 -7.8 -10.2 -2.6 -14.25 3.65 -13.75 7.7 -13.45 8.3 -12.9 L8.75 -13.65 Q9.75 -15.2 11.65 -16.25 13.55 -17.35 15.4 -17.6 L15.5 -17.65 22.15 -17.35 22.95 -17.2" fill="#e55cbe" fill-rule="evenodd" stroke="none"/>
  </g>
</svg>
