<?xml version="1.0" encoding="UTF-8" standalone="no"?>
<svg xmlns:xlink="http://www.w3.org/1999/xlink" height="55.25px" width="47.3px" xmlns="http://www.w3.org/2000/svg">
  <g transform="matrix(1.0, 0.0, 0.0, 1.0, 23.65, 27.65)">
    <path d="M23.65 3.3 L22.45 2.5 17.75 6.0 Q13.55 9.35 10.1 12.95 6.75 16.3 4.0 19.95 L0.8 24.9 Q-10.15 30.7 -17.2 23.95 -8.85 24.25 -1.6 22.1 -13.6 19.4 -23.65 11.75 -23.45 8.5 -22.65 5.6 -20.4 -2.85 -14.05 -9.4 -9.7 -4.05 -2.7 1.1 -7.9 -6.0 -12.1 -13.55 -7.05 -19.6 0.4 -24.0 3.75 -25.95 7.55 -27.65 12.55 -21.95 16.7 -13.95 16.5 -20.15 20.65 -24.7 20.75 -11.0 23.65 3.3" fill="url(#gradient0)" fill-rule="evenodd" stroke="none"/>
  </g>
  <defs>
    <linearGradient gradientTransform="matrix(-0.058, -0.0326, 0.0184, -0.0327, -38.25, -22.6)" gradientUnits="userSpaceOnUse" id="gradient0" spreadMethod="pad" x1="-819.2" x2="819.2">
      <stop offset="0.0" stop-color="#fff23c" stop-opacity="0.0"/>
      <stop offset="0.3803921568627451" stop-color="#fff23c" stop-opacity="0.84705883"/>
      <stop offset="0.6039215686274509" stop-color="#fff23c" stop-opacity="0.8"/>
      <stop offset="1.0" stop-color="#fff23c" stop-opacity="0.0"/>
    </linearGradient>
  </defs>
</svg>
