<?xml version="1.0" encoding="UTF-8" standalone="no"?>
<svg xmlns:xlink="http://www.w3.org/1999/xlink" height="79.75px" width="67.9px" xmlns="http://www.w3.org/2000/svg">
  <g transform="matrix(1.0, 0.0, 0.0, 1.0, 33.95, 39.9)">
    <path d="M33.2 -1.8 Q34.25 1.9 33.8 4.7 33.8 8.05 31.7 8.8 32.1 11.05 29.9 16.0 L28.9 18.75 Q22.65 34.65 15.85 39.0 16.0 34.2 19.85 29.4 11.9 37.25 -2.5 39.85 0.95 32.85 7.75 28.05 -9.85 28.6 -26.6 32.55 -23.0 23.25 -15.2 16.05 -25.25 22.05 -32.1 31.45 -32.6 17.55 -24.15 3.7 -32.05 10.95 -33.9 19.55 -34.75 -9.55 -7.6 -19.05 -17.6 -19.4 -26.45 -15.85 1.6 -38.1 28.45 -14.15 22.45 -28.1 7.5 -39.9 26.95 -38.75 32.8 -21.75 33.8 -10.95 33.2 -1.8" fill="url(#gradient0)" fill-rule="evenodd" stroke="none"/>
  </g>
  <defs>
    <linearGradient gradientTransform="matrix(0.0, 0.0849, -0.0414, 0.0, 0.0, 77.15)" gradientUnits="userSpaceOnUse" id="gradient0" spreadMethod="pad" x1="-819.2" x2="819.2">
      <stop offset="0.0" stop-color="#fff23c" stop-opacity="0.0"/>
      <stop offset="0.3803921568627451" stop-color="#fff23c" stop-opacity="0.84705883"/>
      <stop offset="0.6039215686274509" stop-color="#fff23c" stop-opacity="0.8"/>
      <stop offset="1.0" stop-color="#fff23c" stop-opacity="0.0"/>
    </linearGradient>
  </defs>
</svg>
