<?xml version="1.0" encoding="UTF-8" standalone="no"?>
<svg xmlns:xlink="http://www.w3.org/1999/xlink" height="93.35px" width="111.85px" xmlns="http://www.w3.org/2000/svg">
  <g transform="matrix(1.0, 0.0, 0.0, 1.0, 55.9, 46.7)">
    <path d="M3.2 -32.55 Q5.3 -37.0 6.35 -45.7 10.45 -40.65 11.5 -35.2 L14.6 -41.35 Q26.45 -34.35 32.8 -18.25 28.85 -13.7 20.95 -9.7 37.95 -7.9 54.9 3.4 55.4 4.8 51.6 8.6 29.8 -5.65 9.9 -5.15 L6.5 -4.1 Q6.1 -1.65 2.95 -1.55 L2.25 -2.15 Q-9.4 9.25 -20.45 16.75 -33.7 30.6 -40.1 45.65 -45.05 45.05 -46.1 43.95 -41.25 33.05 -34.25 24.8 -37.35 26.3 -40.45 27.4 -44.85 18.85 -46.6 9.95 -54.15 4.95 -54.9 -0.75 L-47.6 1.2 -47.65 -2.2 -44.65 -3.6 Q-50.6 -4.7 -51.4 -12.4 L-47.7 -12.9 Q-48.5 -16.8 -47.85 -20.85 L-46.9 -24.9 Q-44.45 -25.15 -42.25 -24.85 -43.0 -32.25 -37.9 -35.1 L-37.95 -36.9 Q-32.3 -39.5 -25.95 -37.55 -26.3 -40.75 -26.05 -43.4 L-21.45 -44.1 Q-11.35 -44.65 -9.7 -35.4 -8.65 -39.7 -7.05 -43.1 L-3.95 -40.9 Q0.95 -36.95 3.2 -32.55 6.6 -25.8 3.5 -18.1 7.0 -26.3 11.5 -35.2 M-9.7 -35.4 Q-10.8 -30.8 -11.25 -25.2 -14.55 -20.15 -16.15 -15.25 L-17.05 -11.45 -17.3 -8.75 -3.05 -9.15 -3.4 -9.8 Q-2.15 -11.8 0.85 -11.85 L3.35 -17.85 3.5 -18.1 M0.85 -11.85 L1.65 -11.1 8.3 -19.4 8.35 -19.4 Q13.4 -26.3 16.45 -32.25 18.8 -30.7 20.6 -28.65 24.1 -24.8 25.9 -19.0 22.85 -14.3 15.55 -10.05 11.4 -7.7 5.9 -5.45 L6.5 -4.1 M-3.05 -9.15 L-1.9 -7.2 -1.2 -6.25 1.0 -3.5 2.25 -2.15 M5.9 -5.45 L3.6 -8.85 1.65 -11.1 M3.6 -8.85 Q7.85 -10.45 15.55 -10.05 M8.35 -19.4 Q16.95 -24.2 20.6 -28.65 M20.95 -9.7 Q16.2 -7.3 9.9 -5.15 M-3.95 -40.9 Q0.45 -34.4 -2.2 -29.25 L-3.0 -27.25 Q-4.6 -23.15 -4.65 -20.05 -3.0 -14.4 -7.6 -12.0 M-3.0 -27.25 L-7.3 -28.2 M-37.9 -35.1 Q-37.6 -28.9 -34.1 -22.45 -30.4 -24.6 -26.6 -21.35 -26.25 -23.55 -23.95 -26.75 -25.6 -32.75 -25.95 -37.55 M-17.05 -11.45 Q-18.85 -13.35 -21.15 -13.95 -24.15 -14.7 -27.85 -13.35 L-30.55 -12.15 -31.45 -11.6 Q-39.9 -13.45 -47.7 -12.9 M-27.85 -13.35 L-28.55 -17.1 M-47.85 -20.85 Q-45.05 -15.7 -30.55 -12.15 L-31.1 -16.8 M-21.15 -13.95 Q-23.9 -19.1 -26.6 -21.35 M-21.45 -44.1 Q-13.3 -36.8 -17.15 -24.55 -18.65 -20.55 -16.15 -15.25 M-1.9 -7.2 L-12.75 -6.35 Q-16.35 0.3 -23.05 2.6 L-23.35 2.6 Q-22.4 3.95 -24.3 6.2 -30.8 11.95 -41.0 11.25 -39.9 15.2 -37.75 19.1 -32.95 17.85 -27.85 15.6 -14.2 1.7 -1.2 -6.25 M-4.25 -24.55 L-7.6 -25.4 M-12.75 -6.35 Q-29.95 -4.5 -39.75 -0.2 -33.4 2.85 -23.35 2.6 M-34.1 -22.45 Q-37.95 -24.45 -42.25 -24.85 M-17.3 -8.75 Q-34.45 -7.75 -44.65 -3.6 M-34.25 24.8 Q-27.5 21.55 -20.45 16.75 M-47.6 1.2 Q-47.4 5.7 -46.6 9.95 M-39.75 -0.2 L-42.3 0.85 Q-42.5 6.15 -41.0 11.25 M-27.85 15.6 Q-14.4 9.6 1.0 -3.5" fill="none" stroke="#000000" stroke-linecap="round" stroke-linejoin="round" stroke-width="2.0"/>
  </g>
</svg>
