<?xml version="1.0" encoding="UTF-8" standalone="no"?>
<svg xmlns:xlink="http://www.w3.org/1999/xlink" height="7.9px" width="71.1px" xmlns="http://www.w3.org/2000/svg">
  <g transform="matrix(1.0, 0.0, 0.0, 1.0, 39.6, -0.35)">
    <path d="M31.5 4.45 Q31.5 6.0 29.7 7.1 27.9 8.2 25.4 8.2 22.9 8.2 21.1 7.1 19.35 6.0 19.35 4.45 19.35 2.9 21.1 1.75 22.9 0.65 25.4 0.65 27.9 0.65 29.7 1.75 31.5 2.9 31.5 4.45 M-22.45 4.3 Q-22.45 5.9 -25.0 7.05 -27.5 8.25 -31.05 8.25 -34.55 8.25 -37.1 7.05 -39.6 5.9 -39.6 4.3 -39.6 2.65 -37.1 1.5 -34.55 0.35 -31.05 0.35 -27.5 0.35 -25.0 1.5 -22.45 2.65 -22.45 4.3" fill="#ff4a4a" fill-opacity="0.5882353" fill-rule="evenodd" stroke="none"/>
  </g>
</svg>
