<?xml version="1.0" encoding="UTF-8" standalone="no"?>
<svg xmlns:xlink="http://www.w3.org/1999/xlink" height="41.25px" width="17.8px" xmlns="http://www.w3.org/2000/svg">
  <g transform="matrix(1.0, 0.0, 0.0, 1.0, 8.9, 20.6)">
    <path d="M-3.2 20.35 Q-5.4 18.3 -6.95 13.3 -8.65 7.3 -8.9 -0.25 -8.45 -11.2 -7.55 -20.35 L-1.7 -19.45 Q-4.55 3.45 -2.6 10.35 -0.35 18.65 0.55 20.65 L-0.45 20.6 -2.4 20.45 -3.2 20.35 M3.8 20.4 Q4.15 17.15 2.25 12.0 1.0 4.8 3.1 -11.55 L4.2 -19.4 Q8.35 -19.65 8.9 -20.6 L8.2 -17.1 7.8 -15.1 7.7 -14.45 7.05 -11.25 6.05 -5.0 5.6 -1.55 5.45 -0.45 Q5.0 5.1 5.0 7.4 L5.0 7.65 5.2 10.85 5.3 11.95 5.35 12.2 5.6 13.6 6.1 16.0 6.5 17.85 Q6.95 19.85 3.8 20.4" fill="#8ee772" fill-rule="evenodd" stroke="none"/>
  </g>
</svg>
