<?xml version="1.0" encoding="UTF-8" standalone="no"?>
<svg xmlns:xlink="http://www.w3.org/1999/xlink" height="7.7px" width="11.1px" xmlns="http://www.w3.org/2000/svg">
  <g transform="matrix(1.0, 0.0, 0.0, 1.0, 5.55, 3.85)">
    <path d="M-5.55 2.4 Q-5.3 0.1 -3.9 -1.5 -3.15 -2.55 -2.7 -2.0 -2.1 -1.1 -1.5 -1.35 L-1.35 -1.4 -0.85 -2.0 Q-0.35 -2.7 0.15 -2.35 L0.6 -1.65 Q0.85 -1.05 1.55 -1.8 2.85 -3.65 3.65 -3.75 5.05 -4.25 5.35 -2.3 5.75 0.4 5.35 2.05 L5.2 2.65 Q4.85 3.35 3.65 3.3 L-3.0 3.75 Q-5.55 4.25 -5.55 2.4" fill="#ec839a" fill-rule="evenodd" stroke="none"/>
  </g>
</svg>
