<?xml version="1.0" encoding="UTF-8" standalone="no"?>
<svg xmlns:xlink="http://www.w3.org/1999/xlink" height="13.35px" width="23.2px" xmlns="http://www.w3.org/2000/svg">
  <g transform="matrix(1.0, 0.0, 0.0, 1.0, 3.9, 1.7)">
    <path d="M-2.55 -0.45 Q-2.4 -1.05 -2.55 -1.7 L8.1 -1.05 12.6 -1.05 Q14.4 -1.35 16.45 1.6 L18.15 3.7 Q17.8 5.35 14.0 5.0 9.15 4.7 7.3 5.85 4.25 7.75 2.1 5.15 L-2.55 -0.45" fill="#e5d395" fill-rule="evenodd" stroke="none"/>
    <path d="M19.3 7.6 Q18.0 10.9 16.6 10.5 L7.3 10.9 Q3.95 12.8 0.6 9.95 -3.5 6.65 -3.9 4.05 L-3.9 2.55 Q-1.65 6.45 2.4 9.55 5.15 10.95 8.1 9.0 15.55 9.35 19.3 7.6" fill="#d4954e" fill-rule="evenodd" stroke="none"/>
    <path d="M18.15 3.7 L18.9 4.6 18.75 5.5 Q18.1 6.9 14.25 6.8 L8.25 7.5 Q3.3 9.55 1.4 6.8 L-3.35 0.65 -2.55 -0.45 2.1 5.15 Q4.25 7.75 7.3 5.85 9.15 4.7 14.0 5.0 17.8 5.35 18.15 3.7" fill="#cf9b50" fill-rule="evenodd" stroke="none"/>
  </g>
</svg>
