<?xml version="1.0" encoding="UTF-8" standalone="no"?>
<svg xmlns:xlink="http://www.w3.org/1999/xlink" height="13.2px" width="31.05px" xmlns="http://www.w3.org/2000/svg">
  <g transform="matrix(1.0, 0.0, 0.0, 1.0, 0.5, 6.6)">
    <path d="M0.0 -5.05 Q1.0 -6.3 2.4 -6.05 M4.1 -4.9 L3.45 -5.0 Q2.55 -4.85 1.15 -1.0 0.1 1.95 0.9 3.1 L1.55 3.35 Q8.85 6.25 24.25 6.1 L27.75 5.6 Q29.35 5.2 29.8 4.35 L30.05 0.35 Q29.85 -1.1 28.4 -1.5 L26.2 -1.8 Q21.15 -1.55 15.25 -3.15 8.3 -4.75 4.1 -4.9" fill="none" stroke="#000000" stroke-linecap="round" stroke-linejoin="round" stroke-width="1.0"/>
    <path d="M1.55 3.35 Q0.95 2.95 1.25 1.55 L1.8 -0.2 2.25 -1.6 3.05 -3.85 Q3.55 -4.8 4.1 -4.9 M27.75 5.6 L27.95 2.15 24.1 2.6 M28.4 -1.5 L28.1 0.35 27.95 2.15 M1.8 -0.2 L3.4 0.3 4.7 2.1 6.9 0.85 18.45 2.05" fill="none" stroke="#000000" stroke-linecap="round" stroke-linejoin="round" stroke-width="0.5"/>
  </g>
</svg>
