<?xml version="1.0" encoding="UTF-8" standalone="no"?>
<svg xmlns:xlink="http://www.w3.org/1999/xlink" height="8.65px" width="20.6px" xmlns="http://www.w3.org/2000/svg">
  <g transform="matrix(1.0, 0.0, 0.0, 1.0, 10.3, 4.45)">
    <path d="M6.9 1.65 Q4.8 3.35 1.2 3.55 -6.7 4.1 -9.7 -3.3 -7.9 -3.6 -6.85 -3.3 L-4.9 -1.9 -3.1 -3.6 0.55 -3.85 3.15 -3.85 Q7.05 -2.35 6.9 1.65" fill="#ec839a" fill-rule="evenodd" stroke="none"/>
    <path d="M3.15 -3.85 L5.35 -3.45 9.7 -3.1 Q9.0 0.1 6.9 1.65 7.05 -2.35 3.15 -3.85" fill="#3a1616" fill-rule="evenodd" stroke="none"/>
    <path d="M3.15 -3.85 L5.35 -3.45 9.7 -3.1 Q9.0 0.1 6.9 1.65 4.8 3.35 1.2 3.55 -6.7 4.1 -9.7 -3.3 -7.9 -3.6 -6.85 -3.3 L-4.9 -1.9 -3.1 -3.6 0.55 -3.85 3.15 -3.85 Z" fill="none" stroke="#000000" stroke-linecap="round" stroke-linejoin="round" stroke-width="1.2000000000000002"/>
  </g>
</svg>
