<?xml version="1.0" encoding="UTF-8" standalone="no"?>
<svg xmlns:xlink="http://www.w3.org/1999/xlink" height="7.75px" width="12.75px" xmlns="http://www.w3.org/2000/svg">
  <g transform="matrix(1.0, 0.0, 0.0, 1.0, 6.55, 3.9)">
    <path d="M-3.6 -1.85 Q-2.25 -3.0 -0.15 -3.2 L-0.85 -1.75 -1.55 -0.25 -3.6 -1.85" fill="#ffffff" fill-rule="evenodd" stroke="none"/>
    <path d="M-3.6 -1.85 L-1.55 -0.25 -0.85 -1.75 Q3.65 -0.65 4.85 2.45 L0.4 3.2 Q-5.45 3.4 -5.95 2.4 -5.25 -0.45 -3.6 -1.85" fill="#ec839a" fill-rule="evenodd" stroke="none"/>
    <path d="M-0.85 -1.75 L-0.15 -3.2 0.75 -3.3 Q5.05 -2.65 5.6 2.0 5.45 2.3 4.85 2.45 3.65 -0.65 -0.85 -1.75" fill="#7b2a3c" fill-rule="evenodd" stroke="none"/>
    <path d="M-0.15 -3.2 Q-2.25 -3.0 -3.6 -1.85 -5.25 -0.45 -5.95 2.4 -5.45 3.4 0.4 3.2 L4.85 2.45 Q5.45 2.3 5.6 2.0 5.05 -2.65 0.75 -3.3 L-0.15 -3.2" fill="none" stroke="#000000" stroke-linecap="round" stroke-linejoin="round" stroke-width="1.2000000000000002"/>
    <path d="M-3.6 -1.85 L-1.55 -0.25 -0.85 -1.75 -0.15 -3.2 Z" fill="none" stroke="#000000" stroke-linecap="round" stroke-linejoin="round" stroke-width="0.5"/>
  </g>
</svg>
