<?xml version="1.0" encoding="UTF-8" standalone="no"?>
<svg xmlns:xlink="http://www.w3.org/1999/xlink" height="15.8px" width="40.8px" xmlns="http://www.w3.org/2000/svg">
  <g transform="matrix(1.0, 0.0, 0.0, 1.0, 23.35, 9.15)">
    <path d="M-6.2 -3.25 L-6.1 -3.25 5.35 -0.1 10.15 0.9 16.8 2.3 Q11.95 6.2 3.5 6.0 1.15 0.0 -6.2 -3.25" fill="#38131b" fill-rule="evenodd" stroke="none"/>
    <path d="M3.5 6.0 Q-1.25 5.9 -7.05 4.4 -20.85 0.65 -22.7 -8.5 L-12.7 -5.2 -6.35 -3.25 -6.2 -3.25 Q1.15 0.0 3.5 6.0" fill="#ec839a" fill-rule="evenodd" stroke="none"/>
    <path d="M-6.2 -3.25 L-6.1 -3.25 5.35 -0.1 10.15 0.9 16.8 2.3 Q11.95 6.2 3.5 6.0 -1.25 5.9 -7.05 4.4 -20.85 0.65 -22.7 -8.5 L-12.7 -5.2 -6.35 -3.25 -6.2 -3.25 Z" fill="none" stroke="#000000" stroke-linecap="round" stroke-linejoin="round" stroke-width="1.3"/>
  </g>
</svg>
