<?xml version="1.0" encoding="UTF-8" standalone="no"?>
<svg xmlns:xlink="http://www.w3.org/1999/xlink" height="8.6px" width="19.5px" xmlns="http://www.w3.org/2000/svg">
  <g transform="matrix(1.0, 0.0, 0.0, 1.0, 9.75, 4.55)">
    <path d="M-6.9 -3.55 Q-6.65 -1.9 -4.8 -1.15 -0.85 -0.85 2.8 -1.0 L3.0 -1.0 Q6.2 0.15 7.1 1.55 4.95 3.35 1.15 3.65 -9.25 2.8 -9.35 -2.9 -8.15 -3.15 -6.9 -3.55" fill="#ec839a" fill-rule="evenodd" stroke="none"/>
    <path d="M3.0 -1.0 L2.8 -1.0 Q-0.85 -0.85 -4.8 -1.15 -6.65 -1.9 -6.9 -3.55 -0.15 -4.65 6.7 -3.65 6.8 -2.1 5.35 -1.15 L3.0 -1.0" fill="#ffffff" fill-rule="evenodd" stroke="none"/>
    <path d="M7.1 1.55 Q6.2 0.15 3.0 -1.0 L5.35 -1.15 Q6.8 -2.1 6.7 -3.65 L9.35 -3.05 Q9.25 -0.2 7.1 1.55" fill="#462325" fill-rule="evenodd" stroke="none"/>
    <path d="M3.0 -1.0 L2.8 -1.0 Q-0.85 -0.85 -4.8 -1.15 -6.65 -1.9 -6.9 -3.55 M3.0 -1.0 L5.35 -1.15 Q6.8 -2.1 6.7 -3.65" fill="none" stroke="#000000" stroke-linecap="round" stroke-linejoin="round" stroke-width="0.5"/>
    <path d="M-6.9 -3.55 Q-8.15 -3.15 -9.35 -2.9 -9.25 2.8 1.15 3.65 4.95 3.35 7.1 1.55 9.25 -0.2 9.35 -3.05 L6.7 -3.65 Q-0.15 -4.65 -6.9 -3.55" fill="none" stroke="#000000" stroke-linecap="round" stroke-linejoin="round" stroke-width="0.8"/>
  </g>
</svg>
