<?xml version="1.0" encoding="UTF-8" standalone="no"?>
<svg xmlns:xlink="http://www.w3.org/1999/xlink" height="14.15px" width="31.25px" xmlns="http://www.w3.org/2000/svg">
  <g transform="matrix(1.0, 0.0, 0.0, 1.0, 17.5, 8.1)">
    <path d="M-0.75 -6.0 Q4.0 -4.95 9.25 -3.05 10.95 -2.55 12.65 -0.95 13.75 3.7 12.8 5.5 L10.2 5.4 8.2 5.3 Q5.4 -2.55 -0.75 -6.0" fill="#4d1414" fill-rule="evenodd" stroke="none"/>
    <path d="M8.2 5.3 Q-7.4 4.7 -17.0 5.55 -16.8 -2.35 -14.15 -7.6 -7.85 -7.75 -0.75 -6.0 5.4 -2.55 8.2 5.3" fill="#ec839a" fill-rule="evenodd" stroke="none"/>
    <path d="M-0.75 -6.0 Q4.0 -4.95 9.25 -3.05 10.95 -2.55 12.65 -0.95 13.75 3.7 12.8 5.5 L10.2 5.4 8.2 5.3 Q-7.4 4.7 -17.0 5.55 -16.8 -2.35 -14.15 -7.6 -7.85 -7.75 -0.75 -6.0 Z" fill="none" stroke="#000000" stroke-linecap="round" stroke-linejoin="round" stroke-width="1.0"/>
  </g>
</svg>
