<?xml version="1.0" encoding="UTF-8" standalone="no"?>
<svg xmlns:xlink="http://www.w3.org/1999/xlink" height="17.7px" width="31.8px" xmlns="http://www.w3.org/2000/svg">
  <g transform="matrix(1.0, 0.0, 0.0, 1.0, 16.0, 8.85)">
    <path d="M-14.5 -4.15 Q-13.6 -4.15 -10.7 -2.95 0.05 -7.25 12.5 -2.2 L15.1 -3.05 Q13.9 0.5 11.2 4.75 10.35 4.15 9.35 4.35 9.25 3.55 7.65 2.35 L6.1 1.5 Q-0.9 -2.3 -11.5 -0.15 L-11.55 -0.35 -14.5 -4.15" fill="#381c1f" fill-rule="evenodd" stroke="none"/>
    <path d="M15.1 -3.05 L12.5 -2.2 Q0.05 -7.25 -10.7 -2.95 -13.6 -4.15 -14.5 -4.15 L-15.5 -6.05 -4.45 -7.25 Q4.1 -8.5 15.3 -4.35 L15.1 -3.05 M9.35 4.35 Q10.35 4.15 11.2 4.75 10.85 5.0 10.2 6.35 9.6 7.6 8.55 7.9 L3.75 8.35 -0.9 7.85 -3.5 6.4 -5.7 4.95 Q2.5 6.75 8.0 5.45 9.65 5.2 9.35 4.35" fill="#fbfdfc" fill-rule="evenodd" stroke="none"/>
    <path d="M-11.5 -0.15 Q-0.9 -2.3 6.1 1.5 L7.65 2.35 Q9.25 3.55 9.35 4.35 9.65 5.2 8.0 5.45 2.5 6.75 -5.7 4.95 L-8.35 3.15 -10.5 1.05 -11.5 -0.15" fill="#ec839a" fill-rule="evenodd" stroke="none"/>
    <path d="M15.1 -3.05 L12.5 -2.2 Q0.05 -7.25 -10.7 -2.95 -13.6 -4.15 -14.5 -4.15 L-11.55 -0.35 -11.5 -0.15 Q-0.9 -2.3 6.1 1.5 L7.65 2.35 Q9.25 3.55 9.35 4.35 10.35 4.15 11.2 4.75 13.9 0.5 15.1 -3.05 L15.3 -4.35 Q4.1 -8.5 -4.45 -7.25 L-15.5 -6.05 -14.5 -4.15 M13.7 -6.35 L15.3 -4.35 M11.2 4.75 Q10.85 5.0 10.2 6.35 9.6 7.6 8.55 7.9 L3.75 8.35 -0.9 7.85 -3.5 6.4 -5.7 4.95 -8.35 3.15 -10.5 1.05 -11.5 -0.15 M9.35 4.35 Q9.65 5.2 8.0 5.45 2.5 6.75 -5.7 4.95 M-15.5 -6.05 Q-15.25 -6.8 -12.8 -8.35" fill="none" stroke="#000000" stroke-linecap="round" stroke-linejoin="round" stroke-width="1.0"/>
  </g>
</svg>
