<?xml version="1.0" encoding="UTF-8" standalone="no"?>
<svg xmlns:xlink="http://www.w3.org/1999/xlink" height="15.5px" width="23.65px" xmlns="http://www.w3.org/2000/svg">
  <g transform="matrix(1.0, 0.0, 0.0, 1.0, 11.8, 7.65)">
    <path d="M-6.35 7.35 Q-8.35 7.5 -9.7 5.75 -11.05 3.95 -11.25 0.85 -11.45 -2.3 -10.45 -4.45 -9.5 -6.6 -7.7 -7.0 L-4.0 -6.7 Q-2.1 -6.0 -0.15 -6.0 1.8 -6.0 4.0 -6.75 6.15 -7.55 8.3 -5.9 10.4 -4.25 11.1 -1.25 11.8 1.7 10.45 4.3 9.1 6.85 7.7 6.6 L5.95 6.25 Q5.85 4.7 4.65 2.35 L5.2 2.35 Q7.9 1.1 7.6 -0.55 6.85 -1.9 2.1 -2.0 -1.3 -2.1 -3.45 -0.65 -6.75 2.15 -6.35 7.35" fill="url(#gradient0)" fill-rule="evenodd" stroke="none"/>
    <path d="M5.95 6.25 L1.9 5.8 -2.5 6.6 -6.35 7.35 Q-6.75 2.15 -3.45 -0.65 -1.3 -2.1 2.1 -2.0 6.85 -1.9 7.6 -0.55 7.9 1.1 5.2 2.35 L4.65 2.35 Q5.85 4.7 5.95 6.25 M2.25 3.15 Q2.8 2.75 4.65 2.35 2.8 2.75 2.25 3.15" fill="#ec839a" fill-rule="evenodd" stroke="none"/>
    <path d="M-6.35 7.35 Q-8.35 7.5 -9.7 5.75 -11.05 3.95 -11.25 0.85 -11.45 -2.3 -10.45 -4.45 -9.5 -6.6 -7.7 -7.0 L-4.0 -6.7 Q-2.1 -6.0 -0.15 -6.0 1.8 -6.0 4.0 -6.75 6.15 -7.55 8.3 -5.9 10.4 -4.25 11.1 -1.25 11.8 1.7 10.45 4.3 9.1 6.85 7.7 6.6 L5.95 6.25 1.9 5.8 -2.5 6.6 -6.35 7.35 Q-6.75 2.15 -3.45 -0.65 -1.3 -2.1 2.1 -2.0 6.85 -1.9 7.6 -0.55 7.9 1.1 5.2 2.35 L4.65 2.35 Q5.85 4.7 5.95 6.25 M4.65 2.35 Q2.8 2.75 2.25 3.15" fill="none" stroke="#000000" stroke-linecap="round" stroke-linejoin="round" stroke-width="1.0"/>
  </g>
  <defs>
    <radialGradient cx="0" cy="0" gradientTransform="matrix(0.0179, 0.0, 0.0, 0.0179, 0.9, 4.4)" gradientUnits="userSpaceOnUse" id="gradient0" r="819.2" spreadMethod="pad">
      <stop offset="0.0" stop-color="#481821"/>
      <stop offset="1.0" stop-color="#7e3232"/>
    </radialGradient>
  </defs>
</svg>
