<?xml version="1.0" encoding="UTF-8" standalone="no"?>
<svg xmlns:xlink="http://www.w3.org/1999/xlink" height="23.85px" width="25.0px" xmlns="http://www.w3.org/2000/svg">
  <g transform="matrix(1.0, 0.0, 0.0, 1.0, 12.5, 11.95)">
    <path d="M-10.1 -3.4 L-10.2 -3.45 Q-12.6 -6.75 -10.6 -10.95 -4.8 -8.45 1.5 -8.4 7.8 -8.4 9.7 -10.25 11.7 -6.85 10.15 -3.35 L9.25 -2.8 9.25 0.25 9.65 2.3 11.2 5.65 11.5 7.05 11.4 8.25 Q10.9 10.05 9.1 10.6 L1.35 10.8 Q-4.6 10.45 -7.7 7.9 -9.0 6.4 -9.6 4.45 L-9.95 2.9 Q-10.25 1.15 -10.15 -0.85 L-10.1 -1.15 -10.1 -3.4 Q-4.35 -0.7 3.5 -1.2 7.05 -1.7 9.25 -2.8" fill="none" stroke="#000000" stroke-linecap="round" stroke-linejoin="round" stroke-width="2.0"/>
    <path d="M-9.95 2.9 Q-8.8 4.25 -4.05 5.9 6.7 8.3 11.2 5.65" fill="none" stroke="#000000" stroke-linecap="round" stroke-linejoin="round" stroke-width="1.0"/>
  </g>
</svg>
