<?xml version="1.0" encoding="UTF-8" standalone="no"?>
<svg xmlns:xlink="http://www.w3.org/1999/xlink" height="37.85px" width="26.25px" xmlns="http://www.w3.org/2000/svg">
  <g transform="matrix(1.0, 0.0, 0.0, 1.0, 13.15, 18.95)">
    <path d="M-11.5 -8.6 Q-9.2 -6.45 -5.55 -7.45 -0.55 -11.05 5.25 -11.9 9.4 -10.2 10.55 -7.8 M-10.0 10.2 Q-7.65 12.2 -0.7 13.3 L10.8 12.85" fill="none" stroke="#000000" stroke-linecap="round" stroke-linejoin="round" stroke-width="1.0"/>
    <path d="M-3.5 -14.45 Q1.1 -17.65 5.95 -17.95 10.4 -16.35 12.1 -12.35 10.9 -10.1 10.55 -7.8 9.25 0.25 9.5 7.95 L10.8 12.85 10.9 13.3 Q11.65 15.75 9.8 17.35 6.45 18.35 -1.85 17.45 -6.95 16.35 -8.55 13.95 L-10.0 10.2 Q-10.75 7.55 -11.1 4.05 -11.5 -3.35 -11.5 -8.6 L-12.15 -13.25 Q-8.3 -11.6 -3.5 -14.45" fill="none" stroke="#000000" stroke-linecap="round" stroke-linejoin="round" stroke-width="2.0"/>
  </g>
</svg>
