<?xml version="1.0" encoding="UTF-8" standalone="no"?>
<svg xmlns:xlink="http://www.w3.org/1999/xlink" height="29.65px" width="25.0px" xmlns="http://www.w3.org/2000/svg">
  <g transform="matrix(1.0, 0.0, 0.0, 1.0, 12.5, 14.85)">
    <path d="M-4.5 -3.35 Q-2.55 -3.7 -1.6 0.0 L0.5 6.55 Q2.05 4.7 10.25 4.15 10.05 1.2 10.15 -3.7 L10.25 -12.0 Q-1.05 -10.9 -10.55 -13.85 -11.8 -3.95 -11.3 4.25 -7.15 10.05 -1.1 10.6 -1.25 9.2 -0.2 7.5 L0.5 6.55 M10.25 4.15 Q11.1 6.1 11.4 7.65 12.05 11.5 8.95 12.9 3.95 14.0 0.4 13.75 -6.85 13.2 -10.7 9.15 -11.5 8.2 -11.5 6.8 L-11.3 4.25 M11.4 7.65 Q8.55 11.35 -1.1 10.6" fill="none" stroke="#000000" stroke-linecap="round" stroke-linejoin="round" stroke-width="2.0"/>
  </g>
</svg>
