<?xml version="1.0" encoding="UTF-8" standalone="no"?>
<svg xmlns:xlink="http://www.w3.org/1999/xlink" height="39.1px" width="26.9px" xmlns="http://www.w3.org/2000/svg">
  <g transform="matrix(1.0, 0.0, 0.0, 1.0, 0.0, 19.55)">
    <path d="M4.55 -14.1 L4.2 -14.1 2.6 -14.65 0.0 -17.35 3.05 -19.0 4.75 -19.55 4.8 -19.55 9.95 -18.85 9.95 -14.1 Q6.8 -13.75 4.85 -14.0 L4.55 -14.1 M4.35 -3.55 L2.8 -3.9 0.4 -6.6 2.35 -8.75 8.9 -8.75 Q9.6 -6.55 8.9 -4.1 L4.35 -3.55 M8.8 12.25 L9.7 12.8 Q19.4 16.95 26.85 12.85 27.0 16.1 26.25 18.65 24.6 19.55 22.3 19.05 L22.3 18.15 Q21.4 17.25 20.3 18.15 L20.3 19.25 Q17.95 19.9 15.8 19.25 L15.8 17.5 Q15.05 17.05 14.55 17.5 L14.55 18.75 Q12.8 19.55 11.0 18.75 L11.0 17.6 Q10.2 16.8 9.55 17.3 L9.55 18.0 Q7.65 18.45 5.75 16.95 4.05 11.8 3.9 7.65 5.95 10.35 8.8 12.25" fill="#3c3c3c" fill-rule="evenodd" stroke="none"/>
  </g>
</svg>
