<?xml version="1.0" encoding="UTF-8" standalone="no"?>
<svg xmlns:xlink="http://www.w3.org/1999/xlink" height="52.9px" width="43.75px" xmlns="http://www.w3.org/2000/svg">
  <g transform="matrix(1.0, 0.0, 0.0, 1.0, 21.85, 26.45)">
    <path d="M21.9 -0.05 Q21.9 10.95 15.45 18.7 9.05 26.45 0.0 26.45 -9.05 26.45 -15.5 18.7 -21.85 10.95 -21.85 -0.05 -21.85 -10.95 -15.5 -18.75 -9.05 -26.45 0.0 -26.45 9.05 -26.45 15.45 -18.75 21.9 -10.95 21.9 -0.05 M8.9 -7.0 L2.55 -25.05 -5.05 -7.15 -20.15 -4.7 -6.55 3.9 -10.2 21.5 2.5 9.6 14.0 20.3 11.8 3.1 20.75 -4.95 8.9 -7.0" fill="#4683c6" fill-rule="evenodd" stroke="none"/>
  </g>
</svg>
