<?xml version="1.0" encoding="UTF-8" standalone="no"?>
<svg xmlns:xlink="http://www.w3.org/1999/xlink" height="72.15px" width="48.25px" xmlns="http://www.w3.org/2000/svg">
  <g transform="matrix(1.0, 0.0, 0.0, 1.0, 24.15, 36.1)">
    <path d="M2.35 -30.5 L0.4 -36.1 Q8.35 -27.8 20.85 -30.75 L24.1 -25.5 Q10.3 -22.2 2.35 -30.55 L2.35 -30.5 Q4.65 -16.25 4.85 2.35 L24.1 0.95 24.1 13.1 Q17.7 28.85 3.7 36.05 L3.65 36.05 Q-10.1 35.95 -24.15 19.25 L-24.15 0.9 -18.7 4.5 -18.7 -21.05 Q-4.7 -20.8 2.35 -30.5 M4.85 2.35 L-18.7 4.5 -18.7 19.45 Q-10.2 29.05 2.95 35.65 4.8 23.15 4.85 2.35" fill="#ffe591" fill-rule="evenodd" stroke="none"/>
  </g>
</svg>
