<?xml version="1.0" encoding="UTF-8" standalone="no"?>
<svg xmlns:xlink="http://www.w3.org/1999/xlink" height="77.25px" width="41.15px" xmlns="http://www.w3.org/2000/svg">
  <g transform="matrix(1.0, 0.0, 0.0, 1.0, 20.6, 38.6)">
    <path d="M1.95 -30.05 Q1.05 -28.35 -0.25 -28.05 -1.6 -27.8 -2.5 -29.15 -3.4 -30.5 -3.4 -32.7 -3.4 -34.9 -2.5 -36.6 -1.6 -38.3 -0.25 -38.55 1.05 -38.9 1.95 -37.5 2.85 -36.15 2.9 -33.95 2.85 -31.75 1.95 -30.05 M0.05 -15.25 Q-9.9 -13.25 -20.55 -8.85 L-20.6 -8.85 -19.25 -16.45 Q0.35 -25.0 19.15 -24.65 20.05 -21.05 20.55 -17.0 10.7 -17.45 0.05 -15.25 M2.6 32.7 Q2.6 34.85 1.65 36.6 0.75 38.35 -0.55 38.6 -1.85 38.85 -2.75 37.55 -3.7 36.15 -3.7 33.95 -3.7 31.75 -2.75 30.05 -1.85 28.3 -0.55 28.05 0.75 27.8 1.65 29.1 2.6 30.45 2.6 32.7 M20.0 9.8 L20.5 9.65 19.2 16.6 Q-2.35 24.6 -19.35 23.8 L-20.5 17.75 Q-9.65 17.4 0.75 15.3 10.55 13.3 20.0 9.8" fill="#f1b33c" fill-rule="evenodd" stroke="none"/>
  </g>
</svg>
