<?xml version="1.0" encoding="UTF-8" standalone="no"?>
<svg xmlns:xlink="http://www.w3.org/1999/xlink" height="34.7px" width="49.6px" xmlns="http://www.w3.org/2000/svg">
  <g transform="matrix(1.0, 0.0, 0.0, 1.0, 24.8, 17.35)">
    <path d="M20.05 -3.85 Q21.7 -2.25 22.1 0.55 L22.25 2.35 Q22.25 5.6 20.0 8.45 L24.8 9.05 Q23.9 12.75 17.35 11.0 L17.3 11.0 16.1 11.9 Q2.15 20.55 -15.3 15.5 -19.85 14.2 -24.7 11.9 L-24.8 9.75 Q-14.75 6.9 -11.8 -1.6 -10.4 -5.6 -8.6 -6.75 L-5.8 -7.65 -5.8 -10.05 -3.55 -8.6 Q-5.8 -13.75 -5.35 -17.35 -2.8 -16.15 1.0 -10.85 6.3 -14.65 12.3 -11.55 17.7 -13.7 20.85 -17.3 L21.1 -17.05 Q20.45 -11.45 17.05 -8.9 L19.25 -7.55 20.05 -3.85" fill="#fde8f8" fill-rule="evenodd" stroke="none"/>
  </g>
</svg>
