<?xml version="1.0" encoding="UTF-8" standalone="no"?>
<svg xmlns:xlink="http://www.w3.org/1999/xlink" height="103.65px" width="102.65px" xmlns="http://www.w3.org/2000/svg">
  <g transform="matrix(1.0, 0.0, 0.0, 1.0, 51.35, 51.85)">
    <path d="M-34.85 -46.7 Q-34.8 -47.75 -30.85 -48.6 L-24.4 -49.6 0.95 -50.85 26.2 -49.6 32.75 -48.6 Q36.75 -47.7 36.75 -46.65 L36.55 -46.2 36.15 -45.85 Q31.85 -41.9 31.55 -35.95 L32.0 -35.4 Q33.65 -33.25 35.55 -31.5 50.3 -17.35 50.3 2.65 50.3 22.6 35.55 36.7 31.45 40.65 26.95 43.5 L23.75 45.25 20.85 46.7 17.75 47.9 14.95 48.8 10.9 49.85 6.6 50.5 0.95 50.8 0.0 50.8 -4.95 50.65 Q-22.65 49.2 -35.6 36.7 -50.35 22.6 -50.35 2.65 -50.35 -17.35 -35.6 -31.5 L-31.05 -35.4 -30.7 -35.65 Q-31.05 -40.9 -34.65 -46.15 L-34.85 -46.65 -34.85 -46.7 -34.65 -46.15 Q-33.45 -44.7 -24.4 -43.65 L-16.9 -42.95 0.95 -42.4 Q9.8 -42.4 17.2 -42.85 L26.2 -43.65 Q34.3 -44.6 36.15 -45.85 M-23.95 44.5 Q-23.5 43.45 -22.5 43.0 L-20.25 42.7 -19.75 42.9 Q-19.35 42.15 -18.6 41.95 M-15.5 42.55 Q-11.9 38.2 -7.15 41.75 -4.8 39.95 -1.6 41.9 0.25 39.2 2.7 41.45 3.0 40.05 5.3 39.55 6.9 39.25 8.2 40.8 L10.25 40.7 Q10.8 39.85 12.45 39.65 L12.65 39.65 Q13.75 39.65 14.9 41.6 16.05 41.05 17.95 41.95 L18.05 41.95 17.95 41.85 17.95 41.95 M24.9 40.9 L25.65 42.1 Q26.8 42.3 26.95 43.5 M24.9 40.9 Q24.0 39.95 22.5 40.4 L21.8 40.7 Q20.7 39.1 19.35 39.85 17.9 40.55 17.95 41.85" fill="none" stroke="#47505d" stroke-linecap="round" stroke-linejoin="round" stroke-width="2.0"/>
    <path d="M32.75 -48.6 Q30.25 -47.65 25.05 -46.85 L5.2 -45.4 0.95 -45.3 -4.85 -45.4 -23.2 -46.85 Q-28.4 -47.65 -30.85 -48.6 M-30.7 -35.65 L-28.8 -35.4 Q-0.3 -31.65 27.9 -35.4 L31.55 -35.95" fill="none" stroke="#47505d" stroke-linecap="round" stroke-linejoin="round" stroke-opacity="0.6" stroke-width="1.5"/>
    <path d="M12.7 -14.85 Q6.7 -17.95 1.4 -14.15 -2.4 -19.45 -4.95 -20.65 -5.4 -17.05 -3.15 -11.9 L-5.4 -13.35 -5.4 -10.95 -8.2 -10.05 Q-10.0 -8.9 -11.4 -4.9 -14.35 3.6 -24.4 6.45 L-24.3 8.6 Q-19.45 10.9 -14.9 12.2 2.55 17.25 16.5 8.6 L17.7 7.7 17.75 7.7 20.4 5.15 Q22.65 2.3 22.65 -0.95 L22.5 -2.75 Q22.1 -5.55 20.45 -7.15 L19.65 -10.85 17.45 -12.2 Q20.85 -14.75 21.5 -20.35 L21.25 -20.6 Q18.1 -17.0 12.7 -14.85 L13.95 -14.15 M7.15 -1.55 Q8.35 0.25 9.9 -1.45 11.9 0.4 12.65 -1.45 M23.2 -0.95 L26.8 -0.95 M22.5 -2.75 L26.0 -3.7 M21.5 -20.35 Q26.35 -15.4 20.45 -7.15 M-8.2 -10.05 Q-8.8 -19.45 -6.1 -21.0 L-4.95 -20.65 M-7.55 5.5 Q-12.7 4.55 -12.55 6.45 -11.6 8.3 -7.15 7.5 M-24.4 6.45 Q-24.95 2.7 -28.5 1.3 -32.6 0.1 -35.4 -2.7 -36.4 5.5 -31.4 8.6 -34.1 13.15 -32.35 16.9 -25.45 15.05 -24.45 9.9 L-24.3 8.6 M20.4 5.15 L25.2 5.75 Q24.3 9.45 17.75 7.7" fill="none" stroke="#47505d" stroke-linecap="round" stroke-linejoin="round" stroke-width="1.6"/>
    <path d="M-8.75 -0.15 L-6.1 -0.15 M-5.8 -2.05 L-7.95 -3.55 M-22.5 43.0 Q-28.0 32.85 -21.85 24.45 -21.75 32.4 -19.45 37.65 -20.15 31.35 -17.75 25.9 -16.7 22.0 -17.85 18.35 -10.3 23.0 -14.3 35.6 -15.5 38.65 -15.8 42.6 -16.25 42.15 -17.0 41.95 -17.95 41.8 -18.6 41.95 L-19.45 37.65 M12.65 39.65 Q11.15 35.35 12.45 31.8 14.5 25.15 13.55 19.05 16.95 21.45 17.8 27.95 22.5 21.85 21.8 12.4 28.75 19.35 25.45 29.35 28.0 25.5 31.2 24.75 34.35 23.9 36.15 20.25 36.8 28.15 29.85 32.7 25.8 35.45 24.9 40.9 M17.8 27.95 Q14.9 32.5 17.95 41.85 M25.45 29.35 L24.7 31.3 24.4 32.0 Q22.45 35.6 21.8 40.7" fill="none" stroke="#3a3f56" stroke-linecap="round" stroke-linejoin="round" stroke-width="1.6"/>
  </g>
</svg>
