<?xml version="1.0" encoding="UTF-8" standalone="no"?>
<svg xmlns:xlink="http://www.w3.org/1999/xlink" height="76.9px" width="85.55px" xmlns="http://www.w3.org/2000/svg">
  <g transform="matrix(1.0, 0.0, 0.0, 1.0, 42.8, 38.45)">
    <path d="M38.6 17.35 Q38.05 22.95 34.9 30.15 L34.05 32.1 33.9 33.15 Q31.0 32.55 31.25 29.2 31.75 27.35 30.25 25.45 26.85 21.1 31.2 17.35 31.85 18.55 33.3 19.1 35.8 19.5 37.75 13.65 38.05 15.85 38.6 17.35 M30.3 -37.2 Q35.15 -39.15 40.7 -38.0 L42.75 -37.45 Q42.9 -33.4 39.8 -32.5 39.2 -25.2 32.3 -28.9 26.2 -27.45 24.3 -33.45 27.1 -36.0 30.3 -37.2 M5.4 1.9 L8.4 1.7 Q12.05 1.35 14.8 -1.05 15.55 2.95 13.3 4.75 10.55 7.0 10.5 9.65 9.1 14.65 3.35 12.4 0.15 10.0 -3.05 10.1 -7.4 10.55 -10.2 6.1 -4.2 2.7 5.4 1.9 M18.0 21.15 Q22.85 24.35 17.4 26.35 15.4 30.25 11.15 26.35 5.5 22.7 10.8 20.4 15.8 14.85 18.0 21.15 M3.9 22.25 Q5.2 29.6 1.05 34.25 L-0.15 35.45 Q-1.3 36.75 -1.7 38.45 -7.15 34.9 -3.75 31.4 -1.25 29.4 -1.45 27.4 -1.55 22.75 3.9 22.25 M-10.55 19.95 Q-9.5 17.1 -7.7 16.9 -5.8 16.8 -6.3 20.85 L-7.05 24.6 Q-7.7 27.8 -9.8 26.4 -14.55 23.85 -14.1 21.3 -13.6 17.7 -10.55 19.95 M-27.95 10.1 Q-28.7 10.95 -29.95 11.25 L-34.85 11.0 Q-42.7 8.95 -42.5 3.4 L-39.45 5.5 Q-45.9 -6.5 -40.0 -12.6 -39.9 -8.3 -36.5 -4.4 -37.7 -7.65 -35.6 -9.9 -35.1 -6.7 -31.95 -3.5 -25.6 3.35 -27.95 10.1" fill="#484058" fill-rule="evenodd" stroke="none"/>
  </g>
</svg>
