<?xml version="1.0" encoding="UTF-8" standalone="no"?>
<svg xmlns:xlink="http://www.w3.org/1999/xlink" height="99.95px" width="72.7px" xmlns="http://www.w3.org/2000/svg">
  <g transform="matrix(1.0, 0.0, 0.0, 1.0, 26.0, 170.5)">
    <path d="M15.45 -159.7 Q12.25 -158.5 9.45 -155.95 L7.3 -157.6 Q3.95 -165.85 6.05 -168.15 9.0 -169.4 15.45 -159.7 M27.9 -159.95 L25.85 -160.5 Q29.5 -171.1 31.85 -170.45 34.6 -168.7 33.4 -158.35 L33.15 -157.8 Q30.4 -159.15 27.9 -159.95 M46.6 -164.35 Q47.45 -159.5 39.1 -150.75 40.7 -162.0 46.6 -164.35 M3.0 -148.3 Q-5.5 -152.6 -7.3 -156.6 -4.15 -157.2 0.2 -154.4 5.1 -151.4 3.0 -148.3 M23.9 -81.35 L25.35 -78.9 Q26.35 -75.6 23.65 -74.65 20.8 -73.55 19.1 -75.8 L19.2 -74.95 Q19.8 -71.05 15.7 -71.0 11.35 -70.55 9.65 -75.2 14.05 -74.85 19.05 -76.5 L18.7 -79.8 Q22.15 -78.65 23.9 -81.35 M-8.95 -80.2 L-8.45 -78.85 Q-6.5 -74.3 -10.6 -74.2 -13.5 -73.95 -15.4 -75.8 L-15.15 -75.3 Q-13.4 -71.0 -17.75 -70.55 -22.95 -70.35 -26.0 -76.95 -20.7 -75.6 -15.85 -77.05 L-16.4 -79.35 Q-12.45 -78.4 -8.95 -80.2" fill="#aeaeae" fill-rule="evenodd" stroke="none"/>
    <path d="M11.1 -134.35 Q11.1 -135.55 11.7 -136.45 12.3 -137.3 13.15 -137.3 14.05 -137.3 14.6 -136.45 15.25 -135.55 15.25 -134.35 15.25 -133.1 14.6 -132.25 14.05 -131.35 13.15 -131.35 12.3 -131.35 11.7 -132.25 11.1 -133.1 11.1 -134.35 M35.25 -136.65 Q35.25 -137.85 35.75 -138.7 36.2 -139.6 36.9 -139.6 37.6 -139.6 38.15 -138.7 38.65 -137.85 38.65 -136.65 38.65 -135.5 38.15 -134.6 37.6 -133.8 36.9 -133.8 36.2 -133.8 35.75 -134.6 35.25 -135.5 35.25 -136.65" fill="#000000" fill-opacity="0.7490196" fill-rule="evenodd" stroke="none"/>
  </g>
</svg>
