<?xml version="1.0" encoding="UTF-8" standalone="no"?>
<svg xmlns:xlink="http://www.w3.org/1999/xlink" height="105.95px" width="85.0px" xmlns="http://www.w3.org/2000/svg">
  <g transform="matrix(1.0, 0.0, 0.0, 1.0, 42.5, 53.0)">
    <path d="M-7.2 44.7 L-6.25 46.5 Q-4.35 50.15 -7.3 51.4 -11.2 52.3 -12.4 50.05 -12.35 51.9 -14.3 52.75 -17.9 53.95 -21.25 47.9 L-21.6 47.2 Q-25.35 40.1 -26.75 33.8 L-27.6 33.7 Q-36.4 32.9 -36.5 28.9 L-33.6 28.05 Q-43.75 23.8 -42.3 16.1 L-40.45 16.75 Q-34.45 18.4 -26.9 17.85 -25.1 12.55 -18.9 10.7 -15.25 10.1 -10.8 8.05 L-6.85 6.0 Q-2.05 3.25 -0.9 -0.7 -0.25 -2.7 -0.65 -5.05 L-0.9 -6.2 Q-6.25 -17.5 -1.35 -28.8 -8.5 -31.45 -10.35 -36.15 -15.15 -53.65 -8.55 -52.95 2.8 -49.25 6.25 -38.9 5.15 -45.3 6.45 -47.0 9.5 -48.05 12.6 -38.2 15.85 -39.3 19.3 -38.35 21.9 -47.85 24.15 -47.8 26.05 -47.35 24.95 -36.3 33.65 -52.95 38.7 -52.7 43.75 -51.3 42.1 -37.9 40.85 -27.8 31.5 -27.9 36.8 -9.5 30.65 -4.05 L30.45 -3.9 Q25.35 0.45 18.75 -0.6 17.6 4.4 17.7 15.2 L17.75 16.85 Q17.45 21.7 15.5 25.4 13.75 28.85 10.55 31.4 10.8 37.1 12.4 45.15 L17.35 45.1 17.6 46.15 Q18.3 51.85 12.25 50.3 11.55 51.75 9.85 52.15 6.85 53.0 4.0 47.25 1.7 42.55 -0.5 33.5 -3.75 35.45 -7.2 36.45 -10.1 37.3 -13.1 37.5 -16.05 40.1 -14.05 45.45 L-14.55 45.85 -13.95 45.8 Q-9.5 46.55 -7.2 44.7" fill="#e8d3c8" fill-rule="evenodd" stroke="none"/>
    <path d="M-7.2 44.7 Q-9.5 46.55 -13.95 45.8 L-14.05 45.45 Q-16.05 40.1 -13.1 37.5 -10.1 37.3 -7.2 36.45 -8.95 40.6 -7.2 44.7 M17.35 45.1 L12.4 45.15 Q10.8 37.1 10.55 31.4 13.75 28.85 15.5 25.4 15.65 34.6 17.35 45.1" fill="#e5d3c4" fill-rule="evenodd" stroke="none"/>
  </g>
</svg>
