<?xml version="1.0" encoding="UTF-8" standalone="no"?>
<svg xmlns:xlink="http://www.w3.org/1999/xlink" height="65.35px" width="58.4px" xmlns="http://www.w3.org/2000/svg">
  <g transform="matrix(1.0, 0.0, 0.0, 1.0, 29.2, 32.7)">
    <path d="M-2.15 -23.8 Q-6.8 -21.9 -2.8 -19.95 -4.45 -15.2 -0.05 -18.4 4.45 -15.2 2.8 -19.95 6.8 -21.9 2.15 -23.8 1.65 -25.8 -0.05 -26.85 -1.65 -25.8 -2.15 -23.8 M23.75 -15.8 L24.95 -13.85 Q25.7 -12.05 24.95 -10.0 26.2 -9.05 26.8 -7.6 27.35 -6.25 27.35 -4.5 29.2 -2.45 28.6 0.4 30.3 4.5 27.35 6.65 28.65 11.0 25.4 12.15 25.9 15.85 22.5 17.4 22.9 21.75 18.35 22.1 19.5 25.0 15.6 25.35 15.6 27.95 13.55 27.6 15.15 32.2 12.05 32.65 9.1 32.25 8.55 28.7 6.25 22.8 0.5 22.55 -6.4 22.35 -8.55 28.7 -9.1 32.25 -12.1 32.65 -15.15 32.2 -13.55 27.6 -15.6 27.95 -15.6 25.35 -19.5 25.0 -18.35 22.1 -22.9 21.75 -22.5 17.4 -25.9 15.85 -25.4 12.15 -28.65 11.0 -27.35 6.65 -30.3 4.5 -28.6 0.4 -29.2 -2.45 -27.35 -4.5 -27.35 -6.25 -26.8 -7.6 -26.2 -9.05 -24.95 -10.0 -25.7 -12.05 -24.95 -13.85 L-23.75 -15.8 Q-27.75 -24.3 -25.7 -29.15 L-23.85 -29.7 Q-19.85 -30.4 -15.15 -26.85 -13.25 -30.45 -9.95 -29.75 -7.95 -32.6 -4.9 -31.15 -3.35 -32.8 -0.05 -32.7 3.35 -32.8 4.9 -31.15 7.95 -32.6 9.95 -29.75 13.25 -30.45 15.15 -26.85 19.85 -30.4 23.85 -29.7 L25.7 -29.15 Q27.75 -24.3 23.75 -15.8" fill="#eedffd" fill-rule="evenodd" stroke="none"/>
  </g>
</svg>
