<?xml version="1.0" encoding="UTF-8" standalone="no"?>
<svg xmlns:xlink="http://www.w3.org/1999/xlink" height="126.75px" width="107.55px" xmlns="http://www.w3.org/2000/svg">
  <g transform="matrix(1.0, 0.0, 0.0, 1.0, 53.8, 63.4)">
    <path d="M-31.5 -5.55 Q-32.6 -6.6 -32.95 -8.75 -38.15 -7.8 -38.0 -13.2 -43.9 -15.7 -41.7 -20.1 -44.95 -26.75 -40.1 -28.35 -42.75 -32.8 -39.3 -36.25 -46.15 -32.95 -48.0 -38.6 -56.75 -41.4 -52.25 -49.2 -53.9 -55.25 -47.5 -57.7 -44.8 -64.15 -38.0 -61.4 -32.45 -64.35 -30.0 -57.15 -24.95 -56.05 -23.95 -49.75 -20.8 -55.15 -15.7 -52.65 -13.4 -55.55 -9.15 -54.5 -4.4 -58.2 -0.6 -54.25 3.7 -58.15 8.1 -52.65 12.3 -55.6 15.55 -49.75 13.65 -55.85 18.95 -56.85 19.9 -62.55 27.15 -60.9 33.1 -66.55 36.15 -59.55 44.25 -58.85 41.75 -51.9 46.4 -43.4 38.0 -41.0 36.0 -34.0 31.15 -36.5 L27.15 -36.5 Q33.05 -33.75 30.05 -28.1 34.65 -23.8 29.0 -19.55 31.4 -15.35 26.6 -13.2 25.65 -8.6 21.6 -9.0 23.1 -6.85 21.9 -4.75 26.85 -7.3 30.35 -3.05 35.4 -6.65 37.05 -0.1 42.95 -0.7 40.15 4.2 42.8 9.4 36.95 10.45 36.0 13.6 31.25 12.5 29.55 14.95 26.65 14.0 30.9 16.55 28.9 21.2 34.2 22.9 32.45 27.7 36.5 29.9 34.65 34.05 36.9 30.25 39.9 29.8 41.35 26.25 44.6 28.9 50.05 27.3 50.45 32.7 55.35 33.35 52.95 38.65 52.4 44.6 48.85 45.3 48.9 51.05 44.1 50.2 42.95 54.05 38.15 52.85 37.1 55.2 34.85 54.75 32.25 59.1 28.65 57.7 25.65 63.2 20.65 60.0 17.1 64.05 13.5 61.0 9.1 65.35 4.15 61.7 -0.75 65.05 -5.7 60.1 -9.45 63.7 -13.75 58.15 -17.3 58.5 -18.75 54.15 -22.9 53.95 -23.25 49.1 -26.95 48.05 -26.95 42.9 -29.3 41.95 -28.85 37.2 -31.95 34.9 -30.0 32.05 -32.65 29.65 -30.0 25.45 -32.35 22.2 -30.65 18.9 -34.05 19.5 -36.9 16.15 -44.8 20.6 -47.5 13.65 -52.8 9.95 -48.2 4.2 -46.4 -0.9 -39.95 1.35 -39.05 -3.6 -33.1 -1.85 -33.95 -3.7 -31.5 -5.55" fill="#ffffff" fill-rule="evenodd" stroke="none"/>
  </g>
</svg>
