<?xml version="1.0" encoding="UTF-8" standalone="no"?>
<svg xmlns:xlink="http://www.w3.org/1999/xlink" height="53.7px" width="92.8px" xmlns="http://www.w3.org/2000/svg">
  <g transform="matrix(1.0, 0.0, 0.0, 1.0, 53.7, 106.3)">
    <path d="M8.9 -90.3 Q3.8 -89.9 1.7 -92.6 -0.45 -95.4 -1.0 -101.8 -0.4 -104.8 1.3 -105.6 2.95 -106.3 5.2 -106.3 7.5 -106.3 9.1 -105.65 L9.45 -105.5 11.05 -104.45 Q13.2 -102.65 13.45 -99.4 7.6 -97.15 7.5 -105.05 6.3 -104.3 5.5 -102.55 4.4 -100.1 4.4 -97.25 4.4 -94.8 5.6 -92.7 6.95 -90.35 8.9 -90.3 M39.1 -97.9 Q36.05 -97.45 34.2 -100.0 34.85 -100.4 35.65 -100.4 36.8 -100.4 38.0 -99.35 L39.1 -97.9 M-43.2 -61.85 Q-46.25 -62.65 -49.35 -65.0 L-50.75 -66.2 Q-53.7 -68.9 -53.7 -71.85 -53.7 -73.2 -52.5 -74.85 L-51.25 -76.1 -49.7 -76.6 -47.45 -75.85 Q-45.7 -75.15 -44.3 -75.15 -47.3 -76.6 -49.65 -80.4 -52.15 -84.55 -52.15 -88.85 -52.15 -90.35 -50.95 -92.65 -49.5 -95.4 -47.8 -95.4 -45.25 -95.4 -39.5 -90.55 L-38.0 -89.3 -36.25 -87.8 Q-37.35 -93.3 -37.35 -95.0 -37.35 -97.05 -36.45 -99.0 -35.3 -101.45 -33.6 -101.45 -31.65 -101.45 -30.45 -100.8 -29.65 -100.35 -28.25 -98.25 L-28.95 -97.7 Q-30.4 -96.45 -30.4 -95.1 -30.4 -94.5 -28.6 -93.45 -27.05 -92.55 -26.5 -92.35 L-26.5 -92.2 -26.2 -92.1 -27.7 -90.95 Q-28.85 -89.8 -28.85 -88.85 -28.85 -86.4 -23.6 -85.25 -18.9 -84.2 -17.4 -84.85 -17.4 -84.5 -18.0 -83.95 -18.6 -83.35 -18.6 -82.7 L-11.0 -70.75 Q-11.45 -69.25 -12.25 -67.9 L-13.45 -66.3 Q-14.6 -64.85 -16.25 -63.55 -18.25 -62.05 -21.6 -60.1 L-22.25 -59.75 -29.2 -55.95 -32.15 -54.15 -34.5 -52.6 Q-39.5 -52.7 -42.35 -54.3 L-44.0 -55.45 Q-45.25 -56.55 -45.5 -57.85 L-45.5 -58.55 Q-45.5 -59.6 -44.9 -60.6 -44.25 -61.65 -43.2 -61.85 L-41.85 -61.6 -41.55 -61.6 -42.0 -61.85 -42.8 -61.85 -43.2 -61.85" fill="#ffffff" fill-rule="evenodd" stroke="none"/>
  </g>
</svg>
