<?xml version="1.0" encoding="UTF-8" standalone="no"?>
<svg xmlns:xlink="http://www.w3.org/1999/xlink" height="73.7px" width="59.6px" xmlns="http://www.w3.org/2000/svg">
  <g transform="matrix(1.0, 0.0, 0.0, 1.0, 29.8, 36.85)">
    <path d="M8.7 -33.2 Q8.05 -33.2 7.6 -32.75 7.1 -32.3 7.1 -31.65 7.1 -31.0 7.6 -30.55 8.05 -30.05 8.7 -30.05 9.3 -30.05 9.8 -30.55 10.25 -31.0 10.25 -31.65 10.25 -32.3 9.8 -32.75 9.3 -33.2 8.7 -33.2 M24.25 25.1 L24.3 25.1 Q24.65 24.85 25.0 24.7 26.6 23.9 27.35 23.9 27.95 23.9 28.55 24.65 L29.05 25.9 28.6 26.95 26.5 29.0 28.6 30.35 29.75 31.5 29.8 31.75 29.25 33.05 Q28.65 33.95 28.05 33.95 27.35 33.95 26.45 33.25 L25.45 32.1 Q25.65 33.5 24.8 34.65 24.05 35.8 23.05 35.8 22.2 35.8 21.6 35.2 20.85 34.6 20.85 33.5 20.85 32.85 21.2 31.4 L21.05 31.4 19.75 32.1 17.9 31.75 Q16.65 31.25 16.65 30.1 16.65 28.95 18.1 28.1 19.6 27.3 20.65 27.75 L20.65 27.55 Q20.15 27.5 19.75 26.5 19.35 25.6 19.35 24.7 L19.55 23.3 Q19.8 22.8 20.6 22.8 22.15 22.8 22.85 23.6 23.45 24.3 23.6 25.9 23.65 25.55 24.25 25.1 M10.85 -29.15 L10.8 -29.3 10.8 -29.2 10.85 -29.15 11.35 -27.75 11.15 -26.75 Q10.8 -26.25 9.8 -26.25 8.4 -26.25 7.7 -27.05 7.05 -27.8 6.95 -29.35 L6.95 -29.2 5.85 -28.4 Q5.25 -28.05 4.65 -28.05 3.95 -28.05 3.45 -28.4 2.9 -28.85 2.9 -29.65 2.9 -30.7 3.65 -31.1 L5.3 -32.1 Q4.35 -31.75 3.5 -33.0 2.75 -34.1 2.75 -35.0 L2.75 -35.15 Q2.8 -35.85 3.45 -36.3 L4.8 -36.65 5.4 -36.6 6.55 -35.85 8.4 -34.25 9.1 -36.25 9.15 -36.4 9.2 -36.4 Q9.55 -36.85 10.6 -36.85 11.1 -36.85 11.85 -35.9 L12.6 -34.65 Q12.6 -34.2 11.7 -32.65 L13.8 -32.35 Q14.4 -32.15 14.55 -31.4 L14.6 -30.7 Q14.6 -30.0 14.1 -29.3 L13.45 -28.8 12.6 -28.6 11.7 -28.85 10.85 -29.15 M22.3 31.1 Q22.8 31.65 23.6 31.65 24.3 31.65 24.85 31.1 25.35 30.6 25.35 29.85 25.35 29.05 24.85 28.55 24.3 28.0 23.6 28.0 22.8 28.0 22.3 28.55 21.75 29.05 21.75 29.85 21.75 30.6 22.3 31.1 M-20.25 -29.05 Q-20.9 -28.4 -21.25 -28.4 -22.25 -28.4 -23.05 -29.0 -23.95 -29.65 -23.95 -30.65 -23.95 -31.5 -23.05 -32.1 -22.25 -32.65 -21.4 -32.65 -20.9 -32.65 -20.5 -32.3 L-21.2 -33.05 Q-21.6 -33.65 -21.6 -34.2 -21.6 -35.0 -21.05 -35.75 -20.4 -36.65 -19.5 -36.65 -18.25 -36.65 -17.85 -36.1 L-17.7 -35.85 -17.05 -33.75 -15.5 -36.2 Q-15.0 -36.65 -13.6 -36.65 L-13.45 -36.65 Q-12.35 -36.65 -11.9 -36.1 L-11.6 -35.35 -11.55 -34.6 Q-11.55 -33.55 -11.7 -33.3 -12.2 -32.5 -14.3 -31.75 -12.7 -31.5 -12.0 -31.05 -11.2 -30.5 -11.2 -29.35 -11.2 -28.6 -11.9 -28.05 -12.7 -27.55 -13.65 -27.55 -14.65 -27.55 -16.2 -28.7 L-16.1 -28.25 Q-16.1 -27.4 -16.65 -26.75 -17.3 -26.1 -18.3 -26.1 -19.8 -26.1 -20.05 -26.85 L-20.15 -29.2 -20.25 -29.05 M-17.4 -33.2 Q-18.1 -33.2 -18.55 -32.75 -19.05 -32.25 -19.05 -31.55 -19.05 -30.85 -18.55 -30.4 -18.1 -29.9 -17.4 -29.9 -16.7 -29.9 -16.2 -30.4 -15.8 -30.85 -15.8 -31.55 -15.8 -32.25 -16.2 -32.75 L-17.4 -33.2 M-20.6 28.65 L-20.7 28.65 -20.7 28.85 -20.6 28.65 -17.85 29.2 Q-17.05 29.6 -17.05 31.1 -17.05 32.0 -17.6 32.7 -18.25 33.4 -19.15 33.4 -19.7 33.4 -20.3 33.0 L-21.45 32.3 -21.45 32.5 Q-20.75 32.75 -20.6 33.35 L-20.5 34.6 Q-20.5 35.2 -21.05 35.95 -21.75 36.85 -22.7 36.85 -23.8 36.85 -24.8 35.45 -25.65 34.2 -25.55 33.35 L-25.45 33.25 -25.45 33.05 -25.55 33.35 -26.05 33.95 Q-26.6 34.5 -27.1 34.5 L-27.7 34.45 -28.75 34.15 Q-29.8 33.7 -29.8 32.85 -29.8 31.95 -29.3 31.05 -28.65 29.95 -27.7 29.95 L-27.2 30.05 -26.7 30.3 -26.7 30.1 Q-27.45 30.15 -28.15 29.0 -28.95 27.85 -28.95 26.75 -28.95 25.75 -28.35 25.35 -27.9 24.95 -26.8 24.95 -25.65 24.95 -24.85 25.45 L-24.6 25.65 Q-23.95 26.15 -23.6 27.2 -23.95 25.75 -23.35 24.7 -22.7 23.5 -21.4 23.5 -20.35 23.5 -19.95 24.1 -19.6 24.6 -19.6 26.1 L-19.65 26.75 -20.6 28.65 M-23.4 28.95 Q-24.1 28.95 -24.6 29.45 -25.1 29.95 -25.1 30.65 -25.1 31.3 -24.6 31.8 -24.1 32.3 -23.4 32.3 -22.7 32.3 -22.25 31.8 -21.75 31.3 -21.75 30.65 -21.75 29.95 -22.25 29.45 -22.7 28.95 -23.4 28.95" fill="#ffffff" fill-rule="evenodd" stroke="none"/>
  </g>
</svg>
