<?xml version="1.0" encoding="UTF-8" standalone="no"?>
<svg xmlns:xlink="http://www.w3.org/1999/xlink" height="99.6px" width="98.0px" xmlns="http://www.w3.org/2000/svg">
  <g transform="matrix(1.0, 0.0, 0.0, 1.0, 49.0, 49.8)">
    <path d="M24.25 -9.45 L26.25 -8.05 Q34.65 0.65 49.0 0.7 45.85 3.9 41.2 4.05 44.25 7.85 49.0 8.25 33.45 24.55 21.35 10.95 21.0 16.5 24.0 20.35 18.65 17.75 15.3 13.25 17.3 31.4 28.9 38.65 L19.8 34.15 Q22.9 43.05 30.05 47.15 19.2 46.65 10.2 49.8 -6.1 49.9 -12.6 34.15 -13.05 39.8 -9.9 46.25 -22.7 36.2 -17.15 12.85 -21.2 17.7 -28.65 20.75 -24.95 17.75 -24.65 13.0 -37.25 19.35 -49.0 11.2 -42.45 8.85 -38.5 4.7 -43.05 5.55 -46.8 2.05 -39.0 2.55 -33.8 -4.85 -30.55 -9.55 -25.7 -11.3 -20.3 -13.2 -13.05 -11.6 -28.5 -17.9 -19.7 -33.35 -25.75 -38.2 -26.65 -48.15 -26.8 -50.75 -24.2 -49.3 -18.9 -44.6 -11.2 -42.35 -1.7 -47.8 10.05 -41.95 14.85 -46.05 22.45 -49.35 24.35 -49.45 24.35 -47.55 25.3 -37.55 19.25 -31.15 25.5 -15.75 10.65 -11.4 18.35 -13.25 24.25 -9.45" fill="#ffeb66" fill-rule="evenodd" stroke="none"/>
  </g>
</svg>
