<?xml version="1.0" encoding="UTF-8" standalone="no"?>
<svg xmlns:xlink="http://www.w3.org/1999/xlink" height="7.2px" width="19.05px" xmlns="http://www.w3.org/2000/svg">
  <g transform="matrix(1.0, 0.0, 0.0, 1.0, 9.5, 3.6)">
    <path d="M4.2 -2.5 Q5.35 -3.75 6.75 -3.6 L8.25 -3.3 9.5 -1.95 Q9.9 0.0 8.05 0.0 9.85 0.1 9.45 1.95 8.45 3.65 6.7 3.6 5.25 3.7 3.6 1.55 L-3.55 1.55 Q-5.15 3.7 -6.6 3.6 -8.4 3.65 -9.35 1.95 -9.8 0.1 -7.95 0.0 -9.85 0.0 -9.45 -1.95 -8.5 -3.7 -6.7 -3.6 -5.3 -3.75 -4.05 -2.45 L0.4 -2.65 4.2 -2.5" fill="#fbffff" fill-rule="evenodd" stroke="none"/>
  </g>
</svg>
