<?xml version="1.0" encoding="UTF-8" standalone="no"?>
<svg xmlns:xlink="http://www.w3.org/1999/xlink" height="27.95px" width="100.85px" xmlns="http://www.w3.org/2000/svg">
  <g transform="matrix(1.0, 0.0, 0.0, 1.0, 41.6, 85.6)">
    <path d="M-12.6 -80.4 L-6.1 -77.8 Q-9.6 -72.4 -5.3 -65.2 -4.8 -62.45 -0.4 -60.7 -10.35 -56.3 -14.2 -58.25 -17.9 -60.15 -13.55 -61.5 -22.25 -60.0 -24.15 -64.35 L-24.55 -65.05 Q-25.2 -67.5 -21.65 -67.75 -32.2 -68.35 -34.6 -72.35 -37.45 -76.75 -24.15 -76.1 -37.75 -78.45 -41.6 -85.6 -27.15 -85.4 -12.6 -80.4" fill="#ffffff" fill-rule="evenodd" stroke="none"/>
    <path d="M55.3 -77.8 Q56.0 -78.9 56.9 -78.9 57.9 -78.9 58.55 -77.8 59.25 -76.7 59.25 -75.15 59.25 -73.5 58.55 -72.35 57.9 -71.3 56.9 -71.3 56.5 -71.3 56.05 -71.55 55.6 -71.85 55.3 -72.35 54.5 -73.5 54.5 -75.15 54.5 -76.7 55.3 -77.8 M49.95 -68.6 Q50.35 -68.3 50.35 -67.6 L49.85 -66.25 49.7 -66.05 48.7 -64.85 Q48.15 -64.35 47.75 -64.55 L47.7 -64.6 Q47.3 -64.8 47.4 -65.55 L47.85 -67.1 48.2 -67.5 49.0 -68.4 49.2 -68.5 49.95 -68.6 M42.0 -64.55 Q41.65 -64.35 41.0 -64.8 L39.95 -66.0 Q39.5 -66.85 39.4 -67.6 39.35 -68.3 39.7 -68.5 L40.7 -68.35 41.75 -67.05 42.3 -65.55 Q42.4 -64.8 42.0 -64.55 M22.55 -78.0 Q23.25 -79.05 24.3 -79.05 25.2 -79.05 25.95 -78.0 26.6 -76.85 26.6 -75.25 26.6 -73.65 25.95 -72.55 25.2 -71.4 24.3 -71.4 23.25 -71.4 22.55 -72.55 21.9 -73.65 21.9 -75.25 21.9 -76.85 22.55 -78.0" fill="#000000" fill-rule="evenodd" stroke="none"/>
  </g>
</svg>
