<?xml version="1.0" encoding="UTF-8" standalone="no"?>
<svg xmlns:xlink="http://www.w3.org/1999/xlink" height="143.8px" width="124.15px" xmlns="http://www.w3.org/2000/svg">
  <g transform="matrix(1.0, 0.0, 0.0, 1.0, 63.1, 71.9)">
    <path d="M-21.2 24.8 L-23.9 23.7 Q-23.65 37.45 -33.65 44.1 L-22.65 63.9 -32.0 65.05 -43.0 46.15 -37.8 69.4 -45.25 69.55 Q-53.4 54.65 -56.25 35.4 L-53.25 31.55 Q-50.55 23.6 -52.4 15.7 L-56.0 18.95 Q-56.3 12.75 -55.0 7.7 L-58.9 6.2 -57.6 5.15 Q-63.05 1.9 -63.1 -1.35 L-59.55 -0.3 Q-64.3 -13.95 -53.8 -22.0 L-53.8 -22.1 -51.35 -24.25 Q-51.0 -12.05 -48.05 -4.15 L-44.8 -6.5 Q-36.4 -11.25 -18.75 -7.15 2.5 -2.3 3.85 -9.65 L6.95 -20.35 Q4.05 -22.5 2.75 -26.0 L4.9 -26.7 Q1.35 -28.55 0.55 -31.55 7.2 -31.25 8.45 -38.75 9.35 -42.7 11.4 -45.85 6.85 -47.9 4.2 -51.7 2.05 -54.55 1.25 -58.45 0.45 -61.1 1.0 -64.0 2.25 -67.25 5.5 -66.0 L14.4 -62.85 14.6 -63.55 14.6 -69.0 Q14.55 -73.25 18.85 -71.25 L19.35 -71.05 32.8 -61.25 Q31.95 -59.1 30.35 -57.35 29.35 -55.15 30.35 -53.9 34.8 -50.05 38.75 -53.9 L38.55 -57.55 39.15 -57.6 Q42.7 -57.3 45.2 -54.85 L51.95 -60.0 Q52.75 -57.75 51.95 -55.0 50.35 -53.1 47.4 -52.6 55.05 -51.7 57.0 -46.2 53.4 -44.5 51.1 -47.45 55.8 -40.7 53.2 -34.5 L54.05 -29.0 61.0 -25.25 Q62.2 -0.3 26.1 -8.75 22.65 1.15 22.3 11.0 20.8 18.95 17.0 26.15 21.4 37.3 20.3 48.7 15.5 59.55 12.75 70.75 L12.25 70.9 12.55 71.7 4.9 71.7 4.35 71.9 1.0 61.85 Q-1.45 58.65 -2.2 54.75 -4.15 42.8 -2.2 30.8 L-2.2 30.05 Q-14.25 29.15 -17.55 26.3 -18.05 25.85 -20.05 25.2 L-21.2 24.8 M9.3 40.3 L8.8 51.55 8.85 52.95 Q10.7 47.05 10.7 44.55 10.75 42.05 9.3 40.3 M-33.5 33.5 L-32.2 34.4 -32.3 31.5 -33.5 33.5" fill="#b08f6a" fill-rule="evenodd" stroke="none"/>
    <path d="M-2.2 30.05 Q-14.25 29.15 -17.55 26.3 -18.05 25.85 -20.05 25.2 L-21.2 24.8" fill="none" stroke="#000000" stroke-linecap="round" stroke-linejoin="round" stroke-width="0.05"/>
  </g>
</svg>
