<?xml version="1.0" encoding="UTF-8" standalone="no"?>
<svg xmlns:xlink="http://www.w3.org/1999/xlink" height="141.65px" width="204.35px" xmlns="http://www.w3.org/2000/svg">
  <g transform="matrix(1.0, 0.0, 0.0, 1.0, 102.2, 70.85)">
    <path d="M55.1 -10.25 L52.35 -10.4 Q51.15 -10.6 51.15 -11.05 51.15 -11.55 52.25 -11.9 L54.85 -12.25 57.5 -11.9 Q58.6 -11.55 58.6 -11.05 58.6 -10.6 57.65 -10.45 L55.1 -10.25" fill="#88200c" fill-rule="evenodd" stroke="none"/>
    <path d="M35.15 -38.9 Q33.3 -41.55 31.85 -45.3 26.7 -52.05 20.8 -50.5 15.4 -46.8 16.6 -42.05 18.2 -47.15 22.6 -46.25 26.95 -44.95 28.95 -40.9 26.6 -42.25 24.4 -39.9 27.1 -40.75 27.35 -38.7 25.55 -37.9 28.35 -33.75 L30.8 -33.2 Q32.6 -35.85 35.15 -38.9 38.4 -34.2 42.95 -32.85 42.0 -36.2 41.75 -39.65 46.55 -32.7 54.65 -28.1 56.0 -34.7 54.2 -40.9 52.6 -38.8 52.35 -35.75 48.35 -42.35 47.6 -50.75 M30.8 -33.2 L30.6 -32.85 Q26.9 -27.35 26.65 -23.9 20.95 -18.5 21.8 -12.05 22.55 -6.25 26.95 -1.9 28.85 -2.85 31.15 -3.15 M38.2 -26.85 Q38.15 -27.7 38.6 -28.0 L39.75 -27.8 Q40.45 -27.3 41.0 -26.4 L41.55 -24.65 Q41.6 -23.8 41.15 -23.55 40.7 -23.25 40.0 -23.75 39.25 -24.2 38.75 -25.1 38.25 -26.05 38.2 -26.85 M1.25 -2.3 Q0.55 -9.95 2.2 -20.65 -0.15 -11.65 -3.4 -8.55 -6.3 -24.4 6.7 -44.45 20.15 -65.8 41.25 -66.9 38.0 -68.9 32.95 -69.55 46.2 -71.2 55.4 -63.1 73.0 -69.8 83.6 -64.7 76.65 -64.35 71.9 -62.85 90.8 -62.9 98.75 -34.55 103.55 -15.6 98.75 -0.45 96.95 -4.55 95.95 -9.5 95.6 10.4 86.45 17.85 85.55 14.75 86.9 11.5 81.5 22.85 72.1 29.55 71.75 27.2 72.5 24.3 69.7 30.0 63.45 33.6 61.2 39.85 55.9 40.8 50.95 39.45 48.2 35.9 47.05 41.6 49.15 46.75 50.85 50.85 55.9 52.75 60.25 52.8 63.2 53.6 71.55 55.8 68.85 63.8 L63.75 64.55 58.25 64.75 53.5 64.3 51.4 63.9 Q51.9 65.85 51.8 68.4 L48.05 69.35 47.8 69.4 44.05 69.8 38.95 69.6 33.3 68.4 Q24.4 61.05 17.95 51.6 17.5 45.5 18.05 38.55 8.0 37.4 -3.0 32.3 0.6 40.8 -6.7 44.35 -5.4 47.75 -3.3 50.0 -1.55 49.95 0.15 50.75 2.45 51.5 4.25 53.85 6.0 56.15 5.4 59.05 L1.7 59.4 Q-1.75 59.65 -5.2 59.55 L-10.4 59.3 Q-12.4 58.65 -12.65 57.3 -17.9 51.35 -20.3 43.95 -22.95 46.15 -27.25 46.8 -26.15 51.05 -23.7 55.05 -12.1 57.25 -14.85 66.0 L-19.2 66.5 -26.2 67.0 -32.05 67.0 Q-33.9 66.45 -34.1 65.15 -34.35 63.8 -34.2 63.55 -40.85 52.0 -43.3 39.55 -41.1 39.4 -39.6 35.45 -36.85 26.7 -39.6 17.95 -50.3 28.35 -66.45 29.45 -81.0 29.9 -86.95 20.85 -97.0 22.45 -99.05 17.85 -97.6 18.75 -96.0 18.65 -101.9 13.5 -101.1 3.05 -100.4 -2.7 -96.95 -6.4 -97.6 -1.25 -93.9 0.6 -87.65 4.35 -86.65 13.3 -86.0 9.3 -86.9 5.55 -81.65 12.45 -85.65 19.15 -62.0 33.15 -45.4 11.1 -28.15 -8.7 1.25 -2.3 2.4 11.45 10.85 15.75 12.2 11.15 11.1 6.35 18.0 25.2 30.4 26.75 L28.55 21.5 Q34.2 29.95 46.4 35.1 L48.2 35.9 Q41.5 29.15 37.85 21.65 M26.1 3.55 Q27.55 1.85 29.65 0.35 28.15 -0.6 26.95 -1.9 25.65 -1.25 24.6 -0.35 M28.35 -33.75 Q17.95 -36.35 16.6 -42.05 M75.55 -34.55 Q75.4 -36.35 78.25 -38.2 76.65 -38.85 75.05 -37.45 77.25 -42.85 81.4 -43.35 85.6 -43.35 85.1 -37.8 87.85 -40.4 87.0 -44.75 81.8 -52.55 74.2 -44.75 74.05 -40.0 70.85 -36.05 L72.45 -33.35 75.55 -34.55 Q82.25 -35.2 85.1 -37.8 M74.2 -44.75 L74.1 -47.35 M54.65 -28.1 Q61.65 -31.5 65.5 -37.2 68.9 -42.25 69.8 -49.05 M65.75 -25.95 Q65.3 -25.15 65.25 -24.4 65.2 -23.7 65.6 -23.45 66.0 -23.2 66.65 -23.6 L67.75 -24.85 Q68.2 -25.6 68.25 -26.35 68.3 -27.1 67.9 -27.3 L66.85 -27.15 Q66.2 -26.75 65.75 -25.95 M65.5 -37.2 Q66.0 -33.0 63.85 -30.25 68.25 -32.9 70.85 -36.05 M55.1 -10.25 L52.35 -10.4 Q51.15 -10.6 51.15 -11.05 51.15 -11.55 52.25 -11.9 L54.85 -12.25 57.5 -11.9 Q58.6 -11.55 58.6 -11.05 58.6 -10.6 57.65 -10.45 L55.1 -10.25 55.1 -8.05 Q60.45 -4.25 64.9 -8.05 M55.1 -8.05 Q50.85 -4.1 46.6 -8.05 M59.45 -59.55 Q67.55 -52.6 65.3 -44.3 62.45 -35.45 56.5 -30.65 M72.45 -33.35 Q76.2 -26.75 77.55 -20.2 84.45 -8.0 73.65 0.8 L74.8 1.9 M32.05 -1.15 L29.65 0.35 Q35.2 4.05 46.25 5.65 53.7 8.05 58.55 5.85 60.5 5.0 62.05 3.35 67.0 3.55 70.0 2.55 L67.75 0.65 M73.65 0.8 Q71.2 2.5 70.0 2.55 71.35 3.95 72.3 5.55 M65.55 17.2 Q64.55 11.35 62.85 9.75 L58.55 5.85 M57.2 7.8 Q58.8 18.1 57.6 22.5 55.35 17.7 52.6 15.65 52.55 20.3 51.25 22.5 48.25 18.55 47.1 13.85 M63.45 33.6 Q66.45 27.8 66.2 21.85 M33.3 68.4 Q32.15 57.85 40.4 57.7 L37.3 54.75 Q33.35 50.45 32.35 46.45 32.1 42.6 32.45 38.75 32.75 35.0 33.65 31.25 M32.45 38.75 L35.5 38.5 Q41.85 37.7 46.4 35.1 M18.05 38.55 L18.05 31.55 M38.95 69.6 Q39.4 65.55 38.2 62.3 M0.4 53.15 Q2.75 56.1 1.7 59.4 M63.75 64.55 Q65.55 61.3 63.8 57.2 M40.4 57.7 L44.85 57.85 Q47.05 58.25 48.55 59.4 51.1 54.5 55.9 52.75 M58.25 64.75 Q60.2 60.0 59.05 56.2 M53.5 64.3 Q55.05 60.4 54.0 57.65 M48.05 69.35 Q48.4 64.65 46.95 61.4 M44.05 69.8 Q45.0 65.6 42.85 61.15 M51.4 63.9 Q50.6 61.0 48.55 59.4 M35.5 38.5 Q34.25 43.35 37.3 54.75 M70.25 -0.85 Q72.1 -0.45 73.65 0.8 M-20.3 43.95 Q-15.8 40.15 -16.1 31.65 -16.25 27.35 -17.65 21.95 M-16.1 31.65 Q-11.2 29.15 -3.85 31.9 L-3.0 32.3 M-5.85 53.35 Q-4.35 56.15 -5.2 59.55 M-12.65 57.3 Q-9.85 52.7 -6.8 51.0 -5.1 50.05 -3.3 50.0 M-23.7 55.05 Q-32.95 55.4 -34.2 63.55 M-27.8 59.15 Q-25.4 62.15 -26.2 67.0 M-20.75 58.55 Q-17.9 61.7 -19.2 66.5 M-86.95 20.85 L-85.65 19.15" fill="none" stroke="#000000" stroke-linecap="round" stroke-linejoin="round" stroke-width="2.0"/>
    <path d="M39.9 -18.2 Q39.65 -20.25 37.3 -21.0 M66.1 -18.45 Q66.9 -19.9 69.05 -21.0" fill="none" stroke="#000000" stroke-linecap="round" stroke-linejoin="round" stroke-width="1.6"/>
  </g>
</svg>
