<?xml version="1.0" encoding="UTF-8" standalone="no"?>
<svg xmlns:xlink="http://www.w3.org/1999/xlink" height="104.85px" width="145.7px" xmlns="http://www.w3.org/2000/svg">
  <g transform="matrix(1.0, 0.0, 0.0, 1.0, 75.2, 100.5)">
    <path d="M51.8 -99.85 L52.2 -99.35 52.4 -98.35 Q52.4 -97.45 51.8 -96.8 51.15 -96.2 50.3 -96.2 49.7 -96.2 49.25 -96.45 L48.75 -96.8 Q48.15 -97.45 48.15 -98.35 L48.3 -99.2 48.75 -99.85 49.25 -100.2 50.3 -100.5 Q51.15 -100.5 51.8 -99.85 M68.35 -100.5 Q69.25 -100.5 69.85 -99.85 70.5 -99.2 70.5 -98.35 70.5 -97.45 69.85 -96.8 69.25 -96.2 68.35 -96.2 67.5 -96.2 66.85 -96.8 66.2 -97.45 66.2 -98.35 66.2 -99.2 66.85 -99.85 67.5 -100.5 68.35 -100.5 M64.0 -91.15 L64.2 -91.65 64.7 -91.85 65.2 -91.65 65.45 -91.15 65.2 -90.65 64.7 -90.45 Q64.45 -90.45 64.2 -90.65 L64.0 -91.15 M58.65 -91.15 L58.45 -90.65 57.95 -90.45 Q57.65 -90.45 57.45 -90.65 L57.25 -91.15 57.45 -91.65 57.95 -91.85 58.45 -91.65 58.65 -91.15" fill="#000000" fill-rule="evenodd" stroke="none"/>
    <path d="M62.55 -87.15 L63.5 -83.5 63.9 -79.9 Q64.45 -76.15 64.05 -72.3 L62.5 -76.45 60.8 -71.9 60.3 -79.5 Q59.9 -84.15 60.55 -87.55 L61.3 -88.2 Q61.85 -87.55 62.55 -87.15" fill="#f87e97" fill-rule="evenodd" stroke="none"/>
    <path d="M69.15 -81.2 L68.2 -80.9 66.8 -86.55 Q67.95 -86.8 69.15 -87.5 69.65 -84.05 69.15 -81.2 M56.7 -77.05 Q55.5 -77.95 54.95 -80.2 L53.35 -86.8 Q55.25 -85.8 57.1 -86.0 56.2 -82.35 56.4 -79.85 L56.7 -77.05" fill="#ffffff" fill-rule="evenodd" stroke="none"/>
    <path d="M51.05 -78.3 Q48.05 -76.9 45.1 -78.3 M44.45 -67.45 Q47.35 -65.95 50.3 -67.45 M41.1 -50.55 Q43.55 -49.35 46.5 -50.55 M42.4 -55.6 Q44.8 -54.3 48.0 -55.6 M44.95 -73.65 Q47.9 -72.45 50.8 -73.65 M49.6 -62.2 Q46.9 -60.6 43.75 -62.25 M41.25 -40.45 L37.25 -40.2 M38.85 -44.0 Q41.1 -43.3 43.85 -44.0 M1.05 3.8 Q2.6 2.15 3.6 0.05 M13.6 -0.4 Q13.4 1.7 10.7 3.85 M21.25 3.6 Q23.35 1.7 23.35 -1.05 M33.55 -1.7 Q32.9 0.55 30.05 2.8 M-48.25 -30.4 Q-47.7 -26.85 -44.95 -28.45 -42.9 -26.05 -40.8 -28.45 M-74.7 -14.4 Q-72.75 -13.35 -70.8 -14.4 -69.1 -13.2 -68.15 -14.4 M-71.8 -17.5 Q-70.8 -16.5 -69.5 -17.5 M-6.65 -33.7 Q-4.75 -32.25 -2.85 -33.7 M-10.3 -41.05 Q-8.5 -39.2 -6.75 -40.4 M-17.4 -35.55 Q-16.05 -33.55 -13.35 -34.2 -11.7 -33.0 -9.55 -34.2 M-37.5 -28.2 Q-35.75 -26.35 -34.45 -28.2 M-41.8 -32.6 Q-40.0 -30.75 -38.25 -32.6 M-11.2 3.55 Q-8.2 1.85 -8.1 0.15 M-31.05 2.0 Q-28.95 0.6 -28.35 -1.3 M-19.45 -0.35 Q-19.55 1.3 -22.05 2.95 M-36.9 -2.75 Q-37.3 -0.7 -39.05 0.5" fill="none" stroke="#000000" stroke-linecap="round" stroke-linejoin="round" stroke-opacity="0.5568628" stroke-width="1.0"/>
  </g>
</svg>
