<?xml version="1.0" encoding="UTF-8" standalone="no"?>
<svg xmlns:xlink="http://www.w3.org/1999/xlink" height="125.6px" width="200.1px" xmlns="http://www.w3.org/2000/svg">
  <g transform="matrix(1.0, 0.0, 0.0, 1.0, 100.05, 62.8)">
    <path d="M75.55 -22.25 L71.7 -22.75 71.65 -20.35 71.4 -15.7 70.9 -9.5 70.2 -4.25 Q68.4 7.1 64.45 13.95 L62.65 16.7 Q66.95 18.65 71.3 23.9 81.35 40.25 72.3 52.2 L70.9 53.6 Q63.2 59.05 50.65 60.75 L41.85 61.55 31.3 61.8 26.65 61.7 21.65 61.75 9.4 61.5 -1.45 60.9 -10.45 59.95 -18.45 58.45 Q-22.85 57.25 -25.55 55.8 -44.75 59.0 -68.2 57.55 -69.3 60.25 -71.65 60.55 -73.95 60.85 -75.7 58.1 L-76.85 55.55 Q-77.15 56.7 -77.9 57.95 -78.7 59.25 -80.35 59.25 -82.05 59.3 -82.85 58.2 L-83.9 56.4 -84.9 57.5 Q-85.75 58.3 -87.8 58.3 -89.9 58.3 -91.35 56.65 L-91.8 56.05 Q-92.95 56.8 -94.4 56.8 -96.35 56.8 -97.7 55.45 -99.05 54.1 -99.05 52.2 -99.05 50.25 -97.7 48.9 -96.35 47.55 -94.4 47.55 -92.95 47.55 -91.8 48.35 L-91.35 47.6 Q-89.9 45.65 -87.8 45.65 -85.75 45.65 -84.25 47.6 L-83.95 48.05 -83.35 46.45 Q-82.15 44.15 -80.5 44.15 -78.85 44.15 -77.65 46.45 L-77.0 48.0 Q-76.6 46.25 -75.7 44.8 -73.95 42.05 -71.5 42.05 -69.05 42.05 -68.0 44.9 -51.7 34.9 -34.85 33.65 -28.35 18.0 -11.9 12.3 -10.15 -5.1 18.35 -7.1 29.8 -7.35 38.85 -2.35 45.25 -8.7 44.95 -17.0 43.6 -37.35 50.2 -49.7 57.5 -61.3 71.05 -61.8 93.2 -61.7 98.65 -38.95 100.95 -28.85 89.75 -23.25 89.4 -21.4 89.05 -21.55 L88.8 -22.95 M71.7 -22.75 Q68.15 -23.65 65.65 -24.6 L65.7 -20.35 65.55 -15.7 65.05 -9.5 64.35 -4.3 63.0 2.35 61.7 7.4 59.45 13.95 57.85 17.75 55.05 23.5 Q58.5 20.8 61.85 17.5 L62.65 16.7 M-34.85 33.65 Q-37.3 43.85 -32.45 50.1 -25.4 53.25 -16.3 55.2 L-7.75 56.65 1.15 57.6 12.5 58.1 24.2 58.0 34.2 57.55 43.95 56.9 54.15 56.25 Q64.5 55.35 70.9 53.6 M55.05 23.5 Q36.3 38.2 14.95 34.7 -10.8 30.5 -11.9 12.3 M38.85 -2.35 Q22.6 7.05 0.65 2.9 M-68.0 44.9 Q-67.0 48.0 -67.05 51.3 -67.1 53.7 -68.2 57.55 M-77.0 48.0 Q-77.45 49.6 -77.45 51.45 -77.45 53.7 -76.85 55.55 M-25.55 55.8 Q-29.85 53.45 -32.45 50.1 M-83.95 48.05 Q-84.5 49.8 -84.5 52.05 -84.5 54.5 -83.9 56.4 M-91.8 48.35 Q-92.8 50.05 -92.8 52.3 -92.8 54.55 -91.8 56.05" fill="none" stroke="#000000" stroke-linecap="round" stroke-linejoin="round" stroke-width="2.0"/>
    <path d="M88.8 -22.95 L84.5 -21.95 Q85.05 -18.2 84.65 -14.35 L83.1 -18.5 81.4 -13.95 80.9 -21.55 77.0 -21.9 77.3 -19.1 Q76.1 -20.0 75.55 -22.25 L73.95 -28.85 72.05 -30.2 M73.95 -28.85 Q75.85 -27.85 77.7 -28.05 79.45 -28.3 81.15 -29.6 L81.9 -30.25 83.15 -29.2 83.4 -29.1 84.05 -28.8 84.5 -28.7 85.5 -28.5 87.4 -28.6 Q88.55 -28.85 89.75 -29.55 L90.0 -29.75 91.95 -31.3 M77.7 -28.05 Q76.8 -24.4 77.0 -21.9 M84.5 -21.95 L84.1 -25.55 83.15 -29.2 M87.4 -28.6 L88.8 -22.95 89.75 -23.25 Q90.25 -26.1 89.75 -29.55 M81.15 -29.6 Q80.5 -26.2 80.9 -21.55" fill="none" stroke="#000000" stroke-linecap="round" stroke-linejoin="round" stroke-width="1.5"/>
  </g>
</svg>
