<?xml version="1.0" encoding="UTF-8" standalone="no"?>
<svg xmlns:xlink="http://www.w3.org/1999/xlink" height="12.0px" width="48.45px" xmlns="http://www.w3.org/2000/svg">
  <g transform="matrix(1.0, 0.0, 0.0, 1.0, 7.6, 52.15)">
    <path d="M3.45 -51.3 Q4.35 -50.3 4.35 -49.0 4.35 -47.75 3.45 -46.9 2.6 -45.95 1.25 -45.95 0.25 -45.95 -0.4 -46.4 L-0.95 -46.9 Q-1.85 -47.75 -1.85 -49.0 -1.85 -50.3 -0.95 -51.3 0.0 -52.15 1.25 -52.15 2.6 -52.15 3.45 -51.3 M38.9 -48.3 Q39.8 -47.4 39.8 -46.2 39.8 -45.0 38.9 -44.25 38.1 -43.35 36.9 -43.35 35.7 -43.35 34.85 -44.25 34.05 -45.0 34.05 -46.2 34.05 -47.4 34.85 -48.3 35.7 -49.1 36.9 -49.1 38.1 -49.1 38.9 -48.3" fill="#000000" fill-rule="evenodd" stroke="none"/>
    <path d="M36.3 -40.35 Q35.5 -40.6 35.5 -40.9 35.5 -41.3 36.3 -41.55 L37.15 -41.7 38.1 -41.8 40.05 -41.55 Q40.85 -41.3 40.85 -40.9 40.85 -40.6 40.05 -40.35 L38.1 -40.15 36.3 -40.35 M-1.95 -45.8 L-1.2 -45.35 -1.0 -44.9 Q-1.0 -44.35 -1.95 -43.95 L-4.25 -43.55 -6.55 -43.95 Q-7.6 -44.35 -7.6 -44.9 -7.6 -45.4 -6.55 -45.8 L-4.25 -46.2 -1.95 -45.8" fill="#ff6699" fill-rule="evenodd" stroke="none"/>
  </g>
</svg>
