<?xml version="1.0" encoding="UTF-8" standalone="no"?>
<svg xmlns:xlink="http://www.w3.org/1999/xlink" height="122.05px" width="169.65px" xmlns="http://www.w3.org/2000/svg">
  <g transform="matrix(1.0, 0.0, 0.0, 1.0, 84.85, 61.05)">
    <path d="M58.05 -51.4 Q65.05 -48.45 68.85 -44.25 L69.75 -45.05 Q74.3 -39.0 80.05 -34.3 L80.1 -34.25 80.15 -34.25 Q84.3 -30.9 84.75 -25.8 L84.75 -22.75 Q84.55 -20.15 83.5 -17.2 80.3 -12.1 76.85 -11.15 L75.15 -10.95 Q73.05 -11.1 70.95 -12.55 L64.7 -20.85 Q60.6 -26.3 54.35 -29.0 50.3 -30.55 47.65 -33.55 40.1 -41.9 43.05 -61.05 45.75 -53.6 58.05 -51.4 M14.25 38.0 Q16.4 38.0 18.35 39.05 19.85 38.0 21.2 38.1 L21.15 36.8 Q26.2 36.6 30.15 35.45 L34.3 33.9 Q37.85 34.5 39.1 36.8 39.85 38.3 39.65 40.55 L39.1 39.85 Q35.35 36.3 30.55 36.8 36.15 37.8 36.75 42.65 33.85 39.85 29.4 39.5 33.05 41.45 33.45 45.85 31.0 41.8 25.4 41.8 26.95 45.75 25.4 48.95 24.1 46.3 21.15 46.2 L21.15 49.9 Q19.05 46.45 15.4 47.3 15.4 49.05 15.0 51.2 11.25 48.2 8.25 47.1 5.55 49.55 7.0 53.45 3.2 51.75 2.1 47.45 -1.35 49.95 -2.2 58.75 -10.05 53.3 -4.3 46.0 L-5.45 44.7 Q-10.35 38.4 -13.6 31.55 L-8.05 31.85 -6.65 32.3 -0.05 34.1 Q-0.5 36.85 3.3 38.85 6.4 37.85 9.55 38.9 12.1 37.85 14.25 38.0 M-34.4 17.7 L-40.7 18.65 -44.2 19.25 Q-74.65 24.75 -68.05 38.25 -58.15 46.8 -55.15 52.55 -52.15 58.2 -56.15 61.0 L-59.9 61.0 Q-59.45 56.95 -67.6 51.15 -74.65 48.55 -78.8 45.75 L-81.9 43.4 Q-87.75 37.65 -81.9 31.45 -80.65 30.15 -78.8 28.85 -75.85 26.6 -71.5 24.25 -60.5 17.0 -45.05 15.15 L-41.35 14.65 -31.1 12.5 Q-38.0 15.6 -34.4 17.7 M-23.75 27.9 L-21.15 25.6 -18.55 25.8 Q-18.6 28.1 -19.2 30.1 -22.7 40.9 -42.6 40.15 L-42.7 40.15 -46.85 39.95 Q-50.65 40.3 -52.55 41.65 -52.0 39.35 -47.4 38.05 L-43.25 37.15 -42.6 37.0 Q-27.45 37.0 -23.75 27.9" fill="#ffff33" fill-rule="evenodd" stroke="none"/>
  </g>
</svg>
