<?xml version="1.0" encoding="UTF-8" standalone="no"?>
<svg xmlns:xlink="http://www.w3.org/1999/xlink" height="157.6px" width="178.15px" xmlns="http://www.w3.org/2000/svg">
  <g transform="matrix(1.0, 0.0, 0.0, 1.0, 89.1, 78.8)">
    <path d="M53.9 -63.3 Q49.5 -55.15 48.35 -46.5 52.65 -47.0 53.7 -49.95 55.3 -56.85 53.9 -63.3 M2.7 -12.65 Q-12.0 -9.3 -0.6 -6.25 -19.9 -2.9 8.1 2.25 -0.55 4.5 7.4 6.35 16.05 6.7 20.4 2.0" fill="none" stroke="#000000" stroke-linecap="round" stroke-linejoin="round" stroke-width="1.3"/>
    <path d="M45.6 -58.95 Q48.4 -63.8 52.85 -68.3 56.55 -66.8 57.15 -60.15 L62.65 -59.55 Q65.2 -64.75 69.95 -67.6 71.25 -66.9 72.15 -64.2 L78.0 -69.8 Q82.65 -74.0 88.05 -77.8 L84.4 -70.35 81.05 -64.2 77.7 -58.8 74.55 -54.1 Q82.5 -48.55 84.05 -43.25 86.3 -34.35 77.8 -30.9 82.25 -38.3 78.85 -43.65 81.7 -38.35 76.5 -34.4 78.3 -37.55 76.55 -40.8 76.7 -38.5 75.6 -36.65 74.5 -32.2 75.6 -27.95 77.05 -25.95 80.9 -24.4 82.4 -18.05 79.15 -14.15 77.8 -12.5 75.45 -11.2 61.15 -6.85 51.8 -11.25 48.0 -6.55 46.35 -1.5 47.2 -1.25 47.8 0.2 48.4 1.95 48.1 4.45 47.85 6.9 46.75 8.65 45.7 10.45 44.5 10.45 43.65 10.45 43.1 9.55 41.45 13.5 39.45 16.3 39.65 28.9 43.15 41.15 40.7 53.4 35.65 64.05 L36.85 72.3 Q31.3 75.5 21.8 72.55 L20.55 64.55 Q17.95 50.1 13.8 36.75 15.95 29.15 16.85 24.15 3.3 23.8 -2.4 20.15 L-3.7 19.55 Q-7.2 28.55 -12.0 36.2 -10.9 44.45 -2.2 59.4 L3.1 67.95 Q-2.5 72.05 -13.4 70.3 L-17.25 62.9 Q-23.0 50.9 -26.55 37.45 -23.3 33.2 -22.35 27.0 -29.45 30.6 -32.3 34.6 -31.15 50.75 -26.85 66.85 L-24.6 74.6 Q-33.35 80.8 -42.65 75.0 L-44.25 67.05 Q-47.65 49.35 -48.8 31.0 -39.85 25.7 -42.35 16.0 -43.05 27.35 -55.25 28.4 -46.8 25.7 -47.7 12.7 -48.55 18.65 -53.3 21.2 -59.9 24.9 -62.15 33.2 -60.95 38.1 -55.25 41.95 -68.1 45.25 -75.35 32.95 -73.65 42.15 -65.4 44.75 -74.9 44.2 -78.5 39.8 -84.1 33.1 -78.85 20.95 -86.8 30.6 -82.55 38.65 -88.1 36.0 -88.1 29.75 -88.05 20.25 -73.75 6.35 -85.8 9.75 -85.25 3.0 -84.75 -3.8 -76.0 -5.2 -80.8 -3.5 -80.8 0.2 -80.85 3.9 -72.25 0.1 -63.7 -3.75 -57.05 -14.55 -50.45 -25.4 -37.9 -22.85 -33.3 -21.85 -30.65 -16.4 -19.75 -22.15 -7.35 -18.35 -2.75 -16.8 0.95 -17.4 L3.25 -18.2 Q8.55 -20.45 12.65 -24.4 5.45 -23.95 5.75 -34.15 9.9 -27.7 16.9 -31.55 21.75 -35.6 26.95 -46.5 32.15 -57.45 45.6 -58.95 39.95 -49.35 40.45 -35.0 41.85 -23.0 53.6 -24.15 49.1 -15.95 42.85 -20.3 42.9 -18.45 45.3 -16.05 37.7 -14.15 35.85 -23.3 36.35 -15.75 33.85 -11.5 34.35 -10.0 35.1 -8.6 36.1 -6.7 37.45 -5.15 39.1 -3.2 41.25 -1.7 L43.9 -0.2 Q44.85 -1.55 45.9 -1.55 L46.35 -1.5 M62.65 -59.55 L66.85 -58.25 67.1 -58.6 71.6 -63.7 72.15 -64.2 M66.85 -58.25 L65.7 -56.8 Q68.0 -51.7 73.05 -52.0 L74.55 -54.1 M43.1 9.55 Q42.8 9.25 42.6 8.65 42.1 7.2 42.2 5.3 L37.3 4.55 Q34.05 3.7 31.6 2.05 29.25 0.4 27.55 -1.9 26.1 -3.85 25.2 -6.25 L22.4 -6.05 Q24.1 -1.85 24.05 0.75 23.95 3.35 20.4 6.75 10.3 13.05 -6.65 10.3 -23.85 5.9 -5.1 6.4 -25.3 3.85 -26.9 -0.7 L-20.35 -0.25 Q-32.0 -4.9 -33.9 -9.2 L-24.5 -9.7 Q-27.45 -11.0 -28.5 -12.95 L-14.15 -13.45 Q-14.7 -16.35 -0.55 -15.25 L1.75 -17.25 0.95 -17.4 M3.25 -18.2 L1.75 -17.25 Q11.5 -19.7 13.65 -22.2 M-0.55 -15.25 Q-1.8 -13.7 -2.25 -11.9 L2.7 -12.65 Q8.75 -12.7 14.2 -8.4 18.35 -8.45 21.25 -9.35 25.4 -10.8 26.7 -14.15 27.05 -9.6 22.2 -6.45 L22.4 -6.05 21.6 -6.05 21.25 -5.85 M22.2 -6.45 L21.6 -6.05 M22.2 -6.45 L21.25 -9.35 M25.2 -6.25 Q31.2 -7.05 33.85 -11.5 M15.85 -25.75 Q15.05 -25.65 12.65 -24.4 M70.7 -35.9 Q67.4 -39.7 62.5 -34.15 L57.45 -34.95 62.9 -31.1 Q64.6 -37.7 70.7 -35.9 M75.6 -36.65 Q74.2 -34.5 71.65 -33.4 74.2 -39.65 72.3 -45.25 68.7 -36.3 55.9 -36.85 L54.15 -36.75 Q49.4 -36.85 44.6 -42.0 52.25 -41.5 56.25 -49.05 57.55 -55.6 57.15 -60.15 M48.05 -13.45 Q49.9 -12.2 51.8 -11.25 M71.8 -16.7 Q74.5 -12.75 79.15 -14.15 M75.5 -23.1 Q76.5 -23.55 77.25 -22.6 M55.9 -36.85 Q60.4 -37.65 64.9 -42.75 M42.2 5.3 L42.3 4.45 Q42.55 1.95 43.65 0.2 L43.9 -0.2 M34.0 8.35 Q33.5 16.3 32.35 23.05 36.8 20.0 39.45 16.3 M18.1 10.85 Q18.25 16.6 16.85 24.15 M35.3 62.15 Q33.55 52.3 30.5 41.45 L28.95 36.2 29.65 34.2 Q31.25 29.15 32.35 23.05 M30.5 41.45 L31.5 37.45 29.65 34.2 M35.65 64.05 L35.3 62.15 M-8.3 -12.2 L-14.15 -13.45 M-24.5 -9.7 L-10.85 -8.45 M-3.7 19.55 Q-8.85 17.05 -13.5 16.9 -15.55 23.15 -22.35 27.0 M-13.5 16.9 Q-12.8 14.65 -12.7 12.1 M-47.7 12.7 Q-47.55 11.2 -47.55 9.45 M-71.0 3.7 L-73.75 6.35 M-62.15 33.2 Q-63.95 26.15 -56.7 17.05 M-30.65 -16.4 Q-47.05 -4.95 -42.35 16.0" fill="none" stroke="#000000" stroke-linecap="round" stroke-linejoin="round" stroke-width="2.0"/>
    <path d="M77.7 -58.8 Q71.25 -56.25 67.1 -58.6 M27.55 -1.9 Q31.7 -3.85 35.1 -8.6 M71.6 -63.7 Q76.5 -62.6 81.05 -64.2 M78.0 -69.8 Q82.05 -68.95 84.4 -70.35 M35.3 62.15 Q29.3 68.1 20.55 64.55 M41.25 -1.7 Q40.05 1.9 37.3 4.55 M37.45 -5.15 Q35.9 0.2 31.6 2.05 M-17.25 62.9 Q-4.55 63.4 -2.2 59.4 M-44.25 67.05 Q-35.05 71.3 -26.85 66.85" fill="none" stroke="#000000" stroke-linecap="round" stroke-linejoin="round" stroke-opacity="0.70980394" stroke-width="1.3"/>
  </g>
</svg>
