<?xml version="1.0" encoding="UTF-8" standalone="no"?>
<svg xmlns:xlink="http://www.w3.org/1999/xlink" height="52.55px" width="84.7px" xmlns="http://www.w3.org/2000/svg">
  <g transform="matrix(1.0, 0.0, 0.0, 1.0, 42.35, 26.3)">
    <path d="M26.45 -12.5 L30.8 -26.3 Q41.75 -16.5 42.35 -7.75 L26.45 -12.5 M8.8 -1.65 L1.05 -1.1 Q1.5 -5.55 4.35 -8.1 6.9 -6.55 8.8 -1.65 M38.8 5.75 Q32.85 19.7 11.7 25.0 L6.8 26.1 6.8 19.85 -5.7 20.15 -1.65 25.95 Q-6.8 26.65 -11.55 25.75 -26.35 22.95 -38.55 4.9 L-22.5 7.7 -23.5 12.5 -21.2 12.8 -21.4 13.65 -9.8 15.05 -9.75 9.25 Q3.2 10.95 13.9 8.25 L12.15 14.2 15.35 14.0 Q19.7 13.55 23.0 12.45 26.5 11.6 29.1 10.15 L27.55 5.85 38.8 5.75 M-31.1 -23.05 Q-25.95 -18.05 -23.1 -12.7 -22.0 -10.7 -21.3 -8.6 L-23.1 -8.3 Q-32.7 -7.05 -42.35 -3.85 -37.8 -14.75 -31.1 -23.05" fill="#eb1c24" fill-rule="evenodd" stroke="none"/>
  </g>
</svg>
