<?xml version="1.0" encoding="UTF-8" standalone="no"?>
<svg xmlns:xlink="http://www.w3.org/1999/xlink" height="150.65px" width="163.5px" xmlns="http://www.w3.org/2000/svg">
  <g transform="matrix(1.0, 0.0, 0.0, 1.0, 81.75, 75.35)">
    <path d="M4.7 -75.35 Q22.0 -75.1 28.7 -63.15 L29.25 -62.0 Q29.25 -61.95 29.35 -61.95 L29.35 -61.9 Q31.1 -58.2 32.05 -53.55 33.4 -46.05 32.4 -35.9 37.2 -36.05 39.95 -32.25 L38.35 36.1 -38.25 36.1 -38.25 -5.75 -33.1 -10.3 Q-32.15 -14.15 -32.05 -16.95 -31.85 -25.45 -39.4 -23.9 L-39.4 -32.4 Q-33.05 -37.8 -24.1 -37.25 -25.4 -53.85 -20.2 -63.15 -18.25 -66.8 -15.2 -69.35 -8.45 -75.15 3.3 -75.35 L4.7 -75.35 M56.1 45.7 L49.35 45.7 Q44.5 36.45 49.35 27.95 59.9 17.35 70.55 22.15 78.65 26.55 81.75 36.85 L72.95 41.85 Q70.25 32.7 61.4 33.95 54.9 36.95 56.1 45.7 M20.65 -19.35 Q14.25 -26.6 5.2 -26.6 -3.9 -26.6 -10.25 -19.35 -16.7 -12.15 -16.7 -1.9 -16.7 1.1 -16.1 3.85 L26.55 3.85 Q27.15 1.1 27.15 -1.9 27.15 -9.1 23.95 -14.75 22.6 -17.15 20.65 -19.35 M7.9 -32.45 L16.0 -32.45 24.9 -32.3 24.9 -47.25 -14.4 -47.25 -14.4 -32.4 7.45 -32.45 7.9 -32.45 M1.1 -52.95 Q2.3 -57.6 0.65 -61.35 L-0.35 -63.15 -2.2 -65.6 Q-6.35 -70.4 -11.1 -67.7 L-12.65 -66.6 Q-14.25 -65.2 -15.1 -63.15 -16.7 -59.25 -15.35 -52.95 L1.1 -52.95 M10.7 -50.9 L6.45 -56.45 3.45 -50.9 10.7 -50.9 M16.15 -67.7 L15.0 -66.9 Q13.05 -65.5 12.2 -63.15 10.65 -59.25 12.0 -52.95 L28.45 -52.95 Q29.6 -57.6 27.95 -61.35 L26.85 -63.15 Q22.0 -71.05 16.15 -67.7 M7.8 75.3 L-27.6 75.3 -27.6 68.25 7.8 68.25 7.8 75.3 M-6.85 18.75 L-7.15 18.75 Q-8.15 18.75 -8.95 19.4 -9.7 20.2 -9.7 21.35 -9.7 22.4 -8.95 23.2 -8.15 24.0 -7.15 24.0 -6.05 24.0 -5.25 23.2 -4.5 22.4 -4.5 21.35 -4.5 20.6 -4.85 20.1 L-5.25 19.4 Q-5.95 18.8 -6.85 18.75 M12.3 75.3 L12.3 68.25 47.55 68.25 47.55 75.3 12.3 75.3 M-80.8 44.7 Q-83.7 35.25 -77.65 28.75 -71.45 23.75 -65.65 23.75 -62.1 23.75 -58.75 25.5 -56.35 26.7 -54.1 28.75 -47.3 36.15 -50.4 43.65 L-57.75 43.65 Q-57.35 39.7 -58.75 37.35 -60.55 34.5 -65.3 34.3 L-65.65 34.3 Q-72.45 34.5 -71.85 44.7 L-80.8 44.7" fill="#cccccc" fill-rule="evenodd" stroke="none"/>
  </g>
</svg>
