<?xml version="1.0" encoding="UTF-8" standalone="no"?>
<svg xmlns:xlink="http://www.w3.org/1999/xlink" height="75.55px" width="96.45px" xmlns="http://www.w3.org/2000/svg">
  <g transform="matrix(1.0, 0.0, 0.0, 1.0, 48.2, 37.8)">
    <path d="M9.0 -11.1 Q9.0 -12.35 9.5 -13.25 10.0 -14.1 10.8 -14.1 11.5 -14.1 12.05 -13.25 12.5 -12.35 12.5 -11.1 12.5 -9.85 12.05 -9.0 11.5 -8.05 10.8 -8.05 10.0 -8.05 9.5 -9.0 9.0 -9.85 9.0 -11.1 M-13.3 -12.25 Q-13.3 -13.4 -12.8 -14.2 -12.2 -15.0 -11.4 -15.0 -10.6 -15.0 -10.1 -14.2 -9.55 -13.4 -9.55 -12.25 -9.55 -11.1 -10.1 -10.3 -10.6 -9.5 -11.4 -9.5 -12.2 -9.5 -12.8 -10.3 -13.3 -11.1 -13.3 -12.25" fill="#2d2c38" fill-rule="evenodd" stroke="none"/>
    <path d="M7.35 -28.3 Q14.15 -36.2 24.25 -34.75 27.1 -34.25 28.75 -32.9 30.55 -16.5 19.45 -10.8 20.65 -4.7 18.25 -0.8 17.3 0.9 15.65 2.15 L21.4 -1.15 Q24.25 -3.7 30.55 -4.2 L47.25 -4.2 Q47.15 8.4 35.15 8.75 29.45 18.45 22.1 12.7 17.85 16.7 14.1 14.15 16.25 23.2 11.8 27.7 19.65 33.35 11.8 32.1 13.85 36.2 9.0 33.75 6.9 40.85 4.85 31.15 -0.85 32.45 -5.35 31.25 -7.15 40.15 -10.1 33.55 -15.3 36.25 -12.75 30.8 -19.8 33.45 -13.2 26.65 L-13.7 26.1 Q-17.65 20.4 -14.95 14.65 -19.6 18.7 -22.65 12.8 -31.5 19.15 -35.7 9.2 -48.55 10.05 -47.05 -3.1 L-31.95 -3.55 Q-26.7 -3.95 -23.25 -1.4 -19.8 2.2 -13.2 4.15 -22.7 -1.15 -22.2 -10.9 -35.45 -21.85 -29.0 -36.75 -13.35 -37.45 -8.7 -28.35 -1.45 -33.15 7.35 -28.3 9.4 -27.15 11.55 -25.5 M2.8 -9.05 Q1.95 -7.8 1.0 -7.8 1.3 -1.6 -1.0 -3.0 -2.95 -5.05 -2.35 -7.95 -3.2 -7.95 -4.1 -9.05 M28.75 -32.9 Q18.65 -27.65 16.05 -18.85 19.25 -14.8 19.45 -10.8 M15.65 2.15 Q14.15 3.3 12.2 4.15 L11.0 4.6 M11.8 27.7 Q9.85 29.6 6.7 30.7 L4.85 31.15 M-8.7 -28.35 L-12.0 -25.5 M1.0 -7.8 Q0.2 -7.8 -0.65 -9.05 -1.5 -7.95 -2.35 -7.95 M-29.0 -36.75 Q-19.35 -28.8 -17.45 -19.55 -22.2 -15.7 -22.2 -10.9 M-5.35 31.25 Q-9.85 30.2 -13.2 26.65" fill="none" stroke="#2d2c38" stroke-linecap="round" stroke-linejoin="round" stroke-width="2.0"/>
  </g>
</svg>
