<?xml version="1.0" encoding="UTF-8" standalone="no"?>
<svg xmlns:xlink="http://www.w3.org/1999/xlink" height="18.45px" width="35.3px" xmlns="http://www.w3.org/2000/svg">
  <g transform="matrix(1.0, 0.0, 0.0, 1.0, 16.45, 142.8)">
    <path d="M12.8 -139.95 Q17.55 -141.55 18.85 -135.35 18.85 -125.3 12.65 -127.6 13.9 -127.6 14.85 -129.4 15.75 -131.25 15.75 -133.8 L15.5 -136.25 Q14.5 -135.4 13.4 -135.15 11.55 -134.85 9.75 -136.55 10.0 -137.45 10.4 -138.2 11.3 -140.0 12.65 -140.0 L12.8 -139.95 M-10.35 -137.85 Q-11.25 -137.2 -12.15 -136.95 L-14.85 -137.05 -16.45 -137.85 -15.6 -140.6 Q-14.7 -142.65 -13.35 -142.65 -8.45 -143.65 -7.7 -138.3 -7.0 -126.8 -13.35 -128.65 -12.1 -128.65 -11.15 -130.7 -10.25 -132.75 -10.25 -135.65 L-10.35 -137.85" fill="#ffffff" fill-rule="evenodd" stroke="none"/>
    <path d="M3.55 -128.65 Q3.8 -125.05 1.9 -124.45 0.05 -123.85 -0.4 -126.35 L-0.4 -128.9 Q0.5 -128.65 1.7 -129.9 2.6 -128.85 3.55 -128.65" fill="#ffe9fe" fill-rule="evenodd" stroke="none"/>
  </g>
</svg>
