<?xml version="1.0" encoding="UTF-8" standalone="no"?>
<svg xmlns:xlink="http://www.w3.org/1999/xlink" height="111.5px" width="48.05px" xmlns="http://www.w3.org/2000/svg">
  <g transform="matrix(1.0, 0.0, 0.0, 1.0, 24.05, 55.75)">
    <path d="M15.4 10.4 L15.35 10.4 Q14.1 10.4 13.1 8.65 12.25 6.9 12.25 4.45 12.25 2.8 12.6 1.45 15.6 5.0 18.55 3.75 L18.55 4.45 Q18.55 6.9 17.6 8.65 17.1 9.65 16.45 10.1 L15.4 10.4 M23.0 22.8 L22.9 27.1 Q12.85 29.65 2.85 24.4 2.9 22.05 2.2 19.7 12.1 25.6 23.0 22.8 M23.25 31.05 L24.0 34.75 20.55 35.2 Q21.3 48.35 18.1 55.4 16.4 56.4 14.65 54.4 18.4 47.2 17.4 35.15 9.6 34.55 1.8 29.15 L2.5 26.75 Q12.85 31.45 23.25 31.05" fill="#f9edb4" fill-rule="evenodd" stroke="none"/>
    <path d="M-20.3 -54.65 Q-14.4 -31.3 -2.2 -11.35 L-6.3 -13.65 -5.25 -6.65 Q-29.6 -20.8 -22.4 -55.75 L-20.3 -54.65" fill="#ffeeb3" fill-rule="evenodd" stroke="none"/>
  </g>
</svg>
