<?xml version="1.0" encoding="UTF-8" standalone="no"?>
<svg xmlns:xlink="http://www.w3.org/1999/xlink" height="62.55px" width="65.85px" xmlns="http://www.w3.org/2000/svg">
  <g transform="matrix(1.0, 0.0, 0.0, 1.0, 32.95, 31.3)">
    <path d="M-22.45 -9.0 Q-22.0 -11.05 -21.15 -12.85 L-24.2 -19.05 -18.4 -16.75 -16.55 -18.5 -17.8 -26.05 -13.35 -21.0 -9.35 -22.5 -7.85 -29.45 -4.0 -23.75 0.15 -24.0 4.7 -31.3 5.95 -23.4 11.45 -21.6 17.3 -29.1 15.45 -19.55 17.5 -17.7 23.9 -20.0 21.2 -12.95 22.55 -10.15 32.2 -13.1 25.05 -6.15 25.75 -0.7 32.9 1.15 25.65 4.9 25.25 8.9 31.45 12.9 24.6 12.15 23.45 14.55 26.65 20.45 20.7 17.95 17.95 20.25 20.25 26.05 15.65 22.1 13.0 24.15 12.6 30.2 8.2 26.2 4.3 26.75 3.6 31.1 1.5 26.7 -2.35 26.45 -6.3 31.25 -7.95 25.5 -11.85 24.2 -15.4 27.45 -14.3 22.85 -18.1 20.5 -22.65 22.55 -21.3 17.1 Q-22.45 15.5 -23.15 13.75 L-30.0 16.75 -24.05 9.95 -25.15 6.3 -32.95 1.9 -25.3 1.9 Q-25.3 -0.55 -24.85 -2.1 L-24.2 -3.5 -31.1 -10.8 -22.45 -9.0" fill="#bfeaff" fill-rule="evenodd" stroke="none"/>
  </g>
</svg>
