<?xml version="1.0" encoding="UTF-8" standalone="no"?>
<svg xmlns:xlink="http://www.w3.org/1999/xlink" height="68.95px" width="86.4px" xmlns="http://www.w3.org/2000/svg">
  <g transform="matrix(1.0, 0.0, 0.0, 1.0, 43.2, 34.5)">
    <path d="M34.2 -10.55 Q37.95 -11.95 40.4 -11.25 41.8 -8.9 38.85 -3.0 41.0 0.6 42.95 14.4 44.3 23.5 38.55 27.3 30.9 31.7 18.05 25.7 19.65 33.85 16.5 34.45 14.1 34.1 11.6 27.0 11.0 28.1 10.7 29.6 10.3 34.15 8.9 34.45 6.35 34.8 4.3 30.2 2.6 25.6 -3.8 28.35 -9.1 30.0 -15.55 29.3 -15.95 32.75 -17.85 33.25 -19.85 33.5 -22.85 27.75 L-27.05 26.35 Q-27.0 32.05 -29.3 32.5 -32.85 32.85 -36.95 17.5 L-37.6 11.1 -40.6 12.55 Q-42.3 9.35 -39.25 3.75 L-43.2 3.95 Q-42.7 -1.8 -36.95 -7.55 L-41.1 -7.55 Q-39.3 -12.8 -32.65 -15.55 L-37.85 -16.55 Q-34.0 -22.0 -25.2 -21.6 L-26.85 -24.85 Q-23.7 -27.55 -17.55 -28.05 L-18.95 -31.55 Q-13.4 -32.8 -6.85 -30.7 L-7.9 -34.3 Q1.3 -35.7 10.55 -28.05 L8.15 -33.85 Q14.75 -34.5 23.1 -24.65 L23.1 -28.4 Q27.8 -25.75 29.55 -17.95 L31.2 -21.05 Q35.1 -18.35 34.2 -10.55" fill="#fef4ed" fill-rule="evenodd" stroke="none"/>
  </g>
</svg>
