<?xml version="1.0" encoding="UTF-8" standalone="no"?>
<svg xmlns:xlink="http://www.w3.org/1999/xlink" height="100.65px" width="65.9px" xmlns="http://www.w3.org/2000/svg">
  <g transform="matrix(1.0, 0.0, 0.0, 1.0, 32.95, 50.35)">
    <path d="M-30.65 -18.65 L-24.4 -19.1 Q-24.05 -23.35 -22.6 -27.55 -27.5 -28.25 -30.45 -32.25 -32.5 -35.65 -31.75 -38.55 -31.05 -41.2 -27.9 -43.45 -22.2 -46.9 -16.55 -38.85 -3.05 -52.25 12.2 -42.8 L12.6 -43.3 Q17.5 -50.4 23.25 -49.15 26.0 -48.5 27.35 -46.3 28.75 -43.95 28.45 -39.75 27.8 -34.4 21.35 -32.55 L24.45 -27.65 Q25.75 -25.5 26.3 -23.4 L31.95 -24.15 M14.65 -5.0 Q17.2 -6.1 19.3 -7.6 23.0 -10.35 25.35 -14.5 L25.8 -15.45 Q26.6 -17.45 26.7 -19.5 L23.55 -20.0 M-1.7 -22.2 Q1.3 -19.9 2.9 -22.75 5.75 -20.2 7.05 -23.65 M26.3 -23.4 Q26.85 -21.4 26.7 -19.5 L29.3 -19.1 M22.8 -22.9 L26.3 -23.4 M21.35 -32.55 L19.3 -35.65 21.55 -39.3 16.35 -37.9 Q19.15 -46.25 27.35 -46.3 M9.6 6.95 Q11.0 6.8 11.3 9.2 L12.6 7.5 Q14.25 4.75 11.9 2.9 L10.65 2.2 Q9.45 1.65 8.45 1.75 7.6 1.9 6.95 2.45 5.95 3.35 5.2 5.2 7.95 4.4 7.95 7.65 8.9 7.0 9.6 6.95 13.95 19.45 8.5 22.95 6.85 24.05 4.3 24.25 L2.75 24.3 1.55 24.3 -1.1 23.75 Q-7.65 21.2 -4.9 8.1 -6.1 8.4 -6.05 10.2 -8.15 8.6 -8.5 7.0 -8.7 6.2 -8.35 5.4 L-7.6 4.05 Q-4.8 0.95 -2.1 3.5 -1.4 4.2 -0.65 5.35 L-2.1 5.3 Q-3.9 5.6 -3.0 8.15 L-4.9 8.1 M13.1 31.4 Q14.1 29.8 14.8 29.4 16.25 28.7 16.8 32.3 20.15 28.65 20.0 32.95 22.75 31.35 22.5 34.45 21.15 39.5 16.05 38.75 12.25 37.6 12.55 34.15 12.6 32.95 13.1 31.4 M-11.7 -2.9 L-14.6 -3.2 Q-15.05 5.9 -20.7 16.2 -26.45 28.6 -20.7 40.55 -14.5 50.55 3.5 49.15 25.35 46.8 27.1 33.4 28.9 23.25 24.45 14.2 18.4 1.0 19.3 -7.6 M-3.05 1.95 Q-1.15 -5.95 2.55 -6.6 6.15 -6.85 8.45 1.75 M-22.6 -27.55 L-21.0 -31.65 -24.75 -33.6 -20.8 -34.55 Q-23.95 -41.9 -31.75 -38.55 M-22.35 -15.75 L-24.5 -15.05 -24.0 -11.0 Q-23.6 -9.3 -22.8 -7.95 -20.45 -4.3 -14.6 -3.2 M-21.0 -19.35 L-24.4 -19.1 -24.5 -15.05 -28.8 -13.6 M-16.65 36.45 Q-17.9 31.2 -13.4 34.45 -13.65 29.55 -10.7 32.6 -10.15 30.65 -9.15 31.0 -8.55 31.15 -7.85 32.0 -7.15 33.2 -6.95 34.3 -6.4 37.35 -9.4 39.6 -14.1 42.05 -16.65 36.45" fill="none" stroke="#694050" stroke-linecap="round" stroke-linejoin="round" stroke-width="2.0"/>
  </g>
</svg>
