<?xml version="1.0" encoding="UTF-8" standalone="no"?>
<svg xmlns:xlink="http://www.w3.org/1999/xlink" height="6.9px" width="24.8px" xmlns="http://www.w3.org/2000/svg">
  <g transform="matrix(1.0, 0.0, 0.0, 1.0, 12.35, 145.35)">
    <path d="M8.95 -141.9 Q8.95 -143.3 9.45 -144.35 9.95 -145.35 10.65 -145.35 11.4 -145.35 11.95 -144.35 12.45 -143.3 12.45 -141.9 12.45 -140.45 11.95 -139.4 11.4 -138.45 10.65 -138.45 9.95 -138.45 9.45 -139.4 8.95 -140.45 8.95 -141.9 M-8.85 -141.9 Q-8.85 -140.45 -9.35 -139.4 -9.85 -138.45 -10.6 -138.45 -11.3 -138.45 -11.85 -139.4 -12.35 -140.45 -12.35 -141.9 -12.35 -143.3 -11.85 -144.35 -11.3 -145.35 -10.6 -145.35 -9.85 -145.35 -9.35 -144.35 -8.85 -143.3 -8.85 -141.9" fill="#354466" fill-rule="evenodd" stroke="none"/>
  </g>
</svg>
