<?xml version="1.0" encoding="UTF-8" standalone="no"?>
<svg xmlns:xlink="http://www.w3.org/1999/xlink" height="17.1px" width="17.15px" xmlns="http://www.w3.org/2000/svg">
  <g transform="matrix(1.0, 0.0, 0.0, 1.0, 8.55, 8.55)">
    <path d="M-1.9 -8.2 L-1.85 -8.55 0.55 -8.55 0.55 -8.45 Q3.75 -8.3 6.05 -6.0 7.75 -4.35 8.3 -2.35 L8.6 0.0 Q8.6 3.5 6.05 5.95 3.75 8.25 0.55 8.4 L0.55 8.55 -1.85 8.55 -1.9 8.2 Q-4.1 7.65 -5.7 5.95 L-5.8 5.85 -5.75 6.35 -8.1 5.15 Q-8.5 3.7 -8.55 0.55 L-8.55 0.25 -8.5 -2.65 -8.1 -5.2 -8.1 -5.25 -5.75 -6.35 -5.8 -5.9 -5.7 -6.0 Q-4.1 -7.7 -1.9 -8.2" fill="#989898" fill-rule="evenodd" stroke="none"/>
  </g>
</svg>
