<?xml version="1.0" encoding="UTF-8" standalone="no"?>
<svg xmlns:xlink="http://www.w3.org/1999/xlink" height="28.15px" width="14.5px" xmlns="http://www.w3.org/2000/svg">
  <g transform="matrix(1.0, 0.0, 0.0, 1.0, 16.85, 139.3)">
    <path d="M-5.4 -133.9 L-6.5 -134.05 Q-7.05 -134.2 -7.0 -134.95 -6.95 -135.7 -6.2 -135.65 L-5.4 -135.55 -2.35 -135.0 -2.6 -133.45 -5.4 -133.9 M-8.05 -123.85 L-9.1 -124.0 Q-9.65 -124.15 -9.6 -124.85 -9.6 -125.65 -8.85 -125.6 L-8.0 -125.45 -4.95 -125.0 -5.2 -123.4 -8.05 -123.85 M-9.9 -115.15 L-6.85 -114.65 -7.1 -113.05 -9.9 -113.5 -11.0 -113.7 Q-11.55 -113.85 -11.5 -114.55 -11.45 -115.35 -10.75 -115.3 L-9.9 -115.15" fill="#9f9f9f" fill-rule="evenodd" stroke="none"/>
    <path d="M-5.4 -133.9 L-7.35 -132.85 Q-7.95 -131.35 -9.75 -131.55 -11.35 -132.0 -11.15 -133.9 -12.3 -134.6 -12.35 -136.05 -11.85 -137.7 -10.4 -137.75 -9.9 -139.45 -8.0 -139.3 -6.4 -138.7 -6.4 -136.7 -6.2 -135.9 -5.4 -135.55 L-6.2 -135.65 Q-6.95 -135.7 -7.0 -134.95 -7.05 -134.2 -6.5 -134.05 L-5.4 -133.9 M-8.05 -123.85 Q-9.3 -123.55 -9.9 -122.8 -10.6 -121.3 -12.3 -121.45 -13.9 -121.9 -13.7 -123.85 -14.9 -124.6 -14.9 -126.0 -14.5 -127.65 -13.05 -127.65 -12.4 -129.4 -10.6 -129.25 -9.05 -128.6 -9.0 -126.7 -8.85 -125.9 -8.0 -125.45 L-8.85 -125.6 Q-9.6 -125.65 -9.6 -124.85 -9.65 -124.15 -9.1 -124.0 L-8.05 -123.85 M-9.9 -113.5 Q-11.2 -113.25 -11.75 -112.45 -12.4 -110.95 -14.2 -111.15 -15.85 -111.55 -15.6 -113.5 -16.8 -114.25 -16.85 -115.65 -16.3 -117.25 -14.9 -117.3 -14.35 -119.05 -12.5 -118.9 -10.95 -118.35 -10.9 -116.35 -10.7 -115.6 -9.9 -115.15 L-10.75 -115.3 Q-11.45 -115.35 -11.5 -114.55 -11.55 -113.85 -11.0 -113.7 L-9.9 -113.5" fill="#bcc9d2" fill-rule="evenodd" stroke="none"/>
  </g>
</svg>
