<?xml version="1.0" encoding="UTF-8" standalone="no"?>
<svg xmlns:xlink="http://www.w3.org/1999/xlink" height="19.1px" width="115.2px" xmlns="http://www.w3.org/2000/svg">
  <g transform="matrix(1.0, 0.0, 0.0, 1.0, 57.6, 9.55)">
    <path d="M17.05 -4.95 L20.2 -3.6 15.9 -2.8 12.55 -4.25 17.05 -4.95 M35.85 -8.15 L39.4 -8.75 42.65 -7.65 38.75 -6.9 35.85 -8.15 M53.55 -9.55 L57.6 -8.45 53.5 -7.7 49.65 -8.8 53.55 -9.55 M-15.05 2.6 L-10.2 1.7 -7.6 3.3 -12.65 4.2 -15.05 2.6 M-42.05 7.3 L-37.35 6.45 -35.05 8.1 -39.55 8.9 -42.05 7.3 M-57.6 7.8 L-51.85 6.8 -49.75 8.6 -55.35 9.55 -57.6 7.8" fill="#ff4a4a" fill-rule="evenodd" stroke="none"/>
  </g>
</svg>
