<?xml version="1.0" encoding="UTF-8" standalone="no"?>
<svg xmlns:xlink="http://www.w3.org/1999/xlink" height="47.4px" width="148.3px" xmlns="http://www.w3.org/2000/svg">
  <g transform="matrix(1.0, 0.0, 0.0, 1.0, 74.15, 23.7)">
    <path d="M58.2 -1.85 Q51.9 9.5 43.55 13.4 42.3 10.7 44.0 6.05 37.15 15.1 31.8 16.5 30.7 13.85 32.8 9.95 25.8 18.85 19.9 19.1 20.1 14.4 24.6 7.25 11.65 19.4 -2.45 23.7 -3.45 16.1 8.65 5.45 -16.7 18.9 -28.4 18.4 -28.0 14.5 -11.55 3.8 -26.35 12.8 -41.65 12.1 -36.55 4.85 -27.05 -1.0 -39.15 6.15 -52.15 3.75 -46.35 -2.35 -37.9 -7.65 -48.65 -2.3 -61.6 -3.95 -56.05 -8.8 -50.25 -13.05 -65.35 -9.8 -74.15 -13.55 -69.35 -17.0 -57.7 -21.1 -40.3 -16.35 -22.6 -23.7 -33.6 -18.8 -39.15 -11.35 -24.1 -9.15 -8.15 -17.2 -16.8 -10.05 -21.25 -2.95 -8.25 -1.0 8.05 -8.7 3.0 -1.8 2.75 3.6 12.0 2.45 21.2 -5.35 14.95 0.7 14.05 5.4 25.2 4.6 35.3 -3.1 32.15 1.0 32.35 4.6 42.25 4.35 47.85 -3.1 51.4 -6.5 59.65 -9.9 L60.4 -10.35 Q63.05 -11.9 72.75 -22.55 74.2 -21.45 74.15 -17.6 69.4 -0.5 59.1 4.2 57.2 1.95 58.2 -1.85" fill="#84a7bb" fill-rule="evenodd" stroke="none"/>
  </g>
</svg>
