<?xml version="1.0" encoding="UTF-8" standalone="no"?>
<svg xmlns:xlink="http://www.w3.org/1999/xlink" height="40.85px" width="57.4px" xmlns="http://www.w3.org/2000/svg">
  <g transform="matrix(1.0, 0.0, 0.0, 1.0, 28.7, 20.4)">
    <path d="M-27.5 -16.35 Q-26.0 -20.45 -15.6 -19.25 -4.5 -16.75 1.8 -14.25 14.55 -8.6 22.8 0.4 25.6 3.45 27.8 6.85 25.7 11.1 20.35 14.55 L19.05 15.3 Q7.75 21.15 -6.1 18.9 L-10.1 17.35 Q-12.9 16.0 -14.7 14.3 -17.95 10.35 -12.05 11.35 -6.6 12.7 -4.05 11.95 -11.55 11.8 -18.55 6.3 L-20.8 3.9 Q-23.1 0.95 -23.05 -0.85 -22.95 -3.4 -14.35 -0.05 -8.65 1.85 -6.25 1.4 -10.25 0.55 -16.25 -2.15 -22.85 -5.05 -25.4 -8.8 L-25.9 -9.65 Q-28.6 -14.0 -27.5 -16.35 Z" fill="none" stroke="#000000" stroke-linecap="round" stroke-linejoin="round" stroke-width="1.8"/>
  </g>
</svg>
