<?xml version="1.0" encoding="UTF-8" standalone="no"?>
<svg xmlns:xlink="http://www.w3.org/1999/xlink" height="53.7px" width="64.05px" xmlns="http://www.w3.org/2000/svg">
  <g transform="matrix(1.0, 0.0, 0.0, 1.0, 32.05, 26.85)">
    <path d="M-2.6 -10.6 Q-11.2 -13.3 -14.55 -26.85 -2.6 -11.3 21.1 -9.6 29.45 -8.0 31.7 0.4 L31.95 3.35 Q32.35 10.6 30.5 14.05 22.95 26.0 11.25 26.85 L17.05 17.15 Q4.9 25.45 -7.75 23.1 -4.2 21.4 -1.95 19.0 L-0.35 17.0 Q2.9 11.3 8.05 6.0 L6.7 6.8 Q-11.7 18.15 -23.65 7.6 L-19.45 7.3 Q-12.55 6.1 -4.8 0.8 -23.55 3.55 -32.05 -9.8 -29.95 -8.9 -27.9 -8.35 L-15.35 -7.95 Q-8.45 -9.8 -2.6 -10.6" fill="#5cf09a" fill-rule="evenodd" stroke="none"/>
  </g>
</svg>
