<?xml version="1.0" encoding="UTF-8" standalone="no"?>
<svg xmlns:xlink="http://www.w3.org/1999/xlink" height="106.95px" width="140.0px" xmlns="http://www.w3.org/2000/svg">
  <g transform="matrix(1.0, 0.0, 0.0, 1.0, 70.0, 53.5)">
    <path d="M37.15 -40.45 L36.55 -45.6 Q45.75 -13.45 70.0 5.35 L65.25 5.25 Q56.7 6.25 50.4 15.95 L48.85 18.6 Q41.2 -7.6 37.15 -40.45 M25.1 -48.3 Q-14.05 -2.45 -36.45 33.7 -35.7 28.15 -37.55 24.3 -42.4 14.7 -64.15 15.9 L-70.0 16.35 Q-44.55 -24.65 29.6 -53.5 L25.1 -48.3 M12.25 51.15 L8.55 47.7 Q-4.65 36.9 -22.55 41.15 -26.75 42.2 -31.2 43.95 -6.5 0.65 30.3 -48.95 L12.25 51.15 M38.6 23.6 Q32.8 25.0 25.0 42.6 22.85 47.45 20.5 53.45 24.75 14.3 33.5 -47.05 35.85 -8.05 40.2 16.95 L41.55 23.95 Q40.1 23.2 38.6 23.6" fill="#84de67" fill-rule="evenodd" stroke="none"/>
  </g>
</svg>
