<?xml version="1.0" encoding="UTF-8" standalone="no"?>
<svg xmlns:xlink="http://www.w3.org/1999/xlink" height="106.55px" width="87.05px" xmlns="http://www.w3.org/2000/svg">
  <g transform="matrix(1.0, 0.0, 0.0, 1.0, 43.7, 53.25)">
    <path d="M25.45 -15.15 L7.3 -27.8 7.25 -27.8 -27.8 -52.4 M38.9 -9.7 L42.1 -9.7 42.85 -4.15 38.4 -2.75 37.0 -5.25 M35.9 6.25 L38.75 4.9 41.9 9.55 38.5 12.7 36.05 11.1 M30.25 22.55 L31.9 20.1 36.45 22.35 35.3 26.5 33.6 26.4 32.65 26.35 M19.2 30.0 L0.4 37.4 0.4 37.45 -4.7 39.35 -4.75 39.4 -36.2 51.6 M-42.85 -2.45 L-0.45 4.05 -0.45 4.0 21.4 7.35" fill="none" stroke="#000000" stroke-linecap="round" stroke-linejoin="round" stroke-width="1.0"/>
    <path d="M-27.8 -52.4 L-17.5 -35.35 23.1 -10.7 24.3 -12.9 25.45 -15.15 26.6 -17.35 27.75 -19.65 -8.8 -49.9 -27.8 -52.4 M27.75 -19.65 L28.75 -21.8 32.85 -20.05 30.05 -15.15 38.9 -9.7 37.0 -5.25 27.25 -10.15 24.15 -4.5 21.1 -6.7 23.1 -10.7 M25.55 5.35 L25.9 -0.3 21.4 -0.05 21.4 2.3 21.4 7.35 21.35 12.4 21.3 16.85 25.0 17.45 25.25 11.0 25.55 5.35 35.9 6.25 36.05 11.1 25.25 11.0 M30.05 -15.15 L27.25 -10.15 M32.65 26.35 L24.05 31.15 26.65 36.4 23.5 37.6 21.5 34.0 -17.95 52.45 -36.2 51.6 -24.7 38.35 -11.6 34.45 3.05 30.2 17.0 26.0 15.9 24.15 19.35 21.9 21.6 26.55 30.25 22.55 32.65 26.35 M17.0 26.0 L18.7 29.05 19.2 30.0 21.5 34.0 M21.6 26.55 L24.05 31.15 M21.35 12.4 L-26.0 8.25 -42.85 -2.45 -24.7 -8.7 21.4 2.3" fill="none" stroke="#000000" stroke-linecap="round" stroke-linejoin="round" stroke-width="1.7000000000000002"/>
  </g>
</svg>
