<?xml version="1.0" encoding="UTF-8" standalone="no"?>
<svg xmlns:xlink="http://www.w3.org/1999/xlink" height="41.6px" width="68.8px" xmlns="http://www.w3.org/2000/svg">
  <g transform="matrix(1.0, 0.0, 0.0, 1.0, 34.4, 20.8)">
    <path d="M-6.15 10.0 L-7.2 10.25 -8.75 10.6 -10.4 11.35 Q-12.75 12.45 -13.25 13.4 -12.0 16.0 -7.55 16.3 L-2.45 16.05 2.55 14.9 1.25 16.05 Q-0.4 17.65 0.3 18.5 L7.55 18.9 12.2 17.75 14.15 17.05 13.65 17.35 12.1 18.6 Q11.65 19.2 11.75 19.65 L19.35 19.25 22.5 18.25 Q26.1 16.8 30.2 13.35 L32.65 11.0 Q34.1 9.3 32.7 8.3 6.8 3.65 -19.05 -10.95 L-23.65 -13.8 -26.3 -15.65 Q-28.85 -17.6 -30.8 -19.8 -31.75 -19.85 -32.25 -19.1 L-32.8 -17.45 -32.85 -16.8 Q-35.05 -9.95 -28.55 -2.0 -27.95 -1.1 -26.9 -0.55 -24.7 1.15 -20.85 2.8 L-20.6 2.9 -20.6 2.95 -20.1 3.1 M-20.85 2.8 Q-24.25 2.35 -25.9 2.8 -27.15 5.95 -21.3 9.25 -17.1 11.5 -11.25 11.0 L-8.75 10.6" fill="none" stroke="#000000" stroke-linecap="round" stroke-linejoin="round" stroke-width="2.0"/>
  </g>
</svg>
