<?xml version="1.0" encoding="UTF-8" standalone="no"?>
<svg xmlns:xlink="http://www.w3.org/1999/xlink" height="63.65px" width="88.25px" xmlns="http://www.w3.org/2000/svg">
  <g transform="matrix(1.0, 0.0, 0.0, 1.0, 44.15, 31.8)">
    <path d="M39.4 -9.55 Q46.8 -1.5 42.55 5.25 38.2 -3.4 24.2 0.35 20.35 1.35 17.55 3.1 9.9 7.6 9.3 17.0 8.3 13.6 4.2 10.15 1.55 10.45 1.55 14.2 1.25 11.35 -5.2 10.7 -10.25 12.6 -11.6 20.45 -16.55 14.35 -19.1 14.05 -30.75 16.3 -44.15 31.85 -40.55 20.25 -30.75 6.35 -22.05 -6.0 -8.45 -20.2 3.1 -31.55 5.45 -31.8 L3.05 -26.95 Q1.85 -19.7 4.0 -14.25 6.65 -7.65 13.8 -5.5 28.4 -1.75 39.4 -9.55" fill="#a48cc9" fill-rule="evenodd" stroke="none"/>
  </g>
</svg>
