<?xml version="1.0" encoding="UTF-8" standalone="no"?>
<svg xmlns:xlink="http://www.w3.org/1999/xlink" height="28.75px" width="61.7px" xmlns="http://www.w3.org/2000/svg">
  <g transform="matrix(1.0, 0.0, 0.0, 1.0, 30.85, 14.35)">
    <path d="M-17.45 -11.1 Q-17.55 -6.4 -13.0 -6.95 -7.2 -10.55 -3.35 -9.2 -2.95 -7.25 0.5 -6.5 4.35 -12.2 9.4 -11.55 L12.95 -9.1 Q15.55 -12.95 19.8 -13.85 23.55 -14.15 22.1 -10.3 23.8 -13.3 30.85 -14.35 23.2 -9.85 22.6 -0.45 21.6 -3.85 17.5 -7.3 14.85 -7.0 14.85 -3.25 14.55 -6.1 8.1 -6.75 3.05 -4.85 1.7 3.0 -3.25 -3.1 -5.8 -3.4 -17.45 -1.15 -30.85 14.4 -27.25 2.8 -17.45 -11.1" fill="#f06565" fill-rule="evenodd" stroke="none"/>
  </g>
</svg>
