<?xml version="1.0" encoding="UTF-8" standalone="no"?>
<svg xmlns:xlink="http://www.w3.org/1999/xlink" height="65.15px" width="89.75px" xmlns="http://www.w3.org/2000/svg">
  <g transform="matrix(1.0, 0.0, 0.0, 1.0, 44.9, 32.55)">
    <path d="M4.0 -14.25 Q1.85 -19.7 3.05 -26.95 L5.45 -31.8 Q3.1 -31.55 -8.45 -20.2 -22.05 -6.0 -30.75 6.35 -40.55 20.25 -44.15 31.85 -30.75 16.3 -19.1 14.05 -16.55 14.35 -11.6 20.45 -10.25 12.6 -5.2 10.7 1.25 11.35 1.55 14.2 1.55 10.45 4.2 10.15 8.3 13.6 9.3 17.0 9.9 7.6 17.55 3.1 20.35 1.35 24.2 0.35 38.2 -3.4 42.55 5.25 46.8 -1.5 39.4 -9.55 28.4 -1.75 13.8 -5.5 6.65 -7.65 4.0 -14.25 Z" fill="none" stroke="#000000" stroke-linecap="round" stroke-linejoin="round" stroke-width="1.5"/>
  </g>
</svg>
