<?xml version="1.0" encoding="UTF-8" standalone="no"?>
<svg xmlns:xlink="http://www.w3.org/1999/xlink" height="54.15px" width="77.65px" xmlns="http://www.w3.org/2000/svg">
  <g transform="matrix(1.0, 0.0, 0.0, 1.0, 38.85, 27.1)">
    <path d="M-11.25 -21.25 L-11.4 -21.35 -14.0 -20.65 Q-14.7 -17.85 -20.55 -14.45 -21.1 -14.1 -21.75 -13.85 -22.1 -12.6 -20.05 -11.75 -17.2 -10.5 -9.15 -10.2 L-3.95 -6.5 Q1.55 -7.3 9.25 -4.25 8.45 -7.1 9.55 -10.25 L9.45 -10.3 Q-0.15 -16.45 -11.25 -21.25 M9.55 -10.25 Q20.35 -3.35 28.4 5.2 L33.55 10.55 37.75 15.9 37.8 17.9 37.5 19.8 Q37.0 21.65 35.95 23.05 19.1 26.8 7.0 25.9 0.25 25.25 -5.0 23.2 -11.95 20.5 -16.3 15.25 L-17.65 13.3 Q-19.2 10.5 -18.65 7.9 -25.95 6.2 -29.8 -0.7 L-30.85 -2.4 Q-35.1 -8.9 -36.75 -13.55 -38.75 -19.15 -37.15 -22.15 -34.95 -26.1 -29.0 -26.1 -22.45 -26.15 -11.4 -21.35 M-36.75 -13.55 Q-27.5 -11.25 -21.75 -13.85 M-30.85 -2.4 L-20.95 -2.9 -17.2 -2.4 Q-19.8 -4.45 -20.35 -7.2 -20.8 -9.25 -20.05 -11.75 M-3.95 -6.5 L-4.0 -6.45 Q-4.7 -3.35 -0.75 -1.9 5.9 0.8 12.2 4.0 14.75 5.3 17.3 6.8 17.7 5.8 17.3 4.85 L13.9 2.3 Q10.3 -0.85 9.25 -4.25 M-29.0 -26.1 Q-31.55 -22.9 -21.1 -20.8 -17.6 -19.95 -14.0 -20.65 M-18.65 7.9 L-18.3 6.6 -4.65 6.15 -3.05 6.3 Q-3.35 3.9 -2.75 1.8 -10.1 -1.35 -17.2 -2.4 M-17.65 13.3 Q-10.3 12.15 -3.75 13.8 L5.7 11.8 Q-1.55 9.85 -4.65 6.15 M37.8 17.9 Q29.5 17.15 21.05 15.5 L32.45 20.4 Q14.25 16.7 5.95 17.9 -1.15 19.05 -5.0 23.2 M17.3 4.85 Q20.6 6.95 25.5 8.25 L33.55 10.55 M17.3 6.8 L16.8 7.55 15.0 9.2 Q25.45 11.55 37.75 15.9 M7.0 25.9 Q11.75 24.15 17.15 22.9 L37.5 19.8 M5.7 11.8 Q13.4 14.0 21.05 15.5 M5.95 17.9 Q1.3 15.05 -3.75 13.8 M-3.05 6.3 Q5.2 6.9 15.0 9.2 M-2.75 1.8 Q-2.2 -0.2 -0.75 -1.9" fill="none" stroke="#000000" stroke-linecap="round" stroke-linejoin="round" stroke-width="2.0"/>
  </g>
</svg>
