<?xml version="1.0" encoding="UTF-8" standalone="no"?>
<svg xmlns:xlink="http://www.w3.org/1999/xlink" height="122.85px" width="160.15px" xmlns="http://www.w3.org/2000/svg">
  <g transform="matrix(1.0, 0.0, 0.0, 1.0, 80.1, 61.45)">
    <path d="M13.7 -24.4 L13.7 -27.15 Q16.65 -25.05 18.2 -22.15 18.25 -25.4 19.55 -27.8 22.2 -24.3 23.3 -20.55 26.0 -25.65 28.35 -26.8 25.3 3.2 55.0 26.2 62.4 31.05 80.05 30.6 L75.5 33.6 Q63.85 40.45 49.9 59.65 L53.3 49.65 Q45.9 57.4 38.55 61.4 40.3 48.1 46.25 37.0 41.25 45.75 36.6 47.45 37.8 40.45 42.25 34.05 L36.8 38.85 37.5 32.6 Q30.95 41.2 24.85 45.55 25.9 40.5 30.2 33.75 24.0 41.5 17.0 44.95 18.0 39.9 20.15 33.9 10.3 42.15 -0.5 44.85 -0.25 40.1 8.45 29.6 L-1.05 29.35 Q-2.35 31.5 -5.3 33.2 -5.65 32.0 -5.5 30.85 -14.35 34.15 -24.8 31.0 -17.8 26.3 -10.5 24.0 -7.8 25.5 -6.05 24.45 -7.9 23.2 -8.1 21.65 -4.8 22.0 -0.45 23.8 L-1.75 21.35 Q3.35 17.05 11.25 12.1 5.8 11.9 0.45 16.05 L1.15 12.35 Q-9.05 19.5 -19.55 19.2 -15.4 15.35 -10.8 13.65 L-26.55 14.75 Q-36.5 15.4 -51.7 11.0 L-51.3 10.95 Q-36.65 11.4 -24.5 8.15 -22.1 11.3 -19.2 11.1 L-21.4 7.75 -18.65 7.95 Q-5.95 2.55 2.5 -0.05 -0.05 -1.25 -6.6 -1.4 -2.15 -3.8 4.6 -5.55 L-2.35 -5.85 Q0.2 -7.6 4.7 -8.8 7.65 -11.5 -12.4 -11.05 L-14.0 -14.45 -14.8 -10.4 -18.25 -13.25 -16.7 -9.95 Q-23.75 -10.85 -38.15 -9.55 -33.3 -13.25 -29.6 -15.05 -34.3 -15.25 -43.05 -16.8 -41.25 -18.4 -39.3 -19.35 -45.1 -19.5 -52.3 -17.55 L-51.9 -20.75 Q-54.8 -20.3 -56.45 -17.65 -66.95 -21.55 -80.1 -29.8 -49.6 -32.6 -19.1 -32.3 -26.05 -35.3 -31.3 -40.45 -24.95 -38.95 -16.85 -39.3 -29.7 -48.65 -39.65 -61.0 L-39.7 -61.45 Q-34.6 -59.85 -25.35 -53.65 L-26.75 -57.2 Q-18.85 -52.3 -14.85 -46.35 L-15.8 -49.9 Q-3.3 -36.75 13.7 -24.4" fill="#666666" fill-rule="evenodd" stroke="none"/>
  </g>
</svg>
