<?xml version="1.0" encoding="UTF-8" standalone="no"?>
<svg xmlns:xlink="http://www.w3.org/1999/xlink" height="48.95px" width="21.8px" xmlns="http://www.w3.org/2000/svg">
  <g transform="matrix(1.0, 0.0, 0.0, 1.0, 10.9, 24.45)">
    <path d="M5.6 -5.65 Q-2.2 -4.25 -7.0 -9.5 -10.2 -13.6 -7.05 -19.1 -4.25 -23.95 1.6 -21.75 0.4 -25.35 4.25 -24.15 10.05 -22.35 10.9 -17.7 9.85 -11.2 5.6 -5.65 M-0.65 8.05 Q-1.85 4.45 2.0 5.65 7.8 7.45 8.65 12.1 7.65 18.65 3.35 24.2 -4.4 25.55 -9.25 20.35 -12.5 16.25 -9.3 10.75 -6.5 5.8 -0.65 8.05" fill="#e20000" fill-rule="evenodd" stroke="none"/>
  </g>
</svg>
