<?xml version="1.0" encoding="UTF-8" standalone="no"?>
<svg xmlns:xlink="http://www.w3.org/1999/xlink" height="158.5px" width="120.25px" xmlns="http://www.w3.org/2000/svg">
  <g transform="matrix(1.0, 0.0, 0.0, 1.0, 0.0, 79.25)">
    <path d="M63.25 -48.8 L58.6 -47.95 54.65 -47.55 51.45 -47.4 Q46.2 -52.1 44.2 -56.2 46.2 -66.95 53.45 -79.25 52.75 -71.45 53.45 -63.55 59.0 -60.45 63.7 -56.75 66.7 -53.25 63.25 -48.8 M57.45 -22.45 L47.85 6.65 43.45 11.8 40.95 14.45 38.2 21.9 Q36.3 26.25 34.05 29.35 27.6 33.85 23.05 34.85 L20.65 33.2 Q15.65 29.6 12.45 25.15 L12.65 23.0 18.6 14.7 27.45 14.1 Q30.3 12.5 34.35 7.65 L36.3 5.2 37.5 3.6 Q41.55 -2.85 43.9 -12.3 L43.25 -12.2 37.45 -11.75 Q37.65 -14.15 38.0 -16.25 39.1 -23.8 41.4 -27.95 46.0 -30.5 48.45 -30.95 49.25 -27.75 52.25 -24.35 L54.8 -21.85 Q56.15 -21.8 57.45 -22.45 M27.3 -12.6 Q19.85 -8.45 17.45 -1.9 L16.3 12.75 15.8 11.55 15.0 9.6 Q13.5 5.7 12.65 2.1 L12.5 1.35 9.45 1.2 Q6.3 5.7 4.2 10.95 2.8 14.45 1.9 18.3 0.9 22.2 0.4 26.45 L0.05 20.3 Q-0.5 5.25 3.25 -4.45 L13.4 -10.55 Q17.8 -23.7 22.35 -26.25 25.9 -26.75 29.4 -25.6 28.25 -23.7 27.2 -20.7 L26.9 -19.85 Q26.65 -15.65 27.3 -12.6 M51.9 -38.65 L55.7 -38.15 60.45 -38.0 62.9 -38.15 65.6 -38.4 69.15 -39.1 70.3 -39.45 70.15 -40.95 76.45 -37.7 Q76.3 -43.35 78.95 -49.55 80.05 -43.25 82.6 -39.05 84.2 -37.9 87.4 -36.8 89.7 -35.45 92.2 -28.7 L91.8 -28.65 Q90.45 -27.4 89.45 -25.95 L88.65 -24.5 Q87.45 -22.05 87.45 -19.1 84.05 -22.6 80.25 -22.3 L76.25 -22.45 Q74.65 -21.85 72.25 -21.65 L68.45 -21.5 Q63.9 -22.95 60.85 -25.8 59.2 -27.3 58.0 -29.15 L57.0 -29.55 Q52.7 -33.4 52.05 -37.2 L51.9 -38.65 M71.35 -16.85 Q73.65 -14.75 72.5 -10.55 L70.9 -2.45 71.5 -1.05 73.0 3.6 73.85 7.4 74.05 9.3 68.8 15.9 68.6 16.05 68.6 16.1 68.55 16.15 Q63.55 22.45 58.7 23.45 L57.2 21.15 62.6 -8.35 Q62.55 -11.3 60.2 -17.1 61.9 -16.35 64.9 -16.1 L67.15 -16.05 Q70.05 -16.25 71.35 -16.85 M98.65 -20.75 L99.15 -23.0 Q99.6 -24.75 100.35 -26.2 L107.4 -20.0 Q111.0 -20.1 115.55 -19.0 118.1 -16.3 119.3 -13.85 120.25 -11.7 120.25 -9.65 120.2 -7.25 118.95 -5.0 112.7 -6.4 109.25 -8.85 L108.6 -9.5 Q103.55 -10.5 98.35 -12.7 98.1 -17.3 98.65 -20.75 M73.3 24.65 L75.4 25.8 75.65 26.15 Q74.8 31.4 74.4 37.65 L91.3 56.5 102.2 64.15 90.25 61.2 74.9 50.05 Q76.45 54.55 79.75 57.85 85.2 63.4 92.0 67.2 L86.7 66.75 Q81.15 66.0 75.9 63.65 L65.2 47.95 59.7 40.9 61.25 36.55 63.7 35.25 Q66.3 33.55 68.8 30.8 L73.3 24.65 M10.8 38.0 Q12.15 39.2 13.85 40.2 16.8 42.0 20.85 43.4 L20.85 56.1 31.5 79.25 Q23.1 70.35 17.5 61.95 L17.5 72.35 Q11.55 62.15 12.05 50.8 L11.85 50.05 Q10.35 44.2 10.8 38.0" fill="#8f7a6c" fill-rule="evenodd" stroke="none"/>
  </g>
</svg>
