<?xml version="1.0" encoding="UTF-8" standalone="no"?>
<svg xmlns:xlink="http://www.w3.org/1999/xlink" height="100.85px" width="53.75px" xmlns="http://www.w3.org/2000/svg">
  <g transform="matrix(1.0, 0.0, 0.0, 1.0, 26.9, 50.45)">
    <path d="M26.05 48.3 Q24.6 49.55 21.05 50.05 L16.55 50.4 10.0 49.65 9.2 49.4 Q5.75 48.45 3.65 46.45 L2.25 45.05 0.45 42.05 Q-0.65 39.6 -1.15 37.25 -1.7 34.2 -1.1 31.05 -0.55 28.05 1.3 24.95 2.7 22.45 4.95 20.0 L5.9 19.05 2.9 16.25 -0.45 12.6 -2.4 10.4 -4.95 7.4 Q-8.85 2.6 -12.1 -2.45 -14.45 -6.15 -16.3 -9.95 -18.3 -13.7 -19.9 -17.6 -22.2 -23.35 -23.7 -29.45 L-25.35 -36.4 Q-26.55 -43.2 -26.9 -50.4 L-26.9 -50.45 Q-20.05 -27.5 -8.3 -6.35 -0.7 7.3 7.25 13.55 L7.3 13.55 Q14.1 18.65 14.7 21.0 15.65 24.4 10.15 24.3 4.6 24.15 4.65 34.6 4.65 48.75 21.1 44.2 26.8 43.0 26.85 46.15 26.9 47.4 26.05 48.3" fill="#4a4764" fill-rule="evenodd" stroke="none"/>
  </g>
</svg>
