<?xml version="1.0" encoding="UTF-8" standalone="no"?>
<svg xmlns:xlink="http://www.w3.org/1999/xlink" height="189.15px" width="109.75px" xmlns="http://www.w3.org/2000/svg">
  <g transform="matrix(1.0, 0.0, 0.0, 1.0, 54.9, 94.6)">
    <path d="M53.05 47.75 Q53.9 46.85 53.85 45.6 53.8 42.45 48.1 43.65 31.65 48.2 31.65 34.05 31.6 23.6 37.15 23.75 42.65 23.85 41.7 20.45 41.1 18.1 34.3 13.0 L34.25 13.0 Q26.3 6.75 18.7 -6.9 6.95 -28.05 0.1 -51.0 L0.1 -50.95 Q0.45 -43.75 1.65 -36.95 2.4 -33.35 3.3 -30.0 4.8 -23.9 7.1 -18.15 8.7 -14.25 10.7 -10.5 12.55 -6.7 14.9 -3.0 18.15 2.05 22.05 6.85 L24.6 9.85 26.55 12.05 29.9 15.7 32.9 18.5 31.95 19.45 Q29.7 21.9 28.3 24.4 26.45 27.5 25.9 30.5 25.3 33.65 25.85 36.7 26.35 39.05 27.45 41.5 L29.25 44.5 30.65 45.9 Q32.75 47.9 36.2 48.85 36.6 48.9 37.0 49.1 L43.55 49.85 48.05 49.5 Q51.6 49.0 53.05 47.75 41.6 72.5 28.4 93.55 27.6 84.0 31.3 73.15 22.65 82.7 13.1 86.95 15.45 76.35 22.7 65.5 13.0 69.25 3.25 75.0 5.15 66.4 11.95 59.2 5.15 60.1 -1.65 63.15 1.0 57.25 5.5 52.85 1.35 52.6 -2.75 54.6 1.95 47.65 9.85 42.75 4.3 43.6 -1.85 46.1 3.05 40.75 7.95 37.2 16.25 30.95 25.9 30.5 M29.9 15.7 Q24.75 17.05 20.9 19.65 27.35 19.05 31.95 19.45 M24.6 9.85 Q12.3 23.05 -5.25 30.1 L-18.75 46.95 Q-5.75 44.45 6.05 34.75 10.6 31.1 15.15 26.15 L20.9 19.65 26.55 12.05 M15.15 26.15 Q21.65 23.6 28.3 24.4 M9.85 42.75 Q16.9 38.4 25.85 36.7 M5.5 52.85 Q13.5 44.75 27.45 41.5 M30.65 45.9 Q18.55 52.2 11.95 59.2 M31.3 73.15 Q35.05 62.05 43.55 49.85 M22.7 65.5 Q28.1 57.15 36.2 48.85 M1.65 -36.95 Q-8.85 -45.8 -14.35 -62.9 -20.85 -72.45 -28.8 -79.55 -26.4 -61.5 -13.8 -46.15 -6.8 -37.75 3.3 -30.0 M0.1 -50.95 Q-7.3 -72.9 -20.1 -93.6 -18.75 -75.85 -14.35 -62.9 M7.1 -18.15 Q-8.25 -26.25 -17.85 -35.3 L-39.95 -49.25 Q-32.5 -28.45 -12.2 -18.05 -2.3 -13.0 10.7 -10.5 M-5.25 30.1 Q-22.15 36.7 -43.85 37.7 L-10.05 18.25 Q-30.7 22.2 -52.2 18.05 L-53.9 17.6 -11.5 6.0 Q-28.25 4.15 -46.55 -5.25 L-10.05 -5.5 Q-30.15 -11.35 -45.85 -29.5 L-12.2 -18.05 M-13.8 -46.15 L-33.1 -60.4 Q-30.05 -47.05 -17.85 -35.3 M-10.05 -5.5 Q1.65 -2.1 14.9 -3.0 M-11.5 6.0 Q3.65 7.55 17.6 3.1 M-10.05 18.25 Q6.2 15.05 22.05 6.85" fill="none" stroke="#13161e" stroke-linecap="round" stroke-linejoin="round" stroke-width="2.0"/>
  </g>
</svg>
