<?xml version="1.0" encoding="UTF-8" standalone="no"?>
<svg xmlns:xlink="http://www.w3.org/1999/xlink" height="88.55px" width="91.85px" xmlns="http://www.w3.org/2000/svg">
  <g transform="matrix(1.0, 0.0, 0.0, 1.0, 0.0, 0.0)">
    <path d="M78.6 58.1 L91.75 47.0 91.85 60.9 86.85 68.6 84.4 72.25 Q77.35 81.5 63.95 86.9 44.85 93.0 31.1 76.45 L30.0 75.0 Q13.15 56.85 0.8 53.75 10.2 48.95 25.95 53.8 34.25 58.2 41.85 61.4 63.2 66.85 78.6 58.1 M80.65 47.8 L78.55 48.9 70.5 47.8 Q64.1 46.95 56.7 44.0 44.35 39.2 34.4 30.95 24.45 22.7 20.3 20.55 20.35 12.4 0.0 3.65 4.7 0.45 11.5 0.0 18.3 -0.45 28.15 8.7 L42.0 21.05 52.8 30.0 53.2 30.35 55.7 32.35 62.65 37.6 Q71.85 43.9 80.65 47.8" fill="#268779" fill-rule="evenodd" stroke="none"/>
  </g>
</svg>
