<?xml version="1.0" encoding="UTF-8" standalone="no"?>
<svg xmlns:xlink="http://www.w3.org/1999/xlink" height="78.15px" width="111.45px" xmlns="http://www.w3.org/2000/svg">
  <g transform="matrix(1.0, 0.0, 0.0, 1.0, 1.0, 1.0)">
    <path d="M62.75 17.4 Q66.95 30.2 82.65 36.25 86.85 35.65 87.8 31.15 L88.0 27.8 85.9 20.7 Q72.4 20.0 62.75 17.4 M107.35 43.75 Q93.85 43.05 84.15 40.45 88.35 53.25 104.05 59.3 108.25 58.7 109.25 54.2 L109.45 50.85 107.35 43.75 M97.1 67.65 L94.9 60.55 Q81.45 59.85 71.75 57.25 75.95 70.1 91.65 76.15 95.9 75.5 96.85 71.0 L97.1 67.65 M53.25 11.75 Q39.7 11.1 30.0 8.45 34.25 21.3 49.95 27.35 54.15 26.7 55.1 22.25 L55.35 18.85 53.25 11.75 M75.35 47.95 L75.6 44.6 73.5 37.5 Q60.0 36.8 50.3 34.2 54.5 47.05 70.2 53.1 74.4 52.45 75.35 47.95 M41.45 30.65 Q27.9 29.95 18.25 27.35 22.45 40.2 38.15 46.2 42.35 45.6 43.3 41.1 L43.55 37.75 41.45 30.65 M0.65 0.45 L0.0 0.0 0.05 2.3 Q1.2 14.15 13.4 22.65 17.75 23.0 19.95 18.8 L21.25 15.65 21.35 8.3 Q9.1 4.75 0.65 0.45 M59.2 60.8 L57.1 53.7 Q43.6 53.0 33.9 50.4 38.15 63.25 53.85 69.3 58.05 68.65 59.0 64.15 L59.2 60.8" fill="none" stroke="#000000" stroke-linecap="round" stroke-linejoin="round" stroke-width="2.0"/>
  </g>
</svg>
