<?xml version="1.0" encoding="UTF-8" standalone="no"?>
<svg xmlns:xlink="http://www.w3.org/1999/xlink" height="44.1px" width="85.15px" xmlns="http://www.w3.org/2000/svg">
  <g transform="matrix(1.0, 0.0, 0.0, 1.0, 0.8, 22.05)">
    <path d="M77.15 -14.45 Q73.15 -14.95 71.8 -12.8 69.75 -10.2 72.5 -8.8 L73.85 -8.6 Q75.75 -8.65 78.35 -10.35 80.85 -12.45 83.05 -16.8 84.95 -21.45 79.5 -21.25 72.55 -20.5 62.3 -15.35 45.75 -7.25 27.4 -2.6 11.85 -0.15 8.3 2.7 0.25 9.25 0.0 13.15 -0.1 16.45 5.45 15.3 13.85 14.0 21.05 12.1 34.6 8.5 44.0 2.9 M73.85 -8.6 Q70.7 -5.25 65.1 2.35 58.0 11.6 50.65 18.45 45.3 22.6 42.0 20.45 39.75 17.9 44.85 12.5 34.5 19.85 24.8 21.05 18.2 21.95 16.75 19.1 16.2 15.6 21.05 12.1 M44.85 12.5 L49.0 8.7" fill="none" stroke="#000000" stroke-linecap="round" stroke-linejoin="round" stroke-width="1.6"/>
  </g>
</svg>
