<?xml version="1.0" encoding="UTF-8" standalone="no"?>
<svg xmlns:xlink="http://www.w3.org/1999/xlink" height="14.5px" width="24.25px" xmlns="http://www.w3.org/2000/svg">
  <g transform="matrix(1.0, 0.0, 0.0, 1.0, 12.15, 7.25)">
    <path d="M-2.4 -4.5 Q-3.55 -5.15 -4.9 -5.15 L-5.75 -5.05 Q-7.3 -4.85 -8.5 -3.65 L-9.45 -2.4 Q-10.0 -1.35 -10.0 -0.05 L-9.85 1.15 Q-9.55 2.55 -8.5 3.6 L-8.0 4.05 Q-6.65 5.1 -4.9 5.1 L-4.35 5.1 Q-2.6 4.9 -1.3 3.6 L-0.75 2.95 Q0.2 1.65 0.2 -0.05 L0.05 -1.4 Q-0.3 -2.65 -1.3 -3.65 L-2.4 -4.5 M12.1 -0.5 Q12.1 0.55 11.4 1.25 10.65 1.95 9.65 1.95 8.65 1.95 7.95 1.25 7.2 0.55 7.2 -0.5 7.2 -1.5 7.95 -2.25 8.65 -2.95 9.65 -2.95 10.65 -2.95 11.4 -2.25 12.1 -1.5 12.1 -0.5 M2.35 0.0 Q2.35 2.95 0.2 5.1 -1.9 7.25 -4.9 7.25 -7.9 7.25 -10.0 5.1 -12.15 2.95 -12.15 0.0 -12.15 -3.0 -10.0 -5.15 -7.9 -7.25 -4.9 -7.25 -1.9 -7.25 0.2 -5.15 2.35 -3.0 2.35 0.0" fill="#ff9fce" fill-rule="evenodd" stroke="none"/>
  </g>
</svg>
