<?xml version="1.0" encoding="UTF-8" standalone="no"?>
<svg xmlns:xlink="http://www.w3.org/1999/xlink" height="167.75px" width="103.55px" xmlns="http://www.w3.org/2000/svg">
  <g transform="matrix(1.0, 0.0, 0.0, 1.0, 51.8, 83.9)">
    <path d="M14.15 -6.45 L29.15 12.95 Q30.05 15.25 28.7 17.15 27.35 18.85 24.8 18.65 L24.6 17.3 Q24.25 15.7 23.2 14.05 21.75 11.9 20.4 12.9 19.2 13.8 18.45 15.65 17.65 17.85 19.8 18.65 L23.4 19.3 Q24.95 21.2 24.7 23.2 24.4 25.5 21.4 26.25 22.55 27.9 20.65 29.05 17.9 30.75 15.0 31.0 L12.8 29.6 Q10.8 25.5 12.75 22.75 9.8 20.9 9.95 17.9 10.55 14.55 13.7 13.95 8.45 10.1 6.05 6.3 2.0 0.4 4.05 -3.2 L4.55 -3.0 Q6.0 -2.5 6.65 -3.35 7.15 -4.0 7.05 -5.0 L6.8 -5.85 Q6.25 -7.45 5.5 -8.3 4.9 -9.15 3.95 -9.15 3.35 -9.15 2.75 -8.7 2.7 -9.3 3.35 -10.55 3.9 -11.85 5.2 -13.15 L6.8 -14.8 7.35 -15.0 11.3 -10.0 9.5 -6.2 14.15 -6.45 M6.35 -1.55 L5.95 -2.15 5.0 -2.35 4.0 -2.15 Q3.65 -1.9 3.65 -1.55 3.65 -1.25 4.0 -1.1 4.4 -0.8 5.0 -0.8 5.55 -0.8 5.95 -1.1 6.35 -1.25 6.35 -1.55 M35.0 33.1 L34.85 32.9 Q33.9 31.75 34.35 30.2 34.75 28.65 35.4 27.35 36.0 26.0 37.2 25.95 38.45 25.9 39.4 27.1 40.4 28.3 40.65 30.1 40.95 31.6 40.45 32.75 43.4 33.95 48.7 40.5 52.65 45.1 48.5 46.15 L43.85 44.7 42.9 44.3 42.75 44.25 Q40.1 43.25 38.9 41.75 L40.2 41.0 Q41.1 40.3 40.55 39.35 40.0 38.45 39.05 37.65 L37.5 36.35 Q36.8 35.85 35.85 36.95 L35.25 37.7 Q32.8 35.1 35.0 33.1 M22.4 21.35 Q22.4 21.0 22.0 20.75 L21.0 20.5 Q20.4 20.5 20.05 20.75 19.6 21.0 19.6 21.35 19.6 21.7 20.05 21.95 L21.0 22.2 22.0 21.95 Q22.4 21.7 22.4 21.35 M30.95 21.4 Q32.05 22.45 32.25 23.85 32.45 25.15 31.7 26.0 30.9 26.75 29.45 26.55 28.2 26.35 27.1 25.25 25.95 24.1 25.75 22.8 25.55 21.45 26.35 20.65 27.15 19.85 28.5 20.1 29.8 20.3 30.95 21.4 M39.3 37.1 Q40.75 38.85 41.6 37.95 41.8 36.85 39.3 35.7 38.45 35.75 39.3 37.1 M18.45 29.25 Q18.45 28.85 17.95 28.55 L16.85 28.25 Q16.15 28.25 15.75 28.55 15.25 28.85 15.25 29.25 15.25 29.65 15.75 29.9 L16.85 30.2 17.95 29.9 18.45 29.25 M15.4 12.15 Q15.6 13.0 16.15 13.8 16.95 14.9 17.8 14.1 18.55 13.45 19.05 12.4 19.55 11.05 18.2 10.85 L16.05 10.85 Q15.05 10.9 15.4 12.15 M29.9 33.55 Q30.6 33.95 30.9 34.6 31.2 35.2 30.9 35.7 30.6 36.15 29.9 36.3 L28.55 35.95 Q27.85 35.6 27.55 34.95 27.3 34.25 27.55 33.8 27.85 33.3 28.55 33.25 29.3 33.1 29.9 33.55 M23.35 30.2 L22.8 31.4 22.05 31.95 Q21.55 32.0 21.2 31.5 20.9 31.1 21.0 30.45 21.15 29.85 21.65 29.45 L22.4 28.85 Q22.75 28.7 23.2 29.1 23.6 29.5 23.35 30.2 M34.2 57.9 Q34.55 57.15 34.1 56.65 33.6 56.2 32.5 56.2 31.35 56.2 30.6 56.65 29.8 57.2 29.8 57.5 L30.65 58.45 Q31.45 59.15 32.55 59.45 33.6 59.7 33.75 59.15 L34.2 57.9 M36.6 57.2 L36.2 56.1 Q35.95 55.6 35.6 55.6 35.35 55.6 35.15 56.0 35.0 56.4 35.0 57.0 35.0 57.55 35.15 57.95 L35.6 58.35 36.35 58.15 Q36.75 57.9 36.6 57.2 M44.35 57.5 L46.95 57.6 50.45 58.4 Q51.65 58.95 51.75 59.1 49.65 62.6 45.35 66.65 L43.7 65.3 42.45 63.1 Q40.8 64.85 38.65 66.1 39.3 65.0 37.7 64.7 L34.35 64.45 Q32.25 65.0 33.25 68.15 L25.1 69.7 22.05 69.95 Q23.9 70.95 23.9 72.25 23.9 73.6 21.85 74.55 19.9 75.55 17.35 75.8 L14.1 75.45 Q14.5 77.45 10.65 78.2 L7.15 77.45 Q6.15 76.05 7.15 73.0 7.7 70.5 10.25 71.6 10.65 70.6 12.15 69.85 L12.85 69.6 Q14.0 70.4 15.2 69.25 L15.35 69.0 Q16.55 65.6 14.75 63.55 11.65 63.75 10.35 65.9 L10.2 65.15 Q10.15 62.9 14.4 60.65 18.65 58.3 25.1 57.05 31.55 55.8 36.9 55.4 42.2 55.0 44.35 57.5 M32.0 71.55 Q31.8 72.55 31.05 73.05 L29.65 73.55 Q28.95 73.55 28.3 73.1 27.7 72.65 27.7 72.2 27.7 71.75 28.35 70.95 28.95 70.15 29.9 70.0 L31.5 70.25 Q32.15 70.55 32.0 71.55 M37.6 63.25 Q37.6 62.85 37.15 62.6 L36.15 62.35 35.15 62.6 Q34.75 62.85 34.75 63.25 34.75 63.65 35.15 63.85 L36.15 64.15 37.15 63.85 37.6 63.25 M6.6 61.7 Q6.6 62.25 6.1 62.65 L4.95 63.0 Q4.25 63.0 3.8 62.65 3.35 62.25 3.35 61.7 3.35 61.2 3.8 60.8 4.25 60.4 4.95 60.4 5.6 60.4 6.1 60.8 6.6 61.2 6.6 61.7 M-7.7 61.0 L-2.3 61.7 Q0.45 62.15 0.45 64.5 0.45 66.95 -2.4 68.15 L-2.7 69.1 -0.95 68.9 1.9 69.2 Q3.1 69.55 3.05 70.6 3.05 71.6 1.9 72.45 0.7 73.3 -0.95 73.3 -2.55 73.3 -3.65 72.7 -4.45 72.25 -4.65 71.65 L-5.3 71.5 -7.8 69.45 -12.7 70.05 Q-16.05 70.4 -19.55 69.45 -21.65 68.95 -22.4 67.95 -22.0 67.5 -22.0 66.9 -22.0 66.15 -22.5 65.7 L-22.6 65.6 Q-22.25 64.1 -21.45 63.45 -15.85 62.0 -7.7 61.0 M17.95 66.45 L17.8 65.75 Q17.6 65.45 17.35 65.45 17.05 65.45 16.85 65.75 16.65 66.05 16.6 66.5 L16.65 67.3 Q16.7 67.6 17.15 67.55 17.6 67.45 17.8 67.15 L17.95 66.45 M15.75 69.45 Q13.7 70.7 14.25 72.3 14.9 73.0 16.8 72.95 18.15 72.65 18.45 71.6 18.6 70.7 18.1 69.85 L17.7 69.15 17.45 68.9 Q17.1 68.5 16.4 68.9 L15.75 69.45 M49.6 59.15 L49.35 58.4 Q49.15 58.1 48.8 58.1 48.4 58.1 48.15 58.4 L47.95 59.15 48.15 59.9 48.8 60.15 49.35 59.9 49.6 59.15 M-38.05 -40.35 L-38.85 -41.0 -39.15 -41.25 Q-41.35 -43.45 -42.35 -45.75 -43.35 -48.25 -42.45 -49.5 -41.95 -50.1 -41.15 -50.25 -44.6 -54.2 -46.05 -58.35 -47.8 -63.45 -45.45 -65.8 -43.1 -68.1 -37.95 -66.4 L-37.8 -66.25 -35.3 -65.15 -34.8 -64.75 Q-29.0 -59.4 -22.1 -51.65 L-21.3 -49.65 Q-19.45 -44.5 -21.8 -42.2 L-23.2 -41.25 Q-25.1 -40.45 -28.0 -41.25 L-29.3 -41.6 -30.75 -42.2 -30.4 -41.25 Q-30.1 -40.05 -30.3 -39.2 -30.8 -40.85 -31.3 -40.65 -31.85 -40.0 -31.3 -37.95 L-31.75 -37.8 Q-31.05 -36.25 -31.35 -35.85 -32.0 -36.15 -32.95 -35.25 -34.75 -33.9 -34.55 -32.85 -36.25 -32.7 -39.25 -35.3 -40.35 -36.9 -38.05 -40.35 M-23.5 -47.9 Q-24.4 -49.9 -26.0 -51.4 L-28.75 -53.75 Q-29.9 -54.75 -30.9 -52.75 -31.95 -50.85 -31.9 -48.1 -31.85 -45.35 -30.5 -45.1 L-27.25 -44.8 Q-25.4 -44.65 -24.0 -45.25 -22.6 -45.8 -23.5 -47.9 M-31.8 -58.1 Q-31.4 -58.6 -32.0 -59.05 -32.55 -59.55 -33.6 -59.55 -34.6 -59.55 -35.35 -58.95 -36.05 -58.35 -35.75 -57.8 L-34.95 -56.55 -33.8 -55.65 Q-33.3 -55.6 -32.75 -56.55 L-31.8 -58.1 M-48.9 -78.8 L-51.15 -80.1 Q-52.85 -83.75 -50.05 -83.9 -48.15 -83.2 -47.2 -80.35 -46.6 -78.35 -48.9 -78.8 M-46.3 -68.45 Q-46.3 -67.45 -46.8 -66.75 -47.3 -66.0 -47.9 -66.0 -48.55 -66.0 -49.05 -66.75 -49.5 -67.45 -49.5 -68.45 -49.5 -69.4 -49.05 -70.1 -48.55 -70.85 -47.9 -70.85 -47.3 -70.85 -46.8 -70.1 -46.3 -69.4 -46.3 -68.45 M-42.35 -65.95 L-42.65 -66.4 -43.35 -66.6 -44.1 -66.4 -44.4 -65.95 -44.1 -65.5 -43.35 -65.3 Q-42.95 -65.3 -42.65 -65.5 -42.35 -65.65 -42.35 -65.95 M-14.8 -38.75 Q-14.6 -37.15 -15.45 -36.05 -16.4 -35.0 -17.2 -35.0 -18.05 -35.1 -19.1 -36.15 -20.2 -37.2 -20.4 -38.75 -20.6 -40.2 -19.8 -41.25 L-19.75 -41.4 Q-18.85 -42.5 -17.6 -42.5 -16.4 -42.5 -15.65 -41.4 L-15.6 -41.25 Q-15.0 -40.2 -14.8 -38.75 M-7.85 -16.2 L-7.8 -16.05 Q-6.45 -9.65 -7.35 -4.8 L-7.95 -2.8 -6.55 -1.75 Q-5.7 -0.65 -5.7 0.9 -5.7 2.55 -6.55 3.65 -7.35 4.8 -8.55 4.8 -9.7 4.8 -10.55 3.65 -11.35 2.55 -11.35 0.9 L-11.3 0.55 -12.05 0.75 Q-15.75 1.45 -19.05 -2.4 -22.4 -6.2 -24.65 -12.5 -26.95 -18.85 -26.0 -24.15 -25.15 -29.5 -21.5 -30.35 -17.85 -31.25 -13.55 -26.85 L-12.8 -26.1 -9.95 -27.65 Q-8.6 -28.45 -7.85 -24.35 -6.35 -18.4 -7.85 -16.2 M-33.5 -35.65 Q-33.1 -36.3 -33.55 -36.5 L-34.55 -36.65 -35.35 -36.25 -35.6 -35.45 -35.35 -34.7 -34.7 -34.45 Q-34.35 -34.45 -34.15 -34.7 -33.85 -35.0 -33.5 -35.65 M-32.15 -47.15 L-32.55 -48.4 Q-32.9 -49.3 -33.45 -49.3 L-34.45 -48.75 Q-34.85 -48.25 -34.85 -47.5 -34.85 -46.75 -34.45 -46.25 -34.05 -45.75 -33.45 -45.75 -32.9 -45.75 -32.5 -46.2 -32.1 -46.7 -32.15 -47.15 M-32.15 -25.25 Q-31.8 -24.55 -32.25 -23.9 -32.7 -23.35 -33.4 -23.35 -34.15 -23.35 -34.6 -24.0 -35.15 -24.65 -35.5 -25.8 -35.9 -26.9 -35.45 -27.6 -35.05 -28.3 -34.3 -27.9 L-33.0 -26.75 -32.15 -25.25 M-19.05 -10.25 L-19.65 -11.35 Q-20.05 -11.9 -20.5 -12.0 -20.9 -12.15 -21.35 -11.65 -21.8 -11.1 -21.75 -10.45 -21.7 -9.8 -21.1 -9.45 L-20.15 -8.9 Q-19.7 -8.65 -19.3 -9.15 -18.85 -9.7 -19.05 -10.25 M-32.5 2.45 L-34.15 -0.9 Q-34.85 -4.6 -32.55 -4.6 -30.65 -4.4 -29.15 -0.6 -27.35 3.45 -32.5 2.45 M-16.2 -23.3 L-16.7 -23.45 Q-17.35 -23.5 -18.05 -22.65 L-19.05 -20.55 Q-19.45 -19.45 -18.6 -18.9 -17.8 -18.35 -16.45 -18.4 -15.35 -18.4 -14.4 -18.9 L-14.0 -19.05 Q-13.0 -19.75 -13.7 -20.8 L-15.25 -22.6 Q-15.75 -23.1 -16.2 -23.3 M-2.3 -8.4 Q-2.3 -7.35 -2.85 -6.6 -3.35 -5.85 -4.05 -5.85 -4.85 -5.85 -5.1 -6.55 L-5.4 -8.4 -5.1 -10.25 Q-4.85 -11.05 -4.05 -11.05 -3.35 -11.05 -2.85 -10.25 -2.3 -9.45 -2.3 -8.4 M-4.25 8.2 L-3.65 8.75 Q-3.0 9.6 -3.0 10.8 L-2.9 12.85 Q-2.85 13.7 -4.55 13.7 -6.3 13.7 -7.0 12.85 -7.75 12.0 -7.75 10.8 L-7.55 9.75 -7.4 9.85 Q-6.7 10.4 -5.95 10.4 -5.25 10.4 -4.75 9.85 -4.2 9.35 -4.2 8.6 L-4.25 8.2 M-22.25 7.8 Q-20.3 8.25 -18.05 11.05 -16.05 14.05 -17.55 15.65 -20.25 15.75 -23.05 13.75 L-23.8 13.2 Q-25.4 10.8 -25.05 10.05 L-23.4 10.6 Q-22.5 10.65 -22.4 9.75 L-22.25 7.8 M-27.9 1.95 Q-27.6 0.1 -26.15 1.05 -25.05 2.35 -25.45 3.25 -26.1 3.95 -27.05 3.25 -27.9 2.75 -27.9 1.95 M-9.05 67.8 Q-9.05 67.45 -9.35 67.1 L-9.5 66.8 -10.7 65.3 Q-11.4 64.5 -12.15 64.5 -12.9 64.5 -13.5 65.25 L-14.25 66.95 Q-14.45 68.05 -13.95 68.8 -13.4 69.45 -12.35 69.45 -11.4 69.45 -9.95 68.85 -9.05 68.4 -9.05 67.8 M-14.25 65.85 L-14.45 65.0 -15.0 64.6 -15.55 65.0 -15.7 65.85 -15.55 66.7 -15.0 67.1 -14.45 66.7 -14.25 65.85 M-19.75 70.55 Q-19.75 71.1 -20.15 71.4 -20.5 71.8 -21.0 71.8 -21.5 71.8 -21.85 71.4 -22.25 71.1 -22.25 70.55 -22.25 70.05 -21.85 69.65 -21.5 69.35 -21.0 69.35 -20.5 69.35 -20.15 69.65 -19.75 70.05 -19.75 70.55 M-39.55 66.2 Q-38.45 63.55 -35.3 63.0 -34.0 62.95 -33.7 64.35 -37.3 67.0 -39.55 66.2 M-7.8 82.65 Q-6.7 79.2 -2.3 82.4 -3.15 82.9 -2.85 83.85 L-4.3 83.75 -7.8 82.65" fill="#ff750a" fill-rule="evenodd" stroke="none"/>
    <path d="M14.15 -6.45 L9.5 -6.2 11.3 -10.0 14.15 -6.45" fill="#fdec4d" fill-rule="evenodd" stroke="none"/>
  </g>
</svg>
