<?xml version="1.0" encoding="UTF-8" standalone="no"?>
<svg xmlns:xlink="http://www.w3.org/1999/xlink" height="167.75px" width="102.45px" xmlns="http://www.w3.org/2000/svg">
  <g transform="matrix(1.0, 0.0, 0.0, 1.0, 114.4, 130.65)">
    <path d="M-104.95 -112.7 Q-104.95 -112.4 -105.25 -112.25 L-105.95 -112.05 -106.7 -112.25 Q-107.0 -112.4 -107.0 -112.7 L-106.7 -113.15 -105.95 -113.35 -105.25 -113.15 -104.95 -112.7 M-92.9 -85.95 L-91.75 -84.3 Q-91.05 -82.9 -92.5 -82.8 -93.45 -82.85 -93.9 -84.7 -94.45 -86.75 -93.9 -87.4 -93.4 -87.6 -92.9 -85.95 M-94.4 -104.85 L-95.35 -103.3 Q-95.9 -102.35 -96.4 -102.4 -97.0 -102.55 -97.55 -103.3 L-98.35 -104.55 Q-98.65 -105.1 -97.95 -105.7 -97.2 -106.3 -96.2 -106.3 -95.15 -106.3 -94.6 -105.8 -94.0 -105.35 -94.4 -104.85 M-86.1 -94.65 Q-85.2 -92.55 -86.6 -92.0 -88.0 -91.4 -89.85 -91.55 L-93.1 -91.85 Q-94.45 -92.1 -94.5 -94.85 -94.55 -97.6 -93.5 -99.5 -92.5 -101.5 -91.35 -100.5 L-88.6 -98.15 Q-87.0 -96.65 -86.1 -94.65 M-94.75 -93.9 Q-94.7 -93.45 -95.1 -92.95 -95.5 -92.5 -96.05 -92.5 -96.65 -92.5 -97.05 -93.0 -97.45 -93.5 -97.45 -94.25 -97.45 -95.0 -97.05 -95.5 -96.65 -96.05 -96.05 -96.05 -95.5 -96.05 -95.15 -95.15 L-94.75 -93.9 M-96.1 -82.4 L-96.75 -81.45 Q-96.95 -81.2 -97.3 -81.2 -97.65 -81.2 -97.95 -81.45 L-98.2 -82.2 -97.95 -83.0 -97.15 -83.4 -96.15 -83.25 Q-95.7 -83.05 -96.1 -82.4 M-97.15 -79.6 Q-97.35 -80.65 -95.55 -82.0 -94.6 -82.9 -93.95 -82.6 -93.25 -82.35 -92.9 -80.6 -91.85 -77.2 -96.5 -78.8 L-97.15 -79.6 M-77.0 -65.65 Q-77.95 -65.15 -79.05 -65.15 -80.4 -65.1 -81.2 -65.65 -82.05 -66.2 -81.65 -67.3 L-80.65 -69.4 Q-79.95 -70.25 -79.3 -70.2 L-78.8 -70.05 -77.85 -69.35 -76.3 -67.55 Q-75.6 -66.5 -76.6 -65.8 L-77.0 -65.65 M-81.65 -57.0 Q-81.45 -56.45 -81.9 -55.9 -82.3 -55.4 -82.75 -55.65 L-83.7 -56.2 Q-84.3 -56.55 -84.35 -57.2 -84.4 -57.85 -83.95 -58.4 -83.5 -58.9 -83.1 -58.75 L-82.25 -58.1 -81.65 -57.0 M-87.65 -36.7 L-88.15 -37.0 Q-89.55 -37.85 -89.45 -38.8 -89.4 -39.65 -88.85 -40.45 L-87.95 -41.35 Q-89.8 -40.85 -90.1 -41.75 -89.8 -42.55 -88.7 -42.8 L-88.3 -42.9 Q-87.25 -42.3 -87.95 -41.35 L-87.3 -41.75 Q-86.3 -42.3 -85.6 -41.55 -84.85 -40.85 -84.85 -39.4 L-84.85 -38.95 -85.0 -37.0 Q-85.1 -36.1 -86.0 -36.15 -86.65 -36.15 -87.65 -36.7 M-55.55 -51.75 Q-55.45 -50.75 -55.95 -50.1 -56.6 -49.25 -58.05 -49.75 L-58.55 -49.95 Q-59.65 -50.35 -60.25 -51.1 -60.9 -51.9 -60.9 -53.05 -60.9 -54.2 -60.25 -55.05 L-59.85 -55.45 -58.65 -55.9 Q-57.7 -55.9 -57.1 -55.05 -56.35 -54.2 -55.8 -52.6 L-55.55 -51.75 M-39.2 -27.45 L-42.8 -28.1 Q-44.95 -28.9 -44.15 -31.1 -43.4 -32.95 -42.2 -33.85 -40.85 -34.85 -39.4 -32.7 -38.35 -31.05 -38.0 -29.45 -37.75 -28.6 -37.8 -28.1 L-38.0 -27.65 Q-38.3 -27.3 -38.95 -27.45 L-39.2 -27.45 M-56.25 -48.3 Q-56.25 -48.0 -56.65 -47.85 -57.05 -47.55 -57.6 -47.55 L-58.6 -47.85 Q-58.95 -48.0 -58.95 -48.3 L-58.6 -48.9 -57.6 -49.1 -56.65 -48.9 -56.25 -48.3 M-47.2 -34.6 Q-47.55 -35.85 -46.55 -35.9 L-44.4 -35.9 Q-43.05 -35.7 -43.55 -34.35 -44.05 -33.3 -44.8 -32.65 -45.65 -31.85 -46.45 -32.95 L-47.2 -34.6 M-40.2 -25.4 Q-40.2 -25.05 -40.6 -24.8 L-41.6 -24.55 -42.55 -24.8 -43.0 -25.4 -42.55 -26.0 -41.6 -26.25 -40.6 -26.0 -40.2 -25.4 M-70.15 -37.0 Q-70.7 -37.5 -70.55 -38.15 -70.4 -38.9 -69.9 -39.4 -69.3 -39.95 -68.55 -39.95 -67.85 -39.95 -67.35 -39.4 -66.95 -39.05 -66.85 -38.55 L-66.8 -38.15 Q-66.8 -37.4 -67.35 -36.9 -67.85 -36.35 -68.55 -36.35 -69.3 -36.35 -70.0 -36.9 L-70.15 -37.0 M-44.15 -17.5 Q-44.15 -17.1 -44.65 -16.85 -45.15 -16.55 -45.75 -16.55 L-46.85 -16.85 Q-47.35 -17.1 -47.35 -17.5 L-46.85 -18.2 -45.75 -18.5 -44.65 -18.2 Q-44.15 -17.9 -44.15 -17.5 M-27.35 -9.05 L-26.75 -9.8 Q-25.8 -10.9 -25.1 -10.4 L-23.55 -9.1 -22.05 -7.4 Q-21.5 -6.45 -22.4 -5.75 -22.95 -5.25 -23.7 -5.0 L-24.55 -4.95 Q-25.8 -4.95 -26.95 -5.85 -28.1 -6.8 -27.9 -7.75 L-27.35 -9.05 M-23.3 -9.65 Q-24.15 -11.0 -23.3 -11.05 -20.8 -9.9 -21.0 -8.8 -21.85 -7.9 -23.3 -9.65 M-52.25 19.15 Q-50.95 17.0 -47.85 16.8 -46.05 18.85 -47.25 22.25 L-47.4 22.5 Q-48.6 23.65 -49.75 22.85 -52.8 21.45 -52.25 19.15 M-29.35 21.4 Q-30.35 18.25 -28.25 17.7 L-24.9 17.95 Q-23.3 18.25 -23.95 19.35 -25.45 22.9 -27.05 23.75 -28.3 23.55 -29.35 21.4 M-13.0 12.4 L-13.25 13.15 -13.8 13.4 -14.45 13.15 -14.65 12.4 -14.45 11.65 Q-14.2 11.35 -13.8 11.35 -13.45 11.35 -13.25 11.65 -13.0 11.95 -13.0 12.4 M-26.0 10.45 Q-25.85 11.15 -26.25 11.4 L-27.0 11.6 -27.45 11.2 -27.6 10.25 -27.45 9.25 -27.0 8.85 Q-26.65 8.85 -26.4 9.35 L-26.0 10.45 M-28.4 11.15 L-28.85 12.4 Q-29.0 12.95 -30.05 12.7 -31.15 12.4 -31.95 11.7 L-32.8 10.75 Q-32.8 10.45 -32.0 9.9 -31.25 9.45 -30.1 9.45 -29.0 9.45 -28.5 9.9 -28.05 10.4 -28.4 11.15 M-25.0 16.5 Q-25.0 16.9 -25.45 17.1 -25.85 17.4 -26.45 17.4 L-27.45 17.1 Q-27.85 16.9 -27.85 16.5 -27.85 16.1 -27.45 15.85 L-26.45 15.6 -25.45 15.85 Q-25.0 16.1 -25.0 16.5 M-46.85 22.7 L-46.2 22.15 Q-45.5 21.75 -45.15 22.15 L-44.9 22.4 -44.5 23.1 Q-44.0 23.95 -44.15 24.85 -44.45 25.9 -45.8 26.2 -47.7 26.25 -48.35 25.55 -48.9 23.95 -46.85 22.7 M-44.65 19.7 L-44.8 20.4 Q-45.0 20.7 -45.45 20.8 -45.9 20.85 -45.95 20.55 L-46.0 19.75 -45.75 19.0 Q-45.55 18.7 -45.25 18.7 -45.0 18.7 -44.8 19.0 L-44.65 19.7 M-71.65 21.05 Q-71.65 21.65 -72.55 22.1 -74.0 22.7 -74.95 22.7 -76.0 22.7 -76.55 22.05 -77.05 21.3 -76.85 20.2 L-76.1 18.5 Q-75.5 17.75 -74.75 17.75 -74.0 17.75 -73.3 18.55 L-72.1 20.05 -71.95 20.35 Q-71.65 20.7 -71.65 21.05 M-85.2 18.85 L-85.1 18.95 Q-84.6 19.4 -84.6 20.15 -84.6 20.75 -85.0 21.2 L-85.1 21.35 Q-85.6 21.9 -86.35 21.9 -87.0 21.9 -87.55 21.35 -88.05 20.85 -88.05 20.15 -88.05 19.4 -87.55 18.95 -87.0 18.45 -86.35 18.45 -85.65 18.45 -85.2 18.85 M-76.85 19.1 L-77.05 19.95 Q-77.25 20.35 -77.6 20.35 L-78.15 19.95 -78.3 19.1 -78.15 18.25 Q-77.85 17.85 -77.6 17.85 -77.25 17.85 -77.05 18.25 L-76.85 19.1" fill="#ffffff" fill-rule="evenodd" stroke="none"/>
    <path d="M-111.5 -125.55 L-113.75 -126.85 Q-115.45 -130.5 -112.65 -130.65 -110.75 -129.95 -109.8 -127.1 -109.2 -125.1 -111.5 -125.55 M-108.9 -115.2 Q-108.9 -114.2 -109.4 -113.5 -109.9 -112.75 -110.5 -112.75 -111.15 -112.75 -111.65 -113.5 -112.1 -114.2 -112.1 -115.2 L-111.65 -116.85 Q-111.15 -117.6 -110.5 -117.6 -109.9 -117.6 -109.4 -116.85 -108.9 -116.15 -108.9 -115.2 M-104.95 -112.7 L-105.25 -113.15 -105.95 -113.35 -106.7 -113.15 -107.0 -112.7 Q-107.0 -112.4 -106.7 -112.25 L-105.95 -112.05 -105.25 -112.25 Q-104.95 -112.4 -104.95 -112.7 M-93.9 -84.7 L-94.35 -84.55 Q-94.95 -86.7 -95.7 -88.0 -96.4 -89.1 -97.2 -89.6 -98.65 -89.7 -100.0 -88.0 L-100.65 -87.1 -101.45 -87.75 -101.75 -88.0 Q-103.95 -90.2 -104.95 -92.5 -105.95 -95.0 -105.05 -96.25 -104.55 -96.85 -103.75 -97.0 -107.2 -100.95 -108.65 -105.1 -110.4 -110.2 -108.05 -112.55 -105.7 -114.85 -100.55 -113.15 L-100.4 -113.0 -101.55 -113.35 Q-102.6 -113.65 -103.75 -113.0 -105.0 -112.3 -104.85 -110.55 -104.7 -108.7 -103.95 -107.7 -103.2 -106.65 -101.6 -106.95 -100.0 -107.15 -98.55 -108.05 -97.15 -108.9 -97.0 -109.85 -96.9 -110.8 -97.4 -111.5 -91.6 -106.15 -84.7 -98.4 L-83.9 -96.4 Q-82.05 -91.25 -84.4 -88.95 L-85.8 -88.0 Q-87.7 -87.2 -90.6 -88.0 L-91.9 -88.35 -93.35 -88.95 -93.0 -88.0 Q-92.7 -86.8 -92.9 -85.95 -93.4 -87.6 -93.9 -87.4 -94.45 -86.75 -93.9 -84.7 M-86.1 -94.65 Q-87.0 -96.65 -88.6 -98.15 L-91.35 -100.5 Q-92.5 -101.5 -93.5 -99.5 -94.55 -97.6 -94.5 -94.85 -94.45 -92.1 -93.1 -91.85 L-89.85 -91.55 Q-88.0 -91.4 -86.6 -92.0 -85.2 -92.55 -86.1 -94.65 M-94.4 -104.85 Q-94.0 -105.35 -94.6 -105.8 -95.15 -106.3 -96.2 -106.3 -97.2 -106.3 -97.95 -105.7 -98.65 -105.1 -98.35 -104.55 L-97.55 -103.3 Q-97.0 -102.55 -96.4 -102.4 -95.9 -102.35 -95.35 -103.3 L-94.4 -104.85 M-77.4 -85.5 Q-77.2 -83.9 -78.05 -82.8 -79.0 -81.75 -79.8 -81.75 -80.65 -81.85 -81.7 -82.9 -82.8 -83.95 -83.0 -85.5 -83.2 -86.95 -82.4 -88.0 L-82.35 -88.15 Q-81.45 -89.25 -80.2 -89.25 -79.0 -89.25 -78.25 -88.15 L-78.2 -88.0 Q-77.6 -86.95 -77.4 -85.5 M-94.75 -93.9 L-95.15 -95.15 Q-95.5 -96.05 -96.05 -96.05 -96.65 -96.05 -97.05 -95.5 -97.45 -95.0 -97.45 -94.25 -97.45 -93.5 -97.05 -93.0 -96.65 -92.5 -96.05 -92.5 -95.5 -92.5 -95.1 -92.95 -94.7 -93.45 -94.75 -93.9 M-94.75 -72.0 Q-94.4 -71.3 -94.85 -70.65 -95.3 -70.1 -96.0 -70.1 -96.75 -70.1 -97.2 -70.75 -97.75 -71.4 -98.1 -72.55 -98.5 -73.65 -98.05 -74.35 -97.65 -75.05 -96.9 -74.65 L-95.6 -73.5 -94.75 -72.0 M-78.8 -70.05 L-79.3 -70.2 Q-79.95 -70.25 -80.65 -69.4 L-81.65 -67.3 Q-82.05 -66.2 -81.2 -65.65 -80.4 -65.1 -79.05 -65.15 -77.95 -65.15 -77.0 -65.65 -72.25 -62.1 -70.45 -62.95 L-70.4 -62.8 Q-69.05 -56.4 -69.95 -51.55 L-70.55 -49.55 Q-69.8 -49.35 -69.15 -48.5 -68.3 -47.4 -68.3 -45.85 -68.3 -44.2 -69.15 -43.1 -69.95 -41.95 -71.15 -41.95 -72.3 -41.95 -73.15 -43.1 -73.95 -44.2 -73.95 -45.85 L-73.9 -46.2 -74.65 -46.0 Q-78.35 -45.3 -81.65 -49.15 -85.0 -52.95 -87.25 -59.25 -89.55 -65.6 -88.6 -70.9 -87.75 -76.25 -84.1 -77.1 -80.45 -78.0 -76.15 -73.6 L-75.4 -72.85 Q-78.65 -71.0 -78.8 -70.05 M-81.65 -57.0 L-82.25 -58.1 -83.1 -58.75 Q-83.5 -58.9 -83.95 -58.4 -84.4 -57.85 -84.35 -57.2 -84.3 -56.55 -83.7 -56.2 L-82.75 -55.65 Q-82.3 -55.4 -81.9 -55.9 -81.45 -56.45 -81.65 -57.0 M-90.5 -44.8 Q-90.2 -46.65 -88.75 -45.7 -87.65 -44.4 -88.05 -43.5 -88.7 -42.8 -89.65 -43.5 -90.5 -44.0 -90.5 -44.8 M-84.85 -38.95 Q-82.9 -38.5 -80.65 -35.7 -78.65 -32.7 -80.15 -31.1 -82.85 -31.0 -85.65 -33.0 L-86.4 -33.55 Q-88.0 -35.95 -87.65 -36.7 -86.65 -36.15 -86.0 -36.15 -85.1 -36.1 -85.0 -37.0 L-84.85 -38.95 M-74.1 -61.85 Q-74.25 -62.45 -74.75 -62.95 L-75.7 -63.45 Q-76.15 -63.45 -76.65 -62.95 -77.15 -62.45 -77.0 -61.95 -76.95 -61.4 -76.3 -61.05 L-75.3 -60.45 Q-74.95 -60.25 -74.45 -60.7 -73.95 -61.15 -74.1 -61.85 M-64.9 -55.15 Q-64.9 -54.1 -65.45 -53.35 -65.95 -52.6 -66.65 -52.6 -67.45 -52.6 -67.7 -53.3 L-68.0 -55.15 -67.7 -57.0 Q-67.45 -57.8 -66.65 -57.8 -65.95 -57.8 -65.45 -57.0 -64.9 -56.2 -64.9 -55.15 M-58.55 -49.95 L-58.05 -49.75 Q-56.6 -49.25 -55.95 -50.1 -55.45 -50.75 -55.55 -51.75 -53.95 -51.65 -53.15 -52.9 L-53.1 -52.95 -48.45 -53.2 -33.45 -33.8 Q-32.55 -31.5 -33.9 -29.6 -35.25 -27.9 -37.8 -28.1 -37.75 -28.6 -38.0 -29.45 -38.35 -31.05 -39.4 -32.7 -40.85 -34.85 -42.2 -33.85 -43.4 -32.95 -44.15 -31.1 -44.95 -28.9 -42.8 -28.1 L-39.2 -27.45 Q-37.65 -25.55 -37.9 -23.55 -38.2 -21.25 -41.2 -20.5 -43.4 -23.6 -47.85 -25.2 -49.3 -25.15 -49.85 -24.0 -52.8 -25.85 -52.65 -28.85 -52.05 -32.2 -48.9 -32.8 -54.15 -36.65 -56.55 -40.45 -60.6 -46.35 -58.55 -49.95 M-51.65 -50.35 Q-51.65 -50.75 -52.2 -51.05 L-53.6 -51.35 -55.0 -51.05 -55.55 -50.35 Q-55.55 -49.95 -55.0 -49.6 -54.4 -49.25 -53.6 -49.25 -52.8 -49.25 -52.2 -49.6 -51.65 -49.95 -51.65 -50.35 M-40.2 -25.4 L-40.6 -26.0 -41.6 -26.25 -42.55 -26.0 -43.0 -25.4 -42.55 -24.8 -41.6 -24.55 -40.6 -24.8 Q-40.2 -25.05 -40.2 -25.4 M-47.2 -34.6 L-46.45 -32.95 Q-45.65 -31.85 -44.8 -32.65 -44.05 -33.3 -43.55 -34.35 -43.05 -35.7 -44.4 -35.9 L-46.55 -35.9 Q-47.55 -35.85 -47.2 -34.6 M-56.25 -48.3 L-56.65 -48.9 -57.6 -49.1 -58.6 -48.9 -58.95 -48.3 Q-58.95 -48.0 -58.6 -47.85 L-57.6 -47.55 Q-57.05 -47.55 -56.65 -47.85 -56.25 -48.0 -56.25 -48.3 M-31.65 -25.35 Q-30.55 -24.3 -30.35 -22.9 -30.15 -21.6 -30.9 -20.75 -31.7 -20.0 -33.15 -20.2 -34.4 -20.4 -35.5 -21.5 -36.65 -22.65 -36.85 -23.95 -37.05 -25.3 -36.25 -26.1 -35.45 -26.9 -34.1 -26.65 -32.8 -26.45 -31.65 -25.35 M-27.35 -9.05 Q-29.8 -11.65 -27.6 -13.65 -26.65 -12.6 -24.9 -12.45 -23.05 -12.35 -22.35 -13.6 L-22.15 -14.0 Q-19.2 -12.8 -13.9 -6.25 -9.95 -1.65 -14.1 -0.6 L-18.75 -2.05 -19.7 -2.45 -19.85 -2.5 Q-22.5 -3.5 -23.7 -5.0 -22.95 -5.25 -22.4 -5.75 -21.5 -6.45 -22.05 -7.4 L-23.55 -9.1 -25.1 -10.4 Q-25.8 -10.9 -26.75 -9.8 L-27.35 -9.05 M-32.7 -13.2 L-31.7 -12.15 Q-31.4 -11.55 -31.7 -11.05 -32.0 -10.6 -32.7 -10.45 L-34.05 -10.8 Q-34.75 -11.15 -35.05 -11.8 -35.3 -12.5 -35.05 -12.95 -34.75 -13.45 -34.05 -13.5 -33.3 -13.65 -32.7 -13.2 M-23.3 -9.65 Q-21.85 -7.9 -21.0 -8.8 -20.8 -9.9 -23.3 -11.05 -24.15 -11.0 -23.3 -9.65 M-52.25 19.15 L-52.4 18.4 Q-52.45 16.15 -48.2 13.9 -43.95 11.55 -37.5 10.3 L-25.7 8.65 Q-20.4 8.25 -18.25 10.75 L-20.2 11.05 Q-22.3 11.55 -21.0 14.5 L-20.15 16.35 Q-21.8 18.1 -23.95 19.35 -23.3 18.25 -24.9 17.95 L-28.25 17.7 Q-30.35 18.25 -29.35 21.4 L-37.5 22.95 -40.55 23.2 Q-38.7 24.2 -38.7 25.5 -38.7 26.85 -40.75 27.8 -42.7 28.8 -45.25 29.05 L-48.5 28.7 Q-48.15 27.1 -52.35 24.85 -51.95 23.85 -50.45 23.1 L-49.75 22.85 Q-48.6 23.65 -47.4 22.5 L-47.25 22.25 Q-46.05 18.85 -47.85 16.8 -50.95 17.0 -52.25 19.15 M-28.4 11.15 Q-28.05 10.4 -28.5 9.9 -29.0 9.45 -30.1 9.45 -31.25 9.45 -32.0 9.9 -32.8 10.45 -32.8 10.75 L-31.95 11.7 Q-31.15 12.4 -30.05 12.7 -29.0 12.95 -28.85 12.4 L-28.4 11.15 M-26.0 10.45 L-26.4 9.35 Q-26.65 8.85 -27.0 8.85 L-27.45 9.25 -27.6 10.25 -27.45 11.2 -27.0 11.6 -26.25 11.4 Q-25.85 11.15 -26.0 10.45 M-30.6 24.8 Q-30.8 25.8 -31.55 26.3 -32.3 26.8 -32.95 26.8 L-34.3 26.35 Q-34.9 25.9 -34.9 25.45 L-34.25 24.2 Q-33.65 23.4 -32.7 23.25 L-31.1 23.5 Q-30.45 23.8 -30.6 24.8 M-21.55 15.3 Q-21.8 14.25 -22.2 13.7 -22.6 13.15 -23.2 13.15 L-24.05 13.6 Q-24.35 14.05 -24.2 14.85 -24.15 15.6 -23.6 16.25 -23.1 16.95 -22.05 17.2 -21.0 17.4 -21.15 16.9 L-21.55 15.3 M-34.3 18.75 Q-34.9 15.95 -35.5 14.6 -36.1 13.25 -37.2 13.5 -38.25 13.7 -39.3 15.05 L-41.1 18.05 Q-41.9 19.7 -40.65 20.55 -39.4 21.4 -37.7 21.9 L-34.9 21.95 Q-33.65 21.55 -34.3 18.75 M-25.0 16.5 Q-25.0 16.1 -25.45 15.85 L-26.45 15.6 -27.45 15.85 Q-27.85 16.1 -27.85 16.5 -27.85 16.9 -27.45 17.1 L-26.45 17.4 Q-25.85 17.4 -25.45 17.1 -25.0 16.9 -25.0 16.5 M-56.0 14.95 Q-56.0 15.5 -56.5 15.9 -57.0 16.25 -57.65 16.25 L-58.8 15.9 -59.25 14.95 Q-59.25 14.45 -58.8 14.05 -58.35 13.65 -57.65 13.65 -57.0 13.65 -56.5 14.05 -56.0 14.45 -56.0 14.95 M-65.3 22.35 L-63.55 22.15 -60.7 22.45 Q-59.5 22.8 -59.55 23.85 -59.55 24.85 -60.7 25.7 -61.9 26.55 -63.55 26.55 -65.15 26.55 -66.25 25.95 -67.05 25.5 -67.25 24.9 -66.25 25.1 -65.85 23.95 L-65.3 22.35 M-41.95 17.95 Q-41.95 17.3 -42.35 16.8 -42.7 16.35 -43.15 16.35 L-43.95 16.8 Q-44.35 17.3 -44.35 17.95 L-44.25 19.1 Q-44.25 19.7 -43.5 19.6 -42.7 19.5 -42.35 19.05 -41.95 18.55 -41.95 17.95 M-46.85 22.7 Q-48.9 23.95 -48.35 25.55 -47.7 26.25 -45.8 26.2 -44.45 25.9 -44.15 24.85 -44.0 23.95 -44.5 23.1 L-44.9 22.4 -45.15 22.15 Q-45.5 21.75 -46.2 22.15 L-46.85 22.7 M-44.65 19.7 L-44.8 19.0 Q-45.0 18.7 -45.25 18.7 -45.55 18.7 -45.75 19.0 L-46.0 19.75 -45.95 20.55 Q-45.9 20.85 -45.45 20.8 -45.0 20.7 -44.8 20.4 L-44.65 19.7 M-72.1 20.05 L-73.3 18.55 Q-74.0 17.75 -74.75 17.75 -75.5 17.75 -76.1 18.5 L-76.85 20.2 Q-77.05 21.3 -76.55 22.05 -76.0 22.7 -74.95 22.7 -74.0 22.7 -72.55 22.1 -71.65 21.65 -71.65 21.05 L-70.55 22.65 -70.4 22.7 -75.3 23.3 Q-78.65 23.65 -82.15 22.7 -84.25 22.2 -85.0 21.2 -84.6 20.75 -84.6 20.15 -84.6 19.4 -85.1 18.95 L-85.2 18.85 Q-84.85 17.35 -84.05 16.7 -78.45 15.25 -70.3 14.25 L-64.9 14.95 Q-62.15 15.4 -62.15 17.75 -62.15 20.2 -65.0 21.4 L-64.6 20.2 Q-64.0 18.05 -65.2 16.9 -66.35 15.85 -68.1 16.65 L-71.2 18.05 Q-72.6 18.65 -72.1 20.0 L-72.1 20.05 M-70.45 16.75 Q-70.3 16.15 -70.95 16.1 L-72.3 16.0 -73.4 16.25 Q-73.9 16.5 -73.9 17.1 L-73.4 17.95 -72.3 18.1 -71.15 17.6 -70.45 16.75 M-76.85 19.1 L-77.05 18.25 Q-77.25 17.85 -77.6 17.85 -77.85 17.85 -78.15 18.25 L-78.3 19.1 -78.15 19.95 -77.6 20.35 Q-77.25 20.35 -77.05 19.95 L-76.85 19.1 M-70.4 35.9 Q-69.3 32.45 -64.9 35.65 -65.75 36.15 -65.45 37.1 L-66.9 37.0 -70.4 35.9" fill="#ffffff" fill-opacity="0.22745098" fill-rule="evenodd" stroke="none"/>
  </g>
</svg>
