<?xml version="1.0" encoding="UTF-8" standalone="no"?>
<svg xmlns:xlink="http://www.w3.org/1999/xlink" height="87.05px" width="85.2px" xmlns="http://www.w3.org/2000/svg">
  <g transform="matrix(1.0, 0.0, 0.0, 1.0, 0.75, 0.75)">
    <path d="M5.65 11.3 L13.75 0.05 Q40.65 -1.65 79.25 49.2 L82.05 55.8 Q48.8 18.3 19.8 12.4 18.25 17.35 25.85 29.4 46.45 33.1 77.9 52.35 L83.7 60.8 Q55.75 45.2 34.5 41.55 41.25 50.3 51.05 61.45 L57.5 73.95 Q36.15 54.6 23.6 40.5 L12.55 41.3 Q13.85 52.4 59.5 78.05 L64.55 85.55 Q7.65 61.6 0.0 45.6 L2.4 31.55 Q7.35 28.95 13.9 28.5 6.05 17.7 5.65 11.3 12.5 10.85 19.8 12.4 M12.55 41.3 Q5.75 42.65 0.0 45.6 M34.5 41.55 L23.6 40.5 M13.9 28.5 Q19.3 28.15 25.85 29.4" fill="none" stroke="#000000" stroke-linecap="round" stroke-linejoin="round" stroke-width="1.5"/>
  </g>
</svg>
