<?xml version="1.0" encoding="UTF-8" standalone="no"?>
<svg xmlns:xlink="http://www.w3.org/1999/xlink" height="37.6px" width="32.65px" xmlns="http://www.w3.org/2000/svg">
  <g transform="matrix(1.0, 0.0, 0.0, 1.0, 0.0, 0.0)">
    <path d="M26.5 5.0 Q30.35 9.35 32.05 14.35 32.6 16.55 32.6 18.85 33.15 26.55 28.75 32.05 24.85 37.6 18.2 37.6 11.6 37.6 6.1 32.05 L5.5 31.55 Q2.2 27.65 1.1 23.25 0.0 21.05 0.0 18.85 L0.0 17.15 0.0 15.5 0.0 14.95 0.3 12.8 Q1.05 8.55 3.3 5.0 5.5 2.75 8.3 1.65 11.0 0.0 14.9 0.0 21.55 0.0 26.5 5.0" fill="#00e6f3" fill-rule="evenodd" stroke="none"/>
  </g>
</svg>
