<?xml version="1.0" encoding="UTF-8" standalone="no"?>
<svg xmlns:xlink="http://www.w3.org/1999/xlink" height="58.95px" width="118.2px" xmlns="http://www.w3.org/2000/svg">
  <g transform="matrix(1.0, 0.0, 0.0, 1.0, 1.0, 1.0)">
    <path d="M38.2 30.1 Q36.55 31.5 35.25 33.25 L36.55 29.45 Q37.2 29.45 38.2 30.1" fill="#47146d" fill-rule="evenodd" stroke="none"/>
    <path d="M35.25 33.25 Q22.7 46.95 0.0 53.25 9.25 56.95 23.7 56.95 L28.05 56.95 Q43.4 56.4 64.8 52.65 85.25 47.5 92.85 39.8 L93.5 39.2 94.9 37.15 95.2 36.65 96.1 34.7 Q97.0 31.9 96.8 29.2 65.25 33.25 44.1 19.75 41.5 25.2 38.2 30.1 36.55 31.5 35.25 33.25 M36.55 29.45 Q23.0 25.2 15.75 19.15 49.75 20.05 70.15 0.0 84.65 18.9 116.2 24.3 106.75 33.15 96.1 34.7 M38.2 30.1 Q37.2 29.45 36.55 29.45" fill="none" stroke="#000000" stroke-linecap="round" stroke-linejoin="round" stroke-width="2.0"/>
  </g>
</svg>
