<?xml version="1.0" encoding="UTF-8" standalone="no"?>
<svg xmlns:xlink="http://www.w3.org/1999/xlink" height="42.7px" width="23.25px" xmlns="http://www.w3.org/2000/svg">
  <g transform="matrix(1.0, 0.0, 0.0, 1.0, 11.65, 21.35)">
    <path d="M10.5 -14.35 L10.4 -13.7 9.75 -10.5 8.75 -4.25 8.3 -0.8 8.15 0.3 Q7.7 5.85 7.7 8.15 L7.7 8.4 7.9 11.6 8.0 12.7 8.05 12.95 8.3 14.35 8.8 16.75 9.2 18.6 Q9.9 21.6 2.25 21.35 L0.3 21.2 Q-3.25 20.85 -5.5 19.85 L-8.0 18.1 -8.45 17.55 -9.6 15.45 Q-10.85 12.55 -11.2 7.9 L-11.25 7.45 Q-11.65 2.6 -11.65 -1.7 L-11.65 -1.9 Q-11.75 -7.2 -11.3 -11.8 L-11.15 -13.5 -10.85 -16.2 -10.8 -16.4 -10.3 -21.35 Q-3.65 -18.6 4.15 -18.6 10.85 -18.6 11.6 -19.85 L10.9 -16.35 10.5 -14.35" fill="#3b4246" fill-rule="evenodd" stroke="none"/>
  </g>
</svg>
