<?xml version="1.0" encoding="UTF-8" standalone="no"?>
<svg xmlns:xlink="http://www.w3.org/1999/xlink" height="22.95px" width="22.55px" xmlns="http://www.w3.org/2000/svg">
  <g transform="matrix(1.0, 0.0, 0.0, 1.0, 11.3, 11.45)">
    <path d="M-8.6 4.6 L-7.45 6.7 -7.0 7.25 Q-6.05 8.25 -4.5 9.0 -2.25 10.0 1.3 10.35 L3.25 10.5 Q10.9 10.75 10.2 7.75 L9.8 5.9 9.3 3.5 9.05 2.1 9.0 1.85 8.9 0.75 8.8 -0.35 9.25 -5.85 8.5 -5.6 7.4 -9.45 5.15 -5.85 2.9 -5.7 -0.55 -6.35 -2.5 -10.45 -5.1 -6.8 Q-8.35 -7.35 -10.3 -8.75 L-9.95 -5.7 -9.95 -0.55 Q-9.5 2.5 -8.6 4.6 Z" fill="none" stroke="#000000" stroke-linecap="round" stroke-linejoin="round" stroke-width="2.0"/>
  </g>
</svg>
