<?xml version="1.0" encoding="UTF-8" standalone="no"?>
<svg xmlns:xlink="http://www.w3.org/1999/xlink" height="32.35px" width="23.8px" xmlns="http://www.w3.org/2000/svg">
  <g transform="matrix(1.0, 0.0, 0.0, 1.0, 11.9, 16.15)">
    <path d="M8.75 -0.95 L5.4 -1.25 6.35 -11.6 -0.95 -12.05 Q-1.0 -11.5 -1.4 -11.1 -1.85 -10.65 -2.55 -10.65 L-2.75 -10.65 -3.05 -2.5 -2.9 -2.45 Q-2.35 -2.4 -2.0 -2.05 -1.55 -1.6 -1.55 -0.95 -1.55 -0.3 -2.0 0.15 -2.45 0.6 -3.15 0.6 -3.8 0.6 -4.25 0.15 -4.7 -0.3 -4.7 -0.95 -4.7 -1.6 -4.25 -2.05 -3.8 -2.5 -3.15 -2.5 L-3.05 -2.5 M6.35 -11.6 L6.65 -15.65 11.4 -15.6 M-11.25 0.75 L-7.85 0.75 -7.85 8.85 1.55 8.85 Q1.55 8.2 2.0 7.7 2.45 7.2 3.1 7.2 3.8 7.2 4.25 7.7 4.7 8.2 4.7 8.85 L4.25 10.0 Q3.8 10.5 3.1 10.5 2.45 10.5 2.0 10.0 1.55 9.5 1.55 8.85 M-2.75 -10.65 Q-3.25 -10.7 -3.65 -11.1 -4.1 -11.55 -4.1 -12.2 -4.1 -12.85 -3.65 -13.3 -3.2 -13.75 -2.55 -13.75 L-2.3 -13.7 -1.4 -13.3 Q-0.95 -12.85 -0.95 -12.2 L-0.95 -12.05 M-11.4 15.7 L-7.85 15.7 -7.85 8.85" fill="none" stroke="#33ccff" stroke-linecap="round" stroke-linejoin="round" stroke-width="1.0"/>
  </g>
</svg>
