<?xml version="1.0" encoding="UTF-8" standalone="no"?>
<svg xmlns:xlink="http://www.w3.org/1999/xlink" height="27.4px" width="29.7px" xmlns="http://www.w3.org/2000/svg">
  <g transform="matrix(1.0, 0.0, 0.0, 1.0, 14.85, 13.45)">
    <path d="M-7.15 11.55 Q0.05 9.05 10.55 11.4 12.15 8.35 11.3 5.3 12.95 2.65 12.85 -0.25 11.4 -1.1 11.65 -1.55 2.35 -5.05 -5.45 -3.25 L-10.3 -1.8 -11.75 -1.15 Q-12.75 -5.5 -10.25 -10.8 M-7.15 11.55 L-11.0 12.95 -13.15 6.65 Q-14.35 2.85 -13.45 -0.25 L-11.75 -1.15 M11.65 -1.55 Q13.9 -0.2 13.85 -11.2" fill="none" stroke="#000000" stroke-linecap="round" stroke-linejoin="round" stroke-width="2.0"/>
    <path d="M-10.3 -1.8 Q-10.55 2.7 -9.85 5.5 -9.15 8.25 -7.15 11.55 M-5.45 -3.25 Q-6.55 -5.8 -6.35 -8.5 L-5.35 -12.95" fill="none" stroke="#000000" stroke-linecap="round" stroke-linejoin="round" stroke-width="1.0"/>
  </g>
</svg>
