<?xml version="1.0" encoding="UTF-8" standalone="no"?>
<svg xmlns:xlink="http://www.w3.org/1999/xlink" height="11.55px" width="26.65px" xmlns="http://www.w3.org/2000/svg">
  <g transform="matrix(1.0, 0.0, 0.0, 1.0, 13.4, -0.25)">
    <path d="M12.65 6.0 Q12.65 8.15 11.35 9.65 10.1 11.2 8.25 11.2 6.45 11.2 5.15 9.65 3.85 8.15 3.85 6.0 3.85 3.9 5.15 2.35 6.45 0.85 8.25 0.85 10.1 0.85 11.35 2.35 12.65 3.9 12.65 6.0 M-4.0 6.0 Q-4.0 8.15 -5.3 9.65 -6.55 11.2 -8.4 11.2 -10.2 11.2 -11.5 9.65 -12.8 8.15 -12.8 6.0 -12.8 3.9 -11.5 2.35 -10.2 0.85 -8.4 0.85 -6.55 0.85 -5.3 2.35 -4.0 3.9 -4.0 6.0" fill="none" stroke="#000000" stroke-linecap="round" stroke-linejoin="round" stroke-width="1.2000000000000002"/>
    <path d="M8.5 3.35 Q8.5 4.15 7.75 4.7 7.05 5.3 6.05 5.3 5.05 5.3 4.3 4.7 3.6 4.15 3.6 3.35 3.6 2.55 4.3 1.95 5.05 1.4 6.05 1.4 7.05 1.4 7.75 1.95 8.5 2.55 8.5 3.35 M-8.1 3.35 Q-8.1 4.15 -8.85 4.7 -9.55 5.3 -10.55 5.3 -11.55 5.3 -12.3 4.7 -13.0 4.15 -13.0 3.35 -13.0 2.55 -12.3 1.95 -11.55 1.4 -10.55 1.4 -9.55 1.4 -8.85 1.95 -8.1 2.55 -8.1 3.35" fill="#ffffff" fill-rule="evenodd" stroke="none"/>
  </g>
</svg>
