<?xml version="1.0" encoding="UTF-8" standalone="no"?>
<svg xmlns:xlink="http://www.w3.org/1999/xlink" height="28.7px" width="28.1px" xmlns="http://www.w3.org/2000/svg">
  <g transform="matrix(1.0, 0.0, 0.0, 1.0, 0.65, 14.35)">
    <path d="M3.7 -6.3 Q2.9 -9.2 3.25 -10.55 4.7 -10.4 6.7 -8.4 5.25 -7.65 3.95 -6.55 L3.7 -6.3 M20.1 -8.4 Q22.1 -10.4 23.55 -10.55 23.9 -9.2 23.1 -6.3 L22.85 -6.55 20.1 -8.4 M18.0 3.2 Q18.0 1.9 18.5 0.95 18.95 0.05 19.65 0.05 20.35 0.05 20.85 0.95 21.3 1.9 21.3 3.2 21.3 4.5 20.85 5.4 20.35 6.35 19.65 6.35 18.95 6.35 18.5 5.4 18.0 4.5 18.0 3.2 M8.8 3.2 Q8.8 4.5 8.3 5.4 7.85 6.35 7.15 6.35 6.45 6.35 5.95 5.4 5.5 4.5 5.5 3.2 5.5 1.9 5.95 0.95 6.45 0.05 7.15 0.05 7.85 0.05 8.3 0.95 8.8 1.9 8.8 3.2" fill="#ffffff" fill-rule="evenodd" stroke="none"/>
    <path d="M6.7 -8.4 L8.6 -9.2 Q4.65 -12.65 1.3 -13.7 0.65 -10.6 2.2 -4.65 L3.7 -6.3 3.95 -6.55 Q5.25 -7.65 6.7 -8.4 M20.1 -8.4 L18.2 -9.2 Q16.0 -10.0 13.4 -10.0 10.8 -10.0 8.6 -9.2 M20.1 -8.4 L22.85 -6.55 23.1 -6.3 24.6 -4.65 Q26.15 -10.6 25.5 -13.7 22.15 -12.65 18.2 -9.2 M24.6 -4.65 Q26.8 -1.8 26.8 1.85 26.8 6.75 22.85 10.2 18.9 13.65 13.4 13.7 7.9 13.65 3.95 10.2 0.0 6.75 0.0 1.85 0.0 -1.8 2.2 -4.65 M10.9 7.55 Q11.2 8.45 11.85 8.2 L12.85 7.7 Q13.15 7.45 13.4 7.45 L13.95 7.7 14.95 8.2 Q15.6 8.45 15.9 7.55" fill="none" stroke="#ffffff" stroke-linecap="round" stroke-linejoin="round" stroke-width="1.3"/>
  </g>
</svg>
