<?xml version="1.0" encoding="UTF-8" standalone="no"?>
<svg xmlns:xlink="http://www.w3.org/1999/xlink" height="39.45px" width="133.25px" xmlns="http://www.w3.org/2000/svg">
  <g transform="matrix(1.0, 0.0, 0.0, 1.0, 55.3, 19.55)">
    <path d="M-35.6 -19.05 L58.25 -19.05 Q66.2 -19.05 71.8 -13.45 77.45 -7.8 77.45 0.15 L77.45 0.2 Q77.45 8.15 71.8 13.75 66.2 19.4 58.25 19.4 L-35.6 19.4 Q-43.6 19.4 -49.2 13.75 -54.8 8.15 -54.8 0.2 L-54.8 0.15 Q-54.8 -7.8 -49.2 -13.45 -43.6 -19.05 -35.6 -19.05" fill="#1a1b23" fill-opacity="0.69803923" fill-rule="evenodd" stroke="none"/>
    <path d="M-35.6 -19.05 L58.25 -19.05 Q66.2 -19.05 71.8 -13.45 77.45 -7.8 77.45 0.15 L77.45 0.2 Q77.45 8.15 71.8 13.75 66.2 19.4 58.25 19.4 L-35.6 19.4 Q-43.6 19.4 -49.2 13.75 -54.8 8.15 -54.8 0.2 L-54.8 0.15 Q-54.8 -7.8 -49.2 -13.45 -43.6 -19.05 -35.6 -19.05 Z" fill="none" stroke="#eeeeee" stroke-linecap="round" stroke-linejoin="round" stroke-opacity="0.41960785" stroke-width="1.0"/>
  </g>
</svg>
