<?xml version="1.0" encoding="UTF-8" standalone="no"?>
<svg xmlns:xlink="http://www.w3.org/1999/xlink" height="58.1px" width="58.1px" xmlns="http://www.w3.org/2000/svg">
  <g transform="matrix(1.0, 0.0, 0.0, 1.0, 29.25, 28.6)">
    <path d="M-20.7 -20.1 Q-12.25 -28.6 -0.2 -28.6 11.9 -28.6 20.35 -20.1 28.85 -11.6 28.85 0.45 28.85 12.5 20.35 21.05 11.9 29.5 -0.2 29.5 -12.25 29.5 -20.7 21.05 -29.25 12.5 -29.25 0.45 -29.25 -11.6 -20.7 -20.1 M-0.25 -23.15 Q-9.95 -23.15 -16.85 -16.2 -23.8 -9.3 -23.8 0.45 -23.8 10.2 -16.85 17.1 -9.95 24.0 -0.25 24.0 9.5 24.0 16.45 17.1 23.35 10.2 23.35 0.45 23.35 -9.3 16.45 -16.2 9.5 -23.15 -0.25 -23.15" fill="#000000" fill-opacity="0.49803922" fill-rule="evenodd" stroke="none"/>
    <path d="M27.45 0.05 Q27.45 11.5 19.35 19.55 11.3 27.65 -0.15 27.65 -11.55 27.65 -19.65 19.55 -27.75 11.5 -27.75 0.05 -27.75 -11.4 -19.65 -19.45 -11.55 -27.55 -0.15 -27.55 11.3 -27.55 19.35 -19.45 27.45 -11.4 27.45 0.05 M25.5 0.05 Q25.5 -10.6 18.0 -18.15 10.45 -25.65 -0.2 -25.65 -10.85 -25.65 -18.35 -18.15 -25.9 -10.6 -25.9 0.05 -25.9 10.7 -18.35 18.25 -10.85 25.75 -0.2 25.75 10.45 25.75 18.0 18.25 25.5 10.7 25.5 0.05 25.5 10.7 18.0 18.25 10.45 25.75 -0.2 25.75 -10.85 25.75 -18.35 18.25 -25.9 10.7 -25.9 0.05 -25.9 -10.6 -18.35 -18.15 -10.85 -25.65 -0.2 -25.65 10.45 -25.65 18.0 -18.15 25.5 -10.6 25.5 0.05" fill="url(#gradient0)" fill-rule="evenodd" stroke="none"/>
    <path d="M27.45 0.05 Q27.45 11.5 19.35 19.55 11.3 27.65 -0.15 27.65 -11.55 27.65 -19.65 19.55 -27.75 11.5 -27.75 0.05 -27.75 -11.4 -19.65 -19.45 -11.55 -27.55 -0.15 -27.55 11.3 -27.55 19.35 -19.45 27.45 -11.4 27.45 0.05" fill="none" stroke="#2c323c" stroke-linecap="round" stroke-linejoin="round" stroke-opacity="0.7490196" stroke-width="1.0"/>
    <path d="M25.5 0.05 Q25.5 10.7 18.0 18.25 10.45 25.75 -0.2 25.75 -10.85 25.75 -18.35 18.25 -25.9 10.7 -25.9 0.05 -25.9 -10.6 -18.35 -18.15 -10.85 -25.65 -0.2 -25.65 10.45 -25.65 18.0 -18.15 25.5 -10.6 25.5 0.05" fill="none" stroke="#2c323c" stroke-linecap="round" stroke-linejoin="round" stroke-opacity="0.42745098" stroke-width="0.5"/>
  </g>
  <defs>
    <linearGradient gradientTransform="matrix(-0.0096, -0.0319, 0.0323, -0.0097, -0.5, -1.15)" gradientUnits="userSpaceOnUse" id="gradient0" spreadMethod="pad" x1="-819.2" x2="819.2">
      <stop offset="0.054901960784313725" stop-color="#d6d0ff" stop-opacity="0.92941177"/>
      <stop offset="1.0" stop-color="#9196cb" stop-opacity="0.8784314"/>
    </linearGradient>
  </defs>
</svg>
