<?xml version="1.0" encoding="UTF-8" standalone="no"?>
<svg xmlns:xlink="http://www.w3.org/1999/xlink" height="22.9px" width="21.3px" xmlns="http://www.w3.org/2000/svg">
  <g transform="matrix(1.0, 0.0, 0.0, 1.0, 10.65, 11.45)">
    <path d="M8.1 -3.95 L8.55 -3.95 Q9.95 -5.55 9.6 -7.55 3.3 -8.75 -1.65 -10.45 -2.6 -9.1 -2.4 -7.25 L-2.4 -7.2 -2.5 -7.15 -2.45 -7.1 -2.05 -6.8 Q1.6 -3.95 8.1 -3.95 L7.3 0.9 7.1 3.8 6.95 5.05 6.25 8.0 Q5.85 9.45 5.0 10.45 L4.95 10.4 Q4.65 9.05 3.5 8.55 2.0 7.9 0.35 8.05 -1.5 6.55 -3.85 7.15 L-3.95 7.15 Q-5.4 5.7 -8.2 5.8 L-8.85 6.05 -9.2 6.35 -9.65 5.85 Q-6.55 2.45 -7.35 -0.25 L-6.75 -0.05 -3.95 -2.8 M-3.65 -3.15 L-2.05 -6.8 M-6.75 -0.05 Q-4.35 1.0 -4.1 2.5" fill="none" stroke="#000000" stroke-linecap="round" stroke-linejoin="round" stroke-width="2.0"/>
  </g>
</svg>
