<?xml version="1.0" encoding="UTF-8" standalone="no"?>
<svg xmlns:xlink="http://www.w3.org/1999/xlink" height="23.45px" width="25.95px" xmlns="http://www.w3.org/2000/svg">
  <g transform="matrix(1.0, 0.0, 0.0, 1.0, 12.95, 11.75)">
    <path d="M-4.8 -3.25 L-1.85 -5.7 -2.35 -5.95 Q-3.6 -8.9 -1.65 -11.75 0.05 -11.4 1.25 -8.35 2.95 -11.0 3.8 -11.45 4.95 -10.5 5.3 -8.05 7.7 -10.35 8.8 -9.7 9.05 -9.3 8.8 -6.45 10.85 -7.75 13.0 -7.05 12.85 -4.55 10.8 -2.8 9.45 -1.7 9.25 -1.95 L9.05 0.6 8.9 1.85 8.2 4.8 Q7.8 6.25 6.95 7.25 L7.0 8.1 Q7.05 9.55 5.5 10.95 4.0 12.35 1.1 11.2 L0.85 11.3 -1.45 11.5 Q-3.55 11.15 -4.3 10.25 -6.6 10.7 -7.6 9.75 -8.65 8.75 -8.75 7.95 -8.85 7.05 -8.55 5.2 -8.3 3.9 -7.25 3.15 L-8.4 2.1 -11.3 0.6 -12.15 0.0 Q-13.45 -1.25 -12.65 -3.05 L-12.45 -3.35 Q-11.55 -4.75 -8.45 -4.35 L-5.45 -3.5 -4.8 -3.25" fill="#6b718e" fill-rule="evenodd" stroke="none"/>
  </g>
</svg>
