<?xml version="1.0" encoding="UTF-8" standalone="no"?>
<svg xmlns:xlink="http://www.w3.org/1999/xlink" height="15.65px" width="25.75px" xmlns="http://www.w3.org/2000/svg">
  <g transform="matrix(1.0, 0.0, 0.0, 1.0, 9.55, 8.1)">
    <path d="M1.3 -5.4 Q1.3 -3.85 -0.3 -2.4 -1.9 -0.95 -4.15 -0.35 L-7.95 -0.55 Q-9.55 -1.25 -9.55 -2.8 -9.55 -4.35 -7.95 -5.8 -6.4 -7.3 -4.15 -7.85 L-0.3 -7.7 Q1.3 -6.95 1.3 -5.4 M16.2 5.6 Q16.2 6.45 15.1 6.95 14.0 7.55 12.45 7.55 10.9 7.55 9.85 6.95 8.75 6.45 8.75 5.6 8.75 4.8 9.85 4.2 10.9 3.7 12.45 3.7 14.0 3.7 15.1 4.2 16.2 4.8 16.2 5.6" fill="#ffffff" fill-rule="evenodd" stroke="none"/>
  </g>
</svg>
