<?xml version="1.0" encoding="UTF-8" standalone="no"?>
<svg xmlns:xlink="http://www.w3.org/1999/xlink" height="20.5px" width="40.25px" xmlns="http://www.w3.org/2000/svg">
  <g transform="matrix(1.0, 0.0, 0.0, 1.0, 21.0, 6.85)">
    <path d="M18.9 -6.75 Q19.4 -3.0 19.15 -1.4 0.7 -2.4 -17.4 -0.15 -18.0 -2.1 -17.6 -5.95 -0.4 -7.2 18.9 -6.75" fill="#221f4d" fill-opacity="0.24705882" fill-rule="evenodd" stroke="none"/>
    <path d="M-13.7 8.0 L-21.0 8.45 -20.8 8.0 Q-20.65 7.7 -20.25 7.65 L-14.45 6.45 -13.75 7.3 Q-13.3 7.9 -13.7 8.0 M-13.15 8.85 L-12.5 8.8 Q-12.2 8.9 -12.05 9.2 L-11.95 9.8 -12.35 10.3 -15.3 11.2 -15.4 11.05 -15.45 10.45 -15.05 9.9 -13.15 8.85 M-11.25 10.2 L-10.8 9.75 -10.2 9.7 Q-9.85 9.8 -9.7 10.2 L-9.7 10.8 -11.45 13.65 -11.65 13.6 -12.05 13.2 -12.1 12.5 -11.25 10.2" fill="#000000" fill-rule="evenodd" stroke="none"/>
  </g>
</svg>
