<?xml version="1.0" encoding="UTF-8" standalone="no"?>
<svg xmlns:xlink="http://www.w3.org/1999/xlink" height="27.0px" width="27.05px" xmlns="http://www.w3.org/2000/svg">
  <g transform="matrix(1.0, 0.0, 0.0, 1.0, 13.55, 13.5)">
    <path d="M0.65 -2.55 L1.55 -4.45 Q2.95 -6.55 4.9 -6.55 6.8 -6.55 8.15 -4.45 9.55 -2.3 9.55 0.7 9.55 3.7 8.15 5.8 6.8 7.95 4.9 7.95 2.95 7.95 1.55 5.8 0.75 4.5 0.3 3.25 L4.8 0.4 0.65 -2.55" fill="#000000" fill-rule="evenodd" stroke="none"/>
    <path d="M-8.9 -8.85 Q-5.2 -12.5 0.0 -12.5 5.2 -12.5 8.85 -8.85 12.5 -5.15 12.5 0.05 12.5 5.15 8.85 8.85 5.2 12.5 0.0 12.5 -5.2 12.5 -8.9 8.85 -12.55 5.15 -12.55 0.05 -12.55 -5.15 -8.9 -8.85 Z" fill="none" stroke="#000000" stroke-linecap="round" stroke-linejoin="round" stroke-width="2.0"/>
  </g>
</svg>
