<?xml version="1.0" encoding="UTF-8" standalone="no"?>
<svg xmlns:xlink="http://www.w3.org/1999/xlink" height="29.1px" width="41.2px" xmlns="http://www.w3.org/2000/svg">
  <g transform="matrix(1.0, 0.0, 0.0, 1.0, 20.6, 14.55)">
    <path d="M12.5 -7.4 L8.7 -7.7 3.45 -7.55 Q0.2 -7.3 -2.7 -4.5 -5.7 -1.65 -5.95 3.45 -6.2 8.55 -4.8 11.35 -7.0 9.15 -9.55 8.9 L-17.7 8.35 -12.5 7.2 Q-17.0 7.1 -20.6 5.9 -15.0 4.25 -9.9 -1.7 -11.9 -1.25 -17.9 -1.6 -11.5 -4.0 -7.05 -7.15 -11.55 -7.15 -12.2 -8.55 -4.35 -8.4 -0.95 -10.15 L-4.25 -11.9 7.15 -11.5 7.25 -11.5 7.35 -11.5 Q14.5 -11.9 20.0 -8.7 L17.95 -8.85 Q19.65 -7.35 20.6 -5.35 16.4 -8.1 12.5 -7.4 M-9.05 -2.8 L-8.95 -2.55 Q-8.85 -2.0 -9.9 -1.7 -8.85 -2.0 -8.95 -2.55 L-9.05 -2.8 M-8.95 -2.55 Q-7.95 -0.05 -9.9 -1.7 -7.95 -0.05 -8.95 -2.55" fill="#000000" fill-rule="evenodd" stroke="none"/>
    <path d="M12.5 -7.4 Q16.4 -8.1 20.6 -5.35 19.65 -7.35 17.95 -8.85 L20.0 -8.7 Q14.5 -11.9 7.35 -11.5 L7.25 -11.5 7.15 -11.5 -4.25 -11.9 -0.95 -10.15 Q-4.35 -8.4 -12.2 -8.55 -11.55 -7.15 -7.05 -7.15 -11.5 -4.0 -17.9 -1.6 -11.9 -1.25 -9.9 -1.7 -8.85 -2.0 -8.95 -2.55 L-9.05 -2.8 M-9.9 -1.7 Q-7.95 -0.05 -8.95 -2.55 M3.45 -7.55 Q0.2 -7.3 -2.7 -4.5 -5.7 -1.65 -5.95 3.45 -6.2 8.55 -4.8 11.35 -7.0 9.15 -9.55 8.9 L-17.7 8.35 -12.5 7.2 Q-17.0 7.1 -20.6 5.9 -15.0 4.25 -9.9 -1.7" fill="none" stroke="#000000" stroke-linecap="round" stroke-linejoin="round" stroke-width="0.05"/>
    <path d="M10.4 -14.05 Q13.2 -13.8 15.9 -12.65 M-1.2 12.6 L-2.6 14.05 M-5.05 13.9 L-3.35 12.35 M0.85 12.9 L-0.05 13.85" fill="none" stroke="#000000" stroke-linecap="round" stroke-linejoin="round" stroke-width="1.0"/>
  </g>
</svg>
