<?xml version="1.0" encoding="UTF-8" standalone="no"?>
<svg xmlns:xlink="http://www.w3.org/1999/xlink" height="29.4px" width="19.0px" xmlns="http://www.w3.org/2000/svg">
  <g transform="matrix(1.0, 0.0, 0.0, 1.0, 9.5, 14.7)">
    <path d="M8.3 0.0 Q8.3 -5.5 5.85 -9.4 3.4 -13.35 0.0 -13.35 -3.5 -13.35 -5.95 -9.4 -8.3 -5.5 -8.3 0.0 -8.3 5.55 -5.95 9.45 -3.5 13.35 0.0 13.35 3.4 13.35 5.85 9.45 8.3 5.55 8.3 0.0 M9.5 0.0 Q9.5 6.1 6.7 10.4 3.95 14.7 0.0 14.7 -3.95 14.7 -6.75 10.4 -9.5 6.1 -9.5 0.0 -9.5 -6.05 -6.75 -10.35 -3.95 -14.7 0.0 -14.7 3.95 -14.7 6.7 -10.35 9.5 -6.05 9.5 0.0" fill="#271414" fill-rule="evenodd" stroke="none"/>
  </g>
</svg>
