<?xml version="1.0" encoding="UTF-8" standalone="no"?>
<svg xmlns:xlink="http://www.w3.org/1999/xlink" height="24.9px" width="25.0px" xmlns="http://www.w3.org/2000/svg">
  <g transform="matrix(1.0, 0.0, 0.0, 1.0, 12.5, 12.45)">
    <path d="M11.9 0.0 Q11.9 4.9 8.4 8.4 4.9 11.85 0.0 11.85 -4.9 11.85 -8.4 8.4 -11.9 4.9 -11.9 0.0 -11.9 -4.9 -8.4 -8.4 -4.9 -11.85 0.0 -11.85 4.9 -11.85 8.4 -8.4 11.9 -4.9 11.9 0.0" fill="none" stroke="#000000" stroke-linecap="round" stroke-linejoin="round" stroke-width="1.2000000000000002"/>
    <path d="M9.85 0.0 Q9.85 4.05 6.95 6.95 4.05 9.85 0.0 9.85 -4.1 9.85 -7.0 6.95 -9.85 4.05 -9.85 0.0 -9.85 -4.1 -7.0 -6.95 -4.1 -9.85 0.0 -9.85 4.05 -9.85 6.95 -6.95 9.85 -4.1 9.85 0.0" fill="none" stroke="#000000" stroke-linecap="round" stroke-linejoin="round" stroke-opacity="0.627451" stroke-width="0.8"/>
  </g>
</svg>
