<?xml version="1.0" encoding="UTF-8" standalone="no"?>
<svg xmlns:xlink="http://www.w3.org/1999/xlink" height="43.4px" width="26.4px" xmlns="http://www.w3.org/2000/svg">
  <g transform="matrix(1.0, 0.0, 0.0, 1.0, 14.75, 19.95)">
    <path d="M1.75 -19.85 Q8.65 -18.7 11.65 -13.15 11.9 -12.65 8.35 -12.0 4.8 -11.35 5.8 -13.55 6.8 -15.8 4.65 -16.3 2.45 -16.8 1.35 -18.05 0.25 -19.35 1.35 -19.75 L1.75 -19.85 M6.45 -3.1 L5.45 -3.65 1.05 -6.2 Q-0.55 -7.2 2.85 -7.45 L7.2 -8.2 8.05 -8.35 Q12.15 -7.2 9.75 -4.5 L8.75 -3.0 Q8.35 -2.3 6.75 -3.0 L6.45 -3.1 M0.35 -9.65 Q-1.95 -9.5 -5.75 -9.65 -13.35 -10.0 -8.75 -10.8 L-8.3 -10.75 Q-4.3 -10.1 -1.45 -12.55 L-1.25 -12.7 Q1.8 -12.45 4.45 -11.45 1.7 -11.45 0.35 -9.65 M-7.25 -14.9 L-8.95 -16.2 Q-10.85 -18.15 -9.35 -19.2 -8.75 -19.65 -5.65 -19.9 -2.6 -20.15 -3.05 -18.05 -3.45 -16.5 -2.7 -15.35 L-6.0 -15.25 -7.25 -14.9 M9.0 0.45 Q12.75 0.95 7.1 3.45 1.4 5.9 0.95 4.15 0.45 2.35 2.85 2.4 5.25 2.45 4.55 1.7 3.85 0.9 4.45 0.5 5.25 -0.1 9.0 0.45 M2.8 9.1 L3.25 9.05 Q7.15 9.05 9.8 10.55 11.5 11.5 9.7 12.25 6.8 13.45 1.4 13.6 L-1.15 13.6 -2.05 13.45 -2.2 13.35 -1.3 12.8 Q1.35 11.85 1.4 11.15 1.45 10.5 0.25 10.35 L0.0 10.2 Q1.85 10.45 2.8 9.1 M-9.4 15.9 Q-12.5 16.75 -14.15 15.4 -15.85 14.0 -12.7 11.7 L-10.0 11.75 Q-10.4 14.0 -10.7 14.0 -8.2 14.25 -7.65 14.7 L-9.2 15.2 Q-9.8 15.4 -9.45 15.85 L-9.4 15.9 M-5.9 6.15 Q-6.9 5.55 -8.1 5.5 L-11.0 5.25 Q-14.0 4.3 -11.35 2.45 -10.05 1.5 -8.3 1.6 L-8.15 1.6 -6.85 2.05 Q-3.5 3.45 -1.25 1.65 L-0.75 1.85 Q1.6 3.2 -0.6 6.4 L-0.95 6.9 Q-3.3 6.25 -5.9 6.15 M5.2 15.5 Q8.85 14.8 10.4 17.15 10.65 17.55 10.15 17.7 7.0 18.5 4.35 16.95 3.95 16.7 4.2 16.2 4.5 15.5 5.2 15.5 M6.5 18.85 Q9.65 21.25 5.0 22.85 0.5 24.4 -1.65 21.5 -1.95 21.05 -1.35 20.9 L3.9 19.7 6.5 18.85 M-10.5 -7.6 Q-8.4 -8.4 -1.9 -5.5 -5.95 -5.7 -2.7 -3.6 0.6 -1.55 -5.65 -3.15 -11.9 -4.8 -11.95 -5.5 -12.15 -7.3 -10.5 -7.6" fill="#000000" fill-opacity="0.32941177" fill-rule="evenodd" stroke="none"/>
    <path d="M6.75 -3.0 L7.8 -2.35 Q8.9 -1.55 7.7 -0.85 4.4 0.95 1.05 -0.75 0.5 -1.0 3.65 -1.65 -1.65 -3.7 -1.25 -3.7 L-0.85 -3.8 Q-0.1 -4.85 1.15 -5.0 2.15 -5.15 2.85 -4.45 3.3 -4.0 3.35 -3.4 L6.45 -3.1 6.75 -3.0 M4.45 -11.45 L4.5 -11.45 5.75 -11.5 Q8.85 -12.55 9.45 -10.15 9.75 -9.05 8.6 -8.8 4.35 -8.0 0.5 -8.8 -0.1 -8.9 0.25 -9.5 L0.35 -9.65 Q1.7 -11.45 4.45 -11.45 M-8.75 -10.8 Q-5.5 -11.9 -7.6 -12.35 -9.7 -12.85 -10.85 -13.6 -12.0 -14.4 -10.3 -14.5 L-7.25 -14.9 -6.0 -15.25 -2.7 -15.35 Q-1.95 -15.05 -1.35 -14.45 -0.45 -13.55 -1.25 -12.7 L-1.45 -12.55 Q-4.3 -10.1 -8.3 -10.75 L-8.75 -10.8 M-0.95 6.9 Q-3.55 8.75 -0.15 8.6 3.25 8.45 2.9 8.95 L2.8 9.1 Q1.85 10.45 0.0 10.2 L-1.15 9.9 -4.45 9.55 Q-8.3 10.15 -10.0 7.8 -10.5 7.15 -9.8 6.55 -9.4 6.2 -8.95 6.2 L-5.9 6.15 Q-3.3 6.25 -0.95 6.9 M-1.15 13.6 Q-0.25 14.0 0.05 14.55 L2.55 17.25 Q4.75 19.4 -9.4 15.9 L-9.45 15.85 Q-9.8 15.4 -9.2 15.2 L-7.65 14.7 Q-2.0 16.05 -1.45 15.15 -1.0 14.35 -2.05 13.45 L-1.15 13.6 M-8.15 1.6 Q-10.3 0.9 -12.6 0.8 -13.5 0.75 -13.5 -0.2 -13.5 -1.95 -9.05 -3.45 -10.15 -0.2 -5.25 0.25 -0.35 0.7 -0.65 1.05 L-1.25 1.65 Q-3.5 3.45 -6.85 2.05 L-8.15 1.6 M8.45 4.2 Q13.5 5.45 8.2 6.85 2.9 8.2 3.4 6.3 3.85 4.35 8.45 4.2 M-10.9 19.15 Q-10.5 21.65 -7.0 21.55 L-3.85 21.85 Q-5.65 24.25 -9.2 23.05 -11.15 22.4 -11.85 20.75 -12.45 19.4 -10.9 19.15" fill="#ffffff" fill-opacity="0.24705882" fill-rule="evenodd" stroke="none"/>
  </g>
</svg>
