<?xml version="1.0" encoding="UTF-8" standalone="no"?>
<svg xmlns:xlink="http://www.w3.org/1999/xlink" height="51.95px" width="26.1px" xmlns="http://www.w3.org/2000/svg">
  <g transform="matrix(1.0, 0.0, 0.0, 1.0, 13.4, 24.9)">
    <path d="M-9.8 -23.9 Q-10.25 -22.8 -10.5 -20.85 L-11.05 -16.4 -11.9 -8.8 -12.05 -7.1 Q-12.5 -2.5 -12.4 2.8 L-12.4 3.0 Q-12.4 7.3 -12.0 12.15 L-11.95 12.6 Q-11.6 17.25 -10.35 20.15 L-9.2 22.25 -8.75 22.8 Q-7.8 23.8 -6.25 24.55 -4.0 25.55 -0.45 25.9 L1.5 26.05 Q9.15 26.3 8.45 23.3 L8.05 21.45 7.55 19.05 7.3 17.65 7.25 17.4 7.15 16.3 6.95 13.1 6.95 12.85 Q6.95 10.55 7.4 5.0 L7.55 3.9 8.0 0.45 9.0 -5.8 10.15 -11.65 10.85 -15.15 10.95 -15.6 11.0 -15.85 Q11.85 -20.8 11.7 -22.55" fill="none" stroke="#000000" stroke-linecap="round" stroke-linejoin="round" stroke-width="2.0"/>
  </g>
</svg>
