<?xml version="1.0" encoding="UTF-8" standalone="no"?>
<svg xmlns:xlink="http://www.w3.org/1999/xlink" height="31.65px" width="15.85px" xmlns="http://www.w3.org/2000/svg">
  <g transform="matrix(1.0, 0.0, 0.0, 1.0, 7.9, 15.8)">
    <path d="M-2.2 15.55 Q-4.4 13.5 -5.95 8.5 -7.65 2.5 -7.9 -5.05 L-7.3 -15.8 -1.7 -14.8 Q-3.1 0.2 -1.6 5.55 0.65 13.85 1.55 15.85 L0.55 15.8 -1.4 15.65 -2.2 15.55 M4.8 15.6 Q5.15 12.35 3.25 7.2 2.05 0.35 3.9 -14.8 L7.95 -15.4 7.05 -9.8 6.6 -6.35 6.45 -5.25 Q6.0 0.3 6.0 2.6 L6.0 2.85 6.2 6.05 6.3 7.15 6.35 7.4 6.6 8.8 7.1 11.2 7.5 13.05 Q7.95 15.05 4.8 15.6" fill="#8ee772" fill-rule="evenodd" stroke="none"/>
  </g>
</svg>
