<?xml version="1.0" encoding="UTF-8" standalone="no"?>
<svg xmlns:xlink="http://www.w3.org/1999/xlink" height="46.35px" width="23.25px" xmlns="http://www.w3.org/2000/svg">
  <g transform="matrix(1.0, 0.0, 0.0, 1.0, 11.65, 23.15)">
    <path d="M-11.15 -11.65 L-10.9 -13.9 -10.55 -18.4 -10.2 -21.45 Q-8.75 -20.05 -4.95 -19.5 L-1.95 -23.15 0.3 -19.05 4.3 -18.4 7.15 -18.6 9.4 -21.9 10.75 -18.3 11.6 -18.55 Q11.5 -16.25 10.8 -13.9 L10.5 -12.5 10.4 -11.85 9.75 -8.65 8.75 -2.4 8.3 1.05 8.15 2.15 Q7.7 7.7 7.7 10.0 L7.7 10.25 7.9 13.45 8.0 14.55 8.05 14.8 8.3 16.2 8.8 18.6 9.2 20.45 Q9.9 23.45 2.25 23.2 L0.3 23.05 Q-3.25 22.7 -5.5 21.7 L-8.0 19.95 -8.45 19.4 -9.6 17.3 Q-10.85 14.4 -11.2 9.75 L-11.25 9.3 Q-11.65 4.45 -11.65 0.15 L-11.65 -0.05 Q-11.75 -5.35 -11.3 -9.95 L-11.15 -11.65" fill="#3b4246" fill-rule="evenodd" stroke="none"/>
  </g>
</svg>
