<?xml version="1.0" encoding="UTF-8" standalone="no"?>
<svg xmlns:xlink="http://www.w3.org/1999/xlink" height="35.2px" width="20.8px" xmlns="http://www.w3.org/2000/svg">
  <g transform="matrix(1.0, 0.0, 0.0, 1.0, 10.4, 17.6)">
    <path d="M-10.1 3.7 L-10.4 -0.85 Q-10.45 -11.45 -10.2 -12.85 L-9.85 -15.9 Q-8.5 -14.5 -5.0 -13.95 L-2.2 -17.6 -0.1 -13.5 3.6 -12.85 6.0 -13.0 8.35 -16.6 9.6 -12.75 10.35 -13.0 9.1 -0.85 8.85 4.4 8.85 4.65 9.05 7.85 9.15 8.95 9.2 9.2 9.45 10.6 9.95 13.0 10.35 14.85 Q11.05 17.85 3.4 17.6 L1.45 17.45 Q-2.1 17.1 -4.35 16.1 L-6.85 14.35 -7.3 13.8 -8.45 11.7 Q-9.7 8.8 -10.05 4.15 L-10.1 3.7" fill="#3b4246" fill-rule="evenodd" stroke="none"/>
  </g>
</svg>
