<?xml version="1.0" encoding="UTF-8" standalone="no"?>
<svg xmlns:xlink="http://www.w3.org/1999/xlink" height="52.7px" width="22.45px" xmlns="http://www.w3.org/2000/svg">
  <g transform="matrix(1.0, 0.0, 0.0, 1.0, 11.25, 26.35)">
    <path d="M9.75 -3.25 Q8.6 -3.7 7.7 -4.4 L5.35 -2.55 Q4.4 -1.95 4.25 -3.2 4.35 -4.8 4.75 -6.25 3.75 -7.0 3.0 -7.9 2.0 -9.0 3.4 -9.55 L5.85 -10.2 6.15 -11.2 Q6.85 -13.2 7.5 -13.65 8.0 -13.85 8.5 -12.85 9.1 -11.75 9.3 -10.65 L11.2 -10.85 10.15 -5.5 9.75 -3.25 M-1.6 -22.7 Q0.05 -22.7 1.75 -21.7 2.5 -21.35 1.6 -20.25 0.7 -19.2 -0.65 -18.9 -0.3 -17.1 -0.35 -15.6 -0.65 -14.5 -1.55 -15.05 -2.95 -15.95 -4.05 -17.1 -5.45 -16.35 -6.8 -16.1 -7.9 -15.8 -7.95 -17.05 L-7.1 -19.95 -8.85 -22.2 Q-9.85 -23.6 -8.3 -23.7 L-5.45 -23.45 -5.0 -24.35 Q-4.1 -26.15 -3.35 -26.35 -2.75 -26.4 -2.3 -25.2 L-1.6 -22.7 M1.45 26.3 Q1.35 23.0 4.2 21.9 7.0 20.8 9.15 21.55 L9.2 21.75 9.6 23.6 Q10.3 26.6 2.65 26.35 L1.45 26.3 M-10.2 17.25 L-10.1 15.6 Q-10.0 14.6 -9.65 14.55 L-9.55 14.6 Q-8.95 14.9 -7.9 16.55 L-7.45 17.3 -5.4 17.35 Q-4.65 17.45 -4.6 17.95 -4.45 18.2 -4.7 18.75 L-5.75 20.35 Q-5.15 21.45 -4.8 22.7 -4.7 23.3 -5.05 23.4 L-5.45 23.3 -7.55 22.3 -7.9 22.75 -8.05 22.55 -9.2 20.45 -10.2 17.25 M8.3 9.2 L6.6 10.6 Q7.15 12.2 7.3 13.5 7.15 14.25 6.65 14.3 L6.3 14.25 Q4.95 13.75 3.8 12.9 L1.45 14.4 1.0 14.55 Q0.4 14.5 0.3 13.75 0.2 12.25 0.5 10.9 L-1.6 9.1 Q-2.2 8.55 -2.15 8.2 -2.3 7.65 -1.35 7.45 L1.4 7.1 1.65 6.1 Q2.25 4.05 2.95 3.65 L3.05 3.6 Q3.55 3.6 4.15 4.7 4.85 5.9 5.15 7.05 6.7 6.75 8.4 7.4 L8.3 9.2 M-11.05 -4.95 L-9.9 -5.15 -9.6 -6.15 Q-8.95 -8.2 -8.3 -8.65 -7.8 -8.9 -7.3 -7.9 L-6.5 -5.7 -3.55 -5.8 Q-2.85 -5.7 -3.55 -4.35 -4.25 -3.05 -5.35 -2.3 -4.9 -0.65 -4.8 0.8 -4.95 1.95 -5.8 1.75 -7.1 1.35 -8.1 0.55 L-10.4 2.45 -11.25 2.5 -11.25 0.2 -11.2 -1.4 -11.05 -4.95" fill="#ffffff" fill-rule="evenodd" stroke="none"/>
  </g>
</svg>
