<?xml version="1.0" encoding="UTF-8" standalone="no"?>
<svg xmlns:xlink="http://www.w3.org/1999/xlink" height="21.05px" width="21.4px" xmlns="http://www.w3.org/2000/svg">
  <g transform="matrix(1.0, 0.0, 0.0, 1.0, 12.0, -19.45)">
    <path d="M-11.5 22.0 Q-10.3 20.7 -9.1 19.95 L-6.05 23.95 -3.1 21.25 0.55 25.15 0.85 25.55 4.4 22.05 7.7 26.1 Q7.45 27.3 4.25 29.2 L7.5 32.85 8.45 34.0 M0.85 25.55 L4.25 29.2 2.9 29.95 Q1.4 30.65 0.2 31.55 L3.0 34.0 4.25 34.9 Q5.5 33.4 7.5 32.85 M8.85 38.7 Q9.35 38.7 4.25 34.9 2.9 36.5 2.45 39.2 L4.1 40.0 M-10.95 29.15 L-9.1 27.2 -11.45 23.15 M-9.1 27.2 L-5.8 31.95 -2.45 28.65 -6.05 23.95 -9.1 27.2 M-9.05 35.25 L-5.8 31.95 -3.05 35.0 Q-1.85 33.05 0.2 31.55 L-2.45 28.65 0.85 25.55 M-4.55 38.8 Q-4.1 36.7 -3.05 35.0 -0.4 37.6 2.45 39.2" fill="none" stroke="#000000" stroke-linecap="round" stroke-linejoin="round" stroke-opacity="0.6" stroke-width="1.0"/>
  </g>
</svg>
