<?xml version="1.0" encoding="UTF-8" standalone="no"?>
<svg xmlns:xlink="http://www.w3.org/1999/xlink" height="51.5px" width="25.2px" xmlns="http://www.w3.org/2000/svg">
  <g transform="matrix(1.0, 0.0, 0.0, 1.0, 12.2, 11.0)">
    <path d="M-9.4 -10.3 L-7.75 -6.8 -4.8 -10.5 -2.2 -6.3 2.05 -10.15 4.2 -5.2 Q4.85 -5.55 8.3 -9.5 L10.15 -3.65 12.5 -6.7 M-2.2 -6.3 L0.6 -1.3 4.2 -5.2 Q5.35 -2.7 7.25 0.0 L10.15 -3.65 11.6 -1.15 M10.55 4.15 L7.25 0.0 4.15 3.9 8.0 8.9 10.1 6.65 M8.0 8.9 L9.3 10.5 M4.15 3.9 L0.75 8.0 4.4 12.75 8.0 8.9 M0.75 8.0 L-2.75 12.15 0.55 16.9 4.4 12.75 8.4 17.35 4.4 22.05 7.7 26.1 Q7.45 27.3 4.25 29.2 L7.5 32.85 8.45 34.0 M0.55 16.9 L4.4 22.05 0.85 25.55 4.25 29.2 2.9 29.95 Q1.4 30.65 0.2 31.55 L3.0 34.0 4.25 34.9 Q5.5 33.4 7.5 32.85 M0.55 16.9 L-3.1 20.75 0.55 25.15 0.85 25.55 -2.45 28.65 0.2 31.55 Q-1.85 33.05 -3.05 35.0 -0.4 37.6 2.45 39.2 2.9 36.5 4.25 34.9 9.35 38.7 8.85 38.7 M2.45 39.2 L4.1 40.0 M0.6 -1.3 Q2.2 1.25 4.15 3.9 M-7.75 -6.8 L-5.85 -2.9 -2.2 -6.3 M-7.75 -6.8 L-10.25 -3.55 -9.05 0.25 -5.85 -2.9 -2.9 2.45 0.6 -1.3 M-9.05 0.25 Q-8.0 3.1 -6.25 6.35 L-2.9 2.45 0.75 8.0 M-11.2 5.7 L-9.3 10.15 -6.25 6.35 -2.75 12.15 -6.15 16.1 -3.1 20.75 -6.05 23.95 -2.45 28.65 -5.8 31.95 -3.05 35.0 Q-4.1 36.7 -4.55 38.8 M-6.15 16.1 L-9.1 19.4 -6.05 23.95 -9.1 27.2 -5.8 31.95 -9.05 35.25 M-9.3 10.15 L-6.15 16.1 M-11.65 15.2 L-9.1 19.4 -11.5 22.0 M-11.7 13.45 L-9.3 10.15 M-10.8 2.45 L-9.05 0.25 M-10.95 29.15 L-9.1 27.2 -11.45 23.15" fill="none" stroke="#000000" stroke-linecap="round" stroke-linejoin="round" stroke-opacity="0.6" stroke-width="1.0"/>
  </g>
</svg>
