<?xml version="1.0" encoding="UTF-8" standalone="no"?>
<svg xmlns:xlink="http://www.w3.org/1999/xlink" height="27.0px" width="34.15px" xmlns="http://www.w3.org/2000/svg">
  <g transform="matrix(1.0, 0.0, 0.0, 1.0, 16.95, 13.35)">
    <path d="M-4.3 -2.4 L-4.3 -2.05 Q-6.95 3.55 -7.8 7.7 -10.25 5.85 -12.9 5.1 -15.6 4.35 -16.2 3.0 L-9.55 -1.6 -4.4 -4.75 M-4.4 -7.9 Q-6.65 -11.45 -11.05 -12.6 L-13.35 -7.5 Q-14.45 -5.1 -14.05 -2.5 -10.55 -1.35 -9.55 -1.6" fill="none" stroke="#000000" stroke-linecap="round" stroke-linejoin="round" stroke-width="1.5"/>
    <path d="M-4.3 -2.05 L-4.25 -0.8 Q-3.9 3.85 -2.65 6.75 L-1.5 8.85 -1.05 9.4 Q-0.1 10.4 1.45 11.15 3.7 12.15 7.25 12.5 L9.2 12.65 Q16.85 12.9 16.15 9.9 L15.75 8.05 15.25 5.65 15.0 4.25 14.95 4.0 14.85 2.9 14.65 -0.3 14.65 -0.55 14.75 -2.85 14.85 -5.0 14.95 -6.2 Q5.3 -5.15 -4.4 -7.9 L-4.3 -7.75 -4.4 -4.75 -4.3 -2.4 -4.3 -2.1 -4.3 -2.05" fill="none" stroke="#000000" stroke-linecap="round" stroke-linejoin="round" stroke-width="2.0"/>
  </g>
</svg>
