<?xml version="1.0" encoding="UTF-8" standalone="no"?>
<svg xmlns:xlink="http://www.w3.org/1999/xlink" height="44.75px" width="24.95px" xmlns="http://www.w3.org/2000/svg">
  <g transform="matrix(1.0, 0.0, 0.0, 1.0, 12.5, 22.35)">
    <path d="M8.9 16.55 L8.45 14.4 8.2 13.0 8.15 12.75 8.05 11.65 7.85 8.45 7.85 8.2 Q7.85 5.9 8.3 0.35 L8.45 -0.75 8.9 -4.2 9.9 -10.45 10.55 -13.65 10.65 -14.3 11.05 -16.3 Q11.45 -18.2 11.45 -19.7 L0.15 -19.15 Q-6.1 -19.65 -9.95 -21.35 L-10.65 -16.35 -10.7 -16.15 -11.0 -13.45 -11.15 -11.75 Q-11.6 -7.15 -11.5 -1.85 L-11.5 -1.65 Q-11.5 2.65 -11.1 7.5 L-11.05 7.95 Q-10.8 11.6 -9.95 14.2 L-9.45 15.5 -8.3 17.6 -7.85 18.15 Q-6.9 19.15 -5.35 19.9 -3.1 20.9 0.45 21.25 L2.4 21.4 Q10.05 21.65 9.35 18.65 L8.95 16.8 8.9 16.55" fill="none" stroke="#000000" stroke-linecap="round" stroke-linejoin="round" stroke-width="2.0"/>
    <path d="M-9.95 14.2 Q-1.4 18.4 8.9 16.55 M-2.75 -16.45 Q2.85 -15.85 8.4 -16.2 L7.6 -12.8 -2.75 -13.1 -2.75 -16.45 M-2.85 -10.7 Q2.2 -10.1 7.45 -10.45 L6.7 -7.05 -2.85 -7.3 -2.85 -10.7" fill="none" stroke="#000000" stroke-linecap="round" stroke-linejoin="round" stroke-width="1.2000000000000002"/>
  </g>
</svg>
