<?xml version="1.0" encoding="UTF-8" standalone="no"?>
<svg xmlns:xlink="http://www.w3.org/1999/xlink" height="35.4px" width="10.8px" xmlns="http://www.w3.org/2000/svg">
  <g transform="matrix(1.0, 0.0, 0.0, 1.0, 5.4, 17.7)">
    <path d="M4.1 -12.95 Q4.2 -13.15 4.45 -13.15 L4.85 -12.95 5.0 -12.6 4.9 -12.2 1.95 -9.6 1.9 -9.55 1.9 -9.5 1.95 -9.45 4.5 -6.9 4.5 -6.95 4.6 -6.5 4.4 -6.15 4.05 -6.05 Q3.75 -6.1 3.65 -6.25 L0.9 -8.85 0.85 -8.9 0.8 -8.85 Q-1.45 -7.45 -4.3 -6.25 L-4.25 -6.25 -4.7 -6.25 Q-4.95 -6.3 -5.0 -6.5 L-5.0 -6.95 -4.7 -7.25 Q-2.2 -8.3 -0.15 -9.55 L-0.1 -9.6 -0.1 -9.65 -0.15 -9.7 -4.35 -12.55 -4.55 -12.9 -4.5 -13.35 -4.15 -13.55 -3.75 -13.5 Q-1.15 -11.9 0.9 -10.3 L1.0 -10.3 4.1 -12.9 4.1 -12.95 M-4.25 -17.7 L5.4 -17.4 5.4 -15.3 -4.25 -15.65 -4.25 -17.7 M3.25 -4.55 Q3.35 -4.75 3.6 -4.75 L4.0 -4.55 4.15 -4.2 4.05 -3.8 1.15 -1.2 1.1 -1.15 1.1 -1.1 1.15 -1.05 3.6 1.55 3.65 1.95 3.45 2.35 3.05 2.4 2.7 2.2 Q1.7 0.9 0.2 -0.45 L0.1 -0.5 0.05 -0.45 -4.6 2.05 -4.55 2.05 -5.0 2.05 -5.3 1.8 -5.35 1.4 -5.05 1.05 Q-2.8 0.0 -0.9 -1.2 L-0.85 -1.25 -0.85 -1.35 Q-2.7 -2.9 -4.85 -4.35 L-4.8 -4.35 -5.1 -4.75 -4.95 -5.1 -4.95 -5.15 -4.6 -5.4 -4.2 -5.25 0.15 -1.95 0.25 -1.95 3.25 -4.5 3.25 -4.55 M3.5 3.9 L3.45 4.3 1.05 7.1 1.0 7.15 1.0 7.2 1.05 7.25 3.5 9.65 3.5 9.6 3.6 10.0 3.45 10.4 3.0 10.5 2.65 10.35 0.2 8.05 0.15 8.0 0.1 8.05 -3.85 11.05 -4.2 11.1 -4.6 10.85 -4.65 10.5 -4.45 10.1 -0.8 7.35 -0.8 7.25 -0.85 7.2 -4.95 4.25 -4.9 4.25 -5.2 3.85 -5.05 3.5 -5.05 3.45 -4.7 3.2 -4.3 3.35 0.0 6.5 0.05 6.5 0.15 6.5 2.5 3.65 2.9 3.4 Q3.1 3.35 3.3 3.55 L3.5 3.9 M0.15 15.0 L-3.1 13.25 -3.1 13.3 -3.35 12.95 -3.3 12.5 Q-3.2 12.3 -3.0 12.25 L-2.6 12.3 1.0 14.15 1.1 14.15 1.15 14.15 2.5 12.35 2.85 12.1 Q3.05 12.05 3.25 12.25 L3.45 12.6 3.4 13.0 2.15 14.7 2.1 14.75 2.1 14.8 2.15 14.85 4.25 16.3 4.4 16.65 4.3 17.1 3.9 17.25 3.5 17.15 3.55 17.15 1.35 15.7 1.3 15.65 1.25 15.7 -1.35 17.65 -1.7 17.7 -2.1 17.45 -2.15 17.1 -1.95 16.7 0.2 15.15 0.2 15.1 0.2 15.0 0.15 15.0" fill="#6fa7ad" fill-rule="evenodd" stroke="none"/>
  </g>
</svg>
