<?xml version="1.0" encoding="UTF-8" standalone="no"?>
<svg xmlns:xlink="http://www.w3.org/1999/xlink" height="42.95px" width="22.7px" xmlns="http://www.w3.org/2000/svg">
  <g transform="matrix(1.0, 0.0, 0.0, 1.0, 11.65, 3.05)">
    <path d="M8.0 26.25 L7.95 32.6 Q0.75 31.7 -9.65 33.6 -10.65 30.85 -11.15 27.0 L8.0 26.25" fill="#aaebe5" fill-rule="evenodd" stroke="none"/>
    <path d="M8.45 19.25 L8.0 26.25 -11.15 27.0 Q-11.6 23.6 -11.65 19.35 -1.5 18.3 8.45 19.25" fill="#d5ebab" fill-rule="evenodd" stroke="none"/>
    <path d="M9.15 12.3 L8.45 19.25 Q-1.5 18.3 -11.65 19.35 L-11.45 12.5 Q0.9 10.85 9.15 12.3" fill="#fff39d" fill-rule="evenodd" stroke="none"/>
    <path d="M7.95 32.6 Q9.75 35.85 9.05 38.05 8.55 39.55 2.85 39.9 -6.4 40.1 -9.45 34.3 L-9.65 33.6 Q0.75 31.7 7.95 32.6" fill="#d2abea" fill-rule="evenodd" stroke="none"/>
    <path d="M-10.95 5.35 Q1.05 3.6 10.15 5.3 L9.15 12.3 Q0.9 10.85 -11.45 12.5 L-10.95 5.35" fill="#ffcc9d" fill-rule="evenodd" stroke="none"/>
    <path d="M-10.95 5.35 L-10.15 -1.95 Q0.95 -4.65 11.05 -0.7 L10.15 5.3 Q1.05 3.6 -10.95 5.35" fill="#ffa29d" fill-rule="evenodd" stroke="none"/>
  </g>
</svg>
