<?xml version="1.0" encoding="UTF-8" standalone="no"?>
<svg xmlns:xlink="http://www.w3.org/1999/xlink" height="40.5px" width="27.15px" xmlns="http://www.w3.org/2000/svg">
  <g transform="matrix(1.0, 0.0, 0.0, 1.0, 13.55, 20.25)">
    <path d="M12.0 -12.4 L12.8 -13.55 12.8 -19.45 Q7.4 -16.5 -0.7 -13.6 5.6 -12.85 11.9 -13.6 L12.0 -12.4 Q12.4 -5.15 9.7 0.65 3.8 3.2 -3.75 5.6 1.2 6.55 9.0 4.75 9.95 5.95 9.0 9.9 10.25 11.75 10.05 13.15 9.85 14.1 9.0 15.1 L9.0 18.85 Q-4.15 21.0 -12.25 15.45 L-11.45 7.2 Q-13.05 3.75 -12.6 1.2 L-7.4 -1.1 -12.7 -2.4 Q-12.85 -4.0 -12.2 -6.4 L-11.15 -10.2 -12.5 -10.9 -10.1 -15.6 Q-5.4 -14.2 -0.7 -13.6 M-11.15 -10.2 Q-7.75 -8.35 -5.9 -6.45 M-3.75 5.6 L-5.95 6.3 -8.2 6.95 -11.15 7.8 -11.45 7.2 M9.7 0.65 Q1.0 0.7 -7.4 -1.1" fill="none" stroke="#000000" stroke-linecap="round" stroke-linejoin="round" stroke-width="1.6"/>
    <path d="M2.65 -6.05 L4.9 -8.5 M-8.2 6.95 L-8.8 4.0 M-7.05 3.35 L-5.95 6.3 M6.5 11.85 Q2.75 13.45 -2.6 14.4 M-0.15 -6.85 L1.3 -8.2" fill="none" stroke="#000000" stroke-linecap="round" stroke-linejoin="round" stroke-width="1.1"/>
  </g>
</svg>
