<?xml version="1.0" encoding="UTF-8" standalone="no"?>
<svg xmlns:xlink="http://www.w3.org/1999/xlink" height="50.25px" width="37.05px" xmlns="http://www.w3.org/2000/svg">
  <g transform="matrix(1.0, 0.0, 0.0, 1.0, 18.55, 25.1)">
    <path d="M-8.05 -24.1 L-13.0 -4.7 Q-13.25 -2.2 -12.9 -0.4 -16.65 8.05 -17.35 12.25 L-17.55 14.8 Q-17.55 17.05 -16.8 19.5 L-16.15 21.3 Q-15.45 23.0 -11.0 24.0 -8.1 24.6 -5.6 23.05 -4.3 22.25 -3.15 20.8 0.25 16.6 8.9 18.15 10.85 20.0 11.6 22.6 L11.75 23.15 Q15.85 24.55 17.45 21.55 L17.5 17.15 17.2 13.05 Q16.65 7.55 15.0 1.6 15.8 0.35 15.7 -3.0 14.75 -6.15 14.8 -8.05 L14.9 -22.6" fill="none" stroke="#000000" stroke-linecap="round" stroke-linejoin="round" stroke-width="2.0"/>
  </g>
</svg>
