<?xml version="1.0" encoding="UTF-8" standalone="no"?>
<svg xmlns:xlink="http://www.w3.org/1999/xlink" height="37.5px" width="28.55px" xmlns="http://www.w3.org/2000/svg">
  <g transform="matrix(1.0, 0.0, 0.0, 1.0, 14.25, 18.75)">
    <path d="M0.1 -11.9 L-3.5 -9.35 10.1 -9.9 8.25 -12.25 Q9.8 -13.5 10.25 -15.45 3.8 -15.4 -4.0 -14.0 -3.6 -13.15 0.1 -11.9 L1.55 -12.35" fill="none" stroke="#000000" stroke-linecap="round" stroke-linejoin="round" stroke-width="1.0"/>
    <path d="M-9.85 -17.75 Q-12.15 -4.95 -12.0 9.25 -13.1 11.15 -13.25 12.45 L-11.9 14.4 Q-10.2 17.1 2.4 17.75 6.95 17.5 8.5 16.45 L10.25 14.65 Q10.5 14.05 9.55 12.55 L10.75 11.35 Q11.15 10.7 9.8 8.6 L13.3 -16.35" fill="none" stroke="#000000" stroke-linecap="round" stroke-linejoin="round" stroke-width="2.0"/>
  </g>
</svg>
