<?xml version="1.0" encoding="UTF-8" standalone="no"?>
<svg xmlns:xlink="http://www.w3.org/1999/xlink" height="14.35px" width="27.05px" xmlns="http://www.w3.org/2000/svg">
  <g transform="matrix(1.0, 0.0, 0.0, 1.0, 13.5, 7.2)">
    <path d="M7.3 -4.85 L5.25 -5.5 Q5.05 -5.55 5.15 -5.85 5.4 -6.6 6.3 -6.55 9.95 -6.55 11.95 -4.0 12.1 -3.8 11.85 -3.65 L11.05 -3.5 Q10.7 -2.95 9.35 -2.2 5.85 -0.2 4.1 -0.55 2.25 -0.85 3.2 -2.1 4.05 -3.35 2.45 -3.55 2.35 -3.2 1.1 -3.75 -0.2 -4.35 0.65 -2.65 1.5 -0.95 -3.4 -3.85 L-3.4 -3.9 Q-4.3 -3.85 -4.45 -4.7 -4.55 -5.4 -3.85 -5.5 L0.75 -5.4 1.5 -5.15 1.9 -5.3 7.3 -4.85 M12.15 -1.4 Q14.3 -1.4 13.1 -0.05 L12.9 0.1 Q10.45 0.8 8.1 0.2 7.8 0.1 7.9 -0.3 8.4 -2.0 10.6 -1.3 11.15 -1.1 11.8 -1.3 L12.15 -1.4 M1.75 2.45 L-0.2 1.95 Q-0.45 1.8 -0.3 1.55 0.35 0.35 2.05 0.35 L2.45 0.3 5.45 0.75 Q5.75 0.8 5.55 1.1 L5.1 1.65 Q6.7 1.65 6.4 2.95 L8.0 2.65 Q10.4 2.4 12.5 1.4 14.2 2.4 12.1 3.35 10.15 4.25 8.85 5.5 L5.9 5.45 Q5.05 4.75 4.85 4.25 1.45 4.85 -1.5 3.3 -2.3 2.85 -1.85 2.45 L-0.9 2.4 Q-0.4 2.8 1.2 2.85 L1.75 2.45 M3.5 5.05 Q5.05 6.1 3.05 6.6 L-6.75 6.3 -6.5 5.6 Q-6.1 4.9 -2.0 4.65 2.1 4.35 -0.2 5.5 -2.55 6.65 3.5 5.05 M-6.3 3.85 Q-5.9 4.55 -7.2 4.8 L-10.75 4.5 -11.35 4.3 Q-13.05 3.6 -13.5 2.05 -13.6 1.6 -13.1 1.5 L-12.95 1.45 Q-12.0 2.35 -10.85 2.3 -11.15 2.1 -11.1 1.7 -11.1 1.1 -6.65 -0.05 L-6.85 -0.05 -9.75 -0.1 Q-9.45 -0.4 -9.85 -0.85 -10.25 -1.3 -11.4 -1.8 -12.6 -2.3 -10.45 -2.4 L-7.75 -2.45 -11.1 -3.55 Q-12.85 -3.75 -12.65 -5.4 -12.45 -7.05 -10.1 -7.15 L-6.4 -6.75 Q-4.5 -6.0 -6.7 -5.7 -8.9 -5.4 -6.25 -3.25 -4.55 -1.85 -5.4 -1.85 L-4.85 -1.45 Q-4.6 -1.25 -4.85 -0.95 -5.25 -0.5 -5.85 -0.25 -1.5 -1.35 -4.1 0.35 -6.85 2.05 -4.65 2.15 -2.55 2.25 -2.6 3.1 -2.7 3.9 -3.25 3.95 L-6.3 3.85" fill="#000000" fill-opacity="0.32941177" fill-rule="evenodd" stroke="none"/>
  </g>
</svg>
