<?xml version="1.0" encoding="UTF-8" standalone="no"?>
<svg xmlns:xlink="http://www.w3.org/1999/xlink" height="43.55px" width="32.35px" xmlns="http://www.w3.org/2000/svg">
  <g transform="matrix(1.0, 0.0, 0.0, 1.0, 16.15, 21.75)">
    <path d="M7.95 0.65 L9.2 4.55 10.1 3.35 10.35 3.0 Q14.7 -1.8 15.1 -8.95 15.3 -14.1 15.15 -20.15 M-9.1 2.7 Q-7.4 -0.15 -10.55 -4.9 L-11.9 -6.35 Q-15.65 5.55 -15.1 11.4 -14.75 15.2 -12.1 16.7 L7.05 15.65 Q11.4 13.3 9.2 4.55 M-12.1 16.7 Q-12.6 19.25 -11.75 20.2 -2.9 21.6 7.25 19.75 7.5 17.65 7.05 15.65 M-13.0 -20.75 Q-13.05 -13.6 -13.9 -8.2 L-12.0 -6.8 Q-11.5 -6.25 -11.9 -6.35" fill="none" stroke="#000000" stroke-linecap="round" stroke-linejoin="round" stroke-width="2.0"/>
  </g>
</svg>
