<?xml version="1.0" encoding="UTF-8" standalone="no"?>
<svg xmlns:xlink="http://www.w3.org/1999/xlink" height="40.8px" width="27.7px" xmlns="http://www.w3.org/2000/svg">
  <g transform="matrix(1.0, 0.0, 0.0, 1.0, 13.85, 20.4)">
    <path d="M-12.4 -11.9 L-13.8 -13.4 Q-14.15 -17.35 -11.45 -20.4 -4.4 -17.45 5.25 -17.0 10.65 -18.3 11.75 -19.95 13.55 -16.7 13.85 -13.3 13.25 -9.15 11.7 -6.6 L11.3 -6.15 10.45 -8.3 9.9 -9.65 Q7.55 6.9 7.7 12.85 L8.15 17.25 8.2 17.35 6.25 20.4 Q2.35 20.55 0.15 17.95 -0.75 9.7 0.6 -9.55 L0.4 -9.15 -0.75 -6.2 Q-8.0 -8.65 -11.75 -11.4 L-12.05 -11.6 -12.4 -11.9" fill="#c4a693" fill-rule="evenodd" stroke="none"/>
  </g>
</svg>
