<?xml version="1.0" encoding="UTF-8" standalone="no"?>
<svg xmlns:xlink="http://www.w3.org/1999/xlink" height="37.6px" width="22.45px" xmlns="http://www.w3.org/2000/svg">
  <g transform="matrix(1.0, 0.0, 0.0, 1.0, 11.25, 18.8)">
    <path d="M-10.65 -18.8 L-10.3 -18.5 -10.0 -18.3 Q-6.25 -15.55 1.0 -13.1 L2.15 -16.05 2.35 -16.45 Q1.0 2.8 1.9 11.05 4.1 13.65 8.0 13.5 L9.95 10.45 Q10.95 13.25 11.2 14.95 L11.1 16.15 Q10.6 17.95 8.8 18.5 L1.05 18.7 Q-4.9 18.35 -8.0 15.8 -9.3 14.3 -9.9 12.35 -10.75 9.6 -10.35 5.95 L-10.3 6.0 -10.85 0.6 -11.2 -5.55 -11.25 -10.1 Q-11.25 -13.6 -10.65 -18.8" fill="#7e605a" fill-rule="evenodd" stroke="none"/>
  </g>
</svg>
