<?xml version="1.0" encoding="UTF-8" standalone="no"?>
<svg xmlns:xlink="http://www.w3.org/1999/xlink" height="36.95px" width="29.55px" xmlns="http://www.w3.org/2000/svg">
  <g transform="matrix(1.0, 0.0, 0.0, 1.0, 14.75, 18.5)">
    <path d="M5.1 -14.3 L5.1 -14.25 5.15 -14.25 5.1 -14.3 Q-4.5 -14.75 -11.6 -17.5 -14.2 -14.65 -13.65 -10.9 L-11.8 -9.2 -11.5 -9.0 Q-7.7 -6.4 -0.35 -4.1 L0.65 -6.9 1.05 -7.8 1.5 -8.7 2.65 -10.8 Q3.7 -12.6 5.1 -14.25 M8.85 -2.9 L9.35 -8.55 9.2 -8.85 7.9 -10.95 5.15 -14.25 M8.85 -2.4 L8.65 2.05 8.7 4.6 8.95 6.85 9.15 9.0 9.2 9.1 9.2 9.15 Q10.2 11.9 10.45 13.6 L10.35 14.8 Q9.85 16.6 8.05 17.15 L0.3 17.35 Q-5.65 17.0 -8.75 14.45 -10.05 12.95 -10.65 11.0 -11.5 8.25 -11.1 4.6 L-11.05 4.65 -11.6 -0.75 Q-11.95 -5.85 -11.8 -9.2 M8.85 -2.9 L8.85 -2.4 M5.1 -14.3 Q10.4 -15.55 11.4 -17.1 13.35 -14.0 13.8 -10.8 13.4 -6.9 11.95 -4.5 L11.6 -4.05 10.65 -6.1 9.35 -8.55 M0.65 -6.9 Q0.25 1.45 1.15 9.7 L1.5 10.1 Q3.65 12.3 7.25 12.15 L9.15 9.15 9.2 9.1" fill="none" stroke="#000000" stroke-linecap="round" stroke-linejoin="round" stroke-width="2.0"/>
    <path d="M9.2 -8.85 L5.6 -5.75 8.85 -2.9 9.15 -2.65 8.85 -2.4 5.55 -0.25 8.3 1.8 8.65 2.05 M5.6 -5.75 L1.35 -2.75 5.55 -0.25 1.35 2.05 5.2 4.35 8.3 1.8 M1.5 -8.7 L5.6 -5.75 M1.5 10.1 L5.9 8.1 1.5 6.25 5.2 4.35 8.95 6.85 5.9 8.1 9.15 9.15 9.2 9.15" fill="none" stroke="#000000" stroke-linecap="round" stroke-linejoin="round" stroke-width="1.0"/>
  </g>
</svg>
