<?xml version="1.0" encoding="UTF-8" standalone="no"?>
<svg xmlns:xlink="http://www.w3.org/1999/xlink" height="26.95px" width="24.4px" xmlns="http://www.w3.org/2000/svg">
  <g transform="matrix(1.0, 0.0, 0.0, 1.0, 12.2, 13.5)">
    <path d="M9.35 3.85 L10.9 7.2 11.2 8.6 11.1 9.8 Q10.6 11.6 8.8 12.15 L1.05 12.35 Q-4.9 12.0 -8.0 9.45 -9.3 7.95 -9.9 6.0 L-10.25 4.45 Q-10.55 2.7 -10.45 0.7 L-10.4 0.4 Q-11.4 -3.85 -11.15 -6.95 -8.8 -5.5 -3.8 -5.1 -3.05 -8.65 -2.1 -10.1 0.0 -12.5 4.4 -12.5 8.75 -12.55 10.2 -10.05 L8.95 1.8 9.35 3.85" fill="none" stroke="#000000" stroke-linecap="round" stroke-linejoin="round" stroke-width="2.0"/>
    <path d="M-0.15 -3.7 Q-0.1 -6.2 1.05 -8.3 4.6 -9.3 7.45 -8.2 7.8 -5.15 7.45 -3.3 L-0.15 -3.7 M-10.25 4.45 Q-9.1 5.8 -4.35 7.45 6.4 9.85 10.9 7.2" fill="none" stroke="#000000" stroke-linecap="round" stroke-linejoin="round" stroke-width="1.0"/>
  </g>
</svg>
