<?xml version="1.0" encoding="UTF-8" standalone="no"?>
<svg xmlns:xlink="http://www.w3.org/1999/xlink" height="16.15px" width="21.85px" xmlns="http://www.w3.org/2000/svg">
  <g transform="matrix(1.0, 0.0, 0.0, 1.0, 10.95, 8.1)">
    <path d="M3.75 -4.8 Q4.65 1.4 6.25 4.05 8.0 4.0 9.35 3.3 L10.9 6.65 Q6.4 9.3 -4.35 6.9 -9.1 5.25 -10.25 3.9 -10.55 2.15 -10.45 0.15 L-10.4 -0.15 -10.95 -8.1 -9.2 -7.4 -8.6 -6.25 Q-10.4 -2.75 -10.3 -0.3 -10.2 1.7 -7.05 1.0 L-4.45 0.2 Q-3.25 -0.3 -2.05 -0.9 -0.85 -1.5 1.2 -3.55 L1.85 -4.15 Q-1.45 -0.4 -3.45 3.75 0.9 3.5 4.35 5.05 3.1 0.75 3.6 -4.8 L3.65 -4.8 3.75 -4.8" fill="#434343" fill-rule="evenodd" stroke="none"/>
  </g>
</svg>
