<?xml version="1.0" encoding="UTF-8" standalone="no"?>
<svg xmlns:xlink="http://www.w3.org/1999/xlink" height="30.9px" width="24.85px" xmlns="http://www.w3.org/2000/svg">
  <g transform="matrix(1.0, 0.0, 0.0, 1.0, 12.45, 15.45)">
    <path d="M7.1 -3.85 Q7.35 -7.95 7.75 -11.95 6.55 -14.6 3.05 -14.15 -0.45 -13.7 -0.8 -11.9 L-0.85 -10.35 -0.9 -3.95 -0.65 0.95 -0.25 4.85 0.1 5.55 Q1.95 8.75 7.15 8.6 9.15 7.85 6.7 4.55 L7.1 -3.7 M7.75 -11.95 Q10.4 -12.25 11.35 -12.95 11.45 -10.15 10.05 -5.15 8.9 -1.2 9.1 3.4 L9.55 5.5 Q11.15 8.5 11.4 10.25 L11.4 10.95 11.3 11.45 Q10.8 13.25 8.75 14.0 L0.95 14.3 Q-4.85 13.8 -7.8 11.1 -9.1 9.6 -9.7 7.65 L-9.9 6.85 Q-10.45 4.65 -10.2 1.85 L-10.2 -5.1 Q-11.75 -10.9 -11.4 -14.45 -7.15 -12.2 -0.8 -11.9" fill="none" stroke="#000000" stroke-linecap="round" stroke-linejoin="round" stroke-width="2.0"/>
    <path d="M-0.9 -3.95 L3.8 -1.3 7.1 -3.7 7.1 -3.85 M-0.85 -10.35 L3.8 -7.45 7.3 -10.3 M3.8 -7.45 L6.65 -5.25 M-0.65 0.95 L3.8 -1.3 6.65 0.7 3.75 3.4 6.25 4.85 5.3 6.2 7.45 6.55 M0.1 5.55 L3.75 3.4 -0.3 1.4 M4.4 7.45 L5.3 6.2 1.15 5.5 M11.4 10.95 Q9.25 11.7 4.8 11.7 -6.2 11.2 -9.9 6.85 M3.8 -7.45 L-0.45 -5.05" fill="none" stroke="#000000" stroke-linecap="round" stroke-linejoin="round" stroke-width="1.0"/>
  </g>
</svg>
