<?xml version="1.0" encoding="UTF-8" standalone="no"?>
<svg xmlns:xlink="http://www.w3.org/1999/xlink" height="25.05px" width="25.75px" xmlns="http://www.w3.org/2000/svg">
  <g transform="matrix(1.0, 0.0, 0.0, 1.0, 12.85, 12.55)">
    <path d="M-11.45 3.55 Q-12.1 -0.4 -11.7 -4.4 L-11.15 -11.55 Q-7.5 -9.95 -0.6 -9.75 L1.35 -9.7 Q8.55 -10.35 9.1 -11.05 L8.35 -2.15 9.05 -1.35 10.75 0.95 Q11.55 2.2 11.8 3.65 12.05 5.05 11.7 5.8 L11.8 7.05 11.75 8.3 Q11.25 10.2 9.45 10.9 L8.95 11.0 0.45 11.5 Q-5.95 11.35 -9.2 8.8 -10.6 7.2 -11.15 5.15 L-11.45 3.85 -11.5 3.5 M-11.45 3.85 L-11.45 3.55" fill="none" stroke="#000000" stroke-linecap="round" stroke-linejoin="round" stroke-width="2.0"/>
    <path d="M-11.5 3.5 L-11.45 3.55 Q-10.2 4.95 -5.2 6.45 L-1.9 7.3 Q-1.85 3.1 0.35 0.9 -1.05 -2.95 -0.6 -9.75 M-1.9 7.3 Q4.4 8.6 8.95 7.3 10.5 6.8 11.7 5.8 M9.05 -1.35 Q2.85 -1.6 0.35 0.9" fill="none" stroke="#000000" stroke-linecap="round" stroke-linejoin="round" stroke-width="1.5"/>
  </g>
</svg>
