<?xml version="1.0" encoding="UTF-8" standalone="no"?>
<svg xmlns:xlink="http://www.w3.org/1999/xlink" height="17.25px" width="23.95px" xmlns="http://www.w3.org/2000/svg">
  <g transform="matrix(1.0, 0.0, 0.0, 1.0, 11.95, 8.6)">
    <path d="M9.0 -1.1 L9.0 -0.7 Q10.9 1.0 11.15 2.7 L11.25 3.6 11.1 5.55 Q10.75 6.7 8.7 7.4 L0.7 7.8 Q-5.25 7.45 -9.0 5.05 -10.85 2.75 -11.0 0.7 L-11.0 0.65 -11.2 -6.8 Q-8.5 -3.8 -3.1 -2.95 -4.0 -4.65 -3.5 -6.35 2.65 -9.2 8.25 -6.55 9.2 -4.2 9.0 -2.3 L9.0 -1.1 -0.8 -0.8 Q-2.1 -1.25 -3.1 -2.95 M-11.0 0.65 Q-8.1 2.85 -4.65 3.8 3.8 5.65 11.25 3.6" fill="none" stroke="#000000" stroke-linecap="round" stroke-linejoin="round" stroke-width="1.5"/>
  </g>
</svg>
