<?xml version="1.0" encoding="UTF-8" standalone="no"?>
<svg xmlns:xlink="http://www.w3.org/1999/xlink" height="15.5px" width="22.05px" xmlns="http://www.w3.org/2000/svg">
  <g transform="matrix(1.0, 0.0, 0.0, 1.0, 11.0, 7.75)">
    <path d="M-5.95 -6.15 Q-5.55 -3.3 -3.7 -1.2 -1.05 -3.1 3.75 -4.05 7.55 -4.4 9.75 -3.4 9.7 -3.15 9.9 -3.0 L11.05 0.05 10.4 -0.2 Q11.45 3.0 10.45 5.55 9.4 8.15 1.8 7.65 -5.85 7.1 -8.5 3.65 -11.2 0.15 -11.0 -7.55 L-10.4 -7.7 Q-9.65 -5.25 -5.95 -6.15 M5.15 2.45 Q8.4 2.15 9.65 -0.4 4.6 -1.85 -0.8 1.1 2.0 2.7 5.15 2.45" fill="#a7a6ff" fill-rule="evenodd" stroke="none"/>
  </g>
</svg>
