<?xml version="1.0" encoding="UTF-8" standalone="no"?>
<svg xmlns:xlink="http://www.w3.org/1999/xlink" height="43.9px" width="25.1px" xmlns="http://www.w3.org/2000/svg">
  <g transform="matrix(1.0, 0.0, 0.0, 1.0, 12.55, 21.95)">
    <path d="M-11.05 -16.15 L-11.35 -14.45 -11.4 -13.2 -11.4 -11.35 -11.5 -7.05 -11.55 -2.7 -11.55 -2.5 -11.4 1.95 -11.4 2.0 Q-10.85 8.1 -11.25 10.85 L-11.25 10.8 M7.95 3.05 L8.85 -5.05 9.05 -6.55 9.85 -11.3 10.1 -12.45 10.5 -14.55 11.0 -17.15 11.55 -19.95 Q3.35 -17.65 -10.6 -20.95 -11.05 -18.7 -11.05 -16.15 M7.95 8.5 L7.95 3.05 M7.95 12.3 L7.95 8.5 M7.95 12.3 L8.4 13.1 Q9.65 15.3 10.1 16.75 L10.25 17.45 10.15 18.55 Q9.65 20.2 7.85 20.7 6.0 21.15 0.1 20.85 -5.85 20.55 -8.95 18.2 -10.25 16.85 -10.85 15.05 L-10.95 14.75 Q-11.45 12.6 -11.3 11.05 L-11.25 10.85" fill="none" stroke="#000000" stroke-linecap="round" stroke-linejoin="round" stroke-width="2.0"/>
    <path d="M-11.4 1.95 L-11.3 2.0 Q-7.75 3.9 -0.95 4.15 5.95 4.35 7.95 3.05 M10.5 -14.55 Q1.55 -12.55 -11.05 -16.15 M7.95 8.5 Q1.55 7.25 -6.55 9.85 L-4.15 13.25 0.7 12.4 Q4.2 11.65 7.95 12.3 M-11.25 10.8 Q-8.95 12.35 -4.15 13.25 M-10.95 14.75 Q-7.5 16.4 -0.95 17.2 L10.1 16.75 M-6.55 9.85 Q-9.8 5.9 -11.4 2.0" fill="none" stroke="#000000" stroke-linecap="round" stroke-linejoin="round" stroke-width="1.0"/>
  </g>
</svg>
