<?xml version="1.0" encoding="UTF-8" standalone="no"?>
<svg xmlns:xlink="http://www.w3.org/1999/xlink" height="11.25px" width="19.35px" xmlns="http://www.w3.org/2000/svg">
  <g transform="matrix(1.0, 0.0, 0.0, 1.0, 10.7, 9.55)">
    <path d="M8.65 -3.05 L8.65 0.75 Q4.9 0.1 1.4 0.85 L-3.45 1.7 -5.85 -1.7 Q2.25 -4.3 8.65 -3.05" fill="#ffff33" fill-rule="evenodd" stroke="none"/>
    <path d="M-10.7 -9.55 L-10.6 -9.55 Q-7.05 -7.65 -0.25 -7.4 6.65 -7.2 8.65 -8.5 L8.65 -3.05 Q2.25 -4.3 -5.85 -1.7 -9.1 -5.65 -10.7 -9.55" fill="#eab1ff" fill-rule="evenodd" stroke="none"/>
    <path d="M-3.45 1.7 Q-8.25 0.8 -10.55 -0.75 L-10.6 -0.5 Q-10.15 -3.2 -10.7 -9.55 -9.1 -5.65 -5.85 -1.7 L-3.45 1.7" fill="#a3ffca" fill-rule="evenodd" stroke="none"/>
  </g>
</svg>
