<?xml version="1.0" encoding="UTF-8" standalone="no"?>
<svg xmlns:xlink="http://www.w3.org/1999/xlink" height="26.25px" width="21.75px" xmlns="http://www.w3.org/2000/svg">
  <g transform="matrix(1.0, 0.0, 0.0, 1.0, 10.85, 13.15)">
    <path d="M5.6 -7.6 L9.55 -3.7 6.8 -1.5 4.6 -7.3 4.25 -1.1 0.8 -1.3 3.15 -7.3 Q0.8 -5.5 -1.45 -4.7 -2.7 -4.75 -3.35 -6.2 -3.7 -8.35 -3.25 -10.65 -3.0 -13.0 -0.55 -12.4 2.2 -11.65 3.6 -10.35 L3.55 -10.65 5.35 -10.65 5.45 -10.45 Q7.6 -12.4 9.5 -13.0 L10.05 -13.15 Q11.15 -12.7 10.85 -9.35 10.65 -6.3 9.35 -5.7 L8.85 -5.85 Q7.0 -6.45 5.6 -7.6 M10.3 7.85 L10.6 9.25 10.5 10.45 Q10.0 12.25 8.2 12.8 L0.45 13.0 Q-5.5 12.65 -8.6 10.1 -9.9 8.6 -10.5 6.65 L-10.85 5.1 Q-9.7 6.45 -4.95 8.1 5.8 10.5 10.3 7.85" fill="#ffffff" fill-rule="evenodd" stroke="none"/>
  </g>
</svg>
