<?xml version="1.0" encoding="UTF-8" standalone="no"?>
<svg xmlns:xlink="http://www.w3.org/1999/xlink" height="42.15px" width="24.25px" xmlns="http://www.w3.org/2000/svg">
  <g transform="matrix(1.0, 0.0, 0.0, 1.0, 12.1, 21.1)">
    <path d="M-11.75 9.5 Q-12.55 -1.95 -11.4 -15.1 L-11.15 -21.1 Q-9.8 -19.25 -1.65 -18.25 L0.0 -18.1 Q5.75 -17.55 8.95 -18.3 11.15 -18.85 12.15 -20.05 8.25 -2.85 7.65 11.75 L7.65 11.8 Q7.05 12.45 6.1 12.9 3.1 14.2 -3.6 12.85 L-3.65 12.85 -5.1 12.5 Q-7.2 15.5 -6.55 21.05 -8.0 20.4 -9.1 19.55 -9.75 16.75 -9.4 11.8 L-11.75 9.5" fill="#a18187" fill-rule="evenodd" stroke="none"/>
  </g>
</svg>
