<?xml version="1.0" encoding="UTF-8" standalone="no"?>
<svg xmlns:xlink="http://www.w3.org/1999/xlink" height="8.2px" width="15.35px" xmlns="http://www.w3.org/2000/svg">
  <g transform="matrix(1.0, 0.0, 0.0, 1.0, 7.65, 4.1)">
    <path d="M-1.45 -1.85 L-0.6 -1.25 -0.5 -1.35 0.0 -1.7 1.65 -1.7 1.7 -1.65 1.85 -1.75 Q3.3 -2.0 4.3 -3.0 4.8 -3.3 5.05 -3.9 L6.4 -4.05 Q8.25 -0.05 7.45 2.95 L6.7 3.2 Q5.1 3.3 2.2 1.4 L1.8 1.15 1.3 1.45 0.8 1.55 0.6 1.55 0.15 1.45 -0.1 1.7 Q-2.25 3.6 -4.4 4.0 L-6.25 4.05 Q-7.4 3.2 -7.6 0.35 -7.75 -1.1 -7.5 -2.1 -7.35 -3.05 -6.85 -3.6 L-4.65 -3.35 Q-3.7 -2.25 -1.5 -1.85 L-1.45 -1.85" fill="#91ddff" fill-rule="evenodd" stroke="none"/>
  </g>
</svg>
