<?xml version="1.0" encoding="UTF-8" standalone="no"?>
<svg xmlns:xlink="http://www.w3.org/1999/xlink" height="15.7px" width="23.1px" xmlns="http://www.w3.org/2000/svg">
  <g transform="matrix(1.0, 0.0, 0.0, 1.0, 11.55, 7.85)">
    <path d="M-10.65 -2.45 L-10.1 -2.65 Q-10.95 -4.45 -10.75 -5.1 -4.65 -7.15 3.85 -7.1 7.95 -7.05 9.45 -5.8 L9.45 -3.5 9.9 -3.1 Q11.1 -0.1 10.7 2.7 L10.6 2.95 Q11.05 5.45 10.15 6.05 4.3 8.1 -3.15 6.2 -7.55 4.75 -9.65 2.1 -10.6 0.9 -10.1 -1.05 L-10.65 -2.45" fill="none" stroke="#000000" stroke-linecap="round" stroke-linejoin="round" stroke-width="1.5"/>
    <path d="M-10.1 -2.65 Q-5.9 -4.55 0.85 -4.95 7.25 -5.3 9.45 -3.5 M10.6 2.95 Q9.8 4.65 5.75 4.95 1.7 5.25 -2.85 3.8 -7.4 2.3 -10.1 -1.05 M-1.55 -1.95 Q4.15 -4.1 8.6 -2.35 8.75 1.25 7.35 2.1 0.5 1.3 -1.55 -1.95" fill="none" stroke="#000000" stroke-linecap="round" stroke-linejoin="round" stroke-width="1.0"/>
  </g>
</svg>
