<?xml version="1.0" encoding="UTF-8" standalone="no"?>
<svg xmlns:xlink="http://www.w3.org/1999/xlink" height="28.35px" width="24.9px" xmlns="http://www.w3.org/2000/svg">
  <g transform="matrix(1.0, 0.0, 0.0, 1.0, 12.45, 14.2)">
    <path d="M-12.3 -14.2 Q-8.75 -12.7 2.6 -11.5 9.5 -11.7 12.0 -13.1 L10.7 -1.55 12.0 0.35 Q12.95 3.0 11.8 5.45 L11.75 5.45 Q12.05 6.4 11.6 7.05 L11.05 7.3 11.1 9.05 Q11.1 11.3 10.7 12.95 10.05 14.1 8.0 13.5 L4.2 13.6 0.2 13.45 Q-1.85 14.55 -3.6 12.95 -6.3 13.3 -7.35 11.55 -9.6 11.85 -10.25 10.1 L-10.45 9.05 Q-10.75 7.05 -10.7 3.4 L-11.15 2.7 -11.25 0.45 -11.6 -1.4 Q-12.8 -9.25 -12.3 -14.2" fill="#39514d" fill-rule="evenodd" stroke="none"/>
  </g>
</svg>
