<?xml version="1.0" encoding="UTF-8" standalone="no"?>
<svg xmlns:xlink="http://www.w3.org/1999/xlink" height="34.65px" width="30.4px" xmlns="http://www.w3.org/2000/svg">
  <g transform="matrix(1.0, 0.0, 0.0, 1.0, 15.2, 17.35)">
    <path d="M-7.3 -7.3 Q3.9 -9.25 12.55 -7.3 L11.8 -1.85 Q5.15 -4.1 -6.55 -2.4 -7.0 2.75 -11.5 3.4 -14.5 1.25 -11.15 -4.6 -15.85 -9.95 -13.85 -16.45 -9.55 -17.45 -7.05 -10.5 L-7.3 -7.3 Q-8.5 -6.55 -7.3 -2.3 L-6.55 -2.4 M-4.75 13.05 Q-5.95 11.65 -6.55 9.85 L-6.65 9.6 Q-7.5 6.85 -6.85 6.0 -4.4 6.4 2.5 4.65 9.35 2.85 12.15 5.35 L12.6 7.45 Q14.2 10.45 14.45 12.2 L14.45 12.55 14.25 14.3 Q14.0 15.65 11.95 16.25 9.9 16.85 3.95 16.3 -2.0 15.75 -4.75 13.05" fill="none" stroke="#000000" stroke-linecap="round" stroke-linejoin="round" stroke-width="1.5"/>
    <path d="M14.45 12.55 Q0.85 13.85 -6.55 9.85" fill="none" stroke="#000000" stroke-linecap="round" stroke-linejoin="round" stroke-width="1.0"/>
  </g>
</svg>
