<?xml version="1.0" encoding="UTF-8" standalone="no"?>
<svg xmlns:xlink="http://www.w3.org/1999/xlink" height="40.8px" width="24.95px" xmlns="http://www.w3.org/2000/svg">
  <g transform="matrix(1.0, 0.0, 0.0, 1.0, 12.45, 20.4)">
    <path d="M2.25 -9.5 L2.45 -10.55 Q1.1 -11.55 -0.3 -12.6 -1.6 -14.55 -0.25 -16.15 1.95 -16.4 4.0 -14.25 5.45 -16.0 7.65 -16.05 8.75 -13.9 6.8 -12.6 5.1 -13.0 4.0 -14.25 L3.85 -13.95 Q4.5 -12.15 4.65 -10.3 6.15 -11.2 6.85 -12.2 M3.85 -13.95 Q2.9 -12.25 2.45 -10.55 L3.65 -9.75 4.65 -10.3 4.7 -9.4 M2.55 -0.65 Q4.5 -1.8 5.75 -3.2 L3.1 -5.2 Q1.25 -4.15 -1.15 -3.25 L2.55 -0.65 5.6 1.5 Q4.55 2.95 2.55 4.05 L5.1 6.0 Q4.3 7.3 2.75 8.4 L5.45 10.2 M3.65 -9.75 L6.5 -7.7 Q5.1 -6.3 3.1 -5.2 L-0.8 -8.3 Q1.85 -8.9 3.65 -9.75 M-11.65 9.4 Q-9.3 12.65 -3.35 15.35 4.15 16.1 10.6 15.45 M-1.45 10.35 Q1.1 9.5 2.75 8.4 L-1.45 5.7 Q0.85 5.0 2.55 4.05 L-1.5 1.3 2.55 -0.65 M-0.3 -12.6 Q1.2 -12.5 4.0 -14.25" fill="none" stroke="#000000" stroke-linecap="round" stroke-linejoin="round" stroke-width="1.0"/>
    <path d="M8.75 10.55 L10.3 13.9 10.6 15.3 10.6 15.45 10.35 17.4 Q10.0 18.7 8.5 19.25 L2.15 19.6 Q-2.65 19.4 -4.8 18.55 L-7.6 17.3 -8.9 16.4 -10.2 15.2 -11.6 12.9 -11.65 9.4 -11.3 7.15 Q-11.45 -9.0 -10.4 -19.65 5.25 -15.75 11.75 -18.8 8.85 -3.85 8.35 8.5 L8.35 8.55 8.75 10.55" fill="none" stroke="#000000" stroke-linecap="round" stroke-linejoin="round" stroke-width="1.5"/>
  </g>
</svg>
