<?xml version="1.0" encoding="UTF-8" standalone="no"?>
<svg xmlns:xlink="http://www.w3.org/1999/xlink" height="17.65px" width="27.55px" xmlns="http://www.w3.org/2000/svg">
  <g transform="matrix(1.0, 0.0, 0.0, 1.0, 13.8, 8.85)">
    <path d="M11.45 5.1 Q11.9 6.95 11.4 8.8 L10.4 8.0 8.55 7.1 Q5.8 6.0 5.15 4.65 4.75 5.4 3.15 6.0 1.6 6.6 0.3 7.75 -3.6 5.8 -3.35 3.45 -5.45 6.35 -5.55 7.05 -8.75 5.8 -8.4 3.95 L-9.9 6.25 -11.4 7.95 Q-13.15 3.3 -10.65 -0.5 -12.55 0.9 -13.8 0.35 -12.85 -4.2 -9.6 -8.55 -8.35 -9.35 -5.9 -7.9 -3.5 -6.5 0.45 -5.7 4.4 -4.95 7.95 -5.75 L11.6 -6.5 Q13.55 -3.4 13.75 1.15 L12.5 0.35 Q13.85 3.45 12.3 5.6 11.85 5.9 11.45 5.1" fill="#ffffff" fill-rule="evenodd" stroke="none"/>
  </g>
</svg>
