<?xml version="1.0" encoding="UTF-8" standalone="no"?>
<svg xmlns:xlink="http://www.w3.org/1999/xlink" height="56.5px" width="41.9px" xmlns="http://www.w3.org/2000/svg">
  <g transform="matrix(1.0, 0.0, 0.0, 1.0, 21.45, 47.3)">
    <path d="M15.25 -34.8 L17.15 -45.4 20.45 -34.4 16.4 -32.6 15.25 -34.8 M9.35 -37.7 L5.0 -33.15 0.7 -37.1 5.75 -42.75 9.35 -37.7 M5.95 -19.25 L5.0 -13.15 1.6 -9.9 -1.35 -12.7 -0.3 -20.0 3.85 -25.6 5.95 -19.25 M-17.2 -30.8 L-17.2 -30.85 -21.4 -32.6 -21.45 -32.65 -10.85 -47.3 -11.3 -33.35 -17.2 -30.8 M5.55 9.2 Q3.7 -0.15 -10.05 3.35 L1.65 -6.2 8.45 1.85 Q5.05 3.35 5.55 9.2" fill="#000000" fill-opacity="0.32941177" fill-rule="evenodd" stroke="none"/>
  </g>
</svg>
