<?xml version="1.0" encoding="UTF-8" standalone="no"?>
<svg xmlns:xlink="http://www.w3.org/1999/xlink" height="38.65px" width="27.0px" xmlns="http://www.w3.org/2000/svg">
  <g transform="matrix(1.0, 0.0, 0.0, 1.0, 13.5, 19.35)">
    <path d="M10.55 -6.45 L13.1 -5.1 Q14.05 -2.9 12.65 -1.25 L10.15 -2.65 Q5.2 -4.95 -0.2 -4.3 L-1.15 -4.2 -3.35 -3.75 -3.35 -6.8 -1.0 -7.65 -0.3 -7.75 Q5.4 -8.75 10.55 -6.45 M12.0 3.55 Q13.05 6.35 11.4 7.7 L11.25 7.55 8.95 5.95 Q5.35 4.05 -0.9 5.65 L-1.0 5.65 Q-2.1 6.05 -3.25 6.6 L-3.1 2.5 Q-1.65 1.75 -0.2 1.35 4.05 0.65 9.45 2.2 10.9 2.55 12.0 3.55" fill="#9adbf4" fill-rule="evenodd" stroke="none"/>
    <path d="M5.75 7.4 L5.8 7.5 9.6 11.65 9.95 12.6 Q11.0 14.9 11.25 16.85 2.5 22.75 -9.95 14.4 L-11.6 8.5 -12.05 5.85 Q-4.2 15.55 0.4 14.35 2.45 13.95 3.45 11.75 L5.75 7.4" fill="#a8d9f0" fill-rule="evenodd" stroke="none"/>
    <path d="M-9.65 -17.8 L-9.65 -17.95 -9.4 -18.75 Q-8.95 -19.4 -8.35 -19.35 -7.8 -19.4 -7.0 -18.6 -6.25 -19.4 -5.6 -19.35 -5.1 -19.4 -4.6 -18.75 L-4.35 -17.95 Q-4.35 -16.55 -7.0 -14.05 L-8.3 -15.35 Q-8.75 -13.8 -10.85 -11.4 -13.55 -14.4 -13.5 -16.1 L-13.25 -17.05 Q-12.8 -17.85 -12.2 -17.8 -11.65 -17.85 -10.85 -16.85 -10.2 -17.7 -9.65 -17.8" fill="#a0dfe7" fill-rule="evenodd" stroke="none"/>
  </g>
</svg>
