<?xml version="1.0" encoding="UTF-8" standalone="no"?>
<svg xmlns:xlink="http://www.w3.org/1999/xlink" height="16.3px" width="30.4px" xmlns="http://www.w3.org/2000/svg">
  <g transform="matrix(1.0, 0.0, 0.0, 1.0, 16.2, 36.85)">
    <path d="M8.0 -31.4 L6.85 -31.4 4.45 -31.45 3.15 -31.55 0.1 -31.8 -1.15 -31.9 -3.7 -32.3 -4.8 -32.5 -7.7 -33.1 -8.75 -33.35 -11.45 -34.05 -11.5 -34.1 Q-13.4 -35.45 -13.0 -36.35 -12.65 -37.25 -10.2 -36.1 -9.35 -36.95 -8.15 -36.85 -7.05 -36.4 -6.3 -35.3 -4.85 -36.95 -3.2 -35.85 L-1.55 -34.45 -0.35 -35.1 Q0.8 -35.4 2.05 -33.85 4.25 -35.55 5.4 -33.25 6.35 -34.55 7.5 -34.5 8.6 -34.5 9.35 -33.05 11.4 -34.45 12.8 -33.75 14.15 -33.1 13.9 -32.55 13.65 -32.05 12.5 -31.6 L11.35 -31.5 10.5 -31.5 8.0 -31.4" fill="#f9fcfc" fill-rule="evenodd" stroke="none"/>
    <path d="M8.0 -31.4 L10.5 -31.5 10.65 -30.75 10.95 -29.3 Q11.7 -24.85 11.35 -20.55 L9.35 -20.55 Q9.7 -25.8 8.05 -31.2 L8.0 -31.4 M11.35 -31.5 L12.5 -31.6 Q14.15 -27.0 14.2 -22.05 L12.75 -22.05 Q12.45 -26.75 11.35 -31.5 M-11.5 -34.1 L-11.45 -34.05 -8.75 -33.35 Q-12.4 -27.95 -13.5 -22.6 L-16.2 -23.15 Q-14.65 -28.8 -11.5 -34.1 M-7.7 -33.1 L-4.8 -32.5 -4.95 -32.2 Q-7.6 -26.7 -7.55 -21.1 L-10.9 -21.75 -10.95 -22.95 Q-11.0 -26.55 -9.25 -30.2 L-8.1 -32.45 -7.7 -33.1 M-3.7 -32.3 L-1.15 -31.9 -1.2 -31.65 Q-3.1 -26.15 -3.35 -20.95 L-5.7 -20.85 Q-5.75 -26.35 -3.85 -31.9 L-3.7 -32.3 M0.1 -31.8 L3.15 -31.55 3.2 -31.35 Q3.55 -25.85 1.95 -20.8 L-1.15 -21.05 Q-1.25 -26.15 0.05 -31.65 L0.1 -31.8 M4.45 -31.45 L6.85 -31.4 6.95 -30.75 Q7.65 -25.7 7.4 -20.65 L5.05 -20.65 4.45 -31.45" fill="#d9b882" fill-rule="evenodd" stroke="none"/>
    <path d="M10.65 -30.75 L11.1 -30.5 10.95 -29.3 10.65 -30.75 M-9.25 -30.2 L-8.65 -32.4 -8.1 -32.45 -9.25 -30.2" fill="#554c3a" fill-rule="evenodd" stroke="none"/>
  </g>
</svg>
