<?xml version="1.0" encoding="UTF-8" standalone="no"?>
<svg xmlns:xlink="http://www.w3.org/1999/xlink" height="21.8px" width="23.0px" xmlns="http://www.w3.org/2000/svg">
  <g transform="matrix(1.0, 0.0, 0.0, 1.0, 11.5, 11.15)">
    <path d="M10.25 1.0 Q11.1 2.95 11.4 4.5 12.05 8.35 8.95 9.75 3.95 10.85 0.4 10.6 -6.85 10.05 -10.7 6.0 -11.5 5.05 -11.5 3.65 L-11.3 1.1 Q-7.15 6.9 -1.1 7.45 -1.25 6.05 -0.2 4.35 L0.5 3.4 Q2.05 1.55 10.25 1.0" fill="#c1843f" fill-rule="evenodd" stroke="none"/>
    <path d="M10.15 -6.85 Q9.6 -6.4 8.7 -6.55 7.95 -6.7 5.65 -8.3 L5.6 -8.3 Q3.5 -6.0 2.55 -5.95 L0.6 -6.2 Q-0.5 -6.7 -0.55 -8.0 -0.75 -9.25 0.3 -9.85 1.2 -10.4 2.25 -10.2 3.1 -10.05 5.55 -8.4 L5.65 -8.3 6.7 -9.5 Q7.85 -10.6 8.45 -10.65 L10.2 -10.35 M8.85 -2.6 L5.95 -1.3 8.85 -0.95 M2.55 0.3 L5.95 -1.3 2.25 -1.75 M2.25 -3.75 L8.85 -4.55" fill="none" stroke="#c1843f" stroke-linecap="round" stroke-linejoin="round" stroke-width="1.0"/>
  </g>
</svg>
