<?xml version="1.0" encoding="UTF-8" standalone="no"?>
<svg xmlns:xlink="http://www.w3.org/1999/xlink" height="36.7px" width="24.0px" xmlns="http://www.w3.org/2000/svg">
  <g transform="matrix(1.0, 0.0, 0.0, 1.0, 0.0, 0.0)">
    <path d="M20.0 3.9 L20.75 4.1 20.95 3.35 Q22.1 3.55 24.0 2.8 21.5 16.7 20.25 31.2 L17.8 30.8 18.1 27.45 18.2 26.35 18.55 23.6 18.55 23.45 18.55 22.95 19.3 15.2 19.3 15.15 19.4 13.25 19.65 10.25 19.65 10.2 19.75 9.25 19.75 8.65 20.0 5.5 20.0 5.15 20.0 5.1 20.0 4.5 20.0 3.9 M11.7 3.55 L11.85 4.25 11.9 4.25 12.3 4.4 Q13.35 4.95 13.9 6.0 14.45 7.15 14.3 8.95 L14.3 9.2 14.2 9.9 14.2 9.95 13.8 15.2 13.8 15.25 12.65 28.0 12.65 28.05 12.25 32.6 Q10.35 34.1 9.2 36.7 4.55 35.25 0.0 31.9 -0.15 17.0 1.25 2.1 5.55 3.7 11.7 3.55" fill="#8a2b6c" fill-rule="evenodd" stroke="none"/>
    <path d="M20.95 3.35 L20.75 4.1 20.0 3.9 11.9 4.25 11.85 4.25 11.7 3.55 Q11.45 2.4 11.95 0.75 L20.8 0.45 Q21.15 1.8 21.0 3.15 L20.95 3.35" fill="#892868" fill-rule="evenodd" stroke="none"/>
  </g>
</svg>
