<?xml version="1.0" encoding="UTF-8" standalone="no"?>
<svg xmlns:xlink="http://www.w3.org/1999/xlink" height="31.1px" width="25.85px" xmlns="http://www.w3.org/2000/svg">
  <g transform="matrix(1.0, 0.0, 0.0, 1.0, 1.0, 1.0)">
    <path d="M23.65 3.15 L23.85 1.4 Q9.95 -3.6 10.95 9.5 8.4 0.75 0.0 4.25 0.05 6.2 0.25 7.75 L0.55 10.55 0.85 12.85 1.4 15.6 1.8 17.5 2.55 20.25 3.2 22.3 4.05 24.8 Q7.2 28.5 14.0 29.1 22.9 29.35 23.2 25.2 L23.05 22.65 22.9 14.05 23.05 10.8 Q23.2 7.9 23.5 4.95 23.5 4.0 23.65 3.15" fill="none" stroke="#000000" stroke-linecap="round" stroke-linejoin="round" stroke-width="2.0"/>
    <path d="M22.9 14.05 Q21.9 14.25 20.25 12.9 18.75 11.65 17.85 10.0 L17.7 9.35 17.3 10.1 15.7 12.5 Q14.75 13.4 14.1 13.35 13.35 13.25 13.35 12.25 13.35 11.25 14.05 9.8 14.7 8.45 15.65 7.55 16.65 6.55 17.3 6.65 17.95 6.7 17.95 7.4 L18.8 7.3 Q19.55 7.3 20.6 8.0 L22.45 9.8 23.05 10.8 23.7 12.35 Q23.95 13.65 22.9 14.05 M17.7 9.35 L17.95 7.75 17.95 7.4 17.7 7.85 Q17.45 8.35 17.7 9.35" fill="none" stroke="#000000" stroke-linecap="round" stroke-linejoin="round" stroke-width="0.5"/>
    <path d="M0.25 7.75 L3.85 7.5 Q4.55 9.4 3.95 10.35 L0.55 10.55 M0.85 12.85 L3.75 12.65 Q4.45 14.5 3.85 15.45 L1.4 15.6 M1.8 17.5 L4.45 17.25 Q5.15 19.15 4.6 20.1 L2.55 20.25 M3.2 22.3 Q8.05 25.75 13.1 26.45 17.15 20.2 23.05 22.65 M23.5 4.95 L15.45 4.5 Q15.15 3.55 15.65 2.6 L23.65 3.15 M15.35 17.5 Q17.0 16.9 18.4 15.95 16.2 15.0 14.3 13.6 M15.85 20.35 L17.4 19.7 Q15.6 19.05 14.5 17.6 M19.95 18.0 L17.4 19.7 19.0 20.25 M23.2 25.2 Q18.1 27.15 13.1 26.45 M20.3 14.45 L18.4 15.95 20.6 16.8" fill="none" stroke="#000000" stroke-linecap="round" stroke-linejoin="round" stroke-width="1.0"/>
  </g>
</svg>
