<?xml version="1.0" encoding="UTF-8" standalone="no"?>
<svg xmlns:xlink="http://www.w3.org/1999/xlink" height="22.9px" width="30.65px" xmlns="http://www.w3.org/2000/svg">
  <g transform="matrix(1.0, 0.0, 0.0, 1.0, 0.5, 0.5)">
    <path d="M13.0 6.05 L27.7 7.3 27.85 10.65 28.0 12.45 Q28.15 14.05 28.45 15.25 L29.05 17.4 Q29.9 21.7 21.6 21.35 13.8 21.8 8.95 16.8 8.45 15.6 8.15 13.7 7.65 10.85 7.6 5.6 L13.0 6.05" fill="none" stroke="#000000" stroke-linecap="round" stroke-linejoin="round" stroke-width="2.0"/>
    <path d="M13.0 6.05 Q13.1 8.15 13.5 10.15 L27.85 10.65 M8.15 13.7 Q10.2 15.4 12.45 16.5 13.55 15.75 14.8 15.2 L13.9 12.15 13.5 10.15 M5.4 11.0 Q3.45 9.0 0.75 10.05 2.9 12.6 5.4 11.0 M2.15 7.0 L0.0 0.0 Q3.7 2.3 5.15 8.65 L2.15 7.0 M5.4 14.65 Q2.55 14.65 2.7 17.05 5.8 16.9 5.4 14.65 M28.45 15.25 Q20.95 12.45 14.8 15.2 M13.9 12.15 Q21.05 11.2 28.0 12.45 M12.45 16.5 Q20.3 20.55 29.05 17.4" fill="none" stroke="#000000" stroke-linecap="round" stroke-linejoin="round" stroke-width="1.0"/>
  </g>
</svg>
