<?xml version="1.0" encoding="UTF-8" standalone="no"?>
<svg xmlns:xlink="http://www.w3.org/1999/xlink" height="59.9px" width="24.5px" xmlns="http://www.w3.org/2000/svg">
  <g transform="matrix(1.0, 0.0, 0.0, 1.0, 0.0, 0.0)">
    <path d="M8.4 0.0 L10.4 0.25 8.35 9.95 18.05 10.7 20.4 1.0 22.55 1.05 20.35 10.7 24.5 10.7 23.65 14.85 Q12.25 15.0 0.0 12.65 L0.75 8.85 6.2 9.7 8.4 0.0 M20.4 55.15 L20.8 57.5 Q19.2 59.85 14.7 59.9 10.9 59.85 5.05 58.2 2.6 56.4 0.95 52.4 12.2 59.35 20.4 55.15" fill="#e25b9b" fill-rule="evenodd" stroke="none"/>
    <path d="M2.4 44.95 L2.6 43.05 1.75 43.0 M2.95 40.4 L2.6 43.05 4.0 43.1 M3.25 24.95 L3.05 29.45 4.8 29.55 M2.7 34.8 L3.05 29.45 0.95 29.35" fill="none" stroke="#e25b9b" stroke-linecap="round" stroke-linejoin="round" stroke-width="1.0"/>
  </g>
</svg>
