<?xml version="1.0" encoding="UTF-8" standalone="no"?>
<svg xmlns:xlink="http://www.w3.org/1999/xlink" height="11.25px" width="21.2px" xmlns="http://www.w3.org/2000/svg">
  <g transform="matrix(1.0, 0.0, 0.0, 1.0, 0.0, 0.0)">
    <path d="M0.0 3.6 Q2.3 6.1 5.7 7.35 11.55 9.35 21.2 7.35 L21.2 7.4 Q19.8 11.35 13.15 11.25 9.05 11.15 3.1 9.55 0.9 6.7 0.0 3.6 M6.75 7.65 L6.75 6.9 6.8 6.85 Q3.95 5.65 6.25 4.75 11.95 3.0 16.15 3.65 19.9 4.3 18.5 6.1 L16.5 5.7 Q11.75 5.1 6.75 6.95 L6.75 7.65 M5.65 1.6 Q8.7 -0.2 12.85 0.0 L15.55 0.15 Q18.35 0.35 16.85 1.15 L15.7 1.35 5.7 1.85 5.65 1.6" fill="#9deefa" fill-rule="evenodd" stroke="none"/>
  </g>
</svg>
