<?xml version="1.0" encoding="UTF-8" standalone="no"?>
<svg xmlns:xlink="http://www.w3.org/1999/xlink" height="54.5px" width="35.7px" xmlns="http://www.w3.org/2000/svg">
  <g transform="matrix(1.0, 0.0, 0.0, 1.0, 1.0, 1.0)">
    <path d="M28.2 40.5 Q28.7 26.45 33.7 3.45 L29.55 3.35 30.25 0.55 Q23.55 -0.4 17.15 0.35 L16.85 3.3 Q13.65 2.5 9.8 3.15 6.3 17.1 7.6 31.7 0.1 23.9 0.0 26.45 -0.05 27.7 1.8 31.6 -0.5 34.65 3.9 36.3 5.45 41.15 8.7 39.65 9.25 43.05 10.15 46.5 L11.2 50.45 Q17.25 52.5 22.8 52.5 27.25 52.5 31.35 51.15 L31.6 49.55 Q32.15 44.65 28.55 43.75 28.3 42.2 28.2 40.5 M9.75 33.9 L7.6 31.7 M9.75 33.9 L10.1 34.25 Q11.1 35.5 10.75 38.25 L8.7 39.65 M28.1 43.65 L28.5 43.75 28.55 43.75" fill="none" stroke="#000000" stroke-linecap="round" stroke-linejoin="round" stroke-width="2.0"/>
    <path d="M26.1 17.5 Q26.45 15.55 26.95 13.55 L15.0 13.2 14.45 17.45 Q20.55 16.45 26.1 17.5 25.45 21.3 25.1 24.7 L25.0 26.3 Q24.8 28.0 24.9 29.8 25.0 33.9 26.15 38.1 L26.9 40.65 28.2 40.5 M29.55 3.35 Q28.0 8.7 26.95 13.55 M16.85 3.3 Q15.6 8.45 15.0 13.2 M10.15 46.5 Q12.2 48.2 15.3 49.1 15.85 46.3 17.9 44.85 L16.65 41.5 15.9 38.9 Q14.85 34.85 14.4 30.2 L14.15 26.6 Q14.0 22.6 14.45 17.45 M8.95 36.55 L8.3 37.1 Q7.65 37.25 6.55 36.55 4.4 34.15 6.6 33.35 L7.8 33.3 Q9.0 33.35 9.75 33.9 M26.9 40.65 L28.1 43.65 Q21.1 42.55 17.9 44.85 M14.15 26.6 L25.0 26.3 M14.4 30.2 L24.9 29.8 M15.9 38.9 Q20.8 37.2 26.15 38.1 M16.65 41.5 Q21.6 39.75 26.9 40.65 M15.3 49.1 Q21.4 50.85 31.6 49.55" fill="none" stroke="#000000" stroke-linecap="round" stroke-linejoin="round" stroke-width="1.0"/>
  </g>
</svg>
