<?xml version="1.0" encoding="UTF-8" standalone="no"?>
<svg xmlns:xlink="http://www.w3.org/1999/xlink" height="21.25px" width="28.5px" xmlns="http://www.w3.org/2000/svg">
  <g transform="matrix(1.0, 0.0, 0.0, 1.0, 0.0, 0.0)">
    <path d="M20.1 14.05 L23.55 12.7 26.65 12.9 27.2 17.65 Q28.5 18.85 28.5 20.75 L28.5 20.85 Q20.8 21.75 13.1 20.6 L9.65 19.55 8.7 17.85 Q5.0 16.85 3.8 14.65 4.5 14.65 5.2 14.1 2.7 12.0 2.2 8.75 2.6 9.65 4.2 10.0 3.3 4.95 0.0 0.0 8.2 4.35 10.25 12.95 L16.3 12.65 16.3 12.7 20.1 14.05 16.6 15.45 18.5 15.3 23.6 15.9 23.6 15.35 20.1 14.05" fill="#ff0000" fill-rule="evenodd" stroke="none"/>
  </g>
</svg>
