<?xml version="1.0" encoding="UTF-8" standalone="no"?>
<svg xmlns:xlink="http://www.w3.org/1999/xlink" height="14.65px" width="24.05px" xmlns="http://www.w3.org/2000/svg">
  <g transform="matrix(1.0, 0.0, 0.0, 1.0, 0.0, 7.35)">
    <path d="M0.5 -4.8 L0.5 -6.75 7.05 -4.8 Q8.0 -7.55 10.4 -7.35 L19.25 -7.35 Q20.75 -7.4 21.05 -6.65 20.75 -5.7 19.7 -4.8 L23.9 5.55 24.05 6.15 Q21.4 1.55 17.3 1.75 12.5 1.85 10.15 5.75 L9.25 7.3 Q4.65 5.5 0.0 1.6 L0.0 -0.85 Q1.2 -0.25 1.9 -0.55 3.1 1.0 3.9 0.7 L4.4 0.4 4.65 0.1 4.85 -0.75 Q5.0 -1.65 4.65 -2.45 L4.55 -2.75 4.2 -3.35 Q3.1 -4.35 2.1 -2.5 L0.5 -4.8" fill="#292927" fill-rule="evenodd" stroke="none"/>
  </g>
</svg>
