<?xml version="1.0" encoding="UTF-8" standalone="no"?>
<svg xmlns:xlink="http://www.w3.org/1999/xlink" height="23.85px" width="25.0px" xmlns="http://www.w3.org/2000/svg">
  <g transform="matrix(1.0, 0.0, 0.0, 1.0, 0.75, 11.95)">
    <path d="M0.0 0.15 L0.0 3.65 0.7 6.8 Q3.3 9.05 9.6 10.45 17.1 12.0 22.65 10.1 24.05 8.15 23.2 3.65 L23.1 2.95 23.05 2.75 23.0 2.25 22.85 1.7 23.05 2.75 M21.7 -5.1 L21.75 -5.1 21.7 -6.1 21.6 -9.7 21.6 -9.85 21.6 -10.15 Q20.8 -11.0 18.3 -11.2 15.0 -11.3 13.95 -9.5 L13.8 -9.25 13.8 -9.6 Q3.8 -1.05 0.15 -2.6 L0.0 -2.65 0.0 0.15 M21.75 -5.1 L21.9 -2.85 21.95 -2.45 22.85 1.7" fill="none" stroke="#202020" stroke-linecap="round" stroke-linejoin="round" stroke-width="1.5"/>
    <path d="M13.8 -9.25 L13.8 -5.8 Q7.15 0.95 0.0 0.15 M0.0 3.65 L1.2 4.15 6.65 6.25 10.2 7.25 13.25 8.0 Q13.1 4.85 15.35 4.15 L15.8 4.0 15.5 4.0 13.8 -5.45 Q18.5 -7.7 21.25 -5.45 L21.7 -5.1 M16.1 4.0 L15.8 4.0 M23.2 3.65 L16.55 3.95" fill="none" stroke="#202020" stroke-linecap="round" stroke-linejoin="round" stroke-width="1.0"/>
  </g>
</svg>
