<?xml version="1.0" encoding="UTF-8" standalone="no"?>
<svg xmlns:xlink="http://www.w3.org/1999/xlink" height="43.65px" width="29.3px" xmlns="http://www.w3.org/2000/svg">
  <g transform="matrix(1.0, 0.0, 0.0, 1.0, 1.0, 21.85)">
    <path d="M4.8 -18.3 L4.8 -19.15 Q18.25 -23.35 26.8 -17.25 26.3 -15.55 25.55 -10.0 24.75 -4.5 24.2 4.15 L27.05 10.3 Q27.6 12.35 26.85 14.1 27.0 17.35 26.25 19.9 24.6 20.8 22.3 20.3 L22.3 19.4 Q21.4 18.5 20.3 19.4 L20.3 20.5 Q17.95 21.15 15.8 20.5 L15.8 18.75 Q15.05 18.3 14.55 18.75 L14.55 20.0 Q12.8 20.8 11.0 20.0 L11.0 18.85 Q10.2 18.05 9.55 18.55 L9.55 19.25 Q7.65 19.7 5.75 18.2 4.05 13.05 3.9 8.9 L3.7 5.1 Q3.6 2.35 4.35 -2.3 L2.8 -2.65 0.4 -5.35 2.35 -7.5 4.45 -7.5 4.55 -12.85 4.2 -12.85 2.6 -13.4 0.0 -16.1 3.05 -17.75 4.75 -18.3 4.8 -18.3" fill="none" stroke="#000000" stroke-linecap="round" stroke-linejoin="round" stroke-width="2.0"/>
    <path d="M4.8 -18.3 L9.95 -17.6 9.95 -12.85 Q6.8 -12.5 4.85 -12.75 L4.55 -12.85 Q6.05 -15.2 4.75 -18.3 M4.35 -2.3 Q5.3 -4.4 4.45 -7.5 L8.9 -7.5 Q9.6 -5.3 8.9 -2.85 L4.35 -2.3 M3.9 8.9 Q5.95 11.6 8.8 13.5 8.6 10.3 11.35 7.95 L12.1 7.4 Q17.4 4.75 22.55 6.5 23.7 7.15 24.5 7.95 26.9 10.3 26.85 14.1 19.4 18.2 9.7 14.05 L8.8 13.5" fill="none" stroke="#000000" stroke-linecap="round" stroke-linejoin="round" stroke-width="1.5"/>
  </g>
</svg>
