<?xml version="1.0" encoding="UTF-8" standalone="no"?>
<svg xmlns:xlink="http://www.w3.org/1999/xlink" height="25.05px" width="25.3px" xmlns="http://www.w3.org/2000/svg">
  <g transform="matrix(1.0, 0.0, 0.0, 1.0, 12.65, 12.55)">
    <path d="M-1.8 10.55 Q-9.05 10.1 -10.55 8.45 -11.7 6.4 -11.7 2.7 L-11.7 2.05 Q-11.95 -6.85 -11.6 -11.7 0.85 -10.35 7.85 -5.45 10.0 -0.25 11.8 7.0 L11.8 7.35 Q11.8 9.3 11.3 10.3 9.6 12.6 -1.45 11.05 L-1.8 10.55 Q-3.0 8.85 -5.25 6.8 L-9.2 5.65" fill="none" stroke="#000000" stroke-linecap="round" stroke-linejoin="round" stroke-width="1.7000000000000002"/>
    <path d="M-11.7 2.05 Q-9.95 3.4 -5.55 3.65 -3.05 6.0 1.3 7.75 L11.8 7.35" fill="none" stroke="#000000" stroke-linecap="round" stroke-linejoin="round" stroke-width="1.1"/>
  </g>
</svg>
