<?xml version="1.0" encoding="UTF-8" standalone="no"?>
<svg xmlns:xlink="http://www.w3.org/1999/xlink" height="36.55px" width="32.95px" xmlns="http://www.w3.org/2000/svg">
  <g transform="matrix(1.0, 0.0, 0.0, 1.0, 16.45, 18.3)">
    <path d="M10.15 -3.6 L10.35 -6.8 10.5 -9.4 10.6 -11.5 Q8.2 -15.1 2.95 -16.45 -6.75 -18.95 -13.6 -13.9 L-13.6 -11.15 -13.6 -9.1 -13.6 -1.85 Q-15.2 3.85 -15.4 9.35 L-15.45 12.75 -15.4 14.05 Q-15.3 16.05 -14.6 16.65 L-12.55 16.8 -9.65 16.9 -6.45 17.05 -3.2 17.1 0.5 17.2 4.75 17.25 8.6 17.25 11.85 17.25 14.2 17.2 Q14.85 15.75 15.15 14.1 L15.5 11.25 Q15.6 8.4 14.85 5.1 L13.2 2.25 10.05 -1.85 10.15 -3.6" fill="none" stroke="#000000" stroke-linecap="round" stroke-linejoin="round" stroke-width="2.0"/>
    <path d="M10.35 -6.8 Q9.4 -9.2 5.95 -9.75 2.05 -10.15 -0.85 -8.2 L-0.85 -4.35 Q6.65 -7.3 10.15 -3.6 M10.5 -9.4 Q5.9 -13.25 -0.7 -13.8 -7.25 -14.35 -13.6 -11.15 M-13.6 -9.1 Q-8.75 1.0 -1.1 11.7 7.35 11.7 15.5 11.25 M13.2 2.25 Q6.95 -2.3 -0.75 2.25 L-0.75 -1.7 Q5.95 -5.1 10.05 -1.85 M-13.6 -1.85 Q-12.75 2.35 -10.35 6.75 -7.45 5.75 -4.4 11.65 L-1.1 11.7 M-15.4 9.35 Q-14.5 8.5 -12.15 8.45 -9.8 8.7 -8.9 10.65 L-8.55 11.6 -4.4 11.65 M-15.4 14.05 L-13.0 14.05 -10.0 14.05 -8.3 14.05 Q-8.1 12.95 -8.55 11.6 M-13.0 14.05 Q-13.0 16.1 -12.55 16.8 M-9.65 16.9 Q-10.25 15.55 -10.0 14.05 M-8.3 14.05 L-6.6 14.05 -3.5 14.05 0.45 14.1 4.55 14.1 8.6 14.1 12.05 14.1 15.15 14.1 M-3.5 14.05 Q-3.6 16.2 -3.2 17.1 M0.5 17.2 L0.45 14.1 M-6.6 14.05 Q-6.9 16.15 -6.45 17.05 M8.6 14.1 Q9.05 15.9 8.6 17.25 M11.85 17.25 Q12.3 16.05 12.05 14.1 M4.55 14.1 Q4.95 16.1 4.75 17.25" fill="none" stroke="#000000" stroke-linecap="round" stroke-linejoin="round" stroke-width="1.0"/>
  </g>
</svg>
