<?xml version="1.0" encoding="UTF-8" standalone="no"?>
<svg xmlns:xlink="http://www.w3.org/1999/xlink" height="27.15px" width="27.9px" xmlns="http://www.w3.org/2000/svg">
  <g transform="matrix(1.0, 0.0, 0.0, 1.0, 13.95, 13.6)">
    <path d="M-5.85 -4.75 L-5.65 -5.95 Q-4.8 -9.65 -0.55 -11.55 4.35 -13.8 8.6 -11.3 12.7 -7.85 12.95 -2.6 12.8 1.75 11.35 5.65 L9.95 7.9 Q8.0 10.35 4.75 12.55 -1.3 8.45 -4.45 5.25 -5.3 4.15 -5.7 2.7 L-11.7 2.75 -12.8 2.6 Q-13.35 -1.1 -12.1 -3.8 L-5.85 -4.75 -6.1 -3.25 Q-6.45 0.25 -5.7 2.7 M5.1 5.8 Q0.0 3.9 -1.25 -1.55 -1.1 -4.1 0.05 -5.75 1.55 -7.95 4.7 -8.6 8.15 -7.45 9.5 -3.8 L10.05 -1.5 Q8.8 3.9 5.1 5.8" fill="none" stroke="#000000" stroke-linecap="round" stroke-linejoin="round" stroke-width="2.0"/>
  </g>
</svg>
