<?xml version="1.0" encoding="UTF-8" standalone="no"?>
<svg xmlns:xlink="http://www.w3.org/1999/xlink" height="16.75px" width="25.0px" xmlns="http://www.w3.org/2000/svg">
  <g transform="matrix(1.0, 0.0, 0.0, 1.0, 12.5, 8.35)">
    <path d="M10.35 0.25 Q11.1 2.85 10.65 5.1 L10.55 5.4 9.0 6.5 Q6.4 7.75 0.35 7.65 L-6.2 6.5 -7.35 6.15 -9.7 5.4 Q-11.35 4.45 -11.6 2.95 -12.0 1.2 -11.35 -0.25 -10.7 -0.9 -11.4 -3.6 -12.1 -6.25 -11.25 -7.1 -10.4 -8.0 -10.05 -7.2 -9.9 -6.75 -9.05 -6.3 -0.6 -3.45 9.2 -5.0 11.15 -5.9 11.75 -5.2 11.4 -2.3 10.55 -0.35 L10.35 0.25 9.4 1.65" fill="none" stroke="#381e2d" stroke-linecap="round" stroke-linejoin="round" stroke-width="1.5"/>
    <path d="M-9.65 -2.25 Q-5.45 1.25 3.35 2.2" fill="none" stroke="#381e2d" stroke-linecap="round" stroke-linejoin="round" stroke-width="1.0"/>
  </g>
</svg>
