<?xml version="1.0" encoding="UTF-8" standalone="no"?>
<svg xmlns:xlink="http://www.w3.org/1999/xlink" height="13.45px" width="28.85px" xmlns="http://www.w3.org/2000/svg">
  <g transform="matrix(1.0, 0.0, 0.0, 1.0, 1.0, 1.0)">
    <path d="M14.9 1.95 Q15.5 4.2 15.2 6.3 L15.6 7.2 Q16.75 9.7 19.6 11.45 20.45 9.6 20.9 7.65 21.25 5.45 21.0 3.15 21.5 5.7 22.65 7.75 23.5 9.5 24.95 10.85 L25.5 7.75 Q25.7 5.65 25.45 3.55 M22.65 7.75 L20.9 7.65 M15.6 7.2 L15.05 7.15 Q14.45 9.0 13.15 10.55 L12.85 6.85 11.05 6.6 Q8.35 8.85 6.95 9.45 7.15 7.7 7.6 6.0 L6.6 5.8 Q4.45 6.95 1.8 7.3 L0.0 7.45 1.8 6.2 3.95 4.5 Q3.75 2.35 4.85 0.0 17.0 2.15 26.85 2.8 L25.9 7.75 25.5 7.75 M11.05 6.6 L12.55 5.3 11.45 2.0 M15.05 7.15 L15.2 6.3 M12.55 5.3 L12.85 6.85 M9.1 1.45 Q8.3 3.3 7.8 5.15 L7.6 6.0 M6.6 5.8 L7.8 5.15 M3.95 4.5 Q5.75 2.8 7.05 0.95" fill="none" stroke="#000000" stroke-linecap="round" stroke-linejoin="round" stroke-width="2.0"/>
  </g>
</svg>
