<?xml version="1.0" encoding="UTF-8" standalone="no"?>
<svg xmlns:xlink="http://www.w3.org/1999/xlink" height="38.0px" width="36.45px" xmlns="http://www.w3.org/2000/svg">
  <g transform="matrix(1.0, 0.0, 0.0, 1.0, 18.2, 19.0)">
    <path d="M4.95 -17.5 L4.9 -17.6 7.5 -15.9 9.4 -14.4 12.6 -10.95 14.55 -8.5 15.55 -7.1 Q18.6 -2.35 16.85 1.85 L15.4 4.3 16.0 8.5 17.1 13.3 18.25 17.45 Q9.65 15.95 2.35 17.75 -11.8 20.55 -16.3 17.1 L-16.05 16.4 Q-15.8 15.05 -15.7 13.6 -15.35 8.2 -17.0 2.05 -20.8 -11.5 -12.4 -17.45 L-12.25 -17.55 -9.8 -19.0 Q-6.0 -12.2 -0.9 -8.45 4.15 -4.75 6.0 -3.55 7.9 -6.3 4.95 -17.5" fill="#bd3a3a" fill-rule="evenodd" stroke="none"/>
  </g>
</svg>
