<?xml version="1.0" encoding="UTF-8" standalone="no"?>
<svg xmlns:xlink="http://www.w3.org/1999/xlink" height="51.85px" width="41.05px" xmlns="http://www.w3.org/2000/svg">
  <g transform="matrix(1.0, 0.0, 0.0, 1.0, 20.5, 25.9)">
    <path d="M2.55 -15.05 L-0.75 -15.8 Q-6.7 -17.5 -10.85 -20.75 -6.5 -13.9 -0.3 -12.7 L-0.35 -12.7 Q-0.45 -9.55 1.3 -7.5 L1.35 -7.5 1.35 10.85 Q2.05 14.3 4.5 16.9 8.35 13.05 7.9 9.9 L5.65 -7.9 5.65 -7.95 Q6.7 -9.75 5.8 -12.95 L5.5 -13.1 Q8.3 -16.15 8.95 -20.4 10.55 -18.65 11.8 -16.25 14.4 -7.65 15.15 2.4 17.55 12.85 20.55 20.7 16.85 24.45 3.05 25.95 -15.35 25.8 -20.5 20.9 L-16.65 9.5 Q-15.5 4.15 -17.6 -3.65 -21.5 -17.5 -13.1 -23.05 -13.9 -24.3 -14.25 -25.5 -12.95 -24.75 -11.1 -24.2 L-10.5 -24.05 -3.6 -23.35 Q-3.9 -21.65 -3.5 -19.85 L2.55 -15.05 Q5.5 -17.85 4.05 -23.6 3.4 -24.65 3.1 -25.9 7.75 -24.8 10.8 -23.15 L8.45 -20.9 7.35 -19.05 Q6.25 -16.2 3.05 -15.15 L2.55 -15.05" fill="#191d19" fill-rule="evenodd" stroke="none"/>
  </g>
</svg>
