<?xml version="1.0" encoding="UTF-8" standalone="no"?>
<svg xmlns:xlink="http://www.w3.org/1999/xlink" height="41.15px" width="41.05px" xmlns="http://www.w3.org/2000/svg">
  <g transform="matrix(1.0, 0.0, 0.0, 1.0, 20.5, 20.55)">
    <path d="M14.8 -6.75 L15.15 -2.95 Q17.55 7.5 20.55 15.35 16.85 19.1 3.05 20.6 -15.35 20.45 -20.5 15.55 L-16.65 5.35 Q-15.5 -1.2 -17.6 -9.0 -18.45 -12.05 -18.7 -14.75 -17.0 -18.4 -9.5 -17.9 L-7.2 -17.8 -5.75 -17.5 Q3.0 -15.9 7.1 -17.2 L9.5 -18.0 Q11.35 -18.95 12.5 -20.55 L14.95 -18.15 Q18.0 -13.4 16.25 -9.2 L14.8 -6.75" fill="#ff5177" fill-rule="evenodd" stroke="none"/>
  </g>
</svg>
