<?xml version="1.0" encoding="UTF-8" standalone="no"?>
<svg xmlns:xlink="http://www.w3.org/1999/xlink" height="50.65px" width="41.05px" xmlns="http://www.w3.org/2000/svg">
  <g transform="matrix(1.0, 0.0, 0.0, 1.0, 20.5, 25.3)">
    <path d="M4.3 -24.3 Q5.7 -23.7 6.95 -22.75 L8.1 -21.8 Q10.25 -19.85 11.8 -16.85 14.4 -8.25 15.15 1.8 17.55 12.25 20.55 20.1 16.85 23.85 3.05 25.35 -15.35 25.2 -20.5 20.3 L-16.65 8.9 Q-15.5 3.55 -17.6 -4.25 -21.4 -17.8 -13.0 -23.75 L-12.85 -23.85 -10.4 -25.3 Q-10.6 -20.8 -7.75 -16.8 -4.55 -13.65 1.35 -13.7 4.4 -14.6 5.3 -17.55 5.75 -19.35 4.3 -24.3" fill="#f5b1d2" fill-rule="evenodd" stroke="none"/>
  </g>
</svg>
