<?xml version="1.0" encoding="UTF-8" standalone="no"?>
<svg xmlns:xlink="http://www.w3.org/1999/xlink" height="56.7px" width="43.65px" xmlns="http://www.w3.org/2000/svg">
  <g transform="matrix(1.0, 0.0, 0.0, 1.0, 21.8, 28.35)">
    <path d="M5.2 -13.45 Q-13.45 -13.45 -17.8 -17.3 -18.95 -7.45 -16.35 4.1 -16.65 11.25 -18.1 15.45 -19.55 19.6 -20.8 24.05 -13.0 27.3 5.65 27.35 15.8 27.4 20.85 23.85 L16.2 4.3 Q15.1 -7.7 12.3 -15.1 L11.4 -14.25 M6.8 -24.55 Q8.4 -20.7 7.75 -15.15 M-17.8 -17.3 Q-21.6 -20.4 -19.65 -26.85 -19.0 -27.45 -16.85 -27.35 L-13.9 -26.95 -11.55 -26.5 -8.05 -25.7 -2.85 -24.7 Q4.55 -23.85 11.8 -25.9 13.85 -23.5 14.15 -22.25 14.6 -17.7 12.3 -15.1 M-2.85 -24.7 L-2.45 -15.45 M-13.9 -26.95 Q-15.2 -23.4 -13.3 -16.85 M4.45 1.45 L4.4 0.25 M6.4 3.5 L4.45 3.5 4.45 4.75 4.45 6.6 M3.9 3.5 L2.35 3.5 M3.9 3.5 L4.45 3.5 4.45 1.45 M3.95 -6.75 Q-0.7 2.1 -4.7 11.8 L13.85 11.5 Q9.15 1.6 3.95 -6.75" fill="none" stroke="#000000" stroke-linecap="round" stroke-linejoin="round" stroke-width="2.0"/>
    <path d="M3.95 -4.0 L4.1 -1.55 5.1 -1.55 5.8 -1.55 M2.85 -1.55 L4.1 -1.55 M7.95 4.15 L7.75 1.8 M1.1 1.5 L3.8 1.45 4.45 1.45 7.55 1.4 M4.45 4.75 L9.15 4.75 M3.9 4.45 L3.9 3.5 3.8 1.45 M-2.15 8.1 L0.0 8.1 1.95 8.05 2.05 5.15 M1.95 8.05 L3.8 8.05 6.4 8.0 6.1 5.35 M3.8 8.05 L3.9 10.95 M8.35 8.3 L8.45 11.15 M6.4 8.0 L11.2 7.95 M0.0 8.1 L-0.1 11.05 M5.3 1.0 L5.1 -1.55 M1.95 1.2 L1.95 -0.75 M-0.55 4.75 L4.45 4.75" fill="none" stroke="#000000" stroke-linecap="round" stroke-linejoin="round" stroke-width="1.0"/>
  </g>
</svg>
