<?xml version="1.0" encoding="UTF-8" standalone="no"?>
<svg xmlns:xlink="http://www.w3.org/1999/xlink" height="15.1px" width="3.9px" xmlns="http://www.w3.org/2000/svg">
  <g transform="matrix(1.0, 0.0, 0.0, 1.0, 1.95, 7.55)">
    <path d="M1.95 -5.75 Q1.95 -5.05 1.45 -4.5 0.9 -4.0 0.15 -4.0 -0.55 -4.0 -1.1 -4.5 -1.65 -5.05 -1.65 -5.75 -1.65 -6.5 -1.1 -7.05 -0.55 -7.55 0.15 -7.55 0.9 -7.55 1.45 -7.05 1.95 -6.5 1.95 -5.75 M1.8 0.25 Q1.8 1.0 1.3 1.5 0.75 2.05 0.05 2.05 -0.65 2.05 -1.25 1.5 -1.75 1.0 -1.75 0.25 -1.75 -0.5 -1.25 -1.0 -0.65 -1.55 0.05 -1.55 0.75 -1.55 1.3 -1.0 1.8 -0.5 1.8 0.25 M1.65 5.75 Q1.65 6.5 1.1 7.0 0.6 7.55 -0.15 7.55 -0.85 7.55 -1.4 7.0 -1.95 6.5 -1.95 5.75 -1.95 5.0 -1.4 4.5 -0.85 3.95 -0.15 3.95 0.6 3.95 1.1 4.5 1.65 5.0 1.65 5.75" fill="#ffff66" fill-rule="evenodd" stroke="none"/>
  </g>
</svg>
