<?xml version="1.0" encoding="UTF-8" standalone="no"?>
<svg xmlns:xlink="http://www.w3.org/1999/xlink" height="11.75px" width="20.8px" xmlns="http://www.w3.org/2000/svg">
  <g transform="matrix(1.0, 0.0, 0.0, 1.0, 10.4, 5.9)">
    <path d="M4.0 -0.75 Q4.2 -2.5 5.45 -4.35 7.0 -2.95 7.4 -1.45 L10.4 -1.5 Q9.85 0.4 9.15 1.1 L9.9 4.6 Q7.65 4.35 6.25 3.3 4.55 5.1 2.85 5.85 2.75 4.3 3.1 2.35 1.15 1.6 0.7 0.4 2.15 -0.45 4.0 -0.75 M-7.1 -2.5 Q-6.9 -4.2 -5.65 -5.9 -4.1 -4.35 -3.7 -2.8 L-0.7 -2.45 Q-1.25 -0.65 -1.95 0.0 -1.35 1.9 -1.2 3.55 -3.45 3.05 -4.85 1.85 -6.55 3.45 -8.25 4.0 L-8.0 0.5 Q-9.95 -0.5 -10.4 -1.75 -8.95 -2.4 -7.1 -2.5" fill="#ffff99" fill-rule="evenodd" stroke="none"/>
  </g>
</svg>
