<?xml version="1.0" encoding="UTF-8" standalone="no"?>
<svg xmlns:xlink="http://www.w3.org/1999/xlink" height="42.05px" width="42.55px" xmlns="http://www.w3.org/2000/svg">
  <g transform="matrix(1.0, 0.0, 0.0, 1.0, 21.25, 21.0)">
    <path d="M-16.25 -2.5 Q-17.85 -7.25 -18.25 -11.75 -15.2 -17.1 -8.75 -18.75 -2.25 -19.45 4.45 -15.55 6.65 -19.2 11.35 -20.25 14.5 -18.7 15.7 -14.0 15.85 -9.0 15.05 -4.85 M15.75 -1.45 L20.55 18.25 Q19.1 19.35 2.75 20.15 -13.65 20.95 -20.5 17.9 -16.65 7.45 -16.5 3.15" fill="none" stroke="#000000" stroke-linecap="round" stroke-linejoin="round" stroke-width="1.5"/>
    <path d="M15.05 -4.85 L16.1 -1.15 15.75 -1.45 15.75 -1.8 12.85 -2.35 12.4 -3.6 M-16.5 3.15 Q-17.55 3.0 -18.4 2.45 -16.5 0.1 -16.25 -2.5 L-14.7 -2.25 Q1.9 -6.85 14.1 -4.8 L15.05 -4.85 M-3.85 -3.1 L-4.05 -0.65 Q-1.6 -2.05 1.6 -1.65 L1.65 -1.9 0.95 -3.75 M1.65 -1.9 L1.65 -2.0 1.75 -1.6 1.6 -1.65 1.15 0.15 5.65 -0.4 4.45 -2.25 4.5 -2.25 4.65 -4.15 M1.75 -1.6 L1.65 -1.9 M8.7 -4.0 L9.65 -2.3 8.55 -0.1 13.55 -0.2 12.6 -2.3 12.85 -2.35 M4.5 -2.25 Q6.9 -3.1 9.65 -2.3 M-13.45 -0.85 L-14.25 1.25 Q-11.95 -0.2 -8.25 -0.25 L-8.55 -1.95 M-8.25 -0.25 L-8.95 1.7 -3.0 0.75 -4.05 -0.65 M-16.5 3.15 L-13.05 2.8 -14.25 1.25 M14.95 2.75 Q15.0 3.5 14.55 3.95 L13.5 4.5 Q12.9 4.5 12.35 3.95 11.85 3.5 11.8 2.75 11.75 2.0 12.15 1.45 12.6 0.95 13.2 0.95 13.85 0.95 14.35 1.45 14.9 2.0 14.95 2.75 M15.65 7.85 Q15.7 8.6 15.25 9.1 14.85 9.65 14.2 9.65 13.6 9.65 13.05 9.1 12.55 8.6 12.5 7.85 12.45 7.1 12.85 6.55 13.3 6.05 13.9 6.05 14.55 6.05 15.05 6.55 15.6 7.1 15.65 7.85" fill="none" stroke="#000000" stroke-linecap="round" stroke-linejoin="round" stroke-width="1.0"/>
  </g>
</svg>
