<?xml version="1.0" encoding="UTF-8" standalone="no"?>
<svg xmlns:xlink="http://www.w3.org/1999/xlink" height="51.45px" width="42.45px" xmlns="http://www.w3.org/2000/svg">
  <g transform="matrix(1.0, 0.0, 0.0, 1.0, 21.2, 25.75)">
    <path d="M-14.55 15.0 Q-15.85 14.55 -16.6 13.95 L-20.45 22.6 Q-11.25 25.5 5.7 24.85 1.55 20.75 1.75 15.25 4.15 5.8 4.6 -0.95 5.15 -9.5 2.05 -17.7 L2.0 -17.75 0.0 -15.45 Q-9.15 -18.65 -12.9 -21.6 -17.2 -18.65 -17.6 -12.8 -18.05 -7.25 -16.45 -0.7 -15.3 2.95 -15.45 5.9 L-17.5 12.85 -16.6 13.95 M-12.9 -21.6 Q-12.4 -21.55 -13.25 -22.1 -12.3 -23.35 -9.05 -25.0 -6.15 -21.65 2.0 -18.55 5.2 -21.7 4.7 -24.05 L8.5 -20.85 8.3 -20.2 Q12.05 -16.85 13.4 -12.4 14.7 -8.0 15.25 0.1 16.0 5.85 18.0 9.8 18.95 10.95 17.8 12.1 20.85 17.55 20.45 22.95 L5.7 24.85 M8.3 -20.2 Q7.45 -18.25 4.25 -15.5 L2.05 -17.7 M17.8 12.1 Q16.35 13.45 11.65 14.75" fill="none" stroke="#000000" stroke-linecap="round" stroke-linejoin="round" stroke-width="1.5"/>
    <path d="M1.5 -15.35 L1.85 -14.1 M3.0 -7.2 L3.25 -5.45 M2.9 2.25 L2.75 3.7" fill="none" stroke="#000000" stroke-linecap="round" stroke-linejoin="round" stroke-width="1.0"/>
  </g>
</svg>
