<?xml version="1.0" encoding="UTF-8" standalone="no"?>
<svg xmlns:xlink="http://www.w3.org/1999/xlink" height="49.1px" width="40.8px" xmlns="http://www.w3.org/2000/svg">
  <g transform="matrix(1.0, 0.0, 0.0, 1.0, 20.4, 24.55)">
    <path d="M2.15 -16.05 Q6.8 -19.0 7.1 -22.65 9.8 -21.6 12.5 -17.25 L12.75 -16.85 Q15.55 -12.15 16.0 -9.85 L16.05 -9.5 Q16.3 -7.35 15.45 -2.5 L15.2 -1.35 16.5 4.65 16.55 4.8 18.25 11.4 20.4 15.75 Q19.8 17.0 19.6 20.75 18.35 22.2 16.75 23.1 15.1 24.0 3.3 24.55 -15.1 24.4 -19.15 20.1 L-20.35 16.55 Q-20.65 15.15 -17.55 11.8 L-16.4 8.1 -16.05 6.05 -16.05 5.95 -16.05 5.75 Q-15.8 2.6 -16.5 -1.25 L-17.35 -5.05 -18.2 -8.6 Q-19.05 -12.95 -18.6 -16.2 -17.75 -22.25 -11.85 -24.55 -6.95 -17.45 2.15 -16.05" fill="#f7f5ff" fill-rule="evenodd" stroke="none"/>
  </g>
</svg>
