<?xml version="1.0" encoding="UTF-8" standalone="no"?>
<svg xmlns:xlink="http://www.w3.org/1999/xlink" height="53.4px" width="43.05px" xmlns="http://www.w3.org/2000/svg">
  <g transform="matrix(1.0, 0.0, 0.0, 1.0, 21.5, 26.7)">
    <path d="M-17.75 13.4 L-16.65 10.45 Q-16.2 7.85 -16.25 5.05 -16.35 0.8 -17.6 -3.9 L-17.6 -4.0 Q-19.2 -9.75 -18.6 -14.1 -18.4 -18.05 -15.1 -21.75 L-13.0 -23.4 -12.85 -23.5 Q-12.05 -24.05 -10.15 -25.7 -8.5 -23.1 -5.0 -19.9 L-2.45 -17.8 Q0.1 -15.9 3.15 -14.35 L4.0 -17.35 Q4.6 -20.3 4.35 -23.4 L4.35 -23.45 7.85 -20.0 12.9 -15.05 14.95 -13.05 Q16.85 -10.15 16.9 -7.45 16.9 -5.75 16.25 -4.1 L14.8 -1.65 15.15 2.15 15.55 3.75 Q16.6 8.3 17.8 12.3 19.1 16.7 20.55 20.45 16.85 24.2 3.05 25.7 -15.35 25.55 -20.5 20.65 L-17.75 13.4 M14.8 -1.65 L14.45 -1.2" fill="none" stroke="#000000" stroke-linecap="round" stroke-linejoin="round" stroke-width="2.0"/>
    <path d="M-17.75 13.4 L-18.0 13.35 M4.0 -17.35 Q6.95 -18.3 7.85 -20.0 M-17.6 -4.0 L-8.7 -3.45 Q-4.2 -2.4 -1.35 -2.7 1.45 -3.0 3.75 -4.1 6.0 -5.2 8.4 -4.6 14.5 -3.15 16.9 -7.45 M-5.35 -0.2 L0.55 -0.35 Q3.1 -1.15 4.1 -2.8 M-18.6 -14.1 Q-17.5 -11.6 -8.05 -10.8 1.35 -10.0 6.6 -11.2 11.8 -12.45 12.9 -15.05 M-17.75 13.4 Q-8.8 15.05 2.7 14.7 13.45 14.25 17.8 12.3 M-16.25 5.05 Q-10.95 6.4 1.4 6.2 12.0 5.3 15.55 3.75 M-2.45 -17.8 Q-14.5 -17.55 -15.1 -21.75" fill="none" stroke="#000000" stroke-linecap="round" stroke-linejoin="round" stroke-width="1.0"/>
  </g>
</svg>
