<?xml version="1.0" encoding="UTF-8" standalone="no"?>
<svg xmlns:xlink="http://www.w3.org/1999/xlink" height="53.15px" width="42.55px" xmlns="http://www.w3.org/2000/svg">
  <g transform="matrix(1.0, 0.0, 0.0, 1.0, 21.25, 26.55)">
    <path d="M0.85 -24.0 Q2.6 -24.75 3.05 -25.4 L4.5 -23.25 5.45 -22.5 Q8.45 -21.15 9.0 -19.55 10.8 -18.4 10.9 -17.1 13.0 -15.6 12.9 -14.2 14.6 -13.3 14.6 -11.45 15.95 -10.55 15.8 -9.2 L16.5 -7.65 M16.0 -6.85 L15.9 -5.7 Q15.45 -2.65 14.8 -1.5 L15.15 2.3 Q17.55 12.75 20.55 20.6 16.85 24.35 3.05 25.85 -15.35 25.7 -20.5 20.8 L-16.65 10.6 Q-15.5 4.05 -17.6 -3.75 -21.35 -17.05 -13.35 -23.0 M-13.25 -23.3 L-11.15 -24.7 -11.1 -24.65 -10.7 -24.85 -10.2 -24.9 -10.2 -25.8 Q-8.15 -24.7 -4.3 -24.2 L-2.6 -24.05 0.45 -23.9 0.65 -23.9 M14.8 -1.5 L14.45 -1.05" fill="none" stroke="#000000" stroke-linecap="round" stroke-linejoin="round" stroke-width="1.5"/>
    <path d="M16.5 -7.65 Q16.45 -7.1 16.0 -6.85 15.6 -6.55 14.8 -6.6 14.25 -4.55 11.85 -5.5 10.3 -3.2 7.7 -4.95 5.85 -2.9 2.95 -4.75 0.35 -2.75 -1.85 -4.95 -5.4 -3.1 -6.25 -6.05 -10.25 -6.4 -9.05 -9.3 L-8.9 -9.65 -8.95 -9.7 Q-10.6 -10.55 -9.5 -13.05 L-9.4 -13.35 Q-11.7 -14.35 -10.55 -16.85 -12.5 -17.9 -11.4 -19.85 -13.4 -20.5 -12.0 -22.2 -13.45 -22.4 -13.35 -23.0 L-13.25 -23.3 M0.65 -23.9 L0.85 -24.0 Q2.7 -23.65 3.4 -22.5 5.25 -21.25 4.05 -20.05 6.55 -18.9 5.8 -17.25 8.55 -15.95 7.15 -14.05 10.15 -12.5 8.35 -10.75 11.15 -9.2 8.4 -7.7 11.3 -8.3 12.8 -9.25 11.1 -14.35 5.45 -22.5 M-2.6 -24.05 Q-0.7 -19.05 1.8 -15.35 4.25 -10.7 4.15 -7.2 L7.25 -7.5 Q7.65 -10.1 4.7 -15.7 2.35 -19.05 0.65 -23.9 M-4.3 -24.2 Q-6.05 -22.5 -3.3 -21.5 -5.15 -19.8 -2.2 -18.9 -3.2 -16.9 -0.6 -16.2 -2.0 -13.75 0.8 -13.1 -0.75 -10.9 2.0 -10.1 0.55 -7.8 2.95 -7.15 L4.15 -7.2 M7.25 -7.5 L8.4 -7.7 M-5.35 -0.05 L0.55 -0.2 Q3.1 -1.0 4.1 -2.65 M-11.1 -24.65 Q-7.15 -18.25 -5.1 -8.2 -1.45 -7.2 2.95 -7.15" fill="none" stroke="#000000" stroke-linecap="round" stroke-linejoin="round" stroke-width="1.0"/>
  </g>
</svg>
