<?xml version="1.0" encoding="UTF-8" standalone="no"?>
<svg xmlns:xlink="http://www.w3.org/1999/xlink" height="54.65px" width="42.55px" xmlns="http://www.w3.org/2000/svg">
  <g transform="matrix(1.0, 0.0, 0.0, 1.0, 21.25, 27.35)">
    <path d="M14.8 -0.8 L15.15 3.0 Q17.55 13.45 20.55 21.3 19.0 22.9 15.6 24.1 L8.2 25.85 3.05 26.55 0.6 26.5 -7.25 26.0 Q-11.6 25.5 -14.7 24.55 -18.55 23.35 -20.5 21.5 L-16.65 11.3 Q-15.5 4.75 -17.6 -3.05 -21.15 -15.7 -14.1 -21.7 L-13.9 -21.85 -11.3 -23.75 -11.3 -23.8 Q-10.65 -25.1 -10.6 -26.6 L-7.85 -25.9 -4.2 -25.55 -3.2 -25.55 0.2 -25.65 Q2.2 -25.9 2.7 -26.5 L3.4 -23.6 3.45 -23.55 8.9 -19.2 Q12.3 -15.85 14.95 -12.2 18.0 -7.45 16.25 -3.25 L14.8 -0.8 14.45 -0.35 M-7.0 0.1 Q-2.8 1.05 0.0 0.15 L0.45 0.0 Q3.15 -0.95 4.1 -2.5 M-7.0 0.1 L-8.0 -0.15" fill="none" stroke="#000000" stroke-linecap="round" stroke-linejoin="round" stroke-width="1.5"/>
    <path d="M15.6 24.1 Q13.6 15.0 12.7 -1.65 16.65 -8.9 8.85 -16.15 5.4 -19.5 3.45 -23.55 M0.2 -25.65 L1.2 -18.3 Q2.2 -16.05 3.9 -13.65 L4.7 -12.45 Q7.85 -7.5 7.1 -1.45 6.6 15.8 8.2 25.85 M0.45 0.0 Q1.3 -6.05 -2.65 -13.4 L-4.2 -25.55 M0.45 0.0 L0.4 0.1 0.6 26.5 M-14.7 24.55 Q-11.4 15.2 -12.55 -0.2 -16.45 -15.65 -11.3 -23.75 M-7.85 -25.9 Q-8.05 -20.3 -9.0 -13.0 -10.0 -5.75 -7.0 0.1 L-7.0 0.15 Q-6.05 16.7 -7.25 26.0" fill="none" stroke="#000000" stroke-linecap="round" stroke-linejoin="round" stroke-opacity="0.4392157" stroke-width="1.0"/>
  </g>
</svg>
