<?xml version="1.0" encoding="UTF-8" standalone="no"?>
<svg xmlns:xlink="http://www.w3.org/1999/xlink" height="13.5px" width="14.6px" xmlns="http://www.w3.org/2000/svg">
  <g transform="matrix(1.0, 0.0, 0.0, 1.0, 7.3, 6.75)">
    <path d="M-1.05 -5.95 L-1.05 -6.25 Q0.05 -7.0 1.0 -6.65 L1.3 -6.2 Q2.8 -5.35 5.3 -4.6 7.65 -3.95 7.1 -1.85 6.05 -0.75 4.75 1.5 7.0 4.1 7.3 6.55 4.9 5.7 2.35 6.65 2.65 2.55 1.05 -2.2 L0.3 -2.2 Q1.25 4.55 0.2 6.75 -1.95 4.8 -4.65 5.8 -5.25 4.55 -3.75 0.2 L-6.15 -1.2 Q-7.95 -1.6 -6.95 -3.1 -5.3 -5.55 -3.75 -6.2 -1.8 -7.0 -1.05 -5.95" fill="#f7f9ff" fill-rule="evenodd" stroke="none"/>
  </g>
</svg>
