<?xml version="1.0" encoding="UTF-8" standalone="no"?>
<svg xmlns:xlink="http://www.w3.org/1999/xlink" height="60.3px" width="50.85px" xmlns="http://www.w3.org/2000/svg">
  <g transform="matrix(1.0, 0.0, 0.0, 1.0, 25.45, 30.15)">
    <path d="M9.4 -22.3 Q7.05 -24.65 6.8 -26.9 8.55 -28.2 12.1 -27.35 15.35 -23.4 13.75 -20.8 17.15 -17.4 17.8 -13.2 L18.55 -7.05 Q18.65 -5.15 19.5 -3.15 20.95 1.5 19.5 3.85 23.25 9.1 22.55 15.0 25.85 18.35 25.35 26.85 23.5 28.85 20.3 29.5 L10.15 30.05 -9.05 29.4 Q-15.8 28.35 -17.6 27.0 -16.9 19.7 -14.75 15.55 -14.0 11.35 -14.15 7.4 L-14.15 3.8 Q-15.25 -0.55 -14.2 -2.0 L-15.35 -4.8 Q-16.75 -3.2 -20.5 -4.8 -27.1 -8.95 -23.95 -15.8 -25.85 -17.9 -25.35 -20.65 -23.7 -29.0 -11.45 -30.15 -6.35 -29.7 -5.75 -27.1 -5.25 -24.85 -6.45 -24.8 L-4.0 -23.0 Q-1.4 -20.55 1.6 -18.8 L3.75 -17.65 4.15 -17.5 4.15 -17.45 4.2 -17.45 4.5 -17.5 5.05 -17.5 4.25 -10.85 7.95 -9.4 10.25 -12.1 6.6 -17.85 7.55 -18.05 6.55 -17.95 Q8.7 -20.2 9.55 -22.65 9.65 -23.05 9.4 -22.3" fill="#fd5953" fill-rule="evenodd" stroke="none"/>
  </g>
</svg>
