<?xml version="1.0" encoding="UTF-8" standalone="no"?>
<svg xmlns:xlink="http://www.w3.org/1999/xlink" height="30.0px" width="35.9px" xmlns="http://www.w3.org/2000/svg">
  <g transform="matrix(1.0, 0.0, 0.0, 1.0, 17.95, 15.0)">
    <path d="M15.9 6.8 L15.35 7.6 17.8 11.75 Q18.8 13.45 13.4 13.95 L11.35 13.85 Q10.3 13.55 9.7 12.85 7.7 11.3 6.2 13.2 L5.7 13.85 Q3.15 16.2 0.05 13.85 -3.35 11.95 -4.05 13.6 L-4.9 14.4 -7.7 14.5 Q-8.2 14.1 -8.65 13.85 L-11.05 13.95 -11.9 14.35 -15.4 14.5 Q-17.5 14.0 -17.15 12.25 -16.95 9.3 -17.95 6.6 -15.15 4.05 -14.8 2.75 L-14.5 1.6 -14.2 0.5 Q-11.9 -9.15 -13.75 -13.8 L-11.65 -15.0 Q-10.55 -13.3 -9.3 -7.85 -8.2 -5.8 -0.95 -6.05 6.85 -5.95 5.7 -8.5 L3.45 -14.5 5.2 -14.5 Q6.75 -13.05 8.9 -7.95 11.15 -6.8 14.0 -4.8 16.4 -3.35 17.15 -0.5 L17.4 0.6 17.5 1.65 Q17.5 4.25 15.9 6.8" fill="#436779" fill-rule="evenodd" stroke="none"/>
  </g>
</svg>
