<?xml version="1.0" encoding="UTF-8" standalone="no"?>
<svg xmlns:xlink="http://www.w3.org/1999/xlink" height="54.2px" width="45.85px" xmlns="http://www.w3.org/2000/svg">
  <g transform="matrix(1.0, 0.0, 0.0, 1.0, 22.9, 27.1)">
    <path d="M7.9 -18.85 Q7.65 -18.45 7.25 -18.4 6.8 -18.4 6.4 -18.8 6.0 -19.2 5.95 -19.75 5.8 -20.4 6.1 -20.8 6.35 -21.2 6.75 -21.2 7.2 -21.25 7.55 -20.85 L8.05 -19.8 Q8.15 -19.25 7.9 -18.85 M9.3 -16.85 Q8.65 -15.9 7.55 -15.85 6.35 -15.85 5.25 -17.0 4.25 -18.1 3.95 -19.7 3.75 -21.1 4.15 -22.25 M-5.6 -6.6 L-7.45 -6.55 Q-7.4 -14.4 -10.05 -14.75 -10.95 -13.85 -10.7 -11.2 L-10.2 -5.6 Q-10.2 -4.5 -9.25 -4.15 L-7.95 -4.0 -7.4 -4.0 -4.9 -4.1 -4.45 -5.15 -5.2 -5.95 -5.35 -7.9 -5.7 -11.55 -2.95 -11.6 -2.6 -7.95 -2.5 -6.6 3.75 -6.8 3.65 -7.9 3.3 -11.7 6.05 -11.8 6.4 -8.0 6.5 -6.75 9.2 -6.85 8.75 -12.3 8.55 -13.5 Q7.95 -15.4 6.3 -15.7 L-8.9 -15.25 Q-9.6 -15.2 -10.05 -14.75 M6.5 -6.75 L6.55 -6.2 6.2 -4.95 6.7 -4.45 9.4 -4.55 9.2 -6.85 M4.55 1.4 L4.4 -0.7 4.2 -2.75 4.1 -4.0 4.25 -4.4 -2.1 -4.2 -1.95 -2.8 -1.8 -0.7 -1.55 1.7 M4.25 -4.4 L4.65 -5.2 3.8 -5.95 3.75 -6.8 M6.7 -4.45 L7.0 -4.2 7.1 -2.8 7.35 -0.75 7.6 1.5 Q10.45 1.2 10.2 0.65 9.7 -0.1 9.7 -1.3 L9.6 -2.2 9.4 -4.55 M7.1 -2.8 L4.2 -2.75 M4.4 -0.7 L7.35 -0.75 M3.65 -7.9 L6.4 -8.0 M9.6 -2.2 Q12.8 0.4 15.55 -2.15 M11.7 -13.7 L8.55 -13.5 M10.2 0.65 Q11.0 1.9 13.1 1.8 14.95 1.7 15.5 0.5 M2.55 -23.45 Q2.55 -19.35 -0.35 -18.55 L-5.15 -18.75 Q-7.15 -19.55 -8.65 -21.45 L-13.25 -17.8 Q-12.05 -13.45 -13.7 -3.9 -14.25 0.0 -15.65 3.9 L-6.9 4.2 Q-6.0 4.4 -5.5 5.6 -4.45 3.75 1.35 3.8 6.45 3.35 8.1 4.65 9.85 2.7 15.95 2.4 L16.45 2.45 M-5.5 5.6 Q-5.1 6.5 -5.0 7.95 L-4.4 14.85 Q-1.85 18.8 3.7 18.35 8.2 18.3 9.6 14.4 L8.85 5.9 8.5 5.1 8.1 4.65 M9.6 14.4 L9.75 15.65 Q10.1 17.95 9.45 19.35 11.2 22.2 18.25 21.45 L20.7 20.75 M9.45 19.35 Q8.3 22.1 3.6 22.05 -2.25 22.65 -4.0 19.4 -4.0 22.95 -8.95 22.7 L3.2 23.05 Q12.0 22.85 18.25 21.45 M8.5 5.1 Q10.95 5.05 11.15 7.7 L11.85 15.85 Q12.35 17.25 15.45 17.3 21.1 17.25 22.0 14.35 M-9.9 -23.4 L-8.65 -21.45 M-2.45 -20.75 L-0.35 -18.55 M-5.15 -18.75 L-2.45 -20.75 M-13.25 -17.8 Q-14.05 -20.55 -16.7 -18.75 M-4.45 1.55 L-4.65 -0.6 -4.8 -2.7 -4.95 -3.95 -4.9 -4.1 M-4.65 -0.6 L-1.8 -0.7 M-1.95 -2.8 L-4.8 -2.7 M-2.5 -6.6 L-2.45 -6.15 -2.85 -4.9 -2.1 -4.2 M-5.35 -7.9 L-2.6 -7.95 M-9.25 -4.15 Q-10.85 -3.4 -10.55 -0.7 -10.85 2.1 -6.45 2.15 -6.35 -2.45 -7.95 -4.0 M-6.45 2.15 L-6.15 2.15 7.6 1.5 M-17.45 4.65 Q-16.95 4.0 -16.1 3.9 L-15.65 3.9 M-8.95 22.7 L-9.3 22.65 Q-17.25 21.95 -17.1 20.0 L-17.2 19.7 -17.5 16.45 -18.2 8.0 M-4.0 19.4 L-4.4 14.85 M-17.5 16.45 Q-14.5 19.35 -8.8 18.3 -6.3 17.65 -6.55 15.0 -7.1 8.25 -6.9 4.2" fill="none" stroke="#000000" stroke-linecap="round" stroke-linejoin="round" stroke-width="1.0"/>
    <path d="M9.1 -26.25 L9.6 -20.9 9.8 -19.85 Q10.1 -18.3 9.45 -17.1 L9.3 -16.85 11.7 -13.7 Q14.6 -13.5 14.75 -11.35 L15.55 -2.15 15.6 -1.6 Q15.9 -0.25 15.5 0.5 L16.45 2.45 Q20.2 2.5 20.55 3.4 21.65 7.45 22.0 14.35 L22.1 16.05 Q22.3 19.75 20.7 20.75 L20.95 23.75 Q14.9 25.65 3.85 26.15 -12.15 26.65 -22.05 23.95 -21.3 17.7 -18.2 8.0 -18.3 5.65 -17.45 4.65 -21.7 -11.0 -16.7 -18.75 -15.05 -21.0 -12.65 -22.25 -10.3 -23.55 -9.9 -23.4 -6.7 -22.8 -2.45 -20.75 L2.55 -23.45 4.15 -22.25 4.35 -22.5 Q5.05 -23.7 6.25 -23.75 7.5 -23.8 8.5 -22.6 9.25 -21.9 9.6 -20.9" fill="none" stroke="#000000" stroke-linecap="round" stroke-linejoin="round" stroke-width="1.7000000000000002"/>
  </g>
</svg>
