<?xml version="1.0" encoding="UTF-8" standalone="no"?>
<svg xmlns:xlink="http://www.w3.org/1999/xlink" height="52.85px" width="43.2px" xmlns="http://www.w3.org/2000/svg">
  <g transform="matrix(1.0, 0.0, 0.0, 1.0, 21.6, 26.45)">
    <path d="M7.4 -19.6 Q6.3 -22.1 4.55 -24.15 14.8 -19.4 17.9 -10.55 L14.9 -7.2 Q14.05 -2.75 16.15 -0.15 17.4 1.0 17.6 2.95 L17.4 3.65 16.0 4.55 Q16.65 8.7 18.95 14.05 20.5 19.6 20.75 24.0 1.15 27.15 -20.75 24.0 -20.85 20.45 -18.75 13.5 -16.65 6.55 -16.5 2.3 L-17.45 1.6 -19.05 -5.8 Q-21.3 -16.1 -14.95 -21.0 -13.8 -23.35 -13.65 -25.6 -9.15 -22.55 -0.7 -21.4 1.65 -20.55 0.1 -17.85 L-3.35 -13.45 3.75 -8.25 Q5.35 -7.25 6.35 -11.0 L9.1 -10.6 7.15 -13.25 7.4 -19.6 Q9.15 -15.6 9.1 -10.6 9.0 -4.9 6.65 2.1 L14.9 -7.2 M8.55 2.75 L9.1 4.35 10.85 3.35 M9.6 5.65 L9.1 4.35 7.6 5.2 M-3.35 -13.45 L-4.45 -12.0 -2.75 -11.0 5.15 6.0 5.55 5.05 6.65 2.1 M6.0 7.8 L5.15 6.0" fill="none" stroke="#000000" stroke-linecap="round" stroke-linejoin="round" stroke-width="1.7000000000000002"/>
    <path d="M10.5 -17.1 Q13.1 -15.25 15.75 -11.55 M12.0 5.25 L13.95 5.05 16.0 4.55 M-1.1 1.35 Q-0.7 0.95 -0.1 0.95 0.5 0.95 0.95 1.35 1.35 1.8 1.35 2.4 1.35 3.0 0.95 3.4 0.5 3.85 -0.1 3.85 -0.7 3.85 -1.1 3.4 L-1.55 2.4 Q-1.55 1.8 -1.1 1.35 M-8.65 -20.8 Q-5.35 -19.1 -1.6 -19.6 M-1.55 -2.6 Q-2.0 -2.15 -2.6 -2.15 -3.2 -2.15 -3.6 -2.6 -4.05 -3.05 -4.05 -3.65 -4.05 -4.25 -3.6 -4.65 -3.2 -5.1 -2.6 -5.1 -2.0 -5.1 -1.55 -4.65 -1.1 -4.25 -1.1 -3.65 -1.1 -3.05 -1.55 -2.6 M-14.95 -21.0 Q-13.45 -17.5 -8.15 -13.0 M-13.5 6.9 L-14.4 5.05 Q-14.9 3.6 -16.5 2.3" fill="none" stroke="#000000" stroke-linecap="round" stroke-linejoin="round" stroke-width="1.0"/>
  </g>
</svg>
