<?xml version="1.0" encoding="UTF-8" standalone="no"?>
<svg xmlns:xlink="http://www.w3.org/1999/xlink" height="21.35px" width="35.15px" xmlns="http://www.w3.org/2000/svg">
  <g transform="matrix(1.0, 0.0, 0.0, 1.0, 17.55, 10.7)">
    <path d="M16.35 -6.05 L16.35 -5.85 Q19.55 -2.95 14.45 2.9 L12.75 5.25 Q14.2 9.85 10.9 7.75 10.45 9.1 9.5 9.2 8.5 9.25 7.7 7.75 4.15 11.15 5.3 5.7 1.9 3.05 1.45 0.9 0.1 3.1 -3.3 5.7 -0.95 10.95 -5.1 9.25 -6.75 12.1 -8.7 9.25 -13.35 11.75 -11.4 6.6 L-11.65 6.35 Q-14.0 4.55 -16.0 1.75 L-16.55 0.85 Q-19.3 -4.4 -14.5 -5.1 L-14.4 -5.45 Q-13.5 -8.6 -10.95 -7.95 L-10.7 -8.2 Q-7.35 -12.1 -4.05 -8.3 -0.7 -9.25 0.55 -5.1 L0.75 -4.9 Q1.4 -6.8 2.55 -6.6 3.35 -9.1 5.55 -8.65 L5.75 -8.9 Q8.6 -12.3 12.1 -9.2 L12.4 -8.95 Q16.0 -9.4 16.35 -6.05" fill="#b5d8fe" fill-rule="evenodd" stroke="none"/>
  </g>
</svg>
