<?xml version="1.0" encoding="UTF-8" standalone="no"?>
<svg xmlns:xlink="http://www.w3.org/1999/xlink" height="46.35px" width="41.5px" xmlns="http://www.w3.org/2000/svg">
  <g transform="matrix(1.0, 0.0, 0.0, 1.0, 20.75, 23.15)">
    <path d="M7.55 -22.35 L10.15 -20.5 Q13.65 -8.25 10.15 -6.25 8.8 -5.6 8.05 -6.9 7.5 -8.35 8.1 -9.45 8.9 -8.85 9.35 -9.0 11.1 -10.0 9.5 -11.75 7.65 -12.7 6.65 -11.05 4.65 -7.75 6.45 -5.2 8.2 -2.65 10.6 -3.15 14.05 -3.9 14.75 -10.25 15.25 -6.55 15.35 -2.6 L15.35 -0.6 Q15.6 4.1 17.45 9.85 L20.75 21.3 Q18.15 22.6 13.95 22.5 16.4 16.85 16.15 12.0 15.75 6.15 12.35 2.05 11.05 0.55 9.55 -0.4 7.3 -1.95 4.55 -1.9 1.35 -1.95 -1.15 0.15 L-2.95 2.05 Q-6.0 6.15 -5.85 12.0 -5.75 18.0 -2.35 22.25 L-2.45 23.15 Q-13.2 22.95 -20.75 21.45 -20.2 18.25 -19.5 16.6 L-16.8 9.45 Q-15.7 5.9 -16.2 2.35 -18.15 -3.05 -18.8 -7.4 -19.65 -12.45 -18.7 -16.15 -17.15 -15.9 -15.35 -14.8 -11.85 -12.2 -8.55 -5.7 -5.9 -2.0 -0.8 -2.15 3.35 -2.65 3.45 -7.35 3.15 -11.8 -0.15 -12.25 -3.5 -12.75 -4.3 -10.55 -5.1 -8.4 -3.45 -8.05 -1.8 -7.75 -1.6 -9.6 -0.35 -9.85 0.25 -9.05 1.65 -6.4 -0.45 -5.25 -3.4 -4.2 -6.2 -7.95 -10.45 -16.4 -14.7 -18.5 L-17.55 -19.2 Q-16.4 -21.35 -14.45 -22.85 L-13.8 -23.15 Q-14.25 -21.85 -9.3 -18.2 -4.35 -14.6 1.6 -14.9 7.5 -15.2 7.55 -22.35 M10.0 22.8 L3.05 23.2 Q1.35 22.0 0.05 20.35 -2.5 17.15 -2.65 12.65 -2.75 8.2 -0.5 5.1 1.8 2.0 5.15 2.0 8.5 2.0 11.0 5.1 13.55 8.2 13.85 12.65 14.1 17.15 11.8 20.35 L10.0 22.8" fill="#7a5f41" fill-rule="evenodd" stroke="none"/>
  </g>
</svg>
