<?xml version="1.0" encoding="UTF-8" standalone="no"?>
<svg xmlns:xlink="http://www.w3.org/1999/xlink" height="44.85px" width="38.9px" xmlns="http://www.w3.org/2000/svg">
  <g transform="matrix(1.0, 0.0, 0.0, 1.0, 19.45, 22.45)">
    <path d="M12.75 -10.9 L13.5 -7.65 Q-0.25 -4.25 -18.55 -7.5 -18.65 -9.3 -18.4 -10.9 -0.8 -7.8 12.75 -10.9 M-1.0 -17.6 Q4.2 -17.3 3.45 -21.8 L6.55 -19.85 Q6.5 -14.05 -0.15 -14.2 -6.1 -14.4 -12.5 -20.6 L-9.85 -22.45 Q-6.2 -17.95 -1.0 -17.6 M14.6 -1.75 L15.05 1.75 Q1.5 4.9 -16.6 2.5 L-17.4 -0.9 -17.5 -1.25 Q0.8 1.35 14.6 -1.75 M18.4 16.65 L19.45 19.85 Q3.55 24.2 -19.45 21.2 L-18.3 17.85 Q3.1 20.5 18.4 16.65 M15.95 7.65 L16.85 11.1 Q2.8 14.15 -16.4 12.1 -16.1 10.4 -16.05 8.5 2.25 10.4 15.95 7.65" fill="#dbee3e" fill-rule="evenodd" stroke="none"/>
  </g>
</svg>
