<?xml version="1.0" encoding="UTF-8" standalone="no"?>
<svg xmlns:xlink="http://www.w3.org/1999/xlink" height="14.95px" width="12.1px" xmlns="http://www.w3.org/2000/svg">
  <g transform="matrix(1.0, 0.0, 0.0, 1.0, -4.05, -5.25)">
    <path d="M7.8 7.65 L7.25 9.8 6.55 12.75 6.25 14.45 Q6.0 16.2 6.25 16.95 6.5 17.8 7.15 16.75 L8.05 14.65 8.95 12.05 9.0 11.85 8.45 10.0 7.95 8.2 7.8 7.65 M11.05 10.4 L9.2 7.8 10.0 10.25 10.45 11.6 12.0 15.15 12.3 15.6 Q13.05 16.8 13.7 16.65 14.95 16.25 11.65 11.25 L11.05 10.4 M13.3 10.8 L14.7 12.95 Q15.95 15.2 16.15 17.15 L16.15 17.35 Q15.85 19.1 14.4 19.55 13.15 20.0 11.9 18.25 L10.6 15.95 10.15 14.9 9.8 14.05 9.6 14.85 9.1 16.3 7.95 18.7 Q7.0 20.2 6.0 20.2 4.75 20.15 4.3 18.9 4.1 18.3 4.05 17.45 L4.05 16.6 4.35 14.2 4.6 13.3 5.8 9.55 6.7 7.45 6.95 6.8 Q7.5 5.5 7.85 5.25 L8.05 5.25 8.25 5.25 8.35 5.25 9.8 6.7 13.25 10.75 13.3 10.8" fill="#ffffff" fill-opacity="0.15686275" fill-rule="evenodd" stroke="none"/>
  </g>
</svg>
