<?xml version="1.0" encoding="UTF-8" standalone="no"?>
<svg xmlns:xlink="http://www.w3.org/1999/xlink" height="52.15px" width="43.1px" xmlns="http://www.w3.org/2000/svg">
  <g transform="matrix(1.0, 0.0, 0.0, 1.0, 21.55, 26.1)">
    <path d="M-10.0 -24.5 L-12.9 -25.35 Q-14.95 -24.35 -15.05 -21.1 -11.7 -17.45 2.05 -18.0 L5.6 -18.7 Q7.85 -19.55 8.25 -21.1 L8.55 -20.85 Q8.65 -23.3 7.5 -25.05 5.65 -25.25 3.0 -23.5 0.95 -22.8 -1.3 -22.75 L-5.7 -23.15 -7.6 -23.65 -10.0 -24.5 M2.65 -7.55 Q6.4 -11.35 9.35 -10.7 10.85 -10.6 12.2 -9.2 15.65 -5.8 13.0 -0.25 10.4 6.05 3.65 10.65 -11.15 0.95 -9.85 -5.25 -9.55 -7.3 -7.5 -9.1 -3.0 -12.45 2.65 -7.55 M-15.05 -21.1 Q-20.7 -14.6 -16.65 -0.45 -18.8 10.55 -18.15 12.3 -21.75 17.5 -20.45 23.35 -1.75 26.95 19.65 23.85 22.05 21.1 19.35 14.85 19.2 6.9 17.0 2.85 18.35 -12.25 8.55 -20.85" fill="none" stroke="#000000" stroke-linecap="round" stroke-linejoin="round" stroke-width="1.5"/>
    <path d="M5.6 -18.7 Q6.15 -20.95 4.6 -23.25 M-5.7 -23.15 Q-6.45 -20.75 -6.2 -19.15 M-18.15 12.3 Q-16.6 13.8 -13.65 14.55 M-10.0 -24.5 Q-11.4 -22.15 -11.45 -20.15 M17.0 2.85 Q16.3 6.05 15.15 7.35 M18.05 15.85 Q13.95 17.9 0.85 18.4 M-0.2 -22.5 Q0.4 -20.3 0.05 -18.85" fill="none" stroke="#000000" stroke-linecap="round" stroke-linejoin="round" stroke-opacity="0.54901963" stroke-width="1.2000000000000002"/>
  </g>
</svg>
