<?xml version="1.0" encoding="UTF-8" standalone="no"?>
<svg xmlns:xlink="http://www.w3.org/1999/xlink" height="48.25px" width="41.05px" xmlns="http://www.w3.org/2000/svg">
  <g transform="matrix(1.0, 0.0, 0.0, 1.0, 20.5, 24.15)">
    <path d="M4.65 -19.35 L3.95 -18.65 Q1.0 -15.3 1.65 -11.6 L10.15 -12.15 10.55 -12.45 11.45 -13.45 11.6 -13.7 12.05 -14.55 Q12.25 -15.45 11.15 -17.45 10.0 -19.45 6.65 -21.25 4.5 -22.45 2.5 -21.6 L2.3 -21.45 Q1.6 -20.9 2.45 -19.05 3.6 -19.25 3.95 -18.65 M12.05 -14.55 L13.15 -12.9 Q15.35 -9.45 15.95 -7.95 18.2 -2.4 17.05 6.6 L16.75 8.65 Q17.75 9.75 18.25 11.05 19.15 13.2 18.85 15.9 L18.9 15.95 Q20.25 18.8 18.85 21.2 14.25 23.4 5.55 22.45 L-4.85 23.1 Q-14.05 22.9 -18.65 20.6 -20.6 17.95 -18.15 14.85 L-18.4 10.5 -18.35 7.8 -18.0 5.05 Q-19.2 -3.25 -18.9 -6.9 -18.65 -10.55 -17.15 -14.55 -19.05 -17.25 -16.65 -21.25 L-16.4 -21.45 Q-13.95 -23.6 -9.6 -23.05 L-9.3 -20.55 -10.9 -19.9 Q-3.55 -17.3 -1.8 -15.6 -0.2 -14.15 1.65 -11.6 -11.55 -10.9 -16.75 -14.3 L-17.15 -14.55 M5.65 17.55 Q9.75 18.0 13.85 17.55 17.35 16.9 18.9 15.95 M-18.15 14.85 Q-16.35 16.7 -7.85 17.35 L3.1 17.7 5.65 17.55 M-10.9 -19.9 L-11.7 -20.35" fill="none" stroke="#000000" stroke-linecap="round" stroke-linejoin="round" stroke-width="2.0"/>
    <path d="M3.2 -2.05 L4.8 -2.35 5.9 -2.7 Q7.6 -3.3 8.6 -4.2 8.85 -5.65 8.35 -6.8 L8.35 -6.75 Q6.25 -9.85 4.05 -10.9 2.55 -11.6 1.05 -11.4 L-0.1 -10.8 Q-0.75 -10.25 -0.6 -9.55 -0.5 -3.95 3.2 -2.05" fill="none" stroke="#000000" stroke-linecap="round" stroke-linejoin="round" stroke-width="1.2000000000000002"/>
    <path d="M8.35 -6.75 Q6.9 -5.2 4.0 -4.25 L3.2 -2.05 M12.75 6.45 Q13.6 13.15 17.1 14.8 M-5.45 6.35 Q-5.95 13.75 -9.65 15.4 M-0.6 -9.55 Q1.25 -6.55 4.0 -4.25" fill="none" stroke="#000000" stroke-linecap="round" stroke-linejoin="round" stroke-opacity="0.54901963" stroke-width="1.0"/>
    <path d="M4.8 -2.35 Q5.95 0.7 5.95 8.5 L5.95 10.5 5.95 10.55 5.85 13.65 5.65 17.55 Q6.65 19.8 5.55 22.45" fill="none" stroke="#000000" stroke-linecap="round" stroke-linejoin="round" stroke-width="1.0"/>
  </g>
</svg>
