<?xml version="1.0" encoding="UTF-8" standalone="no"?>
<svg xmlns:xlink="http://www.w3.org/1999/xlink" height="54.3px" width="41.65px" xmlns="http://www.w3.org/2000/svg">
  <g transform="matrix(1.0, 0.0, 0.0, 1.0, 1.0, 1.0)">
    <path d="M18.25 1.45 Q20.95 1.65 22.55 0.0 L23.6 3.55 27.55 6.2 Q29.5 7.45 31.75 9.95 34.0 12.4 35.1 16.6 36.4 21.45 37.15 26.8 37.5 29.85 37.1 33.3 L39.65 49.2 36.15 50.3 Q25.9 53.0 14.6 52.1 L10.75 51.75 Q5.35 51.05 0.0 49.55 1.2 45.45 2.65 41.6 4.25 36.55 4.3 32.25 1.55 25.5 1.35 18.5 1.15 11.45 3.65 8.1 6.2 4.7 9.7 3.3 L9.7 0.45 Q14.8 1.95 18.25 1.45" fill="none" stroke="#000000" stroke-linecap="round" stroke-linejoin="round" stroke-width="2.0"/>
    <path d="M18.25 1.45 L19.35 8.2 21.0 12.85 21.25 12.8 24.2 12.95 Q25.45 13.35 25.45 13.9 25.45 14.45 24.2 14.9 L21.9 15.55 22.6 17.65 22.65 17.65 25.6 17.8 Q26.85 18.2 26.85 18.75 26.85 19.3 25.6 19.75 L23.4 20.35 24.95 27.5 37.1 33.3 M21.9 15.55 L21.25 15.6 18.25 15.35 Q17.0 15.05 17.0 14.5 17.0 13.95 18.25 13.4 19.4 12.95 21.0 12.85 M23.4 20.35 L22.65 20.45 19.65 20.2 Q18.4 19.9 18.4 19.35 18.4 18.8 19.65 18.25 20.85 17.75 22.6 17.65 M35.15 42.35 L35.1 41.4 33.9 33.0 Q27.4 34.55 15.55 33.5 L15.05 44.0 Q33.8 44.6 35.15 42.35 L36.15 50.3 M10.75 51.75 L11.45 42.7 Q10.75 43.7 2.65 41.6 M11.45 42.7 L12.15 32.65 4.3 32.25 M12.15 32.65 L12.9 32.5 Q18.95 31.2 24.95 27.5 M15.05 44.0 L14.6 52.1" fill="none" stroke="#000000" stroke-linecap="round" stroke-linejoin="round" stroke-width="1.0"/>
  </g>
</svg>
