<?xml version="1.0" encoding="UTF-8" standalone="no"?>
<svg xmlns:xlink="http://www.w3.org/1999/xlink" height="52.6px" width="42.15px" xmlns="http://www.w3.org/2000/svg">
  <g transform="matrix(1.0, 0.0, 0.0, 1.0, 21.05, 26.3)">
    <path d="M-3.75 -0.55 L-3.75 3.25 Q-2.55 4.9 -1.1 3.25 L-1.15 -0.55 Q-2.75 0.0 -3.75 -0.55 M11.7 -20.75 L12.15 -20.15 10.8 -17.5 Q14.65 -11.65 14.45 -1.35 14.8 5.95 18.1 11.8 21.35 17.6 21.05 24.35 1.25 27.85 -20.3 25.1 -22.45 20.2 -18.6 11.0 L-17.0 7.9 Q-16.75 2.75 -18.3 -4.0 -20.4 -12.9 -17.0 -18.8 -18.0 -20.0 -17.4 -21.85 -16.85 -23.7 -13.65 -23.45 -13.0 -25.9 -10.45 -26.3 L-6.7 -24.8 Q-2.55 -23.15 1.5 -16.45 2.45 -24.55 3.9 -25.2 5.25 -26.1 7.35 -25.2 7.8 -23.55 9.5 -22.65 11.2 -21.8 11.7 -20.75 M6.4 -1.05 L6.65 2.75 Q7.9 4.4 9.3 2.75 L9.0 -1.05 Q7.45 -0.5 6.4 -1.05" fill="#5c5560" fill-rule="evenodd" stroke="none"/>
  </g>
</svg>
