<?xml version="1.0" encoding="UTF-8" standalone="no"?>
<svg xmlns:xlink="http://www.w3.org/1999/xlink" height="52.35px" width="43.05px" xmlns="http://www.w3.org/2000/svg">
  <g transform="matrix(1.0, 0.0, 0.0, 1.0, 21.5, 26.15)">
    <path d="M-0.95 -18.75 L0.8 -18.55 2.25 -18.9 2.6 -19.05 Q4.95 -20.35 4.3 -24.45 9.0 -22.35 11.8 -17.0 14.4 -8.4 15.15 1.65 17.55 12.1 20.55 19.95 17.4 23.15 6.85 24.75 L6.45 24.8 Q6.0 24.9 6.45 24.9 L3.05 25.2 2.35 25.2 1.95 25.2 1.85 25.2 Q-15.6 24.8 -20.5 20.15 L-16.65 8.75 Q-15.5 3.4 -17.6 -4.4 -22.0 -20.05 -10.75 -25.15 -6.8 -19.75 -1.4 -18.8 L-1.3 -18.8 -0.95 -18.75" fill="none" stroke="#000000" stroke-linecap="round" stroke-linejoin="round" stroke-width="2.0"/>
    <path d="M6.45 24.8 L6.45 24.9 M-0.95 -18.75 L-0.5 -19.05 M2.6 -19.05 Q6.1 1.8 6.85 24.75 M-1.3 -18.8 Q2.05 -2.4 1.95 25.2" fill="none" stroke="#000000" stroke-linecap="round" stroke-linejoin="round" stroke-width="1.0"/>
  </g>
</svg>
