<?xml version="1.0" encoding="UTF-8" standalone="no"?>
<svg xmlns:xlink="http://www.w3.org/1999/xlink" height="50.3px" width="38.8px" xmlns="http://www.w3.org/2000/svg">
  <g transform="matrix(1.0, 0.0, 0.0, 1.0, 0.5, 25.15)">
    <path d="M9.6 -24.65 Q8.15 -21.3 7.75 -15.8 L15.05 -15.55 15.2 -20.05 M0.6 -16.25 L7.75 -15.8 Q7.55 -13.0 7.65 -9.6 L14.85 -9.35 15.05 -15.55 20.75 -15.65 20.6 -17.95 M1.95 -4.1 L7.95 -3.75 7.65 -9.6 0.6 -10.05 M7.95 -3.75 L14.75 -3.55 14.85 -9.35 Q18.25 -9.3 21.15 -9.4 L20.75 -15.65 26.65 -16.15 Q25.35 -20.05 23.6 -22.65 M29.1 -4.15 L28.2 -10.0 21.15 -9.4 21.55 -3.6 29.1 -4.15 29.4 -4.2 30.2 -4.3 35.4 -5.4 M29.1 -4.15 L29.15 -3.5 29.55 1.15 29.7 2.15 34.5 1.2 M31.2 -17.35 L26.65 -16.15 28.2 -10.0 Q32.8 -10.5 34.75 -12.35 M14.75 -3.55 Q18.4 -3.5 21.55 -3.6 L21.95 2.75 29.7 2.15 30.7 8.85 Q33.85 8.35 36.05 7.5 M21.95 2.75 L22.35 9.6 30.7 8.85 31.45 15.35 Q34.95 14.55 37.8 13.35 M32.1 22.6 L31.45 15.35 22.8 16.5 23.3 24.65 M22.35 9.6 L22.8 16.5 Q19.0 16.75 14.65 16.65 L14.7 23.95 M14.65 9.55 L14.65 2.8 8.35 2.6 7.85 9.25 14.65 9.55 22.35 9.6 M7.95 -3.75 L8.35 0.25 8.35 2.6 2.95 2.25 M2.25 8.8 L7.85 9.25 7.45 12.4 6.95 16.15 14.65 16.65 14.65 9.55 M0.0 15.35 L6.95 16.15 6.3 22.75 6.25 23.3 M14.75 -3.55 L14.65 2.8 21.95 2.75" fill="none" stroke="#000000" stroke-linecap="round" stroke-linejoin="round" stroke-width="1.0"/>
  </g>
</svg>
