<?xml version="1.0" encoding="UTF-8" standalone="no"?>
<svg xmlns:xlink="http://www.w3.org/1999/xlink" height="52.35px" width="43.05px" xmlns="http://www.w3.org/2000/svg">
  <g transform="matrix(1.0, 0.0, 0.0, 1.0, 1.0, 26.15)">
    <path d="M24.8 -24.45 Q29.5 -22.35 32.3 -17.0 L33.5 -12.5 Q34.45 -8.45 35.05 -4.1 L35.65 1.65 35.95 2.95 Q38.25 12.6 41.05 19.95 L40.15 20.75 Q35.9 23.85 23.55 25.2 5.15 25.05 0.0 20.15 L3.85 8.75 Q4.9 3.9 3.25 -3.0 L2.9 -4.4 Q1.85 -8.15 1.7 -11.3 1.2 -21.25 9.75 -25.15 L11.0 -24.25 Q18.55 -20.15 24.85 -24.2 L24.8 -24.45" fill="none" stroke="#000000" stroke-linecap="round" stroke-linejoin="round" stroke-width="2.0"/>
    <path d="M9.55 -22.35 Q13.25 -20.0 18.35 -19.95 M20.2 -19.95 Q23.4 -20.1 25.35 -21.85" fill="none" stroke="#000000" stroke-linecap="round" stroke-linejoin="round" stroke-opacity="0.6862745" stroke-width="1.0"/>
    <path d="M3.25 -3.0 Q23.45 0.35 35.05 -4.1 M1.7 -11.3 Q22.5 -9.3 33.5 -12.5" fill="none" stroke="#000000" stroke-linecap="round" stroke-linejoin="round" stroke-opacity="0.7490196" stroke-width="1.0"/>
  </g>
</svg>
