<?xml version="1.0" encoding="UTF-8" standalone="no"?>
<svg xmlns:xlink="http://www.w3.org/1999/xlink" height="63.05px" width="44.85px" xmlns="http://www.w3.org/2000/svg">
  <g transform="matrix(1.0, 0.0, 0.0, 1.0, 22.4, 31.5)">
    <path d="M13.8 -18.8 L14.7 -12.9 15.75 -8.25 16.1 -6.15 20.7 5.7 21.2 7.05 Q22.9 18.5 22.3 29.15 L6.0 31.45 Q-7.55 32.0 -22.1 29.25 -23.35 18.3 -19.5 7.05 L-19.1 5.95 -18.2 3.65 Q-15.85 -1.45 -17.05 -6.15 -19.5 -12.9 -19.45 -18.2 L-19.3 -21.4 -18.7 -24.2 Q-17.2 -27.95 -12.8 -30.55 L-11.05 -31.5 Q-6.9 -28.7 0.15 -28.7 4.3 -29.5 4.55 -30.8 L6.5 -29.5 Q10.25 -26.7 11.75 -23.95 13.2 -21.2 13.8 -18.8 M7.5 -0.75 L7.5 -0.65 7.6 -0.75 7.5 -0.75" fill="#977a63" fill-rule="evenodd" stroke="none"/>
  </g>
</svg>
