<?xml version="1.0" encoding="UTF-8" standalone="no"?>
<svg xmlns:xlink="http://www.w3.org/1999/xlink" height="44.1px" width="10.5px" xmlns="http://www.w3.org/2000/svg">
  <g transform="matrix(1.0, 0.0, 0.0, 1.0, 5.25, 22.05)">
    <path d="M3.1 -17.1 Q3.1 -16.45 2.65 -15.95 2.2 -15.5 1.5 -15.5 0.85 -15.5 0.4 -15.95 -0.1 -16.45 -0.1 -17.1 -0.1 -17.75 0.4 -18.2 0.85 -18.7 1.5 -18.7 2.2 -18.7 2.65 -18.2 3.1 -17.75 3.1 -17.1 M4.15 -7.35 Q4.15 -6.7 3.65 -6.2 3.2 -5.75 2.55 -5.75 1.85 -5.75 1.4 -6.2 0.95 -6.7 0.95 -7.35 0.95 -8.0 1.4 -8.5 1.85 -8.95 2.55 -8.95 3.2 -8.95 3.65 -8.5 4.15 -8.0 4.15 -7.35 M4.9 2.75 L4.45 3.85 Q3.95 4.35 3.3 4.35 2.65 4.35 2.2 3.85 1.7 3.4 1.7 2.75 1.7 2.05 2.2 1.6 2.65 1.15 3.3 1.15 3.95 1.15 4.45 1.6 4.9 2.05 4.9 2.75 M5.25 13.7 Q5.25 14.4 4.8 14.85 4.35 15.3 3.65 15.3 3.0 15.3 2.55 14.85 2.05 14.4 2.05 13.7 2.05 13.05 2.55 12.6 3.0 12.1 3.65 12.1 4.35 12.1 4.8 12.6 L5.25 13.7 M-5.25 -21.85 L-3.95 -21.7 -2.4 -22.05 Q1.0 -1.5 0.9 21.5 L-0.3 19.9 -1.85 22.05 Q-2.05 -0.1 -5.25 -21.85" fill="#8f8a82" fill-rule="evenodd" stroke="none"/>
  </g>
</svg>
