<?xml version="1.0" encoding="UTF-8" standalone="no"?>
<svg xmlns:xlink="http://www.w3.org/1999/xlink" height="13.25px" width="17.9px" xmlns="http://www.w3.org/2000/svg">
  <g transform="matrix(1.0, 0.0, 0.0, 1.0, 8.95, 6.45)">
    <path d="M2.9 -3.55 Q3.45 -4.1 4.2 -4.1 4.95 -4.1 5.5 -3.55 6.05 -3.0 6.05 -2.25 6.05 -1.5 5.5 -0.95 4.95 -0.35 4.2 -0.35 3.45 -0.35 2.9 -0.95 2.35 -1.5 2.35 -2.25 2.35 -3.0 2.9 -3.55 M-7.2 1.15 Q-3.0 -0.6 0.75 0.85 4.1 2.25 7.1 1.15 L7.1 5.0 -7.2 5.0 -7.2 1.15 M-8.95 -6.45 L8.95 -6.45 8.95 6.8 -8.95 6.8 -8.95 -6.45 M-7.85 -5.1 L-7.85 5.6 7.85 5.6 7.85 -5.1 -7.85 -5.1" fill="#d1d0ff" fill-rule="evenodd" stroke="none"/>
  </g>
</svg>
