<?xml version="1.0" encoding="UTF-8" standalone="no"?>
<svg xmlns:xlink="http://www.w3.org/1999/xlink" height="13.8px" width="16.6px" xmlns="http://www.w3.org/2000/svg">
  <g transform="matrix(1.0, 0.0, 0.0, 1.0, 8.45, 7.2)">
    <path d="M0.75 0.3 L0.45 0.95 0.2 1.15 0.2 2.0 -0.6 2.0 -0.6 1.15 -0.85 0.95 -1.1 0.3 -0.85 -0.35 -0.2 -0.6 0.45 -0.35 0.75 0.3" fill="#a7bbd7" fill-rule="evenodd" stroke="none"/>
    <path d="M-7.7 -3.0 L-7.7 -4.65 -5.95 -6.45 5.6 -6.45 7.4 -4.6 7.4 -3.0 7.4 -1.2 7.4 5.85 -7.7 5.85 -7.7 -1.2 -7.7 -3.0 7.4 -3.0 M-7.7 -1.2 L-2.95 -1.2 2.65 -1.2 7.4 -1.2 M2.65 -1.2 L2.65 1.4 1.25 2.85 -1.55 2.85 -2.95 1.35 -2.95 -1.2" fill="none" stroke="#a7bbd7" stroke-linecap="round" stroke-linejoin="round" stroke-width="1.5"/>
  </g>
</svg>
