<?xml version="1.0" encoding="UTF-8" standalone="no"?>
<svg xmlns:xlink="http://www.w3.org/1999/xlink" height="15.4px" width="16.4px" xmlns="http://www.w3.org/2000/svg">
  <g transform="matrix(1.0, 0.0, 0.0, 1.0, 8.2, 7.75)">
    <path d="M-1.15 -2.55 L-1.15 -4.35 -4.15 -4.35 -3.9 -2.55 -1.15 -2.55 M-3.45 -0.05 L-1.15 -0.05 -1.15 -1.75 -3.7 -1.75 -3.45 -0.05 M8.05 -5.7 L8.2 -5.0 7.3 0.95 Q7.2 1.7 6.55 1.7 L-3.2 1.7 -3.0 2.55 5.7 2.55 6.25 2.8 Q6.55 3.0 6.55 3.35 L6.25 3.9 5.7 4.2 -3.75 4.2 -4.05 4.15 -4.55 3.7 -4.55 3.5 -6.2 -5.95 -7.35 -5.95 -7.9 -6.25 -8.2 -6.8 -7.9 -7.5 -7.35 -7.75 -5.4 -7.75 Q-4.75 -7.75 -4.65 -7.0 L-4.45 -5.95 7.35 -5.95 8.05 -5.7 M6.35 -4.35 L3.1 -4.35 3.1 -2.55 6.05 -2.55 6.35 -4.35 M2.25 -0.05 L2.25 -1.75 -0.35 -1.75 -0.35 -0.05 2.25 -0.05 M3.1 -0.05 L5.75 -0.05 5.95 -1.75 3.1 -1.75 3.1 -0.05 M2.25 -2.55 L2.25 -4.35 -0.35 -4.35 -0.35 -2.55 2.25 -2.55 M-1.15 6.35 Q-1.15 6.85 -1.55 7.2 -1.9 7.65 -2.5 7.65 -3.0 7.65 -3.4 7.2 -3.75 6.85 -3.75 6.35 -3.75 5.8 -3.4 5.4 -3.0 5.05 -2.5 5.05 -1.95 5.05 -1.55 5.4 -1.15 5.8 -1.15 6.35 M6.55 6.35 Q6.55 6.85 6.15 7.2 5.75 7.65 5.25 7.65 4.65 7.65 4.25 7.2 3.9 6.85 3.9 6.35 3.9 5.8 4.25 5.4 4.75 5.05 5.25 5.05 5.75 5.05 6.15 5.4 6.55 5.8 6.55 6.35" fill="#d3dfff" fill-rule="evenodd" stroke="none"/>
  </g>
</svg>
