<?xml version="1.0" encoding="UTF-8" standalone="no"?>
<svg xmlns:xlink="http://www.w3.org/1999/xlink" height="17.35px" width="11.35px" xmlns="http://www.w3.org/2000/svg">
  <g transform="matrix(1.0, 0.0, 0.0, 1.0, 4.75, 8.3)">
    <path d="M-2.05 -0.25 Q-3.3 -0.75 -3.95 -1.7 -4.65 -2.55 -4.75 -3.65 -4.85 -5.55 -3.6 -6.85 -2.4 -8.15 0.0 -8.3 2.4 -8.4 3.85 -7.2 5.3 -6.05 5.4 -4.15 5.5 -2.95 4.95 -2.0 4.45 -1.05 3.4 -0.5 4.85 -0.05 5.6 1.0 6.45 2.1 6.55 3.5 6.75 5.85 5.4 7.4 4.0 8.9 1.5 9.05 -0.75 9.15 -2.35 8.0 -4.3 6.65 -4.45 4.15 -4.65 2.75 -4.0 1.6 -3.4 0.45 -2.05 -0.25 M-1.6 -3.6 Q-1.55 -2.65 -0.95 -2.05 -0.4 -1.6 0.5 -1.65 1.45 -1.65 1.95 -2.2 2.5 -2.8 2.4 -3.75 L1.75 -5.25 0.25 -5.7 Q-0.65 -5.65 -1.2 -5.1 -1.7 -4.5 -1.6 -3.6 M-1.35 3.65 Q-1.25 5.0 -0.5 5.75 0.25 6.45 1.25 6.4 2.25 6.4 2.85 5.65 3.5 4.85 3.4 3.5 3.25 2.3 2.55 1.65 1.85 0.95 0.8 0.95 -0.4 1.0 -0.9 1.85 -1.4 2.7 -1.35 3.65" fill="#cdfcff" fill-rule="evenodd" stroke="none"/>
  </g>
</svg>
