<?xml version="1.0" encoding="UTF-8" standalone="no"?>
<svg xmlns:xlink="http://www.w3.org/1999/xlink" height="46.05px" width="40.45px" xmlns="http://www.w3.org/2000/svg">
  <g transform="matrix(1.0, 0.0, 0.0, 1.0, 20.25, 23.05)">
    <path d="M17.75 9.65 Q13.55 -18.25 4.85 -21.5 4.15 -20.7 4.25 -18.5 L6.65 -13.25 Q10.45 -2.75 11.75 14.75 L12.1 20.9 Q17.95 17.65 19.2 15.7 19.1 13.1 17.75 9.65 M4.25 -18.5 Q2.2 -16.35 -2.45 -15.1 L-4.85 -14.55 Q-6.3 -12.5 -6.15 -11.25 -4.45 -9.15 -1.7 -9.35 3.8 -10.45 6.65 -13.25 M-1.7 -9.35 Q-0.65 0.65 -0.9 16.25 L-0.9 22.0 Q-14.0 20.95 -18.35 16.5 -18.55 13.2 -17.65 11.4 -17.0 5.25 -19.25 -5.85 -19.6 -19.65 -9.2 -22.05 -6.7 -20.6 -2.5 -15.2 L-2.45 -15.1" fill="none" stroke="#000000" stroke-linecap="round" stroke-linejoin="round" stroke-width="2.0"/>
    <path d="M11.75 14.75 Q15.65 14.45 17.75 9.65 M-0.9 16.25 Q-12.75 15.1 -17.65 11.4" fill="none" stroke="#000000" stroke-linecap="round" stroke-linejoin="round" stroke-width="1.0"/>
  </g>
</svg>
