<?xml version="1.0" encoding="UTF-8" standalone="no"?>
<svg xmlns:xlink="http://www.w3.org/1999/xlink" height="36.1px" width="36.1px" xmlns="http://www.w3.org/2000/svg">
  <g transform="matrix(1.0, 0.0, 0.0, 1.0, 18.05, 18.05)">
    <path d="M16.85 3.95 L17.15 7.1 15.45 13.6 Q13.4 11.75 11.3 7.85 8.85 -7.8 5.75 -14.6 4.8 -16.7 5.5 -17.5 L6.1 -17.25 13.95 -8.25 16.1 -6.15 Q19.15 -1.35 17.4 2.8 L16.85 3.95 M-17.95 -1.85 Q-18.95 -15.65 -8.55 -18.05 -6.05 -16.6 -2.95 -11.35 -1.5 -8.85 -0.7 -4.75 0.05 -0.7 0.45 6.95 -2.6 14.3 -6.65 18.05 -12.05 13.35 -16.5 6.8 -17.65 2.75 -17.95 -1.85" fill="#303643" fill-rule="evenodd" stroke="none"/>
  </g>
</svg>
