<?xml version="1.0" encoding="UTF-8" standalone="no"?>
<svg xmlns:xlink="http://www.w3.org/1999/xlink" height="36.7px" width="36.65px" xmlns="http://www.w3.org/2000/svg">
  <g transform="matrix(1.0, 0.0, 0.0, 1.0, 18.35, 18.35)">
    <path d="M17.1 3.65 L17.5 8.7 17.9 11.65 Q16.4 15.0 12.0 17.35 10.75 0.75 7.85 -8.45 6.65 -12.25 5.15 -14.8 5.05 -17.0 5.75 -17.8 L6.35 -17.55 14.2 -8.55 16.35 -6.45 Q19.4 -1.65 17.65 2.5 L17.1 3.65 M-16.45 12.1 Q-16.45 7.15 -18.35 -2.15 -18.7 -15.95 -8.3 -18.35 -5.8 -16.9 -2.7 -11.65 L-2.0 -10.45 -5.15 -9.6 -7.5 -5.55 -3.55 -2.95 Q-1.65 -2.85 0.25 -3.55 1.1 1.7 -0.05 6.65 L0.1 18.35 Q-10.95 16.7 -16.45 12.1" fill="#303643" fill-rule="evenodd" stroke="none"/>
  </g>
</svg>
