<?xml version="1.0" encoding="UTF-8" standalone="no"?>
<svg xmlns:xlink="http://www.w3.org/1999/xlink" height="40.1px" width="37.75px" xmlns="http://www.w3.org/2000/svg">
  <g transform="matrix(1.0, 0.0, 0.0, 1.0, 18.9, 20.05)">
    <path d="M6.45 11.55 Q6.45 10.75 5.9 10.2 5.35 9.6 4.55 9.6 3.75 9.6 3.2 10.2 2.65 10.75 2.65 11.55 2.65 12.3 3.2 12.9 3.75 13.45 4.55 13.45 5.35 13.45 5.9 12.9 6.45 12.3 6.45 11.55 M5.9 5.25 Q5.9 4.45 5.35 3.9 4.75 3.3 4.0 3.3 3.2 3.3 2.65 3.9 2.1 4.45 2.1 5.25 2.1 6.0 2.65 6.6 3.2 7.15 4.0 7.15 4.75 7.15 5.35 6.6 5.9 6.0 5.9 5.25 M4.5 20.05 L1.95 20.05 Q-12.85 19.8 -17.95 16.75 L-17.05 12.15 Q-16.65 7.25 -18.9 -3.85 -19.25 -17.65 -8.85 -20.05 -5.05 -12.15 4.6 -3.3 6.1 -10.9 5.2 -19.5 15.65 -15.6 16.95 7.0 17.45 11.85 18.85 17.0 16.75 18.4 9.0 19.5 L4.5 20.05" fill="#303643" fill-rule="evenodd" stroke="none"/>
  </g>
</svg>
