<?xml version="1.0" encoding="UTF-8" standalone="no"?>
<svg xmlns:xlink="http://www.w3.org/1999/xlink" height="47.4px" width="52.1px" xmlns="http://www.w3.org/2000/svg">
  <g transform="matrix(1.0, 0.0, 0.0, 1.0, 26.3, 23.95)">
    <path d="M-13.35 -5.0 L-13.35 -5.05 -13.3 -5.05 -13.35 -5.0" fill="#ff5177" fill-rule="evenodd" stroke="none"/>
    <path d="M12.25 -14.5 L11.75 -18.15 M0.45 6.65 L6.35 6.5 Q8.9 5.7 9.9 4.05 M-13.35 -5.0 L-13.3 -5.05 -13.35 -5.05 -13.35 -5.0" fill="none" stroke="#000000" stroke-linecap="round" stroke-linejoin="round" stroke-width="1.2000000000000002"/>
    <path d="M12.5 -11.95 L12.25 -14.5 9.4 -17.35 7.85 -22.95 Q11.75 -21.45 14.25 -19.2 15.9 -17.1 16.5 -14.65 17.2 -12.05 16.95 -9.55 17.65 -9.05 18.3 -8.6 L20.75 -6.2 Q23.8 -1.45 22.05 2.75 L20.6 5.2 Q21.6 7.85 21.2 9.55 22.35 11.6 21.75 13.0 21.25 15.0 14.65 15.15 -7.95 15.7 -10.15 13.3 L-10.35 13.0 Q-11.2 11.8 -10.3 10.4 -11.65 9.15 -11.65 6.95 L-11.75 5.2 Q-18.75 6.55 -24.3 -1.55 -24.8 -5.2 -22.5 -8.9 -24.9 -10.95 -25.25 -12.6 -25.8 -15.25 -20.55 -19.85 -12.45 -23.1 -3.65 -22.45 L-3.65 -17.4 Q0.8 -14.0 4.05 -10.6 8.85 -5.6 11.05 -0.65 L11.5 -0.75 11.55 -0.75 Q14.45 -2.6 15.6 -5.05 L15.8 -5.55 Q16.7 -7.5 16.95 -9.55 M12.5 -11.95 Q12.9 -5.35 11.5 -0.75 M-13.3 -5.05 Q-13.15 -10.1 -10.65 -13.4 -7.55 -17.3 -4.65 -13.55 L0.15 -7.35 Q2.05 -4.85 5.4 -2.6 8.75 -0.4 11.05 -0.65 M20.6 5.2 L20.25 5.65 M-13.35 -5.0 Q-13.4 -0.5 -12.5 2.1 L-11.75 5.2 M-3.65 -17.4 Q-8.1 -19.3 -12.8 -18.5 M-22.5 -8.9 L-18.9 -6.3" fill="none" stroke="#000000" stroke-linecap="round" stroke-linejoin="round" stroke-width="2.0"/>
    <path d="M21.75 13.0 Q24.6 17.0 25.2 19.05 25.75 21.05 23.0 20.0 23.45 21.8 21.9 22.5 19.25 22.4 16.9 20.8 16.1 22.55 14.3 22.95 11.7 22.6 9.25 20.75 8.45 22.55 5.6 22.95 2.95 22.75 1.0 20.25 -0.9 21.85 -3.25 22.2 -5.3 21.85 -7.6 19.6 -11.25 21.05 -13.05 20.1 -12.75 17.25 -10.15 13.3 M4.05 -10.6 Q9.6 -8.95 12.5 -11.95" fill="none" stroke="#000000" stroke-linecap="round" stroke-linejoin="round" stroke-opacity="0.49803922" stroke-width="1.0"/>
  </g>
</svg>
