<?xml version="1.0" encoding="UTF-8" standalone="no"?>
<svg xmlns:xlink="http://www.w3.org/1999/xlink" height="34.9px" width="38.35px" xmlns="http://www.w3.org/2000/svg">
  <g transform="matrix(1.0, 0.0, 0.0, 1.0, 19.15, 17.45)">
    <path d="M15.65 7.5 Q18.5 11.5 19.1 13.55 19.65 15.55 16.9 14.5 17.35 16.3 15.8 17.0 13.15 16.9 10.8 15.3 10.0 17.05 8.2 17.45 5.6 17.1 3.15 15.25 2.35 17.05 -0.5 17.45 -3.15 17.25 -5.1 14.75 -7.0 16.35 -9.35 16.7 -11.4 16.35 -13.7 14.1 -17.35 15.55 -19.15 14.6 -18.85 11.75 -16.25 7.8 -14.05 10.2 8.55 9.65 15.15 9.5 15.65 7.5 M5.4 -6.25 L4.95 -6.15 Q2.75 -11.1 -2.05 -16.1 3.5 -14.45 6.4 -17.45 6.8 -10.85 5.4 -6.25" fill="#ffd56d" fill-opacity="0.7294118" fill-rule="evenodd" stroke="none"/>
  </g>
</svg>
