<?xml version="1.0" encoding="UTF-8" standalone="no"?>
<svg xmlns:xlink="http://www.w3.org/1999/xlink" height="51.3px" width="41.55px" xmlns="http://www.w3.org/2000/svg">
  <g transform="matrix(1.0, 0.0, 0.0, 1.0, 20.8, 25.65)">
    <path d="M8.85 25.6 L6.9 25.65 6.3 25.65 4.8 25.65 5.15 18.05 Q-0.05 9.2 -0.25 0.85 -2.1 -5.75 -6.9 -12.4 -10.05 -18.75 -11.0 -24.4 L-9.25 -25.65 -8.75 -23.75 -6.65 -18.7 Q-5.3 -16.05 -3.25 -13.2 L-3.2 -13.15 Q1.6 -6.45 2.5 -0.95 2.4 0.7 2.55 2.35 3.0 8.9 6.65 14.8 8.85 8.65 9.25 1.9 9.7 -7.55 6.55 -18.2 L4.75 -23.4 4.85 -23.4 Q6.3 -22.8 7.55 -21.65 L7.8 -21.45 Q15.4 -2.4 8.85 18.45 L8.85 25.6" fill="#3e7abd" fill-rule="evenodd" stroke="none"/>
    <path d="M7.8 -21.45 L9.15 -20.0 15.4 -13.05 16.2 -11.7 Q17.7 -8.65 17.25 -5.85 L16.7 -4.1 16.65 -3.95 16.0 -2.8 15.55 -2.1 15.55 -2.05 Q15.3 1.1 16.65 6.45 19.3 13.55 20.75 22.2 20.65 25.25 8.85 25.6 L8.85 18.45 Q15.4 -2.4 7.8 -21.45 M4.8 25.65 Q-15.65 25.7 -20.8 21.95 L-18.45 17.1 -18.25 16.75 Q-15.65 11.05 -15.85 4.65 L-18.1 -6.1 Q-20.45 -17.8 -12.8 -23.15 L-11.0 -24.4 Q-10.05 -18.75 -6.9 -12.4 -2.1 -5.75 -0.25 0.85 -0.05 9.2 5.15 18.05 L4.8 25.65" fill="#bd3a3a" fill-rule="evenodd" stroke="none"/>
  </g>
</svg>
