<?xml version="1.0" encoding="UTF-8" standalone="no"?>
<svg xmlns:xlink="http://www.w3.org/1999/xlink" height="51.3px" width="23.45px" xmlns="http://www.w3.org/2000/svg">
  <g transform="matrix(1.0, 0.0, 0.0, 1.0, 11.7, 25.65)">
    <path d="M6.2 25.65 L5.6 25.65 4.1 25.65 3.45 18.25 Q-0.75 9.2 -0.95 0.85 -2.8 -5.75 -7.6 -12.4 -11.75 -19.2 -11.7 -24.4 L-9.95 -25.65 -9.45 -23.75 -7.35 -18.7 Q-6.0 -16.05 -3.95 -13.2 L-3.9 -13.15 Q0.9 -6.45 1.8 -0.95 1.7 0.7 1.85 2.35 2.3 8.9 5.95 14.8 8.15 8.65 8.55 1.9 9.0 -7.55 5.85 -18.2 L4.05 -23.4 4.15 -23.4 6.85 -21.65 9.15 -16.7 Q11.3 -11.9 11.75 -0.8 11.8 9.0 8.15 18.45 L8.15 25.6 6.2 25.65" fill="#439ebd" fill-rule="evenodd" stroke="none"/>
  </g>
</svg>
