<?xml version="1.0" encoding="UTF-8" standalone="no"?>
<svg xmlns:xlink="http://www.w3.org/1999/xlink" height="53.95px" width="41.45px" xmlns="http://www.w3.org/2000/svg">
  <g transform="matrix(1.0, 0.0, 0.0, 1.0, 20.7, 26.95)">
    <path d="M-10.75 -26.95 L-7.8 -21.8 -2.2 -12.4 -2.15 -12.35 -1.15 -10.75 0.7 -7.55 3.2 -3.05 4.35 -11.7 Q5.0 -15.45 5.05 -20.75 L5.05 -20.85 5.05 -20.95 3.95 -26.65 6.65 -24.5 Q12.45 -21.4 13.55 -14.75 L15.7 -2.05 Q17.3 6.1 19.5 13.25 20.95 18.8 20.7 21.1 L9.5 26.55 7.45 22.65 3.8 13.55 -1.1 27.0 Q-12.45 25.1 -20.7 21.0 -20.25 17.1 -16.75 10.35 -15.95 3.35 -16.8 -3.3 -21.0 -18.55 -14.35 -24.45 -12.55 -26.2 -10.75 -26.95" fill="#2c2c2c" fill-rule="evenodd" stroke="none"/>
  </g>
</svg>
