<?xml version="1.0" encoding="UTF-8" standalone="no"?>
<svg xmlns:xlink="http://www.w3.org/1999/xlink" height="26.1px" width="35.55px" xmlns="http://www.w3.org/2000/svg">
  <g transform="matrix(1.0, 0.0, 0.0, 1.0, 17.8, 13.05)">
    <path d="M12.75 1.05 L17.5 1.2 Q17.9 4.65 17.7 7.8 L10.95 4.4 6.25 13.05 -0.5 5.25 -15.0 12.05 Q-16.4 8.2 -17.05 4.5 L-3.1 2.25 -4.55 0.55 -3.95 -0.55 -17.7 -0.45 -17.75 -4.8 -2.15 -3.9 2.7 -13.05 9.6 -5.15 15.85 -6.7 16.8 -2.9 12.3 -2.05 13.6 -0.55 12.75 1.05 M5.75 5.75 L8.95 -0.2 3.95 -6.5 0.65 -0.1 5.75 5.75" fill="#e8eaff" fill-rule="evenodd" stroke="none"/>
  </g>
</svg>
