<?xml version="1.0" encoding="UTF-8" standalone="no"?>
<svg xmlns:xlink="http://www.w3.org/1999/xlink" height="27.6px" width="37.05px" xmlns="http://www.w3.org/2000/svg">
  <g transform="matrix(1.0, 0.0, 0.0, 1.0, 18.55, 13.8)">
    <path d="M5.75 5.75 L0.65 -0.1 3.95 -6.5 8.95 -0.2 5.75 5.75" fill="none" stroke="#000000" stroke-linecap="round" stroke-linejoin="round" stroke-width="1.0"/>
    <path d="M16.8 -2.9 L15.85 -6.7 9.6 -5.15 12.3 -2.05 13.6 -0.55 12.75 1.05 10.95 4.4 6.25 13.05 -0.5 5.25 -15.0 12.05 Q-16.4 8.2 -17.05 4.5 L-17.7 -0.45 -17.75 -4.8 -2.15 -3.9 2.7 -13.05 9.6 -5.15 M17.5 1.2 L16.8 -2.9 M17.5 1.2 Q17.9 4.65 17.7 7.8 L10.95 4.4 M-3.95 -0.55 L-2.15 -3.9 M-3.1 2.25 L-4.55 0.55 -3.95 -0.55 M-0.5 5.25 L-3.1 2.25" fill="none" stroke="#000000" stroke-linecap="round" stroke-linejoin="round" stroke-width="1.5"/>
    <path d="M5.75 5.75 L6.3 0.0 3.95 -6.5 M12.3 -2.05 L16.8 -2.9 M12.75 1.05 L17.5 1.2 M-3.95 -0.55 L-17.7 -0.45 M-17.05 4.5 L-3.1 2.25" fill="none" stroke="#000000" stroke-linecap="round" stroke-linejoin="round" stroke-opacity="0.3882353" stroke-width="0.5"/>
  </g>
</svg>
