<?xml version="1.0" encoding="UTF-8" standalone="no"?>
<svg xmlns:xlink="http://www.w3.org/1999/xlink" height="38.35px" width="36.05px" xmlns="http://www.w3.org/2000/svg">
  <g transform="matrix(1.0, 0.0, 0.0, 1.0, 18.05, 19.2)">
    <path d="M7.65 -0.1 Q7.65 2.1 6.35 3.65 5.05 5.25 3.2 5.25 1.35 5.25 0.05 3.65 -1.25 2.1 -1.25 -0.1 -1.25 -2.3 0.05 -3.9 1.35 -5.45 3.2 -5.45 5.05 -5.45 6.35 -3.9 7.65 -2.3 7.65 -0.1 M4.7 -16.35 L5.15 -18.3 Q7.75 -17.45 10.45 -14.95 L10.25 -12.8 Q7.65 -15.45 4.7 -16.35 M15.6 14.35 Q16.1 12.4 15.3 8.4 L16.95 10.3 Q18.25 14.9 17.95 16.65 L15.6 14.35 M-15.05 12.2 Q-16.1 15.5 -15.6 17.85 L-18.0 19.15 Q-18.2 17.15 -17.1 13.55 L-15.05 12.2 M-8.45 -17.15 Q-11.2 -16.6 -13.1 -13.9 L-15.2 -16.5 Q-14.05 -18.35 -10.4 -19.2 L-8.45 -17.15" fill="#61d4e7" fill-rule="evenodd" stroke="none"/>
  </g>
</svg>
