<?xml version="1.0" encoding="UTF-8" standalone="no"?>
<svg xmlns:xlink="http://www.w3.org/1999/xlink" height="51.75px" width="38.75px" xmlns="http://www.w3.org/2000/svg">
  <g transform="matrix(1.0, 0.0, 0.0, 1.0, 19.35, 25.9)">
    <path d="M0.05 -10.9 L5.3 -3.9 Q8.45 -13.05 9.05 -19.85 L9.15 -21.1 Q7.0 -23.2 4.2 -24.7 L4.1 -24.2 Q2.7 -18.05 0.05 -10.9 -5.5 -17.85 -12.2 -24.55 L-12.8 -25.15 Q-16.0 -24.95 -18.6 -21.1 L-18.2 -20.65 Q-9.9 -11.0 -3.45 -2.25 L1.75 5.2 Q8.0 14.55 11.95 22.85 L12.1 23.2 Q14.5 23.2 18.65 20.95 L18.35 20.1 Q13.45 7.8 5.3 -3.9 M-3.45 -2.25 Q-8.5 9.1 -16.25 22.5 L-16.25 22.55 Q-16.0 24.0 -8.1 25.1 L-7.55 24.15 Q-2.0 13.85 1.75 5.2" fill="none" stroke="#000000" stroke-linecap="round" stroke-linejoin="round" stroke-width="1.5"/>
  </g>
</svg>
