<?xml version="1.0" encoding="UTF-8" standalone="no"?>
<svg xmlns:xlink="http://www.w3.org/1999/xlink" height="51.75px" width="42.75px" xmlns="http://www.w3.org/2000/svg">
  <g transform="matrix(1.0, 0.0, 0.0, 1.0, 21.4, 25.9)">
    <path d="M-20.4 23.55 L-21.4 20.9 -18.3 13.8 -12.3 14.1 Q-11.6 13.55 -11.3 12.65 -9.1 4.85 -9.55 -4.55 L-10.45 -12.5 -10.05 -12.45 -5.15 -12.2 Q3.85 -11.9 9.05 -13.45 11.2 -14.15 12.7 -15.1 L12.85 -15.0 15.5 -12.95 Q17.3 -11.5 17.2 -8.6 17.15 -6.65 16.05 -3.8 15.85 3.5 17.25 8.3 L18.75 13.5 19.85 16.45 Q20.8 18.95 21.35 21.85 11.85 25.95 -0.75 25.85 -13.35 25.75 -20.4 23.55 M-9.95 -16.05 L-10.05 -16.45 Q-11.25 -21.1 -12.9 -24.2 L-10.25 -25.9 Q-7.7 -21.85 -6.45 -16.45 L-6.3 -15.8 -9.95 -16.05 M5.8 0.15 Q9.5 0.15 10.8 -2.7 11.9 -5.1 10.8 -7.7 L-1.5 -6.5 Q-0.65 -2.7 0.1 -1.65 1.8 0.8 5.8 0.15 M8.25 -16.7 Q6.8 -20.9 4.45 -25.1 L7.7 -23.65 Q10.25 -20.7 11.1 -17.95 L8.25 -16.7" fill="#2c2d2c" fill-rule="evenodd" stroke="none"/>
  </g>
</svg>
