<?xml version="1.0" encoding="UTF-8" standalone="no"?>
<svg xmlns:xlink="http://www.w3.org/1999/xlink" height="33.9px" width="34.55px" xmlns="http://www.w3.org/2000/svg">
  <g transform="matrix(1.0, 0.0, 0.0, 1.0, 17.6, 21.15)">
    <path d="M11.3 -16.35 Q12.5 -15.25 10.8 -13.8 10.45 -13.55 10.0 -13.45 L7.05 -13.5 Q6.0 -13.7 6.65 -14.55 L8.25 -15.75 8.95 -16.0 9.1 -16.45 Q9.4 -17.1 10.1 -17.1 L11.3 -16.35 M7.35 -17.75 Q6.25 -18.05 6.85 -19.55 L7.55 -20.0 Q10.8 -20.2 9.45 -18.05 L9.35 -17.95 9.1 -17.8 7.35 -17.75 M10.1 -8.95 L10.4 -9.0 Q13.95 -8.85 11.95 -6.55 10.55 -4.9 8.35 -4.5 5.65 -4.0 6.15 -6.3 5.3 -7.8 7.1 -8.35 L7.3 -8.45 10.1 -8.95 M0.35 -8.3 Q3.0 -7.2 0.4 -5.85 L-1.35 -5.2 -4.35 -5.0 Q-7.1 -5.55 -4.95 -7.05 L-4.1 -7.35 Q-1.8 -7.6 0.35 -8.3 M5.5 4.85 L5.8 4.3 Q7.4 2.6 9.2 2.4 10.95 2.15 11.2 2.65 11.4 3.15 11.25 4.3 11.1 5.45 13.95 4.45 L14.75 4.35 Q14.5 6.4 11.35 6.55 L8.05 6.3 6.05 5.65 Q5.35 5.3 5.5 4.85 M10.2 7.75 Q15.85 6.95 14.55 8.4 L12.45 10.05 Q12.25 10.7 11.45 10.7 L8.95 10.7 6.5 10.75 Q6.25 10.8 7.15 9.85 8.05 8.85 6.9 8.2 L7.95 8.05 9.35 7.9 10.2 7.75 M2.25 8.5 Q0.35 9.3 2.8 9.9 5.25 10.45 2.25 11.2 L-1.95 11.1 Q-3.15 10.25 -2.65 9.4 -2.15 8.55 -0.5 8.45 L0.2 8.4 0.4 8.35 2.25 8.5 M-10.05 3.8 L-5.2 3.85 Q-1.4 3.8 -2.95 2.8 -4.55 1.75 -2.6 1.6 L2.5 1.95 Q3.65 2.1 3.1 3.1 2.15 4.85 0.05 5.1 L-7.5 4.7 -9.9 3.95 -10.05 3.8 M-8.5 -11.2 Q-11.1 -11.35 -12.25 -10.65 -13.4 -10.0 -13.0 -9.0 -12.65 -8.0 -14.5 -7.9 -16.4 -7.85 -16.55 -10.35 -16.7 -12.85 -15.4 -13.6 -14.1 -14.4 -11.35 -13.65 L-10.95 -13.55 -10.85 -13.3 Q-9.9 -11.75 -8.5 -11.2 M-11.0 -18.75 L-11.85 -19.1 Q-13.6 -19.8 -12.1 -20.95 L-11.75 -21.1 Q-7.5 -21.45 -7.15 -17.9 -7.1 -17.35 -7.7 -17.5 L-7.8 -17.5 -10.4 -18.5 -11.0 -18.75 M-12.1 8.6 Q-10.75 8.85 -9.5 9.5 L-8.8 9.7 Q-6.6 10.05 -4.85 11.0 L-4.75 11.05 Q-4.25 11.35 -4.7 11.8 -6.05 13.1 -8.25 12.65 -9.9 12.3 -10.95 11.05 -13.95 10.7 -16.8 10.95 -17.6 11.0 -17.6 10.15 -17.55 8.8 -16.1 8.7 L-12.1 8.6" fill="#000000" fill-opacity="0.32941177" fill-rule="evenodd" stroke="none"/>
    <path d="M8.25 -15.75 Q7.35 -16.25 7.3 -17.45 L7.35 -17.75 9.1 -17.8 9.35 -17.95 9.45 -18.05 Q11.05 -17.8 11.3 -16.35 L10.1 -17.1 Q9.4 -17.1 9.1 -16.45 L8.95 -16.0 8.25 -15.75 M7.1 -8.35 L6.45 -8.5 Q5.1 -8.8 4.35 -9.7 3.55 -10.65 4.7 -11.15 L5.0 -11.25 Q8.3 -11.3 10.7 -9.9 10.95 -9.75 10.7 -9.5 L10.1 -8.95 7.3 -8.45 7.1 -8.35 M2.6 -4.7 Q5.95 -5.35 4.95 -2.95 4.25 -1.25 2.35 -0.85 -1.4 0.05 -2.3 -0.05 -3.25 -0.15 -0.5 -1.25 2.25 -2.35 1.5 -3.2 0.75 -4.1 2.6 -4.7 M9.35 -1.2 Q12.9 -2.1 14.3 0.25 14.6 0.75 14.0 0.85 L8.9 1.4 6.15 1.05 Q4.45 0.5 5.9 -0.45 6.85 -1.05 8.0 -1.1 L9.35 -1.2 M11.35 6.55 L10.35 7.65 10.2 7.75 9.35 7.9 7.95 8.05 6.9 8.2 5.3 7.7 4.3 7.8 2.25 8.5 0.4 8.35 0.2 8.4 Q-0.2 8.25 0.0 7.8 0.9 5.7 3.5 5.25 L5.5 4.85 Q5.35 5.3 6.05 5.65 L8.05 6.3 11.35 6.55 M12.45 10.05 L12.55 10.05 Q14.35 9.95 15.8 9.25 18.35 10.65 15.2 11.65 L11.9 12.5 Q10.15 12.85 9.1 11.7 8.5 11.05 8.95 10.7 L11.45 10.7 Q12.25 10.7 12.45 10.05 M-7.5 4.7 Q-12.5 5.25 -14.6 3.35 -15.55 2.45 -14.45 1.55 -13.65 0.85 -10.1 0.15 -6.6 -0.55 -7.25 0.4 -7.95 1.3 -10.95 2.25 -13.95 3.2 -10.35 3.75 L-10.05 3.8 -9.9 3.95 -7.5 4.7 M-10.95 -13.55 Q-11.05 -13.9 -10.55 -14.05 L-7.0 -14.85 Q-5.1 -15.05 -4.0 -13.35 -2.95 -11.65 -3.2 -11.3 -3.5 -10.95 -4.0 -11.45 L-8.5 -11.2 Q-9.9 -11.75 -10.85 -13.3 L-10.95 -13.55 M-7.8 -17.5 Q-7.7 -17.0 -7.95 -16.25 L-8.25 -16.05 -16.05 -15.3 Q-16.4 -15.25 -16.35 -15.7 -15.9 -18.2 -12.7 -18.5 L-11.1 -18.75 -11.0 -18.75 -10.4 -18.5 -7.8 -17.5 M-9.35 -7.05 Q-5.7 -7.8 -5.95 -5.1 -6.0 -4.4 -6.8 -4.05 -10.45 -2.5 -13.55 -4.4 -14.75 -5.1 -13.75 -5.95 -12.5 -7.05 -10.65 -6.95 L-9.35 -7.05 M-4.85 11.0 Q-6.6 10.05 -8.8 9.7 L-9.5 9.5 Q-10.75 8.85 -12.1 8.6 -12.35 7.7 -11.35 7.2 -10.55 6.8 -3.65 5.7 3.2 4.55 -5.5 7.75 -8.85 7.55 -3.9 9.95 -2.65 10.0 -4.5 10.85 L-4.85 11.0" fill="#ffffff" fill-opacity="0.24705882" fill-rule="evenodd" stroke="none"/>
  </g>
</svg>
