<?xml version="1.0" encoding="UTF-8" standalone="no"?>
<svg xmlns:xlink="http://www.w3.org/1999/xlink" height="60.75px" width="46.3px" xmlns="http://www.w3.org/2000/svg">
  <g transform="matrix(1.0, 0.0, 0.0, 1.0, 23.15, 30.35)">
    <path d="M4.0 -29.5 Q11.8 -26.35 12.7 -20.25 15.0 -11.65 15.65 -2.75 L20.15 11.9 Q22.9 19.3 23.1 23.8 23.35 27.8 21.2 28.3 15.9 27.65 14.8 24.3 12.05 16.15 9.75 0.85 9.1 -8.55 7.0 -19.5 5.4 -27.65 4.0 -29.5 M-11.4 -30.35 Q-6.35 -28.9 -4.45 -20.15 -2.6 -11.45 -2.75 8.1 -2.15 23.0 -6.6 30.4 -16.7 29.45 -23.15 22.35 -22.4 15.85 -18.55 8.4 -16.4 0.2 -18.75 -9.35 -21.1 -18.9 -18.6 -25.15 -16.45 -29.15 -11.4 -30.35" fill="#486f6d" fill-rule="evenodd" stroke="none"/>
  </g>
</svg>
