<?xml version="1.0" encoding="UTF-8" standalone="no"?>
<svg xmlns:xlink="http://www.w3.org/1999/xlink" height="50.45px" width="41.85px" xmlns="http://www.w3.org/2000/svg">
  <g transform="matrix(1.0, 0.0, 0.0, 1.0, 20.95, 25.2)">
    <path d="M8.65 -22.95 Q9.95 -22.1 11.45 -20.2 15.5 -12.3 17.1 1.65 17.7 6.9 18.7 11.65 21.75 20.7 20.55 22.2 L17.7 23.6 15.8 11.65 Q12.8 -7.05 8.65 -22.95 M-17.2 10.2 Q-16.45 6.1 -17.5 -3.05 -19.15 -10.7 -19.2 -16.1 -17.65 -21.65 -13.15 -25.2 -7.05 -20.35 -7.85 11.65 -9.9 23.25 -11.55 25.25 L-20.95 22.8 Q-20.45 17.65 -17.75 11.65 L-17.2 10.2" fill="#ffffff" fill-rule="evenodd" stroke="none"/>
  </g>
</svg>
