<?xml version="1.0" encoding="UTF-8" standalone="no"?>
<svg xmlns:xlink="http://www.w3.org/1999/xlink" height="48.1px" width="41.75px" xmlns="http://www.w3.org/2000/svg">
  <g transform="matrix(1.0, 0.0, 0.0, 1.0, 20.85, 24.05)">
    <path d="M14.85 -9.3 Q12.15 -17.8 6.45 -22.75 L4.5 -22.75 Q8.3 -18.35 10.5 -13.65 5.9 -13.7 2.15 -11.4 -2.9 -14.15 -9.8 -12.65 -9.45 -17.9 -10.7 -23.3 L-13.65 -22.15 Q-12.0 -15.35 -12.95 -8.15 L-16.05 5.55 -20.1 23.3 20.15 23.3 17.2 5.75 Q16.9 -2.8 14.85 -9.3" fill="none" stroke="#000000" stroke-linecap="round" stroke-linejoin="round" stroke-width="1.5"/>
    <path d="M-12.95 -8.15 Q-6.85 -9.3 -2.25 -8.1 L-0.3 -7.5 3.15 -6.0 5.9 -7.6 7.25 -8.2 Q10.5 -9.5 14.85 -9.3" fill="none" stroke="#000000" stroke-linecap="round" stroke-linejoin="round" stroke-width="1.0"/>
    <path d="M2.55 -4.9 Q3.0 -5.3 3.6 -5.3 4.2 -5.3 4.6 -4.9 L4.95 -3.8 Q4.95 -3.2 4.6 -2.85 4.2 -2.4 3.6 -2.4 3.0 -2.4 2.55 -2.85 2.2 -3.2 2.2 -3.8 2.2 -4.4 2.55 -4.9 M5.2 -0.2 Q5.2 0.4 4.7 0.85 4.35 1.3 3.75 1.3 3.15 1.3 2.7 0.85 2.35 0.4 2.35 -0.2 2.35 -0.75 2.7 -1.25 3.15 -1.6 3.75 -1.6 L4.7 -1.25 Q5.2 -0.75 5.2 -0.2 M7.25 -8.2 Q9.15 -5.9 8.9 -3.15 9.95 -1.4 9.25 0.15 10.2 1.75 8.9 3.7 8.05 3.95 7.05 4.55 7.55 -3.3 5.9 -7.6 M4.9 4.7 Q4.6 5.05 3.9 5.05 3.3 5.05 2.95 4.7 2.55 4.2 2.55 3.6 2.55 3.0 2.95 2.6 3.3 2.15 3.9 2.15 4.6 2.15 4.9 2.6 5.3 3.0 5.3 3.6 5.3 4.2 4.9 4.7 M-0.3 -7.5 Q0.9 -1.3 0.65 5.15 L0.3 5.0 -1.05 4.25 Q-2.55 1.8 -1.85 0.1 -3.4 -1.85 -1.85 -3.9 -3.1 -5.45 -2.25 -8.1" fill="none" stroke="#000000" stroke-linecap="round" stroke-linejoin="round" stroke-width="0.5"/>
  </g>
</svg>
