<?xml version="1.0" encoding="UTF-8" standalone="no"?>
<svg xmlns:xlink="http://www.w3.org/1999/xlink" height="55.9px" width="50.65px" xmlns="http://www.w3.org/2000/svg">
  <g transform="matrix(1.0, 0.0, 0.0, 1.0, 0.0, 27.95)">
    <path d="M36.2 -10.0 L36.25 -10.2 36.75 -15.3 Q37.05 -18.6 37.55 -19.5 L34.7 -22.35 33.15 -27.95 Q37.05 -26.45 39.55 -24.2 41.2 -22.1 41.8 -19.65 L42.3 -17.95 42.9 -16.35 Q43.25 -15.35 43.2 -14.1 L45.2 -11.5 Q49.1 -6.45 47.35 -2.25 L46.4 -0.05 46.65 2.65 Q46.8 4.0 48.35 9.95 49.9 15.9 50.65 25.4 47.8 27.8 40.1 27.9 15.25 28.35 9.55 24.95 12.1 19.9 13.7 13.8 15.25 7.7 13.5 -0.5 6.55 1.55 1.0 -6.55 0.5 -10.2 2.8 -13.9 0.4 -15.95 0.05 -17.6 -0.5 -20.25 4.75 -24.85 12.85 -28.1 21.65 -27.45 L21.65 -22.4 Q27.9 -19.55 30.6 -16.7 L36.2 -10.0 Q36.2 -9.5 36.55 -8.9 L36.85 -9.2 36.2 -10.0" fill="#f76c7b" fill-rule="evenodd" stroke="none"/>
  </g>
</svg>
