<?xml version="1.0" encoding="UTF-8" standalone="no"?>
<svg xmlns:xlink="http://www.w3.org/1999/xlink" height="24.25px" width="24.85px" xmlns="http://www.w3.org/2000/svg">
  <g transform="matrix(1.0, 0.0, 0.0, 1.0, 12.4, 12.1)">
    <path d="M6.5 -6.1 L6.3 -8.45 11.55 -7.75 11.9 -5.5 6.5 -6.1 M6.75 -2.4 L6.55 -5.3 12.05 -4.5 12.45 -1.65 12.45 -1.6 6.75 -2.4 M6.15 -9.55 L5.85 -12.1 10.9 -11.1 11.35 -8.85 6.15 -9.55 M7.0 4.95 Q7.0 5.7 6.45 6.2 5.95 6.75 5.2 6.75 4.45 6.75 3.9 6.2 3.4 5.7 3.4 4.95 3.4 4.25 3.9 3.7 4.45 3.2 5.2 3.2 5.95 3.2 6.45 3.7 7.0 4.25 7.0 4.95 M7.0 10.4 Q7.0 11.1 6.45 11.65 5.95 12.15 5.2 12.15 4.45 12.15 3.9 11.65 3.4 11.1 3.4 10.4 3.4 9.65 3.9 9.15 4.45 8.6 5.2 8.6 5.95 8.6 6.45 9.15 7.0 9.65 7.0 10.4 M-12.05 -5.3 L-12.2 -7.9 -6.6 -8.9 -6.3 -6.05 -12.05 -5.3 M-12.25 -8.65 L-12.4 -10.85 -7.0 -12.1 -6.65 -9.65 -12.25 -8.65 M-11.9 -1.8 L-12.0 -4.45 -6.2 -5.2 -6.05 -2.3 -11.9 -1.8 M-0.05 4.95 Q-0.05 5.7 -0.65 6.2 -1.15 6.75 -1.9 6.75 -2.6 6.75 -3.2 6.2 -3.7 5.7 -3.7 4.95 -3.7 4.25 -3.2 3.7 -2.6 3.2 -1.9 3.2 -1.15 3.2 -0.65 3.7 -0.05 4.25 -0.05 4.95 M-0.05 10.4 Q-0.05 11.1 -0.65 11.65 -1.15 12.15 -1.9 12.15 L-3.2 11.65 Q-3.7 11.1 -3.7 10.4 -3.7 9.65 -3.2 9.15 -2.6 8.6 -1.9 8.6 -1.15 8.6 -0.65 9.15 -0.05 9.65 -0.05 10.4" fill="#ffffff" fill-rule="evenodd" stroke="none"/>
  </g>
</svg>
