<?xml version="1.0" encoding="UTF-8" standalone="no"?>
<svg xmlns:xlink="http://www.w3.org/1999/xlink" height="53.4px" width="44.7px" xmlns="http://www.w3.org/2000/svg">
  <g transform="matrix(1.0, 0.0, 0.0, 1.0, 22.35, 26.7)">
    <path d="M2.3 2.9 L8.2 2.9 8.05 -0.3 8.0 -1.05 7.8 -3.95 7.75 -4.75 7.55 -7.1 7.4 -8.2 7.1 -10.75 Q6.4 -16.05 5.3 -20.7 L4.25 -25.1 9.2 -21.6 9.5 -20.7 Q11.0 -15.65 12.15 -9.75 L12.6 -7.5 12.8 -6.4 13.15 -4.15 13.3 -3.15 13.7 -0.3 13.7 -0.25 Q14.5 5.75 14.95 12.4 L18.25 12.4 Q20.55 18.3 21.55 23.4 9.45 27.75 -21.5 24.6 -21.8 22.55 -20.4 18.0 L-18.55 11.95 -10.9 11.95 Q-10.5 5.85 -10.65 -0.3 L-10.65 -0.45 -10.75 -3.1 -10.8 -3.95 -10.95 -6.55 -11.0 -7.3 -11.15 -9.5 Q-11.7 -15.15 -12.65 -20.7 -12.95 -22.75 -13.5 -24.3 L-10.15 -25.9 Q-8.55 -23.75 -7.75 -20.7 -6.5 -15.9 -5.75 -10.75 L-5.4 -8.3 -5.35 -7.55 -5.05 -4.7 -4.95 -3.85 -4.8 -0.95 -4.8 -0.3 -4.7 2.9 2.3 2.9" fill="none" stroke="#000000" stroke-linecap="round" stroke-linejoin="round" stroke-width="1.6"/>
    <path d="M2.3 2.9 Q3.35 8.4 3.15 13.75 M8.25 6.3 Q8.25 7.05 7.7 7.55 7.2 8.1 6.45 8.1 5.7 8.1 5.15 7.55 4.65 7.05 4.65 6.3 4.65 5.6 5.15 5.05 5.7 4.55 6.45 4.55 7.2 4.55 7.7 5.05 8.25 5.6 8.25 6.3 M1.2 6.3 Q1.2 7.05 0.6 7.55 0.1 8.1 -0.65 8.1 -1.35 8.1 -1.95 7.55 -2.45 7.05 -2.45 6.3 -2.45 5.6 -1.95 5.05 -1.35 4.55 -0.65 4.55 0.1 4.55 0.6 5.05 1.2 5.6 1.2 6.3 M1.2 11.75 Q1.2 12.45 0.6 13.0 0.1 13.5 -0.65 13.5 -1.35 13.5 -1.95 13.0 -2.45 12.45 -2.45 11.75 -2.45 11.0 -1.95 10.5 -1.35 9.95 -0.65 9.95 0.1 9.95 0.6 10.5 1.2 11.0 1.2 11.75 M8.25 11.75 Q8.25 12.45 7.7 13.0 7.2 13.5 6.45 13.5 5.7 13.5 5.15 13.0 4.65 12.45 4.65 11.75 4.65 11.0 5.15 10.5 5.7 9.95 6.45 9.95 7.2 9.95 7.7 10.5 8.25 11.0 8.25 11.75" fill="none" stroke="#000000" stroke-linecap="round" stroke-linejoin="round" stroke-width="1.0"/>
  </g>
</svg>
