<?xml version="1.0" encoding="UTF-8" standalone="no"?>
<svg xmlns:xlink="http://www.w3.org/1999/xlink" height="26.9px" width="71.65px" xmlns="http://www.w3.org/2000/svg">
  <g transform="matrix(1.0, 0.0, 0.0, 1.0, 35.8, 13.45)">
    <path d="M32.2 -5.85 L27.8 -6.0 27.2 -5.9 Q25.4 -5.7 23.1 -4.5 L21.1 -3.35 23.55 -1.2 23.65 -0.5 19.95 0.3 Q15.95 0.9 12.2 0.35 L10.8 0.05 15.05 -2.2 9.85 -3.7 9.55 -3.8 Q6.0 -4.5 2.6 -3.75 L-1.3 -2.85 -2.25 -2.65 -1.45 -2.2 Q0.85 -0.8 3.2 0.25 L-2.2 1.4 Q-6.95 1.9 -11.7 0.4 L-14.15 -0.55 -14.1 -0.8 Q-13.7 -1.3 -11.95 -1.8 L-8.15 -2.45 -12.1 -3.6 -13.6 -4.25 Q-16.8 -5.95 -19.5 -6.15 L-22.6 -5.95 -25.45 -5.05 -25.55 -5.05 -24.05 -3.75 Q-23.15 -2.7 -22.4 -1.25 -23.9 -1.55 -25.15 -2.1 -27.75 -3.4 -29.25 -5.85 -30.1 -7.2 -30.55 -8.9 L-28.05 -13.45 Q-27.05 -11.35 -26.15 -10.15 -25.15 -8.9 -24.05 -8.3 L-23.1 -10.3 Q-20.25 -11.75 -16.7 -11.25 L-15.1 -10.9 Q-12.3 -10.2 -8.95 -8.35 L-8.55 -5.15 Q-5.65 -3.8 -1.8 -5.15 L-1.25 -8.45 1.2 -9.45 9.75 -9.75 Q11.65 -9.25 13.5 -8.15 L14.8 -5.1 17.8 -4.95 Q19.45 -5.15 20.35 -6.25 L19.75 -8.2 Q21.6 -10.1 23.45 -11.0 26.65 -12.65 29.85 -11.25 L32.7 -5.8 32.2 -5.85 M-32.75 -1.15 Q-31.4 1.45 -29.8 2.75 L-28.45 3.6 -27.35 1.6 Q-21.0 -1.25 -11.3 3.55 L-10.85 6.75 Q-7.6 8.15 -3.25 6.75 L-2.8 4.45 Q6.15 -0.3 14.1 3.8 L15.6 6.8 Q20.05 7.55 21.85 5.7 L21.2 3.7 Q26.9 -1.55 32.65 0.65 L35.85 6.1 35.25 6.05 Q33.35 5.45 29.6 6.0 27.6 6.25 24.95 7.4 L22.75 8.55 25.5 10.75 25.6 11.4 Q18.0 13.3 11.0 12.0 L15.85 9.7 Q11.9 8.5 9.55 8.15 5.6 7.4 1.75 8.2 L-3.7 9.25 Q-0.6 10.9 2.4 12.15 -7.5 15.05 -17.2 11.4 L-17.15 11.1 Q-16.3 10.15 -10.45 9.5 L-16.6 7.65 Q-20.2 5.95 -23.25 5.75 -26.7 5.55 -30.05 6.85 L-30.15 6.85 Q-28.05 8.15 -26.55 10.7 -33.8 9.3 -35.8 3.0 L-32.75 -1.15" fill="#f38cff" fill-rule="evenodd" stroke="none"/>
  </g>
</svg>
