<?xml version="1.0" encoding="UTF-8" standalone="no"?>
<svg xmlns:xlink="http://www.w3.org/1999/xlink" height="45.4px" width="117.6px" xmlns="http://www.w3.org/2000/svg">
  <g transform="matrix(1.0, 0.0, 0.0, 1.0, 58.8, 22.7)">
    <path d="M30.55 12.5 L30.55 12.25 30.15 12.6 Q27.05 15.1 23.4 13.0 L20.95 8.0 Q12.6 7.5 5.95 11.15 L7.45 16.9 Q-10.5 26.6 -23.1 16.65 L-27.6 12.15 -25.55 9.2 -29.35 5.55 Q-33.15 3.25 -36.25 2.1 L-43.75 5.05 Q-55.2 2.8 -57.8 -7.9 -52.45 -10.65 -46.7 -12.65 -36.4 -16.5 -25.05 -18.05 L-21.65 -21.7 Q-1.75 -14.55 17.3 -20.55 L21.65 -16.05 Q37.25 -13.45 46.7 -10.15 54.15 -7.7 57.8 -4.75 45.2 -5.2 41.05 -0.25 L42.45 0.95 Q54.0 5.2 31.0 12.1 L30.55 12.25 Q30.55 9.45 26.55 8.8 L20.95 8.0 M-25.05 -18.05 Q-18.35 -14.85 -12.0 -13.1 -7.35 -11.85 -2.9 -11.5 4.15 -10.85 10.75 -12.25 14.15 -12.95 17.5 -14.2 L21.65 -16.05 M0.25 15.7 L2.2 13.8 Q3.9 12.25 5.95 11.15 M-25.55 9.2 Q-22.75 12.45 -22.4 15.15 M-43.75 5.05 L-46.1 1.55 -46.65 0.8 M-46.1 1.55 Q-42.55 -0.4 -36.25 2.1 M7.45 16.9 Q3.05 16.95 0.25 15.7" fill="none" stroke="#000000" stroke-linecap="round" stroke-linejoin="round" stroke-width="2.0"/>
    <path d="M31.0 12.1 L30.55 12.5 M46.7 -10.15 Q35.0 -9.75 34.5 -5.15 L38.4 -2.4 41.05 -0.25 M17.5 -14.2 Q27.05 -10.15 34.5 -5.15 M-46.7 -12.65 Q-43.5 -6.05 -38.55 -6.2 L-35.9 -7.7 Q-29.8 -10.95 -20.4 -15.15 M31.0 12.1 Q33.1 9.85 27.35 5.45 L25.5 2.55 23.85 0.25 Q9.3 -3.9 -3.45 5.5 L-3.6 9.35 -3.7 12.05 Q-2.5 14.5 0.25 15.7 M-22.15 16.25 Q-20.1 16.6 -17.2 7.65 L-15.9 3.35 Q-23.35 -6.5 -35.9 -7.7 M-17.2 7.65 Q-11.3 13.2 -3.6 9.35 M-46.65 0.8 Q-47.0 -1.45 -38.55 -6.2 M-2.9 -11.5 L-3.45 5.5 M-15.9 3.35 Q-14.1 -3.25 -12.0 -13.1 M23.85 0.25 Q18.8 -6.1 10.75 -12.25 M25.5 2.55 Q33.7 4.35 38.4 -2.4" fill="none" stroke="#000000" stroke-linecap="round" stroke-linejoin="round" stroke-width="1.0"/>
  </g>
</svg>
