<?xml version="1.0" encoding="UTF-8" standalone="no"?>
<svg xmlns:xlink="http://www.w3.org/1999/xlink" height="32.65px" width="93.4px" xmlns="http://www.w3.org/2000/svg">
  <g transform="matrix(1.0, 0.0, 0.0, 1.0, 46.7, 16.3)">
    <path d="M-46.7 -7.25 Q-36.4 -11.1 -25.05 -12.65 L-21.65 -16.3 Q-1.75 -9.15 17.3 -15.15 L21.65 -10.65 Q37.25 -8.05 46.7 -4.75 35.0 -4.35 34.5 0.25 L38.4 3.0 Q33.7 9.75 25.5 7.95 L23.85 5.65 Q9.3 1.5 -3.45 10.9 L-3.6 14.75 Q-11.3 18.6 -17.2 13.05 L-15.9 8.75 Q-23.35 -1.1 -35.9 -2.3 L-38.55 -0.8 Q-43.5 -0.65 -46.7 -7.25" fill="#eabfff" fill-rule="evenodd" stroke="none"/>
  </g>
</svg>
