<?xml version="1.0" encoding="UTF-8" standalone="no"?>
<svg xmlns:xlink="http://www.w3.org/1999/xlink" height="10.35px" width="49.25px" xmlns="http://www.w3.org/2000/svg">
  <g transform="matrix(1.0, 0.0, 0.0, 1.0, 24.65, 5.15)">
    <path d="M7.15 -3.7 Q7.15 -3.15 6.7 -2.7 6.25 -2.25 5.6 -2.25 4.95 -2.25 4.45 -2.7 4.0 -3.15 4.0 -3.75 4.0 -4.3 4.45 -4.7 4.95 -5.15 5.6 -5.15 6.25 -5.15 6.7 -4.7 7.15 -4.3 7.15 -3.7 M24.6 3.2 Q21.15 4.7 17.55 -2.0 L19.95 -2.9 Q21.2 1.25 24.25 1.05 L24.6 3.2 M-23.95 1.85 Q-16.25 4.2 -13.05 -1.3 L-9.65 -0.6 Q-16.5 7.6 -24.65 4.25 L-23.95 1.85" fill="#eabfff" fill-rule="evenodd" stroke="none"/>
  </g>
</svg>
