<?xml version="1.0" encoding="UTF-8" standalone="no"?>
<svg xmlns:xlink="http://www.w3.org/1999/xlink" height="73.55px" width="168.05px" xmlns="http://www.w3.org/2000/svg">
  <g transform="matrix(1.0, 0.0, 0.0, 1.0, 84.05, 36.75)">
    <path d="M8.4 -34.8 Q8.4 -34.0 7.85 -33.45 7.3 -32.85 6.55 -32.85 5.85 -32.85 5.3 -33.45 4.75 -34.0 4.75 -34.8 4.75 -35.6 5.3 -36.2 5.85 -36.75 6.55 -36.75 7.3 -36.75 7.85 -36.2 8.4 -35.6 8.4 -34.8 M38.15 23.6 L42.5 29.05 42.05 29.7 Q35.4 38.1 15.15 28.25 L14.1 28.05 Q6.4 25.7 -1.55 26.95 -2.55 31.6 -0.45 34.7 L-10.0 36.8 Q-14.65 37.0 -21.0 32.85 -29.1 26.65 -39.3 25.85 -42.3 29.55 -43.45 27.95 -50.1 13.3 -58.4 8.25 L-65.65 14.3 Q-84.7 2.0 -84.05 -12.15 L-79.4 -13.2 -76.75 -15.6 Q-81.4 -19.65 -79.6 -23.7 L-74.05 -23.65 -66.7 -28.15 Q-67.85 -23.95 -65.05 -24.55 -70.05 -21.3 -74.6 -17.45 -70.1 -5.5 -61.6 -2.6 L-58.9 -5.15 Q-48.2 -7.65 -33.2 16.2 L-31.3 12.65 Q-12.3 22.5 -8.8 18.65 L-8.1 15.35 Q7.7 10.05 25.65 17.05 L24.3 11.4 Q52.35 9.5 55.25 -4.85 L57.2 -3.0 Q68.2 -11.25 72.6 -21.7 L69.7 -23.65 Q74.1 -26.1 73.45 -30.2 77.6 -28.8 82.35 -27.95 87.0 -27.1 76.95 -20.25 81.8 -19.65 83.85 -17.7 85.7 -4.85 66.7 2.25 71.35 3.5 69.65 6.25 L67.5 9.4 66.45 10.9 Q65.85 11.95 59.7 17.0 53.55 22.05 38.15 23.6" fill="#f38cff" fill-rule="evenodd" stroke="none"/>
  </g>
</svg>
