<?xml version="1.0" encoding="UTF-8" standalone="no"?>
<svg xmlns:xlink="http://www.w3.org/1999/xlink" height="18.1px" width="62.75px" xmlns="http://www.w3.org/2000/svg">
  <g transform="matrix(1.0, 0.0, 0.0, 1.0, 31.35, 9.05)">
    <path d="M21.7 -9.05 Q28.1 -3.25 31.4 2.0 29.75 6.65 21.25 6.55 L23.55 3.75 Q18.8 2.6 13.35 5.45 L16.25 6.7 Q10.1 9.55 3.65 7.95 L5.8 6.05 -4.9 6.4 -2.15 8.55 -13.25 8.25 -11.0 6.2 Q-15.3 3.95 -21.85 4.5 L-19.55 7.35 Q-25.0 8.05 -31.35 2.25 -28.35 -4.25 -21.65 -8.0 -5.45 -2.1 7.1 -3.9 L8.15 -4.4 Q20.1 -6.4 21.65 -8.35 L21.7 -9.05" fill="#eabfff" fill-rule="evenodd" stroke="none"/>
  </g>
</svg>
