<?xml version="1.0" encoding="UTF-8" standalone="no"?>
<svg xmlns:xlink="http://www.w3.org/1999/xlink" height="50.7px" width="95.7px" xmlns="http://www.w3.org/2000/svg">
  <g transform="matrix(1.0, 0.0, 0.0, 1.0, 47.85, 25.35)">
    <path d="M-12.25 -21.85 L-11.2 -21.5 -12.65 -20.65 -12.25 -21.85" fill="#c94fa6" fill-rule="evenodd" stroke="none"/>
    <path d="M17.7 -20.75 L13.6 -19.5 15.7 -15.6 30.1 5.2 35.4 12.6 40.5 19.75 Q53.2 2.15 40.5 -8.2 31.75 -15.75 21.05 -21.9 L17.7 -20.75 M-11.2 -21.5 Q-6.45 -19.9 -3.05 -19.4 L-1.75 -19.25 Q-2.0 -18.45 4.05 -18.2 7.55 -18.1 13.6 -19.5 M21.4 7.65 Q28.05 8.9 30.1 5.2 M5.75 19.1 L5.9 18.85 Q10.0 22.65 15.9 21.8 21.8 20.95 22.85 17.8 L23.45 18.4 Q27.55 20.7 32.85 18.5 37.95 16.35 35.4 12.6 M7.5 8.65 Q14.55 14.15 21.4 7.65 M-10.8 18.45 Q-14.95 22.1 -20.35 21.0 -25.75 19.85 -24.55 17.1 L-28.35 24.35 Q-40.9 14.3 -44.4 8.8 -47.9 3.3 -46.45 -2.7 -45.05 -8.7 -38.15 -12.3 -32.85 -14.7 -29.35 -17.65 -25.85 -20.6 -18.7 -24.35 L-12.25 -21.85 -11.2 -21.5 M-24.55 17.1 L-19.95 8.15 -4.75 -14.7 -4.7 -14.7 Q-2.65 -16.55 -3.05 -19.4 M-19.95 8.15 Q-16.8 12.25 -8.9 8.1 -1.0 14.35 7.5 8.65 M-4.7 -14.7 Q5.9 -12.1 15.7 -15.6 M-9.7 18.85 Q-2.9 25.9 5.75 19.1" fill="none" stroke="#000000" stroke-linecap="round" stroke-linejoin="round" stroke-width="2.0"/>
    <path d="M17.7 -20.75 L21.95 -18.15 M7.15 -10.25 L6.2 -12.8 5.35 -9.6 M12.55 -13.6 L15.0 -11.8 M19.45 -16.6 L17.7 -20.75 M23.45 18.4 L21.65 14.85 M7.5 8.65 L7.45 4.95 M5.75 19.1 L6.1 15.7 M21.4 7.65 L19.65 4.05 M-11.2 -21.5 L-12.65 -20.65 -13.35 -18.4 M-12.65 -20.65 L-16.5 -18.4 M-12.25 -21.85 L-12.65 -20.65 M-1.85 -13.15 L-3.15 -10.25 M-8.9 8.1 L-7.15 4.35 M-10.5 19.0 L-9.9 16.25" fill="none" stroke="#000000" stroke-linecap="round" stroke-linejoin="round" stroke-width="1.0"/>
  </g>
</svg>
