<?xml version="1.0" encoding="UTF-8" standalone="no"?>
<svg xmlns:xlink="http://www.w3.org/1999/xlink" height="78.6px" width="137.25px" xmlns="http://www.w3.org/2000/svg">
  <g transform="matrix(1.0, 0.0, 0.0, 1.0, 68.6, 39.3)">
    <path d="M10.4 -37.8 Q10.65 -37.0 10.2 -36.3 9.75 -35.55 8.95 -35.4 L7.4 -35.55 Q6.7 -36.0 6.5 -36.8 6.25 -37.6 6.7 -38.3 7.15 -39.0 7.95 -39.25 L9.45 -39.05 Q10.15 -38.65 10.4 -37.8 M11.95 -31.7 Q12.15 -30.9 11.7 -30.2 11.25 -29.5 10.45 -29.25 9.65 -29.0 8.9 -29.5 8.25 -29.9 8.05 -30.7 7.8 -31.5 8.15 -32.2 L9.4 -33.15 10.95 -32.95 Q11.7 -32.5 11.95 -31.7 M50.45 12.8 Q54.55 12.45 56.45 9.2 60.3 12.6 64.25 15.55 67.3 17.95 68.65 17.6 62.4 27.45 57.1 26.95 L57.1 24.15 Q46.4 26.25 35.95 32.0 L40.3 33.8 Q34.3 38.95 26.6 36.1 L28.7 33.2 28.6 33.2 Q15.75 31.4 3.45 35.75 L5.15 37.15 Q-2.55 41.55 -11.45 36.95 L-9.75 35.35 Q-20.95 30.7 -34.2 31.75 L-34.7 31.8 -34.1 35.55 Q-42.5 36.3 -48.15 30.8 L-46.5 28.5 -46.6 28.4 -56.4 19.5 Q-66.15 10.6 -68.6 13.65 -69.1 11.1 -59.45 4.25 L-56.75 2.55 Q-52.3 1.25 -36.7 14.55 L-37.9 16.85 Q-35.55 20.2 -33.15 18.95 L-32.55 17.3 Q-20.2 11.45 -6.15 19.35 L-6.4 22.1 Q-2.3 24.15 1.85 22.4 L1.7 19.5 Q10.1 13.3 23.8 18.0 L24.2 19.3 Q26.65 20.5 27.9 18.05 L27.5 17.15 Q36.6 8.1 48.65 10.6 L50.45 12.8 M-2.05 -36.9 Q-2.05 -36.1 -2.65 -35.5 -3.25 -34.9 -4.1 -34.9 -4.95 -34.9 -5.55 -35.5 -6.1 -36.1 -6.1 -36.9 -6.1 -37.75 -5.55 -38.35 -4.95 -38.9 -4.1 -38.9 -3.25 -38.9 -2.65 -38.35 -2.05 -37.75 -2.05 -36.9 M-2.2 -30.65 Q-2.2 -29.8 -2.8 -29.25 -3.4 -28.65 -4.25 -28.65 -5.1 -28.65 -5.7 -29.25 -6.25 -29.8 -6.25 -30.65 -6.25 -31.5 -5.7 -32.1 -5.1 -32.65 -4.25 -32.65 -3.4 -32.65 -2.8 -32.1 -2.2 -31.5 -2.2 -30.65" fill="#eabfff" fill-rule="evenodd" stroke="none"/>
  </g>
</svg>
