<?xml version="1.0" encoding="UTF-8" standalone="no"?>
<svg xmlns:xlink="http://www.w3.org/1999/xlink" height="17.8px" width="71.45px" xmlns="http://www.w3.org/2000/svg">
  <g transform="matrix(1.0, 0.0, 0.0, 1.0, 35.7, 8.9)">
    <path d="M-31.6 -7.3 Q-32.9 -5.55 -28.0 -4.25 L-29.0 -3.3 Q-26.9 0.8 -20.25 -0.45 L-20.7 0.3 Q-14.35 4.05 -7.95 1.1 L-7.95 1.35 Q-1.35 4.55 3.3 0.8 L3.5 1.75 Q12.25 4.2 16.25 0.05 L16.0 -0.65 Q22.95 0.75 24.8 -3.2 L24.05 -3.95 Q31.4 -4.75 28.85 -7.05 31.6 -7.9 30.55 -8.9 L35.75 -6.35 Q35.45 -3.95 33.75 -3.3 L34.1 -3.1 34.15 -2.9 Q34.4 0.75 29.0 0.95 27.85 6.65 18.3 5.8 L18.0 5.8 Q12.05 10.65 4.6 7.15 -3.25 10.55 -8.95 7.3 -14.9 9.8 -23.4 5.65 L-23.45 5.65 Q-32.8 5.2 -32.95 0.45 L-32.6 -0.1 Q-36.4 -1.15 -35.55 -4.8 L-31.6 -7.3" fill="#eabfff" fill-rule="evenodd" stroke="none"/>
  </g>
</svg>
