<?xml version="1.0" encoding="UTF-8" standalone="no"?>
<svg xmlns:xlink="http://www.w3.org/1999/xlink" height="27.4px" width="92.7px" xmlns="http://www.w3.org/2000/svg">
  <g transform="matrix(1.0, 0.0, 0.0, 1.0, 46.35, 13.7)">
    <path d="M-33.85 -13.7 Q-32.4 -8.15 -25.05 -6.8 L-21.1 -10.8 Q-16.65 -10.3 -12.9 -8.15 L-14.2 -2.5 Q0.35 1.2 13.2 -1.9 L11.85 -6.7 Q16.15 -8.2 22.25 -8.3 L23.8 -4.75 Q33.8 -6.85 36.1 -10.9 39.5 -7.75 46.35 -5.7 41.35 -3.55 39.25 -3.75 38.7 -1.9 39.35 1.1 L34.3 0.4 Q33.65 2.2 33.95 4.85 32.15 3.55 31.45 3.75 L32.6 7.5 26.3 5.9 Q25.3 8.05 24.8 10.1 22.1 9.05 20.1 7.4 19.2 11.0 17.6 11.1 L16.65 8.7 15.1 11.4 10.35 7.9 Q8.7 9.35 6.8 12.05 L2.2 8.55 -2.4 12.5 Q-4.65 10.45 -6.95 8.85 -9.3 10.6 -11.0 12.5 -12.9 10.5 -14.2 10.15 L-14.2 13.7 Q-17.95 12.6 -19.75 8.7 L-25.95 10.1 Q-28.05 7.85 -29.6 4.75 -34.3 6.7 -36.5 5.85 L-34.8 3.8 Q-35.95 2.2 -36.15 -0.7 -38.15 -0.95 -41.3 -0.7 -40.35 -2.95 -40.4 -4.85 -44.1 -5.15 -46.35 -7.7 -37.55 -10.4 -33.85 -13.7" fill="#eabfff" fill-opacity="0.7019608" fill-rule="evenodd" stroke="none"/>
  </g>
</svg>
