<?xml version="1.0" encoding="UTF-8" standalone="no"?>
<svg xmlns:xlink="http://www.w3.org/1999/xlink" height="63.15px" width="115.3px" xmlns="http://www.w3.org/2000/svg">
  <g transform="matrix(1.0, 0.0, 0.0, 1.0, 57.65, 31.75)">
    <path d="M24.4 -27.85 L23.8 -28.5 24.4 -28.05 24.4 -27.85" fill="#c94fa6" fill-rule="evenodd" stroke="none"/>
    <path d="M24.4 -28.05 L23.8 -28.5 24.4 -27.85 45.5 -6.35 44.45 -3.35 Q41.75 2.0 30.45 4.95 L29.3 5.2 34.9 0.55 30.45 0.35 27.4 0.35 Q19.85 0.4 14.55 2.5 11.5 3.7 9.15 5.5 L16.25 9.2 Q0.4 13.45 -17.55 8.3 L-10.8 4.7 Q-13.15 2.2 -15.9 0.5 -20.35 -2.35 -25.5 -3.15 L-26.0 -3.2 Q-30.05 -3.75 -34.55 -3.1 L-30.85 2.35 Q-39.95 0.5 -41.75 -7.2 L-42.25 -10.85 Q-40.1 -12.7 -38.0 -14.1 -32.75 -17.7 -23.45 -26.75 L-21.75 -28.4 -20.05 -30.75 Q-6.5 -27.4 2.6 -26.6 15.05 -25.6 21.65 -30.1 L23.7 -28.6 23.8 -28.5" fill="none" stroke="#000000" stroke-linecap="round" stroke-linejoin="round" stroke-width="2.0"/>
    <path d="M34.9 0.55 Q33.7 -3.85 30.45 -7.0 27.15 -10.1 19.15 -21.45 M-10.8 4.7 Q-8.55 3.0 -9.25 -21.7 M29.3 5.2 L27.4 0.35 M14.55 2.5 L16.25 9.2 M9.15 5.5 Q5.9 6.25 7.05 -19.15 M-34.1 -4.0 Q-37.35 -1.6 -31.55 -8.95 -25.8 -16.35 -18.5 -23.4" fill="none" stroke="#000000" stroke-linecap="round" stroke-linejoin="round" stroke-width="1.0"/>
    <path d="M44.45 -3.35 Q48.65 1.0 57.05 3.9 50.9 6.9 48.3 6.55 47.7 9.2 48.45 13.4 44.75 12.3 42.2 12.4 41.4 14.85 41.75 18.55 39.55 16.75 38.65 17.0 L40.15 22.25 32.4 20.0 Q31.1 22.95 30.55 25.85 L30.45 25.85 Q27.15 24.35 24.75 22.1 23.6 27.1 21.65 27.25 L20.5 23.9 18.6 27.65 12.75 22.75 Q10.65 24.8 8.35 28.55 5.55 25.85 2.65 23.7 L-3.0 29.2 Q-5.8 26.3 -8.55 24.05 -11.45 26.55 -13.6 29.2 -15.9 26.35 -17.55 25.9 L-17.55 30.8 Q-22.1 29.3 -24.35 23.9 L-25.5 24.2 -32.05 25.85 Q-34.55 22.7 -36.5 18.4 -42.25 21.15 -45.0 19.9 L-42.9 17.1 Q-44.3 14.85 -44.55 10.85 -47.0 10.5 -50.9 10.85 -49.75 7.65 -49.8 5.05 -54.4 4.7 -57.05 1.05 -46.25 -2.65 -41.75 -7.2 M29.3 5.2 L38.65 17.0 M16.25 9.2 L16.25 9.25 20.5 23.9 M-17.55 8.3 L-17.55 25.9 M-15.9 0.5 L-17.55 8.3 M-26.0 -3.2 L-30.85 2.35 -42.9 17.1" fill="none" stroke="#000000" stroke-linecap="round" stroke-linejoin="round" stroke-opacity="0.6" stroke-width="1.2000000000000002"/>
  </g>
</svg>
