<?xml version="1.0" encoding="UTF-8" standalone="no"?>
<svg xmlns:xlink="http://www.w3.org/1999/xlink" height="38.0px" width="114.1px" xmlns="http://www.w3.org/2000/svg">
  <g transform="matrix(1.0, 0.0, 0.0, 1.0, 57.05, 19.0)">
    <path d="M-41.75 -19.0 Q-39.95 -11.3 -30.85 -9.45 L-26.0 -15.0 -25.5 -14.95 Q-20.35 -14.15 -15.9 -11.3 L-17.55 -3.5 Q0.4 1.65 16.25 -2.6 L14.55 -9.3 Q19.85 -11.4 27.4 -11.45 L29.3 -6.6 30.45 -6.85 Q41.75 -9.8 44.45 -15.15 48.65 -10.8 57.05 -7.9 50.9 -4.9 48.3 -5.25 47.7 -2.6 48.45 1.6 44.75 0.5 42.2 0.6 41.4 3.05 41.75 6.75 39.55 4.95 38.65 5.2 L40.15 10.45 32.4 8.2 Q31.1 11.15 30.55 14.05 L30.45 14.05 Q27.15 12.55 24.75 10.3 23.6 15.3 21.65 15.45 L20.5 12.1 18.6 15.85 12.75 10.95 Q10.65 13.0 8.35 16.75 5.55 14.05 2.65 11.9 L-3.0 17.4 Q-5.8 14.5 -8.55 12.25 -11.45 14.75 -13.6 17.4 -15.9 14.55 -17.55 14.1 L-17.55 19.0 Q-22.1 17.5 -24.35 12.1 L-25.5 12.4 -32.05 14.05 Q-34.55 10.9 -36.5 6.6 -42.25 9.35 -45.0 8.1 L-42.9 5.3 Q-44.3 3.05 -44.55 -0.95 -47.0 -1.3 -50.9 -0.95 -49.75 -4.15 -49.8 -6.75 -54.4 -7.1 -57.05 -10.75 -46.25 -14.45 -41.75 -19.0" fill="#eabfff" fill-opacity="0.7019608" fill-rule="evenodd" stroke="none"/>
  </g>
</svg>
