<?xml version="1.0" encoding="UTF-8" standalone="no"?>
<svg xmlns:xlink="http://www.w3.org/1999/xlink" height="31.3px" width="64.45px" xmlns="http://www.w3.org/2000/svg">
  <g transform="matrix(1.0, 0.0, 0.0, 1.0, 32.25, 15.65)">
    <path d="M22.0 -12.45 Q21.8 -10.5 5.5 -10.25 -19.05 -9.85 -20.05 -12.4 L-19.75 -13.35 Q-19.45 -14.35 -17.95 -15.5 -11.35 -14.05 6.15 -14.0 16.9 -14.3 20.15 -15.65 21.8 -14.3 22.0 -12.45 M27.8 12.45 L28.2 13.0 Q23.65 15.4 20.25 15.4 L16.65 14.95 16.05 14.0 8.95 14.25 Q4.75 15.0 2.75 13.5 L2.75 15.1 -5.4 15.6 Q-9.3 15.85 -10.2 14.7 L-9.95 13.65 -17.85 13.15 Q-21.2 12.95 -21.65 12.5 L-22.0 13.7 -27.95 12.2 -28.9 11.85 -30.3 11.2 -32.25 9.35 -30.45 6.6 -27.25 7.85 Q-24.7 8.7 -20.65 9.15 L-20.3 8.35 -17.05 9.05 -8.95 9.35 -9.3 10.95 -5.45 11.25 2.85 11.0 2.9 10.25 7.8 9.95 Q10.8 9.75 15.2 9.8 L15.35 10.75 18.45 10.65 Q22.6 10.45 26.1 9.05 L25.7 8.15 28.45 7.3 Q30.35 6.55 31.4 5.55 L32.2 7.95 Q32.35 10.15 31.25 11.15 L27.8 12.45" fill="#ff00ff" fill-rule="evenodd" stroke="none"/>
  </g>
</svg>
