<?xml version="1.0" encoding="UTF-8" standalone="no"?>
<svg xmlns:xlink="http://www.w3.org/1999/xlink" height="33.3px" width="66.45px" xmlns="http://www.w3.org/2000/svg">
  <g transform="matrix(1.0, 0.0, 0.0, 1.0, 33.25, 16.65)">
    <path d="M26.1 9.05 L25.7 8.15 17.9 -7.55 17.7 -8.05 M-20.05 -12.4 L-24.2 -4.4 Q-27.4 1.7 -30.45 6.6 L-32.25 9.35 -30.3 11.2 -28.9 11.85 -27.95 12.2 -22.0 13.7 -21.65 12.5 Q-21.2 12.95 -17.85 13.15 L-9.95 13.65 -10.2 14.7 Q-9.3 15.85 -5.4 15.6 L2.75 15.1 2.75 13.5 Q4.75 15.0 8.95 14.25 L16.05 14.0 16.65 14.95 20.25 15.4 Q23.65 15.4 28.2 13.0 L27.8 12.45 31.25 11.15 Q32.35 10.15 32.2 7.95 L31.4 5.55 Q30.15 2.15 27.35 -2.75 25.3 -6.25 22.0 -12.45 21.8 -14.3 20.15 -15.65 16.9 -14.3 6.15 -14.0 -11.35 -14.05 -17.95 -15.5 -19.45 -14.35 -19.75 -13.35 L-20.05 -12.4 M-20.65 9.15 L-20.3 8.35 -13.7 -7.0 M26.1 9.05 L27.8 12.45 M15.35 10.75 L16.05 14.0 M15.35 10.75 L15.2 9.8 11.4 -7.5 M2.9 10.25 L2.85 11.0 2.75 13.5 M-9.3 10.95 L-9.95 13.65 M3.5 -7.35 L2.9 10.25 M-5.45 -6.35 L-8.95 9.35 -9.3 10.95 M-20.65 9.15 L-21.65 12.5" fill="none" stroke="#000000" stroke-linecap="round" stroke-linejoin="round" stroke-width="2.0"/>
    <path d="M22.0 -12.45 Q21.8 -10.5 5.5 -10.25 -19.05 -9.85 -20.05 -12.4 M-30.45 6.6 L-27.25 7.85 Q-24.7 8.7 -20.65 9.15 M31.4 5.55 Q30.35 6.55 28.45 7.3 L25.7 8.15 M26.1 9.05 Q22.6 10.45 18.45 10.65 L15.35 10.75 M15.2 9.8 Q10.8 9.75 7.8 9.95 L2.9 10.25 M-8.95 9.35 L-17.05 9.05 -20.3 8.35 M-9.3 10.95 L-5.45 11.25 2.85 11.0" fill="none" stroke="#000000" stroke-linecap="round" stroke-linejoin="round" stroke-width="1.0"/>
  </g>
</svg>
