<?xml version="1.0" encoding="UTF-8" standalone="no"?>
<svg xmlns:xlink="http://www.w3.org/1999/xlink" height="21.9px" width="51.35px" xmlns="http://www.w3.org/2000/svg">
  <g transform="matrix(1.0, 0.0, 0.0, 1.0, 25.7, 10.95)">
    <path d="M-17.8 -0.35 L-15.0 0.0 -14.6 0.05 -14.05 0.1 -13.95 0.1 -13.75 0.15 -13.65 0.15 -11.0 0.35 -8.85 0.55 -8.15 -4.1 -13.1 -4.65 -16.2 -5.0 -17.8 -0.35 M-20.65 -0.65 L-18.8 -5.3 -19.95 -5.45 -20.7 -10.95 Q-17.5 -10.55 -12.8 -8.8 L-7.6 -6.7 1.9 -4.45 1.5 -3.6 1.15 -3.5 -2.6 -3.7 -5.5 -3.9 -6.15 0.85 -6.05 0.85 -5.65 0.9 -5.7 1.0 -5.75 1.9 Q-5.65 2.8 -4.95 3.35 L-3.85 3.9 -1.95 4.15 5.25 2.85 Q6.4 3.65 7.8 4.3 L8.0 4.25 Q9.8 3.45 11.1 1.6 L11.35 1.6 18.55 1.05 18.75 1.05 18.1 -4.2 13.05 -3.55 Q12.95 -4.45 12.3 -5.0 19.25 -7.7 23.4 -8.8 L22.35 -5.3 20.75 -4.8 21.4 0.3 21.5 0.25 22.8 -0.5 22.95 -0.6 22.95 -0.65 23.1 -0.1 Q24.4 3.8 25.65 5.1 L24.55 6.7 23.4 7.6 Q22.7 8.15 21.75 8.55 21.45 6.6 19.45 2.75 18.7 5.75 19.1 9.3 10.05 11.15 2.95 10.95 L-5.45 10.35 Q-5.4 7.1 -7.4 2.1 -10.5 5.85 -11.6 9.05 -19.95 7.6 -25.7 5.2 -23.8 2.85 -22.35 -0.85 L-20.65 -0.65" fill="#391c56" fill-rule="evenodd" stroke="none"/>
  </g>
</svg>
