<?xml version="1.0" encoding="UTF-8" standalone="no"?>
<svg xmlns:xlink="http://www.w3.org/1999/xlink" height="84.5px" width="56.25px" xmlns="http://www.w3.org/2000/svg">
  <g transform="matrix(1.0, 0.0, 0.0, 1.0, 28.1, 42.25)">
    <path d="M4.2 -34.85 Q5.3 -35.4 6.5 -35.4 L8.75 -34.9 15.35 -35.75 Q16.05 -35.0 16.45 -33.7 L16.6 -33.75 16.65 -33.75 Q17.55 -33.75 18.15 -32.65 18.8 -31.6 18.8 -30.0 18.8 -28.5 18.15 -27.4 17.65 -26.45 16.9 -26.25 L16.85 -26.25 Q16.65 -24.7 16.2 -24.05 L15.8 -23.85 Q18.4 -12.4 19.25 1.6 20.9 14.45 26.2 24.25 L27.4 26.45 Q22.1 33.8 14.05 36.1 L13.15 41.5 Q13.2 40.45 12.55 39.6 10.2 36.6 -1.45 36.9 L-9.55 37.25 Q-7.2 18.25 -9.55 1.65 L-13.8 -27.7 Q-20.8 -29.85 -27.2 -33.15 -27.85 -35.95 -25.65 -41.5 L-18.85 -39.2 Q-6.1 -35.2 4.2 -34.85 3.25 -34.4 2.45 -33.5 1.55 -32.45 1.15 -31.15 L0.9 -29.95 0.8 -28.85 Q0.8 -27.4 1.25 -26.15 1.65 -25.2 2.35 -24.3 L2.45 -24.2 3.2 -23.45 Q4.65 -22.3 6.5 -22.3 7.85 -22.3 9.0 -22.9 L9.7 -23.45 10.0 -23.7 10.4 -24.1 10.5 -24.2 11.1 -25.0 11.35 -25.4 Q12.2 -26.95 12.2 -28.85 12.2 -31.55 10.5 -33.5 L8.75 -34.9 M9.2 -31.7 Q10.15 -30.55 10.15 -28.9 10.15 -27.25 9.2 -26.1 8.25 -24.95 6.9 -24.95 5.6 -24.95 4.65 -26.1 3.7 -27.25 3.7 -28.9 3.7 -30.55 4.65 -31.7 5.6 -32.85 6.9 -32.85 8.25 -32.85 9.2 -31.7 M16.85 -26.25 L16.65 -26.25 Q15.75 -26.25 15.1 -27.4 14.5 -28.5 14.5 -30.05 14.5 -31.6 15.1 -32.65 15.7 -33.6 16.45 -33.7 M10.0 -23.7 L12.45 -23.6 15.8 -23.85 M14.05 36.1 Q16.15 21.55 14.05 2.65 11.8 -17.45 9.8 -22.85 L9.7 -23.45 M-11.75 -35.1 Q-11.1 -34.2 -11.15 -32.9 -11.2 -31.65 -11.95 -30.75 -12.7 -29.8 -13.7 -29.8 -14.7 -29.8 -15.35 -30.75 -15.95 -31.65 -15.9 -32.95 -15.85 -34.2 -15.15 -35.1 -14.4 -36.0 -13.4 -36.0 -12.4 -36.0 -11.75 -35.1 M-13.8 -27.7 L-11.95 -27.15 Q-5.1 -25.25 2.35 -24.3 M-8.05 -30.7 Q-8.05 -32.0 -7.35 -32.95 -6.65 -33.9 -5.65 -33.9 -4.6 -33.9 -3.9 -32.95 -3.2 -32.0 -3.2 -30.65 -3.2 -29.35 -3.9 -28.4 -4.6 -27.4 -5.65 -27.4 -6.65 -27.4 -7.35 -28.4 -8.05 -29.35 -8.05 -30.7" fill="none" stroke="#000000" stroke-linecap="round" stroke-linejoin="round" stroke-width="1.5"/>
  </g>
</svg>
