<?xml version="1.0" encoding="UTF-8" standalone="no"?>
<svg xmlns:xlink="http://www.w3.org/1999/xlink" height="16.65px" width="45.6px" xmlns="http://www.w3.org/2000/svg">
  <g transform="matrix(1.0, 0.0, 0.0, 1.0, 22.8, 8.3)">
    <path d="M0.6 -6.0 L0.6 -5.7 0.6 0.5 0.8 1.0 Q5.85 1.4 10.05 0.9 10.25 0.95 10.25 0.05 10.3 -3.6 10.0 -6.0 L9.7 -6.4 Q3.9 -6.8 0.85 -6.45 L0.6 -6.0 -2.3 -6.0 -20.45 -7.55 Q-22.4 -4.0 -21.95 -1.6 L-21.75 -1.5 -17.5 -0.7 -16.8 -0.6 -6.75 0.3 Q-3.9 -3.15 0.6 -5.7 M10.25 0.05 L12.4 -0.05 11.95 -6.1 11.9 -6.1 10.0 -6.0 M14.5 -6.25 L14.95 -0.2 15.95 -0.3 16.25 -0.35 Q19.55 -0.8 21.9 -1.5 22.35 -3.8 21.2 -7.3 L14.5 -6.25 14.45 -6.9 11.9 -6.9 11.95 -6.1 M14.95 -0.2 L15.0 0.75 12.45 0.75 12.4 -0.05 M0.6 0.5 Q-1.9 4.55 -2.65 7.1 -4.2 8.1 -7.1 7.05 -9.5 6.35 -9.4 4.3 -8.3 2.15 -6.75 0.3" fill="none" stroke="#000000" stroke-linecap="round" stroke-linejoin="round" stroke-width="1.5"/>
  </g>
</svg>
