<?xml version="1.0" encoding="UTF-8" standalone="no"?>
<svg xmlns:xlink="http://www.w3.org/1999/xlink" height="41.7px" width="79.05px" xmlns="http://www.w3.org/2000/svg">
  <g transform="matrix(1.0, 0.0, 0.0, 1.0, 39.55, 20.95)">
    <path d="M-28.15 -5.4 Q-26.25 -10.35 -20.7 -14.05 -20.95 -17.15 -19.1 -19.65 -16.85 -17.55 4.7 -17.8 18.1 -18.1 19.65 -20.2 21.45 -17.2 20.85 -14.25 26.95 -9.65 29.75 -4.7 M29.05 -1.85 Q31.65 0.95 33.3 3.8 M33.0 6.95 Q35.6 9.65 37.2 12.45 M-35.55 11.65 Q-34.6 9.3 -32.95 7.15 M-31.75 3.05 Q-30.8 0.5 -28.9 -1.7 M20.85 -14.25 L20.85 -14.2 Q18.65 -11.85 3.45 -11.6 -17.85 -11.55 -20.6 -13.45 L-20.7 -14.05" fill="none" stroke="#000000" stroke-linecap="round" stroke-linejoin="round" stroke-width="1.5"/>
    <path d="M12.45 -0.85 L11.95 -3.1 11.75 -3.15 Q5.0 -4.95 -1.45 -2.8 L-2.0 -2.6 -2.05 -0.05 Q2.05 2.1 5.35 -0.85 9.1 1.35 12.25 -0.55 16.5 1.95 18.85 -0.15 L23.85 -0.3 Q24.85 -0.95 25.65 -2.05 L23.05 -4.45 21.7 -3.6 Q17.9 -1.55 11.95 -3.1 L10.8 -8.1 M23.05 -4.45 Q21.15 -6.4 20.2 -8.05 L19.5 -9.6 M29.75 -4.7 Q32.3 -2.85 30.25 -2.15 L29.05 -1.85 25.65 -2.05 M33.3 3.8 Q36.1 5.9 33.8 6.7 L33.0 6.95 28.65 6.8 26.55 3.65 24.25 5.05 Q19.95 7.35 13.3 5.6 L12.0 0.0 M37.2 12.45 Q40.4 14.75 37.85 15.65 34.55 16.65 32.05 15.75 29.3 19.75 23.55 18.05 20.55 20.55 15.25 17.55 11.25 19.9 6.55 17.2 2.45 20.7 -2.75 18.15 -6.95 21.85 -11.9 19.05 -16.4 20.9 -20.45 17.85 -26.55 19.1 -28.75 16.8 -34.3 18.7 -35.85 16.0 -40.0 16.6 -38.75 14.3 L-35.55 11.65 -36.75 13.5 Q-34.85 12.45 -33.45 12.1 -27.1 11.2 -18.25 14.4 L-18.2 14.45 Q-17.1 12.95 -16.65 10.85 M-32.95 7.15 Q-35.5 7.25 -34.55 5.5 L-31.75 3.05 -32.8 4.75 Q-31.25 3.9 -29.4 3.5 L-29.0 3.4 -27.5 2.0 Q-26.3 0.75 -25.55 -0.5 -24.4 -0.55 -22.75 -1.2 -20.95 0.7 -16.15 -0.3 L-15.0 0.45 -9.35 0.65 Q-5.55 2.85 -2.4 0.25 L-2.05 -0.05 M-28.9 -1.7 Q-31.55 -1.55 -30.65 -3.25 L-28.15 -5.4 -29.05 -3.85 -26.45 -5.1 Q-24.55 -8.4 -21.3 -10.55 M23.05 -4.45 L25.35 -5.25 Q27.75 -5.8 29.75 -4.7 M13.85 8.15 L13.3 5.6 13.1 5.55 Q5.45 3.5 -1.8 5.95 L-2.4 6.15 -2.45 9.05 Q2.2 11.4 5.85 8.15 9.95 10.55 13.4 8.65 L13.65 8.5 Q18.4 11.25 21.05 8.95 25.05 10.15 27.4 8.2 L28.65 6.8 M23.85 -0.3 L26.55 3.65 Q27.6 3.15 28.7 3.0 31.05 2.6 33.3 3.8 M13.4 8.65 L14.8 14.45 Q22.3 16.3 27.1 13.85 28.4 12.9 30.4 12.05 29.3 10.2 27.4 8.2 M37.2 12.45 Q33.55 10.6 30.4 12.05 L32.05 15.75 M15.5 17.2 L14.8 14.45 14.6 14.4 Q6.1 12.2 -2.05 14.8 L-2.7 15.0 -2.75 18.15 M-16.15 -0.75 L-15.05 -3.45 Q-20.75 -5.55 -25.4 -5.2 L-26.45 -5.1 -28.35 -1.8 Q-27.55 -0.4 -25.55 -0.5 M-28.35 -1.8 L-28.9 -1.7 M-12.9 -8.8 L-13.35 -7.1 Q-14.0 -5.1 -15.05 -3.45 L-14.6 -3.25 Q-8.5 -0.85 -2.0 -2.6 L-2.0 -8.2 M-15.0 0.45 L-15.05 0.7 Q-16.0 3.1 -18.0 5.05 L-16.5 5.5 Q-9.7 8.15 -2.4 6.15 L-2.4 0.25 M-19.7 8.45 Q-19.25 6.7 -18.0 5.05 -24.15 2.6 -29.0 3.4 L-32.0 7.05 Q-31.4 8.05 -30.25 8.4 -28.6 8.85 -25.65 7.8 -23.7 9.9 -19.3 8.65 -14.65 11.6 -10.6 9.85 -6.35 12.35 -2.7 9.35 L-2.45 9.05 M-30.25 8.4 Q-32.25 10.0 -33.45 12.1 L-35.85 16.0 M-18.2 14.45 Q-10.75 17.15 -2.7 15.0 L-2.7 9.35 M-32.0 7.05 L-32.95 7.15 M-20.5 17.3 L-18.25 14.4" fill="none" stroke="#000000" stroke-linecap="round" stroke-linejoin="round" stroke-width="1.0"/>
  </g>
</svg>
