<?xml version="1.0" encoding="UTF-8" standalone="no"?>
<svg xmlns:xlink="http://www.w3.org/1999/xlink" height="28.4px" width="69.0px" xmlns="http://www.w3.org/2000/svg">
  <g transform="matrix(1.0, 0.0, 0.0, 1.0, 34.5, 14.2)">
    <path d="M-20.2 -13.65 Q-17.85 -11.45 4.65 -11.7 18.65 -12.0 20.25 -14.2 22.15 -11.1 21.5 -8.0 L21.5 -7.95 Q19.2 -5.5 3.35 -5.25 -18.9 -5.2 -21.75 -7.15 L-21.85 -7.8 Q-22.15 -11.0 -20.2 -13.65 M13.6 12.75 L13.4 12.7 Q5.45 10.55 -2.15 13.1 L-2.75 13.3 Q-10.4 15.4 -17.5 12.6 L-19.05 12.15 Q-25.5 9.6 -30.55 10.45 L-30.95 10.55 Q-32.9 10.95 -34.5 11.85 L-33.4 10.05 Q-32.4 7.4 -30.45 5.1 L-29.85 5.0 Q-29.05 6.45 -26.95 6.35 -25.75 6.3 -24.0 5.65 -22.15 7.6 -17.1 6.55 L-15.9 7.35 -10.0 7.55 Q-6.05 9.85 -2.75 7.15 L-2.4 6.85 Q1.9 9.05 5.3 6.0 9.25 8.3 12.55 6.3 16.95 8.9 19.4 6.7 L24.65 6.55 26.5 4.75 30.05 4.95 Q32.8 7.85 34.5 10.85 32.15 9.6 29.7 10.0 28.55 10.15 27.45 10.7 26.25 11.25 25.05 12.15 20.55 14.55 13.6 12.75" fill="#ffb8e3" fill-rule="evenodd" stroke="none"/>
  </g>
</svg>
