<?xml version="1.0" encoding="UTF-8" standalone="no"?>
<svg xmlns:xlink="http://www.w3.org/1999/xlink" height="30.8px" width="56.25px" xmlns="http://www.w3.org/2000/svg">
  <g transform="matrix(1.0, 0.0, 0.0, 1.0, 28.15, 15.4)">
    <path d="M-8.85 -8.9 L-2.15 -8.5 0.75 -8.5 1.0 -8.95 Q4.05 -9.3 9.85 -8.9 L10.15 -8.5 12.05 -8.6 19.2 -9.35 17.85 -14.35 Q21.8 -14.85 23.0 -12.55 L23.8 -9.95 Q26.1 -2.05 27.2 4.3 27.95 8.5 28.1 12.0 L26.3 9.15 Q24.25 6.3 21.1 3.25 21.15 0.35 20.45 -3.55 L16.4 -2.85 16.1 -2.8 10.4 -2.45 Q10.4 -1.55 10.2 -1.6 6.0 -1.1 0.95 -1.5 L0.75 -2.0 0.3 -2.0 -9.7 -2.4 -10.4 6.4 Q-19.7 10.15 -26.4 14.3 L-28.15 15.4 -28.05 10.65 Q-27.4 -1.15 -21.6 -11.9 L-19.6 -15.35 Q-14.25 -15.65 -7.8 -13.65 L-8.85 -8.9" fill="#cbcbcb" fill-rule="evenodd" stroke="none"/>
  </g>
</svg>
