<?xml version="1.0" encoding="UTF-8" standalone="no"?>
<svg xmlns:xlink="http://www.w3.org/1999/xlink" height="37.35px" width="74.55px" xmlns="http://www.w3.org/2000/svg">
  <g transform="matrix(1.0, 0.0, 0.0, 1.0, 37.3, 18.65)">
    <path d="M19.75 1.9 Q20.3 -0.4 20.3 -3.05 22.35 -1.15 24.6 -0.15 28.75 1.75 33.5 0.55 29.4 -7.4 21.6 -13.9 18.65 -12.25 12.35 -11.7 -6.6 -10.0 -19.4 -12.4 -25.15 -8.65 -28.95 -4.5 -31.5 -1.15 -31.5 1.5 -31.2 5.75 -25.25 5.9 -19.4 5.8 -11.65 0.95 L-10.65 0.3 -8.35 -1.25 -6.9 2.95 Q-2.7 12.5 8.8 12.0 17.85 10.15 19.75 1.9 L22.15 12.2 28.05 9.55 24.6 -0.15 M21.6 -13.9 L19.7 -17.65 Q18.6 -15.95 7.9 -15.5 -11.75 -15.0 -17.5 -16.6 L-19.4 -12.4 M33.5 0.55 Q35.15 3.75 36.25 7.2 33.8 10.35 29.2 12.6 L28.05 9.55 M22.15 12.2 L22.8 14.95 Q14.8 17.2 2.8 17.7 -4.0 17.75 -9.7 17.4 L-9.75 17.65 M-11.65 0.95 L-16.8 14.45 -9.25 15.05 -6.9 2.95 M-9.7 17.4 L-9.25 15.05 M-16.8 14.45 L-17.6 16.6 Q-32.55 14.5 -36.3 8.7 -34.75 1.75 -28.95 -4.5" fill="none" stroke="#000000" stroke-linecap="round" stroke-linejoin="round" stroke-width="2.0"/>
  </g>
</svg>
