<?xml version="1.0" encoding="UTF-8" standalone="no"?>
<svg xmlns:xlink="http://www.w3.org/1999/xlink" height="25.55px" width="63.05px" xmlns="http://www.w3.org/2000/svg">
  <g transform="matrix(1.0, 0.0, 0.0, 1.0, 31.55, 12.75)">
    <path d="M26.0 4.0 L23.75 5.95 25.05 7.2 Q21.35 9.1 16.15 10.65 L14.7 8.35 10.65 9.45 11.5 11.65 -0.7 12.8 -0.45 10.3 -4.5 10.3 -4.8 12.75 Q-11.45 12.6 -17.5 10.95 L-16.5 8.8 -21.0 6.85 -23.2 9.05 Q-27.55 7.25 -31.55 4.65 L-22.2 -3.55 -17.6 -12.2 Q2.4 -7.75 18.05 -12.75 19.5 -8.75 22.35 -4.75 L31.5 2.5 Q30.05 4.15 27.8 5.65 L26.0 4.0" fill="#bd3a3a" fill-rule="evenodd" stroke="none"/>
  </g>
</svg>
