<?xml version="1.0" encoding="UTF-8" standalone="no"?>
<svg xmlns:xlink="http://www.w3.org/1999/xlink" height="32.95px" width="26.4px" xmlns="http://www.w3.org/2000/svg">
  <g transform="matrix(1.0, 0.0, 0.0, 1.0, 13.2, 16.5)">
    <path d="M12.35 -3.65 L12.3 -3.65 Q12.65 -1.65 12.4 -0.3 12.15 0.85 11.5 1.95 13.95 4.9 12.85 8.75 11.8 9.8 10.4 9.8 13.7 14.1 11.0 16.0 L10.5 16.2 6.55 16.05 4.1 14.65 3.9 14.85 Q3.0 15.35 2.1 15.55 L-0.45 15.45 -0.9 15.3 Q-3.0 14.4 -4.15 13.0 -5.25 11.75 -5.55 10.2 L-5.7 8.75 -7.2 8.7 Q-11.15 8.2 -13.1 4.75 -13.6 1.85 -11.3 -1.3 -12.5 -3.55 -11.6 -6.8 -10.3 -9.25 -6.65 -8.85 -7.5 -12.2 -4.3 -14.45 -1.25 -15.05 0.65 -14.1 3.2 -17.75 5.6 -15.85 6.9 -14.65 7.5 -12.15 8.0 -9.6 8.6 -8.4 11.65 -6.7 12.35 -3.65" fill="#d591ff" fill-rule="evenodd" stroke="none"/>
  </g>
</svg>
