<?xml version="1.0" encoding="UTF-8" standalone="no"?>
<svg xmlns:xlink="http://www.w3.org/1999/xlink" height="48.9px" width="86.5px" xmlns="http://www.w3.org/2000/svg">
  <g transform="matrix(1.0, 0.0, 0.0, 1.0, 43.25, 24.45)">
    <path d="M14.4 -22.55 Q15.6 -23.15 15.6 -23.55 16.8 -21.3 16.6 -19.7 L16.6 -19.65 18.5 -15.9 Q28.3 -7.65 37.15 -2.0 L39.55 -0.45 39.4 0.2 Q42.4 0.55 42.5 3.35 42.05 6.65 38.8 6.85 39.8 10.15 38.0 11.55 35.3 13.0 33.3 11.9 31.2 16.15 27.65 13.6 24.75 13.65 25.35 10.65 24.15 10.95 22.35 10.25 21.75 12.15 19.8 12.55 L18.25 12.8 Q19.8 16.6 15.5 17.25 15.85 21.9 10.75 20.85 8.4 24.35 3.5 22.15 -1.35 25.55 -4.95 21.45 -9.65 22.35 -9.5 17.8 -12.55 16.6 -11.2 14.45 -14.45 15.25 -14.95 11.4 -16.55 12.95 -18.55 12.35 -18.4 16.65 -22.1 16.4 -22.65 18.55 -25.1 18.7 -27.85 18.6 -29.05 16.5 -31.05 17.7 -33.25 16.75 -35.9 15.55 -36.0 13.55 -39.55 13.9 -41.0 10.4 -41.2 9.15 -40.7 8.25 -43.5 6.05 -41.9 4.35 -41.0 3.35 -39.05 3.15 L-39.05 3.1 -36.7 1.6 Q-30.8 -5.25 -20.2 -14.65 L-17.75 -18.35 -17.8 -18.35 Q-18.05 -20.95 -17.0 -22.75 -13.35 -21.75 -8.15 -21.3 L-8.15 -21.35 Q-7.95 -23.3 -6.5 -23.35 -5.05 -23.35 -4.8 -21.2 L12.15 -21.85 12.1 -22.1 Q12.55 -23.75 13.4 -23.7 14.2 -23.35 14.4 -22.55 L14.45 -22.1 14.75 -17.75 14.8 -17.35 Q16.4 -17.95 16.6 -19.55 L16.6 -19.65 M14.8 -17.35 Q14.75 -16.3 14.05 -16.0 12.85 -15.9 12.5 -17.2 8.6 -15.2 -4.95 -16.2 -5.8 -15.0 -6.8 -15.1 -8.05 -15.3 -8.45 -16.55 -14.4 -17.25 -17.75 -18.35 M12.15 -21.85 L12.5 -17.2 M27.55 4.55 Q28.5 6.4 28.15 7.95 34.45 4.55 37.15 -2.0 M28.15 7.95 Q27.8 9.1 26.7 10.05 M27.55 4.55 Q24.95 2.4 18.25 4.1 11.85 5.65 11.2 10.5 L11.15 10.9 Q10.8 16.05 6.1 16.45 -1.3 16.7 -3.95 15.15 -5.5 14.2 -6.8 12.5 L-8.6 9.45 Q-10.5 5.2 -15.75 4.7 -21.25 3.7 -22.9 7.75 -23.35 10.95 -26.7 11.45 -34.7 9.7 -36.7 1.6 M26.05 10.35 L25.35 10.65 M15.85 11.8 Q16.55 12.8 18.25 12.8 M-4.95 -16.2 Q-4.6 -17.6 -4.8 -21.05 L-4.8 -21.2 M-8.15 -21.3 L-8.45 -16.55 M-10.95 14.35 L-11.2 14.45 M-18.55 12.35 Q-19.55 12.05 -20.6 11.35" fill="none" stroke="#000000" stroke-linecap="round" stroke-linejoin="round" stroke-width="1.5"/>
    <path d="M39.4 0.2 Q38.0 4.65 34.65 7.2 29.3 11.5 26.7 10.05 29.45 6.35 23.6 6.35 14.4 7.15 14.25 11.6 15.75 16.2 10.25 18.15 2.0 19.95 -5.2 17.3 -9.25 16.25 -9.75 14.05 -12.45 7.65 -16.9 7.1 -20.95 6.7 -21.7 10.7 -22.65 13.9 -25.65 14.25 -33.45 13.8 -36.7 9.65 L-38.65 6.5 Q-39.2 5.95 -39.05 3.15 M13.3 -12.35 Q17.6 -5.0 26.15 2.45 L27.55 4.55 M11.2 10.5 L10.05 1.4 M-22.9 7.75 Q-21.45 -3.05 -17.45 -13.9 M-6.8 12.5 Q-9.2 8.0 -4.25 -11.35" fill="none" stroke="#000000" stroke-linecap="round" stroke-linejoin="round" stroke-width="1.0"/>
  </g>
</svg>
