<?xml version="1.0" encoding="UTF-8" standalone="no"?>
<svg xmlns:xlink="http://www.w3.org/1999/xlink" height="46.35px" width="90.3px" xmlns="http://www.w3.org/2000/svg">
  <g transform="matrix(1.0, 0.0, 0.0, 1.0, 45.15, 23.15)">
    <path d="M5.6 -22.65 L10.45 -22.8 15.55 -23.15 15.85 -20.4 15.4 -20.5 Q15.0 -20.5 14.65 -20.15 14.3 -19.8 14.3 -19.35 14.3 -18.9 14.65 -18.55 15.0 -18.2 15.4 -18.2 L16.05 -18.4 16.2 -17.45 16.4 -15.65 10.65 -15.2 5.55 -15.05 5.75 -17.85 5.6 -22.65 M24.8 15.15 Q29.9 14.2 34.85 11.4 39.75 8.6 40.95 5.0 48.0 8.0 43.15 10.3 44.05 13.45 42.65 14.5 40.9 15.45 39.25 14.85 39.65 16.95 38.2 18.0 35.7 19.45 33.15 17.8 31.7 20.5 28.85 20.45 25.9 20.4 24.8 15.15 M11.6 -19.1 L11.25 -19.9 Q10.9 -20.25 10.45 -20.25 L9.65 -19.9 Q9.3 -19.55 9.3 -19.1 9.3 -18.6 9.65 -18.25 10.0 -17.9 10.45 -17.9 10.9 -17.9 11.25 -18.25 11.6 -18.6 11.6 -19.1 M-39.1 4.45 Q-38.2 10.1 -30.5 13.2 -22.8 16.3 -13.3 16.7 -14.4 22.55 -19.1 23.2 -22.85 23.25 -24.85 20.0 -27.9 22.5 -31.65 22.1 -35.0 21.85 -35.3 17.4 -39.6 18.95 -41.9 17.7 -44.8 16.25 -42.85 12.2 -46.55 9.75 -44.25 7.15 -42.15 4.5 -39.1 4.45" fill="#ffffff" fill-rule="evenodd" stroke="none"/>
  </g>
</svg>
