<?xml version="1.0" encoding="UTF-8" standalone="no"?>
<svg xmlns:xlink="http://www.w3.org/1999/xlink" height="7.6px" width="14.1px" xmlns="http://www.w3.org/2000/svg">
  <g transform="matrix(1.0, 0.0, 0.0, 1.0, 5.55, 3.55)">
    <path d="M8.2 -0.8 L8.55 0.0 8.2 0.85 7.4 1.2 Q6.95 1.2 6.6 0.85 6.25 0.5 6.25 0.0 6.25 -0.45 6.6 -0.8 6.95 -1.15 7.4 -1.15 L8.2 -0.8" fill="#333333" fill-rule="evenodd" stroke="none"/>
    <path d="M-5.25 1.9 L-4.55 -3.55 2.55 -3.55 2.7 1.25 Q1.05 2.2 -2.1 2.15 L-5.25 1.9" fill="#eec9b3" fill-rule="evenodd" stroke="none"/>
    <path d="M2.7 1.25 L2.5 4.05 -5.55 3.95 -5.4 2.95 -5.25 1.9 -2.1 2.15 Q1.05 2.2 2.7 1.25" fill="#ad887a" fill-rule="evenodd" stroke="none"/>
  </g>
</svg>
