<?xml version="1.0" encoding="UTF-8" standalone="no"?>
<svg xmlns:xlink="http://www.w3.org/1999/xlink" height="9.15px" width="54.75px" xmlns="http://www.w3.org/2000/svg">
  <g transform="matrix(1.0, 0.0, 0.0, 1.0, 27.4, 4.55)">
    <path d="M27.35 -2.0 Q24.0 0.65 19.95 0.6 L20.0 1.15 Q15.2 3.6 10.0 2.45 L10.05 2.95 Q9.3 4.0 6.3 4.45 L-1.8 4.1 Q-8.6 5.45 -14.65 2.1 L-14.75 2.05 Q-19.6 2.95 -22.45 0.65 L-22.3 -0.15 Q-25.95 -1.05 -27.4 -2.5 L-26.75 -4.55 Q-25.95 -3.45 -21.75 -2.3 L-21.95 -1.5 Q-19.6 0.55 -14.3 0.15 -8.75 3.0 -1.35 1.95 L-1.2 1.9 Q0.35 2.45 6.3 2.05 9.3 1.6 9.7 0.6 L9.65 0.25 Q15.2 1.2 19.75 -1.4 L19.7 -1.9 Q24.0 -1.75 27.1 -4.4 L27.35 -2.0" fill="#3a2f41" fill-rule="evenodd" stroke="none"/>
  </g>
</svg>
