<?xml version="1.0" encoding="UTF-8" standalone="no"?>
<svg xmlns:xlink="http://www.w3.org/1999/xlink" height="37.55px" width="57.35px" xmlns="http://www.w3.org/2000/svg">
  <g transform="matrix(1.0, 0.0, 0.0, 1.0, 28.7, 18.75)">
    <path d="M-18.6 -16.85 L-18.65 -16.9 -17.4 -18.75 Q-2.4 -15.85 6.1 -16.25 L18.65 -17.5 Q19.75 -17.0 19.95 -15.7 L19.8 -15.6 Q16.35 -13.9 5.1 -13.45 -11.05 -13.6 -18.6 -16.85 M26.0 10.8 L26.5 13.65 Q23.0 17.15 16.95 16.75 L16.9 17.35 Q12.65 19.85 4.85 18.05 -2.1 19.4 -6.0 17.4 L-6.05 17.35 Q-13.55 18.55 -17.45 15.55 L-17.35 14.95 Q-23.4 14.95 -26.85 9.2 L-26.55 8.25 Q-28.4 6.85 -28.7 4.6 L-28.0 2.7 Q-28.3 4.3 -25.95 6.45 L-26.2 7.15 Q-23.3 12.35 -16.85 12.5 L-17.0 13.05 Q-13.45 15.95 -5.6 14.75 L-5.55 14.8 Q-2.0 16.8 4.95 15.45 L5.15 15.5 Q12.85 17.2 17.05 14.8 L17.05 14.3 Q22.8 14.55 25.65 11.2 L25.95 10.85 26.0 10.8 25.55 8.45 Q27.95 7.3 28.15 6.45 L28.65 8.3 Q28.05 9.7 26.0 10.8" fill="#d38cff" fill-rule="evenodd" stroke="none"/>
  </g>
</svg>
