<?xml version="1.0" encoding="UTF-8" standalone="no"?>
<svg xmlns:xlink="http://www.w3.org/1999/xlink" height="11.55px" width="45.95px" xmlns="http://www.w3.org/2000/svg">
  <g transform="matrix(1.0, 0.0, 0.0, 1.0, 22.95, 5.8)">
    <path d="M21.25 -4.45 L21.35 -4.6 Q22.65 -1.55 22.15 1.1 L21.75 1.4 Q22.3 -1.55 21.25 -4.45" fill="#dba990" fill-rule="evenodd" stroke="none"/>
    <path d="M3.7 -2.95 L1.25 -2.9 1.25 -2.05 1.25 3.65 1.25 4.95 3.7 4.9 3.7 2.85 3.7 -1.0 3.7 -2.95 10.5 -3.15 Q11.7 -3.6 12.95 -3.15 L12.95 -2.25 12.95 3.25 12.95 4.7 10.5 4.75 3.7 4.9 M18.65 -3.15 L18.5 -3.95 20.9 -5.3 21.25 -4.45 Q22.3 -1.55 21.75 1.4 L21.55 2.35 18.5 3.6 18.7 2.5 Q19.1 -0.5 18.65 -3.15 M16.5 -0.45 L16.75 0.1 16.5 0.65 15.95 0.9 15.4 0.65 15.2 0.1 15.4 -0.45 15.95 -0.65 16.5 -0.45 M3.7 -1.0 L10.5 -1.15 10.5 -3.15 M10.5 -1.15 L10.5 2.75 10.5 4.75 M10.5 2.75 L3.7 2.85 M-16.55 -3.2 L-16.35 -3.8 -11.95 -3.65 -12.05 -2.7 -12.45 3.3 -12.5 4.5 Q-15.6 4.85 -17.2 4.0 L-17.25 2.75 Q-17.4 -0.6 -16.55 -3.2 M-1.8 0.25 Q-1.55 0.45 -1.55 0.8 -1.55 1.15 -1.8 1.35 L-2.35 1.6 -2.9 1.35 -3.1 0.8 -2.9 0.25 -2.35 0.05 -1.8 0.25 M-7.7 1.35 L-8.25 1.1 -8.45 0.55 -8.25 0.0 -7.7 -0.2 -7.15 0.0 Q-6.9 0.2 -6.9 0.55 -6.9 0.9 -7.15 1.1 L-7.7 1.35" fill="none" stroke="#000000" stroke-linecap="round" stroke-linejoin="round" stroke-width="1.0"/>
    <path d="M12.95 -2.25 L18.65 -3.15 M21.25 -4.45 L21.35 -4.6 Q22.65 -1.55 22.15 1.1 L21.75 1.4 M18.7 2.5 L12.95 3.25 M-17.25 2.75 Q-20.8 2.1 -22.15 1.1 -22.65 -2.25 -20.3 -4.6 -20.1 -3.8 -16.55 -3.2 M-12.05 -2.7 L1.25 -2.05 M-12.45 3.3 Q-7.0 3.7 1.25 3.65" fill="none" stroke="#000000" stroke-linecap="round" stroke-linejoin="round" stroke-width="1.4000000000000001"/>
  </g>
</svg>
