<?xml version="1.0" encoding="UTF-8" standalone="no"?>
<svg xmlns:xlink="http://www.w3.org/1999/xlink" height="30.75px" width="71.35px" xmlns="http://www.w3.org/2000/svg">
  <g transform="matrix(1.0, 0.0, 0.0, 1.0, 35.7, 15.35)">
    <path d="M25.1 -9.35 Q26.35 -8.3 24.85 -7.05 23.3 -5.85 21.55 -5.3 18.15 -4.0 13.4 -5.2 11.35 -6.4 10.35 -9.45 5.2 -8.85 2.25 -9.6 0.4 -10.15 -0.55 -15.35 2.75 -14.1 9.35 -15.1 9.5 -12.5 10.05 -10.55 L18.75 -10.9 Q22.9 -12.0 22.7 -13.15 23.85 -10.6 25.1 -9.35 M35.65 0.95 Q34.15 10.25 28.4 14.05 L27.15 15.0 Q26.35 14.0 26.45 12.05 26.8 9.8 26.65 6.65 33.05 1.9 33.7 -4.35 34.45 -1.65 35.65 0.95 M-26.1 4.5 Q-33.55 1.35 -35.35 -2.15 -36.5 -4.8 -33.8 -9.6 -34.1 -3.45 -23.4 0.2 -14.55 2.55 -11.85 6.25 -11.95 8.15 -12.35 10.15 -13.5 15.55 -13.75 15.4 L-16.35 11.35 Q-18.6 7.6 -26.1 4.5" fill="#ff79d9" fill-rule="evenodd" stroke="none"/>
  </g>
</svg>
