<?xml version="1.0" encoding="UTF-8" standalone="no"?>
<svg xmlns:xlink="http://www.w3.org/1999/xlink" height="55.15px" width="73.75px" xmlns="http://www.w3.org/2000/svg">
  <g transform="matrix(1.0, 0.0, 0.0, 1.0, 36.9, 27.55)">
    <path d="M-14.5 -23.75 Q-13.15 -25.6 -13.05 -27.55 -11.6 -26.25 2.95 -25.8 17.45 -25.4 21.1 -27.45 L22.15 -23.8 22.15 -23.75 27.6 -12.7 Q34.8 5.4 36.5 17.15 L36.8 19.2 Q37.2 22.7 32.75 23.75 L25.3 23.95 Q22.95 26.55 11.5 27.4 -0.05 28.25 -8.95 25.4 L-9.05 24.75 -9.5 25.4 Q-15.7 26.2 -25.6 24.2 -35.9 22.15 -36.9 18.0 L-36.15 15.2 Q-34.75 11.05 -31.15 6.15 -29.25 -1.1 -22.35 -12.7 -18.85 -18.4 -14.5 -23.75" fill="#5b4551" fill-rule="evenodd" stroke="none"/>
  </g>
</svg>
