<?xml version="1.0" encoding="UTF-8" standalone="no"?>
<svg xmlns:xlink="http://www.w3.org/1999/xlink" height="48.6px" width="83.0px" xmlns="http://www.w3.org/2000/svg">
  <g transform="matrix(1.0, 0.0, 0.0, 1.0, 41.5, 24.4)">
    <path d="M-16.05 -19.55 Q-28.1 -7.85 -38.9 10.15 L-38.05 11.15 Q-30.55 18.5 6.55 19.0 24.8 18.9 38.85 11.65 L39.55 11.25 Q32.8 -5.25 17.55 -18.95 L17.95 -19.55 Q18.05 -21.7 17.05 -23.65 16.6 -21.4 4.85 -21.15 -13.75 -20.7 -16.05 -23.5 -16.7 -22.05 -16.05 -19.55" fill="none" stroke="#000000" stroke-linecap="round" stroke-linejoin="round" stroke-width="1.5"/>
    <path d="M17.55 -18.95 Q16.8 -18.35 14.75 -17.85 23.95 -7.6 28.8 2.2 30.9 6.85 29.05 6.65 26.85 5.45 24.7 7.55 22.9 8.95 19.25 7.85 17.7 7.4 13.2 9.65 6.45 12.45 1.1 7.9 -3.45 4.8 -10.65 7.1 -20.55 8.9 -23.85 5.1 -12.85 -4.45 -8.55 -17.15 -14.3 -17.85 -16.05 -19.55 M12.45 -10.2 Q10.95 -15.25 8.05 -17.05 L2.15 -16.85 Q4.55 -14.45 4.15 -8.2 M2.15 -16.85 L2.1 -16.85 -8.55 -17.15 M14.75 -17.85 L8.05 -17.05 M12.05 -17.05 Q15.4 -15.4 15.9 -10.4 M-38.05 11.15 Q-41.25 12.9 -40.95 14.65 L-38.3 14.75 Q-37.95 16.5 -36.45 17.2 -33.7 18.35 -31.75 16.65 -31.15 19.3 -27.8 20.4 L-27.65 20.45 Q-24.6 21.1 -22.65 19.05 -22.05 21.25 -19.0 22.25 L-18.85 22.3 Q-15.6 22.9 -13.1 20.45 -11.8 22.8 -8.0 23.4 L-7.9 23.4 Q-4.35 23.7 -2.6 20.9 -1.95 23.3 1.6 23.7 L1.8 23.7 Q5.75 23.35 6.95 21.1 7.65 23.35 11.15 23.45 L11.9 23.5 Q16.2 22.65 16.8 20.05 18.6 22.1 21.9 22.35 L22.0 22.35 Q25.15 21.35 25.65 18.75 27.3 20.4 30.6 20.55 L30.75 20.5 Q33.6 18.9 33.8 15.9 35.45 17.2 39.05 16.9 L39.15 16.85 Q41.65 16.1 40.8 12.9 L38.85 11.65 M-3.8 -16.4 Q-7.1 -12.7 -7.85 -8.0" fill="none" stroke="#000000" stroke-linecap="round" stroke-linejoin="round" stroke-width="1.0"/>
  </g>
</svg>
