<?xml version="1.0" encoding="UTF-8" standalone="no"?>
<svg xmlns:xlink="http://www.w3.org/1999/xlink" height="30.9px" width="104.8px" xmlns="http://www.w3.org/2000/svg">
  <g transform="matrix(1.0, 0.0, 0.0, 1.0, 54.15, -17.4)">
    <path d="M25.25 41.6 Q16.15 44.4 3.7 44.7 -4.35 45.1 -9.85 44.65 L-15.15 43.9 -15.85 41.15 -16.55 39.05 -16.8 39.25 -18.0 39.5 -19.05 36.05 -16.3 36.9 -15.15 37.2 -7.0 38.75 Q0.4 39.7 8.15 39.15 15.65 38.55 23.55 36.5 L24.05 36.35 24.4 36.3 30.35 34.5 30.4 34.55 29.1 39.0 26.05 39.1 25.25 41.6 M26.25 21.45 L25.9 21.45 22.1 21.65 Q20.6 24.25 21.2 26.6 L19.65 26.85 14.55 27.5 10.35 27.9 7.55 28.1 Q1.95 28.35 -3.2 28.0 L-10.95 27.15 -12.15 26.95 Q-12.5 25.55 -13.4 24.0 L-17.0 24.35 -16.3 20.65 -13.05 21.45 Q-7.7 22.6 -2.55 23.15 6.2 24.0 14.3 22.85 L20.65 21.6 22.15 21.2 25.8 20.05 26.25 21.45" fill="#000000" fill-rule="evenodd" stroke="none"/>
    <path d="M29.1 39.0 L31.3 38.7 Q34.95 37.95 38.8 35.95 L42.15 34.15 45.85 31.5 Q49.1 32.0 50.65 33.15 50.05 35.8 46.75 36.35 L46.8 36.6 Q44.55 41.2 40.9 41.1 37.0 44.5 32.65 44.45 L32.6 45.1 Q27.75 46.9 24.9 45.5 24.7 43.8 25.25 41.6 L26.05 39.1 29.1 39.0 M-15.15 43.9 Q-14.95 45.2 -15.05 46.15 -17.25 47.15 -19.45 47.35 L-21.95 47.3 -26.55 48.3 Q-28.45 48.25 -29.45 47.25 L-32.9 47.75 -36.15 47.35 Q-37.9 46.9 -38.15 45.05 -48.6 44.95 -48.2 41.0 -54.9 39.8 -54.05 35.2 -50.6 34.25 -48.2 32.15 -34.85 42.8 -18.0 39.5 L-16.8 39.25 -16.55 39.05 -15.85 41.15 -15.15 43.9 M21.2 26.6 Q20.6 24.25 22.1 21.65 L25.9 21.45 26.25 21.45 30.3 20.9 32.65 20.1 Q35.15 18.95 35.5 17.4 37.4 19.85 40.95 21.7 L38.9 24.05 Q37.35 25.45 35.85 26.05 L32.9 26.25 Q31.2 27.4 29.6 28.0 L28.4 28.35 28.25 28.35 Q26.25 28.4 26.0 27.0 24.6 27.7 23.3 27.9 L21.7 27.9 21.2 26.6 M-17.0 24.35 L-13.4 24.0 Q-12.5 25.55 -12.15 26.95 -11.85 28.15 -11.95 29.3 -13.5 30.4 -15.65 30.6 L-17.85 30.55 -18.15 30.65 Q-23.05 32.2 -24.85 30.5 L-25.4 29.75 Q-30.9 31.1 -32.7 28.4 L-34.35 28.4 Q-38.3 28.0 -38.55 24.55 -39.55 24.85 -41.3 24.1 L-41.9 23.8 Q-43.95 22.6 -43.15 20.45 L-37.45 17.45 -37.65 17.7 Q-33.8 22.75 -23.45 24.25 L-17.0 24.35" fill="#ffe9f2" fill-rule="evenodd" stroke="none"/>
  </g>
</svg>
