<?xml version="1.0" encoding="UTF-8" standalone="no"?>
<svg xmlns:xlink="http://www.w3.org/1999/xlink" height="54.5px" width="56.45px" xmlns="http://www.w3.org/2000/svg">
  <g transform="matrix(1.0, 0.0, 0.0, 1.0, 28.25, 27.25)">
    <path d="M-28.1 21.4 Q-23.85 18.4 -14.6 18.35 L4.65 17.75 Q22.55 16.35 28.2 10.7 L28.2 15.2 Q28.45 16.4 24.0 18.5 9.05 23.2 -8.1 22.9 -20.4 22.8 -25.15 26.0 -28.35 28.45 -28.25 26.1 L-28.15 23.65 -28.1 21.4 M24.7 -22.4 L20.9 -22.15 Q18.1 -21.2 15.35 -19.8 10.85 -17.8 6.25 -18.25 4.05 -18.5 1.8 -19.3 -3.9 -21.5 -9.5 -22.45 L-14.7 -23.0 Q-17.65 -22.95 -18.8 -23.7 L-19.45 -24.45 Q-19.7 -25.75 -18.6 -27.25 L-11.25 -26.65 Q-5.25 -26.2 2.35 -23.45 9.95 -20.7 17.1 -24.45 L22.75 -26.9 Q24.9 -25.35 24.7 -22.4" fill="#dbb584" fill-rule="evenodd" stroke="none"/>
  </g>
</svg>
