<?xml version="1.0" encoding="UTF-8" standalone="no"?>
<svg xmlns:xlink="http://www.w3.org/1999/xlink" height="33.3px" width="53.65px" xmlns="http://www.w3.org/2000/svg">
  <g transform="matrix(1.0, 0.0, 0.0, 1.0, 26.8, 16.65)">
    <path d="M14.7 -6.8 L17.5 -7.15 Q23.7 -7.85 26.0 -0.4 27.95 5.0 25.35 6.75 28.65 15.8 23.25 16.6 16.95 17.1 15.1 10.05 L12.6 -2.0 Q12.25 -2.75 12.2 -3.4 L-2.6 -5.9 -7.5 -6.85 Q-23.55 -10.5 -26.8 -16.65 L-18.2 -14.95 Q-14.55 -13.1 -1.3 -10.15 L6.4 -8.45 14.7 -6.8 M22.95 3.3 Q23.4 2.9 23.4 2.3 23.4 1.7 22.95 1.25 22.55 0.8 21.95 0.8 21.35 0.8 20.9 1.25 20.5 1.7 20.5 2.3 20.5 2.9 20.9 3.3 21.35 3.75 21.95 3.75 22.55 3.75 22.95 3.3" fill="#ff467f" fill-rule="evenodd" stroke="none"/>
  </g>
</svg>
