<?xml version="1.0" encoding="UTF-8" standalone="no"?>
<svg xmlns:xlink="http://www.w3.org/1999/xlink" height="149.8px" width="99.5px" xmlns="http://www.w3.org/2000/svg">
  <g transform="matrix(1.0, 0.0, 0.0, 1.0, 49.75, 74.9)">
    <path d="M21.35 -66.5 L21.3 -67.05 Q21.3 -69.5 23.05 -71.2 24.8 -72.9 27.35 -72.9 29.85 -72.9 31.55 -71.2 33.35 -69.5 33.35 -67.05 L33.1 -65.35 33.55 -65.7 33.6 -65.85 34.65 -66.6 Q41.95 -72.05 44.4 -70.35 46.65 -68.85 44.1 -66.95 52.95 -49.95 47.95 -19.0 44.0 1.95 31.4 16.75 24.55 23.8 15.6 27.55 7.75 30.9 1.0 31.55 2.6 58.55 -32.25 74.9 -25.45 67.0 -27.1 57.45 -32.3 37.55 -27.15 30.25 -47.8 23.45 -49.75 -2.6 -37.8 10.8 -19.15 14.0 -10.5 15.45 -4.8 19.4 L-3.1 20.7 -1.2 17.5 Q5.2 5.95 0.2 -10.45 -4.85 -26.95 -5.95 -41.2 -7.0 -55.5 0.25 -67.75 -4.2 -65.55 -3.8 -68.8 -3.4 -72.05 2.2 -74.35 5.35 -75.7 10.2 -73.75 13.5 -72.35 17.65 -69.35 L21.35 -66.5 M25.5 -58.95 Q24.8 -59.4 23.9 -59.4 L23.5 -59.3 25.5 -58.95" fill="#b5d8ff" fill-rule="evenodd" stroke="none"/>
  </g>
</svg>
