<?xml version="1.0" encoding="UTF-8" standalone="no"?>
<svg xmlns:xlink="http://www.w3.org/1999/xlink" height="93.05px" width="124.75px" xmlns="http://www.w3.org/2000/svg">
  <g transform="matrix(1.0, 0.0, 0.0, 1.0, 62.4, 46.5)">
    <path d="M9.05 -40.85 L9.0 -41.35 Q11.05 -42.25 13.65 -42.0 L13.85 -41.0 Q19.9 -43.25 23.0 -45.5 25.35 -44.35 25.65 -41.75 L62.35 11.15 Q62.45 15.85 57.95 22.55 L58.9 24.5 Q54.05 34.35 39.9 39.45 L39.65 38.35 Q18.55 53.25 -17.75 41.15 L-17.5 40.1 Q-39.7 36.4 -51.25 21.2 L-50.9 20.65 Q-62.3 12.45 -62.4 8.2 L-28.95 -30.05 -16.45 -42.9 Q-15.95 -45.55 -14.5 -46.5 -4.25 -41.8 9.05 -40.85 M25.9 -19.5 L26.15 -18.45 26.6 -19.25 25.9 -19.5 M-25.95 -19.2 L-26.35 -18.55 -25.75 -18.5 -25.95 -19.2" fill="#252837" fill-rule="evenodd" stroke="none"/>
  </g>
</svg>
