<?xml version="1.0" encoding="UTF-8" standalone="no"?>
<svg xmlns:xlink="http://www.w3.org/1999/xlink" height="106.9px" width="135.95px" xmlns="http://www.w3.org/2000/svg">
  <g transform="matrix(1.0, 0.0, 0.0, 1.0, 68.0, 53.45)">
    <path d="M-52.4 -16.0 L-52.9 -16.3 -49.0 -20.85 -47.8 -22.3 Q-35.1 -36.8 -21.0 -49.75 L-19.95 -50.8 -18.25 -52.35 Q-7.25 -52.9 10.15 -50.35 L20.8 -51.8 23.6 -49.1 24.8 -47.95 Q35.45 -37.65 46.45 -25.6 L47.75 -24.15 51.55 -19.95 51.6 -19.25 55.05 -18.25 54.3 -14.2 52.8 -14.55 52.8 -11.95 53.9 -11.65 52.45 -8.25 Q55.05 -8.3 55.85 -4.25 L57.35 -0.1 58.5 2.4 Q59.75 5.05 61.55 7.7 L60.65 8.25 62.05 10.6 63.45 13.1 65.7 18.05 66.35 19.8 66.95 21.95 Q65.6 27.0 61.6 32.1 L57.95 36.15 56.7 37.4 Q52.85 40.95 47.7 44.5 L42.9 41.95 43.55 45.1 Q34.4 50.45 19.0 51.9 L17.55 52.05 Q2.2 53.3 -19.1 50.8 L-19.15 46.85 -25.05 49.85 Q-39.45 48.1 -50.05 41.95 L-51.5 41.1 -54.55 39.05 Q-66.8 32.95 -67.0 27.35 L-60.1 9.0 Q-61.55 8.15 -60.0 6.7 -58.25 4.55 -57.05 2.3 L-56.1 0.3 Q-54.9 -2.55 -54.45 -5.5 -54.35 -7.1 -52.15 -7.2 L-52.0 -9.9 -55.25 -13.5 -52.4 -16.0" fill="none" stroke="#000000" stroke-linecap="round" stroke-linejoin="round" stroke-width="2.0"/>
    <path d="M-52.4 -16.0 L-48.4 -11.35 -46.65 -9.4 -42.75 -5.35 -41.05 -3.7 -37.95 -0.75 -35.65 1.3 -31.4 5.0 -29.6 6.45 -25.7 9.55 -23.9 10.95 -20.5 13.5 -19.3 14.35 -18.6 13.95 -18.05 13.55 -15.65 11.9 -12.75 9.8 -8.3 6.55 -5.75 4.5 -2.55 2.0 -0.5 0.25 2.8 -2.6 4.85 -4.45 7.75 -7.15 9.95 -9.3 12.75 -12.1 14.9 -14.4 16.8 -16.45 17.35 -17.05 18.45 -18.35 18.4 -19.25 17.85 -26.85 17.6 -29.2 17.5 -29.8 Q16.4 -38.35 14.25 -45.2 L14.05 -45.9 13.45 -47.6 M-42.0 -16.3 L-45.2 -11.4 -41.45 -11.5 -31.75 -15.35 Q-3.4 -27.75 9.05 -45.75 L10.2 -47.5 M18.45 -18.35 L19.2 -17.4 21.2 -14.75 23.5 -11.7 24.8 -9.95 27.5 -6.25 29.15 -3.95 32.1 0.2 34.05 3.0 36.7 6.9 39.85 11.75 40.5 12.8 41.7 10.9 42.35 9.8 43.65 7.45 45.95 2.9 47.2 0.25 49.1 -4.75 49.95 -7.45 51.05 -12.45 51.4 -14.95 51.6 -19.25 M14.9 -14.4 L16.5 -12.6 17.0 -12.05 18.75 -14.2 16.8 -16.45 M4.85 -4.45 L6.1 -3.05 7.45 -1.65 10.5 -4.55 9.15 -5.85 7.75 -7.15 M2.8 -2.6 L4.25 -1.25 6.1 -3.05 M9.95 -9.3 L11.5 -7.4 12.5 -6.2 16.05 -9.35 14.4 -10.75 12.75 -12.1 M14.4 -10.75 L16.5 -12.6 M9.15 -5.85 L11.5 -7.4 M23.5 -11.7 L21.9 -10.45 23.45 -8.3 24.8 -9.95 M23.45 -8.3 L22.75 -7.55 25.25 -4.55 25.9 -5.05 27.5 -6.25 M21.9 -10.45 L21.1 -9.85 18.85 -12.05 21.2 -14.75 M29.15 -3.95 L27.55 -2.9 26.75 -2.35 29.55 1.3 29.85 1.7 30.35 1.35 32.1 0.2 M25.9 -5.05 L27.55 -2.9 M52.8 -14.55 L51.4 -14.95 M49.1 -4.75 L50.5 -4.15 51.95 -7.15 49.95 -7.45 M52.45 -8.25 L51.95 -7.15 M50.5 -4.15 L51.95 -3.6 50.7 -0.55 Q54.0 0.85 57.35 -0.1 M51.05 -12.45 L52.8 -11.95 M32.85 -27.0 Q44.2 -14.35 42.15 -13.35 35.55 -14.55 14.25 -45.2 M-52.0 -9.9 L-51.3 -9.1 -49.85 -10.2 -48.4 -11.35 M-52.15 -7.2 L-49.2 -6.95 -49.45 -7.25 -48.05 -8.3 -49.85 -10.2 M-48.05 -8.3 L-46.65 -9.4 M-42.75 -5.35 L-44.2 -4.15 -42.65 -2.15 -41.05 -3.7 M-60.1 9.0 L-57.75 9.75 -56.25 9.9 Q-52.1 10.5 -47.9 11.65 -45.8 12.25 -43.65 13.0 L-42.55 13.4 Q-36.5 15.15 -25.35 13.0 L-25.3 13.0 -27.45 11.45 -28.35 12.45 -32.15 8.85 -31.4 8.1 -32.85 6.2 -34.3 7.3 -38.2 3.55 -37.6 3.0 -39.45 0.9 -40.2 1.75 -43.35 -1.45 -42.65 -2.15 M-44.2 -4.15 L-45.7 -3.0 -49.2 -6.95 M-5.75 4.5 L-4.25 6.5 -3.25 7.8 0.75 5.3 -0.85 3.65 -2.55 2.0 M-12.75 9.8 L-11.1 11.75 -10.15 12.9 -5.5 10.0 -6.9 8.25 -8.3 6.55 M-6.9 8.25 L-4.25 6.5 M-11.05 40.45 Q-10.45 45.9 -12.2 46.35 -14.75 46.05 -14.45 41.15 L-13.65 14.75 -18.05 16.55 -18.4 20.75 -18.55 23.0 Q-19.35 34.9 -19.15 46.85 M-13.65 14.75 L-14.4 13.7 -15.65 11.9 M-18.05 13.55 L-18.05 16.55 M-14.4 13.7 L-11.1 11.75 M-27.45 11.45 L-25.7 9.55 M-37.6 3.0 L-35.65 1.3 M-31.4 5.0 L-32.85 6.2 M-25.35 13.0 L-26.0 13.95 -23.75 15.1 -21.55 16.15 -20.5 13.5 M-25.05 49.85 Q-24.25 34.55 -22.15 20.3 L-21.85 18.0 -21.55 16.15 M-29.6 6.45 L-31.4 8.1 M-23.9 10.95 L-25.3 13.0 M-23.75 15.1 L-27.2 34.8 Q-28.4 43.6 -29.85 43.65 -31.85 43.85 -30.9 38.85 M-54.55 39.05 Q-53.4 30.5 -51.3 22.5 L-51.1 21.85 -50.65 20.3 -50.55 19.75 -47.9 11.65 M-57.05 2.3 Q-50.4 5.55 -42.5 4.35 M-56.1 0.3 Q-49.6 0.05 -42.85 2.65 M-60.4 21.75 Q-59.15 15.0 -56.25 9.9 M-42.55 13.4 L-48.15 32.65 M58.5 2.4 Q53.25 3.65 50.0 1.3 L49.9 1.45 49.4 1.25 48.9 1.0 47.95 3.95 49.15 4.5 46.5 9.05 53.95 9.3 57.0 9.1 Q59.4 8.85 60.65 8.25 M50.0 1.3 L49.4 1.25 M45.95 2.9 L47.95 3.95 M48.9 1.0 L47.2 0.25 M42.35 9.8 L44.0 11.0 45.7 8.6 43.65 7.45 M48.15 33.45 Q49.7 39.15 51.8 38.55 52.55 38.1 51.8 34.85 L46.05 8.8 45.7 8.6 M46.05 8.8 L46.5 9.05 M44.0 11.0 L45.65 12.25 43.0 15.0 40.5 12.8 39.75 14.05 47.7 44.5 M53.95 9.3 L61.6 32.1 M62.75 22.85 L57.0 9.1 M30.35 1.35 L32.1 4.0 34.05 3.0 M42.9 41.95 L37.4 13.75 35.8 12.25 36.8 10.9 35.0 8.05 33.65 8.95 31.4 4.35 32.1 4.0 M36.8 10.9 L37.85 9.6 M36.7 6.9 L35.0 8.05 M37.4 13.75 L39.0 15.2 39.75 14.05 M4.25 -1.25 L5.7 0.1 2.3 3.15 1.3 2.15 -0.85 3.65 M29.55 1.3 L37.4 37.1 M1.3 2.15 L-0.5 0.25 M50.7 -0.55 L50.0 1.3 M-37.95 -0.75 L-39.45 0.9" fill="none" stroke="#000000" stroke-linecap="round" stroke-linejoin="round" stroke-opacity="0.6" stroke-width="1.3"/>
  </g>
</svg>
