<?xml version="1.0" encoding="UTF-8" standalone="no"?>
<svg xmlns:xlink="http://www.w3.org/1999/xlink" height="78.85px" width="168.8px" xmlns="http://www.w3.org/2000/svg">
  <g transform="matrix(1.0, 0.0, 0.0, 1.0, 84.4, 39.4)">
    <path d="M21.75 12.1 L20.9 12.9 20.45 13.4 Q17.2 16.4 16.15 12.0 14.95 17.0 12.95 16.2 12.15 15.85 11.25 14.55 6.05 13.9 6.9 18.75 2.9 18.65 2.15 23.55 -2.5 22.45 -3.3 27.65 -8.25 27.0 -9.7 31.45 -14.25 30.55 -16.2 34.85 -20.05 33.05 -24.5 37.15 L-17.65 20.25 Q-5.65 16.6 3.45 10.8 L7.4 8.15 5.65 5.25 Q5.35 5.0 5.3 4.05 7.4 -4.8 11.25 -9.9 L10.85 -10.75 4.6 -13.95 4.2 -11.95 3.4 -8.4 0.8 1.4 Q-0.7 5.25 -4.15 6.6 -7.05 7.7 -11.25 7.05 L-12.9 6.7 -16.95 5.5 -17.25 5.4 Q-20.35 4.3 -22.9 2.9 L-26.1 0.85 -28.35 -1.6 Q-28.85 -0.5 -29.6 0.0 -30.3 0.45 -31.3 0.5 L-32.7 0.3 -36.2 -1.35 Q-39.5 -3.1 -41.75 -5.25 L-42.0 -5.45 Q-43.85 -7.25 -44.95 -9.3 L-45.4 -10.35 Q-45.95 -11.65 -46.1 -12.9 -46.3 -14.4 -46.0 -15.75 L-45.95 -16.0 -47.1 -17.15 Q-48.75 -19.0 -48.85 -20.95 L-48.7 -22.7 Q-48.45 -23.65 -47.8 -24.6 -46.55 -26.7 -43.7 -28.9 -35.55 -35.35 -26.65 -37.85 L-19.45 -37.0 -17.3 -37.95 Q-20.3 -34.6 -18.25 -32.1 -16.8 -30.75 -11.2 -33.45 L-9.25 -35.45 Q-12.3 -25.95 -5.75 -24.8 1.9 -23.65 7.65 -34.6 L6.95 -28.1 5.3 -17.3 11.15 -14.55 Q11.75 -15.25 12.95 -15.55 14.55 -15.7 15.45 -14.95 L20.8 -18.85 Q17.4 -27.55 13.5 -34.95 21.3 -28.75 27.7 -27.8 32.6 -26.9 33.2 -31.45 L30.1 -34.05 Q30.6 -30.4 28.8 -30.15 20.9 -31.05 14.35 -37.3 L24.7 -38.55 30.1 -34.05 37.2 -32.25 Q44.6 -27.55 54.65 -19.85 L55.7 -18.7 Q58.15 -15.85 57.15 -12.35 L56.65 -10.85 56.25 -10.15 54.9 -8.1 54.15 -7.15 53.15 -6.05 51.95 -4.85 49.85 -3.1 Q47.7 -1.4 45.45 0.0 42.8 1.75 40.0 3.1 L39.45 3.35 38.65 3.7 Q35.65 5.05 33.3 5.0 28.85 4.85 26.85 -0.25 24.85 -7.4 22.55 -13.9 L22.05 -15.5 16.7 -11.35 16.55 -9.4 Q19.6 -6.05 22.75 -1.35 L22.75 -1.3 25.25 2.45 Q26.05 4.2 25.5 6.15 32.25 11.85 40.35 14.3 L40.75 14.4 45.45 30.3 Q43.45 25.95 39.95 26.95 39.25 23.3 34.95 23.25 34.3 19.85 30.7 19.45 30.4 15.5 26.25 15.15 26.85 12.25 23.4 10.05 L21.75 12.1 Q24.05 12.0 24.35 14.55 L21.75 12.1 M-12.6 -39.4 L-12.2 -39.35 -11.75 -39.25 -8.95 -38.7 Q-14.95 -32.4 -17.15 -34.25 -17.65 -36.4 -13.85 -39.05 L-12.6 -39.4 M-5.4 -38.1 L6.2 -37.1 Q0.05 -25.7 -5.4 -27.15 -11.35 -29.15 -5.4 -38.1 M84.4 14.35 L83.55 17.5 Q82.3 14.8 84.4 14.35 M64.9 11.2 L65.05 11.05 Q67.05 8.8 67.45 5.65 67.8 4.75 68.35 4.2 70.15 2.5 74.4 4.75 78.85 7.45 78.1 11.55 81.05 10.55 84.0 12.2 80.0 13.05 81.1 18.4 77.7 18.85 77.45 22.35 L64.9 11.2 M45.7 15.45 L49.9 15.9 53.2 16.0 Q58.85 15.7 62.3 13.2 L63.1 12.65 76.1 24.1 Q71.25 24.75 71.05 28.95 65.95 27.95 64.95 31.05 60.5 29.45 58.0 32.35 55.45 30.65 52.4 30.9 48.55 24.45 47.05 18.55 L45.7 15.45 M40.55 28.9 Q43.25 28.35 43.4 30.85 L40.55 28.9 M54.4 33.9 Q55.05 32.4 57.15 33.9 L54.4 33.9 M73.05 29.3 Q73.2 25.5 77.0 26.2 L73.05 29.3 M66.1 32.15 Q67.45 30.15 70.4 30.75 L66.1 32.15 M59.35 33.6 Q61.25 31.6 63.8 32.9 L59.35 33.6 M26.5 17.15 Q28.25 17.25 28.25 18.8 L26.5 17.15 M32.7 23.45 L30.3 21.25 Q33.0 21.0 32.7 23.45 M4.15 22.85 Q4.2 20.25 6.5 20.75 L4.15 22.85 M8.4 18.45 Q8.15 15.9 10.1 16.4 L8.4 18.45 M37.95 27.3 L34.75 24.85 Q37.75 24.4 37.95 27.3 M79.65 23.9 Q79.2 20.45 82.15 20.15 L79.65 23.9 M-35.15 39.45 L-38.65 39.45 Q-36.9 37.75 -35.15 39.45 M-23.05 21.7 L-33.15 38.7 Q-36.3 35.3 -40.6 38.7 -43.7 34.55 -48.25 37.75 -50.65 33.3 -56.25 35.2 -58.0 30.3 -63.55 31.45 -64.1 28.3 -67.65 27.65 L-54.4 12.65 Q-50.75 15.75 -47.0 17.85 -40.55 21.5 -33.9 22.35 -30.3 22.75 -26.7 22.4 L-26.15 22.35 -25.35 22.25 -23.05 21.7 M-10.4 33.6 L-14.5 35.55 Q-12.6 32.45 -10.4 33.6 M-7.6 31.8 Q-6.5 29.15 -4.0 29.65 L-7.6 31.8 M-22.25 38.0 Q-20.4 35.6 -17.8 36.75 L-22.25 38.0 M-75.25 2.8 Q-72.75 -3.0 -66.55 -0.25 L-61.4 5.95 -55.8 11.5 -69.55 26.1 Q-70.15 22.6 -74.6 22.1 -73.4 16.65 -79.2 15.55 -77.45 11.7 -81.8 8.7 -79.5 6.6 -81.8 3.35 L-77.6 2.8 -75.25 2.8 M-76.7 20.7 L-79.0 17.5 Q-76.2 18.05 -76.7 20.7 M-68.8 29.6 Q-66.05 28.95 -65.65 31.65 L-68.8 29.6 M-54.95 36.6 Q-52.05 35.3 -50.6 38.0 L-54.95 36.6 M-42.4 39.4 L-46.2 38.75 Q-43.85 37.05 -42.4 39.4 M-74.35 24.1 Q-71.45 24.2 -71.8 26.75 L-74.35 24.1 M-62.35 33.4 Q-59.5 32.6 -58.45 35.5 L-62.35 33.4 M-84.4 4.6 Q-83.95 4.25 -83.3 3.95 -82.9 6.2 -83.8 7.5 L-84.4 4.6 M-82.4 10.6 Q-79.95 11.5 -80.95 13.65 L-82.4 10.6 M1.45 25.2 L-1.5 27.7 Q-0.95 25.4 1.45 25.2" fill="#352a2e" fill-rule="evenodd" stroke="none"/>
  </g>
</svg>
