<?xml version="1.0" encoding="UTF-8" standalone="no"?>
<svg xmlns:xlink="http://www.w3.org/1999/xlink" height="94.15px" width="112.3px" xmlns="http://www.w3.org/2000/svg">
  <g transform="matrix(1.0, 0.0, 0.0, 1.0, 56.15, 47.05)">
    <path d="M33.35 -16.0 Q33.7 -16.45 33.7 -17.05 33.7 -17.75 33.35 -18.15 32.9 -18.6 32.3 -18.6 31.7 -18.6 31.2 -18.15 30.8 -17.75 30.8 -17.05 30.8 -16.45 31.2 -16.0 31.7 -15.55 32.3 -15.55 32.9 -15.55 33.35 -16.0 M11.65 -22.2 Q13.95 -16.2 15.35 -3.5 L11.5 -8.05 8.0 -2.35 Q6.9 -13.05 4.7 -23.8 L9.9 -17.8 11.65 -22.2 M11.75 -13.65 Q11.25 -14.15 10.6 -14.15 9.95 -14.15 9.5 -13.65 9.05 -13.2 9.05 -12.55 9.05 -11.8 9.5 -11.35 9.95 -10.9 10.6 -10.9 11.25 -10.9 11.75 -11.35 12.2 -11.8 12.2 -12.55 12.2 -13.2 11.75 -13.65 M7.95 -44.05 Q8.6 -39.95 10.8 -36.1 10.1 -34.05 11.2 -30.55 L7.25 -33.9 7.25 -33.95 Q7.45 -36.55 7.2 -38.25 8.15 -41.35 7.95 -44.05 M20.0 -41.0 L19.9 -42.75 19.95 -42.9 Q20.2 -45.6 14.9 -47.05 L19.75 -47.05 Q22.85 -45.75 24.15 -41.05 L22.1 -41.0 27.75 -32.95 23.5 -36.3 22.5 -31.2 18.8 -37.35 18.8 -37.4 Q19.85 -39.25 20.0 -41.0 M23.9 -27.8 L28.95 -24.65 29.25 -29.8 Q35.25 -19.05 39.1 -9.7 L37.35 -11.45 37.05 -11.7 33.7 -4.25 Q30.15 -15.45 23.9 -27.8 M41.35 6.7 L42.7 1.65 Q44.45 7.4 45.75 13.95 L45.25 13.85 Q44.6 13.85 44.15 14.3 43.75 14.8 43.75 15.5 43.75 16.15 44.15 16.65 44.6 17.15 45.25 17.15 45.9 17.15 46.3 16.75 L47.45 24.1 46.7 22.8 40.8 34.1 Q39.45 16.9 35.9 2.95 L35.15 0.35 41.35 6.7 M15.6 20.35 Q15.15 19.85 14.5 19.85 13.85 19.85 13.4 20.35 12.95 20.85 12.95 21.5 12.95 22.2 13.4 22.7 13.85 23.15 14.5 23.15 15.15 23.15 15.6 22.7 16.05 22.2 16.05 21.5 16.05 20.85 15.6 20.35 M9.65 46.75 L4.0 46.95 3.65 46.95 0.5 47.1 0.2 47.1 -5.0 47.1 -5.1 47.1 -7.15 46.95 -11.0 46.75 -11.5 46.7 -17.75 46.2 -21.35 45.8 -26.95 45.0 -31.7 44.25 -36.95 43.1 -41.05 42.05 -43.05 41.45 -46.65 40.3 -50.9 38.5 -55.0 36.55 -56.15 35.85 -56.15 30.7 -55.8 30.85 -47.75 33.75 -42.3 35.3 -31.6 37.8 -24.95 39.0 -17.35 39.95 -5.1 41.05 -3.65 41.1 8.25 40.65 16.9 39.85 22.95 39.1 32.7 37.45 39.9 35.85 47.95 33.55 52.1 32.15 55.5 30.9 56.0 34.5 56.15 36.15 55.55 36.45 53.3 37.55 49.7 39.1 49.35 39.25 Q44.8 41.05 39.7 42.4 L33.35 43.9 29.55 44.6 23.2 45.55 19.95 45.95 19.5 46.0 13.5 46.55 9.65 46.75 M11.65 35.45 L9.05 6.7 14.1 13.0 16.65 7.15 18.9 32.3 16.35 28.1 11.65 35.45 M-37.25 -22.7 L-27.05 -42.0 Q-25.05 -46.65 -19.5 -46.85 -14.4 -45.45 -2.55 -45.8 -7.2 -43.75 -5.1 -41.2 L-4.55 -40.85 Q-5.3 -40.35 -4.95 -39.25 L-7.2 -39.2 -10.05 -27.8 -12.35 -35.2 -17.3 -30.85 -13.65 -39.6 -22.8 -41.0 Q-32.7 -22.25 -39.75 -3.15 L-41.25 0.85 Q-46.2 15.0 -49.6 29.3 L-53.55 20.0 -52.5 14.15 -52.45 14.2 Q-51.95 14.8 -51.25 14.8 -50.55 14.8 -50.1 14.2 -49.6 13.6 -49.6 12.7 -49.6 11.9 -50.1 11.2 -50.55 10.6 -51.25 10.6 L-51.6 10.65 Q-50.5 7.0 -49.0 3.65 L-41.5 -4.15 -41.45 -14.85 -39.3 -18.85 Q-38.8 -18.55 -38.1 -18.55 -37.25 -18.55 -36.7 -19.2 -36.05 -19.8 -36.05 -20.7 -36.05 -21.6 -36.7 -22.2 L-37.25 -22.7 M-21.8 19.9 Q-21.8 19.25 -22.25 18.75 -22.7 18.3 -23.35 18.3 -24.0 18.3 -24.45 18.75 -24.9 19.25 -24.9 19.9 -24.9 20.6 -24.45 21.1 -24.0 21.55 -23.35 21.55 -22.7 21.55 -22.25 21.1 -21.8 20.6 -21.8 19.9 M-22.2 11.55 L-16.65 5.1 -17.0 6.85 Q-19.65 20.3 -20.5 33.75 L-23.55 27.45 -29.85 35.45 -24.5 5.6 -24.35 5.0 -22.2 11.55 M-16.95 -15.7 Q-17.6 -15.7 -18.05 -15.15 -18.55 -14.7 -18.55 -14.05 -18.55 -13.3 -18.05 -12.85 -17.6 -12.4 -16.95 -12.4 -16.3 -12.4 -15.85 -12.85 -15.4 -13.3 -15.4 -14.05 -15.4 -14.7 -15.85 -15.15 -16.3 -15.7 -16.95 -15.7 M-17.0 -18.95 L-11.25 -23.8 -15.75 -2.7 -18.9 -8.95 Q-20.9 -7.4 -22.6 -5.3 L-18.4 -23.3 -17.0 -18.95" fill="#2f2f2f" fill-rule="evenodd" stroke="none"/>
  </g>
</svg>
