<?xml version="1.0" encoding="UTF-8" standalone="no"?>
<svg xmlns:xlink="http://www.w3.org/1999/xlink" height="24.6px" width="40.1px" xmlns="http://www.w3.org/2000/svg">
  <g transform="matrix(1.0, 0.0, 0.0, 1.0, 28.9, 3.75)">
    <path d="M9.3 -3.75 L10.7 -3.75 11.1 -3.75 11.2 0.8 9.3 1.0 9.3 -3.75 M1.75 1.25 L0.0 1.25 0.1 -3.75 1.8 -3.75 1.75 1.25 M-23.55 18.85 Q-25.75 21.5 -28.2 20.65 -31.05 13.7 -22.1 -2.2 L-22.15 -0.7 -21.95 -0.65 -20.3 -0.35 Q-25.9 17.55 -23.55 18.85" fill="#000000" fill-opacity="0.32941177" fill-rule="evenodd" stroke="none"/>
    <path d="M1.8 -3.75 L2.95 -3.75 8.2 -3.75 9.3 -3.75 9.3 1.0 8.2 1.05 2.95 1.25 1.75 1.25 1.8 -3.75" fill="#ffffff" fill-opacity="0.32941177" fill-rule="evenodd" stroke="none"/>
  </g>
</svg>
