<?xml version="1.0" encoding="UTF-8" standalone="no"?>
<svg xmlns:xlink="http://www.w3.org/1999/xlink" height="29.55px" width="57.25px" xmlns="http://www.w3.org/2000/svg">
  <g transform="matrix(1.0, 0.0, 0.0, 1.0, 28.65, 14.75)">
    <path d="M11.85 -13.15 L12.45 -13.2 19.5 -13.6 Q20.55 -14.6 21.75 -14.05 L22.2 -12.95 22.85 -11.4 25.55 -4.45 26.1 -4.65 26.75 -1.75 26.45 -1.6 27.1 0.8 27.4 0.65 28.1 3.6 27.7 3.8 27.95 8.0 Q26.75 12.3 24.45 11.5 24.65 9.55 23.95 5.2 L23.75 5.25 23.15 2.35 23.45 2.25 22.95 -0.2 22.45 -0.1 21.8 -3.0 22.35 -3.2 20.85 -9.7 20.15 -9.6 18.15 -9.4 17.0 -9.2 11.95 -8.6 10.05 -8.4 8.95 -8.35 3.7 -8.15 2.5 -8.15 0.75 -8.15 -7.5 -8.5 -10.8 -8.85 -10.95 -8.85 -12.55 -2.15 -12.1 -2.05 -13.0 1.4 -13.5 1.3 -14.4 4.15 -14.0 4.3 -14.9 7.75 -15.6 7.55 Q-18.65 15.2 -21.55 14.2 -27.05 12.3 -27.45 11.25 -30.3 4.3 -21.35 -11.6 -21.05 -12.8 -19.9 -14.2 L-15.2 -13.8 Q-12.4 -14.85 -9.95 -13.55 L-9.95 -13.5 -1.75 -13.15 0.85 -13.15 2.55 -13.15 3.7 -13.15 8.95 -13.15 10.05 -13.15 11.45 -13.15 11.85 -13.15 11.95 -8.6 M7.4 -10.85 L6.2 -10.85 M0.85 -13.15 L0.75 -8.15 M10.05 -13.15 L10.05 -8.4 M2.55 -13.15 L2.5 -8.15 M25.55 -4.45 L22.35 -3.2 M22.95 -0.2 L26.45 -1.6 M19.5 -13.6 L20.85 -9.7 M27.1 0.8 L23.45 2.25 M23.95 5.2 L27.7 3.8 M-27.45 11.25 Q-25.0 12.1 -22.8 9.45 -25.15 8.15 -19.55 -9.75 L-21.2 -10.05 -21.4 -10.1 -21.35 -11.6 M-15.2 -13.8 L-15.6 -13.65 -16.35 -9.35 -17.6 -3.75 -12.55 -2.15 M-16.35 -9.35 L-16.5 -9.4 -16.95 -9.5 -19.55 -9.75 M-22.8 9.45 Q-21.75 8.15 -20.75 5.95 L-21.3 5.75 -20.4 2.3 -19.45 2.65 -18.55 -0.3 -19.4 -0.55 -18.5 -4.0 -17.6 -3.75 M-10.95 -8.85 L-9.95 -13.5 M-19.45 2.65 L-14.4 4.15 M-15.6 7.55 L-20.75 5.95 M-13.5 1.3 L-18.55 -0.3" fill="none" stroke="#000000" stroke-linecap="round" stroke-linejoin="round" stroke-width="1.0"/>
  </g>
</svg>
