<?xml version="1.0" encoding="UTF-8" standalone="no"?>
<svg xmlns:xlink="http://www.w3.org/1999/xlink" height="24.55px" width="57.25px" xmlns="http://www.w3.org/2000/svg">
  <g transform="matrix(1.0, 0.0, 0.0, 1.0, 0.0, 0.0)">
    <path d="M8.85 1.5 L8.85 1.45 12.15 2.4 Q20.75 4.55 29.35 4.4 46.2 4.65 48.4 0.0 L48.45 0.1 48.7 0.95 Q50.0 5.55 52.2 9.85 L54.15 13.45 57.25 18.05 Q53.5 20.4 48.25 21.45 40.0 24.9 30.75 24.25 22.3 25.0 13.6 23.95 6.9 23.1 0.0 21.0 L1.8 17.8 2.05 17.35 2.6 16.3 2.7 16.15 3.35 14.8 5.6 9.85 8.85 1.5" fill="#ffffff" fill-rule="evenodd" stroke="none"/>
  </g>
</svg>
