<?xml version="1.0" encoding="UTF-8" standalone="no"?>
<svg xmlns:xlink="http://www.w3.org/1999/xlink" height="28.0px" width="70.7px" xmlns="http://www.w3.org/2000/svg">
  <g transform="matrix(1.0, 0.0, 0.0, 1.0, 0.0, 0.0)">
    <path d="M70.7 11.95 Q63.85 23.35 57.8 21.65 51.8 19.9 46.5 25.85 41.85 29.95 33.45 26.2 27.25 23.35 21.4 26.2 10.7 31.6 2.45 20.15 0.4 17.4 0.0 15.4 L0.0 15.35 2.35 13.7 2.6 13.6 Q9.3 8.8 16.25 0.05 L16.35 0.05 16.65 0.0 34.25 1.45 56.3 0.3 Q61.95 5.45 69.0 10.7 L69.85 11.35 70.7 11.95" fill="#5a6095" fill-rule="evenodd" stroke="none"/>
  </g>
</svg>
