<?xml version="1.0" encoding="UTF-8" standalone="no"?>
<svg xmlns:xlink="http://www.w3.org/1999/xlink" height="78.6px" width="115.85px" xmlns="http://www.w3.org/2000/svg">
  <g transform="matrix(1.0, 0.0, 0.0, 1.0, 0.0, 0.0)">
    <path d="M76.35 67.5 Q77.55 67.25 78.05 69.45 78.35 70.6 78.35 73.25 L78.15 76.15 77.3 78.6 39.1 78.6 Q37.05 78.6 37.05 73.25 L37.15 71.2 Q37.25 69.25 37.7 68.3 38.1 67.55 38.7 67.5 L39.0 67.5 76.35 67.5 M99.3 22.45 Q101.85 22.2 103.1 24.4 103.7 25.45 103.7 27.9 L103.7 28.2 Q103.7 29.95 103.25 31.1 102.3 33.55 99.4 33.55 L16.7 33.7 16.45 33.55 Q12.2 33.55 12.15 28.2 L12.35 25.9 Q12.9 22.95 15.1 22.55 L15.85 22.45 16.6 22.45 99.3 22.45 M87.65 45.3 Q89.5 45.05 90.4 47.25 90.85 48.3 90.85 50.6 L90.85 51.1 90.7 53.35 89.7 56.45 27.85 56.45 Q24.55 56.45 24.5 51.1 24.5 49.2 24.8 48.0 25.15 46.15 26.25 45.55 L27.2 45.3 27.7 45.3 87.65 45.3 M6.8 11.2 L5.8 11.15 Q0.1 10.65 0.0 5.85 -0.05 3.95 0.5 2.7 1.15 1.05 2.65 0.45 L4.75 0.05 5.6 0.05 110.25 0.05 Q113.5 -0.2 115.0 2.0 115.8 3.1 115.85 5.5 L115.85 5.85 Q115.8 7.6 115.25 8.75 114.0 11.2 110.35 11.2 L6.8 11.2" fill="#9e47cf" fill-rule="evenodd" stroke="none"/>
  </g>
</svg>
