<?xml version="1.0" encoding="UTF-8" standalone="no"?>
<svg xmlns:xlink="http://www.w3.org/1999/xlink" height="80.6px" width="117.85px" xmlns="http://www.w3.org/2000/svg">
  <g transform="matrix(1.0, 0.0, 0.0, 1.0, 1.0, 1.0)">
    <path d="M54.25 11.2 L110.35 11.2 Q114.0 11.2 115.25 8.75 115.8 7.6 115.85 5.85 L115.85 5.5 Q115.8 3.1 115.0 2.0 113.5 -0.2 110.25 0.05 L5.6 0.05 4.75 0.05 2.65 0.45 Q1.15 1.05 0.5 2.7 -0.05 3.95 0.0 5.85 0.1 10.65 5.8 11.15 L6.8 11.2 7.15 11.2 54.25 11.2 97.5 22.45 99.3 22.45 Q101.85 22.2 103.1 24.4 103.7 25.45 103.7 27.9 L103.7 28.2 Q103.7 29.95 103.25 31.1 102.3 33.55 99.4 33.55 L52.55 33.55 85.7 45.3 87.65 45.3 Q89.5 45.05 90.4 47.25 90.85 48.3 90.85 50.6 L90.85 51.1 90.7 53.35 Q90.05 56.45 87.75 56.45 L53.3 56.45 73.9 67.5 76.35 67.5 Q77.55 67.25 78.05 69.45 78.35 70.6 78.35 73.25 L78.15 76.15 Q77.7 78.6 76.4 78.6 L39.1 78.6 Q37.05 78.6 37.05 73.25 L37.15 71.2 Q37.25 69.25 37.7 68.3 38.1 67.55 38.7 67.5 L39.0 67.5 48.9 67.5 27.85 56.45 Q24.55 56.45 24.5 51.1 24.5 49.2 24.8 48.0 25.15 46.15 26.25 45.55 L27.2 45.3 27.7 45.3 48.4 45.3 16.7 33.7 16.45 33.55 Q12.2 33.55 12.15 28.2 L12.35 25.9 Q12.9 22.95 15.1 22.55 L15.85 22.45 16.6 22.45 50.65 22.45 7.15 11.2 M73.9 67.5 L48.9 67.5 M27.85 56.45 L53.3 56.45 M16.7 33.7 L52.55 33.55 M97.5 22.45 L50.65 22.45 M85.7 45.3 L48.4 45.3" fill="none" stroke="#000000" stroke-linecap="round" stroke-linejoin="round" stroke-width="2.0"/>
  </g>
</svg>
