<?xml version="1.0" encoding="UTF-8" standalone="no"?>
<svg xmlns:xlink="http://www.w3.org/1999/xlink" height="101.85px" width="98.15px" xmlns="http://www.w3.org/2000/svg">
  <g transform="matrix(1.0, 0.0, 0.0, 1.0, 0.0, 0.0)">
    <path d="M88.9 3.25 Q96.85 13.25 98.05 28.2 99.15 40.8 88.45 57.05 L88.2 57.4 87.4 58.55 Q77.4 73.5 72.1 78.6 L69.4 81.5 Q64.3 86.85 58.05 90.9 45.75 98.8 28.9 101.4 22.4 102.45 16.55 101.15 L12.55 100.05 Q9.05 98.75 5.75 96.55 2.8 94.55 0.0 91.85 L3.05 91.55 5.05 91.2 Q7.7 90.6 10.15 89.45 12.3 88.45 14.25 87.0 L18.1 83.8 Q21.75 80.0 24.6 74.5 28.1 67.65 28.4 60.5 28.35 54.1 29.95 48.45 33.4 36.3 41.2 25.75 42.2 15.0 46.1 4.8 46.95 2.6 54.95 4.8 62.95 6.95 73.65 8.15 80.8 4.35 84.75 1.55 88.65 -1.25 89.95 1.05 90.35 1.75 88.9 3.25" fill="#452f91" fill-rule="evenodd" stroke="none"/>
  </g>
</svg>
