<?xml version="1.0" encoding="UTF-8" standalone="no"?>
<svg xmlns:xlink="http://www.w3.org/1999/xlink" height="45.15px" width="77.15px" xmlns="http://www.w3.org/2000/svg">
  <g transform="matrix(1.0, 0.0, 0.0, 1.0, 0.5, 22.55)">
    <path d="M23.15 -21.85 Q20.8 -21.5 19.95 -18.45 L19.95 -17.75 Q20.0 -16.9 20.35 -16.3 20.9 -15.25 22.35 -15.15 L22.35 -15.35 Q23.15 -19.65 25.95 -20.85 24.55 -21.8 23.15 -21.85 21.35 -22.5 19.5 -21.2 14.6 -17.65 11.0 -11.65 10.0 -8.55 12.35 -6.65 16.55 -12.2 19.95 -17.75 M12.35 -6.65 L9.65 -3.2 Q10.5 -1.9 12.0 -0.85 12.7 -0.4 13.55 0.0 L20.35 -16.3 M22.35 -15.15 Q20.75 -6.05 18.3 0.55 20.0 2.55 25.6 2.8 L26.5 2.85 Q30.65 2.85 33.0 0.55 L31.15 -14.5 30.95 -16.2 Q30.05 -19.45 28.6 -20.6 27.9 -21.1 26.75 -21.05 L25.95 -20.85 M41.45 5.45 L41.55 5.6 42.4 7.0 Q44.3 12.2 45.0 11.85 47.55 12.4 45.75 -12.4 L40.65 -12.5 34.0 -13.4 Q32.2 -13.85 31.15 -14.5 M28.6 -20.6 L34.5 -19.45 40.85 -18.8 46.15 -18.55 46.35 -18.55 52.0 -18.95 Q55.65 -19.4 58.0 -20.1 59.5 -20.55 60.45 -21.1 62.05 -17.1 61.5 -16.15 L76.15 9.2 Q74.95 11.6 72.05 12.35 L72.7 14.0 Q68.55 16.9 63.5 16.5 L63.9 17.85 Q58.8 20.75 52.4 19.55 L52.5 21.05 Q45.4 21.7 40.95 20.4 L41.0 21.8 Q33.7 22.15 29.6 20.15 L29.3 22.1 Q21.7 21.4 18.7 18.5 L17.9 20.4 Q14.35 19.5 12.0 18.1 1.6 17.25 0.0 14.5 -0.45 10.15 12.0 -0.85 M72.05 12.35 L71.45 11.0 71.4 10.8 60.5 -15.45 59.15 -14.65 Q57.7 -13.9 55.85 -13.45 L63.5 16.5 M55.85 -13.45 L52.6 -12.8 50.1 -12.5 52.4 19.55 M50.1 -12.5 L46.65 -12.4 46.6 -12.4 45.75 -12.4 M61.5 -16.15 L60.5 -15.45 M40.95 20.4 L40.95 19.8 40.95 19.0 40.95 17.45 40.95 16.65 Q41.0 11.2 41.55 5.6 M41.45 5.45 Q39.9 3.25 38.5 4.7 35.1 11.05 30.95 12.0 L29.6 20.15 M30.95 12.0 L27.2 11.75 Q25.05 10.6 22.35 9.85 L20.25 14.85 20.0 15.3 19.25 17.3 19.15 17.45 18.7 18.5 M13.55 0.0 L12.8 1.85 Q15.95 4.85 25.6 4.95 L25.6 2.8 M22.35 9.85 Q18.7 8.85 14.1 8.75 L13.0 8.9 9.2 15.95 12.0 18.1 M13.0 8.9 Q1.65 10.55 0.0 14.5" fill="none" stroke="#000000" stroke-linecap="round" stroke-linejoin="round" stroke-width="1.0"/>
    <path d="M30.95 12.0 L33.0 1.65 M22.35 9.85 L24.15 5.65 M13.0 8.9 L15.0 5.25 M41.45 5.45 L41.7 -0.7" fill="none" stroke="#000000" stroke-linecap="round" stroke-linejoin="round" stroke-opacity="0.32941177" stroke-width="1.0"/>
  </g>
</svg>
