<?xml version="1.0" encoding="UTF-8" standalone="no"?>
<svg xmlns:xlink="http://www.w3.org/1999/xlink" height="32.1px" width="92.55px" xmlns="http://www.w3.org/2000/svg">
  <g transform="matrix(1.0, 0.0, 0.0, 1.0, 46.3, 16.05)">
    <path d="M36.3 12.55 Q33.6 12.15 32.15 10.05 31.75 8.7 32.8 8.35 33.8 7.95 34.6 8.9 34.7 7.7 35.35 7.35 36.35 7.25 37.05 8.6 37.35 11.05 36.3 12.55 M-34.05 14.05 Q-35.25 12.55 -34.9 10.1 -34.15 8.75 -33.05 8.85 -32.35 9.2 -32.25 10.4 -31.35 9.45 -30.25 9.85 -29.1 10.2 -29.55 11.6 -31.15 13.7 -34.05 14.05" fill="#99d09e" fill-rule="evenodd" stroke="none"/>
    <path d="M27.5 -8.75 L27.8 -7.65 29.75 -6.6 M26.3 -8.45 L27.8 -7.65 28.25 -5.9 M31.4 -1.7 L33.85 -1.3 34.3 -3.35 M33.85 -1.3 L37.0 -0.75 M30.9 -2.6 L30.9 -4.65 29.25 -5.05 M30.9 -4.65 L30.9 -5.95 M30.9 -4.65 L33.15 -4.05 M40.4 10.9 L43.55 9.95 44.55 8.2 M43.55 9.95 L45.75 9.3 M42.65 5.3 L41.45 7.85 44.85 7.65 M41.7 13.3 L43.55 9.95 M37.3 -0.35 L36.6 1.65 39.5 1.8 M36.25 4.6 L39.2 4.55 40.15 2.3 M35.7 4.15 L36.6 1.65 33.75 1.55 M38.05 7.4 L39.2 4.55 42.1 4.45 M38.35 8.0 L41.45 7.85 40.15 10.5 M33.3 0.95 L33.85 -1.3 M-23.85 -12.75 L-21.3 -14.0 -21.0 -15.55 M-36.3 -1.5 L-32.95 -2.1 -33.55 -3.9 M-27.8 -9.3 L-25.6 -9.95 -25.6 -11.15 M-25.6 -7.85 L-25.6 -9.95 -22.85 -10.8 M-29.35 -7.9 L-29.15 -6.3 -26.05 -7.0 M-28.7 -3.45 L-29.15 -6.3 -32.65 -5.5 M-21.75 -12.15 L-21.3 -14.0 -18.5 -15.45 M-32.95 -2.1 L-29.35 -2.8 M-37.65 -0.35 L-36.5 2.45 -32.65 1.4 M-35.15 5.75 L-36.5 2.45 -40.1 3.35 M-41.1 4.8 L-40.25 6.95 -35.4 6.1 M-40.25 6.95 L-38.75 10.7 M-43.9 8.2 L-42.75 11.15 -38.7 11.15 M-42.75 11.15 L-41.05 15.55 M-45.8 11.15 L-42.75 11.15 M-43.2 7.45 L-40.25 6.95 M-32.0 1.15 L-32.95 -2.1" fill="none" stroke="#99d09e" stroke-linecap="round" stroke-linejoin="round" stroke-width="1.0"/>
  </g>
</svg>
