<?xml version="1.0" encoding="UTF-8" standalone="no"?>
<svg xmlns:xlink="http://www.w3.org/1999/xlink" height="49.2px" width="71.85px" xmlns="http://www.w3.org/2000/svg">
  <g transform="matrix(1.0, 0.0, 0.0, 1.0, 35.95, 24.6)">
    <path d="M29.55 16.25 L29.7 16.75 Q25.0 21.45 17.3 22.35 6.25 26.4 -8.55 23.2 L-8.35 19.55 Q-7.75 7.6 -6.6 -5.65 L-6.3 -9.3 -6.1 -10.9 -5.95 -12.7 -5.6 -16.65 -6.35 -12.5 -6.75 -10.55 -7.05 -8.9 -7.65 -5.65 Q-9.65 6.95 -10.65 19.75 L-10.95 23.2 Q-23.5 22.75 -30.05 17.35 L-29.85 16.65 Q-33.95 14.45 -35.95 11.9 L-35.05 9.25 Q-31.9 0.05 -28.2 -8.9 L-27.45 -10.65 -26.75 -12.4 -25.8 -14.5 -24.9 -16.6 -24.2 -18.2 -21.25 -24.6 Q1.4 -20.8 20.25 -24.2 L35.9 11.1 Q32.7 14.95 29.55 16.25" fill="#643d4a" fill-rule="evenodd" stroke="none"/>
  </g>
</svg>
