<?xml version="1.0" encoding="UTF-8" standalone="no"?>
<svg xmlns:xlink="http://www.w3.org/1999/xlink" height="23.6px" width="46.65px" xmlns="http://www.w3.org/2000/svg">
  <g transform="matrix(1.0, 0.0, 0.0, 1.0, 23.35, 11.8)">
    <path d="M5.0 -3.1 Q5.0 -3.85 4.5 -4.35 3.95 -4.9 3.25 -4.9 2.55 -4.9 1.95 -4.35 1.45 -3.85 1.45 -3.1 1.45 -2.35 1.95 -1.85 2.55 -1.3 3.25 -1.3 3.95 -1.3 4.5 -1.85 5.0 -2.35 5.0 -3.1 M5.15 -9.1 Q5.15 -9.85 4.65 -10.4 4.1 -10.9 3.35 -10.9 2.65 -10.9 2.1 -10.4 1.55 -9.85 1.55 -9.1 1.55 -8.4 2.1 -7.85 2.65 -7.35 3.35 -7.35 4.1 -7.35 4.65 -7.85 5.15 -8.4 5.15 -9.1 M-16.2 -11.8 L6.75 -11.4 19.15 -11.8 Q23.35 -0.9 23.3 8.2 17.95 10.0 8.9 11.5 L6.75 5.9 6.75 4.15 4.15 11.8 Q-11.5 11.45 -23.35 6.05 -19.35 -7.05 -16.2 -11.8 M4.85 2.4 Q4.85 1.65 4.3 1.15 3.8 0.6 3.05 0.6 2.35 0.6 1.8 1.15 1.25 1.65 1.25 2.4 1.25 3.15 1.8 3.65 2.35 4.2 3.05 4.2 3.8 4.2 4.3 3.65 4.85 3.15 4.85 2.4" fill="#226228" fill-rule="evenodd" stroke="none"/>
  </g>
</svg>
