<?xml version="1.0" encoding="UTF-8" standalone="no"?>
<svg xmlns:xlink="http://www.w3.org/1999/xlink" height="29.7px" width="51.15px" xmlns="http://www.w3.org/2000/svg">
  <g transform="matrix(1.0, 0.0, 0.0, 1.0, 25.55, 14.85)">
    <path d="M-17.4 -13.55 Q-3.1 -10.25 6.45 -10.95 L9.6 -11.35 Q15.4 -12.2 18.8 -14.85 L19.85 -12.1 19.85 -12.05 20.4 -9.8 23.15 -3.05 Q24.15 -0.4 23.7 0.5 24.3 3.3 24.05 5.05 25.65 6.15 25.6 7.15 25.6 8.0 24.75 9.0 L24.65 9.15 22.4 10.6 20.7 11.2 Q17.65 12.2 14.85 12.35 L11.7 12.2 Q10.65 12.35 10.85 10.05 L9.85 9.25 9.8 9.2 9.45 9.9 Q9.8 11.1 9.2 12.3 L6.85 13.65 5.75 13.95 -2.0 14.85 -11.05 14.25 -11.65 14.15 -19.55 12.3 -23.75 10.95 -23.05 9.9 -24.6 9.95 -25.55 9.4 -24.7 8.15 -23.7 7.25 Q-24.75 2.7 -23.0 -2.6 -21.3 -7.8 -19.95 -9.8 L-19.85 -10.05 -19.75 -10.05 -17.4 -13.55" fill="#f9dfc3" fill-rule="evenodd" stroke="none"/>
  </g>
</svg>
