<?xml version="1.0" encoding="UTF-8" standalone="no"?>
<svg xmlns:xlink="http://www.w3.org/1999/xlink" height="24.7px" width="53.5px" xmlns="http://www.w3.org/2000/svg">
  <g transform="matrix(1.0, 0.0, 0.0, 1.0, 26.75, 12.35)">
    <path d="M-21.6 -11.45 Q-24.0 -6.2 -23.35 -3.9 -26.1 0.3 -25.3 3.75 L-25.1 3.6 -24.6 3.8 -22.35 4.1 -16.45 4.65 -15.05 4.8 -8.35 5.15 -0.45 5.3 6.85 5.2 10.5 5.1 Q-3.2 5.1 -11.85 3.6 -12.9 2.75 -12.6 -0.35 L-12.4 -2.25 Q-5.0 -3.65 -1.7 -9.7 L0.85 -9.1 13.8 -9.55 16.6 -10.25 Q18.9 -6.45 24.25 -3.15 L24.3 -1.45 Q24.3 3.25 22.25 4.05 L23.1 3.8 23.85 3.55 Q25.75 2.75 25.95 1.1 26.2 -1.15 24.3 -4.75 24.45 -7.6 22.95 -11.6 M13.8 -9.55 Q16.8 -3.5 24.3 -1.45 M23.85 3.55 Q24.85 4.2 25.2 6.65 25.9 9.1 24.1 9.75 L20.5 10.6 14.1 11.2 7.25 11.5 1.1 11.6 -0.7 11.55 -8.75 11.2 -15.1 10.65 -16.4 10.45 -22.4 9.55 -24.2 9.1 Q-25.55 8.7 -26.0 6.25 -26.05 4.3 -25.3 3.75 M10.5 5.1 L10.8 5.1 13.65 5.2 19.5 4.7 22.25 4.05 M6.85 5.2 Q7.65 9.4 7.25 11.5 M13.65 5.2 Q14.35 9.4 14.1 11.2 M19.5 4.7 Q20.95 7.85 20.5 10.6 M-8.35 5.15 Q-9.45 8.45 -8.75 11.2 M-0.45 5.3 Q-1.3 9.4 -0.7 11.55 M-16.45 4.65 Q-17.1 7.5 -16.4 10.45 M-22.35 4.1 Q-23.35 6.85 -22.4 9.55 M-12.6 -0.35 Q-2.95 -0.55 0.85 -9.1" fill="none" stroke="#000000" stroke-linecap="round" stroke-linejoin="round" stroke-width="1.5"/>
  </g>
</svg>
