<?xml version="1.0" encoding="UTF-8" standalone="no"?>
<svg xmlns:xlink="http://www.w3.org/1999/xlink" height="21.0px" width="52.35px" xmlns="http://www.w3.org/2000/svg">
  <g transform="matrix(1.0, 0.0, 0.0, 1.0, 26.15, 10.5)">
    <path d="M21.25 -9.75 Q23.25 -5.3 24.35 -1.15 25.15 1.65 25.45 4.3 0.0 14.1 -25.4 6.35 L-23.95 0.05 Q-22.75 -4.5 -21.05 -9.1" fill="none" stroke="#000000" stroke-linecap="round" stroke-linejoin="round" stroke-width="1.5"/>
    <path d="M-8.8 -6.35 L-6.5 -3.6 Q-8.35 -3.7 -11.45 -6.65" fill="none" stroke="#000000" stroke-linecap="round" stroke-linejoin="round" stroke-opacity="0.6784314" stroke-width="1.0"/>
    <path d="M-21.05 -9.1 Q-18.55 -7.65 -11.45 -6.65 L-8.8 -6.35 -1.1 -5.6 Q14.25 -5.8 21.25 -9.75 M-23.95 0.05 Q-17.55 3.65 3.85 3.75 18.5 2.85 24.35 -1.15" fill="none" stroke="#000000" stroke-linecap="round" stroke-linejoin="round" stroke-width="1.0"/>
  </g>
</svg>
