<?xml version="1.0" encoding="UTF-8" standalone="no"?>
<svg xmlns:xlink="http://www.w3.org/1999/xlink" height="41.9px" width="40.6px" xmlns="http://www.w3.org/2000/svg">
  <g transform="matrix(1.0, 0.0, 0.0, 1.0, 20.3, 20.95)">
    <path d="M-11.0 4.95 L-10.75 5.6 Q-9.6 9.45 -12.7 15.75 -16.1 22.5 -19.4 20.45 -21.1 18.65 -19.65 14.15 L-18.65 11.55 Q-14.55 4.7 -11.0 4.95 M-5.15 -20.75 L-5.0 -20.7 Q-4.95 -19.65 -5.4 -18.35 L-5.6 -17.9 -6.05 -16.95 Q-7.05 -15.25 -8.95 -13.45 -11.15 -11.6 -12.35 -11.95 L-12.8 -12.3 -13.3 -13.2 -13.05 -15.2 -12.55 -16.2 -11.05 -18.25 Q-7.85 -21.2 -5.75 -20.9 L-5.15 -20.75 M16.25 -6.65 L16.65 -6.3 17.9 -4.95 Q19.2 -2.8 20.0 1.05 20.4 3.3 20.25 4.65 20.05 5.85 19.45 6.3 19.0 6.7 18.4 6.7 17.4 6.45 16.7 5.35 L16.65 5.25 Q15.95 4.25 15.45 2.75 L14.9 0.65 Q14.1 -5.5 16.25 -6.65" fill="#813e35" fill-rule="evenodd" stroke="none"/>
  </g>
</svg>
