<?xml version="1.0" encoding="UTF-8" standalone="no"?>
<svg xmlns:xlink="http://www.w3.org/1999/xlink" height="20.3px" width="49.8px" xmlns="http://www.w3.org/2000/svg">
  <g transform="matrix(1.0, 0.0, 0.0, 1.0, 24.9, 10.15)">
    <path d="M11.7 -8.05 L20.15 -10.15 22.4 -4.4 Q17.6 -4.95 16.35 -5.85 15.6 -4.8 16.35 -2.85 18.25 -1.0 23.5 -0.95 24.75 3.35 24.9 6.65 18.25 9.9 13.85 9.25 11.65 5.05 11.7 -8.05 M-18.9 -10.15 L-5.35 -8.45 -6.7 6.25 Q-7.0 9.45 -7.55 9.45 -10.55 10.35 -12.55 10.1 -21.25 9.3 -24.5 7.8 L-24.85 6.6 Q-25.45 2.1 -18.9 -10.15 M-20.6 -4.55 Q-22.65 -1.95 -21.75 -0.9 -18.35 0.25 -11.1 -1.55 -9.1 -2.7 -9.55 -5.5 -16.8 -3.65 -20.6 -4.55" fill="#4d50b6" fill-rule="evenodd" stroke="none"/>
  </g>
</svg>
