<?xml version="1.0" encoding="UTF-8" standalone="no"?>
<svg xmlns:xlink="http://www.w3.org/1999/xlink" height="77.55px" width="48.2px" xmlns="http://www.w3.org/2000/svg">
  <g transform="matrix(1.0, 0.0, 0.0, 1.0, 24.1, 38.8)">
    <path d="M17.75 -28.7 Q4.3 -25.95 -13.1 -25.05 -13.4 -3.25 -10.7 12.0 -4.55 23.3 6.45 30.6 L7.0 31.05 7.35 31.25 Q15.85 19.75 18.55 8.85 20.15 -6.0 17.75 -28.7 M22.55 -36.9 Q25.25 -8.05 23.25 8.7 17.85 28.15 7.35 38.7 L7.35 38.75 -1.75 36.7 Q-14.75 27.55 -20.6 15.9 -24.9 -11.45 -23.9 -34.65 L18.1 -38.8 22.55 -36.9" fill="#c65151" fill-rule="evenodd" stroke="none"/>
  </g>
</svg>
