<?xml version="1.0" encoding="UTF-8" standalone="no"?>
<svg xmlns:xlink="http://www.w3.org/1999/xlink" height="43.6px" width="36.05px" xmlns="http://www.w3.org/2000/svg">
  <g transform="matrix(1.0, 0.0, 0.0, 1.0, 18.0, 21.8)">
    <path d="M18.05 -0.05 Q18.05 9.0 12.75 15.4 7.45 21.8 0.0 21.8 -7.45 21.8 -12.75 15.4 -18.0 9.0 -18.0 -0.05 -18.0 -9.05 -12.75 -15.45 -7.45 -21.8 0.0 -21.8 7.45 -21.8 12.75 -15.45 18.05 -9.05 18.05 -0.05 M9.45 -10.85 Q6.25 -14.65 2.25 -15.1 L0.8 -15.15 Q-4.25 -15.15 -7.85 -10.85 -10.6 -7.5 -11.2 -3.05 L-11.4 -0.35 Q-11.4 5.75 -7.85 10.1 -6.5 11.75 -4.95 12.75 -2.35 14.45 0.8 14.45 5.15 14.45 8.45 11.25 L8.45 11.2 9.45 10.1 Q13.05 5.75 13.05 -3.2 13.05 -6.5 9.45 -10.85" fill="#4683c6" fill-rule="evenodd" stroke="none"/>
  </g>
</svg>
