<?xml version="1.0" encoding="UTF-8" standalone="no"?>
<svg xmlns:xlink="http://www.w3.org/1999/xlink" height="72.65px" width="58.9px" xmlns="http://www.w3.org/2000/svg">
  <g transform="matrix(1.0, 0.0, 0.0, 1.0, 29.45, 36.3)">
    <path d="M9.9 11.45 L4.05 6.6 -3.5 12.95 -1.75 2.8 -9.75 -2.85 -0.7 -4.4 3.7 -14.9 7.6 -4.25 14.5 -3.0 8.95 2.85 9.9 11.4 9.9 11.45 M17.3 -19.85 Q24.2 -11.5 24.2 0.2 24.2 12.0 17.3 20.25 10.45 28.6 0.7 28.6 -8.95 28.6 -15.8 20.25 -22.7 12.0 -22.7 0.2 -22.7 -11.5 -15.8 -19.85 -8.95 -28.1 0.7 -28.1 10.45 -28.1 17.3 -19.85 M14.2 -15.25 Q8.9 -21.6 1.45 -21.6 -6.0 -21.6 -11.3 -15.25 -16.55 -8.85 -16.55 0.15 -16.55 9.2 -11.3 15.6 -6.0 22.0 1.45 22.0 8.9 22.0 14.2 15.6 19.5 9.2 19.5 0.15 19.5 -8.85 14.2 -15.25" fill="#ffffff" fill-rule="evenodd" stroke="none"/>
    <path d="M9.9 11.45 L9.9 11.4 10.9 10.3 Q14.5 5.95 14.5 -3.0 14.5 -6.3 10.9 -10.65 7.7 -14.45 3.7 -14.9 L2.25 -14.95 Q-2.8 -14.95 -6.4 -10.65 -9.15 -7.3 -9.75 -2.85 L-9.95 -0.15 Q-9.95 5.95 -6.4 10.3 -5.05 11.95 -3.5 12.95 -0.9 14.65 2.25 14.65 6.6 14.65 9.9 11.45 M17.3 -19.85 Q24.2 -11.5 24.2 0.2 24.2 12.0 17.3 20.25 10.45 28.6 0.7 28.6 -8.95 28.6 -15.8 20.25 -22.7 12.0 -22.7 0.2 -22.7 -11.5 -15.8 -19.85 -8.95 -28.1 0.7 -28.1 10.45 -28.1 17.3 -19.85 M14.2 -15.25 Q19.5 -8.85 19.5 0.15 19.5 9.2 14.2 15.6 8.9 22.0 1.45 22.0 -6.0 22.0 -11.3 15.6 -16.55 9.2 -16.55 0.15 -16.55 -8.85 -11.3 -15.25 -6.0 -21.6 1.45 -21.6 8.9 -21.6 14.2 -15.25" fill="none" stroke="#000000" stroke-linecap="round" stroke-linejoin="round" stroke-width="1.5"/>
    <path d="M9.9 11.4 L8.95 2.85 14.5 -3.0 7.6 -4.25 3.7 -14.9 -0.7 -4.4 -9.75 -2.85 -1.75 2.8 -3.5 12.95 4.05 6.6 9.9 11.45 M20.05 -25.0 Q28.45 -14.6 28.45 0.05 28.45 14.7 20.05 25.0 11.8 35.35 -0.05 35.35 -11.8 35.35 -20.2 25.0 -28.45 14.7 -28.45 0.05 -28.45 -14.6 -20.2 -25.0 -11.8 -35.3 -0.05 -35.3 11.8 -35.3 20.05 -25.0" fill="none" stroke="#000000" stroke-linecap="round" stroke-linejoin="round" stroke-width="2.0"/>
  </g>
</svg>
