<?xml version="1.0" encoding="UTF-8" standalone="no"?>
<svg xmlns:xlink="http://www.w3.org/1999/xlink" height="17.1px" width="40.8px" xmlns="http://www.w3.org/2000/svg">
  <g transform="matrix(1.0, 0.0, 0.0, 1.0, 15.25, 24.4)">
    <path d="M22.6 -14.75 Q7.0 -3.55 -11.6 -9.2 -15.25 -11.3 -15.25 -15.25 -15.25 -19.25 -9.3 -17.9 6.0 -15.15 20.5 -23.3 25.35 -26.2 25.55 -21.6 25.75 -17.05 22.6 -14.75 M19.0 -17.4 Q18.55 -19.0 15.55 -17.65 6.4 -13.9 -4.0 -13.9 -8.05 -14.0 -7.75 -12.6 -7.5 -11.2 -4.9 -10.75 7.9 -9.9 17.55 -14.8 19.45 -15.8 19.0 -17.4" fill="#b3bfc6" fill-rule="evenodd" stroke="none"/>
    <path d="M19.0 -17.4 Q19.45 -15.8 17.55 -14.8 7.9 -9.9 -4.9 -10.75 -7.5 -11.2 -7.75 -12.6 -8.05 -14.0 -4.0 -13.9 6.4 -13.9 15.55 -17.65 18.55 -19.0 19.0 -17.4" fill="#ffffff" fill-rule="evenodd" stroke="none"/>
  </g>
</svg>
