<?xml version="1.0" encoding="UTF-8" standalone="no"?>
<svg xmlns:xlink="http://www.w3.org/1999/xlink" height="72.8px" width="48.25px" xmlns="http://www.w3.org/2000/svg">
  <g transform="matrix(1.0, 0.0, 0.0, 1.0, 24.15, 36.4)">
    <path d="M8.6 -14.9 L8.6 -4.3 17.15 -5.1 17.45 2.15 8.6 3.3 8.6 18.5 1.0 19.8 1.0 4.05 -9.15 5.0 -9.15 -2.2 1.0 -3.4 1.0 -14.15 8.6 -14.9 M0.35 -36.4 Q8.3 -28.05 20.85 -31.0 L24.1 -25.75 Q10.3 -22.45 2.35 -30.8 -4.7 -21.05 -18.7 -21.3 L-18.7 19.2 Q-7.6 29.1 3.65 35.8 -4.05 39.5 -24.15 20.2 L-24.15 -26.6 Q-6.7 -26.65 0.35 -36.4" fill="#b3bfc6" fill-rule="evenodd" stroke="none"/>
  </g>
</svg>
