<?xml version="1.0" encoding="UTF-8" standalone="no"?>
<svg xmlns:xlink="http://www.w3.org/1999/xlink" height="75.8px" width="52.3px" xmlns="http://www.w3.org/2000/svg">
  <g transform="matrix(1.0, 0.0, 0.0, 1.0, 26.15, 37.9)">
    <path d="M0.0 -37.9 L26.15 -31.1 26.15 2.75 Q24.0 16.3 11.55 26.15 3.3 32.35 0.0 37.9 -3.3 33.15 -11.5 28.95 -24.0 22.1 -26.15 9.1 L-26.15 -24.75 0.0 -37.9 M0.0 -29.55 L-20.0 -18.9 -20.0 6.95 Q-18.6 17.85 -9.45 22.15 -3.2 25.0 0.0 28.95 3.2 24.2 9.45 19.85 18.6 13.35 20.0 2.1 L20.0 -23.75 0.0 -29.55 M17.65 -9.35 L8.05 -0.35 11.85 11.65 1.5 5.45 -8.5 13.95 -5.2 1.15 -15.25 -5.6 -2.9 -7.35 0.95 -19.95 5.35 -8.25 17.65 -9.35" fill="#c65151" fill-rule="evenodd" stroke="none"/>
  </g>
</svg>
