<?xml version="1.0" encoding="UTF-8" standalone="no"?>
<svg xmlns:xlink="http://www.w3.org/1999/xlink" height="79.6px" width="56.35px" xmlns="http://www.w3.org/2000/svg">
  <g transform="matrix(1.0, 0.0, 0.0, 1.0, 33.25, 38.95)">
    <path d="M-4.65 -38.95 L18.65 -33.4 23.1 -28.35 23.1 5.5 Q20.95 19.05 8.5 28.9 0.25 35.1 -3.05 40.65 L-18.6 33.9 Q-29.5 27.6 -33.25 13.9 L-33.25 -25.15 -4.65 -38.95 M-23.05 -16.15 L-23.05 9.7 Q-21.65 20.6 -12.5 24.9 -6.25 27.75 -3.05 31.7 0.15 26.95 6.4 22.6 15.55 16.1 16.95 4.85 L16.95 -21.0 -3.05 -26.8 -23.05 -16.15" fill="#000000" fill-opacity="0.32941177" fill-rule="evenodd" stroke="none"/>
  </g>
</svg>
