<?xml version="1.0" encoding="UTF-8" standalone="no"?>
<svg xmlns:xlink="http://www.w3.org/1999/xlink" height="81.6px" width="58.35px" xmlns="http://www.w3.org/2000/svg">
  <g transform="matrix(1.0, 0.0, 0.0, 1.0, 29.2, 40.8)">
    <path d="M2.0 39.8 L-13.55 33.05 Q-24.45 26.75 -28.2 13.05 L-28.2 -27.1 0.4 -39.8 23.7 -34.25 28.15 -29.2 28.15 4.65 Q26.0 18.2 13.55 28.05 5.3 34.25 2.0 39.8 -1.3 35.05 -9.5 30.85 -22.0 24.0 -24.15 11.0 L-24.15 -24.3 2.0 -36.0 28.15 -29.2 M10.05 -11.1 L3.1 -21.25 -12.45 3.6 17.25 0.95 10.25 -10.8 10.1 -11.05 10.05 -11.1 10.1 -11.1 10.25 -10.8 M10.1 -11.05 L10.1 -11.1 M2.0 -27.65 L-18.0 -17.0 -18.0 8.85 Q-16.6 19.75 -7.45 24.05 -1.2 26.9 2.0 30.85 5.2 26.1 11.45 21.75 20.6 15.25 22.0 4.0 L22.0 -21.85 2.0 -27.65 M2.8 22.2 L-7.4 10.25 13.1 8.35 2.8 22.2" fill="none" stroke="#000000" stroke-linecap="round" stroke-linejoin="round" stroke-width="2.0"/>
  </g>
</svg>
