<?xml version="1.0" encoding="UTF-8" standalone="no"?>
<svg xmlns:xlink="http://www.w3.org/1999/xlink" height="47.4px" width="35.75px" xmlns="http://www.w3.org/2000/svg">
  <g transform="matrix(1.0, 0.0, 0.0, 1.0, 0.0, 0.0)">
    <path d="M29.15 27.95 Q26.4 27.65 24.15 23.85 21.8 19.8 21.35 14.0 20.9 8.2 22.6 4.05 24.3 0.25 27.0 0.05 L27.4 0.0 Q30.4 0.0 32.75 4.05 35.2 8.2 35.65 14.0 36.1 19.8 34.3 23.85 32.55 27.95 29.55 27.95 L29.15 27.95 M1.8 5.0 Q3.95 0.95 7.05 0.95 L7.45 1.0 7.9 1.05 Q10.55 1.5 12.55 5.0 13.7 7.05 14.35 9.5 15.0 12.0 15.15 14.95 15.3 20.75 13.2 24.8 L12.15 26.65 Q10.75 28.45 8.95 28.85 L8.45 28.9 8.0 28.9 Q4.85 28.9 2.5 24.8 0.8 21.75 0.3 17.75 L0.05 14.95 Q-0.05 12.8 0.2 10.85 0.55 7.6 1.8 5.0 M5.6 38.9 L31.55 37.8 Q29.05 47.35 19.0 47.4 10.35 47.25 5.6 38.9" fill="#10ecb5" fill-rule="evenodd" stroke="none"/>
  </g>
</svg>
