<?xml version="1.0" encoding="UTF-8" standalone="no"?>
<svg xmlns:xlink="http://www.w3.org/1999/xlink" height="70.65px" width="56.9px" xmlns="http://www.w3.org/2000/svg">
  <g transform="matrix(1.0, 0.0, 0.0, 1.0, 0.0, 0.0)">
    <path d="M8.25 10.3 Q16.65 0.0 28.4 0.0 40.25 0.0 48.5 10.3 56.9 20.7 56.9 35.35 56.9 50.0 48.5 60.3 40.25 70.65 28.4 70.65 16.65 70.65 8.25 60.3 0.0 50.0 0.0 35.35 0.0 20.7 8.25 10.3 M12.8 20.7 Q11.55 23.3 11.2 26.55 10.95 28.5 11.05 30.65 L11.3 33.45 Q11.8 37.45 13.5 40.5 15.85 44.6 19.0 44.6 L19.45 44.6 19.95 44.55 Q21.75 44.15 23.15 42.35 L24.2 40.5 Q26.3 36.45 26.15 30.65 26.0 27.7 25.35 25.2 24.7 22.75 23.55 20.7 21.55 17.2 18.9 16.75 L18.45 16.7 18.05 16.65 Q14.95 16.65 12.8 20.7 M38.0 15.75 L37.6 15.7 Q34.6 15.7 32.8 19.75 31.1 23.9 31.55 29.7 32.0 35.5 34.35 39.55 36.75 43.65 39.75 43.65 L40.15 43.65 40.55 43.65 Q43.55 43.65 45.3 39.55 47.1 35.5 46.65 29.7 46.2 23.9 43.75 19.75 41.4 15.7 38.4 15.7 L38.0 15.75 M16.6 54.6 Q21.35 62.95 30.0 63.1 40.05 63.05 42.55 53.5 L16.6 54.6" fill="#f6ff3f" fill-rule="evenodd" stroke="none"/>
  </g>
</svg>
