<?xml version="1.0" encoding="UTF-8" standalone="no"?>
<svg xmlns:xlink="http://www.w3.org/1999/xlink" height="48.65px" width="41.7px" xmlns="http://www.w3.org/2000/svg">
  <g transform="matrix(1.0, 0.0, 0.0, 1.0, 0.0, 0.0)">
    <path d="M0.1 25.8 Q-0.8 15.85 4.85 8.3 11.15 -0.45 21.0 0.05 29.75 0.3 35.9 7.9 41.25 14.6 41.7 23.7 42.0 32.3 37.7 39.15 33.15 46.05 25.9 48.05 L21.1 48.65 Q15.55 48.65 10.5 45.15 2.3 39.4 0.5 28.7 L0.1 25.8 M23.0 19.95 L22.7 19.95 Q21.05 20.0 19.95 21.5 18.9 22.95 19.1 24.8 L19.15 25.35 19.2 25.55 Q19.45 26.9 20.35 27.85 L21.05 28.45 Q22.0 29.1 23.0 29.1 L23.9 28.95 Q25.3 28.6 26.15 27.3 L26.75 25.85 26.9 24.4 Q26.8 22.7 25.8 21.45 24.65 20.0 23.0 19.95" fill="#a6a6a6" fill-rule="evenodd" stroke="none"/>
  </g>
</svg>
