<?xml version="1.0" encoding="UTF-8" standalone="no"?>
<svg xmlns:xlink="http://www.w3.org/1999/xlink" height="61.85px" width="53.05px" xmlns="http://www.w3.org/2000/svg">
  <g transform="matrix(1.0, 0.0, 0.0, 1.0, 0.0, 0.0)">
    <path d="M0.15 32.8 Q-1.0 20.15 6.2 10.5 14.2 -0.6 26.7 0.05 37.85 0.35 45.65 10.05 52.45 18.55 53.0 30.1 53.4 41.05 47.95 49.75 42.15 58.5 32.9 61.05 29.8 61.85 26.85 61.85 19.8 61.8 13.35 57.35 2.9 50.05 0.65 36.45 L0.15 32.8 M6.85 33.6 L7.25 36.5 Q9.05 47.2 17.25 52.95 22.3 56.45 27.85 56.45 L32.65 55.85 Q39.9 53.85 44.45 46.95 48.75 40.1 48.45 31.5 48.0 22.4 42.65 15.7 36.5 8.1 27.75 7.85 17.9 7.35 11.6 16.1 5.95 23.65 6.85 33.6" fill="#297ca6" fill-rule="evenodd" stroke="none"/>
  </g>
</svg>
