<?xml version="1.0" encoding="UTF-8" standalone="no"?>
<svg xmlns:xlink="http://www.w3.org/1999/xlink" height="61.65px" width="52.9px" xmlns="http://www.w3.org/2000/svg">
  <g transform="matrix(1.0, 0.0, 0.0, 1.0, 0.0, 0.0)">
    <path d="M28.35 22.0 Q22.65 29.25 23.0 38.5 L23.05 38.5 Q30.3 39.55 38.6 36.6 37.05 27.75 28.35 22.0 M10.6 5.4 Q15.75 0.8 22.4 0.0 L21.2 6.35 Q27.85 11.55 33.05 3.15 L31.65 0.5 Q37.5 1.85 42.25 6.25 L36.75 8.15 Q35.5 16.5 45.4 16.8 L47.85 12.95 Q51.75 19.1 52.75 26.7 L45.0 25.25 Q39.75 31.85 48.15 37.05 L52.9 34.6 Q52.35 41.15 49.45 46.9 L46.35 42.35 Q38.0 43.3 40.25 52.95 L44.2 54.2 Q40.45 58.0 35.6 59.95 L36.7 54.05 Q30.05 48.85 24.85 57.25 L27.2 61.65 26.85 61.65 Q19.8 61.6 13.35 57.15 L11.9 56.05 20.75 51.45 Q20.85 43.0 11.0 44.1 L7.5 51.85 Q2.2 45.5 0.65 36.25 L0.15 32.6 0.0 30.2 11.05 35.5 Q17.85 30.5 11.1 23.25 L0.15 25.7 Q0.9 18.45 4.8 12.35 L6.4 16.9 Q14.75 18.15 15.05 8.25 L10.6 5.4" fill="#972f29" fill-rule="evenodd" stroke="none"/>
  </g>
</svg>
