<?xml version="1.0" encoding="UTF-8" standalone="no"?>
<svg xmlns:xlink="http://www.w3.org/1999/xlink" height="87.6px" width="72.25px" xmlns="http://www.w3.org/2000/svg">
  <g transform="matrix(1.0, 0.0, 0.0, 1.0, 1.0, 1.0)">
    <path d="M54.15 25.55 L51.7 29.4 Q41.8 29.1 43.05 20.75 L48.55 18.85 Q43.8 14.45 37.95 13.1 L39.35 15.75 Q34.15 24.15 27.5 18.95 L28.7 12.6 Q22.05 13.4 16.9 18.0 L21.35 20.85 Q21.05 30.75 12.7 29.5 L11.1 24.95 Q7.2 31.05 6.45 38.3 L17.4 35.85 Q24.15 43.1 17.35 48.1 L6.3 42.8 6.45 45.2 6.95 48.85 Q8.5 58.1 13.8 64.45 L17.3 56.7 Q27.15 55.6 27.05 64.05 L18.2 68.65 19.65 69.75 Q26.1 74.2 33.15 74.25 L33.5 74.25 31.15 69.85 Q36.35 61.45 43.0 66.65 L41.9 72.55 Q46.75 70.6 50.5 66.8 L46.55 65.55 Q44.3 55.9 52.65 54.95 L55.75 59.5 Q58.65 53.75 59.2 47.2 L54.45 49.65 Q46.05 44.45 51.3 37.85 L59.05 39.3 Q58.05 31.7 54.15 25.55 L61.25 14.35 48.55 18.85 M59.05 39.3 L70.25 41.4 59.2 47.2 M28.7 12.6 L31.05 0.0 37.95 13.1 M11.1 24.95 L6.3 11.3 16.9 18.0 M6.3 42.8 L0.0 39.75 6.45 38.3 M37.6 44.35 L34.65 34.6 Q28.95 41.85 29.3 51.1 L29.35 51.1 37.6 44.35 44.9 49.2 Q43.35 40.35 34.65 34.6 M18.2 68.65 L9.95 72.9 13.8 64.45 M41.9 72.55 L39.45 85.6 33.5 74.25 M55.75 59.5 L63.6 70.9 50.5 66.8 M29.35 51.1 Q36.6 52.15 44.9 49.2" fill="none" stroke="#000000" stroke-linecap="round" stroke-linejoin="round" stroke-width="2.0"/>
  </g>
</svg>
