<?xml version="1.0" encoding="UTF-8" standalone="no"?>
<svg xmlns:xlink="http://www.w3.org/1999/xlink" height="62.65px" width="53.2px" xmlns="http://www.w3.org/2000/svg">
  <g transform="matrix(1.0, 0.0, 0.0, 1.0, 1.0, 1.0)">
    <path d="M4.25 14.3 L3.4 14.7 Q-1.6 17.5 0.8 24.9 L1.0 25.35 Q0.35 31.2 1.9 37.5 4.9 50.15 14.9 56.25 18.3 58.3 21.9 59.2 22.3 60.85 23.7 60.65 L25.75 59.6 Q29.6 59.7 33.7 58.3 L37.65 56.45 37.7 56.4 37.8 56.35 37.85 56.3 Q43.9 52.65 47.5 45.35 50.7 38.75 51.0 31.7 51.4 30.45 51.0 29.2 L50.5 24.9 Q48.7 13.5 40.9 6.4 32.55 -1.3 22.25 0.25 11.05 1.9 4.95 12.95 L4.25 14.3 M33.8 34.95 Q32.3 37.9 29.5 38.75 26.6 39.55 23.95 37.8 L22.5 36.35 Q19.0 24.55 29.65 21.95 L31.6 23.15 Q34.05 25.05 34.75 28.6 35.35 32.0 33.8 34.95" fill="none" stroke="#58351f" stroke-linecap="round" stroke-linejoin="round" stroke-width="2.0"/>
  </g>
</svg>
