<?xml version="1.0" encoding="UTF-8" standalone="no"?>
<svg xmlns:xlink="http://www.w3.org/1999/xlink" height="21.1px" width="33.2px" xmlns="http://www.w3.org/2000/svg">
  <g transform="matrix(1.0, 0.0, 0.0, 1.0, 16.6, 10.55)">
    <path d="M-0.2 0.05 Q-0.8 -0.8 -0.8 -1.85 -0.8 -3.15 0.1 -4.1 L0.65 -4.5 Q-3.7 -8.2 -8.65 -9.3 -13.65 -10.5 -15.2 -9.2 -17.2 -5.65 -13.95 -2.3 -16.3 2.1 -14.4 4.25 -9.9 4.55 -6.25 3.45 -2.85 2.35 -0.2 0.05 L0.1 0.45 Q1.05 1.4 2.35 1.4 L2.8 1.4 Q3.85 1.25 4.6 0.45 L5.1 -0.1 Q5.55 -0.85 5.55 -1.8 5.55 -3.15 4.6 -4.1 L3.9 -4.6 Q3.2 -5.0 2.35 -5.0 1.4 -5.0 0.65 -4.5 M3.9 -4.6 Q7.1 -7.6 10.0 -8.8 12.9 -9.95 14.65 -9.2 16.25 -4.9 14.0 -3.0 16.75 0.05 15.65 2.65 L11.6 3.3 Q14.0 4.95 14.3 6.6 L9.25 5.8 7.65 8.7 Q4.45 6.65 2.8 1.45 1.9 7.05 -1.2 9.9 L-3.85 7.4 -9.65 8.3 Q-9.15 5.85 -6.25 3.45 M2.8 1.45 L2.8 1.4 M11.6 3.3 Q7.8 3.15 5.1 -0.1" fill="none" stroke="#000000" stroke-linecap="round" stroke-linejoin="round" stroke-width="1.3"/>
  </g>
</svg>
