<?xml version="1.0" encoding="UTF-8" standalone="no"?>
<svg xmlns:xlink="http://www.w3.org/1999/xlink" height="8.7px" width="7.1px" xmlns="http://www.w3.org/2000/svg">
  <g transform="matrix(1.0, 0.0, 0.0, 1.0, 3.55, 4.35)">
    <path d="M3.4 -0.55 L3.5 0.0 Q3.7 1.8 2.8 3.05 L2.6 3.35 2.5 3.5 Q1.7 4.35 0.5 4.35 L0.35 4.35 Q-0.75 4.3 -1.7 3.5 L-2.15 3.05 Q-3.3 1.8 -3.5 0.0 L-3.55 -0.55 Q-3.55 -1.95 -2.85 -3.05 L-2.5 -3.4 -2.35 -3.5 Q-1.55 -4.35 -0.45 -4.35 L-0.3 -4.35 Q1.05 -4.3 2.1 -3.05 L2.25 -2.9 Q3.1 -1.85 3.4 -0.55" fill="#5bffbb" fill-rule="evenodd" stroke="none"/>
  </g>
</svg>
