<?xml version="1.0" encoding="UTF-8" standalone="no"?>
<svg xmlns:xlink="http://www.w3.org/1999/xlink" height="20.55px" width="31.15px" xmlns="http://www.w3.org/2000/svg">
  <g transform="matrix(1.0, 0.0, 0.0, 1.0, 15.55, 10.25)">
    <path d="M1.75 -2.1 L1.75 -2.2 6.7 0.55 5.05 -4.6 7.1 -7.5 4.4 -7.65 Q7.4 -10.2 12.1 -10.25 15.1 -9.35 13.45 -5.85 17.0 -3.75 14.65 -1.7 10.8 2.1 6.75 -1.45 10.4 3.85 11.7 8.85 10.75 9.35 8.4 7.75 7.55 8.95 5.4 8.2 5.05 3.85 1.75 -2.1 0.15 4.0 0.35 8.75 -1.0 9.5 -2.2 8.75 -4.2 10.6 -5.75 10.25 -5.7 4.75 -3.15 -0.7 -5.0 2.3 -8.85 3.4 -14.4 3.25 -14.75 -0.45 -13.2 -2.5 -14.55 -4.65 -17.55 -9.35 -11.45 -10.0 -6.8 -10.8 -1.45 -7.5 L-5.95 -6.65 -2.05 -3.7 -2.25 -2.5 -2.25 -2.45 -3.05 1.5 1.75 -2.1" fill="#37e247" fill-rule="evenodd" stroke="none"/>
  </g>
</svg>
