<?xml version="1.0" encoding="UTF-8" standalone="no"?>
<svg xmlns:xlink="http://www.w3.org/1999/xlink" height="42.05px" width="34.5px" xmlns="http://www.w3.org/2000/svg">
  <g transform="matrix(1.0, 0.0, 0.0, 1.0, 17.25, 21.0)">
    <path d="M10.75 -7.3 L8.05 -6.85 8.0 -6.85 Q5.8 -6.7 3.25 -7.75 0.7 -8.85 -3.4 -10.0 -9.65 -11.8 -11.2 -19.45 L-14.35 -18.55 Q-15.75 -17.9 -16.5 -16.9 -14.8 -7.25 -9.4 -5.35 L-9.35 -5.35 Q-5.7 -4.05 -3.25 -2.25 L-1.2 -0.45 Q2.35 4.95 6.85 5.3 8.6 5.1 9.9 4.05 12.15 2.2 13.15 -2.15 L13.2 -4.05 13.15 -4.95 13.05 -6.95 Q12.55 -11.8 10.55 -14.5 L3.8 -20.25 4.55 -16.9 Q9.65 -8.2 8.05 -6.85 M9.9 4.05 Q9.85 6.3 10.4 9.7 10.65 11.35 10.55 13.55 L9.9 18.5 Q14.35 19.4 16.5 18.0 L16.35 12.9 Q15.8 3.4 13.15 -4.95 M-9.4 -5.35 Q-9.65 -0.65 -10.75 6.0 -11.45 10.0 -10.9 14.1 -10.55 16.8 -9.65 19.6 -6.5 21.05 -1.45 19.6 -2.5 16.8 -2.95 14.45 -3.85 10.35 -3.1 7.6 -1.9 3.25 -3.25 -2.25" fill="none" stroke="#000000" stroke-linecap="round" stroke-linejoin="round" stroke-width="1.5"/>
  </g>
</svg>
