<?xml version="1.0" encoding="UTF-8" standalone="no"?>
<svg xmlns:xlink="http://www.w3.org/1999/xlink" height="6.05px" width="5.95px" xmlns="http://www.w3.org/2000/svg">
  <g transform="matrix(1.0, 0.0, 0.0, 1.0, -9.15, 7.65)">
    <path d="M15.1 -4.6 Q15.1 -3.4 14.25 -2.5 13.35 -1.6 12.1 -1.6 10.85 -1.6 10.0 -2.5 9.15 -3.4 9.15 -4.6 9.15 -5.9 10.0 -6.8 10.85 -7.65 12.1 -7.65 13.35 -7.65 14.25 -6.8 L14.55 -6.35 13.4 -6.5 Q12.9 -6.5 12.4 -6.1 11.9 -5.8 11.9 -5.15 11.9 -4.45 12.3 -4.05 12.7 -3.75 13.25 -3.75 L14.35 -4.0 15.1 -4.8 15.1 -4.6" fill="#ffff00" fill-rule="evenodd" stroke="none"/>
  </g>
</svg>
