<?xml version="1.0" encoding="UTF-8" standalone="no"?>
<svg xmlns:xlink="http://www.w3.org/1999/xlink" height="21.4px" width="31.2px" xmlns="http://www.w3.org/2000/svg">
  <g transform="matrix(1.0, 0.0, 0.0, 1.0, 2.25, -1.35)">
    <path d="M17.6 11.25 L15.6 11.4 Q13.4 19.35 13.8 22.65 6.75 23.15 2.35 21.4 2.5 20.05 4.6 17.7 L3.05 17.9 1.45 17.85 Q-4.3 11.8 -1.15 2.45 3.9 1.65 14.0 7.9 L14.0 7.85 Q16.0 7.25 17.0 7.4 L18.0 7.55 Q19.95 4.1 23.9 1.35 28.0 1.65 28.8 7.8 29.55 13.85 26.9 14.95 L26.85 15.0 26.55 15.1 Q28.15 16.5 28.75 17.75 26.1 20.7 20.0 22.2 19.75 17.95 17.6 11.25" fill="url(#gradient0)" fill-rule="evenodd" stroke="none"/>
    <path d="M25.8 5.1 Q26.35 5.55 25.65 5.45 25.45 5.4 25.6 5.2 L25.8 5.1 M22.05 7.65 Q23.15 8.4 21.8 8.55 L21.55 8.35 Q21.45 7.75 22.05 7.65 M21.3 9.6 Q22.0 9.95 21.2 9.95 20.95 9.95 21.1 9.7 21.15 9.6 21.3 9.6 M24.2 9.75 Q24.75 10.15 24.05 10.05 23.85 10.0 24.05 9.8 L24.2 9.75 M25.7 7.5 Q26.8 8.25 25.45 8.4 L25.2 8.2 Q25.1 7.6 25.7 7.5 M26.85 9.3 Q27.4 9.75 26.7 9.65 26.5 9.6 26.7 9.4 L26.85 9.3 M26.35 12.15 Q27.45 12.9 26.15 13.05 L25.85 12.85 Q25.75 12.25 26.35 12.15 M20.4 14.2 Q20.95 14.65 20.25 14.5 20.05 14.45 20.25 14.25 L20.4 14.2 M22.05 15.45 Q23.15 16.0 22.0 16.4 21.7 16.5 21.6 16.25 21.35 15.6 22.05 15.45 M20.85 17.05 Q21.4 17.5 20.7 17.4 20.5 17.35 20.7 17.15 L20.85 17.05 M24.25 16.45 L24.5 16.8 24.4 17.0 Q23.95 17.1 24.0 16.7 24.05 16.5 24.25 16.45 M22.25 18.55 Q23.35 19.3 22.0 19.45 L21.75 19.25 Q21.65 18.65 22.25 18.55 M11.6 10.25 Q12.7 11.0 11.35 11.15 L11.1 10.95 Q11.0 10.35 11.6 10.25 M19.8 7.55 Q20.35 8.0 19.65 7.9 19.45 7.85 19.65 7.65 L19.8 7.55 M15.55 8.9 Q16.1 9.35 15.4 9.25 15.2 9.2 15.4 9.0 L15.55 8.9 M2.25 4.55 Q2.8 5.0 2.1 4.85 1.9 4.8 2.1 4.6 L2.25 4.55 M5.25 6.2 L5.75 6.7 Q5.8 7.0 5.0 7.1 L4.75 6.9 4.85 6.45 Q4.95 6.25 5.25 6.2 M1.6 11.65 Q2.15 12.05 1.45 11.95 1.25 11.9 1.45 11.7 L1.6 11.65 M5.15 10.3 Q6.25 11.05 4.9 11.2 L4.65 11.0 Q4.55 10.4 5.15 10.3 M7.3 7.9 Q7.85 8.3 7.15 8.2 6.95 8.15 7.1 7.95 L7.3 7.9 M8.5 10.35 Q9.6 11.1 8.25 11.25 L8.0 11.05 Q7.9 10.45 8.5 10.35 M5.15 14.1 Q6.25 14.85 4.9 15.0 L4.65 14.8 Q4.55 14.2 5.15 14.1 M3.05 15.1 Q3.6 15.55 2.9 15.45 2.7 15.4 2.9 15.2 L3.05 15.1 M0.5 13.7 Q1.6 14.45 0.25 14.6 L0.0 14.4 Q-0.1 13.8 0.5 13.7 M8.6 19.2 Q9.15 19.6 8.45 19.5 8.25 19.45 8.4 19.25 L8.6 19.2 M5.75 18.9 Q6.3 19.35 5.6 19.25 5.4 19.2 5.6 19.0 L5.75 18.9 M10.7 15.55 Q11.25 16.0 10.55 15.9 10.35 15.85 10.5 15.65 L10.7 15.55 M12.15 15.15 Q13.25 15.9 11.95 16.05 L11.65 15.85 Q11.55 15.25 12.15 15.15 M11.15 20.75 Q11.7 21.2 11.0 21.05 10.8 21.0 11.0 20.8 L11.15 20.75 M-0.15 4.6 L0.25 4.9 Q0.65 5.4 -0.4 5.5 L-0.65 5.3 Q-0.75 4.85 -0.35 4.7 L-0.15 4.6" fill="#ffffff" fill-opacity="0.69803923" fill-rule="evenodd" stroke="none"/>
    <path d="M23.9 3.85 Q25.0 4.6 23.65 4.75 L23.4 4.55 Q23.3 3.95 23.9 3.85 M23.15 6.55 L23.4 6.85 23.25 7.05 Q22.85 7.15 22.9 6.75 L23.15 6.55 M22.8 11.4 Q23.9 12.15 22.55 12.3 L22.3 12.1 Q22.2 11.5 22.8 11.4 M25.6 17.45 Q26.7 18.2 25.35 18.35 L25.1 18.15 Q25.0 17.55 25.6 17.45 M1.35 8.85 Q2.45 9.6 1.1 9.75 0.9 9.8 0.85 9.55 0.75 8.95 1.35 8.85 M9.7 7.3 L10.2 7.8 Q10.3 8.1 9.5 8.2 L9.2 8.0 Q9.15 7.75 9.25 7.6 9.35 7.35 9.7 7.3 M10.0 11.75 Q10.55 12.2 9.85 12.1 9.65 12.05 9.85 11.85 L10.0 11.75 M7.8 13.55 Q8.9 14.3 7.55 14.45 L7.3 14.25 Q7.2 13.65 7.8 13.55 M10.1 17.8 Q11.2 18.55 9.9 18.7 L9.6 18.5 Q9.5 17.9 10.1 17.8 M6.75 19.65 Q7.85 20.4 6.5 20.55 L6.25 20.35 Q6.15 19.75 6.75 19.65" fill="#ffffff" fill-opacity="0.32941177" fill-rule="evenodd" stroke="none"/>
    <path d="M17.05 9.35 Q17.95 10.0 16.95 10.35 L16.65 10.15 Q16.55 9.55 17.05 9.35" fill="#ffffff" fill-opacity="0.29803923" fill-rule="evenodd" stroke="none"/>
  </g>
  <defs>
    <linearGradient gradientTransform="matrix(0.0136, -0.0059, 0.0066, 0.0151, 13.9, 10.55)" gradientUnits="userSpaceOnUse" id="gradient0" spreadMethod="pad" x1="-819.2" x2="819.2">
      <stop offset="0.0" stop-color="#8574d0"/>
      <stop offset="0.5137254901960784" stop-color="#6a85d6"/>
      <stop offset="1.0" stop-color="#7dc0f0"/>
    </linearGradient>
  </defs>
</svg>
