<?xml version="1.0" encoding="UTF-8" standalone="no"?>
<svg xmlns:xlink="http://www.w3.org/1999/xlink" height="36.2px" width="27.4px" xmlns="http://www.w3.org/2000/svg">
  <g transform="matrix(1.0, 0.0, 0.0, 1.0, 13.7, 18.1)">
    <path d="M9.95 -17.7 L11.25 -16.7 Q9.95 -12.6 5.95 -6.7 L5.95 -6.55 Q-8.6 -11.95 -13.7 -17.2 L-12.25 -18.1 Q-6.55 -12.4 5.75 -7.4 L5.75 -7.35 5.8 -7.35 Q9.0 -12.5 9.95 -17.7 M5.6 -6.45 L5.8 -6.4 5.9 -6.4 6.7 -7.0 7.0 -6.45 Q11.2 -2.65 13.7 1.6 12.3 4.05 9.85 4.05 11.4 9.95 13.1 12.85 L10.25 13.8 6.65 0.95 6.6 3.3 Q8.4 10.8 8.15 17.6 L5.1 18.1 Q5.35 11.45 4.7 4.15 2.0 3.85 0.35 2.95 2.5 -2.95 5.6 -6.45" fill="#ffa8ef" fill-rule="evenodd" stroke="none"/>
  </g>
</svg>
