<?xml version="1.0" encoding="UTF-8" standalone="no"?>
<svg xmlns:xlink="http://www.w3.org/1999/xlink" height="23.1px" width="32.75px" xmlns="http://www.w3.org/2000/svg">
  <g transform="matrix(1.0, 0.0, 0.0, 1.0, 16.35, 11.55)">
    <path d="M-2.4 -5.35 L-2.2 -5.35 Q-0.45 -6.45 1.85 -5.7 5.2 -10.9 13.4 -11.55 17.75 -8.3 15.75 2.25 L12.35 2.35 Q14.6 3.45 15.9 6.9 11.85 9.8 6.2 10.35 4.65 8.1 2.7 0.4 L2.65 0.4 -1.75 0.55 -1.8 0.55 Q-1.05 4.5 -3.25 11.55 -9.4 11.7 -12.4 10.8 -15.5 10.0 -14.45 8.45 L-11.4 4.25 -13.85 3.8 Q-16.6 0.6 -16.35 -2.8 -16.35 -8.35 -13.75 -9.85 -8.25 -10.25 -2.4 -5.35" fill="#ff91b5" fill-rule="evenodd" stroke="none"/>
  </g>
</svg>
