<?xml version="1.0" encoding="UTF-8" standalone="no"?>
<svg xmlns:xlink="http://www.w3.org/1999/xlink" height="17.9px" width="35.0px" xmlns="http://www.w3.org/2000/svg">
  <g transform="matrix(1.0, 0.0, 0.0, 1.0, 17.5, 8.95)">
    <path d="M12.9 7.85 L11.75 2.55 10.3 -2.15 Q9.55 -4.15 8.75 -6.95 10.85 -6.5 12.25 -5.2 L13.45 -4.0 13.85 -3.0 16.0 -0.9 Q16.75 0.0 16.55 1.5 L15.75 5.8 M2.75 7.45 Q2.45 3.65 -1.1 -1.25 -4.65 -6.15 -4.75 -8.05 -7.35 -7.9 -9.05 -6.15 -8.25 -7.1 -11.3 -5.55 -14.4 -4.0 -16.6 -1.6 -13.85 1.1 -10.5 2.7 -7.15 4.3 -4.3 5.85 L-0.65 8.05" fill="none" stroke="#000000" stroke-linecap="round" stroke-linejoin="round" stroke-width="1.8"/>
  </g>
</svg>
