<?xml version="1.0" encoding="UTF-8" standalone="no"?>
<svg xmlns:xlink="http://www.w3.org/1999/xlink" height="15.1px" width="30.85px" xmlns="http://www.w3.org/2000/svg">
  <g transform="matrix(1.0, 0.0, 0.0, 1.0, 15.4, 7.55)">
    <path d="M10.0 2.25 Q10.1 -0.05 9.65 -1.8 L8.4 -6.45 Q10.5 -6.0 11.9 -4.7 L13.1 -3.5 13.5 -2.5 15.2 -1.0 Q15.85 -0.15 14.9 3.2 L14.35 4.4 9.8 7.35 9.1 7.55 8.95 7.25 Q9.9 4.4 10.0 2.25 M5.2 7.35 L4.65 7.5 Q1.4 5.6 -4.4 4.65 L-4.4 5.2 -9.2 2.65 Q-12.8 0.55 -15.4 -2.1 -14.75 -3.5 -11.65 -5.05 -8.6 -6.6 -9.4 -5.65 -7.7 -7.4 -5.1 -7.55 -5.0 -5.65 -1.45 -0.75 2.1 4.15 5.2 7.35" fill="#6593c6" fill-rule="evenodd" stroke="none"/>
  </g>
</svg>
