<?xml version="1.0" encoding="UTF-8" standalone="no"?>
<svg xmlns:xlink="http://www.w3.org/1999/xlink" height="19.6px" width="12.9px" xmlns="http://www.w3.org/2000/svg">
  <g transform="matrix(1.0, 0.0, 0.0, 1.0, 6.45, 9.8)">
    <path d="M4.4 -0.3 Q5.7 4.25 5.05 7.5 3.15 7.05 1.25 8.3 1.75 2.1 -0.2 -5.85 L0.25 8.95 Q-1.55 10.65 -4.8 8.95 -3.7 6.65 -3.35 0.95 L-6.45 0.65 Q-6.1 -2.2 -4.1 -6.0 L-2.45 -8.85 -2.15 -9.3 -1.85 -9.45 0.1 -9.8 1.35 -9.55 1.35 -9.5 1.75 -9.15 4.35 -6.45 Q6.05 -4.15 6.45 -1.65 5.4 -0.45 4.4 -0.3" fill="#69faff" fill-rule="evenodd" stroke="none"/>
  </g>
</svg>
