<?xml version="1.0" encoding="UTF-8" standalone="no"?>
<svg xmlns:xlink="http://www.w3.org/1999/xlink" height="8.05px" width="22.35px" xmlns="http://www.w3.org/2000/svg">
  <g transform="matrix(1.0, 0.0, 0.0, 1.0, 11.15, 4.05)">
    <path d="M1.35 3.85 Q-7.2 3.15 -11.0 0.85 -11.55 -1.85 -9.7 -4.05 -5.9 -2.35 1.4 -1.65 L1.4 -0.25 1.75 -0.25 1.75 2.65 1.4 2.65 1.35 3.85 M6.15 -1.85 Q8.5 -2.4 9.35 -3.4 11.7 -1.6 11.05 1.4 10.4 2.85 7.1 3.6 L6.05 4.0 5.8 -1.75 6.15 -1.85 M-4.9 -0.8 Q-5.9 -0.35 -5.2 0.45 -5.0 0.75 -4.75 0.55 -3.65 -0.25 -4.9 -0.8 M-0.55 0.1 Q-1.75 0.45 -1.0 1.4 -0.8 1.7 -0.5 1.4 0.6 0.65 -0.55 0.1 M6.85 1.25 L7.25 1.3 Q8.35 0.5 6.95 0.0 6.0 0.45 6.85 1.25" fill="#a31d1d" fill-rule="evenodd" stroke="none"/>
  </g>
</svg>
