<?xml version="1.0" encoding="UTF-8" standalone="no"?>
<svg xmlns:xlink="http://www.w3.org/1999/xlink" height="32.7px" width="44.7px" xmlns="http://www.w3.org/2000/svg">
  <g transform="matrix(1.0, 0.0, 0.0, 1.0, 22.35, 16.35)">
    <path d="M4.4 -8.55 Q9.6 -14.05 16.3 -14.55 18.45 -14.6 19.55 -13.25 L19.75 -12.95 Q20.5 -11.65 20.7 -9.1 L20.7 -8.7 20.65 -6.7 20.6 -6.55 20.55 -6.45 20.5 -6.35 20.15 -4.5 20.2 -4.2 Q21.95 -0.4 21.0 3.55 19.45 5.1 14.75 4.1 L13.95 3.8 14.05 4.05 14.7 5.5 Q16.35 9.0 19.55 12.7 11.65 10.75 7.45 15.2 5.05 9.55 3.75 1.15 L3.5 -0.7 3.35 -2.05 3.35 -2.15 3.3 -2.3 3.0 0.9 2.4 8.05 Q2.05 12.85 0.05 15.35 -2.7 13.95 -6.25 13.9 L-12.5 14.3 Q-9.85 11.15 -9.2 7.0 L-9.05 5.75 -14.0 6.55 Q-18.65 5.85 -19.15 0.5 -19.4 -1.65 -19.15 -3.65 -21.25 -8.25 -21.35 -11.2 -21.45 -12.65 -20.9 -13.65 -20.45 -14.6 -19.45 -15.25 L-16.85 -15.35 Q-7.25 -15.5 0.65 -8.35 1.25 -9.15 2.45 -9.2 L2.5 -9.2 Q4.05 -9.25 4.4 -8.55 L4.45 -8.5 Q5.5 -5.7 4.7 -2.75 8.85 2.0 13.95 3.8 M0.65 -8.35 L0.65 -8.3 Q0.05 -5.6 1.5 -2.9 1.9 -2.4 3.3 -2.3 3.9 -2.3 4.7 -2.75 M1.5 -2.9 L1.5 -2.85 Q1.3 -0.95 -1.75 1.6 -3.75 3.25 -5.1 4.15 L-5.85 4.55 -6.45 4.85 -7.35 5.25 -7.9 5.45 -8.2 5.55 -8.65 5.65 -8.9 5.7 -9.05 5.75 M20.15 -4.5 L20.1 -4.45 20.2 -4.2" fill="none" stroke="#000000" stroke-linecap="round" stroke-linejoin="round" stroke-width="2.0"/>
  </g>
</svg>
