<?xml version="1.0" encoding="UTF-8" standalone="no"?>
<svg xmlns:xlink="http://www.w3.org/1999/xlink" height="14.35px" width="27.8px" xmlns="http://www.w3.org/2000/svg">
  <g transform="matrix(1.0, 0.0, 0.0, 1.0, 13.9, 7.2)">
    <path d="M11.8 3.85 Q10.2 5.5 7.65 4.7 L7.4 4.65 7.3 4.6 7.25 4.6 Q5.6 3.95 2.8 1.55 L1.35 1.95 Q0.5 1.95 -0.4 1.45 L-3.45 4.1 -5.4 5.35 Q-6.55 6.05 -8.5 6.15 -10.45 6.2 -11.15 5.0 -11.95 3.75 -11.95 2.9 -12.1 2.0 -11.6 0.4 L-12.35 -0.95 -12.55 -1.3 Q-13.65 -4.6 -11.1 -5.9 L-8.3 -6.15 Q-5.5 -6.1 -3.1 -4.85 L-0.25 -2.85 Q0.4 -3.4 1.15 -3.25 L2.4 -3.0 Q6.0 -6.1 8.95 -6.2 11.9 -6.35 12.25 -4.55 12.45 -2.7 12.15 -1.8 11.95 -1.45 11.9 -0.7 L12.65 0.85 12.9 1.8 Q12.9 2.8 11.8 3.85 M5.7 -1.15 Q5.35 -0.8 3.85 -0.6 L3.85 -0.55 Q3.8 0.5 3.1 1.3 L2.8 1.55 M2.4 -3.0 L3.05 -2.5 Q3.8 -1.75 3.85 -0.7 L3.85 -0.6 M7.3 4.6 L7.65 4.7 M-0.4 1.45 L-0.65 1.25 Q-1.35 0.55 -1.45 -0.4 -2.9 -0.4 -4.3 -1.15 M-1.45 -0.4 L-1.45 -0.65 Q-1.45 -1.75 -0.65 -2.5 L-0.25 -2.85" fill="none" stroke="#000000" stroke-linecap="round" stroke-linejoin="round" stroke-width="2.0"/>
  </g>
</svg>
