<?xml version="1.0" encoding="UTF-8" standalone="no"?>
<svg xmlns:xlink="http://www.w3.org/1999/xlink" height="15.8px" width="32.0px" xmlns="http://www.w3.org/2000/svg">
  <g transform="matrix(1.0, 0.0, 0.0, 1.0, 16.0, 7.9)">
    <path d="M-10.95 -6.0 Q-9.0 -7.4 -5.2 -7.9 -2.45 -4.2 3.75 1.3 5.15 -0.85 7.25 -0.9 9.35 -0.95 10.25 -0.25 L7.95 -5.95 Q10.4 -6.05 12.45 -5.0 L12.9 -4.7 14.2 -3.75 16.0 -1.8 15.4 1.25 14.5 3.2 Q12.95 5.85 9.8 7.5 L8.95 7.9 8.8 7.9 8.15 7.75 Q2.5 6.7 -2.1 5.15 L-5.2 4.0 Q-11.9 1.25 -16.0 -2.7 -15.2 -3.8 -12.8 -4.8 L-12.4 -4.95 -12.0 -5.1 -11.85 -5.2 -10.95 -6.0" fill="#5f91ff" fill-rule="evenodd" stroke="none"/>
  </g>
</svg>
