<?xml version="1.0" encoding="UTF-8" standalone="no"?>
<svg xmlns:xlink="http://www.w3.org/1999/xlink" height="11.65px" width="27.0px" xmlns="http://www.w3.org/2000/svg">
  <g transform="matrix(1.0, 0.0, 0.0, 1.0, 5.3, 8.1)">
    <path d="M18.0 0.9 L18.0 0.75 18.0 0.85 17.75 0.45 Q17.15 -0.4 15.65 -0.2 13.65 0.05 13.15 1.15 L12.25 0.35 Q12.95 -1.3 15.0 -1.45 17.05 -1.65 18.0 -0.8 L18.0 -0.1 18.0 0.7 18.0 0.75 18.0 0.85 18.0 0.9 18.75 0.15 Q20.75 -2.45 19.9 -7.1 L20.35 -6.8 21.65 -5.85 Q22.0 -2.95 20.65 -0.45 19.65 1.45 17.6 3.15 L18.0 0.95 18.0 0.9 M-3.5 -8.1 Q0.45 -2.6 12.25 1.25 L13.75 1.75 14.5 2.65 15.2 3.55 5.55 0.35 Q-2.3 -3.1 -5.3 -6.9 L-4.95 -7.05 -4.55 -7.2 -4.4 -7.3 -3.5 -8.1" fill="#f3f4ff" fill-rule="evenodd" stroke="none"/>
  </g>
</svg>
