<?xml version="1.0" encoding="UTF-8" standalone="no"?>
<svg xmlns:xlink="http://www.w3.org/1999/xlink" height="16.2px" width="34.1px" xmlns="http://www.w3.org/2000/svg">
  <g transform="matrix(1.0, 0.0, 0.0, 1.0, 17.05, 8.1)">
    <path d="M-1.1 -0.05 L-1.3 -0.05 Q-7.55 -0.05 -11.85 -1.85 -14.95 -3.1 -17.05 -5.25 -9.7 -9.4 -0.4 -4.2 L-0.25 -4.1 -0.4 -3.95 Q-1.4 -2.95 -1.4 -1.5 L-1.1 -0.05 M1.65 1.95 Q-1.2 8.3 -8.75 8.1 L-8.8 8.1 Q-9.2 7.8 -7.55 5.2 -5.8 2.35 -1.0 0.5 L-0.85 0.4 -0.4 0.95 0.4 1.55 1.25 1.85 1.65 1.95 M5.3 -0.3 Q10.25 0.65 12.5 3.3 13.5 4.5 13.95 6.05 10.0 6.4 7.75 5.4 L7.65 5.4 7.45 5.3 4.3 3.35 2.85 1.9 4.5 0.95 5.3 -0.3 M4.15 -4.25 Q7.05 -7.75 17.05 -8.1 L15.8 -5.5 Q13.75 -2.0 10.5 -1.3 6.8 -0.4 5.45 -0.8 L5.5 -0.95 5.5 -1.5 Q5.5 -2.95 4.5 -3.95 L4.4 -4.05 4.15 -4.25" fill="#6cc6eb" fill-rule="evenodd" stroke="none"/>
  </g>
</svg>
