<?xml version="1.0" encoding="UTF-8" standalone="no"?>
<svg xmlns:xlink="http://www.w3.org/1999/xlink" height="63.65px" width="26.15px" xmlns="http://www.w3.org/2000/svg">
  <g transform="matrix(1.0, 0.0, 0.0, 1.0, 13.05, 31.8)">
    <path d="M-2.05 -18.3 L-1.85 -18.75 -1.85 -18.7 -2.05 -18.3" fill="#5f91ff" fill-rule="evenodd" stroke="none"/>
    <path d="M-0.95 -17.55 L-1.85 -18.7 -1.85 -18.75 -0.95 -17.55" fill="#21cd28" fill-rule="evenodd" stroke="none"/>
    <path d="M7.45 -18.65 L7.9 -18.35 8.4 -17.7 Q11.1 -19.55 10.0 -23.1 8.75 -27.1 5.65 -29.35 5.3 -27.3 2.9 -25.1 L2.5 -24.75 Q-8.1 -28.8 -8.55 -30.8 -11.15 -29.0 -12.05 -27.2 -11.1 -22.5 -2.4 -17.55 L-2.05 -18.3 -1.85 -18.75 -0.7 -20.75 0.85 -22.75 3.05 -20.95 4.15 -23.2 5.45 -21.5 M6.6 -20.05 L7.05 -19.45 7.3 -19.15 M2.35 -24.3 L2.85 -21.45 M3.8 -15.6 L4.25 -15.6 4.8 -15.55 6.7 -15.0 7.05 -14.8 7.15 -14.75 Q8.05 -10.95 7.4 -8.2 10.6 8.45 12.1 21.75 10.7 28.0 7.5 30.85 3.25 27.7 1.25 21.45 1.5 15.15 2.4 7.85 3.35 0.55 3.2 -7.85 L3.0 -7.9 Q0.85 -11.6 0.95 -14.5 L1.3 -14.7 Q2.55 -15.5 3.8 -15.6 M7.4 -8.2 Q5.95 -7.15 3.2 -7.85" fill="none" stroke="#000000" stroke-linecap="round" stroke-linejoin="round" stroke-width="2.0"/>
    <path d="M4.8 -15.55 L5.9 -20.9 M3.8 -15.6 L-0.7 -20.75 M1.3 -14.7 L-0.25 -16.7 -0.95 -17.55 -1.85 -18.75 M7.45 -18.65 L6.7 -15.0" fill="none" stroke="#000000" stroke-linecap="round" stroke-linejoin="round" stroke-width="1.5"/>
  </g>
</svg>
