<?xml version="1.0" encoding="UTF-8" standalone="no"?>
<svg xmlns:xlink="http://www.w3.org/1999/xlink" height="43.45px" width="25.65px" xmlns="http://www.w3.org/2000/svg">
  <g transform="matrix(1.0, 0.0, 0.0, 1.0, 12.8, 21.7)">
    <path d="M-11.8 -17.1 Q-10.85 -12.4 -2.15 -7.45 L-0.85 -10.05 0.65 -12.1 1.1 -12.65 3.3 -10.85 4.4 -13.1 8.65 -7.6 Q11.35 -9.45 10.25 -13.0 9.0 -17.0 5.9 -19.25 5.55 -17.2 3.15 -15.0 L2.75 -14.65 Q-7.85 -18.7 -8.3 -20.7 -10.9 -18.9 -11.8 -17.1 M2.55 -2.65 L2.5 -2.65 Q0.75 -3.4 -0.05 -6.5 -0.25 -7.6 -0.1 -8.7 L0.2 -8.95 Q1.05 -9.8 2.4 -10.05 L2.75 -10.15 3.4 -10.2 4.55 -10.15 Q5.6 -9.95 6.3 -9.15 L6.65 -8.6 7.1 -6.25 Q7.3 -3.85 6.3 -2.85 L6.25 -2.8 Q8.35 0.25 9.7 5.4 L11.85 12.15 Q11.9 18.0 10.25 20.75 6.35 19.05 3.4 14.2 L2.35 7.5 2.3 7.2 2.25 6.65 Q1.7 1.4 2.55 -2.65 L6.25 -2.85 6.3 -2.85 M6.25 -2.85 L6.25 -2.8 M2.6 -14.2 L3.1 -11.35" fill="none" stroke="#000000" stroke-linecap="round" stroke-linejoin="round" stroke-width="2.0"/>
  </g>
</svg>
