<?xml version="1.0" encoding="UTF-8" standalone="no"?>
<svg xmlns:xlink="http://www.w3.org/1999/xlink" height="26.1px" width="33.6px" xmlns="http://www.w3.org/2000/svg">
  <g transform="matrix(1.0, 0.0, 0.0, 1.0, 5.8, 12.3)">
    <path d="M5.8 -5.15 Q6.05 -6.25 6.45 -7.0 L8.3 -5.1 5.8 -5.15" fill="#ffffff" fill-rule="evenodd" stroke="none"/>
    <path d="M5.8 -5.15 Q6.05 -6.25 6.45 -7.0 L8.3 -5.1 10.2 -4.8 Q9.15 -7.75 7.35 -9.75 4.6 -10.8 -0.6 -11.55 -3.6 -9.9 -5.05 -6.3 -2.45 -5.2 0.65 -3.15 0.9 -4.2 1.85 -4.65 L2.15 -4.7 3.95 -5.0 5.8 -5.15 8.3 -5.1 M19.05 -6.85 L20.3 -5.55 21.8 -6.5 22.45 -6.8 Q21.95 -8.25 20.4 -9.8 L16.4 -10.3 Q15.45 -7.15 15.55 -3.25 L16.4 -2.6 16.85 -2.6 17.2 -2.45 Q18.65 -4.7 19.05 -6.85 L19.65 -7.8 M0.65 -3.15 Q0.2 -1.7 1.1 0.95 1.6 2.3 2.8 3.7 3.2 5.5 5.3 8.3 5.8 9.15 6.65 9.15 L7.0 9.1 8.0 8.7 8.8 8.2 8.8 8.15 9.15 8.0 9.15 7.95 10.1 7.4 10.6 7.1 Q15.0 4.2 15.7 1.35 L15.75 -0.4 14.8 -1.9 Q13.1 -4.05 10.2 -4.8 M17.2 -2.45 L17.4 -2.35 Q18.7 -4.3 20.3 -5.55 M14.8 -1.9 Q15.55 -2.5 16.4 -2.6 M22.45 -6.8 L23.45 -7.2 23.5 -7.15 Q25.75 -5.45 25.2 -0.8 27.4 2.9 26.95 4.45 L25.9 4.7 23.9 4.45 23.95 4.7 25.3 6.0 25.75 6.45 26.45 7.35 26.8 7.95 26.9 8.35 Q26.55 9.6 23.75 11.15 20.45 12.8 19.3 11.45 L18.95 10.75 18.9 10.7 17.75 6.0 17.45 8.3 17.2 9.3 16.85 10.45 16.75 11.0 16.55 11.85 Q16.0 13.2 14.65 13.05 10.9 12.9 8.1 11.8 6.15 11.25 6.35 10.0 L6.65 9.15 M23.95 4.7 L23.45 4.3 Q21.5 3.55 19.15 1.45 L19.1 2.1 Q18.5 2.65 17.9 2.7 L17.75 6.0 M23.45 4.3 L23.9 4.45 M17.9 2.7 Q16.8 2.85 15.7 1.35 M17.4 -2.35 Q19.1 -1.5 19.15 1.45" fill="none" stroke="#000000" stroke-linecap="round" stroke-linejoin="round" stroke-width="1.5"/>
    <path d="M3.95 -5.0 Q4.05 -2.7 5.15 -0.3 L6.3 1.9 Q7.5 5.4 10.6 7.1 L10.1 7.4 Q12.7 8.35 17.45 8.3 L17.2 9.3 14.75 9.2 15.8 10.95 16.75 11.0 16.55 11.85 Q10.0 11.65 6.35 10.0 L6.65 9.15 7.0 9.1 8.0 8.7 8.35 9.7 10.1 10.15 9.15 8.0 8.8 8.15 8.8 8.2 Q5.6 6.2 4.7 2.75 3.4 1.55 2.45 -0.75 L2.0 -2.25 Q1.75 -3.6 2.15 -4.7 L3.95 -5.0 M22.45 -6.8 L23.45 -7.2 23.5 -7.15 Q25.1 -4.9 24.3 -0.55 26.3 1.9 25.9 4.7 L23.9 4.45 Q24.75 2.35 23.0 -0.65 23.3 -4.05 22.6 -5.5 22.3 -6.2 21.8 -6.5 L22.45 -6.8 M20.4 8.9 L21.75 9.95 23.15 9.4 21.95 8.45 20.4 8.9 M22.75 8.15 L23.8 9.1 25.2 8.25 23.95 7.65 22.75 8.15 M11.55 8.75 L10.05 8.3 10.9 10.35 12.35 10.55 11.55 8.75 M14.05 9.15 L12.55 8.95 13.35 10.7 15.0 10.85 14.05 9.15 M18.35 8.4 Q23.0 7.55 25.3 6.0 L25.75 6.45 24.65 7.25 25.75 7.9 26.45 7.35 26.8 7.95 Q23.5 10.5 19.3 11.45 L18.95 10.75 20.8 10.3 19.5 9.1 18.55 9.3 18.35 8.4" fill="#ffffff" fill-rule="evenodd" stroke="none"/>
  </g>
</svg>
