<?xml version="1.0" encoding="UTF-8" standalone="no"?>
<svg xmlns:xlink="http://www.w3.org/1999/xlink" height="17.65px" width="48.05px" xmlns="http://www.w3.org/2000/svg">
  <g transform="matrix(1.0, 0.0, 0.0, 1.0, 24.0, 8.85)">
    <path d="M12.1 5.8 L10.35 7.05 Q10.65 6.2 9.7 4.4 8.75 2.6 9.0 1.35 9.1 0.1 6.85 -2.6 6.35 -4.6 7.6 -5.45 11.75 -6.65 15.55 -6.0 19.35 -5.35 21.25 -2.35 23.3 -0.7 24.05 -0.95 23.1 1.95 20.25 1.25 21.3 1.8 21.95 3.5 23.05 5.8 23.8 6.0 L19.3 5.9 Q19.55 7.2 18.5 8.25 17.95 6.7 14.95 5.65 13.7 7.95 14.15 8.8 11.85 6.95 12.1 5.8 M-2.55 -0.1 Q-1.55 1.1 -1.25 3.05 -0.95 4.95 0.05 6.35 -2.35 6.5 -4.85 5.35 L-6.9 7.7 Q-8.5 6.5 -8.25 5.25 -11.2 5.55 -14.45 4.65 L-19.05 4.85 Q-19.45 2.8 -18.15 1.7 L-19.5 1.95 -20.55 2.0 Q-22.85 2.05 -23.95 3.5 -24.45 -1.3 -20.8 -5.65 -21.1 -6.15 -22.65 -6.7 -21.35 -7.7 -19.5 -8.25 L-16.95 -8.8 Q-12.1 -9.15 -6.45 -5.75 -0.75 -4.15 -1.2 0.35 -1.95 0.4 -2.55 -0.1" fill="#ffffff" fill-rule="evenodd" stroke="none"/>
  </g>
</svg>
