<?xml version="1.0" encoding="UTF-8" standalone="no"?>
<svg xmlns:xlink="http://www.w3.org/1999/xlink" height="15.95px" width="7.6px" xmlns="http://www.w3.org/2000/svg">
  <g transform="matrix(1.0, 0.0, 0.0, 1.0, 3.8, 8.0)">
    <path d="M-1.85 7.2 L-2.8 5.7 Q-3.5 4.15 -3.7 2.05 L-3.8 0.1 Q-3.8 -2.7 -3.05 -4.8 L-2.7 -5.65 Q-1.6 -8.0 0.0 -8.0 0.9 -8.0 1.65 -7.25 L2.7 -5.65 Q3.45 -4.0 3.7 -1.95 L3.8 0.1 3.75 1.7 3.3 4.05 2.65 5.65 2.6 5.7 Q1.35 7.95 -0.25 7.95 -1.15 7.95 -1.85 7.2 M-1.15 0.05 L-0.85 2.75 Q-0.45 3.9 0.05 3.9 0.55 3.9 0.85 2.75 1.25 1.6 1.25 0.05 1.25 -1.55 0.85 -2.75 0.55 -3.85 0.05 -3.85 -0.45 -3.85 -0.85 -2.75 L-1.15 0.05" fill="#999900" fill-rule="evenodd" stroke="none"/>
  </g>
</svg>
