<?xml version="1.0" encoding="UTF-8" standalone="no"?>
<svg xmlns:xlink="http://www.w3.org/1999/xlink" height="22.95px" width="72.15px" xmlns="http://www.w3.org/2000/svg">
  <g transform="matrix(1.0, 0.0, 0.0, 1.0, 27.9, 2.15)">
    <path d="M34.65 -1.15 L30.7 1.85 32.05 3.45 M30.7 1.85 Q25.7 5.45 20.35 8.1 L21.25 9.4 M29.4 14.55 Q33.25 16.9 38.0 17.55 L38.2 15.8 M43.25 17.7 L38.0 17.55 37.7 19.8 M30.7 1.85 L29.25 0.25 M8.05 15.0 L7.4 13.05 Q0.0 15.05 -8.0 15.55 L-8.15 17.65 M7.4 13.05 L6.6 10.8 M19.2 6.2 L20.35 8.1 Q14.1 11.2 7.4 13.05 M-7.8 12.95 L-8.0 15.55 Q-14.9 15.95 -22.15 15.2 L-22.7 16.95 M-26.9 14.6 L-22.15 15.2 -21.55 13.05" fill="none" stroke="#000000" stroke-linecap="round" stroke-linejoin="round" stroke-opacity="0.44705883" stroke-width="2.0"/>
  </g>
</svg>
