<?xml version="1.0" encoding="UTF-8" standalone="no"?>
<svg xmlns:xlink="http://www.w3.org/1999/xlink" height="35.8px" width="55.5px" xmlns="http://www.w3.org/2000/svg">
  <g transform="matrix(1.0, 0.0, 0.0, 1.0, 27.75, 17.9)">
    <path d="M-27.75 -4.7 L-19.0 -15.05 Q-14.8 -19.25 -6.0 -17.25 -1.75 -14.2 12.8 -13.55 14.9 -15.05 14.15 -16.15 16.1 -16.55 18.1 -14.65 18.15 -14.35 18.85 -13.65 L22.15 -9.4 23.85 -6.7 25.6 -2.85 Q28.0 -0.8 27.75 1.5 27.45 3.75 23.7 1.3 26.7 6.8 22.9 12.45 20.3 16.3 15.15 13.95 L13.45 15.8 10.75 14.9 Q3.1 19.45 -1.7 17.1 -6.4 14.6 -6.55 7.8 -8.95 10.0 -12.1 9.4 -13.8 8.3 -13.25 4.25 L-13.8 3.95 Q-17.6 7.55 -24.1 5.1 -26.75 0.5 -26.4 -3.75 L-27.75 -4.7 M-12.7 -10.95 Q-13.35 -10.3 -10.75 -9.95 L-12.7 -10.95" fill="#343435" fill-rule="evenodd" stroke="none"/>
  </g>
</svg>
