<?xml version="1.0" encoding="UTF-8" standalone="no"?>
<svg xmlns:xlink="http://www.w3.org/1999/xlink" height="49.4px" width="93.5px" xmlns="http://www.w3.org/2000/svg">
  <g transform="matrix(1.0, 0.0, 0.0, 1.0, 46.75, 24.7)">
    <path d="M-23.65 -14.05 Q-27.0 -17.95 -21.75 -19.75 L-12.1 -23.7 Q-6.7 -13.65 8.15 -8.95 14.5 -14.1 15.75 -20.1 L21.6 -17.2 22.25 -16.9 Q25.4 -14.8 24.6 -11.25 L25.1 -10.65 43.05 10.7 45.75 13.9 Q45.8 15.6 38.1 20.15 35.05 22.4 34.45 18.25 L32.75 18.95 18.95 22.6 Q13.75 23.95 12.4 19.6 L12.15 18.45 9.15 5.65 8.15 21.0 Q6.8 24.75 1.65 23.25 -15.25 14.15 -25.2 12.35 L-27.1 17.9 Q-42.3 14.3 -45.75 7.15 L-44.7 6.45 Q-38.15 1.4 -32.65 -3.9 L-29.75 -6.85 Q-26.45 -10.4 -23.65 -14.05 L-21.75 -12.2 -17.6 -8.85 Q-11.3 -4.1 -3.7 -0.15 L-3.7 -0.05 Q1.8 2.7 7.9 5.2 L9.15 5.65 10.5 4.7 Q14.2 2.05 17.4 -1.05 20.0 -3.65 22.25 -6.55 L23.75 -8.85 24.6 -11.25 M21.6 -17.2 Q20.15 -8.4 10.45 -0.35 L8.8 0.95 8.0 0.7 Q-8.2 -4.9 -18.35 -16.35 M-17.6 -8.85 L-18.05 -8.05 Q-20.1 -4.35 -22.3 -0.75 -24.7 3.2 -27.4 7.0 -7.35 14.4 1.1 16.1 M-25.2 12.35 L-30.95 11.8 -30.05 13.25 -27.1 17.9 M-30.95 11.8 L-27.4 7.0 M-44.7 6.45 L-30.05 13.25 M43.05 10.7 L36.0 16.2 Q36.0 17.35 34.45 18.25 M36.0 16.2 L35.55 14.95 25.1 -10.65 M25.1 16.4 Q18.85 19.2 12.15 18.45" fill="none" stroke="#000000" stroke-linecap="round" stroke-linejoin="round" stroke-width="2.0"/>
  </g>
</svg>
