<?xml version="1.0" encoding="UTF-8" standalone="no"?>
<svg xmlns:xlink="http://www.w3.org/1999/xlink" height="54.15px" width="25.8px" xmlns="http://www.w3.org/2000/svg">
  <g transform="matrix(1.0, 0.0, 0.0, 1.0, 12.9, 27.05)">
    <path d="M5.2 -26.55 L9.15 -26.85 Q13.65 -23.6 12.75 -16.85 L5.25 -16.25 Q7.25 -21.35 5.2 -26.55 M1.1 -8.55 Q2.55 -4.1 2.85 -0.3 -2.55 1.75 -9.45 0.9 -9.45 -2.25 -10.2 -5.35 -7.95 -8.05 1.1 -8.55 M2.75 7.15 Q2.3 9.8 1.4 12.3 -3.6 14.65 -11.45 12.05 -10.45 9.3 -9.95 6.6 -3.4 9.25 2.75 7.15 M-7.75 -27.05 L-1.35 -26.45 Q-4.95 -22.4 -4.2 -16.25 L-2.15 -16.2 -1.05 -14.05 Q-7.05 -11.45 -12.6 -12.3 L-12.9 -12.95 -12.9 -17.05 -9.9 -16.65 Q-10.0 -23.3 -7.75 -27.05 M-0.05 21.45 Q0.95 22.9 2.8 24.35 -1.8 28.35 -8.65 26.55 -11.6 23.6 -12.35 20.2 -6.45 19.15 -0.05 21.45" fill="#ffcc66" fill-rule="evenodd" stroke="none"/>
  </g>
</svg>
