<?xml version="1.0" encoding="UTF-8" standalone="no"?>
<svg xmlns:xlink="http://www.w3.org/1999/xlink" height="55.2px" width="38.3px" xmlns="http://www.w3.org/2000/svg">
  <g transform="matrix(1.0, 0.0, 0.0, 1.0, 19.15, 27.6)">
    <path d="M-14.7 -16.55 L-19.15 -17.25 Q-17.3 -19.35 -16.25 -22.2 -15.35 -24.65 -15.05 -27.6 L-9.55 -26.55 -3.15 -25.95 Q0.15 -25.85 3.4 -26.05 L7.35 -26.35 14.5 -27.6 Q18.05 -25.65 18.9 -23.2 19.75 -20.55 17.4 -17.25 L10.95 -16.35 3.45 -15.75 Q-0.25 -15.55 -3.95 -15.7 L-2.85 -13.55 Q-1.6 -10.75 -0.7 -8.05 0.75 -3.6 1.05 0.2 1.4 4.2 0.95 7.65 0.5 10.3 -0.4 12.8 -1.05 14.65 -2.0 16.4 -3.6 19.2 -1.85 21.95 -0.85 23.4 1.0 24.85 -3.6 28.85 -10.45 27.05 -13.4 24.1 -14.15 20.7 -14.9 17.6 -13.85 14.15 L-13.25 12.55 Q-12.25 9.8 -11.75 7.1 -11.2 4.2 -11.25 1.4 -11.25 -1.75 -12.0 -4.85 -12.8 -8.35 -14.4 -11.8 L-14.7 -12.45 -14.7 -16.55" fill="#990000" fill-rule="evenodd" stroke="none"/>
  </g>
</svg>
