<?xml version="1.0" encoding="UTF-8" standalone="no"?>
<svg xmlns:xlink="http://www.w3.org/1999/xlink" height="16.65px" width="47.5px" xmlns="http://www.w3.org/2000/svg">
  <g transform="matrix(1.0, 0.0, 0.0, 1.0, 23.75, 8.35)">
    <path d="M8.5 1.1 L8.7 0.85 Q10.5 -1.25 12.1 -3.7 8.15 -5.9 7.6 -8.2 11.05 -8.7 14.25 -7.45 L16.05 -6.6 Q26.95 0.0 22.45 4.5 25.75 12.1 13.9 4.55 L13.85 -0.25 Q12.65 0.45 11.55 0.8 L9.3 1.6 8.5 1.1 M2.2 0.85 L-0.15 0.5 0.2 4.5 0.25 5.35 -0.1 5.45 -5.4 6.45 -17.25 7.9 -19.35 7.85 Q-25.8 7.2 -22.8 2.4 -25.25 -4.6 -8.15 -7.95 -0.7 -4.05 8.4 1.25 L7.9 1.9 Q6.55 3.5 3.6 4.65 L3.05 4.8 2.6 4.95 2.5 3.8 2.2 0.85" fill="#242329" fill-rule="evenodd" stroke="none"/>
  </g>
</svg>
