<?xml version="1.0" encoding="UTF-8" standalone="no"?>
<svg xmlns:xlink="http://www.w3.org/1999/xlink" height="34.75px" width="39.95px" xmlns="http://www.w3.org/2000/svg">
  <g transform="matrix(1.0, 0.0, 0.0, 1.0, 19.95, 17.35)">
    <path d="M-2.6 1.25 L1.4 1.85 -0.3 2.85 -2.6 1.25" fill="#222320" fill-rule="evenodd" stroke="none"/>
    <path d="M0.35 -8.45 L0.35 -9.25 Q-4.3 -10.2 -8.4 -12.35 L-10.65 -13.6 -12.9 -15.15 Q-9.75 -16.9 -5.9 -16.15 -6.2 -14.55 -8.4 -12.35 M-16.45 -6.15 Q-13.65 -3.5 -11.15 -2.0 -7.65 0.0 -2.6 1.25 L1.4 1.85 4.3 2.0 9.0 1.75 Q15.95 0.65 18.1 -4.4 18.8 -6.1 19.0 -8.25 L14.9 -10.1 14.4 -10.35 Q14.65 -12.45 13.05 -14.1 11.65 -15.8 8.1 -15.55 8.75 -13.35 10.15 -12.0 8.55 -11.0 6.6 -10.1 L3.95 -9.05 3.15 -8.8 0.35 -9.25 M9.0 1.75 Q9.6 5.3 9.1 8.8 L8.6 10.6 7.85 12.85 7.65 13.35 7.15 14.45 6.05 16.4 Q2.35 15.3 -0.6 13.35 -4.6 10.85 -7.25 6.8 -7.35 5.9 -6.95 4.95 -6.75 4.2 -6.05 3.35 L-4.6 2.3 Q-3.75 1.8 -2.6 1.25 M-16.45 -6.15 L-18.95 -9.25 -14.85 -11.1 Q-15.35 -13.5 -12.9 -15.15" fill="none" stroke="#000000" stroke-linecap="round" stroke-linejoin="round" stroke-width="2.0"/>
    <path d="M-10.65 -13.6 Q-11.75 -9.0 -16.45 -6.15 M-11.15 -2.0 Q-6.6 -4.7 -6.5 -9.05 L-8.15 -9.6 M3.15 -8.8 L0.35 -8.45 Q0.6 -2.95 -2.6 1.25 M18.1 -4.4 L15.15 -5.9 Q13.1 -4.35 10.45 -3.55 M11.7 0.2 Q8.7 -1.9 7.25 -4.2 6.35 -7.05 6.6 -10.1 M10.55 -10.95 Q11.1 -9.15 12.3 -7.7 L14.9 -10.1 M12.3 -7.7 L12.55 -7.2 15.15 -5.9 17.0 -7.7 M12.3 -7.7 Q10.45 -6.45 8.15 -5.8 M10.15 -12.0 Q11.7 -12.95 13.05 -14.1 M-6.5 -10.25 L-6.5 -9.05 Q-3.1 -8.25 0.35 -8.45 M-0.3 2.85 L-1.9 4.45 -2.8 6.2 M1.4 1.85 L-0.3 2.85" fill="none" stroke="#000000" stroke-linecap="round" stroke-linejoin="round" stroke-width="1.4000000000000001"/>
    <path d="M6.05 -2.5 Q5.65 -4.35 4.05 -1.75 2.9 -4.1 1.85 -2.75 1.3 -1.25 4.05 0.15 5.9 -0.75 6.05 -2.5 M-12.4 -5.3 Q-10.5 -4.75 -9.05 -5.9 -7.95 -8.15 -10.9 -6.85 -9.95 -9.05 -11.85 -8.8 -13.3 -8.1 -12.4 -5.3 M-5.25 -1.45 Q-3.25 -1.45 -2.15 -2.85 -1.45 -4.65 -4.25 -3.1 -4.0 -5.7 -5.65 -5.05 -6.95 -4.0 -5.25 -1.45" fill="none" stroke="#000000" stroke-linecap="round" stroke-linejoin="round" stroke-width="0.5"/>
  </g>
</svg>
