<?xml version="1.0" encoding="UTF-8" standalone="no"?>
<svg xmlns:xlink="http://www.w3.org/1999/xlink" height="37.25px" width="34.3px" xmlns="http://www.w3.org/2000/svg">
  <g transform="matrix(1.0, 0.0, 0.0, 1.0, 17.65, 18.6)">
    <path d="M3.1 -13.0 Q3.6 -13.65 3.3 -14.75 1.05 -19.2 -2.25 -16.65 -5.55 -14.55 -3.1 -13.0 L-2.2 -12.55 -1.0 -12.15 -0.4 -12.1 1.9 -12.2 Q2.75 -12.45 3.1 -13.0 7.65 -12.5 10.3 -11.45 11.55 -11.0 12.4 -10.4 14.05 -9.25 14.2 -7.65 L14.2 -6.75 14.15 -5.5 Q15.95 7.15 14.4 12.45 L14.15 13.25 13.6 14.4 12.9 15.3 12.05 16.25 Q9.2 14.7 7.55 9.7 L6.2 5.7 Q5.8 13.2 1.2 12.65 -3.45 12.1 -4.1 5.8 L-3.35 5.9 Q-0.8 6.4 0.35 5.25 L2.05 3.65 2.35 4.4 Q3.4 5.25 4.25 5.4 L6.2 5.7 Q9.4 5.05 10.55 -0.25 L11.65 -1.7 Q13.75 -3.55 14.15 -5.5 M2.4 -2.75 Q2.3 -8.3 0.7 -11.55 M2.4 -2.75 L2.35 -0.7 2.2 1.6 2.05 3.65 M-4.85 5.55 L-4.1 5.8 M-3.1 -13.0 L-7.6 -12.75 -9.2 -12.55 -10.95 -12.2 -13.15 -11.35 -14.45 -10.7 Q-15.8 -9.65 -16.35 -8.3 -16.85 -6.4 -16.55 -4.9 -16.25 -3.45 -15.15 -2.3 L-14.35 -1.65 Q-13.3 -0.85 -11.7 -0.25 L-9.3 0.35 Q-9.55 1.75 -9.0 2.8 -8.6 3.65 -7.6 4.35 L-5.0 5.55 -4.85 5.55 Q-6.25 13.2 -8.3 16.05 L-9.75 17.3 Q-10.55 17.8 -11.55 17.6 L-12.55 15.9 Q-15.4 10.1 -15.15 -2.3" fill="none" stroke="#000000" stroke-linecap="round" stroke-linejoin="round" stroke-width="2.0"/>
    <path d="M14.2 -7.65 L16.65 -10.55 M2.05 -2.35 L2.4 -2.75 M14.2 -7.65 L12.7 -5.85 13.55 -7.65 M-4.85 5.55 L-4.8 4.95" fill="none" stroke="#000000" stroke-linecap="round" stroke-linejoin="round" stroke-width="0.05"/>
  </g>
</svg>
