<?xml version="1.0" encoding="UTF-8" standalone="no"?>
<svg xmlns:xlink="http://www.w3.org/1999/xlink" height="28.85px" width="59.25px" xmlns="http://www.w3.org/2000/svg">
  <g transform="matrix(1.0, 0.0, 0.0, 1.0, 29.6, 14.4)">
    <path d="M9.55 -12.4 Q12.35 -8.2 17.65 -3.1 18.65 -6.25 21.25 -9.4 M19.1 -0.05 Q19.3 -0.95 19.85 -2.0 L20.95 -4.1 22.85 -8.05 M19.85 -2.0 Q25.2 2.05 28.65 7.4 M-16.9 -10.0 Q-13.0 -10.1 -7.75 -5.15 -5.0 -2.55 -2.65 -1.6 0.9 -4.8 4.4 -12.55 M-27.7 9.85 Q-20.1 3.6 -7.95 -1.0 L-10.95 -3.3 Q-15.8 -6.95 -19.45 -8.05 M-4.75 0.85 L-7.95 -1.0" fill="none" stroke="#000000" stroke-linecap="round" stroke-linejoin="round" stroke-width="1.0"/>
    <path d="M21.25 -9.4 Q16.4 -12.95 9.55 -12.4 L6.6 -12.05 Q12.15 -4.0 18.85 1.35 L19.1 -0.05 Q25.2 5.7 28.65 11.45 28.85 9.45 28.65 7.4 28.05 0.0 22.85 -8.05 L21.25 -9.4 M6.6 -12.05 Q4.5 -3.65 -2.8 1.7 L-4.75 0.85 Q-20.35 7.95 -28.7 13.55 L-27.7 9.85 Q-25.3 1.95 -19.45 -8.05 L-16.9 -10.0 Q-8.85 -15.35 4.4 -12.55 L6.6 -12.05" fill="none" stroke="#000000" stroke-linecap="round" stroke-linejoin="round" stroke-width="1.8"/>
  </g>
</svg>
