<?xml version="1.0" encoding="UTF-8" standalone="no"?>
<svg xmlns:xlink="http://www.w3.org/1999/xlink" height="59.5px" width="31.75px" xmlns="http://www.w3.org/2000/svg">
  <g transform="matrix(1.0, 0.0, 0.0, 1.0, 0.0, 0.0)">
    <path d="M21.65 8.8 L22.65 8.65 22.45 7.6 22.6 3.6 22.6 0.0 Q24.6 0.85 26.25 2.55 L26.0 8.85 26.75 9.0 Q27.95 15.25 27.35 18.15 L28.65 24.0 Q31.6 38.0 31.75 49.1 L26.8 59.5 19.4 50.2 Q19.2 45.7 22.05 34.4 23.2 30.45 22.75 24.0 L22.3 19.6 22.15 19.35 21.9 19.1 19.95 16.2 19.9 16.1 Q18.55 13.75 18.05 11.5 L17.8 10.15 18.4 9.85 0.0 2.2 3.55 0.3 Q3.95 0.15 10.5 2.95 L21.65 8.8 M27.15 18.45 L27.1 18.45 26.9 18.75 27.15 18.45" fill="#21cd28" fill-rule="evenodd" stroke="none"/>
  </g>
</svg>
