<?xml version="1.0" encoding="UTF-8" standalone="no"?>
<svg xmlns:xlink="http://www.w3.org/1999/xlink" height="54.45px" width="34.6px" xmlns="http://www.w3.org/2000/svg">
  <g transform="matrix(1.0, 0.0, 0.0, 1.0, 0.0, 0.0)">
    <path d="M20.95 13.65 Q23.2 7.45 22.4 0.0 L23.25 0.55 26.1 2.9 Q25.1 8.65 25.0 14.05 L25.0 14.6 Q27.0 18.75 25.5 21.9 L26.65 26.35 28.45 31.95 29.0 33.55 30.7 37.8 32.95 43.4 34.25 46.9 34.5 47.4 34.6 47.8 33.0 51.3 31.5 53.25 Q29.85 54.6 29.35 54.4 L28.7 54.15 Q25.5 52.95 23.3 51.45 L22.1 50.5 20.15 48.3 19.2 38.7 19.0 35.15 18.85 31.7 18.8 29.25 18.8 26.35 18.85 22.3 Q15.55 19.3 16.25 14.8 L16.25 14.75 16.25 14.6 17.0 14.35 16.15 14.45 16.1 14.45 Q8.8 14.05 0.1 1.5 L0.0 1.4 1.75 0.55 Q2.0 0.5 2.95 1.0 3.9 1.45 4.75 2.5 L6.15 4.35 7.3 5.65 Q10.35 8.75 17.9 14.1 L18.9 13.85 20.35 13.7 20.95 13.65 M24.65 14.0 L24.65 14.25 24.85 14.3 24.65 14.0" fill="#ee3030" fill-rule="evenodd" stroke="none"/>
  </g>
</svg>
