<?xml version="1.0" encoding="UTF-8" standalone="no"?>
<svg xmlns:xlink="http://www.w3.org/1999/xlink" height="9.4px" width="13.7px" xmlns="http://www.w3.org/2000/svg">
  <g transform="matrix(1.0, 0.0, 0.0, 1.0, 0.0, 0.0)">
    <path d="M0.0 1.15 L0.1 0.0 13.7 0.5 13.7 1.6 0.0 1.15 M11.05 3.15 Q11.8 2.5 12.4 2.6 12.75 2.5 13.0 2.9 13.35 3.15 13.5 4.15 L13.65 5.75 Q13.6 6.85 11.7 6.4 L12.6 7.45 12.95 7.85 13.0 8.25 Q12.8 8.8 12.25 9.05 L12.0 9.15 11.3 9.4 10.4 9.35 10.0 9.25 Q9.75 8.4 9.6 5.75 L9.4 5.7 9.25 8.65 8.75 9.35 7.4 9.2 6.35 8.8 Q6.4 7.65 7.1 6.65 5.45 6.8 5.5 5.5 5.3 3.95 5.5 3.35 L5.5 3.1 Q5.6 2.6 6.25 2.75 7.0 2.7 7.65 3.15 L7.85 3.25 Q8.6 3.5 9.15 3.9 L9.95 3.9 11.05 3.15" fill="#f366af" fill-rule="evenodd" stroke="none"/>
  </g>
</svg>
