<?xml version="1.0" encoding="UTF-8" standalone="no"?>
<svg xmlns:xlink="http://www.w3.org/1999/xlink" height="18.6px" width="54.3px" xmlns="http://www.w3.org/2000/svg">
  <g transform="matrix(1.0, 0.0, 0.0, 1.0, 0.75, 0.75)">
    <path d="M46.75 9.85 L48.5 10.25 Q51.5 10.6 52.8 9.3 50.95 6.95 47.95 6.4 49.65 4.05 50.3 1.55 45.8 0.7 39.75 3.1 38.85 2.1 38.85 0.4 35.0 2.6 35.3 8.9 34.5 7.3 32.65 6.45 33.15 11.2 37.55 13.6 44.1 13.1 50.45 14.4 48.9 12.6 48.5 10.25 M6.45 5.15 Q1.85 7.65 0.0 11.05 1.4 12.05 4.2 11.7 3.5 14.4 4.0 17.1 16.65 13.05 19.7 13.1 22.75 13.1 23.0 14.9 L23.25 14.7 Q27.95 10.25 25.1 5.1 24.55 6.7 23.6 7.1 L23.25 6.3 Q21.2 1.9 16.1 0.0 16.7 2.3 15.65 3.1 9.85 0.25 5.15 2.0 5.2 3.65 6.45 5.15" fill="none" stroke="#000000" stroke-linecap="round" stroke-linejoin="round" stroke-width="1.5"/>
  </g>
</svg>
