<?xml version="1.0" encoding="UTF-8" standalone="no"?>
<svg xmlns:xlink="http://www.w3.org/1999/xlink" height="27.6px" width="63.05px" xmlns="http://www.w3.org/2000/svg">
  <g transform="matrix(1.0, 0.0, 0.0, 1.0, 31.5, 13.8)">
    <path d="M28.95 5.5 Q26.5 0.35 22.45 -4.65 L17.75 -9.75 Q14.75 -12.7 4.75 -12.95 -8.0 -13.6 -13.95 -10.75 -18.7 -7.55 -22.05 -3.5 -25.3 0.4 -27.75 4.15 -30.65 6.3 -30.75 7.05 -30.5 10.4 -24.6 9.4 -21.8 13.05 -16.0 11.2 -11.45 14.85 -7.15 11.35 -1.6 13.85 1.2 8.5 5.85 8.95 6.7 3.15 6.8 8.4 11.5 8.8 L11.8 8.85 Q14.95 14.55 20.05 11.05 25.7 13.6 27.55 9.5 31.45 8.75 30.65 6.0 30.55 5.45 28.95 5.5" fill="none" stroke="#000000" stroke-linecap="round" stroke-linejoin="round" stroke-width="1.5"/>
    <path d="M-27.75 4.15 Q-24.45 6.6 -14.05 8.55 -1.7 11.1 3.7 3.0 5.15 1.0 6.15 -2.15 L7.5 -8.4 Q7.7 -4.9 8.05 -2.3 8.55 1.2 9.3 3.15 11.35 8.75 20.25 8.6 26.75 8.0 28.95 5.5 Z" fill="none" stroke="#000000" stroke-linecap="round" stroke-linejoin="round" stroke-width="1.1"/>
  </g>
</svg>
