<?xml version="1.0" encoding="UTF-8" standalone="no"?>
<svg xmlns:xlink="http://www.w3.org/1999/xlink" height="21.45px" width="61.55px" xmlns="http://www.w3.org/2000/svg">
  <g transform="matrix(1.0, 0.0, 0.0, 1.0, 30.75, 10.7)">
    <path d="M-27.75 1.85 Q-24.45 4.3 -14.05 6.25 -1.7 8.8 3.7 0.7 5.15 -1.3 6.15 -4.45 L7.5 -10.7 Q7.7 -7.2 8.05 -4.6 8.55 -1.1 9.3 0.85 11.35 6.45 20.25 6.3 26.75 5.7 28.95 3.2 30.55 3.15 30.65 3.7 31.45 6.45 27.55 7.2 25.7 11.3 20.05 8.75 14.95 12.25 11.8 6.55 L11.5 6.5 Q6.8 6.1 6.7 0.85 5.85 6.65 1.2 6.2 -1.6 11.55 -7.15 9.05 -11.45 12.55 -16.0 8.9 -21.8 10.75 -24.6 7.1 -30.5 8.1 -30.75 4.75 -30.65 4.0 -27.75 1.85" fill="#e8eaff" fill-rule="evenodd" stroke="none"/>
  </g>
</svg>
