<?xml version="1.0" encoding="UTF-8" standalone="no"?>
<svg xmlns:xlink="http://www.w3.org/1999/xlink" height="25.45px" width="33.15px" xmlns="http://www.w3.org/2000/svg">
  <g transform="matrix(1.0, 0.0, 0.0, 1.0, 0.0, 12.7)">
    <path d="M21.8 -2.85 L20.8 -2.7 18.2 -2.5 15.9 -2.35 Q6.9 -2.25 1.15 -6.85 -0.7 -8.35 0.45 -9.6 L1.45 -10.25 2.7 -10.9 4.5 -11.75 Q7.05 -12.85 8.8 -12.65 12.95 -11.55 15.95 -9.6 L20.3 -12.6 24.9 -10.05 26.9 -12.0 Q27.45 -12.4 28.9 -11.05 L30.55 -9.4 31.35 -8.55 33.0 -6.55 Q34.05 -3.45 26.7 -2.95 L25.1 -2.9 23.0 -2.85 29.1 2.6 29.55 3.15 Q31.6 5.8 27.2 8.5 27.9 12.55 23.55 12.75 18.4 12.75 18.4 9.75 L18.45 8.6 18.45 8.25 Q17.05 9.4 15.3 7.75 12.55 5.6 14.7 3.55 L21.7 -2.55 21.8 -2.85" fill="#eeeae4" fill-rule="evenodd" stroke="none"/>
  </g>
</svg>
