<?xml version="1.0" encoding="UTF-8" standalone="no"?>
<svg xmlns:xlink="http://www.w3.org/1999/xlink" height="41.05px" width="43.5px" xmlns="http://www.w3.org/2000/svg">
  <g transform="matrix(1.0, 0.0, 0.0, 1.0, 0.7, 20.5)">
    <path d="M15.45 -13.95 L19.8 -12.95 22.0 -12.4 24.25 -11.95 M2.05 -10.55 Q0.65 -9.25 0.65 -7.15 0.25 -3.85 13.25 -6.05 17.55 -6.6 20.25 -7.95 L19.8 -12.95 M2.05 -10.55 Q-1.55 -13.15 1.15 -15.05 8.2 -19.95 15.6 -19.8 17.15 -19.4 21.65 -14.85 24.65 -13.15 27.55 -11.9 29.65 -13.35 30.9 -15.0 L31.1 -15.3 Q27.75 -17.65 27.95 -19.0 30.35 -19.95 32.8 -19.65 35.95 -18.75 38.35 -16.15 40.5 -13.8 40.8 -11.95 41.0 -10.65 40.3 -9.65 43.45 -6.2 41.15 -5.2 38.9 -4.35 34.15 -7.65 L34.35 -3.1 34.4 -1.4 34.4 0.1 34.45 1.55 34.25 12.65 35.0 11.85 37.35 14.25 35.7 15.7 37.1 17.3 34.5 19.85 32.95 18.25 31.55 19.6 29.15 17.2 30.65 15.85 29.05 14.25 31.5 12.3 31.85 -8.85 27.55 -11.9 22.9 -8.7 23.6 -3.0 23.75 -1.3 23.85 0.05 23.9 1.55 Q24.1 6.1 23.95 11.65 L24.25 11.4 26.5 13.75 24.9 15.25 26.35 16.8 23.65 19.35 22.2 17.8 20.7 19.15 18.4 16.7 19.85 15.35 18.3 13.75 20.85 11.65 20.75 1.7 20.65 0.2 20.65 -1.1 20.55 -2.7 20.25 -7.95 M32.8 -19.65 Q32.5 -17.3 31.1 -15.3 M30.35 -11.55 L31.85 -12.55 33.7 -13.65 34.55 -14.3 M22.0 -12.4 L22.9 -8.7 M31.85 -12.55 L31.85 -8.85 M33.7 -13.65 L34.15 -7.65 M31.5 12.3 L32.0 11.8 33.45 13.3 34.25 12.65 M20.85 11.65 L21.25 11.3 22.7 12.8 23.95 11.65 M22.7 12.8 L24.9 15.25 M32.95 18.25 L30.65 15.85 M33.45 13.3 L35.7 15.7 M22.2 17.8 L19.85 15.35" fill="none" stroke="#000000" stroke-linecap="round" stroke-linejoin="round" stroke-width="1.4000000000000001"/>
    <path d="M4.75 -10.3 Q10.55 -12.3 10.8 -13.35 10.6 -13.8 9.75 -13.8 M9.4 -13.75 Q7.4 -13.5 2.85 -11.15 L2.05 -10.55 M38.2 -9.0 Q35.75 -10.6 36.25 -11.4 37.1 -12.2 40.3 -9.65" fill="none" stroke="#000000" stroke-linecap="round" stroke-linejoin="round" stroke-opacity="0.54901963" stroke-width="0.7000000000000001"/>
  </g>
</svg>
