<?xml version="1.0" encoding="UTF-8" standalone="no"?>
<svg xmlns:xlink="http://www.w3.org/1999/xlink" height="18.05px" width="21.2px" xmlns="http://www.w3.org/2000/svg">
  <g transform="matrix(1.0, 0.0, 0.0, 1.0, 0.0, 9.0)">
    <path d="M7.15 5.85 Q7.35 4.15 9.55 2.85 11.7 5.45 14.2 5.5 16.15 5.5 17.05 3.15 19.0 1.75 20.25 -2.0 20.65 -3.35 20.6 -4.9 22.0 1.0 20.05 4.8 18.4 8.05 15.6 8.95 12.0 9.55 8.85 7.25 L7.15 5.85 M0.2 -8.45 Q1.0 -6.7 2.15 -4.95 L3.9 -2.65 Q5.25 -0.9 6.75 0.35 5.05 1.2 4.6 2.8 1.3 -1.9 0.0 -9.0 L0.2 -8.45" fill="#51ddff" fill-rule="evenodd" stroke="none"/>
  </g>
</svg>
