<?xml version="1.0" encoding="UTF-8" standalone="no"?>
<svg xmlns:xlink="http://www.w3.org/1999/xlink" height="19.1px" width="51.7px" xmlns="http://www.w3.org/2000/svg">
  <g transform="matrix(1.0, 0.0, 0.0, 1.0, 25.85, 9.55)">
    <path d="M9.55 -2.35 Q8.95 -1.65 9.2 -0.3 9.4 1.0 10.95 2.05 13.0 1.0 13.9 0.6 18.7 -2.55 9.55 -2.35 8.65 -3.95 11.55 -4.85 16.15 -5.9 19.85 -5.9 23.7 -5.65 24.6 -3.05 25.9 -0.7 23.55 1.25 26.2 5.2 23.3 7.75 21.0 10.1 15.3 7.0 L9.8 5.75 6.9 5.25 1.6 4.55 Q-6.85 4.8 -18.15 8.4 -23.15 8.9 -24.6 5.45 -26.0 1.9 -23.25 -1.2 -26.0 -4.55 -23.75 -7.55 -20.0 -10.55 -8.5 -6.2 0.25 -3.45 6.9 5.25 8.85 3.1 10.95 2.05 M-23.25 -1.2 Q-22.3 -1.85 -20.2 -1.6 M1.6 4.55 L-15.4 -0.3" fill="none" stroke="#000000" stroke-linecap="round" stroke-linejoin="round" stroke-width="1.6"/>
  </g>
</svg>
