<?xml version="1.0" encoding="UTF-8" standalone="no"?>
<svg xmlns:xlink="http://www.w3.org/1999/xlink" height="45.35px" width="25.65px" xmlns="http://www.w3.org/2000/svg">
  <g transform="matrix(1.0, 0.0, 0.0, 1.0, 12.85, 22.65)">
    <path d="M-4.5 7.2 Q-5.1 8.1 -5.1 9.3 -5.1 11.0 -3.95 12.2 L-3.9 12.25 Q-2.65 13.5 -0.95 13.5 0.8 13.5 2.0 12.25 L2.4 11.85 Q3.25 10.75 3.25 9.3 3.25 7.85 2.35 6.75 L2.0 6.35 Q0.8 5.15 -0.95 5.15 -2.65 5.15 -3.9 6.35 L-4.5 7.2 M5.0 -19.45 L2.45 -22.6 8.35 -22.6 7.5 -13.9 1.75 -14.15 5.0 -19.45 M-0.75 -4.35 Q2.4 -4.9 5.75 -1.35 L5.8 1.8 Q11.35 1.0 12.8 7.65 12.2 14.2 4.5 14.8 5.55 17.5 4.6 20.75 2.2 22.6 0.0 22.7 -2.7 22.3 -5.1 19.5 -6.5 16.85 -5.4 14.55 -9.2 15.8 -11.25 12.85 -13.05 10.35 -12.85 8.65 -12.95 7.75 -12.5 7.2 -10.55 2.45 -6.65 3.35 -7.1 1.5 -6.5 -0.25 -3.75 -4.05 -0.75 -4.35 M-12.1 -20.65 L-8.2 -21.5 -10.15 -17.85 -7.3 -13.8 -12.85 -13.0 -12.1 -20.65" fill="#1ca1cd" fill-rule="evenodd" stroke="none"/>
  </g>
</svg>
