<?xml version="1.0" encoding="UTF-8" standalone="no"?>
<svg xmlns:xlink="http://www.w3.org/1999/xlink" height="43.65px" width="15.15px" xmlns="http://www.w3.org/2000/svg">
  <g transform="matrix(1.0, 0.0, 0.0, 1.0, 7.6, 21.8)">
    <path d="M-7.6 -9.5 L-1.2 -21.8 7.55 -11.1 0.0 1.05 -0.15 1.05 -7.6 -9.5 M-1.4 20.55 Q-2.55 19.35 -2.55 17.65 -2.55 16.45 -1.95 15.55 L-1.35 14.7 Q-0.1 13.5 1.6 13.5 3.35 13.5 4.55 14.7 L4.9 15.1 Q5.8 16.2 5.8 17.65 5.8 19.1 4.95 20.2 L4.55 20.6 Q3.35 21.85 1.6 21.85 -0.1 21.85 -1.35 20.6 L-1.4 20.55" fill="#40db9b" fill-rule="evenodd" stroke="none"/>
  </g>
</svg>
