<?xml version="1.0" encoding="UTF-8" standalone="no"?>
<svg xmlns:xlink="http://www.w3.org/1999/xlink" height="68.3px" width="44.0px" xmlns="http://www.w3.org/2000/svg">
  <g transform="matrix(1.0, 0.0, 0.0, 1.0, 22.0, 34.15)">
    <path d="M9.2 -9.85 L9.25 -6.7 9.25 -6.1 Q8.8 7.65 1.75 11.05 3.45 13.05 5.75 13.45 9.1 13.85 13.4 10.25 19.3 4.5 20.6 -3.7 21.0 -5.95 21.0 -8.45 21.0 -20.15 13.15 -27.3 7.15 -33.25 -0.05 -33.1 L-3.2 -32.85 Q-11.35 -31.75 -16.5 -24.2 -20.65 -18.35 -20.95 -10.95 L-20.95 -10.3 -20.95 -9.75 -20.95 -9.35 -20.95 -8.9 -20.85 -7.4 Q-20.4 0.5 -15.8 6.55 -12.95 10.5 -7.6 11.55 L1.75 11.05 M8.45 -13.5 Q6.5 -19.55 0.7 -22.55 -6.1 -25.95 -11.3 -18.25 L-12.75 -15.45 M0.85 33.15 Q3.7 32.35 4.2 28.75 L4.2 26.1 2.35 20.3 Q-6.95 20.35 -13.85 18.5 -10.35 28.9 0.85 33.15" fill="none" stroke="#000000" stroke-linecap="round" stroke-linejoin="round" stroke-width="2.0"/>
  </g>
</svg>
