<?xml version="1.0" encoding="UTF-8" standalone="no"?>
<svg xmlns:xlink="http://www.w3.org/1999/xlink" height="46.75px" width="140.45px" xmlns="http://www.w3.org/2000/svg">
  <g transform="matrix(1.0, 0.0, 0.0, 1.0, 70.25, 23.4)">
    <path d="M64.65 9.6 L64.85 9.75 Q68.3 10.9 69.0 8.8 69.8 6.5 67.35 1.95 L67.1 1.45 67.2 1.35 67.3 1.25 Q69.75 -1.3 69.05 -3.9 68.45 -6.65 65.05 -8.15 L64.8 -8.3 64.85 -8.55 Q65.0 -13.7 63.45 -15.4 61.75 -17.3 59.15 -14.8 L58.95 -14.6 58.8 -14.85 Q56.25 -20.1 54.5 -19.75 52.65 -19.75 52.5 -14.05 L52.45 -13.8 52.3 -13.8 Q48.3 -15.9 47.3 -13.45 46.5 -11.25 49.4 -5.85 L49.45 -5.65 49.2 -5.45 Q46.0 -2.55 46.75 0.6 47.65 3.65 51.7 5.05 L51.95 5.15 51.95 5.55 Q51.75 11.45 53.6 13.2 55.5 14.85 58.4 11.7 L58.4 11.45 58.7 11.8 Q61.1 16.6 62.95 16.1 64.65 15.5 64.65 9.95 M-55.7 -15.35 Q-53.25 -22.2 -50.05 -22.4 -46.8 -22.8 -44.65 -16.3 L-44.6 -15.9 -44.3 -15.95 Q-38.15 -19.5 -35.65 -16.95 -33.3 -14.45 -36.4 -7.4 L-36.5 -7.15 -35.95 -6.95 Q-29.55 -4.4 -29.6 -0.55 -29.95 3.3 -36.45 6.1 -36.85 6.15 -36.9 6.35 -37.05 6.65 -36.7 6.85 -34.35 13.7 -36.85 16.3 -39.45 18.75 -45.4 15.85 L-45.65 15.6 -45.8 16.05 Q-48.4 22.5 -51.55 22.35 -54.75 22.2 -56.65 15.65 L-56.8 15.15 -57.2 15.5 Q-62.7 17.9 -64.6 15.5 -66.7 13.0 -64.15 6.95 L-63.95 6.35 -64.15 6.2 Q-69.4 3.85 -69.25 0.6 -69.1 -2.85 -63.9 -5.65 L-63.55 -5.85 -63.7 -6.1 Q-65.8 -12.15 -63.65 -14.65 -61.6 -17.35 -56.1 -15.15 L-55.75 -14.95 -55.7 -15.35" fill="none" stroke="#000000" stroke-linecap="round" stroke-linejoin="round" stroke-width="2.0"/>
    <path d="M55.65 -1.45 Q56.3 1.0 57.75 2.4 59.15 3.8 60.6 3.6 62.0 3.25 62.55 1.25 63.2 -0.65 62.6 -2.85 62.05 -5.15 60.7 -6.6 59.45 -8.1 57.95 -7.8 56.45 -7.7 55.75 -5.7 55.15 -3.95 55.65 -1.45 M-55.55 -5.15 Q-53.75 -7.2 -51.15 -7.35 -48.5 -7.6 -46.7 -5.6 -45.05 -3.55 -45.05 -0.5 -45.25 2.55 -47.15 4.65 -49.0 6.7 -51.55 6.85 -54.15 6.85 -55.85 4.65 -57.55 2.7 -57.4 -0.15 -57.4 -3.0 -55.55 -5.15" fill="none" stroke="#000000" stroke-linecap="round" stroke-linejoin="round" stroke-width="1.5"/>
  </g>
</svg>
