<?xml version="1.0" encoding="UTF-8" standalone="no"?>
<svg xmlns:xlink="http://www.w3.org/1999/xlink" height="39.9px" width="51.7px" xmlns="http://www.w3.org/2000/svg">
  <g transform="matrix(1.0, 0.0, 0.0, 1.0, 25.85, 19.95)">
    <path d="M11.55 -15.95 L15.7 -16.45 18.2 -15.6 Q22.15 -14.5 24.3 -9.55 26.05 -5.35 25.8 -0.35 L25.8 0.2 24.85 0.25 Q24.65 3.05 23.85 5.65 L23.0 7.95 24.0 8.15 Q22.4 12.5 19.25 15.75 14.85 20.5 9.95 19.9 L7.6 19.2 Q6.35 18.9 5.4 18.2 L4.55 17.55 Q6.75 16.65 8.8 14.9 15.1 9.95 16.7 2.05 18.2 -5.7 14.3 -12.3 12.95 -14.25 11.05 -15.8 L11.55 -15.95 M-18.15 15.75 Q-22.4 14.55 -24.55 9.5 -26.7 3.75 -25.3 -3.55 -23.85 -10.9 -19.5 -15.6 -14.95 -20.4 -10.2 -19.9 L-8.0 -19.15 -6.15 -18.05 Q-8.25 -17.15 -10.45 -15.6 -16.7 -10.5 -18.3 -2.7 -19.8 5.25 -15.8 11.6 L-12.75 15.25 Q-14.8 16.2 -17.15 15.9 L-18.15 15.75" fill="#1a5b27" fill-rule="evenodd" stroke="none"/>
    <path d="M11.05 -15.8 L9.55 -16.85 Q10.55 -16.6 11.55 -15.95 L11.05 -15.8 M5.4 18.2 L-0.8 17.95 Q1.9 18.7 4.55 17.55 L5.4 18.2 M-12.75 15.25 L-11.9 15.85 Q-13.75 16.65 -15.8 16.4 -17.1 16.25 -18.15 15.75 L-17.15 15.9 Q-14.8 16.2 -12.75 15.25 M-3.2 16.85 Q-7.0 18.2 -9.75 16.85 -7.35 17.4 -4.2 16.25 L-3.2 16.85" fill="#2e1404" fill-rule="evenodd" stroke="none"/>
  </g>
</svg>
