<?xml version="1.0" encoding="UTF-8" standalone="no"?>
<svg xmlns:xlink="http://www.w3.org/1999/xlink" height="48.0px" width="58.95px" xmlns="http://www.w3.org/2000/svg">
  <g transform="matrix(1.0, 0.0, 0.0, 1.0, 29.5, 24.0)">
    <path d="M7.95 0.8 Q7.55 5.45 2.85 6.4 -0.2 5.85 -1.2 2.55 L7.95 0.8 M0.85 13.1 L1.2 10.8 4.4 10.55 Q3.05 16.85 -4.5 16.2 L-4.65 14.0 -5.4 13.95 -6.45 13.6 -6.45 13.75 -7.8 13.45 -8.6 15.65 Q-16.7 14.25 -15.3 8.05 L-12.75 8.8 -13.15 10.45 -10.25 11.3 -9.25 9.6 -5.7 10.05 -5.35 10.05 -4.25 10.3 -2.2 10.5 -2.35 12.4 0.85 13.1 M-14.6 -2.2 L-6.7 1.95 Q-8.85 4.85 -11.95 4.4 -16.15 2.3 -14.6 -2.2" fill="#000000" fill-rule="evenodd" stroke="none"/>
    <path d="M5.05 -14.15 L5.35 -21.95 3.95 -22.65 -0.65 -23.25 -4.5 -15.35 Q-3.5 -15.25 -2.45 -14.75 L-0.5 -13.55 -0.15 -13.65 3.35 -14.35 5.05 -14.15 6.65 -13.55 Q7.65 -13.3 8.65 -12.65 10.85 -13.3 12.8 -13.15 14.05 -12.9 15.3 -12.3 19.25 -11.2 21.4 -6.25 23.15 -2.05 22.9 2.95 L22.9 3.5 Q25.45 3.5 28.7 6.2 L26.0 14.6 Q22.9 12.1 21.1 11.45 19.5 15.8 16.35 19.05 11.95 23.8 7.05 23.2 L4.7 22.5 Q3.45 22.2 2.5 21.5 L-3.7 21.25 -6.1 20.15 Q-9.9 21.5 -12.65 20.15 -13.85 19.85 -14.8 19.15 -16.65 19.95 -18.7 19.7 -20.0 19.55 -21.05 19.05 -25.3 17.85 -27.45 12.8 -29.6 7.05 -28.2 -0.25 -26.75 -7.6 -22.4 -12.3 -17.85 -17.1 -13.1 -16.6 L-10.9 -15.85 Q-9.7 -15.5 -8.6 -14.85 -6.55 -15.75 -4.5 -15.35 M8.65 -12.65 L8.15 -12.5 Q10.05 -10.95 11.4 -9.0 15.3 -2.4 13.8 5.35 12.2 13.25 5.9 18.2 3.85 19.95 1.65 20.85 L2.5 21.5 M8.15 -12.5 L6.65 -13.55 M21.1 11.45 L20.1 11.25 20.95 8.95 Q21.75 6.35 21.95 3.55 L22.9 3.5 M-8.6 -14.85 L-9.05 -14.75 -13.35 -12.3 Q-19.6 -7.2 -21.2 0.6 -22.7 8.55 -18.7 14.9 L-15.65 18.55 -14.8 19.15 M-9.05 -14.75 Q-9.8 -15.4 -10.9 -15.85 M-21.05 19.05 L-20.05 19.2 Q-17.7 19.5 -15.65 18.55 M-12.65 20.15 Q-10.25 20.7 -7.1 19.55 L-6.1 20.15 M-3.7 21.25 Q-1.0 22.0 1.65 20.85" fill="none" stroke="#000000" stroke-linecap="round" stroke-linejoin="round" stroke-width="1.5"/>
  </g>
</svg>
