<?xml version="1.0" encoding="UTF-8" standalone="no"?>
<svg xmlns:xlink="http://www.w3.org/1999/xlink" height="27.55px" width="131.5px" xmlns="http://www.w3.org/2000/svg">
  <g transform="matrix(1.0, 0.0, 0.0, 1.0, 65.75, 13.75)">
    <path d="M-48.85 -0.8 Q-48.75 3.8 -51.1 7.0 -53.65 10.2 -57.15 10.2 -60.75 10.15 -63.15 6.8 -65.7 3.6 -65.75 -0.95 -65.75 -5.45 -63.4 -8.7 -61.0 -11.85 -57.5 -11.85 -53.95 -11.8 -51.45 -8.5 -48.85 -5.3 -48.85 -0.8 M-26.5 2.0 L-38.25 1.4 Q-38.25 -1.35 -38.8 -4.35 L-26.65 -3.4 -26.5 -3.4 -26.5 2.0" fill="#1fff0e" fill-rule="evenodd" stroke="none"/>
    <path d="M-26.5 -3.4 L-26.5 -9.05 Q-25.05 -12.95 -17.75 -13.65 L-17.4 -13.75 11.6 -13.35 Q19.3 -12.65 20.4 -8.2 L20.3 -4.9 Q27.55 -3.75 31.3 -4.7 L31.3 -7.7 Q32.15 -11.95 38.05 -12.7 L59.35 -12.05 Q64.95 -11.4 65.75 -7.0 L65.45 8.1 Q64.95 13.5 59.25 13.8 L37.65 13.6 Q31.65 12.65 31.3 7.85 L31.3 4.95 Q23.8 4.45 20.1 5.1 L20.1 7.6 Q19.5 13.15 11.45 13.5 L-17.9 13.7 Q-25.25 12.7 -26.5 8.65 L-26.5 2.0 -26.5 -3.4" fill="#1fff0e" fill-opacity="0.61960787" fill-rule="evenodd" stroke="none"/>
  </g>
</svg>
