<?xml version="1.0" encoding="UTF-8" standalone="no"?>
<svg xmlns:xlink="http://www.w3.org/1999/xlink" height="44.95px" width="139.7px" xmlns="http://www.w3.org/2000/svg">
  <g transform="matrix(1.0, 0.0, 0.0, 1.0, 69.85, 22.45)">
    <path d="M-60.3 -7.65 Q-57.9 -10.8 -54.4 -10.8 -50.85 -10.75 -48.35 -7.45 -45.75 -4.25 -45.75 0.25 -45.65 4.85 -48.0 8.05 -50.55 11.25 -54.05 11.25 -57.65 11.2 -60.05 7.85 -62.6 4.65 -62.65 0.1 -62.65 -4.4 -60.3 -7.65 M-35.7 -3.3 L-23.55 -2.35 M-35.15 2.45 L-23.4 3.05" fill="none" stroke="#000000" stroke-linecap="round" stroke-linejoin="round" stroke-width="1.4000000000000001"/>
    <path d="M34.4 6.0 L34.4 8.9 Q34.75 13.7 40.75 14.65 L62.35 14.85 Q68.05 14.55 68.55 9.15 L68.85 -5.95 Q68.05 -10.35 62.45 -11.0 L41.15 -11.65 Q35.25 -10.9 34.4 -6.65 L34.4 -3.65 34.4 6.0 Q26.9 5.5 23.2 6.15 L23.2 8.65 Q22.6 14.2 14.55 14.55 L-14.8 14.75 Q-22.15 13.75 -23.4 9.7 L-33.8 9.2 -33.9 9.2 Q-34.75 11.45 -36.0 13.4 L-37.35 15.4 Q-45.75 24.4 -57.05 20.15 -60.05 18.9 -62.75 16.05 -67.95 10.5 -68.65 1.8 -69.6 -6.65 -65.7 -13.3 L-62.8 -16.7 Q-54.8 -24.95 -42.05 -18.9 -40.5 -17.65 -38.85 -15.85 -36.4 -13.05 -34.8 -9.45 L-23.4 -8.8 -23.4 -8.0 Q-21.95 -11.9 -14.65 -12.6 L-14.3 -12.7 14.7 -12.3 Q22.4 -11.6 23.5 -7.15 L23.4 -3.85 Q30.65 -2.7 34.4 -3.65 M23.4 -3.85 L23.2 6.15 M-34.8 -9.45 L-34.85 -9.45 -36.85 -8.55 -36.8 -8.25 -36.75 -8.05 -35.7 -3.3 Q-35.15 -0.3 -35.15 2.45 -35.15 4.45 -35.45 6.3 L-35.65 7.2 -35.85 8.0 -33.9 9.15 -33.9 9.2 M-23.55 -2.35 L-23.4 -2.35 -23.4 -8.0 M-23.4 -2.35 L-23.4 3.05 -23.4 9.7 M-33.8 9.2 L-33.9 9.15" fill="none" stroke="#000000" stroke-linecap="round" stroke-linejoin="round" stroke-width="2.0"/>
  </g>
</svg>
