<?xml version="1.0" encoding="UTF-8" standalone="no"?>
<svg xmlns:xlink="http://www.w3.org/1999/xlink" height="64.85px" width="247.9px" xmlns="http://www.w3.org/2000/svg">
  <g transform="matrix(1.0, 0.0, 0.0, 1.0, 123.95, 32.25)">
    <path d="M99.2 -26.75 L100.0 -27.1 101.75 -23.85 Q104.0 -22.6 106.05 -20.6 109.85 -17.3 113.05 -11.95 L113.1 -11.8 113.25 -11.7 116.3 -6.1 Q121.45 4.7 122.95 20.45 M122.55 19.8 L120.7 15.95 120.55 15.9 Q119.65 14.6 118.0 13.25 L117.8 13.2 117.55 12.95 116.9 12.55 114.65 11.1 113.9 10.75 Q110.75 9.05 107.95 11.85 L107.8 12.0 107.5 12.35 107.25 12.65 Q106.5 13.55 105.7 14.95 L104.7 16.7 Q103.1 19.7 102.35 22.0 L102.0 24.45 99.95 28.15 98.6 23.25 94.8 19.1 Q91.65 16.4 88.1 14.6 87.3 14.15 86.35 13.85 L84.55 13.15 76.05 10.85 74.55 10.6 72.65 10.55 71.9 5.7 72.85 6.0 Q78.85 4.35 84.55 0.05 L89.05 -3.75 90.0 -4.7 90.55 -5.25 Q95.6 -10.75 98.8 -17.7 L98.85 -18.0 99.05 -18.35 99.25 -19.0 Q99.4 -21.85 94.95 -24.85 L95.8 -25.25 M-84.95 -23.8 L-85.65 -23.8 -88.4 -20.35 -88.45 -20.35 Q-101.5 -14.65 -111.7 -0.95 -115.2 3.8 -117.7 9.4 -121.3 17.1 -122.95 26.5 L-119.2 21.7 -119.0 21.55 Q-117.4 19.95 -114.05 18.2 L-113.6 18.0 -113.55 17.95 -113.15 17.7 Q-112.3 17.35 -111.25 16.95 -110.75 16.55 -110.0 16.3 L-108.4 15.6 Q-103.55 13.7 -99.25 16.0 L-97.3 17.3 M-90.65 25.65 L-90.1 28.1 -87.05 31.6 -86.25 29.9 -86.2 29.6 -84.85 26.5 -81.15 23.65 -79.2 22.3 Q-71.7 17.35 -62.6 14.8 L-61.95 14.65 -58.4 13.7 -57.3 13.45 -49.15 11.65 -46.85 11.2 -40.9 10.75 Q-37.8 10.45 -36.95 9.9 -36.9 9.75 -36.75 9.75 L-36.4 8.45 Q-38.2 7.85 -39.75 7.05 L-44.15 6.4 -49.0 5.7 Q-55.75 4.5 -62.2 1.7 -77.55 -4.7 -84.75 -15.75 L-84.75 -16.15 M-81.25 -21.25 L-80.55 -20.9 Q-84.3 -18.9 -84.7 -16.45 M-90.65 25.65 Q-91.9 23.4 -94.15 20.65 -95.45 18.9 -96.75 17.75" fill="none" stroke="#000000" stroke-linecap="round" stroke-linejoin="round" stroke-width="2.0"/>
    <path d="M95.8 -25.25 L94.05 -31.55 96.35 -29.8 Q98.55 -28.05 99.2 -26.75 L95.8 -25.25 M120.55 15.9 Q114.6 -3.05 103.1 -18.3 103.9 -4.9 103.5 7.2 L103.05 14.5 102.35 22.0 M98.6 23.25 Q100.55 4.3 98.75 -11.05 90.25 9.35 76.05 10.85 M-82.9 -22.4 L-84.95 -23.8 Q-83.1 -25.6 -78.65 -27.75 L-77.7 -28.3 -77.55 -28.35 -77.6 -28.05 Q-78.9 -23.45 -81.25 -21.25 M-119.0 21.55 Q-109.15 1.95 -90.7 -14.6 -93.45 7.5 -90.65 25.65 M-84.85 26.5 Q-87.35 7.8 -84.1 -7.8 -71.5 11.7 -49.15 11.65" fill="none" stroke="#000000" stroke-linecap="round" stroke-linejoin="round" stroke-width="1.4000000000000001"/>
  </g>
</svg>
