<?xml version="1.0" encoding="UTF-8" standalone="no"?>
<svg xmlns:xlink="http://www.w3.org/1999/xlink" height="48.15px" width="137.95px" xmlns="http://www.w3.org/2000/svg">
  <g transform="matrix(1.0, 0.0, 0.0, 1.0, 68.95, 24.05)">
    <path d="M34.5 10.05 Q46.2 2.95 48.35 -7.45 39.35 -7.4 33.8 -6.15 26.85 -3.9 23.7 0.65 27.45 8.8 34.5 10.05 M19.05 -1.75 Q28.25 -11.85 56.0 -11.9 49.55 6.9 32.7 14.6 22.45 8.5 19.05 -1.75 M-36.2 -9.95 Q-28.3 -10.1 -16.35 -7.55 -6.85 -4.6 -2.5 0.45 -7.55 8.95 -17.2 9.9 -33.15 1.4 -36.2 -9.95 M-16.15 14.5 Q-2.15 11.65 5.1 -2.35 -16.9 -14.85 -50.15 -14.8 -37.85 2.8 -16.15 14.5" fill="none" stroke="#000000" stroke-linecap="round" stroke-linejoin="round" stroke-width="1.0"/>
    <path d="M13.25 -9.65 L11.6 -10.2 11.35 -10.25 Q3.15 -12.75 -3.6 -16.0 -19.6 -23.9 -67.95 -22.95 -60.6 -4.4 -38.6 12.5 -22.75 22.75 -5.75 18.0 L2.8 16.45 Q7.7 17.9 11.9 23.1 L17.55 17.25 20.85 18.3 Q34.25 22.1 45.8 15.4 60.15 2.6 68.0 -17.9 37.4 -21.4 23.6 -14.2 L18.85 -11.85 18.2 -11.5 13.25 -9.65" fill="none" stroke="#000000" stroke-linecap="round" stroke-linejoin="round" stroke-width="2.0"/>
  </g>
</svg>
