<?xml version="1.0" encoding="UTF-8" standalone="no"?>
<svg xmlns:xlink="http://www.w3.org/1999/xlink" height="110.4px" width="131.45px" xmlns="http://www.w3.org/2000/svg">
  <g transform="matrix(1.0, 0.0, 0.0, 1.0, 65.75, 55.2)">
    <path d="M-61.95 -27.2 L-64.25 -42.1 Q-65.75 -50.15 -62.95 -52.85 -61.35 -54.4 -58.3 -54.15 -49.9 -54.5 -49.4 -42.5 L-47.45 -27.9 -43.1 4.5 Q-43.0 0.3 -35.75 -3.85 -30.45 -6.95 -21.5 -8.9 9.15 -13.25 39.25 -10.9 63.0 -9.55 64.55 9.9 66.0 29.35 54.4 31.55 42.2 32.05 33.1 26.4 20.75 33.55 4.75 27.85 -9.1 37.65 -21.45 37.85 -25.8 37.9 -29.95 36.75 -24.85 40.2 -17.5 41.1 -8.5 42.55 -2.0 40.2 L0.15 39.7 0.7 39.6 Q2.75 38.05 6.6 37.1 11.45 35.85 19.25 35.6 37.75 35.7 38.35 41.6 38.95 45.05 37.8 47.5 35.9 51.55 29.2 52.6 13.75 55.3 6.05 53.45 2.9 52.7 1.05 51.2 L-16.3 51.85 Q-49.05 50.9 -53.7 24.4 L-61.95 -27.2 -59.0 -28.1 Q-53.75 -29.35 -47.45 -27.9 M58.9 13.05 Q59.15 20.35 57.05 22.5 56.0 23.85 54.65 24.75 49.8 27.85 41.6 24.4 26.7 15.8 19.35 16.55 8.75 17.85 0.0 24.1 -20.0 36.6 -25.05 25.2 -28.6 18.0 -30.25 7.05 -30.6 4.55 -29.95 2.5 -27.7 -4.5 -13.2 -6.3 17.75 -8.65 48.35 -4.65 59.45 -2.1 58.9 13.05 M-35.75 -3.85 Q-40.4 3.6 -35.6 21.65 -29.65 36.9 -21.45 37.85 M-43.1 4.5 L-41.5 16.35 Q-39.15 30.6 -29.95 36.75 M1.05 51.2 Q5.3 50.35 6.9 48.65 L7.1 48.4 Q7.85 47.45 7.85 46.2 7.25 38.65 0.7 39.6 M6.6 37.1 Q15.3 40.75 13.0 47.85 L12.1 50.0 Q10.25 52.8 6.05 53.45 M4.75 27.85 Q17.35 17.9 33.1 26.4" fill="none" stroke="#000000" stroke-linecap="round" stroke-linejoin="round" stroke-width="2.0"/>
  </g>
</svg>
