<?xml version="1.0" encoding="UTF-8" standalone="no"?>
<svg xmlns:xlink="http://www.w3.org/1999/xlink" height="120.65px" width="110.4px" xmlns="http://www.w3.org/2000/svg">
  <g transform="matrix(1.0, 0.0, 0.0, 1.0, 55.2, 60.3)">
    <path d="M-47.0 18.6 Q-49.55 21.7 -49.7 27.2 -49.7 42.2 -43.1 49.6 -41.3 51.05 -39.1 50.85 -34.3 49.6 -33.95 41.1 -33.7 29.8 -38.55 20.65 -43.6 14.65 -47.0 18.6 M-48.8 8.85 Q-40.9 7.6 -35.35 12.1 -28.65 19.45 -26.45 34.2 -25.15 49.3 -30.45 57.05 -35.0 61.4 -39.9 60.05 -41.65 59.6 -43.5 58.4 -51.05 53.05 -54.25 39.65 -56.55 26.5 -53.15 15.75 L-52.75 14.5 -52.75 14.25 -51.8 12.35 Q-51.0 10.95 -49.85 9.85 L-48.8 8.85 M-27.5 -11.0 L-45.4 -14.1 Q-38.55 -32.2 -24.85 -44.4 -10.8 -57.7 11.3 -59.7 34.05 -61.95 51.1 -55.7 53.55 -54.3 54.35 -53.4 55.1 -52.55 55.2 -51.55 L54.95 -49.55 Q44.1 -52.7 26.45 -51.6 1.85 -49.5 -12.25 -34.4 -22.2 -23.4 -27.5 -11.0" fill="#bb3d3d" fill-rule="evenodd" stroke="none"/>
  </g>
</svg>
