<?xml version="1.0" encoding="UTF-8" standalone="no"?>
<svg xmlns:xlink="http://www.w3.org/1999/xlink" height="75.05px" width="31.7px" xmlns="http://www.w3.org/2000/svg">
  <g transform="matrix(1.0, 0.0, 0.0, 1.0, 75.75, 6.55)">
    <path d="M-72.75 -0.5 L-73.4 -0.6 -71.3 -6.55 -53.4 -3.45 -55.5 2.0 -56.65 2.1 -58.35 2.05 -61.7 1.45 -68.65 0.25 -72.75 -0.5 M-58.6 14.25 L-56.8 15.35 Q-49.15 19.9 -45.3 33.15 -43.05 45.3 -44.9 55.85 -47.45 68.5 -60.25 68.45 -62.85 68.75 -65.8 67.6 -60.9 68.95 -56.35 64.6 -51.05 56.85 -52.35 41.75 -54.55 27.0 -61.25 19.65 -66.8 15.15 -74.7 16.4 -73.95 15.8 -73.05 15.3 -72.15 14.7 -71.15 14.4 -70.0 13.95 -68.75 13.85 L-68.6 13.85 Q-66.35 13.65 -63.8 14.4 L-64.2 17.0 Q-62.35 18.8 -59.05 17.0 L-58.6 14.25" fill="#263035" fill-rule="evenodd" stroke="none"/>
    <path d="M-72.75 -0.5 L-68.65 0.25 -71.15 14.4 Q-72.15 14.7 -73.05 15.3 -73.95 15.8 -74.7 16.4 L-75.75 17.4 Q-74.9 9.0 -72.75 -0.5 M-61.7 1.45 L-58.35 2.05 -56.65 2.1 -58.6 14.25 -59.05 17.0 Q-62.35 18.8 -64.2 17.0 L-63.8 14.4 -61.7 1.45 M-72.9 26.15 Q-69.5 22.2 -64.45 28.2 -59.6 37.35 -59.85 48.65 -60.2 57.15 -65.0 58.4 -67.2 58.6 -69.0 57.15 -75.6 49.75 -75.6 34.75 -75.45 29.25 -72.9 26.15 M-70.2 50.6 L-68.85 51.75 -68.55 53.45 Q-68.65 54.45 -67.5 54.9 -66.35 55.25 -66.15 53.75 -66.15 52.8 -67.1 52.45 L-67.7 50.2 -70.2 50.6 M-73.45 33.75 Q-72.4 36.65 -70.6 37.15 L-70.1 43.85 Q-69.45 47.05 -67.05 47.4 -64.5 47.5 -64.25 44.5 -64.75 41.85 -67.7 40.65 L-68.75 33.55 -73.45 33.75" fill="#b8b8b8" fill-rule="evenodd" stroke="none"/>
  </g>
</svg>
