<?xml version="1.0" encoding="UTF-8" standalone="no"?>
<svg xmlns:xlink="http://www.w3.org/1999/xlink" height="37.9px" width="37.45px" xmlns="http://www.w3.org/2000/svg">
  <g transform="matrix(1.0, 0.0, 0.0, 1.0, 18.75, 18.95)">
    <path d="M6.2 -11.45 Q10.5 -7.8 16.35 -7.7 16.35 0.15 17.2 8.05 L17.5 10.8 Q17.95 14.85 18.7 18.95 6.4 12.5 -3.65 10.7 L-2.1 4.55 -1.35 2.1 Q0.1 -2.5 2.25 -7.05 L-3.05 -0.25 -4.4 1.75 -6.4 5.05 Q-15.7 -0.65 -18.75 -6.7 -17.15 -8.35 -15.35 -9.7 L-13.45 -11.25 Q-7.2 -16.0 0.95 -18.95 2.2 -15.45 4.95 -12.65 L6.2 -11.45" fill="#a8ccff" fill-rule="evenodd" stroke="none"/>
  </g>
</svg>
