<?xml version="1.0" encoding="UTF-8" standalone="no"?>
<svg xmlns:xlink="http://www.w3.org/1999/xlink" height="59.7px" width="129.15px" xmlns="http://www.w3.org/2000/svg">
  <g transform="matrix(1.0, 0.0, 0.0, 1.0, 64.55, 29.85)">
    <path d="M-26.25 -26.6 Q-13.75 -29.8 -2.25 -29.85 L4.4 -28.55 Q10.65 -27.1 16.15 -24.9 26.8 -20.65 34.5 -13.6 38.75 -8.05 38.45 -3.65 30.3 -8.1 18.85 -10.4 L7.25 -12.1 -0.6 -12.7 Q-32.85 -11.85 -56.7 -4.8 -56.2 -16.3 -26.25 -26.6 M64.5 26.55 Q63.0 28.05 58.1 26.95 46.6 22.85 39.4 21.75 L38.35 21.6 29.25 21.1 Q13.45 20.85 -3.2 24.95 -24.75 29.9 -36.25 22.4 -51.55 12.45 -56.35 4.2 -18.85 -1.95 9.3 -0.4 L20.95 0.6 Q32.25 2.0 41.8 4.8 L50.45 14.0 Q53.9 17.7 59.05 22.05 L64.5 26.55" fill="#ffade3" fill-opacity="0.7490196" fill-rule="evenodd" stroke="none"/>
    <path d="M-56.7 -4.8 L-63.1 -2.75 Q-61.9 -11.35 -57.75 -14.65 -41.25 -22.85 -26.25 -26.6 -56.2 -16.3 -56.7 -4.8 M-56.35 4.2 Q-51.55 12.45 -36.25 22.4 -24.75 29.9 -3.2 24.95 13.45 20.85 29.25 21.1 L38.35 21.6 39.4 21.75 Q46.6 22.85 58.1 26.95 63.0 28.05 64.5 26.55 65.6 30.35 54.55 28.15 48.7 26.4 42.6 25.4 22.75 22.25 -0.5 27.25 -31.0 33.8 -45.4 24.0 -57.0 15.05 -64.55 5.6 L-56.35 4.2" fill="#ffade3" fill-opacity="0.8862745" fill-rule="evenodd" stroke="none"/>
  </g>
</svg>
