<?xml version="1.0" encoding="UTF-8" standalone="no"?>
<svg xmlns:xlink="http://www.w3.org/1999/xlink" height="60.9px" width="145.9px" xmlns="http://www.w3.org/2000/svg">
  <g transform="matrix(1.0, 0.0, 0.0, 1.0, 72.95, 30.45)">
    <path d="M-52.05 -13.4 L-50.4 -15.05 Q-36.65 -23.1 -21.9 -26.6 -7.15 -30.15 5.2 -29.3 28.15 -26.55 41.85 -14.0 46.1 -8.45 45.8 -4.05 M49.15 4.4 L57.8 13.6 Q61.25 17.3 66.4 21.65 L71.85 26.15 Q72.95 29.95 61.9 27.75 37.35 20.3 6.85 26.85 -23.65 33.4 -38.05 23.6 -49.55 14.7 -57.05 5.35 L-57.2 5.2" fill="none" stroke="#000000" stroke-linecap="round" stroke-linejoin="round" stroke-opacity="0.7490196" stroke-width="2.0"/>
    <path d="M45.8 -4.05 Q48.8 -0.5 49.15 4.4 12.75 -6.35 -49.0 3.8 L-56.55 5.1 -57.2 5.2 M-57.05 5.35 Q-58.9 6.25 -61.1 6.9 -70.2 3.3 -71.6 -3.65 -73.0 -10.6 -68.5 -12.65 -64.05 -14.7 -60.6 -9.4 -57.85 -13.7 -53.95 -13.8 L-52.05 -13.4 Q-47.35 -11.8 -48.65 -5.4 -25.0 -12.3 6.75 -13.1 31.4 -11.9 45.8 -4.05 M-48.65 -5.4 L-48.85 -4.5 Q-50.45 1.85 -56.55 5.1 L-57.05 5.35" fill="none" stroke="#000000" stroke-linecap="round" stroke-linejoin="round" stroke-width="2.0"/>
  </g>
</svg>
