<?xml version="1.0" encoding="UTF-8" standalone="no"?>
<svg xmlns:xlink="http://www.w3.org/1999/xlink" height="35.55px" width="31.85px" xmlns="http://www.w3.org/2000/svg">
  <g transform="matrix(1.0, 0.0, 0.0, 1.0, 15.95, 17.8)">
    <path d="M-6.75 -1.05 L-4.6 -0.6 -1.45 -0.95 Q1.6 -9.65 -14.4 -16.95 -15.1 -13.45 -15.1 -6.1 -15.15 1.25 -7.45 3.95 -9.35 1.4 -9.0 -0.8 L-6.75 -1.05 M-1.45 -0.95 Q11.45 -1.65 13.35 11.15 15.25 14.1 15.0 16.0 13.45 16.75 9.85 16.0 2.05 18.4 -2.7 14.5 -7.45 10.6 -7.45 3.95" fill="none" stroke="#000000" stroke-linecap="round" stroke-linejoin="round" stroke-width="1.7000000000000002"/>
    <path d="M-6.75 -1.05 Q-7.3 -4.75 -11.35 -10.45" fill="none" stroke="#000000" stroke-linecap="round" stroke-linejoin="round" stroke-width="1.5"/>
  </g>
</svg>
