<?xml version="1.0" encoding="UTF-8" standalone="no"?>
<svg xmlns:xlink="http://www.w3.org/1999/xlink" height="57.1px" width="109.95px" xmlns="http://www.w3.org/2000/svg">
  <g transform="matrix(1.0, 0.0, 0.0, 1.0, 55.0, 28.55)">
    <path d="M27.15 -24.35 Q28.2 -22.1 33.2 -21.15 L33.65 -24.4 Q39.15 -25.45 42.55 -21.4 L43.25 -20.45 Q47.85 -16.85 50.2 -17.25 L54.95 -4.1 Q31.75 -16.45 2.15 -11.85 -2.0 -17.65 -6.7 -23.1 -3.45 -22.05 -0.75 -23.0 L-0.7 -23.0 -0.8 -23.1 -3.05 -24.45 Q1.95 -29.25 7.3 -28.3 L5.45 -24.9 6.05 -24.75 Q9.35 -24.2 12.7 -28.05 L13.25 -28.25 Q16.45 -29.3 18.25 -26.9 26.9 -30.5 29.9 -25.3 L27.15 -24.35 M-29.8 -13.5 Q-28.3 -13.25 -29.5 -10.75 -24.95 -11.8 -23.95 -14.0 -22.3 -9.35 -21.9 -4.1 L-21.8 -3.4 Q-40.1 7.35 -46.05 26.55 L-48.15 26.1 -50.0 26.25 -51.2 26.7 Q-52.45 27.3 -53.6 28.55 -55.8 23.4 -54.0 17.4 -52.8 17.05 -49.25 18.5 -47.5 15.35 -49.1 15.05 L-55.0 13.35 Q-46.85 7.35 -48.7 4.6 -49.75 4.0 -51.1 3.75 -49.75 -4.35 -43.5 -6.3 L-40.85 -4.7 Q-37.45 -5.25 -34.9 -7.9 -36.6 -9.8 -41.65 -8.95 L-35.55 -11.85 Q-31.35 -13.8 -29.8 -13.5" fill="#ffffff" fill-rule="evenodd" stroke="none"/>
  </g>
</svg>
