<?xml version="1.0" encoding="UTF-8" standalone="no"?>
<svg xmlns:xlink="http://www.w3.org/1999/xlink" height="119.45px" width="150.3px" xmlns="http://www.w3.org/2000/svg">
  <g transform="matrix(1.0, 0.0, 0.0, 1.0, 75.15, 59.75)">
    <path d="M-45.2 -4.6 Q-50.05 -9.4 -51.5 -12.35 -42.0 -45.75 2.8 -56.15 43.75 -63.8 70.65 -49.6 74.75 -47.3 74.15 -43.85 71.8 -36.95 68.95 -30.6 L64.6 -21.75 Q40.15 -31.55 12.25 -25.55 -15.7 -19.55 -31.2 -3.75 L-31.0 -2.8 Q-34.65 -0.15 -40.5 -0.1 -37.4 8.6 -42.4 20.25 -52.15 45.3 -48.25 57.25 -54.5 59.45 -58.3 58.5 -61.6 47.2 -53.05 28.95 -63.75 45.65 -63.15 54.65 -71.15 50.85 -74.15 53.35 -75.65 42.0 -53.45 22.5 -47.9 16.5 -44.0 4.05 -45.6 8.7 -47.8 9.7 -50.45 7.3 -50.65 1.4 -54.9 -1.35 -56.15 -4.1 -54.55 -7.25 -46.75 -3.8 -46.45 -4.7 -45.2 -4.6 L-44.5 -4.5 Q-45.1 -13.4 -42.55 -16.35 -38.8 -15.4 -37.25 -12.25 -32.2 -23.05 -4.9 -33.0 22.15 -43.0 50.9 -37.7 61.8 -35.55 68.95 -30.6 M-46.75 -3.8 L-46.85 -3.05 Q-46.2 -0.6 -43.9 1.2 L-43.2 1.4 -42.3 1.3 Q-41.75 0.95 -41.7 -0.15 L-41.75 -0.15 Q-41.7 -2.9 -43.85 -4.3 L-44.5 -4.5 M-37.25 -12.25 Q-36.6 -11.0 -36.35 -9.35 -32.25 -7.65 -31.2 -3.75 M-40.5 -0.1 L-41.7 -0.15 M-44.0 4.05 L-43.8 3.4 -43.6 2.75 -43.5 2.45 -43.2 1.4 M-42.3 1.3 Q-43.4 9.55 -48.95 21.0 L-53.05 28.95" fill="none" stroke="#000000" stroke-linecap="round" stroke-linejoin="round" stroke-width="1.8"/>
  </g>
</svg>
