<?xml version="1.0" encoding="UTF-8" standalone="no"?>
<svg xmlns:xlink="http://www.w3.org/1999/xlink" height="76.65px" width="120.6px" xmlns="http://www.w3.org/2000/svg">
  <g transform="matrix(1.0, 0.0, 0.0, 1.0, 60.3, 38.35)">
    <path d="M22.9 -0.9 L26.0 -8.15 28.8 -14.1 32.3 -20.6 Q34.45 -24.35 36.55 -27.25 39.4 -31.2 42.25 -33.6 45.55 -36.5 48.75 -37.35 L49.8 -35.1 Q61.6 -8.7 59.0 32.2 L28.0 16.85 18.05 11.9 20.05 6.4 22.9 -0.9 31.95 2.25 34.35 -5.05 26.0 -8.15 M49.8 -35.1 L47.05 -31.35 Q45.0 -28.35 43.1 -24.9 41.15 -21.4 39.35 -17.45 L36.75 -11.35 34.35 -5.05 M28.8 -14.1 L36.75 -11.35 M32.3 -20.6 L39.35 -17.45 M42.25 -33.6 L47.05 -31.35 M36.55 -27.25 L43.1 -24.9 M31.95 2.25 L29.8 9.7 28.0 16.85 M20.05 6.4 L29.8 9.7 M-44.9 -12.6 L-46.35 -4.35 -47.45 4.45 -48.25 13.3 -48.95 24.15 -49.2 29.45 -38.45 23.0 Q-27.75 16.6 -6.1 10.1 -16.65 -19.45 -33.75 -35.05 -36.65 -33.85 -39.05 -29.95 -41.0 -26.8 -42.55 -21.85 -43.85 -17.85 -44.9 -12.6 L-50.45 -11.3 -52.8 -2.3 -46.35 -4.35 M-39.05 -29.95 L-43.05 -29.65 Q-45.25 -25.9 -47.2 -20.85 L-42.55 -21.85 M-50.45 -11.3 Q-48.9 -16.55 -47.2 -20.85 M-43.05 -29.65 Q-40.0 -34.85 -36.55 -37.5 L-33.75 -35.05 M-49.2 29.45 Q-56.4 37.8 -59.45 37.45 L-58.35 28.85 -56.6 17.1 -54.85 7.25 -52.8 -2.3 M-54.85 7.25 L-47.45 4.45 M-56.6 17.1 L-48.25 13.3 M-58.35 28.85 L-48.95 24.15" fill="none" stroke="#000000" stroke-linecap="round" stroke-linejoin="round" stroke-width="1.7000000000000002"/>
  </g>
</svg>
