<?xml version="1.0" encoding="UTF-8" standalone="no"?>
<svg xmlns:xlink="http://www.w3.org/1999/xlink" height="92.65px" width="118.45px" xmlns="http://www.w3.org/2000/svg">
  <g transform="matrix(1.0, 0.0, 0.0, 1.0, 59.25, 46.35)">
    <path d="M36.15 43.0 Q32.0 43.0 31.85 36.85 29.85 20.15 29.65 9.0 33.7 7.05 33.85 4.65 33.1 2.8 29.65 1.65 29.2 -11.35 18.45 -46.35 41.3 -28.8 51.3 -15.5 51.0 -12.45 48.0 -9.3 52.1 -7.3 55.6 -8.85 58.4 -3.65 58.85 0.85 60.1 13.95 56.65 23.25 L53.3 23.25 54.15 28.05 Q47.7 37.15 40.1 41.3 60.5 12.7 35.45 -17.3 43.1 16.55 36.15 43.0 M-16.25 46.3 Q-18.45 35.6 -23.5 22.3 -28.6 8.95 -34.9 0.4 -41.25 -8.25 -43.7 -15.0 L-43.75 -15.05 Q-45.75 2.3 -41.35 17.05 -36.2 32.95 -16.25 46.3 -29.55 45.15 -35.65 41.2 -44.85 34.75 -50.1 28.35 L-47.65 23.3 Q-53.05 24.15 -53.95 22.6 L-54.0 22.55 Q-57.5 10.35 -55.15 -5.05 L-49.5 -2.7 Q-49.55 -6.25 -54.65 -9.8 -54.45 -13.6 -54.65 -17.8 L-54.65 -17.95 Q-55.35 -29.3 -59.25 -43.4 -38.7 -32.2 -25.95 -11.65 -25.8 -8.95 -30.35 -3.6 L-21.2 -2.75 Q-5.35 26.4 -16.25 46.3" fill="#8dc699" fill-rule="evenodd" stroke="none"/>
  </g>
</svg>
