<?xml version="1.0" encoding="UTF-8" standalone="no"?>
<svg xmlns:xlink="http://www.w3.org/1999/xlink" height="53.85px" width="168.35px" xmlns="http://www.w3.org/2000/svg">
  <g transform="matrix(1.0, 0.0, 0.0, 1.0, 84.2, 26.9)">
    <path d="M75.0 -3.95 L72.25 -12.1 Q68.55 -19.15 70.95 -16.6 L71.1 -16.1 71.1 -16.4 71.0 -16.75 71.5 -17.3 Q71.9 -19.3 71.95 -21.4 72.1 -23.95 72.95 -26.15 73.2 -26.9 73.95 -26.9 76.3 -25.6 76.9 -23.4 L78.15 -23.95 Q81.95 -21.85 81.75 -16.75 L81.5 5.4 Q81.5 6.15 80.55 5.95 L80.05 5.8 Q79.9 9.25 80.2 11.3 L81.25 17.2 Q81.95 21.05 84.15 26.95 79.65 25.25 75.5 22.95 76.25 18.15 75.75 12.6 75.2 7.0 75.6 4.4 76.0 1.75 75.0 -3.95 75.7 -1.3 76.55 1.3 L74.35 -6.85 75.0 -3.95 M-84.1 -9.3 Q-81.75 -18.3 -77.55 -25.5 -72.3 -19.05 -65.3 -14.25 L-66.4 -13.65 Q-66.85 -13.4 -66.9 -12.85 L-66.9 -12.7 Q-71.95 -12.8 -73.9 -15.1 -75.85 -17.4 -76.55 -17.45 -77.25 -17.5 -78.25 -14.7 -79.25 -11.9 -77.8 -11.6 L-67.1 -12.4 Q-67.75 -9.65 -64.6 -9.45 -62.2 -9.35 -61.85 -11.75 -61.4 -14.15 -63.6 -14.5 L-63.2 -14.85 -62.8 -14.35 Q-61.5 -15.2 -60.0 -15.8 L-58.0 -16.5 -51.25 -19.2 -40.75 -23.55 Q-36.95 -20.3 -38.6 -14.1 -39.85 -9.8 -40.35 -5.3 -41.05 0.2 -44.7 1.5 -45.2 1.65 -50.55 -1.2 -55.95 -4.0 -62.2 -9.6 -61.0 -7.8 -60.65 -0.45 -60.15 6.95 -59.0 11.85 L-56.65 21.25 -62.95 19.5 Q-63.9 17.6 -64.2 10.2 -64.6 2.75 -64.05 -7.95 L-65.6 -5.0 Q-67.1 -2.3 -68.4 4.25 -69.8 10.75 -69.5 17.4 L-75.25 15.8 Q-74.35 13.4 -73.65 9.5 -73.05 5.6 -71.5 0.4 -69.95 -4.7 -67.3 -9.2 -74.85 -7.35 -82.6 -7.25 -84.55 -7.25 -84.1 -9.3 M-60.95 -11.55 L-60.1 -11.4 Q-56.05 -10.15 -52.65 -7.85 -48.15 -5.25 -46.2 -5.25 L-45.7 -7.9 Q-45.45 -9.6 -44.5 -11.6 -43.6 -13.6 -43.35 -14.9 -43.15 -16.25 -44.55 -16.8 -46.75 -17.1 -52.7 -15.2 -57.15 -13.7 -61.35 -11.75 -61.2 -11.6 -60.95 -11.55" fill="#1ca1cd" fill-rule="evenodd" stroke="none"/>
  </g>
</svg>
