<?xml version="1.0" encoding="UTF-8" standalone="no"?>
<svg xmlns:xlink="http://www.w3.org/1999/xlink" height="46.3px" width="100.45px" xmlns="http://www.w3.org/2000/svg">
  <g transform="matrix(1.0, 0.0, 0.0, 1.0, 50.25, 23.15)">
    <path d="M5.8 -5.1 Q21.65 -5.35 28.75 -7.85 36.45 -10.5 34.45 -15.55 51.95 -6.1 46.55 -4.1 53.4 9.75 47.35 13.2 L46.15 13.7 Q35.1 11.75 30.4 4.45 L29.85 3.6 Q34.35 18.15 26.6 20.2 L26.5 20.2 Q9.9 17.6 8.1 7.0 1.75 21.1 -4.75 22.95 L-8.95 22.65 Q-17.85 16.15 -15.9 6.15 L-16.0 6.25 Q-22.25 14.95 -29.45 14.85 -31.55 14.85 -33.6 14.15 -38.9 7.9 -33.15 0.6 L-33.05 0.5 -34.05 1.15 Q-42.85 6.65 -47.25 5.55 L-48.6 5.05 Q-53.1 -2.0 -45.4 -9.05 -48.4 -9.85 -47.5 -11.5 -46.25 -13.8 -36.5 -17.45 -32.95 -20.95 -25.25 -23.15 L-27.25 -21.95 Q-32.75 -18.2 -30.2 -14.15 -26.7 -4.45 5.8 -5.1" fill="#1f703a" fill-rule="evenodd" stroke="none"/>
  </g>
</svg>
