<?xml version="1.0" encoding="UTF-8" standalone="no"?>
<svg xmlns:xlink="http://www.w3.org/1999/xlink" height="34.1px" width="144.8px" xmlns="http://www.w3.org/2000/svg">
  <g transform="matrix(1.0, 0.0, 0.0, 1.0, 72.4, 17.05)">
    <path d="M14.45 -15.7 L21.5 -15.2 21.1 -14.3 21.0 -14.2 20.55 -13.45 19.3 -11.55 17.3 -8.8 16.1 -7.3 Q17.1 -8.0 18.4 -8.45 L19.3 -8.95 Q26.15 -11.85 32.1 -10.5 34.5 -9.95 37.2 -8.45 L37.45 -8.35 37.8 -8.15 37.3 -7.65 38.9 -7.3 38.95 -7.3 51.05 -2.35 50.85 -2.1 50.3 -1.65 50.25 -1.6 48.4 0.05 46.75 1.2 45.9 1.8 45.0 2.4 42.8 3.7 39.1 5.35 35.75 6.4 Q31.75 7.25 28.15 6.45 25.85 6.05 23.65 4.95 21.9 4.1 20.15 2.8 15.4 -1.9 13.25 -2.8 L12.75 -3.0 12.7 -3.05 12.25 -3.05 12.45 -3.45 12.7 -4.15 10.9 -2.75 10.0 -2.1 Q8.1 -1.0 6.1 -0.3 L3.25 0.3 Q0.6 0.8 -2.2 0.35 L-5.6 -2.0 -7.5 -3.75 -11.05 -6.1 Q-9.1 -7.4 -7.5 -9.35 -6.05 -11.05 -4.9 -13.15 L-3.65 -15.85 Q2.2 -18.1 8.45 -16.15 L13.8 -15.7 14.45 -15.7 M58.0 -1.2 L59.7 -2.2 Q64.0 -1.3 66.4 2.2 L72.4 7.45 71.65 7.75 71.65 7.8 Q60.95 11.7 55.15 8.4 53.35 4.0 49.7 1.05 L50.1 1.05 Q52.95 1.05 56.0 -0.25 L58.0 -1.2 M-64.45 -4.2 L-57.85 -9.55 -57.7 -8.6 -57.7 -8.55 -57.55 -7.0 -57.5 -4.75 Q-57.5 -1.2 -57.85 1.7 L-57.9 2.65 Q-58.1 4.15 -58.45 5.35 -58.9 7.45 -59.65 9.15 L-60.4 10.65 Q-62.45 13.95 -65.85 15.15 -69.8 15.55 -71.05 16.5 L-71.4 16.85 -71.55 17.05 -71.7 16.7 Q-72.9 13.8 -72.0 8.55 -70.55 -2.0 -64.45 -4.2 M-44.4 -3.8 Q-41.15 -7.25 -37.6 -8.85 -33.8 -10.7 -29.55 -10.55 L-28.55 -10.5 -25.85 -10.15 -12.7 -10.3 -12.7 -10.2 -12.95 -9.7 -13.1 -9.4 -13.15 -9.3 -14.15 -7.25 -15.5 -4.95 -15.6 -4.75 -15.8 -4.5 Q-17.05 -2.4 -18.55 -0.65 L-19.85 0.8 -19.85 0.85 -22.05 2.85 -25.3 5.1 Q-29.8 7.55 -35.1 7.25 L-39.0 6.65 Q-43.75 4.85 -46.25 4.35 L-47.6 4.2 -48.25 4.2 -48.6 4.35 -48.6 3.9 -48.6 3.7 -48.6 3.5 -48.6 3.3 Q-48.45 2.05 -47.9 0.8 -47.3 -0.65 -46.1 -2.0 L-45.7 -2.4 -44.4 -3.8" fill="#d98b65" fill-rule="evenodd" stroke="none"/>
  </g>
</svg>
