<?xml version="1.0" encoding="UTF-8" standalone="no"?>
<svg xmlns:xlink="http://www.w3.org/1999/xlink" height="71.85px" width="133.65px" xmlns="http://www.w3.org/2000/svg">
  <g transform="matrix(1.0, 0.0, 0.0, 1.0, 66.85, 35.9)">
    <path d="M26.05 34.95 Q30.1 31.15 33.1 23.3 L35.5 15.95 Q51.25 14.35 65.2 8.55 L65.8 0.75 Q65.6 -6.65 64.3 -13.9 42.75 -27.9 25.65 -33.05 L25.3 -33.15 20.0 -34.55 Q22.5 -27.05 24.1 -19.1 L24.25 -18.8 24.35 -18.35 24.4 -17.95 24.95 -15.4 Q27.6 -0.7 27.35 15.15 L27.35 15.25 Q27.3 21.75 26.65 28.5 L26.05 34.95 Q16.65 22.85 5.55 15.65 L4.25 15.45 Q-10.4 13.15 -23.35 12.2 L-44.65 11.55 -49.7 0.4 -51.6 7.55 -59.8 7.05 -63.8 0.0 Q-65.85 -3.8 -65.85 -4.45 L-65.85 -7.55 -48.55 -11.8 -47.2 -15.2 Q-10.3 -31.1 17.0 -34.6 L18.8 -34.9 20.0 -34.55 M11.05 -13.15 Q-8.5 -12.15 -36.2 -6.7 L-36.2 -13.5 Q-11.6 -22.55 10.75 -26.5 L12.75 -13.2 11.05 -13.15 M34.65 -23.45 Q44.6 -21.0 59.2 -13.2 L59.5 -6.7 57.45 -7.55 Q49.85 -10.75 36.25 -12.45 L34.65 -23.45 M59.2 -1.35 L59.2 5.1 38.65 7.35 37.75 -3.9 59.2 -1.35 M12.8 -4.95 L-35.9 -0.65 -34.35 6.2 Q-8.3 5.85 9.85 8.1 L12.4 8.45 Q13.15 3.6 12.8 -4.95" fill="none" stroke="#000000" stroke-linecap="round" stroke-linejoin="round" stroke-width="2.0"/>
  </g>
</svg>
