<?xml version="1.0" encoding="UTF-8" standalone="no"?>
<svg xmlns:xlink="http://www.w3.org/1999/xlink" height="69.85px" width="131.65px" xmlns="http://www.w3.org/2000/svg">
  <g transform="matrix(1.0, 0.0, 0.0, 1.0, 65.85, 34.95)">
    <path d="M59.2 -1.4 L37.75 -3.95 38.65 7.3 59.2 5.05 59.2 -1.4 M20.0 -34.6 L25.3 -33.2 25.65 -33.1 Q42.75 -27.95 64.3 -13.95 65.6 -6.7 65.8 0.7 L65.2 8.5 Q51.25 14.3 35.5 15.9 L33.1 23.25 Q30.1 31.1 26.05 34.9 16.65 22.8 5.55 15.6 L4.25 15.4 Q-10.4 13.1 -23.35 12.15 L-44.65 11.5 -49.7 0.35 -51.6 7.5 -59.8 7.0 -63.8 -0.05 Q-65.85 -3.85 -65.85 -4.5 L-65.85 -7.6 -48.55 -11.85 -47.2 -15.25 Q-10.3 -31.15 17.0 -34.65 L18.8 -34.95 20.0 -34.6 M11.05 -13.2 L12.75 -13.25 10.75 -26.55 Q-11.6 -22.6 -36.2 -13.55 L-36.2 -6.75 Q-8.5 -12.2 11.05 -13.2 M34.65 -23.5 L36.25 -12.5 Q49.85 -10.8 57.45 -7.6 L59.5 -6.75 59.2 -13.25 Q44.6 -21.05 34.65 -23.5 M12.4 8.4 Q13.15 3.55 12.8 -5.0 L-35.9 -0.7 -34.35 6.15 Q-8.3 5.8 9.85 8.05 L12.4 8.4" fill="#25ff39" fill-rule="evenodd" stroke="none"/>
  </g>
</svg>
