<?xml version="1.0" encoding="UTF-8" standalone="no"?>
<svg xmlns:xlink="http://www.w3.org/1999/xlink" height="64.35px" width="148.3px" xmlns="http://www.w3.org/2000/svg">
  <g transform="matrix(1.0, 0.0, 0.0, 1.0, 74.15, 32.2)">
    <path d="M4.4 -11.65 L5.1 16.15 15.65 17.6 14.6 -13.85 4.4 -11.65 M30.25 -18.65 L21.0 -14.9 21.85 18.15 31.0 20.2 Q31.9 1.1 30.25 -18.65 M37.0 -32.2 L42.65 -27.5 Q52.85 -19.25 74.15 -5.2 L74.15 15.5 Q45.8 24.7 38.65 32.15 17.65 24.1 -17.05 19.8 L-17.05 25.45 -29.4 22.1 -29.3 24.3 -53.05 18.15 -53.1 18.1 -57.1 16.5 -74.15 -9.65 -68.65 -9.8 -69.7 -11.3 -67.35 -11.5 -67.2 -11.5 -36.45 -14.2 -33.0 -10.4 Q8.75 -18.6 36.95 -32.05 L37.0 -32.2 M52.2 -8.55 L51.85 -13.8 46.4 -17.0 Q47.55 1.8 46.0 18.15 L46.0 19.3 52.2 16.85 Q52.2 13.65 52.35 10.45 52.55 -4.05 52.2 -8.55 M67.3 -4.95 L61.35 -7.8 61.45 -3.9 Q61.7 4.65 61.4 9.6 61.15 14.45 61.4 14.6 L67.3 13.3 67.3 -4.95 M59.35 -9.1 L54.45 -12.25 54.45 -11.5 Q55.0 3.75 54.4 16.0 L54.6 16.0 59.5 14.9 59.55 8.6 Q59.7 2.75 59.5 -3.05 L59.35 -9.1 M-9.7 -8.75 L-9.6 14.0 -1.1 15.3 -1.5 -10.45 -9.7 -8.75" fill="#53cb6b" fill-rule="evenodd" stroke="none"/>
  </g>
</svg>
