<?xml version="1.0" encoding="UTF-8" standalone="no"?>
<svg xmlns:xlink="http://www.w3.org/1999/xlink" height="38.85px" width="77.0px" xmlns="http://www.w3.org/2000/svg">
  <g transform="matrix(1.0, 0.0, 0.0, 1.0, 38.5, 19.45)">
    <path d="M30.55 -9.9 L30.7 -3.85 Q30.9 1.95 30.75 7.8 L30.7 14.1 25.8 15.2 25.6 15.2 Q26.2 2.95 25.65 -12.3 L25.65 -13.05 30.55 -9.9 M38.5 -5.75 L38.5 12.5 32.6 13.8 Q32.35 13.65 32.6 8.8 32.9 3.85 32.65 -4.7 L32.55 -8.6 38.5 -5.75 M23.4 -9.35 Q23.75 -4.85 23.55 9.65 23.4 12.85 23.4 16.05 L17.2 18.5 17.2 17.35 Q18.75 1.0 17.6 -17.8 L23.05 -14.6 23.4 -9.35 M2.2 19.4 L-6.95 17.35 -7.8 -15.7 1.45 -19.45 Q3.1 0.3 2.2 19.4 M-24.4 -12.45 L-14.2 -14.65 -13.15 16.8 -23.7 15.35 -24.4 -12.45 M-38.5 -9.55 L-30.3 -11.25 -29.9 14.5 -38.4 13.2 -38.5 -9.55" fill="#193f21" fill-rule="evenodd" stroke="none"/>
  </g>
</svg>
