<?xml version="1.0" encoding="UTF-8" standalone="no"?>
<svg xmlns:xlink="http://www.w3.org/1999/xlink" height="115.15px" width="148.05px" xmlns="http://www.w3.org/2000/svg">
  <g transform="matrix(1.0, 0.0, 0.0, 1.0, 74.05, 57.55)">
    <path d="M73.65 -52.25 L74.0 -50.6 Q68.75 -48.15 17.45 -42.9 -34.2 -37.7 -74.05 -41.45 -74.1 -45.0 -73.35 -48.45 -56.35 -47.35 -35.8 -47.85 4.55 -48.8 58.9 -55.8 L71.9 -57.55 73.65 -52.25 M-45.5 57.5 Q-51.05 56.7 -54.6 54.7 -53.8 27.3 -62.35 6.65 L-62.4 6.5 Q-70.3 -21.95 -66.4 -34.7 L-59.5 -34.2 Q-61.9 -13.5 -53.3 14.2 -44.75 41.85 -44.85 57.6 L-45.5 57.5" fill="#64d3ee" fill-rule="evenodd" stroke="none"/>
  </g>
</svg>
