<?xml version="1.0" encoding="UTF-8" standalone="no"?>
<svg xmlns:xlink="http://www.w3.org/1999/xlink" height="73.25px" width="85.5px" xmlns="http://www.w3.org/2000/svg">
  <g transform="matrix(1.0, 0.0, 0.0, 1.0, 42.75, 36.65)">
    <path d="M42.75 -15.15 Q42.0 -6.8 28.1 0.85 26.45 10.8 16.85 16.3 17.3 17.5 17.4 19.35 17.65 24.55 13.7 24.85 10.35 23.8 10.5 18.95 L10.5 18.85 8.5 19.05 Q10.25 36.85 2.0 36.6 -4.1 36.25 -4.25 27.35 -5.35 37.05 -12.0 36.6 -18.3 36.1 -17.5 27.1 -20.45 37.25 -25.25 36.1 -31.3 33.85 -30.0 28.35 L-21.6 13.25 Q-27.55 8.25 -28.7 -0.3 -31.65 -0.9 -35.25 -2.9 L-37.7 -5.15 Q-44.95 -12.35 -41.75 -16.65 -39.75 -17.75 -37.7 -18.3 -32.1 -19.95 -26.25 -17.9 -15.95 -35.95 -1.15 -36.6 L-0.25 -36.65 Q15.65 -36.65 25.5 -18.4 41.85 -21.9 42.75 -15.15" fill="#afeafa" fill-rule="evenodd" stroke="none"/>
  </g>
</svg>
