<?xml version="1.0" encoding="UTF-8" standalone="no"?>
<svg xmlns:xlink="http://www.w3.org/1999/xlink" height="37.6px" width="48.45px" xmlns="http://www.w3.org/2000/svg">
  <g transform="matrix(1.0, 0.0, 0.0, 1.0, 84.45, 83.25)">
    <path d="M-64.6 -76.6 L-64.4 -73.8 Q-60.85 -86.4 -50.3 -82.2 -41.7 -77.65 -46.5 -65.95 -50.85 -67.85 -56.8 -68.15 -60.15 -68.35 -63.95 -68.0 L-63.9 -67.5 Q-63.8 -63.2 -66.85 -63.35 L-71.75 -63.35 Q-75.55 -63.25 -78.25 -64.25 -82.35 -65.75 -83.8 -69.8 -86.6 -79.15 -77.5 -82.9 -67.15 -84.85 -64.6 -76.6" fill="#c9f3ff" fill-rule="evenodd" stroke="none"/>
    <path d="M-40.05 -49.2 L-38.9 -49.35 -37.95 -49.25 -36.85 -48.85 Q-36.0 -48.3 -36.0 -47.5 -36.0 -46.75 -36.85 -46.25 -37.7 -45.65 -38.9 -45.65 -40.05 -45.65 -40.95 -46.25 -41.8 -46.75 -41.8 -47.5 -41.8 -48.3 -40.95 -48.85 L-40.05 -49.2 M-51.85 -49.45 L-50.95 -49.05 Q-50.1 -48.5 -50.1 -47.75 -50.1 -46.95 -50.95 -46.45 -51.8 -45.9 -53.0 -45.9 -54.15 -45.9 -55.05 -46.45 -55.9 -46.95 -55.9 -47.75 -55.9 -48.5 -55.05 -49.05 -54.15 -49.6 -53.0 -49.6 L-52.05 -49.5 -51.85 -49.45" fill="#ffa6ba" fill-rule="evenodd" stroke="none"/>
    <path d="M-40.05 -49.2 L-40.1 -51.45 M-51.85 -49.45 L-51.85 -51.45 M-47.5 -49.9 Q-45.75 -48.15 -44.0 -49.9" fill="none" stroke="#000000" stroke-linecap="round" stroke-linejoin="round" stroke-width="2.0"/>
  </g>
</svg>
