<?xml version="1.0" encoding="UTF-8" standalone="no"?>
<svg xmlns:xlink="http://www.w3.org/1999/xlink" height="66.85px" width="78.35px" xmlns="http://www.w3.org/2000/svg">
  <g transform="matrix(1.0, 0.0, 0.0, 1.0, 39.2, 33.45)">
    <path d="M24.2 -1.8 Q19.7 -3.35 13.2 -4.15 -8.5 -6.45 -19.1 -11.1 -28.75 -4.0 -27.85 4.8 -25.9 10.7 7.6 10.45 24.85 10.4 32.4 14.75 38.35 3.0 24.2 -1.8 27.5 -16.35 12.55 -21.2 3.35 -24.6 4.45 -32.45 -16.55 -24.7 -19.1 -11.1 M-27.85 4.8 Q-38.05 14.8 -38.2 23.65 -38.65 31.25 -26.75 32.4 L29.8 32.4 Q38.65 32.05 38.1 22.75 37.6 17.7 32.4 14.75" fill="none" stroke="#000000" stroke-linecap="round" stroke-linejoin="round" stroke-width="2.0"/>
  </g>
</svg>
