<?xml version="1.0" encoding="UTF-8" standalone="no"?>
<svg xmlns:xlink="http://www.w3.org/1999/xlink" height="81.8px" width="105.75px" xmlns="http://www.w3.org/2000/svg">
  <g transform="matrix(1.0, 0.0, 0.0, 1.0, 52.9, 40.9)">
    <path d="M7.05 -26.05 Q9.75 -27.6 12.6 -28.95 L13.0 -29.2 38.25 -39.45 Q46.95 -42.0 49.55 -40.1 53.95 -32.35 52.5 -30.3 37.5 -22.9 22.5 -12.25 9.45 -3.1 -1.15 5.45 -16.75 17.9 -26.8 28.9 L-27.15 29.3 -32.9 36.05 -36.5 40.9 Q-50.8 34.6 -52.9 30.3 L-51.2 27.4 Q-46.2 19.5 -41.45 13.6 L-36.25 7.55 Q-30.35 0.9 -23.6 -5.05 L-19.55 -8.5 -17.6 -10.0 -16.45 -10.9 -15.25 -11.85 -10.55 -15.25 -7.2 -17.6 -5.5 -18.7 -1.7 -21.0 Q1.35 -23.0 4.55 -24.75 L7.05 -26.05 M41.45 40.4 Q28.7 27.4 -6.6 37.0 L-8.4 37.25 -14.2 38.05 Q-11.2 31.9 -7.4 26.1 7.4 24.35 20.6 23.95 L25.4 23.75 52.75 24.85 Q51.8 33.65 41.45 40.4" fill="#189a64" fill-rule="evenodd" stroke="none"/>
  </g>
</svg>
