<?xml version="1.0" encoding="UTF-8" standalone="no"?>
<svg xmlns:xlink="http://www.w3.org/1999/xlink" height="123.8px" width="87.25px" xmlns="http://www.w3.org/2000/svg">
  <g transform="matrix(1.0, 0.0, 0.0, 1.0, 43.6, 61.9)">
    <path d="M25.75 -17.35 L25.85 -17.3 Q33.75 -10.5 39.35 9.65 L39.45 9.25 39.75 11.15 39.85 11.55 39.8 11.6 Q41.1 20.5 41.05 29.0 41.25 38.5 43.65 44.9 L43.4 45.3 Q40.5 50.25 34.6 54.75 28.45 59.4 16.25 61.4 L12.6 61.9 Q17.55 52.05 20.35 42.6 24.55 30.6 25.2 18.95 23.8 -12.8 16.8 -22.45 21.65 -20.4 25.75 -17.35 M37.4 -32.05 Q-2.5 -37.05 -18.85 0.65 L-19.0 1.1 -19.0 1.25 -19.05 1.35 -24.85 17.7 Q-29.4 32.8 -29.4 44.45 -36.7 31.6 -40.5 11.15 L-43.55 -12.8 -43.55 -12.85 -43.55 -13.2 Q-43.7 -35.35 -27.8 -51.7 -17.15 -59.65 -1.85 -61.9 L-1.75 -61.85 Q22.7 -56.05 37.3 -32.25 L37.4 -32.05" fill="#000000" fill-rule="evenodd" stroke="none"/>
  </g>
</svg>
