<?xml version="1.0" encoding="UTF-8" standalone="no"?>
<svg xmlns:xlink="http://www.w3.org/1999/xlink" height="100.05px" width="121.2px" xmlns="http://www.w3.org/2000/svg">
  <g transform="matrix(1.0, 0.0, 0.0, 1.0, 60.6, 50.05)">
    <path d="M52.75 -41.05 Q50.8 -42.9 36.8 -38.2 L16.9 -31.35 16.5 -31.1 10.65 -28.15 8.0 -26.8 Q4.6 -25.0 1.4 -22.9 -0.75 -21.85 -2.6 -20.5 L-4.4 -19.4 -7.95 -16.9 -12.9 -13.35 -14.15 -12.4 -15.4 -11.5 -17.4 -9.9 -21.7 -6.25 Q-28.8 -0.1 -35.05 6.9 L-40.55 13.3 Q-45.55 19.45 -50.8 27.8 -51.25 28.5 -49.0 32.6 L-48.35 33.55 Q-53.1 35.05 -57.9 31.8 L-60.6 29.1 Q-60.25 24.5 -55.15 17.85 -57.2 13.5 -59.35 9.7 L-59.8 8.9 -59.75 8.75 Q-50.3 -20.1 -7.45 -39.45 32.3 -54.6 48.4 -48.05 L48.6 -48.0 52.75 -41.05 M56.9 -29.3 Q58.95 -24.1 59.1 -17.85 L59.1 -17.8 Q44.7 -9.0 33.15 0.25 45.5 -3.9 60.6 -2.35 60.7 4.7 59.95 12.45 38.7 8.6 20.35 11.65 11.05 13.1 2.5 16.3 -1.3 21.75 -4.6 27.25 L24.95 25.45 30.0 25.35 58.8 27.05 58.45 29.15 58.45 29.3 58.4 29.4 58.3 29.8 58.3 29.95 48.05 42.65 46.95 43.4 46.9 43.4 Q33.45 29.3 -3.75 38.9 L-5.7 39.15 -11.8 39.85 -12.0 40.4 -13.15 42.9 -14.85 48.95 -14.85 49.1 -14.85 50.0 Q-24.55 49.15 -36.2 44.2 -33.6 40.05 -31.5 37.4 -28.75 33.9 -25.45 30.3 L-25.1 29.9 Q-14.45 18.3 2.0 5.3 13.15 -3.65 26.9 -13.1 39.8 -24.25 56.9 -29.3" fill="#189a64" fill-rule="evenodd" stroke="none"/>
  </g>
</svg>
