<?xml version="1.0" encoding="UTF-8" standalone="no"?>
<svg xmlns:xlink="http://www.w3.org/1999/xlink" height="85.7px" width="78.9px" xmlns="http://www.w3.org/2000/svg">
  <g transform="matrix(1.0, 0.0, 0.0, 1.0, 39.45, 42.85)">
    <path d="M-2.7 -34.6 L-2.05 -34.35 -1.6 -34.8 Q-1.45 -35.25 -1.6 -36.05 L-2.2 -37.5 Q-2.55 -37.9 -2.85 -37.85 -3.2 -37.8 -3.35 -37.2 L-3.3 -35.75 Q-3.1 -34.85 -2.7 -34.6 M-11.85 -42.85 Q-6.3 -42.1 -2.65 -39.85 -0.45 -38.65 0.9 -37.55 L1.2 -36.8 2.05 -35.9 2.65 -35.8 3.0 -36.2 7.8 -33.0 Q7.85 -31.75 10.9 -27.25 L5.1 -28.2 2.2 -30.35 0.7 -31.05 Q-8.6 -32.3 -13.2 -27.0 -14.6 -25.35 -15.55 -23.0 L-25.55 -23.15 -25.6 -24.35 -25.75 -25.25 Q-26.75 -30.05 -33.7 -33.05 -35.7 -33.85 -39.45 -33.65 L-33.65 -36.55 -33.65 -36.3 -33.1 -35.8 Q-32.75 -35.8 -32.6 -36.25 -32.3 -36.6 -32.3 -37.15 -30.85 -38.45 -29.2 -38.9 -25.2 -41.9 -20.2 -42.2 L-19.2 -41.45 Q-17.95 -40.9 -16.15 -40.8 L-13.05 -41.15 Q-11.75 -41.6 -11.7 -42.3 L-11.85 -42.85 M16.05 6.25 Q17.4 3.45 19.9 1.75 21.6 4.9 20.55 8.2 23.55 3.9 27.75 3.75 27.3 5.65 24.45 8.7 28.4 5.35 30.4 5.9 29.6 8.85 26.6 11.55 28.75 9.8 31.95 9.4 L30.9 12.2 Q33.45 10.2 36.0 10.65 35.9 12.35 34.4 13.15 35.7 12.85 37.2 13.65 L34.3 16.15 Q36.55 14.65 39.45 15.0 38.3 17.65 34.6 19.35 L38.85 18.2 38.95 20.25 Q35.25 22.6 32.5 23.2 25.55 27.65 25.45 34.05 25.4 40.45 26.3 42.85 18.4 35.05 16.75 24.05 14.85 14.95 16.05 6.25" fill="#ffffff" fill-rule="evenodd" stroke="none"/>
  </g>
</svg>
