<?xml version="1.0" encoding="UTF-8" standalone="no"?>
<svg xmlns:xlink="http://www.w3.org/1999/xlink" height="161.15px" width="146.65px" xmlns="http://www.w3.org/2000/svg">
  <g transform="matrix(1.0, 0.0, 0.0, 1.0, 73.35, 80.55)">
    <path d="M-11.0 -46.9 Q-40.45 -13.25 -41.7 -0.15 -41.15 12.55 -36.4 26.15 L-36.0 27.25 Q-33.45 33.75 -29.85 39.9 -6.85 46.65 9.45 46.8 L26.65 47.35 Q44.6 43.85 58.5 33.45 62.75 41.95 54.4 50.4 57.8 58.65 46.45 66.85 31.8 75.3 21.3 77.15 L22.6 76.25 Q7.4 84.95 -9.85 76.2 -25.95 69.55 -37.6 59.15 -42.85 57.3 -47.35 47.6 -57.65 47.45 -58.9 27.3 -67.1 20.9 -70.2 12.5 -73.3 4.05 -73.35 -7.3 -73.45 -18.65 -69.5 -29.65 -65.55 -40.65 -57.9 -50.6 -50.25 -60.55 -35.95 -67.05 -35.8 -66.7 -34.0 -68.75 -24.15 -76.9 -10.85 -79.0 8.7 -82.05 16.9 -79.0 27.55 -76.4 33.8 -72.3 64.4 -57.4 72.15 -30.2 L72.55 -28.4 Q74.6 -17.95 71.1 -12.25 74.5 3.85 61.65 18.2 60.05 -3.3 61.8 -25.45 52.55 -37.45 40.55 -49.5 19.75 -58.15 -11.0 -46.9 L-10.35 -48.0 -11.15 -46.9 -11.0 -46.9" fill="#9e0052" fill-rule="evenodd" stroke="none"/>
  </g>
</svg>
