<?xml version="1.0" encoding="UTF-8" standalone="no"?>
<svg xmlns:xlink="http://www.w3.org/1999/xlink" height="112.35px" width="147.25px" xmlns="http://www.w3.org/2000/svg">
  <g transform="matrix(1.0, 0.0, 0.0, 1.0, 73.65, 56.15)">
    <path d="M11.1 -38.3 L11.1 -38.25 27.3 -40.2 32.45 -40.2 Q20.95 -53.15 -0.75 -55.15 L-19.95 -51.8 Q-3.2 -49.0 8.45 -37.7 L11.1 -38.3 M27.3 -40.2 Q36.4 -17.3 33.65 5.65 L62.45 5.7 Q71.75 6.85 72.15 16.5 72.8 31.8 72.55 41.3 L72.35 44.8 Q72.05 54.75 61.6 55.05 L55.85 55.2 2.1 55.2 Q-34.05 54.85 -35.75 53.45 -44.95 48.7 -54.55 40.1 L-58.2 36.9 Q-60.6 34.85 -63.75 33.8 L-67.25 33.6 Q-68.95 33.6 -72.65 38.5 L-72.65 27.05 -67.25 25.65 -63.4 24.35 -57.95 22.2 -57.95 22.25 -57.9 22.25 Q-56.75 17.25 -51.4 14.45 L-32.7 7.4 Q-29.8 5.85 -25.55 5.5 L19.5 5.6 Q19.0 -23.55 11.1 -38.25 M64.7 48.05 L-30.85 48.05 -30.85 15.35 64.7 15.35 64.7 48.05 M19.5 5.6 L33.65 5.65 M-32.7 7.4 Q-35.6 9.0 -37.15 11.85 L-38.4 15.25 Q-43.05 29.9 -38.1 49.55 L-38.05 49.75 Q-37.4 51.95 -35.9 53.3 L-35.75 53.45 M-58.2 36.9 L-49.35 39.6 -49.35 39.55 -49.35 19.1 -57.9 22.25 M-49.35 39.55 L-45.15 39.55 Q-44.55 29.1 -45.3 19.1 L-49.35 19.1 M-67.25 25.65 L-67.25 33.6 M-63.75 33.8 L-63.4 24.35" fill="none" stroke="#000000" stroke-linecap="round" stroke-linejoin="round" stroke-width="2.0"/>
  </g>
</svg>
