<?xml version="1.0" encoding="UTF-8" standalone="no"?>
<svg xmlns:xlink="http://www.w3.org/1999/xlink" height="121.85px" width="107.0px" xmlns="http://www.w3.org/2000/svg">
  <g transform="matrix(1.0, 0.0, 0.0, 1.0, 53.5, 60.9)">
    <path d="M-43.55 -17.2 Q-40.75 -24.95 -35.55 -32.85 -16.75 -60.65 20.95 -59.9 38.65 -59.55 49.1 -53.4 53.15 -51.7 52.35 -48.75 19.9 -54.05 3.15 -44.3 -19.9 -27.75 -26.5 -10.3 L-25.8 -5.85 -28.05 -5.6 -28.45 -5.7 -29.75 5.35 -29.75 5.7 Q-22.4 9.1 -16.8 19.8 -11.2 30.45 -19.35 52.45 -2.85 55.25 13.65 53.55 L14.15 53.25 Q16.1 52.3 18.85 52.3 21.6 52.3 23.55 53.25 25.5 54.25 25.5 55.65 25.5 56.3 25.1 56.85 L23.55 58.0 Q21.6 59.0 18.85 59.0 16.4 59.0 14.6 58.2 -11.0 62.2 -34.8 57.0 -38.75 57.55 -45.3 50.1 -57.55 31.15 -48.9 12.9 -47.5 10.8 -46.0 9.55 L-45.4 8.7 Q-45.3 -2.4 -43.2 -9.3 L-45.7 -9.9 Q-44.9 -13.55 -43.55 -17.2 -39.1 -22.15 -31.05 -26.5 -29.3 -21.75 -28.0 -17.0 L-26.5 -10.3 M-33.9 -6.75 L-39.1 -8.0 -40.85 4.85 Q-38.0 3.6 -35.4 4.95 L-33.9 -6.75 -28.45 -5.7 M-39.1 -8.0 L-43.2 -9.3 M-29.75 5.7 L-30.0 6.4 -30.05 6.6 -29.9 8.0 Q-28.95 11.75 -23.2 19.5 -17.3 25.15 -20.5 30.4 -23.7 35.6 -20.75 40.7 -17.25 45.3 -22.65 51.8 L-19.35 52.45 M-30.05 6.6 L-30.05 6.55 -30.0 6.2 -29.75 5.7 M-30.0 6.2 L-30.0 6.4 M-35.4 4.95 L-35.4 7.35 Q-32.25 7.3 -29.9 8.0 M-42.0 15.1 Q-38.9 14.6 -35.9 19.1 -32.8 23.6 -31.6 30.45 -30.3 37.25 -31.6 42.45 -32.8 47.65 -35.85 48.2 -38.9 48.65 -42.05 44.1 -45.0 39.6 -46.25 32.8 -47.5 25.95 -46.25 20.8 -45.0 15.6 -42.0 15.1 M-46.0 9.55 Q-41.15 5.45 -35.15 9.75 -23.95 19.65 -24.7 35.8 -25.1 44.65 -28.9 54.05 -25.95 51.35 -24.15 51.5 L-22.65 51.8 M-45.4 8.7 Q-43.35 5.9 -40.85 4.85 M-34.8 57.0 Q-29.5 56.45 -28.9 54.05 M14.6 58.2 L14.15 58.0 13.8 57.8 Q12.2 56.9 12.2 55.65 12.2 54.45 13.65 53.55" fill="none" stroke="#000000" stroke-linecap="round" stroke-linejoin="round" stroke-width="2.0"/>
    <path d="M-28.0 -17.0 Q-16.55 -37.1 1.85 -48.25 16.85 -57.0 49.1 -53.4" fill="none" stroke="#000000" stroke-linecap="round" stroke-linejoin="round" stroke-opacity="0.49803922" stroke-width="1.4000000000000001"/>
  </g>
</svg>
