<?xml version="1.0" encoding="UTF-8" standalone="no"?>
<svg xmlns:xlink="http://www.w3.org/1999/xlink" height="119.85px" width="105.0px" xmlns="http://www.w3.org/2000/svg">
  <g transform="matrix(1.0, 0.0, 0.0, 1.0, 52.5, 59.9)">
    <path d="M-29.75 5.7 Q-22.4 9.1 -16.8 19.8 -11.2 30.45 -19.35 52.45 -2.85 55.25 13.65 53.55 L14.15 53.25 Q16.1 52.3 18.85 52.3 21.6 52.3 23.55 53.25 25.5 54.25 25.5 55.65 25.5 56.3 25.1 56.85 L23.55 58.0 Q21.6 59.0 18.85 59.0 16.4 59.0 14.6 58.2 -11.0 62.2 -34.8 57.0 -38.75 57.55 -45.3 50.1 -57.55 31.15 -48.9 12.9 -47.5 10.8 -46.0 9.55 L-45.4 8.7 Q-45.3 -2.4 -43.2 -9.3 L-45.7 -9.9 Q-44.9 -13.55 -43.55 -17.2 -40.75 -24.95 -35.55 -32.85 -16.75 -60.65 20.95 -59.9 38.65 -59.55 49.1 -53.4 53.15 -51.7 52.35 -48.75 19.9 -54.05 3.15 -44.3 -19.9 -27.75 -26.5 -10.3 L-25.8 -5.85 -28.05 -5.6 -28.45 -5.7 -29.75 5.35 -29.75 5.7 -30.0 6.2 -30.05 6.55 -30.1 6.65 -30.05 6.6 -30.0 6.4 -29.75 5.7" fill="#5daaff" fill-rule="evenodd" stroke="none"/>
  </g>
</svg>
