<?xml version="1.0" encoding="UTF-8" standalone="no"?>
<svg xmlns:xlink="http://www.w3.org/1999/xlink" height="180.6px" width="155.15px" xmlns="http://www.w3.org/2000/svg">
  <g transform="matrix(1.0, 0.0, 0.0, 1.0, 77.6, 90.3)">
    <path d="M69.45 -88.95 L69.45 -89.3 59.65 -62.4 63.55 -61.35 64.15 -61.2 65.95 -60.7 63.95 -54.15 Q64.95 -54.65 65.95 -55.2 L76.55 10.75 Q63.45 -9.3 43.15 -13.3 17.95 -17.6 -0.7 -6.8 L-4.4 3.5 -15.1 6.9 -15.65 7.05 -15.65 7.1 Q-21.8 14.95 -23.25 22.85 L-25.5 22.3 Q-26.5 24.2 -26.25 26.4 L-24.55 26.6 Q-26.05 34.45 -25.45 42.2 L-8.7 63.75 -30.8 89.2 -39.35 89.3 -48.7 73.05 -72.4 61.5 -49.35 53.25 -38.85 40.25 Q-39.15 33.15 -38.1 26.0 L-36.9 26.0 Q-36.85 23.7 -36.2 21.45 L-36.95 21.5 Q-35.6 15.4 -32.35 9.95 L-35.25 2.6 -35.65 1.5 -36.15 0.3 -37.6 -3.4 -51.25 -37.9 Q-52.45 -40.9 -51.55 -43.55 L-52.65 -44.8 -58.8 -51.6 -60.65 -50.2 -76.6 -74.2 -53.05 -56.05 -56.05 -53.75 -50.15 -47.5 -48.95 -46.15 Q-46.8 -46.75 -43.7 -44.85 L-5.0 -18.85 Q13.35 -30.05 41.35 -23.6 L41.4 -23.6 42.9 -23.1 57.2 -50.6 60.55 -52.35 63.55 -61.35 M69.45 -88.95 L68.7 -60.0 65.95 -60.7 M60.55 -52.35 L63.95 -54.15 M-0.7 -6.8 L0.4 -9.9 1.8 -13.8 -5.0 -18.85 M76.55 10.75 Q73.6 -3.3 63.25 -12.4 55.75 -19.0 42.9 -23.1 M-56.9 -53.1 L-56.05 -53.75 M-58.8 -51.6 L-56.9 -53.1 M-50.8 -45.0 L-50.85 -45.0 -51.55 -43.55 M-48.95 -46.15 L-50.8 -45.0 M-50.15 -47.5 Q-52.05 -46.4 -52.65 -44.8 M-16.4 7.3 L-18.65 8.0 -19.65 8.3 -20.2 8.45 -31.55 12.0 M-26.05 22.2 L-25.5 22.3 M-15.65 7.05 L-16.4 7.3 M-33.1 21.35 L-36.2 21.45 M-26.05 22.2 L-28.55 21.75 -33.1 21.35 M-29.2 26.15 L-27.4 26.3 M-33.95 25.95 L-29.2 26.15 M-36.9 26.0 L-33.95 25.95 M-38.85 40.25 L-37.15 38.15 -37.1 38.2 Q-35.6 35.05 -33.75 36.9 L-28.6 42.2 M-49.35 53.25 L-36.8 48.7 -28.8 63.75 -39.55 77.5 Q-44.1 75.3 -48.7 73.05" fill="none" stroke="#000000" stroke-linecap="round" stroke-linejoin="round" stroke-width="2.0"/>
    <path d="M64.15 -61.2 L69.45 -88.95 M-15.1 6.9 L-15.65 7.1 -16.4 7.3 M-35.25 2.6 L-35.7 1.5 -36.15 0.3 M64.5 -31.9 L65.95 -55.2 M63.25 -12.4 L64.5 -31.9 M0.4 -9.9 Q19.2 -19.85 43.25 -15.45 67.25 -11.05 76.55 10.75 M-56.9 -53.1 L-76.6 -74.2 M-50.8 -45.0 L-33.3 -26.7 -29.95 -23.2 -4.4 3.5 M-19.65 8.3 Q-24.65 15.05 -26.05 22.2 M-20.2 8.45 L-18.65 8.0 M-28.55 21.75 Q-29.45 24.15 -29.2 26.15 M-27.4 26.3 L-26.25 26.4 M-33.1 21.35 Q-34.0 23.85 -33.95 25.95 M-28.6 42.2 Q-28.85 34.25 -27.4 26.3 M-25.45 42.2 L-28.6 42.2 M-37.1 38.2 L-18.25 63.75 -18.2 63.75 -8.7 63.75 M-39.35 89.3 L-18.2 63.75 M-28.8 63.75 L-72.4 61.5" fill="none" stroke="#000000" stroke-linecap="round" stroke-linejoin="round" stroke-opacity="0.49803922" stroke-width="1.4000000000000001"/>
    <path d="M64.5 -31.9 L68.7 -34.9 M52.2 -39.35 L64.5 -31.9 M67.9 -38.8 L65.15 -36.95 M54.3 -42.85 L64.05 -36.4 M-33.3 -26.7 L-31.5 -35.85 M-33.3 -26.7 L-33.3 -26.65 -45.65 -25.05 M-29.95 -23.2 L-27.9 -33.55 M-44.1 -20.9 L-30.5 -23.1" fill="none" stroke="#b86cfc" stroke-linecap="round" stroke-linejoin="round" stroke-width="2.5"/>
    <path d="M-35.65 1.5 Q-29.7 5.9 -20.6 7.85 -17.85 0.3 -17.05 -8.65 -26.55 -13.45 -36.2 -15.55 -37.65 -9.65 -37.6 -3.4 M-35.7 1.5 L-35.65 1.5 M-31.9 -6.2 Q-30.75 -2.45 -28.25 1.0" fill="none" stroke="#b86cfc" stroke-linecap="round" stroke-linejoin="round" stroke-width="2.0"/>
  </g>
</svg>
