<?xml version="1.0" encoding="UTF-8" standalone="no"?>
<svg xmlns:xlink="http://www.w3.org/1999/xlink" height="20.95px" width="20.55px" xmlns="http://www.w3.org/2000/svg">
  <g transform="matrix(1.0, 0.0, 0.0, 1.0, -0.75, 11.15)">
    <path d="M21.3 -0.5 Q21.3 3.75 18.35 6.75 15.35 9.8 11.1 9.8 6.8 9.8 3.8 6.75 2.15 5.1 1.3 2.05 7.0 4.85 12.9 3.75 18.6 2.8 21.3 -1.4 L21.3 -0.5" fill="#000000" fill-rule="evenodd" stroke="none"/>
    <path d="M19.85 -3.9 Q12.45 3.85 1.75 -0.5 L1.75 -0.85 Q1.75 -4.7 4.45 -7.45 7.2 -10.15 11.1 -10.15 14.95 -10.15 17.65 -7.45 19.2 -5.85 19.85 -3.9 Z" fill="none" stroke="#000000" stroke-linecap="round" stroke-linejoin="round" stroke-width="2.0"/>
  </g>
</svg>
