<?xml version="1.0" encoding="UTF-8" standalone="no"?>
<svg xmlns:xlink="http://www.w3.org/1999/xlink" height="67.25px" width="106.3px" xmlns="http://www.w3.org/2000/svg">
  <g transform="matrix(1.0, 0.0, 0.0, 1.0, 53.15, 33.6)">
    <path d="M36.75 -3.85 L36.65 -14.7 42.45 -30.25 43.6 -25.6 44.9 4.4 36.75 -3.85" fill="#709aef" fill-rule="evenodd" stroke="none"/>
    <path d="M-10.95 -11.4 L3.1 -33.6 18.3 -11.3 5.5 17.45 -10.95 -11.4 M3.95 -22.75 L-3.75 -10.55 5.3 5.3 12.3 -10.5 3.95 -22.75 M44.9 4.4 L43.6 -25.6 53.05 12.55 44.9 4.4 M-53.15 11.2 L-40.95 -31.85 -43.05 3.05 -53.15 11.2" fill="#5a9aec" fill-rule="evenodd" stroke="none"/>
    <path d="M36.75 -3.85 L44.9 4.4 53.05 12.55 53.15 33.65 36.75 -3.85" fill="#61a2f8" fill-rule="evenodd" stroke="none"/>
    <path d="M-40.95 -31.85 L-33.1 -16.15 -32.9 -5.1 -52.65 32.45 -53.15 11.2 -43.05 3.05 -40.95 -31.85" fill="#689aec" fill-rule="evenodd" stroke="none"/>
  </g>
</svg>
