<?xml version="1.0" encoding="UTF-8" standalone="no"?>
<svg xmlns:xlink="http://www.w3.org/1999/xlink" height="64.15px" width="56.65px" xmlns="http://www.w3.org/2000/svg">
  <g transform="matrix(1.0, 0.0, 0.0, 1.0, 28.35, 32.1)">
    <path d="M-19.8 -12.45 Q-21.75 -17.2 -20.05 -22.6 -10.3 -26.45 -0.5 -24.6 L-2.25 -32.0 Q6.75 -30.4 14.5 -22.9 15.75 -27.35 17.95 -32.1 33.45 -11.7 25.75 10.8 22.9 21.45 16.0 28.1 14.05 21.5 12.0 19.2 L8.7 15.7 Q7.45 14.5 6.75 16.85 L6.35 19.05 4.25 18.2 Q0.55 16.5 -3.1 16.65 L-1.35 20.25 Q-4.4 20.35 -7.2 21.45 L-7.4 21.4 -7.7 21.65 Q-9.5 22.4 -11.15 23.55 L-11.15 24.5 Q-11.15 26.9 -9.85 28.75 -12.1 29.65 -13.85 31.5 L-13.55 32.05 Q-15.5 31.1 -18.7 30.15 L-14.4 24.5 Q-22.05 20.3 -26.35 12.15 L-23.75 8.2 -20.65 4.6 Q-25.85 -0.2 -28.35 -9.05 -24.35 -11.7 -19.8 -12.45" fill="#fd6ac0" fill-rule="evenodd" stroke="none"/>
  </g>
</svg>
