<?xml version="1.0" encoding="UTF-8" standalone="no"?>
<svg xmlns:xlink="http://www.w3.org/1999/xlink" height="104.9px" width="106.15px" xmlns="http://www.w3.org/2000/svg">
  <g transform="matrix(1.0, 0.0, 0.0, 1.0, 53.1, 52.6)">
    <path d="M-21.95 29.85 Q-34.9 35.8 -49.35 32.35 L-49.3 32.35 Q-42.75 30.8 -37.8 17.3 L-36.6 14.9 Q-45.25 17.25 -52.1 13.15 -43.15 11.7 -37.9 2.5 -31.45 -9.65 -23.95 -6.5 -22.35 -8.15 -20.25 -9.0 L-24.25 -12.55 -18.65 -12.55 Q-20.15 -15.35 -21.65 -18.85 L-14.4 -18.65 Q-15.15 -21.2 -13.75 -25.2 -10.9 -24.0 -8.4 -21.0 -7.1 -24.25 -4.75 -28.2 L-2.15 -24.75 Q-3.55 -31.65 3.15 -37.75 13.65 -47.25 7.25 -50.3 17.85 -47.7 19.6 -36.15 L24.25 -38.1 Q28.45 -39.25 31.15 -40.15 46.9 -45.55 51.2 -51.6 54.3 -36.85 46.0 -22.1 37.1 -8.35 13.85 -5.75 L15.75 -3.85 Q11.45 -0.65 8.2 0.4 10.0 4.25 9.1 9.0 6.25 9.0 3.65 7.1 L1.25 11.75 -0.55 6.95 -1.8 7.9 Q-4.1 9.55 -6.75 14.15 L-7.1 13.65 M-8.15 11.45 L-8.6 9.45" fill="none" stroke="#000000" stroke-linecap="round" stroke-linejoin="round" stroke-width="2.0"/>
    <path d="M-21.95 29.85 L-21.7 29.25 -21.4 28.5 -21.25 28.2 Q-17.4 18.9 -11.65 10.65 L-13.5 10.65 -11.55 6.35 Q-15.2 7.45 -20.25 8.05 L-18.55 2.0 Q-31.2 4.15 -36.6 14.9 M12.45 -39.35 Q13.45 -34.5 11.6 -31.05 14.8 -33.85 19.6 -36.15 M0.75 -18.05 Q3.15 -19.5 5.5 -20.15 6.0 -21.65 5.95 -23.05 5.9 -24.45 5.35 -25.75 2.45 -24.15 -0.1 -21.2 0.65 -19.45 0.75 -18.05 1.4 -12.85 -1.95 -7.05 L-1.65 -7.1 -1.25 -7.05 -0.95 -7.0 Q0.7 -9.75 2.95 -10.45 4.65 -12.4 4.85 -14.35 M-0.95 -7.0 L0.0 -6.4 Q0.7 -5.7 0.7 -4.75 3.25 -3.3 5.85 -3.35 M2.95 -10.45 Q6.2 -11.5 10.75 -8.3 L14.5 -10.6 13.25 -11.05 10.0 -12.2 8.85 -10.6 M0.7 -4.75 Q0.7 -3.8 0.0 -3.1 L-0.25 -2.85 Q1.1 0.0 3.5 0.7 L8.2 0.4 M10.75 -8.3 L13.85 -5.75 M5.5 -20.15 L12.85 -20.35 Q13.0 -16.7 10.0 -12.2 M5.95 -23.05 Q7.5 -27.45 11.6 -31.05 M13.25 -11.05 Q22.9 -29.8 40.75 -36.85 M-23.95 -6.5 L-24.4 -6.1 Q-23.4 -3.1 -17.65 -0.15 -15.9 -4.1 -13.6 -5.2 L-13.95 -5.6 -19.15 -5.0 M-14.4 -18.65 Q-12.0 -18.1 -9.6 -16.95 L-8.4 -21.0 M-0.1 -21.2 L-2.15 -24.75 M-18.65 -12.55 L-17.1 -9.85 Q-15.55 -7.35 -13.95 -5.6 M-17.1 -9.85 L-20.25 -9.0 M-4.15 -16.75 Q-5.8 -14.5 -5.0 -10.75 L-4.1 -10.2 Q-3.35 -9.45 -3.35 -8.45 -3.35 -7.45 -4.1 -6.75 -4.8 -6.0 -5.8 -6.0 -6.8 -6.0 -7.55 -6.75 L-8.0 -7.35 -8.25 -8.45 -8.1 -9.35 Q-10.65 -12.0 -9.6 -16.95 M-1.85 2.5 Q-1.05 0.55 -1.85 -2.4 -2.65 -2.45 -3.3 -3.1 -4.0 -3.8 -4.0 -4.75 -4.0 -5.7 -3.3 -6.4 -2.7 -7.0 -1.95 -7.05 M-8.1 -9.35 L-7.55 -10.2 Q-6.8 -10.9 -5.8 -10.9 L-5.1 -10.8 -5.0 -10.75 M-13.6 -5.2 L-9.9 -5.35 -8.05 -5.35 -7.6 -5.5 Q-6.7 -5.65 -5.75 -5.15 -4.85 -4.6 -4.55 -3.7 -4.2 -2.85 -4.65 -2.1 -4.95 -1.55 -5.6 -1.3 -3.95 2.75 -8.65 5.2 -8.8 7.75 -8.6 9.4 L-8.6 9.45 M-9.9 -5.35 Q-9.1 -4.4 -9.0 -4.6 -8.65 -5.15 -8.05 -5.35 M-5.6 -1.3 L-6.0 -1.2 Q-6.9 -1.05 -7.8 -1.6 L-8.6 -2.2 Q-10.05 -0.3 -11.65 0.4 M-8.6 -2.2 L-9.05 -3.0 -9.9 -5.35 M-0.25 -2.85 Q-0.9 -2.4 -1.65 -2.4 L-1.85 -2.4 M-9.0 -6.25 Q-11.8 -6.8 -13.75 -10.6 M-7.1 13.65 L-8.15 11.45 M-11.65 10.65 L-8.6 9.4 M-11.55 6.35 L-8.65 5.2 M-23.65 34.5 Q-22.25 33.85 -22.55 36.85 M-29.2 49.1 Q-29.0 45.55 -25.9 41.05 M-15.35 37.15 Q-13.9 35.2 -13.0 37.4 M-17.55 8.85 Q-26.4 12.0 -31.35 19.1 M-15.95 51.55 Q-17.05 47.9 -14.9 44.3 M3.5 0.7 Q2.95 3.05 1.35 5.05 L3.65 7.1 M-22.7 -1.4 Q-27.25 -1.65 -31.3 3.45 M-17.65 -0.15 L-18.55 2.0 M1.35 5.05 L-0.55 6.95" fill="none" stroke="#000000" stroke-linecap="round" stroke-linejoin="round" stroke-opacity="0.49803922" stroke-width="1.2000000000000002"/>
    <path d="M-7.1 13.65 Q-15.0 27.25 -13.0 37.4 -11.85 40.05 -11.75 50.3 -13.85 51.75 -15.95 51.55 -18.05 51.25 -20.15 49.3 -17.25 39.75 -15.35 37.15 -17.9 25.65 -8.15 11.45 M-8.6 9.45 Q-17.6 23.1 -22.55 36.85 -22.9 40.45 -25.65 49.2 L-29.2 49.1 Q-31.1 48.4 -32.75 46.3 -25.9 35.5 -23.65 34.5 L-21.95 29.85 Z" fill="none" stroke="#000000" stroke-linecap="round" stroke-linejoin="round" stroke-width="1.5"/>
  </g>
</svg>
