<?xml version="1.0" encoding="UTF-8" standalone="no"?>
<svg xmlns:xlink="http://www.w3.org/1999/xlink" height="103.15px" width="104.15px" xmlns="http://www.w3.org/2000/svg">
  <g transform="matrix(1.0, 0.0, 0.0, 1.0, 52.1, 51.6)">
    <path d="M-0.1 -21.2 L-2.15 -24.75 Q-3.55 -31.65 3.15 -37.75 13.65 -47.25 7.25 -50.3 17.85 -47.7 19.6 -36.15 L24.25 -38.1 Q28.45 -39.25 31.15 -40.15 46.9 -45.55 51.2 -51.6 54.3 -36.85 46.0 -22.1 37.1 -8.35 13.85 -5.75 L10.75 -8.3 14.5 -10.6 10.0 -12.2 Q13.0 -16.7 12.85 -20.35 L5.5 -20.15 Q6.0 -21.65 5.95 -23.05 5.9 -24.45 5.35 -25.75 2.45 -24.15 -0.1 -21.2 M-21.95 29.85 Q-34.9 35.8 -49.35 32.35 L-49.3 32.35 Q-42.75 30.8 -37.8 17.3 L-36.6 14.9 Q-45.25 17.25 -52.1 13.15 -43.15 11.7 -37.9 2.5 -31.45 -9.65 -23.95 -6.5 L-24.4 -6.1 Q-23.4 -3.1 -17.65 -0.15 L-18.55 2.0 -20.25 8.05 Q-15.2 7.45 -11.55 6.35 L-13.5 10.65 -11.65 10.65 Q-17.4 18.9 -21.25 28.2 L-21.4 28.5 -21.7 29.25 -21.95 29.85" fill="#ff6666" fill-rule="evenodd" stroke="none"/>
    <path d="M-0.95 -7.0 L0.0 -6.4 Q0.7 -5.7 0.7 -4.75 0.7 -3.8 0.0 -3.1 L-0.25 -2.85 Q-0.9 -2.4 -1.65 -2.4 L-1.85 -2.4 Q-2.65 -2.45 -3.3 -3.1 -4.0 -3.8 -4.0 -4.75 -4.0 -5.7 -3.3 -6.4 -2.7 -7.0 -1.95 -7.05 L-1.65 -7.1 -1.25 -7.05 -0.95 -7.0 M-11.65 10.65 L-8.6 9.4 -8.6 9.45 Q-17.6 23.1 -22.55 36.85 -22.9 40.45 -25.65 49.2 L-29.2 49.1 Q-31.1 48.4 -32.75 46.3 -25.9 35.5 -23.65 34.5 L-21.95 29.85 -21.7 29.25 -21.4 28.5 -21.25 28.2 Q-17.4 18.9 -11.65 10.65 M-5.0 -10.75 L-4.1 -10.2 Q-3.35 -9.45 -3.35 -8.45 -3.35 -7.45 -4.1 -6.75 -4.8 -6.0 -5.8 -6.0 -6.8 -6.0 -7.55 -6.75 L-8.0 -7.35 -8.25 -8.45 -8.1 -9.35 -7.55 -10.2 Q-6.8 -10.9 -5.8 -10.9 L-5.1 -10.8 -5.0 -10.75 M-9.9 -5.35 Q-9.1 -4.4 -9.0 -4.6 -8.65 -5.15 -8.05 -5.35 L-7.6 -5.5 Q-6.7 -5.65 -5.75 -5.15 -4.85 -4.6 -4.55 -3.7 -4.2 -2.85 -4.65 -2.1 -4.95 -1.55 -5.6 -1.3 L-6.0 -1.2 Q-6.9 -1.05 -7.8 -1.6 L-8.6 -2.2 -9.05 -3.0 -9.9 -5.35 M-7.1 13.65 Q-15.0 27.25 -13.0 37.4 -11.85 40.05 -11.75 50.3 -13.85 51.75 -15.95 51.55 -18.05 51.25 -20.15 49.3 -17.25 39.75 -15.35 37.15 -17.9 25.65 -8.15 11.45 L-7.1 13.65" fill="#cc6666" fill-rule="evenodd" stroke="none"/>
  </g>
</svg>
