<?xml version="1.0" encoding="UTF-8" standalone="no"?>
<svg xmlns:xlink="http://www.w3.org/1999/xlink" height="22.95px" width="119.05px" xmlns="http://www.w3.org/2000/svg">
  <g transform="matrix(1.0, 0.0, 0.0, 1.0, 62.95, 13.45)">
    <path d="M9.35 -12.7 Q10.15 -11.95 10.15 -10.85 10.15 -9.75 9.4 -8.85 8.6 -8.05 7.5 -8.1 6.45 -8.1 5.7 -8.9 4.9 -9.75 4.9 -10.85 4.9 -11.95 5.65 -12.7 6.45 -13.45 7.5 -13.45 8.6 -13.45 9.35 -12.7 M39.9 -3.6 Q40.65 -2.85 40.6 -1.7 40.55 -0.55 39.75 0.15 38.85 0.8 37.75 0.85 36.65 0.85 35.95 0.05 35.2 -0.75 35.1 -1.8 34.95 -2.85 35.95 -3.6 36.95 -4.45 38.05 -4.45 39.1 -4.45 39.9 -3.6 M23.4 -1.25 Q24.15 -0.55 24.15 0.65 24.15 1.8 23.5 2.55 22.85 3.25 21.55 3.4 20.25 3.5 19.55 2.75 18.85 1.95 18.7 0.7 18.45 -0.55 19.4 -1.25 20.25 -2.0 21.45 -2.0 22.6 -2.0 23.4 -1.25 M56.1 -0.65 Q56.1 0.5 55.35 1.3 54.6 2.1 53.45 2.25 52.25 2.45 51.45 1.4 50.65 0.35 50.65 -0.55 50.65 -1.4 51.35 -2.2 52.0 -3.1 53.1 -3.15 54.2 -3.2 55.15 -2.5 56.1 -1.8 56.1 -0.65 M-62.55 -2.55 Q-62.1 -3.8 -60.7 -3.95 -59.3 -4.15 -58.35 -2.85 -57.4 -1.55 -57.75 -0.4 -58.1 0.7 -58.9 1.15 L-60.5 1.6 Q-61.3 1.6 -62.0 0.85 -62.75 0.1 -62.9 -0.65 -63.05 -1.4 -62.55 -2.55 M-43.65 -1.25 Q-44.8 -1.2 -45.55 -2.05 -46.35 -2.85 -46.35 -3.9 -46.35 -4.95 -45.5 -5.65 -44.7 -6.45 -43.55 -6.4 -42.4 -6.35 -41.7 -5.65 -41.0 -4.95 -40.95 -4.0 -40.9 -3.1 -41.7 -2.15 -42.55 -1.25 -43.65 -1.25 M-6.7 -0.25 Q-6.85 0.85 -7.75 1.5 -8.65 2.1 -9.65 2.1 -10.6 2.1 -11.3 1.4 -12.05 0.7 -12.1 -0.35 -12.15 -1.35 -11.25 -2.25 -10.4 -3.2 -9.0 -3.2 -7.65 -3.2 -7.1 -2.25 -6.55 -1.35 -6.7 -0.25 M-27.45 8.95 Q-28.25 8.3 -28.45 7.35 -28.65 6.3 -27.7 5.45 -26.8 4.55 -25.8 4.25 -24.8 4.0 -23.75 5.0 -22.7 5.95 -23.05 7.0 -23.35 8.05 -24.05 8.75 -24.8 9.45 -25.7 9.5 -26.65 9.55 -27.45 8.95" fill="#ffff99" fill-rule="evenodd" stroke="none"/>
  </g>
</svg>
