<?xml version="1.0" encoding="UTF-8" standalone="no"?>
<svg xmlns:xlink="http://www.w3.org/1999/xlink" height="51.45px" width="127.3px" xmlns="http://www.w3.org/2000/svg">
  <g transform="matrix(1.0, 0.0, 0.0, 1.0, 63.65, 25.75)">
    <path d="M24.8 -13.75 Q26.35 -15.6 28.4 -14.6 33.05 -13.65 34.65 -17.4 36.9 -20.5 40.25 -18.35 40.35 -18.25 40.55 -18.1 44.3 -19.9 48.5 -14.6 L48.55 -14.55 Q56.6 -17.95 59.65 -9.75 62.75 -6.0 60.55 -1.4 64.15 0.75 63.55 5.55 64.3 12.5 58.0 17.4 55.55 30.45 51.05 22.95 46.7 23.5 48.5 17.1 44.35 18.55 40.2 14.85 31.6 17.05 28.25 12.9 25.45 9.5 26.05 1.95 L24.45 0.45 Q21.6 -4.3 22.6 -9.05 23.55 -12.35 24.8 -13.75 M-59.95 -8.55 L-58.2 -10.65 Q-53.25 -21.65 -44.3 -20.6 L-41.55 -20.05 Q-35.2 -28.05 -27.15 -24.8 -21.2 -21.25 -22.5 -15.55 -15.35 -16.3 -14.05 -14.6 -13.4 -13.7 -14.45 -12.05 -17.0 -8.7 -14.2 -6.5 -13.15 -5.5 -14.05 -4.2 -14.8 -3.15 -16.75 -1.95 -16.0 1.35 -18.6 6.0 -21.15 11.25 -26.0 12.5 -24.1 21.5 -29.5 23.85 -37.0 25.3 -42.2 19.95 L-48.15 16.5 Q-52.85 20.7 -57.6 17.75 -56.25 16.4 -55.6 13.05 -56.8 11.5 -57.5 9.3 -67.85 3.9 -60.75 -1.65 -62.2 -5.1 -59.95 -8.55" fill="#bc4656" fill-rule="evenodd" stroke="none"/>
  </g>
</svg>
