<?xml version="1.0" encoding="UTF-8" standalone="no"?>
<svg xmlns:xlink="http://www.w3.org/1999/xlink" height="42.95px" width="77.95px" xmlns="http://www.w3.org/2000/svg">
  <g transform="matrix(1.0, 0.0, 0.0, 1.0, 99.55, 32.2)">
    <path d="M-99.55 -2.35 L-94.25 -0.65 Q-89.75 0.8 -85.1 0.95 L-85.0 0.95 -76.55 0.0 Q-74.0 -0.65 -71.75 -2.35 -70.4 -3.45 -69.2 -4.9 L-68.85 -5.25 -69.0 -4.75 -69.45 -3.15 -66.3 -3.35 -63.95 -3.2 -63.9 -3.15 -63.85 -3.2 -63.05 -4.25 Q-62.0 -5.05 -60.75 -4.9 L-60.35 -4.8 Q-59.45 -4.6 -58.8 -3.7 -58.3 -3.0 -58.25 -2.25 L-58.35 -3.0 -52.35 -2.9 -52.35 -2.8 Q-52.25 -1.75 -52.4 -0.75 L-52.4 -0.5 Q-47.3 1.5 -42.05 2.7 L-41.8 2.95 -40.05 4.5 -35.45 3.7 Q-30.15 4.15 -24.7 3.7 L-23.9 3.9 -21.85 4.55 -21.6 4.55 -22.8 5.35 -25.65 6.95 -29.35 8.7 -29.85 8.95 Q-37.25 11.8 -42.8 10.1 -50.6 7.7 -52.9 3.05 L-53.3 2.15 Q-54.15 3.9 -55.75 5.15 -58.45 7.4 -61.95 6.95 L-62.0 6.95 -64.65 6.25 Q-66.45 5.35 -67.75 3.65 L-68.5 2.45 Q-71.85 8.2 -81.05 7.85 L-82.9 7.65 Q-91.1 6.15 -98.55 -1.3 L-99.55 -2.35 M-88.7 -32.05 Q-85.1 -27.35 -81.05 -22.8 L-80.65 -22.3 -80.65 -22.2 -76.15 -17.1 -75.05 -16.0 -75.05 -15.95 -67.4 -7.75 -67.4 -7.65 -67.45 -7.6 Q-68.65 -8.95 -70.1 -9.75 -73.35 -11.65 -78.1 -10.55 -88.15 -19.8 -88.7 -32.05 M-43.9 -16.7 Q-40.2 -19.65 -37.0 -23.25 -33.25 -27.3 -30.3 -32.2 -32.55 -17.35 -42.65 -9.85 -43.95 -10.55 -45.2 -10.85 -49.5 -11.2 -53.5 -6.4 L-54.15 -7.35 -55.45 -8.75 -46.65 -14.35 Q-44.85 -15.6 -43.9 -16.7" fill="#000000" fill-opacity="0.21960784" fill-rule="evenodd" stroke="none"/>
  </g>
</svg>
