<?xml version="1.0" encoding="UTF-8" standalone="no"?>
<svg xmlns:xlink="http://www.w3.org/1999/xlink" height="54.7px" width="79.85px" xmlns="http://www.w3.org/2000/svg">
  <g transform="matrix(1.0, 0.0, 0.0, 1.0, 39.95, 27.35)">
    <path d="M-16.6 6.05 Q-26.65 -3.2 -27.2 -15.45 -27.5 -21.05 -25.75 -27.35 -22.35 -19.15 -12.25 -11.45 -4.3 -4.1 -3.0 6.7 -0.8 5.6 1.75 5.95 L2.2 6.05 Q3.85 -1.45 15.45 -8.3 27.0 -15.15 31.85 -24.15 31.85 -19.6 31.2 -15.6 28.95 -0.75 18.85 6.75 21.45 8.3 24.0 11.7 31.35 18.05 36.8 20.3 L37.6 20.5 39.65 21.15 39.9 21.15 38.7 21.95 35.85 23.55 32.15 25.3 31.65 25.55 Q24.25 28.4 18.7 26.7 10.9 24.3 8.6 19.65 L8.2 18.75 Q7.35 20.5 5.75 21.75 3.05 24.0 -0.45 23.55 L-0.5 23.55 -3.15 22.85 Q-4.95 21.95 -6.25 20.25 L-7.0 19.05 Q-10.35 24.8 -19.55 24.45 L-21.4 24.25 Q-29.6 22.75 -37.05 15.3 L-38.05 14.25 -39.95 12.1 Q-26.9 13.0 -16.6 6.05 M-2.45 13.4 L-2.4 13.45 -2.35 13.4 -2.45 13.4" fill="#61f8c3" fill-rule="evenodd" stroke="none"/>
    <path d="M-2.45 13.4 L-2.35 13.4 -2.4 13.45 -2.45 13.4" fill="#37d099" fill-rule="evenodd" stroke="none"/>
  </g>
</svg>
