<?xml version="1.0" encoding="UTF-8" standalone="no"?>
<svg xmlns:xlink="http://www.w3.org/1999/xlink" height="70.6px" width="72.1px" xmlns="http://www.w3.org/2000/svg">
  <g transform="matrix(1.0, 0.0, 0.0, 1.0, 36.05, 35.3)">
    <path d="M36.05 -0.7 Q36.05 14.2 25.4 24.75 14.9 35.3 -0.05 35.3 -14.95 35.3 -25.5 24.75 -36.05 14.2 -36.05 -0.75 -36.05 -15.65 -25.5 -26.2 -18.9 -32.8 -10.55 -35.25 -13.55 -33.6 -16.15 -30.85 -22.85 -23.85 -22.85 -13.95 -22.85 -4.05 -16.15 2.95 -9.5 9.95 -0.1 9.95 9.35 9.95 16.0 2.95 22.7 -4.05 22.7 -13.95 22.7 -23.85 16.0 -30.85 13.35 -33.6 10.3 -35.3 18.75 -32.85 25.4 -26.2 36.05 -15.65 36.05 -0.7" fill="#af4bd4" fill-rule="evenodd" stroke="none"/>
  </g>
</svg>
