<?xml version="1.0" encoding="UTF-8" standalone="no"?>
<svg xmlns:xlink="http://www.w3.org/1999/xlink" height="28.15px" width="28.5px" xmlns="http://www.w3.org/2000/svg">
  <g transform="matrix(1.0, 0.0, 0.0, 1.0, 14.25, 14.1)">
    <path d="M14.25 -0.2 Q14.25 5.7 10.05 9.85 5.9 14.05 -0.05 14.05 -5.95 14.05 -10.15 9.85 -14.25 5.7 -14.25 -0.25 -14.25 -6.15 -10.15 -10.35 -7.65 -12.75 -4.6 -13.75 L-5.7 -12.75 Q-7.9 -10.35 -7.9 -6.9 -7.9 -3.45 -5.7 -1.05 -3.5 1.35 -0.35 1.35 2.75 1.35 4.95 -1.05 7.15 -3.45 7.15 -6.9 7.15 -10.35 4.95 -12.75 L3.4 -14.1 Q7.15 -13.25 10.05 -10.35 14.25 -6.15 14.25 -0.2" fill="#53d4c9" fill-rule="evenodd" stroke="none"/>
  </g>
</svg>
