<?xml version="1.0" encoding="UTF-8" standalone="no"?>
<svg xmlns:xlink="http://www.w3.org/1999/xlink" height="64.25px" width="71.7px" xmlns="http://www.w3.org/2000/svg">
  <g transform="matrix(1.0, 0.0, 0.0, 1.0, 35.85, 32.15)">
    <path d="M-6.5 -17.15 L-6.45 -14.65 -18.9 -14.25 Q-18.5 -6.45 -18.9 0.1 L-6.5 -0.4 -6.6 1.75 -7.0 10.55 -2.8 10.55 Q-6.85 23.55 -8.25 31.55 -13.65 33.1 -19.55 30.25 -27.8 26.5 -33.7 25.55 -31.4 23.6 -29.7 20.1 L-28.3 16.75 Q-33.05 16.05 -34.4 9.5 -35.85 4.1 -32.9 -3.45 -31.5 -6.45 -32.9 -10.35 -37.45 -20.3 -34.95 -27.55 -32.45 -34.9 -21.65 -30.45 -12.55 -25.1 -6.5 -17.15 M9.5 -16.95 Q15.6 -23.65 23.75 -28.35 31.1 -32.15 34.05 -24.65 36.7 -17.9 35.45 -11.2 33.45 -6.75 34.75 -3.2 36.55 4.85 33.1 12.85 30.9 17.15 27.15 17.0 L28.75 20.6 Q30.1 23.3 31.45 24.75 L18.05 29.05 Q11.8 31.1 7.2 30.85 8.4 21.7 5.55 10.5 L8.95 10.45 9.35 2.5 9.5 -0.15 20.65 0.8 Q21.1 -5.75 20.65 -13.75 L9.55 -14.5 9.5 -16.95" fill="#211f1d" fill-rule="evenodd" stroke="none"/>
  </g>
</svg>
