<?xml version="1.0" encoding="UTF-8" standalone="no"?>
<svg xmlns:xlink="http://www.w3.org/1999/xlink" height="37.15px" width="88.65px" xmlns="http://www.w3.org/2000/svg">
  <g transform="matrix(1.0, 0.0, 0.0, 1.0, 44.35, 18.6)">
    <path d="M27.0 -4.85 Q24.05 0.6 19.3 1.15 24.05 0.7 28.05 5.4 L28.7 6.2 29.95 8.1 Q32.25 11.95 32.85 17.05 32.25 10.05 35.1 4.7 38.05 -0.75 42.8 -1.3 38.05 -0.9 33.95 -5.6 30.15 -10.15 29.25 -17.1 29.85 -10.15 27.0 -4.85 M-42.85 8.35 Q-42.5 11.8 -29.95 13.0 -17.4 14.1 -0.15 11.8 17.3 9.5 20.75 6.75 24.25 4.05 19.3 4.4 10.85 6.25 -0.6 7.4 L-23.1 8.6 Q-32.5 8.3 -32.75 6.65 -32.9 4.9 -23.7 2.8 -14.55 0.65 -1.4 -0.75 L18.5 -2.0 Q13.2 -5.85 -2.95 -4.15 -19.15 -2.5 -31.15 1.25 -43.25 4.95 -42.85 8.35" fill="none" stroke="#000000" stroke-linecap="round" stroke-linejoin="round" stroke-width="3.0"/>
  </g>
</svg>
