<?xml version="1.0" encoding="UTF-8" standalone="no"?>
<svg xmlns:xlink="http://www.w3.org/1999/xlink" height="43.3px" width="118.5px" xmlns="http://www.w3.org/2000/svg">
  <g transform="matrix(1.0, 0.0, 0.0, 1.0, 0.0, 0.0)">
    <path d="M106.55 37.7 L106.6 37.6 109.2 32.0 Q110.5 28.7 111.3 25.6 L112.1 21.0 Q112.45 17.9 112.2 15.0 L112.2 14.95 111.6 15.1 Q105.45 17.05 100.2 21.0 L98.2 22.6 95.15 25.55 Q91.7 22.8 87.95 20.55 L85.05 18.9 Q92.45 13.35 102.85 10.4 113.25 7.35 118.5 7.2 118.6 14.0 117.2 21.0 L116.1 25.6 114.0 32.0 111.65 37.6 109.2 42.55 Q108.05 40.05 106.55 37.7 M37.4 19.3 Q30.0 45.5 3.35 43.1 2.1 40.1 1.3 37.0 -2.95 20.45 6.65 0.0 13.55 2.0 22.7 6.7 29.15 10.0 33.85 14.95 L37.4 19.3 M10.25 38.1 Q21.7 35.45 29.95 24.3 27.6 21.1 23.9 18.55 L20.75 16.5 Q14.9 13.15 11.4 12.4 8.2 19.45 8.7 28.4 8.95 33.0 10.25 38.1" fill="#fcc168" fill-rule="evenodd" stroke="none"/>
  </g>
</svg>
