<?xml version="1.0" encoding="UTF-8" standalone="no"?>
<svg xmlns:xlink="http://www.w3.org/1999/xlink" height="21.8px" width="97.55px" xmlns="http://www.w3.org/2000/svg">
  <g transform="matrix(1.0, 0.0, 0.0, 1.0, 0.0, 0.0)">
    <path d="M94.35 19.15 L91.2 16.1 90.75 15.7 89.3 14.45 87.85 13.3 87.65 13.15 Q84.15 10.45 80.4 8.25 L77.5 6.65 76.9 6.35 Q80.8 0.9 86.3 0.55 94.4 0.5 96.95 7.8 98.9 13.8 94.35 19.15 M2.75 4.4 Q6.0 0.85 10.5 0.15 L14.0 0.35 Q18.0 1.5 19.85 4.7 21.05 6.65 21.4 9.45 11.6 13.75 5.2 21.8 2.7 19.7 1.35 17.25 L0.95 16.25 Q-1.6 9.55 2.75 4.4" fill="#624c42" fill-rule="evenodd" stroke="none"/>
  </g>
</svg>
