<?xml version="1.0" encoding="UTF-8" standalone="no"?>
<svg xmlns:xlink="http://www.w3.org/1999/xlink" height="48.1px" width="97.6px" xmlns="http://www.w3.org/2000/svg">
  <g transform="matrix(1.0, 0.0, 0.0, 1.0, 0.0, 0.0)">
    <path d="M67.15 42.0 Q63.65 36.15 69.9 29.65 76.7 21.6 82.2 9.4 L80.35 22.0 Q92.7 17.3 97.25 2.5 99.45 16.1 88.4 36.6 L93.45 31.65 Q91.25 42.0 80.05 47.45 72.5 50.1 67.15 42.0 M35.4 39.5 Q29.2 47.6 20.4 44.95 7.35 39.5 4.85 29.15 L10.7 34.1 Q-2.15 13.6 0.4 0.0 5.7 14.8 20.1 19.5 L17.95 6.9 Q24.3 19.1 32.2 27.15 39.45 33.65 35.4 39.5" fill="#80febc" fill-opacity="0.7490196" fill-rule="evenodd" stroke="none"/>
  </g>
</svg>
