<?xml version="1.0" encoding="UTF-8" standalone="no"?>
<svg xmlns:xlink="http://www.w3.org/1999/xlink" height="36.65px" width="35.3px" xmlns="http://www.w3.org/2000/svg">
  <g transform="matrix(1.0, 0.0, 0.0, 1.0, 0.0, 0.0)">
    <path d="M13.8 9.85 Q14.1 8.35 14.75 6.8 16.2 3.35 19.0 1.35 21.8 -0.55 24.25 0.25 26.75 0.9 27.4 3.95 28.1 6.9 26.75 10.6 L25.3 13.25 28.5 13.7 Q32.2 14.85 34.05 17.65 35.95 20.35 35.0 23.25 33.95 25.95 30.6 27.0 27.1 28.1 23.3 26.85 21.8 26.3 20.75 25.55 20.6 27.15 19.8 28.9 18.2 33.0 15.25 35.15 12.1 37.35 9.55 36.35 6.95 35.4 6.35 31.95 5.75 28.55 7.45 24.6 8.1 23.1 8.9 22.05 L5.85 21.25 Q2.4 20.05 0.8 17.45 -0.65 14.85 0.55 12.35 1.7 9.7 4.9 8.8 7.95 7.7 11.45 8.8 12.75 9.25 13.8 9.85 M23.95 13.15 Q22.75 11.25 20.6 10.5 17.85 9.7 15.25 11.0 L15.15 11.05 Q12.5 12.45 11.2 15.2 10.0 17.95 11.0 20.6 L11.6 21.8 Q12.65 23.6 14.9 24.35 17.6 25.25 20.35 23.8 L20.8 23.5 Q23.4 22.15 24.45 19.45 25.45 16.6 24.25 14.0 L23.95 13.15" fill="#fdf0ff" fill-rule="evenodd" stroke="none"/>
  </g>
</svg>
