<?xml version="1.0" encoding="UTF-8" standalone="no"?>
<svg xmlns:xlink="http://www.w3.org/1999/xlink" height="35.6px" width="88.55px" xmlns="http://www.w3.org/2000/svg">
  <g transform="matrix(1.0, 0.0, 0.0, 1.0, 44.25, 17.8)">
    <path d="M14.65 -14.55 L15.0 -14.95 Q15.85 -15.85 17.2 -16.25 21.75 -17.1 27.85 -9.6 L28.8 -8.4 30.25 -6.25 Q31.55 -10.6 34.25 -12.15 36.7 -13.55 40.45 -12.5 L41.3 -12.0 Q43.1 -10.8 43.85 -8.15 44.5 -5.7 44.25 -2.0 42.3 10.35 31.95 17.8 L30.95 17.1 29.9 16.4 26.7 13.9 26.55 13.8 22.35 9.75 19.15 5.65 Q16.15 1.35 14.3 -3.8 13.75 -5.6 13.6 -7.2 L13.55 -7.75 Q12.85 -12.4 14.65 -14.55 M-18.1 -16.95 Q-16.1 -18.05 -13.6 -17.7 -11.9 -17.3 -10.65 -16.45 -9.0 -15.4 -8.0 -13.7 -6.15 -10.7 -6.05 -5.8 -5.95 6.0 -13.15 16.15 L-13.7 16.85 Q-19.9 15.95 -24.8 14.4 L-28.45 13.1 Q-32.6 11.4 -35.65 9.15 L-37.9 7.25 Q-41.8 3.6 -43.35 -1.25 -46.45 -12.65 -38.85 -16.95 -33.75 -19.0 -24.8 -13.85 L-24.25 -13.5 -22.15 -12.2 Q-20.6 -15.7 -18.1 -16.95" fill="#f8b4bf" fill-rule="evenodd" stroke="none"/>
  </g>
</svg>
