<?xml version="1.0" encoding="UTF-8" standalone="no"?>
<svg xmlns:xlink="http://www.w3.org/1999/xlink" height="52.5px" width="116.9px" xmlns="http://www.w3.org/2000/svg">
  <g transform="matrix(1.0, 0.0, 0.0, 1.0, 1.0, 1.0)">
    <path d="M109.05 18.8 L108.7 17.8 107.05 12.55 104.05 13.15 Q99.9 14.15 96.35 16.2 93.55 17.8 89.65 21.3 91.15 23.9 93.2 26.0 98.35 22.4 102.45 20.75 105.65 19.5 109.05 18.8 110.35 23.8 104.95 31.35 L110.1 32.75 Q111.5 31.7 112.6 30.1 L112.6 30.05 Q112.1 18.3 108.7 17.8 M112.6 30.1 L114.9 44.4 Q103.05 38.25 104.2 31.15 L96.85 29.15 88.3 26.9 Q84.75 26.0 83.0 22.7 79.95 16.4 81.1 15.35 83.7 13.7 85.05 10.3 L86.65 14.5 Q86.65 7.65 93.6 2.9 L93.4 5.15 Q100.15 -3.3 101.1 2.15 107.2 6.4 104.05 13.15 M86.65 14.5 L88.3 18.7 89.65 21.3 M96.35 16.2 L95.2 13.7 Q93.25 9.65 93.4 5.15 M101.1 2.15 Q101.6 8.2 95.2 13.7 M93.2 26.0 Q94.85 27.75 96.85 29.15 M104.95 31.35 L104.2 31.15 M102.45 20.75 Q105.0 24.95 104.95 31.35 M28.0 8.45 L23.4 5.85 Q14.4 16.8 9.4 30.6 12.75 33.4 19.0 37.55 20.95 23.4 28.0 8.45 35.1 12.8 40.45 18.75 44.4 20.6 46.9 24.0 39.0 26.1 32.5 29.15 24.8 32.7 19.0 37.55 L13.4 42.15 10.6 44.3 10.5 44.4 10.1 44.7 7.25 46.65 6.0 47.55 0.8 50.5 Q-0.55 48.65 0.35 46.65 L1.5 46.65 Q-0.15 39.45 1.85 34.6 L1.85 34.55 Q0.55 30.65 3.3 27.5 2.3 25.4 3.35 22.85 3.95 24.45 5.1 26.1 5.3 17.75 7.55 11.6 8.05 8.5 11.15 7.8 11.45 4.95 14.2 1.85 19.05 3.6 23.4 5.85 M11.15 7.8 Q11.95 12.5 15.3 16.35 M9.4 30.6 Q6.65 28.3 5.1 26.1 M13.4 42.15 L10.1 40.2 10.1 44.7 M7.25 46.65 L1.5 46.65 M7.85 40.9 Q3.3 38.6 1.85 34.6 M40.45 18.75 Q38.75 21.95 32.5 29.15" fill="none" stroke="#000000" stroke-linecap="round" stroke-linejoin="round" stroke-width="2.0"/>
  </g>
</svg>
