<?xml version="1.0" encoding="UTF-8" standalone="no"?>
<svg xmlns:xlink="http://www.w3.org/1999/xlink" height="37.35px" width="43.0px" xmlns="http://www.w3.org/2000/svg">
  <g transform="matrix(1.0, 0.0, 0.0, 1.0, 0.75, 0.75)">
    <path d="M10.0 6.85 Q12.85 5.05 15.9 3.75 20.65 1.55 26.05 0.6 L33.15 0.0 35.6 0.1 41.05 6.6 Q41.8 9.45 41.35 11.6 L40.5 15.2 36.85 29.05 34.1 33.2 Q30.4 31.85 27.4 32.8 24.35 33.7 22.15 35.85 11.05 28.8 0.05 33.0 -0.55 18.9 10.0 6.85 8.0 13.25 7.75 20.4 11.9 24.65 17.85 28.0 27.2 28.55 36.1 26.15 39.1 20.4 40.5 15.2" fill="none" stroke="#000000" stroke-linecap="round" stroke-linejoin="round" stroke-width="1.5"/>
  </g>
</svg>
