<?xml version="1.0" encoding="UTF-8" standalone="no"?>
<svg xmlns:xlink="http://www.w3.org/1999/xlink" height="40.1px" width="96.5px" xmlns="http://www.w3.org/2000/svg">
  <g transform="matrix(1.0, 0.0, 0.0, 1.0, 48.25, 20.05)">
    <path d="M48.2 2.25 Q47.7 10.4 41.75 15.35 35.75 20.45 27.9 19.45 20.05 18.5 14.85 12.05 11.15 7.7 10.2 2.65 L9.9 0.3 9.9 0.05 9.9 -1.95 9.9 -2.3 Q10.3 -10.45 16.25 -15.65 21.35 -20.25 28.25 -20.05 L30.0 -19.85 Q38.05 -18.9 43.4 -12.35 48.6 -5.9 48.2 2.25" fill="url(#gradient0)" fill-rule="evenodd" stroke="none"/>
    <path d="M-5.35 2.7 Q-6.3 10.95 -13.2 15.9 -20.05 20.9 -28.85 19.9 -37.6 18.9 -43.2 12.4 -45.25 10.25 -46.35 7.85 L-47.45 5.25 Q-48.55 1.75 -48.15 -2.1 -47.4 -10.2 -40.55 -15.4 -33.75 -20.6 -24.85 -19.6 -15.9 -18.65 -10.2 -12.0 -5.65 -6.85 -5.25 -0.5 L-5.3 -0.2 -5.3 2.1 -5.35 2.7" fill="url(#gradient1)" fill-rule="evenodd" stroke="none"/>
  </g>
  <defs>
    <linearGradient gradientTransform="matrix(-0.0014, -0.0238, 0.0587, -0.0034, -0.05, 1.1)" gradientUnits="userSpaceOnUse" id="gradient0" spreadMethod="pad" x1="-819.2" x2="819.2">
      <stop offset="0.0" stop-color="#7bf4ff" stop-opacity="0.64705884"/>
      <stop offset="1.0" stop-color="#80edff" stop-opacity="0.0"/>
    </linearGradient>
    <linearGradient gradientTransform="matrix(-3.0E-4, -0.0247, 0.0262, -3.0E-4, -26.65, -0.8)" gradientUnits="userSpaceOnUse" id="gradient1" spreadMethod="pad" x1="-819.2" x2="819.2">
      <stop offset="0.0" stop-color="#7bf4ff" stop-opacity="0.64705884"/>
      <stop offset="1.0" stop-color="#80edff" stop-opacity="0.0"/>
    </linearGradient>
  </defs>
</svg>
