<?xml version="1.0" encoding="UTF-8" standalone="no"?>
<svg xmlns:xlink="http://www.w3.org/1999/xlink" height="24.25px" width="23.75px" xmlns="http://www.w3.org/2000/svg">
  <g transform="matrix(1.0, 0.0, 0.0, 1.0, 11.9, 12.1)">
    <path d="M-1.55 -0.4 Q-3.75 -2.05 -2.45 -4.35 -1.15 -6.65 0.55 -4.75 2.8 -2.15 5.0 1.9 L5.2 2.2 5.45 2.75 5.55 2.95 5.7 3.2 Q4.7 4.6 4.3 5.85 L4.15 6.5 M-0.45 -11.2 Q-3.2 -11.0 -4.85 -9.75 -6.2 -8.1 -6.7 -6.3 L-4.65 -6.85 -3.5 -2.55 -6.75 -1.65 -6.0 0.5 -3.05 -0.3 -1.9 4.0 -3.55 4.45 Q0.95 10.35 5.15 11.1 L8.95 11.0 Q10.8 10.45 10.95 8.55 M-6.75 -1.65 L-9.85 -0.85 -11.0 -5.15 -6.7 -6.3 M-3.55 4.45 L-8.25 5.7 -9.4 1.4 -6.0 0.5 M4.3 5.85 Q2.0 5.45 0.8 2.55" fill="none" stroke="#54453c" stroke-linecap="round" stroke-linejoin="round" stroke-width="1.8"/>
    <path d="M9.5 7.5 Q9.5 8.35 8.9 8.9 8.35 9.45 7.55 9.45 6.7 9.45 6.1 8.9 5.55 8.35 5.55 7.5 5.55 6.7 6.1 6.15 6.7 5.55 7.55 5.55 8.35 5.55 8.9 6.15 9.5 6.7 9.5 7.5" fill="none" stroke="#54453c" stroke-linecap="round" stroke-linejoin="round" stroke-width="1.2000000000000002"/>
  </g>
</svg>
