<?xml version="1.0" encoding="UTF-8" standalone="no"?>
<svg xmlns:xlink="http://www.w3.org/1999/xlink" height="41.7px" width="98.1px" xmlns="http://www.w3.org/2000/svg">
  <g transform="matrix(1.0, 0.0, 0.0, 1.0, 49.05, 20.85)">
    <path d="M9.9 -1.7 L9.9 -1.95 9.9 -2.3 Q10.3 -10.45 16.25 -15.65 21.35 -20.25 28.25 -20.05 L30.0 -19.85 Q38.05 -18.9 43.4 -12.35 48.6 -5.9 48.2 2.25 47.7 10.4 41.75 15.35 35.75 20.45 27.9 19.45 20.05 18.5 14.85 12.05 11.15 7.7 10.2 2.65 L9.9 0.3 9.5 -0.05 M-5.3 2.1 L-5.35 2.7 Q-6.3 10.95 -13.2 15.9 -20.05 20.9 -28.85 19.9 -37.6 18.9 -43.2 12.4 -45.25 10.25 -46.35 7.85 L-47.45 5.25 Q-48.55 1.75 -48.15 -2.1 -47.4 -10.2 -40.55 -15.4 -33.75 -20.6 -24.85 -19.6 -15.9 -18.65 -10.2 -12.0 -5.65 -6.85 -5.25 -0.5 L-5.3 -0.2 -5.3 2.1 M9.9 -1.7 L9.9 0.05 9.9 0.3" fill="none" stroke="#000000" stroke-linecap="round" stroke-linejoin="round" stroke-width="1.6"/>
    <path d="M9.5 -0.05 Q6.55 -2.3 3.05 -2.45 -2.4 -2.35 -5.3 2.1 M-5.25 -0.5 Q-2.4 -4.6 2.85 -4.7 6.75 -4.55 9.9 -1.7 Z" fill="none" stroke="#000000" stroke-linecap="round" stroke-linejoin="round" stroke-width="1.0"/>
  </g>
</svg>
