<?xml version="1.0" encoding="UTF-8" standalone="no"?>
<svg xmlns:xlink="http://www.w3.org/1999/xlink" height="15.8px" width="12.0px" xmlns="http://www.w3.org/2000/svg">
  <g transform="matrix(1.0, 0.0, 0.0, 1.0, 6.0, 7.9)">
    <path d="M2.25 -5.9 Q2.25 -5.25 1.85 -4.85 1.4 -4.4 0.8 -4.4 0.1 -4.4 -0.4 -4.85 -0.8 -5.25 -0.8 -5.9 -0.8 -6.55 -0.4 -6.95 0.1 -7.4 0.8 -7.4 1.4 -7.4 1.85 -6.95 2.25 -6.55 2.25 -5.9 M-0.5 -2.95 Q-7.85 3.2 -4.35 6.9 -1.35 8.65 0.25 4.2 3.8 8.0 5.25 4.85 6.8 1.65 -0.5 -2.95" fill="none" stroke="#000000" stroke-linecap="round" stroke-linejoin="round" stroke-width="1.0"/>
  </g>
</svg>
