<?xml version="1.0" encoding="UTF-8" standalone="no"?>
<svg xmlns:xlink="http://www.w3.org/1999/xlink" height="55.4px" width="61.55px" xmlns="http://www.w3.org/2000/svg">
  <g transform="matrix(1.0, 0.0, 0.0, 1.0, 30.8, 27.7)">
    <path d="M0.2 -12.2 L4.35 -10.1 7.3 -13.1 3.25 -16.35 0.2 -12.2 M24.55 8.65 Q19.85 -1.3 5.4 -3.6 -8.35 -5.9 -16.5 4.3 -16.7 9.75 -17.55 16.5 -17.7 22.9 -20.6 25.1 -22.65 26.6 -26.1 26.05 -33.8 22.4 -28.9 8.1 -23.25 -8.4 -18.4 -11.35 -17.95 -15.65 -15.7 -19.55 -11.1 -26.1 -1.4 -27.45 9.0 -28.8 17.7 -23.05 22.7 -19.8 23.95 -10.6 29.25 2.35 30.4 11.85 31.65 21.8 28.6 25.6 26.4 28.5 23.3 27.4 26.3 19.45 24.95 9.5 L24.55 8.65" fill="#8edaff" fill-rule="evenodd" stroke="none"/>
  </g>
</svg>
