<?xml version="1.0" encoding="UTF-8" standalone="no"?>
<svg xmlns:xlink="http://www.w3.org/1999/xlink" height="62.8px" width="52.35px" xmlns="http://www.w3.org/2000/svg">
  <g transform="matrix(1.0, 0.0, 0.0, 1.0, 0.0, 31.4)">
    <path d="M11.35 -23.15 Q13.45 -26.7 17.3 -24.8 16.7 -30.25 22.05 -31.3 27.15 -32.05 32.25 -26.4 34.95 -27.4 35.4 -24.05 L36.35 -24.45 Q40.65 -26.15 44.45 -22.45 49.05 -17.1 43.45 -10.1 47.25 -9.0 45.25 -5.35 47.1 -4.85 48.55 -3.2 50.15 -0.2 47.35 2.85 50.4 3.55 48.15 6.6 53.45 7.1 52.1 13.3 51.35 17.15 46.0 17.05 46.25 19.7 42.7 20.95 44.85 29.35 36.95 31.35 30.55 31.85 27.15 25.9 25.9 27.1 24.85 26.9 23.6 26.75 22.6 24.9 L20.55 24.45 Q19.65 24.15 18.9 23.7 17.45 22.9 16.5 21.6 L15.75 20.4 15.65 19.05 Q15.8 15.5 19.95 13.4 L19.75 12.35 Q19.75 11.6 20.1 10.7 18.05 11.8 16.05 10.75 L8.85 15.35 Q6.55 12.0 10.9 8.6 9.55 8.4 8.1 8.6 1.6 7.95 2.4 3.45 2.8 1.15 4.0 0.0 -3.3 -1.7 2.75 -11.45 3.0 -13.65 3.8 -15.35 0.5 -19.4 4.95 -23.45 7.85 -25.35 11.35 -23.15 M33.2 14.0 L33.35 14.05 33.2 13.95 33.2 14.0 M39.0 1.45 L38.8 1.1 38.75 1.05 39.0 1.45" fill="#f7d488" fill-rule="evenodd" stroke="none"/>
  </g>
</svg>
