<?xml version="1.0" encoding="UTF-8" standalone="no"?>
<svg xmlns:xlink="http://www.w3.org/1999/xlink" height="136.05px" width="145.9px" xmlns="http://www.w3.org/2000/svg">
  <g transform="matrix(1.0, 0.0, 0.0, 1.0, 75.05, 58.8)">
    <path d="M-0.95 52.75 Q24.25 57.7 48.0 48.6 38.7 69.8 21.4 70.0 8.7 69.8 -0.7 62.0 -5.65 57.8 -9.75 51.5 L-10.4 50.45 -8.45 51.0 -0.95 52.75" fill="#000000" fill-rule="evenodd" stroke="none"/>
    <path d="M33.4 -56.6 Q33.65 -55.75 33.35 -55.15 33.05 -54.45 32.45 -54.45 31.85 -54.45 31.2 -55.15 30.6 -55.75 30.35 -56.6 30.15 -57.5 30.4 -58.15 30.7 -58.8 31.3 -58.8 31.95 -58.8 32.55 -58.15 33.15 -57.5 33.4 -56.6 M35.9 -40.1 Q31.85 -44.25 34.3 -50.95 36.1 -54.2 39.15 -49.15 40.4 -45.0 39.15 -41.45 37.7 -39.1 35.9 -40.1 M20.8 -43.4 Q20.8 -42.85 20.45 -42.45 20.0 -42.05 19.5 -42.05 18.95 -42.05 18.55 -42.45 18.15 -42.85 18.15 -43.4 18.15 -43.95 18.55 -44.3 18.95 -44.75 19.5 -44.75 20.0 -44.75 20.45 -44.3 20.8 -43.95 20.8 -43.4 M44.45 -16.7 Q46.95 -11.25 43.85 -7.4 40.75 -3.6 37.4 -3.6 34.0 -3.6 28.25 -7.2 22.45 -10.8 20.5 -16.3 18.55 -21.9 21.9 -25.5 25.3 -29.1 28.55 -29.4 31.85 -29.75 36.95 -25.95 42.05 -22.1 44.45 -16.7 M10.45 -43.1 Q8.7 -44.85 11.4 -49.05 14.3 -53.0 17.2 -52.5 18.65 -50.35 16.25 -46.75 12.55 -41.4 10.45 -43.1 M51.6 -25.15 Q51.75 -23.65 51.5 -22.7 51.25 -21.8 50.5 -21.8 49.75 -21.8 49.2 -22.95 48.7 -24.1 48.7 -25.65 48.7 -27.25 48.95 -28.3 49.15 -29.4 49.75 -29.35 50.3 -29.3 50.85 -28.0 L51.6 -25.15 M67.5 12.55 Q67.5 13.95 67.05 14.85 66.6 15.85 65.95 15.85 65.35 15.85 64.9 14.85 64.45 13.95 64.45 12.55 64.45 11.25 64.9 10.3 65.35 9.35 65.95 9.35 66.6 9.35 67.05 10.3 67.5 11.25 67.5 12.55 M70.85 27.7 Q70.85 28.7 70.5 29.35 70.15 30.05 69.65 30.05 69.15 30.05 68.75 29.35 68.45 28.7 68.45 27.7 68.45 26.75 68.75 26.1 69.15 25.45 69.65 25.45 70.15 25.45 70.5 26.1 70.85 26.75 70.85 27.7 M53.25 60.2 Q52.75 55.25 54.35 51.85 56.75 51.15 58.25 51.85 56.4 61.45 53.25 60.2 M48.45 65.5 Q48.45 66.95 47.25 68.1 46.15 69.35 44.45 69.55 42.8 69.7 41.65 68.8 40.5 67.9 40.5 66.45 40.5 64.95 41.65 63.8 42.8 62.6 44.45 62.4 46.15 62.2 47.25 63.1 48.45 64.0 48.45 65.5 M-0.7 62.0 Q2.75 67.45 1.25 71.65 -0.55 77.4 -8.65 77.25 -15.95 76.4 -20.45 72.6 -27.1 66.1 -22.75 59.6 -19.25 55.5 -12.3 56.3 -12.7 52.7 -9.75 51.5 -5.65 57.8 -0.7 62.0 M-8.45 51.0 Q-3.85 50.15 -0.95 52.75 L-8.45 51.0 M-40.9 -37.1 L-39.5 -35.85 Q-39.05 -35.2 -39.25 -34.75 -39.55 -34.3 -40.4 -34.35 -41.2 -34.4 -42.1 -34.9 L-43.55 -36.2 Q-44.0 -36.85 -43.75 -37.3 -43.5 -37.7 -42.65 -37.7 L-40.9 -37.1 M-58.6 -36.1 Q-56.6 -29.0 -56.85 -23.8 -57.1 -18.65 -61.15 -18.0 -65.2 -17.4 -68.85 -21.95 -72.5 -26.5 -74.1 -33.5 -75.75 -40.5 -74.5 -45.8 -73.2 -51.05 -70.6 -51.45 -68.0 -51.8 -64.3 -47.5 -60.65 -43.1 -58.6 -36.1 M-48.7 -20.5 Q-48.85 -18.75 -49.35 -17.85 -49.8 -16.9 -50.85 -16.75 -51.85 -16.65 -52.55 -17.7 -53.35 -18.75 -53.35 -20.4 -53.35 -22.05 -52.45 -23.25 -51.65 -24.4 -50.5 -24.4 -49.35 -24.4 -48.95 -23.3 -48.6 -22.2 -48.7 -20.5 M-10.9 -27.85 Q-11.65 -24.95 -13.85 -22.85 -15.95 -20.75 -18.25 -20.75 -20.5 -20.75 -21.55 -22.85 -22.6 -24.95 -21.85 -27.85 -21.1 -30.8 -18.95 -32.45 -16.9 -34.05 -14.65 -33.9 -12.4 -33.75 -11.2 -32.3 -10.15 -30.8 -10.9 -27.85 M-37.65 39.4 Q-34.7 39.5 -33.35 41.55 -33.2 44.1 -35.0 44.0 -38.15 42.15 -37.65 39.4 M-6.05 30.25 Q-6.05 32.7 -8.15 34.15 -10.15 35.65 -13.1 35.35 -16.05 35.05 -18.1 33.15 -20.2 31.3 -20.2 28.95 -20.2 26.5 -18.1 25.05 -16.05 23.55 -13.1 23.8 -10.15 24.1 -8.15 26.0 -6.05 27.9 -6.05 30.25 M-42.55 29.6 L-33.65 22.35 -35.45 30.65 -42.55 29.6 M-59.9 7.75 Q-60.3 10.5 -61.1 12.5 -61.9 14.5 -63.35 14.5 -64.7 14.5 -65.55 12.5 -66.4 10.5 -66.15 7.75 -65.85 4.95 -64.7 2.95 -63.5 1.05 -62.05 1.05 -60.65 1.05 -60.05 3.0 -59.45 4.95 -59.9 7.75 M-68.5 38.1 Q-64.6 38.05 -59.5 43.55 -56.7 49.95 -60.35 51.05 -64.55 51.2 -67.55 46.5 -70.9 39.9 -68.5 38.1 M-39.3 64.8 Q-38.7 66.5 -39.85 68.5 -40.45 69.5 -41.8 69.55 -43.4 68.2 -43.0 66.6 -43.15 65.6 -41.2 64.0 L-39.3 64.8" fill="#000000" fill-opacity="0.21960784" fill-rule="evenodd" stroke="none"/>
  </g>
</svg>
