<?xml version="1.0" encoding="UTF-8" standalone="no"?>
<svg xmlns:xlink="http://www.w3.org/1999/xlink" height="66.55px" width="69.7px" xmlns="http://www.w3.org/2000/svg">
  <g transform="matrix(1.0, 0.0, 0.0, 1.0, 34.85, 33.3)">
    <path d="M2.85 -13.1 Q4.65 -13.0 6.7 -11.9 10.55 -21.7 18.9 -29.4 22.85 -33.15 25.0 -32.55 28.35 -31.25 27.55 -28.15 31.75 -29.05 34.0 -25.95 35.75 -21.9 34.0 -14.85 32.4 -6.7 27.9 1.0 22.95 9.35 19.9 9.55 L18.8 9.4 Q18.15 11.4 16.3 12.05 13.5 12.9 10.7 9.1 7.05 3.8 6.2 -1.95 L6.7 7.0 6.75 9.7 6.75 12.0 6.6 17.65 Q-2.3 24.5 -8.7 30.15 -11.75 25.35 -13.5 21.35 -15.0 18.15 -15.65 15.5 L-11.6 9.4 -10.1 7.25 -8.7 5.4 -3.05 -1.9 Q-6.75 2.35 -10.45 4.95 -13.65 7.15 -16.9 8.0 -18.65 7.6 -19.2 5.85 -19.8 4.15 -18.05 3.6 L-18.3 3.55 Q-22.9 3.0 -22.6 -4.45 -21.75 -14.25 -17.35 -20.95 -14.15 -27.4 -11.2 -29.55 -9.0 -31.15 -6.75 -29.85 -3.9 -32.9 -1.05 -33.3 2.05 -32.5 2.3 -27.1 L2.85 -13.1 M-29.3 23.5 L-29.55 23.75 Q-28.95 26.5 -29.55 28.7 -31.0 33.35 -33.75 31.05 -35.55 29.4 -34.4 27.2 -33.25 24.95 -29.3 23.5 M-16.9 26.4 Q-15.55 32.05 -18.05 33.15 -21.6 33.8 -21.8 30.75 -21.25 28.45 -16.9 26.4" fill="#24282f" fill-rule="evenodd" stroke="none"/>
  </g>
</svg>
