<?xml version="1.0" encoding="UTF-8" standalone="no"?>
<svg xmlns:xlink="http://www.w3.org/1999/xlink" height="62.3px" width="55.4px" xmlns="http://www.w3.org/2000/svg">
  <g transform="matrix(1.0, 0.0, 0.0, 1.0, 27.7, 31.15)">
    <path d="M-4.45 18.8 Q7.15 5.0 18.2 -2.15 6.4 -12.25 -5.25 -18.45 -17.9 -17.1 -19.8 -13.9 -19.35 -10.9 -11.55 -6.5 -12.7 -5.45 -14.8 -3.9 -14.35 -2.4 -9.95 -0.25 -14.55 2.85 -15.6 5.55 -14.6 9.85 -4.45 13.6 -11.25 15.05 -4.45 18.8 M-23.7 -31.1 Q1.6 -31.7 22.75 -18.5 31.45 -12.75 24.9 1.15 9.95 29.95 -12.3 31.15 -20.2 30.8 -22.95 22.4 -32.05 -5.75 -23.7 -31.1" fill="#595b63" fill-rule="evenodd" stroke="none"/>
  </g>
</svg>
