<?xml version="1.0" encoding="UTF-8" standalone="no"?>
<svg xmlns:xlink="http://www.w3.org/1999/xlink" height="39.85px" width="106.3px" xmlns="http://www.w3.org/2000/svg">
  <g transform="matrix(1.0, 0.0, 0.0, 1.0, 53.15, 19.9)">
    <path d="M35.2 -4.5 Q38.5 -6.65 42.5 -6.05 26.6 -17.45 8.65 -19.2 -21.2 -15.45 -52.45 1.1 -51.8 3.5 -47.45 6.5 -46.9 2.95 -43.7 -0.2 -39.7 -4.4 -33.75 -4.5 -30.45 -4.45 -27.7 -3.15 L-24.55 -1.0 Q-20.7 2.8 -20.55 6.4 -20.55 9.65 -25.0 12.15 -24.65 15.8 -26.15 16.45 -27.7 17.1 -28.9 14.45 -29.1 15.4 -29.45 15.9 -16.05 19.85 6.6 19.15 20.4 18.55 28.45 15.2 31.6 13.85 33.85 12.2 29.55 11.35 29.0 6.95 28.95 6.0 29.05 5.15 29.5 0.25 33.45 -3.1 L35.2 -4.5 M42.5 -6.05 L42.55 -6.05 Q47.1 -5.15 49.95 -0.95 51.95 2.25 52.35 5.15 L52.4 7.3 Q52.05 10.65 47.85 12.55 47.7 16.45 46.35 16.85 44.95 17.2 44.2 14.4 43.4 17.05 41.3 16.95 39.65 16.55 39.4 14.3 37.5 17.0 35.9 16.0 34.35 15.0 33.85 12.2 M-29.45 15.9 Q-30.3 17.2 -31.95 17.45 -33.95 17.35 -34.45 15.2 -36.15 18.05 -38.2 17.45 -40.15 16.7 -41.1 14.15 -46.15 14.05 -47.35 10.05 -47.65 8.25 -47.45 6.5" fill="none" stroke="#000000" stroke-linecap="round" stroke-linejoin="round" stroke-width="1.4000000000000001"/>
    <path d="M-27.7 -3.15 Q-9.55 -10.95 8.2 -13.5 24.05 -11.15 35.2 -4.5 M45.5 9.2 Q43.7 7.25 43.05 5.15 42.55 3.9 42.55 2.5 42.65 0.0 44.1 0.1 45.45 0.0 46.45 2.5 47.85 0.65 49.45 1.25 50.65 2.85 49.7 5.15 L49.5 5.55 Q47.45 8.75 45.5 9.2 M37.0 8.95 Q34.1 7.2 33.0 5.15 L32.7 4.15 Q32.3 1.8 33.5 0.8 34.8 -0.2 36.45 2.35 37.55 -0.65 39.25 -0.6 41.0 -0.45 40.1 3.5 L39.55 5.15 Q38.4 7.8 37.0 8.95 M-28.15 9.35 Q-31.95 6.9 -32.5 3.55 -32.7 1.15 -31.05 1.05 -29.5 0.65 -28.0 2.95 -26.75 0.85 -24.8 1.2 -23.0 2.5 -24.1 5.25 -25.95 8.65 -28.15 9.35 M-37.95 10.5 Q-42.25 9.15 -43.5 6.8 -44.3 4.6 -43.0 3.45 -41.75 2.3 -39.45 4.4 -38.6 1.35 -36.6 1.15 -34.65 1.0 -35.1 4.9 -36.1 8.85 -37.95 10.5" fill="none" stroke="#000000" stroke-linecap="round" stroke-linejoin="round" stroke-width="1.0"/>
  </g>
</svg>
