<?xml version="1.0" encoding="UTF-8" standalone="no"?>
<svg xmlns:xlink="http://www.w3.org/1999/xlink" height="83.0px" width="156.1px" xmlns="http://www.w3.org/2000/svg">
  <g transform="matrix(1.0, 0.0, 0.0, 1.0, 78.3, 41.75)">
    <path d="M58.0 -10.55 L57.55 -14.05 Q57.6 -17.15 59.8 -21.8 L60.35 -26.75 Q60.75 -29.35 62.75 -31.9 65.9 -36.3 67.9 -40.45 69.15 -41.7 69.3 -40.0 68.85 -38.55 70.15 -37.7 71.2 -36.75 70.25 -33.55 73.25 -32.9 73.95 -29.6 74.55 -26.5 70.35 -25.5 74.3 -23.95 73.5 -20.3 71.95 -18.5 69.8 -20.3 70.6 -16.4 66.55 -16.65 67.25 -16.55 67.65 -15.75 67.5 -14.75 66.5 -14.65 66.9 -13.0 66.25 -12.35 65.4 -12.25 64.65 -13.85 L64.6 -14.05 64.4 -14.5 63.65 -14.0 Q63.7 -12.3 63.25 -10.6 L64.0 -10.75 65.45 -10.4 Q66.05 -10.0 66.1 -9.4 66.15 -8.75 65.55 -8.25 L64.9 -7.85 65.05 -7.8 65.3 -7.55 Q66.4 -8.35 66.95 -9.9 67.8 -13.05 69.25 -13.05 70.6 -11.55 70.05 -8.9 L64.25 2.3 Q62.1 3.0 60.95 4.9 61.9 6.5 62.0 8.8 62.4 4.95 64.35 4.4 L64.75 4.35 Q66.55 4.05 67.9 6.9 68.85 9.3 67.9 11.3 69.1 10.85 69.65 12.8 70.7 14.95 68.65 17.05 67.25 18.45 66.2 18.95 L64.8 19.15 64.15 20.5 Q62.8 21.4 61.35 21.75 62.3 22.6 62.35 23.35 L60.75 24.45 60.55 24.5 Q55.6 25.8 53.6 27.65 L52.15 31.15 45.85 28.8 Q44.05 26.1 43.4 23.35 42.65 21.8 43.95 20.2 46.6 17.65 46.3 14.55 L45.45 3.6 Q45.2 0.8 46.15 -0.85 L48.65 -3.25 Q49.35 -2.0 49.3 1.4 L50.5 2.4 49.25 5.55 49.85 5.35 Q51.05 5.45 52.25 6.3 53.15 5.35 53.35 2.75 L55.85 -2.85 55.3 -3.2 54.95 -3.4 Q54.5 -1.55 53.35 -1.35 52.2 -1.65 52.6 -4.1 50.65 -4.3 50.65 -5.15 50.65 -6.1 52.7 -6.35 52.3 -7.65 53.15 -8.75 54.2 -8.65 54.7 -7.8 L54.85 -7.35 55.0 -6.6 56.75 -6.7 56.95 -6.2 57.5 -8.0 57.15 -8.3 Q56.65 -8.85 56.8 -9.45 56.9 -10.1 57.6 -10.4 L58.0 -10.55 M62.7 -3.6 Q60.8 0.05 59.1 1.8 L61.5 -4.0 61.65 -3.9 61.75 -3.8 62.7 -3.6 M-58.8 -32.6 L-58.15 -33.1 Q-57.7 -33.65 -57.8 -34.25 -57.95 -34.85 -58.6 -35.2 L-60.05 -35.4 -61.05 -35.0 Q-61.05 -35.6 -61.4 -36.2 -61.8 -37.05 -62.55 -37.5 L-63.8 -37.6 Q-64.35 -37.3 -64.5 -36.55 -64.6 -35.9 -64.35 -35.2 -66.45 -40.2 -67.05 -39.85 L-69.6 -37.3 Q-71.05 -35.4 -70.3 -33.55 L-68.95 -31.25 Q-69.5 -32.05 -70.55 -32.05 -71.3 -30.8 -70.75 -29.55 -72.75 -29.05 -72.6 -28.15 -72.5 -27.25 -70.55 -27.35 -70.55 -24.85 -69.45 -24.7 -68.3 -25.05 -68.1 -26.9 L-67.75 -26.75 -65.55 -21.8 Q-68.2 -21.95 -68.4 -18.75 -68.6 -16.75 -67.0 -14.7 -69.65 -17.75 -72.05 -17.6 -73.45 -17.05 -73.85 -15.8 L-76.2 -19.2 Q-76.95 -19.85 -77.05 -17.0 L-77.55 -12.65 -76.2 -10.25 Q-75.2 -8.65 -74.6 -6.5 -72.75 -3.4 -70.9 -3.2 -65.5 -3.35 -65.05 -2.05 L-64.9 -1.85 Q-63.6 -0.3 -61.45 0.7 -59.1 1.4 -57.0 3.75 L-57.3 3.95 Q-57.75 4.4 -57.65 4.9 L-57.0 5.85 -56.05 6.65 -55.05 6.5 Q-54.05 8.65 -52.95 12.25 -52.25 14.0 -49.85 14.1 -47.1 13.9 -46.3 16.95 L-45.6 20.25 -45.85 20.55 Q-46.6 18.9 -47.85 18.9 -49.25 19.1 -49.35 20.65 -51.1 19.3 -52.6 18.8 -53.45 18.6 -54.0 19.75 -54.55 21.8 -54.25 23.4 L-51.35 23.65 Q-51.8 24.15 -51.75 24.7 -51.2 25.9 -48.6 26.0 -48.8 26.8 -48.6 27.25 -48.05 28.9 -47.15 29.05 -46.0 28.85 -45.05 27.4 L-44.95 27.25 -43.15 27.4 Q-43.95 28.95 -43.25 30.2 -46.05 31.25 -45.9 32.35 -45.7 33.45 -43.05 33.05 -43.2 36.15 -41.7 36.15 -40.15 35.55 -39.75 33.35 -37.4 34.9 -33.35 33.45 L-33.15 33.45 -27.3 33.7 Q-27.15 35.85 -25.65 36.2 -24.35 36.3 -23.8 37.7 -22.3 39.2 -19.15 36.65 -16.65 35.0 -15.1 32.4 L-15.0 32.2 Q-15.05 30.15 -17.65 28.8 -14.95 29.85 -14.15 28.75 -14.15 27.3 -16.45 25.9 -15.45 24.65 -16.45 23.35 -18.0 22.8 -19.1 23.8 -19.75 21.05 -22.25 21.05 -23.45 22.8 -22.6 24.5 L-23.45 23.55 -25.55 8.15 -26.9 5.75 -26.6 2.25 -24.2 2.4 Q-23.9 1.15 -25.55 -0.55 -24.4 -1.45 -24.95 -2.8 L-27.5 -2.95 Q-27.4 -5.6 -29.6 -6.15 L-32.2 -12.65 Q-32.4 -13.5 -33.6 -12.65 -37.4 -10.2 -36.2 -8.45 L-35.25 -5.45 Q-34.45 -4.4 -35.25 -3.8 -36.35 -2.25 -34.55 -0.7 -31.95 5.8 -30.5 11.1 L-31.15 13.15 Q-31.3 14.45 -29.3 16.6 L-29.3 16.85 Q-29.25 21.15 -30.0 23.55 L-31.0 25.1 -34.05 25.1 -34.4 23.1 -36.05 21.8 -36.45 18.9 Q-33.55 20.55 -32.55 19.35 -32.35 17.95 -34.15 16.55 -33.1 15.4 -33.8 14.1 -35.1 13.45 -36.2 14.45 L-36.4 13.4 Q-34.65 12.25 -36.75 9.8 -35.4 9.9 -34.7 8.95 -33.5 7.05 -35.65 5.8 -36.9 4.7 -39.7 4.65 -38.05 2.35 -40.15 0.0 -42.6 -2.3 -45.7 -0.75 -48.0 0.3 -47.45 3.05 L-49.15 1.75 -49.75 1.3 Q-51.0 0.0 -51.15 -1.35 L-51.25 -1.85 Q-51.8 -4.55 -54.1 -6.2 -53.15 -6.8 -51.95 -8.35 -50.15 -10.75 -51.5 -12.7 -52.3 -14.6 -53.45 -14.0 -52.75 -16.1 -54.0 -18.35 -55.65 -21.0 -57.45 -20.45 L-61.4 -28.2 Q-60.85 -27.95 -60.3 -28.2 -59.75 -28.45 -59.65 -29.2 L-59.6 -29.65 -58.6 -29.55 Q-57.9 -29.7 -57.55 -30.25 -57.3 -30.8 -57.6 -31.5 L-58.7 -32.55 -58.8 -32.6" fill="none" stroke="#000000" stroke-linecap="round" stroke-linejoin="round" stroke-width="1.5"/>
    <path d="M58.0 -10.55 L59.1 -10.55 60.2 -10.0 59.8 -10.75 59.75 -10.95 59.75 -11.15 59.75 -11.2 Q59.55 -11.85 59.75 -12.5 59.95 -13.25 60.55 -13.5 61.2 -13.65 61.85 -13.2 L62.8 -11.75 62.95 -10.5 63.25 -10.6 M72.6 -28.7 Q72.65 -31.6 69.9 -32.8 68.3 -30.35 67.15 -27.35 68.1 -28.7 69.1 -27.6 70.0 -26.45 68.75 -25.3 70.35 -24.15 69.85 -23.15 68.7 -22.0 68.1 -22.7 68.15 -21.05 67.05 -21.4 L67.1 -21.15 Q66.95 -20.45 66.15 -20.45 L66.15 -19.35 Q67.2 -18.25 66.25 -16.7 L66.55 -16.65 M70.25 -33.55 L70.2 -33.25 69.9 -32.8 M57.5 -8.0 Q57.9 -7.7 58.4 -7.55 L58.45 -7.55 59.95 -7.7 60.25 -7.85 60.25 -7.95 60.25 -8.35 60.5 -8.85 60.75 -9.1 61.0 -9.2 60.75 -9.4 60.65 -9.45 60.4 -9.8 60.2 -10.0 M61.5 -4.0 Q61.0 -4.4 60.75 -5.15 L60.7 -5.45 59.75 -4.7 58.6 -4.6 Q58.0 -4.9 57.9 -5.65 57.75 -6.35 58.15 -7.1 L58.4 -7.55 M56.95 -6.2 Q57.1 -5.55 56.6 -4.95 57.9 -3.8 57.8 -2.8 L55.85 -2.85 M67.15 -27.35 L65.95 -23.9 66.35 -23.95 Q67.05 -23.0 66.15 -22.0 66.75 -21.9 67.05 -21.4 M65.25 -19.05 L64.75 -20.05 64.7 -20.25 64.65 -20.5 64.15 -18.1 64.4 -17.95 Q64.65 -18.65 65.25 -19.05 L66.15 -19.35 M64.65 -20.5 L62.85 -20.45 Q62.45 -21.15 63.85 -22.05 62.95 -23.15 63.35 -23.6 63.8 -24.05 64.95 -23.1 65.25 -23.75 65.95 -23.9 M63.65 -14.0 L62.1 -14.05 Q61.45 -14.9 63.05 -16.4 61.7 -17.7 62.2 -18.35 62.65 -18.95 64.15 -18.1 M61.0 -9.2 L61.4 -9.35 62.05 -9.3 62.3 -9.2 62.85 -10.1 62.95 -10.5 M62.3 -9.2 L62.4 -9.2 62.9 -8.45 62.95 -8.1 63.6 -8.25 Q64.25 -8.25 64.9 -7.85 M62.95 -8.1 L62.9 -8.0 62.65 -7.55 62.6 -7.45 62.75 -7.3 Q63.35 -6.9 63.65 -6.1 L63.75 -5.0 64.75 -4.8 Q65.45 -4.85 65.8 -5.35 66.15 -5.9 65.95 -6.6 L65.3 -7.55 M62.6 -7.45 L62.3 -7.2 61.8 -7.05 61.1 -7.05 60.95 -7.1 60.75 -6.65 Q60.55 -6.1 60.7 -5.45 M60.95 -7.1 L60.75 -7.2 Q60.35 -7.45 60.25 -7.85 M63.75 -5.0 L63.65 -4.6 Q63.45 -3.85 62.85 -3.65 L62.7 -3.6 M77.55 7.95 Q77.55 8.7 77.0 9.25 76.45 9.8 75.65 9.8 74.9 9.8 74.35 9.25 73.85 8.7 73.85 7.95 73.85 7.2 74.35 6.65 74.9 6.1 75.65 6.1 76.45 6.1 77.0 6.65 77.55 7.2 77.55 7.95 M62.0 9.25 L62.0 8.8 M56.75 11.95 Q55.7 10.75 56.05 10.0 57.5 9.4 58.4 10.85 58.6 9.25 59.75 9.15 60.7 10.0 60.15 11.15 61.8 10.25 62.55 11.15 62.75 12.2 61.45 12.4 62.95 13.25 62.95 14.2 L60.9 14.4 Q60.95 15.85 60.3 16.15 59.05 15.7 59.0 14.3 57.85 15.7 56.95 15.6 56.3 15.15 56.9 13.85 55.3 14.1 54.8 13.15 54.85 12.45 56.75 11.95 M63.45 15.45 Q64.95 17.65 64.8 19.15 M67.9 11.3 L66.75 12.9 M60.95 4.9 Q60.1 3.4 58.6 2.6 L56.85 2.0 Q54.25 1.55 53.6 4.7 53.25 6.65 54.5 8.9 L55.5 10.35 M52.25 6.3 Q53.4 7.25 54.5 8.9 M61.35 21.75 Q59.25 22.2 57.05 21.35 55.7 20.45 55.5 18.75 51.3 19.35 49.25 17.25 47.1 15.0 49.65 14.05 L50.45 14.0 Q47.95 11.6 47.6 8.85 47.55 7.65 47.9 6.9 48.25 5.95 49.25 5.55 M55.5 18.75 Q55.3 17.25 56.0 15.05 M50.45 14.0 L51.8 14.35 M50.25 15.65 Q50.95 17.55 53.95 18.3 M64.15 30.35 Q64.15 31.1 63.65 31.5 63.2 32.0 62.5 32.0 61.85 32.0 61.35 31.5 60.9 31.1 60.9 30.35 60.9 29.7 61.35 29.2 61.85 28.75 62.5 28.75 63.2 28.75 63.65 29.2 64.15 29.7 64.15 30.35 M64.25 18.45 Q60.75 21.0 56.85 19.55 M-61.05 -35.0 L-61.1 -34.6 Q-61.2 -33.95 -61.55 -33.65 L-61.45 -33.6 Q-61.0 -33.4 -60.85 -32.9 L-60.8 -32.6 -60.15 -32.85 -58.8 -32.6 M-64.35 -35.2 L-64.3 -35.0 -64.2 -34.85 -63.75 -34.2 -63.55 -34.0 -63.2 -33.65 -63.1 -33.6 -62.85 -33.45 -62.45 -33.65 -61.8 -33.7 -61.55 -33.65 M-60.8 -32.6 L-60.8 -32.5 -61.0 -32.05 -61.05 -31.9 -60.85 -31.85 Q-60.2 -31.45 -59.85 -30.7 L-59.6 -29.65 M-61.4 -28.2 L-61.55 -28.3 -62.6 -29.4 -62.7 -29.7 -63.45 -28.8 -64.7 -28.6 Q-65.3 -28.8 -65.5 -29.55 L-65.45 -31.05 -65.2 -31.5 Q-66.0 -31.6 -66.55 -32.1 -67.1 -32.55 -67.05 -33.2 -67.0 -33.85 -66.4 -34.2 L-64.9 -34.55 -63.75 -34.2 M-62.7 -29.7 Q-62.95 -30.3 -62.8 -30.9 L-62.6 -31.35 -62.8 -31.45 -63.4 -32.05 -63.7 -31.85 Q-64.3 -31.45 -65.15 -31.5 L-65.2 -31.5 M-63.4 -32.05 L-63.4 -32.1 -63.45 -32.5 -63.3 -33.05 -63.05 -33.3 -62.85 -33.45 M-61.05 -31.9 L-61.3 -31.65 -61.8 -31.4 -62.45 -31.3 -62.6 -31.35 M-68.95 -31.25 L-68.75 -30.85 -68.45 -30.1 Q-67.8 -30.85 -66.75 -30.45 -66.05 -29.55 -66.65 -28.65 -65.25 -27.7 -65.2 -26.7 L-67.75 -26.75 M-67.0 -14.7 L-65.8 -13.4 M-64.4 -11.95 Q-65.6 -12.95 -65.3 -13.8 -63.95 -14.55 -62.9 -13.25 -62.9 -14.85 -61.8 -15.1 -60.7 -14.35 -61.15 -13.1 -59.6 -14.25 -58.75 -13.5 -58.4 -12.45 -59.65 -12.05 -58.05 -11.45 -57.95 -10.5 -58.35 -9.8 -59.95 -10.0 -59.7 -8.6 -60.35 -8.25 -61.65 -8.5 -61.9 -9.85 -62.8 -8.35 -63.75 -8.3 -64.45 -8.7 -64.0 -10.0 -65.55 -9.6 -66.2 -10.45 -66.2 -11.2 -64.4 -11.95 M-59.5 -15.2 L-59.6 -15.7 Q-60.4 -20.2 -63.75 -21.45 L-65.55 -21.8 M-54.1 -6.2 Q-54.9 -5.7 -55.5 -5.8 -55.5 -5.0 -56.0 -4.35 -58.95 -1.75 -62.95 -2.65 -64.4 -3.4 -64.8 -5.0 -68.85 -3.9 -71.15 -5.7 -73.6 -7.65 -71.15 -8.95 L-70.35 -9.15 Q-73.15 -11.15 -73.85 -13.85 -74.05 -15.0 -73.85 -15.8 M-70.35 -9.15 L-69.0 -8.95 M-64.8 -5.0 Q-65.2 -6.5 -64.7 -8.75 M-70.35 -7.45 Q-69.45 -5.7 -66.35 -5.3 M-59.6 -15.7 Q-59.65 -19.55 -57.75 -20.35 L-57.45 -20.45 M-57.3 -9.3 Q-55.55 -7.3 -55.5 -5.8 M-53.45 -14.0 Q-53.75 -13.1 -54.35 -12.3 M-56.15 -6.4 Q-59.3 -3.5 -63.35 -4.35 M-26.6 2.25 L-28.15 1.25 Q-29.15 3.55 -30.85 3.55 -32.35 3.0 -31.35 -0.15 -34.1 -0.7 -33.9 -1.85 -33.8 -3.1 -30.8 -3.05 -31.15 -4.85 -29.6 -6.15 M-47.45 3.05 L-47.45 3.1 -43.45 6.1 Q-43.55 4.95 -42.45 4.65 -40.6 4.5 -41.25 6.55 -38.95 6.1 -38.4 7.4 -38.5 8.25 -39.7 8.8 L-39.3 9.95 -39.1 10.1 Q-38.95 11.15 -40.0 11.6 L-39.4 12.75 -38.7 11.6 Q-36.95 11.75 -36.4 13.4 M-39.3 9.95 Q-40.05 9.35 -41.0 9.65 -40.5 7.8 -42.1 7.15 -43.45 7.85 -43.55 9.15 -45.85 8.8 -46.15 9.6 -46.5 10.45 -44.55 11.15 -45.85 13.3 -44.8 13.85 -43.4 14.05 -42.25 12.5 -40.7 14.3 -39.65 14.0 L-39.4 12.75 M-36.45 18.9 Q-37.2 21.5 -38.95 21.85 -40.45 21.6 -39.75 18.15 -42.55 18.15 -42.45 16.9 -42.45 15.6 -39.5 15.0 L-39.65 14.0 M-17.65 28.8 L-18.0 28.65 -18.6 28.4 Q-18.95 31.1 -20.85 31.55 -22.5 31.3 -22.35 27.8 -25.35 27.8 -25.55 26.55 -25.75 25.25 -22.6 24.5 M-45.6 20.25 Q-44.8 19.25 -43.85 19.4 -42.3 20.1 -43.0 22.2 -41.4 22.5 -41.2 23.7 -41.35 24.9 -42.8 25.15 L-42.85 25.15 Q-42.1 26.45 -42.45 27.05 -40.7 27.05 -40.2 29.2 -39.25 28.1 -37.85 28.4 -37.0 29.4 -37.85 30.65 -35.85 31.55 -35.85 32.85 -36.65 34.1 -39.75 33.15 L-39.75 33.35 M-31.0 25.1 Q-29.05 25.3 -27.9 26.05 M-47.45 3.1 L-49.15 1.75 M-42.1 7.15 L-43.45 6.1 M-40.9 1.2 Q-43.4 -1.2 -46.15 1.2 M-57.0 3.75 Q-56.6 3.4 -56.05 3.4 -55.35 3.4 -54.85 3.95 -54.35 4.4 -54.35 5.15 -54.35 5.85 -54.85 6.3 L-55.05 6.5 M-51.35 23.65 L-51.0 23.35 Q-49.9 22.25 -48.05 23.15 -49.15 22.25 -49.25 21.55 L-49.35 20.65 M-42.8 25.15 Q-43.35 24.15 -44.75 24.6 -44.8 25.1 -45.15 25.45 -45.6 25.9 -46.25 25.9 -46.9 25.9 -47.35 25.45 -47.8 25.0 -47.8 24.35 -47.8 23.75 -47.35 23.3 -46.9 22.8 -46.25 22.8 -45.6 22.8 -45.15 23.3 L-45.0 23.5 Q-44.2 22.45 -43.0 22.2 M-48.05 23.15 L-47.8 23.4 M-45.85 20.55 Q-46.3 21.5 -46.05 22.5 M-45.0 23.5 Q-44.75 23.85 -44.75 24.35 L-44.75 24.6 M-64.05 12.3 Q-63.75 12.95 -64.3 13.45 -64.8 13.95 -65.5 13.95 -66.25 13.95 -66.75 13.45 -67.25 12.95 -67.25 12.2 -67.25 11.5 -66.75 10.95 -66.25 10.45 -65.8 10.55 L-64.85 11.15 -64.05 12.3 M-42.45 27.05 L-42.45 27.15 -43.15 27.4 M-45.05 27.4 Q-44.95 26.95 -45.5 26.1 M-48.6 26.0 Q-48.3 25.4 -47.85 25.4 M-46.1 39.25 Q-46.1 40.0 -46.6 40.5 -47.1 41.0 -47.85 41.0 -48.6 41.0 -49.15 40.5 -49.65 40.0 -49.65 39.25 -49.65 38.5 -49.0 38.45 L-47.65 38.1 -46.5 38.15 Q-46.1 38.5 -46.1 39.25" fill="none" stroke="#000000" stroke-linecap="round" stroke-linejoin="round" stroke-opacity="0.6" stroke-width="0.5"/>
  </g>
</svg>
