<?xml version="1.0" encoding="UTF-8" standalone="no"?>
<svg xmlns:xlink="http://www.w3.org/1999/xlink" height="61.85px" width="32.35px" xmlns="http://www.w3.org/2000/svg">
  <g transform="matrix(1.0, 0.0, 0.0, 1.0, 16.2, 30.95)">
    <path d="M1.05 -26.3 Q0.45 -26.95 -0.3 -26.95 L-1.3 -26.7 -1.75 -26.25 Q-2.35 -25.55 -2.35 -24.55 -2.35 -23.6 -1.8 -22.9 L-1.75 -22.85 Q-1.15 -22.1 -0.3 -22.1 0.35 -22.1 0.9 -22.6 L1.1 -22.85 Q1.65 -23.55 1.65 -24.55 1.65 -25.55 1.1 -26.25 L1.05 -26.3 M4.55 -24.6 Q4.55 -21.95 3.05 -20.1 1.5 -18.25 -0.6 -18.25 -2.75 -18.25 -4.3 -20.1 -5.8 -21.95 -5.8 -24.6 -5.8 -27.2 -4.3 -29.05 -2.75 -30.95 -0.6 -30.95 1.5 -30.95 3.05 -29.05 4.55 -27.2 4.55 -24.6" fill="#a6e6b5" fill-rule="evenodd" stroke="none"/>
    <path d="M-1.55 -2.9 L-3.25 -1.2 Q-4.65 0.65 -5.1 3.0 L-5.3 5.35 Q-5.3 9.2 -3.25 11.9 L-2.2 13.1 Q-0.5 14.6 1.65 14.6 L3.8 14.2 4.5 13.85 6.6 11.9 Q7.75 10.4 8.25 8.55 8.65 7.05 8.65 5.35 8.65 2.05 7.15 -0.4 L6.6 -1.2 Q4.7 -3.7 2.05 -3.9 L1.65 -3.95 Q-0.1 -3.95 -1.55 -2.9 M-15.05 25.7 Q-17.35 15.8 -15.05 5.25 -11.95 -6.9 -4.3 -11.3 L-2.55 -12.2 Q2.95 -13.7 7.4 -11.3 10.65 -9.55 13.4 -5.75 17.15 1.6 15.75 10.2 13.95 16.05 11.3 20.35 6.7 27.35 -1.3 30.05 -10.85 33.05 -15.05 25.7" fill="#a7e3b5" fill-rule="evenodd" stroke="none"/>
  </g>
</svg>
