<?xml version="1.0" encoding="UTF-8" standalone="no"?>
<svg xmlns:xlink="http://www.w3.org/1999/xlink" height="68.2px" width="102.7px" xmlns="http://www.w3.org/2000/svg">
  <g transform="matrix(1.0, 0.0, 0.0, 1.0, 39.7, 71.1)">
    <path d="M43.2 -66.3 Q42.7 -65.85 42.15 -65.7 L41.3 -65.9 Q41.0 -66.2 41.1 -66.75 41.15 -67.35 41.65 -67.8 42.05 -68.25 42.7 -68.35 L43.55 -68.15 Q43.85 -67.85 43.7 -67.3 L43.2 -66.3 M49.0 -62.8 Q49.35 -60.75 45.95 -61.3 42.8 -61.7 42.6 -63.15 42.7 -64.8 45.2 -67.2 46.25 -68.6 47.2 -68.0 49.0 -65.4 49.0 -62.8 M45.8 -32.85 L45.65 -33.3 46.05 -33.85 47.2 -34.1 48.25 -33.85 48.7 -33.2 48.25 -32.55 47.2 -32.3 46.05 -32.55 45.8 -32.85 M45.0 -38.0 Q44.95 -40.35 46.55 -41.25 48.4 -41.95 49.85 -40.2 50.75 -38.95 50.35 -37.25 L50.4 -36.75 Q49.45 -34.8 47.65 -34.65 44.65 -35.0 45.0 -38.0 M44.05 -15.8 L43.8 -15.3 43.15 -15.1 Q42.75 -15.1 42.55 -15.3 L42.25 -15.8 Q42.25 -16.15 42.55 -16.4 L43.15 -16.55 43.8 -16.4 44.05 -15.8 M-23.45 -67.5 Q-23.05 -67.5 -22.7 -67.15 L-22.55 -66.8 Q-22.4 -68.65 -21.7 -69.15 -21.0 -69.8 -20.5 -69.6 L-19.1 -68.55 -17.7 -66.5 -16.85 -64.25 Q-16.55 -63.1 -19.75 -63.5 -22.25 -62.5 -22.45 -63.65 L-22.6 -65.45 -22.7 -65.3 Q-23.05 -64.85 -23.45 -64.85 L-24.2 -65.3 Q-24.55 -65.65 -24.55 -66.2 L-24.35 -66.8 -23.8 -67.25 -23.45 -67.5 M-13.7 -44.95 Q-13.65 -43.7 -13.85 -42.65 -14.05 -41.65 -15.35 -41.7 -16.6 -41.75 -17.55 -42.65 -18.5 -43.6 -18.5 -44.85 -18.5 -46.15 -17.8 -47.1 -17.0 -47.95 -15.9 -47.95 -14.85 -47.95 -14.3 -47.1 -13.8 -46.25 -13.7 -44.95 M-22.0 -34.6 L-20.35 -33.15 Q-21.05 -34.75 -19.7 -35.1 -16.2 -32.35 -19.3 -31.7 L-18.4 -29.85 Q-17.65 -27.75 -21.0 -27.3 -24.0 -26.3 -25.05 -28.05 -25.25 -28.85 -23.75 -31.3 -22.85 -34.85 -22.0 -34.6 M-19.2 -13.2 Q-19.7 -12.7 -20.35 -12.65 -20.85 -12.55 -21.3 -12.95 -21.65 -13.25 -21.6 -13.95 L-21.0 -14.95 -19.95 -15.6 Q-19.3 -15.65 -18.9 -15.25 -18.5 -14.85 -18.7 -14.3 -18.75 -13.65 -19.2 -13.2" fill="#ffffff" fill-rule="evenodd" stroke="none"/>
    <path d="M43.2 -66.3 L43.7 -67.3 Q43.85 -67.85 43.55 -68.15 L42.7 -68.35 Q42.05 -68.25 41.65 -67.8 41.15 -67.35 41.1 -66.75 41.0 -66.2 41.3 -65.9 L42.15 -65.7 Q42.7 -65.85 43.2 -66.3 M45.2 -67.2 Q42.7 -64.8 42.6 -63.15 42.8 -61.7 45.95 -61.3 49.35 -60.75 49.0 -62.8 50.55 -60.5 51.7 -57.65 53.7 -52.75 53.35 -49.05 52.95 -45.4 50.45 -45.45 47.95 -45.45 45.25 -49.25 L43.05 -52.65 Q48.5 -54.7 47.25 -57.85 46.25 -59.95 42.55 -62.1 39.75 -63.8 39.9 -58.55 L39.8 -58.7 Q37.7 -63.35 38.25 -66.4 38.9 -69.7 41.15 -69.45 42.85 -69.25 45.15 -67.25 L45.2 -67.2 M42.55 -23.8 Q42.55 -24.4 41.9 -24.8 L40.7 -25.65 Q39.95 -26.0 39.35 -25.4 38.75 -24.8 38.9 -24.1 39.05 -23.55 39.65 -23.15 L40.8 -22.5 Q41.4 -22.35 41.9 -22.8 42.55 -23.2 42.55 -23.8 M47.65 -51.0 Q48.35 -51.7 48.5 -52.45 48.6 -53.2 48.15 -53.7 L46.9 -54.05 Q46.05 -53.95 45.35 -53.2 44.75 -52.55 44.65 -51.8 44.45 -50.95 44.9 -50.55 45.35 -50.05 46.15 -50.2 47.0 -50.3 47.65 -51.0 M50.4 -36.75 L50.7 -36.95 Q51.4 -36.2 51.9 -35.05 53.6 -31.6 53.0 -26.0 52.45 -20.35 50.15 -16.65 47.85 -13.05 45.1 -13.05 42.25 -13.05 40.6 -16.65 L39.8 -19.05 Q39.25 -18.55 38.55 -18.55 37.4 -18.55 36.65 -20.25 35.85 -21.9 35.85 -24.2 35.85 -26.55 36.65 -28.25 L37.05 -29.0 Q37.7 -28.25 39.35 -27.35 40.2 -26.6 41.15 -26.3 42.95 -25.75 45.2 -26.6 46.95 -28.05 45.8 -32.85 L46.05 -32.55 47.2 -32.3 48.25 -32.55 48.7 -33.2 48.25 -33.85 47.2 -34.1 46.05 -33.85 45.65 -33.3 45.2 -34.8 Q44.8 -36.45 41.4 -34.05 L41.8 -34.75 Q43.4 -37.3 45.0 -38.0 44.65 -35.0 47.65 -34.65 49.45 -34.8 50.4 -36.75 M46.05 -45.1 Q46.85 -43.55 46.25 -42.35 45.7 -41.3 44.55 -41.25 43.5 -41.25 42.7 -42.3 41.95 -43.5 41.85 -45.15 41.65 -46.8 41.95 -47.65 42.25 -48.55 43.15 -48.55 44.05 -48.55 44.7 -47.6 L46.05 -45.1 M59.9 -18.25 L57.5 -16.25 Q53.25 -13.0 54.9 -18.2 L56.65 -22.95 Q59.9 -27.1 62.4 -26.35 64.35 -23.2 59.9 -18.25 M44.05 -15.8 L43.8 -16.4 43.15 -16.55 42.55 -16.4 Q42.25 -16.15 42.25 -15.8 L42.55 -15.3 Q42.75 -15.1 43.15 -15.1 L43.8 -15.3 44.05 -15.8 M49.1 -15.95 Q49.45 -16.8 49.4 -17.35 49.35 -18.05 48.3 -17.45 L46.25 -16.6 Q45.35 -16.35 45.15 -15.65 44.95 -15.1 45.4 -14.55 46.0 -14.0 46.65 -14.0 47.35 -14.0 48.05 -14.55 L49.1 -15.95 M44.65 -9.65 Q44.9 -8.55 44.5 -7.8 44.25 -7.1 43.5 -7.1 42.8 -7.1 42.2 -7.8 41.6 -8.55 41.35 -9.65 41.1 -10.7 41.45 -11.45 41.8 -12.2 42.45 -12.2 43.15 -12.2 43.8 -11.45 44.4 -10.7 44.65 -9.65 M-23.45 -67.5 L-22.75 -68.7 Q-22.4 -69.55 -22.55 -70.1 L-22.65 -70.4 Q-21.3 -72.25 -18.95 -69.3 -15.25 -64.7 -14.9 -56.85 L-15.95 -59.5 Q-16.7 -61.3 -17.9 -60.7 -19.05 -60.15 -20.1 -58.6 -21.25 -57.1 -21.85 -55.15 -22.3 -53.9 -22.0 -52.7 -23.35 -54.0 -24.2 -57.0 -25.7 -62.25 -25.2 -66.65 L-25.05 -66.65 -24.35 -66.8 -24.55 -66.2 Q-24.55 -65.65 -24.2 -65.3 L-23.45 -64.85 Q-23.05 -64.85 -22.7 -65.3 L-22.6 -65.45 -22.45 -63.65 Q-22.25 -62.5 -19.75 -63.5 -16.55 -63.1 -16.85 -64.25 L-17.7 -66.5 -19.1 -68.55 -20.5 -69.6 Q-21.0 -69.8 -21.7 -69.15 -22.4 -68.65 -22.55 -66.8 L-22.7 -67.15 Q-23.05 -67.5 -23.45 -67.5 M-39.7 -56.1 Q-37.2 -58.5 -34.65 -54.95 -31.8 -51.4 -34.3 -48.55 -36.85 -51.0 -38.8 -54.5 L-39.7 -56.1 M-22.0 -34.6 Q-21.3 -38.0 -18.5 -38.05 -15.75 -38.1 -15.4 -34.0 L-15.9 -33.45 Q-16.4 -32.8 -16.4 -31.8 -16.4 -30.85 -15.9 -30.2 -15.45 -29.5 -14.7 -29.5 -15.05 -16.25 -20.2 -11.9 -24.8 -10.15 -26.3 -15.15 -26.55 -16.8 -24.6 -19.85 -20.35 -21.2 -21.0 -27.3 -17.65 -27.75 -18.4 -29.85 L-19.3 -31.7 Q-16.2 -32.35 -19.7 -35.1 -21.05 -34.75 -20.35 -33.15 L-22.0 -34.6 M-28.15 -32.2 L-28.35 -32.9 Q-28.35 -33.65 -27.7 -34.2 -27.0 -34.75 -26.1 -34.75 -25.2 -34.75 -24.6 -34.2 -23.85 -33.65 -23.85 -32.9 -23.85 -32.2 -24.4 -31.7 L-28.15 -32.2 M-19.2 -13.2 Q-18.75 -13.65 -18.7 -14.3 -18.5 -14.85 -18.9 -15.25 -19.3 -15.65 -19.95 -15.6 L-21.0 -14.95 -21.6 -13.95 Q-21.65 -13.25 -21.3 -12.95 -20.85 -12.55 -20.35 -12.65 -19.7 -12.7 -19.2 -13.2 M-22.3 -8.5 Q-20.75 -11.1 -18.55 -10.55 -17.2 -9.0 -18.55 -6.0 -19.7 -2.7 -22.15 -2.9 -23.95 -3.75 -23.1 -5.9 L-22.95 -5.95 Q-22.45 -6.05 -22.3 -6.8 -22.15 -7.6 -22.3 -8.5" fill="#ffffff" fill-opacity="0.23921569" fill-rule="evenodd" stroke="none"/>
  </g>
</svg>
