<?xml version="1.0" encoding="UTF-8" standalone="no"?>
<svg xmlns:xlink="http://www.w3.org/1999/xlink" height="123.1px" width="126.9px" xmlns="http://www.w3.org/2000/svg">
  <g transform="matrix(1.0, 0.0, 0.0, 1.0, 63.45, 61.55)">
    <path d="M-44.65 41.45 L-44.95 41.95 -44.85 42.05 Q-36.65 49.0 -24.15 53.9 -7.35 59.2 5.9 59.85 L19.2 60.45 28.8 58.8 Q36.45 57.5 48.3 51.75 57.0 46.75 60.1 39.8 61.65 35.55 61.05 31.0 59.5 19.2 61.6 14.45 64.8 -11.85 54.7 -31.05 48.55 -44.2 29.7 -53.55 L29.65 -53.6 Q21.7 -56.95 11.6 -59.4 -21.7 -64.85 -45.55 -42.55 -60.75 -27.25 -60.1 0.5 -59.3 9.6 -55.2 21.3 L-54.35 21.8 -53.8 22.15 -51.65 24.25 M-55.2 21.3 L-55.75 20.7 Q-58.5 20.9 -60.15 22.15 -64.95 28.0 -59.35 35.7 -54.6 42.2 -50.15 43.0 -46.2 43.6 -44.95 41.95" fill="none" stroke="#54453c" stroke-linecap="round" stroke-linejoin="round" stroke-width="2.2"/>
    <path d="M-56.85 31.5 Q-59.05 29.85 -57.75 27.55 -56.45 25.25 -54.75 27.15 -52.5 29.75 -50.3 33.8 L-50.1 34.1 -49.85 34.65 -49.75 34.85 -49.6 35.1 Q-50.6 36.5 -51.0 37.75 L-51.15 38.4 M-51.0 37.75 Q-53.3 37.35 -54.5 34.45" fill="none" stroke="#54453c" stroke-linecap="round" stroke-linejoin="round" stroke-width="1.0"/>
  </g>
</svg>
