<?xml version="1.0" encoding="UTF-8" standalone="no"?>
<svg xmlns:xlink="http://www.w3.org/1999/xlink" height="117.85px" width="124.7px" xmlns="http://www.w3.org/2000/svg">
  <g transform="matrix(1.0, 0.0, 0.0, 1.0, 62.35, 58.95)">
    <path d="M-44.95 43.45 Q-46.2 45.1 -50.15 44.5 -54.6 43.7 -59.35 37.2 -64.95 29.5 -60.15 23.65 -58.5 22.4 -55.75 22.2 L-55.2 22.8 Q-59.3 11.1 -60.1 2.0 -60.75 -25.75 -45.55 -41.05 -21.7 -63.35 11.6 -57.9 21.7 -55.45 29.65 -52.1 L29.7 -52.05 Q48.55 -42.7 54.7 -29.55 64.8 -10.35 61.6 15.95 59.5 20.7 60.85 29.3 62.15 37.85 58.6 45.8 55.05 53.75 44.75 56.65 12.65 60.9 -20.05 57.15 -38.15 54.8 -42.7 46.15 L-44.95 43.45" fill="#fff1e0" fill-rule="evenodd" stroke="none"/>
  </g>
</svg>
