<?xml version="1.0" encoding="UTF-8" standalone="no"?>
<svg xmlns:xlink="http://www.w3.org/1999/xlink" height="17.15px" width="17.2px" xmlns="http://www.w3.org/2000/svg">
  <g transform="matrix(1.0, 0.0, 0.0, 1.0, 8.6, 8.55)">
    <path d="M3.8 -0.25 Q5.05 -0.2 4.05 -0.95 3.5 -0.9 3.5 -0.45 L3.8 -0.25 M3.05 0.05 Q3.05 -0.45 3.5 -0.95 3.85 -1.3 4.4 -1.3 L5.4 -0.95 5.85 0.05 5.4 1.0 4.4 1.35 Q3.85 1.35 3.5 1.0 3.05 0.6 3.05 0.05 M-2.45 -0.3 Q-1.9 -0.3 -1.45 0.05 -1.05 0.55 -1.05 1.0 -1.05 1.6 -1.45 2.0 -1.9 2.35 -2.45 2.35 -2.95 2.35 -3.35 2.0 -3.8 1.6 -3.8 1.0 L-3.35 0.05 Q-2.95 -0.3 -2.45 -0.3 M-3.3 0.45 L-3.15 0.75 Q-1.8 0.75 -2.85 -0.05 -3.3 0.05 -3.3 0.45" fill="#191919" fill-rule="evenodd" stroke="none"/>
    <path d="M3.0 4.15 L3.45 3.2 Q3.45 2.6 3.8 3.15 4.05 3.65 3.85 4.35 3.55 5.1 2.85 4.9 L1.6 4.5 Q0.8 5.9 -0.1 5.2 -1.05 4.4 -0.9 3.9 -0.65 3.35 -0.6 3.7 L0.15 4.5 Q0.65 4.9 1.1 4.35 1.45 3.7 1.6 3.85 L3.0 4.15" fill="#020202" fill-rule="evenodd" stroke="none"/>
    <path d="M-2.95 -3.5 L-3.2 -3.55 Q-5.7 -5.0 -8.1 -5.35 -7.95 -2.1 -6.4 1.35 L-6.35 1.75 -6.25 3.0 Q-5.85 5.5 -3.5 7.05 -1.1 8.45 1.85 7.95 4.75 7.45 6.6 5.4 L6.6 5.35 Q8.45 3.15 8.0 0.65 L7.75 -0.45 7.65 -0.75 Q7.95 -4.65 7.05 -8.05 4.25 -6.7 3.5 -4.7 L3.15 -4.35 2.7 -4.3 -0.2 -4.35 Q-1.45 -4.15 -2.5 -3.55 L-2.85 -3.5 -2.95 -3.5 Z" fill="none" stroke="#000000" stroke-linecap="round" stroke-linejoin="round" stroke-width="1.0"/>
  </g>
</svg>
