<?xml version="1.0" encoding="UTF-8" standalone="no"?>
<svg xmlns:xlink="http://www.w3.org/1999/xlink" height="18.0px" width="84.6px" xmlns="http://www.w3.org/2000/svg">
  <g transform="matrix(1.0, 0.0, 0.0, 1.0, 42.3, 9.0)">
    <path d="M39.6 -8.25 Q41.95 -5.3 41.45 -1.5 40.85 1.5 37.5 3.45 34.5 4.9 32.2 3.0 30.15 0.7 32.05 -2.6 34.0 -5.4 36.45 -4.85 39.15 -3.7 37.05 -0.55 M-31.75 -4.95 Q-25.7 -1.7 -26.55 3.45 -27.25 6.85 -31.55 7.95 -37.15 9.15 -40.6 5.55 -42.4 3.0 -40.7 0.7 -38.75 -2.5 -33.85 -2.05 -31.05 -1.5 -30.9 0.6 -30.75 2.7 -33.2 3.0 -35.7 3.2 -36.2 1.25" fill="none" stroke="#27bd5e" stroke-linecap="round" stroke-linejoin="round" stroke-width="1.5"/>
  </g>
</svg>
