<?xml version="1.0" encoding="UTF-8" standalone="no"?>
<svg xmlns:xlink="http://www.w3.org/1999/xlink" height="24.5px" width="91.55px" xmlns="http://www.w3.org/2000/svg">
  <g transform="matrix(1.0, 0.0, 0.0, 1.0, 45.75, 12.25)">
    <path d="M36.55 -0.7 Q36.35 -4.85 34.4 -8.4 38.6 -6.35 40.55 -3.15 41.0 -8.4 38.4 -12.25 42.05 -10.35 45.8 -1.6 36.65 8.6 33.55 8.55 35.05 1.5 31.45 -5.35 L36.55 -0.7 M-45.75 5.55 Q-39.35 -7.75 -31.75 -8.25 -36.55 -3.0 -34.85 1.75 -32.7 -1.6 -28.25 -4.15 -31.45 0.3 -30.15 4.8 -27.55 0.5 -24.95 -0.15 -27.0 6.55 -23.65 12.25 -32.25 12.25 -45.75 5.55" fill="#1f5837" fill-rule="evenodd" stroke="none"/>
  </g>
</svg>
