<?xml version="1.0" encoding="UTF-8" standalone="no"?>
<svg xmlns:xlink="http://www.w3.org/1999/xlink" height="21.2px" width="48.25px" xmlns="http://www.w3.org/2000/svg">
  <g transform="matrix(1.0, 0.0, 0.0, 1.0, 24.1, 10.6)">
    <path d="M-8.05 -7.2 L-2.5 -5.15 -2.15 -4.95 -2.05 -4.85 -1.6 -4.55 -1.5 -4.4 -1.4 -4.3 -1.3 -4.25 0.55 -2.85 22.85 6.7 Q23.85 7.95 23.0 8.9 L21.25 9.85 Q16.05 9.6 9.35 8.05 1.65 7.9 -4.5 6.45 L-19.6 5.75 Q-24.4 3.7 -23.05 -4.4 -22.6 -6.0 -21.6 -7.15 -20.05 -9.2 -17.1 -9.85 -13.6 -9.15 -9.15 -7.6 L-8.05 -7.2" fill="none" stroke="#000000" stroke-linecap="round" stroke-linejoin="round" stroke-width="1.5"/>
    <path d="M-3.25 -4.5 Q-7.2 -4.1 -7.4 -0.1 M-13.35 5.55 Q-15.45 3.75 -14.65 0.85 M9.35 8.05 Q8.3 5.8 9.35 3.95" fill="none" stroke="#000000" stroke-linecap="round" stroke-linejoin="round" stroke-width="1.0"/>
  </g>
</svg>
