<?xml version="1.0" encoding="UTF-8" standalone="no"?>
<svg xmlns:xlink="http://www.w3.org/1999/xlink" height="15.3px" width="61.05px" xmlns="http://www.w3.org/2000/svg">
  <g transform="matrix(1.0, 0.0, 0.0, 1.0, 30.5, 7.65)">
    <path d="M29.8 -5.75 L29.2 -3.7 Q26.5 2.45 19.45 5.6 L14.1 6.5 Q9.65 6.5 5.9 4.3 4.2 2.95 3.7 2.9 L2.85 2.9 Q2.45 2.95 0.55 4.35 -3.7 6.75 -8.9 6.9 L-15.35 6.15 Q-24.7 3.1 -28.65 -3.45 -29.55 -5.05 -29.65 -5.75 L-29.65 -5.9 -29.5 -6.2 Q-29.1 -6.7 -28.3 -6.0 -25.55 -2.35 -22.0 -2.25 -18.05 -2.05 -14.3 -4.1 -10.1 -6.2 -5.15 -6.8 L-4.05 -6.9 Q-1.25 -6.95 0.9 -5.4 2.0 -4.3 2.9 -4.1 L3.0 -4.0 Q3.65 -4.1 4.8 -5.4 6.45 -6.9 8.9 -6.9 L9.9 -6.8 Q14.05 -6.2 17.7 -4.2 20.95 -2.25 24.15 -2.45 26.8 -2.6 28.7 -6.05 29.25 -6.75 29.6 -6.2 L29.75 -6.0 29.8 -5.75 Z" fill="none" stroke="#000000" stroke-linecap="round" stroke-linejoin="round" stroke-width="1.5"/>
  </g>
</svg>
