<?xml version="1.0" encoding="UTF-8" standalone="no"?>
<svg xmlns:xlink="http://www.w3.org/1999/xlink" height="22.35px" width="65.6px" xmlns="http://www.w3.org/2000/svg">
  <g transform="matrix(1.0, 0.0, 0.0, 1.0, 32.8, 11.15)">
    <path d="M-1.2 -4.65 L-1.1 -2.3 Q0.0 -1.6 0.55 -0.55 L0.4 -0.5 Q-0.35 -0.65 -1.1 -1.3 L-1.2 1.25 -0.3 2.8 -0.35 2.8 -1.35 2.35 -1.95 5.45 -2.6 2.45 Q-3.85 3.1 -3.7 2.45 L-3.6 2.35 Q-3.0 1.8 -2.8 0.6 L-2.8 0.45 -2.55 -1.1 -3.5 -0.35 -4.0 -0.3 -3.35 -1.1 -2.8 -2.15 -2.3 -4.5 -1.25 -4.7 -2.3 -4.5 -2.3 -4.55 -1.25 -4.7 -1.2 -4.65 M-15.35 -0.5 Q-14.05 -1.0 -13.85 -2.25 -13.3 -0.6 -13.25 0.95 L-13.5 1.45 -14.65 2.7 Q-15.25 3.25 -16.45 3.4 -16.2 4.45 -17.3 6.05 L-17.35 6.15 Q-19.0 8.25 -20.65 7.45 -22.15 6.55 -23.35 6.5 -24.05 6.6 -25.15 7.4 -26.5 8.4 -27.55 8.05 -29.2 7.55 -29.2 6.8 -29.35 5.65 -30.0 5.15 L-31.65 4.05 Q-32.65 2.6 -32.15 -0.1 -32.3 -2.55 -30.75 -5.4 -29.8 -6.8 -26.7 -7.15 -28.7 -6.6 -29.2 -5.9 L-28.1 -5.4 Q-24.0 -6.65 -22.2 -2.6 -23.5 -1.55 -25.0 -1.9 -26.3 -2.35 -27.55 -4.4 -28.15 -5.4 -29.9 -5.2 -30.6 -5.15 -31.4 -2.65 -31.65 1.15 -29.6 3.15 -28.45 4.5 -26.9 3.75 -25.05 2.9 -24.85 1.35 -25.0 1.0 -27.55 2.35 -29.2 2.95 -29.8 0.5 -30.05 -2.7 -28.6 -3.3 -27.75 -3.4 -26.35 -1.8 -23.75 -1.15 -24.3 0.35 L-24.35 0.55 -21.85 0.65 Q-21.3 -0.4 -21.5 -1.65 -21.0 -0.55 -21.35 1.4 -20.65 1.3 -20.55 0.55 -19.5 -2.45 -20.95 -4.1 -22.75 -4.6 -23.3 -5.95 -24.15 -8.15 -22.8 -8.65 -21.3 -9.1 -20.45 -7.9 -19.55 -5.8 -20.65 -4.45 -19.55 -3.05 -19.85 -0.65 -18.75 -0.95 -18.25 -1.45 -16.5 -3.75 -19.45 -5.2 -16.1 -4.3 -18.0 -1.4 -16.4 -1.9 -15.4 -2.75 -15.55 -5.2 -18.25 -6.7 L-18.25 -6.8 Q-16.9 -6.6 -15.9 -5.9 -14.5 -4.5 -14.25 -3.65 -14.55 -2.55 -15.3 -1.65 L-15.3 -1.85 Q-16.05 -1.2 -18.55 -0.95 -17.8 0.65 -17.85 2.1 -15.65 1.8 -15.35 -0.5 M-28.1 -1.45 Q-30.2 -0.2 -28.85 -0.4 -27.55 -0.35 -26.85 0.35 -25.05 1.8 -25.6 -0.2 -26.4 -2.1 -28.1 -1.45 M-21.7 1.4 L-24.55 1.1 -25.2 3.1 Q-25.4 3.85 -23.45 3.9 L-23.35 3.95 Q-21.65 4.1 -21.7 1.4 M-26.4 6.7 Q-24.3 6.7 -23.15 5.3 -21.8 6.75 -20.6 6.5 -18.9 5.8 -19.4 3.9 -19.35 1.7 -19.95 -0.35 -20.0 0.8 -20.75 1.7 -21.7 2.05 -21.5 3.8 -23.0 5.35 -27.55 5.45 -27.15 6.4 -26.4 6.7" fill="#000000" fill-opacity="0.32941177" fill-rule="evenodd" stroke="none"/>
    <path d="M-1.25 -4.7 Q11.3 -5.2 19.45 -2.85 25.05 -1.7 28.8 1.3 30.15 2.4 31.25 3.7 L31.45 3.6 Q32.3 3.1 32.3 2.5 L32.25 2.25 Q28.5 -2.55 19.75 -4.7 11.0 -6.85 4.45 -6.55 L-5.3 -6.05 -10.95 -5.05 -13.5 -4.05 -13.45 -3.9 -13.4 -3.85 -13.3 -3.5 M-2.3 -4.5 L-2.75 -4.45 Q-5.55 -1.4 -5.15 2.55 -5.1 4.1 -4.5 6.2 L-3.15 9.3 -1.9 10.7 Q-1.25 8.4 1.1 5.15 3.3 1.7 2.55 0.35 L0.55 -2.55 -1.2 -4.65 -1.25 -4.7 -2.3 -4.5 M-26.7 -7.15 Q-29.8 -6.8 -30.75 -5.4 -32.3 -2.55 -32.15 -0.1 -32.65 2.6 -31.65 4.05 L-30.0 5.15 Q-29.35 5.65 -29.2 6.8 -29.2 7.55 -27.55 8.05 -26.5 8.4 -25.15 7.4 -24.05 6.6 -23.35 6.5 -22.15 6.55 -20.65 7.45 -19.0 8.25 -17.35 6.15 L-17.3 6.05 Q-16.2 4.45 -16.45 3.4 -15.25 3.25 -14.65 2.7 L-13.5 1.45 -13.25 0.95 Q-13.3 -0.6 -13.85 -2.25 -14.05 -1.0 -15.35 -0.5 L-16.95 -0.15 Q-15.95 -0.8 -15.3 -1.65 -14.55 -2.55 -14.25 -3.65 -14.5 -4.5 -15.9 -5.9 -16.9 -6.6 -18.25 -6.8 -18.05 -9.45 -21.35 -10.6 -23.65 -10.9 -24.5 -8.4 -24.6 -7.8 -26.2 -7.3 L-26.25 -7.25 -26.7 -7.15 -26.6 -7.2 -26.25 -7.25 M-13.5 -4.05 L-13.6 -4.3 -13.65 -4.35 -13.65 -4.45 -13.7 -4.5 -13.7 -4.55 Q-14.4 -5.95 -15.85 -6.8 L-16.0 -6.9 -17.85 -7.7 -15.9 -5.9 M-13.25 0.95 L-13.4 2.65 -13.15 2.1 Q-12.3 0.05 -12.9 -2.45 L-12.95 -2.65 -13.05 -2.95 M-12.95 -2.65 Q-7.9 -3.95 -2.75 -4.45" fill="none" stroke="#000000" stroke-linecap="round" stroke-linejoin="round" stroke-width="1.0"/>
  </g>
</svg>
