<?xml version="1.0" encoding="UTF-8" standalone="no"?>
<svg xmlns:xlink="http://www.w3.org/1999/xlink" height="11.65px" width="12.25px" xmlns="http://www.w3.org/2000/svg">
  <g transform="matrix(1.0, 0.0, 0.0, 1.0, 6.1, 5.85)">
    <path d="M-4.4 -5.85 L-0.6 -5.85 Q1.1 -5.85 1.1 -4.2 L1.1 -0.5 Q1.1 1.15 -0.6 1.15 L-4.4 1.15 Q-6.1 1.15 -6.1 -0.5 L-6.1 -4.2 Q-6.1 -5.85 -4.4 -5.85 M2.7 1.3 L5.3 1.3 Q6.15 1.3 6.15 2.15 L6.15 5.0 Q6.15 5.8 5.3 5.8 L2.7 5.8 Q1.8 5.8 1.8 5.0 L1.8 2.15 Q1.8 1.3 2.7 1.3" fill="#66faff" fill-rule="evenodd" stroke="none"/>
  </g>
</svg>
