<?xml version="1.0" encoding="UTF-8" standalone="no"?>
<svg xmlns:xlink="http://www.w3.org/1999/xlink" height="14.7px" width="13.25px" xmlns="http://www.w3.org/2000/svg">
  <g transform="matrix(1.0, 0.0, 0.0, 1.0, 6.65, 7.5)">
    <path d="M6.55 -1.5 L6.55 -1.35 6.6 -0.3 Q6.6 2.85 4.7 5.0 2.75 7.2 0.0 7.2 -2.75 7.2 -4.7 5.0 -6.65 2.85 -6.65 -0.3 L-6.55 -1.4 Q-6.3 -3.25 -5.2 -4.6 -4.95 -5.0 -4.45 -5.05 L-3.65 -4.8 Q-3.3 -4.55 -3.25 -4.05 -3.2 -3.65 -3.45 -3.25 -4.2 -2.35 -4.35 -1.1 L-4.35 -0.95 -4.45 -0.3 Q-4.45 1.95 -3.05 3.55 -1.75 5.0 0.0 5.0 1.75 5.0 3.05 3.55 4.4 1.95 4.4 -0.3 L4.35 -1.1 3.5 -2.85 Q3.2 -3.2 3.2 -3.6 3.2 -4.1 3.55 -4.4 3.9 -4.7 4.35 -4.7 L5.1 -4.35 Q6.1 -3.35 6.55 -1.5 M-1.0 -6.4 Q-1.0 -6.85 -0.65 -7.15 -0.35 -7.5 0.1 -7.5 L0.9 -7.15 1.2 -6.4 1.2 -1.2 0.9 -0.4 0.1 -0.1 Q-0.35 -0.1 -0.65 -0.4 L-1.0 -1.2 -1.0 -6.4" fill="#000000" fill-rule="evenodd" stroke="none"/>
  </g>
</svg>
