<?xml version="1.0" encoding="UTF-8" standalone="no"?>
<svg xmlns:xlink="http://www.w3.org/1999/xlink" height="16.9px" width="15.4px" xmlns="http://www.w3.org/2000/svg">
  <g transform="matrix(1.0, 0.0, 0.0, 1.0, 7.7, 8.45)">
    <path d="M3.55 -1.55 Q6.2 -0.35 7.7 2.35 5.7 2.35 4.1 7.75 L2.9 5.05 Q2.0 7.55 2.35 8.45 0.0 7.4 -1.15 5.3 -2.35 3.2 -2.9 3.55 L-3.0 6.25 Q-5.5 4.55 -6.4 2.85 -5.1 1.5 -5.95 0.15 L-7.6 2.45 Q-8.25 -0.35 -4.65 -4.4 L-4.65 -5.65 -3.45 -6.5 Q-3.75 -7.8 -4.75 -8.45 L3.05 -6.95 Q0.45 -4.3 3.55 -1.55" fill="url(#gradient0)" fill-rule="evenodd" stroke="none"/>
  </g>
  <defs>
    <linearGradient gradientTransform="matrix(-8.0E-4, 0.0097, -0.0083, -7.0E-4, -1.75, 2.4)" gradientUnits="userSpaceOnUse" id="gradient0" spreadMethod="pad" x1="-819.2" x2="819.2">
      <stop offset="0.011764705882352941" stop-color="#000000" stop-opacity="0.85882354"/>
      <stop offset="1.0" stop-color="#000000" stop-opacity="0.24705882"/>
    </linearGradient>
  </defs>
</svg>
