<?xml version="1.0" encoding="UTF-8" standalone="no"?>
<svg xmlns:xlink="http://www.w3.org/1999/xlink" height="10.95px" width="81.15px" xmlns="http://www.w3.org/2000/svg">
  <g transform="matrix(1.0, 0.0, 0.0, 1.0, 40.55, 5.5)">
    <path d="M36.8 -1.2 L36.55 -0.95 Q35.9 -0.15 35.9 0.9 35.9 1.95 36.55 2.7 37.15 3.5 38.05 3.5 38.85 3.5 39.5 2.7 40.1 1.95 40.1 0.9 40.1 -0.15 39.5 -0.95 38.85 -1.7 38.05 -1.7 37.35 -1.7 36.8 -1.2 L34.4 -5.0 M-34.7 2.35 Q-34.7 3.4 -35.5 4.15 -36.3 4.95 -37.4 4.95 -38.45 4.95 -39.25 4.15 -40.05 3.4 -40.05 2.35 -40.05 1.3 -39.25 0.5 -38.45 -0.25 -37.4 -0.25 -36.3 -0.25 -35.5 0.5 -34.7 1.3 -34.7 2.35 M-35.65 0.05 L-32.75 -3.55" fill="none" stroke="#000000" stroke-linecap="round" stroke-linejoin="round" stroke-width="1.0"/>
  </g>
</svg>
