<?xml version="1.0" encoding="UTF-8" standalone="no"?>
<svg xmlns:xlink="http://www.w3.org/1999/xlink" height="32.65px" width="93.4px" xmlns="http://www.w3.org/2000/svg">
  <g transform="matrix(1.0, 0.0, 0.0, 1.0, 46.7, 16.3)">
    <path d="M-0.7 -6.4 L5.4 -6.95 5.5 -6.95 21.55 -8.45 23.55 -8.75 24.2 -8.9 24.25 -8.9 24.5 -8.95 24.95 -16.3 26.45 -13.3 26.7 -12.75 27.2 -11.4 27.3 -11.1 27.95 -8.95 32.9 -9.65 32.9 -9.8 32.3 -9.7 32.4 -10.55 33.25 -10.95 Q33.85 -12.35 35.2 -12.6 L36.95 -12.3 Q38.3 -11.3 38.6 -8.0 L38.8 -4.15 Q39.2 -6.3 39.1 -8.4 L38.8 -10.2 Q43.75 -10.45 46.7 -12.65 45.7 -6.75 38.75 -2.35 38.6 1.05 37.75 4.05 36.25 9.45 32.6 13.55 33.2 9.75 33.4 6.1 L33.45 0.5 Q33.3 -3.1 32.7 -6.5 L32.45 1.2 28.3 3.4 24.9 4.45 24.6 4.55 22.95 4.8 12.7 5.9 Q7.95 6.15 -1.15 5.65 L-7.1 5.05 -11.55 4.2 -11.0 16.35 -18.55 1.85 Q-34.8 -4.3 -46.7 -12.8 -32.3 -5.65 -19.6 -6.25 -18.95 -9.65 -15.25 -9.65 -12.25 -9.15 -11.9 -6.15 L-4.35 -6.4 Q-3.95 -10.75 -1.7 -14.15 -1.7 -10.0 -0.7 -6.4" fill="#fcf9f5" fill-rule="evenodd" stroke="none"/>
  </g>
</svg>
