<?xml version="1.0" encoding="UTF-8" standalone="no"?>
<svg xmlns:xlink="http://www.w3.org/1999/xlink" height="22.25px" width="14.65px" xmlns="http://www.w3.org/2000/svg">
  <g transform="matrix(1.0, 0.0, 0.0, 1.0, 7.35, 11.15)">
    <path d="M2.55 10.05 L-2.3 3.3 Q-4.1 2.1 -5.75 -1.35 -7.4 -4.4 -5.9 -7.1 -4.55 -9.15 -2.45 -10.2 -1.4 -10.75 -0.55 -9.95 2.7 -6.65 4.35 -3.0 L3.1 -1.85 Q1.7 -0.4 3.35 1.9 L6.45 7.0 6.5 7.45 6.55 7.7 6.3 8.45 5.3 9.5 3.9 10.25 3.05 10.35 2.75 10.25 2.5 10.05 2.55 10.05 Q2.3 9.4 2.8 9.05 L4.05 8.05 5.35 7.15 6.45 7.0 Q6.25 7.0 6.35 7.15 L6.5 7.45 M2.55 10.05 L2.75 10.25" fill="none" stroke="#000000" stroke-linecap="round" stroke-linejoin="round" stroke-width="1.5"/>
  </g>
</svg>
