<?xml version="1.0" encoding="UTF-8" standalone="no"?>
<svg xmlns:xlink="http://www.w3.org/1999/xlink" height="28.2px" width="62.8px" xmlns="http://www.w3.org/2000/svg">
  <g transform="matrix(1.0, 0.0, 0.0, 1.0, 31.4, 14.1)">
    <path d="M-28.6 -8.1 L-28.45 -10.9 -29.25 -11.25 Q-29.3 -11.15 -29.7 -11.05 L-30.2 -11.1 -30.6 -11.1 -31.0 -11.4 -31.05 -11.85 -31.0 -11.95 Q-31.55 -12.4 -31.3 -13.05 L-30.65 -13.5 -30.25 -13.9 -29.35 -14.05 -28.7 -13.7 -25.35 -13.4 -24.7 -13.7 Q-24.25 -13.8 -23.45 -13.3 L-22.85 -12.9 -22.35 -12.7 -21.6 -12.35 -21.2 -12.3 -20.75 -12.5 -19.95 -12.75 Q-19.45 -12.75 -19.0 -12.4 L-18.75 -12.15 -18.55 -12.15 -17.65 -12.05 -17.0 -11.55 -16.7 -10.95 Q-16.55 -10.4 -17.15 -10.1 -17.5 -9.9 -18.2 -9.8 L-18.7 -9.7 -19.05 -9.55 -19.15 -9.5 Q-19.1 -9.25 -19.35 -8.95 -19.65 -8.7 -20.05 -8.8 L-20.4 -8.95 -21.0 -9.3 -21.75 -9.25 -23.05 -9.3 -24.3 -9.75 -25.25 -9.85 -25.45 -9.85 -26.4 -7.65 Q-27.2 -5.05 -25.9 -3.65 -24.75 0.4 -23.2 4.2 -21.6 8.0 -20.9 10.6 -20.25 12.35 -22.05 13.7 -22.7 14.25 -23.35 14.05 L-24.15 13.25 Q-24.45 13.15 -24.4 12.65 -24.3 12.05 -24.65 11.75 L-24.85 11.55 -26.5 9.55 Q-26.7 9.1 -26.7 6.35 L-27.65 2.25 Q-28.35 -1.25 -28.15 -3.65 -28.95 -4.5 -28.6 -8.1 M26.35 -2.45 Q26.25 -5.25 26.65 -10.2 L25.9 -10.15 25.2 -10.25 24.4 -10.5 23.9 -10.45 Q23.05 -10.25 22.7 -11.0 L22.55 -11.25 22.1 -11.55 Q21.85 -11.75 21.85 -12.1 21.85 -12.8 22.15 -13.1 L22.65 -13.35 24.05 -13.3 24.55 -13.35 25.05 -13.35 25.1 -13.35 26.05 -13.6 Q26.55 -13.5 26.8 -13.1 L27.15 -13.1 27.2 -13.1 27.5 -13.45 28.1 -13.6 28.85 -12.9 29.2 -12.85 29.3 -12.85 29.85 -13.1 30.6 -13.0 Q31.3 -12.7 31.4 -11.8 L31.15 -10.9 30.75 -10.5 30.15 -10.15 29.55 -10.15 29.25 -10.25 29.0 -10.25 Q29.6 -3.7 29.15 1.95 28.65 7.75 27.35 9.25 26.7 10.7 24.9 11.35 23.0 12.0 23.3 9.45 L25.2 6.4 Q26.95 3.3 26.75 2.35 L26.35 -2.45" fill="#333333" fill-rule="evenodd" stroke="none"/>
  </g>
</svg>
