<?xml version="1.0" encoding="UTF-8" standalone="no"?>
<svg xmlns:xlink="http://www.w3.org/1999/xlink" height="67.55px" width="81.3px" xmlns="http://www.w3.org/2000/svg">
  <g transform="matrix(1.0, 0.0, 0.0, 1.0, 40.65, 33.8)">
    <path d="M22.6 -24.9 Q25.2 -26.3 28.3 -27.25 L28.95 -27.5 Q35.5 -29.2 39.75 -25.9 37.4 -19.95 31.0 -19.15 L29.9 -19.0 23.25 -19.6 Q20.0 -20.3 17.8 -21.75 19.9 -23.5 22.6 -24.9 21.4 -22.25 23.25 -19.6 M22.15 -28.35 L21.65 -28.1 Q19.95 -27.45 18.6 -27.15 L15.75 -27.1 17.3 -29.4 19.4 -31.45 19.7 -31.75 Q22.25 -33.7 24.8 -33.0 24.85 -29.85 22.15 -28.35 22.7 -29.7 22.1 -30.7 21.3 -31.9 19.4 -31.45 M17.3 -29.4 Q17.25 -28.0 18.6 -27.15 M7.0 -1.05 L7.35 -1.25 Q11.35 -2.85 14.25 -1.15 13.2 2.75 9.35 3.8 L8.65 3.9 4.45 4.1 Q2.35 3.9 0.8 3.2 L3.55 0.85 Q5.1 -0.2 7.0 -1.05 9.4 -1.0 10.05 0.85 10.5 2.35 9.35 3.8 M28.3 -27.25 Q32.1 -26.55 32.8 -23.6 33.15 -21.2 31.0 -19.15 M22.15 19.2 L22.6 18.9 Q27.2 16.2 31.15 17.8 30.65 22.8 25.95 24.85 L25.1 25.1 19.9 26.05 Q17.3 26.25 15.35 25.55 16.55 23.85 18.3 22.2 19.95 20.6 22.15 19.2 25.2 18.9 26.35 21.05 27.15 22.75 25.95 24.85 M36.05 14.3 L36.35 14.5 Q39.35 15.75 40.05 18.3 37.35 19.85 34.7 18.3 L34.2 17.95 31.85 15.8 Q30.75 14.55 30.4 13.4 L33.15 13.6 36.05 14.3 Q37.3 15.75 36.65 17.1 36.1 18.1 34.7 18.3 M33.15 13.6 Q31.95 14.2 31.85 15.8 M3.55 0.85 Q3.05 2.6 4.45 4.1 M9.95 16.8 Q8.9 15.55 8.5 14.3 L11.25 14.6 Q12.65 14.8 14.2 15.3 L14.45 15.45 Q17.45 16.75 18.15 19.25 15.5 20.85 12.8 19.25 L12.35 18.95 9.95 16.8 Q10.05 15.2 11.25 14.6 M12.8 19.25 Q14.25 19.1 14.8 18.05 15.45 16.75 14.2 15.3 M18.3 22.2 Q17.95 24.45 19.9 26.05 M-37.05 -13.8 L-35.15 -14.5 -35.45 -15.55 Q-35.45 -16.45 -34.8 -17.1 -34.1 -17.75 -33.25 -17.75 -32.3 -17.75 -31.7 -17.1 L-31.1 -16.2 -28.8 -17.05 -28.95 -17.8 Q-28.95 -18.85 -28.05 -19.6 -27.25 -20.35 -26.05 -20.35 -24.85 -20.35 -24.0 -19.6 -23.15 -18.85 -23.15 -17.8 -23.15 -16.75 -24.0 -16.05 -24.85 -15.3 -26.05 -15.3 -27.25 -15.3 -28.05 -16.05 L-28.8 -17.05 M-37.3 -13.25 Q-37.3 -12.7 -37.75 -12.25 -38.15 -11.85 -38.7 -11.85 -39.25 -11.85 -39.65 -12.25 -40.05 -12.7 -40.05 -13.25 -40.05 -13.8 -39.65 -14.2 -39.25 -14.6 -38.7 -14.6 -38.15 -14.6 -37.75 -14.2 -37.3 -13.8 -37.3 -13.25 M-31.1 -16.2 L-31.0 -15.55 Q-31.0 -14.6 -31.7 -14.0 -32.3 -13.3 -33.25 -13.3 -34.1 -13.3 -34.8 -14.0 L-35.15 -14.5 M-28.7 11.25 Q-29.25 14.05 -29.4 16.9 L-29.45 19.7 -29.25 22.85 Q-25.4 19.6 -24.25 20.9 -22.4 23.2 -28.8 26.75 L-27.2 33.15 M-29.45 19.7 Q-36.7 18.3 -34.85 15.3 -33.0 13.6 -29.4 16.9 M-29.25 22.85 L-28.8 26.75" fill="none" stroke="#000000" stroke-linecap="round" stroke-linejoin="round" stroke-width="1.2000000000000002"/>
  </g>
</svg>
