<?xml version="1.0" encoding="UTF-8" standalone="no"?>
<svg xmlns:xlink="http://www.w3.org/1999/xlink" height="53.75px" width="28.95px" xmlns="http://www.w3.org/2000/svg">
  <g transform="matrix(1.0, 0.0, 0.0, 1.0, 14.45, 26.9)">
    <path d="M7.15 -20.1 L6.9 -19.1 Q6.75 -18.65 6.35 -18.65 6.05 -18.65 5.8 -19.1 L5.6 -20.1 5.8 -21.1 Q6.05 -21.45 6.35 -21.45 6.75 -21.45 6.9 -21.1 L7.15 -20.1 M13.95 18.95 L13.6 18.9 13.5 18.65 13.7 18.2 14.1 17.8 14.45 17.85 14.5 18.2 14.35 18.65 13.95 18.95 M0.95 25.95 L0.9 25.15 Q1.0 24.75 1.3 24.7 L1.8 24.85 2.15 25.55 2.15 26.4 Q2.1 26.8 1.85 26.85 L1.35 26.65 0.95 25.95 M-0.65 -26.8 L-0.3 -26.4 -0.25 -25.9 -0.45 -25.65 -0.8 -25.7 -1.1 -26.15 -1.15 -26.65 -0.95 -26.85 -0.65 -26.8 M-14.4 4.8 L-14.4 4.1 -14.0 3.8 -13.6 4.0 -13.4 4.65 -13.45 5.25 -13.8 5.6 -14.15 5.35 -14.4 4.8 M-8.35 19.65 L-8.15 19.2 -7.8 18.8 -7.45 18.85 -7.35 19.2 -7.55 19.65 -7.95 19.95 -8.3 19.9 -8.35 19.65" fill="#000000" fill-rule="evenodd" stroke="none"/>
  </g>
</svg>
