<?xml version="1.0" encoding="UTF-8" standalone="no"?>
<svg xmlns:xlink="http://www.w3.org/1999/xlink" height="59.95px" width="80.1px" xmlns="http://www.w3.org/2000/svg">
  <g transform="matrix(1.0, 0.0, 0.0, 1.0, 40.05, 30.0)">
    <path d="M19.4 -28.25 L19.7 -28.55 Q22.25 -30.5 24.8 -29.8 24.85 -26.65 22.15 -25.15 L21.65 -24.9 Q19.95 -24.25 18.6 -23.95 L15.75 -23.9 17.3 -26.2 19.4 -28.25 M28.3 -24.05 L28.95 -24.3 Q35.5 -26.0 39.75 -22.7 37.4 -16.75 31.0 -15.95 L29.9 -15.8 23.25 -16.4 Q20.0 -17.1 17.8 -18.55 19.9 -20.3 22.6 -21.7 25.2 -23.1 28.3 -24.05 M22.15 22.4 L22.6 22.1 Q27.2 19.4 31.15 21.0 30.65 26.0 25.95 28.05 L25.1 28.3 19.9 29.25 Q17.3 29.45 15.35 28.75 16.55 27.05 18.3 25.4 19.95 23.8 22.15 22.4 M33.15 16.8 L36.05 17.5 36.35 17.7 Q39.35 18.95 40.05 21.5 37.35 23.05 34.7 21.5 L34.2 21.15 31.85 19.0 Q30.75 17.75 30.4 16.6 L33.15 16.8 M7.0 2.15 L7.35 1.95 Q11.35 0.35 14.25 2.05 13.2 5.95 9.35 7.0 L8.65 7.1 4.45 7.3 Q2.35 7.1 0.8 6.4 L3.55 4.05 Q5.1 3.0 7.0 2.15 M9.95 20.0 Q8.9 18.75 8.5 17.5 L11.25 17.8 Q12.65 18.0 14.2 18.5 L14.45 18.65 Q17.45 19.95 18.15 22.45 15.5 24.05 12.8 22.45 L12.35 22.15 9.95 20.0 M-28.8 -13.85 L-28.95 -14.6 Q-28.95 -15.65 -28.05 -16.4 -27.25 -17.15 -26.05 -17.15 -24.85 -17.15 -24.0 -16.4 -23.15 -15.65 -23.15 -14.6 -23.15 -13.55 -24.0 -12.85 -24.85 -12.1 -26.05 -12.1 -27.25 -12.1 -28.05 -12.85 L-28.8 -13.85 M-31.1 -13.0 L-31.0 -12.35 Q-31.0 -11.4 -31.7 -10.8 -32.3 -10.1 -33.25 -10.1 -34.1 -10.1 -34.8 -10.8 L-35.15 -11.3 -35.45 -12.35 Q-35.45 -13.25 -34.8 -13.9 -34.1 -14.55 -33.25 -14.55 -32.3 -14.55 -31.7 -13.9 L-31.1 -13.0 M-37.3 -10.05 Q-37.3 -9.5 -37.75 -9.05 -38.15 -8.65 -38.7 -8.65 -39.25 -8.65 -39.65 -9.05 -40.05 -9.5 -40.05 -10.05 -40.05 -10.6 -39.65 -11.0 -39.25 -11.4 -38.7 -11.4 -38.15 -11.4 -37.75 -11.0 -37.3 -10.6 -37.3 -10.05 M-29.4 20.1 L-29.45 22.9 Q-36.7 21.5 -34.85 18.5 -33.0 16.8 -29.4 20.1 M-29.25 26.05 Q-25.4 22.8 -24.25 24.1 -22.4 26.4 -28.8 29.95 L-29.25 26.05" fill="#ae2f60" fill-rule="evenodd" stroke="none"/>
  </g>
</svg>
