<?xml version="1.0" encoding="UTF-8" standalone="no"?>
<svg xmlns:xlink="http://www.w3.org/1999/xlink" height="15.15px" width="17.3px" xmlns="http://www.w3.org/2000/svg">
  <g transform="matrix(1.0, 0.0, 0.0, 1.0, 8.65, 7.6)">
    <path d="M-3.3 -2.65 Q-1.75 -0.45 -1.1 -0.1 -5.85 2.3 -7.85 -0.55 -9.4 -2.65 -7.85 -4.75 -6.85 -6.25 -3.85 -7.5 -1.2 -8.05 -0.7 -5.9 0.1 -4.3 -1.4 -2.9 L-3.3 -2.65 M4.9 3.45 L8.65 3.6 Q7.7 7.05 3.9 7.55 -0.5 7.5 -0.75 4.05 -0.55 1.45 2.1 -1.4 3.95 -2.95 6.1 -1.4 7.2 -0.25 6.85 0.85 L4.9 3.45" fill="#43363a" fill-rule="evenodd" stroke="none"/>
  </g>
</svg>
