<?xml version="1.0" encoding="UTF-8" standalone="no"?>
<svg xmlns:xlink="http://www.w3.org/1999/xlink" height="18.2px" width="27.55px" xmlns="http://www.w3.org/2000/svg">
  <g transform="matrix(1.0, 0.0, 0.0, 1.0, 13.8, 9.1)">
    <path d="M11.8 -6.55 L13.25 -4.5 13.0 -3.15 Q11.95 0.5 9.65 4.9 L8.8 6.55 Q8.2 7.85 7.4 8.15 L3.3 8.6 -0.75 8.1 -3.0 6.6 -4.9 5.15 -7.2 3.3 -9.05 1.1 -9.9 -0.2 -9.95 -0.3 Q-11.65 -2.65 -12.45 -4.3 -13.15 -5.4 -13.3 -6.25 -13.15 -7.05 -11.0 -8.6 M13.0 -3.15 L10.8 -2.25 Q0.05 -7.5 -9.2 -3.0 -11.7 -4.3 -12.45 -4.3 M-9.9 -0.2 Q-0.75 -2.35 5.25 1.55 5.9 1.85 6.6 2.45 7.95 3.65 8.1 4.5 8.95 4.3 9.65 4.9 M8.1 4.5 Q8.3 5.35 6.85 5.65 2.1 7.0 -4.9 5.15 M13.25 -4.5 Q3.55 -8.8 -3.85 -7.5 L-13.3 -6.25" fill="none" stroke="#000000" stroke-linecap="round" stroke-linejoin="round" stroke-width="1.0"/>
  </g>
</svg>
