<?xml version="1.0" encoding="UTF-8" standalone="no"?>
<svg xmlns:xlink="http://www.w3.org/1999/xlink" height="7.6px" width="30.3px" xmlns="http://www.w3.org/2000/svg">
  <g transform="matrix(1.0, 0.0, 0.0, 1.0, 15.1, 3.8)">
    <path d="M-14.75 -1.05 Q-14.85 -2.15 -13.55 -2.05 -12.7 -2.1 -12.65 -1.3 -12.55 -0.3 -13.15 -0.05 -14.65 -0.2 -14.75 -1.05 M-8.15 -1.5 Q-9.45 -0.8 -9.75 -2.05 -9.8 -3.1 -8.6 -3.45 -7.25 -3.45 -7.3 -2.6 -6.95 -1.55 -8.15 -1.5 M-5.6 3.1 Q-7.05 3.8 -7.95 2.85 -9.05 1.4 -7.35 0.7 -6.1 -0.05 -5.2 1.05 -4.45 2.45 -5.6 3.1" fill="none" stroke="#000000" stroke-linecap="round" stroke-linejoin="round" stroke-width="0.7000000000000001"/>
    <path d="M14.7 -1.65 Q7.45 -2.0 -2.5 0.7 -1.7 1.85 -1.05 3.3 M-5.0 -1.85 L-2.5 0.7" fill="none" stroke="#000000" stroke-linecap="round" stroke-linejoin="round" stroke-width="1.0"/>
  </g>
</svg>
