<?xml version="1.0" encoding="UTF-8" standalone="no"?>
<svg xmlns:xlink="http://www.w3.org/1999/xlink" height="7.85px" width="24.0px" xmlns="http://www.w3.org/2000/svg">
  <g transform="matrix(1.0, 0.0, 0.0, 1.0, 12.0, 3.95)">
    <path d="M9.95 -1.6 Q7.05 -2.05 5.3 -2.85 1.75 -4.05 -2.65 -2.8 -7.1 -1.25 -9.35 -0.95 L-11.5 -1.1 Q-10.5 0.8 -9.15 1.85 L-8.95 2.0 Q-8.0 2.7 -6.85 2.95 L-6.1 3.1 -6.05 3.1 -5.45 3.15 1.2 3.35 Q4.35 3.55 6.8 2.6 L7.25 2.4 Q9.55 1.35 11.1 -0.8 L11.5 -1.4 9.95 -1.6" fill="none" stroke="#000000" stroke-linecap="round" stroke-linejoin="round" stroke-width="1.0"/>
    <path d="M-9.35 -0.95 L-8.4 -0.2 -6.75 1.4 -6.1 2.0 -4.5 0.25 M7.25 2.4 L5.7 0.75" fill="none" stroke="#000000" stroke-linecap="round" stroke-linejoin="round" stroke-width="0.8"/>
    <path d="M9.95 -1.6 L7.25 2.4 M5.7 0.75 L-4.55 0.7 M-8.95 2.0 L-7.5 1.55 -6.75 1.4" fill="none" stroke="#000000" stroke-linecap="round" stroke-linejoin="round" stroke-width="0.7000000000000001"/>
  </g>
</svg>
