<?xml version="1.0" encoding="UTF-8" standalone="no"?>
<svg xmlns:xlink="http://www.w3.org/1999/xlink" height="8.45px" width="25.15px" xmlns="http://www.w3.org/2000/svg">
  <g transform="matrix(1.0, 0.0, 0.0, 1.0, 12.6, 4.25)">
    <path d="M7.35 -4.2 L12.55 -4.0 12.3 -2.75 9.8 -0.1 7.35 -4.2 3.7 0.15 -0.25 -4.0 -5.2 0.65 -7.7 -2.75 Q-4.55 -2.85 -2.5 -3.65 L-0.25 -4.0 6.4 -4.2 7.35 -4.2 M-4.05 3.9 L-0.35 -0.05 2.65 4.15 -4.05 3.9 M-11.5 1.25 L-9.75 -0.5 -7.45 3.2 Q-9.9 2.5 -11.5 1.25 M-9.5 -2.75 L-11.45 -0.55 -12.6 -2.95 -9.5 -2.75 M4.2 4.05 L7.05 0.25 8.9 3.05 Q7.85 3.7 6.6 3.85 L4.2 4.05" fill="#f2fef4" fill-rule="evenodd" stroke="none"/>
  </g>
</svg>
