<?xml version="1.0" encoding="UTF-8" standalone="no"?>
<svg xmlns:xlink="http://www.w3.org/1999/xlink" height="8.2px" width="24.0px" xmlns="http://www.w3.org/2000/svg">
  <g transform="matrix(1.0, 0.0, 0.0, 1.0, 12.0, 4.1)">
    <path d="M-4.6 3.6 Q-10.5 2.35 -12.0 -2.85 0.15 -5.35 6.9 -2.85 13.65 -0.35 11.5 1.4 9.3 3.1 4.1 4.1 12.25 1.7 5.8 0.75 9.95 -0.95 8.05 -2.0 1.6 -4.35 -8.7 -3.05 -8.9 -0.5 -6.75 -0.7 -5.2 -0.35 -4.2 0.5 -1.75 -0.4 0.95 0.55 -2.65 0.15 -4.25 1.4 -7.05 -0.85 -8.55 0.4 -9.5 1.1 -4.6 3.6" fill="#663232" fill-rule="evenodd" stroke="none"/>
  </g>
</svg>
