<?xml version="1.0" encoding="UTF-8" standalone="no"?>
<svg xmlns:xlink="http://www.w3.org/1999/xlink" height="4.25px" width="10.65px" xmlns="http://www.w3.org/2000/svg">
  <g transform="matrix(1.0, 0.0, 0.0, 1.0, 5.3, 2.1)">
    <path d="M5.35 0.0 Q4.45 2.05 0.7 2.15 -4.7 2.15 -5.3 0.4 L1.35 0.05 0.4 0.25 Q-0.05 0.45 -0.05 0.7 L0.4 1.1 1.55 1.3 2.6 1.1 3.1 0.7 Q3.1 0.45 2.6 0.25 L1.75 0.05 5.35 0.0" fill="#2f291d" fill-rule="evenodd" stroke="none"/>
    <path d="M5.35 0.0 L1.75 0.05 2.6 0.25 Q3.1 0.45 3.1 0.7 L2.6 1.1 1.55 1.3 0.4 1.1 -0.05 0.7 Q-0.05 0.45 0.4 0.25 L1.35 0.05 -5.3 0.4 Q-2.8 -3.15 0.6 -1.3 3.75 -3.4 5.35 0.0" fill="#2a2522" fill-rule="evenodd" stroke="none"/>
  </g>
</svg>
