<?xml version="1.0" encoding="UTF-8" standalone="no"?>
<svg xmlns:xlink="http://www.w3.org/1999/xlink" height="10.25px" width="20.6px" xmlns="http://www.w3.org/2000/svg">
  <g transform="matrix(1.0, 0.0, 0.0, 1.0, 10.3, 5.15)">
    <path d="M-10.05 -0.25 L-10.3 -0.35 Q-7.85 -0.3 -5.75 -2.1 -2.85 -4.6 1.55 -5.15 4.5 -5.15 6.55 -2.85 8.55 -0.85 10.2 -0.6 L10.3 -0.6 9.0 0.25 8.65 0.45 Q7.75 1.1 6.95 2.15 L6.9 2.15 6.85 2.2 6.85 2.25 6.65 2.45 Q5.75 3.65 4.7 4.3 3.55 5.05 2.3 5.1 -1.5 5.1 -3.45 3.85 L-4.35 3.25 -7.35 1.35 -7.5 1.2 -7.8 1.05 -9.85 -0.1 -9.9 -0.15 -9.9 -0.2 -10.05 -0.25 M6.95 -0.9 L6.8 -0.95 Q3.5 -2.7 1.65 -2.7 -1.6 -2.15 -5.8 -0.25 L-5.15 0.15 Q-2.5 1.45 1.5 1.4 4.9 0.95 6.65 -0.6 L6.95 -0.9" fill="#bb203a" fill-rule="evenodd" stroke="none"/>
  </g>
</svg>
