<?xml version="1.0" encoding="UTF-8" standalone="no"?>
<svg xmlns:xlink="http://www.w3.org/1999/xlink" height="16.4px" width="16.65px" xmlns="http://www.w3.org/2000/svg">
  <g transform="matrix(1.0, 0.0, 0.0, 1.0, 8.3, 8.2)">
    <path d="M0.85 -1.85 Q2.3 -4.05 2.65 -5.35 L2.7 -5.45 2.7 -6.7 Q2.2 -8.2 -1.25 -7.65 -4.1 -6.7 -3.95 -5.0 -3.9 -3.4 -1.0 -0.9 L-0.7 -1.4 -0.35 -1.6 0.45 -1.9 0.6 -1.9 0.85 -1.85 1.8 -1.4 2.35 -0.35 Q5.85 -0.95 6.45 -3.3 7.3 -7.15 2.7 -6.7 M2.35 -0.35 L2.35 -0.1 2.3 0.3 1.8 1.1 1.65 1.2 Q1.2 1.65 0.6 1.65 L1.6 3.85 Q4.25 8.8 7.1 4.7 10.1 -0.4 2.35 -0.35 M-3.95 -5.0 Q-7.15 -5.35 -7.85 -2.7 -8.45 1.95 -3.05 0.85 L-1.2 0.1 -1.2 -0.1 -1.1 -0.4 -1.0 -0.9 M0.6 1.65 L-0.35 1.35 -0.7 1.1 -0.85 0.95 -1.2 0.1 M1.6 3.85 Q1.35 9.65 -4.1 6.9 -9.9 3.85 -3.05 0.85" fill="none" stroke="#000000" stroke-linecap="round" stroke-linejoin="round" stroke-width="0.8"/>
  </g>
</svg>
