<?xml version="1.0" encoding="UTF-8" standalone="no"?>
<svg xmlns:xlink="http://www.w3.org/1999/xlink" height="11.85px" width="15.7px" xmlns="http://www.w3.org/2000/svg">
  <g transform="matrix(1.0, 0.0, 0.0, 1.0, 7.85, 5.9)">
    <path d="M-2.65 1.5 L-3.15 1.1 Q-3.6 0.45 -3.25 -0.3 -2.75 -1.35 -1.75 -0.6 -0.55 0.1 -0.75 1.15 L-0.8 1.3 Q-1.25 2.45 -2.65 1.5 M-2.1 -5.9 Q-1.8 -4.9 -3.15 -4.55 -4.25 -4.35 -4.35 -4.95 L-3.3 -5.2 Q-2.65 -5.45 -2.1 -5.9 M-7.15 -2.4 L-6.0 -2.25 Q-5.0 -1.75 -5.2 -0.5 -5.45 0.6 -6.85 0.25 L-7.4 0.05 Q-7.95 -0.4 -7.85 -1.4 L-7.85 -1.5 Q-7.7 -2.3 -7.15 -2.4 M5.6 -2.0 Q4.2 -2.7 4.0 -3.35 3.8 -3.85 4.35 -4.3 5.15 -3.6 5.4 -2.75 L5.45 -2.65 5.45 -2.55 5.6 -2.0 M-1.1 -3.5 L-0.5 -3.75 0.7 -3.55 0.9 -3.45 Q1.45 -3.15 1.45 -2.5 1.65 -1.4 0.45 -1.55 -0.8 -1.35 -1.3 -2.7 -1.5 -3.2 -1.1 -3.5 M-5.25 4.4 Q-5.4 3.15 -4.7 2.85 L-4.25 2.75 Q-3.2 2.95 -2.85 4.0 L-2.75 4.4 Q-2.6 5.4 -4.55 4.95 L-5.25 4.4 M3.85 5.45 Q3.1 6.15 1.65 5.9 0.75 5.3 0.65 4.75 0.55 4.25 1.15 3.8 1.55 3.55 1.95 3.5 L3.35 3.75 3.6 3.9 Q4.3 4.45 3.85 5.45 M7.85 2.65 Q7.15 2.95 6.35 2.45 L6.0 2.1 5.6 1.45 5.6 1.0 5.9 0.6 6.1 0.5 Q6.6 0.35 7.2 0.7 L7.45 0.9 7.7 1.35 7.85 2.45 7.85 2.65" fill="#421009" fill-rule="evenodd" stroke="none"/>
  </g>
</svg>
