<?xml version="1.0" encoding="UTF-8" standalone="no"?>
<svg xmlns:xlink="http://www.w3.org/1999/xlink" height="12.5px" width="18.2px" xmlns="http://www.w3.org/2000/svg">
  <g transform="matrix(1.0, 0.0, 0.0, 1.0, 9.1, 6.25)">
    <path d="M-0.45 -5.3 Q0.85 -6.25 2.55 -6.25 4.05 -6.25 5.3 -5.45 6.85 -6.45 8.25 -4.75 9.65 -2.95 8.8 -1.1 L7.75 1.05 7.85 1.7 Q8.0 3.1 6.8 5.0 5.5 6.85 3.1 6.0 L-1.8 5.85 -6.15 5.7 Q-8.6 4.9 -8.05 2.5 -8.0 1.15 -8.3 0.0 L-8.9 -2.0 Q-9.75 -3.7 -7.25 -5.45 -4.85 -7.15 -0.45 -5.3" fill="#ffb1e4" fill-rule="evenodd" stroke="none"/>
  </g>
</svg>
