<?xml version="1.0" encoding="UTF-8" standalone="no"?>
<svg xmlns:xlink="http://www.w3.org/1999/xlink" height="8.4px" width="24.5px" xmlns="http://www.w3.org/2000/svg">
  <g transform="matrix(1.0, 0.0, 0.0, 1.0, 12.25, 4.2)">
    <path d="M0.55 0.45 L0.25 0.2 Q-0.55 -0.75 0.05 -1.65 1.0 -2.3 1.9 -1.4 L3.75 0.25 Q4.5 0.7 4.75 -0.6 L5.35 -1.35 Q6.6 -1.6 7.35 -0.5 8.3 0.5 8.15 1.4 L8.15 1.55 Q7.85 3.45 6.6 3.2 6.0 3.1 5.7 2.7 5.6 2.05 4.55 2.2 L3.0 2.6 Q1.25 3.2 1.15 2.05 1.05 1.05 0.55 0.45 4.85 0.3 8.15 1.55 M8.4 -2.8 L8.7 -2.1 Q9.35 -0.95 9.2 -0.15 9.1 1.15 9.55 1.5 10.5 2.6 11.2 1.3 11.9 -0.05 11.7 -0.45 L11.2 -1.35 10.4 -2.7 Q9.8 -3.65 9.05 -3.7 8.25 -3.75 8.4 -2.8 M-10.25 1.85 Q-11.9 1.6 -11.75 0.3 -11.4 -0.7 -9.8 -0.85 -8.55 -0.85 -7.25 0.1 -6.55 0.6 -5.9 -0.25 L-3.8 -1.85 Q-2.75 -2.3 -2.05 -1.55 -1.5 -1.05 -2.0 -0.25 L-2.2 0.35 -2.2 1.15 Q-2.1 1.65 -1.35 1.85 -0.45 2.15 -0.9 2.75 -1.5 3.7 -3.15 3.7 -4.55 3.75 -5.5 2.45 -6.4 1.65 -8.75 1.85 L-10.25 1.85 Q-6.6 0.3 -2.2 0.35" fill="none" stroke="#000000" stroke-linecap="round" stroke-linejoin="round" stroke-width="1.0"/>
  </g>
</svg>
