<?xml version="1.0" encoding="UTF-8" standalone="no"?>
<svg xmlns:xlink="http://www.w3.org/1999/xlink" height="12.8px" width="22.4px" xmlns="http://www.w3.org/2000/svg">
  <g transform="matrix(1.0, 0.0, 0.0, 1.0, 11.2, 6.4)">
    <path d="M-10.55 5.05 Q-10.9 4.65 -8.3 1.4 L-5.5 -2.6 Q-4.7 -3.85 -3.65 -3.75 -3.2 -3.75 -2.65 -3.25 -1.9 -2.5 -1.25 -3.7 L0.1 -5.55 1.35 -5.5 Q1.9 -4.95 2.3 -3.85 2.7 -2.95 3.3 -3.7 L4.5 -4.95 Q5.4 -5.7 5.9 -5.45 L6.55 -4.8 Q7.05 -3.95 7.7 -4.55 8.4 -5.05 8.65 -3.7 L9.6 0.05 10.5 3.8 Q10.8 4.55 10.0 4.85 L9.35 5.05 6.4 5.35 -1.7 5.6 -6.45 5.8 Q-9.85 5.7 -10.55 5.05 Z" fill="none" stroke="#000000" stroke-linecap="round" stroke-linejoin="round" stroke-width="1.2000000000000002"/>
  </g>
</svg>
