<?xml version="1.0" encoding="UTF-8" standalone="no"?>
<svg xmlns:xlink="http://www.w3.org/1999/xlink" height="13.9px" width="31.7px" xmlns="http://www.w3.org/2000/svg">
  <g transform="matrix(1.0, 0.0, 0.0, 1.0, 15.85, 6.95)">
    <path d="M-5.05 1.75 Q-2.45 -1.55 1.7 -2.55 5.75 -3.15 8.45 -2.05 10.6 -0.85 11.05 1.6" fill="none" stroke="#000000" stroke-linecap="round" stroke-linejoin="round" stroke-width="0.8"/>
    <path d="M-12.2 0.95 Q-15.6 -0.8 -15.2 -3.5 -14.3 -6.2 -9.8 -6.35 L-2.25 -4.8 7.95 -5.2 Q14.65 -7.6 15.2 -3.95 15.55 -0.35 11.05 1.6 L11.1 3.75 Q10.3 6.4 7.75 6.3 6.0 6.65 4.05 4.4 L1.2 1.85 Q-1.4 1.6 -5.05 1.75 -9.45 2.3 -12.2 0.95" fill="none" stroke="#000000" stroke-linecap="round" stroke-linejoin="round" stroke-width="1.2000000000000002"/>
  </g>
</svg>
