<?xml version="1.0" encoding="UTF-8" standalone="no"?>
<svg xmlns:xlink="http://www.w3.org/1999/xlink" height="9.8px" width="14.7px" xmlns="http://www.w3.org/2000/svg">
  <g transform="matrix(1.0, 0.0, 0.0, 1.0, 7.35, 4.9)">
    <path d="M-7.2 -3.95 Q-6.15 -2.0 -3.7 0.4 -3.0 -0.65 -2.55 -2.75 L2.85 -2.7 4.65 0.5 5.15 -0.2 Q6.1 -1.8 6.4 -4.9 L6.8 -4.75 Q7.85 -3.05 6.85 -0.3 L6.5 0.7 Q5.85 2.45 4.75 3.5 L3.05 1.8 Q1.85 2.9 1.6 4.85 L-1.15 4.9 Q-1.85 3.5 -3.5 1.75 L-5.1 3.85 Q-6.5 2.8 -6.85 0.65 -7.6 -2.55 -7.2 -3.95" fill="#ec839a" fill-rule="evenodd" stroke="none"/>
  </g>
</svg>
