<?xml version="1.0" encoding="UTF-8" standalone="no"?>
<svg xmlns:xlink="http://www.w3.org/1999/xlink" height="17.45px" width="21.75px" xmlns="http://www.w3.org/2000/svg">
  <g transform="matrix(1.0, 0.0, 0.0, 1.0, 10.95, 8.8)">
    <path d="M-8.45 -6.0 Q-5.4 -8.45 1.95 -7.95 6.45 -7.3 8.9 -4.5 10.4 -2.3 8.7 -1.25 L9.2 -0.3 9.75 0.7 9.25 2.3 Q11.6 4.3 9.25 4.9 L8.35 5.65 Q8.7 7.35 5.65 7.8 -0.7 8.7 -5.15 7.8 -8.7 7.05 -8.15 5.05 L-8.2 5.0 -8.3 4.9 Q-11.0 3.85 -8.8 2.8 -9.4 1.95 -8.85 0.8 L-9.4 0.6 -10.1 0.4 -8.4 -0.9 -9.1 -1.1 Q-10.3 -2.05 -10.35 -3.4 M8.7 -1.25 Q7.85 -0.75 6.2 -0.55 -0.7 1.0 -8.4 -0.9 M-8.8 2.8 Q-7.65 4.5 -2.15 4.8 L4.7 4.8 Q8.15 4.45 9.25 2.3 M8.35 5.65 L6.2 5.6 Q4.6 6.95 2.2 6.0 0.5 7.1 -1.2 6.0 -3.35 7.05 -5.0 6.0 -6.85 6.5 -8.15 5.05 M-9.4 0.6 Q-6.25 1.5 1.2 1.8 6.3 1.05 9.2 -0.3 M9.75 0.7 Q6.35 2.4 -0.65 4.65 L-8.85 0.8" fill="none" stroke="#000000" stroke-linecap="round" stroke-linejoin="round" stroke-width="0.8"/>
    <path d="M-10.35 -3.4 Q-8.5 -4.05 -8.45 -6.0 L-8.85 -8.2" fill="none" stroke="#000000" stroke-linecap="round" stroke-linejoin="round" stroke-width="1.2000000000000002"/>
  </g>
</svg>
