<?xml version="1.0" encoding="UTF-8" standalone="no"?>
<svg xmlns:xlink="http://www.w3.org/1999/xlink" height="20.3px" width="29.85px" xmlns="http://www.w3.org/2000/svg">
  <g transform="matrix(1.0, 0.0, 0.0, 1.0, 15.0, 10.15)">
    <path d="M-11.45 -8.55 Q-5.9 -10.8 -1.3 -8.55 1.75 -6.85 3.65 -2.45 4.0 -0.9 5.95 0.85 L9.8 2.9 Q12.8 1.35 14.3 2.9 15.05 4.95 12.35 6.6 12.35 9.15 10.75 9.6 9.05 10.3 8.7 7.4 8.3 4.95 7.45 4.65 L5.0 3.45 -1.4 3.7 Q-9.3 5.55 -13.1 -2.15 M5.95 0.85 Q5.2 2.15 5.0 3.45" fill="none" stroke="#000000" stroke-linecap="round" stroke-linejoin="round" stroke-width="0.8"/>
    <path d="M-13.1 -2.15 Q-13.65 -1.75 -14.4 -1.75 M-11.45 -8.55 Q-10.9 -7.25 -11.65 -4.5 -12.2 -2.8 -13.1 -2.15 M-12.6 -9.55 Q-11.8 -9.3 -11.45 -8.55 Z" fill="none" stroke="#000000" stroke-linecap="round" stroke-linejoin="round" stroke-width="1.2000000000000002"/>
  </g>
</svg>
