<?xml version="1.0" encoding="UTF-8" standalone="no"?>
<svg xmlns:xlink="http://www.w3.org/1999/xlink" height="8.1px" width="14.25px" xmlns="http://www.w3.org/2000/svg">
  <g transform="matrix(1.0, 0.0, 0.0, 1.0, 7.15, 4.05)">
    <path d="M0.5 -3.35 Q3.55 -3.05 6.5 -1.9 5.7 0.5 3.95 1.95 4.15 -1.6 0.5 -3.35" fill="#4f2628" fill-rule="evenodd" stroke="none"/>
    <path d="M0.5 -3.35 Q4.15 -1.6 3.95 1.95 2.25 3.15 -0.25 3.45 -6.0 2.85 -6.55 -2.75 -2.95 -3.65 0.5 -3.35" fill="#ec839a" fill-rule="evenodd" stroke="none"/>
    <path d="M3.95 1.95 Q5.7 0.5 6.5 -1.9 3.55 -3.05 0.5 -3.35 -2.95 -3.65 -6.55 -2.75 -6.0 2.85 -0.25 3.45 2.25 3.15 3.95 1.95 Z" fill="none" stroke="#000000" stroke-linecap="round" stroke-linejoin="round" stroke-width="1.2000000000000002"/>
  </g>
</svg>
