<?xml version="1.0" encoding="UTF-8" standalone="no"?>
<svg xmlns:xlink="http://www.w3.org/1999/xlink" height="6.4px" width="16.6px" xmlns="http://www.w3.org/2000/svg">
  <g transform="matrix(1.0, 0.0, 0.0, 1.0, 8.3, 3.3)">
    <path d="M-4.0 -2.05 L-1.0 -2.65 2.15 -2.65 Q7.2 -2.55 7.7 -0.75 L7.5 0.3 Q7.2 0.95 6.3 1.45 4.45 -1.3 -4.0 -2.05" fill="#4f2628" fill-rule="evenodd" stroke="none"/>
    <path d="M6.3 1.45 Q4.55 2.3 0.3 2.45 -9.3 2.95 -7.35 -0.35 -6.85 -1.15 -5.65 -1.6 L-4.0 -2.05 Q4.45 -1.3 6.3 1.45" fill="#ec839a" fill-rule="evenodd" stroke="none"/>
    <path d="M-4.0 -2.05 L-1.0 -2.65 2.15 -2.65 Q7.2 -2.55 7.7 -0.75 L7.5 0.3 Q7.2 0.95 6.3 1.45 4.55 2.3 0.3 2.45 -9.3 2.95 -7.35 -0.35 -6.85 -1.15 -5.65 -1.6 L-4.0 -2.05 Z" fill="none" stroke="#000000" stroke-linecap="round" stroke-linejoin="round" stroke-width="1.2000000000000002"/>
  </g>
</svg>
