<?xml version="1.0" encoding="UTF-8" standalone="no"?>
<svg xmlns:xlink="http://www.w3.org/1999/xlink" height="8.9px" width="20.8px" xmlns="http://www.w3.org/2000/svg">
  <g transform="matrix(1.0, 0.0, 0.0, 1.0, 10.4, 4.65)">
    <path d="M6.95 1.65 Q4.9 3.4 1.25 3.6 -6.85 4.15 -9.8 -3.45 -8.05 -3.8 -6.9 -3.45 L-4.95 -2.05 -3.1 -3.8 0.5 -4.05 3.2 -4.05 Q7.15 -2.5 6.95 1.65" fill="#ec839a" fill-rule="evenodd" stroke="none"/>
    <path d="M3.2 -4.05 L5.4 -3.7 9.8 -3.25 Q9.1 0.1 6.95 1.65 7.15 -2.5 3.2 -4.05" fill="#3a1616" fill-rule="evenodd" stroke="none"/>
    <path d="M3.2 -4.05 L5.4 -3.7 9.8 -3.25 Q9.1 0.1 6.95 1.65 4.9 3.4 1.25 3.6 -6.85 4.15 -9.8 -3.45 -8.05 -3.8 -6.9 -3.45 L-4.95 -2.05 -3.1 -3.8 0.5 -4.05 3.2 -4.05 Z" fill="none" stroke="#000000" stroke-linecap="round" stroke-linejoin="round" stroke-width="1.2000000000000002"/>
  </g>
</svg>
