<?xml version="1.0" encoding="UTF-8" standalone="no"?>
<svg xmlns:xlink="http://www.w3.org/1999/xlink" height="10.5px" width="23.75px" xmlns="http://www.w3.org/2000/svg">
  <g transform="matrix(1.0, 0.0, 0.0, 1.0, 11.9, 5.25)">
    <path d="M10.5 -3.6 L11.25 -3.25 Q10.75 -0.3 8.75 1.55 7.45 -2.55 4.8 -4.5 L6.15 -4.4 8.05 -1.1 10.5 -3.6" fill="#38131b" fill-rule="evenodd" stroke="none"/>
    <path d="M10.5 -3.6 L8.05 -1.1 6.15 -4.4 10.5 -3.6 M-9.2 -3.8 L-3.15 -4.55 -5.35 -0.95 -9.2 -3.8" fill="#ffffff" fill-rule="evenodd" stroke="none"/>
    <path d="M4.8 -4.5 Q7.45 -2.55 8.75 1.55 5.95 4.1 0.15 4.65 -8.85 3.7 -11.3 -3.1 L-9.2 -3.8 -5.35 -0.95 -3.15 -4.55 1.55 -4.65 4.8 -4.5" fill="#ec839a" fill-rule="evenodd" stroke="none"/>
    <path d="M8.75 1.55 Q10.75 -0.3 11.25 -3.25 L10.5 -3.6 8.05 -1.1 6.15 -4.4 4.8 -4.5 1.55 -4.65 -3.15 -4.55 -5.35 -0.95 -9.2 -3.8 -3.15 -4.55 M8.75 1.55 Q5.95 4.1 0.15 4.65 -8.85 3.7 -11.3 -3.1 L-9.2 -3.8 M10.5 -3.6 L6.15 -4.4" fill="none" stroke="#000000" stroke-linecap="round" stroke-linejoin="round" stroke-width="1.2000000000000002"/>
  </g>
</svg>
