<?xml version="1.0" encoding="UTF-8" standalone="no"?>
<svg xmlns:xlink="http://www.w3.org/1999/xlink" height="10.05px" width="14.2px" xmlns="http://www.w3.org/2000/svg">
  <g transform="matrix(1.0, 0.0, 0.0, 1.0, 7.35, 5.1)">
    <path d="M-0.2 -4.4 L-1.0 -2.4 -1.8 -0.4 -4.1 -2.55 Q-2.6 -4.1 -0.2 -4.4" fill="#ffffff" fill-rule="evenodd" stroke="none"/>
    <path d="M-1.0 -2.4 L-0.2 -4.4 0.8 -4.5 Q5.65 -3.65 6.25 2.65 6.1 3.05 5.4 3.25 4.05 -0.95 -1.0 -2.4" fill="#7b2a3c" fill-rule="evenodd" stroke="none"/>
    <path d="M-4.1 -2.55 L-1.8 -0.4 -1.0 -2.4 Q4.05 -0.95 5.4 3.25 4.0 3.95 0.4 4.3 -6.2 4.55 -6.75 3.2 -5.95 -0.65 -4.1 -2.55" fill="#ec839a" fill-rule="evenodd" stroke="none"/>
    <path d="M-1.0 -2.4 L-0.2 -4.4 M-4.1 -2.55 L-1.8 -0.4 -1.0 -2.4" fill="none" stroke="#000000" stroke-linecap="round" stroke-linejoin="round" stroke-width="0.5"/>
    <path d="M-0.2 -4.4 Q-2.6 -4.1 -4.1 -2.55 -5.95 -0.65 -6.75 3.2 -6.2 4.55 0.4 4.3 4.0 3.95 5.4 3.25 6.1 3.05 6.25 2.65 5.65 -3.65 0.8 -4.5 L-0.2 -4.4" fill="none" stroke="#000000" stroke-linecap="round" stroke-linejoin="round" stroke-width="1.2000000000000002"/>
  </g>
</svg>
