<?xml version="1.0" encoding="UTF-8" standalone="no"?>
<svg xmlns:xlink="http://www.w3.org/1999/xlink" height="15.9px" width="39.1px" xmlns="http://www.w3.org/2000/svg">
  <g transform="matrix(1.0, 0.0, 0.0, 1.0, 23.4, 9.85)">
    <path d="M-7.0 -3.85 L-6.85 -3.85 4.05 -0.75 8.7 0.4 15.05 1.7 Q10.35 5.55 2.25 5.4 0.05 -0.65 -7.0 -3.85" fill="#38131b" fill-rule="evenodd" stroke="none"/>
    <path d="M2.25 5.4 Q-2.25 5.25 -7.75 3.85 -21.0 0.05 -22.75 -9.2 L-13.2 -5.85 -7.1 -3.9 -7.0 -3.85 Q0.05 -0.65 2.25 5.4" fill="#ec839a" fill-rule="evenodd" stroke="none"/>
    <path d="M-7.0 -3.85 L-6.85 -3.85 4.05 -0.75 8.7 0.4 15.05 1.7 Q10.35 5.55 2.25 5.4 -2.25 5.25 -7.75 3.85 -21.0 0.05 -22.75 -9.2 L-13.2 -5.85 -7.1 -3.9 -7.0 -3.85 Z" fill="none" stroke="#000000" stroke-linecap="round" stroke-linejoin="round" stroke-width="1.3"/>
  </g>
</svg>
