<?xml version="1.0" encoding="UTF-8" standalone="no"?>
<svg xmlns:xlink="http://www.w3.org/1999/xlink" height="14.7px" width="37.05px" xmlns="http://www.w3.org/2000/svg">
  <g transform="matrix(1.0, 0.0, 0.0, 1.0, 19.75, 8.35)">
    <path d="M-10.1 -4.55 L-4.1 -2.75 6.25 0.05 10.65 1.15 16.65 2.3 Q9.85 7.9 -4.95 4.3 -17.45 0.8 -19.1 -7.7 L-10.1 -4.55 -12.3 0.45 -10.1 -4.55 M-6.9 3.0 L-4.1 -2.75 -6.9 3.0 M9.65 4.45 L10.65 1.15 9.65 4.45 M4.75 4.75 L6.25 0.05 4.75 4.75" fill="#ffffff" fill-rule="evenodd" stroke="none"/>
    <path d="M-10.1 -4.55 L-4.1 -2.75 6.25 0.05 10.65 1.15 16.65 2.3 Q9.85 7.9 -4.95 4.3 -17.45 0.8 -19.1 -7.7 L-10.1 -4.55 -12.3 0.45 M6.25 0.05 L4.75 4.75 M10.65 1.15 L9.65 4.45 M-4.1 -2.75 L-6.9 3.0" fill="none" stroke="#000000" stroke-linecap="round" stroke-linejoin="round" stroke-width="1.3"/>
  </g>
</svg>
