<?xml version="1.0" encoding="UTF-8" standalone="no"?>
<svg xmlns:xlink="http://www.w3.org/1999/xlink" height="12.25px" width="34.85px" xmlns="http://www.w3.org/2000/svg">
  <g transform="matrix(1.0, 0.0, 0.0, 1.0, 18.65, 7.25)">
    <path d="M-4.0 -2.65 L-3.9 -2.65 5.8 -0.25 9.9 0.5 15.55 1.55 Q11.4 4.5 4.25 4.35 2.25 -0.2 -4.0 -2.65" fill="#38131b" fill-rule="evenodd" stroke="none"/>
    <path d="M4.25 4.35 Q0.2 4.25 -4.7 3.15 -16.45 0.3 -18.0 -6.6 L-9.5 -4.1 -4.1 -2.65 -4.0 -2.65 Q2.25 -0.2 4.25 4.35" fill="#ec839a" fill-rule="evenodd" stroke="none"/>
    <path d="M-4.0 -2.65 L-3.9 -2.65 5.8 -0.25 9.9 0.5 15.55 1.55 Q11.4 4.5 4.25 4.35 0.2 4.25 -4.7 3.15 -16.45 0.3 -18.0 -6.6 L-9.5 -4.1 -4.1 -2.65 -4.0 -2.65 Z" fill="none" stroke="#000000" stroke-linecap="round" stroke-linejoin="round" stroke-width="1.3"/>
  </g>
</svg>
