<?xml version="1.0" encoding="UTF-8" standalone="no"?>
<svg xmlns:xlink="http://www.w3.org/1999/xlink" height="13.8px" width="34.85px" xmlns="http://www.w3.org/2000/svg">
  <g transform="matrix(1.0, 0.0, 0.0, 1.0, 19.55, 7.9)">
    <path d="M3.3 5.25 Q-0.7 5.15 -5.6 3.95 -17.35 0.7 -18.9 -7.25 L-10.45 -4.35 -5.0 -2.7 -4.95 -2.65 Q1.35 0.1 3.3 5.25" fill="#ec839a" fill-rule="evenodd" stroke="none"/>
    <path d="M-4.95 -2.65 L-4.8 -2.65 4.9 0.0 9.0 1.0 14.65 2.1 Q10.5 5.4 3.3 5.25 1.35 0.1 -4.95 -2.65" fill="#38131b" fill-rule="evenodd" stroke="none"/>
    <path d="M-4.95 -2.65 L-4.8 -2.65 4.9 0.0 9.0 1.0 14.65 2.1 Q10.5 5.4 3.3 5.25 -0.7 5.15 -5.6 3.95 -17.35 0.7 -18.9 -7.25 L-10.45 -4.35 -5.0 -2.7 -4.95 -2.65 Z" fill="none" stroke="#000000" stroke-linecap="round" stroke-linejoin="round" stroke-width="1.3"/>
  </g>
</svg>
