<?xml version="1.0" encoding="UTF-8" standalone="no"?>
<svg xmlns:xlink="http://www.w3.org/1999/xlink" height="10.8px" width="35.25px" xmlns="http://www.w3.org/2000/svg">
  <g transform="matrix(1.0, 0.0, 0.0, 1.0, 17.65, 5.65)">
    <path d="M7.0 -3.35 Q13.9 -3.15 16.95 -1.05 L16.55 -0.2 Q16.0 0.7 14.8 1.45 L13.6 2.1 Q8.9 4.35 1.25 4.5 -8.9 4.15 -13.35 2.4 L-15.75 1.15 -16.55 -0.2 -16.95 -1.15 Q-12.8 -3.75 -4.3 -3.25 1.75 -2.2 7.0 -3.35" fill="#ec839a" fill-rule="evenodd" stroke="none"/>
    <path d="M16.95 -1.05 Q13.9 -3.15 7.0 -3.35 L10.0 -4.2 Q17.1 -6.5 16.95 -2.0 L16.95 -1.05 M-4.3 -3.25 Q-12.8 -3.75 -16.95 -1.15 -17.2 -2.4 -16.05 -3.35 -14.8 -5.45 -7.8 -4.1 L-4.3 -3.25" fill="#3a1616" fill-rule="evenodd" stroke="none"/>
    <path d="M7.0 -3.35 Q1.75 -2.2 -4.3 -3.25 L-7.8 -4.1 Q-14.8 -5.45 -16.05 -3.35 -17.2 -2.4 -16.95 -1.15 L-16.55 -0.2 -15.75 1.15 -13.35 2.4 Q-8.9 4.15 1.25 4.5 8.9 4.35 13.6 2.1 L14.8 1.45 Q16.0 0.7 16.55 -0.2 L16.95 -1.05 16.95 -2.0 Q17.1 -6.5 10.0 -4.2 L7.0 -3.35 Z" fill="none" stroke="#000000" stroke-linecap="round" stroke-linejoin="round" stroke-width="1.3"/>
  </g>
</svg>
