<?xml version="1.0" encoding="UTF-8" standalone="no"?>
<svg xmlns:xlink="http://www.w3.org/1999/xlink" height="6.7px" width="21.75px" xmlns="http://www.w3.org/2000/svg">
  <g transform="matrix(1.0, 0.0, 0.0, 1.0, 10.9, 3.45)">
    <path d="M-10.2 -0.65 Q-10.35 -1.35 -9.65 -1.9 -8.95 -3.1 -6.3 -2.55 L-1.25 -2.05 3.15 -2.05 6.1 -2.35 Q10.3 -3.7 10.2 -1.1 L10.2 -0.6 10.0 -0.1 8.95 0.85 8.2 1.2 Q5.35 2.55 0.75 2.6 -5.4 2.4 -8.05 1.4 L-9.5 0.7 -10.0 -0.1 -10.2 -0.65" fill="#ffffff" fill-rule="evenodd" stroke="none"/>
    <path d="M-10.2 -0.65 L-10.0 -0.1 -9.5 0.7 -8.05 1.4 Q-5.4 2.4 0.75 2.6 5.35 2.55 8.2 1.2 L8.95 0.85 10.0 -0.1 10.2 -0.6 10.2 -1.1 Q10.3 -3.7 6.1 -2.35 L3.15 -2.05 -1.25 -2.05 -6.3 -2.55 Q-8.95 -3.1 -9.65 -1.9 -10.35 -1.35 -10.2 -0.65 Z" fill="none" stroke="#000000" stroke-linecap="round" stroke-linejoin="round" stroke-width="1.3"/>
  </g>
</svg>
