<?xml version="1.0" encoding="UTF-8" standalone="no"?>
<svg xmlns:xlink="http://www.w3.org/1999/xlink" height="12.6px" width="37.0px" xmlns="http://www.w3.org/2000/svg">
  <g transform="matrix(1.0, 0.0, 0.0, 1.0, 19.75, 7.45)">
    <path d="M-4.2 -2.7 L-4.1 -2.7 6.2 -0.25 10.6 0.6 16.6 1.65 Q12.2 4.7 4.55 4.5 2.5 -0.1 -4.2 -2.7" fill="#38131b" fill-rule="evenodd" stroke="none"/>
    <path d="M4.55 4.5 L-4.95 3.35 Q-17.45 0.35 -19.1 -6.8 -14.5 -5.4 -10.1 -4.15 L-4.35 -2.7 -4.2 -2.7 Q2.5 -0.1 4.55 4.5" fill="#ec839a" fill-rule="evenodd" stroke="none"/>
    <path d="M-4.2 -2.7 L-4.1 -2.7 6.2 -0.25 10.6 0.6 16.6 1.65 Q12.2 4.7 4.55 4.5 L-4.95 3.35 Q-17.45 0.35 -19.1 -6.8 -14.5 -5.4 -10.1 -4.15 L-4.35 -2.7 -4.2 -2.7 Z" fill="none" stroke="#000000" stroke-linecap="round" stroke-linejoin="round" stroke-width="1.3"/>
  </g>
</svg>
