<?xml version="1.0" encoding="UTF-8" standalone="no"?>
<svg xmlns:xlink="http://www.w3.org/1999/xlink" height="6.7px" width="18.95px" xmlns="http://www.w3.org/2000/svg">
  <g transform="matrix(1.0, 0.0, 0.0, 1.0, 9.5, 3.45)">
    <path d="M-8.8 -0.65 Q-8.95 -1.35 -8.35 -1.9 -7.75 -3.1 -5.45 -2.55 L-1.1 -2.05 2.7 -2.05 5.25 -2.35 Q8.9 -3.7 8.8 -1.1 L8.8 -0.6 8.65 -0.1 7.75 0.85 7.1 1.2 Q4.6 2.55 0.65 2.6 -4.65 2.4 -6.95 1.4 L-8.2 0.7 -8.65 -0.1 -8.8 -0.65" fill="#ffffff" fill-rule="evenodd" stroke="none"/>
    <path d="M-8.8 -0.65 L-8.65 -0.1 -8.2 0.7 -6.95 1.4 Q-4.65 2.4 0.65 2.6 4.6 2.55 7.1 1.2 L7.75 0.85 8.65 -0.1 8.8 -0.6 8.8 -1.1 Q8.9 -3.7 5.25 -2.35 L2.7 -2.05 -1.1 -2.05 -5.45 -2.55 Q-7.75 -3.1 -8.35 -1.9 -8.95 -1.35 -8.8 -0.65 Z" fill="none" stroke="#000000" stroke-linecap="round" stroke-linejoin="round" stroke-width="1.3"/>
  </g>
</svg>
