<?xml version="1.0" encoding="UTF-8" standalone="no"?>
<svg xmlns:xlink="http://www.w3.org/1999/xlink" height="9.6px" width="11.9px" xmlns="http://www.w3.org/2000/svg">
  <g transform="matrix(1.0, 0.0, 0.0, 1.0, 5.95, 5.1)">
    <path d="M-4.1 -4.05 Q-3.95 -2.2 -2.85 -1.35 L1.65 -1.15 1.75 -1.15 Q3.65 0.1 4.2 1.7 2.95 3.8 0.7 4.1 -5.5 3.2 -5.55 -3.3 -4.85 -3.6 -4.1 -4.05" fill="#ec839a" fill-rule="evenodd" stroke="none"/>
    <path d="M1.75 -1.15 L1.65 -1.15 -2.85 -1.35 Q-3.95 -2.2 -4.1 -4.05 -0.1 -5.3 3.95 -4.15 4.0 -2.4 3.15 -1.35 L1.75 -1.15" fill="#ffffff" fill-rule="evenodd" stroke="none"/>
    <path d="M4.2 1.7 Q3.65 0.1 1.75 -1.15 L3.15 -1.35 Q4.0 -2.4 3.95 -4.15 L5.55 -3.5 Q5.5 -0.25 4.2 1.7" fill="#462325" fill-rule="evenodd" stroke="none"/>
    <path d="M1.75 -1.15 L1.65 -1.15 -2.85 -1.35 Q-3.95 -2.2 -4.1 -4.05 M1.75 -1.15 L3.15 -1.35 Q4.0 -2.4 3.95 -4.15" fill="none" stroke="#000000" stroke-linecap="round" stroke-linejoin="round" stroke-width="0.5"/>
    <path d="M-4.1 -4.05 Q-4.85 -3.6 -5.55 -3.3 -5.5 3.2 0.7 4.1 2.95 3.8 4.2 1.7 5.5 -0.25 5.55 -3.5 L3.95 -4.15 Q-0.1 -5.3 -4.1 -4.05" fill="none" stroke="#000000" stroke-linecap="round" stroke-linejoin="round" stroke-width="0.8"/>
  </g>
</svg>
