<?xml version="1.0" encoding="UTF-8" standalone="no"?>
<svg xmlns:xlink="http://www.w3.org/1999/xlink" height="11.45px" width="12.9px" xmlns="http://www.w3.org/2000/svg">
  <g transform="matrix(1.0, 0.0, 0.0, 1.0, 6.45, 6.05)">
    <path d="M4.3 -4.95 L6.05 -4.2 Q6.0 -0.25 4.6 2.1 4.0 0.15 1.9 -1.35 L3.45 -1.6 Q4.35 -2.85 4.3 -4.95" fill="#462325" fill-rule="evenodd" stroke="none"/>
    <path d="M4.3 -4.95 Q4.35 -2.85 3.45 -1.6 L1.9 -1.35 1.8 -1.35 -3.1 -1.6 Q-4.3 -2.6 -4.5 -4.85 -0.1 -6.35 4.3 -4.95" fill="#ffffff" fill-rule="evenodd" stroke="none"/>
    <path d="M1.9 -1.35 Q4.0 0.15 4.6 2.1 3.2 4.65 0.75 5.0 -6.0 3.9 -6.05 -3.95 -5.3 -4.3 -4.5 -4.85 -4.3 -2.6 -3.1 -1.6 L1.8 -1.35 1.9 -1.35" fill="#ec839a" fill-rule="evenodd" stroke="none"/>
    <path d="M4.6 2.1 Q6.0 -0.25 6.05 -4.2 L4.3 -4.95 Q-0.1 -6.35 -4.5 -4.85 -5.3 -4.3 -6.05 -3.95 -6.0 3.9 0.75 5.0 3.2 4.65 4.6 2.1" fill="none" stroke="#000000" stroke-linecap="round" stroke-linejoin="round" stroke-width="0.8"/>
    <path d="M4.3 -4.95 Q4.35 -2.85 3.45 -1.6 L1.9 -1.35 1.8 -1.35 -3.1 -1.6 Q-4.3 -2.6 -4.5 -4.85" fill="none" stroke="#000000" stroke-linecap="round" stroke-linejoin="round" stroke-width="0.5"/>
  </g>
</svg>
