<?xml version="1.0" encoding="UTF-8" standalone="no"?>
<svg xmlns:xlink="http://www.w3.org/1999/xlink" height="9.3px" width="12.6px" xmlns="http://www.w3.org/2000/svg">
  <g transform="matrix(1.0, 0.0, 0.0, 1.0, 6.2, 4.65)">
    <path d="M-1.95 -1.6 L-0.2 -2.65 Q1.85 -3.6 4.1 -4.05 5.9 -4.0 5.8 -0.6 L5.7 -0.2 Q4.5 -0.95 2.45 -1.35 L-1.95 -1.6" fill="#3c0a12" fill-rule="evenodd" stroke="none"/>
    <path d="M-1.95 -1.6 L2.45 -1.35 Q4.5 -0.95 5.7 -0.2 5.6 1.75 4.95 1.9 L0.55 2.65 Q-3.25 3.15 -4.65 2.65 -3.75 1.15 -3.5 -0.45 L-1.95 -1.6" fill="#ec839a" fill-rule="evenodd" stroke="none"/>
    <path d="M5.7 -0.2 L5.8 -0.6 Q5.9 -4.0 4.1 -4.05 1.85 -3.6 -0.2 -2.65 L-1.95 -1.6 -3.5 -0.45 Q-3.75 1.15 -4.65 2.65 L-5.6 4.05 M5.7 -0.2 Q5.6 1.75 4.95 1.9 L0.55 2.65 Q-3.25 3.15 -4.65 2.65 M-3.65 -3.6 Q-3.2 -2.0 -3.5 -0.45" fill="none" stroke="#000000" stroke-linecap="round" stroke-linejoin="round" stroke-width="1.2000000000000002"/>
    <path d="M-1.95 -1.6 L2.45 -1.35 Q4.5 -0.95 5.7 -0.2 Z" fill="none" stroke="#000000" stroke-linecap="round" stroke-linejoin="round" stroke-width="0.5"/>
  </g>
</svg>
