<?xml version="1.0" encoding="UTF-8" standalone="no"?>
<svg xmlns:xlink="http://www.w3.org/1999/xlink" height="7.2px" width="10.35px" xmlns="http://www.w3.org/2000/svg">
  <g transform="matrix(1.0, 0.0, 0.0, 1.0, 5.15, 3.6)">
    <path d="M-2.85 -0.35 L-1.6 -1.2 1.9 -1.0 Q3.6 -0.7 4.55 -0.15 4.45 1.3 3.95 1.4 L0.4 1.95 Q-2.65 2.35 -3.8 1.95 -3.05 0.85 -2.85 -0.35" fill="#ec839a" fill-rule="evenodd" stroke="none"/>
    <path d="M-1.6 -1.2 L-0.2 -1.95 Q1.45 -2.7 3.25 -3.0 4.7 -2.95 4.6 -0.45 L4.55 -0.15 Q3.6 -0.7 1.9 -1.0 L-1.6 -1.2" fill="#3c0a12" fill-rule="evenodd" stroke="none"/>
    <path d="M4.55 -0.15 Q3.6 -0.7 1.9 -1.0 L-1.6 -1.2" fill="none" stroke="#000000" stroke-linecap="round" stroke-linejoin="round" stroke-width="0.5"/>
    <path d="M-2.95 -2.7 Q-2.6 -1.5 -2.85 -0.35 L-1.6 -1.2 -0.2 -1.95 Q1.45 -2.7 3.25 -3.0 4.7 -2.95 4.6 -0.45 L4.55 -0.15 Q4.45 1.3 3.95 1.4 L0.4 1.95 Q-2.65 2.35 -3.8 1.95 L-4.55 3.0 M-2.85 -0.35 Q-3.05 0.85 -3.8 1.95" fill="none" stroke="#000000" stroke-linecap="round" stroke-linejoin="round" stroke-width="1.2000000000000002"/>
  </g>
</svg>
