<?xml version="1.0" encoding="UTF-8" standalone="no"?>
<svg xmlns:xlink="http://www.w3.org/1999/xlink" height="6.7px" width="13.0px" xmlns="http://www.w3.org/2000/svg">
  <g transform="matrix(1.0, 0.0, 0.0, 1.0, 6.3, 3.35)">
    <path d="M-3.55 -0.35 L-1.9 -1.05 2.65 -0.9 6.05 -0.15 Q5.9 1.2 5.25 1.25 L0.65 1.8 Q-3.25 2.15 -4.75 1.8 -3.85 0.85 -3.55 -0.35" fill="#ec839a" fill-rule="evenodd" stroke="none"/>
    <path d="M-1.9 -1.05 L-0.1 -1.8 4.35 -2.75 Q6.25 -2.65 6.1 -0.4 L6.05 -0.15 2.65 -0.9 -1.9 -1.05" fill="#3c0a12" fill-rule="evenodd" stroke="none"/>
    <path d="M6.05 -0.15 L2.65 -0.9 -1.9 -1.05" fill="none" stroke="#000000" stroke-linecap="round" stroke-linejoin="round" stroke-width="0.5"/>
    <path d="M-3.75 -2.4 Q-3.25 -1.35 -3.55 -0.35 L-1.9 -1.05 -0.1 -1.8 4.35 -2.75 Q6.25 -2.65 6.1 -0.4 L6.05 -0.15 Q5.9 1.2 5.25 1.25 L0.65 1.8 Q-3.25 2.15 -4.75 1.8 L-5.7 2.75 M-3.55 -0.35 Q-3.85 0.85 -4.75 1.8" fill="none" stroke="#000000" stroke-linecap="round" stroke-linejoin="round" stroke-width="1.2000000000000002"/>
  </g>
</svg>
