<?xml version="1.0" encoding="UTF-8" standalone="no"?>
<svg xmlns:xlink="http://www.w3.org/1999/xlink" height="7.15px" width="20.5px" xmlns="http://www.w3.org/2000/svg">
  <g transform="matrix(1.0, 0.0, 0.0, 1.0, 10.35, 4.15)">
    <path d="M7.1 -1.5 Q8.15 -1.3 9.25 -0.5 10.0 1.65 9.4 2.45 L7.7 2.45 Q8.0 0.65 7.1 -1.5" fill="#4d1414" fill-rule="evenodd" stroke="none"/>
    <path d="M7.7 2.45 Q-3.3 2.05 -9.85 2.5 -9.7 -1.2 -8.05 -3.65 -1.3 -3.75 7.1 -1.5 8.0 0.65 7.7 2.45 M-6.6 -0.75 L-6.8 -0.75 -2.85 -0.2 6.9 0.55 Q-1.65 -1.2 -4.55 -1.1 -7.5 -1.0 -6.6 -0.75" fill="#ffffff" fill-rule="evenodd" stroke="none"/>
    <path d="M-6.6 -0.75 Q-7.5 -1.0 -4.55 -1.1 -1.65 -1.2 6.9 0.55 L-2.85 -0.2 -6.8 -0.75 -6.6 -0.75" fill="#cccccc" fill-rule="evenodd" stroke="none"/>
    <path d="M7.1 -1.5 Q8.15 -1.3 9.25 -0.5 10.0 1.65 9.4 2.45 L7.7 2.45 Q-3.3 2.05 -9.85 2.5 -9.7 -1.2 -8.05 -3.65 -1.3 -3.75 7.1 -1.5 Z" fill="none" stroke="#000000" stroke-linecap="round" stroke-linejoin="round" stroke-width="1.0"/>
  </g>
</svg>
