<?xml version="1.0" encoding="UTF-8" standalone="no"?>
<svg xmlns:xlink="http://www.w3.org/1999/xlink" height="12.35px" width="26.65px" xmlns="http://www.w3.org/2000/svg">
  <g transform="matrix(1.0, 0.0, 0.0, 1.0, 14.7, 7.2)">
    <path d="M-0.45 -5.35 Q3.65 -4.4 8.0 -2.7 9.4 -2.3 11.0 -0.9 11.85 3.0 11.1 4.6 L8.8 4.5 7.15 4.4 Q4.85 -2.3 -0.45 -5.35" fill="#4d1414" fill-rule="evenodd" stroke="none"/>
    <path d="M7.15 4.4 Q-6.05 3.9 -14.2 4.65 -14.0 -2.15 -11.8 -6.7 -6.5 -6.8 -0.45 -5.35 4.85 -2.3 7.15 4.4" fill="#ec839a" fill-rule="evenodd" stroke="none"/>
    <path d="M-0.45 -5.35 Q3.65 -4.4 8.0 -2.7 9.4 -2.3 11.0 -0.9 11.85 3.0 11.1 4.6 L8.8 4.5 7.15 4.4 Q-6.05 3.9 -14.2 4.65 -14.0 -2.15 -11.8 -6.7 -6.5 -6.8 -0.45 -5.35 Z" fill="none" stroke="#000000" stroke-linecap="round" stroke-linejoin="round" stroke-width="1.0"/>
  </g>
</svg>
