<?xml version="1.0" encoding="UTF-8" standalone="no"?>
<svg xmlns:xlink="http://www.w3.org/1999/xlink" height="15.7px" width="23.85px" xmlns="http://www.w3.org/2000/svg">
  <g transform="matrix(1.0, 0.0, 0.0, 1.0, 11.95, 7.85)">
    <path d="M-6.35 7.35 L-7.1 7.3 Q-11.35 6.55 -11.45 0.45 -11.45 -2.25 -10.45 -4.4 -9.5 -6.6 -7.45 -7.15 -5.5 -7.7 -3.4 -6.7 -1.35 -5.75 0.25 -5.85 1.8 -5.95 3.55 -6.85 5.3 -7.75 7.85 -5.95 10.4 -4.25 11.15 -1.2 11.85 1.8 10.5 4.4 9.15 6.95 6.55 6.4 L5.95 6.25 Q5.85 4.7 4.85 2.8 L5.15 2.8 Q7.15 2.65 7.45 0.9 6.85 -1.9 2.45 -2.3 -1.3 -2.1 -3.45 -0.65 -6.75 2.15 -6.35 7.35" fill="url(#gradient0)" fill-rule="evenodd" stroke="none"/>
    <path d="M5.95 6.25 L1.85 5.6 Q-0.25 5.35 -3.7 6.75 -5.2 7.35 -6.35 7.35 -6.75 2.15 -3.45 -0.65 -1.3 -2.1 2.45 -2.3 6.85 -1.9 7.45 0.9 7.15 2.65 5.15 2.8 L4.85 2.8 Q5.85 4.7 5.95 6.25 M2.25 3.15 L4.85 2.8 2.25 3.15" fill="#ec839a" fill-rule="evenodd" stroke="none"/>
    <path d="M-6.35 7.35 L-7.1 7.3 Q-11.35 6.55 -11.45 0.45 -11.45 -2.25 -10.45 -4.4 -9.5 -6.6 -7.45 -7.15 -5.5 -7.7 -3.4 -6.7 -1.35 -5.75 0.25 -5.85 1.8 -5.95 3.55 -6.85 5.3 -7.75 7.85 -5.95 10.4 -4.25 11.15 -1.2 11.85 1.8 10.5 4.4 9.15 6.95 6.55 6.4 L5.95 6.25 1.85 5.6 Q-0.25 5.35 -3.7 6.75 -5.2 7.35 -6.35 7.35 -6.75 2.15 -3.45 -0.65 -1.3 -2.1 2.45 -2.3 6.85 -1.9 7.45 0.9 7.15 2.65 5.15 2.8 L4.85 2.8 Q5.85 4.7 5.95 6.25 M4.85 2.8 L2.25 3.15" fill="none" stroke="#000000" stroke-linecap="round" stroke-linejoin="round" stroke-width="1.0"/>
  </g>
  <defs>
    <radialGradient cx="0" cy="0" gradientTransform="matrix(0.0179, 0.0, 0.0, 0.0179, 0.9, 4.4)" gradientUnits="userSpaceOnUse" id="gradient0" r="819.2" spreadMethod="pad">
      <stop offset="0.0" stop-color="#481821"/>
      <stop offset="1.0" stop-color="#7e3232"/>
    </radialGradient>
  </defs>
</svg>
