<?xml version="1.0" encoding="UTF-8" standalone="no"?>
<svg xmlns:xlink="http://www.w3.org/1999/xlink" height="33.55px" width="24.6px" xmlns="http://www.w3.org/2000/svg">
  <g transform="matrix(1.0, 0.0, 0.0, 1.0, 12.3, 16.75)">
    <path d="M5.5 -15.8 L8.5 -15.4 Q12.0 -10.9 12.3 -2.6 12.55 6.1 9.1 11.45 5.75 16.8 0.7 16.8 -4.35 16.8 -8.15 11.45 -11.9 6.1 -12.25 -2.55 -12.6 -10.95 -9.4 -15.5 L-5.25 -16.75 Q-6.7 -15.8 -7.9 -14.15 -10.85 -10.1 -10.55 -2.4 L-10.25 1.1 Q-9.45 6.4 -7.0 10.05 -3.75 14.8 0.65 14.8 4.95 14.8 7.9 10.05 10.25 6.25 10.65 0.7 L10.65 -2.45 Q10.35 -10.15 7.1 -14.15 L5.5 -15.8" fill="#000000" fill-rule="evenodd" stroke="none"/>
  </g>
</svg>
