<?xml version="1.0" encoding="UTF-8" standalone="no"?>
<svg xmlns:xlink="http://www.w3.org/1999/xlink" height="25.05px" width="15.95px" xmlns="http://www.w3.org/2000/svg">
  <g transform="matrix(1.0, 0.0, 0.0, 1.0, 8.0, 12.55)">
    <path d="M5.85 8.7 Q3.45 12.55 0.1 12.5 -3.25 12.55 -5.65 8.75 -7.95 5.1 -8.0 0.0 -8.05 -5.1 -5.85 -8.75 -3.55 -12.6 -0.2 -12.55 3.15 -12.6 5.65 -8.75 7.9 -5.1 7.95 0.0 8.0 5.1 5.85 8.7 M0.1 11.1 Q2.75 11.05 4.65 8.0 6.6 4.7 6.55 0.0 6.5 -4.7 4.45 -8.0 2.45 -11.1 -0.2 -11.15 -2.85 -11.1 -4.65 -8.05 -6.65 -4.7 -6.6 0.0 -6.55 4.7 -4.45 8.0 -2.55 11.05 0.1 11.1" fill="url(#gradient0)" fill-rule="evenodd" stroke="none"/>
  </g>
  <defs>
    <linearGradient gradientTransform="matrix(0.0, -0.0146, 0.0095, 0.0, -0.05, 0.0)" gradientUnits="userSpaceOnUse" id="gradient0" spreadMethod="pad" x1="-819.2" x2="819.2">
      <stop offset="0.3568627450980392" stop-color="#000000" stop-opacity="0.8784314"/>
      <stop offset="1.0" stop-color="#000000" stop-opacity="0.1882353"/>
    </linearGradient>
  </defs>
</svg>
