<?xml version="1.0" encoding="UTF-8" standalone="no"?>
<svg xmlns:xlink="http://www.w3.org/1999/xlink" height="24.95px" width="15.85px" xmlns="http://www.w3.org/2000/svg">
  <g transform="matrix(1.0, 0.0, 0.0, 1.0, 7.95, 12.5)">
    <path d="M-5.8 -8.7 Q-3.55 -12.55 -0.2 -12.5 3.15 -12.55 5.6 -8.7 7.85 -5.1 7.9 0.0 7.95 5.1 5.8 8.7 3.45 12.5 0.1 12.45 -3.25 12.5 -5.6 8.75 -7.9 5.1 -7.95 0.0 -8.0 -5.1 -5.8 -8.7 M-0.2 -11.2 Q-2.85 -11.15 -4.7 -8.05 -6.7 -4.7 -6.65 0.0 -6.6 4.7 -4.5 8.05 -2.55 11.1 0.1 11.15 2.75 11.1 4.7 8.05 6.65 4.7 6.6 0.0 6.55 -4.7 4.5 -8.0 2.5 -11.15 -0.2 -11.2" fill="url(#gradient0)" fill-rule="evenodd" stroke="none"/>
    <path d="M4.3 0.1 Q4.3 2.9 3.1 4.9 1.9 6.9 0.2 6.9 -1.5 6.9 -2.75 4.9 -3.9 2.9 -3.9 0.1 -3.9 -2.7 -2.75 -4.7 -1.5 -6.7 0.2 -6.7 1.9 -6.7 3.1 -4.7 4.3 -2.7 4.3 0.1" fill="#000000" fill-opacity="0.49803922" fill-rule="evenodd" stroke="none"/>
  </g>
  <defs>
    <linearGradient gradientTransform="matrix(0.0, -0.0146, 0.0095, 0.0, -0.05, 0.0)" gradientUnits="userSpaceOnUse" id="gradient0" spreadMethod="pad" x1="-819.2" x2="819.2">
      <stop offset="0.3254901960784314" stop-color="#000000" stop-opacity="0.8"/>
      <stop offset="1.0" stop-color="#000000" stop-opacity="0.0"/>
    </linearGradient>
  </defs>
</svg>
