<?xml version="1.0" encoding="UTF-8" standalone="no"?>
<svg xmlns:xlink="http://www.w3.org/1999/xlink" height="22.2px" width="15.95px" xmlns="http://www.w3.org/2000/svg">
  <g transform="matrix(1.0, 0.0, 0.0, 1.0, 8.0, 11.1)">
    <path d="M-0.25 -11.1 Q4.7 -11.35 6.6 -6.55 8.7 -1.5 7.55 3.8 6.35 9.15 1.3 10.9 L-0.95 10.8 Q-4.9 9.0 -5.75 4.65 -6.55 0.6 -5.3 -3.2 -4.2 -6.45 -1.2 -7.5 1.45 -8.45 3.3 -6.65 5.05 -5.0 5.35 -2.55 5.8 2.05 3.8 6.05 2.4 8.75 -0.4 7.7 L-1.2 7.1 Q-4.6 2.2 -1.85 -2.95 -1.35 -3.95 -0.25 -4.1 2.0 -4.6 2.65 -2.45 3.75 1.05 1.6 3.65 1.05 4.4 0.25 3.75 -0.7 3.0 -0.75 1.7 -0.8 0.45 -0.2 -0.55 L0.5 -0.65 Q1.55 -0.15 0.4 0.35 L0.4 0.4 0.45 0.95 0.5 1.55 0.5 2.1 0.65 2.85 0.7 2.9 Q2.1 2.55 2.1 0.65 2.15 -1.55 0.7 -3.05 L-0.35 -3.0 Q-2.95 -0.6 -2.05 2.95 -1.5 5.15 0.1 6.75 L1.85 6.7 Q3.8 5.0 4.2 2.3 4.85 -2.05 2.8 -5.65 L1.8 -6.5 Q-1.8 -7.65 -3.85 -3.75 -5.9 0.2 -4.4 4.95 -2.9 9.7 -0.4 9.7 2.1 9.7 4.6 7.55 7.05 5.4 7.0 0.65 6.95 -4.05 4.85 -7.35 2.8 -10.75 -0.9 -9.7 -4.7 -8.7 -5.95 -5.05 -7.25 -1.45 -7.25 1.3 -7.25 4.05 -7.85 1.2 -8.45 -1.7 -6.85 -6.3 -5.25 -10.9 -0.25 -11.1" fill="#000000" fill-opacity="0.7294118" fill-rule="evenodd" stroke="none"/>
  </g>
</svg>
