<?xml version="1.0" encoding="UTF-8" standalone="no"?>
<svg xmlns:xlink="http://www.w3.org/1999/xlink" height="24.2px" width="17.75px" xmlns="http://www.w3.org/2000/svg">
  <g transform="matrix(1.0, 0.0, 0.0, 1.0, 8.9, 12.1)">
    <path d="M6.3 8.5 Q3.7 12.1 -0.05 12.1 -3.75 12.1 -6.35 8.5 -8.9 5.0 -8.9 0.0 -8.9 -5.0 -6.35 -8.5 -3.75 -12.1 -0.05 -12.1 3.7 -12.1 6.3 -8.5 8.85 -5.0 8.85 0.0 8.85 5.0 6.3 8.5 M7.85 0.0 Q7.85 -4.6 5.5 -7.9 3.2 -11.1 -0.05 -11.1 -3.25 -11.1 -5.55 -7.9 -7.9 -4.6 -7.9 0.0 -7.9 4.6 -5.55 7.9 -3.25 11.1 -0.05 11.1 3.2 11.1 5.5 7.9 7.85 4.6 7.85 0.0 M5.95 0.05 Q5.95 -3.6 4.2 -6.1 2.5 -8.6 0.15 -8.6 -2.2 -8.6 -3.85 -6.1 L-3.9 -6.1 Q-5.65 -3.6 -5.65 0.05 -5.65 3.65 -3.9 6.2 L-3.85 6.2 Q-2.2 8.65 0.15 8.65 2.5 8.65 4.2 6.2 5.95 3.65 5.95 0.05 M3.7 4.95 Q2.3 7.15 0.25 7.1 -1.75 7.15 -3.2 4.95 -4.55 2.95 -4.55 0.05 -4.55 -2.85 -3.2 -4.85 -1.75 -7.05 0.25 -7.0 2.3 -7.05 3.7 -4.85 5.05 -2.85 5.05 0.05 5.05 2.95 3.7 4.95 M2.4 0.1 Q2.4 -1.45 1.75 -2.5 L1.7 -2.55 Q1.15 -3.5 0.3 -3.55 -0.5 -3.55 -1.1 -2.55 L-1.1 -2.5 Q-1.8 -1.45 -1.8 0.1 -1.8 1.6 -1.1 2.7 -0.5 3.7 0.3 3.7 1.15 3.65 1.7 2.7 L1.75 2.7 Q2.4 1.6 2.4 0.1 M1.4 1.75 L1.45 1.7 Q1.0 2.5 0.3 2.5 -0.35 2.55 -0.8 1.75 -1.2 1.05 -1.2 0.1 -1.2 -0.9 -0.8 -1.55 -0.35 -2.4 0.3 -2.35 1.0 -2.35 1.45 -1.55 L1.4 -1.55 Q1.8 -0.9 1.8 0.1 1.8 1.05 1.4 1.75 M1.1 0.1 L0.8 -1.2 0.8 -1.25 Q0.6 -1.65 0.3 -1.65 L-0.2 -1.2 -0.5 0.1 -0.2 1.4 0.3 1.8 0.8 1.4 1.1 0.1 M4.15 0.05 Q4.15 -2.55 2.95 -4.35 1.8 -6.05 0.25 -6.1 -1.35 -6.05 -2.45 -4.35 -3.65 -2.55 -3.65 0.05 -3.65 2.65 -2.45 4.45 -1.35 6.15 0.25 6.2 1.8 6.15 2.95 4.45 4.15 2.65 4.15 0.05 M2.4 3.15 L2.4 3.1 Q1.55 4.55 0.3 4.5 -0.9 4.5 -1.8 3.1 L-1.75 3.15 Q-2.6 1.9 -2.6 0.1 -2.6 -1.75 -1.75 -2.95 L-1.8 -2.95 Q-0.9 -4.35 0.3 -4.35 1.55 -4.4 2.4 -2.95 3.2 -1.75 3.2 0.1 3.2 1.9 2.4 3.15 M5.0 6.75 L5.05 6.75 Q3.0 9.65 0.15 9.65 -2.7 9.65 -4.7 6.75 -6.65 3.95 -6.65 0.05 -6.65 -3.9 -4.7 -6.65 -2.7 -9.6 0.15 -9.6 3.0 -9.6 5.05 -6.65 L5.0 -6.65 Q6.95 -3.9 6.95 0.05 6.95 3.95 5.0 6.75" fill="#000000" fill-opacity="0.8" fill-rule="evenodd" stroke="none"/>
  </g>
</svg>
