<?xml version="1.0" encoding="UTF-8" standalone="no"?>
<svg xmlns:xlink="http://www.w3.org/1999/xlink" height="17.55px" width="15.1px" xmlns="http://www.w3.org/2000/svg">
  <g transform="matrix(1.0, 0.0, 0.0, 1.0, 7.55, 8.8)">
    <path d="M4.95 -3.5 Q4.95 -2.6 4.3 -1.95 3.7 -1.3 2.85 -1.3 1.95 -1.3 1.35 -1.95 0.75 -2.6 0.75 -3.5 0.75 -4.45 1.35 -5.1 1.95 -5.75 2.85 -5.75 3.7 -5.75 4.3 -5.1 4.95 -4.45 4.95 -3.5 M7.55 5.45 Q7.55 6.8 6.65 7.8 5.7 8.75 4.4 8.75 3.15 8.75 2.2 7.8 1.25 6.8 1.25 5.45 1.25 4.05 2.2 3.1 3.15 2.15 4.4 2.15 5.7 2.15 6.65 3.1 7.55 4.05 7.55 5.45 M0.25 -4.7 Q0.25 -3.0 -0.9 -1.8 -2.05 -0.6 -3.65 -0.6 -5.25 -0.6 -6.4 -1.8 -7.55 -3.0 -7.55 -4.7 -7.55 -6.4 -6.4 -7.6 -5.25 -8.8 -3.65 -8.8 -2.05 -8.8 -0.9 -7.6 0.25 -6.4 0.25 -4.7 M0.4 2.4 Q0.4 3.3 -0.25 3.95 -0.85 4.6 -1.7 4.6 -2.6 4.6 -3.2 3.95 -3.8 3.3 -3.8 2.4 -3.8 1.45 -3.2 0.8 -2.6 0.15 -1.7 0.15 -0.85 0.15 -0.25 0.8 0.4 1.45 0.4 2.4" fill="#424483" fill-rule="evenodd" stroke="none"/>
  </g>
</svg>
