<?xml version="1.0" encoding="UTF-8" standalone="no"?>
<svg xmlns:xlink="http://www.w3.org/1999/xlink" height="10.0px" width="10.7px" xmlns="http://www.w3.org/2000/svg">
  <g transform="matrix(1.0, 0.0, 0.0, 1.0, 5.35, 5.0)">
    <path d="M5.25 -4.8 L5.35 -2.95 Q5.35 0.35 3.8 2.65 2.2 5.0 0.0 5.0 -2.2 5.0 -3.8 2.65 -5.35 0.35 -5.35 -2.95 L-5.2 -4.8 -5.15 -4.95 -4.95 -5.0 -4.8 -4.95 -4.7 -4.8 Q-4.4 -2.85 -3.4 -1.3 -2.0 0.85 0.0 0.85 2.0 0.85 3.4 -1.3 4.4 -2.85 4.75 -4.8 L4.85 -4.95 5.0 -5.0 5.15 -4.95 5.25 -4.8" fill="#424483" fill-rule="evenodd" stroke="none"/>
  </g>
</svg>
