<?xml version="1.0" encoding="UTF-8" standalone="no"?>
<svg xmlns:xlink="http://www.w3.org/1999/xlink" height="12.5px" width="12.9px" xmlns="http://www.w3.org/2000/svg">
  <g transform="matrix(1.0, 0.0, 0.0, 1.0, 6.45, 6.25)">
    <path d="M1.55 0.0 Q1.55 2.55 0.35 4.4 -0.8 6.25 -2.45 6.25 -4.1 6.25 -5.3 4.4 -6.45 2.55 -6.45 0.0 -6.45 -2.55 -5.3 -4.45 -4.1 -6.25 -2.45 -6.25 -0.8 -6.25 0.35 -4.45 1.55 -2.55 1.55 0.0 M6.45 2.95 Q6.45 4.25 5.65 5.15 4.95 6.1 3.85 6.1 2.8 6.1 2.05 5.15 1.3 4.25 1.3 2.95 1.3 1.65 2.05 0.7 2.8 -0.2 3.85 -0.2 4.95 -0.2 5.65 0.7 6.45 1.65 6.45 2.95" fill="#72adff" fill-rule="evenodd" stroke="none"/>
  </g>
</svg>
