<?xml version="1.0" encoding="UTF-8" standalone="no"?>
<svg xmlns:xlink="http://www.w3.org/1999/xlink" height="9.05px" width="8.8px" xmlns="http://www.w3.org/2000/svg">
  <g transform="matrix(1.0, 0.0, 0.0, 1.0, 2.4, 3.85)">
    <path d="M6.4 -0.4 Q6.4 1.0 5.1 2.0 3.8 3.05 2.0 3.05 0.2 3.05 -1.1 2.0 -2.4 1.0 -2.4 -0.4 -2.4 -1.8 -1.1 -2.85 0.2 -3.85 2.0 -3.85 3.8 -3.85 5.1 -2.85 6.4 -1.8 6.4 -0.4 M0.9 4.05 L0.45 4.85 Q0.0 5.2 -0.6 5.2 L-1.65 4.85 -2.1 4.05 -1.65 3.25 Q-1.2 2.9 -0.6 2.9 0.0 2.9 0.45 3.25 0.9 3.6 0.9 4.05" fill="#ffffff" fill-rule="evenodd" stroke="none"/>
  </g>
</svg>
