<?xml version="1.0" encoding="UTF-8" standalone="no"?>
<svg xmlns:xlink="http://www.w3.org/1999/xlink" height="22.25px" width="22.7px" xmlns="http://www.w3.org/2000/svg">
  <g transform="matrix(1.0, 0.0, 0.0, 1.0, 11.35, 11.1)">
    <path d="M-5.85 9.6 L-7.6 8.5 Q-11.3 5.8 -11.35 -0.85 -11.6 -7.45 -8.7 -10.15 L-8.25 -10.45 -8.05 -10.65 -0.2 -11.05 Q4.9 -10.9 8.85 -9.45 L9.1 -9.15 9.7 -8.05 11.15 -3.0 11.35 -1.65 11.35 -0.85 Q11.4 5.8 8.7 8.35 L7.15 9.6 Q5.65 10.55 3.75 11.1 L3.65 11.1 3.35 11.1 3.3 11.1 3.15 11.1 1.0 11.1 0.95 11.1 0.2 11.15 -2.35 11.0 -2.6 11.0 -2.65 10.9 Q-4.45 10.4 -5.85 9.6" fill="#70dbef" fill-rule="evenodd" stroke="none"/>
  </g>
</svg>
