<?xml version="1.0" encoding="UTF-8" standalone="no"?>
<svg xmlns:xlink="http://www.w3.org/1999/xlink" height="23.7px" width="33.5px" xmlns="http://www.w3.org/2000/svg">
  <g transform="matrix(1.0, 0.0, 0.0, 1.0, 14.4, 9.55)">
    <path d="M-2.55 -8.15 L4.95 -8.55 Q9.8 -8.4 13.65 -6.95 L15.8 -5.95 17.1 -5.2 Q18.45 -3.6 18.9 0.5 L19.1 3.6 Q19.25 10.2 15.0 12.7 L13.7 13.0 13.65 13.0 Q10.1 13.95 8.6 13.6 L8.35 13.6 8.3 13.6 6.1 13.6 5.35 13.65 2.9 13.5 2.6 13.4 2.5 13.5 Q0.65 13.65 -3.2 12.5 L-3.4 12.45 -3.45 12.4 -4.45 12.1 Q-7.1 10.6 -8.4 9.2 -16.6 -0.85 -13.55 -3.6 -10.35 -5.8 -5.8 -7.25 L-2.55 -8.15" fill="#ffffff" fill-rule="evenodd" stroke="none"/>
    <path d="M6.85 14.15 L3.85 14.05 4.6 14.05 4.65 14.05 6.85 14.15" fill="#ffffff" fill-rule="evenodd" stroke="none"/>
    <path d="M14.55 -6.5 L12.9 -7.35 M-7.5 -8.9 L-4.75 -9.55" fill="none" stroke="#000000" stroke-linecap="round" stroke-linejoin="round" stroke-width="0.05"/>
  </g>
</svg>
