<?xml version="1.0" encoding="UTF-8" standalone="no"?>
<svg xmlns:xlink="http://www.w3.org/1999/xlink" height="26.95px" width="51.85px" xmlns="http://www.w3.org/2000/svg">
  <g transform="matrix(1.0, 0.0, 0.0, 1.0, 25.95, 13.5)">
    <path d="M-15.55 0.55 L-14.65 3.25 -13.8 4.9 -14.5 4.4 Q-23.25 -0.9 -25.95 -6.05 -14.1 -14.3 2.3 -13.4 17.95 -12.55 25.9 -3.1 22.9 -4.6 19.95 -5.7 L19.8 -5.75 19.4 -5.9 Q12.6 -8.35 5.75 -8.45 -9.5 -8.8 -15.8 -4.35 -16.1 -1.85 -15.55 0.55 M15.9 10.85 Q5.4 16.3 -4.7 10.25 L-4.35 10.3 -2.75 10.6 14.0 11.1 14.4 11.05 15.9 10.85" fill="#000000" fill-rule="evenodd" stroke="none"/>
  </g>
</svg>
