<?xml version="1.0" encoding="UTF-8" standalone="no"?>
<svg xmlns:xlink="http://www.w3.org/1999/xlink" height="27.25px" width="48.25px" xmlns="http://www.w3.org/2000/svg">
  <g transform="matrix(1.0, 0.0, 0.0, 1.0, 24.15, 13.65)">
    <path d="M16.0 -5.0 L15.95 -5.0 16.0 -4.95 16.0 -5.0 M-13.2 -2.05 L-13.1 -1.8 Q-11.6 1.85 -8.4 5.35 L-4.85 8.1 -2.95 9.05 -2.75 9.15 -2.55 9.25 1.7 10.6 2.65 10.85 2.75 10.85 9.4 11.75 14.45 11.95 14.8 12.0 Q4.2 15.85 -5.9 10.35 -9.7 7.9 -11.2 6.25 -20.95 -4.5 -24.15 -13.65 L3.65 -12.5 Q13.35 -11.25 17.6 -8.0 21.75 -5.05 24.1 -0.6 L21.0 -2.65 20.6 -2.9 19.1 -3.7 18.05 -4.15 18.05 -4.1 16.05 -4.85 16.0 -4.9 Q8.2 -7.35 -0.95 -8.05 L-0.95 -8.0 -3.3 -8.1 -3.3 -8.15 -13.35 -7.85 -14.35 -7.8 Q-14.3 -4.85 -13.2 -2.05" fill="#000000" fill-rule="evenodd" stroke="none"/>
  </g>
</svg>
