<?xml version="1.0" encoding="UTF-8" standalone="no"?>
<svg xmlns:xlink="http://www.w3.org/1999/xlink" height="34.05px" width="53.6px" xmlns="http://www.w3.org/2000/svg">
  <g transform="matrix(1.0, 0.0, 0.0, 1.0, 26.8, 17.0)">
    <path d="M19.1 -6.45 L16.2 -7.7 Q7.55 -10.25 -2.6 -8.1 -8.8 -5.7 -12.15 -2.55 -12.35 -1.0 -11.95 0.65 L-11.8 1.25 Q-10.6 5.85 -5.45 10.8 L-4.75 11.5 -4.25 11.9 Q-10.8 12.5 -12.05 14.45 -11.0 11.8 -7.85 10.6 L-12.65 10.2 Q-11.6 9.4 -9.55 8.8 -13.25 5.2 -16.9 -0.15 -23.3 -4.8 -26.8 -11.1 -21.45 -8.85 -17.3 -9.45 -21.7 -9.9 -22.15 -14.5 -18.1 -11.7 -10.5 -12.15 -15.7 -13.15 -15.9 -16.55 -11.95 -12.25 -7.1 -13.05 1.4 -14.95 4.7 -17.0 4.1 -15.35 2.05 -14.35 L10.8 -14.05 Q15.65 -13.95 18.2 -16.55 17.1 -12.65 14.2 -12.4 L26.8 -13.05 Q24.4 -10.65 18.8 -10.15 24.95 -7.4 25.4 -2.7 24.95 -3.75 21.45 -5.4 L19.1 -6.45 M14.05 14.25 L14.6 14.0 Q12.8 15.75 8.35 16.4 L0.0 15.1 Q-2.6 15.9 -3.8 17.05 -3.3 13.45 -2.5 13.0 L-1.65 13.25 3.65 14.55 4.45 14.65 13.45 14.4 14.05 14.25" fill="#000000" fill-rule="evenodd" stroke="none"/>
  </g>
</svg>
