<?xml version="1.0" encoding="UTF-8" standalone="no"?>
<svg xmlns:xlink="http://www.w3.org/1999/xlink" height="16.25px" width="12.25px" xmlns="http://www.w3.org/2000/svg">
  <g transform="matrix(1.0, 0.0, 0.0, 1.0, 6.1, 8.15)">
    <path d="M5.1 -0.1 Q5.1 -2.95 3.65 -5.0 2.2 -7.05 0.1 -7.05 -1.95 -7.05 -3.4 -5.0 -4.9 -2.95 -4.9 -0.1 -4.9 2.75 -3.4 4.75 -1.95 6.8 0.1 6.8 2.2 6.8 3.65 4.75 5.1 2.75 5.1 -0.1 M6.15 0.0 Q6.15 3.35 4.35 5.7 2.55 8.1 0.0 8.1 -2.5 8.1 -4.3 5.7 -6.1 3.35 -6.1 0.0 -6.1 -3.4 -4.3 -5.8 -2.5 -8.15 0.0 -8.15 2.55 -8.15 4.35 -5.8 6.15 -3.4 6.15 0.0" fill="#000000" fill-rule="evenodd" stroke="none"/>
  </g>
</svg>
