<?xml version="1.0" encoding="UTF-8" standalone="no"?>
<svg xmlns:xlink="http://www.w3.org/1999/xlink" height="28.5px" width="51.5px" xmlns="http://www.w3.org/2000/svg">
  <g transform="matrix(1.0, 0.0, 0.0, 1.0, 25.75, 14.25)">
    <path d="M-9.55 4.15 L-9.2 5.3 Q-15.1 0.8 -17.1 -6.45 -24.1 -6.8 -25.75 -12.4 -23.05 -10.65 -13.9 -12.65 -4.75 -14.65 2.15 -14.15 9.0 -13.65 15.0 -11.25 18.75 -9.45 25.55 -10.5 L25.75 -10.6 Q23.5 -7.9 21.4 -7.15 24.35 -4.1 23.95 -0.8 23.7 -1.95 20.3 -3.9 5.35 -11.7 -12.05 -6.3 -11.85 -3.65 -11.45 -1.85 L-10.3 1.9 -9.6 3.95 -9.55 4.15 M15.35 11.4 L13.1 12.65 Q8.1 15.15 1.35 13.7 -0.8 13.2 -3.6 11.55 L-2.25 11.6 -1.7 11.75 2.05 12.35 Q6.1 13.05 10.05 12.5 L13.65 11.9 13.95 11.8 14.85 11.6 15.35 11.4" fill="#000000" fill-rule="evenodd" stroke="none"/>
  </g>
</svg>
