<?xml version="1.0" encoding="UTF-8" standalone="no"?>
<svg xmlns:xlink="http://www.w3.org/1999/xlink" height="30.55px" width="47.4px" xmlns="http://www.w3.org/2000/svg">
  <g transform="matrix(1.0, 0.0, 0.0, 1.0, 23.7, 15.25)">
    <path d="M19.8 -5.65 L17.85 -7.8 Q10.3 -13.55 -1.5 -11.3 -11.0 -9.5 -14.15 -4.6 -15.5 -1.85 -15.05 1.7 L-14.5 3.85 Q-12.35 10.5 -9.15 12.05 L-8.8 12.15 Q-6.95 12.9 -0.75 13.1 4.6 13.25 13.1 10.5 L14.95 9.85 15.85 9.55 Q16.05 9.4 16.25 9.4 3.85 16.95 -6.25 14.8 -10.7 13.75 -12.8 11.65 -19.25 5.55 -23.7 -3.9 -21.75 -8.3 -14.2 -12.05 -6.65 -15.8 5.3 -15.15 17.1 -14.5 21.75 -6.85 L23.7 -3.6 20.25 -5.05 19.8 -5.65" fill="#000000" fill-rule="evenodd" stroke="none"/>
  </g>
</svg>
