<?xml version="1.0" encoding="UTF-8" standalone="no"?>
<svg xmlns:xlink="http://www.w3.org/1999/xlink" height="12.95px" width="43.5px" xmlns="http://www.w3.org/2000/svg">
  <g transform="matrix(1.0, 0.0, 0.0, 1.0, 21.75, 6.5)">
    <path d="M-0.45 -6.45 Q9.9 -7.1 21.75 4.15 L19.7 4.15 Q20.4 4.85 20.15 5.6 10.6 1.05 0.55 1.3 -9.35 1.55 -20.05 6.45 -19.3 4.95 -16.75 2.65 L-21.75 2.2 -18.2 -0.25 Q-11.0 -5.95 -0.45 -6.45 M-14.95 0.95 Q-14.2 0.5 -13.85 1.15 0.3 -6.0 14.35 1.95 16.0 2.2 17.6 3.15 9.3 -3.05 1.05 -3.5 -8.15 -4.1 -14.95 0.95" fill="#000000" fill-rule="evenodd" stroke="none"/>
  </g>
</svg>
