<?xml version="1.0" encoding="UTF-8" standalone="no"?>
<svg xmlns:xlink="http://www.w3.org/1999/xlink" height="16.35px" width="44.4px" xmlns="http://www.w3.org/2000/svg">
  <g transform="matrix(1.0, 0.0, 0.0, 1.0, 22.2, 8.2)">
    <path d="M-10.25 0.05 Q-10.25 -2.45 -8.9 -4.35 -14.15 -2.55 -19.0 2.1 L-22.2 2.1 Q-18.55 -2.4 -14.25 -4.95 -2.85 -10.0 10.25 -7.15 16.85 -4.95 22.2 2.25 L19.3 2.25 Q17.3 -1.15 13.1 -2.95 9.45 -4.3 4.45 -4.75 6.0 -2.7 6.0 0.05 6.0 3.4 3.7 5.7 1.25 8.15 -2.1 8.15 -5.5 8.15 -7.8 5.7 -10.25 3.4 -10.25 0.05 M-2.1 -5.65 L-2.85 -5.55 Q-4.85 -5.35 -6.2 -3.9 -7.95 -2.2 -7.95 0.25 -7.95 2.7 -6.2 4.3 -4.55 6.05 -2.1 6.05 0.35 6.05 2.0 4.3 3.7 2.7 3.7 0.25 3.7 -2.2 2.0 -3.9 0.55 -5.45 -1.6 -5.55 L-2.1 -5.65" fill="#000000" fill-rule="evenodd" stroke="none"/>
  </g>
</svg>
