<?xml version="1.0" encoding="UTF-8" standalone="no"?>
<svg xmlns:xlink="http://www.w3.org/1999/xlink" height="16.9px" width="23.7px" xmlns="http://www.w3.org/2000/svg">
  <g transform="matrix(1.0, 0.0, 0.0, 1.0, 11.85, 8.45)">
    <path d="M0.85 -2.15 Q0.85 -0.2 -0.25 1.3 L-1.15 2.3 Q-2.9 4.15 -5.55 4.15 -8.1 4.15 -10.05 2.3 L-10.8 1.3 Q-11.85 -0.2 -11.85 -2.15 -11.85 -4.75 -10.05 -6.65 -8.1 -8.45 -5.55 -8.45 -2.9 -8.45 -1.15 -6.65 0.85 -4.75 0.85 -2.15 M7.15 7.45 Q6.3 6.7 6.3 5.3 6.3 3.95 7.15 2.95 7.9 2.15 9.05 2.15 10.15 2.15 10.95 2.95 11.85 3.95 11.85 5.3 11.85 6.7 10.95 7.45 10.15 8.45 9.05 8.45 7.9 8.45 7.15 7.45" fill="#ffffff" fill-rule="evenodd" stroke="none"/>
  </g>
</svg>
