<?xml version="1.0" encoding="UTF-8" standalone="no"?>
<svg xmlns:xlink="http://www.w3.org/1999/xlink" height="28.95px" width="25.65px" xmlns="http://www.w3.org/2000/svg">
  <g transform="matrix(1.0, 0.0, 0.0, 1.0, 12.8, 14.45)">
    <path d="M8.85 -10.75 Q12.6 -7.3 12.85 -0.25 13.1 6.8 10.1 10.25 7.15 13.6 1.7 14.4 -3.85 15.1 -8.15 11.35 -12.55 7.6 -12.8 0.5 -13.05 -6.5 -9.35 -10.55 -5.65 -14.75 -0.2 -14.45 5.2 -14.2 8.85 -10.75 M10.35 5.2 Q10.9 2.95 10.8 0.0 10.6 -5.9 7.6 -8.7 4.45 -11.55 -0.05 -11.8 -4.5 -12.05 -7.55 -8.6 -10.65 -5.2 -10.45 0.65 -10.3 4.0 -9.05 6.45 L-9.05 6.5 Q-8.2 8.35 -6.6 9.7 -3.0 12.8 1.55 12.2 6.15 11.55 8.55 8.8 9.75 7.35 10.35 5.2" fill="#000000" fill-rule="evenodd" stroke="none"/>
  </g>
</svg>
