<?xml version="1.0" encoding="UTF-8" standalone="no"?>
<svg xmlns:xlink="http://www.w3.org/1999/xlink" height="33.15px" width="29.75px" xmlns="http://www.w3.org/2000/svg">
  <g transform="matrix(1.0, 0.0, 0.0, 1.0, 14.85, 16.6)">
    <path d="M14.9 1.35 Q14.9 8.75 10.55 14.0 L8.0 16.55 -8.0 16.45 -10.45 14.0 Q-14.85 8.75 -14.85 1.35 -14.85 -6.05 -10.45 -11.35 -6.05 -16.6 0.0 -16.6 6.2 -16.6 10.55 -11.35 14.9 -6.05 14.9 1.35 M12.8 1.2 Q12.8 -4.95 9.15 -9.45 5.45 -13.85 0.25 -13.85 -4.9 -13.85 -8.6 -9.45 -12.35 -4.95 -12.35 1.2 -12.35 7.5 -8.6 11.95 -4.9 16.4 0.25 16.4 5.45 16.4 9.15 11.95 12.8 7.5 12.8 1.2" fill="#000000" fill-rule="evenodd" stroke="none"/>
  </g>
</svg>
