<?xml version="1.0" encoding="UTF-8" standalone="no"?>
<svg xmlns:xlink="http://www.w3.org/1999/xlink" height="28.0px" width="23.95px" xmlns="http://www.w3.org/2000/svg">
  <g transform="matrix(1.0, 0.0, 0.0, 1.0, 3.15, 11.15)">
    <path d="M-2.1 4.1 L-2.1 3.85 -2.1 4.1" fill="#a86dff" fill-opacity="0.8392157" fill-rule="evenodd" stroke="none"/>
    <path d="M-2.1 3.85 L-2.15 3.55 Q-2.45 -2.4 0.85 -6.45 4.2 -10.5 9.0 -10.1 L10.35 -9.95 Q14.2 -9.35 16.5 -7.15 19.65 -3.9 19.8 3.55 L19.8 4.7 19.75 5.25 Q19.15 13.4 12.9 15.2 L11.55 15.5 11.3 15.55 10.4 15.7 9.65 15.75 Q4.75 16.3 1.5 12.9 -1.75 9.65 -2.1 4.1 L-2.1 3.85" fill="none" stroke="#000000" stroke-linecap="round" stroke-linejoin="round" stroke-width="2.0"/>
    <path d="M-2.1 4.1 L10.4 3.1 10.35 -9.95 M10.4 3.1 L19.8 3.55 M10.4 10.8 L10.4 3.1 M10.4 15.7 L10.4 11.25" fill="none" stroke="#000000" stroke-linecap="round" stroke-linejoin="round" stroke-opacity="0.64705884" stroke-width="1.5"/>
  </g>
</svg>
