<?xml version="1.0" encoding="UTF-8" standalone="no"?>
<svg xmlns:xlink="http://www.w3.org/1999/xlink" height="21.4px" width="19.85px" xmlns="http://www.w3.org/2000/svg">
  <g transform="matrix(1.0, 0.0, 0.0, 1.0, 9.9, 10.7)">
    <path d="M-0.3 10.45 L-3.75 10.35 Q-5.75 10.25 -7.1 8.9 -9.35 6.85 -9.9 0.0 -9.95 -7.6 -8.35 -10.1 L-5.65 -10.55 -2.95 -10.7 0.75 -10.45 4.3 -9.75 7.9 -8.6 Q9.85 -4.85 9.95 0.6 9.5 6.2 7.5 8.6 L7.45 8.65 Q6.2 10.05 4.2 10.35 L2.65 10.45 2.45 10.55 2.35 10.7 0.75 10.6 0.0 10.7 -0.05 10.55 -0.25 10.45 -0.3 10.45" fill="#77c7e9" fill-rule="evenodd" stroke="none"/>
  </g>
</svg>
