<?xml version="1.0" encoding="UTF-8" standalone="no"?>
<svg xmlns:xlink="http://www.w3.org/1999/xlink" height="25.55px" width="24.2px" xmlns="http://www.w3.org/2000/svg">
  <g transform="matrix(1.0, 0.0, 0.0, 1.0, 8.25, 14.95)">
    <path d="M11.2 -11.1 L11.15 -11.15 Q8.3 -13.45 4.15 -13.4 -0.3 -13.45 -3.2 -10.75 -6.2 -8.1 -6.05 -3.1 -5.8 1.75 -2.75 5.45 0.1 8.8 4.7 8.4 9.4 8.05 11.55 5.4 13.55 2.6 13.65 -3.2 13.8 -8.85 11.2 -11.1 M12.65 -12.0 Q16.05 -9.75 15.95 -3.1 15.85 3.5 13.45 6.65 L13.4 6.75 Q10.8 9.95 5.1 10.55 -0.8 10.95 -4.5 6.75 L-4.5 6.7 Q-8.1 2.55 -8.25 -3.25 -8.45 -9.15 -4.85 -12.3 -1.3 -15.5 4.0 -14.85 9.25 -14.25 12.65 -12.0" fill="url(#gradient0)" fill-rule="evenodd" stroke="none"/>
  </g>
  <defs>
    <linearGradient gradientTransform="matrix(0.0047, 0.0199, -0.0242, 0.0037, 1.2, 0.15)" gradientUnits="userSpaceOnUse" id="gradient0" spreadMethod="pad" x1="-819.2" x2="819.2">
      <stop offset="0.19607843137254902" stop-color="#000000"/>
      <stop offset="0.5098039215686274" stop-color="#7a78d4"/>
      <stop offset="0.8235294117647058" stop-color="#000000"/>
    </linearGradient>
  </defs>
</svg>
