<?xml version="1.0" encoding="UTF-8" standalone="no"?>
<svg xmlns:xlink="http://www.w3.org/1999/xlink" height="27.55px" width="24.4px" xmlns="http://www.w3.org/2000/svg">
  <g transform="matrix(1.0, 0.0, 0.0, 1.0, 12.2, 13.75)">
    <path d="M12.2 0.3 Q12.4 6.65 8.9 10.25 5.35 13.8 0.35 13.8 -4.7 13.8 -8.3 10.25 -12.0 6.65 -12.2 0.25 -12.4 -6.1 -8.95 -9.7 -5.65 -13.3 -0.55 -13.7 4.5 -14.1 8.2 -10.1 12.0 -6.1 12.2 0.3 M10.65 0.3 Q10.45 -5.35 7.15 -8.9 3.95 -12.4 -0.45 -12.05 -4.85 -11.7 -7.75 -8.5 -10.75 -5.35 -10.55 0.25 -10.4 5.9 -7.15 9.1 -4.05 12.25 0.35 12.25 4.7 12.25 7.8 9.1 10.8 5.9 10.65 0.3" fill="#000000" fill-rule="evenodd" stroke="none"/>
  </g>
</svg>
