<?xml version="1.0" encoding="UTF-8" standalone="no"?>
<svg xmlns:xlink="http://www.w3.org/1999/xlink" height="23.45px" width="50.4px" xmlns="http://www.w3.org/2000/svg">
  <g transform="matrix(1.0, 0.0, 0.0, 1.0, 25.2, 11.75)">
    <path d="M23.3 -0.1 L23.05 -0.25 22.95 -0.35 21.7 -1.25 19.9 -2.35 Q16.1 -4.85 6.8 -6.65 -4.2 -7.5 -11.9 -3.1 -11.45 -1.0 -10.35 0.8 -6.8 6.85 3.5 9.45 L5.55 9.6 Q12.65 10.1 19.35 8.2 L20.15 8.05 21.0 7.9 21.35 7.85 22.65 7.5 23.15 7.4 Q24.45 7.25 24.7 8.65 22.55 8.8 20.6 9.5 L17.7 10.4 14.4 11.1 Q3.1 13.25 -8.35 7.4 -19.9 1.5 -25.2 -8.65 -20.25 -6.1 -14.0 -7.5 -2.9 -12.25 6.9 -11.7 21.3 -7.9 25.2 1.45 L23.3 -0.1" fill="#000000" fill-rule="evenodd" stroke="none"/>
  </g>
</svg>
