<?xml version="1.0" encoding="UTF-8" standalone="no"?>
<svg xmlns:xlink="http://www.w3.org/1999/xlink" height="31.15px" width="24.45px" xmlns="http://www.w3.org/2000/svg">
  <g transform="matrix(1.0, 0.0, 0.0, 1.0, 12.2, 15.55)">
    <path d="M-0.7 -13.95 Q-5.25 -13.7 -8.25 -10.15 -11.25 -6.55 -9.85 0.65 -7.45 10.25 -0.55 13.8 L-0.6 13.8 Q2.1 15.1 5.1 13.85 9.05 12.15 10.3 0.8 11.55 -10.55 7.8 -11.8 L7.75 -11.8 Q3.8 -14.2 -0.7 -13.95 M-2.5 -15.0 Q4.1 -16.55 8.75 -13.85 13.35 -12.45 11.9 0.9 10.5 14.1 5.8 15.5 L5.7 15.5 -1.0 15.6 -1.1 15.6 Q-8.9 11.9 -11.7 0.8 -13.3 -7.5 -9.55 -11.4 -6.65 -14.2 -2.5 -15.0" fill="#000000" fill-rule="evenodd" stroke="none"/>
  </g>
</svg>
