<?xml version="1.0" encoding="UTF-8" standalone="no"?>
<svg xmlns:xlink="http://www.w3.org/1999/xlink" height="21.85px" width="43.7px" xmlns="http://www.w3.org/2000/svg">
  <g transform="matrix(1.0, 0.0, 0.0, 1.0, 21.85, 10.95)">
    <path d="M2.45 -8.95 Q-2.45 -8.95 -6.95 -6.95 -6.3 -6.95 -5.55 -6.25 -4.45 -5.15 -4.45 -3.8 -4.45 -2.4 -5.55 -1.6 -6.5 -0.4 -7.8 -0.4 -9.2 -0.4 -10.4 -1.6 -11.2 -2.4 -11.2 -3.8 L-11.0 -5.0 Q-12.85 -4.05 -14.35 -2.65 -22.05 3.6 -17.55 7.25 -13.05 10.65 -6.1 5.4 0.95 0.05 6.55 3.15 10.85 4.55 16.7 3.9 22.3 2.95 16.25 -2.9 10.2 -8.95 2.45 -8.95 M3.0 -10.95 Q12.4 -10.95 19.15 -3.8 25.25 4.8 17.55 6.6 12.4 7.7 7.95 5.85 1.2 1.65 -4.7 7.85 -12.1 13.95 -20.45 7.85 -24.05 4.95 -18.4 -1.15 -8.1 -10.95 3.0 -10.95" fill="#000000" fill-rule="evenodd" stroke="none"/>
    <path d="M2.45 -8.95 Q-2.45 -8.95 -6.95 -6.95 -6.3 -6.95 -5.55 -6.25 -4.45 -5.15 -4.45 -3.8 -4.45 -2.4 -5.55 -1.6 -6.5 -0.4 -7.8 -0.4 -9.2 -0.4 -10.4 -1.6 -11.2 -2.4 -11.2 -3.8 L-11.0 -5.0 Q-12.85 -4.05 -14.35 -2.65 -22.05 3.6 -17.55 7.25 -13.05 10.65 -6.1 5.4 0.95 0.05 6.55 3.15 10.85 4.55 16.7 3.9 22.3 2.95 16.25 -2.9 10.2 -8.95 2.45 -8.95 M3.0 -10.95 Q-8.1 -10.95 -18.4 -1.15 -24.05 4.95 -20.45 7.85 -12.1 13.95 -4.7 7.85 1.2 1.65 7.95 5.85 12.4 7.7 17.55 6.6 25.25 4.8 19.15 -3.8 12.4 -10.95 3.0 -10.95" fill="none" stroke="#000000" stroke-linecap="round" stroke-linejoin="round" stroke-width="0.05"/>
  </g>
</svg>
