<?xml version="1.0" encoding="UTF-8" standalone="no"?>
<svg xmlns:xlink="http://www.w3.org/1999/xlink" height="32.7px" width="34.45px" xmlns="http://www.w3.org/2000/svg">
  <g transform="matrix(1.0, 0.0, 0.0, 1.0, 17.25, 16.35)">
    <path d="M9.85 0.55 Q9.85 -1.15 8.8 -2.35 7.75 -3.5 6.3 -3.5 4.85 -3.5 3.8 -2.35 2.8 -1.15 2.8 0.5 2.8 2.2 3.8 3.4 4.85 4.6 6.3 4.6 7.75 4.6 8.8 3.4 9.85 2.2 9.85 0.55 M17.2 0.0 Q17.2 6.75 12.15 11.5 7.1 16.35 -0.05 16.35 -7.15 16.35 -12.25 11.5 -17.25 6.75 -17.25 0.0 -17.25 -6.8 -12.25 -11.6 -7.15 -16.35 -0.05 -16.35 7.1 -16.35 12.15 -11.6 17.2 -6.8 17.2 0.0" fill="#ffffff" fill-rule="evenodd" stroke="none"/>
  </g>
</svg>
