<?xml version="1.0" encoding="UTF-8" standalone="no"?>
<svg xmlns:xlink="http://www.w3.org/1999/xlink" height="17.7px" width="41.3px" xmlns="http://www.w3.org/2000/svg">
  <g transform="matrix(1.0, 0.0, 0.0, 1.0, 20.65, 8.85)">
    <path d="M13.6 0.75 L14.5 1.0 Q16.85 1.75 16.15 0.45 L15.3 -0.85 Q13.45 -2.8 11.0 -3.95 10.9 -0.85 9.7 0.4 L13.6 0.75 M-3.35 0.75 L-2.0 0.55 Q-3.95 -2.3 -3.65 -5.05 -7.65 -4.6 -12.1 -1.25 -15.95 2.2 -16.2 3.85 -14.15 6.05 -11.2 4.05 -7.45 1.8 -3.35 0.75 M6.15 -8.4 Q15.1 -7.3 19.85 0.25 20.9 2.35 20.6 3.4 19.4 5.4 15.15 4.9 L8.0 3.85 Q-0.65 2.05 -13.8 8.85 -17.3 8.75 -20.05 5.3 -21.85 2.5 -18.2 -1.4 -7.6 -10.65 6.15 -8.4" fill="#000000" fill-rule="evenodd" stroke="none"/>
  </g>
</svg>
