<?xml version="1.0" encoding="UTF-8" standalone="no"?>
<svg xmlns:xlink="http://www.w3.org/1999/xlink" height="44.15px" width="24.7px" xmlns="http://www.w3.org/2000/svg">
  <g transform="matrix(1.0, 0.0, 0.0, 1.0, 10.3, 20.2)">
    <path d="M-2.4 -19.0 Q-0.25 -20.2 2.25 -20.2 8.05 -20.2 12.15 -13.8 L13.85 -10.65 Q-0.85 -15.45 -10.3 -8.1 -9.3 -11.15 -7.65 -13.8 -6.25 -16.0 -4.65 -17.4 L-2.4 -19.0" fill="#000000" fill-opacity="0.21960784" fill-rule="evenodd" stroke="none"/>
    <path d="M14.4 13.05 L12.15 17.5 Q8.05 23.95 2.25 23.95 L0.7 23.85 0.3 23.75 0.2 23.75 0.05 23.7 -0.1 23.7 Q-4.4 22.6 -7.65 17.5 -8.85 15.65 -9.65 13.55 L-7.15 10.05 Q2.3 -1.8 11.8 9.5 L14.4 13.05" fill="#ffffff" fill-opacity="0.24705882" fill-rule="evenodd" stroke="none"/>
  </g>
</svg>
