<?xml version="1.0" encoding="UTF-8" standalone="no"?>
<svg xmlns:xlink="http://www.w3.org/1999/xlink" height="21.45px" width="29.25px" xmlns="http://www.w3.org/2000/svg">
  <g transform="matrix(1.0, 0.0, 0.0, 1.0, 11.95, 9.05)">
    <path d="M-11.6 3.95 L-11.95 0.35 Q-11.8 -3.5 -10.7 -5.55 -7.95 -9.35 0.6 -9.05 8.5 -7.65 14.6 -3.25 L16.7 -0.15 16.75 0.0 Q17.6 1.6 17.15 3.4 L14.95 2.35 Q5.9 0.05 -1.75 1.3 -6.7 2.1 -11.6 3.95" fill="#e9deec" fill-rule="evenodd" stroke="none"/>
    <path d="M-11.6 3.95 Q-6.7 2.1 -1.75 1.3 5.9 0.05 14.95 2.35 L17.15 3.4 17.15 3.45 Q14.95 11.15 9.25 11.95 3.85 12.65 -3.0 12.2 -7.8 12.15 -9.4 9.75 -10.95 7.6 -11.6 3.95" fill="#ffffff" fill-rule="evenodd" stroke="none"/>
  </g>
</svg>
