<?xml version="1.0" encoding="UTF-8" standalone="no"?>
<svg xmlns:xlink="http://www.w3.org/1999/xlink" height="28.85px" width="34.7px" xmlns="http://www.w3.org/2000/svg">
  <g transform="matrix(1.0, 0.0, 0.0, 1.0, 17.35, 14.45)">
    <path d="M-4.25 10.35 Q-3.35 11.4 2.2 14.4 -3.35 13.6 -4.25 10.35 M-6.35 7.35 Q-7.5 9.5 -9.35 10.35 -8.75 7.95 -6.35 7.35 M-5.05 8.25 Q-5.65 10.65 -7.15 11.9 -7.25 9.45 -5.05 8.25 M-0.5 -10.05 Q-6.15 -10.05 -11.0 -6.9 -11.15 -4.05 -10.4 -0.6 -9.7 2.7 -8.25 6.6 -14.65 -1.15 -17.35 -10.45 -6.2 -15.35 1.3 -14.25 8.75 -13.25 12.7 -10.15 16.65 -7.1 17.35 -5.0 L15.85 -5.6 Q16.4 -4.95 16.3 -4.25 L14.8 -5.25 12.5 -6.5 10.2 -7.65 7.35 -8.7 5.25 -9.3 -0.5 -10.05" fill="#000000" fill-rule="evenodd" stroke="none"/>
  </g>
</svg>
