<?xml version="1.0" encoding="UTF-8" standalone="no"?>
<svg xmlns:xlink="http://www.w3.org/1999/xlink" height="25.7px" width="31.95px" xmlns="http://www.w3.org/2000/svg">
  <g transform="matrix(1.0, 0.0, 0.0, 1.0, 12.65, 14.6)">
    <path d="M16.55 -9.15 Q17.85 -6.1 17.85 -2.35 17.85 3.25 14.85 7.15 11.8 11.1 7.5 11.1 3.25 11.1 0.15 7.15 -2.8 3.25 -2.8 -2.4 -2.8 -6.1 -1.45 -9.15 L-1.35 -9.25 -1.25 -9.3 0.25 -9.3 0.4 -9.25 0.5 -9.1 0.5 -8.85 0.0 -7.75 Q-1.0 -5.3 -1.0 -2.35 -1.0 2.2 1.25 5.45 L1.5 5.85 Q4.0 9.15 7.5 9.15 11.05 9.15 13.5 5.85 L13.6 5.75 Q16.0 2.4 16.0 -2.25 16.0 -5.5 14.85 -8.15 L14.55 -8.85 14.5 -9.1 14.6 -9.25 14.75 -9.3 16.25 -9.3 16.45 -9.25 16.55 -9.15" fill="#332424" fill-rule="evenodd" stroke="none"/>
    <path d="M4.3 -13.8 L15.8 -13.25" fill="none" stroke="#000000" stroke-linecap="round" stroke-linejoin="round" stroke-opacity="0.46666667" stroke-width="1.6"/>
    <path d="M18.9 -6.75 Q19.45 -4.3 19.2 -2.75 2.55 -3.2 -11.2 0.3 -12.65 -2.95 -12.65 -6.3 3.2 -7.1 18.9 -6.75" fill="#203d5d" fill-opacity="0.21960784" fill-rule="evenodd" stroke="none"/>
  </g>
</svg>
