<?xml version="1.0" encoding="UTF-8" standalone="no"?>
<svg xmlns:xlink="http://www.w3.org/1999/xlink" height="4.85px" width="6.6px" xmlns="http://www.w3.org/2000/svg">
  <g transform="matrix(1.0, 0.0, 0.0, 1.0, 10.65, -7.05)">
    <path d="M-5.1 9.6 L-4.8 9.3 -4.4 9.3 -4.1 9.6 -4.1 10.0 -5.25 11.9 -5.35 11.85 -5.65 11.6 -5.65 11.1 -5.1 9.6 M-7.45 8.05 L-10.65 8.35 -10.6 8.05 -10.35 7.85 -7.75 7.05 -7.45 7.6 Q-7.25 8.0 -7.45 8.05 M-6.65 8.55 L-6.2 8.55 -5.95 8.8 -5.85 9.2 -6.15 9.55 -8.05 10.1 -8.15 10.0 -8.15 9.65 -7.9 9.25 -6.65 8.55" fill="#271414" fill-opacity="0.6862745" fill-rule="evenodd" stroke="none"/>
  </g>
</svg>
