<?xml version="1.0" encoding="UTF-8" standalone="no"?>
<svg xmlns:xlink="http://www.w3.org/1999/xlink" height="22.9px" width="15.3px" xmlns="http://www.w3.org/2000/svg">
  <g transform="matrix(1.0, 0.0, 0.0, 1.0, 7.65, 11.45)">
    <path d="M-0.65 -6.55 Q-0.65 -4.5 -1.7 -3.1 -2.7 -1.65 -4.15 -1.65 -5.6 -1.65 -6.65 -3.1 -7.65 -4.5 -7.65 -6.55 -7.65 -8.6 -6.65 -10.05 -5.6 -11.45 -4.15 -11.45 -2.7 -11.45 -1.7 -10.05 -0.65 -8.6 -0.65 -6.55 M7.65 8.7 Q7.65 9.85 7.05 10.65 6.5 11.45 5.7 11.45 4.9 11.45 4.3 10.65 3.75 9.85 3.75 8.7 3.75 7.55 4.3 6.75 4.9 5.95 5.7 5.95 6.5 5.95 7.05 6.75 7.65 7.55 7.65 8.7" fill="#ffffff" fill-rule="evenodd" stroke="none"/>
  </g>
</svg>
