<?xml version="1.0" encoding="UTF-8" standalone="no"?>
<svg xmlns:xlink="http://www.w3.org/1999/xlink" height="17.15px" width="17.05px" xmlns="http://www.w3.org/2000/svg">
  <g transform="matrix(1.0, 0.0, 0.0, 1.0, 8.5, 8.55)">
    <path d="M8.55 -5.45 Q8.55 -4.05 7.7 -3.2 6.8 -2.35 5.55 -2.35 4.3 -2.35 3.4 -3.2 2.55 -4.05 2.55 -5.45 2.55 -6.75 3.4 -7.6 4.3 -8.55 5.55 -8.55 6.8 -8.55 7.7 -7.6 8.55 -6.75 8.55 -5.45 M8.55 5.5 Q8.55 6.85 7.7 7.75 6.8 8.6 5.55 8.6 4.3 8.6 3.4 7.75 2.55 6.85 2.55 5.5 2.55 4.2 3.4 3.35 4.3 2.4 5.55 2.4 6.8 2.4 7.7 3.35 8.55 4.2 8.55 5.5 M-2.5 -5.45 Q-2.5 -4.05 -3.35 -3.2 -4.25 -2.35 -5.5 -2.35 -6.75 -2.35 -7.65 -3.2 -8.5 -4.05 -8.5 -5.45 -8.5 -6.75 -7.65 -7.6 -6.75 -8.55 -5.5 -8.55 -4.25 -8.55 -3.35 -7.6 -2.5 -6.75 -2.5 -5.45 M-2.5 5.5 Q-2.5 6.85 -3.35 7.75 -4.25 8.6 -5.5 8.6 -6.75 8.6 -7.65 7.75 -8.5 6.85 -8.5 5.5 -8.5 4.2 -7.65 3.35 -6.75 2.4 -5.5 2.4 -4.25 2.4 -3.35 3.35 -2.5 4.2 -2.5 5.5" fill="#e5e5e5" fill-rule="evenodd" stroke="none"/>
  </g>
</svg>
