<?xml version="1.0" encoding="UTF-8" standalone="no"?>
<svg xmlns:xlink="http://www.w3.org/1999/xlink" height="15.9px" width="38.8px" xmlns="http://www.w3.org/2000/svg">
  <g transform="matrix(1.0, 0.0, 0.0, 1.0, 19.4, 7.95)">
    <path d="M19.4 -1.95 Q18.15 0.2 15.2 1.15 15.9 2.4 17.05 2.85 15.95 3.35 15.0 2.85 15.3 4.75 16.6 5.4 13.2 5.95 10.4 5.4 9.65 7.35 10.35 7.95 7.1 6.65 7.55 4.8 5.3 6.45 0.85 6.8 3.05 5.65 3.95 4.55 L-4.05 5.4 -0.8 3.95 -11.0 3.6 -4.7 2.0 Q-13.0 2.35 -19.4 0.5 -14.75 0.05 -11.7 -1.65 -10.5 -4.95 -11.7 -7.95 -4.95 -3.6 1.85 -2.65 9.9 -2.75 16.55 -3.9 13.2 -1.6 10.25 -1.5 L19.4 -1.95" fill="#000000" fill-rule="evenodd" stroke="none"/>
  </g>
</svg>
