<?xml version="1.0" encoding="UTF-8" standalone="no"?>
<svg xmlns:xlink="http://www.w3.org/1999/xlink" height="23.85px" width="17.4px" xmlns="http://www.w3.org/2000/svg">
  <g transform="matrix(1.0, 0.0, 0.0, 1.0, 8.7, 11.9)">
    <path d="M8.7 1.3 L8.65 3.25 Q8.5 5.1 8.0 6.55 6.2 10.5 3.45 11.45 L-0.3 11.9 -3.0 11.4 -3.2 11.3 Q-6.2 9.9 -7.75 6.85 -8.4 5.15 -8.6 2.95 L-8.7 1.4 -8.7 0.8 -8.65 0.2 Q-8.55 -4.25 -6.65 -7.4 L-6.1 -8.3 Q-4.2 -11.0 -1.75 -11.7 L-0.4 -11.9 0.2 -11.9 Q3.85 -11.85 6.4 -8.2 7.25 -7.05 7.7 -5.55 8.5 -3.1 8.7 0.2 L8.7 1.3" fill="#7ba4ff" fill-rule="evenodd" stroke="none"/>
  </g>
</svg>
