<?xml version="1.0" encoding="UTF-8" standalone="no"?>
<svg xmlns:xlink="http://www.w3.org/1999/xlink" height="32.65px" width="39.95px" xmlns="http://www.w3.org/2000/svg">
  <g transform="matrix(1.0, 0.0, 0.0, 1.0, 20.0, 16.35)">
    <path d="M17.25 14.4 L18.35 14.15 Q14.7 16.25 9.6 16.3 2.95 15.8 -0.45 14.15 -13.95 9.4 -20.0 4.15 -17.35 3.1 -10.3 2.5 -17.75 -0.35 -18.9 -1.9 -15.7 -3.25 -7.95 -2.7 -5.5 -10.25 0.5 -14.15 6.45 -17.5 13.2 -15.75 17.25 -14.65 19.95 -11.1 19.7 -10.9 17.8 -11.8 19.55 -9.85 19.4 -8.55 18.25 -8.65 17.85 -9.1 19.15 -5.45 18.85 -5.3 L18.05 -6.1 Q14.55 -9.5 10.35 -9.65 3.95 -9.05 0.05 -3.85 -3.2 0.65 -2.9 6.3 -2.9 9.7 -1.0 13.1 2.65 14.9 9.65 15.4 13.5 15.4 17.25 14.4" fill="url(#gradient0)" fill-rule="evenodd" stroke="none"/>
    <path d="M12.9 9.8 Q10.5 8.4 11.7 7.85 14.3 8.65 16.2 10.1 15.35 11.4 12.9 9.8 M2.25 10.85 Q0.6 11.0 0.5 10.25 1.0 9.6 3.45 8.25 5.85 6.8 6.7 6.8 5.4 11.65 3.35 12.95 2.7 13.0 2.25 10.85 M6.7 14.8 Q5.65 13.25 6.4 11.25 7.15 9.3 8.7 8.95 10.3 9.2 12.05 10.85 13.85 12.45 13.3 14.0 11.9 15.25 9.45 14.55 7.75 15.75 6.7 14.8" fill="#ffffff" fill-opacity="0.21960784" fill-rule="evenodd" stroke="none"/>
  </g>
  <defs>
    <linearGradient gradientTransform="matrix(0.0062, -0.0101, 0.0209, 0.0128, 0.85, 4.2)" gradientUnits="userSpaceOnUse" id="gradient0" spreadMethod="pad" x1="-819.2" x2="819.2">
      <stop offset="0.0" stop-color="#0a1258"/>
      <stop offset="1.0" stop-color="#161a7e" stop-opacity="0.0"/>
    </linearGradient>
  </defs>
</svg>
