<?xml version="1.0" encoding="UTF-8" standalone="no"?>
<svg xmlns:xlink="http://www.w3.org/1999/xlink" height="22.75px" width="41.3px" xmlns="http://www.w3.org/2000/svg">
  <g transform="matrix(1.0, 0.0, 0.0, 1.0, 0.0, 11.4)">
    <path d="M15.0 1.5 Q11.0 2.45 7.85 3.8 L9.75 7.1 10.65 8.35 13.0 11.35 Q6.9 8.7 0.0 7.25 1.35 6.45 4.95 7.2 L0.25 2.85 Q16.65 -8.1 31.15 -7.5 32.65 -9.5 32.95 -11.4 33.7 -9.05 32.45 -7.5 L34.5 -7.35 Q35.95 -8.55 36.55 -10.85 37.3 -8.65 35.75 -7.15 38.95 -6.45 41.3 -4.9 L37.15 -3.5 Q39.3 -1.75 40.2 -0.05 L38.5 -0.3 35.45 -0.55 34.1 -0.6 21.85 0.0 Q18.85 0.55 16.2 1.25 L15.0 1.5" fill="#000000" fill-rule="evenodd" stroke="none"/>
  </g>
</svg>
