<?xml version="1.0" encoding="UTF-8" standalone="no"?>
<svg xmlns:xlink="http://www.w3.org/1999/xlink" height="15.35px" width="19.7px" xmlns="http://www.w3.org/2000/svg">
  <g transform="matrix(1.0, 0.0, 0.0, 1.0, 9.85, 7.65)">
    <path d="M-7.05 -7.65 Q-8.8 -4.95 -8.45 -1.05 -8.15 2.35 -5.9 5.05 -4.8 6.3 -3.05 6.65 L-2.75 6.7 4.15 6.7 Q5.85 6.8 6.85 5.6 8.6 2.65 8.7 -0.65 8.85 -4.4 6.75 -7.4 L8.6 -7.3 Q10.45 -3.4 9.55 1.65 8.6 6.7 6.15 7.5 0.7 7.95 -4.35 7.5 -6.5 6.35 -7.55 4.75 -9.4 1.85 -9.7 -1.05 -10.1 -4.0 -9.35 -6.3 -8.75 -7.65 -8.35 -7.6 L-7.05 -7.65" fill="#321a41" fill-rule="evenodd" stroke="none"/>
  </g>
</svg>
