<?xml version="1.0" encoding="UTF-8" standalone="no"?>
<svg xmlns:xlink="http://www.w3.org/1999/xlink" height="23.25px" width="24.4px" xmlns="http://www.w3.org/2000/svg">
  <g transform="matrix(1.0, 0.0, 0.0, 1.0, 12.15, 11.65)">
    <path d="M1.55 -11.55 Q6.5 -11.05 9.35 -9.55 9.9 -8.9 11.05 -6.45 12.1 -4.25 12.25 -0.15 7.3 -0.35 4.6 -3.35 1.75 -6.45 1.55 -11.55 M-9.4 4.95 L-5.55 4.85 Q-5.2 5.95 -7.85 8.45 -10.55 10.95 -11.8 8.45 -13.1 5.95 -9.4 4.95 M-5.15 8.4 Q-2.9 9.65 -4.9 11.45 -6.65 12.0 -6.85 10.4 -7.15 8.8 -5.15 8.4" fill="#ffffff" fill-rule="evenodd" stroke="none"/>
    <path d="M1.55 -11.55 Q1.75 -6.45 4.6 -3.35 7.3 -0.35 12.25 -0.15 L12.25 0.55 Q6.55 0.65 3.55 -2.65 0.5 -6.0 0.45 -11.65 L1.55 -11.55" fill="#000000" fill-rule="evenodd" stroke="none"/>
  </g>
</svg>
