<?xml version="1.0" encoding="UTF-8" standalone="no"?>
<svg xmlns:xlink="http://www.w3.org/1999/xlink" height="150.45px" width="156.3px" xmlns="http://www.w3.org/2000/svg">
  <g transform="matrix(1.0, 0.0, 0.0, 1.0, 78.15, 75.2)">
    <path d="M-55.3 -2.35 Q-56.05 21.7 -45.35 42.45 L-44.75 43.65 Q-36.8 58.45 -23.05 71.55 -40.6 24.0 -38.6 3.7 L-34.45 -0.9 Q-40.3 -26.3 -28.35 -35.4 -6.5 -45.55 19.1 -35.05 33.2 -43.95 52.15 -36.15 58.7 -29.6 57.4 -4.65 L59.65 0.25 Q59.45 39.0 47.55 66.3 56.1 58.1 61.3 47.4 L63.4 42.65 Q66.05 35.9 67.5 28.25 70.3 13.3 68.4 -5.05 M-44.75 43.65 Q-35.25 62.7 -39.35 72.75 -45.55 60.35 -59.4 36.95 L-60.15 35.7 Q-54.1 56.6 -65.15 74.25 -62.7 63.55 -70.85 36.3 -80.6 8.7 -75.3 -18.8 -70.8 -45.6 -55.65 -60.45 -49.65 -66.2 -36.75 -70.9 -23.9 -75.65 -8.65 -72.3 3.45 -76.0 25.2 -72.4 47.0 -68.85 59.5 -54.45 71.95 -40.1 74.5 -12.3 76.65 1.95 75.25 24.5 74.45 58.8 77.15 64.75 69.15 57.1 67.35 45.0 65.15 62.65 65.05 65.15 58.3 56.6 61.3 47.4 M-6.0 -69.65 L-8.65 -72.3 M-7.15 -66.6 Q-23.9 -68.95 -36.7 -60.35 M67.5 28.25 Q66.2 37.5 67.35 45.0 M-63.65 -24.05 Q-73.05 12.55 -60.15 35.7 M-3.55 -66.95 Q15.2 -70.75 28.0 -64.65" fill="none" stroke="#123751" stroke-linecap="round" stroke-linejoin="round" stroke-width="2.0"/>
  </g>
</svg>
