<?xml version="1.0" encoding="UTF-8" standalone="no"?>
<svg xmlns:xlink="http://www.w3.org/1999/xlink" height="237.85px" width="229.9px" xmlns="http://www.w3.org/2000/svg">
  <g transform="matrix(1.0, 0.0, 0.0, 1.0, 114.95, 118.9)">
    <path d="M58.0 -105.2 Q58.5 -106.8 65.25 -105.25 78.75 -112.05 90.45 -99.2 108.95 -77.8 109.8 -41.5 111.0 -5.65 114.95 11.5 105.85 -0.05 104.2 -23.65 106.8 46.75 99.65 71.1 92.55 95.45 81.85 109.2 85.05 101.25 88.05 82.95 84.1 102.95 69.6 116.8 73.65 105.0 73.5 87.3 73.3 69.55 73.7 63.4 70.15 75.5 63.75 82.05 67.0 66.75 65.3 45.1 63.6 23.35 63.75 8.2 56.2 18.85 45.85 26.15 66.7 3.15 67.8 -42.6 67.85 -61.05 62.3 -73.1 53.45 -84.85 27.55 -82.0 4.45 -83.9 -8.6 -78.1 -19.2 -67.25 -18.15 -44.05 -10.45 18.05 8.55 31.15 -12.65 24.0 -23.95 4.75 L-18.1 15.4 Q-27.05 8.95 -31.65 2.3 -42.55 1.7 -52.25 -9.5 -61.9 -20.7 -60.5 -38.4 -69.8 18.35 -60.55 83.5 -56.55 104.9 -49.9 111.8 -67.35 107.15 -73.2 92.25 -70.7 112.95 -64.2 118.95 -81.35 112.55 -88.8 95.35 -84.1 108.05 -77.7 116.45 -102.2 97.45 -104.75 79.3 -111.5 42.9 -106.6 7.5 -110.1 17.75 -114.95 26.45 -110.6 7.0 -110.15 -44.1 -109.35 -82.1 -98.9 -95.1 -85.65 -111.85 -66.0 -111.9 -54.45 -112.7 -47.7 -105.0 -45.05 -104.0 -43.2 -102.95 -34.4 -113.6 -19.1 -116.55 -3.85 -119.55 6.35 -117.5 27.85 -121.95 48.4 -112.1 53.65 -109.15 58.0 -105.2 M-42.8 -25.35 Q-47.15 -28.95 -49.95 -26.85 -53.95 -20.55 -49.95 -12.9 -44.25 -2.8 -35.7 -4.0 -41.0 -13.55 -42.8 -25.35" fill="#f05656" fill-rule="evenodd" stroke="none"/>
  </g>
</svg>
