<?xml version="1.0" encoding="UTF-8" standalone="no"?>
<svg xmlns:xlink="http://www.w3.org/1999/xlink" height="146.4px" width="213.4px" xmlns="http://www.w3.org/2000/svg">
  <g transform="matrix(1.0, 0.0, 0.0, 1.0, 106.7, 73.2)">
    <path d="M57.95 -56.4 Q61.35 -55.45 64.7 -55.65 71.2 -55.95 77.25 -60.4 60.65 -60.5 36.5 -71.1 22.85 -74.2 10.4 -68.65 -5.1 -73.4 -18.65 -69.3 -32.35 -64.25 -42.45 -56.8 -51.0 -50.6 -58.25 -46.7 L-54.85 -45.65 Q-47.95 -46.6 -42.5 -50.5 L-41.05 -51.8 M-17.8 48.6 L-15.7 51.7 Q-10.95 57.1 -0.15 59.15 -14.55 46.35 -16.35 28.95 -18.6 11.7 -16.3 -8.25 -16.85 -28.7 -6.25 -32.45 L8.0 -32.9 Q19.6 -32.35 34.6 -28.5 52.6 -35.2 62.35 -34.0 71.1 -31.35 72.8 4.2 75.35 25.75 68.85 38.6 62.4 51.5 56.85 54.6 64.6 52.3 68.5 49.05 L70.75 46.55 70.9 46.4 Q72.0 44.6 72.25 42.65 M81.55 -11.95 L84.0 5.55 86.0 14.55 86.15 15.35 86.35 14.55 Q87.35 9.6 87.75 4.75 L87.9 2.25 Q88.05 -2.05 87.7 -6.35 L87.4 -9.25 Q86.8 -14.05 85.55 -18.8 L83.7 -24.8 82.65 -27.55 Q80.75 -29.05 79.2 -31.0 L77.25 -33.7 M64.7 -55.65 Q71.95 -52.25 78.3 -43.6 91.8 -44.45 98.4 -35.95 101.55 -29.4 99.85 -24.6 L95.35 -23.1 96.6 -22.4 94.25 -22.7 Q89.35 -20.85 86.65 -19.05 94.25 -20.15 101.55 -15.55 106.4 -11.45 105.55 -7.35 L104.45 -7.7 87.9 2.25 M78.3 -43.6 L82.2 -37.65 Q84.35 -33.9 86.7 -30.9 90.7 -30.15 94.9 -27.85 L99.85 -24.6 M94.25 -22.7 Q89.4 -23.45 85.65 -25.55 L83.7 -24.8 M85.65 -25.55 L82.65 -27.55 M86.7 -30.9 Q88.45 -28.7 90.35 -26.9 L94.9 -27.85 M85.55 -18.8 L86.5 -19.0 86.65 -19.05 M87.7 -6.35 Q90.05 -8.1 93.15 -9.65 L87.4 -9.25 M104.45 -7.7 Q98.5 -9.5 93.15 -9.65 M90.35 -26.9 Q92.75 -24.65 95.35 -23.1 M87.75 4.75 Q95.3 6.3 101.55 12.65 L101.55 18.55 Q102.1 20.85 98.0 23.15 87.0 26.9 81.05 31.2 86.35 31.3 93.15 34.95 98.5 39.35 99.05 43.8 L98.1 43.4 Q83.4 45.8 77.55 50.55 70.55 57.6 75.7 64.0 78.75 68.65 87.7 68.0 95.75 65.65 96.95 59.8 97.7 55.45 92.1 51.15 100.55 52.05 100.7 57.9 99.5 67.55 88.75 70.95 79.0 74.25 72.95 68.85 66.85 59.2 69.55 51.35 70.2 50.05 71.1 48.9 68.55 51.05 65.55 52.2 L68.5 49.05 M71.1 48.9 Q72.25 47.35 73.9 46.05 76.5 42.8 78.5 38.25 79.85 35.05 80.9 31.2 L81.0 30.8 82.8 23.1 84.0 14.7 Q84.3 10.55 84.1 7.0 L84.05 6.1 84.0 5.55 M86.0 14.55 L84.0 14.7 M82.8 23.1 Q88.2 19.55 96.55 16.3 91.35 14.45 86.35 14.55 M98.1 43.4 Q93.65 41.4 87.05 39.9 78.6 42.15 73.9 46.05 M101.55 18.55 Q99.0 17.2 96.55 16.3 M87.05 39.9 L78.5 38.25 M80.9 31.2 L81.05 31.2 M-95.4 -14.6 L-86.0 -15.7 Q-72.1 -16.55 -61.9 -11.6 -57.35 -9.4 -53.5 -6.0 -49.1 -10.1 -49.95 -16.65 L-50.3 -17.1 -51.45 -18.25 Q-55.35 -21.7 -62.75 -23.7 L-64.8 -24.25 -65.7 -24.5 Q-89.75 -27.35 -105.7 -22.55 -98.25 -17.95 -96.25 -14.45 L-95.4 -14.6 Q-82.95 -9.5 -68.3 1.1 -65.65 2.3 -63.2 4.2 -58.95 7.5 -55.5 12.9 -56.9 5.45 -63.0 -1.0 -70.75 -9.15 -86.0 -15.7 M-58.25 -46.7 Q-67.6 -49.35 -80.35 -49.85 -95.2 -49.5 -102.15 -41.25 -102.25 -36.8 -103.75 -33.7 -97.7 -36.9 -86.8 -37.05 L-77.4 -36.65 Q-66.0 -35.5 -58.2 -32.35 -49.85 -28.95 -45.65 -23.2 -38.65 -26.75 -38.9 -35.3 -42.95 -40.2 -49.55 -43.45 L-54.85 -45.65 M-61.9 -11.6 Q-62.7 -6.4 -63.0 -1.0 M-58.2 -32.35 L-60.8 -27.85 Q-55.05 -23.85 -51.45 -18.25 M-42.5 -50.5 L-49.55 -43.45 M-103.75 -33.7 L-65.7 -24.5 M-86.8 -37.05 Q-70.7 -34.8 -60.8 -27.85 M-39.45 15.9 Q-37.75 19.0 -37.3 22.3 L-37.15 23.6 -37.15 26.4 Q-36.85 44.6 -26.05 51.45 -28.15 47.15 -29.35 40.75 -36.75 25.25 -36.4 6.75 M-55.5 12.9 L-54.85 14.0 Q-54.95 15.4 -55.4 16.75 L-55.35 18.4 Q-55.8 21.95 -56.85 24.95 -57.0 27.5 -55.95 33.45 -54.9 39.35 -56.75 45.15 -47.5 40.55 -45.5 34.8 -46.8 32.1 -47.95 27.9 -49.1 23.7 -46.45 19.3 L-46.95 14.85 Q-47.6 9.9 -49.15 3.65 M-55.4 16.75 Q-56.05 18.75 -57.45 20.65 -60.1 18.2 -62.9 16.15 L-62.3 22.9 Q-59.75 25.5 -58.35 27.9 L-58.15 28.05 -56.85 24.95 M-58.15 28.05 L-56.8 29.05 Q-57.65 34.0 -64.15 37.25 -69.9 29.45 -85.25 23.1 -83.2 28.2 -75.45 35.0 -68.7 41.4 -65.65 46.3 -63.55 53.55 -67.55 59.55 -68.85 63.3 -75.75 66.25 -84.85 69.7 -89.15 66.25 -97.05 62.3 -95.5 54.7 -93.2 50.8 -85.2 50.3 -90.1 52.2 -90.05 55.55 -90.05 63.4 -79.5 63.1 -70.15 61.9 -68.05 53.45 -70.0 48.75 -76.6 43.15 -95.75 26.95 -91.5 20.65 -85.4 17.45 -77.8 18.75 -71.85 20.85 -67.25 22.95 -72.7 19.2 -84.85 13.35 -96.95 7.5 -98.2 6.05 L-98.6 1.6 Q-88.7 -4.65 -72.0 -0.2 -70.1 0.3 -68.3 1.1 M-67.25 22.95 Q-64.35 24.25 -62.0 25.6 -59.95 26.75 -58.35 27.9 M-67.55 59.55 Q-66.7 56.7 -68.05 53.45 M-29.35 40.75 Q-23.25 52.5 -12.35 56.65 L-15.7 51.7 M-37.3 22.3 Q-41.8 14.5 -46.45 19.3 M-85.25 23.1 Q-88.2 21.85 -91.5 20.65 M-62.3 22.9 Q-69.7 15.4 -86.85 6.05 -93.0 5.0 -98.2 6.05 M-62.9 16.15 Q-71.65 9.85 -82.4 7.05 L-86.85 6.05" fill="none" stroke="#000000" stroke-linecap="round" stroke-linejoin="round" stroke-width="2.0"/>
  </g>
</svg>
