<?xml version="1.0" encoding="UTF-8" standalone="no"?>
<svg xmlns:xlink="http://www.w3.org/1999/xlink" height="95.4px" width="138.75px" xmlns="http://www.w3.org/2000/svg">
  <g transform="matrix(1.0, 0.0, 0.0, 1.0, 69.35, 47.7)">
    <path d="M17.5 -45.75 Q37.4 -41.55 52.55 -27.8 67.65 -14.05 68.35 4.65 69.0 23.3 61.45 30.7 L60.6 10.3 59.25 6.8 Q57.1 -8.65 52.8 -12.0 26.7 -19.3 1.6 -16.8 -23.5 -14.35 -27.8 -5.35 -32.1 3.65 -32.7 10.9 L-38.3 17.15 Q-42.85 31.5 -41.6 46.7 L-48.9 46.7 -53.55 39.75 Q-58.25 36.1 -62.6 43.8 -71.95 25.05 -66.15 -0.2 -61.95 -18.65 -47.45 -30.3 -42.05 -34.65 -35.25 -38.05 L-34.45 -38.45 Q-28.05 -41.55 -20.7 -43.5 L-16.25 -44.55 -14.2 -45.05 -7.75 -46.15 -4.25 -46.5 Q2.7 -47.0 10.9 -46.35 L17.5 -45.75 Z" fill="none" stroke="#000000" stroke-linecap="round" stroke-linejoin="round" stroke-width="2.0"/>
  </g>
</svg>
