<?xml version="1.0" encoding="UTF-8" standalone="no"?>
<svg xmlns:xlink="http://www.w3.org/1999/xlink" height="131.75px" width="169.5px" xmlns="http://www.w3.org/2000/svg">
  <g transform="matrix(1.0, 0.0, 0.0, 1.0, 84.75, 65.85)">
    <path d="M17.5 -64.9 Q39.05 -62.3 54.9 -47.0 58.1 -43.95 60.65 -40.7 72.5 -25.65 73.8 -2.7 L73.85 -2.6 Q78.55 13.85 83.3 22.45 78.55 21.1 75.65 17.85 79.9 40.1 84.75 41.75 77.65 39.85 75.0 34.9 73.45 32.0 73.4 28.0 73.3 34.45 72.1 39.85 68.35 56.45 53.75 62.75 60.0 54.45 63.4 34.6 60.55 39.85 55.95 43.2 64.65 18.3 60.85 -0.45 L59.25 -11.8 59.25 -12.35 58.75 -15.7 Q56.6 -28.15 52.8 -31.15 26.7 -38.45 1.6 -35.95 -15.5 -34.3 -22.95 -29.55 -30.9 -12.65 -27.0 18.85 -22.95 40.3 -15.55 46.55 -27.45 43.15 -29.95 32.45 -26.45 56.35 -17.2 65.9 -37.8 57.85 -43.7 41.95 L-41.3 54.1 Q-53.75 48.85 -59.2 38.95 -56.35 45.4 -64.9 54.15 -64.15 45.5 -67.35 35.65 -72.05 43.8 -83.85 45.65 -79.05 41.25 -76.0 31.65 -72.9 22.0 -70.9 18.75 -76.3 23.3 -84.75 23.85 -75.7 18.4 -69.8 1.55 -68.8 -7.8 -66.15 -19.35 -61.95 -37.8 -47.45 -49.45 -42.05 -53.8 -35.25 -57.2 L-34.45 -57.6 Q-28.05 -60.7 -20.7 -62.65 L-16.25 -63.7 -14.2 -64.2 -7.75 -65.3 -4.25 -65.65 Q2.7 -66.15 10.9 -65.5 L17.5 -64.9" fill="url(#gradient0)" fill-rule="evenodd" stroke="none"/>
  </g>
  <defs>
    <linearGradient gradientTransform="matrix(0.0, 0.0828, -0.1035, 0.0, 0.0, 36.35)" gradientUnits="userSpaceOnUse" id="gradient0" spreadMethod="pad" x1="-819.2" x2="819.2">
      <stop offset="0.0" stop-color="#fff23c" stop-opacity="0.0"/>
      <stop offset="0.3803921568627451" stop-color="#fff23c" stop-opacity="0.84705883"/>
      <stop offset="0.6039215686274509" stop-color="#fff23c" stop-opacity="0.8"/>
      <stop offset="1.0" stop-color="#fff23c" stop-opacity="0.0"/>
    </linearGradient>
  </defs>
</svg>
