<?xml version="1.0" encoding="UTF-8" standalone="no"?>
<svg xmlns:xlink="http://www.w3.org/1999/xlink" height="145.1px" width="145.6px" xmlns="http://www.w3.org/2000/svg">
  <g transform="matrix(1.0, 0.0, 0.0, 1.0, 72.8, 72.55)">
    <path d="M-59.7 34.25 L-59.75 34.35 -59.85 33.7 -59.7 34.25" fill="#8ef7aa" fill-rule="evenodd" stroke="none"/>
    <path d="M-70.45 20.0 Q-75.0 -8.95 -63.95 -36.95 -58.55 -47.75 -49.3 -55.15 -43.9 -59.5 -37.1 -62.9 L-36.3 -63.3 Q-29.9 -66.4 -22.55 -68.35 L-18.1 -69.4 -16.05 -69.9 -9.6 -71.0 -6.1 -71.35 Q0.85 -71.85 9.05 -71.2 L15.65 -70.6 Q35.55 -66.4 50.7 -52.65 58.7 -45.35 62.65 -36.65 L64.25 -32.7 Q71.25 -14.5 71.5 -2.1 72.75 15.2 68.6 35.15 64.45 55.05 66.9 66.35 56.1 53.9 59.25 31.85 56.35 36.2 51.1 37.1 58.05 31.85 59.55 4.45 L58.75 -14.55 57.85 -19.45 Q55.25 -33.5 50.95 -36.85 24.85 -44.15 -0.25 -41.65 -25.35 -39.2 -29.65 -30.2 -33.95 -21.2 -34.55 -13.95 -43.45 18.55 -33.7 38.55 -43.75 35.3 -46.45 26.2 -42.35 58.8 -53.35 71.55 -52.2 59.4 -59.7 34.25 L-59.75 34.35 -59.85 33.7 -63.0 18.4 Q-64.85 0.8 -60.45 -11.95 M-48.55 4.7 Q-49.7 13.8 -46.45 26.2 M-59.85 33.7 L-59.7 34.25 M59.25 31.85 Q65.05 23.2 64.75 10.0" fill="none" stroke="#000000" stroke-linecap="round" stroke-linejoin="round" stroke-width="2.0"/>
  </g>
</svg>
