<?xml version="1.0" encoding="UTF-8" standalone="no"?>
<svg xmlns:xlink="http://www.w3.org/1999/xlink" height="147.4px" width="171.5px" xmlns="http://www.w3.org/2000/svg">
  <g transform="matrix(1.0, 0.0, 0.0, 1.0, 85.75, 73.7)">
    <path d="M71.8 -56.15 L69.55 -55.55 Q70.6 -44.1 63.35 -30.15 L65.7 -26.35 65.95 -25.8 66.5 -24.8 Q77.1 -45.1 76.55 -64.5 70.75 -64.3 58.9 -60.85 47.45 -57.55 39.2 -51.55 L41.65 -50.2 Q45.8 -47.85 49.7 -44.75 L50.0 -44.55 50.6 -44.05 Q58.55 -52.25 69.55 -55.55 M66.5 -24.8 Q72.9 -12.4 73.8 4.1 L73.85 4.2 Q78.55 20.65 83.3 29.25 78.55 27.9 75.65 24.65 79.9 46.9 84.75 48.55 77.65 46.65 75.0 41.7 77.15 53.2 70.35 59.55 L72.1 46.65 Q68.35 63.25 53.75 69.55 60.0 61.25 63.4 41.4 60.55 46.65 55.95 50.0 64.65 25.1 60.85 6.35 L59.25 -5.0 58.75 -8.9 Q56.6 -21.35 52.8 -24.35 26.7 -31.65 1.6 -29.15 -15.5 -27.5 -22.95 -22.75 -30.9 -5.85 -27.0 25.65 -22.95 47.1 -15.55 53.35 -27.45 49.95 -29.95 39.25 -26.45 63.15 -17.2 72.7 -37.8 64.65 -43.7 48.75 L-41.3 60.9 Q-53.75 55.65 -59.2 45.75 -56.35 52.2 -64.9 60.95 -64.15 52.3 -67.35 42.45 -72.05 50.6 -83.85 52.45 -79.05 48.05 -76.0 38.45 -72.9 28.8 -70.9 25.55 -76.3 30.1 -84.75 30.65 -75.7 25.2 -69.8 8.35 -68.8 -1.0 -66.15 -12.55 -63.9 -22.5 -58.6 -30.45 -63.45 -49.35 -52.5 -72.7 -44.6 -70.4 -34.2 -65.05 -26.8 -61.3 -21.45 -55.65 L-20.7 -55.85 -16.25 -56.9 -14.2 -57.4 -7.75 -58.5 -4.25 -58.85 Q2.7 -59.35 10.9 -58.7 L17.5 -58.1 Q28.65 -56.75 38.25 -52.0 L39.2 -51.55 M50.6 -44.05 L54.9 -40.2 Q58.1 -37.15 60.65 -33.9 L62.45 -31.5 62.85 -30.9 63.35 -30.15 M59.25 -5.0 L59.25 -5.55 58.75 -8.9 M73.85 4.2 Q74.4 9.05 74.0 12.65 M75.65 24.65 Q73.15 21.8 72.05 17.55 M75.0 41.7 Q73.45 38.8 73.4 34.8 73.3 41.25 72.1 46.65 M63.4 41.4 L63.55 41.15 Q68.3 32.05 67.9 17.55 M73.4 34.8 Q73.45 28.75 72.55 21.7 M-17.4 -50.65 Q-19.25 -53.3 -21.45 -55.65 M-36.4 -53.85 Q-43.1 -57.7 -47.1 -58.55 -50.75 -50.5 -50.15 -40.3 -49.85 -35.05 -48.4 -29.2 -35.3 -32.25 -25.9 -44.95 -28.6 -48.6 -32.8 -51.55 L-36.4 -53.85 M-58.6 -30.45 Q-57.7 -26.9 -56.25 -23.5 M-31.75 20.0 Q-31.25 30.55 -29.95 39.25 M-67.65 22.0 Q-69.1 24.0 -70.9 25.55 M-59.2 45.75 L-61.2 41.3 M-67.35 42.45 L-69.15 37.8 M-43.7 48.75 Q-45.7 43.5 -47.5 35.65 -50.95 23.85 -49.05 11.15" fill="none" stroke="#000000" stroke-linecap="round" stroke-linejoin="round" stroke-width="2.0"/>
  </g>
</svg>
