<?xml version="1.0" encoding="UTF-8" standalone="no"?>
<svg xmlns:xlink="http://www.w3.org/1999/xlink" height="164.0px" width="154.35px" xmlns="http://www.w3.org/2000/svg">
  <g transform="matrix(1.0, 0.0, 0.0, 1.0, 77.15, 82.0)">
    <path d="M69.85 -64.45 L67.6 -63.85 Q68.55 -53.25 62.45 -40.5 L65.6 -35.1 Q75.2 -54.5 74.6 -72.45 68.8 -72.6 56.95 -69.15 45.8 -65.95 37.65 -60.1 44.3 -57.2 49.7 -53.4 57.3 -60.75 67.6 -63.85 M65.6 -35.1 Q67.35 -31.55 68.65 -27.6 71.45 -20.7 73.1 -12.5 L73.6 -9.4 Q77.8 18.75 75.25 44.55 71.15 50.7 66.45 53.7 L67.45 34.65 Q66.3 48.75 64.15 59.4 63.3 67.75 43.45 76.85 53.3 56.75 57.8 17.3 59.0 2.55 57.25 -9.3 55.3 -22.7 50.2 -32.65 31.95 -38.25 19.2 -34.65 3.4 -37.9 -7.0 -36.8 -17.45 -35.7 -25.3 -31.2 -31.65 -22.25 -34.4 -9.3 -36.3 -1.0 -36.45 9.1 -36.45 44.45 -20.3 81.0 -43.9 70.4 -47.6 56.1 -51.25 43.5 -52.2 30.9 -52.4 42.95 -50.5 54.9 -59.65 49.05 -62.15 45.95 -64.65 42.8 -65.1 37.4 L-65.1 44.9 Q-73.0 38.95 -75.2 33.8 -78.15 12.25 -72.05 -9.4 -69.55 -18.85 -65.6 -28.3 L-65.25 -29.15 Q-63.4 -33.8 -60.95 -37.8 -66.3 -57.05 -55.1 -81.0 -47.2 -78.7 -36.8 -73.35 -29.4 -69.6 -24.05 -63.95 L-23.3 -64.15 -18.85 -65.2 -16.8 -65.7 -10.35 -66.8 -6.85 -67.15 Q0.1 -67.65 8.3 -67.0 L14.9 -66.4 23.4 -64.95 Q31.15 -62.95 37.65 -60.1 M67.45 34.65 L67.85 27.35 67.85 26.6 67.95 24.9 68.0 23.55 68.0 23.2 68.05 23.1 68.05 22.85 68.05 22.4 68.1 21.8 Q69.1 4.2 66.6 -9.4 64.4 -22.35 59.4 -31.75 M49.7 -53.4 Q57.45 -47.9 62.45 -40.5 M68.05 22.85 L68.05 23.0 68.05 23.05 68.05 23.1 68.0 23.55 M-35.4 -59.85 L-39.0 -62.15 Q-45.7 -66.0 -49.7 -66.85 -53.4 -58.7 -52.75 -48.3 -52.4 -43.15 -51.0 -37.5 -37.9 -40.55 -28.5 -53.25 -31.2 -56.9 -35.4 -59.85 M-20.0 -58.95 Q-21.85 -61.6 -24.05 -63.95 M-60.95 -37.8 Q-60.15 -34.75 -58.85 -31.8 M-52.2 30.9 L-52.25 30.25 Q-53.55 7.4 -50.15 -9.3 L-50.15 -9.4 Q-47.45 -23.65 -41.8 -33.7 M-65.1 37.4 Q-66.55 21.1 -65.4 13.2" fill="none" stroke="#000000" stroke-linecap="round" stroke-linejoin="round" stroke-width="2.0"/>
  </g>
</svg>
