<?xml version="1.0" encoding="UTF-8" standalone="no"?>
<svg xmlns:xlink="http://www.w3.org/1999/xlink" height="140.85px" width="147.45px" xmlns="http://www.w3.org/2000/svg">
  <g transform="matrix(1.0, 0.0, 0.0, 1.0, 73.7, 70.4)">
    <path d="M-41.0 61.5 L-40.05 62.35 -40.6 61.95 -40.65 61.9 -41.0 61.5" fill="#8ef7aa" fill-rule="evenodd" stroke="none"/>
    <path d="M27.45 -48.75 Q36.45 -56.45 55.2 -61.05 L72.05 -64.95 Q71.15 -49.85 67.95 -40.85 71.7 -40.7 72.75 -41.5 72.7 -36.05 67.95 -33.85 71.9 -30.75 71.85 -24.4 68.4 -25.8 65.85 -25.25 68.65 -19.25 68.1 -15.85 65.25 -18.6 62.05 -20.1 L62.85 -18.45 Q69.5 -3.95 70.8 12.15 L70.95 14.5 71.0 15.5 Q75.8 48.95 67.0 58.9 63.2 63.75 57.6 64.5 61.7 60.9 64.0 55.45 60.5 60.4 54.45 63.1 46.75 65.15 44.0 59.5 50.05 55.5 55.4 47.25 52.05 50.4 46.55 47.1 56.7 38.9 59.5 25.85 L59.5 14.65 Q58.95 5.0 54.8 -6.3 55.55 -15.05 51.25 -18.4 30.3 -25.8 19.4 -19.05 10.4 -23.65 -6.45 -22.45 -23.35 -21.3 -26.35 -14.8 -29.35 -8.3 -28.2 -1.9 -33.2 17.7 -30.4 29.6 -25.25 45.3 -10.9 51.7 -18.45 55.5 -23.75 54.3 L-8.45 64.4 Q-18.2 72.1 -29.45 68.05 -35.8 65.2 -40.05 62.35 L-39.9 62.65 -32.9 68.4 Q-44.6 65.95 -51.55 59.2 L-51.25 59.55 Q-67.75 56.7 -70.65 40.15 -73.5 18.65 -67.7 -6.6 -66.3 -12.95 -63.6 -18.45 -66.3 -21.95 -68.8 -30.8 -71.95 -41.8 -72.55 -52.65 -73.2 -63.6 -71.25 -69.4 -67.8 -68.25 -46.45 -63.55 -26.1 -59.05 -17.15 -51.1 L-15.75 -51.45 -9.3 -52.55 -5.8 -52.9 Q1.15 -53.4 9.35 -52.75 L15.95 -52.15 Q21.9 -50.9 27.45 -48.75 31.95 -47.05 34.7 -45.5 M48.85 -35.6 L54.3 -30.95 Q57.75 -27.95 61.4 -21.35 L64.75 -31.3 67.95 -40.85 M64.0 55.45 L64.8 54.25 Q66.55 51.4 67.5 47.95 68.7 43.05 68.75 37.35 M-16.3 -50.3 L-17.15 -51.1 M-55.55 -30.5 L-59.55 -29.9 -58.3 -27.15 -56.95 -24.3 Q-54.7 -27.95 -50.5 -30.75 L-55.55 -30.5 M-56.95 -24.3 L-59.05 -20.2 -54.85 -20.8 Q-49.4 -21.25 -42.75 -26.3 -34.9 -32.45 -34.7 -34.6 L-43.2 -40.85 -47.25 -43.9 Q-54.1 -43.5 -60.9 -45.0 -58.1 -40.0 -51.15 -39.05 L-49.65 -38.9 M-49.6 -30.75 L-50.5 -30.75 M-51.15 -39.05 Q-54.85 -37.35 -60.15 -31.65 L-62.15 -29.4 -59.55 -29.9 M-63.6 -18.45 L-62.4 -17.15 M-47.25 -43.9 Q-60.4 -53.9 -66.65 -60.6 -65.55 -45.4 -60.15 -31.65 M-51.55 59.2 Q-53.85 56.95 -55.55 54.45 -60.75 48.2 -62.05 35.5 -63.35 22.8 -60.75 14.35 M-50.0 22.5 Q-51.95 29.4 -51.55 37.15 -51.3 52.2 -41.0 61.5 L-40.05 62.35 -40.6 61.95 -39.9 62.65 M-40.6 61.95 L-40.65 61.9 -41.0 61.5 M-23.75 54.3 Q-28.05 53.3 -30.85 49.0" fill="none" stroke="#000000" stroke-linecap="round" stroke-linejoin="round" stroke-width="2.0"/>
  </g>
</svg>
