<?xml version="1.0" encoding="UTF-8" standalone="no"?>
<svg xmlns:xlink="http://www.w3.org/1999/xlink" height="44.75px" width="140.9px" xmlns="http://www.w3.org/2000/svg">
  <g transform="matrix(1.0, 0.0, 0.0, 1.0, 65.0, 57.85)">
    <path d="M71.1 -38.1 Q74.85 -37.95 75.9 -38.75 75.85 -33.3 71.1 -31.1 75.05 -28.0 75.0 -21.65 71.55 -23.05 69.0 -22.5 71.8 -16.5 71.25 -13.1 68.85 -15.4 66.2 -16.85 65.7 -17.1 64.8 -19.3 L64.9 -17.9 64.7 -18.3 64.55 -18.6 64.8 -19.3 67.9 -28.55 71.1 -38.1 M-45.6 -41.15 L-41.55 -38.1 -33.05 -31.85 Q-33.25 -29.7 -41.1 -23.55 -47.75 -18.5 -53.2 -18.05 L-57.4 -17.45 -55.3 -21.55 Q-53.05 -25.2 -48.85 -28.0 L-53.9 -27.75 -57.9 -27.15 -60.5 -26.65 -58.5 -28.9 Q-53.2 -34.6 -49.5 -36.3 -56.45 -37.25 -59.25 -42.25 -52.45 -40.75 -45.6 -41.15" fill="#ffffff" fill-rule="evenodd" stroke="none"/>
    <path d="M-45.6 -41.15 Q-52.45 -40.75 -59.25 -42.25 -56.45 -37.25 -49.5 -36.3 -53.2 -34.6 -58.5 -28.9 -63.9 -42.65 -65.0 -57.85 -58.75 -51.15 -45.6 -41.15 M-57.9 -27.15 L-53.9 -27.75 -48.85 -28.0 Q-53.05 -25.2 -55.3 -21.55 L-56.65 -24.4 -57.9 -27.15" fill="#f5ccdc" fill-rule="evenodd" stroke="none"/>
  </g>
</svg>
