<?xml version="1.0" encoding="UTF-8" standalone="no"?>
<svg xmlns:xlink="http://www.w3.org/1999/xlink" height="226.65px" width="149.25px" xmlns="http://www.w3.org/2000/svg">
  <g transform="matrix(1.0, 0.0, 0.0, 1.0, 74.6, 113.3)">
    <path d="M-37.5 91.6 L-41.5 80.5 Q-40.5 86.05 -37.5 91.6 L-33.6 102.45 Q-50.0 83.5 -53.1 58.25 -54.75 44.7 -54.85 30.85 L-55.15 30.85 -59.8 23.9 Q-64.5 20.25 -68.85 27.95 -78.2 9.2 -72.4 -16.05 L-70.7 -22.15 -70.4 -23.65 Q-72.0 -29.25 -69.7 -41.05 -67.5 -52.95 -58.6 -65.25 -49.8 -77.6 -36.7 -89.5 -23.65 -101.45 -17.7 -113.3 -13.1 -91.05 -13.65 -75.4 -13.9 -68.15 -15.75 -63.65 -10.75 -63.9 -9.1 -66.45 -8.65 -63.85 -9.4 -61.85 L7.9 -61.3 8.35 -61.25 13.5 -60.5 Q15.8 -64.5 21.0 -67.55 26.9 -71.0 36.45 -73.3 54.5 -77.6 63.35 -81.9 72.25 -86.2 74.65 -86.8 74.7 -82.35 72.5 -69.1 L71.25 -62.9 Q69.15 -54.05 65.8 -48.5 61.85 -42.1 58.2 -39.25 L57.05 -38.45 55.75 -37.55 56.2 -37.15 54.4 -34.4 54.45 -34.3 54.85 -33.8 54.95 -33.65 55.15 -33.4 55.55 -32.75 55.75 -32.45 55.85 -32.3 Q61.65 -22.7 62.1 -11.2 L62.05 -4.35 62.0 -3.95 Q64.45 28.35 61.15 56.75 58.85 76.25 47.85 95.5 L50.25 78.3 Q49.2 82.55 47.25 87.25 42.4 98.8 37.2 109.9 34.0 87.9 44.05 62.95 55.45 40.8 55.25 14.8 L55.2 14.85 54.8 5.2 Q54.25 -4.45 51.55 -13.55 50.85 -24.5 46.55 -27.85 35.4 -31.75 21.85 -32.75 15.35 -33.25 8.35 -33.05 L-0.75 -32.55 Q-28.25 -30.35 -33.45 -22.25 -34.5 -16.85 -33.55 -11.6 -42.2 32.8 -32.7 63.95 -22.1 98.7 -23.6 113.35 -26.55 107.2 -33.2 98.35 -35.7 94.95 -37.5 91.6 M52.2 -40.25 Q48.8 -42.55 44.75 -44.25 L47.6 -41.8 50.2 -39.25 50.4 -39.05 50.75 -39.25 52.2 -40.25" fill="url(#gradient0)" fill-rule="evenodd" stroke="none"/>
  </g>
  <defs>
    <linearGradient gradientTransform="matrix(0.0, 0.0855, -0.0911, 0.0, 0.05, 40.6)" gradientUnits="userSpaceOnUse" id="gradient0" spreadMethod="pad" x1="-819.2" x2="819.2">
      <stop offset="0.0" stop-color="#fff23c" stop-opacity="0.0"/>
      <stop offset="0.3803921568627451" stop-color="#fff23c" stop-opacity="0.84705883"/>
      <stop offset="0.6039215686274509" stop-color="#fff23c" stop-opacity="0.8"/>
      <stop offset="1.0" stop-color="#fff23c" stop-opacity="0.0"/>
    </linearGradient>
  </defs>
</svg>
