<?xml version="1.0" encoding="UTF-8" standalone="no"?>
<svg xmlns:xlink="http://www.w3.org/1999/xlink" height="182.5px" width="169.5px" xmlns="http://www.w3.org/2000/svg">
  <g transform="matrix(1.0, 0.0, 0.0, 1.0, 84.75, 91.25)">
    <path d="M43.7 -51.75 Q61.75 -56.05 70.6 -60.35 79.5 -64.65 81.9 -65.25 81.95 -60.8 79.75 -47.55 L78.6 -41.65 78.5 -41.35 Q76.4 -32.5 73.05 -26.95 L72.6 -26.25 Q68.9 -20.4 65.45 -17.7 L64.3 -16.9 Q63.65 -16.4 63.0 -16.0 L63.45 -15.6 61.55 -13.05 61.7 -12.85 63.45 -10.45 Q72.7 3.05 73.8 22.65 L73.85 22.75 Q78.55 39.2 83.3 47.8 78.55 46.45 75.65 43.2 79.9 65.45 84.75 67.1 77.65 65.2 75.0 60.25 77.15 71.75 70.35 78.1 L72.1 65.2 Q68.35 81.8 53.75 88.1 60.0 79.8 63.4 59.95 60.55 65.2 55.95 68.55 64.65 43.65 60.85 24.9 L59.25 13.55 59.25 13.0 58.75 9.65 Q56.6 -2.8 52.8 -5.8 26.7 -13.1 1.6 -10.6 -15.5 -8.95 -22.95 -4.2 -30.9 12.7 -27.0 44.2 -22.95 65.65 -15.55 71.9 -27.45 68.5 -29.95 57.8 -26.45 81.7 -17.2 91.25 -37.8 83.2 -43.7 67.3 L-41.3 79.45 Q-53.75 74.2 -59.2 64.3 -56.35 70.75 -64.9 79.5 -64.15 70.85 -67.35 61.0 -72.05 69.15 -83.85 71.0 -79.05 66.6 -76.0 57.0 -72.9 47.35 -70.9 44.1 -76.3 48.65 -84.75 49.2 -75.7 43.75 -69.8 26.9 -68.8 17.55 -66.15 6.0 L-64.45 -0.1 -64.15 -1.6 Q-65.75 -7.2 -63.45 -19.0 -61.25 -30.9 -52.35 -43.2 -43.55 -55.55 -30.45 -67.45 -17.4 -79.4 -11.45 -91.25 -6.85 -69.0 -7.4 -53.35 -7.65 -46.1 -9.5 -41.6 -4.5 -41.85 -2.85 -44.4 -2.5 -42.2 -2.95 -40.4 3.45 -40.75 10.9 -40.15 L17.1 -39.6 17.5 -39.55 18.5 -39.4 20.75 -39.05 20.9 -38.8 21.05 -39.0 Q23.55 -43.25 28.25 -46.0 34.15 -49.45 43.7 -51.75" fill="url(#gradient0)" fill-rule="evenodd" stroke="none"/>
  </g>
  <defs>
    <linearGradient gradientTransform="matrix(0.0, 0.0852, -0.1035, 0.0, 0.0, 60.75)" gradientUnits="userSpaceOnUse" id="gradient0" spreadMethod="pad" x1="-819.2" x2="819.2">
      <stop offset="0.0" stop-color="#fff23c" stop-opacity="0.0"/>
      <stop offset="0.3803921568627451" stop-color="#fff23c" stop-opacity="0.84705883"/>
      <stop offset="0.6039215686274509" stop-color="#fff23c" stop-opacity="0.8"/>
      <stop offset="1.0" stop-color="#fff23c" stop-opacity="0.0"/>
    </linearGradient>
  </defs>
</svg>
