<?xml version="1.0" encoding="UTF-8" standalone="no"?>
<svg xmlns:xlink="http://www.w3.org/1999/xlink" height="75.75px" width="119.85px" xmlns="http://www.w3.org/2000/svg">
  <g transform="matrix(1.0, 0.0, 0.0, 1.0, 43.3, 101.1)">
    <path d="M-7.3 -63.2 Q-7.55 -55.95 -9.4 -51.45 L-10.35 -49.45 Q-11.35 -47.8 -12.65 -46.65 L-12.7 -46.75 -12.75 -46.8 -12.9 -46.95 Q-13.8 -47.95 -15.15 -48.45 -16.7 -49.1 -18.85 -49.05 -13.05 -49.5 -11.8 -60.7 -14.95 -58.05 -18.3 -57.3 L-23.8 -55.85 Q-15.8 -61.4 -18.85 -71.25 -20.7 -68.0 -24.05 -65.25 -26.7 -63.5 -30.3 -60.05 -16.0 -75.5 -11.35 -101.1 -6.75 -78.85 -7.3 -63.2 M65.05 -35.1 Q63.6 -32.9 62.0 -31.15 60.65 -33.85 58.05 -36.0 61.7 -36.1 65.05 -35.1 M56.6 -50.35 L57.1 -50.7 Q61.85 -54.05 65.65 -57.75 L66.2 -58.3 Q73.65 -65.65 76.55 -67.4 L74.35 -58.3 72.25 -50.7 71.15 -47.2 Q69.65 -42.05 66.95 -38.45 64.85 -41.8 61.5 -43.15 65.15 -43.6 68.65 -50.7 L69.0 -51.4 66.2 -50.7 Q64.7 -50.5 63.3 -50.7 L62.45 -50.85 57.5 -50.7 56.6 -50.35" fill="#ffffff" fill-opacity="0.49803922" fill-rule="evenodd" stroke="none"/>
    <path d="M68.65 -50.7 Q65.15 -43.6 61.5 -43.15 64.85 -41.8 66.95 -38.45 L67.0 -38.35 Q68.2 -36.35 67.9 -34.3 L65.05 -35.1 Q61.7 -36.1 58.05 -36.0 60.65 -33.85 62.0 -31.15 L62.55 -29.9 63.3 -27.05 63.4 -26.25 62.1 -25.35 60.0 -27.05 58.55 -28.05 55.55 -29.9 52.8 -31.25 52.8 -31.3 51.1 -32.05 48.25 -34.3 47.35 -34.95 42.45 -38.25 42.6 -38.35 43.25 -38.75 Q44.75 -39.75 47.35 -40.8 L48.25 -41.15 51.65 -42.35 Q50.15 -43.6 48.25 -43.85 L47.35 -43.95 45.25 -43.7 47.35 -44.75 48.25 -45.25 Q52.75 -47.65 56.6 -50.35 L57.5 -50.7 62.45 -50.85 63.3 -50.7 Q64.7 -50.5 66.2 -50.7 L69.0 -51.4 68.65 -50.7 M-11.8 -60.7 Q-13.05 -49.5 -18.85 -49.05 -16.7 -49.1 -15.15 -48.45 -13.8 -47.95 -12.9 -46.95 L-12.75 -46.8 -12.7 -46.75 -12.65 -46.65 -11.6 -45.3 -12.4 -45.3 -11.7 -44.2 -15.0 -44.15 -17.3 -43.85 Q-26.1 -42.2 -33.4 -37.7 -37.6 -38.45 -43.3 -36.85 L-43.25 -36.95 Q-39.6 -49.05 -30.3 -60.05 -26.7 -63.5 -24.05 -65.25 -20.7 -68.0 -18.85 -71.25 -15.8 -61.4 -23.8 -55.85 L-18.3 -57.3 Q-14.95 -58.05 -11.8 -60.7" fill="#ffffff" fill-opacity="0.84705883" fill-rule="evenodd" stroke="none"/>
  </g>
</svg>
