<?xml version="1.0" encoding="UTF-8" standalone="no"?>
<svg xmlns:xlink="http://www.w3.org/1999/xlink" height="223.25px" width="171.5px" xmlns="http://www.w3.org/2000/svg">
  <g transform="matrix(1.0, 0.0, 0.0, 1.0, 85.75, 111.65)">
    <path d="M58.75 29.0 Q56.6 16.55 52.8 13.55 26.7 6.25 1.6 8.75 -15.5 10.4 -22.95 15.15 -30.9 32.05 -27.0 63.55 -22.95 85.0 -15.55 91.25 -27.45 87.85 -29.95 77.15 -26.45 101.05 -17.2 110.6 -37.8 102.55 -43.7 86.65 L-41.3 98.8 Q-53.75 93.55 -59.2 83.65 -56.35 90.1 -64.9 98.85 -64.15 90.2 -67.35 80.35 -72.05 88.5 -83.85 90.35 -79.05 85.95 -76.0 76.35 -72.9 66.7 -70.9 63.45 -76.3 68.0 -84.75 68.55 -75.7 63.1 -69.8 46.25 -68.8 36.9 -66.15 25.35 -61.95 6.9 -47.45 -4.75 L-44.8 -6.75 Q-52.7 -26.05 -55.3 -43.2 -55.0 -74.2 -49.25 -105.45 -48.0 -107.05 -46.05 -102.45 -46.2 -108.25 -45.95 -110.65 -29.95 -95.6 -21.2 -72.85 -13.55 -52.95 -16.7 -27.4 L-14.8 -28.1 Q-14.15 -23.6 -15.15 -21.3 L-16.55 -18.9 -16.25 -19.0 -14.2 -19.5 -7.75 -20.6 -4.25 -20.95 Q2.7 -21.45 10.9 -20.8 L17.5 -20.2 18.75 -20.0 Q22.9 -32.9 32.35 -46.4 41.8 -60.05 49.15 -71.55 56.5 -83.1 63.95 -102.7 65.45 -99.45 64.95 -95.5 64.45 -91.6 67.6 -97.9 68.25 -92.6 67.85 -86.3 69.5 -63.55 66.15 -47.8 64.05 -31.5 57.55 -18.45 L60.5 -16.8 Q60.15 -14.8 56.8 -12.65 53.45 -10.55 50.35 -11.35 54.1 -9.45 56.0 -6.5 54.5 -4.85 52.9 -4.2 L54.9 -2.3 Q58.1 0.75 60.65 4.0 72.5 19.05 73.8 42.0 L73.85 42.1 Q78.55 58.55 83.3 67.15 78.55 65.8 75.65 62.55 79.9 84.8 84.75 86.45 77.65 84.55 75.0 79.6 77.15 91.1 70.35 97.45 L72.1 84.55 Q68.35 101.15 53.75 107.45 60.0 99.15 63.4 79.3 60.55 84.55 55.95 87.9 64.65 63.0 60.85 44.25 L59.25 32.9 59.25 32.35 58.75 29.0 M-29.95 77.15 Q-31.25 68.45 -31.75 57.9 -31.25 68.45 -29.95 77.15 M-61.2 79.2 L-59.2 83.65 -61.2 79.2 M-49.05 49.05 Q-50.95 61.75 -47.5 73.55 -45.7 81.4 -43.7 86.65 -45.7 81.4 -47.5 73.55 -50.95 61.75 -49.05 49.05 M-69.15 75.7 L-67.35 80.35 -69.15 75.7 M-70.9 63.45 Q-69.1 61.9 -67.65 59.9 -69.1 61.9 -70.9 63.45 M-16.7 -27.4 L-21.3 -25.6 Q-24.8 -23.75 -26.4 -22.0 -25.85 -25.95 -27.05 -31.1 -30.2 -29.4 -34.35 -26.75 -38.5 -24.15 -38.85 -19.6 -37.5 -15.85 -35.8 -12.2 -34.05 -8.45 -31.9 -4.85 -21.85 -7.3 -15.5 -11.5 -12.35 -13.05 -11.6 -16.05 -15.1 -18.65 -17.55 -17.9 L-16.55 -18.9 -17.55 -17.9 Q-15.1 -18.65 -11.6 -16.05 -12.35 -13.05 -15.5 -11.5 -21.85 -7.3 -31.9 -4.85 -34.05 -8.45 -35.8 -12.2 -37.5 -15.85 -38.85 -19.6 -43.75 -33.45 -44.05 -49.5 -44.4 -74.45 -41.45 -94.25 L-41.2 -95.55 -41.45 -94.25 Q-44.4 -74.45 -44.05 -49.5 -43.75 -33.45 -38.85 -19.6 -38.5 -24.15 -34.35 -26.75 -30.2 -29.4 -27.05 -31.1 -25.85 -25.95 -26.4 -22.0 -24.8 -23.75 -21.3 -25.6 L-16.7 -27.4 M-44.8 -6.75 L-43.05 -2.5 -44.8 -6.75 M74.0 50.55 Q74.4 46.95 73.85 42.1 74.4 46.95 74.0 50.55 M73.4 72.7 Q73.45 76.7 75.0 79.6 73.45 76.7 73.4 72.7 73.3 79.15 72.1 84.55 73.3 79.15 73.4 72.7 73.45 66.65 72.55 59.6 73.45 66.65 73.4 72.7 M67.9 55.45 Q68.3 69.95 63.55 79.05 L63.4 79.3 63.55 79.05 Q68.3 69.95 67.9 55.45 M72.05 55.45 Q73.15 59.7 75.65 62.55 73.15 59.7 72.05 55.45 M33.75 -16.1 Q44.15 -12.0 52.9 -4.2 44.15 -12.0 33.75 -16.1 26.6 -18.95 18.75 -20.0 26.6 -18.95 33.75 -16.1 37.8 -20.4 40.3 -26.15 44.15 -36.65 49.7 -55.6 55.25 -74.55 62.55 -81.6 55.25 -74.55 49.7 -55.6 44.15 -36.65 40.3 -26.15 37.8 -20.4 33.75 -16.1 M57.55 -18.45 L54.25 -19.4 49.3 -19.7 Q53.4 -22.65 55.1 -27.9 44.6 -28.85 40.3 -26.15 44.6 -28.85 55.1 -27.9 53.4 -22.65 49.3 -19.7 L54.25 -19.4 57.55 -18.45" fill="url(#gradient0)" fill-rule="evenodd" stroke="none"/>
    <path d="M58.75 29.0 Q56.6 16.55 52.8 13.55 26.7 6.25 1.6 8.75 -15.5 10.4 -22.95 15.15 -30.9 32.05 -27.0 63.55 -22.95 85.0 -15.55 91.25 -27.45 87.85 -29.95 77.15 -26.45 101.05 -17.2 110.6 -37.8 102.55 -43.7 86.65 L-41.3 98.8 Q-53.75 93.55 -59.2 83.65 -56.35 90.1 -64.9 98.85 -64.15 90.2 -67.35 80.35 -72.05 88.5 -83.85 90.35 -79.05 85.95 -76.0 76.35 -72.9 66.7 -70.9 63.45 -76.3 68.0 -84.75 68.55 -75.7 63.1 -69.8 46.25 -68.8 36.9 -66.15 25.35 -61.95 6.9 -47.45 -4.75 L-44.8 -6.75 Q-52.7 -26.05 -55.3 -43.2 -55.0 -74.2 -49.25 -105.45 -48.0 -107.05 -46.05 -102.45 -46.2 -108.25 -45.95 -110.65 -29.95 -95.6 -21.2 -72.85 -13.55 -52.95 -16.7 -27.4 L-14.8 -28.1 Q-14.15 -23.6 -15.15 -21.3 L-16.55 -18.9 -16.25 -19.0 -14.2 -19.5 -7.75 -20.6 -4.25 -20.95 Q2.7 -21.45 10.9 -20.8 L17.5 -20.2 18.75 -20.0 Q22.9 -32.9 32.35 -46.4 41.8 -60.05 49.15 -71.55 56.5 -83.1 63.95 -102.7 65.45 -99.45 64.95 -95.5 64.45 -91.6 67.6 -97.9 68.25 -92.6 67.85 -86.3 69.5 -63.55 66.15 -47.8 64.05 -31.5 57.55 -18.45 L60.5 -16.8 Q60.15 -14.8 56.8 -12.65 53.45 -10.55 50.35 -11.35 54.1 -9.45 56.0 -6.5 54.5 -4.85 52.9 -4.2 L54.9 -2.3 Q58.1 0.75 60.65 4.0 72.5 19.05 73.8 42.0 L73.85 42.1 Q78.55 58.55 83.3 67.15 78.55 65.8 75.65 62.55 79.9 84.8 84.75 86.45 77.65 84.55 75.0 79.6 77.15 91.1 70.35 97.45 L72.1 84.55 Q68.35 101.15 53.75 107.45 60.0 99.15 63.4 79.3 60.55 84.55 55.95 87.9 64.65 63.0 60.85 44.25 L59.25 32.9 58.75 29.0 59.25 32.35 59.25 32.9 M18.75 -20.0 Q26.6 -18.95 33.75 -16.1 37.8 -20.4 40.3 -26.15 44.15 -36.65 49.7 -55.6 55.25 -74.55 62.55 -81.6 M40.3 -26.15 Q44.6 -28.85 55.1 -27.9 53.4 -22.65 49.3 -19.7 L54.25 -19.4 57.55 -18.45 M52.9 -4.2 Q44.15 -12.0 33.75 -16.1 M72.1 84.55 Q73.3 79.15 73.4 72.7 73.45 66.65 72.55 59.6 M75.65 62.55 Q73.15 59.7 72.05 55.45 M63.4 79.3 L63.55 79.05 Q68.3 69.95 67.9 55.45 M75.0 79.6 Q73.45 76.7 73.4 72.7 M73.85 42.1 Q74.4 46.95 74.0 50.55 M-16.55 -18.9 L-17.55 -17.9 Q-15.1 -18.65 -11.6 -16.05 -12.35 -13.05 -15.5 -11.5 -21.85 -7.3 -31.9 -4.85 -34.05 -8.45 -35.8 -12.2 -37.5 -15.85 -38.85 -19.6 -43.75 -33.45 -44.05 -49.5 -44.4 -74.45 -41.45 -94.25 L-41.2 -95.55 M-43.05 -2.5 L-44.8 -6.75 M-38.85 -19.6 Q-38.5 -24.15 -34.35 -26.75 -30.2 -29.4 -27.05 -31.1 -25.85 -25.95 -26.4 -22.0 -24.8 -23.75 -21.3 -25.6 L-16.7 -27.4 M-67.65 59.9 Q-69.1 61.9 -70.9 63.45 M-67.35 80.35 L-69.15 75.7 M-43.7 86.65 Q-45.7 81.4 -47.5 73.55 -50.95 61.75 -49.05 49.05 M-59.2 83.65 L-61.2 79.2 M-31.75 57.9 Q-31.25 68.45 -29.95 77.15" fill="none" stroke="#000000" stroke-linecap="round" stroke-linejoin="round" stroke-width="2.0"/>
  </g>
  <defs>
    <linearGradient gradientTransform="matrix(0.0, 0.085, -0.1035, 0.0, 0.0, 80.6)" gradientUnits="userSpaceOnUse" id="gradient0" spreadMethod="pad" x1="-819.2" x2="819.2">
      <stop offset="0.0" stop-color="#fff23c" stop-opacity="0.0"/>
      <stop offset="0.3803921568627451" stop-color="#fff23c" stop-opacity="0.84705883"/>
      <stop offset="0.6039215686274509" stop-color="#fff23c" stop-opacity="0.8"/>
      <stop offset="1.0" stop-color="#fff23c" stop-opacity="0.0"/>
    </linearGradient>
  </defs>
</svg>
