<?xml version="1.0" encoding="UTF-8" standalone="no"?>
<svg xmlns:xlink="http://www.w3.org/1999/xlink" height="25.15px" width="111.75px" xmlns="http://www.w3.org/2000/svg">
  <g transform="matrix(1.0, 0.0, 0.0, 1.0, 51.65, 49.9)">
    <path d="M36.4 -42.75 Q41.1 -48.95 47.45 -49.35 56.85 -49.4 59.5 -40.95 61.6 -34.05 56.15 -27.95 L52.65 -31.45 52.1 -31.9 50.5 -33.35 48.8 -34.7 48.6 -34.85 Q44.65 -38.0 40.4 -40.55 L37.1 -42.4 36.4 -42.75 M-45.65 -24.75 Q-48.55 -27.2 -50.1 -30.0 L-50.55 -31.15 Q-53.5 -38.9 -48.5 -44.85 -44.75 -48.95 -39.55 -49.75 L-35.5 -49.5 Q-30.9 -48.2 -28.75 -44.5 -27.4 -42.25 -27.0 -39.0 -38.25 -34.05 -45.65 -24.75" fill="#000000" fill-opacity="0.32941177" fill-rule="evenodd" stroke="none"/>
  </g>
</svg>
