<?xml version="1.0" encoding="UTF-8" standalone="no"?>
<svg xmlns:xlink="http://www.w3.org/1999/xlink" height="91.75px" width="108.1px" xmlns="http://www.w3.org/2000/svg">
  <g transform="matrix(1.0, 0.0, 0.0, 1.0, 44.0, 123.45)">
    <path d="M40.0 -53.75 Q44.3 -56.45 54.8 -55.5 53.1 -50.25 49.0 -47.3 L53.95 -47.0 57.25 -46.05 60.2 -44.4 Q59.85 -42.4 56.5 -40.25 53.15 -38.15 50.05 -38.95 53.8 -37.05 55.7 -34.1 54.1 -32.35 52.35 -31.7 43.8 -39.4 33.75 -44.05 37.6 -48.25 40.0 -53.75 M-21.2 -54.8 L-16.6 -56.6 -14.7 -57.3 Q-14.05 -52.8 -15.05 -50.5 -15.7 -49.1 -16.45 -48.1 L-17.45 -47.1 Q-15.0 -47.85 -11.5 -45.25 -12.25 -42.25 -15.4 -40.7 -21.75 -36.5 -31.8 -34.05 -33.95 -37.65 -35.7 -41.4 -37.4 -45.05 -38.75 -48.8 -38.4 -53.35 -34.25 -55.95 -30.1 -58.6 -26.95 -60.3 -25.75 -55.15 -26.3 -51.2 -24.7 -52.95 -21.2 -54.8" fill="#ffffff" fill-opacity="0.84705883" fill-rule="evenodd" stroke="none"/>
    <path d="M53.95 -47.0 L49.0 -47.3 Q53.1 -50.25 54.8 -55.5 44.3 -56.45 40.0 -53.75 43.85 -64.25 49.4 -83.2 54.95 -102.15 62.25 -109.2 66.6 -94.35 60.8 -67.05 58.15 -54.6 53.95 -47.0 M-38.75 -48.8 Q-43.65 -62.65 -43.95 -78.7 -44.3 -103.65 -41.35 -123.45 -23.85 -107.25 -21.1 -76.75 -20.55 -61.55 -21.2 -54.8 -24.7 -52.95 -26.3 -51.2 -25.75 -55.15 -26.95 -60.3 -30.1 -58.6 -34.25 -55.95 -38.4 -53.35 -38.75 -48.8" fill="#000000" fill-opacity="0.24705882" fill-rule="evenodd" stroke="none"/>
  </g>
</svg>
