<?xml version="1.0" encoding="UTF-8" standalone="no"?>
<svg xmlns:xlink="http://www.w3.org/1999/xlink" height="104.0px" width="136.75px" xmlns="http://www.w3.org/2000/svg">
  <g transform="matrix(1.0, 0.0, 0.0, 1.0, 68.35, 52.0)">
    <path d="M57.2 -49.75 Q66.6 -45.15 67.95 -34.85 69.6 -22.2 60.05 -14.15 L61.45 -12.15 61.5 -12.0 Q63.25 -9.35 64.55 -6.5 L65.25 -4.85 Q68.05 2.1 68.35 9.95 69.0 28.6 61.45 36.0 L60.6 15.6 59.25 12.1 Q57.1 -3.35 52.8 -6.7 26.7 -14.0 1.6 -11.5 -23.5 -9.05 -27.8 -0.05 -32.1 8.95 -32.7 16.2 L-38.3 22.45 Q-42.85 36.8 -41.6 52.0 L-48.9 52.0 -53.55 45.05 Q-58.25 41.4 -62.6 49.1 -71.95 30.35 -66.15 5.1 -64.05 -4.25 -59.25 -11.85 -65.85 -17.75 -65.05 -28.5 -64.55 -34.7 -61.6 -39.8 -54.9 -50.4 -41.45 -51.95 L-37.25 -51.8 Q-26.95 -50.8 -21.3 -43.5 -19.7 -41.15 -18.9 -38.65 L-16.25 -39.25 -14.2 -39.75 -7.75 -40.85 -4.25 -41.2 Q2.7 -41.7 10.9 -41.05 L17.5 -40.45 Q22.2 -39.45 26.65 -37.9 27.2 -39.9 29.0 -42.1 36.5 -51.05 49.1 -51.35 53.1 -51.2 57.2 -49.75" fill="#8ef7aa" fill-rule="evenodd" stroke="none"/>
  </g>
</svg>
