<?xml version="1.0" encoding="UTF-8" standalone="no"?>
<svg xmlns:xlink="http://www.w3.org/1999/xlink" height="133.15px" width="144.3px" xmlns="http://www.w3.org/2000/svg">
  <g transform="matrix(1.0, 0.0, 0.0, 1.0, 72.15, 66.55)">
    <path d="M55.1 -64.3 Q64.5 -59.7 65.85 -49.4 67.5 -36.75 57.95 -28.7 L59.4 -26.55 Q61.05 -24.0 62.3 -21.3 L62.45 -21.05 Q68.95 -6.65 70.25 9.3 L70.4 11.65 70.45 12.65 Q75.25 46.1 66.45 56.05 62.65 60.9 57.05 61.65 61.15 58.05 63.45 52.6 59.95 57.55 53.9 60.25 46.2 62.3 43.45 56.65 49.5 52.65 54.85 44.4 51.5 47.55 46.0 44.25 56.15 36.05 58.95 23.0 L58.95 11.8 Q58.4 2.15 54.25 -9.15 55.0 -17.9 50.7 -21.25 29.75 -28.65 18.85 -21.9 9.85 -26.5 -7.0 -25.3 -23.9 -24.15 -26.9 -17.65 -29.9 -11.15 -28.75 -4.75 -33.75 14.85 -30.95 26.75 -25.8 42.45 -11.45 48.85 -19.0 52.65 -24.3 51.45 L-9.0 61.55 Q-18.75 69.25 -30.0 65.2 -36.35 62.35 -40.6 59.5 L-41.15 59.1 -40.45 59.8 -33.45 65.55 Q-45.15 63.1 -52.1 56.35 L-51.8 56.7 Q-68.3 53.85 -71.2 37.3 -74.05 15.8 -68.25 -9.45 -66.15 -18.8 -61.35 -26.4 -67.95 -32.3 -67.15 -43.05 -66.65 -49.25 -63.7 -54.35 -57.0 -64.95 -43.55 -66.5 L-39.35 -66.35 Q-29.05 -65.35 -23.4 -58.05 -21.8 -55.7 -21.0 -53.2 L-18.35 -53.8 -16.3 -54.3 -9.85 -55.4 -6.35 -55.75 Q0.6 -56.25 8.8 -55.6 L15.4 -55.0 Q20.1 -54.0 24.55 -52.45 25.1 -54.45 26.9 -56.65 34.4 -65.6 47.0 -65.9 51.0 -65.75 55.1 -64.3 M46.6 -40.3 L46.5 -40.35 48.45 -38.8 48.3 -38.95 46.6 -40.3" fill="url(#gradient0)" fill-rule="evenodd" stroke="none"/>
  </g>
  <defs>
    <linearGradient gradientTransform="matrix(0.0, 0.0852, -0.0881, 0.0, 0.0, 45.3)" gradientUnits="userSpaceOnUse" id="gradient0" spreadMethod="pad" x1="-819.2" x2="819.2">
      <stop offset="0.0" stop-color="#fff23c" stop-opacity="0.0"/>
      <stop offset="0.3803921568627451" stop-color="#fff23c" stop-opacity="0.84705883"/>
      <stop offset="0.6039215686274509" stop-color="#fff23c" stop-opacity="0.8"/>
      <stop offset="1.0" stop-color="#fff23c" stop-opacity="0.0"/>
    </linearGradient>
  </defs>
</svg>
