<?xml version="1.0" encoding="UTF-8" standalone="no"?>
<svg xmlns:xlink="http://www.w3.org/1999/xlink" height="188.5px" width="139.65px" xmlns="http://www.w3.org/2000/svg">
  <g transform="matrix(1.0, 0.0, 0.0, 1.0, 69.8, 94.25)">
    <path d="M26.2 -79.15 Q26.75 -81.15 28.55 -83.35 36.05 -92.3 48.65 -92.6 52.65 -92.45 56.75 -91.0 66.15 -86.4 67.5 -76.1 69.15 -63.45 59.6 -55.4 L61.05 -53.25 64.1 -47.75 Q67.55 -40.1 67.9 -31.3 L67.85 -24.45 67.8 -24.05 Q70.25 8.25 66.95 36.65 64.65 56.15 53.65 75.4 L56.05 58.2 Q55.0 62.45 53.05 67.15 48.2 78.7 43.0 89.8 39.8 67.8 49.85 42.85 61.25 20.7 61.05 -5.3 L61.0 -5.25 60.6 -14.9 Q60.05 -24.55 57.35 -33.65 56.65 -44.6 52.35 -47.95 32.5 -54.9 5.05 -52.65 -22.45 -50.45 -27.65 -42.35 -28.7 -36.95 -27.75 -31.7 -36.4 12.7 -26.9 43.85 -16.3 78.6 -17.8 93.25 -20.75 87.1 -27.4 78.25 -29.9 74.85 -31.7 71.5 L-27.8 82.35 Q-44.2 63.4 -47.3 38.15 -48.95 24.6 -49.05 10.75 L-49.35 10.75 -54.0 3.8 Q-58.7 0.15 -63.05 7.85 -72.4 -10.9 -66.6 -36.15 -64.5 -45.5 -59.7 -53.1 -66.3 -59.0 -65.5 -69.75 -65.0 -75.95 -62.05 -81.05 -55.35 -91.65 -41.9 -93.2 L-37.7 -93.05 Q-27.4 -92.05 -21.75 -84.75 -20.15 -82.4 -19.35 -79.9 L-16.7 -80.5 -14.65 -81.0 -8.2 -82.1 -4.7 -82.45 Q2.25 -82.95 10.45 -82.3 L17.05 -81.7 Q21.75 -80.7 26.2 -79.15 31.15 -77.45 35.85 -75.05 40.55 -81.25 46.9 -81.65 56.3 -81.7 58.95 -73.25 61.05 -66.4 55.6 -60.25 L59.6 -55.4 M35.85 -75.05 L36.55 -74.7 Q42.6 -71.5 48.05 -67.15 L52.1 -63.75 55.6 -60.25 M60.6 -14.9 L61.05 -5.3 M56.05 58.2 L56.15 57.7 Q57.55 51.75 57.1 46.6 M-18.7 -74.65 Q-18.6 -77.35 -19.35 -79.9 M-40.1 -82.05 Q-45.3 -81.25 -49.05 -77.15 -54.05 -71.2 -51.1 -63.45 L-50.65 -62.3 Q-49.1 -59.5 -46.2 -57.05 -38.8 -66.35 -27.55 -71.3 -27.95 -74.55 -29.3 -76.8 -31.45 -80.5 -36.05 -81.8 L-40.1 -82.05 M-59.7 -53.1 Q-57.95 -51.55 -55.65 -50.35 L-54.6 -49.95 M-35.7 60.4 Q-34.7 65.95 -31.7 71.5 L-35.7 60.4 -36.25 56.0 M-48.15 -13.55 Q-49.2 -1.3 -49.05 10.75" fill="none" stroke="#000000" stroke-linecap="round" stroke-linejoin="round" stroke-width="2.0"/>
  </g>
</svg>
