<?xml version="1.0" encoding="UTF-8" standalone="no"?>
<svg xmlns:xlink="http://www.w3.org/1999/xlink" height="25.15px" width="113.25px" xmlns="http://www.w3.org/2000/svg">
  <g transform="matrix(1.0, 0.0, 0.0, 1.0, 51.65, 49.9)">
    <path d="M38.4 -43.95 Q42.95 -49.5 48.95 -49.85 58.35 -49.9 61.0 -41.45 62.75 -35.75 59.3 -30.55 56.15 -33.7 52.4 -36.4 47.0 -40.2 40.35 -43.1 L38.4 -43.95 M-45.65 -24.75 Q-48.55 -27.2 -50.1 -30.0 L-50.45 -30.85 Q-53.55 -38.8 -48.5 -44.85 -44.75 -48.95 -39.55 -49.75 L-35.5 -49.5 Q-30.9 -48.2 -28.75 -44.5 -27.4 -42.25 -27.0 -39.0 -38.25 -34.05 -45.65 -24.75" fill="#000000" fill-opacity="0.32941177" fill-rule="evenodd" stroke="none"/>
  </g>
</svg>
