<?xml version="1.0" encoding="UTF-8" standalone="no"?>
<svg xmlns:xlink="http://www.w3.org/1999/xlink" height="119.05px" width="168.15px" xmlns="http://www.w3.org/2000/svg">
  <g transform="matrix(1.0, 0.0, 0.0, 1.0, 84.1, 59.5)">
    <path d="M55.45 -48.1 Q65.2 -41.45 70.4 -32.3 73.45 -38.5 74.45 -48.85 61.65 -50.15 55.45 -48.1 M76.25 -58.6 L76.9 -58.7 76.9 -58.75 83.1 -58.0 Q83.8 -53.65 84.0 -49.6 84.8 -32.3 76.0 -20.25 81.2 -0.4 79.05 22.6 77.0 44.75 60.3 58.85 L67.25 34.0 Q70.65 14.75 63.1 -16.55 61.3 -22.45 58.85 -24.35 32.75 -31.65 7.65 -29.15 -17.45 -26.7 -21.75 -17.7 -26.05 -8.7 -27.95 2.95 -30.35 23.4 -25.4 44.4 L-20.5 59.55 Q-22.4 58.95 -24.15 58.15 -47.65 52.15 -69.0 55.75 -64.25 49.1 -56.6 47.15 -75.95 43.25 -84.1 25.65 -78.0 26.25 -68.05 20.95 -78.5 20.7 -82.8 13.25 -75.8 11.3 -70.85 5.2 -65.9 -0.95 -59.55 -14.75 L-59.35 -15.45 -58.95 -16.75 -58.9 -16.95 Q-69.85 -30.8 -67.9 -55.55 -41.65 -58.3 -25.15 -51.5 L-15.4 -55.65 Q13.0 -63.9 45.65 -54.4 54.05 -58.85 66.35 -59.15 L76.8 -58.75 76.25 -58.6 M-51.45 -25.45 Q-47.4 -34.55 -38.15 -43.7 -47.5 -48.85 -58.2 -46.6 -58.9 -37.2 -51.45 -25.45" fill="url(#gradient0)" fill-rule="evenodd" stroke="none"/>
  </g>
  <defs>
    <linearGradient gradientTransform="matrix(0.0, -0.0652, 0.1026, 0.0, -0.05, 23.35)" gradientUnits="userSpaceOnUse" id="gradient0" spreadMethod="pad" x1="-819.2" x2="819.2">
      <stop offset="0.0" stop-color="#fff23c" stop-opacity="0.0"/>
      <stop offset="0.3803921568627451" stop-color="#fff23c" stop-opacity="0.84705883"/>
      <stop offset="0.6039215686274509" stop-color="#fff23c" stop-opacity="0.8"/>
      <stop offset="1.0" stop-color="#fff23c" stop-opacity="0.0"/>
    </linearGradient>
  </defs>
</svg>
