<?xml version="1.0" encoding="UTF-8" standalone="no"?>
<svg xmlns:xlink="http://www.w3.org/1999/xlink" height="219.45px" width="142.3px" xmlns="http://www.w3.org/2000/svg">
  <g transform="matrix(1.0, 0.0, 0.0, 1.0, 71.15, 109.7)">
    <path d="M29.95 -69.25 Q38.15 -66.55 44.5 -62.45 50.6 -61.7 53.35 -64.75 53.45 -69.15 50.25 -72.8 54.65 -75.1 56.1 -80.05 54.4 -82.0 49.1 -82.45 52.65 -84.6 52.4 -88.1 L46.5 -88.1 Q37.15 -81.3 29.95 -69.25 M-15.75 -35.35 Q-21.7 -19.2 -28.6 -7.95 L-28.65 -7.95 Q-34.9 3.85 -42.65 10.25 -40.25 53.5 -18.05 109.75 -45.5 83.6 -53.85 54.05 L-48.3 76.8 Q-72.95 37.4 -71.0 -7.95 L-70.95 -7.95 Q-70.2 -14.3 -68.85 -20.8 -67.85 -25.25 -66.4 -29.45 L-66.3 -29.85 Q-69.45 -77.05 -44.7 -109.7 L-38.65 -102.1 -27.9 -88.8 Q-21.55 -81.2 -17.25 -72.05 -8.75 -74.1 1.2 -74.4 L14.9 -72.75 Q19.15 -78.45 28.55 -86.0 37.9 -93.55 46.8 -98.6 55.65 -103.65 60.85 -105.2 63.3 -100.15 60.3 -78.15 L59.65 -74.0 Q56.35 -60.2 52.55 -55.75 L52.45 -55.7 52.9 -55.15 Q70.9 -34.3 70.8 13.7 L70.85 14.35 Q72.35 37.85 66.05 59.85 L66.05 44.0 Q64.05 77.6 39.75 100.1 L39.75 100.0 Q55.25 68.9 57.4 18.75 L57.4 5.7 Q56.75 -17.6 47.3 -34.5 9.7 -44.35 -15.75 -35.35 M-46.95 -60.8 Q-44.2 -61.55 -41.55 -60.45 -34.15 -66.45 -24.65 -69.85 -26.8 -73.2 -33.8 -74.0 -30.3 -76.6 -31.65 -80.9 -36.8 -81.35 -42.1 -78.85 -40.7 -81.05 -40.85 -87.5 -45.05 -88.05 -47.05 -86.0 -53.45 -71.6 -54.6 -52.25 -52.95 -54.8 -46.95 -60.8" fill="#e23939" fill-rule="evenodd" stroke="none"/>
  </g>
</svg>
