<?xml version="1.0" encoding="UTF-8" standalone="no"?>
<svg xmlns:xlink="http://www.w3.org/1999/xlink" height="100.35px" width="171.6px" xmlns="http://www.w3.org/2000/svg">
  <g transform="matrix(1.0, 0.0, 0.0, 1.0, 85.8, 50.2)">
    <path d="M43.35 -32.25 L41.95 -32.95 39.75 -33.95 35.3 -35.8 Q28.9 -38.2 22.25 -39.4 L22.25 -40.4 Q22.1 -49.85 26.25 -49.35 43.35 -39.4 43.35 -32.25 M77.75 -26.05 L77.55 -25.55 Q86.95 -13.2 83.1 -3.85 81.1 -2.95 79.1 -2.4 L75.45 -1.45 Q83.35 12.35 85.8 35.0 L76.75 32.2 Q73.7 37.85 67.9 40.35 L69.95 35.1 70.05 34.85 70.1 34.75 Q73.8 23.2 73.4 12.75 73.05 4.9 70.35 -2.35 L70.35 -2.4 Q67.8 -9.2 63.25 -15.45 57.95 -23.3 48.85 -29.1 52.3 -42.85 78.15 -48.4 85.9 -46.1 77.75 -26.05 M-70.1 -36.85 Q-67.7 -45.05 -62.15 -50.1 -53.85 -51.25 -44.05 -39.6 -38.15 -32.55 -36.5 -26.9 -35.5 -23.25 -36.25 -20.2 -36.4 -15.65 -39.85 -12.2 -39.8 -10.05 -40.0 -8.05 -42.8 26.7 -38.35 43.9 -44.05 41.4 -47.85 40.7 L-53.4 40.85 Q-56.15 44.15 -58.65 46.3 -61.7 48.95 -64.35 49.8 L-65.85 50.15 -65.9 46.45 Q-65.65 30.85 -57.6 10.85 L-61.7 11.55 -68.05 11.35 Q-78.85 10.15 -78.55 2.8 -78.65 -3.95 -71.45 -16.3 L-71.65 -20.95 Q-79.45 -19.5 -85.05 -14.15 -87.75 -34.1 -80.55 -41.05 -74.6 -42.35 -70.1 -36.85" fill="#e5aed5" fill-rule="evenodd" stroke="none"/>
  </g>
</svg>
