<?xml version="1.0" encoding="UTF-8" standalone="no"?>
<svg xmlns:xlink="http://www.w3.org/1999/xlink" height="182.7px" width="260.7px" xmlns="http://www.w3.org/2000/svg">
  <g transform="matrix(1.0, 0.0, 0.0, 1.0, 130.35, 91.35)">
    <path d="M-28.15 -81.1 Q-7.55 -92.7 15.4 -91.2 29.55 -90.5 42.45 -84.7 L48.05 -81.95 Q52.8 -79.3 56.7 -76.15 L58.25 -74.85 58.4 -74.95 58.35 -74.8 Q61.55 -71.95 64.05 -68.75 69.7 -75.45 71.25 -82.05 80.75 -85.35 89.2 -82.65 102.6 -65.6 103.5 -44.2 104.45 -22.8 103.8 -9.3 103.25 4.15 111.45 17.75 134.5 43.35 129.45 60.95 126.6 48.25 111.15 32.7 136.1 62.95 118.55 82.2 113.5 88.25 103.35 91.35 110.85 80.0 100.5 61.0 93.45 47.05 80.4 26.25 91.15 55.1 74.35 69.35 82.35 53.95 74.65 15.15 L74.45 14.65 Q70.45 31.8 60.65 41.3 66.25 24.35 68.8 -1.6 L68.85 -1.85 Q71.65 -34.4 63.0 -50.15 L60.35 -52.85 Q41.85 -60.45 14.1 -58.2 -13.7 -55.95 -19.1 -48.4 -24.5 -40.9 -23.55 -30.2 L-23.55 -5.3 Q-21.0 25.75 -12.95 44.35 -29.35 33.6 -34.0 14.75 L-30.5 30.2 Q-42.25 18.4 -44.4 -1.35 -50.35 -3.3 -53.85 4.25 -56.8 -4.6 -57.85 -14.05 L-53.35 -22.1 Q-54.7 -11.9 -54.6 -1.3 L-45.4 -10.4 Q-45.35 -30.55 -35.65 -66.9 -29.9 -72.2 -28.85 -76.45 L-28.15 -81.1 M-44.15 -76.2 Q-43.3 -75.3 -41.5 -74.45 -41.0 -73.1 -40.95 -71.6 -40.8 -66.85 -45.25 -61.0 L-46.75 -61.15 Q-54.95 -44.75 -57.7 -23.8 -57.75 -19.4 -57.95 -15.3 L-58.1 -13.6 Q-59.4 3.45 -64.85 15.15 -75.3 53.95 -66.65 69.35 -85.35 55.1 -71.9 26.25 -87.7 47.05 -96.4 61.0 -109.0 80.0 -100.85 91.35 -112.4 88.25 -117.9 82.2 -137.3 62.95 -107.45 32.7 -125.8 48.25 -129.55 60.95 -134.65 43.35 -107.15 17.75 -97.2 4.15 -97.3 -9.3 -97.45 -22.8 -95.55 -44.2 -93.65 -65.6 -77.55 -82.65 -62.15 -86.95 -44.15 -76.2 M76.15 -36.05 L76.1 -34.15 Q77.4 -21.0 77.2 -9.85 82.55 -9.8 87.85 -15.75 80.9 -24.4 76.15 -36.05 M-37.2 -72.4 L-37.9 -74.5 -37.05 -75.25 -37.2 -72.4 M-57.95 -34.25 Q-56.35 -48.5 -49.55 -60.35 L-49.05 -61.15 -52.55 -61.15 -52.6 -61.1 Q-59.65 -54.95 -58.55 -42.5 L-57.95 -34.25" fill="url(#gradient0)" fill-rule="evenodd" stroke="none"/>
  </g>
  <defs>
    <linearGradient gradientTransform="matrix(0.0, 0.0984, -0.1591, 0.0, 0.0, 31.0)" gradientUnits="userSpaceOnUse" id="gradient0" spreadMethod="pad" x1="-819.2" x2="819.2">
      <stop offset="0.0" stop-color="#fff23c" stop-opacity="0.0"/>
      <stop offset="0.3803921568627451" stop-color="#fff23c" stop-opacity="0.84705883"/>
      <stop offset="0.6039215686274509" stop-color="#fff23c" stop-opacity="0.8"/>
      <stop offset="1.0" stop-color="#fff23c" stop-opacity="0.0"/>
    </linearGradient>
  </defs>
</svg>
