<?xml version="1.0" encoding="UTF-8" standalone="no"?>
<svg xmlns:xlink="http://www.w3.org/1999/xlink" height="153.7px" width="165.45px" xmlns="http://www.w3.org/2000/svg">
  <g transform="matrix(1.0, 0.0, 0.0, 1.0, 82.75, 76.85)">
    <path d="M-52.75 -46.1 Q-47.2 -55.05 -39.1 -61.25 -15.45 -77.45 11.45 -75.7 25.6 -75.0 38.5 -69.2 54.3 -62.15 62.0 -50.7 L64.35 -47.25 Q71.95 -46.05 77.1 -32.8 82.5 -19.05 81.55 7.95 80.55 34.95 67.65 61.2 71.15 47.25 72.25 31.55 62.85 57.6 63.6 71.65 55.7 59.85 59.15 47.2 56.4 49.9 53.25 51.85 65.45 31.95 66.4 -1.7 L65.8 -15.3 64.45 -18.8 Q63.1 -31.65 56.4 -37.35 37.9 -44.95 10.15 -42.7 -17.65 -40.45 -23.05 -32.9 -28.45 -25.4 -28.9 -9.9 -30.6 34.3 -22.5 48.15 -30.35 44.95 -34.4 31.3 -31.1 43.7 -23.9 53.45 -38.75 42.75 -47.15 23.6 L-49.2 14.7 -49.15 18.2 Q-48.95 36.15 -49.4 49.35 -54.35 39.2 -53.95 28.6 -55.1 36.6 -57.25 43.75 -54.8 61.75 -48.1 74.9 -54.7 66.75 -61.1 56.15 L-59.65 75.85 Q-65.0 69.4 -68.15 41.1 -72.65 29.2 -73.35 17.35 -72.5 40.8 -68.6 54.7 -80.8 42.25 -81.7 1.8 -82.35 -28.05 -68.55 -41.45 -61.25 -48.6 -52.75 -46.1 -49.7 -45.25 -46.5 -43.1 -44.75 -35.35 -46.85 -25.65 -47.8 -14.1 -48.6 -6.9 -49.3 -0.45 -49.2 14.7 M59.15 47.2 Q69.1 37.05 72.7 16.75 L72.7 16.6 72.7 16.45 Q74.65 4.55 74.5 -10.45 74.3 -31.55 64.35 -47.25 M-36.5 20.7 Q-35.95 25.2 -34.9 29.45 L-34.4 31.3 M-57.25 43.75 Q-59.45 28.2 -59.65 11.25 L-59.65 4.6 M-52.85 5.55 L-52.75 11.9 -52.8 13.95 Q-52.9 17.85 -53.15 21.55 L-53.95 28.6 M-73.45 14.15 L-73.35 17.35 M-68.15 41.1 Q-64.9 49.85 -61.1 56.15 M72.25 31.55 Q72.7 24.35 72.7 16.8 L72.7 16.75" fill="none" stroke="#000000" stroke-linecap="round" stroke-linejoin="round" stroke-width="2.0"/>
  </g>
</svg>
