<?xml version="1.0" encoding="UTF-8" standalone="no"?>
<svg xmlns:xlink="http://www.w3.org/1999/xlink" height="127.1px" width="235.45px" xmlns="http://www.w3.org/2000/svg">
  <g transform="matrix(1.0, 0.0, 0.0, 1.0, 117.75, 63.55)">
    <path d="M-67.2 59.25 L-67.15 58.95 Q-79.0 49.45 -81.2 33.0 L-79.4 50.15 Q-93.95 37.55 -97.6 25.2 -100.05 37.4 -99.55 43.55 -114.75 24.85 -102.95 -7.35 -114.45 4.8 -116.25 16.3 -119.15 -4.85 -104.9 -25.85 -90.7 -46.8 -76.05 -55.1 -63.55 -62.45 -52.0 -62.55 -32.85 -61.0 -29.65 -50.5 -8.85 -62.35 14.3 -60.8 28.45 -60.1 41.35 -54.3 L42.95 -53.6 Q47.65 -59.6 60.15 -60.7 70.25 -60.6 81.15 -53.45 93.95 -45.4 106.35 -25.1 118.8 -4.7 116.3 15.8 114.7 4.65 107.0 -6.7 119.1 24.1 101.7 42.25 102.15 36.25 100.0 24.45 96.8 36.4 84.1 48.65 L85.65 32.0 Q83.75 47.95 71.05 56.2 74.55 48.25 74.2 34.6 L73.55 39.2 73.5 39.5 Q68.7 54.65 59.25 58.25 68.55 44.95 67.85 -2.5 L67.85 -5.5 Q65.95 -16.75 59.25 -22.45 53.5 -24.8 46.8 -26.2 32.1 -29.35 13.0 -27.8 -14.8 -25.55 -20.2 -18.0 -25.6 -10.5 -27.0 5.0 -29.55 41.1 -16.2 62.55 -28.0 55.9 -32.2 48.1 L-27.0 59.75 Q-42.9 52.15 -45.5 36.0 L-46.6 28.45 Q-51.45 27.1 -54.4 33.15 L-55.5 30.2 Q-55.1 36.45 -52.85 41.3 -61.95 37.0 -63.0 27.4 -69.6 47.5 -67.15 58.95 M42.95 -53.6 Q57.5 -46.65 64.85 -35.8 75.95 -20.7 74.95 -2.4 76.85 21.8 74.2 34.6 M107.0 -6.7 L102.3 -15.25 M-82.3 -39.35 Q-94.45 -26.4 -98.65 -17.05 L-102.95 -7.35 M-55.5 30.2 Q-56.55 14.45 -45.75 -10.15 -27.9 -41.55 -29.45 -49.85 L-29.65 -50.5 M-46.6 28.45 Q-47.95 19.05 -44.95 6.4 M-63.0 27.4 Q-63.5 23.8 -62.8 19.5 M-81.2 33.0 L-81.45 31.3 Q-83.55 11.75 -72.6 -17.1 M85.65 32.0 L85.9 30.35 Q87.7 11.4 78.15 -16.6 M-93.25 -10.2 Q-102.1 7.2 -97.6 25.2 M97.1 -4.85 Q103.9 6.95 100.0 24.45" fill="none" stroke="#000000" stroke-linecap="round" stroke-linejoin="round" stroke-width="2.0"/>
  </g>
</svg>
