<?xml version="1.0" encoding="UTF-8" standalone="no"?>
<svg xmlns:xlink="http://www.w3.org/1999/xlink" height="133.85px" width="202.05px" xmlns="http://www.w3.org/2000/svg">
  <g transform="matrix(1.0, 0.0, 0.0, 1.0, 101.05, 66.9)">
    <path d="M65.4 46.5 L65.35 46.15 65.25 44.1 Q64.8 34.55 67.05 13.15 L67.35 5.5 Q67.35 -1.9 66.25 -8.85 64.9 -21.7 58.2 -27.4 39.7 -35.0 11.95 -32.75 -15.85 -30.5 -21.25 -22.95 -26.65 -15.45 -26.7 0.05 L-24.45 16.55 Q-18.3 44.95 -24.35 52.65 -31.35 48.15 -35.35 37.95 L-34.3 45.2 Q-43.2 41.25 -46.6 24.1 L-48.6 23.65 Q-49.15 28.8 -51.0 35.35 -52.4 46.2 -57.8 52.25 -63.2 58.3 -65.7 59.8 -68.85 57.0 -67.05 51.25 -72.55 58.45 -73.4 65.95 -80.85 58.15 -79.95 51.05 -81.8 53.6 -82.7 57.55 -96.7 46.55 -90.3 37.35 -97.45 37.75 -100.05 33.95 -94.1 31.35 -86.25 22.1 -72.65 6.15 -61.9 5.45 -62.45 1.0 -62.5 -3.65 -62.65 -21.1 -54.3 -32.9 -45.95 -44.7 -37.3 -51.3 -13.65 -67.5 13.25 -65.75 28.95 -65.05 43.15 -58.6 57.35 -52.2 65.5 -40.1 77.4 -22.5 73.05 0.15 L71.95 6.45 Q78.95 9.95 85.7 21.8 92.4 33.6 100.0 37.05 94.75 41.95 90.3 41.7 92.2 45.25 95.2 54.55 85.55 54.9 83.7 51.1 84.5 58.2 75.2 62.9 75.1 56.35 72.5 51.3 74.05 57.05 71.3 59.85 69.7 58.9 66.75 55.1 63.75 51.3 65.4 46.8 L65.4 46.5 Q65.85 51.2 67.25 51.7 74.4 43.2 72.0 23.25 L70.05 15.2 71.95 6.45 M83.7 51.1 L82.55 46.5 M72.5 51.3 L71.75 50.15 M-46.55 10.55 Q-47.65 15.4 -46.75 23.4 L-46.7 23.5 -46.55 24.1 -46.6 24.1 -46.7 23.5 M-48.6 23.65 Q-47.2 9.3 -56.45 6.15 -59.1 5.25 -61.9 5.45 M-67.05 51.25 L-66.2 50.1 M-79.95 51.05 L-78.6 46.45" fill="none" stroke="#000000" stroke-linecap="round" stroke-linejoin="round" stroke-width="2.0"/>
  </g>
</svg>
