<?xml version="1.0" encoding="UTF-8" standalone="no"?>
<svg xmlns:xlink="http://www.w3.org/1999/xlink" height="146.8px" width="139.65px" xmlns="http://www.w3.org/2000/svg">
  <g transform="matrix(1.0, 0.0, 0.0, 1.0, 69.8, 73.4)">
    <path d="M58.05 51.95 L55.5 58.15 Q52.35 64.45 52.75 73.3 40.45 58.05 49.6 44.7 60.75 36.05 60.1 16.45 59.65 10.6 61.15 1.65 62.65 -7.35 58.55 -16.2 59.15 -23.4 56.35 -28.5 48.45 -42.45 22.55 -43.7 -3.4 -44.95 -19.8 -34.75 -30.5 -30.0 -30.45 -14.0 -38.85 -3.85 -37.3 22.85 L-33.7 38.8 Q-31.15 50.05 -31.4 60.6 -31.35 69.4 -27.25 73.4 -38.0 70.4 -42.0 62.15 L-40.4 68.35 Q-50.05 60.2 -48.75 36.1 L-48.7 34.9 Q-48.35 23.8 -53.05 12.35 -61.2 10.65 -61.95 17.6 -63.15 28.5 -49.75 34.45 -64.7 31.7 -69.75 27.9 L-68.95 9.55 Q-72.25 -14.05 -62.5 -35.7 -48.65 -67.05 -15.95 -71.65 -3.4 -74.0 8.35 -73.2 42.55 -69.1 53.0 -55.0 62.95 -45.35 67.5 -21.95 72.0 1.45 67.9 29.2 L67.9 29.25 Q64.45 54.6 55.1 65.45 L58.05 51.95" fill="url(#gradient0)" fill-rule="evenodd" stroke="none"/>
  </g>
  <defs>
    <linearGradient gradientTransform="matrix(0.0, 0.1011, -0.0852, 0.0, 0.05, 49.0)" gradientUnits="userSpaceOnUse" id="gradient0" spreadMethod="pad" x1="-819.2" x2="819.2">
      <stop offset="0.0" stop-color="#fff23c" stop-opacity="0.0"/>
      <stop offset="0.3803921568627451" stop-color="#fff23c" stop-opacity="0.84705883"/>
      <stop offset="0.6039215686274509" stop-color="#fff23c" stop-opacity="0.8"/>
      <stop offset="1.0" stop-color="#fff23c" stop-opacity="0.0"/>
    </linearGradient>
  </defs>
</svg>
