<?xml version="1.0" encoding="UTF-8" standalone="no"?>
<svg xmlns:xlink="http://www.w3.org/1999/xlink" height="179.35px" width="166.0px" xmlns="http://www.w3.org/2000/svg">
  <g transform="matrix(1.0, 0.0, 0.0, 1.0, 83.0, 89.65)">
    <path d="M-16.85 53.15 L-16.75 53.05 -15.05 54.45 Q-11.3 57.45 -11.55 59.65 -11.65 61.1 -12.9 62.55 L-12.7 62.6 Q-15.0 64.2 -15.3 65.65 -16.2 64.95 -17.15 65.25 L-17.15 65.2 Q-18.9 64.2 -21.5 63.4 -24.45 61.9 -24.0 59.9 -23.9 58.25 -22.1 56.05 L-19.45 53.55 -18.35 53.9 Q-17.4 53.9 -16.85 53.15 M41.6 63.6 Q42.75 65.55 45.7 66.2 L45.75 66.2 Q50.1 69.0 50.65 72.5 50.35 76.35 47.9 79.85 48.45 83.55 49.85 84.6 45.65 84.7 43.3 83.05 34.85 81.35 36.5 72.3 L39.15 63.8 39.3 63.5 39.4 63.6 Q39.85 64.15 40.5 64.15 41.15 64.15 41.6 63.6 M40.7 52.4 L41.8 52.05 Q44.4 54.6 46.9 55.0 48.2 58.4 45.35 59.7 L44.8 58.7 Q42.45 59.4 41.4 60.9 41.0 60.55 40.5 60.55 39.85 60.55 39.4 61.05 L39.4 61.1 37.8 59.9 37.55 59.75 Q34.3 57.2 37.95 53.15 L39.5 51.9 Q40.0 52.4 40.7 52.4 M72.95 -7.85 Q73.8 1.65 72.0 10.9 68.65 23.05 61.55 30.45 57.75 33.3 54.2 32.15 53.55 38.1 49.75 43.05 L49.5 41.65 Q46.55 43.25 42.05 48.35 L41.3 47.8 40.7 47.75 Q39.9 47.75 39.3 48.4 L39.15 48.65 Q35.5 43.75 33.85 43.85 28.65 38.85 29.8 33.2 41.75 31.85 48.8 27.4 45.85 21.0 50.05 12.8 52.75 16.2 56.95 16.1 53.85 14.45 55.2 10.1 61.2 15.35 62.0 3.95 62.6 -4.35 62.0 -15.45 L61.35 -24.4 Q60.0 -39.6 57.15 -48.65 49.55 -62.2 20.4 -57.1 -8.3 -65.15 -23.15 -50.05 -31.85 -41.15 -34.3 -16.95 L-34.5 -16.5 Q-38.6 4.7 -28.35 17.05 -22.65 18.3 -16.25 14.9 -16.3 19.65 -20.85 21.15 -14.35 20.75 -12.0 16.5 -12.85 25.5 -19.35 30.9 L-11.4 32.85 Q-10.65 38.35 -14.85 46.75 L-17.5 49.1 Q-17.95 48.75 -18.5 48.7 L-18.85 48.65 Q-19.75 48.65 -20.25 49.4 L-20.3 49.5 Q-28.45 45.85 -29.6 46.9 L-29.65 46.9 Q-43.7 41.55 -48.95 29.3 -73.0 24.8 -72.4 -2.1 -73.9 8.05 -73.4 14.7 -92.3 -4.2 -74.0 -41.0 -56.0 -77.4 -20.05 -86.75 13.5 -93.55 38.95 -84.35 64.05 -74.6 70.85 -43.9 72.8 -29.5 78.85 -17.25 L79.6 -15.45 Q88.2 5.3 75.15 12.8 78.25 3.25 72.95 -7.85 M-16.3 69.15 L-15.5 68.4 -14.3 69.3 Q-11.6 72.3 -10.75 77.25 -9.85 82.5 -14.8 86.45 L-13.6 81.1 Q-14.0 82.6 -15.1 84.55 -17.15 88.35 -16.55 89.7 -22.1 86.75 -22.55 80.05 L-22.85 85.35 Q-26.35 76.65 -19.85 69.8 L-17.65 68.05 Q-17.3 68.85 -16.3 69.15" fill="#96e2fc" fill-rule="evenodd" stroke="none"/>
  </g>
</svg>
