<?xml version="1.0" encoding="UTF-8" standalone="no"?>
<svg xmlns:xlink="http://www.w3.org/1999/xlink" height="173.1px" width="214.0px" xmlns="http://www.w3.org/2000/svg">
  <g transform="matrix(1.0, 0.0, 0.0, 1.0, 107.0, 86.55)">
    <path d="M85.25 18.5 Q93.1 39.6 87.95 57.2 84.5 69.05 77.05 77.65 73.4 81.75 68.9 85.15 85.4 79.7 95.45 63.7 97.55 59.95 98.75 55.75 101.45 46.0 99.2 33.6 97.75 25.75 94.35 16.85 83.1 -12.25 77.1 -25.05 73.6 -26.85 70.95 -30.4 M-22.45 -54.7 L-24.6 -52.2 Q7.0 -30.1 51.5 -26.0 L54.35 -25.75 M77.1 -25.05 Q87.6 -19.75 106.0 -30.4 88.2 -24.75 69.25 -42.55 55.1 -69.4 37.4 -78.55 12.15 -89.7 -24.5 -83.15 -63.5 -74.85 -74.35 -45.5 -87.6 -15.2 -106.0 1.0 -90.65 -0.65 -77.65 -19.65 -70.35 -30.35 -63.8 -46.5 M98.75 55.75 Q97.75 75.4 90.25 85.55 112.2 74.25 99.2 33.6 M51.5 -26.0 Q60.2 -1.85 56.4 17.25 33.05 66.35 61.1 82.9 49.6 68.85 54.75 47.45 55.75 43.15 57.45 38.6 71.0 15.15 73.7 -9.5 M77.05 77.65 L68.05 83.85 71.25 80.45 75.6 64.6 Q72.7 73.7 65.15 81.25 L67.55 62.5 Q66.15 71.4 61.5 80.95 62.35 65.2 54.75 47.45 M64.55 37.0 Q69.05 47.65 67.95 59.35 L67.55 62.5 M75.6 64.6 Q79.7 51.55 74.4 35.3 M71.25 80.45 Q89.4 59.75 79.15 33.05 M-65.85 -16.1 Q-72.7 8.6 -56.0 40.05 L-55.25 41.55 Q-42.3 66.9 -43.8 81.55 -34.2 66.3 -43.9 45.5 -53.65 24.7 -58.0 6.05 -60.9 -24.15 -47.85 -38.9 -32.0 -44.5 -24.6 -52.2 M-85.6 39.35 Q-86.35 52.7 -80.0 62.95 L-79.25 64.15 Q-72.25 74.55 -57.7 81.55 -68.6 72.25 -75.7 55.8 L-75.9 55.5 Q-82.45 43.35 -80.25 28.45 M-55.25 41.55 Q-51.0 51.75 -49.05 61.7 -46.95 72.1 -47.55 82.1 L-52.4 77.8 Q-68.8 68.25 -75.7 55.8 M-77.65 -19.65 Q-98.5 16.8 -99.15 37.2 -102.0 67.95 -67.35 82.6 -73.3 79.45 -79.25 64.15 M-52.4 77.8 Q-65.15 65.45 -66.95 52.2" fill="none" stroke="#000000" stroke-linecap="round" stroke-linejoin="round" stroke-width="2.0"/>
  </g>
</svg>
