<?xml version="1.0" encoding="UTF-8" standalone="no"?>
<svg xmlns:xlink="http://www.w3.org/1999/xlink" height="102.5px" width="176.8px" xmlns="http://www.w3.org/2000/svg">
  <g transform="matrix(1.0, 0.0, 0.0, 1.0, 48.4, 132.75)">
    <path d="M-38.1 -30.25 Q-44.15 -30.15 -45.8 -34.5 L-46.65 -38.15 Q-50.4 -55.85 -46.05 -73.5 -42.3 -83.6 -34.4 -100.65 L-22.25 -126.8 Q-18.45 -135.05 -11.7 -131.85 L-10.3 -131.15 Q-3.05 -125.55 -3.65 -104.85 -5.8 -94.75 -13.3 -74.4 -20.0 -55.7 -24.15 -48.05 L-24.15 -48.0 -24.9 -37.5 Q-25.6 -35.1 -27.55 -33.45 -29.6 -40.3 -28.8 -46.45 L-28.35 -49.0 Q-17.4 -75.2 -12.35 -96.4 -10.2 -105.6 -10.0 -111.3 -9.55 -117.1 -13.0 -118.2 -16.55 -119.3 -18.25 -116.2 L-21.5 -109.65 Q-23.1 -106.15 -27.2 -99.05 -41.6 -74.25 -42.95 -58.4 -43.75 -48.95 -41.85 -40.8 -40.6 -35.25 -38.1 -30.25 M42.5 -42.05 Q38.25 -44.3 33.45 -46.0 L38.0 -53.6 Q45.5 -66.45 61.35 -72.0 77.2 -77.65 115.95 -83.85 134.15 -91.45 125.75 -76.0 109.8 -65.9 75.2 -63.6 62.05 -61.85 50.9 -51.3 46.2 -46.75 42.5 -42.05" fill="#000000" fill-opacity="0.8784314" fill-rule="evenodd" stroke="none"/>
  </g>
</svg>
