<?xml version="1.0" encoding="UTF-8" standalone="no"?>
<svg xmlns:xlink="http://www.w3.org/1999/xlink" height="40.55px" width="131.8px" xmlns="http://www.w3.org/2000/svg">
  <g transform="matrix(1.0, 0.0, 0.0, 1.0, 65.9, 20.3)">
    <path d="M47.8 -14.95 Q49.15 -15.55 50.75 -15.65 L52.75 -15.4 Q56.55 -14.7 59.0 -11.5 61.25 -8.4 61.15 -4.6 L61.15 -4.4 60.85 -2.45 Q62.25 -1.85 63.5 -0.65 65.8 1.55 65.9 4.7 66.1 7.65 64.15 9.8 62.0 5.9 59.25 2.15 L58.6 1.2 Q53.45 -5.95 45.1 -11.35 L44.2 -11.9 Q40.3 -14.35 35.75 -16.35 L34.05 -17.1 Q34.7 -18.05 35.65 -18.8 38.1 -20.65 41.2 -20.2 L41.4 -20.2 Q44.65 -19.55 46.7 -16.9 L47.8 -14.95 M-50.6 -6.7 Q-50.35 -8.3 -49.5 -9.9 -47.8 -12.75 -44.65 -13.8 L-43.25 -14.1 Q-40.95 -14.4 -38.8 -13.15 L-38.35 -12.85 Q-36.05 -11.35 -35.4 -8.4 -34.7 -5.1 -36.4 -2.25 -38.1 0.75 -41.25 1.7 L-41.55 1.85 Q-41.45 4.65 -42.95 7.35 -44.95 10.85 -48.7 12.05 L-51.35 12.55 Q-51.5 15.05 -53.1 17.1 -55.05 19.6 -58.05 20.15 -61.1 20.6 -63.4 18.85 L-64.15 18.15 Q-65.7 16.45 -65.85 13.95 -66.1 10.85 -64.15 8.35 -62.3 6.0 -59.5 5.5 -60.15 1.8 -58.25 -1.6 -56.25 -5.05 -52.55 -6.25 L-50.6 -6.7" fill="#895df3" fill-rule="evenodd" stroke="none"/>
  </g>
</svg>
