<?xml version="1.0" encoding="UTF-8" standalone="no"?>
<svg xmlns:xlink="http://www.w3.org/1999/xlink" height="154.65px" width="151.15px" xmlns="http://www.w3.org/2000/svg">
  <g transform="matrix(1.0, 0.0, 0.0, 1.0, 75.55, 77.3)">
    <path d="M50.0 -31.9 L50.65 -33.15 Q57.55 -47.0 66.7 -56.55 L70.05 -59.9 M50.65 -33.15 Q52.2 -28.5 56.5 -27.05 58.35 -30.25 57.45 -35.1 61.5 -32.45 63.8 -34.55 64.75 -37.7 62.0 -41.4 65.6 -41.95 65.85 -43.45 66.6 -46.55 64.1 -47.5 69.0 -49.25 66.2 -52.45 70.5 -56.95 66.7 -56.55 M24.8 -49.55 Q33.65 -56.8 49.55 -62.1 64.7 -67.55 74.6 -65.95 68.2 -53.65 67.05 -39.35 64.95 -27.65 62.1 -26.3 L60.8 -25.7 Q69.65 -13.8 71.2 8.75 74.55 40.35 65.0 56.25 55.4 72.15 44.5 74.45 50.7 65.25 55.6 48.35 58.35 30.95 53.75 -2.2 54.05 -15.05 42.25 -20.4 30.45 -25.75 17.05 -19.7 6.45 -24.15 -7.25 -23.5 -20.9 -22.85 -27.7 -12.0 -44.1 39.45 -24.7 76.35 -41.45 73.2 -52.4 67.0 -60.05 61.75 -61.55 57.05 L-69.15 49.15 Q-73.9 40.4 -74.5 18.0 -75.1 -4.4 -67.75 -19.3 -70.0 -23.05 -70.85 -32.0 -71.85 -42.05 -71.0 -53.4 -70.2 -64.75 -65.9 -72.75 L-63.95 -76.3 Q-55.75 -72.85 -42.7 -65.95 -30.9 -59.75 -22.4 -52.6 5.95 -55.75 24.8 -49.55 29.9 -47.9 34.35 -45.5 M56.55 -23.85 L60.8 -25.7 M-19.9 -50.35 L-20.75 -51.15 -22.4 -52.6 M-63.95 -76.3 Q-59.8 -69.2 -51.05 -59.7 L-49.0 -57.45 Q-39.55 -47.45 -36.9 -39.3 L-36.5 -37.8 M-51.05 -59.7 Q-54.45 -62.75 -61.05 -62.75 -61.45 -59.55 -58.1 -53.85 -62.7 -53.4 -64.25 -51.15 -64.75 -48.0 -60.35 -43.9 -65.7 -41.85 -66.05 -38.8 -65.25 -37.1 -61.05 -35.05 -65.05 -31.2 -65.5 -27.05 -65.1 -25.75 -60.85 -27.05 -62.95 -24.2 -61.95 -21.35 -59.75 -20.0 -52.45 -25.95 -45.2 -31.95 -36.9 -39.3 M-67.75 -19.3 L-67.2 -18.5 -66.0 -17.2 M-61.55 57.05 Q-69.75 32.05 -61.35 -5.55" fill="none" stroke="#000000" stroke-linecap="round" stroke-linejoin="round" stroke-width="2.0"/>
  </g>
</svg>
