<?xml version="1.0" encoding="UTF-8" standalone="no"?>
<svg xmlns:xlink="http://www.w3.org/1999/xlink" height="268.95px" width="206.55px" xmlns="http://www.w3.org/2000/svg">
  <g transform="matrix(1.0, 0.0, 0.0, 1.0, 103.3, 134.45)">
    <path d="M-34.75 -120.85 Q-26.25 -125.6 -15.45 -128.3 -1.6 -131.75 12.3 -130.85 25.5 -130.2 37.65 -125.1 L39.35 -124.35 Q43.9 -122.35 47.8 -119.9 L48.7 -119.35 Q57.05 -113.95 62.2 -106.8 L62.85 -105.85 Q65.6 -102.1 67.75 -98.2 72.15 -90.15 74.1 -81.35 L74.1 -80.6 Q81.1 -41.35 73.1 -7.2 L69.85 -9.1 69.7 -8.95 Q61.2 28.65 74.15 48.8 77.7 54.25 82.8 58.45 L83.3 58.85 86.05 60.85 90.2 63.4 Q96.9 66.4 100.6 77.1 98.1 68.25 91.7 57.9 L91.2 56.75 90.0 53.9 87.85 47.7 Q81.5 27.05 85.6 2.55 87.1 -6.35 90.0 -15.8 90.95 -19.0 92.05 -22.2 L93.35 -26.15 Q107.35 -69.55 92.3 -101.65 79.3 -128.7 58.8 -132.45 50.2 -135.75 44.8 -128.2 M69.7 -8.95 Q63.45 -4.05 57.25 -2.6 59.6 -5.85 65.2 -24.6 69.65 -52.4 64.1 -80.65 62.05 -88.4 57.25 -92.5 52.9 -97.3 39.35 -100.2 25.85 -103.1 4.0 -99.35 -17.85 -95.6 -22.7 -88.05 L-22.85 -87.8 Q-32.6 -46.5 -10.9 2.25 -27.05 -2.8 -33.8 -10.85 L-40.2 -4.15 Q-44.15 -23.55 -45.2 -39.55 -49.95 -45.2 -55.7 -34.9 -58.05 -38.6 -59.75 -42.4 -62.35 -30.9 -66.2 -18.7 -65.4 -12.45 -64.15 -6.25 -52.15 41.95 -75.75 61.6 -52.5 85.35 -72.25 105.85 -68.0 88.3 -78.95 64.0 L-83.05 66.55 Q-92.4 107.95 -56.9 125.8 -101.8 113.75 -93.3 80.7 L-93.2 80.25 Q-90.85 71.4 -84.7 61.05 L-84.2 59.9 Q-118.4 46.5 -88.05 -23.0 -102.95 -66.4 -88.55 -98.5 -76.1 -125.55 -55.65 -129.3 -45.6 -133.2 -39.65 -122.1 M90.2 63.4 Q97.6 93.5 81.1 111.15 L82.1 116.45 Q107.9 103.45 100.7 77.55 L100.6 77.1 M74.15 48.8 Q65.15 85.6 76.95 115.1 L78.25 118.25 Q81.75 126.15 86.8 133.5 83.85 125.0 82.1 116.45 M76.95 115.1 Q71.9 119.3 65.25 122.65 72.45 120.7 78.25 118.25 M83.3 58.85 Q76.85 85.3 81.1 111.15 M90.0 -15.8 Q100.4 19.65 87.85 47.7 M-88.05 -23.0 L-86.65 -19.05 Q-81.95 -6.2 -79.7 5.7 -74.4 33.95 -83.05 57.05 L-84.2 59.9 M-66.2 -18.7 Q-69.7 -44.3 -66.9 -71.45 -66.65 -79.6 -61.6 -88.15 L-61.55 -88.2 -60.55 -89.85 M-40.95 -82.85 Q-46.45 -62.15 -45.3 -41.15 L-45.2 -39.55 M-59.75 -42.4 Q-69.45 -63.45 -61.6 -88.15 M-78.95 64.0 L-75.75 61.6 M-93.2 80.25 Q-89.7 69.55 -83.05 66.55 M-79.7 5.7 Q-98.4 41.0 -83.05 57.05" fill="none" stroke="#000000" stroke-linecap="round" stroke-linejoin="round" stroke-width="2.0"/>
  </g>
</svg>
