<?xml version="1.0" encoding="UTF-8" standalone="no"?>
<svg xmlns:xlink="http://www.w3.org/1999/xlink" height="41.65px" width="134.55px" xmlns="http://www.w3.org/2000/svg">
  <g transform="matrix(1.0, 0.0, 0.0, 1.0, 67.25, 20.85)">
    <path d="M-52.25 -17.8 L-50.2 -15.55 Q-40.75 -5.55 -38.1 2.6 L-53.65 15.95 Q-60.95 21.9 -63.15 20.55 -64.15 17.7 -62.05 14.85 -66.3 16.15 -66.7 14.85 -66.25 10.7 -62.25 6.85 -66.45 4.8 -67.25 3.1 -66.9 0.05 -61.55 -2.0 -65.95 -6.1 -65.45 -9.25 -63.9 -11.5 -59.3 -11.95 -62.65 -17.65 -62.25 -20.85 -55.65 -20.85 -52.25 -17.8 M49.45 8.75 Q56.35 -5.1 65.5 -14.65 69.3 -15.05 65.0 -10.55 67.8 -7.35 62.9 -5.6 65.4 -4.65 64.65 -1.55 64.4 -0.05 60.8 0.5 63.55 4.2 62.6 7.35 60.3 9.45 56.25 6.8 57.15 11.65 55.3 14.85 51.0 13.4 49.45 8.75" fill="#dad2ff" fill-rule="evenodd" stroke="none"/>
  </g>
</svg>
