<?xml version="1.0" encoding="UTF-8" standalone="no"?>
<svg xmlns:xlink="http://www.w3.org/1999/xlink" height="155.85px" width="156.0px" xmlns="http://www.w3.org/2000/svg">
  <g transform="matrix(1.0, 0.0, 0.0, 1.0, 78.0, 77.9)">
    <path d="M46.7 70.7 L47.05 70.5 47.25 70.35 58.55 46.15 Q51.45 57.8 38.45 64.75 55.85 42.45 59.3 1.05 59.05 -13.5 50.75 -30.8 42.1 -45.95 18.6 -49.05 -15.9 -48.7 -32.55 -29.1 -41.75 -15.5 -43.05 10.3 -39.9 47.85 -21.0 66.4 -36.45 60.9 -44.05 52.4 L-44.2 52.25 -44.2 52.2 -44.7 51.7 -29.45 76.95 Q-81.2 43.05 -76.65 -12.55 -72.75 -44.65 -53.65 -59.5 -34.5 -74.4 -2.15 -76.6 27.85 -78.95 49.95 -62.1 70.2 -46.65 76.0 -20.9 79.45 7.9 71.25 34.15 64.15 57.9 47.25 70.35 M-44.2 52.2 L-44.8 51.5 -44.7 51.7 Q-61.15 33.7 -64.75 5.9 M58.55 46.15 Q70.1 22.75 68.85 -4.8" fill="none" stroke="#000000" stroke-linecap="round" stroke-linejoin="round" stroke-width="2.0"/>
  </g>
</svg>
