<?xml version="1.0" encoding="UTF-8" standalone="no"?>
<svg xmlns:xlink="http://www.w3.org/1999/xlink" height="131.2px" width="55.4px" xmlns="http://www.w3.org/2000/svg">
  <g transform="matrix(1.0, 0.0, 0.0, 1.0, -24.3, 33.2)">
    <path d="M79.7 -21.45 Q78.6 -5.9 72.3 3.65 L70.75 5.8 Q68.0 11.0 72.95 20.85 76.8 28.6 60.45 35.0 47.35 43.65 47.65 53.5 59.95 64.15 45.8 73.65 31.6 83.1 44.15 98.0 19.85 85.05 31.55 67.1 35.2 61.1 29.45 56.05 L29.3 55.9 29.0 55.7 Q18.2 46.25 32.3 32.45 L32.85 32.25 Q57.5 22.05 56.35 5.8 54.6 -2.95 55.8 -8.8 58.85 -22.35 56.85 -33.2 L77.35 -33.2 Q79.7 -27.1 79.7 -21.45" fill="url(#gradient0)" fill-rule="evenodd" stroke="none"/>
  </g>
  <defs>
    <linearGradient gradientTransform="matrix(0.0, 0.0882, -0.0987, 0.0, 0.0, 69.55)" gradientUnits="userSpaceOnUse" id="gradient0" spreadMethod="pad" x1="-819.2" x2="819.2">
      <stop offset="0.0" stop-color="#fff23c" stop-opacity="0.0"/>
      <stop offset="0.3803921568627451" stop-color="#fff23c" stop-opacity="0.84705883"/>
      <stop offset="0.6039215686274509" stop-color="#fff23c" stop-opacity="0.8"/>
      <stop offset="1.0" stop-color="#fff23c" stop-opacity="0.0"/>
    </linearGradient>
  </defs>
</svg>
