<?xml version="1.0" encoding="UTF-8" standalone="no"?>
<svg xmlns:xlink="http://www.w3.org/1999/xlink" height="195.95px" width="161.7px" xmlns="http://www.w3.org/2000/svg">
  <g transform="matrix(1.0, 0.0, 0.0, 1.0, 80.85, 97.95)">
    <path d="M-23.7 -87.3 Q-11.9 -100.55 11.65 -97.3 37.6 -94.05 58.8 -64.85 67.6 -53.3 80.85 -54.5 69.85 -47.35 64.7 -52.4 79.75 -35.6 79.7 -21.45 78.6 -5.9 72.3 3.65 L70.75 5.8 Q68.0 11.0 72.95 20.85 76.8 28.6 60.45 35.0 47.35 43.65 47.65 53.5 59.95 64.15 45.8 73.65 31.6 83.1 44.15 98.0 19.85 85.05 31.55 67.1 35.2 61.1 29.45 56.05 L29.3 55.9 29.0 55.7 Q18.2 46.25 32.3 32.45 L32.85 32.25 Q57.5 22.05 56.35 5.8 54.6 -2.95 55.8 -8.8 60.55 -29.75 53.05 -44.2 8.75 -46.4 -18.75 -59.0 -21.3 -58.55 -22.65 -50.65 -24.7 -34.85 -33.35 -22.1 -42.0 -9.35 -52.4 -4.6 -45.1 -0.55 -48.55 8.25 -48.55 3.25 -57.05 -3.65 L-59.3 -3.65 Q-64.7 -5.8 -67.45 -0.35 -68.2 6.75 -59.15 16.1 -66.05 13.3 -73.0 24.7 -72.6 13.65 -77.8 -2.25 -82.3 -18.3 -80.15 -33.15 -76.8 -65.25 -51.6 -81.15 -39.75 -87.25 -23.7 -87.3" fill="#95c2ff" fill-rule="evenodd" stroke="none"/>
  </g>
</svg>
