<?xml version="1.0" encoding="UTF-8" standalone="no"?>
<svg xmlns:xlink="http://www.w3.org/1999/xlink" height="131.3px" width="175.8px" xmlns="http://www.w3.org/2000/svg">
  <g transform="matrix(1.0, 0.0, 0.0, 1.0, 87.9, 65.65)">
    <path d="M-87.85 37.55 Q-87.3 15.15 -82.45 -1.3 -77.85 -17.15 -70.75 -29.4 -55.05 -54.25 -28.6 -61.95 -10.65 -66.85 12.3 -65.3 44.3 -61.3 63.7 -41.45 L64.75 -40.2 Q80.2 -21.65 84.9 16.35 L87.25 34.8 Q89.45 53.65 84.3 59.75 79.1 65.8 72.3 65.65 65.5 65.5 63.95 59.45 62.45 53.4 64.7 39.9 L64.7 39.85 Q66.7 24.75 59.7 -3.45 55.2 -21.0 47.45 -30.75 39.55 -38.35 21.55 -39.45 -3.15 -42.35 -24.65 -32.1 -38.0 -14.6 -39.6 9.1 -39.5 24.75 -43.6 27.3 -49.15 32.55 -57.65 18.1 -65.15 17.45 -64.1 26.15 -62.8 32.2 -59.1 36.0 -57.2 55.7 -63.85 60.1 -70.55 64.45 -74.75 62.8 -88.5 59.9 -87.85 37.55" fill="url(#gradient0)" fill-rule="evenodd" stroke="none"/>
  </g>
  <defs>
    <linearGradient gradientTransform="matrix(0.0, 0.0939, -0.1073, 0.0, 0.0, 49.85)" gradientUnits="userSpaceOnUse" id="gradient0" spreadMethod="pad" x1="-819.2" x2="819.2">
      <stop offset="0.0" stop-color="#fff23c" stop-opacity="0.0"/>
      <stop offset="0.3803921568627451" stop-color="#fff23c" stop-opacity="0.84705883"/>
      <stop offset="0.6039215686274509" stop-color="#fff23c" stop-opacity="0.8"/>
      <stop offset="1.0" stop-color="#fff23c" stop-opacity="0.0"/>
    </linearGradient>
  </defs>
</svg>
