<?xml version="1.0" encoding="UTF-8" standalone="no"?>
<svg xmlns:xlink="http://www.w3.org/1999/xlink" height="146.0px" width="194.55px" xmlns="http://www.w3.org/2000/svg">
  <g transform="matrix(1.0, 0.0, 0.0, 1.0, 97.3, 73.0)">
    <path d="M-17.25 -40.2 Q-24.5 -22.0 -24.4 3.4 L-24.25 3.2 Q-8.3 -13.55 -7.2 -38.1 L-7.2 -38.15 Q5.15 -43.95 27.05 -44.1 39.15 -41.8 57.55 -35.9 60.4 -23.1 70.2 -10.35 L66.75 21.5 Q63.35 33.4 58.2 38.5 63.65 38.15 66.95 32.0 L61.1 43.9 Q53.75 59.45 57.5 71.35 58.6 63.5 71.6 45.25 L74.85 40.35 Q87.7 21.65 82.55 -5.2 L82.55 -5.6 82.6 -5.55 82.65 -5.5 Q82.15 -10.15 78.8 -16.4 M-24.25 3.2 L-24.4 3.45 -24.45 4.1 Q-24.7 9.7 -20.1 21.8 -14.65 31.65 -6.7 39.2 -12.4 39.65 -15.05 37.05 L-15.1 37.05 Q-7.0 65.25 -13.85 72.0 -20.15 61.45 -33.85 44.95 -53.2 39.1 -60.85 26.4 -63.75 21.6 -65.45 15.65 -76.9 42.2 -72.2 67.25 -89.25 53.35 -88.8 32.5 -90.2 40.7 -96.25 44.3 -94.7 36.6 -95.85 18.6 -97.7 -9.85 -91.5 -27.95 -85.3 -46.1 -69.75 -53.65 -55.1 -60.75 -46.8 -53.45 L-46.75 -53.4 Q-34.3 -65.35 -18.8 -69.15 0.55 -73.85 23.25 -70.8 45.95 -67.8 58.9 -56.7 70.5 -47.45 77.65 -29.3 83.45 -8.65 96.25 -5.5 88.55 -2.5 82.65 -5.5 M82.6 -5.55 L82.55 -5.2 M-65.45 15.65 L-62.5 9.3 Q-59.25 3.15 -54.8 -4.25 -41.95 -25.55 -41.8 -34.3 -40.4 -42.15 -43.9 -49.75 L-46.75 -53.4 M-24.4 3.45 L-24.4 3.4 M-49.75 -6.35 Q-55.15 16.7 -38.8 39.1 L-33.85 44.95 M-15.05 37.05 Q-17.7 35.05 -18.4 33.45" fill="none" stroke="#000000" stroke-linecap="round" stroke-linejoin="round" stroke-width="2.0"/>
  </g>
</svg>
