<?xml version="1.0" encoding="UTF-8" standalone="no"?>
<svg xmlns:xlink="http://www.w3.org/1999/xlink" height="133.55px" width="153.3px" xmlns="http://www.w3.org/2000/svg">
  <g transform="matrix(1.0, 0.0, 0.0, 1.0, 76.65, 66.75)">
    <path d="M-33.1 -15.05 L-33.65 2.55 Q-30.35 -18.1 -10.4 -35.9 10.45 -42.4 40.75 -37.25 56.15 -24.8 60.15 -4.0 L59.1 -18.6 M60.15 -4.0 Q62.4 39.65 52.7 60.0 59.45 60.15 63.45 58.65 74.35 41.1 72.7 1.7 L72.55 -2.85 Q70.15 -23.8 61.6 -38.7 70.15 -35.65 75.65 -45.15 64.15 -45.2 55.65 -50.0 46.35 -58.05 28.15 -63.1 14.8 -65.7 -0.55 -65.75 -17.0 -64.95 -29.1 -61.05 -45.75 -55.15 -59.35 -40.05 -78.8 -18.35 -75.05 32.85 M-33.65 2.55 Q-33.45 39.35 -20.85 63.65 -29.5 66.3 -35.85 65.7 -46.95 48.1 -52.95 23.15 -59.45 22.25 -61.0 27.05 -62.1 31.45 -57.5 37.75 M-52.95 23.15 Q-55.7 8.45 -55.6 -0.65" fill="none" stroke="#000000" stroke-linecap="round" stroke-linejoin="round" stroke-width="2.0"/>
  </g>
</svg>
