<?xml version="1.0" encoding="UTF-8" standalone="no"?>
<svg xmlns:xlink="http://www.w3.org/1999/xlink" height="147.65px" width="180.6px" xmlns="http://www.w3.org/2000/svg">
  <g transform="matrix(1.0, 0.0, 0.0, 1.0, 90.3, 73.8)">
    <path d="M59.4 -56.7 Q75.45 -43.4 84.5 -20.5 81.1 -11.9 73.3 -2.5 71.65 -12.5 67.75 -22.1 33.8 -25.55 0.15 -42.05 -9.8 -16.95 -20.2 4.3 -16.15 58.4 4.45 71.45 -27.75 80.4 -39.6 55.75 -35.8 68.05 -32.15 71.45 -41.75 69.35 -46.85 63.45 -48.9 61.1 -50.45 58.4 -55.2 50.15 -55.7 38.6 L-55.7 55.85 Q-68.6 26.2 -63.35 -12.95 -83.3 -17.2 -90.3 -32.15 L-88.7 -33.1 Q-71.25 -29.8 -55.65 -48.8 -51.8 -53.75 -47.4 -57.55 L-47.2 -57.75 Q-33.8 -69.45 -15.3 -71.35 20.65 -77.75 42.3 -67.3 51.4 -63.25 58.95 -57.1 L59.4 -56.7 M89.75 6.55 Q90.5 15.0 90.25 23.7 88.3 45.0 81.35 53.4 78.5 56.85 74.85 58.1 65.65 68.85 49.2 69.2 57.8 64.25 61.7 51.35 80.8 39.85 73.9 21.85 74.55 15.95 74.45 10.15 82.65 14.4 89.75 6.55 M74.25 6.05 L74.05 3.45 Q82.8 -3.6 86.8 -12.0 88.0 -6.75 88.85 -1.35 L89.0 -0.3 Q83.85 6.85 74.25 6.05 M-72.9 32.55 Q-72.1 34.5 -72.75 36.3 L-73.05 37.1 Q-73.6 38.3 -74.8 38.75 -76.3 39.25 -77.9 38.25 -79.45 37.25 -80.2 35.25 -80.95 33.25 -80.4 31.4 -79.85 29.55 -78.3 29.05 -76.8 28.45 -75.25 29.5 -73.6 30.55 -72.9 32.55 M-65.05 42.4 Q-64.4 43.6 -64.7 44.8 L-64.85 45.35 Q-65.15 46.15 -65.9 46.55 L-67.9 46.4 Q-69.0 45.85 -69.65 44.6 -70.2 43.35 -70.0 42.15 -69.75 40.85 -68.8 40.45 L-66.8 40.55 Q-65.65 41.1 -65.05 42.4" fill="#f5b1da" fill-rule="evenodd" stroke="none"/>
  </g>
</svg>
