<?xml version="1.0" encoding="UTF-8" standalone="no"?>
<svg xmlns:xlink="http://www.w3.org/1999/xlink" height="136.45px" width="147.6px" xmlns="http://www.w3.org/2000/svg">
  <g transform="matrix(1.0, 0.0, 0.0, 1.0, 73.8, 68.2)">
    <path d="M-40.3 -1.3 Q-43.2 21.2 -39.65 38.3 -39.25 5.05 -28.5 -19.05 -23.1 -46.0 18.4 -34.8 42.5 -42.75 49.8 -25.35 52.75 -16.65 53.55 -3.4 56.95 34.05 51.5 59.4 55.6 53.3 58.3 46.55 L58.5 46.05 Q66.05 26.45 61.8 1.1 M-39.65 38.3 Q-37.35 49.65 -32.15 58.65 L-36.7 54.0 -28.05 67.25 Q-49.05 60.8 -53.1 46.35 -51.75 56.85 -60.65 65.55 -59.85 53.3 -64.95 40.3 -70.05 27.3 -72.2 11.7 -75.1 -11.9 -64.25 -34.85 -53.4 -57.8 -22.75 -64.05 -13.5 -65.85 -4.95 -64.15 1.6 -67.8 11.5 -67.05 44.2 -63.85 60.75 -42.15 74.1 -24.4 72.65 3.2 71.2 30.75 58.5 46.05 M-52.25 28.1 Q-57.0 21.65 -61.75 22.7 L-62.65 23.35 Q-67.95 27.75 -60.95 37.75 -50.65 49.55 -46.6 40.05 -50.4 32.95 -52.25 28.1 -55.45 11.95 -53.05 -3.4 M-46.6 40.05 Q-43.15 46.55 -38.0 52.5 L-38.0 52.55 -36.7 54.0 M-62.65 23.35 Q-68.15 8.2 -65.4 -5.15" fill="none" stroke="#123751" stroke-linecap="round" stroke-linejoin="round" stroke-width="2.0"/>
  </g>
</svg>
