<?xml version="1.0" encoding="UTF-8" standalone="no"?>
<svg xmlns:xlink="http://www.w3.org/1999/xlink" height="106.6px" width="153.95px" xmlns="http://www.w3.org/2000/svg">
  <g transform="matrix(1.0, 0.0, 0.0, 1.0, 77.0, 53.3)">
    <path d="M-66.65 0.95 Q-70.4 3.05 -77.0 4.15 -72.1 0.2 -66.05 -14.35 -60.05 -28.95 -46.65 -40.5 -30.05 -53.95 -4.15 -50.45 7.05 -56.15 30.3 -50.45 43.6 -46.6 56.7 -34.2 67.5 -22.7 76.95 -19.45 69.5 -16.7 64.05 -18.6 76.75 -2.75 74.25 19.35 71.75 41.35 60.15 52.25 64.6 35.25 63.35 6.95 63.3 0.0 60.25 -5.8 54.3 -10.4 51.9 -11.45 24.35 -23.4 -18.2 -23.15 L-21.65 -21.3 Q-30.6 -14.45 -31.5 1.9 L-35.8 4.3 Q-38.9 15.9 -38.35 25.8 -38.05 49.25 -35.15 53.3 -48.05 46.9 -52.5 35.9 -55.95 35.3 -58.85 38.1 L-59.85 39.1 Q-73.4 19.75 -66.65 0.95" fill="url(#gradient0)" fill-rule="evenodd" stroke="none"/>
  </g>
  <defs>
    <linearGradient gradientTransform="matrix(0.0, 0.0809, -0.094, 0.0, 0.0, 59.6)" gradientUnits="userSpaceOnUse" id="gradient0" spreadMethod="pad" x1="-819.2" x2="819.2">
      <stop offset="0.0" stop-color="#fff23c" stop-opacity="0.0"/>
      <stop offset="0.3803921568627451" stop-color="#fff23c" stop-opacity="0.84705883"/>
      <stop offset="0.6039215686274509" stop-color="#fff23c" stop-opacity="0.8"/>
      <stop offset="1.0" stop-color="#fff23c" stop-opacity="0.0"/>
    </linearGradient>
  </defs>
</svg>
