<?xml version="1.0" encoding="UTF-8" standalone="no"?>
<svg xmlns:xlink="http://www.w3.org/1999/xlink" height="120.0px" width="162.2px" xmlns="http://www.w3.org/2000/svg">
  <g transform="matrix(1.0, 0.0, 0.0, 1.0, 81.1, 60.0)">
    <path d="M-69.65 9.2 Q-73.4 14.75 -81.1 16.05 -76.05 10.6 -73.2 -3.6 -70.35 -17.75 -63.35 -31.65 -56.35 -45.6 -37.3 -54.8 -22.95 -60.0 -4.9 -59.55 9.05 -61.25 28.9 -56.8 48.7 -52.4 61.45 -34.15 66.75 -28.55 71.95 -17.45 77.1 -6.4 81.1 8.75 75.7 7.25 73.3 2.2 L73.35 2.55 73.35 2.8 73.95 9.35 Q75.1 30.9 68.15 44.65 61.2 58.35 44.9 57.3 53.45 49.75 56.6 42.9 53.15 45.9 47.15 47.75 56.35 36.75 60.0 13.2 59.7 5.2 56.95 -0.8 57.45 -15.2 50.9 -23.95 40.85 -29.9 19.25 -26.1 -5.8 -29.05 -21.75 -25.9 -37.05 -16.45 -34.8 4.3 -40.2 11.2 -40.8 16.05 -39.9 40.75 -32.55 49.7 -37.65 49.1 -41.45 47.05 -36.95 52.35 -26.2 58.85 -44.45 63.55 -57.5 49.3 -66.65 39.25 -69.75 26.4 -72.6 14.55 -69.65 9.2" fill="#00ccff" fill-rule="evenodd" stroke="none"/>
  </g>
</svg>
