<?xml version="1.0" encoding="UTF-8" standalone="no"?>
<svg xmlns:xlink="http://www.w3.org/1999/xlink" height="145.4px" width="176.35px" xmlns="http://www.w3.org/2000/svg">
  <g transform="matrix(1.0, 0.0, 0.0, 1.0, 88.15, 72.7)">
    <path d="M-15.15 -52.7 Q-8.7 -54.5 -3.8 -56.75 5.95 -61.25 9.85 -67.55 11.05 -69.55 11.7 -71.7 8.25 -69.4 3.8 -67.55 -3.6 -64.45 -13.7 -62.5 -27.25 -59.55 -33.75 -54.4 -41.2 -48.5 -41.85 -40.7 -45.9 -40.65 -52.05 -38.6 L-54.8 -37.55 -58.6 -35.6 Q-63.25 -32.85 -67.65 -28.4 L-68.2 -27.85 Q-72.45 -23.45 -76.5 -17.55 L-76.7 -17.35 Q-79.35 -13.45 -87.15 -12.2 -76.15 -6.65 -69.8 -9.2 L-68.75 -9.75 -67.25 -10.25 M-3.8 -56.75 Q6.7 -59.65 25.9 -54.85 32.1 -53.3 39.25 -50.95 49.0 -48.1 53.1 -47.45 L61.15 -46.3 Q65.1 -45.8 74.0 -46.05 68.05 -43.4 60.75 -42.75 L58.95 -42.65 48.1 -43.0 55.0 -38.6 58.95 -35.7 64.25 -31.25 67.25 -28.4 Q73.35 -22.45 78.55 -15.3 81.6 -10.2 85.15 -7.8 L87.2 -6.65 85.15 -7.2 Q74.4 -10.3 67.15 -18.45 71.75 -10.8 73.1 -0.15 L73.2 0.7 Q73.8 8.25 73.5 15.7 L73.4 17.9 72.65 27.35 72.6 27.85 72.4 28.5 Q71.0 50.35 64.55 59.1 66.25 49.05 66.1 38.25 L66.05 39.05 Q65.1 56.4 54.0 71.7 L57.7 31.2 Q59.1 24.25 59.4 18.35 59.7 12.4 58.55 7.05 L58.2 5.6 57.35 2.95 M58.2 5.6 L57.35 1.85 Q52.6 -17.45 44.0 -19.7 L42.85 -20.0 Q20.35 -23.6 17.3 -13.5 9.0 -24.75 -25.45 -22.95 L-27.75 -22.4 Q-31.45 -18.35 -32.6 -12.2 -33.8 -5.95 -33.2 3.05 L-35.7 9.55 Q-39.3 27.9 -36.6 39.35 -42.45 37.2 -45.45 26.85 -42.0 50.1 -39.25 58.7 -55.15 44.5 -55.6 30.6 -59.8 36.35 -64.3 40.1 -69.15 44.1 -74.35 45.8 -70.45 40.1 -67.65 34.5 -71.6 42.05 -82.7 42.65 -74.35 34.8 -71.1 25.3 -77.75 31.7 -85.1 32.65 -78.6 29.6 -76.75 13.3 -76.75 6.8 -73.2 -1.4 -71.7 -5.45 -69.8 -9.2 M63.9 -22.65 L67.15 -18.45 M48.1 -43.0 Q40.7 -43.9 32.35 -46.35 M-57.45 4.8 L-61.1 11.85 Q-62.0 22.6 -67.2 33.6 L-67.45 34.1 -67.65 34.5 M-55.6 30.6 Q-49.45 22.05 -44.05 9.1 M-71.1 25.3 Q-65.9 20.25 -61.1 11.85 M58.55 7.05 Q64.1 17.25 64.95 27.45 L65.95 38.05 66.05 39.05" fill="none" stroke="#000000" stroke-linecap="round" stroke-linejoin="round" stroke-width="2.0"/>
  </g>
</svg>
