<?xml version="1.0" encoding="UTF-8" standalone="no"?>
<svg xmlns:xlink="http://www.w3.org/1999/xlink" height="106.35px" width="149.5px" xmlns="http://www.w3.org/2000/svg">
  <g transform="matrix(1.0, 0.0, 0.0, 1.0, 74.75, 53.2)">
    <path d="M20.35 -40.5 Q29.2 -41.75 39.2 -39.2 49.2 -36.7 56.5 -38.65 54.85 -33.8 47.05 -31.55 59.0 -26.15 66.45 -11.7 71.35 -2.7 74.75 1.5 67.15 2.3 63.65 -5.1 71.1 11.9 70.25 28.9 L65.5 21.25 Q65.6 39.0 61.25 45.7 L60.15 29.8 Q62.9 18.25 59.2 4.55 59.2 8.85 57.0 10.2 54.8 4.9 47.1 -6.1 49.0 -1.15 49.3 4.1 46.0 -1.55 36.35 -7.7 38.45 -3.3 36.05 0.65 35.55 -3.9 25.6 -11.5 26.35 -4.4 22.8 0.65 L14.05 -11.3 Q13.75 -4.45 11.95 1.4 6.0 -6.35 5.05 -11.05 -1.0 -4.25 -2.9 2.5 -5.9 -4.55 -3.7 -10.8 -14.35 -1.95 -17.5 4.05 -19.25 -0.9 -16.45 -5.0 -27.5 5.55 -26.8 10.7 -31.05 7.7 -32.55 3.75 -30.6 15.6 -35.45 30.9 L-38.25 19.75 Q-38.65 34.85 -41.6 47.45 L-44.75 40.2 Q-46.25 45.3 -46.9 50.7 L-47.15 53.15 Q-51.15 48.4 -53.05 47.15 -56.2 45.6 -58.55 47.2 -64.95 33.85 -64.55 21.2 L-70.05 34.85 Q-71.95 10.05 -64.35 -1.45 -67.05 1.8 -74.75 3.25 -67.75 -8.2 -60.5 -17.8 -53.35 -27.45 -40.55 -31.75 -43.8 -36.15 -50.65 -40.5 -37.65 -40.15 -31.05 -34.9 -28.5 -44.9 -18.55 -53.2 -20.95 -46.85 -20.55 -39.95 -13.4 -44.6 0.1 -46.5 16.65 -47.3 29.45 -50.8 25.55 -43.85 20.35 -40.5" fill="url(#gradient0)" fill-rule="evenodd" stroke="none"/>
  </g>
  <defs>
    <linearGradient gradientTransform="matrix(0.0, 0.0844, -0.0912, 0.0, 0.0, 62.75)" gradientUnits="userSpaceOnUse" id="gradient0" spreadMethod="pad" x1="-819.2" x2="819.2">
      <stop offset="0.0" stop-color="#fff23c" stop-opacity="0.0"/>
      <stop offset="0.3803921568627451" stop-color="#fff23c" stop-opacity="0.84705883"/>
      <stop offset="0.6039215686274509" stop-color="#fff23c" stop-opacity="0.8"/>
      <stop offset="1.0" stop-color="#fff23c" stop-opacity="0.0"/>
    </linearGradient>
  </defs>
</svg>
