<?xml version="1.0" encoding="UTF-8" standalone="no"?>
<svg xmlns:xlink="http://www.w3.org/1999/xlink" height="141.0px" width="163.4px" xmlns="http://www.w3.org/2000/svg">
  <g transform="matrix(1.0, 0.0, 0.0, 1.0, 81.7, 70.5)">
    <path d="M-36.25 29.85 Q-34.9 38.9 -24.9 55.2 -19.0 64.55 -8.65 69.5 -34.2 41.7 -29.45 -9.7 -21.8 -37.0 24.65 -22.1 57.75 -35.6 63.65 -20.0 68.9 -3.05 64.6 28.55 65.85 34.0 65.9 38.55 66.0 46.85 61.9 52.05 L60.55 54.05 53.65 63.85 Q59.9 60.25 65.65 53.1 68.35 50.1 70.2 45.45 77.7 26.75 71.5 -18.65 L71.45 -19.1 71.35 -19.6 70.75 -22.7 Q69.7 -28.75 65.25 -33.9 M70.75 -22.7 L79.95 3.8 Q77.5 -28.7 63.9 -40.2 70.35 -38.1 80.7 -42.7 71.8 -41.9 65.65 -46.25 30.0 -75.95 -7.15 -67.75 -25.0 -69.15 -55.95 -43.0 -68.7 -28.65 -80.7 -31.2 -78.4 -28.1 -71.85 -28.05 -64.9 -27.85 -59.4 -33.95 -56.55 -37.65 -53.0 -40.7 M60.55 54.05 Q55.15 61.0 48.1 63.85 53.3 58.0 55.0 52.1 61.75 47.9 65.9 38.55 M-60.9 -15.7 Q-66.7 -8.9 -68.2 -0.2 L-68.6 2.8 Q-69.5 13.35 -69.4 21.65 -69.35 29.9 -75.0 39.25 -63.2 33.0 -60.3 20.95 L-59.7 17.55 -59.05 14.15 M-47.05 20.75 Q-49.6 18.95 -52.15 19.75 -55.35 19.6 -56.8 24.55 -56.75 29.15 -53.7 33.75 -50.7 38.35 -47.95 40.45 -43.6 43.85 -41.1 40.35 -44.6 32.85 -47.05 20.75 -51.0 1.05 -48.7 -15.45 M-60.3 20.95 Q-61.1 29.2 -55.7 39.55 -52.7 44.75 -51.45 49.8 -50.2 54.8 -50.9 61.25 -46.75 60.05 -45.6 49.65 L-45.3 45.3 M-45.6 49.65 Q-41.3 58.85 -33.2 62.3 -35.9 55.0 -35.25 51.55 -37.8 47.45 -41.1 40.35 M-35.25 51.55 Q-29.15 61.35 -18.3 68.75 L-24.9 55.2 M-59.4 -33.95 Q-77.85 -12.45 -73.7 17.2 -72.55 10.1 -68.2 -0.2" fill="none" stroke="#000000" stroke-linecap="round" stroke-linejoin="round" stroke-width="2.0"/>
  </g>
</svg>
