<?xml version="1.0" encoding="UTF-8" standalone="no"?>
<svg xmlns:xlink="http://www.w3.org/1999/xlink" height="170.85px" width="193.8px" xmlns="http://www.w3.org/2000/svg">
  <g transform="matrix(1.0, 0.0, 0.0, 1.0, 96.9, 85.45)">
    <path d="M46.4 -29.25 Q51.45 -29.55 55.85 -30.7 72.7 -35.25 80.55 -52.6 59.95 -38.9 45.65 -43.8 31.35 -48.7 22.5 -45.75 20.0 -43.5 17.25 -41.5 M55.85 -30.7 Q60.5 -29.2 74.4 -19.1 88.3 -9.05 95.9 -13.05 84.7 -1.3 67.95 -7.5 82.85 9.15 85.45 44.75 L75.5 27.1 Q79.8 47.75 73.95 63.0 L70.35 42.45 Q68.5 69.25 48.75 79.9 54.5 72.45 58.25 54.15 56.3 57.5 53.55 60.15 61.35 39.0 56.45 8.2 L53.9 5.05 Q53.8 -1.9 49.75 -6.45 42.15 -9.25 34.7 -9.75 27.2 -10.25 21.4 -7.85 -7.5 -15.0 -26.45 -5.15 -30.65 0.6 -29.95 6.65 -34.9 11.35 -36.0 16.25 -39.2 51.05 -30.65 65.5 -38.0 61.2 -41.85 53.95 -35.05 72.7 -29.5 80.45 -35.3 76.75 -40.05 72.5 -33.85 78.45 -34.7 84.4 L-47.3 75.35 Q-51.2 72.55 -52.2 70.5 L-50.95 77.0 Q-63.75 64.2 -68.3 52.65 -70.05 60.35 -72.75 64.75 -75.65 48.1 -76.7 39.9 -77.75 31.65 -74.5 25.25 -82.8 32.0 -88.1 40.2 -84.1 16.55 -70.4 -2.9 -80.4 1.9 -95.9 -1.65 -79.75 -6.1 -69.6 -18.15 -59.45 -30.25 -51.55 -34.7 -64.85 -41.0 -71.3 -56.85 -54.8 -42.7 -35.65 -39.4 -46.3 -45.25 -42.2 -63.35 -36.3 -52.05 -25.25 -43.25 -22.5 -50.3 -9.2 -56.7 4.05 -63.1 16.1 -81.0 13.7 -60.45 0.95 -47.1 27.6 -58.4 44.1 -84.45 38.35 -60.05 22.5 -45.75 M67.95 -7.5 Q66.3 -8.1 64.6 -8.9 M70.35 42.45 Q70.6 38.3 70.45 33.7 M69.9 17.45 L75.5 27.1 M58.25 54.15 Q64.15 44.05 62.5 27.65 M-51.55 -34.7 Q-50.95 -34.4 -49.45 -33.85 M-70.4 -2.9 Q-65.1 -5.5 -61.35 -10.45 M-20.3 -39.6 L-25.25 -43.25 M-35.65 -39.4 L-34.8 -38.95 Q-33.1 -38.2 -31.05 -37.65 M-74.5 25.25 L-70.0 21.8 M-40.05 72.5 L-41.3 71.4 Q-45.15 67.8 -48.35 63.75 -53.5 66.1 -59.8 60.7 -67.0 54.4 -65.15 48.05 -63.95 43.1 -59.35 42.95 -60.85 38.3 -61.75 33.3 M-41.85 53.95 L-43.15 51.1 -43.3 50.7 Q-46.35 43.05 -46.05 32.55 M-53.1 66.0 L-52.55 68.8 -52.55 68.85 -52.2 70.5 M-48.35 63.75 Q-55.7 54.45 -59.35 42.95 M-68.3 52.65 Q-66.8 46.0 -66.0 36.85 M0.95 -47.1 Q-1.95 -44.15 -5.35 -41.5" fill="none" stroke="#123751" stroke-linecap="round" stroke-linejoin="round" stroke-width="2.0"/>
  </g>
</svg>
