<?xml version="1.0" encoding="UTF-8" standalone="no"?>
<svg xmlns:xlink="http://www.w3.org/1999/xlink" height="155.2px" width="174.15px" xmlns="http://www.w3.org/2000/svg">
  <g transform="matrix(1.0, 0.0, 0.0, 1.0, 87.05, 77.6)">
    <path d="M-12.1 -51.85 Q-1.15 -56.35 7.45 -60.5 16.0 -64.65 22.3 -74.4 21.45 -59.05 11.4 -49.05 20.15 -52.4 34.75 -50.35 53.5 -49.9 70.75 -58.85 59.15 -36.0 37.1 -31.95 46.7 -32.1 58.6 -24.3 72.65 -17.1 86.1 -17.95 73.8 -11.35 63.3 -10.95 76.65 7.6 75.3 43.85 72.05 30.25 66.55 19.4 74.05 40.65 57.65 61.5 L59.6 51.35 Q54.05 64.55 40.9 74.4 50.3 58.6 53.45 34.55 53.8 17.75 51.05 4.85 52.1 -3.05 48.65 -9.8 38.15 -20.45 16.85 -14.9 -16.75 -23.75 -29.9 -14.0 -35.85 -4.8 -34.7 4.25 -40.75 11.35 -43.3 21.1 -46.65 62.15 -33.7 76.6 -38.5 73.15 -42.6 69.15 -57.3 65.55 -63.0 56.75 L-59.7 66.5 Q-80.7 50.45 -79.7 31.6 -83.4 41.4 -84.25 51.35 -90.0 7.65 -71.6 -10.5 -81.45 -8.9 -86.05 -2.85 -82.25 -21.55 -62.6 -27.05 -74.75 -28.8 -81.4 -40.1 -69.7 -35.95 -48.7 -44.2 -37.95 -47.95 -29.75 -47.6 -44.5 -53.65 -45.3 -71.5 -39.85 -60.7 -21.1 -50.8 -25.95 -62.8 -19.65 -76.6 -20.85 -59.65 -12.1 -51.85 L-10.95 -50.9 M11.4 -49.05 L6.75 -45.4 M37.1 -31.95 L35.9 -31.75 M63.3 -10.95 L57.0 -11.35 M-71.6 -10.5 L-68.75 -10.85 M-62.6 -27.05 L-59.0 -26.75 M-29.75 -47.6 L-26.85 -46.6 M-18.55 -49.5 L-21.1 -50.8 M-42.6 69.15 Q-47.95 63.9 -52.05 57.75 -57.3 59.45 -63.2 53.65 -67.8 48.35 -68.0 44.8 -68.55 41.1 -67.55 39.35 -64.9 34.4 -61.55 37.2 -63.7 29.9 -64.75 21.7 M-79.7 31.6 Q-76.85 24.1 -72.35 16.65 M-43.1 18.45 L-43.3 21.1 M-52.05 57.75 Q-58.15 48.55 -61.55 37.2 M66.55 19.4 Q64.6 15.55 62.4 12.05 M59.6 51.35 Q63.9 41.1 63.6 28.85" fill="none" stroke="#000000" stroke-linecap="round" stroke-linejoin="round" stroke-width="2.0"/>
  </g>
</svg>
