<?xml version="1.0" encoding="UTF-8" standalone="no"?>
<svg xmlns:xlink="http://www.w3.org/1999/xlink" height="168.1px" width="181.85px" xmlns="http://www.w3.org/2000/svg">
  <g transform="matrix(1.0, 0.0, 0.0, 1.0, 90.95, 84.05)">
    <path d="M0.2 -55.3 Q2.7 -60.45 6.95 -67.55 11.2 -74.65 12.25 -84.05 24.6 -65.05 26.3 -47.85 L25.55 -69.8 Q32.9 -60.25 34.25 -51.65 34.5 -59.45 31.8 -71.05 46.4 -52.7 46.95 -34.4 49.15 -46.9 47.35 -61.75 61.3 -37.5 59.85 -20.5 63.3 -29.7 63.6 -39.45 71.9 -16.1 65.8 -5.15 78.35 -9.15 82.35 -16.4 80.85 -4.3 72.75 5.95 82.1 3.9 88.4 -0.85 86.95 15.0 73.6 19.9 82.7 22.55 90.9 22.95 85.25 31.45 74.35 34.2 80.15 37.95 90.9 41.7 85.25 48.25 75.35 52.25 79.2 57.65 87.15 62.25 83.45 67.85 74.85 68.5 75.65 72.6 78.85 76.05 70.65 76.4 68.6 72.65 67.05 62.7 68.6 54.25 L68.85 52.0 66.15 41.95 67.35 39.7 63.9 32.15 65.35 30.45 59.85 18.65 64.45 19.85 62.35 13.4 57.55 16.9 59.75 9.75 52.2 14.2 52.2 7.15 43.1 13.05 44.45 5.2 34.25 10.95 33.7 4.0 22.6 10.8 22.6 2.8 11.8 10.15 10.5 3.3 0.6 11.8 0.6 4.75 -8.65 13.25 -8.05 5.65 -16.7 13.65 -15.3 6.4 -26.6 15.4 -20.35 13.4 -30.6 23.45 -22.1 21.2 -33.1 35.7 -26.35 31.7 -33.9 44.3 -27.35 38.95 -34.55 54.4 -28.35 48.0 -34.1 67.25 Q-34.9 75.5 -32.85 77.95 L-39.95 69.8 Q-42.4 65.55 -46.65 62.0 -51.1 59.15 -53.55 63.0 -56.95 71.1 -51.6 75.8 -62.75 73.8 -72.4 84.05 -71.75 73.3 -65.35 64.15 -71.85 66.7 -78.4 63.75 L-66.05 56.8 Q-82.25 55.4 -90.95 46.95 -84.2 46.05 -77.85 42.2 -71.5 38.3 -66.95 37.7 -82.5 32.75 -85.95 18.4 -80.4 20.5 -68.75 20.85 -75.6 19.65 -77.4 14.4 -72.8 16.25 -63.4 14.95 -75.7 13.05 -77.65 -5.4 -73.5 -1.6 -61.8 -0.3 -65.95 -12.8 -61.4 -27.2 -60.25 -21.2 -55.2 -16.1 -48.9 -37.75 -29.55 -57.0 -34.75 -44.65 -36.65 -32.3 -30.3 -50.05 -13.55 -67.8 -16.3 -55.1 -16.6 -46.45 -13.95 -59.1 0.25 -72.8 -1.0 -63.5 0.1 -55.9 L0.2 -55.3" fill="#d74545" fill-rule="evenodd" stroke="none"/>
  </g>
</svg>
