<?xml version="1.0" encoding="UTF-8" standalone="no"?>
<svg xmlns:xlink="http://www.w3.org/1999/xlink" height="165.75px" width="191.35px" xmlns="http://www.w3.org/2000/svg">
  <g transform="matrix(1.0, 0.0, 0.0, 1.0, 95.7, 82.85)">
    <path d="M-54.2 61.9 L-54.8 62.1 -54.4 60.35 -54.2 61.9" fill="#8ef7aa" fill-rule="evenodd" stroke="none"/>
    <path d="M-54.8 62.1 Q-80.15 70.15 -92.05 52.1 L-94.7 47.45 Q-88.05 52.2 -81.4 53.3 -72.35 54.9 -63.25 49.95 L-63.9 50.1 Q-74.95 51.9 -81.45 47.8 L-80.55 47.55 Q-76.15 46.35 -71.5 43.5 -83.55 43.9 -90.9 38.3 L-84.8 37.6 -83.6 37.45 Q-75.05 35.9 -66.95 31.65 -77.4 34.75 -82.7 32.6 L-81.8 32.1 Q-73.35 26.9 -68.55 19.65 -66.65 17.0 -65.4 14.1 -79.15 20.05 -89.15 17.2 -90.85 16.75 -92.45 15.95 -81.6 16.4 -73.0 12.5 L-83.95 10.55 Q-73.65 8.5 -69.15 3.75 -65.1 -2.35 -60.9 -7.25 L-59.7 -8.55 Q-75.45 -8.8 -90.3 -20.7 -85.7 -19.4 -81.9 -18.6 -68.65 -15.85 -63.75 -19.1 L-37.7 -40.2 Q-52.1 -36.2 -67.9 -24.25 -62.45 -31.6 -56.45 -36.8 -40.7 -50.25 -21.35 -48.7 L-30.4 -52.3 -18.45 -56.15 Q-10.0 -58.55 -2.35 -55.65 -12.15 -63.15 -17.95 -73.85 -19.5 -76.5 -20.7 -79.4 -6.65 -67.8 13.5 -62.2 37.0 -56.75 43.85 -46.9 42.25 -60.45 48.55 -71.15 52.2 -77.45 61.0 -81.85 50.15 -51.85 59.4 -39.5 L63.45 -35.75 66.3 -32.95 Q64.0 -39.45 67.9 -46.7 68.45 -34.95 79.5 -17.5 82.25 -13.2 85.45 -6.65 88.55 -0.15 86.95 4.8 92.4 5.7 94.65 3.45 92.8 8.35 89.45 11.25 L86.8 13.1 Q86.45 17.85 84.15 27.25 81.8 36.65 73.9 49.7 74.95 44.6 74.85 34.9 74.75 25.2 75.5 20.1 L76.1 14.75 75.7 11.65 75.6 11.15 Q74.85 7.4 73.45 3.85 L73.4 3.75 73.25 -2.25 M-2.35 -55.65 Q3.85 -50.75 11.8 -47.25 18.3 -44.3 22.35 -39.55 L23.45 -38.3 M72.8 -2.25 L71.45 -5.1 Q68.25 -6.85 65.05 -6.0 L67.85 -9.3 Q59.2 -9.1 55.05 -7.75 L59.7 -12.2 Q51.55 -12.4 45.3 -9.5 L45.0 -9.3 45.95 -14.3 37.35 -7.85 36.85 -7.55 Q36.0 -9.25 34.25 -10.8 L30.55 -13.3 Q27.05 -15.25 21.85 -16.95 L24.35 -10.15 Q18.6 -14.0 8.4 -17.2 L11.8 -11.4 Q3.4 -15.6 -5.35 -15.55 L1.55 -11.4 Q-6.5 -12.85 -12.35 -12.3 L-14.85 -9.85 -15.2 -9.1 Q-16.7 -5.75 -16.4 -1.25 -19.0 4.45 -20.45 11.2 -21.8 15.35 -22.3 19.8 -23.5 32.75 -18.45 48.1 L-17.45 50.9 -16.6 53.25 -14.75 57.65 -17.85 54.45 Q-21.25 50.6 -23.45 46.5 -20.95 58.15 -17.15 61.45 -29.7 59.2 -34.35 48.0 -35.7 43.05 -35.8 37.0 -37.35 34.7 -42.15 31.9 -45.2 38.55 -46.55 44.95 -47.25 49.35 -41.9 54.0 -43.0 56.35 -47.55 58.4 -46.25 71.05 -33.9 81.9 -40.75 79.5 -45.15 76.1 -53.45 69.65 -54.2 61.9 L-54.8 62.1 -54.4 60.35 Q-57.1 39.25 -45.55 22.6 -36.05 12.4 -34.85 10.35 M54.15 -32.25 Q51.2 -39.2 43.85 -46.9 M66.3 -32.95 Q71.8 -26.05 72.65 -20.4 M86.95 4.8 L86.35 4.35 Q77.95 -1.85 77.25 -6.75 M86.8 13.1 Q84.9 14.1 83.2 14.1 M-48.4 -18.9 Q-54.15 -14.75 -59.7 -8.55 M-37.05 -40.3 L-37.7 -40.2 M-21.35 -48.7 L-13.75 -47.85 M-16.5 -30.25 Q-28.85 -30.15 -43.75 -22.6 M-23.45 46.5 L-25.1 43.05 M-31.35 -2.8 L-36.5 4.95 -37.65 6.6 Q-42.6 13.75 -47.3 19.65 L-47.45 19.8 -52.8 26.25 Q-62.65 37.95 -71.5 43.5 M-30.4 11.5 L-34.85 18.95 Q-39.25 25.55 -42.15 31.9 M-35.8 37.0 Q-36.65 29.55 -34.55 22.15 M-73.0 12.5 Q-67.05 9.9 -62.25 5.2 M-65.4 14.1 Q-59.65 5.9 -47.7 0.35 M-66.95 31.65 Q-57.05 27.65 -53.1 19.3 M-46.55 44.95 Q-47.65 50.05 -47.7 55.05 L-47.55 58.4 M-54.4 60.35 L-54.2 61.9 M12.35 -35.35 Q10.35 -40.1 -11.15 -44.7" fill="none" stroke="#000000" stroke-linecap="round" stroke-linejoin="round" stroke-width="2.0"/>
  </g>
</svg>
