<?xml version="1.0" encoding="UTF-8" standalone="no"?>
<svg xmlns:xlink="http://www.w3.org/1999/xlink" height="127.1px" width="171.05px" xmlns="http://www.w3.org/2000/svg">
  <g transform="matrix(1.0, 0.0, 0.0, 1.0, 85.55, 63.55)">
    <path d="M76.0 -55.4 Q76.15 -47.6 74.5 -39.65 L73.25 -34.4 Q72.25 -30.75 70.85 -27.1 L68.2 -20.7 66.4 -16.95 Q68.05 -14.15 69.5 -10.85 75.4 5.55 85.5 12.3 77.7 13.05 72.1 9.45 78.05 22.85 70.15 34.15 73.2 41.45 80.15 48.55 70.35 47.25 68.2 41.9 68.8 52.7 60.7 61.0 60.5 60.35 61.1 54.65 58.9 57.7 53.85 61.9 59.85 50.1 58.75 25.1 58.25 15.25 56.65 10.0 56.15 -11.4 46.75 -13.85 L45.6 -14.15 Q23.1 -17.75 20.05 -7.65 11.75 -18.9 -22.7 -17.1 L-25.0 -16.55 Q-32.5 -8.35 -29.55 8.4 -31.3 9.45 -33.75 18.0 -36.25 26.5 -31.0 42.3 -25.75 58.05 -21.45 63.55 -31.95 59.1 -39.1 48.3 -36.9 57.8 -34.15 61.95 -45.7 56.0 -52.6 38.85 -56.15 33.2 -60.35 37.85 -63.45 42.5 -61.45 47.65 -65.25 40.15 -66.45 30.45 -69.85 37.85 -81.35 41.6 -76.35 35.6 -74.3 21.75 -73.45 12.2 -71.1 6.65 -75.05 12.75 -85.55 15.8 -76.25 10.4 -71.45 -4.3 -66.7 -16.3 -60.6 -21.25 -68.65 -15.55 -78.1 -17.95 -70.3 -19.35 -61.85 -29.25 L-59.95 -31.35 Q-60.2 -39.75 -57.7 -48.95 L-57.45 -49.85 Q-55.6 -56.35 -52.4 -63.2 -44.5 -60.9 -34.1 -55.55 -30.05 -53.5 -26.65 -50.9 -14.5 -53.15 -4.75 -48.65 -2.8 -55.45 10.15 -58.2 23.1 -60.95 33.15 -63.55 28.7 -53.25 21.35 -49.45 29.7 -50.55 41.5 -45.25 L42.15 -44.9 Q49.15 -49.15 58.15 -51.75 70.0 -55.2 76.0 -55.4 M68.8 -46.45 L68.8 -46.55 68.15 -46.35 Q61.1 -44.15 55.15 -39.65 L55.05 -39.55 Q61.95 -37.5 68.4 -37.4 L68.7 -39.65 Q69.1 -43.15 68.8 -46.45 M65.4 -27.1 L67.6 -33.6 Q63.0 -30.15 55.5 -29.05 L54.25 -28.9 57.5 -26.9 Q60.45 -24.8 63.0 -21.75 L65.4 -27.1 M-49.25 -42.2 L-49.75 -39.25 Q-50.95 -30.45 -48.3 -19.7 -35.2 -22.75 -25.8 -35.45 -29.55 -40.55 -36.3 -44.35 -39.85 -46.4 -42.65 -47.6 L-47.0 -49.05 -47.6 -47.6 Q-48.65 -45.0 -49.25 -42.2" fill="#8ef7aa" fill-rule="evenodd" stroke="none"/>
  </g>
</svg>
