<?xml version="1.0" encoding="UTF-8" standalone="no"?>
<svg xmlns:xlink="http://www.w3.org/1999/xlink" height="106.35px" width="152.45px" xmlns="http://www.w3.org/2000/svg">
  <g transform="matrix(1.0, 0.0, 0.0, 1.0, 76.2, 53.2)">
    <path d="M37.75 -39.2 Q40.55 -38.5 43.15 -38.15 49.9 -42.1 58.4 -44.55 70.25 -48.0 76.25 -48.2 76.4 -40.4 74.75 -32.45 L73.5 -27.2 Q72.5 -23.55 71.1 -19.9 L68.45 -13.5 66.4 -9.2 Q70.4 -2.1 73.3 1.5 65.7 2.3 62.2 -5.1 69.65 11.9 68.8 28.9 L64.05 21.25 Q64.15 39.0 59.8 45.7 L58.7 29.8 Q61.45 18.25 57.75 4.55 57.75 8.85 55.55 10.2 53.35 4.9 45.65 -6.1 47.55 -1.15 47.85 4.1 44.55 -1.55 34.9 -7.7 37.0 -3.3 34.6 0.65 34.1 -3.9 24.15 -11.5 24.9 -4.4 21.35 0.65 L12.6 -11.3 Q12.3 -4.45 10.5 1.4 4.55 -6.35 3.6 -11.05 -2.45 -4.25 -4.35 2.5 -7.35 -4.55 -5.15 -10.8 -15.8 -1.95 -18.95 4.05 -20.7 -0.9 -17.9 -5.0 -28.95 5.55 -28.25 10.7 -32.5 7.7 -34.0 3.75 -32.05 15.6 -36.9 30.9 L-39.7 19.75 Q-40.1 34.85 -43.05 47.45 L-46.2 40.2 Q-47.7 45.3 -48.35 50.7 L-48.6 53.15 Q-52.6 48.4 -54.5 47.15 -57.65 45.6 -60.0 47.2 -66.4 33.85 -66.0 21.2 L-71.5 34.85 Q-73.4 10.05 -65.8 -1.45 -68.5 1.8 -76.2 3.25 -69.2 -8.2 -61.95 -17.8 L-61.15 -18.8 Q-62.35 -34.5 -53.7 -52.95 -45.8 -50.65 -35.4 -45.3 -32.35 -43.75 -29.7 -41.9 -26.35 -47.9 -20.0 -53.2 -22.4 -46.85 -22.0 -39.95 -14.85 -44.6 -1.35 -46.5 15.2 -47.3 28.0 -50.8 24.1 -43.85 18.9 -40.5 27.75 -41.75 37.75 -39.2 M69.05 -39.35 L68.4 -39.15 Q61.35 -36.95 55.4 -32.45 L53.1 -30.6 50.9 -28.55 Q58.1 -23.6 63.35 -14.7 L65.65 -19.9 Q67.15 -23.65 68.05 -27.2 L68.95 -32.45 Q69.35 -35.95 69.05 -39.25 L69.05 -39.35 M-48.6 -38.1 Q-50.7 -33.2 -51.25 -27.5 -52.05 -19.3 -49.6 -9.45 -36.5 -12.5 -27.1 -25.2 -30.85 -30.3 -37.6 -34.1 -44.3 -37.95 -48.3 -38.8 L-48.6 -38.1" fill="url(#gradient0)" fill-rule="evenodd" stroke="none"/>
  </g>
  <defs>
    <linearGradient gradientTransform="matrix(0.0, 0.0897, -0.093, 0.0, 0.05, 60.5)" gradientUnits="userSpaceOnUse" id="gradient0" spreadMethod="pad" x1="-819.2" x2="819.2">
      <stop offset="0.0" stop-color="#fff23c" stop-opacity="0.0"/>
      <stop offset="0.3803921568627451" stop-color="#fff23c" stop-opacity="0.84705883"/>
      <stop offset="0.6039215686274509" stop-color="#fff23c" stop-opacity="0.8"/>
      <stop offset="1.0" stop-color="#fff23c" stop-opacity="0.0"/>
    </linearGradient>
  </defs>
</svg>
