<?xml version="1.0" encoding="UTF-8" standalone="no"?>
<svg xmlns:xlink="http://www.w3.org/1999/xlink" height="124.05px" width="171.15px" xmlns="http://www.w3.org/2000/svg">
  <g transform="matrix(1.0, 0.0, 0.0, 1.0, 85.55, 62.05)">
    <path d="M73.6 -55.8 Q73.75 -48.0 72.1 -40.05 L70.85 -34.8 68.65 -28.0 Q79.15 -24.0 85.6 -25.55 76.15 -17.75 65.35 -20.1 63.1 -20.6 60.8 -21.55 L64.45 -18.2 Q77.6 -4.5 81.65 27.05 L69.6 4.5 69.85 5.15 Q71.7 10.25 72.65 15.1 77.65 40.9 57.45 60.7 L60.35 50.55 Q57.7 56.0 52.4 58.75 59.1 47.35 57.75 19.85 56.2 4.1 52.05 -0.95 48.15 -3.75 40.8 -6.55 3.05 -18.3 -23.85 -12.15 -32.5 1.5 -33.3 16.6 L-35.3 19.55 Q-38.3 43.8 -33.65 58.1 -40.6 50.9 -44.25 41.65 -42.85 57.6 -44.0 62.0 -46.2 59.1 -48.0 55.65 -52.0 48.0 -54.25 37.7 -59.95 46.25 -61.8 54.0 -62.8 57.95 -62.75 61.7 -67.7 46.7 -67.05 33.05 -67.9 36.8 -70.8 41.4 -73.75 46.0 -78.15 48.45 -76.4 42.55 -75.75 33.4 -75.15 24.2 -72.35 17.4 -76.65 22.9 -85.55 24.85 -80.7 23.55 -74.5 4.0 -70.0 -10.3 -62.35 -20.45 -66.85 -39.05 -56.1 -62.05 -48.2 -59.75 -37.8 -54.4 -28.95 -49.9 -23.0 -42.65 L-21.1 -43.0 Q-13.65 -50.7 6.2 -48.7 22.3 -48.2 36.65 -43.25 44.7 -49.0 55.75 -52.15 67.6 -55.6 73.6 -55.8 M63.95 -30.0 L65.4 -34.8 66.3 -40.05 Q66.7 -43.55 66.4 -46.85 L66.4 -46.95 65.75 -46.75 Q58.7 -44.55 52.75 -40.05 L50.45 -38.2 49.8 -37.6 53.65 -35.45 Q59.15 -32.25 63.95 -30.0 M-53.75 -29.75 Q-53.45 -24.45 -52.0 -18.55 -38.9 -21.6 -29.5 -34.3 -31.7 -37.25 -34.85 -39.8 L-40.0 -43.2 Q-46.7 -47.05 -50.7 -47.9 -54.35 -39.9 -53.75 -29.75" fill="#8ef7aa" fill-rule="evenodd" stroke="none"/>
  </g>
</svg>
