<?xml version="1.0" encoding="UTF-8" standalone="no"?>
<svg xmlns:xlink="http://www.w3.org/1999/xlink" height="120.75px" width="132.4px" xmlns="http://www.w3.org/2000/svg">
  <g transform="matrix(1.0, 0.0, 0.0, 1.0, 66.2, 60.5)">
    <path d="M60.5 -43.6 L58.4 -43.0 Q58.65 -39.9 58.3 -36.55 L57.45 -31.6 Q56.6 -28.2 55.15 -24.65 L53.6 -21.1 57.4 -17.65 57.8 -18.6 60.35 -24.65 62.6 -31.6 63.8 -36.55 Q65.35 -44.1 65.2 -51.5 59.55 -51.35 48.3 -48.05 37.35 -44.9 29.45 -39.1 L30.05 -38.95 Q37.65 -36.55 44.55 -35.85 L45.45 -36.55 Q51.1 -40.85 57.75 -42.95 L58.4 -43.1 58.4 -43.0 57.75 -42.95 M57.4 -17.65 L61.95 -12.85 57.45 -14.65 Q62.0 -3.95 58.3 6.85 57.0 -2.1 50.95 -7.85 36.4 -13.75 15.05 -14.85 -6.4 -15.35 -26.5 -8.2 -27.9 -7.05 -28.8 -5.1 -31.45 1.3 -32.3 6.4 -33.5 4.35 -33.25 0.95 L-34.95 7.75 -35.7 4.8 Q-39.3 11.5 -41.25 21.75 -43.55 33.9 -40.4 45.9 L-46.95 55.5 -53.45 43.8 -60.95 40.35 Q-70.8 10.15 -57.85 -10.75 L-62.4 -6.55 Q-60.7 -12.5 -56.1 -18.4 -61.25 -36.7 -50.6 -59.5 -43.1 -57.35 -33.25 -52.25 -26.15 -48.65 -21.0 -43.15 L-18.95 -43.95 Q-6.55 -48.15 -0.25 -51.4 -1.4 -46.5 -8.2 -43.45 4.1 -44.1 16.7 -42.3 21.9 -41.5 29.45 -39.1 M37.75 -33.3 L35.85 -33.15 Q39.6 -31.2 43.1 -28.95 L39.95 -31.65 37.75 -33.3 Q41.0 -33.75 43.25 -34.75 L45.0 -35.8 44.55 -35.85 M57.45 -14.65 L52.95 -16.5 M43.1 -28.95 Q48.65 -25.45 53.6 -21.1 M43.25 -34.75 L39.95 -31.65 M-56.1 -18.4 L-54.15 -12.95 M-48.15 -26.5 Q-47.75 -22.6 -46.7 -18.35 -34.3 -21.25 -25.4 -33.25 -27.55 -36.15 -30.7 -38.6 -32.8 -40.25 -35.35 -41.7 -41.7 -45.3 -45.5 -46.1 -49.4 -37.6 -48.15 -26.5 M-17.35 -38.65 Q-19.05 -41.05 -21.0 -43.15 M-57.85 -10.75 Q-47.65 -9.1 -37.0 -0.05 L-36.75 0.9 -37.7 -4.75 M-36.75 0.9 L-35.7 4.8" fill="none" stroke="#000000" stroke-linecap="round" stroke-linejoin="round" stroke-width="2.0"/>
    <path d="M-46.1 57.8 L-39.6 49.8 -39.05 52.3 -44.95 59.5 -46.1 57.8" fill="none" stroke="#000000" stroke-linecap="round" stroke-linejoin="round" stroke-width="1.5"/>
  </g>
</svg>
