<?xml version="1.0" encoding="UTF-8" standalone="no"?>
<svg xmlns:xlink="http://www.w3.org/1999/xlink" height="108.75px" width="149.5px" xmlns="http://www.w3.org/2000/svg">
  <g transform="matrix(1.0, 0.0, 0.0, 1.0, 74.75, 54.4)">
    <path d="M73.65 -54.2 Q73.25 -47.8 72.5 -42.5 71.8 -37.95 70.8 -34.2 L69.55 -30.1 66.35 -20.55 66.2 -20.0 64.3 -14.35 66.45 -10.5 69.3 -5.5 Q72.4 -0.25 74.75 2.7 68.25 3.4 64.75 -1.95 L64.5 -1.95 Q71.05 14.1 70.25 30.1 L65.5 22.45 Q65.6 40.2 61.25 46.9 L60.15 31.0 Q62.9 19.45 59.2 5.75 59.2 10.05 57.0 11.4 54.8 6.1 47.1 -4.9 49.0 0.05 49.3 5.3 46.0 -0.35 36.35 -6.5 38.45 -2.1 36.05 1.85 35.55 -2.7 25.6 -10.3 26.35 -3.2 22.8 1.85 L14.05 -10.1 Q13.75 -3.25 11.95 2.6 6.0 -5.15 5.05 -9.85 -1.0 -3.05 -2.9 3.7 -5.9 -3.35 -3.7 -9.6 -14.35 -0.75 -17.5 5.25 -19.25 0.3 -16.45 -3.8 -27.5 6.75 -26.8 11.9 -31.05 8.9 -32.55 4.95 -30.6 16.8 -35.45 32.1 L-38.25 20.95 Q-38.65 36.05 -41.6 48.65 L-44.75 41.4 Q-46.25 46.5 -46.9 51.9 L-47.15 54.35 Q-51.15 49.6 -53.05 48.35 -56.2 46.8 -58.55 48.4 -64.95 35.05 -64.55 22.4 L-70.05 36.05 Q-71.95 11.25 -64.35 -0.25 -67.05 3.0 -74.75 4.45 -70.05 -3.25 -65.2 -10.15 L-67.0 -15.8 Q-70.15 -26.8 -70.75 -37.65 -71.4 -48.6 -69.45 -54.4 -66.0 -53.25 -44.65 -48.55 -34.25 -46.25 -26.8 -43.0 -23.65 -47.75 -18.55 -52.0 -20.75 -46.15 -20.6 -39.85 L-19.65 -39.3 Q-12.6 -43.5 0.1 -45.3 16.65 -46.1 29.45 -49.6 25.55 -42.65 20.35 -39.3 25.45 -40.0 30.9 -39.45 39.85 -46.15 56.8 -50.3 L73.65 -54.2 M-45.45 -28.9 Q-58.6 -38.9 -64.85 -45.6 -63.8 -31.4 -59.0 -18.45 L-58.35 -16.65 -60.35 -14.4 -57.75 -14.9 -55.15 -9.3 -57.25 -5.2 -53.05 -5.8 Q-47.6 -6.25 -40.95 -11.3 -33.1 -17.45 -32.9 -19.6 L-45.2 -28.7 -45.45 -28.9" fill="#8ef7aa" fill-rule="evenodd" stroke="none"/>
  </g>
</svg>
