<?xml version="1.0" encoding="UTF-8" standalone="no"?>
<svg xmlns:xlink="http://www.w3.org/1999/xlink" height="40.5px" width="139.2px" xmlns="http://www.w3.org/2000/svg">
  <g transform="matrix(1.0, 0.0, 0.0, 1.0, 65.0, 57.85)">
    <path d="M69.4 -42.35 Q73.15 -42.2 74.2 -43.0 74.15 -37.55 69.4 -35.35 71.05 -34.1 72.0 -32.25 73.35 -29.65 73.3 -25.9 69.85 -27.3 67.3 -26.75 L68.55 -23.75 Q69.95 -19.85 69.55 -17.35 L69.15 -17.75 66.3 -22.75 64.15 -26.6 66.05 -32.25 66.2 -32.8 69.4 -42.35 M-45.6 -41.15 L-45.35 -40.95 Q-39.8 -36.75 -33.05 -31.85 -33.25 -29.7 -41.1 -23.55 -47.75 -18.5 -53.2 -18.05 L-57.4 -17.45 -55.3 -21.55 Q-53.05 -25.2 -48.85 -28.0 L-57.9 -27.15 -60.5 -26.65 -58.5 -28.9 Q-53.2 -34.6 -49.5 -36.3 L-52.4 -36.9 Q-57.1 -38.35 -59.25 -42.25 -52.45 -40.75 -45.6 -41.15" fill="#ffffff" fill-rule="evenodd" stroke="none"/>
    <path d="M-45.6 -41.15 Q-52.45 -40.75 -59.25 -42.25 -57.1 -38.35 -52.4 -36.9 L-49.5 -36.3 Q-53.2 -34.6 -58.5 -28.9 L-59.15 -30.7 Q-63.95 -43.65 -65.0 -57.85 -58.75 -51.15 -45.6 -41.15 M-57.9 -27.15 L-48.85 -28.0 Q-53.05 -25.2 -55.3 -21.55 L-57.9 -27.15" fill="#f5ccdc" fill-rule="evenodd" stroke="none"/>
  </g>
</svg>
