<?xml version="1.0" encoding="UTF-8" standalone="no"?>
<svg xmlns:xlink="http://www.w3.org/1999/xlink" height="116.6px" width="180.1px" xmlns="http://www.w3.org/2000/svg">
  <g transform="matrix(1.0, 0.0, 0.0, 1.0, 90.05, 58.3)">
    <path d="M76.4 -58.3 Q76.0 -51.9 75.25 -46.6 74.55 -42.05 73.55 -38.3 L72.3 -34.2 69.1 -24.65 68.95 -24.1 66.55 -17.0 Q68.95 -14.0 71.2 -10.3 L73.8 -5.75 Q84.05 13.7 90.05 17.05 76.55 16.75 71.1 6.8 80.4 29.05 66.55 47.9 L67.6 34.05 Q66.25 47.65 56.25 57.6 62.85 41.0 56.25 12.9 50.8 0.35 43.15 -7.6 L43.8 -5.65 43.95 -5.0 Q45.2 -0.3 45.35 5.75 32.5 -12.45 6.05 -15.45 21.7 -13.3 27.9 -5.2 3.15 -13.9 -19.6 -15.1 -36.9 -4.55 -37.65 12.95 L-40.7 16.3 -41.4 21.8 Q-42.35 44.15 -36.95 58.3 -45.15 57.1 -50.95 48.4 -58.25 42.5 -62.45 49.3 -70.5 37.65 -67.0 19.25 L-72.85 42.45 Q-78.65 24.15 -70.4 10.4 -76.05 19.1 -90.05 20.05 -82.9 12.45 -77.5 1.4 -73.45 -6.95 -66.25 -13.25 L-67.3 -16.45 Q-72.9 -16.45 -79.95 -18.55 -74.95 -20.1 -68.95 -22.55 -71.05 -31.35 -71.55 -40.05 -72.2 -51.0 -70.25 -56.8 -66.8 -55.65 -45.45 -50.95 -26.55 -46.75 -17.5 -39.65 L-11.35 -38.35 Q0.05 -47.25 14.5 -44.65 L31.3 -41.2 Q42.6 -50.25 59.55 -54.4 L76.4 -58.3 M-48.0 -32.6 Q-59.8 -41.75 -65.65 -48.0 -64.8 -36.5 -61.5 -25.85 L-59.15 -19.05 -60.65 -17.35 -61.15 -16.8 -58.55 -17.3 -55.95 -11.7 -58.05 -7.6 -53.85 -8.2 Q-48.4 -8.65 -41.75 -13.7 -33.9 -19.85 -33.7 -22.0 L-46.25 -31.3 -48.0 -32.6" fill="#8ef7aa" fill-rule="evenodd" stroke="none"/>
  </g>
</svg>
