<?xml version="1.0" encoding="UTF-8" standalone="no"?>
<svg xmlns:xlink="http://www.w3.org/1999/xlink" height="40.4px" width="142.75px" xmlns="http://www.w3.org/2000/svg">
  <g transform="matrix(1.0, 0.0, 0.0, 1.0, 65.0, 57.85)">
    <path d="M77.75 -44.7 Q77.7 -39.25 72.95 -37.05 74.6 -35.8 75.55 -33.95 76.9 -31.35 76.85 -27.6 73.4 -29.0 70.85 -28.45 L72.1 -25.45 Q73.5 -21.55 73.1 -19.05 L71.85 -20.15 Q69.6 -23.85 67.2 -26.85 L69.6 -33.95 69.75 -34.5 72.95 -44.05 Q76.7 -43.9 77.75 -44.7 M-58.5 -28.9 Q-53.2 -34.6 -49.5 -36.3 -53.05 -36.8 -55.45 -38.3 -57.85 -39.8 -59.25 -42.25 -54.65 -41.25 -50.0 -41.1 -47.8 -41.0 -45.6 -41.15 L-33.05 -31.85 Q-33.25 -29.7 -41.1 -23.55 -47.75 -18.5 -53.2 -18.05 L-57.4 -17.45 -55.3 -21.55 Q-53.05 -25.2 -48.85 -28.0 L-57.9 -27.15 -60.5 -26.65 -60.0 -27.2 -58.5 -28.9" fill="#ffffff" fill-rule="evenodd" stroke="none"/>
    <path d="M-45.6 -41.15 Q-47.8 -41.0 -50.0 -41.1 -54.65 -41.25 -59.25 -42.25 -57.85 -39.8 -55.45 -38.3 -53.05 -36.8 -49.5 -36.3 -53.2 -34.6 -58.5 -28.9 L-60.85 -35.7 Q-64.15 -46.35 -65.0 -57.85 -59.15 -51.6 -47.35 -42.45 L-45.6 -41.15 M-57.9 -27.15 L-48.85 -28.0 Q-53.05 -25.2 -55.3 -21.55 L-57.9 -27.15" fill="#f5ccdc" fill-rule="evenodd" stroke="none"/>
  </g>
</svg>
