<?xml version="1.0" encoding="UTF-8" standalone="no"?>
<svg xmlns:xlink="http://www.w3.org/1999/xlink" height="40.4px" width="140.4px" xmlns="http://www.w3.org/2000/svg">
  <g transform="matrix(1.0, 0.0, 0.0, 1.0, 63.8, 57.25)">
    <path d="M68.6 -32.7 L71.8 -42.25 Q75.55 -42.1 76.6 -42.9 76.55 -37.45 71.8 -35.25 73.45 -34.0 74.4 -32.15 75.15 -30.7 75.5 -28.85 72.1 -29.95 68.3 -31.65 L68.45 -32.15 68.6 -32.7 M71.95 -17.25 Q70.0 -19.1 67.95 -20.4 L65.3 -22.85 65.4 -23.15 Q68.55 -22.0 71.6 -21.65 72.25 -19.1 71.95 -17.25 M-44.4 -40.55 L-40.8 -37.8 -31.85 -31.25 Q-32.05 -29.1 -39.9 -22.95 -46.55 -17.9 -52.0 -17.45 L-56.2 -16.85 Q-55.25 -19.05 -54.1 -20.95 -51.85 -24.6 -47.65 -27.4 L-55.05 -26.8 -56.7 -26.55 -59.3 -26.05 -57.3 -28.3 Q-52.0 -34.0 -48.3 -35.7 -55.25 -36.65 -58.05 -41.65 -51.25 -40.15 -44.4 -40.55" fill="#ffffff" fill-rule="evenodd" stroke="none"/>
    <path d="M-44.4 -40.55 Q-51.25 -40.15 -58.05 -41.65 -55.25 -36.65 -48.3 -35.7 -52.0 -34.0 -57.3 -28.3 -62.7 -42.05 -63.8 -57.25 -57.55 -50.55 -44.4 -40.55 M-56.7 -26.55 L-55.05 -26.8 -47.65 -27.4 Q-51.85 -24.6 -54.1 -20.95 L-56.2 -25.45 -56.7 -26.55" fill="#f5ccdc" fill-rule="evenodd" stroke="none"/>
  </g>
</svg>
