<?xml version="1.0" encoding="UTF-8" standalone="no"?>
<svg xmlns:xlink="http://www.w3.org/1999/xlink" height="157.4px" width="140.0px" xmlns="http://www.w3.org/2000/svg">
  <g transform="matrix(1.0, 0.0, 0.0, 1.0, 62.45, 103.75)">
    <path d="M57.6 -48.15 L58.1 -48.5 Q62.85 -51.85 66.65 -55.55 L67.2 -56.1 74.4 -62.8 77.55 -65.2 77.0 -62.8 75.35 -56.1 73.25 -48.5 72.15 -45.0 Q70.65 -39.85 67.95 -36.25 65.85 -39.6 62.5 -40.95 66.15 -41.4 69.65 -48.5 L70.0 -49.2 67.2 -48.5 Q65.7 -48.3 64.3 -48.5 L63.45 -48.65 58.5 -48.5 57.6 -48.15 M66.05 -32.9 L63.85 -29.9 63.0 -28.95 62.5 -29.9 Q61.2 -32.05 59.05 -33.8 62.7 -33.9 66.05 -32.9 M-8.85 -49.3 L-8.9 -49.4 -8.95 -49.45 -9.1 -49.6 Q-10.1 -50.7 -11.7 -51.25 L-15.05 -51.7 Q-9.25 -52.15 -8.0 -63.35 -11.15 -60.7 -14.5 -59.95 L-20.0 -58.5 Q-12.0 -64.05 -15.05 -73.9 -16.9 -70.65 -20.25 -67.9 -22.9 -66.15 -26.5 -62.7 -12.2 -78.15 -7.55 -103.75 -2.95 -81.5 -3.5 -65.85 -3.75 -58.6 -5.6 -54.1 L-6.25 -52.65 Q-7.35 -50.6 -8.85 -49.3" fill="#ffffff" fill-opacity="0.49803922" fill-rule="evenodd" stroke="none"/>
    <path d="M57.6 -48.15 L58.5 -48.5 63.45 -48.65 64.3 -48.5 Q65.7 -48.3 67.2 -48.5 L70.0 -49.2 69.65 -48.5 Q66.15 -41.4 62.5 -40.95 65.85 -39.6 67.95 -36.25 L68.0 -36.15 Q69.2 -34.15 68.9 -32.1 L66.05 -32.9 Q62.7 -33.9 59.05 -33.8 61.2 -32.05 62.5 -29.9 L63.0 -28.95 63.55 -27.7 64.3 -24.85 64.4 -24.05 63.1 -23.15 61.0 -24.85 59.55 -25.85 56.55 -27.7 53.9 -29.05 Q49.05 -33.0 43.65 -36.2 L44.25 -36.55 46.4 -37.75 48.35 -38.6 49.25 -38.95 52.65 -40.15 Q51.15 -41.4 49.25 -41.65 L48.35 -41.75 47.4 -41.65 46.8 -41.75 48.35 -42.55 49.25 -43.05 Q53.75 -45.45 57.6 -48.15 M-26.5 -62.7 Q-22.9 -66.15 -20.25 -67.9 -16.9 -70.65 -15.05 -73.9 -12.0 -64.05 -20.0 -58.5 L-14.5 -59.95 Q-11.15 -60.7 -8.0 -63.35 -9.25 -52.15 -15.05 -51.7 L-11.7 -51.25 Q-10.1 -50.7 -9.1 -49.6 L-8.95 -49.45 -8.9 -49.4 -8.85 -49.3 -7.8 -47.95 -8.6 -47.95 -7.9 -46.85 -11.2 -46.8 -13.5 -46.5 Q-22.3 -44.85 -29.6 -40.35 -31.9 -40.75 -34.6 -40.45 L-39.5 -39.5 Q-35.85 -51.65 -26.5 -62.7" fill="#ffffff" fill-opacity="0.84705883" fill-rule="evenodd" stroke="none"/>
    <path d="M-55.1 -16.6 Q-44.9 -14.95 -34.25 -5.9 L-32.95 -1.05 Q-36.55 5.65 -38.5 15.9 -40.8 28.05 -37.65 40.05 L-44.2 49.65 -50.7 37.95 -58.2 34.5 Q-67.15 7.0 -57.2 -12.75 L-60.8 -9.4 Q-60.9 -10.3 -57.15 -12.9 L-55.1 -16.6 M-36.3 46.45 L-42.2 53.65 -43.35 51.95 -36.85 43.95 -36.3 46.45" fill="#d7d7d7" fill-opacity="0.61960787" fill-rule="evenodd" stroke="none"/>
  </g>
</svg>
