<?xml version="1.0" encoding="UTF-8" standalone="no"?>
<svg xmlns:xlink="http://www.w3.org/1999/xlink" height="159.15px" width="146.45px" xmlns="http://www.w3.org/2000/svg">
  <g transform="matrix(1.0, 0.0, 0.0, 1.0, 73.2, 79.7)">
    <path d="M67.8 -40.15 L64.65 -37.75 57.45 -31.05 56.9 -30.5 Q53.1 -26.8 48.35 -23.45 L47.85 -23.1 48.75 -23.45 53.7 -23.6 54.55 -23.45 Q55.95 -23.25 57.45 -23.45 L60.25 -24.15 59.9 -23.45 Q56.4 -16.35 52.75 -15.9 56.1 -14.55 58.2 -11.2 L58.25 -11.1 Q59.45 -9.1 59.15 -7.05 L56.3 -7.85 Q52.95 -8.85 49.3 -8.75 51.45 -7.0 52.75 -4.85 L53.25 -3.9 53.8 -2.65 54.55 0.2 54.65 1.0 55.8 0.2 Q57.25 -0.95 58.8 -2.65 L60.55 -4.85 63.4 -9.05 64.55 -11.1 Q67.15 -16.15 68.85 -23.45 L70.1 -29.65 70.35 -31.05 71.35 -37.75 Q72.3 -44.45 72.25 -47.35 69.85 -46.75 60.95 -42.45 56.1 -40.1 48.5 -37.75 43.25 -36.1 36.65 -34.45 L34.05 -33.85 26.4 -31.6 Q21.9 -30.05 18.6 -28.1 14.5 -25.7 12.2 -22.65 16.85 -21.7 23.05 -19.75 30.4 -17.4 37.05 -16.7 L38.6 -17.5 39.5 -18.0 47.85 -23.1 M54.65 1.0 L54.7 3.1 53.8 2.3 52.75 3.95 54.95 6.35 50.45 4.55 51.25 6.55 Q54.65 16.25 51.3 26.05 50.0 17.1 43.95 11.35 29.4 5.45 8.05 4.35 -13.4 3.85 -33.5 11.0 -34.9 12.15 -35.8 14.1 -38.45 20.5 -39.3 25.6 -40.5 23.55 -40.25 20.15 L-41.95 26.95 -42.7 24.0 Q-46.3 30.7 -48.25 40.95 -50.55 53.1 -47.4 65.1 L-53.95 74.7 -60.45 63.0 -67.95 59.55 Q-76.9 32.05 -66.95 12.3 L-64.85 8.45 -69.4 12.65 Q-68.05 8.0 -64.9 3.3 -67.65 -1.05 -67.4 -7.85 -67.1 -18.35 -58.2 -30.65 -49.4 -43.0 -36.3 -54.9 -23.25 -66.85 -17.3 -78.7 -12.7 -56.45 -13.25 -40.8 -13.5 -33.55 -15.35 -29.05 -10.35 -29.3 -8.7 -31.85 -7.9 -27.05 -10.95 -24.4 L9.7 -23.1 12.2 -22.65 M37.05 -16.7 L37.65 -16.6 38.6 -16.7 39.5 -16.6 Q41.4 -16.35 42.9 -15.1 L39.5 -13.9 38.6 -13.55 36.65 -12.7 34.5 -11.5 33.9 -11.15 Q39.3 -7.95 44.15 -4.0 L46.8 -2.65 49.8 -0.8 51.25 0.2 53.35 1.9 54.65 1.0 M37.65 -16.6 L38.0 -16.6 Q34.95 -14.4 28.85 -13.95 L33.9 -11.15 M52.75 -15.9 L51.15 -15.75 M49.3 -8.75 L48.35 -8.7 M44.15 -4.0 L48.7 -0.05 49.8 -0.8 M53.8 2.3 L53.35 1.9 M50.45 4.55 L45.95 2.7 M48.7 -0.05 L52.75 3.95 M-31.85 -31.85 L-30.4 -33.05 -30.2 -33.15 -29.75 -33.45 Q-21.75 -39.0 -24.8 -48.85 -26.65 -45.6 -30.0 -42.85 -32.65 -41.1 -36.25 -37.65 -45.6 -26.6 -49.25 -14.45 L-44.35 -15.4 Q-41.65 -15.7 -39.35 -15.3 -32.05 -19.8 -23.25 -21.45 L-20.95 -21.75 Q-19.05 -21.7 -16.95 -20.75 -17.5 -21.95 -17.55 -22.9 L-18.6 -24.25 -18.65 -24.35 -18.7 -24.4 -18.85 -24.55 Q-19.85 -25.65 -21.45 -26.2 L-24.8 -26.65 -25.65 -26.65 -27.4 -26.5 M-15.35 -29.05 L-16.0 -27.6 Q-17.1 -25.55 -18.6 -24.25 M-29.75 -33.45 L-24.25 -34.9 Q-20.9 -35.65 -17.75 -38.3 -19.0 -27.1 -24.8 -26.65 M-39.35 -15.3 Q-36.5 -14.7 -35.8 -13.9 -44.55 -10.95 -49.35 -4.6 M-10.95 -24.4 Q-11.65 -23.8 -12.55 -23.3 M-18.85 -24.55 L-18.6 -24.85 M-36.25 -37.65 Q-21.95 -53.1 -17.3 -78.7 M-64.85 8.45 Q-54.65 10.1 -44.0 19.15 L-43.75 20.1 -44.7 14.45 M-43.75 20.1 L-42.7 24.0 M-62.05 6.65 Q-63.75 5.2 -64.9 3.3" fill="none" stroke="#000000" stroke-linecap="round" stroke-linejoin="round" stroke-width="2.0"/>
    <path d="M-51.95 78.7 L-53.1 77.0 -46.6 69.0 -46.05 71.5 -51.95 78.7" fill="none" stroke="#000000" stroke-linecap="round" stroke-linejoin="round" stroke-width="1.5"/>
  </g>
</svg>
