<?xml version="1.0" encoding="UTF-8" standalone="no"?>
<svg xmlns:xlink="http://www.w3.org/1999/xlink" height="89.4px" width="110.2px" xmlns="http://www.w3.org/2000/svg">
  <g transform="matrix(1.0, 0.0, 0.0, 1.0, 44.0, 123.45)">
    <path d="M51.25 -48.9 Q55.25 -51.85 56.9 -57.0 46.4 -57.95 42.1 -55.25 45.95 -65.75 51.5 -84.7 57.05 -103.65 64.35 -110.7 68.7 -95.85 62.9 -68.55 60.25 -56.1 56.05 -48.5 L55.85 -48.55 56.35 -49.7 51.25 -48.9 M-21.2 -54.8 Q-24.7 -52.95 -26.3 -51.2 -25.95 -53.55 -26.25 -56.25 -26.45 -58.2 -26.95 -60.3 -30.1 -58.6 -34.25 -55.95 -37.95 -53.65 -38.6 -49.75 L-38.75 -48.8 -39.1 -49.9 Q-43.65 -63.3 -43.95 -78.7 -44.3 -103.65 -41.35 -123.45 -23.85 -107.25 -21.1 -76.75 -20.8 -68.2 -20.85 -62.35 -20.9 -57.75 -21.2 -54.8" fill="#000000" fill-opacity="0.24705882" fill-rule="evenodd" stroke="none"/>
    <path d="M42.1 -55.25 Q46.4 -57.95 56.9 -57.0 55.25 -51.85 51.25 -48.9 45.9 -48.6 39.4 -50.15 40.9 -52.55 42.1 -55.25 M55.85 -48.55 L56.05 -48.5 59.35 -47.55 62.3 -45.9 Q61.95 -43.9 58.6 -41.75 55.25 -39.65 52.15 -40.45 55.9 -38.55 57.8 -35.6 L57.45 -35.2 Q52.7 -40.0 46.9 -42.6 53.75 -44.55 55.85 -48.55 M-38.75 -48.8 L-38.6 -49.75 Q-37.95 -53.65 -34.25 -55.95 -30.1 -58.6 -26.95 -60.3 -26.45 -58.2 -26.25 -56.25 -25.95 -53.55 -26.3 -51.2 -24.7 -52.95 -21.2 -54.8 L-20.7 -55.05 -16.6 -56.6 -14.7 -57.3 -14.45 -54.1 Q-14.45 -51.9 -15.05 -50.5 -16.1 -48.25 -17.45 -47.1 -15.0 -47.85 -11.5 -45.25 -12.25 -42.25 -15.4 -40.7 -21.75 -36.5 -31.8 -34.05 -36.0 -41.1 -38.75 -48.8" fill="#ffffff" fill-opacity="0.84705883" fill-rule="evenodd" stroke="none"/>
  </g>
</svg>
