<?xml version="1.0" encoding="UTF-8" standalone="no"?>
<svg xmlns:xlink="http://www.w3.org/1999/xlink" height="188.3px" width="180.1px" xmlns="http://www.w3.org/2000/svg">
  <g transform="matrix(1.0, 0.0, 0.0, 1.0, 90.05, 94.15)">
    <path d="M65.95 -79.95 Q65.45 -76.05 68.6 -82.35 69.25 -77.05 68.85 -70.75 70.5 -48.0 67.15 -32.25 65.05 -15.95 58.55 -2.9 L61.5 -1.25 61.4 -0.75 66.5 -1.1 Q61.35 3.8 53.75 5.65 55.75 7.1 57.0 9.05 L56.5 9.6 Q66.2 15.65 73.8 30.1 84.05 49.55 90.05 52.9 76.55 52.6 71.1 42.65 80.4 64.9 66.55 83.75 L67.6 69.9 Q66.25 83.5 56.25 93.45 62.85 76.85 56.25 48.75 50.8 36.2 43.15 28.25 L43.8 30.2 43.95 30.85 Q45.2 35.55 45.35 41.6 32.5 23.4 6.05 20.4 21.7 22.55 27.9 30.65 3.15 21.95 -19.6 20.75 -36.9 31.3 -37.65 48.8 L-40.7 52.15 -41.4 57.65 Q-42.35 80.0 -36.95 94.15 -45.15 92.95 -50.95 84.25 -58.25 78.35 -62.45 85.15 -70.5 73.5 -67.0 55.1 L-72.85 78.3 Q-78.65 60.0 -70.4 46.25 -76.05 54.95 -90.05 55.9 -82.9 48.3 -77.5 37.25 -72.1 26.15 -61.2 18.65 -68.75 20.6 -79.95 17.3 -67.15 13.4 -47.9 3.2 -53.7 -12.5 -55.85 -26.7 -55.55 -57.7 -49.8 -88.95 -48.55 -90.55 -46.6 -85.95 -46.75 -91.75 -46.5 -94.15 -30.5 -79.1 -21.75 -56.35 -14.1 -36.45 -17.25 -10.9 L-15.35 -11.6 Q-14.7 -7.1 -15.7 -4.8 L-16.3 -3.6 -11.35 -2.5 Q0.05 -11.4 14.5 -8.8 L21.1 -7.55 Q24.75 -18.5 33.35 -30.85 42.8 -44.5 50.15 -56.0 57.5 -67.55 64.95 -87.15 66.45 -83.9 65.95 -79.95" fill="#8ef7aa" fill-rule="evenodd" stroke="none"/>
  </g>
</svg>
