<?xml version="1.0" encoding="UTF-8" standalone="no"?>
<svg xmlns:xlink="http://www.w3.org/1999/xlink" height="89.4px" width="110.05px" xmlns="http://www.w3.org/2000/svg">
  <g transform="matrix(1.0, 0.0, 0.0, 1.0, 44.0, 123.45)">
    <path d="M41.95 -56.3 Q45.8 -66.8 51.35 -85.75 56.9 -104.7 64.2 -111.75 68.55 -96.9 62.75 -69.6 60.1 -57.15 55.9 -49.55 L50.95 -49.85 Q55.05 -52.8 56.75 -58.05 46.25 -59.0 41.95 -56.3 M-38.75 -48.8 Q-43.65 -62.65 -43.95 -78.7 -44.3 -103.65 -41.35 -123.45 -23.85 -107.25 -21.1 -76.75 -20.55 -61.55 -21.2 -54.8 -24.7 -52.95 -26.3 -51.2 -25.75 -55.15 -26.95 -60.3 -30.1 -58.6 -34.25 -55.95 -38.4 -53.35 -38.75 -48.8" fill="#000000" fill-opacity="0.24705882" fill-rule="evenodd" stroke="none"/>
    <path d="M55.9 -49.55 L59.2 -48.6 62.15 -46.95 62.05 -46.45 Q50.95 -46.05 41.35 -48.65 L38.1 -49.5 Q40.35 -52.6 41.95 -56.3 46.25 -59.0 56.75 -58.05 55.05 -52.8 50.95 -49.85 L55.9 -49.55 M-21.2 -54.8 L-16.6 -56.6 -14.7 -57.3 Q-14.05 -52.8 -15.05 -50.5 L-15.65 -49.3 Q-16.5 -47.95 -17.45 -47.1 -15.0 -47.85 -11.5 -45.25 -12.25 -42.25 -15.4 -40.7 -21.75 -36.5 -31.8 -34.05 -35.45 -40.15 -37.95 -46.75 L-38.75 -48.8 Q-38.4 -53.35 -34.25 -55.95 -30.1 -58.6 -26.95 -60.3 -25.75 -55.15 -26.3 -51.2 -24.7 -52.95 -21.2 -54.8" fill="#ffffff" fill-opacity="0.84705883" fill-rule="evenodd" stroke="none"/>
  </g>
</svg>
