<?xml version="1.0" encoding="UTF-8" standalone="no"?>
<svg xmlns:xlink="http://www.w3.org/1999/xlink" height="25.15px" width="114.25px" xmlns="http://www.w3.org/2000/svg">
  <g transform="matrix(1.0, 0.0, 0.0, 1.0, 51.65, 49.9)">
    <path d="M62.0 -40.9 Q63.55 -35.85 61.0 -31.15 54.95 -38.95 46.9 -42.6 53.5 -44.5 55.7 -48.3 60.3 -46.4 62.0 -40.9 M-39.55 -49.75 L-38.95 -49.85 -35.5 -49.5 Q-32.75 -48.7 -30.85 -47.1 -27.65 -44.3 -27.0 -39.0 -38.25 -34.05 -45.65 -24.75 -48.55 -27.2 -50.1 -30.0 -51.85 -33.95 -51.6 -37.5 -51.35 -41.45 -48.5 -44.85 -47.0 -46.45 -45.3 -47.55 -42.7 -49.25 -39.55 -49.75" fill="#000000" fill-opacity="0.32941177" fill-rule="evenodd" stroke="none"/>
  </g>
</svg>
