<?xml version="1.0" encoding="UTF-8" standalone="no"?>
<svg xmlns:xlink="http://www.w3.org/1999/xlink" height="121.0px" width="171.15px" xmlns="http://www.w3.org/2000/svg">
  <g transform="matrix(1.0, 0.0, 0.0, 1.0, 85.55, 60.5)">
    <path d="M56.1 -58.2 Q65.5 -53.6 66.85 -43.3 67.75 -36.4 65.35 -30.9 78.15 -25.25 85.6 -27.05 74.2 -17.65 60.8 -23.05 77.05 -10.15 81.65 25.55 L69.6 3.0 69.85 3.65 Q71.7 8.75 72.65 13.6 77.65 39.4 57.45 59.2 L60.35 49.05 Q57.7 54.5 52.4 57.25 59.1 45.85 57.75 18.35 56.2 2.6 52.05 -2.45 48.15 -5.25 40.8 -8.05 3.05 -19.8 -23.85 -13.65 -32.5 0.0 -33.3 15.1 L-35.3 18.05 Q-38.3 42.3 -33.65 56.6 -40.6 49.4 -44.25 40.15 -42.85 56.1 -44.0 60.5 -46.2 57.6 -48.0 54.15 -52.0 46.5 -54.25 36.2 -59.95 44.75 -61.8 52.5 -62.8 56.45 -62.75 60.2 -67.7 45.2 -67.05 31.55 -67.9 35.3 -70.8 39.9 -73.75 44.5 -78.15 46.95 -76.4 41.05 -75.75 31.9 -75.15 22.7 -72.35 15.9 -76.65 21.4 -85.55 23.35 -80.7 22.05 -74.5 2.5 -70.25 -10.95 -63.25 -20.75 -69.4 -26.55 -68.65 -37.0 -68.15 -43.2 -65.2 -48.3 -58.5 -58.9 -45.05 -60.45 L-40.85 -60.3 Q-30.55 -59.3 -24.9 -52.0 -22.4 -48.35 -21.95 -44.35 L-21.1 -44.5 Q-13.65 -52.2 6.2 -50.2 16.5 -49.9 26.05 -47.75 26.7 -49.1 27.9 -50.55 35.4 -59.5 48.0 -59.8 52.0 -59.65 56.1 -58.2" fill="url(#gradient0)" fill-rule="evenodd" stroke="none"/>
  </g>
  <defs>
    <linearGradient gradientTransform="matrix(0.0, 0.0866, -0.1045, 0.0, 0.05, 52.5)" gradientUnits="userSpaceOnUse" id="gradient0" spreadMethod="pad" x1="-819.2" x2="819.2">
      <stop offset="0.0" stop-color="#fff23c" stop-opacity="0.0"/>
      <stop offset="0.3803921568627451" stop-color="#fff23c" stop-opacity="0.84705883"/>
      <stop offset="0.6039215686274509" stop-color="#fff23c" stop-opacity="0.8"/>
      <stop offset="1.0" stop-color="#fff23c" stop-opacity="0.0"/>
    </linearGradient>
  </defs>
</svg>
