<?xml version="1.0" encoding="UTF-8" standalone="no"?>
<svg xmlns:xlink="http://www.w3.org/1999/xlink" height="121.2px" width="153.05px" xmlns="http://www.w3.org/2000/svg">
  <g transform="matrix(1.0, 0.0, 0.0, 1.0, 76.55, 60.6)">
    <path d="M-67.45 -13.05 L-74.65 -3.6 Q-70.6 -23.45 -54.45 -41.0 -33.0 -64.25 0.55 -59.45 14.95 -62.85 38.0 -56.15 61.0 -49.45 74.95 -21.25 69.05 -28.8 62.7 -33.05 74.75 -22.35 75.9 0.0 78.95 40.35 67.05 58.55 67.8 44.45 65.4 31.5 65.05 42.1 62.75 43.65 63.1 35.0 61.25 17.05 L58.7 -7.9 Q60.9 -30.65 21.4 -34.25 -36.3 -31.45 -27.55 -6.45 -40.35 21.75 -35.65 38.7 -45.2 35.35 -43.9 23.2 -45.75 37.4 -42.5 50.25 L-45.05 46.8 Q-45.8 55.8 -59.9 60.6 -56.6 56.3 -61.1 42.0 -59.65 50.9 -65.9 54.7 -65.0 47.5 -65.5 39.4 -73.95 25.65 -68.7 9.85 -71.65 18.05 -76.55 21.3 -73.9 14.2 -71.3 -0.3 -70.1 -7.25 -67.45 -13.05 M-52.55 28.4 Q-56.3 26.6 -59.45 28.9 -61.7 32.1 -59.85 37.35 -50.7 52.7 -45.1 46.7 -50.75 38.25 -52.55 28.4" fill="url(#gradient0)" fill-rule="evenodd" stroke="none"/>
  </g>
  <defs>
    <linearGradient gradientTransform="matrix(0.0, 0.0924, -0.0934, 0.0, 0.0, 56.0)" gradientUnits="userSpaceOnUse" id="gradient0" spreadMethod="pad" x1="-819.2" x2="819.2">
      <stop offset="0.0" stop-color="#fff23c" stop-opacity="0.0"/>
      <stop offset="0.3803921568627451" stop-color="#fff23c" stop-opacity="0.84705883"/>
      <stop offset="0.6039215686274509" stop-color="#fff23c" stop-opacity="0.8"/>
      <stop offset="1.0" stop-color="#fff23c" stop-opacity="0.0"/>
    </linearGradient>
  </defs>
</svg>
