<?xml version="1.0" encoding="UTF-8" standalone="no"?>
<svg xmlns:xlink="http://www.w3.org/1999/xlink" height="164.45px" width="190.95px" xmlns="http://www.w3.org/2000/svg">
  <g transform="matrix(1.0, 0.0, 0.0, 1.0, 95.45, 82.2)">
    <path d="M75.0 15.7 L77.8 16.4 Q84.2 17.75 94.5 16.7 81.8 10.55 75.95 -4.7 73.8 -10.35 71.9 -17.05 70.75 -21.0 69.75 -25.3 60.85 -31.05 50.8 -35.25 M43.3 -11.0 L43.95 -4.0 Q45.45 12.2 58.1 25.7 58.85 11.85 56.5 -0.2 M69.75 -25.3 Q77.1 -20.5 83.7 -14.6 78.3 -32.0 63.9 -37.45 L58.65 -38.8 M43.95 -4.0 Q29.05 -12.15 21.45 -21.7 12.95 -16.55 -7.9 -8.1 -17.6 9.2 -37.85 25.75 -34.05 49.7 -19.35 58.0 -34.45 56.85 -37.4 44.55 -33.05 69.1 -24.9 81.25 -36.7 78.5 -44.25 73.3 L-41.85 79.65 Q-57.7 75.2 -65.3 61.95 L-61.25 75.75 Q-72.4 68.25 -75.7 46.9 -87.35 49.15 -94.45 42.0 -85.35 35.65 -80.7 25.05 -86.2 27.6 -92.6 24.15 -82.0 13.0 -77.85 0.1 -73.75 -12.8 -70.05 -16.25 -87.8 -15.85 -93.65 -29.85 -89.85 -27.4 -76.9 -28.45 -72.55 -28.6 -60.3 -41.15 -48.1 -53.7 -30.05 -54.1 -42.85 -60.35 -27.15 -81.2 -26.6 -66.65 -24.4 -56.45 -25.9 -64.25 -17.25 -72.1 -8.6 -80.0 3.85 -79.85 -1.85 -70.25 -12.2 -57.7 1.05 -65.95 30.8 -54.7 52.95 -46.25 81.9 -53.85 74.7 -40.3 63.85 -37.5 L63.9 -37.45 M-12.2 -57.7 L-14.75 -54.6 M-28.45 -53.4 L-30.05 -54.1 M-37.95 40.55 L-37.4 44.55 M-66.0 7.95 L-66.2 9.05 Q-69.35 19.5 -67.05 38.55 L-67.0 38.8 Q-64.6 50.85 -57.45 62.9 -54.25 67.55 -50.0 71.3 -53.7 65.55 -55.2 60.25 -51.9 68.0 -44.25 73.3 M-79.35 22.1 L-80.7 25.05 M-75.7 40.45 L-75.7 46.9 M58.1 25.7 Q56.65 29.85 56.5 39.25 58.25 49.2 50.75 58.4 L45.65 67.95 Q48.5 67.45 52.8 63.25 57.3 57.95 59.8 52.6 M52.8 63.25 Q47.0 74.05 45.7 80.9 66.3 69.5 71.5 50.35 74.3 40.0 73.55 28.4 L73.5 28.05 Q72.8 18.45 69.65 8.05 M77.8 16.4 Q80.0 35.15 84.25 45.25 74.5 39.35 73.55 28.4 M-35.55 -1.45 Q-38.6 12.55 -37.85 25.75 M71.9 -17.05 Q81.45 -1.55 91.0 8.95 81.85 9.1 75.95 -4.7" fill="none" stroke="#000000" stroke-linecap="round" stroke-linejoin="round" stroke-width="2.0"/>
  </g>
</svg>
