<?xml version="1.0" encoding="UTF-8" standalone="no"?>
<svg xmlns:xlink="http://www.w3.org/1999/xlink" height="108.55px" width="137.15px" xmlns="http://www.w3.org/2000/svg">
  <g transform="matrix(1.0, 0.0, 0.0, 1.0, 68.55, 54.3)">
    <path d="M62.55 1.85 Q62.65 -1.2 62.35 -4.25 L65.15 2.7 Q68.0 -9.5 63.0 -21.7 L67.6 -20.55 Q63.65 -28.65 52.75 -35.0 L59.75 -36.1 Q51.15 -38.1 37.0 -46.95 26.75 -52.7 2.3 -50.05 L4.9 -52.55 Q-7.65 -55.5 -25.05 -46.45 L-21.05 -51.9 Q-30.15 -49.5 -39.25 -38.35 L-38.1 -44.9 Q-50.25 -33.1 -50.3 -21.8 L-43.5 -20.05 Q-42.4 -19.6 -41.4 -18.95 L-39.25 -17.4 -38.4 -16.7 -37.3 -15.7 -36.2 -14.6 -35.85 -14.25 -33.65 -11.65 -31.75 -8.95 -30.4 -6.95 -28.05 -3.05 -26.75 -0.65 Q-33.0 -3.0 -39.25 -0.25 L-32.6 1.3 Q-37.05 2.55 -39.4 7.2 L-34.2 5.65 Q-38.25 10.3 -38.3 18.05 -38.8 24.9 -43.6 32.45 -47.4 37.3 -49.5 53.25 L-55.15 48.25 Q-65.95 38.3 -64.3 18.05 L-67.55 21.65 Q-66.05 6.05 -63.0 0.2 L-67.55 2.0 Q-64.9 -1.15 -64.55 -4.25 -61.5 -14.35 -57.15 -17.55 -51.4 -22.55 -50.3 -21.8 M1.8 -6.55 L17.1 -9.95 13.0 -6.5 27.0 -7.45 25.7 -5.4 Q57.6 -2.7 60.4 15.15 L61.1 12.7 Q62.35 7.2 62.55 1.85 M1.8 -6.55 L-1.45 -5.85 2.95 -10.85 -13.45 -5.6 -11.55 -8.65 -10.8 -9.95 -23.75 -3.15 -22.6 -6.15 -21.5 -9.05 -28.05 -3.05" fill="none" stroke="#000000" stroke-linecap="round" stroke-linejoin="round" stroke-width="2.0"/>
    <path d="M-43.5 -20.05 Q-45.25 -25.6 -41.6 -31.15 M17.1 -9.95 Q34.2 -14.25 49.15 -9.1 45.15 -12.75 39.95 -15.25 10.85 -17.25 1.8 -6.55 M27.0 -7.45 Q41.9 -9.3 55.5 -1.5 52.8 -5.75 49.15 -9.1 M61.1 12.7 Q59.25 4.65 55.5 -1.5 M-28.05 -3.05 Q-27.15 -14.5 -15.85 -18.25 -6.15 -21.15 5.35 -21.35 L20.4 -20.5 21.95 -20.35 29.0 -19.05 Q35.05 -17.65 39.95 -15.25 M40.05 -25.5 L54.5 -14.45 50.4 -20.35 Q55.05 -18.5 61.65 -9.05 M58.0 -22.8 Q62.05 -16.8 61.95 -10.85 53.45 -32.6 23.7 -41.5 M44.9 -16.0 Q54.9 -9.5 57.6 -0.65 M-41.4 -18.95 Q-42.5 -27.8 -34.85 -36.1 M-11.9 -41.95 L-0.55 -44.9 Q-11.0 -47.4 -21.5 -41.05 M-35.85 -14.25 Q-37.35 -18.8 -35.75 -22.55 M-38.4 -16.7 Q-39.55 -23.7 -34.85 -30.65 M-33.65 -11.65 Q-33.2 -23.75 -26.35 -28.65 M-31.75 -8.95 Q-35.9 -10.55 -40.1 -5.2 M-35.05 -5.2 Q-33.45 -7.2 -30.4 -6.95 -26.15 -24.2 -0.95 -24.15 M-33.65 -11.65 Q-38.55 -12.45 -40.9 -8.15 M-31.35 -29.5 Q-24.45 -36.95 -16.05 -37.25 M-47.5 -11.5 Q-43.2 -17.25 -37.3 -15.7 M-48.45 -15.6 Q-44.2 -18.55 -39.25 -17.4 M-46.2 -3.85 Q-51.65 6.25 -51.65 16.3 L-46.45 7.2 M62.55 1.85 Q60.4 -8.15 55.8 -10.65 M-52.8 -15.1 Q-61.85 -5.6 -61.05 4.55 L-57.6 -3.4 M-49.7 -9.25 Q-54.35 -4.3 -56.85 4.1 M-15.65 -32.55 Q7.2 -38.05 29.35 -32.55 M-22.6 -6.15 Q-5.2 -19.85 20.4 -20.5 M-11.55 -8.65 Q7.85 -21.15 29.0 -19.05 M-21.5 -9.05 Q-9.3 -20.7 5.35 -21.35 M9.7 -29.3 Q-28.15 -32.35 -31.75 -8.95" fill="none" stroke="#000000" stroke-linecap="round" stroke-linejoin="round" stroke-width="1.0"/>
  </g>
</svg>
