<?xml version="1.0" encoding="UTF-8" standalone="no"?>
<svg xmlns:xlink="http://www.w3.org/1999/xlink" height="197.2px" width="194.0px" xmlns="http://www.w3.org/2000/svg">
  <g transform="matrix(1.0, 0.0, 0.0, 1.0, 97.0, 98.6)">
    <path d="M-48.85 56.3 Q-46.2 76.95 -32.3 97.6 -40.95 57.15 -29.9 27.1 -31.05 42.9 -24.55 57.0 -21.75 10.3 7.05 -8.15 47.45 14.15 57.85 42.65 63.2 60.85 55.35 86.95 77.35 63.0 68.75 27.6 82.05 34.15 96.0 31.95 77.5 25.9 65.1 17.15 82.3 22.0 90.9 17.4 68.6 9.1 57.35 -6.65 69.05 -10.05 75.8 -15.9 66.05 -16.75 58.35 -20.25 45.15 -25.9 32.8 -26.9 52.0 -40.6 61.7 -57.95 42.5 -43.6 17.5 -33.55 6.9 -25.7 -1.5 -24.4 M-32.3 97.6 Q-53.75 78.25 -62.0 48.8 -76.55 57.45 -76.55 78.1 -84.0 66.6 -80.4 53.45 -85.45 60.5 -91.0 73.1 -90.65 39.15 -83.9 21.35 L-93.3 34.35 Q-90.55 7.75 -68.15 -13.05 -80.95 -5.6 -96.0 -15.0 -81.55 -13.3 -73.9 -21.3 -58.9 -38.75 -35.45 -35.85 -44.8 -41.7 -59.25 -43.1 -38.95 -48.25 -22.15 -40.2 -33.75 -55.5 -39.65 -70.1 -26.45 -55.8 -11.6 -46.7 24.8 -70.05 46.6 -97.6 46.05 -64.35 17.5 -33.55 M-60.75 -19.35 L-68.15 -13.05 M-35.45 -35.85 L-27.1 -31.2 M-11.6 -46.7 L-22.15 -40.2 M-62.0 48.8 Q-63.95 36.7 -63.85 32.1 M-80.4 53.45 Q-78.55 43.45 -73.25 33.45 M-79.65 12.65 Q-82.05 16.35 -83.9 21.35" fill="none" stroke="#000000" stroke-linecap="round" stroke-linejoin="round" stroke-width="2.0"/>
  </g>
</svg>
