<?xml version="1.0" encoding="UTF-8" standalone="no"?>
<svg xmlns:xlink="http://www.w3.org/1999/xlink" height="128.15px" width="173.65px" xmlns="http://www.w3.org/2000/svg">
  <g transform="matrix(1.0, 0.0, 0.0, 1.0, 86.85, 64.05)">
    <path d="M-5.75 -63.05 Q-14.45 -62.25 -21.9 -60.05 -14.3 -61.9 -5.65 -62.6 38.5 -66.35 65.1 -28.8 70.7 -19.05 72.3 -11.75 79.1 -2.25 85.8 -0.2 78.8 6.4 71.15 -2.45 85.35 16.35 83.35 41.85 81.65 32.6 76.6 23.8 L76.5 24.2 Q81.6 41.05 73.0 52.0 L71.1 54.05 Q66.75 58.35 60.35 58.9 65.5 53.7 69.6 46.75 59.65 60.8 47.65 58.65 57.75 54.05 63.35 40.05 L63.5 39.7 63.6 39.35 Q63.15 36.25 62.95 32.8 62.4 23.9 64.4 10.85 64.05 5.2 62.7 0.3 58.15 -17.25 42.1 -24.9 12.3 -39.05 -18.1 -18.7 -23.4 -15.6 -28.2 -8.7 -35.05 6.0 -33.1 23.55 -32.1 48.75 -10.7 58.65 -17.65 61.3 -24.85 58.2 -24.25 60.5 -19.1 62.75 -26.2 64.2 -35.55 59.9 -43.8 62.05 -51.85 48.6 L-51.9 48.45 -48.15 58.0 Q-53.95 53.6 -56.35 49.2 L-54.4 55.95 Q-57.6 51.5 -59.7 46.8 -66.45 41.5 -70.95 31.65 -75.9 20.95 -75.55 10.3 L-78.75 10.45 -82.15 9.45 Q-83.95 8.55 -85.85 6.95 -79.9 4.65 -74.7 -0.25 -72.5 -14.15 -68.3 -22.9 -54.6 -52.0 -21.9 -60.05 M66.25 -20.35 Q68.7 -15.7 72.3 -11.75 M76.6 23.8 L76.15 23.0 76.5 24.2 M63.6 39.35 L66.5 32.6 M-62.25 -17.25 Q-67.9 -6.65 -74.7 -0.25 M-75.55 10.3 Q-72.85 9.6 -70.25 7.4 M-59.7 46.8 L-61.05 43.35 Q-62.45 39.45 -63.2 35.4 -63.9 32.0 -63.95 28.5 L-63.9 22.4 -63.5 19.15 Q-62.0 4.95 -56.1 -8.8 M-51.9 48.45 L-52.0 48.25 Q-56.75 38.45 -56.3 26.4 -59.0 37.5 -56.35 49.2 M-24.85 58.2 Q-28.9 56.65 -32.95 53.4 M-35.55 59.9 Q-43.55 53.75 -43.95 47.75" fill="none" stroke="#000000" stroke-linecap="round" stroke-linejoin="round" stroke-width="2.0"/>
  </g>
</svg>
