<?xml version="1.0" encoding="UTF-8" standalone="no"?>
<svg xmlns:xlink="http://www.w3.org/1999/xlink" height="169.0px" width="156.6px" xmlns="http://www.w3.org/2000/svg">
  <g transform="matrix(1.0, 0.0, 0.0, 1.0, 78.3, 84.5)">
    <path d="M-36.45 -45.4 Q-41.6 -34.3 -44.65 -23.2 -52.65 6.75 -31.2 33.8 -24.55 41.95 -19.9 46.6 -12.0 54.5 -9.4 52.85 -20.45 32.0 -25.1 6.15 -28.7 -8.9 -27.45 -23.95 -23.8 -40.95 -11.75 -52.5 12.15 -60.5 46.8 -54.35 52.95 -49.3 55.6 -44.25 60.65 -37.85 61.85 -35.3 73.75 -9.65 71.6 3.3 70.85 7.8 68.55 10.75 71.7 9.55 73.75 7.15 79.2 0.65 76.25 -14.45 72.2 -35.05 63.85 -49.15 46.6 -87.45 12.2 -82.7 L12.95 -82.3 Q16.75 -80.2 20.95 -73.05 M73.75 7.15 Q83.3 45.7 65.2 51.6 72.6 39.6 64.4 13.9 64.95 30.85 63.75 36.5 63.1 40.25 61.6 42.4 57.85 50.35 48.6 53.55 L47.9 53.8 Q40.9 54.8 35.85 59.6 29.75 68.85 36.05 77.85 33.05 76.05 29.45 71.15 L25.95 65.95 Q20.3 56.65 43.4 37.15 31.15 39.85 23.7 49.7 21.65 43.05 27.8 37.95 40.05 36.6 50.8 29.5 61.1 22.65 59.0 3.85 L59.05 3.8 Q65.6 -29.5 55.6 -44.25 M59.8 30.6 Q52.45 38.25 48.1 48.95 58.45 43.2 59.8 30.6 L60.0 28.2 M29.45 71.15 Q26.9 62.35 36.7 52.3 M48.1 48.95 L45.05 50.4 M-19.9 46.6 Q-12.5 78.35 -31.0 83.5 -25.75 71.45 -27.7 61.25 -32.8 51.3 -48.2 38.2 -54.8 32.35 -57.85 26.9 -66.15 19.8 -66.45 13.05 -71.45 20.45 -77.3 19.75 -67.7 11.95 -67.7 -22.55 -68.0 -30.0 -61.4 -39.95 -57.8 -57.2 -44.0 -69.5 L-41.35 -71.55 Q-20.7 -87.25 12.95 -82.3 M-40.65 -13.95 Q-41.5 -9.45 -41.7 -4.7 -37.5 13.95 -28.1 31.05 -42.45 13.6 -41.7 -4.7 M-61.4 -39.95 L-54.9 -47.05 M-57.85 26.9 Q-64.4 15.25 -55.35 4.25 M-60.75 -22.15 Q-60.75 -8.0 -66.0 9.5 -66.5 11.25 -66.45 13.05 M-27.7 61.25 Q-30.5 46.85 -40.25 34.25 -57.35 26.5 -52.25 11.15 -51.15 7.7 -48.85 3.85 M-52.25 11.15 Q-50.8 22.75 -40.25 34.25" fill="none" stroke="#000000" stroke-linecap="round" stroke-linejoin="round" stroke-width="2.0"/>
  </g>
</svg>
