<?xml version="1.0" encoding="UTF-8" standalone="no"?>
<svg xmlns:xlink="http://www.w3.org/1999/xlink" height="130.7px" width="131.3px" xmlns="http://www.w3.org/2000/svg">
  <g transform="matrix(1.0, 0.0, 0.0, 1.0, 65.65, 65.35)">
    <path d="M52.8 59.85 L50.6 61.7 Q52.1 58.0 50.35 55.2 49.35 59.85 47.6 61.8 44.75 63.3 41.5 62.95 L45.4 54.15 Q53.7 48.7 58.0 39.8 L59.0 15.85 Q59.5 3.8 55.75 -5.25 56.4 -10.15 55.45 -15.3 43.7 -32.35 12.9 -33.3 -14.0 -32.6 -25.2 -14.05 -26.9 -9.75 -26.05 -3.55 -33.65 20.65 -23.9 63.85 L-34.3 58.7 -37.75 47.8 Q-38.65 52.2 -38.4 56.3 -44.4 52.65 -44.5 41.8 L-46.55 50.3 Q-50.2 13.05 -62.8 21.05 L-63.5 19.8 Q-69.35 -7.2 -59.1 -30.5 L-56.1 -36.9 Q-38.15 -67.1 3.6 -65.25 35.85 -63.9 53.2 -41.45 65.4 -24.15 65.65 7.6 L65.3 17.45 65.25 17.75 Q65.4 45.3 56.5 59.55 54.0 62.95 50.0 65.35 L52.8 59.85" fill="#486367" fill-rule="evenodd" stroke="none"/>
  </g>
</svg>
