<?xml version="1.0" encoding="UTF-8" standalone="no"?>
<svg xmlns:xlink="http://www.w3.org/1999/xlink" height="186.35px" width="150.95px" xmlns="http://www.w3.org/2000/svg">
  <g transform="matrix(1.0, 0.0, 0.0, 1.0, 75.5, 93.15)">
    <path d="M-69.2 64.45 L-65.85 34.8 Q-73.35 48.3 -69.2 64.45 M-19.25 65.85 L-14.6 87.0 Q-26.85 88.15 -34.05 85.45 -40.75 82.1 -43.5 67.55 -44.4 74.85 -41.95 85.6 L-48.85 83.7 -53.75 58.1 Q-53.35 71.1 -52.15 83.2 L-62.3 79.65 -65.85 68.4 -66.25 77.45 Q-81.05 66.25 -72.2 33.9 -64.2 9.1 -63.4 -6.55 -60.6 -51.5 -43.3 -71.75 -19.0 -95.75 12.25 -92.85 47.8 -92.15 59.25 -72.65 68.6 -64.35 73.75 -44.5 78.5 -21.2 70.1 -5.45 73.2 -51.6 55.3 -60.45 33.95 -69.4 17.75 -60.45 -8.4 -45.2 -12.35 -10.5 -14.95 49.15 -7.05 93.2 -15.25 81.65 -19.25 65.85" fill="#382f2a" fill-rule="evenodd" stroke="none"/>
  </g>
</svg>
