<?xml version="1.0" encoding="UTF-8" standalone="no"?>
<svg xmlns:xlink="http://www.w3.org/1999/xlink" height="127.95px" width="168.6px" xmlns="http://www.w3.org/2000/svg">
  <g transform="matrix(1.0, 0.0, 0.0, 1.0, 84.3, 64.0)">
    <path d="M51.4 -55.65 L52.95 -55.6 Q43.15 -62.6 33.35 -55.6 25.0 -47.7 32.7 -44.5 L33.0 -44.35 33.0 -44.4 Q33.0 -45.15 33.75 -47.95 35.75 -55.9 51.4 -55.65 42.85 -46.95 46.5 -38.15 51.1 -32.35 57.5 -27.9 L58.95 -28.1 Q64.0 -29.05 66.35 -32.15 72.25 -40.9 68.3 -49.1 63.3 -55.9 52.95 -55.6 M68.3 -49.1 L72.55 -43.25 73.25 -42.3 Q90.2 -19.6 78.55 -7.0 74.1 -3.5 71.25 -5.55 74.55 7.4 70.75 22.2 L68.7 34.3 Q69.5 45.1 68.5 50.05 66.3 61.0 56.9 60.3 67.75 49.75 64.95 18.6 62.7 11.3 61.65 5.55 59.7 -5.9 57.0 -10.4 52.65 -14.9 39.1 -17.8 25.6 -20.7 6.6 -17.85 -12.4 -15.05 -17.25 -8.85 -22.15 -2.7 -24.15 6.4 L-30.05 17.35 Q-31.15 33.3 -29.15 40.6 -23.95 58.1 -13.5 62.65 -36.15 65.05 -43.1 48.35 L-47.75 41.4 Q-53.65 39.45 -54.9 45.35 -56.6 53.1 -49.1 60.75 -65.15 49.05 -65.65 31.05 -67.25 12.8 -62.5 -1.75 -73.2 -0.65 -78.4 -6.3 -86.6 -15.05 -81.05 -32.4 -76.85 -45.6 -66.7 -52.75 L-61.0 -56.15 -59.9 -56.65 Q-56.0 -58.8 -52.3 -60.25 -36.25 -66.6 -25.65 -58.35 -19.05 -52.65 -19.95 -43.75 -4.6 -49.55 12.05 -48.45 22.75 -47.9 32.7 -44.5 M46.5 -38.15 L46.5 -38.1 Q37.5 -39.75 33.0 -44.25 L33.0 -44.35 M71.25 -5.55 Q70.4 -6.15 69.75 -7.15 66.6 -11.75 62.55 -21.1 59.05 -24.1 57.5 -27.9 M73.25 -42.3 Q76.85 -23.6 64.1 -21.3 L62.55 -21.1 M-19.95 -43.75 Q-20.9 -34.75 -29.45 -22.5 -28.7 -22.4 -32.3 -17.65 L-33.2 -16.45 Q-34.65 -14.55 -36.85 -12.6 -40.1 -9.9 -44.8 -7.25 L-49.05 -5.05 Q-56.6 -2.35 -62.5 -1.75 M-66.7 -52.75 Q-79.0 -34.3 -74.65 -22.0 -71.55 -13.3 -59.9 -8.35 -55.15 -6.4 -49.05 -5.05 M-61.0 -56.15 Q-65.5 -49.85 -66.75 -43.5 -68.95 -32.4 -61.0 -21.0 -58.75 -17.9 -56.15 -15.3 -51.1 -10.3 -44.8 -7.25 M-36.85 -12.6 L-34.85 -19.45 -34.8 -19.5 -34.55 -20.45 -34.1 -22.05 Q-32.15 -31.05 -32.6 -37.7 -32.9 -42.0 -34.15 -45.35 -41.2 -58.05 -59.9 -56.65 M-52.3 -60.25 Q-36.95 -60.55 -29.05 -52.0 -26.05 -48.05 -26.0 -41.2 -25.9 -33.95 -29.1 -23.45 L-29.45 -22.5" fill="none" stroke="#000000" stroke-linecap="round" stroke-linejoin="round" stroke-width="2.0"/>
  </g>
</svg>
