<?xml version="1.0" encoding="UTF-8" standalone="no"?>
<svg xmlns:xlink="http://www.w3.org/1999/xlink" height="190.25px" width="143.95px" xmlns="http://www.w3.org/2000/svg">
  <g transform="matrix(1.0, 0.0, 0.0, 1.0, 71.95, 95.1)">
    <path d="M-18.15 -56.15 Q-7.85 -61.9 7.7 -59.35 12.7 -64.85 11.8 -59.65 15.65 -62.7 18.8 -60.65 42.5 -77.55 67.65 -85.55 L55.6 -37.0 Q58.4 -42.55 55.5 -26.7 59.75 -32.6 59.15 -28.05 75.15 -4.05 71.25 41.1 69.0 16.15 65.5 11.35 68.65 33.5 66.75 57.2 L66.75 57.35 Q67.4 62.3 69.0 66.9 57.15 60.75 55.25 40.45 L55.1 38.8 Q53.6 26.7 55.25 7.25 55.85 0.0 52.05 -6.2 52.25 -19.05 42.0 -28.55 9.9 -35.3 -22.85 -26.75 -30.35 -15.6 -30.25 -4.35 -37.75 0.15 -38.4 4.95 -36.4 10.45 -36.1 14.15 L-32.6 56.3 Q-28.3 74.95 -37.4 85.2 L-37.55 85.6 -37.6 85.9 Q-39.35 91.35 -43.05 95.15 -42.45 83.9 -46.05 76.55 -53.85 58.95 -60.55 46.5 -67.3 34.0 -68.9 25.1 -70.5 16.2 -70.95 7.8 -68.5 9.2 -65.8 8.05 -72.2 4.15 -71.95 -5.75 -71.9 -15.8 -66.4 -4.15 -78.65 -34.15 -49.05 -95.1 -26.0 -71.65 -18.15 -56.15" fill="url(#gradient0)" fill-rule="evenodd" stroke="none"/>
  </g>
  <defs>
    <linearGradient gradientTransform="matrix(0.0, 0.0988, -0.0879, 0.0, 0.05, 63.8)" gradientUnits="userSpaceOnUse" id="gradient0" spreadMethod="pad" x1="-819.2" x2="819.2">
      <stop offset="0.0" stop-color="#fff23c" stop-opacity="0.0"/>
      <stop offset="0.3803921568627451" stop-color="#fff23c" stop-opacity="0.84705883"/>
      <stop offset="0.6039215686274509" stop-color="#fff23c" stop-opacity="0.8"/>
      <stop offset="1.0" stop-color="#fff23c" stop-opacity="0.0"/>
    </linearGradient>
  </defs>
</svg>
