<?xml version="1.0" encoding="UTF-8" standalone="no"?>
<svg xmlns:xlink="http://www.w3.org/1999/xlink" height="109.55px" width="128.25px" xmlns="http://www.w3.org/2000/svg">
  <g transform="matrix(1.0, 0.0, 0.0, 1.0, 64.1, 54.8)">
    <path d="M10.1 -51.35 Q14.2 -53.8 17.85 -50.2 22.95 -53.65 27.25 -49.25 31.3 -51.25 34.55 -48.1 37.95 -50.55 41.8 -46.9 46.55 -49.05 49.1 -45.6 54.15 -46.75 56.05 -42.0 59.5 -40.9 60.8 -38.55 62.15 -36.15 61.25 -32.5 64.7 -27.2 61.85 -21.5 64.4 -16.85 61.95 -12.15 63.65 -7.6 61.6 -2.9 63.35 2.9 60.55 12.35 57.35 -6.5 44.95 -2.5 19.1 4.8 -8.8 -4.05 -19.5 -5.65 -26.2 -1.65 -33.2 4.4 -33.2 32.95 -46.35 42.3 -51.55 53.75 -58.05 45.65 -59.5 36.25 -63.0 26.05 -59.85 16.4 -62.65 12.8 -61.9 9.1 -64.8 2.95 -60.75 -0.55 -63.0 -6.5 -61.05 -11.55 -61.95 -15.05 -60.6 -18.5 -61.85 -23.15 -59.05 -26.6 -60.05 -30.0 -58.05 -33.45 -57.7 -38.7 -55.3 -40.9 -53.9 -42.2 -51.85 -42.45 -48.8 -47.2 -42.55 -46.1 -38.85 -50.35 -33.1 -48.5 -28.55 -52.25 -24.2 -49.8 -19.7 -53.0 -15.05 -50.8 -11.25 -54.7 -6.75 -52.25 -3.15 -55.3 0.85 -52.4 5.75 -55.45 10.1 -51.35 Z" fill="none" stroke="#000000" stroke-linecap="round" stroke-linejoin="round" stroke-width="2.0"/>
  </g>
</svg>
