<?xml version="1.0" encoding="UTF-8" standalone="no"?>
<svg xmlns:xlink="http://www.w3.org/1999/xlink" height="181.6px" width="175.35px" xmlns="http://www.w3.org/2000/svg">
  <g transform="matrix(1.0, 0.0, 0.0, 1.0, 87.65, 90.8)">
    <path d="M-38.25 37.4 L-36.65 41.9 Q-32.8 51.65 -28.15 57.7 -35.85 55.4 -40.45 49.3 -37.7 64.7 -25.95 76.25 -44.5 67.05 -43.7 53.75 -45.65 69.15 -29.75 78.2 -44.55 76.1 -47.95 66.75 -46.65 74.15 -40.15 84.9 -53.15 77.35 -55.55 60.4 -53.95 75.15 -47.3 89.8 -65.65 65.7 -67.3 48.4 L-67.3 48.7 -67.4 49.85 -67.55 55.85 Q-72.9 43.25 -70.9 29.3 L-70.8 28.6 -71.2 29.3 Q-75.3 36.6 -75.9 43.9 L-76.1 41.45 Q-76.65 35.8 -76.55 29.3 -76.5 19.85 -75.2 8.55 -76.35 3.1 -76.9 -2.15 -81.55 14.9 -80.45 29.3 -79.65 39.7 -74.8 56.0 -83.15 44.05 -86.05 26.05 -89.0 8.05 -77.55 -14.35 -77.45 -20.45 -76.55 -26.15 -92.0 -57.45 -41.45 -79.95 L-37.75 -82.6 Q-14.75 -95.85 17.65 -84.8 35.65 -85.1 50.45 -71.8 57.0 -65.5 61.35 -58.9 81.75 -41.8 75.45 -24.9 79.8 -18.4 86.7 -13.1 80.2 -13.35 74.65 -17.9 90.55 10.2 68.45 43.25 77.9 18.45 74.25 -0.95 73.35 12.05 68.4 21.45 64.85 29.55 64.3 37.7 L65.7 58.15 Q59.55 50.2 59.3 40.35 58.35 43.75 56.25 46.6 50.3 55.3 34.9 58.55 42.45 52.75 47.2 43.55 40.5 52.25 30.45 52.15 43.45 47.05 49.75 34.0 43.75 39.0 35.4 40.75 45.1 35.75 50.25 29.3 53.5 25.2 54.9 20.55 64.6 -11.65 42.85 -43.8 35.95 -53.95 30.9 -48.45 28.5 -48.7 26.45 -47.75 20.15 -55.4 5.7 -52.3 -7.1 -49.5 -14.3 -40.7 -26.55 -25.85 -18.1 -13.2 -24.7 -14.6 -24.6 -20.05 -24.85 -15.65 -24.05 -11.1 -32.4 -16.25 -27.45 -24.85 -40.9 -2.7 -29.85 17.4 -26.35 23.7 -23.85 29.3 -18.3 41.85 -17.7 50.9 -20.5 43.05 -24.8 36.95 -21.8 43.6 -21.6 50.35 -28.75 40.8 -31.95 34.8 L-35.4 28.1 -35.15 29.3 Q-32.95 38.55 -26.35 45.9 -35.2 42.6 -38.2 37.45 M47.25 -43.6 Q54.55 -51.3 45.7 -64.85 36.8 -78.4 20.1 -75.15 24.6 -81.85 38.45 -78.2 52.25 -74.55 55.0 -61.5 57.75 -48.5 47.25 -43.6 M67.05 -47.55 Q68.25 -44.25 68.9 -40.9 70.0 -35.2 72.45 -30.1 73.45 -39.25 67.05 -47.55 65.0 -53.35 61.35 -58.9 M75.45 -24.9 Q73.75 -27.45 72.45 -30.1 M74.45 -19.1 L74.65 -17.9 73.85 -18.6 74.25 -13.6 74.45 -5.55 74.25 -0.95 M-21.0 -49.95 Q-23.9 -60.75 -11.9 -71.6 0.1 -82.4 15.2 -75.0 12.65 -82.6 -1.55 -82.65 -15.7 -82.65 -21.95 -70.5 -28.25 -58.35 -21.0 -49.95 M-76.55 -26.15 L-75.85 -30.0 Q-77.75 -53.0 -48.45 -74.5 L-48.25 -74.65 Q-45.05 -77.4 -41.45 -79.95 M-76.9 -2.15 L-76.95 -2.55 Q-77.65 -8.6 -77.55 -14.35 M-24.55 -21.1 L-24.6 -20.05 M-75.85 -30.0 Q-70.55 -55.6 -48.45 -74.5 M-67.3 48.7 Q-70.35 23.3 -65.1 5.95 M-56.05 54.5 L-55.8 58.1 -55.55 60.4 M-40.6 49.1 L-40.45 49.3" fill="none" stroke="#000000" stroke-linecap="round" stroke-linejoin="round" stroke-width="2.0"/>
    <path d="M-38.2 37.45 L-38.25 37.4" fill="none" stroke="#000000" stroke-linecap="round" stroke-linejoin="round" stroke-width="1.6"/>
    <path d="M-38.25 37.4 Q-52.95 16.55 -47.55 -10.4" fill="none" stroke="#000000" stroke-linecap="round" stroke-linejoin="round" stroke-opacity="0.7294118" stroke-width="1.6"/>
    <path d="M24.15 -60.7 Q19.15 -68.95 9.5 -69.7 -6.2 -69.95 -18.0 -64.65 M24.6 -56.25 Q18.0 -62.2 9.8 -61.6 -19.2 -56.85 -30.55 -31.8 M54.8 -51.25 Q64.75 -37.15 66.95 -23.05 M26.7 -60.85 Q39.55 -72.1 49.9 -56.2 M27.05 -55.8 Q39.2 -64.95 49.2 -46.1 M59.35 41.15 Q58.8 36.0 60.5 27.45 M47.2 43.55 Q52.95 33.25 54.55 27.6 M51.75 -42.9 Q73.35 -8.8 60.3 20.0 M-15.9 -79.1 Q-44.55 -67.4 -55.35 -47.95 -66.8 -27.25 -63.85 -4.4 M-25.45 -61.4 Q-34.15 -54.8 -40.9 -44.05 M-47.9 66.8 Q-54.5 48.9 -53.8 28.65 M-75.15 8.6 Q-73.3 -14.25 -69.15 -29.1" fill="none" stroke="#000000" stroke-linecap="round" stroke-linejoin="round" stroke-opacity="0.49803922" stroke-width="1.5"/>
    <path d="M-49.05 -34.2 Q-57.7 1.7 -50.05 30.05 -69.1 -2.35 -54.7 -29.1" fill="none" stroke="#000000" stroke-linecap="round" stroke-linejoin="round" stroke-width="1.6"/>
    <path d="M-56.05 54.55 Q-56.5 33.5 -59.25 26.55" fill="none" stroke="#000000" stroke-linecap="round" stroke-linejoin="round" stroke-opacity="0.7294118" stroke-width="1.6"/>
  </g>
</svg>
