<?xml version="1.0" encoding="UTF-8" standalone="no"?>
<svg xmlns:xlink="http://www.w3.org/1999/xlink" height="25.45px" width="144.7px" xmlns="http://www.w3.org/2000/svg">
  <g transform="matrix(1.0, 0.0, 0.0, 1.0, 61.3, 38.2)">
    <path d="M75.25 -34.65 Q75.25 -34.1 74.9 -33.75 74.55 -33.4 74.05 -33.4 73.6 -33.4 73.25 -33.75 72.9 -34.1 72.9 -34.65 72.9 -35.15 73.25 -35.5 73.6 -35.85 74.05 -35.85 L74.9 -35.5 75.25 -34.65 M77.3 -30.0 Q77.35 -29.2 77.0 -28.65 76.65 -28.0 76.1 -28.0 75.6 -28.0 75.1 -28.65 74.65 -29.2 74.55 -30.0 74.5 -30.8 74.9 -31.4 75.2 -31.95 75.7 -31.95 L76.75 -31.4 Q77.25 -30.8 77.3 -30.0 M77.45 -13.5 L76.65 -13.9 Q73.4 -15.5 72.9 -17.3 72.65 -18.5 75.0 -18.55 L78.85 -17.0 79.05 -16.85 Q81.95 -14.75 81.25 -12.9 80.0 -12.4 77.45 -13.5 M79.95 -23.75 L83.3 -22.35 Q83.75 -19.15 82.45 -18.5 L79.55 -19.35 Q76.7 -20.4 75.55 -21.85 73.9 -23.2 75.1 -24.25 76.9 -24.8 79.95 -23.75" fill="#1b1d1e" fill-rule="evenodd" stroke="none"/>
    <path d="M59.45 -33.2 L61.3 -34.95 Q68.6 -37.9 72.55 -38.2 72.2 -33.7 69.7 -30.4 73.25 -28.7 74.75 -26.95 73.05 -24.8 68.8 -22.95 L70.8 -19.3 Q68.6 -18.3 67.0 -18.85 L65.15 -22.6 Q62.75 -29.0 59.45 -33.2 M-44.15 -31.0 Q-49.3 -24.9 -52.5 -16.4 L-52.6 -16.25 Q-53.75 -13.45 -54.55 -13.95 L-54.15 -18.7 Q-58.05 -17.2 -61.3 -18.05 L-54.55 -26.8 Q-59.45 -30.4 -61.3 -34.0 -53.7 -34.8 -49.4 -36.6 -47.35 -33.75 -44.15 -31.0" fill="#ffffff" fill-rule="evenodd" stroke="none"/>
  </g>
</svg>
