<?xml version="1.0" encoding="UTF-8" standalone="no"?>
<svg xmlns:xlink="http://www.w3.org/1999/xlink" height="160.25px" width="143.05px" xmlns="http://www.w3.org/2000/svg">
  <g transform="matrix(1.0, 0.0, 0.0, 1.0, 71.5, 80.1)">
    <path d="M-33.05 -71.45 Q-22.6 -80.55 -2.3 -80.1 8.2 -79.25 18.1 -75.45 35.6 -70.6 50.25 -73.75 44.8 -69.4 37.95 -68.85 51.05 -60.5 56.65 -44.4 62.2 -28.35 59.6 -6.75 57.1 10.6 63.15 20.65 72.6 34.35 70.95 41.95 70.35 44.05 68.95 45.85 L68.7 46.15 67.65 46.9 Q67.3 46.0 66.65 45.35 65.25 45.55 63.8 46.45 61.6 47.7 59.1 50.45 57.5 48.9 56.0 50.45 51.5 46.25 47.1 43.85 L46.15 43.4 Q44.95 43.7 44.4 45.75 44.1 46.9 43.95 48.6 40.65 44.3 40.35 41.8 58.1 35.2 56.65 11.9 55.3 0.65 56.55 -5.4 57.1 -23.25 51.45 -31.55 42.45 -47.95 19.75 -50.05 -0.6 -52.05 -17.05 -39.5 -33.2 -27.1 -37.05 -7.15 -39.4 1.05 -38.1 9.75 -37.5 16.75 -34.4 21.0 L-29.0 28.75 Q-27.55 31.15 -26.75 34.5 L-26.15 37.9 Q-25.95 42.6 -28.95 46.15 L-29.95 46.9 Q-30.35 46.0 -31.0 45.35 -32.35 45.55 -33.85 46.45 -36.05 47.7 -38.5 50.45 -40.1 48.9 -41.7 50.45 -46.55 45.8 -51.5 43.4 -52.65 43.7 -53.25 45.75 -53.65 47.2 -53.75 49.6 -62.5 44.1 -63.75 34.5 -64.45 29.05 -62.8 22.25 L-58.3 8.45 Q-67.05 5.55 -70.8 -1.8 -73.45 -6.7 -65.95 -23.85 -60.2 -41.1 -52.2 -56.2 -43.9 -68.0 -33.05 -71.45 M-50.65 57.6 L-49.5 57.75 Q-50.3 58.1 -49.5 60.15 -48.5 62.8 -44.85 63.8 -42.85 62.75 -40.85 55.95 L-39.6 56.2 Q-37.65 62.4 -35.6 63.45 -34.8 63.05 -34.0 62.3 L-32.3 59.8 Q-26.1 68.0 -26.1 75.5 -30.3 79.7 -38.15 79.9 -37.85 74.0 -40.1 68.75 -41.4 73.7 -40.75 80.15 -50.45 78.95 -55.05 76.15 L-57.5 74.15 Q-56.4 65.45 -50.65 57.6 M58.05 56.2 Q60.0 62.4 62.0 63.45 L63.6 62.3 65.3 59.8 Q71.55 68.0 71.55 75.5 67.35 79.7 59.5 79.9 59.8 74.0 57.5 68.75 56.25 73.7 56.9 80.15 47.2 78.95 42.55 76.15 L40.15 74.15 Q41.25 65.45 47.0 57.6 L48.15 57.75 Q47.3 58.1 48.15 60.15 49.15 62.8 52.75 63.8 54.8 62.75 56.75 55.95 L58.05 56.2" fill="url(#gradient0)" fill-rule="evenodd" stroke="none"/>
  </g>
  <defs>
    <linearGradient gradientTransform="matrix(0.0, 0.1025, -0.0873, 0.0, 0.05, 49.8)" gradientUnits="userSpaceOnUse" id="gradient0" spreadMethod="pad" x1="-819.2" x2="819.2">
      <stop offset="0.0" stop-color="#fff23c" stop-opacity="0.0"/>
      <stop offset="0.3803921568627451" stop-color="#fff23c" stop-opacity="0.84705883"/>
      <stop offset="0.6039215686274509" stop-color="#fff23c" stop-opacity="0.8"/>
      <stop offset="1.0" stop-color="#fff23c" stop-opacity="0.0"/>
    </linearGradient>
  </defs>
</svg>
