<?xml version="1.0" encoding="UTF-8" standalone="no"?>
<svg xmlns:xlink="http://www.w3.org/1999/xlink" height="237.8px" width="153.7px" xmlns="http://www.w3.org/2000/svg">
  <g transform="matrix(1.0, 0.0, 0.0, 1.0, 76.85, 118.9)">
    <path d="M-54.95 -96.8 Q-53.55 -103.85 -45.1 -103.8 -43.7 -106.5 -41.5 -106.35 -38.5 -111.8 -34.05 -110.05 -12.2 -115.9 12.85 -111.2 18.5 -113.35 24.25 -118.9 24.5 -113.2 20.7 -108.65 35.85 -104.2 44.0 -91.35 55.2 -73.15 57.2 -51.6 58.55 -37.95 57.15 -22.85 55.85 -9.7 56.3 4.5 57.6 50.1 64.85 66.55 78.65 94.85 76.6 103.65 74.35 115.55 64.3 118.9 66.7 112.25 67.1 101.7 61.95 115.5 54.4 115.5 L54.35 115.5 Q42.25 120.55 36.25 116.9 52.25 105.65 35.75 76.55 25.55 56.65 35.75 8.9 L41.65 4.5 Q44.8 1.95 46.8 -1.1 53.65 -11.25 48.75 -26.75 50.15 -55.85 42.3 -78.95 5.3 -87.5 -40.35 -74.2 -42.6 -56.15 -34.85 -27.2 -27.45 -5.45 -23.75 15.3 -18.8 41.85 -21.75 63.55 -24.2 74.8 -30.3 86.35 -39.15 105.75 -25.55 116.95 -36.3 121.0 -43.85 115.9 -53.95 109.35 -56.75 100.75 -57.3 109.85 -54.35 118.9 -65.85 114.0 -66.55 101.8 -66.45 97.0 -65.5 92.45 -63.9 85.95 -60.45 78.85 -53.55 66.7 -50.55 54.65 -48.8 47.0 -48.9 39.45 -48.05 4.0 -61.9 -25.55 -63.5 -26.45 -65.45 -26.15 -67.45 -25.85 -69.1 -24.45 -75.5 -31.25 -76.8 -41.15 -77.15 -49.05 -73.65 -60.2 -73.5 -62.1 -73.0 -63.85 -71.35 -70.1 -70.1 -71.4 -71.7 -74.6 -72.05 -76.5 -73.05 -79.2 -66.95 -83.25 -67.8 -84.55 -67.8 -85.3 -68.15 -86.65 -64.25 -88.1 -64.0 -96.0 -54.95 -96.8 M-27.15 28.0 Q-25.15 55.6 -34.6 81.9 -26.95 72.1 -25.8 59.75 -24.1 43.85 -27.15 28.0 M36.25 46.75 Q33.85 70.85 45.8 85.3 39.15 65.55 36.25 46.75" fill="url(#gradient0)" fill-rule="evenodd" stroke="none"/>
  </g>
  <defs>
    <linearGradient gradientTransform="matrix(0.0, 0.1069, -0.0938, 0.0, 0.0, 21.6)" gradientUnits="userSpaceOnUse" id="gradient0" spreadMethod="pad" x1="-819.2" x2="819.2">
      <stop offset="0.0" stop-color="#fff23c" stop-opacity="0.0"/>
      <stop offset="0.3803921568627451" stop-color="#fff23c" stop-opacity="0.84705883"/>
      <stop offset="0.6039215686274509" stop-color="#fff23c" stop-opacity="0.8"/>
      <stop offset="1.0" stop-color="#fff23c" stop-opacity="0.0"/>
    </linearGradient>
  </defs>
</svg>
