<?xml version="1.0" encoding="UTF-8" standalone="no"?>
<svg xmlns:xlink="http://www.w3.org/1999/xlink" height="201.35px" width="158.35px" xmlns="http://www.w3.org/2000/svg">
  <g transform="matrix(1.0, 0.0, 0.0, 1.0, 79.2, 100.65)">
    <path d="M-55.9 88.65 L-55.6 88.55 -55.45 88.5 Q-46.45 84.15 -46.1 48.95 L-46.1 48.1 Q-46.9 35.65 -46.35 23.1 -46.05 16.15 -45.25 9.0 L-43.9 -4.15 -47.6 -9.8 Q-52.05 -13.75 -57.7 -11.8 -62.0 -14.75 -62.9 -21.3 -63.6 -26.05 -60.65 -37.0 -64.75 -34.15 -68.6 -33.65 -74.25 -32.55 -78.2 -38.95 -74.65 -37.2 -70.05 -38.1 -65.45 -39.1 -58.5 -46.95 -59.45 -49.15 -59.6 -50.4 -59.7 -52.0 -57.65 -52.1 -58.95 -54.85 -58.95 -56.8 -57.5 -62.85 -52.95 -62.9 L-53.55 -65.3 Q-52.65 -67.55 -50.4 -65.0 -50.7 -66.95 -50.45 -68.95 -48.15 -77.25 -40.5 -77.05 -40.35 -80.65 -36.8 -80.4 -40.35 -92.05 -28.0 -99.65 -33.2 -90.7 -36.0 -81.4 -26.1 -92.5 -1.6 -96.45 0.8 -96.65 3.05 -95.45 9.1 -97.65 19.0 -96.3 40.35 -93.1 53.8 -79.0 64.65 -66.85 65.8 -54.75 68.85 -29.7 65.8 -9.05 68.35 8.55 68.3 22.95 68.85 35.5 68.1 47.85 L68.1 47.9 Q68.4 84.2 77.8 88.3 L78.15 88.5 M77.8 88.3 Q68.2 84.35 65.5 73.6 61.65 93.25 51.85 99.5 56.65 91.75 59.6 83.0 56.85 90.35 49.1 97.7 L46.4 95.1 42.5 91.3 Q47.1 83.65 48.45 76.05 46.6 82.85 40.35 89.75 L37.05 87.25 33.7 84.85 Q43.7 57.25 46.65 21.7 57.6 15.55 61.3 4.65 63.05 -1.3 60.85 -10.6 L62.75 -32.35 Q60.55 -21.25 54.65 -16.4 64.65 -35.2 58.1 -60.0 57.3 -65.25 55.55 -66.55 L52.45 -66.3 Q51.0 -69.7 49.6 -70.05 48.2 -67.75 45.45 -72.0 L42.6 -71.95 40.45 -70.95 Q38.95 -71.7 38.35 -73.05 36.9 -71.65 35.8 -71.25 34.5 -71.9 33.45 -73.35 30.8 -73.95 27.55 -70.85 26.25 -70.3 23.9 -72.75 23.1 -71.55 21.55 -71.05 19.1 -71.1 14.65 -73.85 12.8 -71.5 10.95 -71.0 8.95 -71.2 6.9 -73.45 5.0 -71.0 3.4 -70.7 2.05 -71.25 0.9 -73.0 L-2.85 -71.35 -4.8 -70.0 -4.95 -71.15 Q-4.9 -72.65 -10.75 -67.45 -12.15 -66.45 -13.5 -67.8 -15.45 -62.25 -18.55 -63.45 -19.3 -60.2 -22.6 -61.25 -21.65 -59.55 -23.8 -56.7 -28.05 -13.1 -25.05 23.1 -22.3 57.4 -12.5 85.05 L-15.8 87.5 -19.05 89.95 Q-25.15 83.05 -26.95 76.2 -25.65 83.85 -21.2 91.55 L-25.0 95.25 -27.65 97.9 Q-35.1 90.55 -37.85 83.2 -34.95 91.95 -30.25 99.7 -39.8 93.55 -43.6 73.8 -46.25 84.4 -55.45 88.5 M3.05 -95.45 Q5.95 -93.75 8.65 -89.7 M62.75 -32.35 L62.8 -33.35 M68.1 47.9 L68.0 49.5 Q67.55 63.45 65.5 73.6 M61.1 74.4 Q61.15 78.3 59.85 82.2 L59.7 82.7 59.6 83.0 M60.15 49.5 Q61.2 76.95 46.4 95.1 M37.05 87.25 Q39.55 85.6 44.35 77.4 M-36.8 -80.4 L-36.0 -81.4 M-40.5 -77.05 Q-38.35 -72.3 -32.7 -67.65 M-36.8 -80.4 L-27.05 -71.5 M-45.25 -55.8 Q-49.5 -60.3 -50.4 -65.0 M-60.65 -37.0 L-58.05 -45.95 -58.5 -46.95 M-52.95 -22.1 Q-51.55 -16.4 -47.6 -9.8 M-43.05 -17.05 Q-43.05 -13.6 -43.9 -4.15 M-43.05 -24.15 Q-54.45 -39.0 -58.05 -45.95 M-42.5 -48.15 Q-50.75 -56.9 -52.95 -62.9 M-46.1 -35.8 Q-54.85 -45.95 -57.65 -52.1 M-46.1 48.95 L-46.05 49.8 Q-45.6 63.6 -43.6 73.8 M-39.2 74.6 Q-39.35 78.45 -38.05 82.4 L-37.9 82.9 -37.85 83.2 M-38.4 49.8 Q-39.4 77.15 -25.0 95.25 M-15.8 87.5 Q-18.2 85.85 -22.95 77.6" fill="none" stroke="#000000" stroke-linecap="round" stroke-linejoin="round" stroke-width="2.0"/>
  </g>
</svg>
