<?xml version="1.0" encoding="UTF-8" standalone="no"?>
<svg xmlns:xlink="http://www.w3.org/1999/xlink" height="50.3px" width="101.1px" xmlns="http://www.w3.org/2000/svg">
  <g transform="matrix(1.0, 0.0, 0.0, 1.0, 50.55, 25.15)">
    <path d="M16.9 -2.65 L14.75 -3.7 Q15.55 -11.5 19.9 -17.3 25.4 -24.55 33.05 -24.55 L34.85 -24.5 Q28.25 -23.85 23.4 -17.3 17.9 -10.1 17.9 0.0 L17.9 0.5 Q17.7 -0.95 16.9 -2.65 M26.6 -9.2 Q28.25 -13.35 31.8 -16.15 35.4 -18.9 43.8 -15.45 51.8 -12.2 50.3 1.6 48.65 15.35 42.35 16.8 36.05 17.95 31.7 15.5 22.55 4.45 29.7 -3.25 36.85 -10.9 42.3 -4.6 47.7 1.55 43.6 6.45 39.55 11.45 36.95 9.05 34.3 6.45 35.0 3.25 L35.35 3.0 Q36.4 2.6 36.95 3.7 37.15 4.65 37.7 5.6 38.2 6.55 39.2 6.85 39.95 7.15 40.7 5.45 43.25 -0.4 39.0 -1.55 34.7 -2.75 33.05 0.15 31.35 3.0 31.3 3.55 30.25 8.5 34.6 12.35 45.35 16.6 47.85 2.5 L48.2 -1.4 47.45 -4.85 Q45.6 -11.9 40.1 -13.6 32.25 -15.9 28.65 -6.65 27.8 -5.15 26.45 -4.6 24.9 -5.25 26.6 -9.2 M34.85 24.65 L33.05 24.65 Q25.4 24.65 19.9 17.35 15.3 11.25 14.65 2.9 16.0 3.3 17.25 4.05 17.8 3.0 17.95 1.8 18.35 10.9 23.4 17.35 28.25 23.9 34.85 24.65 M-48.95 -8.95 Q-47.15 -13.8 -43.2 -17.8 -35.85 -25.15 -25.45 -25.15 L-23.15 -25.05 Q-32.15 -24.4 -38.7 -17.8 -46.05 -10.45 -46.05 0.0 L-46.05 0.95 Q-45.7 10.85 -38.7 17.8 -32.15 24.4 -23.15 25.05 L-25.45 25.15 Q-35.85 25.15 -43.2 17.8 -50.55 10.4 -50.55 0.0 L-50.4 -2.75 -50.3 -2.75 Q-50.05 -6.9 -48.95 -8.95 M-34.4 -9.55 Q-32.15 -13.65 -27.15 -16.5 -22.3 -19.4 -11.15 -15.85 -0.15 -12.45 -2.15 1.6 -4.35 15.6 -13.05 17.05 -21.55 18.25 -27.3 15.85 L-31.3 13.45 Q-39.5 2.25 -29.8 -4.3 -20.15 -10.85 -13.15 -4.75 -5.7 1.55 -11.35 6.55 -16.85 11.65 -20.35 9.2 -24.0 6.55 -22.85 3.25 L-22.45 3.0 Q-21.0 2.6 -20.35 3.7 L-19.35 5.15 -18.7 6.15 -18.55 6.2 Q-17.35 7.8 -15.25 6.2 -9.75 -3.25 -22.7 -2.75 -24.05 -2.75 -25.75 -1.55 -33.5 6.45 -23.75 12.05 -7.75 15.05 -5.65 2.5 -5.0 0.4 -5.25 -1.45 L-6.1 -5.15 Q-8.45 -12.2 -16.15 -14.0 -26.8 -16.25 -31.65 -6.95 -32.55 -5.35 -34.65 -4.75 -36.75 -5.4 -34.4 -9.55" fill="#194832" fill-rule="evenodd" stroke="none"/>
  </g>
</svg>
