<?xml version="1.0" encoding="UTF-8" standalone="no"?>
<svg xmlns:xlink="http://www.w3.org/1999/xlink" height="12.1px" width="84.05px" xmlns="http://www.w3.org/2000/svg">
  <g transform="matrix(1.0, 0.0, 0.0, 1.0, 42.05, 6.05)">
    <path d="M21.95 -2.1 L17.8 -2.1 17.8 -6.05 21.95 -6.05 21.95 -2.1 25.8 -2.1 25.8 1.8 29.95 1.8 29.95 6.05 25.8 6.05 25.8 1.8 21.95 1.8 21.95 -2.1 M34.05 -2.1 L29.95 -2.1 29.95 -6.05 34.05 -6.05 34.05 -2.1 37.9 -2.1 37.9 1.8 42.0 1.8 42.0 6.05 37.9 6.05 37.9 1.8 34.05 1.8 34.05 -2.1 M-38.15 -1.95 L-42.05 -1.95 -42.05 -6.05 -38.15 -6.05 -38.15 -1.95 -34.3 -1.95 -34.3 -6.05 -29.8 -6.05 -29.8 -1.95 -26.1 -1.95 -26.1 1.9 -21.8 1.9 -21.8 6.05 -26.1 6.05 -26.1 1.9 -29.8 1.9 -29.8 6.05 -34.3 6.05 -34.3 1.9 -38.15 1.9 -38.15 -1.95 M-34.3 -1.95 L-34.3 1.9 -29.8 1.9 -29.8 -1.95 -34.3 -1.95" fill="#ffffff" fill-rule="evenodd" stroke="none"/>
  </g>
</svg>
