<?xml version="1.0" encoding="UTF-8" standalone="no"?>
<svg xmlns:xlink="http://www.w3.org/1999/xlink" height="48.35px" width="96.9px" xmlns="http://www.w3.org/2000/svg">
  <g transform="matrix(1.0, 0.0, 0.0, 1.0, 48.45, 24.2)">
    <path d="M15.4 3.35 Q15.15 1.55 15.2 -0.3 15.3 -9.7 20.05 -16.35 24.9 -23.0 31.6 -22.8 38.35 -22.65 42.85 -15.95 47.55 -9.2 47.45 0.05 47.35 9.3 42.5 15.95 37.85 22.5 31.15 22.5 24.45 22.5 19.75 15.85 17.3 12.25 16.15 7.9 12.15 3.25 7.95 2.9 L7.2 2.85 Q1.7 2.8 -5.4 7.25 -6.85 12.3 -10.7 16.4 -16.95 23.1 -25.85 23.15 -34.75 23.1 -41.1 16.3 -47.45 9.45 -47.45 -0.25 -47.45 -9.85 -41.1 -16.6 -34.65 -23.4 -25.7 -23.2 -16.7 -23.05 -10.5 -16.15 -4.3 -9.3 -4.35 0.15 -4.35 1.55 -4.5 2.95 1.35 -1.25 6.55 -1.05 L8.05 -1.0 Q11.75 -0.5 15.4 3.35 15.55 5.7 16.15 7.9 M-4.5 2.95 Q-4.8 5.2 -5.4 7.25" fill="none" stroke="#000000" stroke-linecap="round" stroke-linejoin="round" stroke-width="2.0"/>
  </g>
</svg>
