<?xml version="1.0" encoding="UTF-8" standalone="no"?>
<svg xmlns:xlink="http://www.w3.org/1999/xlink" height="38.95px" width="78.3px" xmlns="http://www.w3.org/2000/svg">
  <g transform="matrix(1.0, 0.0, 0.0, 1.0, 39.15, 19.5)">
    <path d="M2.9 -14.3 L-2.25 9.2 -3.95 9.5 -4.1 9.5 -3.65 7.4 1.2 -14.3 2.9 -14.3 M34.0 -17.9 Q34.0 -18.95 34.6 -19.25 L35.75 -19.15 Q36.45 -18.75 36.9 -17.75 37.35 -16.75 37.25 -15.65 37.2 -14.85 36.75 -14.45 36.2 -14.1 35.55 -14.45 34.9 -14.85 34.4 -15.95 34.0 -16.85 34.0 -17.9 M37.9 -12.75 Q38.5 -12.25 38.85 -11.15 39.25 -10.1 39.1 -9.15 L38.7 -7.95 Q38.25 -7.6 37.65 -7.95 37.2 -8.4 36.8 -9.4 36.45 -10.35 36.45 -11.2 36.45 -12.45 36.95 -12.85 L37.9 -12.75 M27.65 -18.15 L24.2 16.15 21.5 17.05 25.2 -17.35 27.65 -18.15 M22.95 -16.6 L19.3 17.7 16.7 18.35 20.5 -16.05 22.95 -16.6 M-0.45 -14.3 L-4.8 4.7 -6.05 10.05 -7.65 10.85 -2.4 -14.35 -0.45 -14.3 M-29.2 -4.0 L-23.85 -16.35 -20.2 -15.7 -18.65 -15.55 -17.15 -15.4 -26.7 19.45 -28.85 18.9 -28.3 17.15 -28.15 16.75 -28.15 16.5 -28.0 16.0 -29.35 15.7 -30.3 18.65 -35.3 17.45 -33.0 8.3 -36.65 17.05 -39.15 16.35 -37.85 12.65 -27.6 -17.1 -25.65 -16.6 -29.2 -4.0" fill="#c3fbd8" fill-rule="evenodd" stroke="none"/>
  </g>
</svg>
