<?xml version="1.0" encoding="UTF-8" standalone="no"?>
<svg xmlns:xlink="http://www.w3.org/1999/xlink" height="37.55px" width="108.85px" xmlns="http://www.w3.org/2000/svg">
  <g transform="matrix(1.0, 0.0, 0.0, 1.0, 54.45, 18.8)">
    <path d="M5.25 -14.5 Q6.0 -8.5 5.5 -3.45 L15.05 -3.2 Q14.6 -8.4 15.15 -14.55 18.1 -18.05 32.5 -17.25 50.7 -15.25 52.8 -11.8 L54.4 -10.5 53.95 -6.05 52.9 -5.8 Q52.65 5.8 49.5 10.7 43.9 19.5 30.7 18.7 21.25 17.05 17.55 8.05 16.6 5.6 15.95 2.85 L4.35 2.5 Q3.35 5.8 1.7 8.6 -3.7 17.6 -17.55 18.45 -36.95 18.15 -45.3 8.6 -49.55 3.65 -50.1 -7.2 L-53.25 -7.65 Q-54.35 -11.15 -54.45 -13.7 L-51.8 -15.45 Q-46.8 -18.3 -20.25 -18.8 0.9 -18.4 5.25 -14.5 M47.5 -8.6 Q34.9 -12.65 20.3 -10.7 19.95 5.95 25.45 11.15 29.8 14.6 35.8 13.35 49.1 11.5 47.5 -8.6 M-43.9 -10.95 Q-45.4 9.2 -25.2 12.45 -16.05 14.3 -9.4 11.15 0.65 6.25 -0.85 -11.05 -23.9 -14.2 -43.9 -10.95" fill="#adadad" fill-rule="evenodd" stroke="none"/>
  </g>
</svg>
