<?xml version="1.0" encoding="UTF-8" standalone="no"?>
<svg xmlns:xlink="http://www.w3.org/1999/xlink" height="45.45px" width="107.85px" xmlns="http://www.w3.org/2000/svg">
  <g transform="matrix(1.0, 0.0, 0.0, 1.0, 57.6, 32.45)">
    <path d="M15.85 -25.35 L16.7 -29.25 Q40.65 -27.15 47.3 -22.45 49.25 -19.1 49.4 -10.15 L49.3 -3.45 49.25 -3.3 Q48.6 9.1 43.15 11.15 36.55 13.9 17.3 8.4 12.7 7.35 8.55 7.65 L8.5 7.65 9.4 3.6 Q13.8 3.4 18.65 4.5 L18.85 4.55 Q36.15 9.5 42.05 7.45 L42.2 7.4 Q45.05 5.7 45.65 -2.2 L45.85 -11.45 Q45.65 -16.95 44.65 -19.65 37.65 -23.55 15.85 -25.35" fill="#fa57e6" fill-rule="evenodd" stroke="none"/>
    <path d="M-52.85 -11.0 L-52.45 -11.7 Q-51.25 -13.25 -49.65 -13.25 L-48.3 -12.95 -47.8 -12.7 -49.15 -20.45 Q-47.35 -23.65 -42.6 -22.85 -43.95 -21.8 -44.85 -20.75 -46.3 -19.2 -46.75 -17.6 L-46.3 -10.9 Q-45.6 -9.55 -45.6 -7.8 -45.6 -5.55 -46.8 -4.0 L-47.65 -3.1 Q-48.55 -2.35 -49.65 -2.35 -51.15 -2.35 -52.3 -3.85 L-52.45 -4.0 Q-53.6 -5.55 -53.6 -7.8 -53.6 -9.6 -52.85 -11.0" fill="#52efff" fill-rule="evenodd" stroke="none"/>
    <path d="M16.7 -31.85 Q41.65 -29.85 47.7 -25.0 50.1 -19.55 50.25 -10.2 L50.15 -3.2 50.1 -3.05 Q49.45 9.9 43.85 12.05 37.05 14.95 17.3 9.2 12.6 8.1 8.25 8.4 L8.1 8.4 8.55 7.65 Q12.7 7.35 17.3 8.4 36.55 13.9 43.15 11.15 48.6 9.1 49.25 -3.3 L49.3 -3.45 49.4 -10.15 Q49.25 -19.1 47.3 -22.45 40.65 -27.15 16.7 -29.25 L16.7 -31.85" fill="#723aa8" fill-rule="evenodd" stroke="none"/>
    <path d="M15.85 -25.35 L8.05 -25.9 Q-29.35 -25.3 -44.85 -20.75 -43.95 -21.8 -42.6 -22.85 -47.35 -23.65 -49.15 -20.45 L-47.8 -12.7 -48.3 -12.95 -49.65 -13.25 Q-51.25 -13.25 -52.45 -11.7 L-52.85 -11.0 Q-52.7 -19.85 -49.2 -23.75 -33.95 -29.2 6.05 -29.55 L16.7 -29.25 15.85 -25.35 M-47.65 -3.1 Q-46.15 3.7 -43.05 5.6 -36.0 7.8 -25.75 7.95 -12.0 8.15 2.3 4.85 5.7 3.75 9.4 3.6 L8.5 7.65 Q5.65 7.8 3.05 8.65 -11.9 12.15 -26.25 11.95 -37.45 11.8 -45.1 9.3 -50.4 6.9 -52.3 -3.85 -51.15 -2.35 -49.65 -2.35 -48.55 -2.35 -47.65 -3.1" fill="#4334b1" fill-rule="evenodd" stroke="none"/>
    <path d="M16.7 -29.25 L6.05 -29.55 Q-33.95 -29.2 -49.2 -23.75 -52.7 -19.85 -52.85 -11.0 -53.6 -9.6 -53.6 -7.8 -53.6 -5.55 -52.45 -4.0 L-52.3 -3.85 Q-50.4 6.9 -45.1 9.3 -37.45 11.8 -26.25 11.95 -11.9 12.15 3.05 8.65 5.65 7.8 8.5 7.65 L8.55 7.65 8.1 8.4 Q5.25 8.6 2.7 9.45 -12.65 13.1 -27.4 12.9 -38.9 12.75 -48.45 11.25 -53.15 8.9 -56.5 -1.6 -57.5 -5.35 -57.6 -10.35 -57.85 -20.8 -53.0 -26.05 -37.65 -32.35 1.75 -32.45 L16.7 -31.85 16.7 -29.25" fill="#1c1758" fill-rule="evenodd" stroke="none"/>
  </g>
</svg>
