<?xml version="1.0" encoding="UTF-8" standalone="no"?>
<svg xmlns:xlink="http://www.w3.org/1999/xlink" height="28.0px" width="110.15px" xmlns="http://www.w3.org/2000/svg">
  <g transform="matrix(1.0, 0.0, 0.0, 1.0, 55.05, 14.0)">
    <path d="M-51.3 -12.75 Q-30.15 -13.55 -5.15 -11.9 -3.75 -11.55 -0.4 -9.05 1.0 -8.0 5.75 -7.55 9.15 -7.55 10.5 -8.5 L13.5 -11.1 Q15.1 -12.6 17.8 -12.6 L51.65 -12.7 Q53.05 -12.65 53.75 -12.0 L54.05 -10.2 Q54.3 -7.75 53.7 -6.8 53.1 -5.85 51.9 -5.1 L48.8 6.3 Q47.0 11.9 44.5 11.8 31.1 13.0 19.25 11.6 16.05 10.95 14.7 7.0 L11.6 -2.2 Q10.05 -4.45 5.2 -4.5 2.15 -4.5 -0.25 -3.15 L-4.85 7.35 Q-7.1 11.65 -12.1 12.2 -26.45 13.6 -40.65 12.55 -45.15 11.6 -47.1 6.85 -49.85 0.3 -51.65 -5.15 L-53.55 -7.1 Q-54.15 -8.35 -54.0 -9.6 -53.55 -12.7 -51.3 -12.75" fill="none" stroke="#000000" stroke-linecap="round" stroke-linejoin="round" stroke-width="2.0"/>
    <path d="M43.55 9.15 Q32.85 10.05 20.95 9.0 18.55 8.9 17.75 7.15 L17.65 7.05 Q15.45 0.85 14.85 -3.9 14.8 -7.6 19.1 -8.2 33.45 -8.95 46.95 -8.2 48.85 -7.7 48.6 -5.05 47.95 -0.1 46.05 6.35 44.85 8.9 43.55 9.15 M-44.3 4.85 Q-46.05 0.85 -47.7 -5.0 -47.75 -7.5 -44.65 -8.4 -26.05 -8.95 -7.15 -7.6 -3.7 -6.6 -3.95 -4.8 L-4.0 -4.8 Q-5.0 0.9 -7.75 6.35 L-7.7 6.3 Q-9.2 8.55 -11.15 9.0 -25.15 10.35 -39.55 9.4 -42.7 8.6 -44.3 4.85" fill="none" stroke="#000000" stroke-linecap="round" stroke-linejoin="round" stroke-width="1.0"/>
  </g>
</svg>
