<?xml version="1.0" encoding="UTF-8" standalone="no"?>
<svg xmlns:xlink="http://www.w3.org/1999/xlink" height="48.05px" width="127.25px" xmlns="http://www.w3.org/2000/svg">
  <g transform="matrix(1.0, 0.0, 0.0, 1.0, 63.65, 24.05)">
    <path d="M59.1 -2.95 Q59.4 -15.95 52.9 -17.05 L37.2 -18.0 Q28.0 -17.85 33.65 0.85 39.25 19.5 48.7 18.9 58.15 18.25 59.1 -2.95 M25.4 -8.65 Q22.85 -10.35 20.65 -10.15 L20.65 -10.1 Q19.3 -9.8 18.05 -8.35 L17.9 -7.15 14.6 4.85 Q11.3 16.2 -2.05 21.75 -15.15 25.65 -26.95 21.25 -39.95 15.85 -39.3 -1.05 L-39.15 -3.3 -63.6 -1.15 -63.65 -6.15 -38.85 -8.45 Q-36.05 -20.15 -20.5 -23.2 2.95 -24.6 20.05 -23.7 L20.5 -23.7 50.05 -22.5 Q61.2 -22.05 63.25 -11.2 L63.25 -10.65 63.55 -6.0 63.6 -1.6 Q63.3 5.1 61.35 11.6 57.7 23.6 49.35 24.0 39.0 23.1 33.2 13.95 27.4 4.75 25.4 -8.65 M17.15 -13.55 L20.15 -14.05 20.15 -14.1 20.6 -14.1 Q23.7 -14.25 25.4 -13.3 25.1 -16.3 25.8 -18.5 19.8 -19.2 16.0 -18.75 L17.15 -13.55 M-8.5 -19.1 Q-28.3 -18.7 -33.05 -8.45 -37.85 16.05 -15.35 18.7 -2.8 19.5 4.3 12.65 9.65 6.45 11.2 -1.65 12.45 -6.7 12.1 -13.3 11.7 -19.95 -8.5 -19.1" fill="#0fb897" fill-rule="evenodd" stroke="none"/>
  </g>
</svg>
