<?xml version="1.0" encoding="UTF-8" standalone="no"?>
<svg xmlns:xlink="http://www.w3.org/1999/xlink" height="36.1px" width="125.7px" xmlns="http://www.w3.org/2000/svg">
  <g transform="matrix(1.0, 0.0, 0.0, 1.0, 62.85, 18.05)">
    <path d="M-31.45 -3.2 Q-30.55 6.7 -26.7 11.05 -20.65 14.55 -1.9 14.5 7.95 14.0 9.0 12.3 13.8 5.95 14.15 -6.8 14.3 -11.45 9.1 -13.1 -11.55 -14.6 -24.7 -13.6 -32.5 -13.2 -31.45 -3.2 M-34.45 6.95 Q-36.0 2.6 -36.75 -1.55 -38.4 -5.0 -40.5 -5.2 L-47.75 -3.05 -50.0 -4.2 -59.6 -1.15 Q-61.5 -0.2 -62.45 -2.7 -62.85 -3.55 -62.85 -4.3 -62.85 -5.85 -61.65 -7.1 L-43.45 -14.6 -33.1 -17.1 -31.8 -17.25 -15.85 -18.05 Q-2.05 -18.1 13.2 -15.95 L16.4 -15.15 Q20.2 -13.85 24.05 -14.25 L30.35 -15.35 Q32.85 -16.0 42.5 -15.65 52.0 -15.4 57.55 -13.85 63.05 -12.4 62.85 -7.85 L62.5 2.35 Q61.85 12.75 58.3 15.45 L55.75 16.55 Q50.3 18.1 44.15 18.05 L37.4 17.6 Q31.95 16.55 29.45 12.85 26.95 9.1 25.75 1.0 L24.95 -2.6 Q24.35 -5.0 21.6 -5.15 18.8 -5.4 17.8 -1.9 L17.4 1.45 Q17.05 4.05 15.6 8.95 14.05 13.8 11.3 15.65 8.55 17.45 -2.75 17.75 L-5.05 17.7 Q-15.25 17.6 -25.2 15.6 -32.5 13.0 -34.45 6.95 M31.6 9.25 Q33.35 12.9 36.35 13.9 46.8 15.35 54.55 13.6 57.5 13.0 58.9 8.1 60.2 3.1 59.5 -6.3 58.55 -10.75 54.0 -11.55 43.2 -12.5 34.2 -12.0 29.45 -10.85 29.2 -5.55 29.05 -4.0 29.45 0.8 29.85 5.55 31.6 9.25" fill="#3e3f43" fill-rule="evenodd" stroke="none"/>
  </g>
</svg>
