<?xml version="1.0" encoding="UTF-8" standalone="no"?>
<svg xmlns:xlink="http://www.w3.org/1999/xlink" height="30.9px" width="26.45px" xmlns="http://www.w3.org/2000/svg">
  <g transform="matrix(1.0, 0.0, 0.0, 1.0, 13.25, 15.45)">
    <path d="M-0.35 -15.45 L1.4 -13.05 0.45 -11.2 2.0 -12.1 3.75 -12.1 2.55 -10.65 0.55 -9.65 0.6 -8.65 1.75 -9.4 1.8 -8.4 0.6 -7.45 0.65 -6.35 2.1 -7.55 3.35 -7.8 2.65 -6.05 0.7 -4.65 0.7 -3.3 2.2 -3.75 2.05 -2.05 3.55 -3.0 3.7 -5.4 4.8 -6.95 5.3 -5.8 5.0 -3.85 5.95 -4.4 6.1 -5.9 6.95 -6.4 7.0 -5.05 7.85 -5.5 7.6 -7.75 8.25 -9.55 9.15 -8.05 9.2 -6.25 10.2 -8.0 13.15 -7.75 12.0 -5.05 10.0 -5.05 11.5 -4.1 12.45 -2.6 10.55 -3.0 8.65 -4.2 7.75 -3.7 9.05 -3.0 8.2 -2.5 6.75 -3.1 5.85 -2.55 7.65 -1.8 8.5 -0.9 6.6 -0.65 4.35 -1.65 2.8 -0.7 4.1 -0.05 3.05 0.95 4.4 1.75 6.65 0.8 8.55 1.1 7.6 2.1 5.85 2.7 6.8 3.25 8.25 2.75 9.05 3.25 7.8 3.9 8.7 4.45 10.55 3.3 12.45 3.05 11.5 4.5 9.95 5.3 12.05 5.45 13.2 8.15 10.3 8.4 9.2 6.5 9.15 8.35 8.3 9.8 7.7 8.0 7.9 5.75 7.05 5.2 7.0 6.6 6.15 6.1 6.0 4.5 5.05 3.95 5.25 5.9 4.85 7.05 3.75 5.5 3.6 3.05 1.95 2.0 2.4 3.85 0.9 3.0 0.95 4.65 2.95 6.05 3.75 7.8 2.5 7.55 0.95 6.35 1.0 7.45 2.2 8.4 2.25 9.4 1.05 8.65 1.05 9.65 3.1 10.65 4.35 12.1 2.6 12.1 1.05 11.2 2.1 13.0 0.45 15.45 -1.35 13.0 -0.4 11.2 -1.95 12.1 -3.7 12.1 -2.45 10.65 -0.5 9.65 -0.5 8.65 -1.7 9.4 -1.75 8.4 -0.55 7.45 -0.6 6.35 -2.05 7.55 -3.3 7.8 -2.6 6.05 -0.6 4.65 -0.65 2.6 -2.25 3.35 -2.05 2.1 -3.55 3.0 -3.75 5.4 -4.8 6.9 -5.3 5.75 -5.05 3.8 -6.0 4.35 -6.15 5.9 -7.0 6.4 -7.0 4.95 -7.85 5.45 -7.65 7.65 -8.2 9.5 -9.15 8.0 -9.2 6.2 -10.2 8.0 -13.2 7.7 -11.95 5.0 -9.9 4.95 -11.5 4.05 -12.45 2.55 -10.5 2.9 -8.7 4.15 -7.8 3.65 -9.05 3.0 -8.25 2.5 -6.75 3.05 -5.9 2.5 -7.65 1.75 -8.45 0.8 -6.65 0.65 -4.4 1.65 -2.4 0.55 -4.1 -0.5 -2.6 -0.85 -4.4 -1.95 -6.65 -1.0 -8.5 -1.35 -7.7 -2.2 -5.8 -2.85 -6.8 -3.4 -8.2 -2.95 -9.1 -3.4 -7.85 -4.1 -8.65 -4.65 -10.6 -3.5 -12.5 -3.15 -11.55 -4.65 -10.0 -5.5 -12.05 -5.65 -13.25 -8.4 -10.25 -8.55 -9.2 -6.75 -9.2 -8.45 -8.35 -9.95 -7.75 -8.15 -7.9 -5.9 -7.05 -5.35 -7.0 -6.8 -6.15 -6.3 -5.95 -4.7 -5.05 -4.15 -5.35 -6.0 -4.85 -7.3 -3.8 -5.7 -3.6 -3.2 -1.95 -2.15 -2.45 -3.75 -0.8 -3.2 -0.85 -4.65 -2.9 -6.05 -3.7 -7.8 -2.45 -7.55 -0.9 -6.35 -0.95 -7.45 -2.15 -8.4 -2.2 -9.4 -0.95 -8.65 -1.0 -9.65 -3.0 -10.65 -4.3 -12.1 -2.55 -12.1 -1.0 -11.2 -2.05 -13.05 -0.35 -15.45 M-1.05 -0.15 L0.2 1.25 1.2 -0.2 0.05 -1.65 -1.05 -0.15" fill="#766bff" fill-rule="evenodd" stroke="none"/>
  </g>
</svg>
