<?xml version="1.0" encoding="UTF-8" standalone="no"?>
<svg xmlns:xlink="http://www.w3.org/1999/xlink" height="45.65px" width="121.2px" xmlns="http://www.w3.org/2000/svg">
  <g transform="matrix(1.0, 0.0, 0.0, 1.0, 60.6, 22.85)">
    <path d="M-59.85 0.65 L-34.4 -1.6 Q-33.75 -9.3 -28.2 -14.85 -21.85 -21.15 -12.9 -21.15 -3.9 -21.15 2.4 -14.85 7.25 -10.0 8.45 -3.55 L22.55 -3.55 Q23.35 -10.55 27.9 -15.75 33.35 -22.1 41.15 -22.1 48.9 -22.1 54.35 -15.75 59.85 -9.45 59.85 -0.45 59.85 8.5 54.35 14.85 48.9 21.15 41.15 21.15 33.35 21.15 27.9 14.85 22.4 8.5 22.4 -0.45 22.4 -2.05 22.55 -3.55 M8.45 -3.55 L8.75 0.45 Q8.75 9.4 2.4 15.75 -3.9 22.05 -12.9 22.05 -21.85 22.05 -28.2 15.75 -34.5 9.4 -34.5 0.45 L-34.4 -1.6" fill="none" stroke="#000000" stroke-linecap="round" stroke-linejoin="round" stroke-width="1.5"/>
  </g>
</svg>
