<?xml version="1.0" encoding="UTF-8" standalone="no"?>
<svg xmlns:xlink="http://www.w3.org/1999/xlink" height="57.1px" width="133.1px" xmlns="http://www.w3.org/2000/svg">
  <g transform="matrix(1.0, 0.0, 0.0, 1.0, 66.55, 28.55)">
    <path d="M-49.45 -1.6 L-41.8 -1.6 Q-41.35 -12.05 -33.95 -19.55 -26.05 -27.55 -14.9 -27.55 -3.8 -27.55 4.1 -19.55 12.0 -11.55 12.0 -0.15 L12.0 0.95 Q18.2 -2.95 24.4 0.4 L24.4 0.15 Q24.4 -11.2 30.45 -19.25 36.45 -27.25 45.0 -27.25 53.5 -27.25 59.55 -19.25 65.55 -11.2 65.55 0.15 65.55 11.5 59.55 19.55 53.5 27.55 45.0 27.55 36.45 27.55 30.45 19.55 25.85 13.4 24.75 5.3 18.1 1.15 11.5 5.3 10.0 13.2 4.1 19.2 -3.8 27.25 -14.9 27.25 -26.05 27.25 -33.95 19.2 -41.15 11.95 -41.8 1.9 L-49.4 1.9 Q-47.7 4.85 -49.55 7.5 -52.6 9.7 -55.7 7.5 L-65.55 0.15 -55.7 -7.2 Q-52.6 -9.45 -49.55 -7.2 -47.7 -4.55 -49.45 -1.6 L-50.75 0.15 Q-49.9 1.05 -49.4 1.9 M24.75 5.3 Q24.4 2.95 24.4 0.4 M12.0 0.95 L11.5 5.3" fill="none" stroke="#000000" stroke-linecap="round" stroke-linejoin="round" stroke-width="2.0"/>
    <path d="M37.0 -20.5 Q40.65 -23.0 45.05 -23.0 52.4 -23.0 57.55 -16.05 62.75 -9.15 62.75 0.6 L62.65 3.45 61.95 7.95 61.35 10.1 Q60.05 14.0 57.55 17.25 52.4 24.2 45.05 24.2 37.75 24.2 32.55 17.25 27.35 10.4 27.35 0.6 27.35 -9.15 32.55 -16.05 L32.75 -16.25 34.25 -18.1 Q35.55 -19.55 37.0 -20.5 M-29.4 -18.05 Q-23.2 -23.3 -14.8 -23.3 -5.25 -23.3 1.55 -16.35 8.3 -9.5 8.3 0.3 8.3 4.75 6.9 8.65 L6.25 10.3 5.3 12.1 Q3.8 14.65 1.55 16.95 -5.25 23.9 -14.8 23.9 -24.4 23.9 -31.2 16.95 -37.95 10.1 -37.95 0.3 -37.95 -7.45 -33.75 -13.35 L-32.5 -14.9 -31.2 -16.35 -29.4 -18.05" fill="none" stroke="#000000" stroke-linecap="round" stroke-linejoin="round" stroke-width="1.0"/>
  </g>
</svg>
