<?xml version="1.0" encoding="UTF-8" standalone="no"?>
<svg xmlns:xlink="http://www.w3.org/1999/xlink" height="32.55px" width="32.6px" xmlns="http://www.w3.org/2000/svg">
  <g transform="matrix(1.0, 0.0, 0.0, 1.0, 16.3, 16.3)">
    <path d="M-8.05 14.2 L-11.5 11.5 Q-16.3 6.75 -16.3 0.0 -16.3 -6.75 -11.5 -11.55 L-8.2 -14.1 -6.85 -14.85 -4.8 -15.65 -1.75 -16.2 0.0 -16.3 Q6.75 -16.3 11.5 -11.55 16.3 -6.75 16.3 0.0 L16.25 1.45 15.6 4.85 15.05 6.3 14.15 8.15 11.5 11.5 Q6.75 16.25 0.0 16.25 L-2.15 16.15 Q-2.85 14.75 -5.0 14.3 L-8.05 14.2" fill="#ffcb68" fill-opacity="0.5019608" fill-rule="evenodd" stroke="none"/>
  </g>
</svg>
