<?xml version="1.0" encoding="UTF-8" standalone="no"?>
<svg xmlns:xlink="http://www.w3.org/1999/xlink" height="42.65px" width="114.35px" xmlns="http://www.w3.org/2000/svg">
  <g transform="matrix(1.0, 0.0, 0.0, 1.0, -9.2, 37.45)">
    <path d="M73.3 -11.45 Q78.15 -13.35 82.8 -15.6 80.6 -6.4 73.1 1.65 L73.3 -11.45 M86.65 -17.55 Q90.5 -19.65 94.2 -22.0 98.45 -7.85 89.8 0.0 90.15 -8.5 86.65 -17.55 M102.85 -4.25 Q100.55 -13.3 94.8 -22.35 104.9 -28.9 113.35 -37.45 L123.55 -23.0 Q115.6 -11.15 102.85 -4.25 M9.2 -1.0 Q32.9 -0.8 52.8 -5.25 L47.75 4.85 Q30.2 3.7 9.2 -1.0 M56.15 -6.05 Q64.9 -8.2 72.9 -11.3 L69.35 4.8 55.35 5.2 56.15 -6.05" fill="#ffffff" fill-rule="evenodd" stroke="none"/>
  </g>
</svg>
