<?xml version="1.0" encoding="UTF-8" standalone="no"?>
<svg xmlns:xlink="http://www.w3.org/1999/xlink" height="26.85px" width="102.25px" xmlns="http://www.w3.org/2000/svg">
  <g transform="matrix(1.0, 0.0, 0.0, 1.0, 68.0, 27.9)">
    <path d="M-21.15 -10.1 Q-21.8 -7.4 -24.05 -9.65 L-24.45 -10.55 -20.8 -11.45 -21.15 -10.1 M-41.15 -1.15 L-68.0 -2.9 -56.65 -4.65 -41.5 -7.05 -41.4 -7.1 -38.55 -7.6 -27.3 -9.9 -27.75 -1.05 -36.5 -1.05 -41.15 -1.15 M23.85 -27.9 Q29.6 -21.35 30.7 -17.65 31.8 -14.0 34.25 -9.9 25.35 -6.8 13.9 -4.65 L11.3 -4.2 Q1.5 -2.7 -8.7 -1.9 -11.15 -8.15 -14.05 -13.2 L-7.45 -15.1 Q10.6 -20.6 23.85 -27.9" fill="#ffffff" fill-rule="evenodd" stroke="none"/>
  </g>
</svg>
