<?xml version="1.0" encoding="UTF-8" standalone="no"?>
<svg xmlns:xlink="http://www.w3.org/1999/xlink" height="58.85px" width="98.7px" xmlns="http://www.w3.org/2000/svg">
  <g transform="matrix(1.0, 0.0, 0.0, 1.0, 67.5, 31.95)">
    <path d="M17.15 -0.4 Q17.8 4.05 17.35 10.0 15.2 -5.25 13.0 -11.2 16.45 -4.8 17.15 -0.4 M20.45 -24.0 Q30.95 -12.0 31.15 -3.8 31.4 4.4 30.25 12.85 29.8 -0.8 27.5 -7.85 24.65 -16.2 20.2 -23.55 19.95 -24.0 20.45 -24.0 M3.2 26.9 Q5.3 0.85 3.8 -14.25 7.95 0.65 7.0 12.75 6.85 14.35 3.2 26.9 M-51.6 -10.7 L-45.55 5.65 -43.1 12.85 Q-48.6 5.1 -50.3 -2.45 -51.95 -10.05 -51.6 -10.7 M-60.05 -12.65 Q-64.25 -1.65 -67.5 14.35 -65.9 -10.0 -59.95 -18.7 -54.1 -27.4 -47.7 -31.95 -55.85 -23.6 -60.05 -12.65 M-37.95 -6.4 Q-35.05 3.85 -31.35 14.55 -30.85 15.9 -31.55 16.9 -37.5 8.1 -38.8 -4.5 -38.95 -5.9 -37.95 -6.4" fill="#ffffff" fill-rule="evenodd" stroke="none"/>
  </g>
</svg>
