<?xml version="1.0" encoding="UTF-8" standalone="no"?>
<svg xmlns:xlink="http://www.w3.org/1999/xlink" height="108.8px" width="135.85px" xmlns="http://www.w3.org/2000/svg">
  <g transform="matrix(1.0, 0.0, 0.0, 1.0, 67.9, 54.4)">
    <path d="M-0.8 -51.95 L40.15 -44.95 42.65 -46.5 Q51.1 -52.1 54.75 -48.8 58.4 -45.5 62.7 -31.95 74.7 6.8 59.15 41.25 55.65 47.75 50.55 54.4 59.0 36.05 54.05 6.6 58.0 36.55 42.5 52.75 52.45 30.5 42.6 -11.1 42.4 -4.55 39.75 -0.6 39.05 -11.75 24.95 -28.2 28.75 -12.9 22.1 0.2 L14.3 -24.95 Q20.55 -0.65 15.3 22.0 8.3 -13.65 -9.35 -30.2 L-10.65 -31.4 -10.75 -31.2 Q-17.3 -19.05 -16.3 -6.6 -24.7 -18.15 -22.75 -27.35 -28.75 -13.05 -40.6 -1.65 -51.95 33.35 -43.25 53.3 -55.1 44.85 -57.65 30.9 L-55.15 47.25 Q-67.3 28.9 -67.85 11.8 -68.45 -5.35 -63.65 -19.65 -58.85 -33.95 -49.35 -42.35 L-8.75 -54.35 Q-4.8 -54.7 -0.8 -51.95" fill="url(#gradient0)" fill-rule="evenodd" stroke="none"/>
  </g>
  <defs>
    <linearGradient gradientTransform="matrix(0.0, 0.0781, -0.0829, 0.0, 0.05, 35.65)" gradientUnits="userSpaceOnUse" id="gradient0" spreadMethod="pad" x1="-819.2" x2="819.2">
      <stop offset="0.0" stop-color="#fff23c" stop-opacity="0.0"/>
      <stop offset="0.3803921568627451" stop-color="#fff23c" stop-opacity="0.84705883"/>
      <stop offset="0.6039215686274509" stop-color="#fff23c" stop-opacity="0.8"/>
      <stop offset="1.0" stop-color="#fff23c" stop-opacity="0.0"/>
    </linearGradient>
  </defs>
</svg>
