<?xml version="1.0" encoding="UTF-8" standalone="no"?>
<svg xmlns:xlink="http://www.w3.org/1999/xlink" height="107.05px" width="68.5px" xmlns="http://www.w3.org/2000/svg">
  <g transform="matrix(1.0, 0.0, 0.0, 1.0, 54.4, 53.6)">
    <path d="M0.9 -49.75 Q4.55 -46.45 8.85 -32.9 20.85 5.85 5.3 40.3 1.8 46.8 -3.3 53.45 5.15 35.1 0.2 5.65 4.15 35.6 -11.35 51.8 -1.4 29.55 -11.25 -12.05 -11.45 -5.5 -14.1 -1.55 -14.8 -12.7 -28.9 -29.15 -25.1 -13.85 -31.75 -0.75 L-39.55 -25.9 Q-45.1 -45.6 -54.4 -53.6 L-14.5 -46.45 -11.2 -47.45 Q-2.75 -53.05 0.9 -49.75" fill="#ffffff" fill-rule="evenodd" stroke="none"/>
  </g>
</svg>
