<?xml version="1.0" encoding="UTF-8" standalone="no"?>
<svg xmlns:xlink="http://www.w3.org/1999/xlink" height="107.65px" width="132.5px" xmlns="http://www.w3.org/2000/svg">
  <g transform="matrix(1.0, 0.0, 0.0, 1.0, 66.25, 53.8)">
    <path d="M52.25 16.85 Q49.15 23.15 43.4 29.0 48.45 5.8 40.9 -13.65 40.75 0.8 31.2 12.3 L31.8 -14.55 Q30.55 16.15 16.25 31.1 20.2 21.1 20.0 7.15 17.8 25.45 9.55 38.7 7.85 31.55 5.15 23.2 -15.65 8.3 -19.1 -11.75 -19.1 4.3 -15.95 14.8 -29.55 2.0 -29.9 -9.65 -34.35 18.65 -27.9 33.8 -39.4 29.8 -42.6 23.85 L-33.8 41.7 Q-29.05 51.5 -26.9 53.85 -59.8 44.05 -64.9 17.65 -70.05 -8.75 -55.4 -27.55 -47.7 -37.45 -36.65 -43.2 -29.15 -48.95 -18.6 -51.3 3.5 -56.25 19.1 -51.4 29.95 -48.1 38.8 -40.7 46.2 -36.4 51.3 -31.9 67.3 -16.35 66.15 11.6 65.0 39.55 39.8 48.8 43.8 45.1 52.25 16.85" fill="url(#gradient0)" fill-rule="evenodd" stroke="none"/>
  </g>
  <defs>
    <linearGradient gradientTransform="matrix(0.0, 0.0781, -0.0809, 0.0, 0.0, 37.15)" gradientUnits="userSpaceOnUse" id="gradient0" spreadMethod="pad" x1="-819.2" x2="819.2">
      <stop offset="0.0" stop-color="#fff23c" stop-opacity="0.0"/>
      <stop offset="0.3803921568627451" stop-color="#fff23c" stop-opacity="0.84705883"/>
      <stop offset="0.6039215686274509" stop-color="#fff23c" stop-opacity="0.8"/>
      <stop offset="1.0" stop-color="#fff23c" stop-opacity="0.0"/>
    </linearGradient>
  </defs>
</svg>
