<?xml version="1.0" encoding="UTF-8" standalone="no"?>
<svg xmlns:xlink="http://www.w3.org/1999/xlink" height="102.2px" width="64.65px" xmlns="http://www.w3.org/2000/svg">
  <g transform="matrix(1.0, 0.0, 0.0, 1.0, 11.2, 49.55)">
    <path d="M6.3 -47.55 Q17.15 -44.25 26.0 -36.85 33.4 -32.55 38.5 -28.05 54.5 -12.5 53.35 15.45 52.2 43.4 27.0 52.65 31.0 48.95 39.45 20.7 36.35 27.0 30.6 32.85 35.65 9.65 28.1 -9.8 27.95 4.65 18.4 16.15 L19.0 -10.7 Q17.75 20.0 3.45 34.95 7.4 24.95 7.2 11.0 6.5 -23.6 -11.2 -49.45 -1.7 -50.05 6.3 -47.55" fill="#ffffff" fill-rule="evenodd" stroke="none"/>
  </g>
</svg>
