<?xml version="1.0" encoding="UTF-8" standalone="no"?>
<svg xmlns:xlink="http://www.w3.org/1999/xlink" height="93.15px" width="117.5px" xmlns="http://www.w3.org/2000/svg">
  <g transform="matrix(1.0, 0.0, 0.0, 1.0, 61.2, 20.55)">
    <path d="M36.9 -7.05 Q36.8 -1.9 34.8 4.4 35.6 -13.15 34.3 -20.55 36.0 -15.35 36.6 -11.3 L36.7 -10.55 36.9 -7.05 M26.95 -6.0 Q26.2 -0.9 23.0 5.3 26.4 -12.2 26.0 -19.7 27.05 -14.35 27.15 -10.25 L27.15 -9.45 26.95 -6.0 M48.3 -4.1 Q59.0 19.65 55.4 32.65 L46.95 62.9 Q51.9 36.7 51.6 24.5 51.2 10.1 47.7 -3.5 47.5 -4.3 48.3 -4.1 M2.1 7.75 L-5.55 13.4 Q5.95 1.0 11.3 -7.3 7.4 2.0 2.1 7.75 M-41.1 -17.1 Q-50.1 -7.9 -54.75 4.2 -59.4 16.3 -61.2 33.0 -61.2 7.1 -54.65 -2.5 -48.15 -12.1 -41.1 -17.1 M-21.1 15.7 L-16.3 9.25 -8.55 -2.25 Q-8.6 -0.35 -9.0 0.6 -13.1 9.2 -21.1 15.7 M-48.9 11.9 Q-47.35 32.05 -45.0 54.25 L-43.75 72.6 Q-51.9 50.95 -51.05 32.1 -50.15 13.35 -48.9 11.9" fill="#ffffff" fill-rule="evenodd" stroke="none"/>
  </g>
</svg>
