<?xml version="1.0" encoding="UTF-8" standalone="no"?>
<svg xmlns:xlink="http://www.w3.org/1999/xlink" height="123.25px" width="146.2px" xmlns="http://www.w3.org/2000/svg">
  <g transform="matrix(1.0, 0.0, 0.0, 1.0, 73.1, 61.6)">
    <path d="M14.85 -43.55 Q11.75 -39.0 9.65 -33.9 L9.45 -33.45 Q3.5 -14.75 3.0 -5.05 L2.95 -2.1 7.75 -8.45 Q12.35 -14.1 19.15 -21.25 30.2 -32.85 31.5 -44.0 31.95 -48.05 31.55 -51.0 L31.4 -52.0 Q30.15 -58.45 25.8 -60.6 M40.95 -50.0 L42.1 -45.15 Q47.85 -28.9 47.05 -17.15 52.95 -28.3 53.0 -37.7 53.05 -47.35 48.5 -53.05 M31.55 -51.0 Q34.9 -31.8 34.55 -18.55 46.85 -29.75 42.1 -45.15 M53.0 -37.7 Q64.25 16.35 53.2 56.85 85.7 7.95 62.35 -45.6 M9.45 -33.45 Q2.6 -17.3 -11.3 -6.2 L-3.5 -31.65 Q-26.4 18.75 -19.75 60.65 -33.15 48.35 -37.25 31.6 L-33.7 47.45 Q-50.45 25.1 -50.6 1.0 -52.8 4.0 -55.55 4.3 -58.75 8.05 -62.65 7.5 -62.9 8.75 -65.6 10.45 -68.55 11.05 -70.65 7.0 L-70.7 7.0 -71.05 6.2 Q-73.35 1.25 -70.5 -1.9 -67.75 -3.95 -65.85 -3.8 -62.65 -8.65 -57.25 -9.1 -54.35 -14.25 -48.7 -16.55 -44.6 -36.1 -32.0 -46.55 M-48.7 -16.55 Q-49.8 -11.45 -50.3 -5.65 L-50.6 1.0 M-3.5 -31.65 L-2.1 -34.7 M-37.25 31.6 Q-46.55 -3.65 -34.05 -28.55" fill="none" stroke="#123751" stroke-linecap="round" stroke-linejoin="round" stroke-width="2.0"/>
    <path d="M-55.6 -3.3 Q-51.9 -5.4 -50.65 -9.25 M-65.45 3.0 Q-63.3 1.75 -61.95 -0.6 -60.95 -2.4 -60.35 -4.85 M-69.0 2.3 L-70.7 7.0 M-70.65 7.0 L-66.8 6.55 M-61.95 -0.6 Q-58.85 -1.45 -56.95 0.75" fill="none" stroke="#123751" stroke-linecap="round" stroke-linejoin="round" stroke-width="1.0"/>
  </g>
</svg>
