<?xml version="1.0" encoding="UTF-8" standalone="no"?>
<svg xmlns:xlink="http://www.w3.org/1999/xlink" height="103.55px" width="114.5px" xmlns="http://www.w3.org/2000/svg">
  <g transform="matrix(1.0, 0.0, 0.0, 1.0, 57.25, 51.75)">
    <path d="M49.8 -21.5 Q69.3 22.75 37.65 51.8 49.4 35.45 45.75 4.35 44.7 11.95 40.3 18.55 39.65 4.25 29.7 -15.05 25.9 -6.7 18.95 -0.45 L18.95 -0.4 Q14.15 9.35 5.25 16.65 5.3 12.15 5.5 8.85 L0.1 16.45 -13.15 16.8 -20.45 16.55 -28.45 15.65 Q-30.9 2.6 -30.1 -4.6 -35.35 8.4 -38.35 20.5 -40.1 15.6 -40.85 10.7 -43.2 29.3 -34.7 50.5 -51.45 34.35 -56.25 14.25 -61.0 -12.65 -43.6 -29.8 -38.5 -36.65 -28.0 -42.9 -17.45 -49.2 3.0 -51.7 10.0 -52.2 25.0 -46.1 39.95 -40.0 49.8 -21.5" fill="#00ccff" fill-rule="evenodd" stroke="none"/>
  </g>
</svg>
