<?xml version="1.0" encoding="UTF-8" standalone="no"?>
<svg xmlns:xlink="http://www.w3.org/1999/xlink" height="65.85px" width="109.05px" xmlns="http://www.w3.org/2000/svg">
  <g transform="matrix(1.0, 0.0, 0.0, 1.0, 37.95, 18.2)">
    <path d="M62.45 -4.95 Q72.65 13.55 70.8 23.8 68.95 34.0 64.65 47.65 68.35 27.2 67.35 17.9 66.05 6.85 62.45 -3.25 L62.45 -4.95 M57.35 24.1 Q56.1 1.05 53.35 -8.15 58.0 1.85 58.65 8.5 59.25 15.25 57.35 24.1 M25.9 15.8 Q41.8 -1.75 45.45 -12.9 43.0 -2.0 36.5 7.5 35.55 8.75 25.9 15.8 M28.25 18.55 L28.35 18.95 28.25 19.4 Q25.85 23.8 22.1 26.15 L22.5 25.6 28.25 18.55 M-32.7 -0.55 Q-36.55 9.5 -37.95 24.2 -38.05 1.9 -32.6 -6.1 -27.2 -14.05 -21.35 -18.2 -28.85 -10.55 -32.7 -0.55 M-5.6 -10.1 Q-8.95 5.8 -9.95 12.5 -10.95 19.05 -11.25 19.95 -13.25 8.85 -8.9 -3.5 L-5.6 -10.1 M-20.85 0.7 Q-17.65 -9.4 -16.75 -10.0 L-20.8 13.6 -22.8 23.8 Q-24.05 10.8 -20.85 0.7" fill="#ffffff" fill-rule="evenodd" stroke="none"/>
  </g>
</svg>
