<?xml version="1.0" encoding="UTF-8" standalone="no"?>
<svg xmlns:xlink="http://www.w3.org/1999/xlink" height="77.85px" width="125.5px" xmlns="http://www.w3.org/2000/svg">
  <g transform="matrix(1.0, 0.0, 0.0, 1.0, 62.75, 38.9)">
    <path d="M-27.05 30.0 Q-19.35 30.45 -7.85 30.4 L-7.75 30.4 -1.15 30.3 Q18.4 29.9 21.15 28.0 26.85 12.05 26.25 -34.5 33.3 -18.25 52.7 -1.05 52.15 -22.5 41.75 -37.9 M52.7 -1.05 L52.7 -0.75 52.7 -0.65 52.7 -0.6 52.7 0.2 Q52.75 22.65 46.85 36.25 L56.5 37.95 Q65.9 19.2 58.45 -14.95 M-27.05 30.0 Q-36.55 29.4 -40.3 28.0 -39.0 33.35 -36.9 37.25 L-50.95 36.75 -55.1 25.25 -54.75 36.6 Q-63.05 21.6 -61.5 -3.95 -60.45 -15.9 -57.5 -25.2 M-39.35 -32.1 Q-48.35 -4.1 -40.3 28.0" fill="none" stroke="#000000" stroke-linecap="round" stroke-linejoin="round" stroke-width="2.0"/>
    <path d="M9.45 24.9 Q11.05 17.65 9.8 -0.5 M-27.05 30.0 Q-29.7 13.2 -27.95 -3.6 M-9.75 27.3 Q-12.35 -2.1 -9.75 -20.75" fill="none" stroke="#000000" stroke-linecap="round" stroke-linejoin="round" stroke-width="1.4000000000000001"/>
  </g>
</svg>
