<?xml version="1.0" encoding="UTF-8" standalone="no"?>
<svg xmlns:xlink="http://www.w3.org/1999/xlink" height="71.25px" width="114.8px" xmlns="http://www.w3.org/2000/svg">
  <g transform="matrix(1.0, 0.0, 0.0, 1.0, 89.5, 36.2)">
    <path d="M15.0 -20.2 Q26.2 -3.5 25.2 6.75 L22.7 30.9 Q23.1 10.35 21.25 1.15 19.05 -9.75 14.65 -19.65 14.4 -20.25 15.0 -20.2 M13.1 19.65 Q12.65 26.35 9.95 35.05 11.8 11.8 10.5 2.25 13.5 12.85 13.1 19.65 M-58.5 -28.5 L-64.4 -15.7 -66.15 -10.85 Q-65.8 -17.8 -62.45 -23.05 -59.1 -28.3 -58.5 -28.5 M-84.8 -17.3 Q-87.8 -4.7 -89.05 13.35 -90.8 -13.55 -85.55 -23.95 -80.35 -34.3 -77.3 -36.2 -81.75 -29.9 -84.8 -17.3 M-6.1 33.75 Q-5.75 0.95 -8.95 -17.8 -2.4 0.45 -2.55 15.7 -2.6 17.75 -6.1 33.75 M-31.5 32.35 Q-31.7 33.4 -32.55 33.65 -32.8 25.55 -33.55 16.95 L-33.65 7.3 Q-30.25 22.9 -31.5 32.35" fill="#ffffff" fill-rule="evenodd" stroke="none"/>
  </g>
</svg>
