<?xml version="1.0" encoding="UTF-8" standalone="no"?>
<svg xmlns:xlink="http://www.w3.org/1999/xlink" height="126.7px" width="121.05px" xmlns="http://www.w3.org/2000/svg">
  <g transform="matrix(1.0, 0.0, 0.0, 1.0, 60.5, 63.35)">
    <path d="M-54.05 -35.65 Q-44.95 -47.55 -33.1 -54.55 -21.25 -61.55 0.7 -63.35 20.35 -61.7 27.85 -56.6 48.85 -43.05 56.75 -20.15 67.3 19.2 48.45 53.85 54.8 15.65 48.5 -5.1 32.1 -2.95 6.95 -12.75 -16.15 -21.8 -26.3 -38.2 -25.2 -4.95 -45.45 44.05 -45.0 53.35 -42.9 63.35 -62.45 31.05 -60.3 -2.15 -60.45 -6.9 -58.7 -18.75 -56.95 -30.65 -54.05 -35.65" fill="url(#gradient0)" fill-rule="evenodd" stroke="none"/>
  </g>
  <defs>
    <linearGradient gradientTransform="matrix(0.0, 0.0822, -0.0739, 0.0, 0.05, 26.35)" gradientUnits="userSpaceOnUse" id="gradient0" spreadMethod="pad" x1="-819.2" x2="819.2">
      <stop offset="0.0" stop-color="#fff23c" stop-opacity="0.0"/>
      <stop offset="0.3803921568627451" stop-color="#fff23c" stop-opacity="0.84705883"/>
      <stop offset="0.6039215686274509" stop-color="#fff23c" stop-opacity="0.8"/>
      <stop offset="1.0" stop-color="#fff23c" stop-opacity="0.0"/>
    </linearGradient>
  </defs>
</svg>
