<?xml version="1.0" encoding="UTF-8" standalone="no"?>
<svg xmlns:xlink="http://www.w3.org/1999/xlink" height="130.35px" width="142.15px" xmlns="http://www.w3.org/2000/svg">
  <g transform="matrix(1.0, 0.0, 0.0, 1.0, 71.05, 65.15)">
    <path d="M51.1 5.8 Q56.1 41.95 27.9 60.65 36.0 47.15 37.75 30.6 39.45 14.0 41.9 0.85 30.25 -6.95 25.1 -19.45 29.0 -7.6 25.65 3.6 17.55 -1.3 -0.75 -10.85 -19.05 -20.45 -24.3 -39.6 L-21.1 -18.85 Q-18.9 -5.45 -15.3 4.35 -34.1 -16.2 -38.45 -35.15 -38.7 -11.75 -46.25 10.35 -53.85 49.55 -39.35 65.2 -82.25 34.6 -67.1 -25.0 -64.05 -35.95 -58.6 -43.6 -49.15 -52.15 -34.75 -56.15 -18.25 -64.25 -1.75 -65.15 18.0 -63.45 31.3 -48.65 42.55 -35.45 49.0 -18.45 57.45 3.8 71.1 11.5 59.8 9.6 51.1 5.8" fill="#00ccff" fill-rule="evenodd" stroke="none"/>
  </g>
</svg>
