<?xml version="1.0" encoding="UTF-8" standalone="no"?>
<svg xmlns:xlink="http://www.w3.org/1999/xlink" height="114.25px" width="123.6px" xmlns="http://www.w3.org/2000/svg">
  <g transform="matrix(1.0, 0.0, 0.0, 1.0, 61.8, 57.1)">
    <path d="M22.7 -36.95 Q22.2 -18.55 -1.0 -0.95 23.65 -29.7 18.25 -57.1 L22.5 -45.85 Q22.85 -42.85 22.8 -39.9 L22.7 -36.95 M-50.45 -37.55 Q-56.6 -23.65 -57.5 -0.1 -56.1 29.95 -43.0 55.45 -71.6 25.0 -56.65 -25.8 L-55.9 -28.3 Q-53.5 -33.3 -50.45 -37.55 M-29.9 -47.6 Q-41.45 -23.2 -38.5 1.25 L-38.65 2.9 Q-40.7 -0.2 -41.95 -5.85 -45.2 -20.95 -38.7 -35.35 L-29.9 -47.6 M-37.15 -5.6 Q-13.1 -22.65 0.4 -49.55 -0.45 -36.95 -7.75 -25.8 -19.15 -11.05 -37.15 -5.6 M50.3 1.2 Q48.05 5.95 44.3 9.65 49.45 -2.85 51.3 -32.4 56.45 -11.8 50.3 1.2 M39.5 56.75 Q53.35 40.3 56.05 22.7 60.25 -4.95 56.1 -32.45 65.35 -1.1 59.6 25.0 54.35 49.0 39.15 57.15 L39.5 56.75" fill="#ea79ff" fill-rule="evenodd" stroke="none"/>
  </g>
</svg>
