<?xml version="1.0" encoding="UTF-8" standalone="no"?>
<svg xmlns:xlink="http://www.w3.org/1999/xlink" height="97.35px" width="131.8px" xmlns="http://www.w3.org/2000/svg">
  <g transform="matrix(1.0, 0.0, 0.0, 1.0, 65.9, 48.65)">
    <path d="M-55.6 -24.65 Q-42.8 -40.65 -19.65 -46.4 -3.65 -50.35 15.75 -47.3 40.65 -37.15 50.7 -14.95 65.75 17.3 65.9 48.7 L58.15 41.3 55.25 38.7 55.25 44.35 Q53.1 47.3 43.25 48.1 48.45 41.55 48.35 29.6 L47.65 32.0 Q37.9 22.55 25.4 14.5 19.0 10.35 11.9 6.55 9.2 -2.2 6.55 -9.5 9.3 -1.4 8.6 2.65 4.2 -0.3 -0.1 -2.3 -9.5 -6.8 -18.4 -6.95 -24.25 -20.85 -29.8 -25.8 -40.1 -7.75 -42.35 12.9 -44.65 33.55 -43.2 48.4 -53.65 47.7 -61.65 42.45 L-63.0 41.5 Q-71.35 8.15 -55.6 -24.65" fill="url(#gradient0)" fill-rule="evenodd" stroke="none"/>
  </g>
  <defs>
    <linearGradient gradientTransform="matrix(0.0, 0.0837, -0.0804, 0.0, 0.0, 37.8)" gradientUnits="userSpaceOnUse" id="gradient0" spreadMethod="pad" x1="-819.2" x2="819.2">
      <stop offset="0.0" stop-color="#fff23c" stop-opacity="0.0"/>
      <stop offset="0.3803921568627451" stop-color="#fff23c" stop-opacity="0.84705883"/>
      <stop offset="0.6039215686274509" stop-color="#fff23c" stop-opacity="0.8"/>
      <stop offset="1.0" stop-color="#fff23c" stop-opacity="0.0"/>
    </linearGradient>
  </defs>
</svg>
