<?xml version="1.0" encoding="UTF-8" standalone="no"?>
<svg xmlns:xlink="http://www.w3.org/1999/xlink" height="14.3px" width="101.25px" xmlns="http://www.w3.org/2000/svg">
  <g transform="matrix(1.0, 0.0, 0.0, 1.0, 102.25, 18.3)">
    <path d="M-96.75 -15.55 Q-92.85 -11.55 -99.55 -7.55 -103.0 -5.5 -102.05 -9.35 -101.0 -13.85 -96.75 -15.55 M-63.0 -16.95 Q-57.2 -11.1 -63.25 -4.8 -65.2 -2.85 -66.05 -5.55 -68.3 -12.65 -63.0 -16.95 M-32.85 -14.9 Q-26.8 -10.85 -32.25 -6.6 -33.0 -6.0 -33.55 -7.15 -36.05 -12.35 -32.85 -14.9 M-6.35 -18.3 Q0.85 -14.5 -1.65 -8.75 -1.95 -8.0 -2.9 -8.65 -10.2 -13.9 -6.35 -18.3" fill="#ffffff" fill-rule="evenodd" stroke="none"/>
  </g>
</svg>
