<?xml version="1.0" encoding="UTF-8" standalone="no"?>
<svg xmlns:xlink="http://www.w3.org/1999/xlink" height="154.75px" width="119.95px" xmlns="http://www.w3.org/2000/svg">
  <g transform="matrix(1.0, 0.0, 0.0, 1.0, 59.95, 77.35)">
    <path d="M-7.3 -61.7 Q-27.4 -75.95 -37.25 -68.3 -54.65 -54.65 -53.8 -3.15 -54.2 19.35 -43.75 44.6 -31.65 66.1 -15.1 77.1 -39.35 62.1 -50.2 39.85 -62.6 18.1 -59.25 -29.55 -56.7 -52.55 -50.5 -62.6 -43.15 -75.65 -31.6 -75.5 -18.35 -76.45 -7.3 -61.7 M19.45 77.4 Q36.7 60.6 46.0 35.7 55.3 10.85 55.25 -11.75 54.6 -56.85 39.5 -70.95 26.35 -74.4 13.15 -62.0 21.15 -74.6 31.15 -77.35 45.9 -77.55 51.35 -62.6 59.7 -40.75 60.0 -9.1 55.4 48.05 19.45 77.4" fill="#ea79ff" fill-rule="evenodd" stroke="none"/>
  </g>
</svg>
