<?xml version="1.0" encoding="UTF-8" standalone="no"?>
<svg xmlns:xlink="http://www.w3.org/1999/xlink" height="123.85px" width="136.7px" xmlns="http://www.w3.org/2000/svg">
  <g transform="matrix(1.0, 0.0, 0.0, 1.0, 68.35, 61.9)">
    <path d="M26.4 -9.2 L25.55 -12.2 25.4 -12.7 25.25 -13.2 25.0 -14.2 25.3 -12.75 26.4 -9.2 Q30.6 5.3 34.0 10.9 17.65 0.1 11.25 -17.9 13.9 -5.35 18.85 3.75 -2.45 -12.65 -5.25 -34.65 -4.75 -37.05 -5.6 -38.25 L-5.25 -34.65 Q-6.55 -28.9 -16.05 -16.35 -30.15 2.2 -24.2 19.2 -32.35 8.05 -34.0 -2.95 -54.55 15.65 -48.25 31.6 -37.55 56.25 -21.35 61.95 -38.4 59.1 -53.25 44.6 -70.35 30.25 -68.1 5.0 -65.7 -18.65 -52.75 -37.7 -45.85 -46.35 -28.7 -53.35 -17.35 -57.95 -0.95 -61.8 37.1 -63.65 50.05 -37.05 L54.15 -28.4 Q60.25 -14.7 63.75 -2.15 L65.0 2.7 Q68.25 16.15 68.35 28.25 L68.3 31.95 Q68.05 39.8 66.45 47.05 63.05 33.85 45.45 17.1 41.0 12.8 37.55 8.75 35.05 5.85 33.1 3.1 28.55 -3.25 26.4 -9.2" fill="url(#gradient0)" fill-rule="evenodd" stroke="none"/>
  </g>
  <defs>
    <linearGradient gradientTransform="matrix(0.0, 0.0832, -0.0834, 0.0, 0.0, 26.0)" gradientUnits="userSpaceOnUse" id="gradient0" spreadMethod="pad" x1="-819.2" x2="819.2">
      <stop offset="0.0" stop-color="#fff23c" stop-opacity="0.0"/>
      <stop offset="0.3803921568627451" stop-color="#fff23c" stop-opacity="0.84705883"/>
      <stop offset="0.6039215686274509" stop-color="#fff23c" stop-opacity="0.8"/>
      <stop offset="1.0" stop-color="#fff23c" stop-opacity="0.0"/>
    </linearGradient>
  </defs>
</svg>
