<?xml version="1.0" encoding="UTF-8" standalone="no"?>
<svg xmlns:xlink="http://www.w3.org/1999/xlink" height="156.75px" width="121.95px" xmlns="http://www.w3.org/2000/svg">
  <g transform="matrix(1.0, 0.0, 0.0, 1.0, 60.95, 78.35)">
    <path d="M18.1 -56.6 Q20.75 -60.35 23.85 -60.65 27.75 -57.3 30.0 -50.3 32.0 -44.05 33.3 -36.2 35.2 -24.45 35.4 -9.1 38.3 -19.65 38.85 -29.5 39.9 -48.85 31.75 -65.6 M43.55 12.8 Q42.8 17.7 41.3 22.25 32.9 55.85 19.45 77.4 55.4 48.05 60.0 -9.1 59.7 -40.75 51.35 -62.6 45.9 -77.55 31.15 -77.35 21.15 -74.6 13.15 -62.0 M-14.2 -55.95 Q-19.4 -60.55 -21.4 -59.9 -24.5 -57.2 -27.0 -51.4 -16.0 -56.85 4.4 -56.3 24.15 -57.1 30.0 -50.3 M-27.0 -51.4 Q-29.55 -45.55 -31.6 -36.45 -16.95 -41.25 5.4 -41.3 24.1 -40.55 33.3 -36.2 M-7.3 -61.7 Q-18.35 -76.45 -31.6 -75.5 -43.15 -75.65 -50.5 -62.6 -56.7 -52.55 -59.25 -29.55 -62.6 18.1 -50.2 39.85 -39.35 62.1 -15.1 77.1 -31.15 57.95 -37.4 26.0 L-37.75 24.8 -38.15 23.65 -38.4 22.85 Q-45.45 -1.6 -41.25 -30.05 L-41.25 -30.7 -40.5 -34.45 M-37.75 24.8 Q-34.0 36.25 -29.2 41.65 -39.15 15.0 -34.7 -18.55 -33.35 -28.65 -31.6 -36.45 M38.85 -29.5 Q44.35 14.15 30.25 41.95 37.8 32.9 41.3 22.25" fill="none" stroke="#000000" stroke-linecap="round" stroke-linejoin="round" stroke-width="2.0"/>
    <path d="M17.35 -62.6 Q22.3 -68.25 27.3 -67.75 M46.5 -51.2 Q49.55 -26.15 46.5 -3.4 M-14.2 -62.0 Q-21.55 -68.35 -26.8 -68.05 -34.25 -62.95 -38.65 -43.35" fill="none" stroke="#000000" stroke-linecap="round" stroke-linejoin="round" stroke-width="1.5"/>
  </g>
</svg>
