<?xml version="1.0" encoding="UTF-8" standalone="no"?>
<svg xmlns:xlink="http://www.w3.org/1999/xlink" height="9.9px" width="42.5px" xmlns="http://www.w3.org/2000/svg">
  <g transform="matrix(1.0, 0.0, 0.0, 1.0, 55.65, 91.85)">
    <path d="M-39.15 -90.3 Q-35.35 -86.55 -39.25 -82.45 -40.6 -81.2 -41.1 -82.95 -42.55 -87.55 -39.15 -90.3 M-25.0 -90.4 Q-20.3 -87.3 -24.55 -84.0 -25.2 -83.5 -25.55 -84.45 -27.55 -88.45 -25.0 -90.4 M-15.8 -91.85 Q-12.25 -89.95 -13.5 -87.1 L-14.1 -87.05 Q-17.75 -89.65 -15.8 -91.85 M-51.35 -91.75 Q-48.35 -88.6 -53.55 -85.45 -56.25 -83.85 -55.5 -86.85 -54.65 -90.4 -51.35 -91.75" fill="#ffffff" fill-rule="evenodd" stroke="none"/>
  </g>
</svg>
