<?xml version="1.0" encoding="UTF-8" standalone="no"?>
<svg xmlns:xlink="http://www.w3.org/1999/xlink" height="135.3px" width="114.3px" xmlns="http://www.w3.org/2000/svg">
  <g transform="matrix(1.0, 0.0, 0.0, 1.0, 57.15, 67.65)">
    <path d="M49.4 -37.95 Q48.85 -12.5 5.3 8.15 15.6 -0.45 21.8 -14.35 15.8 -6.4 -1.8 4.85 -14.95 13.3 -22.05 25.5 -16.95 -0.5 5.3 -20.05 -14.0 -8.2 -26.85 15.8 -35.55 38.25 -33.05 56.3 L-32.55 59.25 Q-31.75 63.6 -30.25 67.65 -34.95 64.65 -38.8 61.15 -55.75 45.95 -57.0 22.15 -58.25 -2.3 -47.9 -25.4 -35.95 -51.85 -14.3 -63.0 3.2 -70.55 22.65 -65.85 41.5 -62.45 51.4 -49.3 64.1 -26.55 48.85 -10.65 52.05 -23.65 49.4 -37.95" fill="url(#gradient0)" fill-rule="evenodd" stroke="none"/>
  </g>
  <defs>
    <linearGradient gradientTransform="matrix(0.0, 0.096, -0.0698, 0.0, 0.0, 27.75)" gradientUnits="userSpaceOnUse" id="gradient0" spreadMethod="pad" x1="-819.2" x2="819.2">
      <stop offset="0.0" stop-color="#fff23c" stop-opacity="0.0"/>
      <stop offset="0.3803921568627451" stop-color="#fff23c" stop-opacity="0.84705883"/>
      <stop offset="0.6039215686274509" stop-color="#fff23c" stop-opacity="0.8"/>
      <stop offset="1.0" stop-color="#fff23c" stop-opacity="0.0"/>
    </linearGradient>
  </defs>
</svg>
