<?xml version="1.0" encoding="UTF-8" standalone="no"?>
<svg xmlns:xlink="http://www.w3.org/1999/xlink" height="18.05px" width="90.35px" xmlns="http://www.w3.org/2000/svg">
  <g transform="matrix(1.0, 0.0, 0.0, 1.0, 46.45, 74.4)">
    <path d="M42.0 -64.75 Q34.7 -70.0 38.55 -74.4 45.75 -70.6 43.25 -64.85 42.95 -64.1 42.0 -64.75 M20.65 -69.1 Q26.7 -65.05 21.25 -60.8 20.5 -60.2 19.95 -61.35 17.45 -66.55 20.65 -69.1 M-6.1 -69.3 Q-0.3 -63.45 -6.35 -57.15 -8.3 -55.2 -9.15 -57.9 -11.4 -65.0 -6.1 -69.3 M-40.95 -71.65 Q-37.05 -67.65 -43.75 -63.65 -47.2 -61.6 -46.25 -65.45 -45.2 -69.95 -40.95 -71.65" fill="#ffffff" fill-rule="evenodd" stroke="none"/>
  </g>
</svg>
