<?xml version="1.0" encoding="UTF-8" standalone="no"?>
<svg xmlns:xlink="http://www.w3.org/1999/xlink" height="138.3px" width="68.7px" xmlns="http://www.w3.org/2000/svg">
  <g transform="matrix(1.0, 0.0, 0.0, 1.0, 6.75, 89.25)">
    <path d="M4.8 -53.8 Q9.2 -71.55 9.85 -89.25 28.35 -87.7 37.45 -80.9 58.25 -62.05 60.9 -33.55 63.55 -5.05 59.55 13.65 55.5 32.3 38.05 45.7 L44.1 34.35 Q34.45 43.8 24.85 49.05 45.0 29.8 45.9 -3.9 46.6 -29.4 43.05 -47.4 42.0 -29.45 32.05 -15.95 33.95 -30.8 31.2 -48.65 25.95 -27.25 9.8 -11.7 15.35 -27.8 17.3 -50.45 9.85 -29.55 -6.75 -14.45 0.7 -30.35 4.8 -53.8" fill="#ffffff" fill-rule="evenodd" stroke="none"/>
  </g>
</svg>
