<?xml version="1.0" encoding="UTF-8" standalone="no"?>
<svg xmlns:xlink="http://www.w3.org/1999/xlink" height="123.5px" width="115.6px" xmlns="http://www.w3.org/2000/svg">
  <g transform="matrix(1.0, 0.0, 0.0, 1.0, 69.0, 51.05)">
    <path d="M19.3 -47.65 Q23.5 -34.2 19.1 -18.75 L19.3 -47.65 M34.3 50.5 Q32.75 29.35 43.95 7.3 36.3 28.4 34.3 50.5 M-68.0 -51.05 Q-68.3 -18.7 -59.8 12.65 -72.05 -12.25 -68.0 -51.05 M33.15 -22.2 Q38.15 -11.2 46.6 1.3 34.05 -12.05 33.15 -22.2 M-52.1 6.6 Q-60.15 -18.35 -56.9 -44.3 -56.8 -18.85 -52.1 6.6 M-2.9 35.8 L10.15 72.45 Q-1.25 52.15 -2.9 35.8 M-5.4 -17.65 L-1.5 25.0 Q-7.8 3.6 -5.4 -17.65" fill="#ffffff" fill-rule="evenodd" stroke="none"/>
  </g>
</svg>
