<?xml version="1.0" encoding="UTF-8" standalone="no"?>
<svg xmlns:xlink="http://www.w3.org/1999/xlink" height="80.0px" width="48.5px" xmlns="http://www.w3.org/2000/svg">
  <g transform="matrix(1.0, 0.0, 0.0, 1.0, 14.15, 32.8)">
    <path d="M-7.65 -32.75 Q27.4 -25.0 33.5 14.65 36.6 34.9 28.45 46.35 L28.9 29.45 Q28.5 37.3 26.8 45.4 L19.9 46.6 22.05 34.95 Q20.25 41.8 16.3 47.2 17.85 30.6 16.2 13.6 16.0 21.5 12.75 28.15 L10.0 8.2 Q10.8 19.25 9.45 27.6 L-6.0 26.85 -7.65 16.75 Q-8.5 23.75 -11.5 27.25 L-13.35 2.6 Q-12.35 -15.1 -14.15 -32.8 L-7.65 -32.75" fill="#ffffff" fill-rule="evenodd" stroke="none"/>
  </g>
</svg>
