<?xml version="1.0" encoding="UTF-8" standalone="no"?>
<svg xmlns:xlink="http://www.w3.org/1999/xlink" height="21.0px" width="89.6px" xmlns="http://www.w3.org/2000/svg">
  <g transform="matrix(1.0, 0.0, 0.0, 1.0, 49.05, 81.35)">
    <path d="M16.85 -74.85 Q22.9 -70.8 17.45 -66.55 16.7 -65.95 16.15 -67.1 13.65 -72.3 16.85 -74.85 M35.2 -81.35 Q42.4 -77.55 39.9 -71.8 39.6 -71.05 38.65 -71.7 31.35 -76.95 35.2 -81.35 M-18.1 -73.3 Q-12.3 -67.45 -18.35 -61.15 -20.3 -59.2 -21.15 -61.9 -23.4 -69.0 -18.1 -73.3 M-43.55 -74.7 Q-39.65 -70.7 -46.35 -66.7 -49.8 -64.65 -48.85 -68.5 -47.8 -73.0 -43.55 -74.7" fill="#ffffff" fill-rule="evenodd" stroke="none"/>
  </g>
</svg>
