<?xml version="1.0" encoding="UTF-8" standalone="no"?>
<svg xmlns:xlink="http://www.w3.org/1999/xlink" height="149.95px" width="174.45px" xmlns="http://www.w3.org/2000/svg">
  <g transform="matrix(1.0, 0.0, 0.0, 1.0, 87.2, 74.95)">
    <path d="M9.6 -18.65 L12.2 -15.3 Q9.1 -13.15 2.7 -11.05 4.85 -12.1 9.6 -18.65" fill="#54c2be" fill-rule="evenodd" stroke="none"/>
    <path d="M13.7 -60.95 L13.55 -58.35 13.55 -58.0 Q17.2 -39.7 14.0 -26.5 14.9 -22.3 17.0 -18.4 25.35 -29.05 26.15 -42.15 26.65 -50.55 24.35 -60.4 M26.15 -42.15 Q28.9 -19.5 26.55 -4.6 37.5 -17.35 37.45 -39.15 L37.45 -39.6 Q37.4 -49.85 34.9 -62.1 M9.6 -18.65 L12.2 -15.3 Q16.3 -11.0 23.3 -9.05 20.1 -12.5 17.0 -18.4 M12.2 -15.3 Q9.1 -13.15 2.7 -11.05 L2.15 -10.9 M2.7 -11.05 Q4.85 -12.1 9.6 -18.65 4.25 -26.85 1.1 -38.05 0.1 -41.65 -0.45 -45.2 -1.85 -21.9 2.25 -5.15 -8.2 -15.55 -11.1 -33.25 -10.95 -13.9 -8.85 -4.1 -20.3 -20.2 -22.0 -41.0 -23.5 -18.65 -19.9 -4.35 -31.05 -17.05 -33.65 -33.0 -33.55 -19.65 -37.8 -8.1 -34.15 8.05 -25.85 17.0 -35.55 12.65 -41.65 5.5 -36.0 15.75 -34.5 26.0 L-26.9 34.3 Q-10.1 50.25 -16.95 74.0 -20.3 69.65 -20.0 57.65 -20.45 66.6 -26.95 72.95 -23.15 57.0 -37.45 41.6 -49.8 32.45 -54.75 21.7 -59.15 33.4 -68.55 39.7 -64.7 32.3 -64.0 13.15 -69.6 22.55 -80.7 27.3 -69.5 12.25 -67.15 -15.3 L-66.2 -23.8 Q-71.35 -8.95 -86.2 -11.95 -78.2 -16.9 -70.0 -37.1 -61.8 -57.35 -46.95 -67.85 M68.05 -28.75 L67.55 -29.35 67.45 -29.45 67.2 -29.85 Q64.7 -33.35 63.6 -38.8 64.8 -28.05 62.85 -18.15 63.45 -12.4 66.5 -9.25 72.2 -3.45 86.25 -6.75 74.8 -7.4 68.05 -28.75 71.45 -24.85 77.05 -24.05 71.65 -30.2 66.5 -48.05 61.35 -66.0 47.35 -73.95 M63.6 -38.8 L62.7 -44.9 Q57.75 -59.95 45.2 -68.65 M44.35 -64.85 Q50.35 -48.15 50.5 -34.3 L50.5 -29.95 Q53.15 -4.0 44.4 16.2 49.45 10.9 53.2 5.25 60.45 -5.8 62.85 -18.15 63.45 -10.7 63.35 -3.25 72.5 18.0 66.95 23.45 81.75 9.45 66.5 -9.25 M50.5 -29.95 Q50.4 -16.75 41.95 -4.3 43.05 -16.45 37.45 -39.15 M13.55 -58.0 Q10.35 -40.65 14.0 -26.5 M50.55 30.25 L45.6 37.6 Q40.15 47.2 38.7 56.75 59.1 37.4 61.8 16.35 63.2 6.55 63.35 -3.25 M45.6 37.6 Q34.05 56.0 34.9 69.15 29.9 50.1 39.75 33.75 50.1 21.2 53.2 5.25 M-33.65 -33.0 L-34.2 -37.25 -34.2 -37.3 Q-35.3 -48.9 -32.1 -62.15 M-40.2 -54.6 Q-41.5 -34.95 -39.75 -19.95 -39.05 -13.6 -37.8 -8.1 M-0.25 -62.7 Q-1.8 -54.0 -0.45 -45.2 M-11.1 -33.25 Q-13.1 -45.35 -11.55 -60.8 M-22.0 -41.0 Q-22.95 -51.75 -21.25 -63.75 M-53.2 -58.9 Q-63.0 -45.45 -66.2 -23.8 M-49.35 5.4 Q-44.75 14.25 -34.5 26.0 M-20.0 57.65 Q-19.75 52.85 -21.25 47.3 M-41.65 5.5 Q-56.15 -11.5 -50.45 -44.05 M-54.75 21.7 Q-51.0 11.6 -51.0 -2.45 M-64.0 13.15 Q-58.7 4.2 -58.3 -8.9" fill="none" stroke="#000000" stroke-linecap="round" stroke-linejoin="round" stroke-width="2.0"/>
  </g>
</svg>
