<?xml version="1.0" encoding="UTF-8" standalone="no"?>
<svg xmlns:xlink="http://www.w3.org/1999/xlink" height="109.0px" width="130.25px" xmlns="http://www.w3.org/2000/svg">
  <g transform="matrix(1.0, 0.0, 0.0, 1.0, 65.1, 54.5)">
    <path d="M41.0 -47.85 Q60.2 -34.15 65.05 -16.25 66.05 19.45 53.95 47.0 55.75 33.9 51.95 10.85 50.8 15.15 49.1 19.3 49.9 3.1 35.95 -22.0 37.45 -7.2 31.65 3.35 28.85 -11.1 19.85 -29.7 20.05 -2.35 14.5 18.1 7.6 -1.1 -8.4 -27.65 -12.0 -9.45 -12.0 4.25 -24.05 -7.7 -28.55 -22.35 -38.6 -1.4 -41.6 11.3 -40.6 34.9 -32.2 54.5 -58.15 39.85 -62.95 18.1 -67.8 -3.65 -61.7 -26.45 -54.7 -37.25 -38.8 -45.45 -19.45 -53.85 0.65 -54.45 23.1 -55.2 41.0 -47.85" fill="#54c2be" fill-rule="evenodd" stroke="none"/>
  </g>
</svg>
