<?xml version="1.0" encoding="UTF-8" standalone="no"?>
<svg xmlns:xlink="http://www.w3.org/1999/xlink" height="84.35px" width="119.6px" xmlns="http://www.w3.org/2000/svg">
  <g transform="matrix(1.0, 0.0, 0.0, 1.0, 79.85, 32.15)">
    <path d="M27.75 -28.15 Q39.4 -12.35 39.7 -2.0 40.0 8.35 38.35 22.2 38.0 1.8 35.05 -7.1 L27.75 -28.15 M24.9 33.7 Q21.0 45.1 12.35 52.2 26.3 27.95 23.8 2.95 28.8 18.3 24.9 33.7 M5.7 22.35 Q0.55 30.05 -9.85 38.5 9.45 12.2 11.15 -0.5 10.8 14.65 5.7 22.35 M-71.65 -10.85 Q-76.3 1.25 -79.85 18.95 -78.1 -7.95 -71.55 -17.55 -65.05 -27.15 -58.0 -32.15 -67.0 -22.95 -71.65 -10.85 M-54.75 -17.95 L-58.8 5.65 -60.8 15.85 Q-62.05 2.85 -58.85 -7.25 -55.65 -17.35 -54.75 -17.95 M-18.6 32.65 Q-15.5 0.4 -13.95 -8.55 -12.15 0.15 -13.35 15.35 -13.55 17.4 -18.6 32.65 M-35.15 7.1 L-38.25 14.7 Q-34.85 3.65 -33.75 -8.55 -32.75 -0.45 -35.15 7.1" fill="#ffffff" fill-rule="evenodd" stroke="none"/>
  </g>
</svg>
