<?xml version="1.0" encoding="UTF-8" standalone="no"?>
<svg xmlns:xlink="http://www.w3.org/1999/xlink" height="57.25px" width="144.85px" xmlns="http://www.w3.org/2000/svg">
  <g transform="matrix(1.0, 0.0, 0.0, 1.0, 80.05, 20.8)">
    <path d="M34.75 -0.15 Q34.7 5.0 33.9 10.85 32.55 -7.15 28.95 -20.0 33.0 -11.45 34.2 -5.3 L34.55 -3.35 34.75 -0.15 M43.15 -4.95 Q48.15 5.2 46.75 10.95 45.45 16.65 41.95 23.65 45.3 12.75 45.0 7.5 44.6 1.2 42.85 -4.65 42.8 -5.0 43.15 -4.95 M39.65 -17.0 Q49.45 -3.75 64.8 -9.85 46.1 -0.1 39.65 -17.0 M10.9 13.15 Q9.85 15.6 -8.8 36.45 13.85 -0.55 15.15 -10.25 16.15 -3.4 14.05 3.65 11.95 10.7 10.9 13.15 M-58.35 -20.8 Q-63.2 -4.35 -68.65 0.15 -74.2 4.6 -80.05 6.75 -72.4 2.55 -67.9 -3.7 -63.25 -10.05 -58.35 -20.8 M-38.1 -2.6 Q-43.65 3.25 -51.0 6.9 -62.9 13.05 -64.45 12.9 L-41.85 -2.2 Q-40.75 -2.95 -34.0 -12.15 -36.0 -4.6 -38.1 -2.6 M-37.75 17.2 Q-19.1 4.85 -9.15 -13.45 -16.1 8.6 -37.75 17.2" fill="#ffffff" fill-rule="evenodd" stroke="none"/>
  </g>
</svg>
