<?xml version="1.0" encoding="UTF-8" standalone="no"?>
<svg xmlns:xlink="http://www.w3.org/1999/xlink" height="80.6px" width="162.75px" xmlns="http://www.w3.org/2000/svg">
  <g transform="matrix(1.0, 0.0, 0.0, 1.0, 81.35, 40.3)">
    <path d="M19.7 -39.3 Q26.25 -26.2 26.6 -12.4 38.45 6.0 41.45 17.9 44.75 9.85 45.05 1.0 45.6 -15.8 35.35 -35.5 M45.05 1.0 Q48.2 22.0 45.05 34.2 61.1 17.2 56.4 -5.55 49.75 -7.4 45.6 -16.95 M43.05 -32.6 Q67.9 -3.6 80.4 -16.35 76.8 -9.45 64.45 -5.8 L56.4 -5.55 M26.6 -12.4 Q26.8 -3.6 24.5 5.5 21.7 15.2 16.3 22.6 8.45 33.4 -4.95 39.3 1.25 26.05 0.05 -10.8 -8.8 11.95 -33.05 18.55 -27.55 10.45 -25.3 -3.95 -38.9 12.4 -64.7 16.3 -59.3 11.25 -55.4 4.95 -70.05 12.65 -80.35 6.7 -68.4 3.15 -59.8 -11.15 -51.25 -25.45 -43.0 -34.2 M-25.3 -3.95 Q-23.9 -13.15 -23.8 -24.95 M-55.4 4.95 Q-49.6 -4.45 -47.15 -16.6 M0.05 -10.8 Q-0.2 -18.35 -0.75 -26.85" fill="none" stroke="#000000" stroke-linecap="round" stroke-linejoin="round" stroke-width="2.0"/>
  </g>
</svg>
