<?xml version="1.0" encoding="UTF-8" standalone="no"?>
<svg xmlns:xlink="http://www.w3.org/1999/xlink" height="15.7px" width="74.9px" xmlns="http://www.w3.org/2000/svg">
  <g transform="matrix(1.0, 0.0, 0.0, 1.0, -19.3, 59.8)">
    <path d="M23.6 -59.55 Q26.75 -55.65 21.5 -51.65 19.3 -50.05 19.3 -52.05 L19.5 -53.45 Q20.3 -57.9 23.6 -59.55 M52.95 -57.25 Q58.35 -51.45 54.25 -44.95 53.65 -44.1 53.15 -44.1 52.4 -44.1 51.85 -45.75 49.2 -53.05 52.95 -57.25 M74.05 -57.05 Q79.7 -53.1 76.2 -48.75 75.7 -48.15 75.05 -49.3 72.0 -54.55 74.05 -57.05 M88.1 -59.8 Q92.95 -57.15 93.95 -53.35 94.3 -52.05 94.2 -50.5 94.2 -49.75 93.25 -50.4 86.15 -55.6 88.1 -59.8" fill="#ffffff" fill-rule="evenodd" stroke="none"/>
  </g>
</svg>
