<?xml version="1.0" encoding="UTF-8" standalone="no"?>
<svg xmlns:xlink="http://www.w3.org/1999/xlink" height="106.3px" width="166.05px" xmlns="http://www.w3.org/2000/svg">
  <g transform="matrix(1.0, 0.0, 0.0, 1.0, 83.05, 53.15)">
    <path d="M66.05 -21.35 Q69.05 -13.4 70.1 -5.35 72.6 7.0 83.0 16.85 76.7 19.9 74.25 15.75 74.9 23.85 80.1 28.75 69.4 30.0 68.65 22.1 65.5 36.9 56.65 46.55 52.15 50.8 45.8 53.15 50.65 47.35 55.5 35.65 52.45 40.05 47.9 42.9 51.3 35.9 53.65 27.5 53.95 12.7 51.4 -6.4 50.6 5.65 44.05 16.3 45.75 5.95 41.6 -12.6 40.45 1.25 30.95 15.0 L35.05 -0.2 Q32.35 8.65 24.85 17.35 L28.1 0.8 Q25.25 12.55 18.0 21.5 9.8 9.55 7.0 -1.95 8.55 12.9 11.45 19.05 -4.15 5.05 -8.05 -19.3 -11.3 2.6 -8.0 13.9 -20.3 0.95 -20.65 -17.7 -24.25 6.1 -21.85 19.05 -30.45 9.45 -33.35 -3.1 -37.15 12.1 -36.7 25.05 -32.7 35.55 -25.8 42.4 -39.8 43.3 -42.8 38.5 -39.8 43.75 -36.45 51.15 -49.85 49.05 -56.25 37.45 -59.55 32.25 -61.4 26.0 -68.6 36.3 -79.55 37.2 -73.0 32.45 -69.0 17.7 -73.5 26.85 -83.05 24.9 -70.9 17.2 -63.85 -5.7 -62.35 -10.55 -61.15 -16.0 -54.7 -36.5 -43.5 -42.4 -19.55 -52.1 5.1 -53.05 29.7 -54.05 48.3 -43.0 60.0 -36.0 66.05 -21.35" fill="url(#gradient0)" fill-rule="evenodd" stroke="none"/>
  </g>
  <defs>
    <linearGradient gradientTransform="matrix(0.0, 0.0825, -0.1013, 0.0, 0.0, 37.45)" gradientUnits="userSpaceOnUse" id="gradient0" spreadMethod="pad" x1="-819.2" x2="819.2">
      <stop offset="0.0" stop-color="#fff23c" stop-opacity="0.0"/>
      <stop offset="0.3803921568627451" stop-color="#fff23c" stop-opacity="0.84705883"/>
      <stop offset="0.6039215686274509" stop-color="#fff23c" stop-opacity="0.8"/>
      <stop offset="1.0" stop-color="#fff23c" stop-opacity="0.0"/>
    </linearGradient>
  </defs>
</svg>
