<?xml version="1.0" encoding="UTF-8" standalone="no"?>
<svg xmlns:xlink="http://www.w3.org/1999/xlink" height="99.0px" width="168.05px" xmlns="http://www.w3.org/2000/svg">
  <g transform="matrix(1.0, 0.0, 0.0, 1.0, 84.05, 49.5)">
    <path d="M29.9 -17.45 Q29.65 -10.85 28.35 -4.95 L28.1 -3.85 24.85 12.7 Q32.35 4.0 35.05 -4.85 L35.6 -7.0 Q36.85 -12.35 36.35 -17.75 M-6.1 -43.9 Q-7.8 -36.0 -7.9 -30.05 L-8.05 -23.95 Q-4.15 0.4 11.45 14.4 8.55 8.25 7.0 -6.6 L6.05 -17.35 M48.4 -33.4 Q52.15 -21.7 51.4 -11.05 53.95 8.05 53.65 22.85 59.3 2.75 58.9 -25.45 M61.0 16.0 Q59.65 24.95 55.5 31.0 50.65 42.7 45.8 48.5 52.15 46.15 56.65 41.9 65.5 32.25 68.65 17.45 69.55 13.1 69.95 8.4 71.25 -0.85 70.1 -10.0 69.05 -18.05 66.05 -26.0 60.0 -40.65 48.3 -47.65 M33.55 -48.5 Q42.85 -32.8 41.6 -17.25 45.75 1.3 44.05 11.65 50.6 1.0 51.4 -11.05 M70.1 -10.0 Q72.6 2.35 83.0 12.2 76.7 15.25 74.25 11.1 74.9 19.2 80.1 24.1 69.4 25.35 68.65 17.45 M74.25 11.1 Q73.75 10.25 73.4 9.2 M53.65 22.85 Q51.3 31.25 47.9 38.25 52.45 35.4 55.5 31.0 M7.0 -6.6 Q9.8 4.9 18.0 16.85 25.25 7.9 28.1 -3.85 M35.05 -4.85 L30.95 10.35 Q40.45 -3.4 41.6 -17.25 M-8.05 -23.95 Q-11.3 -2.05 -8.0 9.25 -20.3 -3.7 -20.65 -22.35 -24.25 1.45 -21.85 14.4 -30.45 4.8 -33.35 -7.75 -37.15 7.45 -36.7 20.4 -32.7 30.9 -25.8 37.75 -39.8 38.65 -42.8 33.85 -39.8 39.1 -36.45 46.5 -49.85 44.4 -56.25 32.8 -59.55 27.6 -61.4 21.35 -68.6 31.65 -79.55 32.55 -73.0 27.8 -69.0 13.05 -73.5 22.2 -83.05 20.25 -70.9 12.55 -63.85 -10.35 -62.35 -15.2 -61.15 -20.65 -54.7 -41.15 -43.5 -47.05 M-20.65 -22.35 Q-20.8 -29.8 -19.05 -38.2 M-33.35 -7.75 Q-36.15 -19.8 -33.7 -34.65 M-67.8 6.9 Q-68.05 9.55 -69.0 13.05 M-61.4 21.35 Q-63.75 13.7 -63.75 6.7 M-42.8 33.85 Q-50.1 26.15 -49.15 22.7 M-40.2 -4.25 Q-40.3 10.95 -36.7 20.4" fill="none" stroke="#000000" stroke-linecap="round" stroke-linejoin="round" stroke-width="2.0"/>
  </g>
</svg>
