<?xml version="1.0" encoding="UTF-8" standalone="no"?>
<svg xmlns:xlink="http://www.w3.org/1999/xlink" height="140.15px" width="141.25px" xmlns="http://www.w3.org/2000/svg">
  <g transform="matrix(1.0, 0.0, 0.0, 1.0, 70.6, 70.05)">
    <path d="M38.3 -5.15 Q39.45 -14.9 34.65 -34.75 33.45 -5.6 16.7 12.85 13.5 10.4 10.9 7.45 L7.65 9.8 8.6 4.6 Q2.7 -3.55 0.7 -15.0 0.85 -3.4 3.9 4.3 -12.0 -15.9 -13.6 -39.25 -18.6 -18.5 -17.2 -3.0 -24.85 -11.0 -26.7 -21.35 L-27.0 -1.95 Q-37.65 -11.1 -39.15 -23.65 -42.55 18.45 -31.05 26.2 -35.4 24.65 -38.75 22.55 -20.15 52.1 -18.8 70.1 -25.35 62.4 -39.35 51.35 -52.25 41.15 -57.15 31.5 -56.35 38.25 -70.6 42.0 -63.0 37.0 -67.7 13.25 -72.45 -10.5 -66.45 -29.6 -60.5 -48.75 -41.6 -62.05 -21.1 -70.0 6.7 -69.95 27.85 -70.85 43.05 -63.45 61.55 -50.7 67.1 -31.4 68.85 -25.35 69.55 -16.75 76.05 40.65 44.65 68.9 53.15 51.3 57.1 8.05 55.85 -0.9 53.0 -12.05 50.9 -7.3 47.2 -3.2 48.85 -8.25 46.2 -27.5 45.4 -15.3 38.3 -5.15" fill="#54c2be" fill-rule="evenodd" stroke="none"/>
  </g>
</svg>
