<?xml version="1.0" encoding="UTF-8" standalone="no"?>
<svg xmlns:xlink="http://www.w3.org/1999/xlink" height="117.0px" width="64.5px" xmlns="http://www.w3.org/2000/svg">
  <g transform="matrix(1.0, 0.0, 0.0, 1.0, -4.3, 36.1)">
    <path d="M20.75 10.3 Q25.1 -9.25 4.3 -36.05 15.8 -36.7 33.2 -22.55 50.55 -8.4 68.8 -8.25 57.05 0.2 44.6 -5.95 48.75 1.15 52.35 9.8 57.3 21.75 63.95 27.65 56.25 30.3 53.85 26.65 59.3 35.65 64.05 39.45 58.3 43.05 52.6 39.3 52.95 65.95 35.7 80.9 35.1 75.05 37.95 70.35 32.3 73.8 24.55 73.9 L35.55 65.6 Q31.5 67.35 26.25 67.15 31.95 63.9 36.9 52.9 L32.05 56.95 Q36.8 43.7 37.0 23.5 34.0 30.95 26.95 35.5 28.85 26.8 28.15 9.55 26.2 20.05 19.15 29.1 L20.75 10.3" fill="#ffffff" fill-rule="evenodd" stroke="none"/>
  </g>
</svg>
