<?xml version="1.0" encoding="UTF-8" standalone="no"?>
<svg xmlns:xlink="http://www.w3.org/1999/xlink" height="138.65px" width="63.4px" xmlns="http://www.w3.org/2000/svg">
  <g transform="matrix(1.0, 0.0, 0.0, 1.0, 9.45, 41.65)">
    <path d="M17.95 -6.65 L17.55 -7.9 Q17.65 21.8 -0.6 40.75 L-5.7 35.65 -9.45 37.4 -3.3 10.45 2.35 -41.65 Q9.8 -41.45 17.9 -38.65 L17.9 -38.7 18.3 -38.55 Q22.45 -37.2 26.35 -35.35 44.85 -22.6 50.4 -3.3 52.15 2.75 52.85 11.35 59.35 68.75 27.95 97.0 36.45 79.4 40.4 36.15 39.15 27.2 36.3 16.05 34.2 20.8 30.5 24.9 32.15 19.85 29.5 0.6 28.7 12.8 21.6 22.95 22.75 13.2 17.95 -6.65" fill="#ffffff" fill-rule="evenodd" stroke="none"/>
  </g>
</svg>
