<?xml version="1.0" encoding="UTF-8" standalone="no"?>
<svg xmlns:xlink="http://www.w3.org/1999/xlink" height="13.75px" width="67.65px" xmlns="http://www.w3.org/2000/svg">
  <g transform="matrix(1.0, 0.0, 0.0, 1.0, 32.55, 22.75)">
    <path d="M17.3 -18.7 Q21.65 -15.65 17.75 -12.4 17.2 -11.95 16.8 -12.8 15.0 -16.8 17.3 -18.7 M31.25 -22.75 Q36.45 -19.85 34.65 -15.5 34.45 -14.9 33.75 -15.4 28.5 -19.4 31.25 -22.75 M-3.7 -18.85 Q0.45 -14.4 -3.9 -9.6 -5.3 -8.15 -5.9 -10.2 -7.5 -15.6 -3.7 -18.85 M-28.6 -20.65 Q-25.8 -17.6 -30.6 -14.55 -33.1 -13.0 -32.4 -15.95 -31.65 -19.35 -28.6 -20.65" fill="#ffffff" fill-rule="evenodd" stroke="none"/>
  </g>
</svg>
