<?xml version="1.0" encoding="UTF-8" standalone="no"?>
<svg xmlns:xlink="http://www.w3.org/1999/xlink" height="142.4px" width="85.35px" xmlns="http://www.w3.org/2000/svg">
  <g transform="matrix(1.0, 0.0, 0.0, 1.0, 49.05, 74.1)">
    <path d="M-15.3 -64.1 Q9.6 -39.6 36.3 -27.8 6.2 -31.25 -13.25 -55.95 23.95 -5.9 11.45 57.7 16.7 11.85 -8.15 -31.4 -2.7 1.45 -18.7 33.2 -17.1 25.45 -16.75 14.4 -19.95 51.0 -36.2 68.3 -31.25 50.05 -26.55 16.15 -26.5 -3.85 -30.4 -32.45 -28.55 -9.9 -37.9 5.3 -36.3 -6.4 -44.0 -54.45 -43.95 -65.5 -49.05 -74.1 L-37.75 -73.55 Q-25.95 -71.55 -15.3 -64.1" fill="#ffffff" fill-rule="evenodd" stroke="none"/>
  </g>
</svg>
