<?xml version="1.0" encoding="UTF-8" standalone="no"?>
<svg xmlns:xlink="http://www.w3.org/1999/xlink" height="24.7px" width="118.4px" xmlns="http://www.w3.org/2000/svg">
  <g transform="matrix(1.0, 0.0, 0.0, 1.0, 84.65, 4.55)">
    <path d="M30.25 6.0 L29.35 7.8 28.1 9.9 Q24.95 14.15 20.15 18.45 30.25 3.65 33.75 -4.55 32.5 0.4 31.0 4.15 30.55 4.95 30.25 6.0 M3.0 7.9 L2.2 9.4 1.0 11.25 Q-2.1 15.05 -7.65 19.1 3.05 5.7 6.1 -1.05 5.05 3.2 3.7 6.3 L3.0 7.9 M15.55 10.1 Q12.45 13.9 6.9 17.95 17.6 4.55 20.65 -2.2 19.6 2.05 18.25 5.15 L17.55 6.75 16.75 8.25 15.55 10.1 M-11.1 7.95 L-12.0 9.55 -13.4 11.3 Q-16.7 14.8 -22.55 18.65 -10.9 5.8 -7.3 -0.8 -8.65 3.35 -10.25 6.5 L-11.1 7.95 M-36.25 6.25 Q-37.45 8.2 -38.8 9.7 -42.6 13.45 -49.15 17.25 -36.05 4.15 -32.3 -2.25 -33.75 1.75 -35.4 4.75 L-36.25 6.25 M-24.2 9.8 Q-27.3 13.6 -32.85 17.65 -22.15 4.25 -19.1 -2.5 -20.15 1.75 -21.5 4.85 L-22.2 6.45 -23.0 7.95 -24.2 9.8 M-53.3 10.55 Q-57.85 15.2 -65.3 20.15 -49.9 4.25 -45.6 -2.7 -47.3 1.5 -49.2 4.8 L-50.3 6.5 -53.3 10.55 M-71.7 11.45 Q-76.65 15.5 -84.65 19.55 -67.5 5.6 -62.05 -1.2 -64.4 3.05 -66.85 6.2 L-68.15 7.8 -71.7 11.45" fill="#ffffff" fill-rule="evenodd" stroke="none"/>
  </g>
</svg>
