<?xml version="1.0" encoding="UTF-8" standalone="no"?>
<svg xmlns:xlink="http://www.w3.org/1999/xlink" height="103.1px" width="97.9px" xmlns="http://www.w3.org/2000/svg">
  <g transform="matrix(1.0, 0.0, 0.0, 1.0, 48.95, 51.55)">
    <path d="M1.35 -49.65 Q29.05 -52.45 42.95 -22.1 56.7 8.2 38.85 51.55 38.55 45.75 37.55 40.4 34.45 24.65 25.0 13.1 12.95 -1.75 11.85 -9.45 12.6 -3.1 13.25 10.35 13.9 24.0 17.9 32.0 -17.2 13.15 -18.85 -16.25 -24.05 -5.7 -35.05 3.25 -46.0 12.25 -48.9 15.45 -49.1 5.9 -48.0 -3.2 -45.35 -25.45 -33.35 -42.45 -23.05 -53.65 -7.3 -51.05 L1.35 -49.65" fill="#f7f08a" fill-rule="evenodd" stroke="none"/>
  </g>
</svg>
