<?xml version="1.0" encoding="UTF-8" standalone="no"?>
<svg xmlns:xlink="http://www.w3.org/1999/xlink" height="134.25px" width="136.85px" xmlns="http://www.w3.org/2000/svg">
  <g transform="matrix(1.0, 0.0, 0.0, 1.0, 68.4, 67.1)">
    <path d="M10.9 -59.7 L12.2 -60.75 Q16.25 -63.55 26.3 -63.8 44.65 -58.85 52.5 -42.95 70.4 -12.0 66.85 16.1 62.35 54.55 35.5 65.35 38.55 59.95 41.8 49.6 44.95 39.2 46.55 35.2 43.45 19.45 34.0 7.9 21.95 -6.95 20.85 -14.65 21.6 -8.3 22.25 5.15 22.9 18.8 26.9 26.8 -8.2 7.95 -9.85 -21.45 -15.05 -10.9 -26.05 -1.95 -37.0 7.05 -39.9 10.25 -39.65 23.8 -36.7 38.1 -32.6 58.25 -23.85 66.15 -46.3 61.75 -55.75 48.2 -65.15 34.65 -66.4 16.7 -71.0 -17.3 -54.05 -42.3 -37.85 -63.1 -13.3 -66.1 -5.65 -65.85 1.2 -61.4 L2.85 -60.25 M13.8 -50.95 Q18.6 -26.65 32.65 -6.6 25.8 -10.3 20.8 -14.85 L20.85 -14.65 M20.8 -14.85 Q5.35 -29.1 8.95 -51.4 M46.55 35.2 Q47.55 40.55 47.85 46.35 65.7 3.0 51.95 -27.3 38.05 -57.65 10.35 -54.85 M5.15 -53.15 Q-8.7 -48.8 -10.0 -27.15 L-9.85 -21.45 M-39.9 10.25 Q-40.1 0.7 -39.0 -8.4 -36.35 -30.65 -24.35 -47.65 -14.05 -58.85 1.7 -56.25" fill="none" stroke="#000000" stroke-linecap="round" stroke-linejoin="round" stroke-width="2.0"/>
  </g>
</svg>
