<?xml version="1.0" encoding="UTF-8" standalone="no"?>
<svg xmlns:xlink="http://www.w3.org/1999/xlink" height="126.2px" width="143.4px" xmlns="http://www.w3.org/2000/svg">
  <g transform="matrix(1.0, 0.0, 0.0, 1.0, 71.7, 63.1)">
    <path d="M53.55 -31.1 Q58.25 -20.05 60.15 -2.05 63.2 27.15 51.7 53.9 L52.15 35.15 51.0 42.05 50.55 44.0 50.55 44.1 50.45 44.4 Q47.95 53.45 37.1 57.95 L42.05 46.55 Q38.75 53.1 33.1 58.85 41.8 40.65 40.5 16.75 38.85 -10.7 26.0 -38.75 23.05 -3.7 1.25 23.9 6.05 8.0 7.05 -13.7 -0.2 6.8 -12.15 20.3 -12.55 1.25 -10.9 -17.05 -9.5 -32.75 -7.3 -45.45 -16.55 -30.3 -31.4 -9.25 -42.4 6.25 -49.15 22.65 -49.1 44.5 -42.85 62.2 -52.65 53.8 -57.45 44.9 L-48.2 63.1 Q-68.7 42.2 -71.7 9.15 -70.85 -32.1 -45.95 -53.35 -19.55 -64.1 21.9 -63.0 43.05 -63.1 57.9 -40.1 72.7 -17.1 71.6 12.25 66.65 -7.15 53.55 -31.1 51.4 -36.1 48.65 -39.7 L53.55 -31.1" fill="url(#gradient0)" fill-rule="evenodd" stroke="none"/>
  </g>
  <defs>
    <linearGradient gradientTransform="matrix(0.0, 0.092, -0.0875, 0.0, 0.0, 27.35)" gradientUnits="userSpaceOnUse" id="gradient0" spreadMethod="pad" x1="-819.2" x2="819.2">
      <stop offset="0.0" stop-color="#fff23c" stop-opacity="0.0"/>
      <stop offset="0.3803921568627451" stop-color="#fff23c" stop-opacity="0.84705883"/>
      <stop offset="0.6039215686274509" stop-color="#fff23c" stop-opacity="0.8"/>
      <stop offset="1.0" stop-color="#fff23c" stop-opacity="0.0"/>
    </linearGradient>
  </defs>
</svg>
