<?xml version="1.0" encoding="UTF-8" standalone="no"?>
<svg xmlns:xlink="http://www.w3.org/1999/xlink" height="118.25px" width="131.2px" xmlns="http://www.w3.org/2000/svg">
  <g transform="matrix(1.0, 0.0, 0.0, 1.0, 65.6, 59.1)">
    <path d="M-53.55 40.75 L-53.6 40.55 -53.95 39.5 -53.55 40.75 -52.1 49.15 Q-69.3 25.7 -64.55 -7.25 -60.35 -35.9 -43.85 -50.25 -21.7 -58.75 4.7 -59.1 27.65 -57.4 43.85 -50.55 L43.9 -50.5 Q57.5 -39.4 62.45 -23.75 66.15 -10.5 65.5 3.3 L62.95 1.9 Q63.7 24.65 53.0 40.8 L56.9 28.0 Q51.65 43.45 37.1 55.5 50.45 34.25 50.1 -2.45 L41.85 -3.0 Q43.6 -7.75 41.65 -19.65 42.05 -12.0 40.6 -3.85 36.0 -5.8 23.75 -4.95 L24.4 -3.85 Q10.8 -3.05 1.95 -3.75 -4.65 -9.55 -6.1 -15.35 -4.8 -9.35 -2.65 -3.8 -15.1 -3.8 -25.6 -5.3 -29.1 -14.85 -29.45 -23.9 -30.35 -13.25 -29.45 -4.25 -36.55 -15.95 -36.25 -26.5 -39.3 -18.35 -41.35 -8.75 -48.95 31.2 -38.2 59.15 -49.6 52.2 -53.55 40.75" fill="url(#gradient0)" fill-rule="evenodd" stroke="none"/>
  </g>
  <defs>
    <linearGradient gradientTransform="matrix(0.0, 0.0769, -0.0801, 0.0, 0.0, 16.75)" gradientUnits="userSpaceOnUse" id="gradient0" spreadMethod="pad" x1="-819.2" x2="819.2">
      <stop offset="0.0" stop-color="#fff23c" stop-opacity="0.0"/>
      <stop offset="0.3803921568627451" stop-color="#fff23c" stop-opacity="0.84705883"/>
      <stop offset="0.6039215686274509" stop-color="#fff23c" stop-opacity="0.8"/>
      <stop offset="1.0" stop-color="#fff23c" stop-opacity="0.0"/>
    </linearGradient>
  </defs>
</svg>
