<?xml version="1.0" encoding="UTF-8" standalone="no"?>
<svg xmlns:xlink="http://www.w3.org/1999/xlink" height="114.6px" width="66.7px" xmlns="http://www.w3.org/2000/svg">
  <g transform="matrix(1.0, 0.0, 0.0, 1.0, 10.3, 30.9)">
    <path d="M15.2 24.35 L3.8 24.8 Q-14.05 2.0 -9.3 -30.75 L-4.5 -30.9 Q18.45 -29.2 34.65 -22.35 L34.7 -22.3 Q48.3 -11.2 53.25 4.45 56.95 17.7 56.3 31.5 L53.75 30.1 Q54.5 52.85 43.8 69.0 L47.7 56.2 Q42.45 71.65 27.9 83.7 41.25 62.45 40.9 25.75 L32.65 25.2 Q34.4 20.45 32.45 8.55 32.85 16.2 31.4 24.35 26.8 22.4 14.55 23.25 L15.2 24.35" fill="#ffffff" fill-rule="evenodd" stroke="none"/>
  </g>
</svg>
