<?xml version="1.0" encoding="UTF-8" standalone="no"?>
<svg xmlns:xlink="http://www.w3.org/1999/xlink" height="137.0px" width="135.1px" xmlns="http://www.w3.org/2000/svg">
  <g transform="matrix(1.0, 0.0, 0.0, 1.0, 67.55, 68.5)">
    <path d="M40.45 -61.55 Q55.75 -48.6 63.15 -30.7 73.2 4.05 60.2 33.2 51.4 53.0 33.95 66.2 48.05 47.0 52.1 22.95 49.65 30.15 44.95 35.95 28.65 55.7 28.1 60.85 24.9 52.8 30.5 35.35 24.3 52.6 10.7 65.25 18.6 38.0 14.75 -10.65 10.8 3.15 -5.8 23.15 6.6 -0.45 4.1 -31.8 3.8 -35.7 2.65 -41.05 0.7 -30.25 -15.75 -20.85 -32.2 -11.45 -40.35 -12.0 -41.95 45.2 -29.65 68.5 -37.95 59.15 -43.6 48.45 L-36.75 62.65 Q-69.1 34.8 -67.45 -5.1 -65.65 -34.5 -48.75 -53.15 -28.4 -64.25 7.15 -68.2 19.4 -69.45 33.4 -65.55 36.9 -63.95 40.45 -61.55" fill="#8ef7aa" fill-rule="evenodd" stroke="none"/>
  </g>
</svg>
