<?xml version="1.0" encoding="UTF-8" standalone="no"?>
<svg xmlns:xlink="http://www.w3.org/1999/xlink" height="134.7px" width="73.35px" xmlns="http://www.w3.org/2000/svg">
  <g transform="matrix(1.0, 0.0, 0.0, 1.0, 37.45, 73.25)">
    <path d="M8.8 -66.3 Q24.1 -53.35 31.5 -35.45 41.55 -0.7 28.55 28.45 19.75 48.25 2.3 61.45 16.4 42.25 20.45 18.2 18.0 25.4 13.3 31.2 -3.0 50.95 -3.55 56.1 -6.75 48.05 -1.15 30.6 -7.35 47.85 -20.95 60.5 -13.05 33.25 -16.9 -15.4 -20.85 -1.6 -37.45 18.4 -25.05 -5.2 -27.55 -36.55 -27.85 -40.35 -28.95 -45.55 -25.9 -56.7 -29.75 -72.3 L-24.5 -72.95 Q-12.25 -74.2 1.75 -70.3 5.25 -68.7 8.8 -66.3" fill="#ffffff" fill-rule="evenodd" stroke="none"/>
  </g>
</svg>
