<?xml version="1.0" encoding="UTF-8" standalone="no"?>
<svg xmlns:xlink="http://www.w3.org/1999/xlink" height="95.5px" width="168.15px" xmlns="http://www.w3.org/2000/svg">
  <g transform="matrix(1.0, 0.0, 0.0, 1.0, 84.1, 47.75)">
    <path d="M11.95 -14.15 Q14.95 -8.2 16.95 -2.9 20.65 6.7 21.0 14.1 33.4 -0.3 29.5 -19.5 26.9 -32.05 17.4 -46.75 M45.4 -45.5 Q59.45 -40.0 67.1 -24.4 74.75 -8.85 83.05 -7.05 75.8 -0.15 68.65 -2.7 73.3 9.3 71.4 19.7 69.3 31.2 75.95 36.3 65.6 40.4 64.0 32.45 63.55 36.1 61.5 39.85 55.3 47.3 44.95 41.1 53.5 38.05 54.5 23.5 L52.25 24.75 Q56.85 17.5 47.4 -4.0 48.05 3.15 42.55 7.7 40.85 -3.1 29.5 -19.5 M68.65 -2.7 Q66.8 -3.35 65.0 -4.55 65.2 6.9 60.0 18.3 58.7 21.05 54.5 23.5 M65.0 -4.55 Q64.9 -8.8 64.1 -12.95 61.0 -28.85 49.3 -37.6 M46.0 -9.95 Q47.15 -6.8 47.4 -4.0 M62.4 23.2 Q64.55 27.8 64.0 32.45 M16.95 -2.9 Q17.65 7.35 10.65 13.5 2.8 20.15 -9.85 22.05 1.6 6.0 -3.3 -11.25 -6.15 -21.2 -6.6 -29.0 -9.35 -5.05 -33.55 1.9 L-34.05 2.05 Q-36.5 5.55 -37.95 9.2 -41.35 23.4 -32.55 34.1 -27.95 39.65 -22.1 40.15 -29.35 46.75 -35.7 46.75 -42.45 46.7 -48.85 41.25 -52.1 38.45 -54.0 35.7 -59.0 46.75 -77.15 42.45 -67.25 39.95 -69.3 25.9 -71.4 11.6 -65.0 2.4 -73.1 0.7 -83.1 -4.6 -72.5 -4.2 -56.65 -20.6 -43.05 -36.85 -30.7 -42.4 M-5.9 -39.8 Q-6.95 -35.1 -6.6 -29.0 M-34.05 2.05 L-39.55 3.35 Q-51.3 5.45 -65.0 2.4 M-54.0 35.7 Q-59.65 25.1 -55.4 14.55" fill="none" stroke="#000000" stroke-linecap="round" stroke-linejoin="round" stroke-width="2.0"/>
  </g>
</svg>
