<?xml version="1.0" encoding="UTF-8" standalone="no"?>
<svg xmlns:xlink="http://www.w3.org/1999/xlink" height="71.9px" width="143.2px" xmlns="http://www.w3.org/2000/svg">
  <g transform="matrix(1.0, 0.0, 0.0, 1.0, 84.35, 48.65)">
    <path d="M30.85 -26.45 Q44.05 -11.3 44.35 -0.95 L44.9 23.25 Q42.65 2.85 39.7 -6.05 36.15 -16.6 30.5 -25.85 30.2 -26.4 30.85 -26.45 M28.6 -3.15 Q29.45 -1.2 33.2 15.05 19.35 -15.9 8.35 -32.35 22.15 -17.45 28.6 -3.15 M31.1 -45.95 Q46.65 -35.8 50.4 -26.35 L58.85 -4.25 Q50.3 -22.4 45.0 -29.7 38.6 -38.4 31.0 -45.3 30.55 -45.7 31.1 -45.95 M-63.3 -16.65 Q-56.8 -25.95 -49.85 -36.4 L-43.8 -44.9 Q-48.05 -32.5 -55.15 -24.7 -62.25 -16.8 -63.3 -16.65 M-26.6 -12.2 Q-33.25 -24.0 -36.8 -38.3 -15.85 2.75 -0.75 22.2 -12.7 9.35 -20.1 -1.4 -24.0 -7.25 -26.6 -12.2 M-32.05 -45.75 Q-26.75 -39.15 -20.75 -32.45 L-20.55 -32.05 Q-20.15 -31.5 -20.15 -30.75 -26.0 -34.65 -30.3 -41.1 L-32.1 -44.1 Q-32.6 -45.1 -32.05 -45.75 M-81.2 -18.95 Q-82.6 -6.95 -80.15 6.7 -86.8 -14.1 -82.95 -25.55 -78.55 -38.85 -71.45 -48.65 -79.65 -33.15 -81.2 -18.95" fill="#ffffff" fill-rule="evenodd" stroke="none"/>
  </g>
</svg>
