<?xml version="1.0" encoding="UTF-8" standalone="no"?>
<svg xmlns:xlink="http://www.w3.org/1999/xlink" height="124.2px" width="107.1px" xmlns="http://www.w3.org/2000/svg">
  <g transform="matrix(1.0, 0.0, 0.0, 1.0, 40.05, 65.15)">
    <path d="M13.4 -3.15 Q6.6 -8.75 -3.6 -15.55 -27.85 -31.8 -33.4 -43.05 -12.75 16.15 26.0 41.75 -12.2 25.75 -37.95 -30.05 -40.1 -37.35 -40.05 -43.95 -40.15 -53.3 -36.05 -63.7 L-35.45 -63.8 Q-12.05 -67.4 12.0 -61.25 36.65 -50.75 48.5 -34.25 71.3 -2.5 66.1 30.75 64.15 4.35 44.0 -24.8 L29.15 -41.95 30.5 -39.95 31.95 -38.3 Q42.9 -25.7 46.55 -10.4 53.3 17.8 44.5 39.5 41.35 47.2 36.7 51.9 41.25 37.85 39.8 19.35 40.85 40.6 30.8 59.05 38.95 36.8 25.3 9.85 24.15 7.6 21.85 4.9 L20.55 3.45 14.25 -2.4 13.4 -3.15" fill="#ffffff" fill-rule="evenodd" stroke="none"/>
  </g>
</svg>
