<?xml version="1.0" encoding="UTF-8" standalone="no"?>
<svg xmlns:xlink="http://www.w3.org/1999/xlink" height="99.8px" width="120.4px" xmlns="http://www.w3.org/2000/svg">
  <g transform="matrix(1.0, 0.0, 0.0, 1.0, 60.2, 49.9)">
    <path d="M13.15 -49.65 Q40.75 -48.3 52.7 -37.25 63.55 -18.45 58.7 5.95 41.15 -13.75 39.5 -34.1 40.55 -13.7 25.2 11.8 L11.7 37.6 Q9.05 30.9 10.15 21.9 6.25 39.0 -2.9 49.9 -2.95 41.95 -4.4 31.15 L-4.65 28.95 -4.65 46.5 Q-14.7 41.2 -19.8 33.5 -15.15 42.25 -15.8 46.45 -31.3 39.45 -37.7 26.95 L-35.95 37.55 Q-53.7 30.55 -58.6 10.45 -63.55 -9.65 -53.05 -28.6 -41.75 -37.1 -30.45 -43.55 -10.75 -51.15 13.15 -49.65" fill="#8ef7aa" fill-rule="evenodd" stroke="none"/>
  </g>
</svg>
