<?xml version="1.0" encoding="UTF-8" standalone="no"?>
<svg xmlns:xlink="http://www.w3.org/1999/xlink" height="89.15px" width="122.4px" xmlns="http://www.w3.org/2000/svg">
  <g transform="matrix(1.0, 0.0, 0.0, 1.0, 61.2, 44.55)">
    <path d="M39.2 -43.55 L39.45 -41.05 39.5 -40.4 Q41.15 -20.05 58.7 -0.35 63.55 -24.75 52.7 -43.55 M-5.2 3.2 Q-5.8 12.9 -4.65 22.65 L-4.4 24.85 Q-2.95 35.65 -2.9 43.6 6.25 32.7 10.15 15.6 10.6 11.75 11.7 7.5 M39.5 -40.4 Q40.55 -20.0 25.2 5.5 L11.7 31.3 Q9.05 24.6 10.15 15.6 M-42.2 1.75 Q-41.9 12.4 -37.7 20.65 -31.6 32.6 -17.2 39.5 L-15.8 40.15 Q-15.15 35.95 -19.8 27.2 -21.15 25.2 -22.1 23.1 L-22.15 23.05 Q-23.95 19.25 -24.7 14.95 M-4.65 22.65 L-4.65 40.2 Q-14.7 34.9 -19.8 27.2 M-37.7 20.65 L-35.95 31.25 Q-53.7 24.25 -58.6 4.15 -63.55 -15.95 -53.05 -34.9" fill="none" stroke="#000000" stroke-linecap="round" stroke-linejoin="round" stroke-width="2.0"/>
  </g>
</svg>
