<?xml version="1.0" encoding="UTF-8" standalone="no"?>
<svg xmlns:xlink="http://www.w3.org/1999/xlink" height="82.1px" width="165.75px" xmlns="http://www.w3.org/2000/svg">
  <g transform="matrix(1.0, 0.0, 0.0, 1.0, 82.85, 41.05)">
    <path d="M64.55 -10.7 L64.6 -10.6 64.65 -10.4 Q73.0 12.95 82.9 16.0 70.1 18.7 66.85 6.55 66.85 15.1 64.4 22.5 L64.35 22.75 Q60.85 33.2 51.45 41.05 54.5 30.3 55.05 12.2 53.3 20.15 47.85 26.95 48.4 12.3 43.4 -6.7 43.45 5.1 37.15 16.15 38.5 5.8 33.95 -8.55 33.4 6.8 18.2 21.1 L22.55 9.15 Q16.95 22.05 -0.15 25.85 2.05 20.75 0.65 5.25 0.15 -0.35 0.3 -5.35 -5.3 12.95 -5.95 19.75 -12.25 6.05 -10.95 -9.9 -13.65 13.45 -30.15 20.6 -27.6 16.0 -25.25 6.85 -29.75 18.35 -43.2 23.6 -40.1 18.15 -37.45 12.35 L-44.3 19.35 Q-47.8 28.95 -49.25 38.55 -52.8 33.0 -53.25 23.05 -56.05 29.9 -66.95 33.6 -63.45 24.2 -62.45 17.8 L-60.8 8.5 Q-64.9 20.0 -82.85 19.95 -69.4 13.25 -64.0 -0.75 -58.65 -14.75 -50.6 -21.7 -22.0 -45.4 34.05 -40.1 55.45 -31.7 62.8 -15.3 L63.1 -14.7 64.25 -11.6 64.55 -10.7" fill="#8ef7aa" fill-rule="evenodd" stroke="none"/>
  </g>
</svg>
