<?xml version="1.0" encoding="UTF-8" standalone="no"?>
<svg xmlns:xlink="http://www.w3.org/1999/xlink" height="137.65px" width="138.45px" xmlns="http://www.w3.org/2000/svg">
  <g transform="matrix(1.0, 0.0, 0.0, 1.0, 69.2, 68.8)">
    <path d="M16.75 -48.0 Q15.75 -13.9 -4.8 2.55 L0.45 -15.55 Q-4.5 -2.0 -17.6 6.45 L-13.1 -7.65 Q-15.35 -1.35 -26.7 4.5 -23.75 -0.7 -22.0 -12.25 -24.8 -1.0 -34.5 5.3 -32.35 1.6 -31.65 -8.8 -32.7 0.7 -39.5 5.3 -38.6 0.4 -39.6 -6.85 -41.1 2.65 -43.55 4.5 -42.25 35.55 -26.4 68.85 -32.95 68.0 -39.15 64.75 -41.45 63.5 -44.5 60.75 L-57.15 54.6 Q-67.25 37.9 -69.2 9.75 -69.05 -34.95 -52.55 -55.75 -38.7 -67.9 -19.8 -68.8 L26.55 -66.0 Q42.4 -60.3 50.85 -51.75 59.25 -43.2 62.45 -37.15 L66.45 -29.25 66.75 -28.45 Q73.85 -10.0 60.9 5.4 53.1 40.55 57.95 67.1 49.55 63.7 44.95 56.95 L44.95 54.7 40.85 52.4 Q40.05 40.95 42.55 30.85 45.0 20.7 44.35 14.65 43.7 8.55 44.85 2.3 38.85 10.0 31.3 14.75 39.8 -0.1 37.4 -20.5 36.55 -27.6 34.1 -34.65 29.25 -41.3 16.75 -48.0" fill="url(#gradient0)" fill-rule="evenodd" stroke="none"/>
  </g>
  <defs>
    <linearGradient gradientTransform="matrix(0.0, 0.0938, -0.0845, 0.0, 0.05, 14.55)" gradientUnits="userSpaceOnUse" id="gradient0" spreadMethod="pad" x1="-819.2" x2="819.2">
      <stop offset="0.0" stop-color="#fff23c" stop-opacity="0.0"/>
      <stop offset="0.3803921568627451" stop-color="#fff23c" stop-opacity="0.84705883"/>
      <stop offset="0.6039215686274509" stop-color="#fff23c" stop-opacity="0.8"/>
      <stop offset="1.0" stop-color="#fff23c" stop-opacity="0.0"/>
    </linearGradient>
  </defs>
</svg>
