<?xml version="1.0" encoding="UTF-8" standalone="no"?>
<svg xmlns:xlink="http://www.w3.org/1999/xlink" height="15.3px" width="108.4px" xmlns="http://www.w3.org/2000/svg">
  <g transform="matrix(1.0, 0.0, 0.0, 1.0, 36.2, 22.15)">
    <path d="M6.45 -19.8 Q12.25 -13.95 6.2 -7.65 4.25 -5.7 3.4 -8.4 1.15 -15.5 6.45 -19.8 M68.75 -15.2 Q73.4 -12.75 71.75 -9.05 L70.95 -9.0 Q66.3 -12.35 68.75 -15.2 M50.6 -16.85 Q56.65 -12.8 51.2 -8.55 50.45 -7.95 49.9 -9.1 47.4 -14.3 50.6 -16.85 M-30.7 -22.15 Q-26.8 -18.15 -33.5 -14.15 -36.95 -12.1 -36.0 -15.95 -34.95 -20.45 -30.7 -22.15" fill="#ffffff" fill-rule="evenodd" stroke="none"/>
  </g>
</svg>
