<?xml version="1.0" encoding="UTF-8" standalone="no"?>
<svg xmlns:xlink="http://www.w3.org/1999/xlink" height="69.1px" width="60.4px" xmlns="http://www.w3.org/2000/svg">
  <g transform="matrix(1.0, 0.0, 0.0, 1.0, 30.2, 34.55)">
    <path d="M30.2 -19.9 Q29.2 14.2 8.65 30.65 L13.9 12.55 Q8.95 26.1 -4.15 34.55 L0.35 20.45 Q-1.9 26.75 -13.25 32.6 -10.3 27.4 -8.55 15.85 -11.35 27.1 -21.05 33.4 -18.9 29.7 -18.2 19.3 -19.25 28.8 -26.05 33.4 -25.15 28.5 -26.15 21.25 -27.65 30.75 -30.1 32.6 -31.35 2.65 -19.75 -20.75 -15.25 -29.85 -1.85 -33.5 19.55 -36.45 27.8 -31.25 30.35 -25.35 30.2 -19.9" fill="#f78cde" fill-rule="evenodd" stroke="none"/>
  </g>
</svg>
