<?xml version="1.0" encoding="UTF-8" standalone="no"?>
<svg xmlns:xlink="http://www.w3.org/1999/xlink" height="80.0px" width="122.9px" xmlns="http://www.w3.org/2000/svg">
  <g transform="matrix(1.0, 0.0, 0.0, 1.0, 109.4, 40.1)">
    <path d="M-101.2 -18.8 Q-105.85 -6.7 -109.4 11.0 -107.65 -15.9 -101.1 -25.5 -94.6 -35.1 -87.55 -40.1 -96.55 -30.9 -101.2 -18.8 M-66.7 -18.6 Q-65.95 -9.85 -64.7 -0.6 L-64.7 -0.15 Q-64.7 0.6 -65.15 1.25 -67.8 -5.4 -67.8 -13.5 L-67.65 -17.1 Q-67.55 -18.25 -66.7 -18.6 M-55.0 2.2 Q-55.75 -6.0 -57.0 -14.7 L-57.0 -15.1 -56.55 -16.45 Q-53.9 -10.2 -53.9 -2.6 -53.9 -0.9 -54.05 0.8 -54.15 1.9 -55.0 2.2 M-4.35 -35.45 Q8.85 -20.3 9.15 -9.95 L9.7 14.25 Q7.45 -6.15 4.5 -15.05 0.95 -25.6 -4.7 -34.85 -5.0 -35.4 -4.35 -35.45 M-24.05 -7.3 Q-24.1 -0.35 -25.45 8.6 -26.05 -15.55 -27.1 -25.55 L-24.7 -13.0 -24.2 -9.5 -24.05 -7.3 M-40.7 14.45 Q-42.0 -18.55 -43.6 -34.7 -40.1 -22.5 -38.55 -9.65 L-38.0 -3.85 Q-38.0 -1.75 -40.7 14.45 M-13.35 11.15 Q-14.15 -2.35 -15.35 -15.0 L-15.8 -24.0 Q-14.55 -21.45 -13.8 -19.0 L-13.6 -18.35 Q-11.05 -10.2 -11.65 -2.15 -12.4 10.3 -13.35 11.15 M-2.55 -16.2 Q-1.8 -7.7 -0.55 1.25 L-0.55 1.65 Q-0.55 2.35 -1.0 3.05 -3.65 -3.4 -3.65 -11.25 L-3.5 -14.8 Q-3.4 -15.9 -2.55 -16.2 M-77.8 -26.45 Q-81.1 -14.1 -83.7 -2.45 L-85.95 5.75 Q-86.4 2.85 -86.3 0.1 -86.3 -7.8 -83.35 -14.9 -78.95 -25.9 -77.8 -26.45 M6.05 6.8 Q6.4 7.4 6.4 9.7 L6.25 13.35 5.3 23.0 Q4.45 30.55 0.8 36.3 L0.5 36.75 -1.45 39.25 -2.0 39.9 -0.5 33.2 Q2.5 22.1 6.05 6.8 M-94.95 -2.6 Q-92.75 11.9 -90.35 24.85 L-89.0 33.85 -89.55 32.9 -91.35 29.25 -91.6 28.65 Q-94.9 20.85 -95.15 12.25 -95.8 -1.4 -94.95 -2.6 M6.75 34.75 L12.45 19.05 12.6 18.75 13.5 17.8 Q12.8 24.5 9.55 31.15 L8.0 34.05 6.95 34.75 6.75 34.75" fill="#ffffff" fill-rule="evenodd" stroke="none"/>
  </g>
</svg>
