<?xml version="1.0" encoding="UTF-8" standalone="no"?>
<svg xmlns:xlink="http://www.w3.org/1999/xlink" height="153.4px" width="57.9px" xmlns="http://www.w3.org/2000/svg">
  <g transform="matrix(1.0, 0.0, 0.0, 1.0, 40.85, 49.95)">
    <path d="M-31.6 16.85 L-40.85 17.25 Q-36.7 -14.1 -40.45 -49.95 -27.9 -49.35 -16.95 -47.2 7.4 -37.25 15.25 -10.0 20.2 16.3 11.55 31.2 14.3 68.6 9.85 84.8 L4.45 90.6 Q8.75 74.05 7.95 56.7 7.7 77.55 2.5 92.3 -1.2 95.25 -6.9 98.05 L-4.7 89.8 Q-6.55 94.2 -11.6 103.45 -5.7 82.8 1.2 39.5 -3.05 44.4 -9.1 47.2 -1.3 38.65 1.0 12.2 -4.7 0.65 -8.6 -16.15 L-8.45 -15.45 -8.3 -14.5 -7.7 -10.2 Q-6.35 1.6 -6.8 15.5 L-17.4 13.9 Q-18.3 -5.2 -22.1 -28.35 -20.15 -8.65 -22.8 15.95 L-28.95 17.05 -30.45 -7.35 Q-30.8 3.95 -31.6 16.85" fill="#ffffff" fill-rule="evenodd" stroke="none"/>
  </g>
</svg>
