<?xml version="1.0" encoding="UTF-8" standalone="no"?>
<svg xmlns:xlink="http://www.w3.org/1999/xlink" height="18.05px" width="91.7px" xmlns="http://www.w3.org/2000/svg">
  <g transform="matrix(1.0, 0.0, 0.0, 1.0, 91.4, 20.45)">
    <path d="M-85.9 -17.7 Q-82.0 -13.7 -88.7 -9.7 -92.15 -7.65 -91.2 -11.5 -90.15 -16.0 -85.9 -17.7 M-46.25 -15.35 Q-40.45 -9.5 -46.5 -3.2 -48.45 -1.25 -49.3 -3.95 -51.55 -11.05 -46.25 -15.35 M-22.9 -15.15 Q-16.85 -11.1 -22.3 -6.85 -23.05 -6.25 -23.6 -7.4 -26.1 -12.6 -22.9 -15.15 M-5.05 -20.45 Q2.15 -16.65 -0.35 -10.9 -0.65 -10.15 -1.6 -10.8 -8.9 -16.05 -5.05 -20.45" fill="#ffffff" fill-rule="evenodd" stroke="none"/>
  </g>
</svg>
