<?xml version="1.0" encoding="UTF-8" standalone="no"?>
<svg xmlns:xlink="http://www.w3.org/1999/xlink" height="100.35px" width="138.15px" xmlns="http://www.w3.org/2000/svg">
  <g transform="matrix(1.0, 0.0, 0.0, 1.0, 64.35, 49.9)">
    <path d="M7.2 -0.6 Q-0.95 -19.85 5.4 -26.8 2.25 -18.2 7.2 -0.6 M32.1 -40.9 Q37.45 -37.45 37.2 -31.65 34.55 -38.25 32.1 -40.9 M42.2 -47.45 Q52.1 -30.1 53.8 -18.8 54.2 -16.65 53.85 -12.6 53.5 -8.6 51.45 -4.5 52.6 -10.15 51.45 -17.9 49.7 -30.05 42.2 -47.45 M73.8 -40.5 Q60.75 -38.55 59.6 -49.9 62.4 -42.25 73.8 -40.5 M51.7 31.2 Q57.75 25.05 60.2 11.15 61.45 25.65 51.7 31.2 M25.05 29.8 Q39.8 36.2 54.6 13.45 41.8 41.25 25.05 29.8 M-14.75 37.95 Q-19.1 34.55 -18.7 27.4 L-14.75 37.95 M-52.9 8.75 Q-46.4 32.7 -21.8 50.45 -53.35 33.5 -52.9 8.75 M-57.45 21.95 Q-71.7 -8.35 -56.55 -49.6 -65.9 -11.55 -57.45 21.95" fill="#ffffff" fill-rule="evenodd" stroke="none"/>
  </g>
</svg>
