<?xml version="1.0" encoding="UTF-8" standalone="no"?>
<svg xmlns:xlink="http://www.w3.org/1999/xlink" height="46.15px" width="136.55px" xmlns="http://www.w3.org/2000/svg">
  <g transform="matrix(1.0, 0.0, 0.0, 1.0, 68.25, 23.05)">
    <path d="M3.8 -7.1 Q3.2 -4.75 3.1 -2.55 2.05 12.65 20.35 22.1 17.0 15.45 16.55 1.8 17.15 11.25 24.7 15.9 L18.55 0.4 17.85 -1.35 M39.9 3.0 Q42.65 7.0 45.3 9.9 52.9 11.95 57.6 11.5 62.3 11.0 67.3 9.1 54.25 0.0 49.15 -7.8 44.05 -15.6 36.45 -22.05 M18.55 0.4 Q29.0 13.15 44.8 15.95 L46.0 16.1 53.3 16.7 Q49.5 14.55 45.3 9.9 M-42.8 -19.05 Q-54.7 -2.1 -67.25 8.85 -50.5 6.05 -40.5 -4.4 L-39.95 -5.0 -36.35 -9.35 M3.1 -2.55 Q-5.6 10.7 -22.4 14.9 L-9.0 -0.8 Q-18.0 8.15 -31.1 12.35 -44.25 16.55 -64.85 16.7 L-64.15 16.3 Q-57.6 12.15 -50.7 5.85 -45.7 1.3 -40.5 -4.4" fill="none" stroke="#000000" stroke-linecap="round" stroke-linejoin="round" stroke-opacity="0.9411765" stroke-width="2.0"/>
  </g>
</svg>
