<?xml version="1.0" encoding="UTF-8" standalone="no"?>
<svg xmlns:xlink="http://www.w3.org/1999/xlink" height="124.0px" width="134.95px" xmlns="http://www.w3.org/2000/svg">
  <g transform="matrix(1.0, 0.0, 0.0, 1.0, 67.45, 62.0)">
    <path d="M19.75 -61.0 Q21.2 -46.6 20.05 -34.95 26.8 -40.0 33.6 -50.65 33.6 -52.85 31.25 -57.6 M20.05 -34.95 Q18.35 -18.3 11.35 -7.3 L-0.3 -8.05 Q0.6 -12.6 -0.5 -22.2 -1.35 -11.0 -2.95 -8.05 L-15.95 -7.3 Q-14.95 -18.15 -16.2 -32.35 -18.45 -19.15 -18.85 -6.85 L-21.15 -6.5 -25.9 -5.6 -28.2 -5.05 Q-29.2 -12.3 -28.5 -18.45 -30.05 -11.6 -29.5 -4.75 L-38.8 -2.1 Q-42.75 -10.95 -41.0 -24.8 L-40.85 -26.0 -40.7 -26.85 -47.65 -10.8 Q-47.85 0.7 -45.0 22.35 -42.15 43.95 -34.0 61.0 -44.25 49.9 -50.35 34.45 L-51.1 32.5 -51.65 30.95 Q-74.9 -4.3 -61.65 -41.95 M39.3 -59.0 Q42.05 -50.95 40.6 -43.8 44.45 -28.45 54.15 -16.15 51.8 -29.55 47.15 -47.75 M33.6 -50.65 Q35.75 -36.05 30.4 -25.3 38.55 -33.6 40.6 -43.8 M54.15 -16.15 Q62.65 25.0 53.35 58.2 69.5 26.9 65.85 -7.0 62.15 -40.95 50.55 -52.35 M-40.7 -26.85 Q-38.65 -41.0 -34.55 -51.5 -32.05 -56.9 -29.55 -59.35 M-44.2 -44.3 L-47.65 -10.8 M-51.65 30.95 Q-61.9 2.1 -56.2 -40.4" fill="none" stroke="#000000" stroke-linecap="round" stroke-linejoin="round" stroke-width="2.0"/>
  </g>
</svg>
