<?xml version="1.0" encoding="UTF-8" standalone="no"?>
<svg xmlns:xlink="http://www.w3.org/1999/xlink" height="68.1px" width="119.25px" xmlns="http://www.w3.org/2000/svg">
  <g transform="matrix(1.0, 0.0, 0.0, 1.0, 59.6, 34.05)">
    <path d="M18.1 -9.85 Q-10.05 -5.65 -20.35 1.55 L-19.35 -1.2 Q-18.35 -3.6 -16.8 -5.9 L-16.65 -6.15 -15.1 -8.2 -25.6 -2.55 Q-29.7 -9.3 -37.4 -15.75 L-40.75 -12.6 Q-34.15 -6.2 -29.75 0.05 L-33.6 2.65 Q-37.25 -3.45 -44.6 -9.6 L-48.0 -5.55 Q-41.8 0.1 -37.5 5.55 -54.8 19.15 -55.15 34.05 -60.9 23.65 -59.2 10.45 -57.55 -2.75 -47.95 -14.65 -15.75 -38.95 34.0 -32.85 44.75 -28.85 45.35 -24.85 49.6 -20.8 55.65 -14.2 63.25 -1.2 56.35 17.2 53.45 8.5 46.5 -0.2 39.3 -9.25 39.55 -16.05 32.75 -12.05 18.1 -9.85" fill="url(#gradient0)" fill-rule="evenodd" stroke="none"/>
  </g>
  <defs>
    <linearGradient gradientTransform="matrix(0.0, 0.0725, -0.0728, 0.0, 0.05, 46.5)" gradientUnits="userSpaceOnUse" id="gradient0" spreadMethod="pad" x1="-819.2" x2="819.2">
      <stop offset="0.0" stop-color="#fff23c" stop-opacity="0.0"/>
      <stop offset="0.3803921568627451" stop-color="#fff23c" stop-opacity="0.84705883"/>
      <stop offset="0.6039215686274509" stop-color="#fff23c" stop-opacity="0.8"/>
      <stop offset="1.0" stop-color="#fff23c" stop-opacity="0.0"/>
    </linearGradient>
  </defs>
</svg>
