<?xml version="1.0" encoding="UTF-8" standalone="no"?>
<svg xmlns:xlink="http://www.w3.org/1999/xlink" height="18.05px" width="94.15px" xmlns="http://www.w3.org/2000/svg">
  <g transform="matrix(1.0, 0.0, 0.0, 1.0, 38.2, 37.5)">
    <path d="M4.45 -32.4 Q10.25 -26.55 4.2 -20.25 2.25 -18.3 1.4 -21.0 -0.85 -28.1 4.45 -32.4 M31.2 -32.2 Q37.25 -28.15 31.8 -23.9 31.05 -23.3 30.5 -24.45 28.0 -29.65 31.2 -32.2 M50.6 -37.5 Q57.8 -33.7 55.3 -27.95 55.0 -27.2 54.05 -27.85 46.75 -33.1 50.6 -37.5 M-32.7 -33.6 Q-28.8 -29.6 -35.5 -25.6 -38.95 -23.55 -38.0 -27.4 -36.95 -31.9 -32.7 -33.6" fill="#ffffff" fill-rule="evenodd" stroke="none"/>
  </g>
</svg>
