<?xml version="1.0" encoding="UTF-8" standalone="no"?>
<svg xmlns:xlink="http://www.w3.org/1999/xlink" height="109.55px" width="155.85px" xmlns="http://www.w3.org/2000/svg">
  <g transform="matrix(1.0, 0.0, 0.0, 1.0, 80.4, 33.7)">
    <path d="M20.95 -24.8 Q33.5 -9.65 33.4 0.7 L32.9 24.9 Q31.5 4.5 28.95 -4.4 25.85 -14.95 20.6 -24.2 L20.5 -24.5 Q20.5 -24.8 20.95 -24.8 M14.25 -2.35 L12.65 2.4 Q10.05 8.25 4.55 15.85 13.8 -4.6 14.5 -14.7 15.3 -6.9 14.25 -2.35 M21.5 74.85 Q37.1 63.7 50.3 46.2 42.5 66.1 21.5 74.85 M38.2 41.05 Q36.3 53.4 24.1 55.6 32.9 52.0 38.2 41.05 M75.45 -13.5 Q62.55 -7.3 52.85 -20.95 62.55 -12.2 75.45 -13.5 M61.85 34.75 Q62.45 13.9 53.15 -7.75 66.85 13.75 61.85 34.75 M-48.65 -12.7 Q-51.35 -2.45 -56.3 6.15 -62.4 16.7 -63.4 17.1 L-52.6 -8.25 -47.0 -20.75 Q-47.35 -17.9 -48.05 -15.15 L-48.65 -12.7 M-72.2 -12.4 Q-76.85 -0.3 -80.4 17.4 -78.65 -9.5 -72.1 -19.1 -65.6 -28.7 -58.55 -33.7 -67.55 -24.5 -72.2 -12.4 M-33.55 -10.75 L-26.25 6.45 -26.15 6.75 -26.1 7.05 -25.65 9.0 Q-30.45 2.55 -32.2 -3.9 L-32.9 -6.8 -33.55 -10.75 M-13.8 24.15 Q-6.35 -8.55 -5.5 -27.5 -3.45 -12.3 -5.35 0.6 L-6.4 6.4 Q-6.9 8.45 -13.8 24.15 M-71.55 48.1 Q-51.25 65.7 -52.4 75.85 -57.0 67.15 -71.55 48.1 M-69.7 37.7 Q-62.4 47.3 -53.8 54.05 -66.6 48.75 -69.7 37.7" fill="#ffffff" fill-rule="evenodd" stroke="none"/>
  </g>
</svg>
