<?xml version="1.0" encoding="UTF-8" standalone="no"?>
<svg xmlns:xlink="http://www.w3.org/1999/xlink" height="120.95px" width="139.7px" xmlns="http://www.w3.org/2000/svg">
  <g transform="matrix(1.0, 0.0, 0.0, 1.0, 69.85, 60.45)">
    <path d="M-39.65 3.55 Q-55.85 0.95 -65.85 -6.25 -69.55 -9.85 -69.85 -14.7 -70.2 -20.8 -65.2 -28.95 L-65.1 -29.1 Q-64.3 -38.25 -54.9 -43.7 L-53.95 -44.2 Q-49.5 -54.1 -32.6 -58.9 -14.3 -62.1 0.2 -58.6 42.55 -49.4 50.8 -59.1 46.8 -47.5 34.05 -46.25 55.35 -36.8 64.45 -11.4 L54.6 -22.4 Q62.7 -11.95 65.9 1.55 67.85 10.4 69.0 18.85 71.05 37.75 68.1 54.35 68.65 57.3 68.55 60.5 63.05 43.7 43.05 31.55 L42.4 31.15 Q32.15 25.0 18.3 20.1 L-39.65 3.55" fill="#e23939" fill-rule="evenodd" stroke="none"/>
  </g>
</svg>
