<?xml version="1.0" encoding="UTF-8" standalone="no"?>
<svg xmlns:xlink="http://www.w3.org/1999/xlink" height="83.8px" width="141.2px" xmlns="http://www.w3.org/2000/svg">
  <g transform="matrix(1.0, 0.0, 0.0, 1.0, 70.6, 41.9)">
    <path d="M-69.15 38.5 L-69.15 38.55 Q-73.3 13.45 -65.5 -6.2 -57.8 -25.85 -48.2 -30.75 -29.3 -37.5 -5.45 -41.9 33.1 -41.7 52.7 -24.15 74.15 -2.85 69.9 20.95 69.25 25.45 66.15 28.2 64.55 32.55 60.75 37.0 57.95 40.25 50.8 41.9 49.6 41.05 50.85 38.9 L50.8 38.85 Q52.0 33.6 51.75 23.75 45.75 16.1 22.55 5.4 -0.65 -5.3 -12.3 -12.1 -26.35 -6.1 -36.45 20.1 -42.25 35.2 -49.55 39.3 -54.85 42.25 -60.95 39.35 L-61.0 39.35 Q-65.0 37.2 -67.1 37.4 -68.45 37.55 -69.15 38.5" fill="#5686b1" fill-rule="evenodd" stroke="none"/>
  </g>
</svg>
