<?xml version="1.0" encoding="UTF-8" standalone="no"?>
<svg xmlns:xlink="http://www.w3.org/1999/xlink" height="17.55px" width="94.15px" xmlns="http://www.w3.org/2000/svg">
  <g transform="matrix(1.0, 0.0, 0.0, 1.0, 70.45, 29.45)">
    <path d="M18.35 -29.45 Q25.55 -25.65 23.05 -19.9 22.75 -19.15 21.8 -19.8 14.5 -25.05 18.35 -29.45 M-64.95 -25.75 Q-61.05 -21.75 -67.75 -17.75 -71.2 -15.7 -70.25 -19.55 -69.2 -24.05 -64.95 -25.75 M-1.05 -24.85 Q5.0 -20.8 -0.45 -16.55 -1.2 -15.95 -1.75 -17.1 -4.25 -22.3 -1.05 -24.85 M-27.8 -24.85 Q-22.0 -19.0 -28.05 -12.7 -30.0 -10.75 -30.85 -13.45 -33.1 -20.55 -27.8 -24.85" fill="#ffffff" fill-rule="evenodd" stroke="none"/>
  </g>
</svg>
