<?xml version="1.0" encoding="UTF-8" standalone="no"?>
<svg xmlns:xlink="http://www.w3.org/1999/xlink" height="167.2px" width="160.3px" xmlns="http://www.w3.org/2000/svg">
  <g transform="matrix(1.0, 0.0, 0.0, 1.0, 80.15, 83.6)">
    <path d="M22.2 -50.3 Q13.3 9.9 -24.55 36.6 2.25 13.15 6.55 -40.95 -6.3 1.35 -26.45 34.95 -42.75 62.1 -63.8 83.6 -51.85 62.45 -40.15 27.1 -46.5 43.75 -60.95 55.65 -69.9 69.7 -72.1 82.7 -71.95 72.1 -71.3 62.6 L-71.2 61.4 Q-69.1 33.3 -62.1 14.55 -73.0 38.95 -80.15 63.35 -71.65 18.7 -58.45 -23.0 -45.25 -64.8 -33.1 -75.95 -22.55 -84.35 3.8 -83.55 30.1 -82.75 38.8 -73.85 68.5 -47.7 79.3 -4.05 83.8 29.2 64.25 55.15 75.85 33.1 64.6 -7.35 66.5 1.25 67.2 10.35 69.3 38.05 39.5 67.3 54.95 49.15 53.9 22.5 54.05 46.6 33.9 56.65 57.0 37.25 48.95 -5.85 43.6 -24.65 33.8 -44.95 L26.1 -50.65 26.1 -46.25 22.2 -50.3" fill="#5686b1" fill-rule="evenodd" stroke="none"/>
  </g>
</svg>
