<?xml version="1.0" encoding="UTF-8" standalone="no"?>
<svg xmlns:xlink="http://www.w3.org/1999/xlink" height="175.2px" width="130.05px" xmlns="http://www.w3.org/2000/svg">
  <g transform="matrix(1.0, 0.0, 0.0, 1.0, 63.45, 69.35)">
    <path d="M-11.55 -1.65 Q-4.8 -12.95 -2.1 -20.5 0.6 -28.05 4.9 -37.4 L3.75 -31.9 3.05 -29.3 1.9 -25.15 Q-0.5 -17.8 -3.95 -11.9 -10.05 -1.6 -11.55 -1.65 M60.8 -37.0 Q57.85 -55.0 50.2 -69.35 56.45 -60.85 62.05 -45.6 66.45 -33.8 66.45 -12.55 L66.3 -5.1 65.45 11.95 Q64.35 -17.05 60.8 -37.0 M-41.05 -29.55 Q-45.65 -11.15 -48.7 19.7 -49.7 -22.0 -41.8 -37.25 -35.9 -49.0 -30.1 -54.25 -37.35 -44.45 -41.05 -29.55 M-56.55 -29.05 Q-60.95 -8.7 -62.9 20.85 -65.2 -19.55 -57.5 -37.8 -51.1 -53.3 -44.2 -61.95 -52.8 -47.3 -56.55 -29.05 M-23.4 6.95 L-21.4 32.35 -20.8 43.3 -22.95 35.95 -23.85 32.05 Q-25.1 25.1 -24.7 18.75 -24.15 7.55 -23.4 6.95 M-60.65 67.6 Q-61.4 80.4 -60.3 88.15 L-58.1 105.85 -60.2 98.75 -62.15 91.05 Q-63.35 86.3 -62.45 79.85 L-61.25 70.45 -61.15 69.5 -60.95 68.25 -60.65 67.6 M-30.75 42.1 L-28.75 67.5 -28.15 78.45 -30.3 71.1 -31.2 67.2 Q-32.45 60.25 -32.05 53.9 -31.5 42.7 -30.75 42.1 M49.4 28.75 L54.05 3.7 56.3 -7.1 56.45 0.55 56.3 4.55 Q55.75 11.65 53.75 17.65 50.3 28.3 49.4 28.75 M63.1 72.75 L64.25 41.2 64.95 27.6 65.85 33.8 66.15 36.8 66.5 41.7 Q66.85 50.35 65.8 58.2 63.8 71.95 63.1 72.75" fill="#ffffff" fill-rule="evenodd" stroke="none"/>
  </g>
</svg>
