<?xml version="1.0" encoding="UTF-8" standalone="no"?>
<svg xmlns:xlink="http://www.w3.org/1999/xlink" height="172.45px" width="60.55px" xmlns="http://www.w3.org/2000/svg">
  <g transform="matrix(1.0, 0.0, 0.0, 1.0, -9.8, 82.0)">
    <path d="M36.6 -51.15 L27.35 -48.05 Q31.6 -70.0 9.8 -77.95 L18.45 -77.95 Q32.2 -82.25 41.8 -82.0 67.5 -74.65 67.65 -41.75 67.7 -27.05 69.2 -1.0 71.55 29.6 69.2 54.8 67.2 76.2 55.5 90.45 63.1 79.8 60.7 59.75 57.7 35.25 58.85 29.7 46.15 62.35 53.3 76.6 39.6 63.75 52.55 27.15 48.05 37.3 40.3 47.35 60.5 -6.75 47.25 -46.2 L45.65 -48.15 34.3 -47.9 36.6 -51.15" fill="#ffffff" fill-rule="evenodd" stroke="none"/>
  </g>
</svg>
