<?xml version="1.0" encoding="UTF-8" standalone="no"?>
<svg xmlns:xlink="http://www.w3.org/1999/xlink" height="203.4px" width="143.85px" xmlns="http://www.w3.org/2000/svg">
  <g transform="matrix(1.0, 0.0, 0.0, 1.0, 71.9, 101.7)">
    <path d="M63.35 -8.95 Q65.3 0.5 59.45 15.1 58.3 20.65 61.3 45.15 63.7 65.2 56.1 75.85 67.8 61.6 69.8 40.2 72.15 15.0 69.8 -15.6 68.3 -41.65 68.25 -56.35 68.1 -89.25 42.4 -96.6 32.8 -96.85 21.85 -93.4 L18.9 -92.45 M30.45 -78.3 Q36.4 -85.6 43.65 -84.65 50.9 -82.1 56.5 -56.35 M8.7 -72.5 L3.0 -62.25 2.95 -62.05 -1.75 -44.3 -4.8 -34.55 Q-8.1 -23.65 -17.15 -12.2 L-17.75 -8.8 Q-1.05 -18.4 6.05 -41.6 13.1 -64.8 14.05 -66.25 L14.15 -66.45 Q14.45 -68.2 17.85 -71.2 21.25 -74.25 28.1 -62.65 32.8 -69.65 38.15 -70.7 42.1 -67.5 46.25 -62.75 L47.85 -60.8 Q61.1 -21.35 40.9 32.75 48.65 22.7 53.15 12.55 54.9 8.55 56.15 4.6 60.8 -10.15 60.8 -26.4 M26.15 -77.9 L25.35 -79.05 Q18.95 -87.95 5.2 -85.85 -11.55 -79.95 -21.65 -51.35 M6.45 -95.75 Q5.6 -96.2 9.5 -93.4 -10.15 -104.15 -25.55 -99.05 -68.95 -76.9 -70.85 -21.0 -71.35 -7.15 -66.0 11.65 -60.7 30.45 -65.05 56.2 -69.4 81.9 -52.45 100.7 -58.7 82.25 -53.55 48.05 L-51.9 37.95 -49.95 28.0 M28.1 -62.65 L37.2 -65.75 34.9 -62.5 46.25 -62.75 M14.15 -66.45 L21.1 -63.5 20.4 -66.4 28.1 -62.65 M53.15 12.55 Q40.2 49.15 53.9 62.0 46.75 47.75 59.45 15.1 M-33.1 48.15 Q-33.45 49.2 -33.3 49.8 L-33.0 51.45 Q-29.7 67.5 -21.3 78.7 -28.3 57.95 -25.9 20.45 L-25.95 19.8 -26.4 15.7 -26.55 13.5 Q-27.3 1.15 -26.9 -11.45 L-26.7 -12.65 M2.95 -62.05 Q-6.55 -46.75 -12.85 -31.5 -15.25 -22.7 -17.15 -12.2 M-53.7 -3.2 Q-57.55 -52.65 -36.2 -71.7 M-53.55 48.05 Q-58.8 88.1 -40.5 94.85 -51.35 86.35 -47.3 34.55 -49.45 21.65 -52.05 3.15 M-17.75 -8.8 Q-18.75 20.25 -15.35 55.45 L-15.25 56.65 M-47.3 34.55 Q-42.55 58.4 -28.45 76.75 L-33.0 51.45 M-15.35 55.45 Q-23.65 37.8 -25.9 20.45 M-34.55 41.3 Q-46.25 -29.65 -32.4 -54.35" fill="none" stroke="#000000" stroke-linecap="round" stroke-linejoin="round" stroke-width="2.0"/>
  </g>
</svg>
