<?xml version="1.0" encoding="UTF-8" standalone="no"?>
<svg xmlns:xlink="http://www.w3.org/1999/xlink" height="161.8px" width="162.3px" xmlns="http://www.w3.org/2000/svg">
  <g transform="matrix(1.0, 0.0, 0.0, 1.0, 81.15, 80.9)">
    <path d="M23.8 -67.9 L22.2 -54.25 26.1 -50.2 26.1 -54.6 33.8 -48.9 Q29.25 -58.25 23.8 -67.9 L24.1 -71.95 M33.8 -48.9 Q43.6 -28.6 48.95 -9.8 L51.0 -1.85 52.1 3.3 Q53.6 11.25 53.9 18.55 54.95 45.2 39.5 63.35 69.3 34.1 67.2 6.4 66.5 -2.7 64.6 -11.3 60.7 -29.0 51.7 -44.7 M38.8 -77.8 Q68.5 -51.65 79.3 -8.0 83.8 25.25 64.25 51.2 75.85 29.15 64.6 -11.3 M-29.85 -13.95 L-30.75 -9.9 Q-34.55 6.1 -40.15 23.15 -51.85 58.5 -63.8 79.65 -42.75 58.15 -26.45 31.0 -6.3 -2.6 6.55 -44.9 L7.45 -50.6 M48.95 -9.8 Q57.0 33.3 33.9 52.7 54.05 42.65 53.9 18.55 M-33.1 -79.9 Q-45.25 -68.75 -58.45 -26.95 -71.65 14.75 -80.15 59.4 -73.0 35.0 -62.1 10.6 -58.0 1.45 -53.4 -7.65 M-60.95 51.7 Q-65.8 55.65 -71.3 58.65 -71.95 68.15 -72.1 78.75 -69.9 65.75 -60.95 51.7 -46.5 39.8 -40.15 23.15 M-63.8 79.65 L-63.9 79.9 M-71.3 58.65 L-71.2 57.45 Q-74.05 59.85 -76.95 61.4 -74.05 60.15 -71.3 58.65 M-62.1 10.6 Q-69.1 29.35 -71.2 57.45 -50.65 40.15 -35.95 -19.85 M22.2 -54.25 Q13.3 5.95 -24.55 32.65 2.25 9.2 6.55 -44.9" fill="none" stroke="#000000" stroke-linecap="round" stroke-linejoin="round" stroke-width="2.0"/>
  </g>
</svg>
