<?xml version="1.0" encoding="UTF-8" standalone="no"?>
<svg xmlns:xlink="http://www.w3.org/1999/xlink" height="40.5px" width="91.95px" xmlns="http://www.w3.org/2000/svg">
  <g transform="matrix(1.0, 0.0, 0.0, 1.0, 45.95, 20.25)">
    <path d="M19.3 -18.65 Q26.8 -17.2 34.25 -14.5 33.85 1.65 25.3 11.55 23.75 -4.3 19.3 -18.65 M7.75 -20.2 L16.8 -19.1 Q17.7 -5.0 13.35 11.55 12.65 -3.25 7.75 -20.2 M34.8 -14.35 Q40.4 -12.3 46.0 -9.55 45.9 -5.65 45.2 -1.95 43.4 7.25 37.75 15.25 39.3 6.85 34.8 -14.35 M-44.35 -10.35 Q-39.15 -12.65 -33.95 -14.4 -25.95 -17.15 -18.0 -18.65 -28.75 2.15 -30.05 15.6 -35.95 1.6 -34.35 -11.9 -43.3 6.4 -44.25 20.25 -47.6 4.7 -44.35 -10.35 M-4.75 -20.25 Q-10.15 -4.4 -10.15 11.45 -15.15 -4.4 -13.75 -19.35 L-4.75 -20.25" fill="#72ffbd" fill-rule="evenodd" stroke="none"/>
  </g>
</svg>
