<?xml version="1.0" encoding="UTF-8" standalone="no"?>
<svg xmlns:xlink="http://www.w3.org/1999/xlink" height="151.65px" width="143.15px" xmlns="http://www.w3.org/2000/svg">
  <g transform="matrix(1.0, 0.0, 0.0, 1.0, 71.55, 75.8)">
    <path d="M-59.85 4.55 Q-68.5 34.45 -69.7 60.85 -76.05 6.75 -60.85 -31.55 -56.75 -40.75 -51.9 -48.3 -39.0 -68.6 -20.5 -75.8 -4.5 -75.4 8.15 -69.25 26.85 -77.45 36.3 -74.35 58.6 -58.4 66.65 -28.95 71.6 -10.7 71.6 3.65 71.8 30.65 64.15 46.45 65.9 28.0 64.05 -2.45 62.25 44.75 36.8 74.5 43.5 61.8 47.2 32.35 L42.45 37.7 Q56.05 15.55 43.1 -30.4 42.3 -14.25 33.5 1.5 35.9 -8.6 32.55 -43.1 28.7 -22.1 16.2 -4.55 L18.35 16.6 Q13.75 9.9 9.85 3.5 2.05 12.5 -8.3 20.5 -0.9 10.1 5.3 -4.25 -5.85 -24.2 -10.05 -41.0 -11.05 -12.6 -6.1 0.8 -21.0 -15.9 -25.6 -33.45 -39.9 -3.0 -39.4 35.6 -37.6 39.9 -35.3 43.15 L-39.3 39.2 Q-38.8 56.7 -35.25 75.85 -59.35 43.15 -59.85 4.55" fill="#5686b1" fill-rule="evenodd" stroke="none"/>
  </g>
</svg>
