<?xml version="1.0" encoding="UTF-8" standalone="no"?>
<svg xmlns:xlink="http://www.w3.org/1999/xlink" height="153.65px" width="145.15px" xmlns="http://www.w3.org/2000/svg">
  <g transform="matrix(1.0, 0.0, 0.0, 1.0, 72.55, 76.8)">
    <path d="M-59.85 4.55 Q-68.5 34.45 -69.7 60.85 -76.05 6.75 -60.85 -31.55 -56.75 -40.75 -51.9 -48.3 -39.0 -68.6 -20.5 -75.8 -4.5 -75.4 8.15 -69.25 26.85 -77.45 36.3 -74.35 58.6 -58.4 66.65 -28.95 71.6 -10.7 71.6 3.65 71.8 30.65 64.15 46.45 65.9 28.0 64.05 -2.45 62.25 44.75 36.8 74.5 43.5 61.8 47.2 32.35 L42.45 37.7 Q56.05 15.55 43.1 -30.4 42.3 -14.25 33.5 1.5 35.9 -8.6 32.55 -43.1 28.7 -22.1 16.2 -4.55 L18.35 16.6 Q13.75 9.9 9.85 3.5 2.05 12.5 -8.3 20.5 -0.9 10.1 5.3 -4.25 -5.85 -24.2 -10.05 -41.0 -11.05 -12.6 -6.1 0.8 -21.0 -15.9 -25.6 -33.45 -39.9 -3.0 -39.4 35.6 -37.6 39.9 -35.3 43.15 L-39.3 39.2 Q-38.8 56.7 -35.25 75.85 -59.35 43.15 -59.85 4.55 L-59.85 4.15 -59.65 -4.85 Q-60.3 -10.15 -60.4 -15.75 M19.05 -47.35 L18.55 -45.15 Q15.1 -31.15 11.05 -19.2 8.3 -11.3 5.3 -4.25 M11.05 -19.2 L9.8 -27.65 M32.55 -43.1 L32.75 -44.35 Q33.55 -49.05 33.9 -53.9 M64.05 -2.45 L64.15 -7.8 Q64.35 -22.2 58.65 -36.65 M43.1 -30.4 L43.1 -31.05 Q43.4 -40.05 41.25 -49.2 M-11.65 -48.8 Q-11.05 -45.0 -10.05 -41.0 M-25.6 -33.45 Q-28.15 -43.2 -27.5 -53.2 M47.2 32.35 Q64.35 10.5 59.05 -24.05 M9.85 3.5 L16.2 -4.55 M-39.4 35.6 Q-46.8 17.65 -45.2 -18.3 M-59.65 -4.85 Q-56.4 21.15 -39.3 39.2" fill="none" stroke="#000000" stroke-linecap="round" stroke-linejoin="round" stroke-width="2.0"/>
  </g>
</svg>
