<?xml version="1.0" encoding="UTF-8" standalone="no"?>
<svg xmlns:xlink="http://www.w3.org/1999/xlink" height="58.75px" width="136.35px" xmlns="http://www.w3.org/2000/svg">
  <g transform="matrix(1.0, 0.0, 0.0, 1.0, 129.2, 30.05)">
    <path d="M-83.35 -12.7 L-84.7 10.9 -85.55 21.1 -86.7 14.0 Q-87.75 5.25 -86.2 -2.0 -84.2 -12.1 -83.35 -12.7 M-44.05 -1.95 L-43.65 3.85 Q-43.6 5.9 -46.5 21.6 -47.45 -11.1 -51.4 -30.05 -45.5 -14.85 -44.05 -1.95 M-67.4 -12.7 Q-66.05 -1.5 -64.0 10.9 L-62.85 21.1 -65.4 14.0 Q-66.65 10.4 -67.25 7.1 -68.15 2.85 -68.2 -0.9 L-68.15 -2.0 Q-68.15 -12.1 -67.4 -12.7 M-15.2 10.9 Q-16.8 17.05 -20.9 24.85 -15.2 3.6 -14.85 -5.25 -14.3 -0.4 -14.35 3.6 L-14.4 5.9 -15.2 10.9 M-105.6 1.55 Q-103.6 -8.55 -102.75 -9.15 L-104.1 14.45 -104.95 24.65 -106.1 17.55 Q-107.15 8.8 -105.6 1.55 M-128.85 5.15 Q-127.75 -4.3 -126.9 -4.85 L-126.25 17.2 -126.2 26.75 Q-127.4 23.25 -127.95 20.1 -128.75 16.7 -129.0 13.7 L-129.1 12.1 Q-129.4 8.45 -128.85 5.15 M6.4 11.3 Q3.55 19.3 -0.9 28.7 3.7 13.45 3.7 5.65 3.6 -3.65 1.35 -12.8 7.15 -0.95 7.15 6.5 7.15 9.15 6.4 11.3" fill="#ffffff" fill-rule="evenodd" stroke="none"/>
  </g>
</svg>
