<?xml version="1.0" encoding="UTF-8" standalone="no"?>
<svg xmlns:xlink="http://www.w3.org/1999/xlink" height="107.8px" width="131.25px" xmlns="http://www.w3.org/2000/svg">
  <g transform="matrix(1.0, 0.0, 0.0, 1.0, 65.6, 53.9)">
    <path d="M20.45 15.25 L20.4 18.0 20.45 17.95 20.5 17.9 20.45 15.25 M24.2 -53.9 Q57.6 -50.05 63.8 -14.85 L64.0 -13.65 64.05 -13.7 Q66.7 -10.15 64.95 -5.5 L64.95 -5.45 Q65.8 7.4 62.45 18.75 L62.45 18.8 Q62.25 23.35 60.2 25.2 L60.15 25.15 Q55.15 37.05 45.15 47.1 L51.0 32.2 Q45.7 44.65 33.8 52.6 L40.2 30.25 Q35.65 44.6 25.9 53.9 22.05 45.6 20.85 24.85 L20.25 23.25 Q19.9 31.35 18.85 39.9 15.65 35.4 7.95 22.85 0.65 10.95 -2.3 -6.3 L1.85 22.05 Q-19.4 -1.6 -23.95 -27.05 -26.35 11.25 -54.4 27.55 -45.15 14.2 -40.3 -7.1 -46.3 6.8 -54.7 20.7 -63.1 34.6 -63.9 41.85 -70.0 4.95 -54.5 -25.45 -44.1 -39.3 -25.2 -38.95 L-25.2 -39.0 Q-22.4 -46.65 -9.4 -50.35 3.65 -54.05 24.2 -53.9" fill="#5686b1" fill-rule="evenodd" stroke="none"/>
  </g>
</svg>
