<?xml version="1.0" encoding="UTF-8" standalone="no"?>
<svg xmlns:xlink="http://www.w3.org/1999/xlink" height="86.75px" width="153.7px" xmlns="http://www.w3.org/2000/svg">
  <g transform="matrix(1.0, 0.0, 0.0, 1.0, 76.85, 43.35)">
    <path d="M6.0 -26.25 Q-1.8 -7.3 -20.8 9.45 L-21.25 9.85 -21.75 10.3 -22.9 11.3 -24.35 12.55 -34.15 21.35 Q-7.9 17.65 7.8 -0.85 L13.4 -9.65 M7.8 -0.85 Q-3.25 15.1 -14.3 20.85 13.65 17.2 27.2 -5.7 L29.05 -13.05 M40.35 -26.9 L39.75 -21.65 Q60.45 8.8 58.6 42.4 L58.7 42.3 Q62.4 33.4 62.8 23.75 63.1 16.5 61.55 8.85 M43.2 -42.35 Q52.9 -36.75 60.1 -28.0 84.5 1.75 71.1 25.65 71.65 18.95 67.75 3.7 70.9 18.3 61.45 37.15 62.7 30.35 62.8 23.75 M39.75 -21.65 Q35.55 5.35 13.45 19.7 22.45 10.15 27.2 -5.7 M67.75 3.7 Q66.0 -5.7 60.4 -15.1 M-20.8 9.45 L-20.8 9.4 -21.25 9.85 M-24.35 12.55 Q-46.1 30.95 -73.05 31.0 L-75.05 31.0 -75.85 30.95 Q-67.0 22.75 -54.55 1.0 -39.9 -23.2 -15.35 -37.25" fill="none" stroke="#000000" stroke-linecap="round" stroke-linejoin="round" stroke-width="2.0"/>
  </g>
</svg>
