<?xml version="1.0" encoding="UTF-8" standalone="no"?>
<svg xmlns:xlink="http://www.w3.org/1999/xlink" height="100.7px" width="106.85px" xmlns="http://www.w3.org/2000/svg">
  <g transform="matrix(1.0, 0.0, 0.0, 1.0, 53.4, 50.35)">
    <path d="M29.95 25.65 Q30.2 34.5 27.3 42.95 42.4 23.2 36.55 -3.1 L36.5 -3.35 Q34.15 -13.65 28.6 -24.95 M-22.45 -28.05 Q-18.3 -22.0 -14.85 -16.0 L-14.4 -15.25 Q5.1 9.8 10.1 26.7 15.05 9.75 8.75 -10.0 L8.65 -10.35 Q5.5 -20.1 -0.4 -30.5 M-14.4 -15.25 Q-2.7 5.15 1.3 24.65 -29.75 16.9 -41.25 -13.15 -35.25 9.5 -14.1 22.95 -33.45 16.35 -44.05 1.45 -54.6 -13.45 -51.8 -28.55 -49.0 -43.7 -36.45 -46.25 -23.9 -48.85 -14.55 -47.45 -3.8 -51.2 10.7 -47.45 16.75 -45.9 23.55 -42.95 46.35 -33.15 51.4 -5.5 57.05 25.7 32.95 49.35 44.55 32.15 40.85 11.5 39.6 4.4 36.55 -3.1 M8.75 -10.0 L21.55 25.95 Q21.7 5.65 15.0 -13.35 L11.0 -23.25 M15.0 -13.35 Q29.2 6.85 29.9 25.2 M-41.25 -13.15 L-42.65 -19.8" fill="none" stroke="#000000" stroke-linecap="round" stroke-linejoin="round" stroke-width="2.0"/>
  </g>
</svg>
