<?xml version="1.0" encoding="UTF-8" standalone="no"?>
<svg xmlns:xlink="http://www.w3.org/1999/xlink" height="110.05px" width="84.25px" xmlns="http://www.w3.org/2000/svg">
  <g transform="matrix(1.0, 0.0, 0.0, 1.0, 51.1, 59.5)">
    <path d="M21.75 -51.5 Q35.35 -24.75 32.7 -9.65 30.0 5.4 24.85 26.35 29.2 -4.8 27.9 -18.7 26.05 -35.35 21.1 -50.8 L21.1 -51.25 Q21.15 -51.75 21.75 -51.5 M15.7 17.4 Q16.05 21.65 13.5 50.55 6.5 -13.35 -15.05 -57.35 9.3 -21.0 14.05 5.55 L15.7 17.4 M-39.0 -24.45 Q-32.4 -11.95 -22.2 1.85 -39.9 -17.25 -44.2 -29.9 -49.55 -45.05 -51.1 -59.5 -46.8 -39.0 -39.0 -24.45" fill="#ffffff" fill-rule="evenodd" stroke="none"/>
  </g>
</svg>
