<?xml version="1.0" encoding="UTF-8" standalone="no"?>
<svg xmlns:xlink="http://www.w3.org/1999/xlink" height="18.05px" width="76.8px" xmlns="http://www.w3.org/2000/svg">
  <g transform="matrix(1.0, 0.0, 0.0, 1.0, 43.8, 71.15)">
    <path d="M27.65 -71.15 Q34.85 -67.35 32.35 -61.6 32.05 -60.85 31.1 -61.5 23.8 -66.75 27.65 -71.15 M12.0 -65.85 Q18.05 -61.8 12.6 -57.55 11.85 -56.95 11.3 -58.1 8.8 -63.3 12.0 -65.85 M-12.35 -66.05 Q-6.55 -60.2 -12.6 -53.9 -14.55 -51.95 -15.4 -54.65 -17.65 -61.75 -12.35 -66.05 M-43.6 -62.2 Q-42.55 -66.7 -38.3 -68.4 -34.4 -64.4 -41.1 -60.4 -44.55 -58.35 -43.6 -62.2" fill="#ffffff" fill-rule="evenodd" stroke="none"/>
  </g>
</svg>
