<?xml version="1.0" encoding="UTF-8" standalone="no"?>
<svg xmlns:xlink="http://www.w3.org/1999/xlink" height="148.85px" width="113.1px" xmlns="http://www.w3.org/2000/svg">
  <g transform="matrix(1.0, 0.0, 0.0, 1.0, 56.55, 74.4)">
    <path d="M-27.3 -61.5 Q-17.35 -74.85 0.45 -74.4 26.1 -67.8 51.35 -26.8 L54.7 -21.2 Q59.45 -7.85 51.9 3.85 L40.5 17.35 Q48.35 24.85 50.4 30.4 54.95 43.7 32.55 56.9 20.5 66.75 28.6 74.45 20.75 71.4 17.55 67.85 16.85 72.5 9.3 73.0 18.5 65.1 12.8 56.3 -1.55 41.65 -0.1 23.25 -1.0 26.85 -4.65 29.9 -1.25 21.2 -10.55 13.75 -18.65 9.4 -32.85 7.1 -42.25 3.15 -48.35 -5.85 -50.25 -8.55 -51.8 -11.7 -61.45 -31.25 -51.55 -47.6 L-51.55 -47.65 Q-44.1 -58.7 -27.3 -61.5 M-3.25 5.2 L-3.2 3.5 Q-4.55 -11.9 -12.1 -22.95 -13.45 -12.05 -7.1 -0.75 -5.45 2.2 -3.25 5.2 M18.3 54.05 L19.4 49.2 Q20.55 44.7 14.55 40.25 L10.6 36.3 Q11.75 44.35 18.3 54.05" fill="#5686b1" fill-rule="evenodd" stroke="none"/>
  </g>
</svg>
