<?xml version="1.0" encoding="UTF-8" standalone="no"?>
<svg xmlns:xlink="http://www.w3.org/1999/xlink" height="160.9px" width="253.75px" xmlns="http://www.w3.org/2000/svg">
  <g transform="matrix(1.0, 0.0, 0.0, 1.0, 126.9, 80.45)">
    <path d="M-29.0 -24.0 L-29.0 -20.65 -29.0 -13.3 -6.0 -14.4 Q-7.05 -28.65 -1.3 -45.6 -2.2 -26.8 0.3 -14.55 23.85 -14.9 48.2 -13.5 51.05 -26.5 48.2 -44.0 L48.2 -44.05 48.25 -43.95 Q55.3 -26.8 54.25 -13.15 L60.7 -12.2 69.25 -10.7 Q77.5 -9.0 85.6 -6.65 L86.9 -6.3 96.55 -3.15 Q96.75 -11.25 94.3 -19.35 89.95 -33.65 77.35 -47.8 L71.9 -53.55 71.6 -53.9 Q62.2 -64.55 45.85 -72.15 18.95 -82.35 -7.75 -78.3 -38.5 -72.2 -52.8 -50.4 L-52.15 -50.25 Q-50.1 -48.65 -49.1 -45.45 -47.05 -38.75 -49.9 -25.3 -55.85 3.1 -59.75 30.5 L-60.35 34.9 Q-53.45 38.3 -47.2 41.75 L-45.95 29.7 -42.7 44.3 Q-29.85 51.85 -19.0 57.2 L-20.85 51.45 Q-27.5 28.65 -29.0 -13.3 L-29.2 -20.0 -29.0 -20.65 M48.2 -44.0 L48.25 -43.95 M48.2 -13.5 L54.25 -13.15 M69.25 -10.7 L69.25 -9.95 69.3 -8.95 69.25 -1.05 Q68.9 5.25 67.65 9.75 70.85 30.75 56.6 40.5 L79.8 51.2 80.55 48.75 82.15 42.4 Q87.25 20.05 85.6 -6.65 M69.25 -1.05 Q68.45 -4.8 69.3 -8.95 M77.35 -47.8 Q83.75 -49.65 91.5 -40.1 113.85 -14.25 125.85 14.75 122.0 30.3 117.0 38.6 110.5 15.0 102.6 -2.3 L102.6 -2.25 112.6 46.55 Q108.9 53.7 105.35 59.2 100.85 66.25 96.5 70.65 93.05 74.1 89.75 75.95 87.65 77.1 85.65 77.6 L80.55 48.75 M-52.8 -50.4 Q-68.85 -53.75 -100.9 -19.85 -120.5 4.85 -125.9 28.3 -122.05 36.65 -113.0 45.8 L-98.3 7.05 -99.3 11.15 Q-105.1 34.45 -106.3 51.95 L-98.35 58.25 Q-92.35 62.7 -85.2 67.4 L-77.55 72.2 -65.05 79.45 Q-63.4 57.5 -60.35 34.9 M-6.0 -14.4 L0.3 -14.55" fill="none" stroke="#000000" stroke-linecap="round" stroke-linejoin="round" stroke-width="2.0"/>
  </g>
</svg>
