<?xml version="1.0" encoding="UTF-8" standalone="no"?>
<svg xmlns:xlink="http://www.w3.org/1999/xlink" height="230.9px" width="201.9px" xmlns="http://www.w3.org/2000/svg">
  <g transform="matrix(1.0, 0.0, 0.0, 1.0, 100.95, 115.45)">
    <path d="M-33.4 -72.3 Q-34.65 -74.7 -36.05 -76.9 -53.2 -103.55 -99.95 -110.95 L-99.85 -110.8 -62.35 -62.8 Q-82.05 -65.8 -95.75 -65.35 -79.6 -50.0 -42.25 -35.3 L-38.05 -39.1 Q-28.7 -47.55 -17.4 -54.55 L-17.4 -54.6 Q-11.6 -83.75 -42.7 -114.45 -38.0 -94.0 -36.05 -76.9 M-17.4 -54.55 Q-12.9 -56.8 -6.85 -48.0 L-1.9 -40.85 -3.7 -40.1 Q14.75 -42.0 28.95 -39.75 61.4 -28.7 81.8 0.55 102.2 29.85 99.65 57.25 96.85 45.35 86.85 29.65 97.0 66.7 80.2 108.35 77.8 89.3 68.65 69.25 69.2 88.85 51.45 108.05 44.4 97.8 41.6 89.25 65.05 77.2 58.85 50.6 45.45 28.15 24.0 4.55 L23.95 4.5 26.55 50.9 Q11.45 47.4 -0.2 33.75 L-0.5 33.4 Q-9.35 23.0 -14.35 9.9 -42.05 71.6 -38.05 114.45 -55.0 96.55 -56.95 82.05 -68.85 98.65 -74.85 112.55 L-74.9 112.6 Q-87.8 87.05 -84.95 65.0 L-99.35 83.0 Q-100.1 65.4 -93.2 43.65 -86.3 21.8 -68.35 -8.95 -58.15 -25.05 -45.9 -31.9 L-44.6 -32.25 Q-44.0 -33.55 -42.25 -35.3 M-3.7 -40.1 Q-22.1 -38.2 -44.6 -32.25 M58.85 50.6 Q64.45 60.0 68.65 69.25 M-16.65 -0.65 Q-16.5 4.2 -14.35 9.9" fill="none" stroke="#000000" stroke-linecap="round" stroke-linejoin="round" stroke-width="2.0"/>
  </g>
</svg>
