<?xml version="1.0" encoding="UTF-8" standalone="no"?>
<svg xmlns:xlink="http://www.w3.org/1999/xlink" height="49.25px" width="120.85px" xmlns="http://www.w3.org/2000/svg">
  <g transform="matrix(1.0, 0.0, 0.0, 1.0, 60.4, 24.6)">
    <path d="M43.85 -16.2 Q59.0 -7.0 60.25 5.9 61.45 18.75 55.35 24.65 49.2 21.55 39.3 21.3 40.7 18.0 37.05 9.9 38.75 17.75 35.5 20.65 25.55 16.5 8.8 17.55 5.55 12.85 5.85 8.1 3.65 13.25 5.3 18.4 -12.45 16.4 -27.05 19.2 -30.15 14.65 -29.95 10.1 -31.7 14.8 -30.85 19.45 -45.0 18.45 -57.9 22.45 -63.1 6.35 -57.5 -5.8 -40.7 -24.05 -2.45 -24.6 25.75 -23.85 43.85 -16.2" fill="#ffcdde" fill-rule="evenodd" stroke="none"/>
  </g>
</svg>
