<?xml version="1.0" encoding="UTF-8" standalone="no"?>
<svg xmlns:xlink="http://www.w3.org/1999/xlink" height="19.7px" width="105.0px" xmlns="http://www.w3.org/2000/svg">
  <g transform="matrix(1.0, 0.0, 0.0, 1.0, 39.8, -0.75)">
    <path d="M55.0 4.8 Q55.35 3.35 56.85 3.3 61.35 5.85 64.4 10.95 66.55 14.6 63.05 16.35 60.95 17.4 59.05 16.1 53.3 12.05 55.0 4.8 M29.4 3.6 Q39.6 5.75 37.7 15.95 37.05 19.7 33.45 20.3 27.05 21.35 24.85 14.85 L24.4 13.25 Q23.05 6.25 29.4 3.6 M5.2 10.6 Q2.1 18.5 -2.8 19.0 -7.75 19.45 -8.65 18.05 -13.75 10.45 -5.4 4.05 -2.05 1.4 2.35 0.75 8.3 2.7 5.2 10.6 M-33.0 3.05 Q-29.65 1.6 -26.15 1.4 -20.1 2.4 -22.55 7.15 L-24.0 9.4 Q-29.95 17.2 -38.9 14.2 -39.75 13.9 -39.8 12.8 -40.05 6.1 -33.0 3.05" fill="#feeeff" fill-rule="evenodd" stroke="none"/>
  </g>
</svg>
