<?xml version="1.0" encoding="UTF-8" standalone="no"?>
<svg xmlns:xlink="http://www.w3.org/1999/xlink" height="61.45px" width="117.45px" xmlns="http://www.w3.org/2000/svg">
  <g transform="matrix(1.0, 0.0, 0.0, 1.0, 58.7, 30.7)">
    <path d="M39.85 -28.4 Q53.7 -19.95 57.85 -2.95 60.7 16.35 54.55 21.2 55.1 16.6 54.3 9.95 52.05 19.25 42.3 23.5 42.45 18.95 40.6 10.15 L40.55 9.85 38.6 1.55 Q37.55 9.35 32.25 15.6 23.2 23.0 11.0 23.25 12.25 22.65 13.95 20.85 9.5 23.15 -2.65 24.55 5.85 15.5 10.2 -5.05 5.75 10.25 -5.3 20.85 -22.65 26.5 -32.8 24.55 -21.4 15.5 -13.55 -1.4 -24.6 19.75 -43.7 29.6 -53.55 31.95 -58.7 29.6 -42.35 23.65 -23.9 -17.45 -17.9 -26.45 5.2 -29.85 20.35 -32.15 39.85 -28.4" fill="url(#gradient0)" fill-rule="evenodd" stroke="none"/>
  </g>
  <defs>
    <linearGradient gradientTransform="matrix(0.0, 0.0979, -0.0717, 0.0, 0.05, 70.0)" gradientUnits="userSpaceOnUse" id="gradient0" spreadMethod="pad" x1="-819.2" x2="819.2">
      <stop offset="0.0" stop-color="#fff23c" stop-opacity="0.0"/>
      <stop offset="0.3803921568627451" stop-color="#fff23c" stop-opacity="0.84705883"/>
      <stop offset="0.6039215686274509" stop-color="#fff23c" stop-opacity="0.8"/>
      <stop offset="1.0" stop-color="#fff23c" stop-opacity="0.0"/>
    </linearGradient>
  </defs>
</svg>
