<?xml version="1.0" encoding="UTF-8" standalone="no"?>
<svg xmlns:xlink="http://www.w3.org/1999/xlink" height="11.85px" width="64.8px" xmlns="http://www.w3.org/2000/svg">
  <g transform="matrix(1.0, 0.0, 0.0, 1.0, 65.1, 19.0)">
    <path d="M-61.3 -17.2 Q-58.65 -14.6 -63.25 -11.95 -65.15 -10.9 -65.1 -12.2 L-64.95 -13.15 Q-64.25 -16.1 -61.3 -17.2 M-37.75 -7.7 Q-38.3 -7.15 -38.7 -7.15 -39.3 -7.15 -39.6 -8.2 -41.2 -12.85 -37.55 -15.65 -33.55 -11.85 -37.75 -7.7 M-15.7 -10.1 Q-16.25 -9.7 -16.6 -10.45 -18.35 -13.85 -16.1 -15.55 -11.95 -12.9 -15.7 -10.1 M-3.95 -19.0 Q-0.3 -17.15 -0.3 -14.6 -0.3 -13.75 -0.75 -12.75 L-1.55 -12.7 Q-6.6 -16.1 -3.95 -19.0" fill="#fffddb" fill-rule="evenodd" stroke="none"/>
  </g>
</svg>
