<?xml version="1.0" encoding="UTF-8" standalone="no"?>
<svg xmlns:xlink="http://www.w3.org/1999/xlink" height="61.15px" width="119.45px" xmlns="http://www.w3.org/2000/svg">
  <g transform="matrix(1.0, 0.0, 0.0, 1.0, 59.7, 30.55)">
    <path d="M-7.25 -17.4 Q-10.0 -9.4 -13.55 -2.55 -21.4 14.35 -32.8 23.4 -22.65 25.35 -5.3 19.7 5.75 9.1 10.2 -6.2 11.6 -11.0 12.35 -16.3 M20.6 -26.9 Q28.8 -15.7 26.15 -3.75 23.45 8.15 13.95 19.7 12.25 21.5 11.0 22.1 23.2 21.85 32.25 14.45 37.55 8.2 38.6 0.4 39.4 -5.65 37.65 -12.6 M39.85 -29.55 Q53.7 -21.1 57.85 -4.1 60.7 15.2 54.55 20.05 55.1 15.45 54.3 8.8 52.55 16.0 46.35 20.2 L42.3 22.35 42.3 21.25 Q42.25 16.75 40.6 9.0 L40.55 8.7 38.6 0.4 M54.3 8.8 Q56.1 1.4 53.2 -9.15 M-23.9 -18.6 Q-42.35 22.5 -58.7 28.45 -53.55 30.8 -43.7 28.45 -24.6 18.6 -13.55 -2.55 M10.2 -6.2 Q5.85 14.35 -2.65 23.4 9.5 22.0 13.95 19.7" fill="none" stroke="#000000" stroke-linecap="round" stroke-linejoin="round" stroke-width="2.0"/>
  </g>
</svg>
