<?xml version="1.0" encoding="UTF-8" standalone="no"?>
<svg xmlns:xlink="http://www.w3.org/1999/xlink" height="112.25px" width="141.75px" xmlns="http://www.w3.org/2000/svg">
  <g transform="matrix(1.0, 0.0, 0.0, 1.0, 70.85, 56.1)">
    <path d="M38.75 -45.05 Q35.35 -40.9 31.45 -37.35 25.35 -22.4 17.0 -16.6 43.2 -24.35 46.35 -45.6 L46.55 -47.25 M46.35 -45.6 Q53.85 -27.7 52.7 4.8 47.55 37.75 35.8 53.35 51.45 50.3 64.3 34.35 75.85 -3.1 63.65 -45.4 M-65.35 -37.75 Q-75.15 4.0 -63.7 34.1 -50.65 49.7 -22.2 55.15 -38.75 18.85 -35.05 -15.35 L-35.0 -15.6 Q-33.6 -28.4 -29.35 -40.9 -25.5 -50.4 -20.6 -55.1 M-35.05 -15.35 Q7.2 -15.15 31.45 -37.35" fill="none" stroke="#000000" stroke-linecap="round" stroke-linejoin="round" stroke-width="2.0"/>
  </g>
</svg>
