<?xml version="1.0" encoding="UTF-8" standalone="no"?>
<svg xmlns:xlink="http://www.w3.org/1999/xlink" height="51.8px" width="90.45px" xmlns="http://www.w3.org/2000/svg">
  <g transform="matrix(1.0, 0.0, 0.0, 1.0, 52.0, 14.65)">
    <path d="M26.55 -3.5 Q32.5 1.95 38.45 10.7 L8.85 -14.65 Q16.15 -11.1 21.35 -7.55 L26.55 -3.5 M11.85 14.05 Q9.25 5.85 10.55 -0.8 11.7 8.2 17.35 16.55 23.0 24.85 32.7 32.6 14.35 22.25 11.85 14.05 M-48.45 -4.4 L-50.85 14.1 Q-50.95 15.1 -51.7 17.05 -52.85 7.65 -49.75 -1.35 L-48.45 -4.4 M-39.7 19.25 Q-44.0 11.7 -44.1 5.5 -41.1 13.8 -33.5 20.9 -25.95 27.95 -14.15 37.15 -35.5 26.8 -39.7 19.25 M-3.4 15.9 Q4.15 23.55 15.95 33.5 -5.4 22.3 -9.6 14.05 -13.9 5.85 -14.0 -0.8 -11.0 8.2 -3.4 15.9" fill="#ffffff" fill-rule="evenodd" stroke="none"/>
  </g>
</svg>
