<?xml version="1.0" encoding="UTF-8" standalone="no"?>
<svg xmlns:xlink="http://www.w3.org/1999/xlink" height="36.1px" width="85.85px" xmlns="http://www.w3.org/2000/svg">
  <g transform="matrix(1.0, 0.0, 0.0, 1.0, 48.2, 3.65)">
    <path d="M31.4 9.3 L34.05 13.2 35.3 15.85 Q36.95 19.7 37.35 23.45 L37.5 25.65 37.65 28.8 36.55 26.15 36.4 25.85 Q34.65 18.8 31.4 9.3 M23.9 16.7 Q24.5 23.4 23.2 32.45 21.35 9.15 18.55 0.0 23.2 9.95 23.9 16.7 M-23.65 1.15 L-25.15 15.7 -26.85 29.6 Q-27.45 23.1 -27.35 18.15 -27.4 8.25 -25.6 4.4 -24.1 0.8 -23.65 1.15 M-46.5 3.9 Q-44.95 -0.2 -44.5 0.0 L-46.0 15.35 -47.75 29.6 Q-48.25 23.1 -48.2 18.15 -48.25 8.3 -46.5 3.9 M-0.15 28.8 Q-2.0 5.5 -4.8 -3.65 -0.15 6.3 0.55 13.05 1.15 19.75 -0.15 28.8" fill="#ffffff" fill-rule="evenodd" stroke="none"/>
  </g>
</svg>
