<?xml version="1.0" encoding="UTF-8" standalone="no"?>
<svg xmlns:xlink="http://www.w3.org/1999/xlink" height="27.85px" width="117.65px" xmlns="http://www.w3.org/2000/svg">
  <g transform="matrix(1.0, 0.0, 0.0, 1.0, 89.65, 11.9)">
    <path d="M9.2 9.2 L12.1 14.3 12.9 15.95 5.2 7.65 -12.05 -11.9 Q-10.85 -11.8 -2.1 -4.2 4.2 1.1 9.2 9.2 M16.0 -2.7 L12.0 -2.9 Q8.3 -3.5 3.8 -5.55 10.35 -4.05 28.0 -4.95 20.85 -3.05 16.0 -2.7 M-44.85 -10.5 L-64.6 8.05 -73.4 15.95 -72.35 14.35 -68.8 9.55 Q-62.8 1.85 -55.8 -3.2 -46.05 -10.4 -44.85 -10.5 M-65.95 -11.0 L-82.3 5.4 -89.65 12.35 Q-87.95 9.25 -86.05 6.65 -81.35 -0.2 -75.35 -4.65 -67.1 -10.95 -65.95 -11.0 M-20.95 -0.45 Q-22.85 -3.65 -24.25 -8.5 -21.05 -2.4 -9.2 10.5 -15.2 6.2 -18.6 2.7 -19.9 1.4 -20.95 -0.45 M-35.05 -0.45 Q-36.25 1.4 -37.6 2.7 -41.2 6.2 -47.55 9.6 -34.85 -2.4 -31.3 -8.5 -33.0 -3.65 -35.05 -0.45" fill="#ffffff" fill-rule="evenodd" stroke="none"/>
  </g>
</svg>
