<?xml version="1.0" encoding="UTF-8" standalone="no"?>
<svg xmlns:xlink="http://www.w3.org/1999/xlink" height="41.45px" width="112.6px" xmlns="http://www.w3.org/2000/svg">
  <g transform="matrix(1.0, 0.0, 0.0, 1.0, 56.3, 20.7)">
    <path d="M2.25 -16.8 L2.55 -14.1 Q5.55 -7.4 11.35 -1.5 19.45 7.15 19.25 14.2 26.75 3.55 25.1 -8.65 24.7 -11.7 23.75 -14.8 M25.1 -8.65 Q33.65 7.05 32.5 15.7 41.3 6.15 40.8 -6.25 40.65 -10.7 39.25 -15.55 M40.8 -6.25 Q43.7 8.15 55.0 19.75 54.65 15.55 55.25 5.5 55.8 -4.6 52.25 -14.05 M-19.6 -13.9 L-19.75 -12.05 Q-10.95 10.15 13.35 11.15 4.95 4.5 2.55 -14.1 M-28.1 -19.7 Q-32.2 -10.0 -31.95 -2.85 -31.5 10.85 -15.25 15.25 -21.45 6.25 -19.75 -12.05 M-36.8 -19.15 Q-39.5 -8.6 -43.4 -1.0 -48.4 8.7 -55.3 13.65 -33.95 11.05 -31.95 -2.85" fill="none" stroke="#123751" stroke-linecap="round" stroke-linejoin="round" stroke-width="2.0"/>
  </g>
</svg>
