<?xml version="1.0" encoding="UTF-8" standalone="no"?>
<svg xmlns:xlink="http://www.w3.org/1999/xlink" height="159.95px" width="151.6px" xmlns="http://www.w3.org/2000/svg">
  <g transform="matrix(1.0, 0.0, 0.0, 1.0, 75.8, 79.95)">
    <path d="M-22.4 -31.25 Q-14.9 -41.65 -7.5 -45.5 14.75 -56.9 25.55 -79.95 21.5 -43.6 2.0 -28.9 11.6 -32.85 31.95 -33.05 52.25 -33.25 75.05 -43.4 57.35 -18.25 29.1 -15.15 54.55 1.25 75.8 -4.2 54.7 6.9 41.3 0.1 48.55 9.6 51.55 29.2 55.1 52.05 60.65 60.1 45.2 44.65 40.6 28.65 47.1 55.4 43.35 80.0 40.35 64.9 30.6 44.2 27.8 53.75 22.0 63.4 26.05 49.65 23.9 34.05 15.95 18.95 0.3 2.8 5.2 17.55 10.1 26.15 -17.0 7.95 -27.4 -10.2 -26.45 5.15 -32.2 17.15 L-35.95 -10.05 Q-38.95 13.5 -60.0 28.05 -67.35 48.0 -65.6 68.55 -86.05 30.5 -65.45 -9.45 -51.05 -29.35 -22.4 -31.25" fill="url(#gradient0)" fill-rule="evenodd" stroke="none"/>
  </g>
  <defs>
    <linearGradient gradientTransform="matrix(0.0, 0.0855, -0.0925, 0.0, 0.0, 56.35)" gradientUnits="userSpaceOnUse" id="gradient0" spreadMethod="pad" x1="-819.2" x2="819.2">
      <stop offset="0.0" stop-color="#fff23c" stop-opacity="0.0"/>
      <stop offset="0.3803921568627451" stop-color="#fff23c" stop-opacity="0.84705883"/>
      <stop offset="0.6039215686274509" stop-color="#fff23c" stop-opacity="0.8"/>
      <stop offset="1.0" stop-color="#fff23c" stop-opacity="0.0"/>
    </linearGradient>
  </defs>
</svg>
