<?xml version="1.0" encoding="UTF-8" standalone="no"?>
<svg xmlns:xlink="http://www.w3.org/1999/xlink" height="16.8px" width="95.95px" xmlns="http://www.w3.org/2000/svg">
  <g transform="matrix(1.0, 0.0, 0.0, 1.0, 73.85, 24.1)">
    <path d="M17.6 -24.1 Q22.05 -21.75 22.1 -18.5 L21.55 -16.15 Q21.3 -15.5 20.5 -16.05 14.4 -20.45 17.6 -24.1 M-68.35 -22.15 Q-64.45 -18.15 -71.15 -14.15 -73.9 -12.55 -73.85 -14.55 L-73.65 -15.95 Q-72.6 -20.45 -68.35 -22.15 M-28.35 -19.45 Q-22.9 -13.95 -28.6 -8.05 -29.4 -7.3 -29.9 -7.3 -30.75 -7.3 -31.15 -8.75 -33.35 -15.4 -28.35 -19.45 M-2.1 -19.6 Q3.95 -15.55 -1.5 -11.3 -2.25 -10.7 -2.8 -11.85 -5.3 -17.05 -2.1 -19.6" fill="#ffffff" fill-rule="evenodd" stroke="none"/>
  </g>
</svg>
