<?xml version="1.0" encoding="UTF-8" standalone="no"?>
<svg xmlns:xlink="http://www.w3.org/1999/xlink" height="45.7px" width="127.95px" xmlns="http://www.w3.org/2000/svg">
  <g transform="matrix(1.0, 0.0, 0.0, 1.0, 84.85, 12.75)">
    <path d="M9.15 23.3 L8.6 24.55 Q7.35 27.15 5.05 30.55 7.65 24.65 8.2 20.4 8.85 16.1 6.45 12.05 8.9 14.55 9.8 18.4 L9.95 19.3 9.8 20.85 9.5 22.2 9.15 23.3 M33.25 23.3 L32.4 24.4 27.45 29.25 Q31.45 24.25 33.05 20.25 34.85 16.3 33.6 11.75 35.3 14.8 35.15 18.75 L35.05 19.7 34.5 21.15 33.9 22.35 33.25 23.3 M22.05 22.3 L21.5 23.55 Q20.25 26.15 17.95 29.55 20.55 23.65 21.1 19.4 21.75 15.1 19.35 11.05 21.8 13.55 22.7 17.4 L22.85 18.3 22.7 19.85 22.4 21.2 22.05 22.3 M41.6 0.7 L42.2 1.65 Q42.6 2.45 42.8 3.65 L43.0 5.4 43.1 5.8 43.05 6.9 42.9 8.65 Q42.35 12.4 40.8 17.65 41.6 9.35 40.25 3.95 39.1 -1.55 33.75 -5.05 38.35 -3.35 41.6 0.7 M-75.4 -12.75 Q-81.25 -6.55 -81.65 1.7 -82.15 9.85 -79.5 21.85 -83.35 12.6 -84.45 6.45 L-84.7 4.3 Q-85.25 -0.3 -83.9 -2.85 -80.8 -9.4 -75.4 -12.75 M-5.05 22.1 L-4.6 32.95 Q-6.45 23.8 -8.85 19.8 -11.7 15.0 -16.3 10.85 L-16.4 10.75 Q-16.4 10.55 -16.05 10.55 -5.3 17.4 -5.05 22.1 M-33.55 15.1 Q-31.6 21.35 -22.75 29.85 -31.8 23.65 -34.35 19.3 L-35.25 17.65 Q-36.45 15.15 -36.6 13.4 L-36.6 12.15 Q-36.0 6.55 -32.8 2.95 -35.6 8.75 -33.55 15.1 M-73.85 7.8 Q-72.5 0.65 -68.85 -3.0 -72.25 3.5 -70.5 11.6 -68.85 19.6 -63.2 30.5 -69.35 22.55 -71.95 16.95 L-72.8 14.9 Q-74.45 10.6 -73.85 7.8 M-50.3 19.7 L-51.15 17.65 Q-52.8 13.35 -52.2 10.55 -50.85 3.4 -46.55 -1.2 -50.6 6.25 -48.85 14.35 -47.2 22.35 -41.25 32.0 -47.7 25.3 -50.3 19.7" fill="#ffffff" fill-rule="evenodd" stroke="none"/>
  </g>
</svg>
