<?xml version="1.0" encoding="UTF-8" standalone="no"?>
<svg xmlns:xlink="http://www.w3.org/1999/xlink" height="64.85px" width="135.6px" xmlns="http://www.w3.org/2000/svg">
  <g transform="matrix(1.0, 0.0, 0.0, 1.0, 67.8, 32.4)">
    <path d="M58.75 2.75 Q59.35 5.35 59.55 7.75 L59.6 8.3 Q59.8 11.05 59.55 13.55 L59.15 15.85 57.5 25.75 Q68.65 16.8 66.4 -3.1 65.05 -14.7 56.25 -24.95 M34.35 7.75 L34.2 11.75 Q36.7 23.55 34.35 30.45 45.9 25.55 47.6 14.6 L47.8 11.0 47.8 10.85 47.5 6.2 M47.6 14.6 Q47.95 26.55 47.75 29.2 57.15 24.85 59.15 15.85 M-15.95 -27.95 Q-10.1 8.5 26.8 6.65 L29.4 6.45 26.75 6.2 Q7.85 3.45 -0.8 -27.0 M19.4 12.7 L19.8 14.25 Q26.45 26.3 25.2 30.45 L26.35 29.5 Q29.6 26.65 31.5 22.6 33.7 17.95 34.2 11.75 M-18.45 4.95 L-18.5 8.5 Q-15.85 22.35 4.7 30.45 1.3 24.05 0.6 13.2 L0.45 10.2 M0.6 13.2 Q2.95 24.15 18.25 31.45 19.4 30.7 19.9 23.0 20.2 17.15 19.8 14.25 M39.85 -31.4 Q66.35 -4.6 38.2 3.95 52.45 -5.65 37.8 -22.3 M-57.7 -25.6 Q-64.45 -17.0 -66.45 -4.7 -69.0 14.75 -54.2 25.45 -57.05 22.05 -55.35 9.35 L-54.8 5.6 M-37.5 -28.25 L-38.25 -27.05 Q-52.7 -4.6 -32.65 7.4 -39.95 -3.75 -32.65 -17.7 M-35.65 7.75 L-35.8 9.7 Q-33.95 26.2 -13.9 31.05 -18.5 25.45 -18.5 8.5 M-55.35 9.35 Q-55.9 25.5 -32.85 30.8 -36.5 20.45 -35.8 9.7" fill="none" stroke="#000000" stroke-linecap="round" stroke-linejoin="round" stroke-width="2.0"/>
  </g>
</svg>
