<?xml version="1.0" encoding="UTF-8" standalone="no"?>
<svg xmlns:xlink="http://www.w3.org/1999/xlink" height="92.1px" width="124.95px" xmlns="http://www.w3.org/2000/svg">
  <g transform="matrix(1.0, 0.0, 0.0, 1.0, 62.45, 46.05)">
    <path d="M-33.2 -21.05 Q-46.55 10.2 -36.05 44.95 -49.7 28.4 -52.1 11.0 -53.05 33.45 -48.9 46.05 -62.1 30.5 -62.45 8.55 -60.85 -22.4 -44.95 -33.9 L-38.7 -35.55 Q-31.6 -42.25 -21.4 -38.2 -13.7 -44.95 -4.6 -46.05 L-3.75 -45.9 Q19.9 -46.75 43.55 -39.6 71.9 -10.55 57.85 25.65 59.05 12.2 51.85 -7.6 53.95 6.8 48.55 20.7 47.6 4.0 38.95 -16.55 41.55 0.55 34.65 16.4 35.65 7.15 28.3 -14.7 30.6 1.55 22.55 17.55 22.75 4.55 16.8 -12.5 17.5 -7.05 17.1 -1.75 16.05 7.2 12.8 16.25 13.7 2.95 5.45 -15.35 2.8 -21.15 0.6 -25.05 -10.95 -25.35 -16.35 -20.95 -26.7 -23.15 -33.2 -21.05" fill="#00ccff" fill-rule="evenodd" stroke="none"/>
  </g>
</svg>
