<?xml version="1.0" encoding="UTF-8" standalone="no"?>
<svg xmlns:xlink="http://www.w3.org/1999/xlink" height="117.25px" width="123.1px" xmlns="http://www.w3.org/2000/svg">
  <g transform="matrix(1.0, 0.0, 0.0, 1.0, 61.55, 58.6)">
    <path d="M-18.9 -29.7 Q-23.95 -34.9 -33.25 -22.9 L-33.3 -22.7 -33.6 -22.75 Q-40.95 -23.35 -44.3 -18.35 L-44.35 -18.15 Q-46.15 -13.1 -43.85 5.55 -42.7 18.55 -38.05 29.35 -42.05 27.85 -44.45 23.45 L-44.45 23.7 Q-41.75 47.3 -38.35 58.65 -58.1 34.85 -61.05 6.65 -62.4 -5.1 -60.0 -18.15 L-59.55 -20.45 -59.2 -22.05 -56.45 -33.95 Q-53.55 -41.25 -47.85 -46.95 -38.1 -56.85 -14.5 -57.95 L-12.9 -58.1 -6.2 -58.5 Q22.75 -59.9 42.5 -44.15 L43.6 -43.25 43.45 -43.25 Q53.55 -33.7 58.7 -16.85 63.8 0.0 59.8 23.35 58.3 32.05 55.4 35.15 56.75 24.95 55.5 9.7 L55.4 8.9 55.4 9.1 Q54.5 33.6 34.35 49.5 43.7 24.95 43.85 11.8 41.25 31.75 28.5 46.4 31.9 36.9 29.3 17.15 29.35 32.75 25.1 39.45 L25.1 38.9 Q22.25 17.55 15.05 -6.35 L15.0 -6.4 Q15.2 -4.65 16.9 3.8 18.55 12.25 15.35 21.7 11.7 2.15 -6.6 -27.1 L-5.85 -23.15 -5.7 -21.7 -5.35 -18.15 Q-3.25 3.45 -5.25 5.05 -7.5 -7.25 -12.5 -18.15 -15.3 -24.15 -18.9 -29.7" fill="#00ccff" fill-rule="evenodd" stroke="none"/>
  </g>
</svg>
