<?xml version="1.0" encoding="UTF-8" standalone="no"?>
<svg xmlns:xlink="http://www.w3.org/1999/xlink" height="39.95px" width="110.6px" xmlns="http://www.w3.org/2000/svg">
  <g transform="matrix(1.0, 0.0, 0.0, 1.0, 69.25, 15.55)">
    <path d="M6.05 -4.75 Q5.5 -6.55 5.4 -8.15 L5.25 -9.5 Q7.5 -0.1 12.3 6.5 17.0 13.05 24.9 20.15 12.15 12.65 9.1 4.9 7.35 0.85 6.45 -2.9 L6.05 -4.75 M17.6 -6.05 Q17.3 -7.95 17.45 -9.65 L17.4 -10.3 17.45 -10.9 Q17.4 -11.05 17.5 -11.05 18.35 -1.2 22.3 5.75 26.05 12.65 33.0 20.15 21.3 12.25 19.3 4.1 18.05 -0.25 17.8 -4.1 L17.6 -6.05 M31.95 -15.55 Q30.9 -5.75 33.55 1.85 35.95 9.35 41.35 18.0 31.3 8.05 30.9 -0.3 30.5 -4.85 30.95 -8.7 L31.15 -10.65 Q31.2 -12.55 31.65 -14.2 L31.7 -14.8 31.9 -15.4 31.95 -15.55 M11.3 20.15 Q-0.6 12.65 -2.9 4.9 -4.15 0.85 -4.65 -2.9 L-4.9 -4.7 -5.2 -8.15 -5.2 -9.5 Q-3.9 -0.05 0.2 6.55 4.2 13.1 11.3 20.15 M-52.95 -6.1 Q-52.65 2.7 -48.45 8.85 -44.3 14.95 -36.4 21.35 -50.3 14.45 -52.1 7.35 -53.3 2.7 -53.3 -1.65 L-52.95 -6.1 M-19.75 -4.6 Q-18.45 3.3 -13.55 8.85 -8.7 14.3 -0.05 20.15 -14.75 13.95 -17.35 7.5 -19.1 3.3 -19.6 -0.6 -19.85 -2.65 -19.75 -4.6 M-38.45 -4.6 Q-37.15 3.3 -32.25 8.85 -27.4 14.3 -18.75 20.15 -33.45 13.95 -36.05 7.5 -37.8 3.3 -38.3 -0.6 L-38.45 -4.6 M-67.85 3.4 Q-69.8 -5.85 -69.0 -13.85 -68.45 -2.55 -64.2 6.05 -60.0 14.65 -52.1 24.4 -65.9 12.75 -67.85 3.4" fill="#ffffff" fill-rule="evenodd" stroke="none"/>
  </g>
</svg>
