<?xml version="1.0" encoding="UTF-8" standalone="no"?>
<svg xmlns:xlink="http://www.w3.org/1999/xlink" height="60.35px" width="120.75px" xmlns="http://www.w3.org/2000/svg">
  <g transform="matrix(1.0, 0.0, 0.0, 1.0, 60.35, 30.15)">
    <path d="M-58.5 -9.15 L-59.05 -9.85 Q-59.05 -12.05 -51.35 -17.6 -43.65 -23.15 -39.15 -24.2 -32.0 -26.4 -27.25 -27.45 -18.9 -29.3 -2.15 -30.1 L-2.15 -30.15 13.35 -30.15 Q24.1 -30.45 34.8 -26.3 43.05 -23.05 46.7 -18.95 L48.3 -16.75 48.1 -16.4 Q51.35 -10.55 52.35 -0.9 53.35 8.75 55.35 15.6 57.3 22.4 60.4 25.35 47.9 20.7 40.9 4.25 43.15 11.35 47.3 18.9 49.45 24.25 56.65 28.3 49.8 28.05 41.55 22.8 44.9 26.05 48.75 29.15 35.25 26.05 24.8 15.4 26.05 21.7 31.45 28.0 13.65 19.3 6.15 10.05 12.05 18.85 21.45 26.7 17.8 26.45 14.25 25.6 11.35 24.9 8.5 23.8 -3.95 19.0 -15.1 6.45 -8.35 18.7 -0.55 23.8 L2.75 25.6 4.35 26.25 -2.85 25.6 Q-6.6 25.0 -10.0 23.8 -21.5 19.8 -29.4 9.25 -25.8 17.65 -20.65 23.8 L-19.05 25.6 -17.8 26.9 Q-37.55 24.9 -45.65 9.0 -41.95 19.95 -33.75 30.2 -41.45 28.65 -49.1 23.2 -56.75 17.75 -59.25 8.8 -61.75 -0.15 -58.5 -9.15" fill="url(#gradient0)" fill-rule="evenodd" stroke="none"/>
  </g>
  <defs>
    <linearGradient gradientTransform="matrix(0.0, 0.081, -0.0737, 0.0, 0.05, 51.3)" gradientUnits="userSpaceOnUse" id="gradient0" spreadMethod="pad" x1="-819.2" x2="819.2">
      <stop offset="0.0" stop-color="#fff23c" stop-opacity="0.0"/>
      <stop offset="0.3803921568627451" stop-color="#fff23c" stop-opacity="0.84705883"/>
      <stop offset="0.6039215686274509" stop-color="#fff23c" stop-opacity="0.8"/>
      <stop offset="1.0" stop-color="#fff23c" stop-opacity="0.0"/>
    </linearGradient>
  </defs>
</svg>
