<?xml version="1.0" encoding="UTF-8" standalone="no"?>
<svg xmlns:xlink="http://www.w3.org/1999/xlink" height="102.05px" width="160.6px" xmlns="http://www.w3.org/2000/svg">
  <g transform="matrix(1.0, 0.0, 0.0, 1.0, 80.3, 51.0)">
    <path d="M-9.75 -46.9 Q9.05 -53.6 33.9 -49.35 48.35 -46.75 62.7 -32.55 88.35 6.6 76.65 51.05 73.3 15.85 47.0 -17.45 41.8 15.1 15.85 32.6 24.15 16.25 25.65 0.15 21.35 15.85 13.4 23.85 13.15 17.45 11.2 1.3 9.15 -14.9 10.85 -22.05 -20.65 4.6 -30.25 25.55 -30.6 12.25 -25.05 -0.05 -41.9 18.0 -73.45 11.25 -54.45 5.2 -40.25 -11.85 -68.3 -9.7 -80.3 -25.05 -66.6 -22.75 -53.25 -28.5 -39.9 -34.25 -30.0 -40.6 -20.1 -46.95 -9.75 -46.9" fill="url(#gradient0)" fill-rule="evenodd" stroke="none"/>
  </g>
  <defs>
    <linearGradient gradientTransform="matrix(0.0, 0.082, -0.098, 0.0, 0.0, 36.1)" gradientUnits="userSpaceOnUse" id="gradient0" spreadMethod="pad" x1="-819.2" x2="819.2">
      <stop offset="0.0" stop-color="#fff23c" stop-opacity="0.0"/>
      <stop offset="0.3803921568627451" stop-color="#fff23c" stop-opacity="0.84705883"/>
      <stop offset="0.6039215686274509" stop-color="#fff23c" stop-opacity="0.8"/>
      <stop offset="1.0" stop-color="#fff23c" stop-opacity="0.0"/>
    </linearGradient>
  </defs>
</svg>
