<?xml version="1.0" encoding="UTF-8" standalone="no"?>
<svg xmlns:xlink="http://www.w3.org/1999/xlink" height="18.05px" width="92.4px" xmlns="http://www.w3.org/2000/svg">
  <g transform="matrix(1.0, 0.0, 0.0, 1.0, 75.05, 35.95)">
    <path d="M12.0 -35.95 Q19.2 -32.15 16.7 -26.4 16.4 -25.65 15.45 -26.3 8.15 -31.55 12.0 -35.95 M-69.55 -33.2 Q-65.65 -29.2 -72.35 -25.2 -75.8 -23.15 -74.85 -27.0 -73.8 -31.5 -69.55 -33.2 M-8.6 -30.65 Q-2.55 -26.6 -8.0 -22.35 -8.75 -21.75 -9.3 -22.9 -11.8 -28.1 -8.6 -30.65 M-31.45 -30.85 Q-25.65 -25.0 -31.7 -18.7 -33.65 -16.75 -34.5 -19.45 -36.75 -26.55 -31.45 -30.85" fill="#ffffff" fill-rule="evenodd" stroke="none"/>
  </g>
</svg>
