<?xml version="1.0" encoding="UTF-8" standalone="no"?>
<svg xmlns:xlink="http://www.w3.org/1999/xlink" height="79.1px" width="139.85px" xmlns="http://www.w3.org/2000/svg">
  <g transform="matrix(1.0, 0.0, 0.0, 1.0, 83.15, 51.75)">
    <path d="M28.6 -11.2 Q27.55 -8.8 16.85 4.55 32.3 -25.55 36.9 -44.35 36.6 -28.2 33.15 -20.9 L28.6 -11.2 M0.9 -4.45 Q9.25 -20.05 25.35 -35.6 10.4 -14.0 -6.5 27.35 -3.45 5.4 -2.45 2.7 L0.9 -4.45 M56.25 -2.35 Q54.4 9.0 51.05 16.5 54.55 4.3 54.3 -8.85 54.25 -22.8 51.3 -43.45 56.9 -19.65 56.7 -7.45 L56.25 -2.35 M45.8 -26.75 Q44.9 -21.8 41.5 -14.85 45.2 -32.3 44.8 -38.35 45.9 -34.05 46.05 -30.55 46.1 -28.5 45.8 -26.75 M-83.15 -34.35 Q-68.0 -48.55 -57.65 -49.6 L-33.45 -51.75 Q-53.85 -48.1 -62.75 -44.6 -73.3 -40.3 -82.55 -34.05 L-82.85 -33.95 Q-83.15 -33.9 -83.15 -34.35 M-80.15 -11.3 Q-71.45 -18.85 -62.2 -27.35 L-54.2 -34.25 Q-56.1 -31.15 -58.2 -28.6 -63.6 -21.8 -70.05 -17.5 -79.0 -11.25 -80.15 -11.3 M-34.4 -21.05 Q-41.85 -11.3 -49.5 3.7 -41.35 -20.05 -32.7 -26.95 -24.2 -34.0 -16.2 -36.7 -27.05 -30.75 -34.4 -21.05 M-8.3 -28.55 L-6.55 -31.35 -11.25 -13.35 -12.3 -9.75 Q-12.5 -20.05 -8.3 -28.55 M-47.85 -23.4 Q-56.5 -11.55 -66.05 6.75 -54.95 -22.2 -45.4 -30.6 -36.05 -39.2 -27.7 -42.5 -39.3 -35.25 -47.85 -23.4" fill="#ffffff" fill-rule="evenodd" stroke="none"/>
  </g>
</svg>
