<?xml version="1.0" encoding="UTF-8" standalone="no"?>
<svg xmlns:xlink="http://www.w3.org/1999/xlink" height="107.75px" width="145.15px" xmlns="http://www.w3.org/2000/svg">
  <g transform="matrix(1.0, 0.0, 0.0, 1.0, 103.3, 66.75)">
    <path d="M-26.05 -59.8 Q-8.0 -68.65 2.1 -66.25 L25.6 -60.55 Q5.3 -63.65 -4.05 -63.1 -15.2 -62.4 -25.6 -59.35 -26.15 -59.2 -26.05 -59.8 M34.05 -23.45 Q36.5 -10.15 39.65 4.4 L41.85 16.6 Q35.5 2.9 34.45 -9.75 33.35 -22.5 34.05 -23.45 M-88.9 3.7 Q-87.1 17.6 -81.75 33.0 -93.5 11.5 -92.55 -2.55 -91.8 -19.2 -84.95 -31.7 -91.3 -12.5 -88.9 3.7 M-75.1 3.55 Q-73.65 19.35 -68.7 36.85 -79.9 12.4 -78.6 -3.6 -77.4 -22.55 -70.2 -36.75 -77.05 -14.9 -75.1 3.55 M-50.15 -26.15 Q-52.9 -31.95 -54.75 -40.75 -45.45 -20.35 -40.0 -13.1 -44.65 -17.65 -47.5 -21.7 -49.15 -23.95 -50.15 -26.15 M-64.05 -25.4 Q-63.3 -30.65 -60.65 -37.5 -63.45 -19.35 -63.0 -11.95 -64.15 -17.1 -64.25 -21.2 -64.35 -23.5 -64.05 -25.4 M-17.05 7.35 Q-30.85 -24.0 -43.0 -40.2 -29.85 -28.85 -23.15 -17.05 L-21.9 -14.7 -20.4 -11.55 Q-19.65 -9.65 -17.05 7.35 M-99.2 9.05 Q-96.35 22.35 -90.0 37.0 -103.2 16.55 -103.3 3.05 -103.65 -12.8 -97.7 -24.75 -102.65 -6.45 -99.2 9.05 M7.95 41.0 Q13.35 1.1 11.8 -22.35 16.75 -3.3 16.05 12.6 L15.5 19.7 Q15.1 22.25 7.95 41.0 M2.1 32.3 Q-3.1 -1.55 -10.6 -20.35 -0.9 -6.0 2.55 7.15 L3.2 9.75 3.8 13.15 Q4.05 15.15 2.1 32.3 M18.7 36.0 Q27.0 5.75 27.35 -12.0 29.35 0.8 27.45 11.85 L26.9 14.9 25.65 20.3 Q25.05 22.15 18.7 36.0" fill="#ffffff" fill-rule="evenodd" stroke="none"/>
  </g>
</svg>
