<?xml version="1.0" encoding="UTF-8" standalone="no"?>
<svg xmlns:xlink="http://www.w3.org/1999/xlink" height="106.6px" width="150.3px" xmlns="http://www.w3.org/2000/svg">
  <g transform="matrix(1.0, 0.0, 0.0, 1.0, 75.15, 53.3)">
    <path d="M-16.3 -21.35 Q-21.65 -14.65 -25.6 -7.55 -37.55 13.6 -37.15 38.2 -30.5 17.15 4.8 -18.75 5.85 -22.8 7.25 -26.75 M15.35 -21.35 Q13.9 -14.85 12.9 -8.3 8.25 21.3 11.95 52.3 18.8 28.4 23.95 1.0 L26.75 -15.0 M23.95 1.0 L21.75 36.5 Q29.4 19.4 30.1 -3.4 L29.45 -9.25 M15.35 -43.2 L16.25 -43.9 Q18.0 -45.25 19.85 -46.4 27.3 -51.15 35.5 -52.3 L38.0 -45.15 Q41.9 -32.3 42.4 -18.5 58.8 12.45 61.1 35.85 63.65 16.5 59.1 -4.4 L59.05 -4.75 Q57.0 -13.75 53.7 -23.05 M49.0 -35.85 Q49.65 -37.3 50.6 -38.3 52.65 -40.45 56.05 -40.5 74.35 -13.95 74.15 36.85 69.35 18.55 59.1 -4.4 M42.4 -18.5 Q43.4 9.65 30.25 41.65 L29.45 43.55 Q32.7 22.8 30.1 -3.4 M12.9 -8.3 L2.2 24.05 Q-0.85 2.35 4.8 -18.75 M-25.6 -7.55 Q-39.4 12.05 -74.15 16.0 -60.45 5.25 -49.55 -10.0 -38.7 -25.3 -30.05 -31.4" fill="none" stroke="#000000" stroke-linecap="round" stroke-linejoin="round" stroke-width="2.0"/>
  </g>
</svg>
