<?xml version="1.0" encoding="UTF-8" standalone="no"?>
<svg xmlns:xlink="http://www.w3.org/1999/xlink" height="84.45px" width="46.3px" xmlns="http://www.w3.org/2000/svg">
  <g transform="matrix(1.0, 0.0, 0.0, 1.0, 4.95, 45.8)">
    <path d="M0.05 32.15 Q-1.85 34.95 -4.05 37.6 L-4.95 38.6 Q-0.55 27.2 1.75 15.9 L-1.5 16.1 2.75 10.15 Q7.1 -18.15 -1.7 -45.8 19.55 -43.95 32.9 -24.6 41.35 -7.6 41.35 1.5 40.5 24.3 24.3 38.65 33.6 16.95 28.2 -4.55 28.05 5.1 24.85 14.4 23.5 4.7 18.05 -9.15 16.45 1.3 9.2 9.35 6.7 22.2 0.05 32.15" fill="#ffffff" fill-rule="evenodd" stroke="none"/>
  </g>
</svg>
