<?xml version="1.0" encoding="UTF-8" standalone="no"?>
<svg xmlns:xlink="http://www.w3.org/1999/xlink" height="62.7px" width="146.95px" xmlns="http://www.w3.org/2000/svg">
  <g transform="matrix(1.0, 0.0, 0.0, 1.0, 73.05, 54.3)">
    <path d="M67.55 -20.0 L67.65 -16.65 Q67.7 -7.25 66.05 5.95 66.15 -12.5 64.25 -25.75 62.3 -38.9 56.0 -50.35 61.4 -43.6 65.4 -32.4 67.1 -27.65 67.55 -20.0 M41.15 -46.4 Q47.1 -40.45 51.6 -29.8 54.65 -22.9 54.25 -8.65 L54.05 -4.45 52.8 8.4 Q52.7 -10.1 50.45 -23.05 48.2 -35.85 41.15 -46.4 M72.95 -38.8 Q73.9 -35.1 73.9 -29.25 73.85 -21.25 71.95 -9.3 72.75 -23.55 71.95 -33.75 71.2 -44.0 67.55 -53.15 70.75 -47.65 72.95 -38.8 M-71.1 -36.3 Q-67.05 -47.5 -61.4 -54.3 -67.95 -42.85 -69.6 -29.7 -71.35 -16.55 -70.65 1.9 -73.3 -13.7 -73.05 -24.0 -72.85 -31.6 -71.1 -36.3 M-42.0 -23.05 Q-45.1 -10.1 -46.3 8.4 -48.1 -19.2 -42.75 -29.8 -37.6 -40.45 -31.25 -46.4 -39.0 -35.85 -42.0 -23.05 M-56.45 -25.75 Q-57.85 -12.5 -56.65 5.95 -62.0 -21.2 -58.05 -32.4 -54.3 -43.6 -48.8 -50.35 -55.1 -38.9 -56.45 -25.75" fill="#ffffff" fill-rule="evenodd" stroke="none"/>
  </g>
</svg>
