<?xml version="1.0" encoding="UTF-8" standalone="no"?>
<svg xmlns:xlink="http://www.w3.org/1999/xlink" height="111.05px" width="153.95px" xmlns="http://www.w3.org/2000/svg">
  <g transform="matrix(1.0, 0.0, 0.0, 1.0, 76.95, 55.5)">
    <path d="M6.65 -26.5 Q6.9 -25.25 8.4 -25.85 14.95 -33.85 20.05 -34.9 27.7 -34.9 31.7 -16.65 38.05 -15.55 42.5 -12.05 46.85 -6.45 48.4 8.2 L48.95 14.55 Q50.55 35.9 50.2 51.2 57.0 29.25 57.6 6.95 L57.65 4.85 Q57.85 -7.35 55.35 -15.3 53.65 -20.6 50.8 -24.05 47.25 -27.2 41.75 -28.95 36.1 -40.3 31.25 -46.15 28.15 -49.9 25.4 -51.45 17.8 -48.8 6.65 -26.5 -1.1 -40.6 -11.2 -49.4 L-14.1 -47.2 Q-22.8 -40.1 -31.1 -25.85 L-40.3 -22.0 Q-45.25 -19.85 -46.15 -16.1 L-46.4 -14.65 -46.7 -12.3 Q-48.55 0.3 -49.1 12.0 -50.15 34.45 -46.4 53.7 -45.3 37.25 -41.35 19.5 -38.65 7.3 -34.6 -5.5 -30.2 -12.85 -20.95 -13.5 -19.9 -30.0 -9.4 -32.7 -6.05 -32.55 3.8 -26.2 6.05 -25.05 6.65 -26.5 M44.4 -44.65 L47.0 -37.8 Q47.5 -36.9 50.6 -35.7 57.0 -33.15 65.7 -28.2 69.75 -23.75 70.05 -7.5 L70.15 -3.8 70.15 -3.75 70.2 -1.25 70.15 3.35 70.15 6.0 Q71.2 16.3 69.2 34.0 76.15 12.9 76.0 -8.7 L75.75 -16.35 75.75 -16.65 75.65 -17.1 Q74.95 -30.3 70.15 -33.45 L57.55 -39.35 Q55.3 -47.45 51.65 -49.6 48.75 -49.35 44.4 -44.65 42.25 -49.35 40.1 -50.8 36.55 -51.05 31.25 -46.15 M55.35 -15.3 Q57.85 -14.25 59.5 -11.75 61.2 -9.1 62.5 -2.15 L63.15 5.15 Q64.85 26.05 64.4 44.7 69.5 27.75 70.15 6.0 M-43.7 -32.6 Q-39.7 -42.05 -36.65 -47.6 -42.35 -51.75 -48.15 -51.25 -52.15 -45.95 -55.05 -37.9 -65.3 -33.0 -68.8 -30.6 -72.3 -28.2 -72.8 -26.35 -76.25 -12.95 -75.9 1.95 -75.5 21.45 -68.65 43.5 -68.45 27.9 -66.65 12.65 -65.2 0.3 -62.7 -11.8 -62.7 -18.3 -62.1 -23.25 -57.2 -28.6 -46.25 -31.8 -44.45 -32.05 -43.7 -32.6 M-14.1 -47.2 Q-18.2 -51.3 -31.4 -54.5 -33.55 -53.0 -36.65 -47.6 M-62.7 -11.8 Q-62.75 -2.85 -61.75 8.95 L-61.5 11.85 Q-59.3 34.25 -52.75 54.55 -54.8 34.95 -52.8 17.75 L-51.65 9.95 Q-48.1 -10.5 -46.7 -12.3" fill="none" stroke="#000000" stroke-linecap="round" stroke-linejoin="round" stroke-width="2.0"/>
  </g>
</svg>
