<?xml version="1.0" encoding="UTF-8" standalone="no"?>
<svg xmlns:xlink="http://www.w3.org/1999/xlink" height="116.4px" width="168.4px" xmlns="http://www.w3.org/2000/svg">
  <g transform="matrix(1.0, 0.0, 0.0, 1.0, 84.2, 58.2)">
    <path d="M32.35 -15.9 Q31.4 -10.35 27.85 -3.45 20.45 10.8 6.7 25.9 L13.95 10.9 10.0 16.2 Q1.75 26.5 1.0 32.8 -2.5 9.55 3.7 -13.3 -1.6 -4.05 -10.8 4.35 -25.95 18.5 -31.3 30.1 -32.3 15.5 -28.85 2.2 -36.85 20.95 -40.65 35.05 -37.7 46.6 -32.45 51.3 -39.05 48.8 -43.65 45.55 -37.85 54.45 -33.1 58.2 -47.15 57.3 -56.6 44.25 -60.3 38.25 -62.55 30.25 -65.15 20.85 -64.35 11.1 -70.95 26.65 -72.2 36.95 -74.5 8.75 -66.05 -8.7 -70.85 0.6 -84.2 -3.4 -77.25 -4.65 -69.95 -13.65 -62.7 -22.7 -54.6 -26.15 -62.35 -24.2 -70.45 -28.5 -58.9 -30.3 -44.35 -41.15 -28.55 -53.75 -16.1 -51.8 L24.0 -55.55 Q35.3 -60.4 43.85 -56.4 57.5 -44.8 65.3 -22.75 73.15 -0.75 84.2 0.9 72.3 3.25 66.9 -2.3 73.45 13.1 81.0 23.05 70.1 20.15 64.65 12.25 70.15 27.1 74.85 25.15 68.05 30.6 63.6 26.05 67.75 38.4 60.5 51.7 L61.1 39.2 Q57.55 52.75 46.8 57.85 50.25 52.8 52.85 42.05 49.35 45.65 43.85 47.9 52.75 37.55 51.95 11.2 50.15 6.0 49.25 0.55 L49.15 0.0 47.65 -11.5 47.0 -16.2 Q44.55 -18.45 39.8 -19.8 L39.7 -19.2 Q37.95 -9.15 30.15 3.6 L27.45 8.25 Q29.7 3.4 32.35 -15.9" fill="#54c2be" fill-rule="evenodd" stroke="none"/>
  </g>
</svg>
