<?xml version="1.0" encoding="UTF-8" standalone="no"?>
<svg xmlns:xlink="http://www.w3.org/1999/xlink" height="77.3px" width="188.2px" xmlns="http://www.w3.org/2000/svg">
  <g transform="matrix(1.0, 0.0, 0.0, 1.0, 169.85, 10.2)">
    <path d="M-153.4 -1.05 Q-159.15 0.3 -167.2 0.05 -147.1 -4.45 -139.4 -8.25 -144.6 -4.6 -148.8 -2.7 -151.25 -1.6 -153.4 -1.05 M-77.4 -10.2 Q-69.5 3.7 -60.1 18.8 L-53.05 31.45 Q-57.25 27.8 -60.4 24.1 -69.0 14.7 -72.75 4.85 -77.45 -6.7 -77.6 -9.5 L-77.4 -10.2 M-17.75 13.85 Q-22.1 1.85 -29.8 -7.95 -23.8 -2.2 -18.1 7.45 -12.4 17.4 -7.75 48.15 -13.1 26.8 -17.75 13.85 M-28.9 9.75 L-28.7 9.95 Q-28.3 10.95 -28.7 16.0 -28.85 20.25 -31.05 25.05 L-33.15 28.95 -32.05 23.15 Q-30.2 16.15 -28.9 9.75 M6.35 30.95 L-2.55 22.95 Q-8.55 15.0 -12.25 2.95 -6.65 14.0 6.35 30.95 M-45.6 -0.8 Q-45.45 -0.85 -45.25 -0.5 -44.3 0.85 -42.85 8.4 -41.45 14.65 -42.8 22.65 -43.25 25.7 -44.3 29.15 L-44.95 20.2 Q-45.0 9.15 -45.6 -0.8 M-92.55 4.05 Q-87.85 12.4 -82.2 21.35 L-78.0 28.95 Q-80.5 26.8 -82.4 24.6 -87.5 18.95 -89.75 13.1 -92.6 6.15 -92.65 4.45 L-92.55 4.05 M-102.75 6.2 L-102.1 22.3 -102.1 29.2 -103.75 24.15 Q-105.4 18.0 -104.6 13.3 -103.65 7.45 -103.0 6.45 L-102.75 6.2 M-156.15 52.1 Q-137.5 25.1 -129.7 7.7 -134.5 26.5 -143.15 39.15 L-156.15 52.1 M-169.85 39.65 Q-145.0 18.15 -133.15 3.3 -142.5 20.3 -154.0 30.35 -155.6 31.6 -169.85 39.65 M-155.7 12.85 Q-161.0 15.65 -168.8 17.55 -150.55 7.95 -144.05 2.25 -148.15 7.2 -151.75 10.1 L-155.7 12.85 M-141.5 67.1 Q-126.15 38.1 -120.45 19.95 -123.0 39.15 -130.1 52.7 -131.1 54.45 -141.5 67.1 M18.35 6.9 L6.1 4.85 Q-3.75 1.2 -14.1 -7.05 -2.7 -0.65 18.35 6.9 M9.15 23.6 Q1.15 12.6 -4.55 7.0 1.95 11.7 5.8 16.8 L9.15 23.6" fill="#ffffff" fill-rule="evenodd" stroke="none"/>
  </g>
</svg>
