<?xml version="1.0" encoding="UTF-8" standalone="no"?>
<svg xmlns:xlink="http://www.w3.org/1999/xlink" height="84.0px" width="143.75px" xmlns="http://www.w3.org/2000/svg">
  <g transform="matrix(1.0, 0.0, 0.0, 1.0, 115.0, 31.6)">
    <path d="M1.55 -20.55 Q19.5 11.1 21.5 21.8 L23.1 31.55 16.55 14.15 Q10.8 -0.9 1.15 -20.3 L0.85 -20.85 0.95 -21.0 1.55 -20.55 M19.25 -7.5 Q24.05 1.65 28.45 9.0 28.9 9.9 28.65 10.8 22.9 5.15 20.0 -3.95 L19.25 -7.5 M-40.7 -11.6 Q-36.55 -0.85 -31.6 10.9 L-27.95 20.7 Q-36.5 10.3 -38.95 -0.1 -41.05 -9.35 -40.75 -11.25 L-40.8 -11.4 -40.7 -11.6 M-61.1 -14.8 L-49.7 9.9 -45.0 20.7 Q-54.65 9.3 -58.15 -2.15 -61.2 -12.35 -61.15 -14.4 L-61.1 -14.8 M-10.95 -2.55 Q-1.6 11.0 14.55 27.95 -1.25 15.05 -9.65 5.15 -15.75 -2.1 -18.0 -7.75 -23.45 -21.2 -23.55 -31.6 -20.4 -16.2 -10.95 -2.55 M-76.95 -28.65 Q-86.25 -12.15 -88.25 6.85 -90.25 25.85 -88.55 52.4 -96.3 13.45 -90.65 -2.7 -85.1 -18.9 -76.95 -28.65 M-74.6 29.15 Q-78.05 13.45 -78.1 11.4 L-78.1 10.4 -77.9 5.6 Q-77.05 -7.3 -72.05 -22.5 -75.1 -3.55 -74.6 29.15 M-105.3 8.1 Q-108.75 14.05 -115.0 20.8 -102.9 0.2 -99.65 -9.35 -101.05 -2.1 -102.95 3.0 -104.05 5.9 -105.3 8.1" fill="#ffffff" fill-rule="evenodd" stroke="none"/>
  </g>
</svg>
