<?xml version="1.0" encoding="UTF-8" standalone="no"?>
<svg xmlns:xlink="http://www.w3.org/1999/xlink" height="86.6px" width="122.65px" xmlns="http://www.w3.org/2000/svg">
  <g transform="matrix(1.0, 0.0, 0.0, 1.0, 7.55, 50.2)">
    <path d="M35.85 -36.7 L21.95 -17.15 15.75 -8.9 Q20.25 -21.15 27.5 -28.85 34.75 -36.55 35.85 -36.7 M75.9 -23.15 Q74.85 -15.85 71.85 -7.8 75.3 -32.7 74.8 -46.2 77.1 -31.3 75.9 -23.15 M56.15 -22.35 Q52.25 -16.1 46.25 -9.95 59.4 -31.35 64.4 -43.9 60.5 -29.35 56.15 -22.35 M42.85 -21.65 Q38.55 -16.45 31.3 -10.95 46.35 -28.75 50.9 -37.2 47.15 -26.85 42.85 -21.65 M0.55 -18.75 Q-4.55 -1.25 -7.5 24.0 -8.2 -13.95 -0.1 -28.15 7.9 -42.35 17.2 -50.2 5.6 -36.25 0.55 -18.75 M101.1 -0.95 Q100.8 1.25 95.3 18.2 99.8 -17.15 98.95 -37.6 102.35 -21.2 101.65 -7.25 L101.1 -0.95 M85.95 -23.15 Q84.9 -15.85 81.9 -7.8 85.35 -32.7 84.85 -46.2 87.15 -31.3 85.95 -23.15 M114.95 18.2 Q111.2 -5.25 107.9 -14.2 113.2 -4.55 114.3 2.25 115.5 9.05 114.95 18.2 M105.2 21.15 Q104.25 28.1 101.15 36.4 L105.0 7.6 Q106.2 13.85 105.2 21.15" fill="#ffffff" fill-rule="evenodd" stroke="none"/>
  </g>
</svg>
