<?xml version="1.0" encoding="UTF-8" standalone="no"?>
<svg xmlns:xlink="http://www.w3.org/1999/xlink" height="104.2px" width="78.55px" xmlns="http://www.w3.org/2000/svg">
  <g transform="matrix(1.0, 0.0, 0.0, 1.0, 45.55, 54.75)">
    <path d="M-42.4 -54.45 Q-25.7 -54.1 -9.45 -51.3 12.65 -36.55 19.2 -18.4 25.75 -0.3 33.0 3.9 17.2 2.25 13.3 -9.9 18.25 15.6 0.95 49.45 4.3 25.2 0.75 -4.75 -0.45 5.8 -5.65 12.7 -6.4 -3.45 -13.6 -26.35 -12.0 -2.65 -19.65 16.5 -20.4 -0.95 -28.1 -24.5 L-28.6 -26.95 Q-27.7 3.05 -33.85 28.3 L-45.55 -54.75 -42.4 -54.45" fill="#ffffff" fill-rule="evenodd" stroke="none"/>
  </g>
</svg>
