<?xml version="1.0" encoding="UTF-8" standalone="no"?>
<svg xmlns:xlink="http://www.w3.org/1999/xlink" height="96.2px" width="118.2px" xmlns="http://www.w3.org/2000/svg">
  <g transform="matrix(1.0, 0.0, 0.0, 1.0, 59.1, 48.1)">
    <path d="M4.1 -45.45 Q4.25 -4.05 0.8 19.7 -2.05 25.15 -5.7 30.2 L-6.15 22.1 -3.5 -6.85 4.1 -45.45 M51.05 -22.8 Q54.35 -13.05 56.3 -3.4 60.9 19.6 57.9 42.15 56.05 19.15 50.3 -3.55 44.5 -26.3 28.95 -48.1 44.1 -34.6 51.05 -22.8 M-22.45 -45.8 Q-50.35 -7.1 -58.1 48.1 -60.55 24.15 -57.05 1.1 -53.55 -10.9 -48.65 -17.6 -40.75 -31.1 -22.45 -45.8" fill="#f756ae" fill-rule="evenodd" stroke="none"/>
  </g>
</svg>
