<?xml version="1.0" encoding="UTF-8" standalone="no"?>
<svg xmlns:xlink="http://www.w3.org/1999/xlink" height="74.25px" width="118.35px" xmlns="http://www.w3.org/2000/svg">
  <g transform="matrix(1.0, 0.0, 0.0, 1.0, 76.5, 28.85)">
    <path d="M25.85 -26.05 Q41.0 -9.0 41.3 1.35 L41.85 25.55 Q39.6 5.15 36.65 -3.75 33.1 -14.3 27.45 -23.55 L25.85 -26.05 M31.55 15.65 Q26.85 -7.2 23.0 -16.0 28.85 -6.6 30.25 0.0 31.7 6.6 31.55 15.65 M12.85 15.95 Q14.25 -7.35 12.8 -16.85 16.0 -6.25 15.7 0.45 15.35 7.2 12.85 15.95 M0.75 22.8 Q3.4 -9.9 1.5 -28.85 6.75 -10.15 5.55 5.05 5.35 7.1 0.75 22.8 M-57.65 -7.5 Q-62.3 4.6 -65.85 22.3 -64.1 -4.6 -57.55 -14.2 -51.05 -23.8 -44.0 -28.8 -53.0 -19.6 -57.65 -7.5 M-12.85 15.95 Q-16.15 7.2 -17.1 0.45 -18.05 -6.25 -15.8 -16.85 -16.4 -7.35 -12.85 15.95 M-37.5 18.8 Q-31.85 9.55 -27.7 2.1 L-25.8 -0.95 Q-28.25 8.8 -34.6 15.95 L-37.5 18.8 M-69.25 36.9 Q-71.85 40.95 -76.5 45.4 -67.4 31.6 -64.9 25.25 -66.7 32.9 -69.25 36.9 M-40.7 1.65 L-52.4 22.55 -57.7 31.45 Q-54.5 18.8 -48.15 10.35 -41.75 1.9 -40.7 1.65" fill="#ffffff" fill-rule="evenodd" stroke="none"/>
  </g>
</svg>
