<?xml version="1.0" encoding="UTF-8" standalone="no"?>
<svg xmlns:xlink="http://www.w3.org/1999/xlink" height="96.05px" width="69.9px" xmlns="http://www.w3.org/2000/svg">
  <g transform="matrix(1.0, 0.0, 0.0, 1.0, 35.45, 49.4)">
    <path d="M23.95 -10.25 Q29.05 8.55 33.85 10.8 25.0 10.95 22.6 5.25 26.75 17.6 34.45 27.8 19.8 22.35 15.55 11.75 21.95 37.25 27.15 42.3 17.8 38.9 12.55 30.05 L16.55 46.65 Q-1.25 28.15 -9.15 4.45 L-7.5 22.65 Q-14.9 14.05 -17.2 4.9 -15.9 -18.55 -30.85 -37.05 -35.15 -43.1 -35.45 -48.75 L-31.25 -49.35 Q-14.45 -50.25 4.3 -38.45 18.8 -29.05 23.95 -10.25" fill="#ffffff" fill-rule="evenodd" stroke="none"/>
  </g>
</svg>
