<?xml version="1.0" encoding="UTF-8" standalone="no"?>
<svg xmlns:xlink="http://www.w3.org/1999/xlink" height="96.15px" width="156.7px" xmlns="http://www.w3.org/2000/svg">
  <g transform="matrix(1.0, 0.0, 0.0, 1.0, 78.35, 48.05)">
    <path d="M67.85 -8.8 Q72.95 10.0 77.75 12.25 68.9 12.4 66.5 6.7 70.65 19.05 78.35 29.25 63.7 23.8 59.45 13.2 65.85 38.7 71.05 43.75 61.7 40.35 56.45 31.5 L60.45 48.1 Q39.05 25.9 31.95 -3.9 L37.45 25.1 Q29.0 14.7 26.65 3.55 24.65 25.7 11.8 39.4 10.85 23.95 5.15 6.85 3.1 0.7 1.8 -5.0 L6.1 16.15 Q-7.55 6.0 -11.5 -9.8 -15.45 7.3 -15.4 16.45 -21.95 5.7 -20.95 -6.7 -32.6 30.75 -62.85 43.0 -56.4 34.55 -51.35 26.15 -55.8 32.8 -65.25 36.45 L-56.6 24.65 Q-63.15 30.6 -78.35 33.45 -71.0 29.5 -60.35 9.35 -64.9 13.1 -73.0 15.85 -65.75 7.8 -59.65 -7.9 -55.0 -21.6 -44.65 -31.95 -29.45 -44.5 8.8 -47.45 24.75 -50.65 48.2 -37.0 62.7 -27.6 67.85 -8.8" fill="url(#gradient0)" fill-rule="evenodd" stroke="none"/>
  </g>
  <defs>
    <linearGradient gradientTransform="matrix(0.0, 0.0747, -0.0956, 0.0, 0.0, 45.7)" gradientUnits="userSpaceOnUse" id="gradient0" spreadMethod="pad" x1="-819.2" x2="819.2">
      <stop offset="0.0" stop-color="#fff23c" stop-opacity="0.0"/>
      <stop offset="0.3803921568627451" stop-color="#fff23c" stop-opacity="0.84705883"/>
      <stop offset="0.6039215686274509" stop-color="#fff23c" stop-opacity="0.8"/>
      <stop offset="1.0" stop-color="#fff23c" stop-opacity="0.0"/>
    </linearGradient>
  </defs>
</svg>
