<?xml version="1.0" encoding="UTF-8" standalone="no"?>
<svg xmlns:xlink="http://www.w3.org/1999/xlink" height="120.65px" width="144.95px" xmlns="http://www.w3.org/2000/svg">
  <g transform="matrix(1.0, 0.0, 0.0, 1.0, 72.5, 60.3)">
    <path d="M71.6 -19.6 Q75.85 15.65 58.8 46.5 58.75 10.15 51.55 -33.4 50.25 -25.15 45.9 -16.85 45.85 -24.25 42.0 -38.0 29.9 -0.5 3.75 33.0 3.9 -3.35 7.5 -35.85 -14.6 -11.35 -31.3 10.75 -34.7 34.15 -32.25 60.35 -49.6 42.5 -55.75 18.25 -61.65 33.35 -72.5 45.55 L-69.75 6.95 Q-68.15 -13.55 -60.25 -31.65 -50.8 -46.05 -43.85 -52.25 -15.15 -58.55 18.9 -60.3 43.8 -55.5 60.7 -47.1 68.15 -31.6 71.6 -19.6" fill="url(#gradient0)" fill-rule="evenodd" stroke="none"/>
  </g>
  <defs>
    <linearGradient gradientTransform="matrix(0.0, 0.0818, -0.0885, 0.0, 0.0, 33.9)" gradientUnits="userSpaceOnUse" id="gradient0" spreadMethod="pad" x1="-819.2" x2="819.2">
      <stop offset="0.0" stop-color="#fff23c" stop-opacity="0.0"/>
      <stop offset="0.3803921568627451" stop-color="#fff23c" stop-opacity="0.84705883"/>
      <stop offset="0.6039215686274509" stop-color="#fff23c" stop-opacity="0.8"/>
      <stop offset="1.0" stop-color="#fff23c" stop-opacity="0.0"/>
    </linearGradient>
  </defs>
</svg>
