<?xml version="1.0" encoding="UTF-8" standalone="no"?>
<svg xmlns:xlink="http://www.w3.org/1999/xlink" height="116.05px" width="115.4px" xmlns="http://www.w3.org/2000/svg">
  <g transform="matrix(1.0, 0.0, 0.0, 1.0, 57.7, 58.0)">
    <path d="M15.15 -29.7 Q12.7 -23.75 8.25 -18.65 L7.55 -29.15 Q7.1 -23.65 5.85 -19.25 -5.1 -22.1 -17.4 -24.05 L-18.3 -35.8 Q-19.85 -28.2 -26.05 -25.3 -28.4 -33.45 -27.9 -41.6 L-36.7 -37.65 Q-38.75 -34.2 -38.85 -23.8 -49.25 -24.3 -57.7 -21.55 -57.4 -34.55 -52.85 -44.2 -43.15 -51.7 -26.45 -56.75 3.65 -59.7 32.65 -55.7 52.4 -38.05 56.5 -8.8 60.9 25.4 49.2 43.15 L50.55 31.6 Q47.45 46.1 39.3 58.05 43.35 28.85 42.25 -5.65 36.9 -8.45 31.05 -10.9 L31.15 -19.55 Q30.8 -15.45 29.85 -11.4 21.95 -14.65 13.1 -17.25 L15.15 -29.7" fill="#8ef7aa" fill-rule="evenodd" stroke="none"/>
  </g>
</svg>
