<?xml version="1.0" encoding="UTF-8" standalone="no"?>
<svg xmlns:xlink="http://www.w3.org/1999/xlink" height="74.55px" width="161.2px" xmlns="http://www.w3.org/2000/svg">
  <g transform="matrix(1.0, 0.0, 0.0, 1.0, 29.75, 37.3)">
    <path d="M71.35 -35.6 Q74.85 -8.25 70.15 2.05 65.55 12.3 59.35 17.95 66.65 7.85 68.9 -4.8 71.25 -17.4 71.35 -35.6 M53.4 -9.2 Q49.1 -2.5 43.1 12.7 49.0 -9.25 53.95 -12.85 57.85 -15.8 61.45 -16.3 56.7 -14.35 53.4 -9.2 M27.85 -4.15 Q20.2 6.35 12.25 22.5 20.85 -3.05 29.7 -10.6 38.4 -18.2 46.55 -21.15 35.45 -14.65 27.85 -4.15 M100.15 -33.75 Q113.35 -18.6 113.65 -8.25 L114.2 15.95 Q111.95 -4.45 109.0 -13.35 105.45 -23.9 99.8 -33.15 99.5 -33.7 100.15 -33.75 M87.75 -0.45 Q84.75 10.15 79.45 16.55 85.2 5.65 85.5 -6.95 85.95 -19.55 83.3 -37.3 88.65 -18.8 88.65 -8.05 88.65 -3.6 87.75 -0.45 M105.45 -3.7 Q106.9 0.95 106.9 7.55 102.35 -8.95 98.85 -15.3 104.2 -8.5 105.45 -3.7 M122.65 -15.3 L121.1 -16.95 Q126.45 -14.2 130.8 -12.6 L131.0 -12.5 131.45 -11.9 Q129.2 -12.1 126.65 -13.25 L123.5 -14.75 122.65 -15.3 M122.35 4.15 Q120.9 -0.5 120.9 -7.1 125.45 9.4 128.95 15.75 123.6 8.95 122.35 4.15 M-29.75 9.8 Q-9.4 0.65 -2.0 -5.0 -9.5 2.75 -15.5 5.7 -21.45 8.4 -29.75 9.8 M-13.65 20.15 Q-19.0 23.95 -26.9 26.9 -8.65 14.05 -2.45 7.1 -8.35 16.15 -13.65 20.15 M-12.95 37.25 Q2.15 19.45 6.7 11.0 2.9 21.35 -1.4 26.55 -5.65 31.75 -12.95 37.25" fill="#ffffff" fill-rule="evenodd" stroke="none"/>
  </g>
</svg>
