<?xml version="1.0" encoding="UTF-8" standalone="no"?>
<svg xmlns:xlink="http://www.w3.org/1999/xlink" height="87.15px" width="83.3px" xmlns="http://www.w3.org/2000/svg">
  <g transform="matrix(1.0, 0.0, 0.0, 1.0, -56.2, 48.1)">
    <path d="M118.55 -26.05 Q126.85 -13.35 139.5 -12.55 127.45 -7.45 121.45 -12.95 125.05 -7.05 127.55 1.85 131.0 14.25 135.7 21.9 119.95 16.0 118.7 5.8 120.15 25.9 103.3 39.05 108.35 26.85 109.3 7.55 108.4 12.7 105.6 17.7 107.15 6.95 96.0 -11.55 92.5 7.7 75.3 23.6 81.5 7.65 80.35 -6.1 74.3 9.65 56.2 23.2 76.9 -6.05 73.25 -48.1 L88.95 -45.7 98.35 -43.15 Q110.2 -38.75 118.55 -26.05" fill="#ffffff" fill-rule="evenodd" stroke="none"/>
  </g>
</svg>
