<?xml version="1.0" encoding="UTF-8" standalone="no"?>
<svg xmlns:xlink="http://www.w3.org/1999/xlink" height="87.5px" width="160.15px" xmlns="http://www.w3.org/2000/svg">
  <g transform="matrix(1.0, 0.0, 0.0, 1.0, 80.1, 43.75)">
    <path d="M31.8 -28.6 Q36.15 -33.2 49.7 -34.65 42.4 -30.4 38.2 -26.65 43.6 -27.4 50.15 -25.5 56.65 -23.6 64.75 -22.25 60.4 -18.2 55.05 -17.05 60.9 -15.45 66.55 -9.0 74.05 -2.45 75.8 -2.05 71.15 1.85 64.75 0.8 75.95 9.3 80.05 18.75 75.35 15.4 67.25 12.6 71.4 18.35 71.2 27.8 L64.4 19.0 Q70.25 27.6 69.25 36.2 63.55 32.35 61.4 27.8 65.15 37.2 59.2 43.5 L54.15 33.55 Q49.75 37.1 38.6 36.95 L40.95 26.3 Q37.95 34.4 28.25 36.95 L30.5 27.35 Q28.95 33.15 24.0 37.7 22.55 35.8 15.65 32.0 10.3 28.5 8.1 25.25 L15.1 36.2 Q-3.25 30.75 -6.0 23.8 L-2.25 33.9 Q-18.6 29.95 -22.95 23.3 L-22.15 40.75 Q-30.1 37.3 -31.6 27.85 -30.95 39.05 -27.55 43.75 -52.2 35.65 -55.95 20.5 -63.7 21.75 -71.1 27.3 -71.25 22.1 -65.7 15.7 -71.95 19.05 -80.1 18.2 -76.8 16.35 -72.85 10.5 -68.95 4.65 -63.2 0.0 -68.65 0.9 -74.8 -2.3 -64.55 -6.15 -57.35 -13.55 -50.35 -18.95 -42.75 -22.0 -36.95 -31.55 -19.7 -37.2 -21.4 -30.6 -24.1 -25.95 -16.5 -30.4 -7.5 -34.05 1.45 -37.75 4.3 -43.75 5.15 -35.25 3.85 -30.4 11.25 -33.65 20.25 -36.15 29.2 -38.7 33.9 -43.5 35.9 -35.85 31.8 -28.6" fill="#8ef7aa" fill-rule="evenodd" stroke="none"/>
  </g>
</svg>
