<?xml version="1.0" encoding="UTF-8" standalone="no"?>
<svg xmlns:xlink="http://www.w3.org/1999/xlink" height="103.2px" width="129.2px" xmlns="http://www.w3.org/2000/svg">
  <g transform="matrix(1.0, 0.0, 0.0, 1.0, 64.6, 51.6)">
    <path d="M17.25 -4.15 L17.1 -2.6 Q13.8 27.3 18.15 35.6 5.5 22.3 1.3 5.6 L3.65 20.15 Q-11.4 -3.05 -12.1 -19.9 -12.4 -25.7 -11.65 -30.9 -17.75 -14.05 -35.4 0.9 -38.0 29.95 -29.25 49.5 -46.2 38.35 -49.85 18.0 L-48.0 29.6 Q-46.2 40.75 -42.7 51.6 -73.35 27.05 -61.15 -20.5 -51.2 -41.35 -32.4 -47.95 -20.3 -51.75 -5.05 -51.6 17.65 -51.4 35.4 -47.35 53.85 -42.65 59.1 -27.15 73.1 14.5 51.4 47.4 54.0 22.9 50.3 -1.55 43.15 -14.8 33.1 -28.0 33.4 -5.45 18.1 27.45 L17.25 -4.15" fill="url(#gradient0)" fill-rule="evenodd" stroke="none"/>
  </g>
  <defs>
    <linearGradient gradientTransform="matrix(0.0, 0.0818, -0.0789, 0.0, 0.0, 46.4)" gradientUnits="userSpaceOnUse" id="gradient0" spreadMethod="pad" x1="-819.2" x2="819.2">
      <stop offset="0.0" stop-color="#fff23c" stop-opacity="0.0"/>
      <stop offset="0.3803921568627451" stop-color="#fff23c" stop-opacity="0.84705883"/>
      <stop offset="0.6039215686274509" stop-color="#fff23c" stop-opacity="0.8"/>
      <stop offset="1.0" stop-color="#fff23c" stop-opacity="0.0"/>
    </linearGradient>
  </defs>
</svg>
