<?xml version="1.0" encoding="UTF-8" standalone="no"?>
<svg xmlns:xlink="http://www.w3.org/1999/xlink" height="118.2px" width="143.35px" xmlns="http://www.w3.org/2000/svg">
  <g transform="matrix(1.0, 0.0, 0.0, 1.0, 71.65, 59.1)">
    <path d="M-17.35 -51.55 L-16.3 -45.4 Q-12.1 -19.5 4.7 -1.95 1.85 -10.4 0.75 -25.35 L0.7 -25.85 Q0.35 -30.45 0.15 -35.7 M10.85 -39.9 Q11.45 -32.45 12.25 -26.35 15.5 -7.4 28.95 1.2 25.6 -6.8 23.95 -21.45 L23.85 -22.4 Q23.15 -28.75 22.8 -36.35 M0.75 -25.35 Q2.45 -7.95 19.9 -0.45 14.9 -6.5 12.25 -26.35 M23.95 -21.45 Q26.75 -7.75 40.6 3.45 38.65 -3.1 37.8 -11.75 36.95 -19.75 37.05 -29.55 M58.4 -3.65 Q59.9 17.7 51.7 33.1 47.7 45.4 52.55 57.9 53.7 49.15 62.05 20.85 L63.8 15.05 64.35 13.1 Q66.1 7.25 67.05 1.8 L67.05 1.7 67.05 1.6 67.25 0.45 67.45 -0.7 68.5 -7.4 68.95 -13.5 68.95 -14.35 Q70.05 -38.6 47.45 -58.1 M67.05 1.7 L67.25 0.45 M41.55 -41.5 Q47.2 -13.25 46.3 10.5 L46.0 14.85 Q44.4 34.1 35.75 51.35 46.05 43.65 51.7 33.1 M67.05 1.8 Q64.7 34.65 70.7 45.5 58.3 37.35 62.05 20.85 M46.3 10.5 L37.8 -11.75 M-61.35 -10.0 L-63.35 -2.0 -63.95 1.8 Q-64.25 3.75 -64.1 7.1 L-64.1 7.15 Q-63.45 22.9 -55.3 34.75 -45.25 49.4 -44.8 58.1 -37.7 49.8 -44.4 35.3 -50.65 23.1 -50.0 7.35 M-42.2 -42.55 Q-48.7 -19.2 -39.45 -3.15 -35.5 3.75 -28.6 9.3 -31.75 4.5 -30.75 -16.2 L-30.95 -18.15 Q-31.95 -28.1 -29.6 -39.25 M-64.1 7.15 Q-64.5 30.65 -61.25 46.45 -80.75 15.9 -59.9 -37.45 M-39.45 -3.15 Q-36.2 36.5 -23.8 56.8 -37.85 48.0 -44.4 35.3 M-16.3 -45.4 Q-23.75 -18.8 -24.75 2.5 -29.45 -6.25 -30.75 -16.2" fill="none" stroke="#000000" stroke-linecap="round" stroke-linejoin="round" stroke-width="2.0"/>
  </g>
</svg>
