<?xml version="1.0" encoding="UTF-8" standalone="no"?>
<svg xmlns:xlink="http://www.w3.org/1999/xlink" height="71.2px" width="156.85px" xmlns="http://www.w3.org/2000/svg">
  <g transform="matrix(1.0, 0.0, 0.0, 1.0, 117.3, 22.05)">
    <path d="M27.35 -19.25 Q31.1 -11.1 35.6 -2.35 L39.5 5.05 Q32.2 -2.65 29.65 -10.55 27.05 -18.4 27.35 -19.25 M6.75 -1.0 L6.65 1.8 6.15 5.65 4.95 10.05 Q2.85 15.4 -1.9 22.25 5.55 3.65 6.7 -4.05 L6.75 -1.0 M37.15 13.75 L38.05 16.35 39.0 20.1 39.55 24.6 Q39.55 30.35 37.7 38.55 37.75 18.5 36.0 11.0 L37.15 13.75 M24.5 45.9 Q26.5 19.4 24.6 2.85 28.85 16.15 28.85 27.45 L28.65 32.5 Q28.45 34.25 24.5 45.9 M-110.05 -0.35 Q-87.65 -17.4 -76.7 -19.8 -71.55 -21.0 -67.15 -21.4 -62.35 -21.85 -58.4 -21.35 -70.2 -20.6 -82.2 -15.3 -94.15 -10.05 -110.05 -0.35 M-21.9 -4.85 Q-17.3 -13.15 -16.15 -22.05 -16.05 -20.2 -16.25 -18.1 -16.65 -13.65 -18.3 -8.25 -20.7 -0.3 -34.75 14.1 -26.55 3.5 -21.9 -4.85 M-33.6 -6.85 Q-44.3 -1.65 -53.45 7.7 -62.7 16.95 -73.85 31.7 -59.45 7.8 -50.1 1.5 -45.7 -1.5 -41.8 -3.5 -37.4 -5.8 -33.6 -6.85 M-14.7 3.6 Q-5.9 -4.0 2.15 -7.05 -8.9 -0.5 -16.55 10.0 -24.1 20.5 -32.15 36.7 -23.5 11.15 -14.7 3.6 M-73.45 4.55 Q-70.25 0.85 -67.05 -1.55 -75.1 7.25 -80.15 19.3 -85.3 31.3 -90.2 49.15 -85.65 21.65 -79.3 12.35 -76.35 7.9 -73.45 4.55 M-84.1 6.1 Q-91.75 14.6 -117.3 23.1 -101.1 15.35 -90.5 7.95 -80.0 0.6 -73.3 -10.0 -76.4 -2.3 -84.1 6.1" fill="#ffffff" fill-rule="evenodd" stroke="none"/>
  </g>
</svg>
