<?xml version="1.0" encoding="UTF-8" standalone="no"?>
<svg xmlns:xlink="http://www.w3.org/1999/xlink" height="46.2px" width="80.55px" xmlns="http://www.w3.org/2000/svg">
  <g transform="matrix(1.0, 0.0, 0.0, 1.0, 40.25, 23.1)">
    <path d="M26.4 -14.35 L27.5 -9.55 Q31.75 7.2 40.3 14.25 L35.3 13.5 Q20.5 10.2 14.25 -2.85 17.6 9.0 24.65 17.55 8.1 11.75 2.0 1.9 7.35 11.95 11.7 13.5 -13.15 12.7 -17.4 -5.45 -21.35 9.95 -40.25 23.1 L-38.15 12.45 Q-37.0 5.65 -34.2 -1.2 L-30.7 -7.6 -29.7 -9.2 -27.85 -12.4 Q-32.1 -1.05 -32.1 11.1 -19.65 -4.8 -14.9 -22.45 -14.2 -8.1 -3.2 5.4 -4.8 -6.0 -4.3 -23.1 L-2.15 -16.95 Q2.5 -5.25 10.95 3.15 9.2 -8.25 10.3 -21.1 L11.85 -17.4 Q17.5 -4.9 26.6 3.6 25.15 -5.35 26.4 -14.35" fill="#ff8ec0" fill-rule="evenodd" stroke="none"/>
  </g>
</svg>
