<?xml version="1.0" encoding="UTF-8" standalone="no"?>
<svg xmlns:xlink="http://www.w3.org/1999/xlink" height="86.65px" width="133.05px" xmlns="http://www.w3.org/2000/svg">
  <g transform="matrix(1.0, 0.0, 0.0, 1.0, 66.5, 43.3)">
    <path d="M-52.75 9.05 Q-52.7 30.05 -48.4 43.35 -78.6 19.2 -58.4 -20.9 L-39.75 -36.7 -39.7 -36.75 Q-26.3 -41.65 -6.6 -43.3 16.8 -42.95 37.4 -35.85 46.6 -28.2 49.85 -20.55 58.6 10.3 66.55 30.5 57.0 26.2 51.0 15.6 44.95 4.95 44.5 -3.75 29.7 -7.05 23.45 -20.1 26.8 -8.25 33.85 0.3 17.3 -5.5 11.2 -15.35 16.55 -5.3 20.9 -3.75 -3.95 -4.55 -8.2 -22.7 -12.15 -7.3 -31.05 5.85 L-28.95 -4.8 Q-27.8 -11.6 -25.0 -18.45 L-30.75 -4.25 -31.0 -3.65 Q-39.8 11.7 -44.7 34.15 -51.1 19.95 -52.75 9.05 L-52.8 8.45 -52.8 8.55 -52.75 9.05" fill="url(#gradient0)" fill-rule="evenodd" stroke="none"/>
  </g>
  <defs>
    <linearGradient gradientTransform="matrix(0.0, 0.0735, -0.0812, 0.0, 0.05, 45.45)" gradientUnits="userSpaceOnUse" id="gradient0" spreadMethod="pad" x1="-819.2" x2="819.2">
      <stop offset="0.0" stop-color="#fff23c" stop-opacity="0.0"/>
      <stop offset="0.3803921568627451" stop-color="#fff23c" stop-opacity="0.84705883"/>
      <stop offset="0.6039215686274509" stop-color="#fff23c" stop-opacity="0.8"/>
      <stop offset="1.0" stop-color="#fff23c" stop-opacity="0.0"/>
    </linearGradient>
  </defs>
</svg>
