<?xml version="1.0" encoding="UTF-8" standalone="no"?>
<svg xmlns:xlink="http://www.w3.org/1999/xlink" height="117.7px" width="192.3px" xmlns="http://www.w3.org/2000/svg">
  <g transform="matrix(1.0, 0.0, 0.0, 1.0, 96.15, 58.85)">
    <path d="M31.95 -49.8 L35.3 -47.75 38.05 -45.65 Q45.75 -38.75 55.1 -24.4 L58.75 -20.4 61.05 -18.1 63.85 -15.45 64.1 -15.25 64.8 -14.65 Q58.45 -40.55 40.7 -57.85 M-6.4 -34.25 Q1.0 -25.85 7.15 -17.05 L8.15 -15.65 10.5 -12.6 Q17.45 -5.75 26.1 -0.4 L37.0 6.65 40.45 9.4 46.15 14.35 53.45 21.65 Q60.2 29.05 64.7 36.9 62.75 28.8 59.75 20.95 L56.8 13.85 52.8 5.8 Q48.5 -2.35 42.95 -10.4 L38.05 -17.05 Q31.15 -25.2 22.85 -33.2 M64.8 -14.65 L65.1 -14.4 Q69.35 -10.8 73.7 -8.15 84.35 -1.65 95.15 -1.8 85.55 1.85 75.85 1.65 L67.05 0.65 67.25 2.8 67.5 5.8 Q70.35 32.3 78.95 41.8 67.1 36.55 59.75 20.95 M64.1 -15.25 L64.8 -14.6 64.8 -14.65 M-74.55 -44.7 Q-81.75 -33.55 -85.1 -13.8 -86.0 -6.3 -87.15 0.05 -90.35 18.1 -95.15 26.05 -88.65 24.65 -83.65 18.8 -77.6 11.7 -73.7 -1.9 -72.6 -21.55 -64.1 -41.05 M-73.7 -1.9 Q-74.85 17.55 -68.8 37.2 -65.7 18.1 -57.55 -7.5 -53.65 -25.65 -44.6 -42.95 M-32.9 -38.35 L-28.35 -32.2 Q4.65 12.25 16.05 35.7 14.85 19.85 10.95 12.4 L3.75 3.6 M-28.35 -32.2 Q-31.85 -22.1 -36.65 -16.45 -41.5 -10.85 -44.6 -6.0 -48.95 0.85 -52.75 9.75 L-55.7 17.05 Q-58.25 23.95 -60.15 30.75 -61.55 11.15 -57.55 -7.5 M10.95 12.4 Q29.5 35.85 37.6 57.85 35.25 20.0 10.5 -12.6 M67.05 0.65 Q54.95 -1.85 42.95 -10.4" fill="none" stroke="#000000" stroke-linecap="round" stroke-linejoin="round" stroke-width="2.0"/>
  </g>
</svg>
