<?xml version="1.0" encoding="UTF-8" standalone="no"?>
<svg xmlns:xlink="http://www.w3.org/1999/xlink" height="96.85px" width="131.05px" xmlns="http://www.w3.org/2000/svg">
  <g transform="matrix(1.0, 0.0, 0.0, 1.0, 71.4, 41.9)">
    <path d="M37.3 -10.3 L37.45 -3.7 Q37.2 2.55 35.95 10.0 34.15 -19.75 26.7 -36.6 36.6 -19.0 37.3 -10.3 M54.75 17.95 L55.35 25.85 55.45 28.15 Q55.6 37.75 54.55 49.3 51.0 16.25 44.1 -6.45 L45.1 -9.2 Q53.4 7.95 54.75 17.95 M55.3 -17.25 L56.75 -12.0 57.15 -10.45 Q58.5 -3.85 59.65 4.15 49.9 -26.3 38.55 -41.9 52.4 -26.15 55.3 -17.25 M43.3 10.8 L42.85 16.2 42.65 17.8 40.4 32.2 Q40.95 12.7 39.15 -1.85 L40.7 -4.55 Q43.5 5.05 43.3 10.8 M21.8 5.9 Q19.2 11.75 13.75 18.25 23.15 -1.45 24.4 -15.25 24.45 0.05 21.8 5.9 M-32.55 16.6 Q-34.9 0.45 -34.8 -1.6 -33.85 -16.85 -26.05 -34.8 -30.6 -16.2 -32.55 16.6 M-4.2 1.85 Q-12.25 5.35 -23.8 7.15 3.8 -4.25 17.55 -16.8 3.8 -1.7 -4.2 1.85 M-54.55 7.55 Q-53.5 24.05 -47.55 46.05 -61.45 14.95 -58.5 0.0 -55.65 -14.9 -49.25 -25.0 -55.7 -8.95 -54.55 7.55 M-48.55 8.3 L-47.55 21.7 -47.25 27.5 -48.5 23.65 Q-49.85 18.85 -49.45 14.6 -49.0 8.75 -48.55 8.3 M-66.45 11.5 Q-63.1 30.15 -54.25 54.95 -72.35 19.85 -71.35 3.0 -70.5 -13.8 -65.5 -25.2 -69.8 -7.1 -66.45 11.5" fill="#ffffff" fill-rule="evenodd" stroke="none"/>
  </g>
</svg>
