<?xml version="1.0" encoding="UTF-8" standalone="no"?>
<svg xmlns:xlink="http://www.w3.org/1999/xlink" height="61.8px" width="79.7px" xmlns="http://www.w3.org/2000/svg">
  <g transform="matrix(1.0, 0.0, 0.0, 1.0, 34.45, 21.2)">
    <path d="M31.5 -17.85 Q25.0 3.55 12.75 10.75 22.85 9.55 31.45 3.05 L27.6 12.4 Q24.4 20.2 19.45 20.8 L17.35 20.95 Q32.85 30.75 45.25 20.55 39.8 43.3 21.4 40.25 -1.85 33.8 -20.25 20.4 -14.95 17.0 -12.95 12.45 L-26.5 15.5 -26.35 15.7 -26.55 15.5 -34.45 8.35 -32.25 7.35 Q-25.05 4.65 -4.6 1.85 19.6 -1.5 32.45 -21.2 L31.5 -17.85" fill="#ffffff" fill-rule="evenodd" stroke="none"/>
  </g>
</svg>
