<?xml version="1.0" encoding="UTF-8" standalone="no"?>
<svg xmlns:xlink="http://www.w3.org/1999/xlink" height="102.5px" width="144.0px" xmlns="http://www.w3.org/2000/svg">
  <g transform="matrix(1.0, 0.0, 0.0, 1.0, 98.85, 11.0)">
    <path d="M7.9 7.9 Q2.1 9.7 -1.9 8.9 4.2 8.45 10.25 4.15 17.4 -0.8 27.4 -11.0 19.35 -0.55 13.75 4.2 10.4 7.05 7.9 7.9 M12.8 16.15 L10.75 15.95 Q9.25 15.75 8.15 15.25 10.95 15.85 14.05 14.85 18.5 13.35 27.5 8.05 19.85 13.75 16.05 15.35 14.15 16.25 12.8 16.15 M6.9 47.45 Q-0.15 47.45 -6.0 45.0 -14.35 41.8 -14.85 40.8 L4.25 45.05 12.45 47.1 7.5 47.45 6.9 47.45 M24.1 35.45 Q19.35 35.65 16.45 34.25 21.15 35.15 26.65 33.1 33.05 30.8 42.7 25.1 34.5 31.4 29.3 33.85 26.15 35.35 24.1 35.45 M23.85 54.1 Q19.6 51.9 17.8 49.25 21.4 52.4 27.25 53.35 L45.15 54.35 29.15 55.3 Q25.65 55.0 23.85 54.1 M2.5 65.15 Q-2.35 58.8 -3.0 53.6 0.15 60.85 8.45 66.65 18.0 73.3 35.9 81.7 8.15 72.55 2.5 65.15 M-35.85 22.35 L-44.6 23.0 -46.0 22.75 -26.5 17.6 -18.05 15.55 Q-20.25 17.1 -22.35 18.25 L-22.95 18.55 Q-29.3 21.85 -35.85 22.35 M-63.65 54.05 Q-44.15 59.25 -37.95 67.4 L-23.65 86.45 Q-37.2 71.35 -44.7 65.75 -53.65 59.15 -63.55 54.75 L-63.9 54.4 -63.65 54.05 M-38.15 53.65 Q-45.85 48.2 -46.15 47.15 -37.3 51.8 -27.45 56.6 -26.3 57.1 -19.4 60.85 L-25.3 59.6 Q-32.55 57.65 -38.15 53.65 M-9.85 76.45 Q-0.3 83.1 17.6 91.5 -10.15 82.35 -15.8 74.95 -20.65 68.6 -21.3 63.4 -18.15 70.65 -9.85 76.45 M-98.85 67.7 Q-79.15 44.5 -73.25 33.55 -78.2 46.95 -83.75 53.75 -89.4 60.5 -98.85 67.7" fill="#ffffff" fill-rule="evenodd" stroke="none"/>
  </g>
</svg>
