<?xml version="1.0" encoding="UTF-8" standalone="no"?>
<svg xmlns:xlink="http://www.w3.org/1999/xlink" height="104.2px" width="172.95px" xmlns="http://www.w3.org/2000/svg">
  <g transform="matrix(1.0, 0.0, 0.0, 1.0, 86.45, 52.1)">
    <path d="M70.05 -12.05 Q77.5 10.85 86.5 18.6 66.2 18.3 60.25 4.75 60.4 33.6 70.95 50.85 L71.7 52.1 Q57.3 41.95 53.3 23.6 54.5 34.6 52.45 42.7 49.85 24.55 29.95 0.6 35.45 10.7 27.7 17.65 26.25 7.75 11.25 -6.0 22.5 8.15 24.65 17.05 16.4 9.5 -2.55 2.35 -20.85 -4.5 -20.85 -13.25 -21.15 -5.25 -16.6 6.55 -27.6 -2.75 -33.05 -14.0 -45.75 13.45 -45.6 41.7 -56.45 21.9 -56.15 -2.65 -66.35 14.3 -78.0 24.75 -81.35 27.7 -85.15 30.3 L-86.45 31.2 Q-77.25 17.45 -72.45 -7.3 L-71.65 -11.85 Q-68.85 -28.5 -62.65 -36.25 -45.7 -47.9 -21.05 -50.7 17.55 -55.3 46.85 -45.0 62.6 -35.0 70.05 -12.05" fill="#fff9a6" fill-rule="evenodd" stroke="none"/>
  </g>
</svg>
