<?xml version="1.0" encoding="UTF-8" standalone="no"?>
<svg xmlns:xlink="http://www.w3.org/1999/xlink" height="128.45px" width="167.1px" xmlns="http://www.w3.org/2000/svg">
  <g transform="matrix(1.0, 0.0, 0.0, 1.0, 83.55, 64.2)">
    <path d="M29.55 -64.1 Q42.25 -59.35 54.0 -36.05 66.8 -11.65 83.55 -6.2 67.8 -2.5 54.9 -12.5 L51.8 -15.2 Q69.4 21.1 81.6 22.35 61.4 21.95 53.85 4.7 L51.45 -3.35 52.1 -0.35 52.2 0.0 Q58.75 27.35 55.7 64.25 51.85 40.85 43.95 20.95 L44.1 22.25 Q45.55 33.35 44.7 44.65 L44.4 43.65 Q35.9 14.75 16.65 -7.9 6.25 -17.7 -7.95 -27.65 L-8.8 -28.2 1.4 -20.5 Q11.0 -13.2 9.75 0.3 1.4 -17.65 -31.25 -33.1 -27.7 -22.3 -23.2 -17.85 -43.2 -28.05 -45.55 -39.05 -48.7 -24.1 -47.2 -14.8 -54.55 -23.75 -53.35 -34.5 -59.55 -0.65 -56.1 21.5 -62.2 14.95 -65.7 7.4 -58.85 40.1 -48.05 56.65 -74.35 42.05 -83.0 4.05 -85.65 -16.95 -75.95 -36.15 -63.95 -49.4 -46.6 -55.25 -15.8 -62.5 15.85 -61.95 21.1 -64.7 29.55 -64.1" fill="url(#gradient0)" fill-rule="evenodd" stroke="none"/>
  </g>
  <defs>
    <linearGradient gradientTransform="matrix(0.0, 0.079, -0.102, 0.0, 0.0, 23.0)" gradientUnits="userSpaceOnUse" id="gradient0" spreadMethod="pad" x1="-819.2" x2="819.2">
      <stop offset="0.0" stop-color="#fff23c" stop-opacity="0.0"/>
      <stop offset="0.3803921568627451" stop-color="#fff23c" stop-opacity="0.84705883"/>
      <stop offset="0.6039215686274509" stop-color="#fff23c" stop-opacity="0.8"/>
      <stop offset="1.0" stop-color="#fff23c" stop-opacity="0.0"/>
    </linearGradient>
  </defs>
</svg>
