<?xml version="1.0" encoding="UTF-8" standalone="no"?>
<svg xmlns:xlink="http://www.w3.org/1999/xlink" height="51.25px" width="99.0px" xmlns="http://www.w3.org/2000/svg">
  <g transform="matrix(1.0, 0.0, 0.0, 1.0, 49.5, 25.65)">
    <path d="M27.4 -25.65 Q31.9 -8.25 31.05 0.7 32.15 -4.75 40.25 -17.4 45.55 -2.7 41.9 7.6 L47.5 -4.25 Q52.05 13.75 46.25 25.6 47.75 17.4 46.3 4.7 L39.75 10.95 Q42.6 3.1 39.5 -9.85 33.2 -3.35 31.55 6.85 25.6 -3.4 25.75 -13.7 17.3 -5.35 7.1 1.8 L10.15 -16.0 Q8.0 -14.25 -0.55 -8.6 -14.7 0.65 -20.7 2.25 L-10.8 -13.7 Q-20.3 -2.95 -37.35 5.9 L-29.9 -7.4 -49.5 5.75 Q-46.15 1.8 -43.15 -0.75 L-24.65 -16.05 -26.65 -3.85 Q-16.5 -12.6 -5.85 -24.15 -4.1 -13.95 -10.7 -6.75 -0.2 -16.2 16.85 -25.65 17.85 -12.85 12.8 -6.15 16.85 -10.45 20.1 -14.9 24.5 -20.9 27.4 -25.65" fill="#54d4ff" fill-rule="evenodd" stroke="none"/>
  </g>
</svg>
