<?xml version="1.0" encoding="UTF-8" standalone="no"?>
<svg xmlns:xlink="http://www.w3.org/1999/xlink" height="77.8px" width="105.9px" xmlns="http://www.w3.org/2000/svg">
  <g transform="matrix(1.0, 0.0, 0.0, 1.0, 52.1, 15.15)">
    <path d="M42.45 10.8 Q45.95 23.55 53.8 40.35 38.9 17.05 38.45 5.15 37.95 -6.75 40.7 -15.15 38.85 -2.1 42.45 10.8 M25.4 16.35 Q28.2 28.45 34.95 44.4 21.8 22.3 21.85 11.0 21.8 9.3 21.9 7.75 22.3 -1.5 24.85 -8.25 22.55 4.15 25.4 16.35 M0.35 25.1 Q3.5 36.3 10.25 50.85 -2.75 30.55 -3.15 20.25 -3.55 9.95 -1.15 2.6 -2.65 14.0 0.35 25.1 M-27.25 36.1 Q-24.3 46.6 -17.95 60.35 -30.15 41.25 -30.55 31.5 -30.9 21.8 -28.65 14.9 -30.1 25.6 -27.25 36.1 M-49.2 41.7 Q-46.65 50.8 -41.15 62.65 -51.7 46.15 -52.05 37.75 -52.35 29.35 -50.4 23.4 -51.65 32.65 -49.2 41.7" fill="#ffffff" fill-rule="evenodd" stroke="none"/>
  </g>
</svg>
