<?xml version="1.0" encoding="UTF-8" standalone="no"?>
<svg xmlns:xlink="http://www.w3.org/1999/xlink" height="78.7px" width="139.2px" xmlns="http://www.w3.org/2000/svg">
  <g transform="matrix(1.0, 0.0, 0.0, 1.0, 69.6, 39.35)">
    <path d="M-17.75 -14.6 Q-6.75 -8.45 3.5 -3.45 L6.5 -2.05 9.6 -0.65 10.75 -0.15 Q40.8 6.9 68.6 -17.25 48.3 -11.35 27.3 -13.3 L24.2 -13.65 Q9.5 -15.45 -5.45 -21.05 M5.25 -25.6 Q38.15 -22.05 65.2 -38.35 45.3 -12.0 24.2 -13.65 M-48.55 -14.6 L-47.5 -11.25 Q-43.25 0.95 -30.55 7.9 -16.15 15.7 3.6 16.7 -6.85 12.3 -14.3 6.9 -22.75 0.75 -27.4 -6.8 M-47.5 -11.25 Q-67.95 22.55 -60.55 38.35 -77.45 19.95 -58.95 -16.7 M10.75 -0.15 Q28.5 7.6 48.75 12.25 11.6 17.75 -14.3 6.9" fill="none" stroke="#000000" stroke-linecap="round" stroke-linejoin="round" stroke-width="2.0"/>
  </g>
</svg>
