<?xml version="1.0" encoding="UTF-8" standalone="no"?>
<svg xmlns:xlink="http://www.w3.org/1999/xlink" height="49.25px" width="123.55px" xmlns="http://www.w3.org/2000/svg">
  <g transform="matrix(1.0, 0.0, 0.0, 1.0, 36.0, 12.7)">
    <path d="M-2.05 -12.7 Q-3.2 -4.95 -3.85 3.6 L-4.8 10.65 -5.3 9.05 -6.05 6.05 -6.3 3.75 -6.4 2.5 Q-6.55 -1.3 -5.25 -4.8 -3.05 -12.15 -2.05 -12.7 M-20.5 6.25 Q-16.1 -3.4 -15.0 -3.85 -18.3 6.95 -21.45 18.9 L-24.45 28.75 Q-24.6 25.05 -24.3 21.7 -23.7 13.1 -20.5 6.25 M-35.65 27.35 Q-36.8 15.9 -34.2 6.15 -30.65 -7.55 -29.4 -8.4 -31.15 6.55 -32.5 22.95 L-34.25 36.55 Q-35.25 31.75 -35.65 27.35 M82.25 14.3 Q75.6 10.55 71.4 5.3 65.5 -1.85 65.5 -2.9 72.8 3.85 81.05 10.9 L87.55 16.25 Q84.7 15.85 82.25 14.3 M76.6 19.4 Q73.15 18.1 70.5 16.4 L70.1 16.2 69.7 16.05 68.2 15.1 67.95 15.0 67.8 14.85 Q59.85 10.2 54.6 3.65 44.85 -7.65 44.9 -9.35 56.5 1.55 68.45 11.7 L76.6 19.4 M49.15 11.75 L48.95 11.6 Q41.5 7.3 37.4 2.2 31.6 -4.85 31.95 -5.9 39.25 0.4 49.65 8.4 L59.5 16.7 Q55.2 15.15 52.0 13.2 L51.55 13.0 51.1 12.8 Q50.25 12.3 49.4 11.9 L49.15 11.75 M46.0 17.95 Q37.4 14.9 31.2 10.0 21.2 2.4 21.0 1.0 32.55 7.75 45.9 14.8 L56.55 21.05 Q52.55 20.35 49.2 19.05 L48.75 18.9 48.3 18.8 46.5 18.15 46.2 18.05 46.0 17.95 M13.1 8.7 Q4.0 1.15 3.9 -0.3 L26.45 13.45 36.05 19.7 Q32.4 18.95 29.3 17.7 L28.55 17.45 26.35 16.65 Q18.65 13.6 13.1 8.7" fill="#ffffff" fill-rule="evenodd" stroke="none"/>
  </g>
</svg>
