<?xml version="1.0" encoding="UTF-8" standalone="no"?>
<svg xmlns:xlink="http://www.w3.org/1999/xlink" height="106.85px" width="134.5px" xmlns="http://www.w3.org/2000/svg">
  <g transform="matrix(1.0, 0.0, 0.0, 1.0, 67.25, 53.4)">
    <path d="M23.3 -30.2 L22.65 -25.4 22.55 -24.75 Q19.95 -5.45 17.4 4.9 27.35 -10.45 31.25 -21.4 L31.75 -22.95 Q32.55 -25.4 32.95 -27.8 33.7 -32.15 33.25 -36.35 M-5.9 -33.45 Q-5.15 -18.45 0.65 -4.8 L1.55 -2.8 Q7.4 -13.8 12.4 -30.85 M1.55 -2.8 Q-2.15 4.1 -8.0 9.85 -0.1 8.75 5.3 5.45 12.45 0.55 14.9 -4.05 20.55 -15.0 22.55 -24.75 M41.35 -34.4 Q44.45 -18.45 44.55 -4.85 44.7 8.3 39.05 19.45 46.2 14.4 49.75 7.4 57.55 -8.0 48.05 -32.85 M31.25 -21.4 Q33.15 -13.35 44.55 -4.85 M56.9 -11.35 Q60.3 4.65 59.35 18.25 L58.2 41.25 Q70.65 17.55 63.8 -22.55 59.65 -42.35 46.65 -52.4 M5.3 5.45 Q10.1 13.7 17.65 19.35 14.6 11.65 14.9 -4.05 M49.75 7.4 Q48.35 37.5 44.4 50.05 57.85 39.2 59.35 18.25 M-48.05 52.45 L-48.1 52.1 Q-69.6 19.7 -65.6 -15.2 -63.95 -25.7 -57.4 -33.9 M0.65 -4.8 Q-14.25 -14.9 -19.0 -29.4 L-19.45 -30.85 -23.2 -20.95 -23.2 -20.9 Q-28.35 -8.75 -39.15 -2.05 -34.1 -9.6 -32.35 -20.05 -35.7 -6.55 -44.65 0.6 -44.55 19.4 -40.35 31.5 M-19.45 -30.85 L-20.65 -36.3 M-32.35 -20.05 Q-31.1 -27.6 -31.55 -36.7 M-40.2 31.95 L-39.85 32.95 Q-48.1 26.05 -52.35 17.05 -51.7 40.25 -48.1 52.1 M-42.75 -30.0 Q-44.75 -12.95 -44.65 0.6 M-52.35 17.05 Q-57.45 6.4 -57.0 -7.15" fill="none" stroke="#000000" stroke-linecap="round" stroke-linejoin="round" stroke-width="2.0"/>
  </g>
</svg>
