<?xml version="1.0" encoding="UTF-8" standalone="no"?>
<svg xmlns:xlink="http://www.w3.org/1999/xlink" height="123.55px" width="192.4px" xmlns="http://www.w3.org/2000/svg">
  <g transform="matrix(1.0, 0.0, 0.0, 1.0, 96.2, 61.75)">
    <path d="M-81.35 30.85 Q-82.9 30.3 -84.6 29.2 -91.75 22.5 -82.1 9.95 -84.9 19.2 -81.35 22.2 -76.4 24.4 -74.7 17.65 -73.55 11.0 -71.55 -4.4 -66.1 -34.35 -45.35 -47.7 -31.95 -56.4 -13.25 -52.5 -1.8 -62.25 15.3 -61.7 47.3 -56.45 60.95 -36.2 69.1 -24.2 73.2 -12.3 77.35 -7.95 76.35 -2.4 76.3 1.5 73.75 3.2 73.7 11.65 75.5 16.8 78.15 18.85 79.7 21.65 L80.2 23.95 Q81.8 25.15 83.85 25.8 87.4 25.45 88.3 19.7 88.7 12.2 82.5 4.75 94.4 12.2 95.55 19.65 98.05 30.9 90.7 36.9 84.6 41.1 80.65 39.45 81.15 41.8 81.2 44.75 78.5 55.25 67.25 54.65 40.95 51.5 25.55 23.3 L23.0 20.3 18.9 14.4 Q7.85 -4.0 0.65 -22.65 L-0.05 -18.8 -1.95 -23.95 -5.7 -20.4 -5.7 -24.95 -11.25 -21.05 -16.55 -24.25 -16.55 -18.2 -22.65 -20.4 -22.65 -15.3 -28.1 -17.0 Q-42.95 9.55 -38.05 61.8 -53.25 40.25 -51.9 16.25 -53.9 42.65 -67.75 48.15 -76.3 49.3 -80.0 44.55 -88.3 43.45 -93.0 38.6 -100.95 30.3 -89.0 18.8 -91.75 26.85 -87.15 34.85 L-82.7 37.75 Q-83.5 34.7 -81.35 30.85 M71.55 44.8 L72.15 43.85 Q72.9 42.05 72.1 39.05 63.05 45.4 53.05 40.35 58.45 47.3 66.4 46.5 70.1 46.5 71.55 44.8 M-78.55 36.9 Q-74.35 36.9 -73.05 29.95 -75.75 31.65 -79.05 31.35 -79.6 34.55 -78.55 36.9" fill="#83b2e7" fill-rule="evenodd" stroke="none"/>
  </g>
</svg>
