<?xml version="1.0" encoding="UTF-8" standalone="no"?>
<svg xmlns:xlink="http://www.w3.org/1999/xlink" height="116.45px" width="110.1px" xmlns="http://www.w3.org/2000/svg">
  <g transform="matrix(1.0, 0.0, 0.0, 1.0, 40.6, 55.75)">
    <path d="M46.5 -6.3 Q50.65 -1.95 49.65 3.6 49.6 7.5 47.05 9.2 47.0 17.65 48.8 22.8 51.45 24.85 53.0 27.65 L53.5 29.95 Q55.1 31.15 57.15 31.8 60.7 31.45 61.6 25.7 62.0 18.2 55.8 10.75 67.7 18.2 68.85 25.65 71.35 36.9 64.0 42.9 57.9 47.1 53.95 45.45 54.45 47.8 54.5 50.75 51.8 61.25 40.55 60.65 14.25 57.5 -1.15 29.3 L-3.7 26.3 Q-5.85 23.6 -7.8 20.4 -18.85 2.0 -26.05 -16.65 L-26.75 -12.8 -28.65 -17.95 -32.4 -14.4 -32.4 -18.95 -37.95 -15.05 Q-41.9 -33.1 -39.95 -46.5 -28.5 -56.25 -11.4 -55.7 20.6 -50.45 34.25 -30.2 42.4 -18.2 46.5 -6.3 M44.85 50.8 L45.45 49.85 Q46.2 48.05 45.4 45.05 36.35 51.4 26.35 46.35 31.75 53.3 39.7 52.5 43.4 52.5 44.85 50.8" fill="#ffffff" fill-rule="evenodd" stroke="none"/>
  </g>
</svg>
