<?xml version="1.0" encoding="UTF-8" standalone="no"?>
<svg xmlns:xlink="http://www.w3.org/1999/xlink" height="79.35px" width="128.35px" xmlns="http://www.w3.org/2000/svg">
  <g transform="matrix(1.0, 0.0, 0.0, 1.0, 64.2, 39.7)">
    <path d="M37.2 -0.8 L41.45 0.1 Q57.15 7.7 64.15 26.8 L49.15 23.25 Q50.65 33.8 44.65 39.65 L42.75 30.9 36.2 37.75 37.65 32.85 30.55 37.35 27.75 33.3 27.75 37.75 17.85 32.85 18.8 37.75 10.05 33.3 11.8 38.2 0.3 33.4 8.05 38.7 Q-5.2 37.85 -13.3 31.8 -20.5 26.45 -16.2 15.0 L-54.85 29.05 Q-47.4 12.4 -38.7 7.95 -30.25 3.6 -25.4 5.05 -43.5 -0.85 -64.2 2.25 -53.4 -10.55 -32.2 -13.45 -38.55 -17.75 -56.0 -21.65 -40.8 -30.25 -11.15 -22.75 -7.85 -21.85 -5.45 -19.8 -11.3 -29.1 -22.85 -39.7 -3.9 -32.8 5.5 -22.6 12.9 -14.8 10.7 -6.85 14.15 -8.65 25.2 -8.45 33.2 -4.35 37.2 -0.8" fill="url(#gradient0)" fill-rule="evenodd" stroke="none"/>
  </g>
  <defs>
    <linearGradient gradientTransform="matrix(-0.0235, -0.0587, 0.0631, -0.0252, -22.65, -40.35)" gradientUnits="userSpaceOnUse" id="gradient0" spreadMethod="pad" x1="-819.2" x2="819.2">
      <stop offset="0.0" stop-color="#fff23c" stop-opacity="0.0"/>
      <stop offset="0.3803921568627451" stop-color="#fff23c" stop-opacity="0.84705883"/>
      <stop offset="0.6039215686274509" stop-color="#fff23c" stop-opacity="0.8"/>
      <stop offset="1.0" stop-color="#fff23c" stop-opacity="0.0"/>
    </linearGradient>
  </defs>
</svg>
