<?xml version="1.0" encoding="UTF-8" standalone="no"?>
<svg xmlns:xlink="http://www.w3.org/1999/xlink" height="23.15px" width="57.9px" xmlns="http://www.w3.org/2000/svg">
  <g transform="matrix(1.0, 0.0, 0.0, 1.0, 12.8, 0.9)">
    <path d="M44.25 5.35 Q38.65 2.9 40.3 -0.9 45.55 0.6 45.05 5.1 45.0 5.65 44.25 5.35 M15.1 10.6 Q19.85 13.7 17.25 19.25 L15.3 19.2 Q12.55 14.5 15.1 10.6 M32.1 6.15 Q36.7 8.05 34.05 11.95 33.65 12.5 33.1 11.8 30.55 8.5 32.1 6.15 M-10.6 15.2 Q-7.35 17.4 -10.85 21.4 -12.65 23.45 -12.8 20.55 -13.0 17.15 -10.6 15.2" fill="#ffffff" fill-rule="evenodd" stroke="none"/>
  </g>
</svg>
