<?xml version="1.0" encoding="UTF-8" standalone="no"?>
<svg xmlns:xlink="http://www.w3.org/1999/xlink" height="27.65px" width="69.45px" xmlns="http://www.w3.org/2000/svg">
  <g transform="matrix(1.0, 0.0, 0.0, 1.0, 34.7, 27.9)">
    <path d="M20.6 -14.35 Q22.7 -8.5 23.5 -0.25 16.45 -20.4 11.7 -27.9 18.5 -20.15 20.6 -14.35 M32.9 -17.25 Q34.25 -13.6 34.75 -8.45 30.3 -21.05 27.35 -25.7 31.6 -20.9 32.9 -17.25 M-30.85 -13.8 Q-28.3 -19.35 -21.05 -26.8 -26.25 -19.65 -34.7 -0.25 -33.35 -8.2 -30.85 -13.8 M-15.2 -17.25 Q-14.35 -20.9 -10.65 -25.7 -13.05 -21.05 -16.05 -8.45 -16.15 -13.6 -15.2 -17.25" fill="#ffffff" fill-rule="evenodd" stroke="none"/>
  </g>
</svg>
