<?xml version="1.0" encoding="UTF-8" standalone="no"?>
<svg xmlns:xlink="http://www.w3.org/1999/xlink" height="98.75px" width="128.25px" xmlns="http://www.w3.org/2000/svg">
  <g transform="matrix(1.0, 0.0, 0.0, 1.0, 64.1, 49.35)">
    <path d="M23.1 -15.9 Q23.5 -9.35 23.1 -3.35 L22.05 9.35 21.7 13.55 Q22.1 16.5 21.15 20.65 L20.5 28.4 Q34.0 6.55 30.9 -18.9 30.25 -23.4 28.95 -28.1 M40.1 -39.3 Q53.65 -29.75 58.4 -18.7 70.3 15.05 52.5 44.8 61.35 18.65 52.2 -12.8 L51.05 -16.55 M-3.35 -10.6 Q-5.35 -2.95 -3.75 6.5 -3.0 10.8 -1.55 15.5 L-1.4 16.0 -1.3 16.3 0.3 20.75 Q7.35 38.95 7.55 48.4 L7.6 48.4 Q12.85 40.3 16.2 33.6 19.85 26.3 21.15 20.65 L21.7 13.55 M30.9 -18.9 Q39.2 3.6 30.4 25.15 51.5 6.15 44.0 -22.55 M-30.55 -38.4 Q-38.5 -29.75 -43.25 -19.15 L-43.4 -18.8 -43.9 -17.7 Q-55.0 8.7 -46.4 46.7 -49.05 -1.7 -24.05 -26.75 L-23.9 -27.2 Q-18.45 -40.8 -8.15 -48.35 M-43.9 -17.7 Q-59.3 16.9 -58.1 47.0 -68.1 18.0 -58.1 -12.6 -47.4 -38.65 -35.35 -46.9 M-1.3 16.3 Q1.3 24.9 -2.05 32.25 -6.9 22.8 -18.1 3.3 -29.3 -16.2 -24.05 -26.75" fill="none" stroke="#000000" stroke-linecap="round" stroke-linejoin="round" stroke-width="2.0"/>
  </g>
</svg>
