<?xml version="1.0" encoding="UTF-8" standalone="no"?>
<svg xmlns:xlink="http://www.w3.org/1999/xlink" height="61.1px" width="96.5px" xmlns="http://www.w3.org/2000/svg">
  <g transform="matrix(1.0, 0.0, 0.0, 1.0, 48.25, 30.55)">
    <path d="M-4.75 -30.55 Q13.1 -29.1 26.85 -15.1 35.9 -2.1 48.25 -1.95 37.95 6.2 28.85 1.15 34.85 12.3 40.5 14.65 18.6 18.8 13.25 0.65 16.0 12.2 8.4 21.45 8.55 13.3 3.2 3.5 6.6 17.95 -2.5 30.55 -11.55 20.7 -14.6 12.4 -13.8 18.45 -14.25 21.5 -39.0 10.75 -37.85 -3.55 -40.1 7.7 -39.2 14.5 -47.7 4.0 -48.25 -4.4 -48.4 -15.6 -38.55 -25.25 L-4.75 -30.55" fill="url(#gradient0)" fill-rule="evenodd" stroke="none"/>
  </g>
  <defs>
    <linearGradient gradientTransform="matrix(0.0, 0.0974, -0.0589, 0.0, 0.0, 72.45)" gradientUnits="userSpaceOnUse" id="gradient0" spreadMethod="pad" x1="-819.2" x2="819.2">
      <stop offset="0.0" stop-color="#fff23c" stop-opacity="0.0"/>
      <stop offset="0.3803921568627451" stop-color="#fff23c" stop-opacity="0.84705883"/>
      <stop offset="0.6039215686274509" stop-color="#fff23c" stop-opacity="0.8"/>
      <stop offset="1.0" stop-color="#fff23c" stop-opacity="0.0"/>
    </linearGradient>
  </defs>
</svg>
