<?xml version="1.0" encoding="UTF-8" standalone="no"?>
<svg xmlns:xlink="http://www.w3.org/1999/xlink" height="112.65px" width="92.8px" xmlns="http://www.w3.org/2000/svg">
  <g transform="matrix(1.0, 0.0, 0.0, 1.0, 46.4, 56.3)">
    <path d="M11.0 -27.45 Q15.1 -19.55 18.1 -11.5 29.5 -2.95 45.4 -6.3 31.85 -10.8 18.9 -29.35 5.9 -47.95 -8.65 -54.35 -14.45 -57.55 -25.85 -49.9 -23.75 -38.35 -21.85 -29.8 L-21.75 -29.5 Q2.15 12.6 8.2 50.6 13.85 27.25 6.85 3.3 L1.2 -16.2 M18.1 -11.5 Q29.9 20.75 22.6 55.35 20.85 29.65 6.85 3.3 M-34.7 -29.85 L-37.0 -38.75 -45.4 -28.1 Q-42.25 -29.65 -39.15 -31.25 L-37.3 -26.1 -34.7 -29.85 Q-25.55 8.3 -31.65 34.25 -14.15 5.0 -21.75 -29.5 M-45.4 -28.1 Q-38.85 -44.4 -34.85 -48.25 -29.45 -50.7 -26.85 -49.25 L-25.85 -49.9 M-31.65 34.25 L-31.7 34.6" fill="none" stroke="#000000" stroke-linecap="round" stroke-linejoin="round" stroke-width="2.0"/>
  </g>
</svg>
