<?xml version="1.0" encoding="UTF-8" standalone="no"?>
<svg xmlns:xlink="http://www.w3.org/1999/xlink" height="69.65px" width="142.3px" xmlns="http://www.w3.org/2000/svg">
  <g transform="matrix(1.0, 0.0, 0.0, 1.0, 121.0, 50.5)">
    <path d="M11.4 -26.35 Q14.9 -19.75 18.85 -13.45 L21.3 -8.6 Q19.5 -9.7 18.15 -11.0 14.4 -14.35 13.1 -18.75 11.3 -24.2 11.3 -25.8 L11.4 -26.35 M5.9 2.2 Q6.25 7.7 1.55 14.4 -0.3 16.9 -3.25 19.15 -0.05 13.75 1.6 6.7 3.45 -1.0 -5.15 -21.7 3.9 -12.05 5.9 2.2 M-109.4 -3.35 Q-113.7 1.85 -121.0 7.35 -105.9 -10.45 -101.35 -18.9 -105.1 -8.55 -109.4 -3.35 M-89.95 -13.5 Q-91.3 -8.3 -96.45 0.8 -90.35 -18.7 -90.4 -23.65 -88.9 -17.7 -89.95 -13.5 M-85.55 -24.6 L-82.4 -18.25 Q-82.15 -17.9 -82.3 -17.55 -84.7 -20.05 -85.8 -23.9 L-85.55 -24.6 M-78.0 -35.75 L-64.45 -22.45 -58.85 -16.6 Q-61.6 -17.9 -63.85 -19.45 -69.8 -23.15 -73.25 -28.05 -78.2 -34.85 -78.0 -35.75 M-82.6 -28.05 L-75.0 -19.5 -71.85 -15.7 Q-73.4 -16.55 -74.65 -17.55 -78.15 -19.95 -80.0 -23.1 -82.75 -27.5 -82.6 -28.05 M-37.45 -24.05 Q-25.55 -21.0 -11.45 -10.0 -34.2 -21.75 -41.45 -24.4 -48.7 -27.1 -51.2 -29.35 -46.25 -26.3 -37.45 -24.05 M-41.7 -45.75 L-29.25 -31.45 -24.1 -25.15 Q-26.75 -26.65 -28.9 -28.4 -34.55 -32.55 -37.6 -37.7 -41.95 -44.85 -41.7 -45.75 M-3.2 -39.85 Q-9.0 -43.5 -15.7 -47.25 L-20.95 -50.5 Q-18.45 -50.05 -16.4 -49.3 -11.1 -47.6 -7.85 -44.65 -3.1 -40.55 -3.2 -39.85" fill="#ffffff" fill-rule="evenodd" stroke="none"/>
  </g>
</svg>
