<?xml version="1.0" encoding="UTF-8" standalone="no"?>
<svg xmlns:xlink="http://www.w3.org/1999/xlink" height="86.0px" width="75.5px" xmlns="http://www.w3.org/2000/svg">
  <g transform="matrix(1.0, 0.0, 0.0, 1.0, 48.25, 57.9)">
    <path d="M10.95 -14.75 Q12.0 -8.45 11.75 -1.3 L11.75 -1.05 11.75 -1.0 Q8.75 21.7 -12.2 28.05 L-12.4 28.1 Q-0.05 11.5 -7.95 -9.45 -6.95 -6.3 -6.85 -2.4 L-6.85 -2.3 Q-13.35 -9.65 -26.25 -13.1 -49.15 -28.8 -48.2 -57.9 L-47.9 -57.9 Q-30.8 -58.2 -13.1 -54.2 -1.9 -52.6 6.5 -43.45 14.9 -34.3 18.5 -22.35 22.05 -10.4 27.25 -4.55 12.85 -5.1 10.95 -14.75" fill="#ffffff" fill-rule="evenodd" stroke="none"/>
  </g>
</svg>
