<?xml version="1.0" encoding="UTF-8" standalone="no"?>
<svg xmlns:xlink="http://www.w3.org/1999/xlink" height="121.0px" width="137.7px" xmlns="http://www.w3.org/2000/svg">
  <g transform="matrix(1.0, 0.0, 0.0, 1.0, 68.85, 60.5)">
    <path d="M6.75 -43.65 Q8.35 -34.55 10.1 -26.15 L14.45 -14.9 Q18.8 -4.2 24.1 6.85 32.2 23.8 33.8 35.7 36.35 23.0 36.3 10.05 L36.05 2.35 35.85 -0.75 Q34.35 -17.6 28.6 -34.85 M36.3 10.05 Q39.35 40.5 38.25 59.5 45.9 38.15 47.1 14.65 L47.25 10.6 47.3 8.35 47.05 -3.0 Q46.45 -14.8 44.35 -27.1 M47.1 14.65 L46.6 42.95 Q57.4 14.35 56.05 -13.0 55.35 -26.05 51.95 -38.8 L50.75 -42.95 M51.1 -59.5 Q70.45 -16.1 67.45 25.4 67.3 15.4 56.05 -13.0 M-4.15 -35.85 L-2.4 -30.25 Q11.85 3.85 22.85 21.65 15.8 1.55 10.1 -26.15 M-23.75 -52.0 L-24.35 -50.45 Q-18.4 -16.6 16.65 11.9 5.3 -6.15 -2.4 -30.25 M-50.05 -38.3 Q-57.35 -15.55 -55.75 5.9 L-55.7 6.9 Q-54.1 26.2 -45.3 44.45 -48.15 24.7 -42.6 -12.25 L-42.4 -17.35 Q-41.55 -30.75 -37.2 -43.9 M-55.7 6.9 Q-55.9 26.8 -53.95 37.6 -80.25 -6.75 -56.85 -49.85 M-24.35 -50.45 Q-37.0 -17.55 -40.95 7.75 -42.75 -2.35 -42.6 -12.25" fill="none" stroke="#000000" stroke-linecap="round" stroke-linejoin="round" stroke-width="2.0"/>
  </g>
</svg>
