<?xml version="1.0" encoding="UTF-8" standalone="no"?>
<svg xmlns:xlink="http://www.w3.org/1999/xlink" height="147.7px" width="64.5px" xmlns="http://www.w3.org/2000/svg">
  <g transform="matrix(1.0, 0.0, 0.0, 1.0, 11.05, 73.35)">
    <path d="M-5.05 -71.15 Q38.55 -47.45 53.45 7.45 49.1 -2.9 40.0 -13.8 65.95 24.4 39.25 66.8 40.7 54.6 38.3 30.3 37.7 39.2 35.4 47.6 31.5 61.7 22.6 74.35 25.8 62.45 24.5 42.75 L23.9 42.4 29.65 45.0 28.25 41.6 24.1 38.15 Q23.1 27.25 20.85 14.15 20.75 23.0 18.9 31.95 L10.7 21.0 Q10.2 15.2 9.2 9.35 0.25 -1.15 0.9 1.85 -13.1 -39.1 -10.7 -73.35 -8.6 -70.9 -5.05 -71.15 M11.05 33.45 L11.05 33.2 17.3 38.45 14.6 46.55 13.9 48.35 13.65 49.0 Q10.7 56.3 6.55 63.75 8.95 54.9 10.1 46.05 L10.5 42.55 11.05 33.7 11.05 33.45" fill="#ffffff" fill-rule="evenodd" stroke="none"/>
  </g>
</svg>
