<?xml version="1.0" encoding="UTF-8" standalone="no"?>
<svg xmlns:xlink="http://www.w3.org/1999/xlink" height="64.3px" width="80.9px" xmlns="http://www.w3.org/2000/svg">
  <g transform="matrix(1.0, 0.0, 0.0, 1.0, 40.45, 32.15)">
    <path d="M1.35 -23.65 L2.15 -21.85 Q7.05 -29.8 15.8 -32.15 26.45 -31.65 33.45 -18.15 L37.85 -8.35 Q40.65 1.1 40.45 10.1 L40.45 10.95 Q40.05 21.5 35.45 31.45 36.45 23.9 33.45 8.7 31.25 -1.85 27.75 -8.35 L22.8 -6.85 23.8 -10.0 13.45 -6.85 14.45 -11.0 3.9 -5.45 -10.55 -11.95 -8.8 -8.1 -21.15 -9.35 -18.2 -6.45 -27.2 -7.35 -30.0 -2.35 Q-36.15 9.85 -33.55 32.15 -40.85 22.5 -40.45 10.1 -40.2 2.35 -36.95 -6.45 L-32.55 -15.2 Q-25.3 -26.05 -15.45 -29.8 -7.05 -31.0 1.35 -23.65" fill="#72ffbd" fill-rule="evenodd" stroke="none"/>
  </g>
</svg>
