<?xml version="1.0" encoding="UTF-8" standalone="no"?>
<svg xmlns:xlink="http://www.w3.org/1999/xlink" height="13.8px" width="84.15px" xmlns="http://www.w3.org/2000/svg">
  <g transform="matrix(1.0, 0.0, 0.0, 1.0, 47.15, 33.0)">
    <path d="M31.75 -33.0 Q36.95 -30.2 37.0 -26.3 36.95 -24.95 36.35 -23.45 36.05 -22.7 35.15 -23.35 27.9 -28.6 31.75 -33.0 M14.85 -27.7 Q19.4 -24.65 17.3 -21.4 L15.45 -19.4 Q14.7 -18.8 14.15 -19.95 L13.55 -21.4 Q12.1 -25.55 14.85 -27.7 M-41.7 -28.35 Q-37.85 -24.35 -44.45 -20.35 -47.2 -18.75 -47.15 -20.75 L-46.95 -22.15 Q-45.9 -26.65 -41.7 -28.35 M-11.8 -28.45 Q-9.75 -26.4 -9.95 -24.2 -10.2 -22.4 -11.95 -20.5 -12.5 -19.95 -12.85 -19.95 -13.45 -19.95 -13.75 -21.0 -14.3 -22.7 -14.15 -24.2 -13.95 -26.7 -11.8 -28.45" fill="#ffffff" fill-rule="evenodd" stroke="none"/>
  </g>
</svg>
