<?xml version="1.0" encoding="UTF-8" standalone="no"?>
<svg xmlns:xlink="http://www.w3.org/1999/xlink" height="139.4px" width="147.45px" xmlns="http://www.w3.org/2000/svg">
  <g transform="matrix(1.0, 0.0, 0.0, 1.0, 73.75, 69.7)">
    <path d="M42.1 3.85 Q25.05 30.6 8.0 48.9 18.45 29.85 27.7 10.05 21.0 23.55 7.5 46.55 17.6 21.3 24.4 -2.5 -7.9 40.9 -16.25 69.1 -16.6 45.3 -9.2 22.7 -21.2 55.2 -23.2 69.7 -24.6 44.8 -20.35 21.85 -30.55 42.95 -34.15 62.3 -34.65 38.7 -27.55 16.0 -37.65 33.55 -45.0 51.1 -39.1 26.05 -28.2 5.05 -46.9 15.85 -61.65 27.75 -51.35 9.55 -29.8 -7.0 -51.5 -1.5 -73.75 -8.1 -38.45 -14.55 -11.05 -35.75 11.25 -59.4 32.1 -69.35 45.85 -71.3 52.05 -62.2 64.5 -60.1 70.75 -52.85 76.25 -41.95 71.55 -26.55 61.4 6.75 25.15 37.1 33.6 23.9 42.1 3.85" fill="url(#gradient0)" fill-rule="evenodd" stroke="none"/>
  </g>
  <defs>
    <linearGradient gradientTransform="matrix(-0.0371, 0.1001, -0.0744, -0.0276, -22.45, 40.7)" gradientUnits="userSpaceOnUse" id="gradient0" spreadMethod="pad" x1="-819.2" x2="819.2">
      <stop offset="0.0" stop-color="#fff23c" stop-opacity="0.0"/>
      <stop offset="0.3803921568627451" stop-color="#fff23c" stop-opacity="0.84705883"/>
      <stop offset="0.6039215686274509" stop-color="#fff23c" stop-opacity="0.8"/>
      <stop offset="1.0" stop-color="#fff23c" stop-opacity="0.0"/>
    </linearGradient>
  </defs>
</svg>
