<?xml version="1.0" encoding="UTF-8" standalone="no"?>
<svg xmlns:xlink="http://www.w3.org/1999/xlink" height="113.75px" width="136.8px" xmlns="http://www.w3.org/2000/svg">
  <g transform="matrix(1.0, 0.0, 0.0, 1.0, 68.4, 56.85)">
    <path d="M13.45 -8.25 L13.4 -5.55 13.4 -5.35 13.3 -2.8 Q12.9 5.25 12.0 11.9 10.55 22.35 7.75 29.25 17.15 26.15 18.55 18.1 L18.6 17.85 18.7 17.05 M23.7 -55.85 Q36.9 -53.2 49.15 -41.05 61.35 -28.95 67.4 -1.5 L60.7 -11.2 Q64.65 0.45 64.7 10.2 L57.8 -1.15 Q67.25 21.4 60.55 37.1 56.05 47.6 48.15 50.65 50.45 48.95 52.7 36.05 47.2 48.7 32.75 52.6 38.85 43.3 46.1 24.75 41.3 31.55 34.1 34.1 L41.5 21.9 Q34.55 29.2 22.4 32.25 28.1 26.95 33.8 15.85 26.9 28.0 10.8 35.1 16.95 29.3 18.55 18.1 M57.1 -20.25 L60.7 -11.2 M57.8 -1.15 L53.05 -8.95 M52.7 36.05 L53.75 33.4 Q55.8 27.3 56.1 19.5 M41.5 21.9 Q45.5 17.75 47.75 12.2 M46.1 24.75 Q47.95 22.15 49.4 18.95 M33.8 15.85 L36.15 10.8 M-30.95 -28.05 Q-30.55 -25.05 -29.5 -22.1 -26.15 -12.7 -15.95 -4.1 -17.85 -8.6 -19.15 -19.25 -15.45 -8.35 -3.6 -0.2 -5.95 -3.75 -6.3 -11.85 -3.15 -0.2 7.4 6.9 L3.4 -5.05 Q8.1 6.2 12.0 11.9 M-29.5 -22.1 Q-38.65 -0.3 -37.65 15.4 -42.2 8.9 -43.75 2.4 -42.2 28.3 -37.95 40.7 -42.85 37.6 -46.1 30.15 -42.95 46.35 -38.65 52.6 -47.3 47.6 -51.85 39.1 L-43.9 55.9 Q-58.4 46.55 -63.55 32.6 -67.7 18.35 -67.35 4.1 -66.65 -22.95 -47.65 -39.65 M-51.85 39.1 Q-55.05 33.25 -56.3 25.8 M-46.1 30.15 Q-48.5 24.75 -50.0 17.05 M-43.75 2.4 L-43.95 1.65 Q-45.85 -6.85 -42.65 -15.4" fill="none" stroke="#000000" stroke-linecap="round" stroke-linejoin="round" stroke-width="2.0"/>
  </g>
</svg>
