<?xml version="1.0" encoding="UTF-8" standalone="no"?>
<svg xmlns:xlink="http://www.w3.org/1999/xlink" height="66.4px" width="55.6px" xmlns="http://www.w3.org/2000/svg">
  <g transform="matrix(1.0, 0.0, 0.0, 1.0, 27.8, 33.2)">
    <path d="M22.25 -20.55 Q31.7 2.0 25.0 17.7 20.5 28.2 12.6 31.25 14.9 29.55 17.15 16.65 11.65 29.3 -2.8 33.2 3.3 23.9 10.55 5.35 5.75 12.15 -1.45 14.7 L5.95 2.5 Q-1.0 9.8 -13.15 12.85 -7.45 7.55 -1.75 -3.55 -8.65 8.6 -24.75 15.7 -18.6 9.9 -17.0 -1.3 -18.4 6.75 -27.8 9.85 -25.0 2.95 -23.55 -7.5 -22.65 -14.15 -22.25 -22.2 L-22.15 -24.75 -22.15 -24.95 -19.5 -2.85 Q-12.3 -14.95 -10.1 -33.2 -8.15 -13.6 -8.9 -10.6 -3.1 -10.2 6.25 -22.25 8.0 -8.45 3.45 -0.6 12.25 -9.35 15.4 -22.0 18.95 -9.15 17.15 -0.6 21.3 -11.75 18.1 -27.35 L22.25 -20.55" fill="#72ffbd" fill-rule="evenodd" stroke="none"/>
  </g>
</svg>
