<?xml version="1.0" encoding="UTF-8" standalone="no"?>
<svg xmlns:xlink="http://www.w3.org/1999/xlink" height="81.85px" width="126.2px" xmlns="http://www.w3.org/2000/svg">
  <g transform="matrix(1.0, 0.0, 0.0, 1.0, 49.8, 49.35)">
    <path d="M13.65 -22.3 Q5.2 -12.4 1.1 0.1 -3.0 12.65 -6.05 31.15 -4.9 3.3 1.05 -6.7 6.95 -16.7 13.65 -22.3 M30.05 -15.7 Q20.05 -7.6 14.0 3.85 8.0 15.35 2.35 32.5 7.25 6.0 14.9 -2.8 22.45 -11.5 30.05 -15.7 M49.05 -5.6 Q43.15 4.7 34.5 14.5 53.95 -20.75 62.75 -44.45 56.0 -17.95 49.05 -5.6 M44.5 -16.7 Q40.0 -6.05 33.35 5.7 47.75 -30.6 51.85 -49.35 49.35 -28.45 44.5 -16.7 M66.6 -13.95 Q60.35 -3.0 46.75 11.9 70.75 -28.0 76.4 -44.8 72.7 -24.85 66.6 -13.95 M-27.25 -26.0 Q-36.05 -23.9 -49.8 -23.95 -18.65 -30.0 -9.45 -34.05 -19.35 -27.85 -27.25 -26.0 M-21.4 11.0 Q-19.85 4.5 -18.0 0.7 -16.35 -2.6 -12.65 -5.95 -15.35 -2.5 -21.4 11.0 M-16.4 24.5 Q-15.3 13.95 -13.1 7.6 -11.2 1.9 -5.85 -4.4 -9.5 1.8 -16.4 24.5 M-27.8 -9.85 Q-23.3 -13.85 -15.5 -16.6 -21.8 -13.1 -39.1 3.1 -32.85 -5.45 -27.8 -9.85" fill="#ffffff" fill-rule="evenodd" stroke="none"/>
  </g>
</svg>
