<?xml version="1.0" encoding="UTF-8" standalone="no"?>
<svg xmlns:xlink="http://www.w3.org/1999/xlink" height="138.4px" width="165.65px" xmlns="http://www.w3.org/2000/svg">
  <g transform="matrix(1.0, 0.0, 0.0, 1.0, 82.85, 69.2)">
    <path d="M52.75 -67.15 Q68.35 -58.1 76.05 -41.9 89.05 -14.95 72.55 19.1 L74.25 -1.55 Q72.05 12.45 64.05 26.45 69.25 -4.55 57.05 -35.6 28.8 8.45 -8.2 35.4 L7.05 8.85 Q-13.75 31.0 -20.4 59.35 -22.15 40.6 -18.65 25.5 -27.3 56.7 -26.45 68.2 -32.75 53.65 -32.95 38.95 L-33.2 62.1 Q-44.05 44.95 -45.35 28.8 L-54.75 37.45 Q-50.8 30.4 -45.45 24.2 L-45.3 22.8 Q-59.05 33.15 -70.2 36.85 -66.3 35.4 -50.95 19.0 -67.5 30.2 -74.1 38.6 -65.15 16.65 -45.35 -1.7 -58.05 2.05 -75.15 3.6 -54.35 -3.7 -34.05 -18.9 -54.6 -4.75 -81.85 -8.95 -52.05 -12.75 -27.85 -37.0 -3.7 -61.3 22.05 -66.8 L29.75 -68.2 M39.7 -62.7 L35.05 -61.9 Q14.4 -57.35 -16.6 -33.55 -21.9 -28.65 -27.2 -24.3 L-27.45 -24.1 -34.05 -18.9 M62.8 -52.65 Q53.3 -30.8 3.95 -4.15 L1.65 -2.9 Q-25.9 12.05 -45.35 28.8 M74.25 -1.55 Q77.25 -20.3 69.9 -39.05 M62.65 -44.65 L57.05 -35.6 M7.05 8.85 L7.2 8.6 16.6 -8.1 M-45.35 -1.7 Q-38.25 -3.85 -32.5 -6.7 M-18.65 25.5 Q-17.15 18.9 -14.65 13.0 M-32.95 38.95 Q-33.05 29.45 -30.65 19.85 M-50.95 19.0 L-44.9 15.0 M-45.3 22.8 L-41.2 19.6 -40.9 19.35 Q-34.65 13.1 -26.8 7.8 M-45.45 24.2 L-41.2 19.6" fill="none" stroke="#000000" stroke-linecap="round" stroke-linejoin="round" stroke-width="2.0"/>
  </g>
</svg>
