<?xml version="1.0" encoding="UTF-8" standalone="no"?>
<svg xmlns:xlink="http://www.w3.org/1999/xlink" height="110.4px" width="90.7px" xmlns="http://www.w3.org/2000/svg">
  <g transform="matrix(1.0, 0.0, 0.0, 1.0, 65.15, 92.7)">
    <path d="M-38.55 -65.5 Q-24.6 -73.1 -18.15 -92.7 -15.4 -71.6 -26.25 -59.95 -13.05 -62.65 2.45 -74.3 -2.6 -60.75 -16.8 -56.15 1.2 -56.7 14.75 -39.1 1.85 -47.65 -11.95 -48.3 -6.55 -46.85 3.15 -34.35 7.15 -30.45 11.3 -28.1 18.2 -24.3 25.55 -24.9 5.15 -22.35 -8.55 -32.0 3.5 -2.7 -3.2 17.7 -1.9 6.3 -7.3 -7.1 -20.35 -49.25 -65.15 -51.2 -58.5 -65.6 -47.8 -68.1 -31.6 -71.85 -29.4 -82.55 -30.0 -71.2 -38.55 -65.5" fill="#ffffff" fill-rule="evenodd" stroke="none"/>
  </g>
</svg>
