<?xml version="1.0" encoding="UTF-8" standalone="no"?>
<svg xmlns:xlink="http://www.w3.org/1999/xlink" height="105.35px" width="166.4px" xmlns="http://www.w3.org/2000/svg">
  <g transform="matrix(1.0, 0.0, 0.0, 1.0, 83.2, 52.65)">
    <path d="M-6.55 -33.1 L-8.95 -29.9 Q-9.9 -11.15 2.8 9.7 -0.05 0.95 1.7 -18.45 L2.2 -23.55 2.8 -28.7 M1.7 -18.45 Q2.25 -0.95 13.9 19.1 10.3 7.65 11.4 -11.45 L11.45 -12.7 11.55 -14.15 11.8 -17.55 12.2 -21.65 M11.4 -11.45 Q11.1 -2.2 14.05 8.9 17.4 21.6 17.0 26.55 32.3 9.85 35.05 -14.0 35.95 -22.25 35.4 -31.4 M35.05 -14.0 L35.05 5.0 Q44.05 -6.45 44.95 -19.5 45.55 -28.1 42.65 -37.45 M59.45 -11.45 Q61.1 -4.95 61.65 1.45 66.0 15.75 65.0 25.8 76.15 11.25 67.35 -8.4 66.25 -10.3 65.3 -12.55 63.9 -15.95 62.7 -20.05 M36.8 -47.45 Q50.3 -54.3 59.45 -50.0 67.15 -44.25 72.1 -27.6 77.5 -4.85 82.2 2.75 73.1 2.0 67.35 -8.4 M44.95 -19.5 Q52.45 10.6 46.8 51.7 63.95 27.95 61.65 1.45 M-11.85 -45.8 L-16.2 -46.25 Q-28.4 -49.35 -34.2 -47.3 -45.85 -44.4 -60.15 -20.95 -68.0 -4.3 -82.2 5.25 -65.7 6.15 -56.3 -2.55 -54.15 -4.55 -52.35 -7.1 M-53.4 8.3 L-54.05 10.2 Q-60.6 37.85 -36.0 51.45 -43.3 34.95 -34.55 -2.3 -32.7 -10.15 -25.3 -23.95 M-56.3 -2.55 Q-66.75 17.8 -58.55 32.6 -59.1 25.15 -54.05 10.2 M-34.55 -2.3 Q-37.65 13.0 -32.2 23.55 -32.3 1.75 -8.95 -29.9" fill="none" stroke="#000000" stroke-linecap="round" stroke-linejoin="round" stroke-width="2.0"/>
  </g>
</svg>
