<?xml version="1.0" encoding="UTF-8" standalone="no"?>
<svg xmlns:xlink="http://www.w3.org/1999/xlink" height="116.75px" width="153.3px" xmlns="http://www.w3.org/2000/svg">
  <g transform="matrix(1.0, 0.0, 0.0, 1.0, 76.65, 58.35)">
    <path d="M50.8 7.4 Q60.7 18.35 60.6 30.0 L60.45 32.25 Q59.8 39.15 53.05 43.7 66.9 40.25 73.3 30.25 79.7 20.2 68.6 3.5 57.5 -13.2 52.4 -31.4 46.6 -52.35 30.8 -56.35 20.6 -57.25 12.9 -52.0 2.3 -58.3 -11.15 -57.15 -28.55 -52.6 -35.95 -31.6 -43.4 -10.6 -61.3 8.6 -79.2 27.75 -74.75 45.85 -69.4 32.5 -54.2 22.05 L-50.2 19.45 Q-44.8 16.1 -38.25 13.1 L-33.6 11.05 Q-12.35 4.85 -7.9 -16.3 -9.2 -24.05 -7.7 -32.75 L-7.25 -35.15 M14.75 -39.75 Q15.1 -17.45 12.4 -9.1 11.0 -4.85 9.05 -1.75 L8.6 -1.0 5.65 3.55 3.4 6.35 Q-6.1 18.95 -5.45 29.05 -5.1 33.4 -4.0 38.9 -2.95 32.4 -1.4 27.4 0.85 20.05 4.25 16.05 M11.1 24.7 L12.1 23.4 14.95 19.95 20.4 13.95 21.5 12.8 24.45 9.55 27.0 6.3 Q36.85 -3.0 37.65 -17.2 38.15 -26.9 34.5 -38.35 M54.8 20.85 Q57.45 31.4 53.65 37.85 L53.45 38.15 49.95 44.55 Q58.75 39.0 60.6 30.0 M12.1 23.4 Q12.15 33.0 9.8 38.25 L9.85 38.2 11.0 37.05 Q17.2 29.3 19.4 20.5 L19.5 19.9 19.7 19.1 20.4 13.95 M-1.4 27.4 Q-1.45 36.7 3.2 44.15 2.7 36.2 10.3 25.8 M19.4 20.5 L17.45 29.4 Q24.45 19.45 27.0 6.3 M37.65 -17.2 Q45.45 2.05 47.5 19.95 47.4 42.8 30.2 47.75 47.95 46.85 53.45 38.15 M-50.2 19.45 L-53.25 25.5 Q-61.75 47.25 -33.6 49.85 -47.3 38.95 -38.25 13.1 M-53.25 25.5 Q-60.4 41.45 -58.5 57.4 -70.55 38.65 -54.2 22.05 M3.4 6.35 Q-5.85 -3.8 -7.9 -16.3" fill="none" stroke="#000000" stroke-linecap="round" stroke-linejoin="round" stroke-width="2.0"/>
  </g>
</svg>
