<?xml version="1.0" encoding="UTF-8" standalone="no"?>
<svg xmlns:xlink="http://www.w3.org/1999/xlink" height="90.55px" width="58.95px" xmlns="http://www.w3.org/2000/svg">
  <g transform="matrix(1.0, 0.0, 0.0, 1.0, 17.9, 52.2)">
    <path d="M31.9 -24.4 Q40.35 -10.35 41.0 8.35 41.5 23.7 33.1 33.2 L29.05 36.95 Q33.1 24.9 25.85 -5.7 23.5 14.45 9.15 26.6 13.35 12.3 13.5 -5.3 12.35 21.2 -12.15 37.9 L-12.9 38.35 -12.1 37.4 Q-8.1 26.85 -7.55 15.9 -9.8 25.1 -16.25 29.8 -19.05 16.45 -17.1 -0.05 0.5 -16.15 2.5 -39.55 L-0.15 -48.7 Q4.85 -54.45 9.45 -50.75 L13.9 -46.7 Q21.25 -39.2 24.3 -29.15 L31.9 -24.4" fill="#ffffff" fill-rule="evenodd" stroke="none"/>
  </g>
</svg>
