<?xml version="1.0" encoding="UTF-8" standalone="no"?>
<svg xmlns:xlink="http://www.w3.org/1999/xlink" height="51.95px" width="176.45px" xmlns="http://www.w3.org/2000/svg">
  <g transform="matrix(1.0, 0.0, 0.0, 1.0, 102.25, 22.9)">
    <path d="M-0.25 16.1 L-4.55 19.65 -4.8 19.85 Q-9.55 22.25 -13.1 21.5 -23.0 19.4 -34.9 19.35 -46.0 19.35 -61.7 21.05 L-63.95 21.3 Q-87.15 23.95 -95.2 27.0 -103.25 30.05 -100.55 24.1 L-98.5 21.35 Q-85.6 16.7 -61.7 14.15 L-52.1 13.25 Q-24.15 10.95 -4.45 15.15 L-0.25 16.1 M46.75 -14.0 Q48.0 -14.85 49.6 -14.85 51.0 -14.85 52.2 -14.15 L53.65 -13.0 Q55.4 -11.1 55.55 -8.45 L55.35 -6.4 55.3 -6.2 Q54.95 -5.75 52.7 -4.7 49.85 -3.35 47.5 -6.0 L46.15 -7.7 Q47.0 -11.2 46.75 -14.0 M45.4 -5.0 L45.75 -4.5 Q48.1 -1.6 52.25 -2.7 L53.2 -3.0 52.2 -2.4 50.1 -2.0 Q47.75 -2.0 46.05 -3.85 L45.3 -4.8 45.4 -5.0" fill="#e9f7ff" fill-rule="evenodd" stroke="none"/>
    <path d="M55.3 -6.2 L55.15 -5.7 54.05 -3.85 53.95 -3.7 53.2 -3.0 52.25 -2.7 Q48.1 -1.6 45.75 -4.5 L45.4 -5.0 46.15 -7.7 47.5 -6.0 Q49.85 -3.35 52.7 -4.7 54.95 -5.75 55.3 -6.2" fill="#b0b7cb" fill-rule="evenodd" stroke="none"/>
    <path d="M59.45 -11.7 L59.85 -11.95 64.9 -12.15 Q67.35 -12.0 69.25 -10.4 71.4 -7.85 69.8 -5.35 L69.15 -1.35 69.1 -1.1 68.95 -0.45 Q64.0 -0.05 61.5 -2.25 L61.5 -2.3 Q61.7 -4.5 61.2 -6.75 L60.65 -9.3 Q60.3 -10.8 59.45 -11.7" fill="#eec9b3" fill-rule="evenodd" stroke="none"/>
    <path d="M58.9 -2.8 L58.7 -6.85 Q57.55 -10.25 59.45 -11.7 60.3 -10.8 60.65 -9.3 L61.2 -6.75 Q61.7 -4.5 61.5 -2.3 L61.5 -2.25 Q64.0 -0.05 68.95 -0.45 L68.85 0.95 63.95 1.15 Q59.35 0.55 58.95 -0.85 L58.9 -2.8" fill="#ad887a" fill-rule="evenodd" stroke="none"/>
    <path d="M-37.8 -19.15 L-33.25 -19.75 8.95 -21.9 14.5 -21.85 19.4 -21.55 30.2 -20.55 M41.55 -5.5 L35.7 -6.2 19.4 -7.75 18.1 -7.85 18.0 -7.35 17.9 -7.05 Q12.3 5.05 -0.25 16.1 L-4.55 19.65 -4.8 19.85 Q-9.55 22.25 -13.1 21.5 -23.0 19.4 -34.9 19.35 -46.0 19.35 -61.7 21.05 L-63.95 21.3 Q-87.15 23.95 -95.2 27.0 -103.25 30.05 -100.55 24.1 L-98.5 21.35 Q-92.25 13.5 -78.9 2.4 -77.6 -4.25 -74.65 -8.75 -69.4 -11.75 -61.7 -14.1 -56.0 -15.85 -48.95 -17.25 M-78.9 2.4 L-77.65 0.95 -77.45 1.0 Q-70.2 -1.55 -61.7 -3.4 -33.3 -9.65 8.95 -8.25 L12.75 -8.15 14.85 -8.05 14.9 -8.05 14.6 -8.1 14.9 -8.1 14.95 -8.15 14.95 -8.05 16.25 -8.0 18.1 -7.9 18.1 -7.85 M14.95 -8.15 L14.95 -8.1 14.95 -8.05 14.9 -8.05 14.9 -8.1 14.95 -8.1 M14.85 -8.05 L16.25 -8.0 M46.75 -14.0 Q48.0 -14.85 49.6 -14.85 51.0 -14.85 52.2 -14.15 L53.65 -13.0 Q55.4 -11.1 55.55 -8.45 L55.35 -6.4 M55.15 -5.7 L54.05 -3.85 53.95 -3.7 58.9 -2.8 58.7 -6.85 Q57.55 -10.25 59.45 -11.7 L59.85 -11.95 64.9 -12.15 Q67.35 -12.0 69.25 -10.4 71.4 -7.85 69.8 -5.35 L69.15 -1.35 69.1 -1.1 69.05 -0.8 72.0 -0.15 Q75.0 -6.2 70.5 -12.25 61.75 -15.05 52.2 -17.05 L45.45 -18.35 M45.3 -4.8 L46.05 -3.85 Q47.75 -2.0 50.1 -2.0 L52.2 -2.4 53.2 -3.0 53.95 -3.7 M58.9 -2.8 L58.95 -0.85 Q59.35 0.55 63.95 1.15 L68.85 0.95 68.95 -0.45 69.05 -0.8 M-98.5 21.35 Q-85.6 16.7 -61.7 14.15 L-52.1 13.25 Q-24.15 10.95 -4.45 15.15 L-0.25 16.1" fill="none" stroke="#000000" stroke-linecap="round" stroke-linejoin="round" stroke-width="2.0"/>
  </g>
</svg>
