<?xml version="1.0" encoding="UTF-8" standalone="no"?>
<svg xmlns:xlink="http://www.w3.org/1999/xlink" height="76.15px" width="144.05px" xmlns="http://www.w3.org/2000/svg">
  <g transform="matrix(1.0, 0.0, 0.0, 1.0, 72.05, 38.05)">
    <path d="M-16.8 9.3 Q-14.2 29.8 -36.4 38.1 -33.8 34.85 -33.8 22.8 -42.85 35.1 -57.15 34.9 -52.05 30.8 -48.95 20.5 -59.55 23.5 -72.05 16.35 -66.3 13.65 -62.3 9.65 -56.3 3.6 -54.25 -5.45 -42.55 -26.65 -4.5 -35.85 28.4 -40.7 39.3 -34.85 68.85 -11.75 70.45 18.95 L70.65 19.55 Q72.35 24.5 71.9 24.65 L71.85 24.65 Q27.1 15.35 10.3 4.4 17.8 13.15 26.8 20.5 -3.1 18.9 -16.8 9.3" fill="url(#gradient0)" fill-rule="evenodd" stroke="none"/>
  </g>
  <defs>
    <linearGradient gradientTransform="matrix(0.0, 0.0981, -0.0879, 0.0, 0.0, 63.8)" gradientUnits="userSpaceOnUse" id="gradient0" spreadMethod="pad" x1="-819.2" x2="819.2">
      <stop offset="0.0" stop-color="#fff23c" stop-opacity="0.0"/>
      <stop offset="0.3803921568627451" stop-color="#fff23c" stop-opacity="0.84705883"/>
      <stop offset="0.6039215686274509" stop-color="#fff23c" stop-opacity="0.8"/>
      <stop offset="1.0" stop-color="#fff23c" stop-opacity="0.0"/>
    </linearGradient>
  </defs>
</svg>
