<?xml version="1.0" encoding="UTF-8" standalone="no"?>
<svg xmlns:xlink="http://www.w3.org/1999/xlink" height="74.95px" width="146.05px" xmlns="http://www.w3.org/2000/svg">
  <g transform="matrix(1.0, 0.0, 0.0, 1.0, 73.05, 37.45)">
    <path d="M2.45 -7.35 Q6.15 -2.05 10.3 2.8 27.1 13.75 71.85 23.05 L71.9 23.05 Q72.35 22.9 70.65 17.95 L70.45 17.35 Q69.4 14.35 68.0 11.5 56.45 -12.4 22.8 -28.8 M-22.6 3.45 L-16.8 7.7 Q-3.1 17.3 26.8 18.9 17.8 11.55 10.3 2.8 M70.45 17.35 Q68.85 -13.35 39.3 -36.45 M-16.8 7.7 Q-14.2 28.2 -36.4 36.5 -33.8 33.25 -33.8 21.2 -42.85 33.5 -57.15 33.3 -52.05 29.2 -48.95 18.9 -59.55 21.9 -72.05 14.75 -66.3 12.05 -62.3 8.05 -56.3 2.0 -54.25 -7.05" fill="none" stroke="#000000" stroke-linecap="round" stroke-linejoin="round" stroke-width="2.0"/>
  </g>
</svg>
