<?xml version="1.0" encoding="UTF-8" standalone="no"?>
<svg xmlns:xlink="http://www.w3.org/1999/xlink" height="33.15px" width="115.4px" xmlns="http://www.w3.org/2000/svg">
  <g transform="matrix(1.0, 0.0, 0.0, 1.0, 57.7, 16.55)">
    <path d="M3.5 -4.95 L2.3 -3.65 Q-5.75 10.55 -3.6 10.65 12.0 7.7 22.15 -6.45 L25.1 -11.0 M22.15 -6.45 Q15.15 7.95 15.0 9.0 30.85 6.0 37.5 -5.6 L38.9 -8.45 M37.5 -5.6 Q29.7 9.4 31.3 9.3 35.65 8.3 39.15 6.55 L39.35 6.45 Q47.85 2.0 51.0 -7.15 M39.35 6.45 Q46.7 10.75 53.9 3.35 60.45 -3.5 51.75 -15.55 M2.3 -3.65 Q-16.15 15.7 -56.7 15.6" fill="none" stroke="#000000" stroke-linecap="round" stroke-linejoin="round" stroke-width="2.0"/>
  </g>
</svg>
