<?xml version="1.0" encoding="UTF-8" standalone="no"?>
<svg xmlns:xlink="http://www.w3.org/1999/xlink" height="131.35px" width="138.25px" xmlns="http://www.w3.org/2000/svg">
  <g transform="matrix(1.0, 0.0, 0.0, 1.0, 69.1, 65.65)">
    <path d="M27.0 -2.25 L29.25 -1.95 Q33.8 -1.4 37.75 -0.2 50.4 3.55 56.3 13.2 62.9 25.75 57.55 38.85 L60.3 36.4 Q67.6 29.1 68.15 18.3 68.1 14.45 67.55 10.8 59.75 -8.8 31.9 -11.6 10.7 -15.35 -5.75 -42.35 5.05 -7.4 27.0 -2.25 -10.45 0.1 -27.6 -26.45 -23.4 -4.95 -35.65 8.75 -34.5 4.65 -34.8 -2.8 -37.25 8.15 -43.4 16.25 L-44.0 17.05 Q-51.8 26.15 -58.45 20.75 -62.35 18.4 -65.6 14.25 -70.25 8.25 -66.2 -9.8 M-36.9 -50.3 Q-31.5 -56.9 -26.05 -60.5 -18.85 -65.25 -11.65 -64.55 -5.6 -63.5 1.05 -60.35 26.4 -57.9 34.55 -48.65 44.15 -37.4 54.3 -15.5 65.3 -4.1 67.55 10.8 M1.05 -60.35 Q18.45 -52.0 39.85 -28.7 L54.3 -15.5 M60.3 36.4 Q57.85 54.2 35.75 63.45 L32.5 64.7 33.95 63.45 Q56.5 42.65 44.15 12.35 43.85 21.4 30.9 23.2 41.85 11.4 29.25 -1.95 M37.75 -0.2 Q41.65 6.25 44.15 12.35 M-31.5 -33.4 Q-29.75 -29.75 -27.6 -26.45 M-33.85 -38.7 L-31.5 -33.4" fill="none" stroke="#000000" stroke-linecap="round" stroke-linejoin="round" stroke-width="2.0"/>
    <path d="M-26.05 -60.5 Q-1.6 -66.0 16.25 -36.25 22.45 -25.2 33.55 -16.9 M-6.35 -15.3 Q-18.95 -20.9 -31.5 -33.4 M-34.8 -2.8 Q-33.35 -9.4 -33.25 -17.1 M-43.8 -16.7 Q-42.85 8.95 -58.45 20.75" fill="none" stroke="#000000" stroke-linecap="round" stroke-linejoin="round" stroke-opacity="0.54901963" stroke-width="1.5"/>
  </g>
</svg>
