<?xml version="1.0" encoding="UTF-8" standalone="no"?>
<svg xmlns:xlink="http://www.w3.org/1999/xlink" height="123.75px" width="96.25px" xmlns="http://www.w3.org/2000/svg">
  <g transform="matrix(1.0, 0.0, 0.0, 1.0, 48.1, 61.9)">
    <path d="M0.15 12.15 Q9.9 21.7 20.05 27.35 33.3 34.7 47.15 35.4 21.8 22.45 11.1 -4.1 24.2 9.45 42.85 8.5 25.55 1.6 13.35 -11.85 37.8 -30.45 38.6 -55.0 27.5 -37.45 10.2 -26.8 3.65 -22.8 -3.75 -19.8 1.1 -26.65 4.75 -33.5 12.2 -47.35 14.6 -60.9 L13.15 -58.95 Q3.25 -46.1 -8.15 -36.9 -22.25 -25.5 -38.75 -19.6 M4.75 -33.5 Q15.05 -41.95 20.9 -51.75 20.15 -38.65 10.2 -26.8 M20.05 27.35 Q28.5 40.2 24.95 60.85 15.3 32.65 -7.65 22.45 -2.45 34.05 3.8 45.6 -10.85 36.2 -21.75 20.7 -18.75 34.1 -12.5 48.85 -25.55 34.3 -29.75 17.05 L-25.3 42.35 Q-45.3 22.75 -47.1 -9.9 M-7.65 22.45 Q-11.35 14.25 -14.55 6.05 M-29.75 17.05 L-29.85 16.55 Q-32.05 7.05 -31.65 -3.3 M-24.1 17.25 L-21.75 20.7" fill="none" stroke="#000000" stroke-linecap="round" stroke-linejoin="round" stroke-width="2.0"/>
  </g>
</svg>
