<?xml version="1.0" encoding="UTF-8" standalone="no"?>
<svg xmlns:xlink="http://www.w3.org/1999/xlink" height="61.85px" width="123.55px" xmlns="http://www.w3.org/2000/svg">
  <g transform="matrix(1.0, 0.0, 0.0, 1.0, 61.75, 30.9)">
    <path d="M37.8 -23.2 L38.35 -22.45 Q54.25 -25.45 60.15 -11.0 65.95 3.45 51.55 15.7 57.5 10.05 57.3 -2.85 53.2 18.6 35.8 23.65 42.3 18.15 45.05 11.35 40.55 14.35 34.75 16.35 44.7 5.4 41.2 -8.85 L40.85 -6.1 Q35.7 15.65 20.8 22.35 13.15 25.2 7.35 25.25 -3.9 27.3 -17.65 26.6 -12.55 24.75 -8.75 22.75 -2.65 19.4 0.85 15.15 -16.45 25.8 -39.2 24.65 -41.7 28.8 -48.0 30.95 L-43.55 24.45 -46.5 24.25 -41.6 21.95 -40.65 19.35 Q-50.3 23.3 -60.35 22.85 L-54.05 17.55 -56.8 17.15 -51.9 14.1 Q-49.4 8.05 -43.7 2.75 -52.95 3.75 -61.75 0.35 -49.8 -3.75 -40.15 -10.6 L-39.4 -10.8 -39.3 -11.25 Q-35.45 -14.1 -31.95 -17.35 -19.45 -29.1 -5.75 -28.9 -3.15 -30.1 -0.4 -30.9 L24.4 -30.8 Q33.55 -28.6 37.8 -23.2" fill="url(#gradient0)" fill-rule="evenodd" stroke="none"/>
  </g>
  <defs>
    <linearGradient gradientTransform="matrix(0.0, 0.1146, -0.0754, 0.0, 0.05, 74.15)" gradientUnits="userSpaceOnUse" id="gradient0" spreadMethod="pad" x1="-819.2" x2="819.2">
      <stop offset="0.0" stop-color="#fff23c" stop-opacity="0.0"/>
      <stop offset="0.3803921568627451" stop-color="#fff23c" stop-opacity="0.84705883"/>
      <stop offset="0.6039215686274509" stop-color="#fff23c" stop-opacity="0.8"/>
      <stop offset="1.0" stop-color="#fff23c" stop-opacity="0.0"/>
    </linearGradient>
  </defs>
</svg>
