<?xml version="1.0" encoding="UTF-8" standalone="no"?>
<svg xmlns:xlink="http://www.w3.org/1999/xlink" height="13.85px" width="45.25px" xmlns="http://www.w3.org/2000/svg">
  <g transform="matrix(1.0, 0.0, 0.0, 1.0, 22.6, 6.95)">
    <path d="M22.65 5.1 L18.8 6.9 14.05 4.4 12.7 5.9 9.25 3.05 Q8.55 4.25 8.0 5.7 L4.7 1.95 3.35 4.7 0.2 0.5 Q3.4 -1.95 4.35 -6.95 7.4 -6.2 10.05 -5.1 13.4 -3.7 16.1 -1.8 18.6 0.0 20.55 2.25 L22.65 5.1 M-14.05 1.75 L-15.4 5.7 -18.65 4.7 -20.05 6.7 -22.6 5.45 -21.45 3.15 -19.4 -0.15 -17.65 -2.65 Q-16.15 0.3 -14.05 1.75" fill="#d9865e" fill-rule="evenodd" stroke="none"/>
  </g>
</svg>
