<?xml version="1.0" encoding="UTF-8" standalone="no"?>
<svg xmlns:xlink="http://www.w3.org/1999/xlink" height="109.6px" width="65.95px" xmlns="http://www.w3.org/2000/svg">
  <g transform="matrix(1.0, 0.0, 0.0, 1.0, 32.95, 54.8)">
    <path d="M21.95 -23.0 L26.75 -16.3 Q36.2 6.75 31.4 27.95 32.05 20.55 29.1 13.25 L29.1 13.15 Q30.55 -5.0 21.95 -23.0 M-25.85 -52.6 Q-20.95 -56.05 -13.85 -54.1 L-13.4 -54.05 Q-7.5 -52.3 -0.15 -46.9 9.85 -38.6 19.05 -26.9 22.95 -12.8 23.35 3.1 23.8 22.4 12.5 41.5 12.4 25.95 9.7 16.3 12.85 -9.15 4.05 -29.5 -6.5 -52.65 -20.85 -52.75 -14.4 -51.25 -7.7 -41.45 7.4 -18.55 2.75 15.4 0.25 33.55 -7.9 54.8 -5.75 3.6 -14.7 -21.9 L-14.85 -23.05 Q-15.5 -31.85 -17.95 -39.6 -22.2 -50.1 -32.95 -48.15 -29.45 -51.6 -25.85 -52.6" fill="#42f0ce" fill-rule="evenodd" stroke="none"/>
  </g>
</svg>
