<?xml version="1.0" encoding="UTF-8" standalone="no"?>
<svg xmlns:xlink="http://www.w3.org/1999/xlink" height="133.85px" width="139.85px" xmlns="http://www.w3.org/2000/svg">
  <g transform="matrix(1.0, 0.0, 0.0, 1.0, 69.9, 66.9)">
    <path d="M18.55 -52.3 Q25.9 -52.55 32.2 -48.1 42.75 -39.55 53.3 -40.7 52.35 -33.9 42.1 -35.3 L48.35 -29.7 Q63.1 -14.85 69.95 8.4 L62.2 -4.15 Q71.65 18.9 66.85 40.1 67.5 32.7 64.55 25.4 63.4 38.75 56.85 52.25 61.6 30.5 58.8 15.25 59.25 34.55 47.95 53.65 47.85 38.1 45.15 28.45 43.45 42.6 37.95 58.45 L38.2 27.55 Q35.7 45.7 27.55 66.95 29.7 15.75 20.75 -9.75 21.75 8.25 15.35 30.75 17.75 -16.5 8.95 -26.55 2.35 -22.75 -1.35 -18.2 L-5.35 -13.05 -4.05 -10.15 -15.3 -14.25 Q-11.7 -11.35 -10.0 -7.4 L-17.55 -11.75 -14.45 -5.8 -22.65 -11.5 -21.35 -6.25 -28.2 -11.05 -26.25 -6.5 -28.4 -7.55 -36.65 -5.6 -32.7 -2.15 -40.45 -0.3 -38.2 2.7 -47.7 2.25 -43.1 7.25 -51.85 6.25 Q-48.8 8.75 -47.1 13.95 L-51.85 12.95 -47.75 18.95 Q-52.15 20.65 -56.6 18.85 -53.25 21.5 -49.1 22.6 -53.6 25.05 -54.45 27.45 L-52.65 31.6 -56.6 31.35 Q-54.0 37.15 -56.6 40.4 -73.0 25.3 -69.15 3.9 -68.55 0.45 -67.4 -3.15 -69.55 -10.05 -67.75 -18.45 -67.3 -13.25 -65.7 -9.0 L-62.8 -16.1 Q-62.45 -21.35 -59.25 -25.2 -58.7 -28.2 -56.95 -30.8 -58.7 -34.15 -59.1 -37.5 L-54.1 -32.7 Q-52.6 -36.05 -49.55 -35.45 -49.55 -39.75 -44.3 -40.7 -45.65 -43.25 -46.65 -46.0 -44.2 -41.95 -36.65 -38.0 L-39.8 -43.45 -38.65 -43.25 Q-42.2 -52.85 -33.3 -53.1 -37.2 -50.9 -35.3 -44.65 -31.45 -52.35 -22.9 -54.75 -11.95 -58.2 -7.6 -66.9 -6.55 -59.0 -13.8 -53.45 -6.4 -56.65 1.1 -56.8 16.3 -55.55 29.5 -61.4 27.55 -56.45 18.55 -52.3" fill="#4e4560" fill-rule="evenodd" stroke="none"/>
  </g>
</svg>
