<?xml version="1.0" encoding="UTF-8" standalone="no"?>
<svg xmlns:xlink="http://www.w3.org/1999/xlink" height="109.1px" width="150.25px" xmlns="http://www.w3.org/2000/svg">
  <g transform="matrix(1.0, 0.0, 0.0, 1.0, 75.1, 54.55)">
    <path d="M27.15 -17.3 L33.1 -7.75 Q42.7 9.4 41.6 30.25 46.8 23.1 47.6 18.45 49.45 7.5 43.9 -8.05 M7.1 -53.55 L20.65 -49.25 Q27.35 -46.65 32.95 -43.6 50.95 -32.25 58.0 -15.5 63.9 1.2 74.15 15.2 65.7 13.3 58.8 5.25 60.2 20.15 56.55 31.25 54.4 37.9 50.4 43.2 50.85 27.55 47.6 18.45 M33.1 -7.75 L33.05 7.7 Q22.9 -17.3 10.85 -28.55 -9.05 -28.4 -28.1 -21.3 -40.4 -16.25 -47.85 -9.3 -50.05 9.95 -38.35 22.95 -44.0 22.25 -48.25 18.0 L-47.35 35.7 -55.4 24.4 Q-55.65 35.8 -53.1 48.2 -57.05 43.55 -60.05 37.8 -59.7 47.25 -64.3 53.55 -67.1 38.35 -74.1 21.45 M58.8 5.25 L57.65 -3.05 M-47.85 -9.3 Q-45.55 -23.3 -28.1 -21.3 -22.1 -39.6 -6.35 -37.55 2.7 -36.15 10.85 -28.55 M-67.1 18.45 Q-64.55 29.3 -60.05 37.8 M-58.35 20.2 L-55.4 24.4 M-51.6 13.7 Q-50.05 16.15 -48.25 18.0" fill="none" stroke="#000000" stroke-linecap="round" stroke-linejoin="round" stroke-width="2.0"/>
  </g>
</svg>
