<?xml version="1.0" encoding="UTF-8" standalone="no"?>
<svg xmlns:xlink="http://www.w3.org/1999/xlink" height="89.4px" width="135.1px" xmlns="http://www.w3.org/2000/svg">
  <g transform="matrix(1.0, 0.0, 0.0, 1.0, 67.55, 44.7)">
    <path d="M14.3 -5.25 Q12.95 0.0 10.6 4.75 L10.45 5.05 5.3 17.55 Q26.1 3.15 26.8 -18.7 26.9 -23.6 26.05 -28.85 M26.8 -18.7 Q29.8 -4.25 45.1 10.2 43.0 3.5 42.15 -5.15 L42.0 -6.8 41.95 -7.4 41.65 -12.0 M54.45 -15.4 Q57.5 2.2 64.2 11.85 58.9 11.55 53.8 8.7 53.95 29.25 43.65 34.75 62.65 28.6 66.2 11.9 68.8 -5.25 52.7 -30.2 47.75 -37.6 39.85 -43.7 M42.15 -5.15 Q43.25 2.8 53.8 8.7 M-54.6 13.55 Q-54.2 22.35 -50.3 30.4 L-50.05 31.0 -49.8 31.8 Q-46.85 39.5 -35.75 43.7 -43.4 30.35 -44.75 9.0 L-48.0 10.2 Q-36.45 -4.2 -32.45 -27.85 M-55.95 -24.85 Q-69.0 -8.2 -65.95 17.95 -62.55 37.5 -43.85 43.55 -46.7 40.45 -49.8 31.8 M-44.75 9.0 Q-17.45 -2.95 -4.4 -25.8 -7.0 9.75 -15.05 30.35 2.8 20.15 10.45 5.05" fill="none" stroke="#000000" stroke-linecap="round" stroke-linejoin="round" stroke-width="2.0"/>
  </g>
</svg>
