<?xml version="1.0" encoding="UTF-8" standalone="no"?>
<svg xmlns:xlink="http://www.w3.org/1999/xlink" height="20.2px" width="105.8px" xmlns="http://www.w3.org/2000/svg">
  <g transform="matrix(1.0, 0.0, 0.0, 1.0, 53.6, 60.55)">
    <path d="M21.1 -52.05 Q28.85 -46.85 21.85 -41.4 20.9 -40.65 20.2 -42.1 17.0 -48.75 21.1 -52.05 M46.85 -55.85 Q54.05 -52.05 51.55 -46.3 51.25 -45.55 50.3 -46.2 43.0 -51.45 46.85 -55.85 M-48.1 -60.55 Q-44.2 -56.55 -50.9 -52.55 -54.35 -50.5 -53.4 -54.35 -52.35 -58.85 -48.1 -60.55 M-12.15 -53.3 Q-6.35 -47.45 -12.4 -41.15 -14.35 -39.2 -15.2 -41.9 -17.45 -49.0 -12.15 -53.3" fill="#ffffff" fill-rule="evenodd" stroke="none"/>
  </g>
</svg>
