<?xml version="1.0" encoding="UTF-8" standalone="no"?>
<svg xmlns:xlink="http://www.w3.org/1999/xlink" height="155.1px" width="158.25px" xmlns="http://www.w3.org/2000/svg">
  <g transform="matrix(1.0, 0.0, 0.0, 1.0, 79.1, 77.55)">
    <path d="M13.55 -73.9 L14.05 -74.0 Q26.15 -79.5 42.55 -70.8 56.1 -63.6 65.5 -48.75 L78.15 -34.8 Q67.25 -35.8 64.05 -41.9 71.25 -24.35 57.6 -12.25 59.55 -17.85 58.0 -26.2 58.9 -20.4 56.05 -16.55 55.25 1.85 58.6 20.8 L58.6 20.85 Q62.55 45.7 54.7 53.95 L46.65 62.45 Q43.75 66.65 45.15 72.0 36.7 61.25 36.2 55.2 35.7 49.1 39.05 41.85 42.35 32.6 42.25 24.45 53.9 13.85 50.75 2.3 49.85 -5.4 51.1 -12.65 49.6 -11.95 47.85 -11.4 52.55 -24.2 47.55 -37.0 33.35 -40.75 29.25 -48.6 L29.15 -48.45 Q17.0 -28.25 -24.05 -27.4 -22.0 -28.6 -19.5 -30.65 L-15.3 -34.4 Q-29.05 -26.4 -40.7 -25.05 -34.3 -30.75 -28.9 -44.75 -38.4 -30.1 -50.75 -21.75 -51.7 -8.15 -40.7 14.9 -29.75 37.9 -45.65 61.15 L-45.85 61.5 -46.3 62.3 Q-50.1 69.95 -45.45 76.55 -67.35 66.7 -61.3 51.05 -64.25 55.85 -71.15 59.0 -61.0 44.25 -65.0 23.9 -71.4 11.85 -72.3 -5.5 L-72.45 -5.5 -73.2 -9.35 -77.0 -8.85 -78.1 -14.7 -74.3 -15.2 -75.0 -19.05 -72.25 -19.45 Q-71.7 -29.15 -69.75 -40.15 -62.15 -59.55 -49.9 -67.95 -31.55 -80.85 -14.2 -74.35 M58.0 -26.2 L57.9 -26.6 57.6 -27.95 M41.1 -48.45 Q45.3 -42.7 47.55 -37.0 M56.05 -16.55 Q55.05 -15.2 53.55 -14.1 L51.1 -12.65 M29.25 -48.6 Q32.3 -54.1 27.05 -61.65 M46.65 62.45 Q52.1 54.45 52.4 45.45 M-67.8 -18.15 L-67.45 -16.2 -63.6 -16.7 -63.3 -15.2 Q-56.75 -16.7 -51.25 -14.45 L-51.65 -15.9 Q-56.05 -19.15 -67.8 -18.15 L-68.15 -20.05 -72.25 -19.45 M-62.65 -11.6 L-62.5 -10.85 -66.35 -10.35 -65.95 -8.45 Q-54.55 -9.15 -50.45 -12.0 L-51.1 -13.4 Q-57.9 -11.25 -62.65 -11.6 L-63.3 -15.2 M-65.95 -8.45 L-65.6 -6.5 -72.3 -5.5 M-49.0 -37.65 Q-50.55 -32.1 -50.75 -21.75 M-15.3 -34.4 L-10.8 -38.2 M-65.0 23.9 L-63.4 26.65 M-61.3 51.05 Q-60.45 49.6 -59.95 48.05 -59.45 46.45 -59.3 44.75 M-45.65 61.15 L-45.75 61.25 -45.85 61.5 M-45.65 61.15 Q-35.5 40.65 -44.25 23.3" fill="none" stroke="#000000" stroke-linecap="round" stroke-linejoin="round" stroke-width="2.0"/>
  </g>
</svg>
