<?xml version="1.0" encoding="UTF-8" standalone="no"?>
<svg xmlns:xlink="http://www.w3.org/1999/xlink" height="65.15px" width="131.45px" xmlns="http://www.w3.org/2000/svg">
  <g transform="matrix(1.0, 0.0, 0.0, 1.0, 69.2, 35.55)">
    <path d="M23.7 -6.7 Q22.55 -0.05 19.0 8.35 23.2 -14.6 22.9 -24.2 24.8 -13.35 23.7 -6.7 M37.0 -32.95 Q53.65 -21.7 58.5 -11.35 63.3 -1.05 61.95 12.05 60.5 -4.95 52.6 -14.85 44.7 -24.75 36.8 -32.25 36.4 -32.75 37.0 -32.95 M-66.2 -1.1 Q-66.05 11.85 -62.7 29.6 -71.1 4.0 -68.65 -7.35 -66.2 -18.65 -61.5 -25.95 -66.45 -14.1 -66.2 -1.1 M-17.7 -9.8 Q-18.1 -8.85 -27.05 -3.35 -36.05 2.2 -48.9 4.4 L-39.55 -0.05 Q-28.05 -5.0 -17.7 -9.8 M3.3 -1.65 Q3.1 0.4 -8.65 21.6 2.4 -7.35 -0.75 -35.55 4.5 -16.85 3.3 -1.65" fill="#ffffff" fill-rule="evenodd" stroke="none"/>
  </g>
</svg>
