<?xml version="1.0" encoding="UTF-8" standalone="no"?>
<svg xmlns:xlink="http://www.w3.org/1999/xlink" height="13.05px" width="110.2px" xmlns="http://www.w3.org/2000/svg">
  <g transform="matrix(1.0, 0.0, 0.0, 1.0, 62.55, 29.7)">
    <path d="M16.7 -28.2 Q24.75 -22.8 17.5 -17.15 16.5 -16.35 15.75 -17.9 12.45 -24.8 16.7 -28.2 M42.3 -29.7 Q49.5 -25.9 47.0 -20.15 46.7 -19.4 45.75 -20.05 38.45 -25.3 42.3 -29.7 M-57.05 -29.6 Q-53.15 -25.6 -59.85 -21.6 -63.3 -19.55 -62.35 -23.4 -61.3 -27.9 -57.05 -29.6 M-25.4 -29.15 Q-19.8 -23.5 -25.6 -17.45 -27.5 -15.6 -28.3 -18.15 -30.45 -25.0 -25.4 -29.15" fill="#ffffff" fill-rule="evenodd" stroke="none"/>
  </g>
</svg>
