<?xml version="1.0" encoding="UTF-8" standalone="no"?>
<svg xmlns:xlink="http://www.w3.org/1999/xlink" height="107.45px" width="151.85px" xmlns="http://www.w3.org/2000/svg">
  <g transform="matrix(1.0, 0.0, 0.0, 1.0, 75.9, 53.7)">
    <path d="M59.2 -3.8 Q61.15 -0.1 61.7 4.6 62.55 18.05 49.05 20.15 52.95 17.3 52.65 12.25 37.85 7.35 34.3 -5.25 28.95 15.85 12.55 24.0 15.65 21.2 18.55 10.85 14.6 19.25 9.65 19.6 3.2 20.55 -5.6 10.25 9.25 10.85 4.45 -7.5 -6.1 11.35 -29.1 10.8 L-38.55 9.9 Q-41.65 24.6 -33.6 29.05 -43.0 28.75 -45.3 18.9 -43.65 34.05 -30.9 36.3 -39.3 44.8 -49.2 37.45 -45.3 52.2 -29.4 45.55 -34.35 52.25 -40.0 53.2 L-45.3 53.4 Q-54.65 55.05 -61.05 48.9 -67.65 42.05 -63.75 34.35 -70.45 35.75 -75.9 32.95 -66.7 31.05 -65.1 23.7 -63.4 16.4 -63.4 14.4 -67.25 18.35 -73.05 20.15 -68.2 17.2 -68.9 12.95 -74.0 -10.8 -55.6 -30.8 -54.35 -31.0 -54.05 -30.15 -39.85 -59.3 12.9 -52.35 38.55 -47.0 51.35 -25.4 L55.35 -18.75 Q64.65 -4.75 75.95 -8.25 67.95 1.25 59.2 -3.8" fill="url(#gradient0)" fill-rule="evenodd" stroke="none"/>
  </g>
  <defs>
    <linearGradient gradientTransform="matrix(0.0, 0.1126, -0.0927, 0.0, 0.05, 54.75)" gradientUnits="userSpaceOnUse" id="gradient0" spreadMethod="pad" x1="-819.2" x2="819.2">
      <stop offset="0.0" stop-color="#fff23c" stop-opacity="0.0"/>
      <stop offset="0.3803921568627451" stop-color="#fff23c" stop-opacity="0.84705883"/>
      <stop offset="0.6039215686274509" stop-color="#fff23c" stop-opacity="0.8"/>
      <stop offset="1.0" stop-color="#fff23c" stop-opacity="0.0"/>
    </linearGradient>
  </defs>
</svg>
