<?xml version="1.0" encoding="UTF-8" standalone="no"?>
<svg xmlns:xlink="http://www.w3.org/1999/xlink" height="76.55px" width="81.55px" xmlns="http://www.w3.org/2000/svg">
  <g transform="matrix(1.0, 0.0, 0.0, 1.0, 40.75, 38.25)">
    <path d="M-38.95 24.55 Q-29.75 30.05 -23.95 17.45 -15.8 -10.85 -23.95 -38.25 L-22.25 -38.05 Q3.4 -32.7 16.2 -11.1 L20.2 -4.45 Q29.5 9.55 40.8 6.05 32.8 15.55 24.05 10.5 26.0 14.2 26.55 18.9 27.4 32.35 13.9 34.45 17.8 31.6 17.5 26.55 2.7 21.65 -0.85 9.05 -6.2 30.15 -22.6 38.3 -19.5 35.5 -16.6 25.15 -20.55 33.55 -25.5 33.9 -31.95 34.85 -40.75 24.55 L-38.95 24.55" fill="#79f3ff" fill-rule="evenodd" stroke="none"/>
  </g>
</svg>
