<?xml version="1.0" encoding="UTF-8" standalone="no"?>
<svg xmlns:xlink="http://www.w3.org/1999/xlink" height="135.95px" width="124.8px" xmlns="http://www.w3.org/2000/svg">
  <g transform="matrix(1.0, 0.0, 0.0, 1.0, 1.0, 1.0)">
    <path d="M102.6 50.05 Q99.55 48.95 98.75 46.2 97.65 42.7 100.1 40.0 96.5 42.05 95.9 45.2 95.5 47.45 96.5 50.25 L102.6 50.05 102.65 50.05 Q103.6 49.6 104.0 48.95 106.8 43.55 95.25 31.15 M107.55 18.5 Q110.9 22.85 113.3 25.05 123.7 34.35 122.7 44.4 121.0 56.2 105.25 59.2 L105.65 48.6 104.0 48.95 M87.25 8.4 Q94.4 17.55 106.7 27.15 116.25 34.75 112.45 43.0 110.05 47.35 105.65 48.6 M106.3 133.95 Q108.05 133.5 109.5 132.65 110.75 126.65 106.45 124.9 103.4 126.7 99.6 128.05 94.45 129.3 95.8 127.0 97.05 124.75 106.45 121.9 115.1 111.8 111.85 97.0 109.65 87.05 103.55 79.15 109.9 95.5 103.1 112.1 100.1 118.95 95.55 122.35 96.2 125.05 92.65 128.45 94.4 125.95 93.55 123.75 91.7 124.7 89.7 125.25 84.9 126.3 83.75 123.5 81.75 119.65 84.15 116.3 87.35 113.9 92.65 117.35 96.0 111.4 96.5 103.9 95.6 96.55 92.1 91.15 93.8 90.65 95.9 88.3 L95.65 87.55 Q101.4 84.9 103.55 79.15 105.95 71.2 105.25 63.0 108.3 70.6 112.0 78.15 120.35 90.9 118.6 106.5 117.5 116.15 110.45 122.1 114.65 129.45 109.5 132.65 M64.0 24.8 Q68.55 41.8 64.15 54.0 62.05 59.8 57.95 64.55 63.85 61.95 68.1 58.4 L72.05 54.7 Q80.45 45.1 79.6 30.25 79.1 21.1 75.1 10.0 M64.15 54.0 Q52.15 38.7 51.1 12.4 46.6 40.55 28.95 47.95 25.1 49.45 21.9 49.6 22.45 64.25 29.0 72.8 34.15 78.5 40.55 91.4 45.6 103.45 42.2 111.25 50.85 114.75 47.25 125.25 47.65 114.15 40.75 113.85 L39.15 115.9 Q37.2 117.85 34.5 119.3 35.7 125.15 30.7 130.1 32.6 127.4 30.7 121.05 28.95 124.55 26.05 126.35 21.65 124.1 18.0 120.6 L17.95 120.55 17.75 120.35 Q17.25 119.65 18.1 117.8 19.0 115.95 20.85 114.15 22.7 112.35 24.35 111.55 26.0 110.85 26.5 111.55 L26.7 112.05 Q26.9 99.0 19.9 92.95 L19.8 92.9 Q14.35 87.6 11.9 84.4 -2.05 66.55 0.35 41.85 0.4 13.05 22.45 0.0 M21.9 49.6 Q14.8 50.0 11.3 46.4 4.35 39.35 15.7 32.05 10.65 38.75 13.2 42.7 21.15 42.7 28.8 33.85 31.15 24.7 40.3 12.5 M39.2 17.6 Q34.05 27.8 28.8 33.85 M13.2 42.7 Q14.0 44.0 15.7 45.05 M30.7 121.05 L32.1 117.65 Q36.05 106.6 33.2 93.35 L33.15 93.3 33.1 93.2 Q24.45 86.35 20.3 77.9 M72.05 54.7 Q73.3 60.0 76.95 65.4 72.05 62.4 68.1 58.4 M42.2 111.25 L40.75 113.85 M26.7 112.05 Q26.8 112.75 26.15 114.15 25.2 115.9 23.4 117.75 21.55 119.55 19.95 120.3 18.55 120.95 18.0 120.6 M30.7 121.05 L34.5 119.3 M39.2 113.45 L39.4 110.55 Q37.6 114.7 32.1 117.65 M84.15 116.3 Q87.85 116.7 90.7 120.3 L92.65 117.35 M90.7 120.3 L87.35 123.95 93.55 123.75 95.55 122.35 M83.75 123.5 L87.35 123.95 M106.45 124.9 L110.45 122.1 M106.45 121.9 Q103.65 125.25 99.6 128.05 M39.4 110.55 Q39.95 100.9 33.2 93.35 M95.9 45.2 Q85.75 38.65 79.6 30.25 M96.5 103.9 Q98.4 97.8 95.9 88.3" fill="none" stroke="#000000" stroke-linecap="round" stroke-linejoin="round" stroke-width="2.0"/>
  </g>
</svg>
