<?xml version="1.0" encoding="UTF-8" standalone="no"?>
<svg xmlns:xlink="http://www.w3.org/1999/xlink" height="105.2px" width="122.55px" xmlns="http://www.w3.org/2000/svg">
  <g transform="matrix(1.0, 0.0, 0.0, 1.0, 62.1, 55.0)">
    <path d="M46.4 -53.4 Q59.6 -38.25 59.9 -27.9 L60.45 -3.7 Q58.2 -24.1 55.25 -33.0 51.7 -43.55 46.05 -52.8 45.75 -53.35 46.4 -53.4 M13.65 -5.1 Q5.95 -18.25 0.95 -36.65 8.25 -19.15 27.45 9.15 14.65 -3.3 13.65 -5.1 M52.05 -3.6 Q51.9 3.7 49.55 13.2 50.45 -12.05 48.8 -22.35 52.25 -10.95 52.05 -3.6 M52.7 34.6 Q50.65 41.6 45.9 50.2 53.3 26.05 54.4 15.65 54.75 27.55 52.7 34.6 M40.45 8.8 Q40.0 17.9 37.2 26.4 38.6 -3.15 36.05 -15.25 40.85 -0.3 40.45 8.8 M-54.55 -30.15 Q-60.1 -21.95 -62.1 -18.1 -58.1 -29.8 -51.5 -39.25 -44.05 -50.0 -37.0 -55.0 -44.9 -44.4 -54.55 -30.15 M-26.25 -45.35 Q-18.25 -21.95 -16.1 -17.1 L-14.55 -13.95 Q-23.15 -25.0 -25.2 -35.25 L-26.25 -45.35" fill="#ffffff" fill-rule="evenodd" stroke="none"/>
  </g>
</svg>
