<?xml version="1.0" encoding="UTF-8" standalone="no"?>
<svg xmlns:xlink="http://www.w3.org/1999/xlink" height="13.4px" width="106.55px" xmlns="http://www.w3.org/2000/svg">
  <g transform="matrix(1.0, 0.0, 0.0, 1.0, 84.25, 19.3)">
    <path d="M16.95 -15.85 Q24.15 -12.05 21.65 -6.3 21.35 -5.55 20.4 -6.2 13.1 -11.45 16.95 -15.85 M-78.75 -18.5 Q-74.85 -14.5 -81.55 -10.5 -85.0 -8.45 -84.05 -12.3 -83.0 -16.8 -78.75 -18.5 M-48.2 -19.3 Q-42.4 -13.45 -48.45 -7.15 -50.4 -5.2 -51.25 -7.9 -53.5 -15.0 -48.2 -19.3 M-6.95 -17.1 Q0.85 -11.9 -6.15 -6.45 -7.1 -5.7 -7.85 -7.15 -11.05 -13.85 -6.95 -17.1" fill="#ffffff" fill-rule="evenodd" stroke="none"/>
  </g>
</svg>
