<?xml version="1.0" encoding="UTF-8" standalone="no"?>
<svg xmlns:xlink="http://www.w3.org/1999/xlink" height="128.0px" width="84.1px" xmlns="http://www.w3.org/2000/svg">
  <g transform="matrix(1.0, 0.0, 0.0, 1.0, 1.0, 1.0)">
    <path d="M15.2 14.7 Q6.05 22.4 0.25 34.8 L0.0 35.4 Q2.45 12.45 14.4 3.45 17.25 1.35 20.6 0.0 L18.65 3.45 Q15.95 8.9 15.2 14.7 25.4 6.15 39.8 3.45 45.9 2.3 52.7 2.25 L51.25 3.45 Q45.1 8.95 41.75 16.05 50.9 17.4 57.8 21.9 80.55 36.8 82.1 62.1 74.95 54.45 63.85 49.6 78.95 71.7 73.05 93.7 69.25 83.9 58.5 75.85 55.05 117.65 26.5 126.0 38.35 109.35 31.6 81.45 27.35 68.3 21.95 59.9 18.0 55.7 11.9 54.15 8.85 53.35 5.2 53.2 L3.5 53.15 Q4.35 49.2 8.1 46.65 L10.1 47.75 13.5 50.15 16.15 52.5 Q19.2 55.6 21.95 59.9 M58.5 75.85 Q58.85 58.8 53.65 45.9 48.7 33.4 38.6 24.65 29.85 20.2 17.25 28.55 7.8 35.05 4.75 44.35 M41.75 16.05 Q34.4 14.95 25.65 15.95 10.15 24.25 2.95 39.0 M63.85 49.6 Q59.1 47.45 53.65 45.9" fill="none" stroke="#000000" stroke-linecap="round" stroke-linejoin="round" stroke-width="2.0"/>
    <path d="M13.5 50.15 Q8.9 51.25 5.2 53.2 M16.15 52.5 Q12.85 52.85 11.9 54.15 M10.1 47.75 Q5.95 50.0 3.5 53.15" fill="none" stroke="#000000" stroke-linecap="round" stroke-linejoin="round" stroke-width="1.0"/>
  </g>
</svg>
