<?xml version="1.0" encoding="UTF-8" standalone="no"?>
<svg xmlns:xlink="http://www.w3.org/1999/xlink" height="58.2px" width="114.75px" xmlns="http://www.w3.org/2000/svg">
  <g transform="matrix(1.0, 0.0, 0.0, 1.0, 0.0, 0.0)">
    <path d="M42.95 24.15 Q31.95 42.2 16.15 52.9 6.95 58.75 0.0 58.15 18.3 35.45 30.25 9.25 47.15 -3.95 78.35 1.7 L78.45 1.9 78.55 2.1 Q103.75 3.2 114.75 18.55 113.55 44.5 99.05 51.35 98.5 36.95 95.25 24.7 92.35 49.65 67.7 51.7 L69.85 49.15 Q62.7 52.45 54.35 53.2 62.0 41.55 66.1 20.2 60.9 34.65 50.9 47.9 37.5 52.95 26.5 51.9 35.8 38.9 42.95 24.15" fill="#ff9abc" fill-rule="evenodd" stroke="none"/>
  </g>
</svg>
