<?xml version="1.0" encoding="UTF-8" standalone="no"?>
<svg xmlns:xlink="http://www.w3.org/1999/xlink" height="49.8px" width="103.7px" xmlns="http://www.w3.org/2000/svg">
  <g transform="matrix(1.0, 0.0, 0.0, 1.0, 78.15, 22.75)">
    <path d="M25.15 1.95 Q24.0 8.6 20.45 17.0 24.65 -5.95 24.35 -15.55 26.25 -4.7 25.15 1.95 M-14.85 -7.9 Q-14.0 -7.2 -14.3 -5.55 -17.4 9.15 -24.05 19.45 -24.5 18.2 -23.9 16.75 -19.0 4.15 -14.85 -7.9 M-60.95 1.4 Q-54.8 -10.0 -53.7 -22.75 -52.9 -14.2 -55.95 -3.05 -58.95 8.1 -78.15 27.05 -67.05 12.75 -60.95 1.4 M-35.5 -13.9 Q-38.05 -4.2 -39.3 2.3 -40.55 8.8 -52.9 19.9 -42.8 6.9 -39.6 -3.2 -36.4 -13.3 -35.5 -13.9 M-0.05 5.3 Q-0.55 6.9 -6.75 18.8 0.65 -7.05 2.1 -22.6 3.35 -6.7 -0.05 5.3" fill="#ffffff" fill-rule="evenodd" stroke="none"/>
  </g>
</svg>
