<?xml version="1.0" encoding="UTF-8" standalone="no"?>
<svg xmlns:xlink="http://www.w3.org/1999/xlink" height="54.3px" width="132.05px" xmlns="http://www.w3.org/2000/svg">
  <g transform="matrix(1.0, 0.0, 0.0, 1.0, 97.75, 31.8)">
    <path d="M20.25 -27.2 Q33.45 -12.05 33.75 -1.7 L34.3 22.5 Q32.05 2.1 29.1 -6.8 25.55 -17.35 19.9 -26.6 19.6 -27.15 20.25 -27.2 M5.55 5.05 Q5.35 7.1 -8.2 16.3 6.25 -2.1 3.5 -20.7 6.5 -6.75 5.55 5.05 M-49.35 -30.35 Q-51.45 -19.15 -53.4 -6.75 L-55.4 3.45 Q-56.95 -8.95 -53.65 -19.25 -50.35 -29.55 -49.35 -30.35 M-73.1 -12.6 Q-77.75 -0.5 -97.75 -0.8 -79.8 -9.15 -71.25 -16.85 L-73.1 -12.6 M-21.8 -31.8 Q-20.65 -21.45 -18.7 -10.5 -18.5 -9.25 -19.4 -8.35 -24.35 -17.85 -23.3 -30.05 -23.15 -31.4 -21.8 -31.8" fill="#ffffff" fill-rule="evenodd" stroke="none"/>
  </g>
</svg>
