<?xml version="1.0" encoding="UTF-8" standalone="no"?>
<svg xmlns:xlink="http://www.w3.org/1999/xlink" height="72.75px" width="72.7px" xmlns="http://www.w3.org/2000/svg">
  <g transform="matrix(1.0, 0.0, 0.0, 1.0, 36.35, 36.35)">
    <path d="M-6.15 -36.35 Q8.35 -35.25 20.25 -29.55 27.9 -24.5 32.3 -14.85 36.65 -5.2 36.35 7.0 36.75 26.3 29.3 36.4 30.55 27.3 28.65 19.85 26.85 23.85 24.05 26.3 21.3 28.8 17.65 29.85 21.8 24.2 20.7 18.0 18.1 19.8 14.8 20.65 4.8 22.9 -3.75 19.65 8.75 20.1 8.7 0.25 5.55 14.75 -9.55 18.0 -7.05 24.55 -0.35 29.0 -13.75 27.75 -22.3 19.4 -27.5 21.2 -33.05 20.45 L-36.35 19.95 Q-1.15 16.85 -6.15 -36.35" fill="#8279fe" fill-rule="evenodd" stroke="none"/>
  </g>
</svg>
