<?xml version="1.0" encoding="UTF-8" standalone="no"?>
<svg xmlns:xlink="http://www.w3.org/1999/xlink" height="67.0px" width="144.8px" xmlns="http://www.w3.org/2000/svg">
  <g transform="matrix(1.0, 0.0, 0.0, 1.0, 115.6, 36.9)">
    <path d="M12.75 -22.5 Q8.5 -23.8 4.2 -29.75 17.6 -22.55 29.2 -17.6 L12.75 -22.5 M25.05 3.05 Q27.35 9.35 28.5 18.45 20.7 -3.55 15.6 -11.7 22.7 -3.25 25.05 3.05 M13.65 -4.05 Q18.3 5.0 15.15 18.6 10.15 -11.0 -5.2 -25.25 9.25 -12.65 13.65 -4.05 M-107.4 -15.6 Q-112.05 -3.5 -115.6 14.2 -113.85 -12.7 -107.3 -22.3 -100.8 -31.9 -93.75 -36.9 -102.75 -27.7 -107.4 -15.6 M-61.4 -24.55 Q-54.8 -8.35 -49.65 1.75 -44.55 11.8 -31.25 30.1 -54.0 7.55 -58.0 -7.85 -61.95 -23.2 -61.4 -24.55 M-5.95 5.9 L-23.35 -23.1 Q-8.35 -9.75 -5.95 5.9" fill="#ffffff" fill-rule="evenodd" stroke="none"/>
  </g>
</svg>
