<?xml version="1.0" encoding="UTF-8" standalone="no"?>
<svg xmlns:xlink="http://www.w3.org/1999/xlink" height="125.95px" width="127.85px" xmlns="http://www.w3.org/2000/svg">
  <g transform="matrix(1.0, 0.0, 0.0, 1.0, 63.9, 63.0)">
    <path d="M-44.35 47.1 Q-42.7 56.05 -39.75 61.75 -66.4 27.45 -63.65 -17.15 -60.25 -35.4 -48.9 -46.5 -27.95 -60.9 0.6 -63.0 27.75 -62.75 45.35 -53.15 55.25 -44.95 60.95 -33.6 66.9 -16.85 61.0 -4.05 61.8 -8.0 60.4 -14.15 60.7 -9.7 59.3 -5.65 L54.35 -8.9 Q66.9 29.6 51.6 53.05 53.0 49.65 53.3 43.5 51.75 51.25 48.9 54.65 41.85 58.9 37.05 59.75 41.75 53.8 43.55 38.05 50.1 30.5 50.05 23.0 48.25 15.1 49.0 8.95 51.55 -1.1 51.25 -10.4 L50.05 -10.8 Q51.35 -22.25 43.55 -33.75 48.1 -21.8 46.55 -11.9 39.2 -13.95 28.9 -15.0 29.5 -26.5 22.65 -40.0 26.5 -27.05 24.55 -15.4 L22.4 -25.3 Q22.75 -19.75 21.65 -15.65 L13.6 -16.0 -2.4 -15.75 Q-2.1 -26.6 -5.45 -41.2 -7.1 -27.55 -6.55 -15.6 L-8.65 -21.75 Q-7.9 -17.35 -9.5 -15.2 L-23.1 -13.65 Q-26.0 -24.2 -23.9 -38.1 -27.75 -26.75 -27.5 -12.9 -36.1 -11.3 -43.7 -8.9 -41.6 29.2 -23.5 62.95 -35.1 60.3 -39.45 57.25 -43.15 52.75 -44.35 47.1" fill="url(#gradient0)" fill-rule="evenodd" stroke="none"/>
  </g>
  <defs>
    <linearGradient gradientTransform="matrix(0.0, 0.1158, -0.078, 0.0, 0.05, 53.85)" gradientUnits="userSpaceOnUse" id="gradient0" spreadMethod="pad" x1="-819.2" x2="819.2">
      <stop offset="0.0" stop-color="#fff23c" stop-opacity="0.0"/>
      <stop offset="0.3803921568627451" stop-color="#fff23c" stop-opacity="0.84705883"/>
      <stop offset="0.6039215686274509" stop-color="#fff23c" stop-opacity="0.8"/>
      <stop offset="1.0" stop-color="#fff23c" stop-opacity="0.0"/>
    </linearGradient>
  </defs>
</svg>
