<?xml version="1.0" encoding="UTF-8" standalone="no"?>
<svg xmlns:xlink="http://www.w3.org/1999/xlink" height="121.1px" width="157.7px" xmlns="http://www.w3.org/2000/svg">
  <g transform="matrix(1.0, 0.0, 0.0, 1.0, 78.85, 60.05)">
    <path d="M-32.85 -59.95 L-32.65 -60.05 -32.95 -59.65 -32.95 -59.7 -32.85 -59.95" fill="#6a3d4d" fill-rule="evenodd" stroke="none"/>
    <path d="M2.95 -22.2 L6.55 -16.85 Q18.4 -0.9 37.9 9.55 34.9 -6.55 22.45 -21.75 M28.35 -48.25 Q32.65 -48.4 40.3 -44.85 45.95 -41.75 52.35 -40.1 58.7 -38.4 69.65 -41.65 65.4 -34.5 59.9 -32.9 54.35 -31.3 50.1 -32.75 63.15 -24.3 77.85 -24.15 69.8 -11.45 57.45 -13.55 77.5 7.35 63.35 35.2 65.8 17.7 57.4 2.3 L57.4 2.35 Q62.25 23.35 47.8 43.8 50.45 37.1 50.1 33.6 46.35 41.2 39.7 45.4 48.95 31.1 43.0 12.7 44.9 29.55 37.4 34.45 40.85 23.55 37.9 9.55 M57.4 2.35 Q51.5 -21.0 33.95 -30.5 M6.55 -16.85 Q7.85 6.6 12.6 18.65 2.0 10.2 -0.2 -3.55 -0.45 10.45 18.7 33.95 0.25 26.0 -10.75 15.2 -4.65 21.45 4.55 28.55 -13.75 22.6 -23.2 9.05 -32.7 -4.5 -38.95 -26.55 -40.85 -26.35 -41.9 -25.4 L-41.85 -25.35 Q-39.0 -22.8 -38.85 -17.15 -40.5 -19.85 -43.05 -20.65 L-45.1 -21.1 Q-43.6 -19.55 -43.05 -17.05 L-43.0 -16.65 -43.05 -16.75 Q-45.7 -19.3 -49.9 -19.65 L-49.9 -19.6 Q-62.5 25.1 -34.9 53.4 -57.15 44.45 -59.4 23.35 -57.6 44.7 -39.9 60.05 -54.9 55.5 -62.65 44.7 -70.45 33.9 -72.3 16.15 -71.15 30.2 -69.7 38.25 -80.85 16.8 -76.75 -5.3 -72.7 -27.5 -64.3 -33.7 M-49.9 -19.6 Q-61.45 -22.4 -68.85 -20.2 M-45.1 -21.1 Q-50.4 -26.0 -65.3 -27.1 M-41.85 -25.35 Q-53.1 -33.55 -62.25 -32.2 M-10.75 15.2 L-12.45 13.4 Q-15.4 10.3 -17.75 6.95 L-18.6 5.7 M-72.3 16.15 L-72.3 16.1 -72.25 15.75 M-59.4 23.35 L-59.55 21.95" fill="none" stroke="#000000" stroke-linecap="round" stroke-linejoin="round" stroke-width="2.0"/>
  </g>
</svg>
