<?xml version="1.0" encoding="UTF-8" standalone="no"?>
<svg xmlns:xlink="http://www.w3.org/1999/xlink" height="57.95px" width="105.9px" xmlns="http://www.w3.org/2000/svg">
  <g transform="matrix(1.0, 0.0, 0.0, 1.0, 55.6, 32.8)">
    <path d="M28.85 0.0 Q23.3 -14.55 14.0 -31.35 27.15 -16.3 28.85 0.0 M31.2 -29.65 Q38.15 -22.6 42.3 -15.15 40.55 -20.2 38.2 -25.1 45.0 -16.95 48.3 -6.85 L48.5 -6.5 Q50.15 -0.05 50.3 5.7 50.65 16.8 45.3 25.15 L46.7 19.1 Q47.2 11.55 46.5 4.25 46.05 -0.45 45.1 -5.05 39.4 -16.7 31.2 -29.65 M-55.6 0.2 Q-55.65 -16.2 -42.75 -32.6 -51.1 -14.9 -55.6 0.2 M-34.1 2.25 Q-38.4 -13.6 -30.2 -32.8 -33.65 -13.55 -34.1 2.25 M3.9 0.95 Q0.3 -14.15 -6.45 -31.85 3.95 -15.45 3.9 0.95" fill="#ffffff" fill-rule="evenodd" stroke="none"/>
  </g>
</svg>
