<?xml version="1.0" encoding="UTF-8" standalone="no"?>
<svg xmlns:xlink="http://www.w3.org/1999/xlink" height="24.9px" width="114.25px" xmlns="http://www.w3.org/2000/svg">
  <g transform="matrix(1.0, 0.0, 0.0, 1.0, 44.7, -9.25)">
    <path d="M50.25 13.55 Q52.3 20.9 50.05 28.65 42.55 25.85 31.55 24.25 L30.5 15.75 29.75 24.0 22.95 23.25 Q23.6 16.4 21.4 9.85 37.4 10.8 50.25 13.55 M69.5 25.9 Q68.95 31.8 65.45 34.15 L56.1 32.55 Q55.35 22.45 51.4 13.8 61.1 15.9 69.0 19.1 69.65 22.65 69.5 25.9 M20.6 9.8 Q20.2 22.15 18.5 26.45 7.45 25.35 -1.75 26.3 -3.75 20.5 -4.0 9.35 2.65 9.2 10.15 9.35 L20.6 9.8 M-4.7 9.35 L-6.25 24.85 Q-17.6 23.3 -23.1 24.9 -25.9 17.55 -26.3 11.1 -17.05 9.7 -4.7 9.35 M-26.65 11.15 Q-26.85 16.85 -26.2 24.15 -36.85 27.15 -42.15 32.2 -44.3 22.65 -44.7 16.55 -38.05 12.95 -26.65 11.15" fill="#000000" fill-opacity="0.14901961" fill-rule="evenodd" stroke="none"/>
  </g>
</svg>
