<?xml version="1.0" encoding="UTF-8" standalone="no"?>
<svg xmlns:xlink="http://www.w3.org/1999/xlink" height="134.85px" width="149.3px" xmlns="http://www.w3.org/2000/svg">
  <g transform="matrix(1.0, 0.0, 0.0, 1.0, 74.65, 67.45)">
    <path d="M58.45 10.85 L61.45 13.9 Q75.9 29.95 73.25 44.65 L66.35 36.65 Q72.15 52.15 66.35 66.4 51.95 46.45 16.1 27.15 24.8 40.05 35.0 47.5 19.45 48.45 11.15 41.9 16.65 48.15 21.4 50.75 -4.55 49.8 -25.05 14.7 -24.85 18.05 -25.75 20.85 L-32.0 14.95 Q-31.6 20.45 -33.75 23.4 L-39.0 15.55 Q-39.7 22.25 -42.7 26.7 L-45.5 -7.05 Q-50.25 -7.2 -54.25 -8.3 -56.0 12.8 -67.45 11.25 -74.6 10.45 -73.5 -10.25 -72.95 -19.0 -68.9 -28.45 -65.5 -33.4 -59.15 -33.05 L-48.65 -32.05 Q-42.6 -47.25 -35.75 -48.25 -31.15 -48.85 -22.75 -41.45 -20.15 -39.0 -17.75 -37.25 -8.75 -42.15 2.6 -49.45 13.9 -56.75 18.5 -66.45 18.65 -44.65 7.4 -27.65 L21.15 -31.75 Q24.3 -39.85 32.4 -42.8 39.6 -43.25 41.7 -37.7 55.2 -42.35 60.0 -49.55 57.2 -38.0 52.9 -28.8 L62.85 -27.8 Q71.2 -25.4 68.35 -19.6 66.35 -15.5 65.05 -10.9 L64.3 -8.0 64.25 -7.7 64.1 -6.95 64.0 -4.35 63.95 -3.55 Q63.75 -1.6 63.2 -0.2 61.55 4.75 56.4 3.55 L53.25 2.35 Q45.6 -0.65 40.25 -10.0 47.65 -17.75 52.9 -28.8 M21.15 -31.75 L37.4 -36.35 41.7 -37.7 M16.1 27.15 L14.0 26.0 M11.15 41.9 L4.85 36.9 M-59.15 -10.25 Q-56.9 -9.05 -54.25 -8.3 M-48.65 -32.05 L-46.6 -31.95 M-32.3 -8.25 L-27.9 -9.25 Q-17.4 -12.05 -10.8 -17.45 -4.55 -22.65 -3.85 -28.5 -3.25 -32.25 -8.4 -32.85 -12.7 -33.5 -17.75 -37.25 M-45.5 -7.05 L-38.65 -7.3 -35.55 -7.7 -33.35 -8.05 -32.3 -8.25 M-32.0 14.95 Q-32.1 13.25 -32.5 11.25 M-39.0 15.55 Q-38.2 7.9 -40.25 -2.65 M-25.05 14.7 Q-25.7 5.5 -35.55 -7.7 M-38.65 -7.3 Q-34.9 -1.5 -33.75 3.75" fill="none" stroke="#000000" stroke-linecap="round" stroke-linejoin="round" stroke-width="2.0"/>
    <path d="M65.05 -10.9 Q68.05 -11.0 67.8 -9.0 67.05 -7.5 64.3 -8.0 M64.25 -7.7 Q67.3 -7.6 66.7 -5.5 66.2 -4.45 64.0 -4.35 M63.95 -3.55 Q66.05 -3.2 65.95 -1.9 65.85 -0.4 63.2 -0.2 M64.45 -10.9 L65.05 -10.9 M62.9 -7.75 L64.25 -7.7 M62.75 -3.65 L63.95 -3.55 M-32.3 -8.25 Q-32.55 -10.7 -30.2 -11.45 M-32.3 -8.25 Q-31.35 -5.25 -28.8 -6.25 -26.95 -7.0 -27.9 -9.25" fill="none" stroke="#000000" stroke-linecap="round" stroke-linejoin="round" stroke-width="1.5"/>
  </g>
</svg>
