<?xml version="1.0" encoding="UTF-8" standalone="no"?>
<svg xmlns:xlink="http://www.w3.org/1999/xlink" height="13.75px" width="101.0px" xmlns="http://www.w3.org/2000/svg">
  <g transform="matrix(1.0, 0.0, 0.0, 1.0, 56.45, 14.85)">
    <path d="M21.55 -7.3 Q22.0 -5.75 21.5 -4.35 21.0 -3.1 19.85 -2.8 18.8 -2.5 17.65 -3.35 16.6 -4.25 16.15 -5.85 15.75 -7.45 16.2 -8.75 16.7 -10.1 17.85 -10.4 18.95 -10.7 20.05 -9.75 21.15 -8.9 21.55 -7.3 M44.1 -12.2 Q44.75 -10.7 44.5 -9.25 44.25 -7.9 43.15 -7.45 42.1 -6.95 40.9 -7.7 39.65 -8.45 38.95 -9.85 38.35 -11.4 38.6 -12.85 38.9 -14.25 39.9 -14.65 40.95 -15.15 42.2 -14.4 43.45 -13.7 44.1 -12.2 M-51.35 -9.4 Q-51.75 -7.95 -52.8 -7.15 -53.7 -6.35 -54.75 -6.6 -55.75 -6.85 -56.25 -8.1 -56.65 -9.3 -56.3 -10.75 -55.85 -12.15 -54.95 -12.95 -53.9 -13.8 -52.85 -13.55 -51.85 -13.25 -51.45 -12.05 -50.95 -10.8 -51.35 -9.4 M-35.05 -5.4 Q-35.3 -3.75 -36.3 -2.7 -37.3 -1.75 -38.4 -1.95 -39.55 -2.1 -40.2 -3.4 -40.8 -4.65 -40.55 -6.25 -40.25 -7.9 -39.25 -8.9 -38.25 -9.9 -37.1 -9.75 -36.0 -9.6 -35.35 -8.25 -34.75 -7.0 -35.05 -5.4 M-0.8 -5.7 Q-0.6 -4.15 -1.3 -2.75 -2.0 -1.5 -3.2 -1.2 -4.3 -0.9 -5.3 -1.75 -6.2 -2.65 -6.4 -4.25 -6.55 -5.85 -5.9 -7.15 -5.2 -8.5 -4.0 -8.8 -2.85 -9.1 -1.9 -8.15 -0.95 -7.3 -0.8 -5.7" fill="#ffffff" fill-rule="evenodd" stroke="none"/>
  </g>
</svg>
