<?xml version="1.0" encoding="UTF-8" standalone="no"?>
<svg xmlns:xlink="http://www.w3.org/1999/xlink" height="18.1px" width="105.0px" xmlns="http://www.w3.org/2000/svg">
  <g transform="matrix(1.0, 0.0, 0.0, 1.0, 44.3, 8.9)">
    <path d="M55.35 -8.9 Q62.55 -5.1 60.05 0.65 59.75 1.4 58.8 0.75 51.5 -4.5 55.35 -8.9 M30.3 -2.6 Q39.8 3.0 33.45 8.9 32.6 9.75 31.5 8.15 26.55 0.95 30.3 -2.6 M-6.7 -4.0 L-6.4 -3.7 -6.2 -3.45 Q-1.15 2.15 -6.95 8.15 -8.9 10.1 -9.75 7.4 -12.0 0.3 -6.7 -4.0 M-38.6 -5.35 Q-32.7 -1.7 -38.75 1.95 -44.85 5.55 -44.25 2.1 -43.7 -1.4 -42.6 -2.7 -41.3 -5.2 -38.6 -5.35" fill="#ffffff" fill-rule="evenodd" stroke="none"/>
  </g>
</svg>
