<?xml version="1.0" encoding="UTF-8" standalone="no"?>
<svg xmlns:xlink="http://www.w3.org/1999/xlink" height="71.6px" width="131.6px" xmlns="http://www.w3.org/2000/svg">
  <g transform="matrix(1.0, 0.0, 0.0, 1.0, 54.75, 31.05)">
    <path d="M48.1 -12.15 Q41.2 -22.05 24.8 -31.05 37.65 -26.35 50.55 -17.3 56.2 -15.4 61.75 -18.25 60.4 -13.5 52.8 -13.45 L66.3 -3.7 Q80.8 13.8 75.4 27.0 76.1 10.85 57.35 -0.45 L58.5 3.1 52.1 -3.9 16.95 -9.9 Q35.7 -9.55 44.75 -9.95 44.25 -12.75 38.65 -16.3 45.6 -14.55 48.1 -12.15 M-34.7 -25.6 L-41.55 -12.4 -38.45 -14.9 -45.0 -0.7 -46.8 -0.95 Q-53.3 22.45 -54.4 40.55 -55.85 22.7 -51.5 4.8 -47.25 -14.45 -34.7 -25.6 M-21.45 -9.5 Q-18.7 -10.9 -14.8 -10.65 -14.4 -9.15 -19.0 -8.35 -21.35 -8.6 -21.45 -9.5 M-1.7 -10.35 Q0.05 -11.2 2.3 -10.7 2.4 -9.5 -0.4 -9.25 -1.7 -9.65 -1.7 -10.35" fill="#ffffff" fill-rule="evenodd" stroke="none"/>
    <path d="M-34.7 -25.6 L-34.4 -26.25" fill="none" stroke="#000000" stroke-linecap="round" stroke-linejoin="round" stroke-width="0.05"/>
    <path d="M-38.15 -5.55 L-34.6 -14.3 -29.95 -7.5 -38.15 -5.55" fill="none" stroke="#ffffff" stroke-linecap="round" stroke-linejoin="round" stroke-width="1.0"/>
  </g>
</svg>
