<?xml version="1.0" encoding="UTF-8" standalone="no"?>
<svg xmlns:xlink="http://www.w3.org/1999/xlink" height="57.4px" width="129.9px" xmlns="http://www.w3.org/2000/svg">
  <g transform="matrix(1.0, 0.0, 0.0, 1.0, 105.3, 34.0)">
    <path d="M7.6 -17.2 Q18.35 -10.8 24.05 -2.25 25.45 5.1 23.15 17.25 25.3 -1.0 7.6 -17.2 M-92.75 -30.25 Q-103.9 -4.0 -103.55 23.4 -106.8 8.85 -103.95 -6.25 -98.9 -21.7 -92.75 -30.25 M-77.75 -2.15 Q-60.7 -21.55 -58.05 -34.0 -58.05 -25.95 -60.75 -19.95 -64.5 -11.7 -77.75 -2.15 M-29.95 -32.95 Q-21.3 -16.8 -35.55 2.55 -31.55 -13.0 -29.95 -32.95 M-10.3 -33.15 Q-4.8 -25.05 -3.35 1.7 -10.2 -25.7 -10.3 -33.15" fill="#ffffff" fill-rule="evenodd" stroke="none"/>
  </g>
</svg>
