<?xml version="1.0" encoding="UTF-8" standalone="no"?>
<svg xmlns:xlink="http://www.w3.org/1999/xlink" height="69.1px" width="127.95px" xmlns="http://www.w3.org/2000/svg">
  <g transform="matrix(1.0, 0.0, 0.0, 1.0, 111.0, 74.6)">
    <path d="M4.45 -56.0 Q13.2 -43.85 16.5 -30.7 18.6 -15.4 10.55 -5.5 20.8 -18.8 4.45 -56.0 M-85.3 -74.6 Q-103.75 -48.35 -111.0 -20.95 -110.2 -35.5 -103.15 -50.6 -93.85 -66.05 -85.3 -74.6 M-86.05 -35.1 Q-83.5 -49.75 -78.0 -56.7 -73.95 -61.7 -67.0 -65.7 -76.6 -57.55 -86.05 -35.1 M-21.3 -60.85 Q-8.1 -49.9 -3.5 -29.25 -11.25 -45.45 -21.3 -60.85 M-44.2 -67.35 Q-43.95 -46.8 -53.3 -41.35 -47.6 -52.5 -44.2 -67.35" fill="#ffffff" fill-rule="evenodd" stroke="none"/>
  </g>
</svg>
