<?xml version="1.0" encoding="UTF-8" standalone="no"?>
<svg xmlns:xlink="http://www.w3.org/1999/xlink" height="51.6px" width="123.8px" xmlns="http://www.w3.org/2000/svg">
  <g transform="matrix(1.0, 0.0, 0.0, 1.0, 101.7, 63.7)">
    <path d="M-5.95 -63.05 Q7.3 -56.0 16.0 -45.65 20.95 -38.25 22.1 -30.95 16.75 -42.25 -5.95 -63.05 M-65.5 -63.7 Q-88.3 -46.5 -101.7 -22.65 -97.2 -36.85 -87.15 -48.5 -75.1 -59.35 -65.5 -63.7 M-70.95 -12.1 Q-59.85 -36.05 -51.25 -43.95 -53.6 -37.8 -57.25 -31.05 -60.95 -24.35 -70.95 -12.1 M-27.45 -49.3 Q-22.15 -34.1 -32.9 -19.95 -27.45 -34.45 -27.45 -49.3 M-11.4 -46.35 Q-3.45 -33.0 0.95 -12.2 -5.15 -23.6 -11.4 -46.35" fill="#ffffff" fill-rule="evenodd" stroke="none"/>
  </g>
</svg>
