<?xml version="1.0" encoding="UTF-8" standalone="no"?>
<svg xmlns:xlink="http://www.w3.org/1999/xlink" height="136.45px" width="152.55px" xmlns="http://www.w3.org/2000/svg">
  <g transform="matrix(1.0, 0.0, 0.0, 1.0, 76.25, 68.2)">
    <path d="M54.9 -10.45 Q59.15 1.95 60.7 12.65 64.6 26.95 76.3 31.2 66.85 32.25 61.6 28.1 60.35 52.4 40.75 64.45 46.6 55.35 48.3 43.65 44.45 54.25 34.0 57.55 51.55 39.75 44.65 -3.95 25.0 -17.2 16.05 -38.8 16.75 -13.6 -4.9 -3.5 5.95 -20.0 9.0 -36.6 -3.75 -17.75 -32.75 -0.3 -42.35 31.2 -28.8 59.55 -40.9 47.4 -45.4 32.75 -47.0 55.75 -40.8 68.25 -55.2 53.95 -59.25 31.45 L-59.35 30.65 Q-64.8 38.5 -76.25 37.0 -66.15 33.55 -61.6 20.2 -65.2 8.4 -63.5 -6.05 -66.95 0.55 -69.05 7.45 -66.65 -52.3 -22.7 -67.5 -17.35 -70.9 11.2 -57.4 25.4 -63.05 37.3 -63.4 50.25 -58.9 58.35 -46.5 66.45 -34.05 68.7 -21.8 62.9 -30.6 50.25 -36.55 73.75 -18.0 66.55 15.85 65.3 2.7 54.9 -10.45" fill="#a1d1ae" fill-rule="evenodd" stroke="none"/>
  </g>
</svg>
