<?xml version="1.0" encoding="UTF-8" standalone="no"?>
<svg xmlns:xlink="http://www.w3.org/1999/xlink" height="77.05px" width="140.45px" xmlns="http://www.w3.org/2000/svg">
  <g transform="matrix(1.0, 0.0, 0.0, 1.0, 70.2, 38.5)">
    <path d="M26.9 -37.65 Q43.3 -30.0 62.85 -27.85 56.45 -22.1 49.65 -22.75 62.85 -11.6 67.8 1.55 74.85 19.9 61.45 33.3 62.75 28.0 61.05 19.25 59.2 29.4 51.05 38.55 47.15 28.55 39.05 18.9 42.05 26.95 48.2 36.55 20.65 32.1 7.4 14.1 13.55 23.7 21.95 31.3 -1.0 35.8 -14.05 14.2 -23.8 -4.95 -20.15 -23.3 -30.35 -15.9 -35.65 4.25 -41.0 24.3 -31.05 37.25 -40.45 37.2 -46.3 30.4 -49.8 26.45 -51.1 20.1 L-50.3 30.7 Q-58.25 27.0 -60.2 14.2 -61.95 3.0 -53.85 -12.2 -62.3 -6.6 -70.2 -10.95 -58.8 -16.15 -47.9 -26.55 -12.6 -39.85 25.5 -38.35 L26.9 -37.65" fill="url(#gradient0)" fill-rule="evenodd" stroke="none"/>
  </g>
  <defs>
    <linearGradient gradientTransform="matrix(0.0, 0.1133, -0.0857, 0.0, 0.05, 63.85)" gradientUnits="userSpaceOnUse" id="gradient0" spreadMethod="pad" x1="-819.2" x2="819.2">
      <stop offset="0.0" stop-color="#fff23c" stop-opacity="0.0"/>
      <stop offset="0.3803921568627451" stop-color="#fff23c" stop-opacity="0.84705883"/>
      <stop offset="0.6039215686274509" stop-color="#fff23c" stop-opacity="0.8"/>
      <stop offset="1.0" stop-color="#fff23c" stop-opacity="0.0"/>
    </linearGradient>
  </defs>
</svg>
