<?xml version="1.0" encoding="UTF-8" standalone="no"?>
<svg xmlns:xlink="http://www.w3.org/1999/xlink" height="51.85px" width="105.65px" xmlns="http://www.w3.org/2000/svg">
  <g transform="matrix(1.0, 0.0, 0.0, 1.0, 95.05, 60.85)">
    <path d="M-4.2 -60.85 Q5.25 -54.95 10.25 -35.95 L10.6 -32.55 Q5.35 -46.3 -4.2 -60.85 M-79.25 -53.55 Q-88.35 -32.1 -95.05 -9.0 -95.0 -19.45 -90.7 -30.95 -85.4 -45.0 -79.25 -53.55 M-56.7 -15.8 Q-45.35 -39.05 -46.0 -51.75 -43.9 -43.95 -44.95 -37.5 -46.4 -28.5 -56.7 -15.8 M-15.15 -45.05 Q3.15 -32.55 3.85 -16.95 -3.0 -30.75 -15.15 -45.05 M-28.1 -45.3 Q-17.2 -30.4 -22.7 -14.1 -22.25 -34.35 -28.1 -45.3" fill="#ffffff" fill-rule="evenodd" stroke="none"/>
  </g>
</svg>
