<?xml version="1.0" encoding="UTF-8" standalone="no"?>
<svg xmlns:xlink="http://www.w3.org/1999/xlink" height="92.2px" width="64.65px" xmlns="http://www.w3.org/2000/svg">
  <g transform="matrix(1.0, 0.0, 0.0, 1.0, 82.55, 63.0)">
    <path d="M-32.35 -60.15 Q-24.05 -50.75 -20.45 -37.45 -17.85 -27.25 -17.9 -14.65 -18.1 -12.45 -18.45 -10.35 -20.75 5.2 -29.95 16.85 -38.5 25.2 -51.15 27.05 L-55.9 27.5 Q-53.35 23.25 -51.15 18.75 -48.75 13.75 -46.65 8.5 L-51.15 14.7 Q-57.7 22.7 -65.2 26.3 -73.3 30.25 -82.55 28.85 -73.3 14.4 -66.0 -1.1 -63.05 -7.5 -60.4 -14.05 -58.45 -18.75 -56.75 -23.55 -54.7 -29.25 -52.9 -35.05 L-50.0 -45.2 -48.85 -49.75 -47.5 -55.2 -47.15 -56.3 -46.55 -57.6 Q-45.35 -60.4 -43.7 -61.75 -40.35 -63.7 -36.8 -62.55 -34.65 -61.9 -32.35 -60.15" fill="#ffffff" fill-rule="evenodd" stroke="none"/>
  </g>
</svg>
