<?xml version="1.0" encoding="UTF-8" standalone="no"?>
<svg xmlns:xlink="http://www.w3.org/1999/xlink" height="29.7px" width="46.85px" xmlns="http://www.w3.org/2000/svg">
  <g transform="matrix(1.0, 0.0, 0.0, 1.0, 23.45, 14.85)">
    <path d="M23.4 13.25 Q17.45 6.4 8.1 9.55 4.7 10.2 1.05 12.2 -8.3 17.15 -16.3 12.9 L-18.05 11.4 Q-23.8 5.7 -23.45 -0.1 -23.1 -5.95 -18.45 -11.4 -11.75 -17.05 -6.35 -13.45 -0.95 -9.85 -6.6 -3.5 -7.5 -7.6 -10.3 -6.6 -13.15 -5.65 -13.8 -1.1 -14.45 3.4 -9.5 2.85 -4.55 2.3 1.0 -1.4 6.55 -5.1 14.5 -2.4 22.45 0.25 23.4 13.25" fill="#72adff" fill-rule="evenodd" stroke="none"/>
  </g>
</svg>
