<?xml version="1.0" encoding="UTF-8" standalone="no"?>
<svg xmlns:xlink="http://www.w3.org/1999/xlink" height="33.45px" width="32.3px" xmlns="http://www.w3.org/2000/svg">
  <g transform="matrix(1.0, 0.0, 0.0, 1.0, 16.15, 16.75)">
    <path d="M0.65 -7.05 Q1.6 -17.6 9.9 -16.65 15.6 -16.0 16.05 -9.35 16.85 -2.25 9.3 5.6 15.2 -10.45 8.75 -11.8 3.7 -12.9 1.4 -6.7 0.95 -6.9 0.65 -7.05 M0.6 -6.45 Q-12.25 -6.25 -6.2 3.75 -0.35 11.85 13.05 16.7 2.75 16.8 -6.6 12.0 -15.35 7.45 -16.05 -0.95 -16.9 -10.55 -11.05 -10.75 -5.95 -10.95 -0.3 -7.5 L0.6 -6.45" fill="#ef8199" fill-rule="evenodd" stroke="none"/>
  </g>
</svg>
