<?xml version="1.0" encoding="UTF-8" standalone="no"?>
<svg xmlns:xlink="http://www.w3.org/1999/xlink" height="41.4px" width="36.2px" xmlns="http://www.w3.org/2000/svg">
  <g transform="matrix(1.0, 0.0, 0.0, 1.0, 18.1, 20.7)">
    <path d="M-3.35 20.7 Q8.15 12.7 9.4 3.45 11.1 -9.0 0.45 -13.05 -7.4 -13.7 -10.2 -5.35 -12.0 0.05 -8.25 2.9 -3.75 4.2 -1.0 0.95 0.4 -4.65 -5.5 -3.3 -5.1 -7.35 -0.45 -8.0 3.9 -7.5 5.0 -2.15 7.2 8.2 -3.65 9.7 -17.9 9.1 -18.1 -3.7 -17.7 -14.2 -8.4 -18.55 -0.7 -22.0 5.45 -19.9 16.15 -16.75 17.85 -3.5 19.4 7.1 11.5 14.4 6.25 18.15 -3.35 20.7" fill="#f1466b" fill-rule="evenodd" stroke="none"/>
  </g>
</svg>
