<?xml version="1.0" encoding="UTF-8" standalone="no"?>
<svg xmlns:xlink="http://www.w3.org/1999/xlink" height="113.95px" width="162.8px" xmlns="http://www.w3.org/2000/svg">
  <g transform="matrix(1.0, 0.0, 0.0, 1.0, 81.4, 57.0)">
    <path d="M58.4 19.65 L58.8 15.85 58.9 14.7 58.95 13.9 Q59.2 7.15 58.0 -2.8 56.75 -19.8 44.65 -32.15 26.5 -47.6 0.55 -51.85 L-0.65 -52.05 -0.95 -52.1 -1.0 -51.8 -1.45 -51.4 -3.4 -51.0 -0.7 -49.7 -0.25 -49.45 Q11.45 -43.2 18.65 -30.6 25.5 -5.15 26.3 16.1 26.35 17.3 25.45 20.75 L26.6 20.8 47.65 21.3 50.15 21.45 Q54.75 21.5 57.55 20.15 L58.1 19.85 58.4 19.65 Q82.4 44.6 80.2 53.9 78.1 55.45 73.9 55.9 69.7 56.35 56.0 53.75 42.3 51.15 11.4 54.2 -19.45 57.25 -32.4 45.75 -45.4 34.2 -54.5 11.9 -78.15 9.05 -80.4 5.75 -79.35 -17.4 -69.45 -32.0 -59.65 -46.65 -38.75 -53.35 -26.65 -57.05 -15.0 -54.45 L-15.0 -54.65 -14.5 -55.3 Q-13.7 -55.85 -11.9 -56.0 -8.4 -56.15 -4.35 -55.05 -0.9 -54.25 -0.85 -52.55 L-0.95 -52.1 M-3.4 -51.0 L-8.2 -51.35 -12.2 -52.2 -13.55 -52.6 -16.2 -51.75 -16.6 -51.65 Q-30.35 -46.2 -36.5 -31.7 -43.4 -13.9 -43.95 6.75 L-43.95 14.0 -38.95 14.8 -27.8 16.45 -6.2 18.8 25.45 20.75 M-15.0 -54.45 L-15.15 -53.7 Q-14.65 -53.2 -13.55 -52.6 M-54.5 11.9 L-48.05 13.25 -45.75 13.7 -43.95 14.0" fill="none" stroke="#000000" stroke-linecap="round" stroke-linejoin="round" stroke-width="2.0"/>
  </g>
</svg>
