<?xml version="1.0" encoding="UTF-8" standalone="no"?>
<svg xmlns:xlink="http://www.w3.org/1999/xlink" height="55.45px" width="103.7px" xmlns="http://www.w3.org/2000/svg">
  <g transform="matrix(1.0, 0.0, 0.0, 1.0, 51.85, 27.75)">
    <path d="M13.45 -27.75 L18.1 -16.3 Q15.75 -12.2 5.1 -6.15 -0.6 -3.85 -4.7 -2.65 -13.45 -0.2 -15.4 -2.85 L-19.6 -13.3 Q-17.25 -11.7 -9.1 -14.2 -5.15 -15.4 0.1 -17.6 11.7 -22.55 13.45 -27.75 M-14.3 -0.15 Q-20.75 1.55 -26.85 3.9 L-28.35 4.5 Q-39.6 9.15 -49.55 16.35 -45.55 3.15 -28.5 0.5 L-28.4 0.5 -14.3 -0.15 -15.9 -0.5 -22.55 -1.8 -26.7 -2.35 Q-40.35 -3.7 -51.85 -0.35 -41.25 -13.05 -26.5 -7.45 -24.3 -6.6 -21.9 -5.3 -18.25 -3.25 -14.3 -0.15 L-14.3 -0.05 Q-20.15 5.35 -23.8 11.75 L-23.8 11.8 Q-28.1 19.1 -29.5 27.7 -34.95 17.45 -28.5 9.55 L-26.9 7.85 Q-22.55 3.5 -14.3 -0.15 M32.7 -1.95 L34.15 -5.0 35.0 -7.6 Q47.2 -7.65 51.85 -0.9 L48.05 0.0 48.05 6.25 Q43.1 -0.05 32.7 -1.95" fill="#1ca1cd" fill-rule="evenodd" stroke="none"/>
  </g>
</svg>
