<?xml version="1.0" encoding="UTF-8" standalone="no"?>
<svg xmlns:xlink="http://www.w3.org/1999/xlink" height="112.8px" width="94.25px" xmlns="http://www.w3.org/2000/svg">
  <g transform="matrix(1.0, 0.0, 0.0, 1.0, 47.15, 56.4)">
    <path d="M37.4 -52.95 Q37.4 -52.2 37.7 -51.35 37.7 -50.55 38.0 -49.75 38.5 -47.5 39.45 -45.7 39.8 -44.9 40.4 -44.25 L41.55 -43.05 Q43.15 -41.5 45.5 -40.85 L47.1 -40.5 32.0 4.1 Q24.85 29.0 -17.1 56.4 -2.6 37.6 5.7 2.35 9.75 -9.7 18.2 -19.9 L33.75 -39.45 Q19.15 -29.8 -5.45 -20.25 -40.55 -11.3 -47.15 -20.25 -34.8 -13.85 -9.25 -45.7 -0.4 -57.05 11.1 -56.35 25.5 -50.25 37.4 -52.95" fill="#1ca1cd" fill-rule="evenodd" stroke="none"/>
  </g>
</svg>
