<?xml version="1.0" encoding="UTF-8" standalone="no"?>
<svg xmlns:xlink="http://www.w3.org/1999/xlink" height="186.5px" width="242.4px" xmlns="http://www.w3.org/2000/svg">
  <g transform="matrix(1.0, 0.0, 0.0, 1.0, 121.2, 93.25)">
    <path d="M88.85 -45.85 L115.45 -28.5 Q115.7 -31.75 115.45 -35.25 114.4 -46.65 107.55 -60.4 L106.9 -61.7 101.05 -70.15 Q76.5 -91.55 47.55 -92.2 L47.5 -92.2 40.5 -92.0 33.55 -91.3 Q-1.65 -86.35 -14.95 -61.2 L-16.25 -58.3 -18.5 -52.85 Q-24.3 -40.3 -31.3 -34.6 -31.8 -29.95 -26.5 -30.55 -16.9 -36.75 -10.6 -50.4 M-6.45 -39.65 L-27.8 -20.5 -30.35 -18.25 Q-31.5 -15.35 -30.85 -14.3 -28.35 -10.25 -24.3 -9.45 L-22.75 -9.2 Q-17.15 -30.75 55.25 -33.35 105.8 -31.05 117.6 -16.5 119.2 -18.1 119.85 -19.7 121.35 -23.75 116.65 -27.8 L115.45 -28.5 M-26.5 -30.55 L-27.8 -29.9 Q-29.5 -26.65 -29.5 -24.3 -29.5 -22.1 -27.8 -20.5 M-29.5 -24.3 Q-33.25 -22.1 -34.7 -19.75 -35.5 -18.45 -35.65 -17.1 L-35.35 -15.5 -35.05 -13.9 Q-34.55 -11.65 -33.6 -9.85 L-32.65 -8.4 -31.5 -7.2 Q-29.9 -5.65 -27.55 -5.0 L-25.95 -4.65 -24.3 -9.45 M-35.65 -17.1 Q-47.55 -14.4 -61.95 -20.5 -73.45 -21.2 -82.3 -9.85 -107.85 22.0 -120.2 15.6 -113.6 24.55 -78.5 15.6 -53.9 6.05 -39.3 -3.6 L-32.65 -8.4 M-39.3 -3.6 L-54.85 15.95 Q-63.3 26.15 -67.35 38.2 -75.65 73.45 -90.15 92.25 -48.2 64.85 -41.05 39.95 L-25.95 -4.65" fill="none" stroke="#000000" stroke-linecap="round" stroke-linejoin="round" stroke-width="2.0"/>
  </g>
</svg>
