<?xml version="1.0" encoding="UTF-8" standalone="no"?>
<svg xmlns:xlink="http://www.w3.org/1999/xlink" height="84.2px" width="141.0px" xmlns="http://www.w3.org/2000/svg">
  <g transform="matrix(1.0, 0.0, 0.0, 1.0, 70.5, 42.1)">
    <path d="M69.3 -1.6 L69.3 -1.55 69.1 -0.5 68.05 4.8 66.7 8.85 Q62.9 4.4 59.5 1.1 49.15 -8.8 33.8 -11.45 5.7 -13.35 -20.0 0.25 -36.6 9.05 -52.3 24.35 L-52.35 24.45 Q-48.85 31.9 -50.0 36.15 L-47.05 34.3 -47.4 42.1 Q-60.75 39.55 -66.45 34.1 L-67.15 33.3 Q-69.65 30.7 -70.3 27.35 L-70.5 26.05 Q-67.25 5.1 -61.65 -7.35 L-58.85 -13.05 Q-51.2 -21.75 -45.45 -19.85 -34.65 -29.45 -21.85 -34.85 -3.6 -42.65 18.7 -42.05 44.0 -36.85 68.2 -17.35 72.0 -12.85 69.5 -3.9 L69.3 -1.6" fill="#9cffbb" fill-rule="evenodd" stroke="none"/>
  </g>
</svg>
