<?xml version="1.0" encoding="UTF-8" standalone="no"?>
<svg xmlns:xlink="http://www.w3.org/1999/xlink" height="92.65px" width="149.4px" xmlns="http://www.w3.org/2000/svg">
  <g transform="matrix(1.0, 0.0, 0.0, 1.0, 74.7, 46.35)">
    <path d="M-42.25 -23.1 Q-31.45 -32.7 -18.65 -38.1 -0.4 -45.9 21.9 -45.3 47.2 -40.1 71.4 -20.6 75.2 -16.1 72.7 -7.15 L72.5 -4.85 72.5 -4.8 72.3 -3.75 71.25 1.55 69.9 5.6 Q71.8 9.25 71.6 12.3 71.4 16.05 69.1 18.85 67.6 14.6 63.7 10.6 L61.25 8.25 Q52.45 0.95 39.4 -0.95 8.3 -4.8 -43.85 31.05 L-44.2 38.85 -44.2 43.75 Q-44.65 45.85 -48.85 45.15 -52.75 44.45 -53.7 40.75 -55.3 43.3 -62.7 39.85 -67.1 36.85 -67.3 33.9 -71.6 33.35 -73.7 29.35 -73.9 27.8 -67.1 24.1 L-67.3 22.8 Q-64.05 1.85 -58.45 -10.6 L-55.65 -16.3 Q-48.0 -25.0 -42.25 -23.1 L-54.25 -12.1 M69.9 5.6 Q66.1 1.15 62.7 -2.15 52.35 -12.05 37.0 -14.7 8.9 -16.6 -16.8 -3.0 -33.4 5.8 -49.1 21.1 L-49.15 21.2 Q-45.65 28.65 -46.8 32.9 L-43.85 31.05 M-67.1 24.1 Q-66.45 27.45 -63.95 30.05 L-63.25 30.85 Q-57.55 36.3 -44.2 38.85 M-49.1 21.1 Q-54.65 4.35 -51.15 -9.45" fill="none" stroke="#000000" stroke-linecap="round" stroke-linejoin="round" stroke-width="2.0"/>
  </g>
</svg>
