<?xml version="1.0" encoding="UTF-8" standalone="no"?>
<svg xmlns:xlink="http://www.w3.org/1999/xlink" height="99.8px" width="171.15px" xmlns="http://www.w3.org/2000/svg">
  <g transform="matrix(1.0, 0.0, 0.0, 1.0, 85.6, 49.9)">
    <path d="M51.55 -4.05 L52.2 -23.6 Q52.7 -29.45 48.85 -34.15 L46.15 -36.8 Q38.55 -42.95 21.85 -46.5 12.3 -43.25 3.4 -45.45 L-14.95 -48.45 Q-20.85 -49.95 -25.5 -46.65 -29.45 -43.85 -32.55 -37.55 -33.9 -34.8 -35.05 -31.45 L-42.9 -0.05 -44.2 4.0 Q-38.5 8.0 -20.1 11.85 -1.75 15.65 30.6 16.8 51.8 15.9 54.1 9.95 L51.55 -4.05 Q76.8 2.85 83.8 19.1 89.7 43.8 49.45 48.55 L41.85 48.9 41.5 48.9 Q-3.4 49.65 -57.8 22.9 -78.15 14.0 -83.0 5.5 -85.35 1.5 -84.3 -2.35 -77.55 -9.25 -59.95 1.7 -56.9 3.2 -42.9 -0.05 M54.1 9.95 Q55.3 24.15 43.7 29.25 L43.6 29.3 Q31.55 34.55 5.8 30.2 -4.35 28.45 -16.6 25.25 11.45 39.4 44.05 47.3 L49.45 48.55 M-16.6 25.25 Q-31.4 19.8 -46.4 10.65 L-59.95 1.7 M-46.4 10.65 L-44.2 4.0" fill="none" stroke="#000000" stroke-linecap="round" stroke-linejoin="round" stroke-width="2.0"/>
  </g>
</svg>
