<?xml version="1.0" encoding="UTF-8" standalone="no"?>
<svg xmlns:xlink="http://www.w3.org/1999/xlink" height="96.55px" width="142.25px" xmlns="http://www.w3.org/2000/svg">
  <g transform="matrix(1.0, 0.0, 0.0, 1.0, 71.1, 48.25)">
    <path d="M45.95 33.65 Q35.6 40.05 21.85 44.85 13.15 48.8 9.55 47.65 9.45 44.3 19.65 39.6 51.2 24.75 62.7 4.05 59.65 -17.65 40.9 -35.65 26.1 -27.0 10.55 -11.15 -13.8 -31.1 -31.6 -34.65 -52.75 -17.35 -59.4 4.3 -47.65 22.3 -26.9 32.7 -6.15 43.1 -3.5 48.3 L-5.3 48.3 Q-36.0 41.0 -53.9 25.2 -65.55 14.9 -71.1 5.0 -63.65 -18.25 -52.75 -30.65 -41.9 -43.1 -33.45 -48.1 -9.75 -41.85 10.8 -23.3 24.8 -38.95 40.35 -48.25 55.6 -35.7 62.9 -21.95 70.15 -8.2 71.15 0.6 61.65 21.4 45.95 33.65" fill="#faf286" fill-rule="evenodd" stroke="none"/>
  </g>
</svg>
