<?xml version="1.0" encoding="UTF-8" standalone="no"?>
<svg xmlns:xlink="http://www.w3.org/1999/xlink" height="124.2px" width="171.0px" xmlns="http://www.w3.org/2000/svg">
  <g transform="matrix(1.0, 0.0, 0.0, 1.0, 85.5, 62.1)">
    <path d="M83.7 5.9 L82.9 5.9 Q81.45 7.6 81.0 7.75 83.25 23.55 79.4 36.95 77.8 42.2 73.2 46.7 69.6 49.15 66.55 38.75 61.25 16.15 37.75 18.1 27.15 18.05 18.2 20.25 L17.65 20.4 15.75 20.95 Q-9.15 27.9 -20.7 53.15 -30.25 62.25 -39.5 60.95 -43.2 60.45 -46.8 58.3 -50.2 57.4 -54.8 44.15 -57.25 34.2 -59.2 24.25 -61.6 5.75 -58.85 -8.7 -61.75 -17.25 -71.6 -25.9 -87.1 -37.85 -84.0 -42.05 -63.25 -49.65 -32.3 -47.3 L-32.35 -47.25 -33.0 -46.7 Q-3.0 -66.8 29.4 -58.85 L36.5 -56.85 Q72.7 -44.75 79.35 -6.3 83.05 -2.0 84.5 3.25 L82.9 5.9 M79.35 -6.3 L74.55 -11.25 Q67.85 -17.35 56.8 -23.4 M-58.85 -8.7 Q-58.0 -12.3 -58.6 -17.55 M-34.25 -46.0 L-34.5 -45.7 -33.7 -46.25 -34.25 -46.0 -32.35 -47.25 M-33.7 -46.25 L-33.0 -46.7 M-34.25 -46.0 L-37.3 -44.5 -34.6 -45.7 -34.5 -45.7 M-37.3 -44.5 L-38.1 -44.15 M81.0 7.75 Q77.6 9.75 75.65 10.35 63.1 14.15 29.4 9.2 L25.3 8.5" fill="none" stroke="#000000" stroke-linecap="round" stroke-linejoin="round" stroke-width="2.0"/>
  </g>
</svg>
