<?xml version="1.0" encoding="UTF-8" standalone="no"?>
<svg xmlns:xlink="http://www.w3.org/1999/xlink" height="16.95px" width="95.4px" xmlns="http://www.w3.org/2000/svg">
  <g transform="matrix(1.0, 0.0, 0.0, 1.0, 40.95, 30.65)">
    <path d="M49.2 -28.1 L49.25 -27.9 50.45 -25.95 Q50.8 -24.65 50.45 -23.85 L50.15 -23.35 50.1 -23.3 Q49.75 -23.0 49.25 -23.0 48.45 -23.0 47.55 -23.85 46.75 -24.65 46.4 -25.95 46.0 -27.15 46.3 -28.1 L46.55 -28.6 Q46.9 -28.95 47.4 -28.95 48.3 -28.95 49.2 -28.1 M-32.1 -22.05 Q-32.1 -20.5 -33.2 -19.5 -34.25 -18.45 -35.8 -18.45 -37.3 -18.45 -38.4 -19.5 -39.35 -20.5 -39.35 -22.05 -39.35 -23.55 -38.4 -24.6 -37.3 -25.7 -35.8 -25.7 -34.25 -25.7 -33.2 -24.6 -32.1 -23.55 -32.1 -22.05" fill="#ffffff" fill-rule="evenodd" stroke="none"/>
    <path d="M49.2 -28.1 Q48.3 -28.95 47.4 -28.95 46.9 -28.95 46.55 -28.6 L46.3 -28.1 Q46.0 -27.15 46.4 -25.95 46.75 -24.65 47.55 -23.85 48.45 -23.0 49.25 -23.0 49.75 -23.0 50.1 -23.3 L50.15 -23.35 50.45 -23.85 Q50.8 -24.65 50.45 -25.95 L49.25 -27.9 49.2 -28.1 M45.85 -29.55 Q46.65 -30.65 48.0 -30.65 49.75 -30.65 51.45 -28.8 53.25 -27.1 54.0 -24.6 54.8 -22.1 54.1 -20.4 53.7 -19.15 52.8 -18.7 L51.75 -18.5 Q49.9 -18.5 48.15 -20.4 46.3 -22.1 45.55 -24.6 44.75 -27.1 45.45 -28.8 L45.85 -29.55 M-33.3 -28.55 Q-30.2 -28.55 -27.95 -26.3 -25.7 -24.1 -25.7 -21.05 -25.7 -18.05 -27.95 -15.8 -30.2 -13.7 -33.3 -13.7 -36.45 -13.7 -38.75 -15.8 -40.95 -18.05 -40.95 -21.05 -40.95 -24.1 -38.75 -26.3 -36.45 -28.55 -33.3 -28.55 M-32.1 -22.05 Q-32.1 -23.55 -33.2 -24.6 -34.25 -25.7 -35.8 -25.7 -37.3 -25.7 -38.4 -24.6 -39.35 -23.55 -39.35 -22.05 -39.35 -20.5 -38.4 -19.5 -37.3 -18.45 -35.8 -18.45 -34.25 -18.45 -33.2 -19.5 -32.1 -20.5 -32.1 -22.05" fill="#000000" fill-rule="evenodd" stroke="none"/>
  </g>
</svg>
