<?xml version="1.0" encoding="UTF-8" standalone="no"?>
<svg xmlns:xlink="http://www.w3.org/1999/xlink" height="77.35px" width="135.1px" xmlns="http://www.w3.org/2000/svg">
  <g transform="matrix(1.0, 0.0, 0.0, 1.0, 67.55, 38.7)">
    <path d="M31.45 -28.25 Q36.9 -24.6 43.15 -19.75 L45.05 -18.3 55.8 -8.7 Q60.8 -8.15 65.3 -4.5 59.85 0.7 60.9 10.95 61.65 17.85 67.55 23.95 L64.95 27.9 64.7 27.6 Q62.7 25.35 59.45 24.8 L54.35 24.6 16.15 24.6 Q0.4 24.85 -15.4 28.45 L-19.8 29.45 Q-33.25 32.8 -46.8 38.65 L-56.05 33.85 -57.25 33.55 Q-51.55 27.9 -51.1 18.4 -50.85 3.7 -67.55 3.75 -63.6 0.55 -58.1 -3.05 L-58.2 -1.9 Q-58.55 7.1 -48.1 5.25 -42.6 4.0 -38.2 1.65 L-36.35 0.55 Q-32.05 -2.3 -29.05 -6.35 -22.5 -17.1 -29.05 -20.65 L-33.25 -21.55 Q-9.35 -37.45 2.4 -38.6 14.05 -39.7 31.45 -28.25" fill="#8e77d9" fill-rule="evenodd" stroke="none"/>
  </g>
</svg>
