<?xml version="1.0" encoding="UTF-8" standalone="no"?>
<svg xmlns:xlink="http://www.w3.org/1999/xlink" height="64.6px" width="123.15px" xmlns="http://www.w3.org/2000/svg">
  <g transform="matrix(1.0, 0.0, 0.0, 1.0, 61.6, 32.3)">
    <path d="M-34.25 24.75 L-34.4 24.75 -34.45 24.65 Q-34.65 24.5 -34.9 24.5 -35.6 24.45 -36.15 24.95 -36.65 24.95 -37.05 25.55 L-37.1 25.65 -37.2 25.65 -37.9 25.5 Q-39.7 24.65 -42.25 24.1 L-48.1 23.8 Q-50.15 24.05 -52.1 24.65 -55.2 25.5 -56.45 27.0 -63.75 24.65 -60.75 14.0 -48.25 -11.35 -10.5 -23.55 45.45 -38.35 58.65 -28.05 L60.05 -26.7 Q62.5 -23.15 60.9 -16.0 58.95 -8.15 51.7 -2.4 L48.1 0.2 Q45.45 1.85 42.25 3.4 15.55 14.0 -12.45 19.45 L-12.3 18.15 Q-12.1 17.3 -12.3 16.6 -12.5 15.6 -13.3 15.05 L-13.9 14.65 -14.0 14.5 -14.1 14.5 -21.35 14.7 -22.2 15.05 -23.75 15.6 Q-27.75 17.6 -30.4 20.3 L-30.45 20.3 -30.9 20.8 -32.2 22.5 -33.75 25.2 -34.1 24.8 -34.25 24.75" fill="#b9fdd6" fill-rule="evenodd" stroke="none"/>
    <path d="M-30.4 20.3 L-30.9 20.8 -30.45 20.3 -30.4 20.3" fill="#82cbd7" fill-rule="evenodd" stroke="none"/>
    <path d="M-33.75 25.2 L-34.25 24.75 -34.1 24.8 -33.75 25.2 M-32.95 32.3 L-32.55 31.65 -32.4 31.65 -32.65 31.95 -32.7 32.2 -32.95 32.3" fill="#b6fdfb" fill-rule="evenodd" stroke="none"/>
  </g>
</svg>
