<?xml version="1.0" encoding="UTF-8" standalone="no"?>
<svg xmlns:xlink="http://www.w3.org/1999/xlink" height="45.45px" width="48.0px" xmlns="http://www.w3.org/2000/svg">
  <g transform="matrix(1.0, 0.0, 0.0, 1.0, 24.0, 22.75)">
    <path d="M19.35 -22.35 L19.45 -22.2 20.05 -21.8 Q20.85 -21.25 21.05 -20.25 21.25 -19.55 21.05 -18.7 L20.9 -17.4 20.5 -15.4 20.35 -14.9 19.7 -13.55 22.45 -11.55 23.1 -10.65 Q23.9 -9.55 23.9 -8.75 L24.0 -7.5 24.0 -7.45 Q23.9 -5.25 22.1 -3.9 20.65 -2.95 18.4 -2.55 L12.5 -1.9 13.15 1.15 Q14.8 9.2 13.5 16.6 L6.95 9.4 Q5.9 16.35 1.05 20.9 2.9 12.55 2.95 4.0 2.95 -0.05 2.55 -4.15 L0.95 -5.2 0.8 -5.2 0.4 -4.55 Q0.95 -0.3 0.4 3.8 -1.05 14.1 -8.6 22.7 L-9.6 13.9 -19.2 18.25 -12.85 5.8 -16.85 6.75 Q-18.3 7.0 -20.4 5.9 -21.35 5.45 -21.65 4.15 L-21.65 1.7 -21.3 -1.8 -21.8 -2.3 Q-23.55 -4.15 -23.95 -6.1 L-24.0 -7.65 Q-24.0 -8.8 -23.1 -9.85 -21.85 -11.35 -18.75 -12.2 L-14.75 -13.05 -8.9 -12.75 Q-6.35 -12.2 -4.55 -11.35 L-3.85 -11.2 -3.75 -11.2 -3.7 -11.3 Q-3.3 -11.9 -2.8 -11.9 -2.25 -12.4 -1.55 -12.35 L-1.1 -12.2 -1.05 -12.1 -0.9 -12.1 Q-0.75 -11.9 -0.4 -11.65 L1.15 -14.35 2.45 -16.05 2.95 -16.55 Q5.6 -19.25 9.6 -21.25 L11.15 -21.8 Q11.5 -22.05 12.0 -22.15 L19.25 -22.35 19.35 -22.35" fill="#06eb99" fill-rule="evenodd" stroke="none"/>
  </g>
</svg>
