<?xml version="1.0" encoding="UTF-8" standalone="no"?>
<svg xmlns:xlink="http://www.w3.org/1999/xlink" height="116.1px" width="230.05px" xmlns="http://www.w3.org/2000/svg">
  <g transform="matrix(1.0, 0.0, 0.0, 1.0, 115.05, 58.05)">
    <path d="M5.45 -45.75 L6.65 -45.15 6.85 -45.05 7.6 -44.3 10.05 -41.8 12.3 -39.45 Q21.4 -29.6 28.7 -18.3 L29.8 -16.55 24.75 -14.55 19.65 -12.25 15.2 -9.9 10.95 -6.5 11.65 -5.5 4.9 -3.45 -14.45 -0.95 -39.2 -0.1 -39.2 -0.15 Q-41.25 -2.5 -41.25 -4.95 -41.3 -7.45 -43.0 -12.2 -44.75 -17.0 -45.7 -17.75 -46.7 -18.5 -49.85 -23.7 L-53.65 -30.15 Q-56.4 -27.6 -73.0 -27.9 L-99.2 -29.55 -98.3 -29.85 Q-86.85 -33.85 -74.75 -43.25 L-68.65 -48.6 Q-58.35 -54.55 -44.2 -58.05 -14.4 -55.95 5.45 -45.75 M-114.15 41.4 Q-91.5 36.5 -71.75 25.9 -64.15 21.75 -48.25 16.35 -40.75 19.55 -27.7 19.6 2.4 19.85 21.8 11.85 L22.65 13.4 Q25.5 12.5 27.95 11.25 L31.75 9.75 Q35.05 8.25 37.85 6.75 L43.75 3.25 44.1 3.4 44.15 3.45 44.45 3.6 Q57.05 8.0 78.55 5.6 99.15 2.6 115.0 -11.45 112.5 6.0 87.75 17.7 80.95 20.6 72.55 23.45 33.4 36.55 -40.75 47.8 L-56.85 50.15 -69.0 51.55 -75.05 51.8 -87.6 50.95 Q-92.55 50.3 -97.1 49.05 L-97.7 48.9 Q-106.7 46.35 -114.0 41.5 L-114.15 41.4" fill="#c2facb" fill-rule="evenodd" stroke="none"/>
    <path d="M27.35 -5.25 L26.65 -6.3 26.75 -6.3 27.35 -5.25" fill="#852f8a" fill-rule="evenodd" stroke="none"/>
    <path d="M37.35 -0.7 L37.2 -1.65 36.6 -2.75 37.7 -0.85 37.35 -0.7 M-114.0 41.5 L-114.4 42.1 -115.05 41.55 -114.15 41.4 -114.0 41.5 M-92.65 57.4 L-89.45 57.85 -88.3 58.0 -88.2 58.05 -92.65 57.4 M44.75 37.8 L53.95 35.85 60.95 34.4 44.75 37.8" fill="#cb5bbd" fill-rule="evenodd" stroke="none"/>
    <path d="M44.15 3.45 L44.45 3.55 44.45 3.6 44.15 3.45" fill="#200931" fill-rule="evenodd" stroke="none"/>
  </g>
</svg>
