<?xml version="1.0" encoding="UTF-8" standalone="no"?>
<svg xmlns:xlink="http://www.w3.org/1999/xlink" height="169.7px" width="245.2px" xmlns="http://www.w3.org/2000/svg">
  <g transform="matrix(1.0, 0.0, 0.0, 1.0, 122.6, 84.85)">
    <path d="M45.55 39.0 L53.15 44.15 60.9 54.85 Q65.85 61.8 79.0 70.45 99.3 76.8 122.6 73.5 109.65 88.15 79.4 83.85 29.7 74.75 -74.8 25.2 -81.3 22.3 -86.9 19.0 -96.5 13.55 -103.8 7.1 -108.05 3.4 -111.55 -0.55 L-111.95 -1.0 Q-118.65 -8.95 -122.55 -17.9 L-122.6 -18.05 Q-98.55 -8.7 -74.9 -6.05 -65.6 -7.95 -54.0 -4.1 -41.0 6.65 -28.95 14.75 -7.05 29.45 11.85 35.35 L11.5 35.35 11.2 37.5 15.9 38.95 19.35 39.9 25.1 41.15 35.65 42.0 36.0 39.25 45.45 38.55 45.55 39.0 M35.55 22.15 Q26.95 -10.0 -8.05 -37.8 L-16.8 -44.35 -20.95 -47.3 Q-25.7 -64.35 -35.35 -74.7 L-44.4 -84.85 Q-27.55 -83.15 -9.65 -74.85 28.0 -51.7 42.8 -24.15 48.15 0.8 46.1 26.25 L37.7 25.45 37.9 23.3 36.9 22.85 35.55 22.15 M14.05 17.55 L14.05 17.65 13.95 19.1 Q-1.8 12.9 -17.95 1.5 L-18.95 0.95 -26.25 -4.55 -26.55 -4.8 -29.55 -7.15 -29.7 -7.25 -29.85 -7.4 -29.7 -7.75 Q-26.35 -11.7 -24.2 -17.15 L-23.75 -18.55 Q-22.15 -23.15 -21.35 -28.7 L-21.2 -29.15 -19.55 -33.75 -9.05 -21.25 -8.0 -19.95 Q7.1 -0.9 17.3 17.55 L14.05 17.55" fill="#063111" fill-rule="evenodd" stroke="none"/>
  </g>
</svg>
