<?xml version="1.0" encoding="UTF-8" standalone="no"?>
<svg xmlns:xlink="http://www.w3.org/1999/xlink" height="104.25px" width="147.4px" xmlns="http://www.w3.org/2000/svg">
  <g transform="matrix(1.0, 0.0, 0.0, 1.0, 73.7, 52.15)">
    <path d="M31.55 -49.4 Q44.6 -55.65 59.8 -47.7 65.35 -44.25 68.6 -40.35 73.55 -34.6 73.7 -27.55 73.15 -10.75 53.55 -10.0 49.75 -16.55 43.9 -21.85 L42.85 -22.8 37.35 -27.1 Q30.75 -31.7 23.65 -33.6 21.8 -44.15 31.55 -49.4 M6.5 -12.6 L8.05 -14.0 10.25 -12.2 Q10.8 -10.3 8.45 -8.5 5.6 -10.0 5.85 -12.6 L6.5 -12.6 M37.8 -17.9 Q42.7 -17.9 46.25 -16.3 49.75 -14.75 49.75 -12.5 49.75 -10.3 46.25 -8.75 42.7 -7.15 37.8 -7.15 32.8 -7.15 29.3 -8.75 25.75 -10.3 25.75 -12.5 25.75 -14.75 29.3 -16.3 32.8 -17.9 37.8 -17.9 M61.85 36.35 Q62.4 40.55 59.6 41.35 L44.2 46.1 Q33.75 49.55 12.65 47.65 L-7.75 46.8 Q-17.0 46.65 -29.35 49.9 -37.0 51.8 -42.15 52.1 -56.9 52.45 -56.95 46.1 L-57.0 39.0 -59.25 37.7 Q-61.5 36.5 -61.45 32.1 -61.55 31.05 -60.6 30.7 L-57.9 30.5 -43.05 29.95 -41.2 29.85 -39.8 29.8 Q-14.05 28.5 10.6 29.1 22.8 29.35 32.4 28.65 53.4 27.05 62.05 20.75 63.15 23.0 63.2 26.55 62.95 29.4 60.75 30.35 L61.85 36.35 M-52.2 -9.05 Q-67.85 -7.35 -72.3 -18.3 -75.9 -28.25 -70.25 -37.75 -65.95 -43.85 -60.0 -47.0 -53.95 -50.2 -46.15 -50.5 -33.6 -50.8 -25.9 -43.2 -22.25 -38.9 -23.6 -32.55 -38.8 -25.55 -48.3 -14.2 L-52.2 -9.05 M-32.5 -14.85 Q-28.3 -16.65 -22.3 -16.65 L-20.85 -16.65 -19.45 -16.3 -16.3 -16.1 -12.2 -14.85 Q-8.0 -13.0 -8.0 -10.45 -8.0 -7.8 -12.2 -6.05 -16.35 -4.15 -22.3 -4.15 -28.3 -4.15 -32.5 -6.05 -36.65 -7.8 -36.65 -10.45 -36.65 -13.0 -32.5 -14.85" fill="#2c9f42" fill-rule="evenodd" stroke="none"/>
  </g>
</svg>
