<?xml version="1.0" encoding="UTF-8" standalone="no"?>
<svg xmlns:xlink="http://www.w3.org/1999/xlink" height="58.65px" width="128.8px" xmlns="http://www.w3.org/2000/svg">
  <g transform="matrix(1.0, 0.0, 0.0, 1.0, 64.4, 29.35)">
    <path d="M-63.1 -17.0 L-62.45 -23.1 Q-62.05 -26.95 -55.05 -29.35 L-57.95 -25.55 Q-66.45 -20.4 -2.5 -18.8 62.1 -17.25 59.15 -21.85 60.0 -23.75 56.65 -26.15 63.55 -23.9 64.2 -15.85 59.7 -9.2 2.65 -10.2 -54.4 -11.2 -63.1 -17.0 M-62.8 25.7 L-64.05 23.75 -64.4 16.5 Q-36.8 21.35 12.75 21.25 62.3 21.1 64.4 15.2 63.35 23.3 62.6 26.35 61.9 27.15 49.8 28.05 L19.4 29.2 Q1.1 29.45 -18.3 29.2 -37.8 28.9 -62.8 25.7" fill="#f5f5f5" fill-rule="evenodd" stroke="none"/>
  </g>
</svg>
