<?xml version="1.0" encoding="UTF-8" standalone="no"?>
<svg xmlns:xlink="http://www.w3.org/1999/xlink" height="97.3px" width="136.4px" xmlns="http://www.w3.org/2000/svg">
  <g transform="matrix(1.0, 0.0, 0.0, 1.0, 68.2, 48.65)">
    <path d="M-55.55 9.9 Q-54.55 3.9 -52.6 -1.4 -62.8 14.45 -61.2 21.4 -60.3 26.65 -56.55 30.35 -56.95 27.1 -54.65 26.5 -49.4 26.15 -45.45 28.15 -45.2 26.6 -43.3 25.8 -41.75 25.55 -40.85 26.3 -35.55 18.7 -30.0 15.7 -29.3 16.1 -28.7 16.9 -16.75 7.5 1.9 -2.4 18.7 -10.25 31.35 -18.65 41.6 -27.4 51.05 -26.25 54.75 -25.95 57.7 -25.05 59.95 -24.4 61.8 -23.35 L63.8 -24.7 Q67.2 -27.65 67.2 -33.05 67.2 -38.45 63.7 -40.35 43.15 -49.6 18.3 -47.15 26.35 -47.7 32.0 -46.2 M18.3 -47.15 L17.45 -47.05 Q-13.55 -45.2 -40.5 -21.05 -48.5 -12.85 -52.5 -1.65 L-52.6 -1.4 M-28.7 16.9 Q-28.0 17.85 -27.45 19.45 L-26.7 21.9 -26.05 24.6 Q-14.85 16.15 1.0 8.95 17.7 1.65 29.9 -8.7 45.15 -21.65 54.45 -21.65 57.05 -21.7 59.25 -22.3 60.65 -22.75 61.8 -23.35 M-39.6 30.9 L-39.95 30.85 Q-40.25 31.65 -41.0 32.05 L-43.2 32.0 Q-44.65 34.9 -46.45 36.85 L-47.6 41.6 -48.05 44.05 -48.4 47.1 Q-46.5 46.0 -43.95 43.2 -41.05 44.95 -39.9 46.75 L-39.6 43.75 -39.45 41.35 Q-39.25 36.1 -39.6 30.9 -35.9 31.5 -29.65 31.15 -25.35 30.75 -25.6 27.4 L-26.05 24.6 M-40.85 26.3 Q-40.2 26.85 -39.95 28.1 -39.55 29.8 -39.95 30.85 M-54.35 35.45 Q-56.7 37.05 -59.7 38.65 L-62.8 40.25 -67.2 42.25 Q-63.8 42.75 -59.05 42.3 -60.15 45.9 -60.15 47.65 L-57.0 45.25 -54.7 43.4 -49.45 38.6 Q-51.3 38.75 -52.8 37.7 L-54.35 35.45 Q-55.75 33.3 -56.3 31.5 L-56.55 30.35 M-43.2 32.0 Q-44.65 31.5 -45.3 29.75 L-45.45 28.15 M-49.45 38.6 L-49.1 38.55 -48.2 38.3 -46.45 36.85" fill="none" stroke="#000000" stroke-linecap="round" stroke-linejoin="round" stroke-width="2.0"/>
  </g>
</svg>
