<?xml version="1.0" encoding="UTF-8" standalone="no"?>
<svg xmlns:xlink="http://www.w3.org/1999/xlink" height="70.9px" width="84.35px" xmlns="http://www.w3.org/2000/svg">
  <g transform="matrix(1.0, 0.0, 0.0, 1.0, 107.05, 47.45)">
    <path d="M-73.4 -7.25 Q-76.4 -3.35 -78.75 -2.0 -83.05 -3.15 -79.15 -12.9 L-86.95 -11.6 Q-94.5 -10.25 -100.4 -17.3 -107.4 -25.35 -107.05 -32.7 -104.6 -37.95 -89.85 -34.4 -79.65 -31.7 -74.1 -22.95 -80.1 -37.95 -79.7 -43.15 -71.75 -42.2 -67.5 -31.6 -68.95 -31.5 -70.1 -30.75 -73.05 -28.05 -70.6 -25.6 -75.05 -20.35 -73.6 -17.35 -72.3 -15.45 -69.1 -13.65 -71.4 -9.9 -73.4 -7.25" fill="#86e7f0" fill-rule="evenodd" stroke="none"/>
    <path d="M-54.15 -29.8 Q-53.6 -35.95 -48.3 -34.3 -44.6 -35.65 -43.7 -32.95 -41.05 -30.25 -42.4 -27.6 -43.8 -25.4 -46.15 -25.9 -46.9 -23.45 -49.4 -22.75 -52.7 -21.95 -53.75 -24.0 -58.2 -25.2 -54.15 -29.8" fill="#cbf7fe" fill-rule="evenodd" stroke="none"/>
    <path d="M-70.6 -25.6 Q-73.05 -28.05 -70.1 -30.75 -68.95 -31.5 -67.5 -31.6 L-65.05 -31.5 Q-63.35 -31.2 -61.35 -30.3 -57.9 -27.0 -59.25 -23.75 -59.8 -19.65 -64.35 -22.15 -70.7 -19.55 -69.95 -25.05 L-70.6 -25.6" fill="#ffb0ee" fill-rule="evenodd" stroke="none"/>
    <path d="M-73.4 -7.25 Q-71.4 -9.9 -69.1 -13.65 -67.7 -12.9 -64.0 -12.9 -58.7 -12.8 -52.45 -14.5 -53.2 5.55 -50.4 22.5 -56.7 23.95 -63.95 22.75 -69.55 16.35 -73.9 14.4 L-75.85 23.45 Q-89.25 20.05 -89.65 16.7 L-73.4 -7.25" fill="#ffffff" fill-rule="evenodd" stroke="none"/>
    <path d="M-28.4 -45.7 Q-27.75 -44.35 -28.1 -42.15 -24.1 -41.85 -22.7 -38.6 -22.9 -32.75 -27.65 -33.95 -28.0 -31.25 -31.1 -29.3 -36.4 -27.6 -36.05 -31.2 -40.5 -32.2 -40.45 -34.15 -40.65 -38.4 -35.7 -40.05 -35.2 -43.5 -33.45 -45.45 -32.3 -46.8 -30.5 -47.45 -29.05 -46.9 -28.4 -45.7" fill="#fff39a" fill-rule="evenodd" stroke="none"/>
  </g>
</svg>
