<?xml version="1.0" encoding="UTF-8" standalone="no"?>
<svg xmlns:xlink="http://www.w3.org/1999/xlink" height="34.05px" width="78.75px" xmlns="http://www.w3.org/2000/svg">
  <g transform="matrix(1.0, 0.0, 0.0, 1.0, 39.35, 17.05)">
    <path d="M32.2 -5.15 Q28.4 -6.95 22.2 -8.35 19.65 -9.65 22.1 -12.4 L26.9 -9.7 32.2 -5.15 M39.15 13.6 Q33.9 13.35 28.6 13.45 25.2 11.2 23.2 8.45 18.8 2.3 21.35 -1.75 27.05 -4.5 32.55 -0.5 38.0 2.7 39.3 10.1 39.6 12.2 39.15 13.6 M5.6 6.15 Q9.65 5.25 13.3 6.55 15.15 7.0 14.25 8.6 L11.65 10.25 Q10.0 11.4 7.2 10.05 L4.45 8.65 Q1.65 7.0 5.6 6.15 M-30.8 10.5 Q-30.4 2.35 -22.65 -1.15 -15.0 -5.6 -5.5 -2.55 -0.6 1.9 -6.8 9.4 -9.95 13.3 -19.05 16.55 -30.7 18.7 -30.8 10.5 M-33.6 -1.35 Q-38.6 0.8 -39.3 -4.7 -40.05 -11.25 -31.65 -15.45 -24.4 -17.9 -16.1 -16.55 -8.5 -12.85 -12.2 -10.15 -25.45 -5.7 -33.6 -1.35" fill="#45408c" fill-rule="evenodd" stroke="none"/>
  </g>
</svg>
