<?xml version="1.0" encoding="UTF-8" standalone="no"?>
<svg xmlns:xlink="http://www.w3.org/1999/xlink" height="115.6px" width="126.65px" xmlns="http://www.w3.org/2000/svg">
  <g transform="matrix(1.0, 0.0, 0.0, 1.0, 63.35, 57.8)">
    <path d="M-12.45 -30.85 L-23.8 -29.95 Q-33.0 -28.5 -39.55 -22.1 -43.55 -18.15 -46.9 -12.5 -50.25 -14.2 -53.1 -17.05 -60.1 -24.05 -60.1 -33.95 -60.1 -43.8 -53.1 -50.8 -46.1 -57.8 -36.2 -57.8 -26.3 -57.8 -19.3 -50.8 -12.35 -43.8 -12.35 -33.9 L-12.45 -30.85 M40.3 -8.65 Q43.3 -9.65 49.6 -9.7 59.0 -10.85 62.75 -2.6 64.05 0.3 62.2 3.3 59.9 6.45 48.15 6.8 37.9 11.65 27.4 13.15 18.75 19.5 8.6 20.95 -0.05 30.1 -13.5 33.5 L-18.9 38.65 Q-23.75 43.4 -36.15 44.95 -39.25 50.25 -49.9 55.25 -60.55 60.2 -62.95 55.6 L-63.3 52.45 Q-63.55 47.7 -62.2 43.35 -61.2 39.8 -58.2 36.85 -53.95 31.4 -48.0 29.7 -40.65 20.35 -28.1 17.1 -16.8 5.85 -1.25 3.35 9.05 -4.65 21.85 -4.95 30.35 -9.85 40.3 -8.65" fill="#ffffff" fill-rule="evenodd" stroke="none"/>
  </g>
</svg>
