<?xml version="1.0" encoding="UTF-8" standalone="no"?>
<svg xmlns:xlink="http://www.w3.org/1999/xlink" height="197.6px" width="200.15px" xmlns="http://www.w3.org/2000/svg">
  <g transform="matrix(1.0, 0.0, 0.0, 1.0, 100.1, 98.8)">
    <path d="M-22.25 -43.9 L-23.35 -44.8 -28.0 -48.75 Q-26.65 -42.1 -24.85 -39.45 L-21.75 -35.05 Q-25.2 -36.3 -21.1 -28.0 L-20.4 -26.65 -19.3 -24.7 Q-15.8 -18.8 -11.1 -15.25 L-9.4 -14.5 -8.7 -14.3 -4.95 -13.45 5.95 -12.95 43.15 -10.35 Q49.3 -9.9 54.55 -10.2 60.4 -10.55 65.15 -11.75 69.35 -13.15 76.4 -17.45 78.6 -18.35 81.5 -23.2 L73.2 -19.85 Q87.4 -31.2 85.65 -46.65 82.85 -39.6 78.05 -35.3 86.95 -57.1 76.65 -68.9 70.1 -76.05 66.95 -82.75 63.55 -78.2 68.0 -71.55 56.1 -85.8 42.0 -89.75 L45.3 -82.6 37.85 -90.3 Q35.35 -92.9 27.7 -96.2 26.7 -92.55 24.85 -89.55 24.1 -88.4 24.1 -85.5 23.7 -88.25 22.75 -91.6 21.75 -94.95 19.15 -97.8 17.7 -94.2 13.0 -91.4 8.25 -88.65 5.45 -82.8 5.75 -85.5 11.95 -93.85 -7.05 -90.0 -12.15 -79.2 -13.25 -76.85 -13.1 -73.9 -15.85 -77.9 -14.8 -84.8 -19.0 -81.3 -20.4 -71.6 L-20.9 -66.5 Q-22.05 -55.05 -15.65 -45.25 M65.15 -11.75 Q70.95 -2.95 76.65 13.05 77.95 17.7 69.05 8.15 82.6 31.65 83.35 48.2 81.45 47.2 75.35 30.0 L78.8 48.45 Q80.9 66.15 78.3 66.7 76.6 64.25 76.75 55.95 72.7 71.4 66.55 75.9 L66.6 75.9 74.2 75.6 Q77.25 75.1 80.2 74.05 84.05 72.6 87.75 70.15 L89.4 68.95 Q93.35 65.8 93.8 60.7 94.0 57.85 93.1 54.35 89.3 43.65 85.5 35.25 L83.1 27.95 Q83.7 14.95 82.05 1.45 80.4 -12.1 76.4 -17.45 M87.75 70.15 L87.75 70.2 Q94.55 76.15 99.05 72.95 99.0 68.1 93.8 60.7 M74.2 75.6 L74.2 75.7 Q75.45 87.9 81.3 95.75 82.95 98.05 86.8 97.8 L90.9 97.5 Q101.0 97.05 93.9 91.0 L88.25 86.2 Q81.2 78.45 80.2 74.05 83.35 79.25 89.55 79.5 95.7 79.7 87.75 70.2 M54.55 -10.2 Q61.85 0.0 63.5 14.85 67.15 36.25 63.5 46.2 61.75 50.45 63.35 58.2 64.7 65.0 62.5 71.1 L62.45 71.8 Q62.5 77.2 64.15 77.2 65.4 76.75 66.55 75.9 M69.05 8.15 L68.75 7.7 M66.6 75.9 Q64.35 82.8 69.9 85.85 73.65 85.35 74.2 75.7 M-20.9 -66.5 Q-22.35 -67.8 -22.95 -64.35 -28.65 -50.15 -23.35 -44.8 M-22.95 -64.35 Q-37.55 -63.55 -49.2 -51.1 -56.65 -41.1 -52.7 -35.55 -64.75 -19.85 -68.45 1.5 L-69.6 6.85 -69.8 7.65 Q-75.55 29.05 -86.95 45.8 -94.5 56.85 -89.45 63.35 L-88.55 64.35 Q-85.05 67.9 -80.45 70.7 L-77.7 72.25 Q-74.8 73.75 -71.45 74.95 -67.45 76.45 -62.9 77.5 L-60.35 78.05 Q-51.2 79.55 -42.35 76.65 L-40.95 75.95 Q-33.4 71.7 -28.6 63.25 -26.6 59.65 -25.1 55.25 -22.15 48.0 -20.4 40.1 -18.3 30.95 -17.8 20.9 -16.15 5.15 -17.15 -8.9 -17.35 -12.05 -17.7 -14.9 -18.25 -20.4 -19.3 -24.7 M-17.7 -14.9 L-15.7 -15.8 Q-11.8 -13.4 -8.7 -14.3 M-28.6 63.25 Q-33.15 80.25 -25.0 66.45 -22.35 61.15 -20.4 55.65 -17.25 46.85 -15.7 37.75 -13.8 27.9 -15.2 18.1 -12.4 30.85 -11.55 30.1 -9.4 28.0 -11.5 7.1 -12.05 -2.0 -15.7 -15.8 M-77.7 72.25 Q-84.25 79.45 -93.4 84.55 L-97.65 86.95 Q-101.55 88.45 -94.9 91.65 L-91.75 93.4 Q-87.25 95.35 -83.05 92.2 -77.45 88.2 -73.95 81.1 -72.55 78.3 -71.45 74.95 M-60.35 78.05 Q-64.35 81.35 -63.8 84.4 -63.2 86.45 -58.6 85.8 -50.3 84.55 -40.95 75.95 M-73.95 81.1 Q-67.3 82.5 -60.35 78.05 M-89.45 63.35 Q-89.05 70.15 -85.6 75.9 -82.85 76.1 -80.45 70.7" fill="none" stroke="#000000" stroke-linecap="round" stroke-linejoin="round" stroke-width="2.0"/>
  </g>
</svg>
