<?xml version="1.0" encoding="UTF-8" standalone="no"?>
<svg xmlns:xlink="http://www.w3.org/1999/xlink" height="104.5px" width="160.6px" xmlns="http://www.w3.org/2000/svg">
  <g transform="matrix(1.0, 0.0, 0.0, 1.0, 80.3, 52.25)">
    <path d="M-68.0 13.75 Q-73.3 11.95 -79.3 7.45 -78.15 -46.9 -24.75 -50.9 L-23.0 -51.05 Q15.2 -53.25 33.8 -33.8 40.55 -26.7 44.9 -5.9 45.55 -2.85 46.75 0.3 53.45 18.45 77.75 39.35 81.6 45.8 75.75 42.7 58.6 30.3 19.75 47.45 -0.65 54.75 -17.85 48.1 -38.85 39.0 -52.75 16.2 -60.0 16.25 -68.0 13.75 -13.2 -30.5 46.75 0.3 M-52.75 16.2 L-44.3 15.35" fill="none" stroke="#000000" stroke-linecap="round" stroke-linejoin="round" stroke-width="2.0"/>
  </g>
</svg>
