<?xml version="1.0" encoding="UTF-8" standalone="no"?>
<svg xmlns:xlink="http://www.w3.org/1999/xlink" height="83.45px" width="155.85px" xmlns="http://www.w3.org/2000/svg">
  <g transform="matrix(1.0, 0.0, 0.0, 1.0, 77.95, 41.75)">
    <path d="M21.1 3.65 Q18.65 1.45 15.85 3.7 15.65 1.9 14.1 0.6 12.35 -1.0 9.85 -1.0 7.75 -1.0 6.15 0.1 5.9 -2.2 3.85 -3.85 1.6 -5.75 -1.6 -5.75 -4.85 -5.75 -7.15 -3.85 L-7.25 -3.75 -7.25 -4.05 Q-7.25 -6.7 -8.95 -8.6 -10.6 -10.5 -13.05 -10.5 -15.45 -10.5 -17.15 -8.6 L-17.4 -8.35 Q-17.05 -9.25 -17.05 -10.3 L-17.15 -11.45 Q-17.5 -13.4 -19.0 -14.85 -20.9 -16.6 -23.6 -16.6 -25.7 -16.6 -27.35 -15.55 L-27.35 -15.8 Q-27.35 -18.65 -28.95 -20.65 -30.55 -22.65 -32.8 -22.65 -34.9 -22.65 -36.35 -20.95 L-36.2 -22.35 Q-36.2 -24.2 -37.15 -25.5 -38.0 -26.7 -39.3 -26.7 L-40.0 -26.6 -29.1 -40.75 Q-21.15 -45.0 24.15 -31.1 L44.4 -24.9 Q42.85 -20.75 42.0 -16.6 39.45 -4.4 42.6 7.8 35.8 1.2 26.65 -0.55 23.05 -0.15 21.1 3.65 M57.95 28.0 L59.25 27.3 Q68.95 34.4 77.9 36.45 63.65 42.8 51.95 41.3 56.45 36.0 57.95 28.0 M32.4 31.05 Q35.8 30.85 39.9 29.75 L45.45 28.7 Q41.1 34.0 33.9 37.45 39.95 38.85 46.3 36.05 L45.9 41.7 39.85 40.9 Q-9.1 35.55 -48.9 16.0 -57.6 11.75 -65.9 6.75 -81.45 -1.1 -76.95 -10.45 -73.05 -18.55 -47.9 -13.5 L-51.2 -7.1 Q-42.4 1.85 -32.5 5.85 L-41.85 4.65 -36.25 8.6 Q-17.1 21.7 1.6 28.05 8.95 30.55 16.15 32.0 28.5 33.45 32.4 31.05" fill="#fef7fc" fill-rule="evenodd" stroke="none"/>
  </g>
</svg>
