<?xml version="1.0" encoding="UTF-8" standalone="no"?>
<svg xmlns:xlink="http://www.w3.org/1999/xlink" height="92.15px" width="153.4px" xmlns="http://www.w3.org/2000/svg">
  <g transform="matrix(1.0, 0.0, 0.0, 1.0, 76.7, 46.1)">
    <path d="M74.2 0.35 L74.45 1.75 74.7 2.85 75.1 6.6 75.15 7.45 75.15 10.85 72.4 10.3 Q38.9 3.8 4.0 2.9 1.0 8.35 -10.75 9.9 1.5 12.25 7.8 16.3 5.65 27.4 -2.3 36.2 L-3.15 37.1 -5.2 35.7 Q-7.55 34.1 -9.95 32.65 L-13.0 30.75 Q-21.6 25.7 -31.1 22.05 -34.2 28.9 -37.6 35.25 L-43.8 46.05 Q-54.75 44.2 -62.1 39.35 -60.9 36.7 -58.9 34.3 L-54.5 28.55 Q-59.5 31.3 -63.3 29.9 -65.6 29.0 -67.0 26.5 -68.65 23.75 -69.05 20.5 -69.45 17.9 -69.0 15.0 -71.2 15.6 -73.2 16.45 -75.35 11.25 -74.8 4.75 -76.95 -0.55 -76.65 -7.0 -72.35 -8.6 -68.3 -9.25 -39.6 -57.1 23.35 -42.8 60.45 -32.15 76.7 -5.2 L74.2 0.35" fill="#919191" fill-rule="evenodd" stroke="none"/>
  </g>
</svg>
