<?xml version="1.0" encoding="UTF-8" standalone="no"?>
<svg xmlns:xlink="http://www.w3.org/1999/xlink" height="94.15px" width="178.5px" xmlns="http://www.w3.org/2000/svg">
  <g transform="matrix(1.0, 0.0, 0.0, 1.0, 89.25, 47.1)">
    <path d="M11.5 30.75 Q9.85 33.85 8.75 34.55 7.5 33.5 7.15 31.0 L11.5 30.75" fill="#ffffff" fill-rule="evenodd" stroke="none"/>
    <path d="M-49.8 -14.7 Q-49.25 -10.6 -46.15 -7.2 -42.55 -9.6 -37.5 -9.3 -28.95 -28.9 -16.05 -34.5 -8.2 -28.05 -5.95 -18.55 -1.7 -15.15 0.25 -11.0 L7.45 -10.85 Q4.2 -15.45 4.15 -19.35 M-37.5 -9.3 L-36.3 -9.2 Q-30.0 -0.45 -27.8 10.4 L-27.8 10.45 -12.35 9.9 Q-0.6 8.35 2.4 2.9 L2.55 -0.85 Q2.4 -1.05 2.35 -2.0 2.3 -3.8 1.85 -5.85 L1.6 -7.05 0.25 -11.0 M7.45 -10.85 L26.65 -9.8 Q30.65 -15.95 31.9 -23.4 M56.1 -12.8 Q57.3 -8.75 56.0 -4.8 L59.7 -3.8 Q63.4 -9.2 63.4 -15.75 M8.75 34.55 Q6.05 36.3 3.1 36.2 L-3.9 36.2 -4.75 37.1 -6.8 35.7 -14.45 36.1 Q-14.75 34.0 -17.05 32.5 -23.2 36.1 -29.7 32.45 -30.15 32.25 -30.55 32.15 -31.05 35.35 -32.45 37.9 -35.8 37.35 -39.2 35.25 L-45.4 46.05 Q-56.35 44.2 -63.7 39.35 -62.5 36.7 -60.5 34.3 L-64.8 33.6 Q-65.4 36.15 -66.75 37.05 -71.05 38.6 -74.6 35.0 -76.05 37.9 -79.2 39.05 L-79.25 39.05 Q-84.5 33.8 -88.25 28.2 -82.9 19.95 -74.8 16.45 -76.95 11.25 -76.4 4.75 -78.55 -0.55 -78.25 -7.0 -73.95 -8.6 -69.9 -9.25 -41.2 -57.1 21.75 -42.8 58.85 -32.15 75.1 -5.2 L72.6 0.35 72.85 1.75 73.1 2.85 73.5 6.6 73.55 7.45 73.55 10.85 88.25 28.1 Q87.3 33.55 83.2 35.65 80.7 34.85 79.25 33.2 77.4 34.7 76.0 36.3 72.8 39.35 63.55 38.2 61.5 36.7 60.65 35.2 56.2 37.45 51.6 39.35 L47.65 39.6 Q45.95 37.25 46.15 34.65 41.95 35.65 37.25 37.65 33.15 39.2 28.1 38.05 L28.15 38.05 Q26.4 35.4 26.75 32.8 L18.05 32.3 Q15.6 32.0 13.95 31.25 L11.5 30.75 Q9.85 33.85 8.75 34.55 7.5 33.5 7.15 31.0 6.15 24.8 10.4 9.5 M26.65 -9.8 Q42.2 -8.35 56.0 -4.8 M79.25 33.2 L83.2 30.5 83.2 29.7 70.8 10.3 Q37.3 3.8 2.4 2.9 M83.2 30.5 L83.2 35.65 M73.55 10.85 L70.8 10.3 M47.65 39.6 Q50.05 36.35 54.2 33.5 L54.2 33.45 Q50.45 33.5 46.15 34.65 M55.45 10.0 Q59.25 21.25 67.25 32.05 66.15 34.9 63.55 38.2 M54.2 33.45 Q47.95 21.95 45.1 11.7 M60.65 35.2 Q63.9 33.5 67.25 32.05 M11.5 30.75 L7.15 31.0 M28.15 38.05 Q31.55 35.9 37.4 33.8 L37.0 32.25 26.75 32.8 M33.7 16.25 Q34.75 24.65 37.0 32.25 M59.7 -3.8 Q66.35 -2.0 72.6 0.35 M-69.9 -9.25 Q-58.45 -11.15 -48.35 -5.45 L-46.15 -7.2 M-5.95 -18.55 Q-5.3 -15.95 -5.15 -13.0 M-27.8 10.45 L-32.7 22.05 Q-23.2 25.7 -14.6 30.75 L-11.55 32.65 Q-9.15 34.1 -6.8 35.7 M-32.45 37.9 L-34.45 32.6 Q-35.05 31.0 -34.3 29.6 M-30.55 32.15 Q-32.45 31.7 -34.45 32.6 M-14.45 36.1 Q-12.9 35.0 -11.55 32.65 M-14.6 30.75 Q-15.85 31.8 -17.05 32.5 M-32.7 22.05 Q-35.8 28.9 -39.2 35.25 M-76.4 4.75 Q-74.4 9.55 -70.35 13.4 -67.6 15.9 -63.85 18.0 M-74.8 16.45 Q-72.8 15.6 -70.6 15.0 L-70.35 13.4 M-70.6 15.0 Q-71.05 17.9 -70.65 20.5 -70.25 23.75 -68.6 26.5 -67.2 29.0 -64.9 29.9 -61.1 31.3 -56.1 28.55 -49.75 25.0 -41.55 14.7 -47.45 6.15 -48.35 -5.45 M-68.6 26.5 Q-70.5 30.65 -69.05 32.9 L-64.8 33.6 M-69.05 32.9 L-69.1 32.9 -66.75 37.05 M-74.6 35.0 Q-76.35 33.25 -77.9 30.35 M-79.25 39.05 Q-80.65 34.9 -80.0 28.7 -76.85 24.75 -70.65 20.5 M-60.5 34.3 L-56.1 28.55 M-41.55 14.7 Q-33.75 14.9 -27.8 10.4 M-12.35 9.9 Q-0.1 12.25 6.2 16.3 4.05 27.4 -3.9 36.2" fill="none" stroke="#000000" stroke-linecap="round" stroke-linejoin="round" stroke-width="2.0"/>
  </g>
</svg>
