<?xml version="1.0" encoding="UTF-8" standalone="no"?>
<svg xmlns:xlink="http://www.w3.org/1999/xlink" height="86.5px" width="137.25px" xmlns="http://www.w3.org/2000/svg">
  <g transform="matrix(1.0, 0.0, 0.0, 1.0, 68.65, 43.25)">
    <path d="M36.75 -0.35 Q26.6 0.55 15.95 2.85 L6.65 4.95 Q-0.9 7.05 -7.9 9.5 -18.8 13.25 -28.15 17.85 -43.7 25.5 -54.8 35.5 -57.45 37.9 -62.3 43.25 -67.1 42.7 -67.95 35.45 -70.05 23.8 -65.7 11.45 L-65.3 10.4 Q-68.35 -4.7 -54.0 -23.55 -24.3 -52.05 23.4 -39.3 74.1 -25.7 67.95 0.3 L64.65 -0.15 52.75 -0.95 36.75 -0.35" fill="#d65ca6" fill-rule="evenodd" stroke="none"/>
  </g>
</svg>
