<?xml version="1.0" encoding="UTF-8" standalone="no"?>
<svg xmlns:xlink="http://www.w3.org/1999/xlink" height="114.25px" width="147.05px" xmlns="http://www.w3.org/2000/svg">
  <g transform="matrix(1.0, 0.0, 0.0, 1.0, 73.55, 57.15)">
    <path d="M-69.2 -2.5 L-69.6 -1.45 Q-73.95 10.9 -71.85 22.55 -71.0 29.8 -66.2 30.35 -61.35 25.0 -58.7 22.6 -47.6 12.6 -32.05 4.95 -22.7 0.35 -11.8 -3.4 -4.8 -5.85 2.75 -7.95 L12.05 -10.05 Q22.7 -12.35 32.85 -13.25 L48.85 -13.85 60.75 -13.05 64.05 -12.6 Q70.2 -38.6 19.5 -52.2 -28.2 -64.95 -57.9 -36.45 -72.25 -17.6 -69.2 -2.5 -65.85 -11.55 -59.1 -20.85 M64.05 -12.6 Q75.0 -3.2 71.8 6.5 20.55 6.15 -19.35 38.05 -37.6 52.75 -55.9 56.1 -72.25 51.25 -68.6 33.05 L-66.2 30.35" fill="none" stroke="#96236d" stroke-linecap="round" stroke-linejoin="round" stroke-width="2.0"/>
    <path d="M48.85 -13.85 Q55.95 -8.3 56.7 -1.7 M60.75 -13.05 L66.95 -2.35 M32.85 -13.25 Q40.2 -7.95 41.0 -0.35 M-32.05 4.95 Q-28.3 17.15 -17.55 25.05 M-58.7 22.6 Q-56.05 32.9 -46.75 40.3 M-11.8 -3.4 Q-9.5 5.55 0.1 12.2 M12.05 -10.05 Q20.85 -2.85 23.1 7.45" fill="none" stroke="#96236d" stroke-linecap="round" stroke-linejoin="round" stroke-opacity="0.6392157" stroke-width="2.0"/>
  </g>
</svg>
