<?xml version="1.0" encoding="UTF-8" standalone="no"?>
<svg xmlns:xlink="http://www.w3.org/1999/xlink" height="68.0px" width="132.7px" xmlns="http://www.w3.org/2000/svg">
  <g transform="matrix(1.0, 0.0, 0.0, 1.0, 66.35, 34.0)">
    <path d="M44.9 -31.2 Q49.0 -34.9 52.3 -33.75 63.65 -29.7 66.2 -16.0 67.5 -12.0 58.8 -7.55 57.85 -3.9 54.45 -2.8 51.0 -1.75 50.35 -1.35 47.15 3.05 38.8 5.35 34.2 11.3 23.0 13.0 17.55 17.8 6.15 19.7 2.9 23.45 -8.25 24.25 -14.0 28.55 -22.65 27.85 -30.05 32.75 -38.9 30.95 -46.9 34.95 -52.4 32.75 -54.4 34.9 -58.7 33.35 -73.1 21.95 -60.4 4.1 -58.6 2.05 -56.05 2.55 L-54.15 3.2 -52.45 3.6 Q-48.1 1.7 -39.8 3.3 -37.85 1.25 -33.9 1.2 L-27.45 1.2 Q-23.45 -1.6 -18.3 -1.1 -12.5 -4.7 -3.05 -6.15 1.9 -10.15 10.65 -12.0 15.45 -16.25 24.0 -18.6 28.15 -23.1 34.45 -24.0 41.1 -29.7 43.1 -29.45 L43.15 -29.5 44.9 -31.2" fill="#cccccc" fill-rule="evenodd" stroke="none"/>
  </g>
</svg>
