<?xml version="1.0" encoding="UTF-8" standalone="no"?>
<svg xmlns:xlink="http://www.w3.org/1999/xlink" height="131.2px" width="144.6px" xmlns="http://www.w3.org/2000/svg">
  <g transform="matrix(1.0, 0.0, 0.0, 1.0, 72.3, 65.6)">
    <path d="M-21.7 50.9 Q-21.55 46.05 -19.95 49.65 -18.3 53.2 -22.5 52.75 -25.9 51.85 -21.7 50.9" fill="#403149" fill-rule="evenodd" stroke="none"/>
    <path d="M36.4 -52.3 Q66.2 -44.3 70.6 -35.55 71.95 -32.75 70.75 -29.9 L66.6 -32.45 65.5 -31.6 Q59.45 -26.8 53.5 -21.6 46.65 -15.75 39.85 -9.35 30.45 -0.55 21.2 9.15 L21.15 9.15 Q11.45 19.25 1.9 30.35 L1.85 30.4 -5.1 38.55 -10.2 44.8 -14.25 49.75 -22.85 60.75 -25.8 64.6 Q-31.0 61.3 -35.2 57.55 -42.85 65.3 -48.3 64.45 -50.45 64.05 -52.3 62.3 -54.45 60.2 -56.05 56.25 -62.6 40.4 -60.05 7.5 -66.45 3.35 -71.3 -3.75 -62.35 -10.4 -49.85 -13.85 -44.35 -23.65 -36.95 -33.0 L-34.8 -35.6 Q-30.1 -41.3 -24.6 -46.8 L-23.15 -48.35 -22.7 -54.95 -22.1 -64.6 -12.65 -63.35 -6.3 -61.8 Q-0.05 -60.0 5.75 -57.05 L5.8 -57.05 14.75 -55.25 Q24.5 -53.05 33.75 -49.9 L36.4 -52.3 M1.35 -53.65 L3.25 -53.35 3.45 -53.3 Q17.0 -51.5 30.15 -46.55 L31.85 -48.15 33.75 -49.9 M3.45 -53.3 L3.3 -53.3 3.25 -53.35 M53.5 -21.6 Q41.6 -33.5 24.25 -40.9 L22.15 -38.8 14.8 -31.2 30.7 -17.35 30.75 -17.3 39.85 -9.35 M30.15 -46.55 L25.4 -42.05 24.25 -40.9 M66.6 -32.45 L70.6 -35.55 M31.85 -48.15 Q53.55 -42.35 65.5 -31.6 M21.2 9.15 Q16.6 5.5 12.45 1.65 5.65 -4.55 -0.2 -11.4 L-1.25 -12.65 -3.3 -10.05 -5.9 -6.7 Q-12.65 2.05 -18.75 11.3 -9.65 21.3 1.85 30.4 M-23.15 -48.35 L-20.9 -50.65 -17.1 -53.85 -10.85 -58.0 -9.3 -58.15 Q-6.7 -59.55 -6.3 -61.8 M-6.2 -54.6 Q-12.25 -55.55 -17.1 -53.85 M-12.65 -63.35 Q-16.15 -56.85 -22.7 -54.95 M-51.85 -12.85 Q-48.35 -1.5 -57.9 9.05 L-57.65 9.2 -54.05 11.65 Q-52.95 12.25 -51.9 12.95 -41.3 0.55 -44.35 -15.1 L-49.85 -13.85 M-34.45 -17.5 Q-37.8 -16.7 -39.5 -14.75 -38.6 -8.6 -39.75 -2.85 -40.15 -0.6 -40.85 1.6 -42.5 6.4 -45.55 11.0 L-44.9 14.2 -44.8 14.25 Q-44.15 16.3 -42.9 18.25 M-39.5 -14.75 L-39.7 -15.95 -44.35 -15.1 M-5.9 -6.7 Q-12.5 -11.05 -18.45 -15.75 -28.6 -23.8 -36.95 -33.0 M-3.3 -10.05 Q-10.3 -14.4 -16.75 -19.3 -26.45 -26.8 -34.8 -35.6 M-18.75 11.3 L-22.45 16.95 -24.6 20.45 -26.3 23.1 -30.2 29.75 -32.95 34.6 Q-26.05 45.4 -14.25 49.75 M-32.95 34.6 L-40.1 48.1 Q-30.8 57.75 -22.85 60.75 M-57.9 9.05 L-60.05 7.5 M-50.95 60.35 L-49.6 60.75 Q-42.15 62.75 -37.5 55.5 L-41.55 51.15 -41.55 51.1 Q-43.6 34.8 -45.65 27.65 -46.5 24.6 -47.35 23.2 -48.75 21.0 -50.1 23.0 M-51.9 12.95 L-48.45 14.75 -45.55 11.0 M-35.2 57.55 L-37.5 55.5 M-40.1 48.1 L-41.55 51.1 M-62.8 4.25 Q-58.4 -1.8 -58.9 -10.25 M14.8 -31.2 Q6.4 -22.25 -1.25 -12.65 M-9.3 -58.15 Q-1.75 -58.9 5.75 -57.05" fill="none" stroke="#000000" stroke-linecap="round" stroke-linejoin="round" stroke-width="2.0"/>
  </g>
</svg>
