<?xml version="1.0" encoding="UTF-8" standalone="no"?>
<svg xmlns:xlink="http://www.w3.org/1999/xlink" height="194.65px" width="154.0px" xmlns="http://www.w3.org/2000/svg">
  <g transform="matrix(1.0, 0.0, 0.0, 1.0, 77.0, 97.35)">
    <path d="M19.45 -56.95 L15.9 -62.1 Q7.65 -61.0 -0.55 -58.35 L1.35 -50.3 Q10.75 -49.0 18.5 -51.75 L18.7 -52.75 19.45 -56.95 Q28.75 -59.4 38.8 -58.7 L33.35 -62.65 15.9 -62.1 21.7 -90.95 M18.5 -51.75 L18.7 -51.7 18.7 -52.75 M38.8 -58.7 L34.1 -51.75 32.9 -51.5 32.35 -40.65 36.35 -39.6 Q52.6 -32.4 62.65 -18.3 71.95 -5.25 76.0 13.7 74.05 16.7 69.65 19.45 66.5 31.55 70.8 41.45 74.5 51.2 70.05 60.05 64.05 79.2 71.3 90.8 58.35 88.35 51.45 78.65 63.15 69.05 63.35 58.8 61.7 50.55 62.35 43.7 64.2 32.4 64.05 22.35 63.85 9.7 60.55 -0.85 49.05 -7.9 32.85 -10.35 6.9 -14.3 -20.0 9.2 -19.0 11.6 -19.0 14.45 -19.0 19.55 -22.25 23.15 L-23.75 24.65 Q-27.1 29.75 -26.85 35.9 -26.6 42.1 -19.15 48.6 -11.75 55.1 -12.5 68.2 -12.7 84.9 -5.8 91.75 -27.65 85.9 -34.8 64.25 -36.4 59.8 -38.0 56.1 -42.65 45.45 -47.7 41.7 -54.85 37.55 -57.65 42.95 -60.5 50.2 -54.65 64.0 -47.7 75.6 -46.45 85.35 -46.15 92.65 -53.25 95.1 -60.4 97.5 -71.25 95.0 -65.45 82.15 -66.8 69.95 -70.2 46.2 -69.8 25.6 -77.7 9.25 -75.5 -14.35 -70.65 -46.45 -44.0 -68.15 4.8 -106.95 54.2 -92.4 41.95 -80.6 33.35 -62.65 M18.7 -51.7 Q26.1 -50.4 32.9 -51.5 M32.35 -40.65 Q26.65 -41.85 18.75 -42.0 L1.9 -41.35 -13.25 -39.6 -14.45 -39.35 Q-21.75 -37.95 -28.5 -34.6 -36.4 -30.7 -43.55 -24.2 -49.1 -19.2 -54.15 -12.6 -61.0 -3.65 -67.0 8.15 -68.85 16.25 -69.8 25.6 M1.9 -41.35 L1.35 -50.3 Q-5.9 -47.6 -16.0 -46.8 L-14.45 -39.35 M18.7 -51.7 L18.75 -42.0 M-38.0 56.1 Q-41.15 37.15 -39.05 21.15 -40.75 18.2 -40.75 14.45 -40.75 9.3 -37.6 5.65 L-36.05 4.2 -35.35 3.7 Q-23.9 -32.45 12.05 -36.15 39.75 -37.5 62.65 -18.3 M64.05 22.35 Q67.2 20.9 69.65 19.45 M60.55 -0.85 Q69.85 4.9 76.0 13.7 M-67.0 8.15 Q-63.8 -5.95 -57.85 -16.65 -53.05 -25.2 -46.55 -31.6 L-41.0 -36.4 -31.5 -43.25 Q-24.55 -47.85 -17.6 -51.35 -9.1 -55.7 -0.55 -58.35 M-43.55 -24.2 L-45.45 -28.85 Q-50.8 -19.7 -57.85 -16.65 L-54.15 -12.6 M-46.55 -31.6 L-45.45 -28.85 -45.0 -29.7 -30.6 -39.35 -30.15 -39.45 -31.5 -43.25 M-28.5 -34.6 L-30.15 -39.45 Q-21.05 -41.9 -16.0 -46.8 L-17.6 -51.35 M-35.3 8.4 Q-33.2 5.9 -30.2 5.9 -27.25 5.9 -25.15 8.4 -23.8 9.95 -23.3 11.95 -30.3 10.65 -37.3 13.2 -37.0 10.45 -35.3 8.4 M-35.35 3.7 Q-32.95 2.05 -29.85 2.05 -25.4 2.05 -22.25 5.65 -20.8 7.3 -20.0 9.2 M-23.75 24.65 Q-26.45 26.75 -29.85 26.75 -34.4 26.75 -37.6 23.15 L-39.05 21.15 M-36.7 18.15 Q-30.8 14.45 -23.1 16.05 -23.5 18.55 -25.15 20.45 -27.25 22.95 -30.2 22.95 -33.2 22.95 -35.3 20.45 -36.2 19.4 -36.7 18.15" fill="none" stroke="#000000" stroke-linecap="round" stroke-linejoin="round" stroke-width="2.0"/>
  </g>
</svg>
