<?xml version="1.0" encoding="UTF-8" standalone="no"?>
<svg xmlns:xlink="http://www.w3.org/1999/xlink" height="160.85px" width="171.9px" xmlns="http://www.w3.org/2000/svg">
  <g transform="matrix(1.0, 0.0, 0.0, 1.0, 85.95, 80.4)">
    <path d="M66.0 -38.35 L68.85 -39.15 Q68.8 -37.2 67.4 -35.95 L73.8 -22.25 76.65 -18.1 Q82.4 -11.3 76.7 -5.2 80.1 -3.3 83.45 -3.55 82.75 0.0 77.5 0.8 87.0 10.15 84.35 18.65 L80.6 14.65 Q85.65 32.45 76.4 37.75 76.15 40.8 78.45 43.7 74.65 45.8 71.15 42.5 63.85 63.65 49.25 65.2 37.95 76.15 29.05 72.6 L28.95 72.55 27.7 73.8 Q21.05 79.9 13.55 76.45 L13.25 76.95 Q10.4 81.05 1.15 78.4 -3.85 80.2 -9.45 76.5 -16.55 71.85 -26.35 70.75 L-21.35 68.25 Q-29.6 66.3 -36.95 62.25 L-49.1 56.5 Q-81.95 43.95 -84.95 17.1 -85.3 4.4 -80.3 -2.85 L-80.3 -2.9 Q-66.0 -65.6 -11.15 -77.4 L-5.65 -79.2 Q16.15 -81.15 38.45 -65.55 54.05 -54.9 66.0 -38.35 61.85 -37.8 57.75 -40.1 51.6 -59.4 23.8 -57.2 17.25 -69.35 -7.6 -55.05 -6.6 -61.75 -12.2 -62.75 -13.15 -56.65 -15.75 -53.85 -36.45 -54.35 -41.45 -34.65 -44.75 -39.9 -42.55 -45.1 -49.95 -38.35 -46.05 -28.25 -56.2 -29.35 -63.35 2.1 L-68.65 -3.3 -66.55 2.85 Q-68.45 23.3 -59.25 36.35 L-67.75 36.05 -61.4 43.15 Q-53.95 53.2 -45.0 53.9 -43.25 58.9 -36.95 62.25 M13.55 76.45 Q14.9 73.8 12.1 70.7 9.4 67.65 2.7 64.15 0.2 56.9 -21.0 57.25 -14.8 56.4 -12.4 54.3 -17.65 55.15 -24.35 52.3 -31.65 42.15 -44.0 38.95 -42.35 33.95 -49.4 27.05 L-44.15 26.9 Q-49.65 23.5 -48.45 18.3 L-42.55 -7.15 Q-41.95 -3.35 -39.8 -2.65 -39.75 -5.6 -38.5 -8.2 -25.75 -13.0 -21.65 -25.9 5.75 -30.35 2.5 -41.0 6.9 -38.4 14.95 -40.25 19.8 -41.2 24.4 -38.35 L23.7 -42.35 Q30.95 -33.6 39.4 -31.7 37.2 -29.55 50.8 -15.25 60.25 -8.3 58.6 0.1 60.55 -0.9 61.3 -2.95 L61.7 -4.95 M73.8 -22.25 Q70.95 -25.75 67.2 -28.6 L64.85 -30.85 Q62.9 -32.2 63.2 -34.15 66.0 -34.7 67.4 -35.95 M76.7 -5.2 L74.25 -6.85 M12.1 70.7 Q14.65 66.4 20.35 65.35 L20.4 65.35 24.95 62.75 Q32.95 52.85 42.15 55.8 48.4 48.05 57.2 41.3 61.9 37.7 63.4 33.05 61.6 34.15 58.95 34.6 65.2 27.6 63.2 23.3 60.0 11.55 61.3 -2.95 M63.4 33.05 Q65.5 31.75 66.35 29.55 M20.4 65.35 Q21.1 65.8 23.1 66.5" fill="none" stroke="#000000" stroke-linecap="round" stroke-linejoin="round" stroke-width="2.0"/>
  </g>
</svg>
