<?xml version="1.0" encoding="UTF-8" standalone="no"?>
<svg xmlns:xlink="http://www.w3.org/1999/xlink" height="161.65px" width="164.0px" xmlns="http://www.w3.org/2000/svg">
  <g transform="matrix(1.0, 0.0, 0.0, 1.0, 82.0, 80.8)">
    <path d="M-11.9 80.85 Q-31.05 76.9 -49.25 66.35 -54.7 63.4 -59.25 60.3 -77.25 47.9 -82.0 32.3 -81.65 -34.95 -45.05 -63.65 0.3 -98.1 41.35 -63.4 63.2 -44.75 77.3 -11.0 78.55 -6.3 79.4 -1.8 84.6 23.65 79.4 37.6 77.0 44.25 72.15 48.35 74.7 42.3 75.0 35.45 76.65 33.7 79.4 33.55 L80.05 33.5 79.4 31.5 Q75.2 18.7 67.45 7.1 68.95 6.8 71.85 7.8 67.8 -6.55 60.0 -19.85 62.9 -20.0 65.5 -17.35 57.4 -35.0 37.95 -41.65 L43.35 -41.15 Q33.0 -53.15 16.7 -51.8 7.8 -59.5 -2.65 -56.75 0.45 -55.4 0.7 -52.75 -20.5 -47.25 -33.85 -33.45 L-28.1 -33.25 Q-53.85 -17.1 -59.55 2.5 -54.6 -2.05 -49.7 -2.75 -62.3 17.05 -63.1 36.2 L-60.3 35.0 Q-60.75 45.8 -52.3 55.7 -50.8 53.15 -48.45 51.8 -47.3 56.1 -44.7 60.3 -42.55 63.85 -39.3 67.35 L-25.45 67.35 Q-27.35 69.7 -31.75 69.95 -25.95 75.3 -15.5 77.3 -11.3 78.2 -11.9 80.85" fill="#f95a59" fill-rule="evenodd" stroke="none"/>
  </g>
</svg>
