<?xml version="1.0" encoding="UTF-8" standalone="no"?>
<svg xmlns:xlink="http://www.w3.org/1999/xlink" height="178.85px" width="180.3px" xmlns="http://www.w3.org/2000/svg">
  <g transform="matrix(1.0, 0.0, 0.0, 1.0, 90.15, 89.45)">
    <path d="M71.95 -89.45 Q79.1 -76.55 90.15 -78.3 88.6 -69.2 85.6 -56.85 81.45 -39.9 70.35 -22.3 84.05 15.15 82.4 42.3 81.45 57.7 77.7 60.7 53.0 80.0 26.2 87.9 18.65 90.1 10.95 89.05 -27.85 84.95 -59.45 68.25 -78.3 58.25 -90.15 39.3 -81.95 -5.5 -63.3 -30.25 -73.0 -42.2 -77.9 -51.95 -74.25 -54.2 -71.45 -57.1 -71.95 -60.55 -74.55 -61.75 L-81.4 -57.25 -81.45 -57.25 -82.85 -60.3 Q-78.6 -62.45 -75.1 -65.45 -74.95 -67.6 -77.35 -69.85 -81.55 -68.45 -85.0 -66.4 L-87.1 -72.8 Q-72.55 -75.8 -70.5 -85.1 -50.35 -74.35 -32.0 -54.4 -1.15 -68.45 42.0 -53.95 56.6 -78.05 71.95 -89.45 M62.05 17.3 Q49.0 -8.05 15.5 -31.6 -18.1 -5.8 -41.7 39.95 -47.7 50.95 -51.25 64.5 -30.25 81.4 18.3 80.9 30.75 80.8 41.75 77.1 53.6 73.2 63.7 65.15 77.1 55.85 65.9 25.95 64.25 21.6 62.05 17.3" fill="#eeff8d" fill-rule="evenodd" stroke="none"/>
  </g>
</svg>
