<?xml version="1.0" encoding="UTF-8" standalone="no"?>
<svg xmlns:xlink="http://www.w3.org/1999/xlink" height="162.6px" width="162.7px" xmlns="http://www.w3.org/2000/svg">
  <g transform="matrix(1.0, 0.0, 0.0, 1.0, 100.75, 70.65)">
    <path d="M54.1 18.65 Q50.15 32.15 49.55 43.2 L47.8 45.7 45.85 48.25 41.55 53.25 Q31.8 63.55 24.25 61.7 L22.25 61.0 Q17.55 59.2 13.85 57.4 L8.35 54.7 7.7 54.35 Q5.2 52.9 3.4 51.5 -1.25 47.45 -10.05 48.05 L-20.45 36.65 -16.6 35.15 -26.8 19.1 -27.15 18.45 -26.8 18.35 Q-16.25 14.6 -4.15 14.25 1.65 15.3 13.85 22.3 L22.25 27.9 22.45 28.0 34.95 27.2 Q42.15 18.8 49.6 15.45 51.75 15.55 54.1 18.65 M46.9 45.55 L47.45 44.85 47.4 44.85 48.85 42.75 Q49.55 32.0 53.3 18.95 52.0 17.45 50.95 17.15 44.5 20.15 38.3 27.15 L37.45 28.2 36.9 28.6 36.15 28.8 23.65 29.55 22.95 29.5 22.5 29.25 22.3 29.15 Q17.75 26.0 13.9 23.6 L13.85 23.55 Q2.65 17.25 -2.85 15.9 L-3.3 15.8 -6.95 16.05 Q-14.65 16.65 -21.6 18.7 L-23.65 19.3 -17.4 29.5 -17.3 29.65 -14.05 34.3 Q-13.75 34.7 -13.75 35.2 L-14.05 36.05 -14.75 36.55 -16.6 37.3 -8.2 46.4 -6.65 46.4 -3.7 46.6 Q2.1 47.2 5.65 50.4 L5.6 50.3 9.7 53.0 9.85 53.05 10.25 53.3 10.35 53.35 Q12.65 54.65 15.6 55.9 L15.75 55.95 16.05 56.15 Q19.25 57.65 23.2 59.2 L24.0 59.55 25.8 60.2 Q32.45 61.6 41.25 52.2 L41.25 52.3 44.1 49.15 45.5 47.35 46.9 45.55" fill="#5f87a3" fill-opacity="0.47843137" fill-rule="evenodd" stroke="none"/>
    <path d="M50.95 17.15 Q52.0 17.45 53.3 18.95 49.55 32.0 48.85 42.75 L47.4 44.85 47.45 44.85 46.9 45.55 50.95 17.15 M44.1 49.15 L41.25 52.3 41.25 52.2 Q32.45 61.6 25.8 60.2 L24.0 59.55 23.2 59.2 22.95 29.5 23.65 29.55 36.15 28.8 36.9 28.6 37.45 28.2 38.3 27.15 46.25 21.25 44.1 49.15 M15.6 55.9 Q12.65 54.65 10.35 53.35 L10.25 53.3 9.85 53.05 9.7 53.0 5.6 50.3 5.65 50.4 Q2.1 47.2 -3.7 46.6 L-6.95 16.05 -3.3 15.8 -2.85 15.9 12.5 25.6 15.6 55.9 M-6.65 46.4 L-8.2 46.4 -16.6 37.3 -14.75 36.55 -14.05 36.05 -13.75 35.2 Q-13.75 34.7 -14.05 34.3 L-17.3 29.65 -17.4 29.5 -23.65 19.3 -21.6 18.7 -11.25 17.95 -6.65 46.4" fill="#cbf1ff" fill-opacity="0.56078434" fill-rule="evenodd" stroke="none"/>
    <path d="M46.9 45.55 L45.5 47.35 44.1 49.15 46.25 21.25 38.3 27.15 Q44.5 20.15 50.95 17.15 L46.9 45.55 M23.2 59.2 Q19.25 57.65 16.05 56.15 L15.75 55.95 15.6 55.9 12.5 25.6 -2.85 15.9 Q2.65 17.25 13.85 23.55 L13.9 23.6 Q17.75 26.0 22.3 29.15 L22.5 29.25 22.95 29.5 23.2 59.2 M-3.7 46.6 L-6.65 46.4 -11.25 17.95 -21.6 18.7 Q-14.65 16.65 -6.95 16.05 L-3.7 46.6" fill="#e0fcff" fill-opacity="0.70980394" fill-rule="evenodd" stroke="none"/>
    <path d="M9.75 -41.35 Q7.15 -40.15 4.8 -39.35 L1.5 -39.75 -7.8 -40.6 Q-22.6 -41.6 -37.55 -39.75 L-36.85 -40.5 -26.8 -42.15 -11.35 -42.95 -10.25 -42.9 -2.05 -42.55 9.45 -41.65 10.25 -41.6 9.75 -41.35 M32.7 -30.85 L34.8 -31.2 Q32.95 -33.65 30.8 -35.0 37.25 -31.35 43.6 -24.3 50.4 -16.8 54.5 -5.15 L54.45 -5.1 54.7 -4.45 54.75 -4.25 47.65 -8.05 41.45 0.1 46.1 -12.3 44.35 -12.45 Q41.95 -21.65 31.95 -30.75 L32.7 -30.85 M44.25 13.55 L41.4 15.9 39.7 15.5 38.4 16.6 Q32.2 17.75 28.15 14.35 25.75 11.25 23.0 11.2 L23.55 8.75 30.0 12.1 Q30.5 14.65 34.5 15.55 38.4 16.45 39.85 13.55 L44.25 13.55 M-22.55 44.3 L-18.95 48.15 -18.75 48.55 -17.45 50.05 -14.1 52.8 -13.2 53.45 Q-10.65 56.35 -6.55 57.45 L-1.35 58.85 -1.25 59.45 -1.25 60.45 -1.25 61.65 -1.4 61.75 -1.6 61.9 Q-13.4 58.9 -20.55 50.1 L-25.25 44.2 -22.55 44.3 M-38.0 43.85 Q-37.5 46.45 -37.15 49.35 L-40.25 49.15 -40.55 46.8 -40.95 43.95 -41.3 42.05 Q-42.2 37.0 -43.4 32.9 L-44.5 30.6 Q-48.15 23.5 -54.85 23.2 L-55.45 23.3 Q-65.1 23.9 -71.75 26.5 -73.6 27.2 -75.2 28.05 L-77.65 25.4 Q-72.5 21.7 -53.85 21.3 L-51.9 21.65 Q-49.4 22.2 -47.4 23.3 L-46.3 24.3 -44.3 26.55 Q-42.05 29.7 -40.75 33.4 L-40.6 33.8 Q-39.35 37.3 -38.4 41.8 L-38.0 43.85 M22.6 82.4 L28.65 81.05 32.45 80.65 31.55 78.25 Q29.65 73.35 29.3 70.0 33.15 74.65 35.35 80.75 L37.3 80.9 38.4 81.1 39.6 77.3 40.05 76.2 41.75 77.3 40.4 81.25 40.05 81.35 35.7 81.7 34.35 81.8 34.0 81.85 23.15 82.7 22.6 82.4 M-40.5 4.25 Q-39.8 10.2 -44.65 13.7 -41.85 9.15 -42.25 4.2 L-42.4 3.0 Q-42.65 1.5 -43.2 -0.1 L-60.4 -23.5 -89.7 -57.15 Q-80.0 -50.7 -70.35 -39.6 -64.75 -33.75 -59.4 -26.85 -54.0 -19.85 -48.85 -11.7 L-47.0 -8.85 -45.6 -6.45 -41.25 1.2 -40.75 2.75 -40.5 4.25 M57.25 15.15 L56.2 13.8 55.8 13.4 Q60.3 6.35 60.35 -1.7 L61.95 -0.55 61.75 5.1 Q62.1 5.4 60.2 9.35 L60.2 9.15 Q58.8 11.65 57.75 14.15 L57.6 14.55 57.6 14.6 57.35 15.0 57.25 15.15 M50.7 51.15 L51.7 52.65 Q52.2 60.0 50.8 69.35 L50.75 69.35 50.35 69.25 50.35 69.2 Q49.6 64.05 49.65 58.6 49.75 54.7 50.25 51.3 L50.7 51.15 M46.25 56.8 L46.1 57.35 44.35 62.9 41.95 66.3 40.2 66.25 39.7 66.15 40.8 62.5 41.85 59.4 42.55 59.2 Q44.3 58.7 45.65 57.45 L45.7 57.4 46.1 56.95 46.15 56.85 46.25 56.8 M-62.25 14.6 L-61.1 10.95 -60.6 11.45 -60.4 11.55 Q-59.3 12.4 -57.9 12.6 L-57.75 12.65 -57.25 12.65 -57.0 12.65 -56.6 12.65 -55.35 12.35 -55.75 13.5 -56.9 16.9 Q-60.0 16.7 -62.25 14.6 M-57.75 0.65 L-56.6 -2.8 -56.35 -3.65 -56.0 -3.65 -55.8 -3.65 -54.2 -3.35 -53.85 -3.25 Q-52.5 -2.8 -51.3 -1.9 L-50.55 -1.3 -51.1 0.15 -52.3 3.6 -52.4 3.65 -52.4 3.6 -53.35 2.35 -53.65 2.05 Q-54.95 0.8 -56.6 0.65 L-57.0 0.6 -57.25 0.6 -57.45 0.6 -57.75 0.65 M-60.45 2.8 L-60.1 2.35 -59.65 1.9 -51.65 6.75 -51.65 7.35 -51.85 8.35 -60.45 2.8 M-44.3 26.55 L-44.4 26.45 -43.9 27.15 -44.3 26.55" fill="#ffffff" fill-opacity="0.3372549" fill-rule="evenodd" stroke="none"/>
    <path d="M16.0 -39.45 L16.15 -39.4 17.8 -38.9 19.65 -38.4 22.25 -37.55 22.8 -37.35 23.25 -37.25 Q26.1 -36.45 28.65 -36.15 L29.4 -35.8 29.65 -35.65 29.85 -35.55 30.8 -35.0 Q32.95 -33.65 34.8 -31.2 L32.7 -30.85 23.25 -29.5 17.5 -32.4 Q11.1 -35.95 2.25 -38.0 L1.45 -38.2 2.25 -38.45 4.8 -39.35 Q7.15 -40.15 9.75 -41.35 L10.35 -40.8 16.0 -39.45 M54.75 -4.25 L56.4 -0.05 Q56.8 4.8 53.45 11.25 52.0 10.3 50.7 10.0 47.25 11.5 44.25 13.55 52.95 3.1 54.75 -4.25 M23.0 11.2 L22.25 15.05 Q21.6 19.2 21.3 23.65 L18.2 21.45 13.85 17.75 Q8.95 14.25 4.1 11.85 -2.0 8.9 -8.05 7.75 L-9.45 8.0 Q-18.75 9.45 -26.8 12.5 -31.7 14.45 -36.0 17.25 L-37.45 18.15 -28.35 33.75 -31.1 35.25 -22.55 44.3 -25.25 44.2 -38.0 43.85 -38.4 41.8 -26.1 42.55 -33.7 35.35 -30.5 32.45 -32.25 30.25 Q-34.45 29.45 -36.65 29.65 L-44.3 26.55 Q-41.05 27.3 -37.15 28.5 L-34.3 28.3 -38.95 17.6 Q-44.4 15.75 -50.3 16.5 -47.55 15.55 -45.55 14.3 -41.85 14.85 -38.5 16.15 -27.2 9.25 -12.0 7.1 -18.1 5.25 -26.8 4.55 -32.3 4.1 -38.95 4.25 L-40.5 4.25 -40.75 2.75 Q-30.0 1.35 -18.1 3.85 L3.3 9.5 Q1.45 5.1 -2.8 1.5 -6.35 -1.9 -9.0 -5.75 -18.0 -8.4 -26.8 -8.85 -36.0 -9.35 -45.0 -6.75 L-45.6 -6.45 -47.0 -8.85 Q-42.2 -10.7 -34.0 -10.65 -21.2 -10.9 -10.4 -8.05 L-12.95 -13.05 -13.35 -13.7 Q-16.6 -21.7 -13.3 -27.7 -3.3 -27.25 3.15 -25.2 L6.85 -23.8 Q9.55 -22.55 11.3 -20.85 L29.2 -4.6 Q27.55 -2.7 26.4 -0.4 L26.3 0.05 Q24.9 3.5 23.8 7.5 L23.55 8.75 23.0 11.2 M-18.95 48.15 L-10.05 48.05 Q-1.25 47.45 3.4 51.5 5.2 52.9 7.7 54.35 L8.35 54.7 Q10.95 57.85 13.85 60.3 L17.55 63.25 13.85 62.5 2.25 59.6 -1.35 58.55 Q-9.5 55.9 -14.1 52.8 L-17.45 50.05 -18.75 48.55 -18.95 48.15 M-37.15 49.35 L-37.65 49.7 -26.8 60.6 -18.8 67.85 Q-13.55 71.8 -4.35 71.65 2.05 75.6 13.85 78.6 L18.5 79.75 22.25 82.25 22.6 82.4 23.15 82.7 21.1 91.95 Q17.2 90.1 13.85 88.8 L12.2 88.25 Q6.3 86.4 1.7 86.2 14.15 84.05 9.3 81.8 -0.25 79.9 -8.1 76.8 -14.65 74.2 -20.05 70.75 L-42.4 53.65 Q-46.2 57.15 -49.15 61.5 L-49.5 61.8 Q-39.1 70.95 -26.8 76.8 -17.9 80.6 -8.2 83.1 L-7.25 85.85 Q-16.1 84.85 -26.8 81.35 -32.55 79.2 -38.95 76.2 -47.75 71.85 -49.35 67.85 L-49.9 67.45 -51.15 65.0 Q-53.9 65.95 -56.7 66.3 L-63.15 66.85 Q-66.8 67.0 -71.3 64.05 -73.2 59.4 -74.95 50.7 -77.75 36.8 -78.7 26.3 -78.65 25.85 -78.25 25.5 L-77.9 25.15 Q-79.95 9.9 -75.05 -1.6 L-73.4 -5.3 -72.55 -7.15 Q-89.5 -28.3 -97.35 -36.1 -99.4 -43.35 -100.25 -50.7 -100.95 -56.85 -100.7 -63.15 L-91.4 -54.1 -91.2 -52.25 -98.0 -58.05 -97.6 -48.3 -90.2 -41.5 -90.0 -39.1 -96.95 -45.5 -94.5 -35.85 -73.55 -12.4 -72.15 -18.75 -69.7 -16.35 -70.8 -5.0 -71.05 -3.9 Q-72.9 4.6 -66.1 9.4 L-66.45 6.6 Q-66.45 1.85 -63.35 -1.55 L-62.65 -2.2 Q-59.7 -4.85 -55.8 -4.85 -53.75 -4.85 -51.9 -4.05 L-51.0 -3.6 Q-49.55 -2.8 -48.35 -1.55 -46.4 0.6 -45.6 3.15 L-45.55 3.55 -45.55 3.7 -45.45 3.8 Q-45.2 5.15 -45.2 6.6 -45.2 10.9 -47.75 14.05 L-48.35 14.7 -50.35 16.5 -50.45 16.5 Q-51.6 17.25 -52.85 17.65 L-51.9 21.65 -53.85 21.3 Q-72.5 21.7 -77.65 25.4 L-75.2 28.05 -68.5 63.25 Q-63.2 65.3 -53.6 62.9 L-52.4 62.6 -50.6 59.5 Q-47.9 55.3 -44.3 52.2 -42.4 50.5 -40.25 49.15 L-37.15 49.35 M41.75 77.3 L45.1 77.95 43.95 83.85 40.05 81.35 40.4 81.25 41.75 77.3 M-59.4 -26.85 Q-50.5 -36.15 -39.1 -39.85 L-36.85 -40.5 -37.55 -39.75 Q-50.35 -26.6 -51.0 -21.3 L-45.45 -19.4 Q-47.5 -15.95 -48.85 -11.7 -54.0 -19.85 -59.4 -26.85 M-10.25 -42.9 L-10.25 -42.95 -11.55 -44.1 -12.75 -45.2 Q-17.1 -49.15 -20.0 -51.3 -22.2 -56.4 -23.55 -61.7 -24.7 -66.1 -25.2 -70.65 L-17.45 -64.85 -14.55 -52.35 -2.05 -42.55 -10.25 -42.9 M57.25 15.15 Q58.45 20.8 57.6 30.45 57.0 35.6 55.65 42.15 L54.05 44.3 50.7 51.15 50.25 51.3 48.6 51.75 Q47.85 54.8 46.3 56.7 L46.25 56.8 46.15 56.85 46.1 56.95 45.7 57.4 45.65 57.45 Q44.3 58.7 42.55 59.2 L41.85 59.4 38.6 59.6 Q40.45 56.8 41.55 53.25 L45.85 48.25 47.8 45.7 49.55 43.2 Q52.7 38.35 55.2 32.85 L55.8 30.45 Q56.45 26.45 56.25 21.95 L57.25 15.15 M-56.35 -3.65 L-56.5 -3.65 -56.7 -3.65 -56.9 -3.65 Q-59.25 -3.55 -61.2 -2.2 L-62.95 -0.75 -63.0 -0.75 Q-65.75 2.35 -65.75 6.6 -65.75 7.95 -65.4 9.15 L-65.15 10.3 Q-64.5 12.3 -62.95 14.0 L-62.95 13.9 -62.25 14.6 Q-60.0 16.7 -56.9 16.9 L-56.7 16.9 -56.5 16.9 -56.0 16.9 -55.9 16.9 Q-53.75 16.75 -51.85 15.55 L-50.1 14.0 -50.05 13.9 Q-47.2 10.9 -47.2 6.6 -47.2 5.25 -47.5 4.0 L-47.55 3.7 -47.55 3.65 -47.55 3.55 -47.6 3.25 Q-48.4 1.05 -50.05 -0.75 L-50.55 -1.3 -51.3 -1.9 Q-52.5 -2.8 -53.85 -3.25 L-54.2 -3.35 -55.8 -3.65 -56.0 -3.65 -56.35 -3.65 M-60.6 11.45 L-61.2 10.85 Q-62.65 9.1 -62.65 6.6 L-62.6 5.6 Q-62.35 3.8 -61.2 2.35 L-60.7 1.9 Q-59.45 0.8 -57.75 0.65 L-57.45 0.6 -57.25 0.6 -57.0 0.6 -56.6 0.65 Q-54.95 0.8 -53.65 2.05 L-53.35 2.35 -52.4 3.6 -52.4 3.65 Q-51.65 5.0 -51.65 6.6 L-51.65 6.75 -59.65 1.9 -60.1 2.35 -60.45 2.8 Q-61.05 3.65 -61.3 4.6 L-52.7 10.2 -53.35 10.85 -53.75 11.25 Q-54.45 12.0 -55.35 12.35 L-56.6 12.65 -57.0 12.65 -57.25 12.65 -57.75 12.65 -57.9 12.6 Q-59.3 12.4 -60.4 11.55 L-60.6 11.45 M-66.55 34.25 L-61.95 33.0 -59.75 41.4 -53.2 39.9 -51.8 44.35 -58.4 45.95 -56.15 54.5 -61.65 55.7 -66.55 34.25" fill="#000000" fill-opacity="0.32941177" fill-rule="evenodd" stroke="none"/>
    <path d="M16.0 -39.45 L10.35 -40.8 10.25 -41.6 9.45 -41.65 Q0.6 -50.05 -7.95 -57.2 L-9.7 -58.65 -17.45 -64.85 -25.2 -70.65 Q-13.5 -67.45 -0.65 -56.1 6.65 -50.1 13.85 -42.2 L14.9 -40.9 14.95 -40.85 16.0 -39.45" fill="#ddecff" fill-opacity="0.10980392" fill-rule="evenodd" stroke="none"/>
  </g>
</svg>
