<?xml version="1.0" encoding="UTF-8" standalone="no"?>
<svg xmlns:xlink="http://www.w3.org/1999/xlink" height="116.55px" width="74.9px" xmlns="http://www.w3.org/2000/svg">
  <g transform="matrix(1.0, 0.0, 0.0, 1.0, 37.45, 58.3)">
    <path d="M-20.35 3.05 L-17.55 3.15 Q-15.95 3.85 -15.2 5.4 -14.5 7.1 -15.1 8.7 -15.8 10.35 -17.35 11.05 L-20.1 11.35 -20.65 11.1 -20.8 11.1 -21.05 3.35 -20.8 3.25 -20.35 3.05 M-10.05 -13.25 L3.75 0.05 2.8 1.35 1.95 2.3 1.1 2.9 Q0.25 3.5 -0.75 3.95 -2.3 4.65 -3.85 4.8 -6.05 4.95 -8.2 4.15 -12.0 2.65 -13.7 -1.05 -15.35 -4.85 -13.8 -8.6 -13.35 -9.85 -12.7 -10.75 L-11.4 -12.35 -10.05 -13.25 M-22.05 -24.55 Q-23.6 -17.5 -29.45 -11.65 L-33.85 -15.15 Q-27.35 -18.15 -22.05 -24.55 M-22.05 -24.75 Q-14.15 -32.2 -5.7 -31.75 L-5.3 -25.75 Q-15.7 -29.2 -22.05 -24.75 M-22.15 -24.9 L-26.35 -27.0 Q-32.9 -30.85 -31.85 -36.85 L-31.05 -42.65 Q-29.75 -50.05 -37.45 -53.1 L-30.05 -58.3 Q-25.4 -56.5 -23.1 -51.65 -20.45 -44.2 -25.1 -39.85 -28.3 -36.7 -27.6 -33.05 -26.15 -27.95 -22.15 -24.9 M-10.5 13.05 Q-6.3 11.75 -2.2 13.4 1.3 14.75 3.4 17.6 L5.0 20.25 5.1 20.5 Q7.1 25.4 5.25 30.25 3.3 35.25 -1.65 37.5 L-2.8 37.9 -4.4 38.3 -7.5 38.6 Q-9.55 38.5 -11.55 37.6 -16.65 35.7 -18.75 30.75 L-19.55 28.6 Q-20.25 25.85 -19.75 23.25 L-19.05 20.8 Q-17.25 16.15 -12.9 14.0 L-12.1 13.65 -11.55 13.4 -10.5 13.05 M26.25 44.95 L25.3 43.65 24.6 42.4 Q22.85 38.4 24.4 34.4 25.1 32.65 26.25 31.3 27.35 30.0 28.95 29.15 L29.95 28.6 30.7 28.3 32.6 27.8 37.45 32.45 Q34.9 38.6 26.25 44.95 M19.2 49.55 Q15.5 51.65 11.1 53.75 6.7 55.65 2.4 56.75 1.95 55.85 1.8 54.95 L1.5 53.6 Q1.5 52.3 1.75 51.1 L2.2 49.7 Q3.55 46.2 7.05 44.7 L14.1 44.5 Q17.65 45.95 19.2 49.45 L19.2 49.55 M19.75 31.6 Q19.15 32.9 17.85 33.55 L15.15 33.6 Q13.8 33.1 13.25 31.75 12.65 30.45 13.1 29.05 13.7 27.7 15.05 27.1 L17.7 27.05 Q19.05 27.65 19.65 28.9 20.25 30.3 19.75 31.6 M12.2 8.1 L18.3 14.05 18.15 14.2 16.45 14.55 14.65 14.2 Q12.9 13.6 12.15 11.85 11.75 10.95 11.7 10.0 11.8 9.2 12.05 8.4 L12.2 8.1 M-5.1 58.05 L-18.65 57.3 -19.3 57.2 -19.45 51.25 -18.8 50.95 -18.8 50.9 -11.2 50.7 Q-7.9 52.0 -6.25 55.0 L-5.85 55.8 -5.7 56.0 -5.55 56.4 Q-5.25 57.2 -5.1 58.05" fill="#fbe97d" fill-rule="evenodd" stroke="none"/>
  </g>
</svg>
