<?xml version="1.0" encoding="UTF-8" standalone="no"?>
<svg xmlns:xlink="http://www.w3.org/1999/xlink" height="56.05px" width="162.75px" xmlns="http://www.w3.org/2000/svg">
  <g transform="matrix(1.0, 0.0, 0.0, 1.0, 81.4, 28.05)">
    <path d="M-17.3 -6.45 L-36.9 12.4 -39.75 14.55 Q-43.95 19.55 -52.5 23.6 L-55.55 24.8 Q-77.35 30.95 -80.3 25.35 L-81.2 25.45 Q-82.3 18.15 -76.75 13.3 -72.7 11.2 -64.2 12.25 L-59.5 13.1 Q-41.85 14.4 -22.9 -6.45 L-32.1 -5.95 -49.85 -4.3 -50.25 -7.8 Q-30.2 -12.1 -1.5 -10.25 21.85 -8.9 51.15 -3.5 L51.15 -0.3 Q21.8 -4.95 -2.2 -5.95 L-17.3 -6.45 M51.4 -16.4 Q22.15 -22.25 0.1 -24.0 -29.15 -26.65 -45.4 -22.25 L-42.65 -25.7 Q-28.3 -29.75 0.45 -26.85 21.95 -24.9 51.4 -18.7 L51.4 -16.4 M51.25 -8.2 L51.25 -12.25 Q71.6 -4.7 81.3 8.05 L81.3 13.1 Q72.6 1.1 51.25 -8.2 M-66.4 17.4 L-67.1 17.2 -67.8 17.1 -66.4 17.4" fill="#333838" fill-rule="evenodd" stroke="none"/>
  </g>
</svg>
