<?xml version="1.0" encoding="UTF-8" standalone="no"?>
<svg xmlns:xlink="http://www.w3.org/1999/xlink" height="113.55px" width="150.4px" xmlns="http://www.w3.org/2000/svg">
  <g transform="matrix(1.0, 0.0, 0.0, 1.0, 91.8, 48.05)">
    <path d="M-36.75 -5.65 Q-17.05 -10.85 10.55 -15.15 L16.7 -15.8 33.55 -16.4 36.75 -16.0 Q40.6 -15.35 43.2 -14.2 L44.65 -11.55 Q36.3 -14.5 16.4 -12.6 -12.7 -9.2 -35.9 -3.0 L-36.75 -5.65 M-32.0 10.25 Q-7.65 2.95 25.5 -1.15 39.45 -1.65 43.5 -0.3 L47.5 0.9 44.3 3.3 Q39.0 1.4 18.7 3.75 -1.55 6.0 -15.95 10.1 -19.35 25.1 -26.65 38.05 -29.25 46.05 -37.7 47.45 L-55.0 49.1 -53.7 46.4 -53.15 45.6 -39.85 44.35 Q-33.75 43.5 -31.95 39.1 -23.9 26.3 -21.9 12.4 L-27.95 13.3 -31.15 14.2 -32.0 10.25" fill="#333838" fill-rule="evenodd" stroke="none"/>
    <path d="M44.65 -11.55 L49.6 -10.2 51.8 -8.1 54.05 -5.65 51.8 -6.5 45.55 -8.35 44.65 -11.55 M57.45 -0.5 Q59.3 2.6 58.15 5.0 56.1 3.6 51.8 2.2 L47.5 0.85 46.4 -4.1 51.8 -2.6 Q54.8 -1.7 57.45 -0.5 M-53.15 45.6 L-53.7 46.4 -55.0 49.1 -62.25 49.8 Q-65.7 50.2 -69.1 51.1 -79.9 65.55 -88.3 65.5 -90.75 64.8 -91.25 62.2 -86.55 49.7 -53.15 45.6 M-80.85 56.8 L-81.6 57.25 -81.1 57.0 -80.85 56.8" fill="#171919" fill-rule="evenodd" stroke="none"/>
    <path d="M-35.9 -3.0 Q-67.05 5.15 -81.8 14.85 L-80.5 10.95 Q-80.45 10.8 -80.2 10.75 -67.65 2.2 -38.5 -5.25 L-36.75 -5.65 -35.9 -3.0 M-32.0 10.25 L-31.15 14.2 -35.3 15.55 -42.35 17.9 -46.55 19.4 -47.8 19.8 Q-50.05 20.45 -52.3 21.2 L-59.4 24.05 -61.65 24.95 Q-63.35 25.6 -64.95 26.4 L-82.05 32.95 -80.85 30.65 -80.85 29.85 Q-62.1 18.9 -32.0 10.25" fill="#0e1010" fill-rule="evenodd" stroke="none"/>
    <path d="M46.4 -4.1 L45.55 -8.35 51.8 -6.5 54.05 -5.65 Q56.0 -3.4 57.45 -0.5 54.8 -1.7 51.8 -2.6 L46.4 -4.1 M-58.35 -36.0 L-57.15 -29.5 Q-67.05 -28.45 -69.15 -26.1 -64.85 -31.2 -59.05 -35.6 L-58.35 -36.0 M-71.4 -23.05 Q-68.0 -26.2 -61.45 -25.7 L-59.7 -17.55 Q-71.0 -15.15 -77.65 -10.9 -75.4 -17.55 -71.4 -23.05 M-78.9 -6.1 Q-67.65 -13.1 -52.75 -16.5 L-50.7 -6.4 Q-68.5 -1.65 -80.35 5.85 -80.35 -0.35 -78.9 -6.1 M-47.8 19.8 L-55.0 38.45 -65.6 40.25 -59.4 24.05 -52.3 21.2 Q-50.05 20.45 -47.8 19.8 M-64.95 26.4 L-69.1 36.4 -77.75 37.65 -74.8 30.3 -64.95 26.4 M-77.65 31.35 L-83.2 42.5 -87.4 43.15 -82.05 32.95 -77.65 31.35 M-46.65 34.65 L-48.8 34.85 -42.35 17.9 -35.3 15.55 -46.65 34.65 M-80.85 29.85 Q-84.2 23.2 -81.8 14.85 -67.05 5.15 -35.9 -3.0 L-32.0 10.25 Q-62.1 18.9 -80.85 29.85" fill="#000000" fill-opacity="0.21960784" fill-rule="evenodd" stroke="none"/>
    <path d="M-58.35 -36.0 Q-50.4 -41.9 -40.95 -45.55 L-34.05 -48.05 Q-44.45 -26.1 -38.5 -5.25 -67.65 2.2 -80.2 10.75 -80.45 8.35 -80.35 5.85 -68.5 -1.65 -50.7 -6.4 L-52.75 -16.5 Q-67.65 -13.1 -78.9 -6.1 L-77.65 -10.9 Q-71.0 -15.15 -59.7 -17.55 L-61.45 -25.7 Q-68.0 -26.2 -71.4 -23.05 L-69.15 -26.1 Q-67.05 -28.45 -57.15 -29.5 L-58.35 -36.0 M-47.8 19.8 L-46.55 19.4 -42.35 17.9 -48.8 34.85 -46.65 34.65 -53.15 45.6 Q-86.55 49.7 -91.25 62.2 -93.3 54.05 -87.4 43.15 L-83.2 42.5 -77.65 31.35 -74.8 30.3 -77.75 37.65 -69.1 36.4 -64.95 26.4 Q-63.35 25.6 -61.65 24.95 L-59.4 24.05 -65.6 40.25 -55.0 38.45 -47.8 19.8" fill="#000000" fill-opacity="0.22745098" fill-rule="evenodd" stroke="none"/>
  </g>
</svg>
