<?xml version="1.0" encoding="UTF-8" standalone="no"?>
<svg xmlns:xlink="http://www.w3.org/1999/xlink" height="21.4px" width="17.65px" xmlns="http://www.w3.org/2000/svg">
  <g transform="matrix(1.0, 0.0, 0.0, 1.0, 73.0, 2.95)">
    <path d="M-63.7 10.95 Q-63.65 10.5 -64.0 10.05 -64.25 9.65 -64.65 9.55 -65.1 9.5 -65.45 9.75 L-65.85 10.45 -65.6 11.3 -64.85 11.8 Q-64.45 11.9 -64.15 11.6 -63.75 11.35 -63.7 10.95 M-67.25 8.95 L-65.4 7.7 -69.35 1.4 -70.7 2.85 -67.25 8.95 M-70.9 18.45 Q-72.85 9.7 -73.0 -2.95 -63.7 0.2 -55.35 5.8 -64.55 15.55 -70.9 18.45" fill="#fcec7a" fill-rule="evenodd" stroke="none"/>
    <path d="M-67.25 8.95 L-70.7 2.85 -69.35 1.4 -65.4 7.7 -67.25 8.95 M-63.7 10.95 Q-63.75 11.35 -64.15 11.6 -64.45 11.9 -64.85 11.8 L-65.6 11.3 -65.85 10.45 -65.45 9.75 Q-65.1 9.5 -64.65 9.55 -64.25 9.65 -64.0 10.05 -63.65 10.5 -63.7 10.95" fill="#312e17" fill-rule="evenodd" stroke="none"/>
  </g>
</svg>
