<?xml version="1.0" encoding="UTF-8" standalone="no"?>
<svg xmlns:xlink="http://www.w3.org/1999/xlink" height="64.65px" width="132.1px" xmlns="http://www.w3.org/2000/svg">
  <g transform="matrix(1.0, 0.0, 0.0, 1.0, 0.0, 0.0)">
    <path d="M50.0 32.3 L51.95 31.85 55.45 31.05 58.1 30.55 61.3 29.95 64.0 29.55 66.5 29.25 71.2 28.85 73.0 28.8 75.8 28.85 77.7 29.0 79.95 29.35 Q82.05 29.75 83.65 30.5 L84.75 31.1 84.85 31.15 87.25 32.55 88.15 33.15 90.55 34.55 91.4 35.05 93.75 36.55 94.95 37.2 97.7 38.95 99.3 39.9 100.4 40.6 102.5 41.95 103.55 42.55 105.25 43.65 114.2 49.45 124.95 56.7 132.1 61.7 Q131.75 63.25 131.0 64.65 L124.95 60.4 Q104.15 45.9 84.15 33.95 L81.55 32.4 Q79.65 31.65 77.15 31.3 L75.3 31.1 72.5 31.0 70.6 31.05 63.2 31.85 Q58.1 32.6 51.95 34.2 L49.65 34.75 43.8 32.3 Q31.3 27.65 18.45 24.3 3.25 20.25 0.0 15.75 22.25 -2.0 50.2 0.25 55.05 13.8 45.0 30.3 L50.0 32.3" fill="#7e65e4" fill-rule="evenodd" stroke="none"/>
  </g>
</svg>
