<?xml version="1.0" encoding="UTF-8" standalone="no"?>
<svg xmlns:xlink="http://www.w3.org/1999/xlink" height="64.5px" width="118.6px" xmlns="http://www.w3.org/2000/svg">
  <g transform="matrix(1.0, 0.0, 0.0, 1.0, 0.0, 0.0)">
    <path d="M13.85 0.0 L14.65 0.05 Q25.35 0.95 40.4 5.6 69.1 -2.65 93.75 6.0 L93.8 6.0 Q100.45 2.4 107.35 2.05 111.95 7.25 112.25 18.6 116.45 23.3 118.6 28.6 115.45 27.5 112.15 26.8 L112.15 31.55 Q107.95 30.45 102.4 30.55 L102.05 25.35 Q98.4 25.15 94.55 25.25 L95.2 31.0 Q87.4 31.9 77.5 34.4 L75.95 27.7 Q54.55 32.35 28.55 46.05 28.05 40.15 21.2 43.35 10.2 39.4 10.2 50.5 6.0 51.85 8.0 57.5 L8.0 57.55 Q3.5 60.8 0.6 64.5 -2.05 47.55 7.25 32.15 L7.25 32.1 Q8.25 23.7 10.05 15.2 11.6 7.6 13.85 0.0" fill="#3b3d4f" fill-rule="evenodd" stroke="none"/>
  </g>
</svg>
