<?xml version="1.0" encoding="UTF-8" standalone="no"?>
<svg xmlns:xlink="http://www.w3.org/1999/xlink" height="104.9px" width="114.6px" xmlns="http://www.w3.org/2000/svg">
  <g transform="matrix(1.0, 0.0, 0.0, 1.0, 57.3, 52.45)">
    <path d="M28.6 -20.25 Q26.15 -34.05 26.75 -47.8 28.75 -43.75 30.7 -41.35 30.1 -43.9 31.05 -46.85 L57.3 -10.8 Q42.9 -18.6 28.6 -20.25 M-42.9 -40.15 Q-41.7 -46.1 -41.55 -52.45 -41.1 -48.8 -39.2 -45.55 -39.0 -48.6 -37.65 -51.65 -36.05 -34.7 -31.55 -26.1 -24.8 -16.4 -20.7 -7.75 -13.9 -12.0 -7.1 -14.85 -11.2 -8.1 -10.4 6.2 -13.25 10.95 -15.9 16.5 -21.25 27.55 -25.8 41.65 L-35.6 52.4 -35.6 50.85 -45.9 52.15 -47.45 52.3 Q-54.0 52.95 -53.25 50.4 -52.8 48.9 -49.75 46.3 L-50.4 45.95 -55.15 43.2 Q-60.9 39.2 -51.35 39.95 L-46.1 40.5 Q-47.35 37.9 -47.1 36.6 L-47.05 36.35 Q-46.15 33.25 -35.15 38.9 L-34.7 34.75 Q-34.05 28.85 -32.85 22.65 -36.05 22.05 -38.45 20.85 -42.0 19.1 -43.85 16.05 -40.1 16.95 -36.3 14.9 -43.35 9.5 -47.0 3.7 -49.2 0.1 -50.1 -3.55 -47.95 -1.2 -43.95 -1.2 -48.85 -12.45 -42.9 -40.1 L-42.9 -40.15" fill="#1b1b3a" fill-rule="evenodd" stroke="none"/>
  </g>
</svg>
