<?xml version="1.0" encoding="UTF-8" standalone="no"?>
<svg xmlns:xlink="http://www.w3.org/1999/xlink" height="104.7px" width="161.25px" xmlns="http://www.w3.org/2000/svg">
  <g transform="matrix(1.0, 0.0, 0.0, 1.0, 80.65, 52.35)">
    <path d="M28.75 8.1 Q29.0 2.05 25.65 -3.95 24.85 -14.7 19.1 -19.8 32.8 -20.55 45.75 -18.6 43.65 -27.7 37.75 -34.25 32.65 -44.85 26.35 -48.5 32.65 -44.85 37.75 -34.25 43.65 -27.7 45.75 -18.6 L52.4 -17.4 Q52.25 -20.1 57.3 -21.25 52.25 -20.1 52.4 -17.4 L45.75 -18.6 Q32.8 -20.55 19.1 -19.8 24.85 -14.7 25.65 -3.95 29.0 2.05 28.75 8.1 14.65 8.8 -6.75 17.95 -20.05 23.6 -36.15 32.4 L-34.8 35.0 -40.1 38.55 -41.45 36.3 Q-49.3 41.05 -55.4 46.85 L-60.05 51.6 Q-64.5 49.6 -64.9 42.6 -64.8 40.2 -65.4 37.2 -70.75 37.05 -74.15 34.8 -80.95 29.85 -79.7 15.35 L-78.95 11.3 -77.05 1.85 Q-74.9 -11.0 -65.75 -20.55 -61.55 -24.95 -55.8 -28.7 -48.0 -33.5 -40.15 -36.65 -42.75 -32.2 -42.55 -27.75 -44.15 -26.7 -45.45 -26.0 -51.95 -22.75 -52.05 -27.15 -51.95 -22.75 -45.45 -26.0 -44.15 -26.7 -42.55 -27.75 -42.75 -32.2 -40.15 -36.65 -32.7 -39.75 -25.2 -41.3 L-24.2 -42.2 Q-16.35 -48.6 -5.95 -50.6 4.6 -52.7 17.7 -50.35 L26.35 -48.5 Q41.05 -44.4 49.1 -36.9 L59.95 -26.7 Q67.0 -20.55 63.65 -14.4 58.1 -16.2 52.4 -17.4 57.4 -11.65 59.5 -3.45 62.85 2.3 64.3 11.3 62.85 2.3 59.5 -3.45 57.4 -11.65 52.4 -17.4 58.1 -16.2 63.65 -14.4 L66.5 -13.4 Q70.1 -12.55 72.3 -3.75 72.7 0.4 77.0 6.7 82.75 17.45 77.0 15.35 70.75 12.95 64.3 11.3 47.4 7.1 28.95 8.05 L28.75 8.1 M12.4 -19.15 L10.35 -18.95 Q-3.6 -16.0 -16.75 -10.45 L-19.25 -9.4 Q-16.7 -16.5 -18.9 -22.8 -22.1 -28.45 -22.0 -34.25 -22.05 -39.0 -24.2 -42.2 -22.05 -39.0 -22.0 -34.25 -22.1 -28.45 -18.9 -22.8 -16.7 -16.5 -19.25 -9.4 L-16.75 -10.45 Q-3.6 -16.0 10.35 -18.95 L12.4 -19.15 Q13.35 -24.0 10.8 -28.95 8.9 -32.1 8.4 -36.95 5.85 -47.35 -5.95 -50.6 5.85 -47.35 8.4 -36.95 8.9 -32.1 10.8 -28.95 13.35 -24.0 12.4 -19.15 L19.1 -19.8 12.4 -19.15 M-25.2 -41.3 L-25.5 -41.05 Q-36.15 -31.8 -42.55 -27.75 -36.15 -31.8 -25.5 -41.05 L-25.2 -41.3 M-45.45 -26.0 Q-44.85 -19.95 -47.65 -13.85 -52.2 -4.05 -52.0 6.45 -56.4 8.05 -58.7 10.65 -56.4 8.05 -52.0 6.45 -52.2 -4.05 -47.65 -13.85 -44.85 -19.95 -45.45 -26.0 M-59.3 -7.7 Q-60.6 -1.35 -63.55 5.1 -69.75 -9.15 -65.75 -20.55 -69.75 -9.15 -63.55 5.1 -60.6 -1.35 -59.3 -7.7 M-36.15 32.4 L-40.15 24.55 Q-38.85 21.45 -41.05 18.4 -45.45 11.0 -45.0 4.8 -32.45 -3.6 -19.25 -9.4 -32.45 -3.6 -45.0 4.8 -45.45 11.0 -41.05 18.4 -38.85 21.45 -40.15 24.55 L-36.15 32.4 M-41.65 27.05 Q-42.6 27.05 -43.2 27.65 -43.85 28.35 -43.85 29.25 -43.85 30.2 -43.2 30.8 -42.6 31.5 -41.65 31.5 -40.65 31.5 -40.1 30.8 -39.4 30.2 -39.4 29.25 -39.4 28.35 -40.1 27.65 -40.65 27.05 -41.65 27.05 -40.65 27.05 -40.1 27.65 -39.4 28.35 -39.4 29.25 -39.4 30.2 -40.1 30.8 -40.65 31.5 -41.65 31.5 -42.6 31.5 -43.2 30.8 -43.85 30.2 -43.85 29.25 -43.85 28.35 -43.2 27.65 -42.6 27.05 -41.65 27.05 M-40.15 24.55 L-40.55 23.75 -46.5 27.5 -41.45 36.3 -46.5 27.5 -40.55 23.75 -40.15 24.55 M-67.15 31.9 Q-68.75 34.1 -74.15 34.8 -68.75 34.1 -67.15 31.9 -69.6 26.5 -67.85 22.95 -68.45 19.1 -70.65 19.55 L-72.2 19.0 Q-68.0 13.55 -65.1 8.2 L-63.55 5.1 -65.1 8.2 Q-65.55 13.6 -62.25 17.6 -65.55 13.6 -65.1 8.2 -68.0 13.55 -72.2 19.0 L-70.65 19.55 Q-68.45 19.1 -67.85 22.95 -67.05 21.35 -64.2 19.1 -67.05 21.35 -67.85 22.95 -69.6 26.5 -67.15 31.9 L-66.65 33.05 Q-65.85 35.2 -65.4 37.2 -65.85 35.2 -66.65 33.05 L-67.15 31.9 M-72.2 19.0 Q-77.65 16.8 -78.95 11.3 -77.65 16.8 -72.2 19.0 M-55.4 46.85 Q-58.6 44.3 -58.0 41.7 -58.3 37.85 -60.9 33.9 -65.85 26.2 -64.2 19.1 L-62.25 17.6 -60.25 16.2 Q-52.8 10.0 -45.0 4.8 -49.0 5.35 -52.0 6.45 -49.0 5.35 -45.0 4.8 -52.8 10.0 -60.25 16.2 L-62.25 17.6 -64.2 19.1 Q-65.85 26.2 -60.9 33.9 -58.3 37.85 -58.0 41.7 -58.6 44.3 -55.4 46.85 M-6.75 17.95 Q-6.8 9.4 -11.1 3.4 -12.05 -4.15 -16.75 -10.45 -12.05 -4.15 -11.1 3.4 -6.8 9.4 -6.75 17.95" fill="#8a634f" fill-rule="evenodd" stroke="none"/>
    <path d="M26.35 -48.5 Q32.65 -44.85 37.75 -34.25 43.65 -27.7 45.75 -18.6 L52.4 -17.4 Q52.25 -20.1 57.3 -21.25 M45.75 -18.6 Q32.8 -20.55 19.1 -19.8 24.85 -14.7 25.65 -3.95 29.0 2.05 28.75 8.1 L28.95 8.05 Q47.4 7.1 64.3 11.3 62.85 2.3 59.5 -3.45 57.4 -11.65 52.4 -17.4 58.1 -16.2 63.65 -14.4 67.0 -20.55 59.95 -26.7 L49.1 -36.9 Q41.05 -44.4 26.35 -48.5 L17.7 -50.35 Q4.6 -52.7 -5.95 -50.6 5.85 -47.35 8.4 -36.95 8.9 -32.1 10.8 -28.95 13.35 -24.0 12.4 -19.15 L19.1 -19.8 M-24.2 -42.2 Q-22.05 -39.0 -22.0 -34.25 -22.1 -28.45 -18.9 -22.8 -16.7 -16.5 -19.25 -9.4 L-16.75 -10.45 Q-3.6 -16.0 10.35 -18.95 L12.4 -19.15 M63.65 -14.4 L66.5 -13.4 Q70.1 -12.55 72.3 -3.75 72.7 0.4 77.0 6.7 82.75 17.45 77.0 15.35 70.75 12.95 64.3 11.3 M-52.05 -27.15 Q-51.95 -22.75 -45.45 -26.0 -44.15 -26.7 -42.55 -27.75 -42.75 -32.2 -40.15 -36.65 -48.0 -33.5 -55.8 -28.7 -61.55 -24.95 -65.75 -20.55 -69.75 -9.15 -63.55 5.1 -60.6 -1.35 -59.3 -7.7 M-58.7 10.65 Q-56.4 8.05 -52.0 6.45 -52.2 -4.05 -47.65 -13.85 -44.85 -19.95 -45.45 -26.0 M-42.55 -27.75 Q-36.15 -31.8 -25.5 -41.05 L-25.2 -41.3 Q-32.7 -39.75 -40.15 -36.65 M-25.2 -41.3 L-24.2 -42.2 Q-16.35 -48.6 -5.95 -50.6 M28.75 8.1 Q14.65 8.8 -6.75 17.95 -20.05 23.6 -36.15 32.4 L-34.8 35.0 -40.1 38.55 -41.45 36.3 Q-49.3 41.05 -55.4 46.85 L-60.05 51.6 Q-64.5 49.6 -64.9 42.6 -64.8 40.2 -65.4 37.2 -70.75 37.05 -74.15 34.8 -80.95 29.85 -79.7 15.35 L-78.95 11.3 -77.05 1.85 Q-74.9 -11.0 -65.75 -20.55 M-19.25 -9.4 Q-32.45 -3.6 -45.0 4.8 -45.45 11.0 -41.05 18.4 -38.85 21.45 -40.15 24.55 L-36.15 32.4 M-16.75 -10.45 Q-12.05 -4.15 -11.1 3.4 -6.8 9.4 -6.75 17.95 M-52.0 6.45 Q-49.0 5.35 -45.0 4.8 -52.8 10.0 -60.25 16.2 L-62.25 17.6 -64.2 19.1 Q-65.85 26.2 -60.9 33.9 -58.3 37.85 -58.0 41.7 -58.6 44.3 -55.4 46.85 M-63.55 5.1 L-65.1 8.2 Q-65.55 13.6 -62.25 17.6 M-65.1 8.2 Q-68.0 13.55 -72.2 19.0 L-70.65 19.55 Q-68.45 19.1 -67.85 22.95 -67.05 21.35 -64.2 19.1 M-78.95 11.3 Q-77.65 16.8 -72.2 19.0 M-67.85 22.95 Q-69.6 26.5 -67.15 31.9 L-66.65 33.05 Q-65.85 35.2 -65.4 37.2 M-74.15 34.8 Q-68.75 34.1 -67.15 31.9 M-41.45 36.3 L-46.5 27.5 -40.55 23.75 -40.15 24.55" fill="none" stroke="#000000" stroke-linecap="round" stroke-linejoin="round" stroke-width="1.5"/>
    <path d="M-41.65 27.05 Q-40.65 27.05 -40.1 27.65 -39.4 28.35 -39.4 29.25 -39.4 30.2 -40.1 30.8 -40.65 31.5 -41.65 31.5 -42.6 31.5 -43.2 30.8 -43.85 30.2 -43.85 29.25 -43.85 28.35 -43.2 27.65 -42.6 27.05 -41.65 27.05" fill="none" stroke="#000000" stroke-linecap="round" stroke-linejoin="round" stroke-width="1.0"/>
  </g>
</svg>
