<?xml version="1.0" encoding="UTF-8" standalone="no"?>
<svg xmlns:xlink="http://www.w3.org/1999/xlink" height="36.9px" width="29.05px" xmlns="http://www.w3.org/2000/svg">
  <g transform="matrix(1.0, 0.0, 0.0, 1.0, 14.55, 18.45)">
    <path d="M11.3 -3.2 Q8.8 -0.6 5.0 -0.6 1.35 -0.6 -1.3 -3.2 -3.85 -5.8 -3.85 -9.5 -3.85 -13.25 -1.3 -15.85 1.35 -18.45 5.0 -18.45 L7.15 -18.2 Q4.95 -17.9 3.3 -16.35 1.3 -14.3 1.3 -11.45 1.3 -8.5 3.3 -6.55 5.4 -4.5 8.2 -4.5 11.05 -4.5 13.05 -6.55 L13.7 -7.15 Q13.05 -4.95 11.3 -3.2 M4.65 -12.65 Q8.85 -10.85 12.9 -12.65 11.55 -16.45 8.6 -16.0 5.8 -15.85 4.65 -12.65 M4.65 -15.65 Q6.35 -17.4 8.8 -17.4 11.2 -17.4 12.9 -15.65 14.35 -14.25 14.5 -12.3 8.25 -8.2 2.95 -12.0 3.1 -14.05 4.65 -15.65 M12.9 -7.4 Q11.2 -5.7 8.8 -5.7 6.35 -5.7 4.65 -7.4 3.2 -8.85 2.95 -10.8 8.4 -7.65 14.5 -10.8 14.35 -8.85 12.9 -7.4" fill="#ffffff" fill-opacity="0.7882353" fill-rule="evenodd" stroke="none"/>
    <path d="M-9.7 6.95 Q-10.65 6.95 -11.25 7.55 -11.9 8.25 -11.9 9.15 -11.9 10.1 -11.25 10.7 -10.65 11.4 -9.7 11.4 -8.7 11.4 -8.15 10.7 -7.45 10.1 -7.45 9.15 -7.45 8.25 -8.15 7.55 -8.7 6.95 -9.7 6.95 M-8.15 18.45 L-14.55 7.4 -8.6 3.65 -2.85 14.9 -8.15 18.45" fill="#f3fefc" fill-rule="evenodd" stroke="none"/>
  </g>
</svg>
