<?xml version="1.0" encoding="UTF-8" standalone="no"?>
<svg xmlns:xlink="http://www.w3.org/1999/xlink" height="253.7px" width="167.0px" xmlns="http://www.w3.org/2000/svg">
  <g transform="matrix(1.0, 0.0, 0.0, 1.0, 71.1, 119.25)">
    <path d="M57.05 -104.25 L60.8 -106.55 58.6 -109.4 55.5 -107.45 57.05 -104.25 M50.25 -101.4 L54.85 -103.25 53.3 -106.65 49.55 -105.1 50.25 -101.4 M42.6 -99.75 L48.25 -100.85 47.5 -104.5 43.35 -103.9 42.6 -99.75 M55.5 -99.5 Q58.0 -100.65 60.25 -102.0 L61.35 -99.85 Q58.75 -98.25 56.0 -97.15 L55.5 -99.5 M40.6 -98.0 Q41.25 -102.6 42.5 -106.0 53.95 -107.05 59.7 -113.55 L61.55 -112.05 60.25 -110.75 62.55 -107.9 64.35 -109.2 65.4 -107.9 Q56.9 -98.75 40.6 -98.0 M66.15 -107.1 L67.5 -105.25 Q65.45 -102.95 63.15 -101.2 L61.75 -103.0 Q64.05 -104.75 66.15 -107.1 M40.2 -94.5 L40.5 -96.7 46.65 -97.1 46.75 -94.85 40.2 -94.5 M48.75 -95.1 L48.5 -97.45 53.3 -98.7 53.95 -96.4 48.75 -95.1 M26.1 -54.3 L28.25 -53.3 26.3 -51.45 30.8 -48.2 33.65 -50.4 35.4 -49.0 Q30.65 -43.25 15.65 -40.35 -2.7 -38.5 -12.6 -42.5 L-11.5 -43.95 Q-8.85 -43.15 -5.8 -42.7 L-4.75 -47.1 -9.8 -48.35 -9.75 -50.55 Q-2.05 -48.0 11.6 -49.0 22.25 -50.35 26.1 -54.3 M25.2 -41.55 L29.4 -43.15 30.8 -41.0 Q28.9 -40.05 26.45 -39.25 L25.2 -41.55 M36.8 -45.5 L33.85 -42.7 32.25 -44.55 36.05 -47.15 36.8 -45.5 M17.3 -39.25 L21.85 -40.45 22.9 -38.15 Q20.5 -37.45 17.9 -36.9 L17.3 -39.25 M21.25 -44.2 Q25.75 -45.5 28.95 -47.15 L25.0 -50.65 Q22.65 -49.15 19.6 -48.2 L21.25 -44.2 M7.8 -38.4 L13.3 -38.75 13.8 -36.4 8.0 -36.05 7.8 -38.4 M-0.75 -38.5 L4.4 -38.3 4.4 -36.0 -0.75 -36.3 -0.75 -38.5 M-3.45 -42.4 L7.8 -42.05 7.4 -46.55 -2.65 -46.85 -3.45 -42.4 M17.65 -47.8 L13.3 -47.1 9.6 -46.8 10.3 -42.25 15.25 -42.7 19.3 -43.65 17.65 -47.8 M94.7 31.5 L95.9 33.35 94.5 34.8 Q92.15 37.0 87.95 38.45 L86.9 36.6 Q91.85 34.3 94.5 31.7 L94.7 31.5 M92.6 28.15 L93.8 30.0 Q91.3 33.35 86.1 35.15 L85.0 33.55 Q90.05 30.9 92.6 28.15 M83.3 31.95 L84.0 34.1 78.45 34.05 78.05 32.45 83.3 31.95 M81.85 28.65 L82.7 30.35 77.75 31.0 77.2 28.7 81.55 28.1 81.85 28.65 M22.7 124.95 L22.7 125.1 Q23.15 127.7 22.25 129.55 21.25 131.45 19.45 131.45 17.65 131.45 15.95 129.55 14.4 127.7 14.0 125.1 13.5 122.45 14.5 120.55 15.35 118.65 17.25 118.65 19.05 118.65 20.6 120.55 21.7 121.85 22.4 123.65 L22.7 124.95 M0.9 107.9 L-0.9 108.45 -0.25 111.6 Q0.65 111.35 1.55 110.9 L1.9 112.7 Q-0.15 114.0 -3.65 114.15 -8.85 114.1 -11.1 113.1 L-10.55 111.05 -7.65 111.85 -7.25 108.55 -9.8 107.95 -9.4 106.15 Q-3.45 107.7 0.4 105.9 L0.9 107.9 M16.95 108.1 L17.75 109.8 Q12.75 113.3 5.4 112.15 L5.35 110.05 7.55 110.3 7.6 106.9 5.15 106.7 5.15 104.95 Q11.15 105.55 14.85 103.3 L15.55 104.75 13.25 106.05 14.6 109.3 16.95 108.1 M9.75 110.3 L12.55 109.95 11.5 106.5 9.65 106.8 9.75 110.3 M-62.5 -105.1 L-61.1 -101.95 -60.2 -102.6 -55.35 -106.3 -57.15 -109.4 Q-58.8 -107.85 -60.75 -106.4 L-62.5 -105.1 M-43.65 -116.75 L-41.8 -116.25 -43.1 -112.9 -44.85 -113.9 -43.65 -116.75 M-66.35 -102.95 L-66.35 -105.2 Q-63.2 -106.85 -60.75 -108.85 -55.1 -113.35 -52.7 -119.25 L-50.2 -119.1 -51.7 -116.25 -48.85 -114.25 Q-47.65 -116.5 -47.25 -118.6 L-46.95 -118.55 -45.25 -118.25 Q-45.75 -115.65 -46.95 -113.1 -49.55 -107.3 -55.9 -102.6 -60.05 -99.5 -65.7 -96.95 L-65.95 -98.95 -62.7 -100.9 -64.05 -104.15 -66.35 -102.95 M-55.8 -110.75 L-53.75 -107.75 Q-51.25 -110.15 -49.65 -112.65 L-52.45 -114.95 Q-53.9 -112.75 -55.8 -110.75 M-48.3 -108.4 Q-47.55 -109.25 -46.95 -110.25 L-45.85 -111.9 -44.1 -110.8 Q-45.0 -108.95 -46.15 -107.3 L-48.3 -108.4 M-55.3 -101.7 L-53.5 -99.3 -57.15 -97.0 -58.5 -99.55 -55.3 -101.7 M-50.95 -101.45 L-52.95 -103.6 -50.3 -106.15 -48.0 -104.65 -49.8 -102.6 -50.95 -101.45 M-65.2 -93.85 L-65.55 -95.85 Q-63.35 -96.85 -61.35 -97.95 L-60.35 -95.45 -65.2 -93.85 M-10.65 -38.5 L-9.75 -40.3 Q-7.4 -39.45 -4.55 -39.0 L-4.8 -36.8 Q-8.0 -37.45 -10.65 -38.5 M-63.55 15.25 L-64.45 17.15 Q-66.95 17.65 -69.95 17.15 L-69.2 15.05 -63.55 15.25 M-65.05 18.5 L-66.05 20.45 -71.1 20.65 -70.5 18.75 -65.05 18.5 M-68.15 24.2 Q-65.0 26.75 -59.75 28.5 L-60.75 30.25 Q-66.2 29.45 -69.1 25.95 L-68.15 24.2 M-70.05 27.5 Q-67.1 30.1 -61.85 32.0 L-63.05 34.0 Q-68.5 32.0 -71.1 29.1 L-70.05 27.5 M-5.25 108.75 L-5.35 112.15 -2.7 112.1 -2.85 108.7 -5.25 108.75 M0.4 128.6 Q0.4 130.95 -1.1 132.7 -2.7 134.45 -4.75 134.45 -6.85 134.45 -8.45 132.7 -9.9 130.95 -9.9 128.6 -9.9 126.2 -8.45 124.5 -6.85 122.8 -4.75 122.8 -2.7 122.8 -1.1 124.5 0.4 126.2 0.4 128.6" fill="#ffffff" fill-opacity="0.8784314" fill-rule="evenodd" stroke="none"/>
  </g>
</svg>
