<?xml version="1.0" encoding="UTF-8" standalone="no"?>
<svg xmlns:xlink="http://www.w3.org/1999/xlink" height="91.2px" width="164.55px" xmlns="http://www.w3.org/2000/svg">
  <g transform="matrix(1.0, 0.0, 0.0, 1.0, 0.0, 45.6)">
    <path d="M39.65 20.2 L39.5 20.2 39.1 20.3 Q19.4 23.7 0.1 31.4 -0.7 9.6 4.6 -12.3 31.05 -41.0 69.4 -45.6 L70.6 -45.4 Q98.7 -40.45 122.7 -22.7 L125.45 -20.6 127.3 -16.75 Q135.8 2.2 136.5 25.9 L139.85 27.1 Q142.35 28.2 144.65 29.35 L148.1 31.05 152.45 33.35 159.35 37.4 Q161.35 38.85 162.55 40.25 L163.0 40.8 163.65 41.7 Q164.55 43.2 164.55 44.6 164.3 45.7 163.0 45.6 L162.55 45.55 160.4 44.8 Q158.1 43.15 154.85 41.7 L152.45 40.75 Q150.4 39.95 148.1 39.25 L144.65 38.3 Q133.2 35.3 115.55 33.65 95.95 34.15 76.6 39.65 73.1 40.0 70.9 39.05 54.3 31.5 39.65 20.2" fill="#312d34" fill-rule="evenodd" stroke="none"/>
  </g>
</svg>
