<?xml version="1.0" encoding="UTF-8" standalone="no"?>
<svg xmlns:xlink="http://www.w3.org/1999/xlink" height="154.55px" width="184.05px" xmlns="http://www.w3.org/2000/svg">
  <g transform="matrix(1.0, 0.0, 0.0, 1.0, 92.05, 77.3)">
    <path d="M27.65 -52.45 Q25.1 -61.9 32.0 -69.65 38.9 -76.9 49.45 -77.3 L45.55 -72.7 Q60.25 -76.7 73.25 -72.0 84.0 -67.3 87.0 -56.9 84.85 -56.45 81.3 -58.15 90.95 -52.95 92.0 -38.65 92.15 -23.45 83.25 -17.55 87.55 -17.5 88.1 -16.6 84.9 -8.75 76.9 -8.4 79.35 12.15 76.9 28.2 79.7 35.45 84.8 43.4 79.5 43.45 76.5 39.4 84.75 59.7 79.8 67.25 L78.25 69.0 Q72.45 75.15 68.0 74.95 63.2 74.5 60.85 69.05 L59.3 68.7 Q53.65 63.3 56.9 50.65 60.9 33.6 56.9 17.1 60.25 11.55 57.05 4.35 47.15 -12.05 29.35 -16.15 30.25 -17.45 29.65 -18.8 23.05 -20.4 17.3 -19.1 16.9 -18.3 17.35 -17.4 -4.8 -16.4 -21.95 -0.9 -26.7 4.8 -24.15 11.95 -23.5 14.35 -21.95 15.7 -33.8 20.0 -37.6 31.4 -40.7 40.15 -37.6 52.2 -35.3 58.5 -35.75 63.4 -36.05 67.3 -38.15 70.3 -39.05 71.65 -41.55 73.9 -42.9 75.95 -45.1 77.25 -52.3 75.85 -56.85 71.95 -61.3 68.1 -62.55 63.5 -63.1 57.9 -60.65 51.35 -65.05 55.4 -69.45 54.1 L-62.25 42.9 Q-69.2 18.55 -63.05 5.0 -68.9 8.35 -74.0 7.9 -80.95 6.75 -81.95 1.7 -78.65 2.0 -75.55 1.15 -86.75 -1.5 -91.05 -15.4 -94.45 -29.1 -86.55 -42.1 L-83.65 -39.45 Q-83.5 -50.0 -74.05 -58.2 -68.3 -62.85 -60.3 -64.95 -64.9 -66.1 -65.45 -67.3 -59.9 -70.9 -47.55 -69.95 -28.9 -66.3 -25.25 -50.25 -11.6 -54.55 6.75 -54.7 17.35 -54.7 27.65 -52.45" fill="#e9f6ff" fill-rule="evenodd" stroke="none"/>
  </g>
</svg>
