<?xml version="1.0" encoding="UTF-8" standalone="no"?>
<svg xmlns:xlink="http://www.w3.org/1999/xlink" height="95.95px" width="120.15px" xmlns="http://www.w3.org/2000/svg">
  <g transform="matrix(1.0, 0.0, 0.0, 1.0, 67.15, 87.45)">
    <path d="M52.5 -74.85 L52.5 -69.2 -36.7 -69.2 -66.65 -81.3 -66.65 -86.95 22.5 -86.95 52.5 -74.85" fill="#cca472" fill-rule="evenodd" stroke="none"/>
    <path d="M45.55 0.9 L43.25 1.5 41.4 1.45 Q40.25 1.35 39.65 0.85 L39.6 0.8 38.05 -49.45 Q37.9 -55.25 35.45 -58.8 L22.65 -58.8 19.6 -8.9 Q18.8 -8.55 17.6 -8.45 15.45 -8.35 14.45 -9.0 L17.65 -58.8 -28.75 -58.8 Q-27.4 -54.85 -27.2 -48.65 L-25.55 1.35 -25.65 1.45 Q-26.35 1.85 -28.2 2.0 L-29.85 2.0 -31.9 1.5 -33.65 -53.5 Q-34.2 -58.2 -37.9 -60.1 -42.15 -62.4 -45.9 -63.7 -49.65 -65.05 -50.05 -59.95 L-53.45 -8.9 -55.5 -8.45 Q-57.85 -8.35 -58.9 -9.0 L-55.0 -66.5 Q-54.65 -68.25 -53.95 -69.2 L-58.4 -71.35 -60.5 -78.8 -36.7 -69.2 46.15 -69.2 44.15 -58.8 42.55 -58.8 Q43.8 -54.85 43.95 -48.65 L45.55 0.9" fill="#9ba6ad" fill-rule="evenodd" stroke="none"/>
    <path d="M-36.7 -74.85 L52.5 -74.85 52.5 -69.2 46.15 -69.2 44.15 -58.8 38.35 -58.8 35.45 -58.8 22.65 -58.8 17.65 -58.8 -32.15 -58.8 -33.5 -69.2 -36.7 -69.2 -36.7 -74.85" fill="#000000" fill-opacity="0.14901961" fill-rule="evenodd" stroke="none"/>
    <path d="M38.35 -58.8 Q40.7 -55.95 41.4 1.45 40.25 1.35 39.65 0.85 L39.6 0.8 38.05 -49.45 Q37.9 -55.25 35.45 -58.8 L38.35 -58.8 M22.65 -58.8 L19.6 -8.9 Q18.8 -8.55 17.6 -8.45 15.45 -8.35 14.45 -9.0 L17.65 -58.8 22.65 -58.8 M-32.15 -58.8 L-32.8 -59.15 Q-30.5 -46.35 -29.85 2.0 L-31.9 1.5 -33.65 -53.5 Q-34.2 -58.2 -37.9 -60.1 -42.15 -62.4 -45.9 -63.7 -49.65 -65.05 -50.05 -59.95 L-53.45 -8.9 -55.5 -8.45 Q-57.85 -8.35 -58.9 -9.0 L-55.0 -66.5 Q-54.65 -68.25 -53.95 -69.2 L-58.4 -71.35 -60.5 -78.8 -66.65 -81.3 -66.65 -86.95 -36.7 -74.85 -36.7 -69.2 -33.5 -69.2 -32.15 -58.8" fill="#000000" fill-opacity="0.32941177" fill-rule="evenodd" stroke="none"/>
    <path d="M41.4 1.45 L43.25 1.5 45.55 0.9 45.6 0.85 45.8 0.6 46.05 5.85 Q45.55 7.25 43.3 7.45 40.2 7.5 39.5 5.85 L39.4 0.6 39.6 0.8 39.65 0.85 Q40.25 1.35 41.4 1.45 M19.6 -8.9 L20.15 -9.35 19.7 -4.0 Q19.15 -2.75 17.0 -2.45 14.05 -2.35 13.55 -4.0 L13.95 -9.35 14.45 -9.0 Q15.45 -8.35 17.6 -8.45 18.8 -8.55 19.6 -8.9 M-29.85 2.0 L-28.2 2.0 Q-26.35 1.85 -25.65 1.45 L-25.55 1.35 -25.4 1.2 -25.25 6.5 Q-25.7 7.7 -28.15 8.0 -31.4 8.1 -32.15 6.5 L-32.3 1.2 -32.05 1.45 -31.9 1.5 -29.85 2.0 M-53.45 -8.9 L-52.75 -9.35 -53.2 -4.0 Q-53.85 -2.75 -56.2 -2.45 -59.2 -2.35 -59.85 -4.0 L-59.35 -9.35 -58.9 -9.0 Q-57.85 -8.35 -55.5 -8.45 L-53.45 -8.9" fill="#1e2021" fill-rule="evenodd" stroke="none"/>
    <path d="M-60.5 -78.8 L-66.65 -81.3 -66.65 -86.95 22.5 -86.95 52.5 -74.85 52.5 -69.2 46.15 -69.2 44.15 -58.8 42.55 -58.8 Q43.8 -54.85 43.95 -48.65 L45.55 0.9 45.6 0.85 45.8 0.6 46.05 5.85 Q45.55 7.25 43.3 7.45 40.2 7.5 39.5 5.85 L39.4 0.6 39.6 0.8 38.05 -49.45 Q37.9 -55.25 35.45 -58.8 L22.65 -58.8 19.6 -8.9 20.15 -9.35 19.7 -4.0 Q19.15 -2.75 17.0 -2.45 14.05 -2.35 13.55 -4.0 L13.95 -9.35 14.45 -9.0 17.65 -58.8 -28.75 -58.8 Q-27.4 -54.85 -27.2 -48.65 L-25.55 1.35 -25.4 1.2 -25.25 6.5 Q-25.7 7.7 -28.15 8.0 -31.4 8.1 -32.15 6.5 L-32.3 1.2 -32.05 1.45 -31.9 1.5 -33.65 -53.5 Q-34.2 -58.2 -37.9 -60.1 -42.15 -62.4 -45.9 -63.7 -49.65 -65.05 -50.05 -59.95 L-53.45 -8.9 -52.75 -9.35 -53.2 -4.0 Q-53.85 -2.75 -56.2 -2.45 -59.2 -2.35 -59.85 -4.0 L-59.35 -9.35 -58.9 -9.0 -55.0 -66.5 Q-54.65 -68.25 -53.95 -69.2 L-58.4 -71.35 -60.5 -78.8 -36.7 -69.2 46.15 -69.2 M22.65 -58.8 L17.65 -58.8 M19.6 -8.9 Q18.8 -8.55 17.6 -8.45 15.45 -8.35 14.45 -9.0 M42.55 -58.8 L35.45 -58.8 M-28.75 -58.8 L-32.15 -58.8 -53.95 -69.2 M-53.45 -8.9 L-55.5 -8.45 Q-57.85 -8.35 -58.9 -9.0 M-31.9 1.5 L-29.85 2.0 -28.2 2.0 Q-26.35 1.85 -25.65 1.45 L-25.55 1.35 M39.6 0.8 L39.65 0.85 Q40.25 1.35 41.4 1.45 L43.25 1.5 45.55 0.9" fill="none" stroke="#000000" stroke-linecap="round" stroke-linejoin="round" stroke-width="1.0"/>
  </g>
</svg>
