<?xml version="1.0" encoding="UTF-8" standalone="no"?>
<svg xmlns:xlink="http://www.w3.org/1999/xlink" height="181.6px" width="12.05px" xmlns="http://www.w3.org/2000/svg">
  <g transform="matrix(1.0, 0.0, 0.0, 1.0, 6.7, 135.6)">
    <path d="M4.2 45.4 L3.1 38.75 0.25 -134.75 M-4.95 45.4 L-4.1 38.75 -3.05 -101.65 -3.65 -113.75 M-0.55 45.35 L-1.05 -99.45 -1.5 -124.45" fill="none" stroke="#e2e2e2" stroke-linecap="round" stroke-linejoin="round" stroke-width="1.2000000000000002"/>
    <path d="M0.4 -134.05 Q0.4 -133.4 0.0 -133.0 -0.55 -132.45 -1.15 -132.45 -1.75 -132.45 -2.2 -133.0 -2.65 -133.4 -2.65 -134.05 L-2.2 -135.15 Q-1.75 -135.6 -1.15 -135.6 -0.55 -135.6 0.0 -135.15 0.4 -134.65 0.4 -134.05 M-1.75 -123.95 Q-1.75 -123.4 -2.2 -122.9 -2.6 -122.5 -3.3 -122.5 -3.9 -122.5 -4.4 -122.9 -4.8 -123.4 -4.8 -123.95 -4.8 -124.65 -4.4 -125.1 -3.9 -125.55 -3.3 -125.55 -2.6 -125.55 -2.2 -125.1 -1.75 -124.65 -1.75 -123.95 M-3.65 -113.6 Q-3.65 -112.95 -4.1 -112.55 -4.55 -112.05 -5.15 -112.05 -5.85 -112.05 -6.25 -112.55 -6.7 -112.95 -6.7 -113.6 L-6.25 -114.7 Q-5.85 -115.1 -5.15 -115.1 -4.55 -115.1 -4.1 -114.7 -3.65 -114.25 -3.65 -113.6" fill="#bcc9d2" fill-rule="evenodd" stroke="none"/>
    <path d="M-4.1 -96.95 L2.2 -96.95 M-4.2 -90.55 L2.5 -90.55 M-4.25 -83.35 L2.8 -83.35 M-4.5 -76.75 L2.8 -76.75 M-4.5 -62.65 L3.25 -62.65 M-4.55 -70.25 L3.1 -70.25 M-4.75 -56.15 L3.25 -56.15 M-4.8 -49.65 L3.5 -49.65 M-5.65 -30.6 L4.35 -30.6 M-5.55 -37.05 L4.0 -37.05 M-5.25 -43.65 L4.0 -43.65 M-5.7 -24.45 L4.4 -24.45 M-6.0 -17.85 L4.4 -17.85 M-6.1 -11.4 L4.75 -11.4" fill="none" stroke="#e2e2e2" stroke-linecap="round" stroke-linejoin="round" stroke-width="1.2000000000000002"/>
  </g>
</svg>
