<?xml version="1.0" encoding="UTF-8" standalone="no"?>
<svg xmlns:xlink="http://www.w3.org/1999/xlink" height="202.1px" width="82.4px" xmlns="http://www.w3.org/2000/svg">
  <g transform="matrix(1.0, 0.0, 0.0, 1.0, 41.2, 101.05)">
    <path d="M0.4 -90.0 L1.2 -90.2 1.3 -89.6 4.25 -89.95 Q4.6 -90.3 4.45 -91.25 4.35 -92.25 3.85 -92.5 L0.95 -91.75 1.05 -91.15 0.1 -90.95 0.4 -90.0 1.85 -85.3 2.75 -85.45 2.6 -86.1 5.45 -86.75 Q6.05 -86.5 6.2 -85.55 6.3 -84.6 6.0 -84.2 L3.05 -83.9 2.9 -84.4 2.2 -84.25 3.65 -79.5 4.4 -79.65 4.35 -80.25 7.2 -81.0 Q7.75 -80.7 7.85 -79.75 8.0 -78.85 7.65 -78.45 L4.7 -78.1 4.6 -78.7 3.95 -78.5 5.1 -74.85 Q-0.35 -72.1 -0.05 -66.95 L1.9 2.0 Q4.15 10.1 7.45 11.5 L39.95 93.25 Q41.45 97.4 38.35 99.45 34.3 101.85 30.85 97.6 L4.35 69.55 Q1.85 66.4 -1.65 66.1 -5.65 66.55 -8.0 69.8 L-33.2 98.65 Q-35.95 101.15 -38.65 99.45 -41.4 98.2 -40.0 94.0 L-13.15 11.95 Q-9.9 10.55 -9.4 6.9 L-8.3 -66.95 Q-8.6 -72.35 -14.15 -74.35 L-12.95 -78.55 -13.6 -78.7 -13.7 -78.1 -16.65 -78.45 Q-17.0 -78.85 -16.85 -79.75 -16.75 -80.7 -16.15 -81.0 L-13.35 -80.25 -13.45 -79.65 -12.65 -79.5 -11.3 -84.25 -12.05 -84.4 -12.2 -83.9 -15.1 -84.2 Q-15.45 -84.6 -15.35 -85.55 -15.2 -86.5 -14.6 -86.75 L-11.75 -86.1 -11.85 -85.45 -11.0 -85.3 -9.65 -90.05 -10.45 -90.25 -10.6 -89.65 -13.6 -90.0 Q-13.85 -90.4 -13.75 -91.35 -13.6 -92.35 -13.05 -92.6 L-10.2 -91.8 -10.3 -91.2 -9.4 -91.05 -7.1 -99.15 Q-6.3 -100.15 -4.75 -100.3 -3.1 -100.25 -2.45 -99.15 L0.1 -90.95 -0.3 -90.9 -0.1 -90.2 -0.15 -89.85 0.4 -90.0 M1.15 -85.2 L1.0 -85.4 -0.05 -85.8 Q-0.65 -85.8 -1.1 -85.4 L-1.55 -84.3 Q-1.55 -83.65 -1.1 -83.25 -0.65 -82.8 -0.05 -82.8 0.5 -82.8 1.0 -83.25 L1.4 -84.1 1.2 -84.1 1.05 -85.2 1.15 -85.2 1.85 -85.3 2.2 -84.25 1.4 -84.1 1.4 -84.3 1.15 -85.2 M3.65 -79.5 L3.95 -78.5 3.0 -78.3 2.8 -79.3 3.65 -79.5 M-0.05 -78.55 Q-0.05 -77.95 0.35 -77.5 0.8 -77.0 1.4 -77.0 2.05 -77.0 2.5 -77.5 2.9 -77.95 2.9 -78.55 2.9 -79.1 2.5 -79.6 2.05 -80.05 1.4 -80.05 0.8 -80.05 0.35 -79.6 L-0.05 -78.55 M-8.0 18.9 L2.15 18.9 Q4.05 18.9 4.05 20.85 L4.05 24.5 Q4.05 26.4 2.15 26.4 L-8.0 26.4 Q-9.95 26.4 -9.95 24.5 L-9.95 20.85 Q-9.95 18.9 -8.0 18.9 M-9.4 6.9 L-9.4 16.95 1.9 16.95 1.9 2.0 M-8.0 27.9 L2.15 27.9 Q4.05 27.9 4.05 29.8 L4.05 33.5 Q4.05 35.45 2.15 35.45 L-8.0 35.45 Q-9.95 35.45 -9.95 33.5 L-9.95 29.8 Q-9.95 27.9 -8.0 27.9 M-8.0 36.9 L2.15 36.9 Q4.05 36.9 4.05 38.85 L4.05 42.5 Q4.05 44.4 2.15 44.4 L-8.0 44.4 Q-9.95 44.4 -9.95 42.5 L-9.95 38.85 Q-9.95 36.9 -8.0 36.9 M-9.5 46.35 L3.65 45.75 Q4.5 45.65 5.2 46.35 5.8 46.95 5.8 47.8 L5.8 47.85 Q5.8 48.75 5.2 49.45 4.5 50.1 3.65 50.2 L-9.5 50.8 Q-10.45 50.85 -11.1 50.2 -11.75 49.6 -11.75 48.65 -11.75 47.65 -11.1 47.05 -10.45 46.4 -9.5 46.35 M-10.85 54.0 L4.9 54.0 Q5.7 54.0 6.25 54.55 6.8 55.05 6.8 55.8 6.8 56.55 6.25 57.15 5.7 57.65 4.9 57.65 L-10.85 57.65 Q-11.55 57.65 -12.15 57.15 -12.65 56.55 -12.65 55.8 -12.65 55.05 -12.15 54.55 -11.55 54.0 -10.85 54.0 M-13.25 17.35 L6.9 17.35 31.75 83.65 7.65 68.9 6.9 53.4 Q6.9 51.35 3.55 51.35 L-10.85 52.0 -22.6 64.05 -24.2 64.2 Q-24.8 63.95 -24.8 62.65 L-13.25 17.35 M-9.4 -91.05 L-8.8 -90.95 -8.6 -91.25 -7.5 -91.65 Q-7.0 -91.65 -6.5 -91.25 L-6.1 -90.2 Q-6.1 -89.6 -6.5 -89.15 -7.0 -88.65 -7.5 -88.65 -8.2 -88.65 -8.6 -89.15 L-9.0 -89.9 -9.65 -90.05 -9.4 -91.05 M-9.0 -89.9 L-9.05 -90.2 -8.8 -90.95 -8.65 -90.95 -8.85 -89.9 -9.0 -89.9 M-0.3 -90.9 L-0.6 -90.85 -0.4 -89.8 -0.15 -89.85 -0.55 -89.15 Q-0.95 -88.65 -1.6 -88.65 -2.2 -88.65 -2.7 -89.15 -3.1 -89.6 -3.1 -90.2 L-2.7 -91.25 Q-2.2 -91.65 -1.6 -91.65 -0.95 -91.65 -0.55 -91.25 L-0.3 -90.9 M-10.3 -85.2 L-10.25 -85.2 -10.45 -84.1 -10.6 -84.1 Q-10.55 -83.6 -10.2 -83.25 -9.7 -82.8 -9.1 -82.8 -8.4 -82.8 -8.0 -83.25 -7.5 -83.65 -7.5 -84.3 -7.5 -84.9 -8.0 -85.4 -8.4 -85.8 -9.1 -85.8 -9.7 -85.8 -10.2 -85.4 L-10.3 -85.2 -11.0 -85.3 -11.3 -84.25 -10.6 -84.1 -10.6 -84.3 -10.3 -85.2 M-12.65 -79.5 L-11.8 -79.3 -11.6 -79.6 Q-11.15 -80.05 -10.6 -80.05 -10.0 -80.05 -9.5 -79.6 -9.1 -79.1 -9.1 -78.55 -9.1 -77.95 -9.5 -77.5 -10.0 -77.0 -10.6 -77.0 -11.15 -77.0 -11.6 -77.5 L-12.0 -78.3 -12.95 -78.55 -12.65 -79.5 M-11.8 -79.3 L-11.75 -79.3 -11.95 -78.3 -12.0 -78.3 -12.05 -78.55 -11.8 -79.3 M-8.3 -66.95 L-0.05 -66.95" fill="none" stroke="#000000" stroke-linecap="round" stroke-linejoin="round" stroke-width="1.5"/>
  </g>
</svg>
