<?xml version="1.0" encoding="UTF-8" standalone="no"?>
<svg xmlns:xlink="http://www.w3.org/1999/xlink" height="220.15px" width="277.4px" xmlns="http://www.w3.org/2000/svg">
  <g transform="matrix(1.0, 0.0, 0.0, 1.0, 182.9, 174.35)">
    <path d="M-35.35 -34.0 L-35.25 -34.0 Q-37.75 -25.7 -37.75 -16.3 -37.75 -7.75 -35.6 -0.4 L-36.6 -0.3 Q-38.6 -7.65 -38.6 -16.2 -38.6 -25.65 -36.1 -34.1 L-35.6 -34.0 -35.35 -34.0 M21.25 -68.75 Q24.25 -67.65 26.9 -66.1 L28.6 -65.05 Q32.6 -62.25 36.2 -58.3 41.65 -52.15 44.85 -44.75 L44.9 -44.55 45.4 -43.35 45.7 -42.55 Q49.05 -33.4 49.05 -22.35 49.05 -0.8 36.2 15.4 32.7 19.75 28.85 23.1 L28.85 23.05 22.85 27.0 22.7 27.55 Q14.65 32.15 5.25 32.8 -12.3 34.1 -24.9 20.65 L-25.0 20.55 -25.75 19.75 Q-30.1 14.85 -33.0 9.1 L-32.15 8.6 Q-29.4 13.85 -25.45 18.35 L-24.75 19.2 -24.6 19.3 Q-12.5 32.2 4.3 31.0 21.7 29.8 33.95 14.2 46.35 -1.4 46.35 -22.3 46.35 -43.1 33.95 -56.95 24.65 -67.45 12.55 -69.3 L4.3 -69.6 0.7 -69.2 Q-3.8 -68.45 -7.9 -66.65 L-8.8 -66.35 Q-13.95 -63.9 -18.5 -60.0 -22.15 -56.9 -25.45 -52.75 L-28.9 -47.9 -32.0 -42.35 -32.0 -42.4 -32.7 -43.0 -29.35 -48.85 -25.75 -53.95 Q-22.3 -58.25 -18.55 -61.45 -15.1 -64.35 -11.35 -66.45 L-11.3 -66.35 -10.3 -66.15 -4.3 -69.0 -4.45 -69.5 Q-1.55 -70.45 1.5 -70.85 L5.25 -71.35 13.8 -71.0 Q17.65 -70.45 21.35 -69.0 L21.25 -68.75" fill="#000000" fill-opacity="0.32941177" fill-rule="evenodd" stroke="none"/>
    <path d="M-88.3 -18.85 L-91.8 9.8 -95.0 10.85 -98.25 7.8 -95.05 -18.65 -93.3 -18.7 -92.35 -18.7 -88.3 -18.85" fill="#77665a" fill-rule="evenodd" stroke="none"/>
    <path d="M-131.4 -126.2 L-132.2 -126.3 -131.4 -131.8 -131.4 -126.2 M-132.95 -126.4 L-139.65 -127.45 -138.95 -134.2 -137.0 -137.55 -136.25 -142.3 -135.3 -143.7 -131.7 -143.1 -132.15 -140.2 -132.9 -135.4 -133.85 -129.7 Q-133.6 -127.15 -132.95 -126.4 M-143.7 -128.15 Q-157.05 -130.9 -167.4 -135.8 -182.5 -143.1 -182.8 -150.35 -183.15 -157.6 -167.9 -161.35 -152.6 -165.05 -131.25 -162.55 L-129.6 -162.4 -126.7 -162.05 Q-108.5 -159.5 -95.0 -153.0 -80.2 -145.85 -79.5 -138.4 -78.95 -131.0 -94.1 -127.35 -108.1 -124.05 -127.5 -125.8 L-127.5 -134.7 -129.05 -139.45 -130.15 -140.1 -130.5 -140.2 -130.05 -142.95 -129.9 -142.95 Q-123.85 -142.45 -119.55 -143.6 -115.25 -144.8 -115.45 -146.9 -115.65 -149.0 -119.85 -150.85 -124.05 -152.75 -130.05 -153.3 -136.15 -153.75 -140.4 -152.55 -144.7 -151.3 -144.7 -149.35 -144.6 -147.25 -140.25 -145.35 -138.8 -144.65 -137.05 -144.15 L-137.55 -142.65 -137.5 -139.55 -140.9 -132.4 -143.7 -128.15" fill="url(#gradient0)" fill-rule="evenodd" stroke="none"/>
    <path d="M-137.05 -144.15 Q-138.8 -144.65 -140.25 -145.35 -144.6 -147.25 -144.7 -149.35 -144.7 -151.3 -140.4 -152.55 -136.15 -153.75 -130.05 -153.3 -124.05 -152.75 -119.85 -150.85 -115.65 -149.0 -115.45 -146.9 -115.25 -144.8 -119.55 -143.6 -123.85 -142.45 -129.9 -142.95 L-130.05 -142.95 -129.4 -147.2 -127.0 -146.9 Q-126.05 -149.1 -126.25 -152.1 L-132.3 -152.7 Q-132.8 -150.65 -132.8 -147.75 L-131.0 -147.45 -131.7 -143.1 -135.3 -143.7 -137.05 -144.15" fill="url(#gradient1)" fill-rule="evenodd" stroke="none"/>
    <path d="M-139.65 -127.45 L-143.7 -128.15 -140.9 -132.4 -137.5 -139.55 -137.55 -142.65 -137.05 -144.15 -135.3 -143.7 -136.25 -142.3 -137.0 -137.55 -138.95 -134.2 -139.65 -127.45" fill="#ffffff" fill-rule="evenodd" stroke="none"/>
    <path d="M33.65 -154.5 L33.7 -154.5 39.75 -154.9 40.9 -151.2 41.05 -148.3 37.7 -144.0 35.2 -145.5 38.3 -148.95 33.7 -154.4 33.65 -154.5 M69.15 -113.85 L71.15 -113.85 71.15 -91.85 66.55 -91.85 66.55 -113.85 67.25 -113.85 69.15 -113.85 M71.15 -85.85 L71.15 -63.9 66.55 -63.9 66.55 -85.85 71.15 -85.85 M71.15 -56.2 L71.15 -31.75 66.55 -31.75 66.55 -56.2 71.15 -56.2 M71.15 -22.95 L71.15 9.95 70.0 9.95 67.5 9.95 66.55 9.95 66.55 -21.5 66.55 -28.0 71.15 -28.0 71.15 -26.2 71.15 -22.95 M-16.55 33.25 L-19.65 32.4 -20.7 33.25 -25.2 32.0 -25.0 26.45 -22.25 27.45 -16.2 31.2 -16.55 33.25 M-40.6 4.6 L-44.0 4.1 -47.15 3.65 Q-47.55 2.6 -46.85 1.9 L-43.85 2.2 -40.15 2.5 -40.4 3.35 -40.6 4.6 M-41.3 -38.2 L-44.95 -38.75 -48.0 -39.05 Q-48.55 -39.9 -47.9 -40.8 L-44.7 -40.55 -41.15 -40.35 -41.35 -39.0 -41.3 -38.2 M-23.5 -75.05 L-29.35 -75.0 -29.55 -75.0 -33.4 -74.95 -33.7 -74.95 -34.0 -74.9 -35.35 -74.8 -38.25 -74.4 -39.7 -76.2 -36.75 -76.7 -35.6 -76.8 -34.35 -76.9 -33.75 -76.95 -33.7 -76.95 Q-26.5 -77.45 -20.05 -75.75 -19.0 -75.35 -18.05 -74.2 L-20.05 -74.7 -23.5 -75.05 M-45.25 -72.6 Q-56.35 -68.75 -65.05 -58.75 -69.7 -53.3 -72.75 -47.2 L-73.65 -47.5 -73.75 -47.5 -75.0 -45.2 -75.7 -43.0 -76.0 -41.2 -75.2 -41.05 Q-76.7 -36.8 -77.35 -32.3 L-77.85 -27.3 -77.95 -26.25 -78.0 -24.25 -78.0 -23.6 -77.85 -19.35 Q-77.25 -11.5 -74.55 -4.75 L-73.8 -4.75 -73.8 -4.65 -73.85 -4.4 -73.9 -4.15 -73.95 -3.25 -73.95 -3.0 -73.9 -2.25 Q-73.55 -0.9 -72.35 0.0 -69.45 5.25 -65.05 9.7 -61.9 12.95 -58.5 15.4 L-58.7 17.65 Q-62.8 15.0 -66.35 11.25 -72.4 5.05 -75.75 -2.55 L-77.95 -2.8 Q-79.45 -3.9 -78.65 -5.0 L-76.7 -4.9 Q-79.25 -11.55 -79.7 -19.25 L-79.85 -21.55 -79.85 -21.75 -79.9 -23.55 -79.9 -23.7 -79.9 -23.9 -79.9 -24.1 -79.8 -27.2 -79.65 -28.3 Q-79.35 -32.75 -78.4 -36.85 -77.65 -40.15 -76.4 -43.2 L-80.05 -44.5 Q-80.5 -45.7 -79.4 -46.25 L-75.6 -45.4 -73.65 -49.35 -73.0 -50.65 -70.45 -54.8 Q-68.6 -57.5 -66.35 -60.05 L-61.9 -64.75 -56.5 -69.1 -56.25 -69.3 Q-52.05 -72.1 -47.5 -73.95 L-51.05 -74.7 -51.25 -74.75 -52.25 -74.95 Q-52.8 -75.0 -53.15 -75.45 -53.4 -76.3 -52.35 -76.75 L-50.9 -76.55 -47.35 -76.05 -47.15 -76.05 -46.45 -74.3 -46.0 -73.6 -45.25 -72.6 M-56.15 16.85 Q-53.1 18.7 -49.8 19.85 L-49.65 19.9 -45.95 21.25 -45.8 21.45 -43.45 23.25 -49.4 24.8 Q-52.25 24.9 -53.55 24.05 -55.0 22.2 -54.6 20.45 L-54.6 20.4 -52.05 21.15 Q-54.25 20.3 -56.35 19.05 L-56.15 16.85 M-105.4 6.85 L-112.15 12.75 -115.8 15.9 -125.3 24.25 -125.3 21.6 -116.95 14.2 -112.45 10.15 -107.0 5.25 -105.4 6.85 M-132.15 24.25 L-140.1 17.05 -141.6 15.65 -151.0 7.2 -149.5 5.55 -140.4 14.0 -138.95 15.3 -132.15 21.6 -132.15 24.25 M-141.85 -25.7 L-141.35 -26.65 -140.4 -26.65 -131.4 -25.95 -131.4 -54.3 -127.5 -54.3 -127.5 -25.8 -118.15 -25.6 -118.15 -23.7 -127.5 -23.9 -127.5 -22.65 -131.4 -22.65 -131.4 -24.0 -142.1 -24.8 -141.85 -25.7 M-131.4 -62.75 L-131.4 -88.1 -140.4 -89.0 -141.0 -89.0 -141.5 -90.2 -141.5 -90.75 -131.4 -90.3 -131.4 -91.65 -127.5 -91.65 -127.5 -90.2 -118.15 -90.1 -118.15 -87.85 -127.5 -87.95 -127.5 -62.75 -131.4 -62.75 M-131.4 -99.1 L-131.4 -118.05 -127.5 -118.05 -127.5 -99.1 -131.4 -99.1 M-131.4 -125.2 L-131.4 -126.2 -131.4 -131.8 -131.25 -133.5 -132.9 -135.4 -132.15 -140.2 -130.5 -140.2 -130.15 -140.1 -129.05 -139.45 -127.5 -134.7 -127.5 -125.8 -127.5 -125.2 -131.4 -125.2 M30.85 -73.4 L30.85 -115.55 35.0 -115.55 35.05 -115.55 35.05 -73.4 30.85 -73.4 M35.05 -67.8 L35.05 -63.25 30.85 -66.65 30.85 -67.8 35.05 -67.8 M-80.95 -88.25 Q-89.75 -87.7 -104.8 -87.85 L-115.5 -87.8 -115.5 -90.05 -104.8 -90.0 -98.25 -90.0 -86.45 -90.15 -86.2 -90.15 -80.95 -90.3 -80.95 -88.25 M-115.5 -25.6 L-104.3 -25.5 Q-91.4 -25.5 -82.95 -25.9 L-82.95 -24.5 -82.95 -24.05 -82.95 -24.0 -89.95 -23.85 -93.55 -23.75 -97.9 -23.7 -98.35 -23.7 -106.35 -23.65 -115.5 -23.65 -115.5 -25.6 M-130.7 -14.6 L-127.35 -14.6 -126.95 -14.15 -126.95 21.6 -128.65 22.2 -130.7 21.6 -130.7 -14.6 M-17.25 -71.9 L-18.35 -71.3 -18.5 -71.2 -17.85 -69.7 -21.45 -69.7 -21.65 -71.15 -17.85 -71.85 -17.25 -71.9 M-77.5 -90.35 L-78.7 -88.95 -78.7 -89.8 -77.5 -90.35" fill="#9ea6af" fill-rule="evenodd" stroke="none"/>
    <path d="M68.3 -120.45 Q71.3 -119.85 71.95 -117.55 L71.75 -116.35 Q71.5 -115.35 70.9 -114.75 70.2 -114.15 69.15 -113.85 L67.25 -113.85 Q65.95 -116.15 66.65 -119.65 L68.3 -120.45 M71.15 -91.85 L72.65 -91.85 72.65 -85.85 71.15 -85.85 66.55 -85.85 65.2 -85.85 65.2 -91.85 66.55 -91.85 71.15 -91.85 M71.15 -63.9 L72.65 -63.9 72.65 -56.2 71.15 -56.2 66.55 -56.2 65.2 -56.2 65.2 -63.9 66.55 -63.9 71.15 -63.9 M71.15 -31.75 L72.45 -31.75 72.45 -28.0 71.85 -28.0 71.15 -28.0 66.55 -28.0 66.55 -21.5 55.85 8.8 63.45 22.35 Q64.9 22.0 65.35 22.6 L65.2 23.35 64.85 23.9 Q64.2 24.8 62.6 25.05 L61.65 25.25 60.55 24.95 Q60.55 24.25 61.55 23.6 L54.75 11.7 52.05 19.25 50.0 21.1 48.95 21.1 47.85 21.1 46.95 18.85 51.65 6.25 49.15 1.85 50.45 -0.6 52.75 3.4 63.2 -24.8 66.3 -28.0 65.45 -28.0 65.45 -31.75 66.55 -31.75 71.15 -31.75 M90.85 19.55 L90.25 21.1 89.2 21.1 88.1 21.1 86.1 19.25 71.15 -22.95 71.15 -26.2 71.3 -25.8 Q76.45 -16.05 80.65 -5.95 L88.55 13.35 90.85 19.55 M70.0 9.95 L70.0 12.25 67.7 12.25 67.5 9.95 70.0 9.95 M46.9 3.2 Q43.6 10.7 38.25 17.3 34.35 22.2 30.0 25.8 L28.85 23.1 Q32.7 19.75 36.2 15.4 49.05 -0.8 49.05 -22.35 49.05 -33.4 45.7 -42.55 L45.4 -43.35 44.9 -44.55 44.85 -44.75 Q41.65 -52.15 36.2 -58.3 L35.05 -59.5 30.85 -63.35 29.0 -64.8 Q29.6 -65.75 30.0 -67.25 L30.85 -66.65 35.05 -63.25 38.25 -60.0 Q43.6 -54.05 46.95 -47.0 L47.55 -47.2 47.65 -47.2 Q49.4 -42.3 50.45 -37.05 L50.4 -36.95 Q51.95 -30.1 51.95 -22.3 51.95 -14.2 50.15 -6.85 L47.75 -6.8 47.3 -5.5 Q47.7 -5.2 48.3 -5.0 L49.55 -4.35 50.0 -3.95 48.2 -0.2 48.15 0.0 46.45 2.85 46.55 2.9 46.75 3.05 46.9 3.2 M27.5 30.1 L23.15 32.5 Q22.2 32.1 21.7 31.3 14.2 35.0 5.5 35.6 -0.65 36.05 -6.2 34.8 -5.7 33.9 -5.55 32.7 L-7.25 32.0 -7.5 31.9 -7.8 31.85 -8.9 34.15 -9.05 34.45 -10.2 36.7 Q-11.6 36.55 -13.1 35.9 -15.75 34.3 -16.55 33.25 L-16.2 31.2 -16.2 31.15 -15.85 31.45 -13.75 32.6 -13.5 32.4 -20.35 28.25 Q-24.0 25.55 -27.3 21.85 L-27.7 21.5 -27.9 21.2 Q-32.75 15.7 -35.75 9.2 L-37.0 9.1 Q-38.85 8.7 -39.85 7.05 -40.6 5.8 -40.6 4.6 L-40.4 3.35 -40.15 2.5 Q-39.7 1.45 -38.8 0.8 -40.95 -6.95 -40.95 -15.75 -40.95 -25.65 -38.3 -34.5 L-39.95 -35.65 Q-41.1 -36.75 -41.3 -38.2 L-41.35 -39.0 -41.15 -40.35 Q-40.95 -41.6 -39.95 -42.55 -38.6 -43.95 -36.65 -43.95 L-35.45 -43.8 -35.35 -43.8 -34.75 -43.75 Q-32.35 -48.7 -29.0 -53.2 L-29.85 -49.55 Q-29.95 -48.85 -29.35 -48.85 L-32.7 -43.0 -32.0 -42.4 -32.0 -42.35 Q-31.4 -41.8 -31.1 -41.1 -30.9 -37.85 -32.8 -34.75 -33.9 -34.0 -35.25 -34.0 L-35.35 -34.0 -35.6 -34.0 -36.1 -34.1 Q-38.6 -25.65 -38.6 -16.2 -38.6 -7.65 -36.6 -0.3 L-35.6 -0.4 -34.7 -0.25 -34.55 -0.25 -34.0 -0.25 Q-30.95 3.55 -31.35 8.0 L-32.15 8.6 -33.0 9.1 Q-30.1 14.85 -25.75 19.75 L-25.0 20.55 -24.9 20.65 Q-18.95 27.0 -11.95 30.05 L-11.35 30.3 -10.85 30.5 Q-3.4 33.4 5.25 32.8 14.65 32.15 22.7 27.55 L22.85 27.0 27.0 24.25 27.0 24.5 27.1 28.0 27.1 28.15 Q27.0 29.1 27.45 29.95 L27.5 30.1 M-44.0 4.1 Q-44.4 5.05 -45.35 5.6 -46.5 6.35 -47.75 6.1 L-47.8 6.1 -48.6 6.0 Q-49.85 5.65 -50.55 4.5 -51.25 3.4 -50.9 2.1 -50.65 0.75 -49.5 0.0 -48.3 -0.65 -47.05 -0.35 L-47.0 -0.35 -46.2 -0.3 Q-44.95 0.0 -44.25 1.15 -43.85 1.65 -43.85 2.2 L-46.85 1.9 Q-47.55 2.6 -47.15 3.65 L-44.0 4.1 M-44.95 -38.75 L-45.65 -37.75 Q-46.55 -36.75 -47.9 -36.75 L-48.7 -36.85 -48.75 -36.85 Q-50.1 -36.85 -51.0 -37.85 -51.95 -38.8 -51.95 -40.2 -51.95 -41.55 -51.0 -42.45 -50.1 -43.45 -48.75 -43.45 L-47.95 -43.35 -47.9 -43.35 Q-46.55 -43.35 -45.65 -42.4 -44.85 -41.65 -44.7 -40.55 L-47.9 -40.8 Q-48.55 -39.9 -48.0 -39.05 L-44.95 -38.75 M-18.75 -64.1 Q-16.2 -66.15 -13.55 -67.7 L-17.25 -68.2 -17.3 -68.5 -20.45 -66.05 -26.15 -67.35 -26.45 -68.0 Q-27.05 -70.1 -26.05 -72.1 L-26.0 -72.15 Q-25.05 -74.2 -22.0 -74.55 L-21.35 -74.6 -19.7 -74.35 -20.05 -74.7 -18.05 -74.2 Q-19.0 -75.35 -20.05 -75.75 -26.5 -77.45 -33.7 -76.95 L-33.75 -76.95 -34.35 -76.9 -35.6 -76.8 -36.75 -76.7 -39.7 -76.2 -38.25 -74.4 -37.55 -73.45 -41.4 -71.0 -44.15 -71.35 -45.25 -72.6 -46.0 -73.6 -46.45 -74.3 -47.15 -76.05 -47.35 -76.05 -47.1 -76.15 Q-46.4 -77.6 -44.65 -78.0 L-42.9 -78.45 -41.15 -77.45 -36.9 -77.95 -33.3 -78.0 Q-26.25 -77.95 -20.05 -75.75 L-20.05 -77.9 -19.55 -78.1 -18.6 -78.55 0.05 -78.2 0.95 -77.55 0.95 -76.45 0.95 -73.55 -2.75 -73.1 -5.45 -72.1 Q-6.15 -73.1 -7.25 -73.65 L-7.7 -73.65 -9.1 -73.55 -12.25 -73.4 -13.55 -73.1 -16.35 -73.65 -17.7 -73.95 -18.2 -73.8 -18.85 -74.0 -18.75 -73.95 -18.55 -73.75 -18.25 -73.4 Q-17.7 -72.6 -17.85 -71.85 L-21.65 -71.15 -21.45 -69.7 -17.85 -69.7 -18.5 -71.2 -18.35 -71.3 -17.25 -71.9 -16.3 -72.3 Q-15.75 -71.8 -15.05 -71.45 L-14.4 -71.45 -12.75 -70.95 -12.65 -70.9 -10.2 -71.8 -9.75 -71.9 -8.85 -71.65 Q-8.55 -71.45 -8.45 -70.9 L-8.35 -70.45 -8.3 -70.0 Q-6.8 -70.45 -5.85 -70.95 L-5.2 -71.45 -5.1 -71.6 Q-2.35 -72.55 0.55 -73.1 L0.05 -72.55 -0.15 -72.3 Q-1.05 -70.95 0.85 -70.8 L0.9 -70.8 1.5 -70.85 Q-1.55 -70.45 -4.45 -69.5 L-4.3 -69.0 -10.3 -66.15 -11.3 -66.35 -11.35 -66.45 Q-15.1 -64.35 -18.55 -61.45 -18.2 -62.95 -18.75 -64.1 M-72.75 -47.2 L-70.25 -46.45 -72.25 -41.85 -72.85 -40.6 -75.2 -41.05 -76.0 -41.2 -75.7 -43.0 -75.0 -45.2 -73.75 -47.5 -73.65 -47.5 -72.75 -47.2 M-67.15 -45.45 L-66.35 -45.2 -64.8 -44.3 Q-64.65 -41.7 -66.1 -39.85 L-68.0 -39.85 -69.45 -40.05 Q-68.35 -42.35 -67.4 -44.75 L-67.15 -45.45 M-66.2 -5.9 L-64.3 -5.35 Q-63.4 -2.55 -64.45 0.35 L-66.15 1.05 -70.65 0.45 -71.75 0.25 -72.35 0.0 Q-73.55 -0.9 -73.9 -2.25 L-73.95 -3.0 -73.95 -3.25 -73.9 -4.15 Q-72.35 -3.25 -70.2 -2.9 L-65.6 -2.55 -66.1 -5.7 -66.2 -5.9 M-58.5 15.4 L-56.5 -3.25 Q-58.3 -3.6 -58.5 -4.1 -60.15 -4.45 -60.35 -5.3 -60.05 -10.05 -59.05 -12.85 -58.3 -13.8 -56.5 -13.75 L-56.75 -12.8 -51.55 -12.6 Q-50.55 -13.7 -49.05 -13.25 -47.35 -12.9 -47.1 -11.75 L-48.2 -2.95 -51.6 -3.1 -52.45 -3.75 Q-52.85 -3.2 -54.0 -3.2 L-56.15 16.85 -56.35 19.05 Q-54.25 20.3 -52.05 21.15 L-54.6 20.4 -54.6 20.45 -56.35 19.7 -57.65 31.6 Q-55.9 31.9 -55.65 33.15 -55.65 34.75 -56.9 35.05 L-57.65 33.95 -60.95 33.95 -61.95 35.0 Q-63.45 34.2 -62.45 32.3 -61.65 31.6 -60.15 31.45 L-58.75 18.45 Q-64.6 15.4 -69.5 10.25 -74.4 5.3 -77.4 -0.55 L-79.15 -0.65 Q-81.25 -3.35 -81.0 -6.1 L-80.0 -6.35 Q-82.15 -12.35 -82.7 -19.1 L-88.3 -18.85 -92.35 -18.7 -91.35 -20.25 -91.35 -20.3 Q-90.25 -22.2 -89.95 -23.85 L-82.95 -24.0 -82.9 -21.45 -82.9 -21.0 -79.85 -21.55 -79.7 -19.25 Q-79.25 -11.55 -76.7 -4.9 L-78.65 -5.0 Q-79.45 -3.9 -77.95 -2.8 L-75.75 -2.55 Q-72.4 5.05 -66.35 11.25 -62.8 15.0 -58.7 17.65 L-58.5 15.4 M-45.95 21.25 L-48.15 19.55 -47.45 18.75 -43.45 18.05 -35.8 24.3 -35.75 24.35 -39.15 25.6 -41.1 25.05 -43.45 23.25 -45.8 21.45 -45.95 21.25 M-79.85 27.1 L-77.5 29.2 -79.65 29.95 -80.6 28.35 -84.15 27.6 -105.4 6.85 -107.0 5.25 -112.15 0.25 -113.55 -1.1 -126.95 -14.15 -127.35 -14.6 -130.7 -14.6 -132.4 -12.8 -134.05 -11.0 -149.5 5.55 -151.0 7.2 -173.15 30.85 -174.2 31.15 -174.9 32.6 -176.7 31.45 -176.4 31.0 -176.75 30.85 Q-177.8 30.2 -177.75 28.35 L-134.05 -16.8 -132.7 -18.2 -133.25 -18.2 -133.25 -18.95 -134.05 -19.0 -141.35 -19.75 Q-142.5 -21.2 -142.2 -24.0 L-142.25 -24.0 -143.5 -25.2 -142.85 -29.5 -143.25 -29.5 -143.25 -36.8 -140.4 -37.7 -140.4 -29.5 -141.15 -29.5 -141.85 -25.7 -142.1 -24.8 -131.4 -24.0 -131.4 -22.65 -133.25 -22.65 -133.25 -20.85 -124.35 -20.3 -124.35 -22.65 -127.5 -22.65 -127.5 -23.9 -118.15 -23.7 -118.15 -25.6 -118.15 -27.2 -119.9 -27.2 -119.9 -36.2 -118.45 -37.1 -115.6 -37.1 -113.95 -36.2 -113.95 -27.2 -115.5 -27.2 -115.5 -25.6 -115.5 -23.65 -106.35 -23.65 -98.35 -23.7 -99.15 -21.55 Q-99.6 -20.05 -100.4 -18.7 L-100.5 -18.55 -104.7 -18.55 -111.95 -18.5 -113.45 -18.5 -124.35 -18.6 -124.35 -18.2 -126.0 -18.2 -128.75 -18.2 -80.1 27.6 -79.85 27.1 M-125.3 24.25 L-126.5 24.25 -131.15 24.25 -132.15 24.25 -132.15 21.6 -130.7 21.6 -128.65 22.2 -126.95 21.6 -125.3 21.6 -125.3 24.25 M-131.4 -54.3 L-132.55 -54.3 -132.55 -62.75 -131.4 -62.75 -127.5 -62.75 -126.3 -62.75 -126.3 -54.3 -127.5 -54.3 -131.4 -54.3 M-141.5 -90.2 L-141.15 -86.7 -140.4 -86.7 -140.4 -77.85 -143.25 -78.9 -143.25 -86.7 -142.85 -86.7 -142.85 -92.9 -141.7 -92.7 -141.7 -95.3 Q-141.3 -96.65 -132.7 -97.4 L-132.7 -99.1 -131.4 -99.1 -127.5 -99.1 -126.4 -99.1 -126.4 -97.9 -106.15 -98.5 -78.7 -97.3 -78.55 -96.6 Q-80.9 -98.45 -106.3 -98.3 L-126.4 -97.85 -126.4 -95.55 Q-120.0 -95.25 -108.7 -95.25 -81.7 -95.2 -78.55 -96.55 L-77.5 -90.45 -77.5 -90.35 -77.4 -90.45 Q-75.6 -92.2 -71.95 -94.0 L-70.25 -94.85 -69.6 -95.15 -68.35 -95.7 -65.6 -96.8 -67.35 -96.3 -67.75 -98.85 -69.9 -99.7 -69.45 -107.3 -67.9 -107.8 -68.25 -107.65 Q-68.45 -105.65 -68.25 -103.65 L-67.9 -100.2 -66.1 -100.8 -65.75 -100.65 -66.8 -108.15 -64.9 -106.65 -64.1 -100.0 -65.9 -99.3 -65.4 -96.85 Q-58.5 -99.45 -49.75 -101.15 L-47.95 -101.5 -47.9 -100.5 -47.65 -96.85 -49.15 -96.6 Q-61.15 -94.25 -69.65 -90.2 L-73.65 -88.1 Q-76.1 -86.6 -77.15 -85.2 L-77.35 -84.95 Q-78.15 -84.0 -78.15 -83.0 L-78.15 -82.85 Q-78.05 -81.9 -77.35 -81.25 L-77.35 -77.6 -78.75 -76.7 -81.2 -76.5 -82.4 -77.35 -82.4 -86.3 -80.95 -86.35 -80.95 -88.25 -80.95 -90.3 -86.2 -90.15 -85.85 -93.55 -85.75 -94.4 -97.85 -94.25 -98.25 -90.0 -104.8 -90.0 -115.5 -90.05 -115.5 -87.8 -115.5 -86.2 -113.95 -86.2 -113.95 -77.15 -115.6 -76.3 -118.45 -76.3 -119.9 -77.15 -119.9 -86.2 -118.15 -86.2 -118.15 -87.85 -118.15 -90.1 -127.5 -90.2 -127.5 -91.65 -131.4 -91.65 -131.4 -90.3 -141.5 -90.75 -141.5 -90.2 M-131.4 -118.05 L-132.7 -118.05 -132.7 -125.2 -131.4 -125.2 -127.5 -125.2 -126.3 -125.2 -126.3 -118.05 -127.5 -118.05 -131.4 -118.05 M-132.2 -126.3 L-132.25 -126.15 Q-132.65 -126.05 -132.95 -126.4 -133.6 -127.15 -133.85 -129.7 L-132.9 -135.4 -131.25 -133.5 -131.4 -131.8 -132.2 -126.3 M-39.65 -102.65 L-39.25 -102.65 Q-33.8 -103.2 -29.25 -102.8 L-26.0 -102.4 -23.35 -101.65 -22.1 -101.1 -21.6 -100.75 -21.5 -101.65 -22.25 -101.65 -24.1 -107.05 -21.65 -106.5 -20.65 -101.65 -20.7 -100.1 -16.55 -101.85 -15.95 -102.1 -15.2 -102.3 -15.2 -98.3 -16.35 -97.85 -20.3 -96.2 -20.15 -94.95 -20.15 -94.75 -20.2 -94.95 -20.75 -95.95 -21.65 -96.6 Q-22.65 -97.15 -24.25 -97.6 L-24.35 -97.6 -25.35 -97.85 -25.5 -97.85 -28.6 -98.3 Q-33.2 -98.55 -38.8 -98.05 -39.1 -100.4 -39.65 -102.65 M-15.2 -105.75 L-15.75 -106.0 -15.2 -109.45 -15.2 -105.75 M-15.2 -117.35 L-15.75 -117.35 -15.75 -118.85 -15.95 -118.95 -16.25 -122.55 -17.5 -123.4 Q-18.55 -124.6 -18.55 -126.25 L-18.55 -126.8 -18.15 -128.2 Q-20.35 -127.4 -22.15 -126.25 L-22.15 -127.5 -18.15 -128.9 -18.05 -128.25 -17.5 -129.05 Q-16.35 -130.25 -14.85 -130.25 L-14.1 -130.15 -13.5 -130.0 -14.75 -134.4 -12.35 -133.8 -12.25 -133.5 -10.5 -133.85 0.25 -135.2 1.0 -131.85 -0.75 -131.8 -0.65 -130.4 -0.1 -129.65 -0.1 -124.45 -0.1 -122.75 -0.3 -122.4 -0.3 -117.35 -0.85 -117.35 -4.55 -117.35 -4.95 -117.35 -4.95 -122.4 -5.25 -122.7 -5.25 -124.45 -5.25 -129.65 -4.8 -130.4 -4.75 -131.1 -4.7 -131.35 -7.55 -130.9 -11.15 -130.25 -10.8 -129.35 -10.55 -129.3 -10.2 -129.2 Q-7.8 -128.65 -7.8 -125.35 -8.35 -121.9 -10.35 -122.0 L-10.95 -122.0 -10.95 -117.35 -11.45 -117.35 -15.2 -117.35 M-24.75 -120.1 L-24.6 -118.95 Q-25.7 -119.2 -26.4 -119.6 L-25.75 -116.75 -24.5 -117.2 -24.45 -116.6 -24.2 -112.25 -25.85 -112.4 -27.2 -116.35 -27.05 -116.4 -27.3 -120.45 -27.55 -120.85 -28.5 -120.35 -29.25 -122.5 -29.05 -122.5 -28.15 -122.7 -24.65 -124.0 Q-25.75 -122.75 -26.0 -121.55 -25.95 -120.95 -24.75 -120.1 M-33.8 -122.1 Q-34.9 -122.75 -35.5 -125.1 -36.05 -127.65 -35.05 -129.05 L-33.35 -129.55 -31.55 -130.15 Q-35.3 -132.1 -42.65 -132.2 L-44.85 -132.1 -45.5 -135.7 -41.95 -135.75 Q-33.55 -135.15 -29.4 -131.9 L-28.9 -130.9 -28.7 -131.0 -28.1 -124.5 -33.8 -122.1 M-41.4 -131.1 L-41.05 -129.35 -41.65 -129.35 -41.5 -128.35 Q-40.5 -124.5 -40.05 -120.5 L-42.15 -120.4 -45.05 -128.3 -43.2 -129.1 -43.7 -131.1 -43.75 -131.55 -41.5 -131.55 -41.4 -131.1 M-69.45 -125.9 L-69.45 -124.0 -69.6 -123.9 Q-70.3 -120.05 -70.25 -116.1 L-70.15 -114.3 -70.45 -114.15 -71.45 -114.45 -73.05 -122.5 -71.4 -123.2 -71.4 -125.1 -71.4 -125.55 -69.45 -126.3 -69.45 -125.9 M-67.2 -121.3 L-66.85 -115.8 -67.55 -115.4 -67.75 -116.2 -67.95 -116.95 Q-67.65 -117.1 -67.65 -117.45 L-67.2 -121.3 M-81.7 -114.9 L-81.5 -113.5 -83.5 -114.0 -82.55 -110.9 -81.2 -111.5 -81.05 -110.9 -80.15 -105.9 -82.9 -105.9 -84.45 -110.0 -83.9 -110.3 -84.75 -114.95 Q-85.5 -115.85 -85.55 -117.1 -85.9 -120.35 -84.5 -122.1 -78.8 -129.0 -66.85 -132.1 -60.8 -133.95 -54.75 -134.8 L-53.5 -131.2 Q-58.35 -130.4 -63.2 -129.05 -73.6 -126.3 -79.45 -122.1 -82.95 -119.1 -83.3 -116.4 -83.2 -115.65 -81.7 -114.9 M8.25 -135.1 L11.4 -134.8 Q18.6 -133.7 21.9 -130.5 L22.55 -129.0 22.6 -127.55 22.0 -126.65 22.2 -125.9 22.9 -122.45 23.15 -121.1 21.7 -120.45 20.55 -125.45 21.35 -125.25 21.25 -125.9 21.2 -126.25 20.9 -127.4 Q21.2 -127.85 20.85 -128.45 L20.5 -128.8 Q17.45 -131.1 10.45 -131.95 L8.55 -132.0 8.25 -135.1 M31.3 -133.65 L31.4 -139.55 32.35 -139.55 32.45 -149.55 32.85 -149.45 33.15 -139.55 33.85 -139.55 34.5 -133.65 31.3 -133.65 M11.5 -130.85 L11.65 -129.3 11.35 -129.35 11.15 -129.35 11.2 -128.55 11.35 -127.45 11.55 -125.9 11.7 -123.75 11.7 -121.55 9.9 -121.65 8.1 -128.75 9.75 -129.25 9.55 -131.05 9.5 -131.45 11.45 -131.25 11.5 -130.85 M-0.85 -105.35 L1.7 -105.6 3.3 -105.75 3.3 -104.9 3.25 -101.75 1.9 -101.6 -0.85 -101.3 -0.85 -105.35 M10.65 -106.05 L10.95 -106.05 19.65 -105.4 Q23.7 -104.65 25.65 -103.3 L26.05 -102.9 26.3 -103.75 25.55 -103.8 24.45 -108.65 26.45 -107.9 26.95 -103.65 26.8 -102.25 26.85 -97.7 Q26.75 -98.55 25.7 -99.4 24.0 -100.65 19.8 -101.3 L10.95 -102.1 10.65 -106.05 M16.75 -73.0 L18.85 -72.5 20.15 -72.1 19.0 -72.6 Q19.8 -73.8 21.75 -74.7 24.5 -74.1 27.4 -72.55 27.15 -71.9 27.2 -71.05 L27.25 -69.6 27.2 -69.05 26.9 -66.15 26.9 -66.1 Q24.25 -67.65 21.25 -68.75 L21.35 -69.0 Q17.65 -70.45 13.8 -71.0 14.2 -71.6 14.2 -72.6 L16.35 -72.95 16.75 -73.0 M30.05 -69.6 L30.05 -73.4 30.85 -73.4 35.05 -73.4 35.9 -73.4 35.9 -67.8 35.05 -67.8 30.85 -67.8 30.1 -67.8 30.05 -69.6 M15.8 -108.3 L15.0 -107.85 15.0 -106.25 12.6 -106.2 12.7 -107.65 Q10.65 -108.2 10.25 -108.95 L10.3 -115.25 11.75 -116.15 13.2 -116.05 Q13.8 -112.65 15.15 -109.6 L15.8 -108.3 M-11.45 -112.2 L-10.85 -111.65 -10.7 -105.9 -11.45 -105.6 -11.45 -112.2 M-11.45 -103.35 L-4.55 -104.85 -4.55 -100.8 -11.45 -99.4 -11.45 -103.35 M-34.0 -105.75 L-34.9 -105.15 -34.7 -103.3 -37.4 -102.9 -37.4 -104.65 Q-39.8 -105.0 -40.4 -105.9 L-41.05 -113.1 -39.45 -114.3 -37.75 -114.3 Q-36.7 -110.55 -34.85 -107.2 L-34.0 -105.75 M-130.05 -142.95 L-130.5 -140.2 -132.15 -140.2 -131.7 -143.1 -131.0 -147.45 -130.8 -148.5 -129.35 -148.1 -129.4 -147.2 -130.05 -142.95 M-82.85 -28.25 L-82.4 -33.2 -82.4 -36.1 -81.8 -36.5 -80.5 -41.55 -81.85 -42.75 Q-81.75 -45.7 -79.95 -48.4 L-77.8 -48.4 -76.15 -51.5 Q-75.0 -50.85 -73.65 -50.15 L-73.35 -50.0 -73.0 -50.65 -73.65 -49.35 -75.6 -45.4 -79.4 -46.25 Q-80.5 -45.7 -80.05 -44.5 L-76.4 -43.2 Q-77.65 -40.15 -78.4 -36.85 -79.35 -32.75 -79.65 -28.3 L-80.25 -28.3 -82.4 -28.25 -82.85 -28.25 M-73.35 -56.0 L-69.5 -61.05 -64.4 -66.35 -61.9 -64.75 -66.35 -60.05 Q-68.6 -57.5 -70.45 -54.8 L-73.35 -56.0 M-58.5 -70.8 L-56.45 -72.05 -57.65 -73.15 Q-57.35 -75.1 -55.55 -76.4 L-52.6 -77.95 -50.9 -76.55 -52.35 -76.75 Q-53.4 -76.3 -53.15 -75.45 -52.8 -75.0 -52.25 -74.95 L-51.25 -74.75 -51.5 -74.55 -51.05 -74.7 -47.5 -73.95 Q-52.05 -72.1 -56.25 -69.3 L-56.2 -69.35 -58.5 -70.8 M-132.7 -95.85 L-132.7 -97.3 Q-135.05 -97.1 -135.2 -96.65 -135.4 -96.2 -132.7 -95.85 M-78.7 -87.15 L-78.7 -86.5 -78.55 -86.5 -78.55 -86.9 -78.7 -87.15 M-77.5 -90.35 L-78.7 -89.8 -78.7 -88.95 -77.5 -90.35" fill="#c6d0db" fill-rule="evenodd" stroke="none"/>
    <path d="M-15.2 -102.3 L-15.2 -105.75 -15.2 -109.45 -15.2 -117.35 -11.45 -117.35 -11.45 -112.2 -11.45 -105.6 -11.45 -103.35 -11.45 -99.4 -4.55 -100.8 -4.55 -104.85 -4.55 -117.35 -0.85 -117.35 -0.85 -105.35 -0.85 -101.3 1.9 -101.6 3.25 -101.75 10.95 -102.1 19.8 -101.3 Q24.0 -100.65 25.7 -99.4 26.75 -98.55 26.85 -97.7 L26.85 -97.2 Q26.65 -95.4 23.25 -93.45 L24.35 -86.5 23.25 -86.35 24.05 -81.7 21.7 -81.3 21.4 -82.85 22.55 -83.0 22.0 -86.15 20.8 -85.95 19.85 -91.9 18.9 -91.6 Q14.1 -89.95 8.1 -88.85 L8.9 -83.75 7.45 -83.55 8.2 -78.75 6.55 -78.5 5.85 -83.3 4.3 -83.05 3.5 -88.15 0.55 -87.85 -0.85 -87.75 -0.85 -80.9 0.05 -80.0 0.05 -78.2 -18.6 -78.55 -19.55 -78.1 -19.7 -79.1 -21.2 -78.9 -22.3 -85.7 -34.2 -83.7 -33.3 -78.0 -36.9 -77.95 -37.85 -83.4 Q-43.05 -81.85 -49.15 -80.65 -61.15 -78.35 -69.65 -79.0 L-73.65 -79.55 Q-76.25 -80.2 -77.35 -81.25 -78.05 -81.9 -78.15 -82.85 L-78.15 -83.0 Q-78.15 -84.0 -77.35 -84.95 L-77.15 -85.2 Q-76.1 -86.6 -73.65 -88.1 L-69.65 -90.2 Q-61.15 -94.25 -49.15 -96.6 L-47.65 -96.85 -38.8 -98.05 Q-33.2 -98.55 -28.6 -98.3 L-25.5 -97.85 -25.35 -97.85 -24.35 -97.6 -24.25 -97.6 Q-22.65 -97.15 -21.65 -96.6 L-20.75 -95.95 -20.2 -94.95 -20.15 -94.75 -20.15 -94.25 Q-20.15 -92.7 -22.05 -90.9 L-20.05 -89.7 Q-18.5 -89.1 -16.0 -88.8 L-15.2 -88.6 -15.2 -97.1 Q-18.4 -96.05 -20.15 -94.95 L-20.3 -96.2 -16.35 -97.85 -15.2 -98.3 -15.2 -102.3 M-18.55 -126.8 Q-23.85 -124.5 -24.85 -121.4 L-24.75 -120.1 Q-25.95 -120.95 -26.0 -121.55 -25.75 -122.75 -24.65 -124.0 L-28.15 -122.7 -29.05 -122.5 -29.25 -122.5 -33.8 -122.1 -28.1 -124.5 -28.7 -131.0 -23.05 -131.0 -18.85 -132.5 -18.9 -133.05 -14.75 -134.4 -13.5 -130.0 -14.1 -130.15 -14.85 -130.25 Q-16.35 -130.25 -17.5 -129.05 L-18.05 -128.25 -18.15 -128.9 -22.15 -127.5 -22.15 -126.25 Q-20.35 -127.4 -18.15 -128.2 L-18.55 -126.8 M-33.35 -129.55 Q-36.3 -131.0 -41.4 -131.1 L-41.5 -131.55 -43.75 -131.55 -43.7 -131.1 -44.45 -131.05 -45.9 -131.0 Q-51.7 -130.6 -59.5 -129.0 -65.15 -127.55 -69.45 -125.9 L-69.45 -126.3 -71.4 -125.55 -71.4 -125.1 -73.65 -124.1 -75.0 -123.4 Q-81.2 -120.05 -82.0 -116.25 L-81.7 -114.9 Q-83.2 -115.65 -83.3 -116.4 -82.95 -119.1 -79.45 -122.1 -73.6 -126.3 -63.2 -129.05 -58.35 -130.4 -53.5 -131.2 L-44.85 -132.1 -42.65 -132.2 Q-35.3 -132.1 -31.55 -130.15 L-33.35 -129.55 M8.55 -132.0 L10.45 -131.95 Q17.45 -131.1 20.5 -128.8 L20.85 -128.45 Q21.2 -127.85 20.9 -127.4 L21.2 -126.25 20.4 -126.1 20.15 -127.0 18.6 -128.6 Q16.25 -130.35 11.5 -130.85 L11.45 -131.25 9.5 -131.45 9.55 -131.05 8.8 -131.05 7.55 -131.1 -0.15 -130.9 0.9 -130.45 0.9 -125.0 -0.1 -124.45 -0.1 -129.65 -0.65 -130.4 -0.75 -131.8 1.0 -131.85 8.55 -132.0 M0.95 -76.45 L22.95 -80.1 23.4 -77.8 22.45 -76.0 9.2 -73.8 6.3 -73.75 5.5 -73.7 1.05 -73.2 0.75 -73.15 0.55 -73.1 Q-2.35 -72.55 -5.1 -71.6 L-5.45 -72.1 -2.75 -73.1 0.95 -73.55 0.95 -76.45 M-0.85 -100.2 L-0.85 -88.5 0.7 -88.65 3.4 -88.95 8.0 -89.65 Q13.35 -90.55 17.65 -92.0 L18.45 -92.3 19.75 -92.8 20.5 -93.1 20.85 -93.3 Q24.9 -95.1 25.1 -96.95 25.15 -97.75 24.5 -98.4 23.1 -99.75 18.5 -100.5 11.7 -101.5 1.9 -100.5 L-0.85 -100.2 M-5.25 -124.45 L-6.25 -125.15 -6.25 -130.2 -10.55 -129.3 -10.8 -129.35 -11.15 -130.25 -7.55 -130.9 -4.7 -131.35 -4.75 -131.1 -4.8 -130.4 -5.25 -129.65 -5.25 -124.45 M-4.55 -88.3 L-4.55 -99.7 -11.45 -98.25 -11.45 -88.3 -6.85 -88.15 -4.55 -88.3 M-11.45 -87.4 L-11.45 -80.9 -4.55 -80.9 -4.55 -87.45 -11.2 -87.45 -11.45 -87.4 M-16.85 -80.9 L-15.2 -80.9 -15.2 -86.8 -17.7 -86.4 -16.85 -80.9 M-22.1 -93.8 Q-22.1 -94.35 -22.4 -94.85 L-22.9 -95.4 Q-23.4 -95.75 -24.35 -96.1 L-24.4 -96.1 -24.6 -96.2 Q-26.6 -96.9 -30.0 -97.1 -37.95 -97.5 -49.1 -95.3 -60.3 -93.05 -68.15 -89.55 -71.7 -87.9 -73.65 -86.45 -75.05 -85.5 -75.65 -84.55 L-76.05 -83.15 Q-76.05 -81.55 -73.65 -80.7 -71.7 -80.05 -68.15 -79.8 -60.3 -79.35 -49.1 -81.65 -41.3 -83.15 -35.1 -85.3 -32.45 -86.25 -30.0 -87.35 -28.7 -87.9 -27.65 -88.5 -25.2 -89.7 -23.85 -90.85 -22.8 -91.8 -22.35 -92.7 L-22.25 -92.95 Q-22.1 -93.4 -22.1 -93.8 M-23.1 -90.1 L-24.8 -88.95 -21.85 -89.4 -23.1 -90.1 M-34.9 -84.1 L-34.95 -84.4 -36.65 -83.85 -34.9 -84.1 M-16.35 -73.65 L-13.55 -73.1 -14.35 -72.95 -17.05 -73.55 -16.35 -73.65" fill="#9aa2aa" fill-rule="evenodd" stroke="none"/>
    <path d="M22.55 -129.0 L26.95 -129.2 32.75 -128.6 39.3 -129.2 Q51.9 -128.3 61.0 -126.05 L61.1 -125.9 22.2 -125.9 22.0 -126.65 22.6 -127.55 22.55 -129.0 M21.2 -126.25 L21.25 -125.9 20.5 -125.9 20.4 -126.1 21.2 -126.25" fill="url(#gradient2)" fill-rule="evenodd" stroke="none"/>
    <path d="M21.25 -125.9 L21.35 -125.25 20.55 -125.45 20.5 -125.9 21.25 -125.9 M22.9 -122.45 L22.2 -125.9 61.1 -125.9 61.15 -125.85 Q52.9 -122.95 40.45 -122.35 L25.7 -122.35 24.65 -122.4 22.9 -122.45" fill="url(#gradient3)" fill-rule="evenodd" stroke="none"/>
    <path d="M44.25 -164.25 Q42.65 -163.25 35.8 -162.9 L34.7 -162.85 32.6 -162.85 Q27.6 -162.95 26.15 -163.55 27.55 -164.9 30.25 -166.25 L31.75 -166.35 31.85 -166.25 31.65 -170.3 32.8 -170.35 32.7 -171.55 31.6 -171.55 31.4 -173.65 Q32.0 -174.35 34.6 -174.35 37.45 -174.35 37.9 -173.85 L38.05 -171.75 36.8 -171.7 36.9 -170.55 38.1 -170.6 38.15 -166.65 40.2 -166.75 Q42.85 -165.5 44.25 -164.25 M89.2 21.1 L91.2 21.5 Q93.8 25.5 94.4 29.15 94.8 31.6 93.35 31.9 90.95 32.3 88.85 31.9 86.7 31.45 86.55 29.8 L87.2 22.8 88.1 21.1 89.2 21.1 M70.0 12.25 L71.5 13.8 72.55 21.85 Q69.2 22.9 65.1 21.85 L66.0 14.3 67.7 12.25 70.0 12.25 M65.2 23.35 Q67.5 25.45 68.75 28.7 69.5 30.5 67.1 31.45 64.6 32.4 63.5 30.4 62.1 28.1 61.65 25.25 L62.6 25.05 Q64.2 24.8 64.85 23.9 L65.2 23.35 M50.0 21.1 L50.95 22.8 51.6 29.8 Q51.5 31.45 49.3 31.9 47.2 32.3 44.85 31.9 43.4 31.6 43.75 29.15 44.35 25.5 46.95 21.5 L48.95 21.1 50.0 21.1 M-56.9 35.05 L-55.4 42.4 Q-56.0 46.2 -60.0 45.75 -63.05 45.8 -63.9 43.1 L-61.95 35.0 -60.95 33.95 -57.65 33.95 -56.9 35.05 M-77.5 29.2 L-76.8 28.8 Q-73.9 31.9 -71.0 36.15 L-73.75 38.0 -78.15 37.7 Q-80.35 35.85 -80.9 30.4 L-79.65 29.95 -77.5 29.2 M-112.15 12.75 L-111.9 15.4 Q-112.6 16.15 -114.25 16.1 L-115.8 15.9 -112.15 12.75 M-126.5 24.25 L-125.4 26.2 -125.4 30.4 Q-129.2 31.5 -132.35 30.4 L-132.35 26.05 -131.15 24.25 -126.5 24.25 M-141.25 23.35 L-140.35 23.35 -139.6 29.65 Q-140.4 30.45 -142.15 30.4 -144.5 30.25 -145.15 29.65 L-144.05 23.35 -142.95 23.35 -141.25 23.35 M-174.9 32.6 L-174.25 33.05 -175.6 39.9 Q-178.6 41.25 -181.7 39.95 L-182.9 38.5 -178.95 31.05 -177.25 31.2 -176.95 31.3 -176.7 31.45 -174.9 32.6 M26.95 -129.2 L30.75 -131.25 30.75 -133.65 31.3 -133.65 34.5 -133.65 35.0 -133.65 35.35 -131.25 39.3 -129.2 32.75 -128.6 26.95 -129.2 M30.85 -115.55 L28.5 -117.0 28.5 -118.95 29.75 -120.25 36.05 -120.25 37.0 -119.15 37.0 -117.1 35.0 -115.55 30.85 -115.55 M-131.0 -147.45 L-132.8 -147.75 Q-132.8 -150.65 -132.3 -152.7 L-126.25 -152.1 Q-126.05 -149.1 -127.0 -146.9 L-129.4 -147.2 -129.35 -148.1 -130.8 -148.5 -131.0 -147.45 M-113.45 9.45 L-112.55 9.45 -112.45 10.15 -116.95 14.2 -116.15 9.45 -115.1 9.45 -113.45 9.45" fill="#2c2c2f" fill-rule="evenodd" stroke="none"/>
    <path d="M71.85 -28.0 L74.9 -24.8 91.2 18.85 90.85 19.55 88.55 13.35 80.65 -5.95 Q76.45 -16.05 71.3 -25.8 L71.15 -26.2 71.15 -28.0 71.85 -28.0 M49.15 1.85 L48.4 2.9 Q48.05 3.45 47.05 3.3 L46.9 3.2 46.75 3.05 46.55 2.9 46.45 2.85 48.15 0.0 48.2 -0.2 50.0 -3.95 49.55 -4.35 48.3 -5.0 Q47.7 -5.2 47.3 -5.5 L47.75 -6.8 50.15 -6.85 50.9 -6.5 Q51.8 -5.85 51.65 -4.95 L50.45 -0.6 49.15 1.85 M30.0 25.8 L30.5 26.8 Q30.8 28.2 29.2 29.15 L27.5 30.1 27.45 29.95 Q27.0 29.1 27.1 28.15 L27.1 28.0 27.0 24.5 27.0 24.25 28.85 23.05 28.85 23.1 30.0 25.8 M-6.2 34.8 Q-6.7 35.8 -7.55 36.5 L-7.8 36.55 -10.2 36.7 -9.05 34.45 -8.9 34.15 -7.8 31.85 -7.5 31.9 -7.25 32.0 -5.55 32.7 Q-5.7 33.9 -6.2 34.8 M-29.0 -53.2 L-27.3 -55.45 Q-23.25 -60.5 -18.75 -64.1 -18.2 -62.95 -18.55 -61.45 -22.3 -58.25 -25.75 -53.95 L-29.35 -48.85 Q-29.95 -48.85 -29.85 -49.55 L-29.0 -53.2 M-70.25 -46.45 L-67.15 -45.45 -67.4 -44.75 Q-68.35 -42.35 -69.45 -40.05 L-72.85 -40.6 -72.25 -41.85 -70.25 -46.45 M-73.8 -4.75 Q-73.35 -5.95 -72.45 -6.55 L-66.2 -5.9 -66.1 -5.7 -65.6 -2.55 -70.2 -2.9 Q-72.35 -3.25 -73.9 -4.15 L-73.85 -4.4 -73.8 -4.65 -73.8 -4.75 M-95.0 10.85 L-79.05 25.85 -79.85 27.1 -80.1 27.6 -128.75 -18.2 -126.0 -18.2 -113.45 -6.5 -111.95 -5.05 -98.25 7.8 -95.0 10.85 M-67.9 -107.8 L-66.8 -108.15 -65.75 -100.65 -66.1 -100.8 -67.9 -100.2 -68.25 -103.65 Q-68.45 -105.65 -68.25 -107.65 L-67.9 -107.8 M-47.95 -101.5 L-39.95 -102.65 -39.65 -102.65 Q-39.1 -100.4 -38.8 -98.05 L-47.65 -96.85 -47.9 -100.5 -47.95 -101.5 M-41.05 -129.35 L-39.4 -129.3 -38.2 -121.45 -38.4 -120.6 -39.8 -120.55 -40.05 -120.5 Q-40.5 -124.5 -41.5 -128.35 L-41.65 -129.35 -41.05 -129.35 M-69.45 -124.0 L-68.65 -124.3 -67.3 -123.3 -67.2 -121.3 -67.65 -117.45 Q-67.65 -117.1 -67.95 -116.95 L-67.75 -116.2 -67.55 -115.4 -69.9 -114.35 -70.15 -114.3 -70.25 -116.1 Q-70.3 -120.05 -69.6 -123.9 L-69.45 -124.0 M-54.75 -134.8 L-45.5 -135.7 -44.85 -132.1 -53.5 -131.2 -54.75 -134.8 M0.25 -135.2 Q4.3 -135.35 8.25 -135.1 L8.55 -132.0 1.0 -131.85 0.25 -135.2 M11.65 -129.3 L13.05 -129.15 13.4 -122.2 13.1 -121.5 11.7 -121.55 11.7 -123.75 11.55 -125.9 11.35 -127.45 11.2 -128.55 11.15 -129.35 11.35 -129.35 11.65 -129.3 M3.3 -105.75 L10.3 -106.05 10.65 -106.05 10.95 -102.1 3.25 -101.75 3.3 -104.9 3.3 -105.75 M9.2 -73.8 L11.7 -73.7 16.2 -73.1 16.75 -73.0 16.35 -72.95 14.2 -72.6 Q14.2 -71.6 13.8 -71.0 L5.25 -71.35 1.5 -70.85 0.9 -70.8 0.85 -70.8 Q-1.05 -70.95 -0.15 -72.3 L0.05 -72.55 0.55 -73.1 0.75 -73.15 1.05 -73.2 5.5 -73.7 6.3 -73.75 9.2 -73.8 M27.4 -72.55 L29.1 -71.6 Q29.75 -70.75 30.05 -69.6 L30.1 -67.8 30.05 -67.55 30.0 -67.25 Q29.6 -65.75 29.0 -64.8 L28.6 -65.05 26.9 -66.1 26.9 -66.15 27.2 -69.05 27.25 -69.6 27.2 -71.05 Q27.15 -71.9 27.4 -72.55 M13.2 -116.05 L13.8 -116.0 16.8 -109.6 Q16.8 -109.0 15.8 -108.3 L15.15 -109.6 Q13.8 -112.65 13.2 -116.05 M47.65 -47.2 Q48.75 -47.5 49.25 -46.7 52.2 -42.3 52.25 -38.55 52.4 -37.85 51.5 -37.2 L50.45 -37.05 Q49.4 -42.3 47.65 -47.2 M-5.45 -72.1 L-5.1 -71.6 -5.2 -71.45 -5.85 -70.95 Q-6.8 -70.45 -8.3 -70.0 L-8.35 -70.45 -8.45 -70.9 Q-8.55 -71.45 -8.85 -71.65 L-9.75 -71.9 -10.2 -71.8 -12.65 -70.9 -12.75 -70.95 -14.4 -71.45 -15.05 -71.45 Q-15.75 -71.8 -16.3 -72.3 L-14.35 -72.95 -13.55 -73.1 -12.25 -73.4 -9.1 -73.55 -7.7 -73.65 -7.25 -73.65 Q-6.15 -73.1 -5.45 -72.1 M-37.75 -114.3 L-37.0 -114.35 -33.0 -107.4 Q-32.85 -106.7 -34.0 -105.75 L-34.85 -107.2 Q-36.7 -110.55 -37.75 -114.3 M-82.95 -25.9 L-82.85 -28.25 -82.4 -28.25 -80.25 -28.3 -79.65 -28.3 -79.8 -27.2 -79.9 -24.1 -79.9 -23.9 -79.9 -23.7 -79.9 -23.55 -79.85 -21.75 -79.85 -21.55 -82.9 -21.0 -82.9 -21.45 -82.95 -24.0 -82.95 -24.05 -82.95 -24.5 -82.95 -25.9 M-76.15 -51.5 L-75.65 -52.55 -73.65 -55.5 -73.5 -55.85 -73.35 -56.0 -70.45 -54.8 -73.0 -50.65 -73.35 -50.0 -73.65 -50.15 Q-75.0 -50.85 -76.15 -51.5 M-64.4 -66.35 Q-61.55 -68.8 -58.5 -70.8 L-56.2 -69.35 -56.25 -69.3 -56.5 -69.1 -61.9 -64.75 -64.4 -66.35 M-86.2 -90.15 L-86.45 -90.15 -98.25 -90.0 -97.85 -94.25 -85.75 -94.4 -85.85 -93.55 -86.2 -90.15 M-127.5 -22.65 L-124.35 -22.65 -124.35 -20.3 -133.25 -20.85 -133.25 -22.65 -131.4 -22.65 -127.5 -22.65 M-100.5 -18.55 L-100.4 -18.7 Q-99.6 -20.05 -99.15 -21.55 L-98.35 -23.7 -97.9 -23.7 -93.55 -23.75 -89.95 -23.85 Q-90.25 -22.2 -91.35 -20.3 L-91.35 -20.25 -92.35 -18.7 -93.3 -18.7 -95.05 -18.65 -100.5 -18.55" fill="#f3f7ff" fill-rule="evenodd" stroke="none"/>
    <path d="M29.75 -120.25 L29.5 -120.25 Q25.75 -121.4 24.65 -122.4 L25.7 -122.35 40.45 -122.35 Q38.85 -120.85 36.3 -120.25 L36.05 -120.25 29.75 -120.25" fill="url(#gradient4)" fill-rule="evenodd" stroke="none"/>
    <path d="M40.9 -151.2 L68.3 -120.45 66.65 -119.65 61.15 -125.85 61.1 -125.9 61.0 -126.05 41.05 -148.3 40.9 -151.2 M71.75 -116.35 L88.85 -96.6 Q89.0 -94.95 87.5 -95.1 L70.9 -114.75 Q71.5 -115.35 71.75 -116.35 M-140.1 17.05 L-141.25 19.4 -141.25 23.35 -142.95 23.35 -142.95 19.2 Q-142.65 17.35 -141.6 15.65 L-140.1 17.05 M-134.05 -16.8 L-134.05 -19.0 -133.25 -18.95 -133.25 -18.2 -132.7 -18.2 -134.05 -16.8 M-113.55 -1.1 L-112.15 0.25 -113.6 5.0 -113.45 9.45 -115.1 9.45 -115.1 4.4 -113.55 -1.1 M-113.45 -6.5 L-113.45 -18.5 -111.95 -18.5 -111.95 -5.05 -113.45 -6.5 M-134.05 -11.0 L-132.4 -12.8 -132.4 7.5 Q-132.8 10.0 -134.75 11.35 -137.25 13.05 -138.95 15.3 L-140.4 14.0 -139.35 12.9 -135.7 9.7 Q-134.35 8.8 -134.05 6.35 L-134.05 -11.0" fill="#8b929a" fill-rule="evenodd" stroke="none"/>
    <path d="M-21.35 -74.6 L-23.5 -75.05 -20.05 -74.7 -19.7 -74.35 -21.35 -74.6 M-22.1 -101.1 L-22.25 -101.65 -21.5 -101.65 -21.6 -100.75 -22.1 -101.1 M-18.2 -73.8 L-17.7 -73.95 -16.35 -73.65 -17.05 -73.55 -18.2 -73.8 M-78.7 -87.15 L-78.55 -86.9 -78.55 -86.5 -78.7 -86.5 -78.7 -87.15" fill="#00ccff" fill-rule="evenodd" stroke="none"/>
    <path d="M-132.7 -95.85 Q-135.4 -96.2 -135.2 -96.65 -135.05 -97.1 -132.7 -97.3 L-132.7 -95.85" fill="#ff99ff" fill-rule="evenodd" stroke="none"/>
    <path d="M44.25 -164.25 L53.9 -163.85 Q68.85 -163.1 79.85 -161.4 80.8 -159.65 69.15 -157.7 L58.4 -156.5 57.95 -156.4 53.9 -156.05 39.75 -154.9 33.7 -154.5 33.65 -154.5 Q17.15 -153.55 1.0 -153.65 -10.2 -154.3 -10.1 -155.5 4.4 -159.95 26.15 -163.55 27.6 -162.95 32.6 -162.85 L34.7 -162.85 35.8 -162.9 Q42.65 -163.25 44.25 -164.25" fill="url(#gradient5)" fill-rule="evenodd" stroke="none"/>
  </g>
  <defs>
    <linearGradient gradientTransform="matrix(0.0498, 0.0024, -0.0011, 0.0225, -115.1, -143.7)" gradientUnits="userSpaceOnUse" id="gradient0" spreadMethod="pad" x1="-819.2" x2="819.2">
      <stop offset="0.0" stop-color="#ecd9b5"/>
      <stop offset="1.0" stop-color="#9c8a6f"/>
    </linearGradient>
    <linearGradient gradientTransform="matrix(-0.0058, -0.0084, 0.0116, -0.0081, -129.3, -146.85)" gradientUnits="userSpaceOnUse" id="gradient1" spreadMethod="pad" x1="-819.2" x2="819.2">
      <stop offset="0.0" stop-color="#b1a388"/>
      <stop offset="0.3254901960784314" stop-color="#c9b89a"/>
      <stop offset="1.0" stop-color="#9c8a6f"/>
    </linearGradient>
    <linearGradient gradientTransform="matrix(2.0E-4, 0.0034, -0.0343, 0.0023, 33.1, -126.8)" gradientUnits="userSpaceOnUse" id="gradient2" spreadMethod="pad" x1="-819.2" x2="819.2">
      <stop offset="0.0" stop-color="#ecd9b5"/>
      <stop offset="1.0" stop-color="#9c8a6f"/>
    </linearGradient>
    <linearGradient gradientTransform="matrix(2.0E-4, 0.0035, -0.0343, 0.0021, 33.15, -124.65)" gradientUnits="userSpaceOnUse" id="gradient3" spreadMethod="pad" x1="-819.2" x2="819.2">
      <stop offset="0.0" stop-color="#ecd9b5"/>
      <stop offset="1.0" stop-color="#9c8a6f"/>
    </linearGradient>
    <linearGradient gradientTransform="matrix(1.0E-4, 0.0017, -0.0095, 5.0E-4, 32.55, -121.35)" gradientUnits="userSpaceOnUse" id="gradient4" spreadMethod="pad" x1="-819.2" x2="819.2">
      <stop offset="0.0" stop-color="#ecd9b5"/>
      <stop offset="1.0" stop-color="#9c8a6f"/>
    </linearGradient>
    <linearGradient gradientTransform="matrix(4.0E-4, 0.0053, -0.0549, 0.0038, 34.95, -157.0)" gradientUnits="userSpaceOnUse" id="gradient5" spreadMethod="pad" x1="-819.2" x2="819.2">
      <stop offset="0.0" stop-color="#ecd9b5"/>
      <stop offset="1.0" stop-color="#9c8a6f"/>
    </linearGradient>
  </defs>
</svg>
