<?xml version="1.0" encoding="UTF-8" standalone="no"?>
<svg xmlns:xlink="http://www.w3.org/1999/xlink" height="136.0px" width="180.7px" xmlns="http://www.w3.org/2000/svg">
  <g transform="matrix(1.0, 0.0, 0.0, 1.0, 8.95, 78.6)">
    <path d="M59.95 -47.9 L60.25 -49.7 Q60.25 -53.8 54.05 -56.75 47.95 -59.65 39.25 -59.65 30.6 -59.65 24.4 -56.75 18.3 -53.8 18.3 -49.7 18.3 -45.55 24.4 -42.65 30.6 -39.75 39.25 -39.75 47.95 -39.75 54.05 -42.65 57.35 -44.2 58.9 -46.1 L63.05 -47.05 62.85 -46.6 62.8 -46.6 Q61.45 -45.9 61.45 -44.9 61.45 -43.9 62.8 -43.2 64.1 -42.5 66.0 -42.5 67.9 -42.5 69.25 -43.2 70.3 -43.75 70.5 -44.5 L70.55 -44.9 Q70.55 -45.9 69.25 -46.6 L68.95 -46.7 69.4 -47.4 69.55 -48.2 69.5 -48.8 78.1 -42.5 78.1 -38.45 78.1 -36.6 26.4 -27.7 -0.5 -51.05 -0.5 -54.15 -0.5 -56.45 48.45 -64.25 50.95 -62.4 67.25 -50.5 67.1 -50.5 Q66.15 -50.5 65.5 -49.9 L65.4 -49.8 65.1 -49.5 64.95 -49.25 64.85 -49.05 64.65 -48.2 64.65 -48.15 Q64.0 -48.05 63.45 -47.55 L63.35 -47.45 64.75 -49.0 59.95 -47.9 M82.35 -67.75 L82.1 -70.8 130.5 -78.6 150.25 -64.85 150.1 -64.85 Q149.15 -64.85 148.55 -64.25 L148.45 -64.15 148.2 -63.85 148.05 -63.55 Q147.8 -63.1 147.85 -62.55 L147.85 -62.5 Q147.2 -62.4 146.7 -61.9 L146.6 -61.8 147.9 -63.35 143.15 -62.25 143.35 -64.05 Q143.2 -66.0 141.65 -67.7 140.0 -69.55 136.65 -71.1 L134.45 -72.0 Q130.95 -73.25 126.8 -73.7 L121.65 -74.0 Q113.0 -74.0 107.0 -71.1 L105.95 -70.5 Q101.15 -67.75 101.4 -64.05 101.65 -59.9 107.95 -57.0 114.35 -54.1 123.0 -54.1 131.7 -54.1 137.6 -57.0 140.8 -58.55 142.25 -60.45 L146.3 -61.4 146.15 -60.95 146.1 -60.95 Q144.8 -60.25 144.85 -59.25 144.95 -58.25 146.35 -57.55 147.7 -56.85 149.6 -56.85 151.5 -56.85 152.8 -57.55 154.05 -58.25 153.95 -59.25 153.9 -60.25 152.55 -60.95 L152.25 -61.05 152.45 -61.3 152.65 -61.75 152.75 -62.55 152.65 -63.15 161.7 -56.85 161.8 -55.8 162.1 -50.95 111.0 -42.05 108.2 -44.35 108.2 -48.1 100.6 -53.9 100.25 -55.0 98.75 -55.3 95.1 -58.1 94.7 -59.4 93.0 -59.7 89.2 -62.6 89.2 -63.95 87.8 -65.05 86.4 -64.7 82.35 -67.75 M10.85 -54.5 L8.85 -56.15 3.9 -55.3 8.55 -51.3 8.55 -50.65 10.3 -49.45 10.35 -49.45 10.7 -49.5 12.1 -48.3 17.05 -49.2 15.5 -50.55 16.95 -50.9 16.95 -54.2 15.2 -55.45 10.85 -54.5 M171.75 -44.25 L171.75 -38.35 23.8 -12.15 -8.95 -42.55 -8.95 -47.65 23.8 -18.05 23.8 -18.0 171.75 -44.25 M99.7 -68.55 L97.85 -69.8 93.6 -68.85 91.45 -70.5 86.6 -69.65 91.5 -65.65 91.55 -65.0 93.4 -63.8 93.45 -63.8 93.8 -63.85 95.25 -62.65 100.15 -63.55 98.5 -64.9 99.95 -65.25 99.7 -68.55" fill="#4c515b" fill-rule="evenodd" stroke="none"/>
    <path d="M58.9 -46.1 Q57.35 -44.2 54.05 -42.65 47.95 -39.75 39.25 -39.75 30.6 -39.75 24.4 -42.65 18.3 -45.55 18.3 -49.7 18.3 -53.8 24.4 -56.75 30.6 -59.65 39.25 -59.65 47.95 -59.65 54.05 -56.75 60.25 -53.8 60.25 -49.7 L59.95 -47.9 47.35 -44.95 44.4 -44.95 44.4 -45.7 40.1 -45.7 40.1 -42.9 44.4 -42.9 44.4 -43.45 47.5 -43.45 58.9 -46.1 M46.5 -50.2 Q46.5 -51.6 44.4 -52.65 42.3 -53.6 39.3 -53.6 36.3 -53.6 34.15 -52.65 32.05 -51.6 32.05 -50.2 32.05 -48.75 34.15 -47.75 36.3 -46.75 39.3 -46.75 42.3 -46.75 44.4 -47.75 46.5 -48.75 46.5 -50.2 M41.4 -50.2 Q41.4 -49.8 40.8 -49.55 L39.35 -49.25 37.85 -49.55 Q37.25 -49.8 37.25 -50.2 L37.85 -50.95 39.35 -51.2 40.8 -50.95 Q41.4 -50.6 41.4 -50.2 M142.25 -60.45 Q140.8 -58.55 137.6 -57.0 131.7 -54.1 123.0 -54.1 114.35 -54.1 107.95 -57.0 101.65 -59.9 101.4 -64.05 101.15 -67.75 105.95 -70.5 L107.0 -71.1 Q113.0 -74.0 121.65 -74.0 L126.8 -73.7 Q130.95 -73.25 134.45 -72.0 L136.65 -71.1 Q140.0 -69.55 141.65 -67.7 143.2 -66.0 143.35 -64.05 L143.15 -62.25 130.75 -59.3 127.8 -59.3 127.8 -59.35 127.75 -60.05 123.45 -60.05 123.65 -57.25 127.95 -57.25 127.9 -57.8 131.0 -57.8 142.25 -60.45 M124.45 -64.55 Q124.45 -64.15 123.9 -63.9 L122.45 -63.6 Q121.55 -63.6 120.95 -63.9 120.3 -64.15 120.3 -64.55 120.25 -64.95 120.85 -65.3 L122.3 -65.55 123.8 -65.3 124.45 -64.55 M129.55 -64.55 Q129.45 -65.95 127.25 -67.0 125.1 -67.95 122.1 -67.95 119.1 -67.95 117.0 -67.0 115.0 -65.95 115.1 -64.55 115.2 -63.1 117.35 -62.1 119.6 -61.1 122.6 -61.1 125.6 -61.1 127.6 -62.1 129.65 -63.1 129.55 -64.55" fill="#333333" fill-rule="evenodd" stroke="none"/>
    <path d="M67.25 -50.5 L50.95 -62.4 50.95 -65.4 80.35 -43.05 80.35 -36.7 78.1 -38.45 78.1 -42.5 69.5 -48.8 68.85 -49.8 68.35 -50.15 67.25 -50.5" fill="#555b66" fill-rule="evenodd" stroke="none"/>
    <path d="M67.6 -68.85 L69.0 -69.15 70.05 -68.35 72.0 -66.9 72.05 -66.1 72.1 -65.2 72.15 -64.2 70.85 -63.9 70.85 -66.45 67.6 -68.85 M77.0 -62.8 L79.45 -63.3 80.75 -62.85 73.75 -61.4 73.75 -58.65 73.1 -59.35 73.0 -59.45 72.85 -61.9 77.0 -62.8 M70.1 -61.2 L64.6 -60.05 64.6 -57.25 63.25 -58.3 63.25 -60.65 63.25 -61.05 64.8 -61.35 68.75 -62.25 70.1 -61.2 M10.85 -54.5 L15.2 -55.45 16.95 -54.2 10.3 -52.75 10.3 -49.45 8.55 -50.65 8.55 -51.3 8.55 -54.0 10.85 -54.5 M93.6 -68.85 L97.85 -69.8 99.7 -68.55 93.15 -67.1 93.4 -63.8 91.55 -65.0 91.5 -65.65 91.35 -68.35 93.6 -68.85 M82.3 -62.3 L82.3 -63.8 82.65 -63.85 86.4 -64.7 87.8 -65.05 89.2 -63.95 83.7 -62.8 83.7 -60.05 82.3 -61.1 82.3 -62.3" fill="#3d414a" fill-rule="evenodd" stroke="none"/>
    <path d="M59.95 -47.9 L64.75 -49.0 63.35 -47.45 63.45 -47.55 Q64.0 -48.05 64.65 -48.15 L64.65 -48.2 64.85 -49.05 64.95 -49.25 65.1 -49.5 65.4 -49.8 65.5 -49.9 Q66.15 -50.5 67.1 -50.5 L67.25 -50.5 68.35 -50.15 68.85 -49.8 69.5 -48.8 69.55 -48.2 69.4 -47.4 68.95 -46.7 69.25 -46.6 Q70.55 -45.9 70.55 -44.9 L70.5 -44.5 Q70.3 -43.75 69.25 -43.2 67.9 -42.5 66.0 -42.5 64.1 -42.5 62.8 -43.2 61.45 -43.9 61.45 -44.9 61.45 -45.9 62.8 -46.6 L62.85 -46.6 63.05 -47.05 58.9 -46.1 47.5 -43.45 44.4 -43.45 44.4 -42.9 40.1 -42.9 40.1 -45.7 44.4 -45.7 44.4 -44.95 47.35 -44.95 59.95 -47.9 M50.95 -65.4 L67.65 -67.95 67.75 -66.3 68.75 -65.55 62.75 -64.55 63.85 -63.8 69.65 -64.8 70.85 -63.9 72.15 -64.2 72.1 -65.2 76.85 -66.05 75.8 -66.75 72.05 -66.1 72.0 -66.9 70.05 -68.35 79.6 -69.85 82.35 -67.75 86.4 -64.7 82.65 -63.85 81.4 -64.8 79.45 -64.4 82.3 -62.3 82.3 -61.1 83.7 -60.05 83.75 -60.05 85.05 -60.3 86.5 -59.25 88.55 -59.7 87.05 -60.75 89.2 -61.25 89.2 -62.6 93.0 -59.7 92.15 -59.4 91.15 -55.85 91.05 -55.5 Q91.05 -55.0 91.7 -54.65 L92.65 -54.35 Q92.15 -54.3 91.75 -54.05 L90.75 -50.5 90.65 -50.15 Q90.65 -49.65 91.3 -49.3 92.05 -48.95 93.05 -48.95 L94.55 -49.2 94.75 -49.3 Q95.45 -49.65 95.45 -50.15 L95.35 -50.5 94.3 -54.05 93.5 -54.3 94.95 -54.55 95.15 -54.65 95.45 -54.8 Q95.85 -55.1 95.85 -55.5 L95.75 -55.85 95.1 -58.1 98.75 -55.3 97.7 -55.0 96.7 -51.45 96.6 -51.1 Q96.6 -50.6 97.25 -50.25 98.0 -49.9 99.0 -49.9 L100.5 -50.15 100.7 -50.25 100.9 -50.35 Q101.4 -50.65 101.4 -51.1 L101.3 -51.45 100.6 -53.9 108.2 -48.1 108.2 -44.35 108.2 -41.4 80.35 -36.7 80.35 -43.05 50.95 -65.4 M150.25 -64.85 L151.4 -64.5 151.9 -64.15 152.65 -63.15 152.75 -62.55 152.65 -61.75 152.45 -61.3 152.25 -61.05 152.55 -60.95 Q153.9 -60.25 153.95 -59.25 154.05 -58.25 152.8 -57.55 151.5 -56.85 149.6 -56.85 147.7 -56.85 146.35 -57.55 144.95 -58.25 144.85 -59.25 144.8 -60.25 146.1 -60.95 L146.15 -60.95 146.3 -61.4 142.25 -60.45 131.0 -57.8 127.9 -57.8 127.95 -57.25 123.65 -57.25 123.45 -60.05 127.75 -60.05 127.8 -59.35 127.8 -59.3 130.75 -59.3 143.15 -62.25 147.9 -63.35 146.6 -61.8 146.7 -61.9 Q147.2 -62.4 147.85 -62.5 L147.85 -62.55 Q147.8 -63.1 148.05 -63.55 L148.2 -63.85 148.45 -64.15 148.55 -64.25 Q149.15 -64.85 150.1 -64.85 L150.25 -64.85 M80.75 -62.85 L79.45 -63.3 77.0 -62.8 75.85 -63.7 68.9 -62.4 73.1 -59.35 73.75 -58.65 73.8 -58.65 74.05 -58.7 76.35 -57.05 82.85 -58.35 80.55 -60.1 80.75 -60.15 80.75 -62.85 M67.0 -57.75 L69.75 -55.65 71.95 -56.1 69.05 -58.2 70.1 -58.45 70.1 -61.2 68.75 -62.25 64.8 -61.35 64.5 -61.6 62.45 -61.25 63.25 -60.65 63.25 -58.3 64.6 -57.25 64.65 -57.25 67.0 -57.75 M77.0 -51.3 L77.2 -51.4 Q77.9 -51.75 77.9 -52.25 L77.8 -52.6 76.75 -56.15 Q75.15 -56.8 74.2 -56.15 L73.2 -52.6 73.1 -52.25 Q73.1 -51.75 73.75 -51.4 74.5 -51.05 75.5 -51.05 L77.0 -51.3 M83.05 -52.5 L83.25 -52.6 Q83.95 -52.95 83.95 -53.45 L83.85 -53.8 82.8 -57.35 Q81.2 -58.0 80.25 -57.35 L79.25 -53.8 79.15 -53.45 Q79.15 -52.95 79.8 -52.6 80.55 -52.25 81.55 -52.25 L83.05 -52.5 M82.55 -46.9 L82.75 -47.0 Q83.45 -47.35 83.45 -47.85 L83.35 -48.2 82.3 -51.75 Q80.7 -52.4 79.75 -51.75 L78.75 -48.2 78.65 -47.85 Q78.65 -47.35 79.3 -47.0 80.05 -46.65 81.05 -46.65 L82.55 -46.9 M68.65 -46.45 L68.35 -46.25 67.6 -46.0 67.6 -45.95 67.45 -45.05 66.5 -44.0 66.9 -44.3 67.45 -45.05 68.65 -46.45 M151.95 -60.8 Q151.6 -60.45 150.95 -60.35 L150.95 -60.3 150.85 -59.4 150.0 -58.35 150.35 -58.65 150.85 -59.4 151.95 -60.8 M89.0 -53.6 L89.2 -53.7 Q89.9 -54.05 89.9 -54.55 L89.8 -54.9 88.75 -58.45 Q87.15 -59.1 86.2 -58.45 L85.2 -54.9 85.1 -54.55 Q85.1 -54.05 85.75 -53.7 86.5 -53.35 87.5 -53.35 L89.0 -53.6 M88.6 -48.1 L88.8 -48.2 Q89.5 -48.55 89.5 -49.05 L89.4 -49.4 88.35 -52.95 Q86.75 -53.6 85.8 -52.95 L84.8 -49.4 84.7 -49.05 Q84.7 -48.55 85.35 -48.2 L87.1 -47.85 88.6 -48.1" fill="#8a93a6" fill-rule="evenodd" stroke="none"/>
    <path d="M72.05 -66.1 L75.8 -66.75 76.85 -66.05 72.1 -65.2 72.05 -66.1 M69.65 -64.8 L63.85 -63.8 62.75 -64.55 68.75 -65.55 69.65 -64.8 M67.0 -57.75 L69.05 -58.2 71.95 -56.1 69.75 -55.65 67.0 -57.75 M63.25 -60.65 L62.45 -61.25 64.5 -61.6 64.8 -61.35 63.25 -61.05 63.25 -60.65 M82.65 -63.85 L82.3 -63.8 82.3 -62.3 79.45 -64.4 81.4 -64.8 82.65 -63.85 M87.05 -60.75 L88.55 -59.7 86.5 -59.25 85.05 -60.3 87.05 -60.75" fill="#788191" fill-rule="evenodd" stroke="none"/>
    <path d="M80.55 -60.1 L82.85 -58.35 76.35 -57.05 74.05 -58.7 80.55 -60.1 M73.1 -59.35 L68.9 -62.4 75.85 -63.7 77.0 -62.8 72.85 -61.9 73.0 -59.45 73.1 -59.35" fill="#24272c" fill-rule="evenodd" stroke="none"/>
    <path d="M67.65 -67.95 L67.6 -68.85 70.85 -66.45 70.85 -63.9 69.65 -64.8 68.75 -65.55 67.75 -66.3 67.65 -67.95 M80.75 -62.85 L80.75 -60.15 80.55 -60.1 74.05 -58.7 73.8 -58.65 73.75 -58.65 73.75 -61.4 80.75 -62.85 M69.05 -58.2 L67.0 -57.75 64.65 -57.25 64.6 -57.25 64.6 -60.05 70.1 -61.2 70.1 -58.45 69.05 -58.2 M16.95 -54.2 L16.95 -50.9 15.5 -50.55 10.7 -49.5 10.35 -49.45 10.3 -49.45 10.3 -52.75 16.95 -54.2 M99.7 -68.55 L99.95 -65.25 98.5 -64.9 93.8 -63.85 93.45 -63.8 93.4 -63.8 93.15 -67.1 99.7 -68.55 M83.7 -60.05 L83.7 -62.8 89.2 -63.95 89.2 -62.6 89.2 -61.25 87.05 -60.75 85.05 -60.3 83.75 -60.05 83.7 -60.05" fill="#777e91" fill-rule="evenodd" stroke="none"/>
    <path d="M75.5 -51.05 Q74.5 -51.05 73.75 -51.4 73.1 -51.75 73.1 -52.25 L73.2 -52.6 74.2 -56.15 Q75.15 -56.8 76.75 -56.15 L77.8 -52.6 77.9 -52.25 Q77.9 -51.75 77.2 -51.4 L77.0 -51.3 76.1 -55.7 75.6 -55.7 75.5 -51.05 M81.55 -52.25 Q80.55 -52.25 79.8 -52.6 79.15 -52.95 79.15 -53.45 L79.25 -53.8 80.25 -57.35 Q81.2 -58.0 82.8 -57.35 L83.85 -53.8 83.95 -53.45 Q83.95 -52.95 83.25 -52.6 L83.05 -52.5 82.15 -56.9 81.65 -56.9 81.55 -52.25 M81.05 -46.65 Q80.05 -46.65 79.3 -47.0 78.65 -47.35 78.65 -47.85 L78.75 -48.2 79.75 -51.75 Q80.7 -52.4 82.3 -51.75 L83.35 -48.2 83.45 -47.85 Q83.45 -47.35 82.75 -47.0 L82.55 -46.9 81.65 -51.3 81.15 -51.3 81.05 -46.65 M93.0 -59.7 L94.7 -59.4 95.1 -58.1 95.75 -55.85 95.85 -55.5 Q95.85 -55.1 95.45 -54.8 L95.15 -54.65 94.95 -54.55 94.1 -58.85 94.05 -58.95 93.55 -58.95 93.45 -54.3 93.5 -54.3 94.3 -54.05 95.35 -50.5 95.45 -50.15 Q95.45 -49.65 94.75 -49.3 L94.55 -49.2 93.65 -53.6 93.15 -53.6 93.05 -48.95 Q92.05 -48.95 91.3 -49.3 90.65 -49.65 90.65 -50.15 L90.75 -50.5 91.75 -54.05 Q92.15 -54.3 92.65 -54.35 L91.7 -54.65 Q91.05 -55.0 91.05 -55.5 L91.15 -55.85 92.15 -59.4 93.0 -59.7 M98.75 -55.3 L100.25 -55.0 100.6 -53.9 101.3 -51.45 101.4 -51.1 Q101.4 -50.65 100.9 -50.35 L100.7 -50.25 100.5 -50.15 99.6 -54.55 99.1 -54.55 99.0 -49.9 Q98.0 -49.9 97.25 -50.25 96.6 -50.6 96.6 -51.1 L96.7 -51.45 97.7 -55.0 98.75 -55.3 M87.5 -53.35 Q86.5 -53.35 85.75 -53.7 85.1 -54.05 85.1 -54.55 L85.2 -54.9 86.2 -58.45 Q87.15 -59.1 88.75 -58.45 L89.8 -54.9 89.9 -54.55 Q89.9 -54.05 89.2 -53.7 L89.0 -53.6 88.1 -58.0 87.6 -58.0 87.5 -53.35 M88.6 -48.1 L87.7 -52.5 87.2 -52.5 87.1 -47.85 85.35 -48.2 Q84.7 -48.55 84.7 -49.05 L84.8 -49.4 85.8 -52.95 Q86.75 -53.6 88.35 -52.95 L89.4 -49.4 89.5 -49.05 Q89.5 -48.55 88.8 -48.2 L88.6 -48.1" fill="#858fa1" fill-rule="evenodd" stroke="none"/>
    <path d="M77.0 -51.3 L75.5 -51.05 75.6 -55.7 76.1 -55.7 77.0 -51.3 M83.05 -52.5 L81.55 -52.25 81.65 -56.9 82.15 -56.9 83.05 -52.5 M82.55 -46.9 L81.05 -46.65 81.15 -51.3 81.65 -51.3 82.55 -46.9 M89.0 -53.6 L87.5 -53.35 87.6 -58.0 88.1 -58.0 89.0 -53.6 M87.1 -47.85 L87.2 -52.5 87.7 -52.5 88.6 -48.1 87.1 -47.85 M94.95 -54.55 L93.5 -54.3 93.45 -54.3 93.55 -58.95 94.05 -58.95 94.1 -58.85 94.95 -54.55 M94.55 -49.2 L93.05 -48.95 93.15 -53.6 93.65 -53.6 94.55 -49.2 M99.0 -49.9 L99.1 -54.55 99.6 -54.55 100.5 -50.15 99.0 -49.9" fill="#bfcde7" fill-rule="evenodd" stroke="none"/>
    <path d="M8.55 -51.3 L3.9 -55.3 8.85 -56.15 10.85 -54.5 8.55 -54.0 8.55 -51.3 M15.5 -50.55 L17.05 -49.2 12.1 -48.3 10.7 -49.5 15.5 -50.55 M98.5 -64.9 L100.15 -63.55 95.25 -62.65 93.8 -63.85 98.5 -64.9 M91.5 -65.65 L86.6 -69.65 91.45 -70.5 93.6 -68.85 91.35 -68.35 91.5 -65.65" fill="#2e3138" fill-rule="evenodd" stroke="none"/>
    <path d="M68.65 -46.45 L67.45 -45.05 66.9 -44.3 66.5 -44.0 67.45 -45.05 67.6 -45.95 67.6 -46.0 68.35 -46.25 68.65 -46.45 M151.95 -60.8 L150.85 -59.4 150.35 -58.65 150.0 -58.35 150.85 -59.4 150.95 -60.3 150.95 -60.35 Q151.6 -60.45 151.95 -60.8" fill="#8d8d8d" fill-rule="evenodd" stroke="none"/>
    <path d="M-0.5 -54.15 L-0.5 -51.05 26.4 -27.7 78.1 -36.6 78.1 -38.45 80.35 -36.7 108.2 -41.4 108.2 -44.35 111.0 -42.05 162.1 -50.95 161.8 -55.8 171.75 -49.9 23.8 -24.1 -8.95 -52.85 -0.5 -54.15" fill="#2a2d33" fill-rule="evenodd" stroke="none"/>
    <path d="M168.2 -28.0 L168.2 32.0 24.85 57.4 -6.8 27.95 -6.8 -32.05 24.85 -2.6 168.2 -28.0" fill="#2f3238" fill-rule="evenodd" stroke="none"/>
  </g>
</svg>
