<?xml version="1.0" encoding="UTF-8" standalone="no"?>
<svg xmlns:xlink="http://www.w3.org/1999/xlink" height="148.7px" width="145.2px" xmlns="http://www.w3.org/2000/svg">
  <g transform="matrix(1.0, 0.0, 0.0, 1.0, 72.6, 74.35)">
    <path d="M28.0 42.4 L-71.35 -67.75 Q-72.5 -70.05 -70.2 -72.35 -67.6 -74.65 -65.0 -72.35 L37.05 41.4 71.75 37.6 71.75 43.6 69.0 43.9 Q72.65 47.65 71.4 53.55 70.65 58.7 66.9 63.1 63.85 66.4 59.3 66.2 L59.05 66.3 Q56.1 67.55 52.1 67.15 L47.15 67.3 Q44.65 68.35 41.95 67.85 39.15 69.15 36.35 68.85 33.9 69.7 31.1 69.65 L31.05 69.65 Q26.3 71.6 20.15 71.4 L20.0 71.45 Q15.05 72.85 9.05 72.35 L2.75 72.5 -4.55 73.5 -2.15 71.7 -6.95 71.9 -11.3 73.5 -5.6 68.6 Q-10.35 71.85 -16.45 71.45 L-10.2 67.85 Q-14.4 69.2 -19.15 66.95 L-13.65 65.8 Q-17.5 66.3 -21.4 64.6 -10.25 64.35 -9.3 56.25 L-11.6 57.15 -11.6 50.95 4.35 44.95 28.0 42.4 37.05 41.4 M-13.65 65.8 L-13.35 65.75 Q-11.55 65.5 -9.75 64.75 M-10.2 67.85 Q-6.25 66.55 -2.85 61.95 M31.1 69.65 Q36.15 67.6 39.65 63.2 M2.75 72.5 Q13.15 69.95 18.45 64.75 M-2.15 71.7 Q11.4 61.05 7.95 50.45 L4.55 50.8 -9.3 56.25 M9.05 72.35 Q18.95 71.3 23.8 64.75 M20.15 71.4 Q26.85 69.45 31.7 63.9 M41.95 67.85 Q45.85 66.0 49.55 60.95 M52.1 67.15 Q58.3 65.8 60.35 58.05 M47.15 67.3 Q51.5 65.45 55.25 59.05 M59.3 66.2 Q63.4 64.35 65.4 59.25 M36.35 68.85 Q41.95 66.95 45.75 60.1 M4.55 50.8 L4.35 44.95 M69.0 43.9 L7.95 50.45 M-5.6 68.6 Q-2.5 66.5 0.05 62.85 M-6.95 71.9 Q2.05 67.7 5.4 58.4" fill="none" stroke="#000000" stroke-linecap="round" stroke-linejoin="round" stroke-width="1.7000000000000002"/>
  </g>
</svg>
