<?xml version="1.0" encoding="UTF-8" standalone="no"?>
<svg xmlns:xlink="http://www.w3.org/1999/xlink" height="42.15px" width="254.0px" xmlns="http://www.w3.org/2000/svg">
  <g transform="matrix(1.0, 0.0, 0.0, 1.0, 0.0, 21.05)">
    <path d="M77.6 21.1 L59.0 21.1 Q56.1 21.1 53.8 19.7 51.45 18.3 50.05 15.95 48.65 13.65 48.65 10.75 L48.65 -20.95 56.25 -20.95 56.25 10.65 Q56.25 11.85 57.05 12.7 57.9 13.5 59.1 13.5 L75.2 13.5 77.6 21.1 M146.0 -4.85 L146.0 21.1 138.35 21.1 138.35 -3.35 Q138.35 -4.0 137.95 -4.4 L136.85 -4.85 124.8 -4.85 124.8 21.1 117.2 21.1 117.2 -12.5 124.8 -12.5 124.8 -8.7 128.65 -12.5 138.35 -12.5 Q140.5 -12.45 142.25 -11.45 144.0 -10.45 144.95 -8.75 146.0 -7.0 146.0 -4.85 M102.95 -12.5 L110.6 -12.5 110.6 13.5 Q110.55 15.65 109.55 17.35 108.55 19.1 106.8 20.05 105.1 21.1 102.95 21.1 L89.35 21.1 Q87.2 21.1 85.55 20.05 83.8 19.1 82.8 17.35 81.8 15.65 81.75 13.5 L81.75 -12.5 89.35 -12.5 89.35 11.95 Q89.4 12.6 89.8 13.05 90.25 13.5 90.9 13.5 L101.45 13.5 102.5 13.05 Q102.95 12.6 102.95 11.95 L102.95 -12.5 M152.65 -20.9 L160.2 -20.9 160.2 -14.75 152.65 -14.75 152.65 -20.9 M152.65 21.1 L152.65 -12.5 160.2 -12.5 160.2 21.1 152.65 21.1 M246.35 0.5 L246.35 -3.35 Q246.35 -4.0 245.95 -4.4 245.5 -4.85 244.9 -4.85 L232.65 -4.85 Q231.95 -4.85 231.5 -4.4 231.1 -4.0 231.05 -3.35 L231.05 0.5 246.35 0.5 M254.0 8.15 L231.05 8.15 231.05 11.95 Q231.1 12.6 231.5 13.05 231.95 13.5 232.65 13.5 L252.5 13.5 250.2 21.1 231.05 21.1 Q228.95 21.1 227.25 20.05 225.5 19.1 224.5 17.35 223.5 15.65 223.45 13.5 L223.45 -4.85 Q223.5 -7.0 224.5 -8.75 225.5 -10.45 227.25 -11.45 228.95 -12.45 231.05 -12.5 L246.35 -12.5 Q248.5 -12.45 250.25 -11.45 251.95 -10.45 253.0 -8.75 254.0 -7.0 254.0 -4.85 L254.0 8.15 M216.85 -4.85 L216.85 21.1 209.25 21.1 209.25 -3.35 Q209.25 -4.0 208.8 -4.4 208.35 -4.85 207.7 -4.85 L195.7 -4.85 195.7 21.1 188.05 21.1 188.05 -3.35 187.6 -4.4 Q187.2 -4.85 186.55 -4.85 L174.45 -4.85 174.45 21.1 166.85 21.1 166.85 -12.5 174.45 -12.5 174.45 -8.7 178.35 -12.5 188.05 -12.5 Q190.4 -12.45 192.25 -11.2 194.05 -10.0 195.0 -8.0 L199.5 -12.5 209.25 -12.5 Q211.4 -12.45 213.1 -11.45 214.8 -10.45 215.8 -8.75 216.85 -7.0 216.85 -4.85" fill="url(#gradient0)" fill-rule="evenodd" stroke="none"/>
    <path d="M35.95 14.95 Q29.8 21.05 21.05 21.05 12.35 21.05 6.15 14.95 0.0 8.8 0.0 0.0 0.0 -8.75 6.15 -14.9 12.35 -21.05 21.05 -21.05 29.8 -21.05 35.95 -14.9 L37.1 -13.65 Q33.4 -16.05 28.65 -16.05 21.95 -16.05 17.25 -11.35 12.6 -6.65 12.6 0.0 12.6 6.7 17.25 11.35 21.95 16.1 28.65 16.1 33.4 16.1 37.05 13.75 L35.95 14.95 M15.25 0.05 Q15.25 -5.7 19.2 -9.6 22.15 -12.5 26.05 -13.3 L29.0 -13.55 32.1 -13.25 Q35.75 -12.4 38.65 -9.4 40.2 -7.95 41.15 -6.15 41.15 -2.1 37.15 1.4 L36.55 1.8 Q31.25 5.95 23.85 6.15 16.6 6.3 15.5 2.7 L15.4 1.7 15.25 0.05 M20.9 -8.15 L20.65 -8.1 Q17.4 -4.8 17.4 0.05 L17.45 1.65 17.45 1.7 17.45 1.9 Q18.65 4.1 23.75 3.9 L23.85 3.9 Q29.25 3.8 33.4 1.4 34.65 0.7 35.7 -0.2 38.65 -2.7 39.15 -5.65 L37.3 -7.95 Q33.85 -11.4 29.0 -11.45 24.25 -11.5 20.9 -8.15 M38.35 9.75 Q34.45 13.75 28.75 13.75 23.1 13.75 19.0 9.75 17.4 7.9 16.15 5.9 L16.4 5.9 Q18.4 7.35 22.4 7.85 L24.0 7.85 Q32.15 7.6 37.75 3.15 L38.6 2.3 Q40.75 0.45 41.5 -1.45 L42.05 -2.8 Q42.6 -0.95 42.1 2.85 41.35 6.85 38.35 9.75" fill="url(#gradient1)" fill-rule="evenodd" stroke="none"/>
  </g>
  <defs>
    <linearGradient gradientTransform="matrix(0.0, -0.0255, 0.1253, 0.0, 151.3, 0.0)" gradientUnits="userSpaceOnUse" id="gradient0" spreadMethod="pad" x1="-819.2" x2="819.2">
      <stop offset="0.0" stop-color="#eef3ff"/>
      <stop offset="1.0" stop-color="#d4ddff"/>
    </linearGradient>
    <linearGradient gradientTransform="matrix(0.0, -0.0276, 0.0258, 0.0, 21.15, -1.6)" gradientUnits="userSpaceOnUse" id="gradient1" spreadMethod="pad" x1="-819.2" x2="819.2">
      <stop offset="0.0" stop-color="#00adfa"/>
      <stop offset="1.0" stop-color="#2680fa"/>
    </linearGradient>
  </defs>
</svg>
