<?xml version="1.0" encoding="UTF-8" standalone="no"?>
<svg xmlns:xlink="http://www.w3.org/1999/xlink" height="50.95px" width="189.55px" xmlns="http://www.w3.org/2000/svg">
  <g transform="matrix(1.0, 0.0, 0.0, 1.0, 127.0, 22.15)">
    <path d="M-116.5 -19.15 L52.0 -19.15 Q59.55 -19.15 59.55 -12.1 L59.55 18.75 Q59.55 25.8 52.0 25.8 L-116.5 25.8 Q-124.0 25.8 -124.0 18.75 L-124.0 -12.1 Q-124.0 -19.15 -116.5 -19.15 Z" fill="none" stroke="#cdddff" stroke-linecap="round" stroke-linejoin="round" stroke-opacity="0.36862746" stroke-width="6.0"/>
    <path d="M-73.2 25.8 L-116.5 25.8 Q-124.0 25.8 -124.0 18.75 L-124.0 -12.1 Q-124.0 -19.15 -116.5 -19.15 L-73.2 -19.15 -73.2 25.8" fill="url(#gradient0)" fill-rule="evenodd" stroke="none"/>
    <path d="M1.5 -19.15 L52.0 -19.15 Q59.55 -19.15 59.55 -12.1 L59.55 18.75 Q59.55 25.8 52.0 25.8 L1.5 25.8 1.5 -19.15" fill="url(#gradient1)" fill-rule="evenodd" stroke="none"/>
    <path d="M1.5 25.8 L-73.2 25.8 -73.2 -19.15 1.5 -19.15 1.5 25.8" fill="url(#gradient2)" fill-rule="evenodd" stroke="none"/>
    <path d="M1.5 -19.15 L52.0 -19.15 Q59.55 -19.15 59.55 -12.1 L59.55 18.75 Q59.55 25.8 52.0 25.8 L1.5 25.8 -73.2 25.8 -116.5 25.8 Q-124.0 25.8 -124.0 18.75 L-124.0 -12.1 Q-124.0 -19.15 -116.5 -19.15 L-73.2 -19.15 1.5 -19.15 Z" fill="none" stroke="#17192c" stroke-linecap="round" stroke-linejoin="round" stroke-opacity="0.7764706" stroke-width="1.5"/>
  </g>
  <defs>
    <linearGradient gradientTransform="matrix(0.0, -0.0232, 0.1003, 0.0, -41.8, 4.1)" gradientUnits="userSpaceOnUse" id="gradient0" spreadMethod="pad" x1="-819.2" x2="819.2">
      <stop offset="0.0" stop-color="#2c3256" stop-opacity="0.8392157"/>
      <stop offset="1.0" stop-color="#221e3a" stop-opacity="0.84705883"/>
    </linearGradient>
    <linearGradient gradientTransform="matrix(0.0, -0.0232, 0.1003, 0.0, -22.65, 4.1)" gradientUnits="userSpaceOnUse" id="gradient1" spreadMethod="pad" x1="-819.2" x2="819.2">
      <stop offset="0.0" stop-color="#2c3256" stop-opacity="0.8392157"/>
      <stop offset="1.0" stop-color="#221e3a" stop-opacity="0.84705883"/>
    </linearGradient>
    <linearGradient gradientTransform="matrix(0.0, -0.0232, 0.4222, 0.0, -60.55, 4.1)" gradientUnits="userSpaceOnUse" id="gradient2" spreadMethod="pad" x1="-819.2" x2="819.2">
      <stop offset="0.0" stop-color="#2c3256" stop-opacity="0.8392157"/>
      <stop offset="1.0" stop-color="#221e3a" stop-opacity="0.84705883"/>
    </linearGradient>
  </defs>
</svg>
