<?xml version="1.0" encoding="UTF-8" standalone="no"?>
<svg xmlns:xlink="http://www.w3.org/1999/xlink" height="213.3px" width="221.95px" xmlns="http://www.w3.org/2000/svg">
  <g transform="matrix(1.0, 0.0, 0.0, 1.0, 110.8, 106.65)">
    <path d="M-36.05 -52.75 L36.15 -52.75 36.15 -1.05 -36.05 -1.05 -36.05 -52.75 M37.95 -52.75 L110.15 -52.75 110.15 -1.05 37.95 -1.05 37.95 -52.75 M-36.05 -106.15 L36.15 -106.15 36.15 -54.45 -36.05 -54.45 -36.05 -106.15 M37.95 -106.15 L110.15 -106.15 110.15 -54.45 37.95 -54.45 37.95 -106.15 M37.95 54.45 L110.15 54.45 110.15 91.95 Q107.2 103.5 97.15 106.15 L37.95 106.15 37.95 54.45 M-36.05 0.5 L36.15 0.5 36.15 52.2 -36.05 52.2 -36.05 0.5 M-36.05 54.45 L36.15 54.45 36.15 106.15 -36.05 106.15 -36.05 54.45 M-110.3 -52.75 L-38.1 -52.75 -38.1 -1.05 -110.3 -1.05 -110.3 -52.75 M-110.3 -106.15 L-38.1 -106.15 -38.1 -54.45 -110.3 -54.45 -110.3 -106.15 M-110.3 0.5 L-38.1 0.5 -38.1 52.2 -110.3 52.2 -110.3 0.5 M-38.05 54.45 L-38.05 106.15 -97.25 106.15 Q-107.3 103.5 -110.25 91.95 L-110.25 54.45 -38.05 54.45" fill="#1f2746" fill-opacity="0.84705883" fill-rule="evenodd" stroke="none"/>
    <path d="M37.95 0.5 L110.15 0.5 110.15 52.2 37.95 52.2 37.95 0.5" fill="#313e70" fill-opacity="0.84705883" fill-rule="evenodd" stroke="none"/>
    <path d="M-36.05 -52.75 L36.15 -52.75 36.15 -1.05 -36.05 -1.05 -36.05 -52.75 M37.95 -52.75 L110.15 -52.75 110.15 -1.05 37.95 -1.05 37.95 -52.75 M-36.05 -106.15 L36.15 -106.15 36.15 -54.45 -36.05 -54.45 -36.05 -106.15 M37.95 -106.15 L110.15 -106.15 110.15 -54.45 37.95 -54.45 37.95 -106.15 M37.95 54.45 L110.15 54.45 110.15 91.95 Q107.2 103.5 97.15 106.15 L37.95 106.15 37.95 54.45 M-36.05 0.5 L36.15 0.5 36.15 52.2 -36.05 52.2 -36.05 0.5 M-36.05 54.45 L36.15 54.45 36.15 106.15 -36.05 106.15 -36.05 54.45 M-110.3 -52.75 L-38.1 -52.75 -38.1 -1.05 -110.3 -1.05 -110.3 -52.75 M-110.3 -106.15 L-38.1 -106.15 -38.1 -54.45 -110.3 -54.45 -110.3 -106.15 M-110.3 0.5 L-38.1 0.5 -38.1 52.2 -110.3 52.2 -110.3 0.5 M-38.05 54.45 L-110.25 54.45 -110.25 91.95 Q-107.3 103.5 -97.25 106.15 L-38.05 106.15 -38.05 54.45" fill="none" stroke="#e0f2ff" stroke-linecap="round" stroke-linejoin="round" stroke-opacity="0.44705883" stroke-width="1.0"/>
    <path d="M37.95 0.5 L110.15 0.5 110.15 52.2 37.95 52.2 37.95 0.5" fill="none" stroke="#e0f2ff" stroke-linecap="round" stroke-linejoin="round" stroke-opacity="0.44705883" stroke-width="2.0"/>
  </g>
</svg>
