<?xml version="1.0" encoding="UTF-8" standalone="no"?>
<svg xmlns:xlink="http://www.w3.org/1999/xlink" height="590.05px" width="1123.65px" xmlns="http://www.w3.org/2000/svg">
  <g transform="matrix(1.0, 0.0, 0.0, 1.0, 1269.9, 37.35)">
    <path d="M-1269.9 -37.35 L-146.25 -37.35 -146.25 552.7 -1269.9 552.7 -1269.9 -37.35" fill="#262746" fill-opacity="0.36862746" fill-rule="evenodd" stroke="none"/>
    <path d="M-485.35 145.35 L-485.35 436.2 Q-485.35 446.9 -496.05 446.9 L-922.85 446.9 Q-933.55 446.9 -933.55 436.2 L-933.55 145.35 -485.35 145.35" fill="#131c3f" fill-rule="evenodd" stroke="none"/>
    <path d="M-933.55 145.35 L-933.55 85.1 Q-933.55 74.4 -922.85 74.4 L-496.05 74.4 Q-485.35 74.4 -485.35 85.1 L-485.35 145.35 -933.55 145.35" fill="#060a17" fill-rule="evenodd" stroke="none"/>
    <path d="M-933.55 145.35 L-933.55 85.1 Q-933.55 74.4 -922.85 74.4 L-496.05 74.4 Q-485.35 74.4 -485.35 85.1 L-485.35 145.35 -485.35 436.2 Q-485.35 446.9 -496.05 446.9 L-922.85 446.9 Q-933.55 446.9 -933.55 436.2 L-933.55 145.35 Z" fill="none" stroke="#000000" stroke-linecap="round" stroke-linejoin="round" stroke-width="4.0"/>
  </g>
</svg>
