<?xml version="1.0" encoding="UTF-8" standalone="no"?>
<svg xmlns:xlink="http://www.w3.org/1999/xlink" height="528.6px" width="1040.75px" xmlns="http://www.w3.org/2000/svg">
  <g transform="matrix(1.0, 0.0, 0.0, 1.0, 517.15, 269.75)">
    <path d="M187.4 -237.3 Q196.25 -254.85 203.55 -262.25 195.8 -248.25 192.45 -239.15 189.1 -230.1 186.9 -233.05 186.1 -234.4 187.4 -237.3 M241.05 -225.7 Q233.3 -211.7 229.95 -202.6 226.6 -193.55 224.4 -196.5 223.6 -197.85 224.9 -200.75 233.75 -218.3 241.05 -225.7 M226.05 -239.75 Q218.3 -225.75 214.95 -216.65 211.6 -207.6 209.4 -210.55 208.6 -211.9 209.9 -214.8 218.75 -232.35 226.05 -239.75 M235.4 -242.55 Q244.25 -256.1 251.55 -261.8 243.75 -251.0 240.4 -244.0 237.1 -237.0 234.9 -239.3 234.05 -240.3 235.4 -242.55 M320.4 -220.05 Q329.25 -233.6 336.55 -239.3 328.75 -228.5 325.4 -221.5 322.1 -214.5 319.9 -216.8 319.05 -217.8 320.4 -220.05 M307.9 -232.55 Q316.75 -246.1 324.05 -251.8 316.25 -241.0 312.9 -234.0 309.6 -227.0 307.4 -229.3 306.55 -230.3 307.9 -232.55 M28.9 -205.8 Q37.75 -223.35 45.05 -230.75 37.3 -216.75 33.95 -207.65 30.6 -198.6 28.4 -201.55 27.6 -202.9 28.9 -205.8 M24.85 -229.05 Q33.7 -242.6 41.0 -248.3 33.2 -237.5 29.85 -230.5 26.55 -223.5 24.35 -225.8 23.5 -226.8 24.85 -229.05 M73.0 -220.8 Q65.2 -210.0 61.85 -203.0 58.55 -196.0 56.35 -198.3 55.5 -199.3 56.85 -201.55 65.7 -215.1 73.0 -220.8 M62.4 -235.8 Q71.25 -253.35 78.55 -260.75 70.8 -246.75 67.45 -237.65 64.1 -228.6 61.9 -231.55 61.1 -232.9 62.4 -235.8 M110.35 -241.8 Q119.2 -259.35 126.5 -266.75 118.75 -252.75 115.4 -243.65 112.05 -234.6 109.85 -237.55 109.05 -238.9 110.35 -241.8 M104.4 -199.15 Q101.05 -190.1 98.85 -193.05 98.05 -194.4 99.35 -197.3 108.2 -214.85 115.5 -222.25 107.75 -208.25 104.4 -199.15 M150.35 -221.3 Q159.2 -238.85 166.5 -246.25 158.75 -232.25 155.4 -223.15 152.05 -214.1 149.85 -217.05 149.05 -218.4 150.35 -221.3 M124.35 -175.8 Q133.2 -193.35 140.5 -200.75 132.75 -186.75 129.4 -177.65 126.05 -168.6 123.85 -171.55 123.05 -172.9 124.35 -175.8 M139.75 -155.5 Q152.75 -181.35 163.5 -192.25 152.05 -171.65 147.15 -158.25 142.25 -144.9 139.0 -149.25 137.8 -151.2 139.75 -155.5 M103.0 -141.25 Q95.25 -127.25 91.9 -118.15 88.55 -109.1 86.35 -112.05 85.55 -113.4 86.85 -116.3 95.7 -133.85 103.0 -141.25 M145.5 -130.2 Q137.75 -116.2 134.4 -107.1 131.05 -98.05 128.85 -101.0 128.05 -102.35 129.35 -105.25 138.2 -122.8 145.5 -130.2 M108.25 -99.5 Q103.35 -86.15 100.1 -90.5 98.9 -92.45 100.85 -96.75 113.85 -122.6 124.6 -133.5 113.15 -112.9 108.25 -99.5 M25.85 -174.0 Q34.7 -187.55 42.0 -193.25 34.2 -182.45 30.85 -175.45 27.55 -168.45 25.35 -170.75 24.5 -171.75 25.85 -174.0 M17.0 -169.25 Q9.2 -158.45 5.85 -151.45 2.55 -144.45 0.35 -146.75 -0.5 -147.75 0.85 -150.0 9.7 -163.55 17.0 -169.25 M3.85 -191.0 Q12.7 -204.55 20.0 -210.25 12.2 -199.45 8.85 -192.45 5.55 -185.45 3.35 -187.75 2.5 -188.75 3.85 -191.0 M62.35 -146.0 Q71.2 -159.55 78.5 -165.25 70.7 -154.45 67.35 -147.45 64.05 -140.45 61.85 -142.75 61.0 -143.75 62.35 -146.0 M67.5 -91.7 Q59.75 -77.7 56.4 -68.6 53.05 -59.55 50.85 -62.5 50.05 -63.85 51.35 -66.75 60.2 -84.3 67.5 -91.7 M12.3 -92.25 Q11.45 -93.25 12.8 -95.5 21.65 -109.05 28.95 -114.75 21.15 -103.95 17.8 -96.95 14.5 -89.95 12.3 -92.25 M32.35 -20.25 Q41.2 -37.8 48.5 -45.2 40.75 -31.2 37.4 -22.1 34.05 -13.05 31.85 -16.0 31.05 -17.35 32.35 -20.25 M79.75 -30.0 Q92.75 -55.85 103.5 -66.75 92.05 -46.15 87.15 -32.75 82.25 -19.4 79.0 -23.75 77.8 -25.7 79.75 -30.0 M156.35 -77.25 Q165.2 -94.8 172.5 -102.2 164.75 -88.2 161.4 -79.1 158.05 -70.05 155.85 -73.0 155.05 -74.35 156.35 -77.25 M105.85 -45.25 Q114.7 -62.8 122.0 -70.2 114.25 -56.2 110.9 -47.1 107.55 -38.05 105.35 -41.0 104.55 -42.35 105.85 -45.25 M160.5 -37.7 Q152.75 -23.7 149.4 -14.6 146.05 -5.55 143.85 -8.5 143.05 -9.85 144.35 -12.75 153.2 -30.3 160.5 -37.7 M313.4 -176.5 Q322.25 -190.05 329.55 -195.75 321.75 -184.95 318.4 -177.95 315.1 -170.95 312.9 -173.25 312.05 -174.25 313.4 -176.5 M286.55 -174.75 Q285.35 -176.7 287.3 -181.0 300.3 -206.85 311.05 -217.75 299.6 -197.15 294.7 -183.75 289.8 -170.4 286.55 -174.75 M256.9 -191.75 Q265.75 -209.3 273.05 -216.7 265.3 -202.7 261.95 -193.6 258.6 -184.55 256.4 -187.5 255.6 -188.85 256.9 -191.75 M271.4 -141.75 Q280.25 -159.3 287.55 -166.7 279.8 -152.7 276.45 -143.6 273.1 -134.55 270.9 -137.5 270.1 -138.85 271.4 -141.75 M314.55 -142.25 Q303.1 -121.65 298.2 -108.25 293.3 -94.9 290.05 -99.25 288.85 -101.2 290.8 -105.5 303.8 -131.35 314.55 -142.25 M228.9 -154.75 Q237.75 -172.3 245.05 -179.7 237.3 -165.7 233.95 -156.6 230.6 -147.55 228.4 -150.5 227.6 -151.85 228.9 -154.75 M222.55 -187.25 Q214.75 -176.45 211.4 -169.45 208.1 -162.45 205.9 -164.75 205.05 -165.75 206.4 -168.0 215.25 -181.55 222.55 -187.25 M180.8 -148.5 Q193.8 -174.35 204.55 -185.25 193.1 -164.65 188.2 -151.25 183.3 -137.9 180.05 -142.25 178.85 -144.2 180.8 -148.5 M236.4 -124.75 Q245.25 -142.3 252.55 -149.7 244.8 -135.7 241.45 -126.6 238.1 -117.55 235.9 -120.5 235.1 -121.85 236.4 -124.75 M224.4 -89.0 Q233.25 -102.55 240.55 -108.25 232.75 -97.45 229.4 -90.45 226.1 -83.45 223.9 -85.75 223.05 -86.75 224.4 -89.0 M175.05 -67.75 Q173.85 -69.7 175.8 -74.0 188.8 -99.85 199.55 -110.75 188.1 -90.15 183.2 -76.75 178.3 -63.4 175.05 -67.75 M179.05 -25.7 Q171.3 -11.7 167.95 -2.6 164.6 6.45 162.4 3.5 161.6 2.15 162.9 -0.75 171.75 -18.3 179.05 -25.7 M216.4 -45.25 Q225.25 -62.8 232.55 -70.2 224.8 -56.2 221.45 -47.1 218.1 -38.05 215.9 -41.0 215.1 -42.35 216.4 -45.25 M292.4 -75.75 Q301.25 -93.3 308.55 -100.7 300.8 -86.7 297.45 -77.6 294.1 -68.55 291.9 -71.5 291.1 -72.85 292.4 -75.75 M255.4 -78.75 Q264.25 -96.3 271.55 -103.7 263.8 -89.7 260.45 -80.6 257.1 -71.55 254.9 -74.5 254.1 -75.85 255.4 -78.75 M280.55 -71.75 Q272.75 -60.95 269.4 -53.95 266.1 -46.95 263.9 -49.25 263.05 -50.25 264.4 -52.5 273.25 -66.05 280.55 -71.75 M272.05 -40.7 Q264.3 -26.7 260.95 -17.6 257.6 -8.55 255.4 -11.5 254.6 -12.85 255.9 -15.75 264.75 -33.3 272.05 -40.7 M313.55 -31.25 Q312.35 -33.2 314.3 -37.5 327.3 -63.35 338.05 -74.25 326.6 -53.65 321.7 -40.25 316.8 -26.9 313.55 -31.25 M487.45 -244.8 Q496.3 -262.35 503.6 -269.75 495.85 -255.75 492.5 -246.65 489.15 -237.6 486.95 -240.55 486.15 -241.9 487.45 -244.8 M392.95 -248.5 Q389.65 -241.5 387.45 -243.8 386.6 -244.8 387.95 -247.05 396.8 -260.6 404.1 -266.3 396.3 -255.5 392.95 -248.5 M397.45 -240.05 Q406.3 -253.6 413.6 -259.3 405.8 -248.5 402.45 -241.5 399.15 -234.5 396.95 -236.8 396.1 -237.8 397.45 -240.05 M430.95 -242.8 Q439.8 -260.35 447.1 -267.75 439.35 -253.75 436.0 -244.65 432.65 -235.6 430.45 -238.55 429.65 -239.9 430.95 -242.8 M483.6 -218.8 Q475.8 -208.0 472.45 -201.0 469.15 -194.0 466.95 -196.3 466.1 -197.3 467.45 -199.55 476.3 -213.1 483.6 -218.8 M476.45 -173.75 Q485.3 -191.3 492.6 -198.7 484.85 -184.7 481.5 -175.6 478.15 -166.55 475.95 -169.5 475.15 -170.85 476.45 -173.75 M441.6 -193.25 Q433.8 -182.45 430.45 -175.45 427.15 -168.45 424.95 -170.75 424.1 -171.75 425.45 -174.0 434.3 -187.55 441.6 -193.25 M472.95 -136.25 Q481.8 -153.8 489.1 -161.2 481.35 -147.2 478.0 -138.1 474.65 -129.05 472.45 -132.0 471.65 -133.35 472.95 -136.25 M374.45 -192.0 Q383.3 -205.55 390.6 -211.25 382.8 -200.45 379.45 -193.45 376.15 -186.45 373.95 -188.75 373.1 -189.75 374.45 -192.0 M350.4 -156.25 Q359.25 -173.8 366.55 -181.2 358.8 -167.2 355.45 -158.1 352.1 -149.05 349.9 -152.0 349.1 -153.35 350.4 -156.25 M358.4 -117.25 Q367.25 -134.8 374.55 -142.2 366.8 -128.2 363.45 -119.1 360.1 -110.05 357.9 -113.0 357.1 -114.35 358.4 -117.25 M365.95 -65.75 Q365.1 -66.75 366.45 -69.0 375.3 -82.55 382.6 -88.25 374.8 -77.45 371.45 -70.45 368.15 -63.45 365.95 -65.75 M394.35 -93.0 Q407.35 -118.85 418.1 -129.75 406.65 -109.15 401.75 -95.75 396.85 -82.4 393.6 -86.75 392.4 -88.7 394.35 -93.0 M362.85 -83.0 Q375.85 -108.85 386.6 -119.75 375.15 -99.15 370.25 -85.75 365.35 -72.4 362.1 -76.75 360.9 -78.7 362.85 -83.0 M362.55 -25.2 Q354.8 -11.2 351.45 -2.1 348.1 6.95 345.9 4.0 345.1 2.65 346.4 -0.25 355.25 -17.8 362.55 -25.2 M344.05 -34.25 Q336.25 -23.45 332.9 -16.45 329.6 -9.45 327.4 -11.75 326.55 -12.75 327.9 -15.0 336.75 -28.55 344.05 -34.25 M397.85 -20.0 Q410.85 -45.85 421.6 -56.75 410.15 -36.15 405.25 -22.75 400.35 -9.4 397.1 -13.75 395.9 -15.7 397.85 -20.0 M466.45 -94.75 Q475.3 -112.3 482.6 -119.7 474.85 -105.7 471.5 -96.6 468.15 -87.55 465.95 -90.5 465.15 -91.85 466.45 -94.75 M482.45 -67.5 Q491.3 -81.05 498.6 -86.75 490.8 -75.95 487.45 -68.95 484.15 -61.95 481.95 -64.25 481.1 -65.25 482.45 -67.5 M414.95 -89.75 Q423.8 -107.3 431.1 -114.7 423.35 -100.7 420.0 -91.6 416.65 -82.55 414.45 -85.5 413.65 -86.85 414.95 -89.75 M424.45 -41.75 Q423.6 -42.75 424.95 -45.0 433.8 -58.55 441.1 -64.25 433.3 -53.45 429.95 -46.45 426.65 -39.45 424.45 -41.75 M419.75 -5.25 Q414.85 8.1 411.6 3.75 410.4 1.8 412.35 -2.5 425.35 -28.35 436.1 -39.25 424.65 -18.65 419.75 -5.25 M484.1 -28.7 Q476.35 -14.7 473.0 -5.6 469.65 3.45 467.45 0.5 466.65 -0.85 467.95 -3.75 476.8 -21.3 484.1 -28.7 M457.35 -25.0 Q470.35 -50.85 481.1 -61.75 469.65 -41.15 464.75 -27.75 459.85 -14.4 456.6 -18.75 455.4 -20.7 457.35 -25.0 M499.85 103.0 Q512.85 77.15 523.6 66.25 512.15 86.85 507.25 100.25 502.35 113.6 499.1 109.25 497.9 107.3 499.85 103.0 M518.1 149.85 Q510.35 163.85 507.0 172.95 503.65 182.0 501.45 179.05 500.65 177.7 501.95 174.8 510.8 157.25 518.1 149.85 M478.6 23.85 Q470.85 37.85 467.5 46.95 464.15 56.0 461.95 53.05 461.15 51.7 462.45 48.8 471.3 31.25 478.6 23.85 M482.45 2.5 Q491.3 -11.05 498.6 -16.75 490.8 -5.95 487.45 1.05 484.15 8.05 481.95 5.75 481.1 4.75 482.45 2.5 M432.1 18.75 Q424.3 29.55 420.95 36.55 417.65 43.55 415.45 41.25 414.6 40.25 415.95 38.0 424.8 24.45 432.1 18.75 M365.45 17.75 Q374.3 0.2 381.6 -7.2 373.85 6.8 370.5 15.9 367.15 24.95 364.95 22.0 364.15 20.65 365.45 17.75 M342.05 56.35 Q334.3 70.35 330.95 79.45 327.6 88.5 325.4 85.55 324.6 84.2 325.9 81.3 334.75 63.75 342.05 56.35 M352.55 69.75 Q344.75 80.55 341.4 87.55 338.1 94.55 335.9 92.25 335.05 91.25 336.4 89.0 345.25 75.45 352.55 69.75 M374.45 59.8 Q383.3 42.25 390.6 34.85 382.85 48.85 379.5 57.95 376.15 67.0 373.95 64.05 373.15 62.7 374.45 59.8 M375.35 134.5 Q388.35 108.65 399.1 97.75 387.65 118.35 382.75 131.75 377.85 145.1 374.6 140.75 373.4 138.8 375.35 134.5 M347.05 114.35 Q339.3 128.35 335.95 137.45 332.6 146.5 330.4 143.55 329.6 142.2 330.9 139.3 339.75 121.75 347.05 114.35 M339.9 162.05 Q348.75 148.5 356.05 142.8 348.25 153.6 344.9 160.6 341.6 167.6 339.4 165.3 338.55 164.3 339.9 162.05 M399.1 158.3 Q391.3 169.1 387.95 176.1 384.65 183.1 382.45 180.8 381.6 179.8 382.95 177.55 391.8 164.0 399.1 158.3 M449.85 156.5 Q462.85 130.65 473.6 119.75 462.15 140.35 457.25 153.75 452.35 167.1 449.1 162.75 447.9 160.8 449.85 156.5 M447.95 234.6 Q444.65 241.6 442.45 239.3 441.6 238.3 442.95 236.05 451.8 222.5 459.1 216.8 451.3 227.6 447.95 234.6 M415.45 215.3 Q424.3 197.75 431.6 190.35 423.85 204.35 420.5 213.45 417.15 222.5 414.95 219.55 414.15 218.2 415.45 215.3 M357.05 199.35 Q349.3 213.35 345.95 222.45 342.6 231.5 340.4 228.55 339.6 227.2 340.9 224.3 349.75 206.75 357.05 199.35 M366.45 255.05 Q375.3 241.5 382.6 235.8 374.8 246.6 371.45 253.6 368.15 260.6 365.95 258.3 365.1 257.3 366.45 255.05 M519.1 207.4 Q511.35 221.4 508.0 230.5 504.65 239.55 502.45 236.6 501.65 235.25 502.95 232.35 511.8 214.8 519.1 207.4 M298.4 15.75 Q307.25 -1.8 314.55 -9.2 306.8 4.8 303.45 13.9 300.1 22.95 297.9 20.0 297.1 18.65 298.4 15.75 M270.9 19.25 Q279.75 1.7 287.05 -5.7 279.3 8.3 275.95 17.4 272.6 26.45 270.4 23.5 269.6 22.15 270.9 19.25 M243.7 94.75 Q238.8 108.1 235.55 103.75 234.35 101.8 236.3 97.5 249.3 71.65 260.05 60.75 248.6 81.35 243.7 94.75 M310.05 53.35 Q302.3 67.35 298.95 76.45 295.6 85.5 293.4 82.55 292.6 81.2 293.9 78.3 302.75 60.75 310.05 53.35 M229.9 17.75 Q238.75 0.2 246.05 -7.2 238.3 6.8 234.95 15.9 231.6 24.95 229.4 22.0 228.6 20.65 229.9 17.75 M163.8 74.0 Q176.8 48.15 187.55 37.25 176.1 57.85 171.2 71.25 166.3 84.6 163.05 80.25 161.85 78.3 163.8 74.0 M227.55 115.3 Q219.75 126.1 216.4 133.1 213.1 140.1 210.9 137.8 210.05 136.8 211.4 134.55 220.25 121.0 227.55 115.3 M170.4 153.3 Q179.25 135.75 186.55 128.35 178.8 142.35 175.45 151.45 172.1 160.5 169.9 157.55 169.1 156.2 170.4 153.3 M237.55 163.8 Q229.75 174.6 226.4 181.6 223.1 188.6 220.9 186.3 220.05 185.3 221.4 183.05 230.25 169.5 237.55 163.8 M262.8 167.55 Q275.8 141.7 286.55 130.8 275.1 151.4 270.2 164.8 265.3 178.15 262.05 173.8 260.85 171.85 262.8 167.55 M301.55 154.35 Q293.8 168.35 290.45 177.45 287.1 186.5 284.9 183.55 284.1 182.2 285.4 179.3 294.25 161.75 301.55 154.35 M116.35 46.05 Q125.2 32.5 132.5 26.8 124.7 37.6 121.35 44.6 118.05 51.6 115.85 49.3 115.0 48.3 116.35 46.05 M64.0 36.75 Q62.8 34.8 64.75 30.5 77.75 4.65 88.5 -6.25 77.05 14.35 72.15 27.75 67.25 41.1 64.0 36.75 M3.95 74.9 Q0.6 83.95 -1.6 81.0 -2.4 79.65 -1.1 76.75 7.75 59.2 15.05 51.8 7.3 65.8 3.95 74.9 M25.5 50.25 Q24.3 48.3 26.25 44.0 39.25 18.15 50.0 7.25 38.55 27.85 33.65 41.25 28.75 54.6 25.5 50.25 M49.0 114.8 Q47.8 112.85 49.75 108.55 62.75 82.7 73.5 71.8 62.05 92.4 57.15 105.8 52.25 119.15 49.0 114.8 M124.85 107.8 Q133.7 90.25 141.0 82.85 133.25 96.85 129.9 105.95 126.55 115.0 124.35 112.05 123.55 110.7 124.85 107.8 M126.35 163.8 Q135.2 146.25 142.5 138.85 134.75 152.85 131.4 161.95 128.05 171.0 125.85 168.05 125.05 166.7 126.35 163.8 M114.5 215.8 Q106.7 226.6 103.35 233.6 100.05 240.6 97.85 238.3 97.0 237.3 98.35 235.05 107.2 221.5 114.5 215.8 M40.9 215.8 Q49.75 198.25 57.05 190.85 49.3 204.85 45.95 213.95 42.6 223.0 40.4 220.05 39.6 218.7 40.9 215.8 M286.9 249.85 Q295.75 232.3 303.05 224.9 295.3 238.9 291.95 248.0 288.6 257.05 286.4 254.1 285.6 252.75 286.9 249.85 M226.9 229.55 Q235.75 216.0 243.05 210.3 235.25 221.1 231.9 228.1 228.6 235.1 226.4 232.8 225.55 231.8 226.9 229.55 M163.8 216.05 Q176.8 190.2 187.55 179.3 176.1 199.9 171.2 213.3 166.3 226.65 163.05 222.3 161.85 220.35 163.8 216.05 M-476.75 -232.55 Q-467.9 -246.1 -460.6 -251.8 -468.4 -241.0 -471.75 -234.0 -475.05 -227.0 -477.25 -229.3 -478.1 -230.3 -476.75 -232.55 M-407.6 -222.8 Q-415.4 -212.0 -418.75 -205.0 -422.05 -198.0 -424.25 -200.3 -425.1 -201.3 -423.75 -203.55 -414.9 -217.1 -407.6 -222.8 M-427.1 -246.75 Q-434.85 -232.75 -438.2 -223.65 -441.55 -214.6 -443.75 -217.55 -444.55 -218.9 -443.25 -221.8 -434.4 -239.35 -427.1 -246.75 M-352.25 -233.55 Q-343.4 -247.1 -336.1 -252.8 -343.9 -242.0 -347.25 -235.0 -350.55 -228.0 -352.75 -230.3 -353.6 -231.3 -352.25 -233.55 M-328.25 -214.55 Q-319.4 -228.1 -312.1 -233.8 -319.9 -223.0 -323.25 -216.0 -326.55 -209.0 -328.75 -211.3 -329.6 -212.3 -328.25 -214.55 M-499.75 -199.95 Q-503.05 -192.95 -505.25 -195.25 -506.1 -196.25 -504.75 -198.5 -495.9 -212.05 -488.6 -217.75 -496.4 -206.95 -499.75 -199.95 M-486.8 -156.0 Q-477.95 -169.55 -470.65 -175.25 -478.45 -164.45 -481.8 -157.45 -485.1 -150.45 -487.3 -152.75 -488.15 -153.75 -486.8 -156.0 M-486.8 -170.0 Q-477.95 -183.55 -470.65 -189.25 -478.45 -178.45 -481.8 -171.45 -485.1 -164.45 -487.3 -166.75 -488.15 -167.75 -486.8 -170.0 M-324.7 -184.75 Q-315.85 -202.3 -308.55 -209.7 -316.3 -195.7 -319.65 -186.6 -323.0 -177.55 -325.2 -180.5 -326.0 -181.85 -324.7 -184.75 M-370.25 -186.0 Q-361.4 -199.55 -354.1 -205.25 -361.9 -194.45 -365.25 -187.45 -368.55 -180.45 -370.75 -182.75 -371.6 -183.75 -370.25 -186.0 M-403.6 -168.25 Q-404.8 -170.2 -402.85 -174.5 -389.85 -200.35 -379.1 -211.25 -390.55 -190.65 -395.45 -177.25 -400.35 -163.9 -403.6 -168.25 M-378.25 -146.5 Q-369.4 -160.05 -362.1 -165.75 -369.9 -154.95 -373.25 -147.95 -376.55 -140.95 -378.75 -143.25 -379.6 -144.25 -378.25 -146.5 M-444.2 -166.6 Q-447.55 -157.55 -449.75 -160.5 -450.55 -161.85 -449.25 -164.75 -440.4 -182.3 -433.1 -189.7 -440.85 -175.7 -444.2 -166.6 M-436.25 -131.25 Q-427.4 -148.8 -420.1 -156.2 -427.85 -142.2 -431.2 -133.1 -434.55 -124.05 -436.75 -127.0 -437.55 -128.35 -436.25 -131.25 M-440.6 -124.2 Q-448.35 -110.2 -451.7 -101.1 -455.05 -92.05 -457.25 -95.0 -458.05 -96.35 -456.75 -99.25 -447.9 -116.8 -440.6 -124.2 M-412.25 -79.25 Q-403.4 -96.8 -396.1 -104.2 -403.85 -90.2 -407.2 -81.1 -410.55 -72.05 -412.75 -75.0 -413.55 -76.35 -412.25 -79.25 M-442.25 -75.25 Q-433.4 -92.8 -426.1 -100.2 -433.85 -86.2 -437.2 -77.1 -440.55 -68.05 -442.75 -71.0 -443.55 -72.35 -442.25 -75.25 M-485.6 -84.25 Q-486.8 -86.2 -484.85 -90.5 -471.85 -116.35 -461.1 -127.25 -472.55 -106.65 -477.45 -93.25 -482.35 -79.9 -485.6 -84.25 M-485.6 -8.25 Q-486.8 -10.2 -484.85 -14.5 -471.85 -40.35 -461.1 -51.25 -472.55 -30.65 -477.45 -17.25 -482.35 -3.9 -485.6 -8.25 M-450.6 -45.75 Q-458.4 -34.95 -461.75 -27.95 -465.05 -20.95 -467.25 -23.25 -468.1 -24.25 -466.75 -26.5 -457.9 -40.05 -450.6 -45.75 M-417.75 -8.75 Q-408.9 -26.3 -401.6 -33.7 -409.35 -19.7 -412.7 -10.6 -416.05 -1.55 -418.25 -4.5 -419.05 -5.85 -417.75 -8.75 M-328.7 -11.75 Q-319.85 -29.3 -312.55 -36.7 -320.3 -22.7 -323.65 -13.6 -327.0 -4.55 -329.2 -7.5 -330.0 -8.85 -328.7 -11.75 M-328.2 -34.75 Q-319.35 -52.3 -312.05 -59.7 -319.8 -45.7 -323.15 -36.6 -326.5 -27.55 -328.7 -30.5 -329.5 -31.85 -328.2 -34.75 M-361.1 -77.7 Q-368.85 -63.7 -372.2 -54.6 -375.55 -45.55 -377.75 -48.5 -378.55 -49.85 -377.25 -52.75 -368.4 -70.3 -361.1 -77.7 M-124.0 -234.75 Q-131.75 -220.75 -135.1 -211.65 -138.45 -202.6 -140.65 -205.55 -141.45 -206.9 -140.15 -209.8 -131.3 -227.35 -124.0 -234.75 M-84.5 -236.25 Q-92.25 -222.25 -95.6 -213.15 -98.95 -204.1 -101.15 -207.05 -101.95 -208.4 -100.65 -211.3 -91.8 -228.85 -84.5 -236.25 M-47.0 -235.75 Q-54.75 -221.75 -58.1 -212.65 -61.45 -203.6 -63.65 -206.55 -64.45 -207.9 -63.15 -210.8 -54.3 -228.35 -47.0 -235.75 M-17.5 -210.3 Q-18.7 -212.25 -16.75 -216.55 -3.75 -242.4 7.0 -253.3 -4.45 -232.7 -9.35 -219.3 -14.25 -205.95 -17.5 -210.3 M-244.55 -235.25 Q-252.3 -221.25 -255.65 -212.15 -259.0 -203.1 -261.2 -206.05 -262.0 -207.4 -260.7 -210.3 -251.85 -227.85 -244.55 -235.25 M-283.2 -233.05 Q-284.0 -234.4 -282.7 -237.3 -273.85 -254.85 -266.55 -262.25 -274.3 -248.25 -277.65 -239.15 -281.0 -230.1 -283.2 -233.05 M-205.7 -242.3 Q-196.85 -259.85 -189.55 -267.25 -197.3 -253.25 -200.65 -244.15 -204.0 -235.1 -206.2 -238.05 -207.0 -239.4 -205.7 -242.3 M-180.05 -225.3 Q-181.25 -227.25 -179.3 -231.55 -166.3 -257.4 -155.55 -268.3 -167.0 -247.7 -171.9 -234.3 -176.8 -220.95 -180.05 -225.3 M-226.55 -263.3 Q-234.35 -252.5 -237.7 -245.5 -241.0 -238.5 -243.2 -240.8 -244.05 -241.8 -242.7 -244.05 -233.85 -257.6 -226.55 -263.3 M-176.8 -169.0 Q-163.8 -194.85 -153.05 -205.75 -164.5 -185.15 -169.4 -171.75 -174.3 -158.4 -177.55 -162.75 -178.75 -164.7 -176.8 -169.0 M-232.2 -178.25 Q-223.35 -195.8 -216.05 -203.2 -223.8 -189.2 -227.15 -180.1 -230.5 -171.05 -232.7 -174.0 -233.5 -175.35 -232.2 -178.25 M-239.9 -114.25 Q-244.8 -100.9 -248.05 -105.25 -249.25 -107.2 -247.3 -111.5 -234.3 -137.35 -223.55 -148.25 -235.0 -127.65 -239.9 -114.25 M-263.05 -185.1 Q-270.8 -171.1 -274.15 -162.0 -277.5 -152.95 -279.7 -155.9 -280.5 -157.25 -279.2 -160.15 -270.35 -177.7 -263.05 -185.1 M-247.55 -80.2 Q-255.3 -66.2 -258.65 -57.1 -262.0 -48.05 -264.2 -51.0 -265.0 -52.35 -263.7 -55.25 -254.85 -72.8 -247.55 -80.2 M-314.25 -81.0 Q-305.4 -94.55 -298.1 -100.25 -305.9 -89.45 -309.25 -82.45 -312.55 -75.45 -314.75 -77.75 -315.6 -78.75 -314.25 -81.0 M-293.6 -20.25 Q-301.4 -9.45 -304.75 -2.45 -308.05 4.55 -310.25 2.25 -311.1 1.25 -309.75 -1.0 -300.9 -14.55 -293.6 -20.25 M-285.75 -28.0 Q-276.9 -41.55 -269.6 -47.25 -277.4 -36.45 -280.75 -29.45 -284.05 -22.45 -286.25 -24.75 -287.1 -25.75 -285.75 -28.0 M-211.55 -21.25 Q-212.75 -23.2 -210.8 -27.5 -197.8 -53.35 -187.05 -64.25 -198.5 -43.65 -203.4 -30.25 -208.3 -16.9 -211.55 -21.25 M-232.55 -40.25 Q-233.75 -42.2 -231.8 -46.5 -218.8 -72.35 -208.05 -83.25 -219.5 -62.65 -224.4 -49.25 -229.3 -35.9 -232.55 -40.25 M-176.65 -24.75 Q-167.8 -42.3 -160.5 -49.7 -168.25 -35.7 -171.6 -26.6 -174.95 -17.55 -177.15 -20.5 -177.95 -21.85 -176.65 -24.75 M-20.5 -190.25 Q-28.3 -179.45 -31.65 -172.45 -34.95 -165.45 -37.15 -167.75 -38.0 -168.75 -36.65 -171.0 -27.8 -184.55 -20.5 -190.25 M-59.15 -145.8 Q-50.3 -163.35 -43.0 -170.75 -50.75 -156.75 -54.1 -147.65 -57.45 -138.6 -59.65 -141.55 -60.45 -142.9 -59.15 -145.8 M-29.15 -117.4 Q-29.9 -118.6 -28.7 -121.35 -20.35 -137.8 -13.5 -144.75 -20.8 -131.65 -23.95 -123.1 -27.1 -114.6 -29.15 -117.4 M-120.7 -168.45 Q-124.0 -161.45 -126.2 -163.75 -127.05 -164.75 -125.7 -167.0 -116.85 -180.55 -109.55 -186.25 -117.35 -175.45 -120.7 -168.45 M-146.4 -100.25 Q-151.3 -86.9 -154.55 -91.25 -155.75 -93.2 -153.8 -97.5 -140.8 -123.35 -130.05 -134.25 -141.5 -113.65 -146.4 -100.25 M-96.65 -137.3 Q-87.8 -154.85 -80.5 -162.25 -88.25 -148.25 -91.6 -139.15 -94.95 -130.1 -97.15 -133.05 -97.95 -134.4 -96.65 -137.3 M-97.55 -54.75 Q-98.75 -56.7 -96.8 -61.0 -83.8 -86.85 -73.05 -97.75 -84.5 -77.15 -89.4 -63.75 -94.3 -50.4 -97.55 -54.75 M-133.15 -31.75 Q-124.3 -49.3 -117.0 -56.7 -124.75 -42.7 -128.1 -33.6 -131.45 -24.55 -133.65 -27.5 -134.45 -28.85 -133.15 -31.75 M-91.05 -26.25 Q-92.25 -28.2 -90.3 -32.5 -77.3 -58.35 -66.55 -69.25 -78.0 -48.65 -82.9 -35.25 -87.8 -21.9 -91.05 -26.25 M-47.5 -31.2 Q-55.25 -17.2 -58.6 -8.1 -61.95 0.95 -64.15 -2.0 -64.95 -3.35 -63.65 -6.25 -54.8 -23.8 -47.5 -31.2 M-24.0 -31.75 Q-25.2 -33.7 -23.25 -38.0 -10.25 -63.85 0.5 -74.75 -10.95 -54.15 -15.85 -40.75 -20.75 -27.4 -24.0 -31.75 M-21.0 24.3 Q-28.75 38.3 -32.1 47.4 -35.45 56.45 -37.65 53.5 -38.45 52.15 -37.15 49.25 -28.3 31.7 -21.0 24.3 M-132.65 27.75 Q-123.8 10.2 -116.5 2.8 -124.25 16.8 -127.6 25.9 -130.95 34.95 -133.15 32.0 -133.95 30.65 -132.65 27.75 M-102.15 63.75 Q-93.3 46.2 -86.0 38.8 -93.75 52.8 -97.1 61.9 -100.45 70.95 -102.65 68.0 -103.45 66.65 -102.15 63.75 M-99.8 149.05 Q-86.8 123.2 -76.05 112.3 -87.5 132.9 -92.4 146.3 -97.3 159.65 -100.55 155.3 -101.75 153.35 -99.8 149.05 M-11.15 151.3 Q-2.3 133.75 5.0 126.35 -2.75 140.35 -6.1 149.45 -9.45 158.5 -11.65 155.55 -12.45 154.2 -11.15 151.3 M-239.15 35.9 Q-242.5 44.95 -244.7 42.0 -245.5 40.65 -244.2 37.75 -235.35 20.2 -228.05 12.8 -235.8 26.8 -239.15 35.9 M-171.15 47.25 Q-162.3 29.7 -155.0 22.3 -162.75 36.3 -166.1 45.4 -169.45 54.45 -171.65 51.5 -172.45 50.15 -171.15 47.25 M-254.05 25.75 Q-255.25 23.8 -253.3 19.5 -240.3 -6.35 -229.55 -17.25 -241.0 3.35 -245.9 16.75 -250.8 30.1 -254.05 25.75 M-316.6 75.25 Q-317.8 73.3 -315.85 69.0 -302.85 43.15 -292.1 32.25 -303.55 52.85 -308.45 66.25 -313.35 79.6 -316.6 75.25 M-284.3 160.05 Q-271.3 134.2 -260.55 123.3 -272.0 143.9 -276.9 157.3 -281.8 170.65 -285.05 166.3 -286.25 164.35 -284.3 160.05 M-172.05 131.3 Q-173.25 129.35 -171.3 125.05 -158.3 99.2 -147.55 88.3 -159.0 108.9 -163.9 122.3 -168.8 135.65 -172.05 131.3 M-207.2 155.3 Q-198.35 137.75 -191.05 130.35 -198.8 144.35 -202.15 153.45 -205.5 162.5 -207.7 159.55 -208.5 158.2 -207.2 155.3 M-208.2 218.3 Q-199.35 200.75 -192.05 193.35 -199.8 207.35 -203.15 216.45 -206.5 225.5 -208.7 222.55 -209.5 221.2 -208.2 218.3 M-278.75 241.1 Q-282.05 248.1 -284.25 245.8 -285.1 244.8 -283.75 242.55 -274.9 229.0 -267.6 223.3 -275.4 234.1 -278.75 241.1 M-320.2 221.8 Q-311.35 204.25 -304.05 196.85 -311.8 210.85 -315.15 219.95 -318.5 229.0 -320.7 226.05 -321.5 224.7 -320.2 221.8 M-47.25 228.55 Q-34.25 202.7 -23.5 191.8 -34.95 212.4 -39.85 225.8 -44.75 239.15 -48.0 234.8 -49.2 232.85 -47.25 228.55 M-93.55 214.3 Q-101.35 225.1 -104.7 232.1 -108.0 239.1 -110.2 236.8 -111.05 235.8 -109.7 233.55 -100.85 220.0 -93.55 214.3 M-332.2 36.25 Q-323.35 18.7 -316.05 11.3 -323.8 25.3 -327.15 34.4 -330.5 43.45 -332.7 40.5 -333.5 39.15 -332.2 36.25 M-333.1 1.25 Q-340.9 12.05 -344.25 19.05 -347.55 26.05 -349.75 23.75 -350.6 22.75 -349.25 20.5 -340.4 6.95 -333.1 1.25 M-368.6 7.25 Q-376.4 18.05 -379.75 25.05 -383.05 32.05 -385.25 29.75 -386.1 28.75 -384.75 26.5 -375.9 12.95 -368.6 7.25 M-361.6 94.3 Q-362.8 92.35 -360.85 88.05 -347.85 62.2 -337.1 51.3 -348.55 71.9 -353.45 85.3 -358.35 98.65 -361.6 94.3 M-440.75 29.55 Q-444.05 36.55 -446.25 34.25 -447.1 33.25 -445.75 31.0 -436.9 17.45 -429.6 11.75 -437.4 22.55 -440.75 29.55 M-410.35 8.0 Q-397.35 -17.85 -386.6 -28.75 -398.05 -8.15 -402.95 5.25 -407.85 18.6 -411.1 14.25 -412.3 12.3 -410.35 8.0 M-471.6 10.75 Q-472.8 8.8 -470.85 4.5 -457.85 -21.35 -447.1 -32.25 -458.55 -11.65 -463.45 1.75 -468.35 15.1 -471.6 10.75 M-470.75 70.25 Q-461.9 52.7 -454.6 45.3 -462.35 59.3 -465.7 68.4 -469.05 77.45 -471.25 74.5 -472.05 73.15 -470.75 70.25 M-407.1 66.8 Q-414.85 80.8 -418.2 89.9 -421.55 98.95 -423.75 96.0 -424.55 94.65 -423.25 91.75 -414.4 74.2 -407.1 66.8 M-411.1 110.8 Q-422.55 131.4 -427.45 144.8 -432.35 158.15 -435.6 153.8 -436.8 151.85 -434.85 147.55 -421.85 121.7 -411.1 110.8 M-453.6 109.25 Q-461.4 120.05 -464.75 127.05 -468.05 134.05 -470.25 131.75 -471.1 130.75 -469.75 128.5 -460.9 114.95 -453.6 109.25 M-483.75 101.0 Q-474.9 87.45 -467.6 81.75 -475.4 92.55 -478.75 99.55 -482.05 106.55 -484.25 104.25 -485.1 103.25 -483.75 101.0 M-478.6 191.8 Q-479.8 189.85 -477.85 185.55 -464.85 159.7 -454.1 148.8 -465.55 169.4 -470.45 182.8 -475.35 196.15 -478.6 191.8 M-338.2 131.3 Q-329.35 113.75 -322.05 106.35 -329.8 120.35 -333.15 129.45 -336.5 138.5 -338.7 135.55 -339.5 134.2 -338.2 131.3 M-378.25 174.55 Q-369.4 161.0 -362.1 155.3 -369.9 166.1 -373.25 173.1 -376.55 180.1 -378.75 177.8 -379.6 176.8 -378.25 174.55 M-336.2 173.3 Q-327.35 155.75 -320.05 148.35 -327.8 162.35 -331.15 171.45 -334.5 180.5 -336.7 177.55 -337.5 176.2 -336.2 173.3 M-514.3 8.0 Q-505.45 -5.55 -498.15 -11.25 -505.95 -0.45 -509.3 6.55 -512.6 13.55 -514.8 11.25 -515.65 10.25 -514.3 8.0 M-516.3 66.5 Q-507.45 52.95 -500.15 47.25 -507.95 58.05 -511.3 65.05 -514.6 72.05 -516.8 69.75 -517.65 68.75 -516.3 66.5 M-430.1 213.3 Q-431.3 211.35 -429.35 207.05 -416.35 181.2 -405.6 170.3 -417.05 190.9 -421.95 204.3 -426.85 217.65 -430.1 213.3" fill="url(#gradient0)" fill-rule="evenodd" stroke="none"/>
  </g>
  <defs>
    <radialGradient cx="0" cy="0" gradientTransform="matrix(0.7229, 0.0, 0.0, 0.7229, -9.65, -55.9)" gradientUnits="userSpaceOnUse" id="gradient0" r="819.2" spreadMethod="pad">
      <stop offset="0.0196078431372549" stop-color="#42afff" stop-opacity="0.23921569"/>
      <stop offset="1.0" stop-color="#2abeff" stop-opacity="0.627451"/>
    </radialGradient>
  </defs>
</svg>
