<?xml version="1.0" encoding="UTF-8" standalone="no"?>
<svg xmlns:xlink="http://www.w3.org/1999/xlink" height="75.35px" width="79.55px" xmlns="http://www.w3.org/2000/svg">
  <g transform="matrix(1.0, 0.0, 0.0, 1.0, 39.8, 38.35)">
    <path d="M22.4 -26.1 L18.8 -26.1 18.8 -23.05 26.0 -23.05 26.0 -19.95 15.2 -19.95 15.2 -21.45 14.05 -21.45 14.05 -33.8 15.2 -33.8 15.2 -35.35 26.0 -35.35 26.0 -32.25 18.8 -32.25 18.8 -29.15 22.4 -29.15 22.4 -26.1 M11.65 -33.8 L11.65 -19.95 6.85 -19.95 6.85 -32.25 4.5 -32.25 4.5 -19.95 -0.3 -19.95 -0.3 -32.25 -2.7 -32.25 -2.7 -19.95 -7.5 -19.95 -7.5 -35.35 10.45 -35.35 10.45 -33.8 11.65 -33.8 M15.75 -3.15 Q15.8 -1.2 16.4 0.15 17.05 1.55 17.8 1.55 18.6 1.55 19.1 0.15 19.6 -1.2 19.55 -3.15 19.5 -5.1 18.85 -6.5 18.25 -7.85 17.45 -7.85 16.7 -7.85 16.2 -6.5 15.7 -5.1 15.75 -3.15 M0.8 -5.15 Q0.05 -18.2 16.95 -17.9 23.95 -17.45 28.2 -13.65 32.45 -9.9 34.15 -3.35 34.85 1.35 30.35 6.05 37.55 11.15 36.65 22.55 35.8 33.9 18.95 34.0 8.55 33.95 4.4 29.3 1.9 26.55 1.6 22.2 L1.55 21.5 Q-0.05 9.45 5.5 6.25 0.35 1.6 0.8 -5.15 M21.2 17.45 Q21.1 14.8 20.2 12.9 19.3 11.1 18.25 11.1 17.2 11.1 16.6 12.9 15.95 14.8 16.05 17.45 16.3 20.05 17.2 21.85 18.05 23.75 19.1 23.75 20.15 23.75 20.75 21.85 21.4 20.05 21.2 17.45 M-9.85 -35.35 L-9.85 -19.95 -14.65 -19.95 -14.65 -35.35 -9.85 -35.35 M-17.05 -32.25 L-20.65 -32.25 -20.65 -19.95 -25.45 -19.95 -25.45 -32.25 -29.0 -32.25 -29.0 -35.35 -17.05 -35.35 -17.05 -32.25 M-27.55 -14.5 Q-22.95 -17.7 -17.0 -17.7 -0.65 -17.7 -0.85 -5.15 -0.4 1.6 -5.55 6.25 0.0 9.45 -1.6 21.5 L-1.6 22.2 Q-1.95 26.6 -4.45 29.35 -8.7 33.95 -19.0 34.0 -35.9 33.9 -36.7 22.55 -37.6 11.15 -30.4 6.05 -34.95 1.35 -34.2 -3.35 -32.2 -11.35 -27.55 -14.5 M-19.15 23.75 Q-18.1 23.75 -17.25 21.85 -16.35 20.05 -16.15 17.45 -16.0 14.8 -16.65 12.9 -17.25 11.1 -18.3 11.1 -19.4 11.1 -20.25 12.9 -21.15 14.8 -21.3 17.45 -21.45 20.05 -20.85 21.85 -20.2 23.75 -19.15 23.75 M-15.8 -3.15 Q-15.75 -5.1 -16.25 -6.5 -16.75 -7.85 -17.55 -7.85 -18.3 -7.85 -18.95 -6.5 -19.55 -5.1 -19.6 -3.15 -19.65 -1.2 -19.15 0.15 -18.65 1.55 -17.85 1.55 -17.1 1.55 -16.45 0.15 -15.85 -1.2 -15.8 -3.15" fill="#000000" fill-rule="evenodd" stroke="none"/>
    <path d="M22.4 -26.1 L18.8 -26.1 18.8 -23.05 26.0 -23.05 26.0 -19.95 15.2 -19.95 15.2 -21.45 14.05 -21.45 14.05 -33.8 15.2 -33.8 15.2 -35.35 26.0 -35.35 26.0 -32.25 18.8 -32.25 18.8 -29.15 22.4 -29.15 22.4 -26.1 M11.65 -33.8 L11.65 -19.95 6.85 -19.95 6.85 -32.25 4.5 -32.25 4.5 -19.95 -0.3 -19.95 -0.3 -32.25 -2.7 -32.25 -2.7 -19.95 -7.5 -19.95 -7.5 -35.35 10.45 -35.35 10.45 -33.8 11.65 -33.8 M15.75 -3.15 Q15.8 -1.2 16.4 0.15 17.05 1.55 17.8 1.55 18.6 1.55 19.1 0.15 19.6 -1.2 19.55 -3.15 19.5 -5.1 18.85 -6.5 18.25 -7.85 17.45 -7.85 16.7 -7.85 16.2 -6.5 15.7 -5.1 15.75 -3.15 M0.8 -5.15 Q0.35 1.6 5.5 6.25 -0.05 9.45 1.55 21.5 L1.6 22.2 Q1.9 26.55 4.4 29.3 8.55 33.95 18.95 34.0 35.8 33.9 36.65 22.55 37.55 11.15 30.35 6.05 34.85 1.35 34.15 -3.35 32.45 -9.9 28.2 -13.65 23.95 -17.45 16.95 -17.9 0.05 -18.2 0.8 -5.15 M21.2 17.45 Q21.1 14.8 20.2 12.9 19.3 11.1 18.25 11.1 17.2 11.1 16.6 12.9 15.95 14.8 16.05 17.45 16.3 20.05 17.2 21.85 18.05 23.75 19.1 23.75 20.15 23.75 20.75 21.85 21.4 20.05 21.2 17.45 M-9.85 -35.35 L-9.85 -19.95 -14.65 -19.95 -14.65 -35.35 -9.85 -35.35 M-17.05 -32.25 L-20.65 -32.25 -20.65 -19.95 -25.45 -19.95 -25.45 -32.25 -29.0 -32.25 -29.0 -35.35 -17.05 -35.35 -17.05 -32.25 M-27.55 -14.5 Q-22.95 -17.7 -17.0 -17.7 -0.65 -17.7 -0.85 -5.15 -0.4 1.6 -5.55 6.25 0.0 9.45 -1.6 21.5 L-1.6 22.2 Q-1.95 26.6 -4.45 29.35 -8.7 33.95 -19.0 34.0 -35.9 33.9 -36.7 22.55 -37.6 11.15 -30.4 6.05 -34.95 1.35 -34.2 -3.35 -32.2 -11.35 -27.55 -14.5 M-15.8 -3.15 Q-15.85 -1.2 -16.45 0.15 -17.1 1.55 -17.85 1.55 -18.65 1.55 -19.15 0.15 -19.65 -1.2 -19.6 -3.15 -19.55 -5.1 -18.95 -6.5 -18.3 -7.85 -17.55 -7.85 -16.75 -7.85 -16.25 -6.5 -15.75 -5.1 -15.8 -3.15 M-19.15 23.75 Q-20.2 23.75 -20.85 21.85 -21.45 20.05 -21.3 17.45 -21.15 14.8 -20.25 12.9 -19.4 11.1 -18.3 11.1 -17.25 11.1 -16.65 12.9 -16.0 14.8 -16.15 17.45 -16.35 20.05 -17.25 21.85 -18.1 23.75 -19.15 23.75" fill="none" stroke="#000000" stroke-linecap="round" stroke-linejoin="round" stroke-opacity="0.45882353" stroke-width="3.0"/>
    <path d="M22.4 -26.1 L18.8 -26.1 18.8 -23.05 26.0 -23.05 26.0 -19.95 15.2 -19.95 15.2 -21.45 14.05 -21.45 14.05 -33.8 15.2 -33.8 15.2 -35.35 26.0 -35.35 26.0 -32.25 18.8 -32.25 18.8 -29.15 22.4 -29.15 22.4 -26.1 M11.65 -33.8 L11.65 -19.95 6.85 -19.95 6.85 -32.25 4.5 -32.25 4.5 -19.95 -0.3 -19.95 -0.3 -32.25 -2.7 -32.25 -2.7 -19.95 -7.5 -19.95 -7.5 -35.35 10.45 -35.35 10.45 -33.8 11.65 -33.8 M0.8 -5.15 Q0.05 -18.2 16.95 -17.9 23.95 -17.45 28.2 -13.65 32.45 -9.9 34.15 -3.35 34.85 1.35 30.35 6.05 37.55 11.15 36.65 22.55 35.8 33.9 18.95 34.0 8.55 33.95 4.4 29.3 1.9 26.55 1.6 22.2 L1.55 21.5 Q-0.05 9.45 5.5 6.25 0.35 1.6 0.8 -5.15 M15.75 -3.15 Q15.8 -1.2 16.4 0.15 17.05 1.55 17.8 1.55 18.6 1.55 19.1 0.15 19.6 -1.2 19.55 -3.15 19.5 -5.1 18.85 -6.5 18.25 -7.85 17.45 -7.85 16.7 -7.85 16.2 -6.5 15.7 -5.1 15.75 -3.15 M21.2 17.45 Q21.1 14.8 20.2 12.9 19.3 11.1 18.25 11.1 17.2 11.1 16.6 12.9 15.95 14.8 16.05 17.45 16.3 20.05 17.2 21.85 18.05 23.75 19.1 23.75 20.15 23.75 20.75 21.85 21.4 20.05 21.2 17.45 M-17.05 -32.25 L-20.65 -32.25 -20.65 -19.95 -25.45 -19.95 -25.45 -32.25 -29.0 -32.25 -29.0 -35.35 -17.05 -35.35 -17.05 -32.25 M-9.85 -35.35 L-9.85 -19.95 -14.65 -19.95 -14.65 -35.35 -9.85 -35.35 M-27.55 -14.5 Q-22.95 -17.7 -17.0 -17.7 -0.65 -17.7 -0.85 -5.15 -0.4 1.6 -5.55 6.25 0.0 9.45 -1.6 21.5 L-1.6 22.2 Q-1.95 26.6 -4.45 29.35 -8.7 33.95 -19.0 34.0 -35.9 33.9 -36.7 22.55 -37.6 11.15 -30.4 6.05 -34.95 1.35 -34.2 -3.35 -32.2 -11.35 -27.55 -14.5 M-19.15 23.75 Q-18.1 23.75 -17.25 21.85 -16.35 20.05 -16.15 17.45 -16.0 14.8 -16.65 12.9 -17.25 11.1 -18.3 11.1 -19.4 11.1 -20.25 12.9 -21.15 14.8 -21.3 17.45 -21.45 20.05 -20.85 21.85 -20.2 23.75 -19.15 23.75 M-15.8 -3.15 Q-15.75 -5.1 -16.25 -6.5 -16.75 -7.85 -17.55 -7.85 -18.3 -7.85 -18.95 -6.5 -19.55 -5.1 -19.6 -3.15 -19.65 -1.2 -19.15 0.15 -18.65 1.55 -17.85 1.55 -17.1 1.55 -16.45 0.15 -15.85 -1.2 -15.8 -3.15" fill="#000000" fill-rule="evenodd" stroke="none"/>
    <path d="M22.4 -26.1 L18.8 -26.1 18.8 -23.05 26.0 -23.05 26.0 -19.95 15.2 -19.95 15.2 -21.45 14.05 -21.45 14.05 -33.8 15.2 -33.8 15.2 -35.35 26.0 -35.35 26.0 -32.25 18.8 -32.25 18.8 -29.15 22.4 -29.15 22.4 -26.1 M11.65 -33.8 L11.65 -19.95 6.85 -19.95 6.85 -32.25 4.5 -32.25 4.5 -19.95 -0.3 -19.95 -0.3 -32.25 -2.7 -32.25 -2.7 -19.95 -7.5 -19.95 -7.5 -35.35 10.45 -35.35 10.45 -33.8 11.65 -33.8 M0.8 -5.15 Q0.35 1.6 5.5 6.25 -0.05 9.45 1.55 21.5 L1.6 22.2 Q1.9 26.55 4.4 29.3 8.55 33.95 18.95 34.0 35.8 33.9 36.65 22.55 37.55 11.15 30.35 6.05 34.85 1.35 34.15 -3.35 32.45 -9.9 28.2 -13.65 23.95 -17.45 16.95 -17.9 0.05 -18.2 0.8 -5.15 M15.75 -3.15 Q15.8 -1.2 16.4 0.15 17.05 1.55 17.8 1.55 18.6 1.55 19.1 0.15 19.6 -1.2 19.55 -3.15 19.5 -5.1 18.85 -6.5 18.25 -7.85 17.45 -7.85 16.7 -7.85 16.2 -6.5 15.7 -5.1 15.75 -3.15 M21.2 17.45 Q21.1 14.8 20.2 12.9 19.3 11.1 18.25 11.1 17.2 11.1 16.6 12.9 15.95 14.8 16.05 17.45 16.3 20.05 17.2 21.85 18.05 23.75 19.1 23.75 20.15 23.75 20.75 21.85 21.4 20.05 21.2 17.45 M-17.05 -32.25 L-20.65 -32.25 -20.65 -19.95 -25.45 -19.95 -25.45 -32.25 -29.0 -32.25 -29.0 -35.35 -17.05 -35.35 -17.05 -32.25 M-9.85 -35.35 L-9.85 -19.95 -14.65 -19.95 -14.65 -35.35 -9.85 -35.35 M-27.55 -14.5 Q-22.95 -17.7 -17.0 -17.7 -0.65 -17.7 -0.85 -5.15 -0.4 1.6 -5.55 6.25 0.0 9.45 -1.6 21.5 L-1.6 22.2 Q-1.95 26.6 -4.45 29.35 -8.7 33.95 -19.0 34.0 -35.9 33.9 -36.7 22.55 -37.6 11.15 -30.4 6.05 -34.95 1.35 -34.2 -3.35 -32.2 -11.35 -27.55 -14.5 M-15.8 -3.15 Q-15.85 -1.2 -16.45 0.15 -17.1 1.55 -17.85 1.55 -18.65 1.55 -19.15 0.15 -19.65 -1.2 -19.6 -3.15 -19.55 -5.1 -18.95 -6.5 -18.3 -7.85 -17.55 -7.85 -16.75 -7.85 -16.25 -6.5 -15.75 -5.1 -15.8 -3.15 M-19.15 23.75 Q-20.2 23.75 -20.85 21.85 -21.45 20.05 -21.3 17.45 -21.15 14.8 -20.25 12.9 -19.4 11.1 -18.3 11.1 -17.25 11.1 -16.65 12.9 -16.0 14.8 -16.15 17.45 -16.35 20.05 -17.25 21.85 -18.1 23.75 -19.15 23.75" fill="none" stroke="#000000" stroke-linecap="round" stroke-linejoin="round" stroke-opacity="0.3372549" stroke-width="6.0"/>
    <path d="M15.75 -3.15 Q15.8 -1.2 16.4 0.15 17.05 1.55 17.8 1.55 18.6 1.55 19.1 0.15 19.6 -1.2 19.55 -3.15 19.5 -5.1 18.85 -6.5 18.25 -7.85 17.45 -7.85 16.7 -7.85 16.2 -6.5 15.7 -5.1 15.75 -3.15 M0.8 -5.15 Q0.05 -18.2 16.95 -17.9 23.95 -17.45 28.2 -13.65 32.45 -9.9 34.15 -3.35 34.85 1.35 30.35 6.05 37.55 11.15 36.65 22.55 35.8 33.9 18.95 34.0 8.55 33.95 4.4 29.3 1.9 26.55 1.6 22.2 L1.55 21.5 Q-0.05 9.45 5.5 6.25 0.35 1.6 0.8 -5.15 M21.2 17.45 Q21.1 14.8 20.2 12.9 19.3 11.1 18.25 11.1 17.2 11.1 16.6 12.9 15.95 14.8 16.05 17.45 16.3 20.05 17.2 21.85 18.05 23.75 19.1 23.75 20.15 23.75 20.75 21.85 21.4 20.05 21.2 17.45 M-27.55 -14.5 Q-22.95 -17.7 -17.0 -17.7 -0.65 -17.7 -0.85 -5.15 -0.4 1.6 -5.55 6.25 0.0 9.45 -1.6 21.5 L-1.6 22.2 Q-1.95 26.6 -4.45 29.35 -8.7 33.95 -19.0 34.0 -35.9 33.9 -36.7 22.55 -37.6 11.15 -30.4 6.05 -34.95 1.35 -34.2 -3.35 -32.2 -11.35 -27.55 -14.5 M-19.15 23.75 Q-18.1 23.75 -17.25 21.85 -16.35 20.05 -16.15 17.45 -16.0 14.8 -16.65 12.9 -17.25 11.1 -18.3 11.1 -19.4 11.1 -20.25 12.9 -21.15 14.8 -21.3 17.45 -21.45 20.05 -20.85 21.85 -20.2 23.75 -19.15 23.75 M-15.8 -3.15 Q-15.75 -5.1 -16.25 -6.5 -16.75 -7.85 -17.55 -7.85 -18.3 -7.85 -18.95 -6.5 -19.55 -5.1 -19.6 -3.15 -19.65 -1.2 -19.15 0.15 -18.65 1.55 -17.85 1.55 -17.1 1.55 -16.45 0.15 -15.85 -1.2 -15.8 -3.15" fill="#fdfdfd" fill-rule="evenodd" stroke="none"/>
    <path d="M22.4 -26.1 L18.8 -26.1 18.8 -23.05 26.0 -23.05 26.0 -19.95 15.2 -19.95 15.2 -21.45 14.05 -21.45 14.05 -33.8 15.2 -33.8 15.2 -35.35 26.0 -35.35 26.0 -32.25 18.8 -32.25 18.8 -29.15 22.4 -29.15 22.4 -26.1 M11.65 -33.8 L11.65 -19.95 6.85 -19.95 6.85 -32.25 4.5 -32.25 4.5 -19.95 -0.3 -19.95 -0.3 -32.25 -2.7 -32.25 -2.7 -19.95 -7.5 -19.95 -7.5 -35.35 10.45 -35.35 10.45 -33.8 11.65 -33.8 M-17.05 -32.25 L-20.65 -32.25 -20.65 -19.95 -25.45 -19.95 -25.45 -32.25 -29.0 -32.25 -29.0 -35.35 -17.05 -35.35 -17.05 -32.25 M-9.85 -35.35 L-9.85 -19.95 -14.65 -19.95 -14.65 -35.35 -9.85 -35.35" fill="#ffec00" fill-rule="evenodd" stroke="none"/>
    <path d="M22.4 -26.1 L18.8 -26.1 18.8 -23.05 26.0 -23.05 26.0 -19.95 15.2 -19.95 15.2 -21.45 14.05 -21.45 14.05 -33.8 15.2 -33.8 15.2 -35.35 26.0 -35.35 26.0 -32.25 18.8 -32.25 18.8 -29.15 22.4 -29.15 22.4 -26.1 M11.65 -33.8 L11.65 -19.95 6.85 -19.95 6.85 -32.25 4.5 -32.25 4.5 -19.95 -0.3 -19.95 -0.3 -32.25 -2.7 -32.25 -2.7 -19.95 -7.5 -19.95 -7.5 -35.35 10.45 -35.35 10.45 -33.8 11.65 -33.8 M15.75 -3.15 Q15.8 -1.2 16.4 0.15 17.05 1.55 17.8 1.55 18.6 1.55 19.1 0.15 19.6 -1.2 19.55 -3.15 19.5 -5.1 18.85 -6.5 18.25 -7.85 17.45 -7.85 16.7 -7.85 16.2 -6.5 15.7 -5.1 15.75 -3.15 M0.8 -5.15 Q0.35 1.6 5.5 6.25 -0.05 9.45 1.55 21.5 L1.6 22.2 Q1.9 26.55 4.4 29.3 8.55 33.95 18.95 34.0 35.8 33.9 36.65 22.55 37.55 11.15 30.35 6.05 34.85 1.35 34.15 -3.35 32.45 -9.9 28.2 -13.65 23.95 -17.45 16.95 -17.9 0.05 -18.2 0.8 -5.15 M21.2 17.45 Q21.1 14.8 20.2 12.9 19.3 11.1 18.25 11.1 17.2 11.1 16.6 12.9 15.95 14.8 16.05 17.45 16.3 20.05 17.2 21.85 18.05 23.75 19.1 23.75 20.15 23.75 20.75 21.85 21.4 20.05 21.2 17.45 M-17.05 -32.25 L-20.65 -32.25 -20.65 -19.95 -25.45 -19.95 -25.45 -32.25 -29.0 -32.25 -29.0 -35.35 -17.05 -35.35 -17.05 -32.25 M-9.85 -35.35 L-9.85 -19.95 -14.65 -19.95 -14.65 -35.35 -9.85 -35.35 M-27.55 -14.5 Q-22.95 -17.7 -17.0 -17.7 -0.65 -17.7 -0.85 -5.15 -0.4 1.6 -5.55 6.25 0.0 9.45 -1.6 21.5 L-1.6 22.2 Q-1.95 26.6 -4.45 29.35 -8.7 33.95 -19.0 34.0 -35.9 33.9 -36.7 22.55 -37.6 11.15 -30.4 6.05 -34.95 1.35 -34.2 -3.35 -32.2 -11.35 -27.55 -14.5 M-15.8 -3.15 Q-15.85 -1.2 -16.45 0.15 -17.1 1.55 -17.85 1.55 -18.65 1.55 -19.15 0.15 -19.65 -1.2 -19.6 -3.15 -19.55 -5.1 -18.95 -6.5 -18.3 -7.85 -17.55 -7.85 -16.75 -7.85 -16.25 -6.5 -15.75 -5.1 -15.8 -3.15 M-19.15 23.75 Q-20.2 23.75 -20.85 21.85 -21.45 20.05 -21.3 17.45 -21.15 14.8 -20.25 12.9 -19.4 11.1 -18.3 11.1 -17.25 11.1 -16.65 12.9 -16.0 14.8 -16.15 17.45 -16.35 20.05 -17.25 21.85 -18.1 23.75 -19.15 23.75" fill="none" stroke="#000000" stroke-linecap="round" stroke-linejoin="round" stroke-width="1.0"/>
  </g>
</svg>
