<?xml version="1.0" encoding="UTF-8" standalone="no"?>
<svg xmlns:xlink="http://www.w3.org/1999/xlink" height="123.45px" width="123.5px" xmlns="http://www.w3.org/2000/svg">
  <g transform="matrix(1.0, 0.0, 0.0, 1.0, 61.75, 61.7)">
    <path d="M57.7 -0.15 Q57.7 -24.05 40.75 -40.95 23.75 -57.85 -0.25 -57.85 -24.3 -57.85 -41.25 -40.95 -58.25 -24.05 -58.25 -0.15 -58.25 23.75 -41.25 40.65 -24.3 57.55 -0.25 57.55 23.75 57.55 40.75 40.65 57.7 23.75 57.7 -0.15 M43.65 -43.6 Q61.75 -25.55 61.75 0.05 61.75 25.6 43.65 43.7 25.6 61.75 0.0 61.75 -25.55 61.75 -43.65 43.7 -61.75 25.6 -61.75 0.05 -61.75 -25.55 -43.65 -43.6 -25.55 -61.7 0.0 -61.7 25.6 -61.7 43.65 -43.6 M-0.65 -11.5 Q4.15 -11.5 7.55 -8.15 10.95 -4.75 10.95 0.05 10.95 4.8 7.55 8.2 4.15 11.6 -0.65 11.6 -5.45 11.6 -8.85 8.2 -12.25 4.8 -12.25 0.05 -12.25 -4.75 -8.85 -8.15 -5.45 -11.5 -0.65 -11.5 M-0.65 -7.55 Q-3.8 -7.55 -6.05 -5.35 -8.25 -3.15 -8.25 0.0 -8.25 3.15 -6.05 5.35 -3.8 7.6 -0.65 7.6 2.5 7.6 4.7 5.35 6.95 3.15 6.95 0.0 6.95 -3.15 4.7 -5.35 2.5 -7.55 -0.65 -7.55" fill="#97e4ff" fill-rule="evenodd" stroke="none"/>
  </g>
</svg>
