<?xml version="1.0" encoding="UTF-8" standalone="no"?>
<svg xmlns:xlink="http://www.w3.org/1999/xlink" height="509.1px" width="924.25px" xmlns="http://www.w3.org/2000/svg">
  <g transform="matrix(1.0, 0.0, 0.0, 1.0, 462.3, 257.8)">
    <path d="M228.85 -257.8 L47.3 -51.75 209.85 -257.8 228.85 -257.8 M171.35 -257.8 L110.35 -169.75 164.85 -257.8 171.35 -257.8 M185.85 -257.8 L101.35 -144.75 175.85 -257.8 185.85 -257.8 M304.9 -257.8 L222.35 -187.25 300.4 -257.8 304.9 -257.8 M322.4 -257.8 L287.9 -233.3 317.4 -257.8 322.4 -257.8 M313.4 -257.8 L271.4 -225.3 309.4 -257.8 313.4 -257.8 M290.9 -257.8 L282.9 -252.3 287.9 -257.8 290.9 -257.8 M261.85 -257.8 L86.85 -83.75 253.35 -257.8 261.85 -257.8 M282.4 -257.8 L33.3 -24.75 265.4 -257.8 282.4 -257.8 M250.85 -257.8 L45.3 -44.75 230.85 -257.8 250.85 -257.8 M51.85 -257.8 L45.35 -239.3 47.85 -257.8 51.85 -257.8 M65.85 -257.8 L50.8 -205.8 61.85 -257.8 65.85 -257.8 M39.35 -257.8 L25.8 -181.75 35.35 -257.8 39.35 -257.8 M125.35 -257.8 L90.35 -188.25 121.85 -257.8 125.35 -257.8 M99.35 -257.8 L80.35 -215.8 96.85 -257.8 99.35 -257.8 M107.35 -257.8 L89.35 -216.3 104.85 -257.8 107.35 -257.8 M113.85 -257.8 L63.35 -145.25 109.35 -257.8 113.85 -257.8 M381.4 -257.8 L170.85 -114.25 371.9 -257.8 381.4 -257.8 M393.4 -257.8 L245.85 -161.75 385.9 -257.8 393.4 -257.8 M345.4 -257.8 L138.85 -104.25 327.9 -257.8 345.4 -257.8 M461.95 -257.8 L253.55 -139.85 452.4 -257.8 461.95 -257.8 M461.95 -247.8 L364.4 -196.75 461.95 -250.8 461.95 -247.8 M461.95 -219.25 L89.35 -39.25 461.95 -242.75 461.95 -219.25 M461.95 -206.25 L327.9 -146.2 461.95 -209.75 461.95 -206.25 M447.4 -257.8 L129.85 -73.25 422.4 -257.8 447.4 -257.8 M413.9 -257.8 L169.85 -105.25 399.4 -257.8 413.9 -257.8 M461.95 -187.75 L320.9 -131.25 461.95 -193.75 461.95 -187.75 M461.95 -150.3 L356.9 -117.8 461.95 -153.8 461.95 -150.3 M461.95 -121.3 L417.4 -110.3 461.95 -125.3 461.95 -121.3 M461.95 -110.8 L461.95 -107.25 278.9 -63.75 461.95 -110.8 322.4 -78.25 461.95 -113.8 461.95 -110.8 M461.95 -127.8 L367.4 -102.25 461.95 -133.3 461.95 -127.8 M461.95 -144.8 L323.9 -102.75 461.95 -148.3 461.95 -144.8 M461.95 -137.8 L333.4 -99.25 461.95 -141.3 461.95 -137.8 M461.95 -66.25 L70.35 -7.25 461.95 -87.75 461.95 -66.25 M461.95 -57.25 L324.55 -39.45 461.95 -60.25 461.95 -57.25 M461.95 -26.75 L341.9 -20.75 461.95 -31.75 461.95 -26.75 461.95 -21.75 212.85 -8.05 461.95 -26.75 M461.95 -16.2 L310.9 -10.2 461.95 -19.75 461.95 -16.2 M461.95 -8.2 L383.4 -8.2 461.95 -12.7 461.95 -8.2 M446.9 -34.75 L461.95 -36.75 461.95 -33.75 446.9 -34.75 M461.95 -44.25 L101.35 -5.2 461.95 -55.25 461.95 -44.25 M442.4 -1.2 L461.95 -2.7 461.95 0.8 442.4 -1.2 M461.95 -96.25 L273.9 -55.25 461.95 -102.75 461.95 -96.25 M461.95 -196.25 L356.4 -152.25 461.95 -198.75 461.95 -196.25 M461.95 22.8 L430.4 20.8 461.95 19.3 461.95 22.8 M461.95 9.8 L87.85 5.8 461.95 2.8 461.95 9.8 M461.95 70.8 L180.35 30.8 461.95 60.8 461.95 70.8 M461.95 91.8 L286.3 57.6 461.95 88.3 461.95 91.8 M461.95 57.8 L68.35 13.3 237.75 25.0 103.35 12.8 461.95 26.8 461.95 57.8 M461.95 140.8 L392.4 120.3 461.95 136.8 461.95 140.8 M461.95 134.3 L287.0 83.85 461.95 130.3 461.95 134.3 M461.95 147.3 L406.4 128.8 461.95 143.3 461.95 147.3 M461.95 115.8 L304.9 76.3 461.95 111.8 461.95 115.8 M450.4 117.3 L461.95 118.3 461.95 121.3 450.4 117.3 M461.95 177.8 L137.85 55.75 461.95 168.8 461.95 177.8 M461.95 189.3 L279.9 114.3 461.95 182.3 461.95 189.3 M461.95 196.8 L315.9 135.3 461.95 192.3 461.95 196.8 M461.95 152.8 L337.4 112.15 461.95 149.8 461.95 152.8 M461.95 162.3 L297.9 105.3 461.95 156.8 461.95 162.3 M461.95 103.3 L181.85 41.3 461.95 95.8 461.95 103.3 M461.95 223.8 L79.35 42.25 461.95 210.8 461.95 223.8 M461.95 231.8 L312.4 156.8 461.95 225.8 461.95 231.8 M461.95 237.3 L343.9 175.3 461.95 233.8 461.95 237.3 461.95 241.3 371.9 195.3 461.95 237.3 M410.9 251.3 L133.35 83.25 422.9 251.3 410.9 251.3 M457.9 251.3 L378.9 207.6 461.95 251.3 457.9 251.3 M345.4 251.3 L329.4 237.3 352.4 251.3 345.4 251.3 M331.4 251.3 L207.35 156.8 337.9 251.3 331.4 251.3 M386.9 251.3 L124.85 82.75 402.9 251.3 386.9 251.3 M372.9 251.3 L196.55 134.15 381.9 251.3 372.9 251.3 M84.75 251.3 L47.85 140.3 88.85 251.3 84.75 251.3 M128.65 251.3 L111.6 216.85 130.85 251.3 128.65 251.3 M132.85 251.3 L36.3 69.75 140.35 251.3 132.85 251.3 M143.35 251.3 L100.85 172.8 146.85 251.3 143.35 251.3 M149.35 251.3 L112.85 185.8 152.85 251.3 149.35 251.3 M121.15 251.3 L63.85 131.05 127.15 251.3 121.15 251.3 M28.6 251.3 L16.6 125.55 34.6 251.3 28.6 251.3 M16.6 251.3 L12.35 164.8 19.35 251.3 16.6 251.3 13.35 251.3 10.85 176.05 16.6 251.3 M5.35 251.3 L6.1 191.3 8.35 251.3 5.35 251.3 0.0 251.3 1.6 174.3 5.35 251.3 M46.35 251.3 L19.85 105.3 50.35 251.3 46.35 251.3 M54.1 251.3 L52.85 241.85 55.85 251.3 54.1 251.3 M64.35 251.3 L59.6 230.6 67.1 251.3 64.35 251.3 M72.1 251.3 L58.35 196.3 76.85 251.3 72.1 251.3 M79.6 251.3 L75.1 235.35 82.1 251.3 79.6 251.3 M172.35 251.3 L77.8 112.8 181.35 251.3 172.35 251.3 M213.85 251.3 L18.3 22.25 321.9 251.3 213.85 251.3 M-428.3 -257.8 L-304.75 -177.75 -437.8 -257.8 -428.3 -257.8 M-405.3 -257.8 L-111.7 -64.25 -417.8 -257.8 -405.3 -257.8 M-462.3 -215.8 L-423.3 -194.8 -462.3 -211.3 -462.3 -215.8 M-462.3 -207.3 L-242.25 -104.75 -462.3 -200.8 -462.3 -207.3 M-462.3 -257.8 L-43.2 -15.75 -462.3 -225.8 -462.3 -257.8 M-338.25 -257.8 L-214.5 -159.35 -343.75 -257.8 -338.25 -257.8 M-329.5 -257.8 L-217.2 -165.55 -334.75 -257.8 -329.5 -257.8 M-347.25 -257.8 L-253.25 -181.25 -355.25 -257.8 -347.25 -257.8 M-384.8 -257.8 L-158.2 -98.75 -396.3 -257.8 -384.8 -257.8 M-371.75 -257.8 L-219.7 -146.75 -378.3 -257.8 -371.75 -257.8 M-358.75 -257.8 L-317.25 -224.3 -365.25 -257.8 -358.75 -257.8 M-462.3 -174.3 L-405.3 -150.25 -462.3 -171.8 -462.3 -174.3 M-462.3 -161.8 L-409.8 -141.75 -462.3 -156.8 -462.3 -161.8 M-462.3 -169.8 L-225.75 -77.85 -462.3 -164.3 -462.3 -169.8 M-462.3 -194.3 L-221.75 -88.75 -402.35 -159.95 -86.7 -28.75 -462.3 -176.3 -462.3 -194.3 M-462.3 -124.75 L-399.8 -105.25 -462.3 -120.25 -462.3 -124.75 M-462.3 -107.25 L-462.3 -112.25 -279.75 -65.25 -462.3 -107.25 -177.75 -34.75 -462.3 -99.75 -462.3 -107.25 M-462.3 -135.75 L-200.75 -53.25 -462.3 -127.75 -462.3 -135.75 M-462.3 -143.75 L-339.75 -102.25 -462.3 -138.75 -462.3 -143.75 M-462.3 -88.75 L-33.2 -0.25 -462.3 -63.25 -462.3 -88.75 M-462.3 -53.75 L-427.3 -48.25 -462.3 -50.25 -462.3 -53.75 M-462.3 -26.75 L-416.3 -21.75 -462.3 -22.25 -462.3 -26.75 M-462.3 -18.25 L-304.25 -8.75 -462.3 -14.25 -462.3 -18.25 M-462.3 -8.25 L-284.75 -1.25 -462.3 -3.25 -462.3 -8.25 M-462.3 -32.25 L-288.6 -16.8 -462.3 -28.75 -462.3 -32.25 M-462.3 -38.75 L-279.75 -19.25 -462.3 -34.25 -462.3 -38.75 M-462.3 -45.25 L-336.75 -29.75 -462.3 -41.25 -462.3 -45.25 M-106.7 -257.8 L-40.2 -84.75 -113.7 -257.8 -106.7 -257.8 M-155.2 -257.8 L-135.2 -216.3 -160.2 -257.8 -155.2 -257.8 M-145.2 -257.8 L-127.7 -219.8 -148.7 -257.8 -145.2 -257.8 M-138.7 -257.8 L-96.7 -168.75 -142.7 -257.8 -138.7 -257.8 M-5.2 -257.8 L-7.2 -243.8 -8.7 -257.8 -5.2 -257.8 M-13.2 -257.8 L-14.2 -195.75 -17.7 -257.8 -13.2 -257.8 M-28.2 -257.8 L-25.2 -208.8 -33.2 -257.8 -28.2 -257.8 M-57.7 -257.8 L-58.2 -250.8 -61.2 -257.8 -57.7 -257.8 M-49.7 -257.8 L-18.7 -84.75 -55.2 -257.8 -49.7 -257.8 M-65.7 -257.8 L-42.2 -155.25 -71.2 -257.8 -65.7 -257.8 M-39.7 -257.8 L-28.7 -170.75 -46.2 -257.8 -39.7 -257.8 M-302.75 -257.8 L-295.25 -246.8 -306.25 -257.8 -302.75 -257.8 M-291.75 -257.8 L-152.2 -125.75 -299.25 -257.8 -291.75 -257.8 M-270.75 -257.8 L-68.7 -57.25 -285.25 -257.8 -270.75 -257.8 M-191.75 -257.8 L-155.7 -200.8 -196.25 -257.8 -191.75 -257.8 M-183.75 -257.8 L-158.7 -215.3 -188.75 -257.8 -183.75 -257.8 M-177.25 -257.8 L-76.2 -102.25 -181.75 -257.8 -177.25 -257.8 M-230.75 -257.8 L-166.2 -178.75 -235.75 -257.8 -230.75 -257.8 M-239.25 -257.8 L-21.2 -12.25 -264.75 -257.8 -239.25 -257.8 M-318.25 -257.8 L-215.75 -168.75 -324.25 -257.8 -318.25 -257.8 M-311.6 71.1 L-44.2 16.25 -462.3 118.8 -462.3 98.3 -261.5 59.85 -311.6 71.1 M-240.25 251.3 L-152.7 163.3 -233.25 251.3 -240.25 251.3 M-213.25 251.3 L-133.2 158.3 -207.25 251.3 -213.25 251.3 M-193.25 251.3 L-26.2 40.25 -179.25 251.3 -193.25 251.3 M-171.7 251.3 L-68.7 105.3 -165.7 251.3 -171.7 251.3 M-204.25 251.3 L-189.75 233.3 -200.75 251.3 -204.25 251.3 M-313.25 251.3 L-322.25 251.3 -228.25 178.8 -313.25 251.3 -127.2 104.8 -297.25 251.3 -313.25 251.3 M-254.75 251.3 L-107.7 110.3 -247.75 251.3 -254.75 251.3 M-285.25 251.3 L-54.7 53.25 -271.25 251.3 -285.25 251.3 M-42.9 251.3 L-44.65 251.3 -36.9 216.1 -42.9 251.3 -36.9 226.6 -40.4 251.3 -42.9 251.3 M-56.15 251.3 L-31.9 156.05 -52.9 251.3 -56.15 251.3 M-18.9 251.3 L-5.4 99.05 -13.4 251.3 -18.9 251.3 M-123.7 251.3 L-114.95 237.35 -121.7 251.3 -123.7 251.3 M-128.2 251.3 L-105.95 210.85 -125.2 251.3 -128.2 251.3 M-153.2 251.3 L-37.2 65.75 -140.7 251.3 -153.2 251.3 M-97.7 251.3 L-40.95 110.8 -91.95 251.3 -97.7 251.3 M-112.2 251.3 L-50.95 120.55 -105.45 251.3 -112.2 251.3 M-462.3 32.8 L-462.3 21.25 -152.7 12.25 -337.55 22.15 -212.75 17.75 -462.3 32.8 -284.75 25.75 -462.3 39.3 -462.3 32.8 M-462.3 7.25 L-105.2 7.25 -462.3 17.75 -462.3 7.25 M-462.3 69.8 L-363.75 59.3 -462.3 74.3 -462.3 69.8 M-462.3 82.8 L-172.75 35.8 -462.3 91.3 -462.3 82.8 M-462.3 59.3 L-243.75 35.3 -462.3 65.8 -462.3 59.3 M-462.3 123.3 L-353.75 97.3 -462.3 126.8 -462.3 123.3 M-462.3 143.3 L-282.75 90.8 -462.3 148.3 -462.3 143.3 M-462.3 131.8 L-87.7 31.3 -462.3 140.8 -462.3 131.8 M-462.3 176.8 L-105.2 45.25 -462.3 185.8 -462.3 176.8 M-462.3 188.3 L-394.8 162.8 -462.3 191.3 -462.3 188.3 M-462.3 169.8 L-462.3 166.8 -443.8 161.8 -462.3 169.8 -318.75 119.3 -462.3 172.8 -462.3 169.8 M-462.3 159.8 L-307.25 110.3 -462.3 164.8 -462.3 159.8 M-462.3 150.3 L-366.75 122.8 -462.3 155.3 -462.3 150.3 M-378.3 251.3 L-335.75 223.8 -373.8 251.3 -378.3 251.3 M-356.75 251.3 L-105.2 78.8 -347.25 251.3 -356.75 251.3 M-334.75 251.3 L-266.25 201.3 -329.25 251.3 -334.75 251.3 M-369.25 251.3 L-254.75 175.8 -362.75 251.3 -369.25 251.3 M-462.3 217.8 L-310.75 149.8 -462.3 221.8 -462.3 217.8 -462.3 213.8 -398.8 186.8 -462.3 217.8 M-462.3 208.3 L-330.05 150.45 -462.3 211.8 -462.3 208.3 M-462.3 228.8 L-18.7 16.25 -417.8 251.3 -462.3 251.3 -462.3 228.8 M-462.3 194.3 L-277.75 120.3 -462.3 202.3 -462.3 194.3" fill="url(#gradient0)" fill-rule="evenodd" stroke="none"/>
    <path d="M-79.2 -257.8 L-8.2 -10.75 -103.7 -257.8 -79.2 -257.8" fill="url(#gradient1)" fill-rule="evenodd" stroke="none"/>
  </g>
  <defs>
    <radialGradient cx="0" cy="0" gradientTransform="matrix(0.6492, 0.0, 0.0, 0.6492, -1.15, 3.6)" gradientUnits="userSpaceOnUse" id="gradient0" r="819.2" spreadMethod="pad">
      <stop offset="0.0" stop-color="#dbfffc" stop-opacity="0.16862746"/>
      <stop offset="1.0" stop-color="#ffffff"/>
    </radialGradient>
    <radialGradient cx="0" cy="0" gradientTransform="matrix(0.6492, 0.0, 0.0, 0.6492, -1.15, 3.6)" gradientUnits="userSpaceOnUse" id="gradient1" r="819.2" spreadMethod="pad">
      <stop offset="0.0" stop-color="#dbfffc" stop-opacity="0.16862746"/>
      <stop offset="1.0" stop-color="#ffffff" stop-opacity="0.5176471"/>
    </radialGradient>
  </defs>
</svg>
