<?xml version="1.0" encoding="UTF-8" standalone="no"?>
<svg xmlns:xlink="http://www.w3.org/1999/xlink" height="57.9px" width="125.0px" xmlns="http://www.w3.org/2000/svg">
  <g transform="matrix(1.0, 0.0, 0.0, 1.0, 81.1, 39.1)">
    <path d="M-79.6 6.15 L-79.6 -26.45 Q-79.6 -37.6 -68.45 -37.6 L31.25 -37.6 Q42.4 -37.6 42.4 -26.45 L42.4 6.15 Q42.4 17.3 31.25 17.3 L-68.45 17.3 Q-79.6 17.3 -79.6 6.15 Z" fill="none" stroke="#d2ecff" stroke-linecap="round" stroke-linejoin="round" stroke-opacity="0.35686275" stroke-width="3.0"/>
    <path d="M-79.6 -11.1 L-79.6 -26.45 Q-79.6 -37.6 -68.45 -37.6 L31.25 -37.6 Q42.4 -37.6 42.4 -26.45 L42.4 -11.1 -79.6 -11.1" fill="url(#gradient0)" fill-rule="evenodd" stroke="none"/>
    <path d="M42.4 -11.1 L42.4 6.15 Q42.4 17.3 31.25 17.3 L-68.45 17.3 Q-79.6 17.3 -79.6 6.15 L-79.6 -11.1 42.4 -11.1" fill="url(#gradient1)" fill-rule="evenodd" stroke="none"/>
    <path d="M-79.6 -11.1 L-79.6 -26.45 Q-79.6 -37.6 -68.45 -37.6 L31.25 -37.6 Q42.4 -37.6 42.4 -26.45 L42.4 -11.1 42.4 6.15 Q42.4 17.3 31.25 17.3 L-68.45 17.3 Q-79.6 17.3 -79.6 6.15 L-79.6 -11.1 42.4 -11.1" fill="none" stroke="#000000" stroke-linecap="round" stroke-linejoin="round" stroke-opacity="0.49803922" stroke-width="1.0"/>
    <path d="M14.45 11.3 L13.8 11.0 Q13.5 10.7 13.5 10.3 L13.5 -4.5 Q13.5 -4.9 13.8 -5.15 L14.5 -5.5 15.3 -5.3 26.95 2.05 27.3 2.55 27.3 3.15 26.95 3.65 15.3 11.1 14.5 11.3 14.45 11.3 M24.2 3.05 L24.35 2.9 15.75 -2.55 15.75 8.4 16.65 7.85 24.2 3.05" fill="#c0c9ff" fill-opacity="0.84705883" fill-rule="evenodd" stroke="none"/>
    <path d="M14.45 11.3 L14.5 11.3 15.3 11.1 26.95 3.65 27.3 3.15 27.3 2.55 27.8 2.85 28.2 3.35 28.2 3.95 27.8 4.45 16.2 11.9 15.4 12.1 Q14.95 12.05 14.7 11.8 L14.45 11.3 M16.65 7.85 L15.75 8.4 15.75 -2.55 24.35 2.9 24.2 3.05 16.65 -1.75 16.65 7.85" fill="#1a1b23" fill-rule="evenodd" stroke="none"/>
  </g>
  <defs>
    <linearGradient gradientTransform="matrix(0.0, -0.0283, 0.0745, 0.0, -18.6, -10.7)" gradientUnits="userSpaceOnUse" id="gradient0" spreadMethod="pad" x1="-819.2" x2="819.2">
      <stop offset="0.0" stop-color="#17171e" stop-opacity="0.7294118"/>
      <stop offset="1.0" stop-color="#0d0d12" stop-opacity="0.7372549"/>
    </linearGradient>
    <linearGradient gradientTransform="matrix(0.0, -0.0147, 0.0745, 0.0, -18.6, 3.45)" gradientUnits="userSpaceOnUse" id="gradient1" spreadMethod="pad" x1="-819.2" x2="819.2">
      <stop offset="0.0" stop-color="#3a3e5d" stop-opacity="0.8392157"/>
      <stop offset="1.0" stop-color="#272a3f" stop-opacity="0.8666667"/>
    </linearGradient>
  </defs>
</svg>
