<?xml version="1.0" encoding="UTF-8" standalone="no"?>
<svg xmlns:xlink="http://www.w3.org/1999/xlink" height="39.5px" width="51.95px" xmlns="http://www.w3.org/2000/svg">
  <g transform="matrix(1.0, 0.0, 0.0, 1.0, 26.25, 20.65)">
    <path d="M17.85 -18.3 L22.2 -9.5 20.3 -9.5 16.7 -18.3 17.85 -18.3 M22.0 -7.85 L4.4 9.95 20.0 -7.85 22.0 -7.85 M-0.85 -18.3 L-0.85 -9.5 -18.75 -9.5 -14.9 -18.3 -0.85 -18.3 M-18.7 -7.85 L-0.85 -7.85 -0.85 13.95 -18.7 -7.85" fill="#b9b8e2" fill-opacity="0.4862745" fill-rule="evenodd" stroke="none"/>
    <path d="M0.65 -7.85 L17.9 -7.85 0.3 14.2 0.65 -7.85 M0.9 -18.3 L14.95 -18.3 18.5 -9.5 0.9 -9.5 0.9 -18.3 M-20.6 -7.85 L-7.0 8.05 -22.55 -7.85 -20.6 -7.85 M-18.45 -18.3 L-16.8 -18.3 -20.95 -9.5 -22.75 -9.5 -18.45 -18.3" fill="#b9b8e2" fill-opacity="0.21960784" fill-rule="evenodd" stroke="none"/>
    <path d="M17.85 -18.3 L16.7 -18.3 20.3 -9.5 22.2 -9.5 17.85 -18.3 M0.65 -7.85 L0.3 14.2 17.9 -7.85 0.65 -7.85 M0.9 -18.3 L0.9 -9.5 18.5 -9.5 14.95 -18.3 0.9 -18.3 M22.0 -7.85 L20.0 -7.85 4.4 9.95 22.0 -7.85 M-26.25 -8.5 L-20.35 -20.65 19.6 -20.65 25.7 -8.6 -0.3 18.85 -26.25 -8.5 M-20.6 -7.85 L-22.55 -7.85 -7.0 8.05 -20.6 -7.85 M-18.45 -18.3 L-22.75 -9.5 -20.95 -9.5 -16.8 -18.3 -18.45 -18.3 M-0.85 -18.3 L-14.9 -18.3 -18.75 -9.5 -0.85 -9.5 -0.85 -18.3 M-18.7 -7.85 L-0.85 13.95 -0.85 -7.85 -18.7 -7.85" fill="#ced9fd" fill-rule="evenodd" stroke="none"/>
  </g>
</svg>
