<?xml version="1.0" encoding="UTF-8" standalone="no"?>
<svg xmlns:xlink="http://www.w3.org/1999/xlink" height="39.5px" width="51.95px" xmlns="http://www.w3.org/2000/svg">
  <g transform="matrix(1.0, 0.0, 0.0, 1.0, 26.25, 20.65)">
    <path d="M3.25 -18.3 L4.95 -9.5 -13.45 -9.5 -10.75 -18.3 3.25 -18.3 M-13.65 -7.85 L5.05 -7.85 -0.25 14.9 -13.65 -7.85" fill="#b9b8e2" fill-opacity="0.4862745" fill-rule="evenodd" stroke="none"/>
    <path d="M17.85 -18.3 L22.2 -9.5 7.15 -9.5 5.05 -18.3 17.85 -18.3 M7.1 -7.85 L22.0 -7.85 1.85 13.15 7.1 -7.85 M-15.6 -7.85 L-2.45 13.15 -22.55 -7.85 -15.6 -7.85 M-18.45 -18.3 L-12.7 -18.3 -15.7 -9.5 -22.75 -9.5 -18.45 -18.3" fill="#b9b8e2" fill-opacity="0.21960784" fill-rule="evenodd" stroke="none"/>
    <path d="M17.85 -18.3 L5.05 -18.3 7.15 -9.5 22.2 -9.5 17.85 -18.3 M7.1 -7.85 L1.85 13.15 22.0 -7.85 7.1 -7.85 M3.25 -18.3 L-10.75 -18.3 -13.45 -9.5 4.95 -9.5 3.25 -18.3 M-26.25 -8.5 L-20.35 -20.65 19.6 -20.65 25.7 -8.6 -0.3 18.85 -26.25 -8.5 M-15.6 -7.85 L-22.55 -7.85 -2.45 13.15 -15.6 -7.85 M-18.45 -18.3 L-22.75 -9.5 -15.7 -9.5 -12.7 -18.3 -18.45 -18.3 M-13.65 -7.85 L-0.25 14.9 5.05 -7.85 -13.65 -7.85" fill="#ced9fd" fill-rule="evenodd" stroke="none"/>
  </g>
</svg>
