<?xml version="1.0" encoding="UTF-8" standalone="no"?>
<svg xmlns:xlink="http://www.w3.org/1999/xlink" height="57.9px" width="125.0px" xmlns="http://www.w3.org/2000/svg">
  <g transform="matrix(1.0, 0.0, 0.0, 1.0, 268.05, 38.05)">
    <path d="M-266.55 7.2 L-266.55 -25.4 Q-266.55 -36.55 -255.4 -36.55 L-155.7 -36.55 Q-144.55 -36.55 -144.55 -25.4 L-144.55 7.2 Q-144.55 18.35 -155.7 18.35 L-255.4 18.35 Q-266.55 18.35 -266.55 7.2 Z" fill="none" stroke="#d2ecff" stroke-linecap="round" stroke-linejoin="round" stroke-opacity="0.35686275" stroke-width="3.0"/>
    <path d="M-266.55 -10.05 L-266.55 -25.4 Q-266.55 -36.55 -255.4 -36.55 L-155.7 -36.55 Q-144.55 -36.55 -144.55 -25.4 L-144.55 -10.05 -266.55 -10.05" fill="url(#gradient0)" fill-rule="evenodd" stroke="none"/>
    <path d="M-144.55 -10.05 L-144.55 7.2 Q-144.55 18.35 -155.7 18.35 L-255.4 18.35 Q-266.55 18.35 -266.55 7.2 L-266.55 -10.05 -144.55 -10.05" fill="url(#gradient1)" fill-rule="evenodd" stroke="none"/>
    <path d="M-266.55 -10.05 L-266.55 -25.4 Q-266.55 -36.55 -255.4 -36.55 L-155.7 -36.55 Q-144.55 -36.55 -144.55 -25.4 L-144.55 -10.05 -144.55 7.2 Q-144.55 18.35 -155.7 18.35 L-255.4 18.35 Q-266.55 18.35 -266.55 7.2 L-266.55 -10.05 -144.55 -10.05" fill="none" stroke="#000000" stroke-linecap="round" stroke-linejoin="round" stroke-opacity="0.49803922" stroke-width="1.0"/>
  </g>
  <defs>
    <linearGradient gradientTransform="matrix(0.0, -0.0283, 0.0745, 0.0, -205.55, -9.65)" gradientUnits="userSpaceOnUse" id="gradient0" spreadMethod="pad" x1="-819.2" x2="819.2">
      <stop offset="0.0" stop-color="#17171e" stop-opacity="0.7294118"/>
      <stop offset="1.0" stop-color="#0d0d12" stop-opacity="0.7372549"/>
    </linearGradient>
    <linearGradient gradientTransform="matrix(0.0, -0.0147, 0.0745, 0.0, -205.55, 4.5)" gradientUnits="userSpaceOnUse" id="gradient1" spreadMethod="pad" x1="-819.2" x2="819.2">
      <stop offset="0.0" stop-color="#3a3e5d" stop-opacity="0.8392157"/>
      <stop offset="1.0" stop-color="#272a3f" stop-opacity="0.8666667"/>
    </linearGradient>
  </defs>
</svg>
