<?xml version="1.0" encoding="UTF-8" standalone="no"?>
<svg xmlns:xlink="http://www.w3.org/1999/xlink" height="46.05px" width="53.9px" xmlns="http://www.w3.org/2000/svg">
  <g transform="matrix(1.0, 0.0, 0.0, 1.0, 26.95, 23.05)">
    <path d="M11.85 -19.2 Q23.65 -14.85 25.15 -10.35 L23.05 -9.55 Q28.15 0.3 26.6 11.05 L24.5 6.7 Q23.4 18.3 11.45 23.0 16.8 18.7 17.05 10.15 16.05 6.4 14.15 1.9 14.7 -1.65 11.15 -5.35 11.6 -1.2 8.4 1.6 L5.4 -6.0 Q3.1 -0.85 0.0 1.9 -3.1 -0.85 -5.4 -6.0 L-8.4 1.6 Q-11.6 -1.2 -11.15 -5.35 -14.7 -1.65 -14.15 1.9 -16.05 6.4 -17.05 10.15 -16.8 18.7 -11.45 23.0 -23.4 18.3 -24.5 6.7 L-26.6 11.05 Q-28.15 0.3 -23.05 -9.55 L-25.15 -10.35 Q-23.65 -14.85 -11.85 -19.2 -14.7 -21.15 -15.15 -23.05 -9.25 -23.3 0.0 -20.4 9.25 -23.3 15.15 -23.05 14.7 -21.15 11.85 -19.2" fill="#efffd0" fill-rule="evenodd" stroke="none"/>
  </g>
</svg>
