<?xml version="1.0" encoding="UTF-8" standalone="no"?>
<svg xmlns:xlink="http://www.w3.org/1999/xlink" height="50.85px" width="57.35px" xmlns="http://www.w3.org/2000/svg">
  <g transform="matrix(1.0, 0.0, 0.0, 1.0, 28.7, 25.45)">
    <path d="M1.2 8.8 Q-0.9 3.9 -2.85 -1.95 -4.2 -5.85 -3.95 -9.7 -6.65 -0.45 -5.35 5.6 -9.5 -0.15 -8.75 -6.45 -10.75 0.95 -15.0 5.4 -14.4 12.4 -10.85 19.1 -14.35 17.15 -16.5 14.55 L-11.65 25.4 Q-17.4 21.7 -20.35 16.4 -17.6 21.65 -20.95 24.4 -20.9 21.75 -24.3 14.95 -28.8 4.7 -25.15 -5.65 -24.15 -8.15 -23.05 -8.7 -26.45 -7.15 -28.7 -10.05 -24.75 -11.45 -21.4 -14.25 L-16.3 -18.6 Q-14.5 -20.1 -9.05 -20.9 -13.45 -21.85 -15.4 -23.9 -9.25 -25.7 -3.15 -23.1 0.2 -25.0 5.8 -24.6 12.8 -24.3 17.8 -25.45 16.8 -22.85 12.7 -21.65 23.9 -17.25 28.55 -5.85 L24.7 -9.1 Q30.85 0.5 27.4 10.5 23.9 20.45 23.95 24.05 21.5 21.75 21.65 17.55 19.55 21.35 15.85 24.05 L19.65 13.7 Q17.25 16.55 13.05 18.1 16.1 13.5 17.8 6.65 15.15 0.15 15.65 -2.2 14.55 1.25 12.05 4.5 12.45 -3.6 9.8 -10.6 11.0 -3.35 4.3 7.15 L5.25 -2.1 Q4.5 3.75 1.2 8.8" fill="url(#gradient0)" fill-rule="evenodd" stroke="none"/>
  </g>
  <defs>
    <linearGradient gradientTransform="matrix(0.0, -0.0154, 0.035, 0.0, -0.05, 1.9)" gradientUnits="userSpaceOnUse" id="gradient0" spreadMethod="pad" x1="-819.2" x2="819.2">
      <stop offset="0.18823529411764706" stop-color="#000000" stop-opacity="0.8"/>
      <stop offset="1.0" stop-color="#000000" stop-opacity="0.0"/>
    </linearGradient>
  </defs>
</svg>
