<?xml version="1.0" encoding="UTF-8" standalone="no"?>
<svg xmlns:xlink="http://www.w3.org/1999/xlink" height="46.05px" width="53.7px" xmlns="http://www.w3.org/2000/svg">
  <g transform="matrix(1.0, 0.0, 0.0, 1.0, 26.85, 23.05)">
    <path d="M0.1 -23.05 Q12.85 -22.5 18.7 -15.75 27.65 -5.4 26.75 10.8 24.1 17.9 14.2 23.0 15.7 18.25 16.3 13.9 17.15 3.05 13.0 -6.55 6.25 -8.45 0.0 -11.75 -6.25 -8.45 -13.0 -6.55 -17.15 3.05 -16.3 13.9 -15.7 18.25 -14.2 23.0 -24.1 17.9 -26.75 10.8 -27.65 -5.4 -18.7 -15.75 -12.85 -22.5 -0.1 -23.05 L0.0 -23.05 0.1 -23.05" fill="url(#gradient0)" fill-rule="evenodd" stroke="none"/>
  </g>
  <defs>
    <linearGradient gradientTransform="matrix(0.0, -0.0138, 0.0328, 0.0, 0.0, 0.75)" gradientUnits="userSpaceOnUse" id="gradient0" spreadMethod="pad" x1="-819.2" x2="819.2">
      <stop offset="0.18823529411764706" stop-color="#000000" stop-opacity="0.8"/>
      <stop offset="1.0" stop-color="#000000" stop-opacity="0.0"/>
    </linearGradient>
  </defs>
</svg>
