<?xml version="1.0" encoding="UTF-8" standalone="no"?>
<svg xmlns:xlink="http://www.w3.org/1999/xlink" height="34.6px" width="34.2px" xmlns="http://www.w3.org/2000/svg">
  <g transform="matrix(1.0, 0.0, 0.0, 1.0, 17.15, 17.3)">
    <path d="M-13.65 2.3 Q-12.15 3.95 -7.65 4.0 -3.1 4.0 1.8 2.05 7.65 -0.5 9.5 -2.95 11.45 -5.35 11.65 -7.65 8.15 -12.6 3.0 -13.35 L2.6 -13.45 Q-1.75 -13.95 -6.0 -12.35 -11.55 -9.35 -13.15 -3.45 -13.75 -0.65 -13.65 2.3 M-12.5 -11.95 Q-8.85 -15.65 -4.0 -16.85 L-0.3 -17.3 3.7 -16.95 Q8.35 -16.0 12.1 -12.3 L13.0 -11.5 Q15.75 -8.6 15.2 -5.95 14.35 -2.15 10.5 1.35 10.15 1.65 9.9 1.9 L9.85 1.9 9.4 2.3 Q3.9 6.3 -3.7 7.4 -12.2 8.2 -15.45 5.65 L-15.75 5.4 Q-17.25 3.6 -17.15 -1.35 -16.75 -7.5 -12.5 -11.95 M12.3 11.85 Q7.55 17.05 0.4 17.3 -5.25 17.35 -10.05 14.3 -14.25 11.3 -15.7 8.1 L-15.8 7.75 -15.45 7.75 Q-14.2 8.65 -12.05 9.2 -7.55 10.25 -1.35 9.45 L-0.8 9.3 3.4 8.2 Q10.65 5.15 15.15 -0.7 L15.3 -0.9 15.95 -2.35 16.6 -4.1 Q17.3 -1.8 16.85 3.05 16.0 8.15 12.3 11.85" fill="#5f5c90" fill-rule="evenodd" stroke="none"/>
  </g>
</svg>
