<?xml version="1.0" encoding="UTF-8" standalone="no"?>
<svg xmlns:xlink="http://www.w3.org/1999/xlink" height="26.3px" width="26.3px" xmlns="http://www.w3.org/2000/svg">
  <g transform="matrix(1.0, 0.0, 0.0, 1.0, 13.15, 13.15)">
    <path d="M-0.15 -8.15 L1.9 -2.45 7.95 -2.3 3.15 1.4 4.85 7.2 -0.15 3.75 -5.1 7.2 -3.4 1.4 -8.2 -2.3 -2.15 -2.45 -0.15 -8.15" fill="#d3dfff" fill-rule="evenodd" stroke="none"/>
    <path d="M11.9 0.0 Q11.9 4.95 8.4 8.4 4.95 11.9 0.0 11.9 -4.95 11.9 -8.45 8.4 -11.9 4.95 -11.9 0.0 -11.9 -4.95 -8.45 -8.45 -4.95 -11.9 0.0 -11.9 4.95 -11.9 8.4 -8.45 11.9 -4.95 11.9 0.0 Z" fill="none" stroke="#d3dfff" stroke-linecap="round" stroke-linejoin="round" stroke-width="2.5"/>
  </g>
</svg>
