<?xml version="1.0" encoding="UTF-8" standalone="no"?>
<svg xmlns:xlink="http://www.w3.org/1999/xlink" height="58.25px" width="28.5px" xmlns="http://www.w3.org/2000/svg">
  <g transform="matrix(1.0, 0.0, 0.0, 1.0, 15.15, 34.0)">
    <path d="M-13.1 -15.45 Q-13.95 -18.0 -14.15 -20.05 -14.25 -26.15 -10.95 -29.55 -5.65 -34.45 1.7 -33.25 L5.7 -31.95 Q9.8 -29.85 11.2 -27.0 13.4 -22.75 12.7 -16.95 12.25 -15.9 12.6 -13.3 12.95 -10.7 10.1 -8.55 7.65 -6.65 0.65 -6.8 0.8 -5.95 1.15 -5.75 L1.25 -5.65 1.8 -5.3 1.9 -5.15 3.35 -4.25 5.75 -0.95 6.0 -0.35 7.25 1.7 8.7 3.65 9.55 4.45 9.7 4.6 Q10.85 5.65 10.1 6.65 9.3 7.7 8.3 7.35 7.1 6.95 6.95 6.2 L6.2 4.4 6.0 4.15 4.1 1.2 4.0 1.1 3.65 0.5 Q3.35 -0.7 3.2 -2.05 3.1 -4.2 1.9 -5.15 3.1 -4.2 3.2 -2.05 3.35 -0.7 3.65 0.5 L4.0 1.1 3.85 0.95 3.65 0.55 3.95 1.7 4.6 4.15 4.65 5.2 Q1.35 5.45 -4.45 5.2 1.35 5.45 4.65 5.2 L4.65 5.35 4.7 5.55 Q5.45 8.95 5.45 12.75 L5.45 12.95 5.5 13.8 5.6 18.25 5.7 18.7 Q5.75 19.95 5.9 20.4 L6.05 21.05 2.35 21.15 6.05 21.05 6.15 21.45 6.6 22.65 Q6.85 23.35 5.3 23.25 3.8 23.2 3.15 22.6 L2.35 21.15 2.1 20.35 1.55 18.25 1.2 15.7 1.0 13.1 1.0 12.95 0.85 12.5 0.55 10.0 0.35 7.55 0.3 7.55 -0.75 13.3 -0.85 13.55 -0.95 14.35 -1.85 18.7 -1.95 19.2 -2.05 20.9 -2.1 21.5 -6.05 21.2 -2.1 21.5 -2.05 21.95 -1.85 23.2 Q-1.75 23.85 -3.35 23.7 -4.95 23.65 -5.45 22.95 -5.95 22.4 -6.05 21.2 L-6.1 20.7 -6.1 18.6 -5.95 16.1 -5.55 13.5 -5.45 12.9 -5.35 10.2 -4.45 5.2 -4.2 4.3 -4.15 4.3 -3.85 3.2 Q-2.85 1.05 -3.4 -0.8 L-3.65 -1.7 -2.7 -3.55 Q-2.45 -5.0 -3.1 -5.45 -2.45 -5.0 -2.7 -3.55 L-3.65 -1.7 -4.95 0.8 -5.0 0.85 -5.15 1.05 -6.45 3.7 -6.95 4.8 -7.05 4.95 -7.4 6.2 -7.4 7.05 Q-7.5 7.55 -8.0 7.55 -8.55 7.55 -8.55 6.9 -8.65 7.4 -9.0 7.6 L-9.9 7.95 Q-10.55 7.95 -11.0 7.5 -11.4 7.1 -11.35 6.35 -11.35 5.8 -10.15 4.35 L-9.75 3.85 -7.35 -0.2 -7.2 -0.2 -7.2 -0.3 -6.95 -0.95 -4.8 -4.45 Q-4.2 -5.2 -3.1 -5.45 L-2.7 -5.55 -2.25 -5.8 -2.1 -5.9 Q-1.4 -5.0 0.3 -4.35 L1.25 -5.65 0.3 -4.35 Q-1.4 -5.0 -2.1 -5.9 -1.85 -6.15 -1.85 -6.85 -7.75 -7.65 -9.7 -9.65 L-10.8 -10.9 Q-11.05 -10.5 -12.0 -10.65 -12.95 -10.85 -14.0 -12.25 -15.2 -13.95 -14.15 -15.25 L-13.15 -15.55 -13.1 -15.45 -12.9 -15.35 -12.7 -15.25 -12.25 -14.8 -12.7 -15.25 -12.9 -15.35 -13.1 -15.45 M3.65 0.5 L3.65 0.55 3.65 0.5 M0.65 -6.8 L-1.5 -6.8 -1.85 -6.85 -1.5 -6.8 0.65 -6.8" fill="#b9d1f5" fill-opacity="0.24705882" fill-rule="evenodd" stroke="none"/>
    <path d="M0.65 -6.8 Q7.65 -6.65 10.1 -8.55 12.95 -10.7 12.6 -13.3 12.25 -15.9 12.7 -16.95 13.4 -22.75 11.2 -27.0 9.8 -29.85 5.7 -31.95 L1.7 -33.25 Q-5.65 -34.45 -10.95 -29.55 -14.25 -26.15 -14.15 -20.05 -13.95 -18.0 -13.1 -15.45 L-12.9 -15.35 -12.7 -15.25 -12.25 -14.8 M1.9 -5.15 Q3.1 -4.2 3.2 -2.05 3.35 -0.7 3.65 0.5 L4.0 1.1 4.1 1.2 6.0 4.15 6.2 4.4 6.95 6.2 Q7.1 6.95 8.3 7.35 9.3 7.7 10.1 6.65 10.85 5.65 9.7 4.6 L9.55 4.45 8.7 3.65 7.25 1.7 6.0 -0.35 5.75 -0.95 3.35 -4.25 1.9 -5.15 1.8 -5.3 1.25 -5.65 0.3 -4.35 Q-1.4 -5.0 -2.1 -5.9 L-2.25 -5.8 -2.7 -5.55 -3.1 -5.45 Q-4.2 -5.2 -4.8 -4.45 L-6.95 -0.95 -7.2 -0.3 -7.2 -0.2 -7.35 -0.2 -9.75 3.85 -10.15 4.35 Q-11.35 5.8 -11.35 6.35 -11.4 7.1 -11.0 7.5 -10.55 7.95 -9.9 7.95 L-9.0 7.6 Q-8.65 7.4 -8.55 6.9 -8.55 7.55 -8.0 7.55 -7.5 7.55 -7.4 7.05 L-7.4 6.2 -7.05 4.95 -6.95 4.8 -6.45 3.7 -5.15 1.05 -5.0 0.85 -4.95 0.8 -3.65 -1.7 -3.4 -0.8 Q-2.85 1.05 -3.85 3.2 L-4.15 4.3 M-4.2 4.3 L-4.45 5.2 -5.35 10.2 -5.45 12.9 -5.55 13.5 -5.95 16.1 -6.1 18.6 -6.1 20.7 -6.05 21.2 Q-5.95 22.4 -5.45 22.95 -4.95 23.65 -3.35 23.7 -1.75 23.85 -1.85 23.2 L-2.05 21.95 -2.1 21.5 -2.05 20.9 -1.95 19.2 -1.85 18.7 -0.95 14.35 -0.85 13.55 -0.75 13.3 0.3 7.55 0.35 7.55 0.55 10.0 0.85 12.5 1.0 12.95 1.0 13.1 1.2 15.7 1.55 18.25 2.1 20.35 2.35 21.15 3.15 22.6 Q3.8 23.2 5.3 23.25 6.85 23.35 6.6 22.65 L6.15 21.45 6.05 21.05 5.9 20.4 Q5.75 19.95 5.7 18.7 L5.6 18.25 5.5 13.8 5.45 12.95 5.45 12.75 Q5.45 8.95 4.7 5.55 M4.65 5.2 L4.6 4.15 3.95 1.7 3.65 0.55 3.65 0.5 M0.65 -6.8 Q0.8 -5.95 1.15 -5.75 L1.25 -5.65 M4.0 1.1 L3.85 0.95 3.65 0.55 M4.65 5.35 L4.65 5.2 M-13.1 -15.45 L-13.15 -15.55 -14.15 -15.25 Q-15.2 -13.95 -14.0 -12.25 -12.95 -10.85 -12.0 -10.65 -11.05 -10.5 -10.8 -10.9 L-9.7 -9.65 Q-7.75 -7.65 -1.85 -6.85 L-1.5 -6.8 0.65 -6.8 M-2.1 -5.9 Q-1.85 -6.15 -1.85 -6.85" fill="none" stroke="#b9d1f5" stroke-linecap="round" stroke-linejoin="round" stroke-width="1.0"/>
    <path d="M-3.1 -5.45 Q-2.45 -5.0 -2.7 -3.55 L-3.65 -1.7 M-4.45 5.2 Q1.35 5.45 4.65 5.2 M2.35 21.15 L6.05 21.05 M-6.05 21.2 L-2.1 21.5" fill="none" stroke="#b9d1f5" stroke-linecap="round" stroke-linejoin="round" stroke-opacity="0.4" stroke-width="1.0"/>
  </g>
</svg>
