<?xml version="1.0" encoding="UTF-8" standalone="no"?>
<svg xmlns:xlink="http://www.w3.org/1999/xlink" height="103.35px" width="125.6px" xmlns="http://www.w3.org/2000/svg">
  <g transform="matrix(1.0, 0.0, 0.0, 1.0, 63.6, 63.85)">
    <path d="M-63.0 -40.95 L-63.0 -63.35 61.45 -63.35 61.45 -40.95 -0.45 -40.95 -63.0 -40.95" fill="url(#gradient0)" fill-rule="evenodd" stroke="none"/>
    <path d="M61.45 -40.95 L61.45 39.0 -0.45 39.0 -0.45 -40.95 61.45 -40.95" fill="url(#gradient1)" fill-rule="evenodd" stroke="none"/>
    <path d="M-0.45 39.0 L-63.0 39.0 -63.0 -40.95 -0.45 -40.95 -0.45 39.0" fill="url(#gradient2)" fill-rule="evenodd" stroke="none"/>
    <path d="M-0.45 39.0 L-63.0 39.0 -63.0 -40.95 -0.45 -40.95 -0.45 39.0 Z" fill="none" stroke="#9dc0d0" stroke-linecap="round" stroke-linejoin="round" stroke-opacity="0.4" stroke-width="1.0"/>
    <path d="M22.5 -4.2 Q23.45 -3.3 23.45 -2.0 23.45 -0.7 22.5 0.25 L22.5 0.2 Q21.65 1.05 20.35 1.05 19.15 1.05 18.2 0.25 L18.2 0.2 Q17.3 -0.7 17.3 -2.0 17.3 -3.3 18.2 -4.2 19.15 -4.95 20.35 -4.95 21.65 -4.95 22.5 -4.2 M38.95 -2.9 L39.45 -2.1 39.45 -2.0 39.45 -1.3 39.45 -1.2 39.05 -0.5 39.0 -0.4 26.5 11.0 25.25 11.45 Q24.45 11.45 24.1 11.0 L24.05 10.95 Q23.65 10.4 23.65 9.75 23.65 9.0 24.25 8.5 L35.35 -1.7 24.15 -12.65 Q23.65 -13.1 23.65 -13.85 23.65 -14.5 24.1 -15.05 24.55 -15.5 25.35 -15.5 26.0 -15.5 26.5 -15.05 L38.95 -2.9" fill="url(#gradient3)" fill-rule="evenodd" stroke="none"/>
    <path d="M-28.3 -4.2 Q-27.45 -4.95 -26.15 -4.95 -24.95 -4.95 -24.0 -4.2 -23.1 -3.3 -23.1 -2.0 -23.1 -0.7 -24.0 0.2 L-24.0 0.25 Q-24.95 1.05 -26.15 1.05 -27.45 1.05 -28.3 0.2 L-28.3 0.25 Q-29.25 -0.7 -29.25 -2.0 -29.25 -3.3 -28.3 -4.2 M-44.75 -2.9 L-32.3 -15.05 Q-31.85 -15.5 -31.2 -15.5 -30.35 -15.5 -29.9 -15.05 -29.45 -14.5 -29.45 -13.85 -29.45 -13.1 -30.0 -12.65 L-41.2 -1.7 -30.05 8.5 Q-29.45 9.0 -29.45 9.75 -29.45 10.4 -29.85 10.95 L-29.9 11.0 Q-30.3 11.45 -31.05 11.45 L-32.3 11.0 -44.85 -0.4 -44.9 -0.5 -45.25 -1.2 -45.25 -1.3 -45.25 -2.0 -45.25 -2.1 -44.75 -2.9" fill="url(#gradient4)" fill-rule="evenodd" stroke="none"/>
    <path d="M61.2 -40.95 L61.5 -40.95 M61.2 -40.95 L-63.1 -40.95" fill="none" stroke="#8ebeff" stroke-linecap="round" stroke-linejoin="round" stroke-opacity="0.29803923" stroke-width="1.0"/>
    <path d="M61.2 -40.95 L61.2 39.0 -63.1 39.0 -63.1 -40.95 -63.1 -63.35 61.2 -63.35 61.2 -40.95 Z" fill="none" stroke="#9dc0d0" stroke-linecap="round" stroke-linejoin="round" stroke-opacity="0.4" stroke-width="1.0"/>
  </g>
  <defs>
    <linearGradient gradientTransform="matrix(0.0, 0.0137, -0.076, 0.0, -0.75, -52.15)" gradientUnits="userSpaceOnUse" id="gradient0" spreadMethod="pad" x1="-819.2" x2="819.2">
      <stop offset="0.00392156862745098" stop-color="#1b1a33" stop-opacity="0.92941177"/>
      <stop offset="1.0" stop-color="#1b263f" stop-opacity="0.92941177"/>
    </linearGradient>
    <linearGradient gradientTransform="matrix(0.0, -0.0455, 0.076, 0.0, -0.8, -0.3)" gradientUnits="userSpaceOnUse" id="gradient1" spreadMethod="pad" x1="-819.2" x2="819.2">
      <stop offset="0.0" stop-color="#121a27" stop-opacity="0.92941177"/>
      <stop offset="1.0" stop-color="#121120" stop-opacity="0.92941177"/>
    </linearGradient>
    <linearGradient gradientTransform="matrix(0.0, -0.0455, 0.076, 0.0, -0.8, -0.3)" gradientUnits="userSpaceOnUse" id="gradient2" spreadMethod="pad" x1="-819.2" x2="819.2">
      <stop offset="0.0" stop-color="#1c4174" stop-opacity="0.92941177"/>
      <stop offset="1.0" stop-color="#171a5d" stop-opacity="0.92941177"/>
    </linearGradient>
    <linearGradient gradientTransform="matrix(0.0, -0.0164, 0.0517, 0.0, -2.95, -2.0)" gradientUnits="userSpaceOnUse" id="gradient3" spreadMethod="pad" x1="-819.2" x2="819.2">
      <stop offset="0.0" stop-color="#799bc9" stop-opacity="0.827451"/>
      <stop offset="0.9921568627450981" stop-color="#646ea6" stop-opacity="0.81960785"/>
    </linearGradient>
    <linearGradient gradientTransform="matrix(0.0, -0.0164, 0.0517, 0.0, -2.95, -2.0)" gradientUnits="userSpaceOnUse" id="gradient4" spreadMethod="pad" x1="-819.2" x2="819.2">
      <stop offset="0.0" stop-color="#84c4ff" stop-opacity="0.827451"/>
      <stop offset="0.9921568627450981" stop-color="#8494f5" stop-opacity="0.81960785"/>
    </linearGradient>
  </defs>
</svg>
