<?xml version="1.0" encoding="UTF-8" standalone="no"?>
<svg xmlns:xlink="http://www.w3.org/1999/xlink" height="13.6px" width="132.25px" xmlns="http://www.w3.org/2000/svg">
  <g transform="matrix(1.0, 0.0, 0.0, 1.0, 0.0, 6.75)">
    <path d="M6.6 -0.3 L13.2 -0.65 13.2 6.85 13.2 -0.65 19.85 -1.05 26.45 -1.4 33.05 -1.75 39.65 -2.1 46.3 -2.45 52.9 -2.8 59.5 -3.15 66.1 -3.5 72.75 -3.85 79.35 -4.2 85.95 -4.55 92.55 -4.9 99.2 -5.25 105.8 -5.6 112.4 -5.95 119.0 -6.35 125.65 -6.7 125.65 -6.75 132.25 -6.75 132.25 6.85 125.65 6.85 119.0 6.85 112.4 6.85 105.8 6.85 99.2 6.85 92.55 6.85 85.95 6.85 79.35 6.85 72.75 6.85 66.1 6.85 59.5 6.85 52.9 6.85 46.3 6.85 39.65 6.85 33.05 6.85 26.45 6.85 19.85 6.85 13.2 6.85 6.6 6.85 6.6 -0.3 M125.65 6.85 L125.65 -6.7 125.65 6.85 M119.0 -6.35 L119.0 6.85 119.0 -6.35 M79.35 -4.2 L79.35 6.85 79.35 -4.2 M85.95 6.85 L85.95 -4.55 85.95 6.85 M92.55 -4.9 L92.55 6.85 92.55 -4.9 M112.4 6.85 L112.4 -5.95 112.4 6.85 M52.9 -2.8 L52.9 6.85 52.9 -2.8 M46.3 6.85 L46.3 -2.45 46.3 6.85 M39.65 -2.1 L39.65 6.85 39.65 -2.1 M33.05 6.85 L33.05 -1.75 33.05 6.85 M26.45 -1.4 L26.45 6.85 26.45 -1.4 M19.85 6.85 L19.85 -1.05 19.85 6.85 M99.2 6.85 L99.2 -5.25 99.2 6.85 M105.8 -5.6 L105.8 6.85 105.8 -5.6 M59.5 6.85 L59.5 -3.15 59.5 6.85 M72.75 6.85 L72.75 -3.85 72.75 6.85 M66.1 -3.5 L66.1 6.85 66.1 -3.5" fill="#292a43" fill-rule="evenodd" stroke="none"/>
    <path d="M6.6 -0.3 L6.6 6.85 0.0 6.85 0.0 0.05 6.6 -0.3" fill="#6a76a8" fill-rule="evenodd" stroke="none"/>
    <path d="M13.2 -0.65 L6.6 -0.3 6.6 6.85 13.2 6.85 13.2 -0.65 19.85 -1.05 26.45 -1.4 33.05 -1.75 39.65 -2.1 46.3 -2.45 52.9 -2.8 59.5 -3.15 66.1 -3.5 72.75 -3.85 79.35 -4.2 85.95 -4.55 92.55 -4.9 99.2 -5.25 105.8 -5.6 112.4 -5.95 119.0 -6.35 125.65 -6.7 125.65 -6.75 132.25 -6.75 132.25 6.85 125.65 6.85 119.0 6.85 112.4 6.85 105.8 6.85 99.2 6.85 92.55 6.85 85.95 6.85 79.35 6.85 72.75 6.85 66.1 6.85 59.5 6.85 52.9 6.85 46.3 6.85 39.65 6.85 33.05 6.85 26.45 6.85 19.85 6.85 13.2 6.85 M6.6 6.85 L0.0 6.85 0.0 0.05 6.6 -0.3 M66.1 6.85 L66.1 -3.5 M72.75 -3.85 L72.75 6.85 M59.5 -3.15 L59.5 6.85 M105.8 6.85 L105.8 -5.6 M99.2 -5.25 L99.2 6.85 M19.85 -1.05 L19.85 6.85 M26.45 6.85 L26.45 -1.4 M33.05 -1.75 L33.05 6.85 M39.65 6.85 L39.65 -2.1 M46.3 -2.45 L46.3 6.85 M52.9 6.85 L52.9 -2.8 M112.4 -5.95 L112.4 6.85 M92.55 6.85 L92.55 -4.9 M85.95 -4.55 L85.95 6.85 M79.35 6.85 L79.35 -4.2 M119.0 6.85 L119.0 -6.35 M125.65 -6.7 L125.65 6.85" fill="none" stroke="#000000" stroke-linecap="round" stroke-linejoin="round" stroke-opacity="0.54901963" stroke-width="0.05"/>
  </g>
</svg>
