<?xml version="1.0" encoding="UTF-8" standalone="no"?>
<svg xmlns:xlink="http://www.w3.org/1999/xlink" height="58.3px" width="124.8px" xmlns="http://www.w3.org/2000/svg">
  <g transform="matrix(1.0, 0.0, 0.0, 1.0, 62.4, 29.15)">
    <path d="M-61.9 -11.15 L-61.9 -28.65 61.9 -28.65 61.9 -11.15 -0.15 -11.15 -61.9 -11.15" fill="url(#gradient0)" fill-rule="evenodd" stroke="none"/>
    <path d="M-61.9 -11.15 L-0.15 -11.15 -0.15 28.65 -61.9 28.65 -61.9 -11.15" fill="url(#gradient1)" fill-rule="evenodd" stroke="none"/>
    <path d="M-0.15 -11.15 L61.9 -11.15 61.9 28.65 -0.15 28.65 -0.15 -11.15" fill="url(#gradient2)" fill-rule="evenodd" stroke="none"/>
    <path d="M61.9 -11.15 L61.9 -28.65 -61.9 -28.65 -61.9 -11.15 -0.15 -11.15 61.9 -11.15 61.9 28.65 -0.15 28.65 -61.9 28.65 -61.9 -11.15 M-0.15 28.65 L-0.15 -11.15" fill="none" stroke="#9dc0d0" stroke-linecap="round" stroke-linejoin="round" stroke-opacity="0.4" stroke-width="1.0"/>
  </g>
  <defs>
    <linearGradient gradientTransform="matrix(0.0, 0.0096, -0.0755, 0.0, 0.0, -20.0)" gradientUnits="userSpaceOnUse" id="gradient0" spreadMethod="pad" x1="-819.2" x2="819.2">
      <stop offset="0.00392156862745098" stop-color="#1b1a33" stop-opacity="0.92941177"/>
      <stop offset="1.0" stop-color="#1b263f" stop-opacity="0.92941177"/>
    </linearGradient>
    <linearGradient gradientTransform="matrix(0.0, -0.03, 0.0755, 0.0, 0.0, 15.5)" gradientUnits="userSpaceOnUse" id="gradient1" spreadMethod="pad" x1="-819.2" x2="819.2">
      <stop offset="0.0" stop-color="#121a27" stop-opacity="0.92941177"/>
      <stop offset="1.0" stop-color="#121120" stop-opacity="0.92941177"/>
    </linearGradient>
    <linearGradient gradientTransform="matrix(0.0, -0.03, 0.0755, 0.0, 0.0, 15.5)" gradientUnits="userSpaceOnUse" id="gradient2" spreadMethod="pad" x1="-819.2" x2="819.2">
      <stop offset="0.0" stop-color="#1c4174" stop-opacity="0.92941177"/>
      <stop offset="1.0" stop-color="#171a5d" stop-opacity="0.92941177"/>
    </linearGradient>
  </defs>
</svg>
