<?xml version="1.0" encoding="UTF-8" standalone="no"?>
<svg xmlns:xlink="http://www.w3.org/1999/xlink" height="206.35px" width="124.45px" xmlns="http://www.w3.org/2000/svg">
  <g transform="matrix(1.0, 0.0, 0.0, 1.0, -27.3, 75.25)">
    <path d="M27.8 88.0 L27.8 -52.15 151.2 -52.15 151.2 88.0 89.5 88.0 27.8 88.0" fill="#1a1a28" fill-rule="evenodd" stroke="none"/>
    <path d="M151.2 88.0 L151.2 130.6 89.5 130.6 89.5 88.0 151.2 88.0" fill="url(#gradient0)" fill-rule="evenodd" stroke="none"/>
    <path d="M89.5 130.6 L27.8 130.6 27.8 88.0 89.5 88.0 89.5 130.6" fill="url(#gradient1)" fill-rule="evenodd" stroke="none"/>
    <path d="M27.8 88.0 L27.8 -52.15 151.2 -52.15 151.2 88.0 151.2 130.6 89.5 130.6 27.8 130.6 27.8 88.0 89.5 88.0 151.2 88.0 M89.5 130.6 L89.5 88.0" fill="none" stroke="#8ebeff" stroke-linecap="round" stroke-linejoin="round" stroke-opacity="0.29803923" stroke-width="1.0"/>
    <path d="M151.25 -74.75 L151.25 -52.15 27.8 -52.15 27.8 -74.75 151.25 -74.75" fill="url(#gradient2)" fill-rule="evenodd" stroke="none"/>
    <path d="M151.25 -74.75 L151.25 -52.15 27.8 -52.15 27.8 -74.75 151.25 -74.75 Z" fill="none" stroke="#8ebeff" stroke-linecap="round" stroke-linejoin="round" stroke-opacity="0.29803923" stroke-width="1.0"/>
    <path d="M130.9 108.2 L131.4 109.0 131.4 109.1 131.4 109.8 131.4 109.9 131.0 110.6 130.95 110.7 118.45 122.1 Q117.85 122.55 117.2 122.55 116.4 122.55 116.05 122.1 L116.0 122.05 Q115.6 121.5 115.6 120.85 115.6 120.1 116.2 119.6 L127.3 109.4 116.1 98.45 Q115.6 98.0 115.6 97.25 115.6 96.6 116.05 96.05 116.5 95.6 117.3 95.6 117.95 95.6 118.45 96.05 L130.9 108.2 M114.45 106.9 Q115.4 107.8 115.4 109.1 115.4 110.4 114.45 111.35 L114.45 111.3 Q113.6 112.15 112.3 112.15 111.1 112.15 110.15 111.35 L110.15 111.3 Q109.25 110.4 109.25 109.1 109.25 107.8 110.15 106.9 111.1 106.15 112.3 106.15 113.6 106.15 114.45 106.9" fill="url(#gradient3)" fill-rule="evenodd" stroke="none"/>
    <path d="M63.85 106.9 Q64.7 106.15 66.0 106.15 67.2 106.15 68.15 106.9 69.05 107.8 69.05 109.1 69.05 110.4 68.15 111.3 L68.15 111.35 Q67.2 112.15 66.0 112.15 64.7 112.15 63.85 111.3 L63.85 111.35 Q62.9 110.4 62.9 109.1 62.9 107.8 63.85 106.9 M47.4 108.2 L59.85 96.05 Q60.3 95.6 60.95 95.6 61.8 95.6 62.25 96.05 62.7 96.6 62.7 97.25 62.7 98.0 62.15 98.45 L50.95 109.4 62.1 119.6 Q62.7 120.1 62.7 120.85 62.7 121.5 62.3 122.05 L62.25 122.1 Q61.85 122.55 61.1 122.55 L59.85 122.1 47.3 110.7 47.25 110.6 46.9 109.9 46.9 109.8 46.9 109.1 46.9 109.0 Q47.1 108.45 47.4 108.2" fill="url(#gradient4)" fill-rule="evenodd" stroke="none"/>
  </g>
  <defs>
    <linearGradient gradientTransform="matrix(0.0, -0.026, 0.0377, 0.0, 120.35, 109.3)" gradientUnits="userSpaceOnUse" id="gradient0" spreadMethod="pad" x1="-819.2" x2="819.2">
      <stop offset="0.0" stop-color="#121a27" stop-opacity="0.92941177"/>
      <stop offset="1.0" stop-color="#121120" stop-opacity="0.92941177"/>
    </linearGradient>
    <linearGradient gradientTransform="matrix(0.0, -0.026, 0.0377, 0.0, 58.65, 109.3)" gradientUnits="userSpaceOnUse" id="gradient1" spreadMethod="pad" x1="-819.2" x2="819.2">
      <stop offset="0.0" stop-color="#1c4174" stop-opacity="0.92941177"/>
      <stop offset="1.0" stop-color="#171a5d" stop-opacity="0.92941177"/>
    </linearGradient>
    <linearGradient gradientTransform="matrix(0.0, 0.0123, -0.0753, 0.0, 89.5, -62.25)" gradientUnits="userSpaceOnUse" id="gradient2" spreadMethod="pad" x1="-819.2" x2="819.2">
      <stop offset="0.00392156862745098" stop-color="#1b1a33" stop-opacity="0.92941177"/>
      <stop offset="1.0" stop-color="#1b263f" stop-opacity="0.92941177"/>
    </linearGradient>
    <linearGradient gradientTransform="matrix(0.0, -0.0138, 0.1011, 0.0, 48.55, 109.2)" gradientUnits="userSpaceOnUse" id="gradient3" spreadMethod="pad" x1="-819.2" x2="819.2">
      <stop offset="0.0" stop-color="#799bc9" stop-opacity="0.827451"/>
      <stop offset="0.9921568627450981" stop-color="#646ea6" stop-opacity="0.81960785"/>
    </linearGradient>
    <linearGradient gradientTransform="matrix(0.0, -0.0138, 0.1011, 0.0, 129.7, 109.2)" gradientUnits="userSpaceOnUse" id="gradient4" spreadMethod="pad" x1="-819.2" x2="819.2">
      <stop offset="0.0" stop-color="#84c4ff" stop-opacity="0.827451"/>
      <stop offset="0.9921568627450981" stop-color="#8494f5" stop-opacity="0.81960785"/>
    </linearGradient>
  </defs>
</svg>
