<?xml version="1.0" encoding="UTF-8" standalone="no"?>
<svg xmlns:xlink="http://www.w3.org/1999/xlink" height="72.4px" width="590.25px" xmlns="http://www.w3.org/2000/svg">
  <g transform="matrix(1.0, 0.0, 0.0, 1.0, 295.15, 36.2)">
    <path d="M-288.8 -35.7 L288.7 -35.7 Q294.6 -35.7 294.6 -29.8 L294.6 29.85 Q294.6 35.7 288.7 35.7 L-288.8 35.7 Q-294.65 35.7 -294.65 29.85 L-294.65 -29.8 Q-294.65 -35.7 -288.8 -35.7" fill="url(#gradient0)" fill-rule="evenodd" stroke="none"/>
    <path d="M-288.8 -35.7 L288.7 -35.7 Q294.6 -35.7 294.6 -29.8 L294.6 29.85 Q294.6 35.7 288.7 35.7 L-288.8 35.7 Q-294.65 35.7 -294.65 29.85 L-294.65 -29.8 Q-294.65 -35.7 -288.8 -35.7 Z" fill="none" stroke="#9facbf" stroke-linecap="round" stroke-linejoin="round" stroke-opacity="0.54901963" stroke-width="1.0"/>
  </g>
  <defs>
    <linearGradient gradientTransform="matrix(0.0, -0.0425, 0.3596, 0.0, -0.05, -0.55)" gradientUnits="userSpaceOnUse" id="gradient0" spreadMethod="pad" x1="-819.2" x2="819.2">
      <stop offset="0.0" stop-color="#dce4ec" stop-opacity="0.8980392"/>
      <stop offset="1.0" stop-color="#cac7f7" stop-opacity="0.8980392"/>
    </linearGradient>
  </defs>
</svg>
