<?xml version="1.0" encoding="UTF-8" standalone="no"?>
<svg xmlns:xlink="http://www.w3.org/1999/xlink" height="18.1px" width="84.55px" xmlns="http://www.w3.org/2000/svg">
  <g transform="matrix(1.0, 0.0, 0.0, 1.0, 42.75, -1.8)">
    <path d="M30.1 2.25 L30.75 1.8 30.85 1.8 31.4 1.8 31.5 1.8 32.05 2.1 32.15 2.15 41.45 12.4 41.8 13.4 Q41.8 14.0 41.45 14.35 L41.4 14.4 40.45 14.7 Q39.8 14.7 39.4 14.2 L31.1 5.1 22.15 14.25 Q21.8 14.7 21.2 14.7 L20.2 14.35 Q19.85 13.95 19.85 13.25 19.85 12.75 20.2 12.4 L30.1 2.25 M29.05 15.65 Q29.8 14.85 30.85 14.85 31.9 14.85 32.7 15.65 L32.65 15.65 Q33.35 16.35 33.35 17.4 33.35 18.35 32.7 19.15 L32.65 19.15 Q31.9 19.9 30.85 19.9 29.8 19.9 29.05 19.15 28.45 18.35 28.45 17.4 28.45 16.35 29.05 15.65 M-32.5 19.45 L-42.4 9.3 Q-42.75 8.95 -42.75 8.45 -42.75 7.75 -42.4 7.35 -41.95 7.0 -41.4 7.0 -40.8 7.0 -40.45 7.45 L-31.5 16.6 -23.2 7.5 Q-22.8 7.0 -22.15 7.0 -21.65 7.0 -21.2 7.3 L-21.15 7.35 Q-20.8 7.7 -20.8 8.3 -20.8 8.85 -21.15 9.3 L-30.45 19.55 -30.55 19.6 -31.1 19.9 -31.2 19.9 -31.75 19.9 -31.85 19.9 -32.5 19.45 M-33.55 6.05 Q-34.15 5.35 -34.15 4.3 -34.15 3.35 -33.55 2.55 -32.8 1.8 -31.75 1.8 -30.7 1.8 -29.95 2.55 L-29.9 2.55 Q-29.25 3.35 -29.25 4.3 -29.25 5.35 -29.95 6.05 L-29.9 6.05 Q-30.7 6.85 -31.75 6.85 -32.8 6.85 -33.55 6.05" fill="#7894c4" fill-rule="evenodd" stroke="none"/>
  </g>
</svg>
