<?xml version="1.0" encoding="UTF-8" standalone="no"?>
<svg xmlns:xlink="http://www.w3.org/1999/xlink" height="71.25px" width="104.9px" xmlns="http://www.w3.org/2000/svg">
  <g transform="matrix(1.0, 0.0, 0.0, 1.0, 52.1, 42.15)">
    <path d="M-49.25 26.9 L49.9 26.9 49.9 -40.05 -49.25 -40.05 -49.25 26.9 -49.25 -40.05 49.9 -40.05 49.9 26.9 -49.25 26.9 M-49.7 27.25 L-49.7 -40.35 50.45 -40.35 50.45 27.25 -49.7 27.25" fill="url(#gradient0)" fill-rule="evenodd" stroke="none"/>
    <path d="M-51.6 28.6 L-51.6 -41.65 52.3 -41.65 52.3 28.6 -51.6 28.6 M-49.7 27.25 L50.45 27.25 50.45 -40.35 -49.7 -40.35 -49.7 27.25" fill="url(#gradient1)" fill-rule="evenodd" stroke="none"/>
    <path d="M52.3 -41.65 L-51.6 -41.65" fill="none" stroke="#8ebeff" stroke-linecap="round" stroke-linejoin="round" stroke-opacity="0.29803923" stroke-width="1.0"/>
    <path d="M-49.25 26.9 L-49.25 -40.05 49.9 -40.05 49.9 26.9 -49.25 26.9" fill="none" stroke="#1b2754" stroke-linecap="round" stroke-linejoin="round" stroke-opacity="0.29803923" stroke-width="1.0"/>
    <path d="M-51.6 28.6 L52.3 28.6" fill="none" stroke="#9dc0d0" stroke-linecap="round" stroke-linejoin="round" stroke-opacity="0.4" stroke-width="1.0"/>
  </g>
  <defs>
    <linearGradient gradientTransform="matrix(0.0, -0.0392, 0.0611, 0.0, 0.25, -5.5)" gradientUnits="userSpaceOnUse" id="gradient0" spreadMethod="pad" x1="-819.2" x2="819.2">
      <stop offset="0.00784313725490196" stop-color="#4f6a98" stop-opacity="0.92941177"/>
      <stop offset="0.9921568627450981" stop-color="#212a4d" stop-opacity="0.92941177"/>
    </linearGradient>
    <linearGradient gradientTransform="matrix(0.0, -0.0421, 0.0634, 0.0, 0.25, -6.45)" gradientUnits="userSpaceOnUse" id="gradient1" spreadMethod="pad" x1="-819.2" x2="819.2">
      <stop offset="0.0" stop-color="#77a3c9" stop-opacity="0.92941177"/>
      <stop offset="0.9725490196078431" stop-color="#4f52a6" stop-opacity="0.92941177"/>
    </linearGradient>
  </defs>
</svg>
