<?xml version="1.0" encoding="UTF-8" standalone="no"?>
<svg xmlns:xlink="http://www.w3.org/1999/xlink" height="17.55px" width="25.2px" xmlns="http://www.w3.org/2000/svg">
  <g transform="matrix(1.0, 0.0, 0.0, 1.0, 45.45, -3.75)">
    <path d="M-22.25 3.75 Q-18.35 6.45 -22.5 7.3 -23.15 7.45 -23.5 6.65 -24.6 4.4 -22.25 3.75 M-38.1 4.85 Q-32.3 3.85 -28.1 7.4 -27.0 8.35 -25.4 8.85 -19.4 10.7 -23.9 15.1 L-25.55 16.95 Q-29.2 21.75 -35.6 21.0 -37.0 20.85 -37.5 19.45 -39.3 14.6 -41.9 10.5 -42.85 9.05 -41.85 7.6 -40.35 5.55 -38.1 4.85 M-22.5 18.5 Q-17.65 20.25 -23.2 21.2 -26.2 21.7 -24.3 19.45 -23.6 18.6 -22.5 18.5 M-43.55 13.1 Q-38.3 16.0 -43.6 17.1 -44.6 17.3 -45.05 16.35 -46.3 13.9 -43.55 13.1" fill="#b2b4db" fill-rule="evenodd" stroke="none"/>
  </g>
</svg>
