<?xml version="1.0" encoding="UTF-8" standalone="no"?>
<svg xmlns:xlink="http://www.w3.org/1999/xlink" height="81.45px" width="393.15px" xmlns="http://www.w3.org/2000/svg">
  <g transform="matrix(1.0, 0.0, 0.0, 1.0, 861.9, -190.3)">
    <path d="M-853.45 190.8 L-477.2 190.8 Q-469.25 190.8 -469.25 198.95 L-469.25 263.1 Q-469.25 271.25 -477.2 271.25 L-853.45 271.25 Q-861.4 271.25 -861.4 263.1 L-861.4 198.95 Q-861.4 190.8 -853.45 190.8" fill="#c0c2ec" fill-rule="evenodd" stroke="none"/>
    <path d="M-853.45 190.8 L-477.2 190.8 Q-469.25 190.8 -469.25 198.95 L-469.25 263.1 Q-469.25 271.25 -477.2 271.25 L-853.45 271.25 Q-861.4 271.25 -861.4 263.1 L-861.4 198.95 Q-861.4 190.8 -853.45 190.8 Z" fill="none" stroke="#000000" stroke-linecap="round" stroke-linejoin="round" stroke-width="1.0"/>
  </g>
</svg>
