<?xml version="1.0" encoding="UTF-8" standalone="no"?>
<svg xmlns:xlink="http://www.w3.org/1999/xlink" height="76.45px" width="133.65px" xmlns="http://www.w3.org/2000/svg">
  <g transform="matrix(1.0, 0.0, 0.0, 1.0, 256.05, 113.25)">
    <path d="M-246.1 -112.25 L-132.35 -112.25 Q-123.4 -112.25 -123.4 -103.3 L-123.4 -46.75 Q-123.4 -37.8 -132.35 -37.8 L-246.1 -37.8 Q-255.05 -37.8 -255.05 -46.75 L-255.05 -103.3 Q-255.05 -112.25 -246.1 -112.25" fill="#1d1f38" fill-rule="evenodd" stroke="none"/>
    <path d="M-246.1 -112.25 L-132.35 -112.25 Q-123.4 -112.25 -123.4 -103.3 L-123.4 -46.75 Q-123.4 -37.8 -132.35 -37.8 L-246.1 -37.8 Q-255.05 -37.8 -255.05 -46.75 L-255.05 -103.3 Q-255.05 -112.25 -246.1 -112.25 Z" fill="none" stroke="#94b1d2" stroke-linecap="round" stroke-linejoin="round" stroke-opacity="0.5882353" stroke-width="2.0"/>
  </g>
</svg>
