<?xml version="1.0" encoding="UTF-8" standalone="no"?>
<svg xmlns:xlink="http://www.w3.org/1999/xlink" height="376.5px" width="452.2px" xmlns="http://www.w3.org/2000/svg">
  <g transform="matrix(1.0, 0.0, 0.0, 1.0, 205.3, 169.6)">
    <path d="M244.9 -96.65 L244.9 194.2 Q244.9 204.9 234.2 204.9 L-192.6 204.9 Q-203.3 204.9 -203.3 194.2 L-203.3 -96.65 244.9 -96.65" fill="#131c3f" fill-rule="evenodd" stroke="none"/>
    <path d="M-203.3 -96.65 L-203.3 -156.9 Q-203.3 -167.6 -192.6 -167.6 L234.2 -167.6 Q244.9 -167.6 244.9 -156.9 L244.9 -96.65 -203.3 -96.65" fill="#060a17" fill-rule="evenodd" stroke="none"/>
    <path d="M-203.3 -96.65 L-203.3 -156.9 Q-203.3 -167.6 -192.6 -167.6 L234.2 -167.6 Q244.9 -167.6 244.9 -156.9 L244.9 -96.65 244.9 194.2 Q244.9 204.9 234.2 204.9 L-192.6 204.9 Q-203.3 204.9 -203.3 194.2 L-203.3 -96.65 Z" fill="none" stroke="#000000" stroke-linecap="round" stroke-linejoin="round" stroke-width="4.0"/>
  </g>
</svg>
