<?xml version="1.0" encoding="UTF-8" standalone="no"?>
<svg xmlns:xlink="http://www.w3.org/1999/xlink" height="548.85px" width="1028.55px" xmlns="http://www.w3.org/2000/svg">
  <g transform="matrix(1.0, 0.0, 0.0, 1.0, 1249.05, 419.8)">
    <path d="M-1249.05 -419.8 L-220.5 -419.8 -220.5 129.05 -1249.05 129.05 -1249.05 -419.8" fill="url(#gradient0)" fill-rule="evenodd" stroke="none"/>
    <path d="M-1090.9 -377.8 L-1090.65 -378.2 Q-1087.5 -382.85 -1079.85 -382.85 L-551.3 -382.85 -551.3 89.85 -1078.8 89.85 Q-1089.45 89.85 -1091.95 81.55 -1092.55 80.1 -1092.85 78.05 L-1092.85 78.0 -1092.95 75.7 -1092.95 -369.8 Q-1092.95 -374.2 -1091.4 -377.05 L-1090.95 -377.65 -1090.9 -377.8" fill="#13152d" fill-opacity="0.65882355" fill-rule="evenodd" stroke="none"/>
    <path d="M-552.35 -381.15 L-552.35 -377.0 -1080.9 -377.0 Q-1086.05 -377.0 -1086.05 -371.85 L-1086.05 -326.85 -1086.05 69.1 -1090.2 69.1 -1090.2 -371.85 Q-1090.2 -375.2 -1089.05 -377.4 L-1089.0 -377.45 -1088.6 -378.05 Q-1086.35 -381.15 -1080.9 -381.15 L-552.35 -381.15" fill="#222541" fill-opacity="0.9490196" fill-rule="evenodd" stroke="none"/>
    <path d="M-552.35 -326.85 L-552.35 69.1 -1086.05 69.1 -1086.05 -326.85 -552.35 -326.85" fill="#15172a" fill-opacity="0.9490196" fill-rule="evenodd" stroke="none"/>
    <path d="M-552.35 -377.0 L-552.35 -326.85 -1086.05 -326.85 -1086.05 -371.85 Q-1086.05 -377.0 -1080.9 -377.0 L-552.35 -377.0" fill="#1c1e38" fill-opacity="0.9490196" fill-rule="evenodd" stroke="none"/>
    <path d="M-552.35 75.45 L-552.35 84.0 -1079.85 84.0 Q-1087.45 84.0 -1089.4 78.25 -1089.95 77.05 -1090.1 75.45 L-552.35 75.45" fill="url(#gradient1)" fill-rule="evenodd" stroke="none"/>
    <path d="M-552.35 69.1 L-552.35 75.45 -1090.1 75.45 -1090.2 73.65 -1090.2 69.6 -1090.2 69.1 -1086.05 69.1 -552.35 69.1" fill="url(#gradient2)" fill-rule="evenodd" stroke="none"/>
    <path d="M-1090.2 69.1 L-1090.2 -371.85 Q-1090.2 -375.2 -1089.05 -377.4 L-1089.0 -377.45 -1088.6 -378.05 Q-1086.35 -381.15 -1080.9 -381.15 L-552.35 -381.15" fill="none" stroke="#889ab8" stroke-linecap="round" stroke-linejoin="round" stroke-opacity="0.54901963" stroke-width="1.0"/>
    <path d="M-1086.05 -326.85 L-552.35 -326.85" fill="none" stroke="#889ab8" stroke-linecap="round" stroke-linejoin="round" stroke-opacity="0.7490196" stroke-width="1.0"/>
    <path d="M-552.35 84.0 L-1079.85 84.0 Q-1087.45 84.0 -1089.4 78.25 -1089.95 77.05 -1090.1 75.45 L-1090.2 73.65 -1090.2 69.6" fill="none" stroke="#9facbf" stroke-linecap="round" stroke-linejoin="round" stroke-opacity="0.54901963" stroke-width="1.0"/>
    <path d="M-1086.05 69.1 L-1090.2 69.1 M-1086.05 69.1 L-552.35 69.1" fill="none" stroke="#9daabd" stroke-linecap="round" stroke-linejoin="round" stroke-opacity="0.42745098" stroke-width="1.0"/>
  </g>
  <defs>
    <linearGradient gradientTransform="matrix(0.0, 0.2664, -0.6277, 0.0, -734.6, -152.85)" gradientUnits="userSpaceOnUse" id="gradient0" spreadMethod="pad" x1="-819.2" x2="819.2">
      <stop offset="0.023529411764705882" stop-color="#2a3354" stop-opacity="0.8"/>
      <stop offset="1.0" stop-color="#201638" stop-opacity="0.8"/>
    </linearGradient>
    <linearGradient gradientTransform="matrix(0.4953, 0.0, 0.0, -0.0052, -676.35, 79.65)" gradientUnits="userSpaceOnUse" id="gradient1" spreadMethod="pad" x1="-819.2" x2="819.2">
      <stop offset="0.0" stop-color="#4f8eb1"/>
      <stop offset="1.0" stop-color="#815ca3"/>
    </linearGradient>
    <linearGradient gradientTransform="matrix(0.493, 0.0, 0.0, -0.0039, -676.95, 72.25)" gradientUnits="userSpaceOnUse" id="gradient2" spreadMethod="pad" x1="-819.2" x2="819.2">
      <stop offset="0.0" stop-color="#265c6d"/>
      <stop offset="1.0" stop-color="#422b66"/>
    </linearGradient>
  </defs>
</svg>
