<?xml version="1.0" encoding="UTF-8" standalone="no"?>
<svg xmlns:xlink="http://www.w3.org/1999/xlink" height="38.5px" width="38.05px" xmlns="http://www.w3.org/2000/svg">
  <g transform="matrix(1.0, 0.0, 0.0, 1.0, -1.15, 20.85)">
    <path d="M28.9 -8.65 Q28.05 -9.0 27.65 -9.6 27.4 -10.4 27.45 -11.2 L28.2 -14.7 25.5 -12.35 Q24.9 -11.75 24.15 -11.75 23.35 -11.75 22.75 -12.35 L19.95 -15.05 20.6 -11.25 Q20.65 -10.55 20.25 -9.9 19.85 -9.1 19.1 -8.75 L15.6 -7.6 19.1 -6.3 Q20.05 -6.05 20.45 -5.4 L20.6 -3.8 18.65 4.9 18.9 5.0 22.4 9.9 22.9 10.35 24.5 -6.85 25.4 10.2 29.1 5.2 29.15 5.15 27.55 -3.65 Q27.4 -4.6 27.8 -5.25 28.25 -6.05 29.0 -6.3 L32.65 -7.5 28.9 -8.65 M31.6 -20.4 L29.6 -10.7 39.2 -7.45 29.75 -4.25 31.45 5.6 23.95 15.4 16.4 5.3 18.45 -4.35 8.85 -7.8 18.45 -10.95 16.55 -20.85 24.15 -13.95 31.6 -20.4 M36.5 2.0 L36.0 8.95 29.7 10.95 36.5 2.0 M24.5 17.65 L28.9 12.05 39.2 12.35 24.5 17.65 M23.1 17.65 L1.15 12.4 12.1 12.25 4.7 4.75 14.15 10.5 7.15 -2.6 23.1 17.65" fill="#e6f3ff" fill-rule="evenodd" stroke="none"/>
  </g>
</svg>
