<?xml version="1.0" encoding="UTF-8" standalone="no"?>
<svg xmlns:xlink="http://www.w3.org/1999/xlink" height="36.7px" width="58.3px" xmlns="http://www.w3.org/2000/svg">
  <g transform="matrix(1.0, 0.0, 0.0, 1.0, 9.95, 17.4)">
    <path d="M26.8 0.9 Q26.8 8.5 21.4 14.0 16.05 19.3 8.45 19.3 0.8 19.3 -4.6 14.0 -9.95 8.5 -9.95 0.9 -9.95 -6.7 -4.6 -12.1 0.8 -17.4 8.45 -17.4 16.05 -17.4 21.4 -12.1 26.8 -6.7 26.8 0.9 M24.1 0.9 Q24.1 -5.5 19.5 -10.15 14.9 -14.7 8.45 -14.7 1.9 -14.7 -2.75 -10.15 -7.3 -5.5 -7.3 0.9 -7.3 7.5 -2.75 12.05 1.9 16.6 8.45 16.6 14.9 16.6 19.5 12.05 24.1 7.5 24.1 0.9" fill="#e9f5ff" fill-rule="evenodd" stroke="none"/>
    <path d="M31.2 -1.0 L39.0 -6.7 47.1 -1.0 M31.2 9.05 L39.0 3.25 47.1 9.05" fill="none" stroke="#e9f5ff" stroke-linecap="round" stroke-linejoin="round" stroke-width="2.5"/>
  </g>
</svg>
