<?xml version="1.0" encoding="UTF-8" standalone="no"?>
<svg xmlns:xlink="http://www.w3.org/1999/xlink" height="381.85px" width="227.7px" xmlns="http://www.w3.org/2000/svg">
  <g transform="matrix(1.0, 0.0, 0.0, 1.0, 115.75, 203.25)">
    <path d="M-110.85 -203.25 L107.05 -203.25 Q111.95 -203.25 111.95 -198.35 L111.95 173.7 Q111.95 178.6 107.05 178.6 L-110.85 178.6 Q-115.75 178.6 -115.75 173.7 L-115.75 -198.35 Q-115.75 -203.25 -110.85 -203.25" fill="#1c1c23" fill-opacity="0.76862746" fill-rule="evenodd" stroke="none"/>
    <path d="M-113.1 32.05 L109.05 32.05 109.05 175.1 -113.1 175.1 -113.1 32.05 M109.05 -200.35 L109.05 29.4 -113.1 29.4 -113.1 -200.35 109.05 -200.35" fill="#16171e" fill-opacity="0.9098039" fill-rule="evenodd" stroke="none"/>
    <path d="M-113.1 32.05 L109.05 32.05 109.05 175.1 -113.1 175.1 -113.1 32.05 M109.05 -200.35 L109.05 29.4 -113.1 29.4 -113.1 -200.35 109.05 -200.35" fill="none" stroke="#8696c6" stroke-linecap="round" stroke-linejoin="round" stroke-opacity="0.35686275" stroke-width="1.0"/>
  </g>
</svg>
