<?xml version="1.0" encoding="UTF-8" standalone="no"?>
<svg xmlns:xlink="http://www.w3.org/1999/xlink" height="97.3px" width="253.35px" xmlns="http://www.w3.org/2000/svg">
  <g transform="matrix(1.0, 0.0, 0.0, 1.0, -36.4, 46.2)">
    <path d="M37.15 -45.7 L93.6 -45.7 Q119.05 -45.7 119.05 -20.6 L119.05 1.75 119.05 25.55 Q119.05 50.6 93.6 50.6 L37.15 50.6 37.15 1.75 119.05 1.75 37.15 1.75 37.15 -45.7" fill="#0c0d1e" fill-opacity="0.6" fill-rule="evenodd" stroke="none"/>
    <path d="M37.15 -45.7 L93.6 -45.7 Q119.05 -45.7 119.05 -20.6 L119.05 1.75 119.05 25.55 Q119.05 50.6 93.6 50.6 L37.15 50.6 M37.15 1.75 L36.9 1.75 M119.05 1.75 L37.15 1.75" fill="none" stroke="#c3cbff" stroke-linecap="round" stroke-linejoin="round" stroke-opacity="0.6" stroke-width="1.0"/>
    <path d="M95.15 -22.2 L95.65 -21.4 95.65 -21.3 95.65 -20.6 95.65 -20.25 95.25 -19.6 95.2 -19.6 81.4 -7.0 Q80.75 -6.45 80.05 -6.45 79.2 -6.45 78.7 -7.0 L78.65 -7.1 Q78.35 -7.6 78.35 -8.35 78.35 -9.15 78.9 -9.85 L91.15 -21.1 78.8 -33.05 Q78.35 -33.6 78.35 -34.25 78.35 -35.1 78.7 -35.6 79.25 -36.2 80.25 -36.2 80.85 -36.2 81.4 -35.6 L95.15 -22.2 M77.0 -23.75 Q78.0 -22.6 78.0 -21.3 78.0 -19.95 77.0 -18.9 76.05 -17.9 74.7 -17.9 73.25 -17.9 72.15 -18.9 71.25 -19.95 71.25 -21.3 71.25 -22.6 72.15 -23.75 73.25 -24.5 74.7 -24.5 76.05 -24.5 77.0 -23.75 M68.35 25.7 L82.1 12.25 Q82.6 11.7 83.25 11.7 84.15 11.7 84.75 12.25 85.15 12.85 85.15 13.65 L84.7 14.9 72.3 26.85 84.6 38.05 Q85.15 38.75 85.15 39.55 85.15 40.35 84.8 40.8 L84.75 40.95 Q84.25 41.5 83.4 41.5 82.7 41.5 82.1 40.95 L68.35 28.35 68.3 28.35 67.7 27.65 67.7 27.25 67.7 26.6 67.7 26.5 Q68.05 25.8 68.35 25.7 M86.5 24.15 Q87.45 23.4 88.8 23.4 90.2 23.4 91.35 24.15 92.35 25.3 92.35 26.6 92.35 27.9 91.35 29.0 90.2 29.95 88.8 29.95 87.45 29.95 86.5 29.0 85.4 27.9 85.4 26.6 85.4 25.3 86.5 24.15" fill="#adbef0" fill-opacity="0.6784314" fill-rule="evenodd" stroke="none"/>
    <path d="M134.6 -8.1 L192.15 -8.1 Q197.15 -8.1 200.65 -4.55 204.15 -1.0 204.15 3.95 L204.15 6.95 Q204.15 11.9 200.65 15.5 197.15 18.95 192.15 18.95 L134.6 18.95 Q129.6 18.95 126.05 15.5 122.5 11.9 122.5 6.95 L122.5 3.95 Q122.5 -1.0 126.05 -4.55 129.6 -8.1 134.6 -8.1 M219.35 -8.4 L276.9 -8.4 Q281.95 -8.4 285.45 -4.85 288.95 -1.3 288.95 3.65 L288.95 6.65 Q288.95 11.6 285.45 15.2 281.95 18.65 276.9 18.65 L219.35 18.65 Q214.35 18.65 210.85 15.2 207.3 11.6 207.3 6.65 L207.3 3.65 Q207.3 -1.3 210.85 -4.85 214.35 -8.4 219.35 -8.4 M219.2 -39.15 L276.75 -39.15 Q281.8 -39.15 285.3 -35.55 288.85 -32.0 288.85 -27.05 L288.85 -24.1 Q288.85 -19.1 285.3 -15.55 281.8 -12.05 276.75 -12.05 L219.2 -12.05 Q214.2 -12.05 210.65 -15.55 207.2 -19.1 207.2 -24.1 L207.2 -27.05 Q207.2 -32.0 210.65 -35.55 214.2 -39.15 219.2 -39.15 M219.4 22.15 L276.9 22.15 Q282.0 22.15 285.5 25.7 289.0 29.3 289.0 34.25 L289.0 37.25 Q289.0 42.2 285.5 45.75 282.0 49.25 276.9 49.25 L219.4 49.25 Q214.4 49.25 210.9 45.75 207.35 42.2 207.35 37.25 L207.35 34.25 Q207.35 29.3 210.9 25.7 214.4 22.15 219.4 22.15 M134.2 22.55 L191.75 22.55 Q196.8 22.55 200.3 26.1 203.8 29.65 203.8 34.6 L203.8 37.6 Q203.8 42.55 200.3 46.15 L199.3 47.05 Q196.05 49.6 191.75 49.6 L134.2 49.6 Q129.95 49.6 126.75 47.05 L125.7 46.15 Q122.15 42.55 122.15 37.6 L122.15 34.6 Q122.15 29.65 125.7 26.1 129.2 22.55 134.2 22.55" fill="#161723" fill-opacity="0.8" fill-rule="evenodd" stroke="none"/>
    <path d="M134.6 -8.1 L192.15 -8.1 Q197.15 -8.1 200.65 -4.55 204.15 -1.0 204.15 3.95 L204.15 6.95 Q204.15 11.9 200.65 15.5 197.15 18.95 192.15 18.95 L134.6 18.95 Q129.6 18.95 126.05 15.5 122.5 11.9 122.5 6.95 L122.5 3.95 Q122.5 -1.0 126.05 -4.55 129.6 -8.1 134.6 -8.1 M219.35 -8.4 L276.9 -8.4 Q281.95 -8.4 285.45 -4.85 288.95 -1.3 288.95 3.65 L288.95 6.65 Q288.95 11.6 285.45 15.2 281.95 18.65 276.9 18.65 L219.35 18.65 Q214.35 18.65 210.85 15.2 207.3 11.6 207.3 6.65 L207.3 3.65 Q207.3 -1.3 210.85 -4.85 214.35 -8.4 219.35 -8.4 M219.2 -39.15 L276.75 -39.15 Q281.8 -39.15 285.3 -35.55 288.85 -32.0 288.85 -27.05 L288.85 -24.1 Q288.85 -19.1 285.3 -15.55 281.8 -12.05 276.75 -12.05 L219.2 -12.05 Q214.2 -12.05 210.65 -15.55 207.2 -19.1 207.2 -24.1 L207.2 -27.05 Q207.2 -32.0 210.65 -35.55 214.2 -39.15 219.2 -39.15 M219.4 22.15 L276.9 22.15 Q282.0 22.15 285.5 25.7 289.0 29.3 289.0 34.25 L289.0 37.25 Q289.0 42.2 285.5 45.75 282.0 49.25 276.9 49.25 L219.4 49.25 Q214.4 49.25 210.9 45.75 207.35 42.2 207.35 37.25 L207.35 34.25 Q207.35 29.3 210.9 25.7 214.4 22.15 219.4 22.15 M134.2 22.55 L191.75 22.55 Q196.8 22.55 200.3 26.1 203.8 29.65 203.8 34.6 L203.8 37.6 Q203.8 42.55 200.3 46.15 L199.3 47.05 Q196.05 49.6 191.75 49.6 L134.2 49.6 Q129.95 49.6 126.75 47.05 L125.7 46.15 Q122.15 42.55 122.15 37.6 L122.15 34.6 Q122.15 29.65 125.7 26.1 129.2 22.55 134.2 22.55" fill="none" stroke="#d2ecff" stroke-linecap="round" stroke-linejoin="round" stroke-opacity="0.35686275" stroke-width="1.5"/>
  </g>
</svg>
