<?xml version="1.0" encoding="UTF-8" standalone="no"?>
<svg xmlns:xlink="http://www.w3.org/1999/xlink" height="83.3px" width="204.65px" xmlns="http://www.w3.org/2000/svg">
  <g transform="matrix(1.0, 0.0, 0.0, 1.0, 103.05, 37.95)">
    <path d="M21.45 -33.55 L81.0 -33.55 Q101.1 -33.55 101.1 -13.75 L101.1 22.65 Q101.1 42.45 81.0 42.45 L-82.5 42.45 Q-102.55 42.45 -102.55 22.65 L-102.55 -13.75 Q-102.55 -33.55 -82.5 -33.55 L-17.05 -33.55 21.45 -33.55" fill="#0c0d1e" fill-opacity="0.6" fill-rule="evenodd" stroke="none"/>
    <path d="M21.45 -33.55 L81.0 -33.55 Q101.1 -33.55 101.1 -13.75 L101.1 22.65 Q101.1 42.45 81.0 42.45 L-82.5 42.45 Q-102.55 42.45 -102.55 22.65 L-102.55 -13.75 Q-102.55 -33.55 -82.5 -33.55 L-17.05 -33.55" fill="none" stroke="#c3cbff" stroke-linecap="round" stroke-linejoin="round" stroke-opacity="0.6" stroke-width="1.0"/>
    <path d="M84.6 3.5 Q84.9 3.6 85.15 4.25 L85.15 4.4 85.15 5.05 85.15 5.35 84.7 6.0 84.65 6.05 71.45 18.1 70.15 18.6 Q69.4 18.6 68.9 18.1 L68.85 17.95 Q68.55 17.5 68.55 16.75 68.55 16.0 69.05 15.35 L80.8 4.6 69.0 -6.85 Q68.55 -7.4 68.55 -8.05 68.55 -8.8 68.9 -9.35 69.45 -9.9 70.35 -9.9 70.95 -9.9 71.45 -9.35 L84.6 3.5 M67.25 2.0 Q68.25 3.1 68.25 4.4 68.25 5.65 67.25 6.7 66.35 7.6 65.05 7.6 63.7 7.6 62.6 6.7 61.7 5.65 61.7 4.4 61.7 3.1 62.6 2.0 63.7 1.3 65.05 1.3 66.35 1.3 67.25 2.0 M-69.05 2.0 Q-68.15 1.3 -66.85 1.3 -65.5 1.3 -64.4 2.0 -63.5 3.1 -63.5 4.4 -63.5 5.65 -64.4 6.7 -65.5 7.6 -66.85 7.6 -68.15 7.6 -69.05 6.7 -70.1 5.65 -70.1 4.4 -70.1 3.1 -69.05 2.0 M-86.4 3.5 L-73.25 -9.35 Q-72.8 -9.9 -72.15 -9.9 -71.25 -9.9 -70.7 -9.35 -70.35 -8.8 -70.35 -8.05 -70.35 -7.4 -70.8 -6.85 L-82.65 4.6 -70.85 15.35 Q-70.35 16.0 -70.35 16.75 -70.35 17.5 -70.65 17.95 L-70.7 18.1 Q-71.2 18.6 -72.0 18.6 -72.65 18.6 -73.25 18.1 L-86.45 6.05 -86.5 6.0 -87.0 5.35 -87.0 5.05 -87.0 4.4 -87.0 4.25 Q-86.7 3.6 -86.4 3.5" fill="#adbef0" fill-opacity="0.6784314" fill-rule="evenodd" stroke="none"/>
    <path d="M-49.9 30.45 L-49.9 -23.05 Q-49.9 -36.45 -36.5 -36.45 L36.65 -36.45 Q50.05 -36.45 50.05 -23.05 L50.05 30.45 Q50.05 43.85 36.65 43.85 L-36.5 43.85 Q-49.9 43.85 -49.9 30.45 Z" fill="none" stroke="#10131c" stroke-linecap="round" stroke-linejoin="round" stroke-width="3.0"/>
    <path d="M-49.9 30.45 L-49.9 -23.05 Q-49.9 -36.45 -36.5 -36.45 L36.65 -36.45 Q50.05 -36.45 50.05 -23.05 L50.05 30.45 Q50.05 43.85 36.65 43.85 L-36.5 43.85 Q-49.9 43.85 -49.9 30.45" fill="url(#gradient0)" fill-rule="evenodd" stroke="none"/>
  </g>
  <defs>
    <linearGradient gradientTransform="matrix(0.0, -0.0335, 0.061, 0.0, 0.05, -2.65)" gradientUnits="userSpaceOnUse" id="gradient0" spreadMethod="pad" x1="-819.2" x2="819.2">
      <stop offset="0.00784313725490196" stop-color="#2a2838" stop-opacity="0.9372549"/>
      <stop offset="1.0" stop-color="#121219" stop-opacity="0.9098039"/>
    </linearGradient>
  </defs>
</svg>
