<?xml version="1.0" encoding="UTF-8" standalone="no"?>
<svg xmlns:xlink="http://www.w3.org/1999/xlink" height="45.65px" width="80.85px" xmlns="http://www.w3.org/2000/svg">
  <g transform="matrix(1.0, 0.0, 0.0, 1.0, 10.9, 22.6)">
    <path d="M-2.6 -20.6 L61.65 -20.6 Q67.95 -20.6 67.95 -14.3 L67.95 14.75 Q67.95 21.05 61.65 21.05 L-2.6 21.05 Q-8.9 21.05 -8.9 14.75 L-8.9 -14.3 Q-8.9 -20.6 -2.6 -20.6 Z" fill="none" stroke="#21254f" stroke-linecap="round" stroke-linejoin="round" stroke-opacity="0.6784314" stroke-width="4.0"/>
    <path d="M-2.6 -20.95 L61.65 -20.95 Q67.95 -20.95 67.95 -14.6 L67.95 14.4 Q67.95 20.75 61.65 20.75 L-2.6 20.75 Q-8.9 20.75 -8.9 14.4 L-8.9 -14.6 Q-8.9 -20.95 -2.6 -20.95" fill="#bacae7" fill-opacity="0.7176471" fill-rule="evenodd" stroke="none"/>
    <path d="M-2.6 -20.95 L61.65 -20.95 Q67.95 -20.95 67.95 -14.6 L67.95 14.4 Q67.95 20.75 61.65 20.75 L-2.6 20.75 Q-8.9 20.75 -8.9 14.4 L-8.9 -14.6 Q-8.9 -20.95 -2.6 -20.95 Z" fill="none" stroke="#ffffff" stroke-linecap="round" stroke-linejoin="round" stroke-opacity="0.6784314" stroke-width="1.0"/>
  </g>
</svg>
