<?xml version="1.0" encoding="UTF-8" standalone="no"?>
<svg xmlns:xlink="http://www.w3.org/1999/xlink" height="30.25px" width="199.15px" xmlns="http://www.w3.org/2000/svg">
  <g transform="matrix(1.0, 0.0, 0.0, 1.0, 999.8, 246.55)">
    <path d="M-999.25 -222.0 L-999.3 -223.15 -999.3 -239.75 Q-999.3 -246.05 -993.2 -246.05 L-807.25 -246.05 Q-801.15 -246.05 -801.15 -239.75 L-801.15 -223.15 -801.2 -222.0 -999.25 -222.0" fill="#0b0b20" fill-opacity="0.8" fill-rule="evenodd" stroke="none"/>
    <path d="M-801.8 -219.6 Q-803.2 -216.8 -807.25 -216.8 L-993.2 -216.8 Q-997.2 -216.8 -998.6 -219.6 L-801.8 -219.6" fill="url(#gradient0)" fill-rule="evenodd" stroke="none"/>
    <path d="M-801.2 -222.0 Q-801.35 -220.6 -801.8 -219.6 L-998.6 -219.6 Q-999.1 -220.6 -999.25 -222.0 L-801.2 -222.0" fill="url(#gradient1)" fill-rule="evenodd" stroke="none"/>
    <path d="M-999.25 -222.0 L-999.3 -223.15 -999.3 -239.75 Q-999.3 -246.05 -993.2 -246.05 L-807.25 -246.05 Q-801.15 -246.05 -801.15 -239.75 L-801.15 -223.15 -801.2 -222.0 Q-801.35 -220.6 -801.8 -219.6 -803.2 -216.8 -807.25 -216.8 L-993.2 -216.8 Q-997.2 -216.8 -998.6 -219.6 -999.1 -220.6 -999.25 -222.0 Z" fill="none" stroke="#a1a8d2" stroke-linecap="round" stroke-linejoin="round" stroke-opacity="0.34901962" stroke-width="1.0"/>
  </g>
  <defs>
    <linearGradient gradientTransform="matrix(0.1137, 0.0, 0.0, 0.0032, -900.15, -219.4)" gradientUnits="userSpaceOnUse" id="gradient0" spreadMethod="pad" x1="-819.2" x2="819.2">
      <stop offset="0.0" stop-color="#324d70"/>
      <stop offset="1.0" stop-color="#5a3969"/>
    </linearGradient>
    <linearGradient gradientTransform="matrix(0.1137, 0.0, 0.0, 0.0032, -900.15, -219.4)" gradientUnits="userSpaceOnUse" id="gradient1" spreadMethod="pad" x1="-819.2" x2="819.2">
      <stop offset="0.0" stop-color="#1f3046"/>
      <stop offset="1.0" stop-color="#3c2646"/>
    </linearGradient>
  </defs>
</svg>
