<?xml version="1.0" encoding="UTF-8" standalone="no"?>
<svg xmlns:xlink="http://www.w3.org/1999/xlink" height="27.4px" width="56.9px" xmlns="http://www.w3.org/2000/svg">
  <g transform="matrix(1.0, 0.0, 0.0, 1.0, 28.3, 13.85)">
    <path d="M-27.55 -0.1 Q-0.15 -26.05 27.85 -0.1 -0.75 25.7 -27.55 -0.1" fill="#2a1648" fill-rule="evenodd" stroke="none"/>
    <path d="M-27.55 -0.1 Q-0.15 -26.05 27.85 -0.1 -0.75 25.7 -27.55 -0.1 Z" fill="none" stroke="#d22e2e" stroke-linecap="round" stroke-linejoin="round" stroke-width="1.5"/>
    <path d="M7.5 0.0 Q7.5 3.1 5.15 5.2 3.0 7.6 -0.1 7.6 -3.15 7.6 -5.5 5.2 -7.7 3.1 -7.7 0.0 -7.7 -3.05 -5.5 -5.45 -3.15 -7.6 -0.1 -7.6 3.0 -7.6 5.15 -5.45 7.5 -3.05 7.5 0.0" fill="#e56f6f" fill-rule="evenodd" stroke="none"/>
    <path d="M3.9 0.05 Q3.9 1.65 2.7 2.85 1.5 4.0 -0.05 4.0 -1.8 4.0 -2.95 2.85 -4.0 1.65 -4.0 0.05 -4.0 -1.65 -2.95 -2.85 -1.8 -3.9 -0.05 -3.9 1.5 -3.9 2.7 -2.85 3.9 -1.65 3.9 0.05" fill="#273b77" fill-rule="evenodd" stroke="none"/>
  </g>
</svg>
