<?xml version="1.0" encoding="UTF-8" standalone="no"?>
<svg xmlns:xlink="http://www.w3.org/1999/xlink" height="49.15px" width="89.3px" xmlns="http://www.w3.org/2000/svg">
  <g transform="matrix(1.0, 0.0, 0.0, 1.0, 17.9, 24.6)">
    <path d="M20.85 -5.45 L31.65 -5.45 Q32.7 -5.45 33.4 -6.0 34.05 -6.55 34.05 -7.35 34.05 -8.2 33.4 -8.75 32.7 -9.35 31.65 -9.35 L20.85 -9.35 Q19.8 -9.35 19.1 -8.75 18.4 -8.2 18.4 -7.35 18.4 -6.55 19.1 -6.0 19.8 -5.45 20.85 -5.45 M70.9 24.05 L-17.4 24.05 -17.4 -24.1 70.9 -24.1 70.9 24.05" fill="#281c2a" fill-opacity="0.8" fill-rule="evenodd" stroke="none"/>
    <path d="M20.85 -5.45 Q19.8 -5.45 19.1 -6.0 18.4 -6.55 18.4 -7.35 18.4 -8.2 19.1 -8.75 19.8 -9.35 20.85 -9.35 L31.65 -9.35 Q32.7 -9.35 33.4 -8.75 34.05 -8.2 34.05 -7.35 34.05 -6.55 33.4 -6.0 32.7 -5.45 31.65 -5.45 L20.85 -5.45" fill="#deabb6" fill-rule="evenodd" stroke="none"/>
    <path d="M70.9 24.05 L-17.4 24.05 -17.4 -24.1 70.9 -24.1 70.9 24.05 Z" fill="none" stroke="#d29fbb" stroke-linecap="round" stroke-linejoin="round" stroke-opacity="0.6" stroke-width="1.0"/>
  </g>
</svg>
