<?xml version="1.0" encoding="UTF-8" standalone="no"?>
<svg xmlns:xlink="http://www.w3.org/1999/xlink" height="27.25px" width="47.75px" xmlns="http://www.w3.org/2000/svg">
  <g transform="matrix(1.0, 0.0, 0.0, 1.0, -5.65, 13.35)">
    <path d="M10.85 -11.85 L48.2 -11.85 Q51.9 -11.85 51.9 -8.15 L51.9 8.75 Q51.9 12.4 48.2 12.4 L10.85 12.4 Q7.15 12.4 7.15 8.75 L7.15 -8.15 Q7.15 -11.85 10.85 -11.85 Z" fill="none" stroke="#21254f" stroke-linecap="round" stroke-linejoin="round" stroke-opacity="0.6784314" stroke-width="3.0"/>
    <path d="M10.85 -12.05 L48.2 -12.05 Q51.9 -12.05 51.9 -8.35 L51.9 8.55 Q51.9 12.25 48.2 12.25 L10.85 12.25 Q7.15 12.25 7.15 8.55 L7.15 -8.35 Q7.15 -12.05 10.85 -12.05" fill="#bacae7" fill-opacity="0.7176471" fill-rule="evenodd" stroke="none"/>
    <path d="M10.85 -12.05 L48.2 -12.05 Q51.9 -12.05 51.9 -8.35 L51.9 8.55 Q51.9 12.25 48.2 12.25 L10.85 12.25 Q7.15 12.25 7.15 8.55 L7.15 -8.35 Q7.15 -12.05 10.85 -12.05 Z" fill="none" stroke="#ffffff" stroke-linecap="round" stroke-linejoin="round" stroke-opacity="0.6784314" stroke-width="1.0"/>
    <path d="M29.45 6.75 Q28.8 6.75 28.4 6.35 28.0 5.95 28.0 5.25 L28.0 1.45 24.15 1.45 Q23.55 1.45 23.1 1.0 22.75 0.65 22.75 0.0 22.75 -0.65 23.1 -1.1 23.55 -1.45 24.15 -1.45 L28.0 -1.45 28.0 -5.3 Q28.0 -5.85 28.4 -6.3 28.9 -6.75 29.45 -6.75 30.05 -6.75 30.45 -6.3 30.9 -5.95 30.9 -5.3 L30.9 -1.45 34.7 -1.45 Q35.3 -1.45 35.8 -1.0 36.25 -0.6 36.25 0.0 36.25 0.65 35.8 1.0 35.3 1.45 34.7 1.45 L30.9 1.45 30.9 5.25 30.45 6.35 Q30.05 6.75 29.45 6.75" fill="#272e48" fill-opacity="0.84705883" fill-rule="evenodd" stroke="none"/>
  </g>
</svg>
