<?xml version="1.0" encoding="UTF-8" standalone="no"?>
<svg xmlns:xlink="http://www.w3.org/1999/xlink" height="97.8px" width="82.95px" xmlns="http://www.w3.org/2000/svg">
  <g transform="matrix(1.0, 0.0, 0.0, 1.0, 41.3, 49.35)">
    <path d="M-40.8 47.95 L-40.8 -49.35 41.15 -49.35 41.15 47.95 -40.8 47.95" fill="url(#gradient0)" fill-rule="evenodd" stroke="none"/>
    <path d="M41.15 47.95 L-40.8 47.95" fill="none" stroke="#a6bcd9" stroke-linecap="round" stroke-linejoin="round" stroke-opacity="0.34901962" stroke-width="1.0"/>
    <path d="M-36.35 -44.95 L36.8 -44.95 36.8 28.1 -36.35 28.1 -36.35 -44.95" fill="#1f2031" fill-opacity="0.7490196" fill-rule="evenodd" stroke="none"/>
    <path d="M-2.8 0.15 Q-3.45 0.15 -3.45 -0.45 L-3.45 -3.5 Q-3.45 -6.25 -2.35 -8.0 -1.25 -9.8 0.9 -11.8 2.85 -13.65 3.85 -15.2 4.9 -16.75 4.9 -19.1 4.9 -21.85 3.65 -23.5 2.45 -25.1 0.45 -25.1 -1.75 -25.1 -3.05 -23.45 -4.3 -21.75 -4.3 -19.0 L-4.3 -17.4 Q-4.3 -16.8 -4.95 -16.8 L-9.55 -17.05 Q-10.2 -17.05 -10.2 -17.65 L-10.2 -19.0 Q-10.2 -24.1 -7.25 -27.25 -4.25 -30.4 0.55 -30.4 5.2 -30.4 8.0 -27.4 10.8 -24.35 10.8 -19.3 10.8 -16.6 10.05 -14.65 9.35 -12.7 8.35 -11.5 L5.75 -8.75 Q4.0 -7.15 3.25 -6.0 2.45 -4.85 2.45 -3.2 L2.45 -0.45 Q2.45 0.15 1.85 0.15 L-2.8 0.15 M-0.4 12.8 Q-2.15 12.8 -3.2 11.7 -4.3 10.6 -4.3 8.9 -4.3 7.2 -3.2 6.1 -2.15 5.0 -0.4 5.0 1.3 5.0 2.4 6.1 3.5 7.2 3.5 8.9 3.5 10.6 2.35 11.7 1.2 12.8 -0.4 12.8" fill="#545e8a" fill-opacity="0.9254902" fill-rule="evenodd" stroke="none"/>
  </g>
  <defs>
    <linearGradient gradientTransform="matrix(0.0, 0.0568, -0.05, 0.0, 0.2, -0.75)" gradientUnits="userSpaceOnUse" id="gradient0" spreadMethod="pad" x1="-819.2" x2="819.2">
      <stop offset="0.0" stop-color="#4c517e" stop-opacity="0.8784314"/>
      <stop offset="0.8313725490196079" stop-color="#2c2f4d"/>
    </linearGradient>
  </defs>
</svg>
