<?xml version="1.0" encoding="UTF-8" standalone="no"?>
<svg xmlns:xlink="http://www.w3.org/1999/xlink" height="93.1px" width="93.1px" xmlns="http://www.w3.org/2000/svg">
  <g transform="matrix(1.0, 0.0, 0.0, 1.0, 25.3, 76.95)">
    <path d="M67.8 -30.4 Q67.8 -11.1 54.15 2.5 40.55 16.15 21.25 16.15 1.95 16.15 -11.65 2.5 -25.3 -11.1 -25.3 -30.4 -25.3 -49.7 -11.65 -63.35 1.95 -76.95 21.25 -76.95 40.55 -76.95 54.15 -63.35 67.8 -49.7 67.8 -30.4" fill="url(#gradient0)" fill-rule="evenodd" stroke="none"/>
    <path d="M24.95 -27.5 Q24.95 -28.95 23.95 -30.0 22.95 -31.0 21.45 -31.0 19.95 -31.0 18.9 -30.0 17.9 -28.95 17.9 -27.5 17.9 -26.05 18.9 -25.05 19.5 -24.45 20.2 -24.15 L20.2 -20.4 Q20.2 -20.0 20.5 -19.65 20.85 -19.35 21.3 -19.35 L21.4 -19.35 Q21.8 -19.35 22.15 -19.65 L22.45 -20.4 22.45 -24.1 Q23.3 -24.3 23.95 -25.05 24.95 -26.05 24.95 -27.5 M17.9 -45.9 Q15.0 -45.9 14.9 -43.35 L14.9 -36.95 27.75 -36.95 27.75 -43.35 Q27.7 -45.9 24.8 -45.9 L17.9 -45.9 M11.6 -36.95 L11.65 -36.95 11.65 -44.9 Q11.65 -49.35 16.05 -49.35 L26.7 -49.35 Q31.1 -49.35 31.1 -44.9 L31.1 -36.95 31.3 -36.95 Q35.7 -36.95 35.7 -32.55 L35.7 -16.65 Q35.7 -12.25 31.3 -12.25 L11.6 -12.25 Q7.2 -12.25 7.2 -16.65 L7.2 -32.55 Q7.2 -36.95 11.6 -36.95" fill="#9ca9af" fill-opacity="0.61960787" fill-rule="evenodd" stroke="none"/>
  </g>
  <defs>
    <radialGradient cx="0" cy="0" gradientTransform="matrix(0.0571, 0.0, 0.0, 0.0571, 21.25, -30.4)" gradientUnits="userSpaceOnUse" id="gradient0" r="819.2" spreadMethod="pad">
      <stop offset="0.8745098039215686" stop-color="#000000" stop-opacity="0.7176471"/>
      <stop offset="1.0" stop-color="#000000" stop-opacity="0.0"/>
    </radialGradient>
  </defs>
</svg>
