<?xml version="1.0" encoding="UTF-8" standalone="no"?>
<svg xmlns:xlink="http://www.w3.org/1999/xlink" height="255.85px" width="330.85px" xmlns="http://www.w3.org/2000/svg">
  <g transform="matrix(1.0, 0.0, 0.0, 1.0, 165.4, 127.9)">
    <path d="M-152.7 -127.2 L152.75 -127.2 Q164.75 -127.2 164.75 -115.2 L164.75 115.25 Q164.75 127.25 152.75 127.25 L-152.7 127.25 Q-164.7 127.25 -164.7 115.25 L-164.7 -115.2 Q-164.7 -127.2 -152.7 -127.2" fill="#0b122a" fill-opacity="0.627451" fill-rule="evenodd" stroke="none"/>
    <path d="M-152.7 -127.2 L152.75 -127.2 Q164.75 -127.2 164.75 -115.2 L164.75 115.25 Q164.75 127.25 152.75 127.25 L-152.7 127.25 Q-164.7 127.25 -164.7 115.25 L-164.7 -115.2 Q-164.7 -127.2 -152.7 -127.2 Z" fill="none" stroke="#b6d2dc" stroke-linecap="round" stroke-linejoin="round" stroke-opacity="0.5372549" stroke-width="1.4000000000000001"/>
  </g>
</svg>
