<?xml version="1.0" encoding="UTF-8" standalone="no"?>
<svg xmlns:xlink="http://www.w3.org/1999/xlink" height="93.45px" width="62.7px" xmlns="http://www.w3.org/2000/svg">
  <g transform="matrix(1.0, 0.0, 0.0, 1.0, 32.05, 46.35)">
    <path d="M-16.55 -45.85 L15.15 -45.85 Q30.15 -45.85 30.15 -30.85 L30.15 31.6 Q30.15 46.6 15.15 46.6 L-16.55 46.6 Q-31.55 46.6 -31.55 31.6 L-31.55 -30.85 Q-31.55 -45.85 -16.55 -45.85" fill="#0c0d1e" fill-opacity="0.6784314" fill-rule="evenodd" stroke="none"/>
    <path d="M-16.55 -45.85 L15.15 -45.85 Q30.15 -45.85 30.15 -30.85 L30.15 31.6 Q30.15 46.6 15.15 46.6 L-16.55 46.6 Q-31.55 46.6 -31.55 31.6 L-31.55 -30.85 Q-31.55 -45.85 -16.55 -45.85 Z" fill="none" stroke="#a1a8d2" stroke-linecap="round" stroke-linejoin="round" stroke-opacity="0.6" stroke-width="1.0"/>
    <path d="M-10.5 -14.9 L-0.45 -24.7 Q-0.1 -25.1 0.4 -25.1 1.1 -25.1 1.5 -24.7 L1.8 -23.7 Q1.8 -23.2 1.4 -22.8 L-7.65 -14.0 1.35 -5.8 1.8 -4.75 1.55 -3.8 1.5 -3.7 Q1.15 -3.35 0.5 -3.35 0.0 -3.35 -0.45 -3.7 L-10.55 -12.9 -10.6 -12.95 -10.95 -13.5 -10.95 -13.65 -10.95 -14.2 -10.95 -14.25 -10.5 -14.9 M2.75 -16.0 Q3.45 -16.55 4.45 -16.55 5.5 -16.55 6.3 -16.0 7.0 -15.2 7.0 -14.2 7.0 -13.25 6.3 -12.4 5.5 -11.75 4.45 -11.75 3.45 -11.75 2.75 -12.4 1.95 -13.25 1.95 -14.2 1.95 -15.2 2.75 -16.0" fill="#7d81a3" fill-rule="evenodd" stroke="none"/>
  </g>
</svg>
