<?xml version="1.0" encoding="UTF-8" standalone="no"?>
<svg xmlns:xlink="http://www.w3.org/1999/xlink" height="23.25px" width="35.5px" xmlns="http://www.w3.org/2000/svg">
  <g transform="matrix(1.0, 0.0, 0.0, 1.0, -48.2, -2.15)">
    <path d="M83.7 7.05 L83.6 7.3 83.35 7.4 76.85 7.4 Q76.7 7.4 76.7 7.55 L76.7 13.25 76.85 13.35 80.7 13.35 80.95 13.5 81.05 13.75 81.05 16.05 80.95 16.3 80.7 16.4 76.85 16.4 Q76.7 16.4 76.7 16.55 L76.7 22.25 76.85 22.4 83.35 22.4 83.6 22.5 83.7 22.75 83.7 25.05 83.6 25.3 83.35 25.4 73.6 25.4 73.35 25.3 73.25 25.05 73.25 4.75 73.35 4.5 73.6 4.4 83.35 4.4 83.6 4.5 83.7 4.75 83.7 7.05 M61.15 25.4 L60.9 25.3 60.8 25.05 60.8 4.75 60.9 4.5 61.15 4.4 63.9 4.4 64.15 4.5 64.25 4.75 64.25 22.25 64.4 22.4 70.9 22.4 71.15 22.5 71.25 22.75 71.25 25.05 71.15 25.3 70.9 25.4 61.15 25.4 M58.0 4.4 L58.25 4.5 58.35 4.75 58.35 7.05 58.25 7.3 58.0 7.4 54.2 7.4 Q54.0 7.4 54.0 7.55 L54.0 25.05 53.9 25.3 53.65 25.4 50.9 25.4 50.65 25.3 50.55 25.05 50.55 7.55 50.4 7.4 48.95 7.4 48.95 4.4 58.0 4.4" fill="url(#gradient0)" fill-rule="evenodd" stroke="none"/>
    <path d="M82.2 5.55 L82.1 5.8 81.85 5.9 75.35 5.9 Q75.2 5.9 75.2 6.05 L75.2 11.75 75.35 11.85 79.2 11.85 79.45 12.0 79.55 12.25 79.55 14.55 79.45 14.8 79.2 14.9 75.35 14.9 Q75.2 14.9 75.2 15.05 L75.2 20.75 75.35 20.9 81.85 20.9 82.1 21.0 82.2 21.25 82.2 23.55 82.1 23.8 81.85 23.9 72.1 23.9 71.85 23.8 71.75 23.55 71.75 3.25 71.85 3.0 72.1 2.9 81.85 2.9 82.1 3.0 82.2 3.25 82.2 5.55 M59.65 23.9 L59.4 23.8 59.3 23.55 59.3 3.25 59.4 3.0 59.65 2.9 62.4 2.9 62.65 3.0 62.75 3.25 62.75 20.75 62.9 20.9 69.4 20.9 69.65 21.0 69.75 21.25 69.75 23.55 69.65 23.8 69.4 23.9 59.65 23.9 M48.95 2.9 L56.5 2.9 56.75 3.0 56.85 3.25 56.85 5.55 56.75 5.8 56.5 5.9 52.7 5.9 Q52.5 5.9 52.5 6.05 L52.5 23.55 52.4 23.8 52.15 23.9 49.4 23.9 49.15 23.8 49.05 23.55 49.05 6.05 48.95 5.9 48.95 2.9" fill="url(#gradient1)" fill-rule="evenodd" stroke="none"/>
    <path d="M82.2 5.55 L82.1 5.8 81.85 5.9 75.35 5.9 Q75.2 5.9 75.2 6.05 L75.2 11.75 75.35 11.85 79.2 11.85 79.45 12.0 79.55 12.25 79.55 14.55 79.45 14.8 79.2 14.9 75.35 14.9 Q75.2 14.9 75.2 15.05 L75.2 20.75 75.35 20.9 81.85 20.9 82.1 21.0 82.2 21.25 82.2 23.55 82.1 23.8 81.85 23.9 72.1 23.9 71.85 23.8 71.75 23.55 71.75 3.25 71.85 3.0 72.1 2.9 81.85 2.9 82.1 3.0 82.2 3.25 82.2 5.55 M59.65 23.9 L59.4 23.8 59.3 23.55 59.3 3.25 59.4 3.0 59.65 2.9 62.4 2.9 62.65 3.0 62.75 3.25 62.75 20.75 62.9 20.9 69.4 20.9 69.65 21.0 69.75 21.25 69.75 23.55 69.65 23.8 69.4 23.9 59.65 23.9 M48.95 2.9 L56.5 2.9 56.75 3.0 56.85 3.25 56.85 5.55 56.75 5.8 56.5 5.9 52.7 5.9 Q52.5 5.9 52.5 6.05 L52.5 23.55 52.4 23.8 52.15 23.9 49.4 23.9 49.15 23.8 49.05 23.55 49.05 6.05 48.95 5.9" fill="none" stroke="#000000" stroke-linecap="round" stroke-linejoin="round" stroke-opacity="0.21960784" stroke-width="1.5"/>
  </g>
  <defs>
    <linearGradient gradientTransform="matrix(0.0, 0.0116, -0.0473, 0.0, 44.95, 15.05)" gradientUnits="userSpaceOnUse" id="gradient0" spreadMethod="pad" x1="-819.2" x2="819.2">
      <stop offset="0.0" stop-color="#22212c"/>
      <stop offset="1.0" stop-color="#1c151a"/>
    </linearGradient>
    <linearGradient gradientTransform="matrix(0.0, 0.0131, -0.0473, 0.0, 43.45, 13.8)" gradientUnits="userSpaceOnUse" id="gradient1" spreadMethod="pad" x1="-819.2" x2="819.2">
      <stop offset="0.0" stop-color="#c3c2ff"/>
      <stop offset="1.0" stop-color="#ffbfed"/>
    </linearGradient>
  </defs>
</svg>
