<?xml version="1.0" encoding="UTF-8" standalone="no"?>
<svg xmlns:xlink="http://www.w3.org/1999/xlink" height="93.45px" width="62.7px" xmlns="http://www.w3.org/2000/svg">
  <g transform="matrix(1.0, 0.0, 0.0, 1.0, 32.05, 46.35)">
    <path d="M-16.55 -45.85 L15.15 -45.85 Q30.15 -45.85 30.15 -30.85 L30.15 31.6 Q30.15 46.6 15.15 46.6 L-16.55 46.6 Q-31.55 46.6 -31.55 31.6 L-31.55 -30.85 Q-31.55 -45.85 -16.55 -45.85" fill="#0c0d1e" fill-opacity="0.6" fill-rule="evenodd" stroke="none"/>
    <path d="M-16.55 -45.85 L15.15 -45.85 Q30.15 -45.85 30.15 -30.85 L30.15 31.6 Q30.15 46.6 15.15 46.6 L-16.55 46.6 Q-31.55 46.6 -31.55 31.6 L-31.55 -30.85 Q-31.55 -45.85 -16.55 -45.85 Z" fill="none" stroke="#a1a8d2" stroke-linecap="round" stroke-linejoin="round" stroke-opacity="0.6" stroke-width="1.0"/>
    <path d="M-12.5 -32.85 L9.15 -25.0 4.4 -23.1 -17.25 -30.95 4.4 -23.1 9.15 -25.0 -12.5 -32.85 -7.75 -34.75 13.95 -26.9 9.15 -25.0 13.95 -26.9 13.95 9.05 9.15 11.0 4.4 12.9 -17.25 5.0 -17.25 -30.95 -12.5 -32.85 M4.4 -23.1 L4.4 12.9 4.4 -23.1 M9.15 -25.0 L9.15 11.0 9.15 -25.0" fill="#a3bbff" fill-opacity="0.21960784" fill-rule="evenodd" stroke="none"/>
    <path d="M-17.25 -30.95 L4.4 -23.1 9.15 -25.0 -12.5 -32.85 -17.25 -30.95 -17.25 5.0 4.4 12.9 4.4 -23.1 M9.15 -25.0 L13.95 -26.9 -7.75 -34.75 -12.5 -32.85 M4.4 12.9 L9.15 11.0 9.15 -25.0 M13.95 -26.9 L13.95 9.05 9.15 11.0" fill="none" stroke="#96b6d9" stroke-linecap="round" stroke-linejoin="round" stroke-opacity="0.827451" stroke-width="2.0"/>
  </g>
</svg>
