<?xml version="1.0" encoding="UTF-8" standalone="no"?>
<svg xmlns:xlink="http://www.w3.org/1999/xlink" height="8.35px" width="57.8px" xmlns="http://www.w3.org/2000/svg">
  <g transform="matrix(1.0, 0.0, 0.0, 1.0, 25.65, 16.05)">
    <path d="M32.15 -15.8 L32.15 -7.7 -25.65 -7.7 -25.65 -15.3 Q-24.6 -15.85 -23.45 -16.0 L-23.25 -16.0 Q-21.25 -16.25 -19.05 -15.3 -15.95 -13.8 -12.45 -15.3 -9.4 -16.8 -5.85 -15.3 -2.75 -13.8 0.75 -15.3 3.85 -16.8 7.35 -15.3 10.45 -13.8 13.95 -15.3 17.05 -16.8 20.55 -15.3 23.65 -13.8 27.15 -15.3 29.5 -16.45 32.15 -15.8" fill="#6eb1e0" fill-rule="evenodd" stroke="none"/>
    <path d="M32.15 -15.8 Q29.5 -16.45 27.15 -15.3 23.65 -13.8 20.55 -15.3 17.05 -16.8 13.95 -15.3 10.45 -13.8 7.35 -15.3 3.85 -16.8 0.75 -15.3 -2.75 -13.8 -5.85 -15.3 -9.4 -16.8 -12.45 -15.3 -15.95 -13.8 -19.05 -15.3 -21.25 -16.25 -23.25 -16.0 L-23.45 -16.0 Q-24.6 -15.85 -25.65 -15.3 L-25.65 -7.7 32.15 -7.7" fill="none" stroke="#232048" stroke-linecap="round" stroke-linejoin="round" stroke-opacity="0.7490196" stroke-width="0.05"/>
  </g>
</svg>
