<?xml version="1.0" encoding="UTF-8" standalone="no"?>
<svg xmlns:xlink="http://www.w3.org/1999/xlink" height="41.95px" width="30.3px" xmlns="http://www.w3.org/2000/svg">
  <g transform="matrix(1.0, 0.0, 0.0, 1.0, 15.15, 21.25)">
    <path d="M-2.65 17.75 Q4.95 19.25 10.45 13.75 13.85 9.1 10.9 3.35 9.65 13.75 -2.65 17.75 M-6.9 -21.25 L-5.85 -20.6 Q0.95 -17.2 4.55 -14.05 7.95 -10.85 11.1 -5.75 14.3 -1.1 15.15 4.0 L15.15 5.9 Q15.35 15.85 5.4 19.9 -1.6 21.8 -7.95 19.05 -15.4 14.8 -15.15 7.4 -15.15 6.3 -14.75 4.85 -13.9 0.4 -10.1 -4.05 -6.05 -8.3 -4.35 -12.75 L-4.15 -15.7 Q-4.35 -18.7 -6.9 -21.25" fill="url(#gradient0)" fill-rule="evenodd" stroke="none"/>
  </g>
  <defs>
    <linearGradient gradientTransform="matrix(0.0, 0.0224, -0.0185, 0.0, 0.0, 0.85)" gradientUnits="userSpaceOnUse" id="gradient0" spreadMethod="pad" x1="-819.2" x2="819.2">
      <stop offset="0.0" stop-color="#729eff" stop-opacity="0.8"/>
      <stop offset="1.0" stop-color="#91d7ff" stop-opacity="0.8"/>
    </linearGradient>
  </defs>
</svg>
