<?xml version="1.0" encoding="UTF-8" standalone="no"?>
<svg xmlns:xlink="http://www.w3.org/1999/xlink" height="42.2px" width="42.2px" xmlns="http://www.w3.org/2000/svg">
  <g transform="matrix(1.0, 0.0, 0.0, 1.0, 21.3, 21.1)">
    <path d="M14.95 15.15 Q8.75 21.1 -0.2 21.1 -8.9 21.1 -15.1 15.15 -21.3 8.7 -21.3 0.0 -21.3 -8.7 -15.1 -14.9 -8.9 -21.1 -0.2 -21.1 8.75 -21.1 14.95 -14.9 20.0 -9.85 20.9 -3.2 20.0 -7.8 16.55 -11.25 11.95 -15.85 5.3 -15.85 -1.35 -15.85 -5.9 -11.25 -10.5 -6.65 -10.5 0.0 -10.5 6.65 -5.9 11.25 -1.35 15.85 5.3 15.85 11.95 15.85 16.55 11.25 20.0 7.8 20.9 3.2 20.0 9.85 14.95 15.15 M11.95 -0.25 Q11.95 2.3 10.15 4.15 8.3 5.95 5.8 5.95 3.25 5.95 1.65 4.15 -0.2 2.3 -0.2 -0.25 -0.2 -2.75 1.65 -4.6 3.25 -6.4 5.8 -6.4 8.3 -6.4 10.15 -4.6 11.95 -2.75 11.95 -0.25" fill="#e8aaff" fill-opacity="0.76862746" fill-rule="evenodd" stroke="none"/>
  </g>
</svg>
