<?xml version="1.0" encoding="UTF-8" standalone="no"?>
<svg xmlns:xlink="http://www.w3.org/1999/xlink" height="29.2px" width="42.7px" xmlns="http://www.w3.org/2000/svg">
  <g transform="matrix(1.0, 0.0, 0.0, 1.0, 21.85, 34.65)">
    <path d="M-1.9 -21.65 L-1.75 -21.8 Q-1.05 -22.35 -0.5 -23.25 0.05 -22.35 0.75 -21.8 1.3 -20.95 2.35 -20.4 2.15 -20.4 2.0 -20.2 1.1 -19.7 0.75 -19.15 L-0.5 -17.55 -1.9 -19.15 -3.0 -20.2 -3.35 -20.4 Q-2.45 -20.95 -1.9 -21.65 M-0.5 -32.15 Q-0.45 -28.0 3.25 -24.3 7.0 -20.55 11.25 -20.4 L10.0 -20.2 Q6.25 -19.5 3.25 -16.65 -0.45 -12.8 -0.5 -8.55 -0.55 -12.8 -4.4 -16.65 -7.45 -19.5 -11.0 -20.2 L-12.35 -20.4 Q-8.1 -20.45 -4.4 -24.3 -0.55 -28.0 -0.5 -32.15 M-3.0 -22.7 L-6.0 -20.4 Q-5.85 -20.4 -5.65 -20.2 -4.25 -19.15 -3.0 -18.1 L-0.5 -14.85 1.8 -18.1 Q3.05 -19.15 4.65 -20.2 L5.0 -20.4 Q3.25 -21.45 1.8 -22.9 L-0.5 -25.9 -2.8 -22.9 -3.0 -22.7 M2.9 -34.65 L20.85 -21.1 1.3 -5.45 15.15 -21.1 2.9 -34.65 M-3.9 -34.65 L-16.15 -21.1 -2.3 -5.45 -21.85 -21.1 -3.9 -34.65" fill="#a7b7d9" fill-rule="evenodd" stroke="none"/>
  </g>
</svg>
