<?xml version="1.0" encoding="UTF-8" standalone="no"?>
<svg xmlns:xlink="http://www.w3.org/1999/xlink" height="25.1px" width="20.55px" xmlns="http://www.w3.org/2000/svg">
  <g transform="matrix(1.0, 0.0, 0.0, 1.0, 14.95, 13.25)">
    <path d="M-14.45 -1.4 L-2.95 -12.75 Q-2.55 -13.25 -2.0 -13.25 -1.1 -13.25 -0.7 -12.75 -0.3 -12.25 -0.3 -11.55 -0.3 -11.0 -0.8 -10.5 L-11.25 -0.35 -0.8 9.05 Q-0.3 9.55 -0.3 10.25 -0.3 10.9 -0.7 11.4 L-0.7 11.45 Q-1.1 11.85 -1.85 11.85 -2.4 11.85 -2.95 11.45 L-14.6 0.8 -14.65 0.75 -14.9 0.15 -14.9 0.0 -14.9 -0.65 -14.45 -1.4 M0.75 -2.6 Q1.5 -3.3 2.7 -3.3 3.85 -3.3 4.75 -2.6 5.6 -1.85 5.6 -0.65 5.6 0.5 4.75 1.45 3.85 2.2 2.7 2.2 1.5 2.2 0.75 1.45 -0.15 0.5 -0.15 -0.65 -0.15 -1.85 0.75 -2.6" fill="#9bb1d9" fill-opacity="0.84705883" fill-rule="evenodd" stroke="none"/>
  </g>
</svg>
