<?xml version="1.0" encoding="UTF-8" standalone="no"?>
<svg xmlns:xlink="http://www.w3.org/1999/xlink" height="39.4px" width="91.95px" xmlns="http://www.w3.org/2000/svg">
  <g transform="matrix(1.0, 0.0, 0.0, 1.0, 9.8, 123.6)">
    <path d="M72.3 -110.05 L75.6 -122.9 75.9 -123.35 76.45 -123.6 81.65 -123.6 82.05 -123.35 82.1 -122.9 79.7 -113.5 72.3 -110.05 M56.15 -102.5 L61.35 -122.9 61.7 -123.35 62.2 -123.6 67.4 -123.6 67.8 -123.35 67.85 -122.9 63.75 -107.05 Q63.7 -106.75 64.0 -106.75 L65.25 -106.75 Q60.7 -104.6 56.15 -102.5 M-2.85 -111.7 L0.0 -122.9 0.35 -123.35 0.85 -123.6 6.05 -123.6 6.45 -123.35 6.5 -122.9 2.7 -108.05 -2.85 -111.7 M34.3 -92.3 L40.8 -117.7 40.6 -117.95 33.85 -117.95 Q33.6 -117.95 33.45 -118.15 33.25 -118.35 33.3 -118.6 L34.4 -122.9 34.8 -123.35 35.3 -123.6 56.3 -123.6 56.7 -123.35 56.75 -122.9 55.65 -118.6 55.35 -118.15 54.85 -117.95 47.7 -117.95 47.3 -117.7 41.7 -95.75 34.3 -92.3 M17.05 -98.55 L23.3 -122.9 23.65 -123.35 24.15 -123.6 29.35 -123.6 29.75 -123.35 29.8 -122.9 22.65 -94.9 17.05 -98.55" fill="#8892a6" fill-rule="evenodd" stroke="none"/>
    <path d="M79.7 -113.5 L72.35 -84.9 72.0 -84.4 Q71.75 -84.2 71.5 -84.2 L66.3 -84.2 65.85 -84.4 65.85 -84.9 69.9 -100.8 69.7 -101.05 62.55 -101.05 62.15 -100.8 58.1 -84.9 57.75 -84.4 57.25 -84.2 52.05 -84.2 Q51.8 -84.2 51.65 -84.4 51.5 -84.6 51.6 -84.9 L56.15 -102.5 Q60.7 -104.6 65.25 -106.75 L71.15 -106.75 71.5 -107.05 72.3 -110.05 79.7 -113.5 M2.7 -108.05 L-1.95 -90.1 -1.7 -89.85 10.45 -89.85 10.85 -89.65 10.9 -89.15 9.85 -84.9 9.5 -84.4 Q9.3 -84.2 9.0 -84.2 L-9.3 -84.2 -9.7 -84.4 -9.75 -84.9 -2.85 -111.7 2.7 -108.05 M41.7 -95.75 L38.9 -84.9 38.55 -84.4 38.05 -84.2 32.85 -84.2 Q32.55 -84.2 32.45 -84.4 32.3 -84.6 32.4 -84.9 L34.3 -92.3 41.7 -95.75 M22.65 -94.9 L20.05 -84.9 19.7 -84.4 19.2 -84.2 14.0 -84.2 Q13.75 -84.2 13.6 -84.4 13.45 -84.6 13.55 -84.9 L17.05 -98.55 22.65 -94.9" fill="#9a5cbf" fill-rule="evenodd" stroke="none"/>
  </g>
</svg>
