<?xml version="1.0" encoding="UTF-8" standalone="no"?>
<svg xmlns:xlink="http://www.w3.org/1999/xlink" height="39.4px" width="107.45px" xmlns="http://www.w3.org/2000/svg">
  <g transform="matrix(1.0, 0.0, 0.0, 1.0, 41.25, 126.9)">
    <path d="M13.2 -111.35 L17.0 -126.2 17.35 -126.65 17.9 -126.9 23.0 -126.9 23.45 -126.65 23.5 -126.2 19.9 -112.2 13.2 -111.35 M4.3 -110.25 L4.15 -111.9 3.95 -112.05 3.75 -111.85 3.35 -110.15 -3.25 -109.35 1.05 -126.2 1.4 -126.65 1.9 -126.9 7.7 -126.9 Q8.3 -126.9 8.3 -126.3 L9.85 -110.95 4.3 -110.25 M29.4 -113.35 L28.2 -126.1 28.15 -126.35 Q28.3 -126.9 28.95 -126.9 L34.35 -126.9 Q34.95 -126.9 35.0 -126.3 L35.4 -114.1 29.4 -113.35 M37.15 -114.3 L43.75 -126.3 Q44.1 -126.9 44.7 -126.9 L50.1 -126.9 50.55 -126.65 Q50.7 -126.5 50.45 -126.1 L43.8 -115.15 37.15 -114.3 M52.7 -116.25 L55.25 -126.2 55.6 -126.65 56.1 -126.9 61.3 -126.9 61.7 -126.65 61.75 -126.2 59.4 -117.05 52.7 -116.25 M-31.6 -105.85 L-22.95 -126.25 Q-22.65 -126.9 -22.0 -126.9 L-16.5 -126.9 Q-15.75 -126.9 -16.15 -126.15 L-25.35 -106.6 -31.6 -105.85 M-40.5 -104.75 L-39.5 -126.35 Q-39.35 -126.9 -38.7 -126.9 L-33.0 -126.9 Q-32.35 -126.9 -32.5 -126.25 L-34.25 -105.5 -40.5 -104.75 M-16.25 -107.75 L-11.55 -126.2 -11.2 -126.65 -10.7 -126.9 -5.5 -126.9 Q-5.2 -126.9 -5.1 -126.65 -4.95 -126.5 -5.05 -126.2 L-9.55 -108.55 -16.25 -107.75" fill="#8892a6" fill-rule="evenodd" stroke="none"/>
    <path d="M19.9 -112.2 L13.75 -88.2 13.4 -87.7 Q13.15 -87.5 12.85 -87.5 L6.95 -87.5 Q6.4 -87.5 6.4 -88.05 L4.3 -110.25 9.85 -110.95 10.65 -102.65 Q10.65 -102.45 10.75 -102.5 L10.95 -102.7 13.2 -111.35 19.9 -112.2 M3.35 -110.15 L-2.25 -88.2 -2.6 -87.7 Q-2.85 -87.5 -3.1 -87.5 L-8.25 -87.5 Q-8.5 -87.5 -8.65 -87.7 L-8.7 -88.2 -3.25 -109.35 3.35 -110.15 M35.4 -114.1 L35.45 -111.85 35.65 -111.7 35.8 -111.85 37.15 -114.3 43.8 -115.15 36.95 -103.95 36.8 -103.6 32.85 -88.25 32.5 -87.75 31.95 -87.55 26.8 -87.55 Q26.5 -87.55 26.35 -87.75 26.2 -87.95 26.3 -88.25 L30.25 -103.6 30.3 -103.95 29.4 -113.35 35.4 -114.1 M59.4 -117.05 L53.3 -93.4 Q53.25 -93.15 53.55 -93.15 L65.7 -93.15 Q66.0 -93.15 66.1 -92.95 L66.15 -92.45 65.1 -88.2 64.75 -87.7 64.25 -87.5 45.95 -87.5 Q45.7 -87.5 45.55 -87.7 45.4 -87.9 45.5 -88.2 L52.7 -116.25 59.4 -117.05 M-25.35 -106.6 L-34.05 -88.15 Q-34.3 -87.5 -34.9 -87.5 L-40.65 -87.5 Q-41.25 -87.5 -41.25 -88.15 L-40.5 -104.75 -34.25 -105.5 -34.8 -99.2 -34.65 -99.05 Q-34.55 -99.05 -34.45 -99.2 L-31.6 -105.85 -25.35 -106.6 M-9.55 -108.55 L-14.8 -88.2 Q-14.9 -87.9 -15.15 -87.7 -15.35 -87.5 -15.65 -87.5 L-20.85 -87.5 Q-21.1 -87.5 -21.25 -87.7 L-21.3 -88.2 -16.25 -107.75 -9.55 -108.55" fill="#59a7b4" fill-rule="evenodd" stroke="none"/>
  </g>
</svg>
