<?xml version="1.0" encoding="UTF-8" standalone="no"?>
<svg xmlns:xlink="http://www.w3.org/1999/xlink" height="39.85px" width="95.05px" xmlns="http://www.w3.org/2000/svg">
  <g transform="matrix(1.0, 0.0, 0.0, 1.0, 11.35, 26.4)">
    <path d="M13.9 4.25 L14.3 2.1 21.45 -25.7 21.8 -26.15 22.35 -26.4 27.5 -26.4 27.95 -26.15 28.0 -25.7 20.7 2.75 20.6 3.35 13.9 4.25 M29.05 2.2 L36.2 -25.7 36.55 -26.15 37.1 -26.4 42.25 -26.4 Q42.55 -26.4 42.65 -26.15 L42.75 -25.7 35.85 1.3 29.05 2.2 M-10.05 7.45 L-1.55 -25.7 -1.2 -26.15 -0.7 -26.4 4.5 -26.4 Q4.8 -26.4 4.9 -26.15 L4.95 -25.7 -3.35 6.55 -10.05 7.45 M71.45 -3.5 L77.15 -25.7 77.5 -26.15 78.0 -26.4 83.2 -26.4 83.6 -26.15 83.65 -25.7 78.2 -4.4 71.45 -3.5 M41.9 0.45 L48.6 -25.7 Q48.7 -26.0 48.95 -26.15 L49.45 -26.4 55.25 -26.4 Q55.85 -26.4 55.85 -25.8 L58.2 -2.15 58.3 -2.0 58.5 -2.2 64.55 -25.7 64.9 -26.15 65.45 -26.4 70.55 -26.4 71.0 -26.15 71.05 -25.7 65.15 -2.65 52.7 -1.0 51.7 -11.4 51.5 -11.55 51.3 -11.35 48.55 -0.45 41.9 0.45" fill="#8892a6" fill-rule="evenodd" stroke="none"/>
    <path d="M20.6 3.35 Q20.2 5.2 20.85 6.4 21.65 7.85 23.5 7.85 25.35 7.85 26.85 6.4 28.3 5.0 28.9 2.75 L29.05 2.2 35.85 1.3 35.6 2.1 Q34.3 7.2 30.55 10.35 26.85 13.45 22.05 13.45 17.2 13.45 15.1 10.35 13.45 7.9 13.9 4.25 L20.6 3.35 M-3.35 6.55 L-3.5 7.1 -3.25 7.35 8.9 7.35 Q9.2 7.35 9.3 7.55 L9.35 8.05 8.3 12.3 7.95 12.8 7.45 13.0 -10.85 13.0 Q-11.1 13.0 -11.25 12.8 L-11.3 12.3 -10.05 7.45 -3.35 6.55 M78.2 -4.4 L73.9 12.3 73.55 12.8 73.05 13.0 67.85 13.0 Q67.6 13.0 67.45 12.8 67.3 12.6 67.4 12.3 L71.45 -3.5 78.2 -4.4 M65.15 -2.65 L61.3 12.3 60.95 12.8 60.4 13.0 54.5 13.0 Q53.95 13.0 53.95 12.45 L52.7 -1.0 65.15 -2.65 M48.55 -0.45 L45.3 12.3 44.95 12.8 44.45 13.0 39.3 13.0 Q39.05 13.0 38.9 12.8 38.75 12.6 38.85 12.3 L41.9 0.45 48.55 -0.45" fill="#5079a6" fill-rule="evenodd" stroke="none"/>
  </g>
</svg>
