<?xml version="1.0" encoding="UTF-8" standalone="no"?>
<svg xmlns:xlink="http://www.w3.org/1999/xlink" height="20.2px" width="670.8px" xmlns="http://www.w3.org/2000/svg">
  <g transform="matrix(1.0, 0.0, 0.0, 1.0, 304.25, 9.75)">
    <path d="M164.8 -8.5 L164.8 9.55 M231.7 9.55 L231.7 -8.5 M298.5 -8.5 L298.5 9.55 M-236.45 -8.5 L-236.45 9.55 M-169.55 9.55 L-169.55 -8.5 M-102.65 -8.5 L-102.65 9.55" fill="none" stroke="#ffbdbd" stroke-linecap="round" stroke-linejoin="round" stroke-opacity="0.41960785" stroke-width="1.0"/>
    <path d="M97.9 9.55 L97.9 -8.5 M-35.8 9.55 L-35.8 -8.5" fill="none" stroke="#ffbdbd" stroke-linecap="round" stroke-linejoin="round" stroke-opacity="0.23921569" stroke-width="1.0"/>
    <path d="M140.0 10.15 L-77.65 10.15 -77.65 -9.45 140.0 -9.45 140.0 10.15" fill="url(#gradient0)" fill-rule="evenodd" stroke="none"/>
    <path d="M-303.95 -9.45 L366.25 -9.45 366.25 10.15 -303.95 10.15 -303.95 -9.45 Z" fill="none" stroke="#000000" stroke-linecap="round" stroke-linejoin="round" stroke-opacity="0.36862746" stroke-width="0.6000000000000001"/>
  </g>
  <defs>
    <linearGradient gradientTransform="matrix(0.1308, 0.0, 0.0, 0.012, 30.95, 0.35)" gradientUnits="userSpaceOnUse" id="gradient0" spreadMethod="pad" x1="-819.2" x2="819.2">
      <stop offset="0.0" stop-color="#000000" stop-opacity="0.0"/>
      <stop offset="0.21568627450980393" stop-color="#000000" stop-opacity="0.49803922"/>
      <stop offset="0.7843137254901961" stop-color="#000000" stop-opacity="0.49803922"/>
      <stop offset="1.0" stop-color="#000000" stop-opacity="0.0"/>
    </linearGradient>
  </defs>
</svg>
