<?xml version="1.0" encoding="UTF-8" standalone="no"?>
<svg xmlns:xlink="http://www.w3.org/1999/xlink" height="86.5px" width="237.5px" xmlns="http://www.w3.org/2000/svg">
  <g transform="matrix(1.0, 0.0, 0.0, 1.0, 118.75, 43.25)">
    <path d="M-113.7 -20.5 Q-110.8 -25.9 -106.1 -30.6 -93.4 -43.25 -75.5 -43.25 L75.5 -43.25 Q93.4 -43.25 106.05 -30.6 110.75 -25.9 113.7 -20.5 L-113.7 -20.5 M115.4 17.0 Q112.25 24.4 106.05 30.55 93.4 43.25 75.5 43.25 L-75.5 43.25 Q-93.4 43.25 -106.1 30.55 -112.25 24.4 -115.4 17.0 L115.4 17.0" fill="#000000" fill-opacity="0.7176471" fill-rule="evenodd" stroke="none"/>
    <path d="M113.7 -20.5 Q115.2 -17.8 116.25 -14.95 118.75 -8.0 118.75 0.0 118.75 6.35 117.15 12.05 L115.4 17.0 -115.4 17.0 -117.15 12.05 Q-118.75 6.35 -118.75 0.0 -118.75 -8.0 -116.2 -14.95 -115.2 -17.8 -113.7 -20.5 L113.7 -20.5" fill="#000000" fill-opacity="0.8784314" fill-rule="evenodd" stroke="none"/>
  </g>
</svg>
