<?xml version="1.0" encoding="UTF-8" standalone="no"?>
<svg xmlns:xlink="http://www.w3.org/1999/xlink" height="23.65px" width="49.65px" xmlns="http://www.w3.org/2000/svg">
  <g transform="matrix(1.0, 0.0, 0.0, 1.0, -49.6, 11.1)">
    <path d="M53.45 -9.15 L53.7 -9.05 53.8 -8.8 53.8 -6.4 53.7 -6.15 53.45 -6.05 50.35 -6.05 50.35 -9.15 53.45 -9.15 M66.1 12.55 Q65.75 12.55 65.75 12.2 L65.15 8.95 64.95 8.8 60.4 8.8 Q60.25 8.8 60.25 8.95 L59.65 12.2 59.25 12.55 56.4 12.55 Q56.0 12.55 56.1 12.15 L60.7 -8.8 Q60.75 -9.15 61.05 -9.15 L64.35 -9.15 Q64.7 -9.15 64.75 -8.8 L69.35 12.15 69.35 12.3 69.0 12.55 66.1 12.55 M60.8 5.85 L60.95 6.0 64.4 6.0 64.55 5.85 62.75 -4.0 62.65 -4.05 62.55 -4.0 60.8 5.85 M81.05 12.55 L80.65 12.25 78.0 3.35 77.85 3.25 76.2 3.25 Q76.05 3.25 76.05 3.4 L76.05 12.15 75.95 12.45 75.7 12.55 72.85 12.55 72.6 12.45 72.5 12.15 72.5 -8.8 72.6 -9.05 72.85 -9.15 78.65 -9.15 Q80.3 -9.15 81.6 -8.35 82.85 -7.55 83.55 -6.15 84.25 -4.7 84.25 -2.85 84.25 -0.9 83.5 0.5 82.75 1.9 81.4 2.6 L81.3 2.8 84.35 12.1 84.4 12.3 84.05 12.55 81.05 12.55 M76.2 -6.05 L76.05 -5.9 76.05 0.25 Q76.05 0.45 76.2 0.45 L78.1 0.45 Q79.25 0.45 79.95 -0.45 80.6 -1.3 80.6 -2.8 80.6 -4.3 79.95 -5.15 79.25 -6.05 78.1 -6.05 L76.2 -6.05 M98.9 -9.15 L99.15 -9.05 99.25 -8.8 99.25 -6.4 99.15 -6.15 98.9 -6.05 94.95 -6.05 94.8 -5.9 94.8 12.15 94.7 12.45 94.45 12.55 91.6 12.55 91.3 12.45 91.2 12.15 91.2 -5.9 91.05 -6.05 87.35 -6.05 87.1 -6.15 86.95 -6.4 86.95 -8.8 87.1 -9.05 87.35 -9.15 98.9 -9.15" fill="url(#gradient0)" fill-rule="evenodd" stroke="none"/>
    <path d="M50.35 -7.25 L50.35 -10.35 52.2 -10.35 52.45 -10.25 52.55 -10.0 52.55 -7.6 52.45 -7.35 52.2 -7.25 50.35 -7.25 M64.85 11.35 Q64.5 11.35 64.5 11.0 L63.9 7.75 Q63.9 7.6 63.7 7.6 L59.15 7.6 Q59.0 7.6 59.0 7.75 L58.4 11.0 58.0 11.35 55.15 11.35 Q54.75 11.35 54.85 10.95 L59.45 -10.0 Q59.5 -10.35 59.8 -10.35 L63.1 -10.35 63.5 -10.0 68.1 10.95 68.1 11.1 67.75 11.35 64.85 11.35 M59.55 4.65 L59.7 4.8 63.15 4.8 63.3 4.65 61.5 -5.2 61.4 -5.25 61.3 -5.2 59.55 4.65 M79.8 11.35 Q79.5 11.35 79.4 11.05 L76.75 2.15 76.6 2.05 74.95 2.05 Q74.8 2.05 74.8 2.2 L74.8 10.95 74.7 11.25 74.45 11.35 71.6 11.35 71.35 11.25 71.25 10.95 71.25 -10.0 71.35 -10.25 71.6 -10.35 77.4 -10.35 Q79.05 -10.35 80.35 -9.55 81.6 -8.75 82.3 -7.35 83.0 -5.9 83.0 -4.05 83.0 -2.1 82.25 -0.7 81.5 0.7 80.15 1.4 L80.05 1.6 83.1 10.9 83.15 11.1 82.8 11.35 79.8 11.35 M74.95 -7.25 L74.8 -7.1 74.8 -0.95 Q74.8 -0.75 74.95 -0.75 L76.85 -0.75 Q78.0 -0.75 78.7 -1.65 79.35 -2.5 79.35 -4.0 79.35 -5.5 78.7 -6.35 78.0 -7.25 76.85 -7.25 L74.95 -7.25 M97.65 -10.35 L97.9 -10.25 98.0 -10.0 98.0 -7.6 97.9 -7.35 Q97.8 -7.25 97.65 -7.25 L93.7 -7.25 93.55 -7.1 93.55 10.95 93.45 11.25 93.2 11.35 90.35 11.35 90.05 11.25 89.95 10.95 89.95 -7.1 89.8 -7.25 86.1 -7.25 Q85.95 -7.25 85.85 -7.35 L85.7 -7.6 85.7 -10.0 85.85 -10.25 86.1 -10.35 97.65 -10.35" fill="url(#gradient1)" fill-rule="evenodd" stroke="none"/>
    <path d="M50.35 -7.25 L52.2 -7.25 52.45 -7.35 52.55 -7.6 52.55 -10.0 52.45 -10.25 52.2 -10.35 50.35 -10.35 M64.85 11.35 Q64.5 11.35 64.5 11.0 L63.9 7.75 Q63.9 7.6 63.7 7.6 L59.15 7.6 Q59.0 7.6 59.0 7.75 L58.4 11.0 58.0 11.35 55.15 11.35 Q54.75 11.35 54.85 10.95 L59.45 -10.0 Q59.5 -10.35 59.8 -10.35 L63.1 -10.35 63.5 -10.0 68.1 10.95 68.1 11.1 67.75 11.35 64.85 11.35 M59.55 4.65 L59.7 4.8 63.15 4.8 63.3 4.65 61.5 -5.2 61.4 -5.25 61.3 -5.2 59.55 4.65 M79.8 11.35 Q79.5 11.35 79.4 11.05 L76.75 2.15 76.6 2.05 74.95 2.05 Q74.8 2.05 74.8 2.2 L74.8 10.95 74.7 11.25 74.45 11.35 71.6 11.35 71.35 11.25 71.25 10.95 71.25 -10.0 71.35 -10.25 71.6 -10.35 77.4 -10.35 Q79.05 -10.35 80.35 -9.55 81.6 -8.75 82.3 -7.35 83.0 -5.9 83.0 -4.05 83.0 -2.1 82.25 -0.7 81.5 0.7 80.15 1.4 L80.05 1.6 83.1 10.9 83.15 11.1 82.8 11.35 79.8 11.35 M74.95 -7.25 L74.8 -7.1 74.8 -0.95 Q74.8 -0.75 74.95 -0.75 L76.85 -0.75 Q78.0 -0.75 78.7 -1.65 79.35 -2.5 79.35 -4.0 79.35 -5.5 78.7 -6.35 78.0 -7.25 76.85 -7.25 L74.95 -7.25 M97.65 -10.35 L97.9 -10.25 98.0 -10.0 98.0 -7.6 97.9 -7.35 Q97.8 -7.25 97.65 -7.25 L93.7 -7.25 93.55 -7.1 93.55 10.95 93.45 11.25 93.2 11.35 90.35 11.35 90.05 11.25 89.95 10.95 89.95 -7.1 89.8 -7.25 86.1 -7.25 Q85.95 -7.25 85.85 -7.35 L85.7 -7.6 85.7 -10.0 85.85 -10.25 86.1 -10.35 97.65 -10.35" fill="none" stroke="#000000" stroke-linecap="round" stroke-linejoin="round" stroke-opacity="0.21960784" stroke-width="1.5"/>
  </g>
  <defs>
    <linearGradient gradientTransform="matrix(0.0, 0.0127, -0.0864, 0.0, 28.45, 1.55)" gradientUnits="userSpaceOnUse" id="gradient0" spreadMethod="pad" x1="-819.2" x2="819.2">
      <stop offset="0.0" stop-color="#22212c"/>
      <stop offset="1.0" stop-color="#1c151a"/>
    </linearGradient>
    <linearGradient gradientTransform="matrix(0.0, 0.0127, -0.0864, 0.0, 27.2, 0.35)" gradientUnits="userSpaceOnUse" id="gradient1" spreadMethod="pad" x1="-819.2" x2="819.2">
      <stop offset="0.0" stop-color="#c3c2ff"/>
      <stop offset="1.0" stop-color="#ffbfed"/>
    </linearGradient>
  </defs>
</svg>
