<?xml version="1.0" encoding="UTF-8" standalone="no"?>
<svg xmlns:xlink="http://www.w3.org/1999/xlink" height="72.2px" width="255.25px" xmlns="http://www.w3.org/2000/svg">
  <g transform="matrix(1.0, 0.0, 0.0, 1.0, 127.6, 36.1)">
    <path d="M-91.5 -32.6 L91.55 -32.6 Q105.05 -32.6 114.6 -23.05 124.15 -13.5 124.15 0.0 124.15 13.5 114.6 23.05 105.05 32.6 91.55 32.6 L-91.5 32.6 Q-105.0 32.6 -114.55 23.05 -124.1 13.5 -124.1 0.0 -124.1 -13.5 -114.55 -23.05 -105.0 -32.6 -91.5 -32.6 Z" fill="none" stroke="#cde5ff" stroke-linecap="round" stroke-linejoin="round" stroke-opacity="0.21960784" stroke-width="7.0"/>
    <path d="M-91.5 -32.6 L91.55 -32.6 Q105.05 -32.6 114.6 -23.05 124.15 -13.5 124.15 0.0 124.15 13.5 114.6 23.05 105.05 32.6 91.55 32.6 L-91.5 32.6 Q-105.0 32.6 -114.55 23.05 -124.1 13.5 -124.1 0.0 -124.1 -13.5 -114.55 -23.05 -105.0 -32.6 -91.5 -32.6 Z" fill="none" stroke="#181a2e" stroke-linecap="round" stroke-linejoin="round" stroke-opacity="0.49803922" stroke-width="5.0"/>
    <path d="M91.55 -28.1 L-91.5 -28.1 Q-103.15 -28.1 -111.35 -19.85 -119.6 -11.65 -119.6 0.0 -119.6 11.65 -111.35 19.9 -103.15 28.1 -91.5 28.1 L91.55 28.1 Q103.2 28.1 111.45 19.9 119.65 11.65 119.65 0.0 119.65 -11.65 111.45 -19.85 103.2 -28.1 91.55 -28.1 M-91.5 -32.6 L91.55 -32.6 Q105.05 -32.6 114.6 -23.05 124.15 -13.5 124.15 0.0 124.15 13.5 114.6 23.05 105.05 32.6 91.55 32.6 L-91.5 32.6 Q-105.0 32.6 -114.55 23.05 -124.1 13.5 -124.1 0.0 -124.1 -13.5 -114.55 -23.05 -105.0 -32.6 -91.5 -32.6" fill="url(#gradient0)" fill-rule="evenodd" stroke="none"/>
    <path d="M91.55 -28.1 Q103.2 -28.1 111.45 -19.85 119.65 -11.65 119.65 0.0 119.65 11.65 111.45 19.9 103.2 28.1 91.55 28.1 L-91.5 28.1 Q-103.15 28.1 -111.35 19.9 -119.6 11.65 -119.6 0.0 -119.6 -11.65 -111.35 -19.85 -103.15 -28.1 -91.5 -28.1 L91.55 -28.1" fill="url(#gradient1)" fill-rule="evenodd" stroke="none"/>
    <path d="M91.55 -33.6 Q105.45 -33.6 115.3 -23.75 125.15 -13.9 125.15 0.0 125.15 13.9 115.3 23.75 105.45 33.6 91.55 33.6 L-91.5 33.6 Q-105.4 33.6 -115.25 23.75 -125.1 13.9 -125.1 0.0 -125.1 -13.9 -115.25 -23.75 -105.4 -33.6 -91.5 -33.6 L91.55 -33.6 M-91.5 -31.6 Q-104.6 -31.6 -113.85 -22.35 -123.1 -13.1 -123.1 0.0 -123.1 13.1 -113.85 22.35 -104.6 31.6 -91.5 31.6 L91.55 31.6 Q104.65 31.6 113.9 22.35 123.15 13.1 123.15 0.0 123.15 -13.1 113.9 -22.35 104.65 -31.6 91.55 -31.6 L-91.5 -31.6" fill="url(#gradient2)" fill-rule="evenodd" stroke="none"/>
  </g>
  <defs>
    <linearGradient gradientTransform="matrix(0.0, 0.0386, -0.1515, 0.0, 0.05, 1.6)" gradientUnits="userSpaceOnUse" id="gradient0" spreadMethod="pad" x1="-819.2" x2="819.2">
      <stop offset="0.0" stop-color="#35445f"/>
      <stop offset="1.0" stop-color="#744767"/>
    </linearGradient>
    <linearGradient gradientTransform="matrix(0.0, 0.0386, -0.1515, 0.0, 0.05, 1.6)" gradientUnits="userSpaceOnUse" id="gradient1" spreadMethod="pad" x1="-819.2" x2="819.2">
      <stop offset="0.0" stop-color="#232846"/>
      <stop offset="1.0" stop-color="#5d3953"/>
    </linearGradient>
    <linearGradient gradientTransform="matrix(0.0, 0.0404, -0.1527, 0.0, 0.05, 0.4)" gradientUnits="userSpaceOnUse" id="gradient2" spreadMethod="pad" x1="-819.2" x2="819.2">
      <stop offset="0.0" stop-color="#8ab6ff"/>
      <stop offset="1.0" stop-color="#ff9ce3"/>
    </linearGradient>
  </defs>
</svg>
