<?xml version="1.0" encoding="UTF-8" standalone="no"?>
<svg xmlns:xlink="http://www.w3.org/1999/xlink" height="358.35px" width="478.85px" xmlns="http://www.w3.org/2000/svg">
  <g transform="matrix(1.0, 0.0, 0.0, 1.0, 239.45, 141.2)">
    <path d="M-238.45 -97.45 L-238.45 -131.85 Q-238.45 -140.2 -230.05 -140.2 L230.0 -140.2 Q238.4 -140.2 238.4 -131.85 L238.4 -97.45 -238.45 -97.45" fill="#13173c" fill-opacity="0.8" fill-rule="evenodd" stroke="none"/>
    <path d="M238.4 -97.45 L238.4 -59.25 -238.45 -59.25 -238.45 -97.45 238.4 -97.45" fill="url(#gradient0)" fill-rule="evenodd" stroke="none"/>
    <path d="M238.4 -59.25 L238.4 207.75 Q238.4 216.15 230.0 216.15 L-230.05 216.15 Q-238.45 216.15 -238.45 207.75 L-238.45 -59.25 238.4 -59.25" fill="url(#gradient1)" fill-rule="evenodd" stroke="none"/>
    <path d="M-238.45 -97.45 L-238.45 -131.85 Q-238.45 -140.2 -230.05 -140.2 L230.0 -140.2 Q238.4 -140.2 238.4 -131.85 L238.4 -97.45 238.4 -59.25 238.4 207.75 Q238.4 216.15 230.0 216.15 L-230.05 216.15 Q-238.45 216.15 -238.45 207.75 L-238.45 -59.25 -238.45 -97.45" fill="none" stroke="#afc8ff" stroke-linecap="round" stroke-linejoin="round" stroke-opacity="0.6" stroke-width="2.0"/>
    <path d="M-238.45 -97.45 L238.4 -97.45" fill="none" stroke="#afc8ff" stroke-linecap="round" stroke-linejoin="round" stroke-opacity="0.6" stroke-width="1.0"/>
  </g>
  <defs>
    <linearGradient gradientTransform="matrix(0.0, 0.0187, -0.291, 0.0, 0.0, -81.55)" gradientUnits="userSpaceOnUse" id="gradient0" spreadMethod="pad" x1="-819.2" x2="819.2">
      <stop offset="0.0" stop-color="#0c0f35" stop-opacity="0.54901963"/>
      <stop offset="1.0" stop-color="#12173a" stop-opacity="0.0"/>
    </linearGradient>
    <linearGradient gradientTransform="matrix(0.0, -0.0171, 0.291, 0.0, -0.05, 143.05)" gradientUnits="userSpaceOnUse" id="gradient1" spreadMethod="pad" x1="-819.2" x2="819.2">
      <stop offset="0.0" stop-color="#0c0f35" stop-opacity="0.84705883"/>
      <stop offset="0.6392156862745098" stop-color="#12173a" stop-opacity="0.0"/>
    </linearGradient>
  </defs>
</svg>
