<?xml version="1.0" encoding="UTF-8" standalone="no"?>
<svg xmlns:xlink="http://www.w3.org/1999/xlink" height="69.75px" width="674.0px" xmlns="http://www.w3.org/2000/svg">
  <g transform="matrix(1.0, 0.0, 0.0, 1.0, 446.55, -110.75)">
    <path d="M205.65 142.4 Q206.9 143.75 206.9 145.35 206.9 146.85 205.65 148.15 204.55 149.25 202.95 149.25 201.35 149.25 200.0 148.15 198.95 146.85 198.95 145.35 198.95 143.75 200.0 142.4 201.35 141.55 202.95 141.55 204.55 141.55 205.65 142.4 M226.7 144.25 Q227.05 144.35 227.45 145.15 L227.45 145.35 227.45 146.1 227.45 146.5 226.85 147.3 226.75 147.3 210.75 161.95 Q210.05 162.55 209.25 162.55 208.25 162.55 207.65 161.95 L207.6 161.8 Q207.2 161.25 207.2 160.3 207.2 159.4 207.8 158.65 L222.15 145.6 207.8 131.7 Q207.2 131.05 207.2 130.25 207.2 129.35 207.65 128.65 208.35 128.0 209.4 128.0 210.2 128.0 210.75 128.65 L226.7 144.25 M4.7 142.4 Q5.8 141.55 7.4 141.55 9.0 141.55 10.35 142.4 11.4 143.75 11.4 145.35 11.4 146.85 10.35 148.15 9.0 149.25 7.4 149.25 5.8 149.25 4.7 148.15 3.45 146.85 3.45 145.35 3.45 143.75 4.7 142.4 M-16.35 144.25 L-0.4 128.65 Q0.15 128.0 0.95 128.0 2.0 128.0 2.7 128.65 3.15 129.35 3.15 130.25 3.15 131.05 2.55 131.7 L-11.8 145.6 2.55 158.65 Q3.15 159.4 3.15 160.3 3.15 161.25 2.75 161.8 L2.7 161.95 Q2.1 162.55 1.1 162.55 0.3 162.55 -0.4 161.95 L-16.4 147.3 -16.5 147.3 -17.1 146.5 -17.1 146.1 -17.1 145.35 -17.1 145.15 Q-16.7 144.35 -16.35 144.25" fill="#adbef0" fill-opacity="0.6784314" fill-rule="evenodd" stroke="none"/>
    <path d="M-234.45 144.0 L-234.45 168.7 Q-234.45 180.0 -245.75 180.0 L-296.9 180.0 -434.75 180.0 Q-446.05 180.0 -446.05 168.7 L-446.05 144.0 -446.05 122.55 Q-446.05 111.25 -434.75 111.25 L-245.75 111.25 Q-234.45 111.25 -234.45 122.55 L-234.45 144.0 -296.9 144.0 -296.9 180.0 -296.9 144.0 -234.45 144.0 M-296.9 144.0 L-446.05 144.0 -296.9 144.0" fill="#11193a" fill-opacity="0.85882354" fill-rule="evenodd" stroke="none"/>
    <path d="M-234.45 144.0 L-234.45 168.7 Q-234.45 180.0 -245.75 180.0 L-296.9 180.0 -434.75 180.0 Q-446.05 180.0 -446.05 168.7 L-446.05 144.0 -446.05 122.55 Q-446.05 111.25 -434.75 111.25 L-245.75 111.25 Q-234.45 111.25 -234.45 122.55 L-234.45 144.0 -296.9 144.0 -296.9 180.0 M-446.05 144.0 L-296.9 144.0" fill="none" stroke="#5789ad" stroke-linecap="round" stroke-linejoin="round" stroke-opacity="0.6862745" stroke-width="1.0"/>
  </g>
</svg>
