<?xml version="1.0" encoding="UTF-8" standalone="no"?>
<svg xmlns:xlink="http://www.w3.org/1999/xlink" height="39.45px" width="309.1px" xmlns="http://www.w3.org/2000/svg">
  <g transform="matrix(1.0, 0.0, 0.0, 1.0, 95.1, 18.2)">
    <path d="M-75.4 -17.7 L194.25 -17.7 Q202.25 -17.7 207.85 -12.1 213.5 -6.45 213.5 1.5 L213.5 1.55 Q213.5 9.5 207.85 15.1 202.25 20.75 194.25 20.75 L-75.4 20.75 Q-83.35 20.75 -89.0 15.1 -94.6 9.5 -94.6 1.55 L-94.6 1.5 Q-94.6 -6.45 -89.0 -12.1 -83.35 -17.7 -75.4 -17.7" fill="#1a1b23" fill-opacity="0.69803923" fill-rule="evenodd" stroke="none"/>
    <path d="M-75.4 -17.7 L194.25 -17.7 Q202.25 -17.7 207.85 -12.1 213.5 -6.45 213.5 1.5 L213.5 1.55 Q213.5 9.5 207.85 15.1 202.25 20.75 194.25 20.75 L-75.4 20.75 Q-83.35 20.75 -89.0 15.1 -94.6 9.5 -94.6 1.55 L-94.6 1.5 Q-94.6 -6.45 -89.0 -12.1 -83.35 -17.7 -75.4 -17.7 Z" fill="none" stroke="#eeeeee" stroke-linecap="round" stroke-linejoin="round" stroke-opacity="0.41960785" stroke-width="1.0"/>
  </g>
</svg>
