<?xml version="1.0" encoding="UTF-8" standalone="no"?>
<svg xmlns:xlink="http://www.w3.org/1999/xlink" height="39.45px" width="190.2px" xmlns="http://www.w3.org/2000/svg">
  <g transform="matrix(1.0, 0.0, 0.0, 1.0, 111.65, 19.45)">
    <path d="M-91.95 -18.95 L58.8 -18.95 Q66.8 -18.95 72.4 -13.35 78.05 -7.7 78.05 0.25 L78.05 0.3 Q78.05 8.25 72.4 13.85 66.8 19.5 58.8 19.5 L-91.95 19.5 Q-99.9 19.5 -105.55 13.85 -111.15 8.25 -111.15 0.3 L-111.15 0.25 Q-111.15 -7.7 -105.55 -13.35 -99.9 -18.95 -91.95 -18.95" fill="#1a1b23" fill-opacity="0.69803923" fill-rule="evenodd" stroke="none"/>
    <path d="M-91.95 -18.95 L58.8 -18.95 Q66.8 -18.95 72.4 -13.35 78.05 -7.7 78.05 0.25 L78.05 0.3 Q78.05 8.25 72.4 13.85 66.8 19.5 58.8 19.5 L-91.95 19.5 Q-99.9 19.5 -105.55 13.85 -111.15 8.25 -111.15 0.3 L-111.15 0.25 Q-111.15 -7.7 -105.55 -13.35 -99.9 -18.95 -91.95 -18.95 Z" fill="none" stroke="#eeeeee" stroke-linecap="round" stroke-linejoin="round" stroke-opacity="0.41960785" stroke-width="1.0"/>
  </g>
</svg>
