<?xml version="1.0" encoding="UTF-8" standalone="no"?>
<svg xmlns:xlink="http://www.w3.org/1999/xlink" height="44.45px" width="203.7px" xmlns="http://www.w3.org/2000/svg">
  <g transform="matrix(1.0, 0.0, 0.0, 1.0, 142.8, 21.4)">
    <path d="M-124.55 -18.9 L42.65 -18.9 Q49.15 -18.9 53.75 -14.3 58.4 -9.65 58.4 -3.15 L58.4 4.8 Q58.4 11.3 53.75 15.9 49.15 20.55 42.65 20.55 L-124.55 20.55 Q-131.05 20.55 -135.7 15.9 -140.3 11.3 -140.3 4.8 L-140.3 -3.15 Q-140.3 -9.65 -135.7 -14.3 -131.05 -18.9 -124.55 -18.9 Z" fill="none" stroke="#000000" stroke-linecap="round" stroke-linejoin="round" stroke-opacity="0.9764706" stroke-width="5.0"/>
    <path d="M-32.9 19.75 L-124.55 19.75 Q-131.05 19.75 -135.7 15.1 -140.3 10.5 -140.3 4.0 L-140.3 -3.95 Q-140.3 -10.45 -135.7 -15.1 -131.05 -19.7 -124.55 -19.7 L-32.9 -19.7 -32.9 -18.2 -32.9 18.25 -32.9 19.75" fill="#13252a" fill-rule="evenodd" stroke="none"/>
    <path d="M-32.55 -19.7 L42.65 -19.7 Q49.15 -19.7 53.75 -15.1 58.4 -10.45 58.4 -3.95 L58.4 4.0 Q58.4 10.5 53.75 15.1 49.15 19.75 42.65 19.75 L-32.55 19.75 -32.9 19.75 -32.9 18.25 -32.9 -18.2 -32.9 -19.7 -32.55 -19.7" fill="#221d3a" fill-rule="evenodd" stroke="none"/>
    <path d="M-32.9 18.25 L-32.9 -18.2" fill="none" stroke="#706d93" stroke-linecap="round" stroke-linejoin="round" stroke-opacity="0.9764706" stroke-width="1.0"/>
    <path d="M-32.55 19.75 L-32.9 19.75 -124.55 19.75 Q-131.05 19.75 -135.7 15.1 -140.3 10.5 -140.3 4.0 L-140.3 -3.95 Q-140.3 -10.45 -135.7 -15.1 -131.05 -19.7 -124.55 -19.7 L-32.9 -19.7 -32.55 -19.7" fill="none" stroke="#4a6a6d" stroke-linecap="round" stroke-linejoin="round" stroke-opacity="0.9764706" stroke-width="1.5"/>
    <path d="M-32.55 -19.7 L42.65 -19.7 Q49.15 -19.7 53.75 -15.1 58.4 -10.45 58.4 -3.95 L58.4 4.0 Q58.4 10.5 53.75 15.1 49.15 19.75 42.65 19.75 L-32.55 19.75" fill="none" stroke="#68587b" stroke-linecap="round" stroke-linejoin="round" stroke-opacity="0.9764706" stroke-width="1.5"/>
  </g>
</svg>
