<?xml version="1.0" encoding="UTF-8" standalone="no"?>
<svg xmlns:xlink="http://www.w3.org/1999/xlink" height="69.65px" width="172.9px" xmlns="http://www.w3.org/2000/svg">
  <g transform="matrix(1.0, 0.0, 0.0, 1.0, 87.95, 35.55)">
    <path d="M41.1 -34.0 L57.5 -20.85 83.45 0.0 41.1 34.05 41.1 -34.0 M-44.0 34.1 L-86.45 0.05 -56.45 -24.05 -44.0 -34.05 -44.0 34.1" fill="url(#gradient0)" fill-rule="evenodd" stroke="none"/>
    <path d="M-44.0 -34.05 L41.05 -34.05 41.1 -34.0 41.1 34.05 41.05 34.1 -44.0 34.1 -44.0 -34.05" fill="url(#gradient1)" fill-rule="evenodd" stroke="none"/>
    <path d="M41.1 -34.0 L57.5 -20.85 64.0 -24.9 70.15 -20.05 M-44.0 -34.05 L41.05 -34.05 41.1 -34.0 M83.45 0.0 L57.5 -20.85 M-86.45 0.05 L-56.45 -24.05 -62.25 -28.2 -56.4 -33.35 M-56.45 -24.05 L-44.0 -34.05" fill="none" stroke="#77e4ff" stroke-linecap="round" stroke-linejoin="round" stroke-opacity="0.69803923" stroke-width="3.0"/>
  </g>
  <defs>
    <linearGradient gradientTransform="matrix(0.0, 0.0372, -0.1037, 0.0, -1.5, 5.55)" gradientUnits="userSpaceOnUse" id="gradient0" spreadMethod="pad" x1="-819.2" x2="819.2">
      <stop offset="0.0" stop-color="#0b1720"/>
      <stop offset="1.0" stop-color="#000000"/>
    </linearGradient>
    <linearGradient gradientTransform="matrix(0.0, 0.0374, -0.0519, 0.0, -1.45, 1.0)" gradientUnits="userSpaceOnUse" id="gradient1" spreadMethod="pad" x1="-819.2" x2="819.2">
      <stop offset="0.0" stop-color="#1c3a4f"/>
      <stop offset="0.984313725490196" stop-color="#091219"/>
    </linearGradient>
  </defs>
</svg>
