<?xml version="1.0" encoding="UTF-8" standalone="no"?>
<svg xmlns:xlink="http://www.w3.org/1999/xlink" height="37.85px" width="67.95px" xmlns="http://www.w3.org/2000/svg">
  <g transform="matrix(1.0, 0.0, 0.0, 1.0, 33.95, 13.45)">
    <path d="M-15.05 -13.45 L15.1 -13.45 Q22.95 -13.45 28.45 -7.95 34.0 -2.4 34.0 5.45 L34.0 5.5 Q34.0 13.35 28.45 18.85 22.95 24.4 15.1 24.4 L-15.05 24.4 Q-22.9 24.4 -28.45 18.85 -33.95 13.35 -33.95 5.5 L-33.95 5.45 Q-33.95 -2.4 -28.45 -7.95 -22.9 -13.45 -15.05 -13.45 M-14.35 15.25 Q-13.35 15.25 -12.7 14.6 L-12.55 14.45 -12.4 14.3 Q-11.75 13.65 -11.75 12.65 L-11.75 7.0 -6.1 7.0 Q-5.15 7.0 -4.45 6.35 L-4.25 6.15 -4.15 6.05 Q-3.45 5.35 -3.45 4.45 -3.45 3.45 -4.15 2.8 -4.85 2.1 -5.8 2.1 L-11.75 2.1 -11.75 -3.85 Q-11.75 -4.85 -12.4 -5.5 -13.05 -6.15 -14.05 -6.15 -14.95 -6.15 -15.65 -5.45 L-15.75 -5.3 -15.95 -5.15 Q-16.6 -4.5 -16.6 -3.55 L-16.6 2.1 -22.3 2.1 Q-23.25 2.1 -23.9 2.75 L-24.05 2.9 -24.2 3.05 Q-24.85 3.7 -24.85 4.7 -24.85 5.65 -24.2 6.35 -23.55 7.0 -22.6 7.0 L-16.6 7.0 -16.6 12.95 Q-16.6 13.95 -15.95 14.6 -15.3 15.25 -14.35 15.25 M14.35 10.65 Q14.35 8.95 13.1 7.7 11.9 6.5 10.2 6.5 8.5 6.5 7.25 7.7 6.05 8.95 6.05 10.65 6.05 12.35 7.25 13.55 8.5 14.8 10.2 14.8 11.9 14.8 13.1 13.55 14.35 12.35 14.35 10.65 M24.1 0.6 Q24.1 -1.1 22.85 -2.35 21.65 -3.55 19.95 -3.55 18.25 -3.55 17.0 -2.35 15.8 -1.1 15.8 0.6 15.8 2.3 17.0 3.5 18.25 4.75 19.95 4.75 21.65 4.75 22.85 3.5 24.1 2.3 24.1 0.6" fill="#85b6d9" fill-rule="evenodd" stroke="none"/>
  </g>
</svg>
