<?xml version="1.0" encoding="UTF-8" standalone="no"?>
<svg xmlns:xlink="http://www.w3.org/1999/xlink" height="99.6px" width="486.5px" xmlns="http://www.w3.org/2000/svg">
  <g transform="matrix(1.0, 0.0, 0.0, 1.0, 249.55, -104.9)">
    <path d="M210.1 104.9 Q236.95 104.9 236.95 129.15 L236.95 180.25 Q236.95 192.5 230.15 198.6 226.55 201.75 221.2 203.2 216.35 204.5 210.1 204.5 L108.5 204.5 Q81.55 204.5 81.55 180.25 L81.55 129.15 Q81.55 104.9 108.5 104.9 L210.1 104.9 M43.95 104.9 Q70.9 104.9 70.9 129.15 L70.9 180.25 Q70.9 204.5 43.95 204.5 L-57.6 204.5 Q-84.55 204.5 -84.55 180.25 L-84.55 129.15 Q-84.55 104.9 -57.6 104.9 L43.95 104.9 M-120.9 104.9 Q-94.0 104.9 -94.0 129.15 L-94.0 180.25 Q-94.0 204.5 -120.9 204.5 L-222.6 204.5 Q-249.55 204.5 -249.55 180.25 L-249.55 129.15 Q-249.55 104.9 -222.6 104.9 L-120.9 104.9" fill="#3c3262" fill-opacity="0.76862746" fill-rule="evenodd" stroke="none"/>
  </g>
</svg>
