<?xml version="1.0" encoding="UTF-8" standalone="no"?>
<svg xmlns:xlink="http://www.w3.org/1999/xlink" height="66.7px" width="63.3px" xmlns="http://www.w3.org/2000/svg">
  <g transform="matrix(1.0, 0.0, 0.0, 1.0, 32.05, 34.7)">
    <path d="M16.45 21.95 L20.6 26.15 M8.8 24.45 L9.85 29.75 M22.15 18.2 L28.1 19.9 M24.35 13.5 L30.25 13.5 M-0.4 25.75 L-0.4 31.0 M-17.3 21.95 L-21.45 26.15 M-25.2 13.5 L-31.05 13.5 M-23.0 18.2 L-28.95 19.9 M-9.65 24.45 L-10.65 29.75" fill="none" stroke="#616787" stroke-linecap="round" stroke-linejoin="round" stroke-width="2.0"/>
    <path d="M10.15 -32.45 L-1.65 -28.5 Q-3.95 -28.25 -5.65 -27.45 -7.95 -26.4 -7.95 -24.85 L-7.95 -24.8 Q-7.95 -23.35 -5.65 -22.25 -3.25 -21.25 0.05 -21.25 3.35 -21.25 5.7 -22.25 7.75 -23.25 8.0 -24.55 L8.05 -24.85 8.05 -25.2 17.3 -29.25 Q20.15 -27.2 20.15 -24.5 L20.1 -23.65 Q19.55 -20.4 14.3 -18.05 8.4 -15.35 0.05 -15.35 -8.3 -15.35 -14.25 -18.05 -19.95 -20.6 -20.05 -24.35 L-20.05 -24.5 Q-20.05 -28.35 -14.25 -31.05 -8.3 -33.7 0.05 -33.7 5.7 -33.7 10.15 -32.45 M20.1 12.6 L20.1 10.95 20.15 11.75 20.1 12.6" fill="#333333" fill-rule="evenodd" stroke="none"/>
    <path d="M17.3 -29.25 L8.05 -25.2 8.05 -24.85 8.0 -24.55 Q7.75 -23.25 5.7 -22.25 3.35 -21.25 0.05 -21.25 -3.25 -21.25 -5.65 -22.25 -7.95 -23.35 -7.95 -24.8 L-7.95 -24.85 Q-7.95 -26.4 -5.65 -27.45 -3.95 -28.25 -1.65 -28.5 L10.15 -32.45 Q12.35 -31.85 14.3 -31.05 L17.3 -29.25" fill="#97a1d2" fill-rule="evenodd" stroke="none"/>
    <path d="M-20.05 -24.35 Q-19.95 -20.6 -14.25 -18.05 -8.3 -15.35 0.05 -15.35 8.4 -15.35 14.3 -18.05 19.55 -20.4 20.1 -23.65 L20.1 10.95 20.1 12.6 Q19.55 15.85 14.3 18.25 8.4 20.9 0.05 20.9 -8.3 20.9 -14.25 18.25 -20.0 15.6 -20.05 11.9 L-20.05 -24.35" fill="#202020" fill-rule="evenodd" stroke="none"/>
    <path d="M10.15 -32.45 Q5.7 -33.7 0.05 -33.7 -8.3 -33.7 -14.25 -31.05 -20.05 -28.35 -20.05 -24.5 L-20.05 -24.35 Q-19.95 -20.6 -14.25 -18.05 -8.3 -15.35 0.05 -15.35 8.4 -15.35 14.3 -18.05 19.55 -20.4 20.1 -23.65 L20.15 -24.5 Q20.15 -27.2 17.3 -29.25 L14.3 -31.05 Q12.35 -31.85 10.15 -32.45 M20.1 12.6 Q19.55 15.85 14.3 18.25 8.4 20.9 0.05 20.9 -8.3 20.9 -14.25 18.25 -20.0 15.6 -20.05 11.9 L-20.05 -24.35 M20.1 10.95 L20.1 12.6 20.15 11.75 20.1 10.95 20.1 -23.65" fill="none" stroke="#000000" stroke-linecap="round" stroke-linejoin="round" stroke-width="2.0"/>
    <path d="M17.3 -29.25 L8.05 -25.2 8.05 -24.85 8.0 -24.55 Q7.75 -23.25 5.7 -22.25 3.35 -21.25 0.05 -21.25 -3.25 -21.25 -5.65 -22.25 -7.95 -23.35 -7.95 -24.8 L-7.95 -24.85 Q-7.95 -26.4 -5.65 -27.45 -3.95 -28.25 -1.65 -28.5 L10.15 -32.45 Z" fill="none" stroke="#000000" stroke-linecap="round" stroke-linejoin="round" stroke-opacity="0.3882353" stroke-width="1.0"/>
    <path d="M6.7 -13.45 L6.7 17.25 M14.05 -15.35 L14.05 14.6 M-14.45 -16.35 L-14.45 14.7 M-7.45 -13.7 L-7.45 17.5 M-0.75 -12.9 L-0.75 18.25" fill="none" stroke="#000000" stroke-linecap="round" stroke-linejoin="round" stroke-opacity="0.3882353" stroke-width="2.0"/>
  </g>
</svg>
