<?xml version="1.0" encoding="UTF-8" standalone="no"?>
<svg xmlns:xlink="http://www.w3.org/1999/xlink" height="136.5px" width="223.1px" xmlns="http://www.w3.org/2000/svg">
  <g transform="matrix(1.0, 0.0, 0.0, 1.0, 1.5, 68.25)">
    <path d="M0.0 -13.55 L41.7 -66.75 220.1 -66.75 220.1 66.75 0.0 66.75 0.0 -13.55 M213.6 -60.25 L44.9 -60.25 6.5 -11.3 6.5 60.25 213.6 60.25 213.6 -60.25" fill="url(#gradient0)" fill-rule="evenodd" stroke="none"/>
    <path d="M213.6 -60.25 L213.6 60.25 6.5 60.25 6.5 -11.3 44.9 -60.25 213.6 -60.25" fill="url(#gradient1)" fill-rule="evenodd" stroke="none"/>
    <path d="M0.0 -13.55 L41.7 -66.75 220.1 -66.75 220.1 66.75 0.0 66.75 0.0 -13.55 Z" fill="none" stroke="#000000" stroke-linecap="round" stroke-linejoin="round" stroke-width="3.0"/>
  </g>
  <defs>
    <linearGradient gradientTransform="matrix(0.0, 0.0786, -0.5438, 0.0, -225.35, 5.5)" gradientUnits="userSpaceOnUse" id="gradient0" spreadMethod="pad" x1="-819.2" x2="819.2">
      <stop offset="0.0" stop-color="#282c93"/>
      <stop offset="1.0" stop-color="#46318a"/>
    </linearGradient>
    <linearGradient gradientTransform="matrix(0.0, 0.0706, -0.5358, 0.0, -225.35, 1.95)" gradientUnits="userSpaceOnUse" id="gradient1" spreadMethod="pad" x1="-819.2" x2="819.2">
      <stop offset="0.0" stop-color="#15174d" stop-opacity="0.8784314"/>
      <stop offset="1.0" stop-color="#2b1e54" stop-opacity="0.8666667"/>
    </linearGradient>
  </defs>
</svg>
