<?xml version="1.0" encoding="UTF-8" standalone="no"?>
<svg xmlns:xlink="http://www.w3.org/1999/xlink" height="131.3px" width="673.8px" xmlns="http://www.w3.org/2000/svg">
  <g transform="matrix(1.0, 0.0, 0.0, 1.0, 446.95, 110.85)">
    <path d="M-114.75 18.95 L-280.6 18.95 -445.45 18.95 -445.45 -109.35 -280.6 -109.35 -160.65 -109.35 -114.75 -61.35 -114.75 18.95 M-280.6 18.95 L-280.6 -109.35 -280.6 18.95" fill="url(#gradient0)" fill-rule="evenodd" stroke="none"/>
    <path d="M55.3 -61.35 L225.35 -61.35 225.35 18.95 55.3 18.95 55.3 -61.35 55.3 18.95 -114.75 18.95 -114.75 -61.35 55.3 -61.35" fill="url(#gradient1)" fill-rule="evenodd" stroke="none"/>
    <path d="M225.35 -61.35 L55.3 -61.35 55.3 18.95 225.35 18.95 M-114.75 18.95 L-280.6 18.95 -445.45 18.95 -445.45 -109.35 -280.6 -109.35 -160.65 -109.35 -114.75 -61.35 55.3 -61.35 M-114.75 -61.35 L-114.75 18.95 55.3 18.95 M-280.6 -109.35 L-280.6 18.95" fill="none" stroke="#000000" stroke-linecap="round" stroke-linejoin="round" stroke-width="3.0"/>
    <path d="M-121.25 -58.7 L-121.25 12.45 -274.1 12.45 -274.1 -102.85 -163.45 -102.85 -121.25 -58.7 M-287.1 -102.85 L-287.1 12.45 -438.95 12.45 -438.95 -102.85 -287.1 -102.85" fill="url(#gradient2)" fill-rule="evenodd" stroke="none"/>
  </g>
  <defs>
    <linearGradient gradientTransform="matrix(0.0, 0.0786, -0.5438, 0.0, 0.0, -42.3)" gradientUnits="userSpaceOnUse" id="gradient0" spreadMethod="pad" x1="-819.2" x2="819.2">
      <stop offset="0.0" stop-color="#282c93"/>
      <stop offset="1.0" stop-color="#46318a"/>
    </linearGradient>
    <linearGradient gradientTransform="matrix(0.0, 0.0443, -0.2076, 0.0, 55.3, -20.15)" gradientUnits="userSpaceOnUse" id="gradient1" spreadMethod="pad" x1="-819.2" x2="819.2">
      <stop offset="0.0" stop-color="#15174d"/>
      <stop offset="1.0" stop-color="#2b1e54"/>
    </linearGradient>
    <linearGradient gradientTransform="matrix(0.0, 0.0706, -0.5358, 0.0, 0.0, -45.85)" gradientUnits="userSpaceOnUse" id="gradient2" spreadMethod="pad" x1="-819.2" x2="819.2">
      <stop offset="0.0" stop-color="#15174d" stop-opacity="0.8784314"/>
      <stop offset="1.0" stop-color="#2b1e54" stop-opacity="0.8666667"/>
    </linearGradient>
  </defs>
</svg>
