<?xml version="1.0" encoding="UTF-8" standalone="no"?>
<svg xmlns:xlink="http://www.w3.org/1999/xlink" height="48.85px" width="213.55px" xmlns="http://www.w3.org/2000/svg">
  <g transform="matrix(1.0, 0.0, 0.0, 1.0, 89.4, 46.1)">
    <path d="M84.0 -41.95 L92.2 -41.95 92.2 -23.7 84.0 -23.7 84.0 -41.95 M96.35 -19.8 L112.95 -19.8 124.15 -10.7 112.95 -1.55 96.35 -1.55 96.35 -19.8 M84.0 -19.8 L92.2 -19.8 92.2 -1.55 84.0 -1.55 84.0 -19.8 M96.35 -41.95 L112.95 -41.95 124.15 -32.85 112.95 -23.7 96.35 -23.7 96.35 -41.95 M-75.45 -46.05 L-59.75 -33.4 -44.0 -46.05 -43.7 -46.1 -43.4 -45.95 -30.15 -29.1 -30.05 -28.8 -30.15 -28.55 -59.4 2.65 -59.6 2.75 -59.85 2.75 -60.05 2.65 -89.3 -28.55 -89.4 -28.8 -89.35 -29.1 -76.1 -45.95 -75.8 -46.1 -75.45 -46.05 M-57.05 -29.5 Q-58.25 -28.55 -59.75 -28.55 -61.3 -28.55 -62.4 -29.5 L-75.05 -39.6 -83.3 -29.1 -59.75 -3.95 -36.1 -29.1 -44.35 -39.6 -57.0 -29.5 -57.05 -29.5" fill="url(#gradient0)" fill-rule="evenodd" stroke="none"/>
  </g>
  <defs>
    <linearGradient gradientTransform="matrix(0.0, 0.0252, -0.1303, 0.0, 17.4, -19.65)" gradientUnits="userSpaceOnUse" id="gradient0" spreadMethod="pad" x1="-819.2" x2="819.2">
      <stop offset="0.0" stop-color="#9d95ff" stop-opacity="0.84705883"/>
      <stop offset="1.0" stop-color="#afbfff" stop-opacity="0.8666667"/>
    </linearGradient>
  </defs>
</svg>
