<?xml version="1.0" encoding="UTF-8" standalone="no"?>
<svg xmlns:xlink="http://www.w3.org/1999/xlink" height="90.2px" width="276.25px" xmlns="http://www.w3.org/2000/svg">
  <g transform="matrix(1.0, 0.0, 0.0, 1.0, 138.1, 36.9)">
    <path d="M-96.15 -36.9 L-97.7 -25.7 Q-104.95 -22.75 -112.1 -19.45 -110.55 -25.0 -108.65 -30.15 L-96.15 -36.9 M-74.45 20.3 L-96.6 27.7 -96.55 11.4 -75.0 4.1 -74.45 20.3 M-48.0 -8.05 L-71.75 -0.75 -71.8 -15.1 Q-60.2 -18.85 -47.75 -22.4 L-47.75 -21.9 Q-47.7 -14.9 -48.0 -8.05 M-99.6 -5.35 L-100.2 8.95 Q-109.55 12.3 -118.35 15.8 -117.7 8.4 -116.6 1.5 L-99.6 -5.35 M138.15 53.3 Q131.75 46.65 124.05 41.1 L124.2 27.25 Q130.4 31.65 136.5 37.0 137.7 45.3 138.15 53.3 M-124.25 36.9 Q-131.1 32.95 -138.1 32.95 L-137.65 27.55 -122.5 21.25 Q-123.15 28.7 -123.2 36.55 L-124.25 36.9 M107.15 15.55 L107.2 4.3 Q114.15 6.75 120.75 10.25 L121.6 23.3 Q114.85 18.9 107.15 15.55" fill="#f56060" fill-rule="evenodd" stroke="none"/>
    <path d="M-98.05 -22.75 L-99.3 -9.35 -115.9 -2.6 Q-114.65 -9.65 -112.95 -16.2 -105.6 -19.65 -98.05 -22.75 M-49.75 12.05 L-71.4 19.3 -71.7 3.0 -48.2 -4.15 Q-48.75 4.05 -49.75 12.05 M-119.4 35.3 Q-119.3 27.25 -118.7 19.7 -109.7 16.15 -100.3 12.75 L-100.15 28.85 -119.4 35.3 M-137.35 23.55 L-136.3 10.55 Q-128.55 6.7 -120.15 3.05 -121.4 10.0 -122.15 17.3 -129.95 20.35 -137.35 23.55 M105.85 30.3 Q106.7 23.8 107.05 17.15 114.45 20.7 121.65 25.55 121.9 32.35 121.8 39.5 114.4 34.4 105.85 30.3" fill="#d889f5" fill-rule="evenodd" stroke="none"/>
  </g>
</svg>
