<?xml version="1.0" encoding="UTF-8" standalone="no"?>
<svg xmlns:xlink="http://www.w3.org/1999/xlink" height="134.2px" width="74.7px" xmlns="http://www.w3.org/2000/svg">
  <g transform="matrix(1.0, 0.0, 0.0, 1.0, 37.35, 67.1)">
    <path d="M-36.85 -66.6 L36.85 -66.6 36.85 66.6 -36.85 66.6 -36.85 -66.6" fill="#e7faff" fill-opacity="0.85882354" fill-rule="evenodd" stroke="none"/>
    <path d="M-36.85 -66.6 L36.85 -66.6 36.85 66.6 -36.85 66.6 -36.85 -66.6 Z" fill="none" stroke="#f3faff" stroke-linecap="round" stroke-linejoin="round" stroke-width="1.0"/>
    <path d="M9.55 -2.75 L10.0 -2.6 10.25 -2.1 10.25 2.3 10.0 2.75 9.55 3.0 2.75 3.0 Q2.45 3.0 2.45 3.25 L2.45 10.05 2.25 10.5 Q2.1 10.7 1.75 10.7 L-2.7 10.7 -3.15 10.5 -3.35 10.05 -3.35 3.25 -3.55 3.0 -10.35 3.0 -10.9 2.75 -11.0 2.3 -11.0 -2.1 -10.9 -2.6 -10.35 -2.75 -3.55 -2.75 Q-3.35 -2.75 -3.35 -3.05 L-3.35 -9.9 -3.15 -10.4 -2.7 -10.55 1.75 -10.55 2.25 -10.4 2.45 -9.9 2.45 -3.05 Q2.45 -2.75 2.75 -2.75 L9.55 -2.75" fill="#414872" fill-rule="evenodd" stroke="none"/>
  </g>
</svg>
