<?xml version="1.0" encoding="UTF-8" standalone="no"?>
<svg xmlns:xlink="http://www.w3.org/1999/xlink" height="290.6px" width="408.9px" xmlns="http://www.w3.org/2000/svg">
  <g transform="matrix(1.0, 0.0, 0.0, 1.0, 847.45, 166.15)">
    <path d="M-442.95 -161.55 Q-441.7 -159.2 -441.7 -155.65 L-441.7 108.45 Q-441.7 113.55 -444.3 116.1 -446.8 118.45 -451.7 118.45 L-834.2 118.45 Q-839.1 118.45 -841.55 116.1 L-842.25 115.35 Q-844.2 112.8 -844.2 108.45 L-844.2 -155.65 Q-844.2 -164.4 -836.5 -165.5 L-834.2 -165.65 -451.7 -165.65 Q-445.9 -165.65 -443.45 -162.3 L-443.0 -161.6 -442.95 -161.55 M-446.2 -116.25 L-446.2 -155.65 Q-446.2 -161.15 -451.7 -161.15 L-834.2 -161.15 Q-839.7 -161.15 -839.7 -155.65 L-839.7 -116.25 -839.7 108.45 Q-839.7 113.95 -834.2 113.95 L-451.7 113.95 Q-446.2 113.95 -446.2 108.45 L-446.2 -116.25" fill="#222541" fill-opacity="0.9490196" fill-rule="evenodd" stroke="none"/>
    <path d="M-444.3 116.1 Q-441.7 113.55 -441.7 108.45 L-441.7 -155.65 Q-441.7 -159.2 -442.95 -161.55 -438.55 -158.95 -438.55 -152.05 L-438.55 113.45 Q-438.55 118.95 -441.35 121.7 -444.1 124.45 -449.65 124.45 L-482.1 124.45 -482.55 124.45 -538.1 124.4 -663.3 124.4 -663.3 124.35 -832.9 124.25 Q-838.2 123.85 -841.0 122.0 -841.15 121.5 -842.0 121.1 L-842.25 121.0 -842.35 120.95 Q-847.45 118.4 -847.45 111.05 L-847.45 -154.45 Q-847.45 -165.45 -836.5 -165.5 -844.2 -164.4 -844.2 -155.65 L-844.2 108.45 Q-844.2 112.8 -842.25 115.35 L-841.55 116.1 Q-839.4 119.05 -834.2 119.05 L-451.7 119.05 Q-446.5 119.05 -444.3 116.1" fill="#000000" fill-opacity="0.69803923" fill-rule="evenodd" stroke="none"/>
    <path d="M-839.7 -116.25 L-839.7 -155.65 Q-839.7 -161.15 -834.2 -161.15 L-451.7 -161.15 Q-446.2 -161.15 -446.2 -155.65 L-446.2 -116.25 -839.7 -116.25" fill="#1c1e38" fill-opacity="0.9490196" fill-rule="evenodd" stroke="none"/>
    <path d="M-446.2 -116.25 L-446.2 108.45 Q-446.2 113.95 -451.7 113.95 L-834.2 113.95 Q-839.7 113.95 -839.7 108.45 L-839.7 -116.25 -446.2 -116.25" fill="#15172a" fill-opacity="0.9490196" fill-rule="evenodd" stroke="none"/>
    <path d="M-442.95 -161.55 Q-441.7 -159.2 -441.7 -155.65 L-441.7 108.45 Q-441.7 113.55 -444.3 116.1 -446.8 118.45 -451.7 118.45 L-834.2 118.45 Q-839.1 118.45 -841.55 116.1 L-842.25 115.35 Q-844.2 112.8 -844.2 108.45 L-844.2 -155.65 Q-844.2 -164.4 -836.5 -165.5 L-834.2 -165.65 -451.7 -165.65 Q-445.9 -165.65 -443.45 -162.3 L-443.0 -161.6 -442.95 -161.55" fill="none" stroke="#889ab8" stroke-linecap="round" stroke-linejoin="round" stroke-opacity="0.54901963" stroke-width="1.0"/>
    <path d="M-839.7 -116.25 L-446.2 -116.25" fill="none" stroke="#889ab8" stroke-linecap="round" stroke-linejoin="round" stroke-opacity="0.7490196" stroke-width="1.0"/>
  </g>
</svg>
