<?xml version="1.0" encoding="UTF-8" standalone="no"?>
<svg xmlns:xlink="http://www.w3.org/1999/xlink" height="31.9px" width="192.25px" xmlns="http://www.w3.org/2000/svg">
  <g transform="matrix(1.0, 0.0, 0.0, 1.0, 125.95, 16.0)">
    <path d="M16.45 13.6 Q15.95 13.6 16.1 13.15 L16.5 9.05 16.35 8.9 10.65 8.9 Q10.4 8.9 10.3 9.05 L8.45 13.15 7.8 13.6 4.2 13.6 Q3.7 13.6 3.95 13.1 L17.4 -13.25 18.05 -13.7 22.2 -13.7 Q22.65 -13.7 22.55 -13.25 L20.65 13.1 20.6 13.25 20.05 13.6 16.45 13.6 M9.7 -13.7 L10.0 -13.55 10.0 -13.25 9.1 -10.25 8.9 -9.95 Q8.75 -9.8 8.55 -9.8 L3.6 -9.8 3.35 -9.6 -3.3 13.1 -3.55 13.45 -3.9 13.6 -7.5 13.6 -7.8 13.45 -7.8 13.1 -1.15 -9.6 -1.3 -9.8 -6.0 -9.8 Q-6.2 -9.8 -6.3 -9.95 L-6.35 -10.25 -5.45 -13.25 -5.2 -13.55 -4.85 -13.7 9.7 -13.7 M12.15 5.15 L12.3 5.35 16.65 5.35 16.9 5.15 18.25 -7.2 18.15 -7.3 18.0 -7.2 12.15 5.15 M29.9 13.9 Q26.6 13.9 25.2 11.9 23.8 9.9 24.75 6.55 L28.65 -6.7 Q29.6 -10.05 32.2 -12.05 34.75 -14.0 38.05 -14.0 41.4 -14.0 42.9 -12.05 44.35 -10.05 43.4 -6.7 L43.25 -6.25 43.0 -5.9 Q42.8 -5.75 42.6 -5.75 L38.95 -5.6 Q38.5 -5.6 38.65 -6.05 L38.9 -7.0 Q39.3 -8.4 38.75 -9.25 38.2 -10.1 36.9 -10.1 35.7 -10.1 34.65 -9.25 33.6 -8.4 33.2 -7.0 L29.15 6.95 Q28.75 8.3 29.3 9.15 29.85 10.0 31.05 10.0 32.35 10.0 33.4 9.15 34.45 8.3 34.85 6.95 L35.15 5.95 35.35 5.6 35.7 5.5 39.25 5.65 39.6 5.75 39.65 6.1 39.5 6.55 Q38.55 9.9 35.9 11.9 33.25 13.9 29.9 13.9 M41.4 13.6 L41.15 13.45 Q41.05 13.35 41.1 13.1 L48.8 -13.25 49.05 -13.55 49.4 -13.7 53.0 -13.7 53.3 -13.55 53.35 -13.25 50.2 -2.45 50.2 -2.3 50.35 -2.4 59.4 -13.35 Q59.75 -13.7 60.15 -13.7 L64.0 -13.7 64.3 -13.55 64.15 -13.15 55.05 -2.2 55.0 -1.95 56.9 13.05 56.9 13.3 Q56.8 13.6 56.4 13.6 L52.55 13.6 Q52.1 13.6 52.1 13.25 L50.8 2.0 Q50.8 1.85 50.65 1.9 L50.5 2.0 48.2 4.6 48.05 4.8 45.65 13.1 45.4 13.45 45.0 13.6 41.4 13.6 M-123.65 13.6 L-123.9 13.45 -123.95 13.1 -116.25 -13.25 -116.0 -13.55 -115.65 -13.7 -112.05 -13.7 -111.75 -13.55 -111.7 -13.25 -118.35 9.5 -118.25 9.7 -109.8 9.7 Q-109.6 9.7 -109.5 9.85 L-109.5 10.15 -110.35 13.1 -110.55 13.45 -110.95 13.6 -123.65 13.6 M-101.1 5.15 L-100.95 5.35 -96.6 5.35 -96.35 5.15 -95.0 -7.2 -95.1 -7.3 -95.25 -7.2 -101.1 5.15 M-83.75 13.9 Q-87.0 13.9 -88.4 11.95 -89.8 10.0 -88.9 6.85 L-88.6 5.85 -88.4 5.5 -88.0 5.35 -84.45 5.35 Q-84.25 5.35 -84.2 5.5 -84.1 5.65 -84.15 5.85 L-84.35 6.6 Q-84.8 8.15 -84.35 9.05 -83.8 10.0 -82.6 10.0 -81.4 10.0 -80.35 9.15 -79.35 8.25 -78.9 6.8 -78.6 5.8 -78.85 5.05 -79.05 4.35 -79.65 3.65 L-81.55 1.75 -83.95 -0.75 Q-84.85 -1.85 -85.2 -3.4 -85.55 -4.95 -84.95 -6.95 -84.0 -10.2 -81.5 -12.1 -79.0 -14.0 -75.8 -14.0 -72.55 -14.0 -71.1 -12.0 -69.75 -10.0 -70.75 -6.7 L-71.0 -5.75 -71.25 -5.4 Q-71.4 -5.25 -71.6 -5.25 L-75.1 -5.25 Q-75.3 -5.25 -75.4 -5.4 L-75.45 -5.75 -75.15 -6.75 Q-74.7 -8.3 -75.2 -9.2 -75.7 -10.1 -76.95 -10.1 -78.1 -10.1 -79.05 -9.25 -80.05 -8.45 -80.5 -6.95 -80.9 -5.55 -80.4 -4.55 -79.9 -3.6 -78.05 -1.9 L-75.3 0.95 Q-74.4 2.1 -74.1 3.4 -73.85 4.75 -74.4 6.55 -75.35 9.9 -77.95 11.9 -80.5 13.9 -83.75 13.9 M-96.8 13.6 Q-97.3 13.6 -97.15 13.15 L-96.75 9.05 Q-96.65 8.9 -96.9 8.9 L-102.6 8.9 Q-102.85 8.9 -102.95 9.05 L-104.8 13.15 -105.45 13.6 -109.05 13.6 Q-109.55 13.6 -109.3 13.1 L-95.85 -13.25 -95.2 -13.7 -91.05 -13.7 Q-90.6 -13.7 -90.7 -13.25 L-92.6 13.1 -92.65 13.25 Q-92.75 13.6 -93.2 13.6 L-96.8 13.6 M-51.15 -13.7 L-50.85 -13.55 -50.85 -13.25 -51.75 -10.25 Q-51.8 -10.05 -51.95 -9.95 L-52.3 -9.8 -57.25 -9.8 -57.5 -9.6 -64.15 13.1 -64.4 13.45 -64.75 13.6 -68.35 13.6 -68.65 13.45 -68.65 13.1 -62.0 -9.6 -62.15 -9.8 -66.85 -9.8 Q-67.05 -9.8 -67.15 -9.95 L-67.2 -10.25 -66.3 -13.25 -66.05 -13.55 -65.7 -13.7 -51.15 -13.7 M-7.9 -13.7 L-7.6 -13.55 -7.6 -13.25 -8.5 -10.25 -8.7 -9.95 Q-8.85 -9.8 -9.05 -9.8 L-14.0 -9.8 Q-14.2 -9.8 -14.25 -9.6 L-20.9 13.1 -21.15 13.45 -21.5 13.6 -25.1 13.6 -25.4 13.45 -25.4 13.1 -18.75 -9.6 -18.9 -9.8 -23.6 -9.8 Q-23.8 -9.8 -23.9 -9.95 L-23.95 -10.25 -23.05 -13.25 -22.8 -13.55 -22.45 -13.7 -7.9 -13.7 M-36.6 13.6 Q-37.1 13.6 -36.95 13.15 L-36.55 9.05 Q-36.45 8.9 -36.7 8.9 L-42.4 8.9 Q-42.65 8.9 -42.75 9.05 L-44.6 13.15 Q-44.8 13.6 -45.25 13.6 L-48.85 13.6 Q-49.35 13.6 -49.1 13.1 L-35.65 -13.25 -35.0 -13.7 -30.85 -13.7 Q-30.4 -13.7 -30.5 -13.25 L-32.4 13.1 -32.45 13.25 Q-32.55 13.6 -33.0 13.6 L-36.6 13.6 M-40.9 5.15 L-40.75 5.35 -36.4 5.35 -36.15 5.15 -34.8 -7.2 -34.9 -7.3 -35.05 -7.2 -40.9 5.15" fill="#efdbff" fill-rule="evenodd" stroke="none"/>
    <path d="M16.45 13.6 Q15.95 13.6 16.1 13.15 L16.5 9.05 16.35 8.9 10.65 8.9 Q10.4 8.9 10.3 9.05 L8.45 13.15 7.8 13.6 4.2 13.6 Q3.7 13.6 3.95 13.1 L17.4 -13.25 18.05 -13.7 22.2 -13.7 Q22.65 -13.7 22.55 -13.25 L20.65 13.1 20.6 13.25 20.05 13.6 16.45 13.6 M9.7 -13.7 L10.0 -13.55 10.0 -13.25 9.1 -10.25 8.9 -9.95 Q8.75 -9.8 8.55 -9.8 L3.6 -9.8 3.35 -9.6 -3.3 13.1 -3.55 13.45 -3.9 13.6 -7.5 13.6 -7.8 13.45 -7.8 13.1 -1.15 -9.6 -1.3 -9.8 -6.0 -9.8 Q-6.2 -9.8 -6.3 -9.95 L-6.35 -10.25 -5.45 -13.25 -5.2 -13.55 -4.85 -13.7 9.7 -13.7 M12.15 5.15 L12.3 5.35 16.65 5.35 16.9 5.15 18.25 -7.2 18.15 -7.3 18.0 -7.2 12.15 5.15 M29.9 13.9 Q26.6 13.9 25.2 11.9 23.8 9.9 24.75 6.55 L28.65 -6.7 Q29.6 -10.05 32.2 -12.05 34.75 -14.0 38.05 -14.0 41.4 -14.0 42.9 -12.05 44.35 -10.05 43.4 -6.7 L43.25 -6.25 43.0 -5.9 Q42.8 -5.75 42.6 -5.75 L38.95 -5.6 Q38.5 -5.6 38.65 -6.05 L38.9 -7.0 Q39.3 -8.4 38.75 -9.25 38.2 -10.1 36.9 -10.1 35.7 -10.1 34.65 -9.25 33.6 -8.4 33.2 -7.0 L29.15 6.95 Q28.75 8.3 29.3 9.15 29.85 10.0 31.05 10.0 32.35 10.0 33.4 9.15 34.45 8.3 34.85 6.95 L35.15 5.95 35.35 5.6 35.7 5.5 39.25 5.65 39.6 5.75 39.65 6.1 39.5 6.55 Q38.55 9.9 35.9 11.9 33.25 13.9 29.9 13.9 M41.4 13.6 L41.15 13.45 Q41.05 13.35 41.1 13.1 L48.8 -13.25 49.05 -13.55 49.4 -13.7 53.0 -13.7 53.3 -13.55 53.35 -13.25 50.2 -2.45 50.2 -2.3 50.35 -2.4 59.4 -13.35 Q59.75 -13.7 60.15 -13.7 L64.0 -13.7 64.3 -13.55 64.15 -13.15 55.05 -2.2 55.0 -1.95 56.9 13.05 56.9 13.3 Q56.8 13.6 56.4 13.6 L52.55 13.6 Q52.1 13.6 52.1 13.25 L50.8 2.0 Q50.8 1.85 50.65 1.9 L50.5 2.0 48.2 4.6 48.05 4.8 45.65 13.1 45.4 13.45 45.0 13.6 41.4 13.6 M-123.65 13.6 L-123.9 13.45 -123.95 13.1 -116.25 -13.25 -116.0 -13.55 -115.65 -13.7 -112.05 -13.7 -111.75 -13.55 -111.7 -13.25 -118.35 9.5 -118.25 9.7 -109.8 9.7 Q-109.6 9.7 -109.5 9.85 L-109.5 10.15 -110.35 13.1 -110.55 13.45 -110.95 13.6 -123.65 13.6 M-101.1 5.15 L-100.95 5.35 -96.6 5.35 -96.35 5.15 -95.0 -7.2 -95.1 -7.3 -95.25 -7.2 -101.1 5.15 M-83.75 13.9 Q-87.0 13.9 -88.4 11.95 -89.8 10.0 -88.9 6.85 L-88.6 5.85 -88.4 5.5 -88.0 5.35 -84.45 5.35 Q-84.25 5.35 -84.2 5.5 -84.1 5.65 -84.15 5.85 L-84.35 6.6 Q-84.8 8.15 -84.35 9.05 -83.8 10.0 -82.6 10.0 -81.4 10.0 -80.35 9.15 -79.35 8.25 -78.9 6.8 -78.6 5.8 -78.85 5.05 -79.05 4.35 -79.65 3.65 L-81.55 1.75 -83.95 -0.75 Q-84.85 -1.85 -85.2 -3.4 -85.55 -4.95 -84.95 -6.95 -84.0 -10.2 -81.5 -12.1 -79.0 -14.0 -75.8 -14.0 -72.55 -14.0 -71.1 -12.0 -69.75 -10.0 -70.75 -6.7 L-71.0 -5.75 -71.25 -5.4 Q-71.4 -5.25 -71.6 -5.25 L-75.1 -5.25 Q-75.3 -5.25 -75.4 -5.4 L-75.45 -5.75 -75.15 -6.75 Q-74.7 -8.3 -75.2 -9.2 -75.7 -10.1 -76.95 -10.1 -78.1 -10.1 -79.05 -9.25 -80.05 -8.45 -80.5 -6.95 -80.9 -5.55 -80.4 -4.55 -79.9 -3.6 -78.05 -1.9 L-75.3 0.95 Q-74.4 2.1 -74.1 3.4 -73.85 4.75 -74.4 6.55 -75.35 9.9 -77.95 11.9 -80.5 13.9 -83.75 13.9 M-96.8 13.6 Q-97.3 13.6 -97.15 13.15 L-96.75 9.05 Q-96.65 8.9 -96.9 8.9 L-102.6 8.9 Q-102.85 8.9 -102.95 9.05 L-104.8 13.15 -105.45 13.6 -109.05 13.6 Q-109.55 13.6 -109.3 13.1 L-95.85 -13.25 -95.2 -13.7 -91.05 -13.7 Q-90.6 -13.7 -90.7 -13.25 L-92.6 13.1 -92.65 13.25 Q-92.75 13.6 -93.2 13.6 L-96.8 13.6 M-51.15 -13.7 L-50.85 -13.55 -50.85 -13.25 -51.75 -10.25 Q-51.8 -10.05 -51.95 -9.95 L-52.3 -9.8 -57.25 -9.8 -57.5 -9.6 -64.15 13.1 -64.4 13.45 -64.75 13.6 -68.35 13.6 -68.65 13.45 -68.65 13.1 -62.0 -9.6 -62.15 -9.8 -66.85 -9.8 Q-67.05 -9.8 -67.15 -9.95 L-67.2 -10.25 -66.3 -13.25 -66.05 -13.55 -65.7 -13.7 -51.15 -13.7 M-7.9 -13.7 L-7.6 -13.55 -7.6 -13.25 -8.5 -10.25 -8.7 -9.95 Q-8.85 -9.8 -9.05 -9.8 L-14.0 -9.8 Q-14.2 -9.8 -14.25 -9.6 L-20.9 13.1 -21.15 13.45 -21.5 13.6 -25.1 13.6 -25.4 13.45 -25.4 13.1 -18.75 -9.6 -18.9 -9.8 -23.6 -9.8 Q-23.8 -9.8 -23.9 -9.95 L-23.95 -10.25 -23.05 -13.25 -22.8 -13.55 -22.45 -13.7 -7.9 -13.7 M-36.6 13.6 Q-37.1 13.6 -36.95 13.15 L-36.55 9.05 Q-36.45 8.9 -36.7 8.9 L-42.4 8.9 Q-42.65 8.9 -42.75 9.05 L-44.6 13.15 Q-44.8 13.6 -45.25 13.6 L-48.85 13.6 Q-49.35 13.6 -49.1 13.1 L-35.65 -13.25 -35.0 -13.7 -30.85 -13.7 Q-30.4 -13.7 -30.5 -13.25 L-32.4 13.1 -32.45 13.25 Q-32.55 13.6 -33.0 13.6 L-36.6 13.6 M-40.9 5.15 L-40.75 5.35 -36.4 5.35 -36.15 5.15 -34.8 -7.2 -34.9 -7.3 -35.05 -7.2 -40.9 5.15" fill="none" stroke="#311d4a" stroke-linecap="round" stroke-linejoin="round" stroke-opacity="0.8666667" stroke-width="4.0"/>
    <path d="M16.45 13.6 Q15.95 13.6 16.1 13.15 L16.5 9.05 16.35 8.9 10.65 8.9 Q10.4 8.9 10.3 9.05 L8.45 13.15 7.8 13.6 4.2 13.6 Q3.7 13.6 3.95 13.1 L17.4 -13.25 18.05 -13.7 22.2 -13.7 Q22.65 -13.7 22.55 -13.25 L20.65 13.1 20.6 13.25 20.05 13.6 16.45 13.6 M9.7 -13.7 L10.0 -13.55 10.0 -13.25 9.1 -10.25 8.9 -9.95 Q8.75 -9.8 8.55 -9.8 L3.6 -9.8 3.35 -9.6 -3.3 13.1 -3.55 13.45 -3.9 13.6 -7.5 13.6 -7.8 13.45 -7.8 13.1 -1.15 -9.6 -1.3 -9.8 -6.0 -9.8 Q-6.2 -9.8 -6.3 -9.95 L-6.35 -10.25 -5.45 -13.25 -5.2 -13.55 -4.85 -13.7 9.7 -13.7 M12.15 5.15 L12.3 5.35 16.65 5.35 16.9 5.15 18.25 -7.2 18.15 -7.3 18.0 -7.2 12.15 5.15 M29.9 13.9 Q26.6 13.9 25.2 11.9 23.8 9.9 24.75 6.55 L28.65 -6.7 Q29.6 -10.05 32.2 -12.05 34.75 -14.0 38.05 -14.0 41.4 -14.0 42.9 -12.05 44.35 -10.05 43.4 -6.7 L43.25 -6.25 43.0 -5.9 Q42.8 -5.75 42.6 -5.75 L38.95 -5.6 Q38.5 -5.6 38.65 -6.05 L38.9 -7.0 Q39.3 -8.4 38.75 -9.25 38.2 -10.1 36.9 -10.1 35.7 -10.1 34.65 -9.25 33.6 -8.4 33.2 -7.0 L29.15 6.95 Q28.75 8.3 29.3 9.15 29.85 10.0 31.05 10.0 32.35 10.0 33.4 9.15 34.45 8.3 34.85 6.95 L35.15 5.95 35.35 5.6 35.7 5.5 39.25 5.65 39.6 5.75 39.65 6.1 39.5 6.55 Q38.55 9.9 35.9 11.9 33.25 13.9 29.9 13.9 M41.4 13.6 L41.15 13.45 Q41.05 13.35 41.1 13.1 L48.8 -13.25 49.05 -13.55 49.4 -13.7 53.0 -13.7 53.3 -13.55 53.35 -13.25 50.2 -2.45 50.2 -2.3 50.35 -2.4 59.4 -13.35 Q59.75 -13.7 60.15 -13.7 L64.0 -13.7 64.3 -13.55 64.15 -13.15 55.05 -2.2 55.0 -1.95 56.9 13.05 56.9 13.3 Q56.8 13.6 56.4 13.6 L52.55 13.6 Q52.1 13.6 52.1 13.25 L50.8 2.0 Q50.8 1.85 50.65 1.9 L50.5 2.0 48.2 4.6 48.05 4.8 45.65 13.1 45.4 13.45 45.0 13.6 41.4 13.6 M-123.65 13.6 L-123.9 13.45 -123.95 13.1 -116.25 -13.25 -116.0 -13.55 -115.65 -13.7 -112.05 -13.7 -111.75 -13.55 -111.7 -13.25 -118.35 9.5 -118.25 9.7 -109.8 9.7 Q-109.6 9.7 -109.5 9.85 L-109.5 10.15 -110.35 13.1 -110.55 13.45 -110.95 13.6 -123.65 13.6 M-83.75 13.9 Q-87.0 13.9 -88.4 11.95 -89.8 10.0 -88.9 6.85 L-88.6 5.85 -88.4 5.5 -88.0 5.35 -84.45 5.35 Q-84.25 5.35 -84.2 5.5 -84.1 5.65 -84.15 5.85 L-84.35 6.6 Q-84.8 8.15 -84.35 9.05 -83.8 10.0 -82.6 10.0 -81.4 10.0 -80.35 9.15 -79.35 8.25 -78.9 6.8 -78.6 5.8 -78.85 5.05 -79.05 4.35 -79.65 3.65 L-81.55 1.75 -83.95 -0.75 Q-84.85 -1.85 -85.2 -3.4 -85.55 -4.95 -84.95 -6.95 -84.0 -10.2 -81.5 -12.1 -79.0 -14.0 -75.8 -14.0 -72.55 -14.0 -71.1 -12.0 -69.75 -10.0 -70.75 -6.7 L-71.0 -5.75 -71.25 -5.4 Q-71.4 -5.25 -71.6 -5.25 L-75.1 -5.25 Q-75.3 -5.25 -75.4 -5.4 L-75.45 -5.75 -75.15 -6.75 Q-74.7 -8.3 -75.2 -9.2 -75.7 -10.1 -76.95 -10.1 -78.1 -10.1 -79.05 -9.25 -80.05 -8.45 -80.5 -6.95 -80.9 -5.55 -80.4 -4.55 -79.9 -3.6 -78.05 -1.9 L-75.3 0.95 Q-74.4 2.1 -74.1 3.4 -73.85 4.75 -74.4 6.55 -75.35 9.9 -77.95 11.9 -80.5 13.9 -83.75 13.9 M-101.1 5.15 L-100.95 5.35 -96.6 5.35 -96.35 5.15 -95.0 -7.2 -95.1 -7.3 -95.25 -7.2 -101.1 5.15 M-96.8 13.6 Q-97.3 13.6 -97.15 13.15 L-96.75 9.05 Q-96.65 8.9 -96.9 8.9 L-102.6 8.9 Q-102.85 8.9 -102.95 9.05 L-104.8 13.15 -105.45 13.6 -109.05 13.6 Q-109.55 13.6 -109.3 13.1 L-95.85 -13.25 -95.2 -13.7 -91.05 -13.7 Q-90.6 -13.7 -90.7 -13.25 L-92.6 13.1 -92.65 13.25 Q-92.75 13.6 -93.2 13.6 L-96.8 13.6 M-51.15 -13.7 L-50.85 -13.55 -50.85 -13.25 -51.75 -10.25 Q-51.8 -10.05 -51.95 -9.95 L-52.3 -9.8 -57.25 -9.8 -57.5 -9.6 -64.15 13.1 -64.4 13.45 -64.75 13.6 -68.35 13.6 -68.65 13.45 -68.65 13.1 -62.0 -9.6 -62.15 -9.8 -66.85 -9.8 Q-67.05 -9.8 -67.15 -9.95 L-67.2 -10.25 -66.3 -13.25 -66.05 -13.55 -65.7 -13.7 -51.15 -13.7 M-7.9 -13.7 L-7.6 -13.55 -7.6 -13.25 -8.5 -10.25 -8.7 -9.95 Q-8.85 -9.8 -9.05 -9.8 L-14.0 -9.8 Q-14.2 -9.8 -14.25 -9.6 L-20.9 13.1 -21.15 13.45 -21.5 13.6 -25.1 13.6 -25.4 13.45 -25.4 13.1 -18.75 -9.6 -18.9 -9.8 -23.6 -9.8 Q-23.8 -9.8 -23.9 -9.95 L-23.95 -10.25 -23.05 -13.25 -22.8 -13.55 -22.45 -13.7 -7.9 -13.7 M-36.6 13.6 Q-37.1 13.6 -36.95 13.15 L-36.55 9.05 Q-36.45 8.9 -36.7 8.9 L-42.4 8.9 Q-42.65 8.9 -42.75 9.05 L-44.6 13.15 Q-44.8 13.6 -45.25 13.6 L-48.85 13.6 Q-49.35 13.6 -49.1 13.1 L-35.65 -13.25 -35.0 -13.7 -30.85 -13.7 Q-30.4 -13.7 -30.5 -13.25 L-32.4 13.1 -32.45 13.25 Q-32.55 13.6 -33.0 13.6 L-36.6 13.6 M-40.9 5.15 L-40.75 5.35 -36.4 5.35 -36.15 5.15 -34.8 -7.2 -34.9 -7.3 -35.05 -7.2 -40.9 5.15" fill="url(#gradient0)" fill-rule="evenodd" stroke="none"/>
  </g>
  <defs>
    <linearGradient gradientTransform="matrix(0.0, 0.0179, -0.1149, 0.0, -29.8, 2.8)" gradientUnits="userSpaceOnUse" id="gradient0" spreadMethod="pad" x1="-819.2" x2="819.2">
      <stop offset="0.03529411764705882" stop-color="#efdbff" stop-opacity="0.96862745"/>
      <stop offset="1.0" stop-color="#bbfaff" stop-opacity="0.9764706"/>
    </linearGradient>
  </defs>
</svg>
