<?xml version="1.0" encoding="UTF-8" standalone="no"?>
<svg xmlns:xlink="http://www.w3.org/1999/xlink" height="74.0px" width="74.1px" xmlns="http://www.w3.org/2000/svg">
  <g transform="matrix(1.0, 0.0, 0.0, 1.0, 37.4, 37.0)">
    <path d="M-30.35 -36.5 L29.6 -36.5 Q36.2 -36.5 36.2 -30.0 L36.2 30.0 Q36.2 36.5 29.6 36.5 L-30.35 36.5 Q-36.9 36.5 -36.9 30.0 L-36.9 -30.0 Q-36.9 -36.5 -30.35 -36.5" fill="#1e1f27" fill-opacity="0.8862745" fill-rule="evenodd" stroke="none"/>
    <path d="M-30.35 -36.5 L29.6 -36.5 Q36.2 -36.5 36.2 -30.0 L36.2 30.0 Q36.2 36.5 29.6 36.5 L-30.35 36.5 Q-36.9 36.5 -36.9 30.0 L-36.9 -30.0 Q-36.9 -36.5 -30.35 -36.5 Z" fill="none" stroke="#030405" stroke-linecap="round" stroke-linejoin="round" stroke-opacity="0.40784314" stroke-width="1.0"/>
  </g>
</svg>
