<?xml version="1.0" encoding="UTF-8" standalone="no"?>
<svg xmlns:xlink="http://www.w3.org/1999/xlink" height="30.65px" width="181.25px" xmlns="http://www.w3.org/2000/svg">
  <g transform="matrix(1.0, 0.0, 0.0, 1.0, 178.1, 15.6)">
    <path d="M-12.25 -15.5 L-11.5 -15.15 2.65 -1.3 3.15 -0.35 3.15 0.55 3.15 0.6 2.7 1.4 2.7 1.5 -11.5 14.55 -12.4 15.0 -12.9 15.05 Q-13.9 15.05 -14.25 14.55 L-14.3 14.45 Q-14.75 13.85 -14.75 13.05 -14.75 12.25 -14.15 11.75 L-1.45 0.05 -14.2 -12.45 Q-14.75 -12.9 -14.75 -13.8 -14.75 -14.45 -14.25 -15.15 L-12.85 -15.6 -12.25 -15.5 M-157.1 3.2 Q-158.1 3.0 -158.8 2.25 L-158.8 2.3 Q-159.9 1.25 -159.9 -0.35 -159.9 -1.7 -158.8 -2.8 -158.1 -3.45 -157.1 -3.6 L-156.5 -3.65 Q-155.0 -3.65 -153.9 -2.8 -152.9 -1.7 -152.9 -0.35 -152.9 1.25 -153.9 2.25 L-153.9 2.3 Q-155.0 3.2 -156.5 3.2 L-157.1 3.2 M-162.7 -15.5 L-162.1 -15.6 -160.7 -15.15 Q-160.2 -14.45 -160.2 -13.8 -160.2 -12.9 -160.75 -12.45 L-173.45 0.05 -160.8 11.75 Q-160.2 12.25 -160.2 13.05 -160.2 13.85 -160.6 14.45 L-160.7 14.55 Q-161.0 15.05 -162.05 15.05 L-162.55 15.0 -163.4 14.55 -177.65 1.5 -177.65 1.4 -178.1 0.6 -178.1 0.55 -178.1 -0.35 -177.6 -1.3 -163.4 -15.15 -162.7 -15.5 M-123.4 3.2 L-124.0 3.2 Q-125.45 3.2 -126.55 2.3 L-126.55 2.25 Q-127.6 1.25 -127.6 -0.35 -127.6 -1.7 -126.55 -2.8 -125.45 -3.65 -124.0 -3.65 L-123.4 -3.6 Q-122.4 -3.45 -121.65 -2.8 -120.55 -1.7 -120.55 -0.35 -120.55 1.25 -121.65 2.3 L-121.65 2.25 Q-122.4 3.0 -123.4 3.2 M-117.8 -15.5 L-117.05 -15.15 -102.9 -1.3 -102.4 -0.35 -102.4 0.55 -102.4 0.6 Q-102.5 1.1 -102.85 1.4 L-102.85 1.5 -117.05 14.55 -117.95 15.0 -118.45 15.05 Q-119.45 15.05 -119.8 14.55 L-119.85 14.45 Q-120.3 13.85 -120.3 13.05 -120.3 12.25 -119.7 11.75 L-107.0 0.05 -119.75 -12.45 Q-120.3 -12.9 -120.3 -13.8 -120.3 -14.45 -119.8 -15.15 -119.25 -15.6 -118.4 -15.6 L-117.8 -15.5 M-51.55 3.2 Q-52.55 3.0 -53.25 2.25 L-53.25 2.3 Q-54.35 1.25 -54.35 -0.35 -54.35 -1.7 -53.25 -2.8 -52.55 -3.45 -51.55 -3.6 L-50.95 -3.65 Q-49.45 -3.65 -48.35 -2.8 -47.35 -1.7 -47.35 -0.35 -47.35 1.25 -48.35 2.25 L-48.35 2.3 Q-49.45 3.2 -50.95 3.2 L-51.55 3.2 M-57.15 -15.5 L-56.55 -15.6 Q-55.65 -15.6 -55.15 -15.15 -54.65 -14.45 -54.65 -13.8 -54.65 -12.9 -55.2 -12.45 L-67.9 0.05 -55.25 11.75 Q-54.65 12.25 -54.65 13.05 -54.65 13.85 -55.05 14.45 L-55.15 14.55 Q-55.45 15.05 -56.5 15.05 L-57.0 15.0 -57.85 14.55 -72.1 1.5 -72.1 1.4 -72.55 0.6 -72.55 0.55 -72.55 -0.35 -72.05 -1.3 -57.85 -15.15 -57.15 -15.5 M-17.85 3.2 L-18.45 3.2 Q-19.9 3.2 -21.0 2.3 L-21.0 2.25 Q-22.05 1.25 -22.05 -0.35 -22.05 -1.7 -21.0 -2.8 -19.9 -3.65 -18.45 -3.65 L-17.85 -3.6 Q-16.85 -3.45 -16.1 -2.8 -15.0 -1.7 -15.0 -0.35 -15.0 1.25 -16.1 2.3 L-16.1 2.25 Q-16.85 3.0 -17.85 3.2" fill="#9594ce" fill-rule="evenodd" stroke="none"/>
  </g>
</svg>
