<?xml version="1.0" encoding="UTF-8" standalone="no"?>
<svg xmlns:xlink="http://www.w3.org/1999/xlink" height="109.7px" width="148.25px" xmlns="http://www.w3.org/2000/svg">
  <g transform="matrix(1.0, 0.0, 0.0, 1.0, 74.15, 54.85)">
    <path d="M4.35 -26.5 Q3.2 -23.35 0.2 -22.0 L-5.95 -21.85 Q-9.05 -23.0 -10.35 -25.95 -11.7 -28.95 -10.55 -32.05 -9.45 -35.15 -6.45 -36.5 L-0.35 -36.7 Q2.75 -35.55 4.1 -32.6 5.5 -29.65 4.35 -26.5 M43.75 -15.15 Q36.8 -17.9 33.2 -21.8 L29.8 -17.6 Q30.9 -16.55 31.65 -14.95 33.05 -11.85 31.9 -8.7 30.7 -5.55 27.6 -4.1 L21.35 -3.9 Q19.2 -4.7 18.0 -6.3 -3.1 10.25 -33.15 11.5 L-33.8 12.5 Q-32.75 13.65 -32.1 15.15 -30.2 19.2 -31.8 23.35 -33.3 27.6 -37.4 29.4 L-45.55 29.65 -47.5 28.7 Q-50.9 31.7 -54.55 34.4 -43.2 41.8 -31.55 42.35 -32.3 39.2 -31.15 35.9 -29.45 31.4 -25.1 29.45 -20.8 27.5 -16.4 29.15 -11.85 30.85 -9.9 35.15 L-9.2 37.15 Q-4.85 34.95 -0.45 31.8 6.1 27.3 13.05 24.35 L12.9 24.15 Q11.4 20.75 12.7 17.25 14.05 13.75 17.4 12.3 20.8 10.75 24.25 12.05 27.7 13.3 29.25 16.7 29.9 18.15 30.05 19.6 L31.05 19.45 Q49.9 16.95 56.95 3.3 61.5 -5.8 61.55 -15.05 L59.85 -14.05 Q56.4 -12.4 52.75 -13.8 49.05 -15.2 47.5 -18.65 46.05 -21.75 46.95 -25.0 L32.25 -23.8 33.2 -21.8 M-33.15 11.5 Q-35.6 4.85 -31.9 1.9 -33.15 -3.1 -36.0 -7.45 -40.5 -14.15 -48.75 -19.05 -52.45 -21.15 -57.7 -23.35 -66.35 -16.7 -70.9 -6.25 -74.95 -14.25 -71.75 -29.1 L-71.1 -31.35 Q-68.7 -38.7 -62.15 -44.0 -58.1 -47.4 -52.3 -49.9 -46.55 -52.2 -40.55 -53.1 -31.75 -54.55 -22.5 -53.1 -8.0 -51.35 6.35 -42.5 16.45 -36.3 25.7 -28.2 29.4 -28.9 32.25 -23.8 M29.8 -17.6 Q24.15 -11.3 18.0 -6.3 M46.95 -25.0 Q53.35 -26.0 59.45 -27.8 L62.95 -28.9 65.9 -29.95 Q78.85 -18.75 68.55 4.5 57.05 25.65 36.15 30.0 13.15 32.6 0.1 42.35 -8.15 48.9 -18.0 52.05 -44.5 59.05 -60.85 38.45 L-54.55 34.4 M59.45 -27.8 Q61.55 -21.35 61.55 -15.05 M30.05 19.6 Q21.3 20.85 13.05 24.35 M-62.15 -44.0 Q-61.05 -42.95 -60.4 -41.45 -59.05 -38.5 -60.2 -35.45 -61.3 -32.5 -64.2 -31.15 -67.2 -29.85 -70.2 -30.9 L-71.1 -31.35 M-48.75 -19.05 Q-47.4 -21.85 -44.45 -23.25 -41.15 -24.75 -37.65 -23.4 -34.15 -22.15 -32.6 -18.75 -31.1 -15.45 -32.4 -11.95 -33.5 -8.95 -36.0 -7.45 M-57.7 -23.35 Q-54.4 -25.8 -50.55 -27.8 M-22.5 -53.1 Q-22.35 -51.25 -23.1 -49.2 -24.45 -45.7 -27.85 -44.15 -31.3 -42.65 -34.75 -43.9 -38.2 -45.2 -39.75 -48.6 -40.8 -50.9 -40.55 -53.1 M-19.8 -0.35 Q-13.05 -2.1 -6.9 -4.6 -8.1 -6.3 -10.2 -7.1 L-15.65 -6.9 Q-18.25 -5.65 -19.3 -2.95 -19.75 -1.65 -19.8 -0.35 -25.65 1.1 -31.9 1.9 M-9.2 37.15 Q-20.5 42.9 -31.55 42.35 M-47.5 28.7 Q-39.9 21.75 -33.8 12.5 M-6.9 -4.6 Q12.5 -12.35 25.7 -28.2" fill="none" stroke="#000000" stroke-linecap="round" stroke-linejoin="round" stroke-width="2.0"/>
  </g>
</svg>
