<?xml version="1.0" encoding="UTF-8" standalone="no"?>
<svg xmlns:xlink="http://www.w3.org/1999/xlink" height="60.7px" width="117.1px" xmlns="http://www.w3.org/2000/svg">
  <g transform="matrix(1.0, 0.0, 0.0, 1.0, 58.55, 30.35)">
    <path d="M38.1 -0.8 Q24.45 -13.9 6.95 -6.45 -12.45 -14.4 -23.95 0.85 -29.6 9.55 -23.95 21.15 L-40.1 28.7 Q-48.45 31.8 -52.85 29.15 -54.4 28.15 -55.4 26.5 -56.45 24.8 -57.0 22.45 L-57.6 20.9 Q-58.75 17.35 -58.5 14.45 -57.95 9.2 -52.4 6.1 L-50.1 4.85 Q-48.4 -20.2 -25.5 -22.8 -15.45 -29.75 -1.4 -30.3 25.1 -31.5 35.85 -12.1 37.8 -9.1 38.1 -0.8 53.65 3.5 57.65 15.1 L58.2 16.95 Q58.85 21.4 58.25 23.85 57.8 25.65 56.7 26.4 55.05 27.5 52.15 26.4 41.25 21.8 30.45 19.55 36.65 16.35 37.3 10.9 L37.7 7.25 Q38.2 2.55 38.1 -0.8" fill="#6ce890" fill-rule="evenodd" stroke="none"/>
  </g>
</svg>
