<?xml version="1.0" encoding="UTF-8" standalone="no"?>
<svg xmlns:xlink="http://www.w3.org/1999/xlink" height="72.1px" width="95.0px" xmlns="http://www.w3.org/2000/svg">
  <g transform="matrix(1.0, 0.0, 0.0, 1.0, 47.5, 36.05)">
    <path d="M9.35 -26.75 L9.5 -28.35 7.85 -30.55 10.1 -32.45 12.15 -28.5 Q14.4 -28.65 16.75 -26.05 23.2 -18.65 18.5 -13.9 5.15 -18.3 9.35 -26.75 M12.7 -19.7 L13.8 -22.7 17.2 -17.85 13.8 -22.7 12.7 -19.7 M13.8 -22.7 L11.6 -25.9 13.8 -22.7" fill="#809921" fill-rule="evenodd" stroke="none"/>
    <path d="M30.5 -29.45 Q34.0 -28.1 31.8 -25.35 34.45 -21.6 30.1 -21.4 M16.75 -26.05 Q17.35 -29.25 19.75 -31.65 23.1 -35.05 27.9 -35.05 32.65 -35.05 36.15 -31.65 39.65 -28.25 39.75 -23.45 39.85 -18.65 36.55 -15.25 L35.85 -14.55 Q40.4 -8.15 42.85 0.9 50.3 11.9 42.5 14.0 43.75 19.8 37.95 24.95 44.65 24.0 44.35 29.95 42.55 35.1 32.75 29.7 L31.8 29.2 Q18.3 35.65 1.8 33.9 L-1.35 33.5 Q-9.25 37.15 -9.7 32.1 L-9.7 32.0 Q-13.95 30.6 -17.05 28.05 L-25.05 28.8 Q-35.45 28.25 -41.65 19.65 L-42.5 18.05 Q-45.75 12.05 -46.35 6.0 -47.25 -2.8 -42.55 -11.65 -39.55 -16.25 -35.8 -18.55 -30.05 -22.0 -22.5 -20.15 -22.8 -21.75 -22.65 -23.45 -22.2 -28.25 -18.55 -31.65 -14.9 -35.05 -10.25 -35.05 -5.5 -35.05 -2.5 -31.65 -0.3 -29.15 0.05 -25.9 L9.35 -26.75 9.5 -28.35 7.85 -30.55 10.1 -32.45 12.15 -28.5 Q14.4 -28.65 16.75 -26.05 22.5 -24.9 26.0 -21.6 M22.8 -1.7 Q29.2 -5.5 36.1 -2.65 M9.35 -26.75 Q5.15 -18.3 18.5 -13.9 23.2 -18.65 16.75 -26.05 M-1.35 33.5 L1.4 32.1 1.85 31.8 M37.95 24.95 L32.75 28.65 31.8 29.2 M16.45 3.5 Q18.45 0.65 21.15 3.5 M36.5 4.45 Q34.25 15.9 42.5 14.0 M-12.8 -28.35 Q-9.8 -30.7 -9.2 -26.25 -4.9 -25.3 -7.9 -22.5 M-22.5 -20.15 Q-21.95 -17.4 -20.1 -15.25 L-19.15 -14.3 -20.7 -11.75 Q-23.45 -6.9 -24.6 -2.2 -25.65 1.65 -25.5 5.4 L-25.45 8.05 Q-25.2 13.15 -23.95 17.25 -22.7 21.45 -20.4 24.55 -18.9 26.55 -17.05 28.05 M-35.8 -18.55 Q-34.3 -12.5 -20.7 -11.75 M-24.6 -2.2 Q-38.8 -1.65 -42.55 -11.65 M-7.9 4.85 Q-10.7 14.45 -3.95 14.6 3.5 14.8 1.1 5.2 M-9.7 32.0 Q-10.2 26.0 -4.55 27.15 M-20.4 24.55 L-25.05 28.8 M-42.5 18.05 Q-33.25 20.15 -23.95 17.25 M-46.35 6.0 Q-34.25 11.45 -25.45 8.05 M-0.6 -3.8 Q8.85 -5.5 14.95 -1.55" fill="none" stroke="#000000" stroke-linecap="round" stroke-linejoin="round" stroke-width="2.0"/>
    <path d="M17.2 -17.85 L13.8 -22.7 12.7 -19.7 M11.6 -25.9 L13.8 -22.7" fill="none" stroke="#000000" stroke-linecap="round" stroke-linejoin="round" stroke-width="1.0"/>
  </g>
</svg>
