<?xml version="1.0" encoding="UTF-8" standalone="no"?>
<svg xmlns:xlink="http://www.w3.org/1999/xlink" height="92.85px" width="140.35px" xmlns="http://www.w3.org/2000/svg">
  <g transform="matrix(1.0, 0.0, 0.0, 1.0, 58.65, 219.75)">
    <path d="M14.1 -208.2 L14.5 -208.25 Q15.7 -208.5 16.2 -209.45 16.6 -210.5 16.0 -211.65 15.3 -212.75 13.9 -213.4 L12.85 -213.75 13.4 -215.45 Q14.65 -218.2 17.45 -219.25 L17.8 -219.45 Q16.95 -217.6 18.05 -215.5 19.05 -213.5 21.4 -212.45 23.65 -211.45 25.85 -212.0 L27.3 -212.6 Q27.3 -211.0 26.65 -209.35 25.65 -207.2 23.55 -206.05 L23.45 -206.65 Q23.0 -207.7 22.05 -208.1 L20.1 -208.2 Q19.1 -207.8 18.65 -206.8 18.3 -206.1 18.45 -205.3 L17.0 -205.85 Q15.15 -206.7 14.1 -208.2 M28.2 -201.15 Q30.0 -202.35 31.55 -202.85 33.2 -203.2 33.65 -202.45 34.15 -201.65 33.35 -200.4 32.45 -198.9 30.7 -197.7 28.95 -196.45 27.35 -196.05 25.8 -195.65 25.25 -196.45 24.75 -197.1 25.65 -198.55 26.45 -199.85 28.2 -201.15 M50.15 -193.85 Q48.4 -194.65 46.7 -194.35 45.05 -193.9 44.5 -192.65 43.9 -191.3 44.65 -189.85 45.55 -188.3 47.3 -187.45 49.15 -186.65 50.85 -187.05 52.5 -187.35 53.1 -188.7 53.7 -190.0 52.85 -191.5 52.0 -193.0 50.15 -193.85 M53.95 -193.85 Q57.4 -189.95 57.05 -185.9 56.35 -178.05 49.8 -181.95 44.65 -184.85 40.85 -190.85 36.15 -197.9 43.15 -198.75 49.5 -199.25 53.95 -193.85 M55.35 -165.25 L53.95 -165.3 Q53.2 -165.6 52.95 -166.35 52.7 -167.05 53.0 -167.8 53.35 -168.55 54.05 -168.85 L55.55 -168.8 Q56.2 -168.5 56.5 -167.7 56.75 -167.0 56.4 -166.25 56.1 -165.55 55.35 -165.25 M18.4 -182.9 Q17.25 -182.25 16.1 -182.7 15.0 -183.25 14.7 -184.6 14.35 -185.9 15.05 -187.35 15.65 -188.75 16.85 -189.45 L19.2 -189.6 Q20.3 -189.1 20.6 -187.7 20.95 -186.35 20.35 -184.9 19.65 -183.55 18.4 -182.9 M13.5 -161.65 Q12.25 -163.85 11.35 -166.2 L10.4 -169.1 Q13.2 -172.75 16.8 -170.2 25.15 -180.5 34.25 -174.5 40.85 -169.2 38.3 -155.65 44.55 -152.9 41.35 -147.1 34.1 -146.55 27.0 -149.7 28.75 -150.75 29.65 -152.85 30.8 -155.35 29.95 -157.9 29.25 -160.4 26.9 -161.45 24.65 -162.5 22.2 -161.45 19.7 -160.35 18.55 -157.85 L17.95 -155.75 Q15.4 -158.4 13.5 -161.65" fill="#000000" fill-opacity="0.21960784" fill-rule="evenodd" stroke="none"/>
    <path d="M12.85 -213.75 L13.9 -213.4 Q15.3 -212.75 16.0 -211.65 16.6 -210.5 16.2 -209.45 15.7 -208.5 14.5 -208.25 L14.1 -208.2 Q13.55 -208.95 13.25 -209.9 12.5 -211.85 12.85 -213.75 M18.45 -205.3 Q18.3 -206.1 18.65 -206.8 19.1 -207.8 20.1 -208.2 L22.05 -208.1 Q23.0 -207.7 23.45 -206.65 L23.55 -206.05 22.55 -205.7 Q20.5 -204.85 18.45 -205.3 M27.3 -212.6 L25.85 -212.0 Q23.65 -211.45 21.4 -212.45 19.05 -213.5 18.05 -215.5 16.95 -217.6 17.8 -219.45 20.45 -220.2 23.05 -219.1 25.75 -217.8 26.8 -215.05 27.3 -213.85 27.3 -212.6" fill="#000000" fill-opacity="0.4392157" fill-rule="evenodd" stroke="none"/>
    <path d="M-53.85 -193.55 Q-54.6 -197.55 -52.85 -201.45 L-52.8 -201.65 Q-49.25 -201.85 -48.65 -194.95 -47.1 -188.25 -38.0 -190.1 -32.25 -191.6 -32.2 -185.8 -33.9 -184.35 -36.15 -183.45 -41.25 -181.55 -46.3 -183.85 -51.25 -186.15 -53.25 -191.3 L-53.85 -193.55 M-39.25 -205.5 Q-39.0 -204.85 -39.25 -204.25 -39.55 -203.7 -40.1 -203.45 L-41.25 -203.5 -42.1 -204.4 Q-42.35 -205.0 -42.05 -205.55 L-41.2 -206.4 -40.0 -206.3 Q-39.45 -206.05 -39.25 -205.5 M-44.4 -200.95 Q-42.9 -201.3 -41.5 -200.6 -40.05 -199.95 -39.35 -198.65 -38.65 -197.25 -39.2 -196.1 -39.7 -194.9 -41.15 -194.6 L-44.05 -194.85 Q-45.55 -195.5 -46.3 -196.85 -46.95 -198.2 -46.45 -199.4 -45.85 -200.6 -44.4 -200.95 M-30.7 -197.85 Q-31.0 -197.2 -31.9 -197.0 -32.7 -196.85 -33.55 -197.25 -34.4 -197.65 -34.8 -198.35 -35.25 -199.1 -34.95 -199.75 -34.65 -200.4 -33.8 -200.6 L-32.15 -200.3 Q-31.25 -199.9 -30.9 -199.2 -30.45 -198.5 -30.7 -197.85" fill="#000000" fill-opacity="0.32941177" fill-rule="evenodd" stroke="none"/>
    <path d="M-53.35 -162.95 L-53.2 -163.35 Q-52.35 -165.25 -50.4 -166.05 L-46.45 -165.9 Q-44.55 -165.0 -43.85 -163.1 L-43.55 -161.95 Q-43.3 -160.5 -43.9 -159.15 -44.8 -157.25 -46.8 -156.55 L-50.65 -156.65 Q-52.6 -157.5 -53.35 -159.5 -54.0 -161.25 -53.35 -162.95" fill="#ba9489" fill-rule="evenodd" stroke="none"/>
    <path d="M56.9 -146.9 Q56.7 -145.8 57.15 -144.5 58.0 -142.35 60.05 -141.4 L64.25 -141.3 Q66.4 -142.0 67.3 -144.05 68.2 -146.15 67.5 -148.35 66.65 -150.4 64.55 -151.35 63.2 -152.0 61.85 -151.85 L63.7 -152.7 Q68.8 -154.6 73.9 -152.35 78.85 -150.05 80.85 -144.95 82.75 -139.7 80.45 -134.75 78.15 -129.65 73.05 -127.85 70.05 -126.65 67.15 -126.95 67.9 -127.65 68.35 -128.75 69.2 -130.55 68.7 -132.3 68.25 -133.95 66.8 -134.65 L63.75 -134.55 Q62.15 -133.8 61.3 -132.0 60.7 -130.55 60.9 -129.15 57.4 -131.5 55.9 -135.6 53.95 -140.7 56.25 -145.75 L56.9 -146.9 M72.35 -142.35 Q75.45 -138.1 77.65 -140.6 78.3 -142.55 76.65 -145.6 74.4 -149.85 70.3 -148.45 68.7 -146.95 72.35 -142.35 M72.2 -133.95 Q71.95 -133.45 72.25 -132.85 72.45 -132.45 72.95 -132.2 L74.0 -132.1 74.7 -132.85 Q74.95 -133.35 74.75 -133.9 L74.0 -134.6 73.0 -134.65 72.2 -133.95" fill="#cfc5b9" fill-rule="evenodd" stroke="none"/>
    <path d="M61.85 -151.85 Q63.2 -152.0 64.55 -151.35 66.65 -150.4 67.5 -148.35 68.2 -146.15 67.3 -144.05 66.4 -142.0 64.25 -141.3 L60.05 -141.4 Q58.0 -142.35 57.15 -144.5 56.7 -145.8 56.9 -146.9 58.65 -150.15 61.85 -151.85 M60.9 -129.15 Q60.7 -130.55 61.3 -132.0 62.15 -133.8 63.75 -134.55 L66.8 -134.65 Q68.25 -133.95 68.7 -132.3 69.2 -130.55 68.35 -128.75 67.9 -127.65 67.15 -126.95 64.9 -127.15 62.85 -128.1 L60.9 -129.15 M72.35 -142.35 Q68.7 -146.95 70.3 -148.45 74.4 -149.85 76.65 -145.6 78.3 -142.55 77.65 -140.6 75.45 -138.1 72.35 -142.35 M72.2 -133.95 L73.0 -134.65 74.0 -134.6 74.75 -133.9 Q74.95 -133.35 74.7 -132.85 L74.0 -132.1 72.95 -132.2 Q72.45 -132.45 72.25 -132.85 71.95 -133.45 72.2 -133.95" fill="#a69b89" fill-rule="evenodd" stroke="none"/>
    <path d="M-53.35 -206.85 L-56.35 -206.95 Q-57.8 -207.65 -58.35 -209.1 -58.95 -210.6 -58.25 -212.05 -57.55 -213.55 -56.05 -214.2 L-53.1 -214.05 Q-51.65 -213.4 -51.1 -211.85 -50.5 -210.4 -51.25 -208.85 -51.9 -207.4 -53.35 -206.85" fill="#aeb6c3" fill-rule="evenodd" stroke="none"/>
  </g>
</svg>
