<?xml version="1.0" encoding="UTF-8" standalone="no"?>
<svg xmlns:xlink="http://www.w3.org/1999/xlink" height="122.05px" width="111.75px" xmlns="http://www.w3.org/2000/svg">
  <g transform="matrix(1.0, 0.0, 0.0, 1.0, 55.85, 61.0)">
    <path d="M37.6 -34.05 L38.2 -7.85 Q33.4 -7.25 29.8 -3.25 25.5 1.4 25.6 8.1 25.5 14.75 29.8 19.45 32.95 23.05 37.15 23.9 L34.25 29.85 30.5 30.3 30.5 33.7 17.45 34.1 17.45 31.4 12.15 31.65 12.15 34.8 Q5.4 36.1 -1.55 34.6 L-1.55 31.85 -4.65 31.75 -4.65 20.8 -2.4 19.2 Q3.35 14.15 3.35 7.4 3.35 0.55 -2.4 -4.15 -8.25 -9.0 -16.65 -9.0 -24.1 -9.0 -29.85 -5.25 -28.85 -16.15 -40.05 -14.25 -39.05 -17.05 -40.55 -18.15 -42.05 -19.55 -44.85 -18.15 -47.5 -17.2 -49.85 -14.5 -52.0 -12.25 -52.65 -9.95 -53.35 -7.65 -52.25 -6.35 -51.35 -5.3 -49.5 -5.55 -52.05 4.0 -47.75 9.1 L-48.55 16.2 -43.7 10.35 Q-39.8 11.65 -37.5 7.05 L-37.55 8.3 Q-37.6 15.3 -31.35 20.05 -25.2 24.8 -16.65 24.45 L-10.9 23.6 -10.9 31.45 -7.25 31.65 -7.25 34.9 Q-14.15 35.95 -20.65 34.65 L-20.65 30.7 -26.05 30.1 -26.05 33.7 -33.7 33.3 -35.75 32.55 -35.75 28.65 -37.9 28.3 -39.25 28.0 -39.25 30.85 Q-44.4 31.45 -48.75 28.85 L-48.7 26.05 -50.55 25.6 Q-60.7 0.4 -51.45 -33.75 -39.45 -52.3 -16.1 -58.9 17.75 -65.8 40.25 -50.05 33.35 -50.9 35.75 -43.4 31.0 -42.5 34.45 -37.2 36.25 -34.5 37.6 -34.05 M31.45 -46.05 L30.7 -46.75 29.65 -46.75 28.75 -46.1 Q28.3 -45.5 28.25 -44.8 28.25 -43.95 28.85 -43.45 L30.6 -43.35 Q31.4 -43.65 31.65 -44.6 31.85 -45.4 31.45 -46.05 M47.0 27.3 L48.45 27.45 Q49.9 27.35 51.5 26.65 L51.5 17.8 51.6 17.6 Q54.25 13.6 54.35 8.35 L54.35 8.1 54.35 7.65 Q54.2 2.5 51.6 -1.4 L50.2 -3.25 48.3 -5.0 50.5 -9.3 Q48.4 -19.1 45.25 -23.95 L46.55 -10.55 42.5 -7.7 41.65 -35.5 Q50.15 -30.95 46.95 -43.15 49.7 -38.15 51.6 -32.75 57.3 -16.3 54.95 3.5 56.35 17.9 55.65 23.8 L54.55 24.75 Q55.6 28.0 51.6 29.35 L51.35 29.4 47.0 30.1 47.0 27.3 Q44.85 26.65 44.05 23.55 45.55 23.05 46.95 22.2 L47.0 27.3 M28.95 54.8 L28.95 45.55 Q32.05 45.45 32.3 41.5 L22.15 42.5 22.15 40.4 Q28.65 37.7 36.25 38.7 L36.25 40.85 41.1 40.0 41.1 37.8 Q43.3 36.1 46.95 35.9 L51.2 36.05 51.95 37.5 54.85 36.65 Q53.95 42.4 51.6 46.6 47.7 53.55 39.7 56.5 L28.95 58.9 28.95 54.8 Q34.05 54.25 37.85 51.3 39.6 48.1 39.6 43.0 36.2 49.7 28.95 54.8 M23.75 17.9 Q23.25 18.15 23.25 19.2 23.35 20.25 24.0 21.35 24.7 22.5 25.5 23.05 26.45 23.6 27.0 23.3 27.55 23.0 27.5 21.95 27.5 20.95 26.85 19.8 26.15 18.7 25.25 18.1 24.35 17.55 23.75 17.9 M0.4 43.0 L0.4 40.4 Q8.1 38.5 16.35 40.2 L16.35 42.9 15.25 43.05 Q16.15 51.7 15.1 60.45 L15.05 60.65 10.65 60.9 Q1.45 61.3 -8.0 60.45 L-15.05 59.65 Q-17.3 53.8 -15.55 47.85 -6.05 50.45 -6.0 42.7 L0.4 43.0 M-26.75 40.65 L-23.55 41.25 Q-20.6 41.9 -21.1 43.8 -25.15 46.3 -21.5 48.25 -22.6 53.7 -21.45 58.65 L-31.35 56.5 -33.0 56.1 Q-44.85 49.4 -46.2 36.8 L-36.5 38.7 Q-35.3 37.6 -33.7 37.1 L-33.1 36.9 Q-30.3 36.35 -26.55 38.05 L-26.75 40.65 M-30.5 -18.0 Q-28.2 -14.95 -25.6 -12.75 -23.85 -18.7 -30.5 -18.0" fill="#9a9187" fill-rule="evenodd" stroke="none"/>
  </g>
</svg>
