<?xml version="1.0" encoding="UTF-8" standalone="no"?>
<svg xmlns:xlink="http://www.w3.org/1999/xlink" height="97.05px" width="89.4px" xmlns="http://www.w3.org/2000/svg">
  <g transform="matrix(1.0, 0.0, 0.0, 1.0, 44.7, 48.5)">
    <path d="M34.85 -47.6 L35.7 -19.8 33.15 -20.05 31.4 -19.95 30.8 -46.15 Q32.4 -45.65 33.35 -48.5 L34.85 -47.6 M40.2 15.2 L40.15 10.1 Q41.85 9.0 43.4 7.35 L44.7 5.7 44.7 14.55 Q43.1 15.25 41.65 15.35 L40.2 15.2 M-11.45 8.7 L-11.45 19.65 -14.05 19.55 -17.7 19.35 -17.7 11.5 Q-14.3 10.6 -11.45 8.7 M25.5 29.4 Q25.25 33.35 22.15 33.45 L22.15 46.8 10.55 48.35 8.25 48.55 8.3 48.35 Q9.35 39.6 8.45 30.95 L9.55 30.8 15.35 30.4 25.5 29.4 M40.15 23.8 L40.2 18.0 44.55 17.3 44.4 23.95 40.15 23.8 M-21.85 47.55 L-28.25 46.55 Q-29.4 41.6 -28.3 36.15 -24.65 37.4 -22.35 35.75 -24.1 41.7 -21.85 47.55 M-42.55 16.55 L-42.55 20.45 -40.5 21.2 -40.5 25.0 Q-42.1 25.5 -43.3 26.6 L-44.7 26.3 -44.7 16.2 -42.55 16.55" fill="#000000" fill-rule="evenodd" stroke="none"/>
  </g>
</svg>
