<?xml version="1.0" encoding="UTF-8" standalone="no"?>
<svg xmlns:xlink="http://www.w3.org/1999/xlink" height="124.05px" width="113.75px" xmlns="http://www.w3.org/2000/svg">
  <g transform="matrix(1.0, 0.0, 0.0, 1.0, 56.85, 62.0)">
    <path d="M31.45 -46.05 Q31.85 -45.4 31.65 -44.6 31.4 -43.65 30.6 -43.35 L28.85 -43.45 Q28.25 -43.95 28.25 -44.8 28.3 -45.5 28.75 -46.1 L29.65 -46.75 30.7 -46.75 31.45 -46.05 M37.6 -34.05 Q36.25 -34.5 34.45 -37.2 31.0 -42.5 35.75 -43.4 33.35 -50.9 40.25 -50.05 17.75 -65.8 -16.1 -58.9 -39.45 -52.3 -51.45 -33.75 -60.7 0.4 -50.55 25.6 L-48.7 26.05 -47.8 26.15 -47.8 15.2 -48.55 16.2 -47.75 9.1 Q-52.05 4.0 -49.5 -5.55 -51.35 -5.3 -52.25 -6.35 -53.35 -7.65 -52.65 -9.95 -52.0 -12.25 -49.85 -14.5 -47.5 -17.2 -44.85 -18.15 -42.05 -19.55 -40.55 -18.15 -39.05 -17.05 -40.05 -14.25 -28.85 -16.15 -29.85 -5.25 -24.1 -9.0 -16.65 -9.0 -8.25 -9.0 -2.4 -4.15 3.35 0.55 3.35 7.4 3.35 14.15 -2.4 19.2 L-4.65 20.8 -4.65 31.75 -1.55 31.85 Q5.25 31.95 12.15 31.65 L17.45 31.4 30.5 30.3 34.25 29.85 37.15 23.9 Q32.95 23.05 29.8 19.45 25.5 14.75 25.6 8.1 25.5 1.4 29.8 -3.25 33.4 -7.25 38.2 -7.85 L37.6 -34.05 Q39.2 -33.55 40.15 -36.4 L41.65 -35.5 Q50.15 -30.95 46.95 -43.15 49.7 -38.15 51.6 -32.75 57.3 -16.3 54.95 3.5 56.35 17.9 55.65 23.8 L54.55 24.75 Q55.6 28.0 51.6 29.35 L51.35 29.4 51.2 36.05 51.95 37.5 54.85 36.65 Q53.95 42.4 51.6 46.6 47.7 53.55 39.7 56.5 L28.95 58.9 17.35 60.45 15.05 60.65 10.65 60.9 Q1.45 61.3 -8.0 60.45 L-15.05 59.65 -21.45 58.65 -31.35 56.5 -33.0 56.1 Q-44.85 49.4 -46.2 36.8 L-37.9 38.4 -37.9 28.3 -39.25 28.0 -39.25 30.85 Q-44.4 31.45 -48.75 28.85 L-48.7 26.05 M38.2 -7.85 L39.95 -7.95 42.5 -7.7 41.65 -35.5 M42.5 -7.7 L46.55 -10.55 45.25 -23.95 Q48.4 -19.1 50.5 -9.3 L48.3 -5.0 50.2 -3.25 51.6 -1.4 Q54.2 2.5 54.35 7.65 L54.95 3.5 M54.35 7.65 L54.35 8.1 54.35 8.35 Q54.25 13.6 51.6 17.6 L51.5 17.8 51.5 26.65 51.6 26.6 Q53.05 25.9 54.55 24.75 M46.95 22.2 Q45.55 23.05 44.05 23.55 44.85 26.65 47.0 27.3 L46.95 22.2 50.2 19.45 51.5 17.8 M47.0 27.3 L48.45 27.45 Q49.9 27.35 51.5 26.65 M-4.65 31.75 L-7.25 31.65 -7.25 34.9 Q-14.15 35.95 -20.65 34.65 L-20.65 30.7 -26.05 30.1 -26.05 33.7 -33.7 33.3 -33.7 37.1 -33.1 36.9 Q-30.3 36.35 -26.55 38.05 L-26.75 40.65 -23.55 41.25 Q-20.6 41.9 -21.1 43.8 -25.15 46.3 -21.5 48.25 -17.85 49.5 -15.55 47.85 -6.05 50.45 -6.0 42.7 L0.4 43.0 0.4 40.4 Q8.1 38.5 16.35 40.2 L16.35 42.9 22.15 42.5 22.15 40.4 Q28.65 37.7 36.25 38.7 L36.25 40.85 41.1 40.0 41.1 37.8 Q43.3 36.1 46.95 35.9 L47.0 30.1 47.0 27.3 M51.95 37.5 L51.6 37.6 41.1 40.0 M46.95 35.9 L51.2 36.05 M47.0 30.1 L51.35 29.4 M23.75 17.9 Q24.35 17.55 25.25 18.1 26.15 18.7 26.85 19.8 27.5 20.95 27.5 21.95 27.55 23.0 27.0 23.3 26.45 23.6 25.5 23.05 24.7 22.5 24.0 21.35 23.35 20.25 23.25 19.2 23.25 18.15 23.75 17.9 M44.05 23.55 L39.95 24.15 37.15 23.9 M-1.55 31.85 L-1.55 34.6 Q5.4 36.1 12.15 34.8 L12.15 31.65 M17.45 31.4 L17.45 34.1 30.5 33.7 30.5 30.3 M15.05 60.65 L15.1 60.45 Q16.15 51.7 15.25 43.05 L11.15 43.05 Q12.5 51.75 10.75 60.45 L10.65 60.9 M16.35 42.9 L15.25 43.05 M11.15 43.05 L0.4 43.0 M36.25 40.85 L32.3 41.5 Q32.05 45.45 28.95 45.55 L28.95 54.8 Q36.2 49.7 39.6 43.0 39.6 48.1 37.85 51.3 34.05 54.25 28.95 54.8 L28.95 58.9 M32.3 41.5 L22.15 42.5 M33.0 22.85 L33.1 29.45 M-13.4 -51.05 L-15.55 -49.9 -12.0 -47.2 Q-11.0 -47.6 -10.05 -48.05 M-22.8 -49.95 L-19.3 -48.0 -15.55 -49.9 -21.0 -53.4 M-20.55 -43.3 L-15.55 -45.6 Q-17.35 -46.9 -19.3 -48.0 L-24.15 -45.6 M-5.8 -41.65 Q-8.75 -44.6 -12.0 -47.2 L-15.55 -45.6 Q-12.05 -43.1 -9.0 -40.05 M-30.5 -18.0 Q-23.85 -18.7 -25.6 -12.75 -28.2 -14.95 -30.5 -18.0 M-4.65 20.8 Q-7.5 22.7 -10.9 23.6 L-10.9 31.45 -7.25 31.65 M-10.9 23.6 L-16.65 24.45 -16.65 31.05 -10.9 31.45 M-16.65 24.45 Q-25.2 24.8 -31.35 20.05 -37.6 15.3 -37.55 8.3 L-37.5 7.05 Q-39.8 11.65 -43.7 10.35 L-47.8 15.2 M-33.7 33.3 L-35.75 32.55 -35.75 28.65 -37.9 28.3 M-33.7 37.1 Q-35.3 37.6 -36.5 38.7 L-33.05 39.4 -26.75 40.65 M-37.9 38.4 L-36.5 38.7 M-26.05 30.1 L-35.75 28.65 M-20.65 30.7 L-16.65 31.05 M-47.8 26.15 L-39.25 28.0 M-33.05 39.4 Q-34.2 48.2 -31.35 56.5 M-21.5 48.25 Q-22.6 53.7 -21.45 58.65 M-15.55 47.85 Q-17.3 53.8 -15.05 59.65" fill="none" stroke="#000000" stroke-linecap="round" stroke-linejoin="round" stroke-width="2.0"/>
  </g>
</svg>
