<?xml version="1.0" encoding="UTF-8" standalone="no"?>
<svg xmlns:xlink="http://www.w3.org/1999/xlink" height="150.9px" width="149.0px" xmlns="http://www.w3.org/2000/svg">
  <g transform="matrix(1.0, 0.0, 0.0, 1.0, 74.5, 75.45)">
    <path d="M61.65 -11.4 L61.7 -13.15 Q62.4 -47.4 39.0 -71.4 26.75 -54.95 21.5 -36.7 L30.1 -35.3 Q32.1 -48.8 40.25 -61.2 M42.45 -58.3 Q49.3 -48.95 50.25 -36.9 M30.1 -35.3 Q36.05 -33.95 42.05 -31.9 M61.7 -13.15 Q66.2 -2.55 63.9 15.85 L63.7 17.0 68.55 1.65 Q73.4 10.85 73.5 19.7 73.4 28.25 68.7 36.5 L73.25 31.5 Q74.25 52.95 56.1 57.6 L62.45 59.6 Q58.35 64.65 51.05 62.6 40.05 71.65 20.2 74.1 L11.95 74.45 Q-12.6 74.35 -40.0 61.2 -48.75 64.25 -54.95 59.05 -50.0 58.6 -47.0 56.7 -56.6 57.65 -65.45 51.05 -73.65 44.8 -73.5 31.5 -69.7 35.55 -65.65 38.65 -73.15 28.6 -73.05 19.15 -73.0 10.05 -66.15 1.55 -64.55 8.65 -55.3 20.75 L-56.9 15.0 Q-62.85 -11.25 -52.2 -29.75 -52.0 -54.05 -38.55 -74.45 -16.05 -62.3 -7.45 -36.5 7.15 -38.65 21.5 -36.7 M51.05 62.6 Q53.95 60.25 56.1 57.6 59.35 53.35 61.45 48.4 L61.45 45.85 61.45 29.35 63.7 17.0 M68.7 36.5 Q65.9 41.25 61.45 45.85 M59.4 34.1 Q46.6 29.55 31.95 32.6 32.65 16.45 47.1 14.85 59.4 16.45 59.4 34.1 M-1.85 42.05 Q4.8 51.25 22.8 44.65 38.25 50.45 40.0 42.65 M-21.65 -51.45 Q-27.05 -60.6 -36.3 -66.6 -44.75 -49.15 -43.95 -27.05 -30.75 -33.65 -15.8 -33.85 -15.25 -39.3 -18.65 -45.15 M-43.95 -27.05 L-45.85 -26.1 M-12.05 -33.8 L-15.8 -33.85 M-33.0 34.3 Q-27.3 16.05 -12.05 15.0 5.95 15.0 11.1 33.0 -10.7 29.4 -33.0 34.3 M-65.65 38.65 Q-55.45 46.35 -44.6 47.25 M-55.3 20.75 Q-50.3 27.35 -42.8 35.65 M-42.15 55.7 L-47.0 56.7" fill="none" stroke="#000000" stroke-linecap="round" stroke-linejoin="round" stroke-width="2.0"/>
  </g>
</svg>
