<?xml version="1.0" encoding="UTF-8" standalone="no"?>
<svg xmlns:xlink="http://www.w3.org/1999/xlink" height="50.65px" width="89.0px" xmlns="http://www.w3.org/2000/svg">
  <g transform="matrix(1.0, 0.0, 0.0, 1.0, 41.0, 67.3)">
    <path d="M42.6 -50.6 Q42.0 -53.35 40.8 -55.75 L41.9 -56.35 Q45.85 -58.4 47.15 -54.85 47.8 -51.3 44.6 -50.7 L42.6 -50.6 M37.75 -60.0 Q36.0 -61.7 34.0 -62.3 33.1 -67.75 37.2 -67.25 41.35 -66.65 38.1 -60.55 L37.75 -60.0 M22.9 -56.55 Q21.2 -53.55 20.55 -49.85 14.65 -51.45 16.9 -55.35 19.8 -58.6 22.9 -56.55 M20.4 -41.7 Q20.75 -38.5 21.95 -35.8 16.05 -35.25 16.25 -38.1 15.75 -40.55 20.3 -41.65 L20.4 -41.7 M25.0 -30.9 Q27.65 -28.0 31.05 -27.75 29.85 -23.15 25.5 -24.1 21.3 -25.7 25.0 -30.9 M37.5 -30.15 L39.8 -32.9 40.9 -34.75 Q45.65 -28.9 43.55 -26.85 38.65 -23.55 37.25 -29.1 L37.2 -29.4 37.5 -30.15 M42.65 -40.1 Q43.1 -42.5 43.1 -45.2 L43.1 -45.6 Q48.05 -44.85 48.0 -41.45 46.9 -38.05 42.65 -40.1 M-27.65 -59.6 Q-30.85 -65.75 -24.6 -67.1 -20.0 -67.3 -19.65 -61.95 L-19.65 -61.5 -19.6 -61.05 -21.35 -61.25 -21.9 -61.3 -22.65 -61.25 Q-25.35 -61.1 -27.65 -59.6 M-14.35 -58.2 L-14.2 -58.55 -13.75 -59.5 Q-11.4 -64.0 -7.45 -61.1 -5.15 -57.45 -9.0 -55.5 -10.05 -55.0 -11.45 -54.6 L-12.3 -55.85 -14.35 -58.2 M-8.8 -47.6 Q-4.15 -49.6 -2.1 -45.85 -0.7 -41.8 -7.95 -42.4 L-8.1 -42.4 -8.35 -42.45 -8.35 -42.7 Q-8.35 -45.3 -8.8 -47.6 M-9.0 -36.7 Q-2.4 -33.85 -2.95 -29.95 -4.65 -26.45 -10.95 -30.35 L-11.3 -31.05 Q-9.75 -33.65 -9.0 -36.7 M-16.75 -25.35 Q-13.55 -18.5 -18.3 -18.45 -23.65 -18.35 -22.1 -24.05 L-21.95 -24.05 -21.35 -24.05 Q-18.9 -24.2 -16.75 -25.35 M-29.35 -27.0 Q-33.35 -23.35 -36.35 -27.1 -38.5 -30.65 -33.55 -33.05 L-33.35 -32.55 -31.55 -29.55 Q-30.5 -28.1 -29.35 -27.0 M-35.3 -39.3 L-35.95 -38.7 Q-41.05 -41.05 -40.95 -43.45 -41.55 -46.7 -34.95 -48.25 -35.5 -45.55 -35.5 -42.7 L-35.3 -39.3" fill="#000000" fill-opacity="0.21960784" fill-rule="evenodd" stroke="none"/>
    <path d="M40.8 -55.75 Q42.0 -53.35 42.6 -50.6 43.05 -48.25 43.1 -45.6 L43.1 -45.2 Q43.1 -42.5 42.65 -40.1 42.1 -37.25 40.9 -34.75 L39.8 -32.9 37.5 -30.15 36.85 -29.6 Q34.65 -27.9 32.1 -27.75 L31.6 -27.75 31.5 -27.75 31.05 -27.75 Q27.65 -28.0 25.0 -30.9 L23.5 -32.9 21.95 -35.8 Q20.75 -38.5 20.4 -41.7 L20.3 -42.4 Q20.15 -43.75 20.15 -45.2 20.15 -47.45 20.5 -49.5 L20.55 -49.85 Q21.2 -53.55 22.9 -56.55 L23.5 -57.5 Q24.9 -59.65 26.55 -60.9 L26.9 -61.15 Q28.8 -62.45 31.05 -62.6 L31.65 -62.65 32.1 -62.6 33.4 -62.45 34.0 -62.3 Q36.0 -61.7 37.75 -60.0 L39.8 -57.5 40.8 -55.75 M12.4 -19.85 Q13.35 -14.5 7.8 -18.9 2.45 -13.85 3.5 -20.25 4.05 -23.4 7.7 -25.3 11.25 -23.75 12.4 -19.85 M-27.65 -59.6 Q-25.35 -61.1 -22.65 -61.25 L-21.9 -61.3 -21.35 -61.25 -19.6 -61.05 Q-16.75 -60.45 -14.35 -58.2 L-12.3 -55.85 -11.45 -54.6 Q-9.6 -51.6 -8.85 -48.0 L-8.8 -47.6 Q-8.35 -45.3 -8.35 -42.7 L-8.35 -42.45 Q-8.4 -39.45 -9.0 -36.75 L-9.3 -36.85 -9.0 -36.7 Q-9.75 -33.65 -11.3 -31.05 L-12.3 -29.55 Q-14.2 -26.95 -16.45 -25.55 L-16.75 -25.35 Q-18.9 -24.2 -21.35 -24.05 L-21.95 -24.05 -22.1 -24.05 -22.65 -24.05 Q-26.35 -24.3 -29.3 -26.95 L-28.95 -27.35 -29.35 -27.0 Q-30.5 -28.1 -31.55 -29.55 L-33.35 -32.55 -33.55 -33.05 Q-34.85 -35.95 -35.3 -39.3 L-35.5 -42.7 Q-35.5 -45.55 -34.95 -48.25 -34.2 -51.75 -32.25 -54.75 L-32.25 -54.8 -31.55 -55.85 Q-29.8 -58.25 -27.7 -59.6 L-27.65 -59.6" fill="#000000" fill-rule="evenodd" stroke="none"/>
  </g>
</svg>
