<?xml version="1.0" encoding="UTF-8" standalone="no"?>
<svg xmlns:xlink="http://www.w3.org/1999/xlink" height="85.8px" width="136.0px" xmlns="http://www.w3.org/2000/svg">
  <g transform="matrix(1.0, 0.0, 0.0, 1.0, 68.0, 42.9)">
    <path d="M-1.15 -19.5 Q1.2 -24.0 5.15 -21.1 7.45 -17.45 3.6 -15.5 9.0 -17.15 9.55 -12.2 10.75 -8.7 3.75 -8.0 L3.8 -7.6 Q8.45 -9.6 10.5 -5.85 11.9 -1.8 4.65 -2.4 10.8 -1.7 11.0 2.15 9.7 5.25 3.6 3.25 L3.6 3.3 Q10.2 6.15 9.65 10.05 7.95 13.55 1.65 9.65 7.8 14.0 4.9 17.4 -0.1 20.55 -3.45 15.15 L-4.15 14.65 Q-0.95 21.5 -5.7 21.55 -11.05 21.65 -9.5 15.95 -11.35 21.2 -16.75 20.4 -21.05 17.75 -16.9 13.25 L-16.7 13.05 -16.75 13.0 Q-20.75 16.65 -23.75 12.9 -25.9 9.35 -20.95 6.95 -27.95 7.4 -27.55 4.0 -27.1 0.1 -23.35 1.3 -28.45 -1.05 -28.35 -3.45 -28.95 -6.7 -22.35 -8.25 -29.1 -7.8 -27.5 -12.85 -25.45 -17.0 -21.1 -15.4 -24.35 -17.35 -21.5 -21.05 -17.95 -25.8 -15.1 -19.6 L-15.05 -19.6 Q-18.25 -25.75 -12.0 -27.1 -7.4 -27.3 -7.05 -21.95 -7.3 -28.85 -2.75 -27.35 1.55 -25.65 -1.15 -19.5 L-1.6 -18.55 -1.75 -18.2 0.3 -15.85 1.15 -14.6 Q2.55 -15.0 3.6 -15.5 M3.8 -7.6 L4.25 -2.7 4.25 -2.45 4.5 -2.4 4.65 -2.4 M1.15 -14.6 Q3.0 -11.6 3.75 -8.0 M39.15 -20.9 L39.45 -21.65 Q36.6 -26.3 33.2 -22.75 32.2 -19.4 35.5 -16.55 L36.1 -17.5 Q37.5 -19.65 39.15 -20.9 L39.5 -21.15 Q41.4 -22.45 43.65 -22.6 L44.25 -22.65 44.7 -22.6 46.0 -22.45 46.6 -22.3 Q45.2 -28.8 41.75 -28.1 37.9 -27.15 39.45 -21.65 M32.9 -2.4 Q32.75 -3.75 32.75 -5.2 32.75 -7.45 33.1 -9.5 27.95 -9.25 28.0 -5.85 29.5 -2.2 32.9 -2.4 L33.0 -1.7 Q33.35 1.5 34.55 4.2 35.2 5.75 36.1 7.1 L37.6 9.1 Q40.25 12.0 43.65 12.25 L44.1 12.25 44.2 12.25 44.7 12.25 Q47.25 12.1 49.45 10.4 L50.1 9.85 52.4 7.1 53.5 5.25 53.15 4.85 M33.0 -1.7 L32.9 -1.65 Q28.35 -0.55 28.85 1.9 28.65 4.75 34.55 4.2 29.85 6.2 32.0 9.1 33.65 12.25 37.6 9.1 33.9 14.3 38.1 15.9 42.45 16.85 43.65 12.25 43.4 15.8 47.1 16.9 51.0 15.95 49.85 10.9 L49.8 10.6 49.45 10.4 M33.1 -9.5 L33.15 -9.85 Q27.25 -11.45 29.5 -15.35 32.4 -18.6 35.5 -16.55 33.8 -13.55 33.15 -9.85 M32.9 -1.65 L32.9 -2.4 M46.6 -22.3 Q45.7 -27.75 49.8 -27.25 53.95 -26.65 50.7 -20.55 53.6 -25.55 56.5 -21.35 57.8 -18.55 54.5 -16.35 58.45 -18.4 59.75 -14.85 60.4 -11.3 57.2 -10.7 60.75 -10.75 61.25 -8.35 61.85 -5.55 55.7 -5.6 60.65 -4.85 60.6 -1.45 59.5 1.95 55.25 -0.1 60.6 3.25 60.35 6.9 58.45 10.75 53.5 5.25 58.25 11.1 56.15 13.15 51.25 16.45 49.85 10.9 M50.7 -20.55 L50.35 -20.0 52.4 -17.5 53.4 -15.75 54.5 -16.35 M46.6 -22.3 Q48.6 -21.7 50.35 -20.0 M57.2 -10.7 L55.2 -10.6 Q55.65 -8.25 55.7 -5.6 L55.7 -5.2 Q55.7 -2.5 55.25 -0.1 54.7 2.75 53.5 5.25 M55.2 -10.6 L54.7 -10.6 M53.4 -15.75 Q54.6 -13.35 55.2 -10.6 M-67.0 -1.65 Q-54.95 -0.4 -42.9 -1.65 -45.25 -13.1 -37.9 -26.05 -25.4 -49.5 -2.4 -38.3 18.8 -25.5 33.85 -37.3 52.65 -46.65 63.85 -23.3 77.05 19.1 35.35 23.45 37.25 31.35 35.35 38.45 31.35 40.05 27.1 40.95 L19.65 41.85 10.4 41.45 1.6 39.7 Q-1.2 32.2 1.6 24.45 -25.1 26.05 -36.65 11.5 -41.5 5.2 -42.9 -1.65 M50.1 9.85 L49.8 10.6 M25.0 20.15 Q23.85 16.25 20.3 14.7 16.65 16.6 16.1 19.75 15.05 26.15 20.4 21.1 25.95 25.5 25.0 20.15 M3.6 3.25 L3.3 3.15 3.6 3.3 Q2.85 6.35 1.3 8.95 L1.65 9.65 M1.3 8.95 L0.3 10.45 Q-1.6 13.05 -3.85 14.45 L-3.45 15.15 M19.6 31.2 L19.65 41.85 M10.35 31.7 L10.4 41.45 M26.6 31.2 L27.1 40.95 M4.25 -2.45 Q4.2 0.55 3.6 3.25 M-23.35 1.3 L-22.7 0.7 -22.9 -2.7 Q-22.9 -5.55 -22.35 -8.25 -21.6 -11.75 -19.65 -14.75 L-19.8 -14.85 -21.1 -15.4 M-15.05 -19.6 Q-12.75 -21.1 -10.05 -21.25 L-9.3 -21.3 -8.75 -21.25 -7.0 -21.05 -7.05 -21.5 -7.05 -21.95 M-7.0 -21.05 Q-4.15 -20.45 -1.75 -18.2 M-19.8 -14.85 L-19.65 -14.8 -18.95 -15.85 Q-17.2 -18.25 -15.1 -19.6 M-19.65 -14.75 L-19.65 -14.8 M-16.7 13.05 L-16.35 12.65 -16.75 13.0 -18.95 10.45 -20.75 7.45 -20.95 6.95 Q-22.25 4.05 -22.7 0.7 M-3.85 14.45 L-4.15 14.65 Q-6.3 15.8 -8.75 15.95 L-9.35 15.95 -9.5 15.95 -10.05 15.95 Q-13.75 15.7 -16.7 13.05" fill="none" stroke="#000000" stroke-linecap="round" stroke-linejoin="round" stroke-width="2.0"/>
  </g>
</svg>
