<?xml version="1.0" encoding="UTF-8" standalone="no"?>
<svg xmlns:xlink="http://www.w3.org/1999/xlink" height="183.85px" width="217.6px" xmlns="http://www.w3.org/2000/svg">
  <g transform="matrix(1.0, 0.0, 0.0, 1.0, 73.95, 168.8)">
    <path d="M18.4 -126.85 L26.2 -125.95 30.0 -125.75 Q35.05 -125.55 40.8 -125.65 37.05 -127.45 37.45 -129.15 37.7 -130.3 37.3 -130.9 L37.15 -131.15 Q36.65 -132.7 34.85 -133.7 L34.8 -133.8 Q41.75 -131.35 45.45 -127.25 L45.1 -128.95 48.0 -126.75 Q51.15 -124.25 52.8 -121.65 54.8 -118.15 57.5 -114.4 L57.7 -114.0 57.9 -113.3 57.65 -112.5 57.5 -112.35 56.95 -112.85 Q54.9 -114.75 52.2 -116.2 49.45 -117.6 48.5 -118.35 L56.9 -110.2 Q56.3 -110.0 45.3 -115.05 34.45 -120.0 18.4 -126.85 M107.45 -58.05 L111.95 -57.05 112.0 -56.9 Q117.35 -55.05 123.0 -54.2 L124.35 -53.9 Q123.4 -54.65 122.65 -55.95 121.85 -57.25 121.5 -58.6 L122.65 -58.55 123.35 -57.95 Q123.2 -58.7 122.6 -59.1 121.55 -59.95 122.25 -60.45 124.5 -58.4 125.95 -55.35 126.15 -54.7 126.5 -54.25 L126.5 -54.2 127.25 -51.7 127.3 -51.65 127.3 -51.45 127.75 -50.4 123.75 -52.2 124.0 -52.2 123.55 -52.35 122.2 -52.9 Q114.25 -56.0 109.3 -57.05 108.35 -57.5 107.45 -58.05 M68.35 -96.9 L59.4 -107.2 89.65 -81.85 Q96.65 -75.85 109.6 -67.8 99.75 -70.35 92.45 -75.75 85.15 -81.2 79.2 -86.9 L68.35 -96.9 M124.75 -52.0 Q125.1 -51.6 125.7 -51.6 L126.35 -51.55 124.95 -52.0 124.75 -52.0" fill="#dedede" fill-rule="evenodd" stroke="none"/>
    <path d="M-29.05 -139.8 L-29.0 -139.8 -28.65 -139.45 -29.05 -139.8" fill="#c47a2c" fill-rule="evenodd" stroke="none"/>
    <path d="M18.4 -126.85 Q34.45 -120.0 45.3 -115.05 56.3 -110.0 56.9 -110.2 L48.5 -118.35 Q49.45 -117.6 52.2 -116.2 54.9 -114.75 56.95 -112.85 L57.5 -112.35 57.65 -112.5 57.9 -113.3 57.7 -114.0 57.5 -114.4 Q61.6 -108.7 67.6 -102.25 L71.15 -98.5 Q89.55 -82.9 111.8 -67.25 116.8 -64.55 122.25 -63.45 124.95 -61.25 125.3 -58.7 L125.3 -58.6 125.4 -58.2 125.45 -57.95 125.45 -57.8 125.45 -57.7 Q125.7 -56.35 126.5 -54.25 126.15 -54.7 125.95 -55.35 124.5 -58.4 122.25 -60.45 121.55 -59.95 122.6 -59.1 123.2 -58.7 123.35 -57.95 L122.65 -58.55 121.5 -58.6 Q121.85 -57.25 122.65 -55.95 123.4 -54.65 124.35 -53.9 L123.0 -54.2 Q117.35 -55.05 112.0 -56.9 L111.95 -57.05 107.45 -58.05 Q90.65 -67.05 68.9 -82.15 45.85 -98.1 36.15 -109.85 L21.15 -122.75 Q17.75 -125.65 14.55 -126.9 L15.3 -127.4 18.4 -126.85 M68.35 -96.9 L79.2 -86.9 Q85.15 -81.2 92.45 -75.75 99.75 -70.35 109.6 -67.8 96.65 -75.85 89.65 -81.85 L59.4 -107.2 68.35 -96.9 M6.8 -95.7 Q7.3 -96.15 8.0 -96.15 L9.15 -95.7 9.6 -94.55 Q9.6 -93.9 9.15 -93.45 8.65 -93.0 8.0 -93.0 7.3 -93.0 6.8 -93.45 6.25 -93.9 6.25 -94.55 6.25 -95.25 6.8 -95.7 M123.75 -52.2 L123.55 -52.35 124.0 -52.2 123.75 -52.2 M124.75 -52.0 L124.95 -52.0 126.35 -51.55 125.7 -51.6 Q125.1 -51.6 124.75 -52.0" fill="#ffffff" fill-rule="evenodd" stroke="none"/>
    <path d="M37.15 -131.15 L37.3 -130.9 Q37.7 -130.3 37.45 -129.15 37.05 -127.45 40.8 -125.65 35.05 -125.55 30.0 -125.75 L26.2 -125.95 18.4 -126.85 15.3 -127.4 Q18.8 -129.65 24.7 -130.8 26.65 -131.8 28.7 -128.05 28.7 -131.75 26.1 -132.7 31.6 -134.55 37.4 -129.95 L37.15 -131.15" fill="#cdcdcd" fill-rule="evenodd" stroke="none"/>
    <path d="M-1.05 -101.05 L-0.9 -101.2 -0.8 -101.3 Q1.2 -103.35 5.3 -104.25 L5.85 -104.25 6.5 -104.25 Q12.2 -104.4 16.9 -99.9 20.75 -96.8 21.05 -92.8 L21.05 -92.65 21.05 -92.45 18.15 -94.0 17.6 -94.3 Q16.5 -98.8 12.95 -100.45 8.95 -103.1 4.35 -101.85 L3.05 -101.05 -1.05 -101.0 -1.05 -101.05" fill="#d2d0c8" fill-rule="evenodd" stroke="none"/>
    <path d="M3.05 -101.05 L4.35 -101.85 Q8.95 -103.1 12.95 -100.45 16.5 -98.8 17.6 -94.3 L17.8 -93.2 Q18.05 -88.55 14.55 -87.05 9.5 -84.75 4.7 -87.65 -0.6 -91.65 0.4 -96.45 0.9 -99.25 3.05 -101.05 M5.6 -97.7 Q2.65 -96.25 3.15 -92.65 3.6 -89.85 6.7 -88.55 11.95 -87.05 12.95 -91.4 13.35 -94.3 10.9 -97.2 8.0 -99.4 5.6 -97.7" fill="#252525" fill-rule="evenodd" stroke="none"/>
    <path d="M21.05 -92.45 L21.05 -91.55 Q20.75 -87.55 15.5 -85.1 6.95 -82.55 1.15 -88.1 -3.9 -93.55 -1.9 -99.8 L-1.85 -99.9 -1.05 -101.0 3.05 -101.05 Q0.9 -99.25 0.4 -96.45 -0.6 -91.65 4.7 -87.65 9.5 -84.75 14.55 -87.05 18.05 -88.55 17.8 -93.2 L17.6 -94.3 18.15 -94.0 21.05 -92.45" fill="#fffbf2" fill-rule="evenodd" stroke="none"/>
    <path d="M5.6 -97.7 Q8.0 -99.4 10.9 -97.2 13.35 -94.3 12.95 -91.4 11.95 -87.05 6.7 -88.55 3.6 -89.85 3.15 -92.65 2.65 -96.25 5.6 -97.7 M6.8 -95.7 Q6.25 -95.25 6.25 -94.55 6.25 -93.9 6.8 -93.45 7.3 -93.0 8.0 -93.0 8.65 -93.0 9.15 -93.45 9.6 -93.9 9.6 -94.55 L9.15 -95.7 8.0 -96.15 Q7.3 -96.15 6.8 -95.7" fill="#0e0e0e" fill-rule="evenodd" stroke="none"/>
    <path d="M-1.05 -101.0 L-1.1 -101.0 -1.05 -101.05 -1.05 -101.0" fill="#e2dfd7" fill-rule="evenodd" stroke="none"/>
    <path d="M125.45 -57.7 L125.45 -57.8 125.45 -57.95 125.4 -58.2 125.3 -58.6 125.3 -58.7 Q124.95 -61.25 122.25 -63.45 L123.9 -63.2 123.95 -63.2 124.5 -63.1 129.0 -56.45 Q131.8 -51.85 129.25 -48.15 L128.65 -48.05 Q128.5 -53.0 125.5 -57.65 L125.45 -57.7 M97.2 -32.4 L97.6 -32.8 97.6 -32.9 Q93.1 -40.45 94.15 -46.65 L95.05 -49.6 95.35 -50.5 95.5 -50.85 95.7 -51.1 95.8 -51.3 Q98.8 -56.85 106.1 -57.45 L101.15 -53.95 Q98.55 -52.2 97.3 -49.6 L97.2 -49.6 97.15 -49.45 97.0 -49.15 96.6 -48.25 96.6 -48.15 96.4 -47.55 Q93.75 -38.7 102.05 -32.9 107.3 -29.15 124.35 -27.1 L116.05 -24.75 Q105.2 -27.5 102.1 -29.75 99.3 -30.5 97.2 -32.4" fill="#161819" fill-rule="evenodd" stroke="none"/>
    <path d="M126.5 -54.25 Q125.7 -56.35 125.45 -57.7 L125.5 -57.65 Q128.5 -53.0 128.65 -48.05 L129.25 -48.15 Q131.8 -51.85 129.0 -56.45 L124.5 -63.1 Q133.15 -61.7 137.2 -56.1 143.25 -47.85 141.7 -38.0 141.55 -34.45 142.15 -29.4 L140.8 -30.1 Q137.8 -29.6 134.95 -28.2 132.75 -27.0 131.95 -24.9 131.6 -23.9 132.75 -23.95 137.2 -24.45 141.0 -26.9 L142.3 -28.05 143.4 -21.0 Q144.7 -14.8 139.85 -11.75 129.25 -7.9 118.85 -11.45 L121.0 -8.65 Q126.55 -1.45 122.7 4.35 118.0 8.25 106.7 8.25 96.8 8.4 90.45 3.4 L86.3 0.2 85.9 -0.15 85.7 -0.35 85.45 -0.5 78.05 -8.6 77.5 -9.65 Q76.65 -11.25 76.6 -12.7 73.4 -22.85 78.5 -30.15 87.75 -35.9 96.95 -32.35 L97.2 -32.4 Q99.3 -30.5 102.1 -29.75 105.2 -27.5 116.05 -24.75 L124.35 -27.1 Q107.3 -29.15 102.05 -32.9 93.75 -38.7 96.4 -47.55 L96.6 -48.15 Q95.45 -42.5 97.8 -40.95 98.9 -48.15 100.15 -49.65 L102.95 -52.75 Q104.5 -54.3 109.35 -54.7 L112.15 -54.95 111.25 -55.25 107.85 -55.35 106.35 -55.2 Q101.85 -54.7 99.1 -51.5 L97.3 -49.6 Q98.55 -52.2 101.15 -53.95 L106.1 -57.45 106.5 -57.45 109.3 -57.05 Q114.25 -56.0 122.2 -52.9 L123.55 -52.35 123.75 -52.2 127.75 -50.4 127.3 -51.45 127.3 -51.65 127.25 -51.7 126.5 -54.2 126.5 -54.25 M135.8 -42.85 Q136.85 -41.3 138.35 -39.7 138.5 -38.75 139.45 -37.75 141.0 -39.8 140.3 -44.2 140.4 -47.5 139.05 -50.7 138.05 -53.95 134.75 -56.1 132.75 -54.2 134.05 -47.85 L134.1 -47.1 133.75 -48.4 Q132.9 -52.55 133.75 -56.7 L133.65 -56.75 133.5 -56.85 133.45 -56.75 133.35 -56.75 133.35 -56.7 Q132.4 -52.9 132.9 -49.95 L133.5 -46.15 Q133.65 -45.3 135.75 -42.8 L135.8 -42.85 M130.15 -31.75 Q129.95 -34.3 128.2 -38.35 126.4 -42.45 124.65 -44.4 122.8 -46.4 121.85 -46.65 120.9 -46.95 120.35 -47.35 L121.0 -46.55 124.45 -42.35 Q126.8 -39.45 128.25 -35.75 129.6 -32.05 130.15 -31.75 M112.75 -50.5 Q106.3 -50.85 102.75 -48.05 99.3 -45.15 100.05 -38.75 100.0 -34.4 106.2 -31.55 111.9 -30.65 118.5 -32.05 L123.4 -30.5 Q128.2 -29.55 129.25 -31.8 127.25 -38.95 120.0 -46.45 118.5 -48.8 112.75 -50.5 M91.5 -31.8 Q95.25 -31.95 96.25 -31.75 94.75 -32.7 92.7 -32.9 L86.45 -33.1 86.25 -33.05 86.0 -32.9 86.0 -32.8 85.0 -32.5 82.55 -31.8 Q80.9 -31.25 83.5 -31.4 L91.5 -31.8 M92.35 -22.95 Q96.75 -22.45 100.95 -19.4 105.1 -16.4 109.0 -15.35 113.05 -14.4 116.05 -13.1 118.85 -11.9 120.9 -11.9 122.8 -11.95 120.75 -12.7 118.75 -13.5 112.3 -16.25 105.85 -18.95 101.45 -22.85 96.95 -26.75 90.1 -25.65 83.35 -24.55 80.7 -20.9 77.95 -17.2 81.05 -15.9 81.45 -18.95 84.7 -21.15 88.0 -23.4 92.35 -22.95 M110.1 -14.25 L109.85 -14.35 Q104.35 -16.3 98.25 -19.7 89.1 -23.75 83.65 -19.7 80.15 -16.65 83.75 -11.65 84.85 -10.1 86.7 -8.35 L89.3 -6.3 89.65 -6.1 Q92.9 -3.6 96.4 -1.9 96.65 -1.7 97.0 -1.6 100.6 0.15 104.6 1.15 L105.1 1.35 111.2 2.4 112.75 2.05 113.3 1.85 Q116.65 0.75 118.0 -1.85 L118.3 -2.45 118.65 -3.75 Q118.75 -6.0 117.4 -8.25 L116.85 -9.0 114.9 -11.25 114.6 -11.75 113.45 -13.25 110.1 -14.25" fill="#282c2e" fill-rule="evenodd" stroke="none"/>
    <path d="M135.8 -42.85 L135.75 -42.8 Q133.65 -45.3 133.5 -46.15 L132.9 -49.95 Q132.4 -52.9 133.35 -56.7 L133.35 -56.75 133.45 -56.75 133.5 -56.85 133.65 -56.75 133.75 -56.7 Q132.9 -52.55 133.75 -48.4 L134.1 -47.1 Q134.55 -44.95 135.8 -42.85 M96.6 -48.15 L96.6 -48.25 97.0 -49.15 97.15 -49.45 97.2 -49.6 97.3 -49.6 99.1 -51.5 Q101.85 -54.7 106.35 -55.2 L107.85 -55.35 111.25 -55.25 112.15 -54.95 109.35 -54.7 Q104.5 -54.3 102.95 -52.75 L100.15 -49.65 Q98.9 -48.15 97.8 -40.95 95.45 -42.5 96.6 -48.15 M130.15 -31.75 Q129.6 -32.05 128.25 -35.75 126.8 -39.45 124.45 -42.35 L121.0 -46.55 120.35 -47.35 Q120.9 -46.95 121.85 -46.65 122.8 -46.4 124.65 -44.4 126.4 -42.45 128.2 -38.35 129.95 -34.3 130.15 -31.75 M91.5 -31.8 L83.5 -31.4 Q80.9 -31.25 82.55 -31.8 L85.0 -32.5 86.0 -32.8 86.0 -32.9 86.25 -33.05 86.45 -33.1 92.7 -32.9 Q94.75 -32.7 96.25 -31.75 95.25 -31.95 91.5 -31.8" fill="#616b70" fill-rule="evenodd" stroke="none"/>
    <path d="M142.15 -29.4 L142.25 -28.5 142.3 -28.05 141.0 -26.9 Q137.2 -24.45 132.75 -23.95 131.6 -23.9 131.95 -24.9 132.75 -27.0 134.95 -28.2 137.8 -29.6 140.8 -30.1 L142.15 -29.4 M134.1 -47.1 L134.05 -47.85 Q132.75 -54.2 134.75 -56.1 138.05 -53.95 139.05 -50.7 140.4 -47.5 140.3 -44.2 141.0 -39.8 139.45 -37.75 138.5 -38.75 138.35 -39.7 136.85 -41.3 135.8 -42.85 134.55 -44.95 134.1 -47.1 M114.9 -48.05 Q107.15 -50.3 104.15 -47.15 101.85 -45.05 101.65 -41.3 101.35 -37.2 105.25 -34.05 110.3 -32.0 115.95 -33.3 120.7 -34.3 120.6 -41.0 119.8 -45.6 114.9 -48.05 M112.75 -50.5 Q118.5 -48.8 120.0 -46.45 127.25 -38.95 129.25 -31.8 128.2 -29.55 123.4 -30.5 L118.5 -32.05 Q111.9 -30.65 106.2 -31.55 100.0 -34.4 100.05 -38.75 99.3 -45.15 102.75 -48.05 106.3 -50.85 112.75 -50.5 M92.35 -22.95 Q88.0 -23.4 84.7 -21.15 81.45 -18.95 81.05 -15.9 77.95 -17.2 80.7 -20.9 83.35 -24.55 90.1 -25.65 96.95 -26.75 101.45 -22.85 105.85 -18.95 112.3 -16.25 118.75 -13.5 120.75 -12.7 122.8 -11.95 120.9 -11.9 118.85 -11.9 116.05 -13.1 113.05 -14.4 109.0 -15.35 105.1 -16.4 100.95 -19.4 96.75 -22.45 92.35 -22.95 M135.55 -53.9 Q134.3 -52.15 134.8 -48.7 135.55 -42.6 138.2 -40.85 140.05 -42.05 139.15 -48.5 137.3 -52.9 135.55 -53.9" fill="#181a1c" fill-rule="evenodd" stroke="none"/>
    <path d="M114.9 -48.05 Q119.8 -45.6 120.6 -41.0 120.7 -34.3 115.95 -33.3 110.3 -32.0 105.25 -34.05 101.35 -37.2 101.65 -41.3 101.85 -45.05 104.15 -47.15 107.15 -50.3 114.9 -48.05 M109.85 -14.35 Q112.9 -11.75 113.65 -9.35 113.85 -7.85 111.9 -6.5 109.2 -4.8 105.05 -4.45 97.6 -5.6 91.6 -8.55 L87.8 -11.6 87.1 -11.6 87.0 -11.65 Q84.65 -11.4 83.75 -11.65 80.15 -16.65 83.65 -19.7 89.1 -23.75 98.25 -19.7 104.35 -16.3 109.85 -14.35 M135.55 -53.9 Q137.3 -52.9 139.15 -48.5 140.05 -42.05 138.2 -40.85 135.55 -42.6 134.8 -48.7 134.3 -52.15 135.55 -53.9" fill="#090000" fill-rule="evenodd" stroke="none"/>
    <path d="M87.1 -11.6 L87.8 -11.6 91.6 -8.55 Q97.6 -5.6 105.05 -4.45 109.2 -4.8 111.9 -6.5 113.85 -7.85 113.65 -9.35 112.9 -11.75 109.85 -14.35 L110.1 -14.25 112.5 -12.1 112.75 -11.8 114.0 -9.85 114.05 -9.75 114.35 -8.95 114.45 -8.35 Q113.05 -6.65 111.15 -5.55 L110.5 -5.25 Q108.1 -4.15 105.0 -3.95 L104.6 -3.95 97.95 -5.6 97.5 -5.75 Q93.8 -6.9 91.25 -8.25 L90.85 -8.45 87.1 -11.6" fill="#b2b5b6" fill-rule="evenodd" stroke="none"/>
    <path d="M90.85 -8.45 L91.25 -8.25 89.65 -6.1 89.3 -6.3 90.85 -8.45 M97.5 -5.75 L97.95 -5.6 97.0 -1.6 Q96.65 -1.7 96.4 -1.9 L97.5 -5.75 M104.6 -3.95 L105.0 -3.95 105.1 1.35 104.6 1.15 104.6 -3.95 M110.5 -5.25 L111.15 -5.55 113.3 1.85 112.75 2.05 110.5 -5.25 M114.45 -8.35 L114.35 -8.95 118.3 -2.45 118.0 -1.85 114.45 -8.35 M112.75 -11.8 L112.5 -12.1 114.6 -11.75 114.9 -11.25 112.75 -11.8 M116.85 -9.0 L117.4 -8.25 114.05 -9.75 116.85 -9.0" fill="#343535" fill-rule="evenodd" stroke="none"/>
    <path d="M87.1 -11.6 L90.85 -8.45 89.3 -6.3 86.7 -8.35 Q84.85 -10.1 83.75 -11.65 84.65 -11.4 87.0 -11.65 L87.1 -11.6 M91.25 -8.25 Q93.8 -6.9 97.5 -5.75 L96.4 -1.9 Q92.9 -3.6 89.65 -6.1 L91.25 -8.25 M97.95 -5.6 L104.6 -3.95 104.6 1.15 Q100.6 0.15 97.0 -1.6 L97.95 -5.6 M105.0 -3.95 Q108.1 -4.15 110.5 -5.25 L112.75 2.05 111.2 2.4 105.1 1.35 105.0 -3.95 M111.15 -5.55 Q113.05 -6.65 114.45 -8.35 L118.0 -1.85 Q116.65 0.75 113.3 1.85 L111.15 -5.55 M114.35 -8.95 L114.05 -9.75 114.0 -9.85 112.75 -11.8 114.9 -11.25 116.85 -9.0 114.05 -9.75 117.4 -8.25 Q118.75 -6.0 118.65 -3.75 L118.3 -2.45 114.35 -8.95 M112.5 -12.1 L110.1 -14.25 113.45 -13.25 114.6 -11.75 112.5 -12.1" fill="#f6fafc" fill-rule="evenodd" stroke="none"/>
    <path d="M17.25 -163.8 L17.55 -164.9 17.75 -165.85 17.8 -166.15 Q18.55 -159.15 17.8 -153.15 L18.2 -153.3 18.2 -153.15 18.6 -153.45 Q21.7 -154.55 24.15 -157.35 L24.15 -157.2 24.1 -156.65 24.0 -156.05 Q21.35 -153.55 18.15 -152.95 L17.4 -150.45 17.1 -150.35 Q17.65 -156.85 17.25 -163.8 M-0.6 -152.55 L-0.5 -152.8 0.55 -158.1 0.6 -158.0 Q1.75 -152.95 0.4 -148.6 L-0.6 -152.55 M5.45 -152.15 L5.7 -151.25 6.95 -154.05 Q7.35 -151.1 6.9 -148.45 5.45 -149.75 5.45 -152.15 M13.0 -155.35 L14.45 -157.05 14.75 -157.4 14.1 -156.1 13.35 -154.75 Q11.65 -152.15 9.35 -150.5 L9.2 -150.55 11.0 -153.8 11.1 -153.85 11.25 -153.9 12.55 -154.8 13.0 -155.35 M14.8 -157.5 L15.0 -158.0 15.0 -157.95 14.8 -157.5 M19.85 -149.35 Q20.0 -146.6 17.55 -145.45 L16.3 -145.05 12.35 -143.8 Q14.6 -144.9 16.9 -146.35 L18.95 -147.75 Q19.7 -148.3 19.7 -149.35 L19.85 -149.35 M22.35 -149.8 L27.7 -156.7 26.95 -155.5 Q23.95 -150.35 20.0 -146.6 20.45 -149.15 22.5 -152.0 L23.6 -153.5 23.6 -153.15 22.65 -150.3 22.6 -150.25 22.45 -149.95 22.35 -149.9 22.35 -149.8 M25.9 -146.6 Q32.4 -148.4 38.8 -154.25 L37.8 -152.55 Q35.9 -151.1 33.85 -149.8 29.55 -146.9 24.7 -144.9 23.8 -144.5 23.45 -145.25 L25.9 -146.6 M41.8 -144.45 L45.45 -143.5 Q39.55 -143.2 36.65 -141.85 L36.3 -141.65 36.2 -141.65 32.4 -141.3 Q36.65 -143.55 41.8 -144.45 M45.1 -128.95 L45.45 -127.25 Q41.75 -131.35 34.8 -133.8 L34.85 -133.7 Q36.65 -132.7 37.15 -131.15 L37.4 -129.95 Q31.6 -134.55 26.1 -132.7 28.7 -131.75 28.7 -128.05 26.65 -131.8 24.7 -130.8 18.8 -129.65 15.3 -127.4 L14.55 -126.9 12.8 -125.55 8.25 -118.9 Q7.7 -121.7 9.4 -124.45 4.55 -120.9 2.25 -117.0 1.85 -119.45 3.35 -121.45 -3.85 -119.55 -6.75 -117.3 L-8.1 -114.2 -9.3 -119.2 -9.3 -113.65 Q-10.45 -118.15 -15.1 -120.55 L-13.65 -115.9 Q-16.8 -119.45 -19.85 -122.0 -24.0 -125.05 -25.05 -127.85 -24.7 -125.15 -22.85 -123.0 -27.35 -125.75 -29.5 -129.9 -30.3 -134.05 -34.6 -137.95 L-29.5 -134.4 Q-31.4 -137.8 -36.35 -140.75 -34.8 -141.65 -33.15 -141.5 -31.25 -141.35 -29.05 -139.8 L-28.65 -139.45 -29.0 -139.8 Q-33.7 -144.5 -34.85 -151.0 -32.05 -144.85 -28.05 -139.8 L-23.55 -134.75 -25.95 -141.3 -24.55 -139.8 Q-19.6 -134.2 -17.65 -127.65 L-18.85 -135.7 Q-15.65 -123.3 -14.6 -126.1 L-12.55 -132.3 -12.55 -123.75 Q-9.4 -127.9 -9.95 -138.65 L-7.35 -126.2 -6.1 -130.6 -5.35 -124.5 -4.8 -125.15 Q-5.85 -122.65 -7.25 -120.35 -6.15 -120.9 -5.55 -122.2 -4.25 -124.8 -3.1 -127.45 -1.45 -129.75 -0.6 -132.15 L-0.6 -125.0 Q1.95 -128.6 8.95 -132.3 3.7 -127.3 2.3 -122.4 L12.05 -129.15 10.0 -123.15 13.25 -127.3 13.55 -127.7 15.05 -130.4 Q16.05 -132.15 16.65 -134.0 L21.5 -131.35 21.2 -132.85 Q20.4 -135.0 17.05 -136.8 L30.9 -134.0 26.6 -138.0 Q21.95 -139.1 17.2 -140.8 14.45 -141.75 13.25 -143.05 L12.9 -143.15 12.95 -143.2 13.1 -143.15 12.75 -143.6 Q13.15 -143.35 13.7 -143.05 L22.85 -141.25 27.95 -139.65 29.45 -139.05 28.8 -139.2 19.55 -141.45 14.1 -142.8 Q17.3 -141.0 20.95 -139.85 L26.55 -138.1 25.8 -138.75 30.0 -138.5 Q35.55 -137.7 39.15 -134.4 L33.85 -139.6 Q42.2 -135.5 49.4 -135.65 43.8 -134.7 39.65 -135.75 L43.1 -132.7 Q44.6 -130.85 45.1 -128.95 M1.55 -143.9 Q2.3 -140.6 0.55 -137.6 -0.75 -135.45 -2.35 -134.0 -0.7 -137.0 0.6 -140.35 L1.55 -143.9 M7.5 -138.9 Q5.5 -140.55 4.75 -141.75 7.3 -140.05 9.55 -138.2 L12.7 -135.45 Q10.0 -136.85 7.5 -138.9 M-22.3 -153.65 L-23.0 -155.75 -23.05 -156.1 -23.0 -156.1 -21.85 -154.65 -21.55 -154.4 -21.1 -153.8 -20.95 -153.55 -16.15 -145.65 -16.1 -145.45 -17.15 -146.75 Q-19.45 -150.35 -22.3 -153.65 M-21.15 -143.75 L-21.15 -143.8 -21.0 -144.75 -21.1 -148.1 -21.85 -151.65 -21.85 -151.7 -21.95 -152.2 -21.9 -152.2 -20.8 -149.7 Q-19.25 -145.85 -19.45 -141.75 -20.95 -141.9 -21.15 -143.75 M-12.0 -147.65 L-11.95 -147.65 -12.1 -149.15 Q-12.15 -150.7 -12.55 -152.2 L-12.65 -152.4 Q-13.25 -155.35 -14.25 -158.3 -10.3 -153.25 -11.15 -147.3 L-11.75 -147.3 -12.0 -147.65 M-7.25 -153.65 L-6.2 -151.3 -7.35 -153.1 -8.75 -155.6 -8.6 -156.1 -8.25 -157.4 -8.2 -157.45 -8.2 -157.6 -8.05 -157.35 Q-7.9 -155.5 -7.25 -153.65 M-8.85 -151.1 L-8.25 -149.85 -8.45 -150.45 -8.55 -150.7 -8.6 -150.9 -8.6 -151.05 -8.65 -151.25 -8.8 -154.8 -8.75 -155.35 -8.05 -153.5 -7.6 -152.2 Q-6.1 -149.0 -3.15 -144.75 -7.25 -146.6 -8.2 -148.85 L-8.55 -149.55 -8.85 -151.1 M-5.85 -150.85 L-5.85 -151.65 -5.75 -153.3 -5.55 -153.05 -2.25 -148.75 Q-4.15 -148.65 -5.85 -150.85 M-42.25 -124.55 L-48.3 -106.9 -48.95 -104.75 Q-57.7 -82.35 -61.45 -62.45 -64.9 -43.65 -66.5 -23.9 L-68.75 -20.7 -68.9 -20.55 -68.9 -20.9 Q-68.75 -22.95 -71.25 -17.05 -68.6 -25.5 -68.6 -26.05 L-69.4 -28.45 -69.5 -28.5 -69.4 -28.65 -69.4 -28.8 -69.85 -32.2 -69.9 -32.35 -69.95 -32.35 Q-64.7 -37.75 -65.8 -43.8 -66.2 -41.2 -67.3 -38.4 -68.8 -34.75 -70.95 -31.65 L-73.95 -28.1 Q-69.95 -36.55 -69.85 -37.55 -69.65 -38.4 -72.2 -34.8 -69.0 -41.2 -68.25 -43.35 -72.45 -40.35 -73.95 -40.1 -68.8 -45.7 -68.65 -47.15 L-67.5 -48.15 -67.4 -48.3 -68.35 -48.05 -68.55 -48.0 Q-67.45 -48.55 -66.5 -49.4 -65.55 -50.35 -73.7 -46.75 -66.65 -52.4 -65.95 -53.7 -65.75 -56.85 -63.85 -60.1 -63.95 -60.85 -68.35 -58.9 -64.05 -62.65 -63.85 -68.65 -67.5 -66.5 -73.05 -64.75 -62.2 -73.15 -60.9 -77.15 -65.4 -72.6 -65.4 -73.7 -63.1 -77.3 -61.7 -79.9 -57.7 -84.05 -56.55 -89.4 -57.55 -86.9 -59.35 -84.4 L-60.15 -83.3 -59.65 -84.4 Q-61.9 -79.85 -65.8 -77.9 -60.15 -85.2 -58.45 -89.45 -62.65 -84.8 -62.95 -85.2 -62.05 -87.65 -63.1 -89.25 -65.05 -88.75 -66.7 -87.8 L-66.85 -87.8 -62.0 -91.35 -61.5 -91.95 -61.15 -91.9 Q-57.55 -93.05 -55.7 -97.55 -54.15 -99.55 -52.9 -102.05 -50.2 -107.8 -50.6 -114.05 -51.0 -110.45 -52.25 -106.7 -53.8 -101.85 -56.4 -97.45 L-61.05 -92.7 Q-55.45 -101.6 -55.3 -104.25 -60.5 -99.45 -64.8 -97.95 -55.15 -107.4 -55.35 -109.25 -56.85 -107.4 -59.25 -106.0 L-60.0 -105.6 -60.95 -105.15 Q-62.95 -104.25 -65.05 -103.7 -56.45 -108.7 -57.4 -109.7 L-56.85 -110.2 Q-55.7 -113.8 -56.85 -113.65 L-57.4 -113.4 -57.55 -113.4 -57.35 -116.3 Q-57.1 -116.6 -56.65 -116.75 L-53.55 -118.5 -55.05 -117.9 -57.2 -117.15 -57.05 -117.9 -56.6 -119.35 -56.2 -119.45 -54.15 -120.15 -52.05 -120.85 Q-58.15 -122.0 -61.35 -124.6 L-59.0 -124.15 Q-53.85 -122.35 -49.1 -120.1 -50.65 -122.8 -53.75 -124.55 -49.65 -127.1 -45.55 -127.6 L-42.3 -124.6 -42.25 -124.55 M-4.6 -139.4 L-9.0 -145.3 Q-9.9 -146.75 -9.85 -147.15 L-8.85 -146.15 Q-7.25 -144.65 -5.1 -143.8 L-1.15 -142.05 -5.75 -142.95 Q-4.85 -140.95 -4.6 -139.4 M-15.7 -145.05 L-16.4 -148.45 -13.1 -144.1 Q-14.45 -144.0 -15.7 -145.05 M-12.75 -144.25 L-12.95 -141.55 -13.05 -137.8 Q-12.95 -135.5 -11.9 -133.5 -14.0 -135.9 -13.8 -139.95 L-13.6 -141.35 -12.75 -144.25 M-20.8 -128.35 Q-19.85 -126.65 -17.8 -124.9 L-17.95 -125.15 Q-20.25 -129.55 -23.05 -133.4 -22.4 -131.35 -20.8 -128.35" fill="#000000" fill-opacity="0.32941177" fill-rule="evenodd" stroke="none"/>
    <path d="M24.2 -90.75 Q22.1 -97.7 17.55 -102.8 10.75 -107.95 5.45 -107.2 -1.05 -104.75 -5.2 -100.75 L-6.2 -99.7 Q0.75 -109.05 7.55 -108.55 14.55 -108.2 18.75 -104.25 23.4 -97.65 24.2 -90.75" fill="#000000" fill-opacity="0.70980394" fill-rule="evenodd" stroke="none"/>
    <path d="M24.6 -92.45 L24.3 -90.0 24.2 -90.75 Q23.4 -97.65 18.75 -104.25 14.55 -108.2 7.55 -108.55 0.75 -109.05 -6.2 -99.7 -2.45 -108.8 7.5 -111.5 15.35 -111.95 21.2 -105.6 25.35 -99.55 24.6 -92.45 M25.35 -92.85 Q30.0 -90.0 31.1 -87.35 22.65 -81.2 17.65 -82.0 21.35 -82.3 25.65 -88.85 26.55 -90.25 25.35 -92.85 M6.5 -81.8 Q11.95 -80.6 17.1 -81.8 14.0 -78.6 3.2 -79.35 -7.25 -84.8 -8.45 -91.1 -3.4 -85.7 6.5 -81.8 M29.0 14.45 L29.4 14.3 Q23.8 11.5 22.5 4.45 L22.3 2.5 Q21.75 -2.6 23.25 -9.7 31.25 -16.05 49.5 -11.45 L53.4 -11.25 54.35 -11.05 54.5 -1.35 Q49.8 10.1 29.0 14.45 M73.65 -28.05 Q74.9 -30.25 76.9 -31.55 75.45 -29.75 74.95 -27.5 L72.6 -19.25 Q72.6 -25.75 73.65 -28.05 M98.1 -56.55 Q94.8 -54.6 92.65 -51.5 92.35 -51.1 91.8 -50.9 L92.0 -51.45 91.0 -50.1 Q88.35 -46.8 86.35 -43.25 88.25 -48.05 92.1 -52.4 L96.55 -57.4 Q97.4 -58.35 98.55 -58.7 L96.1 -56.0 Q98.3 -57.8 100.9 -59.0 100.35 -58.0 98.1 -56.55 M91.05 -44.5 Q90.45 -41.3 91.6 -38.15 92.35 -35.95 93.65 -34.1 91.15 -36.3 90.5 -40.45 90.25 -42.8 91.05 -44.5 M-47.35 -129.35 Q-56.1 -138.1 -60.8 -147.5 -64.05 -155.55 -64.95 -166.9 L-65.1 -168.8 Q-59.9 -164.35 -57.1 -150.05 -55.35 -139.05 -44.5 -132.1 -35.7 -127.05 -35.0 -122.2 -43.85 -126.15 -47.35 -129.35 M-7.9 -6.5 Q-12.5 -18.65 -12.7 -28.2 -10.15 -17.2 -2.6 -6.2 4.3 4.2 3.55 8.25 -7.8 0.4 -7.9 -6.5 M-51.8 -78.25 Q-54.4 -59.2 -46.5 -36.25 -63.2 -61.25 -51.8 -78.25" fill="#000000" fill-opacity="0.4392157" fill-rule="evenodd" stroke="none"/>
    <path d="M43.1 -132.7 L48.0 -131.05 Q59.6 -127.6 64.65 -122.0 L64.95 -121.45 65.6 -119.6 65.75 -119.2 66.6 -116.8 Q65.55 -118.35 61.4 -121.35 55.45 -125.75 48.0 -126.75 L45.1 -128.95 Q44.6 -130.85 43.1 -132.7 M24.6 -92.45 Q25.45 -89.15 22.45 -88.5 21.6 -88.35 21.5 -89.3 L21.05 -91.55 21.05 -92.45 21.05 -92.65 21.05 -92.8 Q20.75 -96.8 16.9 -99.9 12.2 -104.4 6.5 -104.25 L5.8 -104.25 5.3 -104.25 Q1.2 -103.35 -0.8 -101.3 L-0.9 -101.2 -1.05 -101.05 -4.7 -99.8 Q-5.25 -99.7 -5.25 -100.2 L-5.2 -100.75 Q-1.05 -104.75 5.45 -107.2 10.75 -107.95 17.55 -102.8 22.1 -97.7 24.2 -90.75 L24.3 -90.0 24.6 -92.45 M29.0 14.45 L28.6 14.5 28.35 14.6 21.75 15.05 18.0 14.95 18.35 6.55 Q18.75 -3.35 10.65 -10.3 9.5 -11.35 16.35 -20.35 23.2 -29.4 22.8 -34.85 L21.9 -45.15 Q21.4 -50.0 22.5 -54.7 L22.7 -55.0 23.05 -55.2 24.0 -55.55 28.9 -41.95 Q33.9 -28.4 49.4 -22.6 64.95 -16.7 69.25 -14.6 73.55 -12.4 77.5 -9.65 L78.05 -8.6 85.45 -0.5 85.7 -0.35 85.9 -0.15 86.3 0.2 Q82.25 -2.55 77.15 -4.45 L75.15 -5.35 Q67.75 -8.2 54.35 -11.05 L53.4 -11.25 49.5 -11.45 Q31.25 -16.05 23.25 -9.7 21.75 -2.6 22.3 2.5 L22.5 4.45 Q23.8 11.5 29.4 14.3 L29.0 14.45" fill="#000000" fill-opacity="0.24705882" fill-rule="evenodd" stroke="none"/>
  </g>
</svg>
