<?xml version="1.0" encoding="UTF-8" standalone="no"?>
<svg xmlns:xlink="http://www.w3.org/1999/xlink" height="47.7px" width="28.45px" xmlns="http://www.w3.org/2000/svg">
  <g transform="matrix(1.0, 0.0, 0.0, 1.0, 14.25, 23.85)">
    <path d="M9.05 -6.95 Q7.85 -10.1 7.05 -13.85 5.95 -18.4 4.8 -20.8 3.6 -23.2 2.95 -23.05 L1.3 -21.25 -0.65 -19.2 Q-1.15 -20.5 0.15 -21.55 L2.85 -23.8 3.75 -23.65 5.05 -21.95 5.2 -21.65 5.2 -21.6 7.5 -16.0 9.85 -7.85 Q10.35 -6.05 11.2 -4.45 L13.5 0.75 14.2 2.75 13.65 2.5 Q12.95 1.9 12.2 0.25 L10.1 -4.4 9.55 -5.65 9.25 -6.3 9.05 -6.95 M6.45 -5.8 L5.05 -7.1 Q7.85 -6.85 9.05 -3.15 L10.7 2.0 Q11.1 3.35 10.45 2.55 L9.65 1.6 9.55 1.55 Q8.6 -0.4 8.0 -2.45 7.5 -4.55 6.45 -5.8 M-2.35 12.2 L-5.7 14.4 -5.85 14.5 -5.9 14.55 -6.2 14.7 -6.25 14.65 -5.3 13.55 -4.7 12.9 Q-2.85 11.0 -0.5 9.45 4.1 6.4 4.95 1.15 L5.05 -0.75 5.1 -0.8 5.3 -0.9 5.35 -0.9 5.5 -0.9 5.7 -0.75 Q6.35 4.75 2.0 8.65 L-1.35 11.45 -2.1 11.95 -2.15 12.05 -2.3 12.15 -2.35 12.2 M2.85 1.35 L3.05 1.45 3.2 1.55 Q1.95 4.45 -0.7 6.85 -3.4 9.25 -3.35 10.5 L-5.9 13.9 Q-4.95 11.1 -3.75 9.15 -2.6 7.0 -1.15 5.8 1.7 3.4 2.55 1.55 L2.65 1.45 2.85 1.35 M-6.9 7.5 Q-8.0 8.45 -9.55 8.75 -11.45 9.05 -13.3 7.65 L-14.0 7.1 -14.1 7.0 -14.25 6.85 -13.55 7.1 Q-11.15 8.0 -9.6 7.75 -8.35 7.6 -7.3 6.1 -6.3 4.6 -4.45 3.4 -2.6 2.15 -0.35 1.7 L2.65 1.0 2.55 1.15 1.85 1.75 1.9 1.6 1.3 2.1 0.7 2.5 -0.1 3.0 Q-1.2 3.55 -2.35 3.8 -4.85 4.35 -6.0 6.3 L-6.1 6.4 -6.45 7.0 -6.9 7.5 M-12.8 15.55 L-11.5 17.7 Q-10.3 19.95 -8.35 20.1 -6.5 20.25 -4.85 18.7 -3.3 17.1 -2.25 15.1 -1.4 13.45 -0.05 12.15 L0.55 11.55 0.4 11.9 Q-1.9 16.85 -3.55 18.7 L-5.55 20.6 -7.25 21.6 Q-8.25 22.05 -9.25 21.6 -10.0 21.3 -10.8 20.4 L-11.45 19.55 -11.65 19.15 -12.2 18.05 -12.25 17.9 -12.35 17.55 -12.4 17.2 -12.9 15.45 -12.95 15.35 -12.8 15.55 M0.0 19.05 L0.0 19.1 -1.35 20.9 -3.2 23.85 Q-3.7 22.45 -2.5 20.8 L-2.35 20.6 -2.3 20.6 -1.55 19.6 0.95 17.0 1.15 16.8 1.3 16.85 1.4 17.0 1.45 17.05 0.0 19.05 M-9.4 -7.1 L-8.5 -7.9 Q-7.3 -8.55 -6.75 -8.35 L-5.85 -7.7 Q-8.25 -7.5 -9.2 -6.05 L-9.4 -5.7 -9.5 -5.45 Q-10.25 -3.4 -10.6 -1.15 L-10.75 0.3 -10.8 0.85 Q-10.85 1.75 -11.15 2.3 L-11.75 2.85 -11.5 -0.65 Q-11.2 -3.25 -10.25 -5.7 L-10.0 -6.15 -9.55 -6.9 -9.4 -7.1 M-3.9 -0.2 Q-4.1 0.85 -4.75 1.85 L-5.2 -1.95 Q-5.6 -4.8 -6.7 -5.45 L-6.9 -5.6 -6.8 -5.65 -5.5 -4.75 Q-4.25 -3.6 -3.95 -1.55 L-3.9 -0.2 M-3.35 -3.55 L-4.05 -5.85 -5.6 -9.2 -6.25 -10.25 -6.25 -10.3 -5.9 -10.45 -5.25 -9.7 Q-3.65 -7.7 -2.9 -5.05 -2.3 -2.8 -2.6 -0.65 L-3.05 -0.75 -3.15 -0.9 -3.15 -1.1 -3.15 -1.35 -3.2 -2.55 -3.3 -3.3 -3.3 -3.4 -3.35 -3.55 M-7.85 -3.75 L-7.75 -3.75 -7.65 -3.7 -7.45 -3.6 Q-6.9 -1.55 -6.7 0.6 L-6.6 4.0 Q-8.6 3.95 -9.25 1.65 -9.4 1.05 -9.9 0.7 -10.2 -0.5 -9.25 -1.3 L-8.35 -1.45 -8.2 -1.25 Q-8.35 -0.75 -8.85 -0.3 L-9.25 0.15 Q-8.5 1.05 -8.15 2.25 -7.85 3.0 -7.25 3.35 -7.2 1.35 -7.6 -0.5 L-8.05 -3.6 -8.0 -3.7 -7.85 -3.75 M-5.9 10.75 L-7.0 11.7 Q-8.35 13.2 -10.5 11.95 -11.85 11.2 -12.8 10.0 L-13.75 8.55 -14.05 8.0 -12.25 9.55 -11.75 9.9 Q-10.65 10.7 -9.7 11.0 L-7.55 11.6 Q-6.9 10.5 -5.75 9.7 L-5.5 9.65 -4.85 9.5 -4.35 9.65 -4.35 9.7 -4.2 9.8 Q-5.1 10.15 -5.9 10.75" fill="#3327c6" fill-rule="evenodd" stroke="none"/>
  </g>
</svg>
