<?xml version="1.0" encoding="UTF-8" standalone="no"?>
<svg xmlns:xlink="http://www.w3.org/1999/xlink" height="130.05px" width="392.6px" xmlns="http://www.w3.org/2000/svg">
  <g transform="matrix(1.0, 0.0, 0.0, 1.0, 196.3, 65.0)">
    <path d="M28.9 -52.95 Q28.7 -46.9 26.5 -37.8 79.75 -62.65 106.2 -10.3 127.4 -25.2 126.45 -2.8 149.75 2.55 133.4 7.85 140.75 11.35 141.4 16.65 189.55 11.1 196.3 65.05 L-196.3 65.05 Q-197.15 17.95 -158.85 6.05 -171.65 -17.2 -152.2 -14.4 -142.2 -42.15 -130.75 -22.1 -114.25 -36.0 -86.9 -29.9 -90.4 -45.4 -79.6 -40.7 -69.65 -76.0 -61.75 -46.95 -54.5 -52.6 -47.5 -56.0 -34.75 -62.35 -22.8 -61.25 L-16.3 -60.1 Q-4.5 -57.0 6.5 -46.4 L9.75 -43.05 Q10.65 -44.7 11.85 -45.7 L12.3 -48.8 Q15.15 -64.75 22.3 -65.0 29.25 -64.45 28.9 -52.95" fill="#1da65f" fill-rule="evenodd" stroke="none"/>
  </g>
</svg>
