<?xml version="1.0" encoding="UTF-8" standalone="no"?>
<svg xmlns:xlink="http://www.w3.org/1999/xlink" height="181.65px" width="484.5px" xmlns="http://www.w3.org/2000/svg">
  <g transform="matrix(1.0, 0.0, 0.0, 1.0, 242.25, 90.8)">
    <path d="M16.15 -57.4 Q82.6 -83.05 115.1 -14.3 147.2 -34.2 142.55 -4.0 177.7 3.6 153.1 9.6 159.6 14.15 165.0 22.05 234.75 18.5 242.25 90.85 L200.7 90.85 Q195.4 27.2 133.1 30.05 128.9 22.5 123.95 20.1 144.85 13.7 114.65 8.4 117.3 -18.2 90.75 -0.75 65.05 -54.2 16.15 -42.4 6.5 -40.1 -4.0 -35.25 1.75 -67.85 -10.55 -66.95 -13.6 -65.95 -15.9 -63.65 -14.1 -90.7 -1.35 -90.8 11.4 -91.0 5.7 -52.9 11.05 -55.45 16.15 -57.4 M-242.25 -30.2 Q-231.15 -52.55 -217.55 -35.45 -229.5 -36.55 -242.25 -30.2 M-172.45 -39.2 Q-179.6 -38.95 -182.45 -23.0 L-182.9 -19.9 Q-184.1 -18.9 -185.0 -17.25 L-188.25 -20.6 Q-199.25 -31.2 -211.05 -34.3 -180.45 -52.25 -153.95 -40.4 -160.75 -65.9 -144.35 -56.95 -139.25 -84.55 -129.3 -84.8 -119.4 -83.45 -119.7 -65.25 -64.85 -108.4 -17.9 -61.25 -22.75 -54.35 -23.65 -40.1 -66.95 -85.6 -112.05 -45.35 -113.9 -62.65 -120.8 -62.0 -131.15 -60.45 -133.85 -37.95 -147.0 -44.7 -142.55 -25.65 -154.0 -28.6 -165.85 -27.15 -165.5 -38.65 -172.45 -39.2" fill="#0e5631" fill-rule="evenodd" stroke="none"/>
  </g>
</svg>
