<?xml version="1.0" encoding="UTF-8" standalone="no"?>
<svg xmlns:xlink="http://www.w3.org/1999/xlink" height="300.5px" width="715.55px" xmlns="http://www.w3.org/2000/svg">
  <g transform="matrix(1.0, 0.0, 0.0, 1.0, 357.75, 150.25)">
    <path d="M-348.45 67.2 Q-366.4 26.75 -345.55 -4.25 -341.55 -9.75 -336.7 -13.85 L-336.75 -149.25 -262.05 -149.25 -262.05 -127.75 Q-248.05 -131.0 -234.05 -129.75 -216.9 -126.4 -208.55 -82.75 -201.8 -46.35 -213.05 -26.3 L-160.05 -26.3 Q-144.7 -21.75 -96.55 -22.75 L285.4 -22.75 Q345.15 -18.6 355.4 22.25 361.25 51.05 342.4 67.55 347.6 70.9 346.9 77.75 L346.9 136.25 Q349.25 149.65 329.9 149.25 L-337.55 149.25 Q-352.6 149.05 -351.55 134.75 L-351.55 79.75 Q-351.9 71.2 -348.45 67.2 -344.1 62.0 -333.55 64.25 L325.9 64.25 Q337.15 64.15 342.4 67.55 M-336.7 -13.85 Q-321.5 -26.9 -298.1 -26.3 L-297.2 -26.3 -262.05 -26.3 -262.05 -127.75 M-262.05 -26.3 L-213.05 -26.3" fill="none" stroke="#000000" stroke-linecap="round" stroke-linejoin="round" stroke-width="2.0"/>
  </g>
</svg>
