<?xml version="1.0" encoding="UTF-8" standalone="no"?>
<svg xmlns:xlink="http://www.w3.org/1999/xlink" height="105.3px" width="51.25px" xmlns="http://www.w3.org/2000/svg">
  <g transform="matrix(1.0, 0.0, 0.0, 1.0, 27.55, 112.8)">
    <path d="M8.45 -110.35 L8.2 -109.7 Q8.2 -109.3 8.45 -109.05 8.75 -108.75 9.15 -108.75 9.5 -108.75 9.8 -109.05 L10.05 -109.7 9.8 -110.35 9.15 -110.65 8.45 -110.35 M8.8 -112.35 L12.1 -109.3 10.15 -106.35 Q12.45 -102.85 12.45 -98.45 12.45 -94.1 10.2 -90.7 L12.0 -87.75 8.65 -84.7 5.95 -86.35 Q2.5 -84.1 -1.85 -84.1 -6.3 -84.1 -9.8 -86.4 L-12.45 -84.8 -15.8 -87.85 -14.05 -90.75 Q-16.25 -94.1 -16.25 -98.45 -16.25 -102.8 -13.95 -106.25 L-15.75 -109.3 -12.65 -112.55 -9.55 -110.6 Q-6.15 -112.8 -1.85 -112.8 2.4 -112.8 5.8 -110.6 L8.8 -112.35 M9.95 -86.75 L10.2 -87.4 9.95 -88.05 9.3 -88.35 Q8.9 -88.35 8.6 -88.05 L8.35 -87.4 Q8.35 -87.0 8.6 -86.75 8.9 -86.45 9.3 -86.45 9.65 -86.45 9.95 -86.75 M16.55 -71.7 Q16.05 -71.2 16.05 -70.5 16.05 -69.85 16.55 -69.35 17.05 -68.85 17.75 -68.85 18.45 -68.85 18.9 -69.35 19.4 -69.85 19.4 -70.5 19.4 -71.2 18.9 -71.7 18.45 -72.2 17.75 -72.2 17.05 -72.2 16.55 -71.7 M10.25 -98.4 Q10.25 -103.5 6.75 -107.1 3.2 -110.7 -1.8 -110.7 -6.8 -110.7 -10.3 -107.1 -13.85 -103.5 -13.85 -98.4 -13.85 -93.3 -10.3 -89.7 -6.8 -86.1 -1.8 -86.1 3.2 -86.1 6.75 -89.7 10.25 -93.3 10.25 -98.4 M-1.75 -72.3 Q-10.65 -72.3 -16.95 -65.9 -23.25 -59.45 -23.25 -50.4 -23.25 -41.3 -16.95 -34.85 -10.65 -28.4 -1.75 -28.4 7.15 -28.4 13.5 -34.85 19.8 -41.3 19.8 -50.4 19.8 -59.45 13.5 -65.9 7.15 -72.3 -1.75 -72.3 M11.8 -72.15 L17.2 -75.3 23.05 -69.8 19.55 -64.55 Q23.7 -58.35 23.7 -50.45 23.7 -42.65 19.7 -36.55 L22.85 -31.4 16.9 -25.9 12.05 -28.9 Q5.9 -24.8 -1.9 -24.8 -9.8 -24.8 -16.0 -28.95 L-20.8 -26.05 -26.75 -31.55 -23.6 -36.65 Q-27.55 -42.75 -27.55 -50.45 -27.55 -58.25 -23.45 -64.4 L-26.7 -69.8 -21.1 -75.55 -15.6 -72.15 Q-9.55 -76.05 -1.9 -76.05 5.75 -76.05 11.8 -72.15 M18.0 -29.05 Q18.7 -29.05 19.2 -29.55 19.7 -30.05 19.7 -30.7 19.7 -31.4 19.2 -31.9 18.7 -32.4 18.0 -32.4 17.35 -32.4 16.85 -31.9 16.35 -31.4 16.35 -30.7 16.35 -30.05 16.85 -29.55 17.35 -29.05 18.0 -29.05 M21.65 -9.4 Q19.75 -7.5 17.1 -7.5 14.45 -7.5 12.55 -9.4 10.7 -11.25 10.7 -13.95 10.7 -16.6 12.55 -18.45 14.45 -20.35 17.1 -20.35 19.75 -20.35 21.65 -18.45 23.5 -16.6 23.5 -13.95 23.5 -11.25 21.65 -9.4 M20.1 -17.0 Q18.85 -18.25 17.1 -18.25 15.35 -18.25 14.05 -17.0 12.8 -15.75 12.8 -14.0 12.8 -12.2 14.05 -10.95 15.35 -9.7 17.1 -9.7 18.85 -9.7 20.1 -10.95 21.35 -12.2 21.35 -14.0 21.35 -15.75 20.1 -17.0 M-13.55 -110.35 L-13.85 -109.7 -13.55 -109.05 Q-13.3 -108.75 -12.9 -108.75 -12.5 -108.75 -12.25 -109.05 -11.95 -109.35 -11.95 -109.7 -11.95 -110.1 -12.25 -110.35 -12.5 -110.65 -12.9 -110.65 -13.3 -110.65 -13.55 -110.35 M-12.15 -87.5 L-12.4 -88.15 -13.1 -88.4 -13.75 -88.15 -14.05 -87.5 -13.75 -86.8 Q-13.5 -86.55 -13.1 -86.55 -12.7 -86.55 -12.4 -86.8 L-12.15 -87.5 M-20.4 -71.75 Q-20.9 -72.25 -21.6 -72.25 -22.3 -72.25 -22.8 -71.75 -23.25 -71.25 -23.25 -70.55 -23.25 -69.85 -22.8 -69.4 -22.3 -68.9 -21.6 -68.9 -20.9 -68.9 -20.4 -69.4 -19.9 -69.85 -19.9 -70.55 -19.9 -71.25 -20.4 -71.75 M-20.75 -32.05 Q-21.25 -32.5 -21.9 -32.5 -22.6 -32.5 -23.1 -32.05 -23.6 -31.55 -23.6 -30.85 -23.6 -30.15 -23.1 -29.7 -22.6 -29.2 -21.9 -29.2 -21.25 -29.2 -20.75 -29.7 -20.25 -30.15 -20.25 -30.85 -20.25 -31.55 -20.75 -32.05 M-26.05 -13.95 Q-26.05 -16.6 -24.15 -18.45 -22.3 -20.35 -19.65 -20.35 -17.0 -20.35 -15.1 -18.45 -13.2 -16.6 -13.2 -13.95 -13.2 -11.25 -15.1 -9.4 -17.0 -7.5 -19.65 -7.5 -22.3 -7.5 -24.15 -9.4 -26.05 -11.25 -26.05 -13.95 M-22.65 -17.0 Q-23.9 -15.75 -23.9 -14.0 -23.9 -12.2 -22.65 -10.95 -21.4 -9.7 -19.65 -9.7 -17.85 -9.7 -16.6 -10.95 -15.35 -12.2 -15.35 -14.0 -15.35 -15.75 -16.6 -17.0 -17.85 -18.25 -19.65 -18.25 -21.4 -18.25 -22.65 -17.0" fill="#d8d8d8" fill-rule="evenodd" stroke="none"/>
    <path d="M8.45 -110.35 L9.15 -110.65 9.8 -110.35 10.05 -109.7 9.8 -109.05 Q9.5 -108.75 9.15 -108.75 8.75 -108.75 8.45 -109.05 8.2 -109.3 8.2 -109.7 L8.45 -110.35 M9.95 -86.75 Q9.65 -86.45 9.3 -86.45 8.9 -86.45 8.6 -86.75 8.35 -87.0 8.35 -87.4 L8.6 -88.05 Q8.9 -88.35 9.3 -88.35 L9.95 -88.05 10.2 -87.4 9.95 -86.75 M9.1 -98.35 Q9.1 -102.85 5.9 -106.05 2.7 -109.25 -1.85 -109.25 -6.35 -109.25 -9.55 -106.05 -12.75 -102.85 -12.75 -98.35 -12.75 -93.8 -9.55 -90.6 -6.35 -87.4 -1.85 -87.4 2.7 -87.4 5.9 -90.6 9.1 -93.8 9.1 -98.35 M10.25 -98.4 Q10.25 -93.3 6.75 -89.7 3.2 -86.1 -1.8 -86.1 -6.8 -86.1 -10.3 -89.7 -13.85 -93.3 -13.85 -98.4 -13.85 -103.5 -10.3 -107.1 -6.8 -110.7 -1.8 -110.7 3.2 -110.7 6.75 -107.1 10.25 -103.5 10.25 -98.4 M16.55 -71.7 Q17.05 -72.2 17.75 -72.2 18.45 -72.2 18.9 -71.7 19.4 -71.2 19.4 -70.5 19.4 -69.85 18.9 -69.35 18.45 -68.85 17.75 -68.85 17.05 -68.85 16.55 -69.35 16.05 -69.85 16.05 -70.5 16.05 -71.2 16.55 -71.7 M-1.75 -72.3 Q7.15 -72.3 13.5 -65.9 19.8 -59.45 19.8 -50.4 19.8 -41.3 13.5 -34.85 7.15 -28.4 -1.75 -28.4 -10.65 -28.4 -16.95 -34.85 -23.25 -41.3 -23.25 -50.4 -23.25 -59.45 -16.95 -65.9 -10.65 -72.3 -1.75 -72.3 M11.95 -64.05 Q6.25 -69.75 -1.8 -69.75 -9.9 -69.75 -15.6 -64.05 -21.3 -58.3 -21.3 -50.25 -21.3 -42.15 -15.6 -36.45 -9.9 -30.75 -1.8 -30.75 6.25 -30.75 11.95 -36.45 17.65 -42.15 17.65 -50.25 17.65 -58.3 11.95 -64.05 M18.0 -29.05 Q17.35 -29.05 16.85 -29.55 16.35 -30.05 16.35 -30.7 16.35 -31.4 16.85 -31.9 17.35 -32.4 18.0 -32.4 18.7 -32.4 19.2 -31.9 19.7 -31.4 19.7 -30.7 19.7 -30.05 19.2 -29.55 18.7 -29.05 18.0 -29.05 M-13.55 -110.35 Q-13.3 -110.65 -12.9 -110.65 -12.5 -110.65 -12.25 -110.35 -11.95 -110.1 -11.95 -109.7 -11.95 -109.35 -12.25 -109.05 -12.5 -108.75 -12.9 -108.75 -13.3 -108.75 -13.55 -109.05 L-13.85 -109.7 -13.55 -110.35 M-12.15 -87.5 L-12.4 -86.8 Q-12.7 -86.55 -13.1 -86.55 -13.5 -86.55 -13.75 -86.8 L-14.05 -87.5 -13.75 -88.15 -13.1 -88.4 -12.4 -88.15 -12.15 -87.5 M-20.4 -71.75 Q-19.9 -71.25 -19.9 -70.55 -19.9 -69.85 -20.4 -69.4 -20.9 -68.9 -21.6 -68.9 -22.3 -68.9 -22.8 -69.4 -23.25 -69.85 -23.25 -70.55 -23.25 -71.25 -22.8 -71.75 -22.3 -72.25 -21.6 -72.25 -20.9 -72.25 -20.4 -71.75 M-20.75 -32.05 Q-20.25 -31.55 -20.25 -30.85 -20.25 -30.15 -20.75 -29.7 -21.25 -29.2 -21.9 -29.2 -22.6 -29.2 -23.1 -29.7 -23.6 -30.15 -23.6 -30.85 -23.6 -31.55 -23.1 -32.05 -22.6 -32.5 -21.9 -32.5 -21.25 -32.5 -20.75 -32.05" fill="#adadad" fill-rule="evenodd" stroke="none"/>
    <path d="M1.25 -98.4 L1.0 -97.05 0.35 -96.15 Q-0.55 -95.25 -1.85 -95.25 -3.2 -95.25 -4.1 -96.15 -5.05 -97.05 -5.05 -98.4 L-4.9 -99.35 Q-4.7 -100.05 -4.1 -100.6 -3.2 -101.55 -1.85 -101.55 -0.55 -101.55 0.35 -100.6 1.25 -99.7 1.25 -98.4 M-7.55 -50.35 L-7.3 -52.05 Q-6.9 -53.3 -5.9 -54.35 -4.25 -55.95 -1.9 -55.95 0.45 -55.95 2.05 -54.35 3.7 -52.7 3.7 -50.35 3.7 -49.0 3.2 -47.9 2.8 -47.05 2.05 -46.35 0.45 -44.7 -1.9 -44.7 -4.25 -44.7 -5.9 -46.35 -7.55 -48.0 -7.55 -50.35" fill="#171518" fill-rule="evenodd" stroke="none"/>
  </g>
</svg>
