<?xml version="1.0" encoding="UTF-8" standalone="no"?>
<svg xmlns:xlink="http://www.w3.org/1999/xlink" height="370.5px" width="197.95px" xmlns="http://www.w3.org/2000/svg">
  <g transform="matrix(1.0, 0.0, 0.0, 1.0, 98.95, 185.25)">
    <path d="M21.15 -103.2 Q29.75 -94.6 29.75 -82.45 29.75 -70.3 21.15 -61.7 12.55 -53.1 0.4 -53.1 -11.75 -53.1 -20.35 -61.7 -28.95 -70.3 -28.95 -82.45 -28.95 -94.6 -20.35 -103.2 -11.75 -111.8 0.4 -111.8 12.55 -111.8 21.15 -103.2 M20.95 -115.4 L29.05 -120.15 37.85 -111.9 32.6 -103.95 Q38.85 -94.6 38.85 -82.7 38.85 -71.0 32.8 -61.85 L37.6 -54.05 28.6 -45.8 21.3 -50.25 Q12.05 -44.15 0.3 -44.15 -11.65 -44.15 -20.95 -50.4 L-28.2 -46.0 -37.15 -54.25 -32.4 -62.0 Q-38.3 -71.1 -38.3 -82.7 -38.3 -94.5 -32.2 -103.75 L-37.05 -111.9 -28.65 -120.6 -20.35 -115.45 Q-11.25 -121.3 0.3 -121.3 11.85 -121.3 20.95 -115.4 M37.1 -12.0 L51.55 -20.5 67.3 -5.75 57.9 8.45 Q69.1 25.1 69.1 46.35 69.1 67.25 58.3 83.65 L66.8 97.5 50.8 112.25 37.75 104.3 Q21.25 115.25 0.2 115.25 -21.05 115.25 -37.7 104.05 L-50.6 111.9 -66.6 97.15 -58.1 83.35 Q-68.7 67.05 -68.7 46.35 -68.7 25.3 -57.75 8.8 L-66.45 -5.75 -51.45 -21.25 -36.6 -12.1 Q-20.35 -22.55 0.2 -22.55 20.85 -22.55 37.1 -12.0 M98.0 184.25 L97.5 184.25 -97.95 184.25 -97.95 -155.25 -97.95 -155.75 -51.45 -184.25 51.0 -184.25 97.5 -155.25 97.5 184.25 M-51.95 46.85 Q-51.95 25.15 -36.6 9.8 -21.25 -5.55 0.45 -5.55 22.15 -5.55 37.5 9.8 52.85 25.15 52.85 46.85 52.85 68.55 37.5 83.9 22.15 99.25 0.45 99.25 -21.25 99.25 -36.6 83.9 -51.95 68.55 -51.95 46.85 M62.8 144.35 Q62.8 149.1 59.4 152.45 56.05 155.85 51.3 155.85 46.55 155.85 43.15 152.45 39.8 149.1 39.8 144.35 39.8 139.6 43.15 136.2 46.55 132.85 51.3 132.85 56.05 132.85 59.4 136.2 62.8 139.6 62.8 144.35 M68.55 144.5 Q68.55 151.65 63.5 156.7 58.45 161.75 51.3 161.75 44.15 161.75 39.1 156.7 34.05 151.65 34.05 144.5 34.05 137.35 39.1 132.3 44.15 127.25 51.3 127.25 58.45 127.25 63.5 132.3 68.55 137.35 68.55 144.5 M-87.45 -144.75 L86.5 -144.75 86.5 173.75 -87.45 173.75 -87.45 -144.75 M-80.45 -139.25 L81.0 -139.25 81.0 167.75 -80.45 167.75 -80.45 -139.25 M-35.95 144.35 Q-35.95 149.1 -39.35 152.45 -42.7 155.85 -47.45 155.85 -52.2 155.85 -55.6 152.45 -58.95 149.1 -58.95 144.35 -58.95 139.6 -55.6 136.2 -52.2 132.85 -47.45 132.85 -42.7 132.85 -39.35 136.2 -35.95 139.6 -35.95 144.35 M-30.2 144.5 Q-30.2 151.65 -35.25 156.7 -40.3 161.75 -47.45 161.75 -54.6 161.75 -59.65 156.7 -64.7 151.65 -64.7 144.5 -64.7 137.35 -59.65 132.3 -54.6 127.25 -47.45 127.25 -40.3 127.25 -35.25 132.3 -30.2 137.35 -30.2 144.5 M97.5 -155.25 L-97.95 -155.25" fill="none" stroke="#000000" stroke-linecap="round" stroke-linejoin="round" stroke-width="2.0"/>
  </g>
</svg>
