<?xml version="1.0" encoding="UTF-8" standalone="no"?>
<svg xmlns:xlink="http://www.w3.org/1999/xlink" height="242.3px" width="247.45px" xmlns="http://www.w3.org/2000/svg">
  <g transform="matrix(1.0, 0.0, 0.0, 1.0, 130.0, 242.9)">
    <path d="M44.65 -221.55 L44.55 -222.55 Q44.45 -229.3 51.85 -231.35 51.6 -235.4 55.95 -238.05 59.45 -240.2 64.3 -237.8 65.9 -242.75 71.9 -242.9 78.35 -242.85 79.5 -236.55 83.05 -238.35 87.0 -234.9 L87.1 -234.7 Q90.1 -231.55 89.1 -226.6 92.4 -225.8 93.6 -222.0 L93.6 -221.8 Q94.5 -218.4 92.9 -215.65 88.3 -212.3 82.5 -215.8 L81.1 -216.8 Q74.0 -213.0 68.35 -219.35 L68.65 -217.95 Q60.5 -211.3 54.7 -219.9 L54.7 -219.1 Q48.4 -216.6 44.65 -221.55" fill="url(#gradient0)" fill-rule="evenodd" stroke="none"/>
    <path d="M92.9 -215.65 Q92.1 -214.15 90.55 -212.9 85.5 -210.0 80.75 -213.7 78.9 -212.1 75.95 -212.1 71.2 -212.3 69.35 -215.8 65.9 -211.85 62.1 -211.85 56.65 -212.1 55.2 -215.9 45.75 -214.6 44.65 -221.55 48.4 -216.6 54.7 -219.1 L54.7 -219.9 Q60.5 -211.3 68.65 -217.95 L68.35 -219.35 Q74.0 -213.0 81.1 -216.8 L82.5 -215.8 Q88.3 -212.3 92.9 -215.65" fill="#a8a8a8" fill-rule="evenodd" stroke="none"/>
    <path d="M97.6 -168.95 Q99.2 -167.45 99.2 -165.25 99.2 -163.05 97.6 -161.55 96.1 -159.95 93.9 -159.95 91.7 -159.95 90.1 -161.55 88.6 -163.05 88.6 -165.25 88.6 -167.45 90.1 -168.95 91.7 -170.55 93.9 -170.55 96.1 -170.55 97.6 -168.95 M89.1 -147.5 L88.95 -147.5 Q75.45 -147.95 73.25 -161.35 71.45 -179.55 88.05 -183.4 100.15 -183.75 105.35 -171.75 100.95 -178.05 93.8 -178.55 81.7 -178.05 80.45 -165.25 80.2 -154.3 92.65 -152.95 100.4 -152.6 105.6 -160.8 102.25 -147.3 89.1 -147.5" fill="url(#gradient1)" fill-rule="evenodd" stroke="none"/>
    <path d="M98.9 -95.95 L102.35 -97.8 104.2 -94.1 106.4 -97.9 109.7 -96.05 107.5 -92.15 111.55 -92.4 111.7 -88.6 105.0 -88.0 101.5 -81.8 108.45 -81.8 112.35 -87.55 115.35 -85.5 112.95 -81.9 117.45 -82.0 117.35 -78.3 112.95 -78.2 115.05 -74.75 112.0 -72.45 108.25 -78.3 101.3 -78.0 104.65 -71.95 111.55 -71.4 111.1 -67.6 107.05 -67.85 109.15 -64.05 105.8 -61.95 103.7 -66.0 101.85 -62.15 98.45 -63.8 101.55 -70.1 98.1 -76.25 94.35 -69.8 97.35 -63.7 93.9 -62.05 92.1 -65.85 89.9 -61.95 86.8 -63.8 89.05 -67.6 84.9 -67.25 84.6 -71.05 91.3 -71.6 95.05 -78.0 87.95 -77.95 84.1 -72.2 81.0 -74.2 83.45 -77.75 78.9 -77.5 79.05 -81.45 83.3 -81.55 81.15 -85.0 84.15 -87.2 87.95 -81.55 95.05 -81.75 91.7 -87.9 84.8 -88.15 85.25 -91.95 89.4 -91.95 87.15 -95.75 90.45 -97.7 92.55 -93.65 94.5 -97.55 97.75 -96.05 94.75 -89.75 98.3 -83.65 101.85 -89.85 98.9 -95.95" fill="url(#gradient2)" fill-rule="evenodd" stroke="none"/>
    <path d="M47.45 -32.3 Q48.6 -35.55 51.15 -37.85 53.0 -39.7 56.9 -36.55 59.9 -34.85 62.8 -36.9 66.7 -39.9 69.5 -35.3 L69.5 -35.25 Q69.5 -23.9 60.7 -23.3 61.55 -26.55 64.2 -28.65 L60.0 -26.8 Q58.55 -31.95 55.2 -34.3 58.2 -30.25 57.7 -23.75 54.25 -24.15 53.7 -26.75 53.65 -28.25 51.95 -28.65 48.15 -28.85 47.45 -32.3" fill="url(#gradient3)" fill-rule="evenodd" stroke="none"/>
    <path d="M47.45 -32.3 Q48.15 -28.85 51.95 -28.65 53.65 -28.25 53.7 -26.75 54.25 -24.15 57.7 -23.75 L57.15 -20.4 Q54.6 -21.7 52.3 -21.95 49.15 -26.2 46.5 -26.4 46.55 -29.75 47.45 -32.3 M60.7 -23.3 Q69.5 -23.9 69.5 -35.25 L69.6 -35.05 Q72.35 -32.3 73.05 -24.35 L70.85 -24.7 Q66.7 -24.7 64.5 -19.5 L63.6 -18.95 Q62.3 -18.1 61.15 -14.9 59.9 -19.85 60.7 -23.3 M68.1 -9.95 Q65.9 -8.45 62.9 -8.65 62.2 -14.2 63.8 -16.6 64.5 -11.0 68.1 -9.95 M57.0 -8.2 Q46.4 -8.1 47.25 -15.5 L50.1 -16.85 Q51.8 -18.25 55.2 -18.25 58.2 -15.85 57.5 -11.0 L57.5 -10.75 57.0 -8.2" fill="#688a3c" fill-rule="evenodd" stroke="none"/>
    <path d="M57.7 -23.75 Q58.2 -30.25 55.2 -34.3 58.55 -31.95 60.0 -26.8 L64.2 -28.65 Q61.55 -26.55 60.7 -23.3 59.9 -19.85 61.15 -14.9 62.3 -18.1 63.6 -18.95 L64.5 -19.5 Q67.5 -21.1 69.8 -18.15 65.45 -19.15 63.8 -16.6 62.2 -14.2 62.9 -8.65 L63.6 -4.85 Q65.55 -0.25 58.95 -0.6 53.8 -1.2 55.65 -4.6 L57.0 -8.2 57.5 -10.75 57.5 -11.0 Q58.2 -15.85 55.2 -18.25 52.5 -20.4 46.85 -20.45 49.2 -22.15 52.3 -21.95 54.6 -21.7 57.15 -20.4 L57.7 -23.75" fill="url(#gradient4)" fill-rule="evenodd" stroke="none"/>
    <path d="M47.25 -15.5 Q45.35 -14.9 44.25 -15.85 40.4 -21.8 42.95 -24.45 44.55 -26.55 46.5 -26.4 49.15 -26.2 52.3 -21.95 49.2 -22.15 46.85 -20.45 52.5 -20.4 55.2 -18.25 51.8 -18.25 50.1 -16.85 L47.25 -15.5" fill="url(#gradient5)" fill-rule="evenodd" stroke="none"/>
    <path d="M73.05 -24.35 Q77.75 -22.85 75.7 -16.75 72.7 -9.7 68.35 -9.85 L68.1 -9.95 Q64.5 -11.0 63.8 -16.6 65.45 -19.15 69.8 -18.15 67.5 -21.1 64.5 -19.5 66.7 -24.7 70.85 -24.7 L73.05 -24.35" fill="url(#gradient6)" fill-rule="evenodd" stroke="none"/>
    <path d="M-70.3 -220.75 Q-64.5 -216.0 -64.55 -212.0 -65.45 -203.7 -75.7 -201.25 -75.15 -210.6 -81.6 -216.25 -78.85 -209.8 -80.7 -205.85 -82.5 -209.1 -84.5 -210.15 -83.2 -205.75 -84.95 -205.4 -87.5 -204.15 -86.55 -201.0 -104.2 -207.95 -97.4 -216.35 -92.0 -222.35 -94.15 -227.75 -89.45 -225.15 -89.1 -218.2 -89.3 -214.3 -85.85 -212.45 -92.75 -228.95 -73.3 -238.75 -80.8 -231.35 -70.3 -220.75" fill="url(#gradient7)" fill-rule="evenodd" stroke="none"/>
    <path d="M-112.05 -159.85 Q-116.2 -159.05 -120.6 -151.45 -123.2 -159.4 -115.85 -164.6 -101.45 -172.05 -107.2 -182.0 -92.45 -169.4 -99.35 -156.25 -103.95 -148.9 -114.9 -148.75 -118.85 -148.65 -122.65 -142.75 -123.35 -141.3 -124.85 -141.5 -126.35 -142.35 -125.3 -143.85 -119.4 -151.75 -113.4 -155.35 -102.25 -161.0 -103.95 -167.25 -107.05 -160.4 -112.05 -159.85" fill="url(#gradient8)" fill-rule="evenodd" stroke="none"/>
    <path d="M-102.0 -89.95 L-90.95 -86.75 -101.75 -82.8 -97.15 -72.9 -106.7 -77.75 -110.3 -67.0 -114.0 -77.3 -123.9 -72.7 -119.05 -82.95 -130.0 -86.75 -119.05 -89.6 -124.4 -100.35 -114.45 -94.9 -110.55 -106.1 -107.05 -94.9 -97.15 -99.8 -102.0 -89.95" fill="url(#gradient9)" fill-rule="evenodd" stroke="none"/>
    <path d="M-98.45 -21.9 Q-97.25 -27.1 -93.0 -31.15 L-92.9 -31.25 Q-86.9 -37.6 -91.6 -44.05 -74.0 -36.8 -73.05 -22.95 -72.15 -9.15 -85.4 -9.1 -99.15 -8.7 -98.55 -21.35 L-98.45 -21.9 M-76.75 -22.75 Q-78.6 -15.85 -87.15 -11.3 -72.95 -13.4 -76.75 -22.75" fill="url(#gradient10)" fill-rule="evenodd" stroke="none"/>
    <path d="M-76.75 -22.75 Q-72.95 -13.4 -87.15 -11.3 -78.6 -15.85 -76.75 -22.75" fill="#346479" fill-rule="evenodd" stroke="none"/>
  </g>
  <defs>
    <linearGradient gradientTransform="matrix(0.0, 0.0138, -0.0301, 0.0, 69.25, -228.85)" gradientUnits="userSpaceOnUse" id="gradient0" spreadMethod="pad" x1="-819.2" x2="819.2">
      <stop offset="0.0" stop-color="#ffffff"/>
      <stop offset="1.0" stop-color="#d4d4d2"/>
    </linearGradient>
    <linearGradient gradientTransform="matrix(0.0, 0.0207, -0.0199, 0.0, 89.25, -164.7)" gradientUnits="userSpaceOnUse" id="gradient1" spreadMethod="pad" x1="-819.2" x2="819.2">
      <stop offset="0.0" stop-color="#8658b4"/>
      <stop offset="1.0" stop-color="#563a72"/>
    </linearGradient>
    <linearGradient gradientTransform="matrix(0.0, 0.0219, -0.0236, 0.0, 98.1, -79.95)" gradientUnits="userSpaceOnUse" id="gradient2" spreadMethod="pad" x1="-819.2" x2="819.2">
      <stop offset="0.0" stop-color="#d0d0d0"/>
      <stop offset="1.0" stop-color="#b4b4b2"/>
    </linearGradient>
    <linearGradient gradientTransform="matrix(0.0, 0.0093, -0.0134, 0.0, 58.45, -30.95)" gradientUnits="userSpaceOnUse" id="gradient3" spreadMethod="pad" x1="-819.2" x2="819.2">
      <stop offset="0.0" stop-color="#bbd033"/>
      <stop offset="1.0" stop-color="#929f2b"/>
    </linearGradient>
    <linearGradient gradientTransform="matrix(0.014, 0.0, 0.0, 0.0206, 58.2, -17.45)" gradientUnits="userSpaceOnUse" id="gradient4" spreadMethod="pad" x1="-819.2" x2="819.2">
      <stop offset="0.0" stop-color="#543939"/>
      <stop offset="1.0" stop-color="#7b5656"/>
    </linearGradient>
    <linearGradient gradientTransform="matrix(0.0, 0.0068, -0.0081, 0.0, 48.5, -20.9)" gradientUnits="userSpaceOnUse" id="gradient5" spreadMethod="pad" x1="-819.2" x2="819.2">
      <stop offset="0.0" stop-color="#bbd033"/>
      <stop offset="1.0" stop-color="#929f2b"/>
    </linearGradient>
    <linearGradient gradientTransform="matrix(0.0, 0.009, -0.0076, 0.0, 69.95, -17.25)" gradientUnits="userSpaceOnUse" id="gradient6" spreadMethod="pad" x1="-819.2" x2="819.2">
      <stop offset="0.0" stop-color="#bbd033"/>
      <stop offset="1.0" stop-color="#929f2b"/>
    </linearGradient>
    <linearGradient gradientTransform="matrix(-0.006, 0.0236, -0.02, -0.0051, -79.9, -219.95)" gradientUnits="userSpaceOnUse" id="gradient7" spreadMethod="pad" x1="-819.2" x2="819.2">
      <stop offset="0.00392156862745098" stop-color="#ff3a3a"/>
      <stop offset="1.0" stop-color="#9c0124"/>
    </linearGradient>
    <linearGradient gradientTransform="matrix(0.0, 0.0247, -0.0175, 0.0, -111.35, -161.75)" gradientUnits="userSpaceOnUse" id="gradient8" spreadMethod="pad" x1="-819.2" x2="819.2">
      <stop offset="0.0" stop-color="#25ff81"/>
      <stop offset="1.0" stop-color="#108a2f"/>
    </linearGradient>
    <linearGradient gradientTransform="matrix(-0.006, -0.0223, 0.0222, -0.006, -110.35, -86.55)" gradientUnits="userSpaceOnUse" id="gradient9" spreadMethod="pad" x1="-819.2" x2="819.2">
      <stop offset="0.0" stop-color="#d2b841"/>
      <stop offset="1.0" stop-color="#f2ff83"/>
    </linearGradient>
    <linearGradient gradientTransform="matrix(0.0, -0.0214, 0.0156, 0.0, -85.75, -26.55)" gradientUnits="userSpaceOnUse" id="gradient10" spreadMethod="pad" x1="-819.2" x2="819.2">
      <stop offset="0.0" stop-color="#3bb7e0"/>
      <stop offset="1.0" stop-color="#85fffb"/>
    </linearGradient>
  </defs>
</svg>
