<?xml version="1.0" encoding="UTF-8" standalone="no"?>
<svg xmlns:xlink="http://www.w3.org/1999/xlink" height="273.3px" width="356.5px" xmlns="http://www.w3.org/2000/svg">
  <g transform="matrix(1.0, 0.0, 0.0, 1.0, 196.25, 333.85)">
    <path d="M95.6 -332.15 L84.65 -305.7 89.25 -308.25 Q89.85 -302.2 94.45 -296.25 L94.15 -286.8 91.4 -285.2 90.05 -262.6 81.4 -252.95 82.55 -247.75 77.9 -240.95 80.3 -259.4 76.85 -261.0 76.85 -278.95 72.15 -275.0 53.3 -271.0 51.0 -263.65 27.9 -243.05 55.9 -281.7 58.95 -278.75 60.4 -273.3 66.95 -277.8 67.9 -275.15 73.3 -284.25 62.55 -278.55 59.15 -281.9 65.4 -285.75 58.8 -283.85 58.8 -285.45 66.1 -288.85 95.7 -333.85 95.6 -332.15 M79.85 -286.6 L79.85 -280.65 83.0 -275.45 83.0 -268.55 87.7 -264.2 Q85.6 -278.3 89.05 -295.3 L83.2 -279.7 79.85 -286.6 M-119.6 -296.25 Q-115.0 -302.2 -114.4 -308.25 L-109.8 -305.7 -120.85 -332.15 -120.95 -333.85 -91.35 -288.85 -84.05 -285.45 -84.05 -283.85 -90.65 -285.75 -84.4 -281.9 -87.8 -278.55 -98.55 -284.25 -93.15 -275.15 -92.1 -277.8 -85.55 -273.3 -84.2 -278.75 -81.15 -281.7 -53.15 -243.05 -76.25 -263.65 -78.55 -271.0 -97.3 -275.0 -102.1 -278.95 -102.1 -261.0 -105.55 -259.4 -103.15 -240.95 -107.8 -247.75 -106.55 -252.95 -115.2 -262.6 -116.55 -285.2 -119.3 -286.8 -119.6 -296.25 M-114.25 -295.3 Q-110.85 -278.3 -112.9 -264.2 L-108.25 -268.55 -108.25 -275.45 -105.1 -280.65 -105.1 -286.6 -108.45 -279.7 -114.25 -295.3" fill="#3de7f8" fill-rule="evenodd" stroke="none"/>
    <path d="M94.45 -296.25 Q89.85 -302.2 89.25 -308.25 L84.65 -305.7 95.6 -332.15 94.45 -296.25 M-120.85 -332.15 L-109.8 -305.7 -114.4 -308.25 Q-115.0 -302.2 -119.6 -296.25 L-120.85 -332.15" fill="#d0fcfd" fill-rule="evenodd" stroke="none"/>
    <path d="M58.8 -285.45 L58.8 -283.85 65.4 -285.75 59.15 -281.9 62.55 -278.55 73.3 -284.25 67.9 -275.15 66.95 -277.8 60.4 -273.3 58.95 -278.75 55.9 -281.7 58.5 -285.3 58.8 -285.45 M79.85 -286.6 L83.2 -279.7 89.05 -295.3 Q85.6 -278.3 87.7 -264.2 L83.0 -268.55 83.0 -275.45 79.85 -280.65 79.85 -286.6 M-81.15 -281.7 L-84.2 -278.75 -85.55 -273.3 -92.1 -277.8 -93.15 -275.15 -98.55 -284.25 -87.8 -278.55 -84.4 -281.9 -90.65 -285.75 -84.05 -283.85 -84.05 -285.45 -83.75 -285.3 -81.15 -281.7 M-114.25 -295.3 L-108.45 -279.7 -105.1 -286.6 -105.1 -280.65 -108.25 -275.45 -108.25 -268.55 -112.9 -264.2 Q-110.85 -278.3 -114.25 -295.3" fill="#d4fbfa" fill-rule="evenodd" stroke="none"/>
    <path d="M27.9 -243.05 L51.0 -263.65 53.3 -271.0 72.15 -275.0 76.85 -278.95 76.85 -261.0 80.3 -259.4 77.9 -240.95 73.3 -234.15 74.45 -228.85 71.95 -228.2 Q67.7 -216.75 66.85 -205.05 L50.6 -209.75 57.9 -209.3 64.25 -208.55 64.25 -212.8 64.25 -217.15 68.0 -219.05 Q68.0 -224.8 71.55 -230.75 L71.0 -239.05 76.65 -242.85 75.4 -251.35 77.7 -255.6 72.55 -259.0 56.45 -237.95 52.15 -245.5 42.45 -240.0 38.4 -228.0 39.45 -225.65 31.35 -231.4 39.85 -241.45 29.15 -238.9 27.9 -243.05 M60.6 -267.4 L47.15 -248.8 61.1 -260.7 60.6 -267.4 M-103.15 -240.95 L-105.55 -259.4 -102.1 -261.0 -102.1 -278.95 -97.3 -275.0 -78.55 -271.0 -76.25 -263.65 -53.15 -243.05 -54.4 -238.9 -65.0 -241.45 -56.6 -231.4 -64.6 -225.65 -63.65 -228.0 -67.6 -240.0 -77.3 -245.5 -81.7 -237.95 -97.7 -259.0 -102.9 -255.6 -100.65 -251.35 -101.9 -242.85 -96.25 -239.05 -96.7 -230.75 Q-93.25 -224.8 -93.25 -219.05 L-89.4 -217.15 -89.4 -212.8 -89.4 -208.55 -83.05 -209.3 -75.75 -209.75 -92.1 -205.05 Q-92.9 -216.75 -97.1 -228.2 L-99.6 -228.85 -98.55 -234.15 -103.15 -240.95 M-85.85 -267.4 L-86.35 -260.7 -72.3 -248.8 -85.85 -267.4" fill="#27c7eb" fill-rule="evenodd" stroke="none"/>
    <path d="M60.6 -267.4 L61.1 -260.7 47.15 -248.8 60.6 -267.4 M-85.85 -267.4 L-72.3 -248.8 -86.35 -260.7 -85.85 -267.4" fill="#209df0" fill-rule="evenodd" stroke="none"/>
    <path d="M39.45 -225.65 L38.4 -228.0 42.45 -240.0 52.15 -245.5 56.45 -237.95 72.55 -259.0 77.7 -255.6 75.4 -251.35 76.65 -242.85 71.0 -239.05 71.55 -230.75 Q68.0 -224.8 68.0 -219.05 L64.25 -217.15 64.25 -212.8 57.9 -209.3 50.6 -209.75 48.1 -217.35 40.6 -222.8 39.45 -225.65 M50.4 -241.45 L46.55 -237.85 51.35 -231.05 54.15 -238.5 50.4 -241.45 M63.1 -223.1 L51.2 -228.2 48.85 -220.05 59.75 -218.2 63.1 -223.1 M68.8 -248.35 L54.45 -229.35 64.75 -227.8 68.8 -248.35 M-89.4 -212.8 L-89.4 -217.15 -93.25 -219.05 Q-93.25 -224.8 -96.7 -230.75 L-96.25 -239.05 -101.9 -242.85 -100.65 -251.35 -102.9 -255.6 -97.7 -259.0 -81.7 -237.95 -77.3 -245.5 -67.6 -240.0 -63.65 -228.0 -64.6 -225.65 -65.85 -222.8 -73.25 -217.35 -75.75 -209.75 -83.05 -209.3 -89.4 -212.8 M-94.05 -248.35 L-89.9 -227.8 -79.6 -229.35 -94.05 -248.35 M-88.35 -223.1 L-84.9 -218.2 -74.1 -220.05 -76.45 -228.2 -88.35 -223.1 M-75.55 -241.45 L-79.4 -238.5 -76.65 -231.05 -71.7 -237.85 -75.55 -241.45" fill="#1e9dee" fill-rule="evenodd" stroke="none"/>
    <path d="M39.45 -225.65 L40.6 -222.8 48.1 -217.35 50.6 -209.75 62.9 -202.4 61.95 -197.95 65.7 -195.6 66.85 -205.05 Q66.35 -198.6 67.05 -192.2 L60.05 -196.55 59.45 -194.25 49.05 -202.4 50.8 -198.6 41.95 -208.25 31.85 -209.2 28.7 -216.5 16.1 -222.25 19.95 -225.85 11.85 -227.65 12.8 -230.95 3.5 -233.3 9.35 -234.7 7.8 -239.15 11.95 -241.6 16.55 -244.15 27.9 -243.05 29.15 -238.9 39.85 -241.45 31.35 -231.4 39.45 -225.65 M12.4 -236.4 L18.75 -230.0 18.75 -228.0 23.5 -224.6 20.6 -222.45 30.6 -218.0 36.65 -211.95 47.55 -210.25 39.85 -218.85 32.45 -220.55 30.1 -226.1 24.55 -228.4 23.6 -232.45 29.55 -231.6 36.2 -239.45 28.0 -236.7 17.9 -243.5 15.1 -242.1 20.3 -239.15 17.8 -236.4 12.4 -236.4 M-64.6 -225.65 L-56.6 -231.4 -65.0 -241.45 -54.4 -238.9 -53.15 -243.05 -41.8 -244.15 -37.2 -241.6 -33.05 -239.15 -34.5 -234.7 -28.75 -233.3 -38.05 -230.95 -37.0 -227.65 -45.1 -225.85 -41.25 -222.25 -53.95 -216.5 -57.1 -209.2 -67.1 -208.25 -76.05 -198.6 -74.2 -202.4 -84.6 -194.25 -85.3 -196.55 -92.2 -192.2 Q-91.55 -198.6 -92.1 -205.05 L-90.95 -195.6 -87.1 -197.95 -88.05 -202.4 -75.75 -209.75 -73.25 -217.35 -65.85 -222.8 -64.6 -225.65 M-54.8 -231.6 L-48.75 -232.45 -49.7 -228.4 -55.35 -226.1 -57.7 -220.55 -65.0 -218.85 -72.7 -210.25 -61.9 -211.95 -55.85 -218.0 -45.85 -222.45 -48.75 -224.6 -43.95 -228.0 -43.95 -230.0 -37.7 -236.4 -43.05 -236.4 -45.55 -239.15 -40.25 -242.1 -43.15 -243.5 -53.25 -236.7 -61.45 -239.45 -54.8 -231.6" fill="#3be5f6" fill-rule="evenodd" stroke="none"/>
    <path d="M66.85 -205.05 L65.7 -195.6 61.95 -197.95 62.9 -202.4 50.6 -209.75 66.85 -205.05 M12.4 -236.4 L17.8 -236.4 20.3 -239.15 15.1 -242.1 17.9 -243.5 28.0 -236.7 36.2 -239.45 29.55 -231.6 23.6 -232.45 24.55 -228.4 30.1 -226.1 32.45 -220.55 39.85 -218.85 47.55 -210.25 36.65 -211.95 30.6 -218.0 20.6 -222.45 23.5 -224.6 18.75 -228.0 18.75 -230.0 12.4 -236.4 M-54.8 -231.6 L-61.45 -239.45 -53.25 -236.7 -43.15 -243.5 -40.25 -242.1 -45.55 -239.15 -43.05 -236.4 -37.7 -236.4 -43.95 -230.0 -43.95 -228.0 -48.75 -224.6 -45.85 -222.45 -55.85 -218.0 -61.9 -211.95 -72.7 -210.25 -65.0 -218.85 -57.7 -220.55 -55.35 -226.1 -49.7 -228.4 -48.75 -232.45 -54.8 -231.6 M-92.1 -205.05 L-75.75 -209.75 -88.05 -202.4 -87.1 -197.95 -90.95 -195.6 -92.1 -205.05" fill="#cbfefb" fill-rule="evenodd" stroke="none"/>
    <path d="M11.95 -241.6 L7.8 -239.15 9.35 -234.7 3.5 -233.3 12.8 -230.95 11.85 -227.65 19.95 -225.85 16.1 -222.25 28.7 -216.5 31.85 -209.2 41.95 -208.25 50.8 -198.6 49.05 -202.4 59.45 -194.25 60.05 -196.55 67.05 -192.2 Q67.15 -190.5 67.55 -188.9 L61.45 -192.75 59.45 -189.25 54.05 -195.4 52.9 -193.5 40.0 -206.65 31.2 -205.15 25.8 -215.9 20.5 -213.35 16.35 -216.65 17.9 -219.9 11.75 -222.8 17.8 -225.0 9.45 -225.0 9.45 -228.3 2.25 -228.3 -4.5 -233.7 6.65 -237.55 6.65 -241.6 11.95 -241.6 M-37.2 -241.6 L-31.8 -241.6 -31.8 -237.55 -20.75 -233.7 -27.4 -228.3 -34.7 -228.3 -34.7 -225.0 -42.95 -225.0 -37.0 -222.8 -43.15 -219.9 -41.6 -216.65 -45.75 -213.35 -51.05 -215.9 -56.45 -205.15 -65.2 -206.65 -78.15 -193.5 -79.2 -195.4 -84.6 -189.25 -86.7 -192.75 -92.7 -188.9 -92.2 -192.2 -85.3 -196.55 -84.6 -194.25 -74.2 -202.4 -76.05 -198.6 -67.1 -208.25 -57.1 -209.2 -53.95 -216.5 -41.25 -222.25 -45.1 -225.85 -37.0 -227.65 -38.05 -230.95 -28.75 -233.3 -34.5 -234.7 -33.05 -239.15 -37.2 -241.6" fill="#25c6ea" fill-rule="evenodd" stroke="none"/>
    <path d="M57.9 -209.3 L64.25 -212.8 64.25 -208.55 57.9 -209.3 M68.8 -248.35 L64.75 -227.8 54.45 -229.35 68.8 -248.35 M63.1 -223.1 L59.75 -218.2 48.85 -220.05 51.2 -228.2 63.1 -223.1 M50.4 -241.45 L54.15 -238.5 51.35 -231.05 46.55 -237.85 50.4 -241.45 M-89.4 -212.8 L-83.05 -209.3 -89.4 -208.55 -89.4 -212.8 M-88.35 -223.1 L-76.45 -228.2 -74.1 -220.05 -84.9 -218.2 -88.35 -223.1 M-94.05 -248.35 L-79.6 -229.35 -89.9 -227.8 -94.05 -248.35 M-75.55 -241.45 L-71.7 -237.85 -76.65 -231.05 -79.4 -238.5 -75.55 -241.45" fill="#0466d9" fill-rule="evenodd" stroke="none"/>
    <path d="M106.75 -197.1 L117.05 -206.95 109.35 -200.5 110.4 -205.15 106.75 -197.1 M99.35 -198.35 L111.75 -208.55 130.4 -217.8 126.5 -214.2 106.65 -195.6 106.5 -195.6 106.55 -195.5 100.2 -186.05 99.35 -198.35 M-168.95 -217.7 L-149.5 -210.35 -136.35 -201.55 -136.15 -189.25 -143.15 -197.85 -143.1 -197.95 -143.25 -197.95 -164.6 -214.4 -168.95 -217.7 M-148.0 -207.2 L-146.45 -202.6 -154.6 -208.25 -143.65 -199.45 -148.0 -207.2" fill="#87e3ec" fill-rule="evenodd" stroke="none"/>
    <path d="M106.75 -197.1 L110.4 -205.15 109.35 -200.5 117.05 -206.95 106.75 -197.1 M99.35 -198.35 L100.2 -186.05 100.2 -185.2 86.75 -187.3 98.7 -209.6 99.35 -198.35 M126.5 -214.2 L130.4 -217.8 128.7 -189.0 128.7 -188.8 120.3 -181.15 126.0 -188.3 112.05 -193.8 106.55 -195.5 106.65 -195.6 112.9 -195.8 126.5 -214.2 M160.25 -190.6 L149.0 -169.5 132.9 -164.3 132.8 -164.3 129.85 -155.45 109.25 -152.8 125.9 -156.65 123.4 -162.05 127.75 -157.7 123.1 -164.8 123.7 -167.35 126.4 -165.45 123.5 -170.1 128.5 -166.95 136.3 -170.35 136.5 -170.45 160.25 -190.6 M93.1 -142.4 L92.8 -141.8 92.65 -141.65 87.35 -141.45 86.0 -140.2 87.35 -140.4 88.4 -138.05 88.3 -138.05 86.2 -132.2 86.0 -132.0 81.2 -133.5 80.6 -136.35 80.9 -136.15 83.7 -133.4 86.0 -133.8 86.95 -138.05 85.9 -139.75 81.55 -136.55 86.75 -143.35 87.65 -147.0 88.0 -146.85 88.6 -143.35 93.1 -142.4 M127.75 -157.7 L129.85 -155.45 127.75 -157.7 M126.4 -165.45 L126.65 -165.25 132.9 -164.3 126.65 -165.25 126.4 -165.45 M149.0 -169.5 L136.5 -170.45 149.0 -169.5 M128.7 -189.0 L112.05 -193.8 128.7 -189.0 M93.2 -173.3 L88.7 -168.45 94.15 -176.4 92.35 -178.4 92.15 -178.4 91.55 -178.5 87.65 -179.9 91.55 -178.5 92.15 -178.4 85.15 -169.25 89.55 -177.55 87.65 -179.9 86.2 -180.3 88.4 -181.25 93.1 -182.0 92.7 -180.55 97.55 -178.7 97.7 -178.1 93.2 -173.3 M89.25 -165.45 L91.2 -156.85 88.5 -158.65 91.2 -156.85 85.4 -150.8 88.1 -156.55 85.7 -157.4 88.5 -158.65 83.7 -158.15 83.8 -158.35 88.7 -160.15 89.25 -165.45 M81.45 -168.65 L79.65 -168.2 79.05 -171.2 79.55 -171.4 83.1 -171.95 83.7 -170.1 81.45 -168.65 M97.7 -178.1 L92.35 -178.4 97.7 -178.1 M80.8 -163.2 L79.35 -160.35 78.4 -164.4 78.7 -165.45 79.65 -163.75 81.2 -166.75 78.95 -166.2 79.35 -167.15 83.2 -167.9 80.9 -163.55 80.8 -163.2 M98.5 -128.95 L105.25 -130.0 110.05 -136.55 106.2 -137.75 101.3 -133.3 104.85 -138.7 113.5 -138.9 118.1 -134.85 105.9 -126.7 98.5 -128.95 105.9 -126.7 96.4 -123.4 101.2 -127.35 96.55 -127.45 98.5 -128.95 M89.05 -115.85 L94.85 -116.7 93.3 -113.3 91.55 -109.05 87.15 -110.45 90.4 -110.55 91.95 -114.3 88.3 -113.85 89.05 -115.85 M99.35 -117.25 L111.0 -116.0 101.65 -104.0 92.9 -107.25 99.35 -117.25 M103.5 -114.3 L98.3 -107.7 100.4 -108.25 105.5 -114.15 103.5 -114.3 M101.55 -114.6 L99.45 -114.5 94.45 -107.4 96.2 -107.7 101.55 -114.6 M74.05 -165.9 L75.2 -167.35 72.7 -171.4 73.1 -172.35 76.0 -166.95 74.05 -163.55 73.95 -165.15 74.05 -165.9 M66.35 -153.05 L62.35 -161.85 66.0 -162.5 70.8 -159.1 71.75 -151.25 66.35 -153.05 71.75 -151.25 71.75 -151.0 75.2 -144.1 75.2 -144.0 66.35 -153.05 M67.05 -160.25 L67.55 -154.4 69.85 -153.35 69.85 -158.85 67.05 -160.25 M79.85 -150.9 L79.25 -153.15 79.25 -156.55 80.9 -155.35 79.85 -150.9 M82.65 -68.1 L82.35 -74.25 87.15 -75.0 86.75 -68.85 82.65 -68.1 M-168.95 -217.7 L-164.6 -214.4 -149.7 -197.75 -143.25 -197.95 -143.15 -197.85 -148.55 -195.6 -161.9 -188.7 -155.65 -182.1 -164.7 -188.9 -164.7 -189.25 -168.95 -217.7 M-136.15 -189.25 L-136.35 -201.55 -136.55 -212.7 -122.9 -191.8 -136.15 -188.3 -136.15 -189.25 M-117.4 -136.8 L-117.7 -137.0 -120.4 -142.5 -119.5 -144.95 -118.05 -144.85 -119.6 -146.0 -124.8 -145.7 -125.1 -145.8 -125.3 -146.35 -120.95 -147.7 -120.75 -151.45 -120.3 -151.45 -119.25 -148.05 -113.35 -141.8 -118.05 -144.3 -118.85 -142.75 -117.5 -138.5 -115.2 -138.25 -112.7 -141.45 -112.4 -141.55 -112.8 -138.8 -117.4 -136.8 M-142.3 -155.15 L-163.15 -155.6 -166.85 -164.05 -166.95 -164.05 -183.2 -167.8 -196.25 -187.55 -171.05 -170.0 -170.7 -169.9 -162.6 -167.25 -158.0 -170.95 -160.5 -166.1 -160.65 -165.75 -166.95 -164.05 -160.65 -165.75 -160.5 -166.1 -158.0 -168.1 -157.2 -165.75 -161.15 -158.0 -157.3 -162.9 -159.15 -157.15 -142.3 -155.15 M-148.0 -207.2 L-143.65 -199.45 -154.6 -208.25 -146.45 -202.6 -148.0 -207.2 M-183.2 -167.8 L-171.05 -170.0 -183.2 -167.8 M-116.05 -173.75 L-118.25 -175.0 -117.9 -176.8 -114.3 -176.7 -113.95 -176.5 -114.15 -173.65 -116.05 -173.75 M-108.05 -169.25 L-110.4 -172.45 -108.0 -178.2 -107.5 -177.35 -109.6 -173.1 -108.45 -171.6 -108.25 -170.95 -108.05 -169.25 M-100.1 -169.05 L-96.35 -168.85 -99.8 -159.7 -99.9 -159.5 -107.7 -149.75 -104.8 -157.05 -104.8 -157.3 -104.6 -165.35 -100.1 -169.05 M-113.35 -171.5 L-115.55 -171.7 -113.75 -169.05 -112.9 -170.75 -112.6 -169.8 -113.15 -165.65 -114.9 -168.45 -115.0 -168.65 -117.7 -172.65 -113.85 -172.45 -113.35 -171.5 M-117.5 -163.2 L-117.3 -163.1 -122.1 -163.0 -124.7 -161.0 -122.1 -163.0 -119.25 -162.15 -121.65 -161.0 -118.45 -155.6 -124.7 -161.0 -123.35 -169.7 -122.5 -164.6 -117.5 -163.2 M-119.8 -173.95 L-127.4 -182.45 -127.7 -182.45 -129.3 -180.1 -123.15 -172.9 -128.05 -177.25 -133.0 -181.5 -132.8 -182.1 -128.25 -184.45 -128.65 -185.95 -123.85 -185.5 -121.65 -184.9 -123.0 -184.25 -126.75 -182.55 -127.4 -182.45 -126.75 -182.55 -123.0 -184.25 -124.7 -181.8 -119.8 -173.95 M-112.5 -158.45 L-112.9 -156.3 -114.3 -160.55 -112.9 -161.95 -112.5 -158.45 M-100.95 -166.85 L-103.45 -165.05 -103.05 -159.6 -100.85 -161.0 -100.95 -166.85 M-99.8 -159.7 L-104.8 -157.3 -99.8 -159.7 M-133.0 -181.5 L-127.7 -182.45 -133.0 -181.5 M-132.8 -136.55 L-138.0 -140.4 -141.75 -138.9 -136.35 -132.85 -129.6 -132.35 -136.85 -129.45 -129.6 -132.35 -127.7 -131.15 -132.2 -130.5 -127.0 -127.1 -136.85 -129.45 -149.7 -136.35 -145.3 -140.8 -136.75 -141.55 -132.8 -136.55 M-123.25 -117.35 L-125.0 -120.65 -119.15 -120.45 -118.15 -118.5 -121.9 -118.5 -120.2 -115.15 -116.8 -115.25 -121.15 -113.45 -123.25 -117.35 M-130.65 -107.4 L-140.95 -118.3 -129.4 -120.75 -122.3 -111.5 -130.65 -107.4 M-129.8 -111.5 L-127.7 -111.4 -133.35 -117.25 -135.4 -117.05 -129.8 -111.5 M-125.55 -111.5 L-123.85 -111.5 -129.4 -118.1 -131.45 -117.9 -125.55 -111.5 M-109.05 -79.55 L-108.75 -73.4 -112.9 -73.85 -113.85 -79.9 -109.05 -79.55 M-164.7 -189.25 L-148.55 -195.6 -164.7 -189.25 M-161.15 -158.0 L-163.15 -155.6 -161.15 -158.0" fill="#dbf8fa" fill-rule="evenodd" stroke="none"/>
    <path d="M108.3 -170.1 L109.15 -166.75 126.75 -177.65 140.5 -179.9 160.25 -190.6 136.5 -170.45 136.3 -170.35 139.95 -177.25 138.1 -176.8 136.1 -175.0 126.2 -174.05 98.5 -159.7 91.2 -156.85 98.5 -159.7 98.1 -157.6 100.5 -157.4 99.25 -155.35 94.65 -151.0 93.6 -149.3 89.65 -148.05 94.25 -146.75 88.6 -143.35 88.0 -146.85 87.65 -147.0 85.4 -146.65 80.4 -139.1 80.6 -136.35 81.2 -133.5 86.0 -132.0 83.0 -130.4 78.7 -131.7 76.95 -141.45 78.9 -145.05 78.5 -149.1 79.45 -149.55 78.3 -152.6 78.7 -159.5 75.6 -165.05 77.35 -169.4 81.3 -182.25 71.3 -186.25 71.45 -187.1 71.95 -187.3 82.45 -183.5 84.85 -191.35 85.05 -191.35 98.7 -209.95 98.7 -209.6 86.75 -187.3 86.4 -183.2 89.25 -181.7 88.4 -181.25 89.25 -181.7 93.95 -183.95 95.6 -180.1 96.75 -181.05 97.55 -178.7 92.7 -180.55 93.1 -182.0 88.4 -181.25 86.2 -180.3 87.65 -179.9 89.55 -177.55 85.15 -169.25 80.9 -163.55 83.2 -167.9 79.35 -167.15 78.95 -166.2 78.7 -165.45 78.4 -164.4 79.35 -160.35 80.8 -163.2 81.55 -161.75 83.4 -163.2 83.8 -158.35 83.7 -158.15 80.2 -148.7 84.35 -149.75 85.4 -150.8 91.2 -156.85 89.25 -165.45 84.95 -164.6 88.7 -168.45 93.2 -173.3 96.2 -167.9 112.55 -180.65 114.45 -178.85 98.7 -163.35 105.05 -167.15 107.15 -166.2 108.3 -167.15 107.55 -169.5 108.3 -170.1 M83.3 -174.15 L86.2 -180.3 83.3 -174.15 79.55 -171.4 79.05 -171.2 79.65 -168.2 81.45 -168.65 83.95 -168.85 84.45 -175.0 83.3 -174.15 M101.3 -133.3 L98.5 -128.95 96.55 -127.45 87.9 -120.85 90.3 -127.25 90.6 -127.45 90.6 -127.65 91.0 -130.0 94.15 -131.05 92.8 -132.95 88.4 -130.65 87.65 -130.95 88.1 -132.35 91.2 -134.05 96.85 -137.0 91.2 -134.05 91.0 -135.95 92.15 -137.95 98.8 -144.0 97.55 -138.9 96.85 -137.0 96.2 -135.3 99.35 -137.65 99.35 -140.2 101.4 -141.9 101.85 -142.3 113.5 -138.9 104.85 -138.7 101.3 -133.3 M102.55 -139.55 L97.55 -129.65 94.55 -127.0 98.5 -130.0 103.6 -138.9 108.5 -139.75 102.55 -139.55 M81.55 -136.55 L85.9 -139.75 86.95 -138.05 86.0 -133.8 83.7 -133.4 80.9 -136.15 81.55 -136.55 M95.4 -135.0 L93.4 -133.4 94.25 -131.5 95.4 -135.0 M74.05 -165.9 L74.45 -167.15 72.55 -170.75 72.7 -171.4 75.2 -167.35 74.05 -165.9 M71.75 -151.25 L70.8 -159.1 66.0 -162.5 73.7 -159.95 74.05 -160.05 74.25 -156.55 75.6 -160.15 75.7 -160.15 77.9 -152.7 76.55 -151.85 76.4 -151.85 74.65 -154.1 74.95 -151.85 75.7 -149.95 75.9 -149.65 75.7 -148.15 75.2 -144.1 71.75 -151.0 71.75 -151.25 M81.0 -156.65 L80.6 -160.55 79.25 -157.7 81.0 -156.65 M79.85 -150.9 L80.9 -155.35 79.25 -156.55 79.25 -153.15 79.85 -150.9 M74.25 -156.55 L74.65 -154.1 74.25 -156.55 M-136.55 -212.7 L-136.55 -213.0 -121.45 -196.05 -121.15 -195.9 -118.15 -188.4 -108.05 -193.15 -107.6 -193.05 -107.3 -192.2 -116.9 -187.2 -111.9 -175.0 -109.8 -170.55 -112.4 -164.8 -111.55 -158.0 -112.5 -154.95 -111.35 -154.5 -111.35 -150.6 -109.25 -147.2 -110.1 -137.2 -114.3 -135.5 -117.4 -136.8 -112.8 -138.8 -112.4 -141.55 -112.5 -144.55 -118.15 -151.45 -120.3 -151.45 -120.75 -151.45 -120.95 -147.7 -126.9 -150.6 -122.5 -152.4 -126.45 -153.25 -127.6 -154.85 -132.7 -158.65 -134.05 -160.55 -131.55 -161.0 -132.3 -163.1 -160.85 -174.6 -170.85 -174.35 -173.2 -176.05 -174.8 -176.4 -170.7 -169.9 -171.05 -170.0 -196.25 -187.55 -175.7 -178.85 -161.9 -178.0 -143.35 -168.95 -142.8 -172.45 -142.1 -171.95 -142.7 -169.25 -141.35 -168.65 -139.4 -169.9 -132.8 -166.75 -149.7 -180.55 -148.0 -182.55 -130.55 -171.5 -128.05 -177.25 -123.15 -172.9 -119.05 -169.25 -123.35 -169.7 -124.7 -161.0 -118.45 -155.6 -117.3 -154.6 -113.05 -154.0 -117.3 -163.1 -117.5 -163.2 -117.5 -168.1 -115.5 -166.75 -114.9 -168.45 -113.15 -165.65 -112.6 -169.8 -112.9 -170.75 -113.35 -171.5 -113.85 -172.45 -117.7 -172.65 -115.0 -168.65 -119.8 -173.95 -124.7 -181.8 -123.0 -184.25 -121.65 -184.9 -123.85 -185.5 -128.65 -185.95 -128.25 -184.45 -132.8 -182.1 -132.2 -184.55 -130.95 -183.7 -129.7 -187.55 -124.8 -185.85 -122.1 -187.65 -122.9 -191.8 -136.55 -212.7 M-114.3 -176.7 L-118.25 -179.05 -119.5 -179.7 -118.45 -173.75 -116.05 -173.75 -114.15 -173.65 -113.95 -176.5 -114.3 -176.7 M-108.45 -171.6 L-109.6 -173.1 -107.5 -177.35 -107.2 -176.7 -108.95 -173.0 -108.45 -171.6 M-109.5 -157.6 L-109.6 -157.5 -111.15 -158.25 -109.6 -165.75 -109.5 -165.9 -107.9 -162.25 -107.8 -165.75 -107.5 -165.75 -100.1 -169.05 -104.6 -165.35 -104.8 -157.3 -104.8 -157.05 -107.7 -149.75 -108.45 -154.0 -108.85 -155.35 -108.75 -155.7 -108.05 -157.4 -108.05 -157.7 -108.0 -159.95 -109.5 -157.6 M-107.9 -162.25 L-108.0 -159.95 -107.9 -162.25 M-132.3 -163.1 L-124.7 -161.0 -132.3 -163.1 M-114.5 -161.85 L-112.9 -163.0 -114.4 -165.75 -114.5 -161.85 M-112.5 -158.45 L-112.9 -161.95 -114.3 -160.55 -112.9 -156.3 -112.5 -158.45 M-113.35 -141.8 L-112.7 -141.45 -115.2 -138.25 -117.5 -138.5 -118.85 -142.75 -118.05 -144.3 -113.35 -141.8 M-124.8 -185.85 L-123.85 -185.5 -124.8 -185.85 M-118.25 -179.05 L-121.55 -184.8 -121.65 -184.9 -121.55 -184.8 -118.25 -179.05 M-129.4 -142.4 L-131.15 -147.4 -124.05 -142.1 -122.9 -140.2 -122.8 -138.25 -128.65 -140.7 -122.8 -138.25 -119.7 -137.0 -119.05 -135.5 -119.7 -135.1 -124.3 -137.1 -125.55 -135.1 -122.2 -134.25 -121.75 -131.9 -121.75 -131.7 -121.35 -131.7 -118.35 -125.55 -127.7 -131.15 -129.6 -132.35 -132.8 -136.55 -136.75 -141.55 -145.3 -140.8 -134.05 -145.4 -133.45 -145.05 -131.45 -143.6 -131.15 -141.05 -127.9 -139.0 -128.65 -140.7 -129.4 -142.4 M-125.65 -135.5 L-124.9 -137.4 -127.0 -138.8 -125.65 -135.5 M-125.55 -130.95 L-128.65 -133.3 -134.6 -142.65 -140.5 -142.2 -135.6 -141.9 -129.8 -133.4 -125.55 -130.95" fill="#88e4ec" fill-rule="evenodd" stroke="none"/>
    <path d="M100.2 -186.05 L106.55 -195.5 112.05 -193.8 126.0 -188.3 120.3 -181.15 108.3 -170.1 107.55 -169.5 105.05 -167.15 98.7 -163.35 114.45 -178.85 112.55 -180.65 96.2 -167.9 93.2 -173.3 97.7 -178.1 97.55 -178.7 96.75 -181.05 95.6 -180.1 93.95 -183.95 89.25 -181.7 86.4 -183.2 86.75 -187.3 100.2 -185.2 100.2 -186.05 M106.65 -195.6 L126.5 -214.2 112.9 -195.8 106.65 -195.6 M109.25 -152.8 L94.65 -151.0 99.25 -155.35 100.5 -157.4 98.1 -157.6 98.5 -159.7 126.2 -174.05 136.1 -175.0 138.1 -176.8 139.95 -177.25 136.3 -170.35 128.5 -166.95 123.5 -170.1 126.4 -165.45 123.7 -167.35 123.1 -164.8 127.75 -157.7 123.4 -162.05 125.9 -156.65 109.25 -152.8 M77.35 -169.4 L67.55 -177.35 71.3 -186.25 81.3 -182.25 77.35 -169.4 M71.95 -187.3 L84.85 -191.35 82.45 -183.5 71.95 -187.3 M123.4 -162.05 L121.75 -163.75 121.75 -163.85 121.55 -168.75 123.5 -170.1 121.55 -168.75 121.75 -163.85 121.75 -163.75 123.4 -162.05 M121.55 -168.75 L100.5 -157.4 121.55 -168.75 M96.75 -181.05 L100.2 -185.2 96.75 -181.05 M121.75 -163.85 L99.15 -155.15 99.25 -155.35 99.15 -155.15 121.75 -163.85 M101.3 -133.3 L106.2 -137.75 110.05 -136.55 105.25 -130.0 98.5 -128.95 101.3 -133.3 M88.4 -130.65 L92.8 -132.95 94.15 -131.05 91.0 -130.0 90.6 -127.65 88.8 -127.55 90.15 -130.4 89.75 -130.2 88.4 -130.65 M87.9 -120.85 L96.55 -127.45 101.2 -127.35 96.4 -123.4 87.7 -120.65 87.9 -120.85 M91.0 -130.0 L91.2 -130.75 90.15 -130.4 91.2 -130.75 91.0 -130.0 M86.3 -107.9 L83.1 -104.85 83.5 -107.4 87.15 -110.45 88.3 -113.85 91.95 -114.3 90.4 -110.55 87.15 -110.45 91.55 -109.05 86.3 -107.9 M92.15 -97.2 L85.6 -92.6 87.45 -98.05 92.15 -97.2 M74.05 -160.05 L75.6 -160.15 74.25 -156.55 74.05 -160.05 M76.4 -151.85 L78.1 -149.4 77.7 -149.1 76.55 -149.65 75.7 -149.95 74.95 -151.85 76.4 -151.85 M67.05 -160.25 L69.85 -158.85 69.85 -153.35 67.55 -154.4 67.05 -160.25 M-164.6 -214.4 L-143.25 -197.95 -149.7 -197.75 -164.6 -214.4 M-143.15 -197.85 L-136.15 -189.25 -136.15 -188.3 -122.9 -191.8 -122.1 -187.65 -124.8 -185.85 -129.7 -187.55 -130.95 -183.7 -132.2 -184.55 -136.15 -188.3 -132.2 -184.55 -132.8 -182.1 -133.0 -181.5 -128.05 -177.25 -130.55 -171.5 -148.0 -182.55 -149.7 -180.55 -132.8 -166.75 -139.4 -169.9 -142.1 -171.95 -142.8 -172.45 -155.65 -182.1 -161.9 -188.7 -148.55 -195.6 -143.15 -197.85 M-121.15 -195.9 L-108.05 -193.15 -118.15 -188.4 -121.15 -195.9 M-107.3 -192.2 L-102.9 -183.8 -111.9 -175.0 -116.9 -187.2 -107.3 -192.2 M-127.6 -154.85 L-142.3 -155.15 -159.15 -157.15 -157.3 -162.9 -155.75 -164.7 -155.75 -164.9 -132.5 -158.45 -132.7 -158.65 -132.5 -158.45 -155.75 -164.9 -155.75 -164.7 -157.3 -162.9 -161.15 -158.0 -157.2 -165.75 -158.0 -168.1 -160.5 -166.1 -158.0 -170.95 -162.6 -167.25 -170.7 -169.9 -174.8 -176.4 -173.2 -176.05 -170.85 -174.35 -160.85 -174.6 -132.3 -163.1 -131.55 -161.0 -134.05 -160.55 -156.05 -169.7 -158.0 -170.95 -156.05 -169.7 -134.05 -160.55 -132.7 -158.65 -127.6 -154.85 M-109.5 -165.9 L-107.8 -165.75 -107.9 -162.25 -109.5 -165.9 M-109.5 -155.15 L-110.55 -154.6 -110.95 -154.85 -109.5 -157.6 -108.05 -157.7 -108.05 -157.4 -108.75 -155.7 -109.5 -155.15 M-100.95 -166.85 L-100.85 -161.0 -103.05 -159.6 -103.45 -165.05 -100.95 -166.85 M-155.75 -164.9 L-156.05 -169.7 -155.75 -164.9 M-129.6 -132.35 L-136.35 -132.85 -141.75 -138.9 -138.0 -140.4 -132.8 -136.55 -129.6 -132.35 M-121.35 -134.65 L-122.5 -135.1 -122.2 -134.25 -122.5 -135.1 -121.35 -134.65 -119.8 -132.1 -121.75 -131.9 -122.2 -134.25 -125.55 -135.1 -124.3 -137.1 -119.7 -135.1 -121.15 -134.55 -121.35 -134.65 M-127.7 -131.15 L-118.35 -125.55 -118.15 -125.1 -127.0 -127.1 -132.2 -130.5 -127.7 -131.15 M-112.9 -112.6 L-112.3 -110.05 -115.65 -112.8 -121.15 -113.45 -116.8 -115.25 -120.2 -115.15 -121.9 -118.5 -118.15 -118.5 -116.8 -115.25 -112.9 -112.6 M-113.65 -97.6 L-120.55 -101.45 -116.15 -102.7 -113.65 -97.6" fill="#b6eff3" fill-rule="evenodd" stroke="none"/>
    <path d="M83.3 -174.15 L84.45 -175.0 83.95 -168.85 81.45 -168.65 83.7 -170.1 83.1 -171.95 79.55 -171.4 83.3 -174.15 M78.7 -165.45 L78.95 -166.2 81.2 -166.75 79.65 -163.75 78.7 -165.45 M-114.3 -176.7 L-117.9 -176.8 -118.25 -175.0 -116.05 -173.75 -118.45 -173.75 -119.5 -179.7 -118.25 -179.05 -114.3 -176.7 M-113.35 -171.5 L-112.9 -170.75 -113.75 -169.05 -115.55 -171.7 -113.35 -171.5" fill="#d9f7f9" fill-rule="evenodd" stroke="none"/>
    <path d="M88.7 -168.45 L84.95 -164.6 89.25 -165.45 88.7 -160.15 83.8 -158.35 83.4 -163.2 81.55 -161.75 80.8 -163.2 80.9 -163.55 85.15 -169.25 92.15 -178.4 92.35 -178.4 94.15 -176.4 88.7 -168.45 M83.4 -163.2 L83.4 -164.3 84.95 -164.6 83.4 -164.3 83.4 -163.2 M83.7 -158.15 L88.5 -158.65 85.7 -157.4 88.1 -156.55 85.4 -150.8 84.35 -149.75 80.2 -148.7 83.7 -158.15 M105.05 -167.15 L107.55 -169.5 108.3 -167.15 107.15 -166.2 105.05 -167.15 M-114.9 -168.45 L-115.5 -166.75 -117.5 -168.1 -117.5 -163.2 -122.5 -164.6 -123.35 -169.7 -119.05 -169.25 -123.15 -172.9 -129.3 -180.1 -127.7 -182.45 -127.4 -182.45 -119.8 -173.95 -115.0 -168.65 -114.9 -168.45 M-117.3 -163.1 L-113.05 -154.0 -117.3 -154.6 -118.45 -155.6 -121.65 -161.0 -119.25 -162.15 -122.1 -163.0 -117.3 -163.1 M-117.5 -168.1 L-117.6 -169.15 -119.05 -169.25 -117.6 -169.15 -117.5 -168.1 M-139.4 -169.9 L-141.35 -168.65 -142.7 -169.25 -142.1 -171.95 -139.4 -169.9" fill="#b4eff3" fill-rule="evenodd" stroke="none"/>
    <path d="M102.55 -139.55 L108.5 -139.75 103.6 -138.9 98.5 -130.0 94.55 -127.0 97.55 -129.65 102.55 -139.55 M81.95 -64.25 L82.65 -68.1 86.75 -68.85 81.2 -60.55 81.95 -64.25 M-125.55 -130.95 L-129.8 -133.4 -135.6 -141.9 -140.5 -142.2 -134.6 -142.65 -128.65 -133.3 -125.55 -130.95 M-108.75 -73.4 L-107.7 -69.7 -106.75 -66.05 -112.9 -73.85 -108.75 -73.4" fill="#b7eff3" fill-rule="evenodd" stroke="none"/>
    <path d="M94.25 -146.75 L93.1 -142.4 88.6 -143.35 94.25 -146.75 M92.65 -141.65 L88.4 -138.05 87.35 -140.4 86.0 -140.2 87.35 -141.45 92.65 -141.65 M-120.4 -142.5 L-124.8 -145.7 -119.6 -146.0 -118.05 -144.85 -119.5 -144.95 -120.4 -142.5 M-125.3 -146.35 L-126.9 -150.6 -120.95 -147.7 -125.3 -146.35" fill="#b6eff2" fill-rule="evenodd" stroke="none"/>
    <path d="M101.4 -141.9 L99.35 -140.2 99.35 -137.65 97.55 -138.9 98.8 -144.0 101.4 -141.9 M-131.15 -147.4 L-129.4 -142.4 -131.15 -141.05 -131.45 -143.6 -133.45 -145.05 -131.15 -147.4" fill="#def8fa" fill-rule="evenodd" stroke="none"/>
    <path d="M99.35 -137.65 L96.2 -135.3 96.85 -137.0 97.55 -138.9 99.35 -137.65 M90.6 -127.65 L90.6 -127.45 90.3 -127.25 88.1 -126.6 87.7 -129.05 89.75 -130.2 90.15 -130.4 88.8 -127.55 90.6 -127.65 M95.4 -135.0 L94.25 -131.5 93.4 -133.4 95.4 -135.0 M-131.15 -141.05 L-129.4 -142.4 -128.65 -140.7 -127.9 -139.0 -131.15 -141.05 M-125.65 -135.5 L-127.0 -138.8 -124.9 -137.4 -125.65 -135.5 M-121.35 -134.65 L-121.15 -134.55 -118.85 -133.7 -119.15 -131.05 -121.35 -131.7 -121.75 -131.7 -121.75 -131.9 -119.8 -132.1 -121.35 -134.65" fill="#89e4ec" fill-rule="evenodd" stroke="none"/>
    <path d="M87.65 -147.0 L86.75 -143.35 81.55 -136.55 80.9 -136.15 80.6 -136.35 80.4 -139.1 85.4 -146.65 87.65 -147.0 M95.5 -104.6 L92.65 -106.4 99.45 -104.3 91.55 -103.75 95.5 -104.6 M-120.3 -151.45 L-118.15 -151.45 -112.5 -144.55 -112.4 -141.55 -112.7 -141.45 -113.35 -141.8 -119.25 -148.05 -120.3 -151.45 M-121.9 -110.45 L-124.7 -108.55 -120.65 -108.1 -128.65 -107.8 -121.9 -110.45" fill="#acecf1" fill-rule="evenodd" stroke="none"/>
    <path d="M93.3 -113.3 L99.35 -117.25 92.9 -107.25 101.65 -104.0 85.3 -101.55 85.2 -105.8 86.3 -107.9 91.55 -109.05 93.3 -113.3 M85.6 -92.6 L85.5 -97.95 87.45 -100.6 87.45 -98.05 85.6 -92.6 M95.5 -104.6 L91.55 -103.75 99.45 -104.3 92.65 -106.4 95.5 -104.6 M85.2 -105.8 L92.9 -107.25 85.2 -105.8 M-115.65 -112.8 L-114.4 -110.65 -114.15 -106.4 -130.65 -107.4 -122.3 -111.5 -129.4 -120.75 -123.25 -117.35 -121.15 -113.45 -115.65 -112.8 M-121.9 -110.45 L-128.65 -107.8 -120.65 -108.1 -124.7 -108.55 -121.9 -110.45 M-116.15 -105.25 L-114.05 -102.9 -113.65 -97.6 -116.15 -102.7 -116.15 -105.25 M-114.4 -110.65 L-122.3 -111.5 -114.4 -110.65" fill="#81e2eb" fill-rule="evenodd" stroke="none"/>
    <path d="M83.5 -107.4 L83.95 -110.65 88.9 -116.0 89.05 -115.85 88.3 -113.85 87.15 -110.45 83.5 -107.4 M-119.15 -120.45 L-119.05 -120.45 -113.65 -115.75 -112.9 -112.6 -116.8 -115.25 -118.15 -118.5 -119.15 -120.45" fill="#87e3eb" fill-rule="evenodd" stroke="none"/>
    <path d="M87.45 -100.6 L90.4 -100.6 92.15 -97.2 87.45 -98.05 87.45 -100.6 M87.8 -89.95 L93.1 -91.15 92.15 -86.9 86.75 -85.5 87.8 -89.95 M87.9 -81.9 L88.2 -80.4 85.4 -81.25 85.3 -82.55 87.9 -81.9 M-120.55 -101.45 L-119.25 -105.05 -116.15 -105.25 -116.15 -102.7 -120.55 -101.45 M-115.4 -85.2 L-115.2 -86.55 -112.7 -87.5 -112.7 -86.25 -115.4 -85.2 M-119.8 -91.25 L-121.15 -95.25 -115.75 -94.85 -114.3 -90.5 -119.8 -91.25" fill="#ddf8fa" fill-rule="evenodd" stroke="none"/>
    <path d="M103.5 -114.3 L105.5 -114.15 100.4 -108.25 98.3 -107.7 103.5 -114.3 M101.55 -114.6 L96.2 -107.7 94.45 -107.4 99.45 -114.5 101.55 -114.6 M-129.8 -111.5 L-135.4 -117.05 -133.35 -117.25 -127.7 -111.4 -129.8 -111.5 M-125.55 -111.5 L-131.45 -117.9 -129.4 -118.1 -123.85 -111.5 -125.55 -111.5" fill="#b5eff3" fill-rule="evenodd" stroke="none"/>
    <path d="M72.55 -170.75 L74.45 -167.15 74.05 -165.9 73.95 -165.65 74.05 -167.25 71.2 -166.85 72.55 -170.75 M-107.2 -176.7 L-105.5 -173.0 -108.45 -173.1 -108.25 -171.4 -108.45 -171.6 -108.95 -173.0 -107.2 -176.7" fill="#adecf1" fill-rule="evenodd" stroke="none"/>
    <path d="M71.2 -166.85 L74.05 -167.25 73.95 -165.65 73.95 -165.15 74.05 -163.55 71.2 -166.85 M-108.05 -169.25 L-108.25 -170.95 -108.25 -171.4 -108.45 -173.1 -105.5 -173.0 -108.05 -169.25" fill="#99e8ee" fill-rule="evenodd" stroke="none"/>
    <path d="M76.55 -149.65 L77.55 -148.05 76.65 -147.1 75.7 -148.15 75.9 -149.65 75.7 -149.95 76.55 -149.65 M81.0 -156.65 L79.25 -157.7 80.6 -160.55 81.0 -156.65 M74.95 -151.85 L74.65 -154.1 76.4 -151.85 74.95 -151.85 M-108.45 -154.0 L-109.3 -152.7 -110.4 -153.55 -109.5 -155.15 -108.75 -155.7 -108.85 -155.35 -108.45 -154.0 M-109.5 -157.6 L-108.0 -159.95 -108.05 -157.7 -109.5 -157.6 M-114.5 -161.85 L-114.4 -165.75 -112.9 -163.0 -114.5 -161.85" fill="#a9ecf1" fill-rule="evenodd" stroke="none"/>
    <path d="M81.95 -64.25 L80.7 -68.95 79.25 -67.05 78.6 -69.45 82.35 -74.25 82.65 -68.1 81.95 -64.25 M-109.05 -79.55 L-104.9 -75.3 -105.3 -72.75 -106.9 -74.45 -107.7 -69.7 -108.75 -73.4 -109.05 -79.55" fill="#88e3eb" fill-rule="evenodd" stroke="none"/>
    <path d="M79.25 -67.05 L80.7 -68.95 81.95 -64.25 81.2 -60.55 79.25 -67.05 M-107.7 -69.7 L-106.9 -74.45 -105.3 -72.75 -106.75 -66.05 -107.7 -69.7" fill="#aeedf1" fill-rule="evenodd" stroke="none"/>
    <path d="M83.5 -82.55 L82.15 -85.7 84.85 -88.15 85.05 -88.5 86.75 -85.5 85.4 -84.45 83.5 -82.55 M-112.9 -93.55 L-112.7 -93.25 -109.8 -91.15 -110.85 -87.85 -112.9 -89.45 -114.3 -90.5 -112.9 -93.55" fill="#b8eff3" fill-rule="evenodd" stroke="none"/>
    <path d="M87.8 -89.95 L86.75 -85.5 85.05 -88.5 87.7 -92.3 87.8 -89.95 M-115.75 -94.85 L-115.75 -96.95 -112.9 -93.55 -114.3 -90.5 -115.75 -94.85" fill="#c1f1f5" fill-rule="evenodd" stroke="none"/>
    <path d="M82.25 -77.2 L83.5 -82.55 85.4 -84.45 85.3 -82.55 85.4 -81.25 85.3 -81.25 82.25 -77.2 M-110.85 -87.85 L-109.15 -82.55 -112.5 -86.35 -112.7 -86.25 -112.7 -87.5 -112.9 -89.45 -110.85 -87.85" fill="#84e2eb" fill-rule="evenodd" stroke="none"/>
    <path d="M86.75 -85.5 L92.15 -86.9 87.9 -81.9 85.3 -82.55 85.4 -84.45 86.75 -85.5 M88.2 -80.4 L83.9 -76.7 82.25 -77.2 85.3 -81.25 85.4 -81.25 88.2 -80.4 M-109.15 -82.55 L-110.75 -81.9 -115.4 -85.2 -112.7 -86.25 -112.5 -86.35 -109.15 -82.55 M-115.2 -86.55 L-119.8 -91.25 -114.3 -90.5 -112.9 -89.45 -112.7 -87.5 -115.2 -86.55" fill="#a4eaf0" fill-rule="evenodd" stroke="none"/>
    <path d="M106.75 -197.1 L110.4 -205.15 109.35 -200.5 117.05 -206.95 106.75 -197.1 M130.4 -217.8 L111.75 -208.55 99.35 -198.35 100.2 -186.05 106.55 -195.5 106.5 -195.6 106.65 -195.6 126.5 -214.2 130.4 -217.8 128.7 -189.0 128.7 -188.8 120.3 -181.15 108.3 -170.1 109.15 -166.75 126.75 -177.65 140.5 -179.9 160.25 -190.6 149.0 -169.5 132.9 -164.3 132.8 -164.3 129.85 -155.45 109.25 -152.8 94.65 -151.0 93.6 -149.3 89.65 -148.05 94.25 -146.75 93.1 -142.4 92.8 -141.8 92.65 -141.65 88.4 -138.05 88.3 -138.05 86.2 -132.2 86.0 -132.0 83.0 -130.4 78.7 -131.7 76.95 -141.45 78.9 -145.05 78.5 -149.1 79.45 -149.55 78.3 -152.6 78.7 -159.5 75.6 -165.05 77.35 -169.4 67.55 -177.35 71.3 -186.25 71.45 -187.1 71.95 -187.3 84.85 -191.35 85.05 -191.35 98.7 -209.95 98.7 -209.6 99.35 -198.35 M98.5 -159.7 L126.2 -174.05 136.1 -175.0 138.1 -176.8 139.95 -177.25 136.3 -170.35 136.5 -170.45 160.25 -190.6 M123.5 -170.1 L121.55 -168.75 121.75 -163.85 121.75 -163.75 123.4 -162.05 127.75 -157.7 123.1 -164.8 123.7 -167.35 126.4 -165.45 123.5 -170.1 128.5 -166.95 136.3 -170.35 M132.9 -164.3 L126.65 -165.25 126.4 -165.45 M129.85 -155.45 L127.75 -157.7 M123.4 -162.05 L125.9 -156.65 109.25 -152.8 M136.5 -170.45 L149.0 -169.5 M106.55 -195.5 L112.05 -193.8 128.7 -189.0 M106.65 -195.6 L106.55 -195.5 M126.5 -214.2 L112.9 -195.8 106.65 -195.6 M105.05 -167.15 L98.7 -163.35 114.45 -178.85 112.55 -180.65 96.2 -167.9 93.2 -173.3 88.7 -168.45 84.95 -164.6 89.25 -165.45 91.2 -156.85 98.5 -159.7 98.1 -157.6 100.5 -157.4 121.55 -168.75 M85.15 -169.25 L89.55 -177.55 87.65 -179.9 86.2 -180.3 83.3 -174.15 84.45 -175.0 83.95 -168.85 81.45 -168.65 79.65 -168.2 79.05 -171.2 79.55 -171.4 83.3 -174.15 M88.4 -181.25 L89.25 -181.7 86.4 -183.2 86.75 -187.3 98.7 -209.6 M86.2 -180.3 L88.4 -181.25 93.1 -182.0 92.7 -180.55 97.55 -178.7 96.75 -181.05 95.6 -180.1 93.95 -183.95 89.25 -181.7 M100.2 -185.2 L96.75 -181.05 M87.65 -179.9 L91.55 -178.5 92.15 -178.4 92.35 -178.4 97.7 -178.1 97.55 -178.7 M88.7 -168.45 L94.15 -176.4 92.35 -178.4 M93.2 -173.3 L97.7 -178.1 M84.85 -191.35 L82.45 -183.5 71.95 -187.3 M86.75 -187.3 L100.2 -185.2 100.2 -186.05 M81.45 -168.65 L83.7 -170.1 83.1 -171.95 79.55 -171.4 M84.95 -164.6 L83.4 -164.3 83.4 -163.2 83.8 -158.35 88.7 -160.15 89.25 -165.45 M83.4 -163.2 L81.55 -161.75 80.8 -163.2 79.35 -160.35 78.4 -164.4 78.7 -165.45 78.95 -166.2 79.35 -167.15 83.2 -167.9 80.9 -163.55 85.15 -169.25 92.15 -178.4 M83.7 -158.15 L88.5 -158.65 91.2 -156.85 85.4 -150.8 84.35 -149.75 80.2 -148.7 83.7 -158.15 83.8 -158.35 M88.5 -158.65 L85.7 -157.4 88.1 -156.55 85.4 -150.8 M94.65 -151.0 L99.25 -155.35 100.5 -157.4 M99.25 -155.35 L99.15 -155.15 121.75 -163.85 M105.05 -167.15 L107.55 -169.5 108.3 -170.1 M107.55 -169.5 L108.3 -167.15 107.15 -166.2 105.05 -167.15 M98.5 -128.95 L105.25 -130.0 110.05 -136.55 106.2 -137.75 101.3 -133.3 98.5 -128.95 105.9 -126.7 118.1 -134.85 113.5 -138.9 104.85 -138.7 101.3 -133.3 M102.55 -139.55 L97.55 -129.65 94.55 -127.0 98.5 -130.0 103.6 -138.9 108.5 -139.75 102.55 -139.55 M113.5 -138.9 L101.85 -142.3 101.4 -141.9 99.35 -140.2 99.35 -137.65 96.2 -135.3 96.85 -137.0 91.2 -134.05 88.1 -132.35 87.65 -130.95 88.4 -130.65 92.8 -132.95 94.15 -131.05 91.0 -130.0 90.6 -127.65 90.6 -127.45 90.3 -127.25 87.9 -120.85 96.55 -127.45 98.5 -128.95 M97.55 -138.9 L98.8 -144.0 92.15 -137.95 91.0 -135.95 91.2 -134.05 M97.55 -138.9 L96.85 -137.0 M99.35 -137.65 L97.55 -138.9 M87.65 -147.0 L86.75 -143.35 81.55 -136.55 85.9 -139.75 86.95 -138.05 86.0 -133.8 83.7 -133.4 80.9 -136.15 80.6 -136.35 81.2 -133.5 86.0 -132.0 M87.65 -147.0 L88.0 -146.85 88.6 -143.35 94.25 -146.75 M88.4 -138.05 L87.35 -140.4 86.0 -140.2 87.35 -141.45 92.65 -141.65 M80.6 -136.35 L80.4 -139.1 85.4 -146.65 87.65 -147.0 M89.75 -130.2 L90.15 -130.4 91.2 -130.75 91.0 -130.0 M89.75 -130.2 L88.4 -130.65 M90.3 -127.25 L88.1 -126.6 87.7 -129.05 89.75 -130.2 M90.6 -127.65 L88.8 -127.55 90.15 -130.4 M96.55 -127.45 L101.2 -127.35 96.4 -123.4 105.9 -126.7 M95.4 -135.0 L93.4 -133.4 94.25 -131.5 95.4 -135.0 M93.1 -142.4 L88.6 -143.35 M89.05 -115.85 L94.85 -116.7 93.3 -113.3 99.35 -117.25 111.0 -116.0 101.65 -104.0 85.3 -101.55 85.2 -105.8 86.3 -107.9 83.1 -104.85 83.5 -107.4 83.95 -110.65 88.9 -116.0 89.05 -115.85 88.3 -113.85 91.95 -114.3 90.4 -110.55 87.15 -110.45 91.55 -109.05 93.3 -113.3 M96.4 -123.4 L87.7 -120.65 87.9 -120.85 M83.5 -107.4 L87.15 -110.45 88.3 -113.85 M87.45 -100.6 L90.4 -100.6 92.15 -97.2 85.6 -92.6 85.5 -97.95 87.45 -100.6 87.45 -98.05 92.15 -97.2 M103.5 -114.3 L98.3 -107.7 100.4 -108.25 105.5 -114.15 103.5 -114.3 M95.5 -104.6 L91.55 -103.75 99.45 -104.3 92.65 -106.4 95.5 -104.6 M101.55 -114.6 L96.2 -107.7 94.45 -107.4 99.45 -114.5 101.55 -114.6 M99.35 -117.25 L92.9 -107.25 101.65 -104.0 M86.3 -107.9 L91.55 -109.05 M92.9 -107.25 L85.2 -105.8 M98.8 -144.0 L101.4 -141.9 M120.3 -181.15 L126.0 -188.3 112.05 -193.8 M74.05 -165.9 L74.45 -167.15 72.55 -170.75 71.2 -166.85 74.05 -167.25 73.95 -165.65 74.05 -165.9 75.2 -167.35 72.7 -171.4 72.55 -170.75 M72.7 -171.4 L73.1 -172.35 76.0 -166.95 74.05 -163.55 71.2 -166.85 M74.05 -163.55 L73.95 -165.15 73.95 -165.65 M73.95 -165.15 L74.05 -165.9 M80.8 -163.2 L80.9 -163.55 M78.95 -166.2 L81.2 -166.75 79.65 -163.75 78.7 -165.45 M66.0 -162.5 L62.35 -161.85 66.35 -153.05 71.75 -151.25 70.8 -159.1 66.0 -162.5 73.7 -159.95 74.05 -160.05 75.6 -160.15 75.7 -160.15 77.9 -152.7 76.55 -151.85 76.4 -151.85 78.1 -149.4 77.7 -149.1 76.55 -149.65 77.55 -148.05 76.65 -147.1 75.7 -148.15 75.2 -144.1 75.2 -144.0 66.35 -153.05 M67.05 -160.25 L67.55 -154.4 69.85 -153.35 69.85 -158.85 67.05 -160.25 M81.0 -156.65 L80.6 -160.55 79.25 -157.7 81.0 -156.65 M79.85 -150.9 L79.25 -153.15 79.25 -156.55 80.9 -155.35 79.85 -150.9 M74.05 -160.05 L74.25 -156.55 75.6 -160.15 M75.7 -148.15 L75.9 -149.65 75.7 -149.95 74.95 -151.85 74.65 -154.1 74.25 -156.55 M75.2 -144.1 L71.75 -151.0 71.75 -151.25 M76.4 -151.85 L74.95 -151.85 M75.7 -149.95 L76.55 -149.65 M74.65 -154.1 L76.4 -151.85 M79.25 -67.05 L80.7 -68.95 81.95 -64.25 82.65 -68.1 82.35 -74.25 78.6 -69.45 79.25 -67.05 81.2 -60.55 81.95 -64.25 M92.15 -86.9 L93.1 -91.15 87.8 -89.95 86.75 -85.5 92.15 -86.9 87.9 -81.9 88.2 -80.4 83.9 -76.7 82.25 -77.2 83.5 -82.55 82.15 -85.7 84.85 -88.15 85.05 -88.5 87.7 -92.3 87.8 -89.95 M87.45 -98.05 L85.6 -92.6 M85.3 -82.55 L85.4 -84.45 83.5 -82.55 M85.4 -81.25 L85.3 -81.25 82.25 -77.2 M85.3 -82.55 L85.4 -81.25 88.2 -80.4 M87.9 -81.9 L85.3 -82.55 M85.4 -84.45 L86.75 -85.5 85.05 -88.5 M81.2 -60.55 L86.75 -68.85 82.65 -68.1 M86.75 -68.85 L87.15 -75.0 82.35 -74.25 M71.3 -186.25 L81.3 -182.25 77.35 -169.4 M81.55 -136.55 L80.9 -136.15 M-136.35 -201.55 L-149.5 -210.35 -168.95 -217.7 -164.6 -214.4 -143.25 -197.95 -143.1 -197.95 -143.15 -197.85 -136.15 -189.25 -136.35 -201.55 -136.55 -212.7 -136.55 -213.0 -121.45 -196.05 -121.15 -195.9 -108.05 -193.15 -107.6 -193.05 -107.3 -192.2 -102.9 -183.8 -111.9 -175.0 -109.8 -170.55 -112.4 -164.8 -111.55 -158.0 -112.5 -154.95 -111.35 -154.5 -111.35 -150.6 -109.25 -147.2 -110.1 -137.2 -114.3 -135.5 -117.4 -136.8 -117.7 -137.0 -120.4 -142.5 -124.8 -145.7 -125.1 -145.8 -125.3 -146.35 -126.9 -150.6 -122.5 -152.4 -126.45 -153.25 -127.6 -154.85 -142.3 -155.15 -163.15 -155.6 -166.85 -164.05 -166.95 -164.05 -183.2 -167.8 -196.25 -187.55 -175.7 -178.85 -161.9 -178.0 -143.35 -168.95 -142.8 -172.45 -155.65 -182.1 -164.7 -188.9 -164.7 -189.25 -168.95 -217.7 M-148.0 -207.2 L-146.45 -202.6 -154.6 -208.25 -143.65 -199.45 -148.0 -207.2 M-134.05 -160.55 L-131.55 -161.0 -132.3 -163.1 -160.85 -174.6 -170.85 -174.35 -173.2 -176.05 -174.8 -176.4 -170.7 -169.9 -162.6 -167.25 -158.0 -170.95 -156.05 -169.7 -134.05 -160.55 -132.7 -158.65 -127.6 -154.85 M-170.7 -169.9 L-171.05 -170.0 -183.2 -167.8 M-196.25 -187.55 L-171.05 -170.0 M-121.15 -195.9 L-118.15 -188.4 -108.05 -193.15 M-116.05 -173.75 L-118.25 -175.0 -117.9 -176.8 -114.3 -176.7 -118.25 -179.05 -119.5 -179.7 -118.45 -173.75 -116.05 -173.75 -114.15 -173.65 -113.95 -176.5 -114.3 -176.7 M-107.5 -177.35 L-108.0 -178.2 -110.4 -172.45 -108.05 -169.25 -108.25 -170.95 -108.45 -171.6 -109.6 -173.1 -107.5 -177.35 -107.2 -176.7 -105.5 -173.0 -108.05 -169.25 M-107.3 -192.2 L-116.9 -187.2 -111.9 -175.0 M-108.45 -171.6 L-108.25 -171.4 -108.45 -173.1 -105.5 -173.0 M-108.25 -171.4 L-108.25 -170.95 M-107.2 -176.7 L-108.95 -173.0 -108.45 -171.6 M-109.5 -157.6 L-109.6 -157.5 -111.15 -158.25 -109.6 -165.75 -109.5 -165.9 -107.8 -165.75 -107.5 -165.75 -100.1 -169.05 -96.35 -168.85 -99.8 -159.7 -99.9 -159.5 -107.7 -149.75 -108.45 -154.0 -109.3 -152.7 -110.4 -153.55 -109.5 -155.15 -110.55 -154.6 -110.95 -154.85 -109.5 -157.6 -108.0 -159.95 -107.9 -162.25 -109.5 -165.9 M-107.9 -162.25 L-107.8 -165.75 M-112.9 -170.75 L-113.35 -171.5 -115.55 -171.7 -113.75 -169.05 -112.9 -170.75 -112.6 -169.8 -113.15 -165.65 -114.9 -168.45 -115.5 -166.75 -117.5 -168.1 -117.5 -163.2 -117.3 -163.1 -113.05 -154.0 -117.3 -154.6 -118.45 -155.6 -124.7 -161.0 -132.3 -163.1 M-115.0 -168.65 L-114.9 -168.45 M-113.35 -171.5 L-113.85 -172.45 -117.7 -172.65 -115.0 -168.65 -119.8 -173.95 -127.4 -182.45 -127.7 -182.45 -129.3 -180.1 -123.15 -172.9 -119.05 -169.25 -117.6 -169.15 -117.5 -168.1 M-114.5 -161.85 L-114.4 -165.75 -112.9 -163.0 -114.5 -161.85 M-112.5 -158.45 L-112.9 -161.95 -114.3 -160.55 -112.9 -156.3 -112.5 -158.45 M-112.4 -141.55 L-112.5 -144.55 -118.15 -151.45 -120.3 -151.45 -119.25 -148.05 -113.35 -141.8 -112.7 -141.45 -112.4 -141.55 -112.8 -138.8 -117.4 -136.8 M-120.3 -151.45 L-120.75 -151.45 -120.95 -147.7 -125.3 -146.35 M-107.7 -149.75 L-104.8 -157.05 -104.8 -157.3 -104.6 -165.35 -100.1 -169.05 M-108.75 -155.7 L-108.05 -157.4 -108.05 -157.7 -109.5 -157.6 M-108.05 -157.7 L-108.0 -159.95 M-108.75 -155.7 L-109.5 -155.15 M-108.45 -154.0 L-108.85 -155.35 -108.75 -155.7 M-100.95 -166.85 L-100.85 -161.0 -103.05 -159.6 -103.45 -165.05 -100.95 -166.85 M-104.8 -157.3 L-99.8 -159.7 M-132.2 -184.55 L-130.95 -183.7 -129.7 -187.55 -124.8 -185.85 -122.1 -187.65 -122.9 -191.8 -136.15 -188.3 -132.2 -184.55 -132.8 -182.1 -128.25 -184.45 -128.65 -185.95 -123.85 -185.5 -124.8 -185.85 M-136.15 -188.3 L-136.15 -189.25 M-128.05 -177.25 L-133.0 -181.5 -132.8 -182.1 M-127.4 -182.45 L-126.75 -182.55 -123.0 -184.25 -121.65 -184.9 -123.85 -185.5 M-119.8 -173.95 L-124.7 -181.8 -123.0 -184.25 M-121.65 -184.9 L-121.55 -184.8 -118.25 -179.05 M-127.7 -182.45 L-133.0 -181.5 M-143.15 -197.85 L-148.55 -195.6 -161.9 -188.7 -155.65 -182.1 M-139.4 -169.9 L-132.8 -166.75 -149.7 -180.55 -148.0 -182.55 -130.55 -171.5 -128.05 -177.25 -123.15 -172.9 M-164.6 -214.4 L-149.7 -197.75 -143.25 -197.95 -143.15 -197.85 M-142.1 -171.95 L-142.7 -169.25 -141.35 -168.65 -139.4 -169.9 -142.1 -171.95 -142.8 -172.45 M-132.7 -158.65 L-132.5 -158.45 -155.75 -164.9 -155.75 -164.7 -157.3 -162.9 -159.15 -157.15 -142.3 -155.15 M-166.95 -164.05 L-160.65 -165.75 -160.5 -166.1 -158.0 -170.95 M-161.15 -158.0 L-157.2 -165.75 -158.0 -168.1 -160.5 -166.1 M-156.05 -169.7 L-155.75 -164.9 M-161.15 -158.0 L-157.3 -162.9 M-124.7 -161.0 L-122.1 -163.0 -117.3 -163.1 M-123.35 -169.7 L-124.7 -161.0 M-117.5 -163.2 L-122.5 -164.6 -123.35 -169.7 -119.05 -169.25 M-129.4 -142.4 L-131.15 -147.4 -133.45 -145.05 -131.45 -143.6 -131.15 -141.05 -129.4 -142.4 -128.65 -140.7 -122.8 -138.25 -122.9 -140.2 -124.05 -142.1 -131.15 -147.4 M-131.15 -141.05 L-127.9 -139.0 -128.65 -140.7 M-125.65 -135.5 L-127.0 -138.8 -124.9 -137.4 -125.65 -135.5 M-125.55 -130.95 L-129.8 -133.4 -135.6 -141.9 -140.5 -142.2 -134.6 -142.65 -128.65 -133.3 -125.55 -130.95 M-129.6 -132.35 L-136.35 -132.85 -141.75 -138.9 -138.0 -140.4 -132.8 -136.55 -136.75 -141.55 -145.3 -140.8 -149.7 -136.35 -136.85 -129.45 -129.6 -132.35 -132.8 -136.55 M-145.3 -140.8 L-134.05 -145.4 -133.45 -145.05 M-122.2 -134.25 L-122.5 -135.1 -121.35 -134.65 -121.15 -134.55 -119.7 -135.1 -124.3 -137.1 -125.55 -135.1 -122.2 -134.25 -121.75 -131.9 -119.8 -132.1 -121.35 -134.65 M-129.6 -132.35 L-127.7 -131.15 -118.35 -125.55 -121.35 -131.7 -121.75 -131.7 -121.75 -131.9 M-127.7 -131.15 L-132.2 -130.5 -127.0 -127.1 -118.15 -125.1 -118.35 -125.55 M-127.0 -127.1 L-136.85 -129.45 M-123.25 -117.35 L-125.0 -120.65 -119.15 -120.45 -119.05 -120.45 -113.65 -115.75 -112.9 -112.6 -112.3 -110.05 -115.65 -112.8 -114.4 -110.65 -114.15 -106.4 -130.65 -107.4 -140.95 -118.3 -129.4 -120.75 -123.25 -117.35 -121.15 -113.45 -116.8 -115.25 -120.2 -115.15 -121.9 -118.5 -118.15 -118.5 -119.15 -120.45 M-129.8 -111.5 L-135.4 -117.05 -133.35 -117.25 -127.7 -111.4 -129.8 -111.5 M-125.55 -111.5 L-123.85 -111.5 -129.4 -118.1 -131.45 -117.9 -125.55 -111.5 M-130.65 -107.4 L-122.3 -111.5 -129.4 -120.75 M-121.9 -110.45 L-124.7 -108.55 -120.65 -108.1 -128.65 -107.8 -121.9 -110.45 M-124.8 -145.7 L-119.6 -146.0 -118.05 -144.85 -119.5 -144.95 -120.4 -142.5 M-113.35 -141.8 L-118.05 -144.3 -118.85 -142.75 -117.5 -138.5 -115.2 -138.25 -112.7 -141.45 M-121.15 -134.55 L-118.85 -133.7 -119.15 -131.05 -121.35 -131.7 M-122.8 -138.25 L-119.7 -137.0 -119.05 -135.5 -119.7 -135.1 M-118.15 -118.5 L-116.8 -115.25 -112.9 -112.6 M-115.65 -112.8 L-121.15 -113.45 M-120.55 -101.45 L-119.25 -105.05 -116.15 -105.25 -114.05 -102.9 -113.65 -97.6 -120.55 -101.45 -116.15 -102.7 -116.15 -105.25 M-122.3 -111.5 L-114.4 -110.65 M-122.1 -163.0 L-119.25 -162.15 -121.65 -161.0 -118.45 -155.6 M-120.95 -147.7 L-126.9 -150.6 M-112.9 -93.55 L-112.7 -93.25 -109.8 -91.15 -110.85 -87.85 -109.15 -82.55 -110.75 -81.9 -115.4 -85.2 -115.2 -86.55 -119.8 -91.25 -121.15 -95.25 -115.75 -94.85 -115.75 -96.95 -112.9 -93.55 -114.3 -90.5 -112.9 -89.45 -110.85 -87.85 M-112.7 -87.5 L-112.9 -89.45 M-114.3 -90.5 L-119.8 -91.25 M-115.75 -94.85 L-114.3 -90.5 M-115.4 -85.2 L-112.7 -86.25 -112.7 -87.5 -115.2 -86.55 M-112.7 -86.25 L-112.5 -86.35 -109.15 -82.55 M-105.3 -72.75 L-104.9 -75.3 -109.05 -79.55 -108.75 -73.4 -107.7 -69.7 -106.9 -74.45 -105.3 -72.75 -106.75 -66.05 -112.9 -73.85 -113.85 -79.9 -109.05 -79.55 M-107.7 -69.7 L-106.75 -66.05 M-112.9 -73.85 L-108.75 -73.4 M-113.65 -97.6 L-116.15 -102.7 M-148.55 -195.6 L-164.7 -189.25 M-136.55 -212.7 L-122.9 -191.8 M-163.15 -155.6 L-161.15 -158.0" fill="none" stroke="#8be4ec" stroke-linecap="round" stroke-linejoin="round" stroke-width="0.05"/>
  </g>
</svg>
