<?xml version="1.0" encoding="UTF-8" standalone="no"?>
<svg xmlns:xlink="http://www.w3.org/1999/xlink" height="271.1px" width="271.1px" xmlns="http://www.w3.org/2000/svg">
  <g transform="matrix(1.0, 0.0, 0.0, 1.0, 145.3, 327.85)">
    <path d="M-119.95 -271.6 Q-114.2 -279.4 -107.2 -286.55 L-105.6 -288.15 -105.2 -288.55 Q-90.0 -303.7 -72.4 -312.95 L-67.7 -315.3 Q-62.75 -317.7 -57.65 -319.6 L-54.95 -320.55 Q-33.9 -327.85 -9.75 -327.85 3.0 -327.85 14.95 -325.8 25.55 -324.0 35.45 -320.55 41.75 -318.35 47.8 -315.5 L48.95 -314.95 49.0 -314.9 Q65.05 -307.2 79.15 -294.7 L80.9 -293.15 85.7 -288.55 85.8 -286.05 78.7 -288.9 Q80.4 -286.8 79.65 -284.35 L75.8 -286.35 78.3 -282.85 Q73.6 -284.3 71.85 -287.3 L71.45 -288.1 Q71.15 -288.8 71.0 -289.55 L66.5 -289.55 68.2 -288.5 68.2 -287.0 Q62.15 -286.75 58.8 -289.9 L56.75 -288.1 Q57.6 -292.9 53.05 -296.85 L50.45 -295.7 49.15 -297.9 Q41.5 -304.35 38.65 -303.75 L38.65 -299.7 43.9 -299.7 Q48.85 -297.7 49.7 -292.95 L46.55 -292.95 44.05 -289.95 44.05 -285.65 40.9 -283.65 40.9 -280.0 38.8 -280.0 36.15 -283.75 38.55 -274.35 33.6 -283.65 31.75 -276.35 37.85 -270.95 Q25.85 -274.75 22.9 -278.75 19.85 -282.75 26.75 -286.75 L26.75 -290.55 20.2 -284.5 Q17.6 -273.1 24.0 -273.95 L30.0 -270.85 Q25.65 -268.2 22.75 -270.85 22.0 -268.05 19.05 -267.2 L19.05 -273.35 15.8 -267.85 19.2 -263.25 10.7 -258.0 4.4 -266.3 12.45 -262.4 14.7 -266.8 Q4.1 -271.05 1.0 -275.3 L1.0 -273.05 -4.45 -272.0 Q-11.1 -270.35 -11.65 -267.2 L-9.3 -267.2 Q-12.7 -257.5 -19.2 -254.25 L-19.2 -248.85 -15.15 -246.6 Q-13.6 -249.75 -10.9 -246.6 L-10.9 -242.85 -4.4 -242.85 -4.4 -245.6 -7.4 -245.6 Q-10.15 -249.2 -4.25 -250.45 -8.6 -255.65 -4.4 -258.4 -3.8 -264.45 0.5 -261.9 L0.5 -259.1 -2.4 -255.85 Q-3.1 -250.0 7.4 -251.35 L4.9 -249.2 -2.5 -247.4 -2.5 -242.3 Q-4.75 -240.05 -5.65 -238.45 L-8.4 -240.2 Q-9.65 -237.8 -11.05 -237.4 -13.5 -239.45 -13.95 -245.45 -14.55 -241.25 -17.45 -242.05 L-15.15 -236.5 -18.85 -236.5 -20.35 -233.25 -24.6 -229.15 -30.9 -226.25 -25.95 -226.25 Q-24.45 -222.9 -28.6 -219.6 -33.65 -222.55 -35.5 -219.6 L-35.5 -211.95 Q-33.7 -208.1 -27.85 -210.4 L-27.85 -212.1 -23.85 -214.1 -23.85 -217.35 -21.95 -217.35 -20.45 -220.7 -15.55 -218.95 -15.55 -220.7 -12.75 -220.7 -9.0 -223.25 -0.85 -218.25 Q-0.5 -210.3 4.9 -208.95 L3.25 -212.65 3.25 -218.4 10.35 -209.2 19.2 -211.2 21.35 -208.95 18.55 -205.95 Q17.1 -203.2 18.7 -201.8 L9.15 -201.8 Q4.65 -207.45 -0.6 -200.05 L-2.5 -202.05 -9.15 -202.05 Q-12.15 -206.35 -10.8 -210.7 L-13.3 -208.05 Q-15.3 -209.9 -19.2 -208.05 L-21.2 -209.8 Q-27.5 -209.55 -27.7 -207.05 L-33.9 -208.55 -33.9 -206.45 -36.9 -203.95 Q-39.85 -200.8 -39.0 -197.1 L-42.5 -197.1 Q-45.1 -191.5 -48.9 -189.85 -45.7 -181.3 -47.15 -173.85 -43.15 -171.45 -40.95 -169.0 -38.5 -166.15 -38.65 -163.15 L-28.75 -163.15 Q-25.6 -167.0 -19.85 -165.8 L-19.85 -163.45 -10.3 -163.05 -10.3 -159.85 -13.9 -156.95 -12.5 -155.8 -26.4 -144.8 Q-35.4 -138.05 -44.9 -131.6 -62.5 -119.8 -81.85 -109.3 L-81.85 -114.85 Q-83.95 -121.0 -80.05 -123.5 -75.25 -130.65 -73.7 -140.15 L-68.55 -142.55 -68.3 -144.8 Q-68.1 -151.1 -73.35 -152.75 L-83.75 -155.9 Q-93.7 -157.85 -92.6 -162.65 -91.1 -162.7 -99.9 -168.65 L-104.45 -171.7 -105.2 -172.2 -108.6 -174.45 -113.25 -172.95 Q-119.4 -180.75 -128.05 -170.5 L-131.15 -174.85 Q-132.5 -171.9 -134.75 -173.15 L-136.4 -174.55 -136.7 -174.85 -136.7 -180.45 -143.45 -182.45 Q-142.25 -187.55 -138.7 -188.65 -138.1 -189.85 -140.95 -191.4 L-145.3 -190.45 -145.3 -192.3 -145.0 -201.85 -134.8 -201.85 -131.25 -195.25 -128.0 -199.3 Q-128.1 -208.85 -122.25 -209.1 L-117.95 -216.15 -105.2 -225.15 -105.15 -225.2 Q-102.2 -225.0 -102.65 -220.65 -101.05 -221.4 -99.7 -222.1 -93.05 -225.65 -94.3 -227.05 L-99.65 -227.05 -98.15 -231.45 -102.15 -231.45 -98.9 -235.2 Q-94.8 -231.5 -91.3 -233.9 L-89.85 -235.2 Q-85.9 -235.4 -87.85 -232.65 L-90.75 -229.3 -86.1 -226.9 -84.25 -230.15 Q-86.7 -233.6 -84.25 -238.7 L-86.55 -240.9 Q-89.4 -244.65 -88.5 -250.75 -90.8 -246.85 -94.05 -250.75 -92.2 -257.75 -97.9 -254.9 L-104.05 -247.7 -104.05 -243.95 -108.2 -240.7 -112.95 -235.55 -112.95 -241.1 Q-114.5 -241.8 -115.45 -242.45 -117.75 -244.1 -116.7 -245.7 -119.75 -250.35 -114.45 -252.9 L-101.65 -262.0 -101.65 -263.95 -93.25 -267.7 Q-93.75 -273.9 -98.55 -267.7 -100.7 -273.2 -96.3 -279.1 L-100.7 -276.3 Q-100.55 -270.8 -105.2 -268.8 L-106.7 -268.3 -111.6 -270.55 -115.1 -268.2 -119.6 -268.2 -119.95 -271.6 M-107.1 -97.95 Q-124.1 -115.4 -133.55 -136.0 L-136.55 -143.1 Q-140.05 -152.15 -142.1 -161.8 L-142.5 -163.55 -143.75 -170.9 -144.85 -180.4 Q-141.7 -179.05 -139.45 -175.35 -138.55 -173.85 -137.8 -171.95 L-137.6 -171.4 Q-137.0 -170.95 -136.4 -170.65 -133.7 -169.4 -131.15 -171.7 L-128.05 -170.5 Q-134.15 -159.45 -126.85 -148.35 L-124.85 -145.55 Q-122.6 -142.75 -119.45 -139.9 -105.1 -130.0 -105.9 -121.75 L-96.15 -102.35 -107.1 -97.95 M73.5 -292.65 L77.05 -290.3 78.55 -290.9 78.15 -291.4 Q77.45 -292.05 76.35 -292.35 L73.5 -292.65 M74.3 -294.9 L77.85 -294.15 74.55 -296.15 Q70.85 -297.15 69.3 -299.3 64.75 -295.95 71.8 -293.9 L74.3 -294.9 M14.7 -225.65 Q17.15 -230.35 20.85 -230.05 L20.85 -224.5 Q25.5 -223.0 26.65 -219.6 23.7 -217.25 20.2 -217.6 17.3 -219.7 17.55 -220.2 L14.95 -218.1 Q10.35 -217.65 8.8 -219.6 5.9 -233.5 14.7 -225.65 M22.3 -185.9 L17.95 -193.65 17.95 -197.25 20.55 -197.25 25.75 -190.65 22.3 -185.9 M-53.05 -301.05 Q-59.4 -303.25 -66.6 -298.4 L-66.6 -296.05 Q-72.1 -294.25 -72.95 -287.6 L-72.95 -285.2 Q-69.55 -287.6 -67.1 -284.75 L-67.1 -281.85 -68.8 -283.75 -68.8 -279.35 -67.0 -279.35 -67.0 -278.1 -69.15 -275.8 Q-66.2 -275.4 -65.5 -274.15 L-65.35 -273.55 -66.0 -273.4 Q-72.2 -271.8 -71.9 -269.05 L-67.0 -270.55 Q-68.2 -264.5 -73.15 -261.25 -73.55 -248.3 -66.6 -250.1 L-61.25 -259.65 -52.8 -263.7 Q-53.45 -267.5 -45.45 -266.55 -44.4 -269.4 -40.25 -272.3 L-40.25 -277.35 -38.15 -278.85 -38.15 -281.6 Q-39.45 -287.15 -36.0 -284.1 -35.85 -287.6 -38.0 -288.5 L-35.0 -290.05 -35.0 -294.55 -28.7 -303.1 -33.15 -303.1 -36.5 -299.8 -37.4 -302.15 -39.25 -302.15 -41.0 -305.85 -42.55 -303.95 -47.2 -303.95 -51.2 -300.05 -51.2 -303.2 -53.05 -301.05 M-8.4 -296.55 L-11.05 -294.05 Q-15.1 -294.7 -15.3 -291.15 -17.65 -286.75 -12.05 -286.1 L-8.05 -289.0 -5.05 -286.9 Q-3.5 -289.15 -6.3 -292.9 -3.05 -293.5 -1.35 -290.4 L-2.35 -294.4 Q-4.75 -295.95 -8.4 -296.55 M-37.75 -256.75 L-37.75 -260.6 -42.0 -260.6 Q-44.35 -261.7 -45.95 -261.05 L-46.5 -260.8 Q-47.55 -260.25 -48.3 -258.85 L-48.3 -256.5 Q-42.85 -254.75 -37.75 -256.75 M-30.5 -240.45 Q-34.6 -239.9 -38.75 -236.0 L-34.9 -234.0 Q-31.25 -237.2 -30.5 -240.45" fill="#00bbb8" fill-rule="evenodd" stroke="none"/>
    <path d="M85.7 -288.55 L86.1 -288.15 93.65 -280.1 83.45 -263.8 73.9 -249.25 61.05 -230.95 Q41.4 -204.1 25.75 -190.65 L20.55 -197.25 17.95 -197.25 17.95 -193.65 22.3 -185.9 Q5.6 -168.75 -12.5 -155.8 L-13.9 -156.95 -10.3 -159.85 -10.3 -163.05 -19.85 -163.45 -19.85 -165.8 Q-25.6 -167.0 -28.75 -163.15 L-38.65 -163.15 Q-38.5 -166.15 -40.95 -169.0 -43.15 -171.45 -47.15 -173.85 -45.7 -181.3 -48.9 -189.85 -45.1 -191.5 -42.5 -197.1 L-39.0 -197.1 Q-39.85 -200.8 -36.9 -203.95 L-33.9 -206.45 -33.9 -208.55 -27.7 -207.05 Q-27.5 -209.55 -21.2 -209.8 L-19.2 -208.05 Q-15.3 -209.9 -13.3 -208.05 L-10.8 -210.7 Q-12.15 -206.35 -9.15 -202.05 L-2.5 -202.05 -0.6 -200.05 Q4.65 -207.45 9.15 -201.8 L18.7 -201.8 Q17.1 -203.2 18.55 -205.95 L21.35 -208.95 19.2 -211.2 10.35 -209.2 3.25 -218.4 3.25 -212.65 4.9 -208.95 Q-0.5 -210.3 -0.85 -218.25 L-9.0 -223.25 -12.75 -220.7 -15.55 -220.7 -15.55 -218.95 -20.45 -220.7 -21.95 -217.35 -23.85 -217.35 -23.85 -214.1 -27.85 -212.1 -27.85 -210.4 Q-33.7 -208.1 -35.5 -211.95 L-35.5 -219.6 Q-33.65 -222.55 -28.6 -219.6 -24.45 -222.9 -25.95 -226.25 L-30.9 -226.25 -24.6 -229.15 -20.35 -233.25 -18.85 -236.5 -15.15 -236.5 -17.45 -242.05 Q-14.55 -241.25 -13.95 -245.45 -13.5 -239.45 -11.05 -237.4 -9.65 -237.8 -8.4 -240.2 L-5.65 -238.45 Q-4.75 -240.05 -2.5 -242.3 L-2.5 -247.4 4.9 -249.2 7.4 -251.35 Q-3.1 -250.0 -2.4 -255.85 L0.5 -259.1 0.5 -261.9 Q-3.8 -264.45 -4.4 -258.4 -8.6 -255.65 -4.25 -250.45 -10.15 -249.2 -7.4 -245.6 L-4.4 -245.6 -4.4 -242.85 -10.9 -242.85 -10.9 -246.6 Q-13.6 -249.75 -15.15 -246.6 L-19.2 -248.85 -19.2 -254.25 Q-12.7 -257.5 -9.3 -267.2 L-11.65 -267.2 Q-11.1 -270.35 -4.45 -272.0 L1.0 -273.05 1.0 -275.3 Q4.1 -271.05 14.7 -266.8 L12.45 -262.4 4.4 -266.3 10.7 -258.0 19.2 -263.25 15.8 -267.85 19.05 -273.35 19.05 -267.2 Q22.0 -268.05 22.75 -270.85 25.65 -268.2 30.0 -270.85 L24.0 -273.95 Q17.6 -273.1 20.2 -284.5 L26.75 -290.55 26.75 -286.75 Q19.85 -282.75 22.9 -278.75 25.85 -274.75 37.85 -270.95 L31.75 -276.35 33.6 -283.65 38.55 -274.35 36.15 -283.75 38.8 -280.0 40.9 -280.0 40.9 -283.65 44.05 -285.65 44.05 -289.95 46.55 -292.95 49.7 -292.95 Q48.85 -297.7 43.9 -299.7 L38.65 -299.7 38.65 -303.75 Q41.5 -304.35 49.15 -297.9 L50.45 -295.7 53.05 -296.85 Q57.6 -292.9 56.75 -288.1 L58.8 -289.9 Q62.15 -286.75 68.2 -287.0 L68.2 -288.5 66.5 -289.55 71.0 -289.55 Q71.15 -288.8 71.45 -288.1 L71.85 -287.3 Q73.6 -284.3 78.3 -282.85 L75.8 -286.35 79.65 -284.35 Q80.4 -286.8 78.7 -288.9 L85.8 -286.05 85.7 -288.55 M-144.85 -180.4 Q-145.25 -185.35 -145.3 -190.45 L-140.95 -191.4 Q-138.1 -189.85 -138.7 -188.65 -142.25 -187.55 -143.45 -182.45 L-136.7 -180.45 -136.7 -174.85 -136.4 -174.55 -134.75 -173.15 Q-132.5 -171.9 -131.15 -174.85 L-128.05 -170.5 Q-119.4 -180.75 -113.25 -172.95 L-108.6 -174.45 -105.2 -172.2 -104.45 -171.7 -99.9 -168.65 Q-91.1 -162.7 -92.6 -162.65 -93.7 -157.85 -83.75 -155.9 L-73.35 -152.75 Q-68.1 -151.1 -68.3 -144.8 L-68.55 -142.55 -73.7 -140.15 Q-75.25 -130.65 -80.05 -123.5 -83.95 -121.0 -81.85 -114.85 L-81.85 -109.3 -86.6 -109.3 -85.8 -107.9 -96.15 -102.35 -105.9 -121.75 Q-105.1 -130.0 -119.45 -139.9 -122.6 -142.75 -124.85 -145.55 L-126.85 -148.35 Q-134.15 -159.45 -128.05 -170.5 L-131.15 -171.7 Q-133.7 -169.4 -136.4 -170.65 -137.0 -170.95 -137.6 -171.4 L-137.8 -171.95 Q-138.55 -173.85 -139.45 -175.35 -141.7 -179.05 -144.85 -180.4 M-145.0 -201.85 Q-142.6 -240.95 -119.95 -271.6 L-119.6 -268.2 -115.1 -268.2 -111.6 -270.55 -106.7 -268.3 -105.2 -268.8 Q-100.55 -270.8 -100.7 -276.3 L-96.3 -279.1 Q-100.7 -273.2 -98.55 -267.7 -93.75 -273.9 -93.25 -267.7 L-101.65 -263.95 -101.65 -262.0 -114.45 -252.9 Q-119.75 -250.35 -116.7 -245.7 -117.75 -244.1 -115.45 -242.45 -114.5 -241.8 -112.95 -241.1 L-112.95 -235.55 -108.2 -240.7 -104.05 -243.95 -104.05 -247.7 -97.9 -254.9 Q-92.2 -257.75 -94.05 -250.75 -90.8 -246.85 -88.5 -250.75 -89.4 -244.65 -86.55 -240.9 L-84.25 -238.7 Q-86.7 -233.6 -84.25 -230.15 L-86.1 -226.9 -90.75 -229.3 -87.85 -232.65 Q-85.9 -235.4 -89.85 -235.2 L-91.3 -233.9 Q-94.8 -231.5 -98.9 -235.2 L-102.15 -231.45 -98.15 -231.45 -99.65 -227.05 -94.3 -227.05 Q-93.05 -225.65 -99.7 -222.1 -101.05 -221.4 -102.65 -220.65 -102.2 -225.0 -105.15 -225.2 L-105.2 -225.15 -117.95 -216.15 -122.25 -209.1 Q-128.1 -208.85 -128.0 -199.3 L-131.25 -195.25 -134.8 -201.85 -145.0 -201.85 M74.3 -294.9 L71.8 -293.9 Q64.75 -295.95 69.3 -299.3 70.85 -297.15 74.55 -296.15 L77.85 -294.15 74.3 -294.9 M73.5 -292.65 L76.35 -292.35 Q77.45 -292.05 78.15 -291.4 L78.55 -290.9 77.05 -290.3 73.5 -292.65 M14.7 -225.65 Q5.9 -233.5 8.8 -219.6 10.35 -217.65 14.95 -218.1 L17.55 -220.2 Q17.3 -219.7 20.2 -217.6 23.7 -217.25 26.65 -219.6 25.5 -223.0 20.85 -224.5 L20.85 -230.05 Q17.15 -230.35 14.7 -225.65 M-53.05 -301.05 L-51.2 -303.2 -51.2 -300.05 -47.2 -303.95 -42.55 -303.95 -41.0 -305.85 -39.25 -302.15 -37.4 -302.15 -36.5 -299.8 -33.15 -303.1 -28.7 -303.1 -35.0 -294.55 -35.0 -290.05 -38.0 -288.5 Q-35.85 -287.6 -36.0 -284.1 -39.45 -287.15 -38.15 -281.6 L-38.15 -278.85 -40.25 -277.35 -40.25 -272.3 Q-44.4 -269.4 -45.45 -266.55 -53.45 -267.5 -52.8 -263.7 L-61.25 -259.65 -66.6 -250.1 Q-73.55 -248.3 -73.15 -261.25 -68.2 -264.5 -67.0 -270.55 L-71.9 -269.05 Q-72.2 -271.8 -66.0 -273.4 L-65.35 -273.55 -65.5 -274.15 Q-66.2 -275.4 -69.15 -275.8 L-67.0 -278.1 -67.0 -279.35 -68.8 -279.35 -68.8 -283.75 -67.1 -281.85 -67.1 -284.75 Q-69.55 -287.6 -72.95 -285.2 L-72.95 -287.6 Q-72.1 -294.25 -66.6 -296.05 L-66.6 -298.4 Q-59.4 -303.25 -53.05 -301.05 M-8.4 -296.55 Q-4.75 -295.95 -2.35 -294.4 L-1.35 -290.4 Q-3.05 -293.5 -6.3 -292.9 -3.5 -289.15 -5.05 -286.9 L-8.05 -289.0 -12.05 -286.1 Q-17.65 -286.75 -15.3 -291.15 -15.1 -294.7 -11.05 -294.05 L-8.4 -296.55 M-37.75 -256.75 Q-42.85 -254.75 -48.3 -256.5 L-48.3 -258.85 Q-47.55 -260.25 -46.5 -260.8 L-45.95 -261.05 Q-44.35 -261.7 -42.0 -260.6 L-37.75 -260.6 -37.75 -256.75 M-30.5 -240.45 Q-31.25 -237.2 -34.9 -234.0 L-38.75 -236.0 Q-34.6 -239.9 -30.5 -240.45 M-40.8 -191.0 Q-40.8 -191.35 -41.1 -191.45 L-41.25 -191.4 -41.4 -191.15 -41.3 -190.85 -41.1 -190.8 -40.8 -191.0" fill="#006975" fill-rule="evenodd" stroke="none"/>
    <path d="M93.65 -280.1 Q105.15 -266.8 112.55 -251.75 L113.75 -249.25 117.9 -239.3 Q121.6 -229.1 123.6 -218.15 L123.95 -215.95 125.05 -207.5 Q125.7 -201.0 125.8 -194.15 L121.75 -193.95 121.75 -192.55 117.7 -192.55 Q114.85 -190.9 113.75 -189.0 113.15 -188.05 113.05 -187.05 L115.35 -187.75 121.45 -183.5 119.45 -180.1 119.45 -177.2 115.55 -173.95 113.75 -176.1 Q110.25 -180.05 109.0 -179.0 L109.0 -173.5 112.5 -171.4 112.5 -166.1 Q111.5 -164.75 109.8 -165.6 106.95 -169.6 107.5 -175.0 L107.15 -179.75 Q103.65 -181.35 104.2 -184.95 L101.5 -183.45 100.9 -187.5 Q94.25 -197.3 83.95 -184.2 83.8 -174.7 78.45 -171.25 L78.45 -174.8 71.15 -179.95 Q69.4 -182.05 72.65 -184.2 73.25 -186.15 72.45 -187.55 71.8 -188.6 70.4 -189.35 L66.25 -189.35 Q63.5 -198.5 52.2 -194.85 L51.55 -195.25 Q48.35 -197.1 44.95 -197.35 42.6 -201.6 37.8 -201.4 L39.4 -196.85 44.15 -193.75 Q48.6 -195.2 49.85 -193.75 50.35 -193.25 50.35 -192.25 L53.2 -190.1 Q48.85 -186.35 49.1 -182.6 L38.3 -178.05 35.25 -175.7 32.85 -177.6 32.7 -178.4 Q31.05 -186.1 25.75 -186.0 L25.75 -190.65 Q41.4 -204.1 61.05 -230.95 L73.9 -249.25 83.45 -263.8 93.65 -280.1 M112.1 -132.0 L111.85 -131.45 Q107.3 -122.5 101.25 -114.1 98.25 -113.3 96.15 -109.7 L93.25 -112.1 Q96.5 -112.7 99.45 -115.0 L106.5 -129.0 112.1 -132.0 M-72.2 -71.55 Q-77.5 -74.35 -82.65 -77.65 L-90.25 -88.85 Q-96.45 -91.45 -92.95 -96.15 L-96.15 -102.35 -85.8 -107.9 Q-82.95 -102.4 -86.6 -97.25 -83.75 -93.2 -84.5 -89.2 L-80.7 -85.8 -83.35 -85.8 -79.05 -77.4 Q-72.4 -73.75 -72.2 -71.55 M22.3 -185.9 L24.95 -181.25 Q27.3 -178.4 29.9 -175.95 L34.15 -172.25 34.6 -171.9 39.55 -171.9 43.8 -174.1 39.9 -166.55 Q32.8 -162.15 27.35 -154.75 25.65 -152.9 26.4 -147.4 26.55 -146.15 26.85 -144.8 L27.35 -142.55 Q24.3 -133.9 16.55 -128.1 L16.55 -121.85 Q10.7 -119.3 11.05 -113.95 6.45 -112.3 4.75 -108.8 L-1.5 -108.8 -5.05 -119.3 Q-9.65 -127.55 -10.05 -132.4 -10.45 -136.9 -7.45 -138.65 -6.7 -141.7 -8.25 -144.8 -9.3 -146.8 -11.3 -148.85 -9.45 -152.35 -12.5 -155.8 5.6 -168.75 22.3 -185.9 M29.85 -122.2 Q26.35 -124.65 30.0 -127.1 32.15 -131.2 32.1 -137.9 L33.85 -136.15 39.55 -143.0 40.9 -139.65 38.55 -137.9 Q38.6 -130.25 34.85 -124.85 L29.85 -122.2 M-75.3 -83.6 L-73.25 -83.6 -71.85 -85.25 -71.85 -83.25 -70.85 -82.25 -71.55 -80.15 -75.3 -83.6 M-55.95 -79.15 L-58.05 -81.9 -55.95 -81.05 -55.95 -79.15" fill="#004c55" fill-rule="evenodd" stroke="none"/>
    <path d="M125.8 -194.15 L125.8 -192.3 Q125.8 -159.3 112.1 -132.0 L106.5 -129.0 99.45 -115.0 Q96.5 -112.7 93.25 -112.1 L96.15 -109.7 Q98.25 -113.3 101.25 -114.1 94.6 -104.9 86.1 -96.45 46.4 -56.75 -9.75 -56.75 -44.05 -56.75 -72.2 -71.55 -72.4 -73.75 -79.05 -77.4 L-83.35 -85.8 -80.7 -85.8 -84.5 -89.2 Q-83.75 -93.2 -86.6 -97.25 -82.95 -102.4 -85.8 -107.9 L-86.6 -109.3 -81.85 -109.3 Q-62.5 -119.8 -44.9 -131.6 -35.4 -138.05 -26.4 -144.8 L-12.5 -155.8 Q-9.45 -152.35 -11.3 -148.85 -9.3 -146.8 -8.25 -144.8 -6.7 -141.7 -7.45 -138.65 -10.45 -136.9 -10.05 -132.4 -9.65 -127.55 -5.05 -119.3 L-1.5 -108.8 4.75 -108.8 Q6.45 -112.3 11.05 -113.95 10.7 -119.3 16.55 -121.85 L16.55 -128.1 Q24.3 -133.9 27.35 -142.55 L26.85 -144.8 Q26.55 -146.15 26.4 -147.4 25.65 -152.9 27.35 -154.75 32.8 -162.15 39.9 -166.55 L43.8 -174.1 39.55 -171.9 34.6 -171.9 34.15 -172.25 29.9 -175.95 Q27.3 -178.4 24.95 -181.25 L22.3 -185.9 25.75 -190.65 25.75 -186.0 Q31.05 -186.1 32.7 -178.4 L32.85 -177.6 35.25 -175.7 38.3 -178.05 49.1 -182.6 Q48.85 -186.35 53.2 -190.1 L50.35 -192.25 Q50.35 -193.25 49.85 -193.75 48.6 -195.2 44.15 -193.75 L39.4 -196.85 37.8 -201.4 Q42.6 -201.6 44.95 -197.35 48.35 -197.1 51.55 -195.25 L52.2 -194.85 Q63.5 -198.5 66.25 -189.35 L70.4 -189.35 Q71.8 -188.6 72.45 -187.55 73.25 -186.15 72.65 -184.2 69.4 -182.05 71.15 -179.95 L78.45 -174.8 78.45 -171.25 Q83.8 -174.7 83.95 -184.2 94.25 -197.3 100.9 -187.5 L101.5 -183.45 104.2 -184.95 Q103.65 -181.35 107.15 -179.75 L107.5 -175.0 Q106.95 -169.6 109.8 -165.6 111.5 -164.75 112.5 -166.1 L112.5 -171.4 109.0 -173.5 109.0 -179.0 Q110.25 -180.05 113.75 -176.1 L115.55 -173.95 119.45 -177.2 119.45 -180.1 121.45 -183.5 115.35 -187.75 113.05 -187.05 Q113.15 -188.05 113.75 -189.0 114.85 -190.9 117.7 -192.55 L121.75 -192.55 121.75 -193.95 125.8 -194.15 M-82.65 -77.65 Q-94.8 -85.6 -105.6 -96.45 L-107.1 -97.95 -96.15 -102.35 -92.95 -96.15 Q-96.45 -91.45 -90.25 -88.85 L-82.65 -77.65 M29.85 -122.2 L34.85 -124.85 Q38.6 -130.25 38.55 -137.9 L40.9 -139.65 39.55 -143.0 33.85 -136.15 32.1 -137.9 Q32.15 -131.2 30.0 -127.1 26.35 -124.65 29.85 -122.2 M-55.95 -79.15 L-55.95 -81.05 -58.05 -81.9 -55.95 -79.15 M-75.3 -83.6 L-71.55 -80.15 -70.85 -82.25 -71.85 -83.25 -71.85 -85.25 -73.25 -83.6 -75.3 -83.6" fill="#008786" fill-rule="evenodd" stroke="none"/>
    <path d="M-40.8 -191.0 L-41.1 -190.8 -41.3 -190.85 -41.4 -191.15 -41.25 -191.4 -41.1 -191.45 Q-40.8 -191.35 -40.8 -191.0" fill="#006773" fill-rule="evenodd" stroke="none"/>
    <path d="M47.8 -315.5 L48.95 -314.95" fill="none" stroke="#454545" stroke-linecap="round" stroke-linejoin="round" stroke-width="1.0"/>
  </g>
</svg>
