<?xml version="1.0" encoding="UTF-8" standalone="no"?>
<svg xmlns:xlink="http://www.w3.org/1999/xlink" height="230.45px" width="154.0px" xmlns="http://www.w3.org/2000/svg">
  <g transform="matrix(1.0, 0.0, 0.0, 1.0, -28.3, 326.6)">
    <path d="M61.35 -252.7 L59.75 -248.25 57.65 -250.6 56.05 -246.85 53.95 -250.6 52.8 -246.65 50.9 -251.05 49.05 -247.35 50.0 -253.15 Q44.1 -261.85 45.3 -262.7 50.15 -265.2 59.9 -256.3 L60.45 -254.8 61.35 -252.7" fill="#51317c" fill-rule="evenodd" stroke="none"/>
    <path d="M52.8 -246.65 L53.95 -250.6 56.05 -246.85 57.65 -250.6 59.75 -248.25 61.35 -252.7 Q62.1 -249.9 61.65 -245.45 L63.95 -249.45 63.6 -246.2 63.5 -245.45 63.6 -245.6 63.25 -237.55 60.45 -241.3 59.05 -237.1 56.95 -240.6 56.95 -235.2 52.8 -246.65" fill="#cb3d8f" fill-rule="evenodd" stroke="none"/>
    <path d="M61.35 -252.7 L60.45 -254.8 59.9 -256.3 Q57.1 -263.95 61.4 -263.9 70.9 -264.4 74.0 -256.65 75.3 -252.75 80.5 -252.0 L76.3 -251.75 77.5 -248.05 71.65 -251.3 71.65 -245.45 67.9 -249.45 66.75 -245.0 65.85 -249.9 63.6 -245.6 63.6 -246.2 63.95 -249.45 61.65 -245.45 Q62.1 -249.9 61.35 -252.7" fill="#724ea9" fill-rule="evenodd" stroke="none"/>
    <path d="M63.25 -237.55 L63.6 -245.6 65.85 -249.9 66.75 -245.0 67.9 -249.45 71.65 -245.45 71.65 -251.3 77.5 -248.05 Q78.6 -243.0 83.3 -238.0 L80.85 -239.4 78.4 -240.8 78.4 -237.1 75.6 -240.1 74.2 -235.9 70.95 -239.2 69.3 -234.5 66.55 -239.2 63.75 -234.5 63.25 -237.55" fill="#f654a6" fill-rule="evenodd" stroke="none"/>
    <path d="M81.6 -229.45 Q86.1 -222.7 84.6 -215.35 L81.2 -210.75 78.9 -214.0 76.8 -210.05 73.3 -213.1 69.1 -209.15 66.3 -212.6 63.05 -208.2 61.8 -209.35 Q63.8 -210.2 65.4 -211.85 68.8 -215.3 68.8 -220.1 L68.5 -223.0 69.3 -222.2 73.5 -226.35 76.55 -224.05 76.55 -228.7 80.05 -225.9 79.35 -230.35 81.6 -229.45 M49.05 -211.7 L44.15 -207.95 42.3 -211.45 38.55 -207.25 34.85 -211.7 30.65 -208.9 30.65 -211.45 29.5 -209.35 Q28.6 -211.75 28.3 -215.2 27.75 -222.75 40.45 -227.05 L43.7 -225.9 41.6 -223.35 46.7 -225.65 46.7 -225.3 Q45.5 -222.9 45.5 -220.1 45.5 -215.3 48.9 -211.85 L49.05 -211.7 M53.8 -208.9 L52.55 -207.75 51.35 -209.95 Q52.5 -209.25 53.8 -208.9" fill="#fbe644" fill-rule="evenodd" stroke="none"/>
    <path d="M84.6 -215.35 L84.45 -214.7 Q82.45 -205.95 88.45 -197.25 L84.25 -200.5 82.85 -198.2 80.95 -200.5 77.7 -194.7 73.75 -201.2 69.55 -193.75 65.35 -199.8 59.55 -194.0 57.45 -198.9 52.55 -196.1 49.75 -199.8 44.9 -197.4 41.9 -195.85 Q43.25 -198.05 43.0 -200.5 40.75 -203.95 35.3 -204.25 31.2 -204.75 29.5 -209.35 L30.65 -211.45 30.65 -208.9 34.85 -211.7 38.55 -207.25 42.3 -211.45 44.15 -207.95 49.05 -211.7 Q50.1 -210.65 51.35 -209.95 L52.55 -207.75 53.8 -208.9 57.15 -208.45 Q59.7 -208.45 61.8 -209.35 L63.05 -208.2 66.3 -212.6 69.1 -209.15 73.3 -213.1 76.8 -210.05 78.9 -214.0 81.2 -210.75 84.6 -215.35 M138.35 -157.9 L138.35 -157.85 Q139.0 -146.5 140.85 -135.75 L138.05 -137.15 136.2 -135.25 134.1 -139.95 130.85 -133.85 128.95 -137.35 126.4 -131.75 123.85 -136.2 120.1 -131.75 118.0 -136.9 113.8 -132.25 110.55 -137.6 108.25 -133.65 105.7 -137.75 103.8 -132.25 102.1 -136.75 99.95 -136.25 Q88.1 -133.55 76.3 -133.85 L74.45 -129.9 72.6 -134.8 67.25 -129.9 64.45 -135.25 61.15 -130.6 58.15 -135.5 56.25 -131.75 54.65 -136.2 50.2 -131.75 48.1 -136.2 46.25 -132.45 44.15 -136.2 42.3 -134.35 40.45 -132.45 Q42.8 -136.3 42.05 -140.15 38.1 -145.6 37.1 -151.45 L38.55 -152.75 40.9 -148.55 44.85 -154.35 47.9 -147.6 51.4 -153.2 56.75 -146.0 63.25 -153.2 70.25 -147.6 76.55 -154.15 84.45 -148.3 87.95 -155.05 92.4 -148.3 98.0 -154.85 102.65 -149.0 108.95 -154.35 112.9 -147.4 116.15 -154.35 122.0 -152.3 123.85 -157.85 127.55 -153.9 129.45 -161.85 133.85 -157.15 135.05 -161.6 138.35 -157.9" fill="#f555a1" fill-rule="evenodd" stroke="none"/>
    <path d="M56.95 -235.2 L56.95 -240.6 59.05 -237.1 60.45 -241.3 63.25 -237.55 63.75 -234.5 66.55 -239.2 69.3 -234.5 70.95 -239.2 74.2 -235.9 75.6 -240.1 78.4 -237.1 78.4 -240.8 80.85 -239.4 Q78.75 -233.35 84.7 -228.25 L81.6 -229.45 79.35 -230.35 80.05 -225.9 76.55 -228.7 76.55 -224.05 73.5 -226.35 69.3 -222.2 68.5 -223.0 Q67.7 -226.0 65.4 -228.35 62.3 -231.45 58.0 -231.75 L57.15 -231.75 56.3 -231.75 Q52.05 -231.45 48.9 -228.35 47.55 -226.95 46.7 -225.3 L46.7 -225.65 41.6 -223.35 43.7 -225.9 40.45 -227.05 Q49.35 -228.95 55.1 -233.15 L56.95 -235.2 M100.55 -118.25 L96.35 -116.15 Q101.1 -124.35 99.95 -136.25 L102.1 -136.75 103.8 -132.25 105.7 -137.75 108.25 -133.65 110.55 -137.6 113.8 -132.25 Q114.65 -124.15 112.65 -116.45 L111.75 -119.9 109.65 -115.7 105.65 -119.4 104.05 -115.45 100.55 -118.25 M41.75 -118.1 L40.2 -117.1 Q43.55 -125.4 42.3 -134.35 L44.15 -136.2 46.25 -132.45 48.1 -136.2 50.2 -131.75 Q51.35 -124.2 50.75 -117.15 L48.6 -119.2 45.3 -116.85 43.25 -119.2 41.75 -118.1" fill="#187435" fill-rule="evenodd" stroke="none"/>
    <path d="M56.85 -230.35 Q53.1 -230.35 50.35 -227.65 48.7 -225.9 48.1 -223.75 47.75 -222.6 47.75 -221.25 47.75 -217.45 50.35 -214.75 53.1 -212.1 56.85 -212.1 L57.35 -212.1 58.75 -212.3 Q61.25 -212.8 63.2 -214.75 65.9 -217.45 65.9 -221.25 65.9 -222.85 65.45 -224.2 64.75 -226.1 63.2 -227.65 60.55 -230.35 56.85 -230.35 M46.7 -225.3 Q47.55 -226.95 48.9 -228.35 52.05 -231.45 56.3 -231.75 L57.15 -231.75 58.0 -231.75 Q62.3 -231.45 65.4 -228.35 67.7 -226.0 68.5 -223.0 L68.8 -220.1 Q68.8 -215.3 65.4 -211.85 63.8 -210.2 61.8 -209.35 59.7 -208.45 57.15 -208.45 L53.8 -208.9 Q52.5 -209.25 51.35 -209.95 50.1 -210.65 49.05 -211.7 L48.9 -211.85 Q45.5 -215.3 45.5 -220.1 45.5 -222.9 46.7 -225.3 M55.55 -227.0 Q56.45 -226.05 56.45 -224.7 L56.4 -224.05 Q56.25 -223.1 55.55 -222.4 54.6 -221.5 53.2 -221.5 51.9 -221.5 50.9 -222.4 50.0 -223.4 50.0 -224.7 L50.1 -225.45 Q50.25 -226.3 50.9 -227.0 51.9 -227.95 53.2 -227.95 54.6 -227.95 55.55 -227.0" fill="#ffffff" fill-rule="evenodd" stroke="none"/>
    <path d="M56.85 -230.35 Q60.55 -230.35 63.2 -227.65 64.75 -226.1 65.45 -224.2 65.9 -222.85 65.9 -221.25 65.9 -217.45 63.2 -214.75 61.25 -212.8 58.75 -212.3 L57.35 -212.1 56.85 -212.1 Q53.1 -212.1 50.35 -214.75 47.75 -217.45 47.75 -221.25 47.75 -222.6 48.1 -223.75 48.7 -225.9 50.35 -227.65 53.1 -230.35 56.85 -230.35 M55.55 -227.0 Q54.6 -227.95 53.2 -227.95 51.9 -227.95 50.9 -227.0 50.25 -226.3 50.1 -225.45 L50.0 -224.7 Q50.0 -223.4 50.9 -222.4 51.9 -221.5 53.2 -221.5 54.6 -221.5 55.55 -222.4 56.25 -223.1 56.4 -224.05 L56.45 -224.7 Q56.45 -226.05 55.55 -227.0" fill="#285e8e" fill-rule="evenodd" stroke="none"/>
    <path d="M82.85 -198.2 Q80.85 -190.7 85.65 -183.25 L80.75 -187.0 80.25 -183.25 79.8 -179.55 76.3 -186.55 72.6 -182.1 70.5 -186.55 65.35 -181.15 61.4 -184.65 55.8 -180.45 54.2 -185.85 50.7 -181.65 47.65 -186.3 44.6 -181.4 43.0 -184.65 41.7 -183.45 40.45 -182.35 44.15 -190.7 44.9 -197.4 49.75 -199.8 52.55 -196.1 57.45 -198.9 59.55 -194.0 65.35 -199.8 69.55 -193.75 73.75 -201.2 77.7 -194.7 80.95 -200.5 82.85 -198.2" fill="#47a3c5" fill-rule="evenodd" stroke="none"/>
    <path d="M80.25 -183.25 Q83.5 -181.45 89.35 -181.65 L95.8 -182.55 111.05 -184.65 Q120.85 -187.25 129.2 -182.1 L130.95 -180.45 Q133.55 -177.8 134.85 -175.0 L135.35 -173.6 127.8 -177.9 127.8 -172.3 122.7 -176.95 120.1 -170.45 112.9 -174.9 110.1 -170.2 104.95 -173.5 100.1 -166.95 91.7 -170.7 88.45 -165.3 82.85 -168.8 78.4 -163.7 72.8 -169.75 66.75 -162.55 61.4 -171.4 54.4 -164.85 50.2 -170.7 46.25 -165.1 44.15 -171.6 39.75 -167.65 39.75 -172.3 36.7 -168.8 41.7 -183.45 43.0 -184.65 44.6 -181.4 47.65 -186.3 50.7 -181.65 54.2 -185.85 55.8 -180.45 61.4 -184.65 65.35 -181.15 70.5 -186.55 72.6 -182.1 76.3 -186.55 79.8 -179.55 80.25 -183.25" fill="#fae34c" fill-rule="evenodd" stroke="none"/>
    <path d="M135.35 -173.6 L134.85 -175.0 Q143.0 -177.2 148.6 -176.95 155.15 -176.65 158.2 -173.0 L158.35 -172.85 158.6 -172.55 Q164.0 -166.0 165.15 -154.7 L165.4 -149.6 165.4 -148.75 165.3 -145.75 Q165.35 -144.05 165.85 -142.65 167.4 -137.95 173.95 -136.65 179.05 -135.65 180.9 -143.8 182.4 -138.0 179.05 -134.35 173.85 -130.4 166.25 -134.35 L165.2 -135.15 Q161.95 -137.8 160.85 -141.4 160.2 -143.4 160.2 -145.75 L160.15 -146.55 159.9 -149.3 159.3 -154.6 159.3 -154.7 Q157.55 -166.7 153.45 -169.75 151.65 -171.15 148.95 -171.8 L140.5 -172.3 135.95 -171.85 135.35 -173.6" fill="#49a7c7" fill-rule="evenodd" stroke="none"/>
    <path d="M37.1 -151.45 L33.45 -148.3 39.75 -167.65 44.15 -171.6 46.25 -165.1 50.2 -170.7 54.4 -164.85 61.4 -171.4 66.75 -162.55 72.8 -169.75 78.4 -163.7 82.85 -168.8 88.45 -165.3 91.7 -170.7 100.1 -166.95 104.95 -173.5 110.1 -170.2 112.9 -174.9 120.1 -170.45 122.7 -176.95 127.8 -172.3 127.8 -177.9 135.35 -173.6 135.95 -171.85 136.45 -170.3 138.05 -165.55 138.1 -163.65 138.1 -163.55 138.35 -157.9 135.05 -161.6 133.85 -157.15 129.45 -161.85 127.55 -153.9 123.85 -157.85 122.0 -152.3 116.15 -154.35 112.9 -147.4 108.95 -154.35 102.65 -149.0 98.0 -154.85 92.4 -148.3 87.95 -155.05 84.45 -148.3 76.55 -154.15 70.25 -147.6 63.25 -153.2 56.75 -146.0 51.4 -153.2 47.9 -147.6 44.85 -154.35 40.9 -148.55 38.55 -152.75 37.1 -151.45" fill="#774e9e" fill-rule="evenodd" stroke="none"/>
    <path d="M134.85 -175.0 Q133.55 -177.8 130.95 -180.45 142.35 -184.25 148.6 -176.95 143.0 -177.2 134.85 -175.0 M165.2 -135.15 Q164.7 -130.95 160.65 -128.5 160.65 -132.4 158.35 -135.5 L148.3 -142.25 Q140.25 -148.85 144.05 -157.3 146.35 -156.45 149.15 -154.8 146.95 -149.7 153.75 -146.25 L154.75 -145.55 Q157.75 -144.7 160.85 -141.4 161.95 -137.8 165.2 -135.15 M140.5 -172.3 L148.95 -171.8 Q150.8 -167.45 149.45 -163.2 L144.45 -166.75 Q145.45 -171.3 140.5 -172.3" fill="#eb5996" fill-rule="evenodd" stroke="none"/>
    <path d="M165.4 -148.75 Q170.45 -144.75 177.0 -149.15 181.4 -152.05 176.9 -159.15 182.1 -156.1 182.3 -151.1 181.45 -144.65 173.25 -142.05 169.2 -141.35 165.85 -142.65 165.35 -144.05 165.3 -145.75 L165.4 -148.75 M144.05 -157.3 Q141.2 -158.35 139.15 -158.05 L138.35 -157.9 138.1 -163.55 138.1 -163.65 138.05 -165.55 136.45 -170.3 Q140.45 -169.25 144.45 -166.75 L149.45 -163.2 154.95 -158.05 156.1 -156.85 Q157.55 -155.45 159.1 -154.8 L159.3 -154.6 159.9 -149.3 160.15 -146.55 Q153.9 -151.9 149.15 -154.8 146.35 -156.45 144.05 -157.3" fill="#6d549e" fill-rule="evenodd" stroke="none"/>
    <path d="M138.05 -137.15 Q135.15 -124.35 140.6 -113.35 L136.2 -116.85 135.35 -114.5 134.55 -112.2 132.95 -116.15 130.15 -110.55 126.65 -115.45 122.7 -110.1 118.95 -114.3 116.85 -110.35 114.5 -113.35 112.75 -112.45 111.05 -111.5 112.65 -116.45 Q114.65 -124.15 113.8 -132.25 L118.0 -136.9 120.1 -131.75 123.85 -136.2 126.4 -131.75 128.95 -137.35 130.85 -133.85 134.1 -139.95 136.2 -135.25 138.05 -137.15 M74.45 -129.9 Q72.7 -119.6 78.2 -111.95 L73.3 -114.75 71.9 -113.0 69.3 -109.85 65.6 -113.85 61.4 -109.15 58.85 -114.55 54.65 -111.05 53.0 -114.75 52.35 -114.35 50.2 -113.15 50.75 -117.15 Q51.35 -124.2 50.2 -131.75 L54.65 -136.2 56.25 -131.75 58.15 -135.5 61.15 -130.6 64.45 -135.25 67.25 -129.9 72.6 -134.8 74.45 -129.9" fill="#209a47" fill-rule="evenodd" stroke="none"/>
    <path d="M135.35 -114.5 Q138.15 -98.2 126.85 -98.2 117.25 -97.35 114.15 -102.95 112.2 -106.4 112.75 -112.45 L114.5 -113.35 116.85 -110.35 118.95 -114.3 122.7 -110.1 126.65 -115.45 130.15 -110.55 132.95 -116.15 134.55 -112.2 135.35 -114.5 M71.9 -113.0 Q76.35 -96.15 62.55 -96.15 53.55 -95.8 51.9 -103.45 50.95 -107.7 52.35 -114.35 L53.0 -114.75 54.65 -111.05 58.85 -114.55 61.4 -109.15 65.6 -113.85 69.3 -109.85 71.9 -113.0" fill="#fce055" fill-rule="evenodd" stroke="none"/>
    <path d="M114.15 -102.95 Q98.35 -101.95 100.55 -118.25 L104.05 -115.45 105.65 -119.4 109.65 -115.7 111.75 -119.9 112.65 -116.45 111.05 -111.5 112.75 -112.45 Q112.2 -106.4 114.15 -102.95 M51.9 -103.45 Q38.75 -103.45 41.75 -118.1 L43.25 -119.2 45.3 -116.85 48.6 -119.2 50.75 -117.15 50.2 -113.15 52.35 -114.35 Q50.95 -107.7 51.9 -103.45" fill="#c7ba38" fill-rule="evenodd" stroke="none"/>
    <path d="M95.8 -182.55 Q99.15 -270.55 87.25 -326.1" fill="none" stroke="#999999" stroke-linecap="round" stroke-linejoin="round" stroke-width="1.0"/>
  </g>
</svg>
