<?xml version="1.0" encoding="UTF-8" standalone="no"?>
<svg xmlns:xlink="http://www.w3.org/1999/xlink" height="28.6px" width="44.0px" xmlns="http://www.w3.org/2000/svg">
  <g transform="matrix(1.0, 0.0, 0.0, 1.0, 22.0, 14.3)">
    <path d="M-20.4 -0.55 Q-21.35 -1.6 -21.85 -2.9 -22.6 -6.5 -18.85 -9.45 -13.5 -14.05 -3.9 -14.3 10.85 -13.05 17.5 -9.65 24.85 -5.2 20.15 4.95 14.95 12.6 4.1 14.1 -9.1 15.1 -16.0 10.65 -22.5 5.75 -20.4 -0.55 M-18.65 -4.65 Q-18.65 -0.65 -13.0 -3.55 -4.7 -7.2 7.35 -10.15 2.15 -11.8 -8.5 -10.15 -16.55 -8.9 -18.65 -4.65" fill="#3a595a" fill-rule="evenodd" stroke="none"/>
  </g>
</svg>
