<?xml version="1.0" encoding="UTF-8" standalone="no"?>
<svg xmlns:xlink="http://www.w3.org/1999/xlink" height="38.6px" width="23.75px" xmlns="http://www.w3.org/2000/svg">
  <g transform="matrix(1.0, 0.0, 0.0, 1.0, 11.85, 19.3)">
    <path d="M1.55 -19.15 L3.55 -19.3 Q4.6 -19.45 7.3 -18.6 9.95 -17.75 11.7 -16.05 12.05 -15.8 11.8 -15.8 L11.0 -12.55 8.45 -5.1 8.0 -3.95 Q5.3 2.65 4.45 7.15 4.0 9.5 3.85 12.6 3.7 15.8 -0.95 18.35 -5.45 20.85 -9.85 16.9 -14.2 12.9 -9.15 6.5 -8.35 5.4 -6.05 0.85 -2.2 -7.85 1.1 -18.35 L1.55 -19.15" fill="#fff1e0" fill-rule="evenodd" stroke="none"/>
  </g>
</svg>
