<?xml version="1.0" encoding="UTF-8" standalone="no"?>
<svg xmlns:xlink="http://www.w3.org/1999/xlink" height="20.8px" width="20.45px" xmlns="http://www.w3.org/2000/svg">
  <g transform="matrix(1.0, 0.0, 0.0, 1.0, 10.25, 10.4)">
    <path d="M8.15 0.8 Q9.05 1.95 9.2 2.7 L8.7 3.2 8.5 2.65 Q4.9 2.4 2.8 3.95 2.75 6.35 3.35 7.8 0.75 9.8 -4.45 9.3 -5.2 8.0 -5.3 6.55 -5.5 3.75 -7.0 -0.85 L-7.7 -1.2 Q-9.25 -3.85 -9.25 -5.7 -7.0 -5.8 -2.9 -6.85 1.2 -7.9 2.55 -9.4 4.35 -7.5 4.45 -5.6 L4.1 -3.85 4.5 -4.1 8.15 0.8 M8.5 2.65 L8.3 2.2 M8.5 2.65 L9.2 2.7 M4.1 -3.85 Q-0.75 -0.85 -7.05 -0.9 L-7.0 -0.85" fill="none" stroke="#000000" stroke-linecap="round" stroke-linejoin="round" stroke-width="2.0"/>
  </g>
</svg>
