<?xml version="1.0" encoding="UTF-8" standalone="no"?>
<svg xmlns:xlink="http://www.w3.org/1999/xlink" height="38.6px" width="26.6px" xmlns="http://www.w3.org/2000/svg">
  <g transform="matrix(1.0, 0.0, 0.0, 1.0, 13.3, 19.3)">
    <path d="M13.2 -15.8 L12.4 -12.55 9.85 -5.1 7.5 0.75 6.9 2.3 Q5.6 5.6 5.2 7.65 4.7 10.1 4.75 10.5 L4.6 12.1 Q4.15 15.55 1.65 17.9 -0.85 20.25 -5.9 18.7 -9.55 19.15 -10.05 17.35 -10.55 15.5 -9.05 12.35 -12.0 13.3 -13.0 11.4 -13.95 9.45 -12.0 7.9 -10.0 6.3 -7.7 5.3 -5.95 4.55 -4.8 2.3 L-4.15 0.7 Q-0.55 -8.65 2.5 -18.35 L2.95 -19.15 4.95 -19.3 Q6.0 -19.45 8.7 -18.6 11.35 -17.75 13.1 -16.05 13.45 -15.8 13.2 -15.8" fill="#fff1e0" fill-rule="evenodd" stroke="none"/>
  </g>
</svg>
