<?xml version="1.0" encoding="UTF-8" standalone="no"?>
<svg xmlns:xlink="http://www.w3.org/1999/xlink" height="20.65px" width="21.85px" xmlns="http://www.w3.org/2000/svg">
  <g transform="matrix(1.0, 0.0, 0.0, 1.0, 10.95, 10.3)">
    <path d="M-5.7 2.4 Q-8.65 3.35 -9.65 1.45 -10.6 -0.5 -8.65 -2.05 -6.65 -3.65 -4.35 -4.65 -3.6 -4.95 -2.9 -5.9 -2.8 -7.6 -1.3 -9.3 2.8 -6.15 9.85 -6.25 10.05 -4.45 8.7 -2.95 L8.55 -2.3 Q8.05 0.15 8.1 0.55 L7.95 2.15 Q7.5 5.6 5.0 7.95 2.5 10.3 -2.55 8.75 -6.2 9.2 -6.7 7.4 -7.2 5.55 -5.7 2.4 L-5.3 1.7" fill="none" stroke="#000000" stroke-linecap="round" stroke-linejoin="round" stroke-width="2.0"/>
    <path d="M-2.9 -5.9 Q2.05 -2.05 8.7 -2.95" fill="none" stroke="#000000" stroke-linecap="round" stroke-linejoin="round" stroke-width="1.0"/>
  </g>
</svg>
