<?xml version="1.0" encoding="UTF-8" standalone="no"?>
<svg xmlns:xlink="http://www.w3.org/1999/xlink" height="24.75px" width="21.95px" xmlns="http://www.w3.org/2000/svg">
  <g transform="matrix(1.0, 0.0, 0.0, 1.0, 10.95, 12.4)">
    <path d="M-8.65 6.25 L-8.25 5.35 -4.85 -2.15 -2.85 -7.8 -1.4 -11.4 Q-1.0 -10.3 3.15 -8.65 7.35 -7.05 10.0 -7.95 L10.0 -7.9 8.7 -4.15 5.15 4.7 3.65 8.2 3.2 9.6 2.9 11.35 Q-1.4 7.15 -9.95 8.0 L-8.65 6.25" fill="none" stroke="#000000" stroke-linecap="round" stroke-linejoin="round" stroke-width="2.0"/>
    <path d="M8.7 -4.15 Q7.2 -3.55 1.8 -4.95 -2.35 -6.2 -2.85 -7.8 M3.65 8.2 Q2.1 6.3 -1.25 5.1 L-8.25 5.35" fill="none" stroke="#000000" stroke-linecap="round" stroke-linejoin="round" stroke-width="1.0"/>
  </g>
</svg>
