<?xml version="1.0" encoding="UTF-8" standalone="no"?>
<svg xmlns:xlink="http://www.w3.org/1999/xlink" height="22.9px" width="23.75px" xmlns="http://www.w3.org/2000/svg">
  <g transform="matrix(1.0, 0.0, 0.0, 1.0, 11.85, 11.45)">
    <path d="M-6.6 3.5 Q-9.55 4.45 -10.55 2.55 -11.5 0.6 -9.55 -0.95 -7.55 -2.55 -5.25 -3.55 -4.5 -3.85 -4.2 -4.95 -3.7 -6.5 -2.95 -10.45 -0.8 -9.85 3.45 -7.7 7.9 -5.45 10.9 -5.95 L8.6 -2.1 Q7.9 -1.3 7.6 0.05 L7.25 1.75 7.05 3.25 Q6.6 6.7 4.1 9.05 1.6 11.4 -3.45 9.85 -7.1 10.3 -7.6 8.5 -8.1 6.65 -6.6 3.5 L-6.2 2.8" fill="none" stroke="#000000" stroke-linecap="round" stroke-linejoin="round" stroke-width="2.0"/>
    <path d="M0.55 -1.7 Q-1.2 -3.3 -1.25 -5.1 1.45 -2.75 5.75 -1.7" fill="none" stroke="#000000" stroke-linecap="round" stroke-linejoin="round" stroke-opacity="0.29803923" stroke-width="1.0"/>
  </g>
</svg>
