<?xml version="1.0" encoding="UTF-8" standalone="no"?>
<svg xmlns:xlink="http://www.w3.org/1999/xlink" height="16.85px" width="18.15px" xmlns="http://www.w3.org/2000/svg">
  <g transform="matrix(1.0, 0.0, 0.0, 1.0, 9.05, 8.45)">
    <path d="M-8.05 1.9 L-6.65 -0.35 -4.55 -3.7 -4.4 -4.05 Q-4.85 -5.35 -3.25 -7.45 1.4 -4.95 8.0 -4.4 8.4 -1.9 6.95 -0.6 L6.65 1.1 Q6.15 3.1 5.95 4.8 5.75 6.3 5.25 7.4 M-3.2 6.9 Q-1.95 6.05 -1.45 3.1 L-0.35 2.0" fill="none" stroke="#000000" stroke-linecap="round" stroke-linejoin="round" stroke-width="2.0"/>
    <path d="M5.25 7.4 L-3.2 6.9 M-0.35 2.0 Q-3.75 0.0 -7.0 1.75 M-4.4 -4.05 Q-2.05 -1.6 6.95 -0.6 M-0.35 2.0 L0.0 2.0" fill="none" stroke="#000000" stroke-linecap="round" stroke-linejoin="round" stroke-width="1.0"/>
  </g>
</svg>
