<?xml version="1.0" encoding="UTF-8" standalone="no"?>
<svg xmlns:xlink="http://www.w3.org/1999/xlink" height="28.6px" width="25.05px" xmlns="http://www.w3.org/2000/svg">
  <g transform="matrix(1.0, 0.0, 0.0, 1.0, 12.5, 14.3)">
    <path d="M-4.6 10.2 Q-5.95 11.85 -7.3 12.7 -8.6 13.5 -10.35 13.25 -12.05 12.95 -11.25 10.85 L-9.35 6.45 -7.6 2.85 -5.85 0.05 -3.75 -3.3 -3.55 -3.6 -1.25 -9.85 Q-1.7 -11.15 -0.4 -13.3 4.55 -10.75 11.55 -10.2 11.55 -7.7 10.1 -6.4 L7.75 -0.15 7.45 1.5 Q6.95 3.5 6.75 5.2 6.3 8.75 3.85 10.15 1.4 11.5 -0.8 11.5 -2.95 11.5 -4.6 10.2 L-3.1 8.25 M0.6 2.25 L-0.65 3.5 Q-1.5 8.4 -4.45 7.5 -7.35 6.55 -6.2 2.1" fill="none" stroke="#000000" stroke-linecap="round" stroke-linejoin="round" stroke-width="2.0"/>
    <path d="M-1.25 -9.85 Q1.1 -7.4 10.1 -6.4" fill="none" stroke="#000000" stroke-linecap="round" stroke-linejoin="round" stroke-width="1.0"/>
  </g>
</svg>
