<?xml version="1.0" encoding="UTF-8" standalone="no"?>
<svg xmlns:xlink="http://www.w3.org/1999/xlink" height="23.1px" width="20.8px" xmlns="http://www.w3.org/2000/svg">
  <g transform="matrix(1.0, 0.0, 0.0, 1.0, 10.4, 11.6)">
    <path d="M-9.4 4.95 L-8.0 2.75 -5.9 -0.6 -5.75 -0.95 -3.4 -7.15 Q-3.85 -8.45 -2.55 -10.6 2.4 -8.05 9.4 -7.5 9.4 -5.0 7.95 -3.7 L5.6 2.5 5.3 4.2 Q4.8 6.2 4.6 7.9 L3.9 10.5 M-4.55 10.0 Q-3.3 9.15 -2.8 6.2 L-1.7 5.1" fill="none" stroke="#000000" stroke-linecap="round" stroke-linejoin="round" stroke-width="2.0"/>
    <path d="M3.9 10.5 L-4.55 10.0 M-1.7 5.1 Q-5.1 3.1 -8.35 4.85 M-3.4 -7.15 Q-1.05 -4.7 7.95 -3.7" fill="none" stroke="#000000" stroke-linecap="round" stroke-linejoin="round" stroke-width="1.0"/>
  </g>
</svg>
