<?xml version="1.0" encoding="UTF-8" standalone="no"?>
<svg xmlns:xlink="http://www.w3.org/1999/xlink" height="27.3px" width="24.65px" xmlns="http://www.w3.org/2000/svg">
  <g transform="matrix(1.0, 0.0, 0.0, 1.0, 12.3, 13.65)">
    <path d="M-3.2 -4.5 L-1.7 -8.35 -0.2 -12.65 Q5.3 -9.85 11.35 -10.0 L9.5 -5.65 8.25 -1.95 8.1 -1.4 7.65 0.85 7.4 2.05 6.95 4.55 6.65 6.0 Q5.95 8.4 4.05 9.5 1.6 10.85 -0.6 10.85 -2.75 10.85 -4.4 9.55 -5.75 11.2 -7.1 12.05 -8.4 12.85 -10.15 12.6 -11.85 12.3 -11.05 10.2 L-9.15 5.8 -7.95 3.2 -7.4 2.2 -5.65 -0.6 -4.95 -1.65 -3.55 -3.95 -3.4 -4.3 M0.7 1.75 L-0.45 2.85 -1.0 4.95 Q-2.05 7.55 -4.25 6.85 -6.1 6.25 -6.3 4.2 L-6.25 2.75 -6.0 1.45 M-2.9 7.6 L-4.4 9.55" fill="none" stroke="#000000" stroke-linecap="round" stroke-linejoin="round" stroke-width="2.0"/>
    <path d="M7.4 2.05 L7.65 2.1 M-3.4 -4.3 L-3.2 -4.5 M-6.3 4.2 L-7.95 3.2" fill="none" stroke="#000000" stroke-linecap="round" stroke-linejoin="round" stroke-width="1.0"/>
  </g>
</svg>
