<?xml version="1.0" encoding="UTF-8" standalone="no"?>
<svg xmlns:xlink="http://www.w3.org/1999/xlink" height="19.4px" width="19.1px" xmlns="http://www.w3.org/2000/svg">
  <g transform="matrix(1.0, 0.0, 0.0, 1.0, 9.55, 9.7)">
    <path d="M-3.5 -5.4 L-2.0 -9.7 Q3.5 -6.9 9.55 -7.05 L7.7 -2.7 6.45 1.0 6.3 1.55 5.85 3.8 5.6 5.0 5.15 7.5 4.85 8.95 Q-1.9 10.9 -2.8 7.9 -2.45 7.0 -2.25 5.8 L-1.7 5.25 Q-5.05 3.6 -8.05 5.7 L-8.05 5.8 -9.55 5.8 -9.2 5.15 -7.45 2.35 -6.75 1.3 -5.35 -1.0 -5.2 -1.35 -5.0 -1.55 -3.5 -5.4" fill="#dbdbdb" fill-rule="evenodd" stroke="none"/>
  </g>
</svg>
