<?xml version="1.0" encoding="UTF-8" standalone="no"?>
<svg xmlns:xlink="http://www.w3.org/1999/xlink" height="19.05px" width="20.6px" xmlns="http://www.w3.org/2000/svg">
  <g transform="matrix(1.0, 0.0, 0.0, 1.0, 10.3, 9.55)">
    <path d="M-3.5 7.3 L-4.7 7.4 -4.7 7.45 Q-7.0 5.2 -9.3 4.75 L-7.65 1.6 -5.25 -1.95 Q-4.8 -2.55 -3.55 -5.3 -3.85 -6.3 -2.35 -8.55 2.65 -5.65 9.2 -5.55 9.45 -3.95 9.1 -3.1 8.75 -2.3 7.95 -1.85 L7.35 2.85 6.95 4.55 Q3.95 4.15 2.0 5.1 1.3 6.2 1.05 8.0 L1.0 7.95 0.85 8.5 Q-1.45 7.6 -3.7 7.9 L-3.5 7.3 -3.0 6.7 M0.7 0.7 L-0.55 1.95 -0.55 2.0 Q-1.25 6.95 -3.95 6.25 -6.6 5.5 -6.1 0.6 -3.5 -0.15 -0.55 2.0" fill="none" stroke="#000000" stroke-linecap="round" stroke-linejoin="round" stroke-width="2.0"/>
    <path d="M-3.55 -5.3 Q0.6 -1.75 7.95 -1.85" fill="none" stroke="#000000" stroke-linecap="round" stroke-linejoin="round" stroke-width="1.0"/>
  </g>
</svg>
