<?xml version="1.0" encoding="UTF-8" standalone="no"?>
<svg xmlns:xlink="http://www.w3.org/1999/xlink" height="25.65px" width="22.05px" xmlns="http://www.w3.org/2000/svg">
  <g transform="matrix(1.0, 0.0, 0.0, 1.0, 11.0, 12.85)">
    <path d="M11.05 -9.5 L9.05 -3.95 8.45 0.7 Q8.3 2.7 6.6 4.7 4.85 6.7 2.1 5.8 0.4 11.75 -1.55 12.45 -3.5 13.15 -4.35 12.45 -4.6 11.1 -2.4 5.15 L-3.6 5.25 Q-5.95 8.45 -7.35 9.4 -8.8 10.35 -10.15 9.75 -11.55 9.1 -10.65 7.3 L-8.45 3.05 -6.55 -0.55 -4.15 -4.1 Q-3.7 -4.7 -2.45 -7.45 L-2.4 -7.45 -0.35 -12.85 Q3.75 -9.4 11.05 -9.5" fill="#434343" fill-rule="evenodd" stroke="none"/>
  </g>
</svg>
