<?xml version="1.0" encoding="UTF-8" standalone="no"?>
<svg xmlns:xlink="http://www.w3.org/1999/xlink" height="31.0px" width="25.4px" xmlns="http://www.w3.org/2000/svg">
  <g transform="matrix(1.0, 0.0, 0.0, 1.0, 12.7, 15.5)">
    <path d="M-1.15 -11.25 Q-1.45 -12.25 0.05 -14.5 5.05 -11.6 11.6 -11.5 11.85 -9.9 11.5 -9.05 11.15 -8.25 10.35 -7.8 L8.35 -2.25 Q7.85 0.45 7.75 2.4 7.6 4.4 5.9 6.4 4.15 8.4 1.4 7.5 -0.3 13.45 -2.25 14.15 -4.2 14.85 -5.05 14.15 -5.3 12.8 -3.1 6.85 L-4.3 6.95 Q-6.65 10.15 -8.05 11.1 -9.5 12.05 -10.85 11.45 -12.25 10.8 -11.35 9.0 L-9.15 4.75 -7.25 1.15 -4.85 -2.4 Q-4.4 -3.0 -3.15 -5.75 M-3.1 -5.75 L-1.05 -11.15 M-2.6 6.25 L-3.1 6.85 M1.1 0.25 L-0.15 1.5 Q-0.85 6.5 -3.55 5.8 -6.2 5.05 -5.7 0.1" fill="none" stroke="#000000" stroke-linecap="round" stroke-linejoin="round" stroke-width="2.0"/>
    <path d="M-3.15 -5.75 L-3.1 -5.75 M-1.05 -11.15 L-1.15 -11.25 M-1.05 -11.15 Q3.05 -7.7 10.35 -7.8" fill="none" stroke="#000000" stroke-linecap="round" stroke-linejoin="round" stroke-width="1.0"/>
  </g>
</svg>
