<?xml version="1.0" encoding="UTF-8" standalone="no"?>
<svg xmlns:xlink="http://www.w3.org/1999/xlink" height="19.25px" width="19.25px" xmlns="http://www.w3.org/2000/svg">
  <g transform="matrix(1.0, 0.0, 0.0, 1.0, 9.6, 9.65)">
    <path d="M9.65 -6.25 L7.65 -0.7 Q7.15 2.0 7.05 3.95 L6.65 5.65 Q3.65 5.25 1.7 6.2 1.0 7.3 0.75 9.1 L0.7 9.05 0.55 9.6 Q-1.75 8.7 -4.0 9.0 L-3.8 8.4 -5.0 8.5 -5.0 8.55 Q-7.3 6.3 -9.6 5.85 L-7.95 2.7 -5.55 -0.85 Q-5.1 -1.45 -3.85 -4.2 L-3.8 -4.2 -1.8 -9.65 Q2.3 -6.15 9.65 -6.25 M-0.85 3.1 Q-3.8 0.95 -6.4 1.7 -6.9 6.6 -4.25 7.35 -1.55 8.05 -0.85 3.1" fill="#434343" fill-rule="evenodd" stroke="none"/>
  </g>
</svg>
