<?xml version="1.0" encoding="UTF-8" standalone="no"?>
<svg xmlns:xlink="http://www.w3.org/1999/xlink" height="24.3px" width="21.6px" xmlns="http://www.w3.org/2000/svg">
  <g transform="matrix(1.0, 0.0, 0.0, 1.0, 10.8, 12.15)">
    <path d="M-5.0 10.95 L-6.2 11.05 -6.2 11.1 Q-8.5 8.85 -10.8 8.4 L-9.15 5.25 -6.75 1.7 -5.2 -1.25 -1.0 -12.15 -0.95 -12.1 Q3.75 -9.25 10.8 -9.9 L6.45 1.85 Q5.95 4.55 5.85 6.5 L5.45 8.2 Q2.45 7.8 0.5 8.75 -0.2 9.85 -0.45 11.65 L-0.5 11.6 -0.65 12.15 Q-2.95 11.25 -5.2 11.55 L-5.0 10.95 M-2.05 5.65 Q-5.0 3.5 -7.6 4.25 -8.1 9.15 -5.45 9.9 -2.75 10.6 -2.05 5.65" fill="#434343" fill-rule="evenodd" stroke="none"/>
  </g>
</svg>
