<?xml version="1.0" encoding="UTF-8" standalone="no"?>
<svg xmlns:xlink="http://www.w3.org/1999/xlink" height="29.9px" width="24.85px" xmlns="http://www.w3.org/2000/svg">
  <g transform="matrix(1.0, 0.0, 0.0, 1.0, 12.4, 14.95)">
    <path d="M-1.6 -10.35 L-1.55 -10.3 Q3.15 -7.45 10.2 -8.1" fill="none" stroke="#000000" stroke-linecap="round" stroke-linejoin="round" stroke-width="1.0"/>
    <path d="M10.2 -8.1 L11.45 -11.75 Q4.95 -11.65 -0.4 -13.95 L-1.6 -10.35 -5.8 0.55 -7.35 3.5 -9.75 7.05 -11.4 10.2 Q-9.1 10.65 -6.8 12.9 L-6.8 12.85 -5.6 12.75 -5.1 12.15 M10.2 -8.1 L5.85 3.65 Q5.35 6.35 5.25 8.3 L4.85 10.0 Q1.85 9.6 -0.1 10.55 -0.8 11.65 -1.05 13.45 L-1.1 13.4 -1.25 13.95 Q-3.55 13.05 -5.8 13.35 L-5.6 12.75 M-1.4 6.15 L-2.65 7.4 -2.65 7.45 Q-3.35 12.4 -6.05 11.7 -8.7 10.95 -8.2 6.05 -5.6 5.3 -2.65 7.45" fill="none" stroke="#000000" stroke-linecap="round" stroke-linejoin="round" stroke-width="2.0"/>
  </g>
</svg>
