<?xml version="1.0" encoding="UTF-8" standalone="no"?>
<svg xmlns:xlink="http://www.w3.org/1999/xlink" height="30.55px" width="25.35px" xmlns="http://www.w3.org/2000/svg">
  <g transform="matrix(1.0, 0.0, 0.0, 1.0, 12.65, 15.3)">
    <path d="M-3.05 6.6 L-4.25 6.7 Q-6.6 9.9 -8.0 10.85 -9.45 11.8 -10.8 11.2 -12.2 10.55 -11.3 8.75 L-9.1 4.5 -7.2 0.95 -7.2 0.9 -4.8 -2.65 -4.5 -3.15 -3.25 -6.2 -1.8 -9.8 -0.05 -14.3 Q4.8 -10.4 11.7 -10.85 L8.4 -2.5 8.0 0.15 7.8 2.15 7.4 3.9 5.95 6.15 Q4.2 8.15 1.45 7.25 -0.25 13.2 -2.2 13.9 -4.15 14.6 -5.0 13.9 -5.25 12.55 -3.05 6.6 L-2.55 6.0 M1.15 0.0 L-0.1 1.25 -0.1 1.3 Q-0.35 3.1 -0.85 4.15 -1.8 6.0 -3.5 5.55 -5.55 5.0 -5.7 1.95 L-5.7 1.0 -5.65 -0.15" fill="none" stroke="#000000" stroke-linecap="round" stroke-linejoin="round" stroke-width="2.0"/>
    <path d="M-5.7 1.95 L-7.2 0.95" fill="none" stroke="#000000" stroke-linecap="round" stroke-linejoin="round" stroke-width="0.05"/>
  </g>
</svg>
