<?xml version="1.0" encoding="UTF-8" standalone="no"?>
<svg xmlns:xlink="http://www.w3.org/1999/xlink" height="22.5px" width="19.95px" xmlns="http://www.w3.org/2000/svg">
  <g transform="matrix(1.0, 0.0, 0.0, 1.0, 9.95, 11.25)">
    <path d="M-2.85 7.85 Q-5.6 5.95 -8.45 7.55 L-8.45 8.5 -9.95 7.5 -9.95 7.45 -7.55 3.9 -7.25 3.4 Q-4.65 5.7 -1.6 6.55 1.6 7.4 5.25 6.7 L5.05 8.7 4.65 10.45 -3.6 10.7 Q-3.1 9.65 -2.85 7.85 M6.0 3.2 Q-1.55 3.75 -6.0 0.35 L-4.55 -3.25 Q-1.05 -0.25 7.25 0.05 L6.0 3.2 M8.55 -3.6 Q0.85 -3.95 -3.25 -6.7 L-1.6 -11.25 Q2.35 -7.7 10.0 -7.75 L8.55 -3.6" fill="#434343" fill-rule="evenodd" stroke="none"/>
  </g>
</svg>
