<?xml version="1.0" encoding="UTF-8" standalone="no"?>
<svg xmlns:xlink="http://www.w3.org/1999/xlink" height="26.2px" width="24.4px" xmlns="http://www.w3.org/2000/svg">
  <g transform="matrix(1.0, 0.0, 0.0, 1.0, 12.2, 13.1)">
    <path d="M-2.6 4.45 L-3.8 4.55 Q-6.15 7.75 -7.55 8.7 -9.0 9.65 -10.35 9.05 -11.75 8.4 -10.85 6.6 L-8.65 2.35 -6.75 -1.25 -4.35 -4.8 -2.65 -8.15 -2.05 -12.1 Q1.2 -11.55 4.25 -9.35 7.35 -7.75 11.2 -8.2 L8.85 -4.65 8.25 0.0 Q8.1 2.0 6.4 4.0 4.65 6.0 1.9 5.1 0.2 11.05 -1.75 11.75 -3.7 12.45 -4.55 11.75 -4.8 10.4 -2.6 4.45 L-2.1 3.85 M1.6 -2.15 L0.35 -0.9 Q-0.35 4.1 -3.05 3.4 -5.7 2.65 -5.2 -2.3" fill="none" stroke="#000000" stroke-linecap="round" stroke-linejoin="round" stroke-width="2.0"/>
    <path d="M1.2 -4.7 Q-0.45 -6.2 -0.5 -7.9 2.05 -5.7 6.1 -4.7" fill="none" stroke="#000000" stroke-linecap="round" stroke-linejoin="round" stroke-opacity="0.29803923" stroke-width="1.0"/>
  </g>
</svg>
