<?xml version="1.0" encoding="UTF-8" standalone="no"?>
<svg xmlns:xlink="http://www.w3.org/1999/xlink" height="42.95px" width="28.75px" xmlns="http://www.w3.org/2000/svg">
  <g transform="matrix(1.0, 0.0, 0.0, 1.0, 14.4, 21.45)">
    <path d="M13.35 -17.1 L12.55 -13.85 Q11.4 -9.85 10.0 -6.4 L9.8 -5.8 7.9 -1.05 6.05 3.65 5.7 4.7 5.25 6.1 5.15 6.6 4.8 9.25 4.15 15.05 Q3.0 21.2 -1.35 18.7 L-1.45 18.6 Q-1.95 17.8 -2.1 15.8 -2.85 16.8 -4.45 17.2 -5.5 16.7 -5.65 15.9 -8.6 20.35 -11.55 20.5 -14.5 20.6 -12.75 17.0 L-8.45 9.0 -5.55 3.85 -5.45 3.65 Q-3.5 -0.6 -1.5 -6.8 0.6 -14.15 2.65 -19.65 L3.1 -20.45 M-2.1 15.8 L-2.1 13.35 Q-3.35 13.7 -4.95 14.9 L-5.65 15.9 M-2.1 13.35 L-2.15 12.3" fill="none" stroke="#54453c" stroke-linecap="round" stroke-linejoin="round" stroke-width="2.0"/>
  </g>
</svg>
