<?xml version="1.0" encoding="UTF-8" standalone="no"?>
<svg xmlns:xlink="http://www.w3.org/1999/xlink" height="16.75px" width="19.35px" xmlns="http://www.w3.org/2000/svg">
  <g transform="matrix(1.0, 0.0, 0.0, 1.0, 9.65, 8.4)">
    <path d="M6.4 5.55 L6.4 5.7 6.25 4.4 6.4 5.55" fill="#434343" fill-rule="evenodd" stroke="none"/>
    <path d="M-0.65 5.9 L-0.65 6.0 Q-1.8 6.3 -3.15 7.35 -7.65 5.95 -8.65 4.6 L-7.0 1.65 -4.1 -3.5 -3.75 -4.4 Q-4.15 -5.8 -2.85 -7.4 0.5 -5.4 8.65 -5.85 8.85 -4.15 8.15 -3.3 L7.05 -2.35 6.7 -1.25 6.6 -0.75 6.25 1.9 5.95 5.45 Q2.45 4.35 -0.65 5.9 L-0.7 4.95" fill="none" stroke="#000000" stroke-linecap="round" stroke-linejoin="round" stroke-width="2.0"/>
    <path d="M-3.75 -4.4 Q-1.75 -1.3 7.05 -2.35" fill="none" stroke="#000000" stroke-linecap="round" stroke-linejoin="round" stroke-width="1.0"/>
  </g>
</svg>
