<?xml version="1.0" encoding="UTF-8" standalone="no"?>
<svg xmlns:xlink="http://www.w3.org/1999/xlink" height="33.7px" width="26.7px" xmlns="http://www.w3.org/2000/svg">
  <g transform="matrix(1.0, 0.0, 0.0, 1.0, 13.35, 16.85)">
    <path d="M6.0 8.25 L6.0 8.4 5.85 7.1 6.0 8.25" fill="#434343" fill-rule="evenodd" stroke="none"/>
    <path d="M-0.7 -12.25 L0.5 -15.85 Q5.85 -13.55 12.35 -13.65 L11.1 -10.0 6.5 0.8 6.3 1.45 6.2 1.95 5.85 4.6 5.2 10.4 Q4.05 16.55 -0.3 14.05 L-0.4 13.95 Q-0.9 13.15 -1.05 11.15 -1.8 12.15 -3.4 12.55 -4.45 12.05 -4.6 11.25 -7.55 15.7 -10.5 15.85 -13.45 15.95 -11.7 12.35 L-7.4 4.35 -4.5 -0.8 -4.15 -1.7 -0.65 -12.2 M-4.6 11.25 L-3.9 10.25 Q-2.3 9.05 -1.05 8.7 L-1.1 7.65 M-1.05 11.15 L-1.05 8.7" fill="none" stroke="#000000" stroke-linecap="round" stroke-linejoin="round" stroke-width="2.0"/>
    <path d="M-0.65 -12.2 L-0.7 -12.25 M-0.65 -12.2 Q4.05 -9.35 11.1 -10.0" fill="none" stroke="#000000" stroke-linecap="round" stroke-linejoin="round" stroke-width="1.0"/>
  </g>
</svg>
