<?xml version="1.0" encoding="UTF-8" standalone="no"?>
<svg xmlns:xlink="http://www.w3.org/1999/xlink" height="21.1px" width="20.6px" xmlns="http://www.w3.org/2000/svg">
  <g transform="matrix(1.0, 0.0, 0.0, 1.0, 10.3, 10.55)">
    <path d="M-1.95 -6.8 L-1.3 -10.55 Q1.05 -10.65 4.1 -8.95 6.9 -7.4 10.3 -8.05 L8.7 -4.95 8.35 -3.85 8.25 -3.35 7.9 -0.7 7.25 5.1 Q6.1 11.25 1.75 8.75 L1.65 8.65 Q1.15 7.85 1.0 5.85 0.25 6.85 -1.35 7.25 -2.4 6.75 -2.55 5.95 -5.5 10.4 -8.45 10.55 -11.4 10.65 -9.65 7.05 L-5.35 -0.95 -2.45 -6.1 -2.1 -7.0 -1.95 -6.8" fill="#ffffff" fill-rule="evenodd" stroke="none"/>
  </g>
</svg>
