<?xml version="1.0" encoding="UTF-8" standalone="no"?>
<svg xmlns:xlink="http://www.w3.org/1999/xlink" height="20.35px" width="20.4px" xmlns="http://www.w3.org/2000/svg">
  <g transform="matrix(1.0, 0.0, 0.0, 1.0, 10.2, 10.2)">
    <path d="M5.65 6.75 L5.65 6.9 5.5 5.6 5.65 6.75" fill="#434343" fill-rule="evenodd" stroke="none"/>
    <path d="M-1.4 7.2 Q-2.65 7.55 -4.25 8.75 L-4.5 9.15 Q-5.7 6.7 -9.2 5.45 L-7.75 2.85 -4.85 -2.3 -4.5 -3.2 Q-4.95 -4.35 -3.2 -5.6 -4.45 -7.3 -2.75 -9.2 0.7 -7.8 9.15 -8.2 9.45 -6.05 8.1 -4.8 8.7 -3.6 7.8 -2.2 6.9 -0.85 6.3 -1.15 L5.95 -0.05 5.85 0.45 5.5 3.1 5.15 6.95 Q1.45 6.4 -1.4 7.85 L-1.4 7.2 -1.45 6.15" fill="none" stroke="#000000" stroke-linecap="round" stroke-linejoin="round" stroke-width="2.0"/>
    <path d="M-4.5 -3.2 Q-2.5 -0.1 6.3 -1.15" fill="none" stroke="#000000" stroke-linecap="round" stroke-linejoin="round" stroke-width="1.0"/>
  </g>
</svg>
