<?xml version="1.0" encoding="UTF-8" standalone="no"?>
<svg xmlns:xlink="http://www.w3.org/1999/xlink" height="42.75px" width="32.7px" xmlns="http://www.w3.org/2000/svg">
  <g transform="matrix(1.0, 0.0, 0.0, 1.0, 16.35, 21.35)">
    <path d="M15.35 -17.0 L14.55 -13.75 12.6 -7.6 10.05 -1.15 8.65 2.5 7.6 5.1 6.85 6.95 6.7 7.65 Q6.45 9.35 6.35 11.15 L6.15 15.65 Q6.05 18.35 5.5 19.3 5.0 20.15 3.15 20.4 1.6 20.55 0.6 18.4 -0.15 16.45 -0.5 13.9 L-0.7 12.8 -0.9 12.7 -1.15 12.6 -2.25 13.4 -3.9 15.0 Q-5.45 16.5 -7.3 16.65 -9.1 16.85 -9.05 15.65 -9.0 14.4 -7.9 12.7 L-10.8 12.95 Q-15.6 12.5 -15.35 8.8 L-6.55 6.7 -4.4 5.1 Q-3.5 4.2 -2.6 2.5 L-2.35 2.05 Q1.05 -9.25 4.65 -19.55 L5.1 -20.35 M-7.9 12.7 L-4.45 12.2 Q-3.1 11.95 -1.15 12.6" fill="none" stroke="#54453c" stroke-linecap="round" stroke-linejoin="round" stroke-width="2.0"/>
  </g>
</svg>
