<?xml version="1.0" encoding="UTF-8" standalone="no"?>
<svg xmlns:xlink="http://www.w3.org/1999/xlink" height="32.8px" width="29.35px" xmlns="http://www.w3.org/2000/svg">
  <g transform="matrix(1.0, 0.0, 0.0, 1.0, 14.65, 16.4)">
    <path d="M-1.95 -1.7 L2.45 -16.4 Q7.0 -13.7 14.7 -14.1 L7.55 2.95 7.4 3.65 7.1 6.3 7.05 7.15 6.9 10.95 6.85 11.65 Q6.75 14.35 6.2 15.3 5.7 16.15 3.85 16.4 2.3 16.55 1.3 14.4 L0.55 11.85 0.2 9.9 0.0 8.8 -0.2 8.7 -0.45 8.6 -1.55 9.4 -3.2 11.0 Q-4.75 12.5 -6.6 12.65 -8.4 12.85 -8.35 11.65 -8.3 10.4 -7.2 8.7 L-10.1 8.95 Q-14.9 8.5 -14.65 4.8 L-5.85 2.7 -4.95 2.15 -2.95 2.15 -4.85 2.05 -3.7 1.1 -2.0 -1.75 -1.95 -1.7 M7.2 9.95 L7.2 10.1 7.05 8.8 7.2 9.95" fill="#dbdbdb" fill-rule="evenodd" stroke="none"/>
  </g>
</svg>
