<?xml version="1.0" encoding="UTF-8" standalone="no"?>
<svg xmlns:xlink="http://www.w3.org/1999/xlink" height="16.35px" width="19.35px" xmlns="http://www.w3.org/2000/svg">
  <g transform="matrix(1.0, 0.0, 0.0, 1.0, 9.7, 8.2)">
    <path d="M-1.7 5.75 Q-5.1 7.3 -8.55 6.95 -9.05 3.65 -7.9 2.05 L-4.85 -1.8 -3.15 -3.8 Q-3.3 -6.0 -2.0 -7.2 1.1 -5.1 8.65 -4.15 8.75 -3.1 8.45 -2.2 8.1 -1.35 7.45 -1.05 L7.3 -0.65 6.8 4.0 Q6.9 5.3 6.4 6.9 2.8 4.45 -1.65 7.15 -1.5 6.45 -1.7 5.75 L-1.75 5.7 -2.55 4.55" fill="none" stroke="#000000" stroke-linecap="round" stroke-linejoin="round" stroke-width="2.0"/>
    <path d="M-3.15 -3.8 Q1.0 -1.05 7.45 -1.05" fill="none" stroke="#000000" stroke-linecap="round" stroke-linejoin="round" stroke-width="1.0"/>
  </g>
</svg>
