<?xml version="1.0" encoding="UTF-8" standalone="no"?>
<svg xmlns:xlink="http://www.w3.org/1999/xlink" height="21.65px" width="22.3px" xmlns="http://www.w3.org/2000/svg">
  <g transform="matrix(1.0, 0.0, 0.0, 1.0, 11.15, 10.85)">
    <path d="M7.65 -3.65 L8.2 -3.65 8.2 -3.6 Q10.35 -5.9 10.15 -7.45 3.7 -8.3 -1.8 -9.85 -2.95 -8.8 -2.8 -6.2 L-2.8 -6.15 -2.8 -6.0 0.45 -4.8 Q3.45 -3.95 7.65 -3.65 L5.85 2.0 5.35 6.65 Q5.45 7.95 4.95 9.55 1.35 7.1 -3.1 9.8 -2.95 9.15 -3.15 8.4 -6.55 9.95 -10.0 9.6 -10.5 6.3 -9.35 4.7 L-6.3 0.85 -4.6 -1.15 M-4.55 -1.1 L-2.8 -6.15 M-3.15 8.4 L-3.2 8.35 -4.0 7.2" fill="none" stroke="#000000" stroke-linecap="round" stroke-linejoin="round" stroke-width="2.0"/>
    <path d="M-4.6 -1.15 L-4.55 -1.1" fill="none" stroke="#000000" stroke-linecap="round" stroke-linejoin="round" stroke-width="1.0"/>
  </g>
</svg>
