<?xml version="1.0" encoding="UTF-8" standalone="no"?>
<svg xmlns:xlink="http://www.w3.org/1999/xlink" height="43.7px" width="30.7px" xmlns="http://www.w3.org/2000/svg">
  <g transform="matrix(1.0, 0.0, 0.0, 1.0, 15.35, 21.85)">
    <path d="M14.35 -17.5 L13.55 -14.25 11.35 -7.5 9.75 -3.4 7.65 2.05 Q7.15 3.7 7.15 4.65 L7.25 6.45 7.2 8.2 6.55 11.05 5.75 12.9 5.85 13.35 5.95 14.25 Q6.0 15.7 4.45 17.1 2.95 18.5 0.05 17.35 L-0.2 17.45 Q-1.4 18.15 -2.95 18.0 -4.5 17.8 -5.3 16.45 L-5.35 16.4 -5.05 15.9 Q-7.05 18.75 -8.3 19.8 -9.75 21.0 -11.55 20.85 -13.4 20.65 -12.4 18.25 L-10.05 12.75 -8.55 9.05 Q-8.2 8.15 -10.0 7.85 -11.8 7.5 -13.45 6.0 -15.1 4.45 -13.65 2.1 L-10.25 2.3 -6.8 3.05 Q-5.65 3.1 -3.6 0.4 L-3.55 0.3 -3.5 0.05 3.65 -20.05 4.1 -20.85 M-5.05 15.9 L-3.95 13.8 -3.4 12.0 -3.15 10.75 -3.05 10.1 -2.95 10.1 Q-0.6 9.5 1.25 11.0 2.9 10.85 4.4 11.5 5.3 11.9 5.7 12.8 L5.75 12.9 M1.25 11.0 L1.25 11.35 1.3 11.65 Q1.35 13.95 0.05 17.0 L-0.2 17.45" fill="none" stroke="#54453c" stroke-linecap="round" stroke-linejoin="round" stroke-width="2.0"/>
  </g>
</svg>
