<?xml version="1.0" encoding="UTF-8" standalone="no"?>
<svg xmlns:xlink="http://www.w3.org/1999/xlink" height="30.5px" width="27.0px" xmlns="http://www.w3.org/2000/svg">
  <g transform="matrix(1.0, 0.0, 0.0, 1.0, 13.5, 15.25)">
    <path d="M11.35 -7.7 L11.7 -8.15 12.1 -8.65 Q12.65 -9.4 12.45 -11.2 5.45 -11.55 0.05 -14.25 -1.15 -12.3 -1.2 -11.2 M10.75 -7.7 L9.0 -2.1 9.0 -1.95 9.1 -0.15 9.05 1.6 8.4 4.45 7.6 6.3 7.7 6.75 7.8 7.65 Q7.85 9.1 6.3 10.5 4.8 11.9 1.9 10.75 L1.65 10.85 Q0.45 11.55 -1.1 11.4 -2.65 11.2 -3.45 9.85 L-3.5 9.8 -3.2 9.3 Q-5.2 12.15 -6.45 13.2 -7.9 14.4 -9.7 14.25 -11.55 14.05 -10.55 11.65 L-8.2 6.15 -6.7 2.45 Q-6.35 1.55 -8.15 1.25 -9.95 0.9 -11.6 -0.6 -13.25 -2.15 -11.8 -4.5 L-8.4 -4.3 -4.95 -3.55 Q-4.1 -3.5 -2.8 -4.9 L-0.9 -10.95 M-3.2 9.3 L-2.1 7.2 -1.55 5.4 -1.3 4.15 -1.2 3.5 -1.1 3.5 Q1.25 2.9 3.1 4.4 4.75 4.25 6.25 4.9 7.15 5.3 7.55 6.2 L7.6 6.3 M3.1 4.4 L3.1 4.75 3.15 5.05 Q3.2 7.35 1.9 10.4 L1.65 10.85" fill="none" stroke="#000000" stroke-linecap="round" stroke-linejoin="round" stroke-width="2.0"/>
    <path d="M-1.2 -11.2 L-0.9 -10.95 -0.8 -10.9 Q2.8 -7.95 10.75 -7.7 L11.35 -7.7 Z" fill="none" stroke="#000000" stroke-linecap="round" stroke-linejoin="round" stroke-width="1.0"/>
  </g>
</svg>
