<?xml version="1.0" encoding="UTF-8" standalone="no"?>
<svg xmlns:xlink="http://www.w3.org/1999/xlink" height="29.6px" width="24.95px" xmlns="http://www.w3.org/2000/svg">
  <g transform="matrix(1.0, 0.0, 0.0, 1.0, 12.45, 14.8)">
    <path d="M-6.05 1.2 Q-3.9 -3.2 -2.15 -9.75 L-1.2 -13.8 Q3.95 -11.15 11.5 -11.0 L9.95 -6.95 5.75 3.95 5.75 4.1 5.85 5.9 5.8 7.65 5.15 10.5 4.35 12.35 4.3 12.25 Q3.9 11.35 3.0 10.95 1.5 10.3 -0.15 10.45 -2.0 8.95 -4.35 9.55 L-4.45 9.55 -4.55 10.2 -4.8 11.45 -5.35 13.25 -5.6 13.8 Q-8.55 11.95 -11.45 12.25 L-11.45 12.2 -9.95 8.5 Q-9.65 7.7 -11.1 7.35 -9.0 5.0 -9.5 2.3 L-8.2 2.5 Q-7.35 2.55 -6.05 1.15 M5.75 3.95 L5.75 3.9 5.4 4.35" fill="none" stroke="#000000" stroke-linecap="round" stroke-linejoin="round" stroke-width="2.0"/>
    <path d="M-6.05 1.15 L-6.4 0.85 M-6.05 1.15 L-6.05 1.2 M-2.15 -9.75 Q3.4 -6.45 9.95 -6.95" fill="none" stroke="#000000" stroke-linecap="round" stroke-linejoin="round" stroke-width="1.0"/>
  </g>
</svg>
