<?xml version="1.0" encoding="UTF-8" standalone="no"?>
<svg xmlns:xlink="http://www.w3.org/1999/xlink" height="24.25px" width="21.1px" xmlns="http://www.w3.org/2000/svg">
  <g transform="matrix(1.0, 0.0, 0.0, 1.0, 10.55, 12.15)">
    <path d="M-2.65 -7.65 L-1.25 -12.15 Q2.5 -10.15 10.55 -9.05 L8.9 -4.6 Q2.5 -4.9 -2.65 -7.65 M-5.45 0.0 L-4.4 -1.6 -3.8 -3.9 Q-0.1 -1.4 7.4 -0.6 L6.35 3.15 6.35 2.9 6.35 2.7 6.0 3.15 Q-1.85 3.0 -5.45 0.0 M5.9 8.9 L5.75 9.3 4.95 11.15 4.9 11.05 Q4.5 10.15 3.6 9.75 2.1 9.1 0.45 9.25 -1.4 7.75 -3.75 8.35 L-3.85 8.35 -3.95 9.0 -4.1 9.0 -4.45 10.9 -4.75 12.05 -4.75 12.1 Q-7.65 10.2 -10.55 10.3 L-9.35 7.3 Q-9.05 6.55 -10.2 6.25 -8.6 5.95 -8.5 1.2 L-7.85 1.3 -7.6 1.3 -7.35 1.3 Q-4.85 5.0 -1.85 5.7 1.3 6.4 5.9 8.9" fill="#434343" fill-rule="evenodd" stroke="none"/>
  </g>
</svg>
