<?xml version="1.0" encoding="UTF-8" standalone="no"?>
<svg xmlns:xlink="http://www.w3.org/1999/xlink" height="37.8px" width="29.6px" xmlns="http://www.w3.org/2000/svg">
  <g transform="matrix(1.0, 0.0, 0.0, 1.0, 14.8, 18.9)">
    <path d="M-4.1 -1.2 L-3.05 -2.8 1.5 -17.9 Q8.05 -14.8 13.8 -15.35 L8.75 -1.8 7.7 1.95 7.8 3.5 7.75 5.25 7.25 7.7 7.1 8.1 6.3 9.95 6.4 10.4 6.5 11.3 Q6.55 12.75 5.0 14.15 3.5 15.55 0.6 14.4 L0.35 14.5 Q-0.85 15.2 -2.4 15.05 -3.95 14.85 -4.75 13.5 L-4.8 13.45 -4.5 12.95 Q-6.5 15.8 -7.75 16.85 -9.2 18.05 -11.0 17.9 -12.85 17.7 -11.85 15.3 L-9.5 9.8 -9.2 9.1 -8.0 6.1 Q-7.7 5.35 -8.85 5.05 L-9.45 4.9 Q-11.25 4.55 -12.9 3.05 -14.55 1.5 -13.1 -0.85 L-9.7 -0.65 -7.15 0.0 -6.5 0.1 -6.25 0.1 -6.0 0.1 Q-5.25 -0.05 -4.1 -1.25 M-4.5 12.95 L-3.4 10.9 -3.4 10.85 -2.85 9.05 -2.6 7.8 -2.5 7.15 -2.4 7.15 Q-0.05 6.55 1.8 8.05 3.45 7.9 4.95 8.55 5.85 8.95 6.25 9.85 L6.3 9.95 M7.7 1.95 L7.7 1.7 7.7 1.5 7.35 1.95 M1.8 8.05 L1.8 8.4 1.85 8.7 Q1.9 11.0 0.6 14.05 L0.35 14.5" fill="none" stroke="#000000" stroke-linecap="round" stroke-linejoin="round" stroke-width="2.0"/>
    <path d="M-4.1 -1.25 L-4.45 -1.55 M-4.1 -1.25 L-4.1 -1.2 Z" fill="none" stroke="#000000" stroke-linecap="round" stroke-linejoin="round" stroke-width="1.0"/>
  </g>
</svg>
