<?xml version="1.0" encoding="UTF-8" standalone="no"?>
<svg xmlns:xlink="http://www.w3.org/1999/xlink" height="26.8px" width="26.55px" xmlns="http://www.w3.org/2000/svg">
  <g transform="matrix(1.0, 0.0, 0.0, 1.0, 13.25, 13.4)">
    <path d="M-2.55 -6.75 L-2.05 -12.4 Q3.85 -9.15 12.3 -8.45 L9.25 -4.0 9.25 -3.8 9.3 -3.1 9.3 -2.6 9.35 -2.0 9.3 -0.25 8.65 2.6 7.85 4.45 7.95 4.9 8.05 5.8 Q8.1 7.25 6.55 8.65 5.05 10.05 2.15 8.9 L1.9 9.0 Q0.7 9.7 -0.85 9.55 -2.4 9.35 -3.2 8.0 L-3.25 7.95 -2.95 7.45 Q-4.95 10.3 -6.2 11.35 -7.65 12.55 -9.45 12.4 -11.3 12.2 -10.3 9.8 L-7.95 4.3 -6.45 0.6 Q-6.1 -0.3 -7.9 -0.6 -9.7 -0.95 -11.35 -2.45 -13.0 -4.0 -11.55 -6.35 L-8.15 -6.15 Q-5.9 -5.5 -4.7 -5.4 -4.3 -5.4 -3.85 -5.65 L-3.6 -5.8 -2.8 -6.5 -2.55 -6.75 M9.25 -4.0 L9.2 -3.9 8.9 -3.55 M-2.95 7.45 L-1.85 5.35 -1.3 3.55 -1.05 2.3 -0.95 1.65 -0.85 1.65 Q1.5 1.05 3.35 2.55 5.0 2.4 6.5 3.05 7.4 3.45 7.8 4.35 L7.85 4.45 M3.35 2.55 L3.35 2.9 3.4 3.2 Q3.45 5.5 2.15 8.55 L1.9 9.0" fill="none" stroke="#000000" stroke-linecap="round" stroke-linejoin="round" stroke-width="2.0"/>
    <path d="M-2.55 -6.75 L-2.9 -7.05" fill="none" stroke="#000000" stroke-linecap="round" stroke-linejoin="round" stroke-width="1.0"/>
  </g>
</svg>
