<?xml version="1.0" encoding="UTF-8" standalone="no"?>
<svg xmlns:xlink="http://www.w3.org/1999/xlink" height="23.85px" width="23.55px" xmlns="http://www.w3.org/2000/svg">
  <g transform="matrix(1.0, 0.0, 0.0, 1.0, 11.75, 11.95)">
    <path d="M9.75 -4.45 L9.75 -4.3 9.85 -2.5 9.8 -0.75 9.15 2.1 8.35 3.95 8.45 4.4 8.55 5.3 Q8.6 6.75 7.05 8.15 5.55 9.55 2.65 8.4 L2.4 8.5 Q1.2 9.2 -0.35 9.05 -1.9 8.85 -2.7 7.5 L-2.75 7.45 -2.45 6.95 Q-4.45 9.8 -5.7 10.85 -7.15 12.05 -8.95 11.9 -10.8 11.7 -9.8 9.3 L-7.45 3.8 -5.95 0.1 Q-5.6 -0.8 -7.4 -1.1 -9.2 -1.45 -10.85 -2.95 -12.5 -4.5 -11.05 -6.85 L-7.65 -6.65 -4.2 -5.9 Q-3.35 -5.85 -2.05 -7.25 L-2.05 -7.2 -1.25 -8.9 -0.6 -11.75 Q0.65 -12.5 4.85 -10.15 8.05 -8.7 11.8 -9.05 L9.75 -4.45 M-1.35 4.85 L-0.8 3.05 -0.55 1.8 -0.7 1.8 -1.05 3.7 -1.35 4.85" fill="#ffffff" fill-rule="evenodd" stroke="none"/>
  </g>
</svg>
