<?xml version="1.0" encoding="UTF-8" standalone="no"?>
<svg xmlns:xlink="http://www.w3.org/1999/xlink" height="19.15px" width="21.6px" xmlns="http://www.w3.org/2000/svg">
  <g transform="matrix(1.0, 0.0, 0.0, 1.0, 10.8, 9.55)">
    <path d="M-1.5 4.65 Q-3.5 7.5 -4.75 8.55 -6.2 9.75 -8.0 9.6 -9.85 9.4 -8.85 7.0 L-6.5 1.5 -5.0 -2.2 Q-4.65 -3.1 -6.45 -3.4 -8.25 -3.75 -9.9 -5.25 -11.55 -6.8 -10.1 -9.15 L-6.7 -8.95 Q-4.45 -8.3 -3.25 -8.2 -2.4 -8.15 -1.1 -9.55 3.7 -5.75 10.35 -6.35 L10.7 -6.8 10.7 -6.6 10.8 -4.8 10.75 -3.05 10.1 -0.2 9.3 1.65 9.4 2.1 9.5 3.0 Q9.55 4.45 8.0 5.85 6.5 7.25 3.6 6.1 L3.35 6.2 Q2.15 6.9 0.6 6.75 -0.95 6.55 -1.75 5.2 L-1.8 5.15 -1.5 4.65 M-0.4 2.55 L0.15 0.75 0.4 -0.5 0.25 -0.5 -0.1 1.4 -0.4 2.55" fill="#434343" fill-rule="evenodd" stroke="none"/>
  </g>
</svg>
