<?xml version="1.0" encoding="UTF-8" standalone="no"?>
<svg xmlns:xlink="http://www.w3.org/1999/xlink" height="39.5px" width="29.4px" xmlns="http://www.w3.org/2000/svg">
  <g transform="matrix(1.0, 0.0, 0.0, 1.0, 14.7, 19.75)">
    <path d="M14.6 -16.25 L13.8 -13.0 10.55 -3.75 9.0 0.4 8.7 1.3 7.5 5.5 7.3 8.65 7.15 9.9 6.45 12.85 Q6.05 14.3 5.2 15.3 L5.25 16.15 Q5.3 17.6 3.75 19.0 2.25 20.4 -0.65 19.25 L-0.9 19.35 -3.2 19.55 Q-5.3 19.2 -6.05 18.3 -8.35 18.75 -9.35 17.8 -10.4 16.8 -10.5 16.0 -10.6 15.1 -10.3 13.25 -10.05 11.95 -9.0 11.2 L-10.15 10.15 Q-11.95 9.4 -13.05 8.65 L-13.9 8.05 Q-15.2 6.8 -14.4 5.0 L-14.2 4.7 Q-13.3 3.3 -10.2 3.7 -8.9 3.95 -7.2 4.55 L-6.55 4.8 Q-5.4 3.5 -3.45 2.2 L3.9 -18.8 4.35 -19.6 6.35 -19.75 Q7.4 -19.9 10.1 -19.05 12.75 -18.2 14.5 -16.5 14.85 -16.25 14.6 -16.25" fill="#fff1e0" fill-rule="evenodd" stroke="none"/>
  </g>
</svg>
