<?xml version="1.0" encoding="UTF-8" standalone="no"?>
<svg xmlns:xlink="http://www.w3.org/1999/xlink" height="17.25px" width="17.75px" xmlns="http://www.w3.org/2000/svg">
  <g transform="matrix(1.0, 0.0, 0.0, 1.0, 8.85, 8.65)">
    <path d="M8.9 -5.8 L8.1 -0.95 7.9 1.95 7.75 3.2 7.05 6.15 Q6.65 7.6 5.8 8.6 L5.75 8.55 Q5.45 7.2 4.3 6.7 2.8 6.05 1.15 6.2 -0.7 4.7 -3.05 5.3 L-3.15 5.3 Q-4.6 3.85 -7.4 3.95 L-8.05 4.2 -8.4 4.5 -8.85 4.0 Q-5.75 0.6 -6.55 -2.1 L-5.95 -1.9 -3.15 -4.65 -2.85 -4.65 -3.1 -5.0 -2.85 -4.7 -2.85 -5.0 -1.25 -8.65 Q2.4 -5.8 8.9 -5.8" fill="#434343" fill-rule="evenodd" stroke="none"/>
  </g>
</svg>
