<?xml version="1.0" encoding="UTF-8" standalone="no"?>
<svg xmlns:xlink="http://www.w3.org/1999/xlink" height="29.85px" width="24.5px" xmlns="http://www.w3.org/2000/svg">
  <g transform="matrix(1.0, 0.0, 0.0, 1.0, 12.25, 14.95)">
    <path d="M-5.4 0.8 L-5.3 0.75 -5.3 0.7 -1.95 -10.4 -0.9 -13.95 Q3.6 -11.25 11.25 -10.75 L9.9 -7.05 5.6 4.25 5.4 7.25 5.25 8.5 4.55 11.45 Q4.15 12.9 3.3 13.9 L3.25 13.85 Q2.95 12.5 1.8 12.0 0.3 11.35 -1.35 11.5 -3.2 10.0 -5.55 10.6 L-5.65 10.6 Q-7.1 9.15 -9.9 9.25 L-10.55 9.5 -10.9 9.8 -11.25 9.35 Q-8.2 6.05 -9.05 3.2 L-8.45 3.4 Q-7.3 2.1 -5.35 0.85 M-8.45 3.4 Q-6.05 4.45 -5.8 5.95" fill="none" stroke="#000000" stroke-linecap="round" stroke-linejoin="round" stroke-width="2.0"/>
    <path d="M-5.35 0.85 L-5.4 0.8 M-1.95 -10.4 Q1.55 -6.7 9.9 -7.05" fill="none" stroke="#000000" stroke-linecap="round" stroke-linejoin="round" stroke-width="1.0"/>
  </g>
</svg>
