<?xml version="1.0" encoding="UTF-8" standalone="no"?>
<svg xmlns:xlink="http://www.w3.org/1999/xlink" height="19.7px" width="19.85px" xmlns="http://www.w3.org/2000/svg">
  <g transform="matrix(1.0, 0.0, 0.0, 1.0, 9.9, 9.85)">
    <path d="M-3.25 -4.25 L-3.15 -4.3 -3.15 -4.35 Q-3.35 -6.2 -1.85 -8.85 2.8 -6.8 8.9 -5.85 9.2 -2.65 7.8 -1.05 L7.75 -0.95 7.55 2.2 7.4 3.45 6.7 6.4 Q6.3 7.85 5.45 8.85 L5.4 8.8 Q5.1 7.45 3.95 6.95 2.45 6.3 0.8 6.45 -1.05 4.95 -3.4 5.55 L-3.5 5.55 Q-4.95 4.1 -7.75 4.2 L-8.4 4.45 -8.75 4.75 Q-9.0 4.4 -8.75 4.0 -5.9 1.45 -6.9 -1.85 L-6.3 -1.65 -3.2 -4.2 Q0.6 -0.95 7.8 -1.05 M-6.3 -1.65 Q-3.9 -0.6 -3.65 0.9" fill="none" stroke="#000000" stroke-linecap="round" stroke-linejoin="round" stroke-width="2.0"/>
    <path d="M-3.2 -4.2 L-3.25 -4.25 Z" fill="none" stroke="#000000" stroke-linecap="round" stroke-linejoin="round" stroke-width="1.0"/>
  </g>
</svg>
