<?xml version="1.0" encoding="UTF-8" standalone="no"?>
<svg xmlns:xlink="http://www.w3.org/1999/xlink" height="19.6px" width="24.8px" xmlns="http://www.w3.org/2000/svg">
  <g transform="matrix(1.0, 0.0, 0.0, 1.0, 15.3, 7.45)">
    <path d="M-3.25 -1.35 Q-3.5 -2.85 -5.9 -3.9 -4.75 -5.2 -2.8 -6.45 -0.7 -3.9 2.95 -3.0 L8.5 -2.75 Q8.05 -1.25 7.95 -0.05 L7.8 1.2 7.1 4.15 Q6.7 5.5 5.95 6.5 L5.85 6.6 5.8 6.6 Q5.75 8.8 5.05 9.9 2.9 11.9 0.05 10.7 L0.0 10.75 Q-2.85 11.6 -5.7 9.8 L-6.0 9.6 Q-9.95 9.55 -10.05 6.65 L-9.35 2.55 Q-16.4 -1.05 -13.45 -4.7 -9.4 -6.35 -6.75 -4.2 M-3.0 3.3 L-3.1 3.3 Q-4.55 1.85 -7.35 1.95 L-8.0 2.2 -8.35 2.5 -8.75 2.85 -9.35 2.55 M-3.0 3.3 Q-0.65 2.7 1.2 4.2 2.85 4.05 4.35 4.7 5.5 5.2 5.8 6.55 L5.8 6.6 5.95 6.5" fill="none" stroke="#000000" stroke-linecap="round" stroke-linejoin="round" stroke-width="2.0"/>
    <path d="M-5.7 9.8 Q-3.15 7.0 -3.0 3.3 M1.2 4.2 Q2.05 7.2 0.0 10.75" fill="none" stroke="#000000" stroke-linecap="round" stroke-linejoin="round" stroke-width="1.0"/>
  </g>
</svg>
