<?xml version="1.0" encoding="UTF-8" standalone="no"?>
<svg xmlns:xlink="http://www.w3.org/1999/xlink" height="40.45px" width="24.15px" xmlns="http://www.w3.org/2000/svg">
  <g transform="matrix(1.0, 0.0, 0.0, 1.0, 12.05, 20.2)">
    <path d="M11.1 -15.85 L10.3 -12.6 7.75 -5.15 6.3 -1.5 5.95 -0.5 5.55 0.8 5.45 1.05 5.25 1.75 5.0 2.9 4.95 3.0 4.3 5.5 4.1 6.3 Q3.95 6.9 4.4 8.5 4.95 10.1 5.6 10.6 L7.35 12.1 Q8.45 13.05 7.85 14.5 7.2 15.9 6.0 16.05 L3.55 16.0 Q2.3 15.8 1.8 15.25 1.3 14.7 0.45 17.4 -0.45 20.05 -4.7 18.9 -6.5 18.8 -8.65 17.75 -10.8 16.65 -11.0 14.6 -11.2 12.5 -10.6 9.95 -10.0 7.35 -8.8 5.2 L-7.65 2.9 -6.75 0.8 0.4 -18.4 0.85 -19.2" fill="none" stroke="#54453c" stroke-linecap="round" stroke-linejoin="round" stroke-width="2.0"/>
  </g>
</svg>
