<?xml version="1.0" encoding="UTF-8" standalone="no"?>
<svg xmlns:xlink="http://www.w3.org/1999/xlink" height="18.35px" width="18.05px" xmlns="http://www.w3.org/2000/svg">
  <g transform="matrix(1.0, 0.0, 0.0, 1.0, 9.05, 9.2)">
    <path d="M7.95 -3.35 L7.4 -2.3 7.1 -2.05 Q7.0 -1.45 7.4 0.05 L7.95 1.3 Q4.85 3.35 4.5 6.75 4.2 6.9 3.85 7.9 -3.3 8.8 -7.95 6.4 L-8.0 6.15 Q-8.2 4.05 -7.6 1.5 -7.0 -1.1 -5.8 -3.25 L-5.1 -4.7 Q-5.4 -6.0 -3.9 -8.2 1.15 -5.55 8.0 -5.65 L7.95 -3.35" fill="none" stroke="#000000" stroke-linecap="round" stroke-linejoin="round" stroke-width="2.0"/>
    <path d="M7.1 -2.05 Q-0.25 -2.0 -5.1 -4.7" fill="none" stroke="#000000" stroke-linecap="round" stroke-linejoin="round" stroke-width="1.0"/>
  </g>
</svg>
