<?xml version="1.0" encoding="UTF-8" standalone="no"?>
<svg xmlns:xlink="http://www.w3.org/1999/xlink" height="23.9px" width="19.1px" xmlns="http://www.w3.org/2000/svg">
  <g transform="matrix(1.0, 0.0, 0.0, 1.0, 9.55, 11.95)">
    <path d="M-6.55 -3.55 L-3.6 -11.95 Q0.25 -9.85 8.35 -9.4 L5.6 -0.85 Q5.5 -0.25 5.9 1.2 L6.5 2.55 6.65 2.75 7.1 3.3 8.85 4.8 Q9.95 5.75 9.35 7.2 8.7 8.6 7.5 8.75 L5.05 8.7 Q3.85 8.5 3.35 8.0 L3.3 7.95 Q2.95 7.55 2.45 8.75 L1.95 10.1 Q1.05 12.75 -3.2 11.6 -5.0 11.5 -7.15 10.45 -8.95 9.5 -9.4 7.9 L-9.5 7.3 Q-9.7 5.2 -9.1 2.65 L-8.85 1.8 Q-8.3 -0.3 -7.3 -2.1 L-6.6 -3.55 -6.55 -3.55" fill="#dbdbdb" fill-rule="evenodd" stroke="none"/>
  </g>
</svg>
