<?xml version="1.0" encoding="UTF-8" standalone="no"?>
<svg xmlns:xlink="http://www.w3.org/1999/xlink" height="23.8px" width="19.2px" xmlns="http://www.w3.org/2000/svg">
  <g transform="matrix(1.0, 0.0, 0.0, 1.0, 9.6, 11.9)">
    <path d="M-4.2 -7.55 L-2.7 -11.9 Q2.55 -8.95 9.6 -9.4 L8.05 -5.15 Q1.0 -4.8 -4.2 -7.55 M-6.6 -0.6 L-5.25 -4.4 Q-3.35 -1.45 6.8 -1.7 L5.55 2.1 5.55 2.25 0.9 2.7 Q-4.25 2.85 -6.6 -0.6 M6.45 5.5 L6.6 5.7 Q4.35 7.55 3.3 10.95 L3.25 10.9 Q2.9 10.5 2.4 11.7 -3.5 12.4 -9.45 10.85 L-9.55 10.25 Q-9.75 8.15 -9.15 5.6 L-8.9 4.75 Q-2.6 8.25 6.45 5.5" fill="#434343" fill-rule="evenodd" stroke="none"/>
  </g>
</svg>
