<?xml version="1.0" encoding="UTF-8" standalone="no"?>
<svg xmlns:xlink="http://www.w3.org/1999/xlink" height="21.2px" width="19.1px" xmlns="http://www.w3.org/2000/svg">
  <g transform="matrix(1.0, 0.0, 0.0, 1.0, 9.55, 10.6)">
    <path d="M7.15 -3.0 Q7.3 -1.2 6.9 -0.85 L6.6 -0.6 Q6.5 0.0 6.9 1.5 L7.45 2.75 Q4.35 4.8 4.0 8.2 3.7 8.35 3.35 9.35 -3.8 10.25 -8.45 7.85 L-8.5 7.6 Q-8.7 5.5 -8.1 2.95 -7.5 0.35 -6.3 -1.8 L-5.6 -3.25 Q-5.95 -4.9 -4.25 -6.4 -4.8 -8.05 -3.45 -9.6 1.55 -7.25 8.55 -7.1 8.75 -4.05 7.15 -3.0" fill="none" stroke="#000000" stroke-linecap="round" stroke-linejoin="round" stroke-width="2.0"/>
    <path d="M6.6 -0.6 Q-0.75 -0.55 -5.6 -3.25" fill="none" stroke="#000000" stroke-linecap="round" stroke-linejoin="round" stroke-width="1.0"/>
  </g>
</svg>
