<?xml version="1.0" encoding="UTF-8" standalone="no"?>
<svg xmlns:xlink="http://www.w3.org/1999/xlink" height="31.45px" width="25.05px" xmlns="http://www.w3.org/2000/svg">
  <g transform="matrix(1.0, 0.0, 0.0, 1.0, 12.5, 15.7)">
    <path d="M4.95 9.8 Q5.3 10.2 5.25 11.35 L4.95 13.45 3.85 15.75 Q-8.55 14.7 -12.4 11.85 -12.65 10.45 -12.2 9.2 -11.75 7.95 -10.75 6.8 -9.8 5.6 -9.05 5.15 -10.35 3.9 -10.5 2.55 -10.65 1.2 -9.35 -1.5 -8.1 -4.25 -5.5 -8.5 -2.95 -12.8 -1.65 -15.7 5.25 -15.1 12.55 -11.15 L10.6 -1.6 8.8 5.8 Q8.0 8.9 4.95 9.8" fill="#96abcd" fill-rule="evenodd" stroke="none"/>
  </g>
</svg>
