<?xml version="1.0" encoding="UTF-8" standalone="no"?>
<svg xmlns:xlink="http://www.w3.org/1999/xlink" height="36.6px" width="34.25px" xmlns="http://www.w3.org/2000/svg">
  <g transform="matrix(1.0, 0.0, 0.0, 1.0, 17.15, 18.3)">
    <path d="M16.1 -13.5 L15.6 -10.9 Q15.1 -8.8 14.9 -4.7 L14.85 -3.75 14.8 -3.55 14.85 -3.35 14.7 -1.9 Q14.55 2.3 14.7 5.1 L14.95 8.7 15.05 9.55 Q15.7 15.25 14.4 16.4 9.15 18.05 -3.5 16.6 -6.65 15.35 -9.15 13.75 -13.8 10.7 -16.1 6.25 -16.5 5.7 -11.55 1.25 L-10.75 0.3 -8.3 -2.35 -5.65 -5.95 -4.25 -8.0 -1.3 -12.55 -0.3 -13.95 1.45 -17.3" fill="none" stroke="#000000" stroke-linecap="round" stroke-linejoin="round" stroke-width="2.0"/>
  </g>
</svg>
