<?xml version="1.0" encoding="UTF-8" standalone="no"?>
<svg xmlns:xlink="http://www.w3.org/1999/xlink" height="27.4px" width="23.55px" xmlns="http://www.w3.org/2000/svg">
  <g transform="matrix(1.0, 0.0, 0.0, 1.0, 11.8, 13.7)">
    <path d="M-3.9 -6.8 L-2.6 -8.95 Q0.35 -6.15 1.55 -3.65 L0.3 -1.8 Q-0.9 -4.2 -3.9 -6.8 M-7.8 -13.05 Q-6.05 -12.2 -4.5 -10.5 L-5.45 -8.5 Q-8.75 -11.25 -11.8 -11.2 L-10.35 -13.65 Q-9.55 -13.9 -7.8 -13.05 M11.0 13.3 L10.85 13.7 Q10.85 13.25 7.85 8.7 L9.2 6.85 11.75 10.6 11.0 13.3 M4.45 3.8 Q3.0 2.1 2.1 0.6 L3.45 -1.85 Q4.45 -0.1 5.7 1.5 L7.55 4.3 6.25 6.75 Q5.9 5.45 4.45 3.8" fill="#f9ff7e" fill-rule="evenodd" stroke="none"/>
  </g>
</svg>
