<?xml version="1.0" encoding="UTF-8" standalone="no"?>
<svg xmlns:xlink="http://www.w3.org/1999/xlink" height="32.25px" width="24.85px" xmlns="http://www.w3.org/2000/svg">
  <g transform="matrix(1.0, 0.0, 0.0, 1.0, 12.45, 16.1)">
    <path d="M-8.9 2.65 L-5.45 -4.7 -0.05 -15.9 Q5.55 -16.9 12.4 -12.65 L8.75 -1.7 Q7.1 2.6 6.3 5.8 7.3 10.7 5.7 11.35 L5.6 11.35 Q5.95 13.65 5.7 14.7 L3.9 15.55 0.4 16.15 -3.05 16.05 -3.35 16.0 -7.15 15.2 -10.3 14.05 Q-11.85 13.15 -12.4 12.1 -12.65 10.35 -10.65 7.65 -11.6 6.7 -12.15 5.5 -11.85 3.75 -8.9 2.65" fill="#f9dfc3" fill-rule="evenodd" stroke="none"/>
  </g>
</svg>
