<?xml version="1.0" encoding="UTF-8" standalone="no"?>
<svg xmlns:xlink="http://www.w3.org/1999/xlink" height="50.2px" width="31.3px" xmlns="http://www.w3.org/2000/svg">
  <g transform="matrix(1.0, 0.0, 0.0, 1.0, 15.65, 25.1)">
    <path d="M-4.4 -10.05 L-10.15 0.75 -11.8 4.05 Q-13.1 6.95 -14.0 11.5 L-14.4 13.45 Q-15.0 17.1 -14.25 19.85 -11.5 21.95 -3.8 23.95 5.9 24.9 9.65 20.35 9.15 18.15 9.25 14.4 L9.3 13.15 9.65 4.8 9.75 4.45 Q10.4 -0.1 11.65 -5.05 L13.55 -14.35 14.65 -19.85 M-0.35 -17.8 L-3.75 -11.2 -4.4 -10.05 M2.85 -24.1 L-0.35 -17.8" fill="none" stroke="#000000" stroke-linecap="round" stroke-linejoin="round" stroke-width="2.0"/>
    <path d="M11.65 -5.05 L2.0 -7.25 Q-3.15 -8.15 -4.4 -10.05 M-10.15 0.75 Q-8.9 2.05 -2.35 2.45 4.15 2.8 9.75 4.45 M13.55 -14.35 Q2.1 -15.45 -0.35 -17.8 M9.3 13.15 Q3.2 15.15 -3.85 14.2 -10.9 13.25 -14.0 11.5 M-10.15 0.75 L-10.55 0.65" fill="none" stroke="#000000" stroke-linecap="round" stroke-linejoin="round" stroke-width="1.0"/>
  </g>
</svg>
