<?xml version="1.0" encoding="UTF-8" standalone="no"?>
<svg xmlns:xlink="http://www.w3.org/1999/xlink" height="25.0px" width="19.0px" xmlns="http://www.w3.org/2000/svg">
  <g transform="matrix(1.0, 0.0, 0.0, 1.0, 9.1, 12.55)">
    <path d="M5.05 -9.9 L6.9 -10.25 Q9.9 -10.75 9.9 -8.45 L9.6 -8.1 Q6.75 -7.35 4.15 -8.8 3.85 -9.0 4.1 -9.25 L4.25 -9.4 5.05 -9.9 M6.0 -1.15 L5.8 -1.15 1.85 -1.3 Q0.65 -1.8 1.5 -2.1 2.35 -2.4 3.8 -3.25 5.2 -4.15 5.6 -3.9 5.95 -3.7 4.95 -2.75 L6.9 -2.8 7.7 -2.75 Q7.45 -1.5 6.1 -1.2 L6.0 -1.15 M-1.3 5.25 L-1.75 4.85 -0.85 4.8 2.85 4.15 4.8 4.25 Q4.05 5.1 2.8 5.5 L0.85 5.95 Q-0.35 5.95 -1.3 5.25 M-2.15 -1.0 Q0.0 -1.25 -0.5 -0.2 -1.0 0.8 0.4 2.1 1.75 3.35 -0.45 2.6 -2.7 1.8 -4.95 0.3 L-4.7 -0.25 Q-4.3 -0.75 -2.15 -1.0 M-1.25 -9.25 Q1.25 -9.25 0.35 -6.9 0.15 -6.35 -0.35 -6.7 -0.9 -7.05 -0.95 -7.75 L-1.6 -8.15 Q-2.3 -9.0 -1.25 -9.25 M-7.45 9.55 Q-8.5 8.75 -9.05 7.75 -9.2 7.45 -8.8 7.3 L-8.1 7.6 -6.45 8.8 Q-5.35 9.65 -4.2 9.95 -3.95 10.45 -5.1 10.5 L-6.5 10.15 -7.45 9.55 M-2.35 10.65 L-1.95 10.25 -1.45 10.05 -0.65 11.95 Q-0.45 12.05 -0.8 12.1 L-1.9 12.15 Q-2.55 11.95 -2.5 11.1 L-2.35 10.65" fill="#ffffff" fill-opacity="0.24705882" fill-rule="evenodd" stroke="none"/>
    <path d="M4.25 -9.4 L2.8 -10.0 Q-1.35 -11.9 0.8 -12.55 4.3 -12.35 4.55 -11.95 L4.65 -10.9 Q4.55 -10.5 5.05 -9.9 L4.25 -9.4 M2.9 -7.95 L6.9 -7.5 8.55 -7.5 Q9.75 -7.65 9.35 -6.85 8.95 -6.1 9.2 -5.0 9.4 -3.95 5.55 -5.65 L2.45 -6.95 2.3 -7.1 Q1.85 -7.55 2.9 -7.95 M6.1 -1.2 Q7.75 1.15 5.5 1.75 L2.05 1.5 Q0.95 0.6 2.25 0.4 L4.55 -0.2 6.0 -1.15 6.1 -1.2 M-1.8 -5.85 Q1.25 -5.6 4.05 -4.4 L5.1 -4.1 2.35 -4.1 Q-0.75 -4.2 -2.5 -2.55 -4.25 -0.95 -3.8 -2.9 L-3.2 -5.05 Q-2.6 -5.6 -1.8 -5.85 M0.85 5.95 Q1.3 6.45 3.35 6.4 5.0 5.35 5.3 6.8 5.4 7.2 4.95 7.4 1.5 8.75 -1.7 6.7 -2.45 6.25 -1.85 5.55 L-1.3 5.25 Q-0.35 5.95 0.85 5.95 M3.7 10.4 Q5.35 11.35 3.45 12.05 1.5 12.7 0.6 11.6 0.4 11.3 0.75 11.15 2.15 10.5 3.7 10.4 M-6.35 1.7 Q-3.0 1.4 -0.55 3.25 L-1.7 3.3 Q-3.2 3.05 -3.9 3.95 -4.65 4.85 -6.25 3.6 -7.85 2.3 -6.35 1.7 M-4.2 9.95 Q-3.25 10.2 -2.35 10.65 L-2.5 11.1 Q-2.55 11.95 -1.9 12.15 L-2.4 12.35 Q-5.8 12.9 -7.55 10.4 L-7.6 9.8 -7.45 9.55 -6.5 10.15 -5.1 10.5 Q-3.95 10.45 -4.2 9.95" fill="#000000" fill-opacity="0.32941177" fill-rule="evenodd" stroke="none"/>
  </g>
</svg>
