<?xml version="1.0" encoding="UTF-8" standalone="no"?>
<svg xmlns:xlink="http://www.w3.org/1999/xlink" height="9.7px" width="15.55px" xmlns="http://www.w3.org/2000/svg">
  <g transform="matrix(1.0, 0.0, 0.0, 1.0, 7.8, 4.85)">
    <path d="M-5.35 -4.85 Q-3.55 -3.8 -1.75 -3.3 L1.7 -2.1 7.75 -0.95 Q7.55 1.45 5.8 4.85 L0.15 4.05 Q-5.8 2.55 -7.8 0.75 -7.3 -1.3 -5.35 -4.85 M-1.65 0.35 L-2.25 0.3 Q-2.55 0.35 -2.55 0.5 L-2.35 0.75 -1.75 0.95 -1.15 0.95 Q-0.9 0.95 -0.85 0.8 L-1.05 0.5 -1.65 0.35 M-1.3 -1.35 L-1.95 -1.35 -2.25 -1.2 -2.05 -0.95 -1.4 -0.75 -0.8 -0.75 Q-0.5 -0.75 -0.5 -0.9 L-0.7 -1.15 -1.3 -1.35" fill="#767679" fill-rule="evenodd" stroke="none"/>
  </g>
</svg>
