<?xml version="1.0" encoding="UTF-8" standalone="no"?>
<svg xmlns:xlink="http://www.w3.org/1999/xlink" height="30.0px" width="22.6px" xmlns="http://www.w3.org/2000/svg">
  <g transform="matrix(1.0, 0.0, 0.0, 1.0, 11.3, 15.0)">
    <path d="M10.2 -10.4 Q10.45 -3.05 10.05 0.2 9.6 3.4 7.45 6.75 5.3 10.05 4.75 10.3 4.45 12.7 3.15 14.0 -3.25 14.25 -10.25 10.25 -10.5 8.0 -8.75 6.25 -13.9 1.55 -1.1 -14.0 M0.25 10.35 Q3.1 11.0 4.75 10.3 M0.15 10.35 L0.25 10.35 M-7.85 6.95 L-7.3 7.25 Q-2.9 9.55 0.15 10.35 M-8.75 6.25 L-7.85 6.95" fill="none" stroke="#000000" stroke-linecap="round" stroke-linejoin="round" stroke-width="2.0"/>
    <path d="M0.15 10.35 Q1.85 6.95 1.8 3.55 M0.25 10.35 Q3.5 8.1 5.05 3.75 M-7.85 6.95 Q-7.05 4.95 -7.75 3.0" fill="none" stroke="#000000" stroke-linecap="round" stroke-linejoin="round" stroke-opacity="0.4392157" stroke-width="1.0"/>
  </g>
</svg>
