<?xml version="1.0" encoding="UTF-8" standalone="no"?>
<svg xmlns:xlink="http://www.w3.org/1999/xlink" height="31.45px" width="24.4px" xmlns="http://www.w3.org/2000/svg">
  <g transform="matrix(1.0, 0.0, 0.0, 1.0, 12.2, 15.7)">
    <path d="M0.2 -15.7 L3.1 -15.7 Q6.25 -15.55 9.25 -14.0 L12.2 -11.55 Q11.7 -8.3 11.85 -2.3 13.05 5.3 6.7 7.5 4.3 7.5 2.55 6.9 1.65 6.7 0.95 6.25 L0.55 5.85 Q-0.2 5.15 -1.2 5.15 L-1.8 5.2 -4.6 3.75 -6.9 2.4 Q-9.55 -5.1 -1.9 -12.8 L0.2 -15.7 M-3.95 8.65 L-2.8 9.3 Q-2.1 10.0 -1.1 10.0 L-1.0 10.0 1.4 10.7 5.6 11.1 8.25 14.55 Q4.75 14.3 1.85 15.35 L1.85 15.75 Q-2.2 13.15 -6.95 13.3 L-3.95 8.65 -7.7 11.95 Q-8.95 9.15 -12.2 7.05 L-9.2 5.6 -3.95 8.65" fill="#372b2f" fill-rule="evenodd" stroke="none"/>
  </g>
</svg>
