<?xml version="1.0" encoding="UTF-8" standalone="no"?>
<svg xmlns:xlink="http://www.w3.org/1999/xlink" height="8.75px" width="15.9px" xmlns="http://www.w3.org/2000/svg">
  <g transform="matrix(1.0, 0.0, 0.0, 1.0, 7.95, 4.35)">
    <path d="M-5.65 -4.35 L-3.35 -3.0 Q-1.95 -2.2 -0.55 -1.55 -1.2 -1.4 -1.6 -0.9 L-1.75 -0.8 Q-2.35 -0.1 -2.35 0.8 -2.35 1.8 -1.55 2.55 L-7.95 -1.15 -5.65 -4.35 M2.2 -0.5 Q2.9 -0.05 3.8 0.15 5.55 0.75 7.95 0.75 L7.55 4.3 6.85 4.35 2.65 3.95 0.25 3.25 1.7 2.7 1.85 2.55 Q2.55 1.8 2.55 0.8 2.55 0.05 2.2 -0.5" fill="#af2352" fill-rule="evenodd" stroke="none"/>
  </g>
</svg>
