<?xml version="1.0" encoding="UTF-8" standalone="no"?>
<svg xmlns:xlink="http://www.w3.org/1999/xlink" height="15.95px" width="18.25px" xmlns="http://www.w3.org/2000/svg">
  <g transform="matrix(1.0, 0.0, 0.0, 1.0, 9.05, 8.05)">
    <path d="M6.4 1.95 L5.75 2.2 4.9 2.3 4.7 2.3 5.75 2.1 6.45 1.8 6.4 1.9 6.4 1.95 M-5.4 -2.95 L-5.35 -3.2 -5.35 -5.3 -5.05 -3.8 -5.4 -2.95" fill="#feffcb" fill-rule="evenodd" stroke="none"/>
    <path d="M5.75 2.1 L4.7 2.3 3.95 2.25 Q0.55 2.0 -3.1 0.7 -4.95 0.1 -5.55 -1.45 -6.4 -0.3 -6.55 0.6 L-5.9 -1.0 -5.55 -1.55 -5.5 -1.65 Q-5.2 0.05 -3.0 0.55 0.8 1.9 4.3 2.15 L5.75 2.1 M-5.55 -1.45 L-5.55 -1.55 -5.55 -1.45" fill="#775ae4" fill-rule="evenodd" stroke="none"/>
    <path d="M6.45 1.8 L6.9 1.5 8.3 -0.4 Q8.75 -2.1 7.9 -3.4 M6.4 1.95 L6.4 1.9 6.45 1.8 5.75 2.1 4.7 2.3 3.95 2.25 Q0.55 2.0 -3.1 0.7 -4.95 0.1 -5.55 -1.45 L-5.55 -1.55 -5.4 -2.95 -5.05 -3.8 -5.35 -5.3 Q-4.65 -6.95 -3.2 -7.3" fill="none" stroke="#000000" stroke-linecap="round" stroke-linejoin="round" stroke-width="1.5"/>
    <path d="M-5.9 -1.0 Q-7.3 -0.2 -7.8 0.95 L-7.35 2.15 -8.35 3.05 Q-8.7 3.85 -7.65 4.6 -3.95 7.45 4.9 7.3 6.3 6.85 6.85 5.9 L6.5 4.45 Q7.25 4.4 7.65 3.4 L6.9 1.5" fill="none" stroke="#000000" stroke-linecap="round" stroke-linejoin="round" stroke-width="1.2000000000000002"/>
  </g>
</svg>
