<?xml version="1.0" encoding="UTF-8" standalone="no"?>
<svg xmlns:xlink="http://www.w3.org/1999/xlink" height="32.05px" width="22.85px" xmlns="http://www.w3.org/2000/svg">
  <g transform="matrix(1.0, 0.0, 0.0, 1.0, 11.45, 16.05)">
    <path d="M11.35 -9.05 Q11.45 -7.0 9.95 0.6 10.15 2.4 9.7 4.4 L8.55 7.6 Q8.6 9.6 7.2 10.35 7.65 13.0 5.4 15.6 L0.85 16.0 Q-3.4 16.1 -7.55 14.85 -10.05 14.1 -11.35 13.05 -11.9 10.7 -9.2 8.15 -10.65 7.2 -10.95 6.35 -11.3 5.2 -10.85 4.4 -10.5 3.7 -9.45 3.3 -10.95 0.5 -8.9 -2.4 L-2.65 -12.85 Q0.5 -16.15 4.65 -16.05 11.8 -14.7 11.35 -9.05" fill="#3a323a" fill-rule="evenodd" stroke="none"/>
  </g>
</svg>
