<?xml version="1.0" encoding="UTF-8" standalone="no"?>
<svg xmlns:xlink="http://www.w3.org/1999/xlink" height="30.05px" width="27.35px" xmlns="http://www.w3.org/2000/svg">
  <g transform="matrix(1.0, 0.0, 0.0, 1.0, 13.65, 15.0)">
    <path d="M10.05 -1.4 Q11.5 6.45 6.75 9.7 6.0 14.35 4.75 15.05 L1.3 14.8 -3.8 14.35 -9.75 13.35 -13.2 12.4 Q-13.85 10.85 -11.3 6.85 -13.95 5.4 -13.6 -0.35 -12.5 -7.0 -7.2 -12.4 L-6.45 -14.8 -1.25 -14.95 -2.0 -12.65 Q-9.25 3.5 -6.15 7.05 L-2.0 7.6 -1.15 7.75 Q-2.4 1.55 0.8 -8.9 L2.7 -14.6 Q8.6 -13.75 13.7 -10.7 L10.05 -1.4" fill="#b34657" fill-rule="evenodd" stroke="none"/>
  </g>
</svg>
