<?xml version="1.0" encoding="UTF-8" standalone="no"?>
<svg xmlns:xlink="http://www.w3.org/1999/xlink" height="35.85px" width="29.3px" xmlns="http://www.w3.org/2000/svg">
  <g transform="matrix(1.0, 0.0, 0.0, 1.0, 16.0, -1.3)">
    <path d="M13.2 9.8 L10.85 9.85 11.1 12.95 12.1 12.75 Q13.15 13.25 12.75 14.35 12.25 15.4 10.55 16.35 8.45 15.15 8.15 14.1 7.8 12.8 9.1 12.55 9.5 12.6 9.8 12.95 L9.6 9.85 0.7 9.1 0.25 12.2 1.05 12.15 Q2.0 12.75 1.45 13.85 0.9 14.85 -1.1 15.45 -2.8 14.0 -3.05 12.95 -3.15 11.65 -1.9 11.55 -1.45 11.65 -1.1 12.1 L-0.45 8.85 Q-5.1 7.95 -8.95 6.05 L-10.55 8.95 -9.75 8.8 Q-8.6 9.55 -9.35 10.65 -10.0 11.45 -12.2 11.75 -13.4 10.25 -13.5 9.1 -13.45 7.9 -12.4 7.85 -11.9 8.05 -11.55 8.45 L-10.15 5.5 -12.2 4.3 -10.7 1.3 Q0.3 6.5 13.1 6.2 L13.2 9.8 M5.15 18.65 Q3.65 17.85 3.45 17.25 3.25 16.5 4.15 16.4 4.7 16.45 5.2 17.15 5.55 16.55 6.4 16.65 7.15 16.9 6.8 17.55 L5.15 18.65 M13.3 18.3 L13.25 20.4 Q7.8 21.7 -1.35 20.35 -11.2 18.5 -16.0 14.8 L-15.55 12.95 Q-8.35 16.8 -1.4 18.4 6.6 19.85 13.3 18.3 M4.15 33.45 L4.25 34.75 Q2.15 34.8 2.0 37.0 L0.85 37.15 Q0.35 35.0 -1.65 34.8 -3.45 34.85 -3.75 37.05 L-5.15 36.7 Q-5.1 34.3 -6.95 33.6 -8.75 33.6 -9.35 35.3 L-11.0 34.45 Q-10.4 32.6 -11.5 32.0 -12.95 31.6 -13.55 32.8 L-13.65 32.7 -13.1 31.15 -10.95 31.05 Q-9.9 31.75 -9.3 33.15 -8.15 32.25 -6.8 32.3 -5.1 32.85 -4.35 34.5 -3.2 33.35 -1.6 33.45 0.35 33.65 1.35 34.8 2.25 33.45 4.15 33.45 M-8.0 15.7 Q-9.3 14.75 -9.5 14.15 -9.55 13.35 -8.6 13.4 -8.05 13.55 -7.7 14.25 -7.3 13.75 -6.45 13.95 -5.7 14.3 -6.1 14.9 -6.6 15.5 -8.0 15.7" fill="#ffffff" fill-rule="evenodd" stroke="none"/>
  </g>
</svg>
