<?xml version="1.0" encoding="UTF-8" standalone="no"?>
<svg xmlns:xlink="http://www.w3.org/1999/xlink" height="143.6px" width="22.55px" xmlns="http://www.w3.org/2000/svg">
  <g transform="matrix(1.0, 0.0, 0.0, 1.0, 11.15, 123.8)">
    <path d="M0.2 -9.35 L0.9 -9.45 3.35 -9.5 3.7 -9.55 3.7 -7.55 Q3.55 7.1 4.0 15.6 L4.1 17.5 Q3.45 19.65 0.2 19.8 L-0.05 19.8 Q-3.35 19.7 -3.95 17.5 L-3.85 15.6 -3.75 15.6 Q-3.35 7.1 -3.5 -7.5 L-3.55 -9.55 -3.15 -9.45 -0.7 -9.45 -0.05 -9.35 0.05 -9.35 0.2 -9.35" fill="#333333" fill-rule="evenodd" stroke="none"/>
    <path d="M0.3 -123.8 L11.4 -105.4 11.4 -23.8 9.3 -24.65 9.1 -27.95 Q7.9 -30.2 5.65 -32.2 3.6 -34.1 0.3 -34.4 -3.15 -34.1 -5.45 -32.4 -7.75 -30.05 -8.8 -27.9 L-9.25 -24.6 -11.15 -23.95 -11.15 -105.4 0.3 -123.8" fill="url(#gradient0)" fill-rule="evenodd" stroke="none"/>
  </g>
  <defs>
    <linearGradient gradientTransform="matrix(0.0, -0.0488, 0.0137, 0.0, 0.05, -75.85)" gradientUnits="userSpaceOnUse" id="gradient0" spreadMethod="pad" x1="-819.2" x2="819.2">
      <stop offset="0.0" stop-color="#d4d4d4"/>
      <stop offset="1.0" stop-color="#ffffff"/>
    </linearGradient>
  </defs>
</svg>
