<?xml version="1.0" encoding="UTF-8" standalone="no"?>
<svg xmlns:xlink="http://www.w3.org/1999/xlink" height="42.85px" width="37.75px" xmlns="http://www.w3.org/2000/svg">
  <g transform="matrix(1.0, 0.0, 0.0, 1.0, 18.85, 21.45)">
    <path d="M4.35 -20.8 Q6.5 -20.1 8.05 -19.0 L10.35 -16.9 Q19.5 -7.95 18.85 1.05 18.2 11.25 5.55 20.45 L0.1 21.3 -2.85 21.4 -5.05 21.25 -7.4 20.85 -8.6 20.45 Q-9.6 20.25 -9.85 18.9 L-9.95 18.8 Q-10.3 17.25 -8.6 16.95 L-5.6 16.9 -5.5 18.05 -3.4 18.7 -3.35 18.7 -3.15 18.7 -2.7 18.7 -2.1 18.55 -1.45 18.45 -0.25 18.05 -0.25 16.5 Q11.4 13.25 12.75 1.1 11.8 -4.3 8.45 -6.75 L6.6 -7.8 5.55 -7.6 3.95 -7.3 -0.25 -6.85 -4.2 -6.85 -7.2 -7.0 Q-11.25 -7.4 -15.35 -8.55 L-18.85 -9.65 Q-17.85 -18.05 -11.0 -20.2 L-9.8 -20.55 -7.3 -21.1 -7.15 -21.1 -7.1 -17.75 -5.45 -18.0 -1.05 -18.3 1.1 -18.25 1.15 -20.05 1.25 -21.45 2.0 -21.35 2.95 -21.1 4.35 -20.8" fill="#54ee8c" fill-rule="evenodd" stroke="none"/>
  </g>
</svg>
