<?xml version="1.0" encoding="UTF-8" standalone="no"?>
<svg xmlns:xlink="http://www.w3.org/1999/xlink" height="163.0px" width="46.15px" xmlns="http://www.w3.org/2000/svg">
  <g transform="matrix(1.0, 0.0, 0.0, 1.0, 23.05, 81.5)">
    <path d="M-6.2 30.6 Q-7.0 2.65 -8.15 -16.15 -10.15 -48.0 -19.7 -74.1 L-22.3 -80.75 Q-2.3 -72.55 7.9 -46.05 10.75 -26.0 5.7 18.15 3.05 23.1 3.0 30.25 L3.85 30.35 4.9 30.6 6.4 30.95 Q8.75 31.7 10.45 32.9 L13.0 35.2 Q23.05 45.05 22.3 54.9 21.6 66.1 7.75 76.2 L1.75 77.1 Q1.35 80.35 -0.9 80.75 L-1.1 80.75 Q-3.2 80.8 -3.9 77.05 L-6.45 76.6 -7.8 76.2 Q-8.9 75.95 -9.15 74.5 L-9.25 74.35 Q-9.65 72.65 -7.8 72.35 L-4.5 72.3 -6.25 46.1 Q-10.7 45.65 -15.2 44.4 L-19.05 43.15 Q-17.95 33.95 -10.4 31.6 L-9.1 31.2 -6.2 30.6 -6.15 34.3 -4.35 34.0 0.5 33.7 2.85 33.75 2.9 31.75 3.0 30.25 M-6.25 46.1 L-2.95 46.25 1.35 46.25 6.0 45.75 7.75 45.4 8.9 45.2 Q10.0 45.7 10.9 46.35 14.6 49.05 15.65 54.95 14.15 68.3 1.35 71.85 L1.35 73.55 0.05 74.0 -0.65 74.1 -1.3 74.25 -1.8 74.25 -2.05 74.25 -2.1 74.25 Q-3.35 74.15 -4.4 73.55 L-4.5 72.3 M1.75 77.1 L-1.5 77.2 -3.9 77.05 M1.35 71.85 L1.35 46.25" fill="none" stroke="#000000" stroke-linecap="round" stroke-linejoin="round" stroke-width="1.5"/>
  </g>
</svg>
