<?xml version="1.0" encoding="UTF-8" standalone="no"?>
<svg xmlns:xlink="http://www.w3.org/1999/xlink" height="150.6px" width="16.5px" xmlns="http://www.w3.org/2000/svg">
  <g transform="matrix(1.0, 0.0, 0.0, 1.0, 8.25, 75.3)">
    <path d="M1.1 -67.0 L-0.35 -67.0 -1.0 -67.0 -2.65 -67.0 -2.65 -71.2 -0.85 -75.3 1.1 -71.2 1.1 -67.0 M0.45 71.25 Q4.15 71.25 4.45 66.15 L4.65 65.8 Q5.2 64.5 6.45 64.75 8.3 64.9 8.25 66.8 7.4 75.7 -0.1 75.3 L-0.6 75.15 Q-5.65 74.05 -7.35 70.15 -8.5 67.6 -8.2 63.8 -8.05 61.45 -7.0 59.45 L-6.4 58.4 -3.7 54.5 Q-2.65 52.85 -2.65 50.2 L-2.65 -16.05 -1.0 -16.1 -0.35 -16.05 1.1 -16.05 1.1 51.75 Q1.15 55.3 -1.1 58.15 -2.6 59.95 -3.35 61.95 L-3.5 62.2 -3.65 62.6 -4.05 64.0 Q-4.65 70.8 0.45 71.25" fill="#1d3323" fill-rule="evenodd" stroke="none"/>
  </g>
</svg>
