<?xml version="1.0" encoding="UTF-8" standalone="no"?>
<svg xmlns:xlink="http://www.w3.org/1999/xlink" height="125.15px" width="25.15px" xmlns="http://www.w3.org/2000/svg">
  <g transform="matrix(1.0, 0.0, 0.0, 1.0, 12.75, 86.25)">
    <path d="M-6.3 -71.75 Q-12.55 -76.6 -12.75 -83.5 L-11.2 -84.85 Q-10.5 -85.45 -9.65 -85.75 L-7.4 -86.25 -4.25 -85.75 Q-2.95 -85.35 -1.5 -84.4 L-0.25 -83.5 0.25 -83.2 Q1.8 -82.1 3.25 -81.55 L5.4 -81.1 Q7.15 -80.85 8.8 -81.45 L10.4 -82.3 12.4 -84.0 Q12.7 -75.8 5.7 -71.65 L3.3 -71.25 -1.4 -71.05 -4.15 -71.35 -6.3 -71.75" fill="#202020" fill-rule="evenodd" stroke="none"/>
    <path d="M5.7 -71.65 L5.9 -71.75 5.9 -50.65 4.85 -49.3 4.85 -46.2 2.85 -45.85 1.15 -45.7 -3.4 -45.85 -5.35 -46.2 -5.35 -49.3 -6.3 -50.9 -6.3 -71.75 -4.15 -71.35 -1.4 -71.05 3.3 -71.25 5.7 -71.65 M-3.4 32.55 L2.85 32.55 2.85 38.25 Q-0.55 39.55 -3.4 38.25 L-3.4 32.55" fill="#cdd1d2" fill-rule="evenodd" stroke="none"/>
  </g>
</svg>
