<?xml version="1.0" encoding="UTF-8" standalone="no"?>
<svg xmlns:xlink="http://www.w3.org/1999/xlink" height="42.25px" width="41.8px" xmlns="http://www.w3.org/2000/svg">
  <g transform="matrix(1.0, 0.0, 0.0, 1.0, 20.9, 21.15)">
    <path d="M3.0 -17.5 L4.2 -16.05 4.55 -15.75 5.6 -15.05 9.9 -14.9 13.0 -17.9 Q16.0 -16.8 20.35 -13.25 L20.85 -12.85 20.9 -12.85 Q19.3 -10.5 16.85 -8.9 14.45 -7.3 13.3 -6.9 11.6 -7.75 10.45 -8.85 L9.25 -9.8 6.0 -10.2 3.25 -6.8 0.0 -6.25 -3.3 -6.8 -6.05 -10.2 -9.3 -9.8 -10.5 -8.85 Q-11.65 -7.75 -13.3 -6.9 -14.5 -7.3 -16.85 -8.9 -19.35 -10.5 -20.9 -12.85 L-20.4 -13.25 Q-16.05 -16.8 -13.0 -17.9 L-9.95 -14.9 -5.6 -15.1 -4.6 -15.75 -4.25 -16.05 0.0 -21.15 2.5 -18.15 3.0 -17.5 M0.0 -3.6 L3.15 -4.1 3.15 19.5 3.0 19.15 0.0 21.1 -3.05 19.15 -3.2 19.5 -3.2 -4.1 0.0 -3.6" fill="#133a1f" fill-rule="evenodd" stroke="none"/>
    <path d="M3.0 -17.5 L2.5 -18.15 3.05 -18.15 2.95 -17.9 3.0 -17.5" fill="url(#gradient0)" fill-rule="evenodd" stroke="none"/>
  </g>
  <defs>
    <linearGradient gradientTransform="matrix(0.0, -0.0668, -0.0056, 0.0, 4.55, -74.05)" gradientUnits="userSpaceOnUse" id="gradient0" spreadMethod="pad" x1="-819.2" x2="819.2">
      <stop offset="0.0" stop-color="#19b61e"/>
      <stop offset="1.0" stop-color="#cdffd2"/>
    </linearGradient>
  </defs>
</svg>
