<?xml version="1.0" encoding="UTF-8" standalone="no"?>
<svg xmlns:xlink="http://www.w3.org/1999/xlink" height="132.75px" width="17.2px" xmlns="http://www.w3.org/2000/svg">
  <g transform="matrix(1.0, 0.0, 0.0, 1.0, 8.6, 66.35)">
    <path d="M3.8 -54.15 L0.65 -54.5 -0.6 -60.9 -4.95 -61.05 -5.35 -64.5 Q-4.7 -65.65 -1.85 -66.3 L-0.55 -66.35 Q1.75 -66.35 2.35 -65.25 L3.8 -54.15 M4.2 -26.0 L6.85 -26.35 6.7 -28.25 8.4 -28.35 8.6 2.15 Q8.25 32.25 2.3 55.15 1.05 58.15 -0.95 60.6 -3.95 64.15 -8.6 66.4 -3.5 37.15 -2.85 1.25 -2.35 -12.2 -3.45 -24.3 L-3.6 -28.2 -1.9 -28.15 -1.55 -26.15 4.2 -26.0 M3.45 -37.2 L6.05 -37.55 8.0 -37.15 8.45 -30.75 6.6 -30.45 3.95 -30.15 Q1.2 -29.9 -2.3 -30.1 L-3.5 -30.2 -3.9 -37.15 -1.6 -37.65 -2.85 -46.3 0.2 -45.25 1.65 -37.7 1.8 -37.25 3.45 -37.2" fill="#05d45c" fill-rule="evenodd" stroke="none"/>
  </g>
</svg>
