<?xml version="1.0" encoding="UTF-8" standalone="no"?>
<svg xmlns:xlink="http://www.w3.org/1999/xlink" height="215.35px" width="24.25px" xmlns="http://www.w3.org/2000/svg">
  <g transform="matrix(1.0, 0.0, 0.0, 1.0, 12.15, 107.7)">
    <path d="M0.05 -101.25 L-8.65 -86.3 -8.65 11.95 -12.15 15.5 -12.15 -87.5 -0.05 -107.7 12.1 -87.5 12.1 15.5 8.65 12.0 8.65 -86.3 0.05 -101.25 M4.3 15.35 Q1.85 16.1 0.0 17.95 -3.2 21.1 -3.2 25.6 -3.2 30.2 0.0 33.35 1.85 35.25 4.3 36.05 L0.8 36.5 -0.2 36.45 Q-4.1 36.15 -6.9 33.35 -10.1 30.2 -10.1 25.6 -10.1 21.1 -6.9 17.95 -3.75 14.8 0.8 14.8 L1.25 14.8 1.3 14.8 1.4 14.8 4.3 15.35 M1.95 105.55 L-0.05 107.65 -2.05 105.55 -2.05 99.9 -0.05 98.9 1.95 99.9 1.95 105.55 M6.5 22.35 Q7.85 23.65 7.85 25.5 7.85 27.25 6.5 28.6 5.3 29.7 3.75 29.8 L3.4 29.8 Q1.6 29.8 0.25 28.6 -0.95 27.25 -0.95 25.5 -0.95 23.65 0.25 22.35 1.6 21.05 3.4 21.05 L3.5 21.05 Q5.25 21.1 6.5 22.35" fill="#28c91b" fill-rule="evenodd" stroke="none"/>
  </g>
</svg>
