<?xml version="1.0" encoding="UTF-8" standalone="no"?>
<svg xmlns:xlink="http://www.w3.org/1999/xlink" height="95.15px" width="90.55px" xmlns="http://www.w3.org/2000/svg">
  <g transform="matrix(1.0, 0.0, 0.0, 1.0, 45.25, 47.6)">
    <path d="M1.8 -37.35 Q10.05 -37.35 16.95 -34.1 29.3 -29.2 41.0 -30.0 35.45 -25.55 28.95 -24.9 37.6 -15.0 37.6 -1.55 L37.35 3.15 Q39.15 15.5 45.3 24.6 38.7 22.0 33.6 15.1 31.2 19.55 27.4 23.45 L27.15 23.75 Q14.2 37.1 9.15 47.55 8.05 40.45 11.55 32.95 6.95 34.2 1.8 34.2 L-6.4 33.3 -7.8 33.0 Q-11.65 31.95 -15.1 30.1 -27.2 25.6 -38.9 26.4 -33.3 21.9 -25.9 21.1 -34.0 11.4 -34.0 -1.55 L-33.95 -3.35 Q-38.5 -12.1 -45.25 -18.0 -38.15 -17.2 -32.25 -12.85 -30.0 -19.75 -24.8 -25.45 -16.45 -36.1 -14.25 -47.6 -11.35 -41.05 -12.5 -34.45 -5.95 -37.35 1.8 -37.35 M21.55 -21.45 Q13.35 -29.65 1.75 -29.65 -9.85 -29.65 -18.05 -21.45 -26.25 -13.25 -26.25 -1.65 -26.25 9.95 -18.05 18.15 -9.85 26.35 1.75 26.35 13.35 26.35 21.55 18.15 29.75 9.95 29.75 -1.65 29.75 -13.25 21.55 -21.45" fill="#9affae" fill-rule="evenodd" stroke="none"/>
  </g>
</svg>
