<?xml version="1.0" encoding="UTF-8" standalone="no"?>
<svg xmlns:xlink="http://www.w3.org/1999/xlink" height="63.1px" width="63.1px" xmlns="http://www.w3.org/2000/svg">
  <g transform="matrix(1.0, 0.0, 0.0, 1.0, 31.55, 31.55)">
    <path d="M22.3 -22.3 Q31.55 -13.05 31.55 0.0 31.55 13.05 22.3 22.3 13.05 31.55 0.0 31.55 -13.05 31.55 -22.3 22.3 -31.55 13.05 -31.55 0.0 -31.55 -13.05 -22.3 -22.3 -13.05 -31.55 0.0 -31.55 13.05 -31.55 22.3 -22.3 M27.95 -0.35 Q27.95 -11.95 19.75 -20.15 11.55 -28.35 -0.05 -28.35 -11.65 -28.35 -19.85 -20.15 -28.05 -11.95 -28.05 -0.35 -28.05 11.25 -19.85 19.45 -11.65 27.65 -0.05 27.65 11.55 27.65 19.75 19.45 27.95 11.25 27.95 -0.35" fill="#4579c2" fill-rule="evenodd" stroke="none"/>
  </g>
</svg>
