<?xml version="1.0" encoding="UTF-8" standalone="no"?>
<svg xmlns:xlink="http://www.w3.org/1999/xlink" height="44.6px" width="91.45px" xmlns="http://www.w3.org/2000/svg">
  <g transform="matrix(1.0, 0.0, 0.0, 1.0, 46.05, 118.3)">
    <path d="M45.4 -87.1 Q42.9 -83.45 33.65 -83.5 36.3 -82.05 38.6 -81.2 L37.9 -81.0 Q32.8 -79.65 26.95 -81.95 29.0 -79.25 30.05 -76.55 25.3 -74.95 20.2 -78.6 20.95 -76.05 20.85 -73.7 L20.5 -73.75 Q17.35 -74.1 14.05 -77.7 13.15 -75.15 12.1 -74.15 L9.15 -78.2 9.4 -79.6 Q9.9 -79.15 10.7 -79.15 L10.75 -79.2 Q11.75 -79.15 12.4 -79.7 13.05 -80.35 13.05 -81.3 13.1 -82.2 12.4 -82.8 11.75 -83.5 10.8 -83.5 L18.9 -90.9 Q21.2 -92.75 24.95 -91.5 L25.5 -91.25 Q32.2 -88.45 39.85 -88.35 L40.5 -88.2 Q44.75 -88.05 45.4 -87.1 M-11.45 -83.45 Q-12.35 -83.45 -13.05 -82.8 -13.6 -82.25 -13.65 -81.25 -13.65 -80.35 -13.0 -79.7 -12.4 -79.1 -11.45 -79.1 L-11.35 -79.1 Q-10.55 -79.15 -9.95 -79.7 L-9.9 -79.75 Q-10.0 -78.85 -9.7 -78.25 L-12.65 -74.1 Q-13.75 -75.15 -14.65 -77.7 -17.9 -74.1 -21.15 -73.75 L-21.4 -73.75 Q-21.55 -76.05 -20.75 -78.65 -25.9 -74.95 -30.7 -76.45 -29.7 -79.15 -27.6 -81.85 -33.5 -79.6 -38.5 -81.0 L-39.2 -81.2 Q-36.85 -82.05 -34.3 -83.45 -43.55 -83.45 -46.05 -87.05 -45.45 -87.95 -41.1 -88.25 L-40.55 -88.35 Q-32.85 -88.4 -26.1 -91.25 L-25.65 -91.5 Q-21.8 -92.75 -19.5 -90.85 L-11.45 -83.45" fill="#fcfcfc" fill-rule="evenodd" stroke="none"/>
    <path d="M17.65 -100.55 Q17.7 -93.2 12.4 -88.0 7.65 -83.15 0.95 -82.85 L-0.8 -82.85 Q-7.7 -83.1 -12.6 -87.95 -17.75 -93.2 -17.8 -100.5 -17.8 -107.85 -12.6 -112.95 -7.4 -118.2 -0.1 -118.3 7.3 -118.25 12.4 -113.05 17.65 -107.9 17.65 -100.55" fill="url(#gradient0)" fill-rule="evenodd" stroke="none"/>
  </g>
  <defs>
    <radialGradient cx="0" cy="0" gradientTransform="matrix(0.0374, 0.0, 0.0, 0.0374, -6.4, -111.0)" gradientUnits="userSpaceOnUse" id="gradient0" r="819.2" spreadMethod="pad">
      <stop offset="0.10980392156862745" stop-color="#ffffff" stop-opacity="0.4392157"/>
      <stop offset="1.0" stop-color="#ffffff" stop-opacity="0.0"/>
    </radialGradient>
  </defs>
</svg>
