<?xml version="1.0" encoding="UTF-8" standalone="no"?>
<svg xmlns:xlink="http://www.w3.org/1999/xlink" height="167.85px" width="73.45px" xmlns="http://www.w3.org/2000/svg">
  <g transform="matrix(1.0, 0.0, 0.0, 1.0, 37.35, 124.95)">
    <path d="M2.6 -46.35 L2.55 41.5 Q2.4 42.5 -0.05 42.85 L-1.4 42.9 Q-4.45 42.65 -4.9 41.45 L-4.75 -46.25 -3.65 -45.95 -3.6 -45.95 -3.45 -45.9 -3.05 -45.9 -2.6 -45.95 -2.65 -45.9 -1.75 -46.15 -1.3 -46.1 -1.2 -46.05 0.8 -45.85 Q1.75 -45.9 2.4 -46.25 L2.6 -46.35" fill="#f3f8ff" fill-rule="evenodd" stroke="none"/>
    <path d="M6.2 -99.85 Q8.7 -104.3 7.2 -109.8 L5.85 -113.1 M23.05 -116.1 Q23.3 -113.85 22.95 -111.8 22.45 -108.3 19.8 -105.65 M24.4 -93.35 Q29.05 -94.05 31.65 -97.2 32.95 -98.8 33.8 -100.85 M24.25 -94.6 Q22.9 -93.45 21.45 -92.75 17.0 -90.55 11.35 -92.7 M23.7 -84.9 Q28.15 -82.1 32.65 -81.65 L35.35 -81.6 M18.3 -75.5 Q17.0 -75.9 15.75 -76.6 8.9 -80.0 8.6 -86.25 M10.65 -60.3 Q11.95 -58.9 14.1 -58.4 M16.4 -74.15 Q17.8 -69.15 21.35 -66.25 M-5.6 -124.2 L-2.2 -123.1 Q4.75 -120.2 8.05 -112.5 M-30.15 -109.2 Q-21.45 -113.5 -11.4 -111.25 M-0.95 -71.9 Q-3.4 -66.1 -0.25 -61.15 L0.85 -59.7 M-7.6 -97.0 L-7.9 -97.3 M-10.2 -57.15 Q-12.5 -60.3 -13.75 -64.65 M-11.65 -85.65 Q-20.9 -80.0 -19.6 -70.4 M-24.25 -81.35 Q-28.05 -71.75 -25.5 -61.95 M-21.5 -100.75 Q-32.45 -95.0 -36.6 -86.0 M-8.2 -97.55 Q-14.4 -102.45 -23.1 -97.15" fill="none" stroke="#ffffff" stroke-linecap="round" stroke-linejoin="round" stroke-width="1.5"/>
    <path d="M3.6 -53.0 L3.85 -52.75 4.3 -51.55 5.85 -51.6 10.4 -52.05 11.2 -52.1 Q20.45 -53.25 21.7 -55.45 L19.65 -56.0 17.6 -56.05 16.8 -56.0 10.05 -54.85 3.6 -53.0 Q7.25 -56.5 13.7 -57.85 L14.1 -58.4 17.75 -62.05 21.3 -66.25 21.35 -66.25 21.7 -66.8 Q24.65 -70.8 26.5 -74.95 26.55 -72.85 27.15 -71.35 27.85 -69.75 29.1 -68.75 L29.95 -68.15 Q31.55 -67.35 33.9 -67.25 28.45 -62.95 22.0 -58.8 L21.65 -58.6 21.1 -58.15 21.2 -58.15 23.7 -57.8 35.3 -63.1 Q30.5 -54.55 36.1 -54.25 30.7 -51.75 25.3 -49.9 L25.15 -49.7 25.65 -48.15 Q26.2 -46.1 26.1 -44.6 L26.1 -44.15 Q25.85 -42.9 25.1 -42.1 23.95 -40.85 21.6 -40.8 L21.5 -40.8 21.35 -40.8 21.25 -40.85 21.05 -40.8 Q13.45 -40.45 6.85 -44.9 L4.35 -46.95 Q3.9 -47.2 3.6 -47.55 L3.3 -46.95 2.6 -46.35 2.55 41.5 Q2.4 42.5 -0.05 42.85 L-1.4 42.9 Q-4.45 42.65 -4.9 41.45 L-4.75 -46.25 -5.0 -46.35 -5.05 -46.35 -5.85 -46.95 Q-10.45 -43.25 -19.45 -40.8 -26.2 -39.15 -28.9 -41.95 -29.7 -42.9 -30.2 -44.15 -30.35 -47.35 -29.0 -49.45 L-28.2 -50.55 -29.25 -52.05 Q-30.35 -54.25 -29.7 -57.2 -28.5 -60.0 -23.0 -59.7 L-22.9 -59.65 Q-17.5 -59.4 -12.2 -57.8 L-10.2 -57.15 Q-6.65 -55.85 -5.1 -54.15 L-4.85 -54.0 -4.35 -54.35 -2.2 -54.9 -2.05 -54.9 -1.05 -55.0 -0.2 -55.0 -0.1 -54.9 0.15 -54.9 0.45 -54.8 Q1.85 -54.6 2.95 -53.65 L3.6 -53.0 M-7.2 -54.0 Q-14.4 -56.65 -18.5 -56.65 -21.05 -56.65 -22.45 -55.6 -21.95 -52.95 -7.25 -52.3 L-6.0 -52.2 -5.85 -52.25 -5.65 -52.85 -5.4 -53.3 -5.65 -53.35 -6.85 -53.85 -7.2 -54.0 M-2.6 -45.95 L-2.55 -45.95 -2.3 -46.0 -2.6 -45.95" fill="#ffffff" fill-opacity="0.28627452" fill-rule="evenodd" stroke="none"/>
  </g>
</svg>
