<?xml version="1.0" encoding="UTF-8" standalone="no"?>
<svg xmlns:xlink="http://www.w3.org/1999/xlink" height="28.6px" width="28.4px" xmlns="http://www.w3.org/2000/svg">
  <g transform="matrix(1.0, 0.0, 0.0, 1.0, 0.6, 18.55)">
    <path d="M14.7 -17.4 L14.7 -17.55 14.7 -17.7 14.8 -17.7 16.0 -17.9 16.75 -17.8 17.0 -17.7 17.1 -17.65 17.1 -17.55 16.9 -17.4 16.85 -17.4 16.0 -17.65 14.9 -17.4 14.7 -17.4 M17.6 -12.55 L17.7 -12.55 17.75 -12.45 Q18.3 -11.6 18.2 -10.85 L18.1 -10.25 17.95 -10.05 17.85 -10.25 17.85 -10.4 17.95 -10.9 17.5 -12.3 17.5 -12.35 17.6 -12.55 M9.45 -11.0 L9.55 -10.9 9.45 -10.75 9.35 -10.75 9.2 -10.75 8.95 -10.9 7.85 -11.2 7.3 -11.1 7.15 -11.2 7.15 -11.25 Q7.05 -11.45 7.25 -11.45 L7.85 -11.5 9.0 -11.25 9.45 -11.0 M3.65 -3.55 L3.9 -3.55 4.6 -2.0 4.6 -1.4 4.6 -1.3 4.45 -1.25 Q4.35 -1.25 4.35 -1.3 L4.35 -1.5 4.25 -2.0 Q4.2 -2.7 3.65 -3.3 L3.6 -3.35 3.65 -3.55 M1.35 -12.2 L1.55 -12.3 1.65 -12.3 1.7 -12.1 1.65 -12.05 1.45 -11.5 Q1.35 -10.85 1.7 -10.05 L1.65 -10.0 1.65 -9.9 Q1.45 -9.8 1.35 -10.0 1.1 -10.85 1.2 -11.6 L1.35 -12.2 M27.7 -9.05 L27.8 -9.05 27.8 -8.9 27.7 -8.8 27.65 -8.8 27.1 -8.9 25.7 -8.45 25.6 -8.35 25.4 -8.45 25.5 -8.7 27.1 -9.15 27.7 -9.05 M23.45 -4.3 L23.55 -4.3 23.7 -4.3 23.7 -4.05 23.65 -4.05 Q22.8 -3.55 22.0 -3.55 L21.6 -3.55 21.45 -3.6 21.35 -3.7 21.35 -3.8 21.5 -3.95 21.6 -3.95 22.0 -3.85 Q22.7 -3.85 23.45 -4.3 M27.45 -0.15 L27.65 -0.05 27.65 0.05 26.45 1.25 25.85 1.5 25.7 1.4 25.6 1.3 25.7 1.15 25.75 1.05 26.25 0.9 27.3 -0.15 27.45 -0.2 27.45 -0.15 M16.75 3.45 L16.75 3.35 16.85 3.25 17.0 3.25 17.0 3.35 17.25 3.85 18.35 4.8 18.35 4.95 18.35 5.15 18.3 5.15 18.2 5.15 Q17.35 4.7 16.9 4.05 L16.75 3.45 M11.05 9.05 L11.85 8.9 12.0 8.9 12.1 9.05 12.1 9.15 12.0 9.2 11.9 9.3 11.85 9.3 11.25 9.4 Q10.65 9.55 10.15 10.05 L9.85 10.05 9.85 9.8 11.05 9.05 M3.75 2.85 L3.9 2.95 3.9 3.1 3.75 3.2 3.25 3.35 2.2 4.35 2.05 4.45 1.9 4.2 1.95 4.2 3.05 3.1 3.75 2.85" fill="#78ccdc" fill-rule="evenodd" stroke="none"/>
    <path d="M10.2 -18.55 L10.3 -18.55 10.4 -18.5 10.45 -18.5 10.65 -16.85 10.4 -16.2 Q10.4 -16.1 10.2 -16.1 L10.15 -16.2 10.15 -16.35 10.3 -16.85 10.15 -18.3 10.15 -18.5 10.2 -18.55 M5.3 -8.2 L5.8 -7.85 5.8 -7.7 5.7 -7.6 5.6 -7.5 5.55 -7.7 5.05 -7.95 3.65 -8.3 3.5 -8.35 3.5 -8.45 3.65 -8.65 5.3 -8.2 M21.95 -8.3 L21.85 -8.2 21.45 -7.85 20.75 -6.5 20.75 -6.4 20.6 -6.4 20.5 -6.6 Q20.65 -7.5 21.15 -8.1 L21.7 -8.45 21.75 -8.45 21.95 -8.35 21.95 -8.3 M20.75 6.15 L20.85 6.15 20.9 6.35 Q20.75 7.25 20.25 7.75 L19.65 8.2 19.45 8.1 19.45 8.05 19.55 7.95 20.0 7.5 20.65 6.25 20.75 6.15 M7.85 2.0 L7.85 2.1 6.55 2.95 5.9 3.1 5.7 3.1 5.7 2.95 5.7 2.85 5.9 2.85 6.45 2.65 7.6 1.9 7.65 1.75 7.85 1.8 7.85 2.0" fill="#f25194" fill-rule="evenodd" stroke="none"/>
    <path d="M11.55 -13.15 L11.75 -13.2 11.9 -13.2 12.15 -12.95 13.1 -12.9 13.8 -12.95 13.85 -12.95 14.05 -12.8 13.85 -12.6 13.1 -12.55 12.0 -12.7 11.65 -12.95 11.55 -13.05 11.55 -13.15 M19.15 -15.0 L19.15 -15.1 20.3 -15.95 21.1 -16.0 21.15 -16.0 21.25 -15.95 21.35 -15.85 21.25 -15.75 21.15 -15.7 21.0 -15.7 20.4 -15.6 19.4 -14.85 19.3 -14.85 19.15 -14.9 19.15 -15.0 M1.65 -5.3 L1.65 -5.15 Q1.55 -5.05 1.45 -5.05 L1.35 -5.05 0.7 -4.95 -0.35 -4.2 -0.4 -4.2 -0.5 -4.3 -0.6 -4.45 -0.5 -4.45 0.6 -5.25 1.35 -5.4 1.45 -5.4 1.65 -5.3 M26.6 -5.15 L26.8 -5.15 26.85 -5.05 27.55 -3.6 27.55 -2.95 27.45 -2.85 27.4 -2.85 27.2 -2.85 27.2 -3.0 27.2 -3.55 26.6 -4.9 26.55 -4.95 26.6 -5.15 M22.1 -0.2 L22.0 -0.15 21.6 0.3 Q21.15 0.7 21.0 1.5 L20.9 1.55 20.75 1.65 20.65 1.5 Q20.9 0.55 21.45 -0.05 L21.95 -0.4 22.1 -0.3 22.1 -0.2 M15.65 7.5 L15.55 7.45 15.65 7.25 15.9 7.25 16.65 8.7 16.75 9.4 16.65 9.45 16.5 9.55 16.4 9.4 16.4 9.3 16.35 8.7 15.65 7.5 M8.1 5.3 L8.0 5.2 8.1 5.05 Q8.1 4.95 8.25 4.95 L9.45 6.15 9.6 6.75 9.6 6.9 9.55 7.0 9.35 6.9 9.3 6.85 9.1 6.35 8.1 5.3" fill="#fbbc43" fill-rule="evenodd" stroke="none"/>
    <path d="M6.2 -15.6 L6.2 -15.35 5.95 -14.85 Q5.8 -14.15 5.95 -13.4 L5.95 -13.3 5.8 -13.2 5.6 -13.3 5.6 -13.4 Q5.45 -14.25 5.7 -15.0 L5.95 -15.5 6.05 -15.6 6.2 -15.6 M1.35 -1.25 L1.45 -1.4 1.55 -1.5 1.7 -1.3 Q1.9 -0.4 1.55 0.3 L1.2 0.9 1.1 0.95 0.95 0.8 1.05 0.65 1.3 0.1 1.35 -1.25 M23.7 -12.55 L23.9 -12.45 Q24.3 -11.6 24.3 -10.85 L24.25 -10.25 24.05 -10.05 24.0 -10.05 23.9 -10.25 23.9 -10.4 24.0 -10.9 Q24.0 -11.6 23.55 -12.3 L23.55 -12.35 23.7 -12.55 M23.2 2.65 L23.2 2.6 23.2 2.5 23.3 2.4 23.45 2.5 23.45 2.6 23.9 4.1 23.9 4.7 23.7 4.8 23.55 4.8 23.55 4.7 23.55 4.65 23.55 4.05 23.2 2.65 M11.85 5.4 L11.9 5.3 12.4 5.15 13.5 4.2 13.6 4.2 13.8 4.2 13.8 4.35 13.8 4.45 Q13.2 5.15 12.5 5.5 L11.9 5.65 11.85 5.65 11.75 5.5 11.85 5.4 M2.75 6.05 L2.8 6.15 3.15 6.6 Q3.65 7.0 4.45 7.25 L4.6 7.25 4.6 7.45 4.5 7.5 4.35 7.5 2.9 6.75 2.55 6.25 2.55 6.15 2.55 6.05 2.75 6.05" fill="#ffffff" fill-rule="evenodd" stroke="none"/>
    <path d="M9.3 -7.5 Q10.8 -9.15 13.1 -9.15 15.3 -9.15 16.85 -7.5 18.45 -5.9 18.45 -3.7 18.45 -1.5 16.85 0.1 15.3 1.75 13.1 1.75 10.8 1.75 9.3 0.1 7.65 -1.5 7.65 -3.7 7.65 -5.9 9.3 -7.5 Z" fill="none" stroke="#000000" stroke-linecap="round" stroke-linejoin="round" stroke-width="1.0"/>
  </g>
</svg>
