<?xml version="1.0" encoding="UTF-8" standalone="no"?>
<svg xmlns:xlink="http://www.w3.org/1999/xlink" height="208.35px" width="141.4px" xmlns="http://www.w3.org/2000/svg">
  <g transform="matrix(1.0, 0.0, 0.0, 1.0, 70.7, 104.15)">
    <path d="M3.6 -86.55 Q6.15 -90.35 -3.05 -96.45 L-2.65 -96.3 Q3.3 -94.65 9.25 -91.35 L13.9 -80.3 3.6 -86.55 M15.95 -65.2 L15.5 -54.15 Q9.0 -55.4 6.3 -58.2 5.4 -61.25 6.0 -65.85 L15.95 -65.2 M39.9 -58.85 Q52.15 -54.45 60.75 -49.4 50.45 -51.1 40.35 -50.5 L30.15 -55.35 39.9 -58.85 M70.7 -24.2 Q67.65 -14.0 61.1 -1.45 L48.45 6.8 57.2 -9.95 Q64.6 -16.3 70.7 -24.2 M66.65 -17.0 L66.55 -16.9 66.7 -17.0 66.65 -17.0 M41.05 24.55 Q38.1 21.9 36.85 19.4 36.9 15.7 40.35 10.8 L47.25 16.9 41.05 24.55 M56.4 31.05 L60.95 43.45 Q59.0 48.85 56.2 53.4 L56.0 53.75 Q57.6 47.1 56.5 44.15 L56.4 31.05 M35.35 76.6 L41.75 73.2 Q32.75 84.75 21.25 94.3 16.55 99.55 11.4 103.65 10.95 103.85 10.55 104.2 28.85 85.4 36.4 65.5 L35.35 76.6 M-69.65 -102.55 Q-51.15 -105.3 -33.25 -103.3 L-23.0 -95.95 -33.15 -95.05 Q-49.65 -101.35 -70.7 -102.4 L-69.65 -102.55" fill="#47ff43" fill-rule="evenodd" stroke="none"/>
  </g>
</svg>
