<?xml version="1.0" encoding="UTF-8" standalone="no"?>
<svg xmlns:xlink="http://www.w3.org/1999/xlink" height="127.7px" width="110.35px" xmlns="http://www.w3.org/2000/svg">
  <g transform="matrix(1.0, 0.0, 0.0, 1.0, 55.2, 63.85)">
    <path d="M1.8 -55.85 L2.55 -56.5 Q3.55 -57.75 3.6 -59.2 3.6 -60.85 2.55 -61.95 1.25 -63.1 -0.4 -63.1 -2.0 -63.1 -3.15 -62.0 -4.3 -60.7 -4.35 -59.15 -4.3 -57.65 -3.1 -56.55 L-2.45 -55.9 Q-1.5 -55.3 -0.25 -55.35 L1.8 -55.85 2.35 -55.85 Q37.8 -53.75 52.95 -17.4 55.75 -9.95 53.05 -4.85 50.95 -18.1 37.9 -20.2 19.7 -19.05 17.75 -3.85 15.1 -18.9 3.7 -19.75 L4.0 50.75 5.65 53.0 Q8.6 55.85 12.7 55.9 16.8 55.8 18.4 53.35 19.9 50.75 20.15 49.4 L20.45 47.55 Q20.45 46.2 21.4 45.15 L22.4 44.45 23.7 44.15 Q24.85 44.25 25.95 45.15 26.8 46.15 26.8 47.5 28.2 49.3 24.05 57.2 17.05 66.4 4.35 61.3 -5.2 56.2 -3.8 43.45 L-4.15 -19.75 Q-17.2 -18.1 -17.65 -3.25 L-17.65 -2.8 Q-19.6 -18.45 -38.05 -19.4 -51.15 -17.25 -52.95 -3.95 -55.9 -8.95 -53.05 -16.55 -38.4 -53.0 -4.25 -55.9 L-2.45 -55.9 M-4.15 -19.75 L1.05 -20.1 3.7 -19.75 M2.35 -55.85 Q16.9 -35.75 17.75 -3.85 M-4.25 -55.9 Q-17.6 -36.55 -17.65 -3.25" fill="none" stroke="#000000" stroke-linecap="round" stroke-linejoin="round" stroke-width="1.5"/>
  </g>
</svg>
