<?xml version="1.0" encoding="UTF-8" standalone="no"?>
<svg xmlns:xlink="http://www.w3.org/1999/xlink" height="99.5px" width="30.0px" xmlns="http://www.w3.org/2000/svg">
  <g transform="matrix(1.0, 0.0, 0.0, 1.0, 15.0, 49.75)">
    <path d="M-10.35 17.2 L-14.25 -29.9 -0.05 -49.0 0.05 -49.0 14.25 -29.9 10.35 17.2 14.0 17.25 Q14.45 24.5 6.2 29.1 L5.75 40.7 5.45 45.25 Q3.7 49.0 0.55 49.0 L0.0 49.0 -0.55 49.0 Q-3.7 49.0 -5.45 45.25 L-5.75 40.7 -6.2 29.1 Q-14.45 24.5 -14.0 17.25 L-10.35 17.2 0.05 17.2 10.35 17.2 M-5.75 40.7 L5.75 40.7 M6.2 29.1 L-6.2 29.1" fill="none" stroke="#000000" stroke-linecap="round" stroke-linejoin="round" stroke-width="1.5"/>
    <path d="M0.05 17.2 L0.05 -34.4" fill="none" stroke="#000000" stroke-linecap="round" stroke-linejoin="round" stroke-opacity="0.60784316" stroke-width="1.0"/>
  </g>
</svg>
