<?xml version="1.0" encoding="UTF-8" standalone="no"?>
<svg xmlns:xlink="http://www.w3.org/1999/xlink" height="89.2px" width="40.2px" xmlns="http://www.w3.org/2000/svg">
  <g transform="matrix(1.0, 0.0, 0.0, 1.0, 20.1, 44.6)">
    <path d="M-17.35 17.1 Q-18.35 9.65 -14.2 8.6 L-14.6 4.15 -16.15 3.85 Q-17.5 3.35 -18.1 2.05 -18.65 0.7 -18.1 -0.65 -17.55 -2.0 -16.2 -2.55 L-15.35 -2.8 -17.2 -21.55 -19.35 -42.95 -12.7 -43.55 -9.1 -43.85 -6.55 -18.65 Q-2.8 -17.05 -2.65 -11.3 -2.55 -2.75 -1.95 3.95 6.35 5.85 6.25 11.55 6.15 17.25 0.5 19.05 L1.35 21.4 Q3.45 26.3 7.3 27.55 10.95 28.75 16.25 26.6 20.1 25.15 19.2 35.35 18.15 43.9 14.55 43.85 8.8 42.7 4.4 40.2 -7.1 33.75 -10.3 18.55 -13.0 18.45 -13.6 14.65 L-14.2 8.6 -12.35 7.7 M-12.7 -43.55 L-11.1 -27.65 -10.35 -19.3 Q-8.1 -19.35 -6.55 -18.65 M-15.35 -2.8 L-13.5 -2.55 Q-12.2 -2.0 -11.65 -0.7 -11.1 0.65 -11.65 2.0 -12.2 3.35 -13.55 3.9 L-14.6 4.15 M-11.1 -27.65 L-17.2 -21.55 M-1.95 3.95 Q-1.6 8.95 -0.9 12.9 L3.0 12.2 M-10.3 18.55 Q-7.1 16.6 -7.15 12.8 L-10.35 -19.3 M7.3 27.55 L4.4 40.2 M-0.9 12.9 L0.5 19.05" fill="none" stroke="#000000" stroke-linecap="round" stroke-linejoin="round" stroke-width="1.5"/>
  </g>
</svg>
