<?xml version="1.0" encoding="UTF-8" standalone="no"?>
<svg xmlns:xlink="http://www.w3.org/1999/xlink" height="117.4px" width="43.9px" xmlns="http://www.w3.org/2000/svg">
  <g transform="matrix(1.0, 0.0, 0.0, 1.0, 21.95, 58.7)">
    <path d="M16.8 58.7 L9.2 52.9 13.65 46.05 21.95 51.45 16.8 58.7 M-3.55 34.5 Q-3.7 32.05 -2.25 30.1 -1.3 28.8 -0.1 28.1 0.95 27.5 2.3 27.3 L5.15 27.4 2.65 31.25 Q1.05 33.45 3.3 35.35 4.9 35.95 7.0 33.7 L9.3 30.5 Q10.0 31.7 10.2 33.1 10.65 35.95 8.95 38.25 7.55 40.2 5.25 40.75 L4.4 41.0 2.35 41.0 Q0.75 40.8 -0.75 39.75 -2.25 38.65 -2.95 37.05 L-3.5 35.2 -3.55 34.5 M-12.15 -57.15 Q-10.8 -55.5 -12.05 -53.6 L-15.2 -51.0 Q-18.35 -47.6 -21.65 -49.75 -22.7 -53.45 -20.1 -55.3 L-17.65 -57.3 Q-14.3 -60.15 -12.15 -57.15" fill="#f1dc1f" fill-rule="evenodd" stroke="none"/>
  </g>
</svg>
