<?xml version="1.0" encoding="UTF-8" standalone="no"?>
<svg xmlns:xlink="http://www.w3.org/1999/xlink" height="62.4px" width="62.3px" xmlns="http://www.w3.org/2000/svg">
  <g transform="matrix(1.0, 0.0, 0.0, 1.0, 31.15, 31.2)">
    <path d="M9.35 -1.5 Q8.2 -4.9 4.95 -6.45 1.75 -8.0 -1.75 -6.8 -5.1 -5.65 -6.7 -2.35 -8.25 0.95 -7.1 4.3 -5.9 7.7 -2.6 9.35 0.7 10.9 4.05 9.75 7.55 8.55 9.0 5.25 10.55 1.9 9.35 -1.5 M10.75 -9.7 L13.15 -2.85 19.75 -1.4 31.15 14.45 12.7 11.35 5.4 13.9 3.9 21.65 -11.8 31.2 -7.85 14.5 -11.2 4.9 -18.8 3.35 -31.15 -12.7 -10.65 -9.15 -3.4 -11.7 -1.55 -18.5 14.85 -31.2 10.75 -9.7" fill="#519df1" fill-rule="evenodd" stroke="none"/>
  </g>
</svg>
