<?xml version="1.0" encoding="UTF-8" standalone="no"?>
<svg xmlns:xlink="http://www.w3.org/1999/xlink" height="116.85px" width="45.2px" xmlns="http://www.w3.org/2000/svg">
  <g transform="matrix(1.0, 0.0, 0.0, 1.0, 22.6, 58.45)">
    <path d="M-5.55 -43.6 Q-6.35 -42.2 -7.85 -41.75 L-8.5 -41.7 Q-9.65 -41.6 -10.7 -42.2 -12.05 -43.0 -12.4 -44.4 -12.8 -45.9 -12.05 -47.3 L-10.9 -48.5 -9.75 -49.05 Q-8.35 -49.45 -6.95 -48.6 -5.65 -47.85 -5.2 -46.35 -4.8 -44.95 -5.55 -43.6 M-13.45 -57.95 Q-12.05 -57.2 -11.7 -55.7 -11.25 -54.15 -12.05 -52.8 -12.35 -52.2 -12.95 -51.7 -13.55 -51.25 -14.35 -51.1 -15.8 -50.6 -17.2 -51.45 -18.55 -52.2 -18.95 -53.75 -19.35 -55.2 -18.55 -56.55 L-17.45 -57.75 -16.3 -58.3 Q-14.75 -58.75 -13.45 -57.95 M-16.95 -34.6 Q-11.6 -34.4 -9.7 -37.55 L-6.05 -20.15 -16.5 -18.05 -20.0 -35.9 Q-18.65 -35.0 -16.95 -34.6 M11.4 8.6 Q9.1 17.15 17.25 26.05 27.25 36.9 18.5 49.55 5.85 63.5 -10.0 55.45 -21.8 49.15 -19.0 37.4 -13.85 22.9 -19.6 15.3 -24.0 10.55 -21.95 8.05 L-21.15 7.55 Q-17.65 6.05 -10.3 13.8 -2.9 13.65 -0.55 7.1 L2.3 0.05 Q3.7 -4.9 8.15 -4.0 13.5 -1.65 11.4 8.6 M-14.5 -8.15 L-4.05 -10.15 -2.05 -0.3 -12.65 1.75 -14.5 -8.15 M11.9 34.95 L-7.05 39.75 -5.8 46.35 13.6 41.65 11.9 34.95" fill="#383838" fill-rule="evenodd" stroke="none"/>
  </g>
</svg>
