<?xml version="1.0" encoding="UTF-8" standalone="no"?>
<svg xmlns:xlink="http://www.w3.org/1999/xlink" height="80.1px" width="38.3px" xmlns="http://www.w3.org/2000/svg">
  <g transform="matrix(1.0, 0.0, 0.0, 1.0, 19.15, 40.05)">
    <path d="M-18.4 -20.85 L-14.1 -39.3 -1.65 -28.85 -1.75 -28.45 14.85 18.25 16.4 22.5 17.4 25.5 17.85 26.5 18.0 26.9 Q19.0 30.5 17.35 33.85 15.6 37.45 11.9 38.7 8.15 40.05 4.55 38.3 1.0 36.55 -0.3 32.8 L-1.55 28.9 -3.05 24.5 -18.4 -20.85 -12.55 -18.0 -9.65 -23.95 -3.65 -21.05 -1.75 -28.45 M8.75 14.6 L-3.65 -21.05 M-3.05 24.5 L14.85 18.25 M16.4 22.5 L-1.55 28.9 M18.0 26.9 L-0.3 32.8 M-12.55 -18.0 L-0.15 17.0" fill="none" stroke="#000000" stroke-linecap="round" stroke-linejoin="round" stroke-width="1.5"/>
  </g>
</svg>
