<?xml version="1.0" encoding="UTF-8" standalone="no"?>
<svg xmlns:xlink="http://www.w3.org/1999/xlink" height="112.75px" width="46.05px" xmlns="http://www.w3.org/2000/svg">
  <g transform="matrix(1.0, 0.0, 0.0, 1.0, 23.05, 56.4)">
    <path d="M-5.4 -8.05 Q-13.35 -8.55 -22.05 -12.15 -24.55 -43.25 0.4 -55.65 26.5 -39.8 21.45 -13.7 L7.15 -8.4 6.4 27.95 12.35 33.7 12.35 43.4 Q18.1 43.35 18.55 49.95 17.1 54.55 11.85 55.5 L-10.9 55.6 Q-15.1 55.0 -15.65 50.95 -16.65 44.8 -10.4 43.4 L-9.85 32.7 -5.0 27.75 -5.4 -8.05 -5.4 -11.6 Q-5.05 -24.05 2.05 -26.1 7.25 -20.2 7.2 -11.4 L7.15 -8.4 M-5.0 27.75 L6.4 27.95 M12.35 43.4 L-10.4 43.4" fill="none" stroke="#000000" stroke-linecap="round" stroke-linejoin="round" stroke-width="1.5"/>
  </g>
</svg>
