<?xml version="1.0" encoding="UTF-8" standalone="no"?>
<svg xmlns:xlink="http://www.w3.org/1999/xlink" height="69.1px" width="29.7px" xmlns="http://www.w3.org/2000/svg">
  <g transform="matrix(1.0, 0.0, 0.0, 1.0, 14.85, 34.55)">
    <path d="M-10.75 -3.75 Q-15.3 -5.65 -12.3 -9.5 -15.15 -16.9 -9.05 -23.2 -3.0 -29.4 -3.2 -33.8 6.05 -28.65 4.9 -21.85 L6.25 -22.8 Q10.65 -22.1 9.3 -16.25 13.15 -13.55 11.15 -9.25 L12.45 -9.6 Q15.75 -6.9 12.5 -3.75 L12.05 23.6 12.0 27.3 Q12.05 33.25 8.5 33.8 L6.15 29.7 3.8 25.65 1.25 21.35 -1.85 16.05 -4.25 12.0 -7.1 7.15 -9.95 2.25 Q-15.9 1.6 -13.3 -3.05 L-10.75 -3.75 -8.25 -4.45 11.15 -9.25 M12.5 -3.75 L-9.95 2.25" fill="none" stroke="#000000" stroke-linecap="round" stroke-linejoin="round" stroke-width="1.5"/>
    <path d="M-8.25 -4.45 L9.3 -16.25 M-7.1 7.15 L-1.8 1.7 M3.8 25.65 L9.2 19.6 M12.05 23.6 L6.15 29.7 M1.25 21.35 L6.2 15.0 M-4.25 12.0 L1.0 5.85 M-1.85 16.05 L3.4 10.45 M4.9 -21.85 L-12.3 -9.5" fill="none" stroke="#000000" stroke-linecap="round" stroke-linejoin="round" stroke-width="1.0"/>
  </g>
</svg>
