<?xml version="1.0" encoding="UTF-8" standalone="no"?>
<svg xmlns:xlink="http://www.w3.org/1999/xlink" height="35.6px" width="36.9px" xmlns="http://www.w3.org/2000/svg">
  <g transform="matrix(1.0, 0.0, 0.0, 1.0, 18.45, 17.8)">
    <path d="M9.15 -16.55 Q15.75 -12.7 17.75 -5.35 19.75 2.0 15.9 8.6 12.1 15.2 4.75 17.15 -2.65 19.1 -9.2 15.3 -15.8 11.5 -17.75 4.15 -19.75 -3.2 -15.9 -9.8 L-14.8 -11.45 Q-14.35 -10.25 -13.3 -9.45 L-13.9 -8.7 Q-14.6 -7.45 -14.25 -6.15 -13.85 -4.7 -12.65 -4.05 -11.4 -3.3 -10.1 -3.7 -8.7 -4.05 -8.0 -5.3 -7.3 -6.5 -7.7 -7.9 L-8.2 -9.05 -7.9 -9.45 Q-7.2 -8.4 -5.6 -7.3 -3.95 -6.15 -0.95 -7.0 2.05 -7.85 2.05 -11.65 4.0 -10.45 5.6 -10.95 7.1 -11.45 7.55 -12.85 8.0 -14.2 7.6 -15.65 7.15 -17.05 6.5 -17.8 L9.15 -16.55 M-9.4 7.15 Q-8.25 7.8 -6.95 7.45 -5.7 7.1 -5.05 6.0 -4.4 4.85 -4.7 3.6 -5.1 2.35 -6.2 1.7 -7.35 1.0 -8.55 1.4 -9.85 1.7 -10.5 2.8 -11.15 3.95 -10.8 5.25 -10.5 6.5 -9.4 7.15 M6.35 11.65 Q6.95 10.55 6.65 9.4 6.35 8.2 5.3 7.6 4.2 7.0 3.0 7.3 1.8 7.6 1.2 8.7 0.6 9.75 0.85 10.95 1.2 12.2 2.3 12.8 L4.5 13.05 Q5.7 12.75 6.35 11.65 M8.4 -4.6 Q6.65 -4.1 5.7 -2.5 4.8 -0.95 5.3 0.8 5.75 2.55 7.35 3.45 8.9 4.35 10.65 3.9 12.4 3.4 13.35 1.85 14.25 0.25 13.8 -1.5 13.3 -3.25 11.75 -4.1 10.2 -5.05 8.4 -4.6" fill="#8a695d" fill-rule="evenodd" stroke="none"/>
  </g>
</svg>
