<?xml version="1.0" encoding="UTF-8" standalone="no"?>
<svg xmlns:xlink="http://www.w3.org/1999/xlink" height="97.15px" width="10.75px" xmlns="http://www.w3.org/2000/svg">
  <g transform="matrix(1.0, 0.0, 0.0, 1.0, 5.35, 48.6)">
    <path d="M2.65 40.65 L-2.6 45.85 -1.75 -43.6 Q-1.7 -46.2 0.6 -45.8 2.9 -45.5 2.75 -42.9 L2.65 40.65" fill="#ff3d00" fill-rule="evenodd" stroke="none"/>
    <path d="M-3.65 46.9 Q-4.1 46.45 -4.1 45.85 L-3.25 -43.6 Q-3.2 -45.7 -2.15 -46.55 -1.15 -47.65 0.85 -47.25 4.45 -46.85 4.25 -42.9 L4.25 -42.8 4.15 39.2 4.15 40.65 Q4.15 41.3 3.7 41.75 L-1.55 46.95 Q-2.0 47.35 -2.6 47.35 -3.25 47.35 -3.65 46.9 M2.65 40.65 L2.75 -42.9 Q2.9 -45.5 0.6 -45.8 -1.7 -46.2 -1.75 -43.6 L-2.6 45.85 2.65 40.65" fill="#ff3d00" fill-opacity="0.54901963" fill-rule="evenodd" stroke="none"/>
    <path d="M4.15 39.2 L4.25 -42.8 4.25 -42.9 Q4.45 -46.85 0.85 -47.25 -1.15 -47.65 -2.15 -46.55 -3.2 -45.7 -3.25 -43.6 L-4.1 45.85 Q-4.1 46.45 -3.65 46.9 L-5.35 48.55 -4.8 -43.25 Q-4.25 -48.1 0.6 -48.6 5.8 -48.2 5.25 -41.8 L5.4 37.95 4.15 39.2" fill="#ff3d00" fill-opacity="0.24705882" fill-rule="evenodd" stroke="none"/>
  </g>
</svg>
