<?xml version="1.0" encoding="UTF-8" standalone="no"?>
<svg xmlns:xlink="http://www.w3.org/1999/xlink" height="18.15px" width="18.5px" xmlns="http://www.w3.org/2000/svg">
  <g transform="matrix(1.0, 0.0, 0.0, 1.0, 2.45, 19.4)">
    <path d="M2.7 -16.35 Q3.45 -16.15 3.75 -15.35 L3.2 -14.65 5.05 -12.7 5.45 -13.1 Q6.3 -13.0 6.5 -12.1 L6.15 -11.65 7.85 -9.95 8.25 -10.3 Q9.05 -10.2 9.3 -9.3 L9.0 -9.0 10.9 -7.3 11.45 -7.8 Q12.25 -7.65 12.5 -6.8 L12.15 -6.35 Q12.9 -5.65 13.8 -5.05 L14.4 -5.7 Q15.25 -5.55 15.45 -4.7 L15.0 -4.15 16.05 -3.25 Q15.95 -2.25 15.35 -1.85 L14.4 -1.6 13.7 -2.2 13.25 -1.25 Q12.55 -1.35 12.15 -2.25 L12.45 -3.05 10.75 -4.35 10.25 -3.4 Q9.6 -3.4 9.15 -4.35 L9.6 -5.35 7.55 -6.95 7.0 -5.9 Q6.4 -5.95 5.9 -6.95 L6.45 -8.0 4.75 -9.6 4.3 -8.7 Q3.6 -8.75 3.2 -9.7 L3.7 -10.8 1.85 -12.7 1.45 -11.95 Q0.75 -11.95 0.35 -12.85 L0.8 -13.95 -0.8 -15.95 -1.35 -15.0 Q-1.95 -15.0 -2.45 -15.95 L-1.3 -18.1 -0.1 -19.4 Q0.7 -19.25 0.95 -18.4 L0.45 -17.85 2.2 -15.85 2.7 -16.35" fill="#ffffff" fill-rule="evenodd" stroke="none"/>
  </g>
</svg>
