<?xml version="1.0" encoding="UTF-8" standalone="no"?>
<svg xmlns:xlink="http://www.w3.org/1999/xlink" height="40.45px" width="50.5px" xmlns="http://www.w3.org/2000/svg">
  <g transform="matrix(1.0, 0.0, 0.0, 1.0, 34.6, 54.7)">
    <path d="M1.05 -40.45 L1.05 -40.6 Q0.1 -46.85 -4.9 -50.3 -9.05 -53.15 -14.3 -52.45 -20.0 -51.6 -22.5 -46.85 -25.0 -40.9 -22.95 -35.65 -20.1 -29.9 -13.45 -29.3 -6.35 -29.3 -4.15 -34.65 -2.95 -39.5 -5.35 -42.65 -8.3 -46.15 -11.7 -46.6 -14.8 -47.0 -16.2 -45.6 -18.0 -42.85 -17.4 -39.7 -16.35 -35.25 -13.05 -34.9 -9.75 -35.0 -9.25 -38.1 -9.2 -40.05 -10.8 -40.7 -11.75 -41.0 -11.7 -40.2 -11.55 -39.1 -12.35 -38.5 -12.85 -38.3 -13.3 -38.9 -13.85 -40.05 -13.3 -41.25 -12.5 -42.75 -10.55 -42.55 -7.6 -41.7 -7.45 -38.55 -7.55 -34.05 -12.25 -33.25 -16.5 -33.1 -18.6 -36.5 -20.7 -41.6 -18.55 -45.45 -16.5 -49.15 -11.05 -48.45 -6.95 -48.0 -3.9 -44.2 -1.25 -40.75 -2.05 -35.55 -3.2 -30.4 -8.55 -28.3 -15.65 -26.65 -20.0 -29.5 -24.9 -32.8 -25.8 -39.1 -26.1 -47.1 -21.15 -51.6 -15.15 -56.0 -8.5 -54.2 -1.2 -51.95 1.45 -45.4 5.45 -36.6 -0.15 -28.25 L-0.95 -28.7 -1.9 -28.75 Q1.9 -34.2 1.05 -40.45 M5.7 -35.8 Q9.7 -39.25 13.05 -38.05 16.2 -36.7 15.85 -32.65 15.4 -29.75 11.4 -28.6 14.75 -26.7 13.45 -24.2 12.05 -21.95 9.05 -22.45 7.65 -22.55 6.45 -23.75 7.65 -20.2 5.4 -19.6 3.45 -19.35 1.55 -21.5 L1.6 -22.8 Q1.4 -25.55 0.7 -27.0 L0.2 -27.85 1.15 -28.7 Q4.4 -31.85 5.7 -35.8 M-25.4 -29.25 L-24.85 -28.7 Q-21.8 -25.75 -18.0 -24.45 L-18.3 -23.5 Q-18.65 -21.1 -16.8 -17.45 -17.4 -14.35 -19.75 -14.25 -21.75 -14.35 -22.2 -17.6 -22.6 -16.15 -24.15 -15.25 -26.3 -14.0 -28.0 -15.05 -30.95 -17.5 -28.0 -20.4 -32.35 -19.9 -34.05 -22.65 -35.45 -26.15 -33.25 -28.6 -30.05 -31.35 -25.4 -29.25" fill="#ffffff" fill-rule="evenodd" stroke="none"/>
  </g>
</svg>
