<?xml version="1.0" encoding="UTF-8" standalone="no"?>
<svg xmlns:xlink="http://www.w3.org/1999/xlink" height="9.85px" width="11.4px" xmlns="http://www.w3.org/2000/svg">
  <g transform="matrix(1.0, 0.0, 0.0, 1.0, -10.45, 19.4)">
    <path d="M12.75 -17.15 Q12.15 -16.7 11.5 -16.65 10.9 -16.55 10.6 -16.9 10.35 -17.25 10.55 -17.85 10.8 -18.45 11.4 -18.9 12.0 -19.35 12.6 -19.4 13.25 -19.45 13.5 -19.1 13.8 -18.75 13.55 -18.2 13.35 -17.6 12.75 -17.15 M18.5 -11.0 Q18.7 -11.65 19.35 -12.15 19.95 -12.6 20.65 -12.65 21.35 -12.7 21.65 -12.3 21.95 -11.85 21.75 -11.2 21.55 -10.5 20.9 -10.05 20.3 -9.55 19.6 -9.55 18.9 -9.5 18.6 -9.95 18.3 -10.35 18.5 -11.0" fill="#000000" fill-rule="evenodd" stroke="none"/>
  </g>
</svg>
