<?xml version="1.0" encoding="UTF-8" standalone="no"?>
<svg xmlns:xlink="http://www.w3.org/1999/xlink" height="46.05px" width="46.1px" xmlns="http://www.w3.org/2000/svg">
  <g transform="matrix(1.0, 0.0, 0.0, 1.0, 23.05, 46.05)">
    <path d="M-4.75 -45.5 Q4.6 -47.5 12.55 -42.35 20.55 -37.15 22.5 -27.8 24.5 -18.45 19.3 -10.5 14.1 -2.5 4.75 -0.55 -4.6 1.45 -12.55 -3.75 -20.5 -8.9 -22.5 -18.25 -24.45 -27.6 -19.3 -35.6 -14.1 -43.55 -4.75 -45.5" fill="url(#gradient0)" fill-rule="evenodd" stroke="none"/>
    <path d="M-1.55 -30.6 Q1.6 -31.3 4.3 -29.55 7.0 -27.8 7.65 -24.65 8.3 -21.55 6.55 -18.85 4.8 -16.15 1.65 -15.5 -1.5 -14.85 -4.15 -16.6 -6.85 -18.3 -7.5 -21.45 -8.15 -24.6 -6.4 -27.3 -4.65 -29.95 -1.55 -30.6 M-0.3 -24.6 L-1.3 -23.9 -1.55 -22.7 Q-1.4 -22.05 -0.85 -21.7 L0.35 -21.5 Q1.0 -21.6 1.35 -22.15 1.7 -22.7 1.6 -23.35 1.45 -24.0 0.9 -24.35 L-0.3 -24.6" fill="#54e7ff" fill-rule="evenodd" stroke="none"/>
  </g>
  <defs>
    <linearGradient gradientTransform="matrix(-0.0243, 0.0045, -0.0051, -0.0276, 0.7, -23.1)" gradientUnits="userSpaceOnUse" id="gradient0" spreadMethod="pad" x1="-819.2" x2="819.2">
      <stop offset="0.0" stop-color="#72e3ff" stop-opacity="0.69803923"/>
      <stop offset="1.0" stop-color="#72e3ff" stop-opacity="0.0"/>
    </linearGradient>
  </defs>
</svg>
