<?xml version="1.0" encoding="UTF-8" standalone="no"?>
<svg xmlns:xlink="http://www.w3.org/1999/xlink" height="93.0px" width="40.6px" xmlns="http://www.w3.org/2000/svg">
  <g transform="matrix(1.0, 0.0, 0.0, 1.0, 0.0, 0.0)">
    <path d="M12.25 31.3 Q17.25 34.35 22.8 32.9 28.25 31.6 31.25 26.6 34.2 21.75 32.75 16.1 31.4 10.45 26.5 7.45 21.7 4.35 16.1 5.75 10.6 7.15 7.5 12.1 4.65 17.0 6.0 22.65 7.4 28.25 12.25 31.3 M20.2 38.25 Q14.45 38.55 9.4 35.4 3.25 31.75 1.0 25.3 L0.6 23.75 Q-1.3 16.05 2.9 9.3 6.35 3.9 12.0 1.55 12.9 1.15 13.75 0.9 L14.85 0.6 17.95 0.1 23.15 0.35 Q26.45 0.95 29.55 2.75 36.4 6.85 38.25 14.5 L38.6 16.1 Q39.65 22.8 36.05 28.9 32.75 34.05 27.45 36.4 L40.6 90.3 Q40.7 91.55 38.15 92.55 L37.3 92.9 35.65 93.0 Q33.6 92.9 33.3 91.75 L20.2 38.25" fill="url(#gradient0)" fill-rule="evenodd" stroke="none"/>
  </g>
  <defs>
    <linearGradient gradientTransform="matrix(0.0055, 0.0223, -0.0108, 0.0027, 9.45, 21.4)" gradientUnits="userSpaceOnUse" id="gradient0" spreadMethod="pad" x1="-819.2" x2="819.2">
      <stop offset="0.027450980392156862" stop-color="#b745bd"/>
      <stop offset="0.9882352941176471" stop-color="#d05ee5"/>
    </linearGradient>
  </defs>
</svg>
