<?xml version="1.0" encoding="UTF-8" standalone="no"?>
<svg xmlns:xlink="http://www.w3.org/1999/xlink" height="43.5px" width="61.95px" xmlns="http://www.w3.org/2000/svg">
  <g transform="matrix(1.0, 0.0, 0.0, 1.0, 0.0, 0.0)">
    <path d="M7.15 33.85 L0.35 12.2 Q-1.0 8.45 2.85 8.5 L10.15 8.1 18.2 5.55 Q21.75 4.2 22.3 5.1 23.25 7.0 21.85 7.3 L9.85 11.1 Q6.1 12.2 3.0 11.55 L8.6 29.55 11.45 28.65 7.25 15.05 11.15 16.65 22.5 13.05 24.5 19.4 32.8 16.8 30.8 10.45 37.05 8.45 Q35.25 4.85 38.6 3.85 L38.4 3.1 40.25 2.5 40.5 3.35 Q43.45 2.4 44.55 6.1 L48.45 4.9 Q47.85 1.65 49.95 0.0 50.85 1.9 51.05 4.1 L52.05 7.25 56.05 6.0 56.3 6.75 58.95 5.85 Q61.05 5.0 61.75 6.3 62.45 7.65 60.9 8.2 L57.15 9.45 57.55 10.8 53.55 12.05 53.8 12.85 56.4 14.6 45.95 17.8 Q49.7 27.4 43.65 29.4 37.6 31.45 34.85 29.25 L38.4 40.6 30.5 43.05 Q24.9 45.0 24.0 38.9 22.55 29.0 20.25 28.6 L20.1 28.35 19.4 26.15 14.45 27.7 Q15.3 31.25 12.45 31.55 L13.8 36.05 Q7.55 38.1 6.5 35.5 L7.15 33.85 M37.65 20.4 L32.6 22.05 34.0 26.6 Q38.3 29.05 42.45 27.4 46.7 25.6 43.7 18.5 L39.3 19.9 Q39.35 22.7 40.3 25.9 36.95 25.1 37.65 20.4" fill="#75766e" fill-rule="evenodd" stroke="none"/>
  </g>
</svg>
