<?xml version="1.0" encoding="UTF-8" standalone="no"?>
<svg xmlns:xlink="http://www.w3.org/1999/xlink" height="34.75px" width="66.75px" xmlns="http://www.w3.org/2000/svg">
  <g transform="matrix(1.0, 0.0, 0.0, 1.0, 0.0, 0.0)">
    <path d="M24.05 6.6 L23.25 6.25 23.85 5.7 Q26.45 3.35 29.25 2.8 29.8 -0.1 31.75 0.0 33.95 0.1 33.95 3.05 36.4 3.75 38.95 5.65 L39.6 6.15 38.1 6.8 Q47.05 11.05 54.95 6.35 60.45 2.65 64.7 5.05 65.8 5.65 66.75 6.6 61.6 8.3 57.05 10.6 52.65 12.85 48.8 15.7 42.2 22.55 35.0 24.25 L35.1 27.45 Q38.85 28.45 40.65 32.2 35.9 34.55 31.1 34.75 26.75 34.9 22.35 33.35 22.95 30.4 25.25 28.85 L27.1 27.9 27.1 24.45 Q20.7 23.05 14.4 15.45 11.25 11.55 8.8 10.55 6.25 9.5 4.45 11.55 1.0 15.55 11.6 16.6 15.55 17.1 15.9 20.15 10.25 18.35 4.5 18.65 -0.25 18.05 0.0 11.55 0.75 8.35 3.1 7.3 6.3 5.9 12.45 8.25 19.6 9.85 24.05 6.6" fill="#fdaf22" fill-rule="evenodd" stroke="none"/>
  </g>
</svg>
