<?xml version="1.0" encoding="UTF-8" standalone="no"?>
<svg xmlns:xlink="http://www.w3.org/1999/xlink" height="88.2px" width="26.1px" xmlns="http://www.w3.org/2000/svg">
  <g transform="matrix(1.0, 0.0, 0.0, 1.0, 0.0, 0.0)">
    <path d="M6.95 7.25 L6.85 7.3 Q5.05 7.25 3.6 8.05 L3.35 8.2 3.25 8.25 2.2 7.8 Q0.65 6.95 0.2 5.35 -0.3 3.7 0.5 2.2 1.35 0.7 3.0 0.2 4.7 -0.3 6.2 0.5 7.75 1.3 8.25 2.95 8.7 4.55 7.9 6.1 L6.95 7.25 M4.65 5.75 L5.35 5.45 5.8 4.95 Q6.2 4.3 6.0 3.6 5.75 2.85 5.1 2.6 L3.7 2.45 Q3.05 2.65 2.7 3.3 2.3 3.9 2.55 4.65 2.75 5.35 3.4 5.65 L3.8 5.8 4.65 5.75 M6.65 32.6 L9.5 24.75 15.8 29.85 15.3 31.65 15.35 31.7 15.85 33.55 15.95 33.75 18.0 40.65 20.9 47.0 26.1 69.4 25.45 88.2 16.1 72.35 9.95 49.15 10.2 42.05 17.95 71.55 23.8 81.4 23.85 70.15 16.15 37.4 15.9 36.25 15.1 32.55 13.35 38.35 13.3 38.4 6.65 32.6 M19.25 30.05 L22.05 40.05 Q20.05 40.15 19.7 38.95 L17.4 31.25 Q17.25 30.55 19.25 30.05 M3.65 34.25 Q5.5 33.7 6.0 35.25 L7.65 41.8 Q7.85 42.8 6.2 43.65 L3.65 34.25" fill="#ec5c34" fill-rule="evenodd" stroke="none"/>
  </g>
</svg>
