<?xml version="1.0" encoding="UTF-8" standalone="no"?>
<svg xmlns:xlink="http://www.w3.org/1999/xlink" height="33.2px" width="50.55px" xmlns="http://www.w3.org/2000/svg">
  <g transform="matrix(1.0, 0.0, 0.0, 1.0, -10.95, 39.25)">
    <path d="M17.05 -33.15 Q14.9 -28.55 10.95 -23.95 14.15 -32.9 18.75 -37.45 18.1 -35.3 17.05 -33.15 M36.35 -10.05 Q32.0 -7.6 26.8 -6.05 29.85 -8.65 35.05 -10.95 L41.25 -13.35 36.35 -10.05 M41.85 -38.45 Q31.65 -36.6 20.65 -37.25 29.85 -39.15 40.9 -39.2 L45.35 -39.2 41.85 -38.45 M60.5 -10.45 Q59.55 -23.9 61.0 -32.25 62.25 -20.1 60.5 -10.45" fill="#000000" fill-opacity="0.5176471" fill-rule="evenodd" stroke="none"/>
    <path d="M30.15 -33.65 Q26.75 -31.0 26.25 -26.75 25.8 -22.6 28.4 -19.2 31.05 -15.95 35.2 -15.4 39.45 -14.9 42.85 -17.55 46.1 -20.2 46.6 -24.45 47.15 -28.6 44.5 -31.9 41.9 -35.3 37.65 -35.75 33.45 -36.25 30.15 -33.65 M42.1 -18.5 Q39.15 -16.15 35.4 -16.55 31.65 -17.05 29.35 -20.0 27.1 -22.8 27.4 -26.3 27.65 -26.6 28.7 -26.85 32.15 -27.75 36.35 -26.7 40.9 -25.15 43.55 -22.4 L44.45 -21.2 43.8 -20.25 42.1 -18.5 M29.25 -34.75 Q33.0 -37.75 37.75 -37.15 42.6 -36.65 45.6 -32.85 48.6 -29.05 48.0 -24.2 47.45 -19.45 43.7 -16.45 39.9 -13.45 35.05 -14.0 30.3 -14.6 27.3 -18.4 24.3 -22.15 24.85 -27.0 25.4 -31.75 29.25 -34.75 M30.85 -32.75 Q33.75 -35.1 37.5 -34.65 41.25 -34.25 43.6 -31.3 45.95 -28.35 45.5 -24.5 L45.4 -23.85 44.2 -24.7 Q41.15 -27.35 37.15 -28.65 32.75 -29.55 29.2 -28.6 L27.75 -28.25 Q28.5 -30.95 30.85 -32.75 M41.3 -19.5 L42.95 -21.25 Q40.3 -23.8 36.1 -25.45 L28.7 -25.7 Q28.5 -23.05 30.25 -20.8 32.25 -18.2 35.5 -17.85 38.75 -17.5 41.3 -19.5" fill="#000000" fill-opacity="0.54901963" fill-rule="evenodd" stroke="none"/>
  </g>
</svg>
