<?xml version="1.0" encoding="UTF-8" standalone="no"?>
<svg xmlns:xlink="http://www.w3.org/1999/xlink" height="38.3px" width="32.45px" xmlns="http://www.w3.org/2000/svg">
  <g transform="matrix(1.0, 0.0, 0.0, 1.0, 16.25, 19.15)">
    <path d="M11.05 13.55 Q11.05 15.95 9.05 17.2 L8.9 17.3 Q6.8 18.45 4.1 18.1 0.55 17.65 -0.75 14.45 -2.25 18.35 -7.1 19.15 -9.7 19.15 -10.5 17.05 -11.05 15.7 -10.35 14.15 -13.15 14.45 -15.45 11.95 -17.4 8.65 -14.6 6.0 -15.5 3.25 -14.2 0.35 -12.7 -2.55 -9.95 -2.65 -10.5 -4.5 -8.95 -6.7 L-7.75 -7.55 Q-9.85 -12.45 -6.15 -16.15 -2.0 -19.25 1.35 -19.15 -1.1 -17.25 -1.0 -15.6 -0.9 -14.0 0.6 -13.75 3.75 -14.3 4.8 -13.7 7.3 -12.45 6.2 -9.3 7.25 -9.45 7.95 -8.7 9.4 -6.8 8.5 -5.6 10.6 -5.95 12.55 -3.95 15.15 -0.45 13.05 1.95 15.7 3.0 16.15 6.25 16.8 10.75 11.05 13.55" fill="#ff9ced" fill-rule="evenodd" stroke="none"/>
  </g>
</svg>
