<?xml version="1.0" encoding="UTF-8" standalone="no"?>
<svg xmlns:xlink="http://www.w3.org/1999/xlink" height="33.25px" width="32.2px" xmlns="http://www.w3.org/2000/svg">
  <g transform="matrix(1.0, 0.0, 0.0, 1.0, 0.0, 16.65)">
    <path d="M6.9 -13.55 L8.8 -14.75 Q12.3 -16.65 16.6 -16.65 23.5 -16.65 28.35 -11.75 L28.75 -11.35 30.3 -9.45 31.8 -6.9 32.2 -4.35 30.3 -6.85 28.75 -8.15 Q26.25 -9.85 23.0 -9.85 18.7 -9.85 15.65 -6.85 12.65 -3.8 12.65 0.5 12.65 4.8 15.65 7.8 18.7 10.85 23.0 10.85 26.25 10.85 28.75 9.15 L30.3 7.85 30.3 7.8 31.6 6.25 31.4 7.6 30.3 9.4 28.75 11.3 28.35 11.7 Q24.75 15.3 20.1 16.25 L16.6 16.6 Q13.9 16.6 11.55 15.85 L8.8 14.7 Q6.7 13.55 4.85 11.7 2.9 9.75 1.7 7.4 0.0 4.05 0.0 -0.05 0.0 -6.95 4.85 -11.75 L6.9 -13.55" fill="#feea7c" fill-rule="evenodd" stroke="none"/>
  </g>
</svg>
