<?xml version="1.0" encoding="UTF-8" standalone="no"?>
<svg xmlns:xlink="http://www.w3.org/1999/xlink" height="84.2px" width="87.5px" xmlns="http://www.w3.org/2000/svg">
  <g transform="matrix(1.0, 0.0, 0.0, 1.0, 42.75, 137.2)">
    <path d="M25.85 -82.95 Q27.4 -83.0 29.7 -84.05 28.95 -78.85 23.95 -78.3 20.25 -78.4 17.85 -81.3 15.45 -84.2 17.25 -86.9 19.0 -89.55 15.05 -91.15 13.8 -91.35 12.6 -90.7 L11.05 -89.5 10.4 -88.85 Q8.65 -86.75 7.4 -86.55 4.1 -85.85 2.3 -87.85 -0.35 -90.0 -0.4 -92.75 -0.5 -96.5 3.6 -97.25 L4.8 -98.9 Q6.05 -100.5 8.35 -99.25 9.45 -98.6 10.8 -96.8 L11.05 -96.5 Q11.7 -95.7 12.6 -95.25 L12.95 -95.1 Q14.2 -94.4 15.45 -94.55 17.0 -94.5 17.65 -96.9 18.0 -99.8 20.15 -102.3 24.3 -105.45 27.7 -102.8 23.15 -102.35 23.3 -99.35 23.5 -96.1 22.6 -93.5 24.9 -93.8 27.3 -96.65 28.35 -97.9 29.75 -98.25 31.65 -98.75 34.1 -97.8 38.5 -96.15 41.4 -100.35 42.45 -103.45 40.65 -106.95 45.5 -103.0 44.6 -96.6 44.25 -90.05 39.6 -87.85 34.85 -86.9 30.1 -89.1 L29.75 -89.15 Q23.45 -89.7 22.8 -85.3 L23.0 -84.8 Q22.0 -85.65 22.25 -86.7 L22.85 -87.8 Q23.85 -88.9 26.0 -89.7 27.65 -90.5 29.75 -90.1 L31.0 -89.8 34.55 -88.55 Q39.7 -87.55 41.7 -91.8 43.35 -95.8 42.5 -99.8 41.85 -97.25 39.9 -96.2 37.0 -95.15 33.45 -95.25 31.5 -95.5 29.75 -95.25 27.7 -95.0 26.05 -94.0 23.85 -92.4 22.25 -92.3 21.1 -92.8 21.65 -94.45 21.2 -96.6 20.3 -97.6 18.95 -94.9 16.05 -93.95 L12.6 -94.45 Q12.1 -94.6 11.75 -94.8 L11.05 -95.2 Q9.7 -96.1 8.7 -97.35 6.8 -99.0 5.7 -97.9 4.45 -96.6 4.5 -94.65 L4.7 -93.25 Q5.15 -90.05 6.8 -88.85 L6.45 -89.0 Q5.95 -89.15 5.6 -89.4 L5.25 -89.65 Q4.4 -90.25 4.3 -91.05 L4.2 -91.55 3.3 -93.55 2.05 -94.8 Q0.6 -92.4 1.55 -90.3 2.7 -88.75 3.9 -88.7 5.05 -87.15 7.7 -87.7 9.5 -88.4 11.05 -90.4 L11.55 -91.1 11.7 -91.35 Q12.1 -91.75 12.6 -91.95 14.0 -92.7 16.2 -92.25 L17.1 -91.8 Q17.95 -91.25 18.45 -89.95 19.0 -88.55 18.7 -86.95 18.25 -85.35 18.7 -84.1 19.85 -82.75 22.3 -82.25 24.55 -82.3 25.85 -82.95" fill="#f9514a" fill-rule="evenodd" stroke="none"/>
    <path d="M24.5 -83.2 L25.85 -82.95 Q24.55 -82.3 22.3 -82.25 19.85 -82.75 18.7 -84.1 18.25 -85.35 18.7 -86.95 19.0 -88.55 18.45 -89.95 17.95 -91.25 17.1 -91.8 19.25 -91.15 19.25 -88.55 L19.25 -85.45 Q19.4 -84.05 21.15 -83.2 22.45 -82.5 24.5 -83.2 M11.55 -91.1 L11.05 -90.4 Q9.5 -88.4 7.7 -87.7 5.05 -87.15 3.9 -88.7 2.7 -88.75 1.55 -90.3 0.6 -92.4 2.05 -94.8 L3.3 -93.55 4.2 -91.55 2.8 -92.75 Q1.9 -89.95 5.25 -89.65 L5.6 -89.4 Q5.95 -89.15 6.45 -89.0 L6.8 -88.85 Q7.5 -88.7 8.2 -89.1 L8.35 -89.25 Q9.35 -89.2 11.05 -90.65 L11.55 -91.1 M4.5 -94.65 Q4.45 -96.6 5.7 -97.9 6.8 -99.0 8.7 -97.35 9.7 -96.1 11.05 -95.2 L11.75 -94.8 Q12.1 -94.6 12.6 -94.45 L16.05 -93.95 Q18.95 -94.9 20.3 -97.6 21.2 -96.6 21.65 -94.45 21.1 -92.8 22.25 -92.3 23.85 -92.4 26.05 -94.0 27.7 -95.0 29.75 -95.25 31.5 -95.5 33.45 -95.25 37.0 -95.15 39.9 -96.2 41.85 -97.25 42.5 -99.8 43.35 -95.8 41.7 -91.8 39.7 -87.55 34.55 -88.55 L31.0 -89.8 29.75 -90.1 Q27.65 -90.5 26.0 -89.7 23.85 -88.9 22.85 -87.8 L22.25 -86.7 Q21.45 -89.6 22.15 -89.5 23.05 -89.0 24.65 -89.5 L27.05 -90.95 Q27.9 -91.4 29.5 -90.95 L29.75 -90.9 Q36.05 -89.9 37.65 -92.7 L29.75 -92.9 29.4 -93.05 24.85 -92.9 25.7 -92.25 24.55 -91.4 Q21.65 -90.6 20.7 -92.1 20.05 -93.65 20.5 -95.15 19.05 -93.75 16.85 -93.4 L12.6 -93.65 Q11.8 -93.9 11.05 -94.3 L11.0 -94.35 Q9.65 -95.15 8.5 -96.4 7.8 -97.5 6.9 -97.6 5.15 -97.75 4.5 -94.65" fill="#ff9c4b" fill-rule="evenodd" stroke="none"/>
    <path d="M23.0 -84.8 L23.15 -84.5 Q23.6 -83.55 24.5 -83.2 22.45 -82.5 21.15 -83.2 19.4 -84.05 19.25 -85.45 L19.25 -88.55 Q19.25 -91.15 17.1 -91.8 L16.2 -92.25 Q14.0 -92.7 12.6 -91.95 12.1 -91.75 11.7 -91.35 L11.55 -91.1 11.05 -90.65 Q9.35 -89.2 8.35 -89.25 L8.2 -89.1 Q7.5 -88.7 6.8 -88.85 5.15 -90.05 4.7 -93.25 L4.5 -94.65 Q5.15 -97.75 6.9 -97.6 7.8 -97.5 8.5 -96.4 9.65 -95.15 11.0 -94.35 L11.05 -94.3 Q11.8 -93.9 12.6 -93.65 L16.85 -93.4 Q19.05 -93.75 20.5 -95.15 20.05 -93.65 20.7 -92.1 21.65 -90.6 24.55 -91.4 L25.7 -92.25 24.85 -92.9 29.4 -93.05 29.75 -92.9 37.65 -92.7 Q36.05 -89.9 29.75 -90.9 L29.5 -90.95 Q27.9 -91.4 27.05 -90.95 L24.65 -89.5 Q23.05 -89.0 22.15 -89.5 21.45 -89.6 22.25 -86.7 22.0 -85.65 23.0 -84.8 M4.2 -91.55 L4.3 -91.05 Q4.4 -90.25 5.25 -89.65 1.9 -89.95 2.8 -92.75 L4.2 -91.55" fill="#fffa9a" fill-rule="evenodd" stroke="none"/>
    <path d="M1.9 -74.65 L5.55 -74.6 Q5.95 -73.2 7.85 -71.2 L0.65 -72.0 0.65 -73.2 1.65 -73.2 1.9 -74.65" fill="url(#gradient0)" fill-rule="evenodd" stroke="none"/>
    <path d="M11.55 -74.05 L12.6 -73.9 Q16.8 -73.25 20.6 -72.0 23.0 -69.75 18.05 -69.1 16.0 -68.3 16.05 -67.0 16.7 -65.1 15.05 -64.15 L13.3 -63.1 Q12.75 -64.05 12.6 -64.95 12.4 -65.85 12.6 -66.7 12.75 -67.6 13.3 -68.4 14.85 -70.05 12.6 -72.9 L11.55 -74.05" fill="url(#gradient1)" fill-rule="evenodd" stroke="none"/>
    <path d="M7.85 -71.2 Q5.95 -73.2 5.55 -74.6 L11.55 -74.05 12.6 -72.9 Q14.85 -70.05 13.3 -68.4 12.75 -67.6 12.6 -66.7 12.4 -65.85 12.6 -64.95 12.75 -64.05 13.3 -63.1 L12.6 -62.8 Q9.95 -61.8 5.55 -61.55 3.0 -61.3 0.65 -61.5 L-4.0 -62.35 Q-6.1 -62.95 -8.05 -63.95 L-8.9 -64.2 -11.15 -64.5 Q-8.65 -66.85 -17.25 -68.4 -15.65 -69.2 -18.55 -70.5 -20.75 -72.05 -15.75 -73.65 L-8.9 -74.55 -5.55 -74.75 -5.15 -73.2 -4.0 -73.2 -4.0 -71.85 -8.9 -71.6 Q-12.2 -71.1 -12.35 -69.75 -11.85 -68.55 -8.9 -68.1 L-4.0 -67.85 0.65 -67.65 Q10.4 -67.05 11.3 -69.6 10.2 -70.6 7.85 -71.2 M-0.35 -66.85 Q-1.15 -66.2 2.55 -64.7 4.45 -63.6 5.35 -63.6 6.6 -64.1 5.7 -65.85 4.95 -67.8 -0.35 -66.85" fill="url(#gradient2)" fill-rule="evenodd" stroke="none"/>
    <path d="M0.65 -72.0 L7.85 -71.2 Q10.2 -70.6 11.3 -69.6 10.4 -67.05 0.65 -67.65 L0.65 -72.0" fill="url(#gradient3)" fill-rule="evenodd" stroke="none"/>
    <path d="M-0.35 -66.85 Q4.95 -67.8 5.7 -65.85 6.6 -64.1 5.35 -63.6 4.45 -63.6 2.55 -64.7 -1.15 -66.2 -0.35 -66.85" fill="url(#gradient4)" fill-rule="evenodd" stroke="none"/>
    <path d="M4.5 -54.4 Q5.95 -55.3 9.05 -55.95 10.2 -56.7 7.6 -57.5 4.95 -59.1 9.9 -59.1 L12.6 -58.5 Q14.4 -57.9 15.45 -56.85 17.95 -54.45 13.95 -54.25 L9.25 -53.3 Q3.0 -52.95 4.5 -54.4" fill="url(#gradient5)" fill-rule="evenodd" stroke="none"/>
    <path d="M-34.0 -103.1 Q-34.4 -102.1 -36.1 -101.8 -37.8 -101.5 -40.05 -102.35 -42.25 -103.25 -42.6 -104.45 -42.95 -105.65 -42.55 -106.65 -42.15 -107.65 -40.6 -107.8 -39.1 -108.0 -37.25 -107.25 -35.5 -106.5 -34.55 -105.3 -33.55 -104.1 -34.0 -103.1 M-39.65 -103.25 Q-38.2 -102.0 -36.45 -102.2 -35.4 -102.7 -36.15 -104.05 -38.1 -106.2 -39.3 -105.75 -41.55 -104.8 -39.65 -103.25" fill="url(#gradient6)" fill-rule="evenodd" stroke="none"/>
    <path d="M-27.9 -133.45 Q-27.25 -131.8 -27.7 -130.65 -28.1 -129.5 -29.35 -129.5 -30.65 -129.5 -31.85 -130.65 -33.0 -131.75 -33.4 -133.35 -33.85 -134.95 -33.25 -136.1 -32.65 -137.2 -31.4 -137.2 -30.15 -137.2 -29.3 -136.15 -28.5 -135.05 -27.9 -133.45" fill="url(#gradient7)" fill-rule="evenodd" stroke="none"/>
    <path d="M-26.95 -123.3 Q-27.7 -123.2 -28.25 -122.55 -31.6 -117.6 -28.75 -114.25 -27.35 -111.75 -24.4 -112.8 -20.55 -116.2 -24.25 -122.55 -25.35 -123.2 -26.25 -123.3 -22.6 -123.25 -19.6 -120.55 -13.3 -114.65 -10.8 -106.95 L-12.85 -105.15 Q-17.7 -100.35 -17.7 -93.45 -17.7 -89.35 -16.0 -86.0 -19.1 -84.9 -21.6 -86.5 -23.85 -88.2 -22.2 -90.4 -20.6 -92.7 -24.0 -93.7 -29.1 -93.35 -30.7 -95.0 -32.5 -97.25 -29.55 -99.75 -27.35 -101.3 -24.95 -99.75 -21.5 -98.6 -19.2 -101.0 -18.2 -103.2 -26.6 -106.95 -33.4 -109.8 -34.75 -114.15 -35.9 -120.1 -31.2 -122.3 -29.0 -123.2 -26.95 -123.3 M-18.35 -118.35 Q-18.7 -113.45 -20.4 -110.35 -16.6 -107.65 -14.4 -104.8 -12.25 -106.05 -11.7 -107.05 -13.45 -112.95 -18.35 -118.35 M-21.0 -90.45 Q-18.9 -86.55 -17.7 -86.25 -17.5 -87.95 -18.4 -92.3 -19.0 -94.4 -19.75 -94.45 -21.65 -93.25 -21.0 -90.45" fill="url(#gradient8)" fill-rule="evenodd" stroke="none"/>
    <path d="M-26.25 -123.3 Q-25.35 -123.2 -24.25 -122.55 -20.55 -116.2 -24.4 -112.8 -27.35 -111.75 -28.75 -114.25 -31.6 -117.6 -28.25 -122.55 -27.7 -123.2 -26.95 -123.3 L-26.25 -123.3" fill="url(#gradient9)" fill-rule="evenodd" stroke="none"/>
    <path d="M-39.65 -103.25 Q-41.55 -104.8 -39.3 -105.75 -38.1 -106.2 -36.15 -104.05 -35.4 -102.7 -36.45 -102.2 -38.2 -102.0 -39.65 -103.25" fill="url(#gradient10)" fill-rule="evenodd" stroke="none"/>
    <path d="M-18.35 -118.35 Q-13.45 -112.95 -11.7 -107.05 -12.25 -106.05 -14.4 -104.8 -16.6 -107.65 -20.4 -110.35 -18.7 -113.45 -18.35 -118.35" fill="url(#gradient11)" fill-rule="evenodd" stroke="none"/>
    <path d="M-21.0 -90.45 Q-21.65 -93.25 -19.75 -94.45 -19.0 -94.4 -18.4 -92.3 -17.5 -87.95 -17.7 -86.25 -18.9 -86.55 -21.0 -90.45" fill="url(#gradient12)" fill-rule="evenodd" stroke="none"/>
    <path d="M-28.45 -86.1 Q-28.2 -85.0 -28.3 -84.45 -28.45 -83.9 -30.2 -83.95 -32.05 -84.05 -32.7 -84.75 -33.35 -85.4 -33.35 -86.35 -33.35 -87.3 -32.7 -87.95 -32.05 -88.6 -31.1 -88.6 -30.1 -88.6 -29.45 -87.95 -28.75 -87.25 -28.45 -86.1" fill="url(#gradient13)" fill-rule="evenodd" stroke="none"/>
    <path d="M-4.0 -71.85 L-4.0 -67.85 -8.9 -68.1 Q-11.85 -68.55 -12.35 -69.75 -12.2 -71.1 -8.9 -71.6 L-4.0 -71.85" fill="url(#gradient14)" fill-rule="evenodd" stroke="none"/>
    <path d="M-11.15 -64.5 L-14.1 -64.2 Q-18.2 -63.7 -19.8 -64.95 -21.15 -66.0 -17.8 -68.15 L-17.25 -68.4 Q-8.65 -66.85 -11.15 -64.5" fill="url(#gradient15)" fill-rule="evenodd" stroke="none"/>
    <path d="M-4.0 -53.35 L-6.2 -53.05 -8.9 -53.0 Q-13.7 -53.1 -18.55 -54.05 -21.45 -55.2 -20.3 -56.85 -19.25 -58.8 -15.15 -59.15 -16.2 -60.8 -13.2 -60.8 -10.55 -59.75 -11.55 -58.65 L-13.2 -58.1 Q-15.2 -57.1 -10.7 -56.5 L-8.9 -56.4 Q-5.2 -56.1 -4.0 -55.3 L-3.5 -54.8 Q-2.7 -53.8 -4.0 -53.35" fill="url(#gradient16)" fill-rule="evenodd" stroke="none"/>
    <path d="M1.9 -74.65 L1.65 -73.2 0.65 -73.2 -4.0 -73.2 -5.15 -73.2 -5.55 -74.75 -6.15 -77.55 Q-3.8 -76.8 -1.1 -76.8 L2.4 -77.15 1.9 -74.65" fill="#000000" fill-opacity="0.32941177" fill-rule="evenodd" stroke="none"/>
  </g>
  <defs>
    <linearGradient gradientTransform="matrix(0.0032, 0.001, -7.0E-4, 0.0023, 5.25, -72.6)" gradientUnits="userSpaceOnUse" id="gradient0" spreadMethod="pad" x1="-819.2" x2="819.2">
      <stop offset="0.0" stop-color="#92d1f5"/>
      <stop offset="1.0" stop-color="#d7f9fb"/>
    </linearGradient>
    <linearGradient gradientTransform="matrix(0.0038, -0.0047, 0.0047, 0.0038, 15.3, -70.85)" gradientUnits="userSpaceOnUse" id="gradient1" spreadMethod="pad" x1="-819.2" x2="819.2">
      <stop offset="0.0" stop-color="#92d1f5"/>
      <stop offset="1.0" stop-color="#d7f9fb"/>
    </linearGradient>
    <linearGradient gradientTransform="matrix(0.0095, 0.0117, -0.0124, 0.01, 1.35, -66.0)" gradientUnits="userSpaceOnUse" id="gradient2" spreadMethod="pad" x1="-819.2" x2="819.2">
      <stop offset="0.0" stop-color="#b7f6f9"/>
      <stop offset="1.0" stop-color="#dcfafc"/>
    </linearGradient>
    <linearGradient gradientTransform="matrix(-0.0084, -7.0E-4, 2.0E-4, -0.0027, 2.45, -69.7)" gradientUnits="userSpaceOnUse" id="gradient3" spreadMethod="pad" x1="-819.2" x2="819.2">
      <stop offset="0.0" stop-color="#6096c6"/>
      <stop offset="0.984313725490196" stop-color="#a5e1fb"/>
    </linearGradient>
    <linearGradient gradientTransform="matrix(-0.0033, -0.0015, 7.0E-4, -0.0016, 1.6, -66.6)" gradientUnits="userSpaceOnUse" id="gradient4" spreadMethod="pad" x1="-819.2" x2="819.2">
      <stop offset="0.0" stop-color="#92d1f5"/>
      <stop offset="1.0" stop-color="#d7f9fb"/>
    </linearGradient>
    <linearGradient gradientTransform="matrix(-0.0082, -0.0022, 0.0011, -0.0041, 6.15, -56.65)" gradientUnits="userSpaceOnUse" id="gradient5" spreadMethod="pad" x1="-819.2" x2="819.2">
      <stop offset="0.0" stop-color="#b7f6f9"/>
      <stop offset="1.0" stop-color="#dcfafc"/>
    </linearGradient>
    <linearGradient gradientTransform="matrix(-0.0027, 0.0025, -0.0036, -0.0039, -39.35, -103.85)" gradientUnits="userSpaceOnUse" id="gradient6" spreadMethod="pad" x1="-819.2" x2="819.2">
      <stop offset="0.0" stop-color="#b7f6f9"/>
      <stop offset="1.0" stop-color="#dcfafc"/>
    </linearGradient>
    <linearGradient gradientTransform="matrix(-0.0035, 6.0E-4, -8.0E-4, -0.0048, -32.25, -133.0)" gradientUnits="userSpaceOnUse" id="gradient7" spreadMethod="pad" x1="-819.2" x2="819.2">
      <stop offset="0.0" stop-color="#b7f6f9"/>
      <stop offset="1.0" stop-color="#dcfafc"/>
    </linearGradient>
    <linearGradient gradientTransform="matrix(-0.0076, -0.0156, 0.0129, -0.0062, -24.55, -109.0)" gradientUnits="userSpaceOnUse" id="gradient8" spreadMethod="pad" x1="-819.2" x2="819.2">
      <stop offset="0.0" stop-color="#b7f6f9"/>
      <stop offset="1.0" stop-color="#dcfafc"/>
    </linearGradient>
    <linearGradient gradientTransform="matrix(-0.0096, -0.0014, 9.0E-4, -0.0062, -32.45, -118.55)" gradientUnits="userSpaceOnUse" id="gradient9" spreadMethod="pad" x1="-819.2" x2="819.2">
      <stop offset="0.0" stop-color="#92d1f5"/>
      <stop offset="1.0" stop-color="#d7f9fb"/>
    </linearGradient>
    <linearGradient gradientTransform="matrix(0.0013, 0.0015, -0.0015, 0.0013, -37.75, -103.45)" gradientUnits="userSpaceOnUse" id="gradient10" spreadMethod="pad" x1="-819.2" x2="819.2">
      <stop offset="0.0" stop-color="#92d1f5"/>
      <stop offset="1.0" stop-color="#d7f9fb"/>
    </linearGradient>
    <linearGradient gradientTransform="matrix(-0.0065, -0.0084, 0.0032, -0.0025, -19.05, -114.0)" gradientUnits="userSpaceOnUse" id="gradient11" spreadMethod="pad" x1="-819.2" x2="819.2">
      <stop offset="0.0" stop-color="#92d1f5"/>
      <stop offset="1.0" stop-color="#d7f9fb"/>
    </linearGradient>
    <linearGradient gradientTransform="matrix(-0.0037, 0.0061, -0.0033, -0.002, -21.45, -86.1)" gradientUnits="userSpaceOnUse" id="gradient12" spreadMethod="pad" x1="-819.2" x2="819.2">
      <stop offset="0.0" stop-color="#92d1f5"/>
      <stop offset="1.0" stop-color="#d7f9fb"/>
    </linearGradient>
    <linearGradient gradientTransform="matrix(-0.0037, 2.0E-4, -2.0E-4, -0.0029, -32.15, -86.2)" gradientUnits="userSpaceOnUse" id="gradient13" spreadMethod="pad" x1="-819.2" x2="819.2">
      <stop offset="0.0" stop-color="#b7f6f9"/>
      <stop offset="1.0" stop-color="#dcfafc"/>
    </linearGradient>
    <linearGradient gradientTransform="matrix(0.0085, -3.0E-4, 1.0E-4, 0.0024, -3.25, -69.9)" gradientUnits="userSpaceOnUse" id="gradient14" spreadMethod="pad" x1="-819.2" x2="819.2">
      <stop offset="0.0" stop-color="#6096c6"/>
      <stop offset="0.984313725490196" stop-color="#a5e1fb"/>
    </linearGradient>
    <linearGradient gradientTransform="matrix(0.0056, -0.0012, 7.0E-4, 0.0031, -13.6, -66.55)" gradientUnits="userSpaceOnUse" id="gradient15" spreadMethod="pad" x1="-819.2" x2="819.2">
      <stop offset="0.0" stop-color="#92d1f5"/>
      <stop offset="1.0" stop-color="#d7f9fb"/>
    </linearGradient>
    <linearGradient gradientTransform="matrix(0.0092, -8.0E-4, 4.0E-4, 0.0051, -7.8, -57.1)" gradientUnits="userSpaceOnUse" id="gradient16" spreadMethod="pad" x1="-819.2" x2="819.2">
      <stop offset="0.0" stop-color="#b7f6f9"/>
      <stop offset="1.0" stop-color="#dcfafc"/>
    </linearGradient>
  </defs>
</svg>
