<?xml version="1.0" encoding="UTF-8" standalone="no"?>
<svg xmlns:xlink="http://www.w3.org/1999/xlink" height="36.0px" width="9.6px" xmlns="http://www.w3.org/2000/svg">
  <g transform="matrix(1.0, 0.0, 0.0, 1.0, 0.0, 18.0)">
    <path d="M0.0 -16.4 L1.8 -16.8 Q2.45 -13.6 4.4 -9.35 5.6 -5.9 4.05 -3.35 2.25 -0.7 5.0 4.85 6.55 6.7 4.65 9.75 3.6 12.0 5.7 17.85 L4.95 18.0 Q4.2 15.75 3.35 15.85 L3.05 16.25 Q1.65 11.9 2.7 9.65 4.5 6.6 3.05 4.75 0.35 -0.8 2.2 -3.5 3.65 -6.0 2.45 -9.5 0.55 -13.7 0.0 -16.4 M3.5 -17.25 L4.2 -17.45 Q5.25 -12.75 5.9 -13.15 7.0 -13.85 5.05 -17.65 L6.4 -18.0 Q6.4 -14.15 8.25 -9.95 9.5 -6.5 8.0 -3.95 6.15 -1.3 8.85 4.3 10.4 6.1 8.55 9.2 7.5 11.45 9.6 17.15 L7.3 17.6 Q5.05 11.4 6.1 9.65 8.2 6.7 6.75 4.85 3.95 -0.7 5.85 -3.35 7.25 -5.9 6.1 -9.4 4.2 -13.6 3.5 -17.25" fill="#ffffff" fill-rule="evenodd" stroke="none"/>
  </g>
</svg>
