<?xml version="1.0" encoding="UTF-8" standalone="no"?>
<svg xmlns:xlink="http://www.w3.org/1999/xlink" height="52.0px" width="25.95px" xmlns="http://www.w3.org/2000/svg">
  <g transform="matrix(1.0, 0.0, 0.0, 1.0, 13.0, 25.85)">
    <path d="M5.25 2.5 Q6.2 -12.95 6.15 -22.65 L1.7 -25.15 Q1.7 -14.85 0.7 2.15" fill="none" stroke="#000000" stroke-linecap="round" stroke-linejoin="round" stroke-width="1.4000000000000001"/>
    <path d="M0.7 2.15 L5.25 2.5 11.9 2.4 11.9 3.45 11.95 3.45 11.85 4.55 11.8 6.6 11.65 6.65 11.55 7.55 10.35 16.45 10.1 17.8 Q8.65 25.4 0.1 25.15 -9.3 24.0 -10.6 18.95 L-11.55 14.3 Q-12.15 10.45 -11.6 4.35 L-12.0 4.2 -11.35 -0.25 Q-5.25 1.45 0.7 2.15 M11.9 3.45 L11.85 4.55 M11.65 6.65 Q-0.25 7.65 -11.6 4.35" fill="none" stroke="#000000" stroke-linecap="round" stroke-linejoin="round" stroke-width="2.0"/>
  </g>
</svg>
