<?xml version="1.0" encoding="UTF-8" standalone="no"?>
<svg xmlns:xlink="http://www.w3.org/1999/xlink" height="30.35px" width="27.2px" xmlns="http://www.w3.org/2000/svg">
  <g transform="matrix(1.0, 0.0, 0.0, 1.0, 13.6, 15.15)">
    <path d="M-12.1 -5.0 L-12.15 -5.05 Q-13.05 -7.05 -12.15 -8.95 -13.65 -11.4 -10.2 -14.15 -8.1 -13.1 1.1 -11.95 L11.9 -11.65 Q13.15 -8.65 12.15 -7.55 12.7 -3.25 11.05 -2.65 L11.05 -2.4 9.95 5.5 9.7 6.85 Q8.25 14.45 -0.3 14.2 -9.7 13.05 -11.0 8.0 L-11.95 3.35 Q-12.45 0.0 -12.1 -5.0 -11.85 -4.45 -11.0 -4.1 L-4.3 -4.3 Q1.75 -5.35 11.05 -2.4" fill="none" stroke="#000000" stroke-linecap="round" stroke-linejoin="round" stroke-width="2.0"/>
    <path d="M11.9 -7.65 L11.55 -7.5 11.2 -7.35 6.1 -7.55 M-11.5 -9.0 L-10.35 -9.25 -3.8 -9.0" fill="none" stroke="#000000" stroke-linecap="round" stroke-linejoin="round" stroke-width="1.0"/>
  </g>
</svg>
