<?xml version="1.0" encoding="UTF-8" standalone="no"?>
<svg xmlns:xlink="http://www.w3.org/1999/xlink" height="56.95px" width="116.2px" xmlns="http://www.w3.org/2000/svg">
  <g transform="matrix(1.0, 0.0, 0.0, 1.0, 0.0, 0.0)">
    <path d="M38.2 30.1 Q37.2 29.45 36.55 29.45 23.0 25.2 15.75 19.15 49.75 20.05 70.15 0.0 84.65 18.9 116.2 24.3 L116.2 24.4 Q106.75 33.15 96.1 34.7 L95.2 36.65 94.9 37.15 94.8 37.15 93.5 39.2 92.85 39.8 Q85.25 47.5 64.8 52.65 43.4 56.4 28.05 56.95 L23.7 56.95 Q9.25 56.95 0.0 53.25 22.7 46.95 35.25 33.25 36.55 31.5 38.2 30.1" fill="#cb5bbd" fill-rule="evenodd" stroke="none"/>
  </g>
</svg>
