<?xml version="1.0" encoding="UTF-8" standalone="no"?>
<svg xmlns:xlink="http://www.w3.org/1999/xlink" height="127.2px" width="121.9px" xmlns="http://www.w3.org/2000/svg">
  <g transform="matrix(1.0, 0.0, 0.0, 1.0, 0.0, 0.0)">
    <path d="M69.35 6.85 L88.3 29.85 Q77.35 21.0 72.6 34.55 70.95 45.15 82.45 48.3 77.6 43.05 81.7 37.4 85.7 31.5 95.7 45.15 105.7 58.7 121.9 69.3 108.95 76.65 98.8 73.25 L104.45 76.2 Q111.7 81.45 120.8 78.75 L101.2 95.8 Q90.2 104.3 83.45 102.9 77.2 99.75 87.95 93.7 83.35 93.7 80.6 94.9 74.95 97.45 76.2 104.75 80.85 114.3 93.3 106.4 74.95 121.05 52.5 127.2 24.75 127.2 0.15 106.5 23.15 108.05 44.35 91.2 69.35 74.55 91.2 73.6 61.7 63.4 50.75 38.7 28.65 8.6 0.0 5.65 41.1 -6.25 69.35 6.85" fill="#8ef3be" fill-opacity="0.85882354" fill-rule="evenodd" stroke="none"/>
  </g>
</svg>
