<?xml version="1.0" encoding="UTF-8" standalone="no"?>
<svg xmlns:xlink="http://www.w3.org/1999/xlink" height="42.5px" width="83.55px" xmlns="http://www.w3.org/2000/svg">
  <g transform="matrix(1.0, 0.0, 0.0, 1.0, 0.0, 21.25)">
    <path d="M73.85 -8.6 Q70.7 -5.25 65.1 2.35 58.0 11.6 50.65 18.45 45.3 22.6 42.0 20.45 39.75 17.9 44.85 12.5 34.5 19.85 24.8 21.05 18.2 21.95 16.75 19.1 16.2 15.6 21.05 12.1 13.85 14.0 5.45 15.3 -0.1 16.45 0.0 13.15 0.25 9.25 8.3 2.7 11.85 -0.15 27.4 -2.6 45.75 -7.25 62.3 -15.35 72.55 -20.5 79.5 -21.25 84.95 -21.45 83.05 -16.8 80.85 -12.45 78.35 -10.35 75.75 -8.65 73.85 -8.6" fill="url(#gradient0)" fill-rule="evenodd" stroke="none"/>
  </g>
  <defs>
    <linearGradient gradientTransform="matrix(0.0277, -0.0128, 0.0084, 0.0181, 28.5, 11.15)" gradientUnits="userSpaceOnUse" id="gradient0" spreadMethod="pad" x1="-819.2" x2="819.2">
      <stop offset="0.0" stop-color="#ffffff"/>
      <stop offset="1.0" stop-color="#ffffff" stop-opacity="0.0"/>
    </linearGradient>
  </defs>
</svg>
