<?xml version="1.0" encoding="UTF-8" standalone="no"?>
<svg xmlns:xlink="http://www.w3.org/1999/xlink" height="23.05px" width="25.4px" xmlns="http://www.w3.org/2000/svg">
  <g transform="matrix(1.0, 0.0, 0.0, 1.0, 12.7, 11.5)">
    <path d="M12.35 -11.5 L12.7 -8.45 Q11.3 -2.7 8.55 1.15 L8.55 -6.05 10.2 -5.3 Q11.95 -8.35 12.35 -11.5 M5.0 -0.2 Q4.75 5.4 4.75 11.1 L1.85 5.1 1.45 0.35 3.15 1.4 5.0 -0.2 M-6.45 -0.1 L-4.95 2.3 -2.6 0.9 -5.2 11.55 -6.75 3.6 -6.45 -0.1 M-11.75 -5.05 L-10.6 -2.9 -9.05 -3.1 -11.75 5.25 -12.7 -1.05 -11.75 -5.05" fill="#f03d3d" fill-rule="evenodd" stroke="none"/>
  </g>
</svg>
