<?xml version="1.0" encoding="UTF-8" standalone="no"?>
<svg xmlns:xlink="http://www.w3.org/1999/xlink" height="42.5px" width="39.65px" xmlns="http://www.w3.org/2000/svg">
  <g transform="matrix(1.0, 0.0, 0.0, 1.0, 19.85, 21.25)">
    <path d="M14.85 -9.25 L14.85 -9.3 15.75 -14.25 Q7.65 -15.05 2.35 -20.5 -2.65 -15.25 -5.4 -10.6 L-5.45 -10.55 Q-13.25 -5.0 -16.8 0.1 -21.6 6.45 -16.4 10.8 -14.75 12.1 -12.9 11.9 L-13.2 10.7 Q-12.05 8.45 -9.15 9.25 L-9.15 10.5 Q-6.95 9.0 -6.55 6.35 -5.45 5.25 -4.35 4.9 -3.6 3.65 -2.3 2.3 L-1.6 5.15 Q-0.95 5.45 -0.3 6.0 0.95 7.15 1.2 8.9 1.75 6.75 3.7 6.2 3.25 7.7 3.15 8.9 5.85 10.45 7.5 8.6 L6.4 6.0 Q8.35 6.35 9.45 8.45 10.2 10.15 10.4 12.95 10.65 15.15 9.85 16.9 11.5 19.3 14.45 18.65 20.45 16.1 18.65 9.7 17.5 6.8 15.75 5.55 14.8 4.8 13.65 4.55 L11.45 2.2 11.3 4.9 Q9.65 5.7 9.45 8.45 M11.3 4.9 L11.1 8.5 Q14.25 9.6 15.35 6.95 L13.65 4.55 M6.4 6.0 L5.75 4.65 4.8 2.8 3.85 5.55 3.7 6.2 M-6.8 1.6 Q-6.25 4.25 -6.55 6.35 M9.85 16.9 Q8.35 19.95 3.15 20.5 0.05 20.1 -1.55 16.9 -3.7 19.3 -7.05 18.6 -11.35 17.75 -11.8 13.05 L-12.9 11.9 M-1.55 16.9 Q-0.5 15.8 0.15 14.15 1.55 11.1 1.2 8.9 M15.75 5.55 Q17.5 0.4 14.85 -9.25 M-4.35 4.9 Q-5.15 6.2 -5.35 7.3 -3.25 9.85 -0.95 7.95 L-1.6 5.15 M-9.15 10.5 L-8.9 14.25 Q-10.75 13.8 -11.8 13.05" fill="none" stroke="#000000" stroke-linecap="round" stroke-linejoin="round" stroke-width="1.5"/>
    <path d="M-5.45 -10.55 Q-2.55 -10.9 -0.7 -10.05 M2.9 -9.65 L8.65 -9.4 M14.85 -9.25 Q13.85 -10.0 12.2 -9.45" fill="none" stroke="#000000" stroke-linecap="round" stroke-linejoin="round" stroke-width="1.0"/>
  </g>
</svg>
