<?xml version="1.0" encoding="UTF-8" standalone="no"?>
<svg xmlns:xlink="http://www.w3.org/1999/xlink" height="73.8px" width="34.65px" xmlns="http://www.w3.org/2000/svg">
  <g transform="matrix(1.0, 0.0, 0.0, 1.0, 17.3, 36.9)">
    <path d="M8.5 -29.6 Q9.1 -32.75 7.1 -35.9 4.7 -34.25 2.7 -27.1 2.95 -23.75 5.45 -25.8 6.4 -28.95 8.5 -29.6 M15.75 -29.5 Q17.3 -26.1 14.7 -23.8 12.65 -25.65 13.15 -28.3 14.5 -30.15 15.75 -29.5 M9.1 -20.9 Q5.45 -20.15 1.55 -21.0 L-0.45 -16.55 -4.15 -8.1 -15.8 6.55 Q-17.8 12.35 -11.95 24.15 -12.05 17.5 -9.9 13.75 L-6.55 10.9 -6.55 26.0 1.9 35.9 -0.85 23.15 1.65 9.6 Q1.35 16.8 2.05 21.9 4.25 25.45 9.3 28.25 9.05 24.45 6.6 21.55 L6.5 20.5 5.75 12.5 Q6.95 16.35 8.15 18.95 11.8 21.8 15.85 22.95 L11.05 15.85 9.1 4.95 Q9.8 -8.4 12.8 -15.8 L11.75 -18.1 Q9.4 -16.6 8.15 -16.05 7.85 -17.9 9.1 -20.9" fill="none" stroke="#000000" stroke-linecap="round" stroke-linejoin="round" stroke-width="2.0"/>
  </g>
</svg>
