<?xml version="1.0" encoding="UTF-8" standalone="no"?>
<svg xmlns:xlink="http://www.w3.org/1999/xlink" height="32.75px" width="20.75px" xmlns="http://www.w3.org/2000/svg">
  <g transform="matrix(1.0, 0.0, 0.0, 1.0, 10.35, 16.4)">
    <path d="M-1.8 -9.4 L-1.8 -15.6 9.6 -6.25 8.55 -4.75 7.8 -2.5 6.4 -0.1 Q5.25 5.95 3.5 10.25 L-2.55 3.2 -1.65 10.85 -7.3 15.55 -9.55 9.05 -3.95 1.65 -9.55 -4.75 -5.15 -4.8 -5.15 -11.95 -1.8 -9.4 7.8 -2.5 M3.5 10.25 L-0.75 -4.9 -5.15 -4.8 M-3.95 1.65 L-2.95 0.15 -2.55 3.2" fill="none" stroke="#000000" stroke-linecap="round" stroke-linejoin="round" stroke-width="1.6"/>
    <path d="M-2.95 0.15 L-6.0 8.3 -1.65 10.85 M-7.3 15.55 L-6.0 8.3 -9.55 9.05" fill="none" stroke="#000000" stroke-linecap="round" stroke-linejoin="round" stroke-opacity="0.4392157" stroke-width="1.0"/>
  </g>
</svg>
