<?xml version="1.0" encoding="UTF-8" standalone="no"?>
<svg xmlns:xlink="http://www.w3.org/1999/xlink" height="48.1px" width="48.7px" xmlns="http://www.w3.org/2000/svg">
  <g transform="matrix(1.0, 0.0, 0.0, 1.0, 0.0, 24.05)">
    <path d="M23.15 -11.65 L25.9 -16.05 Q26.7 -17.2 27.3 -17.0 28.05 -16.6 27.7 -15.7 L25.1 -11.35 28.3 -10.5 Q29.35 -9.95 29.25 -9.35 29.1 -8.55 27.8 -8.6 L24.15 -9.45 21.75 -4.95 Q20.95 -4.0 20.2 -4.05 19.45 -4.3 19.95 -5.45 L22.15 -9.8 19.0 -10.45 Q18.25 -11.0 18.45 -11.55 18.9 -12.3 19.95 -12.05 L23.15 -11.65 M39.05 -3.35 L37.95 -6.0 Q37.55 -11.8 40.7 -15.65 L42.35 -17.3 Q45.95 -12.9 48.7 -7.85 47.3 1.75 41.2 7.15 41.4 2.8 39.05 -3.35 M25.25 -19.35 L24.55 -20.2 Q25.0 -22.4 26.7 -23.5 35.35 -25.3 43.35 -21.1 43.75 -19.45 42.95 -17.75 42.0 -16.9 40.65 -16.85 L40.65 -18.15 Q32.6 -21.35 25.55 -19.5 L25.25 -19.35 M11.55 -3.1 L14.2 -4.7 Q13.7 -0.95 14.95 3.85 17.3 0.4 21.25 -3.3 21.95 0.85 24.0 5.85 26.55 0.85 30.15 -4.55 L34.65 4.85 34.6 5.6 Q33.7 14.75 34.65 23.95 26.75 18.05 24.5 12.1 L24.5 11.85 Q21.15 15.4 20.85 24.05 16.85 18.95 15.45 12.2 12.25 17.7 9.95 23.8 6.65 15.8 6.25 7.65 2.25 9.3 0.0 11.8 0.8 2.5 5.15 -5.65 L12.65 -7.75 11.55 -3.1" fill="#ff83db" fill-rule="evenodd" stroke="none"/>
  </g>
</svg>
