<?xml version="1.0" encoding="UTF-8" standalone="no"?>
<svg xmlns:xlink="http://www.w3.org/1999/xlink" height="119.9px" width="127.95px" xmlns="http://www.w3.org/2000/svg">
  <g transform="matrix(1.0, 0.0, 0.0, 1.0, 64.0, 59.95)">
    <path d="M21.95 -56.75 Q23.1 -48.8 25.0 -41.0 30.95 -16.25 44.3 7.15 68.25 30.35 63.0 42.35 60.75 35.7 52.3 26.5 57.8 32.75 59.05 48.4 48.35 31.4 46.15 31.4 L46.05 31.4 Q52.4 48.35 47.2 59.45 47.4 55.75 47.1 52.1 46.05 40.3 39.55 29.2 43.8 41.05 40.95 50.9 40.85 45.2 34.0 30.25 27.1 15.25 24.75 9.65 12.5 -19.3 11.15 -55.15 14.0 -60.4 21.95 -56.75 M-15.4 -58.9 Q-8.65 -61.85 -1.8 -56.55 -5.85 -26.75 -24.0 -0.85 -42.9 25.85 -39.25 57.2 -46.3 52.35 -45.9 44.25 L-45.35 35.2 Q-46.7 39.2 -49.0 44.3 -51.35 49.3 -55.5 59.95 L-56.0 58.85 Q-62.4 45.9 -56.4 36.25 L-56.9 36.95 Q-61.9 44.85 -63.45 53.5 L-63.7 50.75 Q-66.75 19.35 -39.6 -4.9 -25.05 -18.0 -17.95 -46.6 -16.55 -52.45 -15.4 -58.9" fill="#5cbf8b" fill-rule="evenodd" stroke="none"/>
  </g>
</svg>
