<?xml version="1.0" encoding="UTF-8" standalone="no"?>
<svg xmlns:xlink="http://www.w3.org/1999/xlink" height="119.15px" width="128.3px" xmlns="http://www.w3.org/2000/svg">
  <g transform="matrix(1.0, 0.0, 0.0, 1.0, 64.15, 59.55)">
    <path d="M26.0 -55.9 Q29.9 -37.4 34.2 -27.95 38.55 -18.6 40.8 -15.35 L51.8 1.75 Q71.35 38.9 60.0 55.45 61.55 51.35 56.75 46.35 55.7 52.8 48.9 58.3 56.4 28.1 45.55 0.65 L41.15 -5.95 40.05 -7.55 Q23.05 -34.15 18.35 -55.85 20.5 -58.6 26.0 -55.9 M-31.95 1.25 L-6.8 -56.2 Q-5.4 -59.7 2.85 -59.55 1.1 -31.85 -25.15 -5.3 L-26.35 -4.05 -26.2 -4.15 Q-43.3 14.5 -47.85 34.85 -50.9 53.15 -47.6 59.6 -53.7 52.3 -56.1 45.25 -60.2 51.05 -62.75 59.05 -70.75 27.7 -33.6 2.35 L-32.85 1.9 -31.95 1.25 -32.1 1.7 -28.8 -1.65 -31.5 0.95 -31.95 1.25 M-26.95 -3.4 L-27.6 -2.85 -27.95 -2.4 -26.95 -3.4" fill="#aaffc5" fill-opacity="0.76862746" fill-rule="evenodd" stroke="none"/>
    <path d="M-26.95 -3.4 L-27.95 -2.4 -27.6 -2.85 -26.95 -3.4" fill="#61c495" fill-opacity="0.6" fill-rule="evenodd" stroke="none"/>
    <path d="M-31.95 1.25 L-31.5 0.95 -28.8 -1.65 -32.1 1.7 -31.95 1.25" fill="#bf66c4" fill-opacity="0.6" fill-rule="evenodd" stroke="none"/>
  </g>
</svg>
