<?xml version="1.0" encoding="UTF-8" standalone="no"?>
<svg xmlns:xlink="http://www.w3.org/1999/xlink" height="119.25px" width="254.55px" xmlns="http://www.w3.org/2000/svg">
  <g transform="matrix(1.0, 0.0, 0.0, 1.0, 127.25, 59.65)">
    <path d="M19.8 -18.65 Q53.35 -7.6 95.05 6.65 L99.65 8.3 123.6 16.55 127.3 17.8 Q122.4 38.7 115.1 59.6 L113.25 58.9 100.35 53.8 82.25 46.7 53.0 35.55 Q19.8 23.15 -13.05 12.0 -17.0 10.6 -20.95 9.35 -38.95 3.35 -56.8 -2.3 L-76.9 -8.65 -127.25 -23.65 Q-126.35 -27.95 -125.05 -32.0 -121.25 -45.0 -114.9 -59.65 -105.7 -57.3 -96.65 -54.55 L-77.2 -48.95 Q-66.8 -46.05 -39.15 -37.55 L-20.5 -31.7 6.0 -23.15 9.0 -22.25 19.8 -18.65" fill="#66d29f" fill-rule="evenodd" stroke="none"/>
  </g>
</svg>
