<?xml version="1.0" encoding="UTF-8" standalone="no"?>
<svg xmlns:xlink="http://www.w3.org/1999/xlink" height="121.65px" width="320.65px" xmlns="http://www.w3.org/2000/svg">
  <g transform="matrix(1.0, 0.0, 0.0, 1.0, 160.3, 60.8)">
    <path d="M19.9 -59.05 Q19.9 -58.35 19.4 -57.85 18.9 -57.3 18.15 -57.3 17.45 -57.3 16.9 -57.85 16.4 -58.35 16.4 -59.05 16.4 -59.8 16.9 -60.3 17.45 -60.8 18.15 -60.8 18.9 -60.8 19.4 -60.3 19.9 -59.8 19.9 -59.05 M14.9 -49.55 Q14.9 -48.95 14.45 -48.55 14.05 -48.1 13.45 -48.1 12.85 -48.1 12.45 -48.55 12.05 -48.95 12.05 -49.55 12.05 -50.15 12.45 -50.55 12.85 -50.95 13.45 -50.95 14.05 -50.95 14.45 -50.55 14.9 -50.15 14.9 -49.55 M-116.65 -39.4 Q-120.15 -34.6 -120.35 -23.15 L-122.5 -23.35 Q-120.1 -14.05 -126.0 -8.65 L-124.5 -8.8 Q-132.6 1.55 -131.2 4.6 -127.2 11.75 -127.05 19.35 -126.5 26.6 -119.8 26.6 -104.65 30.5 -99.8 41.5 -101.45 43.55 -103.1 42.15 -107.85 38.35 -120.2 34.1 -128.65 31.95 -129.9 22.55 -130.6 14.45 -136.4 5.95 -139.85 -0.05 -130.85 -6.9 L-128.4 -8.6 Q-125.05 -16.35 -124.65 -23.55 -125.2 -26.2 -123.2 -34.7 -122.2 -38.8 -116.65 -39.4 M-157.25 -58.9 Q-155.7 -49.6 -143.65 -37.1 L-146.85 -33.55 Q-159.15 -46.25 -160.3 -55.75 L-157.25 -58.9 M108.4 20.0 L106.75 27.3 Q101.25 25.6 89.9 28.8 L83.0 30.0 Q83.8 32.55 85.8 36.55 87.05 41.3 82.8 42.3 73.9 43.1 63.95 46.45 57.5 47.65 46.75 56.2 43.0 59.4 34.05 54.2 26.05 51.8 21.25 56.3 13.2 60.4 9.6 60.5 2.1 62.5 -6.8 53.55 -8.1 51.45 -23.0 56.05 -26.85 56.7 -31.7 52.6 -36.35 48.15 -41.85 45.8 -48.45 43.9 -57.85 47.8 -66.25 49.55 -69.95 46.6 -73.8 38.9 -82.2 30.75 -85.8 26.6 -94.6 28.15 L-94.25 27.15 Q-93.3 24.25 -91.95 21.4 -86.2 21.1 -81.15 24.15 -75.6 27.45 -70.85 34.8 -65.6 46.95 -52.65 41.65 -50.15 40.45 -47.65 40.1 -40.9 39.15 -34.4 44.25 -25.45 52.0 -17.65 48.35 -12.6 45.05 -7.25 46.7 -4.4 47.55 -1.5 49.85 8.45 55.3 19.35 49.85 22.0 48.7 24.65 48.25 30.4 47.3 36.3 49.7 44.75 53.15 51.15 48.15 L51.75 47.65 Q55.05 44.7 58.8 42.95 64.8 40.05 72.0 40.15 75.45 39.65 73.5 33.1 72.9 31.55 73.1 30.1 75.75 28.8 79.65 27.7 90.6 22.0 101.3 20.5 L108.4 20.0 M105.15 41.85 Q114.6 28.7 119.15 27.95 136.3 23.65 148.45 14.9 153.05 12.35 154.35 -11.05 158.45 -10.1 160.35 -8.6 160.2 -0.3 155.1 20.85 154.55 22.85 150.9 23.0 133.55 27.95 115.7 39.05 110.35 42.3 104.95 52.6 104.7 48.15 105.15 41.85 M112.05 -31.4 Q115.15 -29.05 121.5 -29.05 132.1 -32.25 135.55 -30.75 144.6 -28.85 149.55 -26.45 L148.95 -22.05 Q141.45 -25.7 129.75 -26.3 127.55 -26.25 122.0 -22.8 120.2 -22.1 115.55 -25.35 L110.9 -29.05 110.35 -29.35 112.05 -31.4 M-33.65 -53.0 Q-33.65 -52.2 -34.2 -51.65 -34.75 -51.1 -35.5 -51.1 -36.3 -51.1 -36.85 -51.65 -37.4 -52.2 -37.4 -53.0 -37.4 -53.75 -36.85 -54.3 -36.3 -54.85 -35.5 -54.85 -34.75 -54.85 -34.2 -54.3 -33.65 -53.75 -33.65 -53.0 M-25.7 -45.5 Q-25.7 -44.85 -26.15 -44.4 -26.6 -43.95 -27.25 -43.95 -27.9 -43.95 -28.35 -44.4 -28.8 -44.85 -28.8 -45.5 -28.8 -46.15 -28.35 -46.6 L-27.25 -47.05 Q-26.6 -47.05 -26.15 -46.6 -25.7 -46.15 -25.7 -45.5" fill="#e0b878" fill-rule="evenodd" stroke="none"/>
  </g>
</svg>
