<?xml version="1.0" encoding="UTF-8" standalone="no"?>
<svg xmlns:xlink="http://www.w3.org/1999/xlink" height="132.4px" width="201.05px" xmlns="http://www.w3.org/2000/svg">
  <g transform="matrix(1.0, 0.0, 0.0, 1.0, 80.15, 28.1)">
    <path d="M21.6 -7.7 L21.4 -6.45 Q20.75 -0.8 22.25 5.25 23.4 9.95 25.85 14.8 27.75 8.45 36.45 5.05 39.8 10.6 46.2 15.55 54.5 21.9 69.7 18.7 82.95 15.9 98.4 25.95 102.2 37.2 111.7 48.25 L119.55 59.55 Q121.85 62.45 120.2 71.75 L113.1 72.25 Q102.4 73.75 91.45 79.45 87.55 80.55 84.9 81.85 84.7 83.3 85.3 84.85 87.25 91.4 83.8 91.9 76.6 91.8 70.6 94.7 66.85 96.45 63.55 99.4 L62.95 99.9 Q56.55 104.9 48.1 101.45 42.2 99.05 36.45 100.0 33.8 100.45 31.15 101.6 20.25 107.05 10.3 101.6 7.4 99.3 4.55 98.45 -0.8 96.8 -5.85 100.1 -13.65 103.75 -22.6 96.0 -29.1 90.9 -35.85 91.85 -38.35 92.2 -40.85 93.4 -53.8 98.7 -59.05 86.55 -63.8 79.2 -69.35 75.9 -74.4 72.85 -80.15 73.15 -72.9 57.9 -54.5 43.9 -43.9 36.1 -40.55 29.7 -38.25 25.45 -33.85 22.55 -26.3 19.2 -21.0 15.85 -13.45 11.0 -10.7 6.2 L-9.9 5.6 Q-8.95 4.1 -10.6 -1.1 L-11.6 -4.0 Q-12.75 -7.0 -14.45 -10.85 L-15.35 -12.75 -18.55 -19.45 Q-13.3 -28.55 3.9 -28.1 20.5 -25.3 23.6 -15.05 22.1 -11.45 21.6 -7.7" fill="#000000" fill-opacity="0.4392157" fill-rule="evenodd" stroke="none"/>
  </g>
</svg>
