<?xml version="1.0" encoding="UTF-8" standalone="no"?>
<svg xmlns:xlink="http://www.w3.org/1999/xlink" height="181.8px" width="78.35px" xmlns="http://www.w3.org/2000/svg">
  <g transform="matrix(1.0, 0.0, 0.0, 1.0, 34.5, 90.9)">
    <path d="M33.45 -68.9 Q26.5 -84.7 14.5 -88.7 2.45 -92.7 -6.9 -83.6 -18.05 -72.3 -28.2 -37.4 -40.9 9.6 -23.05 67.5 L-24.9 47.6 Q-26.7 36.4 -25.65 20.15 M-24.9 47.6 Q-21.05 71.95 -6.9 89.9 -14.65 63.45 -6.2 21.25 L3.1 -11.35 Q12.3 -39.95 10.9 -44.65 M9.45 -53.1 Q2.15 -52.25 -4.4 -60.45" fill="none" stroke="#123751" stroke-linecap="round" stroke-linejoin="round" stroke-width="2.0"/>
    <path d="M39.0 -67.75 Q42.85 -58.5 42.85 -49.75 31.1 -37.8 17.75 -36.75 12.5 -41.85 10.95 -44.55 9.4 -47.2 8.55 -51.25 L9.5 -53.0 Q14.4 -61.4 23.2 -65.9 29.2 -68.65 33.5 -68.8 36.7 -69.0 39.0 -67.75 Z" fill="none" stroke="#000000" stroke-linecap="round" stroke-linejoin="round" stroke-width="2.0"/>
  </g>
</svg>
