<?xml version="1.0" encoding="UTF-8" standalone="no"?>
<svg xmlns:xlink="http://www.w3.org/1999/xlink" height="141.9px" width="76.0px" xmlns="http://www.w3.org/2000/svg">
  <g transform="matrix(1.0, 0.0, 0.0, 1.0, 38.0, 70.95)">
    <path d="M-27.6 -64.1 Q-17.05 -69.5 -4.75 -68.9 12.65 -67.4 17.55 -70.95 10.5 -49.1 -16.35 -50.45 -4.8 -47.3 7.85 -31.35 24.25 -7.7 38.0 -6.75 15.55 -4.9 -3.3 -15.35 -0.8 -8.15 0.45 0.7 0.2 38.7 -18.05 70.95 -10.7 27.15 -17.25 3.1 -23.8 -20.9 -32.8 -27.15 -28.9 -30.2 -30.7 -31.65 -33.4 -36.75 -38.0 -42.1 -26.65 -45.3 -27.4 -58.75 -27.3 -61.65 -27.6 -64.1" fill="url(#gradient0)" fill-rule="evenodd" stroke="none"/>
  </g>
  <defs>
    <linearGradient gradientTransform="matrix(0.0, 0.0898, -0.0464, 0.0, 0.0, 11.6)" gradientUnits="userSpaceOnUse" id="gradient0" spreadMethod="pad" x1="-819.2" x2="819.2">
      <stop offset="0.0" stop-color="#fff23c" stop-opacity="0.0"/>
      <stop offset="0.3803921568627451" stop-color="#fff23c" stop-opacity="0.84705883"/>
      <stop offset="0.6039215686274509" stop-color="#fff23c" stop-opacity="0.8"/>
      <stop offset="1.0" stop-color="#fff23c" stop-opacity="0.0"/>
    </linearGradient>
  </defs>
</svg>
