<?xml version="1.0" encoding="UTF-8" standalone="no"?>
<svg xmlns:xlink="http://www.w3.org/1999/xlink" height="224.45px" width="217.75px" xmlns="http://www.w3.org/2000/svg">
  <g transform="matrix(1.0, 0.0, 0.0, 1.0, 108.85, 112.2)">
    <path d="M94.0 52.6 Q93.25 64.1 89.1 76.2 82.45 95.55 52.85 109.3 68.2 98.45 68.4 40.9 68.3 18.55 65.8 -10.85 57.75 -48.2 56.15 -73.1 L56.15 -73.25 Q48.95 -89.0 50.35 -97.1 51.7 -108.3 59.5 -111.2 66.4 -110.1 74.55 -89.15 95.95 -36.15 104.1 23.9 L104.95 30.4 Q113.3 80.35 97.9 99.2 103.0 74.1 95.6 45.55 L93.75 39.05 Q94.45 45.55 94.05 52.25 M55.8 -81.85 L56.15 -73.25 M93.75 39.05 L92.45 35.15 M-45.9 -77.1 L-45.3 -71.25 Q-36.8 -92.15 -41.25 -100.65 -48.15 -114.75 -55.2 -109.25 -68.1 -99.05 -75.5 -62.0 L-93.8 -13.4 Q-108.45 19.9 -107.8 45.65 -107.25 69.35 -93.8 86.65 -101.9 75.1 -100.25 54.4 L-100.1 52.6 -99.9 50.55 Q-100.45 40.8 -96.3 31.5 M-45.3 -71.25 Q-43.95 -48.95 -54.2 -8.35 -60.35 14.75 -62.75 34.0 L-63.0 35.95 Q-64.7 50.45 -64.25 62.75 -58.8 104.0 -38.35 111.25 -61.7 107.55 -80.45 90.25 -97.3 71.5 -99.55 54.1 L-99.9 50.55" fill="none" stroke="#000000" stroke-linecap="round" stroke-linejoin="round" stroke-width="2.0"/>
  </g>
</svg>
