<?xml version="1.0" encoding="UTF-8" standalone="no"?>
<svg xmlns:xlink="http://www.w3.org/1999/xlink" height="206.4px" width="191.7px" xmlns="http://www.w3.org/2000/svg">
  <g transform="matrix(1.0, 0.0, 0.0, 1.0, 95.85, 103.2)">
    <path d="M55.8 -84.1 Q59.2 -92.75 69.85 -97.0 83.25 -87.9 85.05 -54.05 86.8 -39.75 82.45 -31.5 79.75 -25.85 82.0 -17.85 86.05 -3.55 91.15 10.45 96.25 24.4 95.8 34.05 94.7 68.65 69.4 88.15 73.7 82.6 77.25 71.6 L75.0 76.6 Q65.7 96.8 44.25 101.9 60.8 89.1 64.6 63.4 67.25 45.7 65.3 36.8 66.5 51.05 50.95 59.7 63.05 47.35 54.65 15.8 L39.3 -17.5 Q28.75 -49.7 44.25 -70.55 49.25 -68.6 56.25 -63.25 60.8 -59.75 67.0 -53.7 69.6 -55.1 70.75 -58.15 71.65 -60.25 71.8 -63.3 L71.5 -64.45 Q69.85 -69.85 63.1 -77.3 58.6 -82.4 55.8 -84.1 M-31.1 -62.55 Q-32.65 -21.65 -47.0 11.0 -58.0 34.05 -61.9 52.5 -66.0 91.0 -46.6 103.2 -90.65 81.75 -86.3 42.35 -89.5 64.1 -84.15 73.95 -100.2 54.0 -94.2 14.7 -86.2 -13.65 -70.65 -30.5 -71.45 -42.75 -69.35 -60.2 -68.9 -87.95 -58.85 -102.6 -49.6 -104.55 -39.7 -100.1 -29.75 -95.65 -24.7 -89.25 -27.25 -88.5 -30.5 -86.9 -44.8 -80.4 -47.2 -69.4 L-47.5 -67.65 Q-47.35 -64.75 -39.4 -63.5 -36.75 -59.2 -31.1 -62.55" fill="url(#gradient0)" fill-rule="evenodd" stroke="none"/>
  </g>
  <defs>
    <linearGradient gradientTransform="matrix(0.0, 0.1055, -0.117, 0.0, 0.0, 29.35)" gradientUnits="userSpaceOnUse" id="gradient0" spreadMethod="pad" x1="-819.2" x2="819.2">
      <stop offset="0.0" stop-color="#fff23c" stop-opacity="0.0"/>
      <stop offset="0.3803921568627451" stop-color="#fff23c" stop-opacity="0.84705883"/>
      <stop offset="0.6039215686274509" stop-color="#fff23c" stop-opacity="0.8"/>
      <stop offset="1.0" stop-color="#fff23c" stop-opacity="0.0"/>
    </linearGradient>
  </defs>
</svg>
