<?xml version="1.0" encoding="UTF-8" standalone="no"?>
<svg xmlns:xlink="http://www.w3.org/1999/xlink" height="191.95px" width="212.4px" xmlns="http://www.w3.org/2000/svg">
  <g transform="matrix(1.0, 0.0, 0.0, 1.0, 106.2, 95.95)">
    <path d="M96.1 -13.75 Q112.3 10.45 99.7 33.85 106.4 10.0 88.85 -9.95 L84.75 -14.25 80.95 -17.55 Q87.45 -7.7 90.3 7.95 91.15 12.6 91.65 17.75 93.55 37.25 82.95 52.8 73.4 65.6 73.8 70.95 72.85 80.65 79.9 83.8 86.95 86.95 93.1 80.1 83.75 94.8 67.65 84.45 62.05 74.0 67.4 59.9 72.7 45.8 71.9 38.75 68.85 45.3 61.1 49.5 73.7 35.6 64.25 17.95 54.8 0.3 51.6 -7.65 42.65 -30.0 41.05 -47.0 38.65 -75.0 51.6 -89.6 63.2 -95.6 70.95 -82.3 83.4 -68.4 81.85 -47.35 81.25 -34.2 95.3 -14.95 L95.95 -14.0 M-74.9 -20.15 Q-89.2 -7.3 -96.15 4.9 -102.75 16.4 -100.25 35.3 -109.1 20.45 -102.05 3.65 -98.75 -6.3 -91.35 -17.3 -87.6 -22.9 -82.75 -28.8 -73.4 -39.85 -74.0 -55.0 -74.35 -70.7 -59.45 -85.2 -48.7 -98.05 -39.4 -93.95 -24.7 -83.1 -24.15 -65.65 -23.6 -48.25 -32.25 -24.3 -40.95 -0.4 -53.7 17.25 -66.45 34.8 -53.6 46.95 -62.7 41.75 -64.55 34.15 -66.7 42.6 -58.7 60.05 -49.25 76.75 -60.55 87.75 -79.9 100.8 -96.95 90.3 -90.0 92.15 -81.0 90.65 -69.45 88.15 -67.05 79.6 -64.55 68.6 -75.1 58.25 -87.35 46.4 -88.5 30.35 -88.85 25.55 -88.2 20.4 -86.6 0.15 -74.9 -20.15" fill="none" stroke="#000000" stroke-linecap="round" stroke-linejoin="round" stroke-width="2.0"/>
    <path d="M64.35 -57.2 Q65.35 -32.5 80.95 -17.55 M49.8 -43.7 Q50.9 -24.35 67.0 6.7 75.25 22.7 73.45 33.6 73.0 36.35 71.9 38.75 M-74.9 -20.15 L-74.3 -20.65 Q-70.3 -24.2 -66.9 -28.3 -56.1 -41.6 -51.4 -60.8 M-64.55 34.15 L-64.6 33.9 Q-65.55 30.0 -64.55 25.45 -63.7 20.95 -62.4 16.6 -58.25 2.4 -49.6 -10.6 -35.85 -30.15 -34.3 -51.7" fill="none" stroke="#000000" stroke-linecap="round" stroke-linejoin="round" stroke-width="1.5"/>
  </g>
</svg>
