<?xml version="1.0" encoding="UTF-8" standalone="no"?>
<svg xmlns:xlink="http://www.w3.org/1999/xlink" height="66.3px" width="204.0px" xmlns="http://www.w3.org/2000/svg">
  <g transform="matrix(1.0, 0.0, 0.0, 1.0, 102.0, 33.15)">
    <path d="M-50.95 7.15 Q-50.65 7.9 -50.5 8.7 -50.0 11.1 -52.0 12.9 -53.75 14.6 -56.2 14.55 L-57.8 16.7 Q-62.55 22.45 -69.45 22.35 -73.9 21.15 -77.7 16.95 -81.25 13.1 -84.15 6.55 L-95.45 -2.9 Q-102.3 -8.4 -102.0 -15.5 -96.2 -11.7 -79.7 -8.7 -64.95 -3.45 -62.05 3.4 L-61.45 2.75 -60.15 1.85 Q-65.55 -3.1 -65.2 -14.25 -65.3 -21.3 -74.55 -28.8 -65.45 -30.5 -57.15 -25.05 -45.65 -16.55 -46.65 -4.75 -46.15 4.4 -50.95 7.15 M62.85 8.65 Q65.1 8.6 66.2 9.4 69.9 7.6 75.15 5.9 89.3 1.3 102.0 -1.05 92.75 8.9 89.4 22.1 86.25 32.45 76.75 33.1 L73.9 33.1 Q64.35 33.45 58.9 18.6 55.85 19.05 53.85 16.5 53.0 14.7 54.5 12.85 L51.15 10.5 Q44.4 4.6 46.7 -4.95 51.15 -11.95 53.1 -20.1 55.05 -28.2 60.45 -33.15 60.95 -26.25 63.9 -18.05 66.8 -10.0 67.5 -3.35 68.15 3.3 62.85 8.65" fill="#ffadcc" fill-rule="evenodd" stroke="none"/>
  </g>
</svg>
