<?xml version="1.0" encoding="UTF-8" standalone="no"?>
<svg xmlns:xlink="http://www.w3.org/1999/xlink" height="252.7px" width="220.4px" xmlns="http://www.w3.org/2000/svg">
  <g transform="matrix(1.0, 0.0, 0.0, 1.0, 109.95, 148.1)">
    <path d="M73.65 -104.55 Q77.35 -106.35 82.6 -108.05 96.75 -112.65 109.45 -115.0 100.2 -105.05 96.85 -91.85 93.7 -81.5 84.2 -80.85 L84.1 -80.85 Q96.25 -48.15 94.45 -9.25 96.1 7.65 104.45 29.35 112.35 50.45 106.45 67.9 101.05 83.85 84.2 96.75 92.65 87.0 94.85 65.75 92.05 83.0 78.75 97.45 95.5 69.25 78.75 29.5 71.1 9.45 76.3 -20.05 80.95 -51.4 62.55 -77.55 53.25 -93.2 58.5 -103.55 51.85 -109.45 54.15 -118.9 58.6 -125.9 60.55 -134.05 62.5 -142.15 67.9 -147.1 68.4 -140.2 71.35 -132.0 74.25 -123.95 74.95 -117.3 75.6 -110.65 70.3 -105.3 72.55 -105.35 73.65 -104.55 67.35 -101.25 65.55 -97.55 L66.35 -95.35 Q71.8 -80.5 81.35 -80.85 82.75 -80.7 84.1 -80.85 M58.5 -103.55 L58.6 -103.45 61.95 -101.1 Q63.45 -103.0 67.3 -105.0 L70.3 -105.3 M61.95 -101.1 Q60.45 -99.25 61.3 -97.45 63.3 -94.9 66.35 -95.35 M94.45 -9.25 L93.95 -1.4 M-54.6 -110.55 L-54.0 -111.2 -52.7 -112.1 Q-58.1 -117.05 -57.75 -128.2 -57.85 -135.25 -67.1 -142.75 -58.0 -144.45 -49.7 -139.0 -38.2 -130.5 -39.2 -118.7 -38.7 -109.55 -43.5 -106.8 L-43.05 -105.25 Q-42.55 -102.85 -44.55 -101.05 -46.3 -99.35 -48.75 -99.4 L-50.35 -97.25 -50.35 -97.2 -50.6 -96.95 Q-54.9 -78.8 -55.75 -49.05 -56.75 -15.4 -69.65 7.05 -81.25 27.45 -81.9 50.55 -79.3 83.35 -58.55 103.6 -85.6 85.55 -90.5 61.05 -91.3 57.05 -91.5 52.85 -92.05 60.0 -91.8 66.15 -91.35 79.75 -87.1 88.65 -94.4 80.1 -99.25 71.45 -109.05 53.9 -108.95 35.75 -108.6 11.7 -88.7 -22.6 -81.05 -38.5 -81.55 -59.0 -81.0 -87.15 -70.35 -97.1 -73.85 -100.95 -76.7 -107.4 L-88.0 -116.85 Q-94.85 -122.35 -94.55 -129.45 -88.75 -125.65 -72.25 -122.65 -57.5 -117.4 -54.6 -110.55 -54.5 -109.55 -50.1 -107.25 -45.65 -104.9 -48.75 -99.4 M-52.7 -112.1 Q-51.25 -112.9 -49.65 -112.55 -47.25 -112.05 -45.4 -109.85 -44.15 -108.35 -43.5 -106.8 M-50.6 -96.95 Q-55.3 -91.5 -62.0 -91.6 -66.45 -92.8 -70.25 -97.0 L-70.35 -97.1 M-91.5 52.85 L-91.5 52.6 -91.5 46.25" fill="none" stroke="#000000" stroke-linecap="round" stroke-linejoin="round" stroke-width="2.0"/>
    <path d="M83.45 -5.25 Q84.85 10.1 91.4 32.4 95.15 43.8 95.55 54.2 L95.55 54.4 Q95.75 60.2 94.85 65.75 M-72.3 -17.6 Q-67.35 -31.0 -69.4 -56.0 M-90.4 42.5 Q-88.55 12.7 -74.1 -8.25" fill="none" stroke="#000000" stroke-linecap="round" stroke-linejoin="round" stroke-width="1.5"/>
  </g>
</svg>
