<?xml version="1.0" encoding="UTF-8" standalone="no"?>
<svg xmlns:xlink="http://www.w3.org/1999/xlink" height="295.25px" width="155.75px" xmlns="http://www.w3.org/2000/svg">
  <g transform="matrix(1.0, 0.0, 0.0, 1.0, 77.9, 175.8)">
    <path d="M24.4 -140.85 L28.2 -139.25 Q32.45 -140.5 33.15 -142.6 37.65 -153.3 33.15 -164.0 27.05 -172.85 21.2 -174.45 L20.55 -174.55 Q14.05 -175.4 8.4 -173.45 5.4 -172.4 4.8 -169.7 4.9 -166.7 2.4 -165.25 -2.4 -162.75 0.9 -158.1 7.75 -149.35 14.9 -144.2 19.9 -142.7 24.4 -140.85 M28.4 -136.25 Q29.7 -138.0 28.2 -139.25 M28.4 -136.25 Q30.0 -135.1 28.4 -131.85 24.3 -126.55 20.8 -118.9 15.45 -107.1 11.55 -89.8 L9.0 -69.2 Q8.35 -65.05 4.4 -65.95 0.4 -66.3 -2.9 -67.6 -7.05 -69.25 -10.15 -72.45 -13.4 -77.9 -11.35 -83.3 -5.4 -101.15 6.25 -114.75 L8.75 -118.0 7.95 -117.45 -5.55 -107.75 Q-12.35 -102.7 -16.0 -101.55 L-18.75 -101.35 Q-22.9 -102.15 -22.2 -113.6 -21.9 -115.8 -22.95 -118.9 L-24.05 -121.45 Q-27.7 -128.05 -28.65 -136.45 -30.0 -146.35 -25.2 -147.8 -14.5 -150.5 0.9 -147.6 8.35 -146.15 14.9 -144.2 M7.95 -117.45 L8.65 -118.4 M9.5 -118.9 Q18.7 -130.35 28.4 -136.25 M-46.0 3.5 Q-57.6 4.8 -59.95 -12.3 -60.45 -28.25 -50.05 -37.45 -37.7 -48.4 -22.6 -52.5 L-22.3 -61.95 Q-39.85 -60.25 -59.4 -46.9 -80.45 -31.75 -76.15 -12.3 -72.25 8.85 -49.35 17.9 -20.6 22.5 -10.75 5.0 7.05 -18.45 5.1 -51.8 L4.55 -58.55 4.05 -62.4 3.55 -65.45 M4.05 -62.4 Q37.25 -59.25 54.05 -39.65 80.0 -17.0 76.4 13.45 66.6 49.0 16.8 55.45 -10.35 58.8 -28.05 67.6 -33.35 69.95 -37.7 72.65 -49.6 80.05 -54.25 90.05 -64.5 112.1 -44.25 118.45 -65.4 113.95 -62.6 92.2 -61.35 82.6 -56.65 74.35 -51.3 65.0 -41.5 57.55 -16.45 35.9 17.6 28.05 45.0 23.5 51.55 17.15 61.1 8.2 54.05 -11.75 41.6 -42.05 5.1 -51.8 M-22.6 -52.5 Q-22.75 -43.0 -22.5 -32.4 -25.5 -5.3 -39.4 1.5 L-39.65 1.65 -42.6 2.8 -42.85 2.9 -43.15 2.95 -46.0 3.5 M-16.85 -101.05 Q-21.45 -84.6 -22.3 -61.95 M-39.65 1.65 L-42.6 2.8" fill="none" stroke="#000000" stroke-linecap="round" stroke-linejoin="round" stroke-width="2.0"/>
    <path d="M24.4 -140.85 Q22.9 -148.45 14.35 -161.15 M28.4 -136.25 Q9.85 -135.25 -9.65 -127.05 M24.4 -159.7 Q27.0 -148.55 24.4 -140.85 M4.55 -58.55 Q22.15 -57.25 36.45 -48.6 M65.8 19.3 Q49.45 45.55 20.65 48.65 -1.25 51.15 -20.5 58.65 -27.9 61.65 -33.85 65.05 -57.45 78.45 -59.05 97.8 M-46.0 3.5 Q-63.2 6.6 -66.9 -10.6 -68.95 -29.45 -53.8 -43.85 -43.05 -53.0 -26.15 -56.7 M-3.75 -67.1 Q-0.4 -47.3 -5.75 -18.2 M-10.75 -136.25 Q8.45 -139.55 28.4 -136.25" fill="none" stroke="#000000" stroke-linecap="round" stroke-linejoin="round" stroke-width="1.4000000000000001"/>
  </g>
</svg>
