<?xml version="1.0" encoding="UTF-8" standalone="no"?>
<svg xmlns:xlink="http://www.w3.org/1999/xlink" height="184.6px" width="178.3px" xmlns="http://www.w3.org/2000/svg">
  <g transform="matrix(1.0, 0.0, 0.0, 1.0, 89.15, 92.3)">
    <path d="M18.2 -54.7 Q18.3 -71.4 7.5 -92.3 33.3 -81.1 50.0 -59.1 66.7 -37.15 64.15 -23.0 68.55 -43.35 89.15 -59.45 86.0 -44.8 84.6 -31.0 83.2 -17.3 78.45 -7.55 71.15 13.1 41.6 17.05 34.95 30.55 25.0 43.05 15.05 55.5 9.5 67.0 3.8 45.8 12.65 24.55 1.3 44.0 -12.3 60.95 -25.9 77.85 -33.3 92.3 -35.4 59.25 -22.2 26.15 -41.65 43.1 -76.5 53.1 -60.45 39.75 -52.1 26.65 -43.8 13.55 -31.3 1.6 -65.15 4.4 -89.15 -5.55 -71.55 -11.2 -49.55 -23.7 -34.15 -32.0 -18.25 -33.3 -27.4 -37.35 -39.4 -45.65 -51.45 -53.95 -77.3 -64.2 -14.9 -68.75 18.2 -54.7" fill="#70c4ff" fill-rule="evenodd" stroke="none"/>
  </g>
</svg>
