<?xml version="1.0" encoding="UTF-8" standalone="no"?>
<svg xmlns:xlink="http://www.w3.org/1999/xlink" height="171.8px" width="276.75px" xmlns="http://www.w3.org/2000/svg">
  <g transform="matrix(1.0, 0.0, 0.0, 1.0, 138.35, 85.9)">
    <path d="M114.35 -10.45 L114.7 -10.45 114.8 -10.25 114.35 -10.45 M-112.2 -10.45 L-111.8 -10.45 -112.35 -10.25 -112.2 -10.45" fill="#70c4ff" fill-rule="evenodd" stroke="none"/>
    <path d="M114.35 -10.45 L112.45 -12.35 Q107.65 -17.3 104.8 -25.6 L95.35 -54.8 Q86.5 -79.05 72.05 -83.95 64.15 -86.6 57.15 -81.75 50.2 -76.9 50.25 -69.4 L55.15 -59.7 Q69.5 -57.4 73.25 -67.55 M55.15 -59.7 Q63.95 -41.1 62.3 -32.95 60.3 -21.1 62.3 -10.1 63.4 -2.45 65.65 4.85 70.35 17.8 66.3 29.85 62.25 41.85 74.7 61.2 73.9 50.05 80.9 44.05 L82.05 43.0 Q81.4 35.45 81.4 25.95 81.4 12.05 76.55 4.2 M82.1 -24.5 Q81.05 -16.9 82.15 -10.45 L82.3 -10.1 Q83.65 -1.05 87.6 6.2 95.45 20.4 89.75 38.95 105.55 28.4 101.05 9.75 L96.15 -10.1 M114.35 -10.45 L114.8 -10.25 114.7 -10.45 M96.8 -18.5 Q100.65 -14.55 103.65 -10.45 L104.1 -10.1 Q106.65 -5.4 108.5 -0.45 112.7 10.5 127.15 9.55 131.3 9.35 135.95 8.15 127.15 5.1 122.2 -0.95 L114.8 -10.25 M127.15 9.55 L129.05 12.6 Q131.25 20.9 130.3 32.45 129.35 43.95 131.65 52.15 133.95 60.3 137.4 65.5 121.2 60.15 117.8 38.65 117.75 60.25 123.9 71.0 113.75 66.6 110.3 58.75 108.65 55.0 107.8 51.65 108.75 57.65 107.45 67.85 106.15 78.05 93.4 84.55 96.2 76.1 87.2 55.95 82.6 49.75 82.05 43.0 M107.8 51.65 Q107.25 49.55 107.05 47.65 L106.85 44.85 105.55 37.95 M117.8 38.65 L117.35 35.6 Q116.65 27.7 110.9 17.7 M74.7 61.2 L75.45 62.25 M-112.35 -10.25 L-121.05 -0.95 Q-126.9 5.1 -137.35 8.15 -131.85 9.35 -126.95 9.55 -109.85 10.5 -104.9 -0.45 -102.7 -5.4 -99.65 -10.1 L-99.15 -10.45 Q-95.6 -14.55 -91.05 -18.5 M-112.2 -10.45 L-112.35 -10.25 -111.8 -10.45 -109.55 -12.35 Q-103.85 -17.3 -100.5 -25.6 L-89.35 -54.8 Q-78.85 -79.05 -61.8 -83.95 -52.45 -86.6 -44.2 -81.75 -35.95 -76.9 -36.05 -69.4 L-41.8 -59.7 Q-52.25 -41.1 -50.3 -32.95 -47.9 -21.1 -50.2 -10.1 -51.6 -2.45 -54.25 4.85 -63.55 21.0 -60.2 28.35 -50.55 42.15 -64.95 61.2 L-65.8 62.25 M-63.2 -67.55 Q-58.8 -57.4 -41.8 -59.7 M-73.7 -24.5 Q-72.45 -16.9 -73.75 -10.45 L-73.9 -10.1 Q-75.5 -1.05 -80.2 6.2 -89.45 20.4 -82.7 38.95 -101.4 28.4 -96.05 9.75 L-90.3 -10.1 M-64.95 61.2 Q-64.0 50.05 -72.25 44.05 -80.55 38.05 -78.05 27.2 -80.1 35.2 -75.65 45.3 -65.2 77.5 -100.6 84.9 -90.65 77.85 -97.85 62.35 -104.2 51.3 -102.95 44.85 -104.9 50.05 -108.95 55.5 -115.75 64.6 -112.35 73.8 -135.15 56.55 -115.35 35.6 L-118.0 37.75 Q-134.1 57.95 -125.45 66.9 -141.75 58.9 -135.7 46.35 -129.7 33.75 -130.7 27.35 -131.75 20.9 -129.15 12.6 L-126.95 9.55 M-78.05 27.2 Q-72.85 12.05 -62.4 5.6 M-102.95 44.85 L-101.4 37.95 Q-101.7 41.35 -102.95 44.85 M-96.25 8.35 Q-102.6 24.55 -115.35 35.6" fill="none" stroke="#000000" stroke-linecap="round" stroke-linejoin="round" stroke-width="2.0"/>
  </g>
</svg>
