<?xml version="1.0" encoding="UTF-8" standalone="no"?>
<svg xmlns:xlink="http://www.w3.org/1999/xlink" height="139.6px" width="181.35px" xmlns="http://www.w3.org/2000/svg">
  <g transform="matrix(1.0, 0.0, 0.0, 1.0, 90.65, 69.8)">
    <path d="M65.05 -69.75 Q68.7 -61.35 75.2 -55.3 80.65 -50.35 81.15 -43.0 L81.15 -40.6 Q78.35 -33.95 55.1 -30.8 L53.35 -30.55 55.15 -30.3 Q79.25 -26.75 86.05 -16.8 87.7 -11.65 82.9 -3.7 78.15 4.2 77.2 9.1 66.85 5.55 59.6 -0.45 67.7 9.7 79.4 21.1 91.15 32.5 90.7 40.95 L80.75 53.1 Q76.05 33.95 66.8 24.15 L64.2 21.0 Q73.75 44.05 71.45 69.8 L69.6 66.9 Q66.35 62.6 62.25 61.1 L58.85 60.4 Q60.35 43.7 58.7 21.7 53.95 -0.35 47.2 -17.2 L47.0 -17.7 46.75 -18.25 Q44.45 -23.95 43.45 -30.7 39.35 -31.75 37.15 -34.0 38.2 -46.75 48.95 -58.6 59.9 -70.45 65.05 -69.75 M-82.0 -3.7 Q-87.35 -11.65 -85.5 -16.8 -77.65 -27.15 -49.1 -30.55 -60.7 -31.9 -68.0 -33.85 -75.05 -35.75 -78.1 -38.25 -79.45 -39.35 -80.05 -40.6 -80.35 -47.6 -76.1 -52.65 L-73.45 -55.3 Q-66.2 -61.35 -62.15 -69.75 -56.4 -70.45 -44.25 -58.6 -32.25 -46.75 -31.1 -34.0 -33.55 -31.75 -38.1 -30.7 -39.25 -23.95 -41.8 -18.25 L-42.05 -17.7 -42.3 -17.2 Q-49.8 -0.35 -55.1 21.7 -56.9 43.7 -55.25 60.4 -63.7 61.0 -69.25 69.8 -71.8 44.05 -61.2 21.0 L-64.1 24.15 Q-68.3 28.1 -71.6 33.65 -76.5 41.7 -79.6 53.1 L-90.65 40.95 Q-91.15 32.5 -78.1 21.1 -67.45 11.7 -59.45 3.2 L-56.05 -0.45 -58.05 0.95 Q-65.55 6.0 -75.65 9.1 -76.7 4.2 -82.0 -3.7" fill="#b63838" fill-rule="evenodd" stroke="none"/>
  </g>
</svg>
