<?xml version="1.0" encoding="UTF-8" standalone="no"?>
<svg xmlns:xlink="http://www.w3.org/1999/xlink" height="280.25px" width="306.95px" xmlns="http://www.w3.org/2000/svg">
  <g transform="matrix(1.0, 0.0, 0.0, 1.0, 153.45, 148.8)">
    <path d="M114.3 -109.0 L116.5 -105.5 116.7 -105.05 114.3 -109.0" fill="#70c4ff" fill-rule="evenodd" stroke="none"/>
    <path d="M116.7 -105.05 L116.75 -105.0 116.85 -104.85 117.0 -104.6 Q164.05 -48.45 148.7 24.8 L148.25 22.9 Q147.05 -44.05 122.1 -93.4 133.4 -64.25 142.55 -0.6 147.05 34.85 143.65 64.05 138.35 90.8 141.1 111.75 141.7 116.7 142.4 119.9 132.05 114.25 132.55 101.3 131.7 114.65 125.85 119.1 123.65 111.05 119.35 103.65 115.0 96.2 114.4 92.45 113.3 105.3 115.85 114.75 117.95 122.65 122.5 128.2 112.3 122.2 100.7 110.1 94.8 103.9 93.9 91.7 93.95 106.35 81.35 120.3 86.15 107.8 81.55 87.75 79.95 80.7 80.05 68.8 77.2 84.45 65.7 85.65 73.1 72.35 78.65 52.0 L80.25 45.9 Q71.0 20.7 78.7 -16.9 L75.35 -17.6 Q76.85 -34.3 75.2 -56.3 70.45 -78.35 63.7 -95.2 L63.5 -95.7 63.25 -96.25 Q60.95 -101.95 59.95 -108.7 55.85 -109.75 53.65 -112.0 54.7 -124.75 65.45 -136.6 76.4 -148.45 81.55 -147.75 85.2 -139.35 91.7 -133.3 97.15 -128.35 97.65 -121.0 L97.65 -120.75 Q107.25 -119.2 114.3 -109.0 L116.5 -105.5 116.7 -105.05 114.3 -109.0 M97.65 -120.75 L97.65 -118.6 Q94.85 -111.95 71.6 -108.8 L71.45 -108.75 71.5 -108.3 71.65 -108.3 Q95.75 -104.75 102.55 -94.8 104.2 -89.65 99.4 -81.7 94.65 -73.8 93.7 -68.9 83.35 -72.45 76.1 -78.45 84.2 -68.3 95.9 -56.9 107.65 -45.5 107.2 -37.05 L97.25 -24.9 Q92.55 -44.05 83.3 -53.85 L80.7 -57.0 Q90.25 -33.95 87.95 -8.2 L86.15 -11.0 85.3 -5.95 Q85.7 13.0 84.35 27.1 L84.35 27.4 81.4 41.05 Q82.3 47.95 84.2 54.45 81.9 50.35 80.25 45.9 M71.45 -108.75 L69.85 -108.55 71.5 -108.3 M69.85 -108.55 L64.5 -108.0 59.95 -108.7 M80.7 -57.0 Q75.3 -64.4 73.4 -75.5 L73.2 -76.6 Q72.8 -79.1 72.55 -81.7 67.0 -87.5 63.7 -95.2 M76.1 -78.45 L73.0 -81.3 72.55 -81.7 M86.15 -11.0 L86.1 -11.1 Q82.85 -15.4 78.75 -16.9 L78.7 -16.9 M117.0 -104.6 Q119.6 -99.85 122.1 -93.4 M114.4 92.45 Q115.55 78.85 120.7 61.5 M93.9 91.7 Q93.9 78.95 95.9 64.15 M117.1 7.65 Q128.45 46.25 89.45 62.5 105.3 41.45 104.85 14.1 M132.55 101.3 Q133.0 75.9 128.5 60.05 M81.35 58.2 L80.05 68.8 M81.4 41.05 Q78.6 19.2 85.3 -5.95 M109.25 -71.9 Q113.4 -25.7 135.3 3.9 127.9 -17.25 123.9 -51.45 M-59.75 -130.45 Q-63.85 -125.45 -63.55 -118.6 -62.95 -117.35 -61.6 -116.25 -58.55 -113.75 -51.5 -111.85 -44.2 -109.9 -32.6 -108.55 L-26.7 -108.0 -23.25 -108.4 -21.6 -108.7 Q-17.05 -109.75 -14.6 -112.0 -15.75 -124.75 -27.75 -136.6 -39.9 -148.45 -45.65 -147.75 -49.7 -139.35 -56.95 -133.3 L-59.6 -130.65 -59.75 -130.45 Q-87.7 -127.15 -103.05 -101.75 -131.55 -53.6 -132.2 10.0 -132.9 24.35 -132.55 45.4 -131.95 80.2 -152.45 92.6 -133.85 90.5 -128.35 78.3 L-124.9 70.45 Q-122.3 63.0 -121.5 53.05 M-32.6 -108.55 Q-61.15 -105.15 -69.0 -94.8 -70.85 -89.65 -65.5 -81.7 -60.2 -73.8 -59.15 -68.9 -49.2 -71.95 -41.75 -76.9 L-41.55 -77.05 -39.55 -78.45 -35.65 -81.7 Q-29.45 -87.5 -25.8 -95.2 L-25.55 -95.7 -25.3 -96.25 Q-22.75 -101.95 -21.6 -108.7 M-39.55 -78.45 L-42.95 -74.8 -43.0 -74.7 Q-51.0 -66.25 -61.6 -56.9 -74.65 -45.5 -74.15 -37.05 L-63.1 -24.9 Q-60.05 -36.1 -55.25 -44.05 L-55.1 -44.35 Q-51.8 -49.9 -47.6 -53.85 L-44.7 -57.0 Q-38.7 -64.4 -36.55 -75.5 -35.95 -78.5 -35.65 -81.7 M-44.7 -57.0 Q-55.3 -33.95 -52.75 -8.2 -47.2 -17.0 -38.75 -17.6 -40.4 -34.3 -38.6 -56.3 -33.3 -78.35 -25.8 -95.2 M-43.0 -74.7 L-41.75 -76.9 M-63.6 -13.95 L-62.8 -5.95 Q-56.95 19.2 -60.55 41.05 -61.7 47.95 -63.75 54.45 -61.35 50.35 -59.55 45.9 -48.25 17.85 -57.4 -25.3 -57.3 -34.75 -55.25 -44.05 M-61.75 -116.05 Q-73.1 -116.95 -86.5 -101.3 -112.95 -72.5 -108.0 -13.5 M-62.8 -5.95 Q-63.85 13.0 -63.0 27.1 L-63.0 27.4 -60.55 41.05 M-59.55 45.9 L-58.15 52.0 Q-53.25 72.35 -46.3 85.65 -57.8 84.45 -60.1 68.8 -60.4 80.7 -63.6 89.5 -68.05 104.65 -78.4 118.3 -75.3 106.35 -74.75 91.7 -76.05 103.9 -86.2 109.15 -90.15 121.55 -98.65 130.45 -98.8 126.05 -104.6 113.5 -110.4 100.95 -110.65 85.25 -112.3 109.65 -101.95 124.25 -130.1 109.75 -128.35 78.3 M-74.75 91.7 Q-74.3 78.95 -75.8 64.15 M-61.0 58.2 L-60.1 68.8 M-110.65 85.25 Q-110.2 77.9 -108.65 69.75 -113.35 75.05 -118.9 79.8 -107.2 60.05 -108.2 22.5 M-82.05 4.15 Q-85.35 43.45 -108.65 69.75 M-86.2 109.15 Q-81.7 94.95 -83.15 76.3" fill="none" stroke="#000000" stroke-linecap="round" stroke-linejoin="round" stroke-width="2.0"/>
  </g>
</svg>
