<?xml version="1.0" encoding="UTF-8" standalone="no"?>
<svg xmlns:xlink="http://www.w3.org/1999/xlink" height="227.0px" width="170.55px" xmlns="http://www.w3.org/2000/svg">
  <g transform="matrix(1.0, 0.0, 0.0, 1.0, 85.3, 113.5)">
    <path d="M8.5 -109.2 Q13.45 -105.85 25.2 -103.1 36.5 -100.45 37.05 -98.8 35.35 -107.1 35.85 -113.5 42.05 -102.8 53.25 -94.25 66.4 -85.1 70.8 -76.2 70.3 -82.05 80.0 -88.0 75.25 -78.9 82.3 -65.3 85.2 -60.4 85.25 -53.6 L83.2 -55.45 Q75.95 -55.9 66.9 -46.45 57.85 -37.1 55.8 -29.2 49.6 -27.65 48.75 -25.5 30.45 -37.85 11.15 -33.4 L6.3 -32.05 Q6.85 -2.45 25.75 3.45 L25.55 3.6 24.45 4.7 Q12.9 17.25 4.35 36.65 0.0 49.25 2.05 63.4 -2.2 59.55 -5.3 54.45 2.3 71.85 17.75 78.5 L8.3 78.75 Q4.5 77.8 2.35 76.2 19.95 93.4 15.5 113.5 10.95 101.9 -0.55 92.0 -12.1 82.1 -21.0 77.45 -29.25 73.4 -33.95 65.3 -31.85 69.15 -32.4 72.75 L-32.8 74.15 Q-36.35 85.7 -49.6 82.55 -39.2 75.1 -47.45 58.7 -55.75 42.3 -54.25 36.2 L-56.2 40.6 Q-62.5 53.7 -85.1 57.95 -67.4 48.3 -66.8 30.0 -67.0 25.35 -66.8 21.45 L-66.7 19.95 Q-66.3 13.1 -64.15 9.25 -70.85 7.55 -77.45 4.25 L-74.75 4.65 Q-69.1 5.0 -63.4 3.8 -60.05 -5.7 -51.35 -13.4 -64.55 -8.05 -85.3 -7.2 L-81.15 -7.85 -80.45 -8.05 Q-67.25 -11.7 -58.7 -25.1 -53.25 -35.2 -47.0 -41.2 L-43.5 -44.1 Q-57.3 -42.95 -71.5 -43.95 L-72.1 -44.0 -74.35 -44.15 Q-54.65 -51.55 -32.8 -72.65 -14.65 -85.65 -0.05 -80.5 -14.05 -89.35 -27.4 -108.95 -7.25 -95.75 12.95 -96.3 L13.8 -96.3 14.3 -96.2 21.5 -95.65 Q12.7 -98.45 8.5 -109.2 M60.7 -18.65 Q67.75 -15.45 73.65 -14.4 70.45 -11.2 66.25 -8.35 57.25 -5.25 48.2 -5.15 52.05 -9.8 54.1 -16.8 56.85 -14.95 60.7 -18.65" fill="#70c4ff" fill-rule="evenodd" stroke="none"/>
  </g>
</svg>
