<?xml version="1.0" encoding="UTF-8" standalone="no"?>
<svg xmlns:xlink="http://www.w3.org/1999/xlink" height="144.2px" width="168.4px" xmlns="http://www.w3.org/2000/svg">
  <g transform="matrix(1.0, 0.0, 0.0, 1.0, 84.2, 72.1)">
    <path d="M14.55 -41.35 Q22.15 -31.95 24.5 -26.7 31.25 -54.35 56.5 -67.05 51.5 -54.85 51.05 -39.05 50.6 -24.35 50.6 -16.65 51.55 -18.05 60.35 -20.9 69.1 -23.75 83.5 -36.75 87.75 -3.9 65.65 6.85 68.35 6.0 71.75 6.15 78.0 5.75 83.65 1.9 79.0 17.7 60.75 17.8 60.85 12.6 59.15 9.4 57.5 6.45 54.5 3.8 38.05 -1.05 14.35 11.85 -9.65 27.4 -12.05 48.4 -9.05 61.6 -29.45 72.1 -24.15 67.0 -21.7 51.9 -34.45 68.75 -57.9 62.15 -46.35 61.4 -31.05 48.15 -51.3 57.35 -84.2 47.15 -69.4 41.8 -55.75 31.5 -46.65 25.25 -38.0 23.55 -64.3 24.8 -83.85 -9.25 -67.75 -6.3 -47.1 -7.35 -33.15 -7.95 -24.65 -4.8 -52.0 -17.4 -55.35 -57.85 -39.15 -46.65 -16.45 -35.9 -7.75 -30.9 -2.3 -25.7 -10.95 -48.65 -1.45 -72.1 6.9 -50.8 14.55 -41.35" fill="#70c4ff" fill-rule="evenodd" stroke="none"/>
  </g>
</svg>
