<?xml version="1.0" encoding="UTF-8" standalone="no"?>
<svg xmlns:xlink="http://www.w3.org/1999/xlink" height="153.1px" width="99.3px" xmlns="http://www.w3.org/2000/svg">
  <g transform="matrix(1.0, 0.0, 0.0, 1.0, 49.65, 76.55)">
    <path d="M10.6 -48.05 Q13.95 -38.25 13.55 -24.9 26.85 -42.45 29.75 -72.05 28.85 -52.45 36.7 -39.1 42.2 -54.95 46.2 -76.55 51.55 -51.9 48.65 -27.25 47.25 -19.9 45.4 -13.15 L41.65 -31.15 Q38.75 2.1 29.9 16.25 L29.35 -6.65 Q25.25 21.3 13.25 50.9 L11.7 32.05 Q1.65 56.05 1.3 70.0 -7.7 55.45 -6.7 42.65 L-7.95 48.9 Q-10.0 59.4 -10.15 75.8 L-10.3 76.55 Q-15.5 66.8 -17.85 37.1 -17.3 47.5 -19.55 55.45 L-23.25 68.55 Q-31.25 48.15 -28.5 29.75 -32.8 47.95 -38.0 48.55 -36.3 40.4 -37.15 25.75 -37.95 10.9 -34.45 2.65 L-42.55 16.15 Q-42.95 -6.05 -37.85 -25.7 -42.8 -15.4 -49.65 -15.85 -44.5 -24.25 -44.45 -37.35 -44.45 -50.45 -39.1 -65.0 -39.8 -45.0 -32.0 -33.5 -31.55 -53.9 -24.05 -74.3 -26.45 -45.15 -16.7 -22.75 -14.2 -43.95 -6.5 -66.95 L-3.65 -40.3 Q5.0 -54.3 5.95 -72.05 7.2 -57.85 10.6 -48.05" fill="#7fd46c" fill-rule="evenodd" stroke="none"/>
  </g>
</svg>
