<?xml version="1.0" encoding="UTF-8" standalone="no"?>
<svg xmlns:xlink="http://www.w3.org/1999/xlink" height="148.85px" width="121.6px" xmlns="http://www.w3.org/2000/svg">
  <g transform="matrix(1.0, 0.0, 0.0, 1.0, 60.8, 74.45)">
    <path d="M49.1 -46.8 Q59.0 -33.2 60.8 -22.4 59.25 -5.15 42.1 15.15 38.15 19.5 33.85 21.15 16.65 54.4 20.45 74.4 -4.05 47.4 23.5 29.1 2.0 41.4 -35.1 35.25 L-17.75 25.8 Q-33.6 28.6 -60.8 39.1 -35.45 3.85 -7.85 -5.4 -21.25 -12.65 -29.1 -25.1 -3.45 -23.8 9.25 -19.25 -15.7 -34.2 -15.5 -50.25 2.2 -41.4 27.6 -35.7 37.45 -33.8 44.3 -31.2 30.8 -37.7 37.35 -74.45 39.15 -60.5 49.1 -46.8" fill="url(#gradient0)" fill-rule="evenodd" stroke="none"/>
  </g>
  <defs>
    <linearGradient gradientTransform="matrix(-0.0968, 0.0397, -0.0304, -0.0741, -39.35, 28.05)" gradientUnits="userSpaceOnUse" id="gradient0" spreadMethod="pad" x1="-819.2" x2="819.2">
      <stop offset="0.0" stop-color="#fff23c" stop-opacity="0.0"/>
      <stop offset="0.3803921568627451" stop-color="#fff23c" stop-opacity="0.84705883"/>
      <stop offset="0.6039215686274509" stop-color="#fff23c" stop-opacity="0.8"/>
      <stop offset="1.0" stop-color="#fff23c" stop-opacity="0.0"/>
    </linearGradient>
  </defs>
</svg>
