<?xml version="1.0" encoding="UTF-8" standalone="no"?>
<svg xmlns:xlink="http://www.w3.org/1999/xlink" height="150.85px" width="150.5px" xmlns="http://www.w3.org/2000/svg">
  <g transform="matrix(1.0, 0.0, 0.0, 1.0, 61.8, 75.45)">
    <path d="M49.85 -27.7 Q47.4 -30.05 44.3 -31.2 37.45 -33.8 27.6 -35.7 2.2 -41.4 -15.5 -50.25 -15.7 -34.2 9.25 -19.25 L15.55 -15.65 M60.8 -22.4 Q59.0 -33.2 49.1 -46.8 39.15 -60.5 37.35 -74.45 30.8 -37.7 44.3 -31.2 M63.15 -28.35 Q64.7 -11.9 87.7 -0.5 84.4 19.1 67.55 29.9 49.4 31.55 36.35 25.15 L34.35 20.95 Q38.65 19.3 42.6 14.95 59.75 -5.35 61.3 -22.6 L63.15 -28.35 M18.05 14.65 Q2.8 22.15 -17.75 25.8 L-35.1 35.25 Q2.0 41.4 23.5 29.1 L26.65 27.1 Q30.55 24.45 33.85 21.15 16.65 54.4 20.45 74.4 -4.05 47.4 23.5 29.1 M9.25 -19.25 Q-3.45 -23.8 -29.1 -25.1 -21.25 -12.65 -7.85 -5.4 L-5.65 -4.25 M-7.85 -5.4 Q-35.45 3.85 -60.8 39.1 -33.6 28.6 -17.75 25.8" fill="none" stroke="#101010" stroke-linecap="round" stroke-linejoin="round" stroke-width="2.0"/>
  </g>
</svg>
