<?xml version="1.0" encoding="UTF-8" standalone="no"?>
<svg xmlns:xlink="http://www.w3.org/1999/xlink" height="97.8px" width="213.55px" xmlns="http://www.w3.org/2000/svg">
  <g transform="matrix(1.0, 0.0, 0.0, 1.0, 106.75, 48.9)">
    <path d="M47.05 -35.55 Q47.6 -36.9 52.3 -37.15 63.65 -37.7 68.85 -44.0 68.65 -35.8 63.2 -31.65 68.4 -34.2 75.95 -33.5 83.5 -32.8 90.15 -35.8 89.2 -25.2 79.85 -23.05 87.05 -20.25 93.1 -11.2 99.2 -2.05 106.8 1.9 95.55 5.6 87.6 -0.35 98.1 14.45 87.7 31.05 87.75 23.45 84.8 14.1 88.9 29.85 79.95 48.0 80.35 33.55 70.0 13.0 77.3 28.45 72.45 37.9 65.8 22.55 54.7 11.45 45.1 1.85 40.05 -5.65 41.7 -4.95 43.65 -4.4 48.8 4.4 62.35 2.0 72.8 -1.3 76.75 -12.95 58.45 -19.5 46.9 -8.35 50.35 -14.9 47.55 -21.9 45.45 -27.2 40.25 -32.95 41.95 -36.0 42.5 -41.75 47.35 -39.25 47.05 -35.55 M-61.75 -44.5 Q-55.6 -38.1 -42.15 -37.55 -33.2 -37.15 -28.65 -35.3 L-28.35 -35.2 Q-28.4 -41.05 -30.8 -48.9 -21.85 -39.1 -21.05 -30.75 -25.85 -26.05 -28.3 -21.65 -32.25 -14.65 -29.25 -8.1 -40.7 -19.25 -61.7 -12.7 -58.7 -1.05 -47.55 2.25 -38.6 3.7 -32.6 1.05 -36.25 6.15 -43.3 11.6 -58.15 23.1 -66.05 38.65 -71.8 29.05 -63.1 13.4 -75.4 34.25 -74.9 48.9 -85.5 30.5 -80.65 14.5 -84.15 24.0 -84.1 31.7 -96.4 14.85 -83.95 -0.2 -93.4 5.85 -106.75 2.1 -97.75 -1.9 -90.5 -11.2 -83.3 -20.4 -74.8 -23.25 -85.85 -25.4 -87.0 -36.2 -79.1 -33.15 -70.15 -33.85 -61.2 -34.55 -55.05 -31.95 -61.55 -36.2 -61.75 -44.5" fill="url(#gradient0)" fill-rule="evenodd" stroke="none"/>
  </g>
  <defs>
    <linearGradient gradientTransform="matrix(0.0, 0.1088, -0.1303, 0.0, 0.05, 74.5)" gradientUnits="userSpaceOnUse" id="gradient0" spreadMethod="pad" x1="-819.2" x2="819.2">
      <stop offset="0.0" stop-color="#fff23c" stop-opacity="0.0"/>
      <stop offset="0.3803921568627451" stop-color="#fff23c" stop-opacity="0.84705883"/>
      <stop offset="0.6039215686274509" stop-color="#fff23c" stop-opacity="0.8"/>
      <stop offset="1.0" stop-color="#fff23c" stop-opacity="0.0"/>
    </linearGradient>
  </defs>
</svg>
