<?xml version="1.0" encoding="UTF-8" standalone="no"?>
<svg xmlns:xlink="http://www.w3.org/1999/xlink" height="231.6px" width="180.3px" xmlns="http://www.w3.org/2000/svg">
  <g transform="matrix(1.0, 0.0, 0.0, 1.0, 90.15, 115.8)">
    <path d="M-42.05 -112.5 L-42.0 -112.7 -41.55 -112.5 -40.85 -112.2 -41.1 -112.05 Q-41.7 -111.75 -42.25 -111.4 L-42.05 -112.45 -41.1 -112.05 -42.05 -112.45 -42.05 -112.5 -41.55 -112.5 -42.05 -112.5" fill="#70c4ff" fill-rule="evenodd" stroke="none"/>
    <path d="M71.55 -55.6 Q73.4 -39.9 71.9 -17.95 69.75 30.8 89.15 56.15 L88.35 54.35 Q75.2 25.2 80.45 -24.3 85.15 -63.3 79.25 -89.3 70.05 -106.9 57.9 -110.8 45.2 -115.05 35.85 -109.95 L37.8 -108.55 Q40.4 -106.35 41.95 -103.75 43.85 -100.4 46.0 -95.45 49.6 -87.15 46.95 -72.05 45.7 -64.35 42.7 -54.95 L42.25 -53.75 Q25.15 -3.2 39.45 70.0 36.45 47.05 38.85 16.25 41.05 -11.75 47.75 -46.45 M46.95 -72.05 L46.9 -71.85 Q42.8 -66.15 37.9 -69.8 36.55 -90.8 27.15 -102.4 26.7 -109.35 35.85 -109.95 M71.9 -17.95 Q70.4 3.9 65.5 32.05 61.7 86.2 65.85 110.9 36.25 71.7 38.85 16.25 M-42.05 -112.45 L-42.15 -112.5 -42.05 -112.5 -42.0 -112.7 Q-48.15 -115.15 -56.5 -114.75 -76.95 -110.25 -84.9 -91.45 -91.5 -68.3 -87.9 -32.55 -81.5 14.9 -87.65 44.7 L-86.5 42.15 Q-81.1 29.8 -78.0 16.2 -75.1 3.1 -74.3 -11.15 -73.85 -18.45 -74.0 -26.05 L-74.2 -27.9 M-42.05 -112.45 L-42.25 -111.4 M-41.1 -112.05 L-42.05 -112.45 -42.05 -112.5 -41.55 -112.5 Q-33.25 -112.75 -27.95 -106.35 -41.85 -94.4 -44.85 -64.75 -48.85 -64.25 -51.85 -65.65 L-52.05 -65.95 -52.25 -82.5 Q-52.5 -99.25 -42.4 -111.2 L-41.0 -112.0 -41.1 -112.05 M-45.2 24.0 L-48.55 37.35 -48.6 37.55 -50.5 46.65 Q-55.85 78.55 -46.65 106.4 -53.15 80.35 -42.4 33.35 -34.45 3.2 -43.5 -29.0 L-43.5 -29.15 -44.0 -30.4 Q-46.1 -36.35 -47.95 -45.85 L-51.85 -65.65 -52.05 -65.75 -52.05 -65.95 M-50.5 46.65 Q-59.65 91.35 -61.2 114.8 -75.3 88.25 -71.55 53.65 -72.25 57.2 -77.15 71.35 -82.1 85.45 -79.7 99.3 -86.85 80.8 -84.8 58.65 -82.75 36.45 -80.4 28.25 -79.35 24.55 -78.0 16.2 M-65.3 22.2 Q-66.4 28.4 -68.25 34.4 L-69.2 38.9 -69.95 42.75 Q-71.0 48.25 -71.55 53.65" fill="none" stroke="#000000" stroke-linecap="round" stroke-linejoin="round" stroke-width="2.0"/>
  </g>
</svg>
