<?xml version="1.0" encoding="UTF-8" standalone="no"?>
<svg xmlns:xlink="http://www.w3.org/1999/xlink" height="33.2px" width="133.75px" xmlns="http://www.w3.org/2000/svg">
  <g transform="matrix(1.0, 0.0, 0.0, 1.0, 66.85, 16.6)">
    <path d="M66.9 -7.6 Q67.25 5.05 60.85 14.1 L59.4 15.25 Q53.85 18.85 43.25 12.7 37.8 6.3 36.45 3.55 33.05 -7.7 38.05 -15.25 54.05 -19.25 66.7 -11.4 L66.9 -7.6 M-66.8 -7.6 L-66.45 -11.4 Q-51.8 -19.25 -33.7 -15.25 -28.25 -7.7 -32.45 3.55 -34.1 6.3 -40.5 12.7 -52.8 18.85 -59.0 15.25 L-60.55 14.1 Q-67.55 5.05 -66.8 -7.6" fill="#ff5dd1" fill-rule="evenodd" stroke="none"/>
  </g>
</svg>
