<?xml version="1.0" encoding="UTF-8" standalone="no"?>
<svg xmlns:xlink="http://www.w3.org/1999/xlink" height="139.85px" width="234.45px" xmlns="http://www.w3.org/2000/svg">
  <g transform="matrix(1.0, 0.0, 0.0, 1.0, 117.2, 69.9)">
    <path d="M77.85 -59.65 Q83.45 -61.3 90.25 -59.85 102.45 -57.35 113.7 -49.5 L113.45 -49.4 Q109.7 -48.9 102.2 -52.95 L105.15 -50.15 Q110.5 -44.75 113.45 -37.55 L115.15 -33.2 115.15 -33.1 Q116.45 -17.85 114.75 -3.75 114.25 15.3 117.25 29.9 113.9 26.3 112.4 18.25 L112.65 22.9 112.65 23.45 Q112.5 29.55 110.5 35.15 105.95 44.95 104.65 52.45 103.65 50.85 102.95 49.25 101.05 45.15 101.0 41.25 L100.3 43.75 Q96.6 56.2 94.25 65.95 L93.35 69.7 Q91.85 68.1 90.5 65.95 85.3 57.85 81.15 41.5 L80.35 38.05 Q78.3 45.35 74.75 46.7 77.2 40.45 74.05 27.3 70.95 18.55 70.4 12.1 69.95 6.8 70.8 4.0 L67.15 7.7 Q74.0 -7.55 69.6 -27.05 77.05 -28.0 77.05 -36.4 77.0 -44.85 75.5 -48.6 74.0 -52.3 69.5 -55.15 73.3 -58.45 77.85 -59.65 M-85.65 -60.35 Q-94.25 -63.1 -100.25 -69.9 -83.2 -61.95 -70.9 -63.95 -58.75 -66.05 -48.7 -56.2 L-47.8 -55.25 Q-45.5 -44.5 -48.3 -35.55 -49.55 -31.3 -52.0 -27.5 L-52.5 -26.25 Q-60.1 -6.4 -54.4 11.1 L-60.15 3.65 Q-58.3 17.4 -64.95 30.1 -69.55 41.2 -67.7 50.3 -71.55 47.6 -73.3 40.85 L-74.75 44.4 Q-83.45 65.4 -96.55 69.95 -93.65 58.55 -96.95 40.05 -97.75 45.75 -106.25 48.85 -103.0 43.0 -106.85 31.65 -108.9 22.65 -106.6 13.3 -109.45 21.65 -117.2 22.05 -108.35 9.9 -106.4 -10.4 -106.45 -25.85 -101.7 -41.25 -97.1 -53.9 -85.65 -60.35" fill="url(#gradient0)" fill-rule="evenodd" stroke="none"/>
  </g>
  <defs>
    <linearGradient gradientTransform="matrix(0.0, 0.1045, -0.1431, 0.0, 0.05, 34.8)" gradientUnits="userSpaceOnUse" id="gradient0" spreadMethod="pad" x1="-819.2" x2="819.2">
      <stop offset="0.0" stop-color="#fff23c" stop-opacity="0.0"/>
      <stop offset="0.3803921568627451" stop-color="#fff23c" stop-opacity="0.84705883"/>
      <stop offset="0.6039215686274509" stop-color="#fff23c" stop-opacity="0.8"/>
      <stop offset="1.0" stop-color="#fff23c" stop-opacity="0.0"/>
    </linearGradient>
  </defs>
</svg>
