<?xml version="1.0" encoding="UTF-8" standalone="no"?>
<svg xmlns:xlink="http://www.w3.org/1999/xlink" height="260.6px" width="193.75px" xmlns="http://www.w3.org/2000/svg">
  <g transform="matrix(1.0, 0.0, 0.0, 1.0, 96.9, 130.3)">
    <path d="M59.5 -122.05 Q64.95 -120.75 71.15 -117.9 82.35 -112.55 90.4 -78.65 111.3 38.8 64.55 111.2 83.2 58.15 74.7 -17.1 79.35 78.55 51.35 123.75 65.75 75.5 61.25 7.1 61.4 83.4 37.05 122.15 47.25 45.45 31.1 -23.85 12.4 57.3 23.95 121.55 -0.75 61.45 0.7 1.25 -9.5 78.75 11.3 130.3 -27.9 78.25 -19.95 5.85 -30.35 83.3 -7.9 125.45 -50.5 85.45 -44.85 3.75 -51.35 61.65 -36.95 113.9 -73.1 61.5 -59.05 -19.75 -73.0 41.5 -61.15 96.3 -99.9 17.25 -60.95 -60.4 -92.8 -8.2 -95.15 50.25 -103.3 -14.3 -73.65 -66.65 -46.5 -111.5 -8.9 -117.65 L-6.1 -117.45 Q10.0 -130.85 28.35 -130.3 L30.15 -128.6 Q45.15 -132.3 60.2 -125.4 61.35 -124.85 59.5 -122.05 M62.0 -102.9 Q71.3 -100.95 83.65 -81.8 73.75 -108.1 65.3 -111.75 L62.0 -102.9" fill="url(#gradient0)" fill-rule="evenodd" stroke="none"/>
  </g>
  <defs>
    <linearGradient gradientTransform="matrix(0.0, 0.1067, -0.1183, 0.0, 0.0, 40.05)" gradientUnits="userSpaceOnUse" id="gradient0" spreadMethod="pad" x1="-819.2" x2="819.2">
      <stop offset="0.0" stop-color="#fff23c" stop-opacity="0.0"/>
      <stop offset="0.3803921568627451" stop-color="#fff23c" stop-opacity="0.84705883"/>
      <stop offset="0.6039215686274509" stop-color="#fff23c" stop-opacity="0.8"/>
      <stop offset="1.0" stop-color="#fff23c" stop-opacity="0.0"/>
    </linearGradient>
  </defs>
</svg>
