<?xml version="1.0" encoding="UTF-8" standalone="no"?>
<svg xmlns:xlink="http://www.w3.org/1999/xlink" height="263.25px" width="201.45px" xmlns="http://www.w3.org/2000/svg">
  <g transform="matrix(1.0, 0.0, 0.0, 1.0, 100.7, 131.6)">
    <path d="M43.0 29.8 Q52.9 32.95 60.25 36.7 75.15 44.3 79.25 54.35 81.65 33.35 55.65 24.4 29.6 15.4 3.4 -12.0 -22.8 -39.4 -13.75 -113.8 -19.5 -131.6 -38.9 -130.55 L-44.95 -128.6 Q-71.9 -115.05 -71.6 -74.2 -68.85 -43.75 -76.65 -16.0 L-79.05 -8.25 Q-86.2 14.2 -99.7 14.05 -80.35 15.65 -75.6 6.2 -72.6 -1.0 -70.75 -11.75 M60.25 36.7 Q72.9 46.15 78.0 65.6 83.05 85.0 99.75 85.55 84.75 87.1 76.6 78.7 73.5 75.5 71.4 70.95 68.0 63.65 62.45 58.55 72.1 71.7 75.4 85.95 L76.05 87.35 76.15 87.55 Q77.7 90.8 78.55 93.9 L79.25 97.05 Q80.15 102.35 78.8 107.05 73.35 136.4 46.7 129.25 33.05 125.8 44.2 108.85 40.95 121.8 49.35 121.3 59.65 119.95 59.9 109.4 58.05 88.8 31.35 77.75 L-22.7 55.5 Q-67.0 37.5 -66.4 5.0 -69.55 32.5 -58.7 45.85 L-57.7 46.8 -57.35 47.1 M62.45 58.55 L62.4 58.5 Q55.15 51.85 48.05 49.75 12.2 39.0 9.2 22.4 M75.4 85.95 Q70.1 75.65 58.2 63.45 M-75.6 6.2 Q-79.95 25.95 -58.7 45.85 M-66.4 5.0 L-63.9 -2.8 M-50.45 -5.65 Q-39.4 48.95 16.65 68.0" fill="none" stroke="#000000" stroke-linecap="round" stroke-linejoin="round" stroke-width="2.0"/>
  </g>
</svg>
