<?xml version="1.0" encoding="UTF-8" standalone="no"?>
<svg xmlns:xlink="http://www.w3.org/1999/xlink" height="229.95px" width="216.65px" xmlns="http://www.w3.org/2000/svg">
  <g transform="matrix(1.0, 0.0, 0.0, 1.0, 108.3, 114.95)">
    <path d="M37.8 -80.0 Q41.9 -93.05 58.25 -100.45 62.85 -102.3 67.45 -101.55 60.95 -111.85 47.45 -113.95 L42.2 -112.15 Q31.8 -103.3 27.25 -88.25 M45.95 -68.8 Q51.9 -66.0 54.8 -62.45 63.3 -52.05 58.3 -38.55 49.7 -15.55 55.35 -1.6 58.2 5.25 61.5 10.25 L63.7 13.3 Q66.2 16.4 71.35 20.75 76.5 25.1 77.95 35.45 79.4 45.75 77.3 52.0 75.25 58.25 70.85 60.55 66.45 62.8 61.2 60.85 58.05 59.0 56.4 57.0 57.15 62.75 59.95 64.7 64.7 67.9 72.85 66.55 80.9 64.8 87.05 61.7 107.45 51.35 107.35 25.7 107.2 20.55 103.45 12.7 99.75 4.8 91.6 -4.0 L91.6 -4.05 Q83.85 -12.45 92.3 -37.25 L93.2 -39.75 Q96.5 -48.8 96.85 -57.0 97.6 -73.15 87.0 -85.95 79.9 -94.55 74.25 -99.05 70.9 -101.0 67.45 -101.55 M42.2 -112.15 Q35.45 -115.8 28.05 -110.05 22.2 -101.2 22.95 -92.4 23.3 -73.1 33.8 -55.4 44.35 -37.7 38.85 -16.55 38.1 0.0 50.45 10.35 57.8 17.2 57.3 24.45 L56.5 40.25 Q56.8 52.95 61.2 60.85 69.25 45.25 63.65 30.5 M96.85 -57.0 Q100.35 -49.05 101.85 -37.3 103.3 -25.55 91.6 -4.0 M87.05 61.7 Q79.4 75.6 83.5 83.05 87.6 90.45 93.1 86.25 83.95 94.05 77.65 88.15 84.5 107.35 66.5 114.0 73.45 105.15 63.25 91.55 53.4 78.4 59.95 64.7 M77.65 88.15 Q74.9 85.5 72.65 80.25 M-13.55 -88.25 Q-18.85 -103.3 -31.05 -112.15 L-37.2 -113.95 Q-53.0 -111.85 -60.6 -101.55 -55.2 -102.3 -49.8 -100.45 -30.7 -93.05 -25.9 -80.0 M-31.05 -112.15 Q-23.15 -115.8 -14.45 -110.05 -7.6 -101.2 -8.5 -92.4 -8.9 -73.1 -21.2 -55.4 -33.55 -37.7 -27.1 -16.55 -26.25 0.0 -40.7 10.35 -49.3 17.2 -48.7 24.45 -48.1 31.7 -47.75 40.25 -48.1 53.5 -53.75 61.5 L-52.35 63.8 Q-43.8 77.95 -55.7 91.55 -67.6 105.15 -59.5 114.0 -80.55 107.35 -72.5 88.15 -79.9 94.05 -90.6 86.25 -84.2 90.45 -79.35 83.05 -74.55 75.6 -83.5 61.7 -107.4 51.35 -107.3 25.7 -107.1 20.55 -102.75 12.7 -98.4 4.8 -88.85 -4.0 L-88.85 -4.05 Q-98.95 -18.05 -89.7 -37.25 L-90.7 -39.75 Q-102.15 -66.7 -83.45 -85.95 -75.15 -94.55 -68.55 -99.05 -64.6 -101.0 -60.6 -101.55 M-88.85 -4.05 Q-79.8 -12.45 -89.7 -37.25 M-35.45 -68.8 Q-42.4 -66.0 -45.8 -62.45 -55.75 -52.05 -49.85 -38.55 -39.8 -15.55 -46.45 -1.6 -49.75 5.25 -53.65 10.25 L-56.2 13.3 Q-59.1 16.4 -62.3 18.65 -71.5 24.9 -74.15 34.65 -76.85 44.35 -74.6 51.5 -72.35 58.65 -68.0 61.6 -63.65 64.5 -57.15 67.35 L-65.7 66.75 Q-75.85 65.0 -83.5 61.7 M-72.5 88.15 Q-69.3 85.5 -66.7 80.25 M-53.75 61.5 Q-62.8 45.45 -56.15 30.5" fill="none" stroke="#000000" stroke-linecap="round" stroke-linejoin="round" stroke-width="2.0"/>
  </g>
</svg>
