<?xml version="1.0" encoding="UTF-8" standalone="no"?>
<svg xmlns:xlink="http://www.w3.org/1999/xlink" height="203.8px" width="95.4px" xmlns="http://www.w3.org/2000/svg">
  <g transform="matrix(1.0, 0.0, 0.0, 1.0, 47.7, 101.9)">
    <path d="M44.35 -81.25 Q43.2 -84.3 41.5 -86.9 37.5 -85.4 33.35 -83.0 34.55 -78.25 35.05 -73.45 L44.35 -81.25 45.7 -76.5 Q48.7 -62.5 42.65 -40.5 L40.25 -32.35 Q38.15 -25.7 35.4 -18.4 L33.75 -14.1 31.9 -9.45 27.85 -0.05 Q24.5 7.35 22.05 14.4 17.5 27.3 15.9 39.2 15.5 46.9 14.75 54.3 L14.2 59.55 Q12.95 69.85 10.95 79.65 13.9 84.7 17.55 89.9 L18.7 91.6 19.95 93.55 Q22.7 98.45 18.7 100.55 12.1 102.15 8.55 96.75 L7.85 95.8 5.65 92.6 Q-4.85 77.3 -9.75 61.5 L-11.25 56.25 -12.2 52.2 Q-14.2 42.85 -14.25 33.3 L-14.5 35.15 -15.0 40.0 Q-16.45 57.6 -12.7 72.45 L-11.05 78.15 -8.2 85.6 Q-5.45 90.05 -8.2 93.75 -12.25 97.5 -16.35 93.75 -20.3 88.0 -22.65 80.5 L-23.85 76.05 -25.0 70.6 -25.65 65.5 Q-26.1 61.25 -26.2 56.6 L-29.3 56.4 Q-29.3 59.75 -29.7 62.45 -30.85 71.3 -36.45 72.95 -42.1 74.6 -42.6 66.5 L-42.75 62.35 -42.95 56.25 -43.0 50.15 Q-42.95 20.45 -36.3 3.5 -38.2 4.45 -41.0 4.0 -47.95 3.25 -46.4 -8.55 L-44.6 -18.85 -43.65 -23.1 Q-41.8 -31.1 -39.05 -39.3 L-38.1 -42.15 -36.45 -46.7 Q-33.6 -54.3 -29.95 -61.85 L-28.1 -65.65 -22.65 -75.65 Q-28.55 -71.3 -32.85 -65.75 L-34.1 -63.65 Q-35.5 -61.45 -36.7 -60.3 -37.5 -59.6 -38.25 -59.35 -41.35 -58.5 -44.2 -62.95 -46.5 -68.65 -42.9 -74.45 L-41.6 -76.3 -39.75 -78.05 Q-34.0 -83.55 -27.65 -87.7 L-24.1 -90.0 -20.7 -91.9 Q-13.85 -95.6 -6.4 -98.0 24.45 -106.3 38.4 -90.95 L41.0 -87.65 41.5 -86.9 M38.4 -90.95 Q30.6 -93.15 22.8 -90.5 18.2 -88.1 14.0 -85.15 20.05 -81.85 23.2 -76.15 28.35 -80.2 33.35 -83.0 M14.0 -85.15 Q11.95 -83.8 10.05 -82.3 16.05 -79.95 19.6 -73.2 L23.2 -76.15 Q14.9 -62.35 10.0 -48.55 L9.65 -47.5 Q16.2 -33.2 15.5 -12.9 L19.7 -19.0 22.1 -22.95 24.0 -26.25 Q30.65 -38.3 33.45 -50.0 L34.65 -56.5 Q35.55 -62.55 35.4 -68.5 L35.05 -73.45 M19.6 -73.2 Q10.35 -65.35 0.5 -53.65 L-1.2 -51.6 -2.25 -50.05 -2.9 -49.35 -4.1 -46.8 Q2.65 -41.15 8.25 -43.2 L9.65 -47.5 M-20.7 -91.9 L-13.05 -81.4 Q-8.95 -83.35 -4.35 -84.9 0.8 -86.65 6.55 -87.85 14.7 -89.75 22.8 -90.5 M6.05 -35.9 Q6.75 -37.3 7.25 -39.35 -0.3 -37.8 -4.7 -43.65 -5.35 -38.8 -3.55 -36.0 -2.45 -34.3 -0.4 -33.3 3.9 -31.75 6.05 -35.9 1.8 -17.1 1.2 -0.75 L13.25 -4.75 15.5 -12.9 M7.25 -39.35 L7.55 -41.05 8.25 -43.2 M22.1 -22.95 L33.75 -14.1 M35.4 -18.4 L24.0 -26.25 M31.9 -9.45 L19.7 -19.0 M45.7 -76.5 L35.4 -68.5 M33.45 -50.0 Q37.2 -43.8 40.25 -32.35 M34.65 -56.5 Q40.25 -50.5 42.65 -40.5 M1.05 7.15 L1.05 4.15 1.1 2.55 -12.9 -2.6 -13.3 3.05 1.05 7.15 Q1.05 12.25 1.35 17.45 L1.6 21.25 1.7 22.2 5.25 15.35 7.4 10.7 Q9.6 5.75 11.4 0.75 L1.05 4.15 M1.35 17.45 L-5.9 19.25 1.8 23.45 1.7 22.2 M5.25 15.35 Q9.4 19.95 17.1 22.55 18.2 20.2 19.4 18.25 11.75 14.45 7.4 10.7 M1.8 23.45 Q1.9 25.7 1.4 27.25 0.75 29.25 -0.8 30.2 -1.4 31.65 -1.3 33.0 L-1.25 33.4 Q-0.75 36.65 3.75 39.2 10.6 42.35 13.1 32.8 15.05 26.95 17.1 22.55 M3.75 39.2 L3.4 44.75 14.75 54.3 M19.4 18.25 Q20.7 16.05 22.05 14.4 M3.4 44.75 L3.0 50.3 14.2 59.55 M3.0 50.3 L2.25 61.4 Q5.5 70.3 10.95 79.65 M2.25 61.4 L0.25 55.25 -9.75 61.5 M7.85 95.8 L19.95 93.55 M5.65 92.6 L17.55 89.9 M1.1 2.55 L1.2 -0.75 M13.25 -4.75 L11.4 0.75 M-24.1 -90.0 L-17.45 -79.05 Q-15.35 -80.3 -13.05 -81.4 M-22.65 -75.65 L-20.9 -76.9 -27.65 -87.7 M-43.0 50.15 L-32.9 50.25 -33.1 49.15 Q-33.6 46.75 -33.65 43.9 -34.15 39.8 -34.25 35.05 L-34.15 29.45 -33.95 24.3 -33.65 20.85 -33.55 19.6 Q-31.85 -3.4 -27.55 -15.25 L-27.45 -16.1 Q-26.85 -21.95 -25.75 -28.0 L-24.8 -32.6 -23.8 -37.0 Q-20.05 -52.4 -13.05 -68.9 -16.2 -62.65 -18.8 -56.6 L-20.1 -53.5 -21.45 -50.35 -23.8 -44.05 -25.2 -40.25 Q-27.85 -32.45 -29.6 -25.0 L-30.65 -20.05 Q-32.4 -11.3 -32.85 -3.0 -33.4 2.0 -36.3 3.5 M0.5 -53.65 Q-2.1 -59.55 -3.1 -69.8 L-5.65 -66.7 Q-7.2 -60.1 -2.25 -50.05 M-5.65 -66.7 L-10.35 -60.35 Q-13.65 -51.8 -6.4 -48.0 -4.65 -47.55 -2.9 -49.35 M-34.1 -63.65 Q-36.0 -71.8 -39.75 -78.05 M-13.05 -68.9 Q-9.1 -76.75 -4.35 -84.9 M-29.95 -61.85 Q-25.95 -56.75 -20.1 -53.5 M-28.1 -65.65 Q-24.6 -60.35 -18.8 -56.6 M-20.9 -76.9 L-17.45 -79.05 M-4.1 -46.8 L-4.7 -43.65 M-24.8 -32.6 Q-19.25 -29.2 -12.45 -28.25 L-10.85 -32.2 Q-17.6 -32.65 -23.8 -37.0 M-4.1 -46.8 L-10.85 -32.2 M-38.1 -42.15 Q-29.9 -40.95 -23.8 -44.05 M-39.05 -39.3 Q-31.2 -35.75 -25.2 -40.25 M-27.85 -11.35 L-28.1 -5.95 Q-23.85 -1.65 -17.3 -1.35 L-17.35 -3.2 -17.25 -6.4 Q-22.85 -7.35 -27.85 -11.35 L-27.55 -15.25 M-17.25 -6.4 Q-16.9 -15.0 -13.85 -24.25 -20.4 -24.65 -25.75 -28.0 M-12.9 -2.6 Q-11.1 -23.05 -3.55 -36.0 M-13.85 -24.25 L-12.45 -28.25 M-43.65 -23.1 Q-34.95 -21.0 -29.6 -25.0 M-44.6 -18.85 Q-36.05 -15.7 -30.65 -20.05 M-21.45 -50.35 Q-27.9 -45.75 -36.45 -46.7 M-36.7 -60.3 Q-39.5 -69.25 -42.9 -74.45 M-17.3 -1.35 Q-17.4 5.35 -20.85 6.9 L-21.25 10.9 -13.55 9.3 -13.3 3.05 M-13.55 9.3 L-13.6 13.6 -13.6 15.1 -5.9 19.25 M-14.25 33.3 L-13.35 27.25 -13.4 25.9 -13.55 19.85 -13.6 15.1 M-13.4 25.9 L-3.9 24.65 -13.55 19.85 M-28.1 -5.95 L-28.1 0.4 Q-27.95 6.7 -22.9 7.35 L-20.85 6.9 M-33.55 19.6 Q-31.6 22.15 -28.35 23.95 L-21.85 18.3 -21.65 15.2 -21.25 10.9 M-33.65 43.9 L-21.9 43.9 -22.2 36.45 -22.25 31.4 -22.25 30.2 -25.6 29.5 -34.25 35.05 M-22.25 30.2 L-22.2 26.5 Q-25.7 25.5 -28.35 23.95 M-25.6 29.5 Q-28.6 28.65 -31.05 27.1 L-34.15 29.45 M-33.1 49.15 L-21.9 49.15 -21.9 44.35 -21.9 43.9 M-0.8 30.2 Q-1.9 30.8 -3.4 31.0 -10.75 31.95 -13.4 25.9 M-11.25 56.25 L-0.95 50.3 -1.4 47.95 -1.8 45.05 -12.2 52.2 M-1.8 45.05 Q-2.65 38.15 -1.25 33.4 M-33.95 24.3 Q-32.8 26.0 -31.05 27.1 M-22.25 31.4 L-14.5 35.15 M-22.2 36.45 L-15.0 40.0 M-13.6 13.6 L-21.65 15.2 M-22.2 26.5 L-21.85 18.3 M-32.9 50.25 L-32.25 52.75 Q-31.05 55.55 -29.3 56.4 L-42.95 56.25 M-26.2 56.6 L-26.1 56.55 Q-22.35 55.25 -21.9 49.15 M-22.65 80.5 L-12.05 77.65 -17.35 74.75 -23.85 76.05 M-12.05 77.65 L-11.05 78.15 M-25.65 65.5 L-12.7 72.45 M-25.0 70.6 L-17.35 74.75 M-42.75 62.35 L-29.7 62.45 M10.05 -82.3 Q3.05 -76.85 -3.1 -69.8 M-3.9 24.65 L1.4 27.25 M0.25 55.25 L-0.95 50.3" fill="none" stroke="#000000" stroke-linecap="round" stroke-linejoin="round" stroke-width="2.0"/>
  </g>
</svg>
