<?xml version="1.0" encoding="UTF-8" standalone="no"?>
<svg xmlns:xlink="http://www.w3.org/1999/xlink" height="182.5px" width="52.35px" xmlns="http://www.w3.org/2000/svg">
  <g transform="matrix(1.0, 0.0, 0.0, 1.0, 26.2, 91.25)">
    <path d="M20.15 -57.25 Q20.2 -42.15 21.5 -26.55 21.25 -10.75 18.9 0.0 18.0 9.6 18.25 21.15 L18.5 27.1 18.95 35.15 Q18.5 67.25 -25.25 91.25 -2.2 69.55 6.55 48.55 6.6 47.7 6.9 46.95 -7.75 69.4 -26.2 74.15 -11.6 62.15 -5.4 45.95 2.25 19.15 -4.8 -2.4 -6.0 -5.8 -6.7 -9.3 -14.25 -41.2 5.05 -77.65 -21.9 -46.0 -13.1 -16.7 -25.3 -34.75 -18.5 -57.85 -9.3 -82.85 18.15 -91.15 25.9 -92.3 26.15 -81.4 26.4 -70.55 20.15 -57.25" fill="url(#gradient0)" fill-rule="evenodd" stroke="none"/>
  </g>
  <defs>
    <linearGradient gradientTransform="matrix(0.0, 0.1208, -0.032, 0.0, 0.0, 30.6)" gradientUnits="userSpaceOnUse" id="gradient0" spreadMethod="pad" x1="-819.2" x2="819.2">
      <stop offset="0.0" stop-color="#fff23c" stop-opacity="0.0"/>
      <stop offset="0.3803921568627451" stop-color="#fff23c" stop-opacity="0.84705883"/>
      <stop offset="0.6039215686274509" stop-color="#fff23c" stop-opacity="0.8"/>
      <stop offset="1.0" stop-color="#fff23c" stop-opacity="0.0"/>
    </linearGradient>
  </defs>
</svg>
