<?xml version="1.0" encoding="UTF-8" standalone="no"?>
<svg xmlns:xlink="http://www.w3.org/1999/xlink" height="57.7px" width="53.65px" xmlns="http://www.w3.org/2000/svg">
  <g transform="matrix(1.0, 0.0, 0.0, 1.0, 26.85, 28.85)">
    <path d="M14.5 -14.15 Q10.35 -22.15 5.35 -27.85 1.55 -26.15 -1.8 -24.2 11.6 -11.25 15.55 5.8 L20.25 2.3 Q17.95 -7.2 14.5 -14.15 14.3 -20.35 18.45 -24.9 18.55 -11.2 21.45 3.1 24.6 5.45 25.8 8.7 13.25 17.2 4.55 27.85 1.2 26.85 -1.4 24.7 -12.35 30.5 -19.4 23.75 -11.05 24.05 -3.8 21.9 -15.8 19.2 -25.85 11.55 -25.65 8.3 -24.85 5.4 -22.6 -3.05 -16.25 -9.6 -11.9 -4.25 -4.9 0.9 -10.1 -6.2 -14.3 -13.75 -9.25 -19.8 -1.8 -24.2 M15.55 5.8 Q11.35 9.15 7.9 12.75 4.55 16.1 1.8 19.75 0.15 22.15 -1.4 24.7 M7.9 12.75 Q2.95 9.85 0.05 6.0 M20.25 2.3 L21.45 3.1 M-3.8 21.9 L1.8 19.75 Q-15.2 17.0 -24.85 5.4" fill="none" stroke="#000000" stroke-linecap="round" stroke-linejoin="round" stroke-width="2.0"/>
  </g>
</svg>
