<?xml version="1.0" encoding="UTF-8" standalone="no"?>
<svg xmlns:xlink="http://www.w3.org/1999/xlink" height="86.25px" width="209.3px" xmlns="http://www.w3.org/2000/svg">
  <g transform="matrix(1.0, 0.0, 0.0, 1.0, 104.65, 43.15)">
    <path d="M34.9 -10.1 L37.5 -3.35 Q39.1 0.8 43.45 1.45 L46.5 2.05 49.0 2.65 Q60.65 5.8 68.05 14.05 76.4 23.35 79.35 39.1 L84.1 35.45 Q73.55 -2.35 34.9 -10.1 26.05 -23.55 34.55 -32.75 39.4 -38.05 50.05 -41.95 44.6 -38.35 41.35 -32.75 37.65 -26.45 36.8 -17.65 40.05 -27.45 46.45 -32.75 52.6 -37.85 61.6 -38.8 72.65 -38.7 81.85 -32.75 L83.1 -31.9 Q91.25 -26.2 97.85 -15.7 91.0 -20.8 84.9 -22.05 91.9 -17.8 94.85 -8.7 99.8 -1.95 103.65 7.65 L97.55 2.1 Q98.85 13.6 94.9 22.4 92.3 28.35 87.25 33.1 86.8 37.4 85.7 42.1 L84.1 35.45 M36.8 -17.65 Q35.65 -14.15 34.9 -10.1 37.55 -15.7 42.15 -19.2 54.25 -31.85 70.7 -32.75 73.25 -32.95 75.9 -32.75 L83.1 -31.9 M94.85 -8.7 Q82.75 -25.3 64.0 -25.25 50.1 -25.3 42.15 -19.2 M97.55 2.1 Q68.65 -22.1 34.9 -10.1 57.8 -12.4 74.15 -2.35 L76.65 -0.5 Q94.85 9.3 94.9 22.4 M46.5 2.05 Q53.0 22.85 68.05 14.05 54.1 11.6 49.0 2.65 M87.25 33.1 Q89.9 10.6 76.65 -0.5 M-83.15 -32.1 L-82.15 -32.75 Q-72.85 -38.9 -61.65 -39.0 -52.4 -38.05 -46.2 -32.75 -40.0 -27.45 -36.8 -17.85 -37.65 -26.5 -41.2 -32.75 -44.5 -38.45 -50.05 -42.15 -39.25 -38.2 -34.35 -32.75 -26.15 -23.6 -34.95 -10.3 L-37.5 -3.55 Q-39.1 0.6 -43.5 1.25 L-46.5 1.85 Q-53.05 22.65 -68.05 13.85 -76.4 23.15 -79.35 38.9 L-84.15 35.25 -85.75 41.9 Q-86.8 37.2 -87.3 32.9 -92.3 28.15 -94.95 22.2 -98.85 13.4 -97.55 1.9 L-103.65 7.45 Q-99.8 -2.15 -94.85 -8.9 -91.95 -18.0 -84.95 -22.25 -91.05 -21.0 -97.85 -15.9 -91.25 -26.4 -83.15 -32.1 L-78.45 -32.75 Q-73.2 -33.35 -68.3 -32.75 -53.4 -31.15 -42.15 -19.4 -37.55 -15.9 -34.95 -10.3 -35.7 -14.35 -36.8 -17.85 M-94.85 -8.9 Q-82.8 -25.5 -64.05 -25.45 -50.15 -25.5 -42.15 -19.4 M-94.95 22.2 Q-94.85 9.1 -76.65 -0.7 L-74.2 -2.55 Q-57.8 -12.6 -34.95 -10.3 -68.65 -22.3 -97.55 1.9 M-46.5 1.85 L-49.0 2.45 Q-54.1 11.4 -68.05 13.85 -60.7 5.6 -49.0 2.45 M-34.95 -10.3 Q-73.6 -2.55 -84.15 35.25 M-87.3 32.9 Q-89.9 10.4 -76.65 -0.7" fill="none" stroke="#000000" stroke-linecap="round" stroke-linejoin="round" stroke-width="2.0"/>
  </g>
</svg>
