<?xml version="1.0" encoding="UTF-8" standalone="no"?>
<svg xmlns:xlink="http://www.w3.org/1999/xlink" height="260.8px" width="225.15px" xmlns="http://www.w3.org/2000/svg">
  <g transform="matrix(1.0, 0.0, 0.0, 1.0, 112.55, 130.4)">
    <path d="M81.9 78.75 Q91.55 50.85 69.8 -23.3 63.35 -39.75 54.35 -52.2 28.9 -88.55 29.2 -108.6 38.3 -133.05 50.75 -130.1 81.85 -110.3 105.85 -20.4 123.0 50.8 96.65 78.05 L96.05 79.1 Q98.6 97.8 97.0 108.8 94.0 110.25 86.6 110.35 93.5 130.9 62.45 130.4 80.8 125.45 71.65 109.6 L64.05 108.8 Q50.55 105.7 48.75 94.9 54.8 85.25 81.9 78.75 M-75.35 78.75 Q-45.3 85.25 -38.0 94.9 -39.25 105.7 -53.8 108.8 L-62.0 109.6 Q-70.9 125.45 -50.55 130.4 -84.4 130.9 -78.3 110.35 -86.35 110.25 -89.75 108.8 -92.25 97.8 -90.75 79.1 L-91.5 78.05 Q-122.1 50.8 -108.25 -20.4 -88.3 -110.3 -55.65 -130.1 -42.25 -133.05 -30.65 -108.6 -28.95 -88.55 -54.2 -52.2 -63.2 -39.75 -69.1 -23.3 -87.8 50.85 -75.35 78.75" fill="#fa357c" fill-rule="evenodd" stroke="none"/>
  </g>
</svg>
