<?xml version="1.0" encoding="UTF-8" standalone="no"?>
<svg xmlns:xlink="http://www.w3.org/1999/xlink" height="48.25px" width="129.75px" xmlns="http://www.w3.org/2000/svg">
  <g transform="matrix(1.0, 0.0, 0.0, 1.0, 55.0, 21.35)">
    <path d="M67.25 10.1 Q75.85 16.65 74.6 26.9 65.7 24.7 61.95 21.35 60.25 19.85 59.6 18.15 53.45 22.55 46.95 22.5 44.1 12.5 50.85 5.95 39.25 6.75 36.6 -6.15 40.9 -6.6 44.85 -4.8 43.35 -12.15 47.75 -15.4 48.8 -12.05 50.6 -8.95 51.3 -11.2 52.35 -13.55 54.05 -17.35 56.7 -21.35 L57.8 -17.3 Q58.75 -14.3 60.1 -11.4 L61.15 -9.35 61.8 -8.2 63.9 -4.05 65.05 -1.45 Q70.0 -3.4 73.65 -0.85 73.55 5.9 67.25 10.1 L67.05 9.55 66.8 10.4 67.25 10.1 M-46.85 10.1 Q-53.7 5.9 -53.75 -0.85 -49.8 -3.4 -44.45 -1.45 L-43.2 -4.05 -40.9 -8.2 -40.2 -9.35 -39.1 -11.4 Q-37.65 -14.3 -36.6 -17.3 L-35.4 -21.35 Q-32.5 -17.35 -30.65 -13.55 -29.5 -11.2 -28.8 -8.95 -26.85 -12.05 -25.7 -15.4 -20.9 -12.15 -22.55 -4.8 -18.25 -6.6 -13.5 -6.15 -16.45 6.75 -29.05 5.95 -21.65 12.5 -24.8 22.5 -31.8 22.55 -38.55 18.15 -39.25 19.85 -41.1 21.35 -45.2 24.7 -54.8 26.9 -56.2 16.65 -46.85 10.1 L-46.4 10.4 -46.6 9.55 -46.85 10.1" fill="#222041" fill-rule="evenodd" stroke="none"/>
  </g>
</svg>
