<?xml version="1.0" encoding="UTF-8" standalone="no"?>
<svg xmlns:xlink="http://www.w3.org/1999/xlink" height="259.7px" width="185.2px" xmlns="http://www.w3.org/2000/svg">
  <g transform="matrix(1.0, 0.0, 0.0, 1.0, 92.6, 129.85)">
    <path d="M38.8 -128.65 Q31.7 -127.8 24.9 -123.15 7.9 -111.6 -0.45 -88.8 -3.8 -79.05 -5.8 -65.2 -7.9 -53.25 -7.75 -41.2 L-3.55 -52.35 Q-2.7 -75.6 5.7 -90.65 3.65 -71.75 -3.55 -52.35 M44.0 -11.6 Q43.8 -5.45 42.95 0.05 40.8 17.1 52.25 28.5 47.4 19.7 48.1 6.25 50.6 -11.45 53.85 -24.9 L55.45 -31.1 Q60.4 -49.35 70.75 -63.25 87.25 -79.35 91.25 -92.25 93.85 -102.95 76.25 -120.35 67.95 -126.85 59.65 -123.6 48.95 -129.95 38.8 -128.65 M-33.75 23.55 Q-37.55 26.45 -43.25 28.7 L-50.3 31.05 Q-61.2 32.15 -68.5 38.15 L-71.55 40.95 M42.95 0.05 Q39.95 19.4 29.0 31.15 24.6 46.05 13.55 52.9 18.65 46.65 19.55 36.2 L18.5 38.1 Q12.35 49.2 -10.65 57.15 -22.25 63.0 -25.05 70.55 L-25.25 71.1 Q-25.0 84.35 -13.05 87.3 2.05 87.35 11.8 73.75 10.95 78.3 8.7 82.25 4.5 89.6 -4.6 95.0 -20.0 102.95 -33.9 95.0 -40.5 90.7 -43.25 85.6 -46.3 80.0 -44.85 73.35 -44.25 70.65 -43.25 68.2 L-41.9 65.15 Q-36.8 55.35 -25.2 50.35 L-27.05 50.45 Q-36.75 53.55 -43.25 61.4 -47.55 66.5 -50.5 73.75 -55.1 86.0 -54.25 97.5 -52.6 109.55 -43.25 115.45 -40.2 117.4 -36.35 118.7 -26.05 120.5 -18.6 116.3 -13.4 113.4 -9.65 107.55 -19.75 128.75 -43.25 128.85 L-45.65 128.8 Q-59.95 126.75 -67.1 116.25 -69.25 113.3 -70.55 109.65 -80.85 102.8 -81.35 89.1 -89.5 73.95 -79.0 55.35 -85.5 61.15 -88.95 69.5 -89.45 57.35 -77.5 45.0 -91.5 39.35 -91.6 29.05 -91.6 25.15 -90.2 21.85 -87.5 15.25 -79.25 11.0 -73.9 6.55 -47.9 5.15 L-43.25 4.65 Q-34.85 2.85 -27.85 -6.0 L-26.75 -7.65 -16.65 -23.45 -15.7 -24.9 Q-13.65 -28.3 -11.6 -32.5 -9.65 -36.5 -7.75 -41.2 M-1.75 -41.8 Q-4.75 -35.3 -8.75 -29.15 L-10.85 -24.9 Q-16.55 -14.0 -24.65 -5.35 -13.7 -14.05 -5.0 -24.9 -3.2 -27.1 -1.55 -29.45 M-8.75 -29.15 L-11.65 -24.9 Q-18.15 -15.85 -26.75 -7.65 M-73.15 40.55 Q-76.8 38.0 -77.3 30.75 L-77.35 30.4 -77.45 28.2 Q-77.5 20.6 -69.7 18.1 L-70.95 17.95 -77.2 18.1 Q-91.1 20.25 -91.6 29.05 M-68.5 38.15 Q-76.25 39.4 -77.3 30.75 M-77.5 45.0 L-76.4 45.45 M-27.65 26.8 Q-36.25 31.2 -43.25 36.7 L-43.4 36.8 Q-58.3 48.55 -65.7 65.25 -70.25 77.9 -71.75 88.0 -73.65 100.85 -70.55 109.65 M-33.75 23.55 Q-38.55 25.1 -43.25 25.2 -51.9 25.45 -60.4 20.95 -64.85 18.7 -69.7 18.1 M-67.1 116.25 Q-58.85 125.45 -43.25 124.5 L-37.15 123.75 Q-28.85 123.65 -18.6 116.3 M-43.4 36.8 Q-60.15 44.85 -69.55 57.1 -75.5 75.45 -71.75 88.0 M-21.8 51.3 Q-25.9 52.55 -29.4 54.4 -37.15 58.45 -41.9 65.15 M-25.25 71.1 Q-27.7 78.45 -23.15 87.35 M-69.7 49.05 Q-74.95 51.7 -79.0 55.35 M-69.55 57.1 Q-79.5 69.9 -81.35 87.3 L-81.35 88.35 -81.35 89.1 M-54.25 97.5 Q-53.65 105.3 -50.5 112.8 M-24.65 -5.35 Q-30.5 -0.7 -36.95 3.35 -21.15 -1.05 -16.1 -4.75" fill="none" stroke="#000000" stroke-linecap="round" stroke-linejoin="round" stroke-width="2.0"/>
    <path d="M5.7 -90.65 Q13.95 -105.35 29.35 -113.15 M59.65 -123.6 Q74.15 -114.0 76.05 -98.1 M60.95 -111.1 Q54.5 -128.5 38.8 -128.65 M11.4 -46.65 Q9.95 -35.15 6.75 -24.9 3.75 -15.3 -0.75 -6.8 -8.05 7.55 -23.05 16.85 -26.2 19.6 -29.65 21.95 L-33.75 23.55 M6.75 -46.85 Q4.85 -35.0 1.75 -24.9 -6.5 2.15 -23.05 16.85 M23.15 -20.75 L21.95 -10.05 M34.05 -33.1 Q26.75 -66.45 42.35 -90.15 M14.65 -58.4 Q21.95 -96.2 48.0 -102.7 M25.15 1.1 Q24.4 8.15 22.4 14.75 21.75 24.3 18.7 30.25 M29.0 31.15 L29.25 30.3 29.35 29.9 29.5 29.5 Q37.1 2.9 34.9 -21.5 M22.4 14.75 Q18.05 28.7 7.95 40.55 M30.7 -15.45 Q30.1 15.8 19.55 36.2 M-36.95 3.35 Q-40.0 5.4 -43.25 6.7 -50.45 9.5 -58.6 8.6 -79.45 11.2 -90.2 21.85 M-70.95 17.95 Q-86.45 26.9 -84.9 37.3 M14.65 -23.8 Q4.6 19.5 -28.05 47.05 -34.55 51.6 -43.25 59.7 -48.95 64.95 -55.5 71.7 -72.3 88.85 -67.1 116.25 M-29.4 54.4 Q-42.45 66.15 -37.95 82.25 -34.6 92.1 -21.15 93.8 -1.1 94.75 8.7 82.25 M2.25 46.05 Q-1.95 49.8 -11.65 53.5 -24.7 57.5 -31.8 71.85 -35.05 79.05 -31.8 84.95 M21.35 -6.4 Q18.2 26.45 -6.6 45.4 -11.3 49.3 -25.2 50.35" fill="none" stroke="#000000" stroke-linecap="round" stroke-linejoin="round" stroke-opacity="0.5372549" stroke-width="2.0"/>
  </g>
</svg>
