<?xml version="1.0" encoding="UTF-8" standalone="no"?>
<svg xmlns:xlink="http://www.w3.org/1999/xlink" height="66.4px" width="175.95px" xmlns="http://www.w3.org/2000/svg">
  <g transform="matrix(1.0, 0.0, 0.0, 1.0, 87.95, 33.2)">
    <path d="M62.55 33.05 Q56.05 33.65 49.65 31.45 38.15 27.55 30.9 18.75 27.75 14.4 26.25 9.75 20.7 -1.4 26.0 -14.0 30.75 -27.0 46.95 -33.2 39.9 -23.85 37.9 -16.1 L41.4 -17.4 41.4 -18.4 60.4 -17.85 64.0 -17.3 71.35 -15.55 71.65 -16.85 Q80.45 -13.85 84.65 -10.2 83.85 -4.05 82.4 1.7 L81.7 4.25 Q79.9 10.9 77.2 17.0 L76.25 14.9 Q75.0 20.35 70.2 25.8 L68.05 28.2 63.65 32.2 62.55 33.05 Q80.25 20.95 87.65 9.0 89.45 18.1 82.0 27.9 74.15 33.75 62.55 33.05" fill="url(#gradient0)" fill-rule="evenodd" stroke="none"/>
    <path d="M-62.45 33.05 Q-74.05 33.75 -81.85 27.9 -89.4 18.1 -87.6 9.0 -80.1 20.95 -62.45 33.05 L-63.5 32.2 -67.9 28.2 -70.15 25.8 Q-74.9 20.35 -76.2 14.9 L-77.15 17.0 Q-79.85 10.9 -81.65 4.25 L-82.35 1.7 Q-83.75 -4.05 -84.55 -10.2 -80.4 -13.85 -71.6 -16.85 L-71.3 -15.55 -63.95 -17.3 -60.35 -17.85 -41.3 -18.4 -41.3 -17.4 Q-39.5 -16.85 -37.85 -16.1 -39.8 -23.85 -46.85 -33.2 -30.65 -27.0 -25.85 -14.0 -20.6 -1.4 -26.2 9.75 -27.7 14.4 -30.85 18.75 -38.0 27.55 -49.5 31.45 -56.0 33.65 -62.45 33.05" fill="url(#gradient1)" fill-rule="evenodd" stroke="none"/>
  </g>
  <defs>
    <linearGradient gradientTransform="matrix(0.053, -0.0323, 0.0226, 0.0372, 81.65, -13.5)" gradientUnits="userSpaceOnUse" id="gradient0" spreadMethod="pad" x1="-819.2" x2="819.2">
      <stop offset="0.0" stop-color="#fff23c" stop-opacity="0.0"/>
      <stop offset="0.3803921568627451" stop-color="#fff23c" stop-opacity="0.84705883"/>
      <stop offset="0.6039215686274509" stop-color="#fff23c" stop-opacity="0.8"/>
      <stop offset="1.0" stop-color="#fff23c" stop-opacity="0.0"/>
    </linearGradient>
    <linearGradient gradientTransform="matrix(-0.0548, -0.035, 0.0235, -0.0367, -84.65, -16.15)" gradientUnits="userSpaceOnUse" id="gradient1" spreadMethod="pad" x1="-819.2" x2="819.2">
      <stop offset="0.0" stop-color="#fff23c" stop-opacity="0.0"/>
      <stop offset="0.3803921568627451" stop-color="#fff23c" stop-opacity="0.84705883"/>
      <stop offset="0.6039215686274509" stop-color="#fff23c" stop-opacity="0.8"/>
      <stop offset="1.0" stop-color="#fff23c" stop-opacity="0.0"/>
    </linearGradient>
  </defs>
</svg>
