<?xml version="1.0" encoding="UTF-8" standalone="no"?>
<svg xmlns:xlink="http://www.w3.org/1999/xlink" height="131.85px" width="207.05px" xmlns="http://www.w3.org/2000/svg">
  <g transform="matrix(1.0, 0.0, 0.0, 1.0, 103.55, 65.95)">
    <path d="M43.5 -31.35 Q47.0 -33.25 50.45 -33.95 L51.45 -34.1 70.05 -35.5 Q99.65 -35.6 103.1 -20.5 106.05 -7.3 87.25 10.8 L81.65 15.85 Q56.7 37.25 17.45 51.95 -21.85 66.65 -45.9 65.85 -70.0 65.0 -75.9 61.95 -81.85 58.85 -83.2 52.65 -85.35 43.15 -76.15 31.0 -72.7 26.55 -67.7 21.75 L-67.1 21.2 Q-56.15 11.9 -41.15 1.75 L-37.0 -9.65 -40.35 -6.05 -47.35 0.5 Q-52.9 5.75 -61.2 11.85 -66.75 16.0 -70.9 13.0 L-72.3 8.8 -74.35 -10.25 Q-85.05 -10.2 -103.55 10.05 -93.1 -7.95 -80.2 -23.7 -77.9 -25.4 -74.05 -24.05 -70.2 -22.8 -69.2 -21.7 -63.7 -14.3 -61.75 -11.15 L-36.15 -46.7 Q-15.7 -67.6 -4.2 -65.8 7.45 -61.4 13.45 -55.55 31.45 -43.95 43.5 -31.35" fill="#9a5135" fill-rule="evenodd" stroke="none"/>
  </g>
</svg>
