<?xml version="1.0" encoding="UTF-8" standalone="no"?>
<svg xmlns:xlink="http://www.w3.org/1999/xlink" height="113.5px" width="208.45px" xmlns="http://www.w3.org/2000/svg">
  <g transform="matrix(1.0, 0.0, 0.0, 1.0, 104.25, 56.75)">
    <path d="M37.7 -53.4 L46.25 -54.9 Q57.05 -56.55 66.95 -56.75 99.95 -57.4 103.75 -41.1 107.05 -26.85 86.1 -6.85 L69.55 8.95 Q55.85 22.05 17.1 38.85 -21.7 55.6 -54.15 56.6 -86.6 57.65 -95.9 52.05 -102.3 48.25 -103.8 41.6 -106.2 31.3 -95.9 18.0 -90.15 10.6 -80.45 2.3 -85.45 7.1 -88.9 11.55 -98.1 23.7 -95.95 33.2 -94.6 39.4 -88.65 42.5 -82.75 45.55 -58.65 46.4 -34.6 47.2 4.7 32.5 43.95 17.8 68.9 -3.6 L74.5 -8.65 Q93.3 -26.75 90.35 -39.95 86.9 -55.05 57.3 -54.95 L38.7 -53.55 37.7 -53.4" fill="#bfc5ff" fill-rule="evenodd" stroke="none"/>
  </g>
</svg>
