<?xml version="1.0" encoding="UTF-8" standalone="no"?>
<svg xmlns:xlink="http://www.w3.org/1999/xlink" height="61.5px" width="67.8px" xmlns="http://www.w3.org/2000/svg">
  <g transform="matrix(1.0, 0.0, 0.0, 1.0, 33.9, 30.75)">
    <path d="M30.8 1.55 L32.8 7.5 32.9 8.0 33.9 10.95 Q32.4 20.55 18.3 26.6 3.25 33.0 -4.05 29.5 L-9.15 22.3 -9.25 22.25 Q-20.4 7.15 -33.9 -5.6 -24.15 -0.35 -15.5 1.85 -17.1 -5.85 -23.2 -18.1 -15.25 -9.35 -4.9 -6.8 -6.5 -15.3 -10.1 -28.8 -1.6 -15.35 7.1 -9.8 8.9 -15.55 4.0 -30.75 12.1 -17.8 20.2 -16.25 20.75 -21.85 20.3 -30.5 L30.55 0.65 30.8 1.55" fill="#4dff71" fill-rule="evenodd" stroke="none"/>
    <path d="M30.55 0.65 L30.7 1.15 30.8 1.55 30.55 0.65" fill="#10a657" fill-rule="evenodd" stroke="none"/>
  </g>
</svg>
