<?xml version="1.0" encoding="UTF-8" standalone="no"?>
<svg xmlns:xlink="http://www.w3.org/1999/xlink" height="122.2px" width="169.0px" xmlns="http://www.w3.org/2000/svg">
  <g transform="matrix(1.0, 0.0, 0.0, 1.0, 84.5, 61.1)">
    <path d="M36.5 -56.85 Q72.7 -44.75 79.35 -6.3 83.05 -2.0 84.5 3.25 L82.9 5.9 Q81.45 7.6 81.0 7.75 83.25 23.55 79.4 36.95 77.8 42.2 73.2 46.7 69.6 49.15 66.55 38.75 61.25 16.15 37.75 18.1 27.15 18.05 18.2 20.25 L17.65 20.4 15.75 20.95 Q-9.15 27.9 -20.7 53.15 -30.25 62.25 -39.5 60.95 -43.2 60.45 -46.8 58.3 -50.2 57.4 -54.8 44.15 -57.25 34.2 -59.2 24.25 -61.6 5.75 -58.85 -8.7 -61.75 -17.25 -71.6 -25.9 -87.1 -37.85 -84.0 -42.05 -63.25 -49.65 -32.3 -47.3 L-32.35 -47.25 -34.25 -46.0 -37.3 -44.5 -34.6 -45.7 -34.5 -45.7 -33.7 -46.25 -33.0 -46.7 Q-3.0 -66.8 29.4 -58.85 L36.5 -56.85" fill="#599a5e" fill-rule="evenodd" stroke="none"/>
  </g>
</svg>
