<?xml version="1.0" encoding="UTF-8" standalone="no"?>
<svg xmlns:xlink="http://www.w3.org/1999/xlink" height="114.8px" width="234.6px" xmlns="http://www.w3.org/2000/svg">
  <g transform="matrix(1.0, 0.0, 0.0, 1.0, 117.3, 57.4)">
    <path d="M81.1 41.15 L99.25 38.65 110.65 36.65 Q96.3 63.9 -1.5 55.4 -32.15 52.2 -54.7 47.85 -112.3 36.65 -117.3 17.15 L-103.05 22.1 -84.65 27.75 -65.1 32.95 -65.0 32.95 -57.05 34.7 -44.2 37.2 -22.65 40.55 -1.9 42.7 19.35 43.95 Q29.7 44.25 40.1 43.95 L60.55 43.1 81.1 41.15 M41.75 6.95 L41.55 6.2 40.15 -3.8 Q21.7 -0.9 -2.75 -3.45 L-18.15 -5.55 Q-27.05 -7.35 -36.05 -10.0 L-42.5 7.15 Q-31.6 10.5 -21.1 12.65 13.3 19.7 42.5 13.6 L41.75 6.95 M6.35 -57.4 L7.35 -57.4 Q25.35 -50.6 35.55 -21.35 L37.1 -15.9 Q95.05 -4.85 117.3 12.75 109.7 18.05 99.75 20.3 L98.15 20.7 97.25 20.85 92.9 21.5 92.15 21.55 Q69.75 25.1 44.1 24.7 11.1 24.65 -21.7 21.05 L-45.05 17.95 -45.8 17.9 Q-78.85 13.8 -97.1 7.2 -112.1 1.8 -117.2 -5.15 -96.8 -18.05 -46.85 -20.45 L-31.95 -20.95 -28.95 -26.6 Q-10.95 -57.75 6.35 -57.4" fill="#fee46d" fill-rule="evenodd" stroke="none"/>
  </g>
</svg>
