<?xml version="1.0" encoding="UTF-8" standalone="no"?>
<svg xmlns:xlink="http://www.w3.org/1999/xlink" height="59.65px" width="105.75px" xmlns="http://www.w3.org/2000/svg">
  <g transform="matrix(1.0, 0.0, 0.0, 1.0, 52.9, 29.85)">
    <path d="M51.0 -5.0 L49.25 -3.3 49.2 -3.25 Q47.2 -3.5 40.55 2.2 34.25 3.1 30.1 7.6 21.55 9.95 16.75 14.2 8.0 16.05 3.05 20.05 -6.4 21.5 -12.2 25.1 -17.35 24.6 -21.35 27.4 L-27.8 27.4 Q-31.75 27.45 -33.7 29.5 -42.0 27.9 -46.35 29.8 L-48.05 29.4 -49.95 28.75 Q-52.6 27.5 -52.85 25.0 -53.65 17.1 -43.0 12.8 -47.65 11.95 -47.6 4.65 -47.25 -1.4 -43.05 -5.15 -32.9 -14.2 -21.45 -20.75 8.85 -37.95 28.85 -22.65 35.3 -18.45 31.9 -12.8 41.8 -20.3 50.35 -14.1 55.05 -9.8 51.0 -5.0" fill="#8879cc" fill-rule="evenodd" stroke="none"/>
  </g>
</svg>
