<?xml version="1.0" encoding="UTF-8" standalone="no"?>
<svg xmlns:xlink="http://www.w3.org/1999/xlink" height="64.95px" width="138.85px" xmlns="http://www.w3.org/2000/svg">
  <g transform="matrix(1.0, 0.0, 0.0, 1.0, 68.15, 45.8)">
    <path d="M-68.15 -20.65 Q-61.3 -18.3 -50.85 -17.45 -15.2 -17.4 6.2 -23.2 9.1 -42.85 24.7 -45.4 42.25 -48.4 47.6 -28.55 51.1 -28.65 54.05 -30.35 L54.05 -17.9 57.35 -19.0 Q57.95 -17.85 58.05 -16.0 58.1 -14.55 57.75 -12.6 71.0 -6.2 70.7 1.05 69.55 9.65 57.65 14.85 42.4 21.65 12.25 17.65 -36.5 10.0 -47.8 -2.25 L-51.45 -2.75 -52.75 -2.65 -54.1 -2.9 -54.35 -3.0 Q-61.6 -4.1 -68.15 -8.2 L-68.15 -20.65 M51.8 9.7 L51.7 9.75 51.8 9.8 51.8 9.7" fill="#272727" fill-rule="evenodd" stroke="none"/>
  </g>
</svg>
