<?xml version="1.0" encoding="UTF-8" standalone="no"?>
<svg xmlns:xlink="http://www.w3.org/1999/xlink" height="143.05px" width="158.7px" xmlns="http://www.w3.org/2000/svg">
  <g transform="matrix(1.0, 0.0, 0.0, 1.0, 86.9, 54.85)">
    <path d="M18.95 -50.55 L8.35 -49.75 Q-1.25 -52.2 -16.5 -49.4 -48.05 -43.25 -62.95 -6.95 -77.65 28.95 -53.35 77.0 L-52.15 79.4 -63.4 80.9 -63.65 80.65 -67.1 77.0 Q-86.9 54.85 -86.9 24.5 -86.9 -8.35 -63.65 -31.6 -40.4 -54.85 -7.55 -54.85 6.6 -54.85 18.95 -50.55 M-30.7 77.25 L-27.4 77.0 -15.1 76.2 Q15.8 74.45 50.05 75.5 L53.25 75.6 54.1 77.0 Q56.0 81.1 48.85 82.65 19.1 87.95 -10.0 87.55 -23.95 84.25 -34.75 77.6 L-30.7 77.25" fill="#000000" fill-opacity="0.1764706" fill-rule="evenodd" stroke="none"/>
    <path d="M-63.4 80.9 L-52.15 79.4 -34.75 77.6 Q-23.95 84.25 -10.0 87.55 -34.45 89.1 -60.65 87.0 -65.3 87.0 -63.4 80.9" fill="#000000" fill-opacity="0.34901962" fill-rule="evenodd" stroke="none"/>
    <path d="M8.35 -49.75 L18.95 -50.55 Q25.55 -48.25 31.6 -44.75 21.4 -45.45 12.3 -43.55 -6.55 -39.75 -20.6 -25.0 -28.6 -16.7 -35.05 -4.95 -43.5 14.45 -41.55 31.7 -38.8 56.15 -15.1 76.2 L-27.4 77.0 -30.7 77.25 -30.95 77.0 -31.15 76.8 Q-47.0 60.25 -50.8 38.5 -52.05 31.55 -52.05 24.05 -52.05 -6.85 -31.15 -28.7 L-25.6 -33.95 Q-10.6 -46.9 8.35 -49.75" fill="#000000" fill-opacity="0.10980392" fill-rule="evenodd" stroke="none"/>
    <path d="M12.3 -43.55 Q21.4 -45.45 31.6 -44.75 40.65 -39.55 48.55 -31.6 71.8 -8.35 71.8 24.5 71.8 53.9 53.25 75.6 L50.05 75.5 Q85.4 27.6 49.45 -22.5 33.55 -44.65 12.3 -43.55" fill="#ffffff" fill-opacity="0.078431375" fill-rule="evenodd" stroke="none"/>
  </g>
</svg>
