<?xml version="1.0" encoding="UTF-8" standalone="no"?>
<svg xmlns:xlink="http://www.w3.org/1999/xlink" height="160.15px" width="165.8px" xmlns="http://www.w3.org/2000/svg">
  <g transform="matrix(1.0, 0.0, 0.0, 1.0, 82.9, 80.05)">
    <path d="M-27.7 -68.5 L10.4 -80.05 32.95 -69.35 33.0 -69.35 Q52.35 -59.15 61.95 -47.75 80.65 -8.3 82.9 37.3 65.0 51.05 56.8 65.6 41.35 68.1 28.9 72.8 37.55 82.6 26.0 79.2 L9.55 74.15 -20.45 79.15 Q-33.35 81.2 -21.65 67.7 -40.05 63.85 -55.95 58.5 -66.55 40.9 -82.35 25.7 L-82.75 25.25 -82.9 25.1 Q-79.05 -8.55 -65.5 -42.25 L-58.95 -50.15 Q-55.75 -40.45 -49.85 -32.95 -25.45 -36.7 -18.55 -58.8 L-19.65 -60.05 -27.7 -68.5 M-51.4 39.85 Q-18.4 67.9 10.35 68.35 47.35 63.6 65.45 43.35 53.05 -17.3 18.35 -44.75 -35.45 -18.75 -51.45 39.8 L-51.4 39.85" fill="#26222b" fill-rule="evenodd" stroke="none"/>
  </g>
</svg>
