<?xml version="1.0" encoding="UTF-8" standalone="no"?>
<svg xmlns:xlink="http://www.w3.org/1999/xlink" height="25.4px" width="69.05px" xmlns="http://www.w3.org/2000/svg">
  <g transform="matrix(1.0, 0.0, 0.0, 1.0, 29.55, 41.25)">
    <path d="M-9.8 -26.65 Q-13.45 -29.75 -5.1 -32.85 8.2 -37.55 21.5 -32.85 26.5 -31.05 24.5 -27.7 23.9 -26.8 22.7 -25.7 L10.0 -15.85 -7.95 -25.45 -9.8 -26.65" fill="#fee364" fill-rule="evenodd" stroke="none"/>
    <path d="M38.1 -36.85 Q39.5 -35.45 39.5 -33.5 39.5 -31.5 38.1 -30.2 36.75 -28.8 34.8 -28.8 32.85 -28.8 31.45 -30.2 30.1 -31.5 30.1 -33.5 30.1 -35.45 31.45 -36.85 32.85 -38.2 34.8 -38.2 36.75 -38.2 38.1 -36.85 M-28.0 -32.25 Q-29.55 -33.75 -29.55 -36.0 -29.55 -38.2 -28.0 -39.7 -26.45 -41.25 -24.25 -41.25 -22.05 -41.25 -20.5 -39.7 -19.0 -38.2 -19.0 -36.0 -19.0 -33.75 -20.5 -32.25 -22.05 -30.7 -24.25 -30.7 -26.45 -30.7 -28.0 -32.25" fill="#000000" fill-rule="evenodd" stroke="none"/>
  </g>
</svg>
