<?xml version="1.0" encoding="UTF-8" standalone="no"?>
<svg xmlns:xlink="http://www.w3.org/1999/xlink" height="17.65px" width="18.9px" xmlns="http://www.w3.org/2000/svg">
  <g transform="matrix(1.0, 0.0, 0.0, 1.0, 9.45, 8.85)">
    <path d="M4.6 -4.2 Q4.55 -6.5 2.75 -7.85 -1.45 -4.1 -8.45 -4.6 -8.15 -2.75 -7.7 -2.0 L-6.85 -0.65 Q-6.25 2.15 -6.05 4.95 -5.95 6.4 -5.2 7.7 0.0 8.2 2.6 6.2 2.0 4.75 2.05 2.35 4.15 0.8 7.75 1.05 L8.45 1.1 7.95 1.6 7.75 1.05 7.55 0.6 M4.6 -4.2 L7.4 -0.8 Q8.3 0.35 8.45 1.1" fill="none" stroke="#000000" stroke-linecap="round" stroke-linejoin="round" stroke-width="2.0"/>
    <path d="M-6.85 -0.65 Q0.8 -1.0 4.6 -4.2 Z" fill="none" stroke="#000000" stroke-linecap="round" stroke-linejoin="round" stroke-width="1.0"/>
  </g>
</svg>
