<?xml version="1.0" encoding="UTF-8" standalone="no"?>
<svg xmlns:xlink="http://www.w3.org/1999/xlink" height="18.4px" width="18.35px" xmlns="http://www.w3.org/2000/svg">
  <g transform="matrix(1.0, 0.0, 0.0, 1.0, 9.2, 9.2)">
    <path d="M-6.35 3.6 Q-2.0 4.35 1.2 2.3 4.5 0.1 6.55 -0.95 L7.3 0.0 9.15 2.85 8.35 3.25 8.15 2.55 Q4.9 1.2 2.4 3.85 3.15 6.0 4.2 6.85 1.05 9.15 -4.55 9.2 -5.85 7.6 -5.95 5.65 L-6.1 4.6 -6.35 3.6 M-9.2 -5.9 Q-8.0 -4.8 -3.9 -5.85 0.2 -6.95 1.95 -9.2 L3.9 -5.15 Q2.45 -3.0 -2.35 -1.5 -7.2 -0.05 -7.6 -1.25 L-7.6 -1.3 -9.2 -5.9" fill="#434343" fill-rule="evenodd" stroke="none"/>
  </g>
</svg>
