<?xml version="1.0" encoding="UTF-8" standalone="no"?>
<svg xmlns:xlink="http://www.w3.org/1999/xlink" height="21.85px" width="23.0px" xmlns="http://www.w3.org/2000/svg">
  <g transform="matrix(1.0, 0.0, 0.0, 1.0, 11.5, 10.95)">
    <path d="M-10.6 -10.95 Q-4.8 -8.45 1.5 -8.4 7.8 -8.4 9.7 -10.25 11.7 -6.85 10.15 -3.35 L9.25 -2.8 Q7.05 -1.7 3.5 -1.2 -4.35 -0.7 -10.1 -3.4 L-10.2 -3.45 Q-12.6 -6.75 -10.6 -10.95 M11.2 5.65 L11.5 7.05 11.4 8.25 Q10.9 10.05 9.1 10.6 L1.35 10.8 Q-4.6 10.45 -7.7 7.9 -9.0 6.4 -9.6 4.45 L-9.95 2.9 Q-8.8 4.25 -4.05 5.9 6.7 8.3 11.2 5.65" fill="#5e9f99" fill-rule="evenodd" stroke="none"/>
  </g>
</svg>
