<?xml version="1.0" encoding="UTF-8" standalone="no"?>
<svg xmlns:xlink="http://www.w3.org/1999/xlink" height="14.2px" width="21.55px" xmlns="http://www.w3.org/2000/svg">
  <g transform="matrix(1.0, 0.0, 0.0, 1.0, 10.75, 7.1)">
    <path d="M-10.05 -2.65 Q-10.9 -4.45 -10.7 -5.1 -4.6 -7.15 3.9 -7.1 8.0 -7.05 9.5 -5.8 L9.5 -3.5 Q7.3 -5.3 0.9 -4.95 -5.85 -4.55 -10.05 -2.65 M10.65 2.95 Q11.1 5.45 10.2 6.05 4.35 8.1 -3.1 6.2 -7.5 4.75 -9.6 2.1 -10.55 0.9 -10.05 -1.05 -7.35 2.3 -2.8 3.8 1.75 5.25 5.8 4.95 9.85 4.65 10.65 2.95" fill="#ffd9fe" fill-rule="evenodd" stroke="none"/>
  </g>
</svg>
