<?xml version="1.0" encoding="UTF-8" standalone="no"?>
<svg xmlns:xlink="http://www.w3.org/1999/xlink" height="11.9px" width="21.2px" xmlns="http://www.w3.org/2000/svg">
  <g transform="matrix(1.0, 0.0, 0.0, 1.0, 10.6, 5.95)">
    <path d="M-5.95 3.05 Q-6.9 1.95 -7.35 0.5 L-7.35 3.4 Q-9.65 2.7 -10.3 -0.7 -11.0 -4.1 -10.05 -5.95 L-10.0 -5.9 Q-9.1 -3.4 -5.95 -1.2 L-4.2 -0.05 -4.1 0.0 -2.55 0.7 Q0.15 1.6 5.05 1.65 9.45 1.7 10.2 -0.6 10.75 2.55 10.5 3.75 10.0 5.35 6.9 5.9 1.0 6.25 -3.85 4.75 -5.1 4.05 -5.95 3.05" fill="#bf9577" fill-rule="evenodd" stroke="none"/>
  </g>
</svg>
