<?xml version="1.0" encoding="UTF-8" standalone="no"?>
<svg xmlns:xlink="http://www.w3.org/1999/xlink" height="31.15px" width="30.9px" xmlns="http://www.w3.org/2000/svg">
  <g transform="matrix(1.0, 0.0, 0.0, 1.0, 15.45, 15.6)">
    <path d="M10.45 -11.1 L10.3 -8.5 Q9.35 -10.9 5.9 -11.45 2.0 -11.85 -0.9 -9.9 L-0.9 -6.05 Q6.6 -9.0 10.1 -5.3 L10.0 -3.55 Q5.9 -6.8 -0.8 -3.4 L-0.8 0.55 Q6.9 -4.0 13.15 0.55 L14.8 3.4 Q15.55 6.7 15.45 9.55 7.3 10.0 -1.15 10.0 -8.8 -0.7 -13.65 -10.8 L-13.65 -12.85 Q-7.3 -16.05 -0.75 -15.5 5.85 -14.95 10.45 -11.1 M15.1 12.4 Q14.8 14.05 14.15 15.5 L11.8 15.55 8.55 15.55 4.7 15.55 0.45 15.5 -3.25 15.4 -6.5 15.35 -9.7 15.2 -12.6 15.1 -14.65 14.95 Q-15.35 14.35 -15.45 12.35 L15.1 12.4 M-15.45 7.65 Q-15.25 2.15 -13.65 -3.55 -12.8 0.65 -10.4 5.05 -7.5 4.05 -4.45 9.95 L-8.6 9.9 -8.95 8.95 Q-9.85 7.0 -12.2 6.75 -14.55 6.8 -15.45 7.65" fill="#5c3969" fill-rule="evenodd" stroke="none"/>
  </g>
</svg>
