<?xml version="1.0" encoding="UTF-8" standalone="no"?>
<svg xmlns:xlink="http://www.w3.org/1999/xlink" height="8.5px" width="17.1px" xmlns="http://www.w3.org/2000/svg">
  <g transform="matrix(1.0, 0.0, 0.0, 1.0, 8.5, 4.4)">
    <path d="M-2.25 -2.55 Q-0.7 -3.1 0.7 -3.9 3.7 -2.45 8.1 -2.0 8.15 0.15 6.5 1.55 3.35 -2.1 -2.25 -2.55" fill="#462325" fill-rule="evenodd" stroke="none"/>
    <path d="M6.5 1.55 Q4.7 2.9 1.15 3.55 -7.35 4.15 -8.0 -1.85 L-6.15 -1.9 Q-5.2 -0.3 -4.15 0.3 -2.7 -0.95 -2.25 -2.55 3.35 -2.1 6.5 1.55" fill="#ec839a" fill-rule="evenodd" stroke="none"/>
    <path d="M-6.15 -1.9 L-2.25 -2.55 Q-2.7 -0.95 -4.15 0.3 -5.2 -0.3 -6.15 -1.9" fill="#ffffff" fill-rule="evenodd" stroke="none"/>
    <path d="M-2.25 -2.55 Q-0.7 -3.1 0.7 -3.9 3.7 -2.45 8.1 -2.0 8.15 0.15 6.5 1.55 4.7 2.9 1.15 3.55 -7.35 4.15 -8.0 -1.85 L-6.15 -1.9 -2.25 -2.55" fill="none" stroke="#000000" stroke-linecap="round" stroke-linejoin="round" stroke-width="1.0"/>
    <path d="M-2.25 -2.55 Q-2.7 -0.95 -4.15 0.3 -5.2 -0.3 -6.15 -1.9" fill="none" stroke="#000000" stroke-linecap="round" stroke-linejoin="round" stroke-width="0.5"/>
  </g>
</svg>
