<?xml version="1.0" encoding="UTF-8" standalone="no"?>
<svg xmlns:xlink="http://www.w3.org/1999/xlink" height="10.35px" width="24.6px" xmlns="http://www.w3.org/2000/svg">
  <g transform="matrix(1.0, 0.0, 0.0, 1.0, 12.3, 5.3)">
    <path d="M4.8 -3.15 Q9.55 -2.95 11.65 -0.95 L11.4 -0.1 10.2 1.45 9.35 2.05 Q6.1 4.3 0.85 4.4 -6.15 4.05 -9.2 2.4 L-10.8 1.2 -11.4 -0.1 -11.65 -1.05 Q-8.8 -3.55 -2.95 -3.05 1.2 -2.05 4.8 -3.15" fill="#ec839a" fill-rule="evenodd" stroke="none"/>
    <path d="M11.65 -0.95 Q9.55 -2.95 4.8 -3.15 L6.9 -3.9 Q11.75 -6.15 11.65 -1.8 L11.65 -0.95 M-2.95 -3.05 Q-8.8 -3.55 -11.65 -1.05 -11.8 -2.2 -11.05 -3.15 -10.2 -5.15 -5.4 -3.8 L-2.95 -3.05" fill="#3a1616" fill-rule="evenodd" stroke="none"/>
    <path d="M4.8 -3.15 Q1.2 -2.05 -2.95 -3.05 L-5.4 -3.8 Q-10.2 -5.15 -11.05 -3.15 -11.8 -2.2 -11.65 -1.05 L-11.4 -0.1 -10.8 1.2 -9.2 2.4 Q-6.15 4.05 0.85 4.4 6.1 4.3 9.35 2.05 L10.2 1.45 11.4 -0.1 11.65 -0.95 11.65 -1.8 Q11.75 -6.15 6.9 -3.9 L4.8 -3.15 Z" fill="none" stroke="#000000" stroke-linecap="round" stroke-linejoin="round" stroke-width="1.3"/>
  </g>
</svg>
