<?xml version="1.0" encoding="UTF-8" standalone="no"?>
<svg xmlns:xlink="http://www.w3.org/1999/xlink" height="12.9px" width="27.3px" xmlns="http://www.w3.org/2000/svg">
  <g transform="matrix(1.0, 0.0, 0.0, 1.0, 13.65, 6.65)">
    <path d="M13.0 -1.25 Q10.65 -3.8 5.35 -4.05 6.55 -4.35 7.7 -5.0 13.1 -7.9 13.0 -2.35 L13.0 -1.25 M-3.3 -3.9 Q-9.8 -4.6 -13.0 -1.35 -13.15 -2.85 -12.3 -4.05 -11.35 -6.6 -6.0 -4.9 -4.6 -4.25 -3.3 -3.9" fill="#3a1616" fill-rule="evenodd" stroke="none"/>
    <path d="M5.35 -4.05 Q10.65 -3.8 13.0 -1.25 L12.7 -0.15 Q12.25 1.0 11.35 1.85 L10.4 2.6 Q6.8 5.5 0.95 5.6 -6.85 5.2 -10.25 3.1 L-12.05 1.5 -12.7 -0.15 -13.0 -1.35 Q-9.8 -4.6 -3.3 -3.9 1.35 -2.65 5.35 -4.05" fill="#ec839a" fill-rule="evenodd" stroke="none"/>
    <path d="M5.35 -4.05 Q1.35 -2.65 -3.3 -3.9 -4.6 -4.25 -6.0 -4.9 -11.35 -6.6 -12.3 -4.05 -13.15 -2.85 -13.0 -1.35 L-12.7 -0.15 -12.05 1.5 -10.25 3.1 Q-6.85 5.2 0.95 5.6 6.8 5.5 10.4 2.6 L11.35 1.85 Q12.25 1.0 12.7 -0.15 L13.0 -1.25 13.0 -2.35 Q13.1 -7.9 7.7 -5.0 6.55 -4.35 5.35 -4.05 Z" fill="none" stroke="#000000" stroke-linecap="round" stroke-linejoin="round" stroke-width="1.3"/>
  </g>
</svg>
