<?xml version="1.0" encoding="UTF-8" standalone="no"?>
<svg xmlns:xlink="http://www.w3.org/1999/xlink" height="115.3px" width="93.9px" xmlns="http://www.w3.org/2000/svg">
  <g transform="matrix(1.0, 0.0, 0.0, 1.0, 46.95, 57.65)">
    <path d="M25.65 -43.0 L27.9 -40.6 Q37.5 -31.45 45.95 -38.0 41.3 -41.65 39.6 -46.0 38.25 -50.6 34.85 -52.85 28.4 -56.75 19.75 -54.05 L22.5 -52.45 M27.9 -40.6 Q28.05 -36.65 29.5 -30.6 30.35 -27.75 29.9 -23.6 29.5 -20.1 23.45 -15.95 L26.35 -13.45 Q35.85 -19.85 37.3 -19.3 40.25 -16.3 32.85 -9.9 36.45 -8.3 33.85 -4.4 31.35 -0.5 27.4 0.75 24.8 2.85 20.15 3.8 24.1 12.85 21.95 14.65 20.0 15.65 18.1 13.95 16.45 19.1 13.7 23.05 15.25 29.25 6.35 37.1 8.6 49.3 6.15 52.15 5.55 52.9 4.55 52.95 L3.3 52.55 Q-1.3 50.05 -2.9 34.2 -5.7 37.7 -11.5 38.15 -11.7 52.75 -15.1 56.05 L-16.1 56.65 -17.65 56.3 Q-19.85 55.3 -20.1 51.65 L-20.1 32.7 Q-24.45 39.8 -28.4 39.3 L-26.4 36.0 Q-36.05 40.0 -37.35 37.7 L-35.85 34.95 Q-45.15 32.8 -45.95 26.3 -32.8 29.5 -20.85 26.55 -21.9 13.75 -11.8 0.75 -13.2 1.4 -14.7 1.65 -20.15 2.15 -18.4 -2.6 -34.7 -9.55 -20.7 -11.05 -31.0 -20.95 -26.75 -23.95 -23.45 -26.0 -12.75 -14.5 -10.35 -16.85 -5.75 -17.8 -6.4 -19.45 -7.35 -21.1 -11.75 -29.3 -9.85 -37.8 -18.2 -27.65 -30.05 -33.95 -23.25 -40.9 -19.55 -47.9 -15.35 -57.0 -3.1 -52.7 8.25 -59.85 19.75 -54.05 M9.25 -23.65 Q11.5 -21.5 13.2 -23.65 15.45 -21.5 16.65 -23.65 M23.45 -15.95 L21.05 -14.35 20.4 -9.8 23.3 -11.05 M32.85 -9.9 Q31.55 -8.75 30.05 -7.55 30.35 -5.9 30.15 -4.15 L30.05 -3.1 Q29.25 -0.9 27.4 0.75 M26.35 -13.45 Q29.25 -10.65 30.05 -7.55 M-12.75 -14.5 L-14.0 -12.9 Q-15.05 -11.0 -15.1 -8.5 -14.8 -3.55 -10.25 -0.45 -6.2 2.35 1.1 3.6 L8.2 4.4 9.7 4.5 20.15 3.8 Q19.55 9.35 18.1 13.95 M5.35 12.75 L5.5 15.4 Q6.35 15.95 7.3 15.85 L8.5 15.4 8.1 12.75 M1.1 3.6 Q2.2 13.5 5.5 15.4 M8.5 15.4 Q11.5 13.3 9.7 4.5 M5.35 48.7 L6.15 52.15 M2.65 49.0 L3.3 52.55 M-5.55 -51.05 L-3.1 -52.7 M-6.45 -42.7 Q-8.1 -39.9 -9.85 -37.8 M-6.85 -14.25 L-4.55 -12.9 Q-4.75 -15.35 -5.75 -17.8 M-20.85 26.55 L-20.6 28.65 M-0.95 17.95 Q1.1 29.15 -2.9 34.2 7.85 31.3 13.7 23.05 M-15.3 52.95 L-15.1 56.05 M-17.65 53.4 L-17.65 56.3 M-11.8 0.75 L-10.25 -0.45 M-4.55 -12.9 Q9.1 -5.7 20.4 -9.8" fill="none" stroke="#5b415d" stroke-linecap="round" stroke-linejoin="round" stroke-width="2.0"/>
  </g>
</svg>
