<?xml version="1.0" encoding="UTF-8" standalone="no"?>
<svg xmlns:xlink="http://www.w3.org/1999/xlink" height="61.6px" width="72.3px" xmlns="http://www.w3.org/2000/svg">
  <g transform="matrix(1.0, 0.0, 0.0, 1.0, 36.15, 30.8)">
    <path d="M4.3 -12.4 Q4.25 -22.8 6.85 -27.45 7.85 -29.2 9.25 -30.15 11.45 -31.4 13.6 -30.15 15.05 -29.1 14.4 -27.45 L14.2 -27.0 Q13.6 -25.95 11.65 -25.95 9.7 -26.1 9.45 -27.45 L9.4 -27.85 8.9 -27.45 Q5.8 -24.65 5.55 -12.6 13.65 -13.95 20.5 -11.6 20.9 -22.9 31.1 -26.35 L33.4 -26.6 Q34.9 -26.3 35.2 -24.3 35.15 -21.6 33.1 -21.6 30.3 -21.55 31.05 -24.5 23.0 -21.95 21.85 -11.1 27.3 -8.95 31.9 -4.5 40.45 3.8 31.9 15.7 29.15 19.05 25.4 21.35 25.7 26.4 23.15 27.45 20.9 27.55 21.55 23.35 L15.5 25.2 Q15.6 29.95 12.8 30.8 10.6 30.25 11.25 25.9 L7.9 26.15 5.75 26.2 -4.9 25.5 -9.0 24.75 Q-11.45 30.2 -13.85 29.55 -15.65 28.65 -13.1 23.6 L-15.9 22.45 Q-18.95 26.95 -20.9 26.05 -22.35 24.65 -20.0 20.2 L-21.65 19.05 Q-24.4 16.7 -25.2 13.9 -32.25 13.6 -36.15 11.85 -31.75 9.25 -25.1 7.95 -24.45 5.85 -23.0 3.6 -19.65 -1.75 -14.3 -5.4 L-12.9 -6.3 Q-11.1 -7.45 -9.05 -8.35 L-7.8 -8.95 -4.85 -10.1 -1.7 -11.1 4.3 -12.4" fill="#707070" fill-rule="evenodd" stroke="none"/>
  </g>
</svg>
