<?xml version="1.0" encoding="UTF-8" standalone="no"?>
<svg xmlns:xlink="http://www.w3.org/1999/xlink" height="126.4px" width="94.8px" xmlns="http://www.w3.org/2000/svg">
  <g transform="matrix(1.0, 0.0, 0.0, 1.0, 47.4, 63.2)">
    <path d="M20.35 -52.05 Q22.3 -51.4 23.1 -50.45 27.0 -51.95 24.75 -54.65 M23.0 -46.3 Q24.6 -48.85 23.1 -50.45 M33.85 -43.05 L32.8 -45.15 Q31.05 -47.7 27.85 -48.2 28.85 -46.6 28.3 -44.25 M32.8 -45.15 Q35.4 -47.65 38.5 -46.25 M1.4 -45.25 L5.4 -42.8 Q17.35 -34.8 23.1 -21.95 M24.25 -50.45 Q26.8 -49.75 27.85 -48.2 M27.95 -49.05 Q30.45 -50.95 29.45 -53.45 M31.95 -47.25 Q34.05 -49.05 33.45 -50.9 M-7.5 -44.7 L-3.7 -42.8 Q12.95 -33.7 21.45 -14.75 M-14.4 -42.9 L-14.2 -42.8 Q11.2 -29.95 18.3 -7.8 M-38.85 28.3 Q-36.05 25.2 -32.5 25.45 M-29.05 42.75 Q-25.6 40.7 -22.15 42.4 M-32.65 35.7 Q-31.5 32.6 -27.1 32.1 M-29.85 49.75 Q-26.65 48.9 -23.45 51.05 M-42.05 19.25 Q-38.2 17.65 -34.3 19.75 M-39.95 -23.4 Q-19.55 -6.3 -12.55 15.4 M-46.3 -6.65 Q-37.35 3.15 -32.2 15.15 M-44.9 -13.1 Q-34.7 -3.35 -24.4 16.55 M-42.75 -18.55 Q-27.9 -6.25 -18.35 16.35 M-36.2 -28.2 Q-16.05 -12.55 -5.7 13.05 M-29.0 -34.85 Q-4.05 -19.65 6.2 5.95 M-33.1 -31.4 Q-7.1 -13.1 0.25 10.0 M-20.05 -40.5 Q5.85 -27.3 15.0 -2.8 M-24.45 -38.0 Q3.3 -20.25 10.35 2.4" fill="none" stroke="#665579" stroke-linecap="round" stroke-linejoin="round" stroke-width="1.4000000000000001"/>
    <path d="M24.75 -54.65 Q22.4 -54.55 20.6 -52.5 L20.35 -52.05 20.2 -51.85 Q18.75 -48.65 23.0 -46.3 23.95 -45.7 25.2 -45.25 26.8 -44.7 28.3 -44.25 L33.85 -43.05 40.6 -43.3 41.3 -42.8 Q47.25 -38.25 46.25 -33.5 L46.1 -33.15 Q44.4 -27.15 31.05 -23.25 26.9 -22.1 26.1 -17.55 L23.25 -8.1 Q21.95 -5.05 25.05 -1.5 30.9 5.7 23.25 2.0 L19.4 0.15 Q17.05 -0.8 15.15 2.1 9.7 9.3 -2.95 15.6 -6.35 17.45 -13.5 18.85 -8.9 27.5 -20.75 20.05 -24.4 17.85 -30.9 15.6 -34.0 17.2 -34.3 19.75 -34.6 22.2 -32.5 25.45 L-30.3 28.3 Q-28.5 30.25 -27.1 32.1 -22.95 37.5 -22.15 42.4 -21.4 46.95 -23.45 51.05 -26.5 57.2 -35.9 62.2 -31.45 55.25 -29.85 49.75 -28.75 45.85 -29.05 42.75 -29.6 38.6 -32.65 35.7 L-33.35 35.15 Q-42.75 27.3 -42.05 19.25 -41.7 15.35 -39.05 11.4 -41.05 9.65 -42.65 7.4 -47.0 1.25 -46.3 -6.65 -46.0 -9.75 -44.9 -13.1 L-44.45 -14.55 -42.75 -18.55 -39.95 -23.4 -36.2 -28.2 -33.1 -31.4 -29.0 -34.85 -26.95 -36.35 -24.45 -38.0 -20.05 -40.5 Q-17.4 -41.85 -14.7 -42.8 L-14.4 -42.9 Q-10.95 -44.1 -7.5 -44.7 L-0.5 -45.35 1.4 -45.25 7.8 -44.2 Q9.85 -61.35 14.35 -62.2 16.8 -61.75 20.6 -52.5 M27.45 -54.25 L29.45 -53.45 30.35 -53.0 33.45 -50.9 35.8 -49.05 Q36.85 -60.1 34.65 -61.3 31.3 -60.9 27.45 -54.25 L24.75 -54.65 M35.8 -49.05 L38.5 -46.25 40.6 -43.3 M23.1 -21.95 Q23.9 -29.85 19.55 -36.05 16.4 -40.5 11.6 -42.8 9.8 -43.65 7.8 -44.2 M23.1 -21.95 Q22.75 -18.5 21.45 -14.75 L21.25 -14.15 Q20.05 -10.85 18.3 -7.8 16.85 -5.15 15.0 -2.8 12.9 -0.05 10.35 2.4 L6.2 5.95 3.8 7.7 0.25 10.0 -5.7 13.05 Q-9.1 14.5 -12.55 15.4 L-18.35 16.35 -22.7 16.6 -24.4 16.55 -30.9 15.6 -32.2 15.15 -33.4 14.75 Q-36.55 13.5 -39.05 11.4" fill="none" stroke="#665579" stroke-linecap="round" stroke-linejoin="round" stroke-width="2.0"/>
  </g>
</svg>
