<?xml version="1.0" encoding="UTF-8" standalone="no"?>
<svg xmlns:xlink="http://www.w3.org/1999/xlink" height="6.8px" width="27.85px" xmlns="http://www.w3.org/2000/svg">
  <g transform="matrix(1.0, 0.0, 0.0, 1.0, 13.9, 3.4)">
    <path d="M-10.65 2.75 L-10.7 2.75 Q-11.95 2.75 -12.95 1.15 -13.9 -0.4 -13.9 -2.7 L-13.9 -2.75 Q-10.7 -0.05 -7.5 -3.4 L-7.45 -2.7 Q-7.45 -0.4 -8.4 1.15 -9.35 2.75 -10.65 2.75 M11.8 3.3 L11.6 3.4 11.35 3.4 Q10.25 3.4 9.5 1.85 8.8 0.4 8.7 -1.65 11.1 0.85 13.95 -2.0 L13.95 -1.85 Q13.95 0.3 13.2 1.85 12.6 3.05 11.8 3.3" fill="#c4ebfa" fill-rule="evenodd" stroke="none"/>
  </g>
</svg>
