<?xml version="1.0" encoding="UTF-8" standalone="no"?>
<svg xmlns:xlink="http://www.w3.org/1999/xlink" height="67.8px" width="68.95px" xmlns="http://www.w3.org/2000/svg">
  <g transform="matrix(1.0, 0.0, 0.0, 1.0, 40.6, 148.4)">
    <path d="M21.35 -105.8 Q21.35 -106.65 22.4 -107.3 23.4 -107.85 24.8 -107.85 26.3 -107.85 27.3 -107.3 28.35 -106.65 28.35 -105.8 28.35 -104.9 27.3 -104.35 26.3 -103.7 24.8 -103.7 23.4 -103.7 22.4 -104.35 21.35 -104.9 21.35 -105.8 M5.95 -146.8 Q3.6 -146.05 1.25 -148.05 3.95 -149.2 5.95 -146.8 M9.5 -146.05 Q17.35 -145.3 23.85 -140.1 17.8 -141.65 9.5 -146.05 M26.15 -93.3 Q24.5 -86.3 17.6 -83.7 21.9 -90.15 26.15 -93.3 M16.7 -83.2 Q16.3 -80.35 13.75 -80.65 13.9 -82.75 16.7 -83.2 M-36.65 -119.8 Q-38.95 -119.05 -40.6 -120.55 -37.7 -122.0 -36.65 -119.8 M-21.35 -113.8 L-33.9 -119.35 Q-25.25 -119.55 -21.35 -113.8" fill="#ffffff" fill-rule="evenodd" stroke="none"/>
  </g>
</svg>
