<?xml version="1.0" encoding="UTF-8" standalone="no"?>
<svg xmlns:xlink="http://www.w3.org/1999/xlink" height="59.2px" width="73.3px" xmlns="http://www.w3.org/2000/svg">
  <g transform="matrix(1.0, 0.0, 0.0, 1.0, 36.65, 29.6)">
    <path d="M-0.8 26.1 Q-6.85 6.2 -2.5 -0.85 0.9 -0.6 3.6 -2.2 7.0 -4.7 6.1 -13.1 5.05 -23.5 -4.85 -24.8 -1.15 -30.3 7.45 -29.5 14.75 -28.3 18.3 -21.4 24.5 -7.15 7.15 7.55 18.1 15.5 14.25 23.4 10.85 29.3 -0.8 26.1 M28.1 22.1 Q19.25 12.15 23.2 8.25 26.65 6.15 28.7 12.35 32.05 6.3 35.45 8.8 39.85 12.35 28.1 22.1 M-13.05 -23.4 Q-19.6 -19.6 -20.3 -6.55 -20.8 5.0 -14.7 27.6 -28.5 32.9 -33.4 24.2 -35.9 16.55 -25.0 10.3 -32.6 2.5 -34.9 -4.95 -39.8 -19.4 -30.85 -24.75 -21.9 -30.05 -13.05 -23.4" fill="#fed8f8" fill-rule="evenodd" stroke="none"/>
  </g>
</svg>
