<?xml version="1.0" encoding="UTF-8" standalone="no"?>
<svg xmlns:xlink="http://www.w3.org/1999/xlink" height="20.75px" width="48.55px" xmlns="http://www.w3.org/2000/svg">
  <g transform="matrix(1.0, 0.0, 0.0, 1.0, 24.25, 74.85)">
    <path d="M15.5 -61.35 Q16.15 -61.85 16.45 -62.75 17.5 -64.75 17.5 -67.65 L17.45 -68.9 Q14.15 -67.1 10.9 -68.95 11.05 -71.1 11.8 -72.6 12.8 -74.65 14.15 -74.65 18.8 -75.75 20.7 -71.25 20.7 -60.3 15.5 -61.35 M18.1 -59.6 Q18.1 -60.3 19.05 -60.95 19.95 -61.45 21.2 -61.45 L23.35 -60.95 Q24.3 -60.3 24.3 -59.6 24.3 -58.8 23.35 -58.3 22.45 -57.7 21.2 -57.7 19.95 -57.7 19.05 -58.3 18.1 -58.8 18.1 -59.6 M-18.15 -59.6 Q-18.15 -58.8 -19.0 -58.3 -19.95 -57.7 -21.15 -57.7 -22.4 -57.7 -23.4 -58.3 -24.25 -58.8 -24.25 -59.6 -24.25 -60.3 -23.4 -60.95 L-21.15 -61.45 -19.0 -60.95 Q-18.15 -60.3 -18.15 -59.6 M-15.5 -61.35 Q-20.7 -60.3 -20.7 -71.25 -18.75 -75.75 -14.15 -74.65 -12.85 -74.65 -11.8 -72.6 -11.05 -71.1 -10.85 -68.95 -14.15 -67.1 -17.4 -68.9 L-17.45 -67.65 Q-17.45 -64.75 -16.45 -62.75 L-15.5 -61.35" fill="#ffffff" fill-rule="evenodd" stroke="none"/>
    <path d="M2.0 -65.45 Q2.0 -65.05 1.4 -64.75 L0.1 -64.5 -1.2 -64.75 Q-1.7 -65.05 -1.7 -65.45 L-1.2 -66.0 0.1 -66.25 1.4 -66.0 2.0 -65.45" fill="#3a425f" fill-rule="evenodd" stroke="none"/>
    <path d="M-2.15 -60.75 Q-1.05 -60.7 0.15 -61.9 1.6 -60.55 3.3 -61.0 2.8 -54.25 0.4 -54.1 -2.4 -54.55 -2.15 -60.75" fill="#eec8d7" fill-rule="evenodd" stroke="none"/>
  </g>
</svg>
