<?xml version="1.0" encoding="UTF-8" standalone="no"?>
<svg xmlns:xlink="http://www.w3.org/1999/xlink" height="99.6px" width="103.8px" xmlns="http://www.w3.org/2000/svg">
  <g transform="matrix(1.0, 0.0, 0.0, 1.0, 51.9, 49.8)">
    <path d="M17.6 -40.7 Q14.95 -43.05 12.25 -44.7 6.0 -48.8 0.4 -48.8 -5.95 -48.8 -12.2 -44.7 L-17.6 -40.7 M-4.35 -13.8 Q-3.25 -12.7 -2.15 -12.65 -1.05 -12.6 0.15 -13.8 1.6 -12.45 3.3 -12.9 4.15 -13.1 5.0 -13.8 M0.0 -0.4 Q6.25 -5.25 9.05 -3.35 11.95 -1.1 10.15 6.95 9.65 9.15 7.85 9.35 L3.85 13.3 Q1.3 14.4 0.0 6.6 -1.3 14.4 -3.85 13.3 L-7.9 9.35 Q-9.6 9.15 -10.1 6.95 -11.9 -1.1 -9.0 -3.35 -6.3 -5.25 0.0 -0.4 0.8 -0.35 1.45 0.5 2.05 1.3 2.05 2.4 L2.1 2.8 Q2.1 4.1 1.45 4.95 L0.55 5.75 0.0 5.95 -0.6 5.75 Q-5.5 9.45 -7.9 9.35 M-2.15 -12.65 Q-2.4 -6.45 0.4 -6.0 2.8 -6.15 3.3 -12.9 M12.25 -44.7 Q30.5 -46.5 45.7 -35.8 56.5 -27.8 44.8 -24.25 43.3 -15.1 34.05 -21.1 32.15 -17.35 26.65 -19.95 27.55 -14.85 25.25 -9.6 21.7 -3.5 14.15 -1.25 26.0 3.65 24.6 11.5 23.25 13.7 19.65 11.0 21.15 17.0 17.7 18.05 20.45 22.85 20.9 27.1 21.7 33.9 16.2 39.1 L13.1 41.5 18.0 43.25 Q19.7 44.4 19.05 46.85 16.15 50.6 7.5 46.85 6.7 48.75 4.15 48.8 0.7 48.75 0.0 45.05 -0.65 48.75 -4.15 48.8 -6.7 48.75 -7.5 46.85 -16.1 50.6 -19.0 46.85 -19.75 44.4 -17.95 43.25 L-13.1 41.5 -16.25 39.1 Q-35.5 44.6 -31.9 35.9 -40.3 32.6 -39.1 28.9 -38.15 25.6 -32.6 26.8 -41.25 19.4 -37.35 14.8 -33.6 11.35 -21.0 27.1 -20.45 22.85 -17.7 18.05 -21.1 17.0 -19.7 11.0 -23.2 13.7 -24.65 11.5 -26.0 3.65 -14.15 -1.25 -21.65 -3.5 -25.25 -9.6 -27.6 -14.85 -26.75 -19.95 -32.1 -17.35 -34.0 -21.1 -43.35 -15.1 -44.75 -24.25 -56.5 -27.8 -45.75 -35.8 -30.5 -46.5 -12.2 -44.7 M20.5 -32.0 Q25.7 -26.0 26.65 -19.95 M0.0 6.6 L0.0 5.95 M7.85 9.35 Q5.45 9.45 0.55 5.75 M-17.7 18.05 L-12.95 17.9 Q-10.6 26.95 -3.85 22.45 -3.05 25.6 0.0 25.6 3.05 25.6 3.85 22.45 10.65 26.95 12.9 17.9 L17.7 18.05 M9.75 28.2 Q7.55 32.7 8.05 43.9 8.05 45.7 7.5 46.85 M0.0 45.05 L0.0 25.6 M-20.55 -32.0 Q-25.7 -26.0 -26.75 -19.95 M-2.05 2.4 Q-2.05 1.3 -1.45 0.5 -0.85 -0.35 0.0 -0.4 M-0.6 5.75 Q-1.1 5.55 -1.45 4.95 -2.1 4.1 -2.1 2.8 L-2.05 2.4 M-9.75 28.2 Q-7.6 32.7 -8.0 43.9 -8.1 45.7 -7.5 46.85 M-21.0 27.1 Q-21.8 33.9 -16.25 39.1" fill="none" stroke="#3a425f" stroke-linecap="round" stroke-linejoin="round" stroke-width="2.0"/>
    <path d="M14.15 -26.55 Q12.8 -26.55 11.8 -24.5 11.05 -23.0 10.9 -20.85 L10.9 -19.55 Q10.9 -16.65 11.8 -14.65 12.8 -12.6 14.15 -12.6 14.95 -12.6 15.5 -13.25 16.15 -13.75 16.45 -14.65 17.5 -16.65 17.5 -19.55 L17.45 -20.8 Q17.25 -22.9 16.45 -24.5 15.5 -26.55 14.15 -26.55 18.8 -27.65 20.7 -23.15 L21.15 -22.05 M-21.1 -22.05 L-20.7 -23.15 Q-18.75 -27.65 -14.15 -26.55 -12.85 -26.55 -11.8 -24.5 -11.05 -23.0 -10.85 -20.85 L-10.85 -19.55 Q-10.85 -16.65 -11.8 -14.65 -12.85 -12.6 -14.15 -12.6 -14.95 -12.6 -15.5 -13.25 L-16.45 -14.65 Q-17.45 -16.65 -17.45 -19.55 L-17.4 -20.8 Q-17.2 -22.9 -16.45 -24.5 -15.5 -26.55 -14.15 -26.55" fill="none" stroke="#3a425f" stroke-linecap="round" stroke-linejoin="round" stroke-width="1.6"/>
    <path d="M2.0 -17.35 Q2.0 -16.95 1.4 -16.65 L0.1 -16.4 -1.2 -16.65 Q-1.7 -16.95 -1.7 -17.35 L-1.2 -17.9 0.1 -18.15 1.4 -17.9 2.0 -17.35" fill="none" stroke="#3a425f" stroke-linecap="round" stroke-linejoin="round" stroke-width="0.05"/>
    <path d="M2.05 2.4 L5.0 2.4 M-5.0 2.4 L-2.05 2.4" fill="none" stroke="#665579" stroke-linecap="round" stroke-linejoin="round" stroke-width="1.6"/>
  </g>
</svg>
