<?xml version="1.0" encoding="UTF-8" standalone="no"?>
<svg xmlns:xlink="http://www.w3.org/1999/xlink" height="85.05px" width="62.1px" xmlns="http://www.w3.org/2000/svg">
  <g transform="matrix(1.0, 0.0, 0.0, 1.0, 31.05, 42.55)">
    <path d="M14.3 -33.65 Q18.35 -42.7 24.75 -40.55 31.7 -37.5 31.0 -28.65 22.45 -27.35 14.3 -33.65 M18.7 0.1 L17.45 2.15 Q21.8 10.0 19.7 17.05 L18.8 19.4 Q17.15 22.1 14.5 23.8 21.0 29.5 20.45 35.2 13.35 35.5 10.05 29.8 10.25 31.45 10.1 33.15 9.8 37.15 7.8 41.05 L6.95 42.5 Q-0.7 38.8 -0.65 30.45 -2.4 36.8 -8.8 42.1 -12.65 36.85 -11.7 28.45 -13.6 31.15 -16.6 31.2 -20.0 30.85 -23.45 33.05 L-23.35 31.45 Q-23.05 28.35 -21.3 26.1 -20.1 24.5 -16.65 23.3 -20.7 20.8 -22.35 16.1 -24.6 6.95 -19.8 0.9 L-20.8 -0.9 Q-25.85 -10.25 -28.5 -17.5 -18.25 -16.0 -11.55 -20.4 -11.05 -13.55 -11.25 -4.6 -1.35 -12.35 8.55 -4.6 9.4 -14.05 10.7 -20.75 17.9 -14.15 27.05 -15.3 23.95 -8.45 18.7 0.1 M11.1 -23.05 L11.95 -26.65 Q20.75 -19.9 29.15 -20.6 L28.0 -17.5 Q19.1 -16.45 11.1 -23.05 M-31.05 -31.3 Q-30.5 -39.6 -23.0 -42.3 -16.55 -44.1 -13.6 -33.95 -21.3 -29.5 -31.05 -31.3 M-12.05 -26.15 L-11.7 -22.8 Q-20.25 -18.85 -29.25 -19.8 L-30.35 -23.9 Q-20.8 -20.6 -12.05 -26.15" fill="#ffffff" fill-rule="evenodd" stroke="none"/>
  </g>
</svg>
