<?xml version="1.0" encoding="UTF-8" standalone="no"?>
<svg xmlns:xlink="http://www.w3.org/1999/xlink" height="102.5px" width="57.85px" xmlns="http://www.w3.org/2000/svg">
  <g transform="matrix(1.0, 0.0, 0.0, 1.0, 28.9, 51.25)">
    <path d="M25.05 -47.4 Q25.05 -45.9 23.9 -44.75 22.85 -43.65 21.25 -43.65 19.65 -43.65 18.5 -44.75 17.4 -45.9 17.4 -47.4 17.4 -49.0 18.5 -50.15 19.65 -51.25 21.25 -51.25 22.85 -51.25 23.9 -50.15 25.05 -49.0 25.05 -47.4 M22.55 -24.25 Q22.55 -23.4 21.7 -22.8 20.7 -22.25 19.4 -22.25 18.1 -22.25 17.15 -22.8 16.2 -23.4 16.2 -24.25 16.2 -25.05 17.15 -25.65 18.1 -26.2 19.4 -26.2 20.7 -26.2 21.7 -25.65 22.55 -25.05 22.55 -24.25 M1.1 -25.05 Q1.1 -25.55 0.4 -25.9 L-1.3 -26.2 -2.95 -25.9 Q-3.7 -25.55 -3.7 -25.05 -3.7 -24.6 -2.95 -24.25 L-1.3 -23.9 Q-0.3 -23.9 0.4 -24.25 1.1 -24.6 1.1 -25.05 M8.15 -19.95 Q8.15 -16.95 5.45 -14.85 2.8 -12.75 -1.0 -12.75 -4.75 -12.75 -7.45 -14.85 -10.15 -16.95 -10.15 -19.95 -10.15 -22.9 -7.45 -25.0 -4.75 -27.1 -1.0 -27.1 2.8 -27.1 5.45 -25.0 8.15 -22.9 8.15 -19.95 M28.7 -5.4 Q28.7 -4.8 28.25 -4.5 27.95 -4.05 27.45 -4.05 26.85 -4.05 26.45 -4.5 26.1 -4.8 26.1 -5.4 26.1 -5.9 26.45 -6.3 L27.45 -6.65 Q27.95 -6.65 28.25 -6.3 L28.7 -5.4 M25.5 -6.15 Q25.5 -5.6 25.15 -5.2 24.75 -4.8 24.25 -4.8 23.65 -4.8 23.3 -5.2 22.9 -5.6 22.9 -6.15 L23.3 -7.05 Q23.65 -7.45 24.25 -7.45 L25.15 -7.05 25.5 -6.15 M26.1 -2.15 Q26.35 -1.3 25.7 -0.45 25.0 0.3 23.85 0.6 L21.75 0.55 Q20.7 0.25 20.45 -0.6 20.3 -1.4 21.0 -2.25 21.6 -3.0 22.75 -3.35 23.9 -3.65 24.95 -3.35 25.9 -2.95 26.1 -2.15 M28.95 -3.1 L28.75 -2.65 Q28.6 -2.45 28.25 -2.45 L27.8 -2.65 27.6 -3.1 27.8 -3.6 28.25 -3.8 28.75 -3.6 28.95 -3.1 M12.25 27.9 Q12.25 37.55 8.5 44.35 4.8 51.25 -0.35 51.25 -5.6 51.25 -9.3 44.35 -13.0 37.55 -13.0 27.9 -13.0 18.2 -9.3 11.35 -5.6 4.45 -0.35 4.45 4.8 4.45 8.5 11.35 12.25 18.2 12.25 27.9 M-21.55 -45.75 Q-21.55 -44.2 -22.65 -43.15 -23.65 -42.1 -25.2 -42.1 -26.75 -42.1 -27.8 -43.15 -28.9 -44.2 -28.9 -45.75 -28.9 -47.3 -27.8 -48.35 -26.75 -49.45 -25.2 -49.45 -23.65 -49.45 -22.65 -48.35 -21.55 -47.3 -21.55 -45.75 M-19.85 -24.05 Q-19.85 -23.25 -20.75 -22.75 -21.55 -22.25 -22.85 -22.25 -24.1 -22.25 -25.0 -22.75 -25.85 -23.25 -25.85 -24.05 -25.85 -24.8 -25.0 -25.35 -24.1 -25.9 -22.85 -25.9 -21.55 -25.9 -20.75 -25.35 -19.85 -24.8 -19.85 -24.05 M-3.85 -21.1 Q-4.05 -15.85 -1.25 -15.65 1.3 -15.8 1.1 -21.4 -0.15 -21.1 -1.4 -22.5 -2.65 -21.1 -3.85 -21.1 M-17.0 6.2 Q-17.0 6.8 -17.8 7.25 L-19.6 7.7 -21.35 7.25 Q-22.15 6.8 -22.15 6.2 -22.15 5.55 -21.35 5.1 -20.6 4.65 -19.6 4.65 -18.55 4.65 -17.8 5.1 -17.0 5.55 -17.0 6.2 M-24.2 6.35 L-24.45 6.6 -25.05 6.75 -25.7 6.6 -25.95 6.35 -25.7 6.05 -25.05 5.9 -24.45 6.05 -24.2 6.35 M-22.25 4.7 Q-22.25 5.1 -22.75 5.35 L-23.9 5.6 -25.05 5.35 -25.5 4.7 -25.05 4.05 -23.9 3.8 -22.75 4.05 Q-22.25 4.4 -22.25 4.7" fill="#ffe8e2" fill-rule="evenodd" stroke="none"/>
  </g>
</svg>
