<?xml version="1.0" encoding="UTF-8" standalone="no"?>
<svg xmlns:xlink="http://www.w3.org/1999/xlink" height="119.3px" width="67.15px" xmlns="http://www.w3.org/2000/svg">
  <g transform="matrix(1.0, 0.0, 0.0, 1.0, 33.6, 59.65)">
    <path d="M26.55 -49.45 Q26.55 -47.95 25.4 -46.8 24.35 -45.7 22.75 -45.7 21.15 -45.7 20.0 -46.8 18.9 -47.95 18.9 -49.45 18.9 -51.05 20.0 -52.2 21.15 -53.3 22.75 -53.3 24.35 -53.3 25.4 -52.2 26.55 -51.05 26.55 -49.45 M13.4 -49.4 L13.4 -49.7 Q13.4 -53.4 16.05 -56.05 18.65 -58.65 22.4 -58.65 26.1 -58.65 28.75 -56.05 31.35 -53.4 31.35 -49.7 31.35 -45.95 28.75 -43.35 26.1 -40.7 22.4 -40.7 L21.05 -40.85 Q27.35 -33.5 26.7 -20.0 26.1 -13.25 19.1 -9.9 30.0 -14.0 32.4 -9.15 33.85 -2.95 22.3 3.7 17.6 6.8 19.35 16.35 23.5 30.65 21.95 43.4 25.85 48.85 27.15 54.2 27.45 57.85 24.25 58.5 L23.05 58.65 Q20.95 58.65 18.45 57.7 14.7 56.1 10.0 51.95 2.95 54.05 -6.45 51.95 -11.0 57.45 -15.4 58.15 L-18.95 57.9 -20.55 57.0 Q-25.6 53.35 -19.75 44.95 -23.1 36.45 -19.75 26.75 -15.65 15.3 -15.2 7.15 -26.25 8.55 -26.95 3.15 -26.9 -3.8 -12.7 -7.75 -24.55 -10.5 -26.45 -20.45 -27.7 -28.7 -21.9 -39.25 L-23.65 -39.1 Q-27.35 -39.1 -29.95 -41.75 -32.6 -44.35 -32.6 -48.05 -32.6 -51.75 -29.95 -54.4 -27.35 -57.0 -23.65 -57.0 -19.95 -57.0 -17.3 -54.4 -14.95 -52.0 -14.7 -48.7 -0.85 -59.8 13.4 -49.4 L16.3 -47.05 M-4.8 -24.55 Q-3.6 -23.2 -2.35 -23.15 -1.15 -23.15 0.1 -24.55 1.35 -23.15 2.6 -23.45 3.4 -23.7 4.1 -24.55 M19.1 -9.9 L16.9 -8.95 M-2.35 -23.15 Q-2.55 -17.9 0.25 -17.7 2.8 -17.85 2.6 -23.45 M17.8 53.6 L18.45 57.7 M22.85 53.5 L24.25 58.5 M-20.05 -47.8 Q-20.05 -46.25 -21.15 -45.2 -22.15 -44.15 -23.7 -44.15 -25.25 -44.15 -26.3 -45.2 -27.4 -46.25 -27.4 -47.8 -27.4 -49.35 -26.3 -50.4 -25.25 -51.5 -23.7 -51.5 -22.15 -51.5 -21.15 -50.4 -20.05 -49.35 -20.05 -47.8 M-17.75 -45.95 L-14.7 -48.7 M-15.2 7.15 L-13.35 6.85 M-15.15 53.6 L-15.4 58.15 M-19.4 53.3 L-20.55 57.0" fill="none" stroke="#624153" stroke-linecap="round" stroke-linejoin="round" stroke-width="2.0"/>
    <path d="M2.6 -27.1 Q2.6 -26.65 1.9 -26.3 L0.2 -25.95 Q-0.75 -25.95 -1.45 -26.3 -2.2 -26.65 -2.2 -27.1 -2.2 -27.6 -1.45 -27.95 L0.2 -28.25 1.9 -27.95 Q2.6 -27.6 2.6 -27.1" fill="none" stroke="#624153" stroke-linecap="round" stroke-linejoin="round" stroke-width="0.05"/>
  </g>
</svg>
