<?xml version="1.0" encoding="UTF-8" standalone="no"?>
<svg xmlns:xlink="http://www.w3.org/1999/xlink" height="129.45px" width="89.55px" xmlns="http://www.w3.org/2000/svg">
  <g transform="matrix(1.0, 0.0, 0.0, 1.0, 44.8, 64.75)">
    <path d="M-7.9 -20.3 Q-26.8 -46.0 -33.45 -43.0 -38.1 -35.8 -7.9 -20.3 M-9.45 12.45 Q-11.5 10.1 -12.8 6.85 -16.55 -2.2 -10.3 -9.7 -20.1 -18.6 -33.2 -27.45 -49.5 -39.6 -42.9 -48.1 -38.05 -53.35 -26.3 -48.1 -13.85 -42.35 -3.5 -23.5 L-1.0 -18.75 Q8.9 -24.55 18.8 -19.45 11.7 -61.75 24.2 -64.65 29.55 -65.55 32.5 -58.0 40.5 -36.85 29.3 -12.55 35.25 -5.75 34.1 1.95 L36.45 1.95 38.75 -1.25 41.0 2.5 44.75 4.7 40.8 5.8 41.5 10.4 40.55 9.6 Q42.0 12.25 42.25 15.95 L42.0 21.6 41.2 26.05 40.05 30.3 39.5 32.05 38.1 30.55 Q35.6 27.4 34.4 23.4 32.5 26.05 29.45 26.45 27.25 27.5 27.55 30.35 27.8 33.65 31.5 39.35 33.05 42.3 33.95 45.0 36.2 42.95 38.15 42.25 40.55 41.3 42.3 42.75 46.85 46.3 42.3 53.7 34.1 65.2 14.75 64.7 0.95 64.3 -3.5 56.3 -5.15 53.35 -5.55 49.3 L-5.6 44.05 Q-5.4 38.75 -4.15 34.75 -3.65 32.7 -3.5 30.75 L-3.35 29.5 Q-2.8 24.35 -3.5 20.1 -3.8 18.2 -4.4 16.5 -7.35 14.95 -9.45 12.45 M26.15 -21.0 Q33.85 -52.6 26.15 -55.15 19.7 -55.05 26.15 -21.0 M33.95 3.95 Q31.25 14.5 22.55 16.65 29.6 15.65 33.55 17.75 33.35 13.85 34.3 9.35 L33.55 9.7 35.25 5.0 33.95 3.95" fill="#dcfaff" fill-rule="evenodd" stroke="none"/>
  </g>
</svg>
