<?xml version="1.0" encoding="UTF-8" standalone="no"?>
<svg xmlns:xlink="http://www.w3.org/1999/xlink" height="6.95px" width="31.65px" xmlns="http://www.w3.org/2000/svg">
  <g transform="matrix(1.0, 0.0, 0.0, 1.0, 15.85, 3.5)">
    <path d="M-15.85 0.1 Q-15.85 -1.2 -15.3 -2.2 L-14.45 -3.05 -13.85 -3.2 Q-13.0 -3.2 -12.45 -2.2 -11.9 -1.2 -11.9 0.1 -11.9 1.55 -12.45 2.45 -13.0 3.45 -13.85 3.45 L-14.45 3.3 -15.3 2.45 Q-15.85 1.55 -15.85 0.1 M12.15 -0.3 Q12.15 -1.55 12.65 -2.55 13.2 -3.5 14.0 -3.5 14.75 -3.5 15.25 -2.55 15.8 -1.55 15.8 -0.3 15.8 1.05 15.25 2.05 14.75 2.95 14.0 2.95 13.2 2.95 12.65 2.05 12.15 1.05 12.15 -0.3" fill="#4e5772" fill-rule="evenodd" stroke="none"/>
  </g>
</svg>
