<?xml version="1.0" encoding="UTF-8" standalone="no"?>
<svg xmlns:xlink="http://www.w3.org/1999/xlink" height="118.65px" width="102.4px" xmlns="http://www.w3.org/2000/svg">
  <g transform="matrix(1.0, 0.0, 0.0, 1.0, 51.2, 59.35)">
    <path d="M2.95 -21.0 Q11.85 -39.45 32.45 -43.5 46.1 -46.3 49.6 -39.85 52.0 -33.7 44.85 -29.0 L43.9 -28.45 Q38.05 -25.35 29.55 -25.3 19.45 -24.85 13.45 -13.15 18.75 -6.95 19.95 1.5 20.25 13.75 9.55 16.8 15.85 31.75 9.55 45.85 10.8 56.1 8.45 56.75 5.65 58.3 1.75 51.15 0.85 52.45 1.1 54.75 1.25 62.1 -8.35 51.05 -15.25 49.95 -18.2 51.8 -15.3 60.55 -22.35 57.5 -29.95 52.85 -32.35 45.6 L-38.55 48.0 Q-48.15 50.65 -43.6 42.95 -54.65 40.4 -47.25 34.05 -51.7 27.1 -45.15 25.5 -39.05 24.3 -32.95 34.45 -30.95 24.45 -20.5 17.25 -28.9 14.25 -30.7 7.5 -33.55 -4.2 -28.25 -10.25 L-29.5 -12.3 Q-35.1 -9.1 -37.9 -13.65 -44.95 -24.25 -40.85 -27.15 -37.35 -29.9 -26.2 -26.95 L-26.05 -28.15 Q-31.5 -32.55 -28.6 -32.95 -28.85 -42.65 -1.5 -55.45 10.1 -61.5 15.15 -54.85 18.1 -50.0 13.95 -45.65 L10.5 -42.85 Q2.5 -36.95 -8.6 -33.6 -7.0 -29.95 -7.3 -23.1 -2.0 -23.05 2.95 -21.0 L6.5 -19.35 M43.9 -28.45 Q41.3 -35.8 22.05 -29.1 11.5 -23.6 11.1 -15.65 L13.45 -13.15 M4.3 49.5 Q2.6 50.0 1.75 51.15 M-8.6 -33.6 Q-9.7 -36.0 -11.55 -36.95 L-13.6 -37.55 Q-17.15 -38.1 -22.15 -31.35 L-22.25 -30.05 Q-20.35 -29.5 -19.95 -25.3 L-16.3 -27.6 M-22.15 -31.35 Q-21.75 -36.6 -24.3 -34.15 -27.35 -37.5 -27.65 -32.95 L-28.6 -32.95 M-22.25 -30.05 L-24.3 -29.9 Q-25.6 -29.25 -26.05 -28.15 M-26.2 -26.95 Q-26.15 -25.35 -24.75 -23.1 -23.65 -21.25 -21.7 -19.0 -21.0 -18.3 -20.15 -18.05 L-20.1 -19.0 -20.05 -20.0 Q-19.75 -23.1 -19.95 -25.3 M-29.5 -12.3 Q-26.1 -14.25 -21.7 -19.0 -20.9 -9.95 -24.1 -7.55 -26.05 -6.95 -28.25 -10.25 M-24.75 -23.1 L-30.4 -22.1 M-20.1 -19.0 Q-15.15 -9.2 -11.85 -12.3 -7.2 -15.7 -10.15 -19.15 -13.3 -17.95 -20.05 -20.0 M-7.3 -23.1 Q-7.55 -20.1 -10.15 -19.15 M-32.95 34.45 Q-33.65 38.15 -33.2 42.25 L-32.35 45.6 M1.45 -0.8 Q-0.95 2.0 -2.7 -0.8 -4.65 1.95 -6.55 -0.8 M10.5 -42.85 Q4.3 -49.75 -11.55 -36.95" fill="none" stroke="#443d5b" stroke-linecap="round" stroke-linejoin="round" stroke-width="2.0"/>
  </g>
</svg>
