<?xml version="1.0" encoding="UTF-8" standalone="no"?>
<svg xmlns:xlink="http://www.w3.org/1999/xlink" height="130.45px" width="77.2px" xmlns="http://www.w3.org/2000/svg">
  <g transform="matrix(1.0, 0.0, 0.0, 1.0, 38.6, 65.25)">
    <path d="M33.1 -61.1 Q35.95 -65.25 37.2 -65.25 38.15 -65.25 38.45 -63.9 L38.6 -61.8 38.45 -59.65 Q38.1 -57.1 36.95 -54.5 L32.65 -46.55 Q30.7 -43.05 27.75 -39.3 L25.55 -36.9 23.8 -35.1 Q24.35 -38.6 25.15 -41.85 L27.0 -49.55 Q27.6 -52.5 31.5 -58.7 L33.1 -61.1 M-11.85 -32.95 Q-11.4 -29.25 -9.5 -27.8 -7.9 -26.6 -5.35 -26.6 L-2.55 -27.0 -0.6 -27.4 3.75 -26.8 7.75 -26.2 Q9.45 -26.2 10.6 -26.7 L12.5 -27.8 Q15.15 -29.35 19.85 -29.35 20.45 -29.35 20.85 -29.7 L22.5 -31.25 Q21.8 -25.85 14.55 -23.45 9.3 -21.75 1.45 -21.75 -2.3 -21.75 -6.85 -24.05 -12.45 -26.8 -12.45 -30.45 L-12.25 -32.05 -11.85 -32.95 M21.3 60.7 Q21.3 62.7 19.15 63.4 L15.5 63.75 Q13.25 63.75 11.85 62.95 L10.5 63.9 Q8.75 64.75 7.2 64.75 L3.65 64.15 Q2.2 63.55 0.7 61.65 L0.95 59.95 0.95 59.7 1.4 59.0 Q1.65 60.7 2.65 61.1 L4.0 61.35 Q5.25 61.35 6.1 62.1 6.9 62.9 7.8 62.9 8.4 62.9 9.5 62.35 10.6 61.75 10.95 61.75 L11.5 61.9 12.45 62.1 12.65 61.2 14.5 62.2 15.05 62.2 Q15.95 62.2 16.4 61.8 16.85 61.35 17.45 61.35 L18.4 61.5 19.3 61.65 20.05 61.4 21.3 60.7 M22.9 26.65 Q19.75 27.65 14.35 28.15 L1.9 28.8 Q-6.65 28.8 -12.95 25.4 L-14.45 24.5 Q-18.4 21.95 -19.15 18.65 -16.95 20.0 -14.85 20.7 L-11.85 21.2 Q-10.1 21.2 -6.85 20.15 -3.6 19.1 -1.25 19.1 1.35 19.1 5.45 20.9 9.5 22.75 12.2 22.75 15.05 22.75 18.5 20.35 22.0 17.9 24.0 17.9 25.65 17.9 27.55 18.75 29.2 19.5 31.15 21.2 29.25 23.15 25.55 25.45 24.5 26.1 22.9 26.65 M-37.4 -49.75 Q-38.6 -52.3 -38.6 -53.9 L-38.25 -54.9 Q-37.9 -55.35 -37.35 -55.35 L-35.3 -54.9 Q-31.0 -53.2 -25.4 -44.75 -22.8 -40.8 -20.8 -36.3 L-18.75 -31.25 Q-23.3 -33.75 -25.85 -35.95 L-31.0 -40.75 Q-33.35 -42.95 -35.9 -47.0 L-37.4 -49.75 M-24.5 39.4 L-25.6 41.3 Q-27.3 44.8 -27.3 48.75 -27.3 50.7 -26.7 52.65 L-29.35 54.25 -31.65 54.7 Q-33.1 54.7 -34.25 54.15 -32.75 53.65 -32.3 53.25 L-31.5 52.0 Q-31.35 51.7 -31.3 50.5 L-30.95 49.0 -30.2 47.75 -29.2 46.45 -28.15 45.35 Q-27.75 44.75 -27.75 43.8 L-27.95 42.4 -28.2 40.9 -27.1 39.35 Q-26.05 38.1 -26.2 35.65 -24.95 36.75 -24.5 39.4 M-12.85 59.55 Q-11.5 61.2 -10.1 61.25 -8.7 61.3 -8.45 61.85 L-7.3 63.0 Q-6.45 63.55 -5.55 63.55 -4.6 63.55 -3.95 63.05 L-3.4 62.55 -1.65 62.8 0.3 62.5 -0.5 63.55 Q-2.15 65.2 -5.0 65.2 L-10.55 64.3 -12.15 62.35 Q-12.95 61.15 -12.95 60.45 L-12.85 59.55" fill="#f9b782" fill-rule="evenodd" stroke="none"/>
  </g>
</svg>
