<?xml version="1.0" encoding="UTF-8" standalone="no"?>
<svg xmlns:xlink="http://www.w3.org/1999/xlink" height="16.25px" width="42.45px" xmlns="http://www.w3.org/2000/svg">
  <g transform="matrix(1.0, 0.0, 0.0, 1.0, 17.45, 79.0)">
    <path d="M15.15 -73.45 Q19.65 -71.05 20.1 -77.05 L21.35 -75.3 Q22.45 -73.05 22.45 -70.25 22.45 -68.3 21.8 -66.9 21.2 -65.65 20.15 -65.25 L19.15 -65.1 Q16.95 -65.1 15.8 -67.75 15.05 -69.55 15.05 -71.75 L15.15 -73.45 M-6.65 -70.75 Q-6.3 -69.35 -6.3 -67.6 -6.3 -65.65 -7.0 -64.3 -7.75 -62.75 -9.05 -62.75 L-9.15 -62.75 -9.35 -62.75 Q-11.2 -63.0 -12.75 -65.6 -14.3 -68.15 -14.3 -70.15 -14.3 -72.25 -13.55 -73.7 L-12.75 -74.8 Q-10.8 -68.45 -6.65 -70.75" fill="#000000" fill-opacity="0.34901962" fill-rule="evenodd" stroke="none"/>
    <path d="M15.15 -73.45 Q15.35 -75.45 16.2 -76.8 L17.4 -78.1 Q18.5 -78.9 20.0 -79.0 21.45 -79.1 23.15 -77.25 24.5 -75.8 25.0 -74.5 L25.0 -73.85 24.95 -71.95 25.0 -71.3 Q25.0 -69.4 23.75 -67.35 22.55 -65.35 20.15 -65.25 21.2 -65.65 21.8 -66.9 22.45 -68.3 22.45 -70.25 22.45 -73.05 21.35 -75.3 L20.1 -77.05 Q19.65 -71.05 15.15 -73.45 M-9.35 -62.75 Q-12.85 -63.05 -14.1 -64.2 -15.6 -65.6 -17.15 -69.2 L-17.45 -69.8 Q-17.45 -72.0 -16.2 -73.9 -14.75 -76.15 -12.8 -76.15 -11.55 -76.15 -10.15 -75.55 -9.1 -75.15 -8.1 -73.9 -7.1 -72.55 -6.65 -70.75 -10.8 -68.45 -12.75 -74.8 L-13.55 -73.7 Q-14.3 -72.25 -14.3 -70.15 -14.3 -68.15 -12.75 -65.6 -11.2 -63.0 -9.35 -62.75" fill="#ffffff" fill-rule="evenodd" stroke="none"/>
  </g>
</svg>
