<?xml version="1.0" encoding="UTF-8" standalone="no"?>
<svg xmlns:xlink="http://www.w3.org/1999/xlink" height="85.75px" width="157.15px" xmlns="http://www.w3.org/2000/svg">
  <g transform="matrix(1.0, 0.0, 0.0, 1.0, 78.6, 42.9)">
    <path d="M34.4 11.05 Q36.15 1.5 36.15 -2.75 36.15 -11.25 33.65 -19.75 30.95 -28.85 25.1 -34.65 24.9 -33.75 24.2 -32.8 L20.9 -31.65 Q13.5 -29.15 6.05 -28.7 L6.65 -30.15 4.45 -28.95 Q3.15 -28.25 1.95 -28.25 0.3 -28.25 -1.05 -29.35 -2.65 -30.65 -2.65 -32.55 -2.65 -34.75 -1.3 -36.3 0.2 -37.95 2.65 -37.95 L3.3 -37.85 Q10.5 -38.8 16.8 -40.85 19.65 -41.75 22.25 -42.9 L23.95 -41.45 Q38.4 -28.1 47.15 -7.9 51.0 1.15 61.05 6.3 70.6 11.25 78.55 9.35 68.55 20.9 53.65 29.25 37.25 38.5 21.25 39.3 18.2 36.1 13.35 34.45 L16.4 30.95 Q22.65 28.0 25.1 23.5 L28.8 15.25 28.85 15.4 28.85 19.4 Q28.9 21.65 28.15 24.2 L26.5 28.2 Q30.15 24.9 33.1 15.65 L34.3 11.35 34.4 11.05 34.6 10.2 34.6 10.15 34.4 11.05 M-6.6 -27.9 Q-16.45 -27.55 -24.0 -31.3 -26.95 -32.75 -29.6 -34.85 -39.3 -25.15 -39.3 -3.55 -39.3 4.2 -36.0 15.35 L-35.9 15.65 -35.85 15.85 Q-32.8 24.25 -28.5 29.7 L-28.4 29.7 -30.05 23.85 Q-31.1 20.2 -31.4 17.8 -30.3 22.45 -27.85 26.1 -25.05 30.2 -19.1 32.95 L-15.95 35.65 Q-20.35 37.95 -22.85 41.25 -30.3 40.1 -38.45 35.9 -43.25 33.45 -52.75 27.3 -62.0 21.25 -66.3 19.1 -73.5 15.5 -78.6 15.7 -71.3 13.7 -62.45 5.1 -53.9 -3.2 -49.75 -11.7 -45.75 -19.8 -39.7 -28.05 -34.25 -35.55 -27.8 -42.05 L-26.9 -42.9 Q-24.05 -41.75 -21.15 -40.95 -13.1 -38.6 -4.15 -38.0 L-5.45 -36.85 Q-7.1 -34.95 -7.4 -32.55 L-7.45 -31.5 Q-7.45 -29.55 -6.6 -27.9 M5.0 41.45 Q0.3 43.45 -5.2 42.6 L-3.35 40.35 -0.9 40.45 3.8 39.9 5.0 41.45" fill="#4152ae" fill-rule="evenodd" stroke="none"/>
  </g>
</svg>
