<?xml version="1.0" encoding="UTF-8" standalone="no"?>
<svg xmlns:xlink="http://www.w3.org/1999/xlink" height="207.2px" width="168.25px" xmlns="http://www.w3.org/2000/svg">
  <g transform="matrix(1.0, 0.0, 0.0, 1.0, 61.65, 168.9)">
    <path d="M36.7 -65.85 Q31.4 -68.2 26.1 -65.8 L26.4 -67.8 Q26.4 -70.8 24.05 -70.8 L21.9 -70.45 Q21.75 -72.5 20.8 -73.55 19.8 -74.55 19.1 -74.55 L17.7 -74.45 Q17.7 -76.7 16.3 -78.05 15.0 -79.3 14.25 -79.3 L13.7 -79.15 Q15.1 -83.9 9.15 -84.05 L9.15 -84.2 Q9.15 -85.35 10.65 -87.3 L13.9 -91.1 Q18.6 -96.55 18.6 -100.35 18.6 -102.65 15.4 -111.05 12.25 -119.55 12.25 -121.75 12.25 -124.1 12.85 -126.5 13.6 -129.95 15.25 -132.05 11.5 -133.5 8.55 -135.85 -3.4 -145.4 -2.0 -168.9 18.3 -158.35 24.75 -148.05 30.75 -138.5 25.0 -129.15 33.2 -129.2 36.85 -135.8 36.55 -131.1 32.6 -127.3 43.75 -126.35 50.65 -135.2 L46.75 -128.95 Q49.7 -118.3 59.05 -124.2 L61.65 -130.6 64.1 -137.5 65.0 -140.3 65.9 -136.1 67.2 -136.8 68.55 -137.2 68.4 -135.7 Q68.55 -134.85 69.6 -134.85 72.6 -134.85 75.15 -139.85 77.5 -144.5 77.5 -149.1 L77.3 -150.7 76.75 -152.35 73.25 -148.05 Q70.75 -145.25 65.05 -140.35 L66.35 -145.1 68.05 -152.5 Q73.25 -160.2 82.7 -164.45 88.7 -142.75 70.65 -131.8 L72.65 -121.75 Q73.25 -119.05 73.25 -115.05 73.25 -111.6 72.65 -108.85 L72.5 -108.15 Q71.8 -105.25 71.8 -102.7 L72.3 -94.9 Q72.3 -87.4 64.95 -83.55 59.1 -80.45 50.75 -80.45 L48.0 -80.55 47.95 -80.55 Q44.35 -79.45 44.05 -79.15 43.7 -78.6 43.7 -77.05 43.7 -75.7 44.15 -75.25 41.75 -74.45 41.1 -73.6 40.6 -72.9 40.6 -72.05 40.6 -71.25 40.95 -70.7 38.45 -70.65 37.35 -69.85 36.35 -69.1 36.35 -67.8 36.35 -66.65 36.7 -65.85 L37.3 -65.1 Q38.2 -64.15 39.75 -64.15 41.0 -64.15 41.8 -64.75 L42.1 -65.0 43.45 -55.85 44.2 -51.7 Q46.15 -38.6 42.6 -26.95 43.65 -24.2 45.25 -22.4 47.4 -20.0 50.55 -19.45 64.6 -16.8 78.65 -11.4 99.4 -3.25 106.6 12.0 88.7 8.65 70.9 12.0 42.25 16.15 28.3 -3.6 17.15 5.7 1.45 4.7 -6.75 9.45 -19.7 12.45 -43.9 19.65 -59.2 38.3 -65.1 22.55 -56.85 6.8 L-52.45 1.0 Q-46.55 -6.1 -39.05 -11.65 L-30.4 -17.25 Q-28.55 -19.85 -34.15 -21.6 -23.2 -23.8 -32.9 -29.85 -22.5 -34.05 -33.2 -37.4 -29.3 -39.2 -29.05 -43.05 L-21.35 -42.65 Q-17.05 -43.7 -15.35 -46.4 -14.2 -48.25 -13.4 -51.95 -12.35 -56.6 -11.9 -57.7 -10.8 -60.75 -8.55 -62.25 -7.2 -63.15 -3.45 -64.15 L3.25 -65.8 Q11.2 -68.35 11.5 -74.3 13.45 -71.4 15.45 -73.0 15.05 -72.35 15.05 -71.45 15.05 -70.1 15.7 -69.4 16.6 -68.35 19.8 -68.2 L19.8 -67.65 Q19.8 -66.4 20.5 -65.3 21.35 -63.9 22.85 -63.9 25.3 -63.9 26.1 -65.8 L26.9 -61.75 Q23.15 -57.45 22.4 -53.3 23.9 -49.6 27.15 -50.4 29.85 -48.0 32.6 -49.95 34.95 -48.0 37.3 -49.7 40.25 -49.65 41.3 -52.3 41.1 -57.05 37.1 -61.75 L36.7 -65.85 M15.25 -136.1 Q16.4 -136.1 16.75 -137.05 17.05 -137.75 16.9 -139.35 L18.2 -138.45 Q19.35 -137.7 19.9 -137.7 L20.95 -137.95 Q21.45 -138.3 21.45 -139.5 21.45 -143.8 14.5 -149.1 L9.05 -153.0 Q6.1 -155.15 5.15 -156.4 4.4 -155.25 4.25 -154.35 L4.15 -152.35 Q4.15 -147.9 7.7 -142.2 11.5 -136.1 15.25 -136.1 M28.1 -100.8 Q29.9 -99.4 32.6 -99.75 36.75 -100.6 38.05 -110.9 36.1 -114.75 34.6 -115.9 32.85 -117.4 29.95 -117.4 L27.85 -116.95 27.75 -116.95 Q26.2 -116.35 25.25 -114.5 24.75 -113.7 24.5 -112.7 24.05 -111.1 24.05 -109.1 24.05 -106.9 25.25 -104.15 26.5 -101.0 28.1 -100.8 M63.45 -98.25 Q64.5 -96.95 67.55 -98.45 70.75 -100.85 71.35 -108.85 L69.05 -111.6 Q67.85 -112.85 66.15 -112.85 L64.0 -112.4 63.8 -112.3 Q62.5 -111.6 61.45 -110.05 60.6 -108.9 60.2 -107.7 59.75 -106.4 59.75 -105.05 59.75 -102.05 60.25 -100.6 61.0 -98.25 63.1 -98.25 L63.45 -98.25" fill="#dbeaff" fill-opacity="0.34901962" fill-rule="evenodd" stroke="none"/>
  </g>
</svg>
