<?xml version="1.0" encoding="UTF-8" standalone="no"?>
<svg xmlns:xlink="http://www.w3.org/1999/xlink" height="89.15px" width="162.65px" xmlns="http://www.w3.org/2000/svg">
  <g transform="matrix(1.0, 0.0, 0.0, 1.0, 81.35, 44.6)">
    <path d="M75.15 -36.7 L77.35 -33.6 78.8 -30.95 Q80.55 -27.1 81.1 -22.6 L81.25 -14.35 81.3 -14.3 81.25 -13.75 80.9 -11.05 Q79.55 -2.1 74.85 6.85 L74.25 7.85 Q70.6 14.3 65.9 19.25 L65.8 19.3 Q61.7 23.6 56.55 26.8 58.85 44.3 48.6 32.5 40.55 36.2 30.55 36.9 26.65 52.25 20.75 36.9 L13.15 38.2 10.45 38.55 6.8 38.8 -2.3 38.4 Q-12.05 37.5 -20.0 34.55 -28.05 31.6 -35.35 26.25 L-41.15 21.55 -43.4 19.35 -48.2 13.7 Q-53.8 6.9 -56.55 4.15 L-56.8 3.85 Q-61.5 -1.05 -66.05 -3.8 -71.95 -7.45 -77.5 -7.45 L-79.15 -7.7 -81.35 -8.0 -73.55 -10.05 -66.65 -10.7 Q-58.9 -10.7 -50.8 -7.45 L-46.45 -5.45 -37.15 -0.15 -35.4 0.85 -24.8 7.05 Q-22.35 8.25 -20.1 9.1 -16.25 10.3 -12.9 10.3 -7.15 10.3 -1.6 8.5 4.8 6.35 10.8 1.75 15.8 -2.15 21.8 -9.05 25.0 -12.65 28.4 -17.15 L33.5 -24.0 35.1 -26.0 35.3 -26.3 36.0 -27.2 42.6 -35.2 47.9 -40.05 Q49.95 -41.7 52.0 -42.6 55.85 -44.6 59.55 -44.6 62.75 -44.6 65.1 -43.85 71.0 -41.9 75.15 -36.7" fill="#ffffff" fill-rule="evenodd" stroke="none"/>
  </g>
</svg>
