<?xml version="1.0" encoding="UTF-8" standalone="no"?>
<svg xmlns:xlink="http://www.w3.org/1999/xlink" height="51.15px" width="81.85px" xmlns="http://www.w3.org/2000/svg">
  <g transform="matrix(1.0, 0.0, 0.0, 1.0, 40.9, 25.6)">
    <path d="M30.05 14.65 L30.0 14.6 29.85 14.6 30.05 14.65 33.35 17.25 Q34.1 18.2 34.1 21.15 34.1 23.5 33.3 24.4 32.3 25.55 29.6 25.55 27.9 25.55 26.5 24.8 24.85 24.0 22.05 20.8 L22.45 17.55 22.55 13.75 22.25 9.25 Q21.7 4.75 19.95 0.9 L18.9 -1.05 Q21.65 -4.95 25.95 -8.0 31.6 -12.0 33.95 -12.0 36.65 -12.0 38.25 -10.05 39.55 -8.3 39.55 -5.7 39.55 -1.05 37.1 1.15 L29.7 5.55 30.0 5.55 32.1 4.7 34.8 4.2 Q37.15 4.2 38.8 5.25 40.95 6.65 40.95 9.55 40.95 11.9 39.05 13.5 37.05 15.1 33.85 15.1 L30.05 14.65 M-16.25 -3.35 Q-19.05 -0.2 -22.85 4.65 L-24.7 7.05 -25.35 7.85 Q-30.35 7.7 -35.0 5.8 -40.9 3.35 -40.9 0.05 -40.9 -1.75 -39.2 -2.95 -37.7 -4.0 -35.5 -4.0 L-33.15 -3.6 -30.7 -3.25 Q-31.75 -4.0 -33.85 -7.4 -36.25 -11.2 -36.25 -12.8 -36.25 -14.5 -35.1 -15.75 -33.9 -17.15 -31.95 -17.15 -28.9 -17.15 -26.3 -14.8 -24.25 -13.05 -23.35 -10.75 L-24.05 -13.55 Q-25.0 -17.2 -25.0 -18.55 -25.0 -21.7 -22.85 -23.7 -20.85 -25.6 -18.0 -25.6 -15.0 -25.6 -12.4 -21.8 -10.0 -18.25 -10.0 -15.0 -10.0 -13.9 -10.95 -8.2 -13.15 -6.5 -15.4 -4.2 L-16.25 -3.35 M-23.0 -9.55 L-22.85 -8.95 -22.85 -9.25 -23.0 -9.55" fill="#9569ff" fill-rule="evenodd" stroke="none"/>
  </g>
</svg>
