<?xml version="1.0" encoding="UTF-8" standalone="no"?>
<svg xmlns:xlink="http://www.w3.org/1999/xlink" height="104.0px" width="183.15px" xmlns="http://www.w3.org/2000/svg">
  <g transform="matrix(1.0, 0.0, 0.0, 1.0, 91.6, 52.0)">
    <path d="M26.6 -34.95 L26.75 -34.65 26.75 -34.35 26.6 -34.95 26.25 -36.15 Q25.35 -38.45 23.3 -40.2 20.7 -42.55 17.65 -42.55 15.7 -42.55 14.5 -41.15 13.35 -39.9 13.35 -38.2 13.35 -36.6 15.75 -32.8 17.85 -29.4 18.9 -28.65 L16.45 -29.0 14.1 -29.4 Q11.9 -29.4 10.4 -28.35 8.7 -27.15 8.7 -25.35 8.7 -22.05 14.6 -19.6 19.25 -17.7 24.25 -17.55 L24.9 -18.35 26.75 -20.75 33.35 -28.75 34.2 -29.6 Q36.45 -31.9 38.65 -33.6 L39.6 -40.4 Q39.6 -43.65 37.2 -47.2 34.6 -51.0 31.6 -51.0 28.75 -51.0 26.75 -49.1 24.6 -47.1 24.6 -43.95 24.6 -42.6 25.55 -38.95 L26.25 -36.15 M24.25 -17.55 L19.15 -10.7 Q15.75 -6.2 12.55 -2.6 6.55 4.3 1.55 8.2 -4.45 12.8 -10.85 14.95 -16.4 16.75 -22.15 16.75 -25.5 16.75 -29.35 15.55 L-34.05 13.5 Q-36.6 12.2 -44.65 7.3 L-46.4 6.3 Q-51.6 3.05 -55.7 1.0 L-60.05 -1.0 Q-68.15 -4.25 -75.9 -4.25 L-82.8 -3.6 -90.6 -1.55 -88.4 -1.25 -86.75 -1.0 Q-81.2 -1.0 -75.3 2.65 -70.75 5.4 -66.05 10.3 L-65.8 10.6 Q-63.05 13.35 -57.45 20.15 L-52.65 25.8 -50.4 28.0 Q-47.6 30.55 -44.6 32.7 -37.3 38.05 -29.25 41.0 -21.3 43.95 -11.55 44.85 L-2.45 45.25 1.2 45.0 3.9 44.65 11.5 43.35 Q17.4 58.7 21.3 43.35 31.3 42.65 39.35 38.95 49.6 50.75 47.3 33.25 52.45 30.05 56.65 25.7 61.35 20.75 65.0 14.3 L65.6 13.3 Q70.3 4.35 71.65 -4.6 L72.05 -7.85 72.15 -11.65 71.85 -16.15 Q71.3 -20.65 69.55 -24.5 L68.5 -26.45 Q67.4 -28.45 65.9 -30.25 61.75 -35.45 55.85 -37.4 53.5 -38.15 50.3 -38.15 46.6 -38.15 42.75 -36.15 40.7 -35.25 38.65 -33.6 M71.65 -4.6 Q74.45 -1.4 76.1 -0.6 77.5 0.15 79.2 0.15 81.9 0.15 82.9 -1.0 83.7 -1.9 83.7 -4.25 83.7 -7.2 82.95 -8.15 L79.65 -10.75 79.45 -10.8 79.6 -10.8 79.65 -10.75 83.45 -10.3 Q86.65 -10.3 88.65 -11.9 90.55 -13.5 90.55 -15.85 90.55 -18.75 88.4 -20.15 86.75 -21.2 84.4 -21.2 L81.7 -20.7 Q80.95 -20.4 79.6 -19.85 L79.3 -19.85 86.7 -24.25 Q89.15 -26.45 89.15 -31.1 89.15 -33.7 87.85 -35.45 86.25 -37.4 83.55 -37.4 81.2 -37.4 75.55 -33.4 71.25 -30.35 68.5 -26.45" fill="none" stroke="#2a3156" stroke-linecap="round" stroke-linejoin="round" stroke-width="2.0"/>
    <path d="M49.4 -6.2 L49.05 -6.7 48.15 -7.65 46.8 -7.4 45.6 -7.15 45.0 -7.2 44.3 -3.6 Q44.3 -1.0 45.85 -1.0 47.3 -1.0 48.0 -1.9 L49.4 -6.2 Q51.55 -5.15 52.7 -7.0 M45.0 -7.2 Q44.3 -7.35 44.0 -7.95 43.6 -8.65 43.8 -9.6" fill="none" stroke="#2a3156" stroke-linecap="round" stroke-linejoin="round" stroke-width="1.5"/>
  </g>
</svg>
