<?xml version="1.0" encoding="UTF-8" standalone="no"?>
<svg xmlns:xlink="http://www.w3.org/1999/xlink" height="82.75px" width="139.7px" xmlns="http://www.w3.org/2000/svg">
  <g transform="matrix(1.0, 0.0, 0.0, 1.0, 42.45, 196.05)">
    <path d="M58.2 -142.2 L67.55 -143.9 Q72.25 -144.75 75.8 -146.25 L84.3 -150.25 Q89.0 -152.5 91.45 -152.5 97.25 -152.5 97.25 -147.5 97.25 -142.75 91.7 -137.7 87.55 -133.7 83.55 -132.5 86.25 -130.95 86.95 -129.4 87.45 -128.35 87.45 -127.4 87.45 -123.05 83.25 -120.6 79.7 -118.55 74.8 -118.55 72.65 -118.55 69.8 -119.6 L67.45 -120.65 68.75 -117.7 68.85 -116.8 Q68.85 -115.25 67.2 -114.2 65.7 -113.3 63.95 -113.3 58.65 -113.3 53.85 -115.85 48.35 -118.75 47.05 -125.25 51.55 -124.65 52.95 -129.25 L53.5 -132.6 Q57.3 -135.6 56.55 -139.2 57.75 -140.7 58.2 -142.2 M7.6 -147.25 Q7.6 -148.1 8.55 -148.65 9.45 -149.2 10.8 -149.2 12.1 -149.2 13.05 -148.65 14.0 -148.1 14.0 -147.25 14.0 -146.45 13.05 -145.9 12.1 -145.3 10.8 -145.3 9.45 -145.3 8.55 -145.9 7.6 -146.45 7.6 -147.25 M-10.55 -146.85 L-10.55 -147.0 -11.55 -146.35 Q-13.7 -145.2 -16.1 -145.0 L-17.2 -144.95 Q-20.6 -144.95 -24.6 -146.55 -29.8 -148.55 -29.8 -151.75 -29.8 -152.65 -28.7 -153.85 -28.0 -154.6 -27.1 -155.0 L-29.85 -155.5 Q-32.85 -156.45 -35.65 -158.35 -42.45 -163.0 -42.45 -168.55 -42.45 -170.35 -41.7 -171.45 L-39.45 -173.2 Q-36.9 -173.25 -34.45 -170.85 L-39.5 -178.45 Q-42.45 -183.6 -42.45 -187.4 -42.45 -190.15 -40.85 -192.9 -39.0 -196.05 -36.3 -196.05 -33.2 -196.05 -30.5 -192.75 -29.0 -190.9 -26.75 -187.3 L-22.85 -182.25 -18.55 -177.5 Q-15.95 -175.0 -7.6 -168.85 -0.1 -162.65 2.25 -154.9 L1.65 -153.35 Q-4.65 -153.35 -6.05 -147.6 -9.0 -147.9 -10.55 -146.85 M47.4 -137.6 L49.55 -138.1 Q50.8 -138.1 51.7 -137.6 52.6 -137.05 52.6 -136.25 52.6 -135.55 51.7 -135.05 50.8 -134.5 49.55 -134.5 48.3 -134.5 47.4 -135.05 46.5 -135.55 46.5 -136.25 46.5 -137.05 47.4 -137.6" fill="#ffffff" fill-rule="evenodd" stroke="none"/>
    <path d="M17.4 -150.8 Q17.8 -152.2 18.6 -153.1 19.45 -153.95 20.2 -153.75 20.9 -153.55 21.15 -152.4 21.35 -151.2 20.95 -149.8 20.5 -148.35 19.75 -147.45 18.9 -146.65 18.2 -146.85 17.45 -147.05 17.2 -148.15 16.95 -149.35 17.4 -150.8 M44.1 -143.45 Q44.5 -144.85 45.35 -145.75 46.15 -146.6 46.85 -146.35 47.6 -146.15 47.85 -145.05 48.05 -143.85 47.65 -142.45 47.25 -141.0 46.45 -140.1 45.65 -139.25 44.9 -139.45 44.2 -139.65 43.9 -140.85 43.7 -142.0 44.1 -143.45" fill="#000000" fill-rule="evenodd" stroke="none"/>
    <path d="M32.55 -142.75 Q32.2 -140.55 31.25 -139.5 30.3 -138.4 29.3 -138.4 28.6 -138.4 28.2 -139.2 27.9 -139.85 27.9 -140.8 L28.5 -143.85 Q29.7 -143.5 31.45 -144.25 31.65 -143.15 32.55 -142.75" fill="#feaadc" fill-rule="evenodd" stroke="none"/>
  </g>
</svg>
