<?xml version="1.0" encoding="UTF-8" standalone="no"?>
<svg xmlns:xlink="http://www.w3.org/1999/xlink" height="98.95px" width="133.4px" xmlns="http://www.w3.org/2000/svg">
  <g transform="matrix(1.0, 0.0, 0.0, 1.0, 66.7, 49.5)">
    <path d="M49.1 -5.5 Q50.9 -3.05 52.15 -0.4 L52.85 1.15 55.2 -0.4 55.55 -0.7 55.45 -0.4 54.25 3.6 53.95 4.55 Q57.15 16.05 48.5 26.1 42.15 30.85 34.95 34.1 L34.1 37.15 34.05 37.6 Q34.05 38.35 35.0 40.85 35.95 43.25 35.95 44.1 35.95 45.1 34.8 45.8 L33.05 46.3 Q30.7 46.3 29.55 42.95 L28.25 36.7 Q17.4 40.35 4.8 40.9 5.25 45.25 5.7 45.9 6.1 46.4 6.1 47.4 6.1 48.3 5.35 48.9 4.6 49.45 3.5 49.45 0.9 49.45 -0.7 46.8 -2.0 44.7 -2.2 42.05 L-2.2 40.95 -7.05 40.75 Q-17.9 40.1 -27.45 37.3 -27.4 40.2 -26.65 41.5 -25.95 42.75 -25.95 43.05 -25.95 43.8 -26.55 44.1 L-27.75 44.3 Q-30.95 44.3 -32.35 41.2 -32.85 40.15 -32.45 35.7 L-34.3 34.95 -38.15 32.6 Q-41.25 30.35 -43.45 27.45 -47.75 21.8 -48.5 13.8 L-49.3 13.25 Q-50.7 12.1 -50.7 10.95 L-50.7 10.7 Q-50.55 9.3 -49.1 8.5 L-48.25 8.1 Q-47.95 3.65 -46.9 -0.4 L-46.7 -1.15 -45.85 -2.95 Q-56.0 -6.65 -59.1 -14.7 -51.1 -11.7 -43.45 -12.15 L-38.9 -12.75 Q-41.25 -13.5 -43.45 -14.55 -58.8 -21.9 -66.7 -43.2 L-57.15 -37.15 Q-51.8 -33.95 -46.9 -33.0 L-43.45 -32.45 -35.4 -31.2 Q-29.1 -30.15 -22.45 -27.45 L-21.75 -27.2 -22.45 -29.8 -22.55 -30.15 -22.75 -31.2 -23.4 -35.45 -23.35 -36.5 -23.2 -38.25 -22.45 -41.85 -21.95 -43.35 -21.5 -44.3 Q-19.1 -49.5 -14.55 -49.5 -11.55 -49.5 -9.5 -47.85 -7.25 -46.05 -7.25 -43.3 -7.25 -41.45 -8.4 -40.4 -9.1 -39.75 -10.9 -39.05 -12.75 -38.4 -13.35 -37.95 L-13.65 -37.65 Q-14.5 -36.9 -14.5 -35.6 L-14.5 -35.0 -14.45 -33.7 -14.05 -29.2 -13.65 -27.75 -13.65 -27.5 -13.05 -25.55 -9.85 -26.0 Q6.1 -27.6 18.05 -25.3 L18.4 -27.1 18.85 -29.2 19.8 -32.6 20.1 -33.65 20.4 -34.6 21.8 -38.4 22.75 -40.55 Q24.2 -43.45 25.8 -45.35 29.1 -49.15 33.15 -49.15 35.75 -49.15 37.6 -47.3 39.45 -45.4 39.45 -42.85 39.45 -40.25 37.7 -39.25 36.6 -38.55 33.9 -38.3 L29.9 -37.65 29.5 -37.45 Q28.35 -36.8 27.95 -35.55 L27.8 -34.7 27.7 -34.15 27.15 -30.2 26.85 -28.05 Q30.8 -29.8 36.5 -31.8 L45.8 -35.15 Q57.05 -39.45 66.7 -46.2 61.9 -21.05 46.65 -15.25 53.9 -14.6 61.85 -17.65 57.45 -8.3 49.1 -5.5" fill="#875f5f" fill-rule="evenodd" stroke="none"/>
  </g>
</svg>
