<?xml version="1.0" encoding="UTF-8" standalone="no"?>
<svg xmlns:xlink="http://www.w3.org/1999/xlink" height="62.9px" width="107.15px" xmlns="http://www.w3.org/2000/svg">
  <g transform="matrix(1.0, 0.0, 0.0, 1.0, 53.6, 31.45)">
    <path d="M-5.75 -27.8 Q15.5 -34.15 38.95 -29.45 L42.45 -28.55 47.25 -27.05 Q53.65 -24.7 53.3 -22.55 L53.2 -17.25 Q53.25 -13.35 53.55 -9.55 L49.7 -7.2 Q47.75 -5.95 46.25 -5.95 44.8 -5.95 40.75 -7.6 L36.0 -9.3 Q34.8 -9.3 33.4 -8.3 L30.75 -6.15 Q27.1 -3.05 24.35 -3.05 21.4 -3.05 18.45 -5.5 16.9 -6.85 16.2 -7.2 14.9 -8.0 13.45 -8.0 11.4 -8.0 9.85 -6.35 L7.35 -2.7 Q5.8 -0.2 4.5 0.95 2.55 2.55 -0.3 2.55 -4.45 2.55 -6.8 0.45 -8.55 -1.15 -9.6 -4.25 L-11.1 -8.95 Q-12.0 -11.05 -13.7 -11.05 L-17.2 -10.15 -16.8 -16.15 -16.7 -21.65 -16.7 -21.95 Q-16.5 -23.5 -13.3 -25.15 L-10.25 -26.3 -5.75 -27.8 M-34.95 29.3 Q-37.7 27.8 -39.4 25.5 -41.65 22.45 -43.3 16.0 -45.35 7.9 -46.35 5.55 -48.8 -0.05 -53.6 -2.85 L-53.6 -3.05 -51.85 -3.05 Q-47.15 -1.8 -43.75 1.85 -40.35 5.45 -39.05 10.8 L-37.4 16.15 -35.45 20.85 Q-34.55 22.6 -32.1 24.3 L-27.1 27.8 -28.9 31.45 Q-32.4 30.7 -34.95 29.3" fill="#c76b43" fill-rule="evenodd" stroke="none"/>
  </g>
</svg>
