<?xml version="1.0" encoding="UTF-8" standalone="no"?>
<svg xmlns:xlink="http://www.w3.org/1999/xlink" height="105.9px" width="144.15px" xmlns="http://www.w3.org/2000/svg">
  <g transform="matrix(1.0, 0.0, 0.0, 1.0, 72.1, 52.95)">
    <path d="M29.75 -32.3 Q30.3 -37.05 32.7 -39.0 34.6 -40.55 37.0 -40.55 39.05 -40.55 40.9 -38.6 42.8 -36.6 42.8 -34.3 42.8 -31.9 41.05 -29.9 39.2 -27.8 35.8 -27.8 L35.7 -22.5 Q43.1 -22.3 47.75 -25.65 52.9 -29.3 52.9 -35.2 52.9 -41.3 48.2 -46.6 43.55 -51.95 38.2 -51.95 33.25 -51.95 28.8 -47.75 24.2 -43.4 24.2 -37.9 24.2 -37.0 24.95 -33.8 L29.75 -32.3 Q36.15 -29.95 35.8 -27.8 35.4 -25.95 30.1 -24.3 17.7 -20.85 5.25 -20.45 -14.55 -18.8 -30.15 -23.7 -34.0 -25.2 -34.2 -26.9 L-34.3 -21.4 -34.7 -15.4 Q-35.95 -1.7 -40.0 10.75 L-36.4 11.95 M-34.3 -21.4 Q-40.4 -21.1 -45.8 -24.5 -51.7 -28.3 -51.7 -33.1 -51.7 -39.8 -47.85 -45.35 -43.6 -51.45 -37.5 -51.45 -31.65 -51.45 -27.1 -47.45 -22.5 -43.3 -22.5 -37.8 L-22.55 -36.95 -23.25 -33.05 Q-2.0 -39.4 21.45 -34.7 L24.95 -33.8 M36.7 10.35 L40.95 9.0 Q37.05 -2.25 36.05 -14.8 35.75 -18.6 35.7 -22.5 M-52.45 24.05 Q-78.0 35.75 -52.45 45.45 -23.25 54.9 29.65 50.6 45.25 50.25 63.95 42.55 76.6 36.6 66.7 28.75 56.4 22.9 46.75 22.1 49.45 27.0 52.75 31.7 -2.45 51.2 -49.6 31.95 L-46.4 26.2 Q-49.9 25.45 -52.45 24.05 -55.2 22.55 -56.9 20.25 -59.15 17.2 -60.8 10.75 -62.85 2.65 -63.85 0.3 -66.3 -5.3 -71.1 -8.1 L-71.1 -8.3 -69.35 -8.3 Q-64.65 -7.05 -61.25 -3.4 -57.85 0.2 -56.55 5.55 L-54.9 10.9 Q-53.9 13.75 -52.95 15.6 -52.05 17.35 -49.6 19.05 L-44.6 22.55 -41.4 14.7 -48.45 14.7 M50.2 6.15 L40.95 9.0 42.6 13.4 48.9 13.4 M42.6 13.4 Q44.4 17.85 46.75 22.1 M-5.3 13.7 Q-3.7 15.3 -1.8 15.05 -0.5 14.85 0.9 13.7 2.25 14.8 3.7 14.85 5.4 14.9 7.3 13.55 M-1.8 15.05 L-1.8 17.8 Q-1.8 19.55 -0.8 20.75 0.1 21.85 1.45 21.85 2.95 21.85 3.8 20.1 4.45 18.75 4.45 17.3 L4.3 16.5 3.7 14.85 M42.6 13.4 L37.7 13.4 M-34.2 -26.9 Q-38.6 -28.25 -39.9 -29.85 -41.1 -31.3 -41.1 -34.2 -41.1 -36.9 -39.65 -38.45 -38.1 -40.05 -35.2 -40.05 -32.25 -40.05 -30.35 -37.7 -29.15 -36.15 -27.75 -31.55 L-23.25 -33.05 M-34.2 -26.9 L-34.2 -27.2 Q-34.0 -28.75 -30.8 -30.4 L-27.75 -31.55 M-44.6 22.55 L-46.4 26.2 M-50.7 7.1 L-40.0 10.75 -41.4 14.7 -37.05 14.7" fill="none" stroke="#412139" stroke-linecap="round" stroke-linejoin="round" stroke-width="2.0"/>
  </g>
</svg>
