<?xml version="1.0" encoding="UTF-8" standalone="no"?>
<svg xmlns:xlink="http://www.w3.org/1999/xlink" height="14.75px" width="34.8px" xmlns="http://www.w3.org/2000/svg">
  <g transform="matrix(1.0, 0.0, 0.0, 1.0, 17.4, 7.4)">
    <path d="M12.4 -2.35 Q14.25 0.2 17.3 -0.25 L17.4 0.55 Q17.4 3.05 15.75 2.75 L15.4 2.6 15.3 2.55 15.15 2.55 14.45 2.2 Q13.35 1.6 12.4 0.55 11.5 -0.45 11.5 -1.05 11.5 -1.6 12.1 -2.1 L12.4 -2.35 M-12.9 7.35 Q-14.85 7.3 -16.2 4.95 -17.4 2.85 -17.4 0.4 -17.4 -2.45 -16.3 -4.9 -15.5 -6.65 -14.3 -7.4 -14.2 0.5 -8.35 -1.75 L-8.35 -0.9 Q-8.35 1.75 -9.55 4.35 -10.9 7.35 -12.75 7.35 L-12.9 7.35" fill="#2081cc" fill-rule="evenodd" stroke="none"/>
  </g>
</svg>
