<?xml version="1.0" encoding="UTF-8" standalone="no"?>
<svg xmlns:xlink="http://www.w3.org/1999/xlink" height="10.5px" width="36.4px" xmlns="http://www.w3.org/2000/svg">
  <g transform="matrix(1.0, 0.0, 0.0, 1.0, 18.2, 5.25)">
    <path d="M-18.2 -0.2 Q-18.2 -2.3 -17.55 -3.8 -16.85 -5.25 -15.9 -5.25 -14.95 -5.25 -14.25 -3.8 -13.55 -2.3 -13.55 -0.2 -13.55 1.9 -14.25 3.35 -14.95 4.75 -15.9 4.75 -16.85 4.75 -17.55 3.35 -18.2 1.9 -18.2 -0.2 M14.2 0.75 Q14.2 -1.05 14.8 -2.35 15.35 -3.65 16.2 -3.65 17.05 -3.65 17.6 -2.35 18.2 -1.05 18.2 0.75 18.2 2.65 17.6 3.95 17.05 5.25 16.2 5.25 15.35 5.25 14.8 3.95 14.2 2.65 14.2 0.75" fill="#000000" fill-rule="evenodd" stroke="none"/>
  </g>
</svg>
