<?xml version="1.0" encoding="UTF-8" standalone="no"?>
<svg xmlns:xlink="http://www.w3.org/1999/xlink" height="193.4px" width="244.7px" xmlns="http://www.w3.org/2000/svg">
  <g transform="matrix(1.0, 0.0, 0.0, 1.0, 148.9, 187.5)">
    <path d="M94.0 -163.7 Q87.35 -168.95 78.25 -169.75 L79.9 -174.35 Q81.1 -177.75 82.05 -179.45 83.2 -181.5 85.7 -183.1 88.25 -184.65 90.4 -184.65 93.35 -184.65 94.75 -181.4 95.8 -178.95 95.8 -175.6 L95.5 -170.4 Q95.15 -167.7 94.0 -163.7 M84.75 -178.35 Q85.05 -178.35 85.25 -178.6 L85.45 -178.95 85.25 -179.4 84.75 -179.55 84.3 -179.4 84.05 -178.95 84.3 -178.6 Q84.45 -178.35 84.75 -178.35 M90.7 -179.1 Q90.7 -178.75 90.95 -178.5 91.2 -178.25 91.55 -178.25 L92.15 -178.5 92.4 -179.1 92.15 -179.7 91.55 -179.95 90.95 -179.7 90.7 -179.1 M87.6 -175.25 L87.8 -174.85 Q88.0 -174.6 88.25 -174.6 88.55 -174.6 88.75 -174.85 L88.9 -175.25 88.75 -175.75 88.25 -175.95 87.8 -175.75 87.6 -175.25 M93.0 -172.1 L93.5 -171.9 Q93.8 -171.9 94.0 -172.1 L94.25 -172.6 94.0 -173.15 93.5 -173.35 93.0 -173.15 92.8 -172.6 93.0 -172.1 M89.55 -168.55 L89.75 -168.05 Q89.95 -167.85 90.25 -167.85 90.55 -167.85 90.8 -168.05 L90.95 -168.55 90.8 -169.05 90.25 -169.25 89.75 -169.05 89.55 -168.55 M80.55 -172.45 Q80.55 -172.2 80.7 -172.0 80.9 -171.8 81.15 -171.8 L81.65 -172.0 81.8 -172.45 81.65 -172.9 81.15 -173.1 80.7 -172.9 Q80.55 -172.75 80.55 -172.45 M84.2 -169.7 L84.4 -169.3 Q84.55 -169.1 84.8 -169.1 L85.25 -169.3 85.4 -169.7 85.25 -170.15 84.8 -170.3 84.4 -170.15 84.2 -169.7" fill="#fbb0f8" fill-rule="evenodd" stroke="none"/>
    <path d="M84.2 -169.7 L84.4 -170.15 84.8 -170.3 85.25 -170.15 85.4 -169.7 85.25 -169.3 84.8 -169.1 Q84.55 -169.1 84.4 -169.3 L84.2 -169.7 M80.55 -172.45 Q80.55 -172.75 80.7 -172.9 L81.15 -173.1 81.65 -172.9 81.8 -172.45 81.65 -172.0 81.15 -171.8 Q80.9 -171.8 80.7 -172.0 80.55 -172.2 80.55 -172.45 M89.55 -168.55 L89.75 -169.05 90.25 -169.25 90.8 -169.05 90.95 -168.55 90.8 -168.05 Q90.55 -167.85 90.25 -167.85 89.95 -167.85 89.75 -168.05 L89.55 -168.55 M93.0 -172.1 L92.8 -172.6 93.0 -173.15 93.5 -173.35 94.0 -173.15 94.25 -172.6 94.0 -172.1 Q93.8 -171.9 93.5 -171.9 L93.0 -172.1 M87.6 -175.25 L87.8 -175.75 88.25 -175.95 88.75 -175.75 88.9 -175.25 88.75 -174.85 Q88.55 -174.6 88.25 -174.6 88.0 -174.6 87.8 -174.85 L87.6 -175.25 M90.7 -179.1 L90.95 -179.7 91.55 -179.95 92.15 -179.7 92.4 -179.1 92.15 -178.5 91.55 -178.25 Q91.2 -178.25 90.95 -178.5 90.7 -178.75 90.7 -179.1 M84.75 -178.35 Q84.45 -178.35 84.3 -178.6 L84.05 -178.95 84.3 -179.4 84.75 -179.55 85.25 -179.4 85.45 -178.95 85.25 -178.6 Q85.05 -178.35 84.75 -178.35 M72.05 -176.45 L72.3 -177.0 72.85 -177.2 73.4 -177.0 73.65 -176.45 73.4 -175.95 Q73.15 -175.7 72.85 -175.7 L72.3 -175.95 Q72.05 -176.15 72.05 -176.45 M64.3 -177.85 L63.75 -177.65 Q63.45 -177.65 63.25 -177.85 L63.05 -178.3 63.25 -178.85 63.75 -179.05 64.3 -178.85 64.5 -178.3 64.3 -177.85 M62.1 -183.8 L62.3 -184.25 62.7 -184.4 63.15 -184.25 63.3 -183.8 63.15 -183.4 Q62.95 -183.2 62.7 -183.2 62.45 -183.2 62.3 -183.4 L62.1 -183.8 M67.9 -182.7 L68.65 -182.95 69.4 -182.7 69.75 -181.9 Q69.75 -181.45 69.4 -181.15 69.1 -180.85 68.65 -180.85 68.25 -180.85 67.9 -181.15 67.55 -181.45 67.55 -181.9 67.55 -182.35 67.9 -182.7 M57.05 -167.85 L57.2 -168.3 57.65 -168.45 58.05 -168.3 58.25 -167.85 58.05 -167.45 Q57.9 -167.3 57.65 -167.3 L57.2 -167.45 Q57.05 -167.6 57.05 -167.85 M55.65 -176.65 L55.95 -177.2 56.5 -177.45 57.05 -177.2 57.25 -176.65 57.05 -176.15 56.5 -175.9 Q56.2 -175.9 55.95 -176.15 55.65 -176.35 55.65 -176.65 M50.75 -165.65 L50.95 -166.1 51.4 -166.3 Q51.7 -166.3 51.85 -166.1 L52.05 -165.65 51.85 -165.2 Q51.7 -165.0 51.4 -165.0 51.1 -165.0 50.95 -165.2 L50.75 -165.65 M41.7 -154.55 L42.25 -154.3 42.5 -153.75 42.25 -153.15 41.7 -152.95 41.1 -153.15 Q40.85 -153.4 40.85 -153.75 L41.1 -154.3 Q41.35 -154.55 41.7 -154.55 M45.25 -152.05 L45.45 -152.45 45.85 -152.65 46.3 -152.45 46.5 -152.05 46.3 -151.6 45.85 -151.45 Q45.65 -151.45 45.45 -151.6 L45.25 -152.05 M43.2 -159.15 L43.75 -159.35 44.3 -159.15 44.5 -158.6 44.3 -158.0 43.75 -157.75 Q43.4 -157.75 43.2 -158.0 L43.0 -158.6 43.2 -159.15 M47.95 -161.2 L48.15 -161.7 48.65 -161.85 49.1 -161.7 49.25 -161.2 49.1 -160.75 Q48.9 -160.55 48.65 -160.55 48.35 -160.55 48.15 -160.75 47.95 -160.9 47.95 -161.2 M41.35 -165.25 L41.9 -165.4 42.5 -165.25 42.7 -164.65 Q42.7 -164.3 42.5 -164.1 42.25 -163.8 41.9 -163.8 41.55 -163.8 41.35 -164.1 41.1 -164.3 41.1 -164.65 L41.35 -165.25 M44.9 -167.85 Q44.6 -168.05 44.6 -168.45 L44.9 -169.05 45.45 -169.3 46.1 -169.05 46.35 -168.45 46.1 -167.85 Q45.85 -167.55 45.45 -167.55 L44.9 -167.85 M60.75 -171.45 Q60.45 -171.7 60.45 -172.05 60.45 -172.45 60.75 -172.75 L61.4 -173.0 62.05 -172.75 62.3 -172.05 62.05 -171.45 61.4 -171.15 Q61.0 -171.15 60.75 -171.45 M70.05 -172.0 L70.6 -171.8 70.85 -171.25 70.6 -170.75 70.05 -170.5 Q69.75 -170.5 69.55 -170.75 69.3 -170.95 69.3 -171.25 L69.55 -171.8 70.05 -172.0 M38.2 -160.0 L38.7 -159.8 38.9 -159.3 38.7 -158.8 38.2 -158.6 Q37.9 -158.6 37.65 -158.8 37.4 -159.0 37.4 -159.3 L37.65 -159.8 38.2 -160.0 M38.45 -167.5 L38.95 -167.3 39.1 -166.8 38.95 -166.3 38.45 -166.1 Q38.1 -166.1 37.9 -166.3 L37.7 -166.8 37.9 -167.3 38.45 -167.5 M30.95 -134.5 Q30.75 -134.3 30.55 -134.3 30.3 -134.3 30.15 -134.5 L29.95 -134.85 30.15 -135.25 30.55 -135.4 30.95 -135.25 31.1 -134.85 30.95 -134.5 M27.05 -140.05 L27.25 -140.55 27.75 -140.8 28.3 -140.55 28.5 -140.05 Q28.5 -139.75 28.3 -139.6 L27.75 -139.4 Q27.4 -139.4 27.25 -139.6 L27.05 -140.05 M26.0 -146.4 Q26.0 -146.75 26.25 -146.95 L26.7 -147.15 27.2 -146.95 27.4 -146.4 27.2 -145.95 Q27.0 -145.7 26.7 -145.7 26.4 -145.7 26.25 -145.95 26.0 -146.1 26.0 -146.4 M39.45 -140.35 L40.0 -140.15 40.25 -139.6 40.0 -139.1 39.45 -138.85 Q39.1 -138.85 38.9 -139.1 L38.7 -139.6 38.9 -140.15 39.45 -140.35 M33.85 -140.35 L34.05 -140.85 34.45 -140.95 34.9 -140.85 35.05 -140.35 34.9 -139.95 34.45 -139.8 34.05 -139.95 33.85 -140.35 M30.05 -144.0 L30.5 -143.9 30.65 -143.45 30.5 -143.15 30.05 -142.9 29.7 -143.15 29.5 -143.45 29.7 -143.9 30.05 -144.0 M31.6 -147.7 L31.85 -148.25 32.45 -148.55 33.1 -148.25 33.35 -147.7 33.1 -147.05 32.45 -146.8 Q32.1 -146.8 31.85 -147.05 31.6 -147.3 31.6 -147.7 M38.5 -145.8 L38.3 -145.45 37.9 -145.25 37.55 -145.45 37.35 -145.8 37.55 -146.25 37.9 -146.4 38.3 -146.25 38.5 -145.8 M25.1 -123.7 Q24.85 -123.9 24.85 -124.2 L25.1 -124.75 25.65 -124.95 26.25 -124.75 26.4 -124.2 26.25 -123.7 Q25.95 -123.4 25.65 -123.4 25.35 -123.4 25.1 -123.7 M22.7 -129.9 L23.2 -129.7 23.4 -129.2 23.2 -128.65 22.7 -128.45 Q22.4 -128.45 22.25 -128.65 21.95 -128.85 21.95 -129.2 21.95 -129.5 22.25 -129.7 22.4 -129.9 22.7 -129.9 M27.25 -130.95 Q27.25 -131.3 27.4 -131.5 L27.8 -131.75 28.25 -131.5 28.35 -130.95 28.25 -130.45 27.8 -130.2 Q27.6 -130.2 27.4 -130.45 27.25 -130.65 27.25 -130.95 M36.3 -134.25 L36.45 -134.65 36.8 -134.75 37.15 -134.65 37.35 -134.25 Q37.35 -134.05 37.15 -133.95 L36.8 -133.75 Q36.6 -133.75 36.45 -133.95 36.3 -134.05 36.3 -134.25 M32.1 -126.4 Q32.25 -126.6 32.6 -126.6 L33.1 -126.4 33.35 -125.9 33.1 -125.4 Q32.9 -125.1 32.6 -125.1 L32.1 -125.4 Q31.85 -125.6 31.85 -125.9 L32.1 -126.4 M1.3 -125.75 L1.1 -126.2 1.3 -126.6 1.7 -126.75 2.15 -126.6 2.3 -126.2 2.15 -125.75 1.7 -125.6 Q1.45 -125.6 1.3 -125.75 M7.45 -123.2 Q7.45 -123.55 7.7 -123.8 L8.35 -124.05 8.95 -123.8 9.2 -123.2 8.95 -122.55 8.35 -122.3 7.7 -122.55 Q7.45 -122.8 7.45 -123.2 M20.0 -125.85 L19.55 -125.65 Q19.25 -125.65 19.05 -125.85 18.9 -126.0 18.9 -126.3 L19.05 -126.8 19.55 -126.95 20.0 -126.8 20.2 -126.3 20.0 -125.85 M19.2 -132.25 L19.0 -132.75 19.2 -133.25 Q19.35 -133.45 19.65 -133.45 L20.2 -133.25 20.4 -132.75 20.2 -132.25 19.65 -132.05 Q19.35 -132.05 19.2 -132.25 M7.85 -119.05 L8.1 -119.6 Q8.3 -119.8 8.6 -119.8 L9.15 -119.6 9.4 -119.05 9.15 -118.5 Q8.9 -118.25 8.6 -118.25 8.3 -118.25 8.1 -118.5 7.85 -118.7 7.85 -119.05 M17.55 -116.9 L17.75 -117.3 18.1 -117.4 18.45 -117.3 18.55 -116.9 18.45 -116.55 18.1 -116.4 Q17.85 -116.4 17.75 -116.55 L17.55 -116.9 M14.0 -113.45 L14.15 -113.8 14.5 -113.95 14.9 -113.8 15.0 -113.45 14.9 -113.1 14.5 -112.95 14.15 -113.1 Q14.0 -113.2 14.0 -113.45 M10.1 -115.0 L10.55 -114.85 10.7 -114.4 10.55 -114.0 10.1 -113.8 Q9.85 -113.8 9.7 -114.0 L9.5 -114.4 9.7 -114.85 10.1 -115.0 M13.2 -118.9 L13.4 -118.45 13.2 -117.95 12.75 -117.8 Q12.5 -117.8 12.3 -117.95 L12.1 -118.45 12.3 -118.9 12.75 -119.1 Q13.05 -119.1 13.2 -118.9 M13.35 -123.75 L13.85 -123.55 14.05 -123.05 13.85 -122.55 Q13.65 -122.3 13.35 -122.3 13.05 -122.3 12.85 -122.55 12.6 -122.75 12.6 -123.05 L12.85 -123.55 13.35 -123.75 M2.15 -114.8 L2.35 -115.25 2.8 -115.45 3.3 -115.25 3.45 -114.8 3.3 -114.35 Q3.05 -114.15 2.8 -114.15 2.5 -114.15 2.35 -114.35 2.15 -114.5 2.15 -114.8 M0.6 -120.25 L0.8 -119.7 0.6 -119.25 0.1 -119.05 Q-0.2 -119.05 -0.4 -119.25 L-0.65 -119.7 -0.4 -120.25 0.1 -120.45 0.6 -120.25 M3.75 -121.95 L3.9 -121.5 3.75 -121.1 Q3.6 -120.95 3.35 -120.95 3.05 -120.95 2.9 -121.1 2.75 -121.3 2.75 -121.5 L2.9 -121.95 3.35 -122.1 3.75 -121.95 M20.2 -122.15 Q20.2 -122.45 20.5 -122.7 L21.05 -122.9 21.6 -122.7 21.8 -122.15 21.6 -121.65 Q21.35 -121.35 21.05 -121.35 20.75 -121.35 20.5 -121.65 20.2 -121.85 20.2 -122.15 M25.65 -119.6 L25.9 -119.1 25.65 -118.55 25.1 -118.35 Q24.8 -118.35 24.6 -118.55 L24.4 -119.1 24.6 -119.6 25.1 -119.85 25.65 -119.6 M28.9 -121.35 L29.05 -121.85 29.6 -122.05 30.1 -121.85 30.3 -121.35 30.1 -120.8 29.6 -120.6 29.05 -120.8 Q28.9 -121.05 28.9 -121.35 M16.7 -15.15 Q16.45 -15.35 16.45 -15.75 L16.7 -16.4 17.3 -16.65 17.95 -16.4 18.15 -15.75 17.95 -15.15 Q17.65 -14.9 17.3 -14.9 16.95 -14.9 16.7 -15.15 M9.45 -15.6 L9.35 -16.0 9.45 -16.4 9.85 -16.5 10.2 -16.4 10.4 -16.0 10.2 -15.6 9.85 -15.5 9.45 -15.6 M10.05 -12.45 L10.6 -12.7 11.15 -12.45 11.35 -11.9 Q11.35 -11.6 11.15 -11.4 10.9 -11.15 10.6 -11.15 L10.05 -11.4 9.85 -11.9 10.05 -12.45 M11.25 -3.25 L11.5 -3.85 12.05 -4.05 12.65 -3.85 12.85 -3.25 12.65 -2.7 Q12.4 -2.45 12.05 -2.45 11.7 -2.45 11.5 -2.7 11.25 -2.9 11.25 -3.25 M16.95 -7.4 L17.1 -7.8 17.5 -7.95 17.9 -7.8 18.05 -7.4 17.9 -7.0 Q17.7 -6.85 17.5 -6.85 17.25 -6.85 17.1 -7.0 16.95 -7.15 16.95 -7.4 M15.1 -11.85 L15.3 -12.35 15.85 -12.55 16.35 -12.35 16.5 -11.85 16.35 -11.35 15.85 -11.15 Q15.5 -11.15 15.3 -11.35 L15.1 -11.85 M7.55 -1.85 Q7.35 -1.6 7.0 -1.6 6.7 -1.6 6.5 -1.85 6.25 -2.05 6.25 -2.35 L6.5 -2.9 7.0 -3.05 7.55 -2.9 7.7 -2.35 7.55 -1.85 M4.2 -1.85 L4.55 -1.8 4.7 -1.4 4.55 -1.05 4.2 -0.9 Q3.95 -0.9 3.85 -1.05 L3.65 -1.4 3.85 -1.8 4.2 -1.85 M3.65 -10.55 L4.2 -10.7 4.6 -10.55 4.75 -10.1 4.6 -9.6 Q4.45 -9.45 4.2 -9.45 L3.65 -9.6 Q3.5 -9.8 3.5 -10.1 L3.65 -10.55 M6.4 -7.3 L6.55 -7.7 6.95 -7.85 7.35 -7.7 7.5 -7.3 7.35 -6.9 Q7.15 -6.7 6.95 -6.7 6.75 -6.7 6.55 -6.9 6.4 -7.05 6.4 -7.3 M36.7 -14.45 L36.85 -15.0 37.35 -15.15 37.8 -15.0 37.95 -14.45 37.8 -14.05 37.35 -13.85 Q37.05 -13.85 36.85 -14.05 L36.7 -14.45 M19.85 0.1 L20.0 -0.35 20.4 -0.5 20.8 -0.35 20.95 0.1 20.8 0.45 20.4 0.65 20.0 0.45 19.85 0.1 M22.85 -5.65 Q23.05 -5.85 23.4 -5.85 L23.95 -5.65 24.1 -5.15 23.95 -4.65 23.4 -4.45 Q23.05 -4.45 22.85 -4.65 22.65 -4.8 22.65 -5.15 L22.85 -5.65 M21.25 -10.7 L21.05 -11.2 21.25 -11.8 21.7 -11.95 22.25 -11.8 22.45 -11.2 22.25 -10.7 21.7 -10.5 Q21.4 -10.5 21.25 -10.7 M35.3 0.45 Q35.3 0.2 35.45 0.05 L35.95 -0.15 36.4 0.05 36.6 0.45 36.4 1.0 35.95 1.15 35.45 1.0 35.3 0.45 M52.25 -2.45 Q52.65 -2.45 52.9 -2.15 L53.2 -1.55 52.9 -0.85 Q52.65 -0.6 52.25 -0.6 51.85 -0.6 51.6 -0.85 51.3 -1.15 51.3 -1.55 L51.6 -2.15 Q51.85 -2.45 52.25 -2.45 M52.4 -6.5 L52.2 -6.95 52.4 -7.4 Q52.55 -7.6 52.8 -7.6 L53.35 -7.4 53.5 -6.95 53.35 -6.5 52.8 -6.3 Q52.55 -6.3 52.4 -6.5 M47.35 -3.1 Q47.15 -3.3 47.15 -3.6 L47.35 -4.05 47.75 -4.25 48.25 -4.05 48.45 -3.6 48.25 -3.1 47.75 -2.95 47.35 -3.1 M40.3 -2.15 L40.55 -2.6 40.85 -2.75 41.3 -2.6 41.4 -2.15 41.3 -1.85 40.85 -1.6 40.55 -1.85 40.3 -2.15 M45.1 -0.3 L45.3 -0.7 Q45.45 -0.9 45.65 -0.9 L46.1 -0.7 46.25 -0.3 46.1 0.1 Q45.95 0.3 45.65 0.3 L45.3 0.1 45.1 -0.3 M41.7 -8.15 L41.9 -8.55 42.25 -8.7 42.65 -8.55 42.8 -8.15 42.65 -7.75 42.25 -7.6 41.9 -7.75 41.7 -8.15 M48.75 -9.75 L48.5 -10.3 48.75 -10.85 49.25 -11.05 Q49.6 -11.05 49.8 -10.85 L50.05 -10.3 49.8 -9.75 Q49.6 -9.5 49.25 -9.5 48.95 -9.5 48.75 -9.75 M47.75 -15.65 L47.9 -15.95 48.25 -16.1 48.55 -15.95 48.65 -15.65 48.55 -15.35 48.25 -15.25 Q48.05 -15.25 47.9 -15.35 L47.75 -15.65 M44.75 -14.0 L45.2 -13.85 45.4 -13.3 45.2 -12.9 44.75 -12.7 Q44.5 -12.7 44.3 -12.9 L44.1 -13.3 44.3 -13.85 44.75 -14.0 M32.65 -2.1 L32.9 -1.6 32.65 -1.0 32.15 -0.8 Q31.85 -0.8 31.65 -1.0 31.4 -1.25 31.4 -1.6 L31.65 -2.1 32.15 -2.3 32.65 -2.1 M32.45 -9.5 L32.85 -9.35 33.0 -8.95 32.85 -8.55 Q32.65 -8.35 32.45 -8.35 32.2 -8.35 32.05 -8.55 L31.85 -8.95 32.05 -9.35 32.45 -9.5 M35.2 -7.8 Q35.4 -8.0 35.7 -8.0 L36.25 -7.8 36.45 -7.25 36.25 -6.7 35.7 -6.5 Q35.4 -6.5 35.2 -6.7 L35.0 -7.25 35.2 -7.8 M9.95 2.0 L10.5 2.15 10.75 2.75 10.5 3.3 9.95 3.55 9.4 3.3 9.15 2.75 9.4 2.15 9.95 2.0 M15.1 1.05 L15.3 0.7 15.65 0.6 16.0 0.7 16.1 1.05 16.0 1.4 15.65 1.6 Q15.4 1.6 15.3 1.4 L15.1 1.05 M-42.1 -126.0 L-41.9 -126.5 -41.45 -126.65 -40.95 -126.5 -40.8 -126.0 Q-40.8 -125.7 -40.95 -125.55 L-41.45 -125.4 Q-41.75 -125.4 -41.9 -125.55 L-42.1 -126.0 M-41.45 -129.05 L-41.25 -129.5 -40.8 -129.7 -40.3 -129.5 -40.1 -129.05 -40.3 -128.55 -40.8 -128.35 -41.25 -128.55 -41.45 -129.05 M-45.8 -125.2 L-45.95 -125.65 -45.8 -126.0 -45.4 -126.2 Q-45.15 -126.2 -44.95 -126.0 L-44.8 -125.65 Q-44.8 -125.4 -44.95 -125.2 -45.15 -125.05 -45.4 -125.05 -45.6 -125.05 -45.8 -125.2 M-45.25 -130.55 L-45.05 -130.9 -44.7 -131.1 Q-44.45 -131.1 -44.3 -130.9 L-44.1 -130.55 -44.3 -130.15 Q-44.45 -130.0 -44.7 -130.0 -44.95 -130.0 -45.05 -130.15 L-45.25 -130.55 M-60.85 -113.7 Q-61.05 -113.5 -61.35 -113.5 L-61.85 -113.7 -62.1 -114.2 -61.85 -114.7 -61.35 -114.9 -60.85 -114.7 -60.65 -114.2 Q-60.65 -113.9 -60.85 -113.7 M-63.55 -119.85 L-63.35 -120.3 -62.95 -120.5 Q-62.65 -120.5 -62.4 -120.3 -62.25 -120.15 -62.25 -119.85 -62.25 -119.6 -62.4 -119.4 -62.65 -119.2 -62.95 -119.2 -63.2 -119.2 -63.35 -119.4 L-63.55 -119.85 M-67.85 -100.45 L-67.6 -101.1 -67.0 -101.3 Q-66.65 -101.3 -66.4 -101.1 L-66.15 -100.45 Q-66.15 -100.1 -66.4 -99.85 L-67.0 -99.6 Q-67.35 -99.6 -67.6 -99.85 L-67.85 -100.45 M-70.9 -105.8 L-70.7 -106.25 -70.3 -106.4 -69.85 -106.25 -69.65 -105.8 -69.85 -105.4 Q-70.05 -105.15 -70.3 -105.15 -70.5 -105.15 -70.7 -105.4 L-70.9 -105.8 M-68.05 -109.7 L-67.85 -109.15 -68.05 -108.55 Q-68.3 -108.3 -68.65 -108.3 -69.0 -108.3 -69.2 -108.55 L-69.45 -109.15 -69.2 -109.7 -68.65 -109.95 -68.05 -109.7 M-64.0 -106.25 Q-63.75 -106.05 -63.75 -105.65 L-64.0 -105.1 Q-64.25 -104.85 -64.6 -104.85 -64.95 -104.85 -65.2 -105.1 L-65.4 -105.65 -65.2 -106.25 -64.6 -106.55 Q-64.25 -106.55 -64.0 -106.25 M-72.8 -102.45 Q-72.8 -102.2 -72.95 -102.05 -73.1 -101.9 -73.35 -101.9 L-73.7 -102.05 -73.9 -102.45 -73.7 -102.8 -73.35 -103.0 -72.95 -102.8 -72.8 -102.45 M-77.65 -107.1 L-77.55 -107.4 -77.25 -107.55 -76.9 -107.4 -76.8 -107.1 -76.9 -106.8 -77.25 -106.7 -77.55 -106.8 -77.65 -107.1 M-74.85 -105.45 L-74.7 -105.85 -74.4 -105.95 -74.0 -105.85 -73.85 -105.45 -74.0 -105.1 -74.4 -105.0 -74.7 -105.1 -74.85 -105.45 M-74.4 -111.65 L-74.2 -112.05 -73.75 -112.25 -73.3 -112.05 -73.1 -111.65 -73.3 -111.15 Q-73.5 -111.0 -73.75 -111.0 L-74.2 -111.15 -74.4 -111.65 M-46.95 -118.2 L-46.7 -118.75 -46.25 -118.9 -45.75 -118.75 -45.55 -118.2 -45.75 -117.7 Q-45.95 -117.5 -46.25 -117.5 -46.55 -117.5 -46.7 -117.7 L-46.95 -118.2 M-48.1 -121.7 L-47.85 -122.3 -47.3 -122.55 -46.7 -122.3 -46.4 -121.7 Q-46.4 -121.35 -46.7 -121.1 -46.9 -120.8 -47.3 -120.8 -47.65 -120.8 -47.85 -121.1 L-48.1 -121.7 M-43.3 -119.45 Q-43.15 -119.65 -42.8 -119.65 L-42.3 -119.45 -42.1 -118.95 -42.3 -118.45 -42.8 -118.25 Q-43.15 -118.25 -43.3 -118.45 L-43.5 -118.95 -43.3 -119.45 M-42.6 -122.6 L-42.4 -123.05 -42.0 -123.2 -41.6 -123.05 -41.45 -122.6 Q-41.45 -122.35 -41.6 -122.25 L-42.0 -122.0 Q-42.3 -122.0 -42.4 -122.25 -42.6 -122.35 -42.6 -122.6 M-58.4 -111.1 L-58.05 -111.25 -57.65 -111.1 -57.5 -110.7 -57.65 -110.3 -58.05 -110.15 Q-58.3 -110.15 -58.4 -110.3 L-58.6 -110.7 -58.4 -111.1 M-56.25 -114.9 L-56.45 -115.4 -56.25 -115.95 -55.75 -116.1 -55.2 -115.95 -55.0 -115.4 -55.2 -114.9 -55.75 -114.7 -56.25 -114.9 M-57.7 -117.9 Q-57.7 -117.6 -57.85 -117.45 -58.05 -117.3 -58.3 -117.3 -58.6 -117.3 -58.7 -117.45 -58.9 -117.6 -58.9 -117.9 L-58.7 -118.3 -58.3 -118.45 -57.85 -118.3 -57.7 -117.9 M-57.95 -123.0 L-57.7 -122.4 Q-57.7 -122.05 -57.95 -121.85 -58.2 -121.6 -58.55 -121.6 -58.9 -121.6 -59.1 -121.85 L-59.35 -122.4 -59.1 -123.0 -58.55 -123.2 -57.95 -123.0 M-55.05 -120.55 L-54.55 -120.75 -54.05 -120.55 -53.85 -120.0 -54.05 -119.55 Q-54.25 -119.35 -54.55 -119.35 L-55.05 -119.55 -55.25 -120.0 -55.05 -120.55 M-50.15 -115.4 L-49.95 -114.85 -50.15 -114.35 -50.65 -114.15 Q-51.0 -114.15 -51.2 -114.35 L-51.4 -114.85 -51.2 -115.4 -50.65 -115.55 -50.15 -115.4 M-21.1 -124.6 L-20.85 -125.25 -20.25 -125.45 -19.6 -125.25 -19.35 -124.6 -19.6 -123.95 -20.25 -123.75 -20.85 -123.95 -21.1 -124.6 M-17.25 -129.3 L-17.0 -129.8 -16.5 -130.0 -16.0 -129.8 -15.8 -129.3 -16.0 -128.85 Q-16.2 -128.6 -16.5 -128.6 -16.8 -128.6 -17.0 -128.85 L-17.25 -129.3 M-4.1 -124.7 L-3.8 -125.35 -3.15 -125.65 -2.5 -125.35 Q-2.25 -125.1 -2.25 -124.7 -2.25 -124.3 -2.5 -124.0 -2.8 -123.75 -3.15 -123.75 -3.55 -123.75 -3.8 -124.0 L-4.1 -124.7 M-3.95 -128.5 L-3.5 -128.3 -3.3 -127.85 Q-3.3 -127.55 -3.5 -127.4 -3.65 -127.15 -3.95 -127.15 -4.25 -127.15 -4.4 -127.4 -4.6 -127.55 -4.6 -127.85 L-4.4 -128.3 -3.95 -128.5 M-36.35 -125.35 Q-36.55 -125.1 -36.8 -125.1 -37.1 -125.1 -37.3 -125.35 -37.5 -125.5 -37.5 -125.8 L-37.3 -126.25 -36.8 -126.45 Q-36.55 -126.45 -36.35 -126.25 L-36.15 -125.8 Q-36.15 -125.5 -36.35 -125.35 M-24.25 -128.45 L-23.8 -128.6 -23.4 -128.45 -23.25 -128.0 Q-23.25 -127.7 -23.4 -127.6 -23.55 -127.4 -23.8 -127.4 L-24.25 -127.6 -24.4 -128.0 -24.25 -128.45 M-26.95 -124.0 L-27.15 -124.5 -26.95 -124.95 -26.5 -125.1 -26.05 -124.95 -25.8 -124.5 -26.05 -124.0 Q-26.2 -123.85 -26.5 -123.85 L-26.95 -124.0 M-24.35 -131.3 L-24.1 -131.85 -23.55 -132.05 -23.0 -131.85 -22.8 -131.3 -23.0 -130.75 -23.55 -130.55 -24.1 -130.75 -24.35 -131.3 M-35.8 -121.55 L-35.55 -122.05 -35.05 -122.25 -34.5 -122.05 -34.35 -121.55 Q-34.35 -121.25 -34.5 -121.1 -34.75 -120.8 -35.05 -120.8 -35.35 -120.8 -35.55 -121.1 L-35.8 -121.55 M-8.45 -122.4 L-8.3 -122.8 -7.9 -123.0 -7.45 -122.8 -7.3 -122.4 Q-7.3 -122.15 -7.45 -121.95 -7.65 -121.8 -7.9 -121.8 -8.1 -121.8 -8.3 -121.95 L-8.45 -122.4 M-5.6 -117.95 L-5.4 -118.5 Q-5.2 -118.7 -4.85 -118.7 L-4.35 -118.5 -4.15 -117.95 -4.35 -117.5 Q-4.55 -117.3 -4.85 -117.3 -5.2 -117.3 -5.4 -117.5 L-5.6 -117.95 M-5.3 -121.1 L-5.1 -121.55 -4.7 -121.7 -4.25 -121.55 -4.1 -121.1 Q-4.1 -120.85 -4.25 -120.7 L-4.7 -120.5 -5.1 -120.7 -5.3 -121.1 M-17.4 -120.75 L-17.05 -120.8 -16.7 -120.75 -16.55 -120.35 -16.7 -120.0 -17.05 -119.85 Q-17.3 -119.85 -17.4 -120.0 L-17.55 -120.35 -17.4 -120.75 M-14.1 -122.25 L-14.35 -122.75 -14.1 -123.25 -13.6 -123.4 -13.1 -123.25 -12.95 -122.75 Q-12.95 -122.45 -13.1 -122.25 -13.3 -122.0 -13.6 -122.0 -13.9 -122.0 -14.1 -122.25 M-84.25 -100.0 L-84.45 -100.45 -84.25 -100.95 -83.85 -101.1 -83.3 -100.95 -83.15 -100.45 -83.3 -100.0 -83.85 -99.8 Q-84.1 -99.8 -84.25 -100.0 M-87.15 -95.35 Q-87.35 -95.55 -87.35 -95.85 L-87.15 -96.3 -86.7 -96.5 -86.2 -96.3 -86.05 -95.85 Q-86.05 -95.55 -86.2 -95.35 L-86.7 -95.2 -87.15 -95.35 M-83.1 -94.75 L-82.9 -95.3 -82.4 -95.5 -81.85 -95.3 -81.6 -94.75 -81.85 -94.2 -82.4 -94.0 Q-82.7 -94.0 -82.9 -94.2 L-83.1 -94.75 M-90.9 -87.0 L-90.75 -87.45 -90.25 -87.65 -89.8 -87.45 -89.6 -87.0 -89.8 -86.5 Q-90.0 -86.35 -90.25 -86.35 L-90.75 -86.5 -90.9 -87.0 M-83.85 -90.75 L-83.65 -90.2 -83.85 -89.65 Q-84.15 -89.45 -84.4 -89.45 L-85.0 -89.65 -85.15 -90.2 -85.0 -90.75 -84.4 -90.95 -83.85 -90.75 M-96.4 -93.9 L-95.9 -93.7 -95.75 -93.2 Q-95.75 -92.95 -95.9 -92.8 -96.1 -92.55 -96.4 -92.55 L-96.85 -92.8 -97.05 -93.2 -96.85 -93.7 -96.4 -93.9 M-99.85 -84.75 L-99.55 -84.6 -99.4 -84.3 -99.55 -84.0 Q-99.65 -83.85 -99.85 -83.85 -100.05 -83.85 -100.15 -84.0 L-100.25 -84.3 -100.15 -84.6 -99.85 -84.75 M-95.9 -83.4 L-95.7 -83.9 -95.2 -84.1 -94.75 -83.9 Q-94.6 -83.7 -94.6 -83.4 -94.6 -83.15 -94.75 -83.0 L-95.2 -82.8 -95.7 -83.0 -95.9 -83.4 M-95.7 -87.4 L-95.55 -87.85 -95.15 -87.95 -94.75 -87.85 -94.6 -87.4 Q-94.6 -87.2 -94.75 -87.05 -94.95 -86.85 -95.15 -86.85 -95.35 -86.85 -95.55 -87.05 L-95.7 -87.4 M-93.0 -90.95 Q-93.2 -90.75 -93.45 -90.75 -93.7 -90.75 -93.85 -90.95 L-94.05 -91.35 -93.85 -91.8 -93.45 -92.0 Q-93.2 -92.0 -93.0 -91.8 -92.85 -91.65 -92.85 -91.35 -92.85 -91.1 -93.0 -90.95 M-99.95 -89.25 L-99.8 -89.7 -99.3 -89.95 -98.85 -89.7 Q-98.7 -89.55 -98.7 -89.25 -98.7 -89.0 -98.85 -88.8 -99.0 -88.6 -99.3 -88.6 -99.6 -88.6 -99.8 -88.8 L-99.95 -89.25 M-106.25 -87.8 L-105.7 -87.95 -105.2 -87.8 -105.0 -87.3 -105.2 -86.8 Q-105.4 -86.55 -105.7 -86.55 -106.05 -86.55 -106.25 -86.8 L-106.45 -87.3 -106.25 -87.8 M-109.15 -90.15 L-108.95 -90.55 -108.6 -90.7 -108.15 -90.55 -108.0 -90.15 -108.15 -89.75 Q-108.35 -89.6 -108.6 -89.6 L-108.95 -89.75 -109.15 -90.15 M-121.7 -88.4 L-121.55 -88.8 -121.15 -88.9 -120.8 -88.8 -120.65 -88.4 -120.8 -88.0 -121.15 -87.9 -121.55 -88.0 -121.7 -88.4 M-114.15 -82.3 L-113.9 -82.75 -113.5 -82.95 -113.05 -82.75 -112.9 -82.3 -113.05 -81.9 -113.5 -81.7 -113.9 -81.9 -114.15 -82.3 M-113.8 -86.8 L-114.0 -87.3 -113.8 -87.8 -113.25 -87.95 -112.75 -87.8 -112.55 -87.3 -112.75 -86.8 Q-112.95 -86.55 -113.25 -86.55 -113.6 -86.55 -113.8 -86.8 M-121.35 -82.5 L-121.15 -83.0 -120.75 -83.15 -120.25 -83.0 Q-120.1 -82.8 -120.1 -82.5 L-120.25 -82.1 Q-120.45 -81.9 -120.75 -81.9 -121.0 -81.9 -121.15 -82.1 L-121.35 -82.5 M-119.65 -85.25 L-119.5 -85.75 -119.0 -85.95 -118.45 -85.75 -118.25 -85.25 -118.45 -84.75 Q-118.7 -84.5 -119.0 -84.5 -119.3 -84.5 -119.5 -84.75 L-119.65 -85.25 M-109.35 -84.1 L-108.9 -83.95 -108.75 -83.5 Q-108.75 -83.25 -108.9 -83.05 -109.1 -82.9 -109.35 -82.9 L-109.75 -83.05 -109.95 -83.5 -109.75 -83.95 -109.35 -84.1 M-110.1 -86.25 L-109.7 -86.45 -109.3 -86.25 -109.1 -85.85 -109.3 -85.45 Q-109.5 -85.3 -109.7 -85.3 -109.95 -85.3 -110.1 -85.45 L-110.3 -85.85 -110.1 -86.25 M-104.75 -81.55 L-104.5 -81.95 -104.05 -82.15 -103.6 -81.95 -103.4 -81.55 -103.6 -81.05 -104.05 -80.85 Q-104.35 -80.85 -104.5 -81.05 L-104.75 -81.55 M-134.75 -87.6 L-134.95 -87.05 -135.5 -86.85 Q-135.8 -86.85 -135.95 -87.05 L-136.2 -87.6 -135.95 -88.15 -135.5 -88.3 -134.95 -88.15 -134.75 -87.6 M-132.2 -88.15 L-132.05 -88.5 -131.7 -88.65 -131.35 -88.5 -131.2 -88.15 Q-131.2 -87.95 -131.35 -87.8 -131.5 -87.65 -131.7 -87.65 L-132.05 -87.8 -132.2 -88.15 M-136.4 -83.1 L-136.25 -83.4 -135.9 -83.6 -135.65 -83.4 -135.5 -83.1 -135.65 -82.8 Q-135.75 -82.7 -135.9 -82.7 L-136.25 -82.8 -136.4 -83.1 M-133.2 -85.1 L-133.05 -85.5 -132.65 -85.65 -132.2 -85.5 -132.1 -85.1 -132.2 -84.75 Q-132.45 -84.5 -132.65 -84.5 L-133.05 -84.75 -133.2 -85.1 M-142.2 -85.5 L-142.0 -85.95 Q-141.85 -86.15 -141.55 -86.15 L-141.1 -85.95 -140.9 -85.5 Q-140.9 -85.2 -141.1 -85.05 -141.3 -84.8 -141.55 -84.8 -141.85 -84.8 -142.0 -85.05 L-142.2 -85.5 M-124.95 -81.45 L-124.75 -80.95 -124.95 -80.5 Q-125.15 -80.35 -125.4 -80.35 L-125.9 -80.5 -126.05 -80.95 -125.9 -81.45 -125.4 -81.65 Q-125.15 -81.65 -124.95 -81.45 M-125.05 -84.9 L-124.65 -85.1 -124.25 -84.9 Q-124.1 -84.75 -124.1 -84.5 L-124.25 -84.15 Q-124.45 -83.95 -124.65 -83.95 -124.85 -83.95 -125.05 -84.15 L-125.2 -84.5 -125.05 -84.9 M-130.7 -83.5 L-130.45 -84.0 -130.0 -84.2 -129.45 -84.0 -129.3 -83.5 Q-129.3 -83.2 -129.45 -83.0 L-130.0 -82.8 -130.45 -83.0 -130.7 -83.5 M-71.7 -98.1 L-71.1 -97.9 -70.85 -97.3 Q-70.85 -96.95 -71.1 -96.7 -71.4 -96.45 -71.7 -96.45 L-72.3 -96.7 -72.55 -97.3 -72.3 -97.9 -71.7 -98.1 M-143.55 -86.55 Q-143.8 -86.55 -143.95 -86.8 L-144.15 -87.15 -143.95 -87.6 -143.55 -87.75 -143.1 -87.6 -142.95 -87.15 Q-142.95 -86.9 -143.1 -86.8 -143.3 -86.55 -143.55 -86.55 M-146.8 -86.55 L-146.95 -86.85 -146.8 -87.2 -146.5 -87.35 -146.2 -87.2 -146.05 -86.85 -146.2 -86.55 Q-146.3 -86.45 -146.5 -86.45 L-146.8 -86.55 M-146.95 -90.45 L-146.7 -90.95 -146.2 -91.15 -145.65 -90.95 -145.45 -90.45 -145.65 -89.95 Q-145.85 -89.65 -146.2 -89.65 -146.5 -89.65 -146.7 -89.95 L-146.95 -90.45 M-141.9 -90.85 L-142.1 -90.35 Q-142.3 -90.1 -142.65 -90.1 L-143.2 -90.35 -143.4 -90.85 -143.2 -91.4 -142.65 -91.65 -142.1 -91.4 -141.9 -90.85 M-80.85 -89.85 L-80.7 -90.25 Q-80.5 -90.45 -80.25 -90.45 L-79.85 -90.25 Q-79.7 -90.1 -79.7 -89.85 -79.7 -89.65 -79.85 -89.45 -80.05 -89.25 -80.25 -89.25 -80.5 -89.25 -80.7 -89.45 L-80.85 -89.85 M-77.55 -92.5 L-77.35 -92.95 -76.9 -93.15 Q-76.65 -93.15 -76.45 -92.95 L-76.25 -92.5 -76.45 -92.0 Q-76.65 -91.85 -76.9 -91.85 L-77.35 -92.0 -77.55 -92.5 M-77.7 -95.8 L-77.85 -96.25 -77.7 -96.75 -77.25 -96.95 -76.75 -96.75 Q-76.6 -96.55 -76.6 -96.25 -76.6 -96.0 -76.75 -95.8 -76.95 -95.65 -77.25 -95.65 L-77.7 -95.8 M-51.7 -7.25 L-51.55 -7.65 -51.05 -7.85 -50.65 -7.65 -50.45 -7.25 -50.65 -6.8 Q-50.85 -6.6 -51.05 -6.6 L-51.55 -6.8 -51.7 -7.25 M-41.85 -15.9 L-41.7 -16.35 -41.25 -16.5 -40.75 -16.35 -40.6 -15.9 Q-40.6 -15.55 -40.75 -15.4 -40.95 -15.25 -41.25 -15.25 L-41.7 -15.4 -41.85 -15.9 M-46.4 -13.35 L-46.0 -13.5 -45.55 -13.35 Q-45.4 -13.2 -45.4 -12.9 -45.4 -12.7 -45.55 -12.55 -45.75 -12.35 -46.0 -12.35 L-46.4 -12.55 -46.6 -12.9 -46.4 -13.35 M-42.4 -2.45 L-42.65 -2.95 -42.4 -3.45 -41.95 -3.65 -41.45 -3.45 -41.25 -2.95 -41.45 -2.45 Q-41.6 -2.15 -41.95 -2.15 L-42.4 -2.45 M-47.3 -5.4 L-47.2 -5.8 -46.8 -5.95 -46.4 -5.8 -46.3 -5.4 -46.4 -5.05 -46.8 -4.9 -47.2 -5.05 -47.3 -5.4 M-42.0 -9.0 L-41.8 -9.4 -41.45 -9.55 -41.05 -9.4 -40.85 -9.0 -41.05 -8.6 Q-41.25 -8.4 -41.45 -8.4 L-41.8 -8.6 -42.0 -9.0 M-52.35 -0.6 Q-52.45 -0.45 -52.65 -0.45 -52.8 -0.45 -52.95 -0.6 L-53.1 -0.9 -52.95 -1.25 -52.65 -1.3 -52.35 -1.25 -52.2 -0.9 Q-52.2 -0.7 -52.35 -0.6 M-21.3 -13.55 L-20.75 -13.3 Q-20.5 -13.1 -20.5 -12.75 -20.5 -12.45 -20.75 -12.25 -21.0 -12.0 -21.3 -12.0 -21.65 -12.0 -21.85 -12.25 L-22.1 -12.75 -21.85 -13.3 -21.3 -13.55 M-29.8 -17.8 L-29.55 -18.3 -29.1 -18.45 -28.6 -18.3 -28.4 -17.8 -28.6 -17.3 Q-28.8 -17.05 -29.1 -17.05 -29.4 -17.05 -29.55 -17.3 L-29.8 -17.8 M-22.7 -18.9 L-22.9 -19.3 -22.7 -19.7 -22.3 -19.9 -21.85 -19.7 -21.7 -19.3 Q-21.7 -19.0 -21.85 -18.9 -22.05 -18.75 -22.3 -18.75 -22.55 -18.75 -22.7 -18.9 M-34.45 -3.05 L-34.2 -3.65 -33.7 -3.85 -33.15 -3.65 -32.95 -3.05 -33.15 -2.55 Q-33.35 -2.3 -33.7 -2.3 -34.0 -2.3 -34.2 -2.55 L-34.45 -3.05 M-38.3 0.15 L-38.1 -0.3 -37.7 -0.45 -37.3 -0.3 -37.1 0.15 -37.3 0.5 -37.7 0.7 -38.1 0.5 -38.3 0.15 M-37.15 -6.45 L-36.95 -6.85 -36.6 -7.0 -36.2 -6.85 -36.05 -6.45 Q-36.05 -6.2 -36.2 -6.05 L-36.6 -5.85 -36.95 -6.05 -37.15 -6.45 M-31.05 -7.25 Q-31.25 -7.05 -31.55 -7.05 L-32.0 -7.25 -32.15 -7.7 -32.0 -8.15 -31.55 -8.35 -31.05 -8.15 Q-30.9 -8.0 -30.9 -7.7 -30.9 -7.4 -31.05 -7.25 M-37.2 -13.35 L-36.55 -13.65 Q-36.15 -13.65 -35.9 -13.35 L-35.6 -12.75 Q-35.6 -12.35 -35.9 -12.05 -36.15 -11.8 -36.55 -11.8 -36.9 -11.8 -37.2 -12.05 L-37.5 -12.75 -37.2 -13.35 M-28.85 -11.35 L-28.65 -11.8 -28.2 -12.0 Q-27.9 -12.0 -27.75 -11.8 L-27.5 -11.35 Q-27.5 -11.05 -27.75 -10.9 -27.9 -10.7 -28.2 -10.7 L-28.65 -10.9 -28.85 -11.35 M-21.05 -8.45 L-20.5 -8.3 -20.3 -7.75 -20.5 -7.25 Q-20.7 -7.05 -21.05 -7.05 -21.35 -7.05 -21.5 -7.25 L-21.75 -7.75 -21.5 -8.3 -21.05 -8.45 M-24.6 -6.3 L-24.3 -6.45 -23.9 -6.3 -23.75 -5.95 Q-23.75 -5.7 -23.9 -5.55 -24.05 -5.4 -24.3 -5.4 -24.45 -5.4 -24.6 -5.55 L-24.75 -5.95 -24.6 -6.3 M-29.8 -0.45 L-30.05 -1.0 -29.8 -1.5 -29.3 -1.65 -28.8 -1.5 -28.6 -1.0 -28.8 -0.45 -29.3 -0.25 Q-29.6 -0.25 -29.8 -0.45 M-16.75 -11.6 L-16.9 -11.85 -16.75 -12.15 Q-16.65 -12.35 -16.45 -12.35 L-16.15 -12.15 -16.0 -11.85 -16.15 -11.6 Q-16.25 -11.45 -16.45 -11.45 -16.65 -11.45 -16.75 -11.6 M-14.8 -6.7 L-14.65 -6.2 Q-14.65 -5.95 -14.8 -5.75 -15.0 -5.55 -15.25 -5.55 L-15.75 -5.75 -15.9 -6.2 -15.75 -6.7 -15.25 -6.85 -14.8 -6.7 M-18.0 -16.9 L-17.6 -17.05 -17.25 -16.9 -17.1 -16.5 Q-17.1 -16.3 -17.25 -16.15 -17.4 -16.0 -17.6 -16.0 -17.85 -16.0 -18.0 -16.15 L-18.15 -16.5 -18.0 -16.9 M-48.1 0.65 L-47.9 0.15 Q-47.75 -0.1 -47.45 -0.1 L-46.9 0.15 -46.7 0.65 -46.9 1.15 Q-47.1 1.35 -47.45 1.35 -47.75 1.35 -47.9 1.15 L-48.1 0.65 M-42.25 3.65 L-42.05 3.25 -41.6 3.05 -41.2 3.25 -41.0 3.65 -41.2 4.1 -41.6 4.25 -42.05 4.1 -42.25 3.65 M-34.1 3.8 L-33.9 3.3 Q-33.7 3.05 -33.4 3.05 -33.1 3.05 -32.9 3.3 L-32.7 3.8 -32.9 4.25 -33.4 4.5 -33.9 4.25 -34.1 3.8" fill="#ffffff" fill-rule="evenodd" stroke="none"/>
    <path d="M67.9 -182.7 Q67.55 -182.35 67.55 -181.9 67.55 -181.45 67.9 -181.15 68.25 -180.85 68.65 -180.85 69.1 -180.85 69.4 -181.15 69.75 -181.45 69.75 -181.9 L69.4 -182.7 68.65 -182.95 67.9 -182.7 M62.1 -183.8 L62.3 -183.4 Q62.45 -183.2 62.7 -183.2 62.95 -183.2 63.15 -183.4 L63.3 -183.8 63.15 -184.25 62.7 -184.4 62.3 -184.25 62.1 -183.8 M64.3 -177.85 L64.5 -178.3 64.3 -178.85 63.75 -179.05 63.25 -178.85 63.05 -178.3 63.25 -177.85 Q63.45 -177.65 63.75 -177.65 L64.3 -177.85 M72.05 -176.45 Q72.05 -176.15 72.3 -175.95 L72.85 -175.7 Q73.15 -175.7 73.4 -175.95 L73.65 -176.45 73.4 -177.0 72.85 -177.2 72.3 -177.0 72.05 -176.45 M77.25 -169.8 L74.85 -169.9 71.65 -169.75 Q64.25 -169.45 57.55 -163.8 56.45 -164.85 55.7 -167.8 55.0 -170.9 55.0 -173.7 55.0 -179.45 56.75 -182.9 59.1 -187.5 64.5 -187.5 69.65 -187.5 73.65 -182.0 77.25 -176.9 77.3 -171.7 L77.4 -170.9 77.25 -169.8 M55.65 -176.65 Q55.65 -176.35 55.95 -176.15 56.2 -175.9 56.5 -175.9 L57.05 -176.15 57.25 -176.65 57.05 -177.2 56.5 -177.45 55.95 -177.2 55.65 -176.65 M57.05 -167.85 Q57.05 -167.6 57.2 -167.45 L57.65 -167.3 Q57.9 -167.3 58.05 -167.45 L58.25 -167.85 58.05 -168.3 57.65 -168.45 57.2 -168.3 57.05 -167.85 M70.05 -172.0 L69.55 -171.8 69.3 -171.25 Q69.3 -170.95 69.55 -170.75 69.75 -170.5 70.05 -170.5 L70.6 -170.75 70.85 -171.25 70.6 -171.8 70.05 -172.0 M60.75 -171.45 Q61.0 -171.15 61.4 -171.15 L62.05 -171.45 62.3 -172.05 62.05 -172.75 61.4 -173.0 60.75 -172.75 Q60.45 -172.45 60.45 -172.05 60.45 -171.7 60.75 -171.45" fill="#faff67" fill-rule="evenodd" stroke="none"/>
    <path d="M50.75 -165.65 L50.95 -165.2 Q51.1 -165.0 51.4 -165.0 51.7 -165.0 51.85 -165.2 L52.05 -165.65 51.85 -166.1 Q51.7 -166.3 51.4 -166.3 L50.95 -166.1 50.75 -165.65 M56.95 -163.1 Q55.05 -161.65 53.25 -159.7 47.7 -153.55 44.8 -146.25 43.3 -147.15 41.1 -149.6 L37.7 -153.75 Q36.9 -154.6 35.65 -158.15 34.25 -162.0 34.25 -164.25 34.25 -167.55 37.25 -169.55 40.15 -171.45 44.6 -171.45 47.8 -171.45 52.15 -168.25 55.65 -165.7 56.95 -163.1 M44.9 -167.85 L45.45 -167.55 Q45.85 -167.55 46.1 -167.85 L46.35 -168.45 46.1 -169.05 45.45 -169.3 44.9 -169.05 44.6 -168.45 Q44.6 -168.05 44.9 -167.85 M41.35 -165.25 L41.1 -164.65 Q41.1 -164.3 41.35 -164.1 41.55 -163.8 41.9 -163.8 42.25 -163.8 42.5 -164.1 42.7 -164.3 42.7 -164.65 L42.5 -165.25 41.9 -165.4 41.35 -165.25 M47.95 -161.2 Q47.95 -160.9 48.15 -160.75 48.35 -160.55 48.65 -160.55 48.9 -160.55 49.1 -160.75 L49.25 -161.2 49.1 -161.7 48.65 -161.85 48.15 -161.7 47.95 -161.2 M43.2 -159.15 L43.0 -158.6 43.2 -158.0 Q43.4 -157.75 43.75 -157.75 L44.3 -158.0 44.5 -158.6 44.3 -159.15 43.75 -159.35 43.2 -159.15 M45.25 -152.05 L45.45 -151.6 Q45.65 -151.45 45.85 -151.45 L46.3 -151.6 46.5 -152.05 46.3 -152.45 45.85 -152.65 45.45 -152.45 45.25 -152.05 M41.7 -154.55 Q41.35 -154.55 41.1 -154.3 L40.85 -153.75 Q40.85 -153.4 41.1 -153.15 L41.7 -152.95 42.25 -153.15 42.5 -153.75 42.25 -154.3 41.7 -154.55 M38.45 -167.5 L37.9 -167.3 37.7 -166.8 37.9 -166.3 Q38.1 -166.1 38.45 -166.1 L38.95 -166.3 39.1 -166.8 38.95 -167.3 38.45 -167.5 M38.2 -160.0 L37.65 -159.8 37.4 -159.3 Q37.4 -159.0 37.65 -158.8 37.9 -158.6 38.2 -158.6 L38.7 -158.8 38.9 -159.3 38.7 -159.8 38.2 -160.0" fill="#77fdff" fill-rule="evenodd" stroke="none"/>
    <path d="M44.3 -145.1 L42.7 -139.8 42.45 -138.65 Q40.8 -132.7 37.95 -127.7 31.5 -132.05 28.8 -134.75 23.55 -139.95 23.55 -145.3 23.55 -148.05 25.9 -150.0 28.25 -152.0 31.2 -152.0 34.7 -152.0 38.1 -150.3 41.5 -148.55 44.3 -145.1 M38.5 -145.8 L38.3 -146.25 37.9 -146.4 37.55 -146.25 37.35 -145.8 37.55 -145.45 37.9 -145.25 38.3 -145.45 38.5 -145.8 M31.6 -147.7 Q31.6 -147.3 31.85 -147.05 32.1 -146.8 32.45 -146.8 L33.1 -147.05 33.35 -147.7 33.1 -148.25 32.45 -148.55 31.85 -148.25 31.6 -147.7 M30.05 -144.0 L29.7 -143.9 29.5 -143.45 29.7 -143.15 30.05 -142.9 30.5 -143.15 30.65 -143.45 30.5 -143.9 30.05 -144.0 M33.85 -140.35 L34.05 -139.95 34.45 -139.8 34.9 -139.95 35.05 -140.35 34.9 -140.85 34.45 -140.95 34.05 -140.85 33.85 -140.35 M39.45 -140.35 L38.9 -140.15 38.7 -139.6 38.9 -139.1 Q39.1 -138.85 39.45 -138.85 L40.0 -139.1 40.25 -139.6 40.0 -140.15 39.45 -140.35 M26.0 -146.4 Q26.0 -146.1 26.25 -145.95 26.4 -145.7 26.7 -145.7 27.0 -145.7 27.2 -145.95 L27.4 -146.4 27.2 -146.95 26.7 -147.15 26.25 -146.95 Q26.0 -146.75 26.0 -146.4 M27.05 -140.05 L27.25 -139.6 Q27.4 -139.4 27.75 -139.4 L28.3 -139.6 Q28.5 -139.75 28.5 -140.05 L28.3 -140.55 27.75 -140.8 27.25 -140.55 27.05 -140.05 M30.95 -134.5 L31.1 -134.85 30.95 -135.25 30.55 -135.4 30.15 -135.25 29.95 -134.85 30.15 -134.5 Q30.3 -134.3 30.55 -134.3 30.75 -134.3 30.95 -134.5 M36.3 -134.25 Q36.3 -134.05 36.45 -133.95 36.6 -133.75 36.8 -133.75 L37.15 -133.95 Q37.35 -134.05 37.35 -134.25 L37.15 -134.65 36.8 -134.75 36.45 -134.65 36.3 -134.25" fill="#5cff80" fill-rule="evenodd" stroke="none"/>
    <path d="M27.25 -130.95 Q27.25 -130.65 27.4 -130.45 27.6 -130.2 27.8 -130.2 L28.25 -130.45 28.35 -130.95 28.25 -131.5 27.8 -131.75 27.4 -131.5 Q27.25 -131.3 27.25 -130.95 M22.7 -129.9 Q22.4 -129.9 22.25 -129.7 21.95 -129.5 21.95 -129.2 21.95 -128.85 22.25 -128.65 22.4 -128.45 22.7 -128.45 L23.2 -128.65 23.4 -129.2 23.2 -129.7 22.7 -129.9 M25.1 -123.7 Q25.35 -123.4 25.65 -123.4 25.95 -123.4 26.25 -123.7 L26.4 -124.2 26.25 -124.75 25.65 -124.95 25.1 -124.75 24.85 -124.2 Q24.85 -123.9 25.1 -123.7 M32.1 -126.4 L31.85 -125.9 Q31.85 -125.6 32.1 -125.4 L32.6 -125.1 Q32.9 -125.1 33.1 -125.4 L33.35 -125.9 33.1 -126.4 32.6 -126.6 Q32.25 -126.6 32.1 -126.4 M17.7 -124.35 Q16.8 -129.8 17.75 -132.25 19.2 -135.65 22.15 -135.65 25.95 -135.65 30.45 -132.45 34.45 -129.7 37.05 -126.0 34.35 -121.65 30.75 -117.95 27.9 -115.95 24.75 -114.7 22.7 -115.95 20.75 -119.1 19.85 -121.65 18.4 -123.55 L17.7 -124.35 M19.2 -132.25 Q19.35 -132.05 19.65 -132.05 L20.2 -132.25 20.4 -132.75 20.2 -133.25 19.65 -133.45 Q19.35 -133.45 19.2 -133.25 L19.0 -132.75 19.2 -132.25 M20.0 -125.85 L20.2 -126.3 20.0 -126.8 19.55 -126.95 19.05 -126.8 18.9 -126.3 Q18.9 -126.0 19.05 -125.85 19.25 -125.65 19.55 -125.65 L20.0 -125.85 M28.9 -121.35 Q28.9 -121.05 29.05 -120.8 L29.6 -120.6 30.1 -120.8 30.3 -121.35 30.1 -121.85 29.6 -122.05 29.05 -121.85 28.9 -121.35 M25.65 -119.6 L25.1 -119.85 24.6 -119.6 24.4 -119.1 24.6 -118.55 Q24.8 -118.35 25.1 -118.35 L25.65 -118.55 25.9 -119.1 25.65 -119.6 M20.2 -122.15 Q20.2 -121.85 20.5 -121.65 20.75 -121.35 21.05 -121.35 21.35 -121.35 21.6 -121.65 L21.8 -122.15 21.6 -122.7 21.05 -122.9 20.5 -122.7 Q20.2 -122.45 20.2 -122.15" fill="#c09aff" fill-rule="evenodd" stroke="none"/>
    <path d="M1.3 -125.75 Q1.45 -125.6 1.7 -125.6 L2.15 -125.75 2.3 -126.2 2.15 -126.6 1.7 -126.75 1.3 -126.6 1.1 -126.2 1.3 -125.75 M3.75 -121.95 L3.35 -122.1 2.9 -121.95 2.75 -121.5 Q2.75 -121.3 2.9 -121.1 3.05 -120.95 3.35 -120.95 3.6 -120.95 3.75 -121.1 L3.9 -121.5 3.75 -121.95 M0.6 -120.25 L0.1 -120.45 -0.4 -120.25 -0.65 -119.7 -0.4 -119.25 Q-0.2 -119.05 0.1 -119.05 L0.6 -119.25 0.8 -119.7 0.6 -120.25 M2.15 -114.8 Q2.15 -114.5 2.35 -114.35 2.5 -114.15 2.8 -114.15 3.05 -114.15 3.3 -114.35 L3.45 -114.8 3.3 -115.25 2.8 -115.45 2.35 -115.25 2.15 -114.8 M-11.55 -116.95 L-10.95 -118.85 Q-9.15 -123.95 -8.05 -125.85 -5.75 -129.8 -2.3 -129.8 2.2 -129.8 4.3 -124.8 6.05 -120.55 5.95 -112.3 -2.2 -113.2 -11.55 -116.95 M-3.95 -128.5 L-4.4 -128.3 -4.6 -127.85 Q-4.6 -127.55 -4.4 -127.4 -4.25 -127.15 -3.95 -127.15 -3.65 -127.15 -3.5 -127.4 -3.3 -127.55 -3.3 -127.85 L-3.5 -128.3 -3.95 -128.5 M-4.1 -124.7 L-3.8 -124.0 Q-3.55 -123.75 -3.15 -123.75 -2.8 -123.75 -2.5 -124.0 -2.25 -124.3 -2.25 -124.7 -2.25 -125.1 -2.5 -125.35 L-3.15 -125.65 -3.8 -125.35 -4.1 -124.7 M-5.3 -121.1 L-5.1 -120.7 -4.7 -120.5 -4.25 -120.7 Q-4.1 -120.85 -4.1 -121.1 L-4.25 -121.55 -4.7 -121.7 -5.1 -121.55 -5.3 -121.1 M-5.6 -117.95 L-5.4 -117.5 Q-5.2 -117.3 -4.85 -117.3 -4.55 -117.3 -4.35 -117.5 L-4.15 -117.95 -4.35 -118.5 -4.85 -118.7 Q-5.2 -118.7 -5.4 -118.5 L-5.6 -117.95 M-8.45 -122.4 L-8.3 -121.95 Q-8.1 -121.8 -7.9 -121.8 -7.65 -121.8 -7.45 -121.95 -7.3 -122.15 -7.3 -122.4 L-7.45 -122.8 -7.9 -123.0 -8.3 -122.8 -8.45 -122.4" fill="#fcb0f7" fill-rule="evenodd" stroke="none"/>
    <path d="M17.7 -124.35 L18.4 -123.55 Q19.85 -121.65 20.75 -119.1 21.55 -116.7 21.9 -113.6 15.7 -111.7 8.55 -112.05 6.25 -117.4 6.25 -118.9 6.25 -122.2 7.3 -124.25 8.85 -127.2 12.6 -127.2 15.2 -127.2 17.7 -124.35 M7.45 -123.2 Q7.45 -122.8 7.7 -122.55 L8.35 -122.3 8.95 -122.55 9.2 -123.2 8.95 -123.8 8.35 -124.05 7.7 -123.8 Q7.45 -123.55 7.45 -123.2 M13.35 -123.75 L12.85 -123.55 12.6 -123.05 Q12.6 -122.75 12.85 -122.55 13.05 -122.3 13.35 -122.3 13.65 -122.3 13.85 -122.55 L14.05 -123.05 13.85 -123.55 13.35 -123.75 M13.2 -118.9 Q13.05 -119.1 12.75 -119.1 L12.3 -118.9 12.1 -118.45 12.3 -117.95 Q12.5 -117.8 12.75 -117.8 L13.2 -117.95 13.4 -118.45 13.2 -118.9 M10.1 -115.0 L9.7 -114.85 9.5 -114.4 9.7 -114.0 Q9.85 -113.8 10.1 -113.8 L10.55 -114.0 10.7 -114.4 10.55 -114.85 10.1 -115.0 M14.0 -113.45 Q14.0 -113.2 14.15 -113.1 L14.5 -112.95 14.9 -113.1 15.0 -113.45 14.9 -113.8 14.5 -113.95 14.15 -113.8 14.0 -113.45 M17.55 -116.9 L17.75 -116.55 Q17.85 -116.4 18.1 -116.4 L18.45 -116.55 18.55 -116.9 18.45 -117.3 18.1 -117.4 17.75 -117.3 17.55 -116.9 M7.85 -119.05 Q7.85 -118.7 8.1 -118.5 8.3 -118.25 8.6 -118.25 8.9 -118.25 9.15 -118.5 L9.4 -119.05 9.15 -119.6 8.6 -119.8 Q8.3 -119.8 8.1 -119.6 L7.85 -119.05" fill="#ff7a5f" fill-rule="evenodd" stroke="none"/>
    <path d="M10.05 -12.45 L9.85 -11.9 10.05 -11.4 10.6 -11.15 Q10.9 -11.15 11.15 -11.4 11.35 -11.6 11.35 -11.9 L11.15 -12.45 10.6 -12.7 10.05 -12.45 M9.45 -15.6 L9.85 -15.5 10.2 -15.6 10.4 -16.0 10.2 -16.4 9.85 -16.5 9.45 -16.4 9.35 -16.0 9.45 -15.6 M16.7 -15.15 Q16.95 -14.9 17.3 -14.9 17.65 -14.9 17.95 -15.15 L18.15 -15.75 17.95 -16.4 17.3 -16.65 16.7 -16.4 16.45 -15.75 Q16.45 -15.35 16.7 -15.15 M3.65 -14.9 Q7.25 -19.5 13.65 -19.5 19.25 -19.5 22.65 -15.1 L23.05 -14.7 Q26.25 -10.25 26.25 -3.4 L26.25 -2.2 25.8 2.15 Q13.3 9.55 0.8 2.15 -0.65 -7.4 2.5 -13.0 L3.65 -14.9 M6.4 -7.3 Q6.4 -7.05 6.55 -6.9 6.75 -6.7 6.95 -6.7 7.15 -6.7 7.35 -6.9 L7.5 -7.3 7.35 -7.7 6.95 -7.85 6.55 -7.7 6.4 -7.3 M3.65 -10.55 L3.5 -10.1 Q3.5 -9.8 3.65 -9.6 L4.2 -9.45 Q4.45 -9.45 4.6 -9.6 L4.75 -10.1 4.6 -10.55 4.2 -10.7 3.65 -10.55 M4.2 -1.85 L3.85 -1.8 3.65 -1.4 3.85 -1.05 Q3.95 -0.9 4.2 -0.9 L4.55 -1.05 4.7 -1.4 4.55 -1.8 4.2 -1.85 M7.55 -1.85 L7.7 -2.35 7.55 -2.9 7.0 -3.05 6.5 -2.9 6.25 -2.35 Q6.25 -2.05 6.5 -1.85 6.7 -1.6 7.0 -1.6 7.35 -1.6 7.55 -1.85 M15.1 -11.85 L15.3 -11.35 Q15.5 -11.15 15.85 -11.15 L16.35 -11.35 16.5 -11.85 16.35 -12.35 15.85 -12.55 15.3 -12.35 15.1 -11.85 M16.95 -7.4 Q16.95 -7.15 17.1 -7.0 17.25 -6.85 17.5 -6.85 17.7 -6.85 17.9 -7.0 L18.05 -7.4 17.9 -7.8 17.5 -7.95 17.1 -7.8 16.95 -7.4 M11.25 -3.25 Q11.25 -2.9 11.5 -2.7 11.7 -2.45 12.05 -2.45 12.4 -2.45 12.65 -2.7 L12.85 -3.25 12.65 -3.85 12.05 -4.05 11.5 -3.85 11.25 -3.25 M21.25 -10.7 Q21.4 -10.5 21.7 -10.5 L22.25 -10.7 22.45 -11.2 22.25 -11.8 21.7 -11.95 21.25 -11.8 21.05 -11.2 21.25 -10.7 M22.85 -5.65 L22.65 -5.15 Q22.65 -4.8 22.85 -4.65 23.05 -4.45 23.4 -4.45 L23.95 -4.65 24.1 -5.15 23.95 -5.65 23.4 -5.85 Q23.05 -5.85 22.85 -5.65 M19.85 0.1 L20.0 0.45 20.4 0.65 20.8 0.45 20.95 0.1 20.8 -0.35 20.4 -0.5 20.0 -0.35 19.85 0.1 M15.1 1.05 L15.3 1.4 Q15.4 1.6 15.65 1.6 L16.0 1.4 16.1 1.05 16.0 0.7 15.65 0.6 15.3 0.7 15.1 1.05 M9.95 2.0 L9.4 2.15 9.15 2.75 9.4 3.3 9.95 3.55 10.5 3.3 10.75 2.75 10.5 2.15 9.95 2.0" fill="#be98fb" fill-rule="evenodd" stroke="none"/>
    <path d="M36.7 -14.45 L36.85 -14.05 Q37.05 -13.85 37.35 -13.85 L37.8 -14.05 37.95 -14.45 37.8 -15.0 37.35 -15.15 36.85 -15.0 36.7 -14.45 M28.7 -9.7 Q36.6 -26.0 51.3 -15.55 L53.9 -10.45 Q55.1 -7.1 55.1 -3.55 L55.05 -2.0 54.9 0.15 Q43.2 6.5 29.95 0.35 29.25 -1.25 28.9 -3.9 28.5 -6.65 28.55 -7.75 L28.7 -9.7 M35.2 -7.8 L35.0 -7.25 35.2 -6.7 Q35.4 -6.5 35.7 -6.5 L36.25 -6.7 36.45 -7.25 36.25 -7.8 35.7 -8.0 Q35.4 -8.0 35.2 -7.8 M32.45 -9.5 L32.05 -9.35 31.85 -8.95 32.05 -8.55 Q32.2 -8.35 32.45 -8.35 32.65 -8.35 32.85 -8.55 L33.0 -8.95 32.85 -9.35 32.45 -9.5 M32.65 -2.1 L32.15 -2.3 31.65 -2.1 31.4 -1.6 Q31.4 -1.25 31.65 -1.0 31.85 -0.8 32.15 -0.8 L32.65 -1.0 32.9 -1.6 32.65 -2.1 M44.75 -14.0 L44.3 -13.85 44.1 -13.3 44.3 -12.9 Q44.5 -12.7 44.75 -12.7 L45.2 -12.9 45.4 -13.3 45.2 -13.85 44.75 -14.0 M47.75 -15.65 L47.9 -15.35 Q48.05 -15.25 48.25 -15.25 L48.55 -15.35 48.65 -15.65 48.55 -15.95 48.25 -16.1 47.9 -15.95 47.75 -15.65 M48.75 -9.75 Q48.95 -9.5 49.25 -9.5 49.6 -9.5 49.8 -9.75 L50.05 -10.3 49.8 -10.85 Q49.6 -11.05 49.25 -11.05 L48.75 -10.85 48.5 -10.3 48.75 -9.75 M41.7 -8.15 L41.9 -7.75 42.25 -7.6 42.65 -7.75 42.8 -8.15 42.65 -8.55 42.25 -8.7 41.9 -8.55 41.7 -8.15 M45.1 -0.3 L45.3 0.1 45.65 0.3 Q45.95 0.3 46.1 0.1 L46.25 -0.3 46.1 -0.7 45.65 -0.9 Q45.45 -0.9 45.3 -0.7 L45.1 -0.3 M40.3 -2.15 L40.55 -1.85 40.85 -1.6 41.3 -1.85 41.4 -2.15 41.3 -2.6 40.85 -2.75 40.55 -2.6 40.3 -2.15 M47.35 -3.1 L47.75 -2.95 48.25 -3.1 48.45 -3.6 48.25 -4.05 47.75 -4.25 47.35 -4.05 47.15 -3.6 Q47.15 -3.3 47.35 -3.1 M52.4 -6.5 Q52.55 -6.3 52.8 -6.3 L53.35 -6.5 53.5 -6.95 53.35 -7.4 52.8 -7.6 Q52.55 -7.6 52.4 -7.4 L52.2 -6.95 52.4 -6.5 M52.25 -2.45 Q51.85 -2.45 51.6 -2.15 L51.3 -1.55 Q51.3 -1.15 51.6 -0.85 51.85 -0.6 52.25 -0.6 52.65 -0.6 52.9 -0.85 L53.2 -1.55 52.9 -2.15 Q52.65 -2.45 52.25 -2.45 M35.3 0.45 L35.45 1.0 35.95 1.15 36.4 1.0 36.6 0.45 36.4 0.05 35.95 -0.15 35.45 0.05 Q35.3 0.2 35.3 0.45" fill="#78fdff" fill-rule="evenodd" stroke="none"/>
    <path d="M-45.25 -130.55 L-45.05 -130.15 Q-44.95 -130.0 -44.7 -130.0 -44.45 -130.0 -44.3 -130.15 L-44.1 -130.55 -44.3 -130.9 Q-44.45 -131.1 -44.7 -131.1 L-45.05 -130.9 -45.25 -130.55 M-45.8 -125.2 Q-45.6 -125.05 -45.4 -125.05 -45.15 -125.05 -44.95 -125.2 -44.8 -125.4 -44.8 -125.65 L-44.95 -126.0 Q-45.15 -126.2 -45.4 -126.2 L-45.8 -126.0 -45.95 -125.65 -45.8 -125.2 M-41.45 -129.05 L-41.25 -128.55 -40.8 -128.35 -40.3 -128.55 -40.1 -129.05 -40.3 -129.5 -40.8 -129.7 -41.25 -129.5 -41.45 -129.05 M-42.1 -126.0 L-41.9 -125.55 Q-41.75 -125.4 -41.45 -125.4 L-40.95 -125.55 Q-40.8 -125.7 -40.8 -126.0 L-40.95 -126.5 -41.45 -126.65 -41.9 -126.5 -42.1 -126.0 M-47.75 -114.0 L-48.35 -118.5 -48.7 -122.25 Q-48.7 -126.95 -47.85 -129.1 -46.6 -132.4 -42.95 -132.4 -39.1 -132.4 -35.9 -128.65 -32.9 -125.2 -31.65 -119.35 -40.4 -118.25 -47.75 -114.0 M-42.6 -122.6 Q-42.6 -122.35 -42.4 -122.25 -42.3 -122.0 -42.0 -122.0 L-41.6 -122.25 Q-41.45 -122.35 -41.45 -122.6 L-41.6 -123.05 -42.0 -123.2 -42.4 -123.05 -42.6 -122.6 M-43.3 -119.45 L-43.5 -118.95 -43.3 -118.45 Q-43.15 -118.25 -42.8 -118.25 L-42.3 -118.45 -42.1 -118.95 -42.3 -119.45 -42.8 -119.65 Q-43.15 -119.65 -43.3 -119.45 M-48.1 -121.7 L-47.85 -121.1 Q-47.65 -120.8 -47.3 -120.8 -46.9 -120.8 -46.7 -121.1 -46.4 -121.35 -46.4 -121.7 L-46.7 -122.3 -47.3 -122.55 -47.85 -122.3 -48.1 -121.7 M-46.95 -118.2 L-46.7 -117.7 Q-46.55 -117.5 -46.25 -117.5 -45.95 -117.5 -45.75 -117.7 L-45.55 -118.2 -45.75 -118.75 -46.25 -118.9 -46.7 -118.75 -46.95 -118.2 M-36.35 -125.35 Q-36.15 -125.5 -36.15 -125.8 L-36.35 -126.25 Q-36.55 -126.45 -36.8 -126.45 L-37.3 -126.25 -37.5 -125.8 Q-37.5 -125.5 -37.3 -125.35 -37.1 -125.1 -36.8 -125.1 -36.55 -125.1 -36.35 -125.35 M-35.8 -121.55 L-35.55 -121.1 Q-35.35 -120.8 -35.05 -120.8 -34.75 -120.8 -34.5 -121.1 -34.35 -121.25 -34.35 -121.55 L-34.5 -122.05 -35.05 -122.25 -35.55 -122.05 -35.8 -121.55 M-115.05 -82.1 L-114.45 -78.85 Q-120.8 -78.9 -127.5 -80.2 L-128.0 -82.65 Q-128.4 -85.7 -127.35 -88.2 -125.7 -91.9 -121.6 -91.9 -119.8 -91.9 -118.4 -90.4 -116.8 -88.7 -115.05 -82.1 M-121.7 -88.4 L-121.55 -88.0 -121.15 -87.9 -120.8 -88.0 -120.65 -88.4 -120.8 -88.8 -121.15 -88.9 -121.55 -88.8 -121.7 -88.4 M-119.65 -85.25 L-119.5 -84.75 Q-119.3 -84.5 -119.0 -84.5 -118.7 -84.5 -118.45 -84.75 L-118.25 -85.25 -118.45 -85.75 -119.0 -85.95 -119.5 -85.75 -119.65 -85.25 M-121.35 -82.5 L-121.15 -82.1 Q-121.0 -81.9 -120.75 -81.9 -120.45 -81.9 -120.25 -82.1 L-120.1 -82.5 Q-120.1 -82.8 -120.25 -83.0 L-120.75 -83.15 -121.15 -83.0 -121.35 -82.5 M-125.05 -84.9 L-125.2 -84.5 -125.05 -84.15 Q-124.85 -83.95 -124.65 -83.95 -124.45 -83.95 -124.25 -84.15 L-124.1 -84.5 Q-124.1 -84.75 -124.25 -84.9 L-124.65 -85.1 -125.05 -84.9 M-124.95 -81.45 Q-125.15 -81.65 -125.4 -81.65 L-125.9 -81.45 -126.05 -80.95 -125.9 -80.5 -125.4 -80.35 Q-125.15 -80.35 -124.95 -80.5 L-124.75 -80.95 -124.95 -81.45" fill="#7df8ff" fill-rule="evenodd" stroke="none"/>
    <path d="M-59.55 -106.8 Q-62.0 -109.35 -63.15 -111.55 -64.95 -115.0 -64.95 -118.25 -64.95 -121.2 -62.95 -123.4 -61.0 -125.45 -58.2 -125.45 -56.0 -125.45 -52.95 -122.8 -50.15 -120.5 -48.1 -115.1 L-47.75 -114.0 Q-53.95 -110.5 -58.95 -106.25 L-59.2 -106.45 -59.55 -106.8 M-63.55 -119.85 L-63.35 -119.4 Q-63.2 -119.2 -62.95 -119.2 -62.65 -119.2 -62.4 -119.4 -62.25 -119.6 -62.25 -119.85 -62.25 -120.15 -62.4 -120.3 -62.65 -120.5 -62.95 -120.5 L-63.35 -120.3 -63.55 -119.85 M-60.85 -113.7 Q-60.65 -113.9 -60.65 -114.2 L-60.85 -114.7 -61.35 -114.9 -61.85 -114.7 -62.1 -114.2 -61.85 -113.7 -61.35 -113.5 Q-61.05 -113.5 -60.85 -113.7 M-50.15 -115.4 L-50.65 -115.55 -51.2 -115.4 -51.4 -114.85 -51.2 -114.35 Q-51.0 -114.15 -50.65 -114.15 L-50.15 -114.35 -49.95 -114.85 -50.15 -115.4 M-55.05 -120.55 L-55.25 -120.0 -55.05 -119.55 -54.55 -119.35 Q-54.25 -119.35 -54.05 -119.55 L-53.85 -120.0 -54.05 -120.55 -54.55 -120.75 -55.05 -120.55 M-57.95 -123.0 L-58.55 -123.2 -59.1 -123.0 -59.35 -122.4 -59.1 -121.85 Q-58.9 -121.6 -58.55 -121.6 -58.2 -121.6 -57.95 -121.85 -57.7 -122.05 -57.7 -122.4 L-57.95 -123.0 M-57.7 -117.9 L-57.85 -118.3 -58.3 -118.45 -58.7 -118.3 -58.9 -117.9 Q-58.9 -117.6 -58.7 -117.45 -58.6 -117.3 -58.3 -117.3 -58.05 -117.3 -57.85 -117.45 -57.7 -117.6 -57.7 -117.9 M-56.25 -114.9 L-55.75 -114.7 -55.2 -114.9 -55.0 -115.4 -55.2 -115.95 -55.75 -116.1 -56.25 -115.95 -56.45 -115.4 -56.25 -114.9 M-58.4 -111.1 L-58.6 -110.7 -58.4 -110.3 Q-58.3 -110.15 -58.05 -110.15 L-57.65 -110.3 -57.5 -110.7 -57.65 -111.1 -58.05 -111.25 -58.4 -111.1 M-128.0 -82.65 L-127.5 -80.2 Q-132.95 -81.25 -138.55 -83.1 L-138.6 -83.35 Q-138.95 -87.2 -137.25 -89.05 -135.6 -91.05 -132.85 -91.05 -131.05 -91.05 -130.4 -90.35 -129.5 -89.45 -128.0 -82.65 M-132.2 -88.15 L-132.05 -87.8 -131.7 -87.65 Q-131.5 -87.65 -131.35 -87.8 -131.2 -87.95 -131.2 -88.15 L-131.35 -88.5 -131.7 -88.65 -132.05 -88.5 -132.2 -88.15 M-134.75 -87.6 L-134.95 -88.15 -135.5 -88.3 -135.95 -88.15 -136.2 -87.6 -135.95 -87.05 Q-135.8 -86.85 -135.5 -86.85 L-134.95 -87.05 -134.75 -87.6 M-133.2 -85.1 L-133.05 -84.75 -132.65 -84.5 Q-132.45 -84.5 -132.2 -84.75 L-132.1 -85.1 -132.2 -85.5 -132.65 -85.65 -133.05 -85.5 -133.2 -85.1 M-136.4 -83.1 L-136.25 -82.8 -135.9 -82.7 Q-135.75 -82.7 -135.65 -82.8 L-135.5 -83.1 -135.65 -83.4 -135.9 -83.6 -136.25 -83.4 -136.4 -83.1 M-130.7 -83.5 L-130.45 -83.0 -130.0 -82.8 -129.45 -83.0 Q-129.3 -83.2 -129.3 -83.5 L-129.45 -84.0 -130.0 -84.2 -130.45 -84.0 -130.7 -83.5" fill="#56fe7f" fill-rule="evenodd" stroke="none"/>
    <path d="M-59.55 -106.8 L-59.2 -106.45 -58.95 -106.25 -61.25 -104.15 Q-66.4 -98.5 -71.8 -94.15 L-73.55 -96.3 -73.6 -96.3 -76.5 -100.4 Q-78.7 -104.15 -78.7 -107.85 -78.7 -111.15 -77.2 -112.8 -75.55 -114.5 -72.2 -114.5 -67.45 -114.5 -59.55 -106.8 M-74.4 -111.65 L-74.2 -111.15 -73.75 -111.0 Q-73.5 -111.0 -73.3 -111.15 L-73.1 -111.65 -73.3 -112.05 -73.75 -112.25 -74.2 -112.05 -74.4 -111.65 M-74.85 -105.45 L-74.7 -105.1 -74.4 -105.0 -74.0 -105.1 -73.85 -105.45 -74.0 -105.85 -74.4 -105.95 -74.7 -105.85 -74.85 -105.45 M-77.65 -107.1 L-77.55 -106.8 -77.25 -106.7 -76.9 -106.8 -76.8 -107.1 -76.9 -107.4 -77.25 -107.55 -77.55 -107.4 -77.65 -107.1 M-72.8 -102.45 L-72.95 -102.8 -73.35 -103.0 -73.7 -102.8 -73.9 -102.45 -73.7 -102.05 -73.35 -101.9 Q-73.1 -101.9 -72.95 -102.05 -72.8 -102.2 -72.8 -102.45 M-64.0 -106.25 Q-64.25 -106.55 -64.6 -106.55 L-65.2 -106.25 -65.4 -105.65 -65.2 -105.1 Q-64.95 -104.85 -64.6 -104.85 -64.25 -104.85 -64.0 -105.1 L-63.75 -105.65 Q-63.75 -106.05 -64.0 -106.25 M-68.05 -109.7 L-68.65 -109.95 -69.2 -109.7 -69.45 -109.15 -69.2 -108.55 Q-69.0 -108.3 -68.65 -108.3 -68.3 -108.3 -68.05 -108.55 L-67.85 -109.15 -68.05 -109.7 M-70.9 -105.8 L-70.7 -105.4 Q-70.5 -105.15 -70.3 -105.15 -70.05 -105.15 -69.85 -105.4 L-69.65 -105.8 -69.85 -106.25 -70.3 -106.4 -70.7 -106.25 -70.9 -105.8 M-67.85 -100.45 L-67.6 -99.85 Q-67.35 -99.6 -67.0 -99.6 L-66.4 -99.85 Q-66.15 -100.1 -66.15 -100.45 L-66.4 -101.1 Q-66.65 -101.3 -67.0 -101.3 L-67.6 -101.1 -67.85 -100.45 M-138.6 -83.35 L-138.55 -83.1 Q-143.65 -84.8 -148.9 -87.05 L-146.45 -92.15 Q-145.5 -93.6 -143.35 -93.6 -142.35 -93.6 -140.95 -91.7 -139.3 -89.55 -138.6 -83.35 M-142.2 -85.5 L-142.0 -85.05 Q-141.85 -84.8 -141.55 -84.8 -141.3 -84.8 -141.1 -85.05 -140.9 -85.2 -140.9 -85.5 L-141.1 -85.95 -141.55 -86.15 Q-141.85 -86.15 -142.0 -85.95 L-142.2 -85.5 M-141.9 -90.85 L-142.1 -91.4 -142.65 -91.65 -143.2 -91.4 -143.4 -90.85 -143.2 -90.35 -142.65 -90.1 Q-142.3 -90.1 -142.1 -90.35 L-141.9 -90.85 M-146.95 -90.45 L-146.7 -89.95 Q-146.5 -89.65 -146.2 -89.65 -145.85 -89.65 -145.65 -89.95 L-145.45 -90.45 -145.65 -90.95 -146.2 -91.15 -146.7 -90.95 -146.95 -90.45 M-146.8 -86.55 L-146.5 -86.45 Q-146.3 -86.45 -146.2 -86.55 L-146.05 -86.85 -146.2 -87.2 -146.5 -87.35 -146.8 -87.2 -146.95 -86.85 -146.8 -86.55 M-143.55 -86.55 Q-143.3 -86.55 -143.1 -86.8 -142.95 -86.9 -142.95 -87.15 L-143.1 -87.6 -143.55 -87.75 -143.95 -87.6 -144.15 -87.15 -143.95 -86.8 Q-143.8 -86.55 -143.55 -86.55 M-71.7 -98.1 L-72.3 -97.9 -72.55 -97.3 -72.3 -96.7 -71.7 -96.45 Q-71.4 -96.45 -71.1 -96.7 -70.85 -96.95 -70.85 -97.3 L-71.1 -97.9 -71.7 -98.1" fill="#ba96ff" fill-rule="evenodd" stroke="none"/>
    <path d="M-11.55 -116.95 L-14.1 -117.95 Q-22.45 -120.3 -30.6 -119.45 -30.7 -124.5 -28.8 -128.55 -26.0 -134.55 -21.4 -134.55 -17.15 -134.55 -14.1 -130.0 -11.3 -126.0 -11.3 -121.7 L-11.55 -116.95 M-17.25 -129.3 L-17.0 -128.85 Q-16.8 -128.6 -16.5 -128.6 -16.2 -128.6 -16.0 -128.85 L-15.8 -129.3 -16.0 -129.8 -16.5 -130.0 -17.0 -129.8 -17.25 -129.3 M-21.1 -124.6 L-20.85 -123.95 -20.25 -123.75 -19.6 -123.95 -19.35 -124.6 -19.6 -125.25 -20.25 -125.45 -20.85 -125.25 -21.1 -124.6 M-24.35 -131.3 L-24.1 -130.75 -23.55 -130.55 -23.0 -130.75 -22.8 -131.3 -23.0 -131.85 -23.55 -132.05 -24.1 -131.85 -24.35 -131.3 M-26.95 -124.0 L-26.5 -123.85 Q-26.2 -123.85 -26.05 -124.0 L-25.8 -124.5 -26.05 -124.95 -26.5 -125.1 -26.95 -124.95 -27.15 -124.5 -26.95 -124.0 M-24.25 -128.45 L-24.4 -128.0 -24.25 -127.6 -23.8 -127.4 Q-23.55 -127.4 -23.4 -127.6 -23.25 -127.7 -23.25 -128.0 L-23.4 -128.45 -23.8 -128.6 -24.25 -128.45 M-14.1 -122.25 Q-13.9 -122.0 -13.6 -122.0 -13.3 -122.0 -13.1 -122.25 -12.95 -122.45 -12.95 -122.75 L-13.1 -123.25 -13.6 -123.4 -14.1 -123.25 -14.35 -122.75 -14.1 -122.25 M-17.4 -120.75 L-17.55 -120.35 -17.4 -120.0 Q-17.3 -119.85 -17.05 -119.85 L-16.7 -120.0 -16.55 -120.35 -16.7 -120.75 -17.05 -120.8 -17.4 -120.75" fill="#faff6b" fill-rule="evenodd" stroke="none"/>
    <path d="M-73.6 -96.3 L-73.55 -96.3 -71.8 -94.15 Q-78.15 -89.05 -84.95 -85.65 L-87.15 -89.85 -87.95 -91.5 Q-89.3 -94.75 -89.3 -97.1 -89.3 -99.8 -88.4 -101.55 -87.1 -104.15 -84.2 -104.15 -82.35 -104.15 -80.85 -103.15 -79.25 -102.05 -73.6 -96.3 M-84.25 -100.0 Q-84.1 -99.8 -83.85 -99.8 L-83.3 -100.0 -83.15 -100.45 -83.3 -100.95 -83.85 -101.1 -84.25 -100.95 -84.45 -100.45 -84.25 -100.0 M-83.1 -94.75 L-82.9 -94.2 Q-82.7 -94.0 -82.4 -94.0 L-81.85 -94.2 -81.6 -94.75 -81.85 -95.3 -82.4 -95.5 -82.9 -95.3 -83.1 -94.75 M-87.15 -95.35 L-86.7 -95.2 -86.2 -95.35 Q-86.05 -95.55 -86.05 -95.85 L-86.2 -96.3 -86.7 -96.5 -87.15 -96.3 -87.35 -95.85 Q-87.35 -95.55 -87.15 -95.35 M-83.85 -90.75 L-84.4 -90.95 -85.0 -90.75 -85.15 -90.2 -85.0 -89.65 -84.4 -89.45 Q-84.15 -89.45 -83.85 -89.65 L-83.65 -90.2 -83.85 -90.75 M-77.7 -95.8 L-77.25 -95.65 Q-76.95 -95.65 -76.75 -95.8 -76.6 -96.0 -76.6 -96.25 -76.6 -96.55 -76.75 -96.75 L-77.25 -96.95 -77.7 -96.75 -77.85 -96.25 -77.7 -95.8 M-77.55 -92.5 L-77.35 -92.0 -76.9 -91.85 Q-76.65 -91.85 -76.45 -92.0 L-76.25 -92.5 -76.45 -92.95 Q-76.65 -93.15 -76.9 -93.15 L-77.35 -92.95 -77.55 -92.5 M-80.85 -89.85 L-80.7 -89.45 Q-80.5 -89.25 -80.25 -89.25 -80.05 -89.25 -79.85 -89.45 -79.7 -89.65 -79.7 -89.85 -79.7 -90.1 -79.85 -90.25 L-80.25 -90.45 Q-80.5 -90.45 -80.7 -90.25 L-80.85 -89.85" fill="#f9815a" fill-rule="evenodd" stroke="none"/>
    <path d="M-87.15 -89.85 L-84.95 -85.65 Q-92.35 -81.9 -100.25 -80.2 L-100.8 -82.25 -101.55 -85.3 Q-102.15 -87.95 -102.15 -89.7 -102.15 -92.6 -100.45 -94.7 -98.7 -96.8 -95.95 -96.8 -94.95 -96.8 -92.7 -95.45 -90.45 -93.95 -87.15 -89.85 M-90.9 -87.0 L-90.75 -86.5 -90.25 -86.35 Q-90.0 -86.35 -89.8 -86.5 L-89.6 -87.0 -89.8 -87.45 -90.25 -87.65 -90.75 -87.45 -90.9 -87.0 M-96.4 -93.9 L-96.85 -93.7 -97.05 -93.2 -96.85 -92.8 -96.4 -92.55 Q-96.1 -92.55 -95.9 -92.8 -95.75 -92.95 -95.75 -93.2 L-95.9 -93.7 -96.4 -93.9 M-99.95 -89.25 L-99.8 -88.8 Q-99.6 -88.6 -99.3 -88.6 -99.0 -88.6 -98.85 -88.8 -98.7 -89.0 -98.7 -89.25 -98.7 -89.55 -98.85 -89.7 L-99.3 -89.95 -99.8 -89.7 -99.95 -89.25 M-93.0 -90.95 Q-92.85 -91.1 -92.85 -91.35 -92.85 -91.65 -93.0 -91.8 -93.2 -92.0 -93.45 -92.0 L-93.85 -91.8 -94.05 -91.35 -93.85 -90.95 Q-93.7 -90.75 -93.45 -90.75 -93.2 -90.75 -93.0 -90.95 M-95.7 -87.4 L-95.55 -87.05 Q-95.35 -86.85 -95.15 -86.85 -94.95 -86.85 -94.75 -87.05 -94.6 -87.2 -94.6 -87.4 L-94.75 -87.85 -95.15 -87.95 -95.55 -87.85 -95.7 -87.4 M-95.9 -83.4 L-95.7 -83.0 -95.2 -82.8 -94.75 -83.0 Q-94.6 -83.15 -94.6 -83.4 -94.6 -83.7 -94.75 -83.9 L-95.2 -84.1 -95.7 -83.9 -95.9 -83.4 M-99.85 -84.75 L-100.15 -84.6 -100.25 -84.3 -100.15 -84.0 Q-100.05 -83.85 -99.85 -83.85 -99.65 -83.85 -99.55 -84.0 L-99.4 -84.3 -99.55 -84.6 -99.85 -84.75" fill="#ffacf2" fill-rule="evenodd" stroke="none"/>
    <path d="M-100.8 -82.25 L-100.25 -80.2 Q-107.2 -78.75 -114.45 -78.85 L-115.05 -82.1 -115.15 -84.35 Q-115.15 -87.35 -112.95 -90.2 -110.7 -93.15 -108.0 -93.15 -106.3 -93.15 -104.85 -92.0 -103.45 -90.85 -100.8 -82.25 M-109.15 -90.15 L-108.95 -89.75 -108.6 -89.6 Q-108.35 -89.6 -108.15 -89.75 L-108.0 -90.15 -108.15 -90.55 -108.6 -90.7 -108.95 -90.55 -109.15 -90.15 M-106.25 -87.8 L-106.45 -87.3 -106.25 -86.8 Q-106.05 -86.55 -105.7 -86.55 -105.4 -86.55 -105.2 -86.8 L-105.0 -87.3 -105.2 -87.8 -105.7 -87.95 -106.25 -87.8 M-113.8 -86.8 Q-113.6 -86.55 -113.25 -86.55 -112.95 -86.55 -112.75 -86.8 L-112.55 -87.3 -112.75 -87.8 -113.25 -87.95 -113.8 -87.8 -114.0 -87.3 -113.8 -86.8 M-114.15 -82.3 L-113.9 -81.9 -113.5 -81.7 -113.05 -81.9 -112.9 -82.3 -113.05 -82.75 -113.5 -82.95 -113.9 -82.75 -114.15 -82.3 M-104.75 -81.55 L-104.5 -81.05 Q-104.35 -80.85 -104.05 -80.85 L-103.6 -81.05 -103.4 -81.55 -103.6 -81.95 -104.05 -82.15 -104.5 -81.95 -104.75 -81.55 M-110.1 -86.25 L-110.3 -85.85 -110.1 -85.45 Q-109.95 -85.3 -109.7 -85.3 -109.5 -85.3 -109.3 -85.45 L-109.1 -85.85 -109.3 -86.25 -109.7 -86.45 -110.1 -86.25 M-109.35 -84.1 L-109.75 -83.95 -109.95 -83.5 -109.75 -83.05 -109.35 -82.9 Q-109.1 -82.9 -108.9 -83.05 -108.75 -83.25 -108.75 -83.5 L-108.9 -83.95 -109.35 -84.1" fill="#f4ff65" fill-rule="evenodd" stroke="none"/>
    <path d="M-46.4 -13.35 L-46.6 -12.9 -46.4 -12.55 -46.0 -12.35 Q-45.75 -12.35 -45.55 -12.55 -45.4 -12.7 -45.4 -12.9 -45.4 -13.2 -45.55 -13.35 L-46.0 -13.5 -46.4 -13.35 M-41.85 -15.9 L-41.7 -15.4 -41.25 -15.25 Q-40.95 -15.25 -40.75 -15.4 -40.6 -15.55 -40.6 -15.9 L-40.75 -16.35 -41.25 -16.5 -41.7 -16.35 -41.85 -15.9 M-51.7 -7.25 L-51.55 -6.8 -51.05 -6.6 Q-50.85 -6.6 -50.65 -6.8 L-50.45 -7.25 -50.65 -7.65 -51.05 -7.85 -51.55 -7.65 -51.7 -7.25 M-26.9 -4.05 Q-26.55 -2.0 -26.55 0.25 -26.55 1.4 -26.95 2.75 -40.3 9.5 -52.8 1.85 L-53.7 -1.15 -54.1 -3.65 -54.1 -3.95 Q-54.1 -10.4 -50.65 -14.7 -46.9 -19.5 -40.45 -19.5 -38.7 -19.5 -37.35 -18.9 -36.4 -18.45 -34.1 -16.65 L-31.6 -14.55 -30.75 -13.3 Q-28.7 -10.3 -27.85 -8.0 -27.2 -6.15 -26.9 -4.05 M-52.35 -0.6 Q-52.2 -0.7 -52.2 -0.9 L-52.35 -1.25 -52.65 -1.3 -52.95 -1.25 -53.1 -0.9 -52.95 -0.6 Q-52.8 -0.45 -52.65 -0.45 -52.45 -0.45 -52.35 -0.6 M-42.0 -9.0 L-41.8 -8.6 -41.45 -8.4 Q-41.25 -8.4 -41.05 -8.6 L-40.85 -9.0 -41.05 -9.4 -41.45 -9.55 -41.8 -9.4 -42.0 -9.0 M-47.3 -5.4 L-47.2 -5.05 -46.8 -4.9 -46.4 -5.05 -46.3 -5.4 -46.4 -5.8 -46.8 -5.95 -47.2 -5.8 -47.3 -5.4 M-42.4 -2.45 L-41.95 -2.15 Q-41.6 -2.15 -41.45 -2.45 L-41.25 -2.95 -41.45 -3.45 -41.95 -3.65 -42.4 -3.45 -42.65 -2.95 -42.4 -2.45 M-37.2 -13.35 L-37.5 -12.75 -37.2 -12.05 Q-36.9 -11.8 -36.55 -11.8 -36.15 -11.8 -35.9 -12.05 -35.6 -12.35 -35.6 -12.75 L-35.9 -13.35 Q-36.15 -13.65 -36.55 -13.65 L-37.2 -13.35 M-31.05 -7.25 Q-30.9 -7.4 -30.9 -7.7 -30.9 -8.0 -31.05 -8.15 L-31.55 -8.35 -32.0 -8.15 -32.15 -7.7 -32.0 -7.25 -31.55 -7.05 Q-31.25 -7.05 -31.05 -7.25 M-37.15 -6.45 L-36.95 -6.05 -36.6 -5.85 -36.2 -6.05 Q-36.05 -6.2 -36.05 -6.45 L-36.2 -6.85 -36.6 -7.0 -36.95 -6.85 -37.15 -6.45 M-38.3 0.15 L-38.1 0.5 -37.7 0.7 -37.3 0.5 -37.1 0.15 -37.3 -0.3 -37.7 -0.45 -38.1 -0.3 -38.3 0.15 M-34.45 -3.05 L-34.2 -2.55 Q-34.0 -2.3 -33.7 -2.3 -33.35 -2.3 -33.15 -2.55 L-32.95 -3.05 -33.15 -3.65 -33.7 -3.85 -34.2 -3.65 -34.45 -3.05 M-29.8 -0.45 Q-29.6 -0.25 -29.3 -0.25 L-28.8 -0.45 -28.6 -1.0 -28.8 -1.5 -29.3 -1.65 -29.8 -1.5 -30.05 -1.0 -29.8 -0.45 M-34.1 3.8 L-33.9 4.25 -33.4 4.5 -32.9 4.25 -32.7 3.8 -32.9 3.3 Q-33.1 3.05 -33.4 3.05 -33.7 3.05 -33.9 3.3 L-34.1 3.8 M-42.25 3.65 L-42.05 4.1 -41.6 4.25 -41.2 4.1 -41.0 3.65 -41.2 3.25 -41.6 3.05 -42.05 3.25 -42.25 3.65 M-48.1 0.65 L-47.9 1.15 Q-47.75 1.35 -47.45 1.35 -47.1 1.35 -46.9 1.15 L-46.7 0.65 -46.9 0.15 -47.45 -0.1 Q-47.75 -0.1 -47.9 0.15 L-48.1 0.65" fill="#feb0f9" fill-rule="evenodd" stroke="none"/>
    <path d="M-26.9 -4.05 Q-27.2 -6.15 -27.85 -8.0 -28.7 -10.3 -30.75 -13.3 L-31.6 -14.55 -33.0 -16.8 Q-26.0 -27.4 -15.6 -19.5 -14.5 -18.05 -14.0 -16.7 -12.75 -13.45 -12.75 -7.75 -12.75 -4.8 -15.55 -3.9 L-20.5 -3.55 -23.35 -3.55 -26.9 -4.05 M-22.7 -18.9 Q-22.55 -18.75 -22.3 -18.75 -22.05 -18.75 -21.85 -18.9 -21.7 -19.0 -21.7 -19.3 L-21.85 -19.7 -22.3 -19.9 -22.7 -19.7 -22.9 -19.3 -22.7 -18.9 M-29.8 -17.8 L-29.55 -17.3 Q-29.4 -17.05 -29.1 -17.05 -28.8 -17.05 -28.6 -17.3 L-28.4 -17.8 -28.6 -18.3 -29.1 -18.45 -29.55 -18.3 -29.8 -17.8 M-21.3 -13.55 L-21.85 -13.3 -22.1 -12.75 -21.85 -12.25 Q-21.65 -12.0 -21.3 -12.0 -21.0 -12.0 -20.75 -12.25 -20.5 -12.45 -20.5 -12.75 -20.5 -13.1 -20.75 -13.3 L-21.3 -13.55 M-24.6 -6.3 L-24.75 -5.95 -24.6 -5.55 Q-24.45 -5.4 -24.3 -5.4 -24.05 -5.4 -23.9 -5.55 -23.75 -5.7 -23.75 -5.95 L-23.9 -6.3 -24.3 -6.45 -24.6 -6.3 M-21.05 -8.45 L-21.5 -8.3 -21.75 -7.75 -21.5 -7.25 Q-21.35 -7.05 -21.05 -7.05 -20.7 -7.05 -20.5 -7.25 L-20.3 -7.75 -20.5 -8.3 -21.05 -8.45 M-28.85 -11.35 L-28.65 -10.9 -28.2 -10.7 Q-27.9 -10.7 -27.75 -10.9 -27.5 -11.05 -27.5 -11.35 L-27.75 -11.8 Q-27.9 -12.0 -28.2 -12.0 L-28.65 -11.8 -28.85 -11.35 M-18.0 -16.9 L-18.15 -16.5 -18.0 -16.15 Q-17.85 -16.0 -17.6 -16.0 -17.4 -16.0 -17.25 -16.15 -17.1 -16.3 -17.1 -16.5 L-17.25 -16.9 -17.6 -17.05 -18.0 -16.9 M-14.8 -6.7 L-15.25 -6.85 -15.75 -6.7 -15.9 -6.2 -15.75 -5.75 -15.25 -5.55 Q-15.0 -5.55 -14.8 -5.75 -14.65 -5.95 -14.65 -6.2 L-14.8 -6.7 M-16.75 -11.6 Q-16.65 -11.45 -16.45 -11.45 -16.25 -11.45 -16.15 -11.6 L-16.0 -11.85 -16.15 -12.15 -16.45 -12.35 Q-16.65 -12.35 -16.75 -12.15 L-16.9 -11.85 -16.75 -11.6" fill="#faff6f" fill-rule="evenodd" stroke="none"/>
  </g>
</svg>
