<?xml version="1.0" encoding="UTF-8" standalone="no"?>
<svg xmlns:xlink="http://www.w3.org/1999/xlink" height="52.1px" width="37.3px" xmlns="http://www.w3.org/2000/svg">
  <g transform="matrix(1.0, 0.0, 0.0, 1.0, 18.65, 26.05)">
    <path d="M-9.7 11.85 Q-9.7 11.0 -10.35 10.35 -10.95 9.75 -11.85 9.75 -12.7 9.75 -13.35 10.35 -13.95 11.0 -13.95 11.85 -13.95 12.75 -13.35 13.3 -12.7 13.95 -11.85 13.95 -10.95 13.95 -10.35 13.3 -9.7 12.75 -9.7 11.85 M-0.45 15.55 Q-1.0 16.15 -1.0 17.0 -1.0 17.85 -0.45 18.4 0.15 19.05 1.0 19.05 1.85 19.05 2.4 18.4 3.0 17.85 3.0 17.0 3.0 16.15 2.4 15.55 1.85 14.95 1.0 14.95 0.15 14.95 -0.45 15.55 M4.1 2.8 Q4.1 1.7 3.3 0.9 2.5 0.05 1.4 0.05 0.25 0.05 -0.6 0.9 -1.4 1.7 -1.4 2.8 -1.4 3.9 -0.6 4.75 0.25 5.55 1.4 5.55 2.5 5.55 3.3 4.75 4.1 3.9 4.1 2.8 M6.85 -10.6 L13.1 4.45 12.8 4.4 Q11.75 4.4 11.0 5.15 10.25 5.9 10.25 7.0 10.25 8.1 11.0 8.8 11.75 9.6 12.8 9.6 13.9 9.6 14.65 8.8 L14.75 8.75 18.35 19.6 18.45 19.85 18.65 20.45 14.85 22.45 Q14.75 21.25 13.9 20.45 13.0 19.55 11.7 19.55 10.45 19.55 9.5 20.45 8.6 21.35 8.6 22.65 8.6 23.75 9.2 24.55 0.55 27.15 -7.7 25.2 -7.0 24.45 -7.0 23.4 -7.0 22.2 -7.9 21.35 -8.7 20.5 -9.9 20.5 -11.15 20.5 -12.05 21.35 -12.85 22.2 -12.85 23.4 L-12.85 23.55 Q-15.8 22.3 -18.65 20.45 -15.45 9.6 -11.3 -1.35 -10.45 -0.6 -9.4 -0.6 -8.2 -0.6 -7.3 -1.45 -6.45 -2.35 -6.45 -3.55 -6.45 -4.75 -7.3 -5.6 -8.15 -6.45 -9.3 -6.5 L-4.7 -17.35 Q-3.9 -16.65 -2.85 -16.65 -1.7 -16.65 -0.95 -17.45 -0.1 -18.25 -0.1 -19.35 -0.1 -20.5 -0.95 -21.3 -1.6 -21.95 -2.55 -22.05 L-0.65 -26.05 4.4 -15.95 4.3 -15.95 Q2.9 -15.95 1.95 -15.0 1.0 -14.0 1.0 -12.6 1.0 -11.3 1.95 -10.3 2.9 -9.3 4.3 -9.3 5.6 -9.3 6.6 -10.3 L6.85 -10.6" fill="#ffffff" fill-rule="evenodd" stroke="none"/>
  </g>
</svg>
