<?xml version="1.0" encoding="UTF-8" standalone="no"?>
<svg xmlns:xlink="http://www.w3.org/1999/xlink" height="140.55px" width="165.5px" xmlns="http://www.w3.org/2000/svg">
  <g transform="matrix(1.0, 0.0, 0.0, 1.0, 82.75, 70.3)">
    <path d="M50.8 -14.65 L49.95 -13.0 50.1 -13.0 50.8 -14.65 Q55.15 -22.55 59.6 -28.9 69.15 -42.45 75.65 -42.45 78.6 -42.45 80.35 -40.65 82.05 -38.75 82.05 -35.5 82.05 -33.7 79.0 -26.3 75.95 -18.95 74.8 -17.5 L69.45 -11.85 64.0 -6.1 64.0 -5.9 71.3 -10.8 Q75.15 -13.4 78.3 -13.4 80.25 -13.4 81.5 -11.65 82.75 -10.0 82.75 -8.0 82.75 -2.05 73.8 4.85 70.35 7.45 66.55 9.5 63.0 11.35 60.9 11.8 L63.0 11.8 67.7 11.25 Q70.45 11.25 70.45 14.15 70.45 21.4 58.6 25.5 49.6 28.65 40.15 28.65 32.6 28.65 27.0 27.05 22.8 25.9 13.7 21.65 L13.55 23.35 Q13.55 28.75 16.8 31.55 20.1 34.35 26.5 34.35 29.65 34.35 31.65 33.15 33.6 31.9 35.4 31.9 36.85 31.9 37.5 32.25 38.5 32.75 38.5 34.25 38.5 36.15 35.1 38.35 L31.05 40.6 Q35.45 42.45 38.7 44.6 44.25 48.25 44.25 51.25 44.25 52.95 39.7 54.95 35.45 56.9 32.65 56.9 28.4 56.9 26.25 56.05 L20.45 52.85 20.45 53.05 23.25 57.0 Q24.95 59.6 24.95 61.55 24.95 62.4 23.45 63.3 22.05 64.15 21.15 64.15 17.15 64.15 12.35 58.65 L8.95 54.8 Q7.05 53.05 5.5 53.05 2.9 53.05 1.15 55.75 0.1 57.4 -1.5 61.65 -3.05 65.95 -4.1 67.55 -5.85 70.25 -8.3 70.25 -12.7 70.25 -14.75 64.85 -16.3 60.95 -16.3 55.65 -16.3 53.5 -16.65 52.7 -17.25 51.4 -19.15 51.4 -20.2 51.4 -22.7 53.05 L-28.0 56.8 Q-36.05 62.25 -41.65 62.25 -44.95 62.25 -47.4 61.25 -50.85 59.75 -50.85 56.45 -50.85 53.9 -48.1 50.5 L-44.45 46.3 Q-47.9 45.2 -50.2 43.85 -53.95 41.6 -53.95 39.0 -53.95 35.9 -46.75 34.9 L-38.2 34.0 Q-36.9 33.4 -32.9 28.65 -28.65 23.65 -28.65 22.1 L-28.75 21.75 -28.8 21.7 -32.45 22.15 -36.9 22.5 -37.5 22.5 Q-45.85 23.35 -54.15 21.0 -58.2 19.85 -63.55 17.15 -72.0 12.95 -72.0 9.4 -72.0 6.75 -70.45 5.7 -69.2 4.85 -66.55 4.85 L-65.5 5.1 -64.4 5.35 Q-65.8 5.15 -68.7 3.2 -71.75 1.1 -74.85 -1.95 -82.75 -9.45 -82.75 -13.9 -82.75 -19.2 -75.4 -19.2 -73.45 -19.2 -68.2 -16.65 L-68.2 -16.85 Q-74.6 -22.95 -78.35 -30.0 -82.75 -38.3 -82.75 -46.65 -82.75 -50.3 -81.35 -52.25 -79.9 -54.35 -76.9 -54.35 -70.35 -54.35 -60.05 -41.75 -54.85 -35.4 -50.3 -28.15 L-50.3 -28.45 -51.8 -35.3 Q-53.25 -42.5 -53.25 -44.55 -53.25 -46.25 -52.05 -47.55 -50.8 -48.95 -48.9 -48.95 -43.1 -48.95 -38.5 -40.55 -35.95 -35.8 -31.2 -22.0 -26.7 -8.8 -23.55 -3.55 -18.6 4.85 -12.15 4.85 -5.5 4.85 -2.6 -3.45 -0.7 -8.95 -0.7 -17.2 -0.7 -21.3 -2.8 -33.75 -4.85 -46.3 -4.85 -49.9 -4.85 -57.7 -1.2 -63.35 3.25 -70.3 11.45 -70.3 17.15 -70.3 21.0 -66.25 24.75 -62.35 24.75 -56.9 L24.3 -53.65 Q25.5 -52.6 27.0 -50.05 28.45 -47.65 28.45 -45.8 28.45 -45.25 28.1 -45.25 27.65 -45.9 24.85 -47.4 21.8 -49.1 20.55 -49.1 18.85 -49.1 16.8 -45.6 14.9 -42.35 14.9 -40.3 14.9 -37.75 16.0 -34.35 L18.45 -27.9 Q22.05 -18.9 22.05 -13.0 L22.2 -8.45 Q22.2 -3.25 20.75 2.45 27.35 -2.4 31.2 -7.8 L37.5 -17.9 39.8 -22.65 42.45 -28.4 Q46.2 -35.2 50.75 -35.2 53.2 -35.2 53.95 -33.3 54.3 -32.4 54.3 -29.8 54.3 -22.95 50.8 -14.65 M36.6 -30.1 Q36.6 -24.15 32.5 -24.15 31.75 -24.15 31.25 -24.65 30.7 -25.15 30.7 -25.85 30.7 -26.95 33.45 -30.7 L36.8 -34.9 36.6 -30.1 M60.9 32.1 Q59.65 35.25 57.2 37.5 54.75 39.7 52.75 39.7 51.15 39.7 50.45 39.2 49.75 38.7 49.75 37.55 49.75 35.05 55.0 33.4 L60.9 32.1 M-27.4 -28.15 Q-28.45 -29.5 -28.45 -31.1 L-27.75 -35.35 -26.7 -40.1 Q-26.25 -37.65 -24.05 -34.6 -22.1 -31.85 -22.1 -29.95 -22.1 -28.5 -22.9 -27.6 -23.7 -26.75 -25.0 -26.75 -26.35 -26.75 -27.4 -28.15 M-67.9 22.75 Q-64.7 24.85 -64.7 27.0 -64.7 27.85 -66.3 28.45 L-68.3 28.95 Q-70.35 28.95 -72.3 24.85 -74.25 20.85 -73.55 18.9 L-70.75 20.95 -67.9 22.75" fill="#9fdeff" fill-rule="evenodd" stroke="none"/>
  </g>
</svg>
