<?xml version="1.0" encoding="UTF-8" standalone="no"?>
<svg xmlns:xlink="http://www.w3.org/1999/xlink" height="34.95px" width="79.75px" xmlns="http://www.w3.org/2000/svg">
  <g transform="matrix(1.0, 0.0, 0.0, 1.0, 21.95, 161.15)">
    <path d="M6.35 -151.2 L1.8 -150.85 0.15 -150.85 Q2.25 -155.45 8.15 -159.15 L6.35 -151.2 M50.7 -137.45 Q48.45 -131.55 43.2 -133.25 43.4 -131.15 44.5 -128.9 45.65 -126.65 47.15 -126.2 42.75 -127.35 41.8 -128.7 40.2 -131.0 39.65 -137.25 42.15 -138.2 44.35 -138.45 47.8 -138.85 50.7 -137.45 54.9 -135.5 57.8 -129.7 54.55 -125.7 49.4 -126.55 51.55 -127.8 51.55 -132.75 L50.7 -137.45 M-21.95 -146.75 Q-21.6 -154.45 -15.7 -161.15 -15.0 -153.55 -13.9 -146.5 L-21.95 -146.75" fill="#ffffff" fill-rule="evenodd" stroke="none"/>
  </g>
</svg>
