<?xml version="1.0" encoding="UTF-8" standalone="no"?>
<svg xmlns:xlink="http://www.w3.org/1999/xlink" height="163.4px" width="212.1px" xmlns="http://www.w3.org/2000/svg">
  <g transform="matrix(1.0, 0.0, 0.0, 1.0, 106.05, 81.7)">
    <path d="M26.55 -16.5 L26.7 -17.15 Q26.7 -18.25 25.95 -18.25 22.9 -18.25 15.95 -8.9 9.95 -0.75 7.9 4.1 10.95 2.4 16.4 -4.95 22.3 -12.85 26.4 -15.85 L26.55 -16.5 M27.95 -22.55 Q30.85 -24.4 33.75 -25.65 40.1 -28.45 46.7 -28.65 L55.45 -27.75 Q58.8 -27.0 62.2 -25.55 L61.35 -29.6 Q100.05 -40.35 99.2 -81.35 L99.75 -81.7 101.8 -76.0 103.6 -70.05 105.15 -62.6 106.0 -55.2 Q106.2 -50.4 105.55 -46.05 104.9 -41.25 103.2 -37.05 101.75 -33.4 99.5 -30.15 96.85 -26.2 93.05 -22.85 90.65 -20.7 87.75 -18.85 84.55 -16.7 80.8 -14.9 L75.35 -12.35 77.1 -7.9 77.45 -6.7 80.5 0.8 Q83.25 7.8 83.25 10.1 83.25 14.05 76.5 16.65 70.9 18.75 65.25 18.75 59.75 18.75 52.35 16.65 44.95 14.55 38.75 14.55 32.7 14.55 25.95 21.65 22.8 25.0 17.85 32.35 13.6 38.7 8.35 44.05 2.9 49.6 -2.45 52.0 -9.7 56.2 -16.7 59.1 -15.55 64.95 -13.25 68.05 L-11.3 70.5 Q-10.25 72.0 -9.65 73.7 L-9.65 75.6 -10.8 74.4 -11.75 72.9 -11.9 72.85 Q-11.95 72.75 -12.05 72.75 L-12.15 74.9 Q-12.15 76.25 -12.7 76.9 L-14.1 75.4 -14.95 73.9 Q-15.6 74.1 -16.05 75.35 L-16.4 77.55 -16.55 77.55 Q-17.05 74.95 -18.35 73.0 -19.1 71.85 -20.85 70.05 L-23.2 67.2 Q-24.35 65.4 -24.75 61.95 -33.25 64.55 -41.5 65.1 L-41.8 68.3 Q-41.8 69.1 -39.45 73.3 -37.1 77.5 -37.1 79.7 L-37.2 80.1 -37.3 80.6 -37.3 80.95 -38.6 79.8 Q-39.1 79.35 -39.4 78.5 L-39.7 78.5 -40.0 80.1 Q-40.25 80.9 -40.8 81.4 L-41.8 80.4 Q-42.4 79.7 -42.6 78.8 -43.05 79.05 -43.5 80.2 L-44.05 81.55 -44.25 81.65 -44.4 81.7 Q-44.2 79.75 -45.25 77.55 L-47.7 73.7 Q-49.4 71.25 -49.95 69.8 -50.85 67.6 -50.35 65.1 -68.6 63.8 -85.05 52.0 -116.3 23.45 -101.1 -20.95 -80.15 -63.55 -33.0 -56.3 -1.75 -52.35 22.65 -40.6 L27.95 -22.55 7.2 -35.75 17.5 -18.7 1.4 -25.15 2.55 -23.65 2.0 -22.85 -8.55 -27.05 Q-12.4 -28.45 -16.2 -29.3 -21.5 -30.55 -26.85 -30.8 L-34.0 -30.65 -41.1 -29.65 Q-46.2 -28.6 -51.2 -26.6 L-57.85 -23.55 -60.3 -22.25 -65.95 -16.05 Q-68.95 -12.2 -70.8 -8.45 -75.3 0.85 -72.35 9.45 -71.0 13.2 -68.25 16.85 -65.15 20.85 -60.3 24.7 -55.1 27.0 -49.9 27.95 L-38.1 28.5 Q-32.9 28.0 -27.7 26.2 -21.3 24.0 -14.9 19.85 -10.95 17.3 -7.0 13.95 -2.75 10.35 1.55 5.85 L7.3 -0.6 8.5 -2.0 21.0 -17.1 Q24.45 -20.25 27.95 -22.55 M58.1 -22.9 Q58.65 -22.9 59.0 -23.25 L59.3 -23.9 Q59.3 -24.8 55.05 -25.65 L50.8 -26.3 48.6 -26.0 46.45 -25.5 Q47.2 -25.0 52.05 -23.9 L58.1 -22.9 M50.7 -2.0 L48.45 -3.1 Q46.1 -4.05 43.55 -4.2 L38.05 -3.75 Q37.75 0.2 39.15 2.65 41.0 5.75 45.05 7.45 45.9 8.3 47.0 8.3 L47.85 8.2 Q50.95 8.2 52.55 7.25 L57.2 3.95 Q54.2 0.0 50.7 -2.0 M74.25 -14.45 Q81.65 -16.4 86.2 -19.1 90.35 -21.65 93.05 -25.3 L93.05 -26.45 Q88.35 -22.7 83.9 -20.2 77.85 -16.75 73.2 -16.05 L74.15 -14.6 74.25 -14.45 M-65.55 25.75 Q-65.95 26.9 -63.4 28.85 -60.85 30.8 -58.9 30.8 L-58.35 30.65 Q-58.0 30.45 -58.0 30.0 -58.0 29.4 -60.35 28.25 -62.5 27.1 -63.5 26.9 -63.5 26.85 -64.55 26.3 L-65.55 25.75 M-43.45 31.9 L-45.6 31.8 -48.7 31.6 -54.0 31.6 Q-52.5 33.25 -49.55 33.9 L-43.8 34.3 Q-37.15 34.3 -29.9 32.35 -20.2 29.7 -15.75 24.65 L-15.45 24.65 Q-15.1 24.45 -15.1 23.95 L-15.2 23.65 -15.25 23.55 Q-18.05 25.8 -27.15 28.7 -37.1 31.9 -43.45 31.9 M-3.2 -27.6 L-2.4 -27.6 Q-2.1 -27.75 -2.1 -28.25 -2.1 -29.9 -9.6 -31.25 L-19.55 -32.4 -21.9 -32.1 -21.9 -31.75 -21.7 -31.7 -21.7 -31.6 Q-17.9 -31.4 -13.15 -30.15 -4.7 -27.9 -3.2 -27.6 M-64.0 -22.1 L-64.0 -22.3 -63.8 -22.8 -64.0 -23.4 Q-64.15 -23.7 -64.55 -23.7 -67.9 -23.7 -71.2 -16.6 -74.1 -10.45 -74.1 -7.1 -74.1 -6.05 -73.75 -5.7 -72.3 -7.55 -69.5 -13.3 -66.8 -18.85 -64.0 -22.1 M-54.45 -28.3 L-54.0 -28.9 Q-54.0 -29.05 -54.65 -29.3 L-55.75 -29.65 Q-56.55 -29.65 -58.0 -28.7 -59.6 -27.6 -59.6 -26.75 L-59.6 -26.3 Q-59.55 -26.15 -59.05 -26.15 -58.35 -26.15 -57.5 -26.65 -56.05 -27.6 -54.45 -28.3 M1.2 8.45 Q-1.1 11.0 -1.25 12.3 L-0.15 12.3 1.95 10.95 Q3.0 10.1 4.7 7.5 L5.0 6.95 5.35 6.35 5.15 6.05 4.7 5.85 Q3.55 5.85 1.2 8.45 M99.85 -34.45 L100.0 -35.7 99.65 -36.4 Q98.4 -35.75 97.3 -33.8 L95.8 -30.6 95.8 -29.8 96.15 -29.75 96.5 -29.65 Q97.4 -29.65 98.2 -31.1 L99.85 -34.45 M62.85 -22.5 L62.7 -22.4 Q63.35 -20.9 66.65 -17.95 69.7 -15.2 70.1 -15.2 L70.75 -15.3 70.9 -15.85 Q70.9 -16.6 69.55 -17.8 L67.4 -19.5 67.1 -19.7 66.95 -19.9 65.5 -21.3 Q64.0 -22.6 63.25 -22.6 L62.85 -22.5" fill="#c9f5ff" fill-rule="evenodd" stroke="none"/>
  </g>
</svg>
