<?xml version="1.0" encoding="UTF-8" standalone="no"?>
<svg xmlns:xlink="http://www.w3.org/1999/xlink" height="263.45px" width="200.2px" xmlns="http://www.w3.org/2000/svg">
  <g transform="matrix(1.0, 0.0, 0.0, 1.0, 100.1, 131.75)">
    <path d="M77.85 16.8 L77.85 13.05 77.85 12.3 Q78.0 11.85 78.35 11.85 78.85 11.85 79.85 13.2 L80.8 14.55 80.85 14.55 81.0 14.5 80.55 10.6 80.8 7.35 Q81.2 4.6 81.75 4.6 82.2 4.6 83.5 6.7 L85.3 9.35 Q85.35 8.7 85.8 7.7 86.25 6.7 87.2 5.7 87.9 9.65 89.45 14.0 L90.8 17.35 Q88.4 16.4 86.2 14.65 L84.15 12.85 Q83.05 12.85 83.0 15.85 L83.2 19.25 82.2 18.25 Q81.3 17.3 80.85 17.3 80.4 17.3 80.4 18.4 L80.45 21.25 80.15 20.8 Q78.95 19.05 77.85 16.8 L74.65 13.2 Q73.25 11.7 72.5 11.7 72.15 11.7 71.95 12.3 L71.5 15.2 69.35 10.0 70.25 6.85 Q70.5 5.65 71.1 5.65 71.5 5.65 72.65 7.35 74.25 9.45 76.35 13.35 L77.85 16.8 M92.95 -121.85 Q88.8 -121.15 85.2 -119.2 80.35 -121.8 71.6 -122.5 73.85 -118.35 77.45 -116.75 L68.3 -115.6 Q72.65 -112.75 77.05 -112.45 74.85 -109.85 73.0 -106.5 L68.9 -107.1 67.75 -107.1 65.5 -107.55 63.5 -108.0 Q62.15 -108.0 62.15 -107.1 62.15 -106.2 65.7 -105.1 69.55 -104.2 71.35 -103.5 L70.2 -100.85 66.05 -100.75 Q64.8 -100.45 64.8 -99.55 64.8 -98.85 69.1 -98.0 68.15 -95.35 67.45 -92.45 L64.3 -92.45 Q62.65 -92.45 60.1 -91.3 57.4 -90.15 56.3 -90.15 L55.05 -90.35 54.0 -90.15 Q53.25 -89.75 53.25 -88.95 53.25 -88.25 57.45 -86.8 61.4 -85.5 62.25 -85.5 L66.15 -85.5 Q65.75 -82.6 65.6 -79.55 61.6 -79.0 57.7 -77.1 56.75 -75.9 58.35 -75.95 L65.5 -75.65 65.5 -75.3 65.7 -69.2 Q62.45 -68.8 61.1 -67.3 L58.7 -64.45 57.4 -63.05 Q56.6 -62.2 56.05 -62.05 L54.8 -61.55 Q53.75 -60.9 53.75 -60.45 53.75 -59.75 55.9 -59.15 57.6 -58.55 58.45 -58.55 L62.25 -58.7 Q63.3 -58.7 64.15 -59.05 L66.3 -60.9 66.55 -55.7 Q66.55 -51.85 65.6 -48.75 60.45 -48.1 58.05 -46.0 55.95 -44.3 53.5 -44.3 L50.6 -44.65 49.45 -44.3 Q48.95 -44.05 48.95 -43.6 48.95 -42.2 52.7 -40.7 55.95 -39.45 59.25 -39.5 54.35 -36.05 46.65 -36.05 L45.25 -36.1 39.15 -41.85 Q35.25 -45.4 34.65 -45.4 L33.95 -45.1 Q33.65 -44.8 33.65 -44.4 33.65 -43.65 37.05 -37.65 32.9 -38.65 27.5 -40.3 L24.05 -41.3 Q23.0 -44.5 21.7 -45.65 21.0 -46.35 19.3 -47.25 L17.1 -48.65 Q15.65 -49.6 14.75 -49.6 L14.15 -49.4 13.8 -48.95 Q13.8 -48.1 15.75 -46.0 L18.6 -42.8 Q10.85 -44.65 5.95 -44.65 4.75 -47.65 2.3 -48.65 L-2.0 -50.1 -6.0 -51.2 -7.45 -52.25 Q-8.75 -53.05 -9.15 -53.05 L-9.8 -52.85 -10.1 -52.4 Q-10.1 -51.0 -6.7 -47.95 L-2.3 -43.95 Q-6.45 -43.15 -9.8 -41.5 -11.0 -43.0 -13.7 -44.5 -16.7 -46.15 -17.55 -46.15 L-18.2 -45.95 -18.5 -45.5 Q-18.5 -44.65 -17.45 -43.95 -16.1 -42.95 -16.0 -42.75 L-14.95 -41.35 -13.05 -39.7 -15.25 -38.15 -20.8 -38.8 -25.3 -38.6 -28.9 -38.9 -29.7 -38.8 -30.0 -38.1 Q-30.0 -37.0 -25.6 -34.8 L-19.5 -34.2 -21.4 -32.15 -22.9 -30.45 -26.6 -30.45 Q-27.3 -30.45 -28.75 -29.75 -30.3 -29.1 -32.35 -29.1 -33.25 -29.1 -33.25 -28.35 -33.25 -27.45 -30.4 -26.85 L-26.1 -26.45 -30.65 -20.75 -34.1 -20.45 -35.55 -20.25 -39.6 -20.9 -41.9 -21.6 -42.5 -21.45 -42.9 -21.05 Q-42.9 -19.9 -39.5 -18.3 -37.25 -17.25 -34.6 -16.55 -37.55 -13.75 -40.75 -11.5 -42.2 -12.4 -46.6 -13.05 L-52.3 -13.7 -53.6 -13.65 Q-54.45 -13.45 -54.45 -12.9 -54.45 -11.95 -50.5 -10.85 -47.65 -10.2 -45.5 -8.35 -47.9 -6.7 -50.15 -4.45 L-52.05 -2.5 -54.85 -2.5 -57.95 -2.0 -59.9 -2.25 -60.65 -2.0 Q-61.15 -1.8 -61.15 -1.3 -61.15 -0.35 -58.9 0.55 L-55.35 1.5 Q-57.15 3.95 -58.8 6.75 L-61.1 6.3 -63.5 6.55 Q-65.3 6.95 -65.3 7.6 L-64.6 8.5 Q-63.9 9.05 -63.9 9.5 -63.9 10.45 -69.35 11.1 -74.85 11.75 -74.85 12.7 -74.85 14.8 -66.95 15.2 L-62.95 14.7 -65.5 21.25 Q-67.8 21.4 -69.85 22.05 -72.4 22.9 -72.4 23.45 -72.4 24.1 -69.75 24.9 L-69.65 25.05 Q-70.95 26.45 -73.0 27.9 -75.0 29.25 -77.25 30.1 -77.85 30.3 -80.9 32.25 L-81.3 32.55 Q-84.4 34.6 -84.4 35.25 L-83.75 35.9 -82.8 36.0 -81.65 35.9 -81.3 35.8 -78.85 35.8 -75.25 35.95 -72.25 35.45 -68.7 33.7 Q-69.3 37.3 -69.45 40.8 L-73.7 42.3 Q-76.35 43.3 -76.35 44.15 -76.35 44.8 -73.8 44.8 L-72.65 44.6 -71.1 44.25 -71.1 44.7 Q-71.1 47.7 -73.95 49.55 L-75.85 50.65 Q-76.75 51.15 -76.75 51.6 -76.75 52.55 -74.2 52.55 L-72.0 52.05 -69.15 51.5 -68.55 56.5 -73.0 58.95 Q-74.5 59.85 -76.15 60.3 L-80.15 61.15 -81.3 61.55 Q-82.85 62.15 -82.85 62.9 -82.85 63.85 -81.3 64.4 L-79.35 65.0 -74.3 65.45 -73.15 65.4 -71.8 65.2 -69.65 64.9 -66.95 64.05 -65.45 68.7 Q-67.9 69.8 -71.3 72.15 -75.45 75.15 -75.45 76.65 -75.45 77.35 -75.0 77.35 -74.6 77.35 -72.8 76.35 L-70.85 75.25 -66.55 73.85 Q-67.3 75.65 -67.6 78.2 L-67.9 82.55 Q-68.05 84.25 -69.3 87.55 L-70.4 90.7 Q-70.4 91.3 -70.0 91.3 -67.95 91.3 -64.2 87.9 -60.4 84.45 -59.3 81.05 L-56.35 85.1 Q-58.1 87.5 -58.8 90.3 -59.45 92.95 -59.45 95.3 -59.45 97.8 -58.7 97.8 -58.1 97.8 -57.45 96.4 L-56.6 94.5 -55.55 92.5 Q-54.85 91.2 -52.5 89.45 L-50.75 91.15 Q-51.35 92.5 -51.45 94.25 L-51.65 98.45 -51.35 102.7 Q-50.9 105.5 -50.1 105.5 -48.95 105.5 -48.3 101.7 L-47.7 98.85 -46.05 95.15 -41.25 98.45 Q-41.85 99.9 -42.05 101.4 L-42.3 103.85 Q-42.3 106.8 -41.0 110.15 -39.7 113.4 -38.7 113.4 -37.65 113.4 -37.35 111.75 L-37.0 108.8 Q-36.7 107.7 -35.8 106.2 -34.4 104.0 -33.85 102.15 L-32.7 102.7 -32.7 106.45 Q-32.7 108.9 -31.65 111.2 -30.35 114.0 -28.25 114.75 L-25.1 116.5 Q-23.85 117.25 -22.75 117.95 -22.35 117.95 -22.05 117.6 L-21.85 116.85 -23.25 113.7 Q-24.8 110.7 -24.8 109.45 L-24.7 108.25 Q-24.55 107.4 -24.55 105.1 L-20.75 105.85 Q-20.35 107.95 -18.4 110.35 -16.3 112.9 -15.05 112.9 -14.15 112.9 -14.15 112.05 -14.15 111.2 -14.55 110.1 L-15.55 106.55 -10.65 106.85 Q-11.0 109.2 -6.7 113.4 -2.4 117.6 -0.75 117.6 -0.4 117.6 0.05 117.3 L0.5 116.55 -1.25 113.7 Q-3.1 110.9 -3.1 109.2 L-3.1 108.0 Q-3.2 107.05 -2.7 106.8 L0.85 106.45 Q0.9 108.7 2.0 109.6 2.85 110.25 4.45 110.75 5.7 111.1 7.95 112.25 9.95 113.35 10.2 113.35 11.3 113.35 11.3 112.3 11.3 111.4 9.95 109.3 8.45 107.0 7.95 105.45 L9.8 105.1 11.55 106.8 Q12.5 107.5 13.2 107.65 14.5 107.85 17.95 109.2 21.15 110.3 22.4 110.9 L24.15 112.0 25.65 112.9 26.3 112.6 26.65 111.8 Q26.65 110.55 24.0 106.65 21.65 103.2 19.75 101.85 L21.5 101.0 23.8 99.9 Q26.05 100.7 28.8 102.05 L31.15 103.35 Q32.2 103.35 32.2 102.4 32.2 101.5 31.35 100.55 L30.15 99.2 37.55 99.0 42.95 98.8 43.15 98.75 Q47.9 98.35 47.9 97.45 47.9 96.15 42.95 94.75 L42.3 94.55 36.25 93.2 33.3 93.2 37.2 89.5 42.85 88.9 42.95 88.9 Q46.6 88.15 46.6 87.25 46.6 86.45 45.45 85.8 44.35 85.2 43.3 85.2 L41.05 85.2 42.95 82.85 43.1 82.7 43.8 81.3 47.3 79.95 Q48.9 79.1 50.25 79.0 L53.7 78.35 Q56.4 77.7 56.4 76.9 56.4 76.2 52.75 75.45 L47.4 74.8 Q48.95 72.1 50.65 69.45 L57.7 68.9 Q62.8 68.6 62.8 67.55 62.8 66.95 59.8 65.0 57.05 63.2 55.25 62.55 L55.7 61.9 57.2 59.75 62.15 60.45 64.95 60.0 Q66.95 59.35 67.9 59.35 L70.8 59.55 Q73.0 59.5 73.0 58.25 73.0 56.95 69.15 55.5 65.7 54.3 63.75 54.3 L61.45 54.3 63.75 51.7 Q65.45 50.35 72.85 49.15 80.15 48.0 80.15 47.7 80.15 47.4 77.35 46.4 74.15 45.25 72.15 44.3 74.05 43.4 76.0 42.7 88.4 44.0 95.9 51.05 82.35 49.5 71.9 52.85 83.3 56.55 89.0 61.25 77.7 65.15 66.55 63.75 76.0 69.95 79.05 76.05 69.15 73.15 59.4 73.25 68.65 77.4 72.15 83.45 60.3 80.0 48.4 83.45 56.7 86.8 60.1 91.1 51.5 89.45 44.85 91.65 59.1 94.25 64.75 101.85 53.8 104.2 42.95 103.15 L34.85 101.85 Q39.0 106.55 38.2 111.3 L28.0 105.7 Q34.85 115.5 31.55 126.35 26.3 116.2 15.2 112.05 L16.25 120.45 Q10.25 114.4 2.2 113.35 6.75 121.95 14.25 128.65 -2.25 127.25 -11.3 112.85 L-10.05 122.0 Q-14.8 116.35 -19.5 113.55 -15.05 123.1 -15.15 131.7 -19.65 121.5 -25.1 119.7 -30.8 119.25 -34.6 112.85 -38.1 118.55 -34.85 124.35 -43.9 117.85 -46.6 107.7 -51.55 117.05 -48.35 126.35 -56.4 113.25 -55.25 99.25 L-62.4 112.55 Q-66.55 102.65 -61.8 92.65 -71.3 99.85 -81.3 102.2 L-86.55 103.1 Q-83.7 100.75 -81.3 98.15 -74.3 90.55 -71.8 80.65 -76.25 84.95 -81.3 87.25 -85.05 88.9 -89.15 89.55 -86.65 82.5 -81.3 76.95 -78.3 73.85 -74.35 71.25 -78.05 71.45 -81.3 71.1 -91.9 69.9 -97.85 62.25 -89.6 61.7 -81.3 58.45 L-75.15 55.65 -85.9 53.85 -78.2 48.5 -91.7 46.7 Q-86.05 45.3 -81.3 42.5 L-76.9 39.6 -81.3 39.85 Q-92.4 40.05 -100.1 34.7 -89.5 33.6 -81.3 28.9 -78.3 27.2 -75.65 24.95 L-85.55 21.7 -81.3 22.05 Q-75.7 21.75 -70.0 18.1 -77.15 15.7 -81.3 12.2 -83.85 10.0 -85.35 7.35 L-81.3 8.85 Q-74.55 10.6 -67.25 8.4 -71.2 6.4 -75.15 4.35 -67.85 5.65 -62.4 2.5 L-74.15 -5.05 Q-62.8 -4.15 -52.45 -7.9 -62.45 -8.0 -71.55 -15.05 -56.3 -19.3 -44.95 -16.55 L-54.95 -31.15 Q-45.25 -24.55 -35.55 -25.0 -41.25 -28.45 -46.0 -34.95 -38.85 -31.3 -30.7 -33.45 -39.4 -38.2 -44.25 -46.7 -33.05 -41.05 -20.8 -42.35 L-28.7 -49.8 Q-20.35 -51.5 -10.05 -46.45 -17.65 -54.0 -20.2 -65.55 -14.0 -59.05 -7.75 -57.45 2.3 -55.55 10.35 -48.8 L5.75 -57.95 Q21.2 -52.45 29.75 -43.95 26.3 -49.85 26.95 -56.7 34.95 -47.15 44.85 -44.4 L39.95 -51.35 Q49.65 -44.2 59.4 -53.6 48.6 -54.5 39.7 -60.0 45.05 -58.35 49.4 -62.85 52.9 -68.4 58.45 -72.0 49.8 -71.15 43.3 -76.35 49.05 -80.7 58.85 -81.15 43.05 -83.9 36.9 -98.0 49.8 -92.8 62.7 -96.75 55.65 -98.15 51.5 -102.35 57.35 -100.65 62.15 -103.85 53.55 -105.85 46.9 -112.8 59.45 -109.05 70.05 -111.3 62.15 -113.4 56.3 -120.45 62.9 -118.3 68.55 -118.95 58.25 -121.25 53.0 -131.75 61.15 -126.35 71.35 -126.9 84.85 -128.45 92.95 -121.85 M97.1 -97.2 L96.25 -97.15 Q94.1 -97.15 92.95 -99.55 92.45 -100.6 92.25 -101.85 96.6 -100.85 96.95 -107.3 97.9 -106.85 98.7 -105.55 100.1 -103.55 100.1 -101.45 100.1 -99.6 99.05 -98.4 98.3 -97.5 97.1 -97.2 M15.9 14.05 L16.8 15.55 18.85 18.1 14.85 16.95 13.4 15.5 12.35 13.9 Q11.55 12.75 11.05 12.75 10.35 12.75 10.15 13.35 9.95 13.65 9.95 14.65 L10.2 17.9 8.7 15.95 Q7.55 14.7 6.45 14.7 L5.9 14.9 5.1 16.45 3.15 12.85 3.25 11.5 3.6 11.25 4.15 11.1 Q4.95 11.1 5.95 12.05 L7.4 13.2 Q7.6 10.95 8.1 9.1 9.0 5.6 10.35 5.6 10.65 5.6 11.45 8.15 12.35 11.0 15.9 14.05 M-16.4 25.9 L-16.65 19.95 -16.4 16.25 Q-16.0 13.45 -15.15 13.45 L-13.8 16.2 Q-12.2 19.45 -10.25 21.8 L-10.15 21.8 -10.0 19.75 Q-9.75 18.1 -8.95 18.1 -8.55 18.1 -7.1 19.75 L-4.25 23.45 Q-3.85 25.6 -2.85 27.95 L-1.45 30.75 Q-4.1 29.25 -5.35 27.45 -6.45 25.85 -7.3 25.85 -8.5 25.85 -8.75 27.05 -8.95 28.1 -8.4 29.15 L-8.4 29.6 -10.65 26.25 Q-12.3 23.6 -12.95 23.6 -13.45 23.6 -13.8 24.05 L-14.1 24.9 Q-14.1 26.35 -12.95 29.9 L-11.45 35.3 -14.0 31.95 -16.4 25.9" fill="#4acffe" fill-rule="evenodd" stroke="none"/>
  </g>
</svg>
