<?xml version="1.0" encoding="UTF-8" standalone="no"?>
<svg xmlns:xlink="http://www.w3.org/1999/xlink" height="240.45px" width="180.3px" xmlns="http://www.w3.org/2000/svg">
  <g transform="matrix(1.0, 0.0, 0.0, 1.0, 90.15, 120.25)">
    <path d="M67.25 -104.25 L65.6 -101.25 59.95 -102.85 Q56.4 -103.95 56.4 -104.85 56.4 -105.75 57.75 -105.75 L59.75 -105.3 62.0 -104.85 63.15 -104.85 67.25 -104.25 M79.45 -116.95 Q74.95 -114.5 71.3 -110.2 66.9 -110.5 62.55 -113.35 L71.7 -114.5 Q68.1 -116.1 65.85 -120.25 74.6 -119.55 79.45 -116.95 M64.45 -98.6 L63.35 -95.75 Q59.05 -96.6 59.05 -97.3 59.05 -98.2 60.3 -98.5 L64.45 -98.6 M59.85 -77.3 L59.75 -73.4 52.6 -73.7 Q51.0 -73.65 51.95 -74.85 55.85 -76.75 59.85 -77.3 M61.7 -90.2 Q60.85 -86.85 60.4 -83.25 L56.5 -83.25 Q55.65 -83.25 51.7 -84.55 47.5 -86.0 47.5 -86.7 47.5 -87.5 48.25 -87.9 L49.3 -88.1 50.55 -87.9 Q51.65 -87.9 54.35 -89.05 56.9 -90.2 58.55 -90.2 L61.7 -90.2 M59.95 -66.95 L60.25 -63.1 60.55 -58.65 58.4 -56.8 56.5 -56.45 52.7 -56.3 50.15 -56.9 Q48.0 -57.5 48.0 -58.2 48.0 -58.65 49.05 -59.3 L50.3 -59.8 Q50.85 -59.95 51.65 -60.8 L52.95 -62.2 55.35 -65.05 Q56.7 -66.55 59.95 -66.95 M59.85 -46.5 Q58.65 -42.15 55.7 -39.15 54.7 -38.1 53.5 -37.25 50.2 -37.2 46.95 -38.45 43.2 -39.95 43.2 -41.35 43.2 -41.8 43.7 -42.05 44.15 -42.4 44.85 -42.4 L47.75 -42.05 Q50.2 -42.05 52.3 -43.75 54.7 -45.85 59.85 -46.5 M18.3 -39.05 L12.85 -40.55 10.0 -43.75 Q8.05 -45.85 8.05 -46.7 L8.4 -47.15 9.0 -47.35 Q9.9 -47.35 11.35 -46.4 L13.55 -45.0 Q15.25 -44.1 15.95 -43.4 17.25 -42.25 18.3 -39.05 M39.5 -33.85 Q36.45 -34.15 31.3 -35.4 27.9 -41.4 27.9 -42.15 27.9 -42.55 28.2 -42.85 28.45 -43.15 28.9 -43.15 29.5 -43.15 33.4 -39.6 L39.5 -33.85 M74.7 23.5 L74.65 20.65 Q74.65 19.55 75.1 19.55 75.55 19.55 76.45 20.5 L77.45 21.5 77.25 18.1 Q77.3 15.1 78.4 15.1 L80.45 16.9 Q82.65 18.65 85.05 19.6 87.45 24.75 90.15 26.0 L90.0 26.35 89.9 26.75 Q83.55 24.05 82.5 23.7 82.0 24.55 81.75 26.0 L81.5 28.0 81.35 28.0 81.2 28.2 Q77.6 27.35 74.7 23.5 M18.05 102.15 Q23.0 99.45 27.55 95.45 L30.5 95.45 Q32.65 95.7 36.55 96.8 L37.2 97.0 Q42.15 98.4 42.15 99.7 42.15 100.6 37.4 101.0 L37.2 101.05 31.8 101.25 24.4 101.45 25.6 102.8 Q26.45 103.75 26.45 104.65 26.45 105.6 25.4 105.6 L23.05 104.3 Q20.3 102.95 18.05 102.15 M13.1 20.35 Q14.6 22.0 16.1 22.9 L15.0 23.65 13.6 23.7 11.8 23.5 9.75 23.15 9.7 23.3 9.5 23.4 Q10.0 25.45 10.0 26.75 L9.9 26.75 9.75 27.0 Q3.5 26.75 0.75 21.9 L-0.65 18.7 0.15 17.15 0.7 16.95 Q1.8 16.95 2.95 18.2 L4.45 20.15 4.2 16.9 Q4.2 15.9 4.4 15.6 4.6 15.0 5.3 15.0 5.8 15.0 6.6 16.15 L7.65 17.75 9.1 19.2 13.1 20.35 M58.0 53.95 Q62.15 49.35 65.85 46.85 L66.4 46.55 71.6 48.65 Q74.4 49.65 74.4 49.95 L67.1 51.4 Q59.7 52.6 58.0 53.95 M72.1 19.05 Q73.2 21.3 74.4 23.05 L67.45 21.35 65.75 17.45 66.2 14.55 Q66.4 13.95 66.75 13.95 67.5 13.95 68.9 15.45 L72.1 19.05 M31.45 91.75 L35.3 87.45 37.55 87.45 Q38.6 87.45 39.7 88.05 40.85 88.7 40.85 89.5 40.85 90.4 37.2 91.15 L37.1 91.15 31.45 91.75 M-4.9 108.7 L2.2 107.7 Q2.7 109.25 4.2 111.55 5.55 113.65 5.55 114.55 5.55 115.6 4.45 115.6 L2.2 114.5 Q-0.05 113.35 -1.3 113.0 -2.9 112.5 -3.75 111.85 -4.85 110.95 -4.9 108.7 M4.05 107.35 Q9.4 106.1 14.0 104.1 15.9 105.45 18.25 108.9 20.9 112.8 20.9 114.05 L20.55 114.85 19.9 115.15 Q19.6 115.15 18.4 114.25 17.05 113.2 16.65 113.15 15.4 112.55 12.2 111.45 8.75 110.1 7.45 109.9 6.75 109.75 5.8 109.05 L4.05 107.35 M38.05 83.55 L41.65 77.05 47.0 77.7 Q50.65 78.45 50.65 79.15 50.65 79.95 47.95 80.6 L44.5 81.25 Q43.15 81.35 41.55 82.2 L38.05 83.55 M44.9 71.7 L49.5 64.8 Q51.3 65.45 54.05 67.25 57.05 69.2 57.05 69.8 57.05 70.85 51.95 71.15 L44.9 71.7 M51.45 62.0 Q53.7 59.0 55.7 56.55 L58.0 56.55 Q59.95 56.55 63.4 57.75 67.25 59.2 67.25 60.5 67.25 61.75 65.05 61.8 L62.15 61.6 Q61.2 61.6 59.2 62.25 L56.4 62.7 51.45 62.0 M-8.05 -41.7 L-12.45 -45.7 Q-15.85 -48.75 -15.85 -50.15 L-15.55 -50.6 -14.9 -50.8 Q-14.5 -50.8 -13.2 -50.0 L-11.75 -48.95 -7.75 -47.85 -3.45 -46.4 Q-1.0 -45.4 0.2 -42.4 L-8.05 -41.7 M-71.25 23.5 Q-73.55 29.75 -74.45 35.95 -76.65 37.25 -78.0 37.7 L-81.0 38.2 -84.6 38.05 -87.05 38.05 -87.4 38.15 -88.55 38.25 -89.5 38.15 -90.15 37.5 Q-90.15 36.85 -87.05 34.8 L-86.65 34.5 Q-83.6 32.55 -83.0 32.35 -80.75 31.5 -78.75 30.15 -76.7 28.7 -75.4 27.3 L-75.5 27.15 Q-78.15 26.35 -78.15 25.7 -78.15 25.15 -75.6 24.3 -73.55 23.65 -71.25 23.5 M-64.55 9.0 L-67.75 14.95 -68.7 16.95 -72.7 17.45 Q-80.6 17.05 -80.6 14.95 -80.6 14.0 -75.1 13.35 -69.65 12.7 -69.65 11.75 -69.65 11.3 -70.35 10.75 L-71.05 9.85 Q-71.05 9.2 -69.25 8.8 L-66.85 8.55 -64.55 9.0 M-7.2 33.0 L-5.3 36.2 -5.3 36.7 -7.35 36.7 Q-8.35 36.2 -9.6 36.05 L-11.4 35.65 Q-11.75 36.0 -12.3 37.7 L-13.2 39.7 Q-15.45 39.1 -17.2 37.55 L-18.7 32.15 Q-19.85 28.6 -19.85 27.15 L-19.55 26.3 -18.7 25.85 Q-18.05 25.85 -16.4 28.5 L-14.15 31.85 -14.15 31.4 Q-14.7 30.35 -14.5 29.3 -14.25 28.1 -13.05 28.1 -12.2 28.1 -11.1 29.7 -9.85 31.5 -7.2 33.0 M-21.0 -35.9 L-25.25 -31.95 -31.35 -32.55 Q-35.75 -34.75 -35.75 -35.85 L-35.45 -36.55 -34.65 -36.65 -31.05 -36.35 -26.55 -36.55 -21.0 -35.9 M-28.65 -28.2 L-31.85 -24.2 -36.15 -24.6 Q-39.0 -25.2 -39.0 -26.1 -39.0 -26.85 -38.1 -26.85 -36.05 -26.85 -34.5 -27.5 L-32.35 -28.2 -28.65 -28.2 M-15.55 -39.25 L-16.55 -38.8 -18.8 -37.45 -20.7 -39.1 -21.75 -40.5 -23.2 -41.7 Q-24.25 -42.4 -24.25 -43.25 L-23.95 -43.7 Q-23.7 -43.9 -23.3 -43.9 -22.45 -43.9 -19.45 -42.25 -16.75 -40.75 -15.55 -39.25 M-57.8 -0.25 L-61.1 3.75 -64.65 2.8 Q-66.9 1.9 -66.9 0.95 -66.9 0.45 -66.4 0.25 L-65.65 0.0 -63.7 0.25 -60.6 -0.25 -57.8 -0.25 M-46.5 -9.25 L-49.25 -7.45 -51.25 -6.1 Q-53.4 -7.95 -56.25 -8.6 -60.2 -9.7 -60.2 -10.65 -60.2 -11.2 -59.35 -11.4 L-58.05 -11.45 -52.35 -10.8 Q-47.95 -10.15 -46.5 -9.25 M-36.4 -18.5 Q-38.3 -16.25 -40.35 -14.3 -43.0 -15.0 -45.25 -16.05 -48.65 -17.65 -48.65 -18.8 L-48.25 -19.2 -47.65 -19.35 -45.35 -18.65 -41.3 -18.0 -39.85 -18.2 -36.4 -18.5 M-75.2 43.05 L-75.25 45.75 Q-75.25 49.85 -74.9 53.75 L-77.75 54.3 -79.95 54.8 Q-82.5 54.8 -82.5 53.85 -82.5 53.4 -81.6 52.9 L-79.7 51.8 Q-76.85 49.95 -76.85 46.95 L-76.85 46.5 -78.4 46.85 -79.55 47.05 Q-82.1 47.05 -82.1 46.4 -82.1 45.55 -79.45 44.55 L-75.2 43.05 M-71.2 70.95 Q-68.8 77.5 -65.05 83.3 -66.15 86.7 -69.95 90.15 -73.7 93.55 -75.75 93.55 -76.15 93.55 -76.15 92.95 L-75.05 89.8 Q-73.8 86.5 -73.65 84.8 L-73.35 80.45 Q-73.05 77.9 -72.3 76.1 L-76.6 77.5 -78.55 78.6 Q-80.35 79.6 -80.75 79.6 -81.2 79.6 -81.2 78.9 -81.2 77.4 -77.05 74.4 -73.65 72.05 -71.2 70.95 M-74.3 58.75 L-72.7 66.3 -75.4 67.15 -77.55 67.45 -78.9 67.65 -80.05 67.7 -85.1 67.25 -87.05 66.65 Q-88.6 66.1 -88.6 65.15 -88.6 64.4 -87.05 63.8 L-85.9 63.4 -81.9 62.55 Q-80.25 62.1 -78.75 61.2 L-74.3 58.75 M-62.1 87.35 L-58.65 91.3 -58.25 91.7 Q-60.6 93.45 -61.3 94.75 L-62.35 96.75 -63.2 98.65 Q-63.85 100.05 -64.45 100.05 -65.2 100.05 -65.2 97.55 -65.2 95.2 -64.55 92.55 -63.85 89.75 -62.1 87.35 M-47.0 100.7 Q-43.45 102.85 -39.6 104.4 -40.15 106.25 -41.55 108.45 -42.45 109.95 -42.75 111.05 L-43.1 114.0 Q-43.4 115.65 -44.45 115.65 -45.45 115.65 -46.75 112.4 -48.05 109.05 -48.05 106.1 L-47.8 103.65 Q-47.6 102.15 -47.0 100.7 M-38.45 104.95 Q-34.5 106.4 -30.3 107.35 -30.3 109.65 -30.45 110.5 L-30.55 111.7 Q-30.55 112.95 -29.0 115.95 L-27.6 119.1 -27.8 119.85 Q-28.1 120.2 -28.5 120.2 -29.6 119.5 -30.85 118.75 L-34.0 117.0 Q-36.1 116.25 -37.4 113.45 -38.45 111.15 -38.45 108.7 L-38.45 104.95 M-26.5 108.1 L-21.3 108.8 -20.3 112.35 Q-19.9 113.45 -19.9 114.3 -19.9 115.15 -20.8 115.15 -22.05 115.15 -24.15 112.6 -26.1 110.2 -26.5 108.1 M-16.4 109.1 L-13.7 109.1 -8.45 109.05 Q-8.95 109.3 -8.85 110.25 L-8.85 111.45 Q-8.85 113.15 -7.0 115.95 L-5.25 118.8 Q-5.25 119.25 -5.7 119.55 L-6.5 119.85 Q-8.15 119.85 -12.45 115.65 -16.75 111.45 -16.4 109.1 M-56.5 93.4 L-51.8 97.4 -53.45 101.1 -54.05 103.95 Q-54.7 107.75 -55.85 107.75 -56.65 107.75 -57.1 104.95 L-57.4 100.7 -57.2 96.5 Q-57.1 94.75 -56.5 93.4" fill="#ffffff" fill-rule="evenodd" stroke="none"/>
  </g>
</svg>
