<?xml version="1.0" encoding="UTF-8" standalone="no"?>
<svg xmlns:xlink="http://www.w3.org/1999/xlink" height="148.65px" width="145.55px" xmlns="http://www.w3.org/2000/svg">
  <g transform="matrix(1.0, 0.0, 0.0, 1.0, 72.8, 74.35)">
    <path d="M69.2 -63.85 Q67.85 -64.5 66.65 -66.75 65.25 -69.45 65.25 -70.95 70.2 -69.2 69.0 -74.35 70.4 -73.1 71.3 -71.05 72.4 -68.5 72.4 -66.7 72.4 -65.6 71.9 -64.65 L71.35 -63.95 Q70.9 -63.55 70.35 -63.55 L69.2 -63.85 M34.05 -28.35 L34.55 -28.15 36.6 -26.85 Q39.65 -30.6 44.15 -33.85 L47.5 -31.7 47.45 -35.15 Q55.05 -38.35 62.85 -38.2 67.75 -38.05 72.75 -36.6 70.4 -29.8 65.45 -26.4 L61.95 -28.45 63.1 -22.9 Q56.7 -19.0 49.55 -17.7 52.3 -15.25 54.85 -10.5 56.6 -7.35 57.1 -5.55 L57.4 -4.15 Q57.4 -2.35 55.9 -1.4 54.7 -0.65 53.1 -0.65 L51.4 -0.45 51.75 -0.75 53.0 -1.8 54.35 -2.8 49.5 -10.35 Q46.85 -14.1 44.05 -17.0 38.05 -16.75 31.55 -18.1 32.65 -21.3 34.6 -24.2 L32.85 -25.2 31.85 -25.65 Q31.1 -24.2 29.5 -22.8 L29.5 -24.75 Q29.5 -26.0 30.65 -27.25 31.8 -28.5 32.9 -28.5 L34.05 -28.35 M22.2 -18.7 Q16.0 -18.1 9.8 -20.5 L10.55 -24.35 7.9 -23.05 Q-5.45 -29.65 -4.05 -47.05 6.45 -46.25 14.35 -40.75 L14.05 -35.85 16.35 -38.4 Q24.3 -34.9 26.65 -20.85 L24.6 -19.75 22.2 -18.7 M1.95 -10.35 L2.75 -12.0 Q3.55 -13.65 4.4 -14.25 L6.4 -15.1 8.7 -15.8 11.25 -15.45 Q13.6 -15.0 16.65 -13.65 21.25 -11.7 24.3 -9.35 27.0 -7.25 31.05 -1.85 35.45 3.95 35.65 6.6 L35.65 6.85 Q35.65 7.85 34.45 8.4 33.45 9.0 32.35 9.0 L31.6 8.5 30.1 6.4 28.25 3.0 Q27.3 1.4 25.55 -0.5 L22.6 -3.75 19.15 -6.65 15.2 -9.35 10.25 -11.15 5.45 -12.7 Q4.7 -12.7 1.95 -10.35 M24.85 21.2 L25.8 20.95 Q26.7 20.95 27.5 22.45 28.25 23.75 28.25 24.6 28.25 25.3 27.3 25.7 L26.55 25.95 24.0 26.25 12.95 25.3 Q6.8 24.4 1.75 22.8 -3.5 21.2 -7.5 18.05 L-8.95 16.75 Q-11.8 14.0 -11.8 11.45 L-11.4 10.2 Q-11.0 9.45 -10.45 9.45 L-8.2 11.45 Q-5.2 13.8 -1.85 15.8 8.95 22.1 19.75 22.1 L23.65 21.55 24.85 21.2 M-7.95 38.2 L-8.45 37.3 Q-8.45 35.8 -7.55 34.85 -6.6 33.85 -4.9 33.85 L-4.1 34.05 Q-2.35 34.8 2.4 38.25 8.6 42.8 10.1 45.05 L17.45 56.1 Q19.55 59.55 20.0 61.8 L20.1 62.9 Q20.1 65.25 19.2 66.35 18.3 67.5 16.4 67.5 L14.5 67.0 14.35 66.95 Q13.15 66.55 12.2 65.5 L14.15 64.7 Q13.15 59.35 11.05 56.25 L11.85 55.85 Q13.35 54.9 13.35 53.35 13.35 51.9 11.4 51.9 L9.35 52.3 8.75 52.7 8.25 51.8 7.35 50.6 7.0 49.35 Q6.4 48.1 5.15 48.1 L4.9 48.1 Q4.1 46.75 2.15 45.0 0.15 43.2 -2.6 41.3 L-6.4 39.25 -7.95 38.2 M-46.5 -3.2 L-48.65 -4.8 Q-52.1 -7.2 -53.7 -7.2 L-55.85 -7.05 -56.35 -6.8 -54.1 -8.65 -53.5 -8.9 -51.45 -9.4 Q-49.35 -9.4 -46.95 -8.4 -45.45 -7.75 -44.7 -6.95 -43.9 -6.1 -43.9 -5.05 L-44.1 -3.6 Q-44.6 -2.4 -45.55 -2.4 L-46.5 -3.2 M-43.55 35.95 Q-42.1 35.0 -41.0 35.0 -39.7 35.0 -38.55 36.1 -37.5 37.1 -36.4 39.15 -37.7 38.95 -39.25 39.65 L-42.35 41.3 Q-44.1 42.3 -46.05 45.0 L-48.75 49.2 Q-51.65 53.25 -53.25 59.15 -53.5 60.15 -53.55 62.7 L-53.95 64.0 Q-54.35 64.75 -55.2 64.75 -56.3 64.75 -57.25 63.8 -58.15 62.95 -58.15 62.2 L-56.7 55.55 Q-56.0 52.4 -52.9 47.0 -49.85 41.8 -46.45 38.4 L-43.55 35.95 M-23.6 41.3 Q-22.35 38.5 -20.6 38.5 -18.9 38.5 -17.5 39.35 L-17.95 41.2 -18.85 45.7 Q-19.55 50.05 -19.55 53.45 -19.55 60.25 -18.5 65.3 L-16.75 71.25 -13.6 71.0 Q-14.3 72.8 -15.55 73.5 L-15.65 73.6 Q-16.85 74.3 -18.0 74.3 -20.55 74.3 -22.2 71.2 -22.95 70.0 -23.5 68.3 -24.7 64.75 -25.3 61.45 -26.0 58.05 -26.0 55.55 -26.0 49.3 -24.7 44.35 L-23.6 41.3 M-65.0 7.0 L-62.8 5.85 Q-59.25 4.2 -57.25 4.2 -54.15 4.2 -52.05 4.95 -50.75 5.35 -50.15 6.0 -49.6 6.5 -49.6 7.2 L-49.9 8.9 Q-50.25 10.3 -50.6 10.3 L-51.25 9.95 -52.8 9.25 Q-55.0 8.25 -57.2 8.25 L-57.25 8.25 -61.0 8.9 -61.2 8.5 Q-61.55 8.1 -62.4 8.1 -63.55 8.1 -64.45 9.35 L-65.55 11.3 -66.5 9.45 -66.5 8.75 Q-66.5 7.95 -65.0 7.0 M-50.9 23.7 L-50.05 24.05 Q-48.9 24.85 -48.9 27.95 L-49.0 28.5 -49.15 29.05 -49.6 29.05 Q-50.95 28.55 -51.45 28.4 L-53.2 28.15 Q-58.45 28.15 -65.2 31.5 -68.35 33.1 -70.35 34.55 L-69.9 37.95 Q-71.4 37.0 -72.05 35.95 L-72.15 35.8 Q-72.8 34.7 -72.8 34.0 -72.8 32.45 -71.05 30.45 L-70.6 29.9 Q-69.05 28.25 -67.1 27.35 L-64.25 25.85 Q-62.55 24.9 -61.2 24.55 L-56.75 23.55 -54.15 23.3 -53.9 23.35 -50.9 23.7" fill="#56ee86" fill-rule="evenodd" stroke="none"/>
  </g>
</svg>
