<?xml version="1.0" encoding="UTF-8" standalone="no"?>
<svg xmlns:xlink="http://www.w3.org/1999/xlink" height="186.25px" width="171.25px" xmlns="http://www.w3.org/2000/svg">
  <g transform="matrix(1.0, 0.0, 0.0, 1.0, 85.65, 93.15)">
    <path d="M37.3 -29.05 L35.85 -37.1 Q35.4 -40.25 35.4 -42.0 35.4 -48.6 37.35 -50.65 39.6 -53.0 47.6 -53.7 53.05 -54.15 57.45 -57.8 62.1 -61.7 62.1 -66.5 62.1 -76.25 51.8 -84.55 47.5 -88.0 42.55 -90.05 37.65 -92.15 33.8 -92.15 20.65 -92.15 13.3 -79.65 7.2 -69.2 7.2 -55.15 7.2 -52.15 7.65 -46.3 L8.15 -37.5 Q8.15 -35.25 7.75 -32.45 12.3 -31.5 14.4 -26.75 L15.1 -24.85 Q26.9 -33.25 37.3 -29.05 L37.3 -29.0 Q39.25 -31.15 41.2 -29.85 45.85 -22.65 50.8 -9.1 L59.4 15.85 Q64.7 30.9 69.65 40.2 76.3 52.5 84.6 59.25 58.9 59.45 41.95 34.45 L41.6 35.1 Q37.1 43.5 29.1 50.1 24.35 54.0 19.05 56.85 L18.75 59.9 18.7 60.65 Q18.7 64.65 26.75 73.35 L32.5 79.45 Q35.3 82.4 35.6 83.4 L29.95 81.2 29.15 87.1 24.6 82.05 23.85 88.3 19.65 81.85 Q16.9 78.0 14.55 75.55 L8.95 70.5 Q6.05 67.5 6.35 65.05 6.1 64.55 5.9 61.9 1.05 63.05 -3.85 63.1 -4.85 65.4 -4.85 67.6 -4.85 74.5 -0.35 79.55 L3.65 83.7 Q6.1 86.25 7.45 88.55 L7.3 88.6 7.05 88.7 4.6 88.05 2.05 87.1 2.05 92.0 -2.85 88.05 -5.15 92.1 -9.95 83.9 -12.6 80.4 Q-14.3 78.25 -14.75 76.55 -15.9 71.95 -16.7 66.3 L-17.45 61.05 Q-25.5 59.95 -32.55 54.5 -48.65 58.55 -63.1 53.9 -52.7 49.45 -44.9 42.0 -47.45 40.8 -49.15 38.6 L-51.45 35.0 -53.15 30.9 -55.05 25.85 -58.45 16.7 Q-60.35 12.0 -62.25 8.5 -66.7 0.15 -72.45 -5.3 -78.35 -10.9 -84.65 -12.75 L-81.65 -13.4 -79.2 -13.75 Q-71.9 -13.75 -64.95 -11.4 -57.1 -8.8 -51.0 -3.55 -45.5 1.1 -40.75 7.9 -34.8 16.45 -30.15 20.65 L-12.85 -15.9 Q-8.85 -21.85 -5.65 -25.6 0.6 -32.7 5.3 -32.7 L7.75 -32.45 M34.1 -73.25 Q33.3 -72.55 32.65 -71.45 31.85 -70.05 31.55 -68.6 L31.35 -66.8 Q31.35 -64.25 32.05 -62.5 33.05 -60.05 35.25 -60.05 L35.6 -60.05 Q37.45 -60.15 38.55 -61.75 39.65 -63.25 39.65 -65.3 39.65 -67.8 38.4 -70.35 L37.45 -71.95 Q36.25 -73.4 34.75 -73.4 L34.1 -73.25 Q35.25 -74.2 36.75 -74.2 40.6 -74.2 43.2 -69.55 M37.3 -29.0 L38.8 -28.45 Q44.35 -10.25 45.3 -5.25 46.65 1.75 46.65 15.2 46.65 25.3 41.95 34.45 M15.1 -24.85 Q16.25 -20.9 16.25 -14.85 16.25 -12.65 15.05 -6.1 L12.2 4.05 11.95 4.9 Q13.8 20.5 3.1 37.4 L3.95 39.95 Q4.35 41.3 4.35 44.4 4.35 50.2 -0.25 57.1 L-3.4 62.15 -3.85 63.1 M1.75 33.65 L3.1 37.4 M19.05 56.85 Q16.1 58.45 13.05 59.6 9.45 61.05 5.9 61.9 M-30.15 20.65 L-30.55 21.55 Q-36.1 33.65 -44.9 42.0 M-18.15 55.45 L-17.45 61.05 M11.95 4.9 Q-1.3 47.0 -29.55 53.65 L-32.55 54.5" fill="none" stroke="#643a2b" stroke-linecap="round" stroke-linejoin="round" stroke-width="2.0"/>
  </g>
</svg>
