<?xml version="1.0" encoding="UTF-8" standalone="no"?>
<svg xmlns:xlink="http://www.w3.org/1999/xlink" height="130.85px" width="124.95px" xmlns="http://www.w3.org/2000/svg">
  <g transform="matrix(1.0, 0.0, 0.0, 1.0, 62.45, 65.45)">
    <path d="M-4.1 -61.4 L-4.2 -62.3 Q-4.2 -65.45 -0.7 -65.45 1.2 -65.45 1.85 -64.9 2.55 -64.35 2.55 -62.35 L2.55 -62.25 Q2.55 -60.5 1.8 -59.35 L-0.7 -56.15 -3.35 -59.45 Q-3.95 -60.4 -4.1 -61.4 M0.75 -62.85 L0.95 -61.85 0.65 -61.1 0.4 -60.3 Q0.4 -59.7 0.95 -59.7 1.5 -59.7 1.65 -60.6 L1.75 -61.95 Q1.75 -63.35 1.25 -63.35 L0.95 -63.2 0.75 -62.95 0.75 -62.85 M0.9 -58.75 L0.75 -59.15 0.35 -59.25 0.0 -59.15 -0.2 -58.75 0.0 -58.35 Q0.15 -58.2 0.35 -58.2 L0.75 -58.35 0.9 -58.75" fill="#359cfd" fill-rule="evenodd" stroke="none"/>
    <path d="M7.3 -36.35 Q11.5 -34.25 11.45 -40.5 12.2 -39.95 12.65 -38.45 13.25 -36.65 13.25 -34.4 13.25 -32.7 12.55 -31.4 11.95 -30.15 10.45 -29.85 9.1 -29.85 8.1 -32.05 7.3 -33.9 7.3 -35.6 L7.3 -36.35 M22.15 -3.35 L22.4 -3.65 22.05 -3.7 23.65 -4.05 22.35 -2.7 22.15 -3.35 M23.4 -2.2 L24.2 -2.95 24.5 -2.0 24.0 -1.4 23.4 -2.2 M30.95 -3.25 L32.05 -8.95 Q39.95 -6.15 45.35 -5.0 L45.35 -4.8 45.4 -3.85 44.55 -4.2 Q43.95 -4.2 43.95 -3.65 43.95 -3.25 44.4 -3.0 44.75 -2.8 46.05 -2.3 45.9 -1.75 46.05 -1.15 L45.2 -1.5 44.2 -1.65 Q43.7 -1.65 43.7 -0.85 L43.85 -0.15 44.1 0.35 44.0 0.4 43.95 0.5 42.95 0.35 42.6 -0.55 Q42.25 -1.25 41.85 -1.25 L41.5 -1.1 41.35 -0.6 41.8 0.2 41.8 0.35 41.35 0.2 Q40.6 0.2 40.6 0.7 L40.8 1.05 41.5 1.05 41.15 1.45 40.8 1.9 41.0 2.3 Q41.2 2.5 41.35 2.5 41.85 2.5 42.2 2.05 L42.8 1.2 43.85 1.55 44.9 1.75 44.8 1.75 44.15 2.5 Q43.8 2.9 43.8 3.35 43.8 3.75 44.35 3.95 L44.95 4.3 44.55 5.1 43.95 4.95 43.25 4.95 42.35 4.95 Q42.0 5.0 41.85 5.4 L42.4 5.95 Q42.7 6.25 43.15 6.15 L42.9 6.45 42.7 6.85 42.9 7.15 43.25 7.4 Q43.7 7.4 44.4 6.3 44.4 6.85 44.9 7.85 L45.35 7.85 45.4 7.05 45.25 5.75 45.75 5.0 46.4 5.95 47.3 6.75 47.85 6.55 48.25 6.0 48.5 6.65 48.7 7.1 48.0 8.7 48.15 8.95 Q48.35 9.15 48.55 9.15 L48.9 8.9 49.25 8.3 49.35 8.4 49.55 8.95 Q49.7 9.5 49.9 9.5 L50.15 9.3 50.25 9.05 50.1 8.35 50.0 7.9 51.25 8.3 Q51.85 8.3 51.85 7.85 51.85 7.65 51.25 7.45 L49.75 6.95 49.15 4.8 Q49.45 5.1 50.2 5.1 50.65 5.1 50.9 4.8 L51.2 4.1 51.0 3.65 50.9 3.1 51.85 3.1 52.45 4.3 Q52.75 4.8 53.35 4.8 L53.55 4.65 53.65 4.3 53.45 3.75 53.0 3.3 54.55 3.1 54.1 2.5 53.35 2.3 53.5 2.2 54.0 1.8 54.4 1.3 Q54.4 0.8 53.9 0.8 53.35 0.8 52.8 1.4 L52.1 1.9 50.9 1.75 51.55 1.05 51.9 0.25 Q51.9 0.0 51.2 -0.25 L50.4 -0.55 51.05 -1.5 Q51.35 -1.9 51.7 -1.9 L52.75 -1.75 Q53.75 -1.75 53.75 -2.4 53.75 -2.75 53.15 -2.8 L52.2 -2.95 52.55 -3.65 52.15 -4.0 51.8 -3.85 51.45 -3.6 51.45 -3.65 51.4 -3.65 51.2 -4.2 51.9 -4.2 55.15 -4.0 57.9 -4.2 60.4 -4.0 Q62.5 -3.7 62.5 -3.2 L62.45 -2.55 Q62.2 -0.85 60.8 2.9 L60.0 5.1 56.85 12.8 Q55.8 15.15 54.6 16.9 L51.8 20.2 48.7 23.45 Q46.9 25.2 45.0 25.3 38.85 22.9 32.0 16.1 L31.15 15.25 31.15 15.1 30.95 14.15 31.35 13.6 31.85 14.3 Q32.25 14.9 32.55 14.9 L32.95 14.75 33.25 14.35 33.45 14.85 33.65 15.15 33.05 16.35 33.2 16.55 33.5 16.7 33.75 16.5 34.0 16.05 34.1 16.15 34.25 16.55 34.5 16.95 34.7 16.8 34.8 16.6 34.7 16.1 34.55 15.8 35.55 16.05 Q35.95 16.05 35.95 15.7 L35.55 15.45 34.35 15.05 33.95 13.5 34.75 13.65 35.25 13.5 35.5 12.95 35.35 12.6 35.25 12.2 35.95 12.2 36.45 13.05 Q36.65 13.5 37.1 13.5 L37.3 13.4 37.35 13.05 37.2 12.65 36.85 12.3 38.05 12.2 37.65 11.8 37.15 11.55 37.2 11.5 37.65 11.2 37.9 10.85 Q37.9 10.5 37.5 10.5 37.1 10.5 36.7 10.9 L36.2 11.3 35.25 11.15 35.75 10.65 36.05 10.1 35.5 9.7 34.9 9.45 35.4 8.75 35.9 8.45 36.65 8.55 Q37.45 8.55 37.45 8.1 37.45 7.85 37.0 7.8 L36.25 7.7 36.5 7.15 36.2 6.85 35.95 7.05 35.7 7.25 35.65 7.15 35.6 7.15 Q35.45 6.4 35.15 6.4 34.9 6.4 34.8 6.65 L34.65 7.25 34.8 7.75 34.9 8.2 34.5 8.5 34.1 8.85 33.9 8.1 Q33.65 7.7 33.3 7.7 33.1 7.7 32.85 7.95 L32.6 8.3 32.55 8.3 32.5 8.25 32.3 7.55 32.8 7.1 33.05 6.45 33.0 6.05 32.6 5.95 32.2 6.15 31.85 6.55 Q31.75 5.8 31.4 5.8 31.2 5.8 31.15 5.95 L31.05 6.3 31.15 7.05 30.45 6.75 Q30.0 6.75 30.0 7.15 30.0 7.45 30.35 7.65 L31.6 8.2 Q31.45 8.55 31.6 8.95 L30.95 8.75 30.15 8.65 Q29.8 8.65 29.8 9.25 L29.9 9.75 30.1 10.15 30.05 10.2 30.0 10.2 29.3 10.15 28.95 9.45 Q28.7 8.9 28.45 8.9 28.25 8.9 28.15 9.05 L28.05 9.45 28.35 10.0 28.35 10.15 28.05 10.0 Q27.45 10.0 27.45 10.4 L27.6 10.7 28.15 10.7 27.85 10.95 27.6 11.3 27.6 11.35 Q23.75 6.65 21.15 1.6 L22.85 -0.9 22.85 -1.0 23.05 -1.3 23.55 -0.65 24.2 -0.05 Q24.45 -0.05 24.6 -0.2 L24.9 -0.55 Q24.9 -0.35 25.05 -0.1 L25.2 0.2 24.7 1.35 24.8 1.5 25.1 1.65 25.35 1.5 25.6 1.05 25.65 1.15 25.8 1.55 26.05 1.9 26.25 1.8 26.3 1.6 26.2 1.1 26.15 0.8 27.05 1.05 27.45 0.75 27.0 0.45 25.95 0.1 25.55 -1.45 26.25 -1.25 26.8 -1.45 27.0 -1.95 26.85 -2.3 26.8 -2.7 27.45 -2.7 27.9 -1.8 Q28.1 -1.45 28.5 -1.45 L28.7 -1.55 28.75 -1.8 28.6 -2.2 28.3 -2.55 29.4 -2.7 29.05 -3.05 28.55 -3.25 28.65 -3.35 29.0 -3.6 29.1 -3.75 30.95 -3.25 M25.15 -3.4 L26.0 -3.0 26.0 -2.2 25.15 -2.55 25.15 -3.4 M48.0 -4.5 L50.25 -4.25 50.1 -3.55 50.25 -2.8 50.45 -2.3 49.9 -1.9 49.35 -1.35 49.1 -2.35 Q48.8 -2.95 48.3 -2.95 48.05 -2.95 47.7 -2.55 L47.35 -2.1 47.3 -2.15 47.25 -2.2 47.0 -3.1 47.65 -3.75 48.0 -4.5 M27.25 -4.2 L28.2 -3.95 28.1 -3.9 27.6 -3.55 26.8 -3.65 27.25 -4.15 27.25 -4.2 M48.15 0.55 L47.6 -0.65 48.45 -1.35 48.75 -0.3 48.15 0.55 M44.95 -0.55 L46.35 -0.3 46.4 0.8 45.45 0.4 44.95 -0.55 M49.3 0.7 L50.55 0.7 50.05 1.5 48.7 1.45 49.3 0.7 M48.95 3.75 L48.5 2.8 49.55 3.1 50.25 4.1 48.95 3.75 M47.4 3.45 L47.95 4.3 47.45 5.4 46.85 4.15 47.4 3.45 M45.45 2.0 L46.8 2.0 46.0 3.1 44.85 3.1 45.45 2.0 M20.4 2.7 L20.45 2.7 Q23.95 7.6 27.0 20.25 L29.3 29.7 Q30.65 34.65 32.7 37.25 34.75 40.2 37.2 42.15 L36.9 42.0 36.25 41.95 Q35.95 41.95 35.95 42.45 L36.0 42.9 36.15 43.25 36.1 43.3 36.1 43.35 35.45 43.25 35.15 42.65 34.7 42.2 34.45 42.3 Q34.3 42.4 34.3 42.6 34.3 42.8 34.65 43.2 L34.65 43.25 34.3 43.15 Q33.85 43.15 33.85 43.45 L33.95 43.75 34.45 43.75 34.2 44.05 33.95 44.3 34.1 44.55 34.3 44.7 Q34.7 44.7 34.9 44.4 L35.3 43.85 36.0 44.05 36.7 44.2 36.65 44.2 36.2 44.7 Q35.95 44.95 35.95 45.3 L36.35 45.7 36.8 45.9 36.45 46.45 36.1 46.3 35.6 46.3 35.0 46.35 34.7 46.6 35.05 47.0 35.55 47.15 35.4 47.35 35.25 47.65 35.35 47.8 35.6 48.0 36.4 47.25 36.7 48.25 37.0 48.25 37.05 47.7 36.95 46.85 37.25 46.35 37.75 47.0 38.3 47.55 38.7 47.4 38.95 47.05 39.15 47.5 39.3 47.8 38.75 48.85 38.9 49.0 39.15 49.15 39.4 48.95 39.6 48.6 39.7 48.65 39.8 49.05 40.1 49.35 40.25 49.25 40.3 49.05 40.2 48.65 40.15 48.35 41.0 48.6 41.35 48.25 41.0 48.0 39.95 47.65 39.55 46.25 40.25 46.45 40.75 46.25 40.95 45.75 40.8 45.5 40.75 45.1 41.35 45.1 41.8 45.9 Q41.95 46.25 42.35 46.25 L42.5 46.15 42.6 45.9 42.45 45.5 42.1 45.2 43.15 45.1 Q47.6 46.3 52.95 45.2 41.65 58.3 24.0 62.35 L23.65 61.1 24.7 61.35 25.4 61.1 25.65 60.35 25.5 59.9 25.4 59.3 26.3 59.3 26.9 60.5 Q27.2 61.1 27.85 61.1 L28.05 60.9 28.1 60.5 27.9 59.95 27.45 59.5 29.05 59.3 28.55 58.75 27.85 58.5 27.95 58.45 Q28.15 58.3 28.5 58.05 L28.9 57.55 Q28.9 57.05 28.35 57.05 27.85 57.05 27.25 57.6 L26.55 58.15 25.4 58.0 26.05 57.25 26.4 56.5 25.7 55.95 24.85 55.7 25.55 54.75 Q25.8 54.3 26.2 54.3 L27.2 54.5 Q28.25 54.5 28.25 53.85 28.25 53.5 27.65 53.45 L26.65 53.3 27.05 52.6 Q27.05 52.25 26.6 52.25 L26.25 52.4 25.95 52.65 25.9 52.6 25.85 52.6 Q25.6 51.6 25.25 51.6 L24.75 51.95 24.55 52.7 24.75 53.4 24.95 53.95 24.4 54.3 23.85 54.9 23.55 53.9 Q23.25 53.3 22.75 53.3 22.5 53.3 22.2 53.7 L21.8 54.1 21.75 54.1 21.7 54.05 21.45 53.1 22.1 52.5 22.45 51.6 22.4 51.15 21.85 50.95 Q21.55 50.95 21.3 51.2 L20.9 51.75 Q20.7 50.75 20.3 50.75 20.0 50.75 19.9 50.95 L19.8 51.45 19.9 52.4 19.05 52.05 Q18.45 52.05 18.45 52.6 18.45 53.0 18.85 53.25 L20.55 53.95 Q20.35 54.5 20.55 55.05 L19.65 54.75 18.65 54.55 Q18.2 54.55 18.2 55.4 L18.3 56.1 18.55 56.6 18.45 56.65 18.45 56.7 17.45 56.6 17.05 55.7 Q16.75 54.95 16.35 54.95 L15.95 55.15 15.8 55.6 16.25 56.45 16.25 56.6 15.8 56.4 Q15.05 56.4 15.05 56.95 L15.25 57.3 15.95 57.35 15.6 57.7 15.25 58.15 15.45 58.5 Q15.65 58.7 15.8 58.7 16.3 58.7 16.65 58.3 L17.25 57.4 18.3 57.8 19.35 58.0 19.25 58.0 18.65 58.7 Q18.25 59.1 18.25 59.6 18.25 59.95 18.8 60.2 19.45 60.5 19.45 60.55 L19.0 61.35 Q18.8 61.2 18.45 61.15 L17.7 61.15 16.8 61.2 Q16.45 61.25 16.35 61.6 L16.85 62.2 17.65 62.35 17.4 62.65 17.2 63.1 17.4 63.4 17.7 63.65 18.9 62.55 19.15 63.55 15.4 64.3 10.05 65.05 -8.25 64.35 -13.9 63.05 -14.25 61.9 -13.2 62.15 -12.5 61.9 Q-12.25 61.6 -12.25 61.15 L-12.4 60.7 -12.5 60.15 -11.6 60.15 -11.0 61.35 Q-10.65 61.9 -10.05 61.9 L-9.85 61.75 -9.75 61.35 -10.0 60.8 -10.4 60.35 -8.85 60.15 Q-8.9 59.75 -9.35 59.6 L-10.0 59.3 -9.95 59.25 -9.4 58.85 -9.0 58.4 Q-9.0 57.85 -9.55 57.85 -10.05 57.85 -10.6 58.45 L-11.3 58.95 -12.5 58.8 -11.85 58.1 Q-11.5 57.7 -11.5 57.35 -11.5 57.05 -12.2 56.8 L-13.0 56.5 -12.35 55.55 Q-12.1 55.15 -11.7 55.15 L-10.65 55.35 Q-9.65 55.35 -9.65 54.7 -9.65 54.3 -10.2 54.3 L-11.25 54.1 -10.85 53.4 Q-10.85 53.05 -11.25 53.05 L-11.65 53.25 -11.95 53.5 -12.0 53.45 -12.05 53.4 Q-12.3 52.4 -12.65 52.4 -12.95 52.4 -13.15 52.8 L-13.35 53.5 -13.15 54.25 -12.95 54.75 -13.5 55.15 -14.05 55.7 Q-14.0 55.15 -14.3 54.7 -14.6 54.1 -15.1 54.1 -15.4 54.1 -15.7 54.5 L-16.05 54.95 -16.1 54.9 -16.15 54.9 -16.45 53.95 -15.8 53.3 Q-15.45 52.85 -15.45 52.45 L-15.5 51.95 -16.05 51.75 Q-16.3 51.75 -16.5 52.0 L-16.95 52.6 Q-17.15 51.6 -17.55 51.6 -17.9 51.6 -17.95 51.75 L-18.1 52.25 -17.95 53.25 -18.85 52.85 Q-19.4 52.85 -19.4 53.4 -19.4 53.8 -19.0 54.05 L-17.35 54.75 Q-17.55 55.3 -17.35 55.9 L-18.2 55.55 -19.2 55.4 Q-19.7 55.4 -19.7 56.2 L-19.6 56.9 -19.35 57.4 -19.4 57.45 -19.4 57.5 -20.45 57.4 -20.85 56.5 Q-21.15 55.75 -21.5 55.75 L-21.9 55.95 -22.1 56.45 -21.65 57.25 -21.65 57.4 -22.1 57.25 Q-22.8 57.25 -22.8 57.75 L-22.65 58.1 -21.9 58.15 -22.3 58.5 -22.65 58.95 -22.45 59.3 -22.1 59.55 Q-21.55 59.55 -21.25 59.1 L-20.65 58.25 -19.6 58.6 -18.6 58.8 -19.25 59.55 -19.6 60.4 -19.05 61.0 -18.4 61.35 -18.55 61.6 -23.55 59.65 -25.65 58.4 Q-37.1 51.85 -50.25 47.8 -45.65 44.75 -41.6 40.95 L-41.6 41.0 -41.6 41.15 -41.3 41.6 -41.3 41.75 Q-41.45 41.6 -41.6 41.6 -42.15 41.6 -42.15 42.0 L-42.0 42.2 -41.5 42.25 -41.75 42.5 -42.0 42.8 -41.9 43.1 -41.6 43.25 Q-41.25 43.25 -41.0 42.95 L-40.6 42.3 -39.85 42.6 -39.05 42.7 -39.15 42.7 -39.6 43.25 -39.85 43.85 -39.45 44.3 -39.0 44.55 -39.35 45.1 -39.75 45.0 -40.25 45.0 -40.9 45.0 -41.2 45.35 -40.85 45.75 -40.3 45.9 -40.5 46.1 -40.65 46.4 -40.5 46.6 -40.25 46.8 Q-39.95 46.8 -39.4 46.0 L-39.05 47.15 -38.75 47.15 -38.7 46.5 -38.8 45.6 -38.45 45.1 -37.95 45.75 -37.3 46.35 -36.9 46.15 -36.65 45.8 -36.45 46.3 -36.3 46.6 -36.85 47.7 -36.7 47.9 -36.4 48.05 -36.1 47.85 -35.9 47.45 -35.85 47.5 -35.7 47.95 -35.45 48.3 -35.25 48.2 -35.2 47.95 -35.3 47.5 -35.4 47.2 -34.45 47.45 -34.05 47.15 -34.45 46.8 -35.6 46.45 Q-35.85 45.15 -36.0 44.95 L-35.25 45.1 -34.7 44.95 -34.55 44.45 -34.65 44.05 -34.7 43.65 -34.05 43.65 -33.6 44.55 -32.95 44.95 -32.75 44.85 -32.75 44.55 Q-32.75 44.3 -32.9 44.15 L-33.2 43.85 -32.1 43.65 -32.45 43.25 -32.95 43.1 -32.85 43.0 -32.5 42.8 -32.2 42.4 Q-32.2 42.05 -32.55 42.05 -32.95 42.05 -33.35 42.45 L-33.85 42.8 -34.7 42.7 -34.25 42.2 -34.0 41.65 -34.45 41.25 -35.1 41.05 -34.6 40.35 Q-34.4 40.1 -34.15 40.1 L-33.4 40.2 Q-32.7 40.2 -32.7 39.75 L-33.1 39.45 -33.8 39.35 -33.55 38.85 Q-33.55 38.55 -33.8 38.55 L-34.1 38.7 -34.3 38.9 -34.35 38.85 -34.4 38.85 Q-34.55 38.1 -34.8 38.1 L-35.2 38.4 -35.3 38.9 -35.2 39.45 -35.05 39.85 -35.45 40.1 -35.85 40.5 Q-35.8 40.1 -36.05 39.75 L-36.6 39.35 -37.05 39.6 -37.3 39.95 -37.3 39.9 -37.35 39.9 -37.55 39.25 -37.1 38.75 -36.85 38.1 -36.9 37.8 Q-36.95 37.65 -37.25 37.65 -37.5 37.65 -37.65 37.8 L-37.95 38.25 -38.15 37.65 -38.3 37.5 -38.15 37.4 Q-33.0 31.75 -28.85 24.7 -22.45 13.85 -18.3 -0.55 L-16.05 -1.35 -11.7 6.3 -3.3 0.55 2.85 7.5 9.9 1.45 12.55 3.0 12.5 3.0 11.5 2.8 Q11.0 2.8 11.0 3.65 L11.15 4.3 11.35 4.8 11.3 4.9 11.25 4.95 10.25 4.8 9.9 3.9 Q9.55 3.2 9.15 3.2 8.95 3.2 8.8 3.35 L8.6 3.85 9.1 4.7 9.1 4.8 8.6 4.6 Q7.9 4.6 7.9 5.15 L8.1 5.55 8.8 5.55 8.4 5.95 8.05 6.4 8.25 6.75 8.6 6.95 Q9.15 6.95 9.5 6.5 L10.05 5.6 11.1 6.0 12.2 6.2 12.1 6.2 11.45 6.95 Q11.1 7.35 11.1 7.85 11.1 8.2 11.65 8.45 L12.25 8.75 11.8 9.55 11.25 9.4 10.55 9.4 9.6 9.4 Q9.3 9.5 9.15 9.85 L9.7 10.4 Q10.0 10.75 10.45 10.6 L10.2 10.9 10.0 11.35 10.2 11.6 10.55 11.85 11.7 10.75 Q11.7 11.35 12.2 12.3 L12.65 12.3 12.7 11.45 12.55 10.2 13.0 9.5 13.7 10.4 Q14.25 11.2 14.6 11.2 14.95 11.2 15.15 11.0 L15.55 10.5 15.8 11.15 16.0 11.55 15.25 13.15 15.45 13.4 Q15.65 13.6 15.85 13.6 16.15 13.6 16.2 13.4 L16.55 12.8 16.65 12.85 16.85 13.45 17.2 13.95 17.45 13.75 17.55 13.5 17.4 12.85 17.3 12.4 18.55 12.8 Q19.1 12.8 19.1 12.3 L18.55 11.9 17.0 11.4 16.45 9.3 17.5 9.55 18.25 9.3 18.45 8.55 18.3 8.1 18.25 7.55 19.1 7.55 19.75 8.75 Q20.05 9.3 20.65 9.3 L20.85 9.1 20.95 8.75 20.7 8.2 20.25 7.7 21.85 7.55 21.35 7.0 20.7 6.75 20.75 6.65 21.3 6.25 21.7 5.8 Q21.7 5.3 21.15 5.3 20.65 5.3 20.05 5.8 L19.4 6.4 18.25 6.2 18.8 5.5 19.2 4.75 19.1 4.55 20.4 2.7 M30.75 9.4 L31.7 9.7 32.0 10.2 31.3 10.2 30.75 9.4 M31.8 11.25 L31.75 11.9 30.6 11.9 31.4 11.25 31.8 11.25 M34.2 12.2 L34.5 13.1 33.55 12.7 33.55 11.7 34.2 12.2 M32.5 9.35 L33.05 8.75 33.55 9.45 33.05 10.3 32.5 9.35 M33.55 10.7 L34.15 10.3 35.1 10.3 34.45 11.0 33.55 10.7 M32.9 12.85 L32.5 14.1 32.0 12.85 32.3 12.1 32.9 12.85 M29.55 13.55 L27.9 11.7 28.05 11.75 Q28.4 11.75 28.65 11.4 L29.1 10.75 29.9 11.0 30.65 11.15 30.15 11.75 29.9 12.4 30.3 12.8 30.75 13.1 30.4 13.65 30.0 13.55 29.55 13.55 M12.95 6.55 L14.2 5.8 14.95 6.45 14.2 6.85 12.95 6.55 M15.65 7.5 L16.05 8.7 15.15 9.5 14.8 8.15 15.65 7.5 M19.65 7.05 L18.55 7.05 17.6 6.45 18.8 6.45 19.65 7.05 M17.2 8.55 L17.2 7.4 17.8 8.1 17.8 8.9 17.2 8.55 M2.8 38.15 L2.6 38.4 2.45 38.7 2.6 38.9 2.85 39.1 3.75 38.3 4.1 39.45 4.4 39.45 4.45 38.85 4.35 37.85 4.7 37.3 5.2 38.0 5.9 38.65 6.3 38.45 6.6 38.05 6.8 38.55 6.9 38.85 6.4 40.05 6.5 40.25 6.85 40.35 7.1 40.2 7.3 39.75 7.4 39.85 7.55 40.3 7.8 40.65 8.0 40.55 8.1 40.35 7.95 39.85 7.9 39.5 8.8 39.75 Q9.2 39.75 9.2 39.45 L8.8 39.1 7.7 38.75 7.3 37.2 8.05 37.4 8.55 37.2 8.75 36.65 8.65 36.3 8.55 35.9 9.2 35.9 9.7 36.75 Q9.95 37.2 10.4 37.2 L10.55 37.05 10.6 36.75 10.45 36.35 10.15 36.0 11.3 35.9 10.9 35.5 10.4 35.3 10.45 35.2 10.85 34.9 11.15 34.55 Q11.15 34.15 10.8 34.15 10.4 34.15 10.0 34.6 L9.4 35.0 8.55 34.9 9.0 34.35 9.3 33.75 8.8 33.4 8.15 33.15 8.7 32.45 Q8.9 32.15 9.15 32.15 L9.95 32.3 Q10.65 32.3 10.65 31.8 L10.25 31.5 9.5 31.4 9.8 30.9 9.5 30.6 9.2 30.7 8.95 30.9 8.9 30.9 Q8.75 30.1 8.45 30.1 8.25 30.1 8.1 30.4 L7.95 30.95 8.1 31.45 8.25 31.9 7.8 32.15 7.4 32.55 7.2 31.8 6.65 31.4 6.15 31.65 5.9 32.0 5.9 31.95 5.85 31.95 5.65 31.25 6.1 30.8 6.4 30.15 6.3 29.75 5.95 29.65 5.55 29.85 5.25 30.25 Q5.05 29.5 4.8 29.5 4.55 29.5 4.45 29.65 L4.4 30.0 4.45 30.7 3.8 30.5 Q3.4 30.5 3.4 30.9 L3.7 31.35 4.95 31.9 4.95 32.7 4.3 32.5 3.6 32.35 Q3.2 32.35 3.2 32.95 L3.3 33.45 3.45 33.85 3.45 33.9 3.4 33.95 2.65 33.85 2.4 33.15 1.85 32.6 1.55 32.75 Q1.4 32.9 1.4 33.15 L1.8 33.75 1.8 33.85 1.4 33.7 Q0.85 33.7 0.85 34.1 L1.05 34.4 1.55 34.4 1.25 34.7 1.0 35.0 1.15 35.3 1.4 35.4 2.05 35.1 2.55 34.45 3.3 34.7 4.1 34.9 4.0 34.9 3.55 35.4 Q3.25 35.75 3.25 36.05 L3.65 36.55 4.15 36.8 3.8 37.4 Q3.65 37.25 3.35 37.25 L2.85 37.25 2.2 37.25 Q1.9 37.3 1.85 37.6 L2.2 38.0 2.8 38.15 M4.95 33.3 L5.35 34.0 4.3 33.75 4.05 32.9 4.95 33.3 M4.4 34.75 L4.95 34.75 4.6 35.6 3.8 35.6 4.4 34.75 M6.2 33.55 L5.85 32.8 6.5 32.15 6.85 33.1 6.2 33.55 M7.55 34.3 L6.85 34.1 7.5 33.65 8.4 33.65 7.55 34.3 M6.5 35.25 L7.2 35.3 8.05 36.25 6.9 35.95 6.5 35.25 M5.8 35.85 L6.1 36.7 5.65 37.45 5.35 36.4 5.8 35.85 M38.1 46.6 L37.85 45.8 38.55 45.05 38.95 45.9 38.1 46.6 M39.25 45.05 L39.6 44.45 40.45 44.85 40.1 45.7 39.25 45.05 M37.35 44.7 L36.6 44.85 37.1 44.05 37.85 44.05 37.35 44.7 M24.0 58.05 L22.95 57.85 23.8 57.25 24.9 57.25 24.0 58.05 M20.85 56.65 L21.1 57.35 19.85 57.05 19.4 56.15 20.85 56.65 M22.75 56.1 L22.25 57.15 21.85 56.1 22.75 55.3 22.75 56.1 M21.55 59.9 L22.1 61.0 21.5 61.9 20.85 60.9 21.55 59.9 M22.7 59.05 L23.85 59.6 24.15 60.7 23.15 60.35 22.7 59.05 M-52.7 -6.35 L-50.7 -6.3 Q-43.55 -6.2 -36.3 -8.6 L-35.65 -8.3 -35.5 -7.15 -36.1 -7.35 -37.1 -7.55 Q-37.6 -7.55 -37.6 -6.7 L-37.5 -6.05 -37.25 -5.5 -37.3 -5.45 -37.35 -5.4 -38.35 -5.5 -38.75 -6.45 Q-39.05 -7.15 -39.45 -7.15 L-39.8 -6.95 -40.0 -6.5 -39.55 -5.65 -39.55 -5.5 Q-39.75 -5.7 -40.0 -5.7 -40.7 -5.7 -40.7 -5.2 -40.7 -4.85 -40.5 -4.8 L-39.8 -4.8 -40.2 -4.4 -40.55 -3.95 -40.35 -3.6 -40.0 -3.4 Q-39.45 -3.4 -39.15 -3.8 L-38.5 -4.65 -37.5 -4.3 -36.5 -4.15 -37.15 -3.35 -37.5 -2.5 Q-37.5 -2.15 -36.95 -1.9 L-36.3 -1.55 -36.8 -0.75 -37.35 -0.95 -38.1 -0.95 -38.95 -0.9 -39.45 -0.45 -38.95 0.1 -38.15 0.25 -38.4 0.6 -38.6 1.05 -38.4 1.25 -38.1 1.55 Q-37.65 1.55 -36.9 0.45 L-36.45 2.0 -36.0 2.0 -35.9 1.15 -36.05 -0.1 -35.6 -0.85 -34.9 0.1 Q-34.35 0.85 -34.0 0.85 L-33.45 0.7 -33.05 0.15 -32.75 0.8 -32.55 1.25 -33.35 2.8 -33.15 3.1 Q-32.95 3.3 -32.75 3.3 L-32.35 3.05 -32.05 2.45 -31.95 2.5 -31.75 3.1 -31.4 3.65 -31.1 3.45 -31.05 3.15 -31.2 2.5 -31.3 2.1 -30.05 2.45 Q-29.45 2.45 -29.45 2.0 -29.45 1.8 -30.05 1.6 L-31.6 1.05 -32.15 -1.05 Q-31.9 -0.75 -31.1 -0.75 -30.7 -0.75 -30.4 -1.05 -30.15 -1.3 -30.15 -1.75 L-30.3 -2.2 -30.4 -2.75 -29.45 -2.75 -28.85 -1.6 Q-28.6 -1.05 -28.0 -1.05 -27.85 -1.05 -27.75 -1.2 L-27.65 -1.6 -27.9 -2.15 -28.3 -2.6 -26.75 -2.75 Q-26.8 -3.15 -27.25 -3.35 L-27.95 -3.6 Q-27.85 -3.6 -27.85 -3.65 L-27.3 -4.05 -26.95 -4.55 Q-26.95 -5.05 -27.45 -5.05 -28.0 -5.05 -28.5 -4.45 L-29.25 -3.95 -30.4 -4.15 -29.75 -4.85 Q-29.4 -5.2 -29.4 -5.6 -29.4 -5.9 -30.1 -6.1 L-30.9 -6.45 -30.7 -6.7 -26.55 -7.85 -24.95 1.9 -20.45 0.3 Q-27.55 9.85 -36.3 18.0 -43.05 25.3 -52.85 26.55 -56.65 21.6 -58.05 14.9 -59.1 7.15 -61.0 -0.55 L-62.45 -6.3 Q-59.75 -7.4 -57.1 -6.9 L-56.8 -6.8 -56.1 -6.7 -56.0 -6.45 -56.6 -6.6 -57.35 -6.75 Q-57.65 -6.75 -57.65 -6.15 L-57.6 -5.7 -57.45 -5.4 -57.45 -5.3 -57.5 -5.3 -58.2 -5.4 -58.45 -6.0 -58.95 -6.5 -59.25 -6.35 -59.35 -6.05 -59.05 -5.45 -59.05 -5.4 -59.35 -5.5 Q-59.85 -5.5 -59.85 -5.15 L-59.75 -4.9 -59.25 -4.9 -59.5 -4.65 -59.75 -4.35 -59.6 -4.1 -59.35 -4.0 Q-59.0 -4.0 -58.75 -4.25 L-58.3 -4.85 -57.65 -4.6 -56.9 -4.45 -57.35 -3.95 -57.65 -3.35 -57.25 -2.95 -56.8 -2.75 -57.1 -2.2 -57.5 -2.35 -58.05 -2.35 -58.65 -2.3 -58.95 -2.0 -58.6 -1.65 -58.05 -1.55 -58.25 -1.3 -58.4 -1.05 -58.25 -0.85 -58.05 -0.65 Q-57.7 -0.65 -57.2 -1.4 L-56.85 -0.4 -56.55 -0.4 -56.45 -0.95 -56.6 -1.8 -56.25 -2.3 -55.8 -1.65 -55.2 -1.1 Q-54.95 -1.1 -54.75 -1.25 L-54.5 -1.6 -54.3 -1.15 -54.15 -0.85 -54.7 0.2 -54.55 0.35 -54.3 0.5 -54.0 0.3 -53.8 -0.05 -53.7 0.0 -53.6 0.4 -53.35 0.7 -53.15 0.6 -53.1 0.4 -53.2 0.0 -53.3 -0.3 -52.4 -0.05 Q-52.0 -0.05 -52.0 -0.4 L-52.45 -0.65 -53.5 -0.95 -53.9 -2.4 -53.1 -2.2 -52.65 -2.4 -52.45 -2.9 -52.55 -3.2 -52.65 -3.55 -52.0 -3.55 -51.6 -2.75 -50.95 -2.4 -50.8 -2.55 -50.7 -2.75 -50.85 -3.15 -51.2 -3.45 -50.05 -3.55 -50.45 -3.95 -50.9 -4.1 -50.85 -4.2 Q-50.65 -4.25 -50.45 -4.4 L-50.2 -4.75 Q-50.2 -5.05 -50.55 -5.05 -50.95 -5.05 -51.3 -4.7 -51.7 -4.35 -51.8 -4.35 L-52.65 -4.45 -52.2 -4.9 Q-51.9 -5.2 -51.9 -5.45 L-52.25 -5.7 -53.75 -5.5 -53.05 -6.0 -52.7 -6.35 M21.55 62.95 L19.9 63.4 19.9 63.25 19.7 62.0 20.2 61.25 20.9 62.2 21.55 62.95 M20.0 58.5 L20.85 58.5 20.45 59.6 19.4 59.6 20.0 58.5 M-56.2 -4.85 L-55.7 -4.85 -56.2 -4.0 -56.65 -4.2 -56.2 -4.85 M-53.3 -3.35 L-53.8 -3.35 -54.2 -4.15 -53.3 -3.85 -53.3 -3.35 M-55.2 -3.55 L-54.75 -2.75 -55.2 -2.35 -55.6 -2.8 -55.2 -3.55 M-11.75 -29.3 Q-13.2 -29.6 -13.85 -30.85 -14.5 -32.15 -14.5 -33.85 -14.5 -36.1 -13.95 -37.9 -13.5 -39.4 -12.7 -39.9 -12.8 -33.75 -8.55 -35.75 L-8.55 -35.05 Q-8.55 -33.35 -9.35 -31.5 -10.35 -29.3 -11.75 -29.3 M-30.75 -3.05 L-31.65 -3.45 -30.75 -4.0 -29.8 -3.45 -30.75 -3.05 M-32.3 -4.7 L-32.3 -5.85 -31.3 -5.45 -32.3 -4.7 M-35.2 -2.85 L-35.85 -3.45 -34.55 -4.1 -34.05 -3.65 -35.2 -2.85 M-32.85 -1.35 L-33.6 -0.8 -33.9 -1.9 -33.15 -2.8 -32.85 -1.35 M-30.65 -1.15 L-31.5 -1.5 -31.5 -2.4 -30.65 -1.8 -30.65 -1.15 M-18.9 23.7 L-19.15 24.0 -19.4 24.45 -19.2 24.7 -18.8 24.95 Q-18.35 24.95 -17.65 23.85 L-17.15 25.4 -16.7 25.4 -16.65 24.55 -16.8 23.3 -16.3 22.55 -15.65 23.5 Q-15.1 24.3 -14.75 24.3 L-14.2 24.1 -13.8 23.55 -13.55 24.25 -13.35 24.65 -14.05 26.2 -13.9 26.5 -13.5 26.7 -13.15 26.45 -12.8 25.9 -12.7 25.95 -12.5 26.55 -12.15 27.05 -11.9 26.85 -11.8 26.6 -11.95 25.95 -12.05 25.5 -10.8 25.9 Q-10.2 25.9 -10.2 25.4 -10.2 25.2 -10.8 25.0 L-12.3 24.5 -12.9 22.4 -11.85 22.65 -11.15 22.4 Q-10.85 22.15 -10.85 21.65 L-11.05 21.2 -11.15 20.65 -10.2 20.65 -9.6 21.85 Q-9.35 22.4 -8.7 22.4 L-8.5 22.2 -8.4 21.85 -8.6 21.25 -9.05 20.8 -7.5 20.65 Q-7.55 20.25 -7.95 20.1 L-8.7 19.8 -8.55 19.75 -8.05 19.35 -7.7 18.85 Q-7.7 18.4 -8.15 18.4 -8.7 18.4 -9.25 18.95 L-9.95 19.45 -11.15 19.3 -10.5 18.55 Q-10.15 18.2 -10.15 17.8 -10.15 17.5 -10.85 17.3 L-11.7 17.0 -11.0 16.05 Q-10.7 15.65 -10.3 15.65 L-9.35 15.8 Q-8.3 15.8 -8.3 15.15 -8.3 14.8 -8.9 14.75 L-9.85 14.65 -9.5 13.9 Q-9.5 13.55 -9.95 13.55 L-10.25 13.7 -10.6 14.0 -10.65 13.9 Q-10.9 12.9 -11.25 12.9 -11.6 12.9 -11.8 13.25 L-11.95 14.05 -11.8 14.7 -11.6 15.3 -12.15 15.7 -12.7 16.2 Q-12.65 15.7 -12.95 15.2 -13.25 14.65 -13.75 14.65 -14.0 14.65 -14.35 15.0 L-14.7 15.45 -14.75 15.4 -14.8 15.35 -15.05 14.45 -14.4 13.85 Q-14.05 13.35 -14.05 12.95 L-14.15 12.45 Q-14.25 12.25 -14.65 12.25 -15.0 12.25 -15.2 12.5 L-15.65 13.05 Q-15.8 12.05 -16.2 12.05 -16.5 12.05 -16.65 12.25 L-16.7 12.75 -16.65 13.7 Q-17.25 13.4 -17.5 13.4 -18.1 13.4 -18.1 13.9 L-17.65 14.55 -16.0 15.3 -16.0 16.35 -16.85 16.05 -17.85 15.9 Q-18.35 15.9 -18.35 16.7 L-18.2 17.4 -17.95 17.9 -18.05 17.95 -18.1 18.0 -19.05 17.9 -19.45 17.0 Q-19.8 16.3 -20.2 16.3 L-20.55 16.45 -20.7 16.95 -20.25 17.75 -20.25 17.9 -20.7 17.7 Q-21.45 17.7 -21.45 18.25 L-21.25 18.6 -20.55 18.65 -20.9 19.0 -21.3 19.45 -21.05 19.8 -20.7 20.0 Q-20.2 20.0 -19.85 19.6 L-19.25 18.75 -18.2 19.1 -17.15 19.3 -17.25 19.3 -17.9 20.0 -18.25 20.9 -17.75 21.5 -17.1 21.85 -17.55 22.65 Q-17.75 22.5 -18.1 22.45 L-18.8 22.45 -19.7 22.5 Q-20.05 22.55 -20.2 22.95 L-19.65 23.5 Q-19.4 23.8 -18.9 23.7 M-14.0 18.0 L-14.55 17.05 -13.55 16.4 -13.3 17.4 -14.0 18.0 M-12.1 18.95 L-13.15 18.75 -12.5 18.1 -11.35 18.5 -12.1 18.95 M-15.45 19.45 L-16.0 20.6 -16.95 20.6 -16.2 19.45 -15.45 19.45 M-15.45 18.15 L-16.55 18.15 -17.05 16.9 -15.8 17.3 -15.45 18.15 M-13.4 20.25 L-12.3 20.8 -12.3 21.6 -13.2 21.6 -13.4 20.25 M-47.35 18.35 L-47.55 18.55 -47.75 18.9 -47.55 19.1 -47.3 19.3 -46.4 18.45 -46.05 19.65 -45.7 19.65 -45.65 19.0 -45.8 18.05 -45.45 17.5 -44.9 18.2 -44.25 18.75 -43.85 18.65 -43.55 18.25 -43.35 18.75 -43.2 19.05 -43.75 20.2 -43.6 20.4 -43.3 20.6 -43.0 20.4 -42.8 19.95 -42.7 20.0 -42.55 20.45 -42.3 20.85 -42.1 20.7 -42.0 20.5 -42.15 20.0 -42.25 19.7 -41.25 19.95 -40.85 19.65 -41.3 19.3 -42.45 18.95 -42.85 17.3 -42.05 17.5 Q-41.75 17.5 -41.55 17.3 L-41.35 16.8 -41.45 16.45 -41.55 16.05 -40.85 16.05 -40.4 16.9 -39.7 17.3 -39.55 17.2 -39.45 16.9 -39.65 16.5 -39.95 16.2 -38.8 16.05 Q-38.85 15.75 -39.15 15.65 L-39.65 15.45 -39.6 15.35 -39.2 15.05 -38.95 14.7 Q-38.95 14.35 -39.3 14.35 -39.7 14.35 -40.1 14.75 L-40.65 15.15 -41.55 15.05 -41.05 14.5 -40.8 13.9 Q-40.8 13.7 -41.3 13.5 L-41.95 13.3 -41.4 12.6 -40.95 12.25 -40.15 12.4 Q-39.4 12.4 -39.4 11.95 -39.4 11.65 -39.85 11.6 L-40.6 11.55 -40.3 10.95 Q-40.3 10.7 -40.6 10.7 L-40.9 10.85 -41.15 11.05 -41.15 11.0 -41.2 10.95 Q-41.4 10.2 -41.65 10.2 L-42.0 10.5 -42.15 11.05 -42.0 11.6 -41.85 12.0 -42.3 12.3 -42.7 12.7 Q-42.65 12.3 -42.9 11.95 -43.15 11.55 -43.5 11.55 -43.7 11.55 -43.95 11.8 L-44.25 12.1 -44.25 12.05 -44.45 11.4 -44.0 10.95 -43.75 10.2 -43.8 9.9 Q-43.9 9.7 -44.2 9.7 -44.45 9.7 -44.55 9.9 L-44.9 10.35 Q-45.05 9.6 -45.35 9.6 L-45.65 9.7 -45.7 10.1 -45.65 10.85 -46.3 10.55 Q-46.75 10.55 -46.75 10.95 L-46.45 11.45 -45.15 12.0 -45.15 12.8 -45.85 12.6 -46.6 12.45 Q-46.95 12.45 -46.95 13.1 L-46.85 13.6 -46.7 14.0 -46.75 14.05 -47.5 14.0 -47.8 13.3 Q-48.0 12.75 -48.35 12.75 -48.5 12.75 -48.6 12.9 L-48.75 13.25 -48.4 13.9 -48.4 14.0 Q-48.55 13.85 -48.75 13.85 -49.25 13.85 -49.25 14.25 L-49.15 14.5 -48.6 14.55 -48.9 14.8 -49.15 15.15 -49.0 15.45 -48.75 15.55 Q-48.35 15.55 -48.1 15.25 -48.0 15.25 -47.65 14.65 L-46.85 14.85 -46.05 15.05 -46.1 15.05 -46.6 15.6 -46.9 16.25 -46.5 16.7 -46.0 16.95 -46.35 17.5 -46.75 17.4 -47.3 17.4 -47.95 17.45 -48.35 17.75 -47.95 18.2 -47.35 18.35 M-14.6 20.95 L-14.15 22.05 -14.8 22.75 -15.3 21.75 -14.6 20.95 M-35.25 42.0 L-35.95 41.85 -35.5 41.4 -34.9 41.4 -35.25 42.0 M-41.2 40.55 L-41.0 40.35 -39.65 39.05 -39.55 39.15 -39.4 39.3 -38.2 39.85 -38.2 40.6 -38.85 40.4 -39.55 40.3 Q-39.9 40.3 -39.9 40.9 L-39.8 41.35 -39.65 41.75 -39.7 41.8 -39.75 41.8 -40.45 41.75 -40.7 41.05 -41.0 40.6 -41.2 40.55 M-38.5 41.65 L-38.8 41.0 -38.2 41.0 -37.7 41.65 -38.5 41.65 M-35.65 43.0 L-35.05 44.05 -36.05 43.7 -36.3 43.0 -35.65 43.0 M-37.15 40.9 L-36.5 39.9 -36.2 40.95 -36.8 41.45 -37.15 40.9 M-38.4 42.45 L-37.75 42.3 -38.15 43.2 -39.05 43.45 -38.4 42.45 M-37.3 44.85 L-37.75 43.95 -37.1 43.6 -36.75 44.2 -37.3 44.85 M-43.45 14.65 L-42.8 14.15 -41.9 14.15 -42.45 14.7 -43.45 14.65 M-46.05 13.3 L-44.95 13.3 -44.7 14.1 -45.65 14.1 -46.05 13.3 M-44.8 15.0 L-45.3 15.7 -46.05 15.9 -45.5 15.0 -44.8 15.0 M-44.25 16.25 L-43.9 17.05 -44.4 17.7 -44.75 16.7 -44.25 16.25 M-43.25 13.2 L-43.9 13.95 -44.2 13.1 -43.65 12.6 -43.25 13.2 M-43.35 15.55 L-42.5 16.05 -42.5 16.7 -43.25 16.25 -43.35 15.55 M-15.45 56.8 L-16.1 57.45 -16.5 56.55 -15.75 55.75 -15.45 56.8 M-18.8 56.8 L-17.75 56.8 -17.05 57.9 -18.3 57.9 -18.8 56.8 M-16.2 59.8 L-15.65 60.65 -16.2 61.45 -16.9 60.5 -16.2 59.8 M-18.35 59.1 L-17.35 59.1 -17.95 59.95 -19.0 59.95 -18.35 59.1 M-15.05 58.2 L-14.25 57.45 -13.1 57.45 -13.7 58.3 -15.05 58.2 M-13.7 59.8 L-13.15 60.55 -14.2 60.55 -14.85 59.5 -13.7 59.8" fill="#5cb7fe" fill-rule="evenodd" stroke="none"/>
  </g>
</svg>
