<?xml version="1.0" encoding="UTF-8" standalone="no"?>
<svg xmlns:xlink="http://www.w3.org/1999/xlink" height="80.5px" width="88.25px" xmlns="http://www.w3.org/2000/svg">
  <g transform="matrix(1.0, 0.0, 0.0, 1.0, 44.15, 40.25)">
    <path d="M38.65 -36.0 L42.05 -36.9 Q43.1 -37.05 43.8 -35.9 44.5 -34.55 43.45 -33.4 42.9 -32.8 41.35 -31.95 L38.1 -30.25 Q35.7 -29.25 34.8 -30.05 33.95 -30.95 34.3 -35.0 34.6 -39.0 36.1 -39.9 37.45 -40.85 38.3 -39.35 38.7 -38.65 38.7 -37.65 L38.65 -36.0 M19.0 37.85 Q19.0 38.35 18.65 38.65 18.3 39.05 17.8 39.05 17.3 39.05 16.95 38.65 16.65 38.35 16.65 37.85 16.65 37.35 16.95 37.0 17.3 36.65 17.8 36.65 18.3 36.65 18.65 37.0 19.0 37.35 19.0 37.85 M5.35 39.1 Q5.35 39.6 4.95 39.95 4.65 40.25 4.15 40.25 L3.3 39.95 Q2.95 39.6 2.95 39.1 2.95 38.65 3.3 38.25 3.65 37.95 4.15 37.95 4.65 37.95 4.95 38.25 5.35 38.65 5.35 39.1 M12.7 38.3 Q12.7 38.85 12.3 39.25 11.9 39.65 11.4 39.65 10.8 39.65 10.45 39.25 10.05 38.85 10.05 38.3 10.05 37.75 10.45 37.35 10.8 37.0 11.4 37.0 11.9 37.0 12.3 37.35 12.7 37.75 12.7 38.3 M-36.75 -38.4 Q-35.3 -38.4 -34.75 -36.9 -34.5 -36.05 -34.5 -34.3 L-34.75 -30.6 Q-35.0 -28.05 -36.2 -27.75 -37.45 -27.45 -40.7 -29.75 -44.0 -32.0 -44.15 -33.7 -44.25 -35.4 -42.55 -35.4 -41.75 -35.4 -40.9 -34.9 L-39.45 -34.0 -38.5 -37.45 Q-38.1 -38.4 -36.75 -38.4 M-8.65 39.3 Q-9.1 39.75 -9.75 39.75 -10.4 39.75 -10.9 39.3 L-11.35 38.2 -10.9 37.1 Q-10.4 36.6 -9.75 36.6 -9.1 36.6 -8.65 37.1 -8.2 37.6 -8.2 38.2 -8.2 38.85 -8.65 39.3 M-1.95 38.8 Q-1.95 39.35 -2.35 39.7 -2.75 40.15 -3.3 40.15 -3.8 40.15 -4.25 39.7 -4.65 39.35 -4.65 38.8 -4.65 38.25 -4.25 37.9 -3.8 37.5 -3.3 37.5 -2.75 37.5 -2.35 37.9 -1.95 38.25 -1.95 38.8" fill="#feec89" fill-rule="evenodd" stroke="none"/>
  </g>
</svg>
