<?xml version="1.0" encoding="UTF-8" standalone="no"?>
<svg xmlns:xlink="http://www.w3.org/1999/xlink" height="163.7px" width="131.15px" xmlns="http://www.w3.org/2000/svg">
  <g transform="matrix(1.0, 0.0, 0.0, 1.0, 65.6, 81.85)">
    <path d="M38.15 -54.05 L41.55 -54.95 Q42.6 -55.1 43.3 -53.95 44.0 -52.6 42.95 -51.45 42.4 -50.85 40.85 -50.0 39.85 -49.35 37.6 -48.3 35.2 -47.3 34.3 -48.1 33.45 -49.0 33.8 -53.05 34.1 -57.05 35.6 -57.95 36.95 -58.9 37.8 -57.4 38.2 -56.7 38.2 -55.7 L38.15 -54.05 M26.7 -52.85 Q15.95 -57.05 15.85 -68.95 L21.3 -67.9 19.15 -73.65 Q32.05 -73.9 38.25 -61.45 36.15 -73.45 49.15 -80.85 L50.45 -74.85 54.4 -79.15 Q60.2 -64.5 47.7 -56.7 58.4 -57.55 64.55 -47.0 L59.85 -46.0 62.3 -43.35 Q51.1 -37.85 41.95 -45.05 51.1 -33.15 41.95 -23.9 L39.7 -29.45 35.7 -24.95 Q31.0 -28.5 30.5 -34.65 20.85 -24.15 18.4 -12.7 28.75 -2.95 24.9 7.3 35.25 -4.85 53.85 -2.4 L51.65 6.1 58.85 5.35 Q53.15 30.4 28.6 29.2 48.4 37.9 46.2 54.05 L38.95 52.05 40.75 60.5 36.4 61.05 Q35.65 68.1 27.3 74.35 18.55 80.85 10.0 80.85 -0.45 80.85 -6.8 75.1 -13.0 69.5 -13.0 60.35 -13.0 59.15 -11.8 53.15 -21.7 63.75 -33.55 63.2 L-32.85 55.0 -39.25 57.25 Q-40.15 37.7 -21.9 31.05 -46.8 34.9 -55.4 7.05 L-48.2 7.8 -50.75 -0.6 Q-31.65 -4.15 -21.1 10.15 -25.1 2.1 -19.35 -10.1 -21.55 -23.9 -31.15 -34.8 -30.95 -27.25 -36.3 -24.25 L-39.75 -27.45 -41.25 -23.25 Q-50.05 -31.15 -43.2 -43.05 -53.15 -33.6 -63.1 -40.35 L-60.6 -43.6 -64.6 -44.05 Q-63.6 -53.15 -47.95 -55.55 -61.5 -60.4 -57.4 -75.6 L-52.9 -73.1 -52.2 -77.65 Q-41.55 -75.15 -39.55 -60.45 -36.25 -71.45 -22.4 -72.65 L-23.35 -67.15 -18.65 -69.15 Q-17.15 -56.2 -28.65 -52.05 -18.6 -54.65 -11.95 -44.05 L-16.65 -42.85 -14.15 -38.35 Q-19.8 -35.6 -24.6 -36.9 -16.55 -26.9 -14.9 -15.05 1.15 -24.95 13.4 -15.05 15.75 -26.55 23.4 -37.3 18.65 -35.9 13.9 -38.65 L15.65 -42.85 10.15 -44.35 Q16.85 -53.65 26.7 -52.85 L29.0 -52.55 M30.5 -34.65 Q30.15 -38.15 31.3 -42.6 27.4 -38.5 23.4 -37.3 M18.4 -12.7 L16.35 -14.5 M21.95 1.5 L22.1 -0.55 Q22.1 -2.85 20.05 -5.0 18.1 -7.1 16.2 -7.1 L14.3 -6.8 Q13.55 -6.5 13.25 -4.85 14.15 -6.0 15.25 -6.0 16.7 -6.0 17.75 -3.95 L17.8 -3.85 Q18.8 -1.85 18.8 0.95 18.8 3.85 17.75 5.9 16.7 7.95 15.25 7.95 13.8 7.95 12.75 5.9 11.7 3.85 11.7 0.95 L11.8 -0.2 Q11.95 -2.4 12.75 -3.95 L13.25 -4.85 M24.9 7.3 Q23.45 10.9 17.95 16.3 18.75 17.5 20.35 17.5 L21.3 17.7 Q22.05 18.0 22.05 18.2 22.05 19.0 20.95 19.95 19.8 20.9 19.8 21.8 L20.1 24.0 27.05 25.75 Q28.75 26.25 28.75 28.15 L28.6 29.2 Q27.85 31.1 24.05 31.1 L20.8 31.4 Q19.65 31.4 18.8 32.65 18.1 33.8 18.1 35.3 18.1 40.55 23.4 49.2 26.1 53.5 27.05 55.75 L28.3 59.0 Q30.35 55.85 31.4 55.25 32.35 54.8 33.2 54.8 35.25 54.8 35.95 56.2 36.45 57.25 36.45 59.7 L36.4 61.05 M-2.0 8.05 Q-0.1 10.95 2.7 8.05 5.45 11.3 8.2 7.8 M-21.1 10.15 Q-19.15 13.95 -13.45 18.55 L-13.2 18.45 Q-12.5 18.25 -11.75 16.6 -11.0 15.1 -10.4 15.1 -9.4 15.1 -9.2 15.95 L-8.4 18.05 -7.0 18.6 -5.7 15.6 Q-5.3 14.9 -4.95 14.9 -4.3 14.9 -3.9 15.55 L-3.25 17.25 Q-2.95 18.0 -1.9 17.95 L-0.85 17.75 1.1 18.05 2.7 15.35 Q3.0 15.0 3.4 15.0 4.05 15.0 4.6 16.3 L5.4 18.05 Q5.75 18.55 7.35 18.6 L8.25 18.8 9.0 15.95 Q9.4 15.4 9.9 15.4 L11.15 16.6 Q12.35 17.75 14.2 17.75 L15.7 15.0 Q16.1 14.35 16.5 14.35 16.9 14.35 17.7 15.95 L17.95 16.3 M-7.0 18.6 L-6.55 18.7 Q-5.15 19.05 -5.15 19.55 -5.15 20.15 -6.15 20.75 -7.15 21.35 -7.15 21.95 L-7.35 25.5 Q-5.75 24.95 -5.3 24.6 -4.6 23.9 -4.15 23.9 -3.9 23.9 -2.5 24.8 -1.1 25.7 -0.45 25.7 L-0.2 25.55 -0.2 25.45 -0.1 25.05 -0.55 23.7 -1.05 22.0 Q-1.05 21.7 0.15 20.5 1.35 19.25 1.35 18.4 L1.1 18.05 M4.85 21.05 Q4.85 21.55 4.45 21.9 L3.65 22.2 2.8 21.9 Q2.45 21.55 2.45 21.05 2.45 20.6 2.8 20.2 3.15 19.9 3.65 19.9 4.15 19.9 4.45 20.2 4.85 20.6 4.85 21.05 M20.1 24.0 L20.0 25.05 19.05 25.05 Q18.5 25.05 17.65 24.0 L16.65 23.05 15.9 23.65 14.55 25.3 Q13.7 25.05 12.4 24.2 L11.2 23.45 Q10.8 23.45 9.75 24.7 L8.5 25.9 Q8.25 25.9 7.8 25.1 L6.35 23.4 6.3 24.55 Q6.0 26.05 5.6 26.05 4.9 26.05 4.05 25.1 L2.85 23.7 Q2.35 23.9 1.75 24.7 1.05 25.45 -0.2 25.55 M8.25 18.8 Q8.75 19.0 8.75 19.4 8.75 20.0 7.6 21.0 6.4 22.0 6.4 22.35 L6.35 23.4 M12.2 20.25 Q12.2 20.8 11.8 21.2 11.4 21.6 10.9 21.6 10.3 21.6 9.95 21.2 9.55 20.8 9.55 20.25 9.55 19.7 9.95 19.3 10.3 18.95 10.9 18.95 11.4 18.95 11.8 19.3 12.2 19.7 12.2 20.25 M14.55 25.3 L14.55 23.55 Q13.85 22.2 13.85 21.8 13.85 21.25 14.8 20.15 L15.65 18.55 15.1 18.0 14.2 17.75 M18.5 19.8 Q18.5 20.3 18.15 20.6 17.8 21.0 17.3 21.0 16.8 21.0 16.45 20.6 16.15 20.3 16.15 19.8 16.15 19.3 16.45 18.95 16.8 18.6 17.3 18.6 17.8 18.6 18.15 18.95 L18.5 19.8 M28.3 59.0 L28.75 62.8 28.7 64.85 Q28.7 65.85 28.3 66.4 M-0.55 67.9 Q-0.75 64.2 0.75 61.4 2.15 58.75 3.85 58.75 5.55 58.75 6.45 60.7 7.2 62.3 7.2 64.65 7.2 65.9 6.65 67.9 M-28.65 -52.05 L-30.6 -51.55 M-37.25 -56.45 Q-35.8 -56.45 -35.25 -54.95 -35.0 -54.1 -35.0 -52.35 L-35.25 -48.65 Q-35.5 -46.1 -36.7 -45.8 -37.95 -45.5 -41.2 -47.8 -44.5 -50.05 -44.65 -51.75 -44.75 -53.45 -43.05 -53.45 -42.25 -53.45 -41.4 -52.95 L-39.95 -52.05 -39.0 -55.5 Q-38.6 -56.45 -37.25 -56.45 M-31.15 -34.8 Q-31.25 -38.1 -32.3 -42.35 -28.8 -38.1 -24.6 -36.9 M-18.15 -12.5 L-19.35 -10.1 M-17.55 3.2 L-17.35 0.8 Q-17.35 -1.45 -15.3 -3.6 -13.35 -5.75 -11.45 -5.75 L-9.5 -5.5 Q-8.8 -5.1 -8.45 -3.4 L-8.0 -2.6 Q-7.4 -1.4 -7.15 0.15 L-6.95 2.3 Q-6.95 5.25 -8.0 7.3 -9.05 9.3 -10.5 9.3 -11.95 9.3 -13.0 7.3 -14.05 5.25 -14.05 2.3 -14.05 -0.3 -13.15 -2.2 L-13.0 -2.6 Q-11.95 -4.65 -10.5 -4.65 -9.35 -4.65 -8.45 -3.4 M-9.15 21.25 Q-9.6 21.7 -10.25 21.7 L-11.4 21.25 Q-11.85 20.8 -11.85 20.15 -11.85 19.55 -11.4 19.05 -10.9 18.55 -10.25 18.55 -9.6 18.55 -9.15 19.05 -8.7 19.55 -8.7 20.15 -8.7 20.8 -9.15 21.25 M-21.9 31.05 L-21.9 30.65 Q-21.9 29.2 -20.2 28.35 -17.3 27.1 -13.7 25.2 L-13.8 24.8 -13.6 23.7 -13.5 22.45 Q-13.5 22.1 -14.95 20.9 L-16.55 19.6 Q-16.1 19.0 -15.1 18.85 L-13.45 18.55 M-7.35 25.5 L-8.8 24.35 -10.0 23.35 Q-10.5 23.35 -11.95 24.2 L-13.7 25.2 M-2.45 20.75 Q-2.45 21.3 -2.85 21.65 -3.25 22.1 -3.8 22.1 -4.3 22.1 -4.75 21.65 -5.15 21.3 -5.15 20.75 -5.15 20.2 -4.75 19.85 -4.3 19.45 -3.8 19.45 -3.25 19.45 -2.85 19.85 -2.45 20.2 -2.45 20.75 M-21.9 31.05 Q-21.7 32.9 -20.05 33.1 L-15.8 32.85 Q-13.0 32.7 -11.6 33.9 -9.75 35.5 -9.75 40.2 -9.75 42.65 -11.35 50.8 L-11.8 53.15" fill="none" stroke="#4a2c3a" stroke-linecap="round" stroke-linejoin="round" stroke-width="2.0"/>
  </g>
</svg>
