<?xml version="1.0" encoding="UTF-8" standalone="no"?>
<svg xmlns:xlink="http://www.w3.org/1999/xlink" height="133.1px" width="92.2px" xmlns="http://www.w3.org/2000/svg">
  <g transform="matrix(1.0, 0.0, 0.0, 1.0, 46.1, 66.55)">
    <path d="M-17.75 -29.45 L-16.05 -30.6 Q-16.8 -39.85 -24.25 -49.65 L-21.9 -49.05 -21.2 -49.05 Q-20.5 -49.05 -19.85 -49.65 -19.2 -50.25 -19.2 -50.75 -19.2 -51.8 -20.85 -53.85 L-22.45 -55.75 -21.6 -57.8 Q-20.85 -59.45 -20.85 -60.45 -20.85 -61.6 -21.45 -62.4 -22.15 -63.2 -23.1 -63.2 L-25.4 -62.8 -27.45 -62.4 -30.25 -63.95 Q-32.95 -65.55 -33.7 -65.55 -35.8 -65.55 -35.9 -62.95 L-35.8 -60.75 Q-35.75 -59.35 -35.85 -58.65 L-38.3 -56.75 Q-40.75 -54.75 -40.75 -53.65 -40.75 -52.7 -38.1 -51.75 L-34.85 -50.5 Q-34.3 -49.95 -33.45 -47.3 -32.8 -45.25 -31.35 -45.25 -30.6 -45.25 -29.5 -46.55 L-28.3 -48.05 -24.4 -38.25 Q-17.0 -18.7 -32.25 -20.45 -31.75 -13.05 -27.6 -7.55 -22.75 -1.15 -12.95 2.55 -28.95 4.45 -32.25 9.2 -34.1 11.75 -32.25 15.1 -31.35 16.7 -29.65 18.55 -27.95 20.6 -26.1 21.9 -24.2 23.2 -22.15 23.75 L-23.05 26.2 Q-24.4 30.3 -24.4 34.35 -24.55 36.4 -24.35 38.0 -23.05 50.2 -1.75 32.25 2.9 37.4 9.4 40.6 20.2 45.0 21.5 37.85 L21.7 35.7 Q21.75 32.0 20.05 26.2 L19.2 23.45 Q23.5 21.95 27.8 18.55 L30.4 15.4 31.0 14.35 Q32.6 11.1 30.7 8.7 27.45 4.65 13.95 3.2 23.15 1.6 28.0 -6.65 30.9 -11.6 32.25 -18.85 18.4 -18.75 25.85 -38.75 L29.45 -48.05 Q30.85 -45.75 31.2 -45.4 31.6 -44.95 32.5 -44.95 33.95 -44.95 34.75 -47.45 35.6 -50.25 36.45 -50.65 37.25 -51.05 38.45 -51.25 L40.25 -51.6 Q42.05 -52.0 42.05 -53.5 42.05 -54.85 39.65 -56.15 37.15 -57.5 37.0 -58.0 36.8 -58.4 36.7 -59.75 L36.55 -62.1 Q36.2 -65.0 34.5 -65.0 33.6 -65.0 31.15 -63.6 28.65 -62.25 28.3 -62.25 L26.15 -62.55 24.25 -62.9 Q22.95 -62.9 22.45 -62.4 21.95 -61.9 21.95 -60.65 21.95 -59.9 22.6 -58.05 L23.25 -55.85 Q23.25 -55.0 21.75 -53.55 20.3 -52.1 20.3 -50.65 20.3 -49.8 21.45 -49.2 22.45 -48.7 23.4 -48.7 L24.2 -48.9 25.05 -49.2 24.55 -48.5 Q18.95 -40.1 16.55 -30.6 L18.5 -29.45 M-0.75 -12.4 L-1.2 -11.0 Q-1.2 -10.15 -0.75 -9.55 -0.35 -8.95 0.2 -8.95 L1.15 -9.55 Q1.55 -10.15 1.55 -11.0 1.55 -11.8 1.15 -12.4 L0.2 -13.0 Q-0.35 -13.0 -0.75 -12.4 M21.7 35.7 L22.15 35.65 Q25.25 35.1 28.3 31.0 L30.55 28.0 Q31.65 26.7 32.4 26.7 L35.15 27.2 37.95 27.7 Q40.5 27.7 42.35 26.85 45.1 25.7 45.1 23.0 45.1 20.0 41.85 15.5 L40.95 14.35 39.6 12.65 Q38.6 11.3 38.6 10.85 L40.65 4.5 Q42.7 -2.15 42.7 -3.7 42.7 -6.1 41.35 -7.75 39.95 -9.55 37.6 -9.55 L34.45 -9.0 Q31.35 -8.1 30.45 -7.6 L28.0 -6.65 M30.7 8.7 L33.35 8.05 34.4 7.9 Q35.25 7.9 35.15 8.7 L34.4 10.1 33.35 10.85 34.4 11.85 Q35.35 12.45 35.35 13.05 35.35 13.55 34.4 13.8 L33.2 14.15 33.5 16.4 33.35 16.5 32.95 16.55 31.85 16.3 30.4 15.4 M-24.35 38.0 L-26.1 41.0 -29.3 46.05 Q-32.3 50.65 -35.7 55.1 -36.8 58.2 -30.4 58.2 L-26.1 57.95 -23.8 57.85 Q-19.3 57.85 -15.9 59.3 -15.2 59.55 -14.6 59.9 L-11.85 61.3 -11.45 61.45 -8.3 61.95 Q-5.85 61.95 -0.45 59.55 3.9 57.7 5.55 57.3 L6.2 57.2 Q7.35 57.2 10.75 58.8 L11.75 59.25 Q16.0 61.3 18.7 61.3 L22.15 60.7 Q24.75 59.75 27.45 57.4 32.05 52.6 35.0 50.35 31.3 48.4 28.4 46.05 24.5 42.85 22.15 38.95 L21.5 37.85 M5.55 57.3 Q5.7 60.5 6.45 62.45 6.95 63.8 7.6 64.55 8.5 65.55 9.65 65.55 10.4 65.55 11.0 65.15 L11.55 64.55 11.65 63.95 11.15 62.8 Q10.7 61.85 10.7 60.7 L10.75 58.8 M-27.6 -7.55 Q-30.95 -8.45 -33.6 -9.65 -35.55 -10.35 -37.85 -10.35 -40.75 -10.35 -42.0 -8.7 -43.15 -7.25 -43.15 -4.55 -43.15 -1.9 -41.0 3.9 L-38.75 9.55 Q-38.75 10.15 -39.75 11.55 L-41.95 14.6 Q-45.1 19.05 -45.1 21.7 -45.1 23.25 -43.5 24.75 -41.95 26.15 -40.25 26.2 L-36.8 25.75 -33.45 25.2 Q-32.6 25.2 -31.55 26.2 -30.4 27.25 -29.1 29.4 L-27.15 32.3 -26.1 33.35 Q-25.35 33.95 -24.4 34.35 M-32.25 9.2 L-34.25 7.95 -35.2 7.6 -36.25 7.85 Q-36.8 8.1 -36.8 8.45 -36.8 9.1 -35.2 10.85 L-36.3 11.5 Q-37.05 12.05 -37.05 12.85 -37.05 13.5 -36.25 13.7 L-35.1 13.8 -35.35 14.95 -35.1 15.85 Q-34.8 16.25 -34.3 16.25 L-33.55 15.95 -32.25 15.1 M-15.9 59.3 L-15.9 61.15 -16.5 62.9 Q-16.9 63.75 -16.9 64.35 L-16.85 64.55 Q-16.65 65.4 -14.6 65.4 -13.5 65.4 -12.7 64.6 L-12.6 64.55 Q-11.7 63.65 -11.45 61.45 M16.55 -30.6 Q-0.75 -40.8 -16.05 -30.6" fill="none" stroke="#292b41" stroke-linecap="round" stroke-linejoin="round" stroke-width="2.0"/>
  </g>
</svg>
