<?xml version="1.0" encoding="UTF-8" standalone="no"?>
<svg xmlns:xlink="http://www.w3.org/1999/xlink" height="88.45px" width="158.5px" xmlns="http://www.w3.org/2000/svg">
  <g transform="matrix(1.0, 0.0, 0.0, 1.0, 75.3, 191.65)">
    <path d="M12.65 -152.7 Q19.55 -160.65 28.2 -164.35 33.9 -166.8 46.05 -169.25 L55.2 -170.9 Q60.95 -171.95 64.2 -172.95 65.9 -173.5 73.0 -177.25 L77.75 -179.7 79.95 -180.8 Q81.6 -180.8 82.5 -175.7 83.2 -172.05 83.2 -169.0 83.2 -156.15 77.75 -146.65 74.85 -141.65 70.45 -137.55 61.75 -129.55 49.85 -127.3 L40.6 -126.4 Q52.1 -118.75 64.05 -120.3 53.05 -103.7 30.95 -103.2 L28.65 -105.3 Q30.6 -104.85 30.6 -106.8 L32.05 -106.75 Q32.95 -107.0 32.95 -107.9 L32.9 -108.35 32.8 -108.75 31.7 -109.75 32.7 -110.65 31.55 -111.95 Q31.15 -112.3 30.65 -112.3 L30.3 -112.3 Q26.5 -112.55 22.85 -115.3 24.9 -114.35 27.6 -114.15 L32.5 -114.2 37.35 -114.95 Q41.3 -115.9 41.3 -116.9 41.3 -117.8 38.25 -119.35 L34.9 -120.9 31.3 -123.2 Q29.4 -124.65 27.45 -127.3 L26.6 -128.45 Q21.85 -130.35 16.5 -135.2 L19.95 -136.45 Q41.4 -128.35 58.95 -140.85 68.65 -148.65 71.1 -162.9 71.5 -166.05 67.65 -163.25 59.05 -156.9 44.75 -155.85 27.9 -153.8 15.3 -144.8 L15.55 -145.85 15.3 -147.3 Q14.9 -148.1 14.2 -148.05 L14.05 -149.35 Q13.9 -150.1 12.2 -151.35 L12.65 -152.7 M-4.75 -151.2 Q-6.2 -150.55 -6.8 -149.6 -7.5 -148.55 -7.5 -147.8 L-7.3 -147.1 -7.1 -146.7 -7.3 -146.2 -7.5 -145.15 Q-7.5 -144.45 -7.1 -143.8 -22.2 -155.55 -44.5 -157.15 -54.7 -158.4 -61.8 -164.0 -65.05 -165.7 -64.05 -162.15 L-62.55 -156.2 Q-58.75 -145.6 -48.35 -138.6 -33.4 -129.8 -12.15 -137.0 -12.15 -136.35 -10.4 -135.65 -16.5 -130.8 -21.65 -128.8 -22.1 -128.0 -22.65 -127.3 -26.3 -122.45 -33.65 -119.95 L-35.2 -118.7 -35.5 -117.95 -35.2 -117.15 -34.3 -116.4 Q-25.3 -113.6 -16.3 -115.95 L-19.4 -113.7 Q-23.55 -110.9 -23.55 -110.4 L-23.4 -109.5 Q-25.2 -109.1 -25.85 -108.6 L-26.15 -108.0 -25.9 -107.0 -25.65 -106.2 -25.85 -105.7 -26.05 -105.15 Q-50.15 -105.15 -59.75 -121.05 -45.9 -119.85 -37.6 -126.75 L-42.7 -127.3 Q-46.7 -128.1 -51.0 -129.95 -58.7 -133.45 -63.6 -138.9 -71.2 -147.35 -73.5 -154.6 -75.3 -160.25 -75.3 -171.95 L-75.2 -177.15 Q-74.85 -181.45 -73.6 -181.45 -73.15 -181.45 -67.9 -178.4 L-61.4 -174.5 Q-58.85 -172.85 -53.75 -171.75 L-42.05 -169.85 Q-30.4 -168.25 -20.75 -163.9 -11.2 -159.65 -6.2 -154.15 L-4.75 -151.2" fill="#e0bbff" fill-rule="evenodd" stroke="none"/>
    <path d="M12.65 -152.7 L12.2 -151.35 11.1 -149.05 10.35 -149.15 Q9.55 -149.15 8.9 -148.4 8.3 -147.65 8.35 -146.5 L7.55 -146.9 6.65 -147.15 Q5.65 -147.15 5.1 -146.7 L4.5 -145.5 3.3 -146.9 Q2.75 -147.35 1.6 -147.35 L0.8 -147.0 -0.1 -146.35 -0.35 -146.35 Q-0.1 -147.45 -0.95 -148.2 -1.65 -148.9 -2.5 -148.9 L-3.35 -148.65 -4.75 -151.2 -6.2 -154.15 -6.6 -155.1 Q-7.4 -157.55 -7.4 -161.45 -7.4 -165.2 -6.25 -168.0 L-4.85 -170.4 -3.15 -172.2 Q-0.75 -174.15 2.85 -174.15 7.0 -174.15 9.9 -171.9 L11.6 -170.3 12.85 -168.45 Q14.65 -165.45 14.65 -161.45 14.65 -159.0 13.45 -155.0 L12.65 -152.7 M19.95 -136.45 L16.5 -135.2 Q15.85 -136.8 16.85 -138.35 L17.7 -138.0 19.95 -136.45 M14.05 -173.6 L14.1 -174.05 Q14.1 -174.65 13.8 -174.85 L12.9 -175.1 12.2 -175.0 Q13.75 -180.55 20.05 -183.85 20.4 -187.25 20.85 -188.7 21.55 -191.25 23.85 -191.25 25.15 -191.25 26.0 -190.25 26.75 -189.35 26.75 -188.0 L26.55 -186.75 26.35 -185.55 28.05 -186.7 30.1 -187.15 Q31.25 -187.15 32.2 -186.35 33.15 -185.55 33.15 -184.45 33.15 -182.75 31.4 -181.5 29.65 -180.35 27.2 -180.35 L26.1 -180.35 23.7 -180.6 Q17.1 -177.75 15.35 -173.5 L14.05 -173.6 M9.35 -156.0 Q9.65 -155.3 10.05 -155.3 10.5 -155.3 10.85 -156.0 L11.15 -157.7 10.85 -159.45 10.05 -160.15 Q9.65 -160.15 9.35 -159.45 9.0 -158.75 9.0 -157.7 9.0 -156.7 9.35 -156.0 M3.85 -156.5 Q3.25 -156.2 2.85 -155.55 L2.5 -154.85 Q2.5 -154.2 3.95 -154.2 L4.3 -154.3 Q4.5 -154.4 4.5 -154.65 L4.5 -155.0 3.85 -156.5 M-12.15 -137.0 Q-12.15 -137.8 -9.55 -138.8 L-8.85 -139.1 Q-8.25 -137.2 -9.45 -135.3 L-10.4 -135.65 Q-12.15 -136.35 -12.15 -137.0 M-8.3 -173.8 Q-9.1 -175.65 -11.95 -178.15 -15.25 -181.0 -17.0 -181.0 L-20.9 -180.4 Q-22.5 -180.4 -24.15 -181.7 -25.85 -183.1 -25.85 -184.4 -25.85 -185.5 -24.6 -186.35 -23.5 -187.15 -22.35 -187.15 L-20.5 -186.85 -18.95 -185.7 -18.95 -186.15 Q-19.4 -186.65 -19.5 -187.35 L-19.55 -188.85 Q-19.55 -190.15 -18.85 -190.9 -18.15 -191.65 -16.75 -191.65 -14.9 -191.65 -13.8 -189.35 -12.7 -187.1 -12.9 -184.05 -6.6 -180.7 -4.75 -176.0 L-4.65 -174.7 Q-4.9 -174.9 -5.4 -175.1 L-6.35 -175.35 -7.1 -175.1 -7.4 -174.45 -7.25 -173.65 -8.3 -173.8 M-3.6 -156.25 Q-3.3 -155.5 -2.85 -155.5 -2.4 -155.5 -2.05 -156.25 -1.75 -156.95 -1.75 -158.05 -1.75 -159.1 -2.05 -159.85 -2.4 -160.6 -2.85 -160.6 -3.3 -160.6 -3.6 -159.85 L-3.9 -158.05 -3.6 -156.25" fill="#9affb3" fill-rule="evenodd" stroke="none"/>
    <path d="M14.05 -173.6 L15.35 -173.5 Q15.8 -170.2 12.85 -168.45 L11.6 -170.3 9.9 -171.9 Q12.45 -171.95 13.35 -172.6 13.9 -173.0 14.05 -173.6 M-6.25 -168.0 Q-9.85 -169.6 -8.3 -173.8 L-7.25 -173.65 Q-7.05 -173.05 -6.45 -172.8 L-3.15 -172.2 -4.85 -170.4 -6.25 -168.0" fill="#ffffff" fill-rule="evenodd" stroke="none"/>
    <path d="M9.35 -156.0 Q9.0 -156.7 9.0 -157.7 9.0 -158.75 9.35 -159.45 9.65 -160.15 10.05 -160.15 L10.85 -159.45 11.15 -157.7 10.85 -156.0 Q10.5 -155.3 10.05 -155.3 9.65 -155.3 9.35 -156.0 M-3.6 -156.25 L-3.9 -158.05 -3.6 -159.85 Q-3.3 -160.6 -2.85 -160.6 -2.4 -160.6 -2.05 -159.85 -1.75 -159.1 -1.75 -158.05 -1.75 -156.95 -2.05 -156.25 -2.4 -155.5 -2.85 -155.5 -3.3 -155.5 -3.6 -156.25" fill="#000000" fill-rule="evenodd" stroke="none"/>
    <path d="M3.85 -156.5 L4.5 -155.0 4.5 -154.65 Q4.5 -154.4 4.3 -154.3 L3.95 -154.2 Q2.5 -154.2 2.5 -154.85 L2.85 -155.55 Q3.25 -156.2 3.85 -156.5" fill="#fdbbf4" fill-rule="evenodd" stroke="none"/>
  </g>
</svg>
