<?xml version="1.0" encoding="UTF-8" standalone="no"?>
<svg xmlns:xlink="http://www.w3.org/1999/xlink" height="160.9px" width="108.4px" xmlns="http://www.w3.org/2000/svg">
  <g transform="matrix(1.0, 0.0, 0.0, 1.0, 52.95, 185.25)">
    <path d="M-14.2 -159.05 L-14.3 -158.75 Q-15.7 -154.85 -13.25 -149.5 -12.45 -147.35 -13.25 -145.65 L-13.35 -145.55 Q-14.85 -149.7 -17.3 -154.05 -21.25 -161.6 -25.5 -162.45 -29.85 -163.45 -31.7 -159.4 -33.7 -155.35 -32.85 -149.35 -32.1 -144.25 -28.75 -137.35 L-27.4 -134.9 Q-21.4 -137.8 -14.3 -140.75 L-14.1 -138.75 Q-13.4 -135.2 -10.75 -134.75 L-11.5 -133.05 Q-12.45 -131.05 -13.7 -130.05 -10.5 -129.5 -6.0 -127.5 -2.85 -126.0 0.05 -126.8 0.8 -131.15 3.0 -138.15 L7.55 -138.15 Q9.05 -132.1 8.45 -127.2 10.85 -127.1 14.3 -128.2 L21.5 -130.45 20.0 -132.75 19.2 -134.65 Q21.15 -134.6 22.45 -136.95 L23.25 -139.45 28.5 -137.0 28.8 -138.1 Q29.55 -149.65 27.05 -160.65 25.4 -166.55 22.45 -167.6 19.5 -168.65 17.0 -163.85 15.45 -160.85 14.4 -157.3 11.9 -155.4 9.8 -153.15 11.05 -160.35 13.1 -165.1 18.15 -175.15 22.95 -173.5 28.5 -171.05 31.7 -159.45 34.3 -147.1 32.9 -135.2 37.05 -131.7 39.35 -127.05 41.25 -122.6 41.3 -120.3 41.3 -119.7 41.7 -118.65 L42.5 -115.6 41.95 -114.0 Q41.35 -112.95 41.7 -111.0 L42.05 -107.65 42.0 -104.65 Q42.35 -103.95 42.85 -103.2 42.8 -102.35 42.15 -101.35 41.65 -100.35 42.3 -98.8 43.7 -97.55 43.55 -96.85 42.7 -93.7 40.3 -90.5 L39.9 -88.8 Q39.55 -87.95 37.15 -87.15 37.15 -85.25 36.05 -84.1 34.25 -83.35 32.15 -83.0 L31.3 -81.85 Q30.8 -81.2 27.9 -80.05 23.55 -78.6 19.2 -77.95 L16.65 -77.6 15.2 -77.4 10.45 -77.3 Q5.6 -76.65 -0.3 -77.05 L-2.05 -77.25 -3.55 -77.4 -4.7 -77.6 Q-6.8 -76.9 -9.35 -76.95 L-10.15 -77.3 -10.85 -77.6 -15.05 -78.15 -16.4 -78.4 -16.95 -77.75 Q-19.75 -78.6 -21.3 -79.8 L-23.05 -79.7 Q-23.7 -80.0 -23.9 -80.6 L-26.8 -80.25 Q-32.05 -83.8 -34.4 -87.2 -36.9 -88.05 -37.45 -88.95 -38.1 -91.2 -38.1 -93.2 -42.2 -95.45 -42.35 -95.95 L-41.9 -97.55 Q-42.9 -99.1 -42.35 -100.35 -41.75 -101.6 -42.25 -103.15 -43.05 -108.15 -42.55 -111.1 -43.0 -113.2 -42.55 -114.4 -41.4 -115.7 -41.15 -116.9 -38.85 -126.5 -32.95 -133.85 -36.9 -143.25 -38.15 -152.05 -40.05 -165.3 -31.95 -170.35 -24.4 -173.85 -14.9 -160.1 L-14.2 -159.05 M27.7 -66.5 L29.7 -62.3 24.55 -57.4 24.2 -57.1 24.2 -57.05 24.15 -57.05 24.15 -57.0 23.95 -56.85 21.45 -56.75 21.35 -57.7 Q20.8 -60.8 20.55 -63.8 22.35 -63.9 24.55 -64.9 L27.7 -66.5 M23.15 -41.4 Q22.8 -32.5 18.1 -27.55 14.65 -24.15 10.7 -28.55 L8.45 -31.1 5.8 -33.55 5.25 -34.2 0.0 -33.8 Q-3.2 -28.55 -7.35 -26.25 -12.35 -23.05 -15.55 -28.6 -18.05 -33.45 -16.4 -39.2 L-16.2 -39.15 -16.2 -40.15 Q-17.25 -39.1 -19.8 -39.15 -21.8 -39.85 -21.95 -41.6 L-22.05 -41.7 Q-22.4 -41.3 -24.2 -42.2 -26.05 -44.1 -25.3 -45.95 L-25.45 -46.45 -25.65 -48.5 -25.65 -48.55 -20.75 -44.1 Q-20.1 -43.6 -19.45 -44.3 L-18.45 -45.25 -18.15 -45.0 -18.4 -42.65 -16.0 -41.05 -13.8 -40.2 Q-11.45 -39.35 -8.25 -38.85 L-7.1 -38.75 5.35 -37.9 7.2 -38.0 Q14.55 -38.25 18.7 -39.45 L19.85 -39.8 Q21.1 -40.15 22.05 -40.65 L23.15 -41.4 M-26.95 -61.9 L-26.25 -63.0 -23.1 -68.1 Q-21.0 -65.25 -18.8 -64.6 L-14.25 -63.9 -13.8 -63.9 -15.55 -59.1 Q-16.1 -57.5 -16.7 -56.35 -17.9 -55.5 -22.15 -57.7 -26.75 -60.0 -26.95 -61.9 M32.4 -105.05 L36.65 -103.9 Q36.4 -105.15 35.35 -106.2 37.15 -106.7 37.65 -108.4 36.0 -107.8 30.95 -108.35 23.4 -109.65 15.45 -108.5 L16.85 -107.3 Q15.8 -107.05 15.1 -105.7 L16.55 -105.55 Q16.05 -100.55 17.25 -97.3 18.85 -92.6 23.25 -92.7 25.9 -92.85 27.7 -93.9 29.8 -95.35 31.05 -98.2 32.35 -101.05 32.4 -105.05 M21.85 -117.15 Q22.15 -116.75 24.4 -116.8 26.65 -116.8 27.05 -117.45 L24.55 -117.8 Q22.15 -117.8 21.85 -117.15 M31.8 -93.95 Q31.8 -92.95 32.8 -92.25 33.9 -91.55 35.75 -91.55 37.65 -91.55 38.6 -92.3 39.55 -93.05 39.55 -94.05 39.65 -95.0 38.7 -95.7 37.65 -96.3 35.75 -96.3 33.9 -96.3 32.9 -95.65 31.85 -94.95 31.8 -93.95 M8.65 -90.95 Q7.2 -89.7 7.6 -89.0 8.25 -88.6 9.7 -90.05 11.05 -88.7 11.65 -89.0 12.05 -89.35 10.65 -91.1 12.55 -92.45 11.8 -92.85 11.15 -93.2 9.75 -91.85 8.45 -93.35 7.5 -93.05 7.25 -92.55 8.65 -90.95 M11.0 -35.65 Q8.35 -34.65 5.25 -34.2 8.35 -34.65 11.0 -35.65 M0.3 -34.3 L0.0 -33.8 0.3 -34.3 M-32.95 -133.85 L-32.25 -132.25 -32.95 -133.85 M-23.15 -105.15 Q-24.25 -101.0 -22.7 -97.85 -21.55 -95.35 -18.95 -93.9 -16.8 -92.85 -13.8 -92.7 -8.45 -92.6 -6.6 -97.3 -5.2 -100.55 -5.8 -105.7 L-2.2 -105.9 Q-2.6 -106.6 -4.35 -107.3 -2.35 -107.7 -2.35 -108.55 L-4.0 -108.95 -22.85 -108.35 -31.55 -108.65 Q-30.25 -106.7 -27.5 -106.35 -29.4 -105.15 -29.8 -103.6 -27.35 -104.7 -23.15 -105.15 M-16.9 -117.15 Q-16.55 -116.55 -14.25 -116.6 -12.0 -116.6 -11.8 -117.15 -12.0 -117.65 -14.1 -117.65 -16.45 -117.55 -16.9 -117.15 M-24.6 -94.3 Q-24.65 -95.3 -25.8 -95.95 -26.8 -96.65 -28.85 -96.65 -30.9 -96.65 -31.9 -96.05 -33.0 -95.35 -32.95 -94.4 -32.85 -93.4 -31.85 -92.7 -30.9 -91.9 -28.85 -91.9 -26.8 -91.9 -25.7 -92.6 -24.6 -93.35 -24.6 -94.3 M-20.0 -51.8 L-18.95 -52.65 Q-18.25 -53.2 -17.25 -55.2 L-16.45 -54.95 -17.45 -49.55 -20.0 -51.8 M-16.2 -40.15 L-16.0 -41.05 -16.2 -40.15" fill="#f6d4e8" fill-rule="evenodd" stroke="none"/>
    <path d="M26.8 -74.85 Q30.0 -73.3 33.15 -75.55 36.35 -77.85 36.85 -80.2 46.1 -82.4 50.65 -82.15 53.55 -81.95 54.15 -81.3 55.8 -79.05 52.5 -76.7 49.25 -74.45 43.85 -74.1 46.75 -70.85 41.05 -69.8 38.55 -68.95 35.4 -69.8 35.6 -67.2 31.65 -68.65 27.0 -71.3 26.8 -74.85 M-24.75 -75.1 Q-25.2 -71.2 -29.95 -68.65 -34.05 -67.3 -33.75 -70.15 -36.9 -69.4 -39.35 -70.55 -44.9 -72.1 -41.85 -75.45 -47.25 -76.2 -50.25 -78.95 -53.3 -81.65 -51.55 -84.05 -50.9 -84.7 -48.0 -84.7 -43.4 -84.55 -34.4 -81.55 -34.05 -79.05 -31.0 -76.3 -28.0 -73.65 -24.75 -75.1" fill="#c9fcfc" fill-rule="evenodd" stroke="none"/>
    <path d="M1.05 -153.1 L1.05 -151.75 -5.65 -151.6 -5.65 -144.35 -5.65 -143.8 1.05 -144.1 0.9 -142.9 Q-1.1 -138.3 -6.25 -135.8 -8.95 -134.6 -10.75 -134.75 -8.95 -134.6 -6.25 -135.8 -1.1 -138.3 0.9 -142.9 L0.75 -138.15 3.0 -138.15 Q0.8 -131.15 0.05 -126.8 -2.85 -126.0 -6.0 -127.5 -10.5 -129.5 -13.7 -130.05 -12.45 -131.05 -11.5 -133.05 L-10.75 -134.75 Q-13.4 -135.2 -14.1 -138.75 L-14.3 -140.75 Q-14.3 -142.9 -13.35 -145.55 L-13.25 -145.65 Q-12.45 -147.35 -13.25 -149.5 -15.7 -154.85 -14.3 -158.75 L-14.2 -159.05 Q-12.75 -162.5 -7.15 -160.35 -2.2 -157.4 1.05 -153.1 M7.55 -138.15 L9.35 -138.25 9.65 -142.5 9.65 -143.95 12.45 -143.75 13.65 -143.6 15.35 -143.5 15.7 -143.4 Q15.95 -147.0 15.7 -151.25 L13.2 -151.45 9.7 -151.65 9.7 -152.2 9.7 -152.3 9.65 -152.9 9.65 -153.05 9.8 -153.15 Q11.9 -155.4 14.4 -157.3 L17.35 -159.15 Q21.35 -161.25 22.9 -157.15 24.35 -153.5 23.65 -149.95 22.55 -147.45 23.25 -145.6 23.95 -142.5 23.25 -139.45 L22.45 -136.95 Q21.15 -134.6 19.2 -134.65 L20.0 -132.75 21.5 -130.45 14.3 -128.2 Q10.85 -127.1 8.45 -127.2 9.05 -132.1 7.55 -138.15 M19.2 -77.95 L19.2 -76.75 19.85 -77.25 Q20.4 -76.9 19.9 -76.7 25.15 -73.35 28.2 -67.45 28.15 -66.95 27.7 -66.5 L24.55 -64.9 Q22.35 -63.9 20.55 -63.8 20.8 -60.8 21.35 -57.7 L21.45 -56.75 23.95 -56.85 24.15 -57.0 24.15 -57.05 24.2 -57.05 24.2 -57.1 24.55 -57.4 Q22.8 -55.25 24.65 -53.65 L25.2 -53.1 27.1 -51.05 Q24.15 -51.25 22.1 -54.55 L21.75 -55.15 Q22.9 -47.85 23.25 -41.6 L23.15 -41.4 22.05 -40.65 Q21.1 -40.15 19.85 -39.8 L19.85 -42.35 Q19.55 -51.9 17.9 -64.2 L16.9 -70.75 Q17.0 -72.6 16.2 -75.75 L16.5 -76.65 16.65 -77.6 19.2 -77.95 M-28.05 -59.35 L-26.95 -61.9 Q-26.75 -60.0 -22.15 -57.7 -17.9 -55.5 -16.7 -56.35 L-17.25 -55.2 Q-18.25 -53.2 -18.95 -52.65 L-20.0 -51.8 Q-21.4 -51.0 -23.2 -50.95 L-24.15 -50.95 -24.6 -51.0 -25.85 -51.25 -26.25 -51.4 -26.8 -51.7 Q-27.7 -52.25 -28.3 -53.05 L-28.5 -53.55 Q-28.85 -54.45 -28.85 -55.5 L-28.8 -56.25 -28.7 -57.05 -28.05 -59.35 M-23.1 -68.1 L-24.15 -69.75 Q-22.0 -73.25 -18.35 -76.85 -16.5 -77.25 -15.05 -78.15 L-10.85 -77.6 -10.65 -77.3 -10.5 -76.25 -10.15 -77.3 -9.35 -76.95 Q-6.8 -76.9 -4.7 -77.6 L-3.55 -77.4 Q-4.45 -73.7 -4.7 -70.45 -8.2 -51.9 -8.25 -38.85 -11.45 -39.35 -13.8 -40.2 L-16.0 -41.05 -18.4 -42.65 -18.15 -45.0 -13.8 -41.05 -12.4 -40.65 -12.9 -42.0 -17.5 -46.35 -16.65 -47.35 Q-16.0 -48.1 -16.55 -48.75 L-17.45 -49.55 -16.45 -54.95 -15.55 -59.1 -13.8 -63.9 -13.35 -63.9 Q-13.15 -65.65 -12.0 -69.1 -10.8 -72.8 -10.9 -75.1 -10.8 -72.8 -12.0 -69.1 -13.15 -65.65 -13.35 -63.9 L-13.8 -63.9 -14.25 -63.9 -18.8 -64.6 Q-21.0 -65.25 -23.1 -68.1 M9.65 -142.5 Q11.7 -139.0 16.9 -135.4 18.1 -134.7 19.2 -134.65 18.1 -134.7 16.9 -135.4 11.7 -139.0 9.65 -142.5 M8.45 -69.35 L15.6 -70.2 16.05 -70.3 16.65 -66.4 Q17.75 -58.75 18.2 -51.9 L18.45 -49.85 18.7 -42.05 18.7 -39.45 Q14.55 -38.25 7.2 -38.0 L5.35 -37.9 -7.1 -38.75 Q-7.3 -49.9 -3.75 -70.1 -0.55 -69.15 6.8 -69.35 L6.9 -67.3 6.9 -66.2 6.85 -66.15 6.8 -66.15 6.45 -66.5 4.55 -67.45 3.9 -67.05 Q2.65 -65.75 2.95 -64.5 3.3 -63.2 5.25 -61.5 6.75 -60.1 7.85 -59.75 8.95 -60.3 10.25 -61.9 11.9 -63.85 12.1 -65.1 12.1 -66.35 10.7 -67.6 L9.75 -67.8 8.6 -67.05 8.6 -67.2 8.6 -67.25 8.55 -67.45 8.45 -69.35 M1.05 -59.7 Q1.05 -60.35 0.45 -60.9 0.05 -61.35 -0.65 -61.35 -1.35 -61.35 -1.85 -60.9 -2.35 -60.35 -2.35 -59.7 -2.35 -59.0 -1.85 -58.5 -1.35 -58.0 -0.65 -58.0 0.05 -58.0 0.45 -58.5 1.05 -59.0 1.05 -59.7 M15.2 -59.55 L14.7 -60.7 Q14.25 -61.2 13.8 -61.2 13.2 -61.2 12.8 -60.7 12.45 -60.2 12.55 -59.55 12.55 -58.85 13.0 -58.35 13.45 -57.85 13.95 -57.85 14.55 -57.85 14.85 -58.35 15.2 -58.85 15.2 -59.55 M15.8 -49.6 Q15.75 -50.3 15.35 -50.8 14.95 -51.25 14.35 -51.25 13.85 -51.25 13.5 -50.8 13.15 -50.3 13.2 -49.6 13.25 -48.9 13.6 -48.45 14.05 -47.85 14.6 -47.85 15.2 -47.85 15.5 -48.45 15.85 -48.9 15.8 -49.6 M21.75 -55.15 L21.45 -56.75 21.75 -55.15 M20.55 -63.8 Q19.75 -69.6 18.55 -74.95 19.75 -69.6 20.55 -63.8 M-12.55 -154.65 L-11.85 -154.45 Q-11.8 -154.45 -11.65 -154.55 L-11.45 -154.9 -11.25 -155.7 Q-11.25 -156.0 -11.6 -156.25 -11.95 -156.35 -12.2 -155.6 L-13.05 -155.75 -13.1 -155.2 -12.55 -154.65 M-10.9 -157.05 Q-10.3 -156.65 -9.9 -156.65 -9.45 -156.8 -9.1 -157.5 -8.6 -158.4 -8.65 -158.85 -8.65 -159.3 -9.3 -159.65 -9.95 -160.0 -10.35 -158.7 -11.45 -159.6 -11.8 -158.95 -12.15 -158.4 -11.95 -157.95 L-10.9 -157.05 M-23.55 -55.3 Q-23.85 -56.2 -24.2 -56.5 L-24.9 -56.35 -25.45 -56.2 Q-25.7 -56.0 -25.9 -55.95 L-26.75 -55.3 -26.8 -54.55 -26.75 -54.2 Q-26.4 -53.55 -25.1 -54.4 L-24.95 -53.75 -24.65 -53.2 -24.15 -53.05 -23.9 -53.1 -23.3 -53.75 -23.3 -53.85 Q-23.2 -54.3 -23.45 -55.1 L-23.55 -55.3 M0.45 -50.0 L-0.05 -51.2 -1.15 -51.7 -2.45 -51.2 -2.9 -50.0 Q-2.9 -49.25 -2.45 -48.8 -1.85 -48.35 -1.15 -48.35 -0.6 -48.35 -0.05 -48.8 0.45 -49.25 0.45 -50.0" fill="#211f1d" fill-rule="evenodd" stroke="none"/>
    <path d="M9.75 -179.9 Q10.85 -181.95 10.65 -184.75 11.0 -181.95 12.5 -180.15 14.05 -178.35 16.05 -178.45 14.05 -178.25 12.9 -176.15 11.8 -174.0 12.1 -171.25 11.75 -174.0 10.15 -175.85 8.65 -177.7 6.75 -177.45 8.65 -177.75 9.75 -179.9 M-13.35 -145.55 Q-14.3 -142.9 -14.3 -140.75 -21.4 -137.8 -27.4 -134.9 L-28.75 -137.35 Q-32.1 -144.25 -32.85 -149.35 -33.7 -155.35 -31.7 -159.4 -29.85 -163.45 -25.5 -162.45 -21.25 -161.6 -17.3 -154.05 -14.85 -149.7 -13.35 -145.55 M37.45 -67.2 L37.55 -67.3 Q39.9 -70.2 41.25 -68.8 42.45 -67.45 39.5 -65.3 L39.3 -65.2 37.45 -67.2 M28.6 -49.5 L27.1 -51.05 25.2 -53.1 26.4 -53.8 29.35 -50.65 28.6 -49.5" fill="#00ffff" fill-rule="evenodd" stroke="none"/>
    <path d="M-21.0 -173.35 Q-21.2 -174.7 -16.4 -176.2 -11.65 -177.65 -5.3 -178.25 1.1 -178.95 3.15 -177.4 L-4.7 -176.95 -13.5 -175.5 Q-17.1 -174.7 -17.05 -174.0 -16.95 -173.35 -13.25 -173.3 L-4.35 -173.7 3.4 -174.85 Q5.4 -175.05 4.05 -174.0 2.65 -172.9 -4.2 -172.0 L-15.95 -171.55 Q-20.9 -172.0 -21.0 -173.35 M29.7 -62.3 L34.8 -66.95 Q36.1 -68.3 37.45 -67.2 L39.3 -65.2 41.95 -62.75 Q44.05 -65.45 45.25 -64.4 46.45 -63.55 45.25 -62.15 L43.7 -60.8 43.5 -60.6 Q44.45 -59.35 43.1 -58.0 L32.65 -48.35 29.65 -48.4 28.6 -49.5 29.35 -50.65 30.8 -49.1 Q31.4 -48.5 31.95 -49.1 L42.7 -59.05 Q43.2 -59.55 42.75 -60.15 L36.8 -66.4 35.75 -66.5 25.05 -56.4 Q24.5 -55.95 24.95 -55.35 L26.4 -53.8 25.2 -53.1 24.65 -53.65 Q22.8 -55.25 24.55 -57.4 L29.7 -62.3 M23.25 -139.45 Q23.95 -142.5 23.25 -145.6 22.55 -147.45 23.65 -149.95 24.35 -153.5 22.9 -157.15 21.35 -161.25 17.35 -159.15 L14.4 -157.3 Q15.45 -160.85 17.0 -163.85 19.5 -168.65 22.45 -167.6 25.4 -166.55 27.05 -160.65 29.55 -149.65 28.8 -138.1 L28.5 -137.0 23.25 -139.45" fill="#fd0284" fill-rule="evenodd" stroke="none"/>
    <path d="M36.1 -55.6 Q37.05 -56.4 37.1 -57.75 37.1 -59.0 36.3 -59.95 35.4 -60.85 34.15 -60.9 32.9 -60.9 31.95 -60.1 L31.15 -58.9 31.05 -57.95 Q30.95 -56.7 31.85 -55.85 L31.95 -55.65 Q32.75 -54.85 33.9 -54.8 35.2 -54.8 36.1 -55.6 M36.5 -55.2 Q35.4 -54.15 33.9 -54.2 32.8 -54.2 31.95 -54.85 L31.4 -55.3 Q30.35 -56.4 30.35 -58.0 30.4 -58.9 30.9 -59.7 L31.5 -60.5 Q32.7 -61.55 34.15 -61.55 35.65 -61.5 36.75 -60.35 37.8 -59.2 37.7 -57.7 37.65 -56.25 36.5 -55.2" fill="#55bbb8" fill-opacity="0.7764706" fill-rule="evenodd" stroke="none"/>
    <path d="M38.0 -61.35 L38.0 -59.85 36.45 -61.55 38.0 -61.35 M35.2 -59.55 L35.9 -58.85 34.8 -57.8 35.75 -56.7 35.0 -56.0 34.0 -57.1 33.0 -56.2 32.3 -56.85 33.3 -57.85 32.35 -58.9 33.05 -59.7 34.15 -58.55 35.2 -59.55" fill="#e2679d" fill-opacity="0.7764706" fill-rule="evenodd" stroke="none"/>
    <path d="M11.15 -73.5 Q14.55 -74.2 15.2 -77.4 L16.65 -77.6 16.5 -76.65 16.2 -75.75 Q15.85 -74.8 15.3 -74.1 13.85 -72.7 11.15 -72.35 L11.15 -73.5 M-0.3 -77.05 Q0.5 -73.8 3.75 -73.35 L3.75 -71.95 Q-1.35 -72.4 -2.05 -77.25 L-0.3 -77.05 M6.8 -69.55 L8.0 -69.55 8.2 -69.55 8.45 -69.7 8.45 -69.35 8.55 -67.45 8.6 -67.25 8.6 -67.2 8.6 -67.05 8.6 -66.95 8.6 -66.4 8.6 -66.3 9.2 -65.75 Q9.8 -65.1 9.8 -64.2 9.8 -63.4 9.2 -62.75 8.6 -62.2 7.65 -62.2 6.8 -62.2 6.2 -62.75 5.65 -63.4 5.65 -64.2 5.65 -65.1 6.2 -65.75 L6.8 -66.15 6.85 -66.15 6.9 -66.2 6.9 -67.3 6.8 -69.35 6.8 -69.55" fill="#3b3f48" fill-rule="evenodd" stroke="none"/>
    <path d="M11.15 -73.5 L11.15 -74.1 8.95 -74.0 8.95 -76.15 6.35 -75.95 6.35 -74.0 3.75 -74.0 3.75 -73.35 Q0.5 -73.8 -0.3 -77.05 5.6 -76.65 10.45 -77.3 L15.2 -77.4 Q14.55 -74.2 11.15 -73.5 M3.75 -71.95 L3.75 -71.6 6.35 -71.6 6.35 -69.55 6.8 -69.55 6.8 -69.35 Q-0.55 -69.15 -3.75 -70.1 L-4.7 -70.45 Q-4.45 -73.7 -3.55 -77.4 L-2.05 -77.25 Q-1.35 -72.4 3.75 -71.95 M8.45 -69.7 L8.85 -69.75 8.95 -69.75 8.95 -71.65 11.15 -71.95 11.15 -72.35 Q13.85 -72.7 15.3 -74.1 15.85 -74.8 16.2 -75.75 17.0 -72.6 16.9 -70.75 L16.05 -70.3 15.6 -70.2 8.45 -69.35 8.45 -69.7" fill="#7c59a4" fill-rule="evenodd" stroke="none"/>
    <path d="M0.9 -142.9 L1.05 -144.1 -5.65 -143.8 -5.65 -144.35 -5.65 -151.6 1.05 -151.75 1.05 -153.1 0.75 -158.95 9.35 -158.95 9.65 -153.05 9.65 -152.9 9.7 -152.3 9.7 -152.2 9.7 -151.65 13.2 -151.45 15.7 -151.25 Q15.95 -147.0 15.7 -143.4 L15.35 -143.5 13.65 -143.6 12.45 -143.75 9.65 -143.95 9.65 -142.5 9.35 -138.25 7.55 -138.15 3.0 -138.15 0.75 -138.15 0.9 -142.9 M3.75 -73.35 L3.75 -74.0 6.35 -74.0 6.35 -75.95 8.95 -76.15 8.95 -74.0 11.15 -74.1 11.15 -73.5 11.15 -72.35 11.15 -71.95 8.95 -71.65 8.95 -69.75 8.85 -69.75 8.45 -69.7 8.2 -69.55 8.0 -69.55 6.8 -69.55 6.35 -69.55 6.35 -71.6 3.75 -71.6 3.75 -71.95 3.75 -73.35" fill="#ff4646" fill-rule="evenodd" stroke="none"/>
    <path d="M16.55 -105.55 L30.7 -105.3 32.4 -105.05 Q32.35 -101.05 31.05 -98.2 29.8 -95.35 27.7 -93.9 25.9 -92.85 23.25 -92.7 18.85 -92.6 17.25 -97.3 16.05 -100.55 16.55 -105.55 M25.75 -97.95 Q27.45 -98.55 27.9 -100.15 28.45 -101.9 27.25 -102.2 26.5 -102.2 26.0 -101.45 25.55 -102.35 24.85 -102.3 23.65 -102.0 24.0 -100.35 24.5 -98.55 25.75 -97.95 M1.05 -59.7 Q1.05 -59.0 0.45 -58.5 0.05 -58.0 -0.65 -58.0 -1.35 -58.0 -1.85 -58.5 -2.35 -59.0 -2.35 -59.7 -2.35 -60.35 -1.85 -60.9 -1.35 -61.35 -0.65 -61.35 0.05 -61.35 0.45 -60.9 1.05 -60.35 1.05 -59.7 M0.4 -59.7 L0.05 -60.35 -0.6 -60.6 -1.3 -60.35 -1.5 -59.7 -1.3 -59.0 Q-1.0 -58.7 -0.6 -58.7 -0.2 -58.7 0.05 -59.0 L0.4 -59.7 M15.2 -59.55 Q15.2 -58.85 14.85 -58.35 14.55 -57.85 13.95 -57.85 13.45 -57.85 13.0 -58.35 12.55 -58.85 12.55 -59.55 12.45 -60.2 12.8 -60.7 13.2 -61.2 13.8 -61.2 14.25 -61.2 14.7 -60.7 L15.2 -59.55 M15.35 -49.6 L15.05 -50.3 14.4 -50.6 13.95 -50.3 13.85 -49.6 14.05 -48.9 Q14.3 -48.6 14.6 -48.6 14.95 -48.6 15.2 -48.9 L15.35 -49.6 M14.7 -59.55 L14.35 -60.2 13.85 -60.5 Q13.5 -60.5 13.3 -60.2 13.1 -59.95 13.2 -59.55 L13.45 -58.85 Q13.65 -58.55 13.95 -58.55 L14.4 -58.85 14.7 -59.55 M15.8 -49.6 Q15.85 -48.9 15.5 -48.45 15.2 -47.85 14.6 -47.85 14.05 -47.85 13.6 -48.45 13.25 -48.9 13.2 -49.6 13.15 -50.3 13.5 -50.8 13.85 -51.25 14.35 -51.25 14.95 -51.25 15.35 -50.8 15.75 -50.3 15.8 -49.6 M-23.15 -105.15 L-22.5 -105.3 -5.8 -105.7 Q-5.2 -100.55 -6.6 -97.3 -8.45 -92.6 -13.8 -92.7 -16.8 -92.85 -18.95 -93.9 -21.55 -95.35 -22.7 -97.85 -24.25 -101.0 -23.15 -105.15 M-11.1 -98.0 Q-9.6 -98.6 -9.0 -100.5 -8.6 -102.1 -10.05 -102.45 -10.9 -102.5 -11.4 -101.55 -12.0 -102.3 -12.9 -102.3 -14.25 -101.95 -13.7 -100.3 -13.1 -98.6 -11.1 -98.0 M-0.2 -50.0 Q-0.2 -50.35 -0.55 -50.65 L-1.15 -50.95 -1.8 -50.65 -2.1 -50.0 -1.8 -49.3 -1.15 -49.1 Q-0.75 -49.1 -0.55 -49.3 -0.2 -49.6 -0.2 -50.0 M0.45 -50.0 Q0.45 -49.25 -0.05 -48.8 -0.6 -48.35 -1.15 -48.35 -1.85 -48.35 -2.45 -48.8 -2.9 -49.25 -2.9 -50.0 L-2.45 -51.2 -1.15 -51.7 -0.05 -51.2 0.45 -50.0" fill="#cd0169" fill-rule="evenodd" stroke="none"/>
    <path d="M0.4 -59.7 L0.05 -59.0 Q-0.2 -58.7 -0.6 -58.7 -1.0 -58.7 -1.3 -59.0 L-1.5 -59.7 -1.3 -60.35 -0.6 -60.6 0.05 -60.35 0.4 -59.7 M14.7 -59.55 L14.4 -58.85 13.95 -58.55 Q13.65 -58.55 13.45 -58.85 L13.2 -59.55 Q13.1 -59.95 13.3 -60.2 13.5 -60.5 13.85 -60.5 L14.35 -60.2 14.7 -59.55 M15.35 -49.6 L15.2 -48.9 Q14.95 -48.6 14.6 -48.6 14.3 -48.6 14.05 -48.9 L13.85 -49.6 13.95 -50.3 14.4 -50.6 15.05 -50.3 15.35 -49.6 M-0.2 -50.0 Q-0.2 -49.6 -0.55 -49.3 -0.75 -49.1 -1.15 -49.1 L-1.8 -49.3 -2.1 -50.0 -1.8 -50.65 -1.15 -50.95 -0.55 -50.65 Q-0.2 -50.35 -0.2 -50.0" fill="#ffffff" fill-rule="evenodd" stroke="none"/>
    <path d="M16.9 -70.75 L17.9 -64.2 Q19.55 -51.9 19.85 -42.35 L19.85 -39.8 18.7 -39.45 18.7 -42.05 18.45 -49.85 18.2 -51.9 Q17.75 -58.75 16.65 -66.4 L16.05 -70.3 16.9 -70.75 M-3.75 -70.1 Q-7.3 -49.9 -7.1 -38.75 L-8.25 -38.85 Q-8.2 -51.9 -4.7 -70.45 L-3.75 -70.1" fill="#3d91a9" fill-rule="evenodd" stroke="none"/>
    <path d="M-31.55 -57.4 L-34.15 -59.85 -35.45 -59.05 -36.0 -59.6 -33.2 -62.65 -32.65 -62.05 -33.4 -60.8 -30.7 -58.35 -30.9 -58.1 -31.55 -57.4" fill="#bec3cd" fill-rule="evenodd" stroke="none"/>
    <path d="M-10.9 -157.05 L-11.95 -157.95 Q-12.15 -158.4 -11.8 -158.95 -11.45 -159.6 -10.35 -158.7 -9.95 -160.0 -9.3 -159.65 -8.65 -159.3 -8.65 -158.85 -8.6 -158.4 -9.1 -157.5 -9.45 -156.8 -9.9 -156.65 -10.3 -156.65 -10.9 -157.05 M-12.55 -154.65 L-13.1 -155.2 -13.05 -155.75 -12.2 -155.6 Q-11.95 -156.35 -11.6 -156.25 -11.25 -156.0 -11.25 -155.7 L-11.45 -154.9 -11.65 -154.55 Q-11.8 -154.45 -11.85 -154.45 L-12.55 -154.65 M-23.55 -55.3 L-23.45 -55.1 Q-23.2 -54.3 -23.3 -53.85 L-23.3 -53.75 -23.9 -53.1 -24.15 -53.05 -24.65 -53.2 -24.95 -53.75 -25.1 -54.4 Q-26.4 -53.55 -26.75 -54.2 L-26.8 -54.55 -26.75 -55.3 -25.9 -55.95 Q-25.7 -56.0 -25.45 -56.2 L-24.9 -56.35 -24.2 -56.5 Q-23.85 -56.2 -23.55 -55.3" fill="#634783" fill-rule="evenodd" stroke="none"/>
    <path d="M-28.5 -53.55 L-28.3 -53.05 -28.5 -52.7 -28.9 -53.1 -28.5 -53.55 M-26.8 -51.7 L-26.25 -51.4 -26.6 -51.0 -27.05 -51.4 -26.8 -51.7" fill="#431111" fill-opacity="0.61960787" fill-rule="evenodd" stroke="none"/>
    <path d="M16.55 -105.55 L15.1 -105.7 Q15.8 -107.05 16.85 -107.3 L15.45 -108.5 Q23.4 -109.65 30.95 -108.35 36.0 -107.8 37.65 -108.4 37.15 -106.7 35.35 -106.2 36.4 -105.15 36.65 -103.9 L32.4 -105.05 30.7 -105.3 16.55 -105.55 M21.85 -117.15 Q22.15 -117.8 24.55 -117.8 L27.05 -117.45 Q26.65 -116.8 24.4 -116.8 22.15 -116.75 21.85 -117.15 M8.65 -90.95 Q7.25 -92.55 7.5 -93.05 8.45 -93.35 9.75 -91.85 11.15 -93.2 11.8 -92.85 12.55 -92.45 10.65 -91.1 12.05 -89.35 11.65 -89.0 11.05 -88.7 9.7 -90.05 8.25 -88.6 7.6 -89.0 7.2 -89.7 8.65 -90.95 M-5.8 -105.7 L-22.5 -105.3 -23.15 -105.15 Q-27.35 -104.7 -29.8 -103.6 -29.4 -105.15 -27.5 -106.35 -30.25 -106.7 -31.55 -108.65 L-22.85 -108.35 -4.0 -108.95 -2.35 -108.55 Q-2.35 -107.7 -4.35 -107.3 -2.6 -106.6 -2.2 -105.9 L-5.8 -105.7 M-16.9 -117.15 Q-16.45 -117.55 -14.1 -117.65 -12.0 -117.65 -11.8 -117.15 -12.0 -116.6 -14.25 -116.6 -16.55 -116.55 -16.9 -117.15" fill="#000000" fill-rule="evenodd" stroke="none"/>
    <path d="M31.8 -93.95 Q31.85 -94.95 32.9 -95.65 33.9 -96.3 35.75 -96.3 37.65 -96.3 38.7 -95.7 39.65 -95.0 39.55 -94.05 39.55 -93.05 38.6 -92.3 37.65 -91.55 35.75 -91.55 33.9 -91.55 32.8 -92.25 31.8 -92.95 31.8 -93.95 M-24.6 -94.3 Q-24.6 -93.35 -25.7 -92.6 -26.8 -91.9 -28.85 -91.9 -30.9 -91.9 -31.85 -92.7 -32.85 -93.4 -32.95 -94.4 -33.0 -95.35 -31.9 -96.05 -30.9 -96.65 -28.85 -96.65 -26.8 -96.65 -25.8 -95.95 -24.65 -95.3 -24.6 -94.3" fill="#fa6694" fill-rule="evenodd" stroke="none"/>
    <path d="M25.75 -97.95 Q24.5 -98.55 24.0 -100.35 23.65 -102.0 24.85 -102.3 25.55 -102.35 26.0 -101.45 26.5 -102.2 27.25 -102.2 28.45 -101.9 27.9 -100.15 27.45 -98.55 25.75 -97.95 M-11.1 -98.0 Q-13.1 -98.6 -13.7 -100.3 -14.25 -101.95 -12.9 -102.3 -12.0 -102.3 -11.4 -101.55 -10.9 -102.5 -10.05 -102.45 -8.6 -102.1 -9.0 -100.5 -9.6 -98.6 -11.1 -98.0" fill="#ff178a" fill-rule="evenodd" stroke="none"/>
    <path d="M26.4 -53.8 L24.95 -55.35 Q24.5 -55.95 25.05 -56.4 L35.75 -66.5 36.8 -66.4 42.75 -60.15 Q43.2 -59.55 42.7 -59.05 L31.95 -49.1 Q31.4 -48.5 30.8 -49.1 L29.35 -50.65 26.4 -53.8 M36.1 -55.6 Q35.2 -54.8 33.9 -54.8 32.75 -54.85 31.95 -55.65 L31.85 -55.85 Q30.95 -56.7 31.05 -57.95 L31.15 -58.9 31.95 -60.1 Q32.9 -60.9 34.15 -60.9 35.4 -60.85 36.3 -59.95 37.1 -59.0 37.1 -57.75 37.05 -56.4 36.1 -55.6 M36.5 -55.2 Q37.65 -56.25 37.7 -57.7 37.8 -59.2 36.75 -60.35 35.65 -61.5 34.15 -61.55 32.7 -61.55 31.5 -60.5 L30.9 -59.7 Q30.4 -58.9 30.35 -58.0 30.35 -56.4 31.4 -55.3 L31.95 -54.85 Q32.8 -54.2 33.9 -54.2 35.4 -54.15 36.5 -55.2 M35.2 -59.55 L34.15 -58.55 33.05 -59.7 32.35 -58.9 33.3 -57.85 32.3 -56.85 33.0 -56.2 34.0 -57.1 35.0 -56.0 35.75 -56.7 34.8 -57.8 35.9 -58.85 35.2 -59.55 M38.0 -61.35 L36.45 -61.55 38.0 -59.85 38.0 -61.35" fill="url(#gradient0)" fill-rule="evenodd" stroke="none"/>
    <path d="M9.75 -67.8 L10.7 -67.6 Q12.1 -66.35 12.1 -65.1 11.9 -63.85 10.25 -61.9 8.95 -60.3 7.85 -59.75 6.75 -60.1 5.25 -61.5 3.3 -63.2 2.95 -64.5 2.65 -65.75 3.9 -67.05 L4.55 -67.45 6.45 -66.5 6.8 -66.15 6.2 -65.75 Q5.65 -65.1 5.65 -64.2 5.65 -63.4 6.2 -62.75 6.8 -62.2 7.65 -62.2 8.6 -62.2 9.2 -62.75 9.8 -63.4 9.8 -64.2 9.8 -65.1 9.2 -65.75 L8.6 -66.3 8.6 -66.4 8.6 -66.95 8.6 -67.05 9.75 -67.8" fill="url(#gradient1)" fill-rule="evenodd" stroke="none"/>
    <path d="M-25.65 -48.55 L-32.25 -54.75 Q-33.05 -55.55 -32.4 -56.5 L-31.55 -57.4 -30.9 -58.1 -30.7 -58.35 -29.9 -59.2 Q-29.05 -60.0 -28.05 -59.35 L-28.7 -57.05 -29.25 -56.4 -30.0 -57.15 -30.35 -56.85 -29.55 -56.2 -30.7 -54.8 -30.3 -54.4 -29.1 -55.65 -28.85 -55.5 Q-28.85 -54.45 -28.5 -53.55 L-28.9 -53.1 -28.5 -52.7 -28.3 -53.05 Q-27.7 -52.25 -26.8 -51.7 L-27.05 -51.4 -26.6 -51.0 -26.25 -51.4 -25.85 -51.25 -24.6 -51.0 -24.15 -50.95 -25.3 -49.75 -24.8 -49.3 -23.6 -50.65 -22.3 -49.45 -23.45 -48.1 -23.1 -47.7 -21.8 -48.95 -20.5 -47.75 -21.65 -46.45 -21.25 -46.05 -20.1 -47.35 -19.1 -46.55 -18.8 -46.95 -19.75 -47.7 -18.45 -49.15 -18.8 -49.5 -20.15 -48.1 -21.55 -49.3 -20.25 -50.7 -20.65 -51.1 -21.95 -49.75 -23.2 -50.95 Q-21.4 -51.0 -20.0 -51.8 L-17.45 -49.55 -16.55 -48.75 Q-16.0 -48.1 -16.65 -47.35 L-17.5 -46.35 -18.45 -45.25 -19.45 -44.3 Q-20.1 -43.6 -20.75 -44.1 L-25.65 -48.55" fill="url(#gradient2)" fill-rule="evenodd" stroke="none"/>
    <path d="M-17.5 -46.35 L-12.9 -42.0 -12.4 -40.65 -13.8 -41.05 -18.15 -45.0 -18.45 -45.25 -17.5 -46.35" fill="url(#gradient3)" fill-rule="evenodd" stroke="none"/>
    <path d="M-28.7 -57.05 L-28.8 -56.25 -28.85 -55.5 -29.1 -55.65 -30.3 -54.4 -30.7 -54.8 -29.55 -56.2 -30.35 -56.85 -30.0 -57.15 -29.25 -56.4 -28.7 -57.05 M-24.15 -50.95 L-23.2 -50.95 -21.95 -49.75 -20.65 -51.1 -20.25 -50.7 -21.55 -49.3 -20.15 -48.1 -18.8 -49.5 -18.45 -49.15 -19.75 -47.7 -18.8 -46.95 -19.1 -46.55 -20.1 -47.35 -21.25 -46.05 -21.65 -46.45 -20.5 -47.75 -21.8 -48.95 -23.1 -47.7 -23.45 -48.1 -22.3 -49.45 -23.6 -50.65 -24.8 -49.3 -25.3 -49.75 -24.15 -50.95" fill="#ff85b4" fill-rule="evenodd" stroke="none"/>
    <path d="M-16.2 -39.15 L-16.2 -40.15 -16.0 -41.05 M-17.25 -55.2 L-16.45 -54.95" fill="none" stroke="#9c415d" stroke-linecap="round" stroke-linejoin="round" stroke-width="1.0"/>
    <path d="M11.15 -73.5 Q14.55 -74.2 15.2 -77.4 M-0.3 -77.05 Q0.5 -73.8 3.75 -73.35 M16.65 -77.6 L16.5 -76.65 16.2 -75.75 Q17.0 -72.6 16.9 -70.75 L16.05 -70.3 15.6 -70.2 8.45 -69.35 8.55 -67.45 8.6 -67.25 8.6 -67.2 8.6 -67.05 8.6 -66.95 8.6 -66.4 8.6 -66.3 9.2 -65.75 Q9.8 -65.1 9.8 -64.2 9.8 -63.4 9.2 -62.75 8.6 -62.2 7.65 -62.2 6.8 -62.2 6.2 -62.75 5.65 -63.4 5.65 -64.2 5.65 -65.1 6.2 -65.75 L6.8 -66.15 6.85 -66.15 6.9 -66.2 6.9 -67.3 6.8 -69.35 Q-0.55 -69.15 -3.75 -70.1 L-4.7 -70.45 Q-4.45 -73.7 -3.55 -77.4 M16.2 -75.75 Q15.85 -74.8 15.3 -74.1 13.85 -72.7 11.15 -72.35 M6.8 -69.55 L6.8 -69.35 M8.45 -69.7 L8.45 -69.35 M-15.55 -59.1 L-16.45 -54.95 -17.45 -49.55 M-2.05 -77.25 Q-1.35 -72.4 3.75 -71.95" fill="none" stroke="#000000" stroke-linecap="round" stroke-linejoin="round" stroke-width="1.0"/>
    <path d="M29.7 -62.3 L34.8 -66.95 Q36.1 -68.3 37.45 -67.2 L37.55 -67.3 Q39.9 -70.2 41.25 -68.8 42.45 -67.45 39.5 -65.3 L39.3 -65.2 41.95 -62.75 Q44.05 -65.45 45.25 -64.4 46.45 -63.55 45.25 -62.15 L43.7 -60.8 43.5 -60.6 Q44.45 -59.35 43.1 -58.0 L32.65 -48.35 29.65 -48.4 28.6 -49.5 27.1 -51.05 25.2 -53.1 24.65 -53.65 Q22.8 -55.25 24.55 -57.4 L29.7 -62.3 M-30.7 -58.35 L-29.9 -59.2 Q-29.05 -60.0 -28.05 -59.35 M3.75 -73.35 L3.75 -74.0 6.35 -74.0 6.35 -75.95 8.95 -76.15 8.95 -74.0 11.15 -74.1 11.15 -73.5 11.15 -72.35 11.15 -71.95 8.95 -71.65 8.95 -69.75 8.85 -69.75 8.45 -69.7 8.2 -69.55 8.0 -69.55 6.8 -69.55 6.35 -69.55 6.35 -71.6 3.75 -71.6 3.75 -71.95 3.75 -73.35 M9.75 -67.8 L10.7 -67.6 Q12.1 -66.35 12.1 -65.1 11.9 -63.85 10.25 -61.9 8.95 -60.3 7.85 -59.75 6.75 -60.1 5.25 -61.5 3.3 -63.2 2.95 -64.5 2.65 -65.75 3.9 -67.05 L4.55 -67.45" fill="none" stroke="#431111" stroke-linecap="round" stroke-linejoin="round" stroke-width="1.0"/>
    <path d="M-31.55 -57.4 L-34.15 -59.85 -35.45 -59.05 -36.0 -59.6 -33.2 -62.65 -32.65 -62.05 -33.4 -60.8 -30.7 -58.35 M-17.5 -46.35 L-12.9 -42.0 -12.4 -40.65 -13.8 -41.05 -18.15 -45.0 -18.45 -45.25" fill="none" stroke="#212125" stroke-linecap="round" stroke-linejoin="round" stroke-width="1.0"/>
    <path d="M9.75 -179.9 Q8.65 -177.75 6.75 -177.45 8.65 -177.7 10.15 -175.85 11.75 -174.0 12.1 -171.25 11.8 -174.0 12.9 -176.15 14.05 -178.25 16.05 -178.45 14.05 -178.35 12.5 -180.15 11.0 -181.95 10.65 -184.75 10.85 -181.95 9.75 -179.9 M-14.3 -140.75 Q-21.4 -137.8 -27.4 -134.9 L-28.75 -137.35 Q-32.1 -144.25 -32.85 -149.35 -33.7 -155.35 -31.7 -159.4 -29.85 -163.45 -25.5 -162.45 -21.25 -161.6 -17.3 -154.05 -14.85 -149.7 -13.35 -145.55" fill="none" stroke="#006c86" stroke-linecap="round" stroke-linejoin="round" stroke-width="1.0"/>
    <path d="M-21.0 -173.35 Q-20.9 -172.0 -15.95 -171.55 L-4.2 -172.0 Q2.65 -172.9 4.05 -174.0 5.4 -175.05 3.4 -174.85 L-4.35 -173.7 -13.25 -173.3 Q-16.95 -173.35 -17.05 -174.0 -17.1 -174.7 -13.5 -175.5 L-4.7 -176.95 3.15 -177.4 Q1.1 -178.95 -5.3 -178.25 -11.65 -177.65 -16.4 -176.2 -21.2 -174.7 -21.0 -173.35 M23.25 -139.45 L28.5 -137.0 28.8 -138.1 Q29.55 -149.65 27.05 -160.65 25.4 -166.55 22.45 -167.6 19.5 -168.65 17.0 -163.85 15.45 -160.85 14.4 -157.3" fill="none" stroke="#931f6b" stroke-linecap="round" stroke-linejoin="round" stroke-width="1.0"/>
    <path d="M26.8 -74.85 Q30.0 -73.3 33.15 -75.55 36.35 -77.85 36.85 -80.2 46.1 -82.4 50.65 -82.15 53.55 -81.95 54.15 -81.3 55.8 -79.05 52.5 -76.7 49.25 -74.45 43.85 -74.1 46.75 -70.85 41.05 -69.8 38.55 -68.95 35.4 -69.8 35.6 -67.2 31.65 -68.65 27.0 -71.3 26.8 -74.85 M-24.75 -75.1 Q-28.0 -73.65 -31.0 -76.3 -34.05 -79.05 -34.4 -81.55 -43.4 -84.55 -48.0 -84.7 -50.9 -84.7 -51.55 -84.05 -53.3 -81.65 -50.25 -78.95 -47.25 -76.2 -41.85 -75.45 -44.9 -72.1 -39.35 -70.55 -36.9 -69.4 -33.75 -70.15 -34.05 -67.3 -29.95 -68.65 -25.2 -71.2 -24.75 -75.1" fill="none" stroke="#4391ae" stroke-linecap="round" stroke-linejoin="round" stroke-width="1.5"/>
    <path d="M9.8 -153.15 Q11.05 -160.35 13.1 -165.1 18.15 -175.15 22.95 -173.5 28.5 -171.05 31.7 -159.45 34.3 -147.1 32.9 -135.2 37.05 -131.7 39.35 -127.05 41.25 -122.6 41.3 -120.3 41.3 -119.7 41.7 -118.65 L42.5 -115.6 41.95 -114.0 Q41.35 -112.95 41.7 -111.0 L42.05 -107.65 42.0 -104.65 Q42.35 -103.95 42.85 -103.2 42.8 -102.35 42.15 -101.35 41.65 -100.35 42.3 -98.8 43.7 -97.55 43.55 -96.85 42.7 -93.7 40.3 -90.5 L39.9 -88.8 Q39.55 -87.95 37.15 -87.15 37.15 -85.25 36.05 -84.1 34.25 -83.35 32.15 -83.0 L31.3 -81.85 Q30.8 -81.2 27.9 -80.05 23.55 -78.6 19.2 -77.95 L16.65 -77.6 15.2 -77.4 10.45 -77.3 Q5.6 -76.65 -0.3 -77.05 L-2.05 -77.25 -3.55 -77.4 -4.7 -77.6 Q-6.8 -76.9 -9.35 -76.95 L-10.15 -77.3 -10.85 -77.6 -15.05 -78.15 -16.4 -78.4 -16.95 -77.75 Q-19.75 -78.6 -21.3 -79.8 L-23.05 -79.7 Q-23.7 -80.0 -23.9 -80.6 L-26.8 -80.25 Q-32.05 -83.8 -34.4 -87.2 -36.9 -88.05 -37.45 -88.95 -38.1 -91.2 -38.1 -93.2 -42.2 -95.45 -42.35 -95.95 L-41.9 -97.55 Q-42.9 -99.1 -42.35 -100.35 -41.75 -101.6 -42.25 -103.15 -43.05 -108.15 -42.55 -111.1 -43.0 -113.2 -42.55 -114.4 -41.4 -115.7 -41.15 -116.9 -38.85 -126.5 -32.95 -133.85 -36.9 -143.25 -38.15 -152.05 -40.05 -165.3 -31.95 -170.35 -24.4 -173.85 -14.9 -160.1 L-14.2 -159.05 M-32.25 -132.25 L-32.95 -133.85" fill="none" stroke="#9c415d" stroke-linecap="round" stroke-linejoin="round" stroke-width="2.0"/>
    <path d="M1.05 -153.1 Q-2.2 -157.4 -7.15 -160.35 -12.75 -162.5 -14.2 -159.05 L-14.3 -158.75 Q-15.7 -154.85 -13.25 -149.5 -12.45 -147.35 -13.25 -145.65 L-13.35 -145.55 Q-14.3 -142.9 -14.3 -140.75 L-14.1 -138.75 Q-13.4 -135.2 -10.75 -134.75 -8.95 -134.6 -6.25 -135.8 -1.1 -138.3 0.9 -142.9 M9.65 -153.05 L9.8 -153.15 Q11.9 -155.4 14.4 -157.3 L17.35 -159.15 Q21.35 -161.25 22.9 -157.15 24.35 -153.5 23.65 -149.95 22.55 -147.45 23.25 -145.6 23.95 -142.5 23.25 -139.45 L22.45 -136.95 Q21.15 -134.6 19.2 -134.65 L20.0 -132.75 21.5 -130.45 14.3 -128.2 Q10.85 -127.1 8.45 -127.2 9.05 -132.1 7.55 -138.15 M19.2 -134.65 Q18.1 -134.7 16.9 -135.4 11.7 -139.0 9.65 -142.5 M3.0 -138.15 Q0.8 -131.15 0.05 -126.8 -2.85 -126.0 -6.0 -127.5 -10.5 -129.5 -13.7 -130.05 -12.45 -131.05 -11.5 -133.05 L-10.75 -134.75" fill="none" stroke="#000000" stroke-linecap="round" stroke-linejoin="round" stroke-width="2.0"/>
    <path d="M0.9 -142.9 L1.05 -144.1 -5.65 -143.8 -5.65 -144.35 -5.65 -151.6 1.05 -151.75 1.05 -153.1 0.75 -158.95 9.35 -158.95 9.65 -153.05 9.65 -152.9 9.7 -152.3 9.7 -152.2 9.7 -151.65 13.2 -151.45 15.7 -151.25 Q15.95 -147.0 15.7 -143.4 L15.35 -143.5 13.65 -143.6 12.45 -143.75 9.65 -143.95 9.65 -142.5 9.35 -138.25 7.55 -138.15 3.0 -138.15 0.75 -138.15 0.9 -142.9" fill="none" stroke="#431111" stroke-linecap="round" stroke-linejoin="round" stroke-width="2.0"/>
    <path d="M27.7 -66.5 L29.7 -62.3 M23.15 -41.4 Q22.8 -32.5 18.1 -27.55 14.65 -24.15 10.7 -28.55 L8.45 -31.1 5.8 -33.55 5.25 -34.2 0.0 -33.8 Q-3.2 -28.55 -7.35 -26.25 -12.35 -23.05 -15.55 -28.6 -18.05 -33.45 -16.4 -39.2 M-26.95 -61.9 L-26.25 -63.0 -23.1 -68.1 M0.0 -33.8 L0.3 -34.3 M5.25 -34.2 Q8.35 -34.65 11.0 -35.65 M-13.8 -63.9 L-15.55 -59.1 Q-16.1 -57.5 -16.7 -56.35" fill="none" stroke="#9c415d" stroke-linecap="round" stroke-linejoin="round" stroke-width="1.5"/>
    <path d="M19.9 -76.7 Q25.15 -73.35 28.2 -67.45 28.15 -66.95 27.7 -66.5 L24.55 -64.9 Q22.35 -63.9 20.55 -63.8 20.8 -60.8 21.35 -57.7 L21.45 -56.75 23.95 -56.85 M27.1 -51.05 Q24.15 -51.25 22.1 -54.55 L21.75 -55.15 Q22.9 -47.85 23.25 -41.6 L23.15 -41.4 22.05 -40.65 Q21.1 -40.15 19.85 -39.8 L18.7 -39.45 Q14.55 -38.25 7.2 -38.0 L5.35 -37.9 -7.1 -38.75 -8.25 -38.85 Q-11.45 -39.35 -13.8 -40.2 L-16.0 -41.05 -18.4 -42.65 -18.15 -45.0 M-28.05 -59.35 L-26.95 -61.9 Q-26.75 -60.0 -22.15 -57.7 -17.9 -55.5 -16.7 -56.35 L-17.25 -55.2 Q-18.25 -53.2 -18.95 -52.65 L-20.0 -51.8 Q-21.4 -51.0 -23.2 -50.95 L-24.15 -50.95 -24.6 -51.0 -25.85 -51.25 -26.25 -51.4 -26.8 -51.7 Q-27.7 -52.25 -28.3 -53.05 L-28.5 -53.55 Q-28.85 -54.45 -28.85 -55.5 L-28.8 -56.25 -28.7 -57.05 -28.05 -59.35 M-23.1 -68.1 L-24.15 -69.75 Q-22.0 -73.25 -18.35 -76.85 M21.45 -56.75 L21.75 -55.15 M18.55 -74.95 Q19.75 -69.6 20.55 -63.8 M-13.8 -63.9 L-13.35 -63.9 Q-13.15 -65.65 -12.0 -69.1 -10.8 -72.8 -10.9 -75.1 M-23.1 -68.1 Q-21.0 -65.25 -18.8 -64.6 L-14.25 -63.9 -13.8 -63.9" fill="none" stroke="#000000" stroke-linecap="round" stroke-linejoin="round" stroke-width="1.5"/>
    <path d="M-16.2 -40.15 Q-17.25 -39.1 -19.8 -39.15 -21.8 -39.85 -21.95 -41.6 L-22.05 -41.7 Q-22.4 -41.3 -24.2 -42.2 -26.05 -44.1 -25.3 -45.95 L-25.45 -46.45 -25.65 -48.5 -25.65 -48.55" fill="none" stroke="#9c415d" stroke-linecap="round" stroke-linejoin="round" stroke-width="1.2000000000000002"/>
    <path d="M-25.65 -48.55 L-32.25 -54.75 Q-33.05 -55.55 -32.4 -56.5 L-31.55 -57.4 -30.9 -58.1 M-17.45 -49.55 L-16.55 -48.75 Q-16.0 -48.1 -16.65 -47.35 L-17.5 -46.35 -18.45 -45.25 -19.45 -44.3 Q-20.1 -43.6 -20.75 -44.1 L-25.65 -48.55 M-17.45 -49.55 L-20.0 -51.8" fill="none" stroke="#431111" stroke-linecap="round" stroke-linejoin="round" stroke-width="1.3"/>
  </g>
  <defs>
    <linearGradient gradientTransform="matrix(-4.0E-4, 0.0029, -0.0105, -0.0017, 33.8, -58.2)" gradientUnits="userSpaceOnUse" id="gradient0" spreadMethod="pad" x1="-819.2" x2="819.2">
      <stop offset="0.0" stop-color="#202025"/>
      <stop offset="0.5176470588235295" stop-color="#2d2b3c"/>
      <stop offset="1.0" stop-color="#1f2025"/>
    </linearGradient>
    <linearGradient gradientTransform="matrix(0.0, -0.004, 0.0056, 0.0, 7.35, -63.85)" gradientUnits="userSpaceOnUse" id="gradient1" spreadMethod="pad" x1="-819.2" x2="819.2">
      <stop offset="0.0" stop-color="#ec4b5c"/>
      <stop offset="1.0" stop-color="#9764e5"/>
    </linearGradient>
    <linearGradient gradientTransform="matrix(-0.0073, -0.0067, 0.0025, -0.0028, -24.65, -51.95)" gradientUnits="userSpaceOnUse" id="gradient2" spreadMethod="pad" x1="-819.2" x2="819.2">
      <stop offset="0.0" stop-color="#ec4b5c"/>
      <stop offset="1.0" stop-color="#9764e5"/>
    </linearGradient>
    <linearGradient gradientTransform="matrix(0.0028, 0.0026, -5.0E-4, 6.0E-4, -15.15, -43.3)" gradientUnits="userSpaceOnUse" id="gradient3" spreadMethod="pad" x1="-819.2" x2="819.2">
      <stop offset="0.0" stop-color="#c7cbdb"/>
      <stop offset="1.0" stop-color="#ffb6de"/>
    </linearGradient>
  </defs>
</svg>
