<?xml version="1.0" encoding="UTF-8" standalone="no"?>
<svg xmlns:xlink="http://www.w3.org/1999/xlink" height="46.0px" width="65.95px" xmlns="http://www.w3.org/2000/svg">
  <g transform="matrix(1.0, 0.0, 0.0, 1.0, 32.95, 23.0)">
    <path d="M26.4 18.95 Q23.8 22.05 18.65 23.0 20.9 18.3 18.85 13.6 18.0 20.0 12.0 22.1 13.7 17.35 12.6 12.7 4.25 19.5 -7.35 18.05 -10.75 17.75 -13.4 15.85 L-16.75 15.45 Q-20.15 14.45 -23.6 11.3 L-23.75 11.3 Q-28.75 11.35 -32.95 7.05 -26.25 4.75 -22.3 -0.6 L-21.35 -2.05 Q-15.95 -8.65 -4.8 -8.1 0.6 -3.8 8.65 -3.4 16.75 -2.95 23.0 -5.4 23.5 -4.15 24.7 -3.15 32.55 3.7 33.0 11.25 L32.65 16.4 Q32.1 12.1 29.1 9.4 29.35 15.5 26.4 18.95 M9.85 -13.55 L9.6 -13.45 9.25 -13.4 Q7.05 -13.4 5.55 -15.75 4.6 -17.25 4.35 -18.9 8.1 -17.95 9.05 -23.0 9.75 -22.3 10.35 -21.0 11.5 -18.5 11.5 -16.45 11.5 -15.4 10.9 -14.45 10.4 -13.75 9.85 -13.55" fill="#be7a63" fill-rule="evenodd" stroke="none"/>
  </g>
</svg>
