<?xml version="1.0" encoding="UTF-8" standalone="no"?>
<svg xmlns:xlink="http://www.w3.org/1999/xlink" height="41.9px" width="82.55px" xmlns="http://www.w3.org/2000/svg">
  <g transform="matrix(1.0, 0.0, 0.0, 1.0, 43.2, 56.25)">
    <path d="M12.45 -43.5 Q13.0 -43.7 13.5 -44.4 14.1 -45.35 14.1 -46.4 14.1 -48.45 12.95 -50.95 12.35 -52.25 11.65 -52.95 10.7 -47.9 6.95 -48.85 L6.85 -50.25 Q6.85 -51.9 8.05 -53.4 L8.15 -53.6 Q9.55 -55.3 11.45 -55.3 12.65 -55.3 13.45 -54.6 14.25 -53.9 15.0 -52.2 L15.95 -48.9 15.9 -48.1 Q15.9 -47.05 14.8 -45.35 13.85 -43.85 12.45 -43.5" fill="#ffffff" fill-rule="evenodd" stroke="none"/>
    <path d="M-36.15 -19.8 Q-42.25 -24.2 -43.2 -31.4 -32.05 -26.7 -19.7 -30.55 -23.65 -25.2 -30.35 -22.9 -26.15 -18.6 -21.15 -18.65 L-21.0 -18.65 Q-17.55 -15.5 -14.15 -14.5 -24.55 -13.55 -36.15 -19.8" fill="#3c3c3c" fill-rule="evenodd" stroke="none"/>
    <path d="M27.25 -42.9 L25.45 -42.75 Q24.15 -42.75 23.25 -43.7 22.3 -44.55 22.3 -45.7 22.3 -47.85 23.45 -50.35 24.75 -53.25 28.1 -56.25 29.3 -54.75 30.65 -53.6 32.7 -51.95 39.35 -48.45 39.15 -47.75 37.8 -47.15 35.7 -45.05 31.85 -43.95 L27.25 -42.9" fill="#fefc6d" fill-rule="evenodd" stroke="none"/>
  </g>
</svg>
