<?xml version="1.0" encoding="UTF-8" standalone="no"?>
<svg xmlns:xlink="http://www.w3.org/1999/xlink" height="73.9px" width="84.55px" xmlns="http://www.w3.org/2000/svg">
  <g transform="matrix(1.0, 0.0, 0.0, 1.0, 42.3, 36.95)">
    <path d="M14.1 -8.4 L13.75 -8.35 Q11.55 -8.35 10.05 -10.7 9.1 -12.2 8.85 -13.85 L8.75 -15.25 Q8.75 -16.9 9.95 -18.4 L10.05 -18.6 Q11.45 -20.3 13.35 -20.3 14.55 -20.3 15.35 -19.6 16.15 -18.9 16.9 -17.2 M14.35 -8.5 Q14.9 -8.7 15.4 -9.4 16.0 -10.35 16.0 -11.4 16.0 -13.45 14.85 -15.95 L13.55 -17.95 Q12.75 -18.9 11.75 -18.9 L11.0 -18.8 10.05 -18.6" fill="none" stroke="#3c2d41" stroke-linecap="round" stroke-linejoin="round" stroke-width="1.6"/>
    <path d="M30.0 -21.25 Q26.65 -18.25 25.35 -15.35 24.2 -12.85 24.2 -10.7 24.2 -9.55 25.15 -8.7 26.05 -7.75 27.35 -7.75 L29.15 -7.9" fill="none" stroke="#3c2d41" stroke-linecap="round" stroke-linejoin="round" stroke-width="1.5"/>
    <path d="M29.15 -7.9 L33.75 -8.95 Q37.6 -10.05 39.7 -12.15 38.75 -11.65 37.2 -11.3 33.95 -10.4 31.4 -10.4 L26.3 -10.9 M17.1 17.75 Q18.2 22.4 16.5 27.15 22.5 25.05 23.35 18.65 25.4 23.35 23.15 28.05 28.3 27.1 30.9 24.0 33.85 20.55 33.6 14.45 36.6 17.15 37.15 21.45 L37.5 16.3 Q37.05 8.75 29.2 1.9 28.0 0.9 27.5 -0.35 L27.4 -0.65 Q26.95 -1.95 26.95 -3.15 L26.95 -3.2 Q26.95 -3.85 27.4 -4.95 27.85 -6.0 29.15 -7.9 M39.7 -12.15 Q41.05 -12.75 41.25 -13.45 34.6 -16.95 32.55 -18.6 31.2 -19.75 30.0 -21.25 27.65 -24.1 25.8 -28.45 18.75 -38.45 5.35 -35.15 -6.8 -29.1 -3.35 -15.4 L1.35 -2.95 -0.3 -3.05 Q-11.45 -3.6 -16.85 3.0 L-17.8 4.45 Q-21.75 9.8 -28.45 12.1 -24.25 16.4 -19.25 16.35 L-19.1 16.35 -15.25 15.6 M10.25 11.3 Q6.65 19.15 0.05 20.3 -3.15 20.9 -5.55 20.25 -7.2 20.85 -8.9 20.9 L-12.25 20.5 Q-15.65 19.5 -19.1 16.35 M-17.8 4.45 Q-30.15 8.3 -41.3 3.6 -40.35 10.8 -34.25 15.2 -38.2 14.65 -40.25 12.6 -37.2 18.75 -31.75 22.05 L-36.4 21.45 Q-27.15 29.8 -14.8 33.3 -1.65 36.7 11.45 35.75 21.35 34.9 26.75 30.3 29.75 26.95 30.9 24.0 M-5.55 20.25 Q-3.3 19.45 -1.1 17.75" fill="none" stroke="#3c2d41" stroke-linecap="round" stroke-linejoin="round" stroke-width="2.0"/>
  </g>
</svg>
