<?xml version="1.0" encoding="UTF-8" standalone="no"?>
<svg xmlns:xlink="http://www.w3.org/1999/xlink" height="66.85px" width="81.55px" xmlns="http://www.w3.org/2000/svg">
  <g transform="matrix(1.0, 0.0, 0.0, 1.0, 41.25, 100.3)">
    <path d="M22.8 -42.9 Q23.6 -42.9 24.1 -41.65 24.7 -40.35 24.7 -38.55 24.7 -36.75 24.1 -35.45 23.6 -34.15 22.8 -34.15 22.1 -34.15 21.5 -35.45 21.0 -36.75 21.0 -38.55 21.0 -40.35 21.5 -41.65 22.1 -42.9 22.8 -42.9 M-21.5 -34.7 Q-22.05 -33.45 -22.95 -33.45 -23.8 -33.45 -24.45 -34.7 -25.0 -35.9 -25.0 -37.65 -25.0 -39.35 -24.45 -40.55 -23.8 -41.8 -22.95 -41.8 -22.05 -41.8 -21.5 -40.55 -20.9 -39.35 -20.9 -37.65 -20.9 -35.9 -21.5 -34.7" fill="#000000" fill-opacity="0.4392157" fill-rule="evenodd" stroke="none"/>
    <path d="M14.85 -78.65 L18.6 -81.55 18.85 -81.6 Q19.55 -81.6 21.45 -80.5 23.3 -79.5 25.5 -79.6 24.75 -75.95 24.7 -72.25 20.45 -71.05 16.1 -70.25 L9.4 -69.25 3.55 -68.7 Q-0.25 -68.55 -4.0 -68.65 L-10.25 -69.0 -16.3 -69.75 Q-21.35 -70.55 -26.45 -71.9 -26.5 -75.65 -27.25 -79.1 -26.15 -79.55 -25.6 -79.9 L-24.95 -80.3 -22.75 -79.75 Q-21.3 -79.2 -20.55 -79.2 -19.7 -79.2 -17.35 -80.75 -17.0 -78.8 -15.5 -77.0 -14.5 -75.75 -12.95 -74.6 L-12.55 -74.75 -11.3 -75.15 Q-10.5 -75.15 -8.65 -74.35 -6.8 -73.55 -6.05 -73.55 L-2.6 -74.05 1.05 -74.65 2.7 -74.45 4.4 -74.25 6.3 -74.65 8.1 -75.0 10.5 -74.45 11.0 -74.25 Q13.8 -76.25 14.85 -78.65" fill="#db8765" fill-rule="evenodd" stroke="none"/>
    <path d="M-16.1 -87.15 L-17.1 -88.75 Q-19.6 -93.55 -18.2 -100.3 L-12.1 -92.2 -15.05 -92.4 -14.7 -89.25 -16.1 -87.15 M17.2 -99.6 Q18.25 -92.9 15.2 -88.85 L13.85 -87.3 12.4 -89.45 13.7 -92.05 10.1 -91.5 17.2 -99.6 M37.55 -82.8 Q39.0 -80.7 40.3 -77.9 L30.8 -73.9 30.0 -77.45 Q30.0 -79.15 30.95 -82.65 32.0 -86.7 32.95 -86.7 34.8 -86.7 37.55 -82.8 M-32.95 -80.2 Q-32.1 -76.55 -32.65 -73.9 L-41.25 -77.75 -38.45 -82.85 Q-36.95 -85.4 -35.95 -85.4 -34.1 -85.4 -32.95 -80.2" fill="#f9c1dd" fill-rule="evenodd" stroke="none"/>
    <path d="M14.85 -78.65 Q13.8 -76.25 11.0 -74.25 L10.5 -74.45 8.1 -75.0 6.3 -74.65 4.4 -74.25 2.7 -74.45 1.05 -74.65 -2.6 -74.05 -6.05 -73.55 Q-6.8 -73.55 -8.65 -74.35 -10.5 -75.15 -11.3 -75.15 L-12.55 -74.75 -12.95 -74.6 Q-14.5 -75.75 -15.5 -77.0 -17.0 -78.8 -17.35 -80.75 -18.0 -83.8 -16.1 -87.15 L-14.7 -89.25 -15.05 -92.4 -12.1 -92.2 -18.2 -100.3 Q-11.05 -98.6 -6.5 -94.9 0.8 -98.1 7.2 -95.15 10.95 -98.65 17.2 -99.6 L10.1 -91.5 13.7 -92.05 12.4 -89.45 13.85 -87.3 Q15.5 -84.35 15.55 -81.8 15.55 -80.15 14.85 -78.65 M8.7 -84.9 Q8.2 -84.9 7.85 -84.25 7.5 -83.6 7.5 -82.65 7.5 -81.75 7.85 -81.1 8.2 -80.5 8.7 -80.5 9.2 -80.5 9.5 -81.1 9.85 -81.75 9.85 -82.65 L9.5 -84.25 Q9.2 -84.9 8.7 -84.9 M-9.55 -83.85 Q-9.9 -84.55 -10.4 -84.55 -10.9 -84.55 -11.25 -83.85 -11.6 -83.15 -11.6 -82.25 -11.6 -81.3 -11.25 -80.6 -10.9 -79.9 -10.4 -79.9 -9.9 -79.9 -9.55 -80.6 -9.2 -81.3 -9.2 -82.25 -9.2 -83.15 -9.55 -83.85" fill="#fee6b6" fill-rule="evenodd" stroke="none"/>
    <path d="M8.7 -84.9 Q9.2 -84.9 9.5 -84.25 L9.85 -82.65 Q9.85 -81.75 9.5 -81.1 9.2 -80.5 8.7 -80.5 8.2 -80.5 7.85 -81.1 7.5 -81.75 7.5 -82.65 7.5 -83.6 7.85 -84.25 8.2 -84.9 8.7 -84.9 M-9.55 -83.85 Q-9.2 -83.15 -9.2 -82.25 -9.2 -81.3 -9.55 -80.6 -9.9 -79.9 -10.4 -79.9 -10.9 -79.9 -11.25 -80.6 -11.6 -81.3 -11.6 -82.25 -11.6 -83.15 -11.25 -83.85 -10.9 -84.55 -10.4 -84.55 -9.9 -84.55 -9.55 -83.85" fill="#000000" fill-rule="evenodd" stroke="none"/>
  </g>
</svg>
