<?xml version="1.0" encoding="UTF-8" standalone="no"?>
<svg xmlns:xlink="http://www.w3.org/1999/xlink" height="72.4px" width="128.3px" xmlns="http://www.w3.org/2000/svg">
  <g transform="matrix(1.0, 0.0, 0.0, 1.0, 64.15, 36.2)">
    <path d="M12.6 -15.05 Q24.15 -29.7 34.95 -36.1 51.55 -36.9 64.15 -30.7 L37.2 -30.7 Q27.65 -24.9 17.05 -10.55 18.85 -8.2 19.85 -5.55 32.2 -11.9 40.9 -11.7 54.15 -4.5 63.0 3.6 L38.35 -5.75 Q31.2 -5.25 21.15 -0.1 L21.3 2.55 21.25 3.85 21.2 4.6 34.65 7.0 Q49.55 17.95 51.1 29.1 41.35 18.0 31.55 12.65 L19.8 10.75 19.75 10.95 18.7 13.1 26.4 24.0 Q29.15 29.65 16.5 36.2 L20.45 26.85 Q20.3 22.75 14.9 18.1 8.8 24.25 0.25 24.55 L0.0 24.55 -0.25 24.55 Q-8.8 24.25 -14.9 18.1 -20.3 22.75 -20.45 26.85 L-16.5 36.2 Q-29.15 29.65 -26.4 24.0 L-18.7 13.1 -19.75 10.95 -19.8 10.75 -31.55 12.65 Q-41.35 18.0 -51.1 29.1 -49.55 17.95 -34.65 7.0 L-21.2 4.6 -21.25 3.85 -21.3 2.55 -21.15 -0.1 Q-31.2 -5.25 -38.35 -5.75 L-63.0 3.6 Q-54.15 -4.5 -40.9 -11.7 -32.2 -11.9 -19.85 -5.55 -18.85 -8.2 -17.05 -10.55 -27.65 -24.9 -37.2 -30.7 L-64.15 -30.7 Q-51.55 -36.9 -34.95 -36.1 -24.15 -29.7 -12.6 -15.05 -7.15 -19.25 0.0 -19.45 7.15 -19.25 12.6 -15.05" fill="#4a4a4a" fill-rule="evenodd" stroke="none"/>
  </g>
</svg>
