<?xml version="1.0" encoding="UTF-8" standalone="no"?>
<svg xmlns:xlink="http://www.w3.org/1999/xlink" height="10.45px" width="61.25px" xmlns="http://www.w3.org/2000/svg">
  <g transform="matrix(1.0, 0.0, 0.0, 1.0, 35.65, 143.3)">
    <path d="M16.5 -142.25 Q17.0 -141.4 17.0 -140.25 17.0 -139.05 16.5 -138.2 16.05 -137.4 15.4 -137.4 14.75 -137.4 14.3 -138.2 13.8 -139.05 13.8 -140.25 13.8 -141.4 14.3 -142.25 14.75 -143.1 15.4 -143.1 16.05 -143.1 16.5 -142.25 M-24.85 -142.45 Q-24.3 -141.6 -24.3 -140.4 -24.3 -139.15 -24.85 -138.35 -25.35 -137.45 -26.1 -137.45 -26.85 -137.45 -27.4 -138.35 -27.9 -139.15 -27.9 -140.4 -27.9 -141.6 -27.4 -142.45 -26.85 -143.3 -26.1 -143.3 -25.35 -143.3 -24.85 -142.45" fill="#000000" fill-rule="evenodd" stroke="none"/>
    <path d="M22.1 -132.85 Q20.65 -132.85 19.6 -133.45 18.6 -133.95 18.6 -134.7 18.6 -135.45 19.6 -136.0 20.65 -136.6 22.1 -136.6 23.55 -136.6 24.5 -136.0 25.6 -135.45 25.6 -134.7 25.6 -133.95 24.5 -133.45 23.55 -132.85 22.1 -132.85 M-35.65 -135.45 Q-35.65 -136.15 -34.7 -136.65 L-32.3 -137.15 -29.95 -136.65 Q-28.9 -136.15 -28.9 -135.45 -28.9 -134.75 -29.95 -134.25 -30.9 -133.75 -32.3 -133.75 -33.65 -133.75 -34.7 -134.25 -35.65 -134.75 -35.65 -135.45" fill="#ffc3eb" fill-rule="evenodd" stroke="none"/>
  </g>
</svg>
