<?xml version="1.0" encoding="UTF-8" standalone="no"?>
<svg xmlns:xlink="http://www.w3.org/1999/xlink" height="116.3px" width="118.25px" xmlns="http://www.w3.org/2000/svg">
  <g transform="matrix(1.0, 0.0, 0.0, 1.0, 59.15, 58.15)">
    <path d="M46.75 -19.35 L46.8 -18.6 Q47.4 -13.85 52.6 -12.05 56.9 -11.85 58.4 -9.55 L59.1 -7.7 Q58.55 -6.25 53.75 -4.45 47.5 -3.05 46.8 -0.05 42.85 17.75 44.75 39.25 45.25 50.3 37.3 48.95 33.0 48.9 29.55 52.6 L29.15 52.8 Q18.95 61.65 8.4 55.9 -2.05 48.15 -11.9 51.55 -23.0 54.65 -31.4 44.6 -36.45 39.4 -47.55 40.15 -58.85 39.05 -59.15 31.65 -58.95 26.55 -51.3 20.8 -35.15 7.65 -32.3 -10.45 -30.85 -25.4 -24.9 -35.25 -11.9 -55.8 8.6 -57.9 33.1 -60.6 43.35 -33.55 45.35 -28.7 46.25 -23.1 L46.75 -19.35" fill="#ffffff" fill-rule="evenodd" stroke="none"/>
  </g>
</svg>
