<?xml version="1.0" encoding="UTF-8" standalone="no"?>
<svg xmlns:xlink="http://www.w3.org/1999/xlink" height="38.55px" width="43.6px" xmlns="http://www.w3.org/2000/svg">
  <g transform="matrix(1.0, 0.0, 0.0, 1.0, 21.8, 19.3)">
    <path d="M-5.65 6.15 Q-15.65 15.0 -17.8 9.6 L-18.7 1.95 Q-21.7 0.9 -21.8 -1.75 L-20.55 -8.45 Q-18.0 -18.8 -12.9 -19.3 -5.6 -17.05 -3.55 -2.2 -5.1 -2.05 -6.3 -0.9 -7.45 0.35 -7.6 1.95 L-7.6 2.35 Q-7.6 4.25 -6.3 5.55 L-5.65 6.15 Q-4.45 6.95 -3.0 6.95 L-0.95 6.5 0.2 5.55 1.25 4.2 Q1.6 3.35 1.6 2.35 L1.6 1.8 Q19.9 -2.6 21.8 4.75 21.25 11.5 10.15 18.2 7.25 19.8 4.45 16.7 L3.0 17.45 Q-5.15 21.5 -5.7 16.4 L-5.65 6.15" fill="#ff773d" fill-rule="evenodd" stroke="none"/>
  </g>
</svg>
