<?xml version="1.0" encoding="UTF-8" standalone="no"?>
<svg xmlns:xlink="http://www.w3.org/1999/xlink" height="63.4px" width="53.95px" xmlns="http://www.w3.org/2000/svg">
  <g transform="matrix(1.0, 0.0, 0.0, 1.0, 27.0, 31.7)">
    <path d="M18.95 -31.1 Q27.0 -29.6 26.95 -24.2 26.9 -18.9 24.35 -13.7 19.4 -11.7 14.4 -14.15 13.85 -22.5 16.1 -27.3 L16.65 -28.35 16.65 -28.05 18.95 -31.1 M2.3 19.8 L4.35 19.7 Q10.5 25.85 14.2 26.25 7.05 34.15 4.25 29.75 L-0.35 20.2 -4.65 30.55 Q-7.1 34.3 -15.15 26.0 -9.85 25.6 -5.0 19.6 L-3.8 19.9 -1.1 19.6 0.1 19.15 2.3 19.8 M-17.75 -30.45 L-18.15 -30.65 -16.7 -28.95 Q-13.85 -24.1 -14.4 -14.8 -19.45 -12.3 -24.4 -14.3 -26.9 -19.5 -27.0 -24.8 -27.05 -30.2 -19.0 -31.7 L-17.75 -30.45" fill="#ffcb5d" fill-rule="evenodd" stroke="none"/>
  </g>
</svg>
