<?xml version="1.0" encoding="UTF-8" standalone="no"?>
<svg xmlns:xlink="http://www.w3.org/1999/xlink" height="168.95px" width="131.8px" xmlns="http://www.w3.org/2000/svg">
  <g transform="matrix(1.0, 0.0, 0.0, 1.0, 65.9, 84.45)">
    <path d="M-64.4 -18.35 L-57.25 -17.45 Q-58.05 -27.65 -52.55 -36.55 -58.45 -67.25 -49.7 -82.65 -40.15 -85.85 -25.2 -56.15 -14.8 -59.8 -5.2 -54.2 6.65 -78.25 24.7 -81.65 L25.45 -81.8 Q34.2 -55.85 17.6 -37.5 22.45 -28.35 21.55 -17.75 L21.45 -16.55 27.75 -17.55 M24.7 -81.65 Q12.2 -69.1 8.8 -48.65 L17.0 -52.5 12.3 -44.6 19.7 -46.25 15.35 -41.3 17.6 -37.5 M8.3 -45.6 L8.8 -48.65 M1.55 -34.8 Q3.1 -36.1 5.05 -36.75 L5.45 -36.9 7.3 -36.75 Q13.0 -35.9 14.75 -29.2 15.25 -22.65 7.95 -17.85 L6.95 -17.4 Q2.0 -15.4 -3.0 -17.85 -3.6 -27.15 -0.75 -32.05 L0.35 -33.55 1.55 -34.8 M16.8 -11.35 L19.95 -10.55 Q21.0 -13.3 21.45 -16.55 L15.75 -15.7 M28.15 -8.45 L19.95 -10.55 Q16.35 -1.7 5.9 0.6 6.45 4.1 5.75 9.55 10.75 19.6 23.8 29.6 35.0 39.55 35.55 53.9 47.1 49.3 48.3 17.5 51.8 -6.15 61.95 -5.8 67.75 -3.95 59.7 13.25 54.8 24.75 54.75 41.0 52.85 59.95 33.15 66.05 28.3 76.25 15.85 79.65 9.2 81.65 4.9 81.5 1.8 81.4 0.0 80.15 L-0.95 79.3 Q-2.2 77.2 -1.6 75.15 L-6.9 76.2 Q-7.05 81.65 -10.8 82.75 L-13.25 83.0 Q-15.35 83.0 -16.75 82.4 -19.75 81.1 -19.5 77.05 -20.0 80.7 -22.3 81.9 -23.5 82.5 -25.25 82.4 -27.1 82.3 -28.3 81.7 -31.8 80.1 -30.55 74.45 -29.05 66.95 -30.2 59.1 -38.6 32.55 -35.2 21.45 -39.1 19.4 -40.85 13.4 -42.3 3.75 -40.65 -1.1 -52.45 -2.25 -56.15 -12.05 L-62.1 -11.2 M5.75 9.55 Q6.0 11.35 4.8 15.3 3.5 19.2 0.7 20.95 -2.1 22.7 -3.2 22.55 -10.35 30.45 -13.15 26.05 L-17.75 16.5 -22.05 26.85 Q-24.5 30.6 -32.55 22.3 L-35.2 21.45 M6.35 76.55 L4.9 81.5 M0.0 80.15 L2.25 75.7 M33.15 66.05 Q34.7 62.7 35.45 58.6 L35.55 53.9 M-15.45 4.5 L-15.1 4.35 -13.75 4.25 -13.65 4.25 Q-3.8 -7.1 2.95 -5.2 5.2 -3.65 5.9 0.6 M-34.4 -51.25 Q-29.7 -54.6 -25.2 -56.15 M-41.8 -18.0 L-42.75 -18.5 Q-50.1 -23.25 -49.6 -29.8 -47.85 -36.5 -42.15 -37.4 L-40.3 -37.5 -39.85 -37.4 Q-37.95 -36.7 -36.4 -35.4 L-35.15 -34.15 -34.1 -32.65 Q-31.25 -27.8 -31.8 -18.5 -36.85 -16.0 -41.8 -18.0 M-41.25 -47.7 L-41.15 -48.7 -47.65 -53.75 -45.2 -46.65 -50.5 -49.4 -47.65 -42.95 Q-50.5 -39.85 -52.55 -36.55 M-52.2 -16.75 L-57.25 -17.45 -56.95 -14.65 -56.15 -12.05 -51.55 -12.8 M-40.65 -1.1 Q-39.95 -3.5 -38.4 -4.75 -31.4 -6.85 -20.05 3.5 L-19.8 4.85 -21.0 4.4 -22.2 4.25 Q-24.15 4.15 -25.55 5.8 -26.45 7.2 -26.55 8.65 -26.9 11.4 -24.5 14.2 L-24.25 14.5 -22.4 15.9 -21.2 16.2 -18.5 15.9 -17.3 15.45 -15.1 16.1 -13.05 16.0 Q-10.45 15.3 -9.2 11.55 -8.7 10.2 -8.65 9.05 -8.6 6.9 -10.25 5.8 -11.85 4.5 -13.4 4.3 L-13.65 4.25 M-15.45 4.5 Q-16.65 4.85 -17.55 5.4 L-18.15 5.8 -19.3 5.1 -19.8 4.85 M-41.15 -48.7 Q-41.0 -64.85 -49.7 -82.65 M-17.3 15.45 L-17.75 16.5 M-3.2 22.55 Q-6.9 22.15 -13.05 16.0 M-32.55 22.3 Q-27.25 21.9 -22.4 15.9 M-24.75 39.4 L-18.55 43.25 -18.95 39.15 M-23.15 76.45 L-22.3 81.9 M-26.85 75.7 L-28.3 81.7 M-18.55 43.25 Q-17.25 59.45 -19.45 76.2 L-19.5 77.05 M-15.45 76.95 L-16.75 82.4 M-10.8 77.45 L-10.8 82.75 M-6.9 76.2 L-1.95 55.65 Q-2.15 51.9 -0.85 48.15 L0.15 38.9 M-0.85 48.15 Q0.95 42.8 5.6 37.4 M-1.95 55.65 Q-1.7 62.75 3.6 69.75 -0.8 72.35 -1.6 75.15 M-5.2 -54.2 Q-2.2 -52.45 0.7 -49.75" fill="none" stroke="#000000" stroke-linecap="round" stroke-linejoin="round" stroke-width="3.0"/>
    <path d="M1.55 -34.8 Q9.6 -33.3 9.55 -27.9 9.5 -22.6 6.95 -17.4 M-41.8 -18.0 Q-44.3 -23.2 -44.4 -28.5 -44.45 -33.9 -36.4 -35.4 M-15.3 -11.2 Q-17.5 -9.25 -20.4 -11.2 -20.15 -14.15 -18.05 -15.9 -15.1 -13.85 -15.3 -11.2 M-20.05 3.5 L-21.0 -1.45 Q-16.45 -3.05 -15.45 4.5 M-8.65 9.05 L-3.65 9.05 M-26.55 8.65 L-31.15 8.65" fill="none" stroke="#000000" stroke-linecap="round" stroke-linejoin="round" stroke-opacity="0.6666667" stroke-width="1.5"/>
  </g>
</svg>
