<?xml version="1.0" encoding="UTF-8" standalone="no"?>
<svg xmlns:xlink="http://www.w3.org/1999/xlink" height="120.0px" width="195.75px" xmlns="http://www.w3.org/2000/svg">
  <g transform="matrix(1.0, 0.0, 0.0, 1.0, 97.85, 60.0)">
    <path d="M35.0 -30.65 Q47.3 -24.0 54.75 -3.75 78.9 -11.05 97.9 2.6 L94.65 4.95 Q77.65 16.25 50.0 12.8 L46.15 11.2 36.95 14.95 18.65 20.35 13.35 21.35 -0.6 22.75 -11.35 22.75 Q-10.25 25.45 -9.6 28.3 -6.25 42.45 -13.9 60.0 -38.7 46.8 -43.15 25.8 L-43.8 21.95 -47.5 20.8 -61.15 15.05 -66.3 14.9 -69.15 15.7 Q-64.35 18.5 -59.0 20.75 L-61.75 28.7 -65.3 36.5 -69.05 43.1 -71.4 48.7 -75.0 50.85 Q-81.6 32.4 -73.0 13.25 L-73.6 12.85 Q-86.35 4.05 -92.4 -6.65 -96.95 -14.7 -97.75 -23.7 -98.75 -39.5 -86.8 -49.4 L-83.1 -52.2 -78.7 -54.4 Q-73.65 -56.7 -68.5 -58.05 -59.25 -60.5 -49.7 -59.9 -44.25 -59.55 -38.95 -57.9 -30.05 -55.15 -21.55 -48.7 -16.35 -44.75 -11.3 -39.35 L-6.95 -34.5 -5.8 -33.0 -0.9 -26.9 Q19.9 -2.05 38.85 -0.5 27.8 -14.6 35.0 -30.65" fill="#75caff" fill-rule="evenodd" stroke="none"/>
  </g>
</svg>
