<?xml version="1.0" encoding="UTF-8" standalone="no"?>
<svg xmlns:xlink="http://www.w3.org/1999/xlink" height="127.3px" width="59.0px" xmlns="http://www.w3.org/2000/svg">
  <g transform="matrix(1.0, 0.0, 0.0, 1.0, 28.7, 123.6)">
    <path d="M24.55 -99.35 L26.65 -104.75 Q23.65 -104.9 21.9 -100.05 21.7 -112.35 26.75 -123.6 32.95 -114.7 28.35 -95.8 L26.35 -97.95 28.05 -101.8 24.55 -99.35 M-11.3 -88.2 L-11.85 -85.65 Q-24.75 -91.35 -28.7 -111.8 -18.0 -105.1 -9.75 -92.3 L-15.2 -93.8 -11.85 -90.75 -15.65 -90.75 -11.3 -88.2 M-7.8 -4.8 L-4.65 -4.55 Q-1.2 -3.95 0.2 -1.95 2.0 -5.9 4.3 -6.1 6.35 -13.35 9.35 -12.55 12.4 -11.8 14.5 -6.75 L14.4 -9.05 Q18.4 -16.6 22.9 -10.5 22.75 -7.6 23.4 -5.7 25.0 -3.1 24.85 -0.5 24.6 3.5 21.35 2.2 L20.95 2.45 Q20.05 2.8 18.4 2.45 L17.9 2.8 17.85 2.8 14.9 2.55 Q13.8 3.55 12.35 3.15 11.25 4.15 8.8 2.95 L8.55 3.15 7.0 3.4 Q5.05 3.1 4.6 -0.6 L0.85 -0.6 Q1.9 3.1 -3.95 3.2 L-7.15 3.3 -10.2 3.55 Q-13.85 2.5 -18.4 2.3 L-20.75 2.35 Q-16.05 -6.45 -7.8 -4.8" fill="#3e3633" fill-rule="evenodd" stroke="none"/>
    <path d="M21.9 -82.65 Q21.25 -83.4 20.95 -84.7 20.55 -85.9 20.8 -86.9 20.95 -87.9 21.5 -88.05 22.1 -88.2 22.7 -87.45 L23.7 -85.4 Q24.05 -84.1 23.8 -83.2 23.7 -82.2 23.15 -82.1 22.55 -81.9 21.9 -82.65 M-2.9 -77.85 Q-3.5 -77.85 -3.85 -78.8 -4.3 -79.75 -4.3 -81.1 -4.3 -82.4 -3.85 -83.4 -3.5 -84.3 -2.9 -84.3 -2.3 -84.3 -1.9 -83.4 -1.55 -82.4 -1.55 -81.1 -1.55 -79.75 -1.9 -78.8 -2.3 -77.85 -2.9 -77.85" fill="#000000" fill-rule="evenodd" stroke="none"/>
  </g>
</svg>
