<?xml version="1.0" encoding="UTF-8" standalone="no"?>
<svg xmlns:xlink="http://www.w3.org/1999/xlink" height="14.05px" width="26.95px" xmlns="http://www.w3.org/2000/svg">
  <g transform="matrix(1.0, 0.0, 0.0, 1.0, -3.85, 84.95)">
    <path d="M6.05 -84.3 Q6.75 -83.55 7.1 -82.25 L7.25 -79.9 Q7.05 -78.9 6.4 -78.75 5.75 -78.55 5.05 -79.4 4.35 -80.1 4.05 -81.4 3.7 -82.7 3.9 -83.75 4.1 -84.75 4.75 -84.9 5.4 -85.05 6.05 -84.3" fill="#040000" fill-rule="evenodd" stroke="none"/>
    <path d="M28.15 -70.95 Q26.2 -71.4 25.7 -75.65 26.9 -76.6 28.25 -78.4 L30.7 -75.8 30.8 -74.3 Q30.75 -71.2 28.7 -70.9 L28.15 -70.95" fill="#f78ba5" fill-rule="evenodd" stroke="none"/>
  </g>
</svg>
