<?xml version="1.0" encoding="UTF-8" standalone="no"?>
<svg xmlns:xlink="http://www.w3.org/1999/xlink" height="170.25px" width="114.65px" xmlns="http://www.w3.org/2000/svg">
  <g transform="matrix(1.0, 0.0, 0.0, 1.0, 57.35, 85.15)">
    <path d="M22.1 -85.15 Q12.25 -74.5 12.1 -61.9 L17.75 -67.25 15.45 -60.35 21.8 -62.4 19.0 -57.8 24.1 -51.7 Q27.7 -46.55 29.6 -41.2 L30.9 -36.35 31.4 -33.2 Q13.45 -28.85 4.05 -39.9 -4.3 -51.25 2.85 -66.3 L-0.05 -67.2 Q8.2 -82.2 22.1 -85.15 M17.85 -11.8 Q30.65 -7.15 33.6 5.3 34.6 11.7 32.05 12.7 L31.4 12.9 Q27.65 13.35 21.3 3.65 19.65 0.15 17.05 -3.65 14.45 -7.45 17.85 -11.8 M-25.5 -65.4 L-25.35 -64.9 Q-13.2 -52.4 -16.5 -39.55 -20.75 -24.0 -47.95 -23.55 L-48.3 -26.25 -48.65 -31.5 Q-48.85 -37.6 -47.8 -44.2 -47.1 -48.6 -45.9 -53.2 L-42.55 -51.7 -44.35 -57.8 -39.75 -55.5 Q-41.55 -68.65 -55.35 -76.7 L-53.3 -76.8 Q-40.25 -77.05 -25.5 -65.4 M21.25 70.15 L21.2 71.5 20.95 74.6 Q19.85 81.25 14.15 78.4 0.5 85.8 -9.6 80.05 -14.6 86.2 -25.95 84.85 -39.25 82.6 -45.9 71.15 -51.45 60.1 -57.35 50.65 -52.65 49.65 -55.55 45.95 -52.2 46.2 -50.95 43.95 -45.5 49.6 -37.45 65.1 -29.05 79.05 -16.75 73.8 -28.15 57.1 -25.95 39.8 -22.2 12.9 -29.2 -5.95 -26.6 -5.15 -23.9 -5.25 L-13.85 -1.8 Q-0.45 -0.55 1.9 12.2 1.95 19.35 -2.9 15.95 L-4.9 14.4 -8.15 11.7 Q-9.6 25.55 -8.15 40.4 -3.9 37.5 2.15 39.55 10.45 43.75 11.35 53.6 11.35 44.6 19.25 43.9 26.25 44.8 24.4 51.3 23.5 54.25 22.85 57.3 16.95 55.25 16.2 64.35 15.5 69.7 21.25 70.15 M47.65 49.25 Q43.75 54.1 47.65 59.95 L46.1 63.55 Q42.45 73.2 35.15 63.65 37.6 58.7 37.9 51.8 L37.15 46.95 Q34.8 36.5 30.75 27.15 42.2 32.05 42.95 45.45 50.75 33.6 55.55 36.25 59.6 39.35 54.4 48.45 51.0 46.3 47.65 49.25" fill="#fbe0cd" fill-rule="evenodd" stroke="none"/>
  </g>
</svg>
