<?xml version="1.0" encoding="UTF-8" standalone="no"?>
<svg xmlns:xlink="http://www.w3.org/1999/xlink" height="158.55px" width="145.05px" xmlns="http://www.w3.org/2000/svg">
  <g transform="matrix(1.0, 0.0, 0.0, 1.0, 72.55, 79.25)">
    <path d="M42.15 -41.8 Q34.05 -54.55 18.5 -49.65 6.4 -43.7 5.15 -26.8 3.05 -28.5 -0.05 -28.3 -3.1 -28.5 -5.25 -26.8 -6.5 -43.7 -18.6 -49.65 -34.15 -54.55 -42.25 -41.8 -41.35 -47.4 -39.15 -52.9 -25.5 -78.5 -0.05 -79.25 25.4 -78.5 39.1 -52.9 41.3 -47.4 42.15 -41.8 M71.45 36.15 Q64.05 43.85 36.1 28.8 50.65 59.95 37.85 78.3 L36.95 79.3 Q43.1 53.25 34.35 35.9 25.9 20.55 23.8 10.55 21.9 4.6 29.8 -0.05 L31.0 0.15 Q54.15 3.95 66.3 19.4 73.9 29.05 72.15 34.65 L71.45 36.15 M-34.4 35.9 Q-43.2 53.25 -37.05 79.3 L-37.9 78.3 Q-50.7 59.95 -36.15 28.8 -64.1 43.85 -71.5 36.15 L-72.2 34.65 Q-73.95 29.05 -66.4 19.4 -54.2 3.95 -31.1 0.15 L-29.9 -0.05 Q-22.0 4.6 -23.85 10.55 -26.0 20.55 -34.4 35.9" fill="#282828" fill-rule="evenodd" stroke="none"/>
  </g>
</svg>
