<?xml version="1.0" encoding="UTF-8" standalone="no"?>
<svg xmlns:xlink="http://www.w3.org/1999/xlink" height="136.45px" width="155.7px" xmlns="http://www.w3.org/2000/svg">
  <g transform="matrix(1.0, 0.0, 0.0, 1.0, 77.85, 68.25)">
    <path d="M60.2 -67.85 Q61.95 -68.6 63.65 -67.85 67.35 -65.5 69.0 -57.55 70.2 -51.75 68.55 -40.95 69.5 -41.2 70.3 -43.2 71.25 -41.3 68.85 -37.1 70.15 -37.1 70.8 -38.0 L70.95 -38.3 Q71.25 -37.1 70.8 -36.15 70.4 -35.25 69.45 -34.55 69.35 -31.45 70.8 -27.7 L72.0 -25.1 Q75.7 -22.0 77.65 -17.7 78.45 -15.9 76.4 -11.95 79.25 -8.65 70.8 -2.5 68.25 -0.7 64.75 1.4 59.85 4.55 53.55 6.0 47.9 7.35 41.1 7.3 L24.2 6.05 Q25.45 11.5 35.55 12.1 L40.7 12.1 42.8 12.1 Q46.45 11.9 48.9 11.05 L49.3 10.85 51.3 9.8 50.75 13.4 49.25 13.1 Q47.85 12.95 46.7 14.2 L42.9 14.05 38.45 14.25 Q37.2 12.95 35.8 13.1 34.0 13.0 33.05 14.75 32.65 16.7 34.55 16.7 32.7 16.8 33.15 18.65 34.1 20.35 35.9 20.3 37.35 20.4 38.95 18.25 L46.1 18.25 Q47.75 20.4 49.2 20.3 L47.9 24.85 Q47.75 32.35 44.0 38.15 49.2 58.1 53.85 65.2 52.85 66.05 51.65 66.7 50.2 67.45 48.5 67.8 L42.65 68.15 Q38.2 65.85 34.0 57.9 33.25 59.65 32.5 64.05 32.0 65.55 29.85 66.05 L28.45 66.25 25.55 66.0 Q22.4 65.2 21.65 61.8 19.8 53.65 23.95 43.2 17.15 45.95 13.05 46.05 5.35 46.45 -2.35 45.9 1.95 51.15 5.3 56.45 4.3 58.2 2.05 59.0 L-2.35 59.6 -5.6 59.35 Q-11.15 54.3 -16.6 44.15 -19.55 46.55 -23.55 48.75 -17.85 56.2 -13.3 63.65 -13.05 65.25 -15.3 66.0 L-15.05 67.55 -20.25 67.85 Q-24.95 68.25 -28.95 65.35 -40.15 52.65 -38.9 44.9 -34.8 42.45 -33.3 36.1 L-33.3 18.35 Q-44.05 25.75 -55.45 24.15 -54.85 22.05 -50.6 20.05 -69.3 20.9 -72.35 17.05 -73.55 14.2 -68.55 14.4 -77.15 8.3 -77.85 -0.05 -76.35 0.3 -73.5 2.85 -76.9 -10.55 -65.65 -18.15 -46.35 -29.95 -36.0 -18.15 -53.15 -15.45 -54.65 -4.5 -55.55 10.75 -30.35 12.65 -28.2 9.9 -24.6 7.75 -18.0 3.9 -9.4 3.5 L11.15 3.5 Q8.5 1.8 7.9 -0.4 L9.6 -0.4 Q7.35 -1.55 5.75 -3.05 4.2 -4.45 3.2 -6.2 3.5 -9.85 4.7 -12.05 4.85 -14.7 5.75 -17.55 L6.2 -18.95 Q5.6 -21.65 7.1 -25.0 L7.15 -25.15 5.75 -26.2 Q4.95 -27.05 4.5 -28.2 L5.75 -28.35 6.7 -29.15 5.75 -29.85 Q4.4 -31.05 3.85 -32.85 4.6 -33.9 5.75 -34.2 L6.35 -34.35 5.75 -35.7 Q5.1 -37.45 4.9 -39.4 3.9 -44.45 5.35 -53.6 L5.75 -55.5 Q7.4 -62.85 11.95 -63.75 15.5 -65.0 30.1 -48.15 36.5 -50.6 43.7 -50.1 51.15 -62.5 60.2 -67.85" fill="#e58f3a" fill-rule="evenodd" stroke="none"/>
  </g>
</svg>
