<?xml version="1.0" encoding="UTF-8" standalone="no"?>
<svg xmlns:xlink="http://www.w3.org/1999/xlink" height="40.6px" width="64.35px" xmlns="http://www.w3.org/2000/svg">
  <g transform="matrix(1.0, 0.0, 0.0, 1.0, 32.15, 20.3)">
    <path d="M29.05 -20.3 Q30.95 -16.05 22.75 -12.2 L21.7 -13.8 Q26.05 -15.3 29.05 -20.3 M32.2 11.55 L32.2 13.6 Q31.4 15.25 29.95 16.7 28.45 18.15 25.95 18.2 23.45 18.3 21.9 16.55 L20.9 15.15 Q20.2 14.0 20.1 12.65 L20.0 11.55 Q20.0 8.65 21.75 6.65 23.55 4.55 26.05 4.55 28.65 4.55 30.4 6.65 31.85 8.25 32.15 10.4 L32.2 11.25 32.2 11.55 M-16.85 -10.25 Q-20.7 -8.85 -25.05 -9.1 -32.15 -10.4 -32.15 -16.65 -30.05 -17.5 -26.9 -13.55 -22.65 -9.8 -16.85 -10.25 M-10.75 8.35 Q-8.7 10.5 -8.65 13.35 -8.6 16.25 -10.65 18.2 -12.75 20.1 -15.45 20.3 L-15.6 20.3 Q-18.45 20.45 -20.8 18.25 -23.15 16.05 -23.0 13.15 -22.9 10.2 -20.8 8.0 -18.65 5.85 -15.8 6.05 -12.85 6.3 -10.75 8.35" fill="#eca89f" fill-rule="evenodd" stroke="none"/>
  </g>
</svg>
