<?xml version="1.0" encoding="UTF-8" standalone="no"?>
<svg xmlns:xlink="http://www.w3.org/1999/xlink" height="141.5px" width="178.95px" xmlns="http://www.w3.org/2000/svg">
  <g transform="matrix(1.0, 0.0, 0.0, 1.0, 89.5, 70.75)">
    <path d="M16.4 -55.4 L17.2 -58.55 Q25.2 -56.25 31.0 -43.0 29.0 -43.9 27.25 -42.4 28.25 -41.0 30.45 -40.65 28.35 -40.05 27.0 -36.4 M69.15 -42.55 Q70.25 -45.0 68.75 -45.55 70.0 -47.0 69.85 -48.8 L68.55 -48.05 Q68.6 -62.35 75.25 -69.75 M43.95 3.65 Q39.85 6.85 34.1 7.35 37.5 9.1 41.95 9.0 38.75 13.85 33.2 18.45 37.35 17.7 40.9 14.65 41.9 22.65 40.9 30.8 43.15 29.6 44.55 25.1 45.4 31.65 44.25 38.75 L45.4 38.25 45.9 38.0 46.15 37.85 Q50.55 35.45 53.1 30.7 M46.15 37.85 Q50.15 36.55 53.9 34.15 M-2.6 46.6 L-1.65 44.05 0.7 46.6 0.7 43.55 3.55 46.1 4.35 43.15 6.15 45.8 6.95 42.5 M36.65 51.0 L40.55 53.25 40.55 50.0 44.6 52.45 44.05 49.5 47.2 51.55 47.2 44.75 M38.4 53.85 L36.65 55.1 36.65 52.65 34.25 54.4 34.25 51.5 31.6 53.55 30.3 50.2 M-31.75 50.35 Q-37.6 51.7 -42.7 50.9 -31.6 46.85 -30.0 42.8 -41.35 48.7 -50.8 45.9 -42.35 42.8 -39.4 39.4 -48.8 43.7 -56.65 42.5 -39.3 34.2 -35.8 19.85 -45.7 30.85 -57.15 32.85 -51.55 29.25 -49.65 24.55 -56.55 30.2 -65.75 29.6 -57.35 22.6 -54.8 15.0 -59.85 19.7 -65.7 24.05 M-49.65 24.55 L-48.45 23.45 M-23.1 51.75 L-19.6 57.55 -19.05 52.25 -16.5 56.7 -15.7 51.55 -13.5 55.6 -12.55 51.5 -10.9 55.5" fill="none" stroke="#000000" stroke-linecap="round" stroke-linejoin="round" stroke-width="1.4000000000000001"/>
    <path d="M27.0 -36.4 Q34.35 -43.0 44.0 -46.0 L43.8 -45.95 43.7 -45.95 Q24.95 -60.8 20.25 -61.3 17.1 -61.75 16.4 -55.4 15.0 -46.8 19.65 -32.25 17.7 -32.35 17.65 -31.05 18.45 -29.55 19.75 -28.25 18.95 -25.45 20.5 -22.9 L22.5 -22.5 M27.0 -36.4 Q23.05 -32.85 19.75 -28.25 M40.4 -30.85 Q41.15 -31.55 42.45 -31.9 L44.75 -32.05 Q45.75 -31.8 45.95 -31.15 46.1 -30.5 45.3 -29.85 44.6 -29.15 43.3 -28.8 L41.0 -28.65 Q39.95 -28.85 39.8 -29.5 39.65 -30.15 40.4 -30.85 M44.0 -46.0 L51.5 -46.75 52.9 -48.7 Q64.7 -65.2 75.25 -69.75 83.55 -56.25 79.1 -38.75 L81.5 -40.4 Q80.75 -37.15 77.7 -33.95 L79.35 -31.55 Q80.5 -30.15 82.4 -31.0 84.5 -30.1 82.4 -27.05 L87.3 -27.25 Q86.4 -23.65 84.8 -21.9 86.6 -21.7 88.45 -22.8 77.3 -0.8 61.6 4.6 L59.2 4.8 Q66.75 8.05 70.65 5.2 68.25 8.85 63.7 10.1 67.55 16.6 66.8 22.55 64.8 19.6 62.3 18.25 63.05 28.2 58.4 32.8 59.0 30.7 59.25 26.6 58.25 30.45 54.9 33.35 L53.9 34.15 Q50.4 36.55 48.9 38.15 46.75 40.35 47.2 44.75 50.7 55.8 56.1 65.3 54.1 68.7 48.7 68.5 44.0 62.4 39.8 56.0 37.1 62.3 36.3 68.45 31.75 70.0 28.5 65.65 28.4 57.2 30.3 50.2 31.4 46.1 33.25 42.5 L33.0 40.2 Q29.3 42.1 24.2 40.8 15.75 37.3 6.6 35.3 6.7 39.2 6.95 42.5 7.8 54.2 10.2 58.7 7.3 59.95 4.1 59.55 0.55 56.25 -2.6 46.6 L-3.7 43.1 Q-6.95 46.15 -11.05 48.15 -11.4 51.55 -10.9 55.5 -10.15 61.4 -7.3 68.7 -11.6 70.6 -15.4 69.0 -21.5 60.55 -23.1 51.75 -23.7 48.5 -23.7 45.15 -17.55 37.35 -17.4 29.0 L-17.4 28.65 Q-22.2 42.55 -31.75 50.35 -36.45 54.25 -42.3 56.65 -56.6 61.2 -64.6 55.05 -60.6 55.55 -57.15 53.65 -68.3 53.65 -78.05 44.55 -87.2 34.8 -88.5 23.55 -86.35 27.45 -81.35 31.1 -73.25 31.45 -65.7 24.05 L-60.5 14.7 Q-53.4 2.9 -44.1 -2.2 -49.25 -1.4 -54.7 1.0 -43.45 -8.95 -28.35 -8.95 -13.05 -6.45 -7.45 5.4 1.8 1.25 14.75 3.65 31.6 8.1 43.95 3.65 27.95 0.35 13.85 -10.2 L18.7 -10.2 Q14.55 -13.3 12.65 -17.6 15.6 -18.5 19.15 -17.6 16.9 -19.75 16.75 -22.5 17.85 -23.3 20.5 -22.9 M51.5 -46.75 L61.85 -45.9 Q65.65 -44.95 69.15 -42.55 73.7 -39.5 77.7 -33.95 M66.8 -34.8 L64.5 -34.95 Q63.5 -34.7 63.3 -34.05 63.15 -33.4 63.9 -32.75 64.65 -32.05 65.95 -31.7 L68.25 -31.55 Q69.25 -31.75 69.45 -32.4 69.6 -33.05 68.8 -33.75 68.05 -34.45 66.8 -34.8 M59.4 -4.65 L61.2 -4.4 Q62.0 -3.95 62.05 -3.3 62.15 -2.6 61.45 -2.05 60.75 -1.45 59.75 -1.4 L57.95 -1.65 Q57.2 -2.1 57.1 -2.75 57.05 -3.45 57.7 -4.0 58.4 -4.55 59.4 -4.65 M65.7 -15.45 Q69.05 -20.25 74.45 -21.4 M33.35 -17.05 Q38.75 -17.9 45.8 -14.25 M54.3 0.65 Q56.65 2.8 60.15 0.4 64.4 1.55 65.75 -1.4 M43.95 3.65 Q51.55 5.2 59.2 4.8 M6.25 23.15 Q5.0 29.5 2.55 34.5 L6.6 35.3 M33.25 42.5 L33.6 45.8 36.65 51.0 38.4 53.85 39.8 56.0 M30.6 30.95 Q32.4 35.75 33.0 40.2 M60.4 -1.1 Q60.85 -0.4 60.4 0.15 M-42.3 -3.1 L-44.1 -2.2 M-17.4 28.65 Q-17.35 25.25 -18.35 21.8 -18.1 10.25 -7.85 5.6 L-7.45 5.4 M-57.15 53.65 L-54.45 53.55 M-11.05 48.15 L-14.5 49.65 M-81.35 31.1 Q-76.6 34.3 -70.15 31.2 M2.55 34.5 Q0.0 39.55 -3.7 43.1" fill="none" stroke="#000000" stroke-linecap="round" stroke-linejoin="round" stroke-width="2.0"/>
  </g>
</svg>
