<?xml version="1.0" encoding="UTF-8" standalone="no"?>
<svg xmlns:xlink="http://www.w3.org/1999/xlink" height="136.3px" width="133.95px" xmlns="http://www.w3.org/2000/svg">
  <g transform="matrix(1.0, 0.0, 0.0, 1.0, 67.0, 68.15)">
    <path d="M-53.1 -28.35 Q-50.4 -29.9 -46.95 -30.8 -41.4 -31.6 -37.4 -30.6 -31.2 -28.95 -28.6 -22.75 -32.4 -24.3 -36.8 -22.25 L-37.0 -22.15 -37.0 -22.05 -37.4 -21.95 Q-40.55 -20.3 -43.8 -16.8 L-36.1 -20.4 -37.4 -18.95 Q-46.25 -8.65 -41.85 -0.75 -46.45 -2.9 -47.5 -11.3 L-47.5 -0.7 -50.85 -9.55 -50.85 -0.7 -54.8 -9.0 Q-55.2 -1.8 -51.8 4.45 -60.0 -0.15 -61.7 -10.3 -63.05 -6.55 -63.25 -1.75 -65.5 -4.6 -66.35 -7.5 -67.4 -10.75 -66.7 -14.0 -65.95 -17.0 -64.6 -19.9 -61.4 -28.7 -55.2 -31.55 L-59.9 -20.9 Q-57.5 -25.8 -53.15 -28.35 L-53.1 -28.35 M2.05 -35.15 L2.85 -32.2 Q4.25 -27.9 6.6 -24.35 L6.9 -27.05 Q7.35 -32.3 10.6 -35.45 L6.15 -35.45 10.6 -37.95 6.15 -41.1 14.4 -38.5 Q11.6 -41.1 9.65 -44.8 7.35 -50.9 3.55 -54.55 1.85 -53.05 1.45 -48.7 0.85 -41.3 2.05 -35.15 M48.3 -65.8 L50.75 -68.15 53.3 -65.8 Q61.05 -57.1 59.7 -39.45 L61.6 -41.1 61.15 -39.05 61.05 -38.9 Q60.2 -35.95 58.05 -33.5 60.05 -32.6 60.75 -30.95 58.25 -31.35 56.9 -30.95 60.7 -24.85 66.95 -27.9 L62.3 -21.2 66.95 -23.95 62.1 -13.15 66.5 -13.15 62.1 -10.5 60.55 -6.9 Q58.25 -2.7 53.65 0.4 L50.1 2.45 48.15 5.2 Q41.95 11.5 27.85 5.75 L17.35 5.2 17.15 5.15 Q13.8 6.35 10.05 4.05 10.85 6.7 13.15 8.85 L16.95 11.5 Q14.65 11.9 11.95 10.2 13.7 13.85 17.95 15.9 15.45 17.2 15.65 19.7 17.65 18.75 19.6 19.4 18.9 28.5 24.8 34.55 22.7 31.35 23.5 27.25 L28.1 37.3 28.1 41.9 Q28.95 50.9 34.45 59.3 L34.55 59.35 34.75 59.35 Q38.8 60.7 39.2 64.9 38.35 67.5 34.55 68.1 L28.65 67.75 Q23.65 62.6 19.9 56.7 L18.75 60.25 Q20.15 64.35 17.15 66.4 13.1 66.55 10.6 63.15 9.45 61.55 8.5 59.15 L11.85 45.95 11.05 45.25 Q13.0 42.45 12.75 39.6 8.55 41.8 4.75 40.6 L8.05 38.35 4.6 39.05 Q2.2 39.25 0.25 38.35 -5.45 34.25 -10.85 35.75 L-8.95 49.15 Q-4.15 52.4 -5.65 56.65 L-7.8 57.2 -7.85 57.2 -13.5 57.4 Q-16.9 53.4 -17.45 47.85 L-18.1 47.25 -21.0 50.1 -18.5 43.6 -28.05 48.25 -25.2 60.65 Q-23.65 60.95 -22.8 61.65 -20.35 63.25 -21.3 67.35 L-22.9 67.6 -27.25 67.0 -29.9 66.05 Q-38.0 62.1 -41.55 38.65 L-38.7 38.65 -41.3 31.65 Q-30.9 35.65 -38.7 28.5 L-34.75 28.5 -34.75 15.9 -38.35 20.55 Q-37.95 17.5 -36.65 14.9 -34.9 11.25 -31.6 8.45 L-31.2 8.05 -35.35 2.45 -30.5 3.85 -30.45 3.85 Q-23.6 5.25 -16.65 2.45 -9.5 1.3 -3.95 5.0 L-6.75 0.4 -0.9 3.4 -0.9 -3.85 Q2.4 0.8 8.15 0.4 2.4 -3.05 0.45 -6.9 -0.15 -7.9 -0.35 -9.0 L4.35 -6.9 Q1.95 -8.2 0.45 -9.75 -1.8 -11.85 -2.2 -14.4 2.35 -13.75 4.6 -18.1 L3.15 -22.15 0.65 -20.9 1.85 -25.05 -1.45 -24.05 Q-1.1 -26.35 1.65 -26.8 -2.55 -30.3 -2.75 -35.25 L0.85 -31.4 0.05 -34.6 -0.05 -34.75 Q-3.3 -49.05 2.0 -60.4 14.25 -54.5 25.25 -45.0 29.7 -47.8 31.45 -50.95 32.25 -47.8 30.95 -45.85 L34.55 -45.85 Q39.55 -57.1 48.3 -65.8 M54.0 -56.45 Q50.95 -66.8 48.6 -57.65 46.2 -48.55 43.95 -44.25 L43.5 -43.45 44.3 -44.05 Q47.3 -45.85 50.25 -46.4 47.2 -45.0 45.5 -42.1 48.35 -42.55 51.25 -40.2 L46.75 -39.1 51.25 -37.0 51.25 -36.55 52.65 -35.85 54.45 -34.85 Q55.1 -34.5 55.1 -34.6 L55.1 -34.75 55.0 -34.9 55.1 -35.8 Q57.15 -47.0 54.0 -56.45" fill="#a7472c" fill-rule="evenodd" stroke="none"/>
  </g>
</svg>
