<?xml version="1.0" encoding="UTF-8" standalone="no"?>
<svg xmlns:xlink="http://www.w3.org/1999/xlink" height="56.35px" width="126.6px" xmlns="http://www.w3.org/2000/svg">
  <g transform="matrix(1.0, 0.0, 0.0, 1.0, 63.3, 28.2)">
    <path d="M18.55 -10.15 Q22.3 -7.85 25.65 -9.05 L25.85 -9.0 Q30.6 -7.85 36.35 -8.45 50.45 -2.7 56.65 -9.0 60.1 -8.2 63.3 -12.15 62.75 -4.5 55.7 -0.35 L63.0 -1.8 Q59.9 0.7 56.1 1.5 L55.15 1.7 Q58.15 4.15 57.6 6.6 54.55 4.95 52.8 6.6 56.95 13.55 54.3 18.3 L52.8 13.6 Q50.75 18.9 46.3 21.85 43.55 24.65 41.1 24.3 39.75 26.05 39.45 28.15 L36.6 23.1 32.0 13.05 Q31.2 17.15 33.3 20.35 27.4 14.3 28.1 5.2 26.15 4.55 24.15 5.5 23.95 3.0 26.45 1.7 22.2 -0.35 20.45 -4.0 23.15 -2.3 25.45 -2.7 23.2 -3.9 21.65 -5.35 19.35 -7.5 18.55 -10.15 M-59.2 -21.1 L-59.2 -21.85 Q-58.95 -25.15 -58.2 -28.2 -58.9 -24.95 -57.85 -21.7 -57.0 -18.8 -54.75 -15.95 -54.55 -20.75 -53.2 -24.5 -51.5 -14.35 -43.3 -9.75 -46.7 -16.0 -46.3 -23.2 L-42.35 -14.9 -42.35 -23.75 -39.0 -14.9 -39.0 -25.5 Q-37.95 -17.1 -33.35 -14.95 L-32.8 -14.05 -32.55 -13.75 Q-29.85 -10.0 -23.95 -6.8 L-23.1 -5.75 Q-26.4 -2.95 -28.15 0.7 -29.45 3.3 -29.85 6.35 L-26.25 1.7 -26.25 7.65 Q-28.9 9.5 -31.6 10.6 L-31.65 10.7 Q-36.0 12.55 -40.8 12.3 -49.2 11.9 -54.2 7.05 L-45.45 7.05 Q-51.5 6.85 -57.65 1.1 -64.4 -8.95 -63.1 -21.3 L-58.65 -12.35 Q-59.4 -17.05 -59.2 -21.1" fill="#c0865a" fill-rule="evenodd" stroke="none"/>
  </g>
</svg>
