<?xml version="1.0" encoding="UTF-8" standalone="no"?>
<svg xmlns:xlink="http://www.w3.org/1999/xlink" height="4.2px" width="43.15px" xmlns="http://www.w3.org/2000/svg">
  <g transform="matrix(1.0, 0.0, 0.0, 1.0, 21.55, 2.1)">
    <path d="M17.8 -2.1 Q19.35 -2.1 20.45 -1.5 21.6 -0.9 21.6 0.1 21.6 1.05 20.5 1.6 19.35 2.2 17.8 2.1 16.2 2.0 15.05 1.4 13.95 0.8 13.95 -0.05 13.95 -0.9 15.05 -1.5 16.2 -2.1 17.8 -2.1 M-15.55 -0.85 Q-14.55 -0.4 -14.55 0.25 -14.55 0.9 -15.55 1.4 L-18.05 1.8 -20.55 1.35 Q-21.55 0.9 -21.55 0.25 -21.55 -0.4 -20.55 -0.85 L-18.05 -1.3 -15.55 -0.85" fill="#e83753" fill-rule="evenodd" stroke="none"/>
  </g>
</svg>
