<?xml version="1.0" encoding="UTF-8" standalone="no"?>
<svg xmlns:xlink="http://www.w3.org/1999/xlink" height="19.2px" width="23.65px" xmlns="http://www.w3.org/2000/svg">
  <g transform="matrix(1.0, 0.0, 0.0, 1.0, -11.1, 70.4)">
    <path d="M13.25 -69.05 Q14.15 -69.05 14.8 -67.95 15.4 -66.85 15.4 -65.25 15.4 -63.65 14.8 -62.55 14.15 -61.45 13.25 -61.45 12.4 -61.45 11.75 -62.55 11.1 -63.65 11.1 -65.25 11.1 -66.85 11.75 -67.95 12.4 -69.05 13.25 -69.05 M34.75 -66.6 Q34.75 -65.0 34.15 -63.9 33.5 -62.8 32.6 -62.8 31.75 -62.8 31.1 -63.9 30.45 -65.0 30.45 -66.6 30.45 -68.2 31.1 -69.3 31.75 -70.4 32.6 -70.4 33.5 -70.4 34.15 -69.3 34.75 -68.2 34.75 -66.6" fill="#171616" fill-rule="evenodd" stroke="none"/>
    <path d="M27.65 -51.2 Q25.1 -51.4 25.45 -55.0 26.45 -54.9 27.7 -55.5 28.8 -55.0 29.8 -55.2 30.15 -51.0 27.65 -51.2" fill="#ff8a92" fill-rule="evenodd" stroke="none"/>
  </g>
</svg>
