<?xml version="1.0" encoding="UTF-8" standalone="no"?>
<svg xmlns:xlink="http://www.w3.org/1999/xlink" height="154.55px" width="90.55px" xmlns="http://www.w3.org/2000/svg">
  <g transform="matrix(1.0, 0.0, 0.0, 1.0, 45.3, 77.3)">
    <path d="M14.6 -28.0 L14.35 -28.3 Q13.6 -29.45 12.55 -29.45 11.5 -29.45 10.75 -28.45 5.05 -34.2 2.7 -32.3 -1.3 -27.7 0.85 -21.65 1.75 -19.8 3.5 -19.75 8.55 -12.7 10.75 -16.2 L12.8 -21.85 15.35 -16.2 Q16.95 -12.85 23.05 -19.55 25.4 -19.6 25.9 -22.0 27.15 -30.4 23.9 -32.3 21.5 -34.0 14.6 -28.0 M35.95 -52.8 Q36.8 -51.05 37.15 -49.25 38.4 -44.85 45.25 -42.35 L39.0 -39.6 43.1 -36.85 Q40.0 -32.45 30.85 -30.0 41.65 -20.75 38.5 -7.85 L34.4 -14.45 Q35.85 -7.9 34.05 -2.05 43.35 9.55 31.65 23.2 39.5 28.75 34.55 32.15 34.1 32.4 33.8 32.65 31.75 33.65 29.45 33.65 26.25 33.5 22.55 31.25 19.2 28.65 13.35 30.05 13.85 34.5 7.8 35.15 -0.65 36.45 -0.5 31.95 -1.4 32.65 -3.2 32.75 L-7.5 32.5 -8.5 32.4 Q-14.45 30.0 -7.7 23.25 L-6.55 22.2 Q-8.7 19.6 -9.95 17.15 -16.7 22.95 -13.45 32.2 L-13.1 33.0 Q-7.4 46.35 -11.4 53.8 -10.8 65.55 -17.35 77.25 -19.35 65.4 -30.2 58.0 -42.0 49.95 -40.95 33.75 -40.85 31.25 -40.35 28.65 L-45.3 33.7 Q-39.65 3.7 -10.7 2.9 -9.4 -0.35 -6.55 -3.5 -9.4 -9.35 -8.0 -16.4 -10.65 -13.9 -13.2 -8.05 -15.75 -19.5 -4.35 -29.45 -13.6 -32.85 -17.55 -36.25 L-13.2 -39.4 -19.45 -42.55 Q-13.25 -46.35 -9.95 -52.45 -8.3 -55.3 -7.3 -58.65 L-11.1 -62.25 -5.05 -62.0 Q-11.45 -68.85 -14.6 -76.85 -7.05 -76.35 3.2 -68.15 13.05 -71.9 22.35 -67.95 33.8 -78.1 40.3 -77.25 L31.3 -61.1 36.7 -62.25 32.9 -58.15 Q34.8 -55.45 35.95 -52.8" fill="#ffffff" fill-rule="evenodd" stroke="none"/>
  </g>
</svg>
