<?xml version="1.0" encoding="UTF-8" standalone="no"?>
<svg xmlns:xlink="http://www.w3.org/1999/xlink" height="9.0px" width="82.4px" xmlns="http://www.w3.org/2000/svg">
  <g transform="matrix(1.0, 0.0, 0.0, 1.0, 41.2, 4.5)">
    <path d="M41.0 -3.4 L41.2 0.7 39.75 1.2 38.6 -0.95 37.45 1.7 29.05 1.2 Q26.5 -0.5 26.25 -2.6 33.5 -1.15 41.0 -3.4 M18.5 1.65 L17.2 4.35 Q13.6 4.75 9.55 4.2 7.6 3.9 5.7 -0.1 14.4 0.9 21.15 -0.8 L22.35 3.15 20.15 3.85 18.5 1.65 M-5.8 -0.95 L-7.1 -0.6 -8.85 -2.25 -10.1 -0.2 Q-12.85 -0.05 -16.7 -0.2 -18.85 -1.1 -19.7 -4.1 -12.1 -2.45 -6.85 -4.5 L-5.8 -0.95 M-24.2 -1.5 L-22.75 2.85 -24.15 3.15 -26.3 0.85 -27.85 3.75 -37.2 3.45 Q-39.65 2.0 -41.2 -1.5 -30.6 0.5 -24.2 -1.5" fill="#8e4d38" fill-rule="evenodd" stroke="none"/>
  </g>
</svg>
