<?xml version="1.0" encoding="UTF-8" standalone="no"?>
<svg xmlns:xlink="http://www.w3.org/1999/xlink" height="108.75px" width="130.05px" xmlns="http://www.w3.org/2000/svg">
  <g transform="matrix(1.0, 0.0, 0.0, 1.0, 65.05, 54.4)">
    <path d="M9.65 -40.6 Q8.45 -47.2 11.6 -50.25 17.1 -55.5 25.05 -46.95 27.55 -59.65 30.05 -46.95 32.8 -54.8 39.9 -54.4 45.75 -53.4 48.0 -47.95 L48.95 -44.75 Q51.4 -44.35 53.1 -42.55 55.15 -40.5 56.15 -36.55 59.1 -34.9 59.8 -31.1 69.3 -21.6 61.4 -14.85 70.3 1.15 54.9 7.6 56.3 13.65 47.2 12.45 51.45 16.35 51.75 21.5 51.3 26.0 46.15 21.5 48.5 31.95 43.05 35.25 44.5 48.8 32.25 47.35 L31.65 48.2 Q26.75 55.1 18.35 50.6 L17.85 50.3 15.3 52.6 Q9.0 57.0 1.6 50.3 L0.55 51.15 Q-3.85 54.45 -7.7 50.3 L-8.0 50.6 Q-14.3 55.95 -21.6 51.15 -23.75 49.75 -25.95 47.5 -29.3 51.3 -36.2 50.65 -38.2 50.25 -39.75 49.35 -45.6 46.0 -45.0 35.75 -51.15 33.7 -49.85 27.95 -56.85 24.1 -56.2 14.3 L-56.1 13.1 Q-58.9 13.2 -59.05 10.5 -63.9 9.05 -60.4 5.65 -63.6 5.65 -65.05 3.05 -65.1 -0.55 -61.0 -0.4 -63.25 -3.7 -62.2 -8.9 -62.0 -13.85 -58.65 -13.0 -58.15 -20.75 -53.7 -23.65 -48.6 -26.1 -48.55 -18.9 -48.5 -10.9 -44.85 -3.5 -43.35 -3.6 -42.05 -2.05 -32.9 -12.8 -26.6 -6.2 -22.65 -11.6 -14.55 -11.0 -14.6 -15.45 -9.25 -18.3 -9.7 -22.8 -5.35 -25.35 -7.0 -31.2 -5.1 -35.05 -3.3 -38.65 1.7 -40.45 L3.45 -41.0 Q0.25 -44.6 1.0 -46.5 L1.05 -46.7 1.85 -47.55 Q4.7 -47.8 9.65 -40.6 M2.55 -27.55 Q7.9 -19.0 -0.6 -11.35 5.25 -6.85 4.3 -1.4 6.45 -1.25 7.7 1.75 16.85 -4.35 23.4 4.75 28.75 1.55 34.05 6.0 36.45 2.7 38.9 6.0 40.9 2.8 45.75 2.95 45.4 -2.2 52.1 -3.5 47.15 -8.3 54.45 -18.55 47.95 -23.5 48.4 -36.35 44.5 -32.95 41.15 -37.95 38.15 -25.85 26.75 -35.25 19.1 -29.3 15.75 -41.85 14.0 -29.6 2.55 -27.55" fill="#fbfdfd" fill-rule="evenodd" stroke="none"/>
  </g>
</svg>
