<?xml version="1.0" encoding="UTF-8" standalone="no"?>
<svg xmlns:xlink="http://www.w3.org/1999/xlink" height="122.0px" width="123.3px" xmlns="http://www.w3.org/2000/svg">
  <g transform="matrix(1.0, 0.0, 0.0, 1.0, 61.65, 61.0)">
    <path d="M55.15 -52.45 Q55.45 -46.0 51.1 -41.85 L49.7 -43.1 49.6 -43.15 Q52.9 -46.35 53.2 -50.1 49.25 -50.05 46.1 -45.65 L44.4 -46.6 Q46.0 -49.45 48.85 -51.1 52.0 -52.5 55.15 -52.45 M21.45 -17.5 Q20.65 -22.6 21.45 -26.8 24.9 -24.5 29.15 -24.2 18.7 -33.2 22.75 -50.5 29.35 -59.4 36.35 -61.0 39.95 -56.5 38.9 -49.65 37.3 -43.9 32.6 -43.05 38.2 -49.95 35.75 -57.2 26.6 -53.0 28.4 -41.95 30.7 -42.05 32.6 -43.05 L31.45 -41.8 27.55 -38.75 34.5 -41.1 28.25 -32.4 Q34.9 -33.1 39.65 -39.5 44.6 -34.1 47.25 -26.3 49.75 -28.1 50.9 -31.7 57.05 -19.45 61.65 -15.05 60.9 -7.2 54.65 -3.8 52.2 -1.1 47.35 -2.7 42.5 -7.95 36.2 -10.4 30.05 -9.85 26.15 -12.1 23.05 -13.9 21.45 -17.5" fill="#d57523" fill-rule="evenodd" stroke="none"/>
    <path d="M21.45 -17.5 Q23.05 -13.9 26.15 -12.1 25.95 -4.3 24.65 3.55 23.45 10.55 22.35 12.65 26.05 22.65 27.45 32.25 25.45 41.1 20.6 48.4 17.75 48.0 15.35 45.8 L14.65 44.9 18.95 54.55 19.5 55.95 Q18.3 57.5 16.15 57.65 15.15 59.4 13.25 60.2 13.85 59.15 13.25 58.05 6.55 60.3 -0.6 58.05 -3.35 43.35 -5.85 35.55 -5.9 31.25 -5.05 26.5 -12.05 27.75 -21.25 22.1 -22.35 26.05 -24.55 29.05 -25.8 33.35 -23.9 37.8 L-17.65 50.2 -20.15 51.65 -21.35 51.65 Q-23.1 54.15 -25.6 54.1 L-24.15 52.55 -33.7 52.25 Q-36.3 42.1 -41.1 31.7 -39.25 30.2 -37.85 27.25 L-39.15 27.75 Q-43.55 28.35 -44.05 33.85 -43.65 41.25 -41.6 44.6 -38.8 50.15 -37.2 56.55 -38.4 57.85 -40.85 57.35 L-41.7 59.55 -42.85 58.3 -45.55 61.0 -45.55 57.75 Q-52.2 59.2 -57.95 57.75 -61.3 44.8 -61.65 31.4 -55.8 28.45 -53.6 23.3 L-53.6 10.5 Q-55.25 -9.75 -39.8 -16.75 -27.95 -19.75 -16.55 -17.05 L-15.35 -16.75 Q-7.8 -13.1 -2.15 -15.65 -3.2 -9.0 1.5 -2.95 1.25 -8.5 2.3 -11.9 3.6 -4.4 11.65 -0.3 10.2 -9.65 13.75 -16.9 15.6 -13.2 15.65 -9.55 18.6 -12.05 17.5 -20.95 17.85 -18.85 21.45 -17.5 M9.3 32.5 L12.65 29.9 Q12.85 26.95 11.05 24.0 L8.7 24.75 Q8.65 29.35 9.3 32.5" fill="#d27424" fill-rule="evenodd" stroke="none"/>
  </g>
</svg>
