<?xml version="1.0" encoding="UTF-8" standalone="no"?>
<svg xmlns:xlink="http://www.w3.org/1999/xlink" height="96.45px" width="77.0px" xmlns="http://www.w3.org/2000/svg">
  <g transform="matrix(1.0, 0.0, 0.0, 1.0, 38.5, 48.25)">
    <path d="M17.35 -36.55 Q26.1 -36.55 32.35 -30.2 38.5 -23.8 38.5 -14.75 L38.5 -14.25 Q35.65 -15.05 35.45 -11.25 34.8 -9.45 32.55 -8.2 28.6 -5.95 34.7 -2.2 L32.35 0.65 Q30.75 2.25 29.05 3.45 38.25 10.8 38.15 27.3 38.2 39.05 26.4 44.5 9.5 51.05 -12.05 46.0 -23.75 42.05 -31.2 33.65 -37.85 25.7 -34.55 24.95 -39.25 19.05 -37.45 13.3 L-37.95 11.95 -38.05 11.8 -38.05 11.7 Q-39.95 5.8 -33.9 9.7 -26.1 13.8 -16.5 8.95 -4.5 2.05 4.45 2.5 L2.4 0.65 Q-3.75 -5.75 -3.75 -14.75 -3.75 -23.8 2.4 -30.2 7.55 -35.5 14.5 -36.4 10.85 -43.65 20.55 -48.25 19.7 -43.6 16.75 -38.2 19.2 -41.75 23.25 -41.35 22.7 -37.0 15.75 -36.55 L17.35 -36.55" fill="#f9ff83" fill-rule="evenodd" stroke="none"/>
  </g>
</svg>
