<?xml version="1.0" encoding="UTF-8" standalone="no"?>
<svg xmlns:xlink="http://www.w3.org/1999/xlink" height="98.45px" width="91.15px" xmlns="http://www.w3.org/2000/svg">
  <g transform="matrix(1.0, 0.0, 0.0, 1.0, 45.55, 49.25)">
    <path d="M8.45 -36.4 L9.7 -36.55 10.7 -38.2 Q13.65 -43.6 14.5 -48.25 4.8 -43.65 8.45 -36.4 1.5 -35.5 -3.65 -30.2 -9.8 -23.8 -9.8 -14.75 -9.8 -5.75 -3.65 0.65 L-1.6 2.5 1.0 3.95 M10.7 -38.2 Q13.15 -41.75 17.2 -41.35 16.65 -37.0 9.7 -36.55 L11.3 -36.55 Q20.05 -36.55 26.3 -30.2 32.45 -23.8 32.45 -14.75 L32.45 -14.25 37.4 -11.25 Q39.55 -10.05 42.9 -9.8 46.6 -9.05 42.3 -4.25 39.05 -1.5 34.25 -1.5 31.7 -1.45 28.65 -2.2 L26.3 0.65 23.0 3.45 Q32.2 10.8 32.1 27.3 32.15 39.05 20.35 44.5 3.45 51.05 -18.1 46.0 -29.8 42.05 -37.25 33.65 -43.9 25.7 -40.6 24.95 -45.3 19.05 -43.5 13.3 L-44.0 11.95 -44.1 11.8 -44.1 11.7 Q-46.0 5.8 -39.95 9.7 -32.15 13.8 -22.55 8.95 -10.55 2.05 -1.6 2.5 M32.45 -14.25 Q29.6 -15.05 29.4 -11.25 28.75 -9.45 26.5 -8.2 22.55 -5.95 28.65 -2.2 M28.05 -5.2 Q28.55 -3.3 34.25 -1.5 M-2.8 13.9 Q-32.4 19.9 -19.45 24.85 -37.25 27.0 -12.2 33.65 -21.65 33.9 -10.55 37.35 1.65 40.85 14.1 33.2 22.3 28.2 19.35 20.6 16.0 14.15 13.1 13.2 M19.6 4.95 L23.0 3.45 M-43.5 13.3 Q-42.3 16.6 -40.3 20.2 M-40.6 24.95 L-39.95 25.7" fill="none" stroke="#000000" stroke-linecap="round" stroke-linejoin="round" stroke-width="2.0"/>
  </g>
</svg>
