<?xml version="1.0" encoding="UTF-8" standalone="no"?>
<svg xmlns:xlink="http://www.w3.org/1999/xlink" height="77.9px" width="99.6px" xmlns="http://www.w3.org/2000/svg">
  <g transform="matrix(1.0, 0.0, 0.0, 1.0, 49.8, 38.95)">
    <path d="M39.4 -38.9 L42.75 -38.25 42.95 -38.1 Q45.9 -37.15 47.65 -35.2 49.2 -33.35 49.7 -30.6 50.6 -25.05 43.55 -23.9 L29.45 -24.1 Q20.3 -23.25 23.85 -31.55 25.75 -36.05 30.25 -37.8 L30.55 -37.85 Q34.1 -39.25 39.4 -38.9 M42.75 -33.4 L42.0 -33.3 41.8 -33.2 41.0 -32.3 40.65 -31.9 40.2 -30.35 Q40.1 -29.6 40.5 -29.4 L40.55 -29.35 Q40.95 -29.15 41.5 -29.65 L42.5 -30.85 42.65 -31.05 43.15 -32.4 Q43.15 -33.1 42.75 -33.4 M35.1 -30.35 L34.55 -31.85 33.5 -33.15 32.5 -33.3 Q32.15 -33.1 32.2 -32.4 32.3 -31.65 32.75 -30.8 33.25 -30.0 33.8 -29.6 34.45 -29.15 34.8 -29.35 35.2 -29.6 35.1 -30.35" fill="#c97861" fill-rule="evenodd" stroke="none"/>
    <path d="M10.05 35.6 Q4.1 40.7 -4.4 38.0 L-6.2 34.1 Q2.3 35.4 10.05 31.05 L10.05 35.6 M14.45 30.55 Q21.8 32.8 29.7 30.0 L29.1 33.0 Q20.95 37.75 14.45 30.55 M-33.6 35.1 Q-40.4 38.65 -48.0 35.1 L-49.8 32.45 Q-41.25 34.2 -33.6 31.05 L-33.6 35.1 M-27.45 31.85 L-28.1 28.8 Q-22.35 30.6 -15.7 29.05 L-15.85 31.85 Q-22.2 35.3 -27.45 31.85" fill="#8e503e" fill-rule="evenodd" stroke="none"/>
  </g>
</svg>
