<?xml version="1.0" encoding="UTF-8" standalone="no"?>
<svg xmlns:xlink="http://www.w3.org/1999/xlink" height="17.4px" width="34.5px" xmlns="http://www.w3.org/2000/svg">
  <g transform="matrix(1.0, 0.0, 0.0, 1.0, 17.25, 8.7)">
    <path d="M14.95 -2.2 L17.25 -2.2 17.25 3.7 15.2 6.0 14.05 6.85 11.9 6.85 11.65 7.3 Q10.7 8.7 9.4 8.7 8.15 8.7 7.15 7.3 L6.85 6.55 2.4 5.9 Q-1.85 4.95 -5.15 3.65 -9.35 1.95 -12.1 -0.25 -16.3 -3.75 -17.25 -8.7 -14.9 -7.35 -11.85 -6.25 -8.5 -4.95 -4.2 -4.1 L2.95 -3.0 9.5 -2.35 11.05 -2.25 14.95 -2.2" fill="#d6bd14" fill-rule="evenodd" stroke="none"/>
  </g>
</svg>
