<?xml version="1.0" encoding="UTF-8" standalone="no"?>
<svg xmlns:xlink="http://www.w3.org/1999/xlink" height="155.1px" width="178.8px" xmlns="http://www.w3.org/2000/svg">
  <g transform="matrix(1.0, 0.0, 0.0, 1.0, 89.4, 77.55)">
    <path d="M45.45 -10.8 Q43.2 -9.95 41.65 -4.5 41.55 -0.2 41.05 3.4 40.15 9.5 37.95 13.7 L47.0 37.35 Q48.95 41.15 45.25 46.35 L33.25 62.55 Q34.35 68.2 35.95 73.75 27.9 77.05 19.05 73.75 L15.25 59.0 Q10.8 43.0 12.35 28.35 1.55 27.75 -9.2 24.85 L-13.05 37.7 Q-7.7 49.55 -5.25 62.7 -13.4 69.55 -23.6 62.2 L-19.4 74.8 Q-28.5 78.3 -37.6 74.8 -44.7 57.25 -46.8 40.05 L-46.75 40.0 -42.9 29.2 Q-45.4 20.2 -45.7 13.05 -45.75 28.85 -48.95 38.95 L-48.95 39.05 Q-52.3 49.0 -58.6 53.35 L-68.95 52.85 Q-77.3 51.35 -82.8 45.85 -74.15 45.3 -71.0 28.25 -77.65 38.95 -84.35 37.25 L-88.4 32.45 Q-74.7 30.1 -71.1 12.2 L-70.8 10.35 Q-69.0 -3.8 -60.15 -14.9 -51.7 -23.1 -43.15 -20.45 -30.6 -16.5 -34.85 -12.3 -30.85 -15.15 -26.25 -15.5 L-2.0 -15.5 Q14.15 -24.65 16.95 -39.0 20.55 -49.8 24.8 -56.0 27.55 -60.05 30.65 -62.2 34.05 -64.55 37.75 -64.5 L37.95 -64.8 Q39.85 -72.2 44.9 -76.55 47.35 -72.6 48.1 -68.35 L51.05 -68.7 Q53.85 -68.9 56.7 -68.7 L59.8 -68.35 66.7 -74.0 67.75 -66.5 Q73.9 -64.45 79.65 -60.25 L79.7 -60.25 Q80.15 -59.85 80.7 -59.5 L84.2 -56.2 Q88.15 -51.65 87.75 -46.55 L78.65 -57.15 Q85.65 -48.15 83.05 -39.0 L73.6 -43.7 73.6 -43.65 Q76.55 -35.4 77.05 -28.8 81.4 -27.0 84.2 -25.5 L84.95 -25.2 Q88.85 -23.1 88.35 -20.2 88.2 -18.55 87.7 -17.05 L87.5 -16.55 Q86.3 -13.1 84.2 -10.8 81.5 -7.85 77.05 -7.05 L64.6 -9.2 Q52.6 -6.4 45.95 -11.55 43.75 -13.2 42.15 -15.8 M48.1 -68.35 L48.1 -68.25 48.2 -66.85 48.45 -65.55 48.45 -65.35 53.3 -47.9 62.3 -47.35 63.75 -47.1 63.8 -47.1 Q68.5 -46.05 73.6 -43.7 M41.35 -65.85 Q42.8 -68.4 44.4 -69.45 45.45 -68.7 45.95 -67.35 L46.35 -66.5 46.55 -65.2 46.6 -65.0 46.6 -64.5 46.55 -62.15 Q45.95 -56.2 42.7 -51.95 L39.3 -51.95 Q39.3 -59.6 40.5 -63.7 L40.5 -63.8 41.35 -65.85 M48.45 -65.35 L48.55 -64.55 48.55 -64.5 Q49.1 -54.55 45.1 -50.9 M67.75 -66.5 Q63.8 -67.85 59.8 -68.35 M-2.0 -15.5 Q3.1 -15.5 2.0 -12.35 L16.1 -4.0 18.85 -6.25 Q22.05 -9.4 24.1 -13.4 L24.8 -15.15 25.4 -16.65 25.4 -16.75 25.95 -18.35 M37.75 -64.5 Q34.65 -60.1 31.45 -21.5 30.4 -11.65 24.8 -6.25 L21.5 -3.7 25.4 -16.65 M57.35 -38.7 L52.5 -42.9 58.7 -40.9 Q59.9 -44.5 62.2 -44.65 L63.15 -44.6 Q65.1 -44.15 66.85 -41.05 M67.2 -13.75 Q67.4 -12.7 68.15 -11.85 70.3 -9.15 77.05 -7.05 M80.45 -21.4 L82.5 -18.3 M37.95 13.7 Q35.8 19.45 32.2 23.3 L29.05 26.05 M12.35 28.35 L14.95 28.55 M33.25 62.55 Q29.6 43.2 32.75 23.7 M-45.7 13.05 Q-46.25 3.3 -42.55 -3.15 -39.95 -7.7 -36.85 -10.5 L-36.4 -10.8 -34.85 -12.3 M-25.4 22.05 Q-21.8 19.95 -18.1 22.05 L-9.2 24.85 M-25.1 33.05 Q-27.2 39.25 -27.45 41.3 -28.05 47.2 -23.6 62.2" fill="none" stroke="#000000" stroke-linecap="round" stroke-linejoin="round" stroke-width="2.0"/>
  </g>
</svg>
