<?xml version="1.0" encoding="UTF-8" standalone="no"?>
<svg xmlns:xlink="http://www.w3.org/1999/xlink" height="100.05px" width="108.05px" xmlns="http://www.w3.org/2000/svg">
  <g transform="matrix(1.0, 0.0, 0.0, 1.0, 54.0, 50.05)">
    <path d="M39.2 -34.7 Q38.2 -35.95 39.2 -38.15 40.8 -39.9 41.65 -42.05 43.1 -45.85 43.1 -50.05 45.95 -46.2 47.0 -40.9 49.55 -43.9 50.2 -47.7 54.2 -42.8 54.05 -35.65 51.55 -38.1 48.0 -38.4 L47.4 -38.35 47.6 -34.7 Q43.65 -30.85 39.2 -34.7 M29.55 7.65 L35.15 9.65 Q30.95 23.05 31.15 29.65 28.2 42.75 25.85 45.35 22.8 48.45 18.65 49.6 L19.1 39.8 Q24.75 30.65 25.2 24.15 26.3 15.55 29.55 7.65 M6.65 50.0 L0.05 48.85 Q-7.6 47.5 -15.05 42.9 -1.65 48.7 6.65 43.7 L6.65 50.0 M-47.45 8.7 Q-47.3 14.8 -46.3 17.95 L-48.1 17.5 -47.6 19.1 Q-46.5 21.05 -44.3 21.95 L-45.85 26.0 -45.95 26.05 Q-50.05 27.3 -50.85 24.45 L-48.25 24.45 Q-54.25 22.1 -54.0 17.95 -51.85 18.3 -49.85 20.05 -56.65 8.25 -44.95 -2.9 -47.6 3.55 -47.45 8.7" fill="#e9e9e9" fill-rule="evenodd" stroke="none"/>
  </g>
</svg>
