<?xml version="1.0" encoding="UTF-8" standalone="no"?>
<svg xmlns:xlink="http://www.w3.org/1999/xlink" height="156.55px" width="92.55px" xmlns="http://www.w3.org/2000/svg">
  <g transform="matrix(1.0, 0.0, 0.0, 1.0, 46.3, 78.3)">
    <path d="M28.0 -47.85 Q28.0 -46.45 27.45 -45.5 26.95 -44.45 26.2 -44.45 25.45 -44.45 24.9 -45.5 24.35 -46.45 24.35 -47.85 24.35 -49.25 24.9 -50.3 25.45 -51.25 26.2 -51.25 26.95 -51.25 27.45 -50.3 28.0 -49.25 28.0 -47.85 M0.95 -47.85 Q0.95 -46.35 0.4 -45.35 -0.1 -44.3 -0.85 -44.3 -1.55 -44.3 -2.1 -45.35 -2.55 -46.35 -2.55 -47.85 -2.55 -49.35 -2.1 -50.45 -1.55 -51.35 -0.85 -51.35 -0.1 -51.35 0.4 -50.45 0.95 -49.35 0.95 -47.85" fill="#4d4b5f" fill-rule="evenodd" stroke="none"/>
    <path d="M-2.1 -65.65 Q0.5 -67.2 3.2 -68.15 -7.05 -76.35 -14.6 -76.85 -11.45 -68.85 -5.05 -62.0 L-11.1 -62.25 -7.3 -58.65 Q-8.3 -55.3 -9.95 -52.45 -13.25 -46.35 -19.45 -42.55 L-13.2 -39.4 -17.55 -36.25 Q-13.6 -32.85 -4.35 -29.45 -15.75 -19.5 -13.2 -8.05 -10.65 -13.9 -8.0 -16.4 -9.4 -9.35 -6.55 -3.5 -4.85 0.05 -1.6 3.15 -1.7 -3.2 -0.6 -6.75 1.2 3.7 8.9 8.2 7.05 3.85 8.15 1.8 L12.0 7.4 Q12.0 -0.55 17.8 -1.0 23.4 -1.5 25.15 5.7 27.9 3.9 28.95 -5.1 L30.95 4.45 Q33.0 1.3 34.05 -2.05 35.85 -7.9 34.4 -14.45 L38.5 -7.85 Q41.65 -20.75 30.85 -30.0 40.0 -32.45 43.1 -36.85 L39.0 -39.6 45.25 -42.35 Q38.4 -44.85 37.15 -49.25 36.8 -51.05 35.95 -52.8 34.8 -55.45 32.9 -58.15 L36.7 -62.25 31.3 -61.1 40.3 -77.25 Q33.8 -78.1 22.35 -67.95 24.55 -67.05 26.7 -65.65 M3.2 -68.15 Q13.05 -71.9 22.35 -67.95 M8.6 -43.55 Q10.8 -41.4 13.05 -43.55 15.0 -41.4 17.0 -43.55 M5.35 -26.1 L9.9 -25.0 9.9 -25.6 Q9.9 -27.2 10.65 -28.3 L10.75 -28.45 Q5.05 -34.2 2.7 -32.3 -1.3 -27.7 0.85 -21.65 1.75 -19.8 3.5 -19.75 6.1 -19.65 10.55 -23.15 10.05 -23.95 9.9 -25.0 M19.95 -25.75 L15.1 -25.05 Q15.0 -23.85 14.35 -23.0 20.2 -19.5 23.05 -19.55 25.4 -19.6 25.9 -22.0 27.15 -30.4 23.9 -32.3 21.5 -34.0 14.6 -28.0 15.1 -26.95 15.1 -25.6 L15.1 -25.05 M10.75 -28.45 Q11.5 -29.45 12.55 -29.45 13.6 -29.45 14.35 -28.3 L14.6 -28.0 M23.05 -19.55 Q16.95 -12.85 15.35 -16.2 L12.8 -21.85 10.75 -16.2 Q8.55 -12.7 3.5 -19.75 M12.8 -21.85 L12.55 -21.85 Q11.4 -21.85 10.65 -23.0 L10.55 -23.15 M14.35 -23.0 Q13.75 -22.0 12.8 -21.85 M40.3 -77.25 Q44.8 -63.1 35.95 -52.8 M25.15 5.7 L25.4 7.1 Q25.95 11.6 22.45 13.45 L19.95 14.3 17.3 14.35 Q15.35 14.1 14.15 13.05 L13.35 30.05 Q19.2 28.65 22.55 31.25 26.25 33.5 29.45 33.65 L28.0 29.95 M21.25 8.2 Q23.15 10.85 22.45 13.45 M16.8 8.9 Q16.1 10.4 17.3 14.35 M14.15 13.05 Q12.5 11.55 12.05 8.4 L12.0 7.4 M13.35 30.05 Q13.85 34.5 7.8 35.15 -0.65 36.45 -0.5 31.95 -1.4 32.65 -3.2 32.75 L-7.5 32.5 -8.5 32.4 Q-14.45 30.0 -7.7 23.25 L-6.55 22.2 Q-8.7 19.6 -9.95 17.15 -16.7 22.95 -13.45 32.2 L-13.1 33.0 Q-7.4 46.35 -11.4 53.8 -10.8 65.55 -17.35 77.25 -19.35 65.4 -30.2 58.0 -42.0 49.95 -40.95 33.75 -40.85 31.25 -40.35 28.65 L-45.3 33.7 Q-39.65 3.7 -10.7 2.9 -9.4 -0.35 -6.55 -3.5 M3.85 30.4 L3.2 34.65 M8.6 31.7 L7.8 35.15 M29.45 33.65 Q31.75 33.65 33.8 32.65 L32.7 29.15 M34.05 -2.05 Q43.35 9.55 31.65 23.2 39.5 28.75 34.55 32.15 34.1 32.4 33.8 32.65 M-14.6 -76.85 Q-19.6 -64.7 -9.95 -52.45 M-10.7 2.9 Q-13.65 9.9 -9.95 17.15 M-1.6 3.15 Q3.2 13.9 1.15 25.05 L-0.3 30.4 -0.5 31.95 M-7.05 28.45 L-7.5 32.5 M-2.95 29.15 L-3.2 32.75 M-12.95 44.75 Q-11.65 49.25 -11.4 53.8" fill="none" stroke="#4d4b5f" stroke-linecap="round" stroke-linejoin="round" stroke-width="2.0"/>
  </g>
</svg>
