<?xml version="1.0" encoding="UTF-8" standalone="no"?>
<svg xmlns:xlink="http://www.w3.org/1999/xlink" height="146.75px" width="248.25px" xmlns="http://www.w3.org/2000/svg">
  <g transform="matrix(1.0, 0.0, 0.0, 1.0, 124.15, 73.4)">
    <path d="M45.6 -61.55 Q54.05 -64.5 65.0 -57.9 67.0 -59.85 69.25 -61.4 78.25 -61.8 86.7 -57.75 87.15 -59.85 84.35 -61.45 L104.75 -59.45 Q109.5 -56.4 111.4 -52.3 L112.2 -49.9 112.2 -49.95 112.45 -48.5 Q115.85 -48.4 117.85 -46.75 L118.1 -46.55 Q120.95 -43.75 120.5 -37.05 123.7 -36.65 124.1 -31.8 124.3 -26.9 117.85 -26.15 L113.0 -26.0 Q108.75 -23.35 98.95 -24.15 91.1 -26.55 84.5 -23.75 74.1 4.05 59.35 15.2 56.8 21.05 57.1 28.5 60.05 38.4 65.3 46.65 L68.45 52.0 64.95 52.5 Q59.0 53.95 58.8 60.3 L60.15 63.3 60.85 64.85 58.2 64.4 51.45 63.85 Q42.85 64.5 45.75 73.35 41.4 69.5 39.8 65.15 29.4 42.75 27.05 31.6 L28.65 30.6 28.9 30.4 29.3 30.1 Q31.3 28.4 31.5 26.05 L26.3 27.1 Q8.0 30.05 -10.0 25.9 -11.25 31.05 -16.35 36.35 -19.15 39.35 -12.35 52.65 L-15.35 52.4 Q-22.85 52.55 -23.65 62.05 L-26.05 62.3 Q-37.85 63.85 -32.2 73.2 -37.3 72.0 -40.25 66.6 -47.45 51.85 -48.25 34.0 -49.25 27.5 -44.4 25.6 -41.1 22.95 -43.3 18.75 -53.75 10.2 -55.9 0.6 -66.65 2.5 -72.75 9.45 -75.1 12.25 -76.75 15.9 -82.6 28.3 -99.05 32.0 L-99.1 32.0 -99.45 32.05 Q-101.25 38.9 -108.5 39.85 -109.35 37.7 -107.15 36.6 -117.4 40.25 -124.15 29.7 -115.25 26.4 -106.4 26.3 -102.2 25.7 -99.8 29.3 -84.75 22.5 -75.55 6.85 -66.55 -7.0 -54.6 -11.8 -53.4 -18.65 -49.4 -24.4 -29.85 -51.55 -16.95 -46.6 -3.3 -41.4 -1.65 -26.8 2.7 -34.1 7.45 -40.9 13.75 -51.35 24.2 -49.2 33.75 -47.3 38.0 -34.45 41.15 -24.85 47.1 -27.1 57.5 -33.35 57.2 -44.85 L65.6 -47.6 Q62.25 -47.6 61.75 -48.9 61.25 -50.15 65.1 -50.65 56.7 -54.5 49.95 -56.0 44.85 -57.2 45.75 -49.2 42.65 -53.4 45.6 -61.55 M66.5 -69.85 Q69.15 -74.8 73.1 -72.8 79.15 -69.7 81.55 -65.7 75.85 -65.3 71.05 -62.5 65.0 -65.35 66.5 -69.85" fill="#c5ae7a" fill-rule="evenodd" stroke="none"/>
  </g>
</svg>
