<?xml version="1.0" encoding="UTF-8" standalone="no"?>
<svg xmlns:xlink="http://www.w3.org/1999/xlink" height="149.65px" width="212.5px" xmlns="http://www.w3.org/2000/svg">
  <g transform="matrix(1.0, 0.0, 0.0, 1.0, 106.25, 74.85)">
    <path d="M74.1 -46.6 Q73.95 -45.3 77.0 -45.75 83.1 -48.45 86.0 -58.85 84.85 -62.8 81.65 -58.8 76.95 -53.0 74.1 -46.6 M36.05 -67.55 Q35.65 -63.7 35.85 -62.0 L36.2 -55.95 Q36.35 -51.55 37.4 -43.2 L41.25 -45.75 Q44.35 -47.75 47.35 -49.1 59.4 -54.35 70.55 -46.75 75.5 -61.3 83.8 -66.95 89.1 -65.85 88.9 -59.7 87.5 -48.25 75.5 -42.6 82.1 -38.55 86.4 -30.0 88.2 -26.4 89.6 -21.95 79.45 -10.25 89.6 -5.95 L91.5 -5.5 Q101.55 -3.05 106.15 -11.7 107.5 5.95 88.4 17.0 L74.75 13.4 Q64.55 15.2 54.25 13.4 58.55 25.9 51.85 42.75 57.05 54.3 57.05 66.3 54.85 62.3 52.9 62.9 48.65 64.5 49.95 69.55 49.15 66.85 47.35 65.45 45.9 64.3 43.95 63.9 39.15 66.1 40.5 71.75 L31.9 70.9 29.7 68.05 Q26.95 71.35 20.15 69.5 16.25 62.6 16.15 55.45 1.05 58.0 -17.15 51.35 -14.5 62.15 -14.3 73.05 L-14.65 73.15 Q-15.05 71.35 -16.1 70.0 -17.7 68.0 -19.9 68.0 -22.2 68.0 -23.7 70.0 -24.9 71.45 -25.1 73.3 L-26.0 71.6 Q-27.65 69.25 -29.9 69.25 -32.25 69.25 -33.85 71.6 -34.85 73.05 -35.2 74.8 L-42.45 73.05 -44.9 69.55 Q-50.6 72.8 -59.7 68.15 -66.8 49.55 -61.4 32.05 L-61.6 30.95 Q-62.4 24.4 -61.55 18.35 -60.6 12.2 -57.85 6.45 -62.0 13.4 -66.7 17.7 -72.85 23.45 -80.05 25.4 -80.8 31.9 -84.2 33.05 -87.55 34.15 -91.4 33.55 -95.25 32.95 -98.45 29.2 -105.45 28.3 -106.25 22.0 -96.4 23.15 -87.8 18.35 -82.8 17.5 -81.0 23.15 -73.3 18.95 -68.65 13.1 L-61.4 3.75 Q-58.8 0.3 -56.15 -1.65 -18.9 -31.0 19.7 -18.95 16.75 -35.65 33.15 -41.65 30.8 -50.6 30.25 -58.0 29.65 -65.45 30.25 -69.65 30.85 -73.85 31.75 -74.25 34.0 -75.35 36.05 -74.5 40.1 -72.7 42.1 -68.75 36.4 -71.4 36.05 -67.55" fill="#9bb0bf" fill-rule="evenodd" stroke="none"/>
  </g>
</svg>
