<?xml version="1.0" encoding="UTF-8" standalone="no"?>
<svg xmlns:xlink="http://www.w3.org/1999/xlink" height="20.75px" width="32.25px" xmlns="http://www.w3.org/2000/svg">
  <g transform="matrix(1.0, 0.0, 0.0, 1.0, -49.7, 99.4)">
    <path d="M79.4 -94.45 Q79.4 -96.5 79.85 -97.95 80.15 -99.4 80.65 -99.4 80.95 -99.4 81.15 -99.0 81.45 -98.65 81.55 -97.95 81.95 -96.5 81.95 -94.45 81.95 -92.3 81.55 -90.85 81.15 -89.45 80.65 -89.45 80.15 -89.45 79.85 -90.85 79.4 -92.3 79.4 -94.45 M54.25 -80.7 Q53.5 -78.65 52.35 -78.65 51.2 -78.65 50.5 -80.7 49.7 -82.9 49.7 -85.8 49.7 -88.85 50.5 -91.1 51.2 -93.2 52.35 -93.2 53.5 -93.2 54.25 -91.1 55.1 -88.85 55.1 -85.8 55.1 -82.9 54.25 -80.7" fill="#000000" fill-rule="evenodd" stroke="none"/>
  </g>
</svg>
