<?xml version="1.0" encoding="UTF-8" standalone="no"?>
<svg xmlns:xlink="http://www.w3.org/1999/xlink" height="152.15px" width="216.25px" xmlns="http://www.w3.org/2000/svg">
  <g transform="matrix(1.0, 0.0, 0.0, 1.0, 108.15, 76.1)">
    <path d="M62.85 3.6 Q67.6 11.95 73.85 13.15 L87.5 16.75 Q106.6 5.7 105.25 -11.95 100.65 -3.3 90.6 -5.75 L88.7 -6.2 Q78.55 -10.5 88.7 -22.2 87.3 -26.65 85.5 -30.25 81.2 -38.8 74.6 -42.85 L72.2 -45.1 69.65 -47.0 Q58.5 -54.6 46.45 -49.35 L40.35 -46.0 36.5 -43.45 Q35.45 -51.8 35.3 -56.2 L34.95 -62.25 Q34.75 -63.95 35.15 -67.8 35.5 -71.65 41.2 -69.0 39.2 -72.95 35.15 -74.75 33.1 -75.6 30.85 -74.5 29.95 -74.1 29.35 -69.9 28.75 -65.7 29.35 -58.25 29.9 -50.85 32.25 -41.9 15.85 -35.9 18.8 -19.2 L22.45 -8.6 M73.2 -46.85 Q76.05 -53.25 80.75 -59.05 83.95 -63.05 85.1 -59.1 82.2 -48.7 76.1 -46.0 73.05 -45.55 73.2 -46.85 M41.2 -69.0 Q44.7 -61.5 40.35 -46.0 M69.65 -47.0 Q74.6 -61.55 82.9 -67.2 88.2 -66.1 88.0 -59.95 86.6 -48.5 74.6 -42.85 M88.7 -22.2 Q97.2 -30.85 94.3 -50.05 112.0 -29.55 105.25 -11.95 M73.85 13.15 Q63.65 14.95 53.35 13.15 57.65 25.65 50.95 42.5 56.15 54.05 56.15 66.05 52.6 68.3 49.05 69.7 L46.45 70.5 39.6 71.5 31.0 70.65 28.8 67.8 Q26.05 71.1 19.25 69.25 15.35 62.35 15.25 55.2 0.15 57.75 -18.05 51.1 -15.4 61.9 -15.2 72.8 L-15.55 72.9 Q-20.5 74.55 -25.55 74.95 L-26.25 75.0 -36.1 74.55 Q-39.75 74.0 -43.35 72.8 L-45.8 69.3 Q-51.5 72.55 -60.6 67.9 -67.7 49.3 -62.3 31.8 L-62.5 30.7 Q-63.3 24.15 -62.45 18.1 -61.5 11.95 -58.75 6.2 -62.9 13.15 -67.6 17.45 -73.75 23.2 -80.95 25.15 -81.7 31.65 -85.1 32.8 -88.45 33.9 -92.3 33.3 -96.15 32.7 -99.35 28.95 -106.35 28.05 -107.15 21.75 -97.3 22.9 -88.7 18.1 -83.7 17.25 -81.9 22.9 -74.2 18.7 -69.55 12.85 L-62.3 3.5 Q-59.7 0.05 -57.05 -1.9 -19.8 -31.25 18.8 -19.2 M50.95 42.5 L48.5 37.55 M31.3 -0.2 Q38.0 9.05 46.45 11.95 49.7 12.95 53.35 13.15 M28.8 67.8 Q23.85 60.95 21.85 53.5 L15.25 55.2 M49.05 69.7 L49.05 69.5 49.05 69.3 Q48.25 66.6 46.45 65.2 45.0 64.05 43.05 63.65 38.25 65.85 39.6 71.5 M56.15 66.05 Q53.95 62.05 52.0 62.65 47.75 64.25 49.05 69.3 M21.85 53.5 Q21.0 50.4 20.8 47.1 M-36.1 74.55 Q-35.75 72.8 -34.75 71.35 -33.15 69.0 -30.8 69.0 -28.55 69.0 -26.9 71.35 L-26.0 73.05 Q-25.8 71.2 -24.6 69.75 -23.1 67.75 -20.8 67.75 -18.6 67.75 -17.0 69.75 -15.95 71.1 -15.55 72.9 M-25.55 74.95 L-26.0 73.05 M-18.05 51.1 Q-19.2 46.45 -20.95 41.65 M-62.3 31.8 Q-59.85 48.95 -45.8 69.3 M-89.65 28.45 L-99.35 28.95 M-80.95 25.15 Q-84.05 25.45 -84.9 24.4 -83.3 23.75 -81.9 22.9" fill="none" stroke="#000000" stroke-linecap="round" stroke-linejoin="round" stroke-width="2.0"/>
  </g>
</svg>
