<?xml version="1.0" encoding="UTF-8" standalone="no"?>
<svg xmlns:xlink="http://www.w3.org/1999/xlink" height="104.9px" width="197.5px" xmlns="http://www.w3.org/2000/svg">
  <g transform="matrix(1.0, 0.0, 0.0, 1.0, 98.75, 52.45)">
    <path d="M34.05 -43.3 L35.9 -43.45 32.95 -46.45 Q34.3 -45.5 37.6 -45.95 35.2 -47.7 34.7 -50.95 36.65 -48.6 40.75 -47.7 38.2 -45.1 36.45 -41.8 34.55 -41.5 34.05 -43.3 M16.45 -7.2 Q16.0 1.1 26.2 9.75 13.65 3.8 10.35 -7.2 L16.45 -7.2 M6.45 -7.2 Q7.0 -0.2 13.05 4.9 4.65 1.15 4.6 -7.2 L6.45 -7.2 M25.35 -19.8 Q27.65 -9.75 36.1 -5.3 31.35 -7.1 27.85 -10.5 L26.85 -11.6 Q24.8 -14.15 23.85 -15.9 L24.3 -17.3 25.35 -19.8 M32.25 -28.15 Q31.2 -23.3 32.0 -19.35 33.55 -11.6 42.0 -6.9 30.5 -8.9 28.55 -24.55 30.1 -26.45 32.25 -28.15 M67.5 -42.5 Q66.05 -40.95 63.7 -40.1 59.3 -39.7 55.65 -36.8 59.3 -41.7 63.7 -42.2 66.05 -43.05 67.5 -45.2 69.25 -41.45 73.7 -40.3 75.65 -39.25 77.0 -35.85 L73.7 -38.2 Q69.25 -39.45 67.5 -42.5 M95.8 -42.05 L92.55 -39.35 Q93.4 -38.7 94.35 -39.0 93.6 -37.3 90.95 -37.5 89.8 -40.9 87.9 -44.1 92.3 -44.55 94.5 -46.75 93.65 -43.55 91.1 -42.1 94.35 -41.25 95.8 -42.05 M66.55 -49.7 Q57.25 -52.0 47.3 -44.25 59.8 -57.15 66.55 -49.7 M43.9 40.15 L43.7 42.1 Q37.05 38.75 29.95 39.4 37.05 36.65 44.25 38.25 L43.9 40.15 M67.65 -49.6 Q77.1 -55.2 83.35 -44.65 77.15 -50.25 67.65 -49.6 M60.15 42.4 Q53.6 40.45 47.0 41.45 50.05 39.65 53.35 39.35 56.65 39.05 60.2 40.3 L60.15 42.4 M47.15 13.85 Q31.55 12.75 25.25 -5.9 30.6 3.85 39.05 9.6 32.9 3.9 30.15 -3.35 34.65 4.75 44.65 12.8 L47.15 13.85 M3.45 44.05 Q2.75 45.25 1.6 46.1 -1.15 43.75 -7.65 42.8 -2.65 41.2 3.45 44.05 M4.3 41.5 Q0.15 37.25 -5.45 36.55 -1.0 35.85 4.45 38.5 L4.3 41.5 M43.5 50.65 L44.1 52.0 Q36.85 50.3 30.35 52.0 34.35 48.2 43.45 48.9 L43.5 50.65 M50.7 52.45 Q55.3 48.75 60.4 49.6 L63.0 52.1 50.7 52.45 M-20.8 -4.7 L-16.55 -5.85 Q-15.95 2.7 -8.6 9.2 -17.25 6.3 -20.8 -4.7 M-10.1 -6.85 Q-9.85 -1.45 -4.5 5.2 -12.7 -0.85 -13.15 -6.45 L-10.1 -6.85 M-1.45 -7.2 Q-1.8 0.8 7.4 7.85 -4.1 2.9 -3.35 -7.2 L-1.45 -7.2 M-25.9 -2.7 Q-25.95 4.55 -20.6 10.85 -29.0 6.15 -28.7 -1.3 L-25.9 -2.7 M-39.0 7.25 L-31.65 0.8 Q-36.35 6.9 -37.4 13.75 -37.45 10.3 -39.0 7.25 M-16.15 46.95 L-16.2 46.95 Q-19.7 43.5 -29.8 42.75 -21.0 40.4 -13.45 43.85 -14.55 45.6 -16.15 46.95 M-11.0 30.75 Q-10.8 32.1 -10.75 33.35 -20.75 30.3 -27.75 31.55 -17.95 27.5 -11.0 30.75 M-55.8 17.5 Q-53.3 22.3 -54.0 28.75 -57.15 30.05 -60.3 30.75 -59.15 25.3 -61.25 19.75 L-58.75 18.8 -55.8 17.5 M-41.75 20.85 Q-44.55 23.25 -47.35 25.15 -47.25 19.7 -50.45 14.9 -48.0 13.5 -45.55 11.9 -42.25 16.4 -41.75 20.85 M-67.2 21.35 Q-66.1 26.55 -67.35 31.75 L-74.35 31.95 Q-72.7 27.7 -72.0 21.85 L-67.2 21.35 M-95.45 23.0 L-96.4 22.0 Q-98.75 19.1 -98.75 17.05 -98.75 14.85 -97.2 13.3 -95.65 11.8 -93.45 11.8 -92.05 11.8 -87.75 14.8 -90.5 20.8 -95.45 23.0 M-82.9 18.45 Q-80.8 20.05 -78.25 20.9 -78.55 26.75 -81.55 30.95 -85.45 30.0 -88.7 28.2 -84.75 23.25 -83.65 17.85 L-82.9 18.45" fill="#7e3b16" fill-rule="evenodd" stroke="none"/>
    <path d="M79.95 -32.15 Q79.2 -32.75 79.35 -33.3 79.5 -33.85 80.45 -34.0 L82.6 -33.9 Q83.75 -33.55 84.5 -32.95 85.2 -32.35 85.05 -31.85 84.95 -31.2 84.0 -31.1 L81.85 -31.2 Q80.6 -31.55 79.95 -32.15 M52.85 -32.15 Q52.1 -31.55 50.9 -31.2 L48.75 -31.1 Q47.85 -31.2 47.7 -31.85 47.55 -32.35 48.25 -32.95 49.05 -33.55 50.2 -33.9 L52.3 -34.0 Q53.25 -33.85 53.4 -33.3 53.6 -32.75 52.85 -32.15 M86.3 -9.1 Q93.85 -13.2 95.4 -25.55 L97.7 -21.2 Q93.7 -10.8 86.3 -9.1 M84.3 -3.8 Q93.85 -5.2 95.1 -9.45 97.4 -10.45 98.75 -11.45 L98.05 -9.25 Q95.35 -3.8 84.3 -3.8" fill="#732905" fill-rule="evenodd" stroke="none"/>
  </g>
</svg>
