<?xml version="1.0" encoding="UTF-8" standalone="no"?>
<svg xmlns:xlink="http://www.w3.org/1999/xlink" height="142.65px" width="203.9px" xmlns="http://www.w3.org/2000/svg">
  <g transform="matrix(1.0, 0.0, 0.0, 1.0, 101.95, 71.35)">
    <path d="M24.65 -16.5 Q22.5 -16.25 20.8 -13.65 20.75 -17.15 21.45 -20.35 L21.55 -20.4 21.6 -20.65 21.65 -20.75 21.65 -20.8 Q22.6 -19.05 24.65 -16.5 M98.0 -18.2 Q98.5 -15.8 99.55 -13.9 L95.85 -14.15 96.55 -16.35 Q97.65 -17.3 98.0 -18.2" fill="#feefd0" fill-rule="evenodd" stroke="none"/>
    <path d="M87.95 -29.85 Q90.05 -32.5 89.85 -38.35 L89.7 -39.0 89.4 -40.3 88.75 -42.4 Q87.6 -45.8 85.7 -49.0 L83.85 -51.8 80.2 -56.1 78.05 -58.25 Q77.0 -58.85 76.05 -59.4 L78.7 -58.75 Q77.75 -59.85 73.95 -61.3 L78.6 -61.6 Q74.15 -64.25 70.35 -63.4 73.95 -65.5 73.1 -70.35 70.25 -65.35 62.9 -63.2 54.6 -63.45 46.3 -58.35 L41.3 -54.9 38.55 -52.6 Q36.0 -50.0 34.25 -46.7 L33.25 -45.0 33.25 -44.95 32.4 -43.4 Q30.75 -39.85 31.95 -35.1 32.95 -31.25 35.95 -27.9 M32.4 -43.4 Q25.1 -45.45 24.05 -52.15 22.7 -60.7 29.65 -65.55 31.85 -66.75 34.45 -65.55 L46.3 -58.35 M21.65 -20.75 L22.1 -22.2 23.15 -24.7 Q24.45 -27.25 26.35 -29.45 27.9 -31.35 30.05 -33.05 L31.95 -35.1 M24.65 -16.5 Q22.5 -16.25 20.8 -13.65 20.75 -17.15 21.45 -20.35 L21.55 -20.4 21.6 -20.65 21.65 -20.75 M21.65 -20.8 L22.1 -22.2 M95.85 -14.15 Q97.35 -10.6 96.1 -8.5 88.15 -6.4 85.55 -4.55 81.75 -1.8 75.45 -3.45 L71.55 -0.75 71.7 3.7 71.7 7.35 Q71.2 20.75 65.3 29.35 L65.3 24.4 Q63.25 29.35 58.5 32.05 58.1 34.15 58.0 35.4 L57.95 37.5 Q57.8 41.2 58.2 44.7 L60.8 47.2 Q63.75 49.8 67.2 51.35 72.15 51.3 75.25 52.45 82.1 55.05 79.5 63.65 77.9 64.4 75.4 64.65 L69.0 64.85 63.45 63.95 61.85 63.5 Q62.6 65.75 62.45 68.7 60.65 69.45 57.95 69.8 L52.2 70.25 47.45 70.2 43.75 70.05 40.4 67.6 Q28.6 58.2 24.05 48.5 24.95 41.2 25.0 35.5 18.15 36.35 6.85 31.85 L1.75 30.1 2.25 33.6 2.1 36.6 1.25 39.15 Q0.55 40.35 -0.6 41.2 L-2.05 42.05 1.75 47.8 Q10.6 49.8 10.3 57.2 8.25 58.1 5.8 58.6 L-2.55 59.15 -8.05 58.55 -10.5 55.75 Q-14.75 50.35 -18.35 42.05 L-18.4 42.05 Q-20.7 44.0 -24.05 45.2 -23.95 50.2 -22.0 54.65 -9.25 57.6 -11.35 67.1 L-17.35 68.2 -25.15 68.5 Q-29.7 68.25 -34.3 67.1 L-35.7 64.45 Q-41.95 52.2 -45.2 38.9 -42.9 33.65 -37.6 28.95 -36.3 20.7 -39.95 12.1 L-43.95 15.95 -49.55 20.25 -56.2 23.85 Q-59.35 25.15 -62.5 25.85 L-64.5 26.25 -69.55 26.85 -76.55 27.05 -83.75 26.05 Q-87.65 25.1 -90.9 23.3 -94.7 21.2 -97.65 18.1 L-98.6 17.1 Q-100.95 14.2 -100.95 12.15 -100.95 9.95 -99.4 8.4 -97.85 6.9 -95.65 6.9 -94.25 6.9 -89.95 9.9 L-85.85 12.95 Q-85.5 13.2 -85.1 13.55 -83.0 15.15 -80.45 16.0 -77.65 16.95 -74.2 16.95 L-69.4 16.45 -63.45 14.85 -60.95 13.9 -58.0 12.6 Q-55.3 11.4 -52.65 10.0 L-47.75 7.0 Q-44.45 4.85 -41.2 2.35 -37.5 -0.6 -33.85 -4.1 L-31.65 -5.85 -30.9 -6.2 -28.1 -7.6 Q-25.6 -8.8 -23.0 -9.6 L-18.75 -10.75 -15.35 -11.35 -12.3 -11.75 -5.55 -12.1 20.4 -12.1 Q22.65 -12.0 25.45 -14.35 L25.65 -15.4 24.65 -16.5 M71.55 -0.75 Q63.2 3.9 55.4 -2.25 L54.0 -3.45 Q39.9 -2.9 30.3 -9.05 29.2 -8.5 28.25 -8.4 26.8 -8.3 25.65 -9.05 24.85 -11.2 25.45 -14.35 M57.55 -15.55 Q57.35 -14.1 58.2 -12.55 59.05 -10.7 61.2 -9.05 L61.2 -11.2 61.2 -14.85 Q59.35 -14.75 57.55 -15.55 55.95 -16.1 54.85 -17.1 56.25 -21.0 61.1 -21.65 65.55 -23.7 69.95 -21.65 75.45 -21.5 76.7 -16.05 L75.25 -15.5 Q75.95 -14.0 75.5 -12.55 74.95 -10.75 72.75 -9.05 L72.75 -10.6 Q66.65 -6.6 61.2 -11.2 M69.95 -21.65 Q68.05 -19.95 66.05 -19.7 L66.05 -17.3 Q67.95 -15.8 70.0 -15.25 L72.75 -15.05 75.25 -15.5 M66.05 -17.3 Q64.3 -15.7 62.65 -15.1 L61.2 -14.85 M61.1 -21.65 Q63.6 -19.55 66.05 -19.7 M72.75 -10.6 L72.75 -15.05 M80.2 -56.1 L91.6 -61.45 Q94.3 -62.35 96.35 -60.85 102.65 -55.2 100.3 -46.95 98.45 -40.45 89.7 -39.0 M89.85 -38.35 L90.35 -34.65 93.2 -30.45 95.5 -26.1 Q97.2 -22.3 98.0 -18.2 98.5 -15.8 99.55 -13.9 L95.85 -14.15 M43.3 27.65 L42.05 33.35 41.7 35.25 51.7 34.3 51.95 34.3 Q55.7 33.55 58.5 32.05 M40.4 67.6 Q41.25 61.85 44.15 59.05 46.1 57.3 48.9 56.65 44.65 52.35 41.9 47.1 L41.3 45.75 41.25 44.0 Q41.15 40.6 41.5 37.2 L41.7 35.25 M24.6 26.3 Q25.05 30.4 25.0 35.5 M5.8 58.6 Q6.5 54.85 4.85 51.65 M75.4 64.65 Q77.2 60.6 75.7 55.95 M63.4 56.25 Q64.8 59.6 63.45 63.95 M69.35 54.8 Q71.2 59.15 69.0 64.85 M61.85 63.5 Q61.0 61.05 59.1 59.45 58.1 58.6 56.8 58.05 53.75 56.6 48.9 56.65 M45.25 62.05 Q47.9 65.95 47.45 70.2 M56.9 61.5 Q58.8 65.55 57.95 69.8 M50.45 61.0 Q53.25 65.6 52.2 70.25 M67.2 51.35 Q60.5 53.3 59.1 59.45 M-18.35 42.05 Q-16.75 40.7 -15.65 38.95 -12.85 34.75 -12.95 28.45 -13.0 27.2 -13.2 25.85 -13.5 22.75 -14.45 19.1 M-2.95 51.4 Q-0.7 54.55 -2.55 59.15 M-17.35 68.2 Q-16.7 61.95 -18.75 59.05 M-25.15 68.5 Q-23.6 62.8 -26.6 59.25 M-35.7 64.45 Q-31.35 54.75 -22.0 54.65 M-12.95 28.45 Q-5.85 27.95 1.75 30.1 M1.75 47.8 Q-7.6 47.05 -10.5 55.75" fill="none" stroke="#000000" stroke-linecap="round" stroke-linejoin="round" stroke-width="2.0"/>
    <path d="M78.25 -38.9 Q77.3 -38.75 77.15 -38.2 77.0 -37.65 77.75 -37.05 78.4 -36.45 79.65 -36.1 L81.8 -36.0 Q82.75 -36.1 82.85 -36.75 83.0 -37.25 82.3 -37.85 81.55 -38.45 80.4 -38.8 L78.25 -38.9 M50.1 -38.9 Q51.05 -38.75 51.2 -38.2 51.4 -37.65 50.65 -37.05 49.9 -36.45 48.7 -36.1 L46.55 -36.0 Q45.65 -36.1 45.5 -36.75 45.35 -37.25 46.05 -37.85 46.85 -38.45 48.0 -38.8 L50.1 -38.9 M33.25 -45.0 Q25.15 -50.45 29.1 -57.6 34.4 -58.65 41.3 -54.9 M89.4 -40.3 Q99.05 -45.35 95.4 -51.95 90.9 -54.55 83.85 -51.8" fill="none" stroke="#000000" stroke-linecap="round" stroke-linejoin="round" stroke-width="1.2000000000000002"/>
  </g>
</svg>
