<?xml version="1.0" encoding="UTF-8" standalone="no"?>
<svg xmlns:xlink="http://www.w3.org/1999/xlink" height="115.95px" width="136.55px" xmlns="http://www.w3.org/2000/svg">
  <g transform="matrix(1.0, 0.0, 0.0, 1.0, 68.3, 58.0)">
    <path d="M63.1 -54.65 Q66.75 -51.3 66.75 -46.55 66.75 -41.8 63.1 -38.45 62.0 -37.4 60.75 -36.7 L57.45 -41.05 58.4 -41.8 Q60.0 -43.4 60.0 -45.7 60.0 -48.0 58.4 -49.6 56.75 -51.25 54.45 -51.25 52.2 -51.25 50.55 -49.6 49.75 -48.8 49.35 -47.75 45.85 -49.4 42.4 -49.9 43.2 -52.55 45.5 -54.65 49.2 -58.0 54.35 -58.0 59.5 -58.0 63.1 -54.65 M28.35 -26.2 Q30.55 -22.55 29.25 -17.4 28.0 -12.35 24.15 -8.8 20.25 -5.3 15.25 -4.95 10.2 -4.65 8.5 -8.25 6.85 -11.85 8.8 -16.9 10.75 -21.95 14.8 -26.05 18.8 -30.2 22.5 -30.05 26.15 -29.95 28.35 -26.2 M18.8 -47.1 Q15.55 -45.1 12.45 -42.05 L11.45 -43.25 Q9.45 -45.25 6.65 -45.25 3.8 -45.25 1.8 -43.25 -0.2 -41.2 -0.2 -38.4 -0.2 -35.55 1.8 -33.55 3.0 -32.3 4.6 -31.85 L3.8 -29.8 Q3.55 -28.9 3.45 -27.7 -1.8 -27.65 -4.7 -30.2 -7.6 -32.8 -7.25 -38.5 -6.9 -44.2 -2.55 -48.55 1.75 -52.95 7.55 -53.2 13.3 -53.4 17.65 -49.05 18.5 -48.25 18.8 -47.1 M48.7 -26.55 Q50.5 -30.4 54.2 -30.3 57.85 -30.2 61.85 -26.05 65.85 -21.95 67.5 -17.0 69.1 -12.1 67.35 -9.45 65.65 -6.8 60.85 -6.55 56.05 -6.3 52.7 -9.35 49.4 -12.45 48.15 -17.55 46.85 -22.65 48.7 -26.55 M19.9 -20.95 Q19.5 -19.9 19.85 -19.15 20.2 -18.4 21.25 -18.5 22.3 -18.55 23.1 -19.3 23.9 -20.0 24.2 -21.05 24.45 -22.15 24.0 -22.9 23.55 -23.65 22.75 -23.7 22.0 -23.75 21.15 -22.85 20.35 -22.0 19.9 -20.95 M55.15 -21.6 Q54.75 -22.55 54.0 -23.35 53.25 -24.15 52.55 -24.15 51.9 -24.1 51.4 -23.4 51.0 -22.7 51.25 -21.65 51.55 -20.7 52.25 -20.0 52.95 -19.35 53.9 -19.3 54.85 -19.25 55.15 -19.95 55.5 -20.6 55.15 -21.6 M54.3 27.7 Q56.45 37.35 54.9 47.3 57.25 50.3 55.4 53.5 L50.1 54.9 43.9 55.3 40.55 55.1 Q34.65 55.25 33.9 43.95 L30.9 44.95 31.5 48.65 Q33.45 49.35 33.6 55.85 L27.65 57.25 21.05 57.75 Q15.5 57.7 10.05 55.95 8.35 51.2 7.7 46.3 L7.25 41.95 Q-7.25 27.55 -6.45 7.5 -5.65 -12.55 -14.85 -14.05 -7.65 -14.75 0.25 -14.45 -2.75 -10.45 -2.05 -2.35 L-0.45 -6.4 Q-0.2 1.5 10.4 6.8 23.55 12.7 34.55 11.9 46.95 11.9 55.35 8.2 57.25 21.55 54.3 27.7 M-41.05 -7.2 Q-47.85 -4.05 -54.15 1.65 -59.1 6.5 -61.55 11.8 -62.8 11.25 -63.9 10.15 -68.3 5.75 -68.3 -0.55 -68.3 -6.8 -63.85 -11.95 -59.45 -17.1 -53.2 -16.65 -46.9 -16.2 -43.9 -12.9 -40.85 -9.65 -41.05 -7.2 M-6.05 47.9 Q-3.3 50.6 -3.4 54.15 L-8.05 55.1 -14.05 55.25 Q-19.4 54.95 -25.85 53.3 -26.4 50.2 -25.85 47.15 L-6.05 47.9 M-51.7 21.65 Q-47.95 21.05 -43.2 25.35 -37.8 31.65 -36.65 43.45 -36.35 46.4 -36.35 49.75 -32.9 51.3 -33.65 55.35 L-38.05 56.95 Q-41.9 58.1 -46.35 57.95 -51.55 57.75 -56.35 55.35 -61.05 47.4 -62.7 34.85 -58.4 23.9 -51.7 21.65" fill="#2e2e2e" fill-rule="evenodd" stroke="none"/>
  </g>
</svg>
