<?xml version="1.0" encoding="UTF-8" standalone="no"?>
<svg xmlns:xlink="http://www.w3.org/1999/xlink" height="5.65px" width="35.6px" xmlns="http://www.w3.org/2000/svg">
  <g transform="matrix(1.0, 0.0, 0.0, 1.0, -16.5, 79.85)">
    <path d="M48.2 -79.1 Q48.7 -79.8 49.35 -79.85 50.05 -79.85 50.8 -79.05 L51.95 -77.3 Q52.3 -76.3 51.95 -75.65 51.65 -74.95 50.7 -75.0 49.75 -75.05 49.05 -75.7 48.35 -76.4 48.05 -77.35 47.8 -78.4 48.2 -79.1 M21.0 -76.75 Q20.7 -75.7 19.9 -75.0 19.1 -74.25 18.05 -74.2 17.0 -74.1 16.65 -74.85 16.3 -75.6 16.7 -76.65 17.15 -77.7 17.95 -78.55 18.8 -79.45 19.55 -79.4 20.35 -79.35 20.8 -78.6 21.25 -77.85 21.0 -76.75" fill="#f5f5f5" fill-rule="evenodd" stroke="none"/>
  </g>
</svg>
