<?xml version="1.0" encoding="UTF-8" standalone="no"?>
<svg xmlns:xlink="http://www.w3.org/1999/xlink" height="15.0px" width="147.2px" xmlns="http://www.w3.org/2000/svg">
  <g transform="matrix(1.0, 0.0, 0.0, 1.0, 73.6, 7.5)">
    <path d="M58.3 3.75 L55.8 3.4 Q49.9 2.65 49.75 0.6 L49.75 -5.35 Q56.5 -8.2 58.3 3.75 63.45 -13.55 66.75 3.65 68.75 -3.8 73.6 -4.7 L73.2 2.65 66.75 3.65 Q62.65 3.95 58.3 3.75 M34.95 5.65 L25.45 6.45 Q21.15 6.45 16.2 5.45 12.85 4.6 10.65 0.35 19.7 -8.85 24.1 2.15 31.1 -11.15 34.95 5.65 35.8 -1.25 40.6 -4.2 L40.8 4.35 34.95 5.65 M-61.6 7.4 Q-65.5 7.35 -72.7 5.6 L-73.6 3.35 Q-65.45 -5.35 -62.6 3.0 -56.35 -4.55 -52.3 4.55 -50.95 -1.75 -46.1 -0.55 L-45.6 5.6 Q-48.1 6.55 -51.35 7.0 L-61.6 7.4 M-36.35 -2.3 Q-28.9 -10.8 -25.3 -3.25 -18.9 -12.75 -15.5 -1.0 -11.85 -6.15 -8.2 -5.1 -8.2 -2.55 -8.45 0.0 L-14.9 1.25 -23.75 1.75 Q-29.65 1.6 -35.3 0.0 L-36.35 -2.3" fill="#eff3cf" fill-rule="evenodd" stroke="none"/>
  </g>
</svg>
