<?xml version="1.0" encoding="UTF-8" standalone="no"?>
<svg xmlns:xlink="http://www.w3.org/1999/xlink" height="18.55px" width="32.0px" xmlns="http://www.w3.org/2000/svg">
  <g transform="matrix(1.0, 0.0, 0.0, 1.0, 16.0, 9.3)">
    <path d="M5.4 -4.9 L6.05 -3.35 Q6.45 -5.1 7.35 -6.55 9.1 -9.3 11.55 -9.3 14.0 -9.3 15.05 -6.45 16.05 -3.35 16.0 -0.05 15.95 2.35 14.85 6.2 13.75 8.9 11.4 9.2 9.1 9.5 7.35 6.75 6.6 5.55 6.2 4.2 L5.15 6.6 Q4.35 7.9 2.7 7.9 1.0 7.95 0.2 6.85 L-0.85 5.05 -1.85 6.15 Q-2.7 6.95 -4.75 6.95 -6.85 6.95 -8.3 5.3 L-8.75 4.7 Q-9.9 5.45 -11.35 5.45 -13.3 5.45 -14.65 4.1 -16.0 2.75 -16.0 0.85 -16.0 -1.1 -14.65 -2.45 -13.3 -3.8 -11.35 -3.8 -9.9 -3.8 -8.75 -3.0 L-8.3 -3.75 Q-6.85 -5.7 -4.75 -5.7 -2.7 -5.7 -1.2 -3.75 L-0.9 -3.3 -0.3 -4.9 Q0.9 -7.2 2.55 -7.2 4.2 -7.2 5.4 -4.9" fill="#5e2605" fill-rule="evenodd" stroke="none"/>
  </g>
</svg>
