<?xml version="1.0" encoding="UTF-8" standalone="no"?>
<svg xmlns:xlink="http://www.w3.org/1999/xlink" height="77.3px" width="77.25px" xmlns="http://www.w3.org/2000/svg">
  <g transform="matrix(1.0, 0.0, 0.0, 1.0, 38.65, 38.65)">
    <path d="M17.75 17.85 Q23.4 11.4 23.4 2.6 23.4 -7.15 16.5 -14.0 9.6 -20.9 -0.05 -20.9 -4.15 -20.9 -7.75 -19.7 -12.7 -18.0 -16.75 -14.0 -23.65 -7.15 -23.65 2.6 -23.65 12.35 -16.75 19.25 -9.8 26.1 -0.05 26.1 9.6 26.1 16.5 19.25 L17.35 19.55 17.75 17.85 M0.0 -38.65 Q16.0 -38.65 27.3 -27.3 38.6 -15.95 38.6 0.05 38.6 13.55 30.55 23.75 L27.3 27.35 Q16.0 38.65 0.0 38.65 -16.0 38.65 -27.35 27.35 L-29.6 24.9 Q-37.1 16.15 -38.35 4.6 L-38.65 0.05 Q-38.65 -15.95 -27.35 -27.3 -16.0 -38.65 0.0 -38.65 M6.05 8.3 L4.25 10.7 Q1.35 13.65 -2.95 13.65 -7.15 13.65 -10.1 10.7 -13.1 7.7 -13.1 3.5 -13.1 -0.7 -10.1 -3.7 -8.6 -5.15 -6.85 -5.95 -5.1 -6.7 -2.95 -6.7 1.35 -6.7 4.25 -3.7 7.25 -0.7 7.25 3.5 7.25 6.1 6.05 8.3" fill="#846653" fill-rule="evenodd" stroke="none"/>
  </g>
</svg>
