<?xml version="1.0" encoding="UTF-8" standalone="no"?>
<svg xmlns:xlink="http://www.w3.org/1999/xlink" height="98.35px" width="124.5px" xmlns="http://www.w3.org/2000/svg">
  <g transform="matrix(1.0, 0.0, 0.0, 1.0, 62.25, 49.2)">
    <path d="M-40.2 19.05 Q-36.6 18.7 -33.5 16.15 -27.15 11.0 -22.65 -3.05 -16.0 -24.35 -7.2 -33.3 L-7.0 -33.7 -6.5 -34.25 -6.3 -34.5 -6.25 -34.65 -2.9 -38.15 Q7.85 -48.2 23.05 -48.2 38.2 -48.2 48.95 -38.15 59.15 -28.5 59.6 -15.15 L59.6 -15.05 59.6 -14.8 59.6 -13.95 59.5 -10.2 Q58.8 1.3 56.75 6.0 L50.6 21.45 Q52.5 20.25 55.0 20.85 57.95 21.3 59.55 24.05 61.05 26.8 61.2 29.8 61.55 35.85 57.9 39.2 51.35 45.2 43.2 41.85 41.05 46.6 35.85 47.6 26.7 48.4 25.9 38.2 19.9 52.35 5.85 46.4 -2.9 42.65 -0.2 32.65 -3.4 38.85 -9.6 41.0 -23.75 45.65 -31.55 38.6 -35.0 34.9 -34.3 30.2 -50.55 35.55 -58.35 28.4 -63.9 22.5 -58.75 14.05 -55.65 8.9 -50.4 7.95 -46.3 6.9 -42.3 11.25 -38.45 14.95 -40.2 19.05 -41.3 23.35 -46.1 22.8 -50.8 22.25 -50.7 18.85 -50.65 15.5 -48.15 15.35 M50.6 21.45 Q45.95 22.25 45.15 27.85 45.0 30.8 47.6 32.4 50.2 34.05 52.7 31.65 54.2 29.7 53.1 27.85 L50.0 27.85 M43.2 41.85 L44.1 39.45 Q45.15 33.8 41.85 29.4 36.75 24.15 32.45 29.4 29.05 33.6 32.45 38.2 34.55 39.8 36.6 38.8 38.95 37.6 38.75 35.55 38.4 32.6 36.35 32.9 M45.35 18.05 Q40.95 24.8 41.85 29.4 M24.7 1.4 Q24.6 3.55 26.3 3.15 L27.5 2.8 28.45 2.4 Q30.7 1.2 32.4 2.15 34.0 3.15 34.05 5.7 34.2 8.2 32.65 10.85 31.1 13.5 28.85 14.7 26.65 15.9 24.8 15.1 22.9 14.15 23.05 12.85 23.1 11.4 22.65 10.45 22.2 9.5 20.6 9.9 M10.25 33.7 Q8.7 37.15 12.25 39.2 16.5 41.0 19.15 36.35 20.7 33.6 20.45 30.05 19.9 24.95 15.1 21.45 10.3 19.05 5.7 23.7 1.15 28.3 -0.2 32.65 M25.9 38.2 Q25.0 30.0 28.6 21.7 M-10.0 10.45 Q-11.85 17.15 -16.4 19.75 L-16.95 20.05 -15.4 21.45 Q-13.2 23.7 -12.85 26.05 -6.45 21.75 -4.25 11.1 M-34.3 30.2 Q-33.9 27.25 -31.9 24.0 -28.8 18.95 -23.6 18.15 -20.25 17.25 -16.95 20.05 M-12.85 26.05 Q-12.7 27.6 -13.45 29.2 -14.55 34.05 -19.25 34.6 -24.0 35.05 -23.95 30.4 -23.85 25.6 -21.35 25.5" fill="none" stroke="#000000" stroke-linecap="round" stroke-linejoin="round" stroke-width="2.0"/>
    <path d="M29.85 4.95 Q30.45 5.35 30.45 6.6 30.4 7.9 29.6 9.3 28.8 10.7 27.65 11.35 26.65 12.05 25.9 11.65 25.2 11.25 25.25 9.95 25.4 8.7 26.2 7.35 27.0 5.9 28.05 5.2 28.25 5.0 28.45 4.95 29.25 4.6 29.85 4.95" fill="none" stroke="#000000" stroke-linecap="round" stroke-linejoin="round" stroke-width="1.2000000000000002"/>
  </g>
</svg>
