<?xml version="1.0" encoding="UTF-8" standalone="no"?>
<svg xmlns:xlink="http://www.w3.org/1999/xlink" height="34.95px" width="163.6px" xmlns="http://www.w3.org/2000/svg">
  <g transform="matrix(1.0, 0.0, 0.0, 1.0, 81.8, 17.5)">
    <path d="M50.9 -8.85 Q62.7 5.0 81.8 12.8 62.05 16.65 41.25 8.15 L38.05 11.6 Q28.75 19.4 13.75 16.8 L-25.35 14.15 -20.9 11.95 Q-9.2 5.45 -0.25 -5.45 13.3 -0.3 33.65 -10.8 45.6 -18.85 52.0 -17.25 52.0 -12.9 50.9 -8.85 M-31.3 -6.65 Q-36.45 3.5 -46.1 12.65 -61.65 14.55 -75.1 8.15 L-79.8 6.6 -80.5 7.0 -81.8 4.65 -80.2 1.0 -80.2 -3.3 -31.3 -6.65" fill="#ffffff" fill-rule="evenodd" stroke="none"/>
  </g>
</svg>
