<?xml version="1.0" encoding="UTF-8" standalone="no"?>
<svg xmlns:xlink="http://www.w3.org/1999/xlink" height="24.55px" width="98.0px" xmlns="http://www.w3.org/2000/svg">
  <g transform="matrix(1.0, 0.0, 0.0, 1.0, 49.0, 12.3)">
    <path d="M-41.9 -0.55 Q-41.8 -3.65 -39.55 -4.45 -34.25 -4.05 -40.5 5.25 -50.55 3.6 -48.75 -0.55 -46.2 -4.7 -41.9 -0.55 M-38.85 -10.45 Q-37.65 -11.95 -35.6 -10.65 -35.45 -11.85 -34.2 -12.3 -32.75 -12.4 -32.8 -11.55 -32.85 -10.55 -34.95 -8.45 -39.1 -8.9 -39.0 -10.0 L-38.85 -10.45 M-11.6 11.3 Q-11.6 11.7 -12.85 11.95 L-15.9 12.25 -18.95 11.95 Q-20.15 11.7 -20.15 11.3 -20.15 10.9 -18.95 10.65 L-15.9 10.35 -12.85 10.65 Q-11.6 10.9 -11.6 11.3 M47.75 6.4 Q49.0 6.7 49.0 7.1 49.0 7.5 47.75 7.75 L44.7 8.05 41.65 7.75 Q40.45 7.5 40.45 7.1 40.45 6.7 41.65 6.4 L44.7 6.15 47.75 6.4" fill="#ff0066" fill-rule="evenodd" stroke="none"/>
  </g>
</svg>
