<?xml version="1.0" encoding="UTF-8" standalone="no"?>
<svg xmlns:xlink="http://www.w3.org/1999/xlink" height="70.3px" width="60.8px" xmlns="http://www.w3.org/2000/svg">
  <g transform="matrix(1.0, 0.0, 0.0, 1.0, 6.1, 68.8)">
    <path d="M50.35 -60.1 Q48.55 -60.1 47.3 -61.4 46.05 -62.65 46.05 -64.45 46.05 -66.25 47.3 -67.55 48.55 -68.8 50.35 -68.8 52.2 -68.8 53.45 -67.55 54.7 -66.25 54.7 -64.45 54.7 -62.65 53.45 -61.4 52.2 -60.1 50.35 -60.1 M4.4 -57.45 Q3.1 -56.2 1.3 -56.2 -0.5 -56.2 -1.75 -57.45 -3.05 -58.75 -3.05 -60.55 -3.05 -62.35 -1.75 -63.6 -0.5 -64.9 1.3 -64.9 3.1 -64.9 4.4 -63.6 5.65 -62.35 5.65 -60.55 5.65 -58.75 4.4 -57.45" fill="#000000" fill-rule="evenodd" stroke="none"/>
    <path d="M16.1 -1.55 Q25.55 -5.8 31.35 -10.6 M-5.4 0.8 Q6.45 -2.7 17.3 -12.8" fill="none" stroke="#000000" stroke-linecap="round" stroke-linejoin="round" stroke-opacity="0.5686275" stroke-width="1.4000000000000001"/>
  </g>
</svg>
