<?xml version="1.0" encoding="UTF-8" standalone="no"?>
<svg xmlns:xlink="http://www.w3.org/1999/xlink" height="82.7px" width="61.05px" xmlns="http://www.w3.org/2000/svg">
  <g transform="matrix(1.0, 0.0, 0.0, 1.0, 30.55, 41.35)">
    <path d="M22.7 -38.85 Q23.65 -41.6 28.6 -41.35 31.15 -37.6 30.25 -33.95 24.05 -34.9 22.7 -38.85 M12.35 38.4 L4.3 30.6 8.75 29.8 15.4 28.35 Q20.9 31.7 21.6 35.05 L13.15 31.35 16.75 36.45 10.0 32.65 12.35 38.4 M-26.85 26.25 L-25.0 27.25 Q-17.55 29.95 -9.75 30.7 -4.15 34.55 -3.65 38.4 L-11.45 33.75 -8.8 39.45 -17.45 32.65 -13.4 41.35 -24.2 30.85 -30.45 32.95 Q-31.2 28.8 -26.85 26.25" fill="#cb8734" fill-rule="evenodd" stroke="none"/>
  </g>
</svg>
