<?xml version="1.0" encoding="UTF-8" standalone="no"?>
<svg xmlns:xlink="http://www.w3.org/1999/xlink" height="100.7px" width="67.45px" xmlns="http://www.w3.org/2000/svg">
  <g transform="matrix(1.0, 0.0, 0.0, 1.0, 33.7, 50.35)">
    <path d="M11.9 -38.65 Q19.7 -41.7 23.05 -50.35 34.95 -46.9 33.6 -28.0 30.6 -33.9 26.5 -32.35 22.05 -29.15 17.65 -29.2 L11.9 -38.65 M-10.45 21.3 L-8.4 28.05 -8.35 28.05 Q-1.95 19.05 6.5 23.6 L-1.2 27.05 Q3.6 25.0 7.6 27.2 L-0.25 30.65 Q4.55 28.8 8.15 32.5 1.2 31.15 -4.2 35.4 -3.45 36.55 -3.05 38.15 -7.15 35.45 -12.2 36.95 -6.65 38.05 -5.55 42.8 -12.45 40.85 -20.0 41.75 L-23.3 44.75 Q-25.55 47.2 -27.35 50.35 -30.2 46.8 -29.4 42.4 L-28.95 40.55 -33.7 27.25 -30.75 28.25 Q-27.35 29.65 -24.35 27.4 L-23.85 27.0 -21.55 33.15 Q-18.8 29.25 -14.8 28.2 L-16.45 23.45 Q-12.8 23.25 -10.45 21.3" fill="#ffff66" fill-rule="evenodd" stroke="none"/>
  </g>
</svg>
