<?xml version="1.0" encoding="UTF-8" standalone="no"?>
<svg xmlns:xlink="http://www.w3.org/1999/xlink" height="102.15px" width="247.0px" xmlns="http://www.w3.org/2000/svg">
  <g transform="matrix(1.0, 0.0, 0.0, 1.0, 123.5, 51.1)">
    <path d="M19.0 -3.25 Q17.0 -2.4 15.55 0.1 14.55 6.75 26.65 8.55 22.65 8.9 21.75 13.8 L2.95 7.65 Q-2.3 9.5 -3.35 13.45 L-3.35 17.8 Q-1.4 25.1 5.2 24.85 L6.25 25.15 Q19.8 28.3 17.8 41.0 L14.25 42.5 Q9.15 44.1 3.25 44.45 -3.6 44.6 -11.5 42.85 -22.85 31.8 -25.25 15.25 L-25.25 8.9 Q-25.7 10.55 -27.5 12.0 -32.7 16.05 -49.35 17.3 -46.95 24.85 -39.15 28.6 -35.1 28.8 -31.7 30.55 -24.35 36.2 -27.5 43.6 L-28.3 43.1 Q-28.75 45.25 -30.25 47.4 -34.85 49.95 -41.65 47.4 L-42.0 50.0 -43.55 50.5 Q-50.6 52.35 -57.75 47.8 -68.35 27.85 -69.8 1.75 -53.1 0.0 -46.95 -14.8 -51.8 -26.75 -48.6 -35.0 -69.95 -30.6 -90.15 -15.05 -97.85 -11.1 -107.45 -10.3 L-111.55 -10.05 -111.75 -10.05 -114.9 -10.05 -123.5 -10.85 Q-117.35 -11.1 -111.75 -12.9 -98.4 -16.85 -87.85 -28.25 -71.15 -45.3 -44.45 -51.1 L-38.85 -49.1 Q-32.6 -47.15 -23.6 -45.35 -39.95 -47.0 -33.35 -38.4 -26.75 -29.8 -6.55 -31.7 -18.05 -30.3 -11.2 -24.2 -4.3 -18.2 11.9 -21.6 9.6 -20.65 8.35 -17.65 8.9 -12.1 19.0 -11.9 12.3 -8.6 19.0 -3.25 M111.6 -22.1 Q116.15 -19.1 119.35 -12.4 L119.4 -12.25 Q121.8 -7.35 123.5 -0.3 121.15 0.2 119.35 1.75 116.65 4.15 115.15 8.7 116.5 11.3 116.75 13.6 116.9 15.1 116.5 16.5 110.7 15.55 104.85 17.05 L110.75 17.9 Q114.3 18.65 117.25 20.2 119.65 21.35 121.65 23.0 L121.8 23.15 122.6 23.95 Q123.8 27.1 122.8 29.1 L122.05 30.25 Q121.1 27.55 118.0 24.75 117.85 28.3 116.4 30.35 L114.8 31.95 Q114.0 31.45 113.05 31.45 L113.25 32.2 Q113.8 35.7 113.2 36.75 L112.2 37.4 Q109.7 33.15 106.35 30.75 111.2 36.85 106.9 41.0 L103.85 41.35 Q102.45 39.7 100.3 38.7 101.65 42.2 99.25 44.95 L96.8 45.45 Q94.25 45.8 89.4 45.55 L84.15 45.25 Q81.25 44.95 77.85 44.05 L76.25 43.55 71.65 42.2 Q67.5 40.8 63.5 39.05 55.4 35.4 48.05 30.1 L47.65 29.3 Q49.8 27.85 51.25 24.65 L52.55 27.25 55.85 21.35 61.5 22.8 61.5 19.4 68.75 20.45 68.75 18.05 69.6 18.55 68.9 16.8 Q76.1 18.25 83.0 18.0 L76.5 20.65 Q86.15 22.35 94.85 20.4 L98.45 19.4 98.5 19.4 96.5 14.05 Q88.9 16.2 85.4 14.5 84.25 13.95 83.5 13.0 86.0 13.35 87.2 10.7 77.15 9.6 72.45 1.95 75.9 -3.85 81.95 -5.5 76.6 -10.6 75.4 -17.7 79.25 -12.9 84.15 -13.4 77.0 -19.0 78.35 -28.3 86.2 -21.15 98.5 -22.1 L111.6 -22.1" fill="#cd681d" fill-rule="evenodd" stroke="none"/>
  </g>
</svg>
