<?xml version="1.0" encoding="UTF-8" standalone="no"?>
<svg xmlns:xlink="http://www.w3.org/1999/xlink" height="95.6px" width="147.55px" xmlns="http://www.w3.org/2000/svg">
  <g transform="matrix(1.0, 0.0, 0.0, 1.0, 73.8, 47.8)">
    <path d="M30.8 -46.65 L31.35 -46.8 Q35.7 -48.1 40.65 -47.7 46.8 -47.45 48.95 -46.05 56.3 -41.05 59.2 -38.1 71.55 -26.75 73.75 -6.1 74.3 23.2 59.15 36.0 44.3 47.15 36.1 40.15 27.8 46.05 18.0 43.15 7.2 50.9 -0.95 43.15 -14.7 52.45 -27.6 43.15 -31.7 45.3 -38.4 45.3 -53.25 45.25 -63.5 32.2 -73.8 19.2 -73.8 0.6 -73.8 -18.2 -63.4 -31.9 L-59.25 -36.6 Q-52.7 -43.15 -46.0 -45.65 L-45.75 -45.75 -43.45 -46.45 -40.3 -47.05 Q-30.7 -48.15 -22.65 -44.7 -16.5 -46.15 -9.05 -44.6 L-6.65 -44.05 -2.9 -42.9 Q0.1 -45.0 3.35 -45.65 L6.05 -45.8 Q9.75 -45.65 13.55 -42.95 20.6 -49.85 30.8 -46.65 M30.65 -4.0 L51.85 1.75 Q52.85 -11.25 37.45 -24.3 L30.65 -4.0 M7.15 6.7 L17.8 6.05 Q15.85 -0.45 11.65 -3.15 7.2 0.95 7.15 6.7 M34.0 10.05 L36.5 16.75 Q33.9 18.2 30.4 19.05 L25.2 19.9 21.8 20.1 23.6 12.75 Q11.75 15.95 -2.9 13.75 L-2.9 20.95 -16.1 19.1 -14.65 12.05 -36.05 7.75 Q-21.7 30.95 -4.8 34.5 1.1 35.75 7.2 34.65 L1.7 26.75 14.2 26.45 14.2 35.3 21.45 33.65 Q44.5 27.05 50.55 10.05 L34.0 10.05 M-12.85 -6.45 Q-16.65 -14.05 -23.45 -21.1 -32.4 -9.4 -38.45 6.05 -25.6 1.55 -12.8 -0.25 L-10.4 -0.6 Q-11.4 -3.55 -12.85 -6.45" fill="#fe9900" fill-rule="evenodd" stroke="none"/>
  </g>
</svg>
