<?xml version="1.0" encoding="UTF-8" standalone="no"?>
<svg xmlns:xlink="http://www.w3.org/1999/xlink" height="70.25px" width="45.15px" xmlns="http://www.w3.org/2000/svg">
  <g transform="matrix(1.0, 0.0, 0.0, 1.0, 21.05, 73.25)">
    <path d="M15.3 -5.6 Q15.3 -6.7 15.75 -7.5 16.2 -8.3 16.8 -8.3 17.4 -8.3 17.85 -7.5 18.3 -6.7 18.3 -5.6 18.3 -4.5 17.85 -3.75 17.4 -3.0 16.8 -3.0 16.2 -3.0 15.75 -3.75 15.3 -4.5 15.3 -5.6 M5.2 -18.0 Q5.2 -19.2 5.65 -20.05 6.1 -20.95 6.65 -20.95 7.25 -20.95 7.7 -20.05 8.05 -19.2 8.05 -18.0 8.05 -16.85 7.7 -15.95 7.25 -15.1 6.65 -15.1 6.1 -15.1 5.65 -15.95 5.2 -16.85 5.2 -18.0 M14.7 -23.35 Q14.7 -24.5 15.15 -25.25 15.6 -26.1 16.25 -26.1 16.9 -26.1 17.35 -25.25 17.85 -24.5 17.85 -23.35 17.85 -22.2 17.35 -21.45 16.9 -20.65 16.25 -20.65 15.6 -20.65 15.15 -21.45 14.7 -22.2 14.7 -23.35 M2.3 -34.8 Q2.3 -35.75 2.7 -36.45 3.1 -37.15 3.6 -37.15 4.1 -37.15 4.5 -36.45 4.85 -35.75 4.85 -34.8 4.85 -33.75 4.5 -33.05 4.1 -32.35 3.6 -32.35 3.1 -32.35 2.7 -33.05 2.3 -33.75 2.3 -34.8 M12.8 -39.6 Q12.8 -40.6 13.1 -41.3 13.45 -42.0 13.95 -42.0 14.4 -42.0 14.75 -41.3 15.1 -40.6 15.1 -39.6 15.1 -38.55 14.75 -37.85 14.4 -37.15 13.95 -37.15 13.45 -37.15 13.1 -37.85 12.8 -38.55 12.8 -39.6 M-2.55 -6.55 Q-2.55 -7.65 -2.15 -8.4 -1.75 -9.1 -1.2 -9.1 -0.6 -9.1 -0.15 -8.4 0.2 -7.65 0.2 -6.55 0.2 -5.55 -0.15 -4.85 -0.6 -4.05 -1.2 -4.05 -1.75 -4.05 -2.15 -4.85 -2.55 -5.55 -2.55 -6.55 M-18.9 -13.25 Q-18.9 -14.35 -18.45 -15.1 -18.0 -15.9 -17.4 -15.9 -16.8 -15.9 -16.35 -15.1 -15.95 -14.35 -15.95 -13.25 -15.95 -12.25 -16.35 -11.5 -16.8 -10.7 -17.4 -10.7 -18.0 -10.7 -18.45 -11.5 -18.9 -12.25 -18.9 -13.25 M-7.95 -22.6 Q-7.95 -23.7 -7.5 -24.45 -7.0 -25.2 -6.35 -25.2 -5.75 -25.2 -5.3 -24.45 -4.85 -23.7 -4.85 -22.6 -4.85 -21.45 -5.3 -20.75 -5.75 -19.9 -6.35 -19.9 -7.0 -19.9 -7.5 -20.75 -7.95 -21.45 -7.95 -22.6 M-7.7 -40.4 Q-7.7 -41.5 -7.35 -42.35 -6.95 -43.1 -6.35 -43.1 -5.85 -43.1 -5.45 -42.35 -5.1 -41.5 -5.1 -40.4 -5.1 -39.3 -5.45 -38.55 -5.85 -37.8 -6.35 -37.8 -6.95 -37.8 -7.35 -38.55 -7.7 -39.3 -7.7 -40.4" fill="#000000" fill-rule="evenodd" stroke="none"/>
    <path d="M19.7 -71.05 Q19.7 -71.95 20.35 -72.6 20.95 -73.25 21.85 -73.25 22.8 -73.25 23.45 -72.6 24.1 -71.95 24.1 -71.05 24.1 -70.1 23.45 -69.45 22.8 -68.85 21.85 -68.85 20.95 -68.85 20.35 -69.45 19.7 -70.1 19.7 -71.05 M-21.05 -68.25 Q-21.05 -68.9 -20.15 -69.35 L-18.05 -69.75 -15.9 -69.35 Q-15.05 -68.9 -15.05 -68.25 -15.05 -67.6 -15.9 -67.25 -16.8 -66.8 -18.05 -66.8 -19.25 -66.8 -20.15 -67.25 -21.05 -67.6 -21.05 -68.25" fill="#fff0ec" fill-rule="evenodd" stroke="none"/>
  </g>
</svg>
