<?xml version="1.0" encoding="UTF-8" standalone="no"?>
<svg xmlns:xlink="http://www.w3.org/1999/xlink" height="87.95px" width="40.65px" xmlns="http://www.w3.org/2000/svg">
  <g transform="matrix(1.0, 0.0, 0.0, 1.0, 10.25, 87.8)">
    <path d="M11.2 -63.75 L17.1 -64.25 19.35 -64.6 M28.65 -60.0 Q26.5 -62.95 22.85 -61.4 L22.45 -60.85 29.65 -58.15 M23.25 -43.8 L22.45 -60.85 Q18.6 -56.5 17.1 -49.6 16.45 -47.35 16.15 -44.75 M21.15 -67.5 Q19.0 -70.05 17.1 -72.75 12.25 -79.35 8.75 -87.05 M22.85 -61.4 Q20.1 -62.55 17.2 -59.1 19.8 -58.25 22.45 -60.85 M23.0 -0.6 L23.0 -36.6 M-9.5 -75.3 Q1.75 -74.0 10.9 -68.4 M-9.5 -68.0 Q0.2 -63.65 10.85 -63.75" fill="none" stroke="#000000" stroke-linecap="round" stroke-linejoin="round" stroke-opacity="0.6" stroke-width="1.5"/>
  </g>
</svg>
