<?xml version="1.0" encoding="UTF-8" standalone="no"?>
<svg xmlns:xlink="http://www.w3.org/1999/xlink" height="173.8px" width="182.5px" xmlns="http://www.w3.org/2000/svg">
  <g transform="matrix(1.0, 0.0, 0.0, 1.0, 91.25, 86.9)">
    <path d="M24.3 -6.15 L23.55 -7.9 24.45 -6.2 24.35 -6.15 24.3 -6.15" fill="#660000" fill-rule="evenodd" stroke="none"/>
    <path d="M-5.4 -72.4 Q-2.75 -74.35 1.1 -74.3 6.25 -74.25 5.4 -71.2 17.2 -71.05 25.65 -63.95 34.25 -56.75 34.5 -45.8 34.65 -40.9 33.75 -37.2 L36.8 -36.25 33.45 -36.25 Q32.35 -32.3 30.05 -29.85 L28.75 -28.5 Q29.7 -25.55 30.05 -23.25 34.7 -19.3 34.3 -15.85 L34.55 -15.45 Q36.1 -12.9 36.9 -9.95 L52.3 2.6 62.25 5.75 81.25 1.85 65.45 7.4 90.25 14.0 72.55 11.35 76.6 22.2 68.65 11.1 51.1 5.55 37.7 -5.55 37.75 -3.55 Q37.75 6.4 30.1 13.95 33.25 15.7 36.15 17.95 51.4 29.65 51.4 46.05 51.4 62.55 36.15 74.15 20.95 85.9 -0.5 85.9 -21.95 85.9 -37.2 74.15 -52.35 62.55 -52.35 46.05 -52.35 29.65 -37.2 17.95 -32.75 14.55 -27.7 12.15 -33.7 5.25 -33.7 -3.55 L-33.65 -4.2 -48.55 9.4 -52.4 10.85 -64.3 20.35 -74.0 35.85 -65.95 19.8 -82.3 26.15 -90.25 27.1 -65.75 17.7 -50.95 5.75 -46.85 3.15 -57.75 1.15 -43.65 1.15 -33.25 -8.1 Q-32.25 -13.35 -28.9 -17.85 L-30.6 -19.5 Q-28.25 -23.65 -27.3 -23.1 L-24.7 -29.85 -22.25 -29.85 -23.45 -31.8 Q-25.75 -36.0 -25.15 -46.35 -24.85 -51.65 -22.35 -56.2 -25.95 -55.4 -25.25 -58.2 -24.3 -62.3 -19.2 -65.9 L-27.9 -78.25 Q-20.5 -86.65 -11.1 -85.85 L-5.4 -72.4 Q-12.7 -66.5 -19.2 -65.9 M28.75 -28.5 Q25.9 -25.55 24.75 -24.9 L24.3 -24.75 19.5 -23.5 Q12.8 -21.9 5.8 -21.85 6.95 -14.65 5.8 -10.35 L10.15 -9.75 21.35 -14.35 Q22.1 -17.75 20.0 -21.15 M33.75 -37.2 L7.35 -45.05 Q-1.95 -40.9 5.35 -35.85 L33.45 -36.25 M5.8 -21.85 L4.85 -21.85 0.0 -22.05 Q-1.35 -16.9 -2.2 -11.5 L5.8 -10.35 Q8.75 -6.7 7.4 -2.55 17.7 -3.1 24.3 -6.15 L24.35 -6.15 24.45 -6.2 Q31.55 -9.5 34.55 -15.45 M23.55 -7.9 Q20.9 -10.0 21.35 -14.35 L29.35 -17.55 M30.05 -23.25 L30.1 -19.75 M37.7 -5.55 L36.9 -9.95 M-26.5 -20.65 Q-24.65 -17.95 -21.45 -17.45 -20.65 -20.85 -22.3 -24.3 -19.45 -26.6 -18.8 -26.75 -20.5 -27.4 -22.25 -29.85 M-20.5 -17.3 L-21.45 -17.45 Q-21.95 -13.15 -25.5 -11.1 -23.95 -9.15 -22.1 -7.9 L-20.5 -17.3 -18.8 -26.75 Q-9.35 -22.85 0.0 -22.05 M-33.65 -4.2 Q-33.65 -6.2 -33.25 -8.1 M-22.1 -7.9 L-22.1 -1.5 Q-17.6 -1.35 -13.1 3.25 -8.55 7.6 -3.95 4.75 L-3.2 -2.6 Q-2.9 -7.15 -2.2 -11.5 -9.6 -9.95 -14.4 -14.65 -16.55 -17.45 -20.5 -17.3 M-28.9 -17.85 Q-27.55 -13.75 -25.5 -11.1 M-22.1 -1.5 L-22.1 11.1 Q-16.4 11.8 -13.2 16.35 -8.55 18.65 -5.1 17.95 L-3.95 4.75 M30.1 13.95 L27.25 16.4 Q16.8 24.7 2.0 24.7 -12.75 24.7 -23.15 16.4 -25.85 14.35 -27.7 12.15 M-3.2 -2.6 Q2.45 -2.3 7.4 -2.55 M-22.35 -56.2 Q-0.55 -61.8 5.4 -71.2" fill="none" stroke="#000000" stroke-linecap="round" stroke-linejoin="round" stroke-width="2.0"/>
  </g>
</svg>
