<?xml version="1.0" encoding="UTF-8" standalone="no"?>
<svg xmlns:xlink="http://www.w3.org/1999/xlink" height="150.6px" width="168.4px" xmlns="http://www.w3.org/2000/svg">
  <g transform="matrix(1.0, 0.0, 0.0, 1.0, 84.2, 75.2)">
    <path d="M-8.7 -64.25 L-9.9 -63.45 -12.45 -66.8 -8.7 -64.25 M-12.1 -63.05 L-11.9 -61.8 -14.2 -62.8 -12.1 -63.05 M24.8 -52.1 L23.25 -51.5 23.25 -56.5 24.8 -52.1 M59.45 -41.1 L57.55 -40.35 59.45 -41.15 59.45 -41.1 M53.15 56.75 L53.1 56.55 52.75 56.15 54.55 55.2 53.15 56.75 M33.55 40.35 L33.55 44.4 31.75 41.4 33.55 40.35 M-7.35 48.7 L-6.15 52.0 -8.45 50.05 -7.35 48.7 M-39.4 62.9 L-41.55 67.35 -41.7 63.05 -39.4 62.9" fill="#666633" fill-rule="evenodd" stroke="none"/>
    <path d="M19.45 -64.45 L19.75 -64.2 Q23.95 -59.65 30.55 -59.8 L30.55 -63.7 28.0 -64.2 Q25.0 -65.0 22.55 -67.1 L19.45 -64.45 16.7 -61.85 Q18.85 -58.45 23.25 -56.5 26.95 -54.7 30.55 -56.0 L30.55 -52.15 27.15 -50.45 27.15 -53.75 25.2 -51.05 24.8 -52.1 23.25 -56.5 23.25 -51.5 Q17.25 -52.55 13.85 -59.4 L16.7 -61.85 M30.55 -59.8 L30.55 -56.0 M22.55 -67.1 L30.55 -74.45 30.55 -63.7 M10.65 -26.6 Q13.1 -27.55 15.0 -26.25 L16.4 -24.8 M11.9 -29.15 Q14.05 -29.75 15.9 -28.1 M8.85 -23.55 Q10.25 -24.2 11.7 -24.2 L11.9 -24.15 13.85 -23.6 15.2 -23.0 16.3 -22.25 M3.9 -18.05 Q3.4 -21.65 6.35 -21.35 8.9 -21.35 9.45 -19.6 10.05 -22.15 11.7 -22.05 L13.0 -21.8 Q15.65 -20.65 15.1 -18.0 L15.25 -18.05 Q18.85 -19.45 20.0 -16.95 20.65 -15.1 18.7 -13.65 M8.6 -10.05 L10.05 -9.85 16.15 -9.15 Q18.55 -9.0 20.95 -9.15 L25.75 -9.6 Q24.25 -7.0 22.45 -4.85 20.25 -2.4 17.4 -0.7 L15.9 0.1 14.45 0.75 Q13.0 1.35 11.2 1.75 L9.05 2.3 Q3.25 3.15 -0.15 0.1 -1.75 -1.25 -2.85 -3.6 L-3.45 -4.45 -5.25 -7.65 -5.75 -9.0 Q-6.7 -11.2 -7.3 -13.6 -7.9 -16.3 -8.15 -19.2 -5.9 -16.95 -3.35 -15.2 L1.05 -12.65 Q4.5 -11.0 8.6 -10.05 L9.05 2.3 16.15 -9.15 17.4 -0.7 20.95 -9.15 22.45 -4.85 M3.9 32.15 Q5.3 33.45 5.3 35.45 5.3 37.4 3.9 38.8 2.5 40.2 0.5 40.2 -1.3 40.2 -2.55 39.0 L-2.85 38.8 Q-4.15 37.4 -4.15 35.45 -4.15 33.45 -2.85 32.15 -1.35 30.7 0.5 30.7 2.25 30.7 3.4 31.65 L3.9 32.15 M2.1 33.25 L0.7 35.05 2.35 37.55 M-5.75 -9.0 L-3.35 -15.2 -7.3 -13.6 M8.6 -10.05 L-0.15 0.1 1.05 -12.65 -5.25 -7.65 M-1.35 37.55 L0.7 35.05 -0.55 33.35" fill="none" stroke="#000000" stroke-linecap="round" stroke-linejoin="round" stroke-width="1.5"/>
    <path d="M19.45 -64.45 Q3.95 -68.85 -8.7 -64.25 L-12.45 -66.8 -9.9 -63.45 -12.1 -63.05 -14.2 -62.8 -11.9 -61.8 Q-22.85 -55.1 -27.6 -42.9 -29.1 -38.85 -30.0 -34.3 -28.0 -33.6 -27.6 -31.3 -27.4 -30.5 -27.5 -29.55 M59.45 -41.1 L59.45 -41.15 59.3 -41.3 Q58.25 -43.55 55.35 -44.15 L60.35 -44.15 55.65 -46.15 51.15 -49.7 Q41.15 -56.9 30.55 -59.8 M59.45 -41.1 L59.7 -40.35 57.55 -40.35 Q58.7 -30.1 54.7 -19.45 57.05 -19.8 59.85 -17.45 L56.3 -17.45 58.1 -15.05 58.1 -14.95 58.3 -14.7 Q58.9 -13.85 67.6 10.25 L67.4 11.55 Q71.5 16.05 73.45 20.85 81.0 33.6 83.2 47.0 L82.8 48.95 Q81.35 62.3 74.6 68.65 L74.6 58.75 73.75 59.1 Q69.85 69.25 62.75 69.45 L63.7 61.2 62.75 60.9 Q59.45 69.55 53.9 69.45 L55.05 58.35 53.15 56.75 53.1 56.55 52.75 56.15 51.15 53.9 Q47.2 46.8 47.2 32.2 46.0 22.1 46.4 11.05 46.4 8.75 46.55 6.55 L44.9 10.35 44.7 10.95 33.55 40.35 33.55 44.4 31.75 41.4 31.4 40.75 31.4 45.75 Q36.55 51.15 42.7 52.8 L44.5 54.0 42.45 54.0 44.45 55.55 Q45.95 55.15 48.1 56.75 50.1 55.7 51.1 56.3 L51.15 56.3 51.95 56.8 Q53.1 57.9 53.1 59.7 53.1 61.75 51.15 62.0 L50.3 61.9 Q50.1 65.3 48.35 66.65 45.15 67.55 43.15 69.55 32.6 77.65 22.55 72.2 L12.8 52.35 Q1.85 52.35 -7.35 48.7 L-6.15 52.0 -8.45 50.05 -10.25 48.6 -13.55 49.25 -12.65 47.5 -21.0 45.15 Q-16.45 53.55 -8.35 59.6 L-12.85 59.6 -9.1 63.85 Q-4.25 64.35 -5.3 69.7 -7.3 72.6 -11.25 71.7 -15.45 75.0 -19.9 72.85 -23.0 74.9 -26.0 73.4 L-27.6 73.5 Q-31.25 73.65 -34.45 72.35 L-38.1 71.5 -39.4 62.9 -41.55 67.35 -41.7 63.05 -42.5 47.4 -43.95 50.05 -49.15 43.8 Q-50.85 52.4 -49.15 62.1 L-58.35 51.95 -58.35 63.7 Q-66.7 57.2 -66.7 50.8 -69.25 49.95 -71.15 48.55 L-71.15 60.95 Q-79.9 54.3 -79.25 42.5 L-79.25 37.55 -83.2 37.55 -79.65 34.25 Q-67.7 -5.6 -37.45 -30.55 L-40.95 -30.55 -33.95 -34.0 -37.95 -36.7 -30.0 -34.3 M54.7 -19.45 L54.35 -18.0 Q52.95 -11.9 51.15 -6.1 49.15 0.4 46.55 6.55 M67.4 11.55 Q66.65 15.3 63.9 17.15 M57.3 40.35 Q53.55 39.05 53.3 43.95 52.3 49.55 54.55 55.2 59.55 50.6 60.7 44.15 60.7 41.45 57.3 40.35 M14.05 7.5 Q16.25 10.55 15.25 13.55 13.5 13.05 12.3 11.1 L12.3 17.25 Q11.6 13.45 9.4 14.9 M31.4 45.75 Q29.0 43.65 25.0 44.15 M22.55 72.2 L27.15 66.85 Q29.4 59.55 33.95 59.95 37.15 55.55 42.5 57.3 43.3 55.9 44.45 55.55 M33.95 59.95 Q34.9 60.0 35.8 60.4 39.35 64.15 34.4 66.35 M73.75 59.1 Q70.3 60.25 65.7 60.1 L67.2 62.25 63.7 61.2 M62.75 60.9 L57.7 59.75 Q56.3 59.2 55.05 58.35 M41.0 62.25 Q43.25 62.4 43.8 60.95 44.9 58.3 42.5 57.3 M48.1 56.75 Q49.5 59.1 47.15 60.0 M12.8 52.35 Q13.0 46.35 18.15 45.35 M82.8 48.95 Q78.8 56.95 74.6 58.75 M-21.0 45.15 Q-22.45 42.35 -23.5 39.35 M-43.55 21.3 L-41.3 4.15 -44.4 9.55 Q-43.55 15.9 -43.55 21.3 L-43.55 21.4 Q-43.55 25.4 -43.95 28.95 -41.55 32.8 -40.8 36.65 -40.1 31.6 -34.45 32.25 M-71.15 48.55 Q-75.25 45.6 -76.65 39.95 L-79.25 42.5 M-43.95 28.95 Q-44.5 33.35 -45.75 37.0 L-44.2 39.8 -46.9 39.8 -46.9 43.35 -48.3 42.5 -49.15 43.8 Q-52.7 49.0 -58.35 51.95 -63.1 51.95 -66.7 50.8 M-42.5 47.4 Q-39.95 42.1 -40.8 36.65 M-11.25 71.7 Q-9.5 66.7 -14.3 65.15 M-9.1 63.85 L-14.1 63.3 Q-22.65 62.55 -27.6 64.15 -34.15 66.25 -34.45 72.35 M-26.0 73.4 Q-24.25 69.3 -27.6 67.55 L-28.45 67.25 M-19.9 72.85 Q-17.9 68.85 -22.4 66.3 M-32.25 -20.25 Q-35.4 -7.0 -41.3 4.15" fill="none" stroke="#000000" stroke-linecap="round" stroke-linejoin="round" stroke-width="2.0"/>
  </g>
</svg>
