<?xml version="1.0" encoding="UTF-8" standalone="no"?>
<svg xmlns:xlink="http://www.w3.org/1999/xlink" height="174.55px" width="165.5px" xmlns="http://www.w3.org/2000/svg">
  <g transform="matrix(1.0, 0.0, 0.0, 1.0, 82.75, 87.3)">
    <path d="M4.7 -80.5 L4.7 -64.4 3.3 -64.4 3.3 -80.45 3.9 -80.45 4.7 -80.5" fill="#cccccc" fill-rule="evenodd" stroke="none"/>
    <path d="M-57.75 54.6 Q-58.05 52.65 -58.75 51.05 -60.7 46.8 -65.3 45.25 -60.55 45.45 -58.75 48.3 -57.35 50.65 -57.75 54.6" fill="#797979" fill-rule="evenodd" stroke="none"/>
    <path d="M3.3 -80.45 Q2.5 -80.65 1.8 -81.3 1.0 -82.15 1.0 -83.35 1.0 -84.65 1.8 -85.5 2.65 -86.3 3.9 -86.3 5.2 -86.3 6.0 -85.5 6.85 -84.65 6.85 -83.35 6.85 -82.15 6.0 -81.3 L4.7 -80.5 4.7 -64.4 Q22.0 -64.15 28.7 -52.2 L29.25 -51.05 Q29.25 -51.0 29.35 -51.0 L29.35 -50.95 Q31.1 -47.25 32.05 -42.6 33.4 -35.1 32.4 -24.95 37.2 -25.1 39.95 -21.3 L39.7 -11.9 41.35 -11.1 Q48.05 -7.75 53.15 -3.4 59.25 1.65 63.1 8.0 67.6 15.2 69.4 24.1 70.25 28.4 70.55 33.1 78.65 37.5 81.75 47.8 L72.95 52.8 Q70.25 43.65 61.4 44.9 54.9 47.9 56.1 56.65 L49.35 56.65 Q44.5 47.4 49.35 38.9 48.7 33.95 47.55 29.7 45.95 23.7 43.35 18.95 L41.35 15.75 39.15 12.85 38.35 47.05 33.9 47.05 33.95 57.75 34.0 68.75 34.15 79.2 47.55 79.2 47.55 86.25 12.3 86.25 12.3 79.2 16.35 79.2 16.35 69.25 16.35 58.75 16.35 47.05 -5.65 47.05 -5.7 60.35 -5.75 69.75 -5.9 79.2 7.8 79.2 7.8 86.25 -27.6 86.25 -27.6 79.2 -23.7 79.2 -23.7 68.6 -23.7 58.05 -23.7 47.05 -27.15 47.05 -38.25 47.05 -38.25 5.2 Q-42.55 9.3 -45.6 13.65 -48.6 17.8 -50.55 22.3 -52.6 27.2 -53.5 32.5 -54.1 35.95 -54.1 39.7 -47.3 47.1 -50.4 54.6 L-57.75 54.6 Q-58.05 52.65 -58.75 51.05 -60.7 46.8 -65.3 45.25 L-65.65 45.25 Q-72.45 45.45 -71.85 55.65 L-80.8 55.65 Q-83.7 46.2 -77.65 39.7 -76.5 32.95 -75.05 27.05 -73.05 18.8 -70.25 12.4 -68.1 7.4 -65.65 3.45 L-62.85 -0.4 Q-60.9 -2.9 -58.75 -4.8 -53.35 -9.8 -46.5 -11.75 -43.15 -12.7 -39.4 -12.95 L-39.4 -21.45 Q-33.05 -26.85 -24.1 -26.3 -25.4 -42.9 -20.2 -52.2 -18.25 -55.85 -15.2 -58.4 -8.45 -64.2 3.3 -64.4 L3.3 -80.45 3.3 -80.9 4.7 -80.9 4.7 -80.5 3.9 -80.45 3.3 -80.45 M3.3 -64.4 L4.7 -64.4 M17.4 -42.0 L12.0 -42.0 Q10.65 -48.3 12.2 -52.2 13.05 -54.55 15.0 -55.95 L16.15 -56.75 Q22.0 -60.1 26.85 -52.2 L27.95 -50.4 Q29.6 -46.65 28.45 -42.0 L21.75 -42.0 17.4 -42.0 17.4 -52.6 21.75 -52.6 21.75 -42.0 M16.0 -36.3 L7.0 -36.3 7.0 -21.5 7.45 -21.5 7.9 -21.5 16.0 -21.5 16.0 -36.3 24.9 -36.3 24.9 -21.35 32.05 -21.3 32.4 -24.95 M6.45 -45.5 L10.7 -39.95 3.45 -39.95 6.45 -45.5 M7.0 -21.5 L6.45 -21.45 7.45 -21.5 M-0.7 14.8 L-16.1 14.8 Q-16.7 12.05 -16.7 9.05 -16.7 -1.2 -10.25 -8.4 -3.9 -15.65 5.2 -15.65 14.25 -15.65 20.65 -8.4 22.6 -6.2 23.95 -3.8 27.15 1.85 27.15 9.05 27.15 12.05 26.55 14.8 L13.75 14.8 -0.7 14.8 Q-0.55 12.75 1.45 11.25 3.25 9.95 5.6 9.75 11.05 -0.55 20.0 -4.65 16.8 3.2 9.05 10.0 10.45 10.4 11.65 11.25 13.65 12.75 13.75 14.8 M39.95 -21.3 L32.05 -21.3 M24.9 -21.35 L16.0 -21.5 M-9.35 -42.0 L-15.35 -42.0 Q-16.7 -48.3 -15.1 -52.2 -14.25 -54.25 -12.65 -55.65 L-11.1 -56.75 Q-6.35 -59.45 -2.2 -54.65 L-0.35 -52.2 0.65 -50.4 Q2.3 -46.65 1.1 -42.0 L-4.35 -42.0 -9.35 -42.0 -9.35 -52.6 -4.35 -52.6 -4.35 -42.0 M43.35 18.95 Q49.45 6.8 63.1 8.0 M47.55 29.7 Q56.45 19.95 69.4 24.1 M70.55 33.1 Q59.9 28.3 49.35 38.9 M39.15 12.85 L39.2 9.85 39.7 -11.9 M9.05 10.0 L6.6 9.65 5.6 9.75 M33.9 47.05 L27.15 47.05 16.35 47.05 M27.15 47.05 L27.15 20.3 -14.65 20.3 -14.65 47.05 -5.65 47.05 M16.35 69.25 Q24.35 72.6 34.0 68.75 M33.95 57.75 Q25.2 61.75 16.35 58.75 M16.35 79.2 L34.15 79.2 M39.2 9.85 Q40.15 7.0 41.35 4.75 45.75 -3.8 53.15 -3.4 M-3.0 -36.3 L-14.4 -36.3 -14.4 -21.45 -3.0 -21.45 -3.0 -36.3 7.0 -36.3 M-46.5 -11.75 Q-39.25 -4.2 -38.25 5.2 L-33.1 0.65 Q-32.15 -3.2 -32.05 -6.0 -31.85 -14.5 -39.4 -12.95 M-39.4 -21.45 L-28.4 -21.45 -23.7 -21.45 -24.1 -26.3 M-14.4 -21.45 L-23.7 -21.45 M-7.15 29.7 L-6.85 29.7 Q-5.95 29.75 -5.25 30.35 L-4.85 31.05 Q-4.5 31.55 -4.5 32.3 -4.5 33.35 -5.25 34.15 -6.05 34.95 -7.15 34.95 -8.15 34.95 -8.95 34.15 -9.7 33.35 -9.7 32.3 -9.7 31.15 -8.95 30.35 -8.15 29.7 -7.15 29.7 M-14.65 47.05 L-23.7 47.05 M-62.85 -0.4 L-58.75 0.55 Q-48.0 3.95 -45.6 13.65 M-50.55 22.3 Q-54.1 17.2 -58.75 14.7 -61.95 13.0 -65.65 12.55 L-70.25 12.4 M-75.05 27.05 L-65.65 26.8 Q-61.95 27.3 -58.75 28.9 -55.95 30.3 -53.5 32.5 M-77.65 39.7 Q-71.45 34.7 -65.65 34.7 -62.1 34.7 -58.75 36.45 -56.35 37.65 -54.1 39.7 M-57.75 54.6 Q-57.35 50.65 -58.75 48.3 -60.55 45.45 -65.3 45.25 M-23.7 68.6 Q-16.85 73.75 -5.75 69.75 M-5.7 60.35 Q-14.7 61.8 -23.7 58.05 M-23.7 79.2 L-5.9 79.2 M-27.15 47.05 L-28.4 -21.45 M-3.0 -21.45 L6.45 -21.45" fill="none" stroke="#000000" stroke-linecap="round" stroke-linejoin="round" stroke-width="2.0"/>
  </g>
</svg>
