<?xml version="1.0" encoding="UTF-8" standalone="no"?>
<svg xmlns:xlink="http://www.w3.org/1999/xlink" height="130.5px" width="104.0px" xmlns="http://www.w3.org/2000/svg">
  <g transform="matrix(1.0, 0.0, 0.0, 1.0, 52.0, 65.25)">
    <path d="M20.7 -30.25 Q18.2 -34.85 14.4 -37.8 14.4 -35.55 13.1 -35.65 10.2 -42.15 5.75 -40.7 3.35 -41.15 2.15 -38.85 -0.6 -35.15 -1.75 -30.7 -2.7 -24.6 0.25 -21.45 1.0 -16.05 5.65 -12.7 11.5 -7.6 18.9 -8.8 17.25 0.75 21.05 10.4 30.95 36.45 14.95 56.55 9.55 63.3 2.05 64.85 L-3.4 65.2 -5.75 65.0 -10.25 63.8 Q-13.8 62.4 -16.95 60.05 -29.45 64.2 -42.55 64.55 -46.9 64.05 -44.55 59.55 L-49.95 59.55 Q-54.0 57.8 -49.95 56.1 L-31.25 48.3 Q-32.15 37.25 -28.7 26.1 -23.75 8.45 -13.45 -7.65 -12.55 -20.55 -14.85 -33.55 L-14.85 -39.35 -13.85 -40.15 Q-6.25 -48.6 21.55 -53.7 L23.3 -54.15 Q26.55 -51.85 27.95 -49.2 31.55 -42.9 31.65 -36.2 24.5 -34.1 20.7 -30.25 M36.95 -1.2 Q41.1 -12.25 47.25 -2.75 50.85 3.65 52.0 10.5 51.25 18.45 47.9 25.1 L47.45 23.9 47.2 23.2 44.95 18.0 Q42.65 8.35 36.95 -1.2" fill="#aeaeae" fill-rule="evenodd" stroke="none"/>
    <path d="M-20.6 -48.35 L-20.9 -51.6 Q-8.85 -63.25 10.85 -65.25 L13.05 -64.1 13.3 -63.9 13.55 -63.8 18.2 -60.65 Q-10.1 -53.4 -19.05 -43.0 L-20.6 -48.35" fill="#a6b0b5" fill-rule="evenodd" stroke="none"/>
  </g>
</svg>
