<?xml version="1.0" encoding="UTF-8" standalone="no"?>
<svg xmlns:xlink="http://www.w3.org/1999/xlink" height="39.7px" width="59.1px" xmlns="http://www.w3.org/2000/svg">
  <g transform="matrix(1.0, 0.0, 0.0, 1.0, 29.55, 19.85)">
    <path d="M6.6 -16.1 Q-13.1 -14.1 -25.15 -2.45 -25.15 -4.5 -24.75 -6.65 -24.15 -14.5 -12.1 -19.05 -4.0 -21.6 6.6 -16.1 M23.7 -0.05 Q22.3 -2.7 19.05 -5.0 L17.3 -4.55 Q-10.5 0.55 -18.1 9.0 L-19.1 9.8 -19.1 15.6 Q-21.05 18.25 -25.0 19.75 -30.45 20.5 -29.35 16.4 -27.75 11.0 -23.3 6.15 -14.35 -4.25 13.95 -11.5 L15.45 -11.95 Q26.9 -14.95 28.35 -13.3 32.15 -6.6 23.7 -0.05" fill="#fde9d3" fill-rule="evenodd" stroke="none"/>
  </g>
</svg>
