<?xml version="1.0" encoding="UTF-8" standalone="no"?>
<svg xmlns:xlink="http://www.w3.org/1999/xlink" height="141.9px" width="104.65px" xmlns="http://www.w3.org/2000/svg">
  <g transform="matrix(1.0, 0.0, 0.0, 1.0, 52.35, 70.95)">
    <path d="M52.3 -70.95 Q46.55 -54.9 48.15 -42.8 48.9 -41.6 50.8 -44.85 L50.55 -34.65 Q48.1 -38.2 44.5 -41.05 38.55 -45.85 32.0 -47.55 40.15 -61.85 52.3 -70.95 M-2.6 58.55 Q-7.7 61.4 -12.45 63.15 -19.35 63.35 -25.6 62.05 -32.8 60.55 -39.1 57.15 -35.4 55.8 -32.3 53.75 L-38.35 53.05 -34.35 50.25 -26.9 52.7 -28.85 55.7 -13.8 57.2 -10.8 55.75 Q-7.45 56.75 -1.95 57.0 L-2.6 58.55 -0.05 57.05 -1.95 57.0 -1.45 55.95 Q0.3 54.7 6.4 55.2 9.6 55.15 13.25 56.4 L13.7 55.7 17.2 54.35 22.15 54.15 21.7 62.05 Q18.8 63.3 15.85 62.4 L15.9 63.0 Q15.9 66.85 13.2 66.9 L12.2 67.05 6.55 67.35 -0.15 66.6 Q-2.75 65.9 -2.95 63.7 -3.1 61.8 -2.7 59.3 L-2.6 58.55 M21.65 62.95 Q23.65 61.45 25.95 61.4 29.55 60.1 33.9 60.8 34.8 59.75 37.7 59.3 L41.45 58.8 Q44.9 59.45 45.95 62.45 46.3 66.3 43.8 66.75 L43.65 66.8 39.95 67.2 36.45 66.7 36.45 69.05 Q36.3 70.6 35.3 70.75 L33.5 70.95 27.6 70.6 Q25.25 70.2 23.0 69.3 21.3 68.45 21.45 66.85 L21.65 62.95 M-16.2 23.3 L-29.2 25.2 Q-36.8 7.25 -32.7 -16.75 L-32.2 -17.35 Q-34.05 -1.3 -22.1 10.75 L-16.2 23.3 -12.4 14.8 -11.85 15.0 Q-18.5 3.9 -18.95 -7.25 -17.45 -1.7 -13.05 3.85 -12.95 9.45 -11.35 15.2 -2.55 18.45 1.3 22.1 L-2.8 7.8 -2.15 8.05 7.55 15.35 Q9.3 12.45 12.6 9.95 19.4 12.05 26.05 12.55 L36.3 12.7 40.4 11.25 Q45.95 18.2 44.05 26.95 43.55 23.85 40.1 20.8 42.05 26.2 38.8 30.5 37.55 32.2 35.45 33.7 37.15 31.35 36.65 28.0 30.95 33.95 30.25 39.9 25.8 37.1 26.0 31.4 22.35 34.95 21.9 38.45 13.7 32.05 13.85 24.5 10.65 26.9 10.65 29.6 7.75 25.45 8.55 21.05 7.2 23.65 3.9 26.1 L1.25 27.8 1.0 28.05 Q-5.0 33.45 -5.2 39.7 -5.3 41.65 -4.8 43.65 L-4.4 45.1 -2.7 50.1 Q-6.65 53.2 -12.0 54.05 L-15.3 54.3 Q-24.35 52.3 -32.7 46.95 -27.75 44.95 -21.55 43.1 L-18.05 42.05 -16.55 42.25 -17.3 41.75 -16.2 38.35 -16.2 23.3 M-13.05 3.85 Q-13.15 -2.7 -11.2 -8.9 L-7.45 -4.3 -8.35 -4.55 Q-7.4 -0.5 0.05 4.1 L-2.8 7.8 -13.05 3.85 M-15.5 -63.95 Q-3.45 -57.85 8.0 -46.05 0.15 -35.2 -4.7 -13.7 -4.55 -14.8 -4.75 -16.3 L-4.6 -16.05 Q-2.35 -27.75 -9.75 -38.7 -4.85 -37.8 -2.05 -34.05 -4.85 -52.25 -15.5 -63.95 M-12.4 14.8 L-21.5 11.0 Q-25.35 4.7 -25.65 -1.6 -21.1 6.95 -12.4 14.8 M-35.1 28.95 L-27.85 35.6 -34.85 34.1 -24.35 42.65 -37.25 43.7 Q-44.5 38.0 -52.35 28.75 -46.5 32.6 -37.5 32.55 -43.55 30.3 -45.1 26.95 -40.1 28.8 -35.1 28.95 M-39.25 12.45 L-29.7 25.05 -25.8 33.9 Q-29.05 31.8 -32.1 28.9 L-32.2 28.8 Q-37.75 21.1 -39.25 12.45" fill="#f6bffe" fill-rule="evenodd" stroke="none"/>
  </g>
</svg>
