<?xml version="1.0" encoding="UTF-8" standalone="no"?>
<svg xmlns:xlink="http://www.w3.org/1999/xlink" height="124.35px" width="93.45px" xmlns="http://www.w3.org/2000/svg">
  <g transform="matrix(1.0, 0.0, 0.0, 1.0, 46.75, 62.2)">
    <path d="M-6.25 -40.6 L-5.2 -41.55 Q-3.35 -43.15 -0.8 -44.3 0.35 -44.85 1.6 -45.25 L4.45 -46.15 8.95 -46.55 11.25 -46.45 Q13.0 -55.05 21.55 -61.55 25.55 -63.6 29.15 -59.1 36.3 -46.2 27.05 -36.7 31.1 -32.55 33.0 -27.8 33.75 -25.2 33.85 -22.9 L33.8 -20.4 Q33.3 -15.6 29.8 -11.75 L39.0 -15.6 Q43.6 -17.65 46.25 -14.6 L46.7 -13.0 Q46.85 -11.0 45.0 -9.7 L44.6 -9.5 Q33.75 -2.8 25.5 6.2 25.95 8.45 24.75 10.1 L26.1 11.7 28.1 14.65 Q29.95 17.6 31.2 20.7 31.55 22.85 31.1 24.15 30.7 25.3 29.65 25.95 L27.6 26.2 Q25.8 25.95 24.1 24.1 L24.3 25.95 Q27.25 29.9 27.25 34.85 27.85 42.35 23.4 49.0 28.05 50.85 29.55 54.2 30.05 56.0 29.0 57.0 28.1 57.75 26.15 57.95 L12.55 57.3 13.7 58.7 Q14.15 60.15 13.45 61.0 12.6 62.05 10.25 62.15 1.7 62.3 -6.9 59.7 -11.05 59.4 -13.8 54.5 -17.35 56.5 -21.05 57.55 L-24.55 58.4 -29.85 58.85 -33.55 58.6 -39.05 57.45 -42.05 56.4 Q-51.4 50.5 -42.05 46.9 L-38.8 46.7 -34.3 46.9 -29.4 47.5 -25.15 48.3 -23.75 48.65 -21.9 48.95 Q-19.4 49.15 -18.55 48.4 -18.1 47.95 -18.2 47.15 L-18.7 43.65 -18.9 40.85 Q-18.95 37.7 -18.5 34.6 L-18.2 32.6 -17.55 29.3 -16.0 24.05 Q-15.0 21.0 -13.6 18.1 L-12.25 15.55 Q-10.35 12.1 -7.85 8.95 L-5.85 6.65 Q-4.5 4.75 -3.9 3.35 -1.9 -0.95 -3.45 -5.1 -6.15 -6.55 -8.15 -8.35 -10.75 -10.75 -12.05 -13.7 -14.1 -18.35 -12.45 -24.45 -19.25 -24.35 -23.65 -28.4 L-25.95 -31.0 Q-31.55 -40.2 -25.95 -46.8 -23.6 -49.65 -15.5 -46.8 -10.4 -44.55 -6.25 -40.6 M26.1 -33.65 L24.75 -33.7 Q22.7 -32.4 23.7 -28.2 L23.85 -27.8 Q24.15 -26.6 24.8 -24.75 25.45 -22.95 26.65 -22.25 L27.55 -22.15 27.75 -22.15 Q31.9 -22.05 31.1 -29.3 29.4 -33.0 26.1 -33.65 M0.4 -28.25 Q-3.0 -28.5 -4.75 -22.5 L-4.65 -22.2 Q-1.7 -11.8 4.5 -16.0 5.6 -16.4 5.75 -18.5 6.2 -20.65 5.65 -22.95 L5.3 -24.05 4.35 -26.35 Q2.15 -28.65 0.4 -28.25 M16.45 -18.3 Q17.0 -14.45 18.4 -13.85 19.9 -13.2 20.65 -15.05 21.4 -16.9 20.5 -19.15 19.7 -18.95 18.6 -19.7 17.9 -18.5 16.45 -18.3" fill="#fddbb3" fill-rule="evenodd" stroke="none"/>
  </g>
</svg>
