<?xml version="1.0" encoding="UTF-8" standalone="no"?>
<svg xmlns:xlink="http://www.w3.org/1999/xlink" height="76.5px" width="42.45px" xmlns="http://www.w3.org/2000/svg">
  <g transform="matrix(1.0, 0.0, 0.0, 1.0, 21.2, 38.25)">
    <path d="M21.25 -34.05 Q11.55 -26.45 17.35 -26.95 16.35 -23.5 18.25 -22.4 20.25 -18.95 20.3 -15.45 20.3 -13.65 19.85 -11.85 18.5 -8.35 16.45 -6.1 14.15 -3.75 10.95 -2.9 21.65 -2.1 12.05 1.55 L10.85 1.95 Q11.1 18.2 4.45 26.6 -3.45 35.9 -12.9 38.25 -15.9 33.25 -18.1 26.2 -21.6 14.45 -19.05 1.75 L-18.1 -2.5 Q-23.5 -7.7 -18.8 -7.0 -16.7 -6.75 -12.4 -5.15 -18.75 -8.05 -20.65 -14.75 L-20.9 -15.65 Q-21.35 -17.25 -21.1 -19.15 -20.6 -22.8 -17.7 -27.45 L-17.85 -27.7 Q-13.6 -27.45 -14.65 -31.55 -10.75 -30.85 -17.2 -37.55 -16.1 -39.85 -8.15 -34.5 -5.7 -35.65 -3.4 -36.15 L-6.0 -32.25 -1.85 -33.15 -1.35 -30.3 2.35 -32.0 4.6 -29.3 6.05 -32.0 10.45 -31.15 11.2 -32.9 Q18.3 -34.6 21.25 -34.05 M12.3 -19.65 Q12.3 -20.7 11.85 -21.45 11.5 -22.2 10.85 -22.2 10.2 -22.2 9.8 -21.45 9.35 -20.7 9.35 -19.65 9.35 -18.65 9.8 -17.85 10.2 -17.1 10.85 -17.1 11.5 -17.1 11.85 -17.85 12.3 -18.65 12.3 -19.65 M-2.75 -16.9 Q-2.5 -10.85 0.05 -13.55 1.15 -15.25 0.8 -16.9 0.05 -16.9 -0.7 -18.3 -1.75 -16.6 -2.75 -16.9 M-10.7 -21.5 Q-10.7 -22.6 -11.15 -23.35 -11.6 -24.15 -12.2 -24.15 -12.85 -24.15 -13.3 -23.35 -13.75 -22.6 -13.75 -21.5 -13.75 -20.4 -13.3 -19.65 -12.85 -18.85 -12.2 -18.85 -11.6 -18.85 -11.15 -19.65 -10.7 -20.4 -10.7 -21.5" fill="#feb3c4" fill-rule="evenodd" stroke="none"/>
    <path d="M-2.75 -16.9 Q-1.75 -16.6 -0.7 -18.3 0.05 -16.9 0.8 -16.9 1.15 -15.25 0.05 -13.55 -2.5 -10.85 -2.75 -16.9" fill="#f8dfe8" fill-rule="evenodd" stroke="none"/>
  </g>
</svg>
