<?xml version="1.0" encoding="UTF-8" standalone="no"?>
<svg xmlns:xlink="http://www.w3.org/1999/xlink" height="12.6px" width="114.85px" xmlns="http://www.w3.org/2000/svg">
  <g transform="matrix(1.0, 0.0, 0.0, 1.0, 57.45, 6.3)">
    <path d="M49.65 -0.55 Q49.65 0.15 49.25 0.6 L48.1 0.95 Q47.45 0.95 46.95 0.6 46.5 0.15 46.5 -0.55 46.5 -1.15 46.95 -1.6 47.45 -2.0 48.1 -2.0 48.75 -2.0 49.25 -1.6 49.65 -1.15 49.65 -0.55 M57.4 -1.35 Q57.4 -0.7 56.85 -0.3 56.3 0.2 55.5 0.2 54.7 0.2 54.05 -0.3 53.5 -0.7 53.5 -1.35 53.5 -2.1 54.05 -2.5 L55.5 -2.95 56.85 -2.5 Q57.4 -2.1 57.4 -1.35 M46.95 5.2 L46.6 5.9 Q46.2 6.3 45.55 6.3 45.0 6.3 44.6 5.9 44.15 5.6 44.15 5.2 44.15 4.75 44.6 4.45 45.0 4.1 45.55 4.1 46.2 4.1 46.6 4.45 46.95 4.75 46.95 5.2 M-54.65 -4.4 Q-54.65 -3.55 -55.1 -3.0 -55.4 -2.45 -56.1 -2.45 -56.65 -2.45 -57.0 -3.0 -57.45 -3.55 -57.45 -4.4 -57.45 -5.25 -57.0 -5.8 -56.65 -6.3 -56.1 -6.3 -55.4 -6.3 -55.1 -5.8 -54.65 -5.25 -54.65 -4.4 M-46.1 -3.0 Q-46.1 -2.15 -46.8 -1.5 -47.45 -0.95 -48.4 -0.95 -49.4 -0.95 -50.0 -1.5 -50.7 -2.15 -50.7 -3.0 -50.7 -3.9 -50.0 -4.5 -49.4 -5.05 -48.4 -5.05 -47.45 -5.05 -46.8 -4.5 -46.1 -3.9 -46.1 -3.0 M-43.25 3.15 Q-43.25 3.8 -43.8 4.35 -44.35 4.85 -45.25 4.85 -46.05 4.85 -46.65 4.35 -47.2 3.8 -47.2 3.15 -47.2 2.45 -46.65 1.9 -46.05 1.4 -45.25 1.4 -44.35 1.4 -43.8 1.9 -43.25 2.45 -43.25 3.15" fill="#beb5b7" fill-rule="evenodd" stroke="none"/>
  </g>
</svg>
