<?xml version="1.0" encoding="UTF-8" standalone="no"?>
<svg xmlns:xlink="http://www.w3.org/1999/xlink" height="84.0px" width="93.45px" xmlns="http://www.w3.org/2000/svg">
  <g transform="matrix(1.0, 0.0, 0.0, 1.0, 46.7, 42.0)">
    <path d="M9.15 -14.3 Q9.15 -13.3 8.75 -12.6 8.35 -11.9 7.8 -11.9 7.2 -11.9 6.85 -12.6 6.45 -13.3 6.45 -14.3 6.45 -15.35 6.85 -16.05 7.2 -16.75 7.8 -16.75 8.35 -16.75 8.75 -16.05 9.15 -15.35 9.15 -14.3 M1.05 -9.7 Q1.05 -8.95 0.45 -8.45 -0.05 -7.85 -0.8 -7.85 -1.6 -7.85 -2.15 -8.45 -2.7 -8.95 -2.7 -9.7 -2.7 -10.5 -2.15 -11.05 -1.6 -11.55 -0.8 -11.55 -0.05 -11.55 0.45 -11.05 1.05 -10.5 1.05 -9.7 M-8.15 -13.5 Q-8.15 -12.55 -8.6 -11.85 -9.05 -11.2 -9.65 -11.2 -10.3 -11.2 -10.7 -11.85 -11.15 -12.55 -11.15 -13.5 -11.15 -14.45 -10.7 -15.1 -10.3 -15.8 -9.65 -15.8 -9.05 -15.8 -8.6 -15.1 -8.15 -14.45 -8.15 -13.5" fill="#000000" fill-rule="evenodd" stroke="none"/>
    <path d="M17.65 -38.2 Q17.65 -37.05 16.8 -36.2 15.95 -35.4 14.8 -35.4 13.6 -35.4 12.8 -36.2 12.0 -37.05 12.0 -38.2 12.0 -39.35 12.8 -40.2 13.6 -41.0 14.8 -41.0 15.95 -41.0 16.8 -40.2 17.65 -39.35 17.65 -38.2 M15.9 -31.5 Q15.9 -29.75 14.7 -28.55 13.5 -27.35 11.75 -27.35 9.95 -27.35 8.75 -28.55 7.55 -29.75 7.55 -31.5 7.55 -33.2 8.75 -34.5 9.95 -35.7 11.75 -35.7 13.5 -35.7 14.7 -34.5 15.9 -33.2 15.9 -31.5 M12.2 -5.35 L12.25 -5.45 Q13.6 -7.6 14.0 -10.8 15.7 -19.7 10.3 -26.6 1.55 -35.25 -9.05 -28.3 -15.7 -22.1 -16.1 -16.0 -16.75 -11.0 -14.95 -6.0 L-11.35 -2.65 Q0.6 6.95 11.9 -5.0 L12.2 -5.35 M11.9 -5.0 Q17.25 -1.55 18.25 3.3 35.15 -2.5 44.85 -19.05 46.7 -22.25 44.85 -22.5 25.1 -19.55 12.25 -5.45 M-2.8 7.0 Q-10.7 11.25 -11.35 5.15 -21.75 8.55 -11.55 11.5 -9.95 11.75 -9.25 13.25 -8.8 14.15 -8.7 15.5 L-8.55 18.2 Q-8.15 22.0 -7.15 25.3 -6.4 27.95 -5.15 30.25 -3.45 33.65 -0.8 36.35 9.2 45.65 12.95 36.35 L13.3 33.7 13.5 28.35 13.15 23.9 Q12.8 20.6 11.95 17.55 L11.65 16.4 Q11.3 14.75 12.0 13.4 12.7 12.0 14.45 10.85 L16.15 9.85 Q20.7 7.95 16.15 5.65 L14.2 4.8 Q13.3 7.55 10.4 5.55 7.6 11.3 3.85 7.0 -0.95 11.8 -2.8 7.0 M14.2 4.8 L14.45 3.55 Q16.85 4.5 18.25 3.3 27.8 2.95 35.4 6.55 27.0 14.5 14.45 10.85 M-12.9 -36.55 Q-12.9 -35.45 -13.65 -34.75 -14.35 -34.0 -15.45 -34.0 -16.45 -34.0 -17.15 -34.75 -17.95 -35.45 -17.95 -36.55 -17.95 -37.55 -17.15 -38.25 -16.45 -39.05 -15.45 -39.05 -14.35 -39.05 -13.65 -38.25 -12.9 -37.55 -12.9 -36.55 M-9.15 -30.1 Q-9.15 -28.35 -10.35 -27.15 -11.55 -25.95 -13.3 -25.95 -14.95 -25.95 -16.2 -27.15 -17.45 -28.35 -17.45 -30.1 -17.45 -31.75 -16.2 -33.05 -14.95 -34.25 -13.3 -34.25 -11.55 -34.25 -10.35 -33.05 -9.15 -31.75 -9.15 -30.1 M-11.55 11.5 L-12.85 11.5 Q-28.55 15.0 -36.4 7.0 -31.75 2.95 -20.1 3.0 -38.25 -0.95 -45.7 -21.15 -27.65 -20.05 -14.95 -6.0 M-11.35 -2.65 Q-21.5 4.45 -11.35 5.15" fill="none" stroke="#583227" stroke-linecap="round" stroke-linejoin="round" stroke-width="2.0"/>
  </g>
</svg>
