<?xml version="1.0" encoding="UTF-8" standalone="no"?>
<svg xmlns:xlink="http://www.w3.org/1999/xlink" height="106.75px" width="55.75px" xmlns="http://www.w3.org/2000/svg">
  <g transform="matrix(1.0, 0.0, 0.0, 1.0, 27.9, 53.4)">
    <path d="M18.8 7.55 Q14.65 9.15 8.65 9.5 L3.2 9.55 -4.05 9.2 Q-10.25 8.15 -13.25 4.65 L-13.45 4.4 Q-17.8 -1.15 -18.5 -3.0 -21.0 -9.8 -18.45 -16.85 -15.7 -23.4 -16.95 -30.8 -17.65 -36.1 -23.85 -39.5 -28.65 -42.1 -27.75 -49.45 -17.2 -44.6 -9.55 -37.35 -6.7 -33.6 -5.55 -27.55 1.6 -31.8 11.05 -27.55 13.5 -38.35 3.3 -47.65 1.35 -50.55 3.3 -53.4 4.85 -49.3 12.8 -47.15 20.7 -44.5 20.6 -31.1 19.65 -23.65 22.55 -18.1 27.35 -13.1 27.8 -5.9 L27.8 -2.55 Q26.55 4.6 18.8 7.55 M-4.05 9.2 Q-4.95 20.5 2.5 26.7 7.0 22.65 9.3 13.45 10.35 16.15 13.2 17.0 16.35 18.45 18.35 20.1 17.8 29.2 22.45 36.8 24.8 41.5 23.9 46.15 22.5 49.95 20.2 46.15 15.9 41.4 11.2 43.95 7.6 46.25 4.1 45.3 1.0 45.4 -0.35 50.2 -3.15 56.5 -6.5 50.2 -12.8 36.15 -13.35 17.7 -6.5 16.3 -4.05 9.2" fill="#cfffee" fill-rule="evenodd" stroke="none"/>
    <path d="M18.8 7.55 Q23.8 8.85 25.5 11.1 L20.95 14.5 Q20.5 11.0 18.8 7.55 M-13.25 4.65 Q-14.55 8.3 -15.05 11.75 -18.55 11.0 -19.9 7.0 -17.95 5.05 -13.25 4.65" fill="#c6f5eb" fill-rule="evenodd" stroke="none"/>
  </g>
</svg>
