<?xml version="1.0" encoding="UTF-8" standalone="no"?>
<svg xmlns:xlink="http://www.w3.org/1999/xlink" height="115.65px" width="92.15px" xmlns="http://www.w3.org/2000/svg">
  <g transform="matrix(1.0, 0.0, 0.0, 1.0, 46.1, 57.85)">
    <path d="M10.15 -8.55 Q11.95 -6.85 13.8 -7.15 14.95 -2.35 10.35 -2.5 9.9 -3.95 9.9 -5.8 9.9 -7.3 10.15 -8.55 M-11.75 -8.95 Q-10.85 -4.85 -12.7 -4.2 -14.75 -4.35 -14.45 -9.05 L-11.75 -8.95" fill="#000000" fill-rule="evenodd" stroke="none"/>
    <path d="M0.6 -49.95 L1.3 -50.5 Q2.35 -51.55 2.35 -53.15 2.35 -54.7 1.3 -55.85 0.2 -56.85 -1.35 -56.85 -2.95 -56.85 -4.0 -55.85 -5.1 -54.7 -5.1 -53.15 -5.1 -51.55 -4.0 -50.5 -2.95 -49.45 -1.35 -49.45 -0.3 -49.45 0.6 -49.95 2.15 -45.85 10.1 -43.7 18.0 -41.05 17.9 -27.65 16.95 -20.2 19.85 -14.65 24.65 -9.65 25.1 -2.45 43.7 -13.15 39.8 0.5 38.5 4.8 34.25 5.4 49.75 3.85 43.0 13.15 35.7 20.65 24.65 19.5 21.0 19.4 18.25 18.0 18.8 21.7 17.65 25.5 16.85 24.45 15.65 23.55 15.1 32.65 19.75 40.25 22.1 44.95 21.2 49.6 19.8 53.4 17.5 49.6 13.2 44.85 8.5 47.4 4.9 49.7 1.4 48.75 -1.7 48.85 -3.05 53.65 -5.85 59.95 -9.2 53.65 -15.5 39.6 -16.05 21.15 L-18.05 21.45 -18.05 18.0 Q-29.25 20.5 -37.95 16.05 -52.2 5.55 -37.95 3.15 -40.45 1.0 -40.75 -1.85 -39.85 -14.55 -21.2 0.45 -23.7 -6.35 -21.15 -13.4 -18.4 -19.95 -19.65 -27.35 -20.35 -32.65 -26.55 -36.05 -31.35 -38.65 -30.45 -46.0 -31.25 -45.55 -32.25 -45.55 -33.85 -45.55 -35.0 -46.7 -36.15 -47.9 -36.15 -49.5 -36.15 -51.1 -35.0 -52.25 -33.85 -53.45 -32.25 -53.45 -30.6 -53.45 -29.45 -52.25 -28.3 -51.1 -28.3 -49.5 -28.3 -47.9 -29.45 -46.7 -29.9 -46.25 -30.45 -46.0 -19.9 -41.15 -12.25 -33.9 -9.4 -30.15 -8.25 -24.1 -1.1 -28.35 8.35 -24.1 10.8 -34.9 0.6 -44.2 -1.35 -47.1 0.6 -49.95 M3.95 -0.65 Q3.0 -0.85 2.1 -1.9 0.9 -0.65 0.0 -0.9 L0.0 1.65 Q0.45 4.15 2.3 3.55 4.2 2.95 3.95 -0.65 5.2 -0.45 6.45 -1.9 M19.25 -7.35 Q17.95 -13.55 13.2 -11.95 L13.05 -12.0 Q11.7 -12.0 10.8 -10.2 L10.15 -8.55 Q9.9 -7.3 9.9 -5.8 9.9 -3.95 10.35 -2.5 L10.8 -1.4 Q11.7 0.4 13.05 0.4 14.3 0.4 15.25 -1.4 16.15 -3.25 16.15 -5.8 L15.9 -8.25 M18.25 18.0 L18.25 17.95 Q17.8 14.45 16.1 11.0 11.95 12.6 5.95 12.95 5.95 15.25 6.6 16.9 7.65 19.6 10.5 20.45 13.65 21.9 15.65 23.55 M-21.2 0.45 Q-20.5 2.3 -16.15 7.85 L-15.95 8.1 Q-12.95 11.6 -6.75 12.65 L0.5 13.0 5.95 12.95 M25.1 -2.45 L25.1 0.9 Q23.85 8.05 16.1 11.0 21.1 12.3 22.8 14.55 L18.25 17.95 M-7.3 -10.3 Q-8.05 -15.65 -12.95 -14.65 -14.3 -14.65 -15.2 -12.6 L-16.05 -9.85 -16.15 -7.65 Q-16.15 -4.75 -15.2 -2.7 -14.3 -0.65 -12.95 -0.65 -11.7 -0.65 -10.75 -2.7 -9.85 -4.75 -9.85 -7.65 L-9.95 -9.85 M-15.95 8.1 Q-17.25 11.75 -17.75 15.2 L-18.05 18.0 M-16.05 21.15 Q-9.2 19.75 -6.75 12.65 -7.65 23.95 -0.2 30.15 4.3 26.1 6.6 16.9 M-37.95 3.15 Q-36.45 4.45 -34.15 5.4 M-15.95 8.1 Q-20.65 8.5 -22.6 10.45 -21.25 14.45 -17.75 15.2 M0.0 -0.9 Q-0.65 -1.15 -1.1 -2.05" fill="none" stroke="#33483f" stroke-linecap="round" stroke-linejoin="round" stroke-width="2.0"/>
  </g>
</svg>
