<?xml version="1.0" encoding="UTF-8" standalone="no"?>
<svg xmlns:xlink="http://www.w3.org/1999/xlink" height="104.0px" width="103.6px" xmlns="http://www.w3.org/2000/svg">
  <g transform="matrix(1.0, 0.0, 0.0, 1.0, 51.8, 52.0)">
    <path d="M26.9 -25.05 Q26.9 -26.35 27.45 -27.4 28.0 -28.3 28.8 -28.3 29.55 -28.3 30.05 -27.4 30.65 -26.35 30.65 -25.05 30.65 -23.7 30.05 -22.75 29.55 -21.75 28.8 -21.75 28.0 -21.75 27.45 -22.75 26.9 -23.7 26.9 -25.05" fill="#514c77" fill-rule="evenodd" stroke="none"/>
    <path d="M14.2 -45.3 L15.0 -43.05 17.1 -43.05 22.3 -43.3 Q23.85 -48.6 17.9 -50.95 13.3 -51.4 14.2 -45.3 M15.0 -43.05 Q11.55 -47.5 6.75 -46.75 4.25 -46.15 3.4 -44.25 11.85 -41.45 10.9 -38.1 L8.6 -33.85 Q5.1 -27.4 7.65 -17.7 10.65 -7.6 7.5 2.1 1.55 10.15 -2.15 18.6 -3.4 21.85 -3.85 25.55 -4.55 31.0 -1.5 36.2 0.6 39.8 4.5 42.95 5.35 47.35 8.45 49.4 13.5 52.25 22.25 50.1 24.75 48.95 25.35 47.8 26.55 45.4 19.4 43.25 L22.4 41.25 Q26.35 32.75 22.4 24.3 M3.4 -44.25 Q2.35 -41.65 4.5 -36.4 6.1 -33.9 8.6 -33.85 M22.3 -43.3 Q41.4 -43.15 43.65 -27.35 43.0 -14.85 30.5 -10.6 27.7 -8.55 32.05 -2.25 36.45 -3.7 39.9 -3.75 40.55 -7.7 43.35 -7.85 45.4 -6.65 44.1 -3.3 49.1 -1.85 50.8 4.1 50.7 5.75 49.3 6.0 47.7 15.7 39.4 17.75 36.0 18.55 33.55 15.85 30.65 12.7 29.6 6.4 28.85 7.5 29.5 10.25 32.95 29.85 23.9 39.75 34.25 45.1 25.35 47.8 M32.05 -2.25 L32.05 -2.15 Q37.0 3.7 46.7 5.7 L49.3 6.0 M39.9 -3.75 L44.1 -3.3 M32.05 -2.15 L34.9 1.5 Q39.55 8.35 31.85 5.8 30.25 5.5 29.6 6.4 M23.9 39.75 L22.4 41.25 M-1.5 36.2 Q-22.5 42.5 -28.15 30.65 -31.4 22.95 -30.55 15.25 -40.4 19.7 -44.95 15.25 -51.25 9.0 -50.75 2.35 -50.95 -5.85 -46.25 -11.15 -39.8 -16.85 -31.5 -16.0 -21.05 -13.85 -15.95 -7.4 -11.65 -1.85 -11.15 4.2 -9.4 11.05 -9.15 17.9 -7.45 23.75 -3.85 25.55 M-39.55 -1.2 Q-24.6 -7.1 -24.3 3.05 -23.9 12.95 -30.55 15.25" fill="none" stroke="#514c77" stroke-linecap="round" stroke-linejoin="round" stroke-width="2.0"/>
  </g>
</svg>
