<?xml version="1.0" encoding="UTF-8" standalone="no"?>
<svg xmlns:xlink="http://www.w3.org/1999/xlink" height="133.35px" width="110.45px" xmlns="http://www.w3.org/2000/svg">
  <g transform="matrix(1.0, 0.0, 0.0, 1.0, 55.25, 66.7)">
    <path d="M32.2 -36.15 Q34.2 -35.55 36.5 -33.6 38.05 -29.8 36.5 -26.55 34.6 -23.8 33.0 -23.75 L32.5 -23.85 32.4 -23.85 Q31.2 -24.3 30.2 -26.55 28.5 -32.1 32.2 -36.15" fill="#4d466d" fill-rule="evenodd" stroke="none"/>
    <path d="M21.55 -51.55 Q27.35 -53.55 33.2 -52.7 27.3 -61.5 18.7 -65.6 14.9 -66.9 16.15 -53.75 L21.55 -51.55 M33.2 -52.7 L37.6 -51.55 38.3 -51.2 45.0 -56.2 44.1 -47.2 Q48.85 -42.65 50.45 -35.25 L53.8 -31.6 Q55.55 -21.25 49.15 -17.05 44.95 -13.25 36.4 -12.5 33.2 1.55 36.4 13.0 36.95 17.45 36.1 21.4 42.7 27.6 43.4 35.25 42.55 40.65 39.25 44.1 36.8 46.5 33.2 48.0 29.65 48.6 27.55 43.25 28.45 47.15 30.05 50.65 31.5 53.45 32.35 56.3 33.1 58.75 33.3 61.4 28.65 65.75 22.05 61.4 L19.75 55.9 Q16.6 48.15 13.65 40.0 7.3 38.2 1.4 38.4 -1.2 41.8 1.4 45.25 L2.85 47.6 Q5.7 52.5 3.25 52.95 -2.25 54.9 -6.1 50.3 L-8.2 47.4 Q-9.95 44.65 -10.95 41.9 L-11.65 42.5 Q-13.2 44.1 -11.65 46.55 L-6.8 55.85 -5.85 57.55 Q-3.85 60.35 -7.3 63.2 -11.6 65.55 -16.85 63.2 L-21.05 56.85 Q-23.45 52.6 -25.4 47.6 L-23.85 42.15 Q-26.55 39.55 -28.25 36.4 -26.2 52.25 -33.3 60.6 -38.1 66.25 -45.75 65.55 L-41.3 59.45 Q-47.55 64.6 -54.25 63.95 -50.1 62.05 -46.95 58.65 -36.5 48.7 -49.65 28.65 -50.7 20.75 -41.65 13.35 L-52.6 18.55 -47.8 11.9 Q-39.9 3.15 -26.75 9.55 -23.6 6.85 -18.25 6.0 L-24.8 2.25 Q-33.7 -2.3 -26.3 -7.2 -43.35 -18.55 -23.35 -17.15 L-27.9 -22.0 Q-42.7 -41.95 -20.0 -29.1 L-17.9 -27.7 -17.65 -30.35 Q-17.1 -40.85 -5.65 -30.35 -4.65 -39.15 4.3 -44.65 L2.15 -49.05 Q-1.05 -55.5 0.65 -58.3 3.3 -59.75 16.15 -53.75 M36.5 -33.6 Q34.2 -35.55 32.2 -36.15 29.3 -37.05 27.2 -34.5 L26.5 -33.6 M4.3 -44.65 L6.8 -40.95 Q1.25 -24.2 11.45 -15.85 22.45 -5.85 25.25 4.1 L27.75 13.0 Q24.9 5.5 19.15 0.9 24.25 15.3 19.15 27.75 15.5 14.7 9.05 9.25 5.4 6.15 2.7 2.8 -2.7 6.2 -10.65 5.7 L-18.25 6.0 M13.2 -47.85 Q10.25 -52.1 7.85 -52.1 7.4 -48.9 9.3 -45.7 12.0 -45.15 13.2 -47.85 M36.4 -12.5 L31.95 -12.4 M46.85 -19.65 Q43.9 -18.45 43.25 -21.0 M38.3 -51.2 Q41.6 -49.55 44.1 -47.2 M13.65 40.0 L10.9 32.2 Q9.15 28.0 9.3 23.85 M36.1 21.4 Q34.9 27.05 30.8 31.5 34.6 33.6 32.4 35.25 L30.5 36.6 Q31.45 41.2 39.25 44.1 M30.8 31.5 L30.0 32.4 26.75 35.2 Q26.75 37.2 26.9 39.05 L30.5 36.6 M26.9 39.05 L27.55 43.25 M28.15 23.85 Q26.75 29.8 26.75 35.2 M32.35 56.3 Q26.1 58.7 19.75 55.9 M-5.65 -30.35 Q-5.9 -28.4 -5.8 -26.45 -5.4 -21.45 -2.6 -17.7 0.75 -13.2 7.3 -10.4 M-17.9 -27.7 Q-10.7 -22.55 -4.5 -14.35 -4.75 -16.25 -2.6 -17.7 M-26.75 9.55 Q-30.7 13.0 -31.05 19.35 -32.1 29.4 -28.25 36.4 M-10.95 41.9 Q-9.75 40.8 -8.35 40.3 -2.2 32.7 -4.9 25.3 M-24.8 2.25 Q-12.5 5.95 -9.15 0.9 -6.35 -7.2 -13.5 -2.1 M-6.8 55.85 Q-13.0 59.35 -21.05 56.85 M1.4 38.4 Q-3.65 38.55 -8.35 40.3 M2.85 47.6 Q-2.9 49.45 -8.2 47.4 M2.7 2.8 Q-3.8 -5.3 -4.5 -14.35" fill="none" stroke="#4d466d" stroke-linecap="round" stroke-linejoin="round" stroke-width="2.0"/>
    <path d="M32.2 -36.15 Q28.5 -32.1 30.2 -26.55 31.2 -24.3 32.4 -23.85 L32.5 -23.85 M33.0 -23.75 Q34.6 -23.8 36.5 -26.55 38.05 -29.8 36.5 -33.6" fill="none" stroke="#4d466d" stroke-linecap="round" stroke-linejoin="round" stroke-width="0.1"/>
    <path d="M32.5 -23.85 L33.0 -23.75" fill="none" stroke="#4d466d" stroke-linecap="round" stroke-linejoin="round" stroke-width="0.05"/>
  </g>
</svg>
