<?xml version="1.0" encoding="UTF-8" standalone="no"?>
<svg xmlns:xlink="http://www.w3.org/1999/xlink" height="95.2px" width="53.55px" xmlns="http://www.w3.org/2000/svg">
  <g transform="matrix(1.0, 0.0, 0.0, 1.0, 26.8, 47.6)">
    <path d="M22.3 -45.85 Q22.3 -45.15 21.05 -44.65 L17.9 -44.15 Q16.05 -44.15 14.75 -44.65 13.5 -45.15 13.5 -45.85 13.5 -46.55 14.75 -47.15 L17.9 -47.6 21.05 -47.15 Q22.3 -46.55 22.3 -45.85 M26.75 -39.45 Q26.75 -38.65 26.0 -38.05 25.2 -37.5 24.1 -37.5 22.95 -37.5 22.1 -38.05 21.35 -38.65 21.35 -39.45 21.35 -40.25 22.1 -40.85 22.95 -41.4 24.1 -41.4 25.2 -41.4 26.0 -40.85 26.75 -40.25 26.75 -39.45 M5.85 -39.85 Q5.85 -39.1 5.2 -38.5 4.55 -38.0 3.6 -38.0 2.7 -38.0 2.05 -38.5 1.4 -39.1 1.4 -39.85 1.4 -40.6 2.05 -41.1 2.7 -41.7 3.6 -41.7 4.55 -41.7 5.2 -41.1 5.85 -40.6 5.85 -39.85 M7.85 -31.6 Q7.85 -30.8 7.35 -30.2 6.9 -29.55 6.2 -29.55 5.55 -29.55 5.05 -30.2 4.6 -30.8 4.6 -31.6 4.6 -32.35 5.05 -33.0 5.55 -33.6 6.2 -33.6 6.9 -33.6 7.35 -33.0 7.85 -32.35 7.85 -31.6 M8.55 -19.6 Q8.55 -18.6 8.0 -17.8 7.4 -17.05 6.6 -17.05 5.75 -17.05 5.2 -17.8 4.6 -18.6 4.6 -19.6 4.6 -20.7 5.2 -21.45 5.75 -22.2 6.6 -22.2 7.4 -22.2 8.0 -21.45 8.55 -20.7 8.55 -19.6 M10.3 6.05 Q10.3 6.85 9.6 7.35 8.9 7.85 7.95 7.85 6.95 7.85 6.25 7.35 5.55 6.85 5.55 6.05 5.55 5.35 6.25 4.85 6.95 4.35 7.95 4.35 8.9 4.35 9.6 4.85 10.3 5.35 10.3 6.05 M-1.4 -0.2 L-0.55 -0.3 Q0.65 -0.3 1.5 0.75 2.4 1.85 2.4 3.4 2.4 4.9 1.5 5.95 0.65 7.1 -0.55 7.1 -1.8 7.1 -2.65 5.95 -3.3 5.2 -3.5 4.15 L-3.3 3.9 Q-1.85 1.85 -1.4 -0.2 M7.3 18.15 Q7.3 19.4 6.4 20.25 5.5 21.15 4.25 21.15 2.95 21.15 2.05 20.25 1.15 19.4 1.15 18.15 1.15 16.95 2.05 16.05 2.95 15.2 4.25 15.2 5.5 15.2 6.4 16.05 7.3 16.95 7.3 18.15 M-2.3 -26.25 Q-2.3 -25.1 -2.8 -24.25 -3.25 -23.45 -3.9 -23.45 -4.6 -23.45 -5.05 -24.25 -5.5 -25.1 -5.5 -26.25 -5.5 -27.45 -5.05 -28.3 -4.6 -29.1 -3.9 -29.1 -3.25 -29.1 -2.8 -28.3 -2.3 -27.45 -2.3 -26.25 M-4.85 -10.0 L-4.95 -11.25 Q-4.95 -12.65 -4.35 -13.6 -3.7 -14.6 -2.8 -14.6 -1.85 -14.6 -1.2 -13.6 -0.55 -12.65 -0.55 -11.25 -0.55 -9.9 -1.2 -8.95 -1.85 -7.9 -2.8 -7.9 L-3.2 -8.0 -4.85 -10.0 M-3.75 13.75 Q-3.75 14.5 -4.5 15.15 -5.3 15.7 -6.3 15.7 -7.4 15.7 -8.15 15.15 -8.95 14.5 -8.95 13.75 -8.95 12.9 -8.15 12.35 -7.4 11.7 -6.3 11.7 -5.3 11.7 -4.5 12.35 -3.75 12.9 -3.75 13.75 M-15.95 22.85 Q-15.95 23.7 -16.55 24.3 -17.1 24.85 -18.0 24.85 -18.85 24.85 -19.45 24.3 -20.05 23.7 -20.05 22.85 -20.05 22.05 -19.45 21.45 -18.85 20.9 -18.0 20.9 -17.1 20.9 -16.55 21.45 -15.95 22.05 -15.95 22.85 M-20.5 32.3 Q-20.5 32.95 -21.15 33.45 -21.7 33.9 -22.6 33.9 -23.5 33.9 -24.05 33.45 -24.7 32.95 -24.7 32.3 -24.7 31.6 -24.05 31.15 L-22.6 30.75 Q-21.7 30.75 -21.15 31.15 -20.5 31.6 -20.5 32.3 M-18.75 40.55 Q-18.75 41.15 -19.35 41.5 L-20.55 41.95 -21.9 41.5 Q-22.4 41.15 -22.4 40.55 -22.4 40.0 -21.9 39.6 -21.3 39.2 -20.55 39.2 -19.85 39.2 -19.35 39.6 -18.75 40.0 -18.75 40.55 M-23.8 45.4 Q-23.8 46.3 -24.25 46.95 -24.7 47.6 -25.35 47.6 L-26.35 46.95 Q-26.8 46.3 -26.8 45.4 -26.8 44.5 -26.35 43.9 -25.9 43.25 -25.35 43.25 -24.7 43.25 -24.25 43.9 -23.8 44.5 -23.8 45.4 M-10.55 31.0 Q-10.55 32.0 -11.1 32.7 -11.6 33.45 -12.4 33.45 -13.15 33.45 -13.7 32.7 -14.25 32.0 -14.25 31.0 -14.25 29.95 -13.7 29.2 -13.15 28.5 -12.4 28.5 -11.6 28.5 -11.1 29.2 -10.55 29.95 -10.55 31.0" fill="#d7beae" fill-rule="evenodd" stroke="none"/>
  </g>
</svg>
