<?xml version="1.0" encoding="UTF-8" standalone="no"?>
<svg xmlns:xlink="http://www.w3.org/1999/xlink" height="150.65px" width="77.2px" xmlns="http://www.w3.org/2000/svg">
  <g transform="matrix(1.0, 0.0, 0.0, 1.0, 38.6, 75.35)">
    <path d="M12.3 -40.8 Q12.3 -38.75 11.55 -37.35 10.85 -35.95 9.8 -35.95 8.75 -35.95 8.05 -37.35 7.35 -38.75 7.35 -40.8 7.35 -42.75 8.05 -44.15 8.75 -45.55 9.8 -45.55 10.85 -45.55 11.55 -44.15 12.3 -42.75 12.3 -40.8" fill="#543648" fill-rule="evenodd" stroke="none"/>
    <path d="M-3.2 -58.9 Q6.65 -63.25 14.6 -61.85 L14.65 -61.85 17.25 -67.4 Q23.15 -78.45 27.3 -71.9 29.25 -68.95 27.3 -63.0 37.25 -67.95 32.7 -58.35 35.5 -56.55 35.95 -54.9 36.65 -52.3 32.2 -49.65 34.95 -47.55 36.6 -43.8 40.7 -30.45 27.8 -18.95 20.6 -9.6 21.1 3.65 21.35 7.7 20.75 11.7 20.15 16.25 18.4 20.9 18.0 33.5 21.55 43.25 L21.6 43.45 23.05 47.05 19.15 44.55 19.9 48.0 14.85 46.35 15.9 48.75 12.3 44.55 12.45 48.75 7.8 44.55 8.3 49.7 Q5.95 47.4 4.3 44.3 L0.7 45.3 -3.5 45.75 -0.75 49.0 -14.8 49.55 Q-11.85 57.7 -14.6 67.5 -16.45 71.95 -19.25 74.3 -16.15 62.1 -26.1 52.65 -37.1 44.95 -37.5 22.9 -38.45 9.3 -27.4 4.7 -19.2 1.25 -11.1 -8.6 L-10.9 -8.85 Q-9.45 -10.9 -9.0 -12.95 -8.15 -16.85 -10.8 -20.75 L-12.45 -22.75 -13.85 -24.1 Q-20.15 -31.35 -15.7 -42.25 -33.95 -42.0 -22.4 -50.25 -36.9 -58.85 -19.7 -60.35 -23.15 -80.7 -3.2 -58.9 L-7.45 -56.9 M14.65 -61.85 L17.25 -61.15 Q22.6 -59.5 27.05 -54.9 L30.2 -50.95 32.2 -49.65 M26.35 -36.35 Q28.1 -33.25 30.8 -35.25 33.55 -33.25 34.35 -36.2 M-14.35 -45.25 L-15.7 -42.25 M-12.4 15.05 Q-2.2 19.45 -3.3 28.5 -3.95 33.5 -7.9 39.9 L-5.15 40.35 Q-0.95 40.15 1.4 36.1 0.45 31.85 0.4 26.6 0.35 24.55 0.45 22.4 M-22.9 37.65 Q-17.1 43.1 -14.8 49.55 M14.85 46.35 Q11.45 38.3 11.45 29.1 15.9 25.3 18.4 20.9 M1.4 36.1 Q2.4 40.7 4.3 44.3 M-5.15 40.35 Q-0.65 41.5 0.7 45.3" fill="none" stroke="#543648" stroke-linecap="round" stroke-linejoin="round" stroke-width="2.0"/>
  </g>
</svg>
