<?xml version="1.0" encoding="UTF-8" standalone="no"?>
<svg xmlns:xlink="http://www.w3.org/1999/xlink" height="56.0px" width="57.8px" xmlns="http://www.w3.org/2000/svg">
  <g transform="matrix(1.0, 0.0, 0.0, 1.0, 28.9, 28.0)">
    <path d="M-17.8 14.45 Q-20.1 12.0 -25.6 9.6 -36.1 2.4 -13.0 -6.05 -12.35 -12.9 -9.35 -19.85 -0.15 -36.15 8.55 -19.85 11.15 -15.45 11.7 -11.55 33.35 -8.85 27.75 -1.05 L23.0 5.55 Q19.65 9.2 23.3 16.9 27.3 26.7 6.5 21.45 L2.65 20.45 -4.3 25.1 -6.6 26.4 Q-14.6 30.4 -16.0 24.5 -16.5 22.35 -16.2 19.1 -15.6 16.75 -17.8 14.45" fill="#fffab2" fill-rule="evenodd" stroke="none"/>
  </g>
</svg>
