<?xml version="1.0" encoding="UTF-8" standalone="no"?>
<svg xmlns:xlink="http://www.w3.org/1999/xlink" height="18.45px" width="42.45px" xmlns="http://www.w3.org/2000/svg">
  <g transform="matrix(1.0, 0.0, 0.0, 1.0, 21.2, 9.25)">
    <path d="M14.35 -9.2 Q16.8 -8.95 19.6 -7.4 22.1 -3.7 20.8 0.05 18.15 1.45 14.55 1.3 10.9 1.55 8.25 -0.7 L7.4 -1.9 Q4.0 -3.75 1.0 -1.6 0.75 -0.25 -0.15 1.1 -5.9 4.8 -11.7 3.0 L-13.05 1.6 Q-19.55 3.9 -21.15 9.2 -21.4 5.1 -20.25 1.35 -18.3 -1.45 -14.0 -2.45 L-13.4 -4.75 Q-8.4 -10.2 -2.0 -8.1 0.0 -6.4 0.7 -4.6 3.1 -6.3 7.15 -5.25 L8.25 -7.4 Q10.85 -9.6 14.35 -9.2 M17.55 -5.2 L11.05 -5.6 11.05 -2.15 17.75 -1.8 17.55 -5.2 M-3.4 -5.25 L-10.1 -3.65 -9.35 0.25 -2.5 -1.3 -3.4 -5.25" fill="#b0c7e6" fill-rule="evenodd" stroke="none"/>
  </g>
</svg>
