<?xml version="1.0" encoding="UTF-8" standalone="no"?>
<svg xmlns:xlink="http://www.w3.org/1999/xlink" height="3.15px" width="36.85px" xmlns="http://www.w3.org/2000/svg">
  <g transform="matrix(1.0, 0.0, 0.0, 1.0, -11.45, 71.8)">
    <path d="M11.45 -70.15 Q11.45 -70.8 12.15 -71.25 L13.8 -71.7 Q14.85 -71.7 15.55 -71.25 16.25 -70.8 16.25 -70.15 16.25 -69.5 15.55 -69.1 14.85 -68.65 13.8 -68.65 12.85 -68.65 12.15 -69.1 11.45 -69.5 11.45 -70.15 M44.2 -70.55 Q44.2 -71.05 44.8 -71.45 L46.25 -71.8 47.75 -71.45 48.3 -70.55 Q48.3 -70.05 47.75 -69.65 L46.25 -69.25 Q45.35 -69.25 44.8 -69.65 44.2 -70.05 44.2 -70.55" fill="#fce1f6" fill-rule="evenodd" stroke="none"/>
  </g>
</svg>
