<?xml version="1.0" encoding="UTF-8" standalone="no"?>
<svg xmlns:xlink="http://www.w3.org/1999/xlink" height="125.9px" width="107.45px" xmlns="http://www.w3.org/2000/svg">
  <g transform="matrix(1.0, 0.0, 0.0, 1.0, 53.75, 62.95)">
    <path d="M33.75 -29.0 Q33.75 -29.5 34.2 -29.85 L35.15 -30.15 36.2 -29.85 Q36.55 -29.5 36.55 -29.0 36.55 -28.55 36.2 -28.25 35.8 -27.9 35.15 -27.9 34.6 -27.9 34.2 -28.25 33.75 -28.55 33.75 -29.0 M20.1 -32.45 Q20.1 -33.8 20.65 -34.75 21.25 -35.7 22.0 -35.7 22.85 -35.7 23.4 -34.75 23.9 -33.8 23.9 -32.45 23.9 -31.15 23.4 -30.2 22.85 -29.25 22.0 -29.25 21.25 -29.25 20.65 -30.2 20.1 -31.15 20.1 -32.45 M43.7 -32.2 Q43.7 -33.45 44.15 -34.45 44.55 -35.25 45.1 -35.25 45.75 -35.25 46.15 -34.45 L46.6 -32.2 Q46.6 -30.9 46.15 -30.0 45.75 -29.15 45.1 -29.15 44.55 -29.15 44.15 -30.0 43.7 -30.9 43.7 -32.2" fill="#515a66" fill-rule="evenodd" stroke="none"/>
    <path d="M41.6 -56.85 Q44.05 -56.6 46.85 -55.05 49.35 -51.35 48.05 -47.6 50.7 -42.8 49.8 -37.1 L52.0 -31.6 Q54.05 -24.8 49.9 -21.4 36.45 -12.35 36.1 -5.1 36.2 6.9 33.1 15.65 39.95 23.3 42.9 30.9 47.3 38.65 52.7 41.0 37.25 41.4 22.65 30.6 21.25 31.35 19.75 31.4 L17.65 35.75 Q13.4 44.4 12.8 53.35 12.6 57.6 13.2 61.95 7.7 58.95 3.6 54.1 L2.95 53.35 Q-4.75 44.45 -5.0 34.3 -19.25 37.75 -30.95 29.55 -35.4 38.25 -42.75 46.95 -49.3 53.5 -46.45 42.15 L-49.1 43.75 Q-54.15 45.2 -52.2 40.75 -42.45 28.95 -37.0 10.6 -36.0 5.3 -30.2 0.05 -21.3 -8.2 -3.35 -10.65 7.75 -17.7 6.6 -34.8 6.15 -36.65 6.1 -38.45 5.85 -42.55 7.0 -46.3 8.8 -52.1 13.95 -57.1 24.9 -65.9 39.05 -58.75 L41.6 -56.85 Q38.1 -57.25 35.5 -55.05 L34.4 -52.9 Q33.95 -51.65 34.65 -49.55 L35.5 -48.35 Q38.15 -46.1 41.8 -46.35 45.4 -46.2 48.05 -47.6 M7.0 -46.3 Q8.95 -49.1 13.25 -50.1 13.4 -51.15 13.85 -52.4 18.85 -57.85 25.25 -55.75 27.25 -54.05 27.95 -52.25 30.35 -53.95 34.4 -52.9 M34.65 -49.55 Q31.25 -51.4 28.25 -49.25 28.0 -47.9 27.1 -46.55 21.35 -42.85 15.55 -44.65 14.7 -45.3 14.2 -46.05 7.7 -43.75 6.1 -38.45 M38.65 -26.45 Q37.0 -23.3 34.8 -25.95 32.8 -23.95 31.35 -26.05 M13.25 -50.1 Q13.05 -47.8 14.2 -46.05 M27.95 -52.25 Q28.6 -50.8 28.25 -49.25 M23.8 19.85 Q22.4 25.75 19.75 31.4 M33.1 15.65 Q31.0 21.95 27.25 26.65 24.95 29.45 22.65 30.6 M-1.55 19.1 Q-5.2 27.0 -5.0 34.3" fill="none" stroke="#515a66" stroke-linecap="round" stroke-linejoin="round" stroke-width="2.0"/>
    <path d="M44.8 -52.85 L38.3 -53.25 38.3 -49.8 45.0 -49.45 44.8 -52.85 M23.85 -52.9 L17.15 -51.3 17.9 -47.4 24.75 -48.95 23.85 -52.9" fill="none" stroke="#515a66" stroke-linecap="round" stroke-linejoin="round" stroke-width="1.0"/>
  </g>
</svg>
