<?xml version="1.0" encoding="UTF-8" standalone="no"?>
<svg xmlns:xlink="http://www.w3.org/1999/xlink" height="129.95px" width="65.55px" xmlns="http://www.w3.org/2000/svg">
  <g transform="matrix(1.0, 0.0, 0.0, 1.0, 32.75, 65.0)">
    <path d="M9.85 2.45 Q11.4 3.7 14.1 2.7 15.95 -3.75 8.35 -9.25 11.7 -11.55 14.0 -14.95 18.4 0.85 24.7 12.0 34.05 29.4 32.6 47.7 33.2 62.6 26.4 64.85 L25.95 64.95 25.05 64.85 Q20.0 63.8 19.8 56.35 4.3 70.2 8.25 47.7 9.95 41.7 12.15 38.15 17.55 24.0 9.85 2.45 M-10.65 -9.25 Q-7.9 -7.4 -4.55 -6.7 -7.15 0.65 -4.6 6.4 -3.3 17.7 -8.75 29.0 -12.4 41.25 -10.7 46.25 -8.55 50.45 -9.0 54.6 -11.6 69.55 -21.75 57.55 -24.5 64.45 -27.0 64.85 L-27.65 64.85 Q-30.15 64.45 -32.4 57.55 -35.05 37.1 -18.05 15.7 -10.9 6.7 -10.65 -9.25" fill="#ffc3db" fill-rule="evenodd" stroke="none"/>
    <path d="M-7.1 -51.3 Q-5.8 -57.6 3.5 -65.0 14.65 -56.15 5.35 -46.3 2.3 -47.75 -1.15 -48.05 -12.5 -48.1 -17.25 -40.15 -29.1 -41.4 -26.25 -57.1 L-9.7 -50.85 Q-9.05 -51.3 -8.25 -51.3 L-7.1 -51.3" fill="#fcc3d8" fill-rule="evenodd" stroke="none"/>
  </g>
</svg>
