<?xml version="1.0" encoding="UTF-8" standalone="no"?>
<svg xmlns:xlink="http://www.w3.org/1999/xlink" height="81.75px" width="54.3px" xmlns="http://www.w3.org/2000/svg">
  <g transform="matrix(1.0, 0.0, 0.0, 1.0, 27.15, 40.9)">
    <path d="M13.0 -20.45 L7.35 -24.8 Q6.2 -35.5 10.55 -39.3 15.6 -43.25 16.7 -37.45 17.45 -34.75 16.2 -32.0 18.15 -34.55 22.0 -35.85 26.85 -37.0 27.15 -32.4 25.65 -25.4 13.0 -20.45" fill="#fee2fe" fill-rule="evenodd" stroke="none"/>
    <path d="M-10.65 14.25 L-8.3 10.75 Q-1.25 19.3 -2.7 26.9 -3.0 28.4 -3.6 29.9 L-5.1 32.9 -6.3 34.35 Q-11.05 39.6 -16.05 40.5 -22.2 41.25 -26.25 40.3 L-24.25 40.35 Q-17.35 40.35 -12.5 35.5 -7.65 30.65 -7.65 23.8 -7.65 18.4 -10.65 14.25 M-16.15 6.7 L-17.55 8.55 Q-20.6 7.2 -24.25 7.2 L-27.15 7.5 Q-22.1 6.25 -16.15 6.7" fill="#fbdff7" fill-rule="evenodd" stroke="none"/>
  </g>
</svg>
