<?xml version="1.0" encoding="UTF-8" standalone="no"?>
<svg xmlns:xlink="http://www.w3.org/1999/xlink" height="42.0px" width="30.65px" xmlns="http://www.w3.org/2000/svg">
  <g transform="matrix(1.0, 0.0, 0.0, 1.0, -2.2, 87.3)">
    <path d="M7.05 -81.7 L6.5 -80.7 Q5.75 -79.55 4.75 -79.55 3.7 -79.55 2.95 -80.7 2.7 -81.0 2.55 -81.45 2.2 -82.25 2.2 -83.4 2.2 -85.1 2.95 -86.15 3.7 -87.3 4.75 -87.3 5.75 -87.3 6.5 -86.15 7.3 -85.1 7.3 -83.4 L7.05 -81.7 M32.2 -81.15 Q31.7 -80.4 31.05 -80.4 30.35 -80.4 29.85 -81.4 L29.75 -81.45 Q29.3 -82.35 29.3 -83.7 29.3 -85.0 29.85 -86.0 30.35 -86.95 31.05 -86.95 31.8 -86.95 32.3 -86.0 32.85 -85.0 32.85 -83.7 32.85 -82.35 32.3 -81.4 L32.2 -81.15" fill="#56424a" fill-rule="evenodd" stroke="none"/>
    <path d="M17.45 -79.1 L17.3 -79.55 Q17.3 -80.1 18.0 -80.5 L19.55 -80.85 21.15 -80.5 Q21.8 -80.1 21.8 -79.55 21.8 -79.0 21.15 -78.65 20.45 -78.2 19.55 -78.2 18.65 -78.2 18.0 -78.65 17.65 -78.85 17.45 -79.1" fill="#2d2c38" fill-rule="evenodd" stroke="none"/>
    <path d="M16.25 -52.65 L17.1 -51.95 Q18.2 -50.85 18.2 -49.2 18.2 -47.6 17.1 -46.45 L15.85 -45.6 14.4 -45.3 Q12.7 -45.3 11.65 -46.45 10.5 -47.6 10.5 -49.2 10.5 -50.85 11.65 -51.95 L11.65 -52.0 11.7 -52.0 16.25 -52.65" fill="#fff9a6" fill-rule="evenodd" stroke="none"/>
  </g>
</svg>
