<?xml version="1.0" encoding="UTF-8" standalone="no"?>
<svg xmlns:xlink="http://www.w3.org/1999/xlink" height="156.55px" width="116.7px" xmlns="http://www.w3.org/2000/svg">
  <g transform="matrix(1.0, 0.0, 0.0, 1.0, 58.35, 78.3)">
    <path d="M-20.4 -73.95 Q-5.45 -81.05 5.6 -69.35 9.45 -65.25 13.35 -65.0 17.25 -63.85 16.75 -58.8 L16.25 -56.3 Q11.3 -46.1 1.35 -39.7 -6.3 -34.1 -8.85 -25.75 L-9.95 -20.9 Q-8.95 -21.65 -7.8 -21.65 -6.2 -21.65 -5.1 -20.55 -4.0 -19.45 -4.0 -17.95 -4.0 -16.35 -5.1 -15.25 -6.2 -14.15 -7.8 -14.15 -9.25 -14.15 -10.45 -15.25 L-10.5 -15.3 -10.5 -14.05 -9.7 -14.15 Q-8.2 -14.15 -7.1 -13.0 -6.0 -11.95 -6.0 -10.4 -6.0 -8.8 -7.1 -7.75 -8.2 -6.65 -9.7 -6.65 L-10.0 -6.65 Q-10.1 -3.95 -8.4 -1.3 -4.35 4.45 14.95 8.2 26.25 11.65 32.15 19.45 L57.35 19.4 Q53.6 32.6 39.7 37.25 49.15 52.1 47.1 67.4 33.6 62.25 24.95 45.5 18.25 52.45 7.2 51.3 3.5 59.35 -3.2 64.4 -12.2 70.55 -18.85 77.25 -21.85 65.2 -20.1 53.1 -31.2 50.9 -36.6 43.7 -44.25 58.0 -56.5 65.7 -60.2 42.25 -47.95 21.55 -41.9 12.2 -37.45 -6.15 L-38.3 -6.7 Q-39.4 -7.9 -39.4 -9.4 -39.4 -10.9 -38.3 -12.05 L-37.45 -12.6 -37.45 -13.1 -37.65 -13.1 Q-38.7 -11.95 -40.2 -11.95 -41.8 -11.95 -42.85 -13.1 -43.95 -14.2 -43.95 -15.7 -43.95 -17.3 -42.85 -18.4 -41.8 -19.5 -40.2 -19.5 -38.75 -19.5 -37.7 -18.45 -41.1 -34.8 -38.0 -54.05 -39.3 -53.6 -40.4 -54.5 -44.35 -58.2 -45.0 -66.65 -44.2 -68.85 -42.3 -69.05 -37.45 -68.7 -34.45 -66.4 -32.0 -70.15 -27.85 -72.8 -26.3 -75.0 -23.75 -77.3 -21.85 -75.8 -20.4 -73.95 -16.75 -69.4 -18.45 -63.45 -19.4 -62.65 -20.55 -62.3 -21.25 -58.0 -24.5 -57.15 L-29.55 -61.95 -30.25 -61.75 -29.8 -54.25 Q-32.85 -52.55 -35.85 -55.25 L-37.4 -54.45 -38.0 -54.05 M-27.85 -72.8 Q-29.1 -71.1 -29.65 -69.35 L-30.4 -66.05 Q-29.6 -66.05 -29.05 -65.5 -27.2 -67.75 -24.75 -67.35 M-29.05 -65.5 Q-28.35 -64.8 -28.35 -63.9 L-28.6 -62.9 Q-23.7 -61.2 -20.55 -62.3 M-28.6 -62.9 L-29.05 -62.3 -29.55 -61.95 M-34.45 -66.4 L-32.6 -64.7 -32.2 -65.5 Q-31.5 -66.05 -30.65 -66.05 L-30.4 -66.05 M-35.85 -55.25 Q-33.65 -57.0 -32.05 -62.2 L-32.2 -62.3 Q-32.85 -62.9 -32.85 -63.9 L-32.6 -64.7 Q-36.3 -64.2 -37.1 -61.55 M-30.25 -61.75 L-30.65 -61.7 Q-31.45 -61.7 -32.05 -62.2 M-37.7 -18.45 L-37.55 -18.3 -37.45 -17.6 -37.45 -13.1 M-37.7 -18.45 L-37.45 -17.6 M-37.45 -12.6 Q-36.65 -13.15 -35.6 -13.15 -34.15 -13.15 -33.05 -12.05 -32.1 -11.15 -32.0 -9.95 -31.85 -9.65 -31.85 -8.7 -31.85 -8.0 -32.4 -7.2 -31.45 -8.0 -30.15 -8.0 -28.65 -8.0 -27.55 -6.9 -26.45 -5.8 -26.45 -4.2 -26.45 -2.7 -27.55 -1.55 -28.65 -0.45 -30.15 -0.45 -31.75 -0.45 -32.85 -1.55 L-33.6 -2.65 -33.9 -4.2 Q-33.9 -5.35 -33.3 -6.3 -34.25 -5.5 -35.3 -5.55 -36.65 -5.6 -37.45 -6.15 M-33.3 -6.3 L-32.85 -6.9 -32.4 -7.2 -32.9 -6.6 -33.3 -6.3 M-22.95 3.7 Q-24.55 3.55 -25.8 2.35 -27.0 1.1 -27.0 -0.85 L-26.95 -1.85 -26.45 -3.15 -25.8 -4.05 Q-24.45 -5.35 -22.6 -5.35 -20.65 -5.35 -19.35 -4.05 -18.0 -2.7 -18.0 -0.85 -18.0 1.1 -19.35 2.35 -20.25 3.35 -21.45 3.55 L-19.3 8.35 -15.55 8.7 -19.4 12.75 -18.6 16.4 -22.45 14.55 -25.3 15.65 -25.05 11.65 -29.05 8.35 -25.3 8.35 -22.95 3.7 -22.6 3.7 -21.45 3.55 M-10.0 -6.65 Q-11.15 -6.7 -11.95 -7.35 -11.3 -6.4 -11.3 -5.1 -11.3 -3.4 -12.4 -2.25 -13.5 -1.15 -15.1 -1.15 L-15.6 -1.2 Q-16.8 -1.35 -17.75 -2.25 -18.85 -3.4 -18.85 -4.85 -18.85 -6.4 -17.75 -7.55 -16.6 -8.7 -15.1 -8.75 -13.75 -8.9 -12.75 -8.15 -13.5 -9.1 -13.5 -10.4 -13.5 -11.95 -12.4 -13.0 -11.55 -13.9 -10.5 -14.05 M-12.75 -8.15 L-12.4 -7.95 -11.95 -7.35 -12.4 -7.75 -12.75 -8.15 M-10.5 -15.3 L-9.95 -20.9 M-12.9 31.0 L-13.45 32.35 Q-18.55 42.8 -20.1 53.1 M-40.9 32.85 Q-39.9 39.2 -36.6 43.7 M11.2 37.95 L9.6 45.05 Q8.6 48.3 7.2 51.3 M22.45 40.0 L23.45 42.4 24.95 45.5 M32.15 19.45 Q34.9 23.2 36.5 27.85 M38.1 34.9 L39.7 37.25" fill="none" stroke="#373354" stroke-linecap="round" stroke-linejoin="round" stroke-width="2.0"/>
  </g>
</svg>
