<?xml version="1.0" encoding="UTF-8" standalone="no"?>
<svg xmlns:xlink="http://www.w3.org/1999/xlink" height="105.2px" width="84.8px" xmlns="http://www.w3.org/2000/svg">
  <g transform="matrix(1.0, 0.0, 0.0, 1.0, 42.4, 52.6)">
    <path d="M-23.7 8.85 L-26.3 10.15 -28.3 11.05 Q-33.6 13.0 -39.2 11.8 L-39.75 11.6 Q-43.25 10.15 -42.15 8.3 -40.95 7.8 -39.75 7.0 -37.1 5.3 -34.45 2.3 -31.55 -0.6 -28.3 -5.5 L-27.9 -6.1 Q-24.7 -9.6 -17.2 -11.75 L-20.75 -21.6 -21.4 -24.2 Q-22.95 -32.6 -18.35 -41.25 -5.45 -58.65 13.65 -49.4 22.85 -42.3 23.3 -30.35 L22.75 -24.2 Q21.6 -15.65 18.5 -9.65 26.7 -7.6 32.1 0.45 34.85 3.8 40.05 6.75 42.6 8.4 42.4 10.15 31.4 17.95 23.35 8.35 L24.5 12.1 Q25.35 16.15 25.15 19.85 24.8 27.65 20.25 34.55 L17.7 37.35 Q24.05 42.35 23.05 47.7 19.35 47.5 17.5 45.45 18.2 48.45 16.9 51.4 14.05 50.45 12.15 47.55 11.35 51.25 8.6 52.6 5.55 49.55 6.75 43.1 L-1.4 43.85 -7.5 43.35 Q-7.3 48.1 -9.9 51.8 -12.35 50.9 -13.85 47.7 -15.9 50.75 -18.9 51.4 -20.3 49.4 -18.9 45.15 L-23.95 47.45 Q-26.65 42.7 -19.15 37.05 -21.85 34.3 -23.95 30.45 -25.85 25.15 -25.85 19.85 -25.85 14.35 -23.7 8.85" fill="#b1b1b1" fill-rule="evenodd" stroke="none"/>
  </g>
</svg>
