<?xml version="1.0" encoding="UTF-8" standalone="no"?>
<svg xmlns:xlink="http://www.w3.org/1999/xlink" height="77.2px" width="36.0px" xmlns="http://www.w3.org/2000/svg">
  <g transform="matrix(1.0, 0.0, 0.0, 1.0, 18.0, 38.6)">
    <path d="M-3.15 -23.75 Q-2.35 -20.15 -0.3 -17.8 2.6 -19.45 3.5 -23.6 2.25 -24.65 0.75 -24.75 L0.1 -24.75 Q-1.45 -24.65 -3.15 -23.75 M-0.4 -34.8 Q12.4 -43.7 17.55 -31.5 18.25 -28.35 17.85 -24.75 17.2 -19.0 13.7 -12.05 10.65 -4.65 12.35 -1.1 L14.8 7.15 Q17.15 13.7 16.85 19.3 16.5 27.15 11.15 33.15 1.75 42.25 -7.7 36.15 -17.6 29.6 -18.0 19.3 L-17.9 17.15 Q-16.85 8.45 -13.25 -0.25 -11.8 -6.95 -14.6 -12.45 -17.4 -18.7 -17.75 -24.75 -17.85 -27.45 -17.4 -30.15 -12.75 -44.25 -0.4 -34.8" fill="#fefefe" fill-rule="evenodd" stroke="none"/>
  </g>
</svg>
