<?xml version="1.0" encoding="UTF-8" standalone="no"?>
<svg xmlns:xlink="http://www.w3.org/1999/xlink" height="109.75px" width="58.8px" xmlns="http://www.w3.org/2000/svg">
  <g transform="matrix(1.0, 0.0, 0.0, 1.0, 29.4, 54.9)">
    <path d="M-25.8 -3.45 Q-20.1 -3.5 -19.15 2.05 -27.4 29.5 -14.8 49.2 L-13.1 54.85 Q-21.6 50.85 -26.25 40.0 -32.75 24.2 -25.8 -3.45 M16.05 54.1 Q18.45 47.95 19.3 42.3 24.35 23.85 20.25 3.4 18.15 -1.9 24.85 -1.85 30.2 10.4 29.25 25.45 26.5 43.25 16.05 54.1 M22.25 -36.55 Q10.6 -45.15 0.45 -35.65 -10.3 -45.15 -21.1 -35.65 L-19.05 -41.1 Q-12.9 -54.9 -0.45 -54.9 8.25 -54.9 14.8 -48.85 20.1 -44.15 22.25 -36.55 M23.65 -19.35 Q14.05 -6.1 -0.15 -1.85 -14.25 -6.3 -23.2 -21.25 -23.2 -24.65 -22.75 -27.9 -15.9 -11.55 -0.4 -4.8 12.75 -9.9 23.7 -22.9 L23.65 -19.35" fill="#fcdec3" fill-rule="evenodd" stroke="none"/>
  </g>
</svg>
