<?xml version="1.0" encoding="UTF-8" standalone="no"?>
<svg xmlns:xlink="http://www.w3.org/1999/xlink" height="7.85px" width="34.0px" xmlns="http://www.w3.org/2000/svg">
  <g transform="matrix(1.0, 0.0, 0.0, 1.0, 17.75, 112.25)">
    <path d="M10.15 -110.9 Q11.45 -112.25 12.8 -112.25 14.2 -112.25 15.25 -111.0 16.25 -109.85 16.25 -108.55 L16.1 -107.95 15.6 -107.95 14.7 -108.55 13.7 -108.85 12.8 -106.6 Q11.95 -104.4 10.8 -104.4 9.8 -104.4 9.1 -104.95 L8.55 -105.7 8.5 -106.0 8.5 -106.4 8.45 -107.45 Q8.75 -109.5 10.15 -110.9 M-12.05 -104.4 Q-13.8 -104.4 -14.15 -106.6 -14.6 -108.85 -15.65 -108.85 -16.0 -108.85 -16.55 -108.45 -17.0 -108.1 -17.25 -108.1 L-17.6 -108.35 -17.75 -108.8 Q-17.75 -110.05 -16.7 -111.0 -15.65 -112.1 -13.9 -112.1 -12.3 -112.1 -11.1 -110.65 -9.95 -109.3 -9.95 -107.55 -9.95 -104.4 -12.05 -104.4" fill="#000000" fill-rule="evenodd" stroke="none"/>
  </g>
</svg>
