<?xml version="1.0" encoding="UTF-8" standalone="no"?>
<svg xmlns:xlink="http://www.w3.org/1999/xlink" height="95.5px" width="79.35px" xmlns="http://www.w3.org/2000/svg">
  <g transform="matrix(1.0, 0.0, 0.0, 1.0, 39.7, 47.75)">
    <path d="M16.25 -28.3 Q24.3 -28.85 27.55 -34.95 24.65 -36.95 21.85 -36.25 25.3 -41.3 24.85 -46.25 17.85 -45.2 13.75 -41.15 L13.75 -46.75 Q8.05 -43.95 8.95 -36.5 L10.3 -35.45 Q14.5 -32.15 16.25 -28.3 L17.2 -25.4 17.9 -21.8 Q32.7 -22.2 38.65 -10.1 30.05 -6.55 20.45 -10.5 28.35 -3.55 26.75 6.9 16.3 7.9 9.7 -1.85 11.75 11.2 5.35 16.45 2.7 15.05 0.6 13.25 0.45 18.75 0.85 23.65 7.3 17.4 15.45 20.15 22.55 21.65 28.75 16.95 27.55 33.65 16.5 35.7 8.95 37.45 2.45 33.75 4.1 40.85 7.3 46.2 L7.6 46.75 M9.1 -17.5 Q5.2 -8.2 4.4 -17.95 M17.9 -21.8 Q18.8 -15.95 17.45 -12.8 L20.45 -10.5 M17.45 -12.8 Q16.85 -11.35 15.8 -10.5 12.35 -7.8 8.8 -6.35 L9.7 -1.85 M15.0 26.3 Q7.15 25.8 1.95 31.45 L2.45 33.75 M0.6 13.25 Q-4.0 9.3 -5.55 3.5 -6.4 13.75 -5.5 23.05 L-4.55 30.0 -3.65 34.1 Q-2.15 40.4 0.25 46.2 L0.65 46.55 M0.85 23.65 Q1.2 27.75 1.95 31.45 M-5.55 3.5 Q-6.25 0.95 -6.3 -1.95 -11.55 10.95 -20.7 13.75 -28.1 0.15 -18.05 -12.4 -27.9 -2.6 -38.7 -12.85 -33.5 -20.45 -20.8 -21.5 L-20.7 -23.4 Q-20.45 -26.45 -19.55 -29.0 -29.5 -29.0 -32.75 -34.75 L-26.1 -35.7 Q-28.8 -40.05 -29.55 -45.3 -22.75 -44.75 -19.45 -39.7 L-17.75 -46.75 Q-12.5 -42.05 -15.5 -35.45 -2.4 -44.3 8.95 -36.5 M2.55 -27.25 Q0.8 -24.35 -1.0 -27.25 -3.0 -24.3 -4.45 -27.25 M-19.55 -29.0 Q-18.2 -32.8 -15.5 -35.45 M-5.95 -19.45 Q-4.8 -8.3 -10.6 -16.75 M-6.3 -1.95 L-5.15 -5.05 Q-10.8 -6.4 -16.55 -10.6 L-18.05 -12.4 Q-20.9 -16.25 -20.8 -21.5 M-18.0 26.3 Q-10.8 25.35 -4.55 30.0 M-5.5 23.05 Q-16.4 15.75 -27.35 19.9 -33.4 22.35 -38.45 19.9 -35.25 30.45 -22.2 35.7 -12.45 38.85 -3.65 34.1 M8.8 -6.35 Q1.95 -3.45 -5.15 -5.05" fill="none" stroke="#456254" stroke-linecap="round" stroke-linejoin="round" stroke-width="2.0"/>
    <path d="M6.65 -28.4 Q6.65 -27.3 7.1 -26.6 7.6 -25.9 8.25 -25.9 8.95 -25.9 9.45 -26.6 9.9 -27.3 9.9 -28.4 9.9 -29.4 9.45 -30.1 8.95 -30.8 8.25 -30.8 7.6 -30.8 7.1 -30.1 6.65 -29.4 6.65 -28.4" fill="none" stroke="#456254" stroke-linecap="round" stroke-linejoin="round" stroke-width="0.1"/>
  </g>
</svg>
