<?xml version="1.0" encoding="UTF-8" standalone="no"?>
<svg xmlns:xlink="http://www.w3.org/1999/xlink" height="117.35px" width="94.45px" xmlns="http://www.w3.org/2000/svg">
  <g transform="matrix(1.0, 0.0, 0.0, 1.0, 47.25, 58.7)">
    <path d="M36.7 -55.0 L31.55 -42.2 34.95 -43.55 33.35 -38.65 Q36.65 -36.4 39.25 -33.45 43.05 -29.3 45.4 -23.75 L47.2 -20.3 42.7 -23.0 Q46.1 -15.3 43.45 -7.7 42.85 -11.4 39.9 -13.25 40.85 -6.0 35.2 -1.45 45.2 8.95 42.1 20.7 41.85 15.15 38.25 10.5 39.25 16.95 37.95 22.0 42.85 33.8 34.95 42.35 41.55 49.4 39.15 51.6 L37.75 52.65 Q36.45 53.2 34.3 53.35 L29.65 53.1 28.95 52.15 Q27.45 55.6 25.65 57.2 23.65 58.95 21.25 58.2 19.5 57.6 17.5 55.6 15.25 52.7 14.5 46.4 10.55 43.55 7.0 46.3 6.0 56.05 -0.15 58.4 -2.9 58.9 -4.6 58.35 -7.8 57.35 -7.65 52.95 -11.25 55.25 -15.4 55.25 L-17.0 55.2 -19.3 53.9 Q-25.05 50.15 -19.95 45.75 -25.85 41.15 -29.05 32.5 -31.95 22.2 -34.3 22.45 -40.35 23.5 -41.45 28.0 -47.2 18.85 -41.15 10.6 L-47.25 10.5 Q-42.35 -2.65 -27.6 -3.05 L-32.15 -8.65 Q-23.25 -10.7 -17.65 -4.6 -19.25 -8.05 -19.7 -13.1 L-23.0 -11.05 Q-24.45 -17.8 -19.95 -23.25 -22.6 -21.25 -26.7 -22.45 -20.45 -26.1 -18.6 -36.65 -17.55 -33.25 -13.3 -33.05 L-12.45 -34.85 Q-9.95 -32.5 -7.5 -34.85 -7.05 -37.5 -8.25 -39.6 -6.65 -37.65 -3.75 -37.3 -2.2 -38.35 -2.35 -41.8 L-0.9 -41.95 Q1.2 -46.8 -4.3 -49.8 -8.55 -47.7 -10.3 -43.05 L-10.35 -43.05 Q-9.5 -50.75 -14.4 -58.7 -2.05 -54.9 1.7 -45.7 12.05 -53.9 22.4 -45.7 33.45 -56.75 36.7 -55.0" fill="#ffffff" fill-rule="evenodd" stroke="none"/>
  </g>
</svg>
