<?xml version="1.0" encoding="UTF-8" standalone="no"?>
<svg xmlns:xlink="http://www.w3.org/1999/xlink" height="85.5px" width="74.15px" xmlns="http://www.w3.org/2000/svg">
  <g transform="matrix(1.0, 0.0, 0.0, 1.0, 37.1, 42.75)">
    <path d="M32.95 -42.05 Q36.55 -34.45 37.0 -28.55 37.7 -19.85 31.7 -14.65 L30.15 -13.5 Q15.8 -5.15 1.35 -13.5 -4.5 -15.9 -7.95 -20.1 -11.75 -24.8 -12.4 -31.9 -11.8 -34.0 -11.95 -36.9 -8.1 -39.25 -7.25 -42.75 -3.7 -39.15 0.85 -42.0 5.45 -36.9 11.0 -42.0 17.7 -34.85 24.55 -42.0 29.05 -39.5 32.95 -42.05" fill="#fef0fb" fill-rule="evenodd" stroke="none"/>
    <path d="M-27.15 19.1 Q-26.35 10.35 -21.15 6.2 -15.0 3.4 -11.05 -1.95 -10.35 -0.1 -7.85 0.9 -8.1 6.45 -1.7 5.7 -0.1 10.95 3.7 9.3 6.4 14.6 11.45 10.75 18.1 15.1 21.9 8.2 24.55 9.3 26.4 8.65 24.45 20.65 28.0 32.65 28.8 37.75 28.0 39.75 27.3 41.6 25.15 40.75 24.6 40.5 23.9 40.05 19.5 36.25 16.05 28.1 15.1 31.5 12.85 32.0 19.85 37.9 15.3 39.45 13.25 40.25 11.25 38.75 11.05 41.6 9.95 42.45 8.9 43.25 6.85 41.8 L5.7 40.85 4.05 38.4 1.75 38.2 Q2.7 40.5 0.85 41.35 L-2.75 41.8 -7.25 41.3 Q-19.8 40.45 -26.1 30.0 -26.35 28.85 -26.7 28.2 -27.45 22.45 -27.15 19.1" fill="#fff0fc" fill-rule="evenodd" stroke="none"/>
    <path d="M-27.15 19.1 Q-27.45 22.45 -26.7 28.2 -33.5 25.25 -37.1 15.65 L-36.2 15.15 -27.15 19.1" fill="#feeff9" fill-rule="evenodd" stroke="none"/>
  </g>
</svg>
