<?xml version="1.0" encoding="UTF-8" standalone="no"?>
<svg xmlns:xlink="http://www.w3.org/1999/xlink" height="5.1px" width="19.35px" xmlns="http://www.w3.org/2000/svg">
  <g transform="matrix(1.0, 0.0, 0.0, 1.0, -3.1, 4.2)">
    <path d="M5.55 -2.5 L5.25 -1.2 Q4.85 -0.7 4.35 -0.7 3.8 -0.7 3.45 -1.2 3.1 -1.75 3.1 -2.5 3.1 -3.2 3.45 -3.7 L4.35 -4.2 Q4.85 -4.2 5.25 -3.7 L5.55 -2.5 M8.05 -2.0 L7.7 -1.15 Q7.4 -0.6 6.9 -0.6 6.4 -0.6 6.0 -1.15 5.7 -1.65 5.7 -2.45 5.7 -3.15 6.0 -3.7 6.4 -4.2 6.9 -4.2 L7.7 -3.7 7.9 -3.35 8.05 -2.0 M19.4 -0.6 Q19.4 0.0 18.95 0.45 18.5 0.9 17.9 0.9 17.25 0.9 16.75 0.45 16.3 0.0 16.3 -0.6 16.3 -1.15 16.75 -1.6 17.25 -2.0 17.9 -2.0 18.5 -2.0 18.95 -1.6 L19.4 -0.6 M22.45 -1.3 L22.1 -0.4 Q21.65 0.0 21.05 0.0 20.5 0.0 20.05 -0.4 19.6 -0.75 19.6 -1.3 19.6 -1.85 20.05 -2.25 L21.05 -2.6 Q21.65 -2.6 22.1 -2.25 L22.45 -1.3" fill="#ebedec" fill-rule="evenodd" stroke="none"/>
  </g>
</svg>
