<?xml version="1.0" encoding="UTF-8" standalone="no"?>
<svg xmlns:xlink="http://www.w3.org/1999/xlink" height="104.4px" width="100.55px" xmlns="http://www.w3.org/2000/svg">
  <g transform="matrix(1.0, 0.0, 0.0, 1.0, 50.25, 52.2)">
    <path d="M-23.8 -42.45 Q-20.65 -45.95 -18.85 -47.1 L-15.05 -48.95 Q-13.1 -49.85 -10.85 -50.4 -8.1 -51.2 -5.95 -51.2 3.15 -51.2 10.55 -46.2 14.9 -43.35 15.9 -42.8 18.9 -41.3 22.3 -41.3 26.05 -41.3 32.2 -43.95 38.25 -46.65 43.05 -46.65 L46.5 -46.15 49.3 -45.5 49.3 -41.55 Q40.1 -39.6 35.6 -33.45 26.7 -25.05 17.45 -25.45 18.25 -21.8 22.25 -21.85 14.2 -11.9 18.1 -3.4 20.3 7.75 18.1 16.2 17.2 19.5 16.75 22.65 16.5 25.0 16.5 27.9 16.5 32.4 18.25 39.85 L20.05 47.55 Q20.05 49.4 19.05 50.35 18.1 51.2 16.5 51.2 13.2 51.2 11.3 48.95 L10.85 48.45 5.1 48.65 Q4.75 49.8 3.65 50.35 2.3 51.15 -0.45 51.05 L-19.4 51.05 Q-24.5 49.3 -23.45 43.55 L-25.75 44.05 Q-29.1 44.05 -34.7 40.7 -39.7 37.7 -40.55 34.95 -49.5 32.6 -49.25 23.1 -49.2 20.55 -47.75 17.65 L-45.55 23.75 -44.2 19.25 Q-43.45 22.25 -41.45 24.5 -38.85 28.95 -40.6 33.45 L-34.85 35.4 Q-30.35 36.9 -28.15 36.9 L-26.55 36.7 Q-27.35 33.8 -27.55 30.25 -27.85 18.95 -17.95 7.55 -12.3 -1.7 -20.25 -12.5 -21.6 -9.5 -23.25 -6.8 -30.95 5.55 -42.4 5.55 -44.15 5.55 -45.15 4.25 -46.1 3.05 -46.1 1.2 -46.1 -0.55 -44.3 -5.35 L-42.4 -10.5 -42.0 -17.4 Q-41.75 -21.15 -41.05 -24.0 -38.7 -33.5 -35.9 -37.15 -31.95 -42.45 -23.8 -42.45 L-20.7 -42.2 M-20.25 -12.5 Q-19.2 -14.95 -18.4 -17.7 -16.75 -23.2 -16.65 -27.75 M-12.15 15.25 Q-6.0 15.3 -2.05 19.95 1.3 24.05 1.3 28.85 L0.9 31.7 0.3 34.35 -0.75 36.85 -1.65 39.15 -0.15 40.3 Q3.9 39.5 5.2 35.5 L4.9 34.85 Q3.75 30.95 3.75 27.8 L3.9 26.3 M-26.55 36.7 Q-25.5 40.4 -23.45 43.55 M-40.6 33.45 L-40.7 33.65 -40.75 33.9 -40.55 34.95 M5.1 48.65 L5.25 47.45 5.25 47.35 4.9 48.2 Q4.6 48.75 4.1 48.75 L3.2 48.2 Q2.9 47.7 2.9 46.9 2.9 46.2 3.2 45.65 3.6 45.15 4.1 45.15 4.6 45.15 4.9 45.65 L5.1 46.0 Q4.55 43.35 1.8 41.3 L-0.15 40.3 M2.75 46.85 L2.45 48.15 Q2.05 48.65 1.55 48.65 1.0 48.65 0.65 48.15 0.3 47.6 0.3 46.85 0.3 46.15 0.65 45.65 1.0 45.15 1.55 45.15 2.05 45.15 2.45 45.65 L2.75 46.85 M5.1 46.0 L5.3 46.9 5.25 47.35 5.1 46.0 M16.6 48.75 L16.15 49.8 Q15.7 50.25 15.1 50.25 14.45 50.25 13.95 49.8 13.5 49.35 13.5 48.75 13.5 48.2 13.95 47.75 14.45 47.35 15.1 47.35 15.7 47.35 16.15 47.75 16.6 48.2 16.6 48.75 M19.65 48.05 Q19.65 48.6 19.3 48.95 18.85 49.35 18.25 49.35 17.7 49.35 17.25 48.95 16.8 48.6 16.8 48.05 16.8 47.5 17.25 47.1 17.7 46.75 18.25 46.75 18.85 46.75 19.3 47.1 19.65 47.5 19.65 48.05 M10.85 48.45 Q9.65 46.85 8.0 42.85 6.0 38.25 5.2 35.5" fill="none" stroke="#4d597b" stroke-linecap="round" stroke-linejoin="round" stroke-width="2.0"/>
  </g>
</svg>
