<?xml version="1.0" encoding="UTF-8" standalone="no"?>
<svg xmlns:xlink="http://www.w3.org/1999/xlink" height="5.75px" width="28.0px" xmlns="http://www.w3.org/2000/svg">
  <g transform="matrix(1.0, 0.0, 0.0, 1.0, 14.0, 2.9)">
    <path d="M-14.0 -0.15 Q-14.0 -1.3 -13.3 -2.15 -12.55 -2.9 -11.6 -2.9 -10.65 -2.9 -9.95 -2.15 -9.25 -1.3 -9.25 -0.15 -9.25 1.0 -9.95 1.85 -10.65 2.65 -11.6 2.65 -12.55 2.65 -13.3 1.85 -14.0 1.0 -14.0 -0.15 M10.5 0.1 Q10.5 -1.05 11.0 -1.9 11.5 -2.65 12.25 -2.65 12.95 -2.65 13.5 -1.9 14.0 -1.05 14.0 0.1 14.0 1.2 13.5 2.0 12.95 2.85 12.25 2.85 11.5 2.85 11.0 2.0 10.5 1.2 10.5 0.1" fill="#000000" fill-rule="evenodd" stroke="none"/>
  </g>
</svg>
