<?xml version="1.0" encoding="UTF-8" standalone="no"?>
<svg xmlns:xlink="http://www.w3.org/1999/xlink" height="115.95px" width="77.5px" xmlns="http://www.w3.org/2000/svg">
  <g transform="matrix(1.0, 0.0, 0.0, 1.0, 38.75, 58.0)">
    <path d="M10.75 -42.5 L6.95 -46.65 11.1 -47.2 9.2 -52.7 15.55 -49.55 Q14.9 -53.3 16.25 -57.0 22.55 -51.55 22.8 -43.1 24.75 -42.4 26.6 -41.2 31.9 -37.05 34.85 -32.05 37.75 -26.8 37.75 -21.5 37.75 -14.1 34.9 -10.65 31.95 -7.3 25.55 -7.1 L24.55 -3.95 24.55 -2.75 24.75 -0.55 Q29.4 3.45 31.35 5.75 34.0 8.85 34.0 12.6 L34.0 13.6 Q33.9 14.15 33.2 14.15 L31.25 12.65 Q30.0 11.7 28.05 11.0 L28.1 11.2 Q31.8 20.35 31.8 25.65 31.8 35.7 27.0 41.25 L25.4 42.85 30.3 46.75 Q36.5 53.35 16.45 47.9 L10.1 49.9 9.4 50.45 Q13.15 53.95 13.15 55.75 13.15 56.95 11.75 56.95 9.2 56.95 3.05 52.85 L-2.85 48.9 -3.8 48.65 Q-15.1 44.45 -22.65 30.6 -29.15 18.6 -29.15 9.6 L-29.15 9.1 -28.9 8.4 Q-32.05 6.8 -34.35 5.05 -37.75 2.35 -37.75 -0.55 -37.75 -3.25 -35.75 -3.25 -34.1 -3.25 -33.15 -2.2 L-31.9 -0.25 -31.1 -2.9 Q-30.3 -5.35 -28.8 -5.35 -27.55 -5.35 -26.6 -3.8 -25.65 -2.35 -25.65 -0.95 -25.65 0.35 -26.5 2.35 L-27.85 5.9 -28.2 6.75 -28.9 8.4 -22.75 15.1 -16.75 21.0 Q-15.0 22.65 -10.65 24.8 -5.7 27.25 -4.35 29.2 L-4.7 26.15 Q-4.7 20.65 -1.2 11.85 L1.15 4.85 Q-5.25 2.4 -6.95 6.4 -9.6 1.2 -14.3 4.2 -14.35 -5.05 -24.5 -6.95 -15.9 -6.95 -10.1 -13.1 -5.85 -5.5 2.35 -2.15 L2.25 -5.2 Q2.25 -6.7 1.1 -11.0 -5.15 -16.1 -2.7 -25.7 -6.9 -28.7 -13.0 -27.7 L-9.55 -31.85 Q-14.65 -32.05 -17.65 -37.0 -12.75 -40.75 -7.3 -38.6 L-9.55 -47.2 Q-4.5 -45.6 -1.1 -43.3 0.75 -42.05 4.25 -38.25 7.45 -41.1 10.75 -42.5 16.75 -45.1 22.8 -43.1 M3.55 -37.7 L4.25 -38.25 M4.8 -8.8 Q2.7 -9.8 1.1 -11.0 M25.55 -7.1 L24.55 -7.1 22.25 -7.15 19.95 -7.4 M18.15 3.25 Q20.45 6.05 19.8 10.55 19.45 12.6 18.5 15.1 L17.35 12.65 Q15.15 8.35 11.75 5.8 M10.1 27.35 Q14.0 29.85 14.9 34.45 L15.2 37.4 Q15.2 40.0 12.9 45.1 11.15 48.7 10.1 49.9 M25.4 42.85 Q21.95 45.8 16.45 47.9 M24.75 -0.55 Q25.25 3.85 28.05 11.0 M2.35 -2.15 Q2.35 0.8 1.15 4.85 M-4.35 29.2 L-4.1 30.2 Q-3.25 33.55 -3.2 34.45" fill="none" stroke="#28382d" stroke-linecap="round" stroke-linejoin="round" stroke-width="2.0"/>
  </g>
</svg>
