<?xml version="1.0" encoding="UTF-8" standalone="no"?>
<svg xmlns:xlink="http://www.w3.org/1999/xlink" height="133.8px" width="75.25px" xmlns="http://www.w3.org/2000/svg">
  <g transform="matrix(1.0, 0.0, 0.0, 1.0, 37.65, 66.9)">
    <path d="M-10.25 -50.8 L-13.55 -56.15 -15.0 -59.5 -11.25 -59.7 Q-12.3 -60.75 -13.2 -63.05 -14.1 -65.25 -14.1 -66.9 -10.2 -63.0 -5.7 -62.2 L-1.95 -61.9 2.2 -62.15 1.5 -61.5 Q-1.75 -58.8 -5.0 -54.85 L-5.9 -53.8 Q-7.65 -52.1 -10.25 -50.8" fill="#c6e0fd" fill-rule="evenodd" stroke="none"/>
    <path d="M-5.9 -53.8 Q-4.15 -50.1 -3.5 -47.35 -2.95 -44.9 -2.95 -41.1 -2.95 -37.6 -3.2 -35.85 -3.7 -33.5 -4.8 -30.65 -6.9 -32.0 -9.55 -33.4 L-15.85 -36.8 -18.15 -38.2 -18.1 -38.35 Q-15.6 -38.4 -13.1 -39.25 -10.25 -40.25 -8.75 -41.95 -14.45 -41.3 -18.7 -42.2 L-19.75 -42.4 Q-24.85 -43.9 -26.35 -47.45 L-26.1 -47.45 -19.75 -48.0 -14.8 -49.05 Q-12.25 -49.75 -10.25 -50.8 -7.65 -52.1 -5.9 -53.8 M4.95 -7.15 L8.15 -3.7 Q10.35 -1.1 10.35 -0.3 10.35 0.3 9.75 0.55 L8.75 0.7 Q7.15 0.7 5.8 0.15 4.2 -0.45 2.95 -1.4 L3.35 -2.75 Q-2.15 1.65 -7.65 -3.1 -13.0 0.55 -18.35 -6.4 L-19.75 -6.55 Q-26.6 -7.45 -29.95 -15.15 L-9.4 -19.4 Q-5.4 -18.65 -3.2 -21.4 0.0 -14.65 5.75 -12.05 L5.35 -8.8 4.95 -7.15 M24.5 -6.0 Q25.8 -3.9 26.15 -2.8 L26.5 -0.75 Q26.8 0.95 26.25 2.6 25.75 4.1 24.3 4.0 22.85 3.9 21.15 0.7 19.35 -2.65 19.2 -4.35 19.35 -5.25 20.1 -5.75 20.75 -6.3 21.6 -6.3 L22.35 -6.2 24.5 -6.0 M30.9 -10.05 L34.9 -6.3 Q37.6 -3.4 37.6 -1.35 37.6 -0.05 37.2 0.45 36.7 0.9 35.65 0.9 35.0 0.9 34.0 0.3 L32.1 -1.4 Q30.9 -6.3 30.9 -10.05 M-23.5 27.75 Q-38.8 28.85 -37.55 24.05 -36.65 22.65 -33.0 22.95 -40.9 9.2 -27.7 20.25 L-28.15 17.3 -28.15 14.5 Q-28.1 12.85 -26.45 13.05 -24.9 13.4 -23.55 18.4 -22.55 22.25 -22.3 24.95 L-23.95 24.3 -24.0 24.3 -24.15 24.65 Q-24.15 26.2 -23.5 27.75 M2.05 2.0 L5.45 5.0 Q7.75 7.2 7.75 7.85 7.75 8.75 6.65 9.15 L4.9 9.3 3.05 9.15 0.8 9.2 1.4 5.5 Q1.65 3.65 2.05 2.0 M-12.2 27.35 L-12.75 31.05 Q-13.2 32.85 -14.2 32.85 -15.3 32.85 -15.95 31.2 -16.5 29.9 -16.5 28.65 L-16.2 26.8 -12.2 27.35 M-4.0 25.1 Q-5.05 27.45 -5.6 30.9 -6.25 33.4 -7.35 33.4 -9.05 33.4 -9.65 27.35 -6.1 27.05 -4.0 25.1 M25.75 58.95 L29.4 64.85 29.3 64.95 28.95 65.05 Q28.3 65.05 27.3 64.5 L26.05 63.5 25.6 63.5 Q25.45 64.1 25.6 65.2 25.65 66.15 25.15 66.9 L23.45 65.1 22.25 63.75 21.4 64.7 20.45 65.95 Q18.6 64.5 16.7 61.8 17.2 59.45 18.8 58.2 20.6 56.8 22.2 56.8 22.7 56.8 25.35 58.25 L24.95 57.55 23.95 55.35 Q24.2 53.45 26.85 54.45 L27.25 55.25 29.15 58.2 31.15 60.85 31.85 61.5 28.3 60.5 Q26.8 59.85 25.75 58.95" fill="#c9e0fe" fill-rule="evenodd" stroke="none"/>
  </g>
</svg>
