<?xml version="1.0" encoding="UTF-8" standalone="no"?>
<svg xmlns:xlink="http://www.w3.org/1999/xlink" height="95.05px" width="124.85px" xmlns="http://www.w3.org/2000/svg">
  <g transform="matrix(1.0, 0.0, 0.0, 1.0, 62.45, 47.55)">
    <path d="M21.75 -8.75 L23.7 -11.85 28.0 -18.7 31.95 -24.95 38.2 -35.0 35.25 -23.35 33.15 -15.0 31.3 -7.55 30.2 -3.0 31.8 -1.5 Q39.6 7.65 41.55 16.0 46.55 12.7 50.55 10.3 58.05 5.65 60.35 5.65 61.2 5.65 61.4 7.6 L61.4 9.9 Q61.4 22.6 56.05 28.75 49.75 35.85 35.65 34.55 33.2 36.6 29.85 38.35 19.45 43.75 6.35 43.75 3.4 43.75 0.0 42.75 -2.85 41.9 -5.8 40.3 -9.55 43.2 -13.7 44.65 -18.7 46.5 -25.0 46.5 -31.05 46.5 -36.8 44.25 -42.8 41.95 -45.95 38.15 -42.45 37.1 -38.95 35.65 L-32.9 32.5 -32.5 32.35 Q-39.8 29.45 -44.4 20.15 -48.65 11.45 -48.65 3.15 L-48.2 -2.85 -47.7 -7.1 Q-47.7 -8.4 -49.8 -10.55 L-54.6 -15.15 Q-61.45 -22.65 -61.45 -32.75 -61.45 -34.5 -60.85 -39.35 L-60.2 -44.1 Q-54.9 -41.2 -51.9 -38.65 -47.55 -34.95 -45.45 -30.35 L-40.65 -39.2 Q-37.3 -45.25 -34.15 -46.55 L-32.05 -39.85 Q-30.7 -35.35 -30.7 -32.8 -30.7 -24.75 -33.75 -18.2 L-35.9 -14.15 Q-36.85 -12.4 -36.85 -11.6 -36.85 -6.45 -31.65 -2.5 -26.95 1.15 -21.7 1.15 -19.35 1.15 -15.9 -0.75 L-8.95 -5.1 Q1.35 -11.35 11.15 -11.35 L14.85 -10.8 20.5 -9.2 21.75 -8.75 19.05 -4.4 16.3 -0.05 Q19.35 8.25 28.1 5.1 L29.15 1.05 30.2 -3.0 M41.55 16.0 Q42.15 18.7 42.15 21.35 42.15 29.05 35.65 34.55 M25.05 27.4 Q22.9 30.2 20.15 27.4 17.9 31.2 14.9 27.4 M-2.6 37.65 L-5.8 40.3 M-15.9 26.5 Q-24.4 27.85 -32.5 32.35" fill="none" stroke="#3a3f56" stroke-linecap="round" stroke-linejoin="round" stroke-width="2.0"/>
    <path d="M19.05 -4.4 Q22.25 1.65 29.15 1.05 M33.15 -15.0 Q29.0 -14.85 28.0 -18.7 M31.3 -7.55 Q25.95 -7.4 23.7 -11.85 M35.25 -23.35 Q31.95 -22.8 31.95 -24.95 M31.65 13.15 L30.1 14.9 29.95 15.1 Q28.95 17.05 28.95 19.8 L28.95 20.55 Q29.05 22.95 30.1 24.75 31.2 26.75 32.8 26.75 L34.3 26.25 35.5 24.75 Q36.6 22.7 36.6 19.8 L36.35 17.0 35.5 14.9 Q34.35 12.8 32.8 12.8 32.15 12.8 31.65 13.15 36.8 8.7 39.15 15.35 M-1.65 15.85 L-1.75 15.9 -2.05 16.0 -2.15 16.0 Q-3.3 16.5 -4.0 18.45 -4.65 20.3 -4.45 22.6 L-4.35 23.85 Q-3.8 26.9 -2.35 28.9 -1.15 30.45 0.15 30.65 L0.45 30.65 0.8 30.6 Q2.4 30.35 3.2 28.0 3.95 25.6 3.45 22.6 3.15 20.45 2.25 18.8 L1.5 17.55 Q0.0 15.6 -1.65 15.85 4.1 13.1 6.65 18.35" fill="none" stroke="#3a3f56" stroke-linecap="round" stroke-linejoin="round" stroke-width="1.6"/>
  </g>
</svg>
