<?xml version="1.0" encoding="UTF-8" standalone="no"?>
<svg xmlns:xlink="http://www.w3.org/1999/xlink" height="66.55px" width="26.65px" xmlns="http://www.w3.org/2000/svg">
  <g transform="matrix(1.0, 0.0, 0.0, 1.0, 13.3, 33.3)">
    <path d="M4.9 -32.15 L7.4 -30.4 Q9.4 -28.55 10.65 -25.45 12.35 -20.45 10.8 -13.55 L10.7 -13.35 10.65 -13.1 10.5 -11.3 Q10.4 -8.3 11.75 -5.85 14.0 -1.25 13.05 6.3 12.5 10.8 10.8 16.45 9.0 22.2 7.2 26.0 3.75 33.4 0.0 33.25 -3.7 33.4 -7.25 26.0 -9.05 22.2 -10.75 16.45 -12.5 10.8 -13.05 6.3 -13.95 -1.25 -11.8 -5.85 -10.35 -8.3 -10.45 -11.3 L-10.7 -13.1 -10.7 -13.35 -10.75 -13.55 Q-12.4 -20.45 -10.7 -25.45 -9.3 -28.75 -7.05 -30.6 L-4.85 -32.1 Q-2.7 -33.2 0.0 -33.3 2.65 -33.2 4.9 -32.15" fill="#ebdcff" fill-rule="evenodd" stroke="none"/>
  </g>
</svg>
