<?xml version="1.0" encoding="UTF-8" standalone="no"?>
<svg xmlns:xlink="http://www.w3.org/1999/xlink" height="74.65px" width="78.35px" xmlns="http://www.w3.org/2000/svg">
  <g transform="matrix(1.0, 0.0, 0.0, 1.0, 39.15, 37.35)">
    <path d="M13.3 -5.35 Q17.05 -9.2 12.6 -8.45 9.4 -8.15 13.3 -5.35 M-8.2 -33.75 Q0.3 -38.6 9.15 -36.95 12.85 -36.05 15.55 -34.25 22.05 -35.95 27.35 -28.55 30.35 -23.25 34.85 -20.4 40.8 -17.35 38.6 -12.55 36.6 -7.25 26.7 -9.85 27.45 -3.5 17.8 1.55 L18.1 1.5 Q18.8 1.5 19.25 2.0 19.7 2.45 19.7 3.05 L19.25 4.2 18.1 4.65 18.05 4.65 Q18.05 9.6 22.0 15.25 27.15 23.85 22.2 25.15 19.55 25.45 16.85 19.85 16.65 23.2 15.9 26.95 15.35 31.8 17.05 35.75 8.2 37.8 0.8 37.1 -9.7 36.1 -18.15 30.3 -15.75 24.2 -12.75 20.0 -7.2 11.55 -7.05 5.0 L-7.7 4.5 Q-8.4 3.9 -8.4 2.95 -8.4 2.0 -7.7 1.3 L-7.55 1.2 Q-14.75 -5.5 -13.8 -12.45 -16.2 -9.45 -19.8 -7.15 -30.8 0.15 -38.05 -4.3 -40.75 -6.75 -36.75 -10.75 -30.55 -17.75 -27.7 -25.15 -23.2 -36.5 -8.2 -33.75 M16.55 3.05 L16.6 3.45 16.6 3.4 16.55 3.05" fill="#dce7ff" fill-rule="evenodd" stroke="none"/>
  </g>
</svg>
