<?xml version="1.0" encoding="UTF-8" standalone="no"?>
<svg xmlns:xlink="http://www.w3.org/1999/xlink" height="147.15px" width="93.25px" xmlns="http://www.w3.org/2000/svg">
  <g transform="matrix(1.0, 0.0, 0.0, 1.0, 46.6, 73.6)">
    <path d="M-39.7 -28.2 L-36.5 -28.2 Q-37.8 -33.05 -35.95 -37.5 -45.2 -42.95 -45.6 -54.35 -45.15 -63.35 -41.7 -63.8 L-39.7 -63.5 -24.8 -55.6 Q-16.15 -62.75 -5.3 -58.0 1.25 -64.05 7.0 -71.05 8.45 -72.7 9.55 -72.6 11.9 -72.4 13.45 -65.0 15.05 -56.1 10.25 -46.3 14.75 -42.0 15.6 -36.8 L22.4 -39.65 M12.75 -35.55 L15.6 -36.8 Q15.9 -35.15 15.8 -33.4 L15.8 -33.0 22.0 -32.45 M12.75 -33.25 L15.8 -33.0 Q14.8 -24.35 5.45 -20.1 4.3 -14.75 6.65 -11.95 10.8 -7.05 7.4 -2.0 5.9 -0.75 4.65 -1.55 4.7 3.0 0.75 9.45 5.4 10.3 3.5 16.05 1.75 17.35 0.0 14.35 -1.8 17.65 -3.7 17.85 -21.3 48.9 7.35 58.75 24.65 44.5 41.45 50.95 38.15 55.4 31.5 58.45 42.25 60.35 45.65 68.7 23.75 78.6 4.05 62.9 -16.2 72.8 -31.4 56.5 -48.5 36.1 -35.25 9.9 L-35.85 9.15 Q-38.1 4.45 -30.25 1.25 -23.55 -5.8 -24.3 -17.3 -30.85 -18.75 -34.0 -23.05 L-37.8 -20.55 M5.45 -20.1 L2.8 -19.05 M0.6 -10.85 Q2.35 -3.15 4.65 -1.55 M7.35 58.75 L9.95 59.55 Q6.95 61.55 4.05 62.9 M-27.5 -53.0 L-24.8 -55.6 M-5.3 -58.0 Q-3.05 -57.0 -0.75 -55.55 M-12.5 -32.55 Q-9.0 -30.7 -8.15 -33.6 -5.25 -31.7 -4.1 -34.6 M-31.15 -28.2 L-36.5 -28.2 -35.85 -26.15 Q-35.1 -24.4 -34.0 -23.05 L-30.25 -25.45 M-24.3 -17.3 L-20.5 -16.7 M-35.25 9.9 Q-33.0 12.2 -28.4 10.95 -28.75 18.3 -22.0 15.0 -18.8 21.9 -13.9 16.85 -9.8 21.4 -7.15 16.05 -5.35 18.05 -3.7 17.85 M-15.25 -8.4 Q-12.5 0.75 -9.35 0.05 -5.05 -1.7 -8.35 -10.45 M-30.25 1.25 Q-22.75 14.35 0.75 9.45" fill="none" stroke="#496450" stroke-linecap="round" stroke-linejoin="round" stroke-width="2.0"/>
    <path d="M9.55 -72.6 Q8.65 -64.5 2.3 -52.35 L6.35 -53.2 6.35 -49.5 10.25 -46.3 M-41.7 -63.8 Q-39.65 -51.6 -30.75 -46.95 L-35.3 -45.95 -32.95 -42.2 Q-34.95 -39.95 -35.95 -37.5" fill="none" stroke="#3a3f56" stroke-linecap="round" stroke-linejoin="round" stroke-width="1.6"/>
  </g>
</svg>
