<?xml version="1.0" encoding="UTF-8" standalone="no"?>
<svg xmlns:xlink="http://www.w3.org/1999/xlink" height="9.35px" width="29.45px" xmlns="http://www.w3.org/2000/svg">
  <g transform="matrix(1.0, 0.0, 0.0, 1.0, 14.7, 4.7)">
    <path d="M14.75 -1.55 Q14.75 -0.15 14.25 0.85 13.8 1.7 13.1 1.7 12.35 1.7 11.75 0.85 11.35 -0.15 11.35 -1.55 11.35 -2.9 11.75 -3.75 12.35 -4.7 13.1 -4.7 13.8 -4.7 14.25 -3.75 14.75 -2.9 14.75 -1.55 M-10.6 1.4 Q-10.6 2.75 -11.2 3.75 -11.8 4.65 -12.65 4.65 -13.5 4.65 -14.1 3.75 -14.7 2.75 -14.7 1.4 -14.7 0.05 -14.1 -0.85 -13.5 -1.75 -12.65 -1.75 -11.8 -1.75 -11.2 -0.85 -10.6 0.05 -10.6 1.4" fill="#000000" fill-rule="evenodd" stroke="none"/>
  </g>
</svg>
