<?xml version="1.0" encoding="UTF-8" standalone="no"?>
<svg xmlns:xlink="http://www.w3.org/1999/xlink" height="79.95px" width="20.25px" xmlns="http://www.w3.org/2000/svg">
  <g transform="matrix(1.0, 0.0, 0.0, 1.0, 10.1, 40.0)">
    <path d="M6.1 -40.0 L10.15 -39.1 Q8.6 -31.95 4.75 -31.8 2.35 -31.85 6.1 -40.0 M0.5 10.4 L0.6 13.0 Q1.0 28.3 -10.1 39.95 -6.75 33.0 -7.0 26.9 -7.25 22.2 -9.1 18.95 -10.45 12.1 -8.75 1.1 -3.65 3.4 0.5 10.4 M-4.0 -13.05 L-3.65 -12.05 -1.75 -5.35 -6.55 -9.05 Q-6.65 -16.7 -5.15 -20.1 -5.4 -17.6 -4.0 -13.05" fill="#f8e2f4" fill-rule="evenodd" stroke="none"/>
  </g>
</svg>
