<?xml version="1.0" encoding="UTF-8" standalone="no"?>
<svg xmlns:xlink="http://www.w3.org/1999/xlink" height="137.45px" width="90.85px" xmlns="http://www.w3.org/2000/svg">
  <g transform="matrix(1.0, 0.0, 0.0, 1.0, 45.45, 68.75)">
    <path d="M24.85 -7.15 Q24.6 -4.65 26.0 -0.1 36.3 0.15 40.85 14.75 L37.65 13.0 37.65 16.6 33.25 13.85 Q34.85 17.05 34.9 20.45 L30.5 17.25 30.95 24.1 30.5 23.35 30.6 25.95 Q38.45 37.7 28.5 54.35 36.25 54.95 41.15 60.05 L37.2 60.05 38.85 62.8 31.95 61.7 Q33.0 62.65 33.7 63.9 L29.7 63.9 30.6 67.7 Q21.85 63.3 9.85 63.25 -4.0 63.75 -4.05 58.05 -3.95 51.55 -6.15 52.25 -25.85 62.1 -44.45 53.45 L-43.45 53.35 Q-44.55 50.35 -42.15 47.2 -39.7 48.35 -36.75 51.75 -38.25 47.85 -36.75 43.95 -33.7 44.6 -29.7 49.15 -30.95 44.2 -29.4 40.45 -25.55 41.15 -21.65 44.7 -24.2 41.1 -22.7 37.25 -21.75 36.15 -14.15 38.7 -18.1 35.15 -18.1 32.2 -15.95 30.55 -11.05 31.1 -16.2 28.05 -17.65 25.05 -15.1 22.9 -10.05 22.2 -14.85 18.35 -15.7 15.1 -13.65 13.85 -8.6 13.25 -12.65 11.4 -13.95 8.7 -12.1 7.7 -9.6 7.95 -11.65 6.35 -11.55 1.65 -12.3 8.0 -19.0 7.95 -26.8 7.05 -25.85 -1.95 L-31.55 -2.15 Q-42.95 -5.5 -40.4 -16.1 -30.45 -12.2 -19.1 -10.95 -27.4 -17.7 -26.7 -25.7 -20.8 -23.85 -12.2 -18.7 -7.0 -14.85 -1.9 -6.1 L-2.55 -8.4 Q-7.2 -20.0 -6.95 -29.5 -6.8 -32.6 -6.15 -35.35 -13.65 -38.65 -13.95 -46.05 L-6.6 -40.55 Q-13.45 -50.05 -9.7 -63.9 -4.6 -57.1 5.9 -50.25 8.65 -51.6 11.95 -52.4 L19.65 -53.2 Q24.25 -60.75 25.75 -67.75 30.75 -60.65 30.05 -53.3 L33.55 -58.55 Q35.45 -53.2 31.65 -47.8 L32.35 -46.95 Q35.85 -40.85 39.35 -39.45 46.2 -36.65 43.75 -25.7 41.4 -16.85 26.35 -9.95 25.2 -9.3 24.85 -7.5 M30.05 -53.3 L29.4 -50.0 31.65 -47.8 M19.65 -53.2 Q25.55 -53.0 29.4 -50.0 M33.25 13.85 Q31.55 10.6 28.25 7.6 26.15 5.7 23.45 3.9 M26.0 -0.1 L26.35 0.9 28.25 7.6 M14.15 5.0 Q12.8 12.2 18.85 13.25 L21.25 14.05 Q26.35 16.35 30.5 23.35 M11.2 24.75 Q18.05 26.6 20.9 31.9 22.75 35.15 23.0 39.85 23.25 45.95 19.9 52.9 31.0 41.25 30.6 25.95 M31.95 61.7 Q27.5 57.2 18.1 56.2 L19.9 52.9 M-6.6 -40.55 L-5.15 -38.7 Q-2.1 -46.5 5.9 -50.25 M-5.15 -38.7 L-6.15 -35.35 M-25.85 -1.95 Q-23.05 -2.75 -21.2 -5.35 M-19.1 -10.95 L-14.5 -10.6 Q-11.8 -10.2 -7.45 -3.95 -5.8 -5.35 -1.9 -6.1 -1.3 -2.9 -2.2 0.95 -2.75 3.15 -3.7 5.45 L-5.6 9.6 -7.5 13.75 Q-9.2 17.9 -10.05 22.2 -10.95 26.6 -11.05 31.1 L-10.95 35.45 -10.2 41.7 M-9.6 7.95 L-8.15 8.65 Q-5.85 9.15 -3.7 5.45 M-8.6 13.25 L-7.5 13.75 M-10.95 35.45 L-14.15 38.7 Q-17.65 42.1 -21.65 44.7 -25.45 47.2 -29.7 49.15 -33.05 50.65 -36.75 51.75 L-43.45 53.35 M-7.45 -3.95 Q-5.35 -0.95 -2.2 0.95" fill="none" stroke="#694650" stroke-linecap="round" stroke-linejoin="round" stroke-width="2.0"/>
    <path d="M13.7 -28.45 Q13.25 -44.05 20.6 -40.4 L21.3 -40.55 Q22.9 -40.55 23.95 -38.2 L24.6 -36.65 Q25.1 -34.8 25.1 -32.5 L25.0 -30.15 Q24.65 -28.3 23.95 -26.8 23.0 -24.65 21.55 -24.5 L21.3 -24.5 Q19.7 -24.5 18.6 -26.8 17.7 -28.75 17.5 -31.15 L17.45 -32.5 Q17.45 -34.75 17.95 -36.6 L18.6 -38.2 Q19.45 -39.95 20.6 -40.4" fill="none" stroke="#694650" stroke-linecap="round" stroke-linejoin="round" stroke-width="1.6"/>
    <path d="M36.1 -27.05 L40.15 -26.15 Q38.6 -19.0 34.75 -18.85 32.35 -18.9 36.1 -27.05" fill="none" stroke="#3a3f56" stroke-linecap="round" stroke-linejoin="round" stroke-width="1.6"/>
    <path d="M17.95 -36.6 Q21.3 -34.65 24.6 -36.65 M17.5 -31.15 Q21.25 -25.3 25.0 -30.15" fill="none" stroke="#694650" stroke-linecap="round" stroke-linejoin="round" stroke-width="0.05"/>
  </g>
</svg>
