<?xml version="1.0" encoding="UTF-8" standalone="no"?>
<svg xmlns:xlink="http://www.w3.org/1999/xlink" height="94.7px" width="65.3px" xmlns="http://www.w3.org/2000/svg">
  <g transform="matrix(1.0, 0.0, 0.0, 1.0, 32.65, 47.35)">
    <path d="M-32.65 -43.65 Q-30.85 -45.75 -28.15 -46.6 -23.05 -47.65 -10.1 -28.3 -1.45 -32.7 6.5 -28.7 L22.1 -44.6 Q26.25 -48.8 28.8 -46.6 31.35 -44.35 32.65 -42.1 31.35 -28.45 14.75 -21.1 L18.7 -20.0 15.95 -17.4 Q16.15 -14.6 18.7 -8.85 19.5 -6.9 19.65 -5.05 19.85 -3.0 19.35 -1.1 18.65 1.45 16.75 3.8 L15.4 5.0 15.15 5.15 14.3 5.6 12.45 6.5 8.6 7.3 Q15.5 7.5 15.65 12.1 14.95 13.6 10.65 12.1 8.25 11.55 8.95 16.15 L9.25 17.75 10.1 20.1 Q12.35 26.8 11.6 33.55 17.1 27.85 19.35 30.9 21.35 34.45 13.85 39.4 9.4 47.55 -0.65 47.35 -6.6 47.25 -11.0 44.55 -13.65 42.85 -15.8 40.15 -20.75 32.7 -16.1 23.4 -13.8 18.9 -13.35 14.55 L-13.2 13.4 Q-13.05 10.15 -13.85 6.95 L-14.1 5.9 Q-19.4 3.95 -21.45 0.25 L-22.35 -1.8 -22.95 -3.85 Q-24.25 -9.75 -20.7 -15.6 L-19.95 -16.8 -23.45 -19.55 -17.95 -19.7 Q-32.7 -30.5 -32.65 -43.65" fill="#f4e8ff" fill-rule="evenodd" stroke="none"/>
  </g>
</svg>
