<?xml version="1.0" encoding="UTF-8" standalone="no"?>
<svg xmlns:xlink="http://www.w3.org/1999/xlink" height="63.7px" width="68.25px" xmlns="http://www.w3.org/2000/svg">
  <g transform="matrix(1.0, 0.0, 0.0, 1.0, 33.85, 140.5)">
    <path d="M1.15 -138.2 Q0.65 -140.15 2.9 -140.5 3.9 -140.4 4.8 -139.0 5.5 -140.5 7.05 -140.5 8.95 -139.9 8.5 -138.0 7.7 -135.35 4.9 -133.2 2.2 -135.45 1.15 -138.2 M13.7 -128.5 Q13.8 -130.2 14.5 -131.55 15.35 -133.25 16.55 -133.25 L16.8 -133.2 17.15 -133.15 Q19.9 -134.2 20.65 -130.35 22.4 -120.5 16.45 -121.75 L16.55 -121.75 Q17.8 -121.75 18.65 -123.45 19.5 -125.1 19.5 -127.5 L19.5 -128.35 Q16.55 -126.5 13.7 -128.5 M14.85 -98.2 Q17.1 -91.5 16.35 -84.75 16.2 -82.35 15.65 -80.5 11.65 -75.9 6.15 -77.05 L7.0 -77.95 Q6.75 -80.4 10.5 -82.85 15.05 -87.6 11.7 -89.9 9.15 -91.2 6.1 -87.6 4.5 -92.45 1.55 -93.2 2.7 -102.8 8.95 -103.1 11.9 -103.45 14.85 -98.2 M20.15 -113.3 Q29.95 -119.25 32.8 -116.9 37.6 -112.95 27.95 -107.15 32.0 -103.05 23.45 -102.15 23.1 -96.95 13.7 -102.15 13.0 -106.75 15.4 -106.2 19.7 -104.7 20.4 -106.2 20.25 -110.8 13.35 -111.0 15.5 -111.15 17.2 -111.8 18.25 -112.2 19.05 -112.7 L19.9 -113.15 20.15 -113.3 M-4.0 -127.9 Q-7.05 -126.05 -9.55 -127.65 L-9.55 -127.0 Q-9.55 -124.5 -8.75 -122.8 -7.95 -121.05 -6.75 -121.05 -12.3 -119.35 -12.1 -128.2 -11.4 -134.5 -6.75 -132.95 -5.6 -132.95 -4.75 -131.2 -4.15 -129.8 -4.0 -127.9 M-8.45 -104.9 L-8.75 -103.8 Q-10.05 -98.95 -14.3 -97.95 -24.95 -95.6 -20.65 -102.35 -29.55 -100.7 -31.4 -106.05 -31.4 -109.85 -26.15 -109.3 -34.15 -111.35 -33.85 -115.85 -32.75 -119.15 -27.7 -118.3 -21.9 -118.0 -9.1 -111.35 -8.3 -108.15 -8.45 -104.9" fill="#ffffff" fill-rule="evenodd" stroke="none"/>
    <path d="M16.45 -121.75 Q15.35 -121.85 14.5 -123.45 13.65 -125.1 13.65 -127.5 L13.7 -128.5 Q16.55 -126.5 19.5 -128.35 L19.5 -127.5 Q19.5 -125.1 18.65 -123.45 17.8 -121.75 16.55 -121.75 L16.45 -121.75 M-6.75 -121.05 Q-7.95 -121.05 -8.75 -122.8 -9.55 -124.5 -9.55 -127.0 L-9.55 -127.65 Q-7.05 -126.05 -4.0 -127.9 L-3.95 -127.0 Q-3.95 -124.5 -4.75 -122.8 -5.6 -121.05 -6.75 -121.05" fill="#000000" fill-opacity="0.32941177" fill-rule="evenodd" stroke="none"/>
  </g>
</svg>
