<?xml version="1.0" encoding="UTF-8" standalone="no"?>
<svg xmlns:xlink="http://www.w3.org/1999/xlink" height="10.4px" width="33.15px" xmlns="http://www.w3.org/2000/svg">
  <g transform="matrix(1.0, 0.0, 0.0, 1.0, 16.6, 5.2)">
    <path d="M16.55 -1.6 Q16.55 -0.1 15.85 0.85 15.2 1.9 14.25 1.9 13.2 1.9 12.5 0.85 11.9 -0.1 11.9 -1.6 11.9 -3.05 12.5 -4.15 13.2 -5.2 14.25 -5.2 15.2 -5.2 15.85 -4.15 16.55 -3.05 16.55 -1.6 M-11.95 1.7 Q-11.95 3.15 -12.65 4.2 -13.3 5.2 -14.25 5.2 -15.25 5.2 -15.9 4.2 -16.6 3.15 -16.6 1.7 -16.6 0.3 -15.9 -0.75 -15.25 -1.8 -14.25 -1.8 -13.3 -1.8 -12.65 -0.75 -11.95 0.3 -11.95 1.7" fill="#4e6b60" fill-rule="evenodd" stroke="none"/>
  </g>
</svg>
