<?xml version="1.0" encoding="UTF-8" standalone="no"?>
<svg xmlns:xlink="http://www.w3.org/1999/xlink" height="10.3px" width="41.55px" xmlns="http://www.w3.org/2000/svg">
  <g transform="matrix(1.0, 0.0, 0.0, 1.0, 25.3, 52.6)">
    <path d="M16.25 -50.05 Q16.25 -49.1 15.65 -48.5 15.05 -47.95 14.15 -47.95 13.3 -47.95 12.75 -48.5 12.1 -49.1 12.1 -50.05 12.1 -50.85 12.75 -51.5 13.3 -52.1 14.15 -52.1 15.05 -52.1 15.65 -51.5 16.25 -50.85 16.25 -50.05 M-21.55 -46.35 Q-21.55 -45.6 -22.05 -45.05 -22.65 -44.45 -23.45 -44.45 -24.2 -44.45 -24.8 -45.05 -25.3 -45.6 -25.3 -46.35 -25.3 -47.2 -24.8 -47.7 -24.2 -48.3 -23.45 -48.3 -22.65 -48.3 -22.05 -47.7 -21.55 -47.2 -21.55 -46.35" fill="#ffffff" fill-rule="evenodd" stroke="none"/>
    <path d="M-6.8 -48.1 Q-9.15 -48.5 -9.2 -51.05 -7.85 -46.0 -5.4 -52.0 L-3.8 -51.05 Q-0.15 -49.05 -0.05 -52.6 0.35 -49.6 -2.75 -49.5 L-2.75 -49.45 Q-2.0 -48.15 -2.0 -46.4 -2.0 -44.75 -2.75 -43.6 -3.25 -42.75 -3.8 -42.4 L-4.45 -42.3 Q-5.5 -42.3 -6.25 -43.6 -6.9 -44.75 -6.9 -46.4 L-6.8 -48.1" fill="#ffd4e6" fill-rule="evenodd" stroke="none"/>
  </g>
</svg>
