<?xml version="1.0" encoding="UTF-8" standalone="no"?>
<svg xmlns:xlink="http://www.w3.org/1999/xlink" height="103.7px" width="97.3px" xmlns="http://www.w3.org/2000/svg">
  <g transform="matrix(1.0, 0.0, 0.0, 1.0, 48.65, 51.85)">
    <path d="M-9.85 -15.4 L-3.25 -14.35 Q-3.35 -17.2 -2.25 -20.2 -0.85 -24.5 -1.3 -30.5 -3.4 -48.1 2.3 -50.85 7.2 -49.5 13.4 -42.6 L14.6 -42.95 Q14.7 -43.85 15.95 -44.6 17.2 -45.35 19.1 -45.35 21.1 -45.35 22.35 -44.6 L23.65 -43.3 Q26.2 -42.35 27.8 -41.0 33.55 -50.0 39.4 -50.8 44.6 -48.0 42.05 -27.95 45.0 -20.75 43.35 -13.8 L47.65 -14.5 M14.6 -42.95 L14.6 -42.7 Q14.6 -41.55 15.95 -40.85 L16.45 -40.55 Q17.55 -40.05 19.1 -40.05 20.85 -40.05 22.1 -40.6 L22.35 -40.85 Q23.7 -41.55 23.7 -42.7 L23.65 -43.3 M27.8 -41.0 Q30.15 -38.85 30.65 -35.85 34.35 -42.2 37.05 -42.15 38.45 -38.15 37.05 -32.0 36.0 -34.2 34.35 -34.7 32.9 -35.6 30.7 -34.7 30.85 -33.15 30.4 -31.35 23.35 -33.85 22.1 -40.6 23.1 -32.4 17.8 -28.0 13.35 -33.8 16.2 -40.25 12.9 -33.3 6.75 -33.65 7.15 -35.6 8.2 -38.05 5.7 -34.7 3.35 -33.2 2.0 -40.5 3.7 -42.8 5.65 -42.15 8.2 -38.05 9.6 -41.2 13.4 -42.6 M30.65 -35.85 L30.7 -34.7 M16.45 -40.55 L16.25 -40.35 16.2 -40.25 M-3.25 -14.35 L-3.0 -12.45 Q-2.35 -9.25 -0.15 -6.3 1.0 -4.6 2.7 -3.35 4.4 -2.15 6.7 -1.25 11.7 0.55 19.35 0.4 L19.8 0.35 Q27.0 0.55 32.05 -1.35 34.25 -2.15 35.9 -3.2 40.0 -5.75 42.05 -9.85 L39.85 -10.65 M19.0 -12.05 Q17.2 -10.0 15.05 -12.05 12.95 -10.25 11.65 -12.05 M43.35 -13.8 Q42.95 -11.85 42.05 -9.85 L46.65 -8.15 M43.35 -13.8 L39.9 -13.2 M19.35 0.4 Q19.0 2.5 19.0 4.55 18.9 15.5 29.2 26.3 33.7 19.7 34.25 12.4 34.8 5.8 32.05 -1.35 M19.0 4.55 Q17.05 20.1 8.55 24.55 1.8 16.6 4.65 4.85 L3.35 6.35 3.2 6.5 Q-1.85 12.0 -9.3 17.6 -11.0 18.8 -12.25 20.55 -14.2 23.5 -14.7 27.75 -15.1 31.15 -14.6 35.35 L-14.35 36.5 -14.2 36.9 Q-5.8 53.1 0.95 50.0 3.2 48.25 1.1 44.7 L-0.55 42.15 Q2.0 39.8 2.25 36.5 2.35 34.0 1.1 31.05 M29.2 26.3 Q28.35 31.35 28.7 36.5 29.0 41.05 30.35 45.75 31.35 49.85 28.2 50.25 23.35 50.3 19.55 36.6 L19.05 36.5 18.0 36.5 Q16.05 36.75 16.2 39.8 L16.2 47.8 Q16.2 50.85 14.2 50.85 12.4 51.0 10.6 47.7 L1.1 44.7 M10.6 47.7 Q8.85 44.4 7.15 37.75 L-0.55 42.15 M35.9 -3.2 Q46.0 8.4 42.35 20.65 37.3 17.4 34.25 12.4 M6.7 -1.25 Q5.35 1.95 4.65 4.85 M-3.0 -12.45 L-8.8 -11.0 M-35.3 12.7 Q-32.7 18.4 -26.35 20.75 -21.35 22.45 -14.7 27.75 M-12.25 20.55 Q-21.3 8.6 -31.5 6.05 -41.7 2.6 -46.85 -6.7 -50.65 15.85 -35.95 31.55 -28.15 38.7 -14.6 35.35 M2.7 -3.35 Q-9.0 3.4 -8.8 14.45 L3.2 6.5" fill="none" stroke="#465d55" stroke-linecap="round" stroke-linejoin="round" stroke-width="2.0"/>
  </g>
</svg>
