<?xml version="1.0" encoding="UTF-8" standalone="no"?>
<svg xmlns:xlink="http://www.w3.org/1999/xlink" height="16.95px" width="38.15px" xmlns="http://www.w3.org/2000/svg">
  <g transform="matrix(1.0, 0.0, 0.0, 1.0, 19.05, 8.5)">
    <path d="M-10.35 -7.35 L-10.25 -5.15 Q-10.25 -1.8 -11.5 0.65 -12.8 3.0 -14.65 3.0 -16.45 3.0 -17.8 0.65 -19.05 -1.8 -19.05 -5.15 L-18.75 -8.5 Q-15.55 -4.85 -10.35 -7.35 M15.1 8.45 Q13.7 8.25 12.6 6.2 11.55 3.85 11.55 0.65 L11.75 -2.2 Q15.3 0.7 18.95 -1.85 L19.1 0.65 Q19.1 3.85 18.0 6.2 16.95 8.45 15.3 8.45 L15.1 8.45" fill="#b0fde5" fill-rule="evenodd" stroke="none"/>
  </g>
</svg>
