<?xml version="1.0" encoding="UTF-8" standalone="no"?>
<svg xmlns:xlink="http://www.w3.org/1999/xlink" height="132.0px" width="121.95px" xmlns="http://www.w3.org/2000/svg">
  <g transform="matrix(1.0, 0.0, 0.0, 1.0, 61.0, 66.0)">
    <path d="M-2.7 66.0 Q-12.6 66.0 -26.05 54.85 -45.0 53.3 -48.45 31.9 -51.5 10.55 -61.0 3.15 -47.5 2.7 -42.2 14.85 -34.5 32.5 -27.8 35.05 -22.65 18.1 5.35 9.4 17.25 4.4 15.75 -7.45 11.7 -27.9 11.45 -37.35 9.6 -62.15 26.6 -65.6 40.15 -67.35 45.2 -61.2 49.6 -55.45 55.55 -52.0 62.65 -47.75 60.45 -40.7 57.95 -34.05 45.3 -32.85 50.05 -27.3 40.4 -25.9 34.25 -23.3 40.4 -3.25 43.95 7.6 37.7 26.5 47.2 39.95 47.8 48.6 L47.8 49.7 Q47.45 53.85 37.75 53.75 L38.55 57.35 Q38.95 58.5 38.75 59.45 38.5 62.9 32.8 63.75 29.6 64.2 26.7 61.9 24.05 59.8 21.7 55.5 14.05 57.4 9.6 55.8 10.25 57.7 9.55 59.45 8.85 61.1 7.05 62.7 L6.0 63.45 Q2.1 66.0 -2.7 66.0" fill="#ceffca" fill-rule="evenodd" stroke="none"/>
  </g>
</svg>
