<?xml version="1.0" encoding="UTF-8" standalone="no"?>
<svg xmlns:xlink="http://www.w3.org/1999/xlink" height="18.8px" width="50.7px" xmlns="http://www.w3.org/2000/svg">
  <g transform="matrix(1.0, 0.0, 0.0, 1.0, 25.35, 9.4)">
    <path d="M25.35 -6.9 Q25.0 -2.75 15.3 -2.85 L14.5 -7.15 Q16.9 -10.1 20.5 -4.1 20.95 -13.05 25.35 -6.9 M-12.9 2.85 Q-13.6 4.5 -15.4 6.1 L-16.45 6.85 Q-20.35 9.4 -25.15 9.4 -26.65 -0.45 -17.25 6.3 -21.75 -3.35 -12.9 2.85 M16.3 2.85 Q16.05 6.3 10.35 7.15 7.15 7.6 4.25 5.3 7.15 -2.65 10.85 6.1 10.2 -2.25 16.3 2.85" fill="#ffffff" fill-rule="evenodd" stroke="none"/>
  </g>
</svg>
