<?xml version="1.0" encoding="UTF-8" standalone="no"?>
<svg xmlns:xlink="http://www.w3.org/1999/xlink" height="122.4px" width="115.85px" xmlns="http://www.w3.org/2000/svg">
  <g transform="matrix(1.0, 0.0, 0.0, 1.0, 57.9, 61.2)">
    <path d="M29.4 -37.7 Q31.6 -50.35 21.4 -57.15 12.65 -63.2 3.45 -57.15 -1.3 -53.85 -3.9 -48.45 -6.15 -43.85 -6.6 -37.7 L-6.55 -36.7 -6.45 -35.95 Q-5.05 -28.05 5.1 -23.3 10.65 -20.7 17.75 -20.35 20.6 -27.1 25.55 -30.55 24.55 -36.85 29.4 -37.7 L56.95 -14.55 25.55 -30.55 M14.4 8.5 Q12.3 13.05 9.9 16.25 20.05 16.8 19.3 -2.85 L22.0 4.15 Q23.7 -6.1 20.1 -12.7 L13.3 -1.8 Q6.95 -9.25 -1.8 -13.75 -12.6 -19.45 -12.0 -28.75 -27.2 -35.45 -36.4 -32.1 -56.8 -23.15 -56.9 8.8 L-52.4 -0.15 Q-52.45 13.6 -42.4 22.3 -43.0 19.45 -42.85 16.55 M17.75 -20.35 L19.95 -20.3 Q21.6 -18.0 20.65 -13.6 L20.1 -12.7 M-12.0 -28.75 L-11.6 -31.25 -11.2 -31.9 Q-20.4 -37.3 -17.95 -49.2 -12.45 -46.75 -9.1 -41.65 -8.85 -48.3 -6.85 -50.5 L-3.9 -48.45 M-13.25 -39.9 L-8.85 -34.5 Q-7.5 -35.6 -6.45 -35.95 M-11.2 -31.9 L-8.85 -34.5 M-9.1 -41.65 Q-7.55 -39.45 -6.55 -36.7 M9.9 16.25 Q5.3 22.5 -0.25 23.6 4.15 19.75 2.9 15.9 -1.5 24.2 -11.6 26.6 L-8.9 22.85 -12.45 24.3 Q-17.5 44.45 -7.25 54.65 L-12.0 53.4 -12.0 58.45 -16.3 54.35 -20.25 57.05 Q-19.05 39.9 -20.25 25.55 L-24.9 25.25 -26.7 26.85 -28.0 23.6 -29.05 24.9 Q-33.5 49.75 -24.0 57.5 L-29.95 56.65 -29.95 60.2 -34.05 56.8 -36.75 59.5 -37.2 28.5 -39.45 23.6 -40.5 28.4 Q-41.8 25.35 -42.4 22.3 M-29.05 24.9 L-32.65 29.3 -34.45 26.05 -36.95 29.2 -37.2 28.5 M-19.55 7.8 Q-18.2 18.65 -24.9 25.25 M-12.45 24.3 Q-16.2 25.5 -20.25 25.55" fill="none" stroke="#694159" stroke-linecap="round" stroke-linejoin="round" stroke-width="2.0"/>
  </g>
</svg>
