<?xml version="1.0" encoding="UTF-8" standalone="no"?>
<svg xmlns:xlink="http://www.w3.org/1999/xlink" height="37.1px" width="88.55px" xmlns="http://www.w3.org/2000/svg">
  <g transform="matrix(1.0, 0.0, 0.0, 1.0, 44.3, 18.55)">
    <path d="M29.0 -5.05 Q27.35 -6.9 25.45 -8.05 36.8 -17.6 43.15 -16.45 46.35 -9.2 40.25 0.9 38.55 -0.25 36.3 -0.75 L31.95 -1.2 29.0 -5.05 M37.75 17.0 Q37.75 17.65 36.95 18.1 L35.0 18.55 33.05 18.1 Q32.3 17.65 32.3 17.0 32.3 16.35 33.05 15.9 33.9 15.45 35.0 15.45 L36.95 15.9 Q37.75 16.35 37.75 17.0 M-7.95 -5.55 L-8.2 -5.3 Q-12.9 -4.5 -15.95 -2.85 -17.6 -1.95 -18.75 -0.7 -23.5 -9.35 -19.25 -18.55 -12.25 -18.55 -4.0 -8.35 -6.1 -7.35 -7.95 -5.55 M-15.35 16.0 Q-15.35 16.6 -16.25 17.05 L-18.35 17.45 -20.55 17.05 Q-21.35 16.6 -21.35 16.0 -21.35 15.4 -20.55 14.95 L-18.35 14.5 Q-17.15 14.5 -16.25 14.95 -15.35 15.4 -15.35 16.0 M-33.05 10.35 Q-36.2 10.75 -38.05 12.2 -46.65 4.75 -43.4 -1.2 -41.1 -2.55 -40.0 1.4 -38.5 7.85 -33.05 10.35" fill="#f5d8e5" fill-rule="evenodd" stroke="none"/>
  </g>
</svg>
