<?xml version="1.0" encoding="UTF-8" standalone="no"?>
<svg xmlns:xlink="http://www.w3.org/1999/xlink" height="113.3px" width="91.4px" xmlns="http://www.w3.org/2000/svg">
  <g transform="matrix(1.0, 0.0, 0.0, 1.0, 45.7, 56.65)">
    <path d="M20.05 -56.65 L21.85 -56.6 Q25.55 -56.3 28.65 -54.75 34.85 -51.0 39.15 -49.85 38.35 -47.3 40.1 -46.75 43.15 -45.6 43.95 -47.6 45.15 -45.4 44.45 -40.5 L44.25 -38.9 Q43.05 -31.7 36.65 -24.55 33.25 -21.0 33.25 -15.45 29.6 -14.35 25.9 -13.9 25.2 -23.65 28.65 -28.75 32.15 -34.35 33.3 -37.95 36.0 -45.85 31.25 -48.0 19.6 -52.35 20.05 -56.65 M35.65 3.9 Q35.6 8.95 34.25 13.85 40.1 18.4 44.25 29.85 47.15 39.8 44.25 42.4 43.55 43.0 42.35 43.2 L41.4 43.2 Q37.7 42.85 37.4 37.3 37.6 27.65 30.85 23.4 28.15 32.25 29.25 44.45 29.55 47.8 33.75 51.2 38.1 55.4 32.1 56.15 L29.85 56.3 Q26.5 56.55 24.6 54.6 L22.05 52.9 22.35 54.3 Q22.05 55.3 19.0 55.9 L17.0 56.15 3.8 56.6 -0.2 56.6 Q-1.2 51.7 9.5 47.25 19.05 40.25 19.55 31.45 19.05 26.5 16.3 23.4 17.45 18.55 21.1 14.3 27.55 6.25 25.2 -6.05 31.45 -3.9 35.65 3.9 M-40.65 17.55 Q-39.65 -4.55 -45.7 -15.15 -36.25 -13.45 -28.6 -4.6 L-29.2 -11.9 Q-20.45 -1.7 -17.9 18.65 L-22.1 16.0 Q-26.2 33.9 -33.95 16.0 -36.75 23.55 -40.65 17.55" fill="#ffffff" fill-rule="evenodd" stroke="none"/>
  </g>
</svg>
