<?xml version="1.0" encoding="UTF-8" standalone="no"?>
<svg xmlns:xlink="http://www.w3.org/1999/xlink" height="34.0px" width="67.75px" xmlns="http://www.w3.org/2000/svg">
  <g transform="matrix(1.0, 0.0, 0.0, 1.0, 33.9, 17.0)">
    <path d="M20.3 17.0 Q14.7 11.4 13.95 5.1 L13.85 4.1 Q28.15 -0.85 10.35 -4.2 18.6 -7.75 21.0 -12.75 21.7 -14.45 21.9 -16.25 27.8 -18.3 29.3 -14.9 30.2 -11.2 27.0 -7.55 32.4 -8.8 33.75 -4.45 34.9 2.4 21.8 4.4 30.45 12.95 22.0 12.05 22.6 16.25 20.3 17.0 M-20.35 17.0 Q-22.65 16.25 -22.05 12.05 -30.5 12.95 -22.05 4.4 -34.95 2.35 -33.8 -4.45 -32.5 -8.8 -27.05 -7.55 -30.25 -11.2 -29.35 -14.9 -27.9 -18.3 -22.05 -16.25 -21.85 -14.45 -21.15 -12.75 -18.7 -7.75 -10.4 -4.2 -28.2 -0.85 -13.9 4.1 L-14.05 5.1 Q-14.75 11.4 -20.35 17.0" fill="#fdbbd2" fill-rule="evenodd" stroke="none"/>
  </g>
</svg>
