<?xml version="1.0" encoding="UTF-8" standalone="no"?>
<svg xmlns:xlink="http://www.w3.org/1999/xlink" height="122.1px" width="88.85px" xmlns="http://www.w3.org/2000/svg">
  <g transform="matrix(1.0, 0.0, 0.0, 1.0, 44.4, 61.05)">
    <path d="M42.15 -60.9 Q46.45 -62.6 42.7 -47.4 41.65 -44.1 37.55 -42.45 41.5 -38.3 40.3 -34.2 45.55 -28.3 41.05 -23.7 43.55 -15.7 36.6 -14.05 35.8 -10.55 30.5 -10.1 34.95 -5.25 32.05 -0.3 39.35 9.65 31.3 17.6 35.75 27.6 28.05 34.05 27.65 37.95 22.1 38.65 21.75 40.8 20.25 41.8 21.7 45.3 19.2 48.3 20.9 51.05 18.65 52.5 21.45 58.75 17.05 59.85 13.4 60.8 10.45 51.6 8.75 50.7 8.6 49.0 8.35 50.4 6.95 51.6 7.1 53.1 6.25 53.85 8.55 59.55 5.25 60.45 L5.05 60.45 Q1.2 61.2 -0.75 53.85 -1.6 53.1 -1.4 51.6 -4.2 48.6 -2.35 45.05 L-2.75 44.4 Q-7.6 46.65 -11.4 42.95 -12.45 43.65 -13.5 44.0 -11.8 47.4 -14.7 49.3 -13.4 53.0 -15.55 54.5 -13.55 60.0 -17.45 60.6 -20.2 61.2 -22.35 54.95 -23.4 54.6 -23.75 52.6 -25.45 51.55 -25.15 49.4 L-26.0 51.8 Q-26.0 53.15 -26.5 53.9 -25.0 59.15 -28.15 60.95 -31.8 61.9 -33.9 54.75 L-34.3 54.35 Q-37.3 52.9 -35.2 49.5 -37.1 48.25 -35.95 44.9 -38.9 45.95 -39.6 41.4 -45.5 37.55 -41.8 32.7 -46.45 27.45 -42.85 22.3 -46.45 15.9 -39.6 12.2 -38.4 2.45 -29.5 3.95 -26.15 -3.45 -17.75 0.45 -14.45 -5.1 -8.2 -2.75 -8.1 -9.1 -1.85 -12.05 -8.35 -15.0 -6.15 -20.5 -10.85 -24.45 -7.2 -30.25 -11.75 -35.65 -6.9 -40.6 L-5.25 -42.6 Q-16.25 -49.8 -14.45 -55.75 -12.9 -59.6 -8.95 -57.4 -0.75 -52.35 3.45 -51.15 4.15 -52.75 5.05 -53.7 7.8 -56.65 12.65 -53.9 18.65 -59.2 23.6 -52.35 28.1 -55.25 32.05 -50.9 L40.6 -60.05 42.15 -60.9 M-19.25 43.0 L-19.3 42.95 -19.75 43.4 -19.25 43.0" fill="#d0f4ff" fill-rule="evenodd" stroke="none"/>
  </g>
</svg>
