<?xml version="1.0" encoding="UTF-8" standalone="no"?>
<svg xmlns:xlink="http://www.w3.org/1999/xlink" height="7.1px" width="34.7px" xmlns="http://www.w3.org/2000/svg">
  <g transform="matrix(1.0, 0.0, 0.0, 1.0, 17.35, 3.55)">
    <path d="M-17.35 0.05 Q-17.35 -1.45 -16.75 -2.5 -16.2 -3.55 -15.35 -3.55 -14.55 -3.55 -13.95 -2.5 -13.4 -1.45 -13.4 0.05 -13.4 1.45 -13.95 2.45 -14.55 3.55 -15.35 3.55 -16.2 3.55 -16.75 2.45 -17.35 1.45 -17.35 0.05 M13.5 0.05 Q13.5 -1.45 14.05 -2.4 14.65 -3.35 15.4 -3.35 16.2 -3.35 16.8 -2.4 17.35 -1.45 17.35 0.05 17.35 1.45 16.8 2.4 16.2 3.35 15.4 3.35 14.65 3.35 14.05 2.4 13.5 1.45 13.5 0.05" fill="#634770" fill-rule="evenodd" stroke="none"/>
  </g>
</svg>
