<?xml version="1.0" encoding="UTF-8" standalone="no"?>
<svg xmlns:xlink="http://www.w3.org/1999/xlink" height="90.05px" width="57.7px" xmlns="http://www.w3.org/2000/svg">
  <g transform="matrix(1.0, 0.0, 0.0, 1.0, 28.85, 45.05)">
    <path d="M12.6 -36.45 Q12.2 -35.3 9.35 -34.6 5.5 -29.75 0.0 -33.85 -5.5 -29.75 -9.3 -34.6 -12.2 -35.3 -12.6 -36.45 -12.95 -37.7 -10.85 -39.35 -11.45 -43.65 -6.3 -42.6 -4.55 -46.25 0.0 -44.45 4.55 -46.25 6.35 -42.6 11.45 -43.65 10.85 -39.35 12.95 -37.7 12.6 -36.45 M-13.8 -7.1 Q-10.05 -11.75 -5.35 -6.0 -4.3 -10.75 0.0 -10.6 4.3 -10.75 5.35 -6.0 10.05 -11.75 13.8 -7.1 L15.8 -7.2 Q21.7 -7.3 23.45 -2.0 L24.1 1.0 Q27.15 2.75 27.65 5.1 28.05 7.1 26.65 9.45 31.05 13.8 26.65 18.65 29.15 24.7 24.35 28.1 25.8 35.75 19.75 38.5 18.0 42.65 14.3 42.45 12.85 42.35 11.05 41.55 L8.55 43.8 Q4.4 46.55 0.0 43.0 -4.4 46.55 -8.55 43.8 L-11.05 41.55 Q-12.85 42.35 -14.3 42.45 -18.0 42.65 -19.75 38.5 -25.8 35.75 -24.35 28.1 -29.1 24.7 -26.65 18.65 -31.05 13.8 -26.65 9.45 -28.05 7.1 -27.65 5.1 -27.15 2.75 -24.1 1.0 L-23.45 -2.0 Q-21.7 -7.3 -15.75 -7.2 L-13.8 -7.1 M10.2 5.85 Q10.6 7.4 11.45 8.3 12.25 9.2 13.1 9.0 13.85 8.8 14.2 7.55 14.45 6.3 14.05 4.85 13.6 3.3 12.8 2.4 11.95 1.55 11.2 1.7 10.35 1.9 10.1 3.2 9.85 4.4 10.2 5.85 M-10.2 5.85 Q-9.85 4.4 -10.1 3.2 -10.35 1.9 -11.15 1.7 -11.95 1.55 -12.85 2.4 -13.6 3.3 -14.05 4.85 -14.45 6.3 -14.2 7.55 -13.85 8.8 -13.1 9.0 -12.25 9.2 -11.45 8.3 -10.65 7.4 -10.2 5.85" fill="#d5f6ff" fill-rule="evenodd" stroke="none"/>
  </g>
</svg>
