<?xml version="1.0" encoding="UTF-8" standalone="no"?>
<svg xmlns:xlink="http://www.w3.org/1999/xlink" height="50.9px" width="56.2px" xmlns="http://www.w3.org/2000/svg">
  <g transform="matrix(1.0, 0.0, 0.0, 1.0, 15.8, 161.45)">
    <path d="M29.65 -159.5 Q29.65 -158.65 29.3 -158.05 28.9 -157.5 28.4 -157.5 27.8 -157.5 27.45 -158.05 27.05 -158.65 27.05 -159.5 27.05 -160.3 27.45 -160.9 27.8 -161.45 28.4 -161.45 L29.3 -160.9 Q29.65 -160.3 29.65 -159.5 M40.4 -158.7 Q40.4 -157.95 40.0 -157.45 39.7 -156.85 39.1 -156.85 38.6 -156.85 38.3 -157.45 37.9 -157.95 37.9 -158.7 37.9 -159.5 38.3 -160.05 L39.1 -160.55 Q39.7 -160.55 40.0 -160.05 40.4 -159.5 40.4 -158.7" fill="#395643" fill-rule="evenodd" stroke="none"/>
    <path d="M15.25 -130.55 Q17.2 -129.05 18.1 -127.2 6.3 -111.05 -15.8 -110.55 -15.6 -112.3 -15.75 -114.15 -4.0 -114.2 3.8 -119.55 11.3 -124.35 15.25 -130.55" fill="#fcf6dc" fill-rule="evenodd" stroke="none"/>
  </g>
</svg>
