<?xml version="1.0" encoding="UTF-8" standalone="no"?>
<svg xmlns:xlink="http://www.w3.org/1999/xlink" height="113.5px" width="103.95px" xmlns="http://www.w3.org/2000/svg">
  <g transform="matrix(1.0, 0.0, 0.0, 1.0, 52.0, 56.75)">
    <path d="M9.0 -36.45 L20.3 -53.1 Q23.8 -58.7 25.9 -55.75 31.2 -48.55 21.4 -35.9 28.7 -39.5 30.75 -36.85 33.05 -33.55 22.95 -27.45 27.9 -26.95 27.05 -24.7 25.9 -21.25 16.95 -21.7 L16.4 -24.7 Q14.8 -31.25 12.85 -33.4 L9.0 -36.45 M-1.85 -30.5 L-2.7 -32.0 Q-4.65 -30.55 -4.25 -31.55 -3.95 -32.55 -3.25 -32.95 -4.75 -35.8 -2.15 -33.75 0.7 -35.3 -1.15 -32.6 L-0.7 -31.6 1.75 -32.4 3.5 -31.3 4.3 -32.85 Q2.35 -34.25 3.4 -34.45 4.4 -34.6 4.85 -33.8 7.4 -36.1 6.1 -33.25 8.95 -31.6 5.55 -32.3 L4.6 -30.7 6.05 -29.3 5.1 -26.95 6.95 -26.7 Q7.75 -29.5 8.1 -28.45 8.55 -27.5 8.1 -26.55 11.5 -25.9 7.7 -24.95 6.25 -21.25 6.4 -25.1 L4.85 -25.1 3.65 -23.7 1.6 -23.7 1.6 -21.95 Q4.05 -22.25 3.2 -21.6 2.4 -20.9 1.65 -20.9 1.5 -17.75 0.3 -20.75 -2.95 -21.6 0.5 -22.0 L0.5 -23.5 -1.45 -23.75 -2.5 -25.95 -4.15 -24.95 Q-2.6 -22.5 -3.65 -22.95 -4.75 -23.45 -5.2 -24.25 -8.3 -22.45 -6.05 -25.5 -7.85 -28.85 -4.85 -26.7 L-2.9 -27.65 Q-3.7 -28.6 -3.65 -29.5 L-1.85 -30.5 M2.55 -28.9 L2.85 -28.0 4.25 -29.4 2.55 -28.9 M1.95 -26.3 L3.4 -25.3 2.65 -26.95 1.95 -26.3 M0.2 -29.4 L1.85 -29.4 1.15 -31.15 0.2 -29.4 M-1.95 -12.55 Q1.5 -15.7 4.9 -12.55 L1.8 -7.9 -1.95 -12.55 M48.05 -32.95 Q49.2 -33.6 50.15 -33.8 54.95 -35.6 47.1 -20.7 57.35 -18.35 39.65 -6.65 47.65 -0.15 30.85 1.25 35.05 9.9 17.35 4.85 29.6 5.6 29.95 0.4 40.35 -1.35 38.65 -8.85 49.5 -15.95 44.65 -20.45 49.35 -28.9 48.05 -32.95 M13.25 24.75 Q13.15 19.9 16.65 23.4 19.2 18.7 20.6 23.4 23.4 20.6 23.05 24.65 21.6 30.75 17.8 30.1 14.1 29.6 13.25 24.75 M5.7 11.0 Q7.5 4.45 11.9 4.7 16.6 5.05 15.7 13.55 14.55 23.05 8.85 30.65 3.05 28.6 -3.4 17.1 -7.9 7.65 -1.5 5.6 2.85 4.75 5.7 11.0 M2.35 38.05 Q6.1 39.05 11.05 38.9 12.55 49.95 7.7 44.05 5.15 46.9 3.85 45.85 3.2 45.3 2.85 43.75 -4.0 46.1 2.35 38.05 M28.35 42.8 Q27.5 40.45 29.95 36.1 L30.6 36.4 Q39.4 40.5 28.35 42.8 30.85 54.5 21.8 51.45 L21.6 51.7 Q17.8 60.85 11.05 53.45 16.15 50.0 21.8 51.45 23.25 46.3 28.35 42.8 M2.35 50.6 Q5.65 49.8 8.95 53.4 0.0 59.7 1.8 52.5 L2.35 50.6 M-15.7 -21.8 Q-25.75 -18.7 -26.45 -21.15 -27.4 -23.75 -21.3 -26.45 -31.5 -30.7 -30.7 -34.2 -29.15 -38.0 -21.05 -34.15 -29.3 -52.45 -23.6 -56.5 -21.05 -57.6 -18.4 -52.85 -12.6 -41.65 -6.8 -35.9 L-9.0 -34.15 Q-14.1 -30.45 -15.55 -23.7 L-15.7 -21.8 M-51.6 12.7 Q-46.6 16.45 -38.65 15.05 -35.3 19.45 -29.1 16.4 -21.05 18.45 -16.3 13.15 -11.95 14.75 -6.65 10.0 -8.45 15.05 -10.4 16.4 -12.4 17.8 -14.65 15.45 -22.45 23.15 -29.1 18.85 -35.7 23.5 -39.05 17.8 -49.8 18.9 -51.9 15.05 -52.2 13.75 -51.6 12.7 M-0.55 -27.0 L-0.95 -24.95 0.5 -26.35 -0.55 -27.0 M-1.95 -29.0 L-0.25 -28.05 -0.05 -29.0 -1.95 -29.0" fill="#ffffff" fill-rule="evenodd" stroke="none"/>
  </g>
</svg>
