<?xml version="1.0" encoding="UTF-8" standalone="no"?>
<svg xmlns:xlink="http://www.w3.org/1999/xlink" height="53.3px" width="98.9px" xmlns="http://www.w3.org/2000/svg">
  <g transform="matrix(1.0, 0.0, 0.0, 1.0, 49.45, 26.65)">
    <path d="M17.4 -24.65 L17.4 -24.95 Q17.5 -23.45 18.45 -22.5 19.55 -21.45 21.05 -21.45 22.55 -21.45 23.6 -22.5 24.65 -23.55 24.65 -25.1 L24.65 -25.65 Q24.8 -24.95 25.3 -24.4 L25.6 -23.9 Q26.8 -22.75 28.35 -22.75 30.05 -22.75 31.15 -23.9 32.25 -25.0 32.3 -26.65 37.95 -25.75 43.5 -20.1 46.5 -17.15 49.45 -16.75 44.9 -11.0 35.05 -14.15 40.2 -4.3 35.7 5.05 L32.4 2.95 Q25.3 -2.25 23.8 -10.7 23.0 3.2 14.1 8.15 5.15 3.2 4.35 -10.7 2.9 -2.25 -4.2 2.95 -5.75 4.0 -7.55 5.05 -12.0 -4.3 -6.9 -14.15 -16.75 -11.0 -21.3 -16.75 -18.3 -17.15 -15.35 -20.1 -9.8 -25.75 -4.15 -26.45 -4.1 -25.0 -2.95 -23.9 -1.9 -22.75 -0.2 -22.75 1.35 -22.75 2.55 -23.9 3.3 -24.65 3.55 -25.65 L3.55 -25.1 Q3.55 -24.15 3.85 -23.45 L4.55 -22.5 Q5.65 -21.45 7.15 -21.45 8.65 -21.45 9.75 -22.5 10.35 -23.15 10.55 -23.9 L10.65 -24.35 10.85 -24.65 10.8 -24.0 Q10.8 -22.65 11.75 -21.75 12.55 -20.9 13.75 -20.75 L14.0 -20.75 Q15.6 -20.9 16.5 -21.75 L17.25 -23.15 17.4 -24.0 17.4 -24.65 M-9.3 21.6 Q-23.5 30.1 -36.65 24.25 L-31.75 21.75 Q-59.5 9.35 -43.75 -20.95 -36.3 -10.8 -29.75 -6.55 -30.6 -11.15 -29.75 -13.3 -24.05 -4.95 -9.55 8.15 -10.85 8.3 -11.85 9.05 -13.0 9.9 -13.0 11.2 -13.0 12.5 -11.85 13.4 L-11.5 13.65 -11.2 13.75 Q-10.25 14.35 -8.9 14.35 -7.3 14.35 -6.1 13.4 L-5.9 13.25 -5.6 14.7 -7.85 14.35 Q-9.65 14.35 -11.1 15.35 -12.35 16.45 -12.35 18.0 -12.35 19.6 -11.1 20.65 L-9.3 21.6" fill="#b0f6c9" fill-rule="evenodd" stroke="none"/>
  </g>
</svg>
