<?xml version="1.0" encoding="UTF-8" standalone="no"?>
<svg xmlns:xlink="http://www.w3.org/1999/xlink" height="9.2px" width="34.1px" xmlns="http://www.w3.org/2000/svg">
  <g transform="matrix(1.0, 0.0, 0.0, 1.0, 11.65, 97.6)">
    <path d="M-11.65 -92.35 Q-11.65 -94.0 -10.95 -95.15 -10.3 -96.4 -9.35 -96.4 -8.4 -96.4 -7.75 -95.15 -7.05 -94.0 -7.05 -92.35 -7.05 -90.75 -7.75 -89.55 -8.4 -88.4 -9.35 -88.4 -10.3 -88.4 -10.95 -89.55 -11.65 -90.75 -11.65 -92.35 M18.3 -93.85 Q18.3 -95.45 18.9 -96.5 19.55 -97.6 20.35 -97.6 21.25 -97.6 21.85 -96.5 22.45 -95.45 22.45 -93.85 22.45 -92.3 21.85 -91.2 21.25 -90.15 20.35 -90.15 19.55 -90.15 18.9 -91.2 18.3 -92.3 18.3 -93.85" fill="#000000" fill-opacity="0.5568628" fill-rule="evenodd" stroke="none"/>
  </g>
</svg>
