<?xml version="1.0" encoding="UTF-8" standalone="no"?>
<svg xmlns:xlink="http://www.w3.org/1999/xlink" height="67.3px" width="65.15px" xmlns="http://www.w3.org/2000/svg">
  <g transform="matrix(1.0, 0.0, 0.0, 1.0, 32.6, 33.65)">
    <path d="M-3.05 27.8 Q-7.05 28.65 -11.7 20.45 L-15.1 21.1 -16.85 22.7 Q-19.25 25.85 -13.1 32.0 L-16.75 31.35 -16.75 33.15 -20.2 31.45 -21.35 33.65 Q-28.7 24.85 -31.25 16.25 -35.65 0.25 -25.8 -7.25 -17.65 -13.25 -12.35 -18.7 -14.7 -31.05 -7.6 -33.25 -0.4 -35.45 4.25 -24.95 11.7 -27.5 17.55 -23.5 19.95 -28.15 23.05 -29.2 25.5 -30.0 28.5 -28.5 36.25 -23.8 29.15 -10.25 31.25 2.5 23.5 9.45 L23.05 9.95 Q14.8 18.05 21.55 29.15 L18.6 29.15 17.55 30.95 15.6 29.35 13.25 30.65 Q13.85 24.85 11.95 18.95 7.5 21.15 3.15 20.7 1.7 25.6 4.6 31.45 L1.85 30.85 0.65 32.65 -1.5 30.95 -3.1 32.45 Q-2.9 30.0 -3.05 27.8" fill="#ace5bb" fill-rule="evenodd" stroke="none"/>
  </g>
</svg>
