<?xml version="1.0" encoding="UTF-8" standalone="no"?>
<svg xmlns:xlink="http://www.w3.org/1999/xlink" height="112.95px" width="110.45px" xmlns="http://www.w3.org/2000/svg">
  <g transform="matrix(1.0, 0.0, 0.0, 1.0, 55.2, 56.5)">
    <path d="M34.0 -33.0 L31.55 -34.85 30.0 -35.85 25.65 -38.0 Q21.7 -39.45 18.2 -38.95 L17.0 -38.75 Q14.1 -38.15 11.35 -36.15 L10.35 -35.35 8.65 -33.85 M25.65 -38.0 Q25.95 -44.9 29.9 -46.15 35.5 -48.65 36.3 -51.75 38.05 -47.95 35.2 -43.75 L30.0 -35.85 M17.0 -38.75 Q15.4 -46.4 9.35 -47.0 4.7 -47.85 2.05 -52.5 0.15 -47.35 5.65 -43.65 11.65 -40.9 11.35 -36.15 M22.5 -0.3 Q24.45 0.95 26.3 -0.3 L26.3 -2.1 M26.2 -2.8 L28.2 -4.1 24.0 -4.1 26.2 -2.8 M31.55 -34.85 Q44.7 -55.9 49.25 -55.5 56.6 -51.75 53.15 -34.45 50.55 -24.7 40.8 -22.8 42.6 -14.6 40.7 -2.25 L40.2 -1.0 Q38.85 2.15 35.5 3.95 32.3 5.65 27.4 6.2 L27.4 10.75 24.0 13.75 24.0 16.55 Q26.75 18.85 23.15 19.55 23.4 23.9 21.95 27.65 21.25 29.5 20.15 31.15 25.4 40.35 26.45 45.7 27.4 50.1 25.5 51.9 23.15 53.15 19.4 49.35 16.15 45.9 11.95 38.65 L8.75 40.4 Q11.5 45.2 12.35 48.6 13.65 53.45 11.15 55.1 8.35 56.7 4.1 51.45 L1.2 47.2 Q-5.65 36.3 -19.15 38.3 -22.95 41.05 -29.0 40.4 -31.5 45.15 -34.05 47.9 -38.0 52.05 -42.0 51.75 -44.35 50.85 -41.85 44.6 -40.55 41.3 -37.85 36.45 -39.7 31.1 -38.55 24.1 -41.05 26.8 -44.3 26.3 -46.25 25.95 -48.45 24.6 -56.15 20.0 -49.05 18.45 -57.25 9.45 -52.35 1.9 -48.9 6.95 -44.3 10.15 -40.05 13.2 -34.8 14.55 -33.3 12.2 -31.45 10.5 -25.6 5.55 -15.0 6.75 -9.2 7.0 -5.45 5.3 -4.1 4.7 -2.95 3.9 -1.45 2.65 -0.55 0.9 L-0.05 -1.0 -0.05 -1.1 Q0.45 -4.6 -1.05 -8.55 -3.55 -17.2 0.35 -24.4 -12.2 -28.6 -16.45 -41.45 -18.0 -49.65 -15.5 -51.95 -10.85 -55.55 -1.85 -46.25 L10.35 -35.35 M49.25 -55.5 Q55.05 -35.7 40.2 -25.3 L40.8 -22.8 M27.4 6.2 L26.7 6.25 21.15 6.0 21.15 10.45 Q23.45 11.2 24.0 13.75 M23.15 19.55 L22.25 19.7 Q22.5 22.65 20.0 22.85 18.1 22.65 18.1 19.85 12.45 19.75 15.65 16.45 15.15 11.25 18.3 10.55 8.0 10.5 -2.95 3.9 M22.25 19.7 L21.3 19.75 18.1 19.85 M-0.05 -1.1 Q4.35 3.9 18.5 5.45 16.85 4.95 15.4 4.05 12.4 2.5 10.35 -0.3 M7.35 36.7 L8.75 40.4 M20.15 31.15 Q17.45 35.1 12.5 38.35 L11.95 38.65 M21.15 6.0 L18.5 5.45 M21.15 10.45 L18.3 10.55 M26.45 45.7 Q24.5 48.7 19.4 49.35 M12.35 48.6 Q9.35 51.4 4.1 51.45 M30.15 -0.3 Q27.95 1.3 26.3 -0.3 M-37.85 21.05 L-38.55 24.1 M-34.8 14.55 L-36.05 17.1 M-12.65 24.4 Q-13.75 34.5 -19.15 38.3 M-34.05 47.9 Q-39.85 49.05 -41.85 44.6 M-15.5 -51.95 Q-10.7 -37.5 1.6 -28.85 L-2.05 -27.65 0.35 -24.4" fill="none" stroke="#4d3947" stroke-linecap="round" stroke-linejoin="round" stroke-width="2.0"/>
    <path d="M17.35 -15.1 Q16.2 -20.85 11.65 -20.05 12.75 -19.85 13.6 -18.15 14.35 -16.5 14.45 -14.3 L14.45 -13.4 Q14.45 -10.75 13.6 -8.75 12.6 -6.75 11.2 -6.75 L11.0 -6.75 10.9 -6.85 Q9.75 -7.05 8.9 -8.75 7.95 -10.75 7.95 -13.4 L7.95 -14.05 Q8.1 -16.4 8.9 -18.15 9.9 -20.1 11.2 -20.1 L11.4 -20.1 11.65 -20.05 M40.2 -14.8 Q39.4 -19.35 35.75 -17.5 36.9 -17.5 37.75 -15.8 38.45 -14.3 38.5 -12.15 L38.5 -11.8 Q38.5 -9.4 37.75 -7.75 36.9 -6.1 35.7 -6.1 34.6 -6.1 33.8 -7.75 33.0 -9.4 33.0 -11.8 L33.0 -12.15 Q33.05 -14.3 33.8 -15.8 34.6 -17.5 35.7 -17.5 L35.75 -17.5" fill="none" stroke="#4d3947" stroke-linecap="round" stroke-linejoin="round" stroke-width="1.6"/>
  </g>
</svg>
