<?xml version="1.0" encoding="UTF-8" standalone="no"?>
<svg xmlns:xlink="http://www.w3.org/1999/xlink" height="11.05px" width="12.75px" xmlns="http://www.w3.org/2000/svg">
  <g transform="matrix(1.0, 0.0, 0.0, 1.0, 0.6, 90.85)">
    <path d="M8.35 -87.25 Q8.35 -88.75 8.85 -89.75 9.4 -90.85 10.2 -90.85 11.05 -90.85 11.6 -89.75 12.15 -88.75 12.15 -87.25 12.15 -85.8 11.6 -84.8 11.05 -83.7 10.2 -83.7 9.4 -83.7 8.85 -84.8 8.35 -85.8 8.35 -87.25" fill="#414962" fill-rule="evenodd" stroke="none"/>
    <path d="M-0.6 -81.9 Q-0.6 -82.65 0.4 -83.3 1.4 -83.9 2.8 -83.9 4.2 -83.9 5.2 -83.3 6.15 -82.65 6.15 -81.9 6.15 -81.0 5.2 -80.45 4.2 -79.8 2.8 -79.8 1.4 -79.8 0.4 -80.45 -0.6 -81.0 -0.6 -81.9" fill="#f9d8ec" fill-rule="evenodd" stroke="none"/>
  </g>
</svg>
