<?xml version="1.0" encoding="UTF-8" standalone="no"?>
<svg xmlns:xlink="http://www.w3.org/1999/xlink" height="133.25px" width="63.75px" xmlns="http://www.w3.org/2000/svg">
  <g transform="matrix(1.0, 0.0, 0.0, 1.0, 31.85, 66.65)">
    <path d="M-29.05 -64.8 L-26.8 -65.65 Q-27.15 -59.35 -28.65 -56.45 -31.15 -58.0 -31.4 -63.65 L-29.05 -64.8 M-13.9 -65.6 Q-12.25 -65.15 -10.55 -64.35 L-8.75 -63.45 Q-9.45 -57.7 -11.85 -56.6 -13.55 -59.05 -13.9 -65.6 M-23.85 -66.35 Q-20.55 -66.9 -17.25 -66.35 -17.55 -54.8 -19.55 -52.65 -23.0 -56.4 -23.85 -66.35 M-31.4 -23.9 Q-25.65 -21.6 -16.8 -22.05 -11.35 -22.55 -7.4 -24.15 L-7.4 -20.5 Q-16.8 -15.9 -31.85 -20.4 -31.45 -22.2 -31.4 -23.9 M-3.55 41.0 Q-5.05 36.15 3.85 35.3 -17.75 29.05 6.35 24.6 -3.95 19.7 14.3 16.7 24.75 19.55 29.2 29.3 22.95 26.0 19.05 27.25 42.0 45.35 23.9 66.6 22.35 59.4 18.55 52.55 19.25 58.85 15.8 64.0 13.0 39.0 -3.55 41.0" fill="#cdf2ff" fill-rule="evenodd" stroke="none"/>
  </g>
</svg>
