<?xml version="1.0" encoding="UTF-8" standalone="no"?>
<svg xmlns:xlink="http://www.w3.org/1999/xlink" height="30.1px" width="31.5px" xmlns="http://www.w3.org/2000/svg">
  <g transform="matrix(1.0, 0.0, 0.0, 1.0, 12.15, 143.7)">
    <path d="M6.5 -115.85 Q6.5 -114.9 5.85 -114.25 5.25 -113.6 4.25 -113.6 3.35 -113.6 2.75 -114.25 2.1 -114.9 2.1 -115.85 2.1 -116.75 2.75 -117.45 3.35 -118.1 4.25 -118.1 5.25 -118.1 5.85 -117.45 6.5 -116.75 6.5 -115.85" fill="#f5fbcc" fill-rule="evenodd" stroke="none"/>
    <path d="M19.35 -140.0 Q19.35 -138.4 18.75 -137.3 18.15 -136.2 17.3 -136.2 16.4 -136.2 15.85 -137.3 15.2 -138.4 15.2 -140.0 15.2 -141.5 15.85 -142.6 16.4 -143.7 17.3 -143.7 18.15 -143.7 18.75 -142.6 19.35 -141.5 19.35 -140.0 M-8.3 -139.65 Q-8.3 -138.05 -8.9 -137.0 -9.4 -135.9 -10.25 -135.9 -11.0 -135.9 -11.55 -137.0 -12.15 -138.05 -12.15 -139.65 -12.15 -141.2 -11.55 -142.3 -11.0 -143.45 -10.25 -143.45 -9.4 -143.45 -8.9 -142.3 -8.3 -141.2 -8.3 -139.65" fill="#232731" fill-opacity="0.75686276" fill-rule="evenodd" stroke="none"/>
  </g>
</svg>
