<?xml version="1.0" encoding="UTF-8" standalone="no"?>
<svg xmlns:xlink="http://www.w3.org/1999/xlink" height="22.8px" width="37.0px" xmlns="http://www.w3.org/2000/svg">
  <g transform="matrix(1.0, 0.0, 0.0, 1.0, 7.35, 109.5)">
    <path d="M24.65 -109.5 Q26.75 -109.35 28.05 -107.85 23.7 -104.05 22.15 -106.0 20.3 -107.75 24.65 -109.5" fill="#000000" fill-rule="evenodd" stroke="none"/>
    <path d="M0.0 -88.8 Q0.0 -87.9 -1.1 -87.35 -2.15 -86.7 -3.7 -86.7 -5.25 -86.7 -6.25 -87.35 -7.35 -87.9 -7.35 -88.8 -7.35 -89.65 -6.25 -90.25 -5.25 -90.85 -3.7 -90.85 -2.15 -90.85 -1.1 -90.25 0.0 -89.65 0.0 -88.8" fill="#ffffff" fill-rule="evenodd" stroke="none"/>
    <path d="M3.3 -97.05 Q3.75 -95.4 3.5 -94.05 3.3 -92.7 2.55 -92.5 1.8 -92.3 0.9 -93.35 0.05 -94.35 -0.4 -96.1 -0.85 -97.75 -0.65 -99.1 -0.4 -100.45 0.4 -100.6 1.15 -100.8 2.0 -99.8 2.85 -98.75 3.3 -97.05" fill="#000000" fill-opacity="0.76862746" fill-rule="evenodd" stroke="none"/>
    <path d="M27.6 -92.75 Q24.4 -93.25 24.6 -99.55 27.4 -101.65 29.65 -100.15 29.4 -97.3 27.6 -92.75" fill="#fde6f2" fill-rule="evenodd" stroke="none"/>
  </g>
</svg>
