<?xml version="1.0" encoding="UTF-8" standalone="no"?>
<svg xmlns:xlink="http://www.w3.org/1999/xlink" height="7.35px" width="13.8px" xmlns="http://www.w3.org/2000/svg">
  <g transform="matrix(1.0, 0.0, 0.0, 1.0, 0.6, 0.6)">
    <path d="M3.4 0.25 L1.4 1.8 Q1.8 0.6 2.7 0.05 L3.4 0.25" fill="#312933" fill-rule="evenodd" stroke="none"/>
    <path d="M12.25 4.9 L12.45 4.95 12.6 3.15 7.05 1.5 Q7.4 2.5 7.35 3.3 L7.55 3.75 Q8.1 4.75 9.6 5.8 L10.05 4.4 9.9 2.7 10.85 4.6 12.1 6.15 12.25 4.9 12.0 3.3 M7.05 1.5 L4.4 0.6 3.75 2.1 3.65 2.4 Q3.45 3.0 3.4 3.7 L5.35 3.0 5.95 2.65 5.45 1.2 M5.95 2.65 L6.25 3.3 6.45 4.8 7.25 3.6 7.35 3.3 M7.25 3.6 L7.55 3.75 M6.25 3.3 L5.35 3.0 M3.4 0.25 L2.7 0.05 Q1.8 0.6 1.4 1.8 L3.4 0.25 4.4 0.6 M1.4 1.8 Q1.4 1.6 0.9 1.9 L0.0 2.15 0.9 2.3 3.2 2.25 3.75 2.1 M3.2 2.25 L3.65 2.4 M10.05 4.4 L10.85 4.6" fill="none" stroke="#000000" stroke-linecap="round" stroke-linejoin="round" stroke-width="1.2000000000000002"/>
  </g>
</svg>
