<?xml version="1.0" encoding="UTF-8" standalone="no"?>
<svg xmlns:xlink="http://www.w3.org/1999/xlink" height="26.75px" width="18.0px" xmlns="http://www.w3.org/2000/svg">
  <g transform="matrix(1.0, 0.0, 0.0, 1.0, 0.75, 13.35)">
    <path d="M13.95 5.3 L16.5 -1.9 13.65 -6.0 9.7 -10.15 6.65 -12.6 5.9 -11.25 Q5.0 -9.35 5.0 -7.65 L11.65 1.2 12.65 2.8 13.6 4.6 13.95 5.3 13.25 7.2 11.15 12.65 7.75 10.0 4.3 7.95 0.0 5.95 Q-0.05 3.05 1.65 0.55 L5.35 0.15 9.65 0.5 11.65 1.2 M13.25 7.2 L10.5 6.25 9.6 6.05 7.05 5.6 4.7 5.5 3.8 5.5 0.4 5.9 0.0 5.95" fill="none" stroke="#000000" stroke-linecap="round" stroke-linejoin="round" stroke-width="1.5"/>
  </g>
</svg>
