<?xml version="1.0" encoding="UTF-8" standalone="no"?>
<svg xmlns:xlink="http://www.w3.org/1999/xlink" height="40.15px" width="93.9px" xmlns="http://www.w3.org/2000/svg">
  <g transform="matrix(1.0, 0.0, 0.0, 1.0, 46.95, 20.25)">
    <path d="M7.45 1.05 Q9.35 -0.25 11.85 -1.1 16.15 -2.6 22.25 -2.7 L28.4 -2.5 23.8 0.85 Q33.8 -1.25 36.1 -5.3 L37.0 -7.5 22.0 -18.55 Q11.4 -15.4 0.95 -16.15 -9.5 -16.95 -20.25 -19.25 L-22.05 -16.75 Q-28.3 -15.2 -34.3 -10.7 L-33.85 -8.1 Q-32.4 -2.55 -25.05 -1.2 L-28.05 -5.1 Q-24.35 -5.6 -21.1 -5.2 -16.65 -4.7 -12.9 -2.55 -10.7 -1.3 -8.75 0.45 L-14.2 3.1 Q0.35 6.8 13.2 3.7 L7.45 1.05" fill="none" stroke="#000000" stroke-linecap="round" stroke-linejoin="round" stroke-width="2.0"/>
    <path d="M28.4 -2.5 Q26.4 -8.95 17.75 -11.5 M-8.75 0.45 Q-6.95 -0.75 -7.15 -9.45 M7.45 1.05 L8.2 -9.0 M13.2 3.7 L11.85 -1.1 M23.8 0.85 L22.25 -2.7 M-25.05 -1.2 L-21.1 -5.2 M-27.65 -5.8 Q-27.05 -8.9 -18.95 -13.2 M-14.2 3.1 L-12.9 -2.55" fill="none" stroke="#000000" stroke-linecap="round" stroke-linejoin="round" stroke-width="1.0"/>
    <path d="M23.8 0.85 L31.45 9.35 Q32.15 9.15 33.95 10.45 33.65 7.8 34.3 6.0 L39.35 6.7 Q38.7 3.7 39.25 1.85 41.35 2.05 46.35 -0.1 39.5 -2.15 36.1 -5.3 M13.2 3.7 L13.2 3.75 16.65 14.3 17.6 16.7 Q19.2 16.6 20.1 13.0 22.1 14.65 24.8 15.7 25.3 13.65 26.3 11.5 L32.6 13.1 31.45 9.35 M-14.2 3.1 L-14.2 15.75 Q-12.9 16.1 -11.0 18.1 -9.3 16.2 -6.95 14.45 -4.65 16.05 -2.4 18.1 L2.2 14.15 6.8 17.65 Q8.7 14.95 10.35 13.5 L15.1 17.0 16.65 14.3 M-33.85 -8.1 Q-37.55 -4.8 -46.35 -2.1 -44.1 0.45 -40.4 0.75 -40.35 2.65 -41.3 4.9 -38.15 4.65 -36.15 4.9 -35.95 7.8 -34.8 9.4 L-25.05 -1.2 M-34.8 9.4 L-36.5 11.45 Q-34.3 12.3 -29.6 10.35 -28.05 13.45 -25.95 15.7 L-19.75 14.3 Q-17.95 18.2 -14.2 19.3 L-14.2 15.75" fill="none" stroke="#000000" stroke-linecap="round" stroke-linejoin="round" stroke-opacity="0.6" stroke-width="1.2000000000000002"/>
  </g>
</svg>
