<?xml version="1.0" encoding="UTF-8" standalone="no"?>
<svg xmlns:xlink="http://www.w3.org/1999/xlink" height="41.85px" width="87.75px" xmlns="http://www.w3.org/2000/svg">
  <g transform="matrix(1.0, 0.0, 0.0, 1.0, 43.85, 20.9)">
    <path d="M42.85 6.5 Q40.15 11.85 28.85 14.8 L27.7 15.05 25.8 10.2 Q18.25 10.25 12.95 12.35 L14.65 19.05 Q-1.2 23.3 -19.15 18.15 L-17.5 10.35 Q-21.95 7.5 -27.1 6.7 L-27.6 6.65 -32.45 12.2 Q-41.55 10.35 -43.35 2.65 L-43.85 -1.0 -39.6 -4.25 Q-34.35 -7.85 -25.05 -16.9 L-23.35 -18.55 -21.65 -20.9 Q-8.1 -17.55 1.0 -16.75 13.45 -15.75 20.05 -20.25 L22.1 -18.75 43.9 3.5 42.85 6.5" fill="#c94fa6" fill-rule="evenodd" stroke="none"/>
  </g>
</svg>
