<?xml version="1.0" encoding="UTF-8" standalone="no"?>
<svg xmlns:xlink="http://www.w3.org/1999/xlink" height="7.75px" width="32.85px" xmlns="http://www.w3.org/2000/svg">
  <g transform="matrix(1.0, 0.0, 0.0, 1.0, 11.7, 12.95)">
    <path d="M18.9 -12.95 L19.7 -12.75 Q20.6 -12.4 20.95 -11.3 21.3 -10.35 21.0 -9.3 L20.7 -8.8 19.65 -8.1 18.05 -8.25 Q17.5 -7.2 16.6 -6.95 L14.7 -7.05 Q13.6 -7.55 13.3 -8.55 L13.2 -8.85 Q13.0 -9.7 13.45 -10.6 L14.25 -11.5 14.85 -11.9 16.75 -11.85 Q17.1 -12.55 17.9 -12.8 L18.9 -12.95 M-10.85 -9.7 L-9.4 -10.45 -8.85 -10.5 Q-7.75 -10.5 -6.85 -9.75 -6.2 -10.35 -5.25 -10.35 -4.3 -10.35 -3.5 -9.7 L-3.4 -9.6 Q-2.65 -8.85 -2.65 -7.8 L-2.65 -7.45 Q-2.8 -6.6 -3.4 -6.0 -4.2 -5.25 -5.25 -5.25 -6.2 -5.25 -6.9 -5.85 -7.8 -5.2 -8.85 -5.2 -9.95 -5.2 -10.85 -6.0 -11.7 -6.7 -11.7 -7.85 L-11.65 -8.2 Q-11.55 -9.05 -10.85 -9.7" fill="#ffffff" fill-rule="evenodd" stroke="none"/>
  </g>
</svg>
