<?xml version="1.0" encoding="UTF-8" standalone="no"?>
<svg xmlns:xlink="http://www.w3.org/1999/xlink" height="70.8px" width="133.95px" xmlns="http://www.w3.org/2000/svg">
  <g transform="matrix(1.0, 0.0, 0.0, 1.0, 68.0, -20.95)">
    <path d="M59.65 47.55 L61.05 49.9 59.85 57.2 59.7 57.2 55.8 56.75 54.9 64.35 51.8 63.1 50.85 66.25 40.1 58.5 40.7 60.55 Q45.1 64.7 49.3 67.45 51.7 68.95 53.95 70.0 L55.7 76.7 Q51.85 80.25 46.7 83.8 L41.9 81.25 42.55 84.4 Q33.4 89.75 18.0 91.2 L18.0 86.25 Q27.35 77.15 34.6 68.05 L38.35 63.05 37.85 60.35 34.05 65.75 Q28.2 73.6 20.85 81.5 L16.45 79.5 12.75 82.65 Q-0.75 75.7 -14.95 63.9 L-19.4 60.05 -19.55 62.3 -15.05 66.35 Q-2.15 77.1 16.55 86.3 L16.55 91.35 Q1.2 92.6 -20.1 90.1 L-20.15 86.15 -26.05 89.15 Q-40.45 87.4 -51.05 81.25 L-48.45 74.75 Q-35.65 68.75 -26.05 61.75 L-23.15 59.6 -22.85 57.3 -25.65 59.45 Q-34.4 65.75 -44.85 71.3 L-46.9 67.35 -49.5 68.0 Q-50.4 61.1 -51.65 59.6 L-51.55 59.05 Q-58.45 61.25 -62.85 61.85 L-63.6 54.95 -61.1 48.3 Q-60.4 48.75 -58.75 49.05 L-57.25 49.2 Q-53.1 49.8 -48.9 50.95 -46.8 51.55 -44.65 52.3 L-43.55 52.7 Q-37.5 54.45 -26.35 52.3 L-27.0 53.25 -22.55 55.45 -21.5 52.8 -20.3 53.65 -19.6 53.25 -19.05 52.85 -19.05 55.85 -14.65 54.05 -15.4 53.0 -12.1 51.05 -11.15 52.2 -6.5 49.3 -7.9 47.55 -5.25 45.8 -4.25 47.1 -0.25 44.6 -1.85 42.95 0.3 41.45 1.3 42.45 4.7 39.4 3.25 38.05 5.1 36.25 6.45 37.65 9.5 34.75 8.15 33.45 Q9.35 32.7 10.5 31.9 L11.5 33.1 15.05 29.95 13.4 28.55 15.5 26.7 16.0 27.25 17.75 25.1 15.8 22.85 16.35 22.25 17.45 20.95 18.2 21.9 20.2 24.55 17.85 27.25 20.1 29.45 20.9 28.85 22.45 31.0 21.75 31.75 24.25 34.75 24.9 34.25 26.55 36.4 25.75 36.95 28.85 41.0 29.35 40.65 31.1 43.3 30.4 43.65 32.65 48.25 34.0 47.35 35.8 50.2 34.8 51.55 38.0 54.5 39.5 52.1 42.0 54.3 44.65 51.55 43.0 50.3 44.7 47.9 45.5 48.35 52.95 48.6 56.0 48.4 Q58.4 48.15 59.65 47.55 M16.75 81.4 L19.35 82.85 17.15 84.95 14.6 83.45 16.75 81.4 M65.35 59.1 L65.95 61.25 Q64.6 66.3 60.6 71.4 L56.95 75.45 55.95 69.85 57.25 58.55 65.35 59.1 M62.45 52.4 L64.7 57.35 61.75 57.3 62.45 52.4 M54.55 68.4 L52.25 67.05 52.7 64.85 54.55 66.0 54.55 68.4 M-52.5 80.4 L-55.55 78.35 Q-67.8 72.25 -68.0 66.65 L-66.85 63.7 Q-58.45 63.6 -52.1 61.15 L-52.3 61.8 -50.45 74.0 -52.5 80.4 M-49.7 70.25 L-48.4 69.45 -48.15 69.25 -46.75 71.65 -48.85 72.95 -49.7 70.25 M-66.25 62.0 L-64.5 57.3 -64.5 57.35 -64.05 62.0 -66.25 62.0" fill="#000000" fill-opacity="0.24705882" fill-rule="evenodd" stroke="none"/>
  </g>
</svg>
