<?xml version="1.0" encoding="UTF-8" standalone="no"?>
<svg xmlns:xlink="http://www.w3.org/1999/xlink" height="20.3px" width="74.9px" xmlns="http://www.w3.org/2000/svg">
  <g transform="matrix(1.0, 0.0, 0.0, 1.0, 0.0, 0.0)">
    <path d="M72.45 0.0 Q74.8 1.05 74.9 2.3 74.85 3.75 71.5 5.45 70.25 12.7 64.9 11.8 61.05 16.55 56.1 13.75 52.75 18.35 48.9 16.4 46.15 19.55 43.35 19.55 41.15 19.55 39.0 17.55 34.3 18.65 30.65 15.95 28.6 19.85 23.85 18.85 22.4 19.9 21.05 20.2 19.9 20.45 18.9 20.2 17.2 19.85 15.65 18.45 9.05 20.95 7.35 16.6 3.0 15.9 2.9 11.75 0.0 9.55 0.0 7.2 0.0 5.35 1.75 3.45 2.15 5.45 4.2 8.2 12.45 19.65 23.15 14.25 29.0 11.4 35.2 14.25 43.6 18.0 48.25 13.9 53.55 7.95 59.55 9.7 65.6 11.4 72.45 0.0" fill="#ffffff" fill-rule="evenodd" stroke="none"/>
  </g>
</svg>
