<?xml version="1.0" encoding="UTF-8" standalone="no"?>
<svg xmlns:xlink="http://www.w3.org/1999/xlink" height="83.45px" width="139.8px" xmlns="http://www.w3.org/2000/svg">
  <g transform="matrix(1.0, 0.0, 0.0, 1.0, 69.9, 41.7)">
    <path d="M-7.6 -40.45 Q-3.25 -40.2 2.55 -40.45 L12.05 -41.15 Q19.85 -42.25 20.8 -40.5 25.5 -40.5 28.3 -36.6 L28.6 -35.75 Q38.8 -29.55 45.85 -23.3 49.7 -20.65 48.2 -19.85 L47.45 -19.8 Q50.3 -17.65 48.85 -16.85 56.45 -12.0 62.15 -7.3 L63.1 -6.5 63.65 -6.05 65.15 -4.75 66.5 -3.5 67.3 -2.7 68.0 -2.05 69.35 -0.65 Q71.95 4.3 62.7 11.0 L65.5 17.35 60.15 24.6 60.75 25.85 Q53.5 31.4 45.25 33.45 L45.95 35.65 Q29.8 42.8 1.95 41.6 L-28.45 39.5 -27.95 37.65 Q-42.85 34.7 -59.75 24.75 L-58.8 23.0 Q-63.45 19.85 -65.05 17.6 L-63.0 13.25 Q-72.05 5.35 -69.2 4.1 -67.0 1.25 -64.45 -1.45 L-63.1 -2.8 -62.35 -3.5 -61.15 -4.6 Q-55.55 -9.9 -48.35 -14.45 -49.35 -15.85 -49.3 -16.5 -48.25 -18.75 -43.55 -21.05 -46.6 -19.7 -48.65 -20.5 -48.2 -22.1 -43.85 -24.3 -38.65 -33.1 -20.3 -41.7 L-7.6 -40.45" fill="#7780e0" fill-rule="evenodd" stroke="none"/>
  </g>
</svg>
