<?xml version="1.0" encoding="UTF-8" standalone="no"?>
<svg xmlns:xlink="http://www.w3.org/1999/xlink" height="39.4px" width="31.8px" xmlns="http://www.w3.org/2000/svg">
  <g transform="matrix(1.0, 0.0, 0.0, 1.0, 15.9, 19.7)">
    <path d="M-4.9 -18.2 L1.4 -16.15 Q5.75 -18.9 8.5 -19.7 10.4 -17.45 11.9 -12.85 L15.9 -11.5 15.8 -9.9 10.6 -12.1 Q9.25 -15.6 7.85 -17.6 4.8 -16.7 1.4 -14.35 L-5.9 -16.65 -4.9 -18.2 M-6.7 -15.55 L1.4 -13.15 Q4.35 -15.1 7.2 -16.15 8.45 -14.5 9.2 -11.45 L9.5 -11.5 9.25 -11.35 15.6 -8.2 Q14.2 4.3 11.85 6.1 L7.2 7.8 Q8.8 12.55 5.3 13.1 L3.75 18.45 Q2.25 20.35 -1.0 19.4 -11.3 16.55 -15.2 13.05 -16.55 11.85 -15.2 9.3 L-13.0 6.1 Q-14.65 4.4 -14.25 2.3 -13.95 0.7 -10.25 -1.7 -11.4 -3.95 -11.7 -5.7 -13.05 -8.1 -7.25 -14.6 L-6.7 -15.55" fill="#b2f0fa" fill-rule="evenodd" stroke="none"/>
  </g>
</svg>
