<?xml version="1.0" encoding="UTF-8" standalone="no"?>
<svg xmlns:xlink="http://www.w3.org/1999/xlink" height="15.65px" width="11.05px" xmlns="http://www.w3.org/2000/svg">
  <g transform="matrix(1.0, 0.0, 0.0, 1.0, 5.55, 7.8)">
    <path d="M3.85 -5.6 Q5.3 -3.55 5.5 -0.85 L0.75 -0.85 0.75 -7.8 Q2.55 -7.5 3.85 -5.6 M3.85 5.55 Q2.55 7.5 0.75 7.85 L0.75 1.1 5.45 1.1 Q5.2 3.65 3.85 5.55 M-4.0 -5.6 Q-2.65 -7.5 -0.8 -7.8 L-0.8 -0.85 -5.55 -0.85 Q-5.4 -3.55 -4.0 -5.6 M-4.0 5.55 Q-5.3 3.65 -5.55 1.1 L-0.8 1.1 -0.8 7.85 Q-2.65 7.5 -4.0 5.55" fill="#424483" fill-rule="evenodd" stroke="none"/>
  </g>
</svg>
