<?xml version="1.0" encoding="UTF-8" standalone="no"?>
<svg xmlns:xlink="http://www.w3.org/1999/xlink" height="20.75px" width="26.8px" xmlns="http://www.w3.org/2000/svg">
  <g transform="matrix(1.0, 0.0, 0.0, 1.0, 13.4, 10.4)">
    <path d="M4.0 -4.05 L4.4 -4.05 6.95 -8.55 Q7.15 -8.9 7.45 -8.9 L11.95 -8.55 12.15 -8.5 12.25 -8.3 12.15 -8.1 9.95 -4.35 12.65 -4.7 Q12.75 0.5 11.55 3.25 L8.8 3.4 11.8 9.2 11.9 9.4 11.75 9.55 11.5 9.6 7.0 9.45 Q6.7 9.45 6.55 9.2 L4.1 4.1 3.9 4.1 1.1 9.0 Q0.95 9.3 0.6 9.25 L-4.1 9.15 -4.35 9.05 -4.5 8.85 -4.35 8.6 -1.65 3.25 -12.2 2.05 Q-13.05 -1.5 -12.2 -4.7 L-1.65 -4.05 -3.95 -9.15 -4.05 -9.35 -3.95 -9.6 -3.7 -9.6 1.05 -9.3 1.55 -8.95 4.0 -4.05 4.1 -3.8 4.25 -3.8 4.4 -4.05 M9.95 -4.35 L7.25 0.2 7.25 0.35 8.8 3.4 M-1.65 3.25 L0.05 -0.2 -1.65 -4.05" fill="none" stroke="#000000" stroke-linecap="round" stroke-linejoin="round" stroke-width="1.5"/>
  </g>
</svg>
