<?xml version="1.0" encoding="UTF-8" standalone="no"?>
<svg xmlns:xlink="http://www.w3.org/1999/xlink" height="26.2px" width="24.6px" xmlns="http://www.w3.org/2000/svg">
  <g transform="matrix(1.0, 0.0, 0.0, 1.0, 12.3, 13.1)">
    <path d="M4.75 -10.15 L6.3 -9.75 6.65 -9.6 8.3 -8.85 Q9.35 -7.9 9.2 -6.9 L9.2 -0.15 9.2 -0.05 9.15 0.25 Q8.7 1.65 5.35 3.9 4.8 4.25 4.25 4.75 2.5 6.5 0.3 9.55 -5.35 10.55 -9.5 9.55 M4.0 -6.9 Q6.6 -4.7 7.95 -0.05 M-7.4 6.2 Q-5.9 7.6 -2.75 6.95 0.2 6.4 1.55 4.65" fill="none" stroke="#202020" stroke-linecap="round" stroke-linejoin="round" stroke-opacity="0.75686276" stroke-width="1.0"/>
    <path d="M-9.5 9.55 L-9.5 8.05 Q-11.55 8.8 -11.55 11.75 -8.85 12.95 1.55 11.75 4.45 6.85 7.4 4.9 10.55 2.6 11.55 0.85 L11.55 -6.9 Q11.55 -9.6 9.55 -11.05 7.4 -12.55 3.35 -12.35 3.1 -10.15 4.7 -10.15 L4.75 -10.15 M-9.5 9.55 Q-9.3 8.15 -7.35 6.3 L-7.45 6.15 -7.65 5.75 -7.8 5.35 -8.4 3.15 Q-8.7 -0.8 -5.45 -4.05 -3.1 -6.35 0.65 -6.9 2.55 -7.1 4.0 -6.9 L4.15 -7.95 4.25 -8.25 4.7 -10.15 M-7.45 6.15 L-7.4 6.2" fill="none" stroke="#202020" stroke-linecap="round" stroke-linejoin="round" stroke-width="1.5"/>
  </g>
</svg>
