<?xml version="1.0" encoding="UTF-8" standalone="no"?>
<svg xmlns:xlink="http://www.w3.org/1999/xlink" height="155.0px" width="75.65px" xmlns="http://www.w3.org/2000/svg">
  <g transform="matrix(1.0, 0.0, 0.0, 1.0, 37.85, 77.5)">
    <path d="M28.3 45.3 Q31.25 45.95 33.7 47.9 L34.65 48.75 Q38.45 52.6 37.65 57.55 36.8 62.55 33.25 66.5 30.5 69.4 27.15 70.25 L24.85 70.7 Q22.1 70.85 19.7 69.7 L19.35 69.5 Q17.75 68.65 16.25 67.2 15.05 66.0 14.2 64.6 12.45 61.65 12.45 58.0 12.45 52.6 16.25 48.75 20.1 44.95 25.5 44.95 L25.85 44.95 28.3 45.3 M-18.85 70.45 Q-18.1 66.6 -14.05 64.55 -14.7 71.35 -10.15 77.45 L-11.3 77.5 Q-13.85 77.45 -15.95 76.4 -19.7 74.4 -18.85 70.45 M-19.25 48.2 Q-19.75 46.2 -19.7 44.05 -15.1 49.35 -4.75 49.85 L-6.2 51.6 Q-8.45 54.05 -10.65 54.8 L-14.0 54.9 Q-15.7 54.45 -16.85 53.15 -18.5 51.4 -19.25 48.2 M-11.15 12.15 L-14.75 8.85 -16.0 7.35 Q-18.35 4.25 -18.85 2.0 -13.75 1.0 -10.5 3.7 -7.3 6.35 -10.35 12.85 L-11.15 12.15 M-37.75 -67.05 L-37.55 -67.6 Q-37.15 -68.6 -36.3 -68.8 -33.45 -69.35 -25.9 -62.2 -28.85 -57.9 -36.95 -57.85 L-37.65 -61.7 Q-38.0 -65.95 -37.75 -67.05 M-6.55 -76.2 L-6.2 -76.65 -5.1 -77.45 Q-2.6 -78.0 1.2 -70.4 -2.8 -61.85 -8.65 -70.0 L-8.35 -71.25 Q-7.15 -75.3 -6.55 -76.2" fill="#d4ffef" fill-rule="evenodd" stroke="none"/>
  </g>
</svg>
