<?xml version="1.0" encoding="UTF-8" standalone="no"?>
<svg xmlns:xlink="http://www.w3.org/1999/xlink" height="158.6px" width="164.15px" xmlns="http://www.w3.org/2000/svg">
  <g transform="matrix(1.0, 0.0, 0.0, 1.0, 82.1, 79.3)">
    <path d="M3.35 -78.2 Q6.35 -77.7 9.65 -75.6 19.35 -70.25 28.8 -62.45 L1.0 -22.8 Q41.15 6.95 80.95 40.9 82.3 65.45 61.5 78.3 L55.75 77.9 51.6 77.0 47.25 75.6 -23.15 8.0 -36.35 32.05 -38.2 35.25 -42.15 35.65 -70.2 11.2 Q-57.05 -5.25 -47.25 -23.15 -66.25 -39.0 -81.1 -53.7 -77.25 -64.35 -65.45 -72.55 L-58.5 -73.25 -28.6 -45.8 Q-15.6 -63.15 -10.1 -75.15 L-0.2 -78.15 Q1.5 -78.4 3.35 -78.2 L-23.15 -40.8 -28.6 -45.8 M13.35 -50.45 L6.95 -49.0 -7.3 -28.6 -3.9 -16.6 Q29.7 18.5 58.75 39.5 L69.8 40.7 71.9 60.3 54.0 59.35 50.3 46.35 -7.8 -11.6 -21.15 -12.5 -34.85 8.15 -34.3 13.55 -43.7 20.3 -45.8 7.75 -40.25 4.95 -24.1 -18.2 -27.55 -29.05 -49.5 -47.8 -55.6 -46.4 -60.1 -58.9 -48.45 -58.65 -47.3 -53.0 -23.75 -32.75 -11.0 -33.0 2.15 -51.05 -0.25 -59.4 12.55 -64.7 13.35 -50.45 M-47.25 -23.15 L-37.25 -22.3 -37.25 -22.35 -72.7 -55.45 -77.35 -54.45 -77.4 -54.45 -81.1 -53.7 M-58.5 -73.25 Q-66.9 -64.45 -72.7 -55.45 M-37.25 -22.3 L-36.75 -22.3 M61.5 78.3 L-19.05 0.45 -23.15 8.0 M-70.2 11.2 L-57.05 12.25 -37.25 -22.3 M-57.05 12.25 L-57.4 12.65 -36.35 32.05" fill="none" stroke="#000000" stroke-linecap="round" stroke-linejoin="round" stroke-width="2.0"/>
  </g>
</svg>
