<?xml version="1.0" encoding="UTF-8" standalone="no"?>
<svg xmlns:xlink="http://www.w3.org/1999/xlink" height="117.75px" width="120.9px" xmlns="http://www.w3.org/2000/svg">
  <g transform="matrix(1.0, 0.0, 0.0, 1.0, 60.45, 58.85)">
    <path d="M38.7 -41.7 L48.1 -18.6 Q52.95 -4.45 60.45 9.95 58.4 16.25 45.65 15.6 L46.15 22.2 46.15 22.7 46.2 24.4 Q45.85 26.2 48.45 26.55 52.45 37.65 52.9 40.35 51.6 46.75 44.6 50.2 L43.05 50.9 43.4 54.8 Q31.3 51.7 19.2 50.9 L16.25 42.35 12.6 50.9 Q-6.95 49.3 -27.25 58.5 L-28.3 58.9 -28.4 55.45 -31.95 54.6 Q-35.65 53.05 -38.4 51.1 L-38.65 49.85 -38.55 51.0 Q-42.9 47.75 -45.05 41.85 -45.2 40.05 -44.15 35.7 L-41.05 35.25 -41.55 31.5 -41.8 29.35 -42.4 25.0 -42.1 21.05 Q-51.65 14.45 -60.45 16.4 -55.5 8.65 -50.9 0.6 -44.3 -11.0 -40.85 -20.05 -38.05 -27.25 -33.6 -32.75 -27.45 -40.5 -18.2 -44.85 L-15.45 -46.95 Q-5.95 -58.8 12.9 -58.85 30.05 -58.9 38.7 -41.7" fill="#51bb72" fill-rule="evenodd" stroke="none"/>
  </g>
</svg>
