<?xml version="1.0" encoding="UTF-8" standalone="no"?>
<svg xmlns:xlink="http://www.w3.org/1999/xlink" height="229.2px" width="231.95px" xmlns="http://www.w3.org/2000/svg">
  <g transform="matrix(1.0, 0.0, 0.0, 1.0, 115.95, 114.6)">
    <path d="M-55.45 -91.85 Q-81.8 -87.6 -89.0 -66.65 -92.4 -84.65 -74.45 -104.9 -70.5 -109.4 -66.3 -111.8 -57.2 -117.05 -46.9 -112.5 -32.6 -98.5 -55.45 -91.85 M-114.4 74.45 L-115.35 69.95 Q-118.4 52.15 -105.8 49.35 -91.65 46.25 -85.4 76.55 -79.1 106.8 -60.65 114.6 -97.05 113.8 -114.4 74.45 M-72.45 -99.4 Q-65.65 -99.45 -69.5 -94.9 -61.75 -96.25 -63.0 -102.45 -67.65 -104.75 -72.45 -99.4 M107.35 14.25 Q105.2 17.55 107.35 20.0 L110.8 20.2 Q112.85 13.8 107.35 14.25 M115.3 19.35 Q111.35 35.15 94.65 42.15 L68.05 50.9 Q84.3 37.6 87.95 19.35 93.2 1.25 107.55 3.65 118.5 8.1 115.3 19.35 M95.65 14.45 Q99.3 15.5 102.85 12.4 L99.15 9.75 Q93.45 10.55 95.65 14.45 M100.25 27.25 Q101.5 25.15 101.35 22.95 101.2 20.85 99.65 20.0 98.25 19.2 96.35 20.05 94.45 21.0 93.2 23.15 91.9 25.35 92.1 27.4 92.25 29.65 93.7 30.45 L97.1 30.3 Q99.0 29.4 100.25 27.25" fill="#ffffff" fill-rule="evenodd" stroke="none"/>
  </g>
</svg>
