<?xml version="1.0" encoding="UTF-8" standalone="no"?>
<svg xmlns:xlink="http://www.w3.org/1999/xlink" height="80.95px" width="93.0px" xmlns="http://www.w3.org/2000/svg">
  <g transform="matrix(1.0, 0.0, 0.0, 1.0, 46.5, 40.5)">
    <path d="M-38.1 -5.8 Q-47.45 -12.25 -46.4 -17.05 L-45.45 -18.1 Q-43.4 -19.8 -38.5 -18.2 -36.5 -19.95 -33.95 -20.25 L-31.0 -20.05 Q-28.95 -21.85 -26.15 -23.25 -21.6 -25.55 -14.95 -26.65 L-12.45 -27.0 Q-8.75 -30.1 -2.1 -32.95 L2.9 -34.95 Q31.85 -45.1 39.5 -36.7 L40.9 -34.8 Q50.85 -30.5 43.05 3.6 40.1 26.15 32.95 35.7 29.05 40.9 22.85 40.4 9.85 39.45 2.15 36.75 -7.25 33.5 -8.7 27.6 -24.0 21.95 -28.1 11.35 -29.55 7.7 -29.6 3.4 -37.5 -0.25 -38.1 -5.8 L-37.1 -6.7 -37.85 -9.2 Q-38.3 -7.4 -38.1 -5.8" fill="#ffffff" fill-rule="evenodd" stroke="none"/>
    <path d="M-38.1 -5.8 Q-38.3 -7.4 -37.85 -9.2 L-37.1 -6.7 -38.1 -5.8" fill="#1ba63f" fill-rule="evenodd" stroke="none"/>
  </g>
</svg>
