<?xml version="1.0" encoding="UTF-8" standalone="no"?>
<svg xmlns:xlink="http://www.w3.org/1999/xlink" height="78.5px" width="94.45px" xmlns="http://www.w3.org/2000/svg">
  <g transform="matrix(1.0, 0.0, 0.0, 1.0, 47.25, 39.25)">
    <path d="M-35.25 -36.55 Q-22.45 -27.2 -24.7 -9.5 -27.3 2.05 -19.45 7.25 -28.0 7.9 -29.35 14.0 -33.35 25.15 -46.25 30.15 -45.7 30.3 -45.25 30.6 -43.3 31.55 -41.25 32.2 -26.35 37.4 -13.25 28.9 -7.5 25.25 -2.1 18.9 L19.45 33.35 Q29.75 41.05 36.2 36.7 38.8 34.9 40.8 31.25 L41.85 28.8 Q43.05 25.9 43.95 22.15 L44.55 19.65 Q49.35 -4.3 40.25 -2.55 21.7 3.6 0.4 2.15 1.0 -30.3 -30.4 -37.1 L-36.05 -38.0 -38.0 -38.25 -35.25 -36.55 Z" fill="none" stroke="#000000" stroke-linecap="round" stroke-linejoin="round" stroke-width="2.0"/>
  </g>
</svg>
