<?xml version="1.0" encoding="UTF-8" standalone="no"?>
<svg xmlns:xlink="http://www.w3.org/1999/xlink" height="23.35px" width="23.3px" xmlns="http://www.w3.org/2000/svg">
  <g transform="matrix(1.0, 0.0, 0.0, 1.0, 11.65, 11.7)">
    <path d="M-0.25 -6.25 Q-0.45 -9.35 0.35 -10.4 3.15 -11.5 6.7 -10.4 7.25 -9.3 6.65 -6.4 L8.95 -6.25 8.75 0.05 9.05 1.8 9.8 3.25 Q10.7 5.25 10.9 6.55 L10.9 7.1 10.65 8.4 Q10.3 9.55 8.75 10.35 L1.2 10.8 Q-4.85 10.4 -8.9 8.1 -10.15 6.8 -10.6 4.0 -11.05 1.2 -10.65 -2.45 L-10.9 -8.35 Q-7.6 -5.95 -0.25 -6.25 L0.15 -6.25 6.65 -6.4 Q6.55 -0.9 7.55 1.85 8.7 2.3 9.8 3.25 M-0.25 -6.25 L-0.25 -6.2 Q-0.35 -1.15 1.35 2.3 2.4 1.9 3.7 1.6 L7.55 1.85 M-10.6 4.0 Q-8.05 5.85 -2.8 6.85 -2.45 4.7 -0.95 3.55 -0.1 2.85 1.35 2.3 M-2.8 6.85 Q5.0 7.7 10.9 7.1" fill="none" stroke="#000000" stroke-linecap="round" stroke-linejoin="round" stroke-width="1.5"/>
    <path d="M1.0 -1.65 L4.05 -0.3 6.1 -1.8 M1.0 -2.2 L3.6 -3.95 0.65 -5.4 M3.6 -3.95 L5.95 -5.6 M3.6 -3.95 L6.1 -2.75 M-6.2 0.35 Q-6.2 1.2 -6.7 1.7 -7.2 2.2 -7.95 2.15 -8.65 2.05 -9.15 1.4 -9.7 0.8 -9.7 -0.05 -9.7 -0.9 -9.15 -1.45 -8.65 -1.95 -7.95 -1.85 -7.2 -1.8 -6.7 -1.15 -6.2 -0.5 -6.2 0.35 M1.7 1.25 L4.05 -0.3 6.55 0.75" fill="none" stroke="#000000" stroke-linecap="round" stroke-linejoin="round" stroke-width="1.0"/>
  </g>
</svg>
