<?xml version="1.0" encoding="UTF-8" standalone="no"?>
<svg xmlns:xlink="http://www.w3.org/1999/xlink" height="14.0px" width="23.4px" xmlns="http://www.w3.org/2000/svg">
  <g transform="matrix(1.0, 0.0, 0.0, 1.0, 11.7, 7.45)">
    <path d="M9.55 -2.95 L9.6 -3.8 Q10.7 -1.8 10.8 -0.55 L10.9 2.55 Q10.9 4.5 8.75 5.25 L0.65 5.55 Q-5.25 5.0 -9.7 2.6 -11.0 0.7 -10.9 -1.7 L-10.85 -5.4 Q-8.05 -2.85 -1.05 -1.9 L6.55 -1.4 Q9.15 -1.5 9.55 -2.95" fill="none" stroke="#000000" stroke-linecap="round" stroke-linejoin="round" stroke-width="1.6"/>
    <path d="M9.55 -2.95 L9.55 -2.2 M-1.05 -1.9 Q-0.25 -3.55 1.9 -4.4 3.8 -5.15 6.1 -3.4 7.15 -5.25 8.3 -5.7 9.4 -5.2 9.55 -2.95 M-1.45 -0.6 L-1.05 -1.9" fill="none" stroke="#000000" stroke-linecap="round" stroke-linejoin="round" stroke-width="3.5"/>
  </g>
</svg>
