<?xml version="1.0" encoding="UTF-8" standalone="no"?>
<svg xmlns:xlink="http://www.w3.org/1999/xlink" height="19.85px" width="23.65px" xmlns="http://www.w3.org/2000/svg">
  <g transform="matrix(1.0, 0.0, 0.0, 1.0, 11.85, 9.9)">
    <path d="M9.2 0.6 L9.7 1.5 10.6 3.45 10.75 3.95 11.05 5.35 10.95 6.55 Q10.45 8.35 8.65 8.9 L0.9 9.1 -1.1 8.9 Q-5.6 8.3 -8.15 6.2 -9.4 4.75 -10.0 2.95 L-10.05 2.75 -10.4 1.2 -10.7 -1.8 -10.95 -5.05 Q-11.2 -7.05 -11.05 -9.15 -7.0 -7.3 0.05 -6.7 L4.5 -6.45 Q8.45 -6.8 9.4 -7.35 L8.8 -1.45 9.2 0.6" fill="none" stroke="#000000" stroke-linecap="round" stroke-linejoin="round" stroke-width="1.5"/>
    <path d="M-10.0 2.95 Q-5.9 4.5 -1.75 4.7 -0.8 2.7 0.7 2.15 2.15 1.6 4.95 1.35 L9.7 1.5 M-1.75 4.7 Q-2.6 6.6 -1.1 8.9" fill="none" stroke="#000000" stroke-linecap="round" stroke-linejoin="round" stroke-width="1.0"/>
  </g>
</svg>
