<?xml version="1.0" encoding="UTF-8" standalone="no"?>
<svg xmlns:xlink="http://www.w3.org/1999/xlink" height="42.0px" width="25.85px" xmlns="http://www.w3.org/2000/svg">
  <g transform="matrix(1.0, 0.0, 0.0, 1.0, 12.9, 21.0)">
    <path d="M-11.1 -20.1 Q-7.6 -17.45 3.25 -16.9 L4.8 -16.85 7.65 -16.9 Q11.5 -17.2 12.05 -18.8 11.35 -16.0 10.8 -13.2 10.05 -9.6 9.65 -6.0 L9.15 -0.6 Q8.9 2.8 8.95 6.2 L9.0 9.3 Q10.65 12.15 11.0 14.05 L11.3 16.3 Q11.45 18.55 10.85 19.25 6.2 20.6 -0.4 19.8 -7.0 19.05 -8.85 17.75 -10.7 16.4 -10.5 14.05 -11.45 11.6 -11.75 7.05 L-11.85 5.2 -11.95 2.75 -11.95 0.95 -11.95 -1.4 -11.85 -7.45 -11.75 -9.9 -11.65 -11.95 -11.5 -14.65 -11.1 -20.1" fill="none" stroke="#000000" stroke-linecap="round" stroke-linejoin="round" stroke-width="1.8"/>
    <path d="M10.8 -13.2 L8.5 -11.85 7.75 -5.35 9.65 -6.0 M-11.65 -11.95 Q-7.8 -10.45 -2.4 -10.1 L-2.4 -8.3 Q-7.0 -8.35 -11.75 -9.9 M-11.85 -7.45 Q-9.1 -5.95 -0.05 -5.65 L0.2 -12.2 Q-7.25 -12.9 -11.5 -14.65 M-11.95 0.95 Q-6.65 2.3 -2.75 2.55 L-2.75 3.95 -11.95 2.75 M-11.95 -1.4 Q-7.2 0.0 -0.25 0.3 L-0.25 6.45 Q-6.5 6.4 -11.85 5.2 M9.15 -0.6 L7.5 0.35 7.3 6.4 8.95 6.2 M3.25 -16.9 Q2.2 -1.45 2.6 10.1 L4.2 12.7 7.2 12.45 5.9 10.1 Q5.95 -1.7 7.65 -16.9 M-10.5 14.05 Q-3.4 18.05 11.3 16.3" fill="none" stroke="#000000" stroke-linecap="round" stroke-linejoin="round" stroke-width="1.0"/>
  </g>
</svg>
