<?xml version="1.0" encoding="UTF-8" standalone="no"?>
<svg xmlns:xlink="http://www.w3.org/1999/xlink" height="54.95px" width="67.05px" xmlns="http://www.w3.org/2000/svg">
  <g transform="matrix(1.0, 0.0, 0.0, 1.0, 33.55, 27.45)">
    <path d="M1.5 -6.1 L-0.65 -7.95 -2.65 -9.95 Q-0.4 -12.85 1.1 -16.9 2.8 -21.4 3.55 -27.45 L10.6 -22.9 Q12.25 -16.75 6.85 -10.85 4.75 -8.45 1.5 -6.1 14.1 -1.75 21.8 -9.5 L19.2 -12.25 26.9 -14.35 33.5 -7.7 Q28.6 -6.65 21.85 -3.65 L16.3 -0.95 Q15.05 -0.35 13.8 -0.1 L14.4 0.3 23.45 11.55 18.6 15.1 17.9 15.7 7.15 3.65 12.95 25.2 4.5 27.5 2.3 19.4 3.9 19.2 1.8 -5.65 1.5 -6.1 M-2.25 -4.15 Q-5.9 0.95 -17.35 -0.3 L-17.7 2.85 Q-22.5 3.5 -24.75 0.7 L-25.65 2.2 Q-30.65 0.1 -33.55 -5.75 L-23.55 -10.65 Q-17.95 -3.0 -11.3 -4.9 L-10.2 -4.45 -10.05 -4.35 -2.25 -4.15 M-15.45 -13.0 L-16.6 -15.05 Q-19.25 -18.7 -20.05 -22.85 L-11.15 -25.15 Q-9.4 -19.65 -6.55 -15.05 L-15.45 -13.0 M-18.95 22.4 L-13.85 7.45 Q-8.85 8.65 -5.15 7.0 L-5.2 7.1 -10.7 24.2 -18.95 22.4" fill="#b3e5fc" fill-rule="evenodd" stroke="none"/>
  </g>
</svg>
