<?xml version="1.0" encoding="UTF-8" standalone="no"?>
<svg xmlns:xlink="http://www.w3.org/1999/xlink" height="61.85px" width="31.0px" xmlns="http://www.w3.org/2000/svg">
  <g transform="matrix(1.0, 0.0, 0.0, 1.0, 15.5, 30.95)">
    <path d="M9.95 5.3 L9.3 -0.2 9.0 -3.35 8.8 -7.5 Q8.4 -19.2 10.6 -29.95 L8.25 -27.15 Q-4.05 -11.85 -11.35 10.45 L-11.5 10.7 -11.5 10.75 Q-11.1 13.95 -8.9 15.9 -5.05 19.75 0.6 20.05 6.25 20.35 8.65 17.75 L8.8 17.6 8.95 17.35 Q10.7 15.1 11.0 11.7 L9.95 5.3 14.05 -1.85 12.15 -2.8 9.0 -3.35 M12.15 -2.8 L14.5 -6.05 8.8 -7.5 M-3.35 3.3 Q-1.75 2.5 0.2 2.6 3.2 2.95 5.0 5.15 7.0 7.45 6.7 10.4 6.4 13.35 4.2 15.2 L2.85 16.1 Q1.1 17.05 -1.1 16.85 -4.0 16.65 -5.85 14.4 -7.45 12.6 -7.55 10.3 L-7.55 9.15 Q-7.3 6.5 -5.4 4.75 L-4.95 4.25 -3.35 3.3 2.85 16.1 M-11.5 10.75 L-13.3 16.25 -12.25 18.3 -10.45 21.05 -9.95 21.3 -8.95 22.45 Q-7.65 23.6 -6.05 24.15 L-4.6 24.65 -2.25 25.1 -1.9 25.15 -0.75 25.0 0.75 24.7 Q2.35 24.3 3.75 23.55 5.55 22.6 6.95 21.15 L7.55 20.35 Q8.75 18.85 8.95 17.35 L9.4 23.3 8.05 24.4 3.85 27.4 3.7 28.85 Q2.0 30.05 0.25 29.85 L-1.3 29.25 Q-3.2 29.85 -5.35 28.95 L-6.8 28.2 Q-8.6 27.95 -9.8 27.15 L-11.2 26.0 -11.0 24.45 Q-12.45 24.05 -13.45 23.1 L-14.5 21.55 -13.3 16.25 M3.85 27.4 L3.75 23.55 M-11.0 24.45 L-10.45 21.05 M-1.3 29.25 L-0.75 25.0 M-6.8 28.2 L-6.05 24.15" fill="none" stroke="#000000" stroke-linecap="round" stroke-linejoin="round" stroke-width="2.0"/>
  </g>
</svg>
