<?xml version="1.0" encoding="UTF-8" standalone="no"?>
<svg xmlns:xlink="http://www.w3.org/1999/xlink" height="5.65px" width="14.45px" xmlns="http://www.w3.org/2000/svg">
  <g transform="matrix(1.0, 0.0, 0.0, 1.0, 0.0, 0.0)">
    <path d="M14.3 3.7 L14.45 4.5 14.35 4.8 13.95 5.3 13.4 5.65 Q13.05 5.65 12.8 5.35 12.5 5.2 12.5 4.85 L12.45 4.65 Q12.45 4.3 12.75 4.0 12.9 3.7 13.55 3.6 L14.3 3.7 M8.2 3.25 Q8.6 2.9 9.1 2.9 9.65 2.85 10.0 3.15 10.35 3.4 10.35 3.95 10.35 4.45 10.0 4.8 L9.9 4.95 9.1 5.2 8.4 5.0 8.15 4.85 Q7.85 4.5 7.85 4.05 7.85 3.55 8.2 3.25 M6.1 3.95 Q4.15 3.65 3.65 2.45 L6.15 2.35 6.1 3.95 M2.55 2.2 Q0.4 1.6 0.0 0.55 1.75 -0.4 3.3 0.35 L2.55 2.2" fill="#d5d7d5" fill-rule="evenodd" stroke="none"/>
  </g>
</svg>
