<?xml version="1.0" encoding="UTF-8" standalone="no"?>
<svg xmlns:xlink="http://www.w3.org/1999/xlink" height="50.8px" width="35.85px" xmlns="http://www.w3.org/2000/svg">
  <g transform="matrix(1.0, 0.0, 0.0, 1.0, 0.0, 25.4)">
    <path d="M19.6 -20.25 L22.3 -25.3 25.05 -25.15 Q26.2 -24.7 26.7 -23.35 28.3 -19.1 31.1 -19.9 33.95 -21.2 35.55 -19.9 36.15 -18.4 35.55 -17.55 35.25 -19.0 34.0 -19.05 33.15 -19.2 31.9 -18.25 28.75 -16.75 25.4 -19.7 L25.05 -19.85 Q22.45 -21.1 19.6 -20.25 M13.6 -10.75 L14.85 -12.6 17.6 -16.9 Q21.25 -16.45 22.15 -13.9 L22.65 -12.6 Q23.55 -10.7 25.05 -10.55 L25.6 -10.6 Q29.75 -12.05 31.65 -10.3 32.85 -8.6 32.0 -6.9 31.8 -7.85 30.3 -8.8 28.8 -9.6 26.7 -8.45 25.85 -8.0 25.05 -7.8 22.5 -7.15 20.65 -9.05 17.05 -11.95 13.6 -10.75 M7.6 -2.55 L11.0 -6.9 Q13.8 -6.7 15.3 -3.85 16.8 -1.05 22.0 -2.9 L25.05 -3.0 Q26.7 -2.45 28.2 -0.6 L28.55 0.6 28.2 1.75 Q27.5 1.05 26.85 0.6 25.95 0.0 25.05 -0.2 L24.0 -0.3 22.1 0.0 20.1 0.6 18.65 1.2 Q14.95 2.7 13.0 0.6 L12.3 -0.25 12.15 -0.65 Q10.7 -3.6 7.6 -2.55 M5.75 -0.45 L7.05 0.6 Q8.45 2.1 10.35 5.1 11.85 7.15 16.95 5.1 20.15 4.45 22.1 5.0 24.45 5.65 24.95 7.95 23.55 7.05 22.1 6.95 20.8 6.8 19.45 7.35 15.0 10.55 10.65 9.65 7.65 7.95 4.8 4.1 3.65 2.65 2.45 3.35 3.05 2.1 4.35 0.95 L4.7 0.6 5.75 -0.45" fill="#8f69fd" fill-rule="evenodd" stroke="none"/>
    <path d="M13.4 16.55 L13.25 16.95 Q12.4 18.95 12.05 20.65 L11.75 22.4 11.7 23.4 10.65 22.4 9.1 20.65 Q7.8 18.8 7.75 16.95 7.7 16.1 7.9 15.3 L9.3 16.15 Q11.65 17.15 13.4 16.55 M5.0 13.75 Q4.15 15.35 3.6 16.95 3.0 18.75 2.85 20.55 1.4 18.75 0.7 16.95 0.15 15.7 0.0 14.4 0.35 10.5 2.2 7.8 L2.3 10.1 Q2.8 13.0 5.0 13.75 M22.65 17.15 L22.1 18.15 21.05 20.65 Q20.75 21.5 20.6 22.4 20.3 23.9 20.3 25.4 L18.1 23.0 17.75 22.4 16.75 20.65 Q16.0 18.95 16.25 17.5 17.0 18.0 18.1 18.25 L19.05 18.35 Q20.75 18.2 22.1 17.45 L22.65 17.15 M29.0 14.65 L29.05 13.5 32.95 9.4 Q34.7 11.25 34.2 13.45 33.1 15.35 31.5 16.95 30.05 18.35 28.25 19.45 L28.8 16.95 29.0 14.65" fill="#8263fe" fill-rule="evenodd" stroke="none"/>
  </g>
</svg>
