<?xml version="1.0" encoding="UTF-8" standalone="no"?>
<svg xmlns:xlink="http://www.w3.org/1999/xlink" height="30.6px" width="19.4px" xmlns="http://www.w3.org/2000/svg">
  <g transform="matrix(1.0, 0.0, 0.0, 1.0, 9.7, 15.3)">
    <path d="M5.95 -5.9 L5.05 -5.6 2.9 -5.0 -4.8 -4.3 -6.55 -4.4 -3.65 -13.35 -0.75 -13.45 2.8 -13.75 Q6.05 -14.2 8.7 -14.95 L9.7 -15.3 Q9.05 -10.35 6.65 -6.2 L5.95 -5.9 M-5.3 -0.85 L-3.65 0.1 Q-0.25 1.9 4.4 3.25 4.8 5.65 4.0 7.5 L0.25 6.7 Q0.95 11.2 0.75 13.85 L-1.65 15.3 Q-4.15 9.2 -9.1 2.85 L-9.7 2.5 Q-9.7 1.25 -6.75 -1.8 L-5.3 -0.85" fill="#f2e9df" fill-rule="evenodd" stroke="none"/>
  </g>
</svg>
