<?xml version="1.0" encoding="UTF-8" standalone="no"?>
<svg xmlns:xlink="http://www.w3.org/1999/xlink" height="37.25px" width="20.95px" xmlns="http://www.w3.org/2000/svg">
  <g transform="matrix(1.0, 0.0, 0.0, 1.0, 10.5, 18.65)">
    <path d="M7.7 -1.75 L9.7 -8.4 4.8 9.3 4.45 9.3 Q2.15 19.6 -5.8 18.5 -12.2 16.9 -9.9 9.3 L-9.95 9.3 -7.0 1.85 -7.0 1.75 -6.95 1.7 -6.9 1.5 -6.85 1.2 -6.75 0.65 -6.5 0.1 -5.85 -0.75 -5.85 -0.7 -5.8 -0.75 -5.85 -0.95 -5.7 -1.1 -5.7 -2.15 -5.6 -2.8 -4.85 -4.2 -4.8 -4.4 -4.75 -4.5 -4.4 -6.3 Q-3.75 -8.2 -2.3 -10.15 -0.35 -12.75 3.1 -15.45 L4.2 -16.35 4.3 -16.45 4.5 -16.4 4.75 -16.3 5.35 -16.85 Q6.25 -17.65 7.8 -18.5 L7.85 -18.5 8.15 -18.65 Q8.75 -18.4 9.8 -16.5 10.4 -15.35 10.45 -13.5 10.4 -11.65 9.75 -9.05 L7.7 -1.75" fill="#feffcb" fill-rule="evenodd" stroke="none"/>
  </g>
</svg>
