<?xml version="1.0" encoding="UTF-8" standalone="no"?>
<svg xmlns:xlink="http://www.w3.org/1999/xlink" height="42.2px" width="23.25px" xmlns="http://www.w3.org/2000/svg">
  <g transform="matrix(1.0, 0.0, 0.0, 1.0, 11.65, 21.1)">
    <path d="M10.5 -11.15 Q11.9 -15.2 7.35 -17.65 2.6 -20.6 1.3 -20.3 -4.25 -18.45 -2.25 -13.6 3.05 -12.1 10.5 -11.15 10.7 -8.95 10.35 -5.9 8.75 1.05 6.2 7.0 1.75 21.85 -5.4 20.2 -14.1 18.5 -9.0 3.3 L-8.2 1.7 -8.5 1.2 -8.5 1.15 Q-8.75 0.35 -8.25 -0.65 -7.85 -1.85 -6.9 -2.7 L-6.65 -2.85 -6.05 -3.25 -4.9 -6.2 -5.2 -6.25 -6.35 -6.4 Q-5.55 -8.85 -3.4 -11.4 L-3.2 -11.4 -3.0 -11.35 -2.25 -13.6" fill="none" stroke="#000000" stroke-linecap="round" stroke-linejoin="round" stroke-width="1.5"/>
    <path d="M-3.0 -11.35 Q0.5 -10.8 3.35 -9.35 3.1 -6.95 1.6 -4.85 L-4.9 -6.2 M-6.05 -3.25 L-5.05 -3.55 Q-4.15 -3.65 -3.8 -2.9 -3.55 -2.1 -4.05 -0.95 -4.5 0.2 -5.45 1.0 -6.45 1.9 -7.35 1.95 -7.9 2.0 -8.2 1.7" fill="none" stroke="#000000" stroke-linecap="round" stroke-linejoin="round" stroke-width="1.0"/>
  </g>
</svg>
