<?xml version="1.0" encoding="UTF-8" standalone="no"?>
<svg xmlns:xlink="http://www.w3.org/1999/xlink" height="28.8px" width="23.0px" xmlns="http://www.w3.org/2000/svg">
  <g transform="matrix(1.0, 0.0, 0.0, 1.0, 11.5, 14.4)">
    <path d="M-6.4 2.3 L-5.35 0.7 -0.8 -14.4 Q5.75 -11.3 11.5 -11.85 L6.45 1.7 5.4 5.45 5.5 7.0 5.45 8.75 4.95 11.2 4.8 11.6 4.0 13.45 3.95 13.35 Q3.55 12.45 2.65 12.05 1.15 11.4 -0.5 11.55 -2.35 10.05 -4.7 10.65 L-4.8 10.65 -4.9 11.3 -5.05 11.3 -5.4 13.2 -5.7 14.35 -5.7 14.4 Q-8.6 12.5 -11.5 12.6 L-10.3 9.6 Q-10.0 8.85 -11.15 8.55 -9.55 8.25 -9.45 3.5 L-8.8 3.6 -8.55 3.6 -8.3 3.6 Q-7.55 3.45 -6.4 2.25 L-6.4 2.3" fill="#dbdbdb" fill-rule="evenodd" stroke="none"/>
  </g>
</svg>
