<?xml version="1.0" encoding="UTF-8" standalone="no"?>
<svg xmlns:xlink="http://www.w3.org/1999/xlink" height="19.75px" width="20.8px" xmlns="http://www.w3.org/2000/svg">
  <g transform="matrix(1.0, 0.0, 0.0, 1.0, 10.4, 9.9)">
    <path d="M-4.35 -4.1 Q-4.3 -5.2 -2.1 -8.9 3.15 -6.55 9.4 -6.15 8.7 -2.3 8.15 -1.55 L7.8 -1.05 7.8 -0.85 7.9 0.95 7.85 2.7 7.2 5.55 6.4 7.4 6.35 7.3 Q5.95 6.4 5.05 6.0 3.55 5.35 1.9 5.5 0.05 4.0 -2.3 4.6 L-2.4 4.6 -2.5 5.25 -2.75 6.5 -3.3 8.3 -3.55 8.85 Q-6.5 7.0 -9.4 7.3 L-9.4 7.25 -7.9 3.55 Q-7.6 2.75 -9.05 2.4 -6.95 0.05 -7.45 -2.65 L-6.15 -2.45 Q-5.3 -2.4 -4.0 -3.8 -0.45 -0.75 7.45 -0.6 L7.8 -1.05" fill="none" stroke="#000000" stroke-linecap="round" stroke-linejoin="round" stroke-width="2.0"/>
    <path d="M-4.0 -3.8 L-4.35 -4.1 Z" fill="none" stroke="#000000" stroke-linecap="round" stroke-linejoin="round" stroke-width="1.0"/>
  </g>
</svg>
