<?xml version="1.0" encoding="UTF-8" standalone="no"?>
<svg xmlns:xlink="http://www.w3.org/1999/xlink" height="39.4px" width="180.1px" xmlns="http://www.w3.org/2000/svg">
  <g transform="matrix(1.0, 0.0, 0.0, 1.0, 77.75, 72.85)">
    <path d="M60.05 -54.7 Q59.7 -63.0 61.25 -69.3 L61.45 -69.55 61.45 -69.6 61.7 -69.7 90.3 -72.0 100.3 -72.85 100.65 -72.75 100.85 -72.45 Q103.9 -57.5 100.85 -43.5 L100.7 -43.2 100.7 -43.25 100.45 -43.1 100.4 -43.1 Q84.6 -41.25 66.45 -40.65 L66.25 -40.7 66.05 -40.8 66.05 -40.85 Q60.7 -47.4 60.05 -54.65 L60.05 -54.7 M-77.3 -63.4 L-53.1 -63.6 -45.0 -62.8 -44.7 -62.6 -44.6 -62.4 Q-43.25 -57.05 -42.95 -51.7 -42.85 -49.05 -43.0 -46.45 L-43.0 -46.4 Q-42.85 -38.2 -44.9 -34.3 L-45.0 -34.2 -45.1 -34.2 -45.3 -34.1 Q-53.75 -33.15 -65.95 -33.6 L-66.25 -33.7 Q-73.65 -39.65 -75.45 -46.25 -77.75 -54.75 -77.75 -62.9 L-77.65 -63.2 -77.3 -63.4" fill="#7d9af0" fill-rule="evenodd" stroke="none"/>
  </g>
</svg>
