<?xml version="1.0" encoding="UTF-8" standalone="no"?>
<svg xmlns:xlink="http://www.w3.org/1999/xlink" height="44.4px" width="171.35px" xmlns="http://www.w3.org/2000/svg">
  <g transform="matrix(1.0, 0.0, 0.0, 1.0, 82.75, 91.5)">
    <path d="M88.6 -71.65 Q88.6 -63.4 82.85 -57.6 77.1 -51.8 68.95 -51.8 60.85 -51.8 55.1 -57.6 49.35 -63.4 49.35 -71.65 49.35 -79.9 55.1 -85.7 60.85 -91.5 68.95 -91.5 77.1 -91.5 82.85 -85.7 88.6 -79.9 88.6 -71.65 M-49.15 -67.55 Q-49.15 -59.05 -54.1 -53.1 -59.0 -47.1 -65.95 -47.1 -72.9 -47.1 -77.85 -53.1 -82.75 -59.05 -82.75 -67.55 -82.75 -76.0 -77.85 -82.0 -72.9 -88.0 -65.95 -88.0 -59.0 -88.0 -54.1 -82.0 -49.15 -76.0 -49.15 -67.55" fill="#000000" fill-rule="evenodd" stroke="none"/>
  </g>
</svg>
