<?xml version="1.0" encoding="UTF-8" standalone="no"?>
<svg xmlns:xlink="http://www.w3.org/1999/xlink" height="12.35px" width="28.7px" xmlns="http://www.w3.org/2000/svg">
  <g transform="matrix(1.0, 0.0, 0.0, 1.0, 14.35, 6.2)">
    <path d="M8.75 -0.75 Q9.45 -0.45 8.8 -0.1 8.4 0.1 8.35 -0.3 8.35 -0.7 8.75 -0.75 M10.7 2.6 Q11.4 2.95 10.7 3.3 10.35 3.45 10.3 3.05 10.3 2.65 10.7 2.6 M11.1 0.2 Q11.8 0.5 11.15 0.85 10.8 1.05 10.75 0.65 10.7 0.2 11.1 0.2 M9.85 0.85 Q10.6 1.2 9.9 1.55 9.55 1.7 9.5 1.3 9.45 0.9 9.85 0.85 M8.5 1.65 Q9.25 2.0 8.55 2.3 8.2 2.5 8.2 2.15 8.15 1.7 8.5 1.65 M-8.3 -1.6 Q-7.35 -1.15 -8.3 -0.7 -8.75 -0.5 -8.8 -1.05 -8.85 -1.55 -8.3 -1.6 M-9.05 0.75 Q-8.1 1.2 -9.0 1.65 -9.45 1.85 -9.55 1.35 -9.6 0.8 -9.05 0.75 M-7.1 1.3 Q-6.15 1.75 -7.05 2.2 -7.55 2.4 -7.6 1.85 -7.65 1.35 -7.1 1.3 M-9.7 2.6 Q-8.75 3.05 -9.65 3.5 -10.1 3.75 -10.2 3.25 -10.2 2.7 -9.7 2.6 M-11.05 -0.1 Q-10.1 0.35 -11.0 0.85 -11.45 1.05 -11.55 0.5 -11.6 -0.05 -11.05 -0.1" fill="#000000" fill-opacity="0.3372549" fill-rule="evenodd" stroke="none"/>
    <path d="M5.15 -5.15 L6.15 -4.85 Q8.75 -3.6 11.5 -1.55 14.25 0.55 13.8 3.3 13.35 6.0 11.3 5.35 9.2 4.6 6.45 3.15 5.65 2.7 4.4 2.3 2.7 1.65 0.15 1.85 -1.2 1.9 -2.8 2.45 -5.4 3.25 -8.7 5.25 -12.6 6.55 -13.65 3.35 -14.7 0.15 -10.7 -2.45 -8.4 -4.0 -4.75 -5.05 L-1.55 -5.55 5.15 -5.15 Q5.9 -4.1 5.7 -0.9 5.45 2.3 4.4 2.3 M-4.75 -5.05 Q-4.8 -3.7 -4.45 -1.05 -4.1 1.55 -2.8 2.45" fill="none" stroke="#000000" stroke-linecap="round" stroke-linejoin="round" stroke-width="1.0"/>
  </g>
</svg>
