<?xml version="1.0" encoding="UTF-8" standalone="no"?>
<svg xmlns:xlink="http://www.w3.org/1999/xlink" height="16.25px" width="15.0px" xmlns="http://www.w3.org/2000/svg">
  <g transform="matrix(1.0, 0.0, 0.0, 1.0, 7.5, 8.1)">
    <path d="M6.35 -0.7 Q7.8 0.35 7.4 3.75 6.2 7.25 3.0 8.0 -0.3 8.8 -0.75 5.05 -0.5 2.75 0.4 3.15 1.8 6.3 4.05 3.35 4.95 2.3 5.15 0.65 L5.15 -1.2 Q5.85 -1.1 6.35 -0.7 M2.45 -8.1 Q3.85 -7.95 3.4 -5.35 2.1 -1.35 -1.8 -0.2 -8.5 0.75 -7.35 -4.3 -6.75 -5.75 -5.6 -5.5 -5.8 -3.85 -3.95 -3.5 -0.6 -2.8 0.65 -6.1 1.25 -8.1 2.45 -8.1" fill="#38dd87" fill-rule="evenodd" stroke="none"/>
  </g>
</svg>
