<?xml version="1.0" encoding="UTF-8" standalone="no"?>
<svg xmlns:xlink="http://www.w3.org/1999/xlink" height="30.1px" width="79.75px" xmlns="http://www.w3.org/2000/svg">
  <g transform="matrix(1.0, 0.0, 0.0, 1.0, 11.75, 37.05)">
    <path d="M12.85 -10.85 L12.7 -10.75 11.65 -9.95 Q4.55 -5.65 -5.25 -7.55 L-5.7 -7.7 -6.2 -7.85 -7.0 -8.4 Q-9.25 -9.95 -9.55 -13.5 -8.05 -14.45 -6.5 -13.05 -11.85 -18.15 -11.75 -23.3 -8.5 -20.0 -5.25 -19.3 -11.95 -27.8 -8.1 -37.05 -5.05 -28.85 2.75 -26.1 5.4 -25.55 8.45 -23.05 6.85 -25.65 7.4 -27.3 14.5 -24.25 15.3 -21.25 16.55 -14.3 12.85 -10.85 M64.55 -8.4 L63.95 -7.85 63.6 -7.7 63.25 -7.55 Q56.15 -5.65 51.0 -9.95 L50.25 -10.75 50.15 -10.85 Q47.45 -14.3 48.35 -21.25 48.95 -24.25 54.1 -27.3 54.5 -25.65 53.3 -23.05 55.55 -25.55 57.45 -26.1 63.1 -28.85 65.35 -37.05 68.1 -27.8 63.25 -19.3 65.6 -20.0 68.0 -23.3 68.05 -18.15 64.15 -13.05 65.3 -14.45 66.4 -13.5 66.15 -9.95 64.55 -8.4" fill="#ffffff" fill-opacity="0.32941177" fill-rule="evenodd" stroke="none"/>
  </g>
</svg>
