<?xml version="1.0" encoding="UTF-8" standalone="no"?>
<svg xmlns:xlink="http://www.w3.org/1999/xlink" height="13.55px" width="83.5px" xmlns="http://www.w3.org/2000/svg">
  <g transform="matrix(1.0, 0.0, 0.0, 1.0, 1.05, -1.3)">
    <path d="M7.65 10.95 Q8.45 9.65 9.05 9.65 9.5 9.65 9.9 10.4 L10.0 11.05 Q10.0 12.7 7.6 14.85 4.35 12.3 5.05 10.4 6.05 8.6 7.65 10.95 M-1.0 2.45 L-0.95 1.95 Q-0.55 1.25 0.0 1.3 0.7 1.25 1.7 2.35 2.4 1.3 3.0 1.3 3.5 1.3 3.9 1.95 L4.1 2.45 Q4.15 3.75 1.9 5.55 -0.95 3.75 -1.0 2.45 M11.45 5.8 Q11.45 5.5 11.6 5.3 11.95 4.6 12.55 4.65 13.25 4.6 14.2 5.7 14.95 4.65 15.55 4.65 16.0 4.65 16.45 5.3 L16.55 5.8 Q16.5 7.1 14.1 8.85 11.4 7.1 11.45 5.8 M77.1 10.85 L77.3 10.35 Q77.6 9.65 77.95 9.7 78.3 9.65 78.55 10.8 79.15 9.7 79.5 9.7 79.75 9.7 79.75 10.35 L79.75 10.85 Q79.35 12.2 77.8 13.95 76.75 12.2 77.1 10.85 M74.15 9.25 Q72.2 7.45 72.15 6.15 L72.2 5.65 Q72.4 4.95 72.8 5.0 73.25 4.95 74.0 6.05 74.45 5.0 74.9 5.0 L75.55 5.65 75.65 6.15 Q75.65 7.45 74.15 9.25 M80.4 1.5 Q80.75 1.45 81.25 2.55 81.6 1.5 81.9 1.5 82.15 1.5 82.4 2.15 L82.45 2.65 Q82.5 3.95 81.4 5.7 79.95 3.95 79.95 2.65 L79.95 2.15 Q80.1 1.45 80.4 1.5" fill="#363341" fill-rule="evenodd" stroke="none"/>
  </g>
</svg>
