<?xml version="1.0" encoding="UTF-8" standalone="no"?>
<svg xmlns:xlink="http://www.w3.org/1999/xlink" height="43.1px" width="66.85px" xmlns="http://www.w3.org/2000/svg">
  <g transform="matrix(1.0, 0.0, 0.0, 1.0, 33.45, 21.55)">
    <path d="M1.45 -1.65 L-8.25 -8.05 -8.95 -21.55 1.45 -12.95 1.45 -1.65 M9.3 -8.5 L9.1 -18.7 16.55 -11.2 15.55 -3.6 9.3 -8.5 M27.8 -15.35 L27.95 -16.45 27.95 -16.95 28.0 -18.0 28.05 -17.95 33.35 -11.35 33.4 -11.35 31.85 -3.35 27.2 -8.2 27.75 -15.1 27.75 -15.15 27.8 -15.35 M-19.3 -5.05 L-11.65 1.75 -11.65 9.05 -18.15 5.0 -19.25 -4.95 -19.3 -5.05 M-22.35 21.55 L-30.25 20.5 -33.45 10.3 -23.55 14.1 -22.35 21.55" fill="#1ca1cd" fill-rule="evenodd" stroke="none"/>
  </g>
</svg>
