<?xml version="1.0" encoding="UTF-8" standalone="no"?>
<svg xmlns:xlink="http://www.w3.org/1999/xlink" height="93.25px" width="171.15px" xmlns="http://www.w3.org/2000/svg">
  <g transform="matrix(1.0, 0.0, 0.0, 1.0, 85.6, 46.65)">
    <path d="M51.3 -6.5 Q49.1 -5.4 46.5 -4.9 32.7 -2.4 8.4 -16.5 -8.15 -22.85 -16.85 -32.2 -19.15 -34.95 -20.85 -37.95 -23.0 -41.7 -24.15 -45.9 L-16.85 -46.65 Q-7.4 -46.35 6.2 -41.5 L14.05 -38.45 Q39.65 -31.55 47.0 -24.25 53.1 -18.2 55.1 -12.0 L54.25 -9.8 53.25 -8.25 Q52.45 -7.2 51.3 -6.5 M83.3 26.2 Q80.4 29.45 74.0 30.15 63.7 31.25 52.15 38.1 41.15 44.65 30.95 46.6 16.75 46.6 -12.85 31.15 -14.6 30.0 -16.85 28.85 -25.95 23.6 -43.45 18.25 -77.15 10.4 -85.6 -0.5 -83.6 -9.45 -55.1 -17.6 -46.05 -21.35 -28.2 -21.35 -30.2 -9.15 -23.45 -4.4 L-16.85 -0.95 Q-8.95 2.75 -0.15 7.0 16.1 17.45 43.35 16.1 50.35 11.55 54.05 2.45 L54.25 1.85 54.7 0.55 Q86.65 13.65 85.5 21.35 85.05 24.25 83.3 26.2" fill="#128e3f" fill-rule="evenodd" stroke="none"/>
    <path d="M55.1 -12.0 Q55.15 -11.6 55.35 -11.25 L54.25 -9.8 55.1 -12.0 M53.25 -8.25 L52.5 -7.15 51.3 -6.5 Q52.45 -7.2 53.25 -8.25" fill="#171925" fill-rule="evenodd" stroke="none"/>
    <path d="M54.85 0.2 L54.8 0.35 54.85 0.15 54.85 0.2" fill="#2e324a" fill-rule="evenodd" stroke="none"/>
  </g>
</svg>
