<?xml version="1.0" encoding="UTF-8" standalone="no"?>
<svg xmlns:xlink="http://www.w3.org/1999/xlink" height="165.6px" width="189.6px" xmlns="http://www.w3.org/2000/svg">
  <g transform="matrix(1.0, 0.0, 0.0, 1.0, 94.8, 82.8)">
    <path d="M-18.15 -60.65 Q-33.85 -49.65 -47.45 -37.25 L-56.15 -29.05 Q-68.8 -4.15 -72.35 22.05 -61.4 33.9 -55.45 51.6 -35.2 74.8 0.9 81.8 L14.5 81.8 Q-16.2 74.5 -34.1 58.7 -45.75 48.4 -51.3 38.5 -43.85 15.25 -32.95 2.85 -22.1 -9.6 -13.65 -14.6 10.05 -8.35 30.6 10.2 44.6 -5.45 60.15 -14.75 75.4 -2.2 82.7 11.55 89.95 25.3 90.95 34.1 81.45 54.9 65.75 67.15 75.65 60.95 82.45 53.3 87.05 47.75 90.05 42.25 92.4 37.9 93.75 33.6 94.1 19.55 90.65 3.5 88.45 -6.8 84.55 -18.1 80.0 -31.2 67.1 -44.3 55.5 -53.35 50.8 -61.05 33.95 -73.15 3.3 -81.8 -22.25 -72.8 -48.6 -59.55 -74.15 -46.75 -93.8 -43.75 -66.9 -27.8 -47.45 -37.25 M65.75 67.15 Q55.4 73.55 41.65 78.35 32.95 82.3 29.35 81.15 29.25 77.8 39.45 73.1 71.0 58.25 82.5 37.55 79.45 15.85 60.7 -2.15 45.9 6.5 30.35 22.35 6.0 2.4 -11.8 -1.15 -32.95 16.15 -39.6 37.8 -27.85 55.8 -7.1 66.2 13.65 76.6 16.3 81.8 L14.5 81.8" fill="none" stroke="#000000" stroke-linecap="round" stroke-linejoin="round" stroke-width="2.0"/>
  </g>
</svg>
