<?xml version="1.0" encoding="UTF-8" standalone="no"?>
<svg xmlns:xlink="http://www.w3.org/1999/xlink" height="118.5px" width="256.35px" xmlns="http://www.w3.org/2000/svg">
  <g transform="matrix(1.0, 0.0, 0.0, 1.0, 128.2, 59.25)">
    <path d="M15.4 -53.5 L-84.7 13.8 -71.4 17.75 -56.45 21.6 15.45 -50.65 16.15 -51.35 33.65 35.15 42.1 35.15 Q50.6 35.15 58.3 34.8 59.8 34.7 62.95 33.55 L16.8 -51.45 M18.45 -55.05 L115.6 22.45 121.6 18.7 Q124.7 16.35 127.15 13.7 83.95 -24.2 16.55 -58.25 L6.95 -55.9 Q-62.1 -38.65 -124.65 -4.3 L-122.95 -3.25 -121.2 -2.1 -121.15 -2.1 -116.25 0.7 -109.45 4.25 14.15 -55.2 M127.15 13.7 L122.5 36.5 121.1 38.5 Q118.05 42.45 112.8 45.55 109.85 47.35 106.3 48.95 100.15 51.4 92.2 53.4 L86.15 54.55 67.2 57.1 58.75 57.75 41.35 58.25 31.4 58.25 16.55 57.0 15.25 56.85 3.35 55.8 -12.65 53.3 -27.0 50.95 -42.85 47.8 -57.7 44.35 -71.75 40.55 Q-78.4 38.7 -84.65 36.55 -92.05 34.15 -99.0 31.4 L-105.95 28.6 Q-110.65 26.65 -115.3 24.5 L-121.85 21.35 -125.0 19.65 Q-129.6 12.9 -124.65 -4.3 M17.7 -52.95 L90.8 30.85 92.2 30.55 Q99.3 29.05 105.25 26.95 108.2 26.0 110.8 24.85 L113.7 23.45 115.6 22.45 M62.95 33.55 Q64.3 34.35 67.2 34.15 L67.95 34.15 86.1 31.75 89.1 31.25 90.8 30.85 M113.7 23.45 L112.15 43.95 M89.1 31.25 L89.35 51.6 M16.15 -51.35 L1.6 31.45 1.6 31.65 3.35 32.0 15.65 33.55 16.55 33.7 30.45 34.9 33.1 35.05 33.1 35.1 33.65 35.15 M62.95 33.55 L63.4 54.95 M33.1 35.1 L32.25 56.5 M1.6 31.65 L0.65 53.7 M15.45 -50.65 L-27.75 27.35 -27.7 27.35 -23.55 27.95 -10.55 30.05 1.6 31.45 M-27.7 27.35 L-30.3 48.6 M-27.75 27.35 L-40.7 24.95 -40.8 24.95 -56.45 21.6 -56.05 21.7 -59.2 42.05 M-83.75 14.15 L-83.75 14.2 -83.0 14.4 -83.75 14.15 -84.7 13.8 M-109.45 4.25 L-109.4 4.25 -106.05 5.65 -97.9 9.1 -83.75 14.2 -86.9 34.1 M-109.4 4.25 L-111.15 24.7" fill="none" stroke="#000000" stroke-linecap="round" stroke-linejoin="round" stroke-width="2.0"/>
  </g>
</svg>
