<?xml version="1.0" encoding="UTF-8" standalone="no"?>
<svg xmlns:xlink="http://www.w3.org/1999/xlink" height="97.9px" width="177.25px" xmlns="http://www.w3.org/2000/svg">
  <g transform="matrix(1.0, 0.0, 0.0, 1.0, 88.6, 48.95)">
    <path d="M52.9 -7.0 L88.65 -8.6 Q88.75 -7.4 86.3 -6.3 84.3 -2.95 74.95 3.4 71.05 7.9 67.45 13.55 61.7 22.7 54.95 28.0 L52.8 25.0 51.5 23.7 Q50.3 22.7 48.95 21.9 L53.4 21.35 54.25 21.5 59.8 22.05 Q58.35 20.5 56.3 18.85 54.55 17.55 52.6 16.95 54.35 14.9 60.8 12.65 56.1 11.3 51.4 15.15 L51.3 15.25 Q44.0 21.25 39.45 23.75 31.1 14.4 19.35 5.75 13.2 1.05 6.1 -3.25 23.3 -7.05 42.2 -6.8 48.65 -6.6 52.9 -7.0 M48.4 28.65 L48.6 28.1 48.6 27.6 48.5 28.1 48.4 28.65 M46.35 32.2 L43.25 28.1 Q44.15 28.0 44.95 27.4 L47.5 27.1 49.1 27.25 49.2 27.25 Q51.15 27.6 53.45 28.6 L49.05 31.5 47.45 32.4 46.75 32.7 46.35 32.2" fill="url(#gradient0)" fill-rule="evenodd" stroke="none"/>
    <path d="M48.4 28.65 L48.5 28.1 48.6 27.6 48.6 28.1 48.4 28.65" fill="#fff7d4" fill-rule="evenodd" stroke="none"/>
    <path d="M46.75 32.7 L47.4 33.6 47.2 33.7 47.0 33.65 46.35 32.2 46.75 32.7" fill="url(#gradient1)" fill-rule="evenodd" stroke="none"/>
    <path d="M48.4 48.95 L47.95 48.9 48.4 48.9 48.4 48.95" fill="url(#gradient2)" fill-rule="evenodd" stroke="none"/>
    <path d="M58.5 45.2 L58.1 45.2 52.75 45.6 50.2 45.45 54.3 44.9 55.45 44.8 57.3 44.8 58.1 44.85 58.5 45.2" fill="#fffeaf" fill-rule="evenodd" stroke="none"/>
    <path d="M-70.7 -48.95 Q-67.0 -32.65 -57.2 -16.35 -48.25 -1.4 -47.4 4.65 L-48.4 3.45 Q-49.25 7.4 -50.5 11.1 L-50.6 11.45 Q-57.75 31.8 -77.4 44.95 -79.6 42.55 -82.6 41.85 L-82.85 41.75 -83.9 41.55 -85.2 41.35 -86.9 41.3 Q-88.5 30.65 -88.6 20.95 -88.7 1.45 -82.7 -14.1 L-70.7 -48.95 M-55.65 -8.5 Q-58.9 -7.15 -61.35 -5.1 -66.8 -0.3 -67.45 8.5 -69.8 -1.9 -64.9 -10.4 -70.25 -2.75 -69.75 7.8 -68.2 19.8 -68.1 32.55 -64.2 23.6 -53.95 14.0 L-53.7 8.5 -53.55 8.05 -53.4 6.5 Q-52.8 3.3 -51.7 0.35 -53.8 1.75 -55.4 3.3 L-55.65 3.5 -56.25 4.2 Q-58.95 7.35 -59.6 11.35 -60.2 5.35 -59.1 0.15 L-58.6 -1.45 Q-57.55 -5.15 -55.65 -8.5" fill="url(#gradient3)" fill-rule="evenodd" stroke="none"/>
  </g>
  <defs>
    <linearGradient gradientTransform="matrix(-0.0019, 0.0134, -0.0079, -0.0011, 49.4, 62.15)" gradientUnits="userSpaceOnUse" id="gradient0" spreadMethod="pad" x1="-819.2" x2="819.2">
      <stop offset="0.0" stop-color="#4dff84"/>
      <stop offset="1.0" stop-color="#3bc66e"/>
    </linearGradient>
    <linearGradient gradientTransform="matrix(-0.0245, -0.025, 0.0052, -0.0051, 22.95, 15.3)" gradientUnits="userSpaceOnUse" id="gradient1" spreadMethod="pad" x1="-819.2" x2="819.2">
      <stop offset="0.0" stop-color="#4fb6ff"/>
      <stop offset="1.0" stop-color="#4154c6"/>
    </linearGradient>
    <linearGradient gradientTransform="matrix(-0.0019, 0.0134, -0.0079, -0.0011, 49.4, 62.15)" gradientUnits="userSpaceOnUse" id="gradient2" spreadMethod="pad" x1="-819.2" x2="819.2">
      <stop offset="0.0" stop-color="#4fb6ff"/>
      <stop offset="1.0" stop-color="#4154c6"/>
    </linearGradient>
    <linearGradient gradientTransform="matrix(0.0, 0.0135, -0.0079, 0.0, 42.75, 63.15)" gradientUnits="userSpaceOnUse" id="gradient3" spreadMethod="pad" x1="-819.2" x2="819.2">
      <stop offset="0.0" stop-color="#4dff84"/>
      <stop offset="1.0" stop-color="#3bc66e"/>
    </linearGradient>
  </defs>
</svg>
