<?xml version="1.0" encoding="UTF-8" standalone="no"?>
<svg xmlns:xlink="http://www.w3.org/1999/xlink" height="101.2px" width="148.1px" xmlns="http://www.w3.org/2000/svg">
  <g transform="matrix(1.0, 0.0, 0.0, 1.0, 74.05, 50.6)">
    <path d="M37.8 -28.15 L37.85 -28.15 37.85 -28.1 37.8 -28.15" fill="#3ed0f3" fill-rule="evenodd" stroke="none"/>
    <path d="M37.8 -28.15 L37.85 -28.1 37.85 -28.15 37.8 -28.15 M57.1 -19.75 Q61.7 -16.45 66.15 -15.55 66.6 -13.35 65.4 -10.5 61.05 -0.9 53.1 9.45 L52.25 10.6 Q50.95 11.2 48.1 11.35 L48.05 11.35 Q39.6 12.1 17.95 9.0 -9.85 6.05 -48.5 -1.75 L-70.5 -6.3 Q-75.95 -24.6 -73.0 -32.2 -73.55 -30.45 -53.65 -28.25 L-42.6 -27.75 Q-37.85 -28.25 -33.55 -29.7 9.75 -50.2 21.75 -50.6 33.5 -46.85 49.25 -26.65 53.2 -22.45 57.0 -19.75 L57.1 -19.75 M73.5 42.3 Q76.2 48.0 65.9 49.75 L64.85 49.8 55.9 50.55 40.45 50.05 Q16.55 47.9 6.05 44.05 -4.55 40.1 -17.6 30.95 L-42.1 13.95 -33.75 15.45 Q-13.95 19.15 14.75 23.05 35.15 25.75 45.2 25.5 L49.1 25.4 49.65 25.3 49.75 25.3 73.5 42.3 M-47.3 -31.6 Q-69.4 -33.45 -70.35 -35.4 -59.7 -42.6 -16.75 -42.4 L-30.95 -36.05 Q-33.05 -35.0 -35.3 -34.1 -40.55 -32.25 -47.3 -31.6" fill="#012b15" fill-rule="evenodd" stroke="none"/>
  </g>
</svg>
