<?xml version="1.0" encoding="UTF-8" standalone="no"?>
<svg xmlns:xlink="http://www.w3.org/1999/xlink" height="102.5px" width="151.75px" xmlns="http://www.w3.org/2000/svg">
  <g transform="matrix(1.0, 0.0, 0.0, 1.0, 75.85, 51.25)">
    <path d="M13.5 -49.25 L15.85 -48.65 Q18.0 -49.05 18.7 -48.65 31.45 -44.1 43.75 -32.05 L43.95 -31.75 Q58.55 -18.0 63.5 -4.85 67.55 1.15 61.65 5.1 L58.8 7.35 Q57.2 10.0 58.4 13.2 70.15 22.25 74.9 29.4 74.15 34.4 67.2 39.4 55.1 47.45 32.7 50.25 16.95 49.75 1.45 46.65 -28.95 40.55 -44.7 29.95 -48.65 27.7 -48.4 25.85 L-48.35 25.85 Q-58.9 21.2 -70.05 14.0 -75.3 10.25 -74.8 7.3 -71.95 -0.3 -65.2 -6.65 -60.05 -12.05 -56.45 -17.95 -52.75 -21.7 -49.3 -22.3 -45.9 -23.0 -42.75 -24.1 -28.65 -29.25 -20.65 -35.6 -9.35 -46.15 -1.15 -49.85 L3.6 -49.95 Q7.7 -50.75 13.5 -49.25 5.15 -51.2 -7.6 -40.75 M-12.85 17.1 L-12.9 17.1" fill="none" stroke="#000000" stroke-linecap="round" stroke-linejoin="round" stroke-width="2.0"/>
    <path d="M-6.5 -17.05 Q-8.6 -22.75 -6.75 -24.25 -5.75 -25.05 -3.75 -24.05 -2.4 -28.4 0.55 -28.2 L0.6 -28.2 Q4.15 -27.6 0.9 -23.05 3.55 -22.45 3.2 -21.05 1.7 -18.1 -1.95 -16.8 0.75 -17.6 0.85 -15.5 0.75 -13.7 -5.8 -10.45 -2.8 -11.55 -2.35 -10.5 -0.95 -8.3 -5.05 -4.0 -2.7 -5.85 -1.75 -4.35 -0.6 -1.2 -1.25 3.0 L-1.35 2.95 Q-8.75 1.95 -10.75 -1.25 -11.0 -2.65 -8.45 -2.45 -13.3 -7.3 -11.9 -9.55 L-8.6 -9.65 Q-11.0 -13.6 -10.65 -16.0 -10.3 -18.5 -9.15 -18.4 -7.65 -18.55 -6.5 -17.05 L-6.4 -16.75 M38.75 -17.7 L38.8 -18.0 Q39.65 -23.85 38.0 -25.05 37.05 -25.7 35.6 -24.4 33.9 -28.5 31.55 -27.85 28.8 -26.85 32.05 -22.85 30.05 -21.85 30.5 -20.55 32.1 -17.85 35.2 -17.1 L38.45 -16.8 M35.2 -17.1 Q32.95 -17.5 33.2 -15.45 33.5 -13.7 39.15 -11.45 L40.2 -11.05 M39.15 -11.45 Q36.65 -12.1 36.45 -11.0 35.6 -8.7 39.5 -5.05 L40.65 -4.0 M38.8 -18.0 Q39.5 -19.6 40.7 -19.65 41.6 -19.9 42.25 -17.5 42.85 -15.2 41.5 -11.05 43.4 -12.0 44.15 -11.4 45.6 -9.4 42.45 -3.95 44.4 -4.5 44.4 -3.15 43.25 0.3 38.5 1.3 L37.8 -1.15 36.8 -4.9 Q37.35 -6.5 39.5 -5.05 M42.45 -3.95 L42.3 -3.7 M58.4 13.2 Q36.15 6.65 21.3 7.6 5.55 8.95 -12.85 17.1 M-12.9 17.1 Q-35.75 28.3 -44.7 29.95 M-48.35 25.85 Q-30.85 14.15 -11.95 6.65 8.25 -0.85 21.95 -0.9 34.7 -0.95 58.8 7.35 M-1.95 -16.8 Q-3.7 -16.2 -5.9 -15.95 M-5.05 -4.0 L-6.3 -2.8 M-5.8 -10.45 L-6.95 -9.9 M-8.45 -2.45 L-8.2 -2.2" fill="none" stroke="#000000" stroke-linecap="round" stroke-linejoin="round" stroke-width="1.5"/>
    <path d="M38.5 1.3 Q40.7 -0.7 41.2 -5.5 41.6 -11.2 38.6 -17.45 35.75 -22.8 32.1 -26.85 M-1.35 2.95 Q-5.75 0.55 -7.25 -4.2 -8.75 -9.8 -6.15 -16.55 -3.65 -22.4 0.15 -27.05" fill="none" stroke="#000000" stroke-linecap="round" stroke-linejoin="round" stroke-opacity="0.49803922" stroke-width="1.0"/>
  </g>
</svg>
