<?xml version="1.0" encoding="UTF-8" standalone="no"?>
<svg xmlns:xlink="http://www.w3.org/1999/xlink" height="118.05px" width="91.75px" xmlns="http://www.w3.org/2000/svg">
  <g transform="matrix(1.0, 0.0, 0.0, 1.0, 45.9, 59.05)">
    <path d="M-14.4 -24.75 Q-8.05 -29.2 2.35 -25.75 L1.95 -31.75 Q-6.5 -32.2 -14.4 -24.75 L-14.5 -24.9 -14.4 -24.55 -14.4 -24.75 Q-13.9 -30.6 -10.3 -33.8 -6.9 -36.2 -2.0 -37.65 5.6 -40.8 9.25 -48.85 L0.55 -54.25 Q1.8 -46.85 -8.95 -41.1 -14.55 -37.85 -15.15 -30.4 L-15.1 -30.2 Q-15.3 -28.05 -14.5 -24.9 L-18.7 -27.0 Q-25.25 -30.85 -24.2 -36.85 L-23.4 -42.65 Q-22.1 -50.05 -29.8 -53.1 L-22.4 -58.3 Q-17.75 -56.5 -15.45 -51.65 -12.8 -44.2 -17.45 -39.85 -20.65 -36.7 -19.95 -33.05 -18.5 -27.95 -14.5 -24.9 -20.0 -23.6 -25.15 -26.0 L-25.3 -26.1 Q-27.85 -27.5 -29.45 -29.5 -34.55 -34.4 -44.6 -30.0 L-45.15 -21.95 Q-39.25 -27.3 -31.4 -22.5 -25.85 -19.6 -14.4 -24.55 L-11.65 57.2 -11.0 57.3 Q-4.2 58.65 2.55 58.05 L10.05 56.75 Q14.35 55.65 18.75 53.75 23.15 51.65 26.85 49.55 L33.9 44.95 Q42.55 38.6 45.1 32.45 L-14.4 -24.75 M-14.4 -24.55 Q-19.7 -18.15 -26.2 -15.15 L-21.8 -11.65 Q-15.95 -17.5 -14.4 -24.55" fill="none" stroke="#000000" stroke-linecap="round" stroke-linejoin="round" stroke-width="1.5"/>
  </g>
</svg>
