<?xml version="1.0" encoding="UTF-8" standalone="no"?>
<svg xmlns:xlink="http://www.w3.org/1999/xlink" height="98.6px" width="145.35px" xmlns="http://www.w3.org/2000/svg">
  <g transform="matrix(1.0, 0.0, 0.0, 1.0, 72.45, 49.3)">
    <path d="M72.4 5.65 Q69.75 4.45 66.75 3.55 L61.35 2.05 62.45 7.0 62.45 7.05 58.45 5.85 Q54.4 4.5 40.45 5.0 7.3 9.1 -17.05 16.4 -47.15 25.05 -65.9 36.0 -69.25 29.35 -66.85 21.0 -52.1 11.3 -20.95 3.15 2.25 -3.05 31.35 -6.45 51.25 -8.35 59.6 -5.4 L60.5 -2.2 66.75 -0.35 69.0 0.5 Q70.95 2.75 72.4 5.65 M48.5 -10.25 Q49.15 -19.6 57.0 -27.25 L59.0 -25.7 Q53.3 -20.75 51.7 -9.85 L48.5 -10.25 M-54.2 -19.95 Q-49.9 -25.05 -44.1 -29.45 L-43.4 -29.85 -42.2 -23.35 Q-52.1 -22.3 -54.2 -19.95 M-62.7 -4.75 Q-60.45 -11.4 -56.45 -16.9 -53.05 -20.05 -46.5 -19.55 L-44.75 -11.4 Q-56.05 -9.0 -62.7 -4.75 M-65.4 12.0 Q-65.4 5.8 -63.95 0.05 -52.7 -6.95 -37.8 -10.35 L-35.75 -0.25 Q-53.55 4.5 -65.4 12.0 M-50.0 32.55 L-54.15 42.55 -62.8 43.8 -59.85 36.45 -50.0 32.55 M-62.7 37.5 L-68.25 48.65 -72.45 49.3 -67.1 39.1 -62.7 37.5 M-16.2 20.35 L-23.85 40.1 -33.85 41.0 -27.4 24.05 -20.35 21.7 -16.2 20.35 M-32.85 25.95 L-40.05 44.6 -50.65 46.4 -44.45 30.2 -37.35 27.35 Q-35.1 26.6 -32.85 25.95 M4.95 -45.7 Q-8.05 -45.1 -19.1 -41.9 -22.75 -40.75 -26.0 -39.4 L-23.6 -44.85 Q-16.2 -49.45 -2.1 -49.3 L4.95 -45.7" fill="#e9cd00" fill-rule="evenodd" stroke="none"/>
    <path d="M72.4 5.65 Q70.95 2.75 69.0 0.5" fill="none" stroke="#000000" stroke-linecap="round" stroke-linejoin="round" stroke-width="1.0"/>
  </g>
</svg>
