<?xml version="1.0" encoding="UTF-8" standalone="no"?>
<svg xmlns:xlink="http://www.w3.org/1999/xlink" height="49.45px" width="49.45px" xmlns="http://www.w3.org/2000/svg">
  <g transform="matrix(1.0, 0.0, 0.0, 1.0, 24.75, 24.75)">
    <path d="M6.55 -9.35 L23.25 -11.65 23.95 -11.4 24.5 -10.85 24.7 -10.15 24.35 -9.4 12.75 2.85 20.1 18.0 20.25 18.8 Q20.2 19.3 19.8 19.5 L19.1 19.95 18.35 19.85 3.0 12.6 -9.2 24.25 -9.9 24.7 -10.7 24.45 -11.2 23.95 -11.35 23.15 -9.2 6.55 -23.95 -1.25 -24.55 -2.0 -24.75 -2.7 -24.4 -3.5 -24.1 -3.7 -23.6 -3.8 -7.15 -7.1 -4.3 -21.5 -4.35 -21.95 -4.0 -23.7 -3.8 -24.5 -2.9 -24.7 -2.2 -24.7 -1.6 -24.15 6.55 -9.35" fill="#5df1ff" fill-rule="evenodd" stroke="none"/>
  </g>
</svg>
