<?xml version="1.0" encoding="UTF-8" standalone="no"?>
<svg xmlns:xlink="http://www.w3.org/1999/xlink" height="52.75px" width="93.4px" xmlns="http://www.w3.org/2000/svg">
  <g transform="matrix(1.0, 0.0, 0.0, 1.0, 46.7, 26.4)">
    <path d="M-33.2 -5.65 Q-27.5 -11.95 -20.05 -15.55 -6.15 -20.95 0.6 -14.75 L1.2 -14.05 1.25 -14.05 Q6.45 -7.9 6.95 6.0 5.4 18.9 13.6 23.4 15.7 24.65 17.55 25.0 L29.45 24.6 31.9 24.0 Q38.25 22.05 42.9 16.65 45.55 13.5 45.7 9.85 45.7 8.3 45.4 7.75 44.95 7.1 44.05 7.9 L43.05 9.0 Q34.1 20.35 21.45 19.15 17.6 18.75 15.7 15.8 13.0 11.35 13.35 5.7 14.7 -14.2 1.4 -22.7 -8.05 -27.9 -20.7 -23.05 L-24.2 -21.2 -25.4 -20.45 -29.7 -17.0 Q-34.9 -12.25 -36.75 -6.45 -38.05 -2.85 -37.75 0.1 -36.65 -0.35 -33.2 -5.65 -31.15 -6.6 -29.2 -5.05 L-28.7 -4.35 Q-28.2 -3.55 -28.05 -2.75 -27.6 0.35 -32.4 3.85 -37.2 7.25 -41.4 12.5 L-41.95 8.8 -42.35 7.5 -43.75 3.6 -44.55 1.6 Q-46.65 -3.4 -44.9 -7.3 -43.2 -11.2 -40.7 -10.15 -38.1 -9.0 -36.75 -6.45" fill="none" stroke="#000000" stroke-linecap="round" stroke-linejoin="round" stroke-width="2.0"/>
  </g>
</svg>
