<?xml version="1.0" encoding="UTF-8" standalone="no"?>
<svg xmlns:xlink="http://www.w3.org/1999/xlink" height="81.2px" width="53.85px" xmlns="http://www.w3.org/2000/svg">
  <g transform="matrix(1.0, 0.0, 0.0, 1.0, 26.95, 40.6)">
    <path d="M23.75 -34.05 L26.9 -23.55 Q23.1 -23.55 21.65 -16.85 21.15 -14.45 19.95 -11.7 18.7 -8.95 17.0 -3.0 15.7 4.35 17.15 9.45 14.6 8.25 13.9 7.35 13.15 6.45 12.55 5.1 L12.15 10.5 Q10.75 22.05 6.15 29.9 L5.75 26.6 Q3.45 34.4 -4.1 37.65 -7.3 39.0 -11.35 39.55 -13.45 40.35 -15.9 40.55 L-17.3 40.6 Q-11.45 38.4 -10.0 33.9 -16.15 38.95 -25.7 35.65 L-26.95 35.2 Q-11.0 32.9 -7.05 20.35 -6.1 17.45 -5.8 14.05 -6.75 21.2 -19.0 21.7 L-18.65 21.55 Q-11.0 17.45 -9.25 10.35 -8.55 7.25 -7.0 4.2 L-8.75 5.45 Q-8.25 2.2 -7.3 -0.85 -5.05 -8.05 -0.35 -13.95 -4.85 -9.75 -10.55 -9.25 L-10.3 -9.4 -10.1 -9.5 Q-6.45 -11.9 -3.85 -16.7 L-2.65 -19.35 Q-0.25 -24.5 3.75 -28.95 -1.6 -24.6 -6.55 -23.75 L-5.7 -24.4 Q-1.55 -28.05 0.0 -31.65 3.95 -38.4 9.15 -40.05 L13.0 -40.6 Q17.6 -39.3 23.75 -34.05" fill="#0f4830" fill-rule="evenodd" stroke="none"/>
  </g>
</svg>
