<?xml version="1.0" encoding="UTF-8" standalone="no"?>
<svg xmlns:xlink="http://www.w3.org/1999/xlink" height="71.2px" width="45.9px" xmlns="http://www.w3.org/2000/svg">
  <g transform="matrix(1.0, 0.0, 0.0, 1.0, 22.95, 35.6)">
    <path d="M21.35 -30.9 L22.15 -28.2 Q12.9 -34.9 8.7 -27.15 4.45 -19.45 -0.15 -2.55 -4.8 14.35 -7.25 16.4 -9.7 18.4 -11.0 18.3 -10.05 15.4 -9.75 12.0 -10.7 19.15 -22.95 19.65 L-22.6 19.5 Q-14.95 15.4 -13.2 8.3 -12.5 5.2 -10.95 2.15 L-12.7 3.4 Q-12.2 0.15 -11.25 -2.9 L-9.35 -5.35 Q-3.7 -12.85 -0.3 -20.05 L3.3 -28.4 Q5.25 -33.3 7.9 -34.5 10.55 -35.75 13.1 -35.55 15.65 -35.35 21.35 -30.9 M22.7 -26.5 L22.95 -25.6 Q19.15 -25.6 17.7 -18.9 17.2 -16.5 16.0 -13.75 14.75 -11.0 13.05 -5.05 11.75 2.3 13.2 7.4 10.65 6.2 9.95 5.3 9.2 4.4 8.6 3.05 L8.2 8.45 Q6.8 20.0 2.2 27.85 L1.8 24.55 Q-0.5 32.35 -8.05 35.6 -1.55 30.5 1.6 15.85 4.7 1.2 6.6 -6.45 8.5 -14.15 12.7 -21.5 L15.35 -25.05 17.5 -26.9 Q19.0 -28.15 22.7 -26.5" fill="#21d796" fill-rule="evenodd" stroke="none"/>
  </g>
</svg>
