<?xml version="1.0" encoding="UTF-8" standalone="no"?>
<svg xmlns:xlink="http://www.w3.org/1999/xlink" height="32.25px" width="66.05px" xmlns="http://www.w3.org/2000/svg">
  <g transform="matrix(1.0, 0.0, 0.0, 1.0, 33.05, 16.1)">
    <path d="M-30.0 -1.0 Q-19.3 13.85 -1.85 15.15 13.85 15.4 30.8 -2.95 34.15 -8.2 27.95 -14.5 L25.15 -15.0 21.75 -15.1 Q15.0 -14.95 5.65 -11.6 1.9 -10.3 -2.25 -8.4 -8.3 -5.75 -15.25 -4.6 L-30.4 -3.85 -32.05 -4.0 -30.0 -1.0" fill="none" stroke="#000000" stroke-linecap="round" stroke-linejoin="round" stroke-width="2.0"/>
    <path d="M25.15 -15.0 Q24.3 -9.4 17.55 -7.6 L16.15 -7.3 Q8.45 -7.5 5.65 -11.6 4.35 -4.65 -2.25 -1.4 -10.25 -0.45 -15.25 -4.6 -19.3 1.25 -25.25 0.55 -27.5 0.25 -30.0 -1.0 Z" fill="none" stroke="#000000" stroke-linecap="round" stroke-linejoin="round" stroke-width="1.4000000000000001"/>
  </g>
</svg>
