<?xml version="1.0" encoding="UTF-8" standalone="no"?>
<svg xmlns:xlink="http://www.w3.org/1999/xlink" height="72.05px" width="74.1px" xmlns="http://www.w3.org/2000/svg">
  <g transform="matrix(1.0, 0.0, 0.0, 1.0, 37.05, 36.05)">
    <path d="M-5.8 -27.05 L-5.0 -27.75 Q-1.3 -30.85 5.35 -33.7 6.0 -32.6 -5.3 -20.4 -15.85 -10.35 -19.35 3.8 -20.2 7.05 -20.65 10.6 -22.1 6.95 -22.15 2.65 L-22.05 0.4 Q-21.9 -2.6 -21.1 -5.9 -17.0 -16.75 -5.8 -27.05 M5.0 -13.85 Q11.8 -25.55 30.25 -35.45 L32.05 -36.05 Q36.6 -36.2 37.05 -34.25 31.4 -31.35 27.9 -28.1 14.4 -17.3 10.05 -7.8 4.05 4.1 4.25 15.65 4.4 25.95 9.6 36.0 0.2 32.75 -1.25 26.85 L-1.4 25.55 Q-2.65 18.95 -2.5 12.7 -2.25 -1.45 5.0 -13.85 M-33.8 -15.5 L-33.25 -11.3 Q-37.0 -13.8 -37.05 -17.2 L-32.6 -17.2 -33.8 -15.5 M-23.55 -20.8 Q-21.5 -22.6 -18.7 -24.0 -19.3 -16.75 -29.65 -7.45 L-30.4 -9.95 Q-29.7 -12.85 -27.2 -16.25 -25.85 -18.8 -23.55 -20.8" fill="#21d46c" fill-rule="evenodd" stroke="none"/>
  </g>
</svg>
