<?xml version="1.0" encoding="UTF-8" standalone="no"?>
<svg xmlns:xlink="http://www.w3.org/1999/xlink" height="82.95px" width="95.0px" xmlns="http://www.w3.org/2000/svg">
  <g transform="matrix(1.0, 0.0, 0.0, 1.0, 47.5, 41.5)">
    <path d="M40.9 -34.8 L37.7 -35.5 Q30.45 -36.9 24.6 -35.3 L22.8 -34.7 Q4.35 -24.8 -2.45 -13.1 -9.7 -0.7 -9.95 13.45 -10.1 19.7 -8.85 26.3 L-8.7 27.6 Q-7.25 33.5 2.15 36.75 9.85 39.45 22.85 40.4 29.05 40.9 32.95 35.7 40.1 26.15 43.05 3.6 50.85 -30.5 40.9 -34.8 L39.5 -36.7 Q31.85 -45.1 2.9 -34.95 L-2.1 -32.95 Q-8.75 -30.1 -12.45 -27.0 L-13.25 -26.3 Q-24.45 -16.0 -28.55 -5.15 -29.35 -1.85 -29.5 1.15 L-29.6 3.4 Q-29.55 7.7 -28.1 11.35 -24.0 21.95 -8.7 27.6 M-29.6 3.4 Q-37.5 -0.25 -38.1 -5.8 -47.45 -12.25 -46.4 -17.05 L-45.45 -18.1 Q-43.4 -19.8 -38.5 -18.2 -36.5 -19.95 -33.95 -20.25 L-31.0 -20.05 Q-28.95 -21.85 -26.15 -23.25 -21.6 -25.55 -14.95 -26.65 L-12.45 -27.0 M-38.1 -5.8 Q-38.3 -7.4 -37.85 -9.2 -37.15 -12.1 -34.65 -15.5 -33.3 -18.05 -31.0 -20.05 M-41.25 -14.75 L-40.05 -16.45 -38.5 -18.2" fill="none" stroke="#000000" stroke-linecap="round" stroke-linejoin="round" stroke-width="2.0"/>
  </g>
</svg>
