<?xml version="1.0" encoding="UTF-8" standalone="no"?>
<svg xmlns:xlink="http://www.w3.org/1999/xlink" height="96.25px" width="78.45px" xmlns="http://www.w3.org/2000/svg">
  <g transform="matrix(1.0, 0.0, 0.0, 1.0, 39.25, 48.15)">
    <path d="M-16.9 -25.45 L-15.4 -23.7 Q-13.1 -16.05 -14.55 -6.0 -16.05 4.0 -15.65 10.35 L-15.35 14.9 Q-14.9 18.7 -13.75 22.3 -11.55 29.25 -6.75 35.5 -3.4 39.2 0.75 41.7 14.35 50.0 36.15 45.5 L38.1 45.1 Q39.25 41.45 29.45 42.3 17.9 43.4 9.0 37.0 1.0 31.3 -4.8 19.55 L-5.45 18.1 Q-7.3 13.35 -7.55 6.0 -7.95 -5.05 -4.8 -21.85 -3.4 -28.55 -4.0 -33.55 -4.8 -40.7 -9.7 -44.25 -19.4 -49.75 -24.45 -44.75 -16.4 -45.45 -14.2 -42.0 -28.1 -45.1 -35.2 -34.2 L-37.05 -31.2 Q-39.15 -26.95 -37.5 -23.95 -35.45 -21.35 -32.15 -20.8 -28.45 -20.25 -23.1 -22.35 -20.2 -23.5 -16.9 -25.45 L-15.85 -26.05" fill="none" stroke="#000000" stroke-linecap="round" stroke-linejoin="round" stroke-width="2.0"/>
  </g>
</svg>
