<?xml version="1.0" encoding="UTF-8" standalone="no"?>
<svg xmlns:xlink="http://www.w3.org/1999/xlink" height="100.15px" width="90.35px" xmlns="http://www.w3.org/2000/svg">
  <g transform="matrix(1.0, 0.0, 0.0, 1.0, 45.2, 50.1)">
    <path d="M-31.0 -28.65 Q-31.6 -34.8 -34.4 -39.3 -37.6 -44.65 -40.9 -47.05 -43.0 -48.6 -45.2 -48.95 -45.05 -49.8 -43.8 -50.05 -41.9 -50.4 -37.4 -48.95 -29.45 -47.6 -22.6 -39.5 -17.3 -33.2 -16.6 -24.3 L-16.65 -18.8 -16.65 -18.6 -16.8 -16.45 -16.85 -15.75 -16.85 -15.7 -16.95 -13.45 Q-17.25 -4.3 -15.95 2.7 -14.15 13.9 -6.55 18.0 1.0 22.05 6.2 22.65 10.4 23.1 23.05 16.75 L28.85 13.7 Q39.5 16.25 42.95 21.4 46.35 26.4 44.45 32.25 39.35 37.55 33.9 41.25 L31.9 42.6 Q22.75 48.3 12.85 49.65 L10.4 49.95 7.9 50.0 -3.05 49.15 -3.8 48.95 -6.55 48.05 Q-10.75 46.55 -14.3 44.4 L-14.55 44.2 -16.15 43.1 -16.3 43.0 Q-20.45 40.1 -23.75 36.2 L-24.45 35.2 -24.5 35.15 -24.5 35.1 -24.8 34.8 Q-29.0 29.2 -31.45 21.7 L-30.85 22.4 Q-30.65 22.7 -30.45 22.55 -28.85 21.25 -31.0 20.35 -31.7 20.85 -31.55 21.4 -32.7 18.0 -33.45 14.3 -34.75 -0.4 -31.9 -15.45 -30.65 -22.05 -30.95 -27.45 L-30.5 -27.5 Q-29.05 -28.3 -30.7 -28.85 L-31.0 -28.65 M-37.75 -44.9 L-37.75 -44.85 Q-37.55 -44.4 -37.25 -44.4 L-37.1 -44.45 Q-35.25 -44.85 -37.25 -45.7 -37.9 -45.5 -37.75 -44.9 M-31.3 -35.4 Q-31.55 -35.1 -31.35 -34.4 L-30.8 -34.05 -30.85 -34.6 Q-30.95 -35.15 -31.3 -35.4 M-33.25 -39.55 L-33.4 -39.85 -33.85 -40.6 -34.0 -40.4 -34.0 -40.35 Q-34.15 -39.55 -33.45 -39.55 L-33.25 -39.55 M-29.05 -19.8 L-29.05 -19.45 Q-28.0 -20.4 -28.9 -21.35 L-28.9 -21.3 -29.05 -19.8 M-33.15 13.25 L-32.7 13.55 Q-31.2 12.95 -32.65 12.1 -33.45 12.3 -33.15 13.25" fill="#487e62" fill-rule="evenodd" stroke="none"/>
    <path d="M-37.75 -44.9 Q-37.9 -45.5 -37.25 -45.7 -35.25 -44.85 -37.1 -44.45 L-37.25 -44.4 Q-37.55 -44.4 -37.75 -44.85 L-37.75 -44.9 M-29.05 -19.8 L-28.9 -21.3 -28.9 -21.35 Q-28.0 -20.4 -29.05 -19.45 L-29.05 -19.8" fill="#17985b" fill-rule="evenodd" stroke="none"/>
    <path d="M-31.5 21.6 L-31.55 21.45 -31.55 21.4 Q-31.7 20.85 -31.0 20.35 -28.85 21.25 -30.45 22.55 -30.65 22.7 -30.85 22.4 L-31.45 21.7 -31.5 21.6 M-30.95 -27.45 L-31.0 -28.65 -30.7 -28.85 Q-29.05 -28.3 -30.5 -27.5 L-30.95 -27.45 M-33.25 -39.55 L-33.45 -39.55 Q-34.15 -39.55 -34.0 -40.35 L-34.0 -40.4 -33.85 -40.6 -33.4 -39.85 -33.25 -39.55 M-31.3 -35.4 Q-30.95 -35.15 -30.85 -34.6 L-30.8 -34.05 -31.35 -34.4 Q-31.55 -35.1 -31.3 -35.4 M-33.15 13.25 Q-33.45 12.3 -32.65 12.1 -31.2 12.95 -32.7 13.55 L-33.15 13.25" fill="#117b44" fill-rule="evenodd" stroke="none"/>
    <path d="M-24.5 35.1 L-24.8 34.85 -24.8 34.8 -24.5 35.1 M-31.45 21.7 L-31.5 21.7 -31.5 21.6 -31.45 21.7" fill="#9d25d7" fill-rule="evenodd" stroke="none"/>
    <path d="M-14.3 44.4 L-14.35 44.4 -14.55 44.2 -14.3 44.4" fill="#6f1a98" fill-rule="evenodd" stroke="none"/>
  </g>
</svg>
