<?xml version="1.0" encoding="UTF-8" standalone="no"?>
<svg xmlns:xlink="http://www.w3.org/1999/xlink" height="90.25px" width="86.8px" xmlns="http://www.w3.org/2000/svg">
  <g transform="matrix(1.0, 0.0, 0.0, 1.0, 43.4, 45.1)">
    <path d="M34.4 -44.95 Q39.65 -45.8 42.65 -40.95 45.1 -14.7 39.7 3.4 34.35 21.5 26.9 30.65 29.3 25.5 31.2 11.2 27.85 33.25 15.2 41.0 -0.65 48.65 -19.85 42.25 -39.1 35.8 -43.4 5.35 -33.7 17.65 -18.05 20.3 -24.05 13.65 -22.45 3.35 -14.35 15.35 0.35 10.55 11.15 4.85 18.75 -19.9 26.3 -44.7 34.4 -44.95" fill="url(#gradient0)" fill-rule="evenodd" stroke="none"/>
  </g>
  <defs>
    <linearGradient gradientTransform="matrix(-0.0843, 0.0555, -0.0208, -0.0316, -22.35, 28.55)" gradientUnits="userSpaceOnUse" id="gradient0" spreadMethod="pad" x1="-819.2" x2="819.2">
      <stop offset="0.0" stop-color="#fff23c" stop-opacity="0.0"/>
      <stop offset="0.3803921568627451" stop-color="#fff23c" stop-opacity="0.84705883"/>
      <stop offset="0.6039215686274509" stop-color="#fff23c" stop-opacity="0.8"/>
      <stop offset="1.0" stop-color="#fff23c" stop-opacity="0.0"/>
    </linearGradient>
  </defs>
</svg>
