<?xml version="1.0" encoding="UTF-8" standalone="no"?>
<svg xmlns:xlink="http://www.w3.org/1999/xlink" height="53.75px" width="86.5px" xmlns="http://www.w3.org/2000/svg">
  <g transform="matrix(1.0, 0.0, 0.0, 1.0, 43.25, 26.85)">
    <path d="M16.85 -24.0 Q15.0 -17.85 20.15 -4.65 25.25 8.6 28.9 10.7 L31.25 8.3 Q41.7 -1.1 42.25 -14.2 41.4 -28.7 23.4 -25.15 L16.85 -24.0 Q8.5 -22.45 0.75 -21.75 -1.7 -13.2 1.05 3.5 4.2 18.3 8.85 22.95 20.0 19.15 28.9 10.7 M8.85 22.95 Q2.2 25.3 -5.4 25.9 L-17.3 25.1 Q-34.4 22.35 -40.65 8.95 -43.6 0.75 -41.1 -6.8 -39.1 -13.6 -32.25 -17.1 -25.75 -19.95 -18.0 -20.7 L-9.7 -21.05 0.75 -21.75 M-18.0 -20.7 Q-23.25 -10.35 -22.55 3.15 -21.85 16.7 -17.3 25.1" fill="none" stroke="#000000" stroke-linecap="round" stroke-linejoin="round" stroke-width="2.0"/>
  </g>
</svg>
