<?xml version="1.0" encoding="UTF-8" standalone="no"?>
<svg xmlns:xlink="http://www.w3.org/1999/xlink" height="88.75px" width="138.15px" xmlns="http://www.w3.org/2000/svg">
  <g transform="matrix(1.0, 0.0, 0.0, 1.0, 69.1, 44.35)">
    <path d="M-54.0 41.8 Q-60.1 38.4 -65.35 31.9 -71.65 21.45 -67.4 17.25 -62.1 15.1 -54.6 14.2 -51.05 13.9 -48.6 18.05 -51.2 19.4 -57.1 19.05 L-58.85 19.2 Q-58.15 24.15 -53.1 30.9 -48.4 36.0 -40.4 38.15 -36.55 35.15 -32.85 30.15 -24.0 18.65 -19.2 -5.65 -15.2 -41.05 -1.45 -44.35 5.2 -43.6 6.4 -38.45 0.7 -28.2 -4.15 -3.65 -6.35 7.25 -10.2 16.0 -19.1 36.4 -30.8 41.8 -41.75 47.05 -54.0 41.8 M41.95 35.3 Q48.4 34.95 52.75 30.45 59.45 23.45 58.85 17.15 L57.05 16.85 50.3 16.2 Q50.7 13.15 53.2 12.1 58.75 11.4 67.45 14.6 70.7 17.85 67.3 26.8 61.45 37.05 55.2 39.5 L55.1 39.6 Q50.55 43.2 33.9 41.15 22.45 37.05 18.85 26.35 10.05 -6.6 8.15 -38.45 10.7 -44.2 20.6 -42.65 26.0 -2.95 33.9 25.2 37.8 31.7 41.95 35.3" fill="#927acd" fill-rule="evenodd" stroke="none"/>
  </g>
</svg>
