<?xml version="1.0" encoding="UTF-8" standalone="no"?>
<svg xmlns:xlink="http://www.w3.org/1999/xlink" height="74.55px" width="66.5px" xmlns="http://www.w3.org/2000/svg">
  <g transform="matrix(1.0, 0.0, 0.0, 1.0, 33.25, 37.25)">
    <path d="M32.5 -33.55 L29.05 -36.5 11.25 -3.85 Q9.05 -1.65 3.65 -0.65 3.95 1.7 3.0 3.15 L-0.45 3.95 Q-6.9 11.3 -15.2 14.95 -23.8 17.85 -27.9 21.8 L-32.5 36.2 Q-26.7 37.85 -10.0 31.55 L-2.3 33.25 Q6.8 28.6 13.85 18.15 L13.6 15.0 18.55 15.0 20.15 11.75 20.55 9.5 23.1 7.55 26.35 -3.8 32.5 -33.55" fill="none" stroke="#000000" stroke-linecap="round" stroke-linejoin="round" stroke-width="1.5"/>
    <path d="M23.15 -18.55 L15.0 -3.2 14.3 6.75 M15.0 -3.2 L10.5 5.2 8.5 7.85 7.35 18.1 M-14.8 19.45 L-5.15 18.95 -5.1 18.95 Q3.05 14.45 8.5 7.85 L-2.1 10.6 M-5.15 18.95 L-6.65 19.75 -16.7 28.9 M-5.1 18.95 L-6.25 26.05" fill="none" stroke="#000000" stroke-linecap="round" stroke-linejoin="round" stroke-opacity="0.49803922" stroke-width="1.0"/>
  </g>
</svg>
