<?xml version="1.0" encoding="UTF-8" standalone="no"?>
<svg xmlns:xlink="http://www.w3.org/1999/xlink" height="60.5px" width="54.1px" xmlns="http://www.w3.org/2000/svg">
  <g transform="matrix(1.0, 0.0, 0.0, 1.0, 27.05, 30.25)">
    <path d="M21.75 -30.25 L21.8 -30.2 Q25.9 -25.0 26.75 -19.35 27.8 -15.3 25.1 -14.4 22.55 -14.5 20.9 -18.3 L20.25 -19.85 Q18.3 -16.05 16.35 -16.0 12.65 -15.85 13.55 -18.75 15.8 -24.5 21.75 -30.25 M17.9 -10.1 L18.0 -9.9 Q20.2 -5.15 20.65 -1.55 21.0 6.4 17.5 6.75 13.45 6.05 13.3 0.15 L11.8 1.25 Q8.55 3.25 6.0 2.0 3.45 0.4 7.05 -2.7 13.25 -6.05 17.9 -10.1 M-11.3 19.6 L-11.5 20.4 Q-14.35 29.9 -19.25 30.25 -22.3 28.85 -21.25 24.35 L-21.55 24.4 Q-25.85 24.75 -27.05 23.15 -26.55 21.0 -20.75 20.25 L-11.3 19.6 M6.1 7.8 L6.05 8.5 Q5.7 12.9 4.05 16.45 2.0 21.2 -1.75 22.05 -5.1 20.95 -3.35 15.95 -9.15 17.7 -10.4 14.9 -10.0 12.7 -6.85 11.4 -0.3 8.7 6.1 7.8" fill="#ffe87e" fill-rule="evenodd" stroke="none"/>
  </g>
</svg>
