<?xml version="1.0" encoding="UTF-8" standalone="no"?>
<svg xmlns:xlink="http://www.w3.org/1999/xlink" height="51.9px" width="87.75px" xmlns="http://www.w3.org/2000/svg">
  <g transform="matrix(1.0, 0.0, 0.0, 1.0, 43.9, 25.95)">
    <path d="M-43.15 -2.15 L-41.05 1.0 -39.5 3.75 Q-35.6 9.55 -31.85 12.45 -20.7 21.15 -9.15 18.0 -6.25 16.85 -3.85 14.3 2.05 7.7 3.2 -7.55 5.05 -22.0 12.9 -25.3 L15.2 -25.8 Q18.25 -26.15 22.15 -25.7 L27.5 -24.8 30.1 -24.1 Q36.6 -21.7 41.3 -15.8 43.85 -12.4 43.85 -8.5 43.75 -4.0 41.1 -7.75 32.2 -20.05 18.9 -19.5 14.9 -19.25 12.7 -16.3 9.65 -11.8 9.8 -5.8 10.0 6.35 5.3 14.2 1.15 21.1 -6.75 24.7 -13.5 26.65 -19.75 25.55 L-20.05 25.45 -20.95 25.3 -21.2 25.2 -21.55 25.05 -21.9 24.95 -22.2 24.9 -22.45 24.85 Q-28.45 22.75 -31.0 20.6 L-32.15 19.75 -36.45 15.95 Q-41.65 10.7 -43.0 4.2 L-43.75 0.75 -43.9 -3.3 -43.85 -3.25 -43.7 -3.0 -43.15 -2.15" fill="#4f2a6b" fill-rule="evenodd" stroke="none"/>
    <path d="M-43.15 -2.15 L-43.7 -3.0 -43.65 -3.05 -43.2 -2.4 -43.1 -2.15 -43.15 -2.15" fill="#291343" fill-rule="evenodd" stroke="none"/>
  </g>
</svg>
