<?xml version="1.0" encoding="UTF-8" standalone="no"?>
<svg xmlns:xlink="http://www.w3.org/1999/xlink" height="61.7px" width="61.8px" xmlns="http://www.w3.org/2000/svg">
  <g transform="matrix(1.0, 0.0, 0.0, 1.0, 30.9, 30.85)">
    <path d="M-14.05 19.3 L-2.5 13.05 Q4.15 9.35 8.6 -5.75 13.05 -20.85 16.85 -24.95 20.65 -29.05 24.8 -30.05 32.35 -28.9 29.1 -25.8 L22.1 -19.3 Q18.3 -15.9 14.0 -0.25 9.7 15.4 -7.0 21.75 -9.5 22.7 -13.7 23.5 -9.35 28.05 -15.75 29.85 -23.6 31.1 -30.1 24.2 L-22.7 17.7 Q-18.7 14.8 -16.05 15.4 -13.45 16.05 -14.4 19.5 L-14.05 19.3 -14.3 19.45 -14.4 19.5 Q-18.35 21.5 -20.5 23.8 L-13.7 23.5 M-14.4 19.5 L-14.3 19.45 M-14.4 19.5 L-14.45 19.5 -14.4 19.5" fill="none" stroke="#000000" stroke-linecap="round" stroke-linejoin="round" stroke-width="1.6"/>
  </g>
</svg>
