<?xml version="1.0" encoding="UTF-8" standalone="no"?>
<svg xmlns:xlink="http://www.w3.org/1999/xlink" height="11.1px" width="55.65px" xmlns="http://www.w3.org/2000/svg">
  <g transform="matrix(1.0, 0.0, 0.0, 1.0, 27.85, 5.55)">
    <path d="M-27.65 -5.55 Q-23.7 -3.7 -14.45 -4.0 L-14.55 -0.9 -15.8 -0.75 -15.5 5.55 -26.75 4.7 -26.85 -2.1 -27.85 -2.55 -27.65 -5.55 M23.95 -0.35 L19.7 0.3 20.4 3.05 24.65 2.6 24.6 2.15 23.95 -0.35 M17.55 3.95 L17.45 3.75 16.6 0.2 14.9 -0.05 Q14.65 -1.85 14.55 -3.7 21.2 -2.5 26.55 -5.4 L26.75 -4.25 27.2 -3.2 27.65 -2.05 26.55 -1.35 27.8 4.4 17.75 5.15 17.55 3.95 M-23.4 -0.9 L-23.65 1.3 -23.6 2.05 -18.95 2.35 -19.1 -0.55 -23.4 -0.9" fill="#4fff69" fill-rule="evenodd" stroke="none"/>
  </g>
</svg>
