<?xml version="1.0" encoding="UTF-8" standalone="no"?>
<svg xmlns:xlink="http://www.w3.org/1999/xlink" height="80.8px" width="57.05px" xmlns="http://www.w3.org/2000/svg">
  <g transform="matrix(1.0, 0.0, 0.0, 1.0, 28.55, 40.4)">
    <path d="M21.2 -6.35 L21.25 -7.25 Q22.2 -24.95 25.8 -35.85 19.3 -38.8 17.1 -34.5 L17.05 -34.45 Q13.1 -15.85 13.45 -1.1 L13.45 0.95 13.45 1.65 13.4 2.55 Q13.2 10.2 13.55 17.75 13.85 24.1 14.55 30.45 21.2 31.65 26.55 28.75 L21.2 -5.65 M14.55 30.45 L14.9 34.1 16.6 34.35 17.1 34.4 19.7 34.45 23.95 33.8 26.55 32.8 27.65 32.1 27.2 30.95 26.75 29.9 26.55 28.75 M16.6 34.35 L17.55 38.1 17.75 39.3 27.8 38.55 27.5 37.05 M27.45 36.7 L26.55 32.8 M23.95 33.8 L24.6 36.3 24.65 36.75 20.4 37.2 19.7 34.45 M-14.45 30.15 Q-13.55 17.85 -9.6 4.25 L-6.75 -4.4 Q-0.7 -24.0 1.25 -37.85 -2.95 -40.85 -6.4 -38.95 -8.2 -28.1 -12.0 -17.6 L-12.0 -17.5 -12.05 -17.15 -12.2 -16.9 -12.25 -16.85 Q-27.8 19.15 -27.65 28.6 -23.7 30.45 -14.45 30.15 L-14.55 33.25 -15.8 33.4 -15.5 39.7 -26.75 38.85 -26.85 32.05 -27.85 31.6 -27.65 28.6 M-12.0 -17.5 L-12.25 -16.85 M-26.85 32.05 L-23.4 33.25 -19.1 33.6 -16.5 33.5 -16.2 33.45 -15.8 33.4 M-23.4 33.25 L-23.65 35.45 -23.6 36.2 -18.95 36.5 -19.1 33.6" fill="none" stroke="#000000" stroke-linecap="round" stroke-linejoin="round" stroke-width="1.4000000000000001"/>
  </g>
</svg>
