<?xml version="1.0" encoding="UTF-8" standalone="no"?>
<svg xmlns:xlink="http://www.w3.org/1999/xlink" height="67.05px" width="84.05px" xmlns="http://www.w3.org/2000/svg">
  <g transform="matrix(1.0, 0.0, 0.0, 1.0, 42.05, 33.5)">
    <path d="M37.3 -8.35 Q36.65 -10.7 34.6 -13.0 30.35 -17.85 25.05 -20.8 18.0 -24.8 9.05 -25.2 L8.5 -25.2 1.45 -24.85 -1.4 -24.55 Q-9.3 -23.9 -15.7 -24.5 -29.35 -25.8 -36.2 -32.75 L-36.15 -32.4 Q-32.2 -16.55 -20.8 -5.4 -19.1 -3.7 -14.5 0.15 L-9.85 3.25 -7.7 4.6 -6.1 3.15 -3.9 1.1 1.95 -3.85 2.4 -4.2 Q10.35 -9.7 19.0 -10.9 L32.25 -10.35 Q35.3 -9.75 37.3 -8.35 41.55 -5.35 41.2 1.5 41.5 26.1 11.5 31.65 L4.75 32.5 -1.25 32.8 -10.3 32.2 Q-27.25 30.05 -41.0 19.05 L-41.3 18.8 Q-30.85 20.3 -18.35 12.5 -13.2 9.3 -7.7 4.6" fill="none" stroke="#000000" stroke-linecap="round" stroke-linejoin="round" stroke-width="1.5"/>
  </g>
</svg>
