<?xml version="1.0" encoding="UTF-8" standalone="no"?>
<svg xmlns:xlink="http://www.w3.org/1999/xlink" height="112.15px" width="159.15px" xmlns="http://www.w3.org/2000/svg">
  <g transform="matrix(1.0, 0.0, 0.0, 1.0, 79.55, 56.05)">
    <path d="M58.35 -12.05 L52.55 -12.6 56.7 -16.6 51.9 -17.05 56.0 -20.35 55.6 -20.7 52.3 -22.85 55.95 -24.75 52.7 -27.45 56.95 -29.95 54.25 -32.75 Q68.8 -29.35 79.35 -17.1 L79.6 -16.8 Q70.6 -19.15 58.35 -12.05 M52.7 -38.1 L47.2 -36.2 49.25 -41.5 44.7 -39.95 46.95 -44.65 46.45 -44.8 42.5 -45.35 45.0 -48.6 40.85 -49.7 43.65 -53.75 39.95 -55.15 Q54.65 -58.15 69.5 -51.4 L69.85 -51.3 Q60.7 -49.65 52.7 -38.1 M59.2 7.5 Q69.75 15.5 79.45 14.1 L79.1 14.4 Q65.3 25.15 49.7 27.1 L53.15 24.6 49.5 21.85 53.5 19.55 50.3 17.35 54.2 15.6 54.7 15.3 51.45 11.7 56.35 11.7 53.2 7.45 59.2 7.5 M-12.9 39.8 L-9.5 33.95 -7.85 39.6 -5.05 34.85 -4.05 40.15 -3.55 39.9 0.15 37.2 0.05 41.7 4.15 39.2 4.25 44.5 8.3 42.7 Q0.0 53.4 -14.85 56.1 -12.65 52.9 -12.9 39.8 M-53.05 -37.35 Q-60.4 -48.85 -71.0 -51.55 L-70.55 -51.65 Q-51.55 -55.9 -34.5 -51.3 L-39.25 -50.45 -36.65 -46.4 -41.8 -45.95 -39.4 -42.65 -44.3 -42.6 -44.85 -42.55 -43.2 -37.95 -48.25 -40.05 -46.9 -34.75 -53.05 -37.35 M-57.0 -8.4 Q-68.6 -15.8 -79.45 -13.85 L-79.05 -14.1 Q-64.55 -25.1 -48.3 -28.3 L-46.25 -28.7 -50.2 -25.95 -46.05 -23.35 -50.55 -20.85 -46.95 -18.8 -51.35 -16.8 -51.85 -16.45 -48.35 -13.0 -53.8 -12.8 -50.35 -8.6 -57.0 -8.4 M-57.2 10.6 L-50.5 9.6 -53.9 14.4 -48.45 13.6 -52.0 17.7 -51.5 17.95 -47.05 19.2 -50.65 21.9 -46.15 23.55 -50.25 26.95 -46.3 28.95 Q-63.75 29.15 -79.15 20.3 L-79.55 20.1 Q-68.7 20.1 -57.2 10.6" fill="#fffce9" fill-rule="evenodd" stroke="none"/>
  </g>
</svg>
