<?xml version="1.0" encoding="UTF-8" standalone="no"?>
<svg xmlns:xlink="http://www.w3.org/1999/xlink" height="113.65px" width="160.65px" xmlns="http://www.w3.org/2000/svg">
  <g transform="matrix(1.0, 0.0, 0.0, 1.0, 80.3, 56.8)">
    <path d="M49.8 -33.5 L52.7 -38.1 Q60.7 -49.65 69.85 -51.3 L69.5 -51.4 Q54.65 -58.15 39.95 -55.15 L32.2 -52.9 27.3 -50.85 Q24.6 -49.75 21.95 -48.05 3.7 -36.6 4.75 -19.15 6.6 -19.1 8.3 -18.25 15.65 -31.45 34.85 -33.9 L40.95 -34.15 46.3 -34.0 49.8 -33.5 54.25 -32.75 Q68.8 -29.35 79.35 -17.1 L79.6 -16.8 Q70.6 -19.15 58.35 -12.05 53.1 -9.0 47.2 -4.25 L47.45 -4.0 49.2 -1.9 Q54.35 3.75 59.2 7.5 69.75 15.5 79.45 14.1 L79.1 14.4 Q65.3 25.15 49.7 27.1 L41.35 27.5 35.9 27.15 29.8 26.35 Q23.75 25.0 19.25 22.7 L19.05 23.2 Q17.9 26.5 16.25 29.5 15.2 32.15 13.45 35.0 L8.3 42.7 Q0.0 53.4 -14.85 56.1 -12.65 52.9 -12.9 39.8 -13.0 32.75 -14.6 24.25 L-15.15 21.55 Q-19.25 23.65 -24.3 25.3 L-31.05 27.05 -37.05 28.25 -46.3 28.95 Q-63.75 29.15 -79.15 20.3 L-79.55 20.1 Q-68.7 20.1 -57.2 10.6 -51.9 6.3 -46.45 0.05 -51.8 -5.05 -57.0 -8.4 -68.6 -15.8 -79.45 -13.85 L-79.05 -14.1 Q-64.55 -25.1 -48.3 -28.3 -50.45 -33.35 -53.05 -37.35 -60.4 -48.85 -71.0 -51.55 L-70.55 -51.65 Q-51.55 -55.9 -34.5 -51.3 L-25.8 -48.35 Q-22.65 -47.1 -20.3 -45.85 -17.25 -44.35 -14.45 -42.6 2.1 -31.75 1.55 -18.75 L4.75 -19.15 M19.25 22.7 Q28.4 -2.7 13.1 -15.05 L8.45 -18.2 8.3 -18.25 M13.1 -15.05 L15.85 -15.9 27.95 -16.3 Q35.7 -15.0 42.3 -9.4 L42.75 -8.95 42.7 -8.95 47.2 -4.25 M-15.15 21.55 L-15.2 21.25 -16.45 13.6 -16.45 13.7 -16.55 13.05 Q-17.15 3.3 -13.8 -4.95 -11.2 -11.05 -4.05 -16.0 L-2.35 -17.1 Q-4.95 -19.1 -9.2 -19.3 -16.35 -19.75 -22.7 -17.95 -31.3 -15.45 -38.55 -8.9 L-38.95 -8.4 -44.15 -2.75 -46.1 -0.35 -46.45 0.05 M-48.3 -28.3 L-46.25 -28.7 -37.0 -29.6 Q-33.7 -29.8 -31.0 -29.55 L-24.25 -29.0 Q-7.65 -26.5 -1.5 -17.55 0.05 -18.4 1.55 -18.75 M-1.5 -17.55 L-2.35 -17.1" fill="none" stroke="#000000" stroke-linecap="round" stroke-linejoin="round" stroke-width="1.5"/>
  </g>
</svg>
