<?xml version="1.0" encoding="UTF-8" standalone="no"?>
<svg xmlns:xlink="http://www.w3.org/1999/xlink" height="46.0px" width="79.0px" xmlns="http://www.w3.org/2000/svg">
  <g transform="matrix(1.0, 0.0, 0.0, 1.0, 39.5, 23.0)">
    <path d="M2.55 -14.3 L2.25 -13.85 Q2.8 -13.95 2.55 -14.3 6.1 -19.0 7.1 -19.3 8.5 -17.2 7.6 -12.95 9.4 -11.5 11.0 -8.5 14.45 -14.05 17.65 -13.6 L16.0 -4.2 Q18.9 -0.9 20.5 -3.65 25.0 -10.7 26.35 -11.7 28.7 -9.85 29.65 -2.95 36.9 -6.3 38.55 -2.7 L39.2 -0.9 Q39.8 1.7 39.15 5.65 37.45 11.35 35.25 15.65 30.95 25.85 18.35 21.85 5.75 17.9 0.55 14.35 -4.35 10.95 -8.25 6.75 -12.05 2.6 -14.4 0.55 -21.35 -5.6 -33.55 -3.15 L-39.3 -3.0 Q-39.95 -3.35 -38.4 -4.6 L-33.4 -7.7 Q-30.3 -15.55 -27.65 -16.7 -26.4 -13.8 -25.95 -11.3 L-23.0 -12.3 -20.6 -13.15 Q-16.9 -21.05 -15.35 -20.6 -13.95 -20.25 -13.55 -14.9 L-11.5 -15.35 Q-9.8 -15.9 -8.2 -16.55 -4.9 -22.5 -3.6 -23.0 -1.6 -21.85 -1.75 -16.35 -0.75 -16.4 1.35 -15.2 L2.55 -14.3" fill="#155b1a" fill-rule="evenodd" stroke="none"/>
    <path d="M2.55 -14.3 Q2.8 -13.95 2.25 -13.85 L2.55 -14.3" fill="#27a831" fill-rule="evenodd" stroke="none"/>
  </g>
</svg>
