<?xml version="1.0" encoding="UTF-8" standalone="no"?>
<svg xmlns:xlink="http://www.w3.org/1999/xlink" height="67.1px" width="105.05px" xmlns="http://www.w3.org/2000/svg">
  <g transform="matrix(1.0, 0.0, 0.0, 1.0, 52.55, 33.55)">
    <path d="M1.35 -23.5 Q-7.4 -26.85 -6.05 -32.55 -7.95 -26.8 -5.8 -23.7 -5.0 -22.45 -4.1 -22.05 -2.4 -21.35 -2.3 -19.7 -2.1 -18.9 -2.75 -18.0 -3.7 -16.6 -3.05 -14.6 -2.5 -13.1 -0.5 -12.65 L-0.15 -12.65 Q1.25 -12.55 2.05 -11.0 2.45 -9.8 2.0 -8.75 1.45 -7.3 2.25 -6.1 2.65 -5.45 3.7 -5.1 4.85 -4.5 5.25 -3.35 5.35 -2.4 4.4 -1.6 L4.15 -1.3 Q3.6 -0.35 4.65 1.35 5.55 3.25 3.9 4.25 1.05 7.55 0.9 12.45 -2.45 9.95 -6.7 12.15 L-6.85 12.25 Q-9.55 14.1 -12.6 11.6 -16.15 7.6 -19.15 7.2 -21.95 7.2 -24.55 9.05 -28.25 10.8 -31.4 7.85 -35.0 3.15 -41.05 4.1 -45.0 4.6 -48.45 2.0 -50.0 0.65 -51.55 1.05 -49.25 1.75 -46.5 5.95 -44.35 8.75 -39.2 9.7 -35.45 10.3 -30.25 19.7 L-28.9 21.75 Q-20.4 34.6 -7.3 32.15 -2.4 31.3 2.4 29.45 5.3 27.7 12.0 27.85 L12.45 27.85 Q17.3 28.05 23.2 25.4 L23.45 25.35 Q30.35 21.6 34.15 16.8 37.9 13.25 41.15 12.85 L46.1 11.65 Q54.85 6.65 49.4 -1.05 45.8 -6.95 40.45 -3.15 32.85 2.15 26.55 9.8 22.1 15.45 16.95 19.45 15.15 20.7 13.35 21.35 12.6 19.95 12.85 18.5 14.05 13.0 17.0 7.0 L17.75 4.5 Q19.6 -2.9 15.15 -10.8 12.0 -18.45 1.35 -23.5 Z" fill="none" stroke="#000000" stroke-linecap="round" stroke-linejoin="round" stroke-width="2.0"/>
  </g>
</svg>
