<?xml version="1.0" encoding="UTF-8" standalone="no"?>
<svg xmlns:xlink="http://www.w3.org/1999/xlink" height="66.2px" width="55.3px" xmlns="http://www.w3.org/2000/svg">
  <g transform="matrix(1.0, 0.0, 0.0, 1.0, 27.65, 33.1)">
    <path d="M16.45 22.25 L18.45 18.4 Q25.25 1.0 26.8 -18.7 27.6 -29.6 22.7 -32.35 16.85 -32.15 11.7 -22.5 5.95 -6.85 -0.35 -4.8 2.1 -5.05 4.85 -3.9 1.7 -0.5 2.5 2.85 L7.0 1.4 Q6.25 4.95 7.35 8.4 10.5 6.6 12.4 4.3 14.05 10.85 12.85 13.55 L16.1 9.75 Q18.05 16.65 16.45 22.25 12.8 28.35 8.05 30.65 6.2 31.15 7.75 25.0 -1.35 36.1 -10.0 30.45 -10.8 29.05 -6.8 27.6 -11.35 28.6 -16.1 25.95 -18.9 24.35 -20.1 21.5 -26.45 17.25 -26.9 9.35 -26.15 8.1 -22.5 11.15 -26.85 1.3 -25.55 -7.0 -25.85 -10.35 -21.95 -5.6 -25.55 -13.9 -22.55 -22.5 -19.35 -32.15 -15.2 -18.9 -11.05 -5.7 -3.15 -4.6 L-0.35 -4.8 M-21.95 -5.6 L-21.05 -3.75 M-22.5 11.15 L-22.1 11.95 M-15.25 18.7 Q-20.3 15.9 -21.0 16.85 -21.0 19.5 -20.1 21.5" fill="none" stroke="#000000" stroke-linecap="round" stroke-linejoin="round" stroke-width="1.5"/>
  </g>
</svg>
