<?xml version="1.0" encoding="UTF-8" standalone="no"?>
<svg xmlns:xlink="http://www.w3.org/1999/xlink" height="39.3px" width="68.25px" xmlns="http://www.w3.org/2000/svg">
  <g transform="matrix(1.0, 0.0, 0.0, 1.0, 34.15, 19.65)">
    <path d="M-29.05 -4.65 L-28.85 -5.3 Q-34.8 -4.0 -33.0 -8.25 -31.0 -11.55 -25.5 -12.25 -20.65 -12.7 -17.45 -10.4 -17.75 -4.9 -22.6 -1.3 -26.0 1.1 -28.4 -0.75 -29.75 -2.3 -29.05 -4.65 -33.95 -1.25 -33.15 4.95 -31.9 16.3 -19.4 18.65 -6.25 20.2 4.6 11.15 14.05 1.2 14.9 -7.8 15.45 -15.15 21.65 -17.7 27.85 -20.3 33.35 -17.3" fill="none" stroke="#000000" stroke-linecap="round" stroke-linejoin="round" stroke-width="1.5"/>
  </g>
</svg>
