<?xml version="1.0" encoding="UTF-8" standalone="no"?>
<svg xmlns:xlink="http://www.w3.org/1999/xlink" height="69.55px" width="60.9px" xmlns="http://www.w3.org/2000/svg">
  <g transform="matrix(1.0, 0.0, 0.0, 1.0, 30.45, 34.75)">
    <path d="M20.3 -28.4 Q10.5 -2.3 0.65 7.7 -7.5 15.95 -17.85 20.0 L-18.4 20.2 -22.35 21.5 Q-29.95 24.25 -29.7 29.05 -29.5 33.8 -21.05 34.05 -16.8 33.85 -12.45 32.1 L-10.7 31.35 Q-3.35 27.85 4.3 19.9 2.95 22.7 3.7 25.3 7.15 22.0 9.75 16.1 21.2 -3.2 29.5 -28.85 30.45 -32.65 26.7 -33.95 23.5 -34.6 20.3 -28.4 Z" fill="none" stroke="#000000" stroke-linecap="round" stroke-linejoin="round" stroke-width="1.5"/>
  </g>
</svg>
