<?xml version="1.0" encoding="UTF-8" standalone="no"?>
<svg xmlns:xlink="http://www.w3.org/1999/xlink" height="83.6px" width="78.0px" xmlns="http://www.w3.org/2000/svg">
  <g transform="matrix(1.0, 0.0, 0.0, 1.0, 39.0, 41.8)">
    <path d="M-26.85 -25.75 L-25.25 -29.85 Q-22.5 -36.05 -18.65 -39.4 -22.8 -28.1 -21.15 -17.4 -20.2 -11.55 -17.5 -5.8 L-14.35 -8.35 Q-8.7 -12.55 -6.9 -11.1 -5.05 -9.75 -8.1 -3.6 -9.45 -0.85 -11.4 2.1 -2.8 10.5 6.55 11.8 L6.55 11.4 Q6.65 8.5 8.15 8.2 9.45 7.7 11.85 9.85 L13.6 11.8 Q33.15 9.55 36.15 -4.15 40.35 7.3 34.9 18.95 33.65 21.7 31.85 24.2 28.45 28.95 23.15 32.75 24.4 39.8 21.5 40.1 19.3 40.1 16.55 36.75 12.75 38.6 8.35 40.2 11.95 37.3 14.5 34.0 L13.85 32.9 Q-4.9 48.9 -24.95 32.5 L-14.9 33.0 -15.9 32.5 Q-25.65 29.0 -35.4 28.25 -31.65 24.3 -26.15 23.8 L-28.75 20.9 Q-28.9 20.95 -29.05 21.1 -34.7 25.2 -36.5 23.95 -38.35 22.45 -35.3 16.35 L-33.65 13.4 Q-37.25 6.55 -37.85 -1.2 -39.35 -18.85 -25.45 -40.8 -27.6 -33.0 -26.85 -25.75 -25.75 -14.9 -18.05 -5.3 L-17.5 -5.8 -16.05 -3.0 Q-13.8 -0.2 -11.4 2.1 L-14.1 5.85 Q-2.4 6.45 -19.7 12.6 L-20.95 13.9 Q-15.95 18.05 -10.2 21.45 -3.65 25.35 3.9 28.3 M-16.05 -3.0 L-16.65 -3.7 -18.05 -5.3 M-19.7 12.6 L-19.4 12.2 Q-16.5 -2.05 -14.1 5.85 L-17.25 9.8 -19.4 12.2 M-20.95 13.9 L-23.8 16.75 -20.25 22.6 Q-14.95 30.15 -8.4 33.3 -2.05 36.4 5.55 35.3 M-33.65 13.4 Q-31.65 17.25 -28.75 20.9 L-23.8 16.75 Q-26.15 12.4 -28.15 7.1 -24.75 10.7 -20.95 13.9 M-14.9 33.0 L-8.4 33.3 M-26.15 23.8 Q-21.8 28.4 -15.9 32.5 M10.5 26.7 Q8.95 23.2 7.95 19.65 L7.4 17.85 Q4.3 25.5 7.55 29.5 11.05 33.65 10.55 27.25 L10.5 26.7 12.15 30.0 Q13.9 31.95 14.6 27.5 15.35 23.1 7.4 17.85 6.35 14.2 6.55 11.8 9.8 12.2 13.1 11.85 L13.6 11.8 M10.55 27.25 Q11.45 29.2 12.15 30.0 L13.5 32.35 13.85 32.9 17.35 29.55 14.5 34.0 16.55 36.75 Q20.15 34.9 23.15 32.75" fill="none" stroke="#000000" stroke-linecap="round" stroke-linejoin="round" stroke-width="2.0"/>
  </g>
</svg>
