<?xml version="1.0" encoding="UTF-8" standalone="no"?>
<svg xmlns:xlink="http://www.w3.org/1999/xlink" height="77.6px" width="66.2px" xmlns="http://www.w3.org/2000/svg">
  <g transform="matrix(1.0, 0.0, 0.0, 1.0, 33.1, 38.8)">
    <path d="M9.5 -6.2 Q17.05 -0.45 19.25 -9.65 18.6 -13.7 22.25 -14.65 25.75 -9.75 31.7 -13.05 32.75 -17.0 31.15 -23.05 26.75 -36.75 15.6 -37.75 10.0 -38.1 5.65 -36.25 L5.15 -36.0 Q0.75 -33.9 -2.35 -29.5 -7.9 -19.75 1.75 -11.35 L4.05 -9.55 M-9.7 16.15 Q0.55 25.35 4.3 11.85 L2.85 6.3 M-19.5 9.35 L-22.55 4.6 Q-25.2 8.15 -26.05 11.2 -28.45 19.5 -19.35 24.4 -26.9 31.1 -32.1 22.8 -31.5 32.75 -21.0 34.75 -9.95 36.65 -5.25 26.35 -7.75 37.5 -20.1 36.6 -8.6 39.95 -1.15 33.85 3.65 29.35 4.65 22.65 5.45 17.85 4.3 11.85 M4.65 22.65 Q18.45 22.25 21.85 7.6 24.25 -2.7 19.25 -9.65 M-2.35 -29.5 Q-7.25 -30.85 -11.3 -30.3 -20.5 -29.15 -25.05 -19.0 -27.15 -11.55 -25.85 -4.5 -25.0 0.15 -22.55 4.6 M-25.85 -4.5 Q-31.4 -2.85 -30.75 3.95 -30.4 7.85 -26.05 11.2 M-4.75 1.75 Q-12.45 -5.15 -7.45 -10.35 -3.35 -14.6 1.75 -11.35 M5.15 -36.0 Q-3.8 -41.0 -11.3 -30.3" fill="none" stroke="#e49095" stroke-linecap="round" stroke-linejoin="round" stroke-width="2.0"/>
  </g>
</svg>
