<?xml version="1.0" encoding="UTF-8" standalone="no"?>
<svg xmlns:xlink="http://www.w3.org/1999/xlink" height="95.3px" width="87.0px" xmlns="http://www.w3.org/2000/svg">
  <g transform="matrix(1.0, 0.0, 0.0, 1.0, 0.75, 0.75)">
    <path d="M27.6 26.0 L31.25 27.3 29.4 27.6 27.6 26.0" fill="#debe6d" fill-rule="evenodd" stroke="none"/>
    <path d="M83.25 46.25 L82.65 45.9 81.5 45.5 Q62.0 38.6 46.75 48.1 36.45 54.45 26.65 53.45 33.05 56.9 38.9 55.7 L37.1 57.5 34.85 59.5 Q29.7 63.85 24.95 66.9 12.5 74.7 1.95 73.25 L2.3 73.55 Q16.1 84.5 33.05 86.55 L40.35 87.05 Q34.75 87.8 30.65 93.8 44.5 91.35 52.6 88.25 60.65 85.05 72.2 74.95 80.3 67.85 82.45 56.5 83.15 52.75 83.25 48.65 L83.25 46.25 Q83.2 33.25 75.5 24.3 65.45 12.75 57.85 8.55 50.3 4.35 36.85 0.0 40.15 6.6 45.6 8.1 L38.25 7.55 Q21.2 7.35 6.05 16.3 L5.7 16.55 Q16.3 16.55 27.6 26.0 L29.4 27.6 31.25 27.3 31.6 27.25 41.15 26.4 Q49.85 26.3 64.4 31.25 75.05 35.0 81.5 45.5 M83.25 48.65 L85.5 53.7 85.05 54.2 82.45 56.5 M29.4 27.6 L18.75 29.55 Q24.85 33.6 30.3 32.15 26.95 33.5 23.75 35.4 8.8 43.7 0.25 59.05 L0.0 59.4 Q9.2 54.1 23.7 56.65 28.9 57.55 34.85 59.5" fill="none" stroke="#000000" stroke-linecap="round" stroke-linejoin="round" stroke-width="1.5"/>
  </g>
</svg>
