<?xml version="1.0" encoding="UTF-8" standalone="no"?>
<svg xmlns:xlink="http://www.w3.org/1999/xlink" height="18.0px" width="47.75px" xmlns="http://www.w3.org/2000/svg">
  <g transform="matrix(1.0, 0.0, 0.0, 1.0, 0.75, 0.75)">
    <path d="M17.45 3.2 L16.3 2.55 14.2 1.3 Q9.1 -1.6 2.8 1.95 -2.15 4.75 1.6 9.0 L2.75 10.25 3.5 10.95 4.0 11.25 Q5.4 12.35 7.05 13.25 L7.2 13.35 Q10.25 15.0 14.2 15.75 L19.65 16.4 23.1 16.5 24.3 16.5 Q29.85 16.3 36.35 15.0 44.3 13.3 45.55 10.85 48.7 5.3 37.4 6.15 L32.65 6.5 30.4 6.45 25.6 5.95 25.4 5.9 Q22.5 5.35 19.8 4.3 L17.45 3.2 Z" fill="none" stroke="#000000" stroke-linecap="round" stroke-linejoin="round" stroke-width="1.5"/>
  </g>
</svg>
