<?xml version="1.0" encoding="UTF-8" standalone="no"?>
<svg xmlns:xlink="http://www.w3.org/1999/xlink" height="62.2px" width="130.0px" xmlns="http://www.w3.org/2000/svg">
  <g transform="matrix(1.0, 0.0, 0.0, 1.0, 125.4, 18.65)">
    <path d="M-82.9 33.95 Q-83.25 33.6 -83.75 33.6 -84.2 33.6 -84.55 33.95 -84.9 34.3 -84.9 34.8 L-84.55 35.65 -83.75 36.0 Q-83.25 36.0 -82.9 35.65 -82.55 35.3 -82.55 34.8 -82.55 34.3 -82.9 33.95 M-85.05 31.25 Q-85.55 30.6 -86.3 30.6 -87.0 30.6 -87.5 31.25 -88.0 31.95 -88.0 32.95 -88.0 33.95 -87.5 34.6 -87.0 35.3 -86.3 35.3 -85.55 35.3 -85.05 34.6 -84.55 33.95 -84.55 32.95 -84.55 31.95 -85.05 31.25 M-101.65 35.7 L-102.55 36.1 -102.9 37.0 Q-102.9 37.6 -102.55 37.95 -102.15 38.35 -101.65 38.35 -101.1 38.35 -100.75 37.95 -100.35 37.6 -100.35 37.0 -100.35 36.5 -100.75 36.1 -101.1 35.7 -101.65 35.7 M-22.75 23.55 Q-21.7 22.4 -21.8 21.0 -22.0 19.6 -23.35 18.65 -24.75 17.75 -26.65 17.75 -28.6 17.75 -30.0 18.65 -31.35 19.6 -31.35 20.9 -31.35 22.15 -30.0 23.05 -28.6 24.0 -26.2 24.35 -23.85 24.65 -22.75 23.55 M-12.5 31.15 L-13.7 30.5 -21.4 31.7 Q-25.75 32.05 -31.0 31.9 -32.8 35.1 -36.05 37.75 -38.5 37.9 -38.75 36.35 -45.3 37.0 -48.85 34.3 L-43.7 33.15 -49.05 33.1 Q-69.25 40.2 -86.8 42.8 -91.35 36.3 -95.75 38.85 -100.2 41.45 -102.25 41.15 -103.8 41.25 -104.7 40.35 -109.5 33.4 -111.45 43.55 -118.9 42.8 -125.4 40.85 -122.6 41.55 -120.4 40.05 -123.25 39.0 -124.75 37.3 L-118.6 33.0 Q-114.1 29.9 -110.1 27.75 -101.55 23.1 -95.4 22.45 -96.8 21.85 -96.7 20.45 -89.55 19.6 -84.8 16.35 -86.95 15.2 -86.15 13.3 -90.45 9.05 -93.4 2.95 -93.6 2.5 -93.35 2.25 -77.25 13.9 -69.15 13.55 -65.65 13.35 -63.65 10.9 -61.85 8.7 -61.25 4.55 L-47.55 17.35 -45.5 16.95 -45.45 16.95 -43.6 16.35 Q-42.35 17.45 -40.05 17.9 -36.1 18.7 -31.45 17.1 -28.25 16.05 -26.05 14.2 -14.8 15.55 0.9 6.05 1.8 17.4 4.6 28.8 L4.6 30.75 Q4.15 36.2 -0.25 39.9 0.1 37.9 -1.0 35.0 0.6 33.3 1.2 30.95 -4.0 31.6 -12.5 31.15 M-100.2 -16.75 L-101.0 -15.85 Q-101.9 -14.35 -101.4 -11.7 L-100.8 -9.5 Q-104.15 -12.75 -108.25 -15.9 L-101.5 -16.15 -102.9 -17.65 Q-98.65 -18.8 -94.7 -18.65 L-90.75 -18.25 Q-90.6 -16.4 -90.0 -14.95 -88.3 -10.55 -83.45 -9.6 L-83.4 -9.55 Q-80.55 -7.05 -78.55 -9.9 L-71.4 -4.15 Q-75.65 1.45 -87.25 -8.05 L-88.9 -10.7 Q-91.7 -14.55 -95.05 -16.3 -98.3 -18.05 -100.2 -16.75" fill="#ffffff" fill-rule="evenodd" stroke="none"/>
  </g>
</svg>
