<?xml version="1.0" encoding="UTF-8" standalone="no"?>
<svg xmlns:xlink="http://www.w3.org/1999/xlink" height="104.4px" width="113.15px" xmlns="http://www.w3.org/2000/svg">
  <g transform="matrix(1.0, 0.0, 0.0, 1.0, 0.0, 0.0)">
    <path d="M57.15 9.0 Q70.15 17.85 70.3 32.5 67.9 50.3 50.8 40.45 26.75 36.75 26.25 61.95 28.45 82.4 49.05 89.8 80.15 96.8 107.3 33.95 114.8 36.8 112.7 43.6 89.15 105.5 49.6 104.4 33.4 103.3 21.55 93.85 11.95 85.5 6.8 77.15 -7.4 56.15 8.05 22.2 16.85 4.1 35.25 0.0 36.75 4.85 32.0 8.85 44.85 1.85 57.15 9.0" fill="#aef6e5" fill-rule="evenodd" stroke="none"/>
  </g>
</svg>
