<?xml version="1.0" encoding="UTF-8" standalone="no"?>
<svg xmlns:xlink="http://www.w3.org/1999/xlink" height="85.9px" width="71.7px" xmlns="http://www.w3.org/2000/svg">
  <g transform="matrix(1.0, 0.0, 0.0, 1.0, 35.85, 42.95)">
    <path d="M19.2 -42.2 Q32.45 -36.95 34.95 -20.5 37.95 -0.3 30.7 17.15 29.15 14.9 29.3 9.1 26.75 34.95 11.85 41.5 15.65 37.8 17.1 31.35 12.3 40.1 1.95 40.95 5.35 38.7 7.25 32.95 -1.6 45.0 -16.35 42.55 -11.8 41.3 -9.25 38.15 -26.3 43.45 -35.85 33.2 -8.15 41.4 4.0 6.1 8.1 -5.85 9.45 -18.1 11.2 -31.55 6.3 -37.65 2.9 -41.9 -7.6 -37.35 2.9 -45.0 19.2 -42.2" fill="#6b6b6b" fill-opacity="0.31764707" fill-rule="evenodd" stroke="none"/>
  </g>
</svg>
