<?xml version="1.0" encoding="UTF-8" standalone="no"?>
<svg xmlns:xlink="http://www.w3.org/1999/xlink" height="87.5px" width="74.3px" xmlns="http://www.w3.org/2000/svg">
  <g transform="matrix(1.0, 0.0, 0.0, 1.0, 37.15, 43.75)">
    <path d="M18.0 30.55 L17.65 31.15 17.6 31.35 Q16.15 37.8 12.35 41.5 27.25 34.95 29.8 9.1 29.65 14.9 31.2 17.15 38.45 -0.3 35.45 -20.5 32.95 -36.95 19.7 -42.2 3.4 -45.0 -7.1 -37.35 -17.05 -30.1 -21.8 -13.45 -19.05 -18.45 -12.55 -21.6 -24.7 -7.7 -19.15 16.45 -18.05 10.7 -14.5 4.55 L-17.8 18.05 Q-19.4 24.25 -21.7 27.9 -28.6 36.7 -36.35 32.05 L-35.35 33.2 Q-25.8 43.45 -8.75 38.15 -11.3 41.3 -15.85 42.55 -1.1 45.0 7.75 32.95 5.85 38.7 2.45 40.95 12.8 40.1 17.6 31.35" fill="none" stroke="#000000" stroke-linecap="round" stroke-linejoin="round" stroke-width="1.6"/>
  </g>
</svg>
