<?xml version="1.0" encoding="UTF-8" standalone="no"?>
<svg xmlns:xlink="http://www.w3.org/1999/xlink" height="151.1px" width="240.45px" xmlns="http://www.w3.org/2000/svg">
  <g transform="matrix(1.0, 0.0, 0.0, 1.0, 120.2, 75.55)">
    <path d="M13.1 -33.9 Q5.75 -31.7 -0.9 -32.2 M75.9 -73.4 Q58.95 -74.6 45.6 -67.65 L46.05 -67.7 77.9 -65.15 106.3 -55.75 M61.95 -35.5 L51.95 -38.05 Q45.1 -39.6 38.9 -40.3 L24.15 -40.8 Q30.1 -38.15 35.7 -34.25 40.0 -31.2 44.15 -27.3 L50.6 -20.6 51.7 -19.35 61.95 -35.5 Q76.65 -36.2 91.15 -28.1 M40.1 -42.5 L43.1 -48.15 41.65 -48.85 Q24.15 -56.5 8.35 -56.2 10.0 -45.5 15.1 -35.8 M24.15 -40.8 Q22.75 -35.95 22.15 -30.9 21.55 -25.85 21.75 -20.6 M48.35 -16.85 L51.7 -19.35 72.65 -14.0 Q65.65 -11.65 58.65 -8.35 L57.25 -7.7 M-11.7 2.2 L-11.6 2.05 Q-7.5 -1.8 -0.55 -4.75 1.3 -12.7 5.35 -18.25 L5.6 -18.65 M18.45 -19.25 Q11.5 -20.35 6.1 -23.4 M17.8 -5.3 Q20.8 -4.75 23.9 -3.7 L25.75 -3.1 28.2 -4.6 Q30.15 -5.9 32.1 -6.8 35.3 -8.4 38.3 -9.25 L39.15 -9.5 43.1 -10.1 27.65 -22.0 M61.95 -35.5 L62.35 -35.4 89.5 -20.0 110.75 0.05 M43.1 -48.15 L54.35 -41.0 Q59.45 -47.1 64.9 -52.3 L43.1 -48.15 45.6 -67.65 Q23.15 -64.05 8.35 -56.2 M54.3 -40.9 L54.35 -41.0 M51.7 -19.35 L58.65 -8.35 M43.1 -10.1 L46.7 -17.9 M76.65 15.45 L54.1 11.05 56.55 31.2 57.0 31.25 90.0 28.85 119.5 19.4 M64.6 2.2 L65.8 3.65 Q71.0 10.0 76.65 15.45 M54.1 11.05 L52.55 11.7 Q34.4 19.45 18.0 19.0 33.3 27.35 56.55 31.2 70.3 38.55 87.9 37.4 M43.1 -10.1 L54.1 11.05 65.8 3.65 M-12.3 7.55 L-3.7 22.85 -2.45 22.0 Q5.7 16.55 11.65 10.25 16.2 5.4 19.4 0.15 14.2 -2.15 8.7 -3.35 L-0.55 -4.75 M19.7 11.65 Q21.1 6.55 23.35 1.65 L25.75 -3.1 M18.0 19.0 L18.1 18.45 M-3.7 22.85 L9.9 34.25 Q13.85 25.3 16.2 17.15 18.8 8.15 19.4 0.15 M-0.5 60.2 Q8.75 47.85 9.9 34.25 L9.75 34.6 -7.75 57.7 -28.85 74.8 M-74.3 -45.85 L-51.45 -45.4 -57.35 -64.75 -57.8 -64.75 -89.75 -56.7 -117.05 -42.3 M-51.45 -45.4 L-50.1 -46.35 Q-33.6 -57.1 -17.45 -59.55 -33.95 -65.0 -57.35 -64.75 -72.1 -69.6 -89.2 -65.45 M-47.9 -40.75 L-51.45 -45.4 -58.3 -39.15 M-24.0 -33.95 L-21.2 -36.5 Q-17.35 -47.85 -17.45 -59.55 M-60.5 -17.55 L-59.5 -18.75 Q-55.65 -23.15 -51.6 -26.75 -47.2 -30.75 -42.55 -33.8 -37.95 -36.85 -33.1 -39.0 L-46.25 -38.6 Q-53.5 -37.9 -61.55 -36.05 L-62.6 -35.8 -70.8 -33.65 -60.5 -17.55 -49.05 -8.95 -42.7 -4.15 -29.2 -15.15 M-31.65 -15.45 L-31.15 -16.25 -30.65 -17.05 Q-30.5 -20.2 -30.6 -23.25 L-31.05 -29.0 Q-31.65 -34.1 -33.1 -39.0 M-70.8 -33.65 L-71.15 -33.55 -98.25 -18.1 -119.45 1.95 M-64.95 -38.9 Q-69.6 -42.65 -74.3 -45.85 M-65.85 -5.8 L-67.45 -6.5 Q-74.45 -9.8 -81.45 -12.1 L-60.5 -17.55 -67.45 -6.5 M-61.7 7.45 L-62.75 8.8 -52.1 15.1 -42.8 -4.1 -42.7 -4.15 M-52.1 15.1 L-50.7 15.65 Q-34.25 22.15 -19.55 21.35 -21.55 11.05 -27.0 1.7 L-27.3 1.5 Q-31.5 -1.1 -35.3 -2.55 L-39.15 -3.7 -42.5 -4.1 -42.6 -4.1 -42.8 -4.1 M-30.65 -17.05 Q-25.95 -17.5 -21.9 -18.75 -18.2 -19.9 -15.0 -21.65 M-27.0 1.7 Q-24.0 0.5 -21.1 -0.2 L-14.4 -1.15 -11.75 -1.2 M-14.95 -8.45 L-15.3 -12.4 M-21.2 -36.5 Q-11.8 -34.8 -3.95 -36.7 M-99.95 -26.2 Q-85.45 -34.35 -70.8 -33.65 M-15.2 26.3 L-14.75 27.85 -3.7 22.85 -11.25 41.5 Q-12.55 34.75 -14.75 27.85 M-110.5 24.25 L-83.85 32.0 -54.2 33.3 -53.85 33.25 -53.8 33.2 -52.1 15.1 -72.2 19.6 Q-67.3 14.65 -62.75 8.8 M-53.8 33.2 Q-33.05 29.25 -19.55 21.35 M-81.75 39.65 Q-65.95 40.2 -53.85 33.25" fill="none" stroke="#000000" stroke-linecap="round" stroke-linejoin="round" stroke-opacity="0.64705884" stroke-width="1.2000000000000002"/>
    <path d="M5.55 -21.0 Q0.15 -25.05 -0.9 -32.2 -1.05 -47.55 8.35 -56.2 L9.05 -56.9 Q17.7 -64.5 29.25 -67.25 52.95 -77.6 74.35 -73.8 L75.9 -73.4 Q85.8 -70.2 93.1 -66.1 L96.45 -64.05 97.3 -63.5 97.35 -63.45 97.75 -63.15 97.9 -63.05 106.3 -55.75 Q80.1 -61.25 64.9 -52.3 73.6 -52.8 83.3 -47.15 68.4 -47.7 55.4 -40.85 75.05 -39.6 89.9 -29.1 L91.15 -28.1 Q98.55 -21.2 103.3 -14.55 L105.45 -11.35 105.65 -11.0 106.25 -10.05 110.75 0.05 Q89.8 -15.65 72.65 -14.0 80.55 -10.85 86.8 -1.85 72.9 -8.95 57.35 -7.6 60.9 -2.45 64.6 2.2 79.0 10.8 95.75 10.3 85.65 16.1 76.65 15.45 92.35 24.9 119.5 19.4 L110.6 27.0 110.1 27.35 109.25 27.9 105.7 30.0 Q98.2 34.15 87.9 37.4 L86.25 37.8 Q64.05 41.6 38.95 31.05 27.65 27.8 18.75 19.8 L18.0 19.0 17.95 19.0 16.65 22.5 Q14.0 44.7 0.6 59.15 L-0.5 60.2 Q-7.75 66.2 -14.45 69.75 L-17.65 71.35 -18.95 71.9 -28.85 74.8 Q-11.8 57.5 -11.25 41.5 -15.1 48.4 -24.15 53.0 -15.8 40.95 -15.2 26.3 -16.35 22.85 -17.75 19.35 L-19.55 21.35 -20.2 22.05 Q-28.0 29.45 -39.65 33.15 -60.3 42.75 -80.25 39.9 L-81.75 39.65 Q-91.0 36.95 -97.9 33.45 L-101.1 31.6 -102.15 31.0 -102.35 30.85 -110.5 24.25 Q-86.0 28.5 -72.2 19.6 -80.25 20.4 -89.45 15.5 -74.45 15.5 -61.7 7.45 -58.85 3.6 -56.1 -0.6 -61.0 -3.45 -65.85 -5.8 -81.55 -7.2 -95.55 0.05 -89.35 -8.95 -81.45 -12.1 -98.6 -13.75 -119.45 1.95 L-114.95 -8.1 -114.75 -8.5 -114.65 -8.65 -114.65 -8.7 -114.2 -9.45 -112.05 -12.7 Q-107.35 -19.3 -99.95 -26.2 L-98.7 -27.2 Q-86.9 -35.55 -72.0 -38.05 -81.95 -39.6 -92.15 -37.5 -83.25 -44.9 -74.3 -45.85 -91.35 -52.4 -117.05 -42.3 L-109.65 -51.3 -108.45 -52.4 -105.4 -55.05 Q-98.7 -60.5 -89.2 -65.45 L-87.6 -66.1 Q-66.55 -73.7 -42.1 -68.2 -28.45 -66.45 -18.35 -60.1 L-17.45 -59.55 Q-6.5 -52.35 -3.95 -36.7 -3.75 -25.55 -14.55 -19.8 -13.85 -16.4 -14.55 -13.2 -5.1 -23.25 5.35 -18.75 L5.55 -21.0 6.1 -23.4 Q9.0 -29.7 13.1 -33.9 L15.1 -35.8 Q19.1 -39.2 24.15 -40.8 L25.15 -41.15 Q32.25 -43.2 40.1 -42.5 44.2 -42.2 48.45 -41.0 L54.3 -40.9 55.4 -40.85 M21.75 -20.6 Q24.45 -21.5 27.65 -22.0 36.4 -23.85 46.05 -18.3 L46.7 -17.9 48.35 -16.85 Q51.25 -14.85 54.3 -12.15 L57.25 -7.7 57.35 -7.6 M5.6 -18.65 L5.35 -18.75 M21.75 -20.6 Q19.95 -20.05 18.45 -19.25 14.25 -17.15 11.85 -13.8 15.75 -9.95 17.8 -5.3 18.9 -2.7 19.4 0.15 L19.65 1.05 Q20.4 6.25 19.7 11.65 18.7 15.0 18.1 18.45 L17.95 19.0 M5.6 -18.65 Q9.15 -16.45 11.85 -13.8 M-58.3 -39.15 L-57.35 -39.15 Q-52.5 -40.45 -47.9 -40.75 -40.65 -41.3 -34.0 -39.35 L-33.1 -39.0 Q-28.05 -37.4 -24.0 -33.95 -18.55 -29.45 -15.0 -21.65 L-14.55 -19.8 M-49.05 -8.95 L-45.6 -11.4 Q-38.45 -15.85 -31.65 -15.45 L-29.2 -15.15 Q-21.4 -14.2 -16.95 -10.5 L-14.95 -8.45 Q-12.55 -5.45 -11.75 -1.2 L-11.7 2.2 Q-11.85 4.95 -12.3 7.55 -13.65 14.35 -17.75 19.35 M-58.3 -39.15 L-64.95 -38.9 -72.0 -38.05 M-56.1 -0.6 L-52.9 -5.7 -49.05 -8.95 M-15.3 -12.4 L-16.95 -10.5 M-15.3 -12.4 L-14.55 -13.2" fill="none" stroke="#000000" stroke-linecap="round" stroke-linejoin="round" stroke-width="1.5"/>
  </g>
</svg>
