<?xml version="1.0" encoding="UTF-8" standalone="no"?>
<svg xmlns:xlink="http://www.w3.org/1999/xlink" height="78.75px" width="105.25px" xmlns="http://www.w3.org/2000/svg">
  <g transform="matrix(1.0, 0.0, 0.0, 1.0, 52.65, 39.35)">
    <path d="M5.25 9.8 L7.4 7.7 9.0 6.1 Q14.15 0.65 18.05 -4.6 L20.65 -8.3 Q24.5 -14.2 26.75 -20.0 L28.0 -23.5 Q29.5 -28.45 29.8 -33.35 L29.8 -37.5 Q43.7 -41.5 48.0 -36.8 L49.05 -35.5 Q54.0 -28.55 52.05 -19.35 51.3 -15.7 50.1 -12.15 46.75 -2.25 39.7 6.6 34.45 13.25 27.15 19.25 L24.35 21.6 Q17.45 26.9 7.95 31.0 -0.8 34.7 -11.8 37.4 L-14.9 38.15 Q-23.35 39.9 -32.6 39.2 -42.2 38.5 -52.65 35.1 -48.45 35.5 -43.8 34.9 L-37.7 33.8 -32.4 32.3 -27.25 30.4 -22.45 28.4 -21.7 28.0 -15.05 24.7 -10.35 22.05 -4.3 18.4 -3.9 18.05 -2.95 17.25 5.25 9.8" fill="#beb4ad" fill-rule="evenodd" stroke="none"/>
  </g>
</svg>
