<?xml version="1.0" encoding="UTF-8" standalone="no"?>
<svg xmlns:xlink="http://www.w3.org/1999/xlink" height="54.05px" width="178.55px" xmlns="http://www.w3.org/2000/svg">
  <g transform="matrix(1.0, 0.0, 0.0, 1.0, 89.25, 27.0)">
    <path d="M81.75 9.45 Q80.45 10.85 79.3 10.05 L73.55 4.5 Q70.95 1.8 71.45 0.1 69.7 -1.2 69.3 -2.3 L69.6 -2.75 Q68.4 -3.8 68.8 -4.5 L68.85 -4.55 Q68.1 -5.2 67.95 -5.85 67.75 -6.2 68.2 -6.85 52.05 -12.9 35.2 -10.85 15.4 -6.3 -8.4 6.3 -35.8 21.8 -53.0 25.2 -70.2 28.65 -76.95 25.6 L-78.85 25.05 Q-86.25 22.45 -88.75 16.2 -91.1 5.45 -82.55 -4.8 L-78.85 -8.95 Q-71.05 -17.1 -60.35 -23.55 L-56.8 -25.6 Q-48.3 -28.4 -46.6 -25.6 -45.45 -24.65 -45.7 -23.55 -46.1 -21.9 -49.75 -20.0 -60.65 -15.35 -68.2 -9.2 L-68.25 -9.15 Q-74.25 -4.1 -77.65 1.6 L-78.85 3.7 Q-84.75 15.0 -78.85 23.35 L-77.9 24.55 Q-59.5 28.45 -39.25 18.25 -8.7 1.25 14.9 -10.3 35.35 -18.7 51.45 -16.85 64.15 -15.15 72.4 -10.85 L73.25 -11.05 74.75 -10.2 74.95 -10.35 Q75.75 -10.45 76.75 -9.35 L77.05 -9.55 Q78.65 -8.85 79.1 -7.65 80.35 -7.85 83.3 -5.7 87.55 -2.7 89.1 0.65 89.8 1.65 88.1 3.2 L87.0 1.95 Q85.4 2.55 84.85 4.15 L85.75 5.15 83.65 7.15 82.6 6.1 Q80.9 6.95 80.7 8.3 L81.75 9.45" fill="#474646" fill-rule="evenodd" stroke="none"/>
  </g>
</svg>
