<?xml version="1.0" encoding="UTF-8" standalone="no"?>
<svg xmlns:xlink="http://www.w3.org/1999/xlink" height="46.9px" width="59.6px" xmlns="http://www.w3.org/2000/svg">
  <g transform="matrix(1.0, 0.0, 0.0, 1.0, 29.8, 23.45)">
    <path d="M1.2 -7.15 L0.85 -7.9 Q-0.6 -11.3 -2.4 -13.9 -5.7 -14.85 -15.3 -11.35 -26.85 -6.95 -28.45 -1.65 L-27.65 1.6 Q-25.3 7.8 -19.65 12.6 -18.9 8.75 -13.05 2.65 -5.2 -5.65 1.2 -7.15 3.05 -3.5 5.85 -0.2 8.65 3.0 12.4 5.7 L12.5 5.8 Q16.6 8.8 22.3 9.85 L25.6 10.25 Q30.4 11.4 28.0 17.3 26.25 20.0 17.8 21.5 L14.6 22.0 4.95 22.35 Q-1.45 21.95 -7.65 19.75 -14.8 16.7 -19.65 12.6 M4.95 22.35 Q4.55 20.3 6.25 15.9 9.15 8.2 12.5 5.8 M22.3 9.85 Q18.05 15.7 17.8 21.5 M-2.4 -13.9 Q-5.75 -18.95 -10.15 -21.3 -16.95 -24.95 -24.05 -17.2 -30.1 -10.65 -28.45 -1.65 M-7.65 19.75 Q-7.5 15.75 -3.75 9.7 0.65 2.35 5.85 -0.2" fill="none" stroke="#000000" stroke-linecap="round" stroke-linejoin="round" stroke-width="2.0"/>
  </g>
</svg>
