<?xml version="1.0" encoding="UTF-8" standalone="no"?>
<svg xmlns:xlink="http://www.w3.org/1999/xlink" height="55.35px" width="75.3px" xmlns="http://www.w3.org/2000/svg">
  <g transform="matrix(1.0, 0.0, 0.0, 1.0, 37.65, 27.7)">
    <path d="M17.55 10.35 L19.35 13.5 16.9 13.95 18.25 16.4 15.6 17.3 16.6 19.9 14.8 21.6 7.3 20.3 1.7 20.7 3.4 19.5 2.0 17.25 4.25 15.9 2.9 12.9 5.4 11.65 3.75 9.6 5.5 7.45 6.3 7.5 6.55 7.55 7.15 7.65 Q4.15 5.75 2.7 3.2 L2.65 2.95 Q8.85 7.1 13.6 8.8 L17.55 10.35 M25.85 25.2 L28.15 24.05 27.15 21.0 29.8 20.65 29.1 18.25 30.7 18.5 Q35.2 22.55 37.65 27.65 32.45 27.8 25.85 25.2 M-8.9 4.65 L-6.9 7.0 -10.15 7.7 -8.8 10.7 -12.1 11.4 -11.0 13.35 -13.55 14.3 -16.9 12.9 Q-22.9 9.9 -27.2 6.2 L-23.75 6.7 -24.45 3.45 -20.45 3.35 -21.5 0.7 -17.8 0.3 Q-14.85 2.3 -11.45 3.85 L-8.9 4.65 M-27.5 -8.65 L-28.05 -6.1 -31.1 -6.6 -31.2 -6.4 -31.8 -3.6 -35.45 -5.15 Q-39.2 -14.15 -36.6 -26.0 L-36.25 -27.7 -34.75 -23.2 Q-32.25 -14.95 -27.5 -8.65" fill="#f4f5ff" fill-rule="evenodd" stroke="none"/>
  </g>
</svg>
