<?xml version="1.0" encoding="UTF-8" standalone="no"?>
<svg xmlns:xlink="http://www.w3.org/1999/xlink" height="75.6px" width="64.2px" xmlns="http://www.w3.org/2000/svg">
  <g transform="matrix(1.0, 0.0, 0.0, 1.0, 32.1, 37.8)">
    <path d="M5.15 -36.0 L5.65 -36.25 Q10.0 -38.1 15.6 -37.75 26.75 -36.75 31.15 -23.05 32.75 -17.0 31.7 -13.05 25.75 -9.75 22.25 -14.65 18.6 -13.7 19.25 -9.65 24.25 -2.7 21.85 7.6 18.45 22.25 4.65 22.65 3.65 29.35 -1.15 33.85 -8.6 39.95 -20.1 36.6 -7.75 37.5 -5.25 26.35 -9.95 36.65 -21.0 34.75 -31.5 32.75 -32.1 22.8 -26.9 31.1 -19.35 24.4 -28.45 19.5 -26.05 11.2 -30.4 7.85 -30.75 3.95 -31.4 -2.85 -25.85 -4.5 -27.15 -11.55 -25.05 -19.0 -20.5 -29.15 -11.3 -30.3 -3.8 -41.0 5.15 -36.0" fill="#ffdddd" fill-rule="evenodd" stroke="none"/>
  </g>
</svg>
