<?xml version="1.0" encoding="UTF-8" standalone="no"?>
<svg xmlns:xlink="http://www.w3.org/1999/xlink" height="79.0px" width="38.25px" xmlns="http://www.w3.org/2000/svg">
  <g transform="matrix(1.0, 0.0, 0.0, 1.0, 0.0, 0.0)">
    <path d="M24.95 59.35 L29.25 58.4 27.0 61.45 31.25 62.0 28.8 64.55 32.15 66.9 29.0 67.1 29.45 67.4 33.25 70.5 29.2 70.8 32.05 73.1 28.85 73.85 32.65 75.45 29.45 76.45 33.05 79.0 Q16.1 76.95 2.3 66.0 L1.95 65.7 Q12.5 67.15 24.95 59.35 M23.7 49.1 Q9.2 46.55 0.0 51.85 L0.25 51.5 Q8.8 36.15 23.75 27.85 L21.35 31.55 24.7 31.25 21.8 34.2 25.05 33.65 23.3 36.9 27.15 35.65 24.5 40.35 27.5 39.3 25.3 42.8 28.5 44.25 24.8 46.3 28.0 48.35 23.7 49.1 M31.6 19.7 L31.25 19.75 27.6 18.45 Q16.3 9.0 5.7 9.0 L6.05 8.75 Q21.2 -0.2 38.25 0.0 L34.35 2.1 37.4 3.5 33.4 4.55 36.45 5.75 33.4 7.65 37.35 8.5 32.7 11.25 35.8 11.85 32.1 13.75 34.2 16.6 29.9 16.55 31.6 19.7" fill="#fff9e5" fill-rule="evenodd" stroke="none"/>
  </g>
</svg>
