<?xml version="1.0" encoding="UTF-8" standalone="no"?>
<svg xmlns:xlink="http://www.w3.org/1999/xlink" height="49.75px" width="107.55px" xmlns="http://www.w3.org/2000/svg">
  <g transform="matrix(1.0, 0.0, 0.0, 1.0, 53.8, 24.9)">
    <path d="M20.55 3.5 Q21.25 10.05 24.85 15.0 26.7 17.45 28.85 18.9 31.1 20.4 33.7 20.85 L35.75 21.0 Q42.15 21.0 46.7 15.0 49.3 11.4 50.4 7.0 51.15 3.95 51.15 0.5 L51.15 0.35 Q51.15 -8.25 46.7 -14.3 42.15 -20.35 35.75 -20.35 29.35 -20.35 24.85 -14.3 20.6 -8.55 20.4 -0.45 L22.4 -0.45 22.4 3.5 20.55 3.5 M4.05 -1.7 L4.05 -1.65 Q10.6 -6.35 16.8 -1.7 17.2 -10.95 22.1 -17.6 27.55 -24.9 35.25 -24.9 42.95 -24.9 48.4 -17.6 53.75 -10.3 53.75 0.0 53.75 10.35 48.4 17.65 42.95 24.85 35.25 24.85 27.55 24.85 22.1 17.65 17.35 11.15 16.85 2.25 L16.8 1.9 16.3 1.7 16.2 1.65 15.65 1.4 15.05 1.2 Q9.55 -0.85 5.55 1.85 L5.5 1.9 Q5.05 2.15 4.65 2.5 L4.45 2.7 4.35 3.05 4.3 3.1 4.25 3.4 4.2 3.4 4.2 3.35 3.9 3.2 3.3 6.1 Q1.75 11.95 -2.95 16.6 -9.85 23.6 -19.8 23.6 -29.65 23.6 -36.7 16.6 -42.5 10.75 -43.4 2.8 L-43.45 1.85 -53.8 1.85 -53.8 -1.3 -43.55 -1.3 Q-43.2 -10.5 -36.7 -17.1 -29.65 -24.1 -19.8 -24.1 -9.85 -24.1 -2.95 -17.1 3.55 -10.65 4.05 -1.7 M0.35 3.5 L-1.2 3.4 -1.05 -1.0 0.6 -0.95 Q0.2 -8.85 -5.5 -14.5 -11.5 -20.6 -20.15 -20.6 -28.7 -20.6 -34.8 -14.5 -40.8 -8.45 -40.8 0.15 -40.8 8.7 -34.8 14.75 -29.0 20.5 -21.05 20.8 L-20.15 20.8 -16.45 20.55 Q-10.2 19.5 -5.5 14.75 -2.05 11.3 -0.5 7.05 0.05 5.35 0.35 3.5" fill="#373738" fill-rule="evenodd" stroke="none"/>
  </g>
</svg>
