<?xml version="1.0" encoding="UTF-8" standalone="no"?>
<svg xmlns:xlink="http://www.w3.org/1999/xlink" height="15.85px" width="78.0px" xmlns="http://www.w3.org/2000/svg">
  <g transform="matrix(1.0, 0.0, 0.0, 1.0, 35.45, 3.55)">
    <path d="M5.0 -1.85 Q11.45 -5.25 18.05 -1.85 L23.6 5.8 19.0 6.2 Q13.2 -1.1 5.05 6.2 L-2.2 4.75 5.0 -1.85 M32.5 11.9 L28.5 12.3 28.65 0.6 32.2 0.4 32.5 11.9 M37.95 10.3 L37.65 0.0 40.0 -0.15 40.3 8.1 37.95 10.3 M41.7 6.85 L41.5 -0.2 42.45 -0.3 42.55 6.0 41.7 6.85 M-28.45 8.95 L-29.4 8.4 -29.2 -0.5 -28.05 -0.4 -28.45 8.95 M-30.9 7.5 L-35.45 4.85 -35.4 -0.95 -30.75 -0.6 -30.9 7.5 M-12.9 12.3 L-19.15 11.9 -18.8 0.3 -12.2 0.8 -12.9 12.3" fill="#ffffff" fill-opacity="0.24705882" fill-rule="evenodd" stroke="none"/>
  </g>
</svg>
