<?xml version="1.0" encoding="UTF-8" standalone="no"?>
<svg xmlns:xlink="http://www.w3.org/1999/xlink" height="38.3px" width="37.0px" xmlns="http://www.w3.org/2000/svg">
  <g transform="matrix(1.0, 0.0, 0.0, 1.0, 18.5, 19.15)">
    <path d="M5.0 -15.6 Q4.9 -17.8 5.6 -18.6 14.3 -15.35 18.5 12.55 16.4 17.35 12.5 17.65 11.2 0.15 7.4 -10.35 L5.0 -15.6 M-16.9 14.3 Q-16.25 8.15 -18.5 -2.95 -18.85 -16.75 -8.45 -19.15 -5.95 -17.7 -1.75 -12.3 L-1.7 -12.2 -4.1 -11.65 Q-5.55 -9.6 -5.4 -8.35 -3.7 -6.25 -0.95 -6.45 0.1 3.55 -0.15 19.15 -12.0 18.0 -16.9 14.3" fill="#303643" fill-rule="evenodd" stroke="none"/>
  </g>
</svg>
