<?xml version="1.0" encoding="UTF-8" standalone="no"?>
<svg xmlns:xlink="http://www.w3.org/1999/xlink" height="48.35px" width="42.15px" xmlns="http://www.w3.org/2000/svg">
  <g transform="matrix(1.0, 0.0, 0.0, 1.0, 21.05, 24.15)">
    <path d="M11.65 -18.3 L13.0 -17.35 15.45 -14.95 Q18.5 -10.2 16.75 -6.0 L15.3 -3.55 Q15.45 1.95 17.95 8.7 20.4 15.4 21.1 20.4 19.0 24.0 9.5 24.15 -15.35 24.6 -21.05 21.2 -17.85 14.95 -16.1 9.4 -14.4 3.85 -17.05 -3.55 L-17.8 -6.65 Q-18.7 -9.25 -18.65 -13.75 L-18.6 -13.8 Q-18.45 -18.85 -15.95 -22.15 -12.85 -26.05 -9.95 -22.3 L-5.15 -16.1 Q-3.25 -13.6 0.1 -11.35 3.45 -9.15 5.75 -9.4 L6.2 -9.5 6.25 -9.5 6.6 -9.75 Q9.2 -11.5 10.3 -13.8 L10.5 -14.3 Q11.4 -16.25 11.65 -18.3" fill="#ff5177" fill-rule="evenodd" stroke="none"/>
  </g>
</svg>
