<?xml version="1.0" encoding="UTF-8" standalone="no"?>
<svg xmlns:xlink="http://www.w3.org/1999/xlink" height="53.3px" width="43.55px" xmlns="http://www.w3.org/2000/svg">
  <g transform="matrix(1.0, 0.0, 0.0, 1.0, 21.8, 26.65)">
    <path d="M4.85 -23.4 L4.65 -23.85 7.5 -21.8 7.55 -21.65 Q6.3 -22.8 4.85 -23.4 M16.2 -11.7 L16.5 -11.3 Q17.75 -8.55 17.25 -5.85 17.7 -8.65 16.2 -11.7 M15.85 -2.4 L15.55 -2.05 15.55 -2.1 15.85 -2.4" fill="#5dd2ae" fill-rule="evenodd" stroke="none"/>
    <path d="M4.85 -23.4 L4.65 -23.85 7.5 -21.8 7.55 -21.65 M16.2 -11.7 L16.5 -11.3 Q17.75 -8.55 17.25 -5.85 M15.85 -2.4 L15.55 -2.05" fill="none" stroke="#000000" stroke-linecap="round" stroke-linejoin="round" stroke-width="1.5"/>
    <path d="M7.55 -21.65 L9.15 -20.0 15.4 -13.05 16.2 -11.7 Q17.7 -8.65 17.25 -5.85 L16.7 -4.1 16.65 -3.95 15.85 -2.4 15.55 -2.1 15.55 -2.05 Q15.3 1.1 16.65 6.45 19.3 13.55 20.75 22.2 20.65 25.5 6.9 25.65 L6.3 25.65 Q-15.45 25.85 -20.8 21.95 L-18.45 17.1 -18.25 16.75 Q-15.65 11.05 -15.85 4.65 L-18.1 -6.1 Q-20.45 -17.8 -12.8 -23.15 L-9.25 -25.65 -8.75 -23.75 -6.65 -18.7 Q-5.3 -16.05 -3.25 -13.2 L-3.2 -13.15 Q1.6 -6.45 2.5 -0.95 2.4 0.7 2.55 2.35 3.0 8.9 6.65 14.8 8.85 8.65 9.25 1.9 9.7 -7.55 6.55 -18.2 L4.75 -23.4 4.85 -23.4 Q6.3 -22.8 7.55 -21.65 M14.9 -1.2 L15.25 -1.65 15.4 -1.8 15.55 -2.1" fill="none" stroke="#000000" stroke-linecap="round" stroke-linejoin="round" stroke-width="2.0"/>
    <path d="M-4.9 -0.2 L1.0 -0.35 Q1.8 -0.6 2.5 -0.95 M10.9 -1.3 L14.9 -1.2 M6.65 14.8 L6.9 25.65" fill="none" stroke="#000000" stroke-linecap="round" stroke-linejoin="round" stroke-width="1.0"/>
  </g>
</svg>
