<?xml version="1.0" encoding="UTF-8" standalone="no"?>
<svg xmlns:xlink="http://www.w3.org/1999/xlink" height="51.4px" width="27.25px" xmlns="http://www.w3.org/2000/svg">
  <g transform="matrix(1.0, 0.0, 0.0, 1.0, 13.6, 25.7)">
    <path d="M11.65 24.6 Q10.35 11.55 8.8 1.8 L8.3 -1.4 Q5.95 -14.7 3.05 -21.2 L2.2 -22.95 2.15 -23.45 2.25 -23.45 Q3.55 -23.15 4.85 -21.9 L4.9 -21.85 5.7 -20.95 Q11.5 -3.25 13.65 24.55 L11.65 24.6 M-11.85 -25.7 Q-10.6 -22.9 -9.65 -19.7 -7.25 -11.35 -7.15 -0.2 L-7.2 2.0 -7.2 3.0 Q-7.4 14.4 -7.0 20.95 -6.85 23.7 -8.1 25.7 L-10.7 25.4 Q-7.35 -1.75 -13.6 -24.45 L-11.85 -25.7" fill="#439ebd" fill-rule="evenodd" stroke="none"/>
  </g>
</svg>
