<?xml version="1.0" encoding="UTF-8" standalone="no"?>
<svg xmlns:xlink="http://www.w3.org/1999/xlink" height="136.65px" width="193.65px" xmlns="http://www.w3.org/2000/svg">
  <g transform="matrix(1.0, 0.0, 0.0, 1.0, 96.8, 68.3)">
    <path d="M-31.8 -17.25 L-33.7 -12.55 -33.85 -12.05 Q-36.15 -4.65 -36.0 4.6 -29.45 53.05 -17.7 64.95 -22.2 62.1 -25.55 59.4 -20.15 64.15 -21.3 67.7 -25.15 63.25 -33.05 58.35 -33.8 62.95 -38.25 64.95 -36.55 63.35 -39.6 56.05 L-43.3 53.55 Q-43.15 62.85 -39.3 68.35 -60.05 61.55 -59.4 43.1 -63.3 54.2 -58.85 66.0 -83.0 52.0 -75.7 29.2 -85.0 45.25 -75.55 55.2 -96.8 46.05 -93.8 28.1 -91.25 12.95 -76.4 0.1 -85.75 4.4 -96.8 -6.95 -80.15 -7.85 -67.9 -31.95 -55.75 -56.1 -35.85 -63.0 -15.9 -69.9 -3.7 -66.95 6.05 -68.95 18.05 -68.0 30.15 -67.2 39.85 -63.5 67.3 -53.2 77.25 -26.8 80.85 -17.15 86.1 -13.2 L86.5 -14.6 86.15 -13.2 Q89.9 -10.35 96.85 -9.9 87.15 4.0 80.9 -1.25 93.85 11.2 94.45 30.5 95.0 49.75 76.15 59.8 85.75 50.65 80.9 31.9 85.95 58.05 56.95 66.25 62.65 60.9 65.6 48.75 61.05 57.3 51.25 61.75 49.25 63.95 45.75 66.3 L47.55 63.25 Q43.35 65.15 39.4 66.15 46.85 60.05 52.95 48.9 58.4 33.8 60.4 11.85 L59.4 -6.0 Q58.5 -13.8 56.15 -19.65 38.65 -33.35 23.5 -35.4 17.3 -34.35 15.5 -31.35 12.65 -35.0 6.3 -35.55 -18.05 -31.7 -31.8 -17.25" fill="url(#gradient0)" fill-rule="evenodd" stroke="none"/>
  </g>
  <defs>
    <linearGradient gradientTransform="matrix(0.0, 0.0862, -0.1182, 0.0, 0.05, 45.0)" gradientUnits="userSpaceOnUse" id="gradient0" spreadMethod="pad" x1="-819.2" x2="819.2">
      <stop offset="0.0" stop-color="#fff23c" stop-opacity="0.0"/>
      <stop offset="0.3803921568627451" stop-color="#fff23c" stop-opacity="0.84705883"/>
      <stop offset="0.6039215686274509" stop-color="#fff23c" stop-opacity="0.8"/>
      <stop offset="1.0" stop-color="#fff23c" stop-opacity="0.0"/>
    </linearGradient>
  </defs>
</svg>
