<?xml version="1.0" encoding="UTF-8" standalone="no"?>
<svg xmlns:xlink="http://www.w3.org/1999/xlink" height="159.4px" width="144.8px" xmlns="http://www.w3.org/2000/svg">
  <g transform="matrix(1.0, 0.0, 0.0, 1.0, 72.4, 79.7)">
    <path d="M68.25 -51.15 L65.05 -41.6 61.7 -31.65 61.85 -31.35 62.05 -30.95 62.35 -30.4 63.25 -28.5 64.85 -24.55 Q71.85 -6.35 72.1 6.05 73.35 23.35 69.2 43.3 65.05 63.2 67.5 74.5 56.7 62.05 59.85 40.0 56.95 44.35 51.7 45.25 58.65 40.0 60.15 12.6 L59.35 -6.4 58.45 -11.3 Q55.85 -25.35 51.55 -28.7 25.45 -36.0 0.35 -33.5 -24.75 -31.05 -29.05 -22.05 -33.35 -13.05 -33.95 -5.8 -42.85 26.7 -33.1 46.7 -43.15 43.45 -45.85 34.35 -41.75 66.95 -52.75 79.7 -51.6 67.55 -59.1 42.4 L-59.25 41.85 -59.15 42.5 -69.85 28.15 Q-74.4 -0.8 -63.35 -28.8 -66.05 -32.3 -68.5 -41.1 -71.65 -52.1 -72.25 -62.95 -72.9 -73.9 -70.95 -79.7 -67.5 -78.55 -46.15 -73.85 -25.8 -69.35 -16.85 -61.4 L-15.45 -61.75 -9.0 -62.85 -5.5 -63.2 Q1.45 -63.7 9.65 -63.05 L16.25 -62.45 Q22.2 -61.2 27.75 -59.05 36.75 -66.75 55.5 -71.35 L72.35 -75.25 Q71.45 -60.15 68.25 -51.15 M-66.35 -70.9 Q-65.25 -55.7 -59.85 -41.95 L-61.85 -39.7 -59.25 -40.2 -58.0 -37.45 -56.65 -34.6 -58.75 -30.5 -54.55 -31.1 Q-49.1 -31.55 -42.45 -36.6 -34.6 -42.75 -34.4 -44.9 L-42.9 -51.15 -46.95 -54.2 Q-60.1 -64.2 -66.35 -70.9" fill="url(#gradient0)" fill-rule="evenodd" stroke="none"/>
  </g>
  <defs>
    <linearGradient gradientTransform="matrix(0.0, 0.0852, -0.0884, 0.0, 0.0, 39.45)" gradientUnits="userSpaceOnUse" id="gradient0" spreadMethod="pad" x1="-819.2" x2="819.2">
      <stop offset="0.0" stop-color="#fff23c" stop-opacity="0.0"/>
      <stop offset="0.3803921568627451" stop-color="#fff23c" stop-opacity="0.84705883"/>
      <stop offset="0.6039215686274509" stop-color="#fff23c" stop-opacity="0.8"/>
      <stop offset="1.0" stop-color="#fff23c" stop-opacity="0.0"/>
    </linearGradient>
  </defs>
</svg>
