<?xml version="1.0" encoding="UTF-8" standalone="no"?>
<svg xmlns:xlink="http://www.w3.org/1999/xlink" height="173.3px" width="150.95px" xmlns="http://www.w3.org/2000/svg">
  <g transform="matrix(1.0, 0.0, 0.0, 1.0, 75.45, 86.65)">
    <path d="M64.2 -55.25 Q73.1 -59.55 75.5 -60.15 75.55 -55.7 73.35 -42.45 L72.2 -36.55 72.1 -36.25 Q70.0 -27.4 66.65 -21.85 L63.2 -16.85 Q61.1 -14.2 59.05 -12.6 L57.9 -11.8 56.6 -10.9 57.05 -10.5 55.3 -7.75 55.55 -7.4 55.7 -7.15 56.3 -6.2 56.65 -5.65 59.0 -1.25 Q65.65 13.25 66.95 29.35 L67.1 31.7 67.15 32.7 Q71.95 66.15 63.15 76.1 59.35 80.95 53.75 81.7 57.85 78.1 60.15 72.65 56.65 77.6 50.6 80.3 42.9 82.35 40.15 76.7 46.2 72.7 51.55 64.45 48.2 67.6 42.7 64.3 52.85 56.1 55.65 43.05 L55.65 31.85 Q55.1 22.2 50.95 10.9 51.7 2.15 47.4 -1.2 26.45 -8.6 15.55 -1.85 6.55 -6.45 -10.3 -5.25 -27.2 -4.1 -30.2 2.4 -33.2 8.9 -32.05 15.3 -37.05 34.9 -34.25 46.8 -29.1 62.5 -14.75 68.9 -22.3 72.7 -27.6 71.5 L-12.3 81.6 Q-22.05 89.3 -33.3 85.25 -39.65 82.4 -43.9 79.55 L-44.45 79.15 -43.75 79.85 -36.75 85.6 Q-48.45 83.15 -55.4 76.4 L-55.1 76.75 Q-71.6 73.9 -74.5 57.35 -77.35 35.85 -71.55 10.6 L-69.85 4.5 -69.55 3.0 Q-71.15 -2.6 -68.85 -14.4 -66.65 -26.3 -57.75 -38.6 -48.95 -50.95 -35.85 -62.85 -22.8 -74.8 -16.85 -86.65 -12.25 -64.4 -12.8 -48.75 -13.05 -41.5 -14.9 -37.0 -9.9 -37.25 -8.25 -39.8 -7.9 -37.6 -8.35 -35.8 -1.95 -36.15 5.5 -35.55 L10.45 -35.1 12.1 -34.95 13.25 -34.7 14.7 -34.35 Q17.0 -38.05 21.85 -40.9 27.75 -44.35 37.3 -46.65 55.35 -50.95 64.2 -55.25 M51.6 -12.6 L53.05 -13.6 Q50.35 -15.4 47.3 -16.85 L51.5 -12.55 51.6 -12.6" fill="#bfffd0" fill-rule="evenodd" stroke="none"/>
  </g>
</svg>
