<?xml version="1.0" encoding="UTF-8" standalone="no"?>
<svg xmlns:xlink="http://www.w3.org/1999/xlink" height="232.6px" width="143.6px" xmlns="http://www.w3.org/2000/svg">
  <g transform="matrix(1.0, 0.0, 0.0, 1.0, 71.8, 116.3)">
    <path d="M61.7 -106.75 Q63.2 -103.5 62.7 -99.55 62.2 -95.65 65.35 -101.95 66.0 -96.65 65.6 -90.35 67.25 -67.6 63.9 -51.85 61.8 -35.55 55.3 -22.5 L58.25 -20.85 Q57.9 -18.85 54.55 -16.7 51.2 -14.6 48.1 -15.4 51.85 -13.5 53.75 -10.55 52.15 -8.8 50.4 -8.15 L50.7 -7.9 Q58.7 -0.6 62.65 8.1 L64.25 12.05 Q71.25 30.25 71.5 42.65 72.75 59.95 68.6 79.9 64.45 99.8 66.9 111.1 56.1 98.65 59.25 76.6 56.35 80.95 51.1 81.85 58.05 76.6 59.55 49.2 L58.75 30.2 57.85 25.3 Q55.25 11.25 50.95 7.9 24.85 0.6 -0.25 3.1 -25.35 5.55 -29.65 14.55 -33.95 23.55 -34.55 30.8 -43.45 63.3 -33.7 83.3 -43.75 80.05 -46.45 70.95 -42.35 103.55 -53.35 116.3 -52.2 104.15 -59.7 79.0 L-59.75 79.1 -59.9 78.25 -70.45 64.75 Q-75.0 35.8 -63.95 7.8 -58.55 -3.0 -49.3 -10.4 L-46.65 -12.4 Q-54.55 -31.7 -57.15 -48.85 -56.85 -79.85 -51.1 -111.1 -49.85 -112.7 -47.9 -108.1 -48.05 -113.9 -47.8 -116.3 -31.8 -101.25 -23.05 -78.5 -15.4 -58.6 -18.55 -33.05 L-16.65 -33.75 Q-16.0 -29.25 -17.0 -26.95 -17.65 -25.55 -18.4 -24.55 L-18.1 -24.65 -16.05 -25.15 -9.6 -26.25 -6.1 -26.6 Q0.85 -27.1 9.05 -26.45 L15.65 -25.85 17.35 -25.45 Q20.85 -37.2 30.1 -50.45 39.55 -64.1 46.9 -75.6 54.25 -87.15 61.7 -106.75" fill="url(#gradient0)" fill-rule="evenodd" stroke="none"/>
  </g>
  <defs>
    <linearGradient gradientTransform="matrix(0.0, 0.086, -0.0876, 0.0, 0.0, 74.75)" gradientUnits="userSpaceOnUse" id="gradient0" spreadMethod="pad" x1="-819.2" x2="819.2">
      <stop offset="0.0" stop-color="#fff23c" stop-opacity="0.0"/>
      <stop offset="0.3803921568627451" stop-color="#fff23c" stop-opacity="0.84705883"/>
      <stop offset="0.6039215686274509" stop-color="#fff23c" stop-opacity="0.8"/>
      <stop offset="1.0" stop-color="#fff23c" stop-opacity="0.0"/>
    </linearGradient>
  </defs>
</svg>
