<?xml version="1.0" encoding="UTF-8" standalone="no"?>
<svg xmlns:xlink="http://www.w3.org/1999/xlink" height="197.95px" width="163.7px" xmlns="http://www.w3.org/2000/svg">
  <g transform="matrix(1.0, 0.0, 0.0, 1.0, 81.85, 98.95)">
    <path d="M59.5 -57.65 L59.75 -57.3 64.7 -52.4 Q69.85 -47.35 80.85 -54.5 67.6 -53.3 58.8 -64.85 37.6 -94.05 11.65 -97.3 -11.9 -100.55 -23.7 -87.3 -25.4 -86.45 -25.45 -78.25 M64.7 -52.4 Q79.75 -35.6 79.7 -21.45 78.6 -5.9 72.3 3.65 L70.75 5.8 Q68.0 11.0 72.95 20.85 76.8 28.6 60.45 35.0 47.35 43.65 47.65 53.5 59.95 64.15 45.8 73.65 31.6 83.1 44.15 98.0 19.85 85.05 31.55 67.1 35.2 61.1 29.45 56.05 L29.3 55.9 29.0 55.7 Q18.2 46.25 32.3 32.45 L32.85 32.25 Q57.5 22.05 56.35 5.8 54.6 -2.95 55.8 -8.8 60.55 -29.75 53.05 -44.2 8.75 -46.4 -18.75 -59.0 -21.3 -58.55 -22.65 -50.65 -24.7 -34.85 -33.35 -22.1 -42.0 -9.35 -52.4 -4.6 -45.1 -0.55 -48.55 8.25 -48.55 3.25 -57.05 -3.65 L-59.3 -3.65 Q-64.7 -5.8 -67.45 -0.35 -68.2 6.75 -59.15 16.1 M-67.45 -0.35 Q-72.8 -6.2 -73.0 -17.75 -73.1 -21.3 -72.75 -24.75 -72.0 -32.5 -69.15 -39.65 M-52.4 -4.6 L-54.95 -3.65 -57.05 -3.65 M-23.7 -87.3 Q-39.75 -87.25 -51.6 -81.15 -76.8 -65.25 -80.15 -33.15 -82.3 -18.3 -77.8 -2.25 -72.6 13.65 -73.0 24.7 M60.45 35.0 Q51.6 38.7 46.9 42.7 42.2 46.65 41.2 49.5 M70.75 5.8 Q67.5 10.0 63.05 12.85" fill="none" stroke="#000000" stroke-linecap="round" stroke-linejoin="round" stroke-width="2.0"/>
    <path d="M-64.85 -4.0 Q-67.05 -25.85 -55.65 -47.5" fill="none" stroke="#000000" stroke-linecap="round" stroke-linejoin="round" stroke-opacity="0.4392157" stroke-width="1.5"/>
  </g>
</svg>
