<?xml version="1.0" encoding="UTF-8" standalone="no"?>
<svg xmlns:xlink="http://www.w3.org/1999/xlink" height="103.55px" width="180.1px" xmlns="http://www.w3.org/2000/svg">
  <g transform="matrix(1.0, 0.0, 0.0, 1.0, 90.05, 51.8)">
    <path d="M-61.2 -23.75 Q-68.75 -21.8 -79.95 -25.1 -67.0 -29.05 -47.5 -39.45 -28.0 -49.85 -11.35 -44.9 0.05 -53.8 14.5 -51.2 28.9 -48.6 40.7 -45.35 52.5 -42.15 66.5 -43.5 60.0 -37.3 49.5 -36.0 63.55 -31.75 73.8 -12.3 84.05 7.15 90.05 10.5 76.55 10.2 71.1 0.25 80.4 22.5 66.55 41.35 L67.6 27.5 Q66.25 41.1 56.25 51.05 62.85 34.45 56.25 6.35 50.8 -6.2 43.15 -14.15 L43.8 -12.2 43.95 -11.55 Q45.2 -6.85 45.35 -0.8 32.5 -19.0 6.05 -22.0 21.7 -19.85 27.9 -11.75 3.15 -20.45 -19.6 -21.65 -36.9 -11.1 -37.65 6.4 L-40.7 9.75 -41.4 15.25 Q-42.35 37.6 -36.95 51.75 -45.15 50.55 -50.95 41.85 -58.25 35.95 -62.45 42.75 -70.5 31.1 -67.0 12.7 L-72.85 35.9 Q-78.65 17.6 -70.4 3.85 -76.05 12.55 -90.05 13.5 -82.9 5.9 -77.5 -5.15 -72.1 -16.25 -61.2 -23.75" fill="url(#gradient0)" fill-rule="evenodd" stroke="none"/>
  </g>
  <defs>
    <linearGradient gradientTransform="matrix(0.0, 0.0837, -0.1099, 0.0, 0.0, 60.15)" gradientUnits="userSpaceOnUse" id="gradient0" spreadMethod="pad" x1="-819.2" x2="819.2">
      <stop offset="0.0" stop-color="#fff23c" stop-opacity="0.0"/>
      <stop offset="0.3803921568627451" stop-color="#fff23c" stop-opacity="0.84705883"/>
      <stop offset="0.6039215686274509" stop-color="#fff23c" stop-opacity="0.8"/>
      <stop offset="1.0" stop-color="#fff23c" stop-opacity="0.0"/>
    </linearGradient>
  </defs>
</svg>
