<?xml version="1.0" encoding="UTF-8" standalone="no"?>
<svg xmlns:xlink="http://www.w3.org/1999/xlink" height="169.9px" width="199.75px" xmlns="http://www.w3.org/2000/svg">
  <g transform="matrix(1.0, 0.0, 0.0, 1.0, 99.9, 84.95)">
    <path d="M35.55 -38.0 L35.6 -38.0 Q45.9 -42.75 50.45 -59.15 48.65 -71.0 33.15 -84.95 54.8 -75.3 59.8 -59.7 55.7 -40.95 37.85 -38.05 54.45 -38.15 67.1 -27.2 80.65 -15.5 95.3 -14.3 81.7 -6.8 69.8 -13.0 76.4 -9.3 82.3 2.05 88.15 13.4 99.85 18.55 87.5 19.15 80.05 14.5 84.75 22.4 87.05 34.0 90.15 48.45 94.1 52.65 81.15 48.75 78.25 35.95 80.5 67.8 60.65 84.1 66.55 72.65 67.9 55.85 66.0 59.6 63.25 62.55 68.2 49.25 67.75 26.5 66.9 18.0 61.25 6.65 62.9 3.9 61.25 -2.1 49.9 -12.65 32.3 -8.65 0.0 -14.7 -15.1 -6.4 -19.0 1.65 -17.35 7.2 -23.45 15.8 -25.0 28.2 -25.4 45.65 -19.35 63.1 -27.65 56.1 -31.3 49.85 -29.0 73.4 -20.2 84.95 -30.6 78.1 -36.95 68.25 -32.4 75.75 -33.2 82.15 -38.05 73.75 -48.5 65.35 L-41.7 79.3 Q-60.05 65.55 -62.9 48.7 -69.7 58.55 -84.85 61.15 -79.05 56.0 -74.7 44.3 -70.35 32.6 -62.05 27.4 -79.15 34.15 -96.5 28.2 -87.5 26.1 -78.95 18.85 L-61.9 4.05 Q-81.85 6.6 -99.9 -3.85 -85.3 -0.85 -68.1 -10.35 -56.85 -16.6 -47.75 -19.85 -76.0 -17.0 -87.95 -39.6 -78.9 -33.6 -64.6 -34.35 -50.35 -35.15 -35.8 -34.4 -57.35 -42.25 -56.5 -64.25 -46.75 -47.25 -22.45 -45.55 L8.2 -48.1 Q25.15 -49.4 34.3 -39.85 L35.55 -38.0 M-45.9 44.6 Q-55.2 43.15 -53.9 53.2 -48.65 65.65 -38.5 65.65 -43.9 56.35 -45.9 44.6" fill="url(#gradient0)" fill-rule="evenodd" stroke="none"/>
  </g>
  <defs>
    <linearGradient gradientTransform="matrix(0.0, 0.0863, -0.1219, 0.0, 0.0, 64.5)" gradientUnits="userSpaceOnUse" id="gradient0" spreadMethod="pad" x1="-819.2" x2="819.2">
      <stop offset="0.0" stop-color="#fff23c" stop-opacity="0.0"/>
      <stop offset="0.3803921568627451" stop-color="#fff23c" stop-opacity="0.84705883"/>
      <stop offset="0.6039215686274509" stop-color="#fff23c" stop-opacity="0.8"/>
      <stop offset="1.0" stop-color="#fff23c" stop-opacity="0.0"/>
    </linearGradient>
  </defs>
</svg>
