<?xml version="1.0" encoding="UTF-8" standalone="no"?>
<svg xmlns:xlink="http://www.w3.org/1999/xlink" height="92.85px" width="128.8px" xmlns="http://www.w3.org/2000/svg">
  <g transform="matrix(1.0, 0.0, 0.0, 1.0, 64.4, 46.45)">
    <path d="M47.3 -30.25 Q63.15 -16.45 63.4 6.8 63.25 20.95 60.5 18.1 L58.65 9.0 58.65 5.75 Q57.6 -7.8 48.05 -15.8 27.55 -29.1 -6.95 -22.1 -25.6 -18.3 -30.6 -9.7 -35.6 -1.1 -36.5 8.45 L-44.0 14.4 Q-47.4 29.8 -43.55 45.4 L-50.85 45.4 -55.5 38.45 Q-57.2 37.8 -58.7 37.85 -66.0 18.7 -62.0 -0.45 -59.9 -18.3 -43.75 -31.9 -23.6 -48.35 8.95 -44.8 29.25 -42.5 47.3 -30.25 Z" fill="none" stroke="#000000" stroke-linecap="round" stroke-linejoin="round" stroke-width="2.0"/>
  </g>
</svg>
