<?xml version="1.0" encoding="UTF-8" standalone="no"?>
<svg xmlns:xlink="http://www.w3.org/1999/xlink" height="168.6px" width="207.35px" xmlns="http://www.w3.org/2000/svg">
  <g transform="matrix(1.0, 0.0, 0.0, 1.0, 103.7, 84.3)">
    <path d="M19.05 -38.55 Q13.7 -43.15 3.8 -46.8 L3.45 -46.95 Q-2.6 -49.15 -16.4 -50.25 -46.4 -51.6 -61.9 -64.55 -55.45 -40.55 -35.3 -33.2 -16.1 -33.35 -5.75 -25.95 M3.45 -46.95 Q-12.1 -59.5 -14.55 -83.3 6.45 -64.15 34.75 -56.2 59.1 -48.15 62.35 -36.6 58.3 -55.85 42.35 -79.7 71.9 -51.8 78.1 -26.85 L78.3 -26.05 78.6 -25.15 Q76.9 -42.7 85.45 -57.45 85.35 -42.4 93.85 -26.5 97.2 -15.55 94.8 -7.15 96.75 -13.25 102.65 -19.35 99.85 -9.85 99.45 -0.7 99.15 6.2 100.1 12.95 L100.5 15.45 100.55 15.65 100.7 16.6 Q104.55 39.2 94.15 60.65 91.65 71.55 83.25 78.95 86.8 70.2 88.4 51.25 L87.6 32.15 86.25 28.65 Q84.1 13.2 79.8 9.85 53.7 2.55 28.6 5.05 3.5 7.5 -0.8 16.5 -5.1 25.5 -5.7 32.75 L-11.3 39.0 Q-17.05 60.05 -10.85 83.3 -21.2 74.25 -24.95 63.5 -29.1 59.65 -31.5 61.0 -35.7 65.5 -33.1 74.15 -47.05 65.7 -54.5 51.2 -48.55 53.95 -38.9 53.9 -49.15 50.05 -55.0 40.75 L-64.55 49.55 Q-58.1 34.85 -49.05 24.15 -71.4 43.8 -81.35 68.65 -77.45 41.3 -55.15 16.5 -71.3 28.05 -102.7 24.35 -85.45 19.45 -71.45 8.15 -57.5 -3.2 -46.4 -6.95 -83.05 -10.65 -95.85 -36.65 -81.35 -25.0 -35.3 -33.2 M62.35 -36.6 Q63.75 -29.9 63.7 -23.7 M78.3 -10.8 Q81.95 -14.7 78.6 -25.15 L78.7 -24.3 78.3 -26.05 M93.85 -1.05 Q93.85 -4.05 94.8 -7.15 M91.5 10.45 Q99.9 36.0 94.15 60.65 M-9.2 -17.25 Q-29.1 -14.6 -46.4 -6.95 M-9.2 10.6 Q-22.25 15.65 -36.75 26.05 L-39.15 27.8 -35.35 27.8 M-53.25 39.2 L-42.3 40.45 Q-46.3 37.35 -47.8 34.5 L-53.25 39.2 -55.0 40.75 M-38.9 53.9 Q-38.2 54.6 -35.2 56.0 M-49.05 24.15 Q-37.1 9.85 -20.65 2.6 M-39.35 1.1 Q-48.15 8.65 -55.15 16.5 M-39.15 27.8 Q-42.35 30.15 -47.8 34.5 M-24.95 63.5 Q-31.6 44.45 -24.65 24.5 M-36.05 45.1 L-42.3 40.45" fill="none" stroke="#000000" stroke-linecap="round" stroke-linejoin="round" stroke-width="2.0"/>
  </g>
</svg>
