<?xml version="1.0" encoding="UTF-8" standalone="no"?>
<svg xmlns:xlink="http://www.w3.org/1999/xlink" height="151.55px" width="182.1px" xmlns="http://www.w3.org/2000/svg">
  <g transform="matrix(1.0, 0.0, 0.0, 1.0, 91.05, 75.8)">
    <path d="M-3.25 -26.6 Q4.95 -29.9 14.5 -28.2 L27.85 -25.5 40.7 -22.35 Q47.8 -20.45 55.7 -20.15 L66.5 -20.5 Q60.0 -14.3 49.5 -13.0 59.5 -9.95 67.6 0.8 L68.45 1.95 Q71.25 5.85 73.8 10.7 84.05 30.15 90.05 33.5 76.55 33.2 71.1 23.25 80.4 45.5 66.55 64.35 L67.6 50.5 Q66.25 64.1 56.25 74.05 62.85 57.45 56.25 29.35 50.8 16.8 43.15 8.85 L43.8 10.8 43.95 11.45 Q45.2 16.15 45.35 22.2 32.5 4.0 6.05 1.0 21.7 3.15 27.9 11.25 3.15 2.55 -19.6 1.35 -36.9 11.9 -37.65 29.4 L-40.7 32.75 -41.4 38.25 Q-42.35 60.6 -36.95 74.75 -45.15 73.55 -50.95 64.85 -58.25 58.95 -62.45 65.75 -70.5 54.1 -67.0 35.7 L-72.85 58.9 Q-78.65 40.6 -70.4 26.85 -76.05 35.55 -90.05 36.5 -82.9 28.9 -77.5 17.85 -73.0 8.65 -64.75 1.9 M-64.4 -0.15 Q-71.05 0.55 -79.95 -2.1 -72.3 -4.45 -62.3 -9.05 M43.65 -12.65 L49.4 -12.95 49.5 -13.0 M71.1 23.25 L71.0 23.1 70.5 22.2 Q66.65 11.25 61.95 5.75 L60.0 3.75 M43.15 8.85 Q41.5 4.4 38.65 1.4 L35.4 -1.35 M67.6 50.5 Q68.1 45.65 67.5 40.3 M-67.0 35.7 L-64.35 27.7 M-67.5 19.9 Q-68.3 23.15 -69.75 25.8 L-69.95 26.1 -70.4 26.85 M-50.95 64.85 Q-56.55 53.1 -56.95 47.75" fill="none" stroke="#123751" stroke-linecap="round" stroke-linejoin="round" stroke-width="2.0"/>
    <path d="M27.85 -25.5 Q29.7 -27.35 32.35 -28.9 35.65 -30.85 40.15 -32.4 L47.8 -34.65 50.4 -35.25 62.25 -38.55 Q69.85 -40.9 74.7 -43.25 83.6 -47.55 86.0 -48.15 86.05 -45.25 85.1 -38.55 L84.1 -31.85 83.85 -30.45 82.6 -24.25 Q80.9 -16.95 78.3 -11.9 L77.15 -9.85 74.3 -5.65 72.55 -3.45 69.55 -0.6 68.4 0.2 68.45 1.95 M-64.75 1.9 L-64.4 -0.15 -64.0 -2.55 Q-63.4 -5.8 -62.3 -9.05 -59.4 -17.8 -52.9 -26.75 -44.1 -39.1 -31.0 -51.0 -17.95 -62.95 -12.0 -74.8 -7.4 -52.55 -7.95 -36.9 -8.2 -29.65 -10.05 -25.15 -5.05 -25.4 -3.4 -27.95 L-3.25 -26.6 Q-3.0 -21.8 -7.25 -19.4 M81.55 -40.95 L78.4 -38.55 71.2 -31.85 70.65 -31.3 Q66.85 -27.6 62.1 -24.25 L61.6 -23.9 62.5 -24.25 67.45 -24.4 68.3 -24.25 Q69.7 -24.05 71.2 -24.25 L74.0 -24.95 73.65 -24.25 Q70.15 -17.15 66.5 -16.7 69.85 -15.35 71.95 -12.0 L72.0 -11.9 Q73.2 -9.9 72.9 -7.85 L70.05 -8.65 Q66.7 -9.65 63.05 -9.55 65.2 -7.8 66.5 -5.65 L67.0 -4.7 67.55 -3.45 68.3 -0.6 68.4 0.2 67.6 0.8 M66.5 -16.7 L64.9 -16.55 M63.05 -9.55 L62.1 -9.5 M61.6 -23.9 L55.7 -20.15 M-12.0 -74.8 Q-16.65 -49.2 -30.95 -33.75 -27.35 -37.2 -24.7 -38.95 -21.35 -41.7 -19.5 -44.95 -16.45 -35.1 -24.45 -29.55 L-18.95 -31.0 Q-15.6 -31.75 -12.45 -34.4 -13.5 -25.1 -17.65 -23.2 L-19.5 -22.75 Q-15.5 -22.8 -13.55 -20.65 L-13.3 -20.95 M-26.55 -27.95 L-25.1 -29.15 -24.9 -29.25 -24.45 -29.55 M-10.05 -25.15 Q-10.8 -23.35 -11.75 -22.0 -12.45 -21.05 -13.3 -20.35 L-12.25 -19.0 Q-12.2 -18.05 -11.65 -16.85 -13.75 -17.8 -15.65 -17.85 L-17.95 -17.55 Q-26.75 -15.9 -34.05 -11.4 -31.2 -10.8 -30.5 -10.0 -39.25 -7.05 -44.05 -0.7 M-22.1 -22.6 L-20.35 -22.75 -19.5 -22.75 M-13.3 -20.35 L-13.35 -20.45 -13.4 -20.5 -13.55 -20.65 M-30.95 -33.75 Q-36.65 -27.0 -40.25 -19.8 -42.55 -15.25 -43.95 -10.55 -38.25 -12.15 -34.05 -11.4 M-65.25 19.55 Q-65.4 18.15 -64.7 14.85 -66.0 10.35 -64.75 1.9" fill="none" stroke="#000000" stroke-linecap="round" stroke-linejoin="round" stroke-width="2.0"/>
  </g>
</svg>
