<?xml version="1.0" encoding="UTF-8" standalone="no"?>
<svg xmlns:xlink="http://www.w3.org/1999/xlink" height="40.1px" width="172.35px" xmlns="http://www.w3.org/2000/svg">
  <g transform="matrix(1.0, 0.0, 0.0, 1.0, 86.2, 20.05)">
    <path d="M77.85 -8.75 Q79.45 -6.4 86.15 -4.95 85.55 -3.15 81.55 -1.45 L84.2 0.0 Q81.65 3.5 76.3 4.95 72.85 -1.05 72.1 -8.15 L77.85 -8.75 M-64.6 -12.05 Q-60.0 -13.65 -54.85 -18.2 L-52.75 -20.05 Q-52.0 -6.15 -43.7 6.35 -41.15 10.8 -36.65 14.4 L-36.8 18.9 -41.85 16.2 -45.6 20.05 -47.6 13.25 -53.4 13.25 Q-70.8 12.45 -84.8 2.55 L-80.55 0.3 -86.2 -3.55 Q-72.9 -6.55 -64.6 -12.05" fill="#483a3c" fill-rule="evenodd" stroke="none"/>
  </g>
</svg>
