<?xml version="1.0" encoding="UTF-8" standalone="no"?>
<svg xmlns:xlink="http://www.w3.org/1999/xlink" height="132.85px" width="187.6px" xmlns="http://www.w3.org/2000/svg">
  <g transform="matrix(1.0, 0.0, 0.0, 1.0, 93.8, 66.4)">
    <path d="M73.15 34.25 L73.05 34.75 Q71.55 42.2 80.25 41.1 74.7 27.35 77.6 18.75 86.65 14.0 92.8 8.05 87.75 7.3 83.95 5.0 90.2 -1.05 92.5 -7.95 83.65 -8.5 76.85 -16.55 73.45 -35.95 54.45 -44.35 61.75 -51.35 61.8 -60.6 56.45 -53.45 44.5 -59.1 38.0 -62.05 30.7 -63.4 18.7 -65.6 8.05 -64.55 3.6 -63.65 1.65 -61.45 L1.7 -61.4 2.05 -61.2 2.65 -60.95 2.85 -60.85 3.1 -60.65 Q7.0 -58.45 9.25 -56.85 5.5 -56.9 2.45 -54.8 L10.65 -49.95 M3.1 -60.65 L2.05 -61.2 Q-0.45 -62.5 -3.1 -63.3 -24.7 -70.6 -58.35 -52.4 -67.55 -51.5 -73.8 -56.05 -73.45 -46.8 -66.65 -43.7 -70.6 -41.8 -74.95 -43.0 -73.1 -35.65 -67.15 -32.8 L-80.2 -19.05 Q-88.0 -10.7 -92.8 -11.85 -90.9 -3.65 -82.1 1.15 -85.05 2.85 -89.0 3.45 -87.45 7.15 -79.0 10.25 -81.55 28.8 -85.35 38.75 -76.6 39.35 -75.7 33.95 -77.8 52.55 -81.4 56.6 -70.8 56.9 -69.65 50.45 -69.35 48.5 -69.85 45.95 M44.45 -24.85 L47.1 -17.2 Q52.2 -2.35 62.05 11.25 63.3 37.6 57.4 55.9 63.6 48.85 66.95 39.95 71.35 28.1 70.75 12.95 M-20.6 -28.35 Q-22.8 -20.25 -26.2 -12.2 -1.75 -17.3 12.4 -24.15 28.25 -17.2 47.1 -17.2 M73.05 34.75 Q70.35 46.05 74.6 50.75 65.15 48.6 66.95 39.95 M-69.65 50.45 Q-64.5 61.3 -48.75 65.45 L-55.45 56.3 Q-50.05 61.35 -41.85 59.7 -61.8 43.75 -63.75 13.95 M-26.2 -12.2 Q-31.35 -0.2 -39.3 11.85 -46.7 41.0 -41.85 59.7" fill="none" stroke="#000000" stroke-linecap="round" stroke-linejoin="round" stroke-width="2.0"/>
  </g>
</svg>
