<?xml version="1.0" encoding="UTF-8" standalone="no"?>
<svg xmlns:xlink="http://www.w3.org/1999/xlink" height="141.9px" width="170.4px" xmlns="http://www.w3.org/2000/svg">
  <g transform="matrix(1.0, 0.0, 0.0, 1.0, 1.0, 70.95)">
    <path d="M22.2 -12.4 L17.25 -9.45 16.85 -9.2 Q6.35 -2.25 3.55 5.6 L12.45 1.3 Q17.95 -8.7 25.95 -12.8 M16.85 -9.2 Q8.9 -8.35 4.4 -12.25 15.65 -16.15 26.0 -28.95 33.7 -38.3 41.0 -40.3 28.8 -41.75 31.65 -54.8 36.1 -48.05 45.7 -42.75 46.8 -49.1 53.7 -50.8 83.2 -58.95 99.6 -69.95 101.1 -62.35 94.9 -55.6 106.7 -64.3 119.35 -60.45 112.55 -58.05 109.85 -55.65 116.2 -54.0 124.35 -49.8 142.4 -40.75 160.7 -40.95 151.3 -31.45 134.85 -35.95 143.2 -28.75 150.6 -24.85 147.85 -22.85 143.85 -25.2 153.3 -15.0 161.95 -10.1 156.95 -8.45 152.4 -9.05 160.85 -1.45 163.4 6.25 L153.25 -2.0 Q159.6 7.05 168.4 16.5 L157.85 17.2 164.25 20.5 Q158.85 26.2 152.25 29.2 L160.9 34.1 Q153.3 40.0 146.6 36.8 151.3 44.15 151.1 49.65 L146.3 50.55 Q149.7 54.65 155.0 58.7 148.2 63.2 141.85 60.9 137.6 67.85 131.5 69.95 L132.55 63.75 Q135.5 61.15 137.65 58.55 142.85 52.05 142.85 45.75 L142.85 45.65 142.55 33.95 142.45 31.95 142.4 31.2 Q144.65 22.7 144.7 14.85 L144.55 10.65 Q144.65 -0.75 140.2 -7.9 139.0 -14.5 134.65 -18.35 118.0 -32.85 90.55 -26.2 67.05 -20.45 65.6 -5.45 57.85 2.2 57.7 13.8 56.35 22.3 53.4 29.95 52.5 45.55 57.25 56.2 51.0 53.4 48.35 49.45 50.45 61.4 53.25 66.45 44.4 63.85 43.35 58.4 L41.15 63.75 37.25 46.3 Q30.6 30.65 23.25 32.7 22.05 32.95 21.15 38.35 14.5 36.1 12.35 31.65 L20.55 31.0 Q9.1 25.7 2.5 20.5 L13.65 16.7 Q6.55 17.65 0.0 16.1 5.8 12.25 11.9 2.3 L12.45 1.3 M41.0 -40.3 L45.5 -40.8 45.7 -42.75 M54.3 -38.65 L51.55 -39.25 50.15 -39.55 Q46.3 -38.9 40.7 -36.05 36.8 -32.05 31.05 -23.6 M50.15 -39.55 L47.6 -40.2 M45.5 -40.8 L46.2 -40.75 M51.55 -39.25 Q52.8 -42.1 54.4 -43.6 59.0 -47.7 67.2 -50.2 M94.9 -55.6 L92.8 -53.5 Q99.05 -56.7 103.6 -56.65 L109.85 -55.65 M92.8 -53.5 L91.0 -52.1 M137.1 -30.55 Q141.6 -27.65 143.15 -25.9 L143.85 -25.2 M125.4 -40.75 L131.2 -37.15 134.85 -35.95 M152.4 -9.05 Q150.15 -9.35 148.1 -10.1 150.4 -6.1 153.25 -2.0 M157.85 17.2 L152.05 16.5 M144.7 14.85 Q148.9 19.4 153.95 22.35 149.6 25.55 145.15 25.1 M146.6 36.8 Q144.55 35.8 142.55 33.95 M152.25 29.2 Q147.6 31.2 142.45 31.95 M141.85 60.9 Q139.65 60.15 137.65 58.55 M142.85 45.65 Q144.25 48.1 146.3 50.55 M45.9 27.45 Q47.0 35.9 46.45 43.45 50.65 37.1 53.4 29.95 M46.45 43.45 L46.35 44.8 Q46.8 47.3 48.35 49.45 M25.55 12.75 L24.25 13.95 Q17.4 19.9 11.6 21.35 17.35 25.3 26.8 23.85 M24.25 13.95 Q18.75 16.0 13.65 16.7 M46.35 44.8 Q45.6 52.0 43.35 58.4" fill="none" stroke="#000000" stroke-linecap="round" stroke-linejoin="round" stroke-width="2.0"/>
  </g>
</svg>
